<?xml version="1.0" encoding="UTF-8" standalone="no"?>
<!DOCTYPE svg PUBLIC "-//W3C//DTD SVG 1.1//EN"
 "http://www.w3.org/Graphics/SVG/1.1/DTD/svg11.dtd">
<!-- Generated by graphviz version 2.43.0 (0)
 -->
<!-- Title: src/libuvgvpccenc/bitstreamGeneration/atlas_context.hpp Pages: 1 -->
<svg width="1480pt" height="313pt"
 viewBox="0.00 0.00 1480.00 313.00" xmlns="http://www.w3.org/2000/svg" xmlns:xlink="http://www.w3.org/1999/xlink">
<g id="graph0" class="graph" transform="scale(1 1) rotate(0) translate(4 309)">
<title>src/libuvgvpccenc/bitstreamGeneration/atlas_context.hpp</title>
<!-- Node1 -->
<g id="Node000001" class="node">
<title>Node1</title>
<g id="a_Node000001"><a xlink:title=" ">
<polygon fill="#999999" stroke="#666666" points="861.5,-305 700.5,-305 700.5,-275 861.5,-275 861.5,-305"/>
<text text-anchor="start" x="708.5" y="-293" font-family="Helvetica,sans-Serif" font-size="10.00">src/libuvgvpccenc/bitstream</text>
<text text-anchor="middle" x="781" y="-282" font-family="Helvetica,sans-Serif" font-size="10.00">Generation/atlas_context.hpp</text>
</a>
</g>
</g>
<!-- Node2 -->
<g id="Node000002" class="node">
<title>Node2</title>
<g id="a_Node000002"><a xlink:href="atlas__frame_8hpp.html" target="_top" xlink:title=" ">
<polygon fill="white" stroke="#666666" points="829,-239 733,-239 733,-220 829,-220 829,-239"/>
<text text-anchor="middle" x="781" y="-227" font-family="Helvetica,sans-Serif" font-size="10.00">atlas_frame.hpp</text>
</a>
</g>
</g>
<!-- Node1&#45;&gt;Node2 -->
<g id="edge1_Node000001_Node000002" class="edge">
<title>Node1&#45;&gt;Node2</title>
<g id="a_edge1_Node000001_Node000002"><a xlink:title=" ">
<path fill="none" stroke="#63b8ff" d="M781,-274.84C781,-267.21 781,-257.7 781,-249.45"/>
<polygon fill="#63b8ff" stroke="#63b8ff" points="784.5,-249.27 781,-239.27 777.5,-249.27 784.5,-249.27"/>
</a>
</g>
</g>
<!-- Node4 -->
<g id="Node000004" class="node">
<title>Node4</title>
<g id="a_Node000004"><a xlink:href="bitstream__common_8hpp.html" target="_top" xlink:title=" ">
<polygon fill="white" stroke="#666666" points="955.5,-184 822.5,-184 822.5,-165 955.5,-165 955.5,-184"/>
<text text-anchor="middle" x="889" y="-172" font-family="Helvetica,sans-Serif" font-size="10.00">bitstream_common.hpp</text>
</a>
</g>
</g>
<!-- Node1&#45;&gt;Node4 -->
<g id="edge33_Node000001_Node000004" class="edge">
<title>Node1&#45;&gt;Node4</title>
<g id="a_edge33_Node000001_Node000004"><a xlink:title=" ">
<path fill="none" stroke="#63b8ff" d="M798.67,-274.86C810.31,-265.23 825.62,-251.93 838,-239 852.3,-224.06 866.91,-205.47 876.8,-192.27"/>
<polygon fill="#63b8ff" stroke="#63b8ff" points="879.71,-194.23 882.84,-184.11 874.08,-190.07 879.71,-194.23"/>
</a>
</g>
</g>
<!-- Node6 -->
<g id="Node000006" class="node">
<title>Node6</title>
<g id="a_Node000006"><a xlink:href="uvgvpcc_8hpp.html" target="_top" xlink:title=" ">
<polygon fill="white" stroke="#666666" points="739,-184 617,-184 617,-165 739,-165 739,-184"/>
<text text-anchor="middle" x="678" y="-172" font-family="Helvetica,sans-Serif" font-size="10.00">uvgvpcc/uvgvpcc.hpp</text>
</a>
</g>
</g>
<!-- Node1&#45;&gt;Node6 -->
<g id="edge44_Node000001_Node000006" class="edge">
<title>Node1&#45;&gt;Node6</title>
<g id="a_edge44_Node000001_Node000006"><a xlink:title=" ">
<path fill="none" stroke="#63b8ff" d="M762.86,-274.85C751.16,-265.32 735.97,-252.14 724,-239 710.72,-224.42 697.74,-206.01 688.98,-192.77"/>
<polygon fill="#63b8ff" stroke="#63b8ff" points="691.77,-190.66 683.39,-184.18 685.9,-194.47 691.77,-190.66"/>
</a>
</g>
</g>
<!-- Node27 -->
<g id="Node000027" class="node">
<title>Node27</title>
<g id="a_Node000027"><a xlink:href="bitstream__util_8hpp.html" target="_top" xlink:title=" ">
<polygon fill="white" stroke="#666666" points="1466,-129 1360,-129 1360,-110 1466,-110 1466,-129"/>
<text text-anchor="middle" x="1413" y="-117" font-family="Helvetica,sans-Serif" font-size="10.00">bitstream_util.hpp</text>
</a>
</g>
</g>
<!-- Node1&#45;&gt;Node27 -->
<g id="edge34_Node000001_Node000027" class="edge">
<title>Node1&#45;&gt;Node27</title>
<g id="a_edge34_Node000001_Node000027"><a xlink:title=" ">
<path fill="none" stroke="#63b8ff" d="M833.53,-275C956.18,-242.3 1259.45,-161.44 1370.97,-131.7"/>
<polygon fill="#63b8ff" stroke="#63b8ff" points="1372.09,-135.03 1380.85,-129.07 1370.28,-128.27 1372.09,-135.03"/>
</a>
</g>
</g>
<!-- Node30 -->
<g id="Node000030" class="node">
<title>Node30</title>
<g id="a_Node000030"><a xlink:href="parameters_8hpp.html" target="_top" xlink:title=" ">
<polygon fill="white" stroke="#666666" points="323,-184 205,-184 205,-165 323,-165 323,-184"/>
<text text-anchor="middle" x="264" y="-172" font-family="Helvetica,sans-Serif" font-size="10.00">utils/parameters.hpp</text>
</a>
</g>
</g>
<!-- Node1&#45;&gt;Node30 -->
<g id="edge39_Node000001_Node000030" class="edge">
<title>Node1&#45;&gt;Node30</title>
<g id="a_edge39_Node000001_Node000030"><a xlink:title=" ">
<path fill="none" stroke="#63b8ff" d="M717.09,-274.97C612.43,-251.99 406.77,-206.84 312.86,-186.23"/>
<polygon fill="#63b8ff" stroke="#63b8ff" points="313.56,-182.8 303.05,-184.07 312.06,-189.63 313.56,-182.8"/>
</a>
</g>
</g>
<!-- Node3 -->
<g id="Node000003" class="node">
<title>Node3</title>
<g id="a_Node000003"><a xlink:title=" ">
<polygon fill="#e0e0e0" stroke="#999999" points="804.5,-184 757.5,-184 757.5,-165 804.5,-165 804.5,-184"/>
<text text-anchor="middle" x="781" y="-172" font-family="Helvetica,sans-Serif" font-size="10.00">cmath</text>
</a>
</g>
</g>
<!-- Node2&#45;&gt;Node3 -->
<g id="edge2_Node000002_Node000003" class="edge">
<title>Node2&#45;&gt;Node3</title>
<g id="a_edge2_Node000002_Node000003"><a xlink:title=" ">
<path fill="none" stroke="#63b8ff" d="M781,-219.75C781,-212.8 781,-202.85 781,-194.13"/>
<polygon fill="#63b8ff" stroke="#63b8ff" points="784.5,-194.09 781,-184.09 777.5,-194.09 784.5,-194.09"/>
</a>
</g>
</g>
<!-- Node2&#45;&gt;Node4 -->
<g id="edge3_Node000002_Node000004" class="edge">
<title>Node2&#45;&gt;Node4</title>
<g id="a_edge3_Node000002_Node000004"><a xlink:title=" ">
<path fill="none" stroke="#63b8ff" d="M798.35,-219.98C815.57,-211.54 842.2,-198.47 862.15,-188.68"/>
<polygon fill="#63b8ff" stroke="#63b8ff" points="863.9,-191.72 871.33,-184.17 860.81,-185.43 863.9,-191.72"/>
</a>
</g>
</g>
<!-- Node2&#45;&gt;Node6 -->
<g id="edge5_Node000002_Node000006" class="edge">
<title>Node2&#45;&gt;Node6</title>
<g id="a_edge5_Node000002_Node000006"><a xlink:title=" ">
<path fill="none" stroke="#63b8ff" d="M764.45,-219.98C748.11,-211.57 722.87,-198.59 703.87,-188.81"/>
<polygon fill="#63b8ff" stroke="#63b8ff" points="705.34,-185.63 694.85,-184.17 702.14,-191.86 705.34,-185.63"/>
</a>
</g>
</g>
<!-- Node5 -->
<g id="Node000005" class="node">
<title>Node5</title>
<g id="a_Node000005"><a xlink:title=" ">
<polygon fill="#e0e0e0" stroke="#999999" points="948,-74 898,-74 898,-55 948,-55 948,-74"/>
<text text-anchor="middle" x="923" y="-62" font-family="Helvetica,sans-Serif" font-size="10.00">cstdint</text>
</a>
</g>
</g>
<!-- Node4&#45;&gt;Node5 -->
<g id="edge4_Node000004_Node000005" class="edge">
<title>Node4&#45;&gt;Node5</title>
<g id="a_edge4_Node000004_Node000005"><a xlink:title=" ">
<path fill="none" stroke="#63b8ff" d="M955.67,-171.31C1069.06,-166.89 1289.57,-155.02 1313,-129 1318.65,-122.72 1318.62,-116.3 1313,-110 1289.57,-83.74 1050.02,-70.89 958.38,-66.9"/>
<polygon fill="#63b8ff" stroke="#63b8ff" points="958.36,-63.4 948.22,-66.47 958.06,-70.39 958.36,-63.4"/>
</a>
</g>
</g>
<!-- Node6&#45;&gt;Node5 -->
<g id="edge7_Node000006_Node000005" class="edge">
<title>Node6&#45;&gt;Node5</title>
<g id="a_edge7_Node000006_Node000005"><a xlink:title=" ">
<path fill="none" stroke="#63b8ff" d="M704.56,-164.9C729.53,-156.56 767.79,-143.12 800,-129 809.72,-124.74 864.54,-96.15 897.63,-78.82"/>
<polygon fill="#63b8ff" stroke="#63b8ff" points="899.5,-81.79 906.73,-74.05 896.25,-75.59 899.5,-81.79"/>
</a>
</g>
</g>
<!-- Node7 -->
<g id="Node000007" class="node">
<title>Node7</title>
<g id="a_Node000007"><a xlink:title=" ">
<polygon fill="#e0e0e0" stroke="#999999" points="465.5,-74 412.5,-74 412.5,-55 465.5,-55 465.5,-74"/>
<text text-anchor="middle" x="439" y="-62" font-family="Helvetica,sans-Serif" font-size="10.00">cstddef</text>
</a>
</g>
</g>
<!-- Node6&#45;&gt;Node7 -->
<g id="edge6_Node000006_Node000007" class="edge">
<title>Node6&#45;&gt;Node7</title>
<g id="a_edge6_Node000006_Node000007"><a xlink:title=" ">
<path fill="none" stroke="#63b8ff" d="M629.53,-164.97C597.3,-158.09 554.69,-146.61 520,-129 495.26,-116.44 470.74,-95.76 455.27,-81.43"/>
<polygon fill="#63b8ff" stroke="#63b8ff" points="457.32,-78.56 447.66,-74.21 452.51,-83.63 457.32,-78.56"/>
</a>
</g>
</g>
<!-- Node8 -->
<g id="Node000008" class="node">
<title>Node8</title>
<g id="a_Node000008"><a xlink:title=" ">
<polygon fill="#e0e0e0" stroke="#999999" points="60,-19 0,-19 0,0 60,0 60,-19"/>
<text text-anchor="middle" x="30" y="-7" font-family="Helvetica,sans-Serif" font-size="10.00">iostream</text>
</a>
</g>
</g>
<!-- Node6&#45;&gt;Node8 -->
<g id="edge8_Node000006_Node000008" class="edge">
<title>Node6&#45;&gt;Node8</title>
<g id="a_edge8_Node000006_Node000008"><a xlink:title=" ">
<path fill="none" stroke="#63b8ff" d="M616.97,-171.53C547.41,-167.92 430.91,-157.75 335,-129 316.53,-123.46 314.21,-116.35 296,-110 225.94,-85.58 201.76,-101.86 133,-74 101.76,-61.35 69.23,-39.61 49.29,-25.15"/>
<polygon fill="#63b8ff" stroke="#63b8ff" points="51.19,-22.2 41.06,-19.08 47.03,-27.83 51.19,-22.2"/>
</a>
</g>
</g>
<!-- Node9 -->
<g id="Node000009" class="node">
<title>Node9</title>
<g id="a_Node000009"><a xlink:title=" ">
<polygon fill="#e0e0e0" stroke="#999999" points="636,-129 578,-129 578,-110 636,-110 636,-129"/>
<text text-anchor="middle" x="607" y="-117" font-family="Helvetica,sans-Serif" font-size="10.00">memory</text>
</a>
</g>
</g>
<!-- Node6&#45;&gt;Node9 -->
<g id="edge9_Node000006_Node000009" class="edge">
<title>Node6&#45;&gt;Node9</title>
<g id="a_edge9_Node000006_Node000009"><a xlink:title=" ">
<path fill="none" stroke="#63b8ff" d="M666.59,-164.98C655.89,-157 639.66,-144.88 626.84,-135.31"/>
<polygon fill="#63b8ff" stroke="#63b8ff" points="628.72,-132.35 618.61,-129.17 624.53,-137.96 628.72,-132.35"/>
</a>
</g>
</g>
<!-- Node10 -->
<g id="Node000010" class="node">
<title>Node10</title>
<g id="a_Node000010"><a xlink:title=" ">
<polygon fill="#e0e0e0" stroke="#999999" points="701.5,-129 654.5,-129 654.5,-110 701.5,-110 701.5,-129"/>
<text text-anchor="middle" x="678" y="-117" font-family="Helvetica,sans-Serif" font-size="10.00">queue</text>
</a>
</g>
</g>
<!-- Node6&#45;&gt;Node10 -->
<g id="edge10_Node000006_Node000010" class="edge">
<title>Node6&#45;&gt;Node10</title>
<g id="a_edge10_Node000006_Node000010"><a xlink:title=" ">
<path fill="none" stroke="#63b8ff" d="M678,-164.75C678,-157.8 678,-147.85 678,-139.13"/>
<polygon fill="#63b8ff" stroke="#63b8ff" points="681.5,-139.09 678,-129.09 674.5,-139.09 681.5,-139.09"/>
</a>
</g>
</g>
<!-- Node11 -->
<g id="Node000011" class="node">
<title>Node11</title>
<g id="a_Node000011"><a xlink:title=" ">
<polygon fill="#e0e0e0" stroke="#999999" points="790.5,-129 719.5,-129 719.5,-110 790.5,-110 790.5,-129"/>
<text text-anchor="middle" x="755" y="-117" font-family="Helvetica,sans-Serif" font-size="10.00">semaphore</text>
</a>
</g>
</g>
<!-- Node6&#45;&gt;Node11 -->
<g id="edge11_Node000006_Node000011" class="edge">
<title>Node6&#45;&gt;Node11</title>
<g id="a_edge11_Node000006_Node000011"><a xlink:title=" ">
<path fill="none" stroke="#63b8ff" d="M690.37,-164.98C702.09,-156.92 719.92,-144.65 733.89,-135.03"/>
<polygon fill="#63b8ff" stroke="#63b8ff" points="736.15,-137.72 742.4,-129.17 732.18,-131.96 736.15,-137.72"/>
</a>
</g>
</g>
<!-- Node12 -->
<g id="Node000012" class="node">
<title>Node12</title>
<g id="a_Node000012"><a xlink:title=" ">
<polygon fill="#e0e0e0" stroke="#999999" points="540,-74 484,-74 484,-55 540,-55 540,-74"/>
<text text-anchor="middle" x="512" y="-62" font-family="Helvetica,sans-Serif" font-size="10.00">sstream</text>
</a>
</g>
</g>
<!-- Node6&#45;&gt;Node12 -->
<g id="edge12_Node000006_Node000012" class="edge">
<title>Node6&#45;&gt;Node12</title>
<g id="a_edge12_Node000006_Node000012"><a xlink:title=" ">
<path fill="none" stroke="#63b8ff" d="M616.95,-166.66C589.26,-160.73 557.89,-149.66 536,-129 523.56,-117.25 517.51,-98.41 514.6,-84.29"/>
<polygon fill="#63b8ff" stroke="#63b8ff" points="518.02,-83.48 512.89,-74.21 511.12,-84.66 518.02,-83.48"/>
</a>
</g>
</g>
<!-- Node13 -->
<g id="Node000013" class="node">
<title>Node13</title>
<g id="a_Node000013"><a xlink:title=" ">
<polygon fill="#e0e0e0" stroke="#999999" points="496,-19 452,-19 452,0 496,0 496,-19"/>
<text text-anchor="middle" x="474" y="-7" font-family="Helvetica,sans-Serif" font-size="10.00">string</text>
</a>
</g>
</g>
<!-- Node6&#45;&gt;Node13 -->
<g id="edge13_Node000006_Node000013" class="edge">
<title>Node6&#45;&gt;Node13</title>
<g id="a_edge13_Node000006_Node000013"><a xlink:title=" ">
<path fill="none" stroke="#63b8ff" d="M632.97,-164.97C610.83,-158.58 585.44,-147.61 569,-129 546.44,-103.47 569.61,-82.13 549,-55 538.03,-40.56 520.91,-29.89 505.79,-22.63"/>
<polygon fill="#63b8ff" stroke="#63b8ff" points="506.79,-19.24 496.24,-18.34 503.93,-25.62 506.79,-19.24"/>
</a>
</g>
</g>
<!-- Node14 -->
<g id="Node000014" class="node">
<title>Node14</title>
<g id="a_Node000014"><a xlink:title=" ">
<polygon fill="#e0e0e0" stroke="#999999" points="287.5,-129 240.5,-129 240.5,-110 287.5,-110 287.5,-129"/>
<text text-anchor="middle" x="264" y="-117" font-family="Helvetica,sans-Serif" font-size="10.00">vector</text>
</a>
</g>
</g>
<!-- Node6&#45;&gt;Node14 -->
<g id="edge14_Node000006_Node000014" class="edge">
<title>Node6&#45;&gt;Node14</title>
<g id="a_edge14_Node000006_Node000014"><a xlink:title=" ">
<path fill="none" stroke="#63b8ff" d="M616.83,-168.2C542.2,-161.29 412.32,-147.82 302,-129 300.54,-128.75 299.06,-128.48 297.56,-128.2"/>
<polygon fill="#63b8ff" stroke="#63b8ff" points="298.14,-124.75 287.64,-126.18 296.74,-131.61 298.14,-124.75"/>
</a>
</g>
</g>
<!-- Node15 -->
<g id="Node000015" class="node">
<title>Node15</title>
<g id="a_Node000015"><a xlink:title=" ">
<polygon fill="#e0e0e0" stroke="#999999" points="911,-129 847,-129 847,-110 911,-110 911,-129"/>
<text text-anchor="middle" x="879" y="-117" font-family="Helvetica,sans-Serif" font-size="10.00">algorithm</text>
</a>
</g>
</g>
<!-- Node6&#45;&gt;Node15 -->
<g id="edge15_Node000006_Node000015" class="edge">
<title>Node6&#45;&gt;Node15</title>
<g id="a_edge15_Node000006_Node000015"><a xlink:title=" ">
<path fill="none" stroke="#63b8ff" d="M710.29,-164.98C744.73,-155.91 799.38,-141.49 837.11,-131.55"/>
<polygon fill="#63b8ff" stroke="#63b8ff" points="838.01,-134.93 846.79,-128.99 836.22,-128.16 838.01,-134.93"/>
</a>
</g>
</g>
<!-- Node16 -->
<g id="Node000016" class="node">
<title>Node16</title>
<g id="a_Node000016"><a xlink:title=" ">
<polygon fill="#e0e0e0" stroke="#999999" points="1022.5,-129 929.5,-129 929.5,-110 1022.5,-110 1022.5,-129"/>
<text text-anchor="middle" x="976" y="-117" font-family="Helvetica,sans-Serif" font-size="10.00">unordered_map</text>
</a>
</g>
</g>
<!-- Node6&#45;&gt;Node16 -->
<g id="edge16_Node000006_Node000016" class="edge">
<title>Node6&#45;&gt;Node16</title>
<g id="a_edge16_Node000006_Node000016"><a xlink:title=" ">
<path fill="none" stroke="#63b8ff" d="M725.88,-164.98C778.54,-155.62 863.11,-140.58 919.11,-130.62"/>
<polygon fill="#63b8ff" stroke="#63b8ff" points="919.99,-134.02 929.22,-128.82 918.76,-127.12 919.99,-134.02"/>
</a>
</g>
</g>
<!-- Node17 -->
<g id="Node000017" class="node">
<title>Node17</title>
<g id="a_Node000017"><a xlink:title=" ">
<polygon fill="#e0e0e0" stroke="#999999" points="1167.5,-129 1040.5,-129 1040.5,-110 1167.5,-110 1167.5,-129"/>
<text text-anchor="middle" x="1104" y="-117" font-family="Helvetica,sans-Serif" font-size="10.00">../utils/parameters.hpp</text>
</a>
</g>
</g>
<!-- Node6&#45;&gt;Node17 -->
<g id="edge17_Node000006_Node000017" class="edge">
<title>Node6&#45;&gt;Node17</title>
<g id="a_edge17_Node000006_Node000017"><a xlink:title=" ">
<path fill="none" stroke="#63b8ff" d="M739.04,-165.91C815.89,-156.34 947.83,-139.93 1030.25,-129.68"/>
<polygon fill="#63b8ff" stroke="#63b8ff" points="1030.8,-133.13 1040.3,-128.43 1029.94,-126.19 1030.8,-133.13"/>
</a>
</g>
</g>
<!-- Node18 -->
<g id="Node000018" class="node">
<title>Node18</title>
<g id="a_Node000018"><a xlink:title=" ">
<polygon fill="#e0e0e0" stroke="#999999" points="1304,-129 1186,-129 1186,-110 1304,-110 1304,-129"/>
<text text-anchor="middle" x="1245" y="-117" font-family="Helvetica,sans-Serif" font-size="10.00">../utils/constants.hpp</text>
</a>
</g>
</g>
<!-- Node6&#45;&gt;Node18 -->
<g id="edge18_Node000006_Node000018" class="edge">
<title>Node6&#45;&gt;Node18</title>
<g id="a_edge18_Node000006_Node000018"><a xlink:title=" ">
<path fill="none" stroke="#63b8ff" d="M739.18,-166.04C742.5,-165.68 745.79,-165.33 749,-165 935.67,-145.98 985.45,-148.74 1175.63,-129.1"/>
<polygon fill="#63b8ff" stroke="#63b8ff" points="1176.09,-132.57 1185.68,-128.06 1175.37,-125.61 1176.09,-132.57"/>
</a>
</g>
</g>
<!-- Node19 -->
<g id="Node000019" class="node">
<title>Node19</title>
<g id="a_Node000019"><a xlink:href="utils_8hpp.html" target="_top" xlink:title=" ">
<polygon fill="white" stroke="#666666" points="445.5,-129 344.5,-129 344.5,-110 445.5,-110 445.5,-129"/>
<text text-anchor="middle" x="395" y="-117" font-family="Helvetica,sans-Serif" font-size="10.00">uvgutils/utils.hpp</text>
</a>
</g>
</g>
<!-- Node6&#45;&gt;Node19 -->
<g id="edge19_Node000006_Node000019" class="edge">
<title>Node6&#45;&gt;Node19</title>
<g id="a_edge19_Node000006_Node000019"><a xlink:title=" ">
<path fill="none" stroke="#63b8ff" d="M632.53,-164.98C583.06,-155.72 503.95,-140.9 450.77,-130.94"/>
<polygon fill="#63b8ff" stroke="#63b8ff" points="451.3,-127.48 440.83,-129.08 450.01,-134.36 451.3,-127.48"/>
</a>
</g>
</g>
<!-- Node19&#45;&gt;Node5 -->
<g id="edge22_Node000019_Node000005" class="edge">
<title>Node19&#45;&gt;Node5</title>
<g id="a_edge22_Node000019_Node000005"><a xlink:title=" ">
<path fill="none" stroke="#63b8ff" d="M445.63,-113.42C552.02,-102.74 796.49,-78.2 887.77,-69.04"/>
<polygon fill="#63b8ff" stroke="#63b8ff" points="888.28,-72.5 897.88,-68.02 887.58,-65.54 888.28,-72.5"/>
</a>
</g>
</g>
<!-- Node19&#45;&gt;Node7 -->
<g id="edge21_Node000019_Node000007" class="edge">
<title>Node19&#45;&gt;Node7</title>
<g id="a_edge21_Node000019_Node000007"><a xlink:title=" ">
<path fill="none" stroke="#63b8ff" d="M402.27,-109.75C408.54,-102.18 417.79,-91.05 425.43,-81.84"/>
<polygon fill="#63b8ff" stroke="#63b8ff" points="428.17,-84.02 431.87,-74.09 422.79,-79.55 428.17,-84.02"/>
</a>
</g>
</g>
<!-- Node19&#45;&gt;Node12 -->
<g id="edge25_Node000019_Node000012" class="edge">
<title>Node19&#45;&gt;Node12</title>
<g id="a_edge25_Node000019_Node000012"><a xlink:title=" ">
<path fill="none" stroke="#63b8ff" d="M413.8,-109.98C432.62,-101.46 461.82,-88.23 483.5,-78.41"/>
<polygon fill="#63b8ff" stroke="#63b8ff" points="485.2,-81.48 492.86,-74.17 482.31,-75.11 485.2,-81.48"/>
</a>
</g>
</g>
<!-- Node20 -->
<g id="Node000020" class="node">
<title>Node20</title>
<g id="a_Node000020"><a xlink:title=" ">
<polygon fill="#e0e0e0" stroke="#999999" points="394,-74 352,-74 352,-55 394,-55 394,-74"/>
<text text-anchor="middle" x="373" y="-62" font-family="Helvetica,sans-Serif" font-size="10.00">array</text>
</a>
</g>
</g>
<!-- Node19&#45;&gt;Node20 -->
<g id="edge20_Node000019_Node000020" class="edge">
<title>Node19&#45;&gt;Node20</title>
<g id="a_edge20_Node000019_Node000020"><a xlink:title=" ">
<path fill="none" stroke="#63b8ff" d="M391.37,-109.75C388.42,-102.65 384.17,-92.4 380.49,-83.56"/>
<polygon fill="#63b8ff" stroke="#63b8ff" points="383.63,-81.98 376.57,-74.09 377.17,-84.67 383.63,-81.98"/>
</a>
</g>
</g>
<!-- Node21 -->
<g id="Node000021" class="node">
<title>Node21</title>
<g id="a_Node000021"><a xlink:title=" ">
<polygon fill="#e0e0e0" stroke="#999999" points="340,-19 284,-19 284,0 340,0 340,-19"/>
<text text-anchor="middle" x="312" y="-7" font-family="Helvetica,sans-Serif" font-size="10.00">iomanip</text>
</a>
</g>
</g>
<!-- Node19&#45;&gt;Node21 -->
<g id="edge23_Node000019_Node000021" class="edge">
<title>Node19&#45;&gt;Node21</title>
<g id="a_edge23_Node000019_Node000021"><a xlink:title=" ">
<path fill="none" stroke="#63b8ff" d="M344.25,-111.84C320.9,-105.96 295.26,-94.88 281,-74 270.68,-58.9 282.89,-39.86 294.89,-26.58"/>
<polygon fill="#63b8ff" stroke="#63b8ff" points="297.66,-28.75 302.13,-19.15 292.65,-23.87 297.66,-28.75"/>
</a>
</g>
</g>
<!-- Node22 -->
<g id="Node000022" class="node">
<title>Node22</title>
<g id="a_Node000022"><a xlink:title=" ">
<polygon fill="#e0e0e0" stroke="#999999" points="334,-74 290,-74 290,-55 334,-55 334,-74"/>
<text text-anchor="middle" x="312" y="-62" font-family="Helvetica,sans-Serif" font-size="10.00">limits</text>
</a>
</g>
</g>
<!-- Node19&#45;&gt;Node22 -->
<g id="edge24_Node000019_Node000022" class="edge">
<title>Node19&#45;&gt;Node22</title>
<g id="a_edge24_Node000019_Node000022"><a xlink:title=" ">
<path fill="none" stroke="#63b8ff" d="M381.66,-109.98C368.91,-101.84 349.45,-89.41 334.33,-79.76"/>
<polygon fill="#63b8ff" stroke="#63b8ff" points="335.89,-76.6 325.58,-74.17 332.12,-82.5 335.89,-76.6"/>
</a>
</g>
</g>
<!-- Node23 -->
<g id="Node000023" class="node">
<title>Node23</title>
<g id="a_Node000023"><a xlink:href="log_8hpp.html" target="_top" xlink:title=" ">
<polygon fill="white" stroke="#666666" points="195.5,-74 142.5,-74 142.5,-55 195.5,-55 195.5,-74"/>
<text text-anchor="middle" x="169" y="-62" font-family="Helvetica,sans-Serif" font-size="10.00">log.hpp</text>
</a>
</g>
</g>
<!-- Node19&#45;&gt;Node23 -->
<g id="edge26_Node000019_Node000023" class="edge">
<title>Node19&#45;&gt;Node23</title>
<g id="a_edge26_Node000019_Node000023"><a xlink:title=" ">
<path fill="none" stroke="#63b8ff" d="M358.69,-109.98C316.62,-100.12 247.68,-83.95 205.52,-74.06"/>
<polygon fill="#63b8ff" stroke="#63b8ff" points="206.2,-70.63 195.67,-71.75 204.6,-77.44 206.2,-70.63"/>
</a>
</g>
</g>
<!-- Node23&#45;&gt;Node8 -->
<g id="edge30_Node000023_Node000008" class="edge">
<title>Node23&#45;&gt;Node8</title>
<g id="a_edge30_Node000023_Node000008"><a xlink:title=" ">
<path fill="none" stroke="#63b8ff" d="M146.67,-54.98C123.8,-46.27 88.04,-32.63 62.14,-22.75"/>
<polygon fill="#63b8ff" stroke="#63b8ff" points="63.33,-19.46 52.74,-19.17 60.84,-26 63.33,-19.46"/>
</a>
</g>
</g>
<!-- Node23&#45;&gt;Node13 -->
<g id="edge32_Node000023_Node000013" class="edge">
<title>Node23&#45;&gt;Node13</title>
<g id="a_edge32_Node000023_Node000013"><a xlink:title=" ">
<path fill="none" stroke="#63b8ff" d="M195.53,-58.89C251.45,-49.17 381.23,-26.62 441.79,-16.1"/>
<polygon fill="#63b8ff" stroke="#63b8ff" points="442.67,-19.5 451.92,-14.34 441.47,-12.6 442.67,-19.5"/>
</a>
</g>
</g>
<!-- Node23&#45;&gt;Node21 -->
<g id="edge29_Node000023_Node000021" class="edge">
<title>Node23&#45;&gt;Node21</title>
<g id="a_edge29_Node000023_Node000021"><a xlink:title=" ">
<path fill="none" stroke="#63b8ff" d="M191.98,-54.98C215.5,-46.27 252.29,-32.63 278.94,-22.75"/>
<polygon fill="#63b8ff" stroke="#63b8ff" points="280.45,-25.93 288.61,-19.17 278.01,-19.36 280.45,-25.93"/>
</a>
</g>
</g>
<!-- Node24 -->
<g id="Node000024" class="node">
<title>Node24</title>
<g id="a_Node000024"><a xlink:title=" ">
<polygon fill="#e0e0e0" stroke="#999999" points="194,-19 144,-19 144,0 194,0 194,-19"/>
<text text-anchor="middle" x="169" y="-7" font-family="Helvetica,sans-Serif" font-size="10.00">chrono</text>
</a>
</g>
</g>
<!-- Node23&#45;&gt;Node24 -->
<g id="edge27_Node000023_Node000024" class="edge">
<title>Node23&#45;&gt;Node24</title>
<g id="a_edge27_Node000023_Node000024"><a xlink:title=" ">
<path fill="none" stroke="#63b8ff" d="M169,-54.75C169,-47.8 169,-37.85 169,-29.13"/>
<polygon fill="#63b8ff" stroke="#63b8ff" points="172.5,-29.09 169,-19.09 165.5,-29.09 172.5,-29.09"/>
</a>
</g>
</g>
<!-- Node25 -->
<g id="Node000025" class="node">
<title>Node25</title>
<g id="a_Node000025"><a xlink:title=" ">
<polygon fill="#e0e0e0" stroke="#999999" points="265.5,-19 212.5,-19 212.5,0 265.5,0 265.5,-19"/>
<text text-anchor="middle" x="239" y="-7" font-family="Helvetica,sans-Serif" font-size="10.00">cstdarg</text>
</a>
</g>
</g>
<!-- Node23&#45;&gt;Node25 -->
<g id="edge28_Node000023_Node000025" class="edge">
<title>Node23&#45;&gt;Node25</title>
<g id="a_edge28_Node000023_Node000025"><a xlink:title=" ">
<path fill="none" stroke="#63b8ff" d="M180.25,-54.98C190.8,-47 206.8,-34.88 219.44,-25.31"/>
<polygon fill="#63b8ff" stroke="#63b8ff" points="221.69,-28 227.55,-19.17 217.46,-22.42 221.69,-28"/>
</a>
</g>
</g>
<!-- Node26 -->
<g id="Node000026" class="node">
<title>Node26</title>
<g id="a_Node000026"><a xlink:title=" ">
<polygon fill="#e0e0e0" stroke="#999999" points="126,-19 78,-19 78,0 126,0 126,-19"/>
<text text-anchor="middle" x="102" y="-7" font-family="Helvetica,sans-Serif" font-size="10.00">mutex</text>
</a>
</g>
</g>
<!-- Node23&#45;&gt;Node26 -->
<g id="edge31_Node000023_Node000026" class="edge">
<title>Node23&#45;&gt;Node26</title>
<g id="a_edge31_Node000023_Node000026"><a xlink:title=" ">
<path fill="none" stroke="#63b8ff" d="M158.24,-54.98C148.23,-47.07 133.11,-35.11 121.07,-25.58"/>
<polygon fill="#63b8ff" stroke="#63b8ff" points="122.97,-22.63 112.96,-19.17 118.63,-28.12 122.97,-22.63"/>
</a>
</g>
</g>
<!-- Node27&#45;&gt;Node5 -->
<g id="edge37_Node000027_Node000005" class="edge">
<title>Node27&#45;&gt;Node5</title>
<g id="a_edge37_Node000027_Node000005"><a xlink:title=" ">
<path fill="none" stroke="#63b8ff" d="M1359.98,-111.67C1355.26,-111.09 1350.54,-110.53 1346,-110 1202.33,-93.33 1030.89,-76.12 958.27,-68.95"/>
<polygon fill="#63b8ff" stroke="#63b8ff" points="958.59,-65.47 948.29,-67.97 957.9,-72.43 958.59,-65.47"/>
</a>
</g>
</g>
<!-- Node27&#45;&gt;Node13 -->
<g id="edge38_Node000027_Node000013" class="edge">
<title>Node27&#45;&gt;Node13</title>
<g id="a_edge38_Node000027_Node000013"><a xlink:title=" ">
<path fill="none" stroke="#63b8ff" d="M1359.75,-110.27C1274.75,-97.31 1103.1,-71.89 957,-55 787.62,-35.42 584.03,-18.97 506.3,-12.95"/>
<polygon fill="#63b8ff" stroke="#63b8ff" points="506.42,-9.45 496.18,-12.17 505.89,-16.43 506.42,-9.45"/>
</a>
</g>
</g>
<!-- Node28 -->
<g id="Node000028" class="node">
<title>Node28</title>
<g id="a_Node000028"><a xlink:title=" ">
<polygon fill="#e0e0e0" stroke="#999999" points="1404,-74 1352,-74 1352,-55 1404,-55 1404,-74"/>
<text text-anchor="middle" x="1378" y="-62" font-family="Helvetica,sans-Serif" font-size="10.00">cassert</text>
</a>
</g>
</g>
<!-- Node27&#45;&gt;Node28 -->
<g id="edge35_Node000027_Node000028" class="edge">
<title>Node27&#45;&gt;Node28</title>
<g id="a_edge35_Node000027_Node000028"><a xlink:title=" ">
<path fill="none" stroke="#63b8ff" d="M1407.22,-109.75C1402.38,-102.42 1395.32,-91.73 1389.36,-82.7"/>
<polygon fill="#63b8ff" stroke="#63b8ff" points="1392.1,-80.5 1383.67,-74.09 1386.26,-84.36 1392.1,-80.5"/>
</a>
</g>
</g>
<!-- Node29 -->
<g id="Node000029" class="node">
<title>Node29</title>
<g id="a_Node000029"><a xlink:title=" ">
<polygon fill="#e0e0e0" stroke="#999999" points="1472,-74 1422,-74 1422,-55 1472,-55 1472,-74"/>
<text text-anchor="middle" x="1447" y="-62" font-family="Helvetica,sans-Serif" font-size="10.00">cstring</text>
</a>
</g>
</g>
<!-- Node27&#45;&gt;Node29 -->
<g id="edge36_Node000027_Node000029" class="edge">
<title>Node27&#45;&gt;Node29</title>
<g id="a_edge36_Node000027_Node000029"><a xlink:title=" ">
<path fill="none" stroke="#63b8ff" d="M1418.61,-109.75C1423.32,-102.42 1430.17,-91.73 1435.97,-82.7"/>
<polygon fill="#63b8ff" stroke="#63b8ff" points="1439.04,-84.4 1441.49,-74.09 1433.14,-80.62 1439.04,-84.4"/>
</a>
</g>
</g>
<!-- Node30&#45;&gt;Node13 -->
<g id="edge41_Node000030_Node000013" class="edge">
<title>Node30&#45;&gt;Node13</title>
<g id="a_edge41_Node000030_Node000013"><a xlink:title=" ">
<path fill="none" stroke="#63b8ff" d="M254.04,-164.75C241.67,-152.76 223.12,-130.4 231,-110 242.91,-79.19 252.49,-71.69 281,-55 332.07,-25.09 401.71,-15.28 441.87,-12.07"/>
<polygon fill="#63b8ff" stroke="#63b8ff" points="442.16,-15.56 451.89,-11.35 441.67,-8.57 442.16,-15.56"/>
</a>
</g>
</g>
<!-- Node30&#45;&gt;Node14 -->
<g id="edge42_Node000030_Node000014" class="edge">
<title>Node30&#45;&gt;Node14</title>
<g id="a_edge42_Node000030_Node000014"><a xlink:title=" ">
<path fill="none" stroke="#63b8ff" d="M264,-164.75C264,-157.8 264,-147.85 264,-139.13"/>
<polygon fill="#63b8ff" stroke="#63b8ff" points="267.5,-139.09 264,-129.09 260.5,-139.09 267.5,-139.09"/>
</a>
</g>
</g>
<!-- Node30&#45;&gt;Node19 -->
<g id="edge43_Node000030_Node000019" class="edge">
<title>Node30&#45;&gt;Node19</title>
<g id="a_edge43_Node000030_Node000019"><a xlink:title=" ">
<path fill="none" stroke="#63b8ff" d="M285.05,-164.98C306.41,-156.34 339.7,-142.87 364.06,-133.02"/>
<polygon fill="#63b8ff" stroke="#63b8ff" points="365.61,-136.17 373.57,-129.17 362.99,-129.68 365.61,-136.17"/>
</a>
</g>
</g>
<!-- Node31 -->
<g id="Node000031" class="node">
<title>Node31</title>
<g id="a_Node000031"><a xlink:title=" ">
<polygon fill="#e0e0e0" stroke="#999999" points="183.5,-129 118.5,-129 118.5,-110 183.5,-110 183.5,-129"/>
<text text-anchor="middle" x="151" y="-117" font-family="Helvetica,sans-Serif" font-size="10.00">stdexcept</text>
</a>
</g>
</g>
<!-- Node30&#45;&gt;Node31 -->
<g id="edge40_Node000030_Node000031" class="edge">
<title>Node30&#45;&gt;Node31</title>
<g id="a_edge40_Node000030_Node000031"><a xlink:title=" ">
<path fill="none" stroke="#63b8ff" d="M245.84,-164.98C227.75,-156.5 199.72,-143.35 178.81,-133.54"/>
<polygon fill="#63b8ff" stroke="#63b8ff" points="180.03,-130.25 169.49,-129.17 177.05,-136.59 180.03,-130.25"/>
</a>
</g>
</g>
</g>
</svg>
