<?xml version="1.0" encoding="UTF-8" standalone="no"?>
<!DOCTYPE svg PUBLIC "-//W3C//DTD SVG 1.1//EN"
 "http://www.w3.org/Graphics/SVG/1.1/DTD/svg11.dtd">
<!-- Generated by graphviz version 2.43.0 (0)
 -->
<!-- Title: src/lib/mapGeneration/bgFillGeometry.cpp Pages: 1 -->
<!--zoomable 203 -->

<svg id="main" version="1.1" xmlns="http://www.w3.org/2000/svg" xmlns:xlink="http://www.w3.org/1999/xlink" xml:space="preserve" onload="init(evt)">
<style type="text/css"><![CDATA[
.node, .edge {opacity: 0.7;}
.node.selected, .edge.selected {opacity: 1;}
.edge:hover path { stroke: red; }
.edge:hover polygon { stroke: red; fill: red; }
]]></style>

<defs>
  <circle id="rim" cx="0" cy="0" r="7"/>
  <circle id="rim2" cx="0" cy="0" r="3.5"/>
  <g id="zoomPlus">
    <use xlink:href="#rim" fill="#404040"><set attributeName="fill" to="#808080" begin="zoomplus.mouseover" end="zoomplus.mouseout"/></use>
    <path d="M-4,0h8M0,-4v8" fill="none" stroke="white" stroke-width="1.5" pointer-events="none"/>
  </g>
  <g id="zoomMin">
    <use xlink:href="#rim" fill="#404040"><set attributeName="fill" to="#808080" begin="zoomminus.mouseover" end="zoomminus.mouseout"/></use>
    <path d="M-4,0h8" fill="none" stroke="white" stroke-width="1.5" pointer-events="none"/>
  </g>
  <g id="arrowUp" transform="translate(30 24)">
    <use xlink:href="#rim"/>
    <path pointer-events="none" fill="none" stroke="white" stroke-width="1.5" d="M0,-3.0v7 M-2.5,-0.5L0,-3.0L2.5,-0.5"/>
  </g>
  <g id="arrowRight" transform="rotate(90) translate(36 -43)">
    <use xlink:href="#rim"/>
    <path pointer-events="none" fill="none" stroke="white" stroke-width="1.5" d="M0,-3.0v7 M-2.5,-0.5L0,-3.0L2.5,-0.5"/>
  </g>
  <g id="arrowDown" transform="rotate(180) translate(-30 -48)">
    <use xlink:href="#rim"/>
    <path pointer-events="none" fill="none" stroke="white" stroke-width="1.5" d="M0,-3.0v7 M-2.5,-0.5L0,-3.0L2.5,-0.5"/>
  </g>
  <g id="arrowLeft" transform="rotate(270) translate(-36 17)">
    <use xlink:href="#rim"/>
    <path pointer-events="none" fill="none" stroke="white" stroke-width="1.5" d="M0,-3.0v7 M-2.5,-0.5L0,-3.0L2.5,-0.5"/>
  </g>
  <g id="resetDef">
    <use xlink:href="#rim2" fill="#404040"><set attributeName="fill" to="#808080" begin="reset.mouseover" end="reset.mouseout"/></use>
  </g>
</defs>
<script type="application/ecmascript">
var viewWidth = 1227;
var viewHeight = 203;
var sectionId = 'dynsection-0';
</script>
<script type="application/ecmascript" xlink:href="svg.min.js"/>
<svg id="graph" class="graph">
<g id="viewport">
<title>src/lib/mapGeneration/bgFillGeometry.cpp</title>
<!-- Node1 -->
<g id="Node000001" class="node">
<title>Node1</title>
<g id="a_Node000001"><a xlink:title=" ">
<polygon fill="#999999" stroke="#666666" points="921.5,-195 796.5,-195 796.5,-165 921.5,-165 921.5,-195"/>
<text text-anchor="start" x="804.5" y="-183" font-family="Helvetica,sans-Serif" font-size="10.00">src/lib/mapGeneration</text>
<text text-anchor="middle" x="859" y="-172" font-family="Helvetica,sans-Serif" font-size="10.00">/bgFillGeometry.cpp</text>
</a>
</g>
</g>
<!-- Node2 -->
<g id="Node000002" class="node">
<title>Node2</title>
<g id="a_Node000002"><a xlink:title=" ">
<polygon fill="#e0e0e0" stroke="#999999" points="64,-19 0,-19 0,0 64,0 64,-19"/>
<text text-anchor="middle" x="32" y="-7" font-family="Helvetica,sans-Serif" font-size="10.00">algorithm</text>
</a>
</g>
</g>
<!-- Node1&#45;&gt;Node2 -->
<g id="edge1_Node000001_Node000002" class="edge">
<title>Node1&#45;&gt;Node2</title>
<g id="a_edge1_Node000001_Node000002"><a xlink:title=" ">
<path fill="none" stroke="#63b8ff" d="M796.28,-175.29C711.39,-169.48 555.54,-155.98 425,-129 288.59,-100.81 131.37,-46.58 64.65,-22.52"/>
<polygon fill="#63b8ff" stroke="#63b8ff" points="65.7,-19.17 55.1,-19.05 63.31,-25.75 65.7,-19.17"/>
</a>
</g>
</g>
<!-- Node3 -->
<g id="Node000003" class="node">
<title>Node3</title>
<g id="a_Node000003"><a xlink:title=" ">
<polygon fill="#e0e0e0" stroke="#999999" points="1132,-19 1090,-19 1090,0 1132,0 1132,-19"/>
<text text-anchor="middle" x="1111" y="-7" font-family="Helvetica,sans-Serif" font-size="10.00">array</text>
</a>
</g>
</g>
<!-- Node1&#45;&gt;Node3 -->
<g id="edge2_Node000001_Node000003" class="edge">
<title>Node1&#45;&gt;Node3</title>
<g id="a_edge2_Node000001_Node000003"><a xlink:title=" ">
<path fill="none" stroke="#63b8ff" d="M881.81,-164.96C913.73,-145.18 973.38,-107.75 1023,-74 1046.75,-57.85 1073.41,-38.42 1091.1,-25.34"/>
<polygon fill="#63b8ff" stroke="#63b8ff" points="1093.53,-27.9 1099.47,-19.13 1089.36,-22.28 1093.53,-27.9"/>
</a>
</g>
</g>
<!-- Node4 -->
<g id="Node000004" class="node">
<title>Node4</title>
<g id="a_Node000004"><a xlink:title=" ">
<polygon fill="#e0e0e0" stroke="#999999" points="1085,-129 1033,-129 1033,-110 1085,-110 1085,-129"/>
<text text-anchor="middle" x="1059" y="-117" font-family="Helvetica,sans-Serif" font-size="10.00">cassert</text>
</a>
</g>
</g>
<!-- Node1&#45;&gt;Node4 -->
<g id="edge3_Node000001_Node000004" class="edge">
<title>Node1&#45;&gt;Node4</title>
<g id="a_edge3_Node000001_Node000004"><a xlink:title=" ">
<path fill="none" stroke="#63b8ff" d="M906.9,-164.99C942.57,-154.56 990.5,-140.54 1022.95,-131.05"/>
<polygon fill="#63b8ff" stroke="#63b8ff" points="1024.29,-134.3 1032.9,-128.13 1022.32,-127.58 1024.29,-134.3"/>
</a>
</g>
</g>
<!-- Node5 -->
<g id="Node000005" class="node">
<title>Node5</title>
<g id="a_Node000005"><a xlink:title=" ">
<polygon fill="#e0e0e0" stroke="#999999" points="1150.5,-129 1103.5,-129 1103.5,-110 1150.5,-110 1150.5,-129"/>
<text text-anchor="middle" x="1127" y="-117" font-family="Helvetica,sans-Serif" font-size="10.00">cmath</text>
</a>
</g>
</g>
<!-- Node1&#45;&gt;Node5 -->
<g id="edge4_Node000001_Node000005" class="edge">
<title>Node1&#45;&gt;Node5</title>
<g id="a_edge4_Node000001_Node000005"><a xlink:title=" ">
<path fill="none" stroke="#63b8ff" d="M921.5,-166.45C966.63,-157.22 1029.26,-144.06 1093.36,-129.07"/>
<polygon fill="#63b8ff" stroke="#63b8ff" points="1094.3,-132.44 1103.24,-126.75 1092.7,-125.63 1094.3,-132.44"/>
</a>
</g>
</g>
<!-- Node6 -->
<g id="Node000006" class="node">
<title>Node6</title>
<g id="a_Node000006"><a xlink:title=" ">
<polygon fill="#e0e0e0" stroke="#999999" points="135.5,-19 82.5,-19 82.5,0 135.5,0 135.5,-19"/>
<text text-anchor="middle" x="109" y="-7" font-family="Helvetica,sans-Serif" font-size="10.00">cstddef</text>
</a>
</g>
</g>
<!-- Node1&#45;&gt;Node6 -->
<g id="edge5_Node000001_Node000006" class="edge">
<title>Node1&#45;&gt;Node6</title>
<g id="a_edge5_Node000001_Node000006"><a xlink:title=" ">
<path fill="none" stroke="#63b8ff" d="M796.19,-172.92C725.39,-165.41 607.1,-150.88 507,-129 370,-99.05 211.41,-46.2 143.14,-22.54"/>
<polygon fill="#63b8ff" stroke="#63b8ff" points="143.95,-19.12 133.35,-19.13 141.65,-25.73 143.95,-19.12"/>
</a>
</g>
</g>
<!-- Node7 -->
<g id="Node000007" class="node">
<title>Node7</title>
<g id="a_Node000007"><a xlink:title=" ">
<polygon fill="#e0e0e0" stroke="#999999" points="862,-19 812,-19 812,0 862,0 862,-19"/>
<text text-anchor="middle" x="837" y="-7" font-family="Helvetica,sans-Serif" font-size="10.00">cstdint</text>
</a>
</g>
</g>
<!-- Node1&#45;&gt;Node7 -->
<g id="edge6_Node000001_Node000007" class="edge">
<title>Node1&#45;&gt;Node7</title>
<g id="a_edge6_Node000001_Node000007"><a xlink:title=" ">
<path fill="none" stroke="#63b8ff" d="M857.16,-164.92C853.21,-134.65 843.9,-63.35 839.45,-29.27"/>
<polygon fill="#63b8ff" stroke="#63b8ff" points="842.91,-28.72 838.14,-19.25 835.97,-29.62 842.91,-28.72"/>
</a>
</g>
</g>
<!-- Node8 -->
<g id="Node000008" class="node">
<title>Node8</title>
<g id="a_Node000008"><a xlink:title=" ">
<polygon fill="#e0e0e0" stroke="#999999" points="1219,-129 1169,-129 1169,-110 1219,-110 1219,-129"/>
<text text-anchor="middle" x="1194" y="-117" font-family="Helvetica,sans-Serif" font-size="10.00">cstring</text>
</a>
</g>
</g>
<!-- Node1&#45;&gt;Node8 -->
<g id="edge7_Node000001_Node000008" class="edge">
<title>Node1&#45;&gt;Node8</title>
<g id="a_edge7_Node000001_Node000008"><a xlink:title=" ">
<path fill="none" stroke="#63b8ff" d="M921.53,-170.11C980.39,-161.4 1071.2,-147.1 1158.95,-129.08"/>
<polygon fill="#63b8ff" stroke="#63b8ff" points="1159.72,-132.5 1168.8,-127.04 1158.3,-125.64 1159.72,-132.5"/>
</a>
</g>
</g>
<!-- Node9 -->
<g id="Node000009" class="node">
<title>Node9</title>
<g id="a_Node000009"><a xlink:title=" ">
<polygon fill="#e0e0e0" stroke="#999999" points="731.5,-19 684.5,-19 684.5,0 731.5,0 731.5,-19"/>
<text text-anchor="middle" x="708" y="-7" font-family="Helvetica,sans-Serif" font-size="10.00">vector</text>
</a>
</g>
</g>
<!-- Node1&#45;&gt;Node9 -->
<g id="edge8_Node000001_Node000009" class="edge">
<title>Node1&#45;&gt;Node9</title>
<g id="a_edge8_Node000001_Node000009"><a xlink:title=" ">
<path fill="none" stroke="#63b8ff" d="M796.3,-175.76C763.15,-170.46 725.05,-157.91 704,-129 682.57,-99.57 692.66,-54.26 700.94,-29.05"/>
<polygon fill="#63b8ff" stroke="#63b8ff" points="704.36,-29.89 704.39,-19.29 697.76,-27.55 704.36,-29.89"/>
</a>
</g>
</g>
<!-- Node10 -->
<g id="Node000010" class="node">
<title>Node10</title>
<g id="a_Node000010"><a xlink:title=" ">
<polygon fill="#e0e0e0" stroke="#999999" points="1013.5,-74 948.5,-74 948.5,-55 1013.5,-55 1013.5,-74"/>
<text text-anchor="middle" x="981" y="-62" font-family="Helvetica,sans-Serif" font-size="10.00">stdexcept</text>
</a>
</g>
</g>
<!-- Node1&#45;&gt;Node10 -->
<g id="edge9_Node000001_Node000010" class="edge">
<title>Node1&#45;&gt;Node10</title>
<g id="a_edge9_Node000001_Node000010"><a xlink:title=" ">
<path fill="none" stroke="#63b8ff" d="M874.45,-164.63C897.39,-143.28 940.31,-103.36 964.07,-81.25"/>
<polygon fill="#63b8ff" stroke="#63b8ff" points="966.68,-83.6 971.62,-74.23 961.91,-78.48 966.68,-83.6"/>
</a>
</g>
</g>
<!-- Node11 -->
<g id="Node000011" class="node">
<title>Node11</title>
<g id="a_Node000011"><a xlink:href="bgFillGeometry_8hpp.html" target="_top" xlink:title=" ">
<polygon fill="white" stroke="#666666" points="627.5,-129 516.5,-129 516.5,-110 627.5,-110 627.5,-129"/>
<text text-anchor="middle" x="572" y="-117" font-family="Helvetica,sans-Serif" font-size="10.00">bgFillGeometry.hpp</text>
</a>
</g>
</g>
<!-- Node1&#45;&gt;Node11 -->
<g id="edge10_Node000001_Node000011" class="edge">
<title>Node1&#45;&gt;Node11</title>
<g id="a_edge10_Node000001_Node000011"><a xlink:title=" ">
<path fill="none" stroke="#63b8ff" d="M796.37,-166.23C744.79,-155.72 672.5,-140.99 624.05,-131.11"/>
<polygon fill="#63b8ff" stroke="#63b8ff" points="624.59,-127.65 614.09,-129.08 623.19,-134.51 624.59,-127.65"/>
</a>
</g>
</g>
<!-- Node21 -->
<g id="Node000021" class="node">
<title>Node21</title>
<g id="a_Node000021"><a xlink:href="parameters_8hpp.html" target="_top" xlink:title=" ">
<polygon fill="white" stroke="#666666" points="831,-129 713,-129 713,-110 831,-110 831,-129"/>
<text text-anchor="middle" x="772" y="-117" font-family="Helvetica,sans-Serif" font-size="10.00">utils/parameters.hpp</text>
</a>
</g>
</g>
<!-- Node1&#45;&gt;Node21 -->
<g id="edge24_Node000001_Node000021" class="edge">
<title>Node1&#45;&gt;Node21</title>
<g id="a_edge24_Node000001_Node000021"><a xlink:title=" ">
<path fill="none" stroke="#63b8ff" d="M837.94,-164.84C824.46,-155.77 807.01,-144.04 793.45,-134.92"/>
<polygon fill="#63b8ff" stroke="#63b8ff" points="795.03,-131.77 784.78,-129.09 791.13,-137.58 795.03,-131.77"/>
</a>
</g>
</g>
<!-- Node12 -->
<g id="Node000012" class="node">
<title>Node12</title>
<g id="a_Node000012"><a xlink:href="uvgvpcc_8hpp.html" target="_top" xlink:title=" ">
<polygon fill="white" stroke="#666666" points="603,-74 481,-74 481,-55 603,-55 603,-74"/>
<text text-anchor="middle" x="542" y="-62" font-family="Helvetica,sans-Serif" font-size="10.00">uvgvpcc/uvgvpcc.hpp</text>
</a>
</g>
</g>
<!-- Node11&#45;&gt;Node12 -->
<g id="edge11_Node000011_Node000012" class="edge">
<title>Node11&#45;&gt;Node12</title>
<g id="a_edge11_Node000011_Node000012"><a xlink:title=" ">
<path fill="none" stroke="#63b8ff" d="M567.05,-109.75C562.94,-102.49 556.97,-91.95 551.9,-82.98"/>
<polygon fill="#63b8ff" stroke="#63b8ff" points="554.83,-81.07 546.86,-74.09 548.74,-84.52 554.83,-81.07"/>
</a>
</g>
</g>
<!-- Node12&#45;&gt;Node2 -->
<g id="edge21_Node000012_Node000002" class="edge">
<title>Node12&#45;&gt;Node2</title>
<g id="a_edge21_Node000012_Node000002"><a xlink:title=" ">
<path fill="none" stroke="#63b8ff" d="M480.65,-59.84C392.75,-54.11 225.75,-41.46 74.13,-19.01"/>
<polygon fill="#63b8ff" stroke="#63b8ff" points="74.58,-15.54 64.17,-17.52 73.54,-22.46 74.58,-15.54"/>
</a>
</g>
</g>
<!-- Node12&#45;&gt;Node6 -->
<g id="edge12_Node000012_Node000006" class="edge">
<title>Node12&#45;&gt;Node6</title>
<g id="a_edge12_Node000012_Node000006"><a xlink:title=" ">
<path fill="none" stroke="#63b8ff" d="M480.81,-58.94C404.62,-52.75 270.36,-40.16 145.76,-18.92"/>
<polygon fill="#63b8ff" stroke="#63b8ff" points="146.11,-15.43 135.66,-17.17 144.92,-22.32 146.11,-15.43"/>
</a>
</g>
</g>
<!-- Node12&#45;&gt;Node7 -->
<g id="edge13_Node000012_Node000007" class="edge">
<title>Node12&#45;&gt;Node7</title>
<g id="a_edge13_Node000012_Node000007"><a xlink:title=" ">
<path fill="none" stroke="#63b8ff" d="M599.52,-54.98C650.28,-47.17 726.49,-34.74 801.68,-19.15"/>
<polygon fill="#63b8ff" stroke="#63b8ff" points="802.73,-22.5 811.8,-17.03 801.29,-15.65 802.73,-22.5"/>
</a>
</g>
</g>
<!-- Node12&#45;&gt;Node9 -->
<g id="edge20_Node000012_Node000009" class="edge">
<title>Node12&#45;&gt;Node9</title>
<g id="a_edge20_Node000012_Node000009"><a xlink:title=" ">
<path fill="none" stroke="#63b8ff" d="M568.67,-54.98C597.53,-45.77 643.6,-31.06 674.79,-21.1"/>
<polygon fill="#63b8ff" stroke="#63b8ff" points="675.89,-24.43 684.35,-18.05 673.76,-17.76 675.89,-24.43"/>
</a>
</g>
</g>
<!-- Node13 -->
<g id="Node000013" class="node">
<title>Node13</title>
<g id="a_Node000013"><a xlink:title=" ">
<polygon fill="#e0e0e0" stroke="#999999" points="666,-19 606,-19 606,0 666,0 666,-19"/>
<text text-anchor="middle" x="636" y="-7" font-family="Helvetica,sans-Serif" font-size="10.00">iostream</text>
</a>
</g>
</g>
<!-- Node12&#45;&gt;Node13 -->
<g id="edge14_Node000012_Node000013" class="edge">
<title>Node12&#45;&gt;Node13</title>
<g id="a_edge14_Node000012_Node000013"><a xlink:title=" ">
<path fill="none" stroke="#63b8ff" d="M557.1,-54.98C571.82,-46.69 594.42,-33.94 611.67,-24.22"/>
<polygon fill="#63b8ff" stroke="#63b8ff" points="613.63,-27.13 620.62,-19.17 610.19,-21.03 613.63,-27.13"/>
</a>
</g>
</g>
<!-- Node14 -->
<g id="Node000014" class="node">
<title>Node14</title>
<g id="a_Node000014"><a xlink:title=" ">
<polygon fill="#e0e0e0" stroke="#999999" points="212,-19 154,-19 154,0 212,0 212,-19"/>
<text text-anchor="middle" x="183" y="-7" font-family="Helvetica,sans-Serif" font-size="10.00">memory</text>
</a>
</g>
</g>
<!-- Node12&#45;&gt;Node14 -->
<g id="edge15_Node000012_Node000014" class="edge">
<title>Node12&#45;&gt;Node14</title>
<g id="a_edge15_Node000012_Node000014"><a xlink:title=" ">
<path fill="none" stroke="#63b8ff" d="M480.82,-56.54C418.27,-49.08 318.1,-36.19 222.54,-19.15"/>
<polygon fill="#63b8ff" stroke="#63b8ff" points="222.87,-15.66 212.41,-17.33 221.63,-22.55 222.87,-15.66"/>
</a>
</g>
</g>
<!-- Node15 -->
<g id="Node000015" class="node">
<title>Node15</title>
<g id="a_Node000015"><a xlink:title=" ">
<polygon fill="#e0e0e0" stroke="#999999" points="277.5,-19 230.5,-19 230.5,0 277.5,0 277.5,-19"/>
<text text-anchor="middle" x="254" y="-7" font-family="Helvetica,sans-Serif" font-size="10.00">queue</text>
</a>
</g>
</g>
<!-- Node12&#45;&gt;Node15 -->
<g id="edge16_Node000012_Node000015" class="edge">
<title>Node12&#45;&gt;Node15</title>
<g id="a_edge16_Node000012_Node000015"><a xlink:title=" ">
<path fill="none" stroke="#63b8ff" d="M484.53,-54.98C434.7,-47.27 360.46,-34.97 287.52,-19.19"/>
<polygon fill="#63b8ff" stroke="#63b8ff" points="288.23,-15.76 277.71,-17.05 286.73,-22.6 288.23,-15.76"/>
</a>
</g>
</g>
<!-- Node16 -->
<g id="Node000016" class="node">
<title>Node16</title>
<g id="a_Node000016"><a xlink:title=" ">
<polygon fill="#e0e0e0" stroke="#999999" points="366.5,-19 295.5,-19 295.5,0 366.5,0 366.5,-19"/>
<text text-anchor="middle" x="331" y="-7" font-family="Helvetica,sans-Serif" font-size="10.00">semaphore</text>
</a>
</g>
</g>
<!-- Node12&#45;&gt;Node16 -->
<g id="edge17_Node000012_Node000016" class="edge">
<title>Node12&#45;&gt;Node16</title>
<g id="a_edge17_Node000012_Node000016"><a xlink:title=" ">
<path fill="none" stroke="#63b8ff" d="M508.1,-54.98C471.98,-45.91 414.68,-31.52 375.08,-21.57"/>
<polygon fill="#63b8ff" stroke="#63b8ff" points="375.72,-18.12 365.17,-19.08 374.01,-24.91 375.72,-18.12"/>
</a>
</g>
</g>
<!-- Node17 -->
<g id="Node000017" class="node">
<title>Node17</title>
<g id="a_Node000017"><a xlink:title=" ">
<polygon fill="#e0e0e0" stroke="#999999" points="936,-19 880,-19 880,0 936,0 936,-19"/>
<text text-anchor="middle" x="908" y="-7" font-family="Helvetica,sans-Serif" font-size="10.00">sstream</text>
</a>
</g>
</g>
<!-- Node12&#45;&gt;Node17 -->
<g id="edge18_Node000012_Node000017" class="edge">
<title>Node12&#45;&gt;Node17</title>
<g id="a_edge18_Node000012_Node000017"><a xlink:title=" ">
<path fill="none" stroke="#63b8ff" d="M603.2,-56.92C667.33,-49.64 771.18,-36.77 869.93,-19.05"/>
<polygon fill="#63b8ff" stroke="#63b8ff" points="870.56,-22.49 879.77,-17.26 869.31,-15.61 870.56,-22.49"/>
</a>
</g>
</g>
<!-- Node18 -->
<g id="Node000018" class="node">
<title>Node18</title>
<g id="a_Node000018"><a xlink:title=" ">
<polygon fill="#e0e0e0" stroke="#999999" points="794,-19 750,-19 750,0 794,0 794,-19"/>
<text text-anchor="middle" x="772" y="-7" font-family="Helvetica,sans-Serif" font-size="10.00">string</text>
</a>
</g>
</g>
<!-- Node12&#45;&gt;Node18 -->
<g id="edge19_Node000012_Node000018" class="edge">
<title>Node12&#45;&gt;Node18</title>
<g id="a_edge19_Node000012_Node000018"><a xlink:title=" ">
<path fill="none" stroke="#63b8ff" d="M582.91,-54.95C621.11,-46.83 679.93,-33.99 739.7,-19.24"/>
<polygon fill="#63b8ff" stroke="#63b8ff" points="740.82,-22.56 749.68,-16.76 739.13,-15.77 740.82,-22.56"/>
</a>
</g>
</g>
<!-- Node19 -->
<g id="Node000019" class="node">
<title>Node19</title>
<g id="a_Node000019"><a xlink:title=" ">
<polygon fill="#e0e0e0" stroke="#999999" points="477.5,-19 384.5,-19 384.5,0 477.5,0 477.5,-19"/>
<text text-anchor="middle" x="431" y="-7" font-family="Helvetica,sans-Serif" font-size="10.00">unordered_map</text>
</a>
</g>
</g>
<!-- Node12&#45;&gt;Node19 -->
<g id="edge22_Node000012_Node000019" class="edge">
<title>Node12&#45;&gt;Node19</title>
<g id="a_edge22_Node000012_Node000019"><a xlink:title=" ">
<path fill="none" stroke="#63b8ff" d="M524.17,-54.98C506.39,-46.5 478.85,-33.35 458.32,-23.54"/>
<polygon fill="#63b8ff" stroke="#63b8ff" points="459.69,-20.32 449.16,-19.17 456.67,-26.64 459.69,-20.32"/>
</a>
</g>
</g>
<!-- Node20 -->
<g id="Node000020" class="node">
<title>Node20</title>
<g id="a_Node000020"><a xlink:title=" ">
<polygon fill="#e0e0e0" stroke="#999999" points="588,-19 496,-19 496,0 588,0 588,-19"/>
<text text-anchor="middle" x="542" y="-7" font-family="Helvetica,sans-Serif" font-size="10.00">../utils/utils.hpp</text>
</a>
</g>
</g>
<!-- Node12&#45;&gt;Node20 -->
<g id="edge23_Node000012_Node000020" class="edge">
<title>Node12&#45;&gt;Node20</title>
<g id="a_edge23_Node000012_Node000020"><a xlink:title=" ">
<path fill="none" stroke="#63b8ff" d="M542,-54.75C542,-47.8 542,-37.85 542,-29.13"/>
<polygon fill="#63b8ff" stroke="#63b8ff" points="545.5,-29.09 542,-19.09 538.5,-29.09 545.5,-29.09"/>
</a>
</g>
</g>
<!-- Node21&#45;&gt;Node9 -->
<g id="edge27_Node000021_Node000009" class="edge">
<title>Node21&#45;&gt;Node9</title>
<g id="a_edge27_Node000021_Node000009"><a xlink:title=" ">
<path fill="none" stroke="#63b8ff" d="M766.76,-109.66C756.21,-91.85 732.22,-51.37 718.37,-28.01"/>
<polygon fill="#63b8ff" stroke="#63b8ff" points="721.24,-25.98 713.13,-19.16 715.22,-29.55 721.24,-25.98"/>
</a>
</g>
</g>
<!-- Node21&#45;&gt;Node10 -->
<g id="edge25_Node000021_Node000010" class="edge">
<title>Node21&#45;&gt;Node10</title>
<g id="a_edge25_Node000021_Node000010"><a xlink:title=" ">
<path fill="none" stroke="#63b8ff" d="M805.58,-109.98C841.67,-100.83 899.13,-86.26 938.38,-76.31"/>
<polygon fill="#63b8ff" stroke="#63b8ff" points="939.36,-79.67 948.19,-73.82 937.64,-72.89 939.36,-79.67"/>
</a>
</g>
</g>
<!-- Node21&#45;&gt;Node18 -->
<g id="edge26_Node000021_Node000018" class="edge">
<title>Node21&#45;&gt;Node18</title>
<g id="a_edge26_Node000021_Node000018"><a xlink:title=" ">
<path fill="none" stroke="#63b8ff" d="M772,-109.66C772,-92.17 772,-52.8 772,-29.27"/>
<polygon fill="#63b8ff" stroke="#63b8ff" points="775.5,-29.16 772,-19.16 768.5,-29.16 775.5,-29.16"/>
</a>
</g>
</g>
<!-- Node22 -->
<g id="Node000022" class="node">
<title>Node22</title>
<g id="a_Node000022"><a xlink:href="utils_8hpp.html" target="_top" xlink:title=" ">
<polygon fill="white" stroke="#666666" points="930.5,-74 871.5,-74 871.5,-55 930.5,-55 930.5,-74"/>
<text text-anchor="middle" x="901" y="-62" font-family="Helvetica,sans-Serif" font-size="10.00">utils.hpp</text>
</a>
</g>
</g>
<!-- Node21&#45;&gt;Node22 -->
<g id="edge28_Node000021_Node000022" class="edge">
<title>Node21&#45;&gt;Node22</title>
<g id="a_edge28_Node000021_Node000022"><a xlink:title=" ">
<path fill="none" stroke="#63b8ff" d="M792.73,-109.98C813.76,-101.34 846.55,-87.87 870.54,-78.02"/>
<polygon fill="#63b8ff" stroke="#63b8ff" points="871.98,-81.21 879.9,-74.17 869.32,-74.73 871.98,-81.21"/>
</a>
</g>
</g>
<!-- Node22&#45;&gt;Node3 -->
<g id="edge29_Node000022_Node000003" class="edge">
<title>Node22&#45;&gt;Node3</title>
<g id="a_edge29_Node000022_Node000003"><a xlink:title=" ">
<path fill="none" stroke="#63b8ff" d="M930.7,-56.48C964.56,-48.41 1021.81,-34.55 1080,-19.2"/>
<polygon fill="#63b8ff" stroke="#63b8ff" points="1080.95,-22.57 1089.72,-16.63 1079.16,-15.8 1080.95,-22.57"/>
</a>
</g>
</g>
<!-- Node22&#45;&gt;Node7 -->
<g id="edge30_Node000022_Node000007" class="edge">
<title>Node22&#45;&gt;Node7</title>
<g id="a_edge30_Node000022_Node000007"><a xlink:title=" ">
<path fill="none" stroke="#63b8ff" d="M890.72,-54.98C881.16,-47.07 866.72,-35.11 855.22,-25.58"/>
<polygon fill="#63b8ff" stroke="#63b8ff" points="857.4,-22.85 847.47,-19.17 852.94,-28.24 857.4,-22.85"/>
</a>
</g>
</g>
<!-- Node22&#45;&gt;Node17 -->
<g id="edge32_Node000022_Node000017" class="edge">
<title>Node22&#45;&gt;Node17</title>
<g id="a_edge32_Node000022_Node000017"><a xlink:title=" ">
<path fill="none" stroke="#63b8ff" d="M902.16,-54.75C903.07,-47.8 904.39,-37.85 905.54,-29.13"/>
<polygon fill="#63b8ff" stroke="#63b8ff" points="909.03,-29.46 906.87,-19.09 902.09,-28.54 909.03,-29.46"/>
</a>
</g>
</g>
<!-- Node23 -->
<g id="Node000023" class="node">
<title>Node23</title>
<g id="a_Node000023"><a xlink:title=" ">
<polygon fill="#e0e0e0" stroke="#999999" points="1072,-19 1028,-19 1028,0 1072,0 1072,-19"/>
<text text-anchor="middle" x="1050" y="-7" font-family="Helvetica,sans-Serif" font-size="10.00">limits</text>
</a>
</g>
</g>
<!-- Node22&#45;&gt;Node23 -->
<g id="edge31_Node000022_Node000023" class="edge">
<title>Node22&#45;&gt;Node23</title>
<g id="a_edge31_Node000022_Node000023"><a xlink:title=" ">
<path fill="none" stroke="#63b8ff" d="M924.94,-54.98C950.14,-46.02 989.96,-31.86 1017.88,-21.92"/>
<polygon fill="#63b8ff" stroke="#63b8ff" points="1019.33,-25.12 1027.58,-18.47 1016.99,-18.53 1019.33,-25.12"/>
</a>
</g>
</g>
<!-- Node24 -->
<g id="Node000024" class="node">
<title>Node24</title>
<g id="a_Node000024"><a xlink:title=" ">
<polygon fill="#e0e0e0" stroke="#999999" points="1010,-19 954,-19 954,0 1010,0 1010,-19"/>
<text text-anchor="middle" x="982" y="-7" font-family="Helvetica,sans-Serif" font-size="10.00">iomanip</text>
</a>
</g>
</g>
<!-- Node22&#45;&gt;Node24 -->
<g id="edge33_Node000022_Node000024" class="edge">
<title>Node22&#45;&gt;Node24</title>
<g id="a_edge33_Node000022_Node000024"><a xlink:title=" ">
<path fill="none" stroke="#63b8ff" d="M914.01,-54.98C926.46,-46.84 945.46,-34.41 960.21,-24.76"/>
<polygon fill="#63b8ff" stroke="#63b8ff" points="962.3,-27.57 968.75,-19.17 958.46,-21.72 962.3,-27.57"/>
</a>
</g>
</g>
</g>
</svg>

<g id="navigator" transform="translate(0 0)" fill="#404254">
  <rect fill="#f2f5e9" fill-opacity="0.5" stroke="#606060" stroke-width=".5" x="0" y="0" width="60" height="60"/>
  <use id="zoomplus" xlink:href="#zoomPlus" x="17" y="9" onmousedown="handleZoom(evt,'in')"/>
  <use id="zoomminus" xlink:href="#zoomMin" x="42" y="9" onmousedown="handleZoom(evt,'out')"/>
  <use id="reset" xlink:href="#resetDef" x="30" y="36" onmousedown="handleReset()"/>
   <use id="arrowup" xlink:href="#arrowUp" x="0" y="0" onmousedown="handlePan(0,-1)"/>
  <use id="arrowright" xlink:href="#arrowRight" x="0" y="0" onmousedown="handlePan(1,0)"/>
  <use id="arrowdown" xlink:href="#arrowDown" x="0" y="0" onmousedown="handlePan(0,1)"/>
  <use id="arrowleft" xlink:href="#arrowLeft" x="0" y="0" onmousedown="handlePan(-1,0)"/>
</g>
<svg viewBox="0 0 15 15" width="100%" height="30px" preserveAspectRatio="xMaxYMin meet">
 <g id="arrow_out" transform="scale(0.3 0.3)">
  <a xlink:href="bgFillGeometry_8cpp__incl_org.svg" target="_base">
   <rect id="button" ry="5" rx="5" y="6" x="6" height="38" width="38"
        fill="#f2f5e9" fill-opacity="0.5" stroke="#606060" stroke-width="1.0"/>
   <path id="arrow"
     d="M 11.500037,31.436501 C 11.940474,20.09759 22.043105,11.32322 32.158766,21.979434 L 37.068811,17.246167 C 37.068811,17.246167 37.088388,32 37.088388,32 L 22.160133,31.978069 C 22.160133,31.978069 26.997745,27.140456 26.997745,27.140456 C 18.528582,18.264221 13.291696,25.230495 11.500037,31.436501 z"
     style="fill:#404040;"/>
  </a>
 </g>
</svg>

<style type='text/css'>
<![CDATA[
[data-mouse-over-selected='false'] { opacity: 0.7; }
[data-mouse-over-selected='true']  { opacity: 1.0; }
]]>
</style>
<script type="application/ecmascript"><![CDATA[
document.addEventListener('DOMContentLoaded', (event) => {
  highlightEdges();
  highlightAdjacentNodes();
});
]]></script>
</svg>
