<?xml version="1.0" encoding="UTF-8" standalone="no"?>
<!DOCTYPE svg PUBLIC "-//W3C//DTD SVG 1.1//EN"
 "http://www.w3.org/Graphics/SVG/1.1/DTD/svg11.dtd">
<!-- Generated by graphviz version 2.43.0 (0)
 -->
<!-- Title: src/libuvgvpccenc/mapGeneration/bgFillGeometry.cpp Pages: 1 -->
<svg width="1317pt" height="313pt"
 viewBox="0.00 0.00 1316.62 313.00" xmlns="http://www.w3.org/2000/svg" xmlns:xlink="http://www.w3.org/1999/xlink">
<g id="graph0" class="graph" transform="scale(1 1) rotate(0) translate(4 309)">
<title>src/libuvgvpccenc/mapGeneration/bgFillGeometry.cpp</title>
<!-- Node1 -->
<g id="Node000001" class="node">
<title>Node1</title>
<g id="a_Node000001"><a xlink:title=" ">
<polygon fill="#999999" stroke="#666666" points="494,-305 312,-305 312,-275 494,-275 494,-305"/>
<text text-anchor="start" x="320" y="-293" font-family="Helvetica,sans-Serif" font-size="10.00">src/libuvgvpccenc/mapGeneration</text>
<text text-anchor="middle" x="403" y="-282" font-family="Helvetica,sans-Serif" font-size="10.00">/bgFillGeometry.cpp</text>
</a>
</g>
</g>
<!-- Node2 -->
<g id="Node000002" class="node">
<title>Node2</title>
<g id="a_Node000002"><a xlink:title=" ">
<polygon fill="#e0e0e0" stroke="#999999" points="64,-239 0,-239 0,-220 64,-220 64,-239"/>
<text text-anchor="middle" x="32" y="-227" font-family="Helvetica,sans-Serif" font-size="10.00">algorithm</text>
</a>
</g>
</g>
<!-- Node1&#45;&gt;Node2 -->
<g id="edge1_Node000001_Node000002" class="edge">
<title>Node1&#45;&gt;Node2</title>
<g id="a_edge1_Node000001_Node000002"><a xlink:title=" ">
<path fill="none" stroke="#63b8ff" d="M311.82,-275.72C246.61,-266.04 156.8,-252.34 78,-239 76.74,-238.79 75.46,-238.57 74.17,-238.34"/>
<polygon fill="#63b8ff" stroke="#63b8ff" points="74.61,-234.87 64.15,-236.57 73.38,-241.76 74.61,-234.87"/>
</a>
</g>
</g>
<!-- Node3 -->
<g id="Node000003" class="node">
<title>Node3</title>
<g id="a_Node000003"><a xlink:title=" ">
<polygon fill="#e0e0e0" stroke="#999999" points="308,-74 266,-74 266,-55 308,-55 308,-74"/>
<text text-anchor="middle" x="287" y="-62" font-family="Helvetica,sans-Serif" font-size="10.00">array</text>
</a>
</g>
</g>
<!-- Node1&#45;&gt;Node3 -->
<g id="edge2_Node000001_Node000003" class="edge">
<title>Node1&#45;&gt;Node3</title>
<g id="a_edge2_Node000001_Node000003"><a xlink:title=" ">
<path fill="none" stroke="#63b8ff" d="M311.91,-281.67C246.82,-274.61 166.6,-261.58 142,-239 98.56,-199.12 74.77,-156.53 111,-110 128.65,-87.33 210.41,-74.38 256.03,-68.81"/>
<polygon fill="#63b8ff" stroke="#63b8ff" points="256.46,-72.28 265.98,-67.63 255.64,-65.33 256.46,-72.28"/>
</a>
</g>
</g>
<!-- Node4 -->
<g id="Node000004" class="node">
<title>Node4</title>
<g id="a_Node000004"><a xlink:title=" ">
<polygon fill="#e0e0e0" stroke="#999999" points="172,-129 120,-129 120,-110 172,-110 172,-129"/>
<text text-anchor="middle" x="146" y="-117" font-family="Helvetica,sans-Serif" font-size="10.00">cassert</text>
</a>
</g>
</g>
<!-- Node1&#45;&gt;Node4 -->
<g id="edge3_Node000001_Node000004" class="edge">
<title>Node1&#45;&gt;Node4</title>
<g id="a_edge3_Node000001_Node000004"><a xlink:title=" ">
<path fill="none" stroke="#63b8ff" d="M311.75,-281.71C250.58,-274.8 177.59,-261.95 157,-239 132.48,-211.68 136.7,-165.19 141.58,-139.31"/>
<polygon fill="#63b8ff" stroke="#63b8ff" points="145.05,-139.81 143.69,-129.3 138.2,-138.36 145.05,-139.81"/>
</a>
</g>
</g>
<!-- Node5 -->
<g id="Node000005" class="node">
<title>Node5</title>
<g id="a_Node000005"><a xlink:title=" ">
<polygon fill="#e0e0e0" stroke="#999999" points="213.5,-239 166.5,-239 166.5,-220 213.5,-220 213.5,-239"/>
<text text-anchor="middle" x="190" y="-227" font-family="Helvetica,sans-Serif" font-size="10.00">cmath</text>
</a>
</g>
</g>
<!-- Node1&#45;&gt;Node5 -->
<g id="edge4_Node000001_Node000005" class="edge">
<title>Node1&#45;&gt;Node5</title>
<g id="a_edge4_Node000001_Node000005"><a xlink:title=" ">
<path fill="none" stroke="#63b8ff" d="M351.98,-274.99C312.27,-264.08 258.29,-249.26 223.79,-239.78"/>
<polygon fill="#63b8ff" stroke="#63b8ff" points="224.32,-236.3 213.75,-237.02 222.46,-243.05 224.32,-236.3"/>
</a>
</g>
</g>
<!-- Node6 -->
<g id="Node000006" class="node">
<title>Node6</title>
<g id="a_Node000006"><a xlink:title=" ">
<polygon fill="#e0e0e0" stroke="#999999" points="1138.5,-74 1085.5,-74 1085.5,-55 1138.5,-55 1138.5,-74"/>
<text text-anchor="middle" x="1112" y="-62" font-family="Helvetica,sans-Serif" font-size="10.00">cstddef</text>
</a>
</g>
</g>
<!-- Node1&#45;&gt;Node6 -->
<g id="edge5_Node000001_Node000006" class="edge">
<title>Node1&#45;&gt;Node6</title>
<g id="a_edge5_Node000001_Node000006"><a xlink:title=" ">
<path fill="none" stroke="#63b8ff" d="M494.39,-289.58C708.3,-288.52 1229.17,-271.17 1305,-129 1308.97,-121.55 1310.26,-116.61 1305,-110 1285.86,-85.95 1199.32,-73.79 1148.86,-68.64"/>
<polygon fill="#63b8ff" stroke="#63b8ff" points="1148.97,-65.13 1138.68,-67.64 1148.29,-72.1 1148.97,-65.13"/>
</a>
</g>
</g>
<!-- Node7 -->
<g id="Node000007" class="node">
<title>Node7</title>
<g id="a_Node000007"><a xlink:title=" ">
<polygon fill="#e0e0e0" stroke="#999999" points="376,-74 326,-74 326,-55 376,-55 376,-74"/>
<text text-anchor="middle" x="351" y="-62" font-family="Helvetica,sans-Serif" font-size="10.00">cstdint</text>
</a>
</g>
</g>
<!-- Node1&#45;&gt;Node7 -->
<g id="edge6_Node000001_Node000007" class="edge">
<title>Node1&#45;&gt;Node7</title>
<g id="a_edge6_Node000001_Node000007"><a xlink:title=" ">
<path fill="none" stroke="#63b8ff" d="M374.19,-274.84C360.55,-266.47 345.61,-254.45 338,-239 312.58,-187.39 332.18,-116.53 343.88,-83.64"/>
<polygon fill="#63b8ff" stroke="#63b8ff" points="347.26,-84.62 347.47,-74.02 340.7,-82.17 347.26,-84.62"/>
</a>
</g>
</g>
<!-- Node8 -->
<g id="Node000008" class="node">
<title>Node8</title>
<g id="a_Node000008"><a xlink:title=" ">
<polygon fill="#e0e0e0" stroke="#999999" points="527,-239 477,-239 477,-220 527,-220 527,-239"/>
<text text-anchor="middle" x="502" y="-227" font-family="Helvetica,sans-Serif" font-size="10.00">cstring</text>
</a>
</g>
</g>
<!-- Node1&#45;&gt;Node8 -->
<g id="edge7_Node000001_Node000008" class="edge">
<title>Node1&#45;&gt;Node8</title>
<g id="a_edge7_Node000001_Node000008"><a xlink:title=" ">
<path fill="none" stroke="#63b8ff" d="M426.71,-274.99C442.35,-265.75 462.74,-253.7 478.36,-244.47"/>
<polygon fill="#63b8ff" stroke="#63b8ff" points="480.55,-247.24 487.38,-239.14 476.99,-241.21 480.55,-247.24"/>
</a>
</g>
</g>
<!-- Node9 -->
<g id="Node000009" class="node">
<title>Node9</title>
<g id="a_Node000009"><a xlink:title=" ">
<polygon fill="#e0e0e0" stroke="#999999" points="1135.5,-129 1088.5,-129 1088.5,-110 1135.5,-110 1135.5,-129"/>
<text text-anchor="middle" x="1112" y="-117" font-family="Helvetica,sans-Serif" font-size="10.00">vector</text>
</a>
</g>
</g>
<!-- Node1&#45;&gt;Node9 -->
<g id="edge8_Node000001_Node000009" class="edge">
<title>Node1&#45;&gt;Node9</title>
<g id="a_edge8_Node000001_Node000009"><a xlink:title=" ">
<path fill="none" stroke="#63b8ff" d="M461.93,-275C604.85,-241.03 966.43,-155.1 1078.41,-128.48"/>
<polygon fill="#63b8ff" stroke="#63b8ff" points="1079.53,-131.81 1088.45,-126.1 1077.91,-125 1079.53,-131.81"/>
</a>
</g>
</g>
<!-- Node10 -->
<g id="Node000010" class="node">
<title>Node10</title>
<g id="a_Node000010"><a xlink:title=" ">
<polygon fill="#e0e0e0" stroke="#999999" points="1295.5,-129 1230.5,-129 1230.5,-110 1295.5,-110 1295.5,-129"/>
<text text-anchor="middle" x="1263" y="-117" font-family="Helvetica,sans-Serif" font-size="10.00">stdexcept</text>
</a>
</g>
</g>
<!-- Node1&#45;&gt;Node10 -->
<g id="edge9_Node000001_Node000010" class="edge">
<title>Node1&#45;&gt;Node10</title>
<g id="a_edge9_Node000001_Node000010"><a xlink:title=" ">
<path fill="none" stroke="#63b8ff" d="M494.29,-284.47C675.77,-274.25 1074.8,-245.34 1196,-184 1218.23,-172.75 1238.17,-151.74 1250.41,-136.98"/>
<polygon fill="#63b8ff" stroke="#63b8ff" points="1253.17,-139.13 1256.68,-129.13 1247.7,-134.76 1253.17,-139.13"/>
</a>
</g>
</g>
<!-- Node11 -->
<g id="Node000011" class="node">
<title>Node11</title>
<g id="a_Node000011"><a xlink:href="bgFillGeometry_8hpp.html" target="_top" xlink:title=" ">
<polygon fill="white" stroke="#666666" points="458.5,-239 347.5,-239 347.5,-220 458.5,-220 458.5,-239"/>
<text text-anchor="middle" x="403" y="-227" font-family="Helvetica,sans-Serif" font-size="10.00">bgFillGeometry.hpp</text>
</a>
</g>
</g>
<!-- Node1&#45;&gt;Node11 -->
<g id="edge10_Node000001_Node000011" class="edge">
<title>Node1&#45;&gt;Node11</title>
<g id="a_edge10_Node000001_Node000011"><a xlink:title=" ">
<path fill="none" stroke="#63b8ff" d="M403,-274.84C403,-267.21 403,-257.7 403,-249.45"/>
<polygon fill="#63b8ff" stroke="#63b8ff" points="406.5,-249.27 403,-239.27 399.5,-249.27 406.5,-249.27"/>
</a>
</g>
</g>
<!-- Node28 -->
<g id="Node000028" class="node">
<title>Node28</title>
<g id="a_Node000028"><a xlink:href="parameters_8hpp.html" target="_top" xlink:title=" ">
<polygon fill="white" stroke="#666666" points="1187,-184 1069,-184 1069,-165 1187,-165 1187,-184"/>
<text text-anchor="middle" x="1128" y="-172" font-family="Helvetica,sans-Serif" font-size="10.00">utils/parameters.hpp</text>
</a>
</g>
</g>
<!-- Node1&#45;&gt;Node28 -->
<g id="edge39_Node000001_Node000028" class="edge">
<title>Node1&#45;&gt;Node28</title>
<g id="a_edge39_Node000001_Node000028"><a xlink:title=" ">
<path fill="none" stroke="#63b8ff" d="M494.12,-280.71C580.41,-272.29 713.45,-257.82 828,-239 918.94,-224.06 1024.06,-200.29 1082.61,-186.46"/>
<polygon fill="#63b8ff" stroke="#63b8ff" points="1083.72,-189.8 1092.64,-184.08 1082.1,-182.99 1083.72,-189.8"/>
</a>
</g>
</g>
<!-- Node12 -->
<g id="Node000012" class="node">
<title>Node12</title>
<g id="a_Node000012"><a xlink:href="uvgvpcc_8hpp.html" target="_top" xlink:title=" ">
<polygon fill="white" stroke="#666666" points="542,-184 420,-184 420,-165 542,-165 542,-184"/>
<text text-anchor="middle" x="481" y="-172" font-family="Helvetica,sans-Serif" font-size="10.00">uvgvpcc/uvgvpcc.hpp</text>
</a>
</g>
</g>
<!-- Node11&#45;&gt;Node12 -->
<g id="edge11_Node000011_Node000012" class="edge">
<title>Node11&#45;&gt;Node12</title>
<g id="a_edge11_Node000011_Node000012"><a xlink:title=" ">
<path fill="none" stroke="#63b8ff" d="M415.53,-219.98C427.4,-211.92 445.46,-199.65 459.61,-190.03"/>
<polygon fill="#63b8ff" stroke="#63b8ff" points="461.94,-192.69 468.24,-184.17 458,-186.9 461.94,-192.69"/>
</a>
</g>
</g>
<!-- Node12&#45;&gt;Node3 -->
<g id="edge12_Node000012_Node000003" class="edge">
<title>Node12&#45;&gt;Node3</title>
<g id="a_edge12_Node000012_Node000003"><a xlink:title=" ">
<path fill="none" stroke="#63b8ff" d="M439.83,-164.95C412.62,-158.05 376.95,-146.57 349,-129 329.12,-116.5 310.94,-96.39 299.48,-82.15"/>
<polygon fill="#63b8ff" stroke="#63b8ff" points="302.17,-79.9 293.26,-74.16 296.65,-84.2 302.17,-79.9"/>
</a>
</g>
</g>
<!-- Node12&#45;&gt;Node4 -->
<g id="edge13_Node000012_Node000004" class="edge">
<title>Node12&#45;&gt;Node4</title>
<g id="a_edge13_Node000012_Node000004"><a xlink:title=" ">
<path fill="none" stroke="#63b8ff" d="M427.18,-164.98C358.43,-154.11 241.32,-135.58 182.29,-126.24"/>
<polygon fill="#63b8ff" stroke="#63b8ff" points="182.73,-122.77 172.31,-124.66 181.64,-129.68 182.73,-122.77"/>
</a>
</g>
</g>
<!-- Node12&#45;&gt;Node6 -->
<g id="edge14_Node000012_Node000006" class="edge">
<title>Node12&#45;&gt;Node6</title>
<g id="a_edge14_Node000012_Node000006"><a xlink:title=" ">
<path fill="none" stroke="#63b8ff" d="M542.28,-173.23C667.43,-171.94 947.98,-164.98 1036,-129 1060.98,-118.79 1083.89,-97.23 1097.89,-82.08"/>
<polygon fill="#63b8ff" stroke="#63b8ff" points="1100.66,-84.23 1104.7,-74.43 1095.44,-79.57 1100.66,-84.23"/>
</a>
</g>
</g>
<!-- Node12&#45;&gt;Node7 -->
<g id="edge15_Node000012_Node000007" class="edge">
<title>Node12&#45;&gt;Node7</title>
<g id="a_edge15_Node000012_Node000007"><a xlink:title=" ">
<path fill="none" stroke="#63b8ff" d="M424.76,-164.98C402.07,-158.72 377.63,-147.85 362,-129 351.85,-116.75 349.58,-98.52 349.57,-84.73"/>
<polygon fill="#63b8ff" stroke="#63b8ff" points="353.08,-84.55 349.97,-74.42 346.08,-84.28 353.08,-84.55"/>
</a>
</g>
</g>
<!-- Node12&#45;&gt;Node9 -->
<g id="edge22_Node000012_Node000009" class="edge">
<title>Node12&#45;&gt;Node9</title>
<g id="a_edge22_Node000012_Node000009"><a xlink:title=" ">
<path fill="none" stroke="#63b8ff" d="M542.36,-171.83C650.36,-168.24 881.25,-157.64 1074,-129 1075.46,-128.78 1076.95,-128.54 1078.46,-128.28"/>
<polygon fill="#63b8ff" stroke="#63b8ff" points="1079.24,-131.69 1088.38,-126.34 1077.9,-124.82 1079.24,-131.69"/>
</a>
</g>
</g>
<!-- Node13 -->
<g id="Node000013" class="node">
<title>Node13</title>
<g id="a_Node000013"><a xlink:title=" ">
<polygon fill="#e0e0e0" stroke="#999999" points="492,-19 432,-19 432,0 492,0 492,-19"/>
<text text-anchor="middle" x="462" y="-7" font-family="Helvetica,sans-Serif" font-size="10.00">iostream</text>
</a>
</g>
</g>
<!-- Node12&#45;&gt;Node13 -->
<g id="edge16_Node000012_Node000013" class="edge">
<title>Node12&#45;&gt;Node13</title>
<g id="a_edge16_Node000012_Node000013"><a xlink:title=" ">
<path fill="none" stroke="#63b8ff" d="M419.93,-167.64C363.91,-158.44 285.47,-134.79 257,-74 253.42,-66.35 251.7,-61.57 257,-55 277.25,-29.88 367.68,-18.22 421.43,-13.41"/>
<polygon fill="#63b8ff" stroke="#63b8ff" points="422,-16.88 431.66,-12.54 421.4,-9.9 422,-16.88"/>
</a>
</g>
</g>
<!-- Node14 -->
<g id="Node000014" class="node">
<title>Node14</title>
<g id="a_Node000014"><a xlink:title=" ">
<polygon fill="#e0e0e0" stroke="#999999" points="874,-129 816,-129 816,-110 874,-110 874,-129"/>
<text text-anchor="middle" x="845" y="-117" font-family="Helvetica,sans-Serif" font-size="10.00">memory</text>
</a>
</g>
</g>
<!-- Node12&#45;&gt;Node14 -->
<g id="edge17_Node000012_Node000014" class="edge">
<title>Node12&#45;&gt;Node14</title>
<g id="a_edge17_Node000012_Node000014"><a xlink:title=" ">
<path fill="none" stroke="#63b8ff" d="M542.23,-166.71C605.74,-159.31 708.14,-146.39 805.57,-129.13"/>
<polygon fill="#63b8ff" stroke="#63b8ff" points="806.36,-132.54 815.59,-127.34 805.13,-125.65 806.36,-132.54"/>
</a>
</g>
</g>
<!-- Node15 -->
<g id="Node000015" class="node">
<title>Node15</title>
<g id="a_Node000015"><a xlink:title=" ">
<polygon fill="#e0e0e0" stroke="#999999" points="427.5,-129 380.5,-129 380.5,-110 427.5,-110 427.5,-129"/>
<text text-anchor="middle" x="404" y="-117" font-family="Helvetica,sans-Serif" font-size="10.00">queue</text>
</a>
</g>
</g>
<!-- Node12&#45;&gt;Node15 -->
<g id="edge18_Node000012_Node000015" class="edge">
<title>Node12&#45;&gt;Node15</title>
<g id="a_edge18_Node000012_Node000015"><a xlink:title=" ">
<path fill="none" stroke="#63b8ff" d="M468.63,-164.98C456.91,-156.92 439.08,-144.65 425.11,-135.03"/>
<polygon fill="#63b8ff" stroke="#63b8ff" points="426.82,-131.96 416.6,-129.17 422.85,-137.72 426.82,-131.96"/>
</a>
</g>
</g>
<!-- Node16 -->
<g id="Node000016" class="node">
<title>Node16</title>
<g id="a_Node000016"><a xlink:title=" ">
<polygon fill="#e0e0e0" stroke="#999999" points="516.5,-129 445.5,-129 445.5,-110 516.5,-110 516.5,-129"/>
<text text-anchor="middle" x="481" y="-117" font-family="Helvetica,sans-Serif" font-size="10.00">semaphore</text>
</a>
</g>
</g>
<!-- Node12&#45;&gt;Node16 -->
<g id="edge19_Node000012_Node000016" class="edge">
<title>Node12&#45;&gt;Node16</title>
<g id="a_edge19_Node000012_Node000016"><a xlink:title=" ">
<path fill="none" stroke="#63b8ff" d="M481,-164.75C481,-157.8 481,-147.85 481,-139.13"/>
<polygon fill="#63b8ff" stroke="#63b8ff" points="484.5,-139.09 481,-129.09 477.5,-139.09 484.5,-139.09"/>
</a>
</g>
</g>
<!-- Node17 -->
<g id="Node000017" class="node">
<title>Node17</title>
<g id="a_Node000017"><a xlink:title=" ">
<polygon fill="#e0e0e0" stroke="#999999" points="621,-74 565,-74 565,-55 621,-55 621,-74"/>
<text text-anchor="middle" x="593" y="-62" font-family="Helvetica,sans-Serif" font-size="10.00">sstream</text>
</a>
</g>
</g>
<!-- Node12&#45;&gt;Node17 -->
<g id="edge20_Node000012_Node000017" class="edge">
<title>Node12&#45;&gt;Node17</title>
<g id="a_edge20_Node000012_Node000017"><a xlink:title=" ">
<path fill="none" stroke="#63b8ff" d="M436.76,-164.92C397.2,-155.27 348.64,-137.29 371,-110 393.81,-82.16 497.56,-71.38 554.8,-67.5"/>
<polygon fill="#63b8ff" stroke="#63b8ff" points="555.16,-70.98 564.91,-66.85 554.71,-64 555.16,-70.98"/>
</a>
</g>
</g>
<!-- Node18 -->
<g id="Node000018" class="node">
<title>Node18</title>
<g id="a_Node000018"><a xlink:title=" ">
<polygon fill="#e0e0e0" stroke="#999999" points="1051,-19 1007,-19 1007,0 1051,0 1051,-19"/>
<text text-anchor="middle" x="1029" y="-7" font-family="Helvetica,sans-Serif" font-size="10.00">string</text>
</a>
</g>
</g>
<!-- Node12&#45;&gt;Node18 -->
<g id="edge21_Node000012_Node000018" class="edge">
<title>Node12&#45;&gt;Node18</title>
<g id="a_edge21_Node000012_Node000018"><a xlink:title=" ">
<path fill="none" stroke="#63b8ff" d="M542.05,-172.3C672.42,-169.18 968.98,-158.83 1003,-129 1031.42,-104.08 1032.77,-55.87 1031.04,-29.27"/>
<polygon fill="#63b8ff" stroke="#63b8ff" points="1034.5,-28.68 1030.15,-19.02 1027.53,-29.29 1034.5,-28.68"/>
</a>
</g>
</g>
<!-- Node19 -->
<g id="Node000019" class="node">
<title>Node19</title>
<g id="a_Node000019"><a xlink:title=" ">
<polygon fill="#e0e0e0" stroke="#999999" points="661.5,-129 534.5,-129 534.5,-110 661.5,-110 661.5,-129"/>
<text text-anchor="middle" x="598" y="-117" font-family="Helvetica,sans-Serif" font-size="10.00">../utils/parameters.hpp</text>
</a>
</g>
</g>
<!-- Node12&#45;&gt;Node19 -->
<g id="edge23_Node000012_Node000019" class="edge">
<title>Node12&#45;&gt;Node19</title>
<g id="a_edge23_Node000012_Node000019"><a xlink:title=" ">
<path fill="none" stroke="#63b8ff" d="M499.8,-164.98C518.62,-156.46 547.82,-143.23 569.5,-133.41"/>
<polygon fill="#63b8ff" stroke="#63b8ff" points="571.2,-136.48 578.86,-129.17 568.31,-130.11 571.2,-136.48"/>
</a>
</g>
</g>
<!-- Node20 -->
<g id="Node000020" class="node">
<title>Node20</title>
<g id="a_Node000020"><a xlink:title=" ">
<polygon fill="#e0e0e0" stroke="#999999" points="798,-129 680,-129 680,-110 798,-110 798,-129"/>
<text text-anchor="middle" x="739" y="-117" font-family="Helvetica,sans-Serif" font-size="10.00">../utils/constants.hpp</text>
</a>
</g>
</g>
<!-- Node12&#45;&gt;Node20 -->
<g id="edge24_Node000012_Node000020" class="edge">
<title>Node12&#45;&gt;Node20</title>
<g id="a_edge24_Node000012_Node000020"><a xlink:title=" ">
<path fill="none" stroke="#63b8ff" d="M522.45,-164.98C567.27,-155.78 638.77,-141.09 687.25,-131.13"/>
<polygon fill="#63b8ff" stroke="#63b8ff" points="688.13,-134.52 697.22,-129.08 686.72,-127.67 688.13,-134.52"/>
</a>
</g>
</g>
<!-- Node21 -->
<g id="Node000021" class="node">
<title>Node21</title>
<g id="a_Node000021"><a xlink:href="utils_8hpp.html" target="_top" xlink:title=" ">
<polygon fill="white" stroke="#666666" points="993.5,-129 892.5,-129 892.5,-110 993.5,-110 993.5,-129"/>
<text text-anchor="middle" x="943" y="-117" font-family="Helvetica,sans-Serif" font-size="10.00">uvgutils/utils.hpp</text>
</a>
</g>
</g>
<!-- Node12&#45;&gt;Node21 -->
<g id="edge25_Node000012_Node000021" class="edge">
<title>Node12&#45;&gt;Node21</title>
<g id="a_edge25_Node000012_Node000021"><a xlink:title=" ">
<path fill="none" stroke="#63b8ff" d="M542.02,-167.33C618.78,-159.44 754.89,-145.01 881.97,-129.09"/>
<polygon fill="#63b8ff" stroke="#63b8ff" points="882.79,-132.52 892.28,-127.8 881.92,-125.57 882.79,-132.52"/>
</a>
</g>
</g>
<!-- Node21&#45;&gt;Node3 -->
<g id="edge26_Node000021_Node000003" class="edge">
<title>Node21&#45;&gt;Node3</title>
<g id="a_edge26_Node000021_Node000003"><a xlink:title=" ">
<path fill="none" stroke="#63b8ff" d="M892.29,-111.04C889.15,-110.66 886.04,-110.31 883,-110 635.56,-84.64 567.23,-115.76 318.25,-73.82"/>
<polygon fill="#63b8ff" stroke="#63b8ff" points="318.62,-70.33 308.18,-72.1 317.45,-77.24 318.62,-70.33"/>
</a>
</g>
</g>
<!-- Node21&#45;&gt;Node6 -->
<g id="edge27_Node000021_Node000006" class="edge">
<title>Node21&#45;&gt;Node6</title>
<g id="a_edge27_Node000021_Node000006"><a xlink:title=" ">
<path fill="none" stroke="#63b8ff" d="M970.15,-109.98C998.78,-101.01 1044.03,-86.82 1075.7,-76.88"/>
<polygon fill="#63b8ff" stroke="#63b8ff" points="1076.98,-80.15 1085.47,-73.82 1074.88,-73.47 1076.98,-80.15"/>
</a>
</g>
</g>
<!-- Node21&#45;&gt;Node7 -->
<g id="edge28_Node000021_Node000007" class="edge">
<title>Node21&#45;&gt;Node7</title>
<g id="a_edge28_Node000021_Node000007"><a xlink:title=" ">
<path fill="none" stroke="#63b8ff" d="M892.29,-111.11C889.15,-110.71 886.03,-110.34 883,-110 696.41,-89 471.98,-73.37 386.45,-67.76"/>
<polygon fill="#63b8ff" stroke="#63b8ff" points="386.46,-64.25 376.25,-67.1 386,-71.24 386.46,-64.25"/>
</a>
</g>
</g>
<!-- Node21&#45;&gt;Node17 -->
<g id="edge31_Node000021_Node000017" class="edge">
<title>Node21&#45;&gt;Node17</title>
<g id="a_edge31_Node000021_Node000017"><a xlink:title=" ">
<path fill="none" stroke="#63b8ff" d="M892.48,-110.85C821.65,-100.12 694.4,-80.85 631.02,-71.26"/>
<polygon fill="#63b8ff" stroke="#63b8ff" points="631.47,-67.78 621.05,-69.75 630.42,-74.71 631.47,-67.78"/>
</a>
</g>
</g>
<!-- Node22 -->
<g id="Node000022" class="node">
<title>Node22</title>
<g id="a_Node000022"><a xlink:title=" ">
<polygon fill="#e0e0e0" stroke="#999999" points="989,-19 933,-19 933,0 989,0 989,-19"/>
<text text-anchor="middle" x="961" y="-7" font-family="Helvetica,sans-Serif" font-size="10.00">iomanip</text>
</a>
</g>
</g>
<!-- Node21&#45;&gt;Node22 -->
<g id="edge29_Node000021_Node000022" class="edge">
<title>Node21&#45;&gt;Node22</title>
<g id="a_edge29_Node000021_Node000022"><a xlink:title=" ">
<path fill="none" stroke="#63b8ff" d="M944.47,-109.66C947.39,-92.17 953.95,-52.8 957.87,-29.27"/>
<polygon fill="#63b8ff" stroke="#63b8ff" points="961.37,-29.6 959.56,-19.16 954.46,-28.45 961.37,-29.6"/>
</a>
</g>
</g>
<!-- Node23 -->
<g id="Node000023" class="node">
<title>Node23</title>
<g id="a_Node000023"><a xlink:title=" ">
<polygon fill="#e0e0e0" stroke="#999999" points="941,-74 897,-74 897,-55 941,-55 941,-74"/>
<text text-anchor="middle" x="919" y="-62" font-family="Helvetica,sans-Serif" font-size="10.00">limits</text>
</a>
</g>
</g>
<!-- Node21&#45;&gt;Node23 -->
<g id="edge30_Node000021_Node000023" class="edge">
<title>Node21&#45;&gt;Node23</title>
<g id="a_edge30_Node000021_Node000023"><a xlink:title=" ">
<path fill="none" stroke="#63b8ff" d="M939.04,-109.75C935.79,-102.57 931.08,-92.18 927.05,-83.27"/>
<polygon fill="#63b8ff" stroke="#63b8ff" points="930.2,-81.75 922.89,-74.09 923.83,-84.64 930.2,-81.75"/>
</a>
</g>
</g>
<!-- Node24 -->
<g id="Node000024" class="node">
<title>Node24</title>
<g id="a_Node000024"><a xlink:href="log_8hpp.html" target="_top" xlink:title=" ">
<polygon fill="white" stroke="#666666" points="878.5,-74 825.5,-74 825.5,-55 878.5,-55 878.5,-74"/>
<text text-anchor="middle" x="852" y="-62" font-family="Helvetica,sans-Serif" font-size="10.00">log.hpp</text>
</a>
</g>
</g>
<!-- Node21&#45;&gt;Node24 -->
<g id="edge32_Node000021_Node000024" class="edge">
<title>Node21&#45;&gt;Node24</title>
<g id="a_edge32_Node000021_Node000024"><a xlink:title=" ">
<path fill="none" stroke="#63b8ff" d="M928.38,-109.98C914.14,-101.69 892.25,-88.94 875.55,-79.22"/>
<polygon fill="#63b8ff" stroke="#63b8ff" points="877.29,-76.18 866.89,-74.17 873.77,-82.23 877.29,-76.18"/>
</a>
</g>
</g>
<!-- Node24&#45;&gt;Node13 -->
<g id="edge36_Node000024_Node000013" class="edge">
<title>Node24&#45;&gt;Node13</title>
<g id="a_edge36_Node000024_Node000013"><a xlink:title=" ">
<path fill="none" stroke="#63b8ff" d="M825.19,-59.86C758,-50.73 582.06,-26.82 502.32,-15.98"/>
<polygon fill="#63b8ff" stroke="#63b8ff" points="502.56,-12.48 492.18,-14.6 501.61,-19.42 502.56,-12.48"/>
</a>
</g>
</g>
<!-- Node24&#45;&gt;Node18 -->
<g id="edge38_Node000024_Node000018" class="edge">
<title>Node24&#45;&gt;Node18</title>
<g id="a_edge38_Node000024_Node000018"><a xlink:title=" ">
<path fill="none" stroke="#63b8ff" d="M878.88,-55.45C910.61,-45.95 963.31,-30.17 997.08,-20.06"/>
<polygon fill="#63b8ff" stroke="#63b8ff" points="998.33,-23.34 1006.91,-17.11 996.33,-16.63 998.33,-23.34"/>
</a>
</g>
</g>
<!-- Node24&#45;&gt;Node22 -->
<g id="edge35_Node000024_Node000022" class="edge">
<title>Node24&#45;&gt;Node22</title>
<g id="a_edge35_Node000024_Node000022"><a xlink:title=" ">
<path fill="none" stroke="#63b8ff" d="M869.51,-54.98C886.97,-46.5 914.01,-33.35 934.17,-23.54"/>
<polygon fill="#63b8ff" stroke="#63b8ff" points="935.71,-26.69 943.17,-19.17 932.64,-20.4 935.71,-26.69"/>
</a>
</g>
</g>
<!-- Node25 -->
<g id="Node000025" class="node">
<title>Node25</title>
<g id="a_Node000025"><a xlink:title=" ">
<polygon fill="#e0e0e0" stroke="#999999" points="843,-19 793,-19 793,0 843,0 843,-19"/>
<text text-anchor="middle" x="818" y="-7" font-family="Helvetica,sans-Serif" font-size="10.00">chrono</text>
</a>
</g>
</g>
<!-- Node24&#45;&gt;Node25 -->
<g id="edge33_Node000024_Node000025" class="edge">
<title>Node24&#45;&gt;Node25</title>
<g id="a_edge33_Node000024_Node000025"><a xlink:title=" ">
<path fill="none" stroke="#63b8ff" d="M846.39,-54.75C841.68,-47.42 834.83,-36.73 829.03,-27.7"/>
<polygon fill="#63b8ff" stroke="#63b8ff" points="831.86,-25.62 823.51,-19.09 825.96,-29.4 831.86,-25.62"/>
</a>
</g>
</g>
<!-- Node26 -->
<g id="Node000026" class="node">
<title>Node26</title>
<g id="a_Node000026"><a xlink:title=" ">
<polygon fill="#e0e0e0" stroke="#999999" points="914.5,-19 861.5,-19 861.5,0 914.5,0 914.5,-19"/>
<text text-anchor="middle" x="888" y="-7" font-family="Helvetica,sans-Serif" font-size="10.00">cstdarg</text>
</a>
</g>
</g>
<!-- Node24&#45;&gt;Node26 -->
<g id="edge34_Node000024_Node000026" class="edge">
<title>Node24&#45;&gt;Node26</title>
<g id="a_edge34_Node000024_Node000026"><a xlink:title=" ">
<path fill="none" stroke="#63b8ff" d="M857.94,-54.75C862.98,-47.34 870.34,-36.5 876.51,-27.41"/>
<polygon fill="#63b8ff" stroke="#63b8ff" points="879.44,-29.33 882.17,-19.09 873.65,-25.39 879.44,-29.33"/>
</a>
</g>
</g>
<!-- Node27 -->
<g id="Node000027" class="node">
<title>Node27</title>
<g id="a_Node000027"><a xlink:title=" ">
<polygon fill="#e0e0e0" stroke="#999999" points="775,-19 727,-19 727,0 775,0 775,-19"/>
<text text-anchor="middle" x="751" y="-7" font-family="Helvetica,sans-Serif" font-size="10.00">mutex</text>
</a>
</g>
</g>
<!-- Node24&#45;&gt;Node27 -->
<g id="edge37_Node000024_Node000027" class="edge">
<title>Node24&#45;&gt;Node27</title>
<g id="a_edge37_Node000024_Node000027"><a xlink:title=" ">
<path fill="none" stroke="#63b8ff" d="M835.77,-54.98C819.82,-46.61 795.22,-33.7 776.62,-23.95"/>
<polygon fill="#63b8ff" stroke="#63b8ff" points="778,-20.72 767.52,-19.17 774.75,-26.92 778,-20.72"/>
</a>
</g>
</g>
<!-- Node28&#45;&gt;Node6 -->
<g id="edge40_Node000028_Node000006" class="edge">
<title>Node28&#45;&gt;Node6</title>
<g id="a_edge40_Node000028_Node000006"><a xlink:title=" ">
<path fill="none" stroke="#63b8ff" d="M1133.55,-164.78C1140.66,-152.45 1151.37,-129.29 1145,-110 1141.54,-99.54 1134.57,-89.53 1127.92,-81.66"/>
<polygon fill="#63b8ff" stroke="#63b8ff" points="1130.33,-79.1 1121.02,-74.04 1125.14,-83.8 1130.33,-79.1"/>
</a>
</g>
</g>
<!-- Node28&#45;&gt;Node9 -->
<g id="edge43_Node000028_Node000009" class="edge">
<title>Node28&#45;&gt;Node9</title>
<g id="a_edge43_Node000028_Node000009"><a xlink:title=" ">
<path fill="none" stroke="#63b8ff" d="M1125.36,-164.75C1123.24,-157.72 1120.19,-147.62 1117.54,-138.84"/>
<polygon fill="#63b8ff" stroke="#63b8ff" points="1120.83,-137.65 1114.59,-129.09 1114.13,-139.67 1120.83,-137.65"/>
</a>
</g>
</g>
<!-- Node28&#45;&gt;Node10 -->
<g id="edge41_Node000028_Node000010" class="edge">
<title>Node28&#45;&gt;Node10</title>
<g id="a_edge41_Node000028_Node000010"><a xlink:title=" ">
<path fill="none" stroke="#63b8ff" d="M1149.69,-164.98C1171.8,-156.3 1206.32,-142.75 1231.45,-132.88"/>
<polygon fill="#63b8ff" stroke="#63b8ff" points="1232.89,-136.08 1240.92,-129.17 1230.33,-129.57 1232.89,-136.08"/>
</a>
</g>
</g>
<!-- Node28&#45;&gt;Node18 -->
<g id="edge42_Node000028_Node000018" class="edge">
<title>Node28&#45;&gt;Node18</title>
<g id="a_edge42_Node000028_Node000018"><a xlink:title=" ">
<path fill="none" stroke="#63b8ff" d="M1136.48,-164.85C1144.05,-156.47 1154.6,-143.01 1159,-129 1165.68,-107.73 1151.39,-58.98 1148,-55 1126.29,-29.5 1088.47,-18.59 1061.29,-13.94"/>
<polygon fill="#63b8ff" stroke="#63b8ff" points="1061.5,-10.43 1051.09,-12.4 1060.45,-17.35 1061.5,-10.43"/>
</a>
</g>
</g>
<!-- Node28&#45;&gt;Node21 -->
<g id="edge44_Node000028_Node000021" class="edge">
<title>Node28&#45;&gt;Node21</title>
<g id="a_edge44_Node000028_Node000021"><a xlink:title=" ">
<path fill="none" stroke="#63b8ff" d="M1098.28,-164.98C1066.95,-156.01 1017.43,-141.82 982.76,-131.89"/>
<polygon fill="#63b8ff" stroke="#63b8ff" points="983.53,-128.47 972.96,-129.08 981.61,-135.2 983.53,-128.47"/>
</a>
</g>
</g>
</g>
</svg>
