<?xml version="1.0" encoding="UTF-8" standalone="no"?>
<!DOCTYPE svg PUBLIC "-//W3C//DTD SVG 1.1//EN"
 "http://www.w3.org/Graphics/SVG/1.1/DTD/svg11.dtd">
<!-- Generated by graphviz version 2.43.0 (0)
 -->
<!-- Title: src/lib/mapGeneration/bgFillAttribute.cpp Pages: 1 -->
<svg width="1160pt" height="203pt"
 viewBox="0.00 0.00 1159.50 203.00" xmlns="http://www.w3.org/2000/svg" xmlns:xlink="http://www.w3.org/1999/xlink">
<g id="graph0" class="graph" transform="scale(1 1) rotate(0) translate(4 199)">
<title>src/lib/mapGeneration/bgFillAttribute.cpp</title>
<!-- Node1 -->
<g id="Node000001" class="node">
<title>Node1</title>
<g id="a_Node000001"><a xlink:title=" ">
<polygon fill="#999999" stroke="#666666" points="808,-195 683,-195 683,-165 808,-165 808,-195"/>
<text text-anchor="start" x="691" y="-183" font-family="Helvetica,sans-Serif" font-size="10.00">src/lib/mapGeneration</text>
<text text-anchor="middle" x="745.5" y="-172" font-family="Helvetica,sans-Serif" font-size="10.00">/bgFillAttribute.cpp</text>
</a>
</g>
</g>
<!-- Node2 -->
<g id="Node000002" class="node">
<title>Node2</title>
<g id="a_Node000002"><a xlink:href="bgFillAttribute_8hpp.html" target="_top" xlink:title=" ">
<polygon fill="white" stroke="#666666" points="511,-129 404,-129 404,-110 511,-110 511,-129"/>
<text text-anchor="middle" x="457.5" y="-117" font-family="Helvetica,sans-Serif" font-size="10.00">bgFillAttribute.hpp</text>
</a>
</g>
</g>
<!-- Node1&#45;&gt;Node2 -->
<g id="edge1_Node000001_Node000002" class="edge">
<title>Node1&#45;&gt;Node2</title>
<g id="a_edge1_Node000001_Node000002"><a xlink:title=" ">
<path fill="none" stroke="#63b8ff" d="M682.65,-166.23C630.89,-155.72 558.35,-140.99 509.74,-131.11"/>
<polygon fill="#63b8ff" stroke="#63b8ff" points="510.24,-127.64 499.74,-129.08 508.84,-134.5 510.24,-127.64"/>
</a>
</g>
</g>
<!-- Node3 -->
<g id="Node000003" class="node">
<title>Node3</title>
<g id="a_Node000003"><a xlink:href="uvgvpcc_8hpp.html" target="_top" xlink:title=" ">
<polygon fill="white" stroke="#666666" points="549.5,-74 427.5,-74 427.5,-55 549.5,-55 549.5,-74"/>
<text text-anchor="middle" x="488.5" y="-62" font-family="Helvetica,sans-Serif" font-size="10.00">uvgvpcc/uvgvpcc.hpp</text>
</a>
</g>
</g>
<!-- Node1&#45;&gt;Node3 -->
<g id="edge34_Node000001_Node000003" class="edge">
<title>Node1&#45;&gt;Node3</title>
<g id="a_edge34_Node000001_Node000003"><a xlink:title=" ">
<path fill="none" stroke="#63b8ff" d="M682.75,-168.76C646.45,-161.16 600.74,-148.64 563.5,-129 540.07,-116.64 517.48,-95.92 503.32,-81.52"/>
<polygon fill="#63b8ff" stroke="#63b8ff" points="505.82,-79.07 496.37,-74.27 500.76,-83.91 505.82,-79.07"/>
</a>
</g>
</g>
<!-- Node4 -->
<g id="Node000004" class="node">
<title>Node4</title>
<g id="a_Node000004"><a xlink:title=" ">
<polygon fill="#e0e0e0" stroke="#999999" points="53,-19 0,-19 0,0 53,0 53,-19"/>
<text text-anchor="middle" x="26.5" y="-7" font-family="Helvetica,sans-Serif" font-size="10.00">cstddef</text>
</a>
</g>
</g>
<!-- Node1&#45;&gt;Node4 -->
<g id="edge19_Node000001_Node000004" class="edge">
<title>Node1&#45;&gt;Node4</title>
<g id="a_edge19_Node000001_Node000004"><a xlink:title=" ">
<path fill="none" stroke="#63b8ff" d="M682.77,-173.31C612.09,-166.16 494.07,-151.95 394.5,-129 267.23,-99.67 120.82,-46.46 57.9,-22.62"/>
<polygon fill="#63b8ff" stroke="#63b8ff" points="59.12,-19.34 48.53,-19.06 56.63,-25.89 59.12,-19.34"/>
</a>
</g>
</g>
<!-- Node5 -->
<g id="Node000005" class="node">
<title>Node5</title>
<g id="a_Node000005"><a xlink:title=" ">
<polygon fill="#e0e0e0" stroke="#999999" points="881.5,-19 831.5,-19 831.5,0 881.5,0 881.5,-19"/>
<text text-anchor="middle" x="856.5" y="-7" font-family="Helvetica,sans-Serif" font-size="10.00">cstdint</text>
</a>
</g>
</g>
<!-- Node1&#45;&gt;Node5 -->
<g id="edge20_Node000001_Node000005" class="edge">
<title>Node1&#45;&gt;Node5</title>
<g id="a_edge20_Node000001_Node000005"><a xlink:title=" ">
<path fill="none" stroke="#63b8ff" d="M808.23,-176.22C878.84,-171.63 987.05,-159.66 1012.5,-129 1053.49,-79.63 949.32,-38.66 891.7,-20.53"/>
<polygon fill="#63b8ff" stroke="#63b8ff" points="892.45,-17.1 881.87,-17.52 890.4,-23.79 892.45,-17.1"/>
</a>
</g>
</g>
<!-- Node12 -->
<g id="Node000012" class="node">
<title>Node12</title>
<g id="a_Node000012"><a xlink:title=" ">
<polygon fill="#e0e0e0" stroke="#999999" points="793,-19 746,-19 746,0 793,0 793,-19"/>
<text text-anchor="middle" x="769.5" y="-7" font-family="Helvetica,sans-Serif" font-size="10.00">vector</text>
</a>
</g>
</g>
<!-- Node1&#45;&gt;Node12 -->
<g id="edge23_Node000001_Node000012" class="edge">
<title>Node1&#45;&gt;Node12</title>
<g id="a_edge23_Node000001_Node000012"><a xlink:title=" ">
<path fill="none" stroke="#63b8ff" d="M754.83,-164.81C760.6,-155.15 767.47,-141.85 770.5,-129 778.62,-94.58 775.39,-52.97 772.38,-29.33"/>
<polygon fill="#63b8ff" stroke="#63b8ff" points="775.83,-28.7 770.98,-19.28 768.9,-29.67 775.83,-28.7"/>
</a>
</g>
</g>
<!-- Node13 -->
<g id="Node000013" class="node">
<title>Node13</title>
<g id="a_Node000013"><a xlink:title=" ">
<polygon fill="#e0e0e0" stroke="#999999" points="665.5,-19 601.5,-19 601.5,0 665.5,0 665.5,-19"/>
<text text-anchor="middle" x="633.5" y="-7" font-family="Helvetica,sans-Serif" font-size="10.00">algorithm</text>
</a>
</g>
</g>
<!-- Node1&#45;&gt;Node13 -->
<g id="edge15_Node000001_Node000013" class="edge">
<title>Node1&#45;&gt;Node13</title>
<g id="a_edge15_Node000001_Node000013"><a xlink:title=" ">
<path fill="none" stroke="#63b8ff" d="M687.71,-164.97C665.78,-157.3 641.91,-145.82 624.5,-129 599.53,-104.88 588.38,-87.88 599.5,-55 603.06,-44.47 610.22,-34.48 617.05,-26.63"/>
<polygon fill="#63b8ff" stroke="#63b8ff" points="619.63,-29.01 623.89,-19.31 614.51,-24.23 619.63,-29.01"/>
</a>
</g>
</g>
<!-- Node16 -->
<g id="Node000016" class="node">
<title>Node16</title>
<g id="a_Node000016"><a xlink:title=" ">
<polygon fill="#e0e0e0" stroke="#999999" points="1151.5,-19 1109.5,-19 1109.5,0 1151.5,0 1151.5,-19"/>
<text text-anchor="middle" x="1130.5" y="-7" font-family="Helvetica,sans-Serif" font-size="10.00">array</text>
</a>
</g>
</g>
<!-- Node1&#45;&gt;Node16 -->
<g id="edge16_Node000001_Node000016" class="edge">
<title>Node1&#45;&gt;Node16</title>
<g id="a_edge16_Node000001_Node000016"><a xlink:title=" ">
<path fill="none" stroke="#63b8ff" d="M808.01,-175.91C867.27,-171.18 957.79,-159.22 1030.5,-129 1069.67,-112.72 1083,-107.89 1108.5,-74 1118.47,-60.74 1124.16,-42.62 1127.24,-29.13"/>
<polygon fill="#63b8ff" stroke="#63b8ff" points="1130.71,-29.59 1129.25,-19.1 1123.85,-28.21 1130.71,-29.59"/>
</a>
</g>
</g>
<!-- Node17 -->
<g id="Node000017" class="node">
<title>Node17</title>
<g id="a_Node000017"><a xlink:title=" ">
<polygon fill="#e0e0e0" stroke="#999999" points="869.5,-129 817.5,-129 817.5,-110 869.5,-110 869.5,-129"/>
<text text-anchor="middle" x="843.5" y="-117" font-family="Helvetica,sans-Serif" font-size="10.00">cassert</text>
</a>
</g>
</g>
<!-- Node1&#45;&gt;Node17 -->
<g id="edge17_Node000001_Node000017" class="edge">
<title>Node1&#45;&gt;Node17</title>
<g id="a_edge17_Node000001_Node000017"><a xlink:title=" ">
<path fill="none" stroke="#63b8ff" d="M769.22,-164.84C784.7,-155.6 804.82,-143.59 820.21,-134.4"/>
<polygon fill="#63b8ff" stroke="#63b8ff" points="822.31,-137.23 829.1,-129.09 818.72,-131.21 822.31,-137.23"/>
</a>
</g>
</g>
<!-- Node18 -->
<g id="Node000018" class="node">
<title>Node18</title>
<g id="a_Node000018"><a xlink:title=" ">
<polygon fill="#e0e0e0" stroke="#999999" points="935,-129 888,-129 888,-110 935,-110 935,-129"/>
<text text-anchor="middle" x="911.5" y="-117" font-family="Helvetica,sans-Serif" font-size="10.00">cmath</text>
</a>
</g>
</g>
<!-- Node1&#45;&gt;Node18 -->
<g id="edge18_Node000001_Node000018" class="edge">
<title>Node1&#45;&gt;Node18</title>
<g id="a_edge18_Node000001_Node000018"><a xlink:title=" ">
<path fill="none" stroke="#63b8ff" d="M785.26,-164.99C813.67,-154.98 851.45,-141.66 878.26,-132.21"/>
<polygon fill="#63b8ff" stroke="#63b8ff" points="879.68,-135.42 887.95,-128.8 877.36,-128.82 879.68,-135.42"/>
</a>
</g>
</g>
<!-- Node19 -->
<g id="Node000019" class="node">
<title>Node19</title>
<g id="a_Node000019"><a xlink:title=" ">
<polygon fill="#e0e0e0" stroke="#999999" points="1003.5,-129 953.5,-129 953.5,-110 1003.5,-110 1003.5,-129"/>
<text text-anchor="middle" x="978.5" y="-117" font-family="Helvetica,sans-Serif" font-size="10.00">cstring</text>
</a>
</g>
</g>
<!-- Node1&#45;&gt;Node19 -->
<g id="edge21_Node000001_Node000019" class="edge">
<title>Node1&#45;&gt;Node19</title>
<g id="a_edge21_Node000001_Node000019"><a xlink:title=" ">
<path fill="none" stroke="#63b8ff" d="M801.31,-164.99C845.49,-153.9 905.82,-138.75 943.46,-129.3"/>
<polygon fill="#63b8ff" stroke="#63b8ff" points="944.59,-132.62 953.44,-126.79 942.88,-125.83 944.59,-132.62"/>
</a>
</g>
</g>
<!-- Node20 -->
<g id="Node000020" class="node">
<title>Node20</title>
<g id="a_Node000020"><a xlink:title=" ">
<polygon fill="#e0e0e0" stroke="#999999" points="673,-74 608,-74 608,-55 673,-55 673,-74"/>
<text text-anchor="middle" x="640.5" y="-62" font-family="Helvetica,sans-Serif" font-size="10.00">stdexcept</text>
</a>
</g>
</g>
<!-- Node1&#45;&gt;Node20 -->
<g id="edge22_Node000001_Node000020" class="edge">
<title>Node1&#45;&gt;Node20</title>
<g id="a_edge22_Node000001_Node000020"><a xlink:title=" ">
<path fill="none" stroke="#63b8ff" d="M682.82,-164.91C664.07,-157.45 645.57,-146.13 634.5,-129 625.87,-115.64 628.81,-97.29 633.05,-83.75"/>
<polygon fill="#63b8ff" stroke="#63b8ff" points="636.43,-84.7 636.54,-74.11 629.85,-82.32 636.43,-84.7"/>
</a>
</g>
</g>
<!-- Node21 -->
<g id="Node000021" class="node">
<title>Node21</title>
<g id="a_Node000021"><a xlink:href="parameters_8hpp.html" target="_top" xlink:title=" ">
<polygon fill="white" stroke="#666666" points="761.5,-129 643.5,-129 643.5,-110 761.5,-110 761.5,-129"/>
<text text-anchor="middle" x="702.5" y="-117" font-family="Helvetica,sans-Serif" font-size="10.00">utils/parameters.hpp</text>
</a>
</g>
</g>
<!-- Node1&#45;&gt;Node21 -->
<g id="edge24_Node000001_Node000021" class="edge">
<title>Node1&#45;&gt;Node21</title>
<g id="a_edge24_Node000001_Node000021"><a xlink:title=" ">
<path fill="none" stroke="#63b8ff" d="M735.09,-164.84C729.04,-156.61 721.38,-146.18 715,-137.51"/>
<polygon fill="#63b8ff" stroke="#63b8ff" points="717.69,-135.25 708.94,-129.27 712.05,-139.4 717.69,-135.25"/>
</a>
</g>
</g>
<!-- Node2&#45;&gt;Node3 -->
<g id="edge2_Node000002_Node000003" class="edge">
<title>Node2&#45;&gt;Node3</title>
<g id="a_edge2_Node000002_Node000003"><a xlink:title=" ">
<path fill="none" stroke="#63b8ff" d="M462.62,-109.75C466.86,-102.49 473.03,-91.95 478.28,-82.98"/>
<polygon fill="#63b8ff" stroke="#63b8ff" points="481.45,-84.49 483.48,-74.09 475.41,-80.95 481.45,-84.49"/>
</a>
</g>
</g>
<!-- Node3&#45;&gt;Node4 -->
<g id="edge3_Node000003_Node000004" class="edge">
<title>Node3&#45;&gt;Node4</title>
<g id="a_edge3_Node000003_Node000004"><a xlink:title=" ">
<path fill="none" stroke="#63b8ff" d="M427.33,-59.72C346.15,-54.13 198.21,-41.94 63.28,-19.1"/>
<polygon fill="#63b8ff" stroke="#63b8ff" points="63.62,-15.61 53.18,-17.37 62.44,-22.51 63.62,-15.61"/>
</a>
</g>
</g>
<!-- Node3&#45;&gt;Node5 -->
<g id="edge4_Node000003_Node000005" class="edge">
<title>Node3&#45;&gt;Node5</title>
<g id="a_edge4_Node000003_Node000005"><a xlink:title=" ">
<path fill="none" stroke="#63b8ff" d="M549.62,-55.12C612.92,-46.38 714.69,-32.13 802.5,-19 808.51,-18.1 814.9,-17.12 821.09,-16.15"/>
<polygon fill="#63b8ff" stroke="#63b8ff" points="821.9,-19.57 831.24,-14.56 820.82,-12.65 821.9,-19.57"/>
</a>
</g>
</g>
<!-- Node6 -->
<g id="Node000006" class="node">
<title>Node6</title>
<g id="a_Node000006"><a xlink:title=" ">
<polygon fill="#e0e0e0" stroke="#999999" points="441.5,-19 381.5,-19 381.5,0 441.5,0 441.5,-19"/>
<text text-anchor="middle" x="411.5" y="-7" font-family="Helvetica,sans-Serif" font-size="10.00">iostream</text>
</a>
</g>
</g>
<!-- Node3&#45;&gt;Node6 -->
<g id="edge5_Node000003_Node000006" class="edge">
<title>Node3&#45;&gt;Node6</title>
<g id="a_edge5_Node000003_Node000006"><a xlink:title=" ">
<path fill="none" stroke="#63b8ff" d="M476.13,-54.98C464.41,-46.92 446.58,-34.65 432.61,-25.03"/>
<polygon fill="#63b8ff" stroke="#63b8ff" points="434.32,-21.96 424.1,-19.17 430.35,-27.72 434.32,-21.96"/>
</a>
</g>
</g>
<!-- Node7 -->
<g id="Node000007" class="node">
<title>Node7</title>
<g id="a_Node000007"><a xlink:title=" ">
<polygon fill="#e0e0e0" stroke="#999999" points="517.5,-19 459.5,-19 459.5,0 517.5,0 517.5,-19"/>
<text text-anchor="middle" x="488.5" y="-7" font-family="Helvetica,sans-Serif" font-size="10.00">memory</text>
</a>
</g>
</g>
<!-- Node3&#45;&gt;Node7 -->
<g id="edge6_Node000003_Node000007" class="edge">
<title>Node3&#45;&gt;Node7</title>
<g id="a_edge6_Node000003_Node000007"><a xlink:title=" ">
<path fill="none" stroke="#63b8ff" d="M488.5,-54.75C488.5,-47.8 488.5,-37.85 488.5,-29.13"/>
<polygon fill="#63b8ff" stroke="#63b8ff" points="492,-29.09 488.5,-19.09 485,-29.09 492,-29.09"/>
</a>
</g>
</g>
<!-- Node8 -->
<g id="Node000008" class="node">
<title>Node8</title>
<g id="a_Node000008"><a xlink:title=" ">
<polygon fill="#e0e0e0" stroke="#999999" points="583,-19 536,-19 536,0 583,0 583,-19"/>
<text text-anchor="middle" x="559.5" y="-7" font-family="Helvetica,sans-Serif" font-size="10.00">queue</text>
</a>
</g>
</g>
<!-- Node3&#45;&gt;Node8 -->
<g id="edge7_Node000003_Node000008" class="edge">
<title>Node3&#45;&gt;Node8</title>
<g id="a_edge7_Node000003_Node000008"><a xlink:title=" ">
<path fill="none" stroke="#63b8ff" d="M499.91,-54.98C510.61,-47 526.84,-34.88 539.66,-25.31"/>
<polygon fill="#63b8ff" stroke="#63b8ff" points="541.97,-27.96 547.89,-19.17 537.78,-22.35 541.97,-27.96"/>
</a>
</g>
</g>
<!-- Node9 -->
<g id="Node000009" class="node">
<title>Node9</title>
<g id="a_Node000009"><a xlink:title=" ">
<polygon fill="#e0e0e0" stroke="#999999" points="142,-19 71,-19 71,0 142,0 142,-19"/>
<text text-anchor="middle" x="106.5" y="-7" font-family="Helvetica,sans-Serif" font-size="10.00">semaphore</text>
</a>
</g>
</g>
<!-- Node3&#45;&gt;Node9 -->
<g id="edge8_Node000003_Node000009" class="edge">
<title>Node3&#45;&gt;Node9</title>
<g id="a_edge8_Node000003_Node000009"><a xlink:title=" ">
<path fill="none" stroke="#63b8ff" d="M427.28,-56.56C361.63,-48.86 254.11,-35.54 152.17,-19.19"/>
<polygon fill="#63b8ff" stroke="#63b8ff" points="152.44,-15.69 142.01,-17.55 151.32,-22.6 152.44,-15.69"/>
</a>
</g>
</g>
<!-- Node10 -->
<g id="Node000010" class="node">
<title>Node10</title>
<g id="a_Node000010"><a xlink:title=" ">
<polygon fill="#e0e0e0" stroke="#999999" points="955.5,-19 899.5,-19 899.5,0 955.5,0 955.5,-19"/>
<text text-anchor="middle" x="927.5" y="-7" font-family="Helvetica,sans-Serif" font-size="10.00">sstream</text>
</a>
</g>
</g>
<!-- Node3&#45;&gt;Node10 -->
<g id="edge9_Node000003_Node000010" class="edge">
<title>Node3&#45;&gt;Node10</title>
<g id="a_edge9_Node000003_Node000010"><a xlink:title=" ">
<path fill="none" stroke="#63b8ff" d="M549.76,-58.93C626.76,-52.7 763.13,-40.04 889.08,-19.06"/>
<polygon fill="#63b8ff" stroke="#63b8ff" points="890.01,-22.45 899.29,-17.34 888.84,-15.55 890.01,-22.45"/>
</a>
</g>
</g>
<!-- Node11 -->
<g id="Node000011" class="node">
<title>Node11</title>
<g id="a_Node000011"><a xlink:title=" ">
<polygon fill="#e0e0e0" stroke="#999999" points="727.5,-19 683.5,-19 683.5,0 727.5,0 727.5,-19"/>
<text text-anchor="middle" x="705.5" y="-7" font-family="Helvetica,sans-Serif" font-size="10.00">string</text>
</a>
</g>
</g>
<!-- Node3&#45;&gt;Node11 -->
<g id="edge10_Node000003_Node000011" class="edge">
<title>Node3&#45;&gt;Node11</title>
<g id="a_edge10_Node000003_Node000011"><a xlink:title=" ">
<path fill="none" stroke="#63b8ff" d="M525.64,-54.99C561.19,-46.76 616.57,-33.73 673.31,-19.24"/>
<polygon fill="#63b8ff" stroke="#63b8ff" points="674.36,-22.59 683.17,-16.72 672.62,-15.81 674.36,-22.59"/>
</a>
</g>
</g>
<!-- Node3&#45;&gt;Node12 -->
<g id="edge11_Node000003_Node000012" class="edge">
<title>Node3&#45;&gt;Node12</title>
<g id="a_edge11_Node000003_Node000012"><a xlink:title=" ">
<path fill="none" stroke="#63b8ff" d="M542.91,-54.93C591.05,-47.09 663.4,-34.64 735.58,-19.06"/>
<polygon fill="#63b8ff" stroke="#63b8ff" points="736.73,-22.39 745.76,-16.84 735.24,-15.55 736.73,-22.39"/>
</a>
</g>
</g>
<!-- Node3&#45;&gt;Node13 -->
<g id="edge12_Node000003_Node000013" class="edge">
<title>Node3&#45;&gt;Node13</title>
<g id="a_edge12_Node000003_Node000013"><a xlink:title=" ">
<path fill="none" stroke="#63b8ff" d="M511.8,-54.98C535.75,-46.23 573.28,-32.51 600.33,-22.62"/>
<polygon fill="#63b8ff" stroke="#63b8ff" points="601.59,-25.89 609.78,-19.17 599.19,-19.32 601.59,-25.89"/>
</a>
</g>
</g>
<!-- Node14 -->
<g id="Node000014" class="node">
<title>Node14</title>
<g id="a_Node000014"><a xlink:title=" ">
<polygon fill="#e0e0e0" stroke="#999999" points="253,-19 160,-19 160,0 253,0 253,-19"/>
<text text-anchor="middle" x="206.5" y="-7" font-family="Helvetica,sans-Serif" font-size="10.00">unordered_map</text>
</a>
</g>
</g>
<!-- Node3&#45;&gt;Node14 -->
<g id="edge13_Node000003_Node000014" class="edge">
<title>Node3&#45;&gt;Node14</title>
<g id="a_edge13_Node000003_Node000014"><a xlink:title=" ">
<path fill="none" stroke="#63b8ff" d="M443.19,-54.98C393.9,-45.72 315.07,-30.9 262.07,-20.94"/>
<polygon fill="#63b8ff" stroke="#63b8ff" points="262.64,-17.49 252.16,-19.08 261.34,-24.37 262.64,-17.49"/>
</a>
</g>
</g>
<!-- Node15 -->
<g id="Node000015" class="node">
<title>Node15</title>
<g id="a_Node000015"><a xlink:title=" ">
<polygon fill="#e0e0e0" stroke="#999999" points="363.5,-19 271.5,-19 271.5,0 363.5,0 363.5,-19"/>
<text text-anchor="middle" x="317.5" y="-7" font-family="Helvetica,sans-Serif" font-size="10.00">../utils/utils.hpp</text>
</a>
</g>
</g>
<!-- Node3&#45;&gt;Node15 -->
<g id="edge14_Node000003_Node000015" class="edge">
<title>Node3&#45;&gt;Node15</title>
<g id="a_edge14_Node000003_Node000015"><a xlink:title=" ">
<path fill="none" stroke="#63b8ff" d="M461.03,-54.98C432.32,-46.09 387.08,-32.07 355.08,-22.15"/>
<polygon fill="#63b8ff" stroke="#63b8ff" points="355.78,-18.7 345.19,-19.08 353.7,-25.39 355.78,-18.7"/>
</a>
</g>
</g>
<!-- Node21&#45;&gt;Node11 -->
<g id="edge26_Node000021_Node000011" class="edge">
<title>Node21&#45;&gt;Node11</title>
<g id="a_edge26_Node000021_Node000011"><a xlink:title=" ">
<path fill="none" stroke="#63b8ff" d="M702.75,-109.66C703.23,-92.17 704.32,-52.8 704.98,-29.27"/>
<polygon fill="#63b8ff" stroke="#63b8ff" points="708.48,-29.25 705.26,-19.16 701.48,-29.06 708.48,-29.25"/>
</a>
</g>
</g>
<!-- Node21&#45;&gt;Node12 -->
<g id="edge27_Node000021_Node000012" class="edge">
<title>Node21&#45;&gt;Node12</title>
<g id="a_edge27_Node000021_Node000012"><a xlink:title=" ">
<path fill="none" stroke="#63b8ff" d="M707.98,-109.66C719.08,-91.77 744.37,-51 758.83,-27.69"/>
<polygon fill="#63b8ff" stroke="#63b8ff" points="761.83,-29.5 764.13,-19.16 755.88,-25.81 761.83,-29.5"/>
</a>
</g>
</g>
<!-- Node21&#45;&gt;Node20 -->
<g id="edge25_Node000021_Node000020" class="edge">
<title>Node21&#45;&gt;Node20</title>
<g id="a_edge25_Node000021_Node000020"><a xlink:title=" ">
<path fill="none" stroke="#63b8ff" d="M692.54,-109.98C683.37,-102.15 669.56,-90.34 658.47,-80.86"/>
<polygon fill="#63b8ff" stroke="#63b8ff" points="660.52,-78.01 650.64,-74.17 655.97,-83.33 660.52,-78.01"/>
</a>
</g>
</g>
<!-- Node22 -->
<g id="Node000022" class="node">
<title>Node22</title>
<g id="a_Node000022"><a xlink:href="utils_8hpp.html" target="_top" xlink:title=" ">
<polygon fill="white" stroke="#666666" points="1099,-74 1040,-74 1040,-55 1099,-55 1099,-74"/>
<text text-anchor="middle" x="1069.5" y="-62" font-family="Helvetica,sans-Serif" font-size="10.00">utils.hpp</text>
</a>
</g>
</g>
<!-- Node21&#45;&gt;Node22 -->
<g id="edge28_Node000021_Node000022" class="edge">
<title>Node21&#45;&gt;Node22</title>
<g id="a_edge28_Node000021_Node000022"><a xlink:title=" ">
<path fill="none" stroke="#63b8ff" d="M761.46,-109.98C836.7,-99.12 964.83,-80.62 1029.56,-71.27"/>
<polygon fill="#63b8ff" stroke="#63b8ff" points="1030.36,-74.69 1039.76,-69.8 1029.36,-67.76 1030.36,-74.69"/>
</a>
</g>
</g>
<!-- Node22&#45;&gt;Node5 -->
<g id="edge30_Node000022_Node000005" class="edge">
<title>Node22&#45;&gt;Node5</title>
<g id="a_edge30_Node000022_Node000005"><a xlink:title=" ">
<path fill="none" stroke="#63b8ff" d="M1039.73,-56.11C1006.14,-47.77 949.63,-33.73 891.8,-19.32"/>
<polygon fill="#63b8ff" stroke="#63b8ff" points="892.3,-15.84 881.75,-16.82 890.61,-22.63 892.3,-15.84"/>
</a>
</g>
</g>
<!-- Node22&#45;&gt;Node10 -->
<g id="edge32_Node000022_Node000010" class="edge">
<title>Node22&#45;&gt;Node10</title>
<g id="a_edge32_Node000022_Node000010"><a xlink:title=" ">
<path fill="none" stroke="#63b8ff" d="M1046.69,-54.98C1023.33,-46.27 986.8,-32.63 960.33,-22.75"/>
<polygon fill="#63b8ff" stroke="#63b8ff" points="961.32,-19.39 950.73,-19.17 958.87,-25.95 961.32,-19.39"/>
</a>
</g>
</g>
<!-- Node22&#45;&gt;Node16 -->
<g id="edge29_Node000022_Node000016" class="edge">
<title>Node22&#45;&gt;Node16</title>
<g id="a_edge29_Node000022_Node000016"><a xlink:title=" ">
<path fill="none" stroke="#63b8ff" d="M1079.3,-54.98C1088.32,-47.15 1101.91,-35.34 1112.82,-25.86"/>
<polygon fill="#63b8ff" stroke="#63b8ff" points="1115.27,-28.37 1120.52,-19.17 1110.68,-23.09 1115.27,-28.37"/>
</a>
</g>
</g>
<!-- Node23 -->
<g id="Node000023" class="node">
<title>Node23</title>
<g id="a_Node000023"><a xlink:title=" ">
<polygon fill="#e0e0e0" stroke="#999999" points="1091.5,-19 1047.5,-19 1047.5,0 1091.5,0 1091.5,-19"/>
<text text-anchor="middle" x="1069.5" y="-7" font-family="Helvetica,sans-Serif" font-size="10.00">limits</text>
</a>
</g>
</g>
<!-- Node22&#45;&gt;Node23 -->
<g id="edge31_Node000022_Node000023" class="edge">
<title>Node22&#45;&gt;Node23</title>
<g id="a_edge31_Node000022_Node000023"><a xlink:title=" ">
<path fill="none" stroke="#63b8ff" d="M1069.5,-54.75C1069.5,-47.8 1069.5,-37.85 1069.5,-29.13"/>
<polygon fill="#63b8ff" stroke="#63b8ff" points="1073,-29.09 1069.5,-19.09 1066,-29.09 1073,-29.09"/>
</a>
</g>
</g>
<!-- Node24 -->
<g id="Node000024" class="node">
<title>Node24</title>
<g id="a_Node000024"><a xlink:title=" ">
<polygon fill="#e0e0e0" stroke="#999999" points="1029.5,-19 973.5,-19 973.5,0 1029.5,0 1029.5,-19"/>
<text text-anchor="middle" x="1001.5" y="-7" font-family="Helvetica,sans-Serif" font-size="10.00">iomanip</text>
</a>
</g>
</g>
<!-- Node22&#45;&gt;Node24 -->
<g id="edge33_Node000022_Node000024" class="edge">
<title>Node22&#45;&gt;Node24</title>
<g id="a_edge33_Node000022_Node000024"><a xlink:title=" ">
<path fill="none" stroke="#63b8ff" d="M1058.57,-54.98C1048.42,-47.07 1033.08,-35.11 1020.85,-25.58"/>
<polygon fill="#63b8ff" stroke="#63b8ff" points="1022.66,-22.56 1012.62,-19.17 1018.36,-28.08 1022.66,-22.56"/>
</a>
</g>
</g>
</g>
</svg>
