<?xml version="1.0" encoding="UTF-8" standalone="no"?>
<!DOCTYPE svg PUBLIC "-//W3C//DTD SVG 1.1//EN"
 "http://www.w3.org/Graphics/SVG/1.1/DTD/svg11.dtd">
<!-- Generated by graphviz version 2.43.0 (0)
 -->
<!-- Title: src/libuvgvpccenc/mapGeneration/bgFillAttribute.cpp Pages: 1 -->
<!--zoomable 313 -->

<svg id="main" version="1.1" xmlns="http://www.w3.org/2000/svg" xmlns:xlink="http://www.w3.org/1999/xlink" xml:space="preserve" onload="init(evt)">
<style type="text/css"><![CDATA[
.node, .edge {opacity: 0.7;}
.node.selected, .edge.selected {opacity: 1;}
.edge:hover path { stroke: red; }
.edge:hover polygon { stroke: red; fill: red; }
]]></style>

<defs>
  <circle id="rim" cx="0" cy="0" r="7"/>
  <circle id="rim2" cx="0" cy="0" r="3.5"/>
  <g id="zoomPlus">
    <use xlink:href="#rim" fill="#404040"><set attributeName="fill" to="#808080" begin="zoomplus.mouseover" end="zoomplus.mouseout"/></use>
    <path d="M-4,0h8M0,-4v8" fill="none" stroke="white" stroke-width="1.5" pointer-events="none"/>
  </g>
  <g id="zoomMin">
    <use xlink:href="#rim" fill="#404040"><set attributeName="fill" to="#808080" begin="zoomminus.mouseover" end="zoomminus.mouseout"/></use>
    <path d="M-4,0h8" fill="none" stroke="white" stroke-width="1.5" pointer-events="none"/>
  </g>
  <g id="arrowUp" transform="translate(30 24)">
    <use xlink:href="#rim"/>
    <path pointer-events="none" fill="none" stroke="white" stroke-width="1.5" d="M0,-3.0v7 M-2.5,-0.5L0,-3.0L2.5,-0.5"/>
  </g>
  <g id="arrowRight" transform="rotate(90) translate(36 -43)">
    <use xlink:href="#rim"/>
    <path pointer-events="none" fill="none" stroke="white" stroke-width="1.5" d="M0,-3.0v7 M-2.5,-0.5L0,-3.0L2.5,-0.5"/>
  </g>
  <g id="arrowDown" transform="rotate(180) translate(-30 -48)">
    <use xlink:href="#rim"/>
    <path pointer-events="none" fill="none" stroke="white" stroke-width="1.5" d="M0,-3.0v7 M-2.5,-0.5L0,-3.0L2.5,-0.5"/>
  </g>
  <g id="arrowLeft" transform="rotate(270) translate(-36 17)">
    <use xlink:href="#rim"/>
    <path pointer-events="none" fill="none" stroke="white" stroke-width="1.5" d="M0,-3.0v7 M-2.5,-0.5L0,-3.0L2.5,-0.5"/>
  </g>
  <g id="resetDef">
    <use xlink:href="#rim2" fill="#404040"><set attributeName="fill" to="#808080" begin="reset.mouseover" end="reset.mouseout"/></use>
  </g>
</defs>
<script type="application/ecmascript">
var viewWidth = 1210;
var viewHeight = 313;
var sectionId = 'dynsection-0';
</script>
<script type="application/ecmascript" xlink:href="svg.min.js"/>
<svg id="graph" class="graph">
<g id="viewport">
<title>src/libuvgvpccenc/mapGeneration/bgFillAttribute.cpp</title>
<!-- Node1 -->
<g id="Node000001" class="node">
<title>Node1</title>
<g id="a_Node000001"><a xlink:title=" ">
<polygon fill="#999999" stroke="#666666" points="769.49,-305 587.49,-305 587.49,-275 769.49,-275 769.49,-305"/>
<text text-anchor="start" x="595.49" y="-293" font-family="Helvetica,sans-Serif" font-size="10.00">src/libuvgvpccenc/mapGeneration</text>
<text text-anchor="middle" x="678.49" y="-282" font-family="Helvetica,sans-Serif" font-size="10.00">/bgFillAttribute.cpp</text>
</a>
</g>
</g>
<!-- Node2 -->
<g id="Node000002" class="node">
<title>Node2</title>
<g id="a_Node000002"><a xlink:href="bgFillAttribute_8hpp.html" target="_top" xlink:title=" ">
<polygon fill="white" stroke="#666666" points="772.99,-239 665.99,-239 665.99,-220 772.99,-220 772.99,-239"/>
<text text-anchor="middle" x="719.49" y="-227" font-family="Helvetica,sans-Serif" font-size="10.00">bgFillAttribute.hpp</text>
</a>
</g>
</g>
<!-- Node1&#45;&gt;Node2 -->
<g id="edge1_Node000001_Node000002" class="edge">
<title>Node1&#45;&gt;Node2</title>
<g id="a_edge1_Node000001_Node000002"><a xlink:title=" ">
<path fill="none" stroke="#63b8ff" d="M688.42,-274.84C694.19,-266.61 701.5,-256.18 707.58,-247.51"/>
<polygon fill="#63b8ff" stroke="#63b8ff" points="710.48,-249.46 713.35,-239.27 704.74,-245.45 710.48,-249.46"/>
</a>
</g>
</g>
<!-- Node3 -->
<g id="Node000003" class="node">
<title>Node3</title>
<g id="a_Node000003"><a xlink:href="uvgvpcc_8hpp.html" target="_top" xlink:title=" ">
<polygon fill="white" stroke="#666666" points="750.49,-184 628.49,-184 628.49,-165 750.49,-165 750.49,-184"/>
<text text-anchor="middle" x="689.49" y="-172" font-family="Helvetica,sans-Serif" font-size="10.00">uvgvpcc/uvgvpcc.hpp</text>
</a>
</g>
</g>
<!-- Node1&#45;&gt;Node3 -->
<g id="edge45_Node000001_Node000003" class="edge">
<title>Node1&#45;&gt;Node3</title>
<g id="a_edge45_Node000001_Node000003"><a xlink:title=" ">
<path fill="none" stroke="#63b8ff" d="M668.71,-274.96C660.23,-261 650.22,-238.98 656.49,-220 659.95,-209.54 666.92,-199.53 673.57,-191.66"/>
<polygon fill="#63b8ff" stroke="#63b8ff" points="676.35,-193.8 680.48,-184.04 671.17,-189.1 676.35,-193.8"/>
</a>
</g>
</g>
<!-- Node4 -->
<g id="Node000004" class="node">
<title>Node4</title>
<g id="a_Node000004"><a xlink:title=" ">
<polygon fill="#e0e0e0" stroke="#999999" points="334.49,-74 292.49,-74 292.49,-55 334.49,-55 334.49,-74"/>
<text text-anchor="middle" x="313.49" y="-62" font-family="Helvetica,sans-Serif" font-size="10.00">array</text>
</a>
</g>
</g>
<!-- Node1&#45;&gt;Node4 -->
<g id="edge31_Node000001_Node000004" class="edge">
<title>Node1&#45;&gt;Node4</title>
<g id="a_edge31_Node000001_Node000004"><a xlink:title=" ">
<path fill="none" stroke="#63b8ff" d="M601.84,-274.95C521.18,-256.04 396.56,-214.4 327.49,-129 317.4,-116.52 314.2,-98.31 313.35,-84.59"/>
<polygon fill="#63b8ff" stroke="#63b8ff" points="316.84,-84.25 313.09,-74.35 309.84,-84.43 316.84,-84.25"/>
</a>
</g>
</g>
<!-- Node5 -->
<g id="Node000005" class="node">
<title>Node5</title>
<g id="a_Node000005"><a xlink:title=" ">
<polygon fill="#e0e0e0" stroke="#999999" points="1188.49,-129 1136.49,-129 1136.49,-110 1188.49,-110 1188.49,-129"/>
<text text-anchor="middle" x="1162.49" y="-117" font-family="Helvetica,sans-Serif" font-size="10.00">cassert</text>
</a>
</g>
</g>
<!-- Node1&#45;&gt;Node5 -->
<g id="edge32_Node000001_Node000005" class="edge">
<title>Node1&#45;&gt;Node5</title>
<g id="a_edge32_Node000001_Node000005"><a xlink:title=" ">
<path fill="none" stroke="#63b8ff" d="M718.93,-274.92C812.24,-242.44 1041.3,-162.69 1128.26,-132.42"/>
<polygon fill="#63b8ff" stroke="#63b8ff" points="1129.6,-135.66 1137.9,-129.06 1127.3,-129.05 1129.6,-135.66"/>
</a>
</g>
</g>
<!-- Node6 -->
<g id="Node000006" class="node">
<title>Node6</title>
<g id="a_Node000006"><a xlink:title=" ">
<polygon fill="#e0e0e0" stroke="#999999" points="230.99,-74 177.99,-74 177.99,-55 230.99,-55 230.99,-74"/>
<text text-anchor="middle" x="204.49" y="-62" font-family="Helvetica,sans-Serif" font-size="10.00">cstddef</text>
</a>
</g>
</g>
<!-- Node1&#45;&gt;Node6 -->
<g id="edge34_Node000001_Node000006" class="edge">
<title>Node1&#45;&gt;Node6</title>
<g id="a_edge34_Node000001_Node000006"><a xlink:title=" ">
<path fill="none" stroke="#63b8ff" d="M587.32,-286.95C453.93,-282.9 212.7,-271.24 132.49,-239 62.58,-210.9 33.83,-197.97 3.49,-129 0.09,-121.27 -1.79,-116.58 3.49,-110 23.69,-84.84 115.39,-73.03 167.68,-68.26"/>
<polygon fill="#63b8ff" stroke="#63b8ff" points="168.23,-71.73 177.89,-67.37 167.62,-64.75 168.23,-71.73"/>
</a>
</g>
</g>
<!-- Node7 -->
<g id="Node000007" class="node">
<title>Node7</title>
<g id="a_Node000007"><a xlink:title=" ">
<polygon fill="#e0e0e0" stroke="#999999" points="1006.49,-74 956.49,-74 956.49,-55 1006.49,-55 1006.49,-74"/>
<text text-anchor="middle" x="981.49" y="-62" font-family="Helvetica,sans-Serif" font-size="10.00">cstdint</text>
</a>
</g>
</g>
<!-- Node1&#45;&gt;Node7 -->
<g id="edge35_Node000001_Node000007" class="edge">
<title>Node1&#45;&gt;Node7</title>
<g id="a_edge35_Node000001_Node000007"><a xlink:title=" ">
<path fill="none" stroke="#63b8ff" d="M737.67,-274.98C867.87,-243.55 1169.81,-167.23 1197.49,-129 1202.45,-122.16 1202.83,-116.55 1197.49,-110 1175.11,-82.54 1072.2,-71.52 1016.89,-67.53"/>
<polygon fill="#63b8ff" stroke="#63b8ff" points="1017.04,-64.03 1006.83,-66.84 1016.57,-71.02 1017.04,-64.03"/>
</a>
</g>
</g>
<!-- Node14 -->
<g id="Node000014" class="node">
<title>Node14</title>
<g id="a_Node000014"><a xlink:title=" ">
<polygon fill="#e0e0e0" stroke="#999999" points="219.99,-129 172.99,-129 172.99,-110 219.99,-110 219.99,-129"/>
<text text-anchor="middle" x="196.49" y="-117" font-family="Helvetica,sans-Serif" font-size="10.00">vector</text>
</a>
</g>
</g>
<!-- Node1&#45;&gt;Node14 -->
<g id="edge38_Node000001_Node000014" class="edge">
<title>Node1&#45;&gt;Node14</title>
<g id="a_edge38_Node000001_Node000014"><a xlink:title=" ">
<path fill="none" stroke="#63b8ff" d="M587.29,-286.67C483.96,-282.51 323.29,-270.95 272.49,-239 252.98,-226.72 220.95,-168.18 205.45,-138.23"/>
<polygon fill="#63b8ff" stroke="#63b8ff" points="208.54,-136.59 200.87,-129.28 202.31,-139.78 208.54,-136.59"/>
</a>
</g>
</g>
<!-- Node24 -->
<g id="Node000024" class="node">
<title>Node24</title>
<g id="a_Node000024"><a xlink:title=" ">
<polygon fill="#e0e0e0" stroke="#999999" points="1068.49,-239 1004.49,-239 1004.49,-220 1068.49,-220 1068.49,-239"/>
<text text-anchor="middle" x="1036.49" y="-227" font-family="Helvetica,sans-Serif" font-size="10.00">algorithm</text>
</a>
</g>
</g>
<!-- Node1&#45;&gt;Node24 -->
<g id="edge30_Node000001_Node000024" class="edge">
<title>Node1&#45;&gt;Node24</title>
<g id="a_edge30_Node000001_Node000024"><a xlink:title=" ">
<path fill="none" stroke="#63b8ff" d="M769.72,-274.97C831.98,-265.25 916.3,-251.8 990.49,-239 991.75,-238.78 993.03,-238.56 994.32,-238.33"/>
<polygon fill="#63b8ff" stroke="#63b8ff" points="995.11,-241.75 1004.34,-236.54 993.88,-234.86 995.11,-241.75"/>
</a>
</g>
</g>
<!-- Node25 -->
<g id="Node000025" class="node">
<title>Node25</title>
<g id="a_Node000025"><a xlink:title=" ">
<polygon fill="#e0e0e0" stroke="#999999" points="1133.99,-239 1086.99,-239 1086.99,-220 1133.99,-220 1133.99,-239"/>
<text text-anchor="middle" x="1110.49" y="-227" font-family="Helvetica,sans-Serif" font-size="10.00">cmath</text>
</a>
</g>
</g>
<!-- Node1&#45;&gt;Node25 -->
<g id="edge33_Node000001_Node000025" class="edge">
<title>Node1&#45;&gt;Node25</title>
<g id="a_edge33_Node000001_Node000025"><a xlink:title=" ">
<path fill="none" stroke="#63b8ff" d="M769.73,-280.91C848.56,-273.14 965.64,-259.78 1076.74,-238.9"/>
<polygon fill="#63b8ff" stroke="#63b8ff" points="1077.61,-242.3 1086.78,-236.99 1076.3,-235.42 1077.61,-242.3"/>
</a>
</g>
</g>
<!-- Node26 -->
<g id="Node000026" class="node">
<title>Node26</title>
<g id="a_Node000026"><a xlink:title=" ">
<polygon fill="#e0e0e0" stroke="#999999" points="1202.49,-239 1152.49,-239 1152.49,-220 1202.49,-220 1202.49,-239"/>
<text text-anchor="middle" x="1177.49" y="-227" font-family="Helvetica,sans-Serif" font-size="10.00">cstring</text>
</a>
</g>
</g>
<!-- Node1&#45;&gt;Node26 -->
<g id="edge36_Node000001_Node000026" class="edge">
<title>Node1&#45;&gt;Node26</title>
<g id="a_edge36_Node000001_Node000026"><a xlink:title=" ">
<path fill="none" stroke="#63b8ff" d="M769.9,-282.91C861.75,-275.94 1007.46,-262.57 1142.23,-238.99"/>
<polygon fill="#63b8ff" stroke="#63b8ff" points="1143.09,-242.39 1152.33,-237.2 1141.87,-235.5 1143.09,-242.39"/>
</a>
</g>
</g>
<!-- Node27 -->
<g id="Node000027" class="node">
<title>Node27</title>
<g id="a_Node000027"><a xlink:title=" ">
<polygon fill="#e0e0e0" stroke="#999999" points="77.99,-129 12.99,-129 12.99,-110 77.99,-110 77.99,-129"/>
<text text-anchor="middle" x="45.49" y="-117" font-family="Helvetica,sans-Serif" font-size="10.00">stdexcept</text>
</a>
</g>
</g>
<!-- Node1&#45;&gt;Node27 -->
<g id="edge37_Node000001_Node000027" class="edge">
<title>Node1&#45;&gt;Node27</title>
<g id="a_edge37_Node000001_Node000027"><a xlink:title=" ">
<path fill="none" stroke="#63b8ff" d="M587.25,-288.96C488.78,-286.77 328.24,-276.89 195.49,-239 141.78,-223.67 123.43,-222 82.49,-184 68.93,-171.41 58.86,-152.71 52.68,-138.85"/>
<polygon fill="#63b8ff" stroke="#63b8ff" points="55.8,-137.26 48.71,-129.39 49.35,-139.97 55.8,-137.26"/>
</a>
</g>
</g>
<!-- Node28 -->
<g id="Node000028" class="node">
<title>Node28</title>
<g id="a_Node000028"><a xlink:href="parameters_8hpp.html" target="_top" xlink:title=" ">
<polygon fill="white" stroke="#666666" points="209.49,-184 91.49,-184 91.49,-165 209.49,-165 209.49,-184"/>
<text text-anchor="middle" x="150.49" y="-172" font-family="Helvetica,sans-Serif" font-size="10.00">utils/parameters.hpp</text>
</a>
</g>
</g>
<!-- Node1&#45;&gt;Node28 -->
<g id="edge39_Node000001_Node000028" class="edge">
<title>Node1&#45;&gt;Node28</title>
<g id="a_edge39_Node000001_Node000028"><a xlink:title=" ">
<path fill="none" stroke="#63b8ff" d="M587.49,-284.78C475.67,-278.56 293.08,-264.8 230.49,-239 204.77,-228.39 180.52,-206.93 165.6,-191.9"/>
<polygon fill="#63b8ff" stroke="#63b8ff" points="167.78,-189.11 158.33,-184.33 162.73,-193.96 167.78,-189.11"/>
</a>
</g>
</g>
<!-- Node2&#45;&gt;Node3 -->
<g id="edge2_Node000002_Node000003" class="edge">
<title>Node2&#45;&gt;Node3</title>
<g id="a_edge2_Node000002_Node000003"><a xlink:title=" ">
<path fill="none" stroke="#63b8ff" d="M714.54,-219.75C710.43,-212.49 704.47,-201.95 699.39,-192.98"/>
<polygon fill="#63b8ff" stroke="#63b8ff" points="702.33,-191.07 694.36,-184.09 696.24,-194.52 702.33,-191.07"/>
</a>
</g>
</g>
<!-- Node3&#45;&gt;Node4 -->
<g id="edge3_Node000003_Node000004" class="edge">
<title>Node3&#45;&gt;Node4</title>
<g id="a_edge3_Node000003_Node000004"><a xlink:title=" ">
<path fill="none" stroke="#63b8ff" d="M628.2,-172.04C542.6,-168.92 392.77,-159.19 348.49,-129 332.93,-118.39 323.6,-98.48 318.54,-83.77"/>
<polygon fill="#63b8ff" stroke="#63b8ff" points="321.87,-82.71 315.57,-74.19 315.18,-84.78 321.87,-82.71"/>
</a>
</g>
</g>
<!-- Node3&#45;&gt;Node5 -->
<g id="edge4_Node000003_Node000005" class="edge">
<title>Node3&#45;&gt;Node5</title>
<g id="a_edge4_Node000003_Node000005"><a xlink:title=" ">
<path fill="none" stroke="#63b8ff" d="M750.8,-168.32C849.64,-159.79 1040.97,-142.55 1126.33,-128.94"/>
<polygon fill="#63b8ff" stroke="#63b8ff" points="1126.91,-132.39 1136.2,-127.29 1125.76,-125.48 1126.91,-132.39"/>
</a>
</g>
</g>
<!-- Node3&#45;&gt;Node6 -->
<g id="edge5_Node000003_Node000006" class="edge">
<title>Node3&#45;&gt;Node6</title>
<g id="a_edge5_Node000003_Node000006"><a xlink:title=" ">
<path fill="none" stroke="#63b8ff" d="M628.24,-172.52C555.12,-169.88 429.89,-160.61 327.49,-129 289.79,-117.36 249.85,-94.53 226.05,-79.65"/>
<polygon fill="#63b8ff" stroke="#63b8ff" points="227.79,-76.61 217.47,-74.19 224.03,-82.51 227.79,-76.61"/>
</a>
</g>
</g>
<!-- Node3&#45;&gt;Node7 -->
<g id="edge6_Node000003_Node000007" class="edge">
<title>Node3&#45;&gt;Node7</title>
<g id="a_edge6_Node000003_Node000007"><a xlink:title=" ">
<path fill="none" stroke="#63b8ff" d="M750.55,-168.53C815.18,-162.27 911.97,-149.75 942.49,-129 958.51,-118.11 969.13,-98.25 975.19,-83.63"/>
<polygon fill="#63b8ff" stroke="#63b8ff" points="978.52,-84.7 978.8,-74.11 971.98,-82.22 978.52,-84.7"/>
</a>
</g>
</g>
<!-- Node8 -->
<g id="Node000008" class="node">
<title>Node8</title>
<g id="a_Node000008"><a xlink:title=" ">
<polygon fill="#e0e0e0" stroke="#999999" points="842.49,-19 782.49,-19 782.49,0 842.49,0 842.49,-19"/>
<text text-anchor="middle" x="812.49" y="-7" font-family="Helvetica,sans-Serif" font-size="10.00">iostream</text>
</a>
</g>
</g>
<!-- Node3&#45;&gt;Node8 -->
<g id="edge7_Node000003_Node000008" class="edge">
<title>Node3&#45;&gt;Node8</title>
<g id="a_edge7_Node000003_Node000008"><a xlink:title=" ">
<path fill="none" stroke="#63b8ff" d="M750.72,-168.1C802.68,-162.1 871.42,-150.31 888.49,-129 916.57,-93.95 865.2,-48.18 833.96,-25.12"/>
<polygon fill="#63b8ff" stroke="#63b8ff" points="835.93,-22.23 825.76,-19.25 831.85,-27.92 835.93,-22.23"/>
</a>
</g>
</g>
<!-- Node9 -->
<g id="Node000009" class="node">
<title>Node9</title>
<g id="a_Node000009"><a xlink:title=" ">
<polygon fill="#e0e0e0" stroke="#999999" points="1052.49,-129 994.49,-129 994.49,-110 1052.49,-110 1052.49,-129"/>
<text text-anchor="middle" x="1023.49" y="-117" font-family="Helvetica,sans-Serif" font-size="10.00">memory</text>
</a>
</g>
</g>
<!-- Node3&#45;&gt;Node9 -->
<g id="edge8_Node000003_Node000009" class="edge">
<title>Node3&#45;&gt;Node9</title>
<g id="a_edge8_Node000003_Node000009"><a xlink:title=" ">
<path fill="none" stroke="#63b8ff" d="M750.37,-164.98C809.33,-156.53 901.21,-142.89 980.49,-129 981.76,-128.78 983.04,-128.55 984.34,-128.31"/>
<polygon fill="#63b8ff" stroke="#63b8ff" points="985.2,-131.71 994.38,-126.43 983.91,-124.83 985.2,-131.71"/>
</a>
</g>
</g>
<!-- Node10 -->
<g id="Node000010" class="node">
<title>Node10</title>
<g id="a_Node000010"><a xlink:title=" ">
<polygon fill="#e0e0e0" stroke="#999999" points="1117.99,-129 1070.99,-129 1070.99,-110 1117.99,-110 1117.99,-129"/>
<text text-anchor="middle" x="1094.49" y="-117" font-family="Helvetica,sans-Serif" font-size="10.00">queue</text>
</a>
</g>
</g>
<!-- Node3&#45;&gt;Node10 -->
<g id="edge9_Node000003_Node000010" class="edge">
<title>Node3&#45;&gt;Node10</title>
<g id="a_edge9_Node000003_Node000010"><a xlink:title=" ">
<path fill="none" stroke="#63b8ff" d="M750.77,-168.69C822.71,-162.47 945.76,-150.1 1060.75,-128.89"/>
<polygon fill="#63b8ff" stroke="#63b8ff" points="1061.6,-132.29 1070.78,-127.01 1060.31,-125.41 1061.6,-132.29"/>
</a>
</g>
</g>
<!-- Node11 -->
<g id="Node000011" class="node">
<title>Node11</title>
<g id="a_Node000011"><a xlink:title=" ">
<polygon fill="#e0e0e0" stroke="#999999" points="580.99,-129 509.99,-129 509.99,-110 580.99,-110 580.99,-129"/>
<text text-anchor="middle" x="545.49" y="-117" font-family="Helvetica,sans-Serif" font-size="10.00">semaphore</text>
</a>
</g>
</g>
<!-- Node3&#45;&gt;Node11 -->
<g id="edge10_Node000003_Node000011" class="edge">
<title>Node3&#45;&gt;Node11</title>
<g id="a_edge10_Node000003_Node000011"><a xlink:title=" ">
<path fill="none" stroke="#63b8ff" d="M666.36,-164.98C642.67,-156.27 605.62,-142.63 578.79,-132.75"/>
<polygon fill="#63b8ff" stroke="#63b8ff" points="579.64,-129.34 569.05,-129.17 577.23,-135.91 579.64,-129.34"/>
</a>
</g>
</g>
<!-- Node12 -->
<g id="Node000012" class="node">
<title>Node12</title>
<g id="a_Node000012"><a xlink:title=" ">
<polygon fill="#e0e0e0" stroke="#999999" points="767.49,-74 711.49,-74 711.49,-55 767.49,-55 767.49,-74"/>
<text text-anchor="middle" x="739.49" y="-62" font-family="Helvetica,sans-Serif" font-size="10.00">sstream</text>
</a>
</g>
</g>
<!-- Node3&#45;&gt;Node12 -->
<g id="edge11_Node000003_Node000012" class="edge">
<title>Node3&#45;&gt;Node12</title>
<g id="a_edge11_Node000003_Node000012"><a xlink:title=" ">
<path fill="none" stroke="#63b8ff" d="M750.93,-166.6C797.73,-159.93 856.58,-148 871.49,-129 899.21,-93.68 825.92,-76.88 777.76,-69.85"/>
<polygon fill="#63b8ff" stroke="#63b8ff" points="777.99,-66.35 767.61,-68.45 777.04,-73.28 777.99,-66.35"/>
</a>
</g>
</g>
<!-- Node13 -->
<g id="Node000013" class="node">
<title>Node13</title>
<g id="a_Node000013"><a xlink:title=" ">
<polygon fill="#e0e0e0" stroke="#999999" points="369.49,-19 325.49,-19 325.49,0 369.49,0 369.49,-19"/>
<text text-anchor="middle" x="347.49" y="-7" font-family="Helvetica,sans-Serif" font-size="10.00">string</text>
</a>
</g>
</g>
<!-- Node3&#45;&gt;Node13 -->
<g id="edge12_Node000003_Node000013" class="edge">
<title>Node3&#45;&gt;Node13</title>
<g id="a_edge12_Node000003_Node000013"><a xlink:title=" ">
<path fill="none" stroke="#63b8ff" d="M628.22,-172.32C549.09,-169.54 417.27,-160.21 381.49,-129 352.69,-103.87 347.53,-56.14 347.04,-29.57"/>
<polygon fill="#63b8ff" stroke="#63b8ff" points="350.54,-29.31 347.07,-19.3 343.54,-29.29 350.54,-29.31"/>
</a>
</g>
</g>
<!-- Node3&#45;&gt;Node14 -->
<g id="edge13_Node000003_Node000014" class="edge">
<title>Node3&#45;&gt;Node14</title>
<g id="a_edge13_Node000003_Node000014"><a xlink:title=" ">
<path fill="none" stroke="#63b8ff" d="M628.47,-169.92C540.87,-164.23 374.58,-151.43 234.49,-129 233.03,-128.77 231.55,-128.51 230.04,-128.24"/>
<polygon fill="#63b8ff" stroke="#63b8ff" points="230.62,-124.78 220.12,-126.26 229.24,-131.65 230.62,-124.78"/>
</a>
</g>
</g>
<!-- Node15 -->
<g id="Node000015" class="node">
<title>Node15</title>
<g id="a_Node000015"><a xlink:title=" ">
<polygon fill="#e0e0e0" stroke="#999999" points="725.99,-129 598.99,-129 598.99,-110 725.99,-110 725.99,-129"/>
<text text-anchor="middle" x="662.49" y="-117" font-family="Helvetica,sans-Serif" font-size="10.00">../utils/parameters.hpp</text>
</a>
</g>
</g>
<!-- Node3&#45;&gt;Node15 -->
<g id="edge14_Node000003_Node000015" class="edge">
<title>Node3&#45;&gt;Node15</title>
<g id="a_edge14_Node000003_Node000015"><a xlink:title=" ">
<path fill="none" stroke="#63b8ff" d="M685.03,-164.75C681.38,-157.57 676.08,-147.18 671.55,-138.27"/>
<polygon fill="#63b8ff" stroke="#63b8ff" points="674.53,-136.41 666.87,-129.09 668.29,-139.59 674.53,-136.41"/>
</a>
</g>
</g>
<!-- Node16 -->
<g id="Node000016" class="node">
<title>Node16</title>
<g id="a_Node000016"><a xlink:title=" ">
<polygon fill="#e0e0e0" stroke="#999999" points="862.49,-129 744.49,-129 744.49,-110 862.49,-110 862.49,-129"/>
<text text-anchor="middle" x="803.49" y="-117" font-family="Helvetica,sans-Serif" font-size="10.00">../utils/constants.hpp</text>
</a>
</g>
</g>
<!-- Node3&#45;&gt;Node16 -->
<g id="edge15_Node000003_Node000016" class="edge">
<title>Node3&#45;&gt;Node16</title>
<g id="a_edge15_Node000003_Node000016"><a xlink:title=" ">
<path fill="none" stroke="#63b8ff" d="M707.81,-164.98C726.15,-156.46 754.6,-143.23 775.72,-133.41"/>
<polygon fill="#63b8ff" stroke="#63b8ff" points="777.25,-136.56 784.84,-129.17 774.3,-130.21 777.25,-136.56"/>
</a>
</g>
</g>
<!-- Node17 -->
<g id="Node000017" class="node">
<title>Node17</title>
<g id="a_Node000017"><a xlink:href="utils_8hpp.html" target="_top" xlink:title=" ">
<polygon fill="white" stroke="#666666" points="491.99,-129 390.99,-129 390.99,-110 491.99,-110 491.99,-129"/>
<text text-anchor="middle" x="441.49" y="-117" font-family="Helvetica,sans-Serif" font-size="10.00">uvgutils/utils.hpp</text>
</a>
</g>
</g>
<!-- Node3&#45;&gt;Node17 -->
<g id="edge16_Node000003_Node000017" class="edge">
<title>Node3&#45;&gt;Node17</title>
<g id="a_edge16_Node000003_Node000017"><a xlink:title=" ">
<path fill="none" stroke="#63b8ff" d="M649.65,-164.98C606.66,-155.8 538.12,-141.15 491.53,-131.19"/>
<polygon fill="#63b8ff" stroke="#63b8ff" points="492.16,-127.75 481.65,-129.08 490.7,-134.59 492.16,-127.75"/>
</a>
</g>
</g>
<!-- Node17&#45;&gt;Node4 -->
<g id="edge17_Node000017_Node000004" class="edge">
<title>Node17&#45;&gt;Node4</title>
<g id="a_edge17_Node000017_Node000004"><a xlink:title=" ">
<path fill="none" stroke="#63b8ff" d="M420.93,-109.98C400.06,-101.34 367.52,-87.87 343.72,-78.02"/>
<polygon fill="#63b8ff" stroke="#63b8ff" points="345.01,-74.76 334.43,-74.17 342.33,-81.23 345.01,-74.76"/>
</a>
</g>
</g>
<!-- Node17&#45;&gt;Node6 -->
<g id="edge18_Node000017_Node000006" class="edge">
<title>Node17&#45;&gt;Node6</title>
<g id="a_edge18_Node000017_Node000006"><a xlink:title=" ">
<path fill="none" stroke="#63b8ff" d="M403.42,-109.98C358.72,-99.99 285.11,-83.53 241.07,-73.68"/>
<polygon fill="#63b8ff" stroke="#63b8ff" points="241.6,-70.21 231.08,-71.45 240.07,-77.04 241.6,-70.21"/>
</a>
</g>
</g>
<!-- Node17&#45;&gt;Node7 -->
<g id="edge19_Node000017_Node000007" class="edge">
<title>Node17&#45;&gt;Node7</title>
<g id="a_edge19_Node000017_Node000007"><a xlink:title=" ">
<path fill="none" stroke="#63b8ff" d="M492,-111.05C494.87,-110.68 497.72,-110.33 500.49,-110 666.74,-90.35 866.17,-74.29 945.96,-68.17"/>
<polygon fill="#63b8ff" stroke="#63b8ff" points="946.7,-71.62 956.41,-67.37 946.17,-64.64 946.7,-71.62"/>
</a>
</g>
</g>
<!-- Node17&#45;&gt;Node12 -->
<g id="edge22_Node000017_Node000012" class="edge">
<title>Node17&#45;&gt;Node12</title>
<g id="a_edge22_Node000017_Node000012"><a xlink:title=" ">
<path fill="none" stroke="#63b8ff" d="M489.37,-109.98C548.42,-99.48 647.57,-81.85 701.6,-72.24"/>
<polygon fill="#63b8ff" stroke="#63b8ff" points="702.23,-75.68 711.46,-70.49 701,-68.79 702.23,-75.68"/>
</a>
</g>
</g>
<!-- Node18 -->
<g id="Node000018" class="node">
<title>Node18</title>
<g id="a_Node000018"><a xlink:title=" ">
<polygon fill="#e0e0e0" stroke="#999999" points="443.49,-19 387.49,-19 387.49,0 443.49,0 443.49,-19"/>
<text text-anchor="middle" x="415.49" y="-7" font-family="Helvetica,sans-Serif" font-size="10.00">iomanip</text>
</a>
</g>
</g>
<!-- Node17&#45;&gt;Node18 -->
<g id="edge20_Node000017_Node000018" class="edge">
<title>Node17&#45;&gt;Node18</title>
<g id="a_edge20_Node000017_Node000018"><a xlink:title=" ">
<path fill="none" stroke="#63b8ff" d="M438.39,-109.72C435.33,-100.81 430.65,-86.57 427.49,-74 423.77,-59.17 420.61,-42.13 418.47,-29.44"/>
<polygon fill="#63b8ff" stroke="#63b8ff" points="421.86,-28.51 416.8,-19.2 414.96,-29.63 421.86,-28.51"/>
</a>
</g>
</g>
<!-- Node19 -->
<g id="Node000019" class="node">
<title>Node19</title>
<g id="a_Node000019"><a xlink:title=" ">
<polygon fill="#e0e0e0" stroke="#999999" points="480.49,-74 436.49,-74 436.49,-55 480.49,-55 480.49,-74"/>
<text text-anchor="middle" x="458.49" y="-62" font-family="Helvetica,sans-Serif" font-size="10.00">limits</text>
</a>
</g>
</g>
<!-- Node17&#45;&gt;Node19 -->
<g id="edge21_Node000017_Node000019" class="edge">
<title>Node17&#45;&gt;Node19</title>
<g id="a_edge21_Node000017_Node000019"><a xlink:title=" ">
<path fill="none" stroke="#63b8ff" d="M444.3,-109.75C446.55,-102.72 449.79,-92.62 452.61,-83.84"/>
<polygon fill="#63b8ff" stroke="#63b8ff" points="456.02,-84.68 455.74,-74.09 449.35,-82.54 456.02,-84.68"/>
</a>
</g>
</g>
<!-- Node20 -->
<g id="Node000020" class="node">
<title>Node20</title>
<g id="a_Node000020"><a xlink:href="log_8hpp.html" target="_top" xlink:title=" ">
<polygon fill="white" stroke="#666666" points="551.99,-74 498.99,-74 498.99,-55 551.99,-55 551.99,-74"/>
<text text-anchor="middle" x="525.49" y="-62" font-family="Helvetica,sans-Serif" font-size="10.00">log.hpp</text>
</a>
</g>
</g>
<!-- Node17&#45;&gt;Node20 -->
<g id="edge23_Node000017_Node000020" class="edge">
<title>Node17&#45;&gt;Node20</title>
<g id="a_edge23_Node000017_Node000020"><a xlink:title=" ">
<path fill="none" stroke="#63b8ff" d="M454.99,-109.98C467.89,-101.84 487.6,-89.41 502.89,-79.76"/>
<polygon fill="#63b8ff" stroke="#63b8ff" points="505.16,-82.47 511.75,-74.17 501.43,-76.55 505.16,-82.47"/>
</a>
</g>
</g>
<!-- Node20&#45;&gt;Node8 -->
<g id="edge27_Node000020_Node000008" class="edge">
<title>Node20&#45;&gt;Node8</title>
<g id="a_edge27_Node000020_Node000008"><a xlink:title=" ">
<path fill="none" stroke="#63b8ff" d="M552.24,-58.56C602.78,-49.23 712.57,-28.95 772.13,-17.95"/>
<polygon fill="#63b8ff" stroke="#63b8ff" points="773.09,-21.34 782.29,-16.08 771.82,-14.45 773.09,-21.34"/>
</a>
</g>
</g>
<!-- Node20&#45;&gt;Node13 -->
<g id="edge29_Node000020_Node000013" class="edge">
<title>Node20&#45;&gt;Node13</title>
<g id="a_edge29_Node000020_Node000013"><a xlink:title=" ">
<path fill="none" stroke="#63b8ff" d="M498.84,-55.57C466.94,-46.07 413.55,-30.17 379.46,-20.02"/>
<polygon fill="#63b8ff" stroke="#63b8ff" points="380.13,-16.56 369.54,-17.07 378.13,-23.27 380.13,-16.56"/>
</a>
</g>
</g>
<!-- Node20&#45;&gt;Node18 -->
<g id="edge26_Node000020_Node000018" class="edge">
<title>Node20&#45;&gt;Node18</title>
<g id="a_edge26_Node000020_Node000018"><a xlink:title=" ">
<path fill="none" stroke="#63b8ff" d="M507.82,-54.98C490.2,-46.5 462.92,-33.35 442.57,-23.54"/>
<polygon fill="#63b8ff" stroke="#63b8ff" points="444.02,-20.36 433.49,-19.17 440.98,-26.66 444.02,-20.36"/>
</a>
</g>
</g>
<!-- Node21 -->
<g id="Node000021" class="node">
<title>Node21</title>
<g id="a_Node000021"><a xlink:title=" ">
<polygon fill="#e0e0e0" stroke="#999999" points="511.49,-19 461.49,-19 461.49,0 511.49,0 511.49,-19"/>
<text text-anchor="middle" x="486.49" y="-7" font-family="Helvetica,sans-Serif" font-size="10.00">chrono</text>
</a>
</g>
</g>
<!-- Node20&#45;&gt;Node21 -->
<g id="edge24_Node000020_Node000021" class="edge">
<title>Node20&#45;&gt;Node21</title>
<g id="a_edge24_Node000020_Node000021"><a xlink:title=" ">
<path fill="none" stroke="#63b8ff" d="M519.05,-54.75C513.6,-47.34 505.63,-36.5 498.94,-27.41"/>
<polygon fill="#63b8ff" stroke="#63b8ff" points="501.56,-25.07 492.81,-19.09 495.92,-29.22 501.56,-25.07"/>
</a>
</g>
</g>
<!-- Node22 -->
<g id="Node000022" class="node">
<title>Node22</title>
<g id="a_Node000022"><a xlink:title=" ">
<polygon fill="#e0e0e0" stroke="#999999" points="582.99,-19 529.99,-19 529.99,0 582.99,0 582.99,-19"/>
<text text-anchor="middle" x="556.49" y="-7" font-family="Helvetica,sans-Serif" font-size="10.00">cstdarg</text>
</a>
</g>
</g>
<!-- Node20&#45;&gt;Node22 -->
<g id="edge25_Node000020_Node000022" class="edge">
<title>Node20&#45;&gt;Node22</title>
<g id="a_edge25_Node000020_Node000022"><a xlink:title=" ">
<path fill="none" stroke="#63b8ff" d="M530.61,-54.75C534.86,-47.49 541.02,-36.95 546.27,-27.98"/>
<polygon fill="#63b8ff" stroke="#63b8ff" points="549.44,-29.49 551.47,-19.09 543.4,-25.95 549.44,-29.49"/>
</a>
</g>
</g>
<!-- Node23 -->
<g id="Node000023" class="node">
<title>Node23</title>
<g id="a_Node000023"><a xlink:title=" ">
<polygon fill="#e0e0e0" stroke="#999999" points="649.49,-19 601.49,-19 601.49,0 649.49,0 649.49,-19"/>
<text text-anchor="middle" x="625.49" y="-7" font-family="Helvetica,sans-Serif" font-size="10.00">mutex</text>
</a>
</g>
</g>
<!-- Node20&#45;&gt;Node23 -->
<g id="edge28_Node000020_Node000023" class="edge">
<title>Node20&#45;&gt;Node23</title>
<g id="a_edge28_Node000020_Node000023"><a xlink:title=" ">
<path fill="none" stroke="#63b8ff" d="M541.56,-54.98C557.36,-46.61 581.71,-33.7 600.12,-23.95"/>
<polygon fill="#63b8ff" stroke="#63b8ff" points="601.94,-26.95 609.13,-19.17 598.66,-20.76 601.94,-26.95"/>
</a>
</g>
</g>
<!-- Node28&#45;&gt;Node6 -->
<g id="edge40_Node000028_Node000006" class="edge">
<title>Node28&#45;&gt;Node6</title>
<g id="a_edge40_Node000028_Node000006"><a xlink:title=" ">
<path fill="none" stroke="#63b8ff" d="M150.81,-164.8C151.59,-152.1 154.26,-128.03 163.49,-110 169.08,-99.09 178.09,-88.88 186.25,-81"/>
<polygon fill="#63b8ff" stroke="#63b8ff" points="188.65,-83.54 193.66,-74.21 183.93,-78.38 188.65,-83.54"/>
</a>
</g>
</g>
<!-- Node28&#45;&gt;Node13 -->
<g id="edge42_Node000028_Node000013" class="edge">
<title>Node28&#45;&gt;Node13</title>
<g id="a_edge42_Node000028_Node000013"><a xlink:title=" ">
<path fill="none" stroke="#63b8ff" d="M148.72,-164.82C144.8,-142.87 137.99,-84.82 168.49,-55 189.15,-34.8 269.62,-20.97 315.32,-14.56"/>
<polygon fill="#63b8ff" stroke="#63b8ff" points="315.88,-18.02 325.32,-13.2 314.94,-11.08 315.88,-18.02"/>
</a>
</g>
</g>
<!-- Node28&#45;&gt;Node14 -->
<g id="edge43_Node000028_Node000014" class="edge">
<title>Node28&#45;&gt;Node14</title>
<g id="a_edge43_Node000028_Node000014"><a xlink:title=" ">
<path fill="none" stroke="#63b8ff" d="M158.09,-164.75C164.65,-157.18 174.32,-146.05 182.31,-136.84"/>
<polygon fill="#63b8ff" stroke="#63b8ff" points="185.13,-138.94 189.04,-129.09 179.84,-134.35 185.13,-138.94"/>
</a>
</g>
</g>
<!-- Node28&#45;&gt;Node17 -->
<g id="edge44_Node000028_Node000017" class="edge">
<title>Node28&#45;&gt;Node17</title>
<g id="a_edge44_Node000028_Node000017"><a xlink:title=" ">
<path fill="none" stroke="#63b8ff" d="M197.25,-164.98C248.22,-155.7 329.8,-140.84 384.49,-130.88"/>
<polygon fill="#63b8ff" stroke="#63b8ff" points="385.16,-134.32 394.37,-129.08 383.91,-127.43 385.16,-134.32"/>
</a>
</g>
</g>
<!-- Node28&#45;&gt;Node27 -->
<g id="edge41_Node000028_Node000027" class="edge">
<title>Node28&#45;&gt;Node27</title>
<g id="a_edge41_Node000028_Node000027"><a xlink:title=" ">
<path fill="none" stroke="#63b8ff" d="M133.62,-164.98C116.88,-156.54 91,-143.47 71.6,-133.68"/>
<polygon fill="#63b8ff" stroke="#63b8ff" points="73.17,-130.55 62.67,-129.17 70.02,-136.8 73.17,-130.55"/>
</a>
</g>
</g>
</g>
</svg>

<g id="navigator" transform="translate(0 0)" fill="#404254">
  <rect fill="#f2f5e9" fill-opacity="0.5" stroke="#606060" stroke-width=".5" x="0" y="0" width="60" height="60"/>
  <use id="zoomplus" xlink:href="#zoomPlus" x="17" y="9" onmousedown="handleZoom(evt,'in')"/>
  <use id="zoomminus" xlink:href="#zoomMin" x="42" y="9" onmousedown="handleZoom(evt,'out')"/>
  <use id="reset" xlink:href="#resetDef" x="30" y="36" onmousedown="handleReset()"/>
   <use id="arrowup" xlink:href="#arrowUp" x="0" y="0" onmousedown="handlePan(0,-1)"/>
  <use id="arrowright" xlink:href="#arrowRight" x="0" y="0" onmousedown="handlePan(1,0)"/>
  <use id="arrowdown" xlink:href="#arrowDown" x="0" y="0" onmousedown="handlePan(0,1)"/>
  <use id="arrowleft" xlink:href="#arrowLeft" x="0" y="0" onmousedown="handlePan(-1,0)"/>
</g>
<svg viewBox="0 0 15 15" width="100%" height="30px" preserveAspectRatio="xMaxYMin meet">
 <g id="arrow_out" transform="scale(0.3 0.3)">
  <a xlink:href="bgFillAttribute_8cpp__incl_org.svg" target="_base">
   <rect id="button" ry="5" rx="5" y="6" x="6" height="38" width="38"
        fill="#f2f5e9" fill-opacity="0.5" stroke="#606060" stroke-width="1.0"/>
   <path id="arrow"
     d="M 11.500037,31.436501 C 11.940474,20.09759 22.043105,11.32322 32.158766,21.979434 L 37.068811,17.246167 C 37.068811,17.246167 37.088388,32 37.088388,32 L 22.160133,31.978069 C 22.160133,31.978069 26.997745,27.140456 26.997745,27.140456 C 18.528582,18.264221 13.291696,25.230495 11.500037,31.436501 z"
     style="fill:#404040;"/>
  </a>
 </g>
</svg>

<style type='text/css'>
<![CDATA[
[data-mouse-over-selected='false'] { opacity: 0.7; }
[data-mouse-over-selected='true']  { opacity: 1.0; }
]]>
</style>
<script type="application/ecmascript"><![CDATA[
document.addEventListener('DOMContentLoaded', (event) => {
  highlightEdges();
  highlightAdjacentNodes();
});
]]></script>
</svg>
