<?xml version="1.0" encoding="UTF-8" standalone="no"?>
<!DOCTYPE svg PUBLIC "-//W3C//DTD SVG 1.1//EN"
 "http://www.w3.org/Graphics/SVG/1.1/DTD/svg11.dtd">
<!-- Generated by graphviz version 2.43.0 (0)
 -->
<!-- Title: src/libuvgvpccenc/mapGeneration/bgFillGeometry.cpp Pages: 1 -->
<svg width="1434pt" height="313pt"
 viewBox="0.00 0.00 1434.00 313.00" xmlns="http://www.w3.org/2000/svg" xmlns:xlink="http://www.w3.org/1999/xlink">
<g id="graph0" class="graph" transform="scale(1 1) rotate(0) translate(4 309)">
<title>src/libuvgvpccenc/mapGeneration/bgFillGeometry.cpp</title>
<!-- Node1 -->
<g id="Node000001" class="node">
<title>Node1</title>
<g id="a_Node000001"><a xlink:title=" ">
<polygon fill="#999999" stroke="#666666" points="1166,-305 984,-305 984,-275 1166,-275 1166,-305"/>
<text text-anchor="start" x="992" y="-293" font-family="Helvetica,sans-Serif" font-size="10.00">src/libuvgvpccenc/mapGeneration</text>
<text text-anchor="middle" x="1075" y="-282" font-family="Helvetica,sans-Serif" font-size="10.00">/bgFillGeometry.cpp</text>
</a>
</g>
</g>
<!-- Node2 -->
<g id="Node000002" class="node">
<title>Node2</title>
<g id="a_Node000002"><a xlink:title=" ">
<polygon fill="#e0e0e0" stroke="#999999" points="104,-129 40,-129 40,-110 104,-110 104,-129"/>
<text text-anchor="middle" x="72" y="-117" font-family="Helvetica,sans-Serif" font-size="10.00">algorithm</text>
</a>
</g>
</g>
<!-- Node1&#45;&gt;Node2 -->
<g id="edge1_Node000001_Node000002" class="edge">
<title>Node1&#45;&gt;Node2</title>
<g id="a_edge1_Node000001_Node000002"><a xlink:title=" ">
<path fill="none" stroke="#63b8ff" d="M984.94,-274.96C922.15,-265.1 836.43,-251.49 761,-239 515.9,-198.41 222.28,-146.97 114.41,-127.98"/>
<polygon fill="#63b8ff" stroke="#63b8ff" points="114.72,-124.48 104.26,-126.2 113.5,-131.38 114.72,-124.48"/>
</a>
</g>
</g>
<!-- Node3 -->
<g id="Node000003" class="node">
<title>Node3</title>
<g id="a_Node000003"><a xlink:title=" ">
<polygon fill="#e0e0e0" stroke="#999999" points="42,-74 0,-74 0,-55 42,-55 42,-74"/>
<text text-anchor="middle" x="21" y="-62" font-family="Helvetica,sans-Serif" font-size="10.00">array</text>
</a>
</g>
</g>
<!-- Node1&#45;&gt;Node3 -->
<g id="edge2_Node000001_Node000003" class="edge">
<title>Node1&#45;&gt;Node3</title>
<g id="a_edge2_Node000001_Node000003"><a xlink:title=" ">
<path fill="none" stroke="#63b8ff" d="M983.82,-287.02C764.18,-281.84 218.15,-266.37 140,-239 72.33,-215.3 45.11,-196.87 22,-129 17.11,-114.63 17.19,-97.35 18.31,-84.45"/>
<polygon fill="#63b8ff" stroke="#63b8ff" points="21.8,-84.75 19.46,-74.42 14.84,-83.95 21.8,-84.75"/>
</a>
</g>
</g>
<!-- Node4 -->
<g id="Node000004" class="node">
<title>Node4</title>
<g id="a_Node000004"><a xlink:title=" ">
<polygon fill="#e0e0e0" stroke="#999999" points="1292,-239 1240,-239 1240,-220 1292,-220 1292,-239"/>
<text text-anchor="middle" x="1266" y="-227" font-family="Helvetica,sans-Serif" font-size="10.00">cassert</text>
</a>
</g>
</g>
<!-- Node1&#45;&gt;Node4 -->
<g id="edge3_Node000001_Node000004" class="edge">
<title>Node1&#45;&gt;Node4</title>
<g id="a_edge3_Node000001_Node000004"><a xlink:title=" ">
<path fill="none" stroke="#63b8ff" d="M1120.75,-274.99C1154.16,-264.75 1198.85,-251.07 1229.8,-241.59"/>
<polygon fill="#63b8ff" stroke="#63b8ff" points="1231.19,-244.82 1239.73,-238.55 1229.14,-238.13 1231.19,-244.82"/>
</a>
</g>
</g>
<!-- Node5 -->
<g id="Node000005" class="node">
<title>Node5</title>
<g id="a_Node000005"><a xlink:title=" ">
<polygon fill="#e0e0e0" stroke="#999999" points="1357.5,-239 1310.5,-239 1310.5,-220 1357.5,-220 1357.5,-239"/>
<text text-anchor="middle" x="1334" y="-227" font-family="Helvetica,sans-Serif" font-size="10.00">cmath</text>
</a>
</g>
</g>
<!-- Node1&#45;&gt;Node5 -->
<g id="edge4_Node000001_Node000005" class="edge">
<title>Node1&#45;&gt;Node5</title>
<g id="a_edge4_Node000001_Node000005"><a xlink:title=" ">
<path fill="none" stroke="#63b8ff" d="M1141.39,-274.94C1184.12,-265.74 1241.07,-253.22 1300.32,-239.1"/>
<polygon fill="#63b8ff" stroke="#63b8ff" points="1301.32,-242.46 1310.23,-236.73 1299.69,-235.65 1301.32,-242.46"/>
</a>
</g>
</g>
<!-- Node6 -->
<g id="Node000006" class="node">
<title>Node6</title>
<g id="a_Node000006"><a xlink:title=" ">
<polygon fill="#e0e0e0" stroke="#999999" points="1108.5,-74 1055.5,-74 1055.5,-55 1108.5,-55 1108.5,-74"/>
<text text-anchor="middle" x="1082" y="-62" font-family="Helvetica,sans-Serif" font-size="10.00">cstddef</text>
</a>
</g>
</g>
<!-- Node1&#45;&gt;Node6 -->
<g id="edge5_Node000001_Node000006" class="edge">
<title>Node1&#45;&gt;Node6</title>
<g id="a_edge5_Node000001_Node000006"><a xlink:title=" ">
<path fill="none" stroke="#63b8ff" d="M1074.81,-274.99C1074.67,-261.05 1074.57,-239.04 1075,-220 1076.11,-171.16 1079.18,-113.71 1080.86,-84.55"/>
<polygon fill="#63b8ff" stroke="#63b8ff" points="1084.37,-84.4 1081.47,-74.21 1077.39,-83.98 1084.37,-84.4"/>
</a>
</g>
</g>
<!-- Node7 -->
<g id="Node000007" class="node">
<title>Node7</title>
<g id="a_Node000007"><a xlink:title=" ">
<polygon fill="#e0e0e0" stroke="#999999" points="157,-74 107,-74 107,-55 157,-55 157,-74"/>
<text text-anchor="middle" x="132" y="-62" font-family="Helvetica,sans-Serif" font-size="10.00">cstdint</text>
</a>
</g>
</g>
<!-- Node1&#45;&gt;Node7 -->
<g id="edge6_Node000001_Node000007" class="edge">
<title>Node1&#45;&gt;Node7</title>
<g id="a_edge6_Node000001_Node000007"><a xlink:title=" ">
<path fill="none" stroke="#63b8ff" d="M983.62,-279.71C897.42,-270.6 764.69,-255.68 650,-239 373.49,-198.78 210.01,-343.55 31,-129 8.68,-102.25 59.28,-83.24 96.62,-73.35"/>
<polygon fill="#63b8ff" stroke="#63b8ff" points="97.89,-76.64 106.73,-70.8 96.18,-69.85 97.89,-76.64"/>
</a>
</g>
</g>
<!-- Node8 -->
<g id="Node000008" class="node">
<title>Node8</title>
<g id="a_Node000008"><a xlink:title=" ">
<polygon fill="#e0e0e0" stroke="#999999" points="1426,-239 1376,-239 1376,-220 1426,-220 1426,-239"/>
<text text-anchor="middle" x="1401" y="-227" font-family="Helvetica,sans-Serif" font-size="10.00">cstring</text>
</a>
</g>
</g>
<!-- Node1&#45;&gt;Node8 -->
<g id="edge7_Node000001_Node000008" class="edge">
<title>Node1&#45;&gt;Node8</title>
<g id="a_edge7_Node000001_Node000008"><a xlink:title=" ">
<path fill="none" stroke="#63b8ff" d="M1166.09,-275.21C1221.26,-266.44 1293.25,-254.23 1365.59,-239.17"/>
<polygon fill="#63b8ff" stroke="#63b8ff" points="1366.73,-242.51 1375.8,-237.03 1365.29,-235.66 1366.73,-242.51"/>
</a>
</g>
</g>
<!-- Node9 -->
<g id="Node000009" class="node">
<title>Node9</title>
<g id="a_Node000009"><a xlink:title=" ">
<polygon fill="#e0e0e0" stroke="#999999" points="1140.5,-129 1093.5,-129 1093.5,-110 1140.5,-110 1140.5,-129"/>
<text text-anchor="middle" x="1117" y="-117" font-family="Helvetica,sans-Serif" font-size="10.00">vector</text>
</a>
</g>
</g>
<!-- Node1&#45;&gt;Node9 -->
<g id="edge8_Node000001_Node000009" class="edge">
<title>Node1&#45;&gt;Node9</title>
<g id="a_edge8_Node000001_Node000009"><a xlink:title=" ">
<path fill="none" stroke="#63b8ff" d="M1075.67,-274.9C1077.12,-251.53 1081.47,-203.52 1094,-165 1097.02,-155.71 1101.82,-146.01 1106.25,-138.04"/>
<polygon fill="#63b8ff" stroke="#63b8ff" points="1109.32,-139.73 1111.34,-129.33 1103.27,-136.2 1109.32,-139.73"/>
</a>
</g>
</g>
<!-- Node10 -->
<g id="Node000010" class="node">
<title>Node10</title>
<g id="a_Node000010"><a xlink:title=" ">
<polygon fill="#e0e0e0" stroke="#999999" points="1275.5,-129 1210.5,-129 1210.5,-110 1275.5,-110 1275.5,-129"/>
<text text-anchor="middle" x="1243" y="-117" font-family="Helvetica,sans-Serif" font-size="10.00">stdexcept</text>
</a>
</g>
</g>
<!-- Node1&#45;&gt;Node10 -->
<g id="edge9_Node000001_Node000010" class="edge">
<title>Node1&#45;&gt;Node10</title>
<g id="a_edge9_Node000001_Node000010"><a xlink:title=" ">
<path fill="none" stroke="#63b8ff" d="M1109.86,-274.94C1145.79,-258.58 1200.58,-228.06 1230,-184 1238.88,-170.69 1241.91,-152.58 1242.84,-139.1"/>
<polygon fill="#63b8ff" stroke="#63b8ff" points="1246.34,-139.2 1243.22,-129.08 1239.35,-138.94 1246.34,-139.2"/>
</a>
</g>
</g>
<!-- Node11 -->
<g id="Node000011" class="node">
<title>Node11</title>
<g id="a_Node000011"><a xlink:href="bgFillGeometry_8hpp.html" target="_top" xlink:title=" ">
<polygon fill="white" stroke="#666666" points="881.5,-239 770.5,-239 770.5,-220 881.5,-220 881.5,-239"/>
<text text-anchor="middle" x="826" y="-227" font-family="Helvetica,sans-Serif" font-size="10.00">bgFillGeometry.hpp</text>
</a>
</g>
</g>
<!-- Node1&#45;&gt;Node11 -->
<g id="edge10_Node000001_Node000011" class="edge">
<title>Node1&#45;&gt;Node11</title>
<g id="a_edge10_Node000001_Node000011"><a xlink:title=" ">
<path fill="none" stroke="#63b8ff" d="M1015.36,-274.99C971.46,-264.67 912.63,-250.85 872.25,-241.37"/>
<polygon fill="#63b8ff" stroke="#63b8ff" points="872.94,-237.93 862.41,-239.05 871.34,-244.75 872.94,-237.93"/>
</a>
</g>
</g>
<!-- Node29 -->
<g id="Node000029" class="node">
<title>Node29</title>
<g id="a_Node000029"><a xlink:href="parameters_8hpp.html" target="_top" xlink:title=" ">
<polygon fill="white" stroke="#666666" points="1221,-184 1103,-184 1103,-165 1221,-165 1221,-184"/>
<text text-anchor="middle" x="1162" y="-172" font-family="Helvetica,sans-Serif" font-size="10.00">utils/parameters.hpp</text>
</a>
</g>
</g>
<!-- Node1&#45;&gt;Node29 -->
<g id="edge39_Node000001_Node000029" class="edge">
<title>Node1&#45;&gt;Node29</title>
<g id="a_edge39_Node000001_Node000029"><a xlink:title=" ">
<path fill="none" stroke="#63b8ff" d="M1086.02,-274.63C1102.09,-253.65 1131.92,-214.75 1149.03,-192.42"/>
<polygon fill="#63b8ff" stroke="#63b8ff" points="1152,-194.3 1155.31,-184.23 1146.45,-190.04 1152,-194.3"/>
</a>
</g>
</g>
<!-- Node12 -->
<g id="Node000012" class="node">
<title>Node12</title>
<g id="a_Node000012"><a xlink:href="uvgvpcc_8hpp.html" target="_top" xlink:title=" ">
<polygon fill="white" stroke="#666666" points="767,-184 645,-184 645,-165 767,-165 767,-184"/>
<text text-anchor="middle" x="706" y="-172" font-family="Helvetica,sans-Serif" font-size="10.00">uvgvpcc/uvgvpcc.hpp</text>
</a>
</g>
</g>
<!-- Node11&#45;&gt;Node12 -->
<g id="edge11_Node000011_Node000012" class="edge">
<title>Node11&#45;&gt;Node12</title>
<g id="a_edge11_Node000011_Node000012"><a xlink:title=" ">
<path fill="none" stroke="#63b8ff" d="M806.72,-219.98C787.33,-211.42 757.19,-198.11 734.93,-188.28"/>
<polygon fill="#63b8ff" stroke="#63b8ff" points="736.19,-185.01 725.63,-184.17 733.36,-191.41 736.19,-185.01"/>
</a>
</g>
</g>
<!-- Node12&#45;&gt;Node2 -->
<g id="edge21_Node000012_Node000002" class="edge">
<title>Node12&#45;&gt;Node2</title>
<g id="a_edge21_Node000012_Node000002"><a xlink:title=" ">
<path fill="none" stroke="#63b8ff" d="M644.83,-171.03C537.72,-166.23 309.37,-153.85 118,-129 116.73,-128.84 115.45,-128.66 114.15,-128.47"/>
<polygon fill="#63b8ff" stroke="#63b8ff" points="114.52,-124.99 104.1,-126.89 113.43,-131.9 114.52,-124.99"/>
</a>
</g>
</g>
<!-- Node12&#45;&gt;Node6 -->
<g id="edge12_Node000012_Node000006" class="edge">
<title>Node12&#45;&gt;Node6</title>
<g id="a_edge12_Node000012_Node000006"><a xlink:title=" ">
<path fill="none" stroke="#63b8ff" d="M767.16,-173.56C829.07,-171.54 926.35,-162.58 1003,-129 1028.3,-117.92 1052.27,-96.56 1067.03,-81.69"/>
<polygon fill="#63b8ff" stroke="#63b8ff" points="1069.82,-83.83 1074.23,-74.2 1064.78,-78.98 1069.82,-83.83"/>
</a>
</g>
</g>
<!-- Node12&#45;&gt;Node7 -->
<g id="edge13_Node000012_Node000007" class="edge">
<title>Node12&#45;&gt;Node7</title>
<g id="a_edge13_Node000012_Node000007"><a xlink:title=" ">
<path fill="none" stroke="#63b8ff" d="M644.88,-172.44C508.57,-169.53 188.72,-159.51 151,-129 137.87,-118.38 133.55,-99.07 132.25,-84.52"/>
<polygon fill="#63b8ff" stroke="#63b8ff" points="135.73,-83.95 131.75,-74.13 128.74,-84.29 135.73,-83.95"/>
</a>
</g>
</g>
<!-- Node12&#45;&gt;Node9 -->
<g id="edge20_Node000012_Node000009" class="edge">
<title>Node12&#45;&gt;Node9</title>
<g id="a_edge20_Node000012_Node000009"><a xlink:title=" ">
<path fill="none" stroke="#63b8ff" d="M767.09,-165.62C854.93,-154.29 1013.96,-133.79 1083.23,-124.85"/>
<polygon fill="#63b8ff" stroke="#63b8ff" points="1083.7,-128.32 1093.17,-123.57 1082.8,-121.38 1083.7,-128.32"/>
</a>
</g>
</g>
<!-- Node13 -->
<g id="Node000013" class="node">
<title>Node13</title>
<g id="a_Node000013"><a xlink:title=" ">
<polygon fill="#e0e0e0" stroke="#999999" points="783,-19 723,-19 723,0 783,0 783,-19"/>
<text text-anchor="middle" x="753" y="-7" font-family="Helvetica,sans-Serif" font-size="10.00">iostream</text>
</a>
</g>
</g>
<!-- Node12&#45;&gt;Node13 -->
<g id="edge14_Node000012_Node000013" class="edge">
<title>Node12&#45;&gt;Node13</title>
<g id="a_edge14_Node000012_Node000013"><a xlink:title=" ">
<path fill="none" stroke="#63b8ff" d="M729.78,-164.92C745.43,-157.89 764.67,-146.25 774,-129 778.02,-121.57 775.35,-118.34 774,-110 771.3,-93.35 765.87,-90.42 762,-74 758.52,-59.23 756.2,-42.19 754.78,-29.48"/>
<polygon fill="#63b8ff" stroke="#63b8ff" points="758.23,-28.81 753.73,-19.22 751.27,-29.52 758.23,-28.81"/>
</a>
</g>
</g>
<!-- Node14 -->
<g id="Node000014" class="node">
<title>Node14</title>
<g id="a_Node000014"><a xlink:title=" ">
<polygon fill="#e0e0e0" stroke="#999999" points="218,-129 160,-129 160,-110 218,-110 218,-129"/>
<text text-anchor="middle" x="189" y="-117" font-family="Helvetica,sans-Serif" font-size="10.00">memory</text>
</a>
</g>
</g>
<!-- Node12&#45;&gt;Node14 -->
<g id="edge15_Node000012_Node000014" class="edge">
<title>Node12&#45;&gt;Node14</title>
<g id="a_edge15_Node000012_Node000014"><a xlink:title=" ">
<path fill="none" stroke="#63b8ff" d="M644.82,-170.32C555.42,-165.12 383.7,-153.04 228.58,-129.06"/>
<polygon fill="#63b8ff" stroke="#63b8ff" points="228.81,-125.55 218.39,-127.46 227.73,-132.47 228.81,-125.55"/>
</a>
</g>
</g>
<!-- Node15 -->
<g id="Node000015" class="node">
<title>Node15</title>
<g id="a_Node000015"><a xlink:title=" ">
<polygon fill="#e0e0e0" stroke="#999999" points="283.5,-129 236.5,-129 236.5,-110 283.5,-110 283.5,-129"/>
<text text-anchor="middle" x="260" y="-117" font-family="Helvetica,sans-Serif" font-size="10.00">queue</text>
</a>
</g>
</g>
<!-- Node12&#45;&gt;Node15 -->
<g id="edge16_Node000012_Node000015" class="edge">
<title>Node12&#45;&gt;Node15</title>
<g id="a_edge16_Node000012_Node000015"><a xlink:title=" ">
<path fill="none" stroke="#63b8ff" d="M644.9,-169.86C565.81,-164.5 423.66,-152.65 293.8,-129.09"/>
<polygon fill="#63b8ff" stroke="#63b8ff" points="294.14,-125.59 283.67,-127.22 292.87,-132.47 294.14,-125.59"/>
</a>
</g>
</g>
<!-- Node16 -->
<g id="Node000016" class="node">
<title>Node16</title>
<g id="a_Node000016"><a xlink:title=" ">
<polygon fill="#e0e0e0" stroke="#999999" points="372.5,-129 301.5,-129 301.5,-110 372.5,-110 372.5,-129"/>
<text text-anchor="middle" x="337" y="-117" font-family="Helvetica,sans-Serif" font-size="10.00">semaphore</text>
</a>
</g>
</g>
<!-- Node12&#45;&gt;Node16 -->
<g id="edge17_Node000012_Node000016" class="edge">
<title>Node12&#45;&gt;Node16</title>
<g id="a_edge17_Node000012_Node000016"><a xlink:title=" ">
<path fill="none" stroke="#63b8ff" d="M644.75,-166.13C581.48,-158.29 479.63,-145.02 382.5,-129.18"/>
<polygon fill="#63b8ff" stroke="#63b8ff" points="382.95,-125.7 372.51,-127.53 381.81,-132.61 382.95,-125.7"/>
</a>
</g>
</g>
<!-- Node17 -->
<g id="Node000017" class="node">
<title>Node17</title>
<g id="a_Node000017"><a xlink:title=" ">
<polygon fill="#e0e0e0" stroke="#999999" points="827,-74 771,-74 771,-55 827,-55 827,-74"/>
<text text-anchor="middle" x="799" y="-62" font-family="Helvetica,sans-Serif" font-size="10.00">sstream</text>
</a>
</g>
</g>
<!-- Node12&#45;&gt;Node17 -->
<g id="edge18_Node000012_Node000017" class="edge">
<title>Node12&#45;&gt;Node17</title>
<g id="a_edge18_Node000012_Node000017"><a xlink:title=" ">
<path fill="none" stroke="#63b8ff" d="M752.16,-165C772.6,-158.69 794.75,-147.78 807,-129 815.72,-115.63 812.14,-97.28 807.31,-83.74"/>
<polygon fill="#63b8ff" stroke="#63b8ff" points="810.4,-82.05 803.39,-74.1 803.92,-84.69 810.4,-82.05"/>
</a>
</g>
</g>
<!-- Node18 -->
<g id="Node000018" class="node">
<title>Node18</title>
<g id="a_Node000018"><a xlink:title=" ">
<polygon fill="#e0e0e0" stroke="#999999" points="1130,-19 1086,-19 1086,0 1130,0 1130,-19"/>
<text text-anchor="middle" x="1108" y="-7" font-family="Helvetica,sans-Serif" font-size="10.00">string</text>
</a>
</g>
</g>
<!-- Node12&#45;&gt;Node18 -->
<g id="edge19_Node000012_Node000018" class="edge">
<title>Node12&#45;&gt;Node18</title>
<g id="a_edge19_Node000012_Node000018"><a xlink:title=" ">
<path fill="none" stroke="#63b8ff" d="M767.07,-173.3C822.71,-170.84 905.75,-161.34 970,-129 1012.4,-107.66 1010.63,-85.5 1047,-55 1059.65,-44.39 1074.61,-33.46 1086.55,-25.08"/>
<polygon fill="#63b8ff" stroke="#63b8ff" points="1088.78,-27.79 1095,-19.22 1084.79,-22.04 1088.78,-27.79"/>
</a>
</g>
</g>
<!-- Node19 -->
<g id="Node000019" class="node">
<title>Node19</title>
<g id="a_Node000019"><a xlink:title=" ">
<polygon fill="#e0e0e0" stroke="#999999" points="483.5,-129 390.5,-129 390.5,-110 483.5,-110 483.5,-129"/>
<text text-anchor="middle" x="437" y="-117" font-family="Helvetica,sans-Serif" font-size="10.00">unordered_map</text>
</a>
</g>
</g>
<!-- Node12&#45;&gt;Node19 -->
<g id="edge22_Node000012_Node000019" class="edge">
<title>Node12&#45;&gt;Node19</title>
<g id="a_edge22_Node000012_Node000019"><a xlink:title=" ">
<path fill="none" stroke="#63b8ff" d="M662.78,-164.98C615.96,-155.76 541.19,-141.03 490.64,-131.07"/>
<polygon fill="#63b8ff" stroke="#63b8ff" points="491.05,-127.58 480.56,-129.08 489.69,-134.45 491.05,-127.58"/>
</a>
</g>
</g>
<!-- Node20 -->
<g id="Node000020" class="node">
<title>Node20</title>
<g id="a_Node000020"><a xlink:title=" ">
<polygon fill="#e0e0e0" stroke="#999999" points="628.5,-129 501.5,-129 501.5,-110 628.5,-110 628.5,-129"/>
<text text-anchor="middle" x="565" y="-117" font-family="Helvetica,sans-Serif" font-size="10.00">../utils/parameters.hpp</text>
</a>
</g>
</g>
<!-- Node12&#45;&gt;Node20 -->
<g id="edge23_Node000012_Node000020" class="edge">
<title>Node12&#45;&gt;Node20</title>
<g id="a_edge23_Node000012_Node000020"><a xlink:title=" ">
<path fill="none" stroke="#63b8ff" d="M683.35,-164.98C660.15,-156.27 623.88,-142.63 597.6,-132.75"/>
<polygon fill="#63b8ff" stroke="#63b8ff" points="598.66,-129.41 588.07,-129.17 596.2,-135.97 598.66,-129.41"/>
</a>
</g>
</g>
<!-- Node21 -->
<g id="Node000021" class="node">
<title>Node21</title>
<g id="a_Node000021"><a xlink:title=" ">
<polygon fill="#e0e0e0" stroke="#999999" points="765,-129 647,-129 647,-110 765,-110 765,-129"/>
<text text-anchor="middle" x="706" y="-117" font-family="Helvetica,sans-Serif" font-size="10.00">../utils/constants.hpp</text>
</a>
</g>
</g>
<!-- Node12&#45;&gt;Node21 -->
<g id="edge24_Node000012_Node000021" class="edge">
<title>Node12&#45;&gt;Node21</title>
<g id="a_edge24_Node000012_Node000021"><a xlink:title=" ">
<path fill="none" stroke="#63b8ff" d="M706,-164.75C706,-157.8 706,-147.85 706,-139.13"/>
<polygon fill="#63b8ff" stroke="#63b8ff" points="709.5,-139.09 706,-129.09 702.5,-139.09 709.5,-139.09"/>
</a>
</g>
</g>
<!-- Node22 -->
<g id="Node000022" class="node">
<title>Node22</title>
<g id="a_Node000022"><a xlink:href="utils_8hpp.html" target="_top" xlink:title=" ">
<polygon fill="white" stroke="#666666" points="960.5,-129 859.5,-129 859.5,-110 960.5,-110 960.5,-129"/>
<text text-anchor="middle" x="910" y="-117" font-family="Helvetica,sans-Serif" font-size="10.00">uvgutils/utils.hpp</text>
</a>
</g>
</g>
<!-- Node12&#45;&gt;Node22 -->
<g id="edge25_Node000012_Node000022" class="edge">
<title>Node12&#45;&gt;Node22</title>
<g id="a_edge25_Node000012_Node000022"><a xlink:title=" ">
<path fill="none" stroke="#63b8ff" d="M738.78,-164.98C773.62,-155.93 828.87,-141.58 867.14,-131.64"/>
<polygon fill="#63b8ff" stroke="#63b8ff" points="868.17,-134.98 876.97,-129.08 866.41,-128.21 868.17,-134.98"/>
</a>
</g>
</g>
<!-- Node22&#45;&gt;Node3 -->
<g id="edge26_Node000022_Node000003" class="edge">
<title>Node22&#45;&gt;Node3</title>
<g id="a_edge26_Node000022_Node000003"><a xlink:title=" ">
<path fill="none" stroke="#63b8ff" d="M859.31,-115.22C833.73,-113.59 802.22,-111.63 774,-110 473.63,-92.62 397.87,-98.52 98,-74 82.94,-72.77 66.27,-70.98 52.3,-69.36"/>
<polygon fill="#63b8ff" stroke="#63b8ff" points="52.55,-65.87 42.21,-68.17 51.73,-72.82 52.55,-65.87"/>
</a>
</g>
</g>
<!-- Node22&#45;&gt;Node6 -->
<g id="edge27_Node000022_Node000006" class="edge">
<title>Node22&#45;&gt;Node6</title>
<g id="a_edge27_Node000022_Node000006"><a xlink:title=" ">
<path fill="none" stroke="#63b8ff" d="M937.63,-109.98C966.85,-100.98 1013.09,-86.73 1045.34,-76.8"/>
<polygon fill="#63b8ff" stroke="#63b8ff" points="1046.76,-80.02 1055.28,-73.73 1044.7,-73.33 1046.76,-80.02"/>
</a>
</g>
</g>
<!-- Node22&#45;&gt;Node7 -->
<g id="edge28_Node000022_Node000007" class="edge">
<title>Node22&#45;&gt;Node7</title>
<g id="a_edge28_Node000022_Node000007"><a xlink:title=" ">
<path fill="none" stroke="#63b8ff" d="M859.25,-115.04C712.88,-105.07 292.37,-76.43 167.42,-67.91"/>
<polygon fill="#63b8ff" stroke="#63b8ff" points="167.48,-64.41 157.27,-67.22 167,-71.39 167.48,-64.41"/>
</a>
</g>
</g>
<!-- Node22&#45;&gt;Node17 -->
<g id="edge31_Node000022_Node000017" class="edge">
<title>Node22&#45;&gt;Node17</title>
<g id="a_edge31_Node000022_Node000017"><a xlink:title=" ">
<path fill="none" stroke="#63b8ff" d="M892.17,-109.98C874.39,-101.5 846.85,-88.35 826.32,-78.54"/>
<polygon fill="#63b8ff" stroke="#63b8ff" points="827.69,-75.32 817.16,-74.17 824.67,-81.64 827.69,-75.32"/>
</a>
</g>
</g>
<!-- Node23 -->
<g id="Node000023" class="node">
<title>Node23</title>
<g id="a_Node000023"><a xlink:title=" ">
<polygon fill="#e0e0e0" stroke="#999999" points="862,-19 806,-19 806,0 862,0 862,-19"/>
<text text-anchor="middle" x="834" y="-7" font-family="Helvetica,sans-Serif" font-size="10.00">iomanip</text>
</a>
</g>
</g>
<!-- Node22&#45;&gt;Node23 -->
<g id="edge29_Node000022_Node000023" class="edge">
<title>Node22&#45;&gt;Node23</title>
<g id="a_edge29_Node000022_Node000023"><a xlink:title=" ">
<path fill="none" stroke="#63b8ff" d="M902.78,-109.82C895.52,-100.98 884.14,-86.8 875,-74 864.19,-58.85 852.77,-40.99 844.74,-28.08"/>
<polygon fill="#63b8ff" stroke="#63b8ff" points="847.55,-25.97 839.32,-19.3 841.59,-29.65 847.55,-25.97"/>
</a>
</g>
</g>
<!-- Node24 -->
<g id="Node000024" class="node">
<title>Node24</title>
<g id="a_Node000024"><a xlink:title=" ">
<polygon fill="#e0e0e0" stroke="#999999" points="999,-74 955,-74 955,-55 999,-55 999,-74"/>
<text text-anchor="middle" x="977" y="-62" font-family="Helvetica,sans-Serif" font-size="10.00">limits</text>
</a>
</g>
</g>
<!-- Node22&#45;&gt;Node24 -->
<g id="edge30_Node000022_Node000024" class="edge">
<title>Node22&#45;&gt;Node24</title>
<g id="a_edge30_Node000022_Node000024"><a xlink:title=" ">
<path fill="none" stroke="#63b8ff" d="M920.76,-109.98C930.77,-102.07 945.89,-90.11 957.93,-80.58"/>
<polygon fill="#63b8ff" stroke="#63b8ff" points="960.37,-83.12 966.04,-74.17 956.03,-77.63 960.37,-83.12"/>
</a>
</g>
</g>
<!-- Node25 -->
<g id="Node000025" class="node">
<title>Node25</title>
<g id="a_Node000025"><a xlink:href="log_8hpp.html" target="_top" xlink:title=" ">
<polygon fill="white" stroke="#666666" points="936.5,-74 883.5,-74 883.5,-55 936.5,-55 936.5,-74"/>
<text text-anchor="middle" x="910" y="-62" font-family="Helvetica,sans-Serif" font-size="10.00">log.hpp</text>
</a>
</g>
</g>
<!-- Node22&#45;&gt;Node25 -->
<g id="edge32_Node000022_Node000025" class="edge">
<title>Node22&#45;&gt;Node25</title>
<g id="a_edge32_Node000022_Node000025"><a xlink:title=" ">
<path fill="none" stroke="#63b8ff" d="M910,-109.75C910,-102.8 910,-92.85 910,-84.13"/>
<polygon fill="#63b8ff" stroke="#63b8ff" points="913.5,-84.09 910,-74.09 906.5,-84.09 913.5,-84.09"/>
</a>
</g>
</g>
<!-- Node25&#45;&gt;Node13 -->
<g id="edge36_Node000025_Node000013" class="edge">
<title>Node25&#45;&gt;Node13</title>
<g id="a_edge36_Node000025_Node000013"><a xlink:title=" ">
<path fill="none" stroke="#63b8ff" d="M884.78,-54.98C858.64,-46.16 817.6,-32.31 788.27,-22.41"/>
<polygon fill="#63b8ff" stroke="#63b8ff" points="789.02,-18.96 778.42,-19.08 786.78,-25.6 789.02,-18.96"/>
</a>
</g>
</g>
<!-- Node25&#45;&gt;Node18 -->
<g id="edge38_Node000025_Node000018" class="edge">
<title>Node25&#45;&gt;Node18</title>
<g id="a_edge38_Node000025_Node000018"><a xlink:title=" ">
<path fill="none" stroke="#63b8ff" d="M936.63,-56.47C967.73,-48.24 1020.99,-34.11 1076.06,-19.24"/>
<polygon fill="#63b8ff" stroke="#63b8ff" points="1077.25,-22.54 1085.99,-16.56 1075.42,-15.79 1077.25,-22.54"/>
</a>
</g>
</g>
<!-- Node25&#45;&gt;Node23 -->
<g id="edge35_Node000025_Node000023" class="edge">
<title>Node25&#45;&gt;Node23</title>
<g id="a_edge35_Node000025_Node000023"><a xlink:title=" ">
<path fill="none" stroke="#63b8ff" d="M897.79,-54.98C886.22,-46.92 868.62,-34.65 854.84,-25.03"/>
<polygon fill="#63b8ff" stroke="#63b8ff" points="856.64,-22.02 846.43,-19.17 852.63,-27.76 856.64,-22.02"/>
</a>
</g>
</g>
<!-- Node26 -->
<g id="Node000026" class="node">
<title>Node26</title>
<g id="a_Node000026"><a xlink:title=" ">
<polygon fill="#e0e0e0" stroke="#999999" points="996,-19 946,-19 946,0 996,0 996,-19"/>
<text text-anchor="middle" x="971" y="-7" font-family="Helvetica,sans-Serif" font-size="10.00">chrono</text>
</a>
</g>
</g>
<!-- Node25&#45;&gt;Node26 -->
<g id="edge33_Node000025_Node000026" class="edge">
<title>Node25&#45;&gt;Node26</title>
<g id="a_edge33_Node000025_Node000026"><a xlink:title=" ">
<path fill="none" stroke="#63b8ff" d="M919.8,-54.98C928.82,-47.15 942.41,-35.34 953.32,-25.86"/>
<polygon fill="#63b8ff" stroke="#63b8ff" points="955.77,-28.37 961.02,-19.17 951.18,-23.09 955.77,-28.37"/>
</a>
</g>
</g>
<!-- Node27 -->
<g id="Node000027" class="node">
<title>Node27</title>
<g id="a_Node000027"><a xlink:title=" ">
<polygon fill="#e0e0e0" stroke="#999999" points="1067.5,-19 1014.5,-19 1014.5,0 1067.5,0 1067.5,-19"/>
<text text-anchor="middle" x="1041" y="-7" font-family="Helvetica,sans-Serif" font-size="10.00">cstdarg</text>
</a>
</g>
</g>
<!-- Node25&#45;&gt;Node27 -->
<g id="edge34_Node000025_Node000027" class="edge">
<title>Node25&#45;&gt;Node27</title>
<g id="a_edge34_Node000025_Node000027"><a xlink:title=" ">
<path fill="none" stroke="#63b8ff" d="M931.05,-54.98C952.41,-46.34 985.7,-32.87 1010.06,-23.02"/>
<polygon fill="#63b8ff" stroke="#63b8ff" points="1011.61,-26.17 1019.57,-19.17 1008.99,-19.68 1011.61,-26.17"/>
</a>
</g>
</g>
<!-- Node28 -->
<g id="Node000028" class="node">
<title>Node28</title>
<g id="a_Node000028"><a xlink:title=" ">
<polygon fill="#e0e0e0" stroke="#999999" points="928,-19 880,-19 880,0 928,0 928,-19"/>
<text text-anchor="middle" x="904" y="-7" font-family="Helvetica,sans-Serif" font-size="10.00">mutex</text>
</a>
</g>
</g>
<!-- Node25&#45;&gt;Node28 -->
<g id="edge37_Node000025_Node000028" class="edge">
<title>Node25&#45;&gt;Node28</title>
<g id="a_edge37_Node000025_Node000028"><a xlink:title=" ">
<path fill="none" stroke="#63b8ff" d="M909.01,-54.75C908.22,-47.8 907.1,-37.85 906.11,-29.13"/>
<polygon fill="#63b8ff" stroke="#63b8ff" points="909.58,-28.63 904.97,-19.09 902.62,-29.42 909.58,-28.63"/>
</a>
</g>
</g>
<!-- Node29&#45;&gt;Node9 -->
<g id="edge42_Node000029_Node000009" class="edge">
<title>Node29&#45;&gt;Node9</title>
<g id="a_edge42_Node000029_Node000009"><a xlink:title=" ">
<path fill="none" stroke="#63b8ff" d="M1154.57,-164.75C1148.15,-157.18 1138.69,-146.05 1130.88,-136.84"/>
<polygon fill="#63b8ff" stroke="#63b8ff" points="1133.43,-134.45 1124.29,-129.09 1128.1,-138.98 1133.43,-134.45"/>
</a>
</g>
</g>
<!-- Node29&#45;&gt;Node10 -->
<g id="edge40_Node000029_Node000010" class="edge">
<title>Node29&#45;&gt;Node10</title>
<g id="a_edge40_Node000029_Node000010"><a xlink:title=" ">
<path fill="none" stroke="#63b8ff" d="M1175.01,-164.98C1187.46,-156.84 1206.46,-144.41 1221.21,-134.76"/>
<polygon fill="#63b8ff" stroke="#63b8ff" points="1223.3,-137.57 1229.75,-129.17 1219.46,-131.72 1223.3,-137.57"/>
</a>
</g>
</g>
<!-- Node29&#45;&gt;Node18 -->
<g id="edge41_Node000029_Node000018" class="edge">
<title>Node29&#45;&gt;Node18</title>
<g id="a_edge41_Node000029_Node000018"><a xlink:title=" ">
<path fill="none" stroke="#63b8ff" d="M1160.94,-164.73C1159.32,-152.35 1155.77,-129.12 1150,-110 1141.09,-80.48 1126.3,-47.83 1116.86,-28.25"/>
<polygon fill="#63b8ff" stroke="#63b8ff" points="1119.89,-26.49 1112.35,-19.05 1113.61,-29.57 1119.89,-26.49"/>
</a>
</g>
</g>
<!-- Node29&#45;&gt;Node22 -->
<g id="edge43_Node000029_Node000022" class="edge">
<title>Node29&#45;&gt;Node22</title>
<g id="a_edge43_Node000029_Node000022"><a xlink:title=" ">
<path fill="none" stroke="#63b8ff" d="M1121.51,-164.98C1077.83,-155.8 1008.19,-141.15 960.85,-131.19"/>
<polygon fill="#63b8ff" stroke="#63b8ff" points="961.31,-127.72 950.81,-129.08 959.87,-134.57 961.31,-127.72"/>
</a>
</g>
</g>
</g>
</svg>
