<?xml version="1.0" encoding="UTF-8" standalone="no"?>
<!DOCTYPE svg PUBLIC "-//W3C//DTD SVG 1.1//EN"
 "http://www.w3.org/Graphics/SVG/1.1/DTD/svg11.dtd">
<!-- Generated by graphviz version 2.43.0 (0)
 -->
<!-- Title: src/libuvgvpccenc/bitstreamGeneration/bitstream_util.cpp Pages: 1 -->
<svg width="1650pt" height="313pt"
 viewBox="0.00 0.00 1650.07 313.00" xmlns="http://www.w3.org/2000/svg" xmlns:xlink="http://www.w3.org/1999/xlink">
<g id="graph0" class="graph" transform="scale(1 1) rotate(0) translate(4 309)">
<title>src/libuvgvpccenc/bitstreamGeneration/bitstream_util.cpp</title>
<!-- Node1 -->
<g id="Node000001" class="node">
<title>Node1</title>
<g id="a_Node000001"><a xlink:title=" ">
<polygon fill="#999999" stroke="#666666" points="349,-305 187,-305 187,-275 349,-275 349,-305"/>
<text text-anchor="start" x="195" y="-293" font-family="Helvetica,sans-Serif" font-size="10.00">src/libuvgvpccenc/bitstream</text>
<text text-anchor="middle" x="268" y="-282" font-family="Helvetica,sans-Serif" font-size="10.00">Generation/bitstream_util.cpp</text>
</a>
</g>
</g>
<!-- Node2 -->
<g id="Node000002" class="node">
<title>Node2</title>
<g id="a_Node000002"><a xlink:href="bitstream__util_8hpp.html" target="_top" xlink:title=" ">
<polygon fill="white" stroke="#666666" points="164,-184 58,-184 58,-165 164,-165 164,-184"/>
<text text-anchor="middle" x="111" y="-172" font-family="Helvetica,sans-Serif" font-size="10.00">bitstream_util.hpp</text>
</a>
</g>
</g>
<!-- Node1&#45;&gt;Node2 -->
<g id="edge1_Node000001_Node000002" class="edge">
<title>Node1&#45;&gt;Node2</title>
<g id="a_edge1_Node000001_Node000002"><a xlink:title=" ">
<path fill="none" stroke="#63b8ff" d="M238.5,-274.99C220.36,-265.81 197.03,-252.95 178,-239 158.52,-224.71 138.76,-205.24 125.79,-191.64"/>
<polygon fill="#63b8ff" stroke="#63b8ff" points="128.05,-188.93 118.66,-184.03 122.94,-193.72 128.05,-188.93"/>
</a>
</g>
</g>
<!-- Node3 -->
<g id="Node000003" class="node">
<title>Node3</title>
<g id="a_Node000003"><a xlink:title=" ">
<polygon fill="#e0e0e0" stroke="#999999" points="196,-129 144,-129 144,-110 196,-110 196,-129"/>
<text text-anchor="middle" x="170" y="-117" font-family="Helvetica,sans-Serif" font-size="10.00">cassert</text>
</a>
</g>
</g>
<!-- Node1&#45;&gt;Node3 -->
<g id="edge7_Node000001_Node000003" class="edge">
<title>Node1&#45;&gt;Node3</title>
<g id="a_edge7_Node000001_Node000003"><a xlink:title=" ">
<path fill="none" stroke="#63b8ff" d="M249.67,-274.86C238.7,-265.62 225.17,-252.76 216,-239 194.57,-206.83 180.93,-163.2 174.45,-138.86"/>
<polygon fill="#63b8ff" stroke="#63b8ff" points="177.84,-137.97 171.98,-129.14 171.05,-139.7 177.84,-137.97"/>
</a>
</g>
</g>
<!-- Node4 -->
<g id="Node000004" class="node">
<title>Node4</title>
<g id="a_Node000004"><a xlink:title=" ">
<polygon fill="#e0e0e0" stroke="#999999" points="50,-129 0,-129 0,-110 50,-110 50,-129"/>
<text text-anchor="middle" x="25" y="-117" font-family="Helvetica,sans-Serif" font-size="10.00">cstring</text>
</a>
</g>
</g>
<!-- Node1&#45;&gt;Node4 -->
<g id="edge10_Node000001_Node000004" class="edge">
<title>Node1&#45;&gt;Node4</title>
<g id="a_edge10_Node000001_Node000004"><a xlink:title=" ">
<path fill="none" stroke="#63b8ff" d="M209.93,-274.89C160.65,-260.07 91.4,-232.06 49,-184 37.8,-171.31 31.62,-152.87 28.34,-139.13"/>
<polygon fill="#63b8ff" stroke="#63b8ff" points="31.76,-138.4 26.3,-129.32 24.91,-139.82 31.76,-138.4"/>
</a>
</g>
</g>
<!-- Node5 -->
<g id="Node000005" class="node">
<title>Node5</title>
<g id="a_Node000005"><a xlink:title=" ">
<polygon fill="#e0e0e0" stroke="#999999" points="611,-74 561,-74 561,-55 611,-55 611,-74"/>
<text text-anchor="middle" x="586" y="-62" font-family="Helvetica,sans-Serif" font-size="10.00">cstdint</text>
</a>
</g>
</g>
<!-- Node1&#45;&gt;Node5 -->
<g id="edge8_Node000001_Node000005" class="edge">
<title>Node1&#45;&gt;Node5</title>
<g id="a_edge8_Node000001_Node000005"><a xlink:title=" ">
<path fill="none" stroke="#63b8ff" d="M264.29,-274.98C256.31,-241.31 241.63,-155.29 286,-110 322.18,-73.06 479.45,-66.61 550.69,-65.61"/>
<polygon fill="#63b8ff" stroke="#63b8ff" points="551,-69.1 560.96,-65.49 550.92,-62.1 551,-69.1"/>
</a>
</g>
</g>
<!-- Node7 -->
<g id="Node000007" class="node">
<title>Node7</title>
<g id="a_Node000007"><a xlink:title=" ">
<polygon fill="#e0e0e0" stroke="#999999" points="1227,-74 1185,-74 1185,-55 1227,-55 1227,-74"/>
<text text-anchor="middle" x="1206" y="-62" font-family="Helvetica,sans-Serif" font-size="10.00">array</text>
</a>
</g>
</g>
<!-- Node1&#45;&gt;Node7 -->
<g id="edge6_Node000001_Node000007" class="edge">
<title>Node1&#45;&gt;Node7</title>
<g id="a_edge6_Node000001_Node000007"><a xlink:title=" ">
<path fill="none" stroke="#63b8ff" d="M349.2,-278.48C372.64,-271.25 395.73,-259.16 410,-239 414.88,-232.11 412.81,-227.96 410,-220 403.17,-200.62 391.51,-201.65 381,-184 367.44,-161.23 363.21,-154.98 358,-129 356.34,-120.72 352.19,-116.13 358,-110 386.65,-79.81 1024.76,-68.25 1174.67,-65.95"/>
<polygon fill="#63b8ff" stroke="#63b8ff" points="1175.05,-69.44 1184.99,-65.79 1174.94,-62.45 1175.05,-69.44"/>
</a>
</g>
</g>
<!-- Node8 -->
<g id="Node000008" class="node">
<title>Node8</title>
<g id="a_Node000008"><a xlink:title=" ">
<polygon fill="#e0e0e0" stroke="#999999" points="345.5,-239 296.5,-239 296.5,-220 345.5,-220 345.5,-239"/>
<text text-anchor="middle" x="321" y="-227" font-family="Helvetica,sans-Serif" font-size="10.00">cstdlib</text>
</a>
</g>
</g>
<!-- Node1&#45;&gt;Node8 -->
<g id="edge9_Node000001_Node000008" class="edge">
<title>Node1&#45;&gt;Node8</title>
<g id="a_edge9_Node000001_Node000008"><a xlink:title=" ">
<path fill="none" stroke="#63b8ff" d="M280.83,-274.84C288.52,-266.35 298.33,-255.52 306.33,-246.69"/>
<polygon fill="#63b8ff" stroke="#63b8ff" points="308.94,-249.03 313.06,-239.27 303.75,-244.33 308.94,-249.03"/>
</a>
</g>
</g>
<!-- Node9 -->
<g id="Node000009" class="node">
<title>Node9</title>
<g id="a_Node000009"><a xlink:title=" ">
<polygon fill="#e0e0e0" stroke="#999999" points="400.5,-239 363.5,-239 363.5,-220 400.5,-220 400.5,-239"/>
<text text-anchor="middle" x="382" y="-227" font-family="Helvetica,sans-Serif" font-size="10.00">new</text>
</a>
</g>
</g>
<!-- Node1&#45;&gt;Node9 -->
<g id="edge11_Node000001_Node000009" class="edge">
<title>Node1&#45;&gt;Node9</title>
<g id="a_edge11_Node000001_Node000009"><a xlink:title=" ">
<path fill="none" stroke="#63b8ff" d="M295.31,-274.99C313.65,-265.58 337.68,-253.24 355.79,-243.95"/>
<polygon fill="#63b8ff" stroke="#63b8ff" points="357.87,-246.82 365.16,-239.14 354.67,-240.59 357.87,-246.82"/>
</a>
</g>
</g>
<!-- Node10 -->
<g id="Node000010" class="node">
<title>Node10</title>
<g id="a_Node000010"><a xlink:href="parameters_8hpp.html" target="_top" xlink:title=" ">
<polygon fill="white" stroke="#666666" points="508,-184 390,-184 390,-165 508,-165 508,-184"/>
<text text-anchor="middle" x="449" y="-172" font-family="Helvetica,sans-Serif" font-size="10.00">utils/parameters.hpp</text>
</a>
</g>
</g>
<!-- Node1&#45;&gt;Node10 -->
<g id="edge12_Node000001_Node000010" class="edge">
<title>Node1&#45;&gt;Node10</title>
<g id="a_edge12_Node000001_Node000010"><a xlink:title=" ">
<path fill="none" stroke="#63b8ff" d="M267.98,-274.82C268.75,-259.26 272.41,-234.58 287,-220 311.29,-195.72 347.51,-184.36 379.55,-179.18"/>
<polygon fill="#63b8ff" stroke="#63b8ff" points="380.39,-182.59 389.78,-177.7 379.39,-175.66 380.39,-182.59"/>
</a>
</g>
</g>
<!-- Node23 -->
<g id="Node000023" class="node">
<title>Node23</title>
<g id="a_Node000023"><a xlink:href="fileExport_8hpp.html" target="_top" xlink:title=" ">
<polygon fill="white" stroke="#666666" points="1108,-239 1000,-239 1000,-220 1108,-220 1108,-239"/>
<text text-anchor="middle" x="1054" y="-227" font-family="Helvetica,sans-Serif" font-size="10.00">utils/fileExport.hpp</text>
</a>
</g>
</g>
<!-- Node1&#45;&gt;Node23 -->
<g id="edge31_Node000001_Node000023" class="edge">
<title>Node1&#45;&gt;Node23</title>
<g id="a_edge31_Node000001_Node000023"><a xlink:title=" ">
<path fill="none" stroke="#63b8ff" d="M349.16,-282.96C505.85,-271.3 847.15,-245.9 989.56,-235.3"/>
<polygon fill="#63b8ff" stroke="#63b8ff" points="990.16,-238.76 999.88,-234.53 989.64,-231.78 990.16,-238.76"/>
</a>
</g>
</g>
<!-- Node2&#45;&gt;Node3 -->
<g id="edge2_Node000002_Node000003" class="edge">
<title>Node2&#45;&gt;Node3</title>
<g id="a_edge2_Node000002_Node000003"><a xlink:title=" ">
<path fill="none" stroke="#63b8ff" d="M120.48,-164.98C129.2,-157.15 142.34,-145.34 152.9,-135.86"/>
<polygon fill="#63b8ff" stroke="#63b8ff" points="155.25,-138.46 160.35,-129.17 150.57,-133.25 155.25,-138.46"/>
</a>
</g>
</g>
<!-- Node2&#45;&gt;Node4 -->
<g id="edge3_Node000002_Node000004" class="edge">
<title>Node2&#45;&gt;Node4</title>
<g id="a_edge3_Node000002_Node000004"><a xlink:title=" ">
<path fill="none" stroke="#63b8ff" d="M97.18,-164.98C83.85,-156.77 63.42,-144.18 47.69,-134.49"/>
<polygon fill="#63b8ff" stroke="#63b8ff" points="49.42,-131.44 39.07,-129.17 45.75,-137.4 49.42,-131.44"/>
</a>
</g>
</g>
<!-- Node2&#45;&gt;Node5 -->
<g id="edge4_Node000002_Node000005" class="edge">
<title>Node2&#45;&gt;Node5</title>
<g id="a_edge4_Node000002_Node000005"><a xlink:title=" ">
<path fill="none" stroke="#63b8ff" d="M111.5,-164.84C112.82,-150.81 117.6,-123.33 135,-110 167.76,-84.89 449.87,-71.05 550.51,-66.87"/>
<polygon fill="#63b8ff" stroke="#63b8ff" points="550.92,-70.36 560.77,-66.45 550.64,-63.36 550.92,-70.36"/>
</a>
</g>
</g>
<!-- Node6 -->
<g id="Node000006" class="node">
<title>Node6</title>
<g id="a_Node000006"><a xlink:title=" ">
<polygon fill="#e0e0e0" stroke="#999999" points="360,-19 316,-19 316,0 360,0 360,-19"/>
<text text-anchor="middle" x="338" y="-7" font-family="Helvetica,sans-Serif" font-size="10.00">string</text>
</a>
</g>
</g>
<!-- Node2&#45;&gt;Node6 -->
<g id="edge5_Node000002_Node000006" class="edge">
<title>Node2&#45;&gt;Node6</title>
<g id="a_edge5_Node000002_Node000006"><a xlink:title=" ">
<path fill="none" stroke="#63b8ff" d="M109.51,-164.92C107.72,-151.93 106.2,-127.02 117,-110 158.68,-44.33 255.39,-21.62 305.93,-14.07"/>
<polygon fill="#63b8ff" stroke="#63b8ff" points="306.56,-17.51 315.98,-12.68 305.6,-10.58 306.56,-17.51"/>
</a>
</g>
</g>
<!-- Node10&#45;&gt;Node6 -->
<g id="edge15_Node000010_Node000006" class="edge">
<title>Node10&#45;&gt;Node6</title>
<g id="a_edge15_Node000010_Node000006"><a xlink:title=" ">
<path fill="none" stroke="#63b8ff" d="M414.06,-164.93C394.58,-158.33 371.58,-147.18 358,-129 336.02,-99.58 334.81,-54.58 336.2,-29.35"/>
<polygon fill="#63b8ff" stroke="#63b8ff" points="339.7,-29.51 336.96,-19.27 332.72,-28.98 339.7,-29.51"/>
</a>
</g>
</g>
<!-- Node11 -->
<g id="Node000011" class="node">
<title>Node11</title>
<g id="a_Node000011"><a xlink:title=" ">
<polygon fill="#e0e0e0" stroke="#999999" points="1314.5,-74 1261.5,-74 1261.5,-55 1314.5,-55 1314.5,-74"/>
<text text-anchor="middle" x="1288" y="-62" font-family="Helvetica,sans-Serif" font-size="10.00">cstddef</text>
</a>
</g>
</g>
<!-- Node10&#45;&gt;Node11 -->
<g id="edge13_Node000010_Node000011" class="edge">
<title>Node10&#45;&gt;Node11</title>
<g id="a_edge13_Node000010_Node000011"><a xlink:title=" ">
<path fill="none" stroke="#63b8ff" d="M471.27,-164.9C509.16,-150.68 588.9,-122.61 659,-110 911.88,-64.51 980.67,-102.76 1236,-74 1240.91,-73.45 1246.07,-72.75 1251.14,-71.99"/>
<polygon fill="#63b8ff" stroke="#63b8ff" points="1252.02,-75.4 1261.35,-70.38 1250.93,-68.48 1252.02,-75.4"/>
</a>
</g>
</g>
<!-- Node12 -->
<g id="Node000012" class="node">
<title>Node12</title>
<g id="a_Node000012"><a xlink:title=" ">
<polygon fill="#e0e0e0" stroke="#999999" points="431.5,-129 366.5,-129 366.5,-110 431.5,-110 431.5,-129"/>
<text text-anchor="middle" x="399" y="-117" font-family="Helvetica,sans-Serif" font-size="10.00">stdexcept</text>
</a>
</g>
</g>
<!-- Node10&#45;&gt;Node12 -->
<g id="edge14_Node000010_Node000012" class="edge">
<title>Node10&#45;&gt;Node12</title>
<g id="a_edge14_Node000010_Node000012"><a xlink:title=" ">
<path fill="none" stroke="#63b8ff" d="M440.74,-164.75C433.54,-157.11 422.89,-145.82 414.15,-136.56"/>
<polygon fill="#63b8ff" stroke="#63b8ff" points="416.51,-133.96 407.1,-129.09 411.42,-138.76 416.51,-133.96"/>
</a>
</g>
</g>
<!-- Node13 -->
<g id="Node000013" class="node">
<title>Node13</title>
<g id="a_Node000013"><a xlink:title=" ">
<polygon fill="#e0e0e0" stroke="#999999" points="496.5,-129 449.5,-129 449.5,-110 496.5,-110 496.5,-129"/>
<text text-anchor="middle" x="473" y="-117" font-family="Helvetica,sans-Serif" font-size="10.00">vector</text>
</a>
</g>
</g>
<!-- Node10&#45;&gt;Node13 -->
<g id="edge16_Node000010_Node000013" class="edge">
<title>Node10&#45;&gt;Node13</title>
<g id="a_edge16_Node000010_Node000013"><a xlink:title=" ">
<path fill="none" stroke="#63b8ff" d="M452.96,-164.75C456.21,-157.57 460.92,-147.18 464.95,-138.27"/>
<polygon fill="#63b8ff" stroke="#63b8ff" points="468.17,-139.64 469.11,-129.09 461.8,-136.75 468.17,-139.64"/>
</a>
</g>
</g>
<!-- Node14 -->
<g id="Node000014" class="node">
<title>Node14</title>
<g id="a_Node000014"><a xlink:href="utils_8hpp.html" target="_top" xlink:title=" ">
<polygon fill="white" stroke="#666666" points="1471.5,-129 1370.5,-129 1370.5,-110 1471.5,-110 1471.5,-129"/>
<text text-anchor="middle" x="1421" y="-117" font-family="Helvetica,sans-Serif" font-size="10.00">uvgutils/utils.hpp</text>
</a>
</g>
</g>
<!-- Node10&#45;&gt;Node14 -->
<g id="edge17_Node000010_Node000014" class="edge">
<title>Node10&#45;&gt;Node14</title>
<g id="a_edge17_Node000010_Node000014"><a xlink:title=" ">
<path fill="none" stroke="#63b8ff" d="M508.34,-170.26C681.61,-160.82 1185.59,-133.34 1360.43,-123.8"/>
<polygon fill="#63b8ff" stroke="#63b8ff" points="1360.68,-127.29 1370.48,-123.25 1360.3,-120.3 1360.68,-127.29"/>
</a>
</g>
</g>
<!-- Node14&#45;&gt;Node5 -->
<g id="edge20_Node000014_Node000005" class="edge">
<title>Node14&#45;&gt;Node5</title>
<g id="a_edge20_Node000014_Node000005"><a xlink:title=" ">
<path fill="none" stroke="#63b8ff" d="M1370.34,-115.28C1215.85,-105.48 753.28,-76.12 621.43,-67.75"/>
<polygon fill="#63b8ff" stroke="#63b8ff" points="621.31,-64.23 611.11,-67.09 620.87,-71.22 621.31,-64.23"/>
</a>
</g>
</g>
<!-- Node14&#45;&gt;Node7 -->
<g id="edge18_Node000014_Node000007" class="edge">
<title>Node14&#45;&gt;Node7</title>
<g id="a_edge18_Node000014_Node000007"><a xlink:title=" ">
<path fill="none" stroke="#63b8ff" d="M1386.46,-109.98C1345.16,-99.8 1276.66,-82.92 1237,-73.14"/>
<polygon fill="#63b8ff" stroke="#63b8ff" points="1237.64,-69.7 1227.1,-70.7 1235.97,-76.49 1237.64,-69.7"/>
</a>
</g>
</g>
<!-- Node14&#45;&gt;Node11 -->
<g id="edge19_Node000014_Node000011" class="edge">
<title>Node14&#45;&gt;Node11</title>
<g id="a_edge19_Node000014_Node000011"><a xlink:title=" ">
<path fill="none" stroke="#63b8ff" d="M1399.63,-109.98C1377.85,-101.3 1343.84,-87.75 1319.08,-77.88"/>
<polygon fill="#63b8ff" stroke="#63b8ff" points="1320.34,-74.62 1309.76,-74.17 1317.75,-81.12 1320.34,-74.62"/>
</a>
</g>
</g>
<!-- Node15 -->
<g id="Node000015" class="node">
<title>Node15</title>
<g id="a_Node000015"><a xlink:title=" ">
<polygon fill="#e0e0e0" stroke="#999999" points="1493,-19 1437,-19 1437,0 1493,0 1493,-19"/>
<text text-anchor="middle" x="1465" y="-7" font-family="Helvetica,sans-Serif" font-size="10.00">iomanip</text>
</a>
</g>
</g>
<!-- Node14&#45;&gt;Node15 -->
<g id="edge21_Node000014_Node000015" class="edge">
<title>Node14&#45;&gt;Node15</title>
<g id="a_edge21_Node000014_Node000015"><a xlink:title=" ">
<path fill="none" stroke="#63b8ff" d="M1424.6,-109.66C1431.79,-92.01 1448.06,-52.09 1457.61,-28.64"/>
<polygon fill="#63b8ff" stroke="#63b8ff" points="1460.94,-29.74 1461.47,-19.16 1454.46,-27.1 1460.94,-29.74"/>
</a>
</g>
</g>
<!-- Node16 -->
<g id="Node000016" class="node">
<title>Node16</title>
<g id="a_Node000016"><a xlink:title=" ">
<polygon fill="#e0e0e0" stroke="#999999" points="1624,-74 1580,-74 1580,-55 1624,-55 1624,-74"/>
<text text-anchor="middle" x="1602" y="-62" font-family="Helvetica,sans-Serif" font-size="10.00">limits</text>
</a>
</g>
</g>
<!-- Node14&#45;&gt;Node16 -->
<g id="edge22_Node000014_Node000016" class="edge">
<title>Node14&#45;&gt;Node16</title>
<g id="a_edge22_Node000014_Node000016"><a xlink:title=" ">
<path fill="none" stroke="#63b8ff" d="M1450.08,-109.98C1482.86,-100.39 1536.01,-84.82 1569.96,-74.88"/>
<polygon fill="#63b8ff" stroke="#63b8ff" points="1571.22,-78.16 1579.84,-71.99 1569.26,-71.44 1571.22,-78.16"/>
</a>
</g>
</g>
<!-- Node17 -->
<g id="Node000017" class="node">
<title>Node17</title>
<g id="a_Node000017"><a xlink:title=" ">
<polygon fill="#e0e0e0" stroke="#999999" points="1562,-74 1506,-74 1506,-55 1562,-55 1562,-74"/>
<text text-anchor="middle" x="1534" y="-62" font-family="Helvetica,sans-Serif" font-size="10.00">sstream</text>
</a>
</g>
</g>
<!-- Node14&#45;&gt;Node17 -->
<g id="edge23_Node000014_Node000017" class="edge">
<title>Node14&#45;&gt;Node17</title>
<g id="a_edge23_Node000014_Node000017"><a xlink:title=" ">
<path fill="none" stroke="#63b8ff" d="M1439.16,-109.98C1457.25,-101.5 1485.28,-88.35 1506.19,-78.54"/>
<polygon fill="#63b8ff" stroke="#63b8ff" points="1507.95,-81.59 1515.51,-74.17 1504.97,-75.25 1507.95,-81.59"/>
</a>
</g>
</g>
<!-- Node18 -->
<g id="Node000018" class="node">
<title>Node18</title>
<g id="a_Node000018"><a xlink:href="log_8hpp.html" target="_top" xlink:title=" ">
<polygon fill="white" stroke="#666666" points="1385.5,-74 1332.5,-74 1332.5,-55 1385.5,-55 1385.5,-74"/>
<text text-anchor="middle" x="1359" y="-62" font-family="Helvetica,sans-Serif" font-size="10.00">log.hpp</text>
</a>
</g>
</g>
<!-- Node14&#45;&gt;Node18 -->
<g id="edge24_Node000014_Node000018" class="edge">
<title>Node14&#45;&gt;Node18</title>
<g id="a_edge24_Node000014_Node000018"><a xlink:title=" ">
<path fill="none" stroke="#63b8ff" d="M1411.04,-109.98C1401.87,-102.15 1388.06,-90.34 1376.97,-80.86"/>
<polygon fill="#63b8ff" stroke="#63b8ff" points="1379.02,-78.01 1369.14,-74.17 1374.47,-83.33 1379.02,-78.01"/>
</a>
</g>
</g>
<!-- Node18&#45;&gt;Node6 -->
<g id="edge30_Node000018_Node000006" class="edge">
<title>Node18&#45;&gt;Node6</title>
<g id="a_edge30_Node000018_Node000006"><a xlink:title=" ">
<path fill="none" stroke="#63b8ff" d="M1332.35,-56.47C1329.55,-55.89 1326.72,-55.39 1324,-55 1133.68,-27.85 519.49,-14.11 370.69,-11.13"/>
<polygon fill="#63b8ff" stroke="#63b8ff" points="370.48,-7.62 360.41,-10.92 370.34,-14.62 370.48,-7.62"/>
</a>
</g>
</g>
<!-- Node18&#45;&gt;Node15 -->
<g id="edge27_Node000018_Node000015" class="edge">
<title>Node18&#45;&gt;Node15</title>
<g id="a_edge27_Node000018_Node000015"><a xlink:title=" ">
<path fill="none" stroke="#63b8ff" d="M1376.03,-54.98C1392.93,-46.54 1419.06,-33.47 1438.64,-23.68"/>
<polygon fill="#63b8ff" stroke="#63b8ff" points="1440.28,-26.77 1447.66,-19.17 1437.15,-20.51 1440.28,-26.77"/>
</a>
</g>
</g>
<!-- Node19 -->
<g id="Node000019" class="node">
<title>Node19</title>
<g id="a_Node000019"><a xlink:title=" ">
<polygon fill="#e0e0e0" stroke="#999999" points="1419,-19 1369,-19 1369,0 1419,0 1419,-19"/>
<text text-anchor="middle" x="1394" y="-7" font-family="Helvetica,sans-Serif" font-size="10.00">chrono</text>
</a>
</g>
</g>
<!-- Node18&#45;&gt;Node19 -->
<g id="edge25_Node000018_Node000019" class="edge">
<title>Node18&#45;&gt;Node19</title>
<g id="a_edge25_Node000018_Node000019"><a xlink:title=" ">
<path fill="none" stroke="#63b8ff" d="M1364.78,-54.75C1369.62,-47.42 1376.68,-36.73 1382.64,-27.7"/>
<polygon fill="#63b8ff" stroke="#63b8ff" points="1385.74,-29.36 1388.33,-19.09 1379.9,-25.5 1385.74,-29.36"/>
</a>
</g>
</g>
<!-- Node20 -->
<g id="Node000020" class="node">
<title>Node20</title>
<g id="a_Node000020"><a xlink:title=" ">
<polygon fill="#e0e0e0" stroke="#999999" points="1284.5,-19 1231.5,-19 1231.5,0 1284.5,0 1284.5,-19"/>
<text text-anchor="middle" x="1258" y="-7" font-family="Helvetica,sans-Serif" font-size="10.00">cstdarg</text>
</a>
</g>
</g>
<!-- Node18&#45;&gt;Node20 -->
<g id="edge26_Node000018_Node000020" class="edge">
<title>Node18&#45;&gt;Node20</title>
<g id="a_edge26_Node000018_Node000020"><a xlink:title=" ">
<path fill="none" stroke="#63b8ff" d="M1342.77,-54.98C1326.82,-46.61 1302.22,-33.7 1283.62,-23.95"/>
<polygon fill="#63b8ff" stroke="#63b8ff" points="1285,-20.72 1274.52,-19.17 1281.75,-26.92 1285,-20.72"/>
</a>
</g>
</g>
<!-- Node21 -->
<g id="Node000021" class="node">
<title>Node21</title>
<g id="a_Node000021"><a xlink:title=" ">
<polygon fill="#e0e0e0" stroke="#999999" points="963,-19 903,-19 903,0 963,0 963,-19"/>
<text text-anchor="middle" x="933" y="-7" font-family="Helvetica,sans-Serif" font-size="10.00">iostream</text>
</a>
</g>
</g>
<!-- Node18&#45;&gt;Node21 -->
<g id="edge28_Node000018_Node000021" class="edge">
<title>Node18&#45;&gt;Node21</title>
<g id="a_edge28_Node000018_Node000021"><a xlink:title=" ">
<path fill="none" stroke="#63b8ff" d="M1332.32,-56.66C1329.52,-56.05 1326.71,-55.48 1324,-55 1196.99,-32.44 1044.64,-18.95 973.42,-13.43"/>
<polygon fill="#63b8ff" stroke="#63b8ff" points="973.34,-9.91 963.11,-12.64 972.81,-16.89 973.34,-9.91"/>
</a>
</g>
</g>
<!-- Node22 -->
<g id="Node000022" class="node">
<title>Node22</title>
<g id="a_Node000022"><a xlink:title=" ">
<polygon fill="#e0e0e0" stroke="#999999" points="1351,-19 1303,-19 1303,0 1351,0 1351,-19"/>
<text text-anchor="middle" x="1327" y="-7" font-family="Helvetica,sans-Serif" font-size="10.00">mutex</text>
</a>
</g>
</g>
<!-- Node18&#45;&gt;Node22 -->
<g id="edge29_Node000018_Node000022" class="edge">
<title>Node18&#45;&gt;Node22</title>
<g id="a_edge29_Node000018_Node000022"><a xlink:title=" ">
<path fill="none" stroke="#63b8ff" d="M1353.72,-54.75C1349.29,-47.42 1342.84,-36.73 1337.38,-27.7"/>
<polygon fill="#63b8ff" stroke="#63b8ff" points="1340.35,-25.84 1332.19,-19.09 1334.36,-29.46 1340.35,-25.84"/>
</a>
</g>
</g>
<!-- Node23&#45;&gt;Node6 -->
<g id="edge34_Node000023_Node000006" class="edge">
<title>Node23&#45;&gt;Node6</title>
<g id="a_edge34_Node000023_Node000006"><a xlink:title=" ">
<path fill="none" stroke="#63b8ff" d="M999.91,-227.64C849.53,-224.88 434.06,-214.54 381,-184 334.77,-157.39 338.26,-127.08 333,-74 331.51,-59 333.03,-41.98 334.77,-29.33"/>
<polygon fill="#63b8ff" stroke="#63b8ff" points="338.28,-29.56 336.35,-19.14 331.36,-28.48 338.28,-29.56"/>
</a>
</g>
</g>
<!-- Node23&#45;&gt;Node11 -->
<g id="edge32_Node000023_Node000011" class="edge">
<title>Node23&#45;&gt;Node11</title>
<g id="a_edge32_Node000023_Node000011"><a xlink:title=" ">
<path fill="none" stroke="#63b8ff" d="M1080.76,-219.92C1120.74,-206.04 1196.75,-175.44 1247,-129 1261.11,-115.96 1272.5,-97.05 1279.66,-83.27"/>
<polygon fill="#63b8ff" stroke="#63b8ff" points="1282.8,-84.8 1284.1,-74.29 1276.53,-81.7 1282.8,-84.8"/>
</a>
</g>
</g>
<!-- Node23&#45;&gt;Node13 -->
<g id="edge35_Node000023_Node000013" class="edge">
<title>Node23&#45;&gt;Node13</title>
<g id="a_edge35_Node000023_Node000013"><a xlink:title=" ">
<path fill="none" stroke="#63b8ff" d="M1003.72,-219.96C907.72,-203.5 691.79,-165.77 511,-129 509.55,-128.71 508.07,-128.4 506.58,-128.08"/>
<polygon fill="#63b8ff" stroke="#63b8ff" points="507.2,-124.64 496.69,-125.95 505.72,-131.48 507.2,-124.64"/>
</a>
</g>
</g>
<!-- Node23&#45;&gt;Node14 -->
<g id="edge44_Node000023_Node000014" class="edge">
<title>Node23&#45;&gt;Node14</title>
<g id="a_edge44_Node000023_Node000014"><a xlink:title=" ">
<path fill="none" stroke="#63b8ff" d="M1108.17,-225.46C1162.67,-221.02 1248.39,-210.18 1318,-184 1349.72,-172.07 1382.35,-149.97 1402.16,-135.24"/>
<polygon fill="#63b8ff" stroke="#63b8ff" points="1404.46,-137.89 1410.31,-129.06 1400.23,-132.32 1404.46,-137.89"/>
</a>
</g>
</g>
<!-- Node24 -->
<g id="Node000024" class="node">
<title>Node24</title>
<g id="a_Node000024"><a xlink:title=" ">
<polygon fill="#e0e0e0" stroke="#999999" points="1238,-129 1180,-129 1180,-110 1238,-110 1238,-129"/>
<text text-anchor="middle" x="1209" y="-117" font-family="Helvetica,sans-Serif" font-size="10.00">memory</text>
</a>
</g>
</g>
<!-- Node23&#45;&gt;Node24 -->
<g id="edge33_Node000023_Node000024" class="edge">
<title>Node23&#45;&gt;Node24</title>
<g id="a_edge33_Node000023_Node000024"><a xlink:title=" ">
<path fill="none" stroke="#63b8ff" d="M1066.42,-219.84C1092.95,-201.36 1155.38,-157.86 1188.12,-135.05"/>
<polygon fill="#63b8ff" stroke="#63b8ff" points="1190.31,-137.79 1196.52,-129.2 1186.31,-132.04 1190.31,-137.79"/>
</a>
</g>
</g>
<!-- Node25 -->
<g id="Node000025" class="node">
<title>Node25</title>
<g id="a_Node000025"><a xlink:href="constants_8hpp.html" target="_top" xlink:title=" ">
<polygon fill="white" stroke="#666666" points="1535.5,-184 1426.5,-184 1426.5,-165 1535.5,-165 1535.5,-184"/>
<text text-anchor="middle" x="1481" y="-172" font-family="Helvetica,sans-Serif" font-size="10.00">utils/constants.hpp</text>
</a>
</g>
</g>
<!-- Node23&#45;&gt;Node25 -->
<g id="edge36_Node000023_Node000025" class="edge">
<title>Node23&#45;&gt;Node25</title>
<g id="a_edge36_Node000023_Node000025"><a xlink:title=" ">
<path fill="none" stroke="#63b8ff" d="M1108.08,-221.79C1186.68,-212.03 1332.27,-193.96 1416.4,-183.52"/>
<polygon fill="#63b8ff" stroke="#63b8ff" points="1416.86,-186.99 1426.35,-182.28 1415.99,-180.04 1416.86,-186.99"/>
</a>
</g>
</g>
<!-- Node26 -->
<g id="Node000026" class="node">
<title>Node26</title>
<g id="a_Node000026"><a xlink:href="uvgvpcc_8hpp.html" target="_top" xlink:title=" ">
<polygon fill="white" stroke="#666666" points="1034,-184 912,-184 912,-165 1034,-165 1034,-184"/>
<text text-anchor="middle" x="973" y="-172" font-family="Helvetica,sans-Serif" font-size="10.00">uvgvpcc/uvgvpcc.hpp</text>
</a>
</g>
</g>
<!-- Node23&#45;&gt;Node26 -->
<g id="edge45_Node000023_Node000026" class="edge">
<title>Node23&#45;&gt;Node26</title>
<g id="a_edge45_Node000023_Node000026"><a xlink:title=" ">
<path fill="none" stroke="#63b8ff" d="M1040.99,-219.98C1028.54,-211.84 1009.54,-199.41 994.79,-189.76"/>
<polygon fill="#63b8ff" stroke="#63b8ff" points="996.54,-186.72 986.25,-184.17 992.7,-192.57 996.54,-186.72"/>
</a>
</g>
</g>
<!-- Node25&#45;&gt;Node5 -->
<g id="edge39_Node000025_Node000005" class="edge">
<title>Node25&#45;&gt;Node5</title>
<g id="a_edge39_Node000025_Node000005"><a xlink:title=" ">
<path fill="none" stroke="#63b8ff" d="M1446.51,-164.94C1411.89,-156.25 1357.11,-142.23 1310,-129 1281.84,-121.09 1275.77,-115.24 1247,-110 1010.9,-67.02 720.57,-64.54 621.25,-65.09"/>
<polygon fill="#63b8ff" stroke="#63b8ff" points="621.14,-61.59 611.16,-65.16 621.19,-68.59 621.14,-61.59"/>
</a>
</g>
</g>
<!-- Node25&#45;&gt;Node7 -->
<g id="edge37_Node000025_Node000007" class="edge">
<title>Node25&#45;&gt;Node7</title>
<g id="a_edge37_Node000025_Node000007"><a xlink:title=" ">
<path fill="none" stroke="#63b8ff" d="M1457.67,-165C1433.62,-156.19 1395.08,-141.91 1362,-129 1317.88,-111.78 1267.14,-90.93 1235.82,-77.94"/>
<polygon fill="#63b8ff" stroke="#63b8ff" points="1236.95,-74.61 1226.37,-74.01 1234.26,-81.08 1236.95,-74.61"/>
</a>
</g>
</g>
<!-- Node25&#45;&gt;Node11 -->
<g id="edge38_Node000025_Node000011" class="edge">
<title>Node25&#45;&gt;Node11</title>
<g id="a_edge38_Node000025_Node000011"><a xlink:title=" ">
<path fill="none" stroke="#63b8ff" d="M1484.13,-164.58C1488.23,-151.17 1493.5,-125.69 1481,-110 1438.31,-56.41 1397.4,-87.28 1324.72,-73.91"/>
<polygon fill="#63b8ff" stroke="#63b8ff" points="1325.24,-70.45 1314.73,-71.83 1323.81,-77.3 1325.24,-70.45"/>
</a>
</g>
</g>
<!-- Node25&#45;&gt;Node14 -->
<g id="edge43_Node000025_Node000014" class="edge">
<title>Node25&#45;&gt;Node14</title>
<g id="a_edge43_Node000025_Node000014"><a xlink:title=" ">
<path fill="none" stroke="#63b8ff" d="M1471.36,-164.98C1462.49,-157.15 1449.13,-145.34 1438.39,-135.86"/>
<polygon fill="#63b8ff" stroke="#63b8ff" points="1440.63,-133.17 1430.82,-129.17 1435.99,-138.41 1440.63,-133.17"/>
</a>
</g>
</g>
<!-- Node25&#45;&gt;Node15 -->
<g id="edge40_Node000025_Node000015" class="edge">
<title>Node25&#45;&gt;Node15</title>
<g id="a_edge40_Node000025_Node000015"><a xlink:title=" ">
<path fill="none" stroke="#63b8ff" d="M1510.82,-164.93C1565.44,-147.76 1672.49,-106.31 1633,-55 1617.25,-34.54 1547.46,-21.54 1502.93,-15.18"/>
<polygon fill="#63b8ff" stroke="#63b8ff" points="1503.41,-11.71 1493.02,-13.81 1502.45,-18.65 1503.41,-11.71"/>
</a>
</g>
</g>
<!-- Node25&#45;&gt;Node16 -->
<g id="edge41_Node000025_Node000016" class="edge">
<title>Node25&#45;&gt;Node16</title>
<g id="a_edge41_Node000025_Node000016"><a xlink:title=" ">
<path fill="none" stroke="#63b8ff" d="M1506.41,-164.95C1524.96,-157.69 1549.78,-145.77 1567,-129 1580.08,-116.26 1589.57,-97.58 1595.34,-83.77"/>
<polygon fill="#63b8ff" stroke="#63b8ff" points="1598.65,-84.93 1599.03,-74.34 1592.13,-82.38 1598.65,-84.93"/>
</a>
</g>
</g>
<!-- Node25&#45;&gt;Node17 -->
<g id="edge42_Node000025_Node000017" class="edge">
<title>Node25&#45;&gt;Node17</title>
<g id="a_edge42_Node000025_Node000017"><a xlink:title=" ">
<path fill="none" stroke="#63b8ff" d="M1506.51,-164.9C1522.69,-157.96 1542.35,-146.44 1552,-129 1560.04,-114.48 1553.22,-96.06 1545.78,-82.81"/>
<polygon fill="#63b8ff" stroke="#63b8ff" points="1548.69,-80.86 1540.46,-74.2 1542.74,-84.54 1548.69,-80.86"/>
</a>
</g>
</g>
<!-- Node26&#45;&gt;Node3 -->
<g id="edge47_Node000026_Node000003" class="edge">
<title>Node26&#45;&gt;Node3</title>
<g id="a_edge47_Node000026_Node000003"><a xlink:title=" ">
<path fill="none" stroke="#63b8ff" d="M911.99,-169.47C753.55,-159.02 332.63,-131.23 206.33,-122.9"/>
<polygon fill="#63b8ff" stroke="#63b8ff" points="206.26,-119.39 196.05,-122.22 205.8,-126.37 206.26,-119.39"/>
</a>
</g>
</g>
<!-- Node26&#45;&gt;Node5 -->
<g id="edge49_Node000026_Node000005" class="edge">
<title>Node26&#45;&gt;Node5</title>
<g id="a_edge49_Node000026_Node000005"><a xlink:title=" ">
<path fill="none" stroke="#63b8ff" d="M911.73,-171.94C824.81,-168.69 671.11,-158.79 625,-129 608.74,-118.49 598.16,-98.57 592.18,-83.83"/>
<polygon fill="#63b8ff" stroke="#63b8ff" points="595.37,-82.38 588.62,-74.22 588.81,-84.81 595.37,-82.38"/>
</a>
</g>
</g>
<!-- Node26&#45;&gt;Node6 -->
<g id="edge55_Node000026_Node000006" class="edge">
<title>Node26&#45;&gt;Node6</title>
<g id="a_edge55_Node000026_Node000006"><a xlink:title=" ">
<path fill="none" stroke="#63b8ff" d="M911.83,-171.8C837.38,-168.46 708.42,-158.53 602,-129 508.9,-103.17 406.69,-49.27 361.6,-24.05"/>
<polygon fill="#63b8ff" stroke="#63b8ff" points="363.3,-20.99 352.87,-19.13 359.86,-27.09 363.3,-20.99"/>
</a>
</g>
</g>
<!-- Node26&#45;&gt;Node7 -->
<g id="edge46_Node000026_Node000007" class="edge">
<title>Node26&#45;&gt;Node7</title>
<g id="a_edge46_Node000026_Node000007"><a xlink:title=" ">
<path fill="none" stroke="#63b8ff" d="M1000.67,-164.9C1025.76,-156.76 1063.51,-143.62 1095,-129 1127.07,-114.11 1162.19,-93.17 1184.16,-79.47"/>
<polygon fill="#63b8ff" stroke="#63b8ff" points="1186.13,-82.37 1192.72,-74.08 1182.4,-76.45 1186.13,-82.37"/>
</a>
</g>
</g>
<!-- Node26&#45;&gt;Node11 -->
<g id="edge48_Node000026_Node000011" class="edge">
<title>Node26&#45;&gt;Node11</title>
<g id="a_edge48_Node000026_Node000011"><a xlink:title=" ">
<path fill="none" stroke="#63b8ff" d="M1006.48,-164.97C1037.72,-156.72 1085.46,-143.4 1126,-129 1146.46,-121.73 1150.85,-118.08 1171,-110 1199.24,-98.67 1231.58,-86.43 1255.1,-77.65"/>
<polygon fill="#63b8ff" stroke="#63b8ff" points="1256.44,-80.89 1264.6,-74.12 1254,-74.33 1256.44,-80.89"/>
</a>
</g>
</g>
<!-- Node26&#45;&gt;Node13 -->
<g id="edge56_Node000026_Node000013" class="edge">
<title>Node26&#45;&gt;Node13</title>
<g id="a_edge56_Node000026_Node000013"><a xlink:title=" ">
<path fill="none" stroke="#63b8ff" d="M911.78,-170.03C823.03,-164.45 653.64,-151.73 511,-129 509.54,-128.77 508.05,-128.51 506.55,-128.24"/>
<polygon fill="#63b8ff" stroke="#63b8ff" points="507.12,-124.79 496.63,-126.26 505.75,-131.65 507.12,-124.79"/>
</a>
</g>
</g>
<!-- Node26&#45;&gt;Node14 -->
<g id="edge59_Node000026_Node000014" class="edge">
<title>Node26&#45;&gt;Node14</title>
<g id="a_edge59_Node000026_Node000014"><a xlink:title=" ">
<path fill="none" stroke="#63b8ff" d="M1034.35,-166.24C1120.13,-156.09 1274.95,-137.78 1360.35,-127.67"/>
<polygon fill="#63b8ff" stroke="#63b8ff" points="1360.89,-131.14 1370.41,-126.48 1360.07,-124.18 1360.89,-131.14"/>
</a>
</g>
</g>
<!-- Node26&#45;&gt;Node17 -->
<g id="edge54_Node000026_Node000017" class="edge">
<title>Node26&#45;&gt;Node17</title>
<g id="a_edge54_Node000026_Node000017"><a xlink:title=" ">
<path fill="none" stroke="#63b8ff" d="M1034.11,-173.93C1151.74,-173.83 1404.78,-168.81 1481,-129 1500.42,-118.86 1515.52,-98.25 1524.55,-83.25"/>
<polygon fill="#63b8ff" stroke="#63b8ff" points="1527.69,-84.8 1529.59,-74.37 1521.61,-81.34 1527.69,-84.8"/>
</a>
</g>
</g>
<!-- Node26&#45;&gt;Node21 -->
<g id="edge50_Node000026_Node000021" class="edge">
<title>Node26&#45;&gt;Node21</title>
<g id="a_edge50_Node000026_Node000021"><a xlink:title=" ">
<path fill="none" stroke="#63b8ff" d="M911.92,-173.93C829.99,-173.04 691.08,-165.95 659,-129 590.29,-49.87 801.07,-21.81 892.69,-13.52"/>
<polygon fill="#63b8ff" stroke="#63b8ff" points="893.07,-17 902.73,-12.64 892.46,-10.02 893.07,-17"/>
</a>
</g>
</g>
<!-- Node26&#45;&gt;Node24 -->
<g id="edge51_Node000026_Node000024" class="edge">
<title>Node26&#45;&gt;Node24</title>
<g id="a_edge51_Node000026_Node000024"><a xlink:title=" ">
<path fill="none" stroke="#63b8ff" d="M1010.92,-164.98C1054.56,-155.18 1125.86,-139.17 1169.96,-129.27"/>
<polygon fill="#63b8ff" stroke="#63b8ff" points="1170.76,-132.68 1179.75,-127.07 1169.23,-125.85 1170.76,-132.68"/>
</a>
</g>
</g>
<!-- Node27 -->
<g id="Node000027" class="node">
<title>Node27</title>
<g id="a_Node000027"><a xlink:title=" ">
<polygon fill="#e0e0e0" stroke="#999999" points="996.5,-129 949.5,-129 949.5,-110 996.5,-110 996.5,-129"/>
<text text-anchor="middle" x="973" y="-117" font-family="Helvetica,sans-Serif" font-size="10.00">queue</text>
</a>
</g>
</g>
<!-- Node26&#45;&gt;Node27 -->
<g id="edge52_Node000026_Node000027" class="edge">
<title>Node26&#45;&gt;Node27</title>
<g id="a_edge52_Node000026_Node000027"><a xlink:title=" ">
<path fill="none" stroke="#63b8ff" d="M973,-164.75C973,-157.8 973,-147.85 973,-139.13"/>
<polygon fill="#63b8ff" stroke="#63b8ff" points="976.5,-139.09 973,-129.09 969.5,-139.09 976.5,-139.09"/>
</a>
</g>
</g>
<!-- Node28 -->
<g id="Node000028" class="node">
<title>Node28</title>
<g id="a_Node000028"><a xlink:title=" ">
<polygon fill="#e0e0e0" stroke="#999999" points="1085.5,-129 1014.5,-129 1014.5,-110 1085.5,-110 1085.5,-129"/>
<text text-anchor="middle" x="1050" y="-117" font-family="Helvetica,sans-Serif" font-size="10.00">semaphore</text>
</a>
</g>
</g>
<!-- Node26&#45;&gt;Node28 -->
<g id="edge53_Node000026_Node000028" class="edge">
<title>Node26&#45;&gt;Node28</title>
<g id="a_edge53_Node000026_Node000028"><a xlink:title=" ">
<path fill="none" stroke="#63b8ff" d="M985.37,-164.98C997.09,-156.92 1014.92,-144.65 1028.89,-135.03"/>
<polygon fill="#63b8ff" stroke="#63b8ff" points="1031.15,-137.72 1037.4,-129.17 1027.18,-131.96 1031.15,-137.72"/>
</a>
</g>
</g>
<!-- Node29 -->
<g id="Node000029" class="node">
<title>Node29</title>
<g id="a_Node000029"><a xlink:title=" ">
<polygon fill="#e0e0e0" stroke="#999999" points="794.5,-129 667.5,-129 667.5,-110 794.5,-110 794.5,-129"/>
<text text-anchor="middle" x="731" y="-117" font-family="Helvetica,sans-Serif" font-size="10.00">../utils/parameters.hpp</text>
</a>
</g>
</g>
<!-- Node26&#45;&gt;Node29 -->
<g id="edge57_Node000026_Node000029" class="edge">
<title>Node26&#45;&gt;Node29</title>
<g id="a_edge57_Node000026_Node000029"><a xlink:title=" ">
<path fill="none" stroke="#63b8ff" d="M934.12,-164.98C892.26,-155.82 825.57,-141.21 780.12,-131.26"/>
<polygon fill="#63b8ff" stroke="#63b8ff" points="780.7,-127.8 770.19,-129.08 779.21,-134.64 780.7,-127.8"/>
</a>
</g>
</g>
<!-- Node30 -->
<g id="Node000030" class="node">
<title>Node30</title>
<g id="a_Node000030"><a xlink:title=" ">
<polygon fill="#e0e0e0" stroke="#999999" points="931,-129 813,-129 813,-110 931,-110 931,-129"/>
<text text-anchor="middle" x="872" y="-117" font-family="Helvetica,sans-Serif" font-size="10.00">../utils/constants.hpp</text>
</a>
</g>
</g>
<!-- Node26&#45;&gt;Node30 -->
<g id="edge58_Node000026_Node000030" class="edge">
<title>Node26&#45;&gt;Node30</title>
<g id="a_edge58_Node000026_Node000030"><a xlink:title=" ">
<path fill="none" stroke="#63b8ff" d="M956.77,-164.98C940.82,-156.61 916.22,-143.7 897.62,-133.95"/>
<polygon fill="#63b8ff" stroke="#63b8ff" points="899,-130.72 888.52,-129.17 895.75,-136.92 899,-130.72"/>
</a>
</g>
</g>
</g>
</svg>
