<?xml version="1.0" encoding="UTF-8" standalone="no"?>
<!DOCTYPE svg PUBLIC "-//W3C//DTD SVG 1.1//EN"
 "http://www.w3.org/Graphics/SVG/1.1/DTD/svg11.dtd">
<!-- Generated by graphviz version 2.43.0 (0)
 -->
<!-- Title: uvg_bitstream_writebyte Pages: 1 -->
<!--zoomable 405 -->

<svg id="main" version="1.1" xmlns="http://www.w3.org/2000/svg" xmlns:xlink="http://www.w3.org/1999/xlink" xml:space="preserve" onload="init(evt)">
<style type="text/css"><![CDATA[
.node, .edge {opacity: 0.7;}
.node.selected, .edge.selected {opacity: 1;}
.edge:hover path { stroke: red; }
.edge:hover polygon { stroke: red; fill: red; }
]]></style>

<defs>
  <circle id="rim" cx="0" cy="0" r="7"/>
  <circle id="rim2" cx="0" cy="0" r="3.5"/>
  <g id="zoomPlus">
    <use xlink:href="#rim" fill="#404040"><set attributeName="fill" to="#808080" begin="zoomplus.mouseover" end="zoomplus.mouseout"/></use>
    <path d="M-4,0h8M0,-4v8" fill="none" stroke="white" stroke-width="1.5" pointer-events="none"/>
  </g>
  <g id="zoomMin">
    <use xlink:href="#rim" fill="#404040"><set attributeName="fill" to="#808080" begin="zoomminus.mouseover" end="zoomminus.mouseout"/></use>
    <path d="M-4,0h8" fill="none" stroke="white" stroke-width="1.5" pointer-events="none"/>
  </g>
  <g id="arrowUp" transform="translate(30 24)">
    <use xlink:href="#rim"/>
    <path pointer-events="none" fill="none" stroke="white" stroke-width="1.5" d="M0,-3.0v7 M-2.5,-0.5L0,-3.0L2.5,-0.5"/>
  </g>
  <g id="arrowRight" transform="rotate(90) translate(36 -43)">
    <use xlink:href="#rim"/>
    <path pointer-events="none" fill="none" stroke="white" stroke-width="1.5" d="M0,-3.0v7 M-2.5,-0.5L0,-3.0L2.5,-0.5"/>
  </g>
  <g id="arrowDown" transform="rotate(180) translate(-30 -48)">
    <use xlink:href="#rim"/>
    <path pointer-events="none" fill="none" stroke="white" stroke-width="1.5" d="M0,-3.0v7 M-2.5,-0.5L0,-3.0L2.5,-0.5"/>
  </g>
  <g id="arrowLeft" transform="rotate(270) translate(-36 17)">
    <use xlink:href="#rim"/>
    <path pointer-events="none" fill="none" stroke="white" stroke-width="1.5" d="M0,-3.0v7 M-2.5,-0.5L0,-3.0L2.5,-0.5"/>
  </g>
  <g id="resetDef">
    <use xlink:href="#rim2" fill="#404040"><set attributeName="fill" to="#808080" begin="reset.mouseover" end="reset.mouseout"/></use>
  </g>
</defs>
<script type="application/ecmascript">
var viewWidth = 936;
var viewHeight = 405;
var sectionId = 'dynsection-22';
</script>
<script type="application/ecmascript" xlink:href="svg.min.js"/>
<svg id="graph" class="graph">
<g id="viewport">
<title>uvg_bitstream_writebyte</title>
<!-- Node1 -->
<g id="Node000001" class="node">
<title>Node1</title>
<g id="a_Node000001"><a xlink:title="Write a byte to bitstream.">
<polygon fill="#999999" stroke="#666666" points="928,-206.5 789,-206.5 789,-187.5 928,-187.5 928,-206.5"/>
<text text-anchor="middle" x="858.5" y="-194.5" font-family="Helvetica,sans-Serif" font-size="10.00">uvg_bitstream_writebyte</text>
</a>
</g>
</g>
<!-- Node2 -->
<g id="Node000002" class="node">
<title>Node2</title>
<g id="a_Node000002"><a xlink:href="bitstream__util_8cpp.html#a0e5e61b87281454f22e12f063c0bbeb6" target="_top" xlink:title=" ">
<polygon fill="white" stroke="#666666" points="753,-206.5 645,-206.5 645,-187.5 753,-187.5 753,-206.5"/>
<text text-anchor="middle" x="699" y="-194.5" font-family="Helvetica,sans-Serif" font-size="10.00">uvg_bitstream_put</text>
</a>
</g>
</g>
<!-- Node1&#45;&gt;Node2 -->
<g id="edge1_Node000001_Node000002" class="edge">
<title>Node1&#45;&gt;Node2</title>
<g id="a_edge1_Node000001_Node000002"><a xlink:title=" ">
<path fill="none" stroke="#63b8ff" d="M778.75,-197C770.11,-197 761.47,-197 753.24,-197"/>
<polygon fill="#63b8ff" stroke="#63b8ff" points="778.88,-200.5 788.88,-197 778.88,-193.5 778.88,-200.5"/>
</a>
</g>
</g>
<!-- Node3 -->
<g id="Node000003" class="node">
<title>Node3</title>
<g id="a_Node000003"><a xlink:href="bitstream__util_8cpp.html#a423bd5bc72b723f5642a91deb7a5cb0b" target="_top" xlink:title=" ">
<polygon fill="white" stroke="#666666" points="603.5,-356 466.5,-356 466.5,-326 603.5,-326 603.5,-356"/>
<text text-anchor="start" x="474.5" y="-344" font-family="Helvetica,sans-Serif" font-size="10.00">uvg_bitstream_add_rbsp</text>
<text text-anchor="middle" x="535" y="-333" font-family="Helvetica,sans-Serif" font-size="10.00">_trailing_bits</text>
</a>
</g>
</g>
<!-- Node2&#45;&gt;Node3 -->
<g id="edge2_Node000002_Node000003" class="edge">
<title>Node2&#45;&gt;Node3</title>
<g id="a_edge2_Node000002_Node000003"><a xlink:title=" ">
<path fill="none" stroke="#63b8ff" d="M688.93,-215.61C675.2,-241.92 646.67,-289.81 609,-317 604.24,-320.44 598.96,-323.4 593.48,-325.95"/>
<polygon fill="#63b8ff" stroke="#63b8ff" points="692.07,-217.18 693.46,-206.67 685.82,-214.01 692.07,-217.18"/>
</a>
</g>
</g>
<!-- Node6 -->
<g id="Node000006" class="node">
<title>Node6</title>
<g id="a_Node000006"><a xlink:href="bitstream__util_8cpp.html#a30bd11b6c91d37315d3ee911d83a72ed" target="_top" xlink:title=" ">
<polygon fill="white" stroke="#666666" points="597.5,-115.5 472.5,-115.5 472.5,-96.5 597.5,-96.5 597.5,-115.5"/>
<text text-anchor="middle" x="535" y="-103.5" font-family="Helvetica,sans-Serif" font-size="10.00">uvg_bitstream_put_ue</text>
</a>
</g>
</g>
<!-- Node2&#45;&gt;Node6 -->
<g id="edge5_Node000002_Node000006" class="edge">
<title>Node2&#45;&gt;Node6</title>
<g id="a_edge5_Node000002_Node000006"><a xlink:title=" ">
<path fill="none" stroke="#63b8ff" d="M681.22,-179.68C664.41,-163.3 637.06,-139.16 609,-125 601.4,-121.16 592.95,-118.05 584.58,-115.54"/>
<polygon fill="#63b8ff" stroke="#63b8ff" points="679.03,-182.44 688.59,-187.03 683.98,-177.49 679.03,-182.44"/>
</a>
</g>
</g>
<!-- Node8 -->
<g id="Node000008" class="node">
<title>Node8</title>
<g id="a_Node000008"><a xlink:href="classatlas__context.html#a56450f7f8e92c4a07026d4d7c4be7dcd" target="_top" xlink:title=" ">
<polygon fill="white" stroke="#666666" points="591.5,-308 478.5,-308 478.5,-278 591.5,-278 591.5,-308"/>
<text text-anchor="start" x="486.5" y="-296" font-family="Helvetica,sans-Serif" font-size="10.00">atlas_context::write</text>
<text text-anchor="middle" x="535" y="-285" font-family="Helvetica,sans-Serif" font-size="10.00">_atlas_eob</text>
</a>
</g>
</g>
<!-- Node2&#45;&gt;Node8 -->
<g id="edge8_Node000002_Node000008" class="edge">
<title>Node2&#45;&gt;Node8</title>
<g id="a_edge8_Node000002_Node000008"><a xlink:title=" ">
<path fill="none" stroke="#63b8ff" d="M681.02,-213.93C664.06,-230.03 636.6,-253.96 609,-269 602.91,-272.32 596.28,-275.28 589.58,-277.89"/>
<polygon fill="#63b8ff" stroke="#63b8ff" points="683.71,-216.2 688.46,-206.73 678.84,-211.17 683.71,-216.2"/>
</a>
</g>
</g>
<!-- Node9 -->
<g id="Node000009" class="node">
<title>Node9</title>
<g id="a_Node000009"><a xlink:href="classatlas__context.html#a144495d5cb47643d5d9bcf4283a8f97f" target="_top" xlink:title=" ">
<polygon fill="white" stroke="#666666" points="591.5,-260 478.5,-260 478.5,-230 591.5,-230 591.5,-260"/>
<text text-anchor="start" x="486.5" y="-248" font-family="Helvetica,sans-Serif" font-size="10.00">atlas_context::write</text>
<text text-anchor="middle" x="535" y="-237" font-family="Helvetica,sans-Serif" font-size="10.00">_atlas_nal</text>
</a>
</g>
</g>
<!-- Node2&#45;&gt;Node9 -->
<g id="edge9_Node000002_Node000009" class="edge">
<title>Node2&#45;&gt;Node9</title>
<g id="a_edge9_Node000002_Node000009"><a xlink:title=" ">
<path fill="none" stroke="#63b8ff" d="M655.95,-209.46C634.83,-215.72 609.07,-223.35 586.84,-229.94"/>
<polygon fill="#63b8ff" stroke="#63b8ff" points="657.01,-212.79 665.61,-206.6 655.02,-206.08 657.01,-212.79"/>
</a>
</g>
</g>
<!-- Node10 -->
<g id="Node000010" class="node">
<title>Node10</title>
<g id="a_Node000010"><a xlink:href="classatlas__context.html#ab3da4e46b1b81ce24bcc82e93c4fe3ab" target="_top" xlink:title=" ">
<polygon fill="white" stroke="#666666" points="609,-212 461,-212 461,-182 609,-182 609,-212"/>
<text text-anchor="start" x="469" y="-200" font-family="Helvetica,sans-Serif" font-size="10.00">atlas_context::write</text>
<text text-anchor="middle" x="535" y="-189" font-family="Helvetica,sans-Serif" font-size="10.00">_atlas_parameter_set_nals</text>
</a>
</g>
</g>
<!-- Node2&#45;&gt;Node10 -->
<g id="edge10_Node000002_Node000010" class="edge">
<title>Node2&#45;&gt;Node10</title>
<g id="a_edge10_Node000002_Node000010"><a xlink:title=" ">
<path fill="none" stroke="#63b8ff" d="M634.85,-197C626.43,-197 617.74,-197 609.17,-197"/>
<polygon fill="#63b8ff" stroke="#63b8ff" points="634.96,-200.5 644.96,-197 634.96,-193.5 634.96,-200.5"/>
</a>
</g>
</g>
<!-- Node11 -->
<g id="Node000011" class="node">
<title>Node11</title>
<g id="a_Node000011"><a xlink:href="classatlas__context.html#a24296684ad259ec9f83aec0bd2bbf53c" target="_top" xlink:title=" ">
<polygon fill="white" stroke="#666666" points="595.5,-164 474.5,-164 474.5,-134 595.5,-134 595.5,-164"/>
<text text-anchor="start" x="482.5" y="-152" font-family="Helvetica,sans-Serif" font-size="10.00">atlas_context::write</text>
<text text-anchor="middle" x="535" y="-141" font-family="Helvetica,sans-Serif" font-size="10.00">_atlas_sub_bitstream</text>
</a>
</g>
</g>
<!-- Node2&#45;&gt;Node11 -->
<g id="edge11_Node000002_Node000011" class="edge">
<title>Node2&#45;&gt;Node11</title>
<g id="a_edge11_Node000002_Node000011"><a xlink:title=" ">
<path fill="none" stroke="#63b8ff" d="M655.95,-184.54C634.83,-178.28 609.07,-170.65 586.84,-164.06"/>
<polygon fill="#63b8ff" stroke="#63b8ff" points="655.02,-187.92 665.61,-187.4 657.01,-181.21 655.02,-187.92"/>
</a>
</g>
</g>
<!-- Node12 -->
<g id="Node000012" class="node">
<title>Node12</title>
<g id="a_Node000012"><a xlink:href="classv3c__gof.html#a7623e830a39058987eaea7f9ff65bf72" target="_top" xlink:title=" ">
<polygon fill="white" stroke="#666666" points="588.5,-78 481.5,-78 481.5,-48 588.5,-48 588.5,-78"/>
<text text-anchor="start" x="489.5" y="-66" font-family="Helvetica,sans-Serif" font-size="10.00">v3c_gof::write_v3c</text>
<text text-anchor="middle" x="535" y="-55" font-family="Helvetica,sans-Serif" font-size="10.00">_chunk</text>
</a>
</g>
</g>
<!-- Node2&#45;&gt;Node12 -->
<g id="edge12_Node000002_Node000012" class="edge">
<title>Node2&#45;&gt;Node12</title>
<g id="a_edge12_Node000002_Node000012"><a xlink:title=" ">
<path fill="none" stroke="#63b8ff" d="M687.51,-178.22C672.95,-153.81 644.36,-111.4 609,-87 602.85,-82.76 595.9,-79.22 588.79,-76.29"/>
<polygon fill="#63b8ff" stroke="#63b8ff" points="684.67,-180.3 692.71,-187.2 690.72,-176.79 684.67,-180.3"/>
</a>
</g>
</g>
<!-- Node17 -->
<g id="Node000017" class="node">
<title>Node17</title>
<g id="a_Node000017"><a xlink:href="classv3c__gof.html#a16c6c5414ca72ba7a33ab15981c7b40c" target="_top" xlink:title=" ">
<polygon fill="white" stroke="#666666" points="588.5,-30 481.5,-30 481.5,0 588.5,0 588.5,-30"/>
<text text-anchor="start" x="489.5" y="-18" font-family="Helvetica,sans-Serif" font-size="10.00">v3c_gof::write_v3c</text>
<text text-anchor="middle" x="535" y="-7" font-family="Helvetica,sans-Serif" font-size="10.00">_ld_chunk</text>
</a>
</g>
</g>
<!-- Node2&#45;&gt;Node17 -->
<g id="edge18_Node000002_Node000017" class="edge">
<title>Node2&#45;&gt;Node17</title>
<g id="a_edge18_Node000002_Node000017"><a xlink:title=" ">
<path fill="none" stroke="#63b8ff" d="M692.14,-177.31C681.23,-144.01 654.68,-76.53 609,-39 603.02,-34.09 596,-30.17 588.73,-27.05"/>
<polygon fill="#63b8ff" stroke="#63b8ff" points="688.91,-178.71 695.24,-187.2 695.59,-176.61 688.91,-178.71"/>
</a>
</g>
</g>
<!-- Node18 -->
<g id="Node000018" class="node">
<title>Node18</title>
<g id="a_Node000018"><a xlink:href="bitstream__util_8cpp.html#aa8c4c50cd09a25e7222ff889eb4fa737" target="_top" xlink:title=" ">
<polygon fill="white" stroke="#666666" points="378.5,-390.5 329.5,-390.5 329.5,-371.5 378.5,-371.5 378.5,-390.5"/>
<text text-anchor="middle" x="354" y="-378.5" font-family="Helvetica,sans-Serif" font-size="10.00">writeU</text>
</a>
</g>
</g>
<!-- Node2&#45;&gt;Node18 -->
<g id="edge20_Node000002_Node000018" class="edge">
<title>Node2&#45;&gt;Node18</title>
<g id="a_edge20_Node000002_Node000018"><a xlink:title=" ">
<path fill="none" stroke="#63b8ff" d="M694.09,-216.73C685.71,-253.21 662.28,-330.61 609,-365 536.43,-411.85 426.57,-396.48 378.69,-386.59"/>
<polygon fill="#63b8ff" stroke="#63b8ff" points="697.54,-217.33 696.23,-206.82 690.7,-215.86 697.54,-217.33"/>
</a>
</g>
</g>
<!-- Node4 -->
<g id="Node000004" class="node">
<title>Node4</title>
<g id="a_Node000004"><a xlink:href="bitstream__util_8cpp.html#a7a68eb472ffb2162b61292d074642d4c" target="_top" xlink:title=" ">
<polygon fill="white" stroke="#666666" points="412,-350.5 296,-350.5 296,-331.5 412,-331.5 412,-350.5"/>
<text text-anchor="middle" x="354" y="-338.5" font-family="Helvetica,sans-Serif" font-size="10.00">uvg_bitstream_align</text>
</a>
</g>
</g>
<!-- Node3&#45;&gt;Node4 -->
<g id="edge3_Node000003_Node000004" class="edge">
<title>Node3&#45;&gt;Node4</title>
<g id="a_edge3_Node000003_Node000004"><a xlink:title=" ">
<path fill="none" stroke="#63b8ff" d="M456.19,-341C441.43,-341 426.23,-341 412.24,-341"/>
<polygon fill="#63b8ff" stroke="#63b8ff" points="456.33,-344.5 466.33,-341 456.33,-337.5 456.33,-344.5"/>
</a>
</g>
</g>
<!-- Node5 -->
<g id="Node000005" class="node">
<title>Node5</title>
<g id="a_Node000005"><a xlink:href="classvps.html#a621f597b4c41ed6cde608d6932299803" target="_top" xlink:title=" ">
<polygon fill="white" stroke="#666666" points="205.5,-350.5 118.5,-350.5 118.5,-331.5 205.5,-331.5 205.5,-350.5"/>
<text text-anchor="middle" x="162" y="-338.5" font-family="Helvetica,sans-Serif" font-size="10.00">vps::write_vps</text>
</a>
</g>
</g>
<!-- Node4&#45;&gt;Node5 -->
<g id="edge4_Node000004_Node000005" class="edge">
<title>Node4&#45;&gt;Node5</title>
<g id="a_edge4_Node000004_Node000005"><a xlink:title=" ">
<path fill="none" stroke="#63b8ff" d="M285.95,-341C259.29,-341 229.4,-341 205.77,-341"/>
<polygon fill="#63b8ff" stroke="#63b8ff" points="285.99,-344.5 295.99,-341 285.99,-337.5 285.99,-344.5"/>
</a>
</g>
</g>
<!-- Node7 -->
<g id="Node000007" class="node">
<title>Node7</title>
<g id="a_Node000007"><a xlink:href="bitstream__util_8cpp.html#ae284706aa3795e821fc5e735c7195149" target="_top" xlink:title=" ">
<polygon fill="white" stroke="#666666" points="381.5,-127.5 326.5,-127.5 326.5,-108.5 381.5,-108.5 381.5,-127.5"/>
<text text-anchor="middle" x="354" y="-115.5" font-family="Helvetica,sans-Serif" font-size="10.00">writeUE</text>
</a>
</g>
</g>
<!-- Node6&#45;&gt;Node7 -->
<g id="edge6_Node000006_Node000007" class="edge">
<title>Node6&#45;&gt;Node7</title>
<g id="a_edge6_Node000006_Node000007"><a xlink:title=" ">
<path fill="none" stroke="#63b8ff" d="M462.09,-110.82C433.75,-112.72 402.95,-114.79 381.69,-116.21"/>
<polygon fill="#63b8ff" stroke="#63b8ff" points="462.65,-114.29 472.4,-110.13 462.19,-107.31 462.65,-114.29"/>
</a>
</g>
</g>
<!-- Node7&#45;&gt;Node5 -->
<g id="edge7_Node000007_Node000005" class="edge">
<title>Node7&#45;&gt;Node5</title>
<g id="a_edge7_Node000007_Node000005"><a xlink:title=" ">
<path fill="none" stroke="#63b8ff" d="M338.33,-135.22C300.46,-179.67 200.38,-297.13 171.13,-331.45"/>
<polygon fill="#63b8ff" stroke="#63b8ff" points="341.01,-137.46 344.84,-127.58 335.69,-132.92 341.01,-137.46"/>
</a>
</g>
</g>
<!-- Node13 -->
<g id="Node000013" class="node">
<title>Node13</title>
<g id="a_Node000013"><a xlink:href="classBitstreamGeneration.html#a575d20f0f40bad111cab04d0b4f259ee" target="_top" xlink:title=" ">
<polygon fill="white" stroke="#666666" points="425,-66 283,-66 283,-36 425,-36 425,-66"/>
<text text-anchor="start" x="291" y="-54" font-family="Helvetica,sans-Serif" font-size="10.00">BitstreamGeneration</text>
<text text-anchor="middle" x="354" y="-43" font-family="Helvetica,sans-Serif" font-size="10.00">::createV3CGOFBitstream</text>
</a>
</g>
</g>
<!-- Node12&#45;&gt;Node13 -->
<g id="edge13_Node000012_Node000013" class="edge">
<title>Node12&#45;&gt;Node13</title>
<g id="a_edge13_Node000012_Node000013"><a xlink:title=" ">
<path fill="none" stroke="#63b8ff" d="M471.18,-58.79C456.34,-57.79 440.43,-56.73 425.28,-55.71"/>
<polygon fill="#63b8ff" stroke="#63b8ff" points="471.05,-62.29 481.26,-59.46 471.52,-55.3 471.05,-62.29"/>
</a>
</g>
</g>
<!-- Node14 -->
<g id="Node000014" class="node">
<title>Node14</title>
<g id="a_Node000014"><a xlink:href="namespaceuvgvpcc__enc_1_1API.html#a75dacaf2d79b4a549ecb2a91ae8a6105" target="_top" xlink:title="This function is called when all frames to be processed have been sent to the encoder....">
<polygon fill="white" stroke="#666666" points="247,-90 77,-90 77,-60 247,-60 247,-90"/>
<text text-anchor="start" x="85" y="-78" font-family="Helvetica,sans-Serif" font-size="10.00">uvgvpcc_enc::API::emptyFrame</text>
<text text-anchor="middle" x="162" y="-67" font-family="Helvetica,sans-Serif" font-size="10.00">Queue</text>
</a>
</g>
</g>
<!-- Node13&#45;&gt;Node14 -->
<g id="edge14_Node000013_Node000014" class="edge">
<title>Node13&#45;&gt;Node14</title>
<g id="a_edge14_Node000013_Node000014"><a xlink:title=" ">
<path fill="none" stroke="#63b8ff" d="M272.59,-61.16C264.15,-62.22 255.55,-63.31 247.07,-64.38"/>
<polygon fill="#63b8ff" stroke="#63b8ff" points="273.31,-64.59 282.79,-59.87 272.43,-57.65 273.31,-64.59"/>
</a>
</g>
</g>
<!-- Node16 -->
<g id="Node000016" class="node">
<title>Node16</title>
<g id="a_Node000016"><a xlink:href="namespaceuvgvpcc__enc_1_1API.html#ac96f1663ec59a1bbc04778ae958780fa" target="_top" xlink:title="Entry point of the uvgVPCCenc library. Take as input a frame. Create all the jobs for processing this...">
<polygon fill="white" stroke="#666666" points="233.5,-42 90.5,-42 90.5,-12 233.5,-12 233.5,-42"/>
<text text-anchor="start" x="98.5" y="-30" font-family="Helvetica,sans-Serif" font-size="10.00">uvgvpcc_enc::API::encode</text>
<text text-anchor="middle" x="162" y="-19" font-family="Helvetica,sans-Serif" font-size="10.00">Frame</text>
</a>
</g>
</g>
<!-- Node13&#45;&gt;Node16 -->
<g id="edge16_Node000013_Node000016" class="edge">
<title>Node13&#45;&gt;Node16</title>
<g id="a_edge16_Node000013_Node000016"><a xlink:title=" ">
<path fill="none" stroke="#63b8ff" d="M272.51,-40.83C259.56,-39.2 246.25,-37.52 233.55,-35.91"/>
<polygon fill="#63b8ff" stroke="#63b8ff" points="272.43,-44.35 282.79,-42.13 273.31,-37.41 272.43,-44.35"/>
</a>
</g>
</g>
<!-- Node15 -->
<g id="Node000015" class="node">
<title>Node15</title>
<g id="a_Node000015"><a xlink:href="uvgVPCCencAppExample_8cpp.html#aee608aedd5b0b58f2966c2ff15101925" target="_top" xlink:title="This example application offers a simple approach to working with the uvgVPCCenc library and highligh...">
<polygon fill="white" stroke="#666666" points="41,-60.5 0,-60.5 0,-41.5 41,-41.5 41,-60.5"/>
<text text-anchor="middle" x="20.5" y="-48.5" font-family="Helvetica,sans-Serif" font-size="10.00">main</text>
</a>
</g>
</g>
<!-- Node14&#45;&gt;Node15 -->
<g id="edge15_Node000014_Node000015" class="edge">
<title>Node14&#45;&gt;Node15</title>
<g id="a_edge15_Node000014_Node000015"><a xlink:title=" ">
<path fill="none" stroke="#63b8ff" d="M66.61,-58.76C57.19,-57.14 48.46,-55.64 41.24,-54.4"/>
<polygon fill="#63b8ff" stroke="#63b8ff" points="66.19,-62.24 76.63,-60.49 67.37,-55.34 66.19,-62.24"/>
</a>
</g>
</g>
<!-- Node16&#45;&gt;Node15 -->
<g id="edge17_Node000016_Node000015" class="edge">
<title>Node16&#45;&gt;Node15</title>
<g id="a_edge17_Node000016_Node000015"><a xlink:title=" ">
<path fill="none" stroke="#63b8ff" d="M80.29,-40.89C65.73,-43.39 51.83,-45.78 41.2,-47.61"/>
<polygon fill="#63b8ff" stroke="#63b8ff" points="81.17,-44.29 90.43,-39.14 79.98,-37.39 81.17,-44.29"/>
</a>
</g>
</g>
<!-- Node17&#45;&gt;Node13 -->
<g id="edge19_Node000017_Node000013" class="edge">
<title>Node17&#45;&gt;Node13</title>
<g id="a_edge19_Node000017_Node000013"><a xlink:title=" ">
<path fill="none" stroke="#63b8ff" d="M471.18,-27.63C456.34,-30.62 440.43,-33.82 425.28,-36.87"/>
<polygon fill="#63b8ff" stroke="#63b8ff" points="472.15,-31.01 481.26,-25.61 470.77,-24.15 472.15,-31.01"/>
</a>
</g>
</g>
<!-- Node18&#45;&gt;Node5 -->
<g id="edge21_Node000018_Node000005" class="edge">
<title>Node18&#45;&gt;Node5</title>
<g id="a_edge21_Node000018_Node000005"><a xlink:title=" ">
<path fill="none" stroke="#63b8ff" d="M319.24,-373.89C287.59,-367.23 240.14,-357.24 205.84,-350.02"/>
<polygon fill="#63b8ff" stroke="#63b8ff" points="318.81,-377.38 329.32,-376.01 320.26,-370.53 318.81,-377.38"/>
</a>
</g>
</g>
</g>
</svg>

<g id="navigator" transform="translate(0 0)" fill="#404254">
  <rect fill="#f2f5e9" fill-opacity="0.5" stroke="#606060" stroke-width=".5" x="0" y="0" width="60" height="60"/>
  <use id="zoomplus" xlink:href="#zoomPlus" x="17" y="9" onmousedown="handleZoom(evt,'in')"/>
  <use id="zoomminus" xlink:href="#zoomMin" x="42" y="9" onmousedown="handleZoom(evt,'out')"/>
  <use id="reset" xlink:href="#resetDef" x="30" y="36" onmousedown="handleReset()"/>
   <use id="arrowup" xlink:href="#arrowUp" x="0" y="0" onmousedown="handlePan(0,-1)"/>
  <use id="arrowright" xlink:href="#arrowRight" x="0" y="0" onmousedown="handlePan(1,0)"/>
  <use id="arrowdown" xlink:href="#arrowDown" x="0" y="0" onmousedown="handlePan(0,1)"/>
  <use id="arrowleft" xlink:href="#arrowLeft" x="0" y="0" onmousedown="handlePan(-1,0)"/>
</g>
<svg viewBox="0 0 15 15" width="100%" height="30px" preserveAspectRatio="xMaxYMin meet">
 <g id="arrow_out" transform="scale(0.3 0.3)">
  <a xlink:href="bitstream__util_8cpp_a7cf378cfbd682b58c16948ad8935d7bc_icgraph_org.svg" target="_base">
   <rect id="button" ry="5" rx="5" y="6" x="6" height="38" width="38"
        fill="#f2f5e9" fill-opacity="0.5" stroke="#606060" stroke-width="1.0"/>
   <path id="arrow"
     d="M 11.500037,31.436501 C 11.940474,20.09759 22.043105,11.32322 32.158766,21.979434 L 37.068811,17.246167 C 37.068811,17.246167 37.088388,32 37.088388,32 L 22.160133,31.978069 C 22.160133,31.978069 26.997745,27.140456 26.997745,27.140456 C 18.528582,18.264221 13.291696,25.230495 11.500037,31.436501 z"
     style="fill:#404040;"/>
  </a>
 </g>
</svg>

<style type='text/css'>
<![CDATA[
[data-mouse-over-selected='false'] { opacity: 0.7; }
[data-mouse-over-selected='true']  { opacity: 1.0; }
]]>
</style>
<script type="application/ecmascript"><![CDATA[
document.addEventListener('DOMContentLoaded', (event) => {
  highlightEdges();
  highlightAdjacentNodes();
});
]]></script>
</svg>
