<?xml version="1.0" encoding="UTF-8" standalone="no"?>
<!DOCTYPE svg PUBLIC "-//W3C//DTD SVG 1.1//EN"
 "http://www.w3.org/Graphics/SVG/1.1/DTD/svg11.dtd">
<!-- Generated by graphviz version 2.43.0 (0)
 -->
<!-- Title: uvg_bitstream_put Pages: 1 -->
<svg width="761pt" height="364pt"
 viewBox="0.00 0.00 761.00 364.00" xmlns="http://www.w3.org/2000/svg" xmlns:xlink="http://www.w3.org/1999/xlink">
<g id="graph0" class="graph" transform="scale(1 1) rotate(0) translate(4 360)">
<title>uvg_bitstream_put</title>
<!-- Node1 -->
<g id="Node000001" class="node">
<title>Node1</title>
<g id="a_Node000001"><a xlink:title=" ">
<polygon fill="#999999" stroke="#666666" points="753,-192.5 645,-192.5 645,-173.5 753,-173.5 753,-192.5"/>
<text text-anchor="middle" x="699" y="-180.5" font-family="Helvetica,sans-Serif" font-size="10.00">uvg_bitstream_put</text>
</a>
</g>
</g>
<!-- Node2 -->
<g id="Node000002" class="node">
<title>Node2</title>
<g id="a_Node000002"><a xlink:href="bitstream__util_8cpp.html#a423bd5bc72b723f5642a91deb7a5cb0b" target="_top" xlink:title=" ">
<polygon fill="white" stroke="#666666" points="603.5,-356 466.5,-356 466.5,-326 603.5,-326 603.5,-356"/>
<text text-anchor="start" x="474.5" y="-344" font-family="Helvetica,sans-Serif" font-size="10.00">uvg_bitstream_add_rbsp</text>
<text text-anchor="middle" x="535" y="-333" font-family="Helvetica,sans-Serif" font-size="10.00">_trailing_bits</text>
</a>
</g>
</g>
<!-- Node1&#45;&gt;Node2 -->
<g id="edge1_Node000001_Node000002" class="edge">
<title>Node1&#45;&gt;Node2</title>
<g id="a_edge1_Node000001_Node000002"><a xlink:title=" ">
<path fill="none" stroke="#63b8ff" d="M690.25,-202.12C677.53,-231.12 649.56,-286.1 609,-317 604.54,-320.4 599.58,-323.32 594.41,-325.84"/>
<polygon fill="#63b8ff" stroke="#63b8ff" points="693.56,-203.28 694.23,-192.7 687.11,-200.55 693.56,-203.28"/>
</a>
</g>
</g>
<!-- Node5 -->
<g id="Node000005" class="node">
<title>Node5</title>
<g id="a_Node000005"><a xlink:href="bitstream__util_8cpp.html#a30bd11b6c91d37315d3ee911d83a72ed" target="_top" xlink:title=" ">
<polygon fill="white" stroke="#666666" points="597.5,-307.5 472.5,-307.5 472.5,-288.5 597.5,-288.5 597.5,-307.5"/>
<text text-anchor="middle" x="535" y="-295.5" font-family="Helvetica,sans-Serif" font-size="10.00">uvg_bitstream_put_ue</text>
</a>
</g>
</g>
<!-- Node1&#45;&gt;Node5 -->
<g id="edge4_Node000001_Node000005" class="edge">
<title>Node1&#45;&gt;Node5</title>
<g id="a_edge4_Node000001_Node000005"><a xlink:title=" ">
<path fill="none" stroke="#63b8ff" d="M686.25,-200.94C671.03,-222.71 642.45,-259 609,-279 602.48,-282.9 595.17,-286.01 587.76,-288.48"/>
<polygon fill="#63b8ff" stroke="#63b8ff" points="689.2,-202.82 691.93,-192.58 683.41,-198.88 689.2,-202.82"/>
</a>
</g>
</g>
<!-- Node6 -->
<g id="Node000006" class="node">
<title>Node6</title>
<g id="a_Node000006"><a xlink:href="classatlas__context.html#a56450f7f8e92c4a07026d4d7c4be7dcd" target="_top" xlink:title=" ">
<polygon fill="white" stroke="#666666" points="591.5,-270 478.5,-270 478.5,-240 591.5,-240 591.5,-270"/>
<text text-anchor="start" x="486.5" y="-258" font-family="Helvetica,sans-Serif" font-size="10.00">atlas_context::write</text>
<text text-anchor="middle" x="535" y="-247" font-family="Helvetica,sans-Serif" font-size="10.00">_atlas_eob</text>
</a>
</g>
</g>
<!-- Node1&#45;&gt;Node6 -->
<g id="edge5_Node000001_Node000006" class="edge">
<title>Node1&#45;&gt;Node6</title>
<g id="a_edge5_Node000001_Node000006"><a xlink:title=" ">
<path fill="none" stroke="#63b8ff" d="M673.35,-197.83C655.81,-208 631.45,-221.34 609,-231 601.65,-234.16 593.73,-237.16 585.92,-239.9"/>
<polygon fill="#63b8ff" stroke="#63b8ff" points="675.49,-200.63 682.34,-192.55 671.95,-194.59 675.49,-200.63"/>
</a>
</g>
</g>
<!-- Node7 -->
<g id="Node000007" class="node">
<title>Node7</title>
<g id="a_Node000007"><a xlink:href="classatlas__context.html#a144495d5cb47643d5d9bcf4283a8f97f" target="_top" xlink:title=" ">
<polygon fill="white" stroke="#666666" points="591.5,-222 478.5,-222 478.5,-192 591.5,-192 591.5,-222"/>
<text text-anchor="start" x="486.5" y="-210" font-family="Helvetica,sans-Serif" font-size="10.00">atlas_context::write</text>
<text text-anchor="middle" x="535" y="-199" font-family="Helvetica,sans-Serif" font-size="10.00">_atlas_nal</text>
</a>
</g>
</g>
<!-- Node1&#45;&gt;Node7 -->
<g id="edge6_Node000001_Node000007" class="edge">
<title>Node1&#45;&gt;Node7</title>
<g id="a_edge6_Node000001_Node000007"><a xlink:title=" ">
<path fill="none" stroke="#63b8ff" d="M634.76,-192.37C620.54,-194.48 605.55,-196.7 591.67,-198.75"/>
<polygon fill="#63b8ff" stroke="#63b8ff" points="635.58,-195.79 644.96,-190.86 634.55,-188.86 635.58,-195.79"/>
</a>
</g>
</g>
<!-- Node8 -->
<g id="Node000008" class="node">
<title>Node8</title>
<g id="a_Node000008"><a xlink:href="classatlas__context.html#ab3da4e46b1b81ce24bcc82e93c4fe3ab" target="_top" xlink:title=" ">
<polygon fill="white" stroke="#666666" points="609,-174 461,-174 461,-144 609,-144 609,-174"/>
<text text-anchor="start" x="469" y="-162" font-family="Helvetica,sans-Serif" font-size="10.00">atlas_context::write</text>
<text text-anchor="middle" x="535" y="-151" font-family="Helvetica,sans-Serif" font-size="10.00">_atlas_parameter_set_nals</text>
</a>
</g>
</g>
<!-- Node1&#45;&gt;Node8 -->
<g id="edge7_Node000001_Node000008" class="edge">
<title>Node1&#45;&gt;Node8</title>
<g id="a_edge7_Node000001_Node000008"><a xlink:title=" ">
<path fill="none" stroke="#63b8ff" d="M634.85,-173.64C626.43,-172.4 617.74,-171.11 609.17,-169.84"/>
<polygon fill="#63b8ff" stroke="#63b8ff" points="634.55,-177.14 644.96,-175.14 635.58,-170.21 634.55,-177.14"/>
</a>
</g>
</g>
<!-- Node9 -->
<g id="Node000009" class="node">
<title>Node9</title>
<g id="a_Node000009"><a xlink:href="classatlas__context.html#a24296684ad259ec9f83aec0bd2bbf53c" target="_top" xlink:title=" ">
<polygon fill="white" stroke="#666666" points="595.5,-126 474.5,-126 474.5,-96 595.5,-96 595.5,-126"/>
<text text-anchor="start" x="482.5" y="-114" font-family="Helvetica,sans-Serif" font-size="10.00">atlas_context::write</text>
<text text-anchor="middle" x="535" y="-103" font-family="Helvetica,sans-Serif" font-size="10.00">_atlas_sub_bitstream</text>
</a>
</g>
</g>
<!-- Node1&#45;&gt;Node9 -->
<g id="edge8_Node000001_Node000009" class="edge">
<title>Node1&#45;&gt;Node9</title>
<g id="a_edge8_Node000001_Node000009"><a xlink:title=" ">
<path fill="none" stroke="#63b8ff" d="M673.35,-168.17C655.81,-158 631.45,-144.66 609,-135 601.65,-131.84 593.73,-128.84 585.92,-126.1"/>
<polygon fill="#63b8ff" stroke="#63b8ff" points="671.95,-171.41 682.34,-173.45 675.49,-165.37 671.95,-171.41"/>
</a>
</g>
</g>
<!-- Node10 -->
<g id="Node000010" class="node">
<title>Node10</title>
<g id="a_Node000010"><a xlink:href="classv3c__gof.html#a7623e830a39058987eaea7f9ff65bf72" target="_top" xlink:title=" ">
<polygon fill="white" stroke="#666666" points="588.5,-78 481.5,-78 481.5,-48 588.5,-48 588.5,-78"/>
<text text-anchor="start" x="489.5" y="-66" font-family="Helvetica,sans-Serif" font-size="10.00">v3c_gof::write_v3c</text>
<text text-anchor="middle" x="535" y="-55" font-family="Helvetica,sans-Serif" font-size="10.00">_chunk</text>
</a>
</g>
</g>
<!-- Node1&#45;&gt;Node10 -->
<g id="edge9_Node000001_Node000010" class="edge">
<title>Node1&#45;&gt;Node10</title>
<g id="a_edge9_Node000001_Node000010"><a xlink:title=" ">
<path fill="none" stroke="#63b8ff" d="M685.8,-165.08C670.31,-143.61 641.64,-107.94 609,-87 602.71,-82.97 595.68,-79.55 588.53,-76.67"/>
<polygon fill="#63b8ff" stroke="#63b8ff" points="682.98,-167.16 691.6,-173.32 688.71,-163.13 682.98,-167.16"/>
</a>
</g>
</g>
<!-- Node15 -->
<g id="Node000015" class="node">
<title>Node15</title>
<g id="a_Node000015"><a xlink:href="classv3c__gof.html#a16c6c5414ca72ba7a33ab15981c7b40c" target="_top" xlink:title=" ">
<polygon fill="white" stroke="#666666" points="588.5,-30 481.5,-30 481.5,0 588.5,0 588.5,-30"/>
<text text-anchor="start" x="489.5" y="-18" font-family="Helvetica,sans-Serif" font-size="10.00">v3c_gof::write_v3c</text>
<text text-anchor="middle" x="535" y="-7" font-family="Helvetica,sans-Serif" font-size="10.00">_ld_chunk</text>
</a>
</g>
</g>
<!-- Node1&#45;&gt;Node15 -->
<g id="edge15_Node000001_Node000015" class="edge">
<title>Node1&#45;&gt;Node15</title>
<g id="a_edge15_Node000001_Node000015"><a xlink:title=" ">
<path fill="none" stroke="#63b8ff" d="M691.15,-163.76C679.22,-132.98 651.74,-72.68 609,-39 602.92,-34.21 595.85,-30.36 588.55,-27.27"/>
<polygon fill="#63b8ff" stroke="#63b8ff" points="687.94,-165.19 694.72,-173.33 694.5,-162.74 687.94,-165.19"/>
</a>
</g>
</g>
<!-- Node3 -->
<g id="Node000003" class="node">
<title>Node3</title>
<g id="a_Node000003"><a xlink:href="bitstream__util_8cpp.html#a7a68eb472ffb2162b61292d074642d4c" target="_top" xlink:title=" ">
<polygon fill="white" stroke="#666666" points="412,-350.5 296,-350.5 296,-331.5 412,-331.5 412,-350.5"/>
<text text-anchor="middle" x="354" y="-338.5" font-family="Helvetica,sans-Serif" font-size="10.00">uvg_bitstream_align</text>
</a>
</g>
</g>
<!-- Node2&#45;&gt;Node3 -->
<g id="edge2_Node000002_Node000003" class="edge">
<title>Node2&#45;&gt;Node3</title>
<g id="a_edge2_Node000002_Node000003"><a xlink:title=" ">
<path fill="none" stroke="#63b8ff" d="M456.19,-341C441.43,-341 426.23,-341 412.24,-341"/>
<polygon fill="#63b8ff" stroke="#63b8ff" points="456.33,-344.5 466.33,-341 456.33,-337.5 456.33,-344.5"/>
</a>
</g>
</g>
<!-- Node4 -->
<g id="Node000004" class="node">
<title>Node4</title>
<g id="a_Node000004"><a xlink:href="classvps.html#a621f597b4c41ed6cde608d6932299803" target="_top" xlink:title=" ">
<polygon fill="white" stroke="#666666" points="205.5,-350.5 118.5,-350.5 118.5,-331.5 205.5,-331.5 205.5,-350.5"/>
<text text-anchor="middle" x="162" y="-338.5" font-family="Helvetica,sans-Serif" font-size="10.00">vps::write_vps</text>
</a>
</g>
</g>
<!-- Node3&#45;&gt;Node4 -->
<g id="edge3_Node000003_Node000004" class="edge">
<title>Node3&#45;&gt;Node4</title>
<g id="a_edge3_Node000003_Node000004"><a xlink:title=" ">
<path fill="none" stroke="#63b8ff" d="M285.95,-341C259.29,-341 229.4,-341 205.77,-341"/>
<polygon fill="#63b8ff" stroke="#63b8ff" points="285.99,-344.5 295.99,-341 285.99,-337.5 285.99,-344.5"/>
</a>
</g>
</g>
<!-- Node11 -->
<g id="Node000011" class="node">
<title>Node11</title>
<g id="a_Node000011"><a xlink:href="classBitstreamGeneration.html#a575d20f0f40bad111cab04d0b4f259ee" target="_top" xlink:title=" ">
<polygon fill="white" stroke="#666666" points="425,-54 283,-54 283,-24 425,-24 425,-54"/>
<text text-anchor="start" x="291" y="-42" font-family="Helvetica,sans-Serif" font-size="10.00">BitstreamGeneration</text>
<text text-anchor="middle" x="354" y="-31" font-family="Helvetica,sans-Serif" font-size="10.00">::createV3CGOFBitstream</text>
</a>
</g>
</g>
<!-- Node10&#45;&gt;Node11 -->
<g id="edge10_Node000010_Node000011" class="edge">
<title>Node10&#45;&gt;Node11</title>
<g id="a_edge10_Node000010_Node000011"><a xlink:title=" ">
<path fill="none" stroke="#63b8ff" d="M471.18,-54.58C456.34,-52.59 440.43,-50.45 425.28,-48.42"/>
<polygon fill="#63b8ff" stroke="#63b8ff" points="470.89,-58.07 481.26,-55.93 471.82,-51.13 470.89,-58.07"/>
</a>
</g>
</g>
<!-- Node12 -->
<g id="Node000012" class="node">
<title>Node12</title>
<g id="a_Node000012"><a xlink:href="namespaceuvgvpcc__enc_1_1API.html#a75dacaf2d79b4a549ecb2a91ae8a6105" target="_top" xlink:title="This function is called when all frames to be processed have been sent to the encoder....">
<polygon fill="white" stroke="#666666" points="247,-78 77,-78 77,-48 247,-48 247,-78"/>
<text text-anchor="start" x="85" y="-66" font-family="Helvetica,sans-Serif" font-size="10.00">uvgvpcc_enc::API::emptyFrame</text>
<text text-anchor="middle" x="162" y="-55" font-family="Helvetica,sans-Serif" font-size="10.00">Queue</text>
</a>
</g>
</g>
<!-- Node11&#45;&gt;Node12 -->
<g id="edge11_Node000011_Node000012" class="edge">
<title>Node11&#45;&gt;Node12</title>
<g id="a_edge11_Node000011_Node000012"><a xlink:title=" ">
<path fill="none" stroke="#63b8ff" d="M272.59,-49.16C264.15,-50.22 255.55,-51.31 247.07,-52.38"/>
<polygon fill="#63b8ff" stroke="#63b8ff" points="273.31,-52.59 282.79,-47.87 272.43,-45.65 273.31,-52.59"/>
</a>
</g>
</g>
<!-- Node14 -->
<g id="Node000014" class="node">
<title>Node14</title>
<g id="a_Node000014"><a xlink:href="namespaceuvgvpcc__enc_1_1API.html#ac96f1663ec59a1bbc04778ae958780fa" target="_top" xlink:title="Entry point of the uvgVPCCenc library. Take as input a frame. Create all the jobs for processing this...">
<polygon fill="white" stroke="#666666" points="233.5,-30 90.5,-30 90.5,0 233.5,0 233.5,-30"/>
<text text-anchor="start" x="98.5" y="-18" font-family="Helvetica,sans-Serif" font-size="10.00">uvgvpcc_enc::API::encode</text>
<text text-anchor="middle" x="162" y="-7" font-family="Helvetica,sans-Serif" font-size="10.00">Frame</text>
</a>
</g>
</g>
<!-- Node11&#45;&gt;Node14 -->
<g id="edge13_Node000011_Node000014" class="edge">
<title>Node11&#45;&gt;Node14</title>
<g id="a_edge13_Node000011_Node000014"><a xlink:title=" ">
<path fill="none" stroke="#63b8ff" d="M272.51,-28.83C259.56,-27.2 246.25,-25.52 233.55,-23.91"/>
<polygon fill="#63b8ff" stroke="#63b8ff" points="272.43,-32.35 282.79,-30.13 273.31,-25.41 272.43,-32.35"/>
</a>
</g>
</g>
<!-- Node13 -->
<g id="Node000013" class="node">
<title>Node13</title>
<g id="a_Node000013"><a xlink:href="uvgVPCCencAppExample_8cpp.html#aee608aedd5b0b58f2966c2ff15101925" target="_top" xlink:title="This example application offers a simple approach to working with the uvgVPCCenc library and highligh...">
<polygon fill="white" stroke="#666666" points="41,-48.5 0,-48.5 0,-29.5 41,-29.5 41,-48.5"/>
<text text-anchor="middle" x="20.5" y="-36.5" font-family="Helvetica,sans-Serif" font-size="10.00">main</text>
</a>
</g>
</g>
<!-- Node12&#45;&gt;Node13 -->
<g id="edge12_Node000012_Node000013" class="edge">
<title>Node12&#45;&gt;Node13</title>
<g id="a_edge12_Node000012_Node000013"><a xlink:title=" ">
<path fill="none" stroke="#63b8ff" d="M66.61,-46.76C57.19,-45.14 48.46,-43.64 41.24,-42.4"/>
<polygon fill="#63b8ff" stroke="#63b8ff" points="66.19,-50.24 76.63,-48.49 67.37,-43.34 66.19,-50.24"/>
</a>
</g>
</g>
<!-- Node14&#45;&gt;Node13 -->
<g id="edge14_Node000014_Node000013" class="edge">
<title>Node14&#45;&gt;Node13</title>
<g id="a_edge14_Node000014_Node000013"><a xlink:title=" ">
<path fill="none" stroke="#63b8ff" d="M80.29,-28.89C65.73,-31.39 51.83,-33.78 41.2,-35.61"/>
<polygon fill="#63b8ff" stroke="#63b8ff" points="81.17,-32.29 90.43,-27.14 79.98,-25.39 81.17,-32.29"/>
</a>
</g>
</g>
<!-- Node15&#45;&gt;Node11 -->
<g id="edge16_Node000015_Node000011" class="edge">
<title>Node15&#45;&gt;Node11</title>
<g id="a_edge16_Node000015_Node000011"><a xlink:title=" ">
<path fill="none" stroke="#63b8ff" d="M471.18,-23.42C456.34,-25.41 440.43,-27.55 425.28,-29.58"/>
<polygon fill="#63b8ff" stroke="#63b8ff" points="471.82,-26.87 481.26,-22.07 470.89,-19.93 471.82,-26.87"/>
</a>
</g>
</g>
</g>
</svg>
