<?xml version="1.0" encoding="UTF-8" standalone="no"?>
<!DOCTYPE svg PUBLIC "-//W3C//DTD SVG 1.1//EN"
 "http://www.w3.org/Graphics/SVG/1.1/DTD/svg11.dtd">
<!-- Generated by graphviz version 2.43.0 (0)
 -->
<!-- Title: src/lib/bitstreamGeneration/bitstreamGeneration.cpp Pages: 1 -->
<svg width="1252pt" height="313pt"
 viewBox="0.00 0.00 1252.00 313.00" xmlns="http://www.w3.org/2000/svg" xmlns:xlink="http://www.w3.org/1999/xlink">
<g id="graph0" class="graph" transform="scale(1 1) rotate(0) translate(4 309)">
<title>src/lib/bitstreamGeneration/bitstreamGeneration.cpp</title>
<!-- Node1 -->
<g id="Node000001" class="node">
<title>Node1</title>
<g id="a_Node000001"><a xlink:title=" ">
<polygon fill="#999999" stroke="#666666" points="650.5,-305 500.5,-305 500.5,-275 650.5,-275 650.5,-305"/>
<text text-anchor="start" x="508.5" y="-293" font-family="Helvetica,sans-Serif" font-size="10.00">src/lib/bitstreamGeneration</text>
<text text-anchor="middle" x="575.5" y="-282" font-family="Helvetica,sans-Serif" font-size="10.00">/bitstreamGeneration.cpp</text>
</a>
</g>
</g>
<!-- Node2 -->
<g id="Node000002" class="node">
<title>Node2</title>
<g id="a_Node000002"><a xlink:href="bitstreamGeneration_8hpp.html" target="_top" xlink:title=" ">
<polygon fill="white" stroke="#666666" points="319,-184 180,-184 180,-165 319,-165 319,-184"/>
<text text-anchor="middle" x="249.5" y="-172" font-family="Helvetica,sans-Serif" font-size="10.00">bitstreamGeneration.hpp</text>
</a>
</g>
</g>
<!-- Node1&#45;&gt;Node2 -->
<g id="edge1_Node000001_Node000002" class="edge">
<title>Node1&#45;&gt;Node2</title>
<g id="a_edge1_Node000001_Node000002"><a xlink:title=" ">
<path fill="none" stroke="#63b8ff" d="M512.01,-274.98C475.17,-266.14 428.17,-253.64 387.5,-239 347.06,-224.44 302.18,-202.68 274.9,-188.79"/>
<polygon fill="#63b8ff" stroke="#63b8ff" points="276.18,-185.51 265.69,-184.06 272.98,-191.74 276.18,-185.51"/>
</a>
</g>
</g>
<!-- Node3 -->
<g id="Node000003" class="node">
<title>Node3</title>
<g id="a_Node000003"><a xlink:href="uvgvpcc_8hpp.html" target="_top" xlink:title=" ">
<polygon fill="white" stroke="#666666" points="377.5,-74 255.5,-74 255.5,-55 377.5,-55 377.5,-74"/>
<text text-anchor="middle" x="316.5" y="-62" font-family="Helvetica,sans-Serif" font-size="10.00">uvgvpcc/uvgvpcc.hpp</text>
</a>
</g>
</g>
<!-- Node1&#45;&gt;Node3 -->
<g id="edge54_Node000001_Node000003" class="edge">
<title>Node1&#45;&gt;Node3</title>
<g id="a_edge54_Node000001_Node000003"><a xlink:title=" ">
<path fill="none" stroke="#63b8ff" d="M500.35,-280.78C394.39,-267.41 209.69,-236.98 171.5,-184 136.87,-135.96 224.94,-96.29 278.63,-77.4"/>
<polygon fill="#63b8ff" stroke="#63b8ff" points="279.89,-80.67 288.21,-74.12 277.62,-74.04 279.89,-80.67"/>
</a>
</g>
</g>
<!-- Node4 -->
<g id="Node000004" class="node">
<title>Node4</title>
<g id="a_Node000004"><a xlink:title=" ">
<polygon fill="#e0e0e0" stroke="#999999" points="53,-19 0,-19 0,0 53,0 53,-19"/>
<text text-anchor="middle" x="26.5" y="-7" font-family="Helvetica,sans-Serif" font-size="10.00">cstddef</text>
</a>
</g>
</g>
<!-- Node1&#45;&gt;Node4 -->
<g id="edge16_Node000001_Node000004" class="edge">
<title>Node1&#45;&gt;Node4</title>
<g id="a_edge16_Node000001_Node000004"><a xlink:title=" ">
<path fill="none" stroke="#63b8ff" d="M500.27,-288.29C354.67,-284.86 48.5,-266.81 48.5,-175.5 48.5,-175.5 48.5,-175.5 48.5,-118.5 48.5,-86.4 39.05,-49.99 32.54,-28.71"/>
<polygon fill="#63b8ff" stroke="#63b8ff" points="35.84,-27.53 29.47,-19.06 29.17,-29.65 35.84,-27.53"/>
</a>
</g>
</g>
<!-- Node5 -->
<g id="Node000005" class="node">
<title>Node5</title>
<g id="a_Node000005"><a xlink:title=" ">
<polygon fill="#e0e0e0" stroke="#999999" points="681.5,-19 631.5,-19 631.5,0 681.5,0 681.5,-19"/>
<text text-anchor="middle" x="656.5" y="-7" font-family="Helvetica,sans-Serif" font-size="10.00">cstdint</text>
</a>
</g>
</g>
<!-- Node1&#45;&gt;Node5 -->
<g id="edge17_Node000001_Node000005" class="edge">
<title>Node1&#45;&gt;Node5</title>
<g id="a_edge17_Node000001_Node000005"><a xlink:title=" ">
<path fill="none" stroke="#63b8ff" d="M528.97,-274.9C510.04,-267.06 489.39,-255.47 475.5,-239 420.86,-174.22 371.23,-120.09 425.5,-55 452.33,-22.82 564.68,-27.66 621.38,-18.82"/>
<polygon fill="#63b8ff" stroke="#63b8ff" points="622.09,-22.24 631.29,-16.99 620.82,-15.36 622.09,-22.24"/>
</a>
</g>
</g>
<!-- Node7 -->
<g id="Node000007" class="node">
<title>Node7</title>
<g id="a_Node000007"><a xlink:title=" ">
<polygon fill="#e0e0e0" stroke="#999999" points="129.5,-19 71.5,-19 71.5,0 129.5,0 129.5,-19"/>
<text text-anchor="middle" x="100.5" y="-7" font-family="Helvetica,sans-Serif" font-size="10.00">memory</text>
</a>
</g>
</g>
<!-- Node1&#45;&gt;Node7 -->
<g id="edge18_Node000001_Node000007" class="edge">
<title>Node1&#45;&gt;Node7</title>
<g id="a_edge18_Node000001_Node000007"><a xlink:title=" ">
<path fill="none" stroke="#63b8ff" d="M500.25,-286.28C367.47,-279.42 105.5,-255.72 105.5,-175.5 105.5,-175.5 105.5,-175.5 105.5,-118.5 105.5,-87.16 103.37,-50.75 101.89,-29.22"/>
<polygon fill="#63b8ff" stroke="#63b8ff" points="105.38,-28.9 101.17,-19.17 98.4,-29.4 105.38,-28.9"/>
</a>
</g>
</g>
<!-- Node11 -->
<g id="Node000011" class="node">
<title>Node11</title>
<g id="a_Node000011"><a xlink:title=" ">
<polygon fill="#e0e0e0" stroke="#999999" points="1023.5,-19 979.5,-19 979.5,0 1023.5,0 1023.5,-19"/>
<text text-anchor="middle" x="1001.5" y="-7" font-family="Helvetica,sans-Serif" font-size="10.00">string</text>
</a>
</g>
</g>
<!-- Node1&#45;&gt;Node11 -->
<g id="edge19_Node000001_Node000011" class="edge">
<title>Node1&#45;&gt;Node11</title>
<g id="a_edge19_Node000001_Node000011"><a xlink:title=" ">
<path fill="none" stroke="#63b8ff" d="M650.56,-287.26C789.22,-281.99 1071.5,-260.8 1071.5,-175.5 1071.5,-175.5 1071.5,-175.5 1071.5,-118.5 1071.5,-80.43 1040.49,-45.19 1019.75,-25.89"/>
<polygon fill="#63b8ff" stroke="#63b8ff" points="1021.92,-23.13 1012.13,-19.07 1017.25,-28.34 1021.92,-23.13"/>
</a>
</g>
</g>
<!-- Node12 -->
<g id="Node000012" class="node">
<title>Node12</title>
<g id="a_Node000012"><a xlink:title=" ">
<polygon fill="#e0e0e0" stroke="#999999" points="865,-19 818,-19 818,0 865,0 865,-19"/>
<text text-anchor="middle" x="841.5" y="-7" font-family="Helvetica,sans-Serif" font-size="10.00">vector</text>
</a>
</g>
</g>
<!-- Node1&#45;&gt;Node12 -->
<g id="edge21_Node000001_Node000012" class="edge">
<title>Node1&#45;&gt;Node12</title>
<g id="a_edge21_Node000001_Node000012"><a xlink:title=" ">
<path fill="none" stroke="#63b8ff" d="M650.62,-285.81C780.55,-278.21 1033.5,-253.43 1033.5,-175.5 1033.5,-175.5 1033.5,-175.5 1033.5,-118.5 1033.5,-89.04 1035.73,-75.42 1014.5,-55 1009.4,-50.1 923.63,-29.56 874.82,-18.18"/>
<polygon fill="#63b8ff" stroke="#63b8ff" points="875.54,-14.76 865,-15.9 873.95,-21.57 875.54,-14.76"/>
</a>
</g>
</g>
<!-- Node15 -->
<g id="Node000015" class="node">
<title>Node15</title>
<g id="a_Node000015"><a xlink:title=" ">
<polygon fill="#e0e0e0" stroke="#999999" points="569.5,-239 505.5,-239 505.5,-220 569.5,-220 569.5,-239"/>
<text text-anchor="middle" x="537.5" y="-227" font-family="Helvetica,sans-Serif" font-size="10.00">algorithm</text>
</a>
</g>
</g>
<!-- Node1&#45;&gt;Node15 -->
<g id="edge14_Node000001_Node000015" class="edge">
<title>Node1&#45;&gt;Node15</title>
<g id="a_edge14_Node000001_Node000015"><a xlink:title=" ">
<path fill="none" stroke="#63b8ff" d="M566.3,-274.84C561.01,-266.69 554.32,-256.4 548.72,-247.78"/>
<polygon fill="#63b8ff" stroke="#63b8ff" points="551.58,-245.75 543.19,-239.27 545.71,-249.56 551.58,-245.75"/>
</a>
</g>
</g>
<!-- Node16 -->
<g id="Node000016" class="node">
<title>Node16</title>
<g id="a_Node000016"><a xlink:title=" ">
<polygon fill="#e0e0e0" stroke="#999999" points="809,-74 762,-74 762,-55 809,-55 809,-74"/>
<text text-anchor="middle" x="785.5" y="-62" font-family="Helvetica,sans-Serif" font-size="10.00">cmath</text>
</a>
</g>
</g>
<!-- Node1&#45;&gt;Node16 -->
<g id="edge15_Node000001_Node000016" class="edge">
<title>Node1&#45;&gt;Node16</title>
<g id="a_edge15_Node000001_Node000016"><a xlink:title=" ">
<path fill="none" stroke="#63b8ff" d="M650.66,-276.97C678.1,-269.62 707.92,-257.84 730.5,-239 773.1,-203.46 775.98,-182.8 789.5,-129 793.21,-114.25 791.77,-97 789.65,-84.2"/>
<polygon fill="#63b8ff" stroke="#63b8ff" points="793.06,-83.43 787.72,-74.28 786.19,-84.77 793.06,-83.43"/>
</a>
</g>
</g>
<!-- Node17 -->
<g id="Node000017" class="node">
<title>Node17</title>
<g id="a_Node000017"><a xlink:title=" ">
<polygon fill="#e0e0e0" stroke="#999999" points="704,-239 659,-239 659,-220 704,-220 704,-239"/>
<text text-anchor="middle" x="681.5" y="-227" font-family="Helvetica,sans-Serif" font-size="10.00">utility</text>
</a>
</g>
</g>
<!-- Node1&#45;&gt;Node17 -->
<g id="edge20_Node000001_Node000017" class="edge">
<title>Node1&#45;&gt;Node17</title>
<g id="a_edge20_Node000001_Node000017"><a xlink:title=" ">
<path fill="none" stroke="#63b8ff" d="M600.89,-274.99C617.79,-265.66 639.88,-253.47 656.66,-244.21"/>
<polygon fill="#63b8ff" stroke="#63b8ff" points="658.78,-247.04 665.85,-239.14 655.4,-240.91 658.78,-247.04"/>
</a>
</g>
</g>
<!-- Node18 -->
<g id="Node000018" class="node">
<title>Node18</title>
<g id="a_Node000018"><a xlink:href="atlas__context_8hpp.html" target="_top" xlink:title=" ">
<polygon fill="white" stroke="#666666" points="626.5,-184 522.5,-184 522.5,-165 626.5,-165 626.5,-184"/>
<text text-anchor="middle" x="574.5" y="-172" font-family="Helvetica,sans-Serif" font-size="10.00">atlas_context.hpp</text>
</a>
</g>
</g>
<!-- Node1&#45;&gt;Node18 -->
<g id="edge22_Node000001_Node000018" class="edge">
<title>Node1&#45;&gt;Node18</title>
<g id="a_edge22_Node000001_Node000018"><a xlink:title=" ">
<path fill="none" stroke="#63b8ff" d="M537.78,-274.88C522.07,-266.9 505.42,-255.21 496.5,-239 484.05,-216.38 511.99,-198.71 537.83,-187.82"/>
<polygon fill="#63b8ff" stroke="#63b8ff" points="539.17,-191.05 547.17,-184.11 536.59,-184.54 539.17,-191.05"/>
</a>
</g>
</g>
<!-- Node20 -->
<g id="Node000020" class="node">
<title>Node20</title>
<g id="a_Node000020"><a xlink:href="bitstream__common_8hpp.html" target="_top" xlink:title=" ">
<polygon fill="white" stroke="#666666" points="567,-74 434,-74 434,-55 567,-55 567,-74"/>
<text text-anchor="middle" x="500.5" y="-62" font-family="Helvetica,sans-Serif" font-size="10.00">bitstream_common.hpp</text>
</a>
</g>
</g>
<!-- Node1&#45;&gt;Node20 -->
<g id="edge34_Node000001_Node000020" class="edge">
<title>Node1&#45;&gt;Node20</title>
<g id="a_edge34_Node000001_Node000020"><a xlink:title=" ">
<path fill="none" stroke="#63b8ff" d="M532.25,-274.95C515.51,-267.15 498.1,-255.59 488.5,-239 459.57,-189.01 480.58,-116.85 493.04,-83.57"/>
<polygon fill="#63b8ff" stroke="#63b8ff" points="496.32,-84.79 496.72,-74.2 489.81,-82.24 496.32,-84.79"/>
</a>
</g>
</g>
<!-- Node24 -->
<g id="Node000024" class="node">
<title>Node24</title>
<g id="a_Node000024"><a xlink:href="gof_8hpp.html" target="_top" xlink:title=" ">
<polygon fill="white" stroke="#666666" points="641,-239 588,-239 588,-220 641,-220 641,-239"/>
<text text-anchor="middle" x="614.5" y="-227" font-family="Helvetica,sans-Serif" font-size="10.00">gof.hpp</text>
</a>
</g>
</g>
<!-- Node1&#45;&gt;Node24 -->
<g id="edge35_Node000001_Node000024" class="edge">
<title>Node1&#45;&gt;Node24</title>
<g id="a_edge35_Node000001_Node000024"><a xlink:title=" ">
<path fill="none" stroke="#63b8ff" d="M584.94,-274.84C590.37,-266.69 597.23,-256.4 602.98,-247.78"/>
<polygon fill="#63b8ff" stroke="#63b8ff" points="606.02,-249.53 608.66,-239.27 600.2,-245.65 606.02,-249.53"/>
</a>
</g>
</g>
<!-- Node25 -->
<g id="Node000025" class="node">
<title>Node25</title>
<g id="a_Node000025"><a xlink:href="video__sub__bitstream_8hpp.html" target="_top" xlink:title=" ">
<polygon fill="white" stroke="#666666" points="1005.5,-74 865.5,-74 865.5,-55 1005.5,-55 1005.5,-74"/>
<text text-anchor="middle" x="935.5" y="-62" font-family="Helvetica,sans-Serif" font-size="10.00">video_sub_bitstream.hpp</text>
</a>
</g>
</g>
<!-- Node1&#45;&gt;Node25 -->
<g id="edge55_Node000001_Node000025" class="edge">
<title>Node1&#45;&gt;Node25</title>
<g id="a_edge55_Node000001_Node000025"><a xlink:title=" ">
<path fill="none" stroke="#63b8ff" d="M650.57,-276.64C683.9,-269.03 722.69,-257.14 754.5,-239 828.78,-196.64 895.64,-117.12 922.73,-82.42"/>
<polygon fill="#63b8ff" stroke="#63b8ff" points="925.69,-84.31 929.02,-74.25 920.15,-80.04 925.69,-84.31"/>
</a>
</g>
</g>
<!-- Node26 -->
<g id="Node000026" class="node">
<title>Node26</title>
<g id="a_Node000026"><a xlink:href="vps_8hpp.html" target="_top" xlink:title=" ">
<polygon fill="white" stroke="#666666" points="738,-184 683,-184 683,-165 738,-165 738,-184"/>
<text text-anchor="middle" x="710.5" y="-172" font-family="Helvetica,sans-Serif" font-size="10.00">vps.hpp</text>
</a>
</g>
</g>
<!-- Node1&#45;&gt;Node26 -->
<g id="edge56_Node000001_Node000026" class="edge">
<title>Node1&#45;&gt;Node26</title>
<g id="a_edge56_Node000001_Node000026"><a xlink:title=" ">
<path fill="none" stroke="#63b8ff" d="M650.84,-279.06C674.85,-271.93 698.94,-259.76 713.5,-239 722.6,-226.02 720.55,-207.62 716.99,-193.97"/>
<polygon fill="#63b8ff" stroke="#63b8ff" points="720.28,-192.76 714,-184.23 713.59,-194.81 720.28,-192.76"/>
</a>
</g>
</g>
<!-- Node27 -->
<g id="Node000027" class="node">
<title>Node27</title>
<g id="a_Node000027"><a xlink:href="log_8hpp.html" target="_top" xlink:title=" ">
<polygon fill="white" stroke="#666666" points="1195.5,-74 1099.5,-74 1099.5,-55 1195.5,-55 1195.5,-74"/>
<text text-anchor="middle" x="1147.5" y="-62" font-family="Helvetica,sans-Serif" font-size="10.00">uvgvpcc/log.hpp</text>
</a>
</g>
</g>
<!-- Node1&#45;&gt;Node27 -->
<g id="edge48_Node000001_Node000027" class="edge">
<title>Node1&#45;&gt;Node27</title>
<g id="a_edge48_Node000001_Node000027"><a xlink:title=" ">
<path fill="none" stroke="#63b8ff" d="M650.7,-286.03C784.25,-280.12 1051.99,-265.15 1085.5,-239 1134.42,-200.82 1144.8,-120.87 1146.96,-84.38"/>
<polygon fill="#63b8ff" stroke="#63b8ff" points="1150.47,-84.31 1147.41,-74.17 1143.47,-84.01 1150.47,-84.31"/>
</a>
</g>
</g>
<!-- Node2&#45;&gt;Node3 -->
<g id="edge2_Node000002_Node000003" class="edge">
<title>Node2&#45;&gt;Node3</title>
<g id="a_edge2_Node000002_Node000003"><a xlink:title=" ">
<path fill="none" stroke="#63b8ff" d="M254.98,-164.66C266.08,-146.77 291.37,-106 305.83,-82.69"/>
<polygon fill="#63b8ff" stroke="#63b8ff" points="308.83,-84.5 311.13,-74.16 302.88,-80.81 308.83,-84.5"/>
</a>
</g>
</g>
<!-- Node3&#45;&gt;Node4 -->
<g id="edge3_Node000003_Node000004" class="edge">
<title>Node3&#45;&gt;Node4</title>
<g id="a_edge3_Node000003_Node000004"><a xlink:title=" ">
<path fill="none" stroke="#63b8ff" d="M262.32,-54.95C212.99,-46.95 137.92,-34.25 63.25,-19.05"/>
<polygon fill="#63b8ff" stroke="#63b8ff" points="63.7,-15.57 53.2,-16.99 62.29,-22.43 63.7,-15.57"/>
</a>
</g>
</g>
<!-- Node3&#45;&gt;Node5 -->
<g id="edge4_Node000003_Node000005" class="edge">
<title>Node3&#45;&gt;Node5</title>
<g id="a_edge4_Node000003_Node000005"><a xlink:title=" ">
<path fill="none" stroke="#63b8ff" d="M377.77,-56.43C437.59,-49.11 531.35,-36.54 621.48,-19.03"/>
<polygon fill="#63b8ff" stroke="#63b8ff" points="622.18,-22.46 631.31,-17.1 620.83,-15.59 622.18,-22.46"/>
</a>
</g>
</g>
<!-- Node6 -->
<g id="Node000006" class="node">
<title>Node6</title>
<g id="a_Node000006"><a xlink:title=" ">
<polygon fill="#e0e0e0" stroke="#999999" points="947.5,-19 887.5,-19 887.5,0 947.5,0 947.5,-19"/>
<text text-anchor="middle" x="917.5" y="-7" font-family="Helvetica,sans-Serif" font-size="10.00">iostream</text>
</a>
</g>
</g>
<!-- Node3&#45;&gt;Node6 -->
<g id="edge5_Node000003_Node000006" class="edge">
<title>Node3&#45;&gt;Node6</title>
<g id="a_edge5_Node000003_Node000006"><a xlink:title=" ">
<path fill="none" stroke="#63b8ff" d="M377.57,-58.72C519.84,-47.58 862.31,-20.69 874.5,-19 875.26,-18.89 876.03,-18.78 876.81,-18.67"/>
<polygon fill="#63b8ff" stroke="#63b8ff" points="877.74,-22.06 887.04,-16.97 876.6,-15.16 877.74,-22.06"/>
</a>
</g>
</g>
<!-- Node3&#45;&gt;Node7 -->
<g id="edge6_Node000003_Node000007" class="edge">
<title>Node3&#45;&gt;Node7</title>
<g id="a_edge6_Node000003_Node000007"><a xlink:title=" ">
<path fill="none" stroke="#63b8ff" d="M281.8,-54.98C242.88,-45.44 179.92,-29.99 139.37,-20.04"/>
<polygon fill="#63b8ff" stroke="#63b8ff" points="140.12,-16.62 129.58,-17.63 138.46,-23.42 140.12,-16.62"/>
</a>
</g>
</g>
<!-- Node8 -->
<g id="Node000008" class="node">
<title>Node8</title>
<g id="a_Node000008"><a xlink:title=" ">
<polygon fill="#e0e0e0" stroke="#999999" points="340,-19 293,-19 293,0 340,0 340,-19"/>
<text text-anchor="middle" x="316.5" y="-7" font-family="Helvetica,sans-Serif" font-size="10.00">queue</text>
</a>
</g>
</g>
<!-- Node3&#45;&gt;Node8 -->
<g id="edge7_Node000003_Node000008" class="edge">
<title>Node3&#45;&gt;Node8</title>
<g id="a_edge7_Node000003_Node000008"><a xlink:title=" ">
<path fill="none" stroke="#63b8ff" d="M316.5,-54.75C316.5,-47.8 316.5,-37.85 316.5,-29.13"/>
<polygon fill="#63b8ff" stroke="#63b8ff" points="320,-29.09 316.5,-19.09 313,-29.09 320,-29.09"/>
</a>
</g>
</g>
<!-- Node9 -->
<g id="Node000009" class="node">
<title>Node9</title>
<g id="a_Node000009"><a xlink:title=" ">
<polygon fill="#e0e0e0" stroke="#999999" points="429,-19 358,-19 358,0 429,0 429,-19"/>
<text text-anchor="middle" x="393.5" y="-7" font-family="Helvetica,sans-Serif" font-size="10.00">semaphore</text>
</a>
</g>
</g>
<!-- Node3&#45;&gt;Node9 -->
<g id="edge8_Node000003_Node000009" class="edge">
<title>Node3&#45;&gt;Node9</title>
<g id="a_edge8_Node000003_Node000009"><a xlink:title=" ">
<path fill="none" stroke="#63b8ff" d="M328.87,-54.98C340.59,-46.92 358.42,-34.65 372.39,-25.03"/>
<polygon fill="#63b8ff" stroke="#63b8ff" points="374.65,-27.72 380.9,-19.17 370.68,-21.96 374.65,-27.72"/>
</a>
</g>
</g>
<!-- Node10 -->
<g id="Node000010" class="node">
<title>Node10</title>
<g id="a_Node000010"><a xlink:title=" ">
<polygon fill="#e0e0e0" stroke="#999999" points="503.5,-19 447.5,-19 447.5,0 503.5,0 503.5,-19"/>
<text text-anchor="middle" x="475.5" y="-7" font-family="Helvetica,sans-Serif" font-size="10.00">sstream</text>
</a>
</g>
</g>
<!-- Node3&#45;&gt;Node10 -->
<g id="edge9_Node000003_Node000010" class="edge">
<title>Node3&#45;&gt;Node10</title>
<g id="a_edge9_Node000003_Node000010"><a xlink:title=" ">
<path fill="none" stroke="#63b8ff" d="M342.05,-54.98C368.62,-46.13 410.44,-32.19 440.17,-22.28"/>
<polygon fill="#63b8ff" stroke="#63b8ff" points="441.37,-25.56 449.75,-19.08 439.16,-18.92 441.37,-25.56"/>
</a>
</g>
</g>
<!-- Node3&#45;&gt;Node11 -->
<g id="edge10_Node000003_Node000011" class="edge">
<title>Node3&#45;&gt;Node11</title>
<g id="a_edge10_Node000003_Node000011"><a xlink:title=" ">
<path fill="none" stroke="#63b8ff" d="M377.6,-58.63C393.21,-57.41 409.98,-56.13 425.5,-55 661.42,-37.8 721.87,-49 956.5,-19 960.55,-18.48 964.79,-17.83 968.98,-17.12"/>
<polygon fill="#63b8ff" stroke="#63b8ff" points="969.94,-20.5 979.15,-15.26 968.69,-13.61 969.94,-20.5"/>
</a>
</g>
</g>
<!-- Node3&#45;&gt;Node12 -->
<g id="edge11_Node000003_Node000012" class="edge">
<title>Node3&#45;&gt;Node12</title>
<g id="a_edge11_Node000003_Node000012"><a xlink:title=" ">
<path fill="none" stroke="#63b8ff" d="M377.75,-57.32C489.01,-46.08 720.83,-22.68 807.68,-13.91"/>
<polygon fill="#63b8ff" stroke="#63b8ff" points="808.17,-17.38 817.77,-12.9 807.47,-10.42 808.17,-17.38"/>
</a>
</g>
</g>
<!-- Node13 -->
<g id="Node000013" class="node">
<title>Node13</title>
<g id="a_Node000013"><a xlink:title=" ">
<polygon fill="#e0e0e0" stroke="#999999" points="613.5,-19 521.5,-19 521.5,0 613.5,0 613.5,-19"/>
<text text-anchor="middle" x="567.5" y="-7" font-family="Helvetica,sans-Serif" font-size="10.00">../utils/utils.hpp</text>
</a>
</g>
</g>
<!-- Node3&#45;&gt;Node13 -->
<g id="edge12_Node000003_Node000013" class="edge">
<title>Node3&#45;&gt;Node13</title>
<g id="a_edge12_Node000003_Node000013"><a xlink:title=" ">
<path fill="none" stroke="#63b8ff" d="M356.83,-54.98C400.34,-45.8 469.7,-31.15 516.85,-21.19"/>
<polygon fill="#63b8ff" stroke="#63b8ff" points="517.8,-24.57 526.86,-19.08 516.35,-17.72 517.8,-24.57"/>
</a>
</g>
</g>
<!-- Node14 -->
<g id="Node000014" class="node">
<title>Node14</title>
<g id="a_Node000014"><a xlink:title=" ">
<polygon fill="#e0e0e0" stroke="#999999" points="275,-19 148,-19 148,0 275,0 275,-19"/>
<text text-anchor="middle" x="211.5" y="-7" font-family="Helvetica,sans-Serif" font-size="10.00">../utils/parameters.hpp</text>
</a>
</g>
</g>
<!-- Node3&#45;&gt;Node14 -->
<g id="edge13_Node000003_Node000014" class="edge">
<title>Node3&#45;&gt;Node14</title>
<g id="a_edge13_Node000003_Node000014"><a xlink:title=" ">
<path fill="none" stroke="#63b8ff" d="M299.63,-54.98C282.89,-46.54 257,-33.47 237.61,-23.68"/>
<polygon fill="#63b8ff" stroke="#63b8ff" points="239.18,-20.55 228.68,-19.17 236.03,-26.8 239.18,-20.55"/>
</a>
</g>
</g>
<!-- Node18&#45;&gt;Node3 -->
<g id="edge33_Node000018_Node000003" class="edge">
<title>Node18&#45;&gt;Node3</title>
<g id="a_edge33_Node000018_Node000003"><a xlink:title=" ">
<path fill="none" stroke="#63b8ff" d="M552.74,-164.97C530.31,-156.14 494.36,-141.85 463.5,-129 422.23,-111.82 374.8,-91.16 345.23,-78.18"/>
<polygon fill="#63b8ff" stroke="#63b8ff" points="346.49,-74.91 335.93,-74.09 343.67,-81.32 346.49,-74.91"/>
</a>
</g>
</g>
<!-- Node19 -->
<g id="Node000019" class="node">
<title>Node19</title>
<g id="a_Node000019"><a xlink:href="atlas__frame_8hpp.html" target="_top" xlink:title=" ">
<polygon fill="white" stroke="#666666" points="639.5,-129 543.5,-129 543.5,-110 639.5,-110 639.5,-129"/>
<text text-anchor="middle" x="591.5" y="-117" font-family="Helvetica,sans-Serif" font-size="10.00">atlas_frame.hpp</text>
</a>
</g>
</g>
<!-- Node18&#45;&gt;Node19 -->
<g id="edge23_Node000018_Node000019" class="edge">
<title>Node18&#45;&gt;Node19</title>
<g id="a_edge23_Node000018_Node000019"><a xlink:title=" ">
<path fill="none" stroke="#63b8ff" d="M577.31,-164.75C579.56,-157.72 582.8,-147.62 585.62,-138.84"/>
<polygon fill="#63b8ff" stroke="#63b8ff" points="589.02,-139.68 588.75,-129.09 582.36,-137.54 589.02,-139.68"/>
</a>
</g>
</g>
<!-- Node18&#45;&gt;Node20 -->
<g id="edge28_Node000018_Node000020" class="edge">
<title>Node18&#45;&gt;Node20</title>
<g id="a_edge28_Node000018_Node000020"><a xlink:title=" ">
<path fill="none" stroke="#63b8ff" d="M565.55,-164.84C556.96,-156.24 543.93,-142.44 534.5,-129 524.3,-114.46 514.95,-96.51 508.65,-83.41"/>
<polygon fill="#63b8ff" stroke="#63b8ff" points="511.7,-81.67 504.29,-74.1 505.36,-84.64 511.7,-81.67"/>
</a>
</g>
</g>
<!-- Node21 -->
<g id="Node000021" class="node">
<title>Node21</title>
<g id="a_Node000021"><a xlink:href="bitstream__util_8hpp.html" target="_top" xlink:title=" ">
<polygon fill="white" stroke="#666666" points="763.5,-129 657.5,-129 657.5,-110 763.5,-110 763.5,-129"/>
<text text-anchor="middle" x="710.5" y="-117" font-family="Helvetica,sans-Serif" font-size="10.00">bitstream_util.hpp</text>
</a>
</g>
</g>
<!-- Node18&#45;&gt;Node21 -->
<g id="edge29_Node000018_Node000021" class="edge">
<title>Node18&#45;&gt;Node21</title>
<g id="a_edge29_Node000018_Node000021"><a xlink:title=" ">
<path fill="none" stroke="#63b8ff" d="M596.35,-164.98C618.62,-156.3 653.4,-142.75 678.72,-132.88"/>
<polygon fill="#63b8ff" stroke="#63b8ff" points="680.21,-136.06 688.25,-129.17 677.66,-129.54 680.21,-136.06"/>
</a>
</g>
</g>
<!-- Node19&#45;&gt;Node3 -->
<g id="edge27_Node000019_Node000003" class="edge">
<title>Node19&#45;&gt;Node3</title>
<g id="a_edge27_Node000019_Node000003"><a xlink:title=" ">
<path fill="none" stroke="#63b8ff" d="M547.32,-109.98C499.35,-100.74 422.69,-85.97 371.02,-76.01"/>
<polygon fill="#63b8ff" stroke="#63b8ff" points="371.51,-72.54 361.03,-74.08 370.19,-79.41 371.51,-72.54"/>
</a>
</g>
</g>
<!-- Node19&#45;&gt;Node16 -->
<g id="edge24_Node000019_Node000016" class="edge">
<title>Node19&#45;&gt;Node16</title>
<g id="a_edge24_Node000019_Node000016"><a xlink:title=" ">
<path fill="none" stroke="#63b8ff" d="M622.67,-109.98C658.11,-100.3 715.75,-84.56 752.1,-74.63"/>
<polygon fill="#63b8ff" stroke="#63b8ff" points="753.02,-78 761.75,-71.99 751.18,-71.25 753.02,-78"/>
</a>
</g>
</g>
<!-- Node19&#45;&gt;Node20 -->
<g id="edge25_Node000019_Node000020" class="edge">
<title>Node19&#45;&gt;Node20</title>
<g id="a_edge25_Node000019_Node000020"><a xlink:title=" ">
<path fill="none" stroke="#63b8ff" d="M576.88,-109.98C562.64,-101.69 540.75,-88.94 524.05,-79.22"/>
<polygon fill="#63b8ff" stroke="#63b8ff" points="525.79,-76.18 515.39,-74.17 522.27,-82.23 525.79,-76.18"/>
</a>
</g>
</g>
<!-- Node20&#45;&gt;Node5 -->
<g id="edge26_Node000020_Node000005" class="edge">
<title>Node20&#45;&gt;Node5</title>
<g id="a_edge26_Node000020_Node000005"><a xlink:title=" ">
<path fill="none" stroke="#63b8ff" d="M525.56,-54.98C551.61,-46.14 592.55,-32.23 621.72,-22.32"/>
<polygon fill="#63b8ff" stroke="#63b8ff" points="623.16,-25.53 631.5,-18.99 620.9,-18.9 623.16,-25.53"/>
</a>
</g>
</g>
<!-- Node21&#45;&gt;Node5 -->
<g id="edge32_Node000021_Node000005" class="edge">
<title>Node21&#45;&gt;Node5</title>
<g id="a_edge32_Node000021_Node000005"><a xlink:title=" ">
<path fill="none" stroke="#63b8ff" d="M668.05,-109.9C648.2,-103.52 626.37,-92.58 614.5,-74 603.81,-57.27 620.12,-38.31 635.43,-25.5"/>
<polygon fill="#63b8ff" stroke="#63b8ff" points="637.93,-27.99 643.65,-19.07 633.62,-22.48 637.93,-27.99"/>
</a>
</g>
</g>
<!-- Node22 -->
<g id="Node000022" class="node">
<title>Node22</title>
<g id="a_Node000022"><a xlink:title=" ">
<polygon fill="#e0e0e0" stroke="#999999" points="675.5,-74 623.5,-74 623.5,-55 675.5,-55 675.5,-74"/>
<text text-anchor="middle" x="649.5" y="-62" font-family="Helvetica,sans-Serif" font-size="10.00">cassert</text>
</a>
</g>
</g>
<!-- Node21&#45;&gt;Node22 -->
<g id="edge30_Node000021_Node000022" class="edge">
<title>Node21&#45;&gt;Node22</title>
<g id="a_edge30_Node000021_Node000022"><a xlink:title=" ">
<path fill="none" stroke="#63b8ff" d="M700.7,-109.98C691.68,-102.15 678.09,-90.34 667.18,-80.86"/>
<polygon fill="#63b8ff" stroke="#63b8ff" points="669.32,-78.09 659.48,-74.17 664.73,-83.37 669.32,-78.09"/>
</a>
</g>
</g>
<!-- Node23 -->
<g id="Node000023" class="node">
<title>Node23</title>
<g id="a_Node000023"><a xlink:title=" ">
<polygon fill="#e0e0e0" stroke="#999999" points="743.5,-74 693.5,-74 693.5,-55 743.5,-55 743.5,-74"/>
<text text-anchor="middle" x="718.5" y="-62" font-family="Helvetica,sans-Serif" font-size="10.00">cstring</text>
</a>
</g>
</g>
<!-- Node21&#45;&gt;Node23 -->
<g id="edge31_Node000021_Node000023" class="edge">
<title>Node21&#45;&gt;Node23</title>
<g id="a_edge31_Node000021_Node000023"><a xlink:title=" ">
<path fill="none" stroke="#63b8ff" d="M711.82,-109.75C712.87,-102.8 714.37,-92.85 715.69,-84.13"/>
<polygon fill="#63b8ff" stroke="#63b8ff" points="719.17,-84.5 717.2,-74.09 712.25,-83.45 719.17,-84.5"/>
</a>
</g>
</g>
<!-- Node24&#45;&gt;Node3 -->
<g id="edge39_Node000024_Node000003" class="edge">
<title>Node24&#45;&gt;Node3</title>
<g id="a_edge39_Node000024_Node000003"><a xlink:title=" ">
<path fill="none" stroke="#63b8ff" d="M593.35,-219.85C572.73,-211.26 540.61,-197.47 513.5,-184 468.42,-161.61 457.65,-154.92 414.5,-129 387.65,-112.87 357.5,-93.07 337.83,-79.92"/>
<polygon fill="#63b8ff" stroke="#63b8ff" points="339.58,-76.87 329.32,-74.21 335.67,-82.69 339.58,-76.87"/>
</a>
</g>
</g>
<!-- Node24&#45;&gt;Node7 -->
<g id="edge36_Node000024_Node000007" class="edge">
<title>Node24&#45;&gt;Node7</title>
<g id="a_edge36_Node000024_Node000007"><a xlink:title=" ">
<path fill="none" stroke="#63b8ff" d="M587.97,-221.33C559.17,-213.28 512,-199.32 472.5,-184 338.76,-132.12 185.34,-54.56 125.88,-23.78"/>
<polygon fill="#63b8ff" stroke="#63b8ff" points="127.33,-20.58 116.84,-19.08 124.1,-26.8 127.33,-20.58"/>
</a>
</g>
</g>
<!-- Node24&#45;&gt;Node12 -->
<g id="edge37_Node000024_Node000012" class="edge">
<title>Node24&#45;&gt;Node12</title>
<g id="a_edge37_Node000024_Node000012"><a xlink:title=" ">
<path fill="none" stroke="#63b8ff" d="M641.1,-221.6C674.7,-212.54 730.22,-196.36 747.5,-184 801.56,-145.34 827.67,-65.63 837.14,-29.3"/>
<polygon fill="#63b8ff" stroke="#63b8ff" points="840.65,-29.68 839.65,-19.13 833.86,-28 840.65,-29.68"/>
</a>
</g>
</g>
<!-- Node24&#45;&gt;Node18 -->
<g id="edge38_Node000024_Node000018" class="edge">
<title>Node24&#45;&gt;Node18</title>
<g id="a_edge38_Node000024_Node000018"><a xlink:title=" ">
<path fill="none" stroke="#63b8ff" d="M607.89,-219.75C602.24,-212.26 593.96,-201.28 587.05,-192.13"/>
<polygon fill="#63b8ff" stroke="#63b8ff" points="589.8,-189.96 580.98,-184.09 584.21,-194.18 589.8,-189.96"/>
</a>
</g>
</g>
<!-- Node24&#45;&gt;Node25 -->
<g id="edge40_Node000024_Node000025" class="edge">
<title>Node24&#45;&gt;Node25</title>
<g id="a_edge40_Node000024_Node000025"><a xlink:title=" ">
<path fill="none" stroke="#63b8ff" d="M641.2,-222.05C644.33,-221.33 647.48,-220.64 650.5,-220 735.87,-201.97 769,-229.42 843.5,-184 883.94,-159.34 913.35,-109.92 927,-83.36"/>
<polygon fill="#63b8ff" stroke="#63b8ff" points="930.28,-84.61 931.58,-74.1 924.01,-81.5 930.28,-84.61"/>
</a>
</g>
</g>
<!-- Node24&#45;&gt;Node26 -->
<g id="edge44_Node000024_Node000026" class="edge">
<title>Node24&#45;&gt;Node26</title>
<g id="a_edge44_Node000024_Node000026"><a xlink:title=" ">
<path fill="none" stroke="#63b8ff" d="M629.92,-219.98C644.95,-211.69 668.04,-198.94 685.66,-189.22"/>
<polygon fill="#63b8ff" stroke="#63b8ff" points="687.73,-192.07 694.8,-184.17 684.35,-185.94 687.73,-192.07"/>
</a>
</g>
</g>
<!-- Node25&#45;&gt;Node5 -->
<g id="edge41_Node000025_Node000005" class="edge">
<title>Node25&#45;&gt;Node5</title>
<g id="a_edge41_Node000025_Node000005"><a xlink:title=" ">
<path fill="none" stroke="#63b8ff" d="M890.67,-54.98C835.31,-44.47 742.27,-26.79 691.74,-17.19"/>
<polygon fill="#63b8ff" stroke="#63b8ff" points="692.11,-13.7 681.63,-15.27 690.8,-20.58 692.11,-13.7"/>
</a>
</g>
</g>
<!-- Node25&#45;&gt;Node11 -->
<g id="edge42_Node000025_Node000011" class="edge">
<title>Node25&#45;&gt;Node11</title>
<g id="a_edge42_Node000025_Node000011"><a xlink:title=" ">
<path fill="none" stroke="#63b8ff" d="M946.1,-54.98C955.96,-47.07 970.85,-35.11 982.72,-25.58"/>
<polygon fill="#63b8ff" stroke="#63b8ff" points="985.1,-28.16 990.7,-19.17 980.71,-22.7 985.1,-28.16"/>
</a>
</g>
</g>
<!-- Node25&#45;&gt;Node12 -->
<g id="edge43_Node000025_Node000012" class="edge">
<title>Node25&#45;&gt;Node12</title>
<g id="a_edge43_Node000025_Node000012"><a xlink:title=" ">
<path fill="none" stroke="#63b8ff" d="M920.4,-54.98C905.68,-46.69 883.08,-33.94 865.83,-24.22"/>
<polygon fill="#63b8ff" stroke="#63b8ff" points="867.31,-21.03 856.88,-19.17 863.87,-27.13 867.31,-21.03"/>
</a>
</g>
</g>
<!-- Node26&#45;&gt;Node3 -->
<g id="edge47_Node000026_Node000003" class="edge">
<title>Node26&#45;&gt;Node3</title>
<g id="a_edge47_Node000026_Node000003"><a xlink:title=" ">
<path fill="none" stroke="#63b8ff" d="M682.98,-166.87C648.28,-158.42 586.81,-143.23 534.5,-129 471.11,-111.76 397.88,-90.06 354.47,-77.01"/>
<polygon fill="#63b8ff" stroke="#63b8ff" points="355.21,-73.58 344.63,-74.04 353.19,-80.28 355.21,-73.58"/>
</a>
</g>
</g>
<!-- Node26&#45;&gt;Node16 -->
<g id="edge45_Node000026_Node000016" class="edge">
<title>Node26&#45;&gt;Node16</title>
<g id="a_edge45_Node000026_Node000016"><a xlink:title=" ">
<path fill="none" stroke="#63b8ff" d="M729.18,-164.9C743.29,-157.42 761.98,-145.23 772.5,-129 781.12,-115.71 784.19,-97.83 785.21,-84.44"/>
<polygon fill="#63b8ff" stroke="#63b8ff" points="788.72,-84.19 785.66,-74.04 781.73,-83.88 788.72,-84.19"/>
</a>
</g>
</g>
<!-- Node26&#45;&gt;Node21 -->
<g id="edge46_Node000026_Node000021" class="edge">
<title>Node26&#45;&gt;Node21</title>
<g id="a_edge46_Node000026_Node000021"><a xlink:title=" ">
<path fill="none" stroke="#63b8ff" d="M710.5,-164.75C710.5,-157.8 710.5,-147.85 710.5,-139.13"/>
<polygon fill="#63b8ff" stroke="#63b8ff" points="714,-139.09 710.5,-129.09 707,-139.09 714,-139.09"/>
</a>
</g>
</g>
<!-- Node27&#45;&gt;Node6 -->
<g id="edge52_Node000027_Node000006" class="edge">
<title>Node27&#45;&gt;Node6</title>
<g id="a_edge52_Node000027_Node000006"><a xlink:title=" ">
<path fill="none" stroke="#63b8ff" d="M1110.55,-54.98C1068.7,-45.34 1000.73,-29.68 957.62,-19.74"/>
<polygon fill="#63b8ff" stroke="#63b8ff" points="958.28,-16.31 947.75,-17.47 956.71,-23.13 958.28,-16.31"/>
</a>
</g>
</g>
<!-- Node27&#45;&gt;Node11 -->
<g id="edge53_Node000027_Node000011" class="edge">
<title>Node27&#45;&gt;Node11</title>
<g id="a_edge53_Node000027_Node000011"><a xlink:title=" ">
<path fill="none" stroke="#63b8ff" d="M1124.04,-54.98C1099.49,-46.07 1060.78,-32.02 1033.45,-22.1"/>
<polygon fill="#63b8ff" stroke="#63b8ff" points="1034.53,-18.77 1023.94,-18.65 1032.15,-25.35 1034.53,-18.77"/>
</a>
</g>
</g>
<!-- Node28 -->
<g id="Node000028" class="node">
<title>Node28</title>
<g id="a_Node000028"><a xlink:title=" ">
<polygon fill="#e0e0e0" stroke="#999999" points="1172.5,-19 1122.5,-19 1122.5,0 1172.5,0 1172.5,-19"/>
<text text-anchor="middle" x="1147.5" y="-7" font-family="Helvetica,sans-Serif" font-size="10.00">chrono</text>
</a>
</g>
</g>
<!-- Node27&#45;&gt;Node28 -->
<g id="edge49_Node000027_Node000028" class="edge">
<title>Node27&#45;&gt;Node28</title>
<g id="a_edge49_Node000027_Node000028"><a xlink:title=" ">
<path fill="none" stroke="#63b8ff" d="M1147.5,-54.75C1147.5,-47.8 1147.5,-37.85 1147.5,-29.13"/>
<polygon fill="#63b8ff" stroke="#63b8ff" points="1151,-29.09 1147.5,-19.09 1144,-29.09 1151,-29.09"/>
</a>
</g>
</g>
<!-- Node29 -->
<g id="Node000029" class="node">
<title>Node29</title>
<g id="a_Node000029"><a xlink:title=" ">
<polygon fill="#e0e0e0" stroke="#999999" points="1244,-19 1191,-19 1191,0 1244,0 1244,-19"/>
<text text-anchor="middle" x="1217.5" y="-7" font-family="Helvetica,sans-Serif" font-size="10.00">cstdarg</text>
</a>
</g>
</g>
<!-- Node27&#45;&gt;Node29 -->
<g id="edge50_Node000027_Node000029" class="edge">
<title>Node27&#45;&gt;Node29</title>
<g id="a_edge50_Node000027_Node000029"><a xlink:title=" ">
<path fill="none" stroke="#63b8ff" d="M1158.75,-54.98C1169.3,-47 1185.3,-34.88 1197.94,-25.31"/>
<polygon fill="#63b8ff" stroke="#63b8ff" points="1200.19,-28 1206.05,-19.17 1195.96,-22.42 1200.19,-28"/>
</a>
</g>
</g>
<!-- Node30 -->
<g id="Node000030" class="node">
<title>Node30</title>
<g id="a_Node000030"><a xlink:title=" ">
<polygon fill="#e0e0e0" stroke="#999999" points="1104.5,-19 1048.5,-19 1048.5,0 1104.5,0 1104.5,-19"/>
<text text-anchor="middle" x="1076.5" y="-7" font-family="Helvetica,sans-Serif" font-size="10.00">iomanip</text>
</a>
</g>
</g>
<!-- Node27&#45;&gt;Node30 -->
<g id="edge51_Node000027_Node000030" class="edge">
<title>Node27&#45;&gt;Node30</title>
<g id="a_edge51_Node000027_Node000030"><a xlink:title=" ">
<path fill="none" stroke="#63b8ff" d="M1136.09,-54.98C1125.39,-47 1109.16,-34.88 1096.34,-25.31"/>
<polygon fill="#63b8ff" stroke="#63b8ff" points="1098.22,-22.35 1088.11,-19.17 1094.03,-27.96 1098.22,-22.35"/>
</a>
</g>
</g>
</g>
</svg>
