<?xml version="1.0" encoding="UTF-8" standalone="no"?>
<!DOCTYPE svg PUBLIC "-//W3C//DTD SVG 1.1//EN"
 "http://www.w3.org/Graphics/SVG/1.1/DTD/svg11.dtd">
<!-- Generated by graphviz version 2.43.0 (0)
 -->
<!-- Title: uvg_bitstream_put Pages: 1 -->
<!--zoomable 364 -->

<svg id="main" version="1.1" xmlns="http://www.w3.org/2000/svg" xmlns:xlink="http://www.w3.org/1999/xlink" xml:space="preserve" onload="init(evt)">
<style type="text/css"><![CDATA[
.node, .edge {opacity: 0.7;}
.node.selected, .edge.selected {opacity: 1;}
.edge:hover path { stroke: red; }
.edge:hover polygon { stroke: red; fill: red; }
]]></style>

<defs>
  <circle id="rim" cx="0" cy="0" r="7"/>
  <circle id="rim2" cx="0" cy="0" r="3.5"/>
  <g id="zoomPlus">
    <use xlink:href="#rim" fill="#404040"><set attributeName="fill" to="#808080" begin="zoomplus.mouseover" end="zoomplus.mouseout"/></use>
    <path d="M-4,0h8M0,-4v8" fill="none" stroke="white" stroke-width="1.5" pointer-events="none"/>
  </g>
  <g id="zoomMin">
    <use xlink:href="#rim" fill="#404040"><set attributeName="fill" to="#808080" begin="zoomminus.mouseover" end="zoomminus.mouseout"/></use>
    <path d="M-4,0h8" fill="none" stroke="white" stroke-width="1.5" pointer-events="none"/>
  </g>
  <g id="arrowUp" transform="translate(30 24)">
    <use xlink:href="#rim"/>
    <path pointer-events="none" fill="none" stroke="white" stroke-width="1.5" d="M0,-3.0v7 M-2.5,-0.5L0,-3.0L2.5,-0.5"/>
  </g>
  <g id="arrowRight" transform="rotate(90) translate(36 -43)">
    <use xlink:href="#rim"/>
    <path pointer-events="none" fill="none" stroke="white" stroke-width="1.5" d="M0,-3.0v7 M-2.5,-0.5L0,-3.0L2.5,-0.5"/>
  </g>
  <g id="arrowDown" transform="rotate(180) translate(-30 -48)">
    <use xlink:href="#rim"/>
    <path pointer-events="none" fill="none" stroke="white" stroke-width="1.5" d="M0,-3.0v7 M-2.5,-0.5L0,-3.0L2.5,-0.5"/>
  </g>
  <g id="arrowLeft" transform="rotate(270) translate(-36 17)">
    <use xlink:href="#rim"/>
    <path pointer-events="none" fill="none" stroke="white" stroke-width="1.5" d="M0,-3.0v7 M-2.5,-0.5L0,-3.0L2.5,-0.5"/>
  </g>
  <g id="resetDef">
    <use xlink:href="#rim2" fill="#404040"><set attributeName="fill" to="#808080" begin="reset.mouseover" end="reset.mouseout"/></use>
  </g>
</defs>
<script type="application/ecmascript">
var viewWidth = 734;
var viewHeight = 364;
var sectionId = 'dynsection-16';
</script>
<script type="application/ecmascript" xlink:href="svg.min.js"/>
<svg id="graph" class="graph">
<g id="viewport">
<title>uvg_bitstream_put</title>
<!-- Node1 -->
<g id="Node000001" class="node">
<title>Node1</title>
<g id="a_Node000001"><a xlink:title=" ">
<polygon fill="#999999" stroke="#666666" points="726,-192.5 618,-192.5 618,-173.5 726,-173.5 726,-192.5"/>
<text text-anchor="middle" x="672" y="-180.5" font-family="Helvetica,sans-Serif" font-size="10.00">uvg_bitstream_put</text>
</a>
</g>
</g>
<!-- Node2 -->
<g id="Node000002" class="node">
<title>Node2</title>
<g id="a_Node000002"><a xlink:href="bitstream__util_8cpp.html#a423bd5bc72b723f5642a91deb7a5cb0b" target="_top" xlink:title=" ">
<polygon fill="white" stroke="#666666" points="576.5,-356 439.5,-356 439.5,-326 576.5,-326 576.5,-356"/>
<text text-anchor="start" x="447.5" y="-344" font-family="Helvetica,sans-Serif" font-size="10.00">uvg_bitstream_add_rbsp</text>
<text text-anchor="middle" x="508" y="-333" font-family="Helvetica,sans-Serif" font-size="10.00">_trailing_bits</text>
</a>
</g>
</g>
<!-- Node1&#45;&gt;Node2 -->
<g id="edge1_Node000001_Node000002" class="edge">
<title>Node1&#45;&gt;Node2</title>
<g id="a_edge1_Node000001_Node000002"><a xlink:title=" ">
<path fill="none" stroke="#63b8ff" d="M663.25,-202.12C650.53,-231.12 622.56,-286.1 582,-317 577.54,-320.4 572.58,-323.32 567.41,-325.84"/>
<polygon fill="#63b8ff" stroke="#63b8ff" points="666.56,-203.28 667.23,-192.7 660.11,-200.55 666.56,-203.28"/>
</a>
</g>
</g>
<!-- Node5 -->
<g id="Node000005" class="node">
<title>Node5</title>
<g id="a_Node000005"><a xlink:href="bitstream__util_8cpp.html#a30bd11b6c91d37315d3ee911d83a72ed" target="_top" xlink:title=" ">
<polygon fill="white" stroke="#666666" points="570.5,-307.5 445.5,-307.5 445.5,-288.5 570.5,-288.5 570.5,-307.5"/>
<text text-anchor="middle" x="508" y="-295.5" font-family="Helvetica,sans-Serif" font-size="10.00">uvg_bitstream_put_ue</text>
</a>
</g>
</g>
<!-- Node1&#45;&gt;Node5 -->
<g id="edge4_Node000001_Node000005" class="edge">
<title>Node1&#45;&gt;Node5</title>
<g id="a_edge4_Node000001_Node000005"><a xlink:title=" ">
<path fill="none" stroke="#63b8ff" d="M659.25,-200.94C644.03,-222.71 615.45,-259 582,-279 575.48,-282.9 568.17,-286.01 560.76,-288.48"/>
<polygon fill="#63b8ff" stroke="#63b8ff" points="662.2,-202.82 664.93,-192.58 656.41,-198.88 662.2,-202.82"/>
</a>
</g>
</g>
<!-- Node6 -->
<g id="Node000006" class="node">
<title>Node6</title>
<g id="a_Node000006"><a xlink:href="classatlas__context.html#a56450f7f8e92c4a07026d4d7c4be7dcd" target="_top" xlink:title=" ">
<polygon fill="white" stroke="#666666" points="564.5,-270 451.5,-270 451.5,-240 564.5,-240 564.5,-270"/>
<text text-anchor="start" x="459.5" y="-258" font-family="Helvetica,sans-Serif" font-size="10.00">atlas_context::write</text>
<text text-anchor="middle" x="508" y="-247" font-family="Helvetica,sans-Serif" font-size="10.00">_atlas_eob</text>
</a>
</g>
</g>
<!-- Node1&#45;&gt;Node6 -->
<g id="edge5_Node000001_Node000006" class="edge">
<title>Node1&#45;&gt;Node6</title>
<g id="a_edge5_Node000001_Node000006"><a xlink:title=" ">
<path fill="none" stroke="#63b8ff" d="M646.35,-197.83C628.81,-208 604.45,-221.34 582,-231 574.65,-234.16 566.73,-237.16 558.92,-239.9"/>
<polygon fill="#63b8ff" stroke="#63b8ff" points="648.49,-200.63 655.34,-192.55 644.95,-194.59 648.49,-200.63"/>
</a>
</g>
</g>
<!-- Node7 -->
<g id="Node000007" class="node">
<title>Node7</title>
<g id="a_Node000007"><a xlink:href="classatlas__context.html#a144495d5cb47643d5d9bcf4283a8f97f" target="_top" xlink:title=" ">
<polygon fill="white" stroke="#666666" points="564.5,-222 451.5,-222 451.5,-192 564.5,-192 564.5,-222"/>
<text text-anchor="start" x="459.5" y="-210" font-family="Helvetica,sans-Serif" font-size="10.00">atlas_context::write</text>
<text text-anchor="middle" x="508" y="-199" font-family="Helvetica,sans-Serif" font-size="10.00">_atlas_nal</text>
</a>
</g>
</g>
<!-- Node1&#45;&gt;Node7 -->
<g id="edge6_Node000001_Node000007" class="edge">
<title>Node1&#45;&gt;Node7</title>
<g id="a_edge6_Node000001_Node000007"><a xlink:title=" ">
<path fill="none" stroke="#63b8ff" d="M607.76,-192.37C593.54,-194.48 578.55,-196.7 564.67,-198.75"/>
<polygon fill="#63b8ff" stroke="#63b8ff" points="608.58,-195.79 617.96,-190.86 607.55,-188.86 608.58,-195.79"/>
</a>
</g>
</g>
<!-- Node8 -->
<g id="Node000008" class="node">
<title>Node8</title>
<g id="a_Node000008"><a xlink:href="classatlas__context.html#ab3da4e46b1b81ce24bcc82e93c4fe3ab" target="_top" xlink:title=" ">
<polygon fill="white" stroke="#666666" points="582,-174 434,-174 434,-144 582,-144 582,-174"/>
<text text-anchor="start" x="442" y="-162" font-family="Helvetica,sans-Serif" font-size="10.00">atlas_context::write</text>
<text text-anchor="middle" x="508" y="-151" font-family="Helvetica,sans-Serif" font-size="10.00">_atlas_parameter_set_nals</text>
</a>
</g>
</g>
<!-- Node1&#45;&gt;Node8 -->
<g id="edge7_Node000001_Node000008" class="edge">
<title>Node1&#45;&gt;Node8</title>
<g id="a_edge7_Node000001_Node000008"><a xlink:title=" ">
<path fill="none" stroke="#63b8ff" d="M607.85,-173.64C599.43,-172.4 590.74,-171.11 582.17,-169.84"/>
<polygon fill="#63b8ff" stroke="#63b8ff" points="607.55,-177.14 617.96,-175.14 608.58,-170.21 607.55,-177.14"/>
</a>
</g>
</g>
<!-- Node9 -->
<g id="Node000009" class="node">
<title>Node9</title>
<g id="a_Node000009"><a xlink:href="classatlas__context.html#a24296684ad259ec9f83aec0bd2bbf53c" target="_top" xlink:title=" ">
<polygon fill="white" stroke="#666666" points="568.5,-126 447.5,-126 447.5,-96 568.5,-96 568.5,-126"/>
<text text-anchor="start" x="455.5" y="-114" font-family="Helvetica,sans-Serif" font-size="10.00">atlas_context::write</text>
<text text-anchor="middle" x="508" y="-103" font-family="Helvetica,sans-Serif" font-size="10.00">_atlas_sub_bitstream</text>
</a>
</g>
</g>
<!-- Node1&#45;&gt;Node9 -->
<g id="edge8_Node000001_Node000009" class="edge">
<title>Node1&#45;&gt;Node9</title>
<g id="a_edge8_Node000001_Node000009"><a xlink:title=" ">
<path fill="none" stroke="#63b8ff" d="M646.35,-168.17C628.81,-158 604.45,-144.66 582,-135 574.65,-131.84 566.73,-128.84 558.92,-126.1"/>
<polygon fill="#63b8ff" stroke="#63b8ff" points="644.95,-171.41 655.34,-173.45 648.49,-165.37 644.95,-171.41"/>
</a>
</g>
</g>
<!-- Node10 -->
<g id="Node000010" class="node">
<title>Node10</title>
<g id="a_Node000010"><a xlink:href="classv3c__gof.html#a7623e830a39058987eaea7f9ff65bf72" target="_top" xlink:title=" ">
<polygon fill="white" stroke="#666666" points="561.5,-78 454.5,-78 454.5,-48 561.5,-48 561.5,-78"/>
<text text-anchor="start" x="462.5" y="-66" font-family="Helvetica,sans-Serif" font-size="10.00">v3c_gof::write_v3c</text>
<text text-anchor="middle" x="508" y="-55" font-family="Helvetica,sans-Serif" font-size="10.00">_chunk</text>
</a>
</g>
</g>
<!-- Node1&#45;&gt;Node10 -->
<g id="edge9_Node000001_Node000010" class="edge">
<title>Node1&#45;&gt;Node10</title>
<g id="a_edge9_Node000001_Node000010"><a xlink:title=" ">
<path fill="none" stroke="#63b8ff" d="M658.8,-165.08C643.31,-143.61 614.64,-107.94 582,-87 575.71,-82.97 568.68,-79.55 561.53,-76.67"/>
<polygon fill="#63b8ff" stroke="#63b8ff" points="655.98,-167.16 664.6,-173.32 661.71,-163.13 655.98,-167.16"/>
</a>
</g>
</g>
<!-- Node14 -->
<g id="Node000014" class="node">
<title>Node14</title>
<g id="a_Node000014"><a xlink:href="classv3c__gof.html#a16c6c5414ca72ba7a33ab15981c7b40c" target="_top" xlink:title=" ">
<polygon fill="white" stroke="#666666" points="561.5,-30 454.5,-30 454.5,0 561.5,0 561.5,-30"/>
<text text-anchor="start" x="462.5" y="-18" font-family="Helvetica,sans-Serif" font-size="10.00">v3c_gof::write_v3c</text>
<text text-anchor="middle" x="508" y="-7" font-family="Helvetica,sans-Serif" font-size="10.00">_ld_chunk</text>
</a>
</g>
</g>
<!-- Node1&#45;&gt;Node14 -->
<g id="edge13_Node000001_Node000014" class="edge">
<title>Node1&#45;&gt;Node14</title>
<g id="a_edge13_Node000001_Node000014"><a xlink:title=" ">
<path fill="none" stroke="#63b8ff" d="M664.15,-163.76C652.22,-132.98 624.74,-72.68 582,-39 575.92,-34.21 568.85,-30.36 561.55,-27.27"/>
<polygon fill="#63b8ff" stroke="#63b8ff" points="660.94,-165.19 667.72,-173.33 667.5,-162.74 660.94,-165.19"/>
</a>
</g>
</g>
<!-- Node3 -->
<g id="Node000003" class="node">
<title>Node3</title>
<g id="a_Node000003"><a xlink:href="bitstream__util_8cpp.html#a7a68eb472ffb2162b61292d074642d4c" target="_top" xlink:title=" ">
<polygon fill="white" stroke="#666666" points="385,-350.5 269,-350.5 269,-331.5 385,-331.5 385,-350.5"/>
<text text-anchor="middle" x="327" y="-338.5" font-family="Helvetica,sans-Serif" font-size="10.00">uvg_bitstream_align</text>
</a>
</g>
</g>
<!-- Node2&#45;&gt;Node3 -->
<g id="edge2_Node000002_Node000003" class="edge">
<title>Node2&#45;&gt;Node3</title>
<g id="a_edge2_Node000002_Node000003"><a xlink:title=" ">
<path fill="none" stroke="#63b8ff" d="M429.19,-341C414.43,-341 399.23,-341 385.24,-341"/>
<polygon fill="#63b8ff" stroke="#63b8ff" points="429.33,-344.5 439.33,-341 429.33,-337.5 429.33,-344.5"/>
</a>
</g>
</g>
<!-- Node4 -->
<g id="Node000004" class="node">
<title>Node4</title>
<g id="a_Node000004"><a xlink:href="classvps.html#a621f597b4c41ed6cde608d6932299803" target="_top" xlink:title=" ">
<polygon fill="white" stroke="#666666" points="192,-350.5 105,-350.5 105,-331.5 192,-331.5 192,-350.5"/>
<text text-anchor="middle" x="148.5" y="-338.5" font-family="Helvetica,sans-Serif" font-size="10.00">vps::write_vps</text>
</a>
</g>
</g>
<!-- Node3&#45;&gt;Node4 -->
<g id="edge3_Node000003_Node000004" class="edge">
<title>Node3&#45;&gt;Node4</title>
<g id="a_edge3_Node000003_Node000004"><a xlink:title=" ">
<path fill="none" stroke="#63b8ff" d="M258.61,-341C236.33,-341 212.17,-341 192.26,-341"/>
<polygon fill="#63b8ff" stroke="#63b8ff" points="258.7,-344.5 268.7,-341 258.7,-337.5 258.7,-344.5"/>
</a>
</g>
</g>
<!-- Node11 -->
<g id="Node000011" class="node">
<title>Node11</title>
<g id="a_Node000011"><a xlink:href="classBitstreamGeneration.html#a575d20f0f40bad111cab04d0b4f259ee" target="_top" xlink:title=" ">
<polygon fill="white" stroke="#666666" points="398,-54 256,-54 256,-24 398,-24 398,-54"/>
<text text-anchor="start" x="264" y="-42" font-family="Helvetica,sans-Serif" font-size="10.00">BitstreamGeneration</text>
<text text-anchor="middle" x="327" y="-31" font-family="Helvetica,sans-Serif" font-size="10.00">::createV3CGOFBitstream</text>
</a>
</g>
</g>
<!-- Node10&#45;&gt;Node11 -->
<g id="edge10_Node000010_Node000011" class="edge">
<title>Node10&#45;&gt;Node11</title>
<g id="a_edge10_Node000010_Node000011"><a xlink:title=" ">
<path fill="none" stroke="#63b8ff" d="M444.18,-54.58C429.34,-52.59 413.43,-50.45 398.28,-48.42"/>
<polygon fill="#63b8ff" stroke="#63b8ff" points="443.89,-58.07 454.26,-55.93 444.82,-51.13 443.89,-58.07"/>
</a>
</g>
</g>
<!-- Node12 -->
<g id="Node000012" class="node">
<title>Node12</title>
<g id="a_Node000012"><a xlink:href="namespaceuvgvpcc__enc_1_1API.html#ac96f1663ec59a1bbc04778ae958780fa" target="_top" xlink:title="Entry point of the uvgVPCCenc library. Take as input a frame. Create all the jobs for processing this...">
<polygon fill="white" stroke="#666666" points="220,-54 77,-54 77,-24 220,-24 220,-54"/>
<text text-anchor="start" x="85" y="-42" font-family="Helvetica,sans-Serif" font-size="10.00">uvgvpcc_enc::API::encode</text>
<text text-anchor="middle" x="148.5" y="-31" font-family="Helvetica,sans-Serif" font-size="10.00">Frame</text>
</a>
</g>
</g>
<!-- Node11&#45;&gt;Node12 -->
<g id="edge11_Node000011_Node000012" class="edge">
<title>Node11&#45;&gt;Node12</title>
<g id="a_edge11_Node000011_Node000012"><a xlink:title=" ">
<path fill="none" stroke="#63b8ff" d="M245.91,-39C237.27,-39 228.52,-39 220,-39"/>
<polygon fill="#63b8ff" stroke="#63b8ff" points="245.99,-42.5 255.99,-39 245.99,-35.5 245.99,-42.5"/>
</a>
</g>
</g>
<!-- Node13 -->
<g id="Node000013" class="node">
<title>Node13</title>
<g id="a_Node000013"><a xlink:href="uvgVPCCencAppExample_8cpp.html#aee608aedd5b0b58f2966c2ff15101925" target="_top" xlink:title="This example application offers a simple approach to working with the uvgVPCCenc library and highligh...">
<polygon fill="white" stroke="#666666" points="41,-48.5 0,-48.5 0,-29.5 41,-29.5 41,-48.5"/>
<text text-anchor="middle" x="20.5" y="-36.5" font-family="Helvetica,sans-Serif" font-size="10.00">main</text>
</a>
</g>
</g>
<!-- Node12&#45;&gt;Node13 -->
<g id="edge12_Node000012_Node000013" class="edge">
<title>Node12&#45;&gt;Node13</title>
<g id="a_edge12_Node000012_Node000013"><a xlink:title=" ">
<path fill="none" stroke="#63b8ff" d="M66.74,-39C57.29,-39 48.42,-39 41.08,-39"/>
<polygon fill="#63b8ff" stroke="#63b8ff" points="66.77,-42.5 76.77,-39 66.77,-35.5 66.77,-42.5"/>
</a>
</g>
</g>
<!-- Node14&#45;&gt;Node11 -->
<g id="edge14_Node000014_Node000011" class="edge">
<title>Node14&#45;&gt;Node11</title>
<g id="a_edge14_Node000014_Node000011"><a xlink:title=" ">
<path fill="none" stroke="#63b8ff" d="M444.18,-23.42C429.34,-25.41 413.43,-27.55 398.28,-29.58"/>
<polygon fill="#63b8ff" stroke="#63b8ff" points="444.82,-26.87 454.26,-22.07 443.89,-19.93 444.82,-26.87"/>
</a>
</g>
</g>
</g>
</svg>

<g id="navigator" transform="translate(0 0)" fill="#404254">
  <rect fill="#f2f5e9" fill-opacity="0.5" stroke="#606060" stroke-width=".5" x="0" y="0" width="60" height="60"/>
  <use id="zoomplus" xlink:href="#zoomPlus" x="17" y="9" onmousedown="handleZoom(evt,'in')"/>
  <use id="zoomminus" xlink:href="#zoomMin" x="42" y="9" onmousedown="handleZoom(evt,'out')"/>
  <use id="reset" xlink:href="#resetDef" x="30" y="36" onmousedown="handleReset()"/>
   <use id="arrowup" xlink:href="#arrowUp" x="0" y="0" onmousedown="handlePan(0,-1)"/>
  <use id="arrowright" xlink:href="#arrowRight" x="0" y="0" onmousedown="handlePan(1,0)"/>
  <use id="arrowdown" xlink:href="#arrowDown" x="0" y="0" onmousedown="handlePan(0,1)"/>
  <use id="arrowleft" xlink:href="#arrowLeft" x="0" y="0" onmousedown="handlePan(-1,0)"/>
</g>
<svg viewBox="0 0 15 15" width="100%" height="30px" preserveAspectRatio="xMaxYMin meet">
 <g id="arrow_out" transform="scale(0.3 0.3)">
  <a xlink:href="bitstream__util_8cpp_a0e5e61b87281454f22e12f063c0bbeb6_icgraph_org.svg" target="_base">
   <rect id="button" ry="5" rx="5" y="6" x="6" height="38" width="38"
        fill="#f2f5e9" fill-opacity="0.5" stroke="#606060" stroke-width="1.0"/>
   <path id="arrow"
     d="M 11.500037,31.436501 C 11.940474,20.09759 22.043105,11.32322 32.158766,21.979434 L 37.068811,17.246167 C 37.068811,17.246167 37.088388,32 37.088388,32 L 22.160133,31.978069 C 22.160133,31.978069 26.997745,27.140456 26.997745,27.140456 C 18.528582,18.264221 13.291696,25.230495 11.500037,31.436501 z"
     style="fill:#404040;"/>
  </a>
 </g>
</svg>

<style type='text/css'>
<![CDATA[
[data-mouse-over-selected='false'] { opacity: 0.7; }
[data-mouse-over-selected='true']  { opacity: 1.0; }
]]>
</style>
<script type="application/ecmascript"><![CDATA[
document.addEventListener('DOMContentLoaded', (event) => {
  highlightEdges();
  highlightAdjacentNodes();
});
]]></script>
</svg>
