<?xml version="1.0" encoding="UTF-8" standalone="no"?>
<!DOCTYPE svg PUBLIC "-//W3C//DTD SVG 1.1//EN"
 "http://www.w3.org/Graphics/SVG/1.1/DTD/svg11.dtd">
<!-- Generated by graphviz version 2.43.0 (0)
 -->
<!-- Title: uvg_bitstream_free_chunks Pages: 1 -->
<svg width="874pt" height="124pt"
 viewBox="0.00 0.00 874.00 123.50" xmlns="http://www.w3.org/2000/svg" xmlns:xlink="http://www.w3.org/1999/xlink">
<g id="graph0" class="graph" transform="scale(1 1) rotate(0) translate(4 119.5)">
<title>uvg_bitstream_free_chunks</title>
<!-- Node1 -->
<g id="Node000001" class="node">
<title>Node1</title>
<g id="a_Node000001"><a xlink:title=" ">
<polygon fill="#999999" stroke="#666666" points="866,-96 754,-96 754,-66 866,-66 866,-96"/>
<text text-anchor="start" x="762" y="-84" font-family="Helvetica,sans-Serif" font-size="10.00">uvg_bitstream_free</text>
<text text-anchor="middle" x="810" y="-73" font-family="Helvetica,sans-Serif" font-size="10.00">_chunks</text>
</a>
</g>
</g>
<!-- Node2 -->
<g id="Node000002" class="node">
<title>Node2</title>
<g id="a_Node000002"><a xlink:href="bitstream__util_8cpp.html#adc744385329475f3f937a38195c1066d" target="_top" xlink:title=" ">
<polygon fill="white" stroke="#666666" points="712,-112.5 596,-112.5 596,-93.5 712,-93.5 712,-112.5"/>
<text text-anchor="middle" x="654" y="-100.5" font-family="Helvetica,sans-Serif" font-size="10.00">uvg_bitstream_clear</text>
</a>
</g>
</g>
<!-- Node1&#45;&gt;Node2 -->
<g id="edge1_Node000001_Node000002" class="edge">
<title>Node1&#45;&gt;Node2</title>
<g id="a_edge1_Node000001_Node000002"><a xlink:title=" ">
<path fill="none" stroke="#63b8ff" d="M743.85,-90.31C733.3,-91.81 722.45,-93.36 712.11,-94.84"/>
<polygon fill="#63b8ff" stroke="#63b8ff" points="744.43,-93.76 753.84,-88.88 743.44,-86.83 744.43,-93.76"/>
</a>
</g>
</g>
<!-- Node4 -->
<g id="Node000004" class="node">
<title>Node4</title>
<g id="a_Node000004"><a xlink:href="bitstream__util_8cpp.html#a3bdf77ac9496bba79a46c840a4042550" target="_top" xlink:title=" ">
<polygon fill="white" stroke="#666666" points="718,-72.5 590,-72.5 590,-53.5 718,-53.5 718,-72.5"/>
<text text-anchor="middle" x="654" y="-60.5" font-family="Helvetica,sans-Serif" font-size="10.00">uvg_bitstream_finalize</text>
</a>
</g>
</g>
<!-- Node1&#45;&gt;Node4 -->
<g id="edge3_Node000001_Node000004" class="edge">
<title>Node1&#45;&gt;Node4</title>
<g id="a_edge3_Node000001_Node000004"><a xlink:title=" ">
<path fill="none" stroke="#63b8ff" d="M743.66,-73.36C735.21,-72.38 726.57,-71.37 718.16,-70.38"/>
<polygon fill="#63b8ff" stroke="#63b8ff" points="743.5,-76.87 753.84,-74.55 744.31,-69.92 743.5,-76.87"/>
</a>
</g>
</g>
<!-- Node3 -->
<g id="Node000003" class="node">
<title>Node3</title>
<g id="a_Node000003"><a xlink:href="bitstream__util_8cpp.html#a9fd29bba4320f62d377c398b9f367a8b" target="_top" xlink:title=" ">
<polygon fill="white" stroke="#666666" points="554,-115.5 434,-115.5 434,-96.5 554,-96.5 554,-115.5"/>
<text text-anchor="middle" x="494" y="-103.5" font-family="Helvetica,sans-Serif" font-size="10.00">uvg_bitstream_move</text>
</a>
</g>
</g>
<!-- Node2&#45;&gt;Node3 -->
<g id="edge2_Node000002_Node000003" class="edge">
<title>Node2&#45;&gt;Node3</title>
<g id="a_edge2_Node000002_Node000003"><a xlink:title=" ">
<path fill="none" stroke="#63b8ff" d="M585.93,-104.27C575.34,-104.47 564.47,-104.68 554.09,-104.88"/>
<polygon fill="#63b8ff" stroke="#63b8ff" points="586.03,-107.77 595.96,-104.08 585.89,-100.77 586.03,-107.77"/>
</a>
</g>
</g>
<!-- Node5 -->
<g id="Node000005" class="node">
<title>Node5</title>
<g id="a_Node000005"><a xlink:href="classv3c__gof.html#a7623e830a39058987eaea7f9ff65bf72" target="_top" xlink:title=" ">
<polygon fill="white" stroke="#666666" points="547.5,-78 440.5,-78 440.5,-48 547.5,-48 547.5,-78"/>
<text text-anchor="start" x="448.5" y="-66" font-family="Helvetica,sans-Serif" font-size="10.00">v3c_gof::write_v3c</text>
<text text-anchor="middle" x="494" y="-55" font-family="Helvetica,sans-Serif" font-size="10.00">_chunk</text>
</a>
</g>
</g>
<!-- Node4&#45;&gt;Node5 -->
<g id="edge4_Node000004_Node000005" class="edge">
<title>Node4&#45;&gt;Node5</title>
<g id="a_edge4_Node000004_Node000005"><a xlink:title=" ">
<path fill="none" stroke="#63b8ff" d="M579.45,-63C568.74,-63 557.9,-63 547.72,-63"/>
<polygon fill="#63b8ff" stroke="#63b8ff" points="579.65,-66.5 589.65,-63 579.65,-59.5 579.65,-66.5"/>
</a>
</g>
</g>
<!-- Node9 -->
<g id="Node000009" class="node">
<title>Node9</title>
<g id="a_Node000009"><a xlink:href="classv3c__gof.html#a16c6c5414ca72ba7a33ab15981c7b40c" target="_top" xlink:title=" ">
<polygon fill="white" stroke="#666666" points="547.5,-30 440.5,-30 440.5,0 547.5,0 547.5,-30"/>
<text text-anchor="start" x="448.5" y="-18" font-family="Helvetica,sans-Serif" font-size="10.00">v3c_gof::write_v3c</text>
<text text-anchor="middle" x="494" y="-7" font-family="Helvetica,sans-Serif" font-size="10.00">_ld_chunk</text>
</a>
</g>
</g>
<!-- Node4&#45;&gt;Node9 -->
<g id="edge8_Node000004_Node000009" class="edge">
<title>Node4&#45;&gt;Node9</title>
<g id="a_edge8_Node000004_Node000009"><a xlink:title=" ">
<path fill="none" stroke="#63b8ff" d="M611.71,-50.46C591.16,-44.21 566.16,-36.62 544.58,-30.06"/>
<polygon fill="#63b8ff" stroke="#63b8ff" points="610.82,-53.84 621.41,-53.4 612.86,-47.15 610.82,-53.84"/>
</a>
</g>
</g>
<!-- Node6 -->
<g id="Node000006" class="node">
<title>Node6</title>
<g id="a_Node000006"><a xlink:href="classBitstreamGeneration.html#a575d20f0f40bad111cab04d0b4f259ee" target="_top" xlink:title=" ">
<polygon fill="white" stroke="#666666" points="398,-54 256,-54 256,-24 398,-24 398,-54"/>
<text text-anchor="start" x="264" y="-42" font-family="Helvetica,sans-Serif" font-size="10.00">BitstreamGeneration</text>
<text text-anchor="middle" x="327" y="-31" font-family="Helvetica,sans-Serif" font-size="10.00">::createV3CGOFBitstream</text>
</a>
</g>
</g>
<!-- Node5&#45;&gt;Node6 -->
<g id="edge5_Node000005_Node000006" class="edge">
<title>Node5&#45;&gt;Node6</title>
<g id="a_edge5_Node000005_Node000006"><a xlink:title=" ">
<path fill="none" stroke="#63b8ff" d="M430.42,-53.9C419.9,-52.37 408.92,-50.77 398.23,-49.21"/>
<polygon fill="#63b8ff" stroke="#63b8ff" points="429.94,-57.36 440.34,-55.34 430.95,-50.44 429.94,-57.36"/>
</a>
</g>
</g>
<!-- Node7 -->
<g id="Node000007" class="node">
<title>Node7</title>
<g id="a_Node000007"><a xlink:href="namespaceuvgvpcc__enc_1_1API.html#adbce6afc710547457b42680ba4e6366c" target="_top" xlink:title="Entry point of the uvgVPCCenc library. Take as input a frame. Create all the jobs for processing this...">
<polygon fill="white" stroke="#666666" points="220,-54 77,-54 77,-24 220,-24 220,-54"/>
<text text-anchor="start" x="85" y="-42" font-family="Helvetica,sans-Serif" font-size="10.00">uvgvpcc_enc::API::encode</text>
<text text-anchor="middle" x="148.5" y="-31" font-family="Helvetica,sans-Serif" font-size="10.00">Frame</text>
</a>
</g>
</g>
<!-- Node6&#45;&gt;Node7 -->
<g id="edge6_Node000006_Node000007" class="edge">
<title>Node6&#45;&gt;Node7</title>
<g id="a_edge6_Node000006_Node000007"><a xlink:title=" ">
<path fill="none" stroke="#63b8ff" d="M245.91,-39C237.27,-39 228.52,-39 220,-39"/>
<polygon fill="#63b8ff" stroke="#63b8ff" points="245.99,-42.5 255.99,-39 245.99,-35.5 245.99,-42.5"/>
</a>
</g>
</g>
<!-- Node8 -->
<g id="Node000008" class="node">
<title>Node8</title>
<g id="a_Node000008"><a xlink:href="uvgVPCCencAppExample_8cpp.html#aee608aedd5b0b58f2966c2ff15101925" target="_top" xlink:title="This example application offers a simple approach to working with the uvgVPCCenc library and highligh...">
<polygon fill="white" stroke="#666666" points="41,-48.5 0,-48.5 0,-29.5 41,-29.5 41,-48.5"/>
<text text-anchor="middle" x="20.5" y="-36.5" font-family="Helvetica,sans-Serif" font-size="10.00">main</text>
</a>
</g>
</g>
<!-- Node7&#45;&gt;Node8 -->
<g id="edge7_Node000007_Node000008" class="edge">
<title>Node7&#45;&gt;Node8</title>
<g id="a_edge7_Node000007_Node000008"><a xlink:title=" ">
<path fill="none" stroke="#63b8ff" d="M66.74,-39C57.29,-39 48.42,-39 41.08,-39"/>
<polygon fill="#63b8ff" stroke="#63b8ff" points="66.77,-42.5 76.77,-39 66.77,-35.5 66.77,-42.5"/>
</a>
</g>
</g>
<!-- Node9&#45;&gt;Node6 -->
<g id="edge9_Node000009_Node000006" class="edge">
<title>Node9&#45;&gt;Node6</title>
<g id="a_edge9_Node000009_Node000006"><a xlink:title=" ">
<path fill="none" stroke="#63b8ff" d="M430.42,-24.1C419.9,-25.63 408.92,-27.23 398.23,-28.79"/>
<polygon fill="#63b8ff" stroke="#63b8ff" points="430.95,-27.56 440.34,-22.66 429.94,-20.64 430.95,-27.56"/>
</a>
</g>
</g>
</g>
</svg>
