<?xml version="1.0" encoding="UTF-8" standalone="no"?>
<!DOCTYPE svg PUBLIC "-//W3C//DTD SVG 1.1//EN"
 "http://www.w3.org/Graphics/SVG/1.1/DTD/svg11.dtd">
<!-- Generated by graphviz version 2.43.0 (0)
 -->
<!-- Title: uvg_bitstream_put_ue Pages: 1 -->
<svg width="604pt" height="38pt"
 viewBox="0.00 0.00 604.00 38.00" xmlns="http://www.w3.org/2000/svg" xmlns:xlink="http://www.w3.org/1999/xlink">
<g id="graph0" class="graph" transform="scale(1 1) rotate(0) translate(4 34)">
<title>uvg_bitstream_put_ue</title>
<!-- Node1 -->
<g id="Node000001" class="node">
<title>Node1</title>
<g id="a_Node000001"><a xlink:title=" ">
<polygon fill="#999999" stroke="#666666" points="125,-24.5 0,-24.5 0,-5.5 125,-5.5 125,-24.5"/>
<text text-anchor="middle" x="62.5" y="-12.5" font-family="Helvetica,sans-Serif" font-size="10.00">uvg_bitstream_put_ue</text>
</a>
</g>
</g>
<!-- Node2 -->
<g id="Node000002" class="node">
<title>Node2</title>
<g id="a_Node000002"><a xlink:href="bitstream__util_8cpp.html#a0e5e61b87281454f22e12f063c0bbeb6" target="_top" xlink:title=" ">
<polygon fill="white" stroke="#666666" points="269,-24.5 161,-24.5 161,-5.5 269,-5.5 269,-24.5"/>
<text text-anchor="middle" x="215" y="-12.5" font-family="Helvetica,sans-Serif" font-size="10.00">uvg_bitstream_put</text>
</a>
</g>
</g>
<!-- Node1&#45;&gt;Node2 -->
<g id="edge1_Node000001_Node000002" class="edge">
<title>Node1&#45;&gt;Node2</title>
<g id="a_edge1_Node000001_Node000002"><a xlink:title=" ">
<path fill="none" stroke="#63b8ff" d="M125.15,-15C133.57,-15 142.24,-15 150.69,-15"/>
<polygon fill="#63b8ff" stroke="#63b8ff" points="150.87,-18.5 160.87,-15 150.87,-11.5 150.87,-18.5"/>
</a>
</g>
</g>
<!-- Node3 -->
<g id="Node000003" class="node">
<title>Node3</title>
<g id="a_Node000003"><a xlink:href="bitstream__util_8cpp.html#a7cf378cfbd682b58c16948ad8935d7bc" target="_top" xlink:title="Write a byte to bitstream.">
<polygon fill="white" stroke="#666666" points="444,-24.5 305,-24.5 305,-5.5 444,-5.5 444,-24.5"/>
<text text-anchor="middle" x="374.5" y="-12.5" font-family="Helvetica,sans-Serif" font-size="10.00">uvg_bitstream_writebyte</text>
</a>
</g>
</g>
<!-- Node2&#45;&gt;Node3 -->
<g id="edge2_Node000002_Node000003" class="edge">
<title>Node2&#45;&gt;Node3</title>
<g id="a_edge2_Node000002_Node000003"><a xlink:title=" ">
<path fill="none" stroke="#63b8ff" d="M269.32,-15C277.53,-15 286.16,-15 294.78,-15"/>
<polygon fill="#63b8ff" stroke="#63b8ff" points="294.88,-18.5 304.88,-15 294.88,-11.5 294.88,-18.5"/>
</a>
</g>
</g>
<!-- Node4 -->
<g id="Node000004" class="node">
<title>Node4</title>
<g id="a_Node000004"><a xlink:href="bitstream__util_8cpp.html#a7b8aab2d25c86997e6d1462e4cbcd30f" target="_top" xlink:title=" ">
<polygon fill="white" stroke="#666666" points="596,-30 480,-30 480,0 596,0 596,-30"/>
<text text-anchor="start" x="488" y="-18" font-family="Helvetica,sans-Serif" font-size="10.00">uvg_bitstream_alloc</text>
<text text-anchor="middle" x="538" y="-7" font-family="Helvetica,sans-Serif" font-size="10.00">_chunk</text>
</a>
</g>
</g>
<!-- Node3&#45;&gt;Node4 -->
<g id="edge3_Node000003_Node000004" class="edge">
<title>Node3&#45;&gt;Node4</title>
<g id="a_edge3_Node000003_Node000004"><a xlink:title=" ">
<path fill="none" stroke="#63b8ff" d="M444.46,-15C452.87,-15 461.46,-15 469.84,-15"/>
<polygon fill="#63b8ff" stroke="#63b8ff" points="469.94,-18.5 479.94,-15 469.94,-11.5 469.94,-18.5"/>
</a>
</g>
</g>
</g>
</svg>
