<?xml version="1.0" encoding="UTF-8" standalone="no"?>
<!DOCTYPE svg PUBLIC "-//W3C//DTD SVG 1.1//EN"
 "http://www.w3.org/Graphics/SVG/1.1/DTD/svg11.dtd">
<!-- Generated by graphviz version 2.43.0 (0)
 -->
<!-- Title: uvg_bitstream_alloc_chunk Pages: 1 -->
<!--zoomable 364 -->

<svg id="main" version="1.1" xmlns="http://www.w3.org/2000/svg" xmlns:xlink="http://www.w3.org/1999/xlink" xml:space="preserve" onload="init(evt)">
<style type="text/css"><![CDATA[
.node, .edge {opacity: 0.7;}
.node.selected, .edge.selected {opacity: 1;}
.edge:hover path { stroke: red; }
.edge:hover polygon { stroke: red; fill: red; }
]]></style>

<defs>
  <circle id="rim" cx="0" cy="0" r="7"/>
  <circle id="rim2" cx="0" cy="0" r="3.5"/>
  <g id="zoomPlus">
    <use xlink:href="#rim" fill="#404040"><set attributeName="fill" to="#808080" begin="zoomplus.mouseover" end="zoomplus.mouseout"/></use>
    <path d="M-4,0h8M0,-4v8" fill="none" stroke="white" stroke-width="1.5" pointer-events="none"/>
  </g>
  <g id="zoomMin">
    <use xlink:href="#rim" fill="#404040"><set attributeName="fill" to="#808080" begin="zoomminus.mouseover" end="zoomminus.mouseout"/></use>
    <path d="M-4,0h8" fill="none" stroke="white" stroke-width="1.5" pointer-events="none"/>
  </g>
  <g id="arrowUp" transform="translate(30 24)">
    <use xlink:href="#rim"/>
    <path pointer-events="none" fill="none" stroke="white" stroke-width="1.5" d="M0,-3.0v7 M-2.5,-0.5L0,-3.0L2.5,-0.5"/>
  </g>
  <g id="arrowRight" transform="rotate(90) translate(36 -43)">
    <use xlink:href="#rim"/>
    <path pointer-events="none" fill="none" stroke="white" stroke-width="1.5" d="M0,-3.0v7 M-2.5,-0.5L0,-3.0L2.5,-0.5"/>
  </g>
  <g id="arrowDown" transform="rotate(180) translate(-30 -48)">
    <use xlink:href="#rim"/>
    <path pointer-events="none" fill="none" stroke="white" stroke-width="1.5" d="M0,-3.0v7 M-2.5,-0.5L0,-3.0L2.5,-0.5"/>
  </g>
  <g id="arrowLeft" transform="rotate(270) translate(-36 17)">
    <use xlink:href="#rim"/>
    <path pointer-events="none" fill="none" stroke="white" stroke-width="1.5" d="M0,-3.0v7 M-2.5,-0.5L0,-3.0L2.5,-0.5"/>
  </g>
  <g id="resetDef">
    <use xlink:href="#rim2" fill="#404040"><set attributeName="fill" to="#808080" begin="reset.mouseover" end="reset.mouseout"/></use>
  </g>
</defs>
<script type="application/ecmascript">
var viewWidth = 1069;
var viewHeight = 364;
var sectionId = 'dynsection-5';
</script>
<script type="application/ecmascript" xlink:href="svg.min.js"/>
<svg id="graph" class="graph">
<g id="viewport">
<title>uvg_bitstream_alloc_chunk</title>
<!-- Node1 -->
<g id="Node000001" class="node">
<title>Node1</title>
<g id="a_Node000001"><a xlink:title=" ">
<polygon fill="#999999" stroke="#666666" points="1061,-262 945,-262 945,-232 1061,-232 1061,-262"/>
<text text-anchor="start" x="953" y="-250" font-family="Helvetica,sans-Serif" font-size="10.00">uvg_bitstream_alloc</text>
<text text-anchor="middle" x="1003" y="-239" font-family="Helvetica,sans-Serif" font-size="10.00">_chunk</text>
</a>
</g>
</g>
<!-- Node2 -->
<g id="Node000002" class="node">
<title>Node2</title>
<g id="a_Node000002"><a xlink:href="bitstream__util_8cpp.html#ac69c20ee312c7d90392e8a6b3b06341a" target="_top" xlink:title="Copy array of bytes to a byte&#45;aligned bitstream.">
<polygon fill="white" stroke="#666666" points="734,-308 618,-308 618,-278 734,-278 734,-308"/>
<text text-anchor="start" x="626" y="-296" font-family="Helvetica,sans-Serif" font-size="10.00">uvg_bitstream_copy</text>
<text text-anchor="middle" x="676" y="-285" font-family="Helvetica,sans-Serif" font-size="10.00">_bytes</text>
</a>
</g>
</g>
<!-- Node1&#45;&gt;Node2 -->
<g id="edge1_Node000001_Node000002" class="edge">
<title>Node1&#45;&gt;Node2</title>
<g id="a_edge1_Node000001_Node000002"><a xlink:title=" ">
<path fill="none" stroke="#63b8ff" d="M934.63,-256.54C875.36,-264.92 790.02,-277 734.05,-284.92"/>
<polygon fill="#63b8ff" stroke="#63b8ff" points="935.23,-259.98 944.64,-255.12 934.25,-253.05 935.23,-259.98"/>
</a>
</g>
</g>
<!-- Node8 -->
<g id="Node000008" class="node">
<title>Node8</title>
<g id="a_Node000008"><a xlink:href="bitstream__util_8cpp.html#a7cf378cfbd682b58c16948ad8935d7bc" target="_top" xlink:title="Write a byte to bitstream.">
<polygon fill="white" stroke="#666666" points="909,-237.5 770,-237.5 770,-218.5 909,-218.5 909,-237.5"/>
<text text-anchor="middle" x="839.5" y="-225.5" font-family="Helvetica,sans-Serif" font-size="10.00">uvg_bitstream_writebyte</text>
</a>
</g>
</g>
<!-- Node1&#45;&gt;Node8 -->
<g id="edge8_Node000001_Node000008" class="edge">
<title>Node1&#45;&gt;Node8</title>
<g id="a_edge8_Node000001_Node000008"><a xlink:title=" ">
<path fill="none" stroke="#63b8ff" d="M934.47,-239.06C926.06,-238.07 917.46,-237.05 909.04,-236.06"/>
<polygon fill="#63b8ff" stroke="#63b8ff" points="934.27,-242.56 944.61,-240.25 935.08,-235.6 934.27,-242.56"/>
</a>
</g>
</g>
<!-- Node3 -->
<g id="Node000003" class="node">
<title>Node3</title>
<g id="a_Node000003"><a xlink:href="classv3c__gof.html#a7623e830a39058987eaea7f9ff65bf72" target="_top" xlink:title=" ">
<polygon fill="white" stroke="#666666" points="561.5,-356 454.5,-356 454.5,-326 561.5,-326 561.5,-356"/>
<text text-anchor="start" x="462.5" y="-344" font-family="Helvetica,sans-Serif" font-size="10.00">v3c_gof::write_v3c</text>
<text text-anchor="middle" x="508" y="-333" font-family="Helvetica,sans-Serif" font-size="10.00">_chunk</text>
</a>
</g>
</g>
<!-- Node2&#45;&gt;Node3 -->
<g id="edge2_Node000002_Node000003" class="edge">
<title>Node2&#45;&gt;Node3</title>
<g id="a_edge2_Node000002_Node000003"><a xlink:title=" ">
<path fill="none" stroke="#63b8ff" d="M613,-310.93C595.84,-315.89 577.4,-321.22 560.88,-326"/>
<polygon fill="#63b8ff" stroke="#63b8ff" points="614.3,-314.2 622.93,-308.06 612.35,-307.47 614.3,-314.2"/>
</a>
</g>
</g>
<!-- Node7 -->
<g id="Node000007" class="node">
<title>Node7</title>
<g id="a_Node000007"><a xlink:href="classv3c__gof.html#a16c6c5414ca72ba7a33ab15981c7b40c" target="_top" xlink:title=" ">
<polygon fill="white" stroke="#666666" points="561.5,-308 454.5,-308 454.5,-278 561.5,-278 561.5,-308"/>
<text text-anchor="start" x="462.5" y="-296" font-family="Helvetica,sans-Serif" font-size="10.00">v3c_gof::write_v3c</text>
<text text-anchor="middle" x="508" y="-285" font-family="Helvetica,sans-Serif" font-size="10.00">_ld_chunk</text>
</a>
</g>
</g>
<!-- Node2&#45;&gt;Node7 -->
<g id="edge6_Node000002_Node000007" class="edge">
<title>Node2&#45;&gt;Node7</title>
<g id="a_edge6_Node000002_Node000007"><a xlink:title=" ">
<path fill="none" stroke="#63b8ff" d="M607.47,-293C592.24,-293 576.29,-293 561.77,-293"/>
<polygon fill="#63b8ff" stroke="#63b8ff" points="607.87,-296.5 617.87,-293 607.87,-289.5 607.87,-296.5"/>
</a>
</g>
</g>
<!-- Node4 -->
<g id="Node000004" class="node">
<title>Node4</title>
<g id="a_Node000004"><a xlink:href="classBitstreamGeneration.html#a575d20f0f40bad111cab04d0b4f259ee" target="_top" xlink:title=" ">
<polygon fill="white" stroke="#666666" points="398,-332 256,-332 256,-302 398,-302 398,-332"/>
<text text-anchor="start" x="264" y="-320" font-family="Helvetica,sans-Serif" font-size="10.00">BitstreamGeneration</text>
<text text-anchor="middle" x="327" y="-309" font-family="Helvetica,sans-Serif" font-size="10.00">::createV3CGOFBitstream</text>
</a>
</g>
</g>
<!-- Node3&#45;&gt;Node4 -->
<g id="edge3_Node000003_Node000004" class="edge">
<title>Node3&#45;&gt;Node4</title>
<g id="a_edge3_Node000003_Node000004"><a xlink:title=" ">
<path fill="none" stroke="#63b8ff" d="M444.18,-332.58C429.34,-330.59 413.43,-328.45 398.28,-326.42"/>
<polygon fill="#63b8ff" stroke="#63b8ff" points="443.89,-336.07 454.26,-333.93 444.82,-329.13 443.89,-336.07"/>
</a>
</g>
</g>
<!-- Node5 -->
<g id="Node000005" class="node">
<title>Node5</title>
<g id="a_Node000005"><a xlink:href="namespaceuvgvpcc__enc_1_1API.html#adbce6afc710547457b42680ba4e6366c" target="_top" xlink:title="Entry point of the uvgVPCCenc library. Take as input a frame. Create all the jobs for processing this...">
<polygon fill="white" stroke="#666666" points="220,-332 77,-332 77,-302 220,-302 220,-332"/>
<text text-anchor="start" x="85" y="-320" font-family="Helvetica,sans-Serif" font-size="10.00">uvgvpcc_enc::API::encode</text>
<text text-anchor="middle" x="148.5" y="-309" font-family="Helvetica,sans-Serif" font-size="10.00">Frame</text>
</a>
</g>
</g>
<!-- Node4&#45;&gt;Node5 -->
<g id="edge4_Node000004_Node000005" class="edge">
<title>Node4&#45;&gt;Node5</title>
<g id="a_edge4_Node000004_Node000005"><a xlink:title=" ">
<path fill="none" stroke="#63b8ff" d="M245.91,-317C237.27,-317 228.52,-317 220,-317"/>
<polygon fill="#63b8ff" stroke="#63b8ff" points="245.99,-320.5 255.99,-317 245.99,-313.5 245.99,-320.5"/>
</a>
</g>
</g>
<!-- Node6 -->
<g id="Node000006" class="node">
<title>Node6</title>
<g id="a_Node000006"><a xlink:href="uvgVPCCencAppExample_8cpp.html#aee608aedd5b0b58f2966c2ff15101925" target="_top" xlink:title="This example application offers a simple approach to working with the uvgVPCCenc library and highligh...">
<polygon fill="white" stroke="#666666" points="41,-326.5 0,-326.5 0,-307.5 41,-307.5 41,-326.5"/>
<text text-anchor="middle" x="20.5" y="-314.5" font-family="Helvetica,sans-Serif" font-size="10.00">main</text>
</a>
</g>
</g>
<!-- Node5&#45;&gt;Node6 -->
<g id="edge5_Node000005_Node000006" class="edge">
<title>Node5&#45;&gt;Node6</title>
<g id="a_edge5_Node000005_Node000006"><a xlink:title=" ">
<path fill="none" stroke="#63b8ff" d="M66.74,-317C57.29,-317 48.42,-317 41.08,-317"/>
<polygon fill="#63b8ff" stroke="#63b8ff" points="66.77,-320.5 76.77,-317 66.77,-313.5 66.77,-320.5"/>
</a>
</g>
</g>
<!-- Node7&#45;&gt;Node4 -->
<g id="edge7_Node000007_Node000004" class="edge">
<title>Node7&#45;&gt;Node4</title>
<g id="a_edge7_Node000007_Node000004"><a xlink:title=" ">
<path fill="none" stroke="#63b8ff" d="M444.18,-301.42C429.34,-303.41 413.43,-305.55 398.28,-307.58"/>
<polygon fill="#63b8ff" stroke="#63b8ff" points="444.82,-304.87 454.26,-300.07 443.89,-297.93 444.82,-304.87"/>
</a>
</g>
</g>
<!-- Node9 -->
<g id="Node000009" class="node">
<title>Node9</title>
<g id="a_Node000009"><a xlink:href="bitstream__util_8cpp.html#a0e5e61b87281454f22e12f063c0bbeb6" target="_top" xlink:title=" ">
<polygon fill="white" stroke="#666666" points="730,-211.5 622,-211.5 622,-192.5 730,-192.5 730,-211.5"/>
<text text-anchor="middle" x="676" y="-199.5" font-family="Helvetica,sans-Serif" font-size="10.00">uvg_bitstream_put</text>
</a>
</g>
</g>
<!-- Node8&#45;&gt;Node9 -->
<g id="edge9_Node000008_Node000009" class="edge">
<title>Node8&#45;&gt;Node9</title>
<g id="a_edge9_Node000008_Node000009"><a xlink:title=" ">
<path fill="none" stroke="#63b8ff" d="M769.33,-216.86C756.18,-214.75 742.62,-212.56 730.07,-210.54"/>
<polygon fill="#63b8ff" stroke="#63b8ff" points="768.85,-220.33 779.28,-218.47 769.96,-213.42 768.85,-220.33"/>
</a>
</g>
</g>
<!-- Node9&#45;&gt;Node3 -->
<g id="edge18_Node000009_Node000003" class="edge">
<title>Node9&#45;&gt;Node3</title>
<g id="a_edge18_Node000009_Node000003"><a xlink:title=" ">
<path fill="none" stroke="#63b8ff" d="M659.72,-219.36C648.07,-232.74 631.74,-251.81 618,-269 601.35,-289.83 603.67,-301.45 582,-317 575.82,-321.43 568.78,-325.08 561.55,-328.08"/>
<polygon fill="#63b8ff" stroke="#63b8ff" points="662.36,-221.66 666.31,-211.83 657.09,-217.05 662.36,-221.66"/>
</a>
</g>
</g>
<!-- Node9&#45;&gt;Node7 -->
<g id="edge19_Node000009_Node000007" class="edge">
<title>Node9&#45;&gt;Node7</title>
<g id="a_edge19_Node000009_Node000007"><a xlink:title=" ">
<path fill="none" stroke="#63b8ff" d="M656.02,-218.36C637.98,-233.24 609.58,-254.96 582,-269 575.58,-272.27 568.62,-275.23 561.63,-277.86"/>
<polygon fill="#63b8ff" stroke="#63b8ff" points="658.58,-220.78 663.99,-211.67 654.08,-215.42 658.58,-220.78"/>
</a>
</g>
</g>
<!-- Node10 -->
<g id="Node000010" class="node">
<title>Node10</title>
<g id="a_Node000010"><a xlink:href="bitstream__util_8cpp.html#a423bd5bc72b723f5642a91deb7a5cb0b" target="_top" xlink:title=" ">
<polygon fill="white" stroke="#666666" points="576.5,-260 439.5,-260 439.5,-230 576.5,-230 576.5,-260"/>
<text text-anchor="start" x="447.5" y="-248" font-family="Helvetica,sans-Serif" font-size="10.00">uvg_bitstream_add_rbsp</text>
<text text-anchor="middle" x="508" y="-237" font-family="Helvetica,sans-Serif" font-size="10.00">_trailing_bits</text>
</a>
</g>
</g>
<!-- Node9&#45;&gt;Node10 -->
<g id="edge10_Node000009_Node000010" class="edge">
<title>Node9&#45;&gt;Node10</title>
<g id="a_edge10_Node000009_Node000010"><a xlink:title=" ">
<path fill="none" stroke="#63b8ff" d="M628.23,-214.12C609.19,-219.05 586.98,-224.8 566.93,-229.99"/>
<polygon fill="#63b8ff" stroke="#63b8ff" points="629.36,-217.44 638.16,-211.54 627.6,-210.66 629.36,-217.44"/>
</a>
</g>
</g>
<!-- Node13 -->
<g id="Node000013" class="node">
<title>Node13</title>
<g id="a_Node000013"><a xlink:href="bitstream__util_8cpp.html#a30bd11b6c91d37315d3ee911d83a72ed" target="_top" xlink:title=" ">
<polygon fill="white" stroke="#666666" points="570.5,-211.5 445.5,-211.5 445.5,-192.5 570.5,-192.5 570.5,-211.5"/>
<text text-anchor="middle" x="508" y="-199.5" font-family="Helvetica,sans-Serif" font-size="10.00">uvg_bitstream_put_ue</text>
</a>
</g>
</g>
<!-- Node9&#45;&gt;Node13 -->
<g id="edge13_Node000009_Node000013" class="edge">
<title>Node9&#45;&gt;Node13</title>
<g id="a_edge13_Node000009_Node000013"><a xlink:title=" ">
<path fill="none" stroke="#63b8ff" d="M611.5,-202C598.12,-202 584.03,-202 570.71,-202"/>
<polygon fill="#63b8ff" stroke="#63b8ff" points="611.56,-205.5 621.56,-202 611.56,-198.5 611.56,-205.5"/>
</a>
</g>
</g>
<!-- Node14 -->
<g id="Node000014" class="node">
<title>Node14</title>
<g id="a_Node000014"><a xlink:href="classatlas__context.html#a56450f7f8e92c4a07026d4d7c4be7dcd" target="_top" xlink:title=" ">
<polygon fill="white" stroke="#666666" points="564.5,-174 451.5,-174 451.5,-144 564.5,-144 564.5,-174"/>
<text text-anchor="start" x="459.5" y="-162" font-family="Helvetica,sans-Serif" font-size="10.00">atlas_context::write</text>
<text text-anchor="middle" x="508" y="-151" font-family="Helvetica,sans-Serif" font-size="10.00">_atlas_eob</text>
</a>
</g>
</g>
<!-- Node9&#45;&gt;Node14 -->
<g id="edge14_Node000009_Node000014" class="edge">
<title>Node9&#45;&gt;Node14</title>
<g id="a_edge14_Node000009_Node000014"><a xlink:title=" ">
<path fill="none" stroke="#63b8ff" d="M628.45,-189.94C608.64,-184.81 585.38,-178.78 564.67,-173.42"/>
<polygon fill="#63b8ff" stroke="#63b8ff" points="627.6,-193.34 638.16,-192.46 629.36,-186.56 627.6,-193.34"/>
</a>
</g>
</g>
<!-- Node15 -->
<g id="Node000015" class="node">
<title>Node15</title>
<g id="a_Node000015"><a xlink:href="classatlas__context.html#a144495d5cb47643d5d9bcf4283a8f97f" target="_top" xlink:title=" ">
<polygon fill="white" stroke="#666666" points="564.5,-126 451.5,-126 451.5,-96 564.5,-96 564.5,-126"/>
<text text-anchor="start" x="459.5" y="-114" font-family="Helvetica,sans-Serif" font-size="10.00">atlas_context::write</text>
<text text-anchor="middle" x="508" y="-103" font-family="Helvetica,sans-Serif" font-size="10.00">_atlas_nal</text>
</a>
</g>
</g>
<!-- Node9&#45;&gt;Node15 -->
<g id="edge15_Node000009_Node000015" class="edge">
<title>Node9&#45;&gt;Node15</title>
<g id="a_edge15_Node000009_Node000015"><a xlink:title=" ">
<path fill="none" stroke="#63b8ff" d="M656.02,-185.64C637.98,-170.76 609.58,-149.04 582,-135 575.58,-131.73 568.62,-128.77 561.63,-126.14"/>
<polygon fill="#63b8ff" stroke="#63b8ff" points="654.08,-188.58 663.99,-192.33 658.58,-183.22 654.08,-188.58"/>
</a>
</g>
</g>
<!-- Node16 -->
<g id="Node000016" class="node">
<title>Node16</title>
<g id="a_Node000016"><a xlink:href="classatlas__context.html#ab3da4e46b1b81ce24bcc82e93c4fe3ab" target="_top" xlink:title=" ">
<polygon fill="white" stroke="#666666" points="582,-78 434,-78 434,-48 582,-48 582,-78"/>
<text text-anchor="start" x="442" y="-66" font-family="Helvetica,sans-Serif" font-size="10.00">atlas_context::write</text>
<text text-anchor="middle" x="508" y="-55" font-family="Helvetica,sans-Serif" font-size="10.00">_atlas_parameter_set_nals</text>
</a>
</g>
</g>
<!-- Node9&#45;&gt;Node16 -->
<g id="edge16_Node000009_Node000016" class="edge">
<title>Node9&#45;&gt;Node16</title>
<g id="a_edge16_Node000009_Node000016"><a xlink:title=" ">
<path fill="none" stroke="#63b8ff" d="M664.7,-183.47C649.69,-158.14 619.5,-112.88 582,-87 577.06,-83.59 571.6,-80.64 565.96,-78.09"/>
<polygon fill="#63b8ff" stroke="#63b8ff" points="661.82,-185.5 669.85,-192.42 667.89,-182 661.82,-185.5"/>
</a>
</g>
</g>
<!-- Node17 -->
<g id="Node000017" class="node">
<title>Node17</title>
<g id="a_Node000017"><a xlink:href="classatlas__context.html#a24296684ad259ec9f83aec0bd2bbf53c" target="_top" xlink:title=" ">
<polygon fill="white" stroke="#666666" points="568.5,-30 447.5,-30 447.5,0 568.5,0 568.5,-30"/>
<text text-anchor="start" x="455.5" y="-18" font-family="Helvetica,sans-Serif" font-size="10.00">atlas_context::write</text>
<text text-anchor="middle" x="508" y="-7" font-family="Helvetica,sans-Serif" font-size="10.00">_atlas_sub_bitstream</text>
</a>
</g>
</g>
<!-- Node9&#45;&gt;Node17 -->
<g id="edge17_Node000009_Node000017" class="edge">
<title>Node9&#45;&gt;Node17</title>
<g id="a_edge17_Node000009_Node000017"><a xlink:title=" ">
<path fill="none" stroke="#63b8ff" d="M669.11,-182.62C657.8,-148.6 629.81,-78.06 582,-39 577.76,-35.54 573.01,-32.57 568.02,-30.03"/>
<polygon fill="#63b8ff" stroke="#63b8ff" points="665.83,-183.84 672.2,-192.3 672.49,-181.7 665.83,-183.84"/>
</a>
</g>
</g>
<!-- Node11 -->
<g id="Node000011" class="node">
<title>Node11</title>
<g id="a_Node000011"><a xlink:href="bitstream__util_8cpp.html#a7a68eb472ffb2162b61292d074642d4c" target="_top" xlink:title=" ">
<polygon fill="white" stroke="#666666" points="385,-254.5 269,-254.5 269,-235.5 385,-235.5 385,-254.5"/>
<text text-anchor="middle" x="327" y="-242.5" font-family="Helvetica,sans-Serif" font-size="10.00">uvg_bitstream_align</text>
</a>
</g>
</g>
<!-- Node10&#45;&gt;Node11 -->
<g id="edge11_Node000010_Node000011" class="edge">
<title>Node10&#45;&gt;Node11</title>
<g id="a_edge11_Node000010_Node000011"><a xlink:title=" ">
<path fill="none" stroke="#63b8ff" d="M429.19,-245C414.43,-245 399.23,-245 385.24,-245"/>
<polygon fill="#63b8ff" stroke="#63b8ff" points="429.33,-248.5 439.33,-245 429.33,-241.5 429.33,-248.5"/>
</a>
</g>
</g>
<!-- Node12 -->
<g id="Node000012" class="node">
<title>Node12</title>
<g id="a_Node000012"><a xlink:href="classvps.html#a621f597b4c41ed6cde608d6932299803" target="_top" xlink:title=" ">
<polygon fill="white" stroke="#666666" points="192,-254.5 105,-254.5 105,-235.5 192,-235.5 192,-254.5"/>
<text text-anchor="middle" x="148.5" y="-242.5" font-family="Helvetica,sans-Serif" font-size="10.00">vps::write_vps</text>
</a>
</g>
</g>
<!-- Node11&#45;&gt;Node12 -->
<g id="edge12_Node000011_Node000012" class="edge">
<title>Node11&#45;&gt;Node12</title>
<g id="a_edge12_Node000011_Node000012"><a xlink:title=" ">
<path fill="none" stroke="#63b8ff" d="M258.61,-245C236.33,-245 212.17,-245 192.26,-245"/>
<polygon fill="#63b8ff" stroke="#63b8ff" points="258.7,-248.5 268.7,-245 258.7,-241.5 258.7,-248.5"/>
</a>
</g>
</g>
</g>
</svg>

<g id="navigator" transform="translate(0 0)" fill="#404254">
  <rect fill="#f2f5e9" fill-opacity="0.5" stroke="#606060" stroke-width=".5" x="0" y="0" width="60" height="60"/>
  <use id="zoomplus" xlink:href="#zoomPlus" x="17" y="9" onmousedown="handleZoom(evt,'in')"/>
  <use id="zoomminus" xlink:href="#zoomMin" x="42" y="9" onmousedown="handleZoom(evt,'out')"/>
  <use id="reset" xlink:href="#resetDef" x="30" y="36" onmousedown="handleReset()"/>
   <use id="arrowup" xlink:href="#arrowUp" x="0" y="0" onmousedown="handlePan(0,-1)"/>
  <use id="arrowright" xlink:href="#arrowRight" x="0" y="0" onmousedown="handlePan(1,0)"/>
  <use id="arrowdown" xlink:href="#arrowDown" x="0" y="0" onmousedown="handlePan(0,1)"/>
  <use id="arrowleft" xlink:href="#arrowLeft" x="0" y="0" onmousedown="handlePan(-1,0)"/>
</g>
<svg viewBox="0 0 15 15" width="100%" height="30px" preserveAspectRatio="xMaxYMin meet">
 <g id="arrow_out" transform="scale(0.3 0.3)">
  <a xlink:href="bitstream__util_8cpp_a7b8aab2d25c86997e6d1462e4cbcd30f_icgraph_org.svg" target="_base">
   <rect id="button" ry="5" rx="5" y="6" x="6" height="38" width="38"
        fill="#f2f5e9" fill-opacity="0.5" stroke="#606060" stroke-width="1.0"/>
   <path id="arrow"
     d="M 11.500037,31.436501 C 11.940474,20.09759 22.043105,11.32322 32.158766,21.979434 L 37.068811,17.246167 C 37.068811,17.246167 37.088388,32 37.088388,32 L 22.160133,31.978069 C 22.160133,31.978069 26.997745,27.140456 26.997745,27.140456 C 18.528582,18.264221 13.291696,25.230495 11.500037,31.436501 z"
     style="fill:#404040;"/>
  </a>
 </g>
</svg>

<style type='text/css'>
<![CDATA[
[data-mouse-over-selected='false'] { opacity: 0.7; }
[data-mouse-over-selected='true']  { opacity: 1.0; }
]]>
</style>
<script type="application/ecmascript"><![CDATA[
document.addEventListener('DOMContentLoaded', (event) => {
  highlightEdges();
  highlightAdjacentNodes();
});
]]></script>
</svg>
