<?xml version="1.0" encoding="UTF-8" standalone="no"?>
<!DOCTYPE svg PUBLIC "-//W3C//DTD SVG 1.1//EN"
 "http://www.w3.org/Graphics/SVG/1.1/DTD/svg11.dtd">
<!-- Generated by graphviz version 2.43.0 (0)
 -->
<!-- Title: uvg_bitstream_finalize Pages: 1 -->
<svg width="713pt" height="86pt"
 viewBox="0.00 0.00 713.00 86.00" xmlns="http://www.w3.org/2000/svg" xmlns:xlink="http://www.w3.org/1999/xlink">
<g id="graph0" class="graph" transform="scale(1 1) rotate(0) translate(4 82)">
<title>uvg_bitstream_finalize</title>
<!-- Node1 -->
<g id="Node000001" class="node">
<title>Node1</title>
<g id="a_Node000001"><a xlink:title=" ">
<polygon fill="#999999" stroke="#666666" points="705,-48.5 577,-48.5 577,-29.5 705,-29.5 705,-48.5"/>
<text text-anchor="middle" x="641" y="-36.5" font-family="Helvetica,sans-Serif" font-size="10.00">uvg_bitstream_finalize</text>
</a>
</g>
</g>
<!-- Node2 -->
<g id="Node000002" class="node">
<title>Node2</title>
<g id="a_Node000002"><a xlink:href="classv3c__gof.html#a7623e830a39058987eaea7f9ff65bf72" target="_top" xlink:title=" ">
<polygon fill="white" stroke="#666666" points="541,-78 434,-78 434,-48 541,-48 541,-78"/>
<text text-anchor="start" x="442" y="-66" font-family="Helvetica,sans-Serif" font-size="10.00">v3c_gof::write_v3c</text>
<text text-anchor="middle" x="487.5" y="-55" font-family="Helvetica,sans-Serif" font-size="10.00">_chunk</text>
</a>
</g>
</g>
<!-- Node1&#45;&gt;Node2 -->
<g id="edge1_Node000001_Node000002" class="edge">
<title>Node1&#45;&gt;Node2</title>
<g id="a_edge1_Node000001_Node000002"><a xlink:title=" ">
<path fill="none" stroke="#63b8ff" d="M569.76,-50.13C560.18,-51.65 550.47,-53.18 541.26,-54.64"/>
<polygon fill="#63b8ff" stroke="#63b8ff" points="570.36,-53.58 579.69,-48.55 569.26,-46.66 570.36,-53.58"/>
</a>
</g>
</g>
<!-- Node6 -->
<g id="Node000006" class="node">
<title>Node6</title>
<g id="a_Node000006"><a xlink:href="classv3c__gof.html#a16c6c5414ca72ba7a33ab15981c7b40c" target="_top" xlink:title=" ">
<polygon fill="white" stroke="#666666" points="541,-30 434,-30 434,0 541,0 541,-30"/>
<text text-anchor="start" x="442" y="-18" font-family="Helvetica,sans-Serif" font-size="10.00">v3c_gof::write_v3c</text>
<text text-anchor="middle" x="487.5" y="-7" font-family="Helvetica,sans-Serif" font-size="10.00">_ld_chunk</text>
</a>
</g>
</g>
<!-- Node1&#45;&gt;Node6 -->
<g id="edge5_Node000001_Node000006" class="edge">
<title>Node1&#45;&gt;Node6</title>
<g id="a_edge5_Node000001_Node000006"><a xlink:title=" ">
<path fill="none" stroke="#63b8ff" d="M569.76,-27.87C560.18,-26.35 550.47,-24.82 541.26,-23.36"/>
<polygon fill="#63b8ff" stroke="#63b8ff" points="569.26,-31.34 579.69,-29.45 570.36,-24.42 569.26,-31.34"/>
</a>
</g>
</g>
<!-- Node3 -->
<g id="Node000003" class="node">
<title>Node3</title>
<g id="a_Node000003"><a xlink:href="classBitstreamGeneration.html#a575d20f0f40bad111cab04d0b4f259ee" target="_top" xlink:title=" ">
<polygon fill="white" stroke="#666666" points="398,-54 256,-54 256,-24 398,-24 398,-54"/>
<text text-anchor="start" x="264" y="-42" font-family="Helvetica,sans-Serif" font-size="10.00">BitstreamGeneration</text>
<text text-anchor="middle" x="327" y="-31" font-family="Helvetica,sans-Serif" font-size="10.00">::createV3CGOFBitstream</text>
</a>
</g>
</g>
<!-- Node2&#45;&gt;Node3 -->
<g id="edge2_Node000002_Node000003" class="edge">
<title>Node2&#45;&gt;Node3</title>
<g id="a_edge2_Node000002_Node000003"><a xlink:title=" ">
<path fill="none" stroke="#63b8ff" d="M423.62,-53.48C415.22,-52.21 406.55,-50.89 398.03,-49.6"/>
<polygon fill="#63b8ff" stroke="#63b8ff" points="423.31,-56.97 433.72,-55.01 424.36,-50.05 423.31,-56.97"/>
</a>
</g>
</g>
<!-- Node4 -->
<g id="Node000004" class="node">
<title>Node4</title>
<g id="a_Node000004"><a xlink:href="namespaceuvgvpcc__enc_1_1API.html#ac96f1663ec59a1bbc04778ae958780fa" target="_top" xlink:title="Entry point of the uvgVPCCenc library. Take as input a frame. Create all the jobs for processing this...">
<polygon fill="white" stroke="#666666" points="220,-54 77,-54 77,-24 220,-24 220,-54"/>
<text text-anchor="start" x="85" y="-42" font-family="Helvetica,sans-Serif" font-size="10.00">uvgvpcc_enc::API::encode</text>
<text text-anchor="middle" x="148.5" y="-31" font-family="Helvetica,sans-Serif" font-size="10.00">Frame</text>
</a>
</g>
</g>
<!-- Node3&#45;&gt;Node4 -->
<g id="edge3_Node000003_Node000004" class="edge">
<title>Node3&#45;&gt;Node4</title>
<g id="a_edge3_Node000003_Node000004"><a xlink:title=" ">
<path fill="none" stroke="#63b8ff" d="M245.91,-39C237.27,-39 228.52,-39 220,-39"/>
<polygon fill="#63b8ff" stroke="#63b8ff" points="245.99,-42.5 255.99,-39 245.99,-35.5 245.99,-42.5"/>
</a>
</g>
</g>
<!-- Node5 -->
<g id="Node000005" class="node">
<title>Node5</title>
<g id="a_Node000005"><a xlink:href="uvgVPCCencAppExample_8cpp.html#aee608aedd5b0b58f2966c2ff15101925" target="_top" xlink:title="This example application offers a simple approach to working with the uvgVPCCenc library and highligh...">
<polygon fill="white" stroke="#666666" points="41,-48.5 0,-48.5 0,-29.5 41,-29.5 41,-48.5"/>
<text text-anchor="middle" x="20.5" y="-36.5" font-family="Helvetica,sans-Serif" font-size="10.00">main</text>
</a>
</g>
</g>
<!-- Node4&#45;&gt;Node5 -->
<g id="edge4_Node000004_Node000005" class="edge">
<title>Node4&#45;&gt;Node5</title>
<g id="a_edge4_Node000004_Node000005"><a xlink:title=" ">
<path fill="none" stroke="#63b8ff" d="M66.74,-39C57.29,-39 48.42,-39 41.08,-39"/>
<polygon fill="#63b8ff" stroke="#63b8ff" points="66.77,-42.5 76.77,-39 66.77,-35.5 66.77,-42.5"/>
</a>
</g>
</g>
<!-- Node6&#45;&gt;Node3 -->
<g id="edge6_Node000006_Node000003" class="edge">
<title>Node6&#45;&gt;Node3</title>
<g id="a_edge6_Node000006_Node000003"><a xlink:title=" ">
<path fill="none" stroke="#63b8ff" d="M423.62,-24.52C415.22,-25.79 406.55,-27.11 398.03,-28.4"/>
<polygon fill="#63b8ff" stroke="#63b8ff" points="424.36,-27.95 433.72,-22.99 423.31,-21.03 424.36,-27.95"/>
</a>
</g>
</g>
</g>
</svg>
