<?xml version="1.0" encoding="UTF-8" standalone="no"?>
<!DOCTYPE svg PUBLIC "-//W3C//DTD SVG 1.1//EN"
 "http://www.w3.org/Graphics/SVG/1.1/DTD/svg11.dtd">
<!-- Generated by graphviz version 2.43.0 (0)
 -->
<!-- Title: writeU Pages: 1 -->
<svg width="605pt" height="70pt"
 viewBox="0.00 0.00 605.00 69.50" xmlns="http://www.w3.org/2000/svg" xmlns:xlink="http://www.w3.org/1999/xlink">
<g id="graph0" class="graph" transform="scale(1 1) rotate(0) translate(4 65.5)">
<title>writeU</title>
<!-- Node1 -->
<g id="Node000001" class="node">
<title>Node1</title>
<g id="a_Node000001"><a xlink:title=" ">
<polygon fill="#999999" stroke="#666666" points="49,-42.5 0,-42.5 0,-23.5 49,-23.5 49,-42.5"/>
<text text-anchor="middle" x="24.5" y="-30.5" font-family="Helvetica,sans-Serif" font-size="10.00">writeU</text>
</a>
</g>
</g>
<!-- Node2 -->
<g id="Node000002" class="node">
<title>Node2</title>
<g id="a_Node000002"><a xlink:href="namespaceFileExport.html#a7aeaa297ad205055b403629f094bec0d" target="_top" xlink:title=" ">
<polygon fill="white" stroke="#666666" points="270,-61.5 85,-61.5 85,-42.5 270,-42.5 270,-61.5"/>
<text text-anchor="middle" x="177.5" y="-49.5" font-family="Helvetica,sans-Serif" font-size="10.00">FileExport::exportAtlasInformation</text>
</a>
</g>
</g>
<!-- Node1&#45;&gt;Node2 -->
<g id="edge1_Node000001_Node000002" class="edge">
<title>Node1&#45;&gt;Node2</title>
<g id="a_edge1_Node000001_Node000002"><a xlink:title=" ">
<path fill="none" stroke="#63b8ff" d="M49.09,-35.97C60.66,-37.42 75.38,-39.28 90.67,-41.2"/>
<polygon fill="#63b8ff" stroke="#63b8ff" points="90.42,-44.7 100.78,-42.47 91.29,-37.75 90.42,-44.7"/>
</a>
</g>
</g>
<!-- Node4 -->
<g id="Node000004" class="node">
<title>Node4</title>
<g id="a_Node000004"><a xlink:href="bitstream__util_8cpp.html#a0e5e61b87281454f22e12f063c0bbeb6" target="_top" xlink:title=" ">
<polygon fill="white" stroke="#666666" points="231.5,-24.5 123.5,-24.5 123.5,-5.5 231.5,-5.5 231.5,-24.5"/>
<text text-anchor="middle" x="177.5" y="-12.5" font-family="Helvetica,sans-Serif" font-size="10.00">uvg_bitstream_put</text>
</a>
</g>
</g>
<!-- Node1&#45;&gt;Node4 -->
<g id="edge3_Node000001_Node000004" class="edge">
<title>Node1&#45;&gt;Node4</title>
<g id="a_edge3_Node000001_Node000004"><a xlink:title=" ">
<path fill="none" stroke="#63b8ff" d="M49.09,-30.19C66.36,-28.13 90.65,-25.23 113.4,-22.52"/>
<polygon fill="#63b8ff" stroke="#63b8ff" points="113.85,-25.99 123.37,-21.33 113.03,-19.04 113.85,-25.99"/>
</a>
</g>
</g>
<!-- Node3 -->
<g id="Node000003" class="node">
<title>Node3</title>
<g id="a_Node000003"><a xlink:href="namespaceuvgutils.html#a0abc693a4c9342061a1247ee333c53eb" target="_top" xlink:title=" ">
<polygon fill="white" stroke="#666666" points="425.5,-61.5 325.5,-61.5 325.5,-42.5 425.5,-42.5 425.5,-61.5"/>
<text text-anchor="middle" x="375.5" y="-49.5" font-family="Helvetica,sans-Serif" font-size="10.00">uvgutils::zeroPad</text>
</a>
</g>
</g>
<!-- Node2&#45;&gt;Node3 -->
<g id="edge2_Node000002_Node000003" class="edge">
<title>Node2&#45;&gt;Node3</title>
<g id="a_edge2_Node000002_Node000003"><a xlink:title=" ">
<path fill="none" stroke="#63b8ff" d="M270.19,-52C285.5,-52 301.02,-52 315.24,-52"/>
<polygon fill="#63b8ff" stroke="#63b8ff" points="315.35,-55.5 325.35,-52 315.35,-48.5 315.35,-55.5"/>
</a>
</g>
</g>
<!-- Node5 -->
<g id="Node000005" class="node">
<title>Node5</title>
<g id="a_Node000005"><a xlink:href="bitstream__util_8cpp.html#a7cf378cfbd682b58c16948ad8935d7bc" target="_top" xlink:title="Write a byte to bitstream.">
<polygon fill="white" stroke="#666666" points="445,-24.5 306,-24.5 306,-5.5 445,-5.5 445,-24.5"/>
<text text-anchor="middle" x="375.5" y="-12.5" font-family="Helvetica,sans-Serif" font-size="10.00">uvg_bitstream_writebyte</text>
</a>
</g>
</g>
<!-- Node4&#45;&gt;Node5 -->
<g id="edge4_Node000004_Node000005" class="edge">
<title>Node4&#45;&gt;Node5</title>
<g id="a_edge4_Node000004_Node000005"><a xlink:title=" ">
<path fill="none" stroke="#63b8ff" d="M231.54,-15C251.31,-15 274.2,-15 295.78,-15"/>
<polygon fill="#63b8ff" stroke="#63b8ff" points="295.93,-18.5 305.93,-15 295.93,-11.5 295.93,-18.5"/>
</a>
</g>
</g>
<!-- Node6 -->
<g id="Node000006" class="node">
<title>Node6</title>
<g id="a_Node000006"><a xlink:href="bitstream__util_8cpp.html#a7b8aab2d25c86997e6d1462e4cbcd30f" target="_top" xlink:title=" ">
<polygon fill="white" stroke="#666666" points="597,-30 481,-30 481,0 597,0 597,-30"/>
<text text-anchor="start" x="489" y="-18" font-family="Helvetica,sans-Serif" font-size="10.00">uvg_bitstream_alloc</text>
<text text-anchor="middle" x="539" y="-7" font-family="Helvetica,sans-Serif" font-size="10.00">_chunk</text>
</a>
</g>
</g>
<!-- Node5&#45;&gt;Node6 -->
<g id="edge5_Node000005_Node000006" class="edge">
<title>Node5&#45;&gt;Node6</title>
<g id="a_edge5_Node000005_Node000006"><a xlink:title=" ">
<path fill="none" stroke="#63b8ff" d="M445.46,-15C453.87,-15 462.46,-15 470.84,-15"/>
<polygon fill="#63b8ff" stroke="#63b8ff" points="470.94,-18.5 480.94,-15 470.94,-11.5 470.94,-18.5"/>
</a>
</g>
</g>
</g>
</svg>
