<?xml version="1.0" encoding="UTF-8" standalone="no"?>
<!DOCTYPE svg PUBLIC "-//W3C//DTD SVG 1.1//EN"
 "http://www.w3.org/Graphics/SVG/1.1/DTD/svg11.dtd">
<!-- Generated by graphviz version 2.43.0 (0)
 -->
<!-- Title: src/libuvgvpccenc/bitstreamGeneration/bitstreamGeneration.hpp Pages: 1 -->
<svg width="1122pt" height="258pt"
 viewBox="0.00 0.00 1121.68 258.00" xmlns="http://www.w3.org/2000/svg" xmlns:xlink="http://www.w3.org/1999/xlink">
<g id="graph0" class="graph" transform="scale(1 1) rotate(0) translate(4 254)">
<title>src/libuvgvpccenc/bitstreamGeneration/bitstreamGeneration.hpp</title>
<!-- Node1 -->
<g id="Node000001" class="node">
<title>Node1</title>
<g id="a_Node000001"><a xlink:title=" ">
<polygon fill="#999999" stroke="#666666" points="432.68,-250 236.68,-250 236.68,-220 432.68,-220 432.68,-250"/>
<text text-anchor="start" x="244.68" y="-238" font-family="Helvetica,sans-Serif" font-size="10.00">src/libuvgvpccenc/bitstream</text>
<text text-anchor="middle" x="334.68" y="-227" font-family="Helvetica,sans-Serif" font-size="10.00">Generation/bitstreamGeneration.hpp</text>
</a>
</g>
</g>
<!-- Node2 -->
<g id="Node000002" class="node">
<title>Node2</title>
<g id="a_Node000002"><a xlink:href="parameters_8hpp.html" target="_top" xlink:title=" ">
<polygon fill="white" stroke="#666666" points="192.68,-184 74.68,-184 74.68,-165 192.68,-165 192.68,-184"/>
<text text-anchor="middle" x="133.68" y="-172" font-family="Helvetica,sans-Serif" font-size="10.00">utils/parameters.hpp</text>
</a>
</g>
</g>
<!-- Node1&#45;&gt;Node2 -->
<g id="edge1_Node000001_Node000002" class="edge">
<title>Node1&#45;&gt;Node2</title>
<g id="a_edge1_Node000001_Node000002"><a xlink:title=" ">
<path fill="none" stroke="#63b8ff" d="M286.54,-219.99C251.7,-209.85 205.21,-196.32 172.69,-186.85"/>
<polygon fill="#63b8ff" stroke="#63b8ff" points="173.65,-183.49 163.07,-184.05 171.69,-190.21 173.65,-183.49"/>
</a>
</g>
</g>
<!-- Node18 -->
<g id="Node000018" class="node">
<title>Node18</title>
<g id="a_Node000018"><a xlink:href="uvgvpcc_8hpp.html" target="_top" xlink:title=" ">
<polygon fill="white" stroke="#666666" points="622.68,-184 500.68,-184 500.68,-165 622.68,-165 622.68,-184"/>
<text text-anchor="middle" x="561.68" y="-172" font-family="Helvetica,sans-Serif" font-size="10.00">uvgvpcc/uvgvpcc.hpp</text>
</a>
</g>
</g>
<!-- Node1&#45;&gt;Node18 -->
<g id="edge20_Node000001_Node000018" class="edge">
<title>Node1&#45;&gt;Node18</title>
<g id="a_edge20_Node000001_Node000018"><a xlink:title=" ">
<path fill="none" stroke="#63b8ff" d="M389.05,-219.99C428.74,-209.76 481.8,-196.09 518.57,-186.61"/>
<polygon fill="#63b8ff" stroke="#63b8ff" points="519.68,-189.94 528.49,-184.05 517.93,-183.16 519.68,-189.94"/>
</a>
</g>
</g>
<!-- Node3 -->
<g id="Node000003" class="node">
<title>Node3</title>
<g id="a_Node000003"><a xlink:title=" ">
<polygon fill="#e0e0e0" stroke="#999999" points="288.18,-74 235.18,-74 235.18,-55 288.18,-55 288.18,-74"/>
<text text-anchor="middle" x="261.68" y="-62" font-family="Helvetica,sans-Serif" font-size="10.00">cstddef</text>
</a>
</g>
</g>
<!-- Node2&#45;&gt;Node3 -->
<g id="edge2_Node000002_Node000003" class="edge">
<title>Node2&#45;&gt;Node3</title>
<g id="a_edge2_Node000002_Node000003"><a xlink:title=" ">
<path fill="none" stroke="#63b8ff" d="M129.3,-164.75C123.38,-151.55 114.85,-126.36 126.68,-110 148.9,-79.28 193.07,-69.41 224.84,-66.42"/>
<polygon fill="#63b8ff" stroke="#63b8ff" points="225.38,-69.89 235.09,-65.65 224.86,-62.91 225.38,-69.89"/>
</a>
</g>
</g>
<!-- Node4 -->
<g id="Node000004" class="node">
<title>Node4</title>
<g id="a_Node000004"><a xlink:title=" ">
<polygon fill="#e0e0e0" stroke="#999999" points="79.18,-129 14.18,-129 14.18,-110 79.18,-110 79.18,-129"/>
<text text-anchor="middle" x="46.68" y="-117" font-family="Helvetica,sans-Serif" font-size="10.00">stdexcept</text>
</a>
</g>
</g>
<!-- Node2&#45;&gt;Node4 -->
<g id="edge3_Node000002_Node000004" class="edge">
<title>Node2&#45;&gt;Node4</title>
<g id="a_edge3_Node000002_Node000004"><a xlink:title=" ">
<path fill="none" stroke="#63b8ff" d="M119.7,-164.98C106.21,-156.77 85.55,-144.18 69.64,-134.49"/>
<polygon fill="#63b8ff" stroke="#63b8ff" points="71.27,-131.38 60.91,-129.17 67.63,-137.36 71.27,-131.38"/>
</a>
</g>
</g>
<!-- Node5 -->
<g id="Node000005" class="node">
<title>Node5</title>
<g id="a_Node000005"><a xlink:title=" ">
<polygon fill="#e0e0e0" stroke="#999999" points="212.68,-19 168.68,-19 168.68,0 212.68,0 212.68,-19"/>
<text text-anchor="middle" x="190.68" y="-7" font-family="Helvetica,sans-Serif" font-size="10.00">string</text>
</a>
</g>
</g>
<!-- Node2&#45;&gt;Node5 -->
<g id="edge4_Node000002_Node000005" class="edge">
<title>Node2&#45;&gt;Node5</title>
<g id="a_edge4_Node000002_Node000005"><a xlink:title=" ">
<path fill="none" stroke="#63b8ff" d="M74.46,-166.13C32.09,-158.07 -14.37,-141.8 4.68,-110 38.14,-54.16 114.8,-27.89 158.55,-17.05"/>
<polygon fill="#63b8ff" stroke="#63b8ff" points="159.46,-20.44 168.39,-14.74 157.86,-13.62 159.46,-20.44"/>
</a>
</g>
</g>
<!-- Node6 -->
<g id="Node000006" class="node">
<title>Node6</title>
<g id="a_Node000006"><a xlink:title=" ">
<polygon fill="#e0e0e0" stroke="#999999" points="183.18,-129 136.18,-129 136.18,-110 183.18,-110 183.18,-129"/>
<text text-anchor="middle" x="159.68" y="-117" font-family="Helvetica,sans-Serif" font-size="10.00">vector</text>
</a>
</g>
</g>
<!-- Node2&#45;&gt;Node6 -->
<g id="edge5_Node000002_Node000006" class="edge">
<title>Node2&#45;&gt;Node6</title>
<g id="a_edge5_Node000002_Node000006"><a xlink:title=" ">
<path fill="none" stroke="#63b8ff" d="M137.97,-164.75C141.49,-157.57 146.59,-147.18 150.96,-138.27"/>
<polygon fill="#63b8ff" stroke="#63b8ff" points="154.2,-139.61 155.47,-129.09 147.92,-136.53 154.2,-139.61"/>
</a>
</g>
</g>
<!-- Node7 -->
<g id="Node000007" class="node">
<title>Node7</title>
<g id="a_Node000007"><a xlink:href="utils_8hpp.html" target="_top" xlink:title=" ">
<polygon fill="white" stroke="#666666" points="379.18,-129 278.18,-129 278.18,-110 379.18,-110 379.18,-129"/>
<text text-anchor="middle" x="328.68" y="-117" font-family="Helvetica,sans-Serif" font-size="10.00">uvgutils/utils.hpp</text>
</a>
</g>
</g>
<!-- Node2&#45;&gt;Node7 -->
<g id="edge6_Node000002_Node000007" class="edge">
<title>Node2&#45;&gt;Node7</title>
<g id="a_edge6_Node000002_Node000007"><a xlink:title=" ">
<path fill="none" stroke="#63b8ff" d="M165.01,-164.98C198.17,-155.97 250.68,-141.7 287.24,-131.76"/>
<polygon fill="#63b8ff" stroke="#63b8ff" points="288.37,-135.08 297.1,-129.08 286.54,-128.33 288.37,-135.08"/>
</a>
</g>
</g>
<!-- Node7&#45;&gt;Node3 -->
<g id="edge8_Node000007_Node000003" class="edge">
<title>Node7&#45;&gt;Node3</title>
<g id="a_edge8_Node000007_Node000003"><a xlink:title=" ">
<path fill="none" stroke="#63b8ff" d="M317.92,-109.98C307.91,-102.07 292.79,-90.11 280.75,-80.58"/>
<polygon fill="#63b8ff" stroke="#63b8ff" points="282.65,-77.63 272.64,-74.17 278.31,-83.12 282.65,-77.63"/>
</a>
</g>
</g>
<!-- Node8 -->
<g id="Node000008" class="node">
<title>Node8</title>
<g id="a_Node000008"><a xlink:title=" ">
<polygon fill="#e0e0e0" stroke="#999999" points="870.68,-74 828.68,-74 828.68,-55 870.68,-55 870.68,-74"/>
<text text-anchor="middle" x="849.68" y="-62" font-family="Helvetica,sans-Serif" font-size="10.00">array</text>
</a>
</g>
</g>
<!-- Node7&#45;&gt;Node8 -->
<g id="edge7_Node000007_Node000008" class="edge">
<title>Node7&#45;&gt;Node8</title>
<g id="a_edge7_Node000007_Node000008"><a xlink:title=" ">
<path fill="none" stroke="#63b8ff" d="M379.19,-111.06C382.06,-110.69 384.91,-110.33 387.68,-110 549.34,-90.58 743.63,-74.09 818.32,-68.01"/>
<polygon fill="#63b8ff" stroke="#63b8ff" points="818.77,-71.48 828.46,-67.19 818.21,-64.51 818.77,-71.48"/>
</a>
</g>
</g>
<!-- Node9 -->
<g id="Node000009" class="node">
<title>Node9</title>
<g id="a_Node000009"><a xlink:title=" ">
<polygon fill="#e0e0e0" stroke="#999999" points="560.68,-74 510.68,-74 510.68,-55 560.68,-55 560.68,-74"/>
<text text-anchor="middle" x="535.68" y="-62" font-family="Helvetica,sans-Serif" font-size="10.00">cstdint</text>
</a>
</g>
</g>
<!-- Node7&#45;&gt;Node9 -->
<g id="edge9_Node000007_Node000009" class="edge">
<title>Node7&#45;&gt;Node9</title>
<g id="a_edge9_Node000007_Node000009"><a xlink:title=" ">
<path fill="none" stroke="#63b8ff" d="M361.94,-109.98C400.02,-100.23 462.13,-84.33 500.85,-74.42"/>
<polygon fill="#63b8ff" stroke="#63b8ff" points="501.82,-77.78 510.64,-71.91 500.09,-71 501.82,-77.78"/>
</a>
</g>
</g>
<!-- Node10 -->
<g id="Node000010" class="node">
<title>Node10</title>
<g id="a_Node000010"><a xlink:title=" ">
<polygon fill="#e0e0e0" stroke="#999999" points="492.68,-19 436.68,-19 436.68,0 492.68,0 492.68,-19"/>
<text text-anchor="middle" x="464.68" y="-7" font-family="Helvetica,sans-Serif" font-size="10.00">iomanip</text>
</a>
</g>
</g>
<!-- Node7&#45;&gt;Node10 -->
<g id="edge10_Node000007_Node000010" class="edge">
<title>Node7&#45;&gt;Node10</title>
<g id="a_edge10_Node000007_Node000010"><a xlink:title=" ">
<path fill="none" stroke="#63b8ff" d="M362.65,-109.93C384.2,-103.1 411.51,-91.69 430.68,-74 444.15,-61.56 453.35,-42.54 458.74,-28.56"/>
<polygon fill="#63b8ff" stroke="#63b8ff" points="462.08,-29.64 462.14,-19.04 455.48,-27.28 462.08,-29.64"/>
</a>
</g>
</g>
<!-- Node11 -->
<g id="Node000011" class="node">
<title>Node11</title>
<g id="a_Node000011"><a xlink:title=" ">
<polygon fill="#e0e0e0" stroke="#999999" points="421.68,-74 377.68,-74 377.68,-55 421.68,-55 421.68,-74"/>
<text text-anchor="middle" x="399.68" y="-62" font-family="Helvetica,sans-Serif" font-size="10.00">limits</text>
</a>
</g>
</g>
<!-- Node7&#45;&gt;Node11 -->
<g id="edge11_Node000007_Node000011" class="edge">
<title>Node7&#45;&gt;Node11</title>
<g id="a_edge11_Node000007_Node000011"><a xlink:title=" ">
<path fill="none" stroke="#63b8ff" d="M340.09,-109.98C350.79,-102 367.02,-89.88 379.84,-80.31"/>
<polygon fill="#63b8ff" stroke="#63b8ff" points="382.14,-82.96 388.06,-74.17 377.96,-77.35 382.14,-82.96"/>
</a>
</g>
</g>
<!-- Node12 -->
<g id="Node000012" class="node">
<title>Node12</title>
<g id="a_Node000012"><a xlink:title=" ">
<polygon fill="#e0e0e0" stroke="#999999" points="693.68,-74 637.68,-74 637.68,-55 693.68,-55 693.68,-74"/>
<text text-anchor="middle" x="665.68" y="-62" font-family="Helvetica,sans-Serif" font-size="10.00">sstream</text>
</a>
</g>
</g>
<!-- Node7&#45;&gt;Node12 -->
<g id="edge12_Node000007_Node000012" class="edge">
<title>Node7&#45;&gt;Node12</title>
<g id="a_edge12_Node000007_Node000012"><a xlink:title=" ">
<path fill="none" stroke="#63b8ff" d="M379.5,-110.51C447.46,-99.82 566.44,-81.11 627.36,-71.53"/>
<polygon fill="#63b8ff" stroke="#63b8ff" points="628,-74.97 637.33,-69.96 626.91,-68.05 628,-74.97"/>
</a>
</g>
</g>
<!-- Node13 -->
<g id="Node000013" class="node">
<title>Node13</title>
<g id="a_Node000013"><a xlink:href="log_8hpp.html" target="_top" xlink:title=" ">
<polygon fill="white" stroke="#666666" points="359.18,-74 306.18,-74 306.18,-55 359.18,-55 359.18,-74"/>
<text text-anchor="middle" x="332.68" y="-62" font-family="Helvetica,sans-Serif" font-size="10.00">log.hpp</text>
</a>
</g>
</g>
<!-- Node7&#45;&gt;Node13 -->
<g id="edge13_Node000007_Node000013" class="edge">
<title>Node7&#45;&gt;Node13</title>
<g id="a_edge13_Node000007_Node000013"><a xlink:title=" ">
<path fill="none" stroke="#63b8ff" d="M329.34,-109.75C329.86,-102.8 330.62,-92.85 331.27,-84.13"/>
<polygon fill="#63b8ff" stroke="#63b8ff" points="334.77,-84.32 332.03,-74.09 327.79,-83.8 334.77,-84.32"/>
</a>
</g>
</g>
<!-- Node13&#45;&gt;Node5 -->
<g id="edge19_Node000013_Node000005" class="edge">
<title>Node13&#45;&gt;Node5</title>
<g id="a_edge19_Node000013_Node000005"><a xlink:title=" ">
<path fill="none" stroke="#63b8ff" d="M309.86,-54.98C286.23,-46.16 249.1,-32.31 222.57,-22.4"/>
<polygon fill="#63b8ff" stroke="#63b8ff" points="223.56,-19.04 212.97,-18.82 221.11,-25.6 223.56,-19.04"/>
</a>
</g>
</g>
<!-- Node13&#45;&gt;Node10 -->
<g id="edge16_Node000013_Node000010" class="edge">
<title>Node13&#45;&gt;Node10</title>
<g id="a_edge16_Node000013_Node000010"><a xlink:title=" ">
<path fill="none" stroke="#63b8ff" d="M353.89,-54.98C375.41,-46.34 408.96,-32.87 433.51,-23.02"/>
<polygon fill="#63b8ff" stroke="#63b8ff" points="435.11,-26.14 443.09,-19.17 432.5,-19.65 435.11,-26.14"/>
</a>
</g>
</g>
<!-- Node14 -->
<g id="Node000014" class="node">
<title>Node14</title>
<g id="a_Node000014"><a xlink:title=" ">
<polygon fill="#e0e0e0" stroke="#999999" points="418.68,-19 368.68,-19 368.68,0 418.68,0 418.68,-19"/>
<text text-anchor="middle" x="393.68" y="-7" font-family="Helvetica,sans-Serif" font-size="10.00">chrono</text>
</a>
</g>
</g>
<!-- Node13&#45;&gt;Node14 -->
<g id="edge14_Node000013_Node000014" class="edge">
<title>Node13&#45;&gt;Node14</title>
<g id="a_edge14_Node000013_Node000014"><a xlink:title=" ">
<path fill="none" stroke="#63b8ff" d="M342.48,-54.98C351.5,-47.15 365.09,-35.34 376,-25.86"/>
<polygon fill="#63b8ff" stroke="#63b8ff" points="378.45,-28.37 383.7,-19.17 373.86,-23.09 378.45,-28.37"/>
</a>
</g>
</g>
<!-- Node15 -->
<g id="Node000015" class="node">
<title>Node15</title>
<g id="a_Node000015"><a xlink:title=" ">
<polygon fill="#e0e0e0" stroke="#999999" points="284.18,-19 231.18,-19 231.18,0 284.18,0 284.18,-19"/>
<text text-anchor="middle" x="257.68" y="-7" font-family="Helvetica,sans-Serif" font-size="10.00">cstdarg</text>
</a>
</g>
</g>
<!-- Node13&#45;&gt;Node15 -->
<g id="edge15_Node000013_Node000015" class="edge">
<title>Node13&#45;&gt;Node15</title>
<g id="a_edge15_Node000013_Node000015"><a xlink:title=" ">
<path fill="none" stroke="#63b8ff" d="M320.63,-54.98C309.22,-46.92 291.85,-34.65 278.24,-25.03"/>
<polygon fill="#63b8ff" stroke="#63b8ff" points="280.14,-22.08 269.95,-19.17 276.1,-27.8 280.14,-22.08"/>
</a>
</g>
</g>
<!-- Node16 -->
<g id="Node000016" class="node">
<title>Node16</title>
<g id="a_Node000016"><a xlink:title=" ">
<polygon fill="#e0e0e0" stroke="#999999" points="783.68,-19 723.68,-19 723.68,0 783.68,0 783.68,-19"/>
<text text-anchor="middle" x="753.68" y="-7" font-family="Helvetica,sans-Serif" font-size="10.00">iostream</text>
</a>
</g>
</g>
<!-- Node13&#45;&gt;Node16 -->
<g id="edge17_Node000013_Node000016" class="edge">
<title>Node13&#45;&gt;Node16</title>
<g id="a_edge17_Node000013_Node000016"><a xlink:title=" ">
<path fill="none" stroke="#63b8ff" d="M359.34,-56.84C362.48,-56.16 365.64,-55.53 368.68,-55 493.5,-33.13 643.03,-19.35 713.36,-13.6"/>
<polygon fill="#63b8ff" stroke="#63b8ff" points="713.87,-17.07 723.56,-12.78 713.31,-10.09 713.87,-17.07"/>
</a>
</g>
</g>
<!-- Node17 -->
<g id="Node000017" class="node">
<title>Node17</title>
<g id="a_Node000017"><a xlink:title=" ">
<polygon fill="#e0e0e0" stroke="#999999" points="350.68,-19 302.68,-19 302.68,0 350.68,0 350.68,-19"/>
<text text-anchor="middle" x="326.68" y="-7" font-family="Helvetica,sans-Serif" font-size="10.00">mutex</text>
</a>
</g>
</g>
<!-- Node13&#45;&gt;Node17 -->
<g id="edge18_Node000013_Node000017" class="edge">
<title>Node13&#45;&gt;Node17</title>
<g id="a_edge18_Node000013_Node000017"><a xlink:title=" ">
<path fill="none" stroke="#63b8ff" d="M331.69,-54.75C330.9,-47.8 329.78,-37.85 328.79,-29.13"/>
<polygon fill="#63b8ff" stroke="#63b8ff" points="332.25,-28.63 327.65,-19.09 325.3,-29.42 332.25,-28.63"/>
</a>
</g>
</g>
<!-- Node18&#45;&gt;Node3 -->
<g id="edge23_Node000018_Node000003" class="edge">
<title>Node18&#45;&gt;Node3</title>
<g id="a_edge23_Node000018_Node000003"><a xlink:title=" ">
<path fill="none" stroke="#63b8ff" d="M500.62,-172.68C424.25,-170.27 299.72,-161.34 268.68,-129 257.53,-117.38 256.77,-98.52 258.21,-84.36"/>
<polygon fill="#63b8ff" stroke="#63b8ff" points="261.71,-84.65 259.68,-74.25 254.78,-83.64 261.71,-84.65"/>
</a>
</g>
</g>
<!-- Node18&#45;&gt;Node5 -->
<g id="edge30_Node000018_Node000005" class="edge">
<title>Node18&#45;&gt;Node5</title>
<g id="a_edge30_Node000018_Node000005"><a xlink:title=" ">
<path fill="none" stroke="#63b8ff" d="M500.42,-170.98C422.73,-166.71 294.21,-155.75 255.68,-129 220.93,-104.88 202.89,-55.98 195.26,-29.15"/>
<polygon fill="#63b8ff" stroke="#63b8ff" points="198.55,-27.91 192.61,-19.14 191.78,-29.7 198.55,-27.91"/>
</a>
</g>
</g>
<!-- Node18&#45;&gt;Node6 -->
<g id="edge31_Node000018_Node000006" class="edge">
<title>Node18&#45;&gt;Node6</title>
<g id="a_edge31_Node000018_Node000006"><a xlink:title=" ">
<path fill="none" stroke="#63b8ff" d="M500.55,-167.88C428.01,-160.79 303.55,-147.27 197.68,-129 196.22,-128.75 194.74,-128.48 193.24,-128.19"/>
<polygon fill="#63b8ff" stroke="#63b8ff" points="193.82,-124.74 183.32,-126.17 192.42,-131.6 193.82,-124.74"/>
</a>
</g>
</g>
<!-- Node18&#45;&gt;Node7 -->
<g id="edge34_Node000018_Node000007" class="edge">
<title>Node18&#45;&gt;Node7</title>
<g id="a_edge34_Node000018_Node000007"><a xlink:title=" ">
<path fill="none" stroke="#63b8ff" d="M524.24,-164.98C484.03,-155.84 420,-141.27 376.24,-131.32"/>
<polygon fill="#63b8ff" stroke="#63b8ff" points="376.94,-127.89 366.41,-129.08 375.38,-134.71 376.94,-127.89"/>
</a>
</g>
</g>
<!-- Node18&#45;&gt;Node8 -->
<g id="edge21_Node000018_Node000008" class="edge">
<title>Node18&#45;&gt;Node8</title>
<g id="a_edge21_Node000018_Node000008"><a xlink:title=" ">
<path fill="none" stroke="#63b8ff" d="M623.03,-174.08C706.15,-173.41 847.96,-166.6 880.68,-129 892.93,-114.92 879.67,-95.15 866.9,-81.42"/>
<polygon fill="#63b8ff" stroke="#63b8ff" points="869.17,-78.74 859.63,-74.13 864.21,-83.68 869.17,-78.74"/>
</a>
</g>
</g>
<!-- Node18&#45;&gt;Node9 -->
<g id="edge24_Node000018_Node000009" class="edge">
<title>Node18&#45;&gt;Node9</title>
<g id="a_edge24_Node000018_Node000009"><a xlink:title=" ">
<path fill="none" stroke="#63b8ff" d="M559.55,-164.66C555.32,-147.09 545.78,-107.45 540.12,-83.95"/>
<polygon fill="#63b8ff" stroke="#63b8ff" points="543.51,-83.06 537.76,-74.16 536.7,-84.7 543.51,-83.06"/>
</a>
</g>
</g>
<!-- Node18&#45;&gt;Node12 -->
<g id="edge29_Node000018_Node000012" class="edge">
<title>Node18&#45;&gt;Node12</title>
<g id="a_edge29_Node000018_Node000012"><a xlink:title=" ">
<path fill="none" stroke="#63b8ff" d="M622.93,-173.48C701.8,-172.01 832.35,-164.14 862.68,-129 907.9,-76.6 773.55,-67.1 704.25,-65.61"/>
<polygon fill="#63b8ff" stroke="#63b8ff" points="704.18,-62.11 694.12,-65.44 704.06,-69.11 704.18,-62.11"/>
</a>
</g>
</g>
<!-- Node18&#45;&gt;Node16 -->
<g id="edge25_Node000018_Node000016" class="edge">
<title>Node18&#45;&gt;Node16</title>
<g id="a_edge25_Node000018_Node000016"><a xlink:title=" ">
<path fill="none" stroke="#63b8ff" d="M622.8,-169.69C714.51,-163.33 878.95,-149.25 896.68,-129 911.66,-111.9 899.91,-76.05 879.68,-55 857.16,-31.57 821.55,-20.45 793.92,-15.19"/>
<polygon fill="#63b8ff" stroke="#63b8ff" points="794.22,-11.69 783.77,-13.45 793.03,-18.59 794.22,-11.69"/>
</a>
</g>
</g>
<!-- Node19 -->
<g id="Node000019" class="node">
<title>Node19</title>
<g id="a_Node000019"><a xlink:title=" ">
<polygon fill="#e0e0e0" stroke="#999999" points="1037.68,-129 985.68,-129 985.68,-110 1037.68,-110 1037.68,-129"/>
<text text-anchor="middle" x="1011.68" y="-117" font-family="Helvetica,sans-Serif" font-size="10.00">cassert</text>
</a>
</g>
</g>
<!-- Node18&#45;&gt;Node19 -->
<g id="edge22_Node000018_Node000019" class="edge">
<title>Node18&#45;&gt;Node19</title>
<g id="a_edge22_Node000018_Node000019"><a xlink:title=" ">
<path fill="none" stroke="#63b8ff" d="M622.72,-168.82C703.05,-162.21 848.49,-148.72 971.68,-129 972.94,-128.8 974.22,-128.58 975.52,-128.36"/>
<polygon fill="#63b8ff" stroke="#63b8ff" points="976.33,-131.76 985.5,-126.46 975.02,-124.89 976.33,-131.76"/>
</a>
</g>
</g>
<!-- Node20 -->
<g id="Node000020" class="node">
<title>Node20</title>
<g id="a_Node000020"><a xlink:title=" ">
<polygon fill="#e0e0e0" stroke="#999999" points="1113.68,-129 1055.68,-129 1055.68,-110 1113.68,-110 1113.68,-129"/>
<text text-anchor="middle" x="1084.68" y="-117" font-family="Helvetica,sans-Serif" font-size="10.00">memory</text>
</a>
</g>
</g>
<!-- Node18&#45;&gt;Node20 -->
<g id="edge26_Node000018_Node000020" class="edge">
<title>Node18&#45;&gt;Node20</title>
<g id="a_edge26_Node000018_Node000020"><a xlink:title=" ">
<path fill="none" stroke="#63b8ff" d="M622.86,-170.42C713.16,-165.3 887.58,-153.31 1044.95,-129.08"/>
<polygon fill="#63b8ff" stroke="#63b8ff" points="1045.95,-132.47 1055.29,-127.47 1044.87,-125.55 1045.95,-132.47"/>
</a>
</g>
</g>
<!-- Node21 -->
<g id="Node000021" class="node">
<title>Node21</title>
<g id="a_Node000021"><a xlink:title=" ">
<polygon fill="#e0e0e0" stroke="#999999" points="444.18,-129 397.18,-129 397.18,-110 444.18,-110 444.18,-129"/>
<text text-anchor="middle" x="420.68" y="-117" font-family="Helvetica,sans-Serif" font-size="10.00">queue</text>
</a>
</g>
</g>
<!-- Node18&#45;&gt;Node21 -->
<g id="edge27_Node000018_Node000021" class="edge">
<title>Node18&#45;&gt;Node21</title>
<g id="a_edge27_Node000018_Node000021"><a xlink:title=" ">
<path fill="none" stroke="#63b8ff" d="M539.03,-164.98C515.83,-156.27 479.56,-142.63 453.28,-132.75"/>
<polygon fill="#63b8ff" stroke="#63b8ff" points="454.34,-129.41 443.75,-129.17 451.88,-135.97 454.34,-129.41"/>
</a>
</g>
</g>
<!-- Node22 -->
<g id="Node000022" class="node">
<title>Node22</title>
<g id="a_Node000022"><a xlink:title=" ">
<polygon fill="#e0e0e0" stroke="#999999" points="533.18,-129 462.18,-129 462.18,-110 533.18,-110 533.18,-129"/>
<text text-anchor="middle" x="497.68" y="-117" font-family="Helvetica,sans-Serif" font-size="10.00">semaphore</text>
</a>
</g>
</g>
<!-- Node18&#45;&gt;Node22 -->
<g id="edge28_Node000018_Node000022" class="edge">
<title>Node18&#45;&gt;Node22</title>
<g id="a_edge28_Node000018_Node000022"><a xlink:title=" ">
<path fill="none" stroke="#63b8ff" d="M551.4,-164.98C541.84,-157.07 527.4,-145.11 515.9,-135.58"/>
<polygon fill="#63b8ff" stroke="#63b8ff" points="518.08,-132.85 508.15,-129.17 513.62,-138.24 518.08,-132.85"/>
</a>
</g>
</g>
<!-- Node23 -->
<g id="Node000023" class="node">
<title>Node23</title>
<g id="a_Node000023"><a xlink:title=" ">
<polygon fill="#e0e0e0" stroke="#999999" points="717.18,-129 590.18,-129 590.18,-110 717.18,-110 717.18,-129"/>
<text text-anchor="middle" x="653.68" y="-117" font-family="Helvetica,sans-Serif" font-size="10.00">../utils/parameters.hpp</text>
</a>
</g>
</g>
<!-- Node18&#45;&gt;Node23 -->
<g id="edge32_Node000018_Node000023" class="edge">
<title>Node18&#45;&gt;Node23</title>
<g id="a_edge32_Node000018_Node000023"><a xlink:title=" ">
<path fill="none" stroke="#63b8ff" d="M576.46,-164.98C590.86,-156.69 612.99,-143.94 629.87,-134.22"/>
<polygon fill="#63b8ff" stroke="#63b8ff" points="631.71,-137.19 638.63,-129.17 628.22,-131.13 631.71,-137.19"/>
</a>
</g>
</g>
<!-- Node24 -->
<g id="Node000024" class="node">
<title>Node24</title>
<g id="a_Node000024"><a xlink:title=" ">
<polygon fill="#e0e0e0" stroke="#999999" points="853.68,-129 735.68,-129 735.68,-110 853.68,-110 853.68,-129"/>
<text text-anchor="middle" x="794.68" y="-117" font-family="Helvetica,sans-Serif" font-size="10.00">../utils/constants.hpp</text>
</a>
</g>
</g>
<!-- Node18&#45;&gt;Node24 -->
<g id="edge33_Node000018_Node000024" class="edge">
<title>Node18&#45;&gt;Node24</title>
<g id="a_edge33_Node000018_Node000024"><a xlink:title=" ">
<path fill="none" stroke="#63b8ff" d="M599.12,-164.98C639.33,-155.84 703.36,-141.27 747.11,-131.32"/>
<polygon fill="#63b8ff" stroke="#63b8ff" points="747.98,-134.71 756.95,-129.08 746.42,-127.89 747.98,-134.71"/>
</a>
</g>
</g>
</g>
</svg>
