<?xml version="1.0" encoding="UTF-8" standalone="no"?>
<!DOCTYPE svg PUBLIC "-//W3C//DTD SVG 1.1//EN"
 "http://www.w3.org/Graphics/SVG/1.1/DTD/svg11.dtd">
<!-- Generated by graphviz version 2.43.0 (0)
 -->
<!-- Title: src/lib/bitstreamGeneration/bitstreamGeneration.cpp Pages: 1 -->
<!--zoomable 313 -->

<svg id="main" version="1.1" xmlns="http://www.w3.org/2000/svg" xmlns:xlink="http://www.w3.org/1999/xlink" xml:space="preserve" onload="init(evt)">
<style type="text/css"><![CDATA[
.node, .edge {opacity: 0.7;}
.node.selected, .edge.selected {opacity: 1;}
.edge:hover path { stroke: red; }
.edge:hover polygon { stroke: red; fill: red; }
]]></style>

<defs>
  <circle id="rim" cx="0" cy="0" r="7"/>
  <circle id="rim2" cx="0" cy="0" r="3.5"/>
  <g id="zoomPlus">
    <use xlink:href="#rim" fill="#404040"><set attributeName="fill" to="#808080" begin="zoomplus.mouseover" end="zoomplus.mouseout"/></use>
    <path d="M-4,0h8M0,-4v8" fill="none" stroke="white" stroke-width="1.5" pointer-events="none"/>
  </g>
  <g id="zoomMin">
    <use xlink:href="#rim" fill="#404040"><set attributeName="fill" to="#808080" begin="zoomminus.mouseover" end="zoomminus.mouseout"/></use>
    <path d="M-4,0h8" fill="none" stroke="white" stroke-width="1.5" pointer-events="none"/>
  </g>
  <g id="arrowUp" transform="translate(30 24)">
    <use xlink:href="#rim"/>
    <path pointer-events="none" fill="none" stroke="white" stroke-width="1.5" d="M0,-3.0v7 M-2.5,-0.5L0,-3.0L2.5,-0.5"/>
  </g>
  <g id="arrowRight" transform="rotate(90) translate(36 -43)">
    <use xlink:href="#rim"/>
    <path pointer-events="none" fill="none" stroke="white" stroke-width="1.5" d="M0,-3.0v7 M-2.5,-0.5L0,-3.0L2.5,-0.5"/>
  </g>
  <g id="arrowDown" transform="rotate(180) translate(-30 -48)">
    <use xlink:href="#rim"/>
    <path pointer-events="none" fill="none" stroke="white" stroke-width="1.5" d="M0,-3.0v7 M-2.5,-0.5L0,-3.0L2.5,-0.5"/>
  </g>
  <g id="arrowLeft" transform="rotate(270) translate(-36 17)">
    <use xlink:href="#rim"/>
    <path pointer-events="none" fill="none" stroke="white" stroke-width="1.5" d="M0,-3.0v7 M-2.5,-0.5L0,-3.0L2.5,-0.5"/>
  </g>
  <g id="resetDef">
    <use xlink:href="#rim2" fill="#404040"><set attributeName="fill" to="#808080" begin="reset.mouseover" end="reset.mouseout"/></use>
  </g>
</defs>
<script type="application/ecmascript">
var viewWidth = 1430;
var viewHeight = 313;
var sectionId = 'dynsection-0';
</script>
<script type="application/ecmascript" xlink:href="svg.min.js"/>
<svg id="graph" class="graph">
<g id="viewport">
<title>src/lib/bitstreamGeneration/bitstreamGeneration.cpp</title>
<!-- Node1 -->
<g id="Node000001" class="node">
<title>Node1</title>
<g id="a_Node000001"><a xlink:title=" ">
<polygon fill="#999999" stroke="#666666" points="966,-305 816,-305 816,-275 966,-275 966,-305"/>
<text text-anchor="start" x="824" y="-293" font-family="Helvetica,sans-Serif" font-size="10.00">src/lib/bitstreamGeneration</text>
<text text-anchor="middle" x="891" y="-282" font-family="Helvetica,sans-Serif" font-size="10.00">/bitstreamGeneration.cpp</text>
</a>
</g>
</g>
<!-- Node2 -->
<g id="Node000002" class="node">
<title>Node2</title>
<g id="a_Node000002"><a xlink:href="bitstreamGeneration_8hpp.html" target="_top" xlink:title=" ">
<polygon fill="white" stroke="#666666" points="418.5,-184 279.5,-184 279.5,-165 418.5,-165 418.5,-184"/>
<text text-anchor="middle" x="349" y="-172" font-family="Helvetica,sans-Serif" font-size="10.00">bitstreamGeneration.hpp</text>
</a>
</g>
</g>
<!-- Node1&#45;&gt;Node2 -->
<g id="edge1_Node000001_Node000002" class="edge">
<title>Node1&#45;&gt;Node2</title>
<g id="a_edge1_Node000001_Node000002"><a xlink:title=" ">
<path fill="none" stroke="#63b8ff" d="M815.73,-285.64C704.16,-279.84 500.74,-265.9 433,-239 406.09,-228.31 380.32,-206.54 364.59,-191.49"/>
<polygon fill="#63b8ff" stroke="#63b8ff" points="366.9,-188.86 357.32,-184.33 361.98,-193.84 366.9,-188.86"/>
</a>
</g>
</g>
<!-- Node3 -->
<g id="Node000003" class="node">
<title>Node3</title>
<g id="a_Node000003"><a xlink:href="parameters_8hpp.html" target="_top" xlink:title=" ">
<polygon fill="white" stroke="#666666" points="332,-129 214,-129 214,-110 332,-110 332,-129"/>
<text text-anchor="middle" x="273" y="-117" font-family="Helvetica,sans-Serif" font-size="10.00">utils/parameters.hpp</text>
</a>
</g>
</g>
<!-- Node1&#45;&gt;Node3 -->
<g id="edge60_Node000001_Node000003" class="edge">
<title>Node1&#45;&gt;Node3</title>
<g id="a_edge60_Node000001_Node000003"><a xlink:title=" ">
<path fill="none" stroke="#63b8ff" d="M815.91,-288.68C717.78,-286.63 541.33,-277.29 396,-239 337.31,-223.54 304.17,-234.83 271,-184 262.34,-170.73 264.03,-152.37 267.18,-138.8"/>
<polygon fill="#63b8ff" stroke="#63b8ff" points="270.56,-139.71 269.85,-129.14 263.81,-137.84 270.56,-139.71"/>
</a>
</g>
</g>
<!-- Node5 -->
<g id="Node000005" class="node">
<title>Node5</title>
<g id="a_Node000005"><a xlink:title=" ">
<polygon fill="#e0e0e0" stroke="#999999" points="983,-19 939,-19 939,0 983,0 983,-19"/>
<text text-anchor="middle" x="961" y="-7" font-family="Helvetica,sans-Serif" font-size="10.00">string</text>
</a>
</g>
</g>
<!-- Node1&#45;&gt;Node5 -->
<g id="edge28_Node000001_Node000005" class="edge">
<title>Node1&#45;&gt;Node5</title>
<g id="a_edge28_Node000001_Node000005"><a xlink:title=" ">
<path fill="none" stroke="#63b8ff" d="M966.19,-281.65C1030.93,-270.68 1114,-243.38 1114,-175.5 1114,-175.5 1114,-175.5 1114,-118.5 1114,-86.06 1102.62,-76.13 1078,-55 1064.85,-43.71 1022.68,-29.22 992.75,-19.9"/>
<polygon fill="#63b8ff" stroke="#63b8ff" points="993.72,-16.53 983.13,-16.94 991.66,-23.22 993.72,-16.53"/>
</a>
</g>
</g>
<!-- Node6 -->
<g id="Node000006" class="node">
<title>Node6</title>
<g id="a_Node000006"><a xlink:title=" ">
<polygon fill="#e0e0e0" stroke="#999999" points="903.5,-19 856.5,-19 856.5,0 903.5,0 903.5,-19"/>
<text text-anchor="middle" x="880" y="-7" font-family="Helvetica,sans-Serif" font-size="10.00">vector</text>
</a>
</g>
</g>
<!-- Node1&#45;&gt;Node6 -->
<g id="edge30_Node000001_Node000006" class="edge">
<title>Node1&#45;&gt;Node6</title>
<g id="a_edge30_Node000001_Node000006"><a xlink:title=" ">
<path fill="none" stroke="#63b8ff" d="M962.79,-274.99C1014.79,-260.19 1076,-230.99 1076,-175.5 1076,-175.5 1076,-175.5 1076,-118.5 1076,-89.04 1078.29,-75.36 1057,-55 1046.63,-45.08 962.26,-26.91 913.84,-17.14"/>
<polygon fill="#63b8ff" stroke="#63b8ff" points="914.3,-13.66 903.81,-15.13 912.93,-20.52 914.3,-13.66"/>
</a>
</g>
</g>
<!-- Node9 -->
<g id="Node000009" class="node">
<title>Node9</title>
<g id="a_Node000009"><a xlink:title=" ">
<polygon fill="#e0e0e0" stroke="#999999" points="352,-19 302,-19 302,0 352,0 352,-19"/>
<text text-anchor="middle" x="327" y="-7" font-family="Helvetica,sans-Serif" font-size="10.00">cstdint</text>
</a>
</g>
</g>
<!-- Node1&#45;&gt;Node9 -->
<g id="edge26_Node000001_Node000009" class="edge">
<title>Node1&#45;&gt;Node9</title>
<g id="a_edge26_Node000001_Node000009"><a xlink:title=" ">
<path fill="none" stroke="#63b8ff" d="M815.78,-285.93C672.78,-279.62 366.8,-263.65 264,-239 192.01,-221.74 110,-249.53 110,-175.5 110,-175.5 110,-175.5 110,-118.5 110,-89.04 107.46,-75.09 129,-55 152.27,-33.29 241.3,-20.06 291.69,-14.15"/>
<polygon fill="#63b8ff" stroke="#63b8ff" points="292.27,-17.61 301.81,-13 291.48,-10.66 292.27,-17.61"/>
</a>
</g>
</g>
<!-- Node13 -->
<g id="Node000013" class="node">
<title>Node13</title>
<g id="a_Node000013"><a xlink:href="uvgvpcc_8hpp.html" target="_top" xlink:title=" ">
<polygon fill="white" stroke="#666666" points="610,-74 488,-74 488,-55 610,-55 610,-74"/>
<text text-anchor="middle" x="549" y="-62" font-family="Helvetica,sans-Serif" font-size="10.00">uvgvpcc/uvgvpcc.hpp</text>
</a>
</g>
</g>
<!-- Node1&#45;&gt;Node13 -->
<g id="edge68_Node000001_Node000013" class="edge">
<title>Node1&#45;&gt;Node13</title>
<g id="a_edge68_Node000001_Node000013"><a xlink:title=" ">
<path fill="none" stroke="#63b8ff" d="M819.41,-274.93C704.5,-250.51 488.33,-196.4 455,-129 442.61,-103.94 472.86,-87.15 502.28,-77.16"/>
<polygon fill="#63b8ff" stroke="#63b8ff" points="503.68,-80.39 512.16,-74.03 501.57,-73.71 503.68,-80.39"/>
</a>
</g>
</g>
<!-- Node14 -->
<g id="Node000014" class="node">
<title>Node14</title>
<g id="a_Node000014"><a xlink:title=" ">
<polygon fill="#e0e0e0" stroke="#999999" points="1055.5,-19 1002.5,-19 1002.5,0 1055.5,0 1055.5,-19"/>
<text text-anchor="middle" x="1029" y="-7" font-family="Helvetica,sans-Serif" font-size="10.00">cstddef</text>
</a>
</g>
</g>
<!-- Node1&#45;&gt;Node14 -->
<g id="edge25_Node000001_Node000014" class="edge">
<title>Node1&#45;&gt;Node14</title>
<g id="a_edge25_Node000001_Node000014"><a xlink:title=" ">
<path fill="none" stroke="#63b8ff" d="M966.14,-287.11C1043.25,-280.68 1152,-257.15 1152,-175.5 1152,-175.5 1152,-175.5 1152,-118.5 1152,-70.63 1098.75,-39 1062.32,-22.96"/>
<polygon fill="#63b8ff" stroke="#63b8ff" points="1063.58,-19.69 1053.01,-19.03 1060.86,-26.14 1063.58,-19.69"/>
</a>
</g>
</g>
<!-- Node16 -->
<g id="Node000016" class="node">
<title>Node16</title>
<g id="a_Node000016"><a xlink:title=" ">
<polygon fill="#e0e0e0" stroke="#999999" points="1133,-19 1075,-19 1075,0 1133,0 1133,-19"/>
<text text-anchor="middle" x="1104" y="-7" font-family="Helvetica,sans-Serif" font-size="10.00">memory</text>
</a>
</g>
</g>
<!-- Node1&#45;&gt;Node16 -->
<g id="edge27_Node000001_Node000016" class="edge">
<title>Node1&#45;&gt;Node16</title>
<g id="a_edge27_Node000001_Node000016"><a xlink:title=" ">
<path fill="none" stroke="#63b8ff" d="M966.27,-283.28C1018.32,-277.17 1088.16,-264.64 1145,-239 1187.34,-219.9 1228,-221.95 1228,-175.5 1228,-175.5 1228,-175.5 1228,-118.5 1228,-70.54 1174.61,-39.02 1137.89,-23.01"/>
<polygon fill="#63b8ff" stroke="#63b8ff" points="1139.08,-19.71 1128.5,-19.09 1136.38,-26.17 1139.08,-19.71"/>
</a>
</g>
</g>
<!-- Node20 -->
<g id="Node000020" class="node">
<title>Node20</title>
<g id="a_Node000020"><a xlink:title=" ">
<polygon fill="#e0e0e0" stroke="#999999" points="1358,-239 1294,-239 1294,-220 1358,-220 1358,-239"/>
<text text-anchor="middle" x="1326" y="-227" font-family="Helvetica,sans-Serif" font-size="10.00">algorithm</text>
</a>
</g>
</g>
<!-- Node1&#45;&gt;Node20 -->
<g id="edge23_Node000001_Node000020" class="edge">
<title>Node1&#45;&gt;Node20</title>
<g id="a_edge23_Node000001_Node000020"><a xlink:title=" ">
<path fill="none" stroke="#63b8ff" d="M966.11,-280.58C1044.58,-271.5 1171.19,-256.03 1280,-239 1281.26,-238.8 1282.55,-238.6 1283.84,-238.38"/>
<polygon fill="#63b8ff" stroke="#63b8ff" points="1284.6,-241.81 1293.87,-236.67 1283.42,-234.91 1284.6,-241.81"/>
</a>
</g>
</g>
<!-- Node21 -->
<g id="Node000021" class="node">
<title>Node21</title>
<g id="a_Node000021"><a xlink:title=" ">
<polygon fill="#e0e0e0" stroke="#999999" points="851.5,-74 804.5,-74 804.5,-55 851.5,-55 851.5,-74"/>
<text text-anchor="middle" x="828" y="-62" font-family="Helvetica,sans-Serif" font-size="10.00">cmath</text>
</a>
</g>
</g>
<!-- Node1&#45;&gt;Node21 -->
<g id="edge24_Node000001_Node000021" class="edge">
<title>Node1&#45;&gt;Node21</title>
<g id="a_edge24_Node000001_Node000021"><a xlink:title=" ">
<path fill="none" stroke="#63b8ff" d="M878.37,-274.72C870.68,-265.24 861.34,-252.16 856,-239 834.45,-185.87 829.45,-117.25 828.31,-84.51"/>
<polygon fill="#63b8ff" stroke="#63b8ff" points="831.8,-84.07 828.05,-74.17 824.81,-84.26 831.8,-84.07"/>
</a>
</g>
</g>
<!-- Node22 -->
<g id="Node000022" class="node">
<title>Node22</title>
<g id="a_Node000022"><a xlink:title=" ">
<polygon fill="#e0e0e0" stroke="#999999" points="1421.5,-239 1376.5,-239 1376.5,-220 1421.5,-220 1421.5,-239"/>
<text text-anchor="middle" x="1399" y="-227" font-family="Helvetica,sans-Serif" font-size="10.00">utility</text>
</a>
</g>
</g>
<!-- Node1&#45;&gt;Node22 -->
<g id="edge29_Node000001_Node000022" class="edge">
<title>Node1&#45;&gt;Node22</title>
<g id="a_edge29_Node000001_Node000022"><a xlink:title=" ">
<path fill="none" stroke="#63b8ff" d="M966.13,-284.72C1058.25,-278.66 1219.21,-265.46 1366.26,-238.83"/>
<polygon fill="#63b8ff" stroke="#63b8ff" points="1367.17,-242.22 1376.37,-236.97 1365.91,-235.34 1367.17,-242.22"/>
</a>
</g>
</g>
<!-- Node23 -->
<g id="Node000023" class="node">
<title>Node23</title>
<g id="a_Node000023"><a xlink:href="atlas__context_8hpp.html" target="_top" xlink:title=" ">
<polygon fill="white" stroke="#666666" points="640,-184 536,-184 536,-165 640,-165 640,-184"/>
<text text-anchor="middle" x="588" y="-172" font-family="Helvetica,sans-Serif" font-size="10.00">atlas_context.hpp</text>
</a>
</g>
</g>
<!-- Node1&#45;&gt;Node23 -->
<g id="edge31_Node000001_Node000023" class="edge">
<title>Node1&#45;&gt;Node23</title>
<g id="a_edge31_Node000001_Node000023"><a xlink:title=" ">
<path fill="none" stroke="#63b8ff" d="M853.54,-274.97C793.65,-252.53 677.3,-208.95 620.62,-187.72"/>
<polygon fill="#63b8ff" stroke="#63b8ff" points="621.67,-184.38 611.08,-184.14 619.21,-190.93 621.67,-184.38"/>
</a>
</g>
</g>
<!-- Node25 -->
<g id="Node000025" class="node">
<title>Node25</title>
<g id="a_Node000025"><a xlink:href="bitstream__common_8hpp.html" target="_top" xlink:title=" ">
<polygon fill="white" stroke="#666666" points="393.5,-74 260.5,-74 260.5,-55 393.5,-55 393.5,-74"/>
<text text-anchor="middle" x="327" y="-62" font-family="Helvetica,sans-Serif" font-size="10.00">bitstream_common.hpp</text>
</a>
</g>
</g>
<!-- Node1&#45;&gt;Node25 -->
<g id="edge45_Node000001_Node000025" class="edge">
<title>Node1&#45;&gt;Node25</title>
<g id="a_edge45_Node000001_Node000025"><a xlink:title=" ">
<path fill="none" stroke="#63b8ff" d="M815.79,-289.28C678.61,-288.69 393.77,-282.12 306,-239 240.65,-206.89 163.26,-169.66 205,-110 216.17,-94.03 233.71,-83.78 252.04,-77.19"/>
<polygon fill="#63b8ff" stroke="#63b8ff" points="253.23,-80.48 261.66,-74.07 251.07,-73.83 253.23,-80.48"/>
</a>
</g>
</g>
<!-- Node29 -->
<g id="Node000029" class="node">
<title>Node29</title>
<g id="a_Node000029"><a xlink:href="gof_8hpp.html" target="_top" xlink:title=" ">
<polygon fill="white" stroke="#666666" points="917.5,-239 864.5,-239 864.5,-220 917.5,-220 917.5,-239"/>
<text text-anchor="middle" x="891" y="-227" font-family="Helvetica,sans-Serif" font-size="10.00">gof.hpp</text>
</a>
</g>
</g>
<!-- Node1&#45;&gt;Node29 -->
<g id="edge46_Node000001_Node000029" class="edge">
<title>Node1&#45;&gt;Node29</title>
<g id="a_edge46_Node000001_Node000029"><a xlink:title=" ">
<path fill="none" stroke="#63b8ff" d="M891,-274.84C891,-267.21 891,-257.7 891,-249.45"/>
<polygon fill="#63b8ff" stroke="#63b8ff" points="894.5,-249.27 891,-239.27 887.5,-249.27 894.5,-249.27"/>
</a>
</g>
</g>
<!-- Node30 -->
<g id="Node000030" class="node">
<title>Node30</title>
<g id="a_Node000030"><a xlink:href="video__sub__bitstream_8hpp.html" target="_top" xlink:title=" ">
<polygon fill="white" stroke="#666666" points="1048,-74 908,-74 908,-55 1048,-55 1048,-74"/>
<text text-anchor="middle" x="978" y="-62" font-family="Helvetica,sans-Serif" font-size="10.00">video_sub_bitstream.hpp</text>
</a>
</g>
</g>
<!-- Node1&#45;&gt;Node30 -->
<g id="edge69_Node000001_Node000030" class="edge">
<title>Node1&#45;&gt;Node30</title>
<g id="a_edge69_Node000001_Node000030"><a xlink:title=" ">
<path fill="none" stroke="#63b8ff" d="M902.97,-274.89C910.66,-265.27 920.41,-251.97 927,-239 953.85,-186.17 968.83,-116.93 974.85,-84.19"/>
<polygon fill="#63b8ff" stroke="#63b8ff" points="978.32,-84.68 976.61,-74.22 971.42,-83.46 978.32,-84.68"/>
</a>
</g>
</g>
<!-- Node31 -->
<g id="Node000031" class="node">
<title>Node31</title>
<g id="a_Node000031"><a xlink:href="vps_8hpp.html" target="_top" xlink:title=" ">
<polygon fill="white" stroke="#666666" points="766.5,-184 711.5,-184 711.5,-165 766.5,-165 766.5,-184"/>
<text text-anchor="middle" x="739" y="-172" font-family="Helvetica,sans-Serif" font-size="10.00">vps.hpp</text>
</a>
</g>
</g>
<!-- Node1&#45;&gt;Node31 -->
<g id="edge70_Node000001_Node000031" class="edge">
<title>Node1&#45;&gt;Node31</title>
<g id="a_edge70_Node000001_Node000031"><a xlink:title=" ">
<path fill="none" stroke="#63b8ff" d="M866.52,-274.82C850.58,-265.28 829.57,-252.09 812,-239 791.73,-223.9 770.07,-204.62 755.65,-191.28"/>
<polygon fill="#63b8ff" stroke="#63b8ff" points="757.77,-188.46 748.07,-184.19 752.99,-193.58 757.77,-188.46"/>
</a>
</g>
</g>
<!-- Node32 -->
<g id="Node000032" class="node">
<title>Node32</title>
<g id="a_Node000032"><a xlink:href="log_8hpp.html" target="_top" xlink:title=" ">
<polygon fill="white" stroke="#666666" points="1352,-74 1256,-74 1256,-55 1352,-55 1352,-74"/>
<text text-anchor="middle" x="1304" y="-62" font-family="Helvetica,sans-Serif" font-size="10.00">uvgvpcc/log.hpp</text>
</a>
</g>
</g>
<!-- Node1&#45;&gt;Node32 -->
<g id="edge61_Node000001_Node000032" class="edge">
<title>Node1&#45;&gt;Node32</title>
<g id="a_edge61_Node000001_Node000032"><a xlink:title=" ">
<path fill="none" stroke="#63b8ff" d="M966.33,-287.19C1056.64,-283.54 1200.99,-272.47 1242,-239 1290.08,-199.76 1300.89,-120.35 1303.31,-84.19"/>
<polygon fill="#63b8ff" stroke="#63b8ff" points="1306.81,-84.25 1303.84,-74.08 1299.82,-83.88 1306.81,-84.25"/>
</a>
</g>
</g>
<!-- Node2&#45;&gt;Node3 -->
<g id="edge2_Node000002_Node000003" class="edge">
<title>Node2&#45;&gt;Node3</title>
<g id="a_edge2_Node000002_Node000003"><a xlink:title=" ">
<path fill="none" stroke="#63b8ff" d="M336.79,-164.98C325.22,-156.92 307.62,-144.65 293.84,-135.03"/>
<polygon fill="#63b8ff" stroke="#63b8ff" points="295.64,-132.02 285.43,-129.17 291.63,-137.76 295.64,-132.02"/>
</a>
</g>
</g>
<!-- Node2&#45;&gt;Node13 -->
<g id="edge12_Node000002_Node000013" class="edge">
<title>Node2&#45;&gt;Node13</title>
<g id="a_edge12_Node000002_Node000013"><a xlink:title=" ">
<path fill="none" stroke="#63b8ff" d="M356.73,-164.94C369.26,-151.54 395.28,-125.53 422,-110 447.5,-95.18 478.73,-84.15 503.85,-76.79"/>
<polygon fill="#63b8ff" stroke="#63b8ff" points="504.83,-80.14 513.49,-74.04 502.92,-73.41 504.83,-80.14"/>
</a>
</g>
</g>
<!-- Node4 -->
<g id="Node000004" class="node">
<title>Node4</title>
<g id="a_Node000004"><a xlink:title=" ">
<polygon fill="#e0e0e0" stroke="#999999" points="203.5,-74 138.5,-74 138.5,-55 203.5,-55 203.5,-74"/>
<text text-anchor="middle" x="171" y="-62" font-family="Helvetica,sans-Serif" font-size="10.00">stdexcept</text>
</a>
</g>
</g>
<!-- Node3&#45;&gt;Node4 -->
<g id="edge3_Node000003_Node000004" class="edge">
<title>Node3&#45;&gt;Node4</title>
<g id="a_edge3_Node000003_Node000004"><a xlink:title=" ">
<path fill="none" stroke="#63b8ff" d="M256.61,-109.98C240.43,-101.57 215.43,-88.59 196.62,-78.81"/>
<polygon fill="#63b8ff" stroke="#63b8ff" points="198.17,-75.68 187.69,-74.17 194.95,-81.89 198.17,-75.68"/>
</a>
</g>
</g>
<!-- Node3&#45;&gt;Node5 -->
<g id="edge4_Node000003_Node000005" class="edge">
<title>Node3&#45;&gt;Node5</title>
<g id="a_edge4_Node000003_Node000005"><a xlink:title=" ">
<path fill="none" stroke="#63b8ff" d="M298.21,-109.98C344.98,-94.3 443.63,-61.83 479,-55 669.04,-18.28 721.06,-43.9 913,-19 917.98,-18.35 923.24,-17.55 928.37,-16.7"/>
<polygon fill="#63b8ff" stroke="#63b8ff" points="929.35,-20.08 938.6,-14.91 928.15,-13.18 929.35,-20.08"/>
</a>
</g>
</g>
<!-- Node3&#45;&gt;Node6 -->
<g id="edge5_Node000003_Node000006" class="edge">
<title>Node3&#45;&gt;Node6</title>
<g id="a_edge5_Node000003_Node000006"><a xlink:title=" ">
<path fill="none" stroke="#63b8ff" d="M265.49,-109.97C254.66,-96.6 237.44,-70.63 252,-55 262.22,-44.02 716.92,-19.14 846.1,-12.28"/>
<polygon fill="#63b8ff" stroke="#63b8ff" points="846.41,-15.77 856.21,-11.74 846.04,-8.78 846.41,-15.77"/>
</a>
</g>
</g>
<!-- Node7 -->
<g id="Node000007" class="node">
<title>Node7</title>
<g id="a_Node000007"><a xlink:href="utils_8hpp.html" target="_top" xlink:title=" ">
<polygon fill="white" stroke="#666666" points="81.5,-74 22.5,-74 22.5,-55 81.5,-55 81.5,-74"/>
<text text-anchor="middle" x="52" y="-62" font-family="Helvetica,sans-Serif" font-size="10.00">utils.hpp</text>
</a>
</g>
</g>
<!-- Node3&#45;&gt;Node7 -->
<g id="edge6_Node000003_Node000007" class="edge">
<title>Node3&#45;&gt;Node7</title>
<g id="a_edge6_Node000003_Node000007"><a xlink:title=" ">
<path fill="none" stroke="#63b8ff" d="M237.49,-109.98C197.59,-100.42 132.98,-84.92 91.51,-74.98"/>
<polygon fill="#63b8ff" stroke="#63b8ff" points="92.29,-71.56 81.75,-72.63 90.66,-78.37 92.29,-71.56"/>
</a>
</g>
</g>
<!-- Node8 -->
<g id="Node000008" class="node">
<title>Node8</title>
<g id="a_Node000008"><a xlink:title=" ">
<polygon fill="#e0e0e0" stroke="#999999" points="104,-19 62,-19 62,0 104,0 104,-19"/>
<text text-anchor="middle" x="83" y="-7" font-family="Helvetica,sans-Serif" font-size="10.00">array</text>
</a>
</g>
</g>
<!-- Node7&#45;&gt;Node8 -->
<g id="edge7_Node000007_Node000008" class="edge">
<title>Node7&#45;&gt;Node8</title>
<g id="a_edge7_Node000007_Node000008"><a xlink:title=" ">
<path fill="none" stroke="#63b8ff" d="M57.12,-54.75C61.36,-47.49 67.53,-36.95 72.78,-27.98"/>
<polygon fill="#63b8ff" stroke="#63b8ff" points="75.95,-29.49 77.98,-19.09 69.91,-25.95 75.95,-29.49"/>
</a>
</g>
</g>
<!-- Node7&#45;&gt;Node9 -->
<g id="edge8_Node000007_Node000009" class="edge">
<title>Node7&#45;&gt;Node9</title>
<g id="a_edge8_Node000007_Node000009"><a xlink:title=" ">
<path fill="none" stroke="#63b8ff" d="M81.82,-57.74C86.56,-56.82 91.42,-55.88 96,-55 165.39,-41.61 246.5,-26 291.79,-17.28"/>
<polygon fill="#63b8ff" stroke="#63b8ff" points="292.55,-20.7 301.7,-15.37 291.22,-13.82 292.55,-20.7"/>
</a>
</g>
</g>
<!-- Node10 -->
<g id="Node000010" class="node">
<title>Node10</title>
<g id="a_Node000010"><a xlink:title=" ">
<polygon fill="#e0e0e0" stroke="#999999" points="44,-19 0,-19 0,0 44,0 44,-19"/>
<text text-anchor="middle" x="22" y="-7" font-family="Helvetica,sans-Serif" font-size="10.00">limits</text>
</a>
</g>
</g>
<!-- Node7&#45;&gt;Node10 -->
<g id="edge9_Node000007_Node000010" class="edge">
<title>Node7&#45;&gt;Node10</title>
<g id="a_edge9_Node000007_Node000010"><a xlink:title=" ">
<path fill="none" stroke="#63b8ff" d="M47.05,-54.75C42.94,-47.49 36.97,-36.95 31.9,-27.98"/>
<polygon fill="#63b8ff" stroke="#63b8ff" points="34.83,-26.07 26.86,-19.09 28.74,-29.52 34.83,-26.07"/>
</a>
</g>
</g>
<!-- Node11 -->
<g id="Node000011" class="node">
<title>Node11</title>
<g id="a_Node000011"><a xlink:title=" ">
<polygon fill="#e0e0e0" stroke="#999999" points="231,-19 175,-19 175,0 231,0 231,-19"/>
<text text-anchor="middle" x="203" y="-7" font-family="Helvetica,sans-Serif" font-size="10.00">sstream</text>
</a>
</g>
</g>
<!-- Node7&#45;&gt;Node11 -->
<g id="edge10_Node000007_Node000011" class="edge">
<title>Node7&#45;&gt;Node11</title>
<g id="a_edge10_Node000007_Node000011"><a xlink:title=" ">
<path fill="none" stroke="#63b8ff" d="M76.26,-54.98C101.32,-46.19 140.63,-32.39 168.83,-22.49"/>
<polygon fill="#63b8ff" stroke="#63b8ff" points="170.02,-25.78 178.3,-19.17 167.7,-19.18 170.02,-25.78"/>
</a>
</g>
</g>
<!-- Node12 -->
<g id="Node000012" class="node">
<title>Node12</title>
<g id="a_Node000012"><a xlink:title=" ">
<polygon fill="#e0e0e0" stroke="#999999" points="516,-19 460,-19 460,0 516,0 516,-19"/>
<text text-anchor="middle" x="488" y="-7" font-family="Helvetica,sans-Serif" font-size="10.00">iomanip</text>
</a>
</g>
</g>
<!-- Node7&#45;&gt;Node12 -->
<g id="edge11_Node000007_Node000012" class="edge">
<title>Node7&#45;&gt;Node12</title>
<g id="a_edge11_Node000007_Node000012"><a xlink:title=" ">
<path fill="none" stroke="#63b8ff" d="M81.6,-60.22C164.65,-51.02 396.8,-25.28 449.54,-18.72"/>
<polygon fill="#63b8ff" stroke="#63b8ff" points="450.34,-22.14 459.79,-17.33 449.41,-15.2 450.34,-22.14"/>
</a>
</g>
</g>
<!-- Node13&#45;&gt;Node5 -->
<g id="edge20_Node000013_Node000005" class="edge">
<title>Node13&#45;&gt;Node5</title>
<g id="a_edge20_Node000013_Node000005"><a xlink:title=" ">
<path fill="none" stroke="#63b8ff" d="M610.11,-56.43C698.09,-46.19 856.1,-27.51 913,-19 917.97,-18.26 923.22,-17.4 928.34,-16.52"/>
<polygon fill="#63b8ff" stroke="#63b8ff" points="929.33,-19.91 938.57,-14.73 928.12,-13.01 929.33,-19.91"/>
</a>
</g>
</g>
<!-- Node13&#45;&gt;Node6 -->
<g id="edge21_Node000013_Node000006" class="edge">
<title>Node13&#45;&gt;Node6</title>
<g id="a_edge21_Node000013_Node000006"><a xlink:title=" ">
<path fill="none" stroke="#63b8ff" d="M602.18,-54.98C671,-43.97 788.87,-25.09 846.41,-15.88"/>
<polygon fill="#63b8ff" stroke="#63b8ff" points="847.11,-19.31 856.43,-14.27 846,-12.4 847.11,-19.31"/>
</a>
</g>
</g>
<!-- Node13&#45;&gt;Node9 -->
<g id="edge14_Node000013_Node000009" class="edge">
<title>Node13&#45;&gt;Node9</title>
<g id="a_edge14_Node000013_Node000009"><a xlink:title=" ">
<path fill="none" stroke="#63b8ff" d="M512.79,-54.94C475.11,-46.01 414.4,-31.6 362,-19 361.9,-18.98 361.8,-18.95 361.7,-18.93"/>
<polygon fill="#63b8ff" stroke="#63b8ff" points="362.77,-15.59 352.23,-16.64 361.13,-22.39 362.77,-15.59"/>
</a>
</g>
</g>
<!-- Node13&#45;&gt;Node11 -->
<g id="edge19_Node000013_Node000011" class="edge">
<title>Node13&#45;&gt;Node11</title>
<g id="a_edge19_Node000013_Node000011"><a xlink:title=" ">
<path fill="none" stroke="#63b8ff" d="M493.41,-54.98C422.62,-44.14 302.18,-25.69 241.03,-16.33"/>
<polygon fill="#63b8ff" stroke="#63b8ff" points="241.45,-12.85 231.04,-14.8 240.39,-19.77 241.45,-12.85"/>
</a>
</g>
</g>
<!-- Node13&#45;&gt;Node14 -->
<g id="edge13_Node000013_Node000014" class="edge">
<title>Node13&#45;&gt;Node14</title>
<g id="a_edge13_Node000013_Node000014"><a xlink:title=" ">
<path fill="none" stroke="#63b8ff" d="M610.16,-58.32C713.91,-49.36 920.11,-30.82 992,-19 992.11,-18.98 992.21,-18.97 992.32,-18.95"/>
<polygon fill="#63b8ff" stroke="#63b8ff" points="993.23,-22.34 1002.4,-17.03 991.92,-15.46 993.23,-22.34"/>
</a>
</g>
</g>
<!-- Node15 -->
<g id="Node000015" class="node">
<title>Node15</title>
<g id="a_Node000015"><a xlink:title=" ">
<polygon fill="#e0e0e0" stroke="#999999" points="1211,-19 1151,-19 1151,0 1211,0 1211,-19"/>
<text text-anchor="middle" x="1181" y="-7" font-family="Helvetica,sans-Serif" font-size="10.00">iostream</text>
</a>
</g>
</g>
<!-- Node13&#45;&gt;Node15 -->
<g id="edge15_Node000013_Node000015" class="edge">
<title>Node13&#45;&gt;Node15</title>
<g id="a_edge15_Node000013_Node000015"><a xlink:title=" ">
<path fill="none" stroke="#63b8ff" d="M610.11,-58.64C625.42,-57.44 641.81,-56.16 657,-55 869.26,-38.77 926.38,-49.75 1140.84,-18.96"/>
<polygon fill="#63b8ff" stroke="#63b8ff" points="1141.45,-22.41 1150.84,-17.51 1140.44,-15.48 1141.45,-22.41"/>
</a>
</g>
</g>
<!-- Node13&#45;&gt;Node16 -->
<g id="edge16_Node000013_Node000016" class="edge">
<title>Node13&#45;&gt;Node16</title>
<g id="a_edge16_Node000013_Node000016"><a xlink:title=" ">
<path fill="none" stroke="#63b8ff" d="M610.16,-58.67C730.41,-49.11 991.54,-28.04 1064.34,-18.75"/>
<polygon fill="#63b8ff" stroke="#63b8ff" points="1065.26,-22.15 1074.69,-17.31 1064.3,-15.22 1065.26,-22.15"/>
</a>
</g>
</g>
<!-- Node17 -->
<g id="Node000017" class="node">
<title>Node17</title>
<g id="a_Node000017"><a xlink:title=" ">
<polygon fill="#e0e0e0" stroke="#999999" points="691.5,-19 644.5,-19 644.5,0 691.5,0 691.5,-19"/>
<text text-anchor="middle" x="668" y="-7" font-family="Helvetica,sans-Serif" font-size="10.00">queue</text>
</a>
</g>
</g>
<!-- Node13&#45;&gt;Node17 -->
<g id="edge17_Node000013_Node000017" class="edge">
<title>Node13&#45;&gt;Node17</title>
<g id="a_edge17_Node000013_Node000017"><a xlink:title=" ">
<path fill="none" stroke="#63b8ff" d="M568.12,-54.98C587.35,-46.42 617.23,-33.11 639.31,-23.28"/>
<polygon fill="#63b8ff" stroke="#63b8ff" points="640.82,-26.44 648.53,-19.17 637.97,-20.04 640.82,-26.44"/>
</a>
</g>
</g>
<!-- Node18 -->
<g id="Node000018" class="node">
<title>Node18</title>
<g id="a_Node000018"><a xlink:title=" ">
<polygon fill="#e0e0e0" stroke="#999999" points="441.5,-19 370.5,-19 370.5,0 441.5,0 441.5,-19"/>
<text text-anchor="middle" x="406" y="-7" font-family="Helvetica,sans-Serif" font-size="10.00">semaphore</text>
</a>
</g>
</g>
<!-- Node13&#45;&gt;Node18 -->
<g id="edge18_Node000013_Node000018" class="edge">
<title>Node13&#45;&gt;Node18</title>
<g id="a_edge18_Node000013_Node000018"><a xlink:title=" ">
<path fill="none" stroke="#63b8ff" d="M526.02,-54.98C502.5,-46.27 465.71,-32.63 439.06,-22.75"/>
<polygon fill="#63b8ff" stroke="#63b8ff" points="439.99,-19.36 429.39,-19.17 437.55,-25.93 439.99,-19.36"/>
</a>
</g>
</g>
<!-- Node19 -->
<g id="Node000019" class="node">
<title>Node19</title>
<g id="a_Node000019"><a xlink:title=" ">
<polygon fill="#e0e0e0" stroke="#999999" points="626,-19 534,-19 534,0 626,0 626,-19"/>
<text text-anchor="middle" x="580" y="-7" font-family="Helvetica,sans-Serif" font-size="10.00">../utils/utils.hpp</text>
</a>
</g>
</g>
<!-- Node13&#45;&gt;Node19 -->
<g id="edge22_Node000013_Node000019" class="edge">
<title>Node13&#45;&gt;Node19</title>
<g id="a_edge22_Node000013_Node000019"><a xlink:title=" ">
<path fill="none" stroke="#63b8ff" d="M554.12,-54.75C558.36,-47.49 564.53,-36.95 569.78,-27.98"/>
<polygon fill="#63b8ff" stroke="#63b8ff" points="572.95,-29.49 574.98,-19.09 566.91,-25.95 572.95,-29.49"/>
</a>
</g>
</g>
<!-- Node23&#45;&gt;Node3 -->
<g id="edge43_Node000023_Node000003" class="edge">
<title>Node23&#45;&gt;Node3</title>
<g id="a_edge43_Node000023_Node000003"><a xlink:title=" ">
<path fill="none" stroke="#63b8ff" d="M537.39,-164.98C481.9,-155.65 392.91,-140.67 333.71,-130.71"/>
<polygon fill="#63b8ff" stroke="#63b8ff" points="334.19,-127.25 323.75,-129.04 333.03,-134.15 334.19,-127.25"/>
</a>
</g>
</g>
<!-- Node23&#45;&gt;Node13 -->
<g id="edge44_Node000023_Node000013" class="edge">
<title>Node23&#45;&gt;Node13</title>
<g id="a_edge44_Node000023_Node000013"><a xlink:title=" ">
<path fill="none" stroke="#63b8ff" d="M585.77,-164.75C582.54,-152.4 576.15,-129.19 569,-110 565.67,-101.07 561.41,-91.4 557.67,-83.35"/>
<polygon fill="#63b8ff" stroke="#63b8ff" points="560.79,-81.75 553.33,-74.22 554.46,-84.76 560.79,-81.75"/>
</a>
</g>
</g>
<!-- Node24 -->
<g id="Node000024" class="node">
<title>Node24</title>
<g id="a_Node000024"><a xlink:href="atlas__frame_8hpp.html" target="_top" xlink:title=" ">
<polygon fill="white" stroke="#666666" points="560,-129 464,-129 464,-110 560,-110 560,-129"/>
<text text-anchor="middle" x="512" y="-117" font-family="Helvetica,sans-Serif" font-size="10.00">atlas_frame.hpp</text>
</a>
</g>
</g>
<!-- Node23&#45;&gt;Node24 -->
<g id="edge32_Node000023_Node000024" class="edge">
<title>Node23&#45;&gt;Node24</title>
<g id="a_edge32_Node000023_Node000024"><a xlink:title=" ">
<path fill="none" stroke="#63b8ff" d="M575.79,-164.98C564.22,-156.92 546.62,-144.65 532.84,-135.03"/>
<polygon fill="#63b8ff" stroke="#63b8ff" points="534.64,-132.02 524.43,-129.17 530.63,-137.76 534.64,-132.02"/>
</a>
</g>
</g>
<!-- Node23&#45;&gt;Node25 -->
<g id="edge37_Node000023_Node000025" class="edge">
<title>Node23&#45;&gt;Node25</title>
<g id="a_edge37_Node000023_Node000025"><a xlink:title=" ">
<path fill="none" stroke="#63b8ff" d="M558.78,-164.99C531.55,-156.77 489.99,-143.45 455,-129 418,-113.72 376.78,-92.47 351.37,-78.85"/>
<polygon fill="#63b8ff" stroke="#63b8ff" points="352.9,-75.7 342.44,-74.03 349.58,-81.86 352.9,-75.7"/>
</a>
</g>
</g>
<!-- Node26 -->
<g id="Node000026" class="node">
<title>Node26</title>
<g id="a_Node000026"><a xlink:href="bitstream__util_8hpp.html" target="_top" xlink:title=" ">
<polygon fill="white" stroke="#666666" points="760,-129 654,-129 654,-110 760,-110 760,-129"/>
<text text-anchor="middle" x="707" y="-117" font-family="Helvetica,sans-Serif" font-size="10.00">bitstream_util.hpp</text>
</a>
</g>
</g>
<!-- Node23&#45;&gt;Node26 -->
<g id="edge38_Node000023_Node000026" class="edge">
<title>Node23&#45;&gt;Node26</title>
<g id="a_edge38_Node000023_Node000026"><a xlink:title=" ">
<path fill="none" stroke="#63b8ff" d="M607.12,-164.98C626.35,-156.42 656.23,-143.11 678.31,-133.28"/>
<polygon fill="#63b8ff" stroke="#63b8ff" points="679.82,-136.44 687.53,-129.17 676.97,-130.04 679.82,-136.44"/>
</a>
</g>
</g>
<!-- Node24&#45;&gt;Node13 -->
<g id="edge36_Node000024_Node000013" class="edge">
<title>Node24&#45;&gt;Node13</title>
<g id="a_edge36_Node000024_Node000013"><a xlink:title=" ">
<path fill="none" stroke="#63b8ff" d="M518.11,-109.75C523.28,-102.34 530.85,-91.5 537.19,-82.41"/>
<polygon fill="#63b8ff" stroke="#63b8ff" points="540.15,-84.29 543,-74.09 534.41,-80.29 540.15,-84.29"/>
</a>
</g>
</g>
<!-- Node24&#45;&gt;Node21 -->
<g id="edge33_Node000024_Node000021" class="edge">
<title>Node24&#45;&gt;Node21</title>
<g id="a_edge33_Node000024_Node000021"><a xlink:title=" ">
<path fill="none" stroke="#63b8ff" d="M560.07,-112.38C614.54,-105.12 706.14,-91.95 794.36,-73.95"/>
<polygon fill="#63b8ff" stroke="#63b8ff" points="795.18,-77.35 804.27,-71.9 793.77,-70.5 795.18,-77.35"/>
</a>
</g>
</g>
<!-- Node24&#45;&gt;Node25 -->
<g id="edge34_Node000024_Node000025" class="edge">
<title>Node24&#45;&gt;Node25</title>
<g id="a_edge34_Node000024_Node000025"><a xlink:title=" ">
<path fill="none" stroke="#63b8ff" d="M482.28,-109.98C450.95,-101.01 401.43,-86.82 366.76,-76.89"/>
<polygon fill="#63b8ff" stroke="#63b8ff" points="367.53,-73.47 356.96,-74.08 365.61,-80.2 367.53,-73.47"/>
</a>
</g>
</g>
<!-- Node25&#45;&gt;Node9 -->
<g id="edge35_Node000025_Node000009" class="edge">
<title>Node25&#45;&gt;Node9</title>
<g id="a_edge35_Node000025_Node000009"><a xlink:title=" ">
<path fill="none" stroke="#63b8ff" d="M327,-54.75C327,-47.8 327,-37.85 327,-29.13"/>
<polygon fill="#63b8ff" stroke="#63b8ff" points="330.5,-29.09 327,-19.09 323.5,-29.09 330.5,-29.09"/>
</a>
</g>
</g>
<!-- Node26&#45;&gt;Node5 -->
<g id="edge42_Node000026_Node000005" class="edge">
<title>Node26&#45;&gt;Node5</title>
<g id="a_edge42_Node000026_Node000005"><a xlink:title=" ">
<path fill="none" stroke="#63b8ff" d="M691.68,-109.87C671.53,-97.45 640.52,-73.96 657,-55 694.69,-11.64 856.26,-28.01 913,-19 917.96,-18.21 923.21,-17.33 928.33,-16.45"/>
<polygon fill="#63b8ff" stroke="#63b8ff" points="929.32,-19.83 938.56,-14.64 928.11,-12.93 929.32,-19.83"/>
</a>
</g>
</g>
<!-- Node26&#45;&gt;Node9 -->
<g id="edge41_Node000026_Node000009" class="edge">
<title>Node26&#45;&gt;Node9</title>
<g id="a_edge41_Node000026_Node000009"><a xlink:title=" ">
<path fill="none" stroke="#63b8ff" d="M653.73,-111.24C607.05,-104.13 537.67,-91.78 479,-74 433.75,-60.29 383.56,-37.81 353.68,-23.6"/>
<polygon fill="#63b8ff" stroke="#63b8ff" points="354.89,-20.3 344.36,-19.12 351.85,-26.61 354.89,-20.3"/>
</a>
</g>
</g>
<!-- Node27 -->
<g id="Node000027" class="node">
<title>Node27</title>
<g id="a_Node000027"><a xlink:title=" ">
<polygon fill="#e0e0e0" stroke="#999999" points="718,-74 666,-74 666,-55 718,-55 718,-74"/>
<text text-anchor="middle" x="692" y="-62" font-family="Helvetica,sans-Serif" font-size="10.00">cassert</text>
</a>
</g>
</g>
<!-- Node26&#45;&gt;Node27 -->
<g id="edge39_Node000026_Node000027" class="edge">
<title>Node26&#45;&gt;Node27</title>
<g id="a_edge39_Node000026_Node000027"><a xlink:title=" ">
<path fill="none" stroke="#63b8ff" d="M704.52,-109.75C702.54,-102.72 699.68,-92.62 697.19,-83.84"/>
<polygon fill="#63b8ff" stroke="#63b8ff" points="700.52,-82.76 694.43,-74.09 693.79,-84.66 700.52,-82.76"/>
</a>
</g>
</g>
<!-- Node28 -->
<g id="Node000028" class="node">
<title>Node28</title>
<g id="a_Node000028"><a xlink:title=" ">
<polygon fill="#e0e0e0" stroke="#999999" points="786,-74 736,-74 736,-55 786,-55 786,-74"/>
<text text-anchor="middle" x="761" y="-62" font-family="Helvetica,sans-Serif" font-size="10.00">cstring</text>
</a>
</g>
</g>
<!-- Node26&#45;&gt;Node28 -->
<g id="edge40_Node000026_Node000028" class="edge">
<title>Node26&#45;&gt;Node28</title>
<g id="a_edge40_Node000026_Node000028"><a xlink:title=" ">
<path fill="none" stroke="#63b8ff" d="M715.92,-109.75C723.78,-102.03 735.43,-90.6 744.92,-81.28"/>
<polygon fill="#63b8ff" stroke="#63b8ff" points="747.56,-83.59 752.25,-74.09 742.66,-78.6 747.56,-83.59"/>
</a>
</g>
</g>
<!-- Node29&#45;&gt;Node6 -->
<g id="edge48_Node000029_Node000006" class="edge">
<title>Node29&#45;&gt;Node6</title>
<g id="a_edge48_Node000029_Node000006"><a xlink:title=" ">
<path fill="none" stroke="#63b8ff" d="M890.57,-219.95C888.95,-187.95 883.24,-74.68 880.95,-29.4"/>
<polygon fill="#63b8ff" stroke="#63b8ff" points="884.44,-29.03 880.44,-19.22 877.45,-29.39 884.44,-29.03"/>
</a>
</g>
</g>
<!-- Node29&#45;&gt;Node13 -->
<g id="edge50_Node000029_Node000013" class="edge">
<title>Node29&#45;&gt;Node13</title>
<g id="a_edge50_Node000029_Node000013"><a xlink:title=" ">
<path fill="none" stroke="#63b8ff" d="M885.01,-219.95C869.02,-197.81 822.81,-138.37 769,-110 723.11,-85.8 665.45,-74.74 620.68,-69.69"/>
<polygon fill="#63b8ff" stroke="#63b8ff" points="620.77,-66.18 610.46,-68.62 620.04,-73.14 620.77,-66.18"/>
</a>
</g>
</g>
<!-- Node29&#45;&gt;Node16 -->
<g id="edge47_Node000029_Node000016" class="edge">
<title>Node29&#45;&gt;Node16</title>
<g id="a_edge47_Node000029_Node000016"><a xlink:title=" ">
<path fill="none" stroke="#63b8ff" d="M901.74,-219.71C929.13,-197.05 1003.22,-134.18 1057,-74 1070.24,-59.19 1083.54,-40.81 1092.6,-27.64"/>
<polygon fill="#63b8ff" stroke="#63b8ff" points="1095.67,-29.34 1098.38,-19.1 1089.88,-25.42 1095.67,-29.34"/>
</a>
</g>
</g>
<!-- Node29&#45;&gt;Node23 -->
<g id="edge49_Node000029_Node000023" class="edge">
<title>Node29&#45;&gt;Node23</title>
<g id="a_edge49_Node000029_Node000023"><a xlink:title=" ">
<path fill="none" stroke="#63b8ff" d="M864.38,-223.84C815.99,-215.38 712.56,-197.29 646.86,-185.8"/>
<polygon fill="#63b8ff" stroke="#63b8ff" points="647.11,-182.29 636.66,-184.01 645.91,-189.18 647.11,-182.29"/>
</a>
</g>
</g>
<!-- Node29&#45;&gt;Node30 -->
<g id="edge51_Node000029_Node000030" class="edge">
<title>Node29&#45;&gt;Node30</title>
<g id="a_edge51_Node000029_Node000030"><a xlink:title=" ">
<path fill="none" stroke="#63b8ff" d="M896.06,-219.68C901.16,-210.73 909.24,-196.46 916,-184 935.28,-148.44 957.04,-106.4 968.96,-83.17"/>
<polygon fill="#63b8ff" stroke="#63b8ff" points="972.13,-84.67 973.58,-74.17 965.9,-81.47 972.13,-84.67"/>
</a>
</g>
</g>
<!-- Node29&#45;&gt;Node31 -->
<g id="edge55_Node000029_Node000031" class="edge">
<title>Node29&#45;&gt;Node31</title>
<g id="a_edge55_Node000029_Node000031"><a xlink:title=" ">
<path fill="none" stroke="#63b8ff" d="M866.58,-219.98C841.28,-211.16 801.55,-197.31 773.14,-187.41"/>
<polygon fill="#63b8ff" stroke="#63b8ff" points="774.21,-184.07 763.61,-184.08 771.9,-190.68 774.21,-184.07"/>
</a>
</g>
</g>
<!-- Node30&#45;&gt;Node5 -->
<g id="edge53_Node000030_Node000005" class="edge">
<title>Node30&#45;&gt;Node5</title>
<g id="a_edge53_Node000030_Node000005"><a xlink:title=" ">
<path fill="none" stroke="#63b8ff" d="M975.19,-54.75C972.94,-47.72 969.7,-37.62 966.88,-28.84"/>
<polygon fill="#63b8ff" stroke="#63b8ff" points="970.14,-27.54 963.75,-19.09 963.48,-29.68 970.14,-27.54"/>
</a>
</g>
</g>
<!-- Node30&#45;&gt;Node6 -->
<g id="edge54_Node000030_Node000006" class="edge">
<title>Node30&#45;&gt;Node6</title>
<g id="a_edge54_Node000030_Node000006"><a xlink:title=" ">
<path fill="none" stroke="#63b8ff" d="M962.25,-54.98C946.77,-46.61 922.91,-33.7 904.86,-23.95"/>
<polygon fill="#63b8ff" stroke="#63b8ff" points="906.49,-20.85 896.03,-19.17 903.16,-27.01 906.49,-20.85"/>
</a>
</g>
</g>
<!-- Node30&#45;&gt;Node9 -->
<g id="edge52_Node000030_Node000009" class="edge">
<title>Node30&#45;&gt;Node9</title>
<g id="a_edge52_Node000030_Node000009"><a xlink:title=" ">
<path fill="none" stroke="#63b8ff" d="M907.78,-58.39C892.37,-57.27 876.13,-56.1 861,-55 639.23,-38.94 581.68,-53.36 362,-19 361.9,-18.98 361.8,-18.97 361.7,-18.95"/>
<polygon fill="#63b8ff" stroke="#63b8ff" points="362.61,-15.56 352.13,-17.13 361.3,-22.44 362.61,-15.56"/>
</a>
</g>
</g>
<!-- Node31&#45;&gt;Node3 -->
<g id="edge58_Node000031_Node000003" class="edge">
<title>Node31&#45;&gt;Node3</title>
<g id="a_edge58_Node000031_Node000003"><a xlink:title=" ">
<path fill="none" stroke="#63b8ff" d="M711.25,-170.34C639.57,-162.19 446.59,-140.24 342.24,-128.38"/>
<polygon fill="#63b8ff" stroke="#63b8ff" points="342.45,-124.88 332.12,-127.22 341.66,-131.83 342.45,-124.88"/>
</a>
</g>
</g>
<!-- Node31&#45;&gt;Node13 -->
<g id="edge59_Node000031_Node000013" class="edge">
<title>Node31&#45;&gt;Node13</title>
<g id="a_edge59_Node000031_Node000013"><a xlink:title=" ">
<path fill="none" stroke="#63b8ff" d="M718.78,-164.93C699.45,-156.5 669.69,-142.92 645,-129 617.8,-113.67 588.04,-93.4 568.98,-79.93"/>
<polygon fill="#63b8ff" stroke="#63b8ff" points="570.95,-77.04 560.78,-74.08 566.89,-82.74 570.95,-77.04"/>
</a>
</g>
</g>
<!-- Node31&#45;&gt;Node21 -->
<g id="edge56_Node000031_Node000021" class="edge">
<title>Node31&#45;&gt;Node21</title>
<g id="a_edge56_Node000031_Node000021"><a xlink:title=" ">
<path fill="none" stroke="#63b8ff" d="M746.28,-164.66C761.16,-146.61 795.22,-105.28 814.34,-82.08"/>
<polygon fill="#63b8ff" stroke="#63b8ff" points="817.21,-84.1 820.86,-74.16 811.8,-79.65 817.21,-84.1"/>
</a>
</g>
</g>
<!-- Node31&#45;&gt;Node26 -->
<g id="edge57_Node000031_Node000026" class="edge">
<title>Node31&#45;&gt;Node26</title>
<g id="a_edge57_Node000031_Node000026"><a xlink:title=" ">
<path fill="none" stroke="#63b8ff" d="M733.72,-164.75C729.29,-157.42 722.84,-146.73 717.38,-137.7"/>
<polygon fill="#63b8ff" stroke="#63b8ff" points="720.35,-135.84 712.19,-129.09 714.36,-139.46 720.35,-135.84"/>
</a>
</g>
</g>
<!-- Node32&#45;&gt;Node5 -->
<g id="edge66_Node000032_Node000005" class="edge">
<title>Node32&#45;&gt;Node5</title>
<g id="a_edge66_Node000032_Node000005"><a xlink:title=" ">
<path fill="none" stroke="#63b8ff" d="M1255.93,-58.25C1194.75,-51.2 1085.97,-37.39 994,-19 993.78,-18.96 993.56,-18.91 993.35,-18.87"/>
<polygon fill="#63b8ff" stroke="#63b8ff" points="993.82,-15.39 983.29,-16.59 992.27,-22.21 993.82,-15.39"/>
</a>
</g>
</g>
<!-- Node32&#45;&gt;Node12 -->
<g id="edge64_Node000032_Node000012" class="edge">
<title>Node32&#45;&gt;Node12</title>
<g id="a_edge64_Node000032_Node000012"><a xlink:title=" ">
<path fill="none" stroke="#63b8ff" d="M1255.99,-61.82C1112.29,-56.63 686.17,-40 526.33,-18.89"/>
<polygon fill="#63b8ff" stroke="#63b8ff" points="526.57,-15.39 516.19,-17.49 525.62,-22.32 526.57,-15.39"/>
</a>
</g>
</g>
<!-- Node32&#45;&gt;Node15 -->
<g id="edge65_Node000032_Node000015" class="edge">
<title>Node32&#45;&gt;Node15</title>
<g id="a_edge65_Node000032_Node000015"><a xlink:title=" ">
<path fill="none" stroke="#63b8ff" d="M1284.24,-54.98C1264.27,-46.38 1233.2,-32.99 1210.35,-23.15"/>
<polygon fill="#63b8ff" stroke="#63b8ff" points="1211.69,-19.91 1201.12,-19.17 1208.92,-26.34 1211.69,-19.91"/>
</a>
</g>
</g>
<!-- Node33 -->
<g id="Node000033" class="node">
<title>Node33</title>
<g id="a_Node000033"><a xlink:title=" ">
<polygon fill="#e0e0e0" stroke="#999999" points="1345,-19 1295,-19 1295,0 1345,0 1345,-19"/>
<text text-anchor="middle" x="1320" y="-7" font-family="Helvetica,sans-Serif" font-size="10.00">chrono</text>
</a>
</g>
</g>
<!-- Node32&#45;&gt;Node33 -->
<g id="edge62_Node000032_Node000033" class="edge">
<title>Node32&#45;&gt;Node33</title>
<g id="a_edge62_Node000032_Node000033"><a xlink:title=" ">
<path fill="none" stroke="#63b8ff" d="M1306.64,-54.75C1308.76,-47.72 1311.81,-37.62 1314.46,-28.84"/>
<polygon fill="#63b8ff" stroke="#63b8ff" points="1317.87,-29.67 1317.41,-19.09 1311.17,-27.65 1317.87,-29.67"/>
</a>
</g>
</g>
<!-- Node34 -->
<g id="Node000034" class="node">
<title>Node34</title>
<g id="a_Node000034"><a xlink:title=" ">
<polygon fill="#e0e0e0" stroke="#999999" points="1416.5,-19 1363.5,-19 1363.5,0 1416.5,0 1416.5,-19"/>
<text text-anchor="middle" x="1390" y="-7" font-family="Helvetica,sans-Serif" font-size="10.00">cstdarg</text>
</a>
</g>
</g>
<!-- Node32&#45;&gt;Node34 -->
<g id="edge63_Node000032_Node000034" class="edge">
<title>Node32&#45;&gt;Node34</title>
<g id="a_edge63_Node000032_Node000034"><a xlink:title=" ">
<path fill="none" stroke="#63b8ff" d="M1317.82,-54.98C1331.15,-46.77 1351.58,-34.18 1367.31,-24.49"/>
<polygon fill="#63b8ff" stroke="#63b8ff" points="1369.25,-27.4 1375.93,-19.17 1365.58,-21.44 1369.25,-27.4"/>
</a>
</g>
</g>
<!-- Node35 -->
<g id="Node000035" class="node">
<title>Node35</title>
<g id="a_Node000035"><a xlink:title=" ">
<polygon fill="#e0e0e0" stroke="#999999" points="1277,-19 1229,-19 1229,0 1277,0 1277,-19"/>
<text text-anchor="middle" x="1253" y="-7" font-family="Helvetica,sans-Serif" font-size="10.00">mutex</text>
</a>
</g>
</g>
<!-- Node32&#45;&gt;Node35 -->
<g id="edge67_Node000032_Node000035" class="edge">
<title>Node32&#45;&gt;Node35</title>
<g id="a_edge67_Node000032_Node000035"><a xlink:title=" ">
<path fill="none" stroke="#63b8ff" d="M1295.58,-54.75C1288.23,-47.11 1277.37,-35.82 1268.46,-26.56"/>
<polygon fill="#63b8ff" stroke="#63b8ff" points="1270.72,-23.87 1261.26,-19.09 1265.68,-28.72 1270.72,-23.87"/>
</a>
</g>
</g>
</g>
</svg>

<g id="navigator" transform="translate(0 0)" fill="#404254">
  <rect fill="#f2f5e9" fill-opacity="0.5" stroke="#606060" stroke-width=".5" x="0" y="0" width="60" height="60"/>
  <use id="zoomplus" xlink:href="#zoomPlus" x="17" y="9" onmousedown="handleZoom(evt,'in')"/>
  <use id="zoomminus" xlink:href="#zoomMin" x="42" y="9" onmousedown="handleZoom(evt,'out')"/>
  <use id="reset" xlink:href="#resetDef" x="30" y="36" onmousedown="handleReset()"/>
   <use id="arrowup" xlink:href="#arrowUp" x="0" y="0" onmousedown="handlePan(0,-1)"/>
  <use id="arrowright" xlink:href="#arrowRight" x="0" y="0" onmousedown="handlePan(1,0)"/>
  <use id="arrowdown" xlink:href="#arrowDown" x="0" y="0" onmousedown="handlePan(0,1)"/>
  <use id="arrowleft" xlink:href="#arrowLeft" x="0" y="0" onmousedown="handlePan(-1,0)"/>
</g>
<svg viewBox="0 0 15 15" width="100%" height="30px" preserveAspectRatio="xMaxYMin meet">
 <g id="arrow_out" transform="scale(0.3 0.3)">
  <a xlink:href="bitstreamGeneration_8cpp__incl_org.svg" target="_base">
   <rect id="button" ry="5" rx="5" y="6" x="6" height="38" width="38"
        fill="#f2f5e9" fill-opacity="0.5" stroke="#606060" stroke-width="1.0"/>
   <path id="arrow"
     d="M 11.500037,31.436501 C 11.940474,20.09759 22.043105,11.32322 32.158766,21.979434 L 37.068811,17.246167 C 37.068811,17.246167 37.088388,32 37.088388,32 L 22.160133,31.978069 C 22.160133,31.978069 26.997745,27.140456 26.997745,27.140456 C 18.528582,18.264221 13.291696,25.230495 11.500037,31.436501 z"
     style="fill:#404040;"/>
  </a>
 </g>
</svg>

<style type='text/css'>
<![CDATA[
[data-mouse-over-selected='false'] { opacity: 0.7; }
[data-mouse-over-selected='true']  { opacity: 1.0; }
]]>
</style>
<script type="application/ecmascript"><![CDATA[
document.addEventListener('DOMContentLoaded', (event) => {
  highlightEdges();
  highlightAdjacentNodes();
});
]]></script>
</svg>
