<?xml version="1.0" encoding="UTF-8" standalone="no"?>
<!DOCTYPE svg PUBLIC "-//W3C//DTD SVG 1.1//EN"
 "http://www.w3.org/Graphics/SVG/1.1/DTD/svg11.dtd">
<!-- Generated by graphviz version 2.43.0 (0)
 -->
<!-- Title: src/libuvgvpccenc/bitstreamGeneration/bitstreamGeneration.hpp Pages: 1 -->
<svg width="1322pt" height="258pt"
 viewBox="0.00 0.00 1321.50 258.00" xmlns="http://www.w3.org/2000/svg" xmlns:xlink="http://www.w3.org/1999/xlink">
<g id="graph0" class="graph" transform="scale(1 1) rotate(0) translate(4 254)">
<title>src/libuvgvpccenc/bitstreamGeneration/bitstreamGeneration.hpp</title>
<!-- Node1 -->
<g id="Node000001" class="node">
<title>Node1</title>
<g id="a_Node000001"><a xlink:title=" ">
<polygon fill="#999999" stroke="#666666" points="566.5,-250 370.5,-250 370.5,-220 566.5,-220 566.5,-250"/>
<text text-anchor="start" x="378.5" y="-238" font-family="Helvetica,sans-Serif" font-size="10.00">src/libuvgvpccenc/bitstream</text>
<text text-anchor="middle" x="468.5" y="-227" font-family="Helvetica,sans-Serif" font-size="10.00">Generation/bitstreamGeneration.hpp</text>
</a>
</g>
</g>
<!-- Node2 -->
<g id="Node000002" class="node">
<title>Node2</title>
<g id="a_Node000002"><a xlink:href="parameters_8hpp.html" target="_top" xlink:title=" ">
<polygon fill="white" stroke="#666666" points="398.5,-184 280.5,-184 280.5,-165 398.5,-165 398.5,-184"/>
<text text-anchor="middle" x="339.5" y="-172" font-family="Helvetica,sans-Serif" font-size="10.00">utils/parameters.hpp</text>
</a>
</g>
</g>
<!-- Node1&#45;&gt;Node2 -->
<g id="edge1_Node000001_Node000002" class="edge">
<title>Node1&#45;&gt;Node2</title>
<g id="a_edge1_Node000001_Node000002"><a xlink:title=" ">
<path fill="none" stroke="#63b8ff" d="M437.6,-219.99C416.37,-210.36 388.39,-197.67 367.75,-188.31"/>
<polygon fill="#63b8ff" stroke="#63b8ff" points="369.1,-185.08 358.55,-184.14 366.21,-191.46 369.1,-185.08"/>
</a>
</g>
</g>
<!-- Node18 -->
<g id="Node000018" class="node">
<title>Node18</title>
<g id="a_Node000018"><a xlink:href="uvgvpcc_8hpp.html" target="_top" xlink:title=" ">
<polygon fill="white" stroke="#666666" points="658.5,-184 536.5,-184 536.5,-165 658.5,-165 658.5,-184"/>
<text text-anchor="middle" x="597.5" y="-172" font-family="Helvetica,sans-Serif" font-size="10.00">uvgvpcc/uvgvpcc.hpp</text>
</a>
</g>
</g>
<!-- Node1&#45;&gt;Node18 -->
<g id="edge19_Node000001_Node000018" class="edge">
<title>Node1&#45;&gt;Node18</title>
<g id="a_edge19_Node000001_Node000018"><a xlink:title=" ">
<path fill="none" stroke="#63b8ff" d="M499.4,-219.99C520.63,-210.36 548.61,-197.67 569.25,-188.31"/>
<polygon fill="#63b8ff" stroke="#63b8ff" points="570.79,-191.46 578.45,-184.14 567.9,-185.08 570.79,-191.46"/>
</a>
</g>
</g>
<!-- Node3 -->
<g id="Node000003" class="node">
<title>Node3</title>
<g id="a_Node000003"><a xlink:title=" ">
<polygon fill="#e0e0e0" stroke="#999999" points="65,-129 0,-129 0,-110 65,-110 65,-129"/>
<text text-anchor="middle" x="32.5" y="-117" font-family="Helvetica,sans-Serif" font-size="10.00">stdexcept</text>
</a>
</g>
</g>
<!-- Node2&#45;&gt;Node3 -->
<g id="edge2_Node000002_Node000003" class="edge">
<title>Node2&#45;&gt;Node3</title>
<g id="a_edge2_Node000002_Node000003"><a xlink:title=" ">
<path fill="none" stroke="#63b8ff" d="M288.66,-164.94C236.23,-156.09 152.11,-141.78 79.5,-129 78.05,-128.74 76.57,-128.48 75.07,-128.22"/>
<polygon fill="#63b8ff" stroke="#63b8ff" points="75.57,-124.75 65.11,-126.44 74.34,-131.64 75.57,-124.75"/>
</a>
</g>
</g>
<!-- Node4 -->
<g id="Node000004" class="node">
<title>Node4</title>
<g id="a_Node000004"><a xlink:title=" ">
<polygon fill="#e0e0e0" stroke="#999999" points="119.5,-19 75.5,-19 75.5,0 119.5,0 119.5,-19"/>
<text text-anchor="middle" x="97.5" y="-7" font-family="Helvetica,sans-Serif" font-size="10.00">string</text>
</a>
</g>
</g>
<!-- Node2&#45;&gt;Node4 -->
<g id="edge3_Node000002_Node000004" class="edge">
<title>Node2&#45;&gt;Node4</title>
<g id="a_edge3_Node000002_Node000004"><a xlink:title=" ">
<path fill="none" stroke="#63b8ff" d="M280.38,-169.13C222.42,-163.57 139.63,-151.82 117.5,-129 91.56,-102.25 92.08,-55.16 94.76,-29.12"/>
<polygon fill="#63b8ff" stroke="#63b8ff" points="98.25,-29.44 96.02,-19.08 91.31,-28.57 98.25,-29.44"/>
</a>
</g>
</g>
<!-- Node5 -->
<g id="Node000005" class="node">
<title>Node5</title>
<g id="a_Node000005"><a xlink:title=" ">
<polygon fill="#e0e0e0" stroke="#999999" points="455,-129 408,-129 408,-110 455,-110 455,-129"/>
<text text-anchor="middle" x="431.5" y="-117" font-family="Helvetica,sans-Serif" font-size="10.00">vector</text>
</a>
</g>
</g>
<!-- Node2&#45;&gt;Node5 -->
<g id="edge4_Node000002_Node000005" class="edge">
<title>Node2&#45;&gt;Node5</title>
<g id="a_edge4_Node000002_Node000005"><a xlink:title=" ">
<path fill="none" stroke="#63b8ff" d="M354.28,-164.98C368.68,-156.69 390.81,-143.94 407.69,-134.22"/>
<polygon fill="#63b8ff" stroke="#63b8ff" points="409.53,-137.19 416.45,-129.17 406.04,-131.13 409.53,-137.19"/>
</a>
</g>
</g>
<!-- Node6 -->
<g id="Node000006" class="node">
<title>Node6</title>
<g id="a_Node000006"><a xlink:href="utils_8hpp.html" target="_top" xlink:title=" ">
<polygon fill="white" stroke="#666666" points="390,-129 289,-129 289,-110 390,-110 390,-129"/>
<text text-anchor="middle" x="339.5" y="-117" font-family="Helvetica,sans-Serif" font-size="10.00">uvgutils/utils.hpp</text>
</a>
</g>
</g>
<!-- Node2&#45;&gt;Node6 -->
<g id="edge5_Node000002_Node000006" class="edge">
<title>Node2&#45;&gt;Node6</title>
<g id="a_edge5_Node000002_Node000006"><a xlink:title=" ">
<path fill="none" stroke="#63b8ff" d="M339.5,-164.75C339.5,-157.8 339.5,-147.85 339.5,-139.13"/>
<polygon fill="#63b8ff" stroke="#63b8ff" points="343,-139.09 339.5,-129.09 336,-139.09 343,-139.09"/>
</a>
</g>
</g>
<!-- Node7 -->
<g id="Node000007" class="node">
<title>Node7</title>
<g id="a_Node000007"><a xlink:title=" ">
<polygon fill="#e0e0e0" stroke="#999999" points="311.5,-74 269.5,-74 269.5,-55 311.5,-55 311.5,-74"/>
<text text-anchor="middle" x="290.5" y="-62" font-family="Helvetica,sans-Serif" font-size="10.00">array</text>
</a>
</g>
</g>
<!-- Node6&#45;&gt;Node7 -->
<g id="edge6_Node000006_Node000007" class="edge">
<title>Node6&#45;&gt;Node7</title>
<g id="a_edge6_Node000006_Node000007"><a xlink:title=" ">
<path fill="none" stroke="#63b8ff" d="M331.41,-109.75C324.34,-102.11 313.91,-90.82 305.35,-81.56"/>
<polygon fill="#63b8ff" stroke="#63b8ff" points="307.8,-79.06 298.44,-74.09 302.66,-83.81 307.8,-79.06"/>
</a>
</g>
</g>
<!-- Node8 -->
<g id="Node000008" class="node">
<title>Node8</title>
<g id="a_Node000008"><a xlink:title=" ">
<polygon fill="#e0e0e0" stroke="#999999" points="445,-74 392,-74 392,-55 445,-55 445,-74"/>
<text text-anchor="middle" x="418.5" y="-62" font-family="Helvetica,sans-Serif" font-size="10.00">cstddef</text>
</a>
</g>
</g>
<!-- Node6&#45;&gt;Node8 -->
<g id="edge7_Node000006_Node000008" class="edge">
<title>Node6&#45;&gt;Node8</title>
<g id="a_edge7_Node000006_Node000008"><a xlink:title=" ">
<path fill="none" stroke="#63b8ff" d="M352.19,-109.98C364.33,-101.84 382.86,-89.41 397.25,-79.76"/>
<polygon fill="#63b8ff" stroke="#63b8ff" points="399.22,-82.65 405.58,-74.17 395.32,-76.84 399.22,-82.65"/>
</a>
</g>
</g>
<!-- Node9 -->
<g id="Node000009" class="node">
<title>Node9</title>
<g id="a_Node000009"><a xlink:title=" ">
<polygon fill="#e0e0e0" stroke="#999999" points="513.5,-74 463.5,-74 463.5,-55 513.5,-55 513.5,-74"/>
<text text-anchor="middle" x="488.5" y="-62" font-family="Helvetica,sans-Serif" font-size="10.00">cstdint</text>
</a>
</g>
</g>
<!-- Node6&#45;&gt;Node9 -->
<g id="edge8_Node000006_Node000009" class="edge">
<title>Node6&#45;&gt;Node9</title>
<g id="a_edge8_Node000006_Node000009"><a xlink:title=" ">
<path fill="none" stroke="#63b8ff" d="M363.44,-109.98C388.06,-101.23 426.62,-87.51 454.42,-77.62"/>
<polygon fill="#63b8ff" stroke="#63b8ff" points="455.88,-80.82 464.12,-74.17 453.53,-74.22 455.88,-80.82"/>
</a>
</g>
</g>
<!-- Node10 -->
<g id="Node000010" class="node">
<title>Node10</title>
<g id="a_Node000010"><a xlink:title=" ">
<polygon fill="#e0e0e0" stroke="#999999" points="193.5,-19 137.5,-19 137.5,0 193.5,0 193.5,-19"/>
<text text-anchor="middle" x="165.5" y="-7" font-family="Helvetica,sans-Serif" font-size="10.00">iomanip</text>
</a>
</g>
</g>
<!-- Node6&#45;&gt;Node10 -->
<g id="edge9_Node000006_Node000010" class="edge">
<title>Node6&#45;&gt;Node10</title>
<g id="a_edge9_Node000006_Node000010"><a xlink:title=" ">
<path fill="none" stroke="#63b8ff" d="M288.91,-115.12C256.49,-110.44 215.57,-99.47 188.5,-74 176.1,-62.33 170.37,-43.48 167.73,-29.34"/>
<polygon fill="#63b8ff" stroke="#63b8ff" points="171.16,-28.6 166.21,-19.24 164.24,-29.65 171.16,-28.6"/>
</a>
</g>
</g>
<!-- Node11 -->
<g id="Node000011" class="node">
<title>Node11</title>
<g id="a_Node000011"><a xlink:title=" ">
<polygon fill="#e0e0e0" stroke="#999999" points="373.5,-74 329.5,-74 329.5,-55 373.5,-55 373.5,-74"/>
<text text-anchor="middle" x="351.5" y="-62" font-family="Helvetica,sans-Serif" font-size="10.00">limits</text>
</a>
</g>
</g>
<!-- Node6&#45;&gt;Node11 -->
<g id="edge10_Node000006_Node000011" class="edge">
<title>Node6&#45;&gt;Node11</title>
<g id="a_edge10_Node000006_Node000011"><a xlink:title=" ">
<path fill="none" stroke="#63b8ff" d="M341.48,-109.75C343.07,-102.72 345.36,-92.62 347.35,-83.84"/>
<polygon fill="#63b8ff" stroke="#63b8ff" points="350.76,-84.62 349.56,-74.09 343.93,-83.07 350.76,-84.62"/>
</a>
</g>
</g>
<!-- Node12 -->
<g id="Node000012" class="node">
<title>Node12</title>
<g id="a_Node000012"><a xlink:title=" ">
<polygon fill="#e0e0e0" stroke="#999999" points="587.5,-74 531.5,-74 531.5,-55 587.5,-55 587.5,-74"/>
<text text-anchor="middle" x="559.5" y="-62" font-family="Helvetica,sans-Serif" font-size="10.00">sstream</text>
</a>
</g>
</g>
<!-- Node6&#45;&gt;Node12 -->
<g id="edge11_Node000006_Node000012" class="edge">
<title>Node6&#45;&gt;Node12</title>
<g id="a_edge11_Node000006_Node000012"><a xlink:title=" ">
<path fill="none" stroke="#63b8ff" d="M374.85,-109.98C414.93,-100.33 480.06,-84.64 521.3,-74.7"/>
<polygon fill="#63b8ff" stroke="#63b8ff" points="522.33,-78.05 531.23,-72.31 520.69,-71.25 522.33,-78.05"/>
</a>
</g>
</g>
<!-- Node13 -->
<g id="Node000013" class="node">
<title>Node13</title>
<g id="a_Node000013"><a xlink:href="log_8hpp.html" target="_top" xlink:title=" ">
<polygon fill="white" stroke="#666666" points="251,-74 198,-74 198,-55 251,-55 251,-74"/>
<text text-anchor="middle" x="224.5" y="-62" font-family="Helvetica,sans-Serif" font-size="10.00">log.hpp</text>
</a>
</g>
</g>
<!-- Node6&#45;&gt;Node13 -->
<g id="edge12_Node000006_Node000013" class="edge">
<title>Node6&#45;&gt;Node13</title>
<g id="a_edge12_Node000006_Node000013"><a xlink:title=" ">
<path fill="none" stroke="#63b8ff" d="M321.02,-109.98C302.52,-101.46 273.82,-88.23 252.52,-78.41"/>
<polygon fill="#63b8ff" stroke="#63b8ff" points="253.86,-75.18 243.31,-74.17 250.93,-81.53 253.86,-75.18"/>
</a>
</g>
</g>
<!-- Node13&#45;&gt;Node4 -->
<g id="edge18_Node000013_Node000004" class="edge">
<title>Node13&#45;&gt;Node4</title>
<g id="a_edge18_Node000013_Node000004"><a xlink:title=" ">
<path fill="none" stroke="#63b8ff" d="M204.1,-54.98C183.48,-46.38 151.39,-32.99 127.81,-23.15"/>
<polygon fill="#63b8ff" stroke="#63b8ff" points="128.85,-19.79 118.28,-19.17 126.16,-26.25 128.85,-19.79"/>
</a>
</g>
</g>
<!-- Node13&#45;&gt;Node10 -->
<g id="edge15_Node000013_Node000010" class="edge">
<title>Node13&#45;&gt;Node10</title>
<g id="a_edge15_Node000013_Node000010"><a xlink:title=" ">
<path fill="none" stroke="#63b8ff" d="M215.02,-54.98C206.3,-47.15 193.16,-35.34 182.6,-25.86"/>
<polygon fill="#63b8ff" stroke="#63b8ff" points="184.93,-23.25 175.15,-19.17 180.25,-28.46 184.93,-23.25"/>
</a>
</g>
</g>
<!-- Node14 -->
<g id="Node000014" class="node">
<title>Node14</title>
<g id="a_Node000014"><a xlink:title=" ">
<polygon fill="#e0e0e0" stroke="#999999" points="261.5,-19 211.5,-19 211.5,0 261.5,0 261.5,-19"/>
<text text-anchor="middle" x="236.5" y="-7" font-family="Helvetica,sans-Serif" font-size="10.00">chrono</text>
</a>
</g>
</g>
<!-- Node13&#45;&gt;Node14 -->
<g id="edge13_Node000013_Node000014" class="edge">
<title>Node13&#45;&gt;Node14</title>
<g id="a_edge13_Node000013_Node000014"><a xlink:title=" ">
<path fill="none" stroke="#63b8ff" d="M226.48,-54.75C228.07,-47.72 230.36,-37.62 232.35,-28.84"/>
<polygon fill="#63b8ff" stroke="#63b8ff" points="235.76,-29.62 234.56,-19.09 228.93,-28.07 235.76,-29.62"/>
</a>
</g>
</g>
<!-- Node15 -->
<g id="Node000015" class="node">
<title>Node15</title>
<g id="a_Node000015"><a xlink:title=" ">
<polygon fill="#e0e0e0" stroke="#999999" points="333,-19 280,-19 280,0 333,0 333,-19"/>
<text text-anchor="middle" x="306.5" y="-7" font-family="Helvetica,sans-Serif" font-size="10.00">cstdarg</text>
</a>
</g>
</g>
<!-- Node13&#45;&gt;Node15 -->
<g id="edge14_Node000013_Node000015" class="edge">
<title>Node13&#45;&gt;Node15</title>
<g id="a_edge14_Node000013_Node000015"><a xlink:title=" ">
<path fill="none" stroke="#63b8ff" d="M237.67,-54.98C250.27,-46.84 269.5,-34.41 284.44,-24.76"/>
<polygon fill="#63b8ff" stroke="#63b8ff" points="286.59,-27.54 293.09,-19.17 282.79,-21.66 286.59,-27.54"/>
</a>
</g>
</g>
<!-- Node16 -->
<g id="Node000016" class="node">
<title>Node16</title>
<g id="a_Node000016"><a xlink:title=" ">
<polygon fill="#e0e0e0" stroke="#999999" points="561.5,-19 501.5,-19 501.5,0 561.5,0 561.5,-19"/>
<text text-anchor="middle" x="531.5" y="-7" font-family="Helvetica,sans-Serif" font-size="10.00">iostream</text>
</a>
</g>
</g>
<!-- Node13&#45;&gt;Node16 -->
<g id="edge16_Node000013_Node000016" class="edge">
<title>Node13&#45;&gt;Node16</title>
<g id="a_edge16_Node000013_Node000016"><a xlink:title=" ">
<path fill="none" stroke="#63b8ff" d="M251.19,-56.98C254.32,-56.28 257.48,-55.6 260.5,-55 342.03,-38.7 438.22,-23.96 491.28,-16.22"/>
<polygon fill="#63b8ff" stroke="#63b8ff" points="491.91,-19.66 501.3,-14.76 490.9,-12.73 491.91,-19.66"/>
</a>
</g>
</g>
<!-- Node17 -->
<g id="Node000017" class="node">
<title>Node17</title>
<g id="a_Node000017"><a xlink:title=" ">
<polygon fill="#e0e0e0" stroke="#999999" points="399.5,-19 351.5,-19 351.5,0 399.5,0 399.5,-19"/>
<text text-anchor="middle" x="375.5" y="-7" font-family="Helvetica,sans-Serif" font-size="10.00">mutex</text>
</a>
</g>
</g>
<!-- Node13&#45;&gt;Node17 -->
<g id="edge17_Node000013_Node000017" class="edge">
<title>Node13&#45;&gt;Node17</title>
<g id="a_edge17_Node000013_Node000017"><a xlink:title=" ">
<path fill="none" stroke="#63b8ff" d="M248.76,-54.98C273.97,-46.14 313.6,-32.23 341.83,-22.32"/>
<polygon fill="#63b8ff" stroke="#63b8ff" points="343.02,-25.61 351.3,-18.99 340.7,-19 343.02,-25.61"/>
</a>
</g>
</g>
<!-- Node18&#45;&gt;Node4 -->
<g id="edge27_Node000018_Node000004" class="edge">
<title>Node18&#45;&gt;Node4</title>
<g id="a_edge27_Node000018_Node000004"><a xlink:title=" ">
<path fill="none" stroke="#63b8ff" d="M536.38,-171.02C471.36,-166.99 366.12,-156.45 279.5,-129 228.53,-112.85 216.97,-103.69 172.5,-74 150.91,-59.59 128.49,-39.88 113.86,-26.26"/>
<polygon fill="#63b8ff" stroke="#63b8ff" points="115.88,-23.35 106.2,-19.03 111.07,-28.44 115.88,-23.35"/>
</a>
</g>
</g>
<!-- Node18&#45;&gt;Node5 -->
<g id="edge28_Node000018_Node000005" class="edge">
<title>Node18&#45;&gt;Node5</title>
<g id="a_edge28_Node000018_Node000005"><a xlink:title=" ">
<path fill="none" stroke="#63b8ff" d="M570.83,-164.98C541.97,-155.77 495.9,-141.06 464.71,-131.1"/>
<polygon fill="#63b8ff" stroke="#63b8ff" points="465.74,-127.76 455.15,-128.05 463.61,-134.43 465.74,-127.76"/>
</a>
</g>
</g>
<!-- Node18&#45;&gt;Node6 -->
<g id="edge33_Node000018_Node000006" class="edge">
<title>Node18&#45;&gt;Node6</title>
<g id="a_edge33_Node000018_Node000006"><a xlink:title=" ">
<path fill="none" stroke="#63b8ff" d="M556.05,-164.98C511.23,-155.78 439.73,-141.09 391.25,-131.13"/>
<polygon fill="#63b8ff" stroke="#63b8ff" points="391.78,-127.67 381.28,-129.08 390.37,-134.52 391.78,-127.67"/>
</a>
</g>
</g>
<!-- Node18&#45;&gt;Node8 -->
<g id="edge20_Node000018_Node000008" class="edge">
<title>Node18&#45;&gt;Node8</title>
<g id="a_edge20_Node000018_Node000008"><a xlink:title=" ">
<path fill="none" stroke="#63b8ff" d="M583.15,-164.84C552.26,-146.2 479.19,-102.11 441.65,-79.46"/>
<polygon fill="#63b8ff" stroke="#63b8ff" points="443.28,-76.37 432.91,-74.2 439.67,-82.36 443.28,-76.37"/>
</a>
</g>
</g>
<!-- Node18&#45;&gt;Node9 -->
<g id="edge21_Node000018_Node000009" class="edge">
<title>Node18&#45;&gt;Node9</title>
<g id="a_edge21_Node000018_Node000009"><a xlink:title=" ">
<path fill="none" stroke="#63b8ff" d="M588.58,-164.66C570.21,-146.46 527.91,-104.55 504.62,-81.47"/>
<polygon fill="#63b8ff" stroke="#63b8ff" points="506.81,-78.71 497.24,-74.16 501.88,-83.68 506.81,-78.71"/>
</a>
</g>
</g>
<!-- Node18&#45;&gt;Node12 -->
<g id="edge26_Node000018_Node000012" class="edge">
<title>Node18&#45;&gt;Node12</title>
<g id="a_edge26_Node000018_Node000012"><a xlink:title=" ">
<path fill="none" stroke="#63b8ff" d="M594.39,-164.66C588.18,-147.01 574.13,-107.09 565.88,-83.64"/>
<polygon fill="#63b8ff" stroke="#63b8ff" points="569.17,-82.43 562.55,-74.16 562.56,-84.75 569.17,-82.43"/>
</a>
</g>
</g>
<!-- Node18&#45;&gt;Node16 -->
<g id="edge22_Node000018_Node000016" class="edge">
<title>Node18&#45;&gt;Node16</title>
<g id="a_edge22_Node000018_Node000016"><a xlink:title=" ">
<path fill="none" stroke="#63b8ff" d="M599.99,-164.8C605.37,-144.25 616.04,-91.68 596.5,-55 589.2,-41.3 575.61,-31.01 562.73,-23.79"/>
<polygon fill="#63b8ff" stroke="#63b8ff" points="564.07,-20.54 553.58,-19.07 560.86,-26.76 564.07,-20.54"/>
</a>
</g>
</g>
<!-- Node19 -->
<g id="Node000019" class="node">
<title>Node19</title>
<g id="a_Node000019"><a xlink:title=" ">
<polygon fill="#e0e0e0" stroke="#999999" points="683.5,-129 625.5,-129 625.5,-110 683.5,-110 683.5,-129"/>
<text text-anchor="middle" x="654.5" y="-117" font-family="Helvetica,sans-Serif" font-size="10.00">memory</text>
</a>
</g>
</g>
<!-- Node18&#45;&gt;Node19 -->
<g id="edge23_Node000018_Node000019" class="edge">
<title>Node18&#45;&gt;Node19</title>
<g id="a_edge23_Node000018_Node000019"><a xlink:title=" ">
<path fill="none" stroke="#63b8ff" d="M606.66,-164.98C615,-157.23 627.53,-145.58 637.68,-136.14"/>
<polygon fill="#63b8ff" stroke="#63b8ff" points="640.24,-138.54 645.18,-129.17 635.47,-133.42 640.24,-138.54"/>
</a>
</g>
</g>
<!-- Node20 -->
<g id="Node000020" class="node">
<title>Node20</title>
<g id="a_Node000020"><a xlink:title=" ">
<polygon fill="#e0e0e0" stroke="#999999" points="749,-129 702,-129 702,-110 749,-110 749,-129"/>
<text text-anchor="middle" x="725.5" y="-117" font-family="Helvetica,sans-Serif" font-size="10.00">queue</text>
</a>
</g>
</g>
<!-- Node18&#45;&gt;Node20 -->
<g id="edge24_Node000018_Node000020" class="edge">
<title>Node18&#45;&gt;Node20</title>
<g id="a_edge24_Node000018_Node000020"><a xlink:title=" ">
<path fill="none" stroke="#63b8ff" d="M618.07,-164.98C638.93,-156.34 671.47,-142.87 695.27,-133.02"/>
<polygon fill="#63b8ff" stroke="#63b8ff" points="696.66,-136.23 704.56,-129.17 693.98,-129.76 696.66,-136.23"/>
</a>
</g>
</g>
<!-- Node21 -->
<g id="Node000021" class="node">
<title>Node21</title>
<g id="a_Node000021"><a xlink:title=" ">
<polygon fill="#e0e0e0" stroke="#999999" points="838,-129 767,-129 767,-110 838,-110 838,-129"/>
<text text-anchor="middle" x="802.5" y="-117" font-family="Helvetica,sans-Serif" font-size="10.00">semaphore</text>
</a>
</g>
</g>
<!-- Node18&#45;&gt;Node21 -->
<g id="edge25_Node000018_Node000021" class="edge">
<title>Node18&#45;&gt;Node21</title>
<g id="a_edge25_Node000018_Node000021"><a xlink:title=" ">
<path fill="none" stroke="#63b8ff" d="M630.44,-164.98C665.45,-155.93 720.97,-141.58 759.43,-131.64"/>
<polygon fill="#63b8ff" stroke="#63b8ff" points="760.5,-134.97 769.31,-129.08 758.75,-128.2 760.5,-134.97"/>
</a>
</g>
</g>
<!-- Node22 -->
<g id="Node000022" class="node">
<title>Node22</title>
<g id="a_Node000022"><a xlink:title=" ">
<polygon fill="#e0e0e0" stroke="#999999" points="920.5,-129 856.5,-129 856.5,-110 920.5,-110 920.5,-129"/>
<text text-anchor="middle" x="888.5" y="-117" font-family="Helvetica,sans-Serif" font-size="10.00">algorithm</text>
</a>
</g>
</g>
<!-- Node18&#45;&gt;Node22 -->
<g id="edge29_Node000018_Node000022" class="edge">
<title>Node18&#45;&gt;Node22</title>
<g id="a_edge29_Node000018_Node000022"><a xlink:title=" ">
<path fill="none" stroke="#63b8ff" d="M647.86,-164.97C696.23,-156.67 771.63,-143.49 846.25,-129.2"/>
<polygon fill="#63b8ff" stroke="#63b8ff" points="847.13,-132.59 856.29,-127.27 845.81,-125.72 847.13,-132.59"/>
</a>
</g>
</g>
<!-- Node23 -->
<g id="Node000023" class="node">
<title>Node23</title>
<g id="a_Node000023"><a xlink:title=" ">
<polygon fill="#e0e0e0" stroke="#999999" points="1032,-129 939,-129 939,-110 1032,-110 1032,-129"/>
<text text-anchor="middle" x="985.5" y="-117" font-family="Helvetica,sans-Serif" font-size="10.00">unordered_map</text>
</a>
</g>
</g>
<!-- Node18&#45;&gt;Node23 -->
<g id="edge30_Node000018_Node000023" class="edge">
<title>Node18&#45;&gt;Node23</title>
<g id="a_edge30_Node000018_Node000023"><a xlink:title=" ">
<path fill="none" stroke="#63b8ff" d="M658.73,-165.62C723.24,-157.24 828.06,-143.42 928.72,-129.09"/>
<polygon fill="#63b8ff" stroke="#63b8ff" points="929.35,-132.53 938.76,-127.66 928.36,-125.6 929.35,-132.53"/>
</a>
</g>
</g>
<!-- Node24 -->
<g id="Node000024" class="node">
<title>Node24</title>
<g id="a_Node000024"><a xlink:title=" ">
<polygon fill="#e0e0e0" stroke="#999999" points="1177,-129 1050,-129 1050,-110 1177,-110 1177,-129"/>
<text text-anchor="middle" x="1113.5" y="-117" font-family="Helvetica,sans-Serif" font-size="10.00">../utils/parameters.hpp</text>
</a>
</g>
</g>
<!-- Node18&#45;&gt;Node24 -->
<g id="edge31_Node000018_Node000024" class="edge">
<title>Node18&#45;&gt;Node24</title>
<g id="a_edge31_Node000018_Node000024"><a xlink:title=" ">
<path fill="none" stroke="#63b8ff" d="M658.58,-167.72C742.21,-159.73 897.32,-144.65 1039.68,-129.18"/>
<polygon fill="#63b8ff" stroke="#63b8ff" points="1040.34,-132.63 1049.9,-128.07 1039.58,-125.67 1040.34,-132.63"/>
</a>
</g>
</g>
<!-- Node25 -->
<g id="Node000025" class="node">
<title>Node25</title>
<g id="a_Node000025"><a xlink:title=" ">
<polygon fill="#e0e0e0" stroke="#999999" points="1313.5,-129 1195.5,-129 1195.5,-110 1313.5,-110 1313.5,-129"/>
<text text-anchor="middle" x="1254.5" y="-117" font-family="Helvetica,sans-Serif" font-size="10.00">../utils/constants.hpp</text>
</a>
</g>
</g>
<!-- Node18&#45;&gt;Node25 -->
<g id="edge32_Node000018_Node000025" class="edge">
<title>Node18&#45;&gt;Node25</title>
<g id="a_edge32_Node000018_Node000025"><a xlink:title=" ">
<path fill="none" stroke="#63b8ff" d="M658.64,-169.87C763.95,-163.4 986.61,-148.77 1185.15,-129.09"/>
<polygon fill="#63b8ff" stroke="#63b8ff" points="1185.58,-132.56 1195.18,-128.09 1184.88,-125.6 1185.58,-132.56"/>
</a>
</g>
</g>
</g>
</svg>
