<?xml version="1.0" encoding="UTF-8" standalone="no"?>
<!DOCTYPE svg PUBLIC "-//W3C//DTD SVG 1.1//EN"
 "http://www.w3.org/Graphics/SVG/1.1/DTD/svg11.dtd">
<!-- Generated by graphviz version 2.43.0 (0)
 -->
<!-- Title: src/lib/bitstreamGeneration/bitstreamGeneration.cpp Pages: 1 -->
<svg width="1463pt" height="313pt"
 viewBox="0.00 0.00 1463.00 313.00" xmlns="http://www.w3.org/2000/svg" xmlns:xlink="http://www.w3.org/1999/xlink">
<g id="graph0" class="graph" transform="scale(1 1) rotate(0) translate(4 309)">
<title>src/lib/bitstreamGeneration/bitstreamGeneration.cpp</title>
<!-- Node1 -->
<g id="Node000001" class="node">
<title>Node1</title>
<g id="a_Node000001"><a xlink:title=" ">
<polygon fill="#999999" stroke="#666666" points="684,-305 534,-305 534,-275 684,-275 684,-305"/>
<text text-anchor="start" x="542" y="-293" font-family="Helvetica,sans-Serif" font-size="10.00">src/lib/bitstreamGeneration</text>
<text text-anchor="middle" x="609" y="-282" font-family="Helvetica,sans-Serif" font-size="10.00">/bitstreamGeneration.cpp</text>
</a>
</g>
</g>
<!-- Node2 -->
<g id="Node000002" class="node">
<title>Node2</title>
<g id="a_Node000002"><a xlink:href="bitstreamGeneration_8hpp.html" target="_top" xlink:title=" ">
<polygon fill="white" stroke="#666666" points="449.5,-184 310.5,-184 310.5,-165 449.5,-165 449.5,-184"/>
<text text-anchor="middle" x="380" y="-172" font-family="Helvetica,sans-Serif" font-size="10.00">bitstreamGeneration.hpp</text>
</a>
</g>
</g>
<!-- Node1&#45;&gt;Node2 -->
<g id="edge1_Node000001_Node000002" class="edge">
<title>Node1&#45;&gt;Node2</title>
<g id="a_edge1_Node000001_Node000002"><a xlink:title=" ">
<path fill="none" stroke="#63b8ff" d="M555.31,-274.91C527.22,-266.45 492.79,-254.34 464,-239 439,-225.67 413.48,-205.21 397.24,-191.13"/>
<polygon fill="#63b8ff" stroke="#63b8ff" points="399.45,-188.42 389.64,-184.43 394.82,-193.67 399.45,-188.42"/>
</a>
</g>
</g>
<!-- Node3 -->
<g id="Node000003" class="node">
<title>Node3</title>
<g id="a_Node000003"><a xlink:href="parameters_8hpp.html" target="_top" xlink:title=" ">
<polygon fill="white" stroke="#666666" points="488,-129 370,-129 370,-110 488,-110 488,-129"/>
<text text-anchor="middle" x="429" y="-117" font-family="Helvetica,sans-Serif" font-size="10.00">utils/parameters.hpp</text>
</a>
</g>
</g>
<!-- Node1&#45;&gt;Node3 -->
<g id="edge62_Node000001_Node000003" class="edge">
<title>Node1&#45;&gt;Node3</title>
<g id="a_edge62_Node000001_Node000003"><a xlink:title=" ">
<path fill="none" stroke="#63b8ff" d="M564.08,-274.92C543.46,-266.83 519.71,-255.03 502,-239 473.63,-213.32 478.23,-197.48 458,-165 452.33,-155.9 445.83,-145.89 440.42,-137.67"/>
<polygon fill="#63b8ff" stroke="#63b8ff" points="443.32,-135.71 434.89,-129.3 437.48,-139.57 443.32,-135.71"/>
</a>
</g>
</g>
<!-- Node5 -->
<g id="Node000005" class="node">
<title>Node5</title>
<g id="a_Node000005"><a xlink:title=" ">
<polygon fill="#e0e0e0" stroke="#999999" points="998,-19 954,-19 954,0 998,0 998,-19"/>
<text text-anchor="middle" x="976" y="-7" font-family="Helvetica,sans-Serif" font-size="10.00">string</text>
</a>
</g>
</g>
<!-- Node1&#45;&gt;Node5 -->
<g id="edge28_Node000001_Node000005" class="edge">
<title>Node1&#45;&gt;Node5</title>
<g id="a_edge28_Node000001_Node000005"><a xlink:title=" ">
<path fill="none" stroke="#63b8ff" d="M684.18,-288.52C786.32,-286.36 973.96,-276.96 1129,-239 1202.11,-221.1 1286,-250.77 1286,-175.5 1286,-175.5 1286,-175.5 1286,-118.5 1286,-86.06 1276.63,-73.53 1250,-55 1211.39,-28.13 1072.35,-16.36 1008.48,-12.29"/>
<polygon fill="#63b8ff" stroke="#63b8ff" points="1008.39,-8.78 998.19,-11.66 1007.96,-15.77 1008.39,-8.78"/>
</a>
</g>
</g>
<!-- Node6 -->
<g id="Node000006" class="node">
<title>Node6</title>
<g id="a_Node000006"><a xlink:title=" ">
<polygon fill="#e0e0e0" stroke="#999999" points="465.5,-19 418.5,-19 418.5,0 465.5,0 465.5,-19"/>
<text text-anchor="middle" x="442" y="-7" font-family="Helvetica,sans-Serif" font-size="10.00">vector</text>
</a>
</g>
</g>
<!-- Node1&#45;&gt;Node6 -->
<g id="edge30_Node000001_Node000006" class="edge">
<title>Node1&#45;&gt;Node6</title>
<g id="a_edge30_Node000001_Node000006"><a xlink:title=" ">
<path fill="none" stroke="#63b8ff" d="M533.98,-278.3C437.44,-262.39 282,-228.53 282,-175.5 282,-175.5 282,-175.5 282,-118.5 282,-89.04 280.33,-75.99 301,-55 308.73,-47.16 369.43,-29.84 408.62,-19.27"/>
<polygon fill="#63b8ff" stroke="#63b8ff" points="409.57,-22.64 418.32,-16.67 407.76,-15.88 409.57,-22.64"/>
</a>
</g>
</g>
<!-- Node9 -->
<g id="Node000009" class="node">
<title>Node9</title>
<g id="a_Node000009"><a xlink:title=" ">
<polygon fill="#e0e0e0" stroke="#999999" points="817,-19 767,-19 767,0 817,0 817,-19"/>
<text text-anchor="middle" x="792" y="-7" font-family="Helvetica,sans-Serif" font-size="10.00">cstdint</text>
</a>
</g>
</g>
<!-- Node1&#45;&gt;Node9 -->
<g id="edge26_Node000001_Node000009" class="edge">
<title>Node1&#45;&gt;Node9</title>
<g id="a_edge26_Node000001_Node000009"><a xlink:title=" ">
<path fill="none" stroke="#63b8ff" d="M684.18,-283.43C853.09,-269.89 1248,-232.19 1248,-175.5 1248,-175.5 1248,-175.5 1248,-118.5 1248,-89.04 1251.71,-73.77 1229,-55 1213.55,-42.23 928.56,-20.41 827.32,-13.03"/>
<polygon fill="#63b8ff" stroke="#63b8ff" points="827.51,-9.53 817.28,-12.3 827,-16.51 827.51,-9.53"/>
</a>
</g>
</g>
<!-- Node11 -->
<g id="Node000011" class="node">
<title>Node11</title>
<g id="a_Node000011"><a xlink:title=" ">
<polygon fill="#e0e0e0" stroke="#999999" points="326,-19 270,-19 270,0 326,0 326,-19"/>
<text text-anchor="middle" x="298" y="-7" font-family="Helvetica,sans-Serif" font-size="10.00">sstream</text>
</a>
</g>
</g>
<!-- Node1&#45;&gt;Node11 -->
<g id="edge31_Node000001_Node000011" class="edge">
<title>Node1&#45;&gt;Node11</title>
<g id="a_edge31_Node000001_Node000011"><a xlink:title=" ">
<path fill="none" stroke="#63b8ff" d="M533.84,-286.71C398.56,-280.53 128,-257.87 128,-175.5 128,-175.5 128,-175.5 128,-118.5 128,-89.04 126.13,-75.79 147,-55 155.16,-46.87 218.07,-30.15 260.07,-19.68"/>
<polygon fill="#63b8ff" stroke="#63b8ff" points="261.12,-23.02 269.99,-17.22 259.44,-16.23 261.12,-23.02"/>
</a>
</g>
</g>
<!-- Node12 -->
<g id="Node000012" class="node">
<title>Node12</title>
<g id="a_Node000012"><a xlink:title=" ">
<polygon fill="#e0e0e0" stroke="#999999" points="400,-19 344,-19 344,0 400,0 400,-19"/>
<text text-anchor="middle" x="372" y="-7" font-family="Helvetica,sans-Serif" font-size="10.00">iomanip</text>
</a>
</g>
</g>
<!-- Node1&#45;&gt;Node12 -->
<g id="edge32_Node000001_Node000012" class="edge">
<title>Node1&#45;&gt;Node12</title>
<g id="a_edge32_Node000001_Node000012"><a xlink:title=" ">
<path fill="none" stroke="#63b8ff" d="M533.99,-286.86C473.45,-282.65 387.4,-270.92 319,-239 279.42,-220.53 244,-219.18 244,-175.5 244,-175.5 244,-175.5 244,-118.5 244,-69.92 298.52,-38.75 336.39,-22.96"/>
<polygon fill="#63b8ff" stroke="#63b8ff" points="338.1,-26.04 346.1,-19.09 335.51,-19.54 338.1,-26.04"/>
</a>
</g>
</g>
<!-- Node13 -->
<g id="Node000013" class="node">
<title>Node13</title>
<g id="a_Node000013"><a xlink:href="uvgvpcc_8hpp.html" target="_top" xlink:title=" ">
<polygon fill="white" stroke="#666666" points="592,-74 470,-74 470,-55 592,-55 592,-74"/>
<text text-anchor="middle" x="531" y="-62" font-family="Helvetica,sans-Serif" font-size="10.00">uvgvpcc/uvgvpcc.hpp</text>
</a>
</g>
</g>
<!-- Node1&#45;&gt;Node13 -->
<g id="edge70_Node000001_Node000013" class="edge">
<title>Node1&#45;&gt;Node13</title>
<g id="a_edge70_Node000001_Node000013"><a xlink:title=" ">
<path fill="none" stroke="#63b8ff" d="M578.45,-274.87C564.17,-266.56 548.48,-254.6 540,-239 512.69,-188.74 520.9,-117.73 527,-84.3"/>
<polygon fill="#63b8ff" stroke="#63b8ff" points="530.5,-84.62 529,-74.14 523.63,-83.27 530.5,-84.62"/>
</a>
</g>
</g>
<!-- Node14 -->
<g id="Node000014" class="node">
<title>Node14</title>
<g id="a_Node000014"><a xlink:title=" ">
<polygon fill="#e0e0e0" stroke="#999999" points="251.5,-19 198.5,-19 198.5,0 251.5,0 251.5,-19"/>
<text text-anchor="middle" x="225" y="-7" font-family="Helvetica,sans-Serif" font-size="10.00">cstddef</text>
</a>
</g>
</g>
<!-- Node1&#45;&gt;Node14 -->
<g id="edge25_Node000001_Node000014" class="edge">
<title>Node1&#45;&gt;Node14</title>
<g id="a_edge25_Node000001_Node000014"><a xlink:title=" ">
<path fill="none" stroke="#63b8ff" d="M533.88,-289.18C381.84,-287.52 52,-272.71 52,-175.5 52,-175.5 52,-175.5 52,-118.5 52,-85.56 143.42,-43.44 193.34,-22.89"/>
<polygon fill="#63b8ff" stroke="#63b8ff" points="194.79,-26.08 202.74,-19.08 192.16,-19.6 194.79,-26.08"/>
</a>
</g>
</g>
<!-- Node16 -->
<g id="Node000016" class="node">
<title>Node16</title>
<g id="a_Node000016"><a xlink:title=" ">
<polygon fill="#e0e0e0" stroke="#999999" points="58,-19 0,-19 0,0 58,0 58,-19"/>
<text text-anchor="middle" x="29" y="-7" font-family="Helvetica,sans-Serif" font-size="10.00">memory</text>
</a>
</g>
</g>
<!-- Node1&#45;&gt;Node16 -->
<g id="edge27_Node000001_Node000016" class="edge">
<title>Node1&#45;&gt;Node16</title>
<g id="a_edge27_Node000001_Node000016"><a xlink:title=" ">
<path fill="none" stroke="#63b8ff" d="M533.95,-288.11C407.25,-285.6 156.99,-275.96 78,-239 41.71,-222.02 14,-215.57 14,-175.5 14,-175.5 14,-175.5 14,-118.5 14,-86.89 20.38,-50.56 24.82,-29.13"/>
<polygon fill="#63b8ff" stroke="#63b8ff" points="28.29,-29.64 26.98,-19.12 21.45,-28.16 28.29,-29.64"/>
</a>
</g>
</g>
<!-- Node20 -->
<g id="Node000020" class="node">
<title>Node20</title>
<g id="a_Node000020"><a xlink:title=" ">
<polygon fill="#e0e0e0" stroke="#999999" points="718,-239 654,-239 654,-220 718,-220 718,-239"/>
<text text-anchor="middle" x="686" y="-227" font-family="Helvetica,sans-Serif" font-size="10.00">algorithm</text>
</a>
</g>
</g>
<!-- Node1&#45;&gt;Node20 -->
<g id="edge23_Node000001_Node000020" class="edge">
<title>Node1&#45;&gt;Node20</title>
<g id="a_edge23_Node000001_Node000020"><a xlink:title=" ">
<path fill="none" stroke="#63b8ff" d="M627.64,-274.84C639.39,-265.91 654.53,-254.41 666.45,-245.35"/>
<polygon fill="#63b8ff" stroke="#63b8ff" points="668.62,-248.1 674.46,-239.27 664.38,-242.53 668.62,-248.1"/>
</a>
</g>
</g>
<!-- Node21 -->
<g id="Node000021" class="node">
<title>Node21</title>
<g id="a_Node000021"><a xlink:title=" ">
<polygon fill="#e0e0e0" stroke="#999999" points="1061.5,-74 1014.5,-74 1014.5,-55 1061.5,-55 1061.5,-74"/>
<text text-anchor="middle" x="1038" y="-62" font-family="Helvetica,sans-Serif" font-size="10.00">cmath</text>
</a>
</g>
</g>
<!-- Node1&#45;&gt;Node21 -->
<g id="edge24_Node000001_Node000021" class="edge">
<title>Node1&#45;&gt;Node21</title>
<g id="a_edge24_Node000001_Node000021"><a xlink:title=" ">
<path fill="none" stroke="#63b8ff" d="M684.08,-279.99C731.69,-272.62 793.91,-259.93 846,-239 931.94,-204.47 968.93,-204.2 1023,-129 1032.4,-115.92 1035.99,-97.78 1037.32,-84.24"/>
<polygon fill="#63b8ff" stroke="#63b8ff" points="1040.82,-84.36 1037.98,-74.15 1033.83,-83.9 1040.82,-84.36"/>
</a>
</g>
</g>
<!-- Node22 -->
<g id="Node000022" class="node">
<title>Node22</title>
<g id="a_Node000022"><a xlink:title=" ">
<polygon fill="#e0e0e0" stroke="#999999" points="819.5,-239 774.5,-239 774.5,-220 819.5,-220 819.5,-239"/>
<text text-anchor="middle" x="797" y="-227" font-family="Helvetica,sans-Serif" font-size="10.00">utility</text>
</a>
</g>
</g>
<!-- Node1&#45;&gt;Node22 -->
<g id="edge29_Node000001_Node000022" class="edge">
<title>Node1&#45;&gt;Node22</title>
<g id="a_edge29_Node000001_Node000022"><a xlink:title=" ">
<path fill="none" stroke="#63b8ff" d="M654.03,-274.99C688.09,-264.39 734.05,-250.09 764.57,-240.59"/>
<polygon fill="#63b8ff" stroke="#63b8ff" points="765.77,-243.88 774.28,-237.57 763.69,-237.2 765.77,-243.88"/>
</a>
</g>
</g>
<!-- Node23 -->
<g id="Node000023" class="node">
<title>Node23</title>
<g id="a_Node000023"><a xlink:href="atlas__context_8hpp.html" target="_top" xlink:title=" ">
<polygon fill="white" stroke="#666666" points="762,-184 658,-184 658,-165 762,-165 762,-184"/>
<text text-anchor="middle" x="710" y="-172" font-family="Helvetica,sans-Serif" font-size="10.00">atlas_context.hpp</text>
</a>
</g>
</g>
<!-- Node1&#45;&gt;Node23 -->
<g id="edge33_Node000001_Node000023" class="edge">
<title>Node1&#45;&gt;Node23</title>
<g id="a_edge33_Node000001_Node000023"><a xlink:title=" ">
<path fill="none" stroke="#63b8ff" d="M677.7,-274.98C696.88,-267.57 715.57,-256.25 727,-239 736.23,-225.07 729.34,-206.29 721.74,-192.78"/>
<polygon fill="#63b8ff" stroke="#63b8ff" points="724.56,-190.67 716.32,-184.01 718.6,-194.35 724.56,-190.67"/>
</a>
</g>
</g>
<!-- Node25 -->
<g id="Node000025" class="node">
<title>Node25</title>
<g id="a_Node000025"><a xlink:href="bitstream__common_8hpp.html" target="_top" xlink:title=" ">
<polygon fill="white" stroke="#666666" points="781.5,-74 648.5,-74 648.5,-55 781.5,-55 781.5,-74"/>
<text text-anchor="middle" x="715" y="-62" font-family="Helvetica,sans-Serif" font-size="10.00">bitstream_common.hpp</text>
</a>
</g>
</g>
<!-- Node1&#45;&gt;Node25 -->
<g id="edge47_Node000001_Node000025" class="edge">
<title>Node1&#45;&gt;Node25</title>
<g id="a_edge47_Node000001_Node000025"><a xlink:title=" ">
<path fill="none" stroke="#63b8ff" d="M593.93,-274.85C581.27,-261.16 566.38,-239.66 574,-220 598.24,-157.48 660.86,-104.78 693.89,-80.25"/>
<polygon fill="#63b8ff" stroke="#63b8ff" points="696.33,-82.8 702.37,-74.09 692.22,-77.14 696.33,-82.8"/>
</a>
</g>
</g>
<!-- Node29 -->
<g id="Node000029" class="node">
<title>Node29</title>
<g id="a_Node000029"><a xlink:href="gof_8hpp.html" target="_top" xlink:title=" ">
<polygon fill="white" stroke="#666666" points="635.5,-239 582.5,-239 582.5,-220 635.5,-220 635.5,-239"/>
<text text-anchor="middle" x="609" y="-227" font-family="Helvetica,sans-Serif" font-size="10.00">gof.hpp</text>
</a>
</g>
</g>
<!-- Node1&#45;&gt;Node29 -->
<g id="edge48_Node000001_Node000029" class="edge">
<title>Node1&#45;&gt;Node29</title>
<g id="a_edge48_Node000001_Node000029"><a xlink:title=" ">
<path fill="none" stroke="#63b8ff" d="M609,-274.84C609,-267.21 609,-257.7 609,-249.45"/>
<polygon fill="#63b8ff" stroke="#63b8ff" points="612.5,-249.27 609,-239.27 605.5,-249.27 612.5,-249.27"/>
</a>
</g>
</g>
<!-- Node30 -->
<g id="Node000030" class="node">
<title>Node30</title>
<g id="a_Node000030"><a xlink:href="video__sub__bitstream_8hpp.html" target="_top" xlink:title=" ">
<polygon fill="white" stroke="#666666" points="1220,-74 1080,-74 1080,-55 1220,-55 1220,-74"/>
<text text-anchor="middle" x="1150" y="-62" font-family="Helvetica,sans-Serif" font-size="10.00">video_sub_bitstream.hpp</text>
</a>
</g>
</g>
<!-- Node1&#45;&gt;Node30 -->
<g id="edge71_Node000001_Node000030" class="edge">
<title>Node1&#45;&gt;Node30</title>
<g id="a_edge71_Node000001_Node000030"><a xlink:title=" ">
<path fill="none" stroke="#63b8ff" d="M684.21,-281.02C740.28,-273.72 818.21,-260.67 884,-239 936.67,-221.65 948.9,-213.28 996,-184 1048.45,-151.4 1104.63,-104.83 1132.39,-80.94"/>
<polygon fill="#63b8ff" stroke="#63b8ff" points="1134.8,-83.49 1140.06,-74.29 1130.21,-78.2 1134.8,-83.49"/>
</a>
</g>
</g>
<!-- Node31 -->
<g id="Node000031" class="node">
<title>Node31</title>
<g id="a_Node000031"><a xlink:href="vps_8hpp.html" target="_top" xlink:title=" ">
<polygon fill="white" stroke="#666666" points="855.5,-184 800.5,-184 800.5,-165 855.5,-165 855.5,-184"/>
<text text-anchor="middle" x="828" y="-172" font-family="Helvetica,sans-Serif" font-size="10.00">vps.hpp</text>
</a>
</g>
</g>
<!-- Node1&#45;&gt;Node31 -->
<g id="edge72_Node000001_Node000031" class="edge">
<title>Node1&#45;&gt;Node31</title>
<g id="a_edge72_Node000001_Node000031"><a xlink:title=" ">
<path fill="none" stroke="#63b8ff" d="M684.06,-281.87C740.45,-274.78 810.95,-261.61 829,-239 838.88,-226.63 837.36,-208.15 834.12,-194.32"/>
<polygon fill="#63b8ff" stroke="#63b8ff" points="837.41,-193.1 831.34,-184.42 830.68,-194.99 837.41,-193.1"/>
</a>
</g>
</g>
<!-- Node32 -->
<g id="Node000032" class="node">
<title>Node32</title>
<g id="a_Node000032"><a xlink:href="log_8hpp.html" target="_top" xlink:title=" ">
<polygon fill="white" stroke="#666666" points="1410,-74 1314,-74 1314,-55 1410,-55 1410,-74"/>
<text text-anchor="middle" x="1362" y="-62" font-family="Helvetica,sans-Serif" font-size="10.00">uvgvpcc/log.hpp</text>
</a>
</g>
</g>
<!-- Node1&#45;&gt;Node32 -->
<g id="edge63_Node000001_Node000032" class="edge">
<title>Node1&#45;&gt;Node32</title>
<g id="a_edge63_Node000001_Node000032"><a xlink:title=" ">
<path fill="none" stroke="#63b8ff" d="M684,-288.14C852.85,-285.55 1251.85,-275.6 1300,-239 1349.41,-201.45 1359.54,-121.17 1361.55,-84.49"/>
<polygon fill="#63b8ff" stroke="#63b8ff" points="1365.05,-84.35 1361.95,-74.22 1358.06,-84.08 1365.05,-84.35"/>
</a>
</g>
</g>
<!-- Node2&#45;&gt;Node3 -->
<g id="edge2_Node000002_Node000003" class="edge">
<title>Node2&#45;&gt;Node3</title>
<g id="a_edge2_Node000002_Node000003"><a xlink:title=" ">
<path fill="none" stroke="#63b8ff" d="M388.09,-164.75C395.16,-157.11 405.59,-145.82 414.15,-136.56"/>
<polygon fill="#63b8ff" stroke="#63b8ff" points="416.84,-138.81 421.06,-129.09 411.7,-134.06 416.84,-138.81"/>
</a>
</g>
</g>
<!-- Node2&#45;&gt;Node13 -->
<g id="edge12_Node000002_Node000013" class="edge">
<title>Node2&#45;&gt;Node13</title>
<g id="a_edge12_Node000002_Node000013"><a xlink:title=" ">
<path fill="none" stroke="#63b8ff" d="M372.95,-164.81C363.2,-151.68 348.2,-126.58 361,-110 373.4,-93.94 418.82,-82.55 459.59,-75.32"/>
<polygon fill="#63b8ff" stroke="#63b8ff" points="460.29,-78.75 469.56,-73.62 459.12,-71.85 460.29,-78.75"/>
</a>
</g>
</g>
<!-- Node4 -->
<g id="Node000004" class="node">
<title>Node4</title>
<g id="a_Node000004"><a xlink:title=" ">
<polygon fill="#e0e0e0" stroke="#999999" points="375.5,-74 310.5,-74 310.5,-55 375.5,-55 375.5,-74"/>
<text text-anchor="middle" x="343" y="-62" font-family="Helvetica,sans-Serif" font-size="10.00">stdexcept</text>
</a>
</g>
</g>
<!-- Node3&#45;&gt;Node4 -->
<g id="edge3_Node000003_Node000004" class="edge">
<title>Node3&#45;&gt;Node4</title>
<g id="a_edge3_Node000003_Node000004"><a xlink:title=" ">
<path fill="none" stroke="#63b8ff" d="M415.18,-109.98C401.85,-101.77 381.42,-89.18 365.69,-79.49"/>
<polygon fill="#63b8ff" stroke="#63b8ff" points="367.42,-76.44 357.07,-74.17 363.75,-82.4 367.42,-76.44"/>
</a>
</g>
</g>
<!-- Node3&#45;&gt;Node5 -->
<g id="edge4_Node000003_Node000005" class="edge">
<title>Node3&#45;&gt;Node5</title>
<g id="a_edge4_Node000003_Node000005"><a xlink:title=" ">
<path fill="none" stroke="#63b8ff" d="M471.78,-109.93C507.03,-102.28 558.02,-89.85 601,-74 619.09,-67.33 621.54,-60.56 640,-55 748.16,-22.43 883.05,-13.68 943.76,-11.35"/>
<polygon fill="#63b8ff" stroke="#63b8ff" points="944,-14.84 953.87,-10.99 943.75,-7.84 944,-14.84"/>
</a>
</g>
</g>
<!-- Node3&#45;&gt;Node6 -->
<g id="edge5_Node000003_Node000006" class="edge">
<title>Node3&#45;&gt;Node6</title>
<g id="a_edge5_Node000003_Node000006"><a xlink:title=" ">
<path fill="none" stroke="#63b8ff" d="M427.95,-109.81C426.67,-97.52 425.02,-74.4 428,-55 429.35,-46.19 432.13,-36.74 434.85,-28.82"/>
<polygon fill="#63b8ff" stroke="#63b8ff" points="438.23,-29.77 438.4,-19.18 431.66,-27.35 438.23,-29.77"/>
</a>
</g>
</g>
<!-- Node7 -->
<g id="Node000007" class="node">
<title>Node7</title>
<g id="a_Node000007"><a xlink:href="utils_8hpp.html" target="_top" xlink:title=" ">
<polygon fill="white" stroke="#666666" points="215.5,-74 156.5,-74 156.5,-55 215.5,-55 215.5,-74"/>
<text text-anchor="middle" x="186" y="-62" font-family="Helvetica,sans-Serif" font-size="10.00">utils.hpp</text>
</a>
</g>
</g>
<!-- Node3&#45;&gt;Node7 -->
<g id="edge6_Node000003_Node000007" class="edge">
<title>Node3&#45;&gt;Node7</title>
<g id="a_edge6_Node000003_Node000007"><a xlink:title=" ">
<path fill="none" stroke="#63b8ff" d="M389.96,-109.98C344.81,-100.14 270.89,-84.01 225.53,-74.12"/>
<polygon fill="#63b8ff" stroke="#63b8ff" points="226.27,-70.7 215.75,-71.99 224.78,-77.54 226.27,-70.7"/>
</a>
</g>
</g>
<!-- Node8 -->
<g id="Node000008" class="node">
<title>Node8</title>
<g id="a_Node000008"><a xlink:title=" ">
<polygon fill="#e0e0e0" stroke="#999999" points="118,-19 76,-19 76,0 118,0 118,-19"/>
<text text-anchor="middle" x="97" y="-7" font-family="Helvetica,sans-Serif" font-size="10.00">array</text>
</a>
</g>
</g>
<!-- Node7&#45;&gt;Node8 -->
<g id="edge7_Node000007_Node000008" class="edge">
<title>Node7&#45;&gt;Node8</title>
<g id="a_edge7_Node000007_Node000008"><a xlink:title=" ">
<path fill="none" stroke="#63b8ff" d="M171.7,-54.98C157.9,-46.77 136.76,-34.18 120.49,-24.49"/>
<polygon fill="#63b8ff" stroke="#63b8ff" points="121.94,-21.28 111.56,-19.17 118.36,-27.29 121.94,-21.28"/>
</a>
</g>
</g>
<!-- Node7&#45;&gt;Node9 -->
<g id="edge8_Node000007_Node000009" class="edge">
<title>Node7&#45;&gt;Node9</title>
<g id="a_edge8_Node000007_Node000009"><a xlink:title=" ">
<path fill="none" stroke="#63b8ff" d="M215.55,-61.27C322.76,-53.16 687.8,-25.35 740,-19 745.51,-18.33 751.32,-17.5 756.99,-16.63"/>
<polygon fill="#63b8ff" stroke="#63b8ff" points="757.62,-20.07 766.93,-15.02 756.5,-13.16 757.62,-20.07"/>
</a>
</g>
</g>
<!-- Node10 -->
<g id="Node000010" class="node">
<title>Node10</title>
<g id="a_Node000010"><a xlink:title=" ">
<polygon fill="#e0e0e0" stroke="#999999" points="180,-19 136,-19 136,0 180,0 180,-19"/>
<text text-anchor="middle" x="158" y="-7" font-family="Helvetica,sans-Serif" font-size="10.00">limits</text>
</a>
</g>
</g>
<!-- Node7&#45;&gt;Node10 -->
<g id="edge9_Node000007_Node000010" class="edge">
<title>Node7&#45;&gt;Node10</title>
<g id="a_edge9_Node000007_Node000010"><a xlink:title=" ">
<path fill="none" stroke="#63b8ff" d="M181.38,-54.75C177.54,-47.49 171.98,-36.95 167.24,-27.98"/>
<polygon fill="#63b8ff" stroke="#63b8ff" points="170.3,-26.3 162.54,-19.09 164.11,-29.57 170.3,-26.3"/>
</a>
</g>
</g>
<!-- Node7&#45;&gt;Node11 -->
<g id="edge10_Node000007_Node000011" class="edge">
<title>Node7&#45;&gt;Node11</title>
<g id="a_edge10_Node000007_Node000011"><a xlink:title=" ">
<path fill="none" stroke="#63b8ff" d="M203.99,-54.98C221.93,-46.5 249.72,-33.35 270.43,-23.54"/>
<polygon fill="#63b8ff" stroke="#63b8ff" points="272.14,-26.61 279.68,-19.17 269.14,-20.28 272.14,-26.61"/>
</a>
</g>
</g>
<!-- Node7&#45;&gt;Node12 -->
<g id="edge11_Node000007_Node000012" class="edge">
<title>Node7&#45;&gt;Node12</title>
<g id="a_edge11_Node000007_Node000012"><a xlink:title=" ">
<path fill="none" stroke="#63b8ff" d="M215.88,-54.98C247.94,-45.85 298.95,-31.32 333.87,-21.36"/>
<polygon fill="#63b8ff" stroke="#63b8ff" points="335.06,-24.67 343.71,-18.56 333.14,-17.93 335.06,-24.67"/>
</a>
</g>
</g>
<!-- Node13&#45;&gt;Node5 -->
<g id="edge20_Node000013_Node000005" class="edge">
<title>Node13&#45;&gt;Node5</title>
<g id="a_edge20_Node000013_Node000005"><a xlink:title=" ">
<path fill="none" stroke="#63b8ff" d="M592.41,-56.19C688.31,-44.76 870.26,-23.09 943.88,-14.33"/>
<polygon fill="#63b8ff" stroke="#63b8ff" points="944.42,-17.79 953.94,-13.13 943.59,-10.84 944.42,-17.79"/>
</a>
</g>
</g>
<!-- Node13&#45;&gt;Node6 -->
<g id="edge21_Node000013_Node000006" class="edge">
<title>Node13&#45;&gt;Node6</title>
<g id="a_edge21_Node000013_Node000006"><a xlink:title=" ">
<path fill="none" stroke="#63b8ff" d="M516.7,-54.98C502.9,-46.77 481.76,-34.18 465.49,-24.49"/>
<polygon fill="#63b8ff" stroke="#63b8ff" points="466.94,-21.28 456.56,-19.17 463.36,-27.29 466.94,-21.28"/>
</a>
</g>
</g>
<!-- Node13&#45;&gt;Node9 -->
<g id="edge14_Node000013_Node000009" class="edge">
<title>Node13&#45;&gt;Node9</title>
<g id="a_edge14_Node000013_Node000009"><a xlink:title=" ">
<path fill="none" stroke="#63b8ff" d="M572.93,-54.98C623.95,-44.63 709.15,-27.32 756.87,-17.63"/>
<polygon fill="#63b8ff" stroke="#63b8ff" points="757.64,-21.05 766.74,-15.63 756.25,-14.19 757.64,-21.05"/>
</a>
</g>
</g>
<!-- Node13&#45;&gt;Node11 -->
<g id="edge19_Node000013_Node000011" class="edge">
<title>Node13&#45;&gt;Node11</title>
<g id="a_edge19_Node000013_Node000011"><a xlink:title=" ">
<path fill="none" stroke="#63b8ff" d="M493.42,-55C456.04,-46.53 396.78,-33.1 336.37,-19.31"/>
<polygon fill="#63b8ff" stroke="#63b8ff" points="336.81,-15.82 326.28,-17 335.25,-22.64 336.81,-15.82"/>
</a>
</g>
</g>
<!-- Node13&#45;&gt;Node14 -->
<g id="edge13_Node000013_Node000014" class="edge">
<title>Node13&#45;&gt;Node14</title>
<g id="a_edge13_Node000013_Node000014"><a xlink:title=" ">
<path fill="none" stroke="#63b8ff" d="M472.06,-54.98C419.47,-47.1 340.15,-34.56 261.75,-19.03"/>
<polygon fill="#63b8ff" stroke="#63b8ff" points="262.18,-15.55 251.69,-17.02 260.81,-22.41 262.18,-15.55"/>
</a>
</g>
</g>
<!-- Node15 -->
<g id="Node000015" class="node">
<title>Node15</title>
<g id="a_Node000015"><a xlink:title=" ">
<polygon fill="#e0e0e0" stroke="#999999" points="1191,-19 1131,-19 1131,0 1191,0 1191,-19"/>
<text text-anchor="middle" x="1161" y="-7" font-family="Helvetica,sans-Serif" font-size="10.00">iostream</text>
</a>
</g>
</g>
<!-- Node13&#45;&gt;Node15 -->
<g id="edge15_Node000013_Node000015" class="edge">
<title>Node13&#45;&gt;Node15</title>
<g id="a_edge15_Node000013_Node000015"><a xlink:title=" ">
<path fill="none" stroke="#63b8ff" d="M592.27,-58.35C720.34,-47.57 1013.42,-22.92 1120.7,-13.89"/>
<polygon fill="#63b8ff" stroke="#63b8ff" points="1121.11,-17.37 1130.78,-13.04 1120.53,-10.39 1121.11,-17.37"/>
</a>
</g>
</g>
<!-- Node13&#45;&gt;Node16 -->
<g id="edge16_Node000013_Node000016" class="edge">
<title>Node13&#45;&gt;Node16</title>
<g id="a_edge16_Node000013_Node000016"><a xlink:title=" ">
<path fill="none" stroke="#63b8ff" d="M469.89,-60.07C382.86,-54.65 218.07,-42.4 68.66,-19.08"/>
<polygon fill="#63b8ff" stroke="#63b8ff" points="68.81,-15.56 58.39,-17.45 67.72,-22.47 68.81,-15.56"/>
</a>
</g>
</g>
<!-- Node17 -->
<g id="Node000017" class="node">
<title>Node17</title>
<g id="a_Node000017"><a xlink:title=" ">
<polygon fill="#e0e0e0" stroke="#999999" points="730.5,-19 683.5,-19 683.5,0 730.5,0 730.5,-19"/>
<text text-anchor="middle" x="707" y="-7" font-family="Helvetica,sans-Serif" font-size="10.00">queue</text>
</a>
</g>
</g>
<!-- Node13&#45;&gt;Node17 -->
<g id="edge17_Node000013_Node000017" class="edge">
<title>Node13&#45;&gt;Node17</title>
<g id="a_edge17_Node000013_Node000017"><a xlink:title=" ">
<path fill="none" stroke="#63b8ff" d="M559.28,-54.98C590.45,-45.6 640.56,-30.51 673.63,-20.55"/>
<polygon fill="#63b8ff" stroke="#63b8ff" points="674.74,-23.87 683.31,-17.63 672.72,-17.17 674.74,-23.87"/>
</a>
</g>
</g>
<!-- Node18 -->
<g id="Node000018" class="node">
<title>Node18</title>
<g id="a_Node000018"><a xlink:title=" ">
<polygon fill="#e0e0e0" stroke="#999999" points="554.5,-19 483.5,-19 483.5,0 554.5,0 554.5,-19"/>
<text text-anchor="middle" x="519" y="-7" font-family="Helvetica,sans-Serif" font-size="10.00">semaphore</text>
</a>
</g>
</g>
<!-- Node13&#45;&gt;Node18 -->
<g id="edge18_Node000013_Node000018" class="edge">
<title>Node13&#45;&gt;Node18</title>
<g id="a_edge18_Node000013_Node000018"><a xlink:title=" ">
<path fill="none" stroke="#63b8ff" d="M529.02,-54.75C527.43,-47.72 525.14,-37.62 523.15,-28.84"/>
<polygon fill="#63b8ff" stroke="#63b8ff" points="526.57,-28.07 520.94,-19.09 519.74,-29.62 526.57,-28.07"/>
</a>
</g>
</g>
<!-- Node19 -->
<g id="Node000019" class="node">
<title>Node19</title>
<g id="a_Node000019"><a xlink:title=" ">
<polygon fill="#e0e0e0" stroke="#999999" points="665,-19 573,-19 573,0 665,0 665,-19"/>
<text text-anchor="middle" x="619" y="-7" font-family="Helvetica,sans-Serif" font-size="10.00">../utils/utils.hpp</text>
</a>
</g>
</g>
<!-- Node13&#45;&gt;Node19 -->
<g id="edge22_Node000013_Node000019" class="edge">
<title>Node13&#45;&gt;Node19</title>
<g id="a_edge22_Node000013_Node000019"><a xlink:title=" ">
<path fill="none" stroke="#63b8ff" d="M545.14,-54.98C558.79,-46.77 579.69,-34.18 595.78,-24.49"/>
<polygon fill="#63b8ff" stroke="#63b8ff" points="597.84,-27.33 604.6,-19.17 594.23,-21.33 597.84,-27.33"/>
</a>
</g>
</g>
<!-- Node23&#45;&gt;Node3 -->
<g id="edge45_Node000023_Node000003" class="edge">
<title>Node23&#45;&gt;Node3</title>
<g id="a_edge45_Node000023_Node000003"><a xlink:title=" ">
<path fill="none" stroke="#63b8ff" d="M664.85,-164.98C615.74,-155.72 537.18,-140.9 484.38,-130.94"/>
<polygon fill="#63b8ff" stroke="#63b8ff" points="484.98,-127.5 474.5,-129.08 483.68,-134.37 484.98,-127.5"/>
</a>
</g>
</g>
<!-- Node23&#45;&gt;Node13 -->
<g id="edge46_Node000023_Node000013" class="edge">
<title>Node23&#45;&gt;Node13</title>
<g id="a_edge46_Node000023_Node000013"><a xlink:title=" ">
<path fill="none" stroke="#63b8ff" d="M695.9,-164.82C675.94,-152.53 638.26,-129.42 606,-110 588.87,-99.69 569.45,-88.17 554.67,-79.44"/>
<polygon fill="#63b8ff" stroke="#63b8ff" points="556.08,-76.21 545.69,-74.14 552.53,-82.24 556.08,-76.21"/>
</a>
</g>
</g>
<!-- Node24 -->
<g id="Node000024" class="node">
<title>Node24</title>
<g id="a_Node000024"><a xlink:href="atlas__frame_8hpp.html" target="_top" xlink:title=" ">
<polygon fill="white" stroke="#666666" points="868,-129 772,-129 772,-110 868,-110 868,-129"/>
<text text-anchor="middle" x="820" y="-117" font-family="Helvetica,sans-Serif" font-size="10.00">atlas_frame.hpp</text>
</a>
</g>
</g>
<!-- Node23&#45;&gt;Node24 -->
<g id="edge34_Node000023_Node000024" class="edge">
<title>Node23&#45;&gt;Node24</title>
<g id="a_edge34_Node000023_Node000024"><a xlink:title=" ">
<path fill="none" stroke="#63b8ff" d="M727.67,-164.98C745.29,-156.5 772.58,-143.35 792.93,-133.54"/>
<polygon fill="#63b8ff" stroke="#63b8ff" points="794.52,-136.66 802.01,-129.17 791.48,-130.36 794.52,-136.66"/>
</a>
</g>
</g>
<!-- Node23&#45;&gt;Node25 -->
<g id="edge39_Node000023_Node000025" class="edge">
<title>Node23&#45;&gt;Node25</title>
<g id="a_edge39_Node000023_Node000025"><a xlink:title=" ">
<path fill="none" stroke="#63b8ff" d="M710.41,-164.66C711.22,-147.17 713.04,-107.8 714.13,-84.27"/>
<polygon fill="#63b8ff" stroke="#63b8ff" points="717.63,-84.31 714.6,-74.16 710.64,-83.99 717.63,-84.31"/>
</a>
</g>
</g>
<!-- Node26 -->
<g id="Node000026" class="node">
<title>Node26</title>
<g id="a_Node000026"><a xlink:href="bitstream__util_8hpp.html" target="_top" xlink:title=" ">
<polygon fill="white" stroke="#666666" points="992,-129 886,-129 886,-110 992,-110 992,-129"/>
<text text-anchor="middle" x="939" y="-117" font-family="Helvetica,sans-Serif" font-size="10.00">bitstream_util.hpp</text>
</a>
</g>
</g>
<!-- Node23&#45;&gt;Node26 -->
<g id="edge40_Node000023_Node000026" class="edge">
<title>Node23&#45;&gt;Node26</title>
<g id="a_edge40_Node000023_Node000026"><a xlink:title=" ">
<path fill="none" stroke="#63b8ff" d="M746.79,-164.98C786.24,-155.86 848.98,-141.33 891.98,-131.38"/>
<polygon fill="#63b8ff" stroke="#63b8ff" points="892.97,-134.75 901.92,-129.08 891.39,-127.93 892.97,-134.75"/>
</a>
</g>
</g>
<!-- Node24&#45;&gt;Node13 -->
<g id="edge38_Node000024_Node000013" class="edge">
<title>Node24&#45;&gt;Node13</title>
<g id="a_edge38_Node000024_Node000013"><a xlink:title=" ">
<path fill="none" stroke="#63b8ff" d="M773.57,-109.98C723.05,-100.72 642.26,-85.9 587.95,-75.94"/>
<polygon fill="#63b8ff" stroke="#63b8ff" points="588.26,-72.44 577.8,-74.08 587,-79.33 588.26,-72.44"/>
</a>
</g>
</g>
<!-- Node24&#45;&gt;Node21 -->
<g id="edge35_Node000024_Node000021" class="edge">
<title>Node24&#45;&gt;Node21</title>
<g id="a_edge35_Node000024_Node000021"><a xlink:title=" ">
<path fill="none" stroke="#63b8ff" d="M856.2,-109.97C891.48,-101.62 946.91,-88.4 1004.25,-74.16"/>
<polygon fill="#63b8ff" stroke="#63b8ff" points="1005.36,-77.49 1014.22,-71.67 1003.67,-70.69 1005.36,-77.49"/>
</a>
</g>
</g>
<!-- Node24&#45;&gt;Node25 -->
<g id="edge36_Node000024_Node000025" class="edge">
<title>Node24&#45;&gt;Node25</title>
<g id="a_edge36_Node000024_Node000025"><a xlink:title=" ">
<path fill="none" stroke="#63b8ff" d="M803.13,-109.98C786.39,-101.54 760.5,-88.47 741.11,-78.68"/>
<polygon fill="#63b8ff" stroke="#63b8ff" points="742.68,-75.55 732.18,-74.17 739.53,-81.8 742.68,-75.55"/>
</a>
</g>
</g>
<!-- Node25&#45;&gt;Node9 -->
<g id="edge37_Node000025_Node000009" class="edge">
<title>Node25&#45;&gt;Node9</title>
<g id="a_edge37_Node000025_Node000009"><a xlink:title=" ">
<path fill="none" stroke="#63b8ff" d="M727.37,-54.98C739.09,-46.92 756.92,-34.65 770.89,-25.03"/>
<polygon fill="#63b8ff" stroke="#63b8ff" points="773.15,-27.72 779.4,-19.17 769.18,-21.96 773.15,-27.72"/>
</a>
</g>
</g>
<!-- Node26&#45;&gt;Node5 -->
<g id="edge44_Node000026_Node000005" class="edge">
<title>Node26&#45;&gt;Node5</title>
<g id="a_edge44_Node000026_Node000005"><a xlink:title=" ">
<path fill="none" stroke="#63b8ff" d="M936.73,-109.95C933.84,-97.43 930.01,-73.58 937,-55 941.18,-43.89 949.52,-33.75 957.43,-25.96"/>
<polygon fill="#63b8ff" stroke="#63b8ff" points="960.01,-28.35 965.01,-19.01 955.28,-23.19 960.01,-28.35"/>
</a>
</g>
</g>
<!-- Node26&#45;&gt;Node9 -->
<g id="edge43_Node000026_Node000009" class="edge">
<title>Node26&#45;&gt;Node9</title>
<g id="a_edge43_Node000026_Node000009"><a xlink:title=" ">
<path fill="none" stroke="#63b8ff" d="M901.56,-109.98C878.59,-103.25 849.71,-91.94 829,-74 814.86,-61.75 804.78,-42.7 798.75,-28.66"/>
<polygon fill="#63b8ff" stroke="#63b8ff" points="801.88,-27.08 794.92,-19.1 795.38,-29.68 801.88,-27.08"/>
</a>
</g>
</g>
<!-- Node27 -->
<g id="Node000027" class="node">
<title>Node27</title>
<g id="a_Node000027"><a xlink:title=" ">
<polygon fill="#e0e0e0" stroke="#999999" points="890,-74 838,-74 838,-55 890,-55 890,-74"/>
<text text-anchor="middle" x="864" y="-62" font-family="Helvetica,sans-Serif" font-size="10.00">cassert</text>
</a>
</g>
</g>
<!-- Node26&#45;&gt;Node27 -->
<g id="edge41_Node000026_Node000027" class="edge">
<title>Node26&#45;&gt;Node27</title>
<g id="a_edge41_Node000026_Node000027"><a xlink:title=" ">
<path fill="none" stroke="#63b8ff" d="M926.95,-109.98C915.54,-101.92 898.17,-89.65 884.57,-80.03"/>
<polygon fill="#63b8ff" stroke="#63b8ff" points="886.46,-77.08 876.27,-74.17 882.42,-82.8 886.46,-77.08"/>
</a>
</g>
</g>
<!-- Node28 -->
<g id="Node000028" class="node">
<title>Node28</title>
<g id="a_Node000028"><a xlink:title=" ">
<polygon fill="#e0e0e0" stroke="#999999" points="996,-74 946,-74 946,-55 996,-55 996,-74"/>
<text text-anchor="middle" x="971" y="-62" font-family="Helvetica,sans-Serif" font-size="10.00">cstring</text>
</a>
</g>
</g>
<!-- Node26&#45;&gt;Node28 -->
<g id="edge42_Node000026_Node000028" class="edge">
<title>Node26&#45;&gt;Node28</title>
<g id="a_edge42_Node000026_Node000028"><a xlink:title=" ">
<path fill="none" stroke="#63b8ff" d="M944.28,-109.75C948.71,-102.42 955.16,-91.73 960.62,-82.7"/>
<polygon fill="#63b8ff" stroke="#63b8ff" points="963.64,-84.46 965.81,-74.09 957.65,-80.84 963.64,-84.46"/>
</a>
</g>
</g>
<!-- Node29&#45;&gt;Node6 -->
<g id="edge50_Node000029_Node000006" class="edge">
<title>Node29&#45;&gt;Node6</title>
<g id="a_edge50_Node000029_Node000006"><a xlink:title=" ">
<path fill="none" stroke="#63b8ff" d="M600.93,-219.8C582.63,-200.09 536.46,-150.59 497,-110 481.23,-93.78 472.6,-93.43 461,-74 452.71,-60.1 447.79,-42.31 445.05,-29.1"/>
<polygon fill="#63b8ff" stroke="#63b8ff" points="448.49,-28.46 443.22,-19.26 441.6,-29.73 448.49,-28.46"/>
</a>
</g>
</g>
<!-- Node29&#45;&gt;Node13 -->
<g id="edge52_Node000029_Node000013" class="edge">
<title>Node29&#45;&gt;Node13</title>
<g id="a_edge52_Node000029_Node000013"><a xlink:title=" ">
<path fill="none" stroke="#63b8ff" d="M607.11,-219.72C602.51,-199.43 589.49,-148.12 568,-110 562.29,-99.87 554.17,-89.8 547,-81.81"/>
<polygon fill="#63b8ff" stroke="#63b8ff" points="549.39,-79.23 540,-74.32 544.27,-84.01 549.39,-79.23"/>
</a>
</g>
</g>
<!-- Node29&#45;&gt;Node16 -->
<g id="edge49_Node000029_Node000016" class="edge">
<title>Node29&#45;&gt;Node16</title>
<g id="a_edge49_Node000029_Node000016"><a xlink:title=" ">
<path fill="none" stroke="#63b8ff" d="M582.11,-228.38C527.42,-227.34 400.01,-220.78 301,-184 195.61,-144.85 88.27,-60.43 46.83,-25.8"/>
<polygon fill="#63b8ff" stroke="#63b8ff" points="48.91,-22.98 39.01,-19.2 44.39,-28.32 48.91,-22.98"/>
</a>
</g>
</g>
<!-- Node29&#45;&gt;Node23 -->
<g id="edge51_Node000029_Node000023" class="edge">
<title>Node29&#45;&gt;Node23</title>
<g id="a_edge51_Node000029_Node000023"><a xlink:title=" ">
<path fill="none" stroke="#63b8ff" d="M625.23,-219.98C641.18,-211.61 665.78,-198.7 684.38,-188.95"/>
<polygon fill="#63b8ff" stroke="#63b8ff" points="686.25,-191.92 693.48,-184.17 683,-185.72 686.25,-191.92"/>
</a>
</g>
</g>
<!-- Node29&#45;&gt;Node30 -->
<g id="edge53_Node000029_Node000030" class="edge">
<title>Node29&#45;&gt;Node30</title>
<g id="a_edge53_Node000029_Node000030"><a xlink:title=" ">
<path fill="none" stroke="#63b8ff" d="M635.69,-221.98C638.82,-221.28 641.98,-220.6 645,-220 742.16,-200.6 768.97,-208.38 865,-184 937.07,-165.71 954.49,-157.91 1023,-129 1059.45,-113.62 1100.11,-92.56 1125.38,-79"/>
<polygon fill="#63b8ff" stroke="#63b8ff" points="1127.14,-82.03 1134.27,-74.19 1123.81,-75.87 1127.14,-82.03"/>
</a>
</g>
</g>
<!-- Node29&#45;&gt;Node31 -->
<g id="edge57_Node000029_Node000031" class="edge">
<title>Node29&#45;&gt;Node31</title>
<g id="a_edge57_Node000029_Node000031"><a xlink:title=" ">
<path fill="none" stroke="#63b8ff" d="M635.85,-222C674.64,-212.62 746.49,-195.23 790.49,-184.58"/>
<polygon fill="#63b8ff" stroke="#63b8ff" points="791.34,-187.97 800.24,-182.22 789.69,-181.17 791.34,-187.97"/>
</a>
</g>
</g>
<!-- Node30&#45;&gt;Node5 -->
<g id="edge55_Node000030_Node000005" class="edge">
<title>Node30&#45;&gt;Node5</title>
<g id="a_edge55_Node000030_Node000005"><a xlink:title=" ">
<path fill="none" stroke="#63b8ff" d="M1122.04,-54.98C1090.92,-45.51 1040.72,-30.21 1008.04,-20.26"/>
<polygon fill="#63b8ff" stroke="#63b8ff" points="1008.68,-16.79 998.09,-17.23 1006.64,-23.49 1008.68,-16.79"/>
</a>
</g>
</g>
<!-- Node30&#45;&gt;Node6 -->
<g id="edge56_Node000030_Node000006" class="edge">
<title>Node30&#45;&gt;Node6</title>
<g id="a_edge56_Node000030_Node000006"><a xlink:title=" ">
<path fill="none" stroke="#63b8ff" d="M1079.81,-55.77C1076.83,-55.5 1073.89,-55.24 1071,-55 809.48,-33.06 738.22,-60.61 475.87,-18.99"/>
<polygon fill="#63b8ff" stroke="#63b8ff" points="476.08,-15.48 465.65,-17.35 474.97,-22.39 476.08,-15.48"/>
</a>
</g>
</g>
<!-- Node30&#45;&gt;Node9 -->
<g id="edge54_Node000030_Node000009" class="edge">
<title>Node30&#45;&gt;Node9</title>
<g id="a_edge54_Node000030_Node000009"><a xlink:title=" ">
<path fill="none" stroke="#63b8ff" d="M1092.48,-54.98C1017.56,-43.89 888.87,-24.84 827.09,-15.7"/>
<polygon fill="#63b8ff" stroke="#63b8ff" points="827.47,-12.21 817.07,-14.21 826.45,-19.14 827.47,-12.21"/>
</a>
</g>
</g>
<!-- Node31&#45;&gt;Node3 -->
<g id="edge60_Node000031_Node000003" class="edge">
<title>Node31&#45;&gt;Node3</title>
<g id="a_edge60_Node000031_Node000003"><a xlink:title=" ">
<path fill="none" stroke="#63b8ff" d="M800.47,-169.29C791.12,-167.89 780.61,-166.34 771,-165 676.66,-151.83 567.5,-137.84 498.37,-129.14"/>
<polygon fill="#63b8ff" stroke="#63b8ff" points="498.41,-125.62 488.05,-127.84 497.54,-132.56 498.41,-125.62"/>
</a>
</g>
</g>
<!-- Node31&#45;&gt;Node13 -->
<g id="edge61_Node000031_Node000013" class="edge">
<title>Node31&#45;&gt;Node13</title>
<g id="a_edge61_Node000031_Node000013"><a xlink:title=" ">
<path fill="none" stroke="#63b8ff" d="M804.45,-164.94C751.81,-145.79 624.53,-99.51 564.02,-77.51"/>
<polygon fill="#63b8ff" stroke="#63b8ff" points="565.15,-74.19 554.56,-74.07 562.76,-80.77 565.15,-74.19"/>
</a>
</g>
</g>
<!-- Node31&#45;&gt;Node21 -->
<g id="edge58_Node000031_Node000021" class="edge">
<title>Node31&#45;&gt;Node21</title>
<g id="a_edge58_Node000031_Node000021"><a xlink:title=" ">
<path fill="none" stroke="#63b8ff" d="M855.68,-172.81C892.39,-170.56 957.59,-161.83 1001,-129 1016.07,-117.6 1026.08,-98.15 1031.85,-83.77"/>
<polygon fill="#63b8ff" stroke="#63b8ff" points="1035.14,-84.98 1035.31,-74.38 1028.57,-82.56 1035.14,-84.98"/>
</a>
</g>
</g>
<!-- Node31&#45;&gt;Node26 -->
<g id="edge59_Node000031_Node000026" class="edge">
<title>Node31&#45;&gt;Node26</title>
<g id="a_edge59_Node000031_Node000026"><a xlink:title=" ">
<path fill="none" stroke="#63b8ff" d="M845.83,-164.98C863.61,-156.5 891.15,-143.35 911.68,-133.54"/>
<polygon fill="#63b8ff" stroke="#63b8ff" points="913.33,-136.64 920.84,-129.17 910.31,-130.32 913.33,-136.64"/>
</a>
</g>
</g>
<!-- Node32&#45;&gt;Node5 -->
<g id="edge68_Node000032_Node000005" class="edge">
<title>Node32&#45;&gt;Node5</title>
<g id="a_edge68_Node000032_Node000005"><a xlink:title=" ">
<path fill="none" stroke="#63b8ff" d="M1313.89,-56.89C1234.09,-45.94 1076.4,-24.29 1008.43,-14.95"/>
<polygon fill="#63b8ff" stroke="#63b8ff" points="1008.7,-11.46 998.32,-13.56 1007.75,-18.39 1008.7,-11.46"/>
</a>
</g>
</g>
<!-- Node32&#45;&gt;Node12 -->
<g id="edge66_Node000032_Node000012" class="edge">
<title>Node32&#45;&gt;Node12</title>
<g id="a_edge66_Node000032_Node000012"><a xlink:title=" ">
<path fill="none" stroke="#63b8ff" d="M1314,-60.2C1288.71,-58.52 1257.19,-56.52 1229,-55 868.02,-35.54 772.21,-67.46 410.15,-18.88"/>
<polygon fill="#63b8ff" stroke="#63b8ff" points="410.56,-15.4 400.18,-17.53 409.62,-22.34 410.56,-15.4"/>
</a>
</g>
</g>
<!-- Node32&#45;&gt;Node15 -->
<g id="edge67_Node000032_Node000015" class="edge">
<title>Node32&#45;&gt;Node15</title>
<g id="a_edge67_Node000032_Node000015"><a xlink:title=" ">
<path fill="none" stroke="#63b8ff" d="M1329.71,-54.98C1294.81,-45.78 1239.15,-31.11 1201.39,-21.15"/>
<polygon fill="#63b8ff" stroke="#63b8ff" points="1201.8,-17.64 1191.24,-18.47 1200.02,-24.41 1201.8,-17.64"/>
</a>
</g>
</g>
<!-- Node33 -->
<g id="Node000033" class="node">
<title>Node33</title>
<g id="a_Node000033"><a xlink:title=" ">
<polygon fill="#e0e0e0" stroke="#999999" points="1317,-19 1267,-19 1267,0 1317,0 1317,-19"/>
<text text-anchor="middle" x="1292" y="-7" font-family="Helvetica,sans-Serif" font-size="10.00">chrono</text>
</a>
</g>
</g>
<!-- Node32&#45;&gt;Node33 -->
<g id="edge64_Node000032_Node000033" class="edge">
<title>Node32&#45;&gt;Node33</title>
<g id="a_edge64_Node000032_Node000033"><a xlink:title=" ">
<path fill="none" stroke="#63b8ff" d="M1350.75,-54.98C1340.2,-47 1324.2,-34.88 1311.56,-25.31"/>
<polygon fill="#63b8ff" stroke="#63b8ff" points="1313.54,-22.42 1303.45,-19.17 1309.31,-28 1313.54,-22.42"/>
</a>
</g>
</g>
<!-- Node34 -->
<g id="Node000034" class="node">
<title>Node34</title>
<g id="a_Node000034"><a xlink:title=" ">
<polygon fill="#e0e0e0" stroke="#999999" points="1388.5,-19 1335.5,-19 1335.5,0 1388.5,0 1388.5,-19"/>
<text text-anchor="middle" x="1362" y="-7" font-family="Helvetica,sans-Serif" font-size="10.00">cstdarg</text>
</a>
</g>
</g>
<!-- Node32&#45;&gt;Node34 -->
<g id="edge65_Node000032_Node000034" class="edge">
<title>Node32&#45;&gt;Node34</title>
<g id="a_edge65_Node000032_Node000034"><a xlink:title=" ">
<path fill="none" stroke="#63b8ff" d="M1362,-54.75C1362,-47.8 1362,-37.85 1362,-29.13"/>
<polygon fill="#63b8ff" stroke="#63b8ff" points="1365.5,-29.09 1362,-19.09 1358.5,-29.09 1365.5,-29.09"/>
</a>
</g>
</g>
<!-- Node35 -->
<g id="Node000035" class="node">
<title>Node35</title>
<g id="a_Node000035"><a xlink:title=" ">
<polygon fill="#e0e0e0" stroke="#999999" points="1455,-19 1407,-19 1407,0 1455,0 1455,-19"/>
<text text-anchor="middle" x="1431" y="-7" font-family="Helvetica,sans-Serif" font-size="10.00">mutex</text>
</a>
</g>
</g>
<!-- Node32&#45;&gt;Node35 -->
<g id="edge69_Node000032_Node000035" class="edge">
<title>Node32&#45;&gt;Node35</title>
<g id="a_edge69_Node000032_Node000035"><a xlink:title=" ">
<path fill="none" stroke="#63b8ff" d="M1373.09,-54.98C1383.49,-47 1399.26,-34.88 1411.72,-25.31"/>
<polygon fill="#63b8ff" stroke="#63b8ff" points="1413.91,-28.04 1419.71,-19.17 1409.65,-22.49 1413.91,-28.04"/>
</a>
</g>
</g>
</g>
</svg>
