<?xml version="1.0" encoding="UTF-8" standalone="no"?>
<!DOCTYPE svg PUBLIC "-//W3C//DTD SVG 1.1//EN"
 "http://www.w3.org/Graphics/SVG/1.1/DTD/svg11.dtd">
<!-- Generated by graphviz version 2.43.0 (0)
 -->
<!-- Title: src/libuvgvpccenc/mapEncoding/catchLibLog.hpp Pages: 1 -->
<svg width="563pt" height="104pt"
 viewBox="0.00 0.00 563.00 104.00" xmlns="http://www.w3.org/2000/svg" xmlns:xlink="http://www.w3.org/1999/xlink">
<g id="graph0" class="graph" transform="scale(1 1) rotate(0) translate(4 100)">
<title>src/libuvgvpccenc/mapEncoding/catchLibLog.hpp</title>
<!-- Node1 -->
<g id="Node000001" class="node">
<title>Node1</title>
<g id="a_Node000001"><a xlink:title=" ">
<polygon fill="#999999" stroke="#666666" points="364,-96 191,-96 191,-66 364,-66 364,-96"/>
<text text-anchor="start" x="199" y="-84" font-family="Helvetica,sans-Serif" font-size="10.00">src/libuvgvpccenc/mapEncoding</text>
<text text-anchor="middle" x="277.5" y="-73" font-family="Helvetica,sans-Serif" font-size="10.00">/catchLibLog.hpp</text>
</a>
</g>
</g>
<!-- Node2 -->
<g id="Node000002" class="node">
<title>Node2</title>
<g id="a_Node000002"><a xlink:href="catchLibLog_8cpp.html" target="_top" xlink:title=" ">
<polygon fill="white" stroke="#666666" points="173,-30 0,-30 0,0 173,0 173,-30"/>
<text text-anchor="start" x="8" y="-18" font-family="Helvetica,sans-Serif" font-size="10.00">src/libuvgvpccenc/mapEncoding</text>
<text text-anchor="middle" x="86.5" y="-7" font-family="Helvetica,sans-Serif" font-size="10.00">/catchLibLog.cpp</text>
</a>
</g>
</g>
<!-- Node1&#45;&gt;Node2 -->
<g id="edge1_Node000001_Node000002" class="edge">
<title>Node1&#45;&gt;Node2</title>
<g id="a_edge1_Node000001_Node000002"><a xlink:title=" ">
<path fill="none" stroke="#63b8ff" d="M225.94,-62.72C195.34,-52.47 157.03,-39.63 128.32,-30.01"/>
<polygon fill="#63b8ff" stroke="#63b8ff" points="224.99,-66.1 235.58,-65.95 227.21,-59.46 224.99,-66.1"/>
</a>
</g>
</g>
<!-- Node3 -->
<g id="Node000003" class="node">
<title>Node3</title>
<g id="a_Node000003"><a xlink:href="encoderFFmpeg_8cpp.html" target="_top" xlink:title=" ">
<polygon fill="white" stroke="#666666" points="364,-30 191,-30 191,0 364,0 364,-30"/>
<text text-anchor="start" x="199" y="-18" font-family="Helvetica,sans-Serif" font-size="10.00">src/libuvgvpccenc/mapEncoding</text>
<text text-anchor="middle" x="277.5" y="-7" font-family="Helvetica,sans-Serif" font-size="10.00">/encoderFFmpeg.cpp</text>
</a>
</g>
</g>
<!-- Node1&#45;&gt;Node3 -->
<g id="edge2_Node000001_Node000003" class="edge">
<title>Node1&#45;&gt;Node3</title>
<g id="a_edge2_Node000001_Node000003"><a xlink:title=" ">
<path fill="none" stroke="#63b8ff" d="M277.5,-55.54C277.5,-46.96 277.5,-37.61 277.5,-30.16"/>
<polygon fill="#63b8ff" stroke="#63b8ff" points="274,-55.8 277.5,-65.8 281,-55.8 274,-55.8"/>
</a>
</g>
</g>
<!-- Node4 -->
<g id="Node000004" class="node">
<title>Node4</title>
<g id="a_Node000004"><a xlink:href="encoderKvazaar_8cpp.html" target="_top" xlink:title=" ">
<polygon fill="white" stroke="#666666" points="555,-30 382,-30 382,0 555,0 555,-30"/>
<text text-anchor="start" x="390" y="-18" font-family="Helvetica,sans-Serif" font-size="10.00">src/libuvgvpccenc/mapEncoding</text>
<text text-anchor="middle" x="468.5" y="-7" font-family="Helvetica,sans-Serif" font-size="10.00">/encoderKvazaar.cpp</text>
</a>
</g>
</g>
<!-- Node1&#45;&gt;Node4 -->
<g id="edge3_Node000001_Node000004" class="edge">
<title>Node1&#45;&gt;Node4</title>
<g id="a_edge3_Node000001_Node000004"><a xlink:title=" ">
<path fill="none" stroke="#63b8ff" d="M329.06,-62.72C359.66,-52.47 397.97,-39.63 426.68,-30.01"/>
<polygon fill="#63b8ff" stroke="#63b8ff" points="327.79,-59.46 319.42,-65.95 330.01,-66.1 327.79,-59.46"/>
</a>
</g>
</g>
</g>
</svg>
