<?xml version="1.0" encoding="UTF-8" standalone="no"?>
<!DOCTYPE svg PUBLIC "-//W3C//DTD SVG 1.1//EN"
 "http://www.w3.org/Graphics/SVG/1.1/DTD/svg11.dtd">
<!-- Generated by graphviz version 2.43.0 (0)
 -->
<!-- Title: uvgvpcc_enc::CommonMemory Pages: 1 -->
<!--zoomable 831 -->

<svg id="main" version="1.1" xmlns="http://www.w3.org/2000/svg" xmlns:xlink="http://www.w3.org/1999/xlink" xml:space="preserve" onload="init(evt)">
<style type="text/css"><![CDATA[
.node, .edge {opacity: 0.7;}
.node.selected, .edge.selected {opacity: 1;}
.edge:hover path { stroke: red; }
.edge:hover polygon { stroke: red; fill: red; }
]]></style>

<defs>
  <circle id="rim" cx="0" cy="0" r="7"/>
  <circle id="rim2" cx="0" cy="0" r="3.5"/>
  <g id="zoomPlus">
    <use xlink:href="#rim" fill="#404040"><set attributeName="fill" to="#808080" begin="zoomplus.mouseover" end="zoomplus.mouseout"/></use>
    <path d="M-4,0h8M0,-4v8" fill="none" stroke="white" stroke-width="1.5" pointer-events="none"/>
  </g>
  <g id="zoomMin">
    <use xlink:href="#rim" fill="#404040"><set attributeName="fill" to="#808080" begin="zoomminus.mouseover" end="zoomminus.mouseout"/></use>
    <path d="M-4,0h8" fill="none" stroke="white" stroke-width="1.5" pointer-events="none"/>
  </g>
  <g id="arrowUp" transform="translate(30 24)">
    <use xlink:href="#rim"/>
    <path pointer-events="none" fill="none" stroke="white" stroke-width="1.5" d="M0,-3.0v7 M-2.5,-0.5L0,-3.0L2.5,-0.5"/>
  </g>
  <g id="arrowRight" transform="rotate(90) translate(36 -43)">
    <use xlink:href="#rim"/>
    <path pointer-events="none" fill="none" stroke="white" stroke-width="1.5" d="M0,-3.0v7 M-2.5,-0.5L0,-3.0L2.5,-0.5"/>
  </g>
  <g id="arrowDown" transform="rotate(180) translate(-30 -48)">
    <use xlink:href="#rim"/>
    <path pointer-events="none" fill="none" stroke="white" stroke-width="1.5" d="M0,-3.0v7 M-2.5,-0.5L0,-3.0L2.5,-0.5"/>
  </g>
  <g id="arrowLeft" transform="rotate(270) translate(-36 17)">
    <use xlink:href="#rim"/>
    <path pointer-events="none" fill="none" stroke="white" stroke-width="1.5" d="M0,-3.0v7 M-2.5,-0.5L0,-3.0L2.5,-0.5"/>
  </g>
  <g id="resetDef">
    <use xlink:href="#rim2" fill="#404040"><set attributeName="fill" to="#808080" begin="reset.mouseover" end="reset.mouseout"/></use>
  </g>
</defs>
<script type="application/ecmascript">
var viewWidth = 457;
var viewHeight = 831;
var sectionId = 'dynsection-0';
</script>
<script type="application/ecmascript" xlink:href="svg.min.js"/>
<svg id="graph" class="graph">
<g id="viewport">
<title>uvgvpcc_enc::CommonMemory</title>
<!-- Node1 -->
<g id="Node000001" class="node">
<title>Node1</title>
<g id="a_Node000001"><a xlink:title=" ">
<polygon fill="#999999" stroke="transparent" points="296.5,-235 131.5,-235 131.5,0 296.5,0 296.5,-235"/>
<text text-anchor="start" x="137.5" y="-222.5" font-family="Helvetica,sans-Serif" font-size="10.00">uvgvpcc_enc::CommonMemory</text>
<text text-anchor="start" x="212.5" y="-207.5" font-family="Helvetica,sans-Serif" font-size="10.00"> </text>
<text text-anchor="start" x="136" y="-192.5" font-family="Helvetica,sans-Serif" font-size="10.00">+</text>
<text text-anchor="start" x="149" y="-192.5" font-family="Helvetica,sans-Serif" font-size="10.00">getOrCreateFramePatches()</text>
<text text-anchor="start" x="136" y="-177.5" font-family="Helvetica,sans-Serif" font-size="10.00">+</text>
<text text-anchor="start" x="149" y="-177.5" font-family="Helvetica,sans-Serif" font-size="10.00">getOrCreateFrameOccupancy</text>
<text text-anchor="start" x="149" y="-166.5" font-family="Helvetica,sans-Serif" font-size="10.00">Maps()</text>
<text text-anchor="start" x="136" y="-151.5" font-family="Helvetica,sans-Serif" font-size="10.00">+</text>
<text text-anchor="start" x="149" y="-151.5" font-family="Helvetica,sans-Serif" font-size="10.00">getOrCreateFrameOccupancy</text>
<text text-anchor="start" x="149" y="-140.5" font-family="Helvetica,sans-Serif" font-size="10.00">MapsDS()</text>
<text text-anchor="start" x="136" y="-125.5" font-family="Helvetica,sans-Serif" font-size="10.00">+</text>
<text text-anchor="start" x="149" y="-125.5" font-family="Helvetica,sans-Serif" font-size="10.00">getOrCreateFrameGeometry</text>
<text text-anchor="start" x="149" y="-114.5" font-family="Helvetica,sans-Serif" font-size="10.00">MapsL1()</text>
<text text-anchor="start" x="136" y="-99.5" font-family="Helvetica,sans-Serif" font-size="10.00">+</text>
<text text-anchor="start" x="149" y="-99.5" font-family="Helvetica,sans-Serif" font-size="10.00">getOrCreateFrameGeometry</text>
<text text-anchor="start" x="149" y="-88.5" font-family="Helvetica,sans-Serif" font-size="10.00">MapsL2()</text>
<text text-anchor="start" x="136" y="-73.5" font-family="Helvetica,sans-Serif" font-size="10.00">+</text>
<text text-anchor="start" x="149" y="-73.5" font-family="Helvetica,sans-Serif" font-size="10.00">getOrCreateFrameAttribute</text>
<text text-anchor="start" x="149" y="-62.5" font-family="Helvetica,sans-Serif" font-size="10.00">MapsL1()</text>
<text text-anchor="start" x="136" y="-47.5" font-family="Helvetica,sans-Serif" font-size="10.00">+</text>
<text text-anchor="start" x="149" y="-47.5" font-family="Helvetica,sans-Serif" font-size="10.00">getOrCreateFrameAttribute</text>
<text text-anchor="start" x="149" y="-36.5" font-family="Helvetica,sans-Serif" font-size="10.00">MapsL2()</text>
<text text-anchor="start" x="136" y="-21.5" font-family="Helvetica,sans-Serif" font-size="10.00">+</text>
<text text-anchor="start" x="149" y="-21.5" font-family="Helvetica,sans-Serif" font-size="10.00">clearGofMaps()</text>
<text text-anchor="start" x="136" y="-6.5" font-family="Helvetica,sans-Serif" font-size="10.00">+</text>
<text text-anchor="start" x="149" y="-6.5" font-family="Helvetica,sans-Serif" font-size="10.00">get()</text>
<polygon fill="#666666" stroke="#666666" points="132,-217.5 132,-217.5 297,-217.5 297,-217.5 132,-217.5"/>
<polygon fill="#666666" stroke="#666666" points="132,-202.5 132,-202.5 297,-202.5 297,-202.5 132,-202.5"/>
<polygon fill="none" stroke="#666666" points="131.5,0 131.5,-235 296.5,-235 296.5,0 131.5,0"/>
</a>
</g>
</g>
<!-- Node2 -->
<g id="Node000002" class="node">
<title>Node2</title>
<g id="a_Node000002"><a xlink:href="classrobin__hood_1_1detail_1_1Table.html" target="_top" xlink:title=" ">
<polygon fill="white" stroke="transparent" points="385,-625 215,-625 215,-337 385,-337 385,-625"/>
<text text-anchor="start" x="220" y="-613" font-family="Helvetica,sans-Serif" font-size="10.00">robin_hood::detail</text>
<text text-anchor="start" x="220" y="-602" font-family="Helvetica,sans-Serif" font-size="10.00">::Table&lt; size_t, std</text>
<text text-anchor="start" x="220" y="-591" font-family="Helvetica,sans-Serif" font-size="10.00">::unique_ptr&lt; std::array</text>
<text text-anchor="start" x="220" y="-580" font-family="Helvetica,sans-Serif" font-size="10.00">&lt; std::vector&lt; uvgvpcc_enc</text>
<text text-anchor="start" x="220" y="-569" font-family="Helvetica,sans-Serif" font-size="10.00">::Patch &gt;, MAX_GOF_SIZE &gt; &gt; &gt;</text>
<text text-anchor="start" x="237.5" y="-554" font-family="Helvetica,sans-Serif" font-size="10.00">+</text>
<text text-anchor="start" x="269" y="-554" font-family="Helvetica,sans-Serif" font-size="10.00">is_flat</text>
<text text-anchor="start" x="237.5" y="-539" font-family="Helvetica,sans-Serif" font-size="10.00">+</text>
<text text-anchor="start" x="269" y="-539" font-family="Helvetica,sans-Serif" font-size="10.00">is_map</text>
<text text-anchor="start" x="237.5" y="-524" font-family="Helvetica,sans-Serif" font-size="10.00">+</text>
<text text-anchor="start" x="269" y="-524" font-family="Helvetica,sans-Serif" font-size="10.00">is_set</text>
<text text-anchor="start" x="237.5" y="-509" font-family="Helvetica,sans-Serif" font-size="10.00">+</text>
<text text-anchor="start" x="269" y="-509" font-family="Helvetica,sans-Serif" font-size="10.00">is_transparent</text>
<text text-anchor="start" x="237.5" y="-494" font-family="Helvetica,sans-Serif" font-size="10.00">+</text>
<text text-anchor="start" x="269" y="-494" font-family="Helvetica,sans-Serif" font-size="10.00">ROBIN_HOOD()</text>
<text text-anchor="start" x="237.5" y="-479" font-family="Helvetica,sans-Serif" font-size="10.00">+</text>
<text text-anchor="start" x="269" y="-479" font-family="Helvetica,sans-Serif" font-size="10.00">ROBIN_HOOD()</text>
<text text-anchor="start" x="237.5" y="-464" font-family="Helvetica,sans-Serif" font-size="10.00">+</text>
<text text-anchor="start" x="269" y="-464" font-family="Helvetica,sans-Serif" font-size="10.00">ROBIN_HOOD()</text>
<text text-anchor="start" x="237.5" y="-449" font-family="Helvetica,sans-Serif" font-size="10.00">+</text>
<text text-anchor="start" x="269" y="-449" font-family="Helvetica,sans-Serif" font-size="10.00">ROBIN_HOOD()</text>
<text text-anchor="start" x="237.5" y="-434" font-family="Helvetica,sans-Serif" font-size="10.00">+</text>
<text text-anchor="start" x="269" y="-434" font-family="Helvetica,sans-Serif" font-size="10.00">ROBIN_HOOD()</text>
<text text-anchor="start" x="237.5" y="-419" font-family="Helvetica,sans-Serif" font-size="10.00">+</text>
<text text-anchor="start" x="269" y="-419" font-family="Helvetica,sans-Serif" font-size="10.00">Table()</text>
<text text-anchor="start" x="237.5" y="-404" font-family="Helvetica,sans-Serif" font-size="10.00">+</text>
<text text-anchor="start" x="269" y="-404" font-family="Helvetica,sans-Serif" font-size="10.00">Table()</text>
<text text-anchor="start" x="237.5" y="-389" font-family="Helvetica,sans-Serif" font-size="10.00">+</text>
<text text-anchor="start" x="269" y="-389" font-family="Helvetica,sans-Serif" font-size="10.00">Table()</text>
<text text-anchor="start" x="237.5" y="-374" font-family="Helvetica,sans-Serif" font-size="10.00">+</text>
<text text-anchor="start" x="269" y="-374" font-family="Helvetica,sans-Serif" font-size="10.00">Table()</text>
<text text-anchor="start" x="237.5" y="-359" font-family="Helvetica,sans-Serif" font-size="10.00">+</text>
<text text-anchor="start" x="269" y="-359" font-family="Helvetica,sans-Serif" font-size="10.00">Table()</text>
<text text-anchor="start" x="269" y="-344" font-family="Helvetica,sans-Serif" font-size="10.00">and 55 more...</text>
<polygon fill="#666666" stroke="#666666" points="215,-564 215,-564 385,-564 385,-564 215,-564"/>
<polygon fill="#666666" stroke="#666666" points="215,-504 215,-504 267,-504 267,-504 215,-504"/>
<polygon fill="#666666" stroke="#666666" points="267,-504 267,-504 385,-504 385,-504 267,-504"/>
<polygon fill="none" stroke="#666666" points="215,-337 215,-625 385,-625 385,-337 215,-337"/>
</a>
</g>
</g>
<!-- Node2&#45;&gt;Node1 -->
<g id="edge1_Node000001_Node000002" class="edge">
<title>Node2&#45;&gt;Node1</title>
<g id="a_edge1_Node000001_Node000002"><a xlink:title=" ">
<path fill="none" stroke="#63b8ff" d="M296.3,-336.86C293.26,-308.71 288.46,-279.66 281,-253 280.41,-250.88 279.78,-248.75 279.12,-246.62"/>
<polygon fill="none" stroke="#63b8ff" points="279.11,-246.59 273.42,-242.15 275.32,-235.2 281.01,-239.63 279.11,-246.59"/>
</a>
</g>
<text text-anchor="middle" x="344" y="-283.5" font-family="Helvetica,sans-Serif" font-size="10.00" fill="grey"> +mapFramePatches</text>
</g>
<!-- Node3 -->
<g id="Node000003" class="node">
<title>Node3</title>
<g id="a_Node000003"><a xlink:href="structrobin__hood_1_1detail_1_1WrapHash.html" target="_top" xlink:title=" ">
<polygon fill="white" stroke="transparent" points="114,-737 0,-737 0,-662 114,-662 114,-737"/>
<text text-anchor="start" x="5" y="-724.5" font-family="Helvetica,sans-Serif" font-size="10.00">robin_hood::detail</text>
<text text-anchor="start" x="5" y="-713.5" font-family="Helvetica,sans-Serif" font-size="10.00">::WrapHash&lt; Hash &gt;</text>
<text text-anchor="start" x="55" y="-698.5" font-family="Helvetica,sans-Serif" font-size="10.00"> </text>
<text text-anchor="start" x="12.5" y="-683.5" font-family="Helvetica,sans-Serif" font-size="10.00">+</text>
<text text-anchor="start" x="34" y="-683.5" font-family="Helvetica,sans-Serif" font-size="10.00">WrapHash()</text>
<text text-anchor="start" x="12.5" y="-668.5" font-family="Helvetica,sans-Serif" font-size="10.00">+</text>
<text text-anchor="start" x="34" y="-668.5" font-family="Helvetica,sans-Serif" font-size="10.00">WrapHash()</text>
<polygon fill="#666666" stroke="#666666" points="0,-708.5 0,-708.5 114,-708.5 114,-708.5 0,-708.5"/>
<polygon fill="#666666" stroke="#666666" points="0,-693.5 0,-693.5 114,-693.5 114,-693.5 0,-693.5"/>
<polygon fill="none" stroke="#666666" points="0,-662 0,-737 114,-737 114,-662 0,-662"/>
</a>
</g>
</g>
<!-- Node3&#45;&gt;Node2 -->
<g id="edge2_Node000002_Node000003" class="edge">
<title>Node3&#45;&gt;Node2</title>
<g id="a_edge2_Node000002_Node000003"><a xlink:title=" ">
<path fill="none" stroke="#63b8ff" d="M122.73,-662.14C122.82,-662.09 122.91,-662.05 123,-662 158.34,-644.19 173.83,-650.62 204,-625 207.65,-621.9 211.21,-618.63 214.69,-615.23"/>
<polygon fill="none" stroke="#63b8ff" points="121.39,-658.89 114.09,-666.57 124.59,-665.12 121.39,-658.89"/>
</a>
</g>
</g>
<!-- Node8 -->
<g id="Node000008" class="node">
<title>Node8</title>
<g id="a_Node000008"><a xlink:href="classrobin__hood_1_1detail_1_1Table.html" target="_top" xlink:title=" ">
<polygon fill="white" stroke="transparent" points="195,-625 65,-625 65,-337 195,-337 195,-625"/>
<text text-anchor="start" x="70" y="-613" font-family="Helvetica,sans-Serif" font-size="10.00">robin_hood::detail</text>
<text text-anchor="start" x="70" y="-602" font-family="Helvetica,sans-Serif" font-size="10.00">::Table&lt; size_t, std</text>
<text text-anchor="start" x="70" y="-591" font-family="Helvetica,sans-Serif" font-size="10.00">::unique_ptr&lt; std::array</text>
<text text-anchor="start" x="70" y="-580" font-family="Helvetica,sans-Serif" font-size="10.00">&lt; std::vector&lt; uint8_t &gt;</text>
<text text-anchor="start" x="72" y="-569" font-family="Helvetica,sans-Serif" font-size="10.00">, MAX_GOF_SIZE &gt; &gt; &gt;</text>
<text text-anchor="start" x="77.5" y="-554" font-family="Helvetica,sans-Serif" font-size="10.00">+</text>
<text text-anchor="start" x="99" y="-554" font-family="Helvetica,sans-Serif" font-size="10.00">is_flat</text>
<text text-anchor="start" x="77.5" y="-539" font-family="Helvetica,sans-Serif" font-size="10.00">+</text>
<text text-anchor="start" x="99" y="-539" font-family="Helvetica,sans-Serif" font-size="10.00">is_map</text>
<text text-anchor="start" x="77.5" y="-524" font-family="Helvetica,sans-Serif" font-size="10.00">+</text>
<text text-anchor="start" x="99" y="-524" font-family="Helvetica,sans-Serif" font-size="10.00">is_set</text>
<text text-anchor="start" x="77.5" y="-509" font-family="Helvetica,sans-Serif" font-size="10.00">+</text>
<text text-anchor="start" x="99" y="-509" font-family="Helvetica,sans-Serif" font-size="10.00">is_transparent</text>
<text text-anchor="start" x="77.5" y="-494" font-family="Helvetica,sans-Serif" font-size="10.00">+</text>
<text text-anchor="start" x="99" y="-494" font-family="Helvetica,sans-Serif" font-size="10.00">ROBIN_HOOD()</text>
<text text-anchor="start" x="77.5" y="-479" font-family="Helvetica,sans-Serif" font-size="10.00">+</text>
<text text-anchor="start" x="99" y="-479" font-family="Helvetica,sans-Serif" font-size="10.00">ROBIN_HOOD()</text>
<text text-anchor="start" x="77.5" y="-464" font-family="Helvetica,sans-Serif" font-size="10.00">+</text>
<text text-anchor="start" x="99" y="-464" font-family="Helvetica,sans-Serif" font-size="10.00">ROBIN_HOOD()</text>
<text text-anchor="start" x="77.5" y="-449" font-family="Helvetica,sans-Serif" font-size="10.00">+</text>
<text text-anchor="start" x="99" y="-449" font-family="Helvetica,sans-Serif" font-size="10.00">ROBIN_HOOD()</text>
<text text-anchor="start" x="77.5" y="-434" font-family="Helvetica,sans-Serif" font-size="10.00">+</text>
<text text-anchor="start" x="99" y="-434" font-family="Helvetica,sans-Serif" font-size="10.00">ROBIN_HOOD()</text>
<text text-anchor="start" x="77.5" y="-419" font-family="Helvetica,sans-Serif" font-size="10.00">+</text>
<text text-anchor="start" x="99" y="-419" font-family="Helvetica,sans-Serif" font-size="10.00">Table()</text>
<text text-anchor="start" x="77.5" y="-404" font-family="Helvetica,sans-Serif" font-size="10.00">+</text>
<text text-anchor="start" x="99" y="-404" font-family="Helvetica,sans-Serif" font-size="10.00">Table()</text>
<text text-anchor="start" x="77.5" y="-389" font-family="Helvetica,sans-Serif" font-size="10.00">+</text>
<text text-anchor="start" x="99" y="-389" font-family="Helvetica,sans-Serif" font-size="10.00">Table()</text>
<text text-anchor="start" x="77.5" y="-374" font-family="Helvetica,sans-Serif" font-size="10.00">+</text>
<text text-anchor="start" x="99" y="-374" font-family="Helvetica,sans-Serif" font-size="10.00">Table()</text>
<text text-anchor="start" x="77.5" y="-359" font-family="Helvetica,sans-Serif" font-size="10.00">+</text>
<text text-anchor="start" x="99" y="-359" font-family="Helvetica,sans-Serif" font-size="10.00">Table()</text>
<text text-anchor="start" x="99" y="-344" font-family="Helvetica,sans-Serif" font-size="10.00">and 55 more...</text>
<polygon fill="#666666" stroke="#666666" points="65,-564 65,-564 195,-564 195,-564 65,-564"/>
<polygon fill="#666666" stroke="#666666" points="65,-504 65,-504 97,-504 97,-504 65,-504"/>
<polygon fill="#666666" stroke="#666666" points="97,-504 97,-504 195,-504 195,-504 97,-504"/>
<polygon fill="none" stroke="#666666" points="65,-337 65,-625 195,-625 195,-337 65,-337"/>
</a>
</g>
</g>
<!-- Node3&#45;&gt;Node8 -->
<g id="edge8_Node000008_Node000003" class="edge">
<title>Node3&#45;&gt;Node8</title>
<g id="a_edge8_Node000008_Node000003"><a xlink:title=" ">
<path fill="none" stroke="#63b8ff" d="M72.66,-652.06C75.45,-643.78 78.49,-634.78 81.65,-625.38"/>
<polygon fill="none" stroke="#63b8ff" points="69.26,-651.18 69.38,-661.77 75.9,-653.42 69.26,-651.18"/>
</a>
</g>
</g>
<!-- Node4 -->
<g id="Node000004" class="node">
<title>Node4</title>
<g id="a_Node000004"><a xlink:title=" ">
<polygon fill="white" stroke="transparent" points="74.5,-823 39.5,-823 39.5,-774 74.5,-774 74.5,-823"/>
<text text-anchor="start" x="45" y="-810.5" font-family="Helvetica,sans-Serif" font-size="10.00">Hash</text>
<text text-anchor="start" x="55.5" y="-795.5" font-family="Helvetica,sans-Serif" font-size="10.00"> </text>
<text text-anchor="start" x="55.5" y="-780.5" font-family="Helvetica,sans-Serif" font-size="10.00"> </text>
<polygon fill="#666666" stroke="#666666" points="40,-805.5 40,-805.5 75,-805.5 75,-805.5 40,-805.5"/>
<polygon fill="#666666" stroke="#666666" points="40,-790.5 40,-790.5 75,-790.5 75,-790.5 40,-790.5"/>
<polygon fill="none" stroke="#666666" points="39.5,-774 39.5,-823 74.5,-823 74.5,-774 39.5,-774"/>
</a>
</g>
</g>
<!-- Node4&#45;&gt;Node3 -->
<g id="edge3_Node000003_Node000004" class="edge">
<title>Node4&#45;&gt;Node3</title>
<g id="a_edge3_Node000003_Node000004"><a xlink:title=" ">
<path fill="none" stroke="#63b8ff" d="M57,-763.5C57,-754.94 57,-745.72 57,-737.05"/>
<polygon fill="none" stroke="#63b8ff" points="53.5,-763.52 57,-773.52 60.5,-763.52 53.5,-763.52"/>
</a>
</g>
</g>
<!-- Node5 -->
<g id="Node000005" class="node">
<title>Node5</title>
<g id="a_Node000005"><a xlink:href="structrobin__hood_1_1detail_1_1WrapKeyEqual.html" target="_top" xlink:title=" ">
<polygon fill="white" stroke="transparent" points="448.5,-737 293.5,-737 293.5,-662 448.5,-662 448.5,-737"/>
<text text-anchor="start" x="299" y="-724.5" font-family="Helvetica,sans-Serif" font-size="10.00">robin_hood::detail</text>
<text text-anchor="start" x="299" y="-713.5" font-family="Helvetica,sans-Serif" font-size="10.00">::WrapKeyEqual&lt; KeyEqual &gt;</text>
<text text-anchor="start" x="369.5" y="-698.5" font-family="Helvetica,sans-Serif" font-size="10.00"> </text>
<text text-anchor="start" x="311.5" y="-683.5" font-family="Helvetica,sans-Serif" font-size="10.00">+</text>
<text text-anchor="start" x="338" y="-683.5" font-family="Helvetica,sans-Serif" font-size="10.00">WrapKeyEqual()</text>
<text text-anchor="start" x="311.5" y="-668.5" font-family="Helvetica,sans-Serif" font-size="10.00">+</text>
<text text-anchor="start" x="338" y="-668.5" font-family="Helvetica,sans-Serif" font-size="10.00">WrapKeyEqual()</text>
<polygon fill="#666666" stroke="#666666" points="294,-708.5 294,-708.5 449,-708.5 449,-708.5 294,-708.5"/>
<polygon fill="#666666" stroke="#666666" points="294,-693.5 294,-693.5 449,-693.5 449,-693.5 294,-693.5"/>
<polygon fill="none" stroke="#666666" points="293.5,-662 293.5,-737 448.5,-737 448.5,-662 293.5,-662"/>
</a>
</g>
</g>
<!-- Node5&#45;&gt;Node2 -->
<g id="edge4_Node000002_Node000005" class="edge">
<title>Node5&#45;&gt;Node2</title>
<g id="a_edge4_Node000002_Node000005"><a xlink:title=" ">
<path fill="none" stroke="#63b8ff" d="M355.77,-652.06C353.06,-643.78 350.1,-634.78 347.02,-625.38"/>
<polygon fill="none" stroke="#63b8ff" points="352.51,-653.36 358.96,-661.77 359.17,-651.18 352.51,-653.36"/>
</a>
</g>
</g>
<!-- Node5&#45;&gt;Node8 -->
<g id="edge9_Node000008_Node000005" class="edge">
<title>Node5&#45;&gt;Node8</title>
<g id="a_edge9_Node000008_Node000005"><a xlink:title=" ">
<path fill="none" stroke="#63b8ff" d="M283.54,-660.96C245.81,-644.52 209.44,-628.2 206,-625 202.2,-621.45 198.55,-617.67 195.05,-613.71"/>
<polygon fill="none" stroke="#63b8ff" points="282.58,-664.36 293.14,-665.14 285.37,-657.94 282.58,-664.36"/>
</a>
</g>
</g>
<!-- Node6 -->
<g id="Node000006" class="node">
<title>Node6</title>
<g id="a_Node000006"><a xlink:title=" ">
<polygon fill="white" stroke="transparent" points="399,-823 343,-823 343,-774 399,-774 399,-823"/>
<text text-anchor="start" x="348" y="-810.5" font-family="Helvetica,sans-Serif" font-size="10.00">KeyEqual</text>
<text text-anchor="start" x="369" y="-795.5" font-family="Helvetica,sans-Serif" font-size="10.00"> </text>
<text text-anchor="start" x="369" y="-780.5" font-family="Helvetica,sans-Serif" font-size="10.00"> </text>
<polygon fill="#666666" stroke="#666666" points="343,-805.5 343,-805.5 399,-805.5 399,-805.5 343,-805.5"/>
<polygon fill="#666666" stroke="#666666" points="343,-790.5 343,-790.5 399,-790.5 399,-790.5 343,-790.5"/>
<polygon fill="none" stroke="#666666" points="343,-774 343,-823 399,-823 399,-774 343,-774"/>
</a>
</g>
</g>
<!-- Node6&#45;&gt;Node5 -->
<g id="edge5_Node000005_Node000006" class="edge">
<title>Node6&#45;&gt;Node5</title>
<g id="a_edge5_Node000005_Node000006"><a xlink:title=" ">
<path fill="none" stroke="#63b8ff" d="M371,-763.5C371,-754.94 371,-745.72 371,-737.05"/>
<polygon fill="none" stroke="#63b8ff" points="367.5,-763.52 371,-773.52 374.5,-763.52 367.5,-763.52"/>
</a>
</g>
</g>
<!-- Node7 -->
<g id="Node000007" class="node">
<title>Node7</title>
<g id="a_Node000007"><a xlink:href="structrobin__hood_1_1detail_1_1NodeAllocator.html" target="_top" xlink:title=" ">
<polygon fill="white" stroke="transparent" points="275.5,-735 132.5,-735 132.5,-664 275.5,-664 275.5,-735"/>
<text text-anchor="start" x="138" y="-722.5" font-family="Helvetica,sans-Serif" font-size="10.00">robin_hood::detail</text>
<text text-anchor="start" x="138" y="-711.5" font-family="Helvetica,sans-Serif" font-size="10.00">::NodeAllocator&lt; T,</text>
<text text-anchor="start" x="138" y="-700.5" font-family="Helvetica,sans-Serif" font-size="10.00"> MinSize, MaxSize, IsFlat &gt;</text>
<text text-anchor="start" x="202.5" y="-685.5" font-family="Helvetica,sans-Serif" font-size="10.00"> </text>
<text text-anchor="start" x="202.5" y="-670.5" font-family="Helvetica,sans-Serif" font-size="10.00"> </text>
<polygon fill="#666666" stroke="#666666" points="133,-695.5 133,-695.5 276,-695.5 276,-695.5 133,-695.5"/>
<polygon fill="#666666" stroke="#666666" points="133,-680.5 133,-680.5 276,-680.5 276,-680.5 133,-680.5"/>
<polygon fill="none" stroke="#666666" points="132.5,-664 132.5,-735 275.5,-735 275.5,-664 132.5,-664"/>
</a>
</g>
</g>
<!-- Node7&#45;&gt;Node2 -->
<g id="edge6_Node000002_Node000007" class="edge">
<title>Node7&#45;&gt;Node2</title>
<g id="a_edge6_Node000002_Node000007"><a xlink:title=" ">
<path fill="none" stroke="#8b1a1a" d="M223.57,-654.36C227.55,-645.39 231.94,-635.49 236.54,-625.12"/>
<polygon fill="none" stroke="#8b1a1a" points="220.28,-653.16 219.42,-663.72 226.68,-655.99 220.28,-653.16"/>
</a>
</g>
</g>
<!-- Node7&#45;&gt;Node8 -->
<g id="edge10_Node000008_Node000007" class="edge">
<title>Node7&#45;&gt;Node8</title>
<g id="a_edge10_Node000008_Node000007"><a xlink:title=" ">
<path fill="none" stroke="#8b1a1a" d="M188.81,-654.07C185.77,-645.18 182.43,-635.38 178.92,-625.12"/>
<polygon fill="none" stroke="#8b1a1a" points="185.56,-655.39 192.11,-663.72 192.19,-653.12 185.56,-655.39"/>
</a>
</g>
</g>
<!-- Node8&#45;&gt;Node1 -->
<g id="edge7_Node000001_Node000008" class="edge">
<title>Node8&#45;&gt;Node1</title>
<g id="a_edge7_Node000001_Node000008"><a xlink:title=" ">
<path fill="none" stroke="#63b8ff" d="M115.17,-336.84C115.85,-308.63 119.16,-279.55 127,-253 127.64,-250.84 128.32,-248.69 129.05,-246.54"/>
<polygon fill="none" stroke="#63b8ff" points="129.12,-246.33 127.47,-239.31 133.32,-235.09 134.97,-242.11 129.12,-246.33"/>
</a>
</g>
<text text-anchor="middle" x="204" y="-311" font-family="Helvetica,sans-Serif" font-size="10.00" fill="grey"> +mapFrameAttributeMapsL1</text>
<text text-anchor="middle" x="204" y="-300" font-family="Helvetica,sans-Serif" font-size="10.00" fill="grey">+mapFrameAttributeMapsL2</text>
<text text-anchor="middle" x="204" y="-289" font-family="Helvetica,sans-Serif" font-size="10.00" fill="grey">+mapFrameGeometryMapsL1</text>
<text text-anchor="middle" x="204" y="-278" font-family="Helvetica,sans-Serif" font-size="10.00" fill="grey">+mapFrameGeometryMapsL2</text>
<text text-anchor="middle" x="204" y="-267" font-family="Helvetica,sans-Serif" font-size="10.00" fill="grey">+mapFrameOccupancyMaps</text>
<text text-anchor="middle" x="204" y="-256" font-family="Helvetica,sans-Serif" font-size="10.00" fill="grey">+mapFrameOccupancyMapsDS</text>
</g>
</g>
</svg>

<g id="navigator" transform="translate(0 0)" fill="#404254">
  <rect fill="#f2f5e9" fill-opacity="0.5" stroke="#606060" stroke-width=".5" x="0" y="0" width="60" height="60"/>
  <use id="zoomplus" xlink:href="#zoomPlus" x="17" y="9" onmousedown="handleZoom(evt,'in')"/>
  <use id="zoomminus" xlink:href="#zoomMin" x="42" y="9" onmousedown="handleZoom(evt,'out')"/>
  <use id="reset" xlink:href="#resetDef" x="30" y="36" onmousedown="handleReset()"/>
   <use id="arrowup" xlink:href="#arrowUp" x="0" y="0" onmousedown="handlePan(0,-1)"/>
  <use id="arrowright" xlink:href="#arrowRight" x="0" y="0" onmousedown="handlePan(1,0)"/>
  <use id="arrowdown" xlink:href="#arrowDown" x="0" y="0" onmousedown="handlePan(0,1)"/>
  <use id="arrowleft" xlink:href="#arrowLeft" x="0" y="0" onmousedown="handlePan(-1,0)"/>
</g>
<svg viewBox="0 0 15 15" width="100%" height="30px" preserveAspectRatio="xMaxYMin meet">
 <g id="arrow_out" transform="scale(0.3 0.3)">
  <a xlink:href="classuvgvpcc__enc_1_1CommonMemory__coll__graph_org.svg" target="_base">
   <rect id="button" ry="5" rx="5" y="6" x="6" height="38" width="38"
        fill="#f2f5e9" fill-opacity="0.5" stroke="#606060" stroke-width="1.0"/>
   <path id="arrow"
     d="M 11.500037,31.436501 C 11.940474,20.09759 22.043105,11.32322 32.158766,21.979434 L 37.068811,17.246167 C 37.068811,17.246167 37.088388,32 37.088388,32 L 22.160133,31.978069 C 22.160133,31.978069 26.997745,27.140456 26.997745,27.140456 C 18.528582,18.264221 13.291696,25.230495 11.500037,31.436501 z"
     style="fill:#404040;"/>
  </a>
 </g>
</svg>

<style type='text/css'>
<![CDATA[
[data-mouse-over-selected='false'] { opacity: 0.7; }
[data-mouse-over-selected='true']  { opacity: 1.0; }
]]>
</style>
<script type="application/ecmascript"><![CDATA[
document.addEventListener('DOMContentLoaded', (event) => {
  highlightEdges();
  highlightAdjacentNodes();
});
]]></script>
</svg>
