<?xml version="1.0" encoding="UTF-8" standalone="no"?>
<!DOCTYPE svg PUBLIC "-//W3C//DTD SVG 1.1//EN"
 "http://www.w3.org/Graphics/SVG/1.1/DTD/svg11.dtd">
<!-- Generated by graphviz version 2.43.0 (0)
 -->
<!-- Title: robin_hood::detail::Table&lt; IsFlat, MaxLoadFactor100, Key, T, Hash, KeyEqual &gt; Pages: 1 -->
<!--zoomable 470 -->

<svg id="main" version="1.1" xmlns="http://www.w3.org/2000/svg" xmlns:xlink="http://www.w3.org/1999/xlink" xml:space="preserve" onload="init(evt)">
<style type="text/css"><![CDATA[
.node, .edge {opacity: 0.7;}
.node.selected, .edge.selected {opacity: 1;}
.edge:hover path { stroke: red; }
.edge:hover polygon { stroke: red; fill: red; }
]]></style>

<defs>
  <circle id="rim" cx="0" cy="0" r="7"/>
  <circle id="rim2" cx="0" cy="0" r="3.5"/>
  <g id="zoomPlus">
    <use xlink:href="#rim" fill="#404040"><set attributeName="fill" to="#808080" begin="zoomplus.mouseover" end="zoomplus.mouseout"/></use>
    <path d="M-4,0h8M0,-4v8" fill="none" stroke="white" stroke-width="1.5" pointer-events="none"/>
  </g>
  <g id="zoomMin">
    <use xlink:href="#rim" fill="#404040"><set attributeName="fill" to="#808080" begin="zoomminus.mouseover" end="zoomminus.mouseout"/></use>
    <path d="M-4,0h8" fill="none" stroke="white" stroke-width="1.5" pointer-events="none"/>
  </g>
  <g id="arrowUp" transform="translate(30 24)">
    <use xlink:href="#rim"/>
    <path pointer-events="none" fill="none" stroke="white" stroke-width="1.5" d="M0,-3.0v7 M-2.5,-0.5L0,-3.0L2.5,-0.5"/>
  </g>
  <g id="arrowRight" transform="rotate(90) translate(36 -43)">
    <use xlink:href="#rim"/>
    <path pointer-events="none" fill="none" stroke="white" stroke-width="1.5" d="M0,-3.0v7 M-2.5,-0.5L0,-3.0L2.5,-0.5"/>
  </g>
  <g id="arrowDown" transform="rotate(180) translate(-30 -48)">
    <use xlink:href="#rim"/>
    <path pointer-events="none" fill="none" stroke="white" stroke-width="1.5" d="M0,-3.0v7 M-2.5,-0.5L0,-3.0L2.5,-0.5"/>
  </g>
  <g id="arrowLeft" transform="rotate(270) translate(-36 17)">
    <use xlink:href="#rim"/>
    <path pointer-events="none" fill="none" stroke="white" stroke-width="1.5" d="M0,-3.0v7 M-2.5,-0.5L0,-3.0L2.5,-0.5"/>
  </g>
  <g id="resetDef">
    <use xlink:href="#rim2" fill="#404040"><set attributeName="fill" to="#808080" begin="reset.mouseover" end="reset.mouseout"/></use>
  </g>
</defs>
<script type="application/ecmascript">
var viewWidth = 457;
var viewHeight = 470;
var sectionId = 'dynsection-1';
</script>
<script type="application/ecmascript" xlink:href="svg.min.js"/>
<svg id="graph" class="graph">
<g id="viewport">
<title>robin_hood::detail::Table&lt; IsFlat, MaxLoadFactor100, Key, T, Hash, KeyEqual &gt;</title>
<!-- Node1 -->
<g id="Node000001" class="node">
<title>Node1</title>
<g id="a_Node000001"><a xlink:title=" ">
<polygon fill="#999999" stroke="transparent" points="300.5,-266 119.5,-266 119.5,0 300.5,0 300.5,-266"/>
<text text-anchor="start" x="125" y="-254" font-family="Helvetica,sans-Serif" font-size="10.00">robin_hood::detail</text>
<text text-anchor="start" x="125" y="-243" font-family="Helvetica,sans-Serif" font-size="10.00">::Table&lt; IsFlat, MaxLoadFactor100,</text>
<text text-anchor="start" x="147" y="-232" font-family="Helvetica,sans-Serif" font-size="10.00"> Key, T, Hash, KeyEqual &gt;</text>
<text text-anchor="start" x="146" y="-217" font-family="Helvetica,sans-Serif" font-size="10.00">+</text>
<text text-anchor="start" x="181" y="-217" font-family="Helvetica,sans-Serif" font-size="10.00">is_flat</text>
<text text-anchor="start" x="146" y="-202" font-family="Helvetica,sans-Serif" font-size="10.00">+</text>
<text text-anchor="start" x="181" y="-202" font-family="Helvetica,sans-Serif" font-size="10.00">is_map</text>
<text text-anchor="start" x="146" y="-187" font-family="Helvetica,sans-Serif" font-size="10.00">+</text>
<text text-anchor="start" x="181" y="-187" font-family="Helvetica,sans-Serif" font-size="10.00">is_set</text>
<text text-anchor="start" x="146" y="-172" font-family="Helvetica,sans-Serif" font-size="10.00">+</text>
<text text-anchor="start" x="181" y="-172" font-family="Helvetica,sans-Serif" font-size="10.00">is_transparent</text>
<text text-anchor="start" x="146" y="-157" font-family="Helvetica,sans-Serif" font-size="10.00">+</text>
<text text-anchor="start" x="181" y="-157" font-family="Helvetica,sans-Serif" font-size="10.00">Table()</text>
<text text-anchor="start" x="146" y="-142" font-family="Helvetica,sans-Serif" font-size="10.00">+</text>
<text text-anchor="start" x="181" y="-142" font-family="Helvetica,sans-Serif" font-size="10.00">Table()</text>
<text text-anchor="start" x="146" y="-127" font-family="Helvetica,sans-Serif" font-size="10.00">+</text>
<text text-anchor="start" x="181" y="-127" font-family="Helvetica,sans-Serif" font-size="10.00">Table()</text>
<text text-anchor="start" x="146" y="-112" font-family="Helvetica,sans-Serif" font-size="10.00">+</text>
<text text-anchor="start" x="181" y="-112" font-family="Helvetica,sans-Serif" font-size="10.00">Table()</text>
<text text-anchor="start" x="146" y="-97" font-family="Helvetica,sans-Serif" font-size="10.00">+</text>
<text text-anchor="start" x="181" y="-97" font-family="Helvetica,sans-Serif" font-size="10.00">Table()</text>
<text text-anchor="start" x="146" y="-82" font-family="Helvetica,sans-Serif" font-size="10.00">+</text>
<text text-anchor="start" x="181" y="-82" font-family="Helvetica,sans-Serif" font-size="10.00">operator=()</text>
<text text-anchor="start" x="146" y="-67" font-family="Helvetica,sans-Serif" font-size="10.00">+</text>
<text text-anchor="start" x="181" y="-67" font-family="Helvetica,sans-Serif" font-size="10.00">Table()</text>
<text text-anchor="start" x="146" y="-52" font-family="Helvetica,sans-Serif" font-size="10.00">+</text>
<text text-anchor="start" x="181" y="-52" font-family="Helvetica,sans-Serif" font-size="10.00">operator=()</text>
<text text-anchor="start" x="146" y="-37" font-family="Helvetica,sans-Serif" font-size="10.00">+</text>
<text text-anchor="start" x="181" y="-37" font-family="Helvetica,sans-Serif" font-size="10.00">swap()</text>
<text text-anchor="start" x="146" y="-22" font-family="Helvetica,sans-Serif" font-size="10.00">+</text>
<text text-anchor="start" x="181" y="-22" font-family="Helvetica,sans-Serif" font-size="10.00">clear()</text>
<text text-anchor="start" x="181" y="-7" font-family="Helvetica,sans-Serif" font-size="10.00">and 55 more...</text>
<polygon fill="#666666" stroke="#666666" points="120,-227 120,-227 301,-227 301,-227 120,-227"/>
<polygon fill="#666666" stroke="#666666" points="120,-167 120,-167 179,-167 179,-167 120,-167"/>
<polygon fill="#666666" stroke="#666666" points="179,-167 179,-167 301,-167 301,-167 179,-167"/>
<polygon fill="none" stroke="#666666" points="119.5,0 119.5,-266 300.5,-266 300.5,0 119.5,0"/>
</a>
</g>
</g>
<!-- Node2 -->
<g id="Node000002" class="node">
<title>Node2</title>
<g id="a_Node000002"><a xlink:href="structrobin__hood_1_1detail_1_1WrapHash.html" target="_top" xlink:title=" ">
<polygon fill="white" stroke="transparent" points="114,-377 0,-377 0,-302 114,-302 114,-377"/>
<text text-anchor="start" x="5" y="-364.5" font-family="Helvetica,sans-Serif" font-size="10.00">robin_hood::detail</text>
<text text-anchor="start" x="5" y="-353.5" font-family="Helvetica,sans-Serif" font-size="10.00">::WrapHash&lt; Hash &gt;</text>
<text text-anchor="start" x="55" y="-338.5" font-family="Helvetica,sans-Serif" font-size="10.00"> </text>
<text text-anchor="start" x="12.5" y="-323.5" font-family="Helvetica,sans-Serif" font-size="10.00">+</text>
<text text-anchor="start" x="34" y="-323.5" font-family="Helvetica,sans-Serif" font-size="10.00">WrapHash()</text>
<text text-anchor="start" x="12.5" y="-308.5" font-family="Helvetica,sans-Serif" font-size="10.00">+</text>
<text text-anchor="start" x="34" y="-308.5" font-family="Helvetica,sans-Serif" font-size="10.00">WrapHash()</text>
<polygon fill="#666666" stroke="#666666" points="0,-348.5 0,-348.5 114,-348.5 114,-348.5 0,-348.5"/>
<polygon fill="#666666" stroke="#666666" points="0,-333.5 0,-333.5 114,-333.5 114,-333.5 0,-333.5"/>
<polygon fill="none" stroke="#666666" points="0,-302 0,-377 114,-377 114,-302 0,-302"/>
</a>
</g>
</g>
<!-- Node2&#45;&gt;Node1 -->
<g id="edge1_Node000001_Node000002" class="edge">
<title>Node2&#45;&gt;Node1</title>
<g id="a_edge1_Node000001_Node000002"><a xlink:title=" ">
<path fill="none" stroke="#63b8ff" d="M90.51,-293.71C99.26,-282.02 109.11,-268.84 119.32,-255.21"/>
<polygon fill="none" stroke="#63b8ff" points="87.54,-291.84 84.35,-301.94 93.15,-296.03 87.54,-291.84"/>
</a>
</g>
</g>
<!-- Node3 -->
<g id="Node000003" class="node">
<title>Node3</title>
<g id="a_Node000003"><a xlink:title=" ">
<polygon fill="white" stroke="transparent" points="74.5,-462 39.5,-462 39.5,-413 74.5,-413 74.5,-462"/>
<text text-anchor="start" x="45" y="-449.5" font-family="Helvetica,sans-Serif" font-size="10.00">Hash</text>
<text text-anchor="start" x="55.5" y="-434.5" font-family="Helvetica,sans-Serif" font-size="10.00"> </text>
<text text-anchor="start" x="55.5" y="-419.5" font-family="Helvetica,sans-Serif" font-size="10.00"> </text>
<polygon fill="#666666" stroke="#666666" points="40,-444.5 40,-444.5 75,-444.5 75,-444.5 40,-444.5"/>
<polygon fill="#666666" stroke="#666666" points="40,-429.5 40,-429.5 75,-429.5 75,-429.5 40,-429.5"/>
<polygon fill="none" stroke="#666666" points="39.5,-413 39.5,-462 74.5,-462 74.5,-413 39.5,-413"/>
</a>
</g>
</g>
<!-- Node3&#45;&gt;Node2 -->
<g id="edge2_Node000002_Node000003" class="edge">
<title>Node3&#45;&gt;Node2</title>
<g id="a_edge2_Node000002_Node000003"><a xlink:title=" ">
<path fill="none" stroke="#63b8ff" d="M57,-402.68C57,-394.38 57,-385.46 57,-377.04"/>
<polygon fill="none" stroke="#63b8ff" points="53.5,-402.77 57,-412.77 60.5,-402.77 53.5,-402.77"/>
</a>
</g>
</g>
<!-- Node4 -->
<g id="Node000004" class="node">
<title>Node4</title>
<g id="a_Node000004"><a xlink:href="structrobin__hood_1_1detail_1_1WrapKeyEqual.html" target="_top" xlink:title=" ">
<polygon fill="white" stroke="transparent" points="287.5,-377 132.5,-377 132.5,-302 287.5,-302 287.5,-377"/>
<text text-anchor="start" x="138" y="-364.5" font-family="Helvetica,sans-Serif" font-size="10.00">robin_hood::detail</text>
<text text-anchor="start" x="138" y="-353.5" font-family="Helvetica,sans-Serif" font-size="10.00">::WrapKeyEqual&lt; KeyEqual &gt;</text>
<text text-anchor="start" x="208.5" y="-338.5" font-family="Helvetica,sans-Serif" font-size="10.00"> </text>
<text text-anchor="start" x="150.5" y="-323.5" font-family="Helvetica,sans-Serif" font-size="10.00">+</text>
<text text-anchor="start" x="177" y="-323.5" font-family="Helvetica,sans-Serif" font-size="10.00">WrapKeyEqual()</text>
<text text-anchor="start" x="150.5" y="-308.5" font-family="Helvetica,sans-Serif" font-size="10.00">+</text>
<text text-anchor="start" x="177" y="-308.5" font-family="Helvetica,sans-Serif" font-size="10.00">WrapKeyEqual()</text>
<polygon fill="#666666" stroke="#666666" points="133,-348.5 133,-348.5 288,-348.5 288,-348.5 133,-348.5"/>
<polygon fill="#666666" stroke="#666666" points="133,-333.5 133,-333.5 288,-333.5 288,-333.5 133,-333.5"/>
<polygon fill="none" stroke="#666666" points="132.5,-302 132.5,-377 287.5,-377 287.5,-302 132.5,-302"/>
</a>
</g>
</g>
<!-- Node4&#45;&gt;Node1 -->
<g id="edge3_Node000001_Node000004" class="edge">
<title>Node4&#45;&gt;Node1</title>
<g id="a_edge3_Node000001_Node000004"><a xlink:title=" ">
<path fill="none" stroke="#63b8ff" d="M210,-291.85C210,-283.87 210,-275.25 210,-266.28"/>
<polygon fill="none" stroke="#63b8ff" points="206.5,-291.94 210,-301.94 213.5,-291.94 206.5,-291.94"/>
</a>
</g>
</g>
<!-- Node5 -->
<g id="Node000005" class="node">
<title>Node5</title>
<g id="a_Node000005"><a xlink:title=" ">
<polygon fill="white" stroke="transparent" points="238,-462 182,-462 182,-413 238,-413 238,-462"/>
<text text-anchor="start" x="187" y="-449.5" font-family="Helvetica,sans-Serif" font-size="10.00">KeyEqual</text>
<text text-anchor="start" x="208" y="-434.5" font-family="Helvetica,sans-Serif" font-size="10.00"> </text>
<text text-anchor="start" x="208" y="-419.5" font-family="Helvetica,sans-Serif" font-size="10.00"> </text>
<polygon fill="#666666" stroke="#666666" points="182,-444.5 182,-444.5 238,-444.5 238,-444.5 182,-444.5"/>
<polygon fill="#666666" stroke="#666666" points="182,-429.5 182,-429.5 238,-429.5 238,-429.5 182,-429.5"/>
<polygon fill="none" stroke="#666666" points="182,-413 182,-462 238,-462 238,-413 182,-413"/>
</a>
</g>
</g>
<!-- Node5&#45;&gt;Node4 -->
<g id="edge4_Node000004_Node000005" class="edge">
<title>Node5&#45;&gt;Node4</title>
<g id="a_edge4_Node000004_Node000005"><a xlink:title=" ">
<path fill="none" stroke="#63b8ff" d="M210,-402.68C210,-394.38 210,-385.46 210,-377.04"/>
<polygon fill="none" stroke="#63b8ff" points="206.5,-402.77 210,-412.77 213.5,-402.77 206.5,-402.77"/>
</a>
</g>
</g>
<!-- Node6 -->
<g id="Node000006" class="node">
<title>Node6</title>
<g id="a_Node000006"><a xlink:href="structrobin__hood_1_1detail_1_1NodeAllocator.html" target="_top" xlink:title=" ">
<polygon fill="white" stroke="transparent" points="448.5,-375 305.5,-375 305.5,-304 448.5,-304 448.5,-375"/>
<text text-anchor="start" x="311" y="-362.5" font-family="Helvetica,sans-Serif" font-size="10.00">robin_hood::detail</text>
<text text-anchor="start" x="311" y="-351.5" font-family="Helvetica,sans-Serif" font-size="10.00">::NodeAllocator&lt; T,</text>
<text text-anchor="start" x="311" y="-340.5" font-family="Helvetica,sans-Serif" font-size="10.00"> MinSize, MaxSize, IsFlat &gt;</text>
<text text-anchor="start" x="375.5" y="-325.5" font-family="Helvetica,sans-Serif" font-size="10.00"> </text>
<text text-anchor="start" x="375.5" y="-310.5" font-family="Helvetica,sans-Serif" font-size="10.00"> </text>
<polygon fill="#666666" stroke="#666666" points="306,-335.5 306,-335.5 449,-335.5 449,-335.5 306,-335.5"/>
<polygon fill="#666666" stroke="#666666" points="306,-320.5 306,-320.5 449,-320.5 449,-320.5 306,-320.5"/>
<polygon fill="none" stroke="#666666" points="305.5,-304 305.5,-375 448.5,-375 448.5,-304 305.5,-304"/>
</a>
</g>
</g>
<!-- Node6&#45;&gt;Node1 -->
<g id="edge5_Node000001_Node000006" class="edge">
<title>Node6&#45;&gt;Node1</title>
<g id="a_edge5_Node000001_Node000006"><a xlink:title=" ">
<path fill="none" stroke="#8b1a1a" d="M342.1,-295.77C329.86,-280.78 315.49,-263.17 300.81,-245.2"/>
<polygon fill="none" stroke="#8b1a1a" points="339.63,-298.28 348.67,-303.81 345.06,-293.85 339.63,-298.28"/>
</a>
</g>
</g>
</g>
</svg>

<g id="navigator" transform="translate(0 0)" fill="#404254">
  <rect fill="#f2f5e9" fill-opacity="0.5" stroke="#606060" stroke-width=".5" x="0" y="0" width="60" height="60"/>
  <use id="zoomplus" xlink:href="#zoomPlus" x="17" y="9" onmousedown="handleZoom(evt,'in')"/>
  <use id="zoomminus" xlink:href="#zoomMin" x="42" y="9" onmousedown="handleZoom(evt,'out')"/>
  <use id="reset" xlink:href="#resetDef" x="30" y="36" onmousedown="handleReset()"/>
   <use id="arrowup" xlink:href="#arrowUp" x="0" y="0" onmousedown="handlePan(0,-1)"/>
  <use id="arrowright" xlink:href="#arrowRight" x="0" y="0" onmousedown="handlePan(1,0)"/>
  <use id="arrowdown" xlink:href="#arrowDown" x="0" y="0" onmousedown="handlePan(0,1)"/>
  <use id="arrowleft" xlink:href="#arrowLeft" x="0" y="0" onmousedown="handlePan(-1,0)"/>
</g>
<svg viewBox="0 0 15 15" width="100%" height="30px" preserveAspectRatio="xMaxYMin meet">
 <g id="arrow_out" transform="scale(0.3 0.3)">
  <a xlink:href="classrobin__hood_1_1detail_1_1Table__coll__graph_org.svg" target="_base">
   <rect id="button" ry="5" rx="5" y="6" x="6" height="38" width="38"
        fill="#f2f5e9" fill-opacity="0.5" stroke="#606060" stroke-width="1.0"/>
   <path id="arrow"
     d="M 11.500037,31.436501 C 11.940474,20.09759 22.043105,11.32322 32.158766,21.979434 L 37.068811,17.246167 C 37.068811,17.246167 37.088388,32 37.088388,32 L 22.160133,31.978069 C 22.160133,31.978069 26.997745,27.140456 26.997745,27.140456 C 18.528582,18.264221 13.291696,25.230495 11.500037,31.436501 z"
     style="fill:#404040;"/>
  </a>
 </g>
</svg>

<style type='text/css'>
<![CDATA[
[data-mouse-over-selected='false'] { opacity: 0.7; }
[data-mouse-over-selected='true']  { opacity: 1.0; }
]]>
</style>
<script type="application/ecmascript"><![CDATA[
document.addEventListener('DOMContentLoaded', (event) => {
  highlightEdges();
  highlightAdjacentNodes();
});
]]></script>
</svg>
