<?xml version="1.0" encoding="UTF-8" standalone="no"?>
<!DOCTYPE svg PUBLIC "-//W3C//DTD SVG 1.1//EN"
 "http://www.w3.org/Graphics/SVG/1.1/DTD/svg11.dtd">
<!-- Generated by graphviz version 2.43.0 (0)
 -->
<!-- Title: PatchGeneration::generateFramePatches Pages: 1 -->
<svg width="728pt" height="382pt"
 viewBox="0.00 0.00 728.00 382.00" xmlns="http://www.w3.org/2000/svg" xmlns:xlink="http://www.w3.org/1999/xlink">
<g id="graph0" class="graph" transform="scale(1 1) rotate(0) translate(4 378)">
<title>PatchGeneration::generateFramePatches</title>
<!-- Node1 -->
<g id="Node000001" class="node">
<title>Node1</title>
<g id="a_Node000001"><a xlink:title=" ">
<polygon fill="#999999" stroke="#666666" points="146,-186 0,-186 0,-156 146,-156 146,-186"/>
<text text-anchor="start" x="8" y="-174" font-family="Helvetica,sans-Serif" font-size="10.00">PatchGeneration::generate</text>
<text text-anchor="middle" x="73" y="-163" font-family="Helvetica,sans-Serif" font-size="10.00">FramePatches</text>
</a>
</g>
</g>
<!-- Node2 -->
<g id="Node000002" class="node">
<title>Node2</title>
<g id="a_Node000002"><a xlink:href="namespaceNormalComputation.html#a46480ca405a1a36a28d865696ba485f0" target="_top" xlink:title=" ">
<polygon fill="white" stroke="#666666" points="336.5,-89 214.5,-89 214.5,-59 336.5,-59 336.5,-89"/>
<text text-anchor="start" x="222.5" y="-77" font-family="Helvetica,sans-Serif" font-size="10.00">NormalComputation::</text>
<text text-anchor="middle" x="275.5" y="-66" font-family="Helvetica,sans-Serif" font-size="10.00">computeNormals</text>
</a>
</g>
</g>
<!-- Node1&#45;&gt;Node2 -->
<g id="edge1_Node000001_Node000002" class="edge">
<title>Node1&#45;&gt;Node2</title>
<g id="a_edge1_Node000001_Node000002"><a xlink:title=" ">
<path fill="none" stroke="#63b8ff" d="M92.4,-156C113.06,-139.83 148.14,-114.36 182,-99 189.14,-95.76 196.78,-92.87 204.5,-90.3"/>
<polygon fill="#63b8ff" stroke="#63b8ff" points="205.8,-93.56 214.29,-87.23 203.7,-86.89 205.8,-93.56"/>
</a>
</g>
</g>
<!-- Node5 -->
<g id="Node000005" class="node">
<title>Node5</title>
<g id="a_Node000005"><a xlink:href="classPPISegmenter.html#a4a7440a210f2209c6048ec22dc338e8b" target="_top" xlink:title=" ">
<polygon fill="white" stroke="#666666" points="369,-234.5 182,-234.5 182,-215.5 369,-215.5 369,-234.5"/>
<text text-anchor="middle" x="275.5" y="-222.5" font-family="Helvetica,sans-Serif" font-size="10.00">PPISegmenter::initialSegmentation</text>
</a>
</g>
</g>
<!-- Node1&#45;&gt;Node5 -->
<g id="edge4_Node000001_Node000005" class="edge">
<title>Node1&#45;&gt;Node5</title>
<g id="a_edge4_Node000001_Node000005"><a xlink:title=" ">
<path fill="none" stroke="#63b8ff" d="M129.85,-186.04C161.15,-194.47 199.69,-204.85 229.12,-212.78"/>
<polygon fill="#63b8ff" stroke="#63b8ff" points="228.55,-216.25 239.12,-215.47 230.37,-209.49 228.55,-216.25"/>
</a>
</g>
</g>
<!-- Node8 -->
<g id="Node000008" class="node">
<title>Node8</title>
<g id="a_Node000008"><a xlink:href="namespaceNormalOrientation.html#a5fadc067a7ed313e80ad559d11e7c67f" target="_top" xlink:title=" ">
<polygon fill="white" stroke="#666666" points="332,-283 219,-283 219,-253 332,-253 332,-283"/>
<text text-anchor="start" x="227" y="-271" font-family="Helvetica,sans-Serif" font-size="10.00">NormalOrientation::</text>
<text text-anchor="middle" x="275.5" y="-260" font-family="Helvetica,sans-Serif" font-size="10.00">orientNormals</text>
</a>
</g>
</g>
<!-- Node1&#45;&gt;Node8 -->
<g id="edge8_Node000001_Node000008" class="edge">
<title>Node1&#45;&gt;Node8</title>
<g id="a_edge8_Node000001_Node000008"><a xlink:title=" ">
<path fill="none" stroke="#63b8ff" d="M92.34,-186.29C112.94,-202.75 147.97,-228.63 182,-244 190.53,-247.85 199.79,-251.17 209.05,-254.01"/>
<polygon fill="#63b8ff" stroke="#63b8ff" points="208.08,-257.37 218.66,-256.79 210.03,-250.64 208.08,-257.37"/>
</a>
</g>
</g>
<!-- Node10 -->
<g id="Node000010" class="node">
<title>Node10</title>
<g id="a_Node000010"><a xlink:href="classPatchSegmentation.html#ae9e1573c095e27775256945bfee089ac" target="_top" xlink:title=" ">
<polygon fill="white" stroke="#666666" points="334,-186 217,-186 217,-156 334,-156 334,-186"/>
<text text-anchor="start" x="225" y="-174" font-family="Helvetica,sans-Serif" font-size="10.00">PatchSegmentation::</text>
<text text-anchor="middle" x="275.5" y="-163" font-family="Helvetica,sans-Serif" font-size="10.00">patchSegmentation</text>
</a>
</g>
</g>
<!-- Node1&#45;&gt;Node10 -->
<g id="edge12_Node000001_Node000010" class="edge">
<title>Node1&#45;&gt;Node10</title>
<g id="a_edge12_Node000001_Node000010"><a xlink:title=" ">
<path fill="none" stroke="#63b8ff" d="M146.1,-171C165.89,-171 187.27,-171 206.81,-171"/>
<polygon fill="#63b8ff" stroke="#63b8ff" points="206.83,-174.5 216.83,-171 206.83,-167.5 206.83,-174.5"/>
</a>
</g>
</g>
<!-- Node13 -->
<g id="Node000013" class="node">
<title>Node13</title>
<g id="a_Node000013"><a xlink:href="namespaceslicingComputation.html#a35448755f6b8bfdb89fa37ed6aa3dcf2" target="_top" xlink:title=" ">
<polygon fill="white" stroke="#666666" points="339,-41 212,-41 212,-11 339,-11 339,-41"/>
<text text-anchor="start" x="220" y="-29" font-family="Helvetica,sans-Serif" font-size="10.00">slicingComputation</text>
<text text-anchor="middle" x="275.5" y="-18" font-family="Helvetica,sans-Serif" font-size="10.00">::ppiAssignationSlicing</text>
</a>
</g>
</g>
<!-- Node1&#45;&gt;Node13 -->
<g id="edge17_Node000001_Node000013" class="edge">
<title>Node1&#45;&gt;Node13</title>
<g id="a_edge17_Node000001_Node000013"><a xlink:title=" ">
<path fill="none" stroke="#63b8ff" d="M83.25,-155.76C99.75,-129.91 136.81,-77.58 182,-50 188.23,-46.2 195.05,-42.99 202.08,-40.29"/>
<polygon fill="#63b8ff" stroke="#63b8ff" points="203.46,-43.52 211.75,-36.92 201.15,-36.91 203.46,-43.52"/>
</a>
</g>
</g>
<!-- Node14 -->
<g id="Node000014" class="node">
<title>Node14</title>
<g id="a_Node000014"><a xlink:href="classPPISegmenter.html#a581dc0d578e49609015b82b1f9c46f8a" target="_top" xlink:title=" ">
<polygon fill="white" stroke="#666666" points="369,-344.5 182,-344.5 182,-325.5 369,-325.5 369,-344.5"/>
<text text-anchor="middle" x="275.5" y="-332.5" font-family="Helvetica,sans-Serif" font-size="10.00">PPISegmenter::refineSegmentation</text>
</a>
</g>
</g>
<!-- Node1&#45;&gt;Node14 -->
<g id="edge18_Node000001_Node000014" class="edge">
<title>Node1&#45;&gt;Node14</title>
<g id="a_edge18_Node000001_Node000014"><a xlink:title=" ">
<path fill="none" stroke="#63b8ff" d="M84.38,-186.19C101.99,-211.05 139.95,-260.78 182,-292 198.68,-304.38 219.49,-314.44 237.14,-321.71"/>
<polygon fill="#63b8ff" stroke="#63b8ff" points="236,-325.02 246.58,-325.46 238.58,-318.52 236,-325.02"/>
</a>
</g>
</g>
<!-- Node16 -->
<g id="Node000016" class="node">
<title>Node16</title>
<g id="a_Node000016"><a xlink:href="utilsPatchGeneration_8hpp.html#a1e33592d61eabca8b87655fb1cf3c737" target="_top" xlink:title=" ">
<polygon fill="white" stroke="#666666" points="313.5,-126.5 237.5,-126.5 237.5,-107.5 313.5,-107.5 313.5,-126.5"/>
<text text-anchor="middle" x="275.5" y="-114.5" font-family="Helvetica,sans-Serif" font-size="10.00">voxelization</text>
</a>
</g>
</g>
<!-- Node1&#45;&gt;Node16 -->
<g id="edge21_Node000001_Node000016" class="edge">
<title>Node1&#45;&gt;Node16</title>
<g id="a_edge21_Node000001_Node000016"><a xlink:title=" ">
<path fill="none" stroke="#63b8ff" d="M129.85,-155.96C161.15,-147.53 199.69,-137.15 229.12,-129.22"/>
<polygon fill="#63b8ff" stroke="#63b8ff" points="230.37,-132.51 239.12,-126.53 228.55,-125.75 230.37,-132.51"/>
</a>
</g>
</g>
<!-- Node3 -->
<g id="Node000003" class="node">
<title>Node3</title>
<g id="a_Node000003"><a xlink:href="namespaceFileExport.html#a6ebdd5de8f9a45307e11b410bb952b8a" target="_top" xlink:title=" ">
<polygon fill="white" stroke="#666666" points="560,-30 405,-30 405,0 560,0 560,-30"/>
<text text-anchor="start" x="413" y="-18" font-family="Helvetica,sans-Serif" font-size="10.00">FileExport::exportPointCloud</text>
<text text-anchor="middle" x="482.5" y="-7" font-family="Helvetica,sans-Serif" font-size="10.00">NormalComputation</text>
</a>
</g>
</g>
<!-- Node2&#45;&gt;Node3 -->
<g id="edge2_Node000002_Node000003" class="edge">
<title>Node2&#45;&gt;Node3</title>
<g id="a_edge2_Node000002_Node000003"><a xlink:title=" ">
<path fill="none" stroke="#63b8ff" d="M336.32,-58.92C347.22,-56.05 358.47,-53 369,-50 374.8,-48.35 399.1,-40.8 423.64,-33.13"/>
<polygon fill="#63b8ff" stroke="#63b8ff" points="424.88,-36.41 433.38,-30.09 422.79,-29.73 424.88,-36.41"/>
</a>
</g>
</g>
<!-- Node4 -->
<g id="Node000004" class="node">
<title>Node4</title>
<g id="a_Node000004"><a xlink:href="namespaceuvgvpcc__enc.html#a69b2cb991ff48de10ff75bc3c0582a54" target="_top" xlink:title=" ">
<polygon fill="white" stroke="#666666" points="720,-234.5 596,-234.5 596,-215.5 720,-215.5 720,-234.5"/>
<text text-anchor="middle" x="658" y="-222.5" font-family="Helvetica,sans-Serif" font-size="10.00">uvgvpcc_enc::zeroPad</text>
</a>
</g>
</g>
<!-- Node3&#45;&gt;Node4 -->
<g id="edge3_Node000003_Node000004" class="edge">
<title>Node3&#45;&gt;Node4</title>
<g id="a_edge3_Node000003_Node000004"><a xlink:title=" ">
<path fill="none" stroke="#63b8ff" d="M546.62,-30.18C551.41,-32.69 555.94,-35.6 560,-39 614.13,-84.32 641.91,-167.67 652.2,-205.46"/>
<polygon fill="#63b8ff" stroke="#63b8ff" points="648.84,-206.44 654.74,-215.23 655.61,-204.68 648.84,-206.44"/>
</a>
</g>
</g>
<!-- Node6 -->
<g id="Node000006" class="node">
<title>Node6</title>
<g id="a_Node000006"><a xlink:href="utilsPatchGeneration_8hpp.html#a254e1f999f13aa89c65618b5cd6f707e" target="_top" xlink:title=" ">
<polygon fill="white" stroke="#666666" points="517,-277.5 448,-277.5 448,-258.5 517,-258.5 517,-277.5"/>
<text text-anchor="middle" x="482.5" y="-265.5" font-family="Helvetica,sans-Serif" font-size="10.00">dotProduct</text>
</a>
</g>
</g>
<!-- Node5&#45;&gt;Node6 -->
<g id="edge5_Node000005_Node000006" class="edge">
<title>Node5&#45;&gt;Node6</title>
<g id="a_edge5_Node000005_Node000006"><a xlink:title=" ">
<path fill="none" stroke="#63b8ff" d="M323.57,-234.6C338.14,-237.59 354.24,-240.91 369,-244 391.68,-248.75 416.91,-254.12 437.72,-258.58"/>
<polygon fill="#63b8ff" stroke="#63b8ff" points="437.03,-262.01 447.55,-260.69 438.5,-255.17 437.03,-262.01"/>
</a>
</g>
</g>
<!-- Node7 -->
<g id="Node000007" class="node">
<title>Node7</title>
<g id="a_Node000007"><a xlink:href="namespaceFileExport.html#abfd9c58f0cd1e6b112ef97709d6a56fd" target="_top" xlink:title=" ">
<polygon fill="white" stroke="#666666" points="560,-240 405,-240 405,-210 560,-210 560,-240"/>
<text text-anchor="start" x="413" y="-228" font-family="Helvetica,sans-Serif" font-size="10.00">FileExport::exportPointCloud</text>
<text text-anchor="middle" x="482.5" y="-217" font-family="Helvetica,sans-Serif" font-size="10.00">InitialSegmentation</text>
</a>
</g>
</g>
<!-- Node5&#45;&gt;Node7 -->
<g id="edge6_Node000005_Node000007" class="edge">
<title>Node5&#45;&gt;Node7</title>
<g id="a_edge6_Node000005_Node000007"><a xlink:title=" ">
<path fill="none" stroke="#63b8ff" d="M369.1,-225C377.63,-225 386.24,-225 394.71,-225"/>
<polygon fill="#63b8ff" stroke="#63b8ff" points="394.96,-228.5 404.96,-225 394.96,-221.5 394.96,-228.5"/>
</a>
</g>
</g>
<!-- Node7&#45;&gt;Node4 -->
<g id="edge7_Node000007_Node000004" class="edge">
<title>Node7&#45;&gt;Node4</title>
<g id="a_edge7_Node000007_Node000004"><a xlink:title=" ">
<path fill="none" stroke="#63b8ff" d="M560.1,-225C568.62,-225 577.27,-225 585.72,-225"/>
<polygon fill="#63b8ff" stroke="#63b8ff" points="585.91,-228.5 595.91,-225 585.91,-221.5 585.91,-228.5"/>
</a>
</g>
</g>
<!-- Node8&#45;&gt;Node6 -->
<g id="edge9_Node000008_Node000006" class="edge">
<title>Node8&#45;&gt;Node6</title>
<g id="a_edge9_Node000008_Node000006"><a xlink:title=" ">
<path fill="none" stroke="#63b8ff" d="M332.25,-268C365.48,-268 407.06,-268 437.89,-268"/>
<polygon fill="#63b8ff" stroke="#63b8ff" points="437.9,-271.5 447.9,-268 437.9,-264.5 437.9,-271.5"/>
</a>
</g>
</g>
<!-- Node9 -->
<g id="Node000009" class="node">
<title>Node9</title>
<g id="a_Node000009"><a xlink:href="namespaceFileExport.html#a47686502937a09de52acf65f0d6357db" target="_top" xlink:title=" ">
<polygon fill="white" stroke="#666666" points="560,-326 405,-326 405,-296 560,-296 560,-326"/>
<text text-anchor="start" x="413" y="-314" font-family="Helvetica,sans-Serif" font-size="10.00">FileExport::exportPointCloud</text>
<text text-anchor="middle" x="482.5" y="-303" font-family="Helvetica,sans-Serif" font-size="10.00">NormalOrientation</text>
</a>
</g>
</g>
<!-- Node8&#45;&gt;Node9 -->
<g id="edge10_Node000008_Node000009" class="edge">
<title>Node8&#45;&gt;Node9</title>
<g id="a_edge10_Node000008_Node000009"><a xlink:title=" ">
<path fill="none" stroke="#63b8ff" d="M332.25,-279.69C353.11,-284.07 377.26,-289.14 399.98,-293.9"/>
<polygon fill="#63b8ff" stroke="#63b8ff" points="399.44,-297.36 409.95,-295.99 400.88,-290.51 399.44,-297.36"/>
</a>
</g>
</g>
<!-- Node9&#45;&gt;Node4 -->
<g id="edge11_Node000009_Node000004" class="edge">
<title>Node9&#45;&gt;Node4</title>
<g id="a_edge11_Node000009_Node000004"><a xlink:title=" ">
<path fill="none" stroke="#63b8ff" d="M537.68,-295.98C545.3,-293.3 552.94,-290.29 560,-287 587.83,-274.02 617.2,-254.28 636.23,-240.58"/>
<polygon fill="#63b8ff" stroke="#63b8ff" points="638.44,-243.3 644.45,-234.57 634.31,-237.65 638.44,-243.3"/>
</a>
</g>
</g>
<!-- Node11 -->
<g id="Node000011" class="node">
<title>Node11</title>
<g id="a_Node000011"><a xlink:href="namespaceFileExport.html#a2679d8ba97301be6900c125953a54986" target="_top" xlink:title=" ">
<polygon fill="white" stroke="#666666" points="560,-192 405,-192 405,-162 560,-162 560,-192"/>
<text text-anchor="start" x="413" y="-180" font-family="Helvetica,sans-Serif" font-size="10.00">FileExport::exportPointCloud</text>
<text text-anchor="middle" x="482.5" y="-169" font-family="Helvetica,sans-Serif" font-size="10.00">PatchSegmentation</text>
</a>
</g>
</g>
<!-- Node10&#45;&gt;Node11 -->
<g id="edge13_Node000010_Node000011" class="edge">
<title>Node10&#45;&gt;Node11</title>
<g id="a_edge13_Node000010_Node000011"><a xlink:title=" ">
<path fill="none" stroke="#63b8ff" d="M334.15,-172.69C352.89,-173.24 374.13,-173.86 394.52,-174.45"/>
<polygon fill="#63b8ff" stroke="#63b8ff" points="394.67,-177.96 404.77,-174.75 394.88,-170.96 394.67,-177.96"/>
</a>
</g>
</g>
<!-- Node12 -->
<g id="Node000012" class="node">
<title>Node12</title>
<g id="a_Node000012"><a xlink:href="classrobin__hood_1_1detail_1_1Table.html#a6c2d436df6800ac290cc26da5961a331" target="_top" xlink:title=" ">
<polygon fill="white" stroke="#666666" points="534.5,-126 430.5,-126 430.5,-96 534.5,-96 534.5,-126"/>
<text text-anchor="start" x="438.5" y="-114" font-family="Helvetica,sans-Serif" font-size="10.00">robin_hood::detail</text>
<text text-anchor="middle" x="482.5" y="-103" font-family="Helvetica,sans-Serif" font-size="10.00">::Table::reserve</text>
</a>
</g>
</g>
<!-- Node10&#45;&gt;Node12 -->
<g id="edge15_Node000010_Node000012" class="edge">
<title>Node10&#45;&gt;Node12</title>
<g id="a_edge15_Node000010_Node000012"><a xlink:title=" ">
<path fill="none" stroke="#63b8ff" d="M327.97,-155.94C356.1,-147.7 391.11,-137.45 420.6,-128.82"/>
<polygon fill="#63b8ff" stroke="#63b8ff" points="421.75,-132.13 430.37,-125.97 419.79,-125.42 421.75,-132.13"/>
</a>
</g>
</g>
<!-- Node11&#45;&gt;Node4 -->
<g id="edge14_Node000011_Node000004" class="edge">
<title>Node11&#45;&gt;Node4</title>
<g id="a_edge14_Node000011_Node000004"><a xlink:title=" ">
<path fill="none" stroke="#63b8ff" d="M537.92,-192.06C561.99,-198.71 589.93,-206.44 612.69,-212.74"/>
<polygon fill="#63b8ff" stroke="#63b8ff" points="611.86,-216.14 622.43,-215.44 613.72,-209.4 611.86,-216.14"/>
</a>
</g>
</g>
<!-- Node12&#45;&gt;Node12 -->
<g id="edge16_Node000012_Node000012" class="edge">
<title>Node12&#45;&gt;Node12</title>
<g id="a_edge16_Node000012_Node000012"><a xlink:title=" ">
<path fill="none" stroke="#63b8ff" d="M451.91,-126.28C445.12,-135.41 455.31,-144 482.5,-144 498.64,-144 508.79,-140.97 512.96,-136.6"/>
<polygon fill="#63b8ff" stroke="#63b8ff" points="516.46,-136.32 513.09,-126.28 509.46,-136.23 516.46,-136.32"/>
</a>
</g>
</g>
<!-- Node15 -->
<g id="Node000015" class="node">
<title>Node15</title>
<g id="a_Node000015"><a xlink:href="namespaceFileExport.html#abb3934fea49bd8651d8498d236496bb8" target="_top" xlink:title=" ">
<polygon fill="white" stroke="#666666" points="560,-374 405,-374 405,-344 560,-344 560,-374"/>
<text text-anchor="start" x="413" y="-362" font-family="Helvetica,sans-Serif" font-size="10.00">FileExport::exportPointCloud</text>
<text text-anchor="middle" x="482.5" y="-351" font-family="Helvetica,sans-Serif" font-size="10.00">RefineSegmentation</text>
</a>
</g>
</g>
<!-- Node14&#45;&gt;Node15 -->
<g id="edge19_Node000014_Node000015" class="edge">
<title>Node14&#45;&gt;Node15</title>
<g id="a_edge19_Node000014_Node000015"><a xlink:title=" ">
<path fill="none" stroke="#63b8ff" d="M357.82,-344.52C369.96,-345.94 382.51,-347.41 394.76,-348.84"/>
<polygon fill="#63b8ff" stroke="#63b8ff" points="394.62,-352.35 404.95,-350.04 395.43,-345.4 394.62,-352.35"/>
</a>
</g>
</g>
<!-- Node15&#45;&gt;Node4 -->
<g id="edge20_Node000015_Node000004" class="edge">
<title>Node15&#45;&gt;Node4</title>
<g id="a_edge20_Node000015_Node000004"><a xlink:title=" ">
<path fill="none" stroke="#63b8ff" d="M543.03,-343.92C548.98,-341.37 554.75,-338.41 560,-335 597.7,-310.51 629.54,-267.48 645.67,-243.13"/>
<polygon fill="#63b8ff" stroke="#63b8ff" points="648.75,-244.81 651.24,-234.51 642.87,-241.01 648.75,-244.81"/>
</a>
</g>
</g>
<!-- Node16&#45;&gt;Node12 -->
<g id="edge22_Node000016_Node000012" class="edge">
<title>Node16&#45;&gt;Node12</title>
<g id="a_edge22_Node000016_Node000012"><a xlink:title=" ">
<path fill="none" stroke="#63b8ff" d="M313.62,-115.91C343.34,-115.04 385.65,-113.81 420.35,-112.79"/>
<polygon fill="#63b8ff" stroke="#63b8ff" points="420.5,-116.29 430.39,-112.5 420.29,-109.29 420.5,-116.29"/>
</a>
</g>
</g>
<!-- Node17 -->
<g id="Node000017" class="node">
<title>Node17</title>
<g id="a_Node000017"><a xlink:href="classrobin__hood_1_1detail_1_1Table.html#a1d9deb34fedb87863788360123c53973" target="_top" xlink:title=" ">
<polygon fill="white" stroke="#666666" points="540,-78 425,-78 425,-48 540,-48 540,-78"/>
<text text-anchor="start" x="433" y="-66" font-family="Helvetica,sans-Serif" font-size="10.00">robin_hood::detail</text>
<text text-anchor="middle" x="482.5" y="-55" font-family="Helvetica,sans-Serif" font-size="10.00">::Table::try_emplace</text>
</a>
</g>
</g>
<!-- Node16&#45;&gt;Node17 -->
<g id="edge23_Node000016_Node000017" class="edge">
<title>Node16&#45;&gt;Node17</title>
<g id="a_edge23_Node000016_Node000017"><a xlink:title=" ">
<path fill="none" stroke="#63b8ff" d="M313.6,-110.25C330.58,-106.94 350.9,-102.66 369,-98 372.02,-97.22 397.72,-89.23 423.79,-81.09"/>
<polygon fill="#63b8ff" stroke="#63b8ff" points="424.87,-84.42 433.37,-78.09 422.78,-77.73 424.87,-84.42"/>
</a>
</g>
</g>
</g>
</svg>
