<?xml version="1.0" encoding="UTF-8" standalone="no"?>
<!DOCTYPE svg PUBLIC "-//W3C//DTD SVG 1.1//EN"
 "http://www.w3.org/Graphics/SVG/1.1/DTD/svg11.dtd">
<!-- Generated by graphviz version 2.43.0 (0)
 -->
<!-- Title: uvgvpcc_enc::CommonMemory::get Pages: 1 -->
<svg width="376pt" height="64pt"
 viewBox="0.00 0.00 376.00 64.00" xmlns="http://www.w3.org/2000/svg" xmlns:xlink="http://www.w3.org/1999/xlink">
<g id="graph0" class="graph" transform="scale(1 1) rotate(0) translate(4 60)">
<title>uvgvpcc_enc::CommonMemory::get</title>
<!-- Node1 -->
<g id="Node000001" class="node">
<title>Node1</title>
<g id="a_Node000001"><a xlink:title=" ">
<polygon fill="#999999" stroke="#666666" points="368,-37 177,-37 177,-18 368,-18 368,-37"/>
<text text-anchor="middle" x="272.5" y="-25" font-family="Helvetica,sans-Serif" font-size="10.00">uvgvpcc_enc::CommonMemory::get</text>
</a>
</g>
</g>
<!-- Node2 -->
<g id="Node000002" class="node">
<title>Node2</title>
<g id="a_Node000002"><a xlink:href="structuvgvpcc__enc_1_1GOF.html#a68f3ff20032ed814b33aca10edb5adc8" target="_top" xlink:title=" ">
<polygon fill="white" stroke="#666666" points="137,-56 4,-56 4,-37 137,-37 137,-56"/>
<text text-anchor="middle" x="70.5" y="-44" font-family="Helvetica,sans-Serif" font-size="10.00">uvgvpcc_enc::GOF::GOF</text>
</a>
</g>
</g>
<!-- Node1&#45;&gt;Node2 -->
<g id="edge1_Node000001_Node000002" class="edge">
<title>Node1&#45;&gt;Node2</title>
<g id="a_edge1_Node000001_Node000002"><a xlink:title=" ">
<path fill="none" stroke="#63b8ff" d="M166.69,-37.46C156.62,-38.41 146.61,-39.36 137.08,-40.27"/>
<polygon fill="#63b8ff" stroke="#63b8ff" points="167.15,-40.93 176.77,-36.5 166.49,-33.96 167.15,-40.93"/>
</a>
</g>
</g>
<!-- Node3 -->
<g id="Node000003" class="node">
<title>Node3</title>
<g id="a_Node000003"><a xlink:href="structuvgvpcc__enc_1_1GOF.html#afa23c10243a14f71d403b75c3e64782d" target="_top" xlink:title=" ">
<polygon fill="white" stroke="#666666" points="141,-19 0,-19 0,0 141,0 141,-19"/>
<text text-anchor="middle" x="70.5" y="-7" font-family="Helvetica,sans-Serif" font-size="10.00">uvgvpcc_enc::GOF::~GOF</text>
</a>
</g>
</g>
<!-- Node1&#45;&gt;Node3 -->
<g id="edge2_Node000001_Node000003" class="edge">
<title>Node1&#45;&gt;Node3</title>
<g id="a_edge2_Node000001_Node000003"><a xlink:title=" ">
<path fill="none" stroke="#63b8ff" d="M166.63,-18.06C157.99,-17.28 149.4,-16.51 141.12,-15.77"/>
<polygon fill="#63b8ff" stroke="#63b8ff" points="166.5,-21.56 176.77,-18.97 167.13,-14.59 166.5,-21.56"/>
</a>
</g>
</g>
</g>
</svg>
