<?xml version="1.0" encoding="UTF-8" standalone="no"?>
<!DOCTYPE svg PUBLIC "-//W3C//DTD SVG 1.1//EN"
 "http://www.w3.org/Graphics/SVG/1.1/DTD/svg11.dtd">
<!-- Generated by graphviz version 2.43.0 (0)
 -->
<!-- Title: PPISegmenter::initialSegmentation Pages: 1 -->
<svg width="522pt" height="76pt"
 viewBox="0.00 0.00 522.00 75.50" xmlns="http://www.w3.org/2000/svg" xmlns:xlink="http://www.w3.org/1999/xlink">
<g id="graph0" class="graph" transform="scale(1 1) rotate(0) translate(4 71.5)">
<title>PPISegmenter::initialSegmentation</title>
<!-- Node1 -->
<g id="Node000001" class="node">
<title>Node1</title>
<g id="a_Node000001"><a xlink:title=" ">
<polygon fill="#999999" stroke="#666666" points="187,-45.5 0,-45.5 0,-26.5 187,-26.5 187,-45.5"/>
<text text-anchor="middle" x="93.5" y="-33.5" font-family="Helvetica,sans-Serif" font-size="10.00">PPISegmenter::initialSegmentation</text>
</a>
</g>
</g>
<!-- Node2 -->
<g id="Node000002" class="node">
<title>Node2</title>
<g id="a_Node000002"><a xlink:href="utilsPatchGeneration_8hpp.html#a254e1f999f13aa89c65618b5cd6f707e" target="_top" xlink:title=" ">
<polygon fill="white" stroke="#666666" points="335,-67.5 266,-67.5 266,-48.5 335,-48.5 335,-67.5"/>
<text text-anchor="middle" x="300.5" y="-55.5" font-family="Helvetica,sans-Serif" font-size="10.00">dotProduct</text>
</a>
</g>
</g>
<!-- Node1&#45;&gt;Node2 -->
<g id="edge1_Node000001_Node000002" class="edge">
<title>Node1&#45;&gt;Node2</title>
<g id="a_edge1_Node000001_Node000002"><a xlink:title=" ">
<path fill="none" stroke="#63b8ff" d="M183.22,-45.52C208.42,-48.23 234.76,-51.05 255.98,-53.33"/>
<polygon fill="#63b8ff" stroke="#63b8ff" points="255.64,-56.81 265.96,-54.4 256.39,-49.85 255.64,-56.81"/>
</a>
</g>
</g>
<!-- Node3 -->
<g id="Node000003" class="node">
<title>Node3</title>
<g id="a_Node000003"><a xlink:href="namespaceFileExport.html#a41bacc142c592180673dcb824ce8d80e" target="_top" xlink:title=" ">
<polygon fill="white" stroke="#666666" points="378,-30 223,-30 223,0 378,0 378,-30"/>
<text text-anchor="start" x="231" y="-18" font-family="Helvetica,sans-Serif" font-size="10.00">FileExport::exportPointCloud</text>
<text text-anchor="middle" x="300.5" y="-7" font-family="Helvetica,sans-Serif" font-size="10.00">InitialSegmentation</text>
</a>
</g>
</g>
<!-- Node1&#45;&gt;Node3 -->
<g id="edge2_Node000001_Node000003" class="edge">
<title>Node1&#45;&gt;Node3</title>
<g id="a_edge2_Node000001_Node000003"><a xlink:title=" ">
<path fill="none" stroke="#63b8ff" d="M187.1,-26.51C195.72,-25.63 204.43,-24.74 212.99,-23.86"/>
<polygon fill="#63b8ff" stroke="#63b8ff" points="213.37,-27.34 222.96,-22.84 212.65,-20.38 213.37,-27.34"/>
</a>
</g>
</g>
<!-- Node4 -->
<g id="Node000004" class="node">
<title>Node4</title>
<g id="a_Node000004"><a xlink:href="namespaceuvgutils.html#a0abc693a4c9342061a1247ee333c53eb" target="_top" xlink:title=" ">
<polygon fill="white" stroke="#666666" points="514,-24.5 414,-24.5 414,-5.5 514,-5.5 514,-24.5"/>
<text text-anchor="middle" x="464" y="-12.5" font-family="Helvetica,sans-Serif" font-size="10.00">uvgutils::zeroPad</text>
</a>
</g>
</g>
<!-- Node3&#45;&gt;Node4 -->
<g id="edge3_Node000003_Node000004" class="edge">
<title>Node3&#45;&gt;Node4</title>
<g id="a_edge3_Node000003_Node000004"><a xlink:title=" ">
<path fill="none" stroke="#63b8ff" d="M378.47,-15C386.92,-15 395.43,-15 403.62,-15"/>
<polygon fill="#63b8ff" stroke="#63b8ff" points="403.8,-18.5 413.8,-15 403.8,-11.5 403.8,-18.5"/>
</a>
</g>
</g>
</g>
</svg>
