<?xml version="1.0" encoding="UTF-8" standalone="no"?>
<!DOCTYPE svg PUBLIC "-//W3C//DTD SVG 1.1//EN"
 "http://www.w3.org/Graphics/SVG/1.1/DTD/svg11.dtd">
<!-- Generated by graphviz version 2.43.0 (0)
 -->
<!-- Title: StatsCollector::collectData Pages: 1 -->
<!--zoomable 91 -->

<svg id="main" version="1.1" xmlns="http://www.w3.org/2000/svg" xmlns:xlink="http://www.w3.org/1999/xlink" xml:space="preserve" onload="init(evt)">
<style type="text/css"><![CDATA[
.node, .edge {opacity: 0.7;}
.node.selected, .edge.selected {opacity: 1;}
.edge:hover path { stroke: red; }
.edge:hover polygon { stroke: red; fill: red; }
]]></style>

<defs>
  <circle id="rim" cx="0" cy="0" r="7"/>
  <circle id="rim2" cx="0" cy="0" r="3.5"/>
  <g id="zoomPlus">
    <use xlink:href="#rim" fill="#404040"><set attributeName="fill" to="#808080" begin="zoomplus.mouseover" end="zoomplus.mouseout"/></use>
    <path d="M-4,0h8M0,-4v8" fill="none" stroke="white" stroke-width="1.5" pointer-events="none"/>
  </g>
  <g id="zoomMin">
    <use xlink:href="#rim" fill="#404040"><set attributeName="fill" to="#808080" begin="zoomminus.mouseover" end="zoomminus.mouseout"/></use>
    <path d="M-4,0h8" fill="none" stroke="white" stroke-width="1.5" pointer-events="none"/>
  </g>
  <g id="arrowUp" transform="translate(30 24)">
    <use xlink:href="#rim"/>
    <path pointer-events="none" fill="none" stroke="white" stroke-width="1.5" d="M0,-3.0v7 M-2.5,-0.5L0,-3.0L2.5,-0.5"/>
  </g>
  <g id="arrowRight" transform="rotate(90) translate(36 -43)">
    <use xlink:href="#rim"/>
    <path pointer-events="none" fill="none" stroke="white" stroke-width="1.5" d="M0,-3.0v7 M-2.5,-0.5L0,-3.0L2.5,-0.5"/>
  </g>
  <g id="arrowDown" transform="rotate(180) translate(-30 -48)">
    <use xlink:href="#rim"/>
    <path pointer-events="none" fill="none" stroke="white" stroke-width="1.5" d="M0,-3.0v7 M-2.5,-0.5L0,-3.0L2.5,-0.5"/>
  </g>
  <g id="arrowLeft" transform="rotate(270) translate(-36 17)">
    <use xlink:href="#rim"/>
    <path pointer-events="none" fill="none" stroke="white" stroke-width="1.5" d="M0,-3.0v7 M-2.5,-0.5L0,-3.0L2.5,-0.5"/>
  </g>
  <g id="resetDef">
    <use xlink:href="#rim2" fill="#404040"><set attributeName="fill" to="#808080" begin="reset.mouseover" end="reset.mouseout"/></use>
  </g>
</defs>
<script type="application/ecmascript">
var viewWidth = 815;
var viewHeight = 91;
var sectionId = 'dynsection-1';
</script>
<script type="application/ecmascript" xlink:href="svg.min.js"/>
<svg id="graph" class="graph">
<g id="viewport">
<title>StatsCollector::collectData</title>
<!-- Node1 -->
<g id="Node000001" class="node">
<title>Node1</title>
<g id="a_Node000001"><a xlink:title=" ">
<polygon fill="#999999" stroke="#666666" points="807,-62 661,-62 661,-43 807,-43 807,-62"/>
<text text-anchor="middle" x="734" y="-50" font-family="Helvetica,sans-Serif" font-size="10.00">StatsCollector::collectData</text>
</a>
</g>
</g>
<!-- Node2 -->
<g id="Node000002" class="node">
<title>Node2</title>
<g id="a_Node000002"><a xlink:href="classPatchGeneration.html#a0f5554a29116f3ceeba740292bffa5d7" target="_top" xlink:title=" ">
<polygon fill="white" stroke="#666666" points="402,-67.5 256,-67.5 256,-37.5 402,-37.5 402,-67.5"/>
<text text-anchor="start" x="264" y="-55.5" font-family="Helvetica,sans-Serif" font-size="10.00">PatchGeneration::generate</text>
<text text-anchor="middle" x="329" y="-44.5" font-family="Helvetica,sans-Serif" font-size="10.00">FramePatches</text>
</a>
</g>
</g>
<!-- Node1&#45;&gt;Node2 -->
<g id="edge1_Node000001_Node000002" class="edge">
<title>Node1&#45;&gt;Node2</title>
<g id="a_edge1_Node000001_Node000002"><a xlink:title=" ">
<path fill="none" stroke="#63b8ff" d="M688.99,-64.57C669.54,-69.3 646.3,-74.16 625,-76.5 542.39,-85.57 520.61,-85.57 438,-76.5 421.2,-74.66 403.19,-71.24 386.78,-67.56"/>
<polygon fill="#63b8ff" stroke="#63b8ff" points="689.94,-67.94 698.79,-62.11 688.24,-61.15 689.94,-67.94"/>
</a>
</g>
</g>
<!-- Node5 -->
<g id="Node000005" class="node">
<title>Node5</title>
<g id="a_Node000005"><a xlink:href="classPatchSegmentation.html#ae9e1573c095e27775256945bfee089ac" target="_top" xlink:title=" ">
<polygon fill="white" stroke="#666666" points="590,-67.5 473,-67.5 473,-37.5 590,-37.5 590,-67.5"/>
<text text-anchor="start" x="481" y="-55.5" font-family="Helvetica,sans-Serif" font-size="10.00">PatchSegmentation::</text>
<text text-anchor="middle" x="531.5" y="-44.5" font-family="Helvetica,sans-Serif" font-size="10.00">patchSegmentation</text>
</a>
</g>
</g>
<!-- Node1&#45;&gt;Node5 -->
<g id="edge4_Node000001_Node000005" class="edge">
<title>Node1&#45;&gt;Node5</title>
<g id="a_edge4_Node000001_Node000005"><a xlink:title=" ">
<path fill="none" stroke="#63b8ff" d="M650.7,-52.5C630.38,-52.5 609.04,-52.5 590.17,-52.5"/>
<polygon fill="#63b8ff" stroke="#63b8ff" points="650.9,-56 660.9,-52.5 650.9,-49 650.9,-56"/>
</a>
</g>
</g>
<!-- Node6 -->
<g id="Node000006" class="node">
<title>Node6</title>
<g id="a_Node000006"><a xlink:href="classPPISegmenter.html#a581dc0d578e49609015b82b1f9c46f8a" target="_top" xlink:title=" ">
<polygon fill="white" stroke="#666666" points="625,-19 438,-19 438,0 625,0 625,-19"/>
<text text-anchor="middle" x="531.5" y="-7" font-family="Helvetica,sans-Serif" font-size="10.00">PPISegmenter::refineSegmentation</text>
</a>
</g>
</g>
<!-- Node1&#45;&gt;Node6 -->
<g id="edge6_Node000001_Node000006" class="edge">
<title>Node1&#45;&gt;Node6</title>
<g id="a_edge6_Node000001_Node000006"><a xlink:title=" ">
<path fill="none" stroke="#63b8ff" d="M680.83,-40.73C663.12,-36.78 643.21,-32.39 625,-28.5 610.25,-25.35 594.16,-22.01 579.59,-19.02"/>
<polygon fill="#63b8ff" stroke="#63b8ff" points="680.45,-44.23 690.98,-43 681.98,-37.4 680.45,-44.23"/>
</a>
</g>
</g>
<!-- Node3 -->
<g id="Node000003" class="node">
<title>Node3</title>
<g id="a_Node000003"><a xlink:href="namespaceuvgvpcc__enc_1_1API.html#ac96f1663ec59a1bbc04778ae958780fa" target="_top" xlink:title="Entry point of the uvgVPCCenc library. Take as input a frame. Create all the jobs for processing this...">
<polygon fill="white" stroke="#666666" points="220,-67.5 77,-67.5 77,-37.5 220,-37.5 220,-67.5"/>
<text text-anchor="start" x="85" y="-55.5" font-family="Helvetica,sans-Serif" font-size="10.00">uvgvpcc_enc::API::encode</text>
<text text-anchor="middle" x="148.5" y="-44.5" font-family="Helvetica,sans-Serif" font-size="10.00">Frame</text>
</a>
</g>
</g>
<!-- Node2&#45;&gt;Node3 -->
<g id="edge2_Node000002_Node000003" class="edge">
<title>Node2&#45;&gt;Node3</title>
<g id="a_edge2_Node000002_Node000003"><a xlink:title=" ">
<path fill="none" stroke="#63b8ff" d="M245.87,-52.5C237.27,-52.5 228.58,-52.5 220.12,-52.5"/>
<polygon fill="#63b8ff" stroke="#63b8ff" points="245.91,-56 255.91,-52.5 245.91,-49 245.91,-56"/>
</a>
</g>
</g>
<!-- Node4 -->
<g id="Node000004" class="node">
<title>Node4</title>
<g id="a_Node000004"><a xlink:href="uvgVPCCencAppExample_8cpp.html#aee608aedd5b0b58f2966c2ff15101925" target="_top" xlink:title="This example application offers a simple approach to working with the uvgVPCCenc library and highligh...">
<polygon fill="white" stroke="#666666" points="41,-62 0,-62 0,-43 41,-43 41,-62"/>
<text text-anchor="middle" x="20.5" y="-50" font-family="Helvetica,sans-Serif" font-size="10.00">main</text>
</a>
</g>
</g>
<!-- Node3&#45;&gt;Node4 -->
<g id="edge3_Node000003_Node000004" class="edge">
<title>Node3&#45;&gt;Node4</title>
<g id="a_edge3_Node000003_Node000004"><a xlink:title=" ">
<path fill="none" stroke="#63b8ff" d="M66.74,-52.5C57.29,-52.5 48.42,-52.5 41.08,-52.5"/>
<polygon fill="#63b8ff" stroke="#63b8ff" points="66.77,-56 76.77,-52.5 66.77,-49 66.77,-56"/>
</a>
</g>
</g>
<!-- Node5&#45;&gt;Node2 -->
<g id="edge5_Node000005_Node000002" class="edge">
<title>Node5&#45;&gt;Node2</title>
<g id="a_edge5_Node000005_Node000002"><a xlink:title=" ">
<path fill="none" stroke="#63b8ff" d="M462.52,-52.5C443.13,-52.5 421.94,-52.5 402.3,-52.5"/>
<polygon fill="#63b8ff" stroke="#63b8ff" points="462.78,-56 472.78,-52.5 462.78,-49 462.78,-56"/>
</a>
</g>
</g>
<!-- Node6&#45;&gt;Node2 -->
<g id="edge7_Node000006_Node000002" class="edge">
<title>Node6&#45;&gt;Node2</title>
<g id="a_edge7_Node000006_Node000002"><a xlink:title=" ">
<path fill="none" stroke="#63b8ff" d="M473.31,-21.1C461.62,-23.51 449.41,-26.06 438,-28.5 424.66,-31.35 410.42,-34.47 396.79,-37.48"/>
<polygon fill="#63b8ff" stroke="#63b8ff" points="474.32,-24.46 483.41,-19.02 472.91,-17.61 474.32,-24.46"/>
</a>
</g>
</g>
</g>
</svg>

<g id="navigator" transform="translate(0 0)" fill="#404254">
  <rect fill="#f2f5e9" fill-opacity="0.5" stroke="#606060" stroke-width=".5" x="0" y="0" width="60" height="60"/>
  <use id="zoomplus" xlink:href="#zoomPlus" x="17" y="9" onmousedown="handleZoom(evt,'in')"/>
  <use id="zoomminus" xlink:href="#zoomMin" x="42" y="9" onmousedown="handleZoom(evt,'out')"/>
  <use id="reset" xlink:href="#resetDef" x="30" y="36" onmousedown="handleReset()"/>
   <use id="arrowup" xlink:href="#arrowUp" x="0" y="0" onmousedown="handlePan(0,-1)"/>
  <use id="arrowright" xlink:href="#arrowRight" x="0" y="0" onmousedown="handlePan(1,0)"/>
  <use id="arrowdown" xlink:href="#arrowDown" x="0" y="0" onmousedown="handlePan(0,1)"/>
  <use id="arrowleft" xlink:href="#arrowLeft" x="0" y="0" onmousedown="handlePan(-1,0)"/>
</g>
<svg viewBox="0 0 15 15" width="100%" height="30px" preserveAspectRatio="xMaxYMin meet">
 <g id="arrow_out" transform="scale(0.3 0.3)">
  <a xlink:href="classStatsCollector_ab1a99cc3ba798bf5d01e16156d8afe41_icgraph_org.svg" target="_base">
   <rect id="button" ry="5" rx="5" y="6" x="6" height="38" width="38"
        fill="#f2f5e9" fill-opacity="0.5" stroke="#606060" stroke-width="1.0"/>
   <path id="arrow"
     d="M 11.500037,31.436501 C 11.940474,20.09759 22.043105,11.32322 32.158766,21.979434 L 37.068811,17.246167 C 37.068811,17.246167 37.088388,32 37.088388,32 L 22.160133,31.978069 C 22.160133,31.978069 26.997745,27.140456 26.997745,27.140456 C 18.528582,18.264221 13.291696,25.230495 11.500037,31.436501 z"
     style="fill:#404040;"/>
  </a>
 </g>
</svg>

<style type='text/css'>
<![CDATA[
[data-mouse-over-selected='false'] { opacity: 0.7; }
[data-mouse-over-selected='true']  { opacity: 1.0; }
]]>
</style>
<script type="application/ecmascript"><![CDATA[
document.addEventListener('DOMContentLoaded', (event) => {
  highlightEdges();
  highlightAdjacentNodes();
});
]]></script>
</svg>
