<?xml version="1.0" encoding="UTF-8" standalone="no"?>
<!DOCTYPE svg PUBLIC "-//W3C//DTD SVG 1.1//EN"
 "http://www.w3.org/Graphics/SVG/1.1/DTD/svg11.dtd">
<!-- Generated by graphviz version 2.43.0 (0)
 -->
<!-- Title: MapGenerationBaseLine::writeFrameMapsYUV Pages: 1 -->
<svg width="572pt" height="38pt"
 viewBox="0.00 0.00 572.00 38.00" xmlns="http://www.w3.org/2000/svg" xmlns:xlink="http://www.w3.org/1999/xlink">
<g id="graph0" class="graph" transform="scale(1 1) rotate(0) translate(4 34)">
<title>MapGenerationBaseLine::writeFrameMapsYUV</title>
<!-- Node1 -->
<g id="Node000001" class="node">
<title>Node1</title>
<g id="a_Node000001"><a xlink:title=" ">
<polygon fill="#999999" stroke="#666666" points="564,-30 428,-30 428,0 564,0 564,-30"/>
<text text-anchor="start" x="436" y="-18" font-family="Helvetica,sans-Serif" font-size="10.00">MapGenerationBaseLine</text>
<text text-anchor="middle" x="496" y="-7" font-family="Helvetica,sans-Serif" font-size="10.00">::writeFrameMapsYUV</text>
</a>
</g>
</g>
<!-- Node2 -->
<g id="Node000002" class="node">
<title>Node2</title>
<g id="a_Node000002"><a xlink:href="classMapGenerationBaseLine.html#a53f5348d65c2eddbee92d2af79dec6b8" target="_top" xlink:title=" ">
<polygon fill="white" stroke="#666666" points="392,-30 256,-30 256,0 392,0 392,-30"/>
<text text-anchor="start" x="264" y="-18" font-family="Helvetica,sans-Serif" font-size="10.00">MapGenerationBaseLine</text>
<text text-anchor="middle" x="324" y="-7" font-family="Helvetica,sans-Serif" font-size="10.00">::generateFrameMaps</text>
</a>
</g>
</g>
<!-- Node1&#45;&gt;Node2 -->
<g id="edge1_Node000001_Node000002" class="edge">
<title>Node1&#45;&gt;Node2</title>
<g id="a_edge1_Node000001_Node000002"><a xlink:title=" ">
<path fill="none" stroke="#63b8ff" d="M417.58,-15C409.12,-15 400.57,-15 392.26,-15"/>
<polygon fill="#63b8ff" stroke="#63b8ff" points="417.81,-18.5 427.81,-15 417.81,-11.5 417.81,-18.5"/>
</a>
</g>
</g>
<!-- Node3 -->
<g id="Node000003" class="node">
<title>Node3</title>
<g id="a_Node000003"><a xlink:href="namespaceuvgvpcc__enc_1_1API.html#adbce6afc710547457b42680ba4e6366c" target="_top" xlink:title="Entry point of the uvgVPCCenc library. Take as input a frame. Create all the jobs for processing this...">
<polygon fill="white" stroke="#666666" points="220,-30 77,-30 77,0 220,0 220,-30"/>
<text text-anchor="start" x="85" y="-18" font-family="Helvetica,sans-Serif" font-size="10.00">uvgvpcc_enc::API::encode</text>
<text text-anchor="middle" x="148.5" y="-7" font-family="Helvetica,sans-Serif" font-size="10.00">Frame</text>
</a>
</g>
</g>
<!-- Node2&#45;&gt;Node3 -->
<g id="edge2_Node000002_Node000003" class="edge">
<title>Node2&#45;&gt;Node3</title>
<g id="a_edge2_Node000002_Node000003"><a xlink:title=" ">
<path fill="none" stroke="#63b8ff" d="M245.64,-15C237.15,-15 228.54,-15 220.13,-15"/>
<polygon fill="#63b8ff" stroke="#63b8ff" points="245.92,-18.5 255.92,-15 245.92,-11.5 245.92,-18.5"/>
</a>
</g>
</g>
<!-- Node4 -->
<g id="Node000004" class="node">
<title>Node4</title>
<g id="a_Node000004"><a xlink:href="uvgVPCCencAppExample_8cpp.html#aee608aedd5b0b58f2966c2ff15101925" target="_top" xlink:title="This example application offers a simple approach to working with the uvgVPCCenc library and highligh...">
<polygon fill="white" stroke="#666666" points="41,-24.5 0,-24.5 0,-5.5 41,-5.5 41,-24.5"/>
<text text-anchor="middle" x="20.5" y="-12.5" font-family="Helvetica,sans-Serif" font-size="10.00">main</text>
</a>
</g>
</g>
<!-- Node3&#45;&gt;Node4 -->
<g id="edge3_Node000003_Node000004" class="edge">
<title>Node3&#45;&gt;Node4</title>
<g id="a_edge3_Node000003_Node000004"><a xlink:title=" ">
<path fill="none" stroke="#63b8ff" d="M66.74,-15C57.29,-15 48.42,-15 41.08,-15"/>
<polygon fill="#63b8ff" stroke="#63b8ff" points="66.77,-18.5 76.77,-15 66.77,-11.5 66.77,-18.5"/>
</a>
</g>
</g>
</g>
</svg>
