<?xml version="1.0" encoding="UTF-8" standalone="no"?>
<!DOCTYPE svg PUBLIC "-//W3C//DTD SVG 1.1//EN"
 "http://www.w3.org/Graphics/SVG/1.1/DTD/svg11.dtd">
<!-- Generated by graphviz version 2.43.0 (0)
 -->
<!-- Title: PatchGeneration::generateFramePatches Pages: 1 -->
<!--zoomable 786 -->

<svg id="main" version="1.1" xmlns="http://www.w3.org/2000/svg" xmlns:xlink="http://www.w3.org/1999/xlink" xml:space="preserve" onload="init(evt)">
<style type="text/css"><![CDATA[
.node, .edge {opacity: 0.7;}
.node.selected, .edge.selected {opacity: 1;}
.edge:hover path { stroke: red; }
.edge:hover polygon { stroke: red; fill: red; }
]]></style>

<defs>
  <circle id="rim" cx="0" cy="0" r="7"/>
  <circle id="rim2" cx="0" cy="0" r="3.5"/>
  <g id="zoomPlus">
    <use xlink:href="#rim" fill="#404040"><set attributeName="fill" to="#808080" begin="zoomplus.mouseover" end="zoomplus.mouseout"/></use>
    <path d="M-4,0h8M0,-4v8" fill="none" stroke="white" stroke-width="1.5" pointer-events="none"/>
  </g>
  <g id="zoomMin">
    <use xlink:href="#rim" fill="#404040"><set attributeName="fill" to="#808080" begin="zoomminus.mouseover" end="zoomminus.mouseout"/></use>
    <path d="M-4,0h8" fill="none" stroke="white" stroke-width="1.5" pointer-events="none"/>
  </g>
  <g id="arrowUp" transform="translate(30 24)">
    <use xlink:href="#rim"/>
    <path pointer-events="none" fill="none" stroke="white" stroke-width="1.5" d="M0,-3.0v7 M-2.5,-0.5L0,-3.0L2.5,-0.5"/>
  </g>
  <g id="arrowRight" transform="rotate(90) translate(36 -43)">
    <use xlink:href="#rim"/>
    <path pointer-events="none" fill="none" stroke="white" stroke-width="1.5" d="M0,-3.0v7 M-2.5,-0.5L0,-3.0L2.5,-0.5"/>
  </g>
  <g id="arrowDown" transform="rotate(180) translate(-30 -48)">
    <use xlink:href="#rim"/>
    <path pointer-events="none" fill="none" stroke="white" stroke-width="1.5" d="M0,-3.0v7 M-2.5,-0.5L0,-3.0L2.5,-0.5"/>
  </g>
  <g id="arrowLeft" transform="rotate(270) translate(-36 17)">
    <use xlink:href="#rim"/>
    <path pointer-events="none" fill="none" stroke="white" stroke-width="1.5" d="M0,-3.0v7 M-2.5,-0.5L0,-3.0L2.5,-0.5"/>
  </g>
  <g id="resetDef">
    <use xlink:href="#rim2" fill="#404040"><set attributeName="fill" to="#808080" begin="reset.mouseover" end="reset.mouseout"/></use>
  </g>
</defs>
<script type="application/ecmascript">
var viewWidth = 923;
var viewHeight = 786;
var sectionId = 'dynsection-1';
</script>
<script type="application/ecmascript" xlink:href="svg.min.js"/>
<svg id="graph" class="graph">
<g id="viewport">
<title>PatchGeneration::generateFramePatches</title>
<!-- Node1 -->
<g id="Node000001" class="node">
<title>Node1</title>
<g id="a_Node000001"><a xlink:title=" ">
<polygon fill="#999999" stroke="#666666" points="146,-652 0,-652 0,-622 146,-622 146,-652"/>
<text text-anchor="start" x="8" y="-640" font-family="Helvetica,sans-Serif" font-size="10.00">PatchGeneration::generate</text>
<text text-anchor="middle" x="73" y="-629" font-family="Helvetica,sans-Serif" font-size="10.00">FramePatches</text>
</a>
</g>
</g>
<!-- Node2 -->
<g id="Node000002" class="node">
<title>Node2</title>
<g id="a_Node000002"><a xlink:href="namespaceNormalComputation.html#a46480ca405a1a36a28d865696ba485f0" target="_top" xlink:title=" ">
<polygon fill="white" stroke="#666666" points="336.5,-754 214.5,-754 214.5,-724 336.5,-724 336.5,-754"/>
<text text-anchor="start" x="222.5" y="-742" font-family="Helvetica,sans-Serif" font-size="10.00">NormalComputation::</text>
<text text-anchor="middle" x="275.5" y="-731" font-family="Helvetica,sans-Serif" font-size="10.00">computeNormals</text>
</a>
</g>
</g>
<!-- Node1&#45;&gt;Node2 -->
<g id="edge1_Node000001_Node000002" class="edge">
<title>Node1&#45;&gt;Node2</title>
<g id="a_edge1_Node000001_Node000002"><a xlink:title=" ">
<path fill="none" stroke="#63b8ff" d="M90.69,-652.14C110.89,-669.7 146.63,-698.36 182,-715 189.07,-718.33 196.67,-721.24 204.37,-723.78"/>
<polygon fill="#63b8ff" stroke="#63b8ff" points="203.55,-727.19 214.14,-726.81 205.62,-720.51 203.55,-727.19"/>
</a>
</g>
</g>
<!-- Node8 -->
<g id="Node000008" class="node">
<title>Node8</title>
<g id="a_Node000008"><a xlink:href="classPPISegmenter.html#a96b9ea22784cdc373e67a724e3019475" target="_top" xlink:title=" ">
<polygon fill="white" stroke="#666666" points="369,-668.5 182,-668.5 182,-649.5 369,-649.5 369,-668.5"/>
<text text-anchor="middle" x="275.5" y="-656.5" font-family="Helvetica,sans-Serif" font-size="10.00">PPISegmenter::initialSegmentation</text>
</a>
</g>
</g>
<!-- Node1&#45;&gt;Node8 -->
<g id="edge7_Node000001_Node000008" class="edge">
<title>Node1&#45;&gt;Node8</title>
<g id="a_edge7_Node000001_Node000008"><a xlink:title=" ">
<path fill="none" stroke="#63b8ff" d="M146.1,-644.91C156.31,-646.03 166.94,-647.2 177.53,-648.36"/>
<polygon fill="#63b8ff" stroke="#63b8ff" points="177.32,-651.86 187.65,-649.47 178.09,-644.9 177.32,-651.86"/>
</a>
</g>
</g>
<!-- Node10 -->
<g id="Node000010" class="node">
<title>Node10</title>
<g id="a_Node000010"><a xlink:href="namespaceNormalOrientation.html#a5fadc067a7ed313e80ad559d11e7c67f" target="_top" xlink:title=" ">
<polygon fill="white" stroke="#666666" points="332,-631 219,-631 219,-601 332,-601 332,-631"/>
<text text-anchor="start" x="227" y="-619" font-family="Helvetica,sans-Serif" font-size="10.00">NormalOrientation::</text>
<text text-anchor="middle" x="275.5" y="-608" font-family="Helvetica,sans-Serif" font-size="10.00">orientNormals</text>
</a>
</g>
</g>
<!-- Node1&#45;&gt;Node10 -->
<g id="edge11_Node000001_Node000010" class="edge">
<title>Node1&#45;&gt;Node10</title>
<g id="a_edge11_Node000001_Node000010"><a xlink:title=" ">
<path fill="none" stroke="#63b8ff" d="M146.1,-629.45C166.56,-627.31 188.72,-624.98 208.78,-622.88"/>
<polygon fill="#63b8ff" stroke="#63b8ff" points="209.16,-626.36 218.74,-621.84 208.43,-619.4 209.16,-626.36"/>
</a>
</g>
</g>
<!-- Node11 -->
<g id="Node000011" class="node">
<title>Node11</title>
<g id="a_Node000011"><a xlink:href="classPatchSegmentation.html#ae9e1573c095e27775256945bfee089ac" target="_top" xlink:title=" ">
<polygon fill="white" stroke="#666666" points="334,-407 217,-407 217,-377 334,-377 334,-407"/>
<text text-anchor="start" x="225" y="-395" font-family="Helvetica,sans-Serif" font-size="10.00">PatchSegmentation::</text>
<text text-anchor="middle" x="275.5" y="-384" font-family="Helvetica,sans-Serif" font-size="10.00">patchSegmentation</text>
</a>
</g>
</g>
<!-- Node1&#45;&gt;Node11 -->
<g id="edge15_Node000001_Node000011" class="edge">
<title>Node1&#45;&gt;Node11</title>
<g id="a_edge15_Node000001_Node000011"><a xlink:title=" ">
<path fill="none" stroke="#63b8ff" d="M86.54,-621.67C120.66,-579.98 215.3,-464.34 255.76,-414.9"/>
<polygon fill="#63b8ff" stroke="#63b8ff" points="258.59,-416.96 262.22,-407.01 253.18,-412.53 258.59,-416.96"/>
</a>
</g>
</g>
<!-- Node30 -->
<g id="Node000030" class="node">
<title>Node30</title>
<g id="a_Node000030"><a xlink:href="classPPISegmenter.html#a6d388df0893b2c0d43b730c7dd32f56f" target="_top" xlink:title=" ">
<polygon fill="white" stroke="#666666" points="369,-705.5 182,-705.5 182,-686.5 369,-686.5 369,-705.5"/>
<text text-anchor="middle" x="275.5" y="-693.5" font-family="Helvetica,sans-Serif" font-size="10.00">PPISegmenter::refineSegmentation</text>
</a>
</g>
</g>
<!-- Node1&#45;&gt;Node30 -->
<g id="edge43_Node000001_Node000030" class="edge">
<title>Node1&#45;&gt;Node30</title>
<g id="a_edge43_Node000001_Node000030"><a xlink:title=" ">
<path fill="none" stroke="#63b8ff" d="M110.53,-652.11C131.24,-660.27 157.78,-670.07 182,-677 191.24,-679.64 201.1,-682.07 210.81,-684.25"/>
<polygon fill="#63b8ff" stroke="#63b8ff" points="210.33,-687.73 220.85,-686.42 211.81,-680.88 210.33,-687.73"/>
</a>
</g>
</g>
<!-- Node31 -->
<g id="Node000031" class="node">
<title>Node31</title>
<g id="a_Node000031"><a xlink:href="utilsPatchGeneration_8hpp.html#a1e33592d61eabca8b87655fb1cf3c737" target="_top" xlink:title=" ">
<polygon fill="white" stroke="#666666" points="313.5,-72.5 237.5,-72.5 237.5,-53.5 313.5,-53.5 313.5,-72.5"/>
<text text-anchor="middle" x="275.5" y="-60.5" font-family="Helvetica,sans-Serif" font-size="10.00">voxelization</text>
</a>
</g>
</g>
<!-- Node1&#45;&gt;Node31 -->
<g id="edge46_Node000001_Node000031" class="edge">
<title>Node1&#45;&gt;Node31</title>
<g id="a_edge46_Node000001_Node000031"><a xlink:title=" ">
<path fill="none" stroke="#63b8ff" d="M79.26,-621.94C107.02,-542.47 236.39,-172.11 267.67,-82.54"/>
<polygon fill="#63b8ff" stroke="#63b8ff" points="271.07,-83.44 271.06,-72.84 264.46,-81.13 271.07,-83.44"/>
</a>
</g>
</g>
<!-- Node3 -->
<g id="Node000003" class="node">
<title>Node3</title>
<g id="a_Node000003"><a xlink:href="namespaceNormalComputation.html#a68400b431752d36119a550beaafd042e" target="_top" xlink:title=" ">
<polygon fill="white" stroke="#666666" points="546.5,-754 424.5,-754 424.5,-724 546.5,-724 546.5,-754"/>
<text text-anchor="start" x="432.5" y="-742" font-family="Helvetica,sans-Serif" font-size="10.00">NormalComputation::</text>
<text text-anchor="middle" x="485.5" y="-731" font-family="Helvetica,sans-Serif" font-size="10.00">computeNormal</text>
</a>
</g>
</g>
<!-- Node2&#45;&gt;Node3 -->
<g id="edge2_Node000002_Node000003" class="edge">
<title>Node2&#45;&gt;Node3</title>
<g id="a_edge2_Node000002_Node000003"><a xlink:title=" ">
<path fill="none" stroke="#63b8ff" d="M336.66,-739C360.92,-739 389.06,-739 414.25,-739"/>
<polygon fill="#63b8ff" stroke="#63b8ff" points="414.47,-742.5 424.47,-739 414.47,-735.5 414.47,-742.5"/>
</a>
</g>
</g>
<!-- Node6 -->
<g id="Node000006" class="node">
<title>Node6</title>
<g id="a_Node000006"><a xlink:href="utilsPatchGeneration_8hpp.html#a7e03bd9f637d6875e048306bf9f014a2" target="_top" xlink:title=" ">
<polygon fill="white" stroke="#666666" points="536,-668.5 435,-668.5 435,-649.5 536,-649.5 536,-668.5"/>
<text text-anchor="middle" x="485.5" y="-656.5" font-family="Helvetica,sans-Serif" font-size="10.00">exportPointCloud</text>
</a>
</g>
</g>
<!-- Node2&#45;&gt;Node6 -->
<g id="edge5_Node000002_Node000006" class="edge">
<title>Node2&#45;&gt;Node6</title>
<g id="a_edge5_Node000002_Node000006"><a xlink:title=" ">
<path fill="none" stroke="#63b8ff" d="M336.68,-728.6C347.88,-725.24 359.14,-720.82 369,-715 389.04,-703.18 384.78,-688.51 405,-677 411.26,-673.44 418.17,-670.58 425.22,-668.29"/>
<polygon fill="#63b8ff" stroke="#63b8ff" points="426.25,-671.64 434.89,-665.5 424.31,-664.91 426.25,-671.64"/>
</a>
</g>
</g>
<!-- Node7 -->
<g id="Node000007" class="node">
<title>Node7</title>
<g id="a_Node000007"><a xlink:href="namespaceuvgvpcc__enc.html#a69b2cb991ff48de10ff75bc3c0582a54" target="_top" xlink:title=" ">
<polygon fill="white" stroke="#666666" points="547.5,-705.5 423.5,-705.5 423.5,-686.5 547.5,-686.5 547.5,-705.5"/>
<text text-anchor="middle" x="485.5" y="-693.5" font-family="Helvetica,sans-Serif" font-size="10.00">uvgvpcc_enc::zeroPad</text>
</a>
</g>
</g>
<!-- Node2&#45;&gt;Node7 -->
<g id="edge6_Node000002_Node000007" class="edge">
<title>Node2&#45;&gt;Node7</title>
<g id="a_edge6_Node000002_Node000007"><a xlink:title=" ">
<path fill="none" stroke="#63b8ff" d="M336.66,-726.56C365.51,-720.6 399.88,-713.49 428.21,-707.64"/>
<polygon fill="#63b8ff" stroke="#63b8ff" points="429.27,-710.99 438.35,-705.54 427.85,-704.14 429.27,-710.99"/>
</a>
</g>
</g>
<!-- Node4 -->
<g id="Node000004" class="node">
<title>Node4</title>
<g id="a_Node000004"><a xlink:href="namespaceNormalComputation.html#a023db1970e149a658bad91da7aef758f" target="_top" xlink:title=" ">
<polygon fill="white" stroke="#666666" points="738,-730 616,-730 616,-700 738,-700 738,-730"/>
<text text-anchor="start" x="624" y="-718" font-family="Helvetica,sans-Serif" font-size="10.00">NormalComputation::</text>
<text text-anchor="middle" x="677" y="-707" font-family="Helvetica,sans-Serif" font-size="10.00">computeCovMat</text>
</a>
</g>
</g>
<!-- Node3&#45;&gt;Node4 -->
<g id="edge3_Node000003_Node000004" class="edge">
<title>Node3&#45;&gt;Node4</title>
<g id="a_edge3_Node000003_Node000004"><a xlink:title=" ">
<path fill="none" stroke="#63b8ff" d="M546.72,-731.37C565.55,-728.99 586.48,-726.34 605.92,-723.88"/>
<polygon fill="#63b8ff" stroke="#63b8ff" points="606.46,-727.34 615.94,-722.61 605.58,-720.39 606.46,-727.34"/>
</a>
</g>
</g>
<!-- Node5 -->
<g id="Node000005" class="node">
<title>Node5</title>
<g id="a_Node000005"><a xlink:href="namespaceNormalComputation.html#a98c50cc726c4d2abcb8c2fc5a2a9e7a8" target="_top" xlink:title=" ">
<polygon fill="white" stroke="#666666" points="738,-778 616,-778 616,-748 738,-748 738,-778"/>
<text text-anchor="start" x="624" y="-766" font-family="Helvetica,sans-Serif" font-size="10.00">NormalComputation::</text>
<text text-anchor="middle" x="677" y="-755" font-family="Helvetica,sans-Serif" font-size="10.00">diagonalize</text>
</a>
</g>
</g>
<!-- Node3&#45;&gt;Node5 -->
<g id="edge4_Node000003_Node000005" class="edge">
<title>Node3&#45;&gt;Node5</title>
<g id="a_edge4_Node000003_Node000005"><a xlink:title=" ">
<path fill="none" stroke="#63b8ff" d="M546.72,-746.63C565.55,-749.01 586.48,-751.66 605.92,-754.12"/>
<polygon fill="#63b8ff" stroke="#63b8ff" points="605.58,-757.61 615.94,-755.39 606.46,-750.66 605.58,-757.61"/>
</a>
</g>
</g>
<!-- Node8&#45;&gt;Node6 -->
<g id="edge9_Node000008_Node000006" class="edge">
<title>Node8&#45;&gt;Node6</title>
<g id="a_edge9_Node000008_Node000006"><a xlink:title=" ">
<path fill="none" stroke="#63b8ff" d="M369.25,-659C388,-659 407.24,-659 424.5,-659"/>
<polygon fill="#63b8ff" stroke="#63b8ff" points="424.97,-662.5 434.97,-659 424.97,-655.5 424.97,-662.5"/>
</a>
</g>
</g>
<!-- Node8&#45;&gt;Node7 -->
<g id="edge10_Node000008_Node000007" class="edge">
<title>Node8&#45;&gt;Node7</title>
<g id="a_edge10_Node000008_Node000007"><a xlink:title=" ">
<path fill="none" stroke="#63b8ff" d="M330.07,-668.53C357.74,-673.45 391.7,-679.49 420.71,-684.65"/>
<polygon fill="#63b8ff" stroke="#63b8ff" points="420.3,-688.13 430.76,-686.44 421.52,-681.24 420.3,-688.13"/>
</a>
</g>
</g>
<!-- Node9 -->
<g id="Node000009" class="node">
<title>Node9</title>
<g id="a_Node000009"><a xlink:href="utilsPatchGeneration_8hpp.html#a254e1f999f13aa89c65618b5cd6f707e" target="_top" xlink:title=" ">
<polygon fill="white" stroke="#666666" points="520,-631.5 451,-631.5 451,-612.5 520,-612.5 520,-631.5"/>
<text text-anchor="middle" x="485.5" y="-619.5" font-family="Helvetica,sans-Serif" font-size="10.00">dotProduct</text>
</a>
</g>
</g>
<!-- Node8&#45;&gt;Node9 -->
<g id="edge8_Node000008_Node000009" class="edge">
<title>Node8&#45;&gt;Node9</title>
<g id="a_edge8_Node000008_Node000009"><a xlink:title=" ">
<path fill="none" stroke="#63b8ff" d="M330.07,-649.47C364.5,-643.35 408.66,-635.49 440.93,-629.75"/>
<polygon fill="#63b8ff" stroke="#63b8ff" points="441.73,-633.16 450.96,-627.97 440.51,-626.27 441.73,-633.16"/>
</a>
</g>
</g>
<!-- Node10&#45;&gt;Node6 -->
<g id="edge13_Node000010_Node000006" class="edge">
<title>Node10&#45;&gt;Node6</title>
<g id="a_edge13_Node000010_Node000006"><a xlink:title=" ">
<path fill="none" stroke="#63b8ff" d="M332.24,-627.52C362.08,-633.69 398.73,-641.27 428.59,-647.44"/>
<polygon fill="#63b8ff" stroke="#63b8ff" points="427.94,-650.88 438.44,-649.48 429.36,-644.03 427.94,-650.88"/>
</a>
</g>
</g>
<!-- Node10&#45;&gt;Node7 -->
<g id="edge14_Node000010_Node000007" class="edge">
<title>Node10&#45;&gt;Node7</title>
<g id="a_edge14_Node000010_Node000007"><a xlink:title=" ">
<path fill="none" stroke="#63b8ff" d="M332.24,-625.24C344.85,-628.73 357.81,-633.5 369,-640 388.84,-651.53 385.05,-665.66 405,-677 408.92,-679.23 413.1,-681.2 417.4,-682.94"/>
<polygon fill="#63b8ff" stroke="#63b8ff" points="416.39,-686.29 426.98,-686.39 418.76,-679.71 416.39,-686.29"/>
</a>
</g>
</g>
<!-- Node10&#45;&gt;Node9 -->
<g id="edge12_Node000010_Node000009" class="edge">
<title>Node10&#45;&gt;Node9</title>
<g id="a_edge12_Node000010_Node000009"><a xlink:title=" ">
<path fill="none" stroke="#63b8ff" d="M332.24,-617.61C366.19,-618.59 408.95,-619.82 440.51,-620.73"/>
<polygon fill="#63b8ff" stroke="#63b8ff" points="440.66,-624.24 450.75,-621.03 440.86,-617.24 440.66,-624.24"/>
</a>
</g>
</g>
<!-- Node11&#45;&gt;Node6 -->
<g id="edge29_Node000011_Node000006" class="edge">
<title>Node11&#45;&gt;Node6</title>
<g id="a_edge29_Node000011_Node000006"><a xlink:title=" ">
<path fill="none" stroke="#63b8ff" d="M283.42,-407.09C307.07,-458.4 384.37,-623.87 405,-640 410.92,-644.63 417.79,-648.15 424.96,-650.84"/>
<polygon fill="#63b8ff" stroke="#63b8ff" points="424.28,-654.29 434.88,-654 426.41,-647.62 424.28,-654.29"/>
</a>
</g>
</g>
<!-- Node11&#45;&gt;Node7 -->
<g id="edge42_Node000011_Node000007" class="edge">
<title>Node11&#45;&gt;Node7</title>
<g id="a_edge42_Node000011_Node000007"><a xlink:title=" ">
<path fill="none" stroke="#63b8ff" d="M283.75,-407.23C299.57,-440.56 338.25,-522.57 369,-592 385.61,-629.51 373.68,-650.5 405,-677 407.88,-679.44 411.01,-681.57 414.32,-683.44"/>
<polygon fill="#63b8ff" stroke="#63b8ff" points="412.9,-686.64 423.43,-687.8 415.92,-680.32 412.9,-686.64"/>
</a>
</g>
</g>
<!-- Node12 -->
<g id="Node000012" class="node">
<title>Node12</title>
<g id="a_Node000012"><a xlink:href="classPatchSegmentation.html#a5d31ba00ed822bdc118aba7b671d91fd" target="_top" xlink:title=" ">
<polygon fill="white" stroke="#666666" points="562.5,-268 408.5,-268 408.5,-238 562.5,-238 562.5,-268"/>
<text text-anchor="start" x="416.5" y="-256" font-family="Helvetica,sans-Serif" font-size="10.00">PatchSegmentation::</text>
<text text-anchor="middle" x="485.5" y="-245" font-family="Helvetica,sans-Serif" font-size="10.00">computeAdditionalPatchInfo</text>
</a>
</g>
</g>
<!-- Node11&#45;&gt;Node12 -->
<g id="edge16_Node000011_Node000012" class="edge">
<title>Node11&#45;&gt;Node12</title>
<g id="a_edge16_Node000011_Node000012"><a xlink:title=" ">
<path fill="none" stroke="#63b8ff" d="M289.53,-376.63C311.1,-352.1 356.71,-304.12 405,-277 408.21,-275.2 411.56,-273.52 415.01,-271.96"/>
<polygon fill="#63b8ff" stroke="#63b8ff" points="416.41,-275.16 424.29,-268.08 413.71,-268.7 416.41,-275.16"/>
</a>
</g>
</g>
<!-- Node13 -->
<g id="Node000013" class="node">
<title>Node13</title>
<g id="a_Node000013"><a xlink:href="classPatchSegmentation.html#aa3b3fcb12079a71ee833e203847d78a3" target="_top" xlink:title=" ">
<polygon fill="white" stroke="#666666" points="752,-177 602,-177 602,-147 752,-147 752,-177"/>
<text text-anchor="start" x="610" y="-165" font-family="Helvetica,sans-Serif" font-size="10.00">PatchSegmentation::</text>
<text text-anchor="middle" x="677" y="-154" font-family="Helvetica,sans-Serif" font-size="10.00">computePatchBoundingBox</text>
</a>
</g>
</g>
<!-- Node11&#45;&gt;Node13 -->
<g id="edge17_Node000011_Node000013" class="edge">
<title>Node11&#45;&gt;Node13</title>
<g id="a_edge17_Node000011_Node000013"><a xlink:title=" ">
<path fill="none" stroke="#63b8ff" d="M278.83,-376.9C286.74,-331.57 317.14,-196.53 405,-143 474.3,-100.78 572.85,-123.89 630.04,-143.59"/>
<polygon fill="#63b8ff" stroke="#63b8ff" points="628.94,-146.91 639.53,-146.96 631.28,-140.32 628.94,-146.91"/>
</a>
</g>
</g>
<!-- Node15 -->
<g id="Node000015" class="node">
<title>Node15</title>
<g id="a_Node000015"><a xlink:href="classPatchSegmentation.html#a3cdab98e5e9f30842b38ea848c160aa2" target="_top" xlink:title=" ">
<polygon fill="white" stroke="#666666" points="740,-225 614,-225 614,-195 740,-195 740,-225"/>
<text text-anchor="start" x="622" y="-213" font-family="Helvetica,sans-Serif" font-size="10.00">PatchSegmentation::</text>
<text text-anchor="middle" x="677" y="-202" font-family="Helvetica,sans-Serif" font-size="10.00">computePatchDepthL1</text>
</a>
</g>
</g>
<!-- Node11&#45;&gt;Node15 -->
<g id="edge19_Node000011_Node000015" class="edge">
<title>Node11&#45;&gt;Node15</title>
<g id="a_edge19_Node000011_Node000015"><a xlink:title=" ">
<path fill="none" stroke="#63b8ff" d="M283.11,-376.85C298.7,-343.23 341.3,-262.7 405,-229 466.25,-196.59 546.46,-195.13 603.69,-199.76"/>
<polygon fill="#63b8ff" stroke="#63b8ff" points="603.47,-203.25 613.75,-200.66 604.1,-196.28 603.47,-203.25"/>
</a>
</g>
</g>
<!-- Node16 -->
<g id="Node000016" class="node">
<title>Node16</title>
<g id="a_Node000016"><a xlink:href="classPatchSegmentation.html#a006a62e16aa564064c4350dfd05e6cdc" target="_top" xlink:title=" ">
<polygon fill="white" stroke="#666666" points="548.5,-594 422.5,-594 422.5,-564 548.5,-564 548.5,-594"/>
<text text-anchor="start" x="430.5" y="-582" font-family="Helvetica,sans-Serif" font-size="10.00">PatchSegmentation::</text>
<text text-anchor="middle" x="485.5" y="-571" font-family="Helvetica,sans-Serif" font-size="10.00">computePatchDepthL2</text>
</a>
</g>
</g>
<!-- Node11&#45;&gt;Node16 -->
<g id="edge21_Node000011_Node000016" class="edge">
<title>Node11&#45;&gt;Node16</title>
<g id="a_edge21_Node000011_Node000016"><a xlink:title=" ">
<path fill="none" stroke="#63b8ff" d="M284.22,-407.12C301.41,-439.29 346.04,-514.82 405,-555 407.6,-556.77 410.33,-558.41 413.15,-559.94"/>
<polygon fill="#63b8ff" stroke="#63b8ff" points="411.9,-563.22 422.43,-564.41 414.94,-556.91 411.9,-563.22"/>
</a>
</g>
</g>
<!-- Node17 -->
<g id="Node000017" class="node">
<title>Node17</title>
<g id="a_Node000017"><a xlink:href="classPatchSegmentation.html#aa8784a26746eb86d546a53f5dab6c1f3" target="_top" xlink:title=" ">
<polygon fill="white" stroke="#666666" points="566,-546 405,-546 405,-516 566,-516 566,-546"/>
<text text-anchor="start" x="413" y="-534" font-family="Helvetica,sans-Serif" font-size="10.00">PatchSegmentation::</text>
<text text-anchor="middle" x="485.5" y="-523" font-family="Helvetica,sans-Serif" font-size="10.00">createConnectedComponents</text>
</a>
</g>
</g>
<!-- Node11&#45;&gt;Node17 -->
<g id="edge22_Node000011_Node000017" class="edge">
<title>Node11&#45;&gt;Node17</title>
<g id="a_edge22_Node000011_Node000017"><a xlink:title=" ">
<path fill="none" stroke="#63b8ff" d="M289.53,-407.37C311.1,-431.9 356.71,-479.88 405,-507 408.21,-508.8 411.56,-510.48 415.01,-512.04"/>
<polygon fill="#63b8ff" stroke="#63b8ff" points="413.71,-515.3 424.29,-515.92 416.41,-508.84 413.71,-515.3"/>
</a>
</g>
</g>
<!-- Node22 -->
<g id="Node000022" class="node">
<title>Node22</title>
<g id="a_Node000022"><a xlink:href="classrobin__hood_1_1detail_1_1Table.html#acfe6a7a850fd8f76f5751f854ad2fe86" target="_top" xlink:title=" ">
<polygon fill="white" stroke="#666666" points="729,-450 625,-450 625,-420 729,-420 729,-450"/>
<text text-anchor="start" x="633" y="-438" font-family="Helvetica,sans-Serif" font-size="10.00">robin_hood::detail</text>
<text text-anchor="middle" x="677" y="-427" font-family="Helvetica,sans-Serif" font-size="10.00">::Table::emplace</text>
</a>
</g>
</g>
<!-- Node11&#45;&gt;Node22 -->
<g id="edge28_Node000011_Node000022" class="edge">
<title>Node11&#45;&gt;Node22</title>
<g id="a_edge28_Node000011_Node000022"><a xlink:title=" ">
<path fill="none" stroke="#63b8ff" d="M334.16,-393.25C392.77,-395.12 486.08,-399.72 566,-411 581.88,-413.24 598.87,-416.51 614.64,-419.92"/>
<polygon fill="#63b8ff" stroke="#63b8ff" points="614.28,-423.42 624.8,-422.17 615.8,-416.59 614.28,-423.42"/>
</a>
</g>
</g>
<!-- Node23 -->
<g id="Node000023" class="node">
<title>Node23</title>
<g id="a_Node000023"><a xlink:href="classPatchSegmentation.html#a273639e3bb44b17761c34223b1f7269d" target="_top" xlink:title=" ">
<polygon fill="white" stroke="#666666" points="544,-364 427,-364 427,-334 544,-334 544,-364"/>
<text text-anchor="start" x="435" y="-352" font-family="Helvetica,sans-Serif" font-size="10.00">PatchSegmentation::</text>
<text text-anchor="middle" x="485.5" y="-341" font-family="Helvetica,sans-Serif" font-size="10.00">filterDepth</text>
</a>
</g>
</g>
<!-- Node11&#45;&gt;Node23 -->
<g id="edge30_Node000011_Node000023" class="edge">
<title>Node11&#45;&gt;Node23</title>
<g id="a_edge30_Node000011_Node000023"><a xlink:title=" ">
<path fill="none" stroke="#63b8ff" d="M334.16,-380.08C359.75,-374.79 390.04,-368.53 416.7,-363.02"/>
<polygon fill="#63b8ff" stroke="#63b8ff" points="417.64,-366.4 426.72,-360.94 416.22,-359.54 417.64,-366.4"/>
</a>
</g>
</g>
<!-- Node24 -->
<g id="Node000024" class="node">
<title>Node24</title>
<g id="a_Node000024"><a xlink:href="classPatchSegmentation.html#a997b96c5dffc5685b1fca9e72898403f" target="_top" xlink:title=" ">
<polygon fill="white" stroke="#666666" points="544,-182 427,-182 427,-152 544,-152 544,-182"/>
<text text-anchor="start" x="435" y="-170" font-family="Helvetica,sans-Serif" font-size="10.00">PatchSegmentation::</text>
<text text-anchor="middle" x="485.5" y="-159" font-family="Helvetica,sans-Serif" font-size="10.00">patchSplitting</text>
</a>
</g>
</g>
<!-- Node11&#45;&gt;Node24 -->
<g id="edge31_Node000011_Node000024" class="edge">
<title>Node11&#45;&gt;Node24</title>
<g id="a_edge31_Node000011_Node000024"><a xlink:title=" ">
<path fill="none" stroke="#63b8ff" d="M282.42,-376.87C297.39,-340.49 340.26,-247.3 405,-196 409.39,-192.52 414.24,-189.44 419.3,-186.7"/>
<polygon fill="#63b8ff" stroke="#63b8ff" points="421.17,-189.69 428.62,-182.16 418.09,-183.4 421.17,-189.69"/>
</a>
</g>
</g>
<!-- Node25 -->
<g id="Node000025" class="node">
<title>Node25</title>
<g id="a_Node000025"><a xlink:href="classPatchSegmentation.html#a92baf340c005144fdd53c04ad99dd657" target="_top" xlink:title=" ">
<polygon fill="white" stroke="#666666" points="544,-498 427,-498 427,-468 544,-468 544,-498"/>
<text text-anchor="start" x="435" y="-486" font-family="Helvetica,sans-Serif" font-size="10.00">PatchSegmentation::</text>
<text text-anchor="middle" x="485.5" y="-475" font-family="Helvetica,sans-Serif" font-size="10.00">refillRawPoints</text>
</a>
</g>
</g>
<!-- Node11&#45;&gt;Node25 -->
<g id="edge33_Node000011_Node000025" class="edge">
<title>Node11&#45;&gt;Node25</title>
<g id="a_edge33_Node000011_Node000025"><a xlink:title=" ">
<path fill="none" stroke="#63b8ff" d="M301.91,-407.07C327.36,-421.72 367.95,-443.91 405,-459 409.8,-460.96 414.82,-462.84 419.9,-464.62"/>
<polygon fill="#63b8ff" stroke="#63b8ff" points="419.12,-468.05 429.72,-467.94 421.36,-461.42 419.12,-468.05"/>
</a>
</g>
</g>
<!-- Node26 -->
<g id="Node000026" class="node">
<title>Node26</title>
<g id="a_Node000026"><a xlink:href="classPatchSegmentation.html#a712463e82395b7797ee915f932e23157" target="_top" xlink:title=" ">
<polygon fill="white" stroke="#666666" points="545,-450 426,-450 426,-420 545,-420 545,-450"/>
<text text-anchor="start" x="434" y="-438" font-family="Helvetica,sans-Serif" font-size="10.00">PatchSegmentation::</text>
<text text-anchor="middle" x="485.5" y="-427" font-family="Helvetica,sans-Serif" font-size="10.00">resampledPointcloud</text>
</a>
</g>
</g>
<!-- Node11&#45;&gt;Node26 -->
<g id="edge36_Node000011_Node000026" class="edge">
<title>Node11&#45;&gt;Node26</title>
<g id="a_edge36_Node000011_Node000026"><a xlink:title=" ">
<path fill="none" stroke="#63b8ff" d="M334.16,-403.92C359.43,-409.14 389.28,-415.32 415.7,-420.78"/>
<polygon fill="#63b8ff" stroke="#63b8ff" points="415.14,-424.23 425.64,-422.83 416.55,-417.38 415.14,-424.23"/>
</a>
</g>
</g>
<!-- Node27 -->
<g id="Node000027" class="node">
<title>Node27</title>
<g id="a_Node000027"><a xlink:href="classrobin__hood_1_1detail_1_1Table.html#a6c2d436df6800ac290cc26da5961a331" target="_top" xlink:title=" ">
<polygon fill="white" stroke="#666666" points="537.5,-78 433.5,-78 433.5,-48 537.5,-48 537.5,-78"/>
<text text-anchor="start" x="441.5" y="-66" font-family="Helvetica,sans-Serif" font-size="10.00">robin_hood::detail</text>
<text text-anchor="middle" x="485.5" y="-55" font-family="Helvetica,sans-Serif" font-size="10.00">::Table::reserve</text>
</a>
</g>
</g>
<!-- Node11&#45;&gt;Node27 -->
<g id="edge38_Node000011_Node000027" class="edge">
<title>Node11&#45;&gt;Node27</title>
<g id="a_edge38_Node000011_Node000027"><a xlink:title=" ">
<path fill="none" stroke="#63b8ff" d="M279.98,-376.75C291.02,-331.25 329.11,-194.42 405,-110 414.66,-99.25 427.37,-90.25 439.79,-83.09"/>
<polygon fill="#63b8ff" stroke="#63b8ff" points="441.63,-86.07 448.73,-78.21 438.28,-79.93 441.63,-86.07"/>
</a>
</g>
</g>
<!-- Node28 -->
<g id="Node000028" class="node">
<title>Node28</title>
<g id="a_Node000028"><a xlink:href="structuvgvpcc__enc_1_1Patch.html#a3ecf8a9dc6427df10fb92d4220d3a50f" target="_top" xlink:title=" ">
<polygon fill="white" stroke="#666666" points="541.5,-316 429.5,-316 429.5,-286 541.5,-286 541.5,-316"/>
<text text-anchor="start" x="437.5" y="-304" font-family="Helvetica,sans-Serif" font-size="10.00">uvgvpcc_enc::Patch</text>
<text text-anchor="middle" x="485.5" y="-293" font-family="Helvetica,sans-Serif" font-size="10.00">::setPatchPpi</text>
</a>
</g>
</g>
<!-- Node11&#45;&gt;Node28 -->
<g id="edge40_Node000011_Node000028" class="edge">
<title>Node11&#45;&gt;Node28</title>
<g id="a_edge40_Node000011_Node000028"><a xlink:title=" ">
<path fill="none" stroke="#63b8ff" d="M301.91,-376.93C327.36,-362.28 367.95,-340.09 405,-325 409.8,-323.04 414.82,-321.16 419.9,-319.38"/>
<polygon fill="#63b8ff" stroke="#63b8ff" points="421.36,-322.58 429.72,-316.06 419.12,-315.95 421.36,-322.58"/>
</a>
</g>
</g>
<!-- Node14 -->
<g id="Node000014" class="node">
<title>Node14</title>
<g id="a_Node000014"><a xlink:href="namespaceuvgvpcc__enc.html#a735c39eb14ded23670bac21df7dc8189" target="_top" xlink:title=" ">
<polygon fill="white" stroke="#666666" points="915,-195.5 788,-195.5 788,-176.5 915,-176.5 915,-195.5"/>
<text text-anchor="middle" x="851.5" y="-183.5" font-family="Helvetica,sans-Serif" font-size="10.00">uvgvpcc_enc::roundUp</text>
</a>
</g>
</g>
<!-- Node13&#45;&gt;Node14 -->
<g id="edge18_Node000013_Node000014" class="edge">
<title>Node13&#45;&gt;Node14</title>
<g id="a_edge18_Node000013_Node000014"><a xlink:title=" ">
<path fill="none" stroke="#63b8ff" d="M752.16,-172.32C760.6,-173.49 769.19,-174.69 777.62,-175.86"/>
<polygon fill="#63b8ff" stroke="#63b8ff" points="777.39,-179.36 787.78,-177.27 778.36,-172.43 777.39,-179.36"/>
</a>
</g>
</g>
<!-- Node15&#45;&gt;Node14 -->
<g id="edge20_Node000015_Node000014" class="edge">
<title>Node15&#45;&gt;Node14</title>
<g id="a_edge20_Node000015_Node000014"><a xlink:title=" ">
<path fill="none" stroke="#63b8ff" d="M740.28,-201.34C752.46,-199.64 765.34,-197.85 777.82,-196.11"/>
<polygon fill="#63b8ff" stroke="#63b8ff" points="778.31,-199.58 787.74,-194.73 777.35,-192.64 778.31,-199.58"/>
</a>
</g>
</g>
<!-- Node18 -->
<g id="Node000018" class="node">
<title>Node18</title>
<g id="a_Node000018"><a xlink:href="classrobin__hood_1_1detail_1_1Table.html#afb214db6f1196694807c182a1ae4d9ba" target="_top" xlink:title=" ">
<polygon fill="white" stroke="#666666" points="729,-612 625,-612 625,-582 729,-582 729,-612"/>
<text text-anchor="start" x="633" y="-600" font-family="Helvetica,sans-Serif" font-size="10.00">robin_hood::detail</text>
<text text-anchor="middle" x="677" y="-589" font-family="Helvetica,sans-Serif" font-size="10.00">::Table::at</text>
</a>
</g>
</g>
<!-- Node17&#45;&gt;Node18 -->
<g id="edge23_Node000017_Node000018" class="edge">
<title>Node17&#45;&gt;Node18</title>
<g id="a_edge23_Node000017_Node000018"><a xlink:title=" ">
<path fill="none" stroke="#63b8ff" d="M540.81,-546.04C549.32,-548.79 557.96,-551.8 566,-555 582.62,-561.61 585.45,-566.22 602,-573 606.65,-574.9 611.5,-576.76 616.41,-578.54"/>
<polygon fill="#63b8ff" stroke="#63b8ff" points="615.28,-581.85 625.87,-581.87 617.6,-575.25 615.28,-581.85"/>
</a>
</g>
</g>
<!-- Node19 -->
<g id="Node000019" class="node">
<title>Node19</title>
<g id="a_Node000019"><a xlink:href="classrobin__hood_1_1detail_1_1Table.html#a79fdf3ba7034cb3eb36bbda40ec2d3c7" target="_top" xlink:title=" ">
<polygon fill="white" stroke="#666666" points="729,-498 625,-498 625,-468 729,-468 729,-498"/>
<text text-anchor="start" x="633" y="-486" font-family="Helvetica,sans-Serif" font-size="10.00">robin_hood::detail</text>
<text text-anchor="middle" x="677" y="-475" font-family="Helvetica,sans-Serif" font-size="10.00">::Table::contains</text>
</a>
</g>
</g>
<!-- Node17&#45;&gt;Node19 -->
<g id="edge24_Node000017_Node000019" class="edge">
<title>Node17&#45;&gt;Node19</title>
<g id="a_edge24_Node000017_Node000019"><a xlink:title=" ">
<path fill="none" stroke="#63b8ff" d="M545.94,-515.94C567.87,-510.39 592.75,-504.09 614.83,-498.49"/>
<polygon fill="#63b8ff" stroke="#63b8ff" points="615.92,-501.83 624.76,-495.98 614.21,-495.04 615.92,-501.83"/>
</a>
</g>
</g>
<!-- Node21 -->
<g id="Node000021" class="node">
<title>Node21</title>
<g id="a_Node000021"><a xlink:href="classrobin__hood_1_1detail_1_1Table.html#a0539538ef39c9c19c00253a705890919" target="_top" xlink:title=" ">
<polygon fill="white" stroke="#666666" points="729,-546 625,-546 625,-516 729,-516 729,-546"/>
<text text-anchor="start" x="633" y="-534" font-family="Helvetica,sans-Serif" font-size="10.00">robin_hood::detail</text>
<text text-anchor="middle" x="677" y="-523" font-family="Helvetica,sans-Serif" font-size="10.00">::Table::erase</text>
</a>
</g>
</g>
<!-- Node17&#45;&gt;Node21 -->
<g id="edge26_Node000017_Node000021" class="edge">
<title>Node17&#45;&gt;Node21</title>
<g id="a_edge26_Node000017_Node000021"><a xlink:title=" ">
<path fill="none" stroke="#63b8ff" d="M566.04,-531C582.17,-531 598.9,-531 614.31,-531"/>
<polygon fill="#63b8ff" stroke="#63b8ff" points="614.73,-534.5 624.73,-531 614.73,-527.5 614.73,-534.5"/>
</a>
</g>
</g>
<!-- Node20 -->
<g id="Node000020" class="node">
<title>Node20</title>
<g id="a_Node000020"><a xlink:href="classrobin__hood_1_1detail_1_1Table.html#a98a73a7b295dc5cb50304068fbd811bd" target="_top" xlink:title=" ">
<polygon fill="white" stroke="#666666" points="903.5,-498 799.5,-498 799.5,-468 903.5,-468 903.5,-498"/>
<text text-anchor="start" x="807.5" y="-486" font-family="Helvetica,sans-Serif" font-size="10.00">robin_hood::detail</text>
<text text-anchor="middle" x="851.5" y="-475" font-family="Helvetica,sans-Serif" font-size="10.00">::Table::count</text>
</a>
</g>
</g>
<!-- Node19&#45;&gt;Node20 -->
<g id="edge25_Node000019_Node000020" class="edge">
<title>Node19&#45;&gt;Node20</title>
<g id="a_edge25_Node000019_Node000020"><a xlink:title=" ">
<path fill="none" stroke="#63b8ff" d="M729.29,-483C748.15,-483 769.69,-483 789.33,-483"/>
<polygon fill="#63b8ff" stroke="#63b8ff" points="789.41,-486.5 799.41,-483 789.41,-479.5 789.41,-486.5"/>
</a>
</g>
</g>
<!-- Node21&#45;&gt;Node21 -->
<g id="edge27_Node000021_Node000021" class="edge">
<title>Node21&#45;&gt;Node21</title>
<g id="a_edge27_Node000021_Node000021"><a xlink:title=" ">
<path fill="none" stroke="#63b8ff" d="M646.41,-546.28C639.62,-555.41 649.81,-564 677,-564 693.14,-564 703.29,-560.97 707.46,-556.6"/>
<polygon fill="#63b8ff" stroke="#63b8ff" points="710.96,-556.32 707.59,-546.28 703.96,-556.23 710.96,-556.32"/>
</a>
</g>
</g>
<!-- Node24&#45;&gt;Node13 -->
<g id="edge32_Node000024_Node000013" class="edge">
<title>Node24&#45;&gt;Node13</title>
<g id="a_edge32_Node000024_Node000013"><a xlink:title=" ">
<path fill="none" stroke="#63b8ff" d="M544.13,-165.48C559.05,-165.09 575.42,-164.65 591.41,-164.23"/>
<polygon fill="#63b8ff" stroke="#63b8ff" points="591.93,-167.72 601.83,-163.96 591.75,-160.72 591.93,-167.72"/>
</a>
</g>
</g>
<!-- Node25&#45;&gt;Node19 -->
<g id="edge34_Node000025_Node000019" class="edge">
<title>Node25&#45;&gt;Node19</title>
<g id="a_edge34_Node000025_Node000019"><a xlink:title=" ">
<path fill="none" stroke="#63b8ff" d="M544.13,-483C566.41,-483 591.95,-483 614.58,-483"/>
<polygon fill="#63b8ff" stroke="#63b8ff" points="614.76,-486.5 624.76,-483 614.76,-479.5 614.76,-486.5"/>
</a>
</g>
</g>
<!-- Node25&#45;&gt;Node22 -->
<g id="edge35_Node000025_Node000022" class="edge">
<title>Node25&#45;&gt;Node22</title>
<g id="a_edge35_Node000025_Node000022"><a xlink:title=" ">
<path fill="none" stroke="#63b8ff" d="M544.13,-468.4C566.51,-462.73 592.18,-456.23 614.89,-450.48"/>
<polygon fill="#63b8ff" stroke="#63b8ff" points="615.92,-453.83 624.76,-447.98 614.2,-447.04 615.92,-453.83"/>
</a>
</g>
</g>
<!-- Node26&#45;&gt;Node22 -->
<g id="edge37_Node000026_Node000022" class="edge">
<title>Node26&#45;&gt;Node22</title>
<g id="a_edge37_Node000026_Node000022"><a xlink:title=" ">
<path fill="none" stroke="#63b8ff" d="M545.16,-435C567.31,-435 592.56,-435 614.93,-435"/>
<polygon fill="#63b8ff" stroke="#63b8ff" points="614.98,-438.5 624.98,-435 614.98,-431.5 614.98,-438.5"/>
</a>
</g>
</g>
<!-- Node27&#45;&gt;Node27 -->
<g id="edge39_Node000027_Node000027" class="edge">
<title>Node27&#45;&gt;Node27</title>
<g id="a_edge39_Node000027_Node000027"><a xlink:title=" ">
<path fill="none" stroke="#63b8ff" d="M452.1,-78.28C444.68,-87.41 455.81,-96 485.5,-96 503.13,-96 514.21,-92.97 518.76,-88.6"/>
<polygon fill="#63b8ff" stroke="#63b8ff" points="522.26,-88.32 518.9,-78.28 515.26,-88.23 522.26,-88.32"/>
</a>
</g>
</g>
<!-- Node29 -->
<g id="Node000029" class="node">
<title>Node29</title>
<g id="a_Node000029"><a xlink:href="structuvgvpcc__enc_1_1Patch.html#ad24dc23eb86f57f9cc5bdbb9f54e668a" target="_top" xlink:title=" ">
<polygon fill="white" stroke="#666666" points="733,-316 621,-316 621,-286 733,-286 733,-316"/>
<text text-anchor="start" x="629" y="-304" font-family="Helvetica,sans-Serif" font-size="10.00">uvgvpcc_enc::Patch</text>
<text text-anchor="middle" x="677" y="-293" font-family="Helvetica,sans-Serif" font-size="10.00">::setAxis</text>
</a>
</g>
</g>
<!-- Node28&#45;&gt;Node29 -->
<g id="edge41_Node000028_Node000029" class="edge">
<title>Node28&#45;&gt;Node29</title>
<g id="a_edge41_Node000028_Node000029"><a xlink:title=" ">
<path fill="none" stroke="#63b8ff" d="M541.57,-301C563.17,-301 588.14,-301 610.65,-301"/>
<polygon fill="#63b8ff" stroke="#63b8ff" points="610.8,-304.5 620.8,-301 610.8,-297.5 610.8,-304.5"/>
</a>
</g>
</g>
<!-- Node30&#45;&gt;Node6 -->
<g id="edge44_Node000030_Node000006" class="edge">
<title>Node30&#45;&gt;Node6</title>
<g id="a_edge44_Node000030_Node000006"><a xlink:title=" ">
<path fill="none" stroke="#63b8ff" d="M330.07,-686.47C359.05,-681.32 394.93,-674.93 424.8,-669.62"/>
<polygon fill="#63b8ff" stroke="#63b8ff" points="425.45,-673.06 434.69,-667.86 424.23,-666.17 425.45,-673.06"/>
</a>
</g>
</g>
<!-- Node30&#45;&gt;Node7 -->
<g id="edge45_Node000030_Node000007" class="edge">
<title>Node30&#45;&gt;Node7</title>
<g id="a_edge45_Node000030_Node000007"><a xlink:title=" ">
<path fill="none" stroke="#63b8ff" d="M369.25,-696C383.98,-696 399.02,-696 413.16,-696"/>
<polygon fill="#63b8ff" stroke="#63b8ff" points="413.28,-699.5 423.28,-696 413.28,-692.5 413.28,-699.5"/>
</a>
</g>
</g>
<!-- Node31&#45;&gt;Node27 -->
<g id="edge47_Node000031_Node000027" class="edge">
<title>Node31&#45;&gt;Node27</title>
<g id="a_edge47_Node000031_Node000027"><a xlink:title=" ">
<path fill="none" stroke="#63b8ff" d="M313.69,-63C344,-63 387.44,-63 422.93,-63"/>
<polygon fill="#63b8ff" stroke="#63b8ff" points="423.18,-66.5 433.18,-63 423.18,-59.5 423.18,-66.5"/>
</a>
</g>
</g>
<!-- Node32 -->
<g id="Node000032" class="node">
<title>Node32</title>
<g id="a_Node000032"><a xlink:href="classrobin__hood_1_1detail_1_1Table.html#a1d9deb34fedb87863788360123c53973" target="_top" xlink:title=" ">
<polygon fill="white" stroke="#666666" points="543,-30 428,-30 428,0 543,0 543,-30"/>
<text text-anchor="start" x="436" y="-18" font-family="Helvetica,sans-Serif" font-size="10.00">robin_hood::detail</text>
<text text-anchor="middle" x="485.5" y="-7" font-family="Helvetica,sans-Serif" font-size="10.00">::Table::try_emplace</text>
</a>
</g>
</g>
<!-- Node31&#45;&gt;Node32 -->
<g id="edge48_Node000031_Node000032" class="edge">
<title>Node31&#45;&gt;Node32</title>
<g id="a_edge48_Node000031_Node000032"><a xlink:title=" ">
<path fill="none" stroke="#63b8ff" d="M313.69,-54.42C342.51,-47.77 383.2,-38.38 417.64,-30.43"/>
<polygon fill="#63b8ff" stroke="#63b8ff" points="418.68,-33.78 427.64,-28.12 417.11,-26.96 418.68,-33.78"/>
</a>
</g>
</g>
</g>
</svg>

<g id="navigator" transform="translate(0 0)" fill="#404254">
  <rect fill="#f2f5e9" fill-opacity="0.5" stroke="#606060" stroke-width=".5" x="0" y="0" width="60" height="60"/>
  <use id="zoomplus" xlink:href="#zoomPlus" x="17" y="9" onmousedown="handleZoom(evt,'in')"/>
  <use id="zoomminus" xlink:href="#zoomMin" x="42" y="9" onmousedown="handleZoom(evt,'out')"/>
  <use id="reset" xlink:href="#resetDef" x="30" y="36" onmousedown="handleReset()"/>
   <use id="arrowup" xlink:href="#arrowUp" x="0" y="0" onmousedown="handlePan(0,-1)"/>
  <use id="arrowright" xlink:href="#arrowRight" x="0" y="0" onmousedown="handlePan(1,0)"/>
  <use id="arrowdown" xlink:href="#arrowDown" x="0" y="0" onmousedown="handlePan(0,1)"/>
  <use id="arrowleft" xlink:href="#arrowLeft" x="0" y="0" onmousedown="handlePan(-1,0)"/>
</g>
<svg viewBox="0 0 15 15" width="100%" height="30px" preserveAspectRatio="xMaxYMin meet">
 <g id="arrow_out" transform="scale(0.3 0.3)">
  <a xlink:href="classPatchGeneration_a0f5554a29116f3ceeba740292bffa5d7_cgraph_org.svg" target="_base">
   <rect id="button" ry="5" rx="5" y="6" x="6" height="38" width="38"
        fill="#f2f5e9" fill-opacity="0.5" stroke="#606060" stroke-width="1.0"/>
   <path id="arrow"
     d="M 11.500037,31.436501 C 11.940474,20.09759 22.043105,11.32322 32.158766,21.979434 L 37.068811,17.246167 C 37.068811,17.246167 37.088388,32 37.088388,32 L 22.160133,31.978069 C 22.160133,31.978069 26.997745,27.140456 26.997745,27.140456 C 18.528582,18.264221 13.291696,25.230495 11.500037,31.436501 z"
     style="fill:#404040;"/>
  </a>
 </g>
</svg>

<style type='text/css'>
<![CDATA[
[data-mouse-over-selected='false'] { opacity: 0.7; }
[data-mouse-over-selected='true']  { opacity: 1.0; }
]]>
</style>
<script type="application/ecmascript"><![CDATA[
document.addEventListener('DOMContentLoaded', (event) => {
  highlightEdges();
  highlightAdjacentNodes();
});
]]></script>
</svg>
