<?xml version="1.0" encoding="UTF-8" standalone="no"?>
<!DOCTYPE svg PUBLIC "-//W3C//DTD SVG 1.1//EN"
 "http://www.w3.org/Graphics/SVG/1.1/DTD/svg11.dtd">
<!-- Generated by graphviz version 2.43.0 (0)
 -->
<!-- Title: miniply::PLYReader::extract_properties_with_stride Pages: 1 -->
<svg width="560pt" height="65pt"
 viewBox="0.00 0.00 560.00 64.50" xmlns="http://www.w3.org/2000/svg" xmlns:xlink="http://www.w3.org/1999/xlink">
<g id="graph0" class="graph" transform="scale(1 1) rotate(0) translate(4 60.5)">
<title>miniply::PLYReader::extract_properties_with_stride</title>
<!-- Node1 -->
<g id="Node000001" class="node">
<title>Node1</title>
<g id="a_Node000001"><a xlink:title=" ">
<polygon fill="#999999" stroke="#666666" points="112,-56.5 0,-56.5 0,-15.5 112,-15.5 112,-56.5"/>
<text text-anchor="start" x="8" y="-44.5" font-family="Helvetica,sans-Serif" font-size="10.00">miniply::PLYReader</text>
<text text-anchor="start" x="8" y="-33.5" font-family="Helvetica,sans-Serif" font-size="10.00">::extract_properties</text>
<text text-anchor="middle" x="56" y="-22.5" font-family="Helvetica,sans-Serif" font-size="10.00">_with_stride</text>
</a>
</g>
</g>
<!-- Node2 -->
<g id="Node000002" class="node">
<title>Node2</title>
<g id="a_Node000002"><a xlink:href="classminiply_1_1PLYReader.html#a13bf1a5ab6c1547622af0729f707c52d" target="_top" xlink:title=" ">
<polygon fill="white" stroke="#666666" points="406,-51 296,-51 296,-21 406,-21 406,-51"/>
<text text-anchor="start" x="304" y="-39" font-family="Helvetica,sans-Serif" font-size="10.00">miniply::PLYReader</text>
<text text-anchor="middle" x="351" y="-28" font-family="Helvetica,sans-Serif" font-size="10.00">::element</text>
</a>
</g>
</g>
<!-- Node1&#45;&gt;Node2 -->
<g id="edge1_Node000001_Node000002" class="edge">
<title>Node1&#45;&gt;Node2</title>
<g id="a_edge1_Node000001_Node000002"><a xlink:title=" ">
<path fill="none" stroke="#63b8ff" d="M112.33,-38.12C124.11,-38.48 136.46,-38.81 148,-39 197.77,-39.82 210.23,-39.83 260,-39 268.31,-38.86 277.06,-38.65 285.7,-38.4"/>
<polygon fill="#63b8ff" stroke="#63b8ff" points="285.86,-41.9 295.75,-38.1 285.65,-34.9 285.86,-41.9"/>
</a>
</g>
</g>
<!-- Node4 -->
<g id="Node000004" class="node">
<title>Node4</title>
<g id="a_Node000004"><a xlink:href="classminiply_1_1PLYReader.html#a567b0c1b1aa8ee95da31305f8a0703dc" target="_top" xlink:title=" ">
<polygon fill="white" stroke="#666666" points="260,-30 148,-30 148,0 260,0 260,-30"/>
<text text-anchor="start" x="156" y="-18" font-family="Helvetica,sans-Serif" font-size="10.00">miniply::PLYReader</text>
<text text-anchor="middle" x="204" y="-7" font-family="Helvetica,sans-Serif" font-size="10.00">::extract_properties</text>
</a>
</g>
</g>
<!-- Node1&#45;&gt;Node4 -->
<g id="edge3_Node000001_Node000004" class="edge">
<title>Node1&#45;&gt;Node4</title>
<g id="a_edge3_Node000001_Node000004"><a xlink:title=" ">
<path fill="none" stroke="#63b8ff" d="M112.2,-28.06C120.55,-26.86 129.24,-25.61 137.79,-24.38"/>
<polygon fill="#63b8ff" stroke="#63b8ff" points="138.33,-27.84 147.73,-22.95 137.33,-20.91 138.33,-27.84"/>
</a>
</g>
</g>
<!-- Node3 -->
<g id="Node000003" class="node">
<title>Node3</title>
<g id="a_Node000003"><a xlink:href="classminiply_1_1PLYReader.html#a82366c40f8779bf12dbcbe3c4a22ae36" target="_top" xlink:title=" ">
<polygon fill="white" stroke="#666666" points="552,-51 442,-51 442,-21 552,-21 552,-51"/>
<text text-anchor="start" x="450" y="-39" font-family="Helvetica,sans-Serif" font-size="10.00">miniply::PLYReader</text>
<text text-anchor="middle" x="497" y="-28" font-family="Helvetica,sans-Serif" font-size="10.00">::has_element</text>
</a>
</g>
</g>
<!-- Node2&#45;&gt;Node3 -->
<g id="edge2_Node000002_Node000003" class="edge">
<title>Node2&#45;&gt;Node3</title>
<g id="a_edge2_Node000002_Node000003"><a xlink:title=" ">
<path fill="none" stroke="#63b8ff" d="M406.03,-36C414.31,-36 422.94,-36 431.42,-36"/>
<polygon fill="#63b8ff" stroke="#63b8ff" points="431.67,-39.5 441.67,-36 431.67,-32.5 431.67,-39.5"/>
</a>
</g>
</g>
<!-- Node4&#45;&gt;Node2 -->
<g id="edge4_Node000004_Node000002" class="edge">
<title>Node4&#45;&gt;Node2</title>
<g id="a_edge4_Node000004_Node000002"><a xlink:title=" ">
<path fill="none" stroke="#63b8ff" d="M260.23,-23C268.63,-24.22 277.36,-25.48 285.92,-26.72"/>
<polygon fill="#63b8ff" stroke="#63b8ff" points="285.48,-30.19 295.88,-28.16 286.49,-23.26 285.48,-30.19"/>
</a>
</g>
</g>
</g>
</svg>
