<?xml version="1.0" encoding="UTF-8" standalone="no"?>
<!DOCTYPE svg PUBLIC "-//W3C//DTD SVG 1.1//EN"
 "http://www.w3.org/Graphics/SVG/1.1/DTD/svg11.dtd">
<!-- Generated by graphviz version 2.43.0 (0)
 -->
<!-- Title: v3c_gof::write_v3c_ld_chunk Pages: 1 -->
<svg width="606pt" height="231pt"
 viewBox="0.00 0.00 606.00 230.50" xmlns="http://www.w3.org/2000/svg" xmlns:xlink="http://www.w3.org/1999/xlink">
<g id="graph0" class="graph" transform="scale(1 1) rotate(0) translate(4 226.5)">
<title>v3c_gof::write_v3c_ld_chunk</title>
<!-- Node1 -->
<g id="Node000001" class="node">
<title>Node1</title>
<g id="a_Node000001"><a xlink:title=" ">
<polygon fill="#999999" stroke="#666666" points="107,-128.5 0,-128.5 0,-98.5 107,-98.5 107,-128.5"/>
<text text-anchor="start" x="8" y="-116.5" font-family="Helvetica,sans-Serif" font-size="10.00">v3c_gof::write_v3c</text>
<text text-anchor="middle" x="53.5" y="-105.5" font-family="Helvetica,sans-Serif" font-size="10.00">_ld_chunk</text>
</a>
</g>
</g>
<!-- Node2 -->
<g id="Node000002" class="node">
<title>Node2</title>
<g id="a_Node000002"><a xlink:href="bitstream__util_8cpp.html#ac69c20ee312c7d90392e8a6b3b06341a" target="_top" xlink:title="Copy array of bytes to a byte&#45;aligned bitstream.">
<polygon fill="white" stroke="#666666" points="434.5,-222.5 318.5,-222.5 318.5,-192.5 434.5,-192.5 434.5,-222.5"/>
<text text-anchor="start" x="326.5" y="-210.5" font-family="Helvetica,sans-Serif" font-size="10.00">uvg_bitstream_copy</text>
<text text-anchor="middle" x="376.5" y="-199.5" font-family="Helvetica,sans-Serif" font-size="10.00">_bytes</text>
</a>
</g>
</g>
<!-- Node1&#45;&gt;Node2 -->
<g id="edge1_Node000001_Node000002" class="edge">
<title>Node1&#45;&gt;Node2</title>
<g id="a_edge1_Node000001_Node000002"><a xlink:title=" ">
<path fill="none" stroke="#63b8ff" d="M67.04,-128.77C82.72,-146.63 111.36,-175.41 143,-188.5 195.47,-210.21 260.21,-213.84 308.04,-212.68"/>
<polygon fill="#63b8ff" stroke="#63b8ff" points="308.4,-216.17 318.28,-212.35 308.18,-209.17 308.4,-216.17"/>
</a>
</g>
</g>
<!-- Node4 -->
<g id="Node000004" class="node">
<title>Node4</title>
<g id="a_Node000004"><a xlink:href="bitstream__util_8cpp.html#a3bdf77ac9496bba79a46c840a4042550" target="_top" xlink:title=" ">
<polygon fill="white" stroke="#666666" points="271,-179 143,-179 143,-160 271,-160 271,-179"/>
<text text-anchor="middle" x="207" y="-167" font-family="Helvetica,sans-Serif" font-size="10.00">uvg_bitstream_finalize</text>
</a>
</g>
</g>
<!-- Node1&#45;&gt;Node4 -->
<g id="edge3_Node000001_Node000004" class="edge">
<title>Node1&#45;&gt;Node4</title>
<g id="a_edge3_Node000001_Node000004"><a xlink:title=" ">
<path fill="none" stroke="#63b8ff" d="M86.89,-128.58C103.47,-136 124.1,-144.77 143,-151.5 148.29,-153.38 153.89,-155.21 159.47,-156.93"/>
<polygon fill="#63b8ff" stroke="#63b8ff" points="158.85,-160.4 169.44,-159.91 160.86,-153.69 158.85,-160.4"/>
</a>
</g>
</g>
<!-- Node6 -->
<g id="Node000006" class="node">
<title>Node6</title>
<g id="a_Node000006"><a xlink:href="bitstream__util_8cpp.html#a6ad7f5421e391ce3552b43f2c387ad59" target="_top" xlink:title=" ">
<polygon fill="white" stroke="#666666" points="261,-142 153,-142 153,-123 261,-123 261,-142"/>
<text text-anchor="middle" x="207" y="-130" font-family="Helvetica,sans-Serif" font-size="10.00">uvg_bitstream_init</text>
</a>
</g>
</g>
<!-- Node1&#45;&gt;Node6 -->
<g id="edge5_Node000001_Node000006" class="edge">
<title>Node1&#45;&gt;Node6</title>
<g id="a_edge5_Node000001_Node000006"><a xlink:title=" ">
<path fill="none" stroke="#63b8ff" d="M107.06,-120.09C118.5,-121.53 130.71,-123.06 142.52,-124.54"/>
<polygon fill="#63b8ff" stroke="#63b8ff" points="142.4,-128.05 152.76,-125.82 143.27,-121.11 142.4,-128.05"/>
</a>
</g>
</g>
<!-- Node7 -->
<g id="Node000007" class="node">
<title>Node7</title>
<g id="a_Node000007"><a xlink:href="bitstream__util_8cpp.html#a0e5e61b87281454f22e12f063c0bbeb6" target="_top" xlink:title=" ">
<polygon fill="white" stroke="#666666" points="261,-105 153,-105 153,-86 261,-86 261,-105"/>
<text text-anchor="middle" x="207" y="-93" font-family="Helvetica,sans-Serif" font-size="10.00">uvg_bitstream_put</text>
</a>
</g>
</g>
<!-- Node1&#45;&gt;Node7 -->
<g id="edge6_Node000001_Node000007" class="edge">
<title>Node1&#45;&gt;Node7</title>
<g id="a_edge6_Node000001_Node000007"><a xlink:title=" ">
<path fill="none" stroke="#63b8ff" d="M107.06,-107.25C118.5,-105.9 130.71,-104.44 142.52,-103.04"/>
<polygon fill="#63b8ff" stroke="#63b8ff" points="143.24,-106.48 152.76,-101.83 142.42,-99.53 143.24,-106.48"/>
</a>
</g>
</g>
<!-- Node9 -->
<g id="Node000009" class="node">
<title>Node9</title>
<g id="a_Node000009"><a xlink:href="bitstream__util_8cpp.html#ad3c9546517d2a78df0a17d9cd426ac17" target="_top" xlink:title=" ">
<polygon fill="white" stroke="#666666" points="263.5,-67.5 150.5,-67.5 150.5,-37.5 263.5,-37.5 263.5,-67.5"/>
<text text-anchor="start" x="158.5" y="-55.5" font-family="Helvetica,sans-Serif" font-size="10.00">uvg_bitstream_take</text>
<text text-anchor="middle" x="207" y="-44.5" font-family="Helvetica,sans-Serif" font-size="10.00">_chunks</text>
</a>
</g>
</g>
<!-- Node1&#45;&gt;Node9 -->
<g id="edge9_Node000001_Node000009" class="edge">
<title>Node1&#45;&gt;Node9</title>
<g id="a_edge9_Node000001_Node000009"><a xlink:title=" ">
<path fill="none" stroke="#63b8ff" d="M89.71,-98.48C105.89,-91.65 125.37,-83.54 143,-76.5 147.39,-74.75 151.96,-72.95 156.55,-71.17"/>
<polygon fill="#63b8ff" stroke="#63b8ff" points="157.86,-74.41 165.93,-67.54 155.34,-67.88 157.86,-74.41"/>
</a>
</g>
</g>
<!-- Node10 -->
<g id="Node000010" class="node">
<title>Node10</title>
<g id="a_Node000010"><a xlink:href="bitstream__util_8cpp.html#aa11755e3025221790473c013345959ab" target="_top" xlink:title=" ">
<polygon fill="white" stroke="#666666" points="261,-19 153,-19 153,0 261,0 261,-19"/>
<text text-anchor="middle" x="207" y="-7" font-family="Helvetica,sans-Serif" font-size="10.00">uvg_bitstream_tell</text>
</a>
</g>
</g>
<!-- Node1&#45;&gt;Node10 -->
<g id="edge10_Node000001_Node000010" class="edge">
<title>Node1&#45;&gt;Node10</title>
<g id="a_edge10_Node000001_Node000010"><a xlink:title=" ">
<path fill="none" stroke="#63b8ff" d="M66.34,-98.35C81.95,-79.38 111.18,-47.1 143,-28.5 146.66,-26.36 150.59,-24.44 154.62,-22.72"/>
<polygon fill="#63b8ff" stroke="#63b8ff" points="156.07,-25.92 164.16,-19.07 153.57,-19.38 156.07,-25.92"/>
</a>
</g>
</g>
<!-- Node3 -->
<g id="Node000003" class="node">
<title>Node3</title>
<g id="a_Node000003"><a xlink:href="bitstream__util_8cpp.html#a7b8aab2d25c86997e6d1462e4cbcd30f" target="_top" xlink:title=" ">
<polygon fill="white" stroke="#666666" points="598,-166.5 482,-166.5 482,-136.5 598,-136.5 598,-166.5"/>
<text text-anchor="start" x="490" y="-154.5" font-family="Helvetica,sans-Serif" font-size="10.00">uvg_bitstream_alloc</text>
<text text-anchor="middle" x="540" y="-143.5" font-family="Helvetica,sans-Serif" font-size="10.00">_chunk</text>
</a>
</g>
</g>
<!-- Node2&#45;&gt;Node3 -->
<g id="edge2_Node000002_Node000003" class="edge">
<title>Node2&#45;&gt;Node3</title>
<g id="a_edge2_Node000002_Node000003"><a xlink:title=" ">
<path fill="none" stroke="#63b8ff" d="M420.78,-192.49C440.87,-185.53 464.95,-177.18 486.11,-169.84"/>
<polygon fill="#63b8ff" stroke="#63b8ff" points="487.3,-173.13 495.6,-166.55 485.01,-166.52 487.3,-173.13"/>
</a>
</g>
</g>
<!-- Node5 -->
<g id="Node000005" class="node">
<title>Node5</title>
<g id="a_Node000005"><a xlink:href="bitstream__util_8cpp.html#a9f9ae794155176e68c744fa3f2ed57cd" target="_top" xlink:title=" ">
<polygon fill="white" stroke="#666666" points="432.5,-174.5 320.5,-174.5 320.5,-144.5 432.5,-144.5 432.5,-174.5"/>
<text text-anchor="start" x="328.5" y="-162.5" font-family="Helvetica,sans-Serif" font-size="10.00">uvg_bitstream_free</text>
<text text-anchor="middle" x="376.5" y="-151.5" font-family="Helvetica,sans-Serif" font-size="10.00">_chunks</text>
</a>
</g>
</g>
<!-- Node4&#45;&gt;Node5 -->
<g id="edge4_Node000004_Node000005" class="edge">
<title>Node4&#45;&gt;Node5</title>
<g id="a_edge4_Node000004_Node000005"><a xlink:title=" ">
<path fill="none" stroke="#63b8ff" d="M271.32,-165.72C284.04,-164.96 297.43,-164.16 310.22,-163.4"/>
<polygon fill="#63b8ff" stroke="#63b8ff" points="310.54,-166.88 320.32,-162.79 310.13,-159.9 310.54,-166.88"/>
</a>
</g>
</g>
<!-- Node8 -->
<g id="Node000008" class="node">
<title>Node8</title>
<g id="a_Node000008"><a xlink:href="bitstream__util_8cpp.html#a7cf378cfbd682b58c16948ad8935d7bc" target="_top" xlink:title="Write a byte to bitstream.">
<polygon fill="white" stroke="#666666" points="446,-116 307,-116 307,-97 446,-97 446,-116"/>
<text text-anchor="middle" x="376.5" y="-104" font-family="Helvetica,sans-Serif" font-size="10.00">uvg_bitstream_writebyte</text>
</a>
</g>
</g>
<!-- Node7&#45;&gt;Node8 -->
<g id="edge7_Node000007_Node000008" class="edge">
<title>Node7&#45;&gt;Node8</title>
<g id="a_edge7_Node000007_Node000008"><a xlink:title=" ">
<path fill="none" stroke="#63b8ff" d="M261.46,-99.01C272.75,-99.75 284.9,-100.55 296.9,-101.34"/>
<polygon fill="#63b8ff" stroke="#63b8ff" points="296.72,-104.83 306.93,-102 297.18,-97.85 296.72,-104.83"/>
</a>
</g>
</g>
<!-- Node8&#45;&gt;Node3 -->
<g id="edge8_Node000008_Node000003" class="edge">
<title>Node8&#45;&gt;Node3</title>
<g id="a_edge8_Node000008_Node000003"><a xlink:title=" ">
<path fill="none" stroke="#63b8ff" d="M411.75,-116.04C430.22,-121.19 453.61,-127.71 475.28,-133.75"/>
<polygon fill="#63b8ff" stroke="#63b8ff" points="474.52,-137.17 485.1,-136.48 476.4,-130.42 474.52,-137.17"/>
</a>
</g>
</g>
</g>
</svg>
