<?xml version="1.0" encoding="UTF-8" standalone="no"?>
<!DOCTYPE svg PUBLIC "-//W3C//DTD SVG 1.1//EN"
 "http://www.w3.org/Graphics/SVG/1.1/DTD/svg11.dtd">
<!-- Generated by graphviz version 2.43.0 (0)
 -->
<!-- Title: nanoflann::KDTreeBaseClass::load_tree Pages: 1 -->
<svg width="323pt" height="51pt"
 viewBox="0.00 0.00 323.00 50.50" xmlns="http://www.w3.org/2000/svg" xmlns:xlink="http://www.w3.org/1999/xlink">
<g id="graph0" class="graph" transform="scale(1 1) rotate(0) translate(4 46.5)">
<title>nanoflann::KDTreeBaseClass::load_tree</title>
<!-- Node1 -->
<g id="Node000001" class="node">
<title>Node1</title>
<g id="a_Node000001"><a xlink:title=" ">
<polygon fill="#999999" stroke="#666666" points="155,-30 0,-30 0,0 155,0 155,-30"/>
<text text-anchor="start" x="8" y="-18" font-family="Helvetica,sans-Serif" font-size="10.00">nanoflann::KDTreeBaseClass</text>
<text text-anchor="middle" x="77.5" y="-7" font-family="Helvetica,sans-Serif" font-size="10.00">::load_tree</text>
</a>
</g>
</g>
<!-- Node2 -->
<g id="Node000002" class="node">
<title>Node2</title>
<g id="a_Node000002"><a xlink:href="group__loadsave__grp.html#ga0e46446b869ab24cc7217bd799b5e11d" target="_top" xlink:title=" ">
<polygon fill="white" stroke="#666666" points="315,-24.5 191,-24.5 191,-5.5 315,-5.5 315,-24.5"/>
<text text-anchor="middle" x="253" y="-12.5" font-family="Helvetica,sans-Serif" font-size="10.00">nanoflann::load_value</text>
</a>
</g>
</g>
<!-- Node1&#45;&gt;Node2 -->
<g id="edge1_Node000001_Node000002" class="edge">
<title>Node1&#45;&gt;Node2</title>
<g id="a_edge1_Node000001_Node000002"><a xlink:title=" ">
<path fill="none" stroke="#63b8ff" d="M155.1,-15C163.62,-15 172.27,-15 180.72,-15"/>
<polygon fill="#63b8ff" stroke="#63b8ff" points="180.91,-18.5 190.91,-15 180.91,-11.5 180.91,-18.5"/>
</a>
</g>
</g>
<!-- Node2&#45;&gt;Node2 -->
<g id="edge2_Node000002_Node000002" class="edge">
<title>Node2&#45;&gt;Node2</title>
<g id="a_edge2_Node000002_Node000002"><a xlink:title=" ">
<path fill="none" stroke="#63b8ff" d="M226.18,-24.58C213.13,-33.23 222.07,-42.5 253,-42.5 273.78,-42.5 284.63,-38.32 285.56,-32.95"/>
<polygon fill="#63b8ff" stroke="#63b8ff" points="288.36,-30.85 279.82,-24.58 282.59,-34.81 288.36,-30.85"/>
</a>
</g>
</g>
</g>
</svg>
