<?xml version="1.0" encoding="UTF-8" standalone="no"?>
<!DOCTYPE svg PUBLIC "-//W3C//DTD SVG 1.1//EN"
 "http://www.w3.org/Graphics/SVG/1.1/DTD/svg11.dtd">
<!-- Generated by graphviz version 2.43.0 (0)
 -->
<!-- Title: PatchGeneration::generateFramePatches Pages: 1 -->
<svg width="744pt" height="478pt"
 viewBox="0.00 0.00 744.00 478.00" xmlns="http://www.w3.org/2000/svg" xmlns:xlink="http://www.w3.org/1999/xlink">
<g id="graph0" class="graph" transform="scale(1 1) rotate(0) translate(4 474)">
<title>PatchGeneration::generateFramePatches</title>
<!-- Node1 -->
<g id="Node000001" class="node">
<title>Node1</title>
<g id="a_Node000001"><a xlink:title=" ">
<polygon fill="#999999" stroke="#666666" points="146,-240 0,-240 0,-210 146,-210 146,-240"/>
<text text-anchor="start" x="8" y="-228" font-family="Helvetica,sans-Serif" font-size="10.00">PatchGeneration::generate</text>
<text text-anchor="middle" x="73" y="-217" font-family="Helvetica,sans-Serif" font-size="10.00">FramePatches</text>
</a>
</g>
</g>
<!-- Node2 -->
<g id="Node000002" class="node">
<title>Node2</title>
<g id="a_Node000002"><a xlink:href="namespaceNormalComputation.html#a46480ca405a1a36a28d865696ba485f0" target="_top" xlink:title=" ">
<polygon fill="white" stroke="#666666" points="336.5,-57 214.5,-57 214.5,-27 336.5,-27 336.5,-57"/>
<text text-anchor="start" x="222.5" y="-45" font-family="Helvetica,sans-Serif" font-size="10.00">NormalComputation::</text>
<text text-anchor="middle" x="275.5" y="-34" font-family="Helvetica,sans-Serif" font-size="10.00">computeNormals</text>
</a>
</g>
</g>
<!-- Node1&#45;&gt;Node2 -->
<g id="edge1_Node000001_Node000002" class="edge">
<title>Node1&#45;&gt;Node2</title>
<g id="a_edge1_Node000001_Node000002"><a xlink:title=" ">
<path fill="none" stroke="#63b8ff" d="M83.43,-209.81C100.48,-183.27 138.72,-127.88 182,-92 196.33,-80.12 213.93,-69.77 229.91,-61.62"/>
<polygon fill="#63b8ff" stroke="#63b8ff" points="231.68,-64.64 239.09,-57.07 228.58,-58.37 231.68,-64.64"/>
</a>
</g>
</g>
<!-- Node5 -->
<g id="Node000005" class="node">
<title>Node5</title>
<g id="a_Node000005"><a xlink:href="classPPISegmenter.html#a4a7440a210f2209c6048ec22dc338e8b" target="_top" xlink:title=" ">
<polygon fill="white" stroke="#666666" points="369,-373.5 182,-373.5 182,-354.5 369,-354.5 369,-373.5"/>
<text text-anchor="middle" x="275.5" y="-361.5" font-family="Helvetica,sans-Serif" font-size="10.00">PPISegmenter::initialSegmentation</text>
</a>
</g>
</g>
<!-- Node1&#45;&gt;Node5 -->
<g id="edge4_Node000001_Node000005" class="edge">
<title>Node1&#45;&gt;Node5</title>
<g id="a_edge4_Node000001_Node000005"><a xlink:title=" ">
<path fill="none" stroke="#63b8ff" d="M83.13,-240.36C99.47,-266.37 136.28,-318.8 182,-345 185.87,-347.21 189.95,-349.17 194.17,-350.9"/>
<polygon fill="#63b8ff" stroke="#63b8ff" points="192.98,-354.2 203.58,-354.35 195.39,-347.62 192.98,-354.2"/>
</a>
</g>
</g>
<!-- Node8 -->
<g id="Node000008" class="node">
<title>Node8</title>
<g id="a_Node000008"><a xlink:href="namespaceNormalOrientation.html#a5fadc067a7ed313e80ad559d11e7c67f" target="_top" xlink:title=" ">
<polygon fill="white" stroke="#666666" points="332,-336 219,-336 219,-306 332,-306 332,-336"/>
<text text-anchor="start" x="227" y="-324" font-family="Helvetica,sans-Serif" font-size="10.00">NormalOrientation::</text>
<text text-anchor="middle" x="275.5" y="-313" font-family="Helvetica,sans-Serif" font-size="10.00">orientNormals</text>
</a>
</g>
</g>
<!-- Node1&#45;&gt;Node8 -->
<g id="edge8_Node000001_Node000008" class="edge">
<title>Node1&#45;&gt;Node8</title>
<g id="a_edge8_Node000001_Node000008"><a xlink:title=" ">
<path fill="none" stroke="#63b8ff" d="M105.33,-240C139.95,-256.58 195.83,-283.33 233.81,-301.52"/>
<polygon fill="#63b8ff" stroke="#63b8ff" points="232.53,-304.79 243.06,-305.95 235.55,-298.47 232.53,-304.79"/>
</a>
</g>
</g>
<!-- Node10 -->
<g id="Node000010" class="node">
<title>Node10</title>
<g id="a_Node000010"><a xlink:href="classPatchSegmentation.html#ae9e1573c095e27775256945bfee089ac" target="_top" xlink:title=" ">
<polygon fill="white" stroke="#666666" points="334,-240 217,-240 217,-210 334,-210 334,-240"/>
<text text-anchor="start" x="225" y="-228" font-family="Helvetica,sans-Serif" font-size="10.00">PatchSegmentation::</text>
<text text-anchor="middle" x="275.5" y="-217" font-family="Helvetica,sans-Serif" font-size="10.00">patchSegmentation</text>
</a>
</g>
</g>
<!-- Node1&#45;&gt;Node10 -->
<g id="edge12_Node000001_Node000010" class="edge">
<title>Node1&#45;&gt;Node10</title>
<g id="a_edge12_Node000001_Node000010"><a xlink:title=" ">
<path fill="none" stroke="#63b8ff" d="M146.1,-225C165.89,-225 187.27,-225 206.81,-225"/>
<polygon fill="#63b8ff" stroke="#63b8ff" points="206.83,-228.5 216.83,-225 206.83,-221.5 206.83,-228.5"/>
</a>
</g>
</g>
<!-- Node15 -->
<g id="Node000015" class="node">
<title>Node15</title>
<g id="a_Node000015"><a xlink:href="namespaceslicingComputation.html#a35448755f6b8bfdb89fa37ed6aa3dcf2" target="_top" xlink:title=" ">
<polygon fill="white" stroke="#666666" points="339,-192 212,-192 212,-162 339,-162 339,-192"/>
<text text-anchor="start" x="220" y="-180" font-family="Helvetica,sans-Serif" font-size="10.00">slicingComputation</text>
<text text-anchor="middle" x="275.5" y="-169" font-family="Helvetica,sans-Serif" font-size="10.00">::ppiAssignationSlicing</text>
</a>
</g>
</g>
<!-- Node1&#45;&gt;Node15 -->
<g id="edge21_Node000001_Node000015" class="edge">
<title>Node1&#45;&gt;Node15</title>
<g id="a_edge21_Node000001_Node000015"><a xlink:title=" ">
<path fill="none" stroke="#63b8ff" d="M136.89,-209.94C157.51,-205.01 180.59,-199.48 201.88,-194.39"/>
<polygon fill="#63b8ff" stroke="#63b8ff" points="202.92,-197.73 211.83,-192 201.29,-190.93 202.92,-197.73"/>
</a>
</g>
</g>
<!-- Node16 -->
<g id="Node000016" class="node">
<title>Node16</title>
<g id="a_Node000016"><a xlink:href="classPPISegmenter.html#a581dc0d578e49609015b82b1f9c46f8a" target="_top" xlink:title=" ">
<polygon fill="white" stroke="#666666" points="369,-437.5 182,-437.5 182,-418.5 369,-418.5 369,-437.5"/>
<text text-anchor="middle" x="275.5" y="-425.5" font-family="Helvetica,sans-Serif" font-size="10.00">PPISegmenter::refineSegmentation</text>
</a>
</g>
</g>
<!-- Node1&#45;&gt;Node16 -->
<g id="edge22_Node000001_Node000016" class="edge">
<title>Node1&#45;&gt;Node16</title>
<g id="a_edge22_Node000001_Node000016"><a xlink:title=" ">
<path fill="none" stroke="#63b8ff" d="M81.12,-240.43C95.96,-271.15 132.95,-340.67 182,-383 197.74,-396.59 218.3,-407.12 236.04,-414.57"/>
<polygon fill="#63b8ff" stroke="#63b8ff" points="234.97,-417.91 245.55,-418.39 237.58,-411.42 234.97,-417.91"/>
</a>
</g>
</g>
<!-- Node18 -->
<g id="Node000018" class="node">
<title>Node18</title>
<g id="a_Node000018"><a xlink:href="utilsPatchGeneration_8hpp.html#a1e33592d61eabca8b87655fb1cf3c737" target="_top" xlink:title=" ">
<polygon fill="white" stroke="#666666" points="313.5,-120.5 237.5,-120.5 237.5,-101.5 313.5,-101.5 313.5,-120.5"/>
<text text-anchor="middle" x="275.5" y="-108.5" font-family="Helvetica,sans-Serif" font-size="10.00">voxelization</text>
</a>
</g>
</g>
<!-- Node1&#45;&gt;Node18 -->
<g id="edge25_Node000001_Node000018" class="edge">
<title>Node1&#45;&gt;Node18</title>
<g id="a_edge25_Node000001_Node000018"><a xlink:title=" ">
<path fill="none" stroke="#63b8ff" d="M94.48,-209.89C115.75,-194.55 150.29,-170.62 182,-153 201.12,-142.38 223.43,-132.19 241.34,-124.51"/>
<polygon fill="#63b8ff" stroke="#63b8ff" points="242.95,-127.63 250.8,-120.51 240.22,-121.18 242.95,-127.63"/>
</a>
</g>
</g>
<!-- Node3 -->
<g id="Node000003" class="node">
<title>Node3</title>
<g id="a_Node000003"><a xlink:href="namespaceFileExport.html#a6ebdd5de8f9a45307e11b410bb952b8a" target="_top" xlink:title=" ">
<polygon fill="white" stroke="#666666" points="568,-30 413,-30 413,0 568,0 568,-30"/>
<text text-anchor="start" x="421" y="-18" font-family="Helvetica,sans-Serif" font-size="10.00">FileExport::exportPointCloud</text>
<text text-anchor="middle" x="490.5" y="-7" font-family="Helvetica,sans-Serif" font-size="10.00">NormalComputation</text>
</a>
</g>
</g>
<!-- Node2&#45;&gt;Node3 -->
<g id="edge2_Node000002_Node000003" class="edge">
<title>Node2&#45;&gt;Node3</title>
<g id="a_edge2_Node000002_Node000003"><a xlink:title=" ">
<path fill="none" stroke="#63b8ff" d="M336.68,-34.37C357.17,-31.77 380.49,-28.82 402.64,-26.01"/>
<polygon fill="#63b8ff" stroke="#63b8ff" points="403.23,-29.46 412.71,-24.73 402.35,-22.52 403.23,-29.46"/>
</a>
</g>
</g>
<!-- Node4 -->
<g id="Node000004" class="node">
<title>Node4</title>
<g id="a_Node000004"><a xlink:href="namespaceuvgvpcc__enc.html#a69b2cb991ff48de10ff75bc3c0582a54" target="_top" xlink:title=" ">
<polygon fill="white" stroke="#666666" points="736,-282.5 612,-282.5 612,-263.5 736,-263.5 736,-282.5"/>
<text text-anchor="middle" x="674" y="-270.5" font-family="Helvetica,sans-Serif" font-size="10.00">uvgvpcc_enc::zeroPad</text>
</a>
</g>
</g>
<!-- Node3&#45;&gt;Node4 -->
<g id="edge3_Node000003_Node000004" class="edge">
<title>Node3&#45;&gt;Node4</title>
<g id="a_edge3_Node000003_Node000004"><a xlink:title=" ">
<path fill="none" stroke="#63b8ff" d="M563.19,-30.07C567.79,-32.6 572.13,-35.55 576,-39 642.02,-97.76 664.16,-208.47 670.63,-253.36"/>
<polygon fill="#63b8ff" stroke="#63b8ff" points="667.16,-253.83 671.96,-263.28 674.1,-252.9 667.16,-253.83"/>
</a>
</g>
</g>
<!-- Node6 -->
<g id="Node000006" class="node">
<title>Node6</title>
<g id="a_Node000006"><a xlink:href="utilsPatchGeneration_8hpp.html#a254e1f999f13aa89c65618b5cd6f707e" target="_top" xlink:title=" ">
<polygon fill="white" stroke="#666666" points="525,-373.5 456,-373.5 456,-354.5 525,-354.5 525,-373.5"/>
<text text-anchor="middle" x="490.5" y="-361.5" font-family="Helvetica,sans-Serif" font-size="10.00">dotProduct</text>
</a>
</g>
</g>
<!-- Node5&#45;&gt;Node6 -->
<g id="edge5_Node000005_Node000006" class="edge">
<title>Node5&#45;&gt;Node6</title>
<g id="a_edge5_Node000005_Node000006"><a xlink:title=" ">
<path fill="none" stroke="#63b8ff" d="M369.31,-364C395.92,-364 423.69,-364 445.83,-364"/>
<polygon fill="#63b8ff" stroke="#63b8ff" points="445.9,-367.5 455.9,-364 445.9,-360.5 445.9,-367.5"/>
</a>
</g>
</g>
<!-- Node7 -->
<g id="Node000007" class="node">
<title>Node7</title>
<g id="a_Node000007"><a xlink:href="namespaceFileExport.html#abfd9c58f0cd1e6b112ef97709d6a56fd" target="_top" xlink:title=" ">
<polygon fill="white" stroke="#666666" points="568,-422 413,-422 413,-392 568,-392 568,-422"/>
<text text-anchor="start" x="421" y="-410" font-family="Helvetica,sans-Serif" font-size="10.00">FileExport::exportPointCloud</text>
<text text-anchor="middle" x="490.5" y="-399" font-family="Helvetica,sans-Serif" font-size="10.00">InitialSegmentation</text>
</a>
</g>
</g>
<!-- Node5&#45;&gt;Node7 -->
<g id="edge6_Node000005_Node000007" class="edge">
<title>Node5&#45;&gt;Node7</title>
<g id="a_edge6_Node000005_Node000007"><a xlink:title=" ">
<path fill="none" stroke="#63b8ff" d="M323.77,-373.54C347.68,-378.37 377.42,-384.37 405.08,-389.96"/>
<polygon fill="#63b8ff" stroke="#63b8ff" points="404.67,-393.45 415.17,-391.99 406.06,-386.58 404.67,-393.45"/>
</a>
</g>
</g>
<!-- Node7&#45;&gt;Node4 -->
<g id="edge7_Node000007_Node000004" class="edge">
<title>Node7&#45;&gt;Node4</title>
<g id="a_edge7_Node000007_Node000004"><a xlink:title=" ">
<path fill="none" stroke="#63b8ff" d="M558.56,-391.89C564.67,-389.36 570.58,-386.42 576,-383 614.03,-359.03 645.74,-315.8 661.76,-291.28"/>
<polygon fill="#63b8ff" stroke="#63b8ff" points="664.87,-292.91 667.29,-282.59 658.97,-289.15 664.87,-292.91"/>
</a>
</g>
</g>
<!-- Node8&#45;&gt;Node6 -->
<g id="edge9_Node000008_Node000006" class="edge">
<title>Node8&#45;&gt;Node6</title>
<g id="a_edge9_Node000008_Node000006"><a xlink:title=" ">
<path fill="none" stroke="#63b8ff" d="M332.19,-332.24C367.55,-339.38 412.69,-348.49 445.54,-355.12"/>
<polygon fill="#63b8ff" stroke="#63b8ff" points="445.25,-358.64 455.74,-357.18 446.63,-351.78 445.25,-358.64"/>
</a>
</g>
</g>
<!-- Node9 -->
<g id="Node000009" class="node">
<title>Node9</title>
<g id="a_Node000009"><a xlink:href="namespaceFileExport.html#a47686502937a09de52acf65f0d6357db" target="_top" xlink:title=" ">
<polygon fill="white" stroke="#666666" points="568,-336 413,-336 413,-306 568,-306 568,-336"/>
<text text-anchor="start" x="421" y="-324" font-family="Helvetica,sans-Serif" font-size="10.00">FileExport::exportPointCloud</text>
<text text-anchor="middle" x="490.5" y="-313" font-family="Helvetica,sans-Serif" font-size="10.00">NormalOrientation</text>
</a>
</g>
</g>
<!-- Node8&#45;&gt;Node9 -->
<g id="edge10_Node000008_Node000009" class="edge">
<title>Node8&#45;&gt;Node9</title>
<g id="a_edge10_Node000008_Node000009"><a xlink:title=" ">
<path fill="none" stroke="#63b8ff" d="M332.19,-321C353.76,-321 378.96,-321 402.79,-321"/>
<polygon fill="#63b8ff" stroke="#63b8ff" points="402.91,-324.5 412.91,-321 402.91,-317.5 402.91,-324.5"/>
</a>
</g>
</g>
<!-- Node9&#45;&gt;Node4 -->
<g id="edge11_Node000009_Node000004" class="edge">
<title>Node9&#45;&gt;Node4</title>
<g id="a_edge11_Node000009_Node000004"><a xlink:title=" ">
<path fill="none" stroke="#63b8ff" d="M548.43,-305.94C573.72,-299.26 603.1,-291.49 626.97,-285.17"/>
<polygon fill="#63b8ff" stroke="#63b8ff" points="628.06,-288.5 636.83,-282.56 626.27,-281.74 628.06,-288.5"/>
</a>
</g>
</g>
<!-- Node11 -->
<g id="Node000011" class="node">
<title>Node11</title>
<g id="a_Node000011"><a xlink:href="namespaceFileExport.html#a77ccae02b99d57cd4d828bee46139f51" target="_top" xlink:title=" ">
<polygon fill="white" stroke="#666666" points="568,-288 413,-288 413,-258 568,-258 568,-288"/>
<text text-anchor="start" x="421" y="-276" font-family="Helvetica,sans-Serif" font-size="10.00">FileExport::exportPointCloud</text>
<text text-anchor="middle" x="490.5" y="-265" font-family="Helvetica,sans-Serif" font-size="10.00">PatchSegmentationBorder</text>
</a>
</g>
</g>
<!-- Node10&#45;&gt;Node11 -->
<g id="edge13_Node000010_Node000011" class="edge">
<title>Node10&#45;&gt;Node11</title>
<g id="a_edge13_Node000010_Node000011"><a xlink:title=" ">
<path fill="none" stroke="#63b8ff" d="M334.14,-237.99C358.39,-243.45 386.96,-249.89 412.94,-255.75"/>
<polygon fill="#63b8ff" stroke="#63b8ff" points="412.24,-259.18 422.76,-257.96 413.77,-252.35 412.24,-259.18"/>
</a>
</g>
</g>
<!-- Node12 -->
<g id="Node000012" class="node">
<title>Node12</title>
<g id="a_Node000012"><a xlink:href="namespaceFileExport.html#afa65f718975b30cc1387729f9e355b75" target="_top" xlink:title=" ">
<polygon fill="white" stroke="#666666" points="576,-240 405,-240 405,-210 576,-210 576,-240"/>
<text text-anchor="start" x="413" y="-228" font-family="Helvetica,sans-Serif" font-size="10.00">FileExport::exportPointCloud</text>
<text text-anchor="middle" x="490.5" y="-217" font-family="Helvetica,sans-Serif" font-size="10.00">PatchSegmentationBorderBlank</text>
</a>
</g>
</g>
<!-- Node10&#45;&gt;Node12 -->
<g id="edge15_Node000010_Node000012" class="edge">
<title>Node10&#45;&gt;Node12</title>
<g id="a_edge15_Node000010_Node000012"><a xlink:title=" ">
<path fill="none" stroke="#63b8ff" d="M334.14,-225C352.78,-225 373.96,-225 394.56,-225"/>
<polygon fill="#63b8ff" stroke="#63b8ff" points="394.61,-228.5 404.61,-225 394.61,-221.5 394.61,-228.5"/>
</a>
</g>
</g>
<!-- Node13 -->
<g id="Node000013" class="node">
<title>Node13</title>
<g id="a_Node000013"><a xlink:href="namespaceFileExport.html#a05bd491ceaac33ece5f9ce26395d0cbd" target="_top" xlink:title=" ">
<polygon fill="white" stroke="#666666" points="568,-192 413,-192 413,-162 568,-162 568,-192"/>
<text text-anchor="start" x="421" y="-180" font-family="Helvetica,sans-Serif" font-size="10.00">FileExport::exportPointCloud</text>
<text text-anchor="middle" x="490.5" y="-169" font-family="Helvetica,sans-Serif" font-size="10.00">PatchSegmentationColor</text>
</a>
</g>
</g>
<!-- Node10&#45;&gt;Node13 -->
<g id="edge17_Node000010_Node000013" class="edge">
<title>Node10&#45;&gt;Node13</title>
<g id="a_edge17_Node000010_Node000013"><a xlink:title=" ">
<path fill="none" stroke="#63b8ff" d="M334.14,-212.01C358.39,-206.55 386.96,-200.11 412.94,-194.25"/>
<polygon fill="#63b8ff" stroke="#63b8ff" points="413.77,-197.65 422.76,-192.04 412.24,-190.82 413.77,-197.65"/>
</a>
</g>
</g>
<!-- Node14 -->
<g id="Node000014" class="node">
<title>Node14</title>
<g id="a_Node000014"><a xlink:href="classrobin__hood_1_1detail_1_1Table.html#a6c2d436df6800ac290cc26da5961a331" target="_top" xlink:title=" ">
<polygon fill="white" stroke="#666666" points="542.5,-126 438.5,-126 438.5,-96 542.5,-96 542.5,-126"/>
<text text-anchor="start" x="446.5" y="-114" font-family="Helvetica,sans-Serif" font-size="10.00">robin_hood::detail</text>
<text text-anchor="middle" x="490.5" y="-103" font-family="Helvetica,sans-Serif" font-size="10.00">::Table::reserve</text>
</a>
</g>
</g>
<!-- Node10&#45;&gt;Node14 -->
<g id="edge19_Node000010_Node000014" class="edge">
<title>Node10&#45;&gt;Node14</title>
<g id="a_edge19_Node000010_Node000014"><a xlink:title=" ">
<path fill="none" stroke="#63b8ff" d="M334.33,-216.36C346.45,-212.86 358.66,-207.93 369,-201 391.15,-186.15 384.51,-170.06 405,-153 415.53,-144.23 428.21,-136.71 440.5,-130.55"/>
<polygon fill="#63b8ff" stroke="#63b8ff" points="442.27,-133.58 449.78,-126.11 439.25,-127.27 442.27,-133.58"/>
</a>
</g>
</g>
<!-- Node11&#45;&gt;Node4 -->
<g id="edge14_Node000011_Node000004" class="edge">
<title>Node11&#45;&gt;Node4</title>
<g id="a_edge14_Node000011_Node000004"><a xlink:title=" ">
<path fill="none" stroke="#63b8ff" d="M568.21,-273C579.39,-273 590.87,-273 601.94,-273"/>
<polygon fill="#63b8ff" stroke="#63b8ff" points="601.96,-276.5 611.96,-273 601.96,-269.5 601.96,-276.5"/>
</a>
</g>
</g>
<!-- Node12&#45;&gt;Node4 -->
<g id="edge16_Node000012_Node000004" class="edge">
<title>Node12&#45;&gt;Node4</title>
<g id="a_edge16_Node000012_Node000004"><a xlink:title=" ">
<path fill="none" stroke="#63b8ff" d="M548.43,-240.06C573.72,-246.74 603.1,-254.51 626.97,-260.83"/>
<polygon fill="#63b8ff" stroke="#63b8ff" points="626.27,-264.26 636.83,-263.44 628.06,-257.5 626.27,-264.26"/>
</a>
</g>
</g>
<!-- Node13&#45;&gt;Node4 -->
<g id="edge18_Node000013_Node000004" class="edge">
<title>Node13&#45;&gt;Node4</title>
<g id="a_edge18_Node000013_Node000004"><a xlink:title=" ">
<path fill="none" stroke="#63b8ff" d="M554.3,-192.07C561.77,-194.66 569.16,-197.63 576,-201 606.18,-215.87 636.63,-240.38 655.16,-256.6"/>
<polygon fill="#63b8ff" stroke="#63b8ff" points="653,-259.37 662.79,-263.41 657.66,-254.14 653,-259.37"/>
</a>
</g>
</g>
<!-- Node14&#45;&gt;Node14 -->
<g id="edge20_Node000014_Node000014" class="edge">
<title>Node14&#45;&gt;Node14</title>
<g id="a_edge20_Node000014_Node000014"><a xlink:title=" ">
<path fill="none" stroke="#63b8ff" d="M458.51,-126.28C451.4,-135.41 462.06,-144 490.5,-144 507.38,-144 518,-140.97 522.36,-136.6"/>
<polygon fill="#63b8ff" stroke="#63b8ff" points="525.86,-136.32 522.49,-126.28 518.86,-136.23 525.86,-136.32"/>
</a>
</g>
</g>
<!-- Node17 -->
<g id="Node000017" class="node">
<title>Node17</title>
<g id="a_Node000017"><a xlink:href="namespaceFileExport.html#abb3934fea49bd8651d8498d236496bb8" target="_top" xlink:title=" ">
<polygon fill="white" stroke="#666666" points="568,-470 413,-470 413,-440 568,-440 568,-470"/>
<text text-anchor="start" x="421" y="-458" font-family="Helvetica,sans-Serif" font-size="10.00">FileExport::exportPointCloud</text>
<text text-anchor="middle" x="490.5" y="-447" font-family="Helvetica,sans-Serif" font-size="10.00">RefineSegmentation</text>
</a>
</g>
</g>
<!-- Node16&#45;&gt;Node17 -->
<g id="edge23_Node000016_Node000017" class="edge">
<title>Node16&#45;&gt;Node17</title>
<g id="a_edge23_Node000016_Node000017"><a xlink:title=" ">
<path fill="none" stroke="#63b8ff" d="M351.6,-437.52C368.22,-439.63 385.96,-441.87 402.99,-444.03"/>
<polygon fill="#63b8ff" stroke="#63b8ff" points="402.56,-447.51 412.92,-445.29 403.44,-440.56 402.56,-447.51"/>
</a>
</g>
</g>
<!-- Node17&#45;&gt;Node4 -->
<g id="edge24_Node000017_Node000004" class="edge">
<title>Node17&#45;&gt;Node4</title>
<g id="a_edge24_Node000017_Node000004"><a xlink:title=" ">
<path fill="none" stroke="#63b8ff" d="M561.34,-439.84C566.54,-437.33 571.5,-434.41 576,-431 624.61,-394.16 654.4,-325.29 666.6,-291.99"/>
<polygon fill="#63b8ff" stroke="#63b8ff" points="669.92,-293.11 669.95,-282.52 663.32,-290.78 669.92,-293.11"/>
</a>
</g>
</g>
<!-- Node18&#45;&gt;Node14 -->
<g id="edge26_Node000018_Node000014" class="edge">
<title>Node18&#45;&gt;Node14</title>
<g id="a_edge26_Node000018_Node000014"><a xlink:title=" ">
<path fill="none" stroke="#63b8ff" d="M313.6,-111C345.2,-111 391.23,-111 428.27,-111"/>
<polygon fill="#63b8ff" stroke="#63b8ff" points="428.46,-114.5 438.46,-111 428.46,-107.5 428.46,-114.5"/>
</a>
</g>
</g>
<!-- Node19 -->
<g id="Node000019" class="node">
<title>Node19</title>
<g id="a_Node000019"><a xlink:href="classrobin__hood_1_1detail_1_1Table.html#a1d9deb34fedb87863788360123c53973" target="_top" xlink:title=" ">
<polygon fill="white" stroke="#666666" points="548,-78 433,-78 433,-48 548,-48 548,-78"/>
<text text-anchor="start" x="441" y="-66" font-family="Helvetica,sans-Serif" font-size="10.00">robin_hood::detail</text>
<text text-anchor="middle" x="490.5" y="-55" font-family="Helvetica,sans-Serif" font-size="10.00">::Table::try_emplace</text>
</a>
</g>
</g>
<!-- Node18&#45;&gt;Node19 -->
<g id="edge27_Node000018_Node000019" class="edge">
<title>Node18&#45;&gt;Node19</title>
<g id="a_edge27_Node000018_Node000019"><a xlink:title=" ">
<path fill="none" stroke="#63b8ff" d="M313.6,-102.64C343.67,-95.86 386.81,-86.14 422.85,-78.02"/>
<polygon fill="#63b8ff" stroke="#63b8ff" points="423.82,-81.39 432.8,-75.78 422.28,-74.56 423.82,-81.39"/>
</a>
</g>
</g>
</g>
</svg>
