<?xml version="1.0" encoding="UTF-8" standalone="no"?>
<!DOCTYPE svg PUBLIC "-//W3C//DTD SVG 1.1//EN"
 "http://www.w3.org/Graphics/SVG/1.1/DTD/svg11.dtd">
<!-- Generated by graphviz version 2.43.0 (0)
 -->
<!-- Title: PatchGeneration::generateFramePatches Pages: 1 -->
<!--zoomable 382 -->

<svg id="main" version="1.1" xmlns="http://www.w3.org/2000/svg" xmlns:xlink="http://www.w3.org/1999/xlink" xml:space="preserve" onload="init(evt)">
<style type="text/css"><![CDATA[
.node, .edge {opacity: 0.7;}
.node.selected, .edge.selected {opacity: 1;}
.edge:hover path { stroke: red; }
.edge:hover polygon { stroke: red; fill: red; }
]]></style>

<defs>
  <circle id="rim" cx="0" cy="0" r="7"/>
  <circle id="rim2" cx="0" cy="0" r="3.5"/>
  <g id="zoomPlus">
    <use xlink:href="#rim" fill="#404040"><set attributeName="fill" to="#808080" begin="zoomplus.mouseover" end="zoomplus.mouseout"/></use>
    <path d="M-4,0h8M0,-4v8" fill="none" stroke="white" stroke-width="1.5" pointer-events="none"/>
  </g>
  <g id="zoomMin">
    <use xlink:href="#rim" fill="#404040"><set attributeName="fill" to="#808080" begin="zoomminus.mouseover" end="zoomminus.mouseout"/></use>
    <path d="M-4,0h8" fill="none" stroke="white" stroke-width="1.5" pointer-events="none"/>
  </g>
  <g id="arrowUp" transform="translate(30 24)">
    <use xlink:href="#rim"/>
    <path pointer-events="none" fill="none" stroke="white" stroke-width="1.5" d="M0,-3.0v7 M-2.5,-0.5L0,-3.0L2.5,-0.5"/>
  </g>
  <g id="arrowRight" transform="rotate(90) translate(36 -43)">
    <use xlink:href="#rim"/>
    <path pointer-events="none" fill="none" stroke="white" stroke-width="1.5" d="M0,-3.0v7 M-2.5,-0.5L0,-3.0L2.5,-0.5"/>
  </g>
  <g id="arrowDown" transform="rotate(180) translate(-30 -48)">
    <use xlink:href="#rim"/>
    <path pointer-events="none" fill="none" stroke="white" stroke-width="1.5" d="M0,-3.0v7 M-2.5,-0.5L0,-3.0L2.5,-0.5"/>
  </g>
  <g id="arrowLeft" transform="rotate(270) translate(-36 17)">
    <use xlink:href="#rim"/>
    <path pointer-events="none" fill="none" stroke="white" stroke-width="1.5" d="M0,-3.0v7 M-2.5,-0.5L0,-3.0L2.5,-0.5"/>
  </g>
  <g id="resetDef">
    <use xlink:href="#rim2" fill="#404040"><set attributeName="fill" to="#808080" begin="reset.mouseover" end="reset.mouseout"/></use>
  </g>
</defs>
<script type="application/ecmascript">
var viewWidth = 728;
var viewHeight = 382;
var sectionId = 'dynsection-1';
</script>
<script type="application/ecmascript" xlink:href="svg.min.js"/>
<svg id="graph" class="graph">
<g id="viewport">
<title>PatchGeneration::generateFramePatches</title>
<!-- Node1 -->
<g id="Node000001" class="node">
<title>Node1</title>
<g id="a_Node000001"><a xlink:title=" ">
<polygon fill="#999999" stroke="#666666" points="146,-173 0,-173 0,-143 146,-143 146,-173"/>
<text text-anchor="start" x="8" y="-161" font-family="Helvetica,sans-Serif" font-size="10.00">PatchGeneration::generate</text>
<text text-anchor="middle" x="73" y="-150" font-family="Helvetica,sans-Serif" font-size="10.00">FramePatches</text>
</a>
</g>
</g>
<!-- Node2 -->
<g id="Node000002" class="node">
<title>Node2</title>
<g id="a_Node000002"><a xlink:href="namespaceNormalComputation.html#a46480ca405a1a36a28d865696ba485f0" target="_top" xlink:title=" ">
<polygon fill="white" stroke="#666666" points="336.5,-57 214.5,-57 214.5,-27 336.5,-27 336.5,-57"/>
<text text-anchor="start" x="222.5" y="-45" font-family="Helvetica,sans-Serif" font-size="10.00">NormalComputation::</text>
<text text-anchor="middle" x="275.5" y="-34" font-family="Helvetica,sans-Serif" font-size="10.00">computeNormals</text>
</a>
</g>
</g>
<!-- Node1&#45;&gt;Node2 -->
<g id="edge1_Node000001_Node000002" class="edge">
<title>Node1&#45;&gt;Node2</title>
<g id="a_edge1_Node000001_Node000002"><a xlink:title=" ">
<path fill="none" stroke="#63b8ff" d="M90.92,-142.9C111.34,-125.27 147.29,-96.08 182,-77 193.04,-70.93 205.35,-65.46 217.3,-60.76"/>
<polygon fill="#63b8ff" stroke="#63b8ff" points="218.68,-63.98 226.77,-57.14 216.18,-57.44 218.68,-63.98"/>
</a>
</g>
</g>
<!-- Node5 -->
<g id="Node000005" class="node">
<title>Node5</title>
<g id="a_Node000005"><a xlink:href="classPPISegmenter.html#a4a7440a210f2209c6048ec22dc338e8b" target="_top" xlink:title=" ">
<polygon fill="white" stroke="#666666" points="369,-282.5 182,-282.5 182,-263.5 369,-263.5 369,-282.5"/>
<text text-anchor="middle" x="275.5" y="-270.5" font-family="Helvetica,sans-Serif" font-size="10.00">PPISegmenter::initialSegmentation</text>
</a>
</g>
</g>
<!-- Node1&#45;&gt;Node5 -->
<g id="edge4_Node000001_Node000005" class="edge">
<title>Node1&#45;&gt;Node5</title>
<g id="a_edge4_Node000001_Node000005"><a xlink:title=" ">
<path fill="none" stroke="#63b8ff" d="M100.21,-173.03C138.86,-195.2 210.7,-236.4 248.96,-258.35"/>
<polygon fill="#63b8ff" stroke="#63b8ff" points="247.51,-261.55 257.92,-263.49 250.99,-255.48 247.51,-261.55"/>
</a>
</g>
</g>
<!-- Node8 -->
<g id="Node000008" class="node">
<title>Node8</title>
<g id="a_Node000008"><a xlink:href="namespaceNormalOrientation.html#a5fadc067a7ed313e80ad559d11e7c67f" target="_top" xlink:title=" ">
<polygon fill="white" stroke="#666666" points="332,-331 219,-331 219,-301 332,-301 332,-331"/>
<text text-anchor="start" x="227" y="-319" font-family="Helvetica,sans-Serif" font-size="10.00">NormalOrientation::</text>
<text text-anchor="middle" x="275.5" y="-308" font-family="Helvetica,sans-Serif" font-size="10.00">orientNormals</text>
</a>
</g>
</g>
<!-- Node1&#45;&gt;Node8 -->
<g id="edge8_Node000001_Node000008" class="edge">
<title>Node1&#45;&gt;Node8</title>
<g id="a_edge8_Node000001_Node000008"><a xlink:title=" ">
<path fill="none" stroke="#63b8ff" d="M81.84,-173.1C97.15,-201.07 133.8,-260.89 182,-292 190.26,-297.33 199.65,-301.48 209.21,-304.71"/>
<polygon fill="#63b8ff" stroke="#63b8ff" points="208.2,-308.06 218.78,-307.64 210.25,-301.37 208.2,-308.06"/>
</a>
</g>
</g>
<!-- Node10 -->
<g id="Node000010" class="node">
<title>Node10</title>
<g id="a_Node000010"><a xlink:href="classPatchSegmentation.html#ae9e1573c095e27775256945bfee089ac" target="_top" xlink:title=" ">
<polygon fill="white" stroke="#666666" points="334,-195 217,-195 217,-165 334,-165 334,-195"/>
<text text-anchor="start" x="225" y="-183" font-family="Helvetica,sans-Serif" font-size="10.00">PatchSegmentation::</text>
<text text-anchor="middle" x="275.5" y="-172" font-family="Helvetica,sans-Serif" font-size="10.00">patchSegmentation</text>
</a>
</g>
</g>
<!-- Node1&#45;&gt;Node10 -->
<g id="edge12_Node000001_Node000010" class="edge">
<title>Node1&#45;&gt;Node10</title>
<g id="a_edge12_Node000001_Node000010"><a xlink:title=" ">
<path fill="none" stroke="#63b8ff" d="M146.1,-165.91C165.89,-168.08 187.27,-170.43 206.81,-172.57"/>
<polygon fill="#63b8ff" stroke="#63b8ff" points="206.51,-176.06 216.83,-173.67 207.28,-169.1 206.51,-176.06"/>
</a>
</g>
</g>
<!-- Node13 -->
<g id="Node000013" class="node">
<title>Node13</title>
<g id="a_Node000013"><a xlink:href="classPPISegmenter.html#a581dc0d578e49609015b82b1f9c46f8a" target="_top" xlink:title=" ">
<polygon fill="white" stroke="#666666" points="369,-104.5 182,-104.5 182,-85.5 369,-85.5 369,-104.5"/>
<text text-anchor="middle" x="275.5" y="-92.5" font-family="Helvetica,sans-Serif" font-size="10.00">PPISegmenter::refineSegmentation</text>
</a>
</g>
</g>
<!-- Node1&#45;&gt;Node13 -->
<g id="edge17_Node000001_Node000013" class="edge">
<title>Node1&#45;&gt;Node13</title>
<g id="a_edge17_Node000001_Node000013"><a xlink:title=" ">
<path fill="none" stroke="#63b8ff" d="M112.95,-142.95C133.36,-135.31 158.86,-126.16 182,-119 195.65,-114.78 210.58,-110.68 224.38,-107.1"/>
<polygon fill="#63b8ff" stroke="#63b8ff" points="225.38,-110.46 234.2,-104.59 223.65,-103.68 225.38,-110.46"/>
</a>
</g>
</g>
<!-- Node15 -->
<g id="Node000015" class="node">
<title>Node15</title>
<g id="a_Node000015"><a xlink:href="utilsPatchGeneration_8hpp.html#a1e33592d61eabca8b87655fb1cf3c737" target="_top" xlink:title=" ">
<polygon fill="white" stroke="#666666" points="313.5,-146.5 237.5,-146.5 237.5,-127.5 313.5,-127.5 313.5,-146.5"/>
<text text-anchor="middle" x="275.5" y="-134.5" font-family="Helvetica,sans-Serif" font-size="10.00">voxelization</text>
</a>
</g>
</g>
<!-- Node1&#45;&gt;Node15 -->
<g id="edge20_Node000001_Node000015" class="edge">
<title>Node1&#45;&gt;Node15</title>
<g id="a_edge20_Node000001_Node000015"><a xlink:title=" ">
<path fill="none" stroke="#63b8ff" d="M146.1,-150.45C173.12,-147.62 203.1,-144.48 227.29,-141.94"/>
<polygon fill="#63b8ff" stroke="#63b8ff" points="227.7,-145.42 237.28,-140.9 226.97,-138.46 227.7,-145.42"/>
</a>
</g>
</g>
<!-- Node3 -->
<g id="Node000003" class="node">
<title>Node3</title>
<g id="a_Node000003"><a xlink:href="namespaceFileExport.html#a6ebdd5de8f9a45307e11b410bb952b8a" target="_top" xlink:title=" ">
<polygon fill="white" stroke="#666666" points="560,-30 405,-30 405,0 560,0 560,-30"/>
<text text-anchor="start" x="413" y="-18" font-family="Helvetica,sans-Serif" font-size="10.00">FileExport::exportPointCloud</text>
<text text-anchor="middle" x="482.5" y="-7" font-family="Helvetica,sans-Serif" font-size="10.00">NormalComputation</text>
</a>
</g>
</g>
<!-- Node2&#45;&gt;Node3 -->
<g id="edge2_Node000002_Node000003" class="edge">
<title>Node2&#45;&gt;Node3</title>
<g id="a_edge2_Node000002_Node000003"><a xlink:title=" ">
<path fill="none" stroke="#63b8ff" d="M336.62,-34.08C354.83,-31.68 375.21,-29 394.79,-26.42"/>
<polygon fill="#63b8ff" stroke="#63b8ff" points="395.49,-29.86 404.95,-25.08 394.58,-22.92 395.49,-29.86"/>
</a>
</g>
</g>
<!-- Node4 -->
<g id="Node000004" class="node">
<title>Node4</title>
<g id="a_Node000004"><a xlink:href="namespaceuvgvpcc__enc.html#a69b2cb991ff48de10ff75bc3c0582a54" target="_top" xlink:title=" ">
<polygon fill="white" stroke="#666666" points="720,-234.5 596,-234.5 596,-215.5 720,-215.5 720,-234.5"/>
<text text-anchor="middle" x="658" y="-222.5" font-family="Helvetica,sans-Serif" font-size="10.00">uvgvpcc_enc::zeroPad</text>
</a>
</g>
</g>
<!-- Node3&#45;&gt;Node4 -->
<g id="edge3_Node000003_Node000004" class="edge">
<title>Node3&#45;&gt;Node4</title>
<g id="a_edge3_Node000003_Node000004"><a xlink:title=" ">
<path fill="none" stroke="#63b8ff" d="M546.62,-30.18C551.41,-32.69 555.94,-35.6 560,-39 614.13,-84.32 641.91,-167.67 652.2,-205.46"/>
<polygon fill="#63b8ff" stroke="#63b8ff" points="648.84,-206.44 654.74,-215.23 655.61,-204.68 648.84,-206.44"/>
</a>
</g>
</g>
<!-- Node6 -->
<g id="Node000006" class="node">
<title>Node6</title>
<g id="a_Node000006"><a xlink:href="utilsPatchGeneration_8hpp.html#a254e1f999f13aa89c65618b5cd6f707e" target="_top" xlink:title=" ">
<polygon fill="white" stroke="#666666" points="517,-325.5 448,-325.5 448,-306.5 517,-306.5 517,-325.5"/>
<text text-anchor="middle" x="482.5" y="-313.5" font-family="Helvetica,sans-Serif" font-size="10.00">dotProduct</text>
</a>
</g>
</g>
<!-- Node5&#45;&gt;Node6 -->
<g id="edge5_Node000005_Node000006" class="edge">
<title>Node5&#45;&gt;Node6</title>
<g id="a_edge5_Node000005_Node000006"><a xlink:title=" ">
<path fill="none" stroke="#63b8ff" d="M323.57,-282.6C338.14,-285.59 354.24,-288.91 369,-292 391.68,-296.75 416.91,-302.12 437.72,-306.58"/>
<polygon fill="#63b8ff" stroke="#63b8ff" points="437.03,-310.01 447.55,-308.69 438.5,-303.17 437.03,-310.01"/>
</a>
</g>
</g>
<!-- Node7 -->
<g id="Node000007" class="node">
<title>Node7</title>
<g id="a_Node000007"><a xlink:href="namespaceFileExport.html#abfd9c58f0cd1e6b112ef97709d6a56fd" target="_top" xlink:title=" ">
<polygon fill="white" stroke="#666666" points="560,-288 405,-288 405,-258 560,-258 560,-288"/>
<text text-anchor="start" x="413" y="-276" font-family="Helvetica,sans-Serif" font-size="10.00">FileExport::exportPointCloud</text>
<text text-anchor="middle" x="482.5" y="-265" font-family="Helvetica,sans-Serif" font-size="10.00">InitialSegmentation</text>
</a>
</g>
</g>
<!-- Node5&#45;&gt;Node7 -->
<g id="edge6_Node000005_Node000007" class="edge">
<title>Node5&#45;&gt;Node7</title>
<g id="a_edge6_Node000005_Node000007"><a xlink:title=" ">
<path fill="none" stroke="#63b8ff" d="M369.1,-273C377.63,-273 386.24,-273 394.71,-273"/>
<polygon fill="#63b8ff" stroke="#63b8ff" points="394.96,-276.5 404.96,-273 394.96,-269.5 394.96,-276.5"/>
</a>
</g>
</g>
<!-- Node7&#45;&gt;Node4 -->
<g id="edge7_Node000007_Node000004" class="edge">
<title>Node7&#45;&gt;Node4</title>
<g id="a_edge7_Node000007_Node000004"><a xlink:title=" ">
<path fill="none" stroke="#63b8ff" d="M537.92,-257.94C561.99,-251.29 589.93,-243.56 612.69,-237.26"/>
<polygon fill="#63b8ff" stroke="#63b8ff" points="613.72,-240.6 622.43,-234.56 611.86,-233.86 613.72,-240.6"/>
</a>
</g>
</g>
<!-- Node8&#45;&gt;Node6 -->
<g id="edge9_Node000008_Node000006" class="edge">
<title>Node8&#45;&gt;Node6</title>
<g id="a_edge9_Node000008_Node000006"><a xlink:title=" ">
<path fill="none" stroke="#63b8ff" d="M332.25,-316C365.48,-316 407.06,-316 437.89,-316"/>
<polygon fill="#63b8ff" stroke="#63b8ff" points="437.9,-319.5 447.9,-316 437.9,-312.5 437.9,-319.5"/>
</a>
</g>
</g>
<!-- Node9 -->
<g id="Node000009" class="node">
<title>Node9</title>
<g id="a_Node000009"><a xlink:href="namespaceFileExport.html#a47686502937a09de52acf65f0d6357db" target="_top" xlink:title=" ">
<polygon fill="white" stroke="#666666" points="560,-374 405,-374 405,-344 560,-344 560,-374"/>
<text text-anchor="start" x="413" y="-362" font-family="Helvetica,sans-Serif" font-size="10.00">FileExport::exportPointCloud</text>
<text text-anchor="middle" x="482.5" y="-351" font-family="Helvetica,sans-Serif" font-size="10.00">NormalOrientation</text>
</a>
</g>
</g>
<!-- Node8&#45;&gt;Node9 -->
<g id="edge10_Node000008_Node000009" class="edge">
<title>Node8&#45;&gt;Node9</title>
<g id="a_edge10_Node000008_Node000009"><a xlink:title=" ">
<path fill="none" stroke="#63b8ff" d="M332.25,-327.69C353.11,-332.07 377.26,-337.14 399.98,-341.9"/>
<polygon fill="#63b8ff" stroke="#63b8ff" points="399.44,-345.36 409.95,-343.99 400.88,-338.51 399.44,-345.36"/>
</a>
</g>
</g>
<!-- Node9&#45;&gt;Node4 -->
<g id="edge11_Node000009_Node000004" class="edge">
<title>Node9&#45;&gt;Node4</title>
<g id="a_edge11_Node000009_Node000004"><a xlink:title=" ">
<path fill="none" stroke="#63b8ff" d="M543.03,-343.92C548.98,-341.37 554.75,-338.41 560,-335 597.7,-310.51 629.54,-267.48 645.67,-243.13"/>
<polygon fill="#63b8ff" stroke="#63b8ff" points="648.75,-244.81 651.24,-234.51 642.87,-241.01 648.75,-244.81"/>
</a>
</g>
</g>
<!-- Node11 -->
<g id="Node000011" class="node">
<title>Node11</title>
<g id="a_Node000011"><a xlink:href="namespaceFileExport.html#a2679d8ba97301be6900c125953a54986" target="_top" xlink:title=" ">
<polygon fill="white" stroke="#666666" points="560,-240 405,-240 405,-210 560,-210 560,-240"/>
<text text-anchor="start" x="413" y="-228" font-family="Helvetica,sans-Serif" font-size="10.00">FileExport::exportPointCloud</text>
<text text-anchor="middle" x="482.5" y="-217" font-family="Helvetica,sans-Serif" font-size="10.00">PatchSegmentation</text>
</a>
</g>
</g>
<!-- Node10&#45;&gt;Node11 -->
<g id="edge13_Node000010_Node000011" class="edge">
<title>Node10&#45;&gt;Node11</title>
<g id="a_edge13_Node000010_Node000011"><a xlink:title=" ">
<path fill="none" stroke="#63b8ff" d="M334.15,-192.65C355.5,-197.34 380.09,-202.74 402.99,-207.77"/>
<polygon fill="#63b8ff" stroke="#63b8ff" points="402.51,-211.24 413.03,-209.97 404.01,-204.41 402.51,-211.24"/>
</a>
</g>
</g>
<!-- Node12 -->
<g id="Node000012" class="node">
<title>Node12</title>
<g id="a_Node000012"><a xlink:href="classrobin__hood_1_1detail_1_1Table.html#a6c2d436df6800ac290cc26da5961a331" target="_top" xlink:title=" ">
<polygon fill="white" stroke="#666666" points="534.5,-174 430.5,-174 430.5,-144 534.5,-144 534.5,-174"/>
<text text-anchor="start" x="438.5" y="-162" font-family="Helvetica,sans-Serif" font-size="10.00">robin_hood::detail</text>
<text text-anchor="middle" x="482.5" y="-151" font-family="Helvetica,sans-Serif" font-size="10.00">::Table::reserve</text>
</a>
</g>
</g>
<!-- Node10&#45;&gt;Node12 -->
<g id="edge15_Node000010_Node000012" class="edge">
<title>Node10&#45;&gt;Node12</title>
<g id="a_edge15_Node000010_Node000012"><a xlink:title=" ">
<path fill="none" stroke="#63b8ff" d="M334.15,-174.09C360.93,-171.35 392.79,-168.09 420.03,-165.3"/>
<polygon fill="#63b8ff" stroke="#63b8ff" points="420.63,-168.75 430.22,-164.25 419.91,-161.79 420.63,-168.75"/>
</a>
</g>
</g>
<!-- Node11&#45;&gt;Node4 -->
<g id="edge14_Node000011_Node000004" class="edge">
<title>Node11&#45;&gt;Node4</title>
<g id="a_edge14_Node000011_Node000004"><a xlink:title=" ">
<path fill="none" stroke="#63b8ff" d="M560.1,-225C568.62,-225 577.27,-225 585.72,-225"/>
<polygon fill="#63b8ff" stroke="#63b8ff" points="585.91,-228.5 595.91,-225 585.91,-221.5 585.91,-228.5"/>
</a>
</g>
</g>
<!-- Node12&#45;&gt;Node12 -->
<g id="edge16_Node000012_Node000012" class="edge">
<title>Node12&#45;&gt;Node12</title>
<g id="a_edge16_Node000012_Node000012"><a xlink:title=" ">
<path fill="none" stroke="#63b8ff" d="M451.91,-174.28C445.12,-183.41 455.31,-192 482.5,-192 498.64,-192 508.79,-188.97 512.96,-184.6"/>
<polygon fill="#63b8ff" stroke="#63b8ff" points="516.46,-184.32 513.09,-174.28 509.46,-184.23 516.46,-184.32"/>
</a>
</g>
</g>
<!-- Node14 -->
<g id="Node000014" class="node">
<title>Node14</title>
<g id="a_Node000014"><a xlink:href="namespaceFileExport.html#abb3934fea49bd8651d8498d236496bb8" target="_top" xlink:title=" ">
<polygon fill="white" stroke="#666666" points="560,-78 405,-78 405,-48 560,-48 560,-78"/>
<text text-anchor="start" x="413" y="-66" font-family="Helvetica,sans-Serif" font-size="10.00">FileExport::exportPointCloud</text>
<text text-anchor="middle" x="482.5" y="-55" font-family="Helvetica,sans-Serif" font-size="10.00">RefineSegmentation</text>
</a>
</g>
</g>
<!-- Node13&#45;&gt;Node14 -->
<g id="edge18_Node000013_Node000014" class="edge">
<title>Node13&#45;&gt;Node14</title>
<g id="a_edge18_Node000013_Node000014"><a xlink:title=" ">
<path fill="none" stroke="#63b8ff" d="M337.45,-85.49C355.44,-82.68 375.49,-79.55 394.77,-76.54"/>
<polygon fill="#63b8ff" stroke="#63b8ff" points="395.43,-79.98 404.77,-74.98 394.35,-73.06 395.43,-79.98"/>
</a>
</g>
</g>
<!-- Node14&#45;&gt;Node4 -->
<g id="edge19_Node000014_Node000004" class="edge">
<title>Node14&#45;&gt;Node4</title>
<g id="a_edge19_Node000014_Node000004"><a xlink:title=" ">
<path fill="none" stroke="#63b8ff" d="M544.6,-78.04C550.05,-80.59 555.28,-83.55 560,-87 603.57,-118.84 634.67,-176.34 648.68,-206.07"/>
<polygon fill="#63b8ff" stroke="#63b8ff" points="645.58,-207.7 652.92,-215.34 651.95,-204.79 645.58,-207.7"/>
</a>
</g>
</g>
<!-- Node15&#45;&gt;Node12 -->
<g id="edge21_Node000015_Node000012" class="edge">
<title>Node15&#45;&gt;Node12</title>
<g id="a_edge21_Node000015_Node000012"><a xlink:title=" ">
<path fill="none" stroke="#63b8ff" d="M313.62,-140.98C343.34,-144.17 385.65,-148.71 420.35,-152.44"/>
<polygon fill="#63b8ff" stroke="#63b8ff" points="420.07,-155.93 430.39,-153.51 420.82,-148.97 420.07,-155.93"/>
</a>
</g>
</g>
<!-- Node16 -->
<g id="Node000016" class="node">
<title>Node16</title>
<g id="a_Node000016"><a xlink:href="classrobin__hood_1_1detail_1_1Table.html#a1d9deb34fedb87863788360123c53973" target="_top" xlink:title=" ">
<polygon fill="white" stroke="#666666" points="540,-126 425,-126 425,-96 540,-96 540,-126"/>
<text text-anchor="start" x="433" y="-114" font-family="Helvetica,sans-Serif" font-size="10.00">robin_hood::detail</text>
<text text-anchor="middle" x="482.5" y="-103" font-family="Helvetica,sans-Serif" font-size="10.00">::Table::try_emplace</text>
</a>
</g>
</g>
<!-- Node15&#45;&gt;Node16 -->
<g id="edge22_Node000015_Node000016" class="edge">
<title>Node15&#45;&gt;Node16</title>
<g id="a_edge22_Node000015_Node000016"><a xlink:title=" ">
<path fill="none" stroke="#63b8ff" d="M313.62,-132.29C341.75,-128.72 381.15,-123.73 414.71,-119.47"/>
<polygon fill="#63b8ff" stroke="#63b8ff" points="415.44,-122.91 424.92,-118.18 414.56,-115.96 415.44,-122.91"/>
</a>
</g>
</g>
</g>
</svg>

<g id="navigator" transform="translate(0 0)" fill="#404254">
  <rect fill="#f2f5e9" fill-opacity="0.5" stroke="#606060" stroke-width=".5" x="0" y="0" width="60" height="60"/>
  <use id="zoomplus" xlink:href="#zoomPlus" x="17" y="9" onmousedown="handleZoom(evt,'in')"/>
  <use id="zoomminus" xlink:href="#zoomMin" x="42" y="9" onmousedown="handleZoom(evt,'out')"/>
  <use id="reset" xlink:href="#resetDef" x="30" y="36" onmousedown="handleReset()"/>
   <use id="arrowup" xlink:href="#arrowUp" x="0" y="0" onmousedown="handlePan(0,-1)"/>
  <use id="arrowright" xlink:href="#arrowRight" x="0" y="0" onmousedown="handlePan(1,0)"/>
  <use id="arrowdown" xlink:href="#arrowDown" x="0" y="0" onmousedown="handlePan(0,1)"/>
  <use id="arrowleft" xlink:href="#arrowLeft" x="0" y="0" onmousedown="handlePan(-1,0)"/>
</g>
<svg viewBox="0 0 15 15" width="100%" height="30px" preserveAspectRatio="xMaxYMin meet">
 <g id="arrow_out" transform="scale(0.3 0.3)">
  <a xlink:href="classPatchGeneration_a0f5554a29116f3ceeba740292bffa5d7_cgraph_org.svg" target="_base">
   <rect id="button" ry="5" rx="5" y="6" x="6" height="38" width="38"
        fill="#f2f5e9" fill-opacity="0.5" stroke="#606060" stroke-width="1.0"/>
   <path id="arrow"
     d="M 11.500037,31.436501 C 11.940474,20.09759 22.043105,11.32322 32.158766,21.979434 L 37.068811,17.246167 C 37.068811,17.246167 37.088388,32 37.088388,32 L 22.160133,31.978069 C 22.160133,31.978069 26.997745,27.140456 26.997745,27.140456 C 18.528582,18.264221 13.291696,25.230495 11.500037,31.436501 z"
     style="fill:#404040;"/>
  </a>
 </g>
</svg>

<style type='text/css'>
<![CDATA[
[data-mouse-over-selected='false'] { opacity: 0.7; }
[data-mouse-over-selected='true']  { opacity: 1.0; }
]]>
</style>
<script type="application/ecmascript"><![CDATA[
document.addEventListener('DOMContentLoaded', (event) => {
  highlightEdges();
  highlightAdjacentNodes();
});
]]></script>
</svg>
