<?xml version="1.0" encoding="UTF-8" standalone="no"?>
<!DOCTYPE svg PUBLIC "-//W3C//DTD SVG 1.1//EN"
 "http://www.w3.org/Graphics/SVG/1.1/DTD/svg11.dtd">
<!-- Generated by graphviz version 2.43.0 (0)
 -->
<!-- Title: miniply::PLYReader::find_indices Pages: 1 -->
<svg width="568pt" height="124pt"
 viewBox="0.00 0.00 568.00 124.00" xmlns="http://www.w3.org/2000/svg" xmlns:xlink="http://www.w3.org/1999/xlink">
<g id="graph0" class="graph" transform="scale(1 1) rotate(0) translate(4 120)">
<title>miniply::PLYReader::find_indices</title>
<!-- Node1 -->
<g id="Node000001" class="node">
<title>Node1</title>
<g id="a_Node000001"><a xlink:title=" ">
<polygon fill="#999999" stroke="#666666" points="110,-73 0,-73 0,-43 110,-43 110,-73"/>
<text text-anchor="start" x="8" y="-61" font-family="Helvetica,sans-Serif" font-size="10.00">miniply::PLYReader</text>
<text text-anchor="middle" x="55" y="-50" font-family="Helvetica,sans-Serif" font-size="10.00">::find_indices</text>
</a>
</g>
</g>
<!-- Node2 -->
<g id="Node000002" class="node">
<title>Node2</title>
<g id="a_Node000002"><a xlink:href="classminiply_1_1PLYReader.html#ab6f68be0808073bcb0f4321cc1718d44" target="_top" xlink:title="Equivalent to calling find_properties on the current element.">
<polygon fill="white" stroke="#666666" points="256,-73 146,-73 146,-43 256,-43 256,-73"/>
<text text-anchor="start" x="154" y="-61" font-family="Helvetica,sans-Serif" font-size="10.00">miniply::PLYReader</text>
<text text-anchor="middle" x="201" y="-50" font-family="Helvetica,sans-Serif" font-size="10.00">::find_properties</text>
</a>
</g>
</g>
<!-- Node1&#45;&gt;Node2 -->
<g id="edge1_Node000001_Node000002" class="edge">
<title>Node1&#45;&gt;Node2</title>
<g id="a_edge1_Node000001_Node000002"><a xlink:title=" ">
<path fill="none" stroke="#63b8ff" d="M110.03,-58C118.31,-58 126.94,-58 135.42,-58"/>
<polygon fill="#63b8ff" stroke="#63b8ff" points="135.67,-61.5 145.67,-58 135.67,-54.5 135.67,-61.5"/>
</a>
</g>
</g>
<!-- Node3 -->
<g id="Node000003" class="node">
<title>Node3</title>
<g id="a_Node000003"><a xlink:href="classminiply_1_1PLYReader.html#a13bf1a5ab6c1547622af0729f707c52d" target="_top" xlink:title=" ">
<polygon fill="white" stroke="#666666" points="405,-116 295,-116 295,-86 405,-86 405,-116"/>
<text text-anchor="start" x="303" y="-104" font-family="Helvetica,sans-Serif" font-size="10.00">miniply::PLYReader</text>
<text text-anchor="middle" x="350" y="-93" font-family="Helvetica,sans-Serif" font-size="10.00">::element</text>
</a>
</g>
</g>
<!-- Node2&#45;&gt;Node3 -->
<g id="edge2_Node000002_Node000003" class="edge">
<title>Node2&#45;&gt;Node3</title>
<g id="a_edge2_Node000002_Node000003"><a xlink:title=" ">
<path fill="none" stroke="#63b8ff" d="M253.41,-73.04C264.43,-76.26 276.17,-79.7 287.52,-83.02"/>
<polygon fill="#63b8ff" stroke="#63b8ff" points="286.79,-86.45 297.37,-85.9 288.75,-79.73 286.79,-86.45"/>
</a>
</g>
</g>
<!-- Node4 -->
<g id="Node000004" class="node">
<title>Node4</title>
<g id="a_Node000004"><a xlink:href="classminiply_1_1PLYReader.html#a82366c40f8779bf12dbcbe3c4a22ae36" target="_top" xlink:title=" ">
<polygon fill="white" stroke="#666666" points="557,-97 447,-97 447,-67 557,-67 557,-97"/>
<text text-anchor="start" x="455" y="-85" font-family="Helvetica,sans-Serif" font-size="10.00">miniply::PLYReader</text>
<text text-anchor="middle" x="502" y="-74" font-family="Helvetica,sans-Serif" font-size="10.00">::has_element</text>
</a>
</g>
</g>
<!-- Node2&#45;&gt;Node4 -->
<g id="edge6_Node000002_Node000004" class="edge">
<title>Node2&#45;&gt;Node4</title>
<g id="a_edge6_Node000002_Node000004"><a xlink:title=" ">
<path fill="none" stroke="#63b8ff" d="M256.15,-62.35C306.9,-66.42 382.81,-72.51 436.63,-76.83"/>
<polygon fill="#63b8ff" stroke="#63b8ff" points="436.5,-80.33 446.75,-77.65 437.06,-73.36 436.5,-80.33"/>
</a>
</g>
</g>
<!-- Node5 -->
<g id="Node000005" class="node">
<title>Node5</title>
<g id="a_Node000005"><a xlink:href="structminiply_1_1PLYElement.html#a01df0314a97c209b2ce963839dee5009" target="_top" xlink:title=" ">
<polygon fill="white" stroke="#666666" points="408,-30 292,-30 292,0 408,0 408,-30"/>
<text text-anchor="start" x="300" y="-18" font-family="Helvetica,sans-Serif" font-size="10.00">miniply::PLYElement</text>
<text text-anchor="middle" x="350" y="-7" font-family="Helvetica,sans-Serif" font-size="10.00">::find_properties_va</text>
</a>
</g>
</g>
<!-- Node2&#45;&gt;Node5 -->
<g id="edge4_Node000002_Node000005" class="edge">
<title>Node2&#45;&gt;Node5</title>
<g id="a_edge4_Node000002_Node000005"><a xlink:title=" ">
<path fill="none" stroke="#63b8ff" d="M253.41,-42.96C264.43,-39.74 276.17,-36.3 287.52,-32.98"/>
<polygon fill="#63b8ff" stroke="#63b8ff" points="288.75,-36.27 297.37,-30.1 286.79,-29.55 288.75,-36.27"/>
</a>
</g>
</g>
<!-- Node3&#45;&gt;Node4 -->
<g id="edge3_Node000003_Node000004" class="edge">
<title>Node3&#45;&gt;Node4</title>
<g id="a_edge3_Node000003_Node000004"><a xlink:title=" ">
<path fill="none" stroke="#63b8ff" d="M405.15,-94.14C415.46,-92.84 426.33,-91.46 436.9,-90.12"/>
<polygon fill="#63b8ff" stroke="#63b8ff" points="437.45,-93.58 446.93,-88.85 436.57,-86.63 437.45,-93.58"/>
</a>
</g>
</g>
<!-- Node6 -->
<g id="Node000006" class="node">
<title>Node6</title>
<g id="a_Node000006"><a xlink:href="structminiply_1_1PLYElement.html#a4fcde3b05eba9bf9206513c0e70223af" target="_top" xlink:title=" ">
<polygon fill="white" stroke="#666666" points="560,-30 444,-30 444,0 560,0 560,-30"/>
<text text-anchor="start" x="452" y="-18" font-family="Helvetica,sans-Serif" font-size="10.00">miniply::PLYElement</text>
<text text-anchor="middle" x="502" y="-7" font-family="Helvetica,sans-Serif" font-size="10.00">::find_property</text>
</a>
</g>
</g>
<!-- Node5&#45;&gt;Node6 -->
<g id="edge5_Node000005_Node000006" class="edge">
<title>Node5&#45;&gt;Node6</title>
<g id="a_edge5_Node000005_Node000006"><a xlink:title=" ">
<path fill="none" stroke="#63b8ff" d="M408.14,-15C416.38,-15 424.92,-15 433.34,-15"/>
<polygon fill="#63b8ff" stroke="#63b8ff" points="433.53,-18.5 443.53,-15 433.53,-11.5 433.53,-18.5"/>
</a>
</g>
</g>
</g>
</svg>
