<?xml version="1.0" encoding="UTF-8" standalone="no"?>
<!DOCTYPE svg PUBLIC "-//W3C//DTD SVG 1.1//EN"
 "http://www.w3.org/Graphics/SVG/1.1/DTD/svg11.dtd">
<!-- Generated by graphviz version 2.43.0 (0)
 -->
<!-- Title: atlas_context::write_atlas_eob Pages: 1 -->
<svg width="592pt" height="38pt"
 viewBox="0.00 0.00 592.00 38.00" xmlns="http://www.w3.org/2000/svg" xmlns:xlink="http://www.w3.org/1999/xlink">
<g id="graph0" class="graph" transform="scale(1 1) rotate(0) translate(4 34)">
<title>atlas_context::write_atlas_eob</title>
<!-- Node1 -->
<g id="Node000001" class="node">
<title>Node1</title>
<g id="a_Node000001"><a xlink:title=" ">
<polygon fill="#999999" stroke="#666666" points="113,-30 0,-30 0,0 113,0 113,-30"/>
<text text-anchor="start" x="8" y="-18" font-family="Helvetica,sans-Serif" font-size="10.00">atlas_context::write</text>
<text text-anchor="middle" x="56.5" y="-7" font-family="Helvetica,sans-Serif" font-size="10.00">_atlas_eob</text>
</a>
</g>
</g>
<!-- Node2 -->
<g id="Node000002" class="node">
<title>Node2</title>
<g id="a_Node000002"><a xlink:href="bitstream__util_8cpp.html#a0e5e61b87281454f22e12f063c0bbeb6" target="_top" xlink:title=" ">
<polygon fill="white" stroke="#666666" points="257,-24.5 149,-24.5 149,-5.5 257,-5.5 257,-24.5"/>
<text text-anchor="middle" x="203" y="-12.5" font-family="Helvetica,sans-Serif" font-size="10.00">uvg_bitstream_put</text>
</a>
</g>
</g>
<!-- Node1&#45;&gt;Node2 -->
<g id="edge1_Node000001_Node000002" class="edge">
<title>Node1&#45;&gt;Node2</title>
<g id="a_edge1_Node000001_Node000002"><a xlink:title=" ">
<path fill="none" stroke="#63b8ff" d="M113.37,-15C121.61,-15 130.15,-15 138.54,-15"/>
<polygon fill="#63b8ff" stroke="#63b8ff" points="138.65,-18.5 148.65,-15 138.65,-11.5 138.65,-18.5"/>
</a>
</g>
</g>
<!-- Node3 -->
<g id="Node000003" class="node">
<title>Node3</title>
<g id="a_Node000003"><a xlink:href="bitstream__util_8cpp.html#a7cf378cfbd682b58c16948ad8935d7bc" target="_top" xlink:title="Write a byte to bitstream.">
<polygon fill="white" stroke="#666666" points="432,-24.5 293,-24.5 293,-5.5 432,-5.5 432,-24.5"/>
<text text-anchor="middle" x="362.5" y="-12.5" font-family="Helvetica,sans-Serif" font-size="10.00">uvg_bitstream_writebyte</text>
</a>
</g>
</g>
<!-- Node2&#45;&gt;Node3 -->
<g id="edge2_Node000002_Node000003" class="edge">
<title>Node2&#45;&gt;Node3</title>
<g id="a_edge2_Node000002_Node000003"><a xlink:title=" ">
<path fill="none" stroke="#63b8ff" d="M257.32,-15C265.53,-15 274.16,-15 282.78,-15"/>
<polygon fill="#63b8ff" stroke="#63b8ff" points="282.88,-18.5 292.88,-15 282.88,-11.5 282.88,-18.5"/>
</a>
</g>
</g>
<!-- Node4 -->
<g id="Node000004" class="node">
<title>Node4</title>
<g id="a_Node000004"><a xlink:href="bitstream__util_8cpp.html#a7b8aab2d25c86997e6d1462e4cbcd30f" target="_top" xlink:title=" ">
<polygon fill="white" stroke="#666666" points="584,-30 468,-30 468,0 584,0 584,-30"/>
<text text-anchor="start" x="476" y="-18" font-family="Helvetica,sans-Serif" font-size="10.00">uvg_bitstream_alloc</text>
<text text-anchor="middle" x="526" y="-7" font-family="Helvetica,sans-Serif" font-size="10.00">_chunk</text>
</a>
</g>
</g>
<!-- Node3&#45;&gt;Node4 -->
<g id="edge3_Node000003_Node000004" class="edge">
<title>Node3&#45;&gt;Node4</title>
<g id="a_edge3_Node000003_Node000004"><a xlink:title=" ">
<path fill="none" stroke="#63b8ff" d="M432.46,-15C440.87,-15 449.46,-15 457.84,-15"/>
<polygon fill="#63b8ff" stroke="#63b8ff" points="457.94,-18.5 467.94,-15 457.94,-11.5 457.94,-18.5"/>
</a>
</g>
</g>
</g>
</svg>
