<?xml version="1.0" encoding="UTF-8" standalone="no"?>
<!DOCTYPE svg PUBLIC "-//W3C//DTD SVG 1.1//EN"
 "http://www.w3.org/Graphics/SVG/1.1/DTD/svg11.dtd">
<!-- Generated by graphviz version 2.43.0 (0)
 -->
<!-- Title: miniply::PLYReader::find_properties Pages: 1 -->
<svg width="422pt" height="124pt"
 viewBox="0.00 0.00 422.00 124.00" xmlns="http://www.w3.org/2000/svg" xmlns:xlink="http://www.w3.org/1999/xlink">

<svg id="main" version="1.1" xmlns="http://www.w3.org/2000/svg" xmlns:xlink="http://www.w3.org/1999/xlink" xml:space="preserve" onload="init(evt)">
<style type="text/css"><![CDATA[
.node, .edge {opacity: 0.7;}
.node.selected, .edge.selected {opacity: 1;}
.edge:hover path { stroke: red; }
.edge:hover polygon { stroke: red; fill: red; }
]]></style>
<script type="application/ecmascript" xlink:href="svg.min.js"/>
<svg id="graph" class="graph">
<g id="graph0" class="graph" transform="scale(1 1) rotate(0) translate(4 120)">
<title>miniply::PLYReader::find_properties</title>
<!-- Node1 -->
<g id="Node000001" class="node">
<title>Node1</title>
<g id="a_Node000001"><a xlink:title="Equivalent to calling find_properties on the current element.">
<polygon fill="#999999" stroke="#666666" points="110,-73 0,-73 0,-43 110,-43 110,-73"/>
<text text-anchor="start" x="8" y="-61" font-family="Helvetica,sans-Serif" font-size="10.00">miniply::PLYReader</text>
<text text-anchor="middle" x="55" y="-50" font-family="Helvetica,sans-Serif" font-size="10.00">::find_properties</text>
</a>
</g>
</g>
<!-- Node2 -->
<g id="Node000002" class="node">
<title>Node2</title>
<g id="a_Node000002"><a xlink:href="classminiply_1_1PLYReader.html#a13bf1a5ab6c1547622af0729f707c52d" target="_top" xlink:title=" ">
<polygon fill="white" stroke="#666666" points="259,-116 149,-116 149,-86 259,-86 259,-116"/>
<text text-anchor="start" x="157" y="-104" font-family="Helvetica,sans-Serif" font-size="10.00">miniply::PLYReader</text>
<text text-anchor="middle" x="204" y="-93" font-family="Helvetica,sans-Serif" font-size="10.00">::element</text>
</a>
</g>
</g>
<!-- Node1&#45;&gt;Node2 -->
<g id="edge1_Node000001_Node000002" class="edge">
<title>Node1&#45;&gt;Node2</title>
<g id="a_edge1_Node000001_Node000002"><a xlink:title=" ">
<path fill="none" stroke="#63b8ff" d="M107.41,-73.04C118.43,-76.26 130.17,-79.7 141.52,-83.02"/>
<polygon fill="#63b8ff" stroke="#63b8ff" points="140.79,-86.45 151.37,-85.9 142.75,-79.73 140.79,-86.45"/>
</a>
</g>
</g>
<!-- Node3 -->
<g id="Node000003" class="node">
<title>Node3</title>
<g id="a_Node000003"><a xlink:href="classminiply_1_1PLYReader.html#a82366c40f8779bf12dbcbe3c4a22ae36" target="_top" xlink:title=" ">
<polygon fill="white" stroke="#666666" points="411,-97 301,-97 301,-67 411,-67 411,-97"/>
<text text-anchor="start" x="309" y="-85" font-family="Helvetica,sans-Serif" font-size="10.00">miniply::PLYReader</text>
<text text-anchor="middle" x="356" y="-74" font-family="Helvetica,sans-Serif" font-size="10.00">::has_element</text>
</a>
</g>
</g>
<!-- Node1&#45;&gt;Node3 -->
<g id="edge5_Node000001_Node000003" class="edge">
<title>Node1&#45;&gt;Node3</title>
<g id="a_edge5_Node000001_Node000003"><a xlink:title=" ">
<path fill="none" stroke="#63b8ff" d="M110.15,-62.35C160.9,-66.42 236.81,-72.51 290.63,-76.83"/>
<polygon fill="#63b8ff" stroke="#63b8ff" points="290.5,-80.33 300.75,-77.65 291.06,-73.36 290.5,-80.33"/>
</a>
</g>
</g>
<!-- Node4 -->
<g id="Node000004" class="node">
<title>Node4</title>
<g id="a_Node000004"><a xlink:href="structminiply_1_1PLYElement.html#a01df0314a97c209b2ce963839dee5009" target="_top" xlink:title=" ">
<polygon fill="white" stroke="#666666" points="262,-30 146,-30 146,0 262,0 262,-30"/>
<text text-anchor="start" x="154" y="-18" font-family="Helvetica,sans-Serif" font-size="10.00">miniply::PLYElement</text>
<text text-anchor="middle" x="204" y="-7" font-family="Helvetica,sans-Serif" font-size="10.00">::find_properties_va</text>
</a>
</g>
</g>
<!-- Node1&#45;&gt;Node4 -->
<g id="edge3_Node000001_Node000004" class="edge">
<title>Node1&#45;&gt;Node4</title>
<g id="a_edge3_Node000001_Node000004"><a xlink:title=" ">
<path fill="none" stroke="#63b8ff" d="M107.41,-42.96C118.43,-39.74 130.17,-36.3 141.52,-32.98"/>
<polygon fill="#63b8ff" stroke="#63b8ff" points="142.75,-36.27 151.37,-30.1 140.79,-29.55 142.75,-36.27"/>
</a>
</g>
</g>
<!-- Node2&#45;&gt;Node3 -->
<g id="edge2_Node000002_Node000003" class="edge">
<title>Node2&#45;&gt;Node3</title>
<g id="a_edge2_Node000002_Node000003"><a xlink:title=" ">
<path fill="none" stroke="#63b8ff" d="M259.15,-94.14C269.46,-92.84 280.33,-91.46 290.9,-90.12"/>
<polygon fill="#63b8ff" stroke="#63b8ff" points="291.45,-93.58 300.93,-88.85 290.57,-86.63 291.45,-93.58"/>
</a>
</g>
</g>
<!-- Node5 -->
<g id="Node000005" class="node">
<title>Node5</title>
<g id="a_Node000005"><a xlink:href="structminiply_1_1PLYElement.html#a4fcde3b05eba9bf9206513c0e70223af" target="_top" xlink:title=" ">
<polygon fill="white" stroke="#666666" points="414,-30 298,-30 298,0 414,0 414,-30"/>
<text text-anchor="start" x="306" y="-18" font-family="Helvetica,sans-Serif" font-size="10.00">miniply::PLYElement</text>
<text text-anchor="middle" x="356" y="-7" font-family="Helvetica,sans-Serif" font-size="10.00">::find_property</text>
</a>
</g>
</g>
<!-- Node4&#45;&gt;Node5 -->
<g id="edge4_Node000004_Node000005" class="edge">
<title>Node4&#45;&gt;Node5</title>
<g id="a_edge4_Node000004_Node000005"><a xlink:title=" ">
<path fill="none" stroke="#63b8ff" d="M262.14,-15C270.38,-15 278.92,-15 287.34,-15"/>
<polygon fill="#63b8ff" stroke="#63b8ff" points="287.53,-18.5 297.53,-15 287.53,-11.5 287.53,-18.5"/>
</a>
</g>
</g>
</g>
</svg>
</svg>

<style type='text/css'>
<![CDATA[
[data-mouse-over-selected='false'] { opacity: 0.7; }
[data-mouse-over-selected='true']  { opacity: 1.0; }
]]>
</style>
<script type="application/ecmascript"><![CDATA[
document.addEventListener('DOMContentLoaded', (event) => {
  highlightEdges();
  highlightAdjacentNodes();
});
]]></script>
</svg>
