<?xml version="1.0" encoding="UTF-8" standalone="no"?>
<!DOCTYPE svg PUBLIC "-//W3C//DTD SVG 1.1//EN"
 "http://www.w3.org/Graphics/SVG/1.1/DTD/svg11.dtd">
<!-- Generated by graphviz version 2.43.0 (0)
 -->
<!-- Title: PatchSegmentation::patchSegmentation Pages: 1 -->
<svg width="476pt" height="104pt"
 viewBox="0.00 0.00 476.00 104.00" xmlns="http://www.w3.org/2000/svg" xmlns:xlink="http://www.w3.org/1999/xlink">

<svg id="main" version="1.1" xmlns="http://www.w3.org/2000/svg" xmlns:xlink="http://www.w3.org/1999/xlink" xml:space="preserve" onload="init(evt)">
<style type="text/css"><![CDATA[
.node, .edge {opacity: 0.7;}
.node.selected, .edge.selected {opacity: 1;}
.edge:hover path { stroke: red; }
.edge:hover polygon { stroke: red; fill: red; }
]]></style>
<script type="application/ecmascript" xlink:href="svg.min.js"/>
<svg id="graph" class="graph">
<g id="graph0" class="graph" transform="scale(1 1) rotate(0) translate(4 100)">
<title>PatchSegmentation::patchSegmentation</title>
<!-- Node1 -->
<g id="Node000001" class="node">
<title>Node1</title>
<g id="a_Node000001"><a xlink:title=" ">
<polygon fill="#999999" stroke="#666666" points="117,-63 0,-63 0,-33 117,-33 117,-63"/>
<text text-anchor="start" x="8" y="-51" font-family="Helvetica,sans-Serif" font-size="10.00">PatchSegmentation::</text>
<text text-anchor="middle" x="58.5" y="-40" font-family="Helvetica,sans-Serif" font-size="10.00">patchSegmentation</text>
</a>
</g>
</g>
<!-- Node2 -->
<g id="Node000002" class="node">
<title>Node2</title>
<g id="a_Node000002"><a xlink:href="namespaceFileExport.html#a2679d8ba97301be6900c125953a54986" target="_top" xlink:title=" ">
<polygon fill="white" stroke="#666666" points="308,-96 153,-96 153,-66 308,-66 308,-96"/>
<text text-anchor="start" x="161" y="-84" font-family="Helvetica,sans-Serif" font-size="10.00">FileExport::exportPointCloud</text>
<text text-anchor="middle" x="230.5" y="-73" font-family="Helvetica,sans-Serif" font-size="10.00">PatchSegmentation</text>
</a>
</g>
</g>
<!-- Node1&#45;&gt;Node2 -->
<g id="edge1_Node000001_Node000002" class="edge">
<title>Node1&#45;&gt;Node2</title>
<g id="a_edge1_Node000001_Node000002"><a xlink:title=" ">
<path fill="none" stroke="#63b8ff" d="M117.05,-59.17C125.38,-60.79 134.1,-62.48 142.85,-64.18"/>
<polygon fill="#63b8ff" stroke="#63b8ff" points="142.23,-67.62 152.71,-66.09 143.56,-60.75 142.23,-67.62"/>
</a>
</g>
</g>
<!-- Node4 -->
<g id="Node000004" class="node">
<title>Node4</title>
<g id="a_Node000004"><a xlink:href="classrobin__hood_1_1detail_1_1Table.html#a6c2d436df6800ac290cc26da5961a331" target="_top" xlink:title=" ">
<polygon fill="white" stroke="#666666" points="282.5,-30 178.5,-30 178.5,0 282.5,0 282.5,-30"/>
<text text-anchor="start" x="186.5" y="-18" font-family="Helvetica,sans-Serif" font-size="10.00">robin_hood::detail</text>
<text text-anchor="middle" x="230.5" y="-7" font-family="Helvetica,sans-Serif" font-size="10.00">::Table::reserve</text>
</a>
</g>
</g>
<!-- Node1&#45;&gt;Node4 -->
<g id="edge3_Node000001_Node000004" class="edge">
<title>Node1&#45;&gt;Node4</title>
<g id="a_edge3_Node000001_Node000004"><a xlink:title=" ">
<path fill="none" stroke="#63b8ff" d="M117.05,-36.83C133.49,-33.64 151.45,-30.15 168.1,-26.92"/>
<polygon fill="#63b8ff" stroke="#63b8ff" points="169.13,-30.28 178.28,-24.94 167.79,-23.41 169.13,-30.28"/>
</a>
</g>
</g>
<!-- Node3 -->
<g id="Node000003" class="node">
<title>Node3</title>
<g id="a_Node000003"><a xlink:href="namespaceuvgvpcc__enc.html#a69b2cb991ff48de10ff75bc3c0582a54" target="_top" xlink:title=" ">
<polygon fill="white" stroke="#666666" points="468,-90.5 344,-90.5 344,-71.5 468,-71.5 468,-90.5"/>
<text text-anchor="middle" x="406" y="-78.5" font-family="Helvetica,sans-Serif" font-size="10.00">uvgvpcc_enc::zeroPad</text>
</a>
</g>
</g>
<!-- Node2&#45;&gt;Node3 -->
<g id="edge2_Node000002_Node000003" class="edge">
<title>Node2&#45;&gt;Node3</title>
<g id="a_edge2_Node000002_Node000003"><a xlink:title=" ">
<path fill="none" stroke="#63b8ff" d="M308.1,-81C316.62,-81 325.27,-81 333.72,-81"/>
<polygon fill="#63b8ff" stroke="#63b8ff" points="333.91,-84.5 343.91,-81 333.91,-77.5 333.91,-84.5"/>
</a>
</g>
</g>
<!-- Node4&#45;&gt;Node4 -->
<g id="edge4_Node000004_Node000004" class="edge">
<title>Node4&#45;&gt;Node4</title>
<g id="a_edge4_Node000004_Node000004"><a xlink:title=" ">
<path fill="none" stroke="#63b8ff" d="M200.27,-30.28C193.55,-39.41 203.62,-48 230.5,-48 246.46,-48 256.49,-44.97 260.61,-40.6"/>
<polygon fill="#63b8ff" stroke="#63b8ff" points="264.11,-40.32 260.73,-30.28 257.11,-40.23 264.11,-40.32"/>
</a>
</g>
</g>
</g>
</svg>
</svg>

<style type='text/css'>
<![CDATA[
[data-mouse-over-selected='false'] { opacity: 0.7; }
[data-mouse-over-selected='true']  { opacity: 1.0; }
]]>
</style>
<script type="application/ecmascript"><![CDATA[
document.addEventListener('DOMContentLoaded', (event) => {
  highlightEdges();
  highlightAdjacentNodes();
});
]]></script>
</svg>
