<?xml version="1.0" encoding="UTF-8" standalone="no"?>
<!DOCTYPE svg PUBLIC "-//W3C//DTD SVG 1.1//EN"
 "http://www.w3.org/Graphics/SVG/1.1/DTD/svg11.dtd">
<!-- Generated by graphviz version 2.43.0 (0)
 -->
<!-- Title: nanoflann::KDTreeSingleIndexDynamicAdaptor_&lt; Distance, DatasetAdaptor, DIM, IndexType &gt; Pages: 1 -->
<!--zoomable 982 -->

<svg id="main" version="1.1" xmlns="http://www.w3.org/2000/svg" xmlns:xlink="http://www.w3.org/1999/xlink" xml:space="preserve" onload="init(evt)">
<style type="text/css"><![CDATA[
.node, .edge {opacity: 0.7;}
.node.selected, .edge.selected {opacity: 1;}
.edge:hover path { stroke: red; }
.edge:hover polygon { stroke: red; fill: red; }
]]></style>

<defs>
  <circle id="rim" cx="0" cy="0" r="7"/>
  <circle id="rim2" cx="0" cy="0" r="3.5"/>
  <g id="zoomPlus">
    <use xlink:href="#rim" fill="#404040"><set attributeName="fill" to="#808080" begin="zoomplus.mouseover" end="zoomplus.mouseout"/></use>
    <path d="M-4,0h8M0,-4v8" fill="none" stroke="white" stroke-width="1.5" pointer-events="none"/>
  </g>
  <g id="zoomMin">
    <use xlink:href="#rim" fill="#404040"><set attributeName="fill" to="#808080" begin="zoomminus.mouseover" end="zoomminus.mouseout"/></use>
    <path d="M-4,0h8" fill="none" stroke="white" stroke-width="1.5" pointer-events="none"/>
  </g>
  <g id="arrowUp" transform="translate(30 24)">
    <use xlink:href="#rim"/>
    <path pointer-events="none" fill="none" stroke="white" stroke-width="1.5" d="M0,-3.0v7 M-2.5,-0.5L0,-3.0L2.5,-0.5"/>
  </g>
  <g id="arrowRight" transform="rotate(90) translate(36 -43)">
    <use xlink:href="#rim"/>
    <path pointer-events="none" fill="none" stroke="white" stroke-width="1.5" d="M0,-3.0v7 M-2.5,-0.5L0,-3.0L2.5,-0.5"/>
  </g>
  <g id="arrowDown" transform="rotate(180) translate(-30 -48)">
    <use xlink:href="#rim"/>
    <path pointer-events="none" fill="none" stroke="white" stroke-width="1.5" d="M0,-3.0v7 M-2.5,-0.5L0,-3.0L2.5,-0.5"/>
  </g>
  <g id="arrowLeft" transform="rotate(270) translate(-36 17)">
    <use xlink:href="#rim"/>
    <path pointer-events="none" fill="none" stroke="white" stroke-width="1.5" d="M0,-3.0v7 M-2.5,-0.5L0,-3.0L2.5,-0.5"/>
  </g>
  <g id="resetDef">
    <use xlink:href="#rim2" fill="#404040"><set attributeName="fill" to="#808080" begin="reset.mouseover" end="reset.mouseout"/></use>
  </g>
</defs>
<script type="application/ecmascript">
var viewWidth = 611;
var viewHeight = 982;
var sectionId = 'dynsection-1';
</script>
<script type="application/ecmascript" xlink:href="svg.min.js"/>
<svg id="graph" class="graph">
<g id="viewport">
<title>nanoflann::KDTreeSingleIndexDynamicAdaptor_&lt; Distance, DatasetAdaptor, DIM, IndexType &gt;</title>
<!-- Node1 -->
<g id="Node000001" class="node">
<title>Node1</title>
<g id="a_Node000001"><a xlink:title=" ">
<polygon fill="#999999" stroke="transparent" points="519,-348 337,-348 337,0 519,0 519,-348"/>
<text text-anchor="start" x="342" y="-336" font-family="Helvetica,sans-Serif" font-size="10.00">nanoflann::KDTreeSingleIndex</text>
<text text-anchor="start" x="342" y="-325" font-family="Helvetica,sans-Serif" font-size="10.00">DynamicAdaptor_&lt; Distance,</text>
<text text-anchor="start" x="342" y="-314" font-family="Helvetica,sans-Serif" font-size="10.00"> DatasetAdaptor, DIM, IndexType &gt;</text>
<text text-anchor="start" x="343.5" y="-299" font-family="Helvetica,sans-Serif" font-size="10.00">+</text>
<text text-anchor="start" x="359" y="-299" font-family="Helvetica,sans-Serif" font-size="10.00">dataset_</text>
<text text-anchor="start" x="343.5" y="-284" font-family="Helvetica,sans-Serif" font-size="10.00">+</text>
<text text-anchor="start" x="359" y="-284" font-family="Helvetica,sans-Serif" font-size="10.00">treeIndex_</text>
<text text-anchor="start" x="343.5" y="-269" font-family="Helvetica,sans-Serif" font-size="10.00">+</text>
<text text-anchor="start" x="359" y="-269" font-family="Helvetica,sans-Serif" font-size="10.00">distance_</text>
<text text-anchor="start" x="343.5" y="-254" font-family="Helvetica,sans-Serif" font-size="10.00">+</text>
<text text-anchor="start" x="359" y="-254" font-family="Helvetica,sans-Serif" font-size="10.00">KDTreeSingleIndexDynamic</text>
<text text-anchor="start" x="359" y="-243" font-family="Helvetica,sans-Serif" font-size="10.00">Adaptor_()</text>
<text text-anchor="start" x="343.5" y="-228" font-family="Helvetica,sans-Serif" font-size="10.00">+</text>
<text text-anchor="start" x="359" y="-228" font-family="Helvetica,sans-Serif" font-size="10.00">KDTreeSingleIndexDynamic</text>
<text text-anchor="start" x="359" y="-217" font-family="Helvetica,sans-Serif" font-size="10.00">Adaptor_()</text>
<text text-anchor="start" x="343.5" y="-202" font-family="Helvetica,sans-Serif" font-size="10.00">+</text>
<text text-anchor="start" x="359" y="-202" font-family="Helvetica,sans-Serif" font-size="10.00">operator=()</text>
<text text-anchor="start" x="343.5" y="-187" font-family="Helvetica,sans-Serif" font-size="10.00">+</text>
<text text-anchor="start" x="359" y="-187" font-family="Helvetica,sans-Serif" font-size="10.00">buildIndex()</text>
<text text-anchor="start" x="343.5" y="-172" font-family="Helvetica,sans-Serif" font-size="10.00">+</text>
<text text-anchor="start" x="359" y="-172" font-family="Helvetica,sans-Serif" font-size="10.00">computeBoundingBox()</text>
<text text-anchor="start" x="343.5" y="-157" font-family="Helvetica,sans-Serif" font-size="10.00">+</text>
<text text-anchor="start" x="359" y="-157" font-family="Helvetica,sans-Serif" font-size="10.00">searchLevel()</text>
<text text-anchor="start" x="343.5" y="-142" font-family="Helvetica,sans-Serif" font-size="10.00">+</text>
<text text-anchor="start" x="359" y="-142" font-family="Helvetica,sans-Serif" font-size="10.00">saveIndex()</text>
<text text-anchor="start" x="343.5" y="-127" font-family="Helvetica,sans-Serif" font-size="10.00">+</text>
<text text-anchor="start" x="359" y="-127" font-family="Helvetica,sans-Serif" font-size="10.00">loadIndex()</text>
<text text-anchor="start" x="343.5" y="-112" font-family="Helvetica,sans-Serif" font-size="10.00">+</text>
<text text-anchor="start" x="359" y="-112" font-family="Helvetica,sans-Serif" font-size="10.00">findNeighbors()</text>
<text text-anchor="start" x="343.5" y="-97" font-family="Helvetica,sans-Serif" font-size="10.00">+</text>
<text text-anchor="start" x="359" y="-97" font-family="Helvetica,sans-Serif" font-size="10.00">knnSearch()</text>
<text text-anchor="start" x="343.5" y="-82" font-family="Helvetica,sans-Serif" font-size="10.00">+</text>
<text text-anchor="start" x="359" y="-82" font-family="Helvetica,sans-Serif" font-size="10.00">radiusSearch()</text>
<text text-anchor="start" x="343.5" y="-67" font-family="Helvetica,sans-Serif" font-size="10.00">+</text>
<text text-anchor="start" x="359" y="-67" font-family="Helvetica,sans-Serif" font-size="10.00">radiusSearchCustomCallback()</text>
<text text-anchor="start" x="345" y="-52" font-family="Helvetica,sans-Serif" font-size="10.00">*</text>
<text text-anchor="start" x="359" y="-52" font-family="Helvetica,sans-Serif" font-size="10.00">findNeighbors()</text>
<text text-anchor="start" x="345" y="-37" font-family="Helvetica,sans-Serif" font-size="10.00">*</text>
<text text-anchor="start" x="359" y="-37" font-family="Helvetica,sans-Serif" font-size="10.00">knnSearch()</text>
<text text-anchor="start" x="345" y="-22" font-family="Helvetica,sans-Serif" font-size="10.00">*</text>
<text text-anchor="start" x="359" y="-22" font-family="Helvetica,sans-Serif" font-size="10.00">radiusSearch()</text>
<text text-anchor="start" x="345" y="-7" font-family="Helvetica,sans-Serif" font-size="10.00">*</text>
<text text-anchor="start" x="359" y="-7" font-family="Helvetica,sans-Serif" font-size="10.00">radiusSearchCustomCallback()</text>
<polygon fill="#666666" stroke="#666666" points="337,-309 337,-309 519,-309 519,-309 337,-309"/>
<polygon fill="#666666" stroke="#666666" points="337,-264 337,-264 357,-264 357,-264 337,-264"/>
<polygon fill="#666666" stroke="#666666" points="357,-264 357,-264 519,-264 519,-264 357,-264"/>
<polygon fill="none" stroke="#666666" points="337,0 337,-348 519,-348 519,0 337,0"/>
</a>
</g>
</g>
<!-- Node2 -->
<g id="Node000002" class="node">
<title>Node2</title>
<g id="a_Node000002"><a xlink:href="classnanoflann_1_1KDTreeBaseClass.html" target="_top" xlink:title=" ">
<polygon fill="white" stroke="transparent" points="429,-751 235,-751 235,-395 429,-395 429,-751"/>
<text text-anchor="start" x="240" y="-739" font-family="Helvetica,sans-Serif" font-size="10.00">nanoflann::KDTreeBaseClass</text>
<text text-anchor="start" x="240" y="-728" font-family="Helvetica,sans-Serif" font-size="10.00">&lt; Derived, Distance, DatasetAdaptor,</text>
<text text-anchor="start" x="287" y="-717" font-family="Helvetica,sans-Serif" font-size="10.00"> DIM, IndexType &gt;</text>
<text text-anchor="start" x="250.5" y="-702" font-family="Helvetica,sans-Serif" font-size="10.00">+</text>
<text text-anchor="start" x="275" y="-702" font-family="Helvetica,sans-Serif" font-size="10.00">vAcc_</text>
<text text-anchor="start" x="250.5" y="-687" font-family="Helvetica,sans-Serif" font-size="10.00">+</text>
<text text-anchor="start" x="275" y="-687" font-family="Helvetica,sans-Serif" font-size="10.00">leaf_max_size_</text>
<text text-anchor="start" x="250.5" y="-672" font-family="Helvetica,sans-Serif" font-size="10.00">+</text>
<text text-anchor="start" x="275" y="-672" font-family="Helvetica,sans-Serif" font-size="10.00">n_thread_build_</text>
<text text-anchor="start" x="250.5" y="-657" font-family="Helvetica,sans-Serif" font-size="10.00">+</text>
<text text-anchor="start" x="275" y="-657" font-family="Helvetica,sans-Serif" font-size="10.00">size_</text>
<text text-anchor="start" x="250.5" y="-642" font-family="Helvetica,sans-Serif" font-size="10.00">+</text>
<text text-anchor="start" x="275" y="-642" font-family="Helvetica,sans-Serif" font-size="10.00">size_at_index_build_</text>
<text text-anchor="start" x="250.5" y="-627" font-family="Helvetica,sans-Serif" font-size="10.00">+</text>
<text text-anchor="start" x="275" y="-627" font-family="Helvetica,sans-Serif" font-size="10.00">dim_</text>
<text text-anchor="start" x="250.5" y="-612" font-family="Helvetica,sans-Serif" font-size="10.00">+</text>
<text text-anchor="start" x="275" y="-612" font-family="Helvetica,sans-Serif" font-size="10.00">freeIndex()</text>
<text text-anchor="start" x="250.5" y="-597" font-family="Helvetica,sans-Serif" font-size="10.00">+</text>
<text text-anchor="start" x="275" y="-597" font-family="Helvetica,sans-Serif" font-size="10.00">size()</text>
<text text-anchor="start" x="250.5" y="-582" font-family="Helvetica,sans-Serif" font-size="10.00">+</text>
<text text-anchor="start" x="275" y="-582" font-family="Helvetica,sans-Serif" font-size="10.00">veclen()</text>
<text text-anchor="start" x="250.5" y="-567" font-family="Helvetica,sans-Serif" font-size="10.00">+</text>
<text text-anchor="start" x="275" y="-567" font-family="Helvetica,sans-Serif" font-size="10.00">dataset_get()</text>
<text text-anchor="start" x="250.5" y="-552" font-family="Helvetica,sans-Serif" font-size="10.00">+</text>
<text text-anchor="start" x="275" y="-552" font-family="Helvetica,sans-Serif" font-size="10.00">usedMemory()</text>
<text text-anchor="start" x="250.5" y="-537" font-family="Helvetica,sans-Serif" font-size="10.00">+</text>
<text text-anchor="start" x="275" y="-537" font-family="Helvetica,sans-Serif" font-size="10.00">computeMinMax()</text>
<text text-anchor="start" x="250.5" y="-522" font-family="Helvetica,sans-Serif" font-size="10.00">+</text>
<text text-anchor="start" x="275" y="-522" font-family="Helvetica,sans-Serif" font-size="10.00">divideTree()</text>
<text text-anchor="start" x="250.5" y="-507" font-family="Helvetica,sans-Serif" font-size="10.00">+</text>
<text text-anchor="start" x="275" y="-507" font-family="Helvetica,sans-Serif" font-size="10.00">divideTreeConcurrent()</text>
<text text-anchor="start" x="250.5" y="-492" font-family="Helvetica,sans-Serif" font-size="10.00">+</text>
<text text-anchor="start" x="275" y="-492" font-family="Helvetica,sans-Serif" font-size="10.00">middleSplit_()</text>
<text text-anchor="start" x="250.5" y="-477" font-family="Helvetica,sans-Serif" font-size="10.00">+</text>
<text text-anchor="start" x="275" y="-477" font-family="Helvetica,sans-Serif" font-size="10.00">planeSplit()</text>
<text text-anchor="start" x="250.5" y="-462" font-family="Helvetica,sans-Serif" font-size="10.00">+</text>
<text text-anchor="start" x="275" y="-462" font-family="Helvetica,sans-Serif" font-size="10.00">computeInitialDistances()</text>
<text text-anchor="start" x="250.5" y="-447" font-family="Helvetica,sans-Serif" font-size="10.00">+</text>
<text text-anchor="start" x="275" y="-447" font-family="Helvetica,sans-Serif" font-size="10.00">saveIndex()</text>
<text text-anchor="start" x="250.5" y="-432" font-family="Helvetica,sans-Serif" font-size="10.00">+</text>
<text text-anchor="start" x="275" y="-432" font-family="Helvetica,sans-Serif" font-size="10.00">loadIndex()</text>
<text text-anchor="start" x="250.5" y="-417" font-family="Helvetica,sans-Serif" font-size="10.00">+</text>
<text text-anchor="start" x="275" y="-417" font-family="Helvetica,sans-Serif" font-size="10.00">save_tree()</text>
<text text-anchor="start" x="250.5" y="-402" font-family="Helvetica,sans-Serif" font-size="10.00">+</text>
<text text-anchor="start" x="275" y="-402" font-family="Helvetica,sans-Serif" font-size="10.00">load_tree()</text>
<polygon fill="#666666" stroke="#666666" points="235,-712 235,-712 429,-712 429,-712 235,-712"/>
<polygon fill="#666666" stroke="#666666" points="235,-622 235,-622 273,-622 273,-622 235,-622"/>
<polygon fill="#666666" stroke="#666666" points="273,-622 273,-622 429,-622 429,-622 273,-622"/>
<polygon fill="none" stroke="#666666" points="235,-395 235,-751 429,-751 429,-395 235,-395"/>
</a>
</g>
</g>
<!-- Node2&#45;&gt;Node1 -->
<g id="edge1_Node000001_Node000002" class="edge">
<title>Node2&#45;&gt;Node1</title>
<g id="a_edge1_Node000001_Node000002"><a xlink:title=" ">
<path fill="none" stroke="#63b8ff" d="M377.2,-385.08C380.19,-372.72 383.19,-360.29 386.17,-348"/>
<polygon fill="none" stroke="#63b8ff" points="373.75,-384.44 374.81,-394.98 380.56,-386.08 373.75,-384.44"/>
</a>
</g>
</g>
<!-- Node3 -->
<g id="Node000003" class="node">
<title>Node3</title>
<g id="a_Node000003"><a xlink:href="structnanoflann_1_1KDTreeBaseClass_1_1Node.html" target="_top" xlink:title=" ">
<polygon fill="white" stroke="transparent" points="194,-974 0,-974 0,-798 194,-798 194,-974"/>
<text text-anchor="start" x="5" y="-962" font-family="Helvetica,sans-Serif" font-size="10.00">nanoflann::KDTreeBaseClass</text>
<text text-anchor="start" x="5" y="-951" font-family="Helvetica,sans-Serif" font-size="10.00">&lt; Derived, Distance, DatasetAdaptor,</text>
<text text-anchor="start" x="36.5" y="-940" font-family="Helvetica,sans-Serif" font-size="10.00"> DIM, IndexType &gt;::Node</text>
<text text-anchor="start" x="34" y="-925" font-family="Helvetica,sans-Serif" font-size="10.00">+</text>
<text text-anchor="start" x="77" y="-925" font-family="Helvetica,sans-Serif" font-size="10.00">left</text>
<text text-anchor="start" x="34" y="-910" font-family="Helvetica,sans-Serif" font-size="10.00">+</text>
<text text-anchor="start" x="77" y="-910" font-family="Helvetica,sans-Serif" font-size="10.00">right</text>
<text text-anchor="start" x="34" y="-895" font-family="Helvetica,sans-Serif" font-size="10.00">+</text>
<text text-anchor="start" x="77" y="-895" font-family="Helvetica,sans-Serif" font-size="10.00">lr</text>
<text text-anchor="start" x="34" y="-880" font-family="Helvetica,sans-Serif" font-size="10.00">+</text>
<text text-anchor="start" x="77" y="-880" font-family="Helvetica,sans-Serif" font-size="10.00">divfeat</text>
<text text-anchor="start" x="34" y="-865" font-family="Helvetica,sans-Serif" font-size="10.00">+</text>
<text text-anchor="start" x="77" y="-865" font-family="Helvetica,sans-Serif" font-size="10.00">divlow</text>
<text text-anchor="start" x="34" y="-850" font-family="Helvetica,sans-Serif" font-size="10.00">+</text>
<text text-anchor="start" x="77" y="-850" font-family="Helvetica,sans-Serif" font-size="10.00">divhigh</text>
<text text-anchor="start" x="34" y="-835" font-family="Helvetica,sans-Serif" font-size="10.00">+</text>
<text text-anchor="start" x="77" y="-835" font-family="Helvetica,sans-Serif" font-size="10.00">sub</text>
<text text-anchor="start" x="34" y="-820" font-family="Helvetica,sans-Serif" font-size="10.00">+</text>
<text text-anchor="start" x="77" y="-820" font-family="Helvetica,sans-Serif" font-size="10.00">node_type</text>
<text text-anchor="start" x="95" y="-805" font-family="Helvetica,sans-Serif" font-size="10.00"> </text>
<polygon fill="#666666" stroke="#666666" points="0,-935 0,-935 194,-935 194,-935 0,-935"/>
<polygon fill="#666666" stroke="#666666" points="0,-815 0,-815 75,-815 75,-815 0,-815"/>
<polygon fill="#666666" stroke="#666666" points="75,-815 75,-815 194,-815 194,-815 75,-815"/>
<polygon fill="none" stroke="#666666" points="0,-798 0,-974 194,-974 194,-798 0,-798"/>
</a>
</g>
</g>
<!-- Node3&#45;&gt;Node2 -->
<g id="edge2_Node000002_Node000003" class="edge">
<title>Node3&#45;&gt;Node2</title>
<g id="a_edge2_Node000002_Node000003"><a xlink:title=" ">
<path fill="none" stroke="#63b8ff" d="M162.77,-797.96C182.84,-771.4 205.42,-741.51 227.4,-712.43"/>
<polygon fill="none" stroke="#63b8ff" points="227.59,-712.18 228.01,-704.98 234.82,-702.61 234.4,-709.8 227.59,-712.18"/>
</a>
</g>
<text text-anchor="middle" x="213" y="-772" font-family="Helvetica,sans-Serif" font-size="10.00" fill="grey"> +root_node_</text>
</g>
<!-- Node3&#45;&gt;Node3 -->
<g id="edge3_Node000003_Node000003" class="edge">
<title>Node3&#45;&gt;Node3</title>
<g id="a_edge3_Node000003_Node000003"><a xlink:title=" ">
<path fill="none" stroke="#63b8ff" d="M194.32,-903.35C205.06,-900.06 212,-894.27 212,-886 212,-881.09 209.55,-877.05 205.32,-873.9"/>
<polygon fill="none" stroke="#63b8ff" points="205.15,-873.82 198.01,-874.84 194.32,-868.65 201.46,-867.62 205.15,-873.82"/>
</a>
</g>
<text text-anchor="middle" x="232.5" y="-889" font-family="Helvetica,sans-Serif" font-size="10.00" fill="grey"> +child1</text>
<text text-anchor="middle" x="232.5" y="-878" font-family="Helvetica,sans-Serif" font-size="10.00" fill="grey">+child2</text>
</g>
<!-- Node4 -->
<g id="Node000004" class="node">
<title>Node4</title>
<g id="a_Node000004"><a xlink:href="structnanoflann_1_1array__or__vector.html" target="_top" xlink:title=" ">
<polygon fill="white" stroke="transparent" points="393,-916 271,-916 271,-856 393,-856 393,-916"/>
<text text-anchor="start" x="276" y="-904" font-family="Helvetica,sans-Serif" font-size="10.00">nanoflann::array_or</text>
<text text-anchor="start" x="276" y="-893" font-family="Helvetica,sans-Serif" font-size="10.00">_vector&lt; &#45;1, Interval &gt;</text>
<text text-anchor="start" x="330" y="-878" font-family="Helvetica,sans-Serif" font-size="10.00"> </text>
<text text-anchor="start" x="330" y="-863" font-family="Helvetica,sans-Serif" font-size="10.00"> </text>
<polygon fill="#666666" stroke="#666666" points="271,-888 271,-888 393,-888 393,-888 271,-888"/>
<polygon fill="#666666" stroke="#666666" points="271,-873 271,-873 393,-873 393,-873 271,-873"/>
<polygon fill="none" stroke="#666666" points="271,-856 271,-916 393,-916 393,-856 271,-856"/>
</a>
</g>
</g>
<!-- Node4&#45;&gt;Node2 -->
<g id="edge4_Node000002_Node000004" class="edge">
<title>Node4&#45;&gt;Node2</title>
<g id="a_edge4_Node000002_Node000004"><a xlink:title=" ">
<path fill="none" stroke="#63b8ff" d="M332,-855.74C332,-833.12 332,-799.67 332,-763.65"/>
<polygon fill="none" stroke="#63b8ff" points="332,-763.34 328,-757.34 332,-751.34 336,-757.34 332,-763.34"/>
</a>
</g>
<text text-anchor="middle" x="365" y="-772" font-family="Helvetica,sans-Serif" font-size="10.00" fill="grey"> +root_bbox_</text>
</g>
<!-- Node5 -->
<g id="Node000005" class="node">
<title>Node5</title>
<g id="a_Node000005"><a xlink:href="classnanoflann_1_1PooledAllocator.html" target="_top" xlink:title=" ">
<polygon fill="white" stroke="transparent" points="552.5,-948 411.5,-948 411.5,-824 552.5,-824 552.5,-948"/>
<text text-anchor="start" x="417" y="-936" font-family="Helvetica,sans-Serif" font-size="10.00">nanoflann::PooledAllocator</text>
<text text-anchor="start" x="422.5" y="-921" font-family="Helvetica,sans-Serif" font-size="10.00">+</text>
<text text-anchor="start" x="442" y="-921" font-family="Helvetica,sans-Serif" font-size="10.00">usedMemory</text>
<text text-anchor="start" x="422.5" y="-906" font-family="Helvetica,sans-Serif" font-size="10.00">+</text>
<text text-anchor="start" x="442" y="-906" font-family="Helvetica,sans-Serif" font-size="10.00">wastedMemory</text>
<text text-anchor="start" x="422.5" y="-891" font-family="Helvetica,sans-Serif" font-size="10.00">+</text>
<text text-anchor="start" x="442" y="-891" font-family="Helvetica,sans-Serif" font-size="10.00">PooledAllocator()</text>
<text text-anchor="start" x="422.5" y="-876" font-family="Helvetica,sans-Serif" font-size="10.00">+</text>
<text text-anchor="start" x="442" y="-876" font-family="Helvetica,sans-Serif" font-size="10.00">~PooledAllocator()</text>
<text text-anchor="start" x="422.5" y="-861" font-family="Helvetica,sans-Serif" font-size="10.00">+</text>
<text text-anchor="start" x="442" y="-861" font-family="Helvetica,sans-Serif" font-size="10.00">free_all()</text>
<text text-anchor="start" x="422.5" y="-846" font-family="Helvetica,sans-Serif" font-size="10.00">+</text>
<text text-anchor="start" x="442" y="-846" font-family="Helvetica,sans-Serif" font-size="10.00">malloc()</text>
<text text-anchor="start" x="422.5" y="-831" font-family="Helvetica,sans-Serif" font-size="10.00">+</text>
<text text-anchor="start" x="442" y="-831" font-family="Helvetica,sans-Serif" font-size="10.00">allocate()</text>
<polygon fill="#666666" stroke="#666666" points="412,-931 412,-931 553,-931 553,-931 412,-931"/>
<polygon fill="#666666" stroke="#666666" points="412,-901 412,-901 440,-901 440,-901 412,-901"/>
<polygon fill="#666666" stroke="#666666" points="440,-901 440,-901 553,-901 553,-901 440,-901"/>
<polygon fill="none" stroke="#666666" points="411.5,-824 411.5,-948 552.5,-948 552.5,-824 411.5,-824"/>
</a>
</g>
</g>
<!-- Node5&#45;&gt;Node2 -->
<g id="edge5_Node000002_Node000005" class="edge">
<title>Node5&#45;&gt;Node2</title>
<g id="a_edge5_Node000002_Node000005"><a xlink:title=" ">
<path fill="none" stroke="#63b8ff" d="M452.54,-823.93C443.67,-805.53 433.43,-784.3 422.74,-762.14"/>
<polygon fill="none" stroke="#63b8ff" points="422.68,-762.01 416.47,-758.34 417.47,-751.2 423.68,-754.87 422.68,-762.01"/>
</a>
</g>
<text text-anchor="middle" x="449" y="-772" font-family="Helvetica,sans-Serif" font-size="10.00" fill="grey"> +pool_</text>
</g>
<!-- Node6 -->
<g id="Node000006" class="node">
<title>Node6</title>
<g id="a_Node000006"><a xlink:href="structnanoflann_1_1KDTreeSingleIndexAdaptorParams.html" target="_top" xlink:title=" ">
<polygon fill="white" stroke="transparent" points="603,-623.5 447,-623.5 447,-522.5 603,-522.5 603,-623.5"/>
<text text-anchor="start" x="452" y="-611" font-family="Helvetica,sans-Serif" font-size="10.00">nanoflann::KDTreeSingleIndex</text>
<text text-anchor="start" x="487.5" y="-600" font-family="Helvetica,sans-Serif" font-size="10.00">AdaptorParams</text>
<text text-anchor="start" x="452" y="-585" font-family="Helvetica,sans-Serif" font-size="10.00">+</text>
<text text-anchor="start" x="466" y="-585" font-family="Helvetica,sans-Serif" font-size="10.00">leaf_max_size</text>
<text text-anchor="start" x="452" y="-570" font-family="Helvetica,sans-Serif" font-size="10.00">+</text>
<text text-anchor="start" x="466" y="-570" font-family="Helvetica,sans-Serif" font-size="10.00">flags</text>
<text text-anchor="start" x="452" y="-555" font-family="Helvetica,sans-Serif" font-size="10.00">+</text>
<text text-anchor="start" x="466" y="-555" font-family="Helvetica,sans-Serif" font-size="10.00">n_thread_build</text>
<text text-anchor="start" x="452" y="-540" font-family="Helvetica,sans-Serif" font-size="10.00">+</text>
<text text-anchor="start" x="466" y="-540" font-family="Helvetica,sans-Serif" font-size="10.00">KDTreeSingleIndexAdaptor</text>
<text text-anchor="start" x="466" y="-529" font-family="Helvetica,sans-Serif" font-size="10.00">Params()</text>
<polygon fill="#666666" stroke="#666666" points="447,-595 447,-595 603,-595 603,-595 447,-595"/>
<polygon fill="#666666" stroke="#666666" points="447,-550 447,-550 464,-550 464,-550 447,-550"/>
<polygon fill="#666666" stroke="#666666" points="464,-550 464,-550 603,-550 603,-550 464,-550"/>
<polygon fill="none" stroke="#666666" points="447,-522.5 447,-623.5 603,-623.5 603,-522.5 447,-522.5"/>
</a>
</g>
</g>
<!-- Node6&#45;&gt;Node1 -->
<g id="edge6_Node000001_Node000006" class="edge">
<title>Node6&#45;&gt;Node1</title>
<g id="a_edge6_Node000001_Node000006"><a xlink:title=" ">
<path fill="none" stroke="#63b8ff" d="M512.81,-522.12C502.75,-480.93 487.8,-419.75 473.25,-360.18"/>
<polygon fill="none" stroke="#63b8ff" points="473.19,-359.95 467.88,-355.07 470.34,-348.29 475.65,-353.17 473.19,-359.95"/>
</a>
</g>
<text text-anchor="middle" x="520" y="-369" font-family="Helvetica,sans-Serif" font-size="10.00" fill="grey"> +index_params_</text>
</g>
</g>
</svg>

<g id="navigator" transform="translate(0 0)" fill="#404254">
  <rect fill="#f2f5e9" fill-opacity="0.5" stroke="#606060" stroke-width=".5" x="0" y="0" width="60" height="60"/>
  <use id="zoomplus" xlink:href="#zoomPlus" x="17" y="9" onmousedown="handleZoom(evt,'in')"/>
  <use id="zoomminus" xlink:href="#zoomMin" x="42" y="9" onmousedown="handleZoom(evt,'out')"/>
  <use id="reset" xlink:href="#resetDef" x="30" y="36" onmousedown="handleReset()"/>
   <use id="arrowup" xlink:href="#arrowUp" x="0" y="0" onmousedown="handlePan(0,-1)"/>
  <use id="arrowright" xlink:href="#arrowRight" x="0" y="0" onmousedown="handlePan(1,0)"/>
  <use id="arrowdown" xlink:href="#arrowDown" x="0" y="0" onmousedown="handlePan(0,1)"/>
  <use id="arrowleft" xlink:href="#arrowLeft" x="0" y="0" onmousedown="handlePan(-1,0)"/>
</g>
<svg viewBox="0 0 15 15" width="100%" height="30px" preserveAspectRatio="xMaxYMin meet">
 <g id="arrow_out" transform="scale(0.3 0.3)">
  <a xlink:href="classnanoflann_1_1KDTreeSingleIndexDynamicAdaptor____coll__graph_org.svg" target="_base">
   <rect id="button" ry="5" rx="5" y="6" x="6" height="38" width="38"
        fill="#f2f5e9" fill-opacity="0.5" stroke="#606060" stroke-width="1.0"/>
   <path id="arrow"
     d="M 11.500037,31.436501 C 11.940474,20.09759 22.043105,11.32322 32.158766,21.979434 L 37.068811,17.246167 C 37.068811,17.246167 37.088388,32 37.088388,32 L 22.160133,31.978069 C 22.160133,31.978069 26.997745,27.140456 26.997745,27.140456 C 18.528582,18.264221 13.291696,25.230495 11.500037,31.436501 z"
     style="fill:#404040;"/>
  </a>
 </g>
</svg>

<style type='text/css'>
<![CDATA[
[data-mouse-over-selected='false'] { opacity: 0.7; }
[data-mouse-over-selected='true']  { opacity: 1.0; }
]]>
</style>
<script type="application/ecmascript"><![CDATA[
document.addEventListener('DOMContentLoaded', (event) => {
  highlightEdges();
  highlightAdjacentNodes();
});
]]></script>
</svg>
