<?xml version="1.0" encoding="UTF-8" standalone="no"?>
<!DOCTYPE svg PUBLIC "-//W3C//DTD SVG 1.1//EN"
 "http://www.w3.org/Graphics/SVG/1.1/DTD/svg11.dtd">
<!-- Generated by graphviz version 2.43.0 (0)
 -->
<!-- Title: PPISegmenter::refineSegmentation Pages: 1 -->
<svg width="522pt" height="124pt"
 viewBox="0.00 0.00 522.00 124.00" xmlns="http://www.w3.org/2000/svg" xmlns:xlink="http://www.w3.org/1999/xlink">
<g id="graph0" class="graph" transform="scale(1 1) rotate(0) translate(4 120)">
<title>PPISegmenter::refineSegmentation</title>
<!-- Node1 -->
<g id="Node000001" class="node">
<title>Node1</title>
<g id="a_Node000001"><a xlink:title=" ">
<polygon fill="#999999" stroke="#666666" points="187,-67.5 0,-67.5 0,-48.5 187,-48.5 187,-67.5"/>
<text text-anchor="middle" x="93.5" y="-55.5" font-family="Helvetica,sans-Serif" font-size="10.00">PPISegmenter::refineSegmentation</text>
</a>
</g>
</g>
<!-- Node2 -->
<g id="Node000002" class="node">
<title>Node2</title>
<g id="a_Node000002"><a xlink:href="classrobin__hood_1_1detail_1_1Table.html#afb214db6f1196694807c182a1ae4d9ba" target="_top" xlink:title=" ">
<polygon fill="white" stroke="#666666" points="352.5,-116 248.5,-116 248.5,-86 352.5,-86 352.5,-116"/>
<text text-anchor="start" x="256.5" y="-104" font-family="Helvetica,sans-Serif" font-size="10.00">robin_hood::detail</text>
<text text-anchor="middle" x="300.5" y="-93" font-family="Helvetica,sans-Serif" font-size="10.00">::Table::at</text>
</a>
</g>
</g>
<!-- Node1&#45;&gt;Node2 -->
<g id="edge1_Node000001_Node000002" class="edge">
<title>Node1&#45;&gt;Node2</title>
<g id="a_edge1_Node000001_Node000002"><a xlink:title=" ">
<path fill="none" stroke="#63b8ff" d="M140,-67.54C168.95,-73.62 206.8,-81.55 238.36,-88.17"/>
<polygon fill="#63b8ff" stroke="#63b8ff" points="237.86,-91.65 248.36,-90.27 239.3,-84.8 237.86,-91.65"/>
</a>
</g>
</g>
<!-- Node3 -->
<g id="Node000003" class="node">
<title>Node3</title>
<g id="a_Node000003"><a xlink:href="classStatsCollector.html#ab1a99cc3ba798bf5d01e16156d8afe41" target="_top" xlink:title=" ">
<polygon fill="white" stroke="#666666" points="373.5,-67.5 227.5,-67.5 227.5,-48.5 373.5,-48.5 373.5,-67.5"/>
<text text-anchor="middle" x="300.5" y="-55.5" font-family="Helvetica,sans-Serif" font-size="10.00">StatsCollector::collectData</text>
</a>
</g>
</g>
<!-- Node1&#45;&gt;Node3 -->
<g id="edge2_Node000001_Node000003" class="edge">
<title>Node1&#45;&gt;Node3</title>
<g id="a_edge2_Node000001_Node000003"><a xlink:title=" ">
<path fill="none" stroke="#63b8ff" d="M187.1,-58C197.11,-58 207.23,-58 217.1,-58"/>
<polygon fill="#63b8ff" stroke="#63b8ff" points="217.28,-61.5 227.28,-58 217.28,-54.5 217.28,-61.5"/>
</a>
</g>
</g>
<!-- Node4 -->
<g id="Node000004" class="node">
<title>Node4</title>
<g id="a_Node000004"><a xlink:href="namespaceFileExport.html#a0a4a47addb40f5b7f846592a92895c90" target="_top" xlink:title=" ">
<polygon fill="white" stroke="#666666" points="378,-30 223,-30 223,0 378,0 378,-30"/>
<text text-anchor="start" x="231" y="-18" font-family="Helvetica,sans-Serif" font-size="10.00">FileExport::exportPointCloud</text>
<text text-anchor="middle" x="300.5" y="-7" font-family="Helvetica,sans-Serif" font-size="10.00">RefineSegmentation</text>
</a>
</g>
</g>
<!-- Node1&#45;&gt;Node4 -->
<g id="edge3_Node000001_Node000004" class="edge">
<title>Node1&#45;&gt;Node4</title>
<g id="a_edge3_Node000001_Node000004"><a xlink:title=" ">
<path fill="none" stroke="#63b8ff" d="M140,-48.46C162.9,-43.65 191.38,-37.68 217.9,-32.12"/>
<polygon fill="#63b8ff" stroke="#63b8ff" points="218.89,-35.48 227.96,-30.01 217.45,-28.63 218.89,-35.48"/>
</a>
</g>
</g>
<!-- Node5 -->
<g id="Node000005" class="node">
<title>Node5</title>
<g id="a_Node000005"><a xlink:href="namespaceuvgutils.html#a0abc693a4c9342061a1247ee333c53eb" target="_top" xlink:title=" ">
<polygon fill="white" stroke="#666666" points="514,-24.5 414,-24.5 414,-5.5 514,-5.5 514,-24.5"/>
<text text-anchor="middle" x="464" y="-12.5" font-family="Helvetica,sans-Serif" font-size="10.00">uvgutils::zeroPad</text>
</a>
</g>
</g>
<!-- Node4&#45;&gt;Node5 -->
<g id="edge4_Node000004_Node000005" class="edge">
<title>Node4&#45;&gt;Node5</title>
<g id="a_edge4_Node000004_Node000005"><a xlink:title=" ">
<path fill="none" stroke="#63b8ff" d="M378.47,-15C386.92,-15 395.43,-15 403.62,-15"/>
<polygon fill="#63b8ff" stroke="#63b8ff" points="403.8,-18.5 413.8,-15 403.8,-11.5 403.8,-18.5"/>
</a>
</g>
</g>
</g>
</svg>
