<?xml version="1.0" encoding="UTF-8" standalone="no"?>
<!DOCTYPE svg PUBLIC "-//W3C//DTD SVG 1.1//EN"
 "http://www.w3.org/Graphics/SVG/1.1/DTD/svg11.dtd">
<!-- Generated by graphviz version 2.43.0 (0)
 -->
<!-- Title: miniply::PLYReader::extract_list_property Pages: 1 -->
<svg width="424pt" height="60pt"
 viewBox="0.00 0.00 424.00 60.00" xmlns="http://www.w3.org/2000/svg" xmlns:xlink="http://www.w3.org/1999/xlink">
<g id="graph0" class="graph" transform="scale(1 1) rotate(0) translate(4 56)">
<title>miniply::PLYReader::extract_list_property</title>
<!-- Node1 -->
<g id="Node000001" class="node">
<title>Node1</title>
<g id="a_Node000001"><a xlink:title=" ">
<polygon fill="#999999" stroke="#666666" points="124,-30 0,-30 0,0 124,0 124,-30"/>
<text text-anchor="start" x="8" y="-18" font-family="Helvetica,sans-Serif" font-size="10.00">miniply::PLYReader</text>
<text text-anchor="middle" x="62" y="-7" font-family="Helvetica,sans-Serif" font-size="10.00">::extract_list_property</text>
</a>
</g>
</g>
<!-- Node2 -->
<g id="Node000002" class="node">
<title>Node2</title>
<g id="a_Node000002"><a xlink:href="classminiply_1_1PLYReader.html#a13bf1a5ab6c1547622af0729f707c52d" target="_top" xlink:title=" ">
<polygon fill="white" stroke="#666666" points="270,-52 160,-52 160,-22 270,-22 270,-52"/>
<text text-anchor="start" x="168" y="-40" font-family="Helvetica,sans-Serif" font-size="10.00">miniply::PLYReader</text>
<text text-anchor="middle" x="215" y="-29" font-family="Helvetica,sans-Serif" font-size="10.00">::element</text>
</a>
</g>
</g>
<!-- Node1&#45;&gt;Node2 -->
<g id="edge1_Node000001_Node000002" class="edge">
<title>Node1&#45;&gt;Node2</title>
<g id="a_edge1_Node000001_Node000002"><a xlink:title=" ">
<path fill="none" stroke="#63b8ff" d="M124.42,-23.95C132.78,-25.17 141.37,-26.42 149.78,-27.64"/>
<polygon fill="#63b8ff" stroke="#63b8ff" points="149.51,-31.14 159.91,-29.12 150.52,-24.21 149.51,-31.14"/>
</a>
</g>
</g>
<!-- Node3 -->
<g id="Node000003" class="node">
<title>Node3</title>
<g id="a_Node000003"><a xlink:href="classminiply_1_1PLYReader.html#a82366c40f8779bf12dbcbe3c4a22ae36" target="_top" xlink:title=" ">
<polygon fill="white" stroke="#666666" points="416,-30 306,-30 306,0 416,0 416,-30"/>
<text text-anchor="start" x="314" y="-18" font-family="Helvetica,sans-Serif" font-size="10.00">miniply::PLYReader</text>
<text text-anchor="middle" x="361" y="-7" font-family="Helvetica,sans-Serif" font-size="10.00">::has_element</text>
</a>
</g>
</g>
<!-- Node1&#45;&gt;Node3 -->
<g id="edge3_Node000001_Node000003" class="edge">
<title>Node1&#45;&gt;Node3</title>
<g id="a_edge3_Node000001_Node000003"><a xlink:title=" ">
<path fill="none" stroke="#63b8ff" d="M124.05,-13.55C135.97,-13.32 148.38,-13.12 160,-13 208.89,-12.5 221.11,-12.46 270,-13 278.31,-13.09 287.06,-13.23 295.69,-13.4"/>
<polygon fill="#63b8ff" stroke="#63b8ff" points="295.68,-16.9 305.75,-13.6 295.82,-9.9 295.68,-16.9"/>
</a>
</g>
</g>
<!-- Node2&#45;&gt;Node3 -->
<g id="edge2_Node000002_Node000003" class="edge">
<title>Node2&#45;&gt;Node3</title>
<g id="a_edge2_Node000002_Node000003"><a xlink:title=" ">
<path fill="none" stroke="#63b8ff" d="M270.03,-28.75C278.4,-27.47 287.13,-26.13 295.7,-24.82"/>
<polygon fill="#63b8ff" stroke="#63b8ff" points="296.31,-28.27 305.67,-23.3 295.25,-21.35 296.31,-28.27"/>
</a>
</g>
</g>
</g>
</svg>
