<?xml version="1.0" encoding="UTF-8" standalone="no"?>
<!DOCTYPE svg PUBLIC "-//W3C//DTD SVG 1.1//EN"
 "http://www.w3.org/Graphics/SVG/1.1/DTD/svg11.dtd">
<!-- Generated by graphviz version 2.43.0 (0)
 -->
<!-- Title: PatchSegmentation::patchSegmentation Pages: 1 -->
<svg width="468pt" height="238pt"
 viewBox="0.00 0.00 468.00 237.50" xmlns="http://www.w3.org/2000/svg" xmlns:xlink="http://www.w3.org/1999/xlink">
<g id="graph0" class="graph" transform="scale(1 1) rotate(0) translate(4 233.5)">
<title>PatchSegmentation::patchSegmentation</title>
<!-- Node1 -->
<g id="Node000001" class="node">
<title>Node1</title>
<g id="a_Node000001"><a xlink:title=" ">
<polygon fill="#999999" stroke="#666666" points="117,-144 0,-144 0,-114 117,-114 117,-144"/>
<text text-anchor="start" x="8" y="-132" font-family="Helvetica,sans-Serif" font-size="10.00">PatchSegmentation::</text>
<text text-anchor="middle" x="58.5" y="-121" font-family="Helvetica,sans-Serif" font-size="10.00">patchSegmentation</text>
</a>
</g>
</g>
<!-- Node2 -->
<g id="Node000002" class="node">
<title>Node2</title>
<g id="a_Node000002"><a xlink:href="classStatsCollector.html#ab1a99cc3ba798bf5d01e16156d8afe41" target="_top" xlink:title=" ">
<polygon fill="white" stroke="#666666" points="311.5,-229.5 165.5,-229.5 165.5,-210.5 311.5,-210.5 311.5,-229.5"/>
<text text-anchor="middle" x="238.5" y="-217.5" font-family="Helvetica,sans-Serif" font-size="10.00">StatsCollector::collectData</text>
</a>
</g>
</g>
<!-- Node1&#45;&gt;Node2 -->
<g id="edge1_Node000001_Node000002" class="edge">
<title>Node1&#45;&gt;Node2</title>
<g id="a_edge1_Node000001_Node000002"><a xlink:title=" ">
<path fill="none" stroke="#63b8ff" d="M74.63,-144.08C92.04,-160.57 122.21,-186.55 153,-201 158.23,-203.45 163.8,-205.6 169.48,-207.48"/>
<polygon fill="#63b8ff" stroke="#63b8ff" points="168.53,-210.84 179.11,-210.38 170.55,-204.14 168.53,-210.84"/>
</a>
</g>
</g>
<!-- Node3 -->
<g id="Node000003" class="node">
<title>Node3</title>
<g id="a_Node000003"><a xlink:href="namespaceFileExport.html#a77ccae02b99d57cd4d828bee46139f51" target="_top" xlink:title=" ">
<polygon fill="white" stroke="#666666" points="316,-192 161,-192 161,-162 316,-162 316,-192"/>
<text text-anchor="start" x="169" y="-180" font-family="Helvetica,sans-Serif" font-size="10.00">FileExport::exportPointCloud</text>
<text text-anchor="middle" x="238.5" y="-169" font-family="Helvetica,sans-Serif" font-size="10.00">PatchSegmentationBorder</text>
</a>
</g>
</g>
<!-- Node1&#45;&gt;Node3 -->
<g id="edge2_Node000001_Node000003" class="edge">
<title>Node1&#45;&gt;Node3</title>
<g id="a_edge2_Node000001_Node000003"><a xlink:title=" ">
<path fill="none" stroke="#63b8ff" d="M115.33,-144.06C133.31,-148.9 153.39,-154.32 172,-159.34"/>
<polygon fill="#63b8ff" stroke="#63b8ff" points="171.3,-162.77 181.87,-162 173.12,-156.01 171.3,-162.77"/>
</a>
</g>
</g>
<!-- Node5 -->
<g id="Node000005" class="node">
<title>Node5</title>
<g id="a_Node000005"><a xlink:href="namespaceFileExport.html#afa65f718975b30cc1387729f9e355b75" target="_top" xlink:title=" ">
<polygon fill="white" stroke="#666666" points="324,-144 153,-144 153,-114 324,-114 324,-144"/>
<text text-anchor="start" x="161" y="-132" font-family="Helvetica,sans-Serif" font-size="10.00">FileExport::exportPointCloud</text>
<text text-anchor="middle" x="238.5" y="-121" font-family="Helvetica,sans-Serif" font-size="10.00">PatchSegmentationBorderBlank</text>
</a>
</g>
</g>
<!-- Node1&#45;&gt;Node5 -->
<g id="edge4_Node000001_Node000005" class="edge">
<title>Node1&#45;&gt;Node5</title>
<g id="a_edge4_Node000001_Node000005"><a xlink:title=" ">
<path fill="none" stroke="#63b8ff" d="M117.29,-129C125.46,-129 134.04,-129 142.68,-129"/>
<polygon fill="#63b8ff" stroke="#63b8ff" points="142.85,-132.5 152.85,-129 142.85,-125.5 142.85,-132.5"/>
</a>
</g>
</g>
<!-- Node6 -->
<g id="Node000006" class="node">
<title>Node6</title>
<g id="a_Node000006"><a xlink:href="namespaceFileExport.html#a05bd491ceaac33ece5f9ce26395d0cbd" target="_top" xlink:title=" ">
<polygon fill="white" stroke="#666666" points="316,-96 161,-96 161,-66 316,-66 316,-96"/>
<text text-anchor="start" x="169" y="-84" font-family="Helvetica,sans-Serif" font-size="10.00">FileExport::exportPointCloud</text>
<text text-anchor="middle" x="238.5" y="-73" font-family="Helvetica,sans-Serif" font-size="10.00">PatchSegmentationColor</text>
</a>
</g>
</g>
<!-- Node1&#45;&gt;Node6 -->
<g id="edge6_Node000001_Node000006" class="edge">
<title>Node1&#45;&gt;Node6</title>
<g id="a_edge6_Node000001_Node000006"><a xlink:title=" ">
<path fill="none" stroke="#63b8ff" d="M115.33,-113.94C133.31,-109.1 153.39,-103.68 172,-98.66"/>
<polygon fill="#63b8ff" stroke="#63b8ff" points="173.12,-101.99 181.87,-96 171.3,-95.23 173.12,-101.99"/>
</a>
</g>
</g>
<!-- Node7 -->
<g id="Node000007" class="node">
<title>Node7</title>
<g id="a_Node000007"><a xlink:href="classrobin__hood_1_1detail_1_1Table.html#a6c2d436df6800ac290cc26da5961a331" target="_top" xlink:title=" ">
<polygon fill="white" stroke="#666666" points="290.5,-30 186.5,-30 186.5,0 290.5,0 290.5,-30"/>
<text text-anchor="start" x="194.5" y="-18" font-family="Helvetica,sans-Serif" font-size="10.00">robin_hood::detail</text>
<text text-anchor="middle" x="238.5" y="-7" font-family="Helvetica,sans-Serif" font-size="10.00">::Table::reserve</text>
</a>
</g>
</g>
<!-- Node1&#45;&gt;Node7 -->
<g id="edge8_Node000001_Node000007" class="edge">
<title>Node1&#45;&gt;Node7</title>
<g id="a_edge8_Node000001_Node000007"><a xlink:title=" ">
<path fill="none" stroke="#63b8ff" d="M77.02,-113.84C95.26,-98.46 125.03,-74.49 153,-57 165.98,-48.89 180.74,-41.1 194.25,-34.48"/>
<polygon fill="#63b8ff" stroke="#63b8ff" points="195.88,-37.59 203.37,-30.1 192.84,-31.28 195.88,-37.59"/>
</a>
</g>
</g>
<!-- Node4 -->
<g id="Node000004" class="node">
<title>Node4</title>
<g id="a_Node000004"><a xlink:href="namespaceuvgutils.html#a0abc693a4c9342061a1247ee333c53eb" target="_top" xlink:title=" ">
<polygon fill="white" stroke="#666666" points="460,-138.5 360,-138.5 360,-119.5 460,-119.5 460,-138.5"/>
<text text-anchor="middle" x="410" y="-126.5" font-family="Helvetica,sans-Serif" font-size="10.00">uvgutils::zeroPad</text>
</a>
</g>
</g>
<!-- Node3&#45;&gt;Node4 -->
<g id="edge3_Node000003_Node000004" class="edge">
<title>Node3&#45;&gt;Node4</title>
<g id="a_edge3_Node000003_Node000004"><a xlink:title=" ">
<path fill="none" stroke="#63b8ff" d="M292.67,-161.94C316.07,-155.32 343.23,-147.63 365.41,-141.34"/>
<polygon fill="#63b8ff" stroke="#63b8ff" points="366.56,-144.66 375.23,-138.56 364.65,-137.92 366.56,-144.66"/>
</a>
</g>
</g>
<!-- Node5&#45;&gt;Node4 -->
<g id="edge5_Node000005_Node000004" class="edge">
<title>Node5&#45;&gt;Node4</title>
<g id="a_edge5_Node000005_Node000004"><a xlink:title=" ">
<path fill="none" stroke="#63b8ff" d="M324.25,-129C332.86,-129 341.48,-129 349.73,-129"/>
<polygon fill="#63b8ff" stroke="#63b8ff" points="349.97,-132.5 359.97,-129 349.97,-125.5 349.97,-132.5"/>
</a>
</g>
</g>
<!-- Node6&#45;&gt;Node4 -->
<g id="edge7_Node000006_Node000004" class="edge">
<title>Node6&#45;&gt;Node4</title>
<g id="a_edge7_Node000006_Node000004"><a xlink:title=" ">
<path fill="none" stroke="#63b8ff" d="M292.67,-96.06C316.07,-102.68 343.23,-110.37 365.41,-116.66"/>
<polygon fill="#63b8ff" stroke="#63b8ff" points="364.65,-120.08 375.23,-119.44 366.56,-113.34 364.65,-120.08"/>
</a>
</g>
</g>
<!-- Node7&#45;&gt;Node7 -->
<g id="edge9_Node000007_Node000007" class="edge">
<title>Node7&#45;&gt;Node7</title>
<g id="a_edge9_Node000007_Node000007"><a xlink:title=" ">
<path fill="none" stroke="#63b8ff" d="M208.62,-30.28C201.98,-39.41 211.94,-48 238.5,-48 254.27,-48 264.19,-44.97 268.26,-40.6"/>
<polygon fill="#63b8ff" stroke="#63b8ff" points="271.76,-40.32 268.38,-30.28 264.76,-40.23 271.76,-40.32"/>
</a>
</g>
</g>
</g>
</svg>
