<?xml version="1.0" encoding="UTF-8" standalone="no"?>
<!DOCTYPE svg PUBLIC "-//W3C//DTD SVG 1.1//EN"
 "http://www.w3.org/Graphics/SVG/1.1/DTD/svg11.dtd">
<!-- Generated by graphviz version 2.43.0 (0)
 -->
<!-- Title: uvgvpcc_enc::Job::getName Pages: 1 -->
<svg width="381pt" height="101pt"
 viewBox="0.00 0.00 381.00 101.00" xmlns="http://www.w3.org/2000/svg" xmlns:xlink="http://www.w3.org/1999/xlink">
<g id="graph0" class="graph" transform="scale(1 1) rotate(0) translate(4 97)">
<title>uvgvpcc_enc::Job::getName</title>
<!-- Node1 -->
<g id="Node000001" class="node">
<title>Node1</title>
<g id="a_Node000001"><a xlink:title=" ">
<polygon fill="#999999" stroke="#666666" points="373,-56 221,-56 221,-37 373,-37 373,-56"/>
<text text-anchor="middle" x="297" y="-44" font-family="Helvetica,sans-Serif" font-size="10.00">uvgvpcc_enc::Job::getName</text>
</a>
</g>
</g>
<!-- Node2 -->
<g id="Node000002" class="node">
<title>Node2</title>
<g id="a_Node000002"><a xlink:href="classuvgvpcc__enc_1_1Job.html#aecc91720b57ae9c2555798b7d26e12b6" target="_top" xlink:title=" ">
<polygon fill="white" stroke="#666666" points="185,-93 0,-93 0,-74 185,-74 185,-93"/>
<text text-anchor="middle" x="92.5" y="-81" font-family="Helvetica,sans-Serif" font-size="10.00">uvgvpcc_enc::Job::addDependency</text>
</a>
</g>
</g>
<!-- Node1&#45;&gt;Node2 -->
<g id="edge1_Node000001_Node000002" class="edge">
<title>Node1&#45;&gt;Node2</title>
<g id="a_edge1_Node000001_Node000002"><a xlink:title=" ">
<path fill="none" stroke="#63b8ff" d="M233.71,-57.88C205.56,-63.02 172.67,-69.03 145.82,-73.94"/>
<polygon fill="#63b8ff" stroke="#63b8ff" points="234.64,-61.27 243.85,-56.03 233.38,-54.38 234.64,-61.27"/>
</a>
</g>
</g>
<!-- Node3 -->
<g id="Node000003" class="node">
<title>Node3</title>
<g id="a_Node000003"><a xlink:href="classuvgvpcc__enc_1_1Job.html#a958d9038c7a459bd99c7542719ea0b60" target="_top" xlink:title=" ">
<polygon fill="white" stroke="#666666" points="165,-56 20,-56 20,-37 165,-37 165,-56"/>
<text text-anchor="middle" x="92.5" y="-44" font-family="Helvetica,sans-Serif" font-size="10.00">uvgvpcc_enc::Job::execute</text>
</a>
</g>
</g>
<!-- Node1&#45;&gt;Node3 -->
<g id="edge2_Node000001_Node000003" class="edge">
<title>Node1&#45;&gt;Node3</title>
<g id="a_edge2_Node000001_Node000003"><a xlink:title=" ">
<path fill="none" stroke="#63b8ff" d="M210.52,-46.5C195.41,-46.5 179.81,-46.5 165.13,-46.5"/>
<polygon fill="#63b8ff" stroke="#63b8ff" points="210.88,-50 220.88,-46.5 210.88,-43 210.88,-50"/>
</a>
</g>
</g>
<!-- Node4 -->
<g id="Node000004" class="node">
<title>Node4</title>
<g id="a_Node000004"><a xlink:href="classuvgvpcc__enc_1_1Job.html#add9a45cf44f945b2af55c9a94dd856c9" target="_top" xlink:title=" ">
<polygon fill="white" stroke="#666666" points="156.5,-19 28.5,-19 28.5,0 156.5,0 156.5,-19"/>
<text text-anchor="middle" x="92.5" y="-7" font-family="Helvetica,sans-Serif" font-size="10.00">uvgvpcc_enc::Job::wait</text>
</a>
</g>
</g>
<!-- Node1&#45;&gt;Node4 -->
<g id="edge3_Node000001_Node000004" class="edge">
<title>Node1&#45;&gt;Node4</title>
<g id="a_edge3_Node000001_Node000004"><a xlink:title=" ">
<path fill="none" stroke="#63b8ff" d="M233.71,-35.12C205.56,-29.98 172.67,-23.97 145.82,-19.06"/>
<polygon fill="#63b8ff" stroke="#63b8ff" points="233.38,-38.62 243.85,-36.97 234.64,-31.73 233.38,-38.62"/>
</a>
</g>
</g>
</g>
</svg>
