<?xml version="1.0" encoding="UTF-8" standalone="no"?>
<!DOCTYPE svg PUBLIC "-//W3C//DTD SVG 1.1//EN"
 "http://www.w3.org/Graphics/SVG/1.1/DTD/svg11.dtd">
<!-- Generated by graphviz version 2.43.0 (0)
 -->
<!-- Title: BitstreamGeneration::createV3CGOFBitstream Pages: 1 -->
<!--zoomable 496 -->

<svg id="main" version="1.1" xmlns="http://www.w3.org/2000/svg" xmlns:xlink="http://www.w3.org/1999/xlink" xml:space="preserve" onload="init(evt)">
<style type="text/css"><![CDATA[
.node, .edge {opacity: 0.7;}
.node.selected, .edge.selected {opacity: 1;}
.edge:hover path { stroke: red; }
.edge:hover polygon { stroke: red; fill: red; }
]]></style>

<defs>
  <circle id="rim" cx="0" cy="0" r="7"/>
  <circle id="rim2" cx="0" cy="0" r="3.5"/>
  <g id="zoomPlus">
    <use xlink:href="#rim" fill="#404040"><set attributeName="fill" to="#808080" begin="zoomplus.mouseover" end="zoomplus.mouseout"/></use>
    <path d="M-4,0h8M0,-4v8" fill="none" stroke="white" stroke-width="1.5" pointer-events="none"/>
  </g>
  <g id="zoomMin">
    <use xlink:href="#rim" fill="#404040"><set attributeName="fill" to="#808080" begin="zoomminus.mouseover" end="zoomminus.mouseout"/></use>
    <path d="M-4,0h8" fill="none" stroke="white" stroke-width="1.5" pointer-events="none"/>
  </g>
  <g id="arrowUp" transform="translate(30 24)">
    <use xlink:href="#rim"/>
    <path pointer-events="none" fill="none" stroke="white" stroke-width="1.5" d="M0,-3.0v7 M-2.5,-0.5L0,-3.0L2.5,-0.5"/>
  </g>
  <g id="arrowRight" transform="rotate(90) translate(36 -43)">
    <use xlink:href="#rim"/>
    <path pointer-events="none" fill="none" stroke="white" stroke-width="1.5" d="M0,-3.0v7 M-2.5,-0.5L0,-3.0L2.5,-0.5"/>
  </g>
  <g id="arrowDown" transform="rotate(180) translate(-30 -48)">
    <use xlink:href="#rim"/>
    <path pointer-events="none" fill="none" stroke="white" stroke-width="1.5" d="M0,-3.0v7 M-2.5,-0.5L0,-3.0L2.5,-0.5"/>
  </g>
  <g id="arrowLeft" transform="rotate(270) translate(-36 17)">
    <use xlink:href="#rim"/>
    <path pointer-events="none" fill="none" stroke="white" stroke-width="1.5" d="M0,-3.0v7 M-2.5,-0.5L0,-3.0L2.5,-0.5"/>
  </g>
  <g id="resetDef">
    <use xlink:href="#rim2" fill="#404040"><set attributeName="fill" to="#808080" begin="reset.mouseover" end="reset.mouseout"/></use>
  </g>
</defs>
<script type="application/ecmascript">
var viewWidth = 833;
var viewHeight = 496;
var sectionId = 'dynsection-1';
</script>
<script type="application/ecmascript" xlink:href="svg.min.js"/>
<svg id="graph" class="graph">
<g id="viewport">
<title>BitstreamGeneration::createV3CGOFBitstream</title>
<!-- Node1 -->
<g id="Node000001" class="node">
<title>Node1</title>
<g id="a_Node000001"><a xlink:title=" ">
<polygon fill="#999999" stroke="#666666" points="142,-297 0,-297 0,-267 142,-267 142,-297"/>
<text text-anchor="start" x="8" y="-285" font-family="Helvetica,sans-Serif" font-size="10.00">BitstreamGeneration</text>
<text text-anchor="middle" x="71" y="-274" font-family="Helvetica,sans-Serif" font-size="10.00">::createV3CGOFBitstream</text>
</a>
</g>
</g>
<!-- Node2 -->
<g id="Node000002" class="node">
<title>Node2</title>
<g id="a_Node000002"><a xlink:href="classv3c__gof.html#a6a107d849bed5cacedc55fe98f0772c1" target="_top" xlink:title=" ">
<polygon fill="white" stroke="#666666" points="321,-488 191,-488 191,-458 321,-458 321,-488"/>
<text text-anchor="start" x="199" y="-476" font-family="Helvetica,sans-Serif" font-size="10.00">v3c_gof::add_v3c_atlas</text>
<text text-anchor="middle" x="256" y="-465" font-family="Helvetica,sans-Serif" font-size="10.00">_context</text>
</a>
</g>
</g>
<!-- Node1&#45;&gt;Node2 -->
<g id="edge1_Node000001_Node000002" class="edge">
<title>Node1&#45;&gt;Node2</title>
<g id="a_edge1_Node000001_Node000002"><a xlink:title=" ">
<path fill="none" stroke="#63b8ff" d="M77.55,-297.47C90.13,-330.36 124.02,-407.65 178,-449 179.81,-450.38 181.69,-451.69 183.64,-452.92"/>
<polygon fill="#63b8ff" stroke="#63b8ff" points="182.1,-456.07 192.55,-457.85 185.5,-449.94 182.1,-456.07"/>
</a>
</g>
</g>
<!-- Node3 -->
<g id="Node000003" class="node">
<title>Node3</title>
<g id="a_Node000003"><a xlink:href="classv3c__gof.html#a263296629443aa4ac7dcf7f7e7884389" target="_top" xlink:title=" ">
<polygon fill="white" stroke="#666666" points="329,-439.5 183,-439.5 183,-420.5 329,-420.5 329,-439.5"/>
<text text-anchor="middle" x="256" y="-427.5" font-family="Helvetica,sans-Serif" font-size="10.00">v3c_gof::add_v3c_avd_sub</text>
</a>
</g>
</g>
<!-- Node1&#45;&gt;Node3 -->
<g id="edge2_Node000001_Node000003" class="edge">
<title>Node1&#45;&gt;Node3</title>
<g id="a_edge2_Node000001_Node000003"><a xlink:title=" ">
<path fill="none" stroke="#63b8ff" d="M79.91,-297.19C95.04,-324.67 130.82,-382.54 178,-412 180.65,-413.66 183.44,-415.16 186.32,-416.52"/>
<polygon fill="#63b8ff" stroke="#63b8ff" points="185.2,-419.85 195.78,-420.43 187.87,-413.38 185.2,-419.85"/>
</a>
</g>
</g>
<!-- Node4 -->
<g id="Node000004" class="node">
<title>Node4</title>
<g id="a_Node000004"><a xlink:href="classv3c__gof.html#a899ad52a9837759feead70e5af99da94" target="_top" xlink:title=" ">
<polygon fill="white" stroke="#666666" points="329,-402.5 183,-402.5 183,-383.5 329,-383.5 329,-402.5"/>
<text text-anchor="middle" x="256" y="-390.5" font-family="Helvetica,sans-Serif" font-size="10.00">v3c_gof::add_v3c_gvd_sub</text>
</a>
</g>
</g>
<!-- Node1&#45;&gt;Node4 -->
<g id="edge3_Node000001_Node000004" class="edge">
<title>Node1&#45;&gt;Node4</title>
<g id="a_edge3_Node000001_Node000004"><a xlink:title=" ">
<path fill="none" stroke="#63b8ff" d="M84.73,-297.09C103.14,-317.9 139.25,-355.07 178,-375 181.71,-376.91 185.62,-378.61 189.64,-380.14"/>
<polygon fill="#63b8ff" stroke="#63b8ff" points="188.55,-383.47 199.15,-383.4 190.82,-376.85 188.55,-383.47"/>
</a>
</g>
</g>
<!-- Node5 -->
<g id="Node000005" class="node">
<title>Node5</title>
<g id="a_Node000005"><a xlink:href="classv3c__gof.html#a418e29be967d58974050ead4ec90c227" target="_top" xlink:title=" ">
<polygon fill="white" stroke="#666666" points="329,-365.5 183,-365.5 183,-346.5 329,-346.5 329,-365.5"/>
<text text-anchor="middle" x="256" y="-353.5" font-family="Helvetica,sans-Serif" font-size="10.00">v3c_gof::add_v3c_ovd_sub</text>
</a>
</g>
</g>
<!-- Node1&#45;&gt;Node5 -->
<g id="edge4_Node000001_Node000005" class="edge">
<title>Node1&#45;&gt;Node5</title>
<g id="a_edge4_Node000001_Node000005"><a xlink:title=" ">
<path fill="none" stroke="#63b8ff" d="M96.43,-297.23C117.39,-309.72 148.76,-327.07 178,-338 183.6,-340.09 189.53,-342 195.5,-343.71"/>
<polygon fill="#63b8ff" stroke="#63b8ff" points="194.99,-347.2 205.56,-346.43 196.82,-340.44 194.99,-347.2"/>
</a>
</g>
</g>
<!-- Node6 -->
<g id="Node000006" class="node">
<title>Node6</title>
<g id="a_Node000006"><a xlink:href="classv3c__gof.html#abe8c31a1393a898d71178cb79a687893" target="_top" xlink:title=" ">
<polygon fill="white" stroke="#666666" points="317.5,-328.5 194.5,-328.5 194.5,-309.5 317.5,-309.5 317.5,-328.5"/>
<text text-anchor="middle" x="256" y="-316.5" font-family="Helvetica,sans-Serif" font-size="10.00">v3c_gof::add_v3c_vps</text>
</a>
</g>
</g>
<!-- Node1&#45;&gt;Node6 -->
<g id="edge5_Node000001_Node000006" class="edge">
<title>Node1&#45;&gt;Node6</title>
<g id="a_edge5_Node000001_Node000006"><a xlink:title=" ">
<path fill="none" stroke="#63b8ff" d="M142.23,-296.2C160.6,-299.91 180.18,-303.87 197.78,-307.43"/>
<polygon fill="#63b8ff" stroke="#63b8ff" points="197.39,-310.92 207.89,-309.47 198.78,-304.06 197.39,-310.92"/>
</a>
</g>
</g>
<!-- Node7 -->
<g id="Node000007" class="node">
<title>Node7</title>
<g id="a_Node000007"><a xlink:href="video__sub__bitstream_8cpp.html#ae8d99b3cf0d33016153819e640104529" target="_top" xlink:title=" ">
<polygon fill="white" stroke="#666666" points="334,-291.5 178,-291.5 178,-272.5 334,-272.5 334,-291.5"/>
<text text-anchor="middle" x="256" y="-279.5" font-family="Helvetica,sans-Serif" font-size="10.00">byteStreamToSampleStream</text>
</a>
</g>
</g>
<!-- Node1&#45;&gt;Node7 -->
<g id="edge6_Node000001_Node000007" class="edge">
<title>Node1&#45;&gt;Node7</title>
<g id="a_edge6_Node000001_Node000007"><a xlink:title=" ">
<path fill="none" stroke="#63b8ff" d="M142.23,-282C150.63,-282 159.29,-282 167.9,-282"/>
<polygon fill="#63b8ff" stroke="#63b8ff" points="167.96,-285.5 177.96,-282 167.96,-278.5 167.96,-285.5"/>
</a>
</g>
</g>
<!-- Node8 -->
<g id="Node000008" class="node">
<title>Node8</title>
<g id="a_Node000008"><a xlink:href="classv3c__gof.html#a3723017afa8250c6b0b50f6f56016389" target="_top" xlink:title=" ">
<polygon fill="white" stroke="#666666" points="319,-254.5 193,-254.5 193,-235.5 319,-235.5 319,-254.5"/>
<text text-anchor="middle" x="256" y="-242.5" font-family="Helvetica,sans-Serif" font-size="10.00">v3c_gof::set_n_frames</text>
</a>
</g>
</g>
<!-- Node1&#45;&gt;Node8 -->
<g id="edge7_Node000001_Node000008" class="edge">
<title>Node1&#45;&gt;Node8</title>
<g id="a_edge7_Node000001_Node000008"><a xlink:title=" ">
<path fill="none" stroke="#63b8ff" d="M142.23,-267.8C160.6,-264.09 180.18,-260.13 197.78,-256.57"/>
<polygon fill="#63b8ff" stroke="#63b8ff" points="198.78,-259.94 207.89,-254.53 197.39,-253.08 198.78,-259.94"/>
</a>
</g>
</g>
<!-- Node9 -->
<g id="Node000009" class="node">
<title>Node9</title>
<g id="a_Node000009"><a xlink:href="classv3c__gof.html#ad967970c96fcd07a7c38bae799989a4b" target="_top" xlink:title=" ">
<polygon fill="white" stroke="#666666" points="317,-217 195,-217 195,-187 317,-187 317,-217"/>
<text text-anchor="start" x="203" y="-205" font-family="Helvetica,sans-Serif" font-size="10.00">v3c_gof::set_v3c_unit</text>
<text text-anchor="middle" x="256" y="-194" font-family="Helvetica,sans-Serif" font-size="10.00">_precision</text>
</a>
</g>
</g>
<!-- Node1&#45;&gt;Node9 -->
<g id="edge8_Node000001_Node000009" class="edge">
<title>Node1&#45;&gt;Node9</title>
<g id="a_edge8_Node000001_Node000009"><a xlink:title=" ">
<path fill="none" stroke="#63b8ff" d="M98,-266.98C119.11,-255.15 149.89,-238.76 178,-227 183.4,-224.74 189.08,-222.56 194.81,-220.48"/>
<polygon fill="#63b8ff" stroke="#63b8ff" points="196.17,-223.71 204.45,-217.09 193.85,-217.1 196.17,-223.71"/>
</a>
</g>
</g>
<!-- Node10 -->
<g id="Node000010" class="node">
<title>Node10</title>
<g id="a_Node000010"><a xlink:href="classv3c__gof.html#a7623e830a39058987eaea7f9ff65bf72" target="_top" xlink:title=" ">
<polygon fill="white" stroke="#666666" points="309.5,-169 202.5,-169 202.5,-139 309.5,-139 309.5,-169"/>
<text text-anchor="start" x="210.5" y="-157" font-family="Helvetica,sans-Serif" font-size="10.00">v3c_gof::write_v3c</text>
<text text-anchor="middle" x="256" y="-146" font-family="Helvetica,sans-Serif" font-size="10.00">_chunk</text>
</a>
</g>
</g>
<!-- Node1&#45;&gt;Node10 -->
<g id="edge9_Node000001_Node000010" class="edge">
<title>Node1&#45;&gt;Node10</title>
<g id="a_edge9_Node000001_Node000010"><a xlink:title=" ">
<path fill="none" stroke="#63b8ff" d="M83.36,-266.99C101.14,-244.49 137.73,-202.08 178,-178 182.66,-175.21 187.67,-172.72 192.82,-170.5"/>
<polygon fill="#63b8ff" stroke="#63b8ff" points="194.19,-173.72 202.2,-166.78 191.61,-167.21 194.19,-173.72"/>
</a>
</g>
</g>
<!-- Node19 -->
<g id="Node000019" class="node">
<title>Node19</title>
<g id="a_Node000019"><a xlink:href="classv3c__gof.html#a16c6c5414ca72ba7a33ab15981c7b40c" target="_top" xlink:title=" ">
<polygon fill="white" stroke="#666666" points="309.5,-121 202.5,-121 202.5,-91 309.5,-91 309.5,-121"/>
<text text-anchor="start" x="210.5" y="-109" font-family="Helvetica,sans-Serif" font-size="10.00">v3c_gof::write_v3c</text>
<text text-anchor="middle" x="256" y="-98" font-family="Helvetica,sans-Serif" font-size="10.00">_ld_chunk</text>
</a>
</g>
</g>
<!-- Node1&#45;&gt;Node19 -->
<g id="edge19_Node000001_Node000019" class="edge">
<title>Node1&#45;&gt;Node19</title>
<g id="a_edge19_Node000001_Node000019"><a xlink:title=" ">
<path fill="none" stroke="#63b8ff" d="M78.57,-266.53C92.37,-235.85 127.38,-167.06 178,-130 182.52,-126.69 187.51,-123.83 192.7,-121.36"/>
<polygon fill="#63b8ff" stroke="#63b8ff" points="194.39,-124.44 202.23,-117.32 191.66,-118 194.39,-124.44"/>
</a>
</g>
</g>
<!-- Node21 -->
<g id="Node000021" class="node">
<title>Node21</title>
<g id="a_Node000021"><a xlink:href="classStatsCollector.html#a5cd74edd61d2b8c4fb9c5471d00eba64" target="_top" xlink:title=" ">
<polygon fill="white" stroke="#666666" points="327.5,-72.5 184.5,-72.5 184.5,-53.5 327.5,-53.5 327.5,-72.5"/>
<text text-anchor="middle" x="256" y="-60.5" font-family="Helvetica,sans-Serif" font-size="10.00">StatsCollector::writeToFile</text>
</a>
</g>
</g>
<!-- Node1&#45;&gt;Node21 -->
<g id="edge26_Node000001_Node000021" class="edge">
<title>Node1&#45;&gt;Node21</title>
<g id="a_edge26_Node000001_Node000021"><a xlink:title=" ">
<path fill="none" stroke="#63b8ff" d="M75.45,-266.98C84.87,-229.52 114.65,-131.44 178,-82 180.34,-80.17 182.83,-78.52 185.44,-77.02"/>
<polygon fill="#63b8ff" stroke="#63b8ff" points="187.2,-80.05 194.64,-72.51 184.12,-73.77 187.2,-80.05"/>
</a>
</g>
</g>
<!-- Node11 -->
<g id="Node000011" class="node">
<title>Node11</title>
<g id="a_Node000011"><a xlink:href="bitstream__util_8cpp.html#ac69c20ee312c7d90392e8a6b3b06341a" target="_top" xlink:title="Copy array of bytes to a byte&#45;aligned bitstream.">
<polygon fill="white" stroke="#666666" points="492,-78 376,-78 376,-48 492,-48 492,-78"/>
<text text-anchor="start" x="384" y="-66" font-family="Helvetica,sans-Serif" font-size="10.00">uvg_bitstream_copy</text>
<text text-anchor="middle" x="434" y="-55" font-family="Helvetica,sans-Serif" font-size="10.00">_bytes</text>
</a>
</g>
</g>
<!-- Node10&#45;&gt;Node11 -->
<g id="edge10_Node000010_Node000011" class="edge">
<title>Node10&#45;&gt;Node11</title>
<g id="a_edge10_Node000010_Node000011"><a xlink:title=" ">
<path fill="none" stroke="#63b8ff" d="M309.74,-141.92C318.23,-138.77 326.63,-134.85 334,-130 354.54,-116.48 349.99,-102.28 370,-88 372.63,-86.12 375.43,-84.36 378.32,-82.7"/>
<polygon fill="#63b8ff" stroke="#63b8ff" points="379.96,-85.8 387.22,-78.08 376.73,-79.59 379.96,-85.8"/>
</a>
</g>
</g>
<!-- Node13 -->
<g id="Node000013" class="node">
<title>Node13</title>
<g id="a_Node000013"><a xlink:href="bitstream__util_8cpp.html#a3bdf77ac9496bba79a46c840a4042550" target="_top" xlink:title=" ">
<polygon fill="white" stroke="#666666" points="498,-226.5 370,-226.5 370,-207.5 498,-207.5 498,-226.5"/>
<text text-anchor="middle" x="434" y="-214.5" font-family="Helvetica,sans-Serif" font-size="10.00">uvg_bitstream_finalize</text>
</a>
</g>
</g>
<!-- Node10&#45;&gt;Node13 -->
<g id="edge12_Node000010_Node000013" class="edge">
<title>Node10&#45;&gt;Node13</title>
<g id="a_edge12_Node000010_Node000013"><a xlink:title=" ">
<path fill="none" stroke="#63b8ff" d="M309.77,-168.7C318,-171.49 326.31,-174.61 334,-178 350.95,-185.47 352.96,-191.73 370,-199 374.47,-200.91 379.21,-202.68 384,-204.31"/>
<polygon fill="#63b8ff" stroke="#63b8ff" points="383.23,-207.74 393.82,-207.45 385.36,-201.07 383.23,-207.74"/>
</a>
</g>
</g>
<!-- Node15 -->
<g id="Node000015" class="node">
<title>Node15</title>
<g id="a_Node000015"><a xlink:href="bitstream__util_8cpp.html#a6ad7f5421e391ce3552b43f2c387ad59" target="_top" xlink:title=" ">
<polygon fill="white" stroke="#666666" points="488,-152.5 380,-152.5 380,-133.5 488,-133.5 488,-152.5"/>
<text text-anchor="middle" x="434" y="-140.5" font-family="Helvetica,sans-Serif" font-size="10.00">uvg_bitstream_init</text>
</a>
</g>
</g>
<!-- Node10&#45;&gt;Node15 -->
<g id="edge14_Node000010_Node000015" class="edge">
<title>Node10&#45;&gt;Node15</title>
<g id="a_edge14_Node000010_Node000015"><a xlink:title=" ">
<path fill="none" stroke="#63b8ff" d="M309.81,-150.7C328.69,-149.52 350.16,-148.18 369.83,-146.95"/>
<polygon fill="#63b8ff" stroke="#63b8ff" points="370.17,-150.43 379.93,-146.32 369.73,-143.45 370.17,-150.43"/>
</a>
</g>
</g>
<!-- Node16 -->
<g id="Node000016" class="node">
<title>Node16</title>
<g id="a_Node000016"><a xlink:href="bitstream__util_8cpp.html#a0e5e61b87281454f22e12f063c0bbeb6" target="_top" xlink:title=" ">
<polygon fill="white" stroke="#666666" points="488,-189.5 380,-189.5 380,-170.5 488,-170.5 488,-189.5"/>
<text text-anchor="middle" x="434" y="-177.5" font-family="Helvetica,sans-Serif" font-size="10.00">uvg_bitstream_put</text>
</a>
</g>
</g>
<!-- Node10&#45;&gt;Node16 -->
<g id="edge15_Node000010_Node000016" class="edge">
<title>Node10&#45;&gt;Node16</title>
<g id="a_edge15_Node000010_Node000016"><a xlink:title=" ">
<path fill="none" stroke="#63b8ff" d="M309.81,-161.8C328.69,-164.59 350.16,-167.76 369.83,-170.67"/>
<polygon fill="#63b8ff" stroke="#63b8ff" points="369.52,-174.16 379.93,-172.16 370.55,-167.24 369.52,-174.16"/>
</a>
</g>
</g>
<!-- Node18 -->
<g id="Node000018" class="node">
<title>Node18</title>
<g id="a_Node000018"><a xlink:href="bitstream__util_8cpp.html#aa11755e3025221790473c013345959ab" target="_top" xlink:title=" ">
<polygon fill="white" stroke="#666666" points="488,-115.5 380,-115.5 380,-96.5 488,-96.5 488,-115.5"/>
<text text-anchor="middle" x="434" y="-103.5" font-family="Helvetica,sans-Serif" font-size="10.00">uvg_bitstream_tell</text>
</a>
</g>
</g>
<!-- Node10&#45;&gt;Node18 -->
<g id="edge18_Node000010_Node000018" class="edge">
<title>Node10&#45;&gt;Node18</title>
<g id="a_edge18_Node000010_Node000018"><a xlink:title=" ">
<path fill="none" stroke="#63b8ff" d="M309.81,-139.6C334.79,-132.78 364.31,-124.73 388.18,-118.22"/>
<polygon fill="#63b8ff" stroke="#63b8ff" points="389.31,-121.54 398.04,-115.53 387.47,-114.79 389.31,-121.54"/>
</a>
</g>
</g>
<!-- Node12 -->
<g id="Node000012" class="node">
<title>Node12</title>
<g id="a_Node000012"><a xlink:href="bitstream__util_8cpp.html#a7b8aab2d25c86997e6d1462e4cbcd30f" target="_top" xlink:title=" ">
<polygon fill="white" stroke="#666666" points="825,-116 709,-116 709,-86 825,-86 825,-116"/>
<text text-anchor="start" x="717" y="-104" font-family="Helvetica,sans-Serif" font-size="10.00">uvg_bitstream_alloc</text>
<text text-anchor="middle" x="767" y="-93" font-family="Helvetica,sans-Serif" font-size="10.00">_chunk</text>
</a>
</g>
</g>
<!-- Node11&#45;&gt;Node12 -->
<g id="edge11_Node000011_Node000012" class="edge">
<title>Node11&#45;&gt;Node12</title>
<g id="a_edge11_Node000011_Node000012"><a xlink:title=" ">
<path fill="none" stroke="#63b8ff" d="M492.28,-69.58C549.65,-76.16 637.92,-86.3 698.62,-93.26"/>
<polygon fill="#63b8ff" stroke="#63b8ff" points="698.54,-96.78 708.87,-94.44 699.33,-89.82 698.54,-96.78"/>
</a>
</g>
</g>
<!-- Node14 -->
<g id="Node000014" class="node">
<title>Node14</title>
<g id="a_Node000014"><a xlink:href="bitstream__util_8cpp.html#a9f9ae794155176e68c744fa3f2ed57cd" target="_top" xlink:title=" ">
<polygon fill="white" stroke="#666666" points="659.5,-232 547.5,-232 547.5,-202 659.5,-202 659.5,-232"/>
<text text-anchor="start" x="555.5" y="-220" font-family="Helvetica,sans-Serif" font-size="10.00">uvg_bitstream_free</text>
<text text-anchor="middle" x="603.5" y="-209" font-family="Helvetica,sans-Serif" font-size="10.00">_chunks</text>
</a>
</g>
</g>
<!-- Node13&#45;&gt;Node14 -->
<g id="edge13_Node000013_Node000014" class="edge">
<title>Node13&#45;&gt;Node14</title>
<g id="a_edge13_Node000013_Node000014"><a xlink:title=" ">
<path fill="none" stroke="#63b8ff" d="M498.32,-217C511.04,-217 524.43,-217 537.22,-217"/>
<polygon fill="#63b8ff" stroke="#63b8ff" points="537.32,-220.5 547.32,-217 537.32,-213.5 537.32,-220.5"/>
</a>
</g>
</g>
<!-- Node17 -->
<g id="Node000017" class="node">
<title>Node17</title>
<g id="a_Node000017"><a xlink:href="bitstream__util_8cpp.html#a7cf378cfbd682b58c16948ad8935d7bc" target="_top" xlink:title="Write a byte to bitstream.">
<polygon fill="white" stroke="#666666" points="673,-165.5 534,-165.5 534,-146.5 673,-146.5 673,-165.5"/>
<text text-anchor="middle" x="603.5" y="-153.5" font-family="Helvetica,sans-Serif" font-size="10.00">uvg_bitstream_writebyte</text>
</a>
</g>
</g>
<!-- Node16&#45;&gt;Node17 -->
<g id="edge16_Node000016_Node000017" class="edge">
<title>Node16&#45;&gt;Node17</title>
<g id="a_edge16_Node000016_Node000017"><a xlink:title=" ">
<path fill="none" stroke="#63b8ff" d="M488.46,-172.34C500.39,-170.63 513.28,-168.78 525.94,-166.97"/>
<polygon fill="#63b8ff" stroke="#63b8ff" points="526.63,-170.41 536.03,-165.52 525.64,-163.48 526.63,-170.41"/>
</a>
</g>
</g>
<!-- Node17&#45;&gt;Node12 -->
<g id="edge17_Node000017_Node000012" class="edge">
<title>Node17&#45;&gt;Node12</title>
<g id="a_edge17_Node000017_Node000012"><a xlink:title=" ">
<path fill="none" stroke="#63b8ff" d="M632.63,-146.42C654.52,-138.96 685.56,-128.4 712.18,-119.33"/>
<polygon fill="#63b8ff" stroke="#63b8ff" points="713.42,-122.6 721.76,-116.07 711.17,-115.98 713.42,-122.6"/>
</a>
</g>
</g>
<!-- Node19&#45;&gt;Node11 -->
<g id="edge20_Node000019_Node000011" class="edge">
<title>Node19&#45;&gt;Node11</title>
<g id="a_edge20_Node000019_Node000011"><a xlink:title=" ">
<path fill="none" stroke="#63b8ff" d="M309.81,-93.1C327.49,-88.78 347.44,-83.9 366.05,-79.36"/>
<polygon fill="#63b8ff" stroke="#63b8ff" points="367.05,-82.71 375.94,-76.94 365.39,-75.91 367.05,-82.71"/>
</a>
</g>
</g>
<!-- Node19&#45;&gt;Node13 -->
<g id="edge21_Node000019_Node000013" class="edge">
<title>Node19&#45;&gt;Node13</title>
<g id="a_edge21_Node000019_Node000013"><a xlink:title=" ">
<path fill="none" stroke="#63b8ff" d="M309.57,-116.24C318.35,-119.61 326.91,-124.07 334,-130 360.54,-152.18 343.19,-177.14 370,-199 371.59,-200.29 373.26,-201.5 375.01,-202.61"/>
<polygon fill="#63b8ff" stroke="#63b8ff" points="373.72,-205.89 384.19,-207.5 377.01,-199.71 373.72,-205.89"/>
</a>
</g>
</g>
<!-- Node19&#45;&gt;Node15 -->
<g id="edge22_Node000019_Node000015" class="edge">
<title>Node19&#45;&gt;Node15</title>
<g id="a_edge22_Node000019_Node000015"><a xlink:title=" ">
<path fill="none" stroke="#63b8ff" d="M309.81,-117.1C331.22,-121.6 355.97,-126.81 377.64,-131.36"/>
<polygon fill="#63b8ff" stroke="#63b8ff" points="377.17,-134.84 387.67,-133.47 378.61,-127.99 377.17,-134.84"/>
</a>
</g>
</g>
<!-- Node19&#45;&gt;Node16 -->
<g id="edge23_Node000019_Node000016" class="edge">
<title>Node19&#45;&gt;Node16</title>
<g id="a_edge23_Node000019_Node000016"><a xlink:title=" ">
<path fill="none" stroke="#63b8ff" d="M309.62,-119.1C318.03,-122.12 326.44,-125.73 334,-130 352.64,-140.53 351.24,-151.69 370,-162 373.23,-163.78 376.65,-165.39 380.17,-166.86"/>
<polygon fill="#63b8ff" stroke="#63b8ff" points="379.02,-170.16 389.61,-170.4 381.48,-163.61 379.02,-170.16"/>
</a>
</g>
</g>
<!-- Node19&#45;&gt;Node18 -->
<g id="edge25_Node000019_Node000018" class="edge">
<title>Node19&#45;&gt;Node18</title>
<g id="a_edge25_Node000019_Node000018"><a xlink:title=" ">
<path fill="none" stroke="#63b8ff" d="M309.81,-106C328.69,-106 350.16,-106 369.83,-106"/>
<polygon fill="#63b8ff" stroke="#63b8ff" points="369.93,-109.5 379.93,-106 369.93,-102.5 369.93,-109.5"/>
</a>
</g>
</g>
<!-- Node20 -->
<g id="Node000020" class="node">
<title>Node20</title>
<g id="a_Node000020"><a xlink:href="bitstream__util_8cpp.html#ad3c9546517d2a78df0a17d9cd426ac17" target="_top" xlink:title=" ">
<polygon fill="white" stroke="#666666" points="490.5,-30 377.5,-30 377.5,0 490.5,0 490.5,-30"/>
<text text-anchor="start" x="385.5" y="-18" font-family="Helvetica,sans-Serif" font-size="10.00">uvg_bitstream_take</text>
<text text-anchor="middle" x="434" y="-7" font-family="Helvetica,sans-Serif" font-size="10.00">_chunks</text>
</a>
</g>
</g>
<!-- Node19&#45;&gt;Node20 -->
<g id="edge24_Node000019_Node000020" class="edge">
<title>Node19&#45;&gt;Node20</title>
<g id="a_edge24_Node000019_Node000020"><a xlink:title=" ">
<path fill="none" stroke="#63b8ff" d="M309.74,-93.17C318.23,-89.92 326.63,-85.91 334,-81 354.46,-67.36 349.89,-53.15 370,-39 372.09,-37.53 374.29,-36.13 376.56,-34.81"/>
<polygon fill="#63b8ff" stroke="#63b8ff" points="378.35,-37.82 385.57,-30.07 375.09,-31.62 378.35,-37.82"/>
</a>
</g>
</g>
</g>
</svg>

<g id="navigator" transform="translate(0 0)" fill="#404254">
  <rect fill="#f2f5e9" fill-opacity="0.5" stroke="#606060" stroke-width=".5" x="0" y="0" width="60" height="60"/>
  <use id="zoomplus" xlink:href="#zoomPlus" x="17" y="9" onmousedown="handleZoom(evt,'in')"/>
  <use id="zoomminus" xlink:href="#zoomMin" x="42" y="9" onmousedown="handleZoom(evt,'out')"/>
  <use id="reset" xlink:href="#resetDef" x="30" y="36" onmousedown="handleReset()"/>
   <use id="arrowup" xlink:href="#arrowUp" x="0" y="0" onmousedown="handlePan(0,-1)"/>
  <use id="arrowright" xlink:href="#arrowRight" x="0" y="0" onmousedown="handlePan(1,0)"/>
  <use id="arrowdown" xlink:href="#arrowDown" x="0" y="0" onmousedown="handlePan(0,1)"/>
  <use id="arrowleft" xlink:href="#arrowLeft" x="0" y="0" onmousedown="handlePan(-1,0)"/>
</g>
<svg viewBox="0 0 15 15" width="100%" height="30px" preserveAspectRatio="xMaxYMin meet">
 <g id="arrow_out" transform="scale(0.3 0.3)">
  <a xlink:href="classBitstreamGeneration_a575d20f0f40bad111cab04d0b4f259ee_cgraph_org.svg" target="_base">
   <rect id="button" ry="5" rx="5" y="6" x="6" height="38" width="38"
        fill="#f2f5e9" fill-opacity="0.5" stroke="#606060" stroke-width="1.0"/>
   <path id="arrow"
     d="M 11.500037,31.436501 C 11.940474,20.09759 22.043105,11.32322 32.158766,21.979434 L 37.068811,17.246167 C 37.068811,17.246167 37.088388,32 37.088388,32 L 22.160133,31.978069 C 22.160133,31.978069 26.997745,27.140456 26.997745,27.140456 C 18.528582,18.264221 13.291696,25.230495 11.500037,31.436501 z"
     style="fill:#404040;"/>
  </a>
 </g>
</svg>

<style type='text/css'>
<![CDATA[
[data-mouse-over-selected='false'] { opacity: 0.7; }
[data-mouse-over-selected='true']  { opacity: 1.0; }
]]>
</style>
<script type="application/ecmascript"><![CDATA[
document.addEventListener('DOMContentLoaded', (event) => {
  highlightEdges();
  highlightAdjacentNodes();
});
]]></script>
</svg>
