<?xml version="1.0" encoding="UTF-8" standalone="no"?>
<!DOCTYPE svg PUBLIC "-//W3C//DTD SVG 1.1//EN"
 "http://www.w3.org/Graphics/SVG/1.1/DTD/svg11.dtd">
<!-- Generated by graphviz version 2.43.0 (0)
 -->
<!-- Title: uvgutils::Logger::log Pages: 1 -->
<svg width="300pt" height="86pt"
 viewBox="0.00 0.00 300.00 86.00" xmlns="http://www.w3.org/2000/svg" xmlns:xlink="http://www.w3.org/1999/xlink">
<g id="graph0" class="graph" transform="scale(1 1) rotate(0) translate(4 82)">
<title>uvgutils::Logger::log</title>
<!-- Node1 -->
<g id="Node000001" class="node">
<title>Node1</title>
<g id="a_Node000001"><a xlink:title=" ">
<polygon fill="#999999" stroke="#666666" points="116,-48.5 0,-48.5 0,-29.5 116,-29.5 116,-48.5"/>
<text text-anchor="middle" x="58" y="-36.5" font-family="Helvetica,sans-Serif" font-size="10.00">uvgutils::Logger::log</text>
</a>
</g>
</g>
<!-- Node2 -->
<g id="Node000002" class="node">
<title>Node2</title>
<g id="a_Node000002"><a xlink:href="classuvgutils_1_1Logger.html#a658d3473541fdbdceb103c03d3983c3c" target="_top" xlink:title=" ">
<polygon fill="white" stroke="#666666" points="289,-78 155,-78 155,-48 289,-48 289,-78"/>
<text text-anchor="start" x="163" y="-66" font-family="Helvetica,sans-Serif" font-size="10.00">uvgutils::Logger::getLog</text>
<text text-anchor="middle" x="222" y="-55" font-family="Helvetica,sans-Serif" font-size="10.00">Level</text>
</a>
</g>
</g>
<!-- Node1&#45;&gt;Node2 -->
<g id="edge1_Node000001_Node000002" class="edge">
<title>Node1&#45;&gt;Node2</title>
<g id="a_edge1_Node000001_Node000002"><a xlink:title=" ">
<path fill="none" stroke="#63b8ff" d="M116.12,-47.46C125.45,-48.84 135.24,-50.29 144.94,-51.73"/>
<polygon fill="#63b8ff" stroke="#63b8ff" points="144.58,-55.22 154.99,-53.22 145.61,-48.29 144.58,-55.22"/>
</a>
</g>
</g>
<!-- Node3 -->
<g id="Node000003" class="node">
<title>Node3</title>
<g id="a_Node000003"><a xlink:href="classuvgutils_1_1Logger.html#a074599c14c09f7f74ff2d9f9654cd8a1" target="_top" xlink:title=" ">
<polygon fill="white" stroke="#666666" points="292,-30 152,-30 152,0 292,0 292,-30"/>
<text text-anchor="start" x="160" y="-18" font-family="Helvetica,sans-Serif" font-size="10.00">uvgutils::Logger::printLog</text>
<text text-anchor="middle" x="222" y="-7" font-family="Helvetica,sans-Serif" font-size="10.00">Message</text>
</a>
</g>
</g>
<!-- Node1&#45;&gt;Node3 -->
<g id="edge2_Node000001_Node000003" class="edge">
<title>Node1&#45;&gt;Node3</title>
<g id="a_edge2_Node000001_Node000003"><a xlink:title=" ">
<path fill="none" stroke="#63b8ff" d="M116.12,-30.54C124.43,-29.31 133.11,-28.02 141.77,-26.74"/>
<polygon fill="#63b8ff" stroke="#63b8ff" points="142.52,-30.17 151.9,-25.24 141.49,-23.24 142.52,-30.17"/>
</a>
</g>
</g>
</g>
</svg>
