<?xml version="1.0" encoding="UTF-8" standalone="no"?>
<!DOCTYPE svg PUBLIC "-//W3C//DTD SVG 1.1//EN"
 "http://www.w3.org/Graphics/SVG/1.1/DTD/svg11.dtd">
<!-- Generated by graphviz version 2.43.0 (0)
 -->
<!-- Title: uvgvpcc_enc::ThreadQueue Pages: 1 -->
<svg width="153pt" height="147pt"
 viewBox="0.00 0.00 153.00 147.00" xmlns="http://www.w3.org/2000/svg" xmlns:xlink="http://www.w3.org/1999/xlink">
<g id="graph0" class="graph" transform="scale(1 1) rotate(0) translate(4 143)">
<title>uvgvpcc_enc::ThreadQueue</title>
<!-- Node1 -->
<g id="Node000001" class="node">
<title>Node1</title>
<g id="a_Node000001"><a xlink:title=" ">
<polygon fill="#999999" stroke="transparent" points="145,-139 0,-139 0,0 145,0 145,-139"/>
<text text-anchor="start" x="5.5" y="-126.5" font-family="Helvetica,sans-Serif" font-size="10.00">uvgvpcc_enc::ThreadQueue</text>
<text text-anchor="start" x="71" y="-111.5" font-family="Helvetica,sans-Serif" font-size="10.00"> </text>
<text text-anchor="start" x="13" y="-96.5" font-family="Helvetica,sans-Serif" font-size="10.00">+</text>
<text text-anchor="start" x="34.5" y="-96.5" font-family="Helvetica,sans-Serif" font-size="10.00">ThreadQueue()</text>
<text text-anchor="start" x="13" y="-81.5" font-family="Helvetica,sans-Serif" font-size="10.00">+</text>
<text text-anchor="start" x="34.5" y="-81.5" font-family="Helvetica,sans-Serif" font-size="10.00">initThreadQueue()</text>
<text text-anchor="start" x="13" y="-66.5" font-family="Helvetica,sans-Serif" font-size="10.00">+</text>
<text text-anchor="start" x="34.5" y="-66.5" font-family="Helvetica,sans-Serif" font-size="10.00">~ThreadQueue()</text>
<text text-anchor="start" x="13" y="-51.5" font-family="Helvetica,sans-Serif" font-size="10.00">+</text>
<text text-anchor="start" x="34.5" y="-51.5" font-family="Helvetica,sans-Serif" font-size="10.00">submitJob()</text>
<text text-anchor="start" x="13" y="-36.5" font-family="Helvetica,sans-Serif" font-size="10.00">+</text>
<text text-anchor="start" x="34.5" y="-36.5" font-family="Helvetica,sans-Serif" font-size="10.00">pushJob()</text>
<text text-anchor="start" x="13" y="-21.5" font-family="Helvetica,sans-Serif" font-size="10.00">+</text>
<text text-anchor="start" x="34.5" y="-21.5" font-family="Helvetica,sans-Serif" font-size="10.00">stop()</text>
<text text-anchor="start" x="13" y="-6.5" font-family="Helvetica,sans-Serif" font-size="10.00">+</text>
<text text-anchor="start" x="34.5" y="-6.5" font-family="Helvetica,sans-Serif" font-size="10.00">waitForJob()</text>
<polygon fill="#666666" stroke="#666666" points="0.5,-121.5 0.5,-121.5 145.5,-121.5 145.5,-121.5 0.5,-121.5"/>
<polygon fill="#666666" stroke="#666666" points="0.5,-106.5 0.5,-106.5 145.5,-106.5 145.5,-106.5 0.5,-106.5"/>
<polygon fill="none" stroke="#666666" points="0,0 0,-139 145,-139 145,0 0,0"/>
</a>
</g>
</g>
</g>
</svg>
