<?xml version="1.0" encoding="UTF-8" standalone="no"?>
<!DOCTYPE svg PUBLIC "-//W3C//DTD SVG 1.1//EN"
 "http://www.w3.org/Graphics/SVG/1.1/DTD/svg11.dtd">
<!-- Generated by graphviz version 2.43.0 (0)
 -->
<!-- Title: EncoderKvazaar Pages: 1 -->
<svg width="159pt" height="202pt"
 viewBox="0.00 0.00 159.00 202.00" xmlns="http://www.w3.org/2000/svg" xmlns:xlink="http://www.w3.org/1999/xlink">

<svg id="main" version="1.1" xmlns="http://www.w3.org/2000/svg" xmlns:xlink="http://www.w3.org/1999/xlink" xml:space="preserve" onload="init(evt)">
<style type="text/css"><![CDATA[
.node, .edge {opacity: 0.7;}
.node.selected, .edge.selected {opacity: 1;}
.edge:hover path { stroke: red; }
.edge:hover polygon { stroke: red; fill: red; }
]]></style>
<script type="application/ecmascript" xlink:href="svg.min.js"/>
<svg id="graph" class="graph">
<g id="graph0" class="graph" transform="scale(1 1) rotate(0) translate(4 198)">
<title>EncoderKvazaar</title>
<!-- Node1 -->
<g id="Node000001" class="node">
<title>Node1</title>
<g id="a_Node000001"><a xlink:title=" ">
<polygon fill="#999999" stroke="transparent" points="140.5,-79 10.5,-79 10.5,0 140.5,0 140.5,-79"/>
<text text-anchor="start" x="36" y="-66.5" font-family="Helvetica,sans-Serif" font-size="10.00">EncoderKvazaar</text>
<text text-anchor="start" x="73.5" y="-51.5" font-family="Helvetica,sans-Serif" font-size="10.00"> </text>
<text text-anchor="start" x="14.5" y="-36.5" font-family="Helvetica,sans-Serif" font-size="10.00">+</text>
<text text-anchor="start" x="27.5" y="-36.5" font-family="Helvetica,sans-Serif" font-size="10.00">EncoderKvazaar()</text>
<text text-anchor="start" x="14.5" y="-21.5" font-family="Helvetica,sans-Serif" font-size="10.00">+</text>
<text text-anchor="start" x="27.5" y="-21.5" font-family="Helvetica,sans-Serif" font-size="10.00">encodeGOFMaps()</text>
<text text-anchor="start" x="14.5" y="-6.5" font-family="Helvetica,sans-Serif" font-size="10.00">+</text>
<text text-anchor="start" x="27.5" y="-6.5" font-family="Helvetica,sans-Serif" font-size="10.00">initializeLogCallback()</text>
<polygon fill="#666666" stroke="#666666" points="10.5,-61.5 10.5,-61.5 140.5,-61.5 140.5,-61.5 10.5,-61.5"/>
<polygon fill="#666666" stroke="#666666" points="10.5,-46.5 10.5,-46.5 140.5,-46.5 140.5,-46.5 10.5,-46.5"/>
<polygon fill="none" stroke="#666666" points="10.5,0 10.5,-79 140.5,-79 140.5,0 10.5,0"/>
</a>
</g>
</g>
<!-- Node2 -->
<g id="Node000002" class="node">
<title>Node2</title>
<g id="a_Node000002"><a xlink:href="classAbstract2DMapEncoder.html" target="_top" xlink:title=" ">
<polygon fill="white" stroke="transparent" points="151,-194 0,-194 0,-115 151,-115 151,-194"/>
<text text-anchor="start" x="18.5" y="-181.5" font-family="Helvetica,sans-Serif" font-size="10.00">Abstract2DMapEncoder</text>
<text text-anchor="start" x="4.5" y="-166.5" font-family="Helvetica,sans-Serif" font-size="10.00">#</text>
<text text-anchor="start" x="17.5" y="-166.5" font-family="Helvetica,sans-Serif" font-size="10.00">encoderType_</text>
<text text-anchor="start" x="4.5" y="-151.5" font-family="Helvetica,sans-Serif" font-size="10.00">+</text>
<text text-anchor="start" x="17.5" y="-151.5" font-family="Helvetica,sans-Serif" font-size="10.00">Abstract2DMapEncoder()</text>
<text text-anchor="start" x="4.5" y="-136.5" font-family="Helvetica,sans-Serif" font-size="10.00">+</text>
<text text-anchor="start" x="17.5" y="-136.5" font-family="Helvetica,sans-Serif" font-size="10.00">~Abstract2DMapEncoder()</text>
<text text-anchor="start" x="4.5" y="-121.5" font-family="Helvetica,sans-Serif" font-size="10.00">+</text>
<text text-anchor="start" x="17.5" y="-121.5" font-family="Helvetica,sans-Serif" font-size="10.00">encodeGOFMaps()</text>
<polygon fill="#666666" stroke="#666666" points="0.5,-176.5 0.5,-176.5 151.5,-176.5 151.5,-176.5 0.5,-176.5"/>
<polygon fill="#666666" stroke="#666666" points="0.5,-161.5 0.5,-161.5 15.5,-161.5 15.5,-161.5 0.5,-161.5"/>
<polygon fill="#666666" stroke="#666666" points="15.5,-161.5 15.5,-161.5 151.5,-161.5 151.5,-161.5 15.5,-161.5"/>
<polygon fill="none" stroke="#666666" points="0,-115 0,-194 151,-194 151,-115 0,-115"/>
</a>
</g>
</g>
<!-- Node2&#45;&gt;Node1 -->
<g id="edge1_Node000001_Node000002" class="edge">
<title>Node2&#45;&gt;Node1</title>
<g id="a_edge1_Node000001_Node000002"><a xlink:title=" ">
<path fill="none" stroke="#63b8ff" d="M75.5,-104.72C75.5,-96.22 75.5,-87.47 75.5,-79.28"/>
<polygon fill="none" stroke="#63b8ff" points="72,-104.93 75.5,-114.93 79,-104.93 72,-104.93"/>
</a>
</g>
</g>
</g>
</svg>
</svg>

<style type='text/css'>
<![CDATA[
[data-mouse-over-selected='false'] { opacity: 0.7; }
[data-mouse-over-selected='true']  { opacity: 1.0; }
]]>
</style>
<script type="application/ecmascript"><![CDATA[
document.addEventListener('DOMContentLoaded', (event) => {
  highlightEdges();
  highlightAdjacentNodes();
});
]]></script>
</svg>
