<?xml version="1.0" encoding="UTF-8" standalone="no"?>
<!DOCTYPE svg PUBLIC "-//W3C//DTD SVG 1.1//EN"
 "http://www.w3.org/Graphics/SVG/1.1/DTD/svg11.dtd">
<!-- Generated by graphviz version 2.43.0 (0)
 -->
<!-- Title: PPISegmenter_NewRS::refineSegmentation_NewRS Pages: 1 -->
<svg width="493pt" height="124pt"
 viewBox="0.00 0.00 493.00 124.00" xmlns="http://www.w3.org/2000/svg" xmlns:xlink="http://www.w3.org/1999/xlink">

<svg id="main" version="1.1" xmlns="http://www.w3.org/2000/svg" xmlns:xlink="http://www.w3.org/1999/xlink" xml:space="preserve" onload="init(evt)">
<style type="text/css"><![CDATA[
.node, .edge {opacity: 0.7;}
.node.selected, .edge.selected {opacity: 1;}
.edge:hover path { stroke: red; }
.edge:hover polygon { stroke: red; fill: red; }
]]></style>
<script type="application/ecmascript" xlink:href="svg.min.js"/>
<svg id="graph" class="graph">
<g id="graph0" class="graph" transform="scale(1 1) rotate(0) translate(4 120)">
<title>PPISegmenter_NewRS::refineSegmentation_NewRS</title>
<!-- Node1 -->
<g id="Node000001" class="node">
<title>Node1</title>
<g id="a_Node000001"><a xlink:title=" ">
<polygon fill="#999999" stroke="#666666" points="158,-73 0,-73 0,-43 158,-43 158,-73"/>
<text text-anchor="start" x="8" y="-61" font-family="Helvetica,sans-Serif" font-size="10.00">PPISegmenter_NewRS</text>
<text text-anchor="middle" x="79" y="-50" font-family="Helvetica,sans-Serif" font-size="10.00">::refineSegmentation_NewRS</text>
</a>
</g>
</g>
<!-- Node2 -->
<g id="Node000002" class="node">
<title>Node2</title>
<g id="a_Node000002"><a xlink:href="classrobin__hood_1_1detail_1_1Table.html#afb214db6f1196694807c182a1ae4d9ba" target="_top" xlink:title=" ">
<polygon fill="white" stroke="#666666" points="323.5,-116 219.5,-116 219.5,-86 323.5,-86 323.5,-116"/>
<text text-anchor="start" x="227.5" y="-104" font-family="Helvetica,sans-Serif" font-size="10.00">robin_hood::detail</text>
<text text-anchor="middle" x="271.5" y="-93" font-family="Helvetica,sans-Serif" font-size="10.00">::Table::at</text>
</a>
</g>
</g>
<!-- Node1&#45;&gt;Node2 -->
<g id="edge1_Node000001_Node000002" class="edge">
<title>Node1&#45;&gt;Node2</title>
<g id="a_edge1_Node000001_Node000002"><a xlink:title=" ">
<path fill="none" stroke="#63b8ff" d="M146.63,-73.04C167,-77.64 189.31,-82.67 209.3,-87.19"/>
<polygon fill="#63b8ff" stroke="#63b8ff" points="208.7,-90.64 219.22,-89.43 210.24,-83.81 208.7,-90.64"/>
</a>
</g>
</g>
<!-- Node3 -->
<g id="Node000003" class="node">
<title>Node3</title>
<g id="a_Node000003"><a xlink:href="classStatsCollector.html#ab1a99cc3ba798bf5d01e16156d8afe41" target="_top" xlink:title=" ">
<polygon fill="white" stroke="#666666" points="344.5,-67.5 198.5,-67.5 198.5,-48.5 344.5,-48.5 344.5,-67.5"/>
<text text-anchor="middle" x="271.5" y="-55.5" font-family="Helvetica,sans-Serif" font-size="10.00">StatsCollector::collectData</text>
</a>
</g>
</g>
<!-- Node1&#45;&gt;Node3 -->
<g id="edge2_Node000001_Node000003" class="edge">
<title>Node1&#45;&gt;Node3</title>
<g id="a_edge2_Node000001_Node000003"><a xlink:title=" ">
<path fill="none" stroke="#63b8ff" d="M158.03,-58C167.95,-58 178.12,-58 188.1,-58"/>
<polygon fill="#63b8ff" stroke="#63b8ff" points="188.41,-61.5 198.41,-58 188.41,-54.5 188.41,-61.5"/>
</a>
</g>
</g>
<!-- Node4 -->
<g id="Node000004" class="node">
<title>Node4</title>
<g id="a_Node000004"><a xlink:href="namespaceFileExport.html#a0a4a47addb40f5b7f846592a92895c90" target="_top" xlink:title=" ">
<polygon fill="white" stroke="#666666" points="349,-30 194,-30 194,0 349,0 349,-30"/>
<text text-anchor="start" x="202" y="-18" font-family="Helvetica,sans-Serif" font-size="10.00">FileExport::exportPointCloud</text>
<text text-anchor="middle" x="271.5" y="-7" font-family="Helvetica,sans-Serif" font-size="10.00">RefineSegmentation</text>
</a>
</g>
</g>
<!-- Node1&#45;&gt;Node4 -->
<g id="edge3_Node000001_Node000004" class="edge">
<title>Node1&#45;&gt;Node4</title>
<g id="a_edge3_Node000001_Node000004"><a xlink:title=" ">
<path fill="none" stroke="#63b8ff" d="M146.63,-42.96C161.85,-39.52 178.16,-35.84 193.77,-32.32"/>
<polygon fill="#63b8ff" stroke="#63b8ff" points="194.93,-35.65 203.91,-30.03 193.38,-28.82 194.93,-35.65"/>
</a>
</g>
</g>
<!-- Node5 -->
<g id="Node000005" class="node">
<title>Node5</title>
<g id="a_Node000005"><a xlink:href="namespaceuvgutils.html#a0abc693a4c9342061a1247ee333c53eb" target="_top" xlink:title=" ">
<polygon fill="white" stroke="#666666" points="485,-24.5 385,-24.5 385,-5.5 485,-5.5 485,-24.5"/>
<text text-anchor="middle" x="435" y="-12.5" font-family="Helvetica,sans-Serif" font-size="10.00">uvgutils::zeroPad</text>
</a>
</g>
</g>
<!-- Node4&#45;&gt;Node5 -->
<g id="edge4_Node000004_Node000005" class="edge">
<title>Node4&#45;&gt;Node5</title>
<g id="a_edge4_Node000004_Node000005"><a xlink:title=" ">
<path fill="none" stroke="#63b8ff" d="M349.47,-15C357.92,-15 366.43,-15 374.62,-15"/>
<polygon fill="#63b8ff" stroke="#63b8ff" points="374.8,-18.5 384.8,-15 374.8,-11.5 374.8,-18.5"/>
</a>
</g>
</g>
</g>
</svg>
</svg>

<style type='text/css'>
<![CDATA[
[data-mouse-over-selected='false'] { opacity: 0.7; }
[data-mouse-over-selected='true']  { opacity: 1.0; }
]]>
</style>
<script type="application/ecmascript"><![CDATA[
document.addEventListener('DOMContentLoaded', (event) => {
  highlightEdges();
  highlightAdjacentNodes();
});
]]></script>
</svg>
