<?xml version="1.0" encoding="UTF-8" standalone="no"?>
<!DOCTYPE svg PUBLIC "-//W3C//DTD SVG 1.1//EN"
 "http://www.w3.org/Graphics/SVG/1.1/DTD/svg11.dtd">
<!-- Generated by graphviz version 2.43.0 (0)
 -->
<!-- Title: PatchSegmentation::patchSegmentation Pages: 1 -->
<!--zoomable 564 -->

<svg id="main" version="1.1" xmlns="http://www.w3.org/2000/svg" xmlns:xlink="http://www.w3.org/1999/xlink" xml:space="preserve" onload="init(evt)">
<style type="text/css"><![CDATA[
.node, .edge {opacity: 0.7;}
.node.selected, .edge.selected {opacity: 1;}
.edge:hover path { stroke: red; }
.edge:hover polygon { stroke: red; fill: red; }
]]></style>

<defs>
  <circle id="rim" cx="0" cy="0" r="7"/>
  <circle id="rim2" cx="0" cy="0" r="3.5"/>
  <g id="zoomPlus">
    <use xlink:href="#rim" fill="#404040"><set attributeName="fill" to="#808080" begin="zoomplus.mouseover" end="zoomplus.mouseout"/></use>
    <path d="M-4,0h8M0,-4v8" fill="none" stroke="white" stroke-width="1.5" pointer-events="none"/>
  </g>
  <g id="zoomMin">
    <use xlink:href="#rim" fill="#404040"><set attributeName="fill" to="#808080" begin="zoomminus.mouseover" end="zoomminus.mouseout"/></use>
    <path d="M-4,0h8" fill="none" stroke="white" stroke-width="1.5" pointer-events="none"/>
  </g>
  <g id="arrowUp" transform="translate(30 24)">
    <use xlink:href="#rim"/>
    <path pointer-events="none" fill="none" stroke="white" stroke-width="1.5" d="M0,-3.0v7 M-2.5,-0.5L0,-3.0L2.5,-0.5"/>
  </g>
  <g id="arrowRight" transform="rotate(90) translate(36 -43)">
    <use xlink:href="#rim"/>
    <path pointer-events="none" fill="none" stroke="white" stroke-width="1.5" d="M0,-3.0v7 M-2.5,-0.5L0,-3.0L2.5,-0.5"/>
  </g>
  <g id="arrowDown" transform="rotate(180) translate(-30 -48)">
    <use xlink:href="#rim"/>
    <path pointer-events="none" fill="none" stroke="white" stroke-width="1.5" d="M0,-3.0v7 M-2.5,-0.5L0,-3.0L2.5,-0.5"/>
  </g>
  <g id="arrowLeft" transform="rotate(270) translate(-36 17)">
    <use xlink:href="#rim"/>
    <path pointer-events="none" fill="none" stroke="white" stroke-width="1.5" d="M0,-3.0v7 M-2.5,-0.5L0,-3.0L2.5,-0.5"/>
  </g>
  <g id="resetDef">
    <use xlink:href="#rim2" fill="#404040"><set attributeName="fill" to="#808080" begin="reset.mouseover" end="reset.mouseout"/></use>
  </g>
</defs>
<script type="application/ecmascript">
var viewWidth = 671;
var viewHeight = 564;
var sectionId = 'dynsection-9';
</script>
<script type="application/ecmascript" xlink:href="svg.min.js"/>
<svg id="graph" class="graph">
<g id="viewport">
<title>PatchSegmentation::patchSegmentation</title>
<!-- Node1 -->
<g id="Node000001" class="node">
<title>Node1</title>
<g id="a_Node000001"><a xlink:title=" ">
<polygon fill="#999999" stroke="#666666" points="117,-297.5 0,-297.5 0,-267.5 117,-267.5 117,-297.5"/>
<text text-anchor="start" x="8" y="-285.5" font-family="Helvetica,sans-Serif" font-size="10.00">PatchSegmentation::</text>
<text text-anchor="middle" x="58.5" y="-274.5" font-family="Helvetica,sans-Serif" font-size="10.00">patchSegmentation</text>
</a>
</g>
</g>
<!-- Node2 -->
<g id="Node000002" class="node">
<title>Node2</title>
<g id="a_Node000002"><a xlink:href="classPatchSegmentation.html#a5d31ba00ed822bdc118aba7b671d91fd" target="_top" xlink:title=" ">
<polygon fill="white" stroke="#666666" points="310.5,-555.5 156.5,-555.5 156.5,-525.5 310.5,-525.5 310.5,-555.5"/>
<text text-anchor="start" x="164.5" y="-543.5" font-family="Helvetica,sans-Serif" font-size="10.00">PatchSegmentation::</text>
<text text-anchor="middle" x="233.5" y="-532.5" font-family="Helvetica,sans-Serif" font-size="10.00">computeAdditionalPatchInfo</text>
</a>
</g>
</g>
<!-- Node1&#45;&gt;Node2 -->
<g id="edge1_Node000001_Node000002" class="edge">
<title>Node1&#45;&gt;Node2</title>
<g id="a_edge1_Node000001_Node000002"><a xlink:title=" ">
<path fill="none" stroke="#63b8ff" d="M61.43,-297.68C67.35,-338.17 88.97,-449.84 153,-511.5 156.46,-514.83 160.32,-517.78 164.44,-520.39"/>
<polygon fill="#63b8ff" stroke="#63b8ff" points="162.76,-523.46 173.2,-525.31 166.19,-517.36 162.76,-523.46"/>
</a>
</g>
</g>
<!-- Node3 -->
<g id="Node000003" class="node">
<title>Node3</title>
<g id="a_Node000003"><a xlink:href="classPatchSegmentation.html#aa3b3fcb12079a71ee833e203847d78a3" target="_top" xlink:title=" ">
<polygon fill="white" stroke="#666666" points="500,-464.5 350,-464.5 350,-434.5 500,-434.5 500,-464.5"/>
<text text-anchor="start" x="358" y="-452.5" font-family="Helvetica,sans-Serif" font-size="10.00">PatchSegmentation::</text>
<text text-anchor="middle" x="425" y="-441.5" font-family="Helvetica,sans-Serif" font-size="10.00">computePatchBoundingBox</text>
</a>
</g>
</g>
<!-- Node1&#45;&gt;Node3 -->
<g id="edge2_Node000001_Node000003" class="edge">
<title>Node1&#45;&gt;Node3</title>
<g id="a_edge2_Node000001_Node000003"><a xlink:title=" ">
<path fill="none" stroke="#63b8ff" d="M63.23,-297.7C72.2,-330.63 98.43,-408.17 153,-440.5 210.6,-474.62 287.83,-473.61 345.11,-465.97"/>
<polygon fill="#63b8ff" stroke="#63b8ff" points="345.8,-469.41 355.2,-464.53 344.81,-462.48 345.8,-469.41"/>
</a>
</g>
</g>
<!-- Node5 -->
<g id="Node000005" class="node">
<title>Node5</title>
<g id="a_Node000005"><a xlink:href="classPatchSegmentation.html#a3cdab98e5e9f30842b38ea848c160aa2" target="_top" xlink:title=" ">
<polygon fill="white" stroke="#666666" points="488,-512.5 362,-512.5 362,-482.5 488,-482.5 488,-512.5"/>
<text text-anchor="start" x="370" y="-500.5" font-family="Helvetica,sans-Serif" font-size="10.00">PatchSegmentation::</text>
<text text-anchor="middle" x="425" y="-489.5" font-family="Helvetica,sans-Serif" font-size="10.00">computePatchDepthL1</text>
</a>
</g>
</g>
<!-- Node1&#45;&gt;Node5 -->
<g id="edge4_Node000001_Node000005" class="edge">
<title>Node1&#45;&gt;Node5</title>
<g id="a_edge4_Node000001_Node000005"><a xlink:title=" ">
<path fill="none" stroke="#63b8ff" d="M62.11,-297.74C69.23,-334.24 92.69,-426.72 153,-468.5 210.79,-508.53 292.79,-511.86 351.42,-507.61"/>
<polygon fill="#63b8ff" stroke="#63b8ff" points="352.04,-511.07 361.72,-506.77 351.47,-504.1 352.04,-511.07"/>
</a>
</g>
</g>
<!-- Node6 -->
<g id="Node000006" class="node">
<title>Node6</title>
<g id="a_Node000006"><a xlink:href="classPatchSegmentation.html#a006a62e16aa564064c4350dfd05e6cdc" target="_top" xlink:title=" ">
<polygon fill="white" stroke="#666666" points="296.5,-431.5 170.5,-431.5 170.5,-401.5 296.5,-401.5 296.5,-431.5"/>
<text text-anchor="start" x="178.5" y="-419.5" font-family="Helvetica,sans-Serif" font-size="10.00">PatchSegmentation::</text>
<text text-anchor="middle" x="233.5" y="-408.5" font-family="Helvetica,sans-Serif" font-size="10.00">computePatchDepthL2</text>
</a>
</g>
</g>
<!-- Node1&#45;&gt;Node6 -->
<g id="edge6_Node000001_Node000006" class="edge">
<title>Node1&#45;&gt;Node6</title>
<g id="a_edge6_Node000001_Node000006"><a xlink:title=" ">
<path fill="none" stroke="#63b8ff" d="M68.37,-297.71C83,-321.46 114.42,-367.24 153,-392.5 155.57,-394.18 158.26,-395.75 161.04,-397.22"/>
<polygon fill="#63b8ff" stroke="#63b8ff" points="159.62,-400.41 170.16,-401.53 162.62,-394.09 159.62,-400.41"/>
</a>
</g>
</g>
<!-- Node7 -->
<g id="Node000007" class="node">
<title>Node7</title>
<g id="a_Node000007"><a xlink:href="classPatchSegmentation.html#a42c82263428478e3544e38c4615b1501" target="_top" xlink:title=" ">
<polygon fill="white" stroke="#666666" points="314,-383.5 153,-383.5 153,-353.5 314,-353.5 314,-383.5"/>
<text text-anchor="start" x="161" y="-371.5" font-family="Helvetica,sans-Serif" font-size="10.00">PatchSegmentation::</text>
<text text-anchor="middle" x="233.5" y="-360.5" font-family="Helvetica,sans-Serif" font-size="10.00">createConnectedComponents</text>
</a>
</g>
</g>
<!-- Node1&#45;&gt;Node7 -->
<g id="edge7_Node000001_Node000007" class="edge">
<title>Node1&#45;&gt;Node7</title>
<g id="a_edge7_Node000001_Node000007"><a xlink:title=" ">
<path fill="none" stroke="#63b8ff" d="M78.57,-297.57C96.8,-311.38 125.5,-331.58 153,-344.5 157.07,-346.41 161.34,-348.22 165.68,-349.91"/>
<polygon fill="#63b8ff" stroke="#63b8ff" points="164.69,-353.28 175.28,-353.44 167.1,-346.7 164.69,-353.28"/>
</a>
</g>
</g>
<!-- Node8 -->
<g id="Node000008" class="node">
<title>Node8</title>
<g id="a_Node000008"><a xlink:href="utilsPatchGeneration_8hpp.html#a7e03bd9f637d6875e048306bf9f014a2" target="_top" xlink:title=" ">
<polygon fill="white" stroke="#666666" points="284,-335 183,-335 183,-316 284,-316 284,-335"/>
<text text-anchor="middle" x="233.5" y="-323" font-family="Helvetica,sans-Serif" font-size="10.00">exportPointCloud</text>
</a>
</g>
</g>
<!-- Node1&#45;&gt;Node8 -->
<g id="edge8_Node000001_Node000008" class="edge">
<title>Node1&#45;&gt;Node8</title>
<g id="a_edge8_Node000001_Node000008"><a xlink:title=" ">
<path fill="none" stroke="#63b8ff" d="M117.32,-297.5C129.12,-300.52 141.45,-303.64 153,-306.5 162.41,-308.83 172.45,-311.27 182.12,-313.59"/>
<polygon fill="#63b8ff" stroke="#63b8ff" points="181.48,-317.04 192.02,-315.96 183.11,-310.23 181.48,-317.04"/>
</a>
</g>
</g>
<!-- Node9 -->
<g id="Node000009" class="node">
<title>Node9</title>
<g id="a_Node000009"><a xlink:href="classPatchSegmentation.html#a273639e3bb44b17761c34223b1f7269d" target="_top" xlink:title=" ">
<polygon fill="white" stroke="#666666" points="292,-297.5 175,-297.5 175,-267.5 292,-267.5 292,-297.5"/>
<text text-anchor="start" x="183" y="-285.5" font-family="Helvetica,sans-Serif" font-size="10.00">PatchSegmentation::</text>
<text text-anchor="middle" x="233.5" y="-274.5" font-family="Helvetica,sans-Serif" font-size="10.00">filterDepth</text>
</a>
</g>
</g>
<!-- Node1&#45;&gt;Node9 -->
<g id="edge9_Node000001_Node000009" class="edge">
<title>Node1&#45;&gt;Node9</title>
<g id="a_edge9_Node000001_Node000009"><a xlink:title=" ">
<path fill="none" stroke="#63b8ff" d="M117.11,-282.5C132.35,-282.5 148.94,-282.5 164.66,-282.5"/>
<polygon fill="#63b8ff" stroke="#63b8ff" points="164.85,-286 174.85,-282.5 164.85,-279 164.85,-286"/>
</a>
</g>
</g>
<!-- Node10 -->
<g id="Node000010" class="node">
<title>Node10</title>
<g id="a_Node000010"><a xlink:href="classuvgvpcc__enc_1_1Logger.html#af125e72496c52fe57a8aafaadc445ac2" target="_top" xlink:title=" ">
<polygon fill="white" stroke="#666666" points="495,-222 355,-222 355,-203 495,-203 495,-222"/>
<text text-anchor="middle" x="425" y="-210" font-family="Helvetica,sans-Serif" font-size="10.00">uvgvpcc_enc::Logger::log</text>
</a>
</g>
</g>
<!-- Node1&#45;&gt;Node10 -->
<g id="edge10_Node000001_Node000010" class="edge">
<title>Node1&#45;&gt;Node10</title>
<g id="a_edge10_Node000001_Node000010"><a xlink:title=" ">
<path fill="none" stroke="#63b8ff" d="M72.9,-267.38C89.62,-249.79 120.03,-221.72 153,-210.5 223.44,-186.52 310.28,-192.93 366.37,-201.34"/>
<polygon fill="#63b8ff" stroke="#63b8ff" points="366.05,-204.83 376.47,-202.92 367.14,-197.92 366.05,-204.83"/>
</a>
</g>
</g>
<!-- Node12 -->
<g id="Node000012" class="node">
<title>Node12</title>
<g id="a_Node000012"><a xlink:href="classPatchSegmentation.html#a997b96c5dffc5685b1fca9e72898403f" target="_top" xlink:title=" ">
<polygon fill="white" stroke="#666666" points="292,-249.5 175,-249.5 175,-219.5 292,-219.5 292,-249.5"/>
<text text-anchor="start" x="183" y="-237.5" font-family="Helvetica,sans-Serif" font-size="10.00">PatchSegmentation::</text>
<text text-anchor="middle" x="233.5" y="-226.5" font-family="Helvetica,sans-Serif" font-size="10.00">patchSplitting</text>
</a>
</g>
</g>
<!-- Node1&#45;&gt;Node12 -->
<g id="edge12_Node000001_Node000012" class="edge">
<title>Node1&#45;&gt;Node12</title>
<g id="a_edge12_Node000001_Node000012"><a xlink:title=" ">
<path fill="none" stroke="#63b8ff" d="M113.76,-267.44C131.15,-262.62 150.57,-257.23 168.59,-252.23"/>
<polygon fill="#63b8ff" stroke="#63b8ff" points="169.73,-255.55 178.43,-249.5 167.86,-248.8 169.73,-255.55"/>
</a>
</g>
</g>
<!-- Node13 -->
<g id="Node000013" class="node">
<title>Node13</title>
<g id="a_Node000013"><a xlink:href="classPatchSegmentation.html#a76f4eb567e0c0d4629d5d69cac689706" target="_top" xlink:title=" ">
<polygon fill="white" stroke="#666666" points="292,-163.5 175,-163.5 175,-133.5 292,-133.5 292,-163.5"/>
<text text-anchor="start" x="183" y="-151.5" font-family="Helvetica,sans-Serif" font-size="10.00">PatchSegmentation::</text>
<text text-anchor="middle" x="233.5" y="-140.5" font-family="Helvetica,sans-Serif" font-size="10.00">refillRawPoints</text>
</a>
</g>
</g>
<!-- Node1&#45;&gt;Node13 -->
<g id="edge15_Node000001_Node000013" class="edge">
<title>Node1&#45;&gt;Node13</title>
<g id="a_edge15_Node000001_Node000013"><a xlink:title=" ">
<path fill="none" stroke="#63b8ff" d="M69.46,-267.13C84.84,-244.53 116.45,-202.32 153,-177.5 158.34,-173.87 164.2,-170.63 170.23,-167.76"/>
<polygon fill="#63b8ff" stroke="#63b8ff" points="172.06,-170.78 179.8,-163.54 169.24,-164.37 172.06,-170.78"/>
</a>
</g>
</g>
<!-- Node14 -->
<g id="Node000014" class="node">
<title>Node14</title>
<g id="a_Node000014"><a xlink:href="classPatchSegmentation.html#a37d8b6f4bb1e23f6c7ec329a84f062a9" target="_top" xlink:title=" ">
<polygon fill="white" stroke="#666666" points="293,-115.5 174,-115.5 174,-85.5 293,-85.5 293,-115.5"/>
<text text-anchor="start" x="182" y="-103.5" font-family="Helvetica,sans-Serif" font-size="10.00">PatchSegmentation::</text>
<text text-anchor="middle" x="233.5" y="-92.5" font-family="Helvetica,sans-Serif" font-size="10.00">resampledPointcloud</text>
</a>
</g>
</g>
<!-- Node1&#45;&gt;Node14 -->
<g id="edge16_Node000001_Node000014" class="edge">
<title>Node1&#45;&gt;Node14</title>
<g id="a_edge16_Node000001_Node000014"><a xlink:title=" ">
<path fill="none" stroke="#63b8ff" d="M64.24,-267.36C74.85,-235.92 103.58,-163.24 153,-124.5 156.61,-121.67 160.55,-119.18 164.68,-116.97"/>
<polygon fill="#63b8ff" stroke="#63b8ff" points="166.41,-120.03 173.97,-112.61 163.43,-113.69 166.41,-120.03"/>
</a>
</g>
</g>
<!-- Node15 -->
<g id="Node000015" class="node">
<title>Node15</title>
<g id="a_Node000015"><a xlink:href="structuvgvpcc__enc_1_1Patch.html#a3ecf8a9dc6427df10fb92d4220d3a50f" target="_top" xlink:title=" ">
<polygon fill="white" stroke="#666666" points="289.5,-67.5 177.5,-67.5 177.5,-37.5 289.5,-37.5 289.5,-67.5"/>
<text text-anchor="start" x="185.5" y="-55.5" font-family="Helvetica,sans-Serif" font-size="10.00">uvgvpcc_enc::Patch</text>
<text text-anchor="middle" x="233.5" y="-44.5" font-family="Helvetica,sans-Serif" font-size="10.00">::setPatchPpi</text>
</a>
</g>
</g>
<!-- Node1&#45;&gt;Node15 -->
<g id="edge17_Node000001_Node000015" class="edge">
<title>Node1&#45;&gt;Node15</title>
<g id="a_edge17_Node000001_Node000015"><a xlink:title=" ">
<path fill="none" stroke="#63b8ff" d="M61.99,-267.27C69.02,-229.24 92.56,-129.4 153,-76.5 157.45,-72.61 162.51,-69.35 167.88,-66.61"/>
<polygon fill="#63b8ff" stroke="#63b8ff" points="169.42,-69.76 177.14,-62.5 166.58,-63.36 169.42,-69.76"/>
</a>
</g>
</g>
<!-- Node17 -->
<g id="Node000017" class="node">
<title>Node17</title>
<g id="a_Node000017"><a xlink:href="namespaceuvgvpcc__enc.html#a69b2cb991ff48de10ff75bc3c0582a54" target="_top" xlink:title=" ">
<polygon fill="white" stroke="#666666" points="295.5,-19 171.5,-19 171.5,0 295.5,0 295.5,-19"/>
<text text-anchor="middle" x="233.5" y="-7" font-family="Helvetica,sans-Serif" font-size="10.00">uvgvpcc_enc::zeroPad</text>
</a>
</g>
</g>
<!-- Node1&#45;&gt;Node17 -->
<g id="edge19_Node000001_Node000017" class="edge">
<title>Node1&#45;&gt;Node17</title>
<g id="a_edge19_Node000001_Node000017"><a xlink:title=" ">
<path fill="none" stroke="#63b8ff" d="M60.33,-267.19C63.57,-222.97 79.23,-94.04 153,-28.5 155.82,-26 158.91,-23.81 162.18,-21.9"/>
<polygon fill="#63b8ff" stroke="#63b8ff" points="163.79,-25.01 171.22,-17.45 160.7,-18.72 163.79,-25.01"/>
</a>
</g>
</g>
<!-- Node4 -->
<g id="Node000004" class="node">
<title>Node4</title>
<g id="a_Node000004"><a xlink:href="namespaceuvgvpcc__enc.html#a735c39eb14ded23670bac21df7dc8189" target="_top" xlink:title=" ">
<polygon fill="white" stroke="#666666" points="663,-483 536,-483 536,-464 663,-464 663,-483"/>
<text text-anchor="middle" x="599.5" y="-471" font-family="Helvetica,sans-Serif" font-size="10.00">uvgvpcc_enc::roundUp</text>
</a>
</g>
</g>
<!-- Node3&#45;&gt;Node4 -->
<g id="edge3_Node000003_Node000004" class="edge">
<title>Node3&#45;&gt;Node4</title>
<g id="a_edge3_Node000003_Node000004"><a xlink:title=" ">
<path fill="none" stroke="#63b8ff" d="M500.16,-459.82C508.6,-460.99 517.19,-462.19 525.62,-463.36"/>
<polygon fill="#63b8ff" stroke="#63b8ff" points="525.39,-466.86 535.78,-464.77 526.36,-459.93 525.39,-466.86"/>
</a>
</g>
</g>
<!-- Node5&#45;&gt;Node4 -->
<g id="edge5_Node000005_Node000004" class="edge">
<title>Node5&#45;&gt;Node4</title>
<g id="a_edge5_Node000005_Node000004"><a xlink:title=" ">
<path fill="none" stroke="#63b8ff" d="M488.28,-488.84C500.46,-487.14 513.34,-485.35 525.82,-483.61"/>
<polygon fill="#63b8ff" stroke="#63b8ff" points="526.31,-487.08 535.74,-482.23 525.35,-480.14 526.31,-487.08"/>
</a>
</g>
</g>
<!-- Node11 -->
<g id="Node000011" class="node">
<title>Node11</title>
<g id="a_Node000011"><a xlink:href="classuvgvpcc__enc_1_1Logger.html#a93dc0b596dbe176e77961cb5caf71507" target="_top" xlink:title=" ">
<polygon fill="white" stroke="#666666" points="659,-227.5 540,-227.5 540,-197.5 659,-197.5 659,-227.5"/>
<text text-anchor="start" x="548" y="-215.5" font-family="Helvetica,sans-Serif" font-size="10.00">uvgvpcc_enc::Logger</text>
<text text-anchor="middle" x="599.5" y="-204.5" font-family="Helvetica,sans-Serif" font-size="10.00">::getLogLevel</text>
</a>
</g>
</g>
<!-- Node10&#45;&gt;Node11 -->
<g id="edge11_Node000010_Node000011" class="edge">
<title>Node10&#45;&gt;Node11</title>
<g id="a_edge11_Node000010_Node000011"><a xlink:title=" ">
<path fill="none" stroke="#63b8ff" d="M495.17,-212.5C506.51,-212.5 518.26,-212.5 529.59,-212.5"/>
<polygon fill="#63b8ff" stroke="#63b8ff" points="529.85,-216 539.85,-212.5 529.85,-209 529.85,-216"/>
</a>
</g>
</g>
<!-- Node12&#45;&gt;Node3 -->
<g id="edge13_Node000012_Node000003" class="edge">
<title>Node12&#45;&gt;Node3</title>
<g id="a_edge13_Node000012_Node000003"><a xlink:title=" ">
<path fill="none" stroke="#63b8ff" d="M292.26,-246.2C300.05,-249.37 307.56,-253.39 314,-258.5 369.84,-302.81 402.66,-383.77 416.39,-424.58"/>
<polygon fill="#63b8ff" stroke="#63b8ff" points="413.13,-425.85 419.55,-434.27 419.78,-423.68 413.13,-425.85"/>
</a>
</g>
</g>
<!-- Node12&#45;&gt;Node10 -->
<g id="edge14_Node000012_Node000010" class="edge">
<title>Node12&#45;&gt;Node10</title>
<g id="a_edge14_Node000012_Node000010"><a xlink:title=" ">
<path fill="none" stroke="#63b8ff" d="M292.13,-227.81C308.69,-225.89 327.06,-223.75 344.69,-221.71"/>
<polygon fill="#63b8ff" stroke="#63b8ff" points="345.44,-225.14 354.97,-220.51 344.63,-218.19 345.44,-225.14"/>
</a>
</g>
</g>
<!-- Node16 -->
<g id="Node000016" class="node">
<title>Node16</title>
<g id="a_Node000016"><a xlink:href="structuvgvpcc__enc_1_1Patch.html#ad24dc23eb86f57f9cc5bdbb9f54e668a" target="_top" xlink:title=" ">
<polygon fill="white" stroke="#666666" points="481,-67.5 369,-67.5 369,-37.5 481,-37.5 481,-67.5"/>
<text text-anchor="start" x="377" y="-55.5" font-family="Helvetica,sans-Serif" font-size="10.00">uvgvpcc_enc::Patch</text>
<text text-anchor="middle" x="425" y="-44.5" font-family="Helvetica,sans-Serif" font-size="10.00">::setAxis</text>
</a>
</g>
</g>
<!-- Node15&#45;&gt;Node16 -->
<g id="edge18_Node000015_Node000016" class="edge">
<title>Node15&#45;&gt;Node16</title>
<g id="a_edge18_Node000015_Node000016"><a xlink:title=" ">
<path fill="none" stroke="#63b8ff" d="M289.57,-52.5C311.17,-52.5 336.14,-52.5 358.65,-52.5"/>
<polygon fill="#63b8ff" stroke="#63b8ff" points="358.8,-56 368.8,-52.5 358.8,-49 358.8,-56"/>
</a>
</g>
</g>
</g>
</svg>

<g id="navigator" transform="translate(0 0)" fill="#404254">
  <rect fill="#f2f5e9" fill-opacity="0.5" stroke="#606060" stroke-width=".5" x="0" y="0" width="60" height="60"/>
  <use id="zoomplus" xlink:href="#zoomPlus" x="17" y="9" onmousedown="handleZoom(evt,'in')"/>
  <use id="zoomminus" xlink:href="#zoomMin" x="42" y="9" onmousedown="handleZoom(evt,'out')"/>
  <use id="reset" xlink:href="#resetDef" x="30" y="36" onmousedown="handleReset()"/>
   <use id="arrowup" xlink:href="#arrowUp" x="0" y="0" onmousedown="handlePan(0,-1)"/>
  <use id="arrowright" xlink:href="#arrowRight" x="0" y="0" onmousedown="handlePan(1,0)"/>
  <use id="arrowdown" xlink:href="#arrowDown" x="0" y="0" onmousedown="handlePan(0,1)"/>
  <use id="arrowleft" xlink:href="#arrowLeft" x="0" y="0" onmousedown="handlePan(-1,0)"/>
</g>
<svg viewBox="0 0 15 15" width="100%" height="30px" preserveAspectRatio="xMaxYMin meet">
 <g id="arrow_out" transform="scale(0.3 0.3)">
  <a xlink:href="classPatchSegmentation_a819536989846a15453734058b91521ee_cgraph_org.svg" target="_base">
   <rect id="button" ry="5" rx="5" y="6" x="6" height="38" width="38"
        fill="#f2f5e9" fill-opacity="0.5" stroke="#606060" stroke-width="1.0"/>
   <path id="arrow"
     d="M 11.500037,31.436501 C 11.940474,20.09759 22.043105,11.32322 32.158766,21.979434 L 37.068811,17.246167 C 37.068811,17.246167 37.088388,32 37.088388,32 L 22.160133,31.978069 C 22.160133,31.978069 26.997745,27.140456 26.997745,27.140456 C 18.528582,18.264221 13.291696,25.230495 11.500037,31.436501 z"
     style="fill:#404040;"/>
  </a>
 </g>
</svg>

<style type='text/css'>
<![CDATA[
[data-mouse-over-selected='false'] { opacity: 0.7; }
[data-mouse-over-selected='true']  { opacity: 1.0; }
]]>
</style>
<script type="application/ecmascript"><![CDATA[
document.addEventListener('DOMContentLoaded', (event) => {
  highlightEdges();
  highlightAdjacentNodes();
});
]]></script>
</svg>
