<?xml version="1.0" encoding="UTF-8" standalone="no"?>
<!DOCTYPE svg PUBLIC "-//W3C//DTD SVG 1.1//EN"
 "http://www.w3.org/Graphics/SVG/1.1/DTD/svg11.dtd">
<!-- Generated by graphviz version 2.43.0 (0)
 -->
<!-- Title: nanoflann::KDTreeSingleIndexAdaptor::rknnSearch Pages: 1 -->
<svg width="352pt" height="86pt"
 viewBox="0.00 0.00 352.00 86.00" xmlns="http://www.w3.org/2000/svg" xmlns:xlink="http://www.w3.org/1999/xlink">
<g id="graph0" class="graph" transform="scale(1 1) rotate(0) translate(4 82)">
<title>nanoflann::KDTreeSingleIndexAdaptor::rknnSearch</title>
<!-- Node1 -->
<g id="Node000001" class="node">
<title>Node1</title>
<g id="a_Node000001"><a xlink:title=" ">
<polygon fill="#999999" stroke="#666666" points="162,-54 0,-54 0,-24 162,-24 162,-54"/>
<text text-anchor="start" x="8" y="-42" font-family="Helvetica,sans-Serif" font-size="10.00">nanoflann::KDTreeSingleIndex</text>
<text text-anchor="middle" x="81" y="-31" font-family="Helvetica,sans-Serif" font-size="10.00">Adaptor::rknnSearch</text>
</a>
</g>
</g>
<!-- Node2 -->
<g id="Node000002" class="node">
<title>Node2</title>
<g id="a_Node000002"><a xlink:href="classnanoflann_1_1RKNNResultSet.html#a5ddef701a8d5f8801c181572e091b47a" target="_top" xlink:title=" ">
<polygon fill="white" stroke="#666666" points="344,-78 198,-78 198,-48 344,-48 344,-78"/>
<text text-anchor="start" x="206" y="-66" font-family="Helvetica,sans-Serif" font-size="10.00">nanoflann::RKNNResultSet</text>
<text text-anchor="middle" x="271" y="-55" font-family="Helvetica,sans-Serif" font-size="10.00">::init</text>
</a>
</g>
</g>
<!-- Node1&#45;&gt;Node2 -->
<g id="edge1_Node000001_Node000002" class="edge">
<title>Node1&#45;&gt;Node2</title>
<g id="a_edge1_Node000001_Node000002"><a xlink:title=" ">
<path fill="none" stroke="#63b8ff" d="M162,-49.21C170.55,-50.3 179.26,-51.42 187.83,-52.51"/>
<polygon fill="#63b8ff" stroke="#63b8ff" points="187.45,-55.99 197.81,-53.78 188.34,-49.05 187.45,-55.99"/>
</a>
</g>
</g>
<!-- Node3 -->
<g id="Node000003" class="node">
<title>Node3</title>
<g id="a_Node000003"><a xlink:href="classnanoflann_1_1RKNNResultSet.html#a3a42608d697e7a19f34a69c562181d57" target="_top" xlink:title=" ">
<polygon fill="white" stroke="#666666" points="344,-30 198,-30 198,0 344,0 344,-30"/>
<text text-anchor="start" x="206" y="-18" font-family="Helvetica,sans-Serif" font-size="10.00">nanoflann::RKNNResultSet</text>
<text text-anchor="middle" x="271" y="-7" font-family="Helvetica,sans-Serif" font-size="10.00">::size</text>
</a>
</g>
</g>
<!-- Node1&#45;&gt;Node3 -->
<g id="edge2_Node000001_Node000003" class="edge">
<title>Node1&#45;&gt;Node3</title>
<g id="a_edge2_Node000001_Node000003"><a xlink:title=" ">
<path fill="none" stroke="#63b8ff" d="M162,-28.79C170.55,-27.7 179.26,-26.58 187.83,-25.49"/>
<polygon fill="#63b8ff" stroke="#63b8ff" points="188.34,-28.95 197.81,-24.22 187.45,-22.01 188.34,-28.95"/>
</a>
</g>
</g>
</g>
</svg>
