<?xml version="1.0" encoding="UTF-8" standalone="no"?>
<!DOCTYPE svg PUBLIC "-//W3C//DTD SVG 1.1//EN"
 "http://www.w3.org/Graphics/SVG/1.1/DTD/svg11.dtd">
<!-- Generated by graphviz version 2.43.0 (0)
 -->
<!-- Title: StatsCollector::collectData Pages: 1 -->
<svg width="815pt" height="143pt"
 viewBox="0.00 0.00 815.00 143.11" xmlns="http://www.w3.org/2000/svg" xmlns:xlink="http://www.w3.org/1999/xlink">
<g id="graph0" class="graph" transform="scale(1 1) rotate(0) translate(4 139.11)">
<title>StatsCollector::collectData</title>
<!-- Node1 -->
<g id="Node000001" class="node">
<title>Node1</title>
<g id="a_Node000001"><a xlink:title=" ">
<polygon fill="#999999" stroke="#666666" points="807,-88.5 661,-88.5 661,-69.5 807,-69.5 807,-88.5"/>
<text text-anchor="middle" x="734" y="-76.5" font-family="Helvetica,sans-Serif" font-size="10.00">StatsCollector::collectData</text>
</a>
</g>
</g>
<!-- Node2 -->
<g id="Node000002" class="node">
<title>Node2</title>
<g id="a_Node000002"><a xlink:href="classPatchGeneration.html#a0f5554a29116f3ceeba740292bffa5d7" target="_top" xlink:title=" ">
<polygon fill="white" stroke="#666666" points="402,-116 256,-116 256,-86 402,-86 402,-116"/>
<text text-anchor="start" x="264" y="-104" font-family="Helvetica,sans-Serif" font-size="10.00">PatchGeneration::generate</text>
<text text-anchor="middle" x="329" y="-93" font-family="Helvetica,sans-Serif" font-size="10.00">FramePatches</text>
</a>
</g>
</g>
<!-- Node1&#45;&gt;Node2 -->
<g id="edge1_Node000001_Node000002" class="edge">
<title>Node1&#45;&gt;Node2</title>
<g id="a_edge1_Node000001_Node000002"><a xlink:title=" ">
<path fill="none" stroke="#63b8ff" d="M707.46,-93.37C686.16,-104.48 654.61,-118.96 625,-125 543.57,-141.62 520.61,-134.07 438,-125 421.2,-123.16 403.19,-119.74 386.78,-116.06"/>
<polygon fill="#63b8ff" stroke="#63b8ff" points="709.31,-96.34 716.48,-88.54 706.01,-90.17 709.31,-96.34"/>
</a>
</g>
</g>
<!-- Node5 -->
<g id="Node000005" class="node">
<title>Node5</title>
<g id="a_Node000005"><a xlink:href="classPatchSegmentation.html#a963380b29b8e3be6e657c17efbecb5ee" target="_top" xlink:title=" ">
<polygon fill="white" stroke="#666666" points="590,-116 473,-116 473,-86 590,-86 590,-116"/>
<text text-anchor="start" x="481" y="-104" font-family="Helvetica,sans-Serif" font-size="10.00">PatchSegmentation::</text>
<text text-anchor="middle" x="531.5" y="-93" font-family="Helvetica,sans-Serif" font-size="10.00">patchSegmentation</text>
</a>
</g>
</g>
<!-- Node1&#45;&gt;Node5 -->
<g id="edge4_Node000001_Node000005" class="edge">
<title>Node1&#45;&gt;Node5</title>
<g id="a_edge4_Node000001_Node000005"><a xlink:title=" ">
<path fill="none" stroke="#63b8ff" d="M650.7,-88.03C630.38,-90.26 609.04,-92.6 590.17,-94.67"/>
<polygon fill="#63b8ff" stroke="#63b8ff" points="651.34,-91.48 660.9,-86.91 650.58,-84.52 651.34,-91.48"/>
</a>
</g>
</g>
<!-- Node6 -->
<g id="Node000006" class="node">
<title>Node6</title>
<g id="a_Node000006"><a xlink:href="classPPISegmenter.html#a581dc0d578e49609015b82b1f9c46f8a" target="_top" xlink:title=" ">
<polygon fill="white" stroke="#666666" points="625,-67.5 438,-67.5 438,-48.5 625,-48.5 625,-67.5"/>
<text text-anchor="middle" x="531.5" y="-55.5" font-family="Helvetica,sans-Serif" font-size="10.00">PPISegmenter::refineSegmentation</text>
</a>
</g>
</g>
<!-- Node1&#45;&gt;Node6 -->
<g id="edge5_Node000001_Node000006" class="edge">
<title>Node1&#45;&gt;Node6</title>
<g id="a_edge5_Node000001_Node000006"><a xlink:title=" ">
<path fill="none" stroke="#63b8ff" d="M650.83,-70.39C641.83,-69.45 632.62,-68.49 623.52,-67.53"/>
<polygon fill="#63b8ff" stroke="#63b8ff" points="650.59,-73.89 660.9,-71.45 651.32,-66.93 650.59,-73.89"/>
</a>
</g>
</g>
<!-- Node7 -->
<g id="Node000007" class="node">
<title>Node7</title>
<g id="a_Node000007"><a xlink:href="classPPISegmenter__NewRS.html#a96d1c098a345cc689616904ac391884c" target="_top" xlink:title=" ">
<polygon fill="white" stroke="#666666" points="610.5,-30 452.5,-30 452.5,0 610.5,0 610.5,-30"/>
<text text-anchor="start" x="460.5" y="-18" font-family="Helvetica,sans-Serif" font-size="10.00">PPISegmenter_NewRS</text>
<text text-anchor="middle" x="531.5" y="-7" font-family="Helvetica,sans-Serif" font-size="10.00">::refineSegmentation_NewRS</text>
</a>
</g>
</g>
<!-- Node1&#45;&gt;Node7 -->
<g id="edge7_Node000001_Node000007" class="edge">
<title>Node1&#45;&gt;Node7</title>
<g id="a_edge7_Node000001_Node000007"><a xlink:title=" ">
<path fill="none" stroke="#63b8ff" d="M698.82,-65.84C677.7,-57.91 649.95,-47.86 625,-40 614.05,-36.55 602.29,-33.14 590.94,-30.01"/>
<polygon fill="#63b8ff" stroke="#63b8ff" points="697.73,-69.17 708.32,-69.43 700.2,-62.62 697.73,-69.17"/>
</a>
</g>
</g>
<!-- Node3 -->
<g id="Node000003" class="node">
<title>Node3</title>
<g id="a_Node000003"><a xlink:href="namespaceuvgvpcc__enc_1_1API.html#ac96f1663ec59a1bbc04778ae958780fa" target="_top" xlink:title="Entry point of the uvgVPCCenc library. Take as input a frame. Create all the jobs for processing this...">
<polygon fill="white" stroke="#666666" points="220,-116 77,-116 77,-86 220,-86 220,-116"/>
<text text-anchor="start" x="85" y="-104" font-family="Helvetica,sans-Serif" font-size="10.00">uvgvpcc_enc::API::encode</text>
<text text-anchor="middle" x="148.5" y="-93" font-family="Helvetica,sans-Serif" font-size="10.00">Frame</text>
</a>
</g>
</g>
<!-- Node2&#45;&gt;Node3 -->
<g id="edge2_Node000002_Node000003" class="edge">
<title>Node2&#45;&gt;Node3</title>
<g id="a_edge2_Node000002_Node000003"><a xlink:title=" ">
<path fill="none" stroke="#63b8ff" d="M245.87,-101C237.27,-101 228.58,-101 220.12,-101"/>
<polygon fill="#63b8ff" stroke="#63b8ff" points="245.91,-104.5 255.91,-101 245.91,-97.5 245.91,-104.5"/>
</a>
</g>
</g>
<!-- Node4 -->
<g id="Node000004" class="node">
<title>Node4</title>
<g id="a_Node000004"><a xlink:href="uvgVPCCencAppExample_8cpp.html#aee608aedd5b0b58f2966c2ff15101925" target="_top" xlink:title="This example application offers a simple approach to working with the uvgVPCCenc library and highligh...">
<polygon fill="white" stroke="#666666" points="41,-110.5 0,-110.5 0,-91.5 41,-91.5 41,-110.5"/>
<text text-anchor="middle" x="20.5" y="-98.5" font-family="Helvetica,sans-Serif" font-size="10.00">main</text>
</a>
</g>
</g>
<!-- Node3&#45;&gt;Node4 -->
<g id="edge3_Node000003_Node000004" class="edge">
<title>Node3&#45;&gt;Node4</title>
<g id="a_edge3_Node000003_Node000004"><a xlink:title=" ">
<path fill="none" stroke="#63b8ff" d="M66.74,-101C57.29,-101 48.42,-101 41.08,-101"/>
<polygon fill="#63b8ff" stroke="#63b8ff" points="66.77,-104.5 76.77,-101 66.77,-97.5 66.77,-104.5"/>
</a>
</g>
</g>
<!-- Node6&#45;&gt;Node2 -->
<g id="edge6_Node000006_Node000002" class="edge">
<title>Node6&#45;&gt;Node2</title>
<g id="a_edge6_Node000006_Node000002"><a xlink:title=" ">
<path fill="none" stroke="#63b8ff" d="M473.31,-69.6C461.62,-72.01 449.41,-74.56 438,-77 424.66,-79.85 410.42,-82.97 396.79,-85.98"/>
<polygon fill="#63b8ff" stroke="#63b8ff" points="474.32,-72.96 483.41,-67.52 472.91,-66.11 474.32,-72.96"/>
</a>
</g>
</g>
</g>
</svg>
