<?xml version="1.0" encoding="UTF-8" standalone="no"?>
<!DOCTYPE svg PUBLIC "-//W3C//DTD SVG 1.1//EN"
 "http://www.w3.org/Graphics/SVG/1.1/DTD/svg11.dtd">
<!-- Generated by graphviz version 2.43.0 (0)
 -->
<!-- Title: nanoflann::KDTreeBaseClass&lt; Derived, Distance, DatasetAdaptor, DIM, IndexType &gt; Pages: 1 -->
<!--zoomable 587 -->

<svg id="main" version="1.1" xmlns="http://www.w3.org/2000/svg" xmlns:xlink="http://www.w3.org/1999/xlink" xml:space="preserve" onload="init(evt)">
<style type="text/css"><![CDATA[
.node, .edge {opacity: 0.7;}
.node.selected, .edge.selected {opacity: 1;}
.edge:hover path { stroke: red; }
.edge:hover polygon { stroke: red; fill: red; }
]]></style>

<defs>
  <circle id="rim" cx="0" cy="0" r="7"/>
  <circle id="rim2" cx="0" cy="0" r="3.5"/>
  <g id="zoomPlus">
    <use xlink:href="#rim" fill="#404040"><set attributeName="fill" to="#808080" begin="zoomplus.mouseover" end="zoomplus.mouseout"/></use>
    <path d="M-4,0h8M0,-4v8" fill="none" stroke="white" stroke-width="1.5" pointer-events="none"/>
  </g>
  <g id="zoomMin">
    <use xlink:href="#rim" fill="#404040"><set attributeName="fill" to="#808080" begin="zoomminus.mouseover" end="zoomminus.mouseout"/></use>
    <path d="M-4,0h8" fill="none" stroke="white" stroke-width="1.5" pointer-events="none"/>
  </g>
  <g id="arrowUp" transform="translate(30 24)">
    <use xlink:href="#rim"/>
    <path pointer-events="none" fill="none" stroke="white" stroke-width="1.5" d="M0,-3.0v7 M-2.5,-0.5L0,-3.0L2.5,-0.5"/>
  </g>
  <g id="arrowRight" transform="rotate(90) translate(36 -43)">
    <use xlink:href="#rim"/>
    <path pointer-events="none" fill="none" stroke="white" stroke-width="1.5" d="M0,-3.0v7 M-2.5,-0.5L0,-3.0L2.5,-0.5"/>
  </g>
  <g id="arrowDown" transform="rotate(180) translate(-30 -48)">
    <use xlink:href="#rim"/>
    <path pointer-events="none" fill="none" stroke="white" stroke-width="1.5" d="M0,-3.0v7 M-2.5,-0.5L0,-3.0L2.5,-0.5"/>
  </g>
  <g id="arrowLeft" transform="rotate(270) translate(-36 17)">
    <use xlink:href="#rim"/>
    <path pointer-events="none" fill="none" stroke="white" stroke-width="1.5" d="M0,-3.0v7 M-2.5,-0.5L0,-3.0L2.5,-0.5"/>
  </g>
  <g id="resetDef">
    <use xlink:href="#rim2" fill="#404040"><set attributeName="fill" to="#808080" begin="reset.mouseover" end="reset.mouseout"/></use>
  </g>
</defs>
<script type="application/ecmascript">
var viewWidth = 561;
var viewHeight = 587;
var sectionId = 'dynsection-1';
</script>
<script type="application/ecmascript" xlink:href="svg.min.js"/>
<svg id="graph" class="graph">
<g id="viewport">
<title>nanoflann::KDTreeBaseClass&lt; Derived, Distance, DatasetAdaptor, DIM, IndexType &gt;</title>
<!-- Node1 -->
<g id="Node000001" class="node">
<title>Node1</title>
<g id="a_Node000001"><a xlink:title=" ">
<polygon fill="#999999" stroke="transparent" points="429,-356 235,-356 235,0 429,0 429,-356"/>
<text text-anchor="start" x="240" y="-344" font-family="Helvetica,sans-Serif" font-size="10.00">nanoflann::KDTreeBaseClass</text>
<text text-anchor="start" x="240" y="-333" font-family="Helvetica,sans-Serif" font-size="10.00">&lt; Derived, Distance, DatasetAdaptor,</text>
<text text-anchor="start" x="287" y="-322" font-family="Helvetica,sans-Serif" font-size="10.00"> DIM, IndexType &gt;</text>
<text text-anchor="start" x="250.5" y="-307" font-family="Helvetica,sans-Serif" font-size="10.00">+</text>
<text text-anchor="start" x="275" y="-307" font-family="Helvetica,sans-Serif" font-size="10.00">vAcc_</text>
<text text-anchor="start" x="250.5" y="-292" font-family="Helvetica,sans-Serif" font-size="10.00">+</text>
<text text-anchor="start" x="275" y="-292" font-family="Helvetica,sans-Serif" font-size="10.00">leaf_max_size_</text>
<text text-anchor="start" x="250.5" y="-277" font-family="Helvetica,sans-Serif" font-size="10.00">+</text>
<text text-anchor="start" x="275" y="-277" font-family="Helvetica,sans-Serif" font-size="10.00">n_thread_build_</text>
<text text-anchor="start" x="250.5" y="-262" font-family="Helvetica,sans-Serif" font-size="10.00">+</text>
<text text-anchor="start" x="275" y="-262" font-family="Helvetica,sans-Serif" font-size="10.00">size_</text>
<text text-anchor="start" x="250.5" y="-247" font-family="Helvetica,sans-Serif" font-size="10.00">+</text>
<text text-anchor="start" x="275" y="-247" font-family="Helvetica,sans-Serif" font-size="10.00">size_at_index_build_</text>
<text text-anchor="start" x="250.5" y="-232" font-family="Helvetica,sans-Serif" font-size="10.00">+</text>
<text text-anchor="start" x="275" y="-232" font-family="Helvetica,sans-Serif" font-size="10.00">dim_</text>
<text text-anchor="start" x="250.5" y="-217" font-family="Helvetica,sans-Serif" font-size="10.00">+</text>
<text text-anchor="start" x="275" y="-217" font-family="Helvetica,sans-Serif" font-size="10.00">freeIndex()</text>
<text text-anchor="start" x="250.5" y="-202" font-family="Helvetica,sans-Serif" font-size="10.00">+</text>
<text text-anchor="start" x="275" y="-202" font-family="Helvetica,sans-Serif" font-size="10.00">size()</text>
<text text-anchor="start" x="250.5" y="-187" font-family="Helvetica,sans-Serif" font-size="10.00">+</text>
<text text-anchor="start" x="275" y="-187" font-family="Helvetica,sans-Serif" font-size="10.00">veclen()</text>
<text text-anchor="start" x="250.5" y="-172" font-family="Helvetica,sans-Serif" font-size="10.00">+</text>
<text text-anchor="start" x="275" y="-172" font-family="Helvetica,sans-Serif" font-size="10.00">dataset_get()</text>
<text text-anchor="start" x="250.5" y="-157" font-family="Helvetica,sans-Serif" font-size="10.00">+</text>
<text text-anchor="start" x="275" y="-157" font-family="Helvetica,sans-Serif" font-size="10.00">usedMemory()</text>
<text text-anchor="start" x="250.5" y="-142" font-family="Helvetica,sans-Serif" font-size="10.00">+</text>
<text text-anchor="start" x="275" y="-142" font-family="Helvetica,sans-Serif" font-size="10.00">computeMinMax()</text>
<text text-anchor="start" x="250.5" y="-127" font-family="Helvetica,sans-Serif" font-size="10.00">+</text>
<text text-anchor="start" x="275" y="-127" font-family="Helvetica,sans-Serif" font-size="10.00">divideTree()</text>
<text text-anchor="start" x="250.5" y="-112" font-family="Helvetica,sans-Serif" font-size="10.00">+</text>
<text text-anchor="start" x="275" y="-112" font-family="Helvetica,sans-Serif" font-size="10.00">divideTreeConcurrent()</text>
<text text-anchor="start" x="250.5" y="-97" font-family="Helvetica,sans-Serif" font-size="10.00">+</text>
<text text-anchor="start" x="275" y="-97" font-family="Helvetica,sans-Serif" font-size="10.00">middleSplit_()</text>
<text text-anchor="start" x="250.5" y="-82" font-family="Helvetica,sans-Serif" font-size="10.00">+</text>
<text text-anchor="start" x="275" y="-82" font-family="Helvetica,sans-Serif" font-size="10.00">planeSplit()</text>
<text text-anchor="start" x="250.5" y="-67" font-family="Helvetica,sans-Serif" font-size="10.00">+</text>
<text text-anchor="start" x="275" y="-67" font-family="Helvetica,sans-Serif" font-size="10.00">computeInitialDistances()</text>
<text text-anchor="start" x="250.5" y="-52" font-family="Helvetica,sans-Serif" font-size="10.00">+</text>
<text text-anchor="start" x="275" y="-52" font-family="Helvetica,sans-Serif" font-size="10.00">saveIndex()</text>
<text text-anchor="start" x="250.5" y="-37" font-family="Helvetica,sans-Serif" font-size="10.00">+</text>
<text text-anchor="start" x="275" y="-37" font-family="Helvetica,sans-Serif" font-size="10.00">loadIndex()</text>
<text text-anchor="start" x="250.5" y="-22" font-family="Helvetica,sans-Serif" font-size="10.00">+</text>
<text text-anchor="start" x="275" y="-22" font-family="Helvetica,sans-Serif" font-size="10.00">save_tree()</text>
<text text-anchor="start" x="250.5" y="-7" font-family="Helvetica,sans-Serif" font-size="10.00">+</text>
<text text-anchor="start" x="275" y="-7" font-family="Helvetica,sans-Serif" font-size="10.00">load_tree()</text>
<polygon fill="#666666" stroke="#666666" points="235,-317 235,-317 429,-317 429,-317 235,-317"/>
<polygon fill="#666666" stroke="#666666" points="235,-227 235,-227 273,-227 273,-227 235,-227"/>
<polygon fill="#666666" stroke="#666666" points="273,-227 273,-227 429,-227 429,-227 273,-227"/>
<polygon fill="none" stroke="#666666" points="235,0 235,-356 429,-356 429,0 235,0"/>
</a>
</g>
</g>
<!-- Node2 -->
<g id="Node000002" class="node">
<title>Node2</title>
<g id="a_Node000002"><a xlink:href="structnanoflann_1_1KDTreeBaseClass_1_1Node.html" target="_top" xlink:title=" ">
<polygon fill="white" stroke="transparent" points="194,-579 0,-579 0,-403 194,-403 194,-579"/>
<text text-anchor="start" x="5" y="-567" font-family="Helvetica,sans-Serif" font-size="10.00">nanoflann::KDTreeBaseClass</text>
<text text-anchor="start" x="5" y="-556" font-family="Helvetica,sans-Serif" font-size="10.00">&lt; Derived, Distance, DatasetAdaptor,</text>
<text text-anchor="start" x="36.5" y="-545" font-family="Helvetica,sans-Serif" font-size="10.00"> DIM, IndexType &gt;::Node</text>
<text text-anchor="start" x="34" y="-530" font-family="Helvetica,sans-Serif" font-size="10.00">+</text>
<text text-anchor="start" x="77" y="-530" font-family="Helvetica,sans-Serif" font-size="10.00">left</text>
<text text-anchor="start" x="34" y="-515" font-family="Helvetica,sans-Serif" font-size="10.00">+</text>
<text text-anchor="start" x="77" y="-515" font-family="Helvetica,sans-Serif" font-size="10.00">right</text>
<text text-anchor="start" x="34" y="-500" font-family="Helvetica,sans-Serif" font-size="10.00">+</text>
<text text-anchor="start" x="77" y="-500" font-family="Helvetica,sans-Serif" font-size="10.00">lr</text>
<text text-anchor="start" x="34" y="-485" font-family="Helvetica,sans-Serif" font-size="10.00">+</text>
<text text-anchor="start" x="77" y="-485" font-family="Helvetica,sans-Serif" font-size="10.00">divfeat</text>
<text text-anchor="start" x="34" y="-470" font-family="Helvetica,sans-Serif" font-size="10.00">+</text>
<text text-anchor="start" x="77" y="-470" font-family="Helvetica,sans-Serif" font-size="10.00">divlow</text>
<text text-anchor="start" x="34" y="-455" font-family="Helvetica,sans-Serif" font-size="10.00">+</text>
<text text-anchor="start" x="77" y="-455" font-family="Helvetica,sans-Serif" font-size="10.00">divhigh</text>
<text text-anchor="start" x="34" y="-440" font-family="Helvetica,sans-Serif" font-size="10.00">+</text>
<text text-anchor="start" x="77" y="-440" font-family="Helvetica,sans-Serif" font-size="10.00">sub</text>
<text text-anchor="start" x="34" y="-425" font-family="Helvetica,sans-Serif" font-size="10.00">+</text>
<text text-anchor="start" x="77" y="-425" font-family="Helvetica,sans-Serif" font-size="10.00">node_type</text>
<text text-anchor="start" x="95" y="-410" font-family="Helvetica,sans-Serif" font-size="10.00"> </text>
<polygon fill="#666666" stroke="#666666" points="0,-540 0,-540 194,-540 194,-540 0,-540"/>
<polygon fill="#666666" stroke="#666666" points="0,-420 0,-420 75,-420 75,-420 0,-420"/>
<polygon fill="#666666" stroke="#666666" points="75,-420 75,-420 194,-420 194,-420 75,-420"/>
<polygon fill="none" stroke="#666666" points="0,-403 0,-579 194,-579 194,-403 0,-403"/>
</a>
</g>
</g>
<!-- Node2&#45;&gt;Node1 -->
<g id="edge1_Node000001_Node000002" class="edge">
<title>Node2&#45;&gt;Node1</title>
<g id="a_edge1_Node000001_Node000002"><a xlink:title=" ">
<path fill="none" stroke="#63b8ff" d="M162.77,-402.96C182.84,-376.4 205.42,-346.51 227.4,-317.43"/>
<polygon fill="none" stroke="#63b8ff" points="227.59,-317.18 228.01,-309.98 234.82,-307.61 234.4,-314.8 227.59,-317.18"/>
</a>
</g>
<text text-anchor="middle" x="213" y="-377" font-family="Helvetica,sans-Serif" font-size="10.00" fill="grey"> +root_node_</text>
</g>
<!-- Node2&#45;&gt;Node2 -->
<g id="edge2_Node000002_Node000002" class="edge">
<title>Node2&#45;&gt;Node2</title>
<g id="a_edge2_Node000002_Node000002"><a xlink:title=" ">
<path fill="none" stroke="#63b8ff" d="M194.32,-508.35C205.06,-505.06 212,-499.27 212,-491 212,-486.09 209.55,-482.05 205.32,-478.9"/>
<polygon fill="none" stroke="#63b8ff" points="205.15,-478.82 198.01,-479.84 194.32,-473.65 201.46,-472.62 205.15,-478.82"/>
</a>
</g>
<text text-anchor="middle" x="232.5" y="-494" font-family="Helvetica,sans-Serif" font-size="10.00" fill="grey"> +child1</text>
<text text-anchor="middle" x="232.5" y="-483" font-family="Helvetica,sans-Serif" font-size="10.00" fill="grey">+child2</text>
</g>
<!-- Node3 -->
<g id="Node000003" class="node">
<title>Node3</title>
<g id="a_Node000003"><a xlink:href="structnanoflann_1_1array__or__vector.html" target="_top" xlink:title=" ">
<polygon fill="white" stroke="transparent" points="393,-521 271,-521 271,-461 393,-461 393,-521"/>
<text text-anchor="start" x="276" y="-509" font-family="Helvetica,sans-Serif" font-size="10.00">nanoflann::array_or</text>
<text text-anchor="start" x="276" y="-498" font-family="Helvetica,sans-Serif" font-size="10.00">_vector&lt; &#45;1, Interval &gt;</text>
<text text-anchor="start" x="330" y="-483" font-family="Helvetica,sans-Serif" font-size="10.00"> </text>
<text text-anchor="start" x="330" y="-468" font-family="Helvetica,sans-Serif" font-size="10.00"> </text>
<polygon fill="#666666" stroke="#666666" points="271,-493 271,-493 393,-493 393,-493 271,-493"/>
<polygon fill="#666666" stroke="#666666" points="271,-478 271,-478 393,-478 393,-478 271,-478"/>
<polygon fill="none" stroke="#666666" points="271,-461 271,-521 393,-521 393,-461 271,-461"/>
</a>
</g>
</g>
<!-- Node3&#45;&gt;Node1 -->
<g id="edge3_Node000001_Node000003" class="edge">
<title>Node3&#45;&gt;Node1</title>
<g id="a_edge3_Node000001_Node000003"><a xlink:title=" ">
<path fill="none" stroke="#63b8ff" d="M332,-460.74C332,-438.12 332,-404.67 332,-368.65"/>
<polygon fill="none" stroke="#63b8ff" points="332,-368.34 328,-362.34 332,-356.34 336,-362.34 332,-368.34"/>
</a>
</g>
<text text-anchor="middle" x="365" y="-377" font-family="Helvetica,sans-Serif" font-size="10.00" fill="grey"> +root_bbox_</text>
</g>
<!-- Node4 -->
<g id="Node000004" class="node">
<title>Node4</title>
<g id="a_Node000004"><a xlink:href="classnanoflann_1_1PooledAllocator.html" target="_top" xlink:title=" ">
<polygon fill="white" stroke="transparent" points="552.5,-553 411.5,-553 411.5,-429 552.5,-429 552.5,-553"/>
<text text-anchor="start" x="417" y="-541" font-family="Helvetica,sans-Serif" font-size="10.00">nanoflann::PooledAllocator</text>
<text text-anchor="start" x="422.5" y="-526" font-family="Helvetica,sans-Serif" font-size="10.00">+</text>
<text text-anchor="start" x="442" y="-526" font-family="Helvetica,sans-Serif" font-size="10.00">usedMemory</text>
<text text-anchor="start" x="422.5" y="-511" font-family="Helvetica,sans-Serif" font-size="10.00">+</text>
<text text-anchor="start" x="442" y="-511" font-family="Helvetica,sans-Serif" font-size="10.00">wastedMemory</text>
<text text-anchor="start" x="422.5" y="-496" font-family="Helvetica,sans-Serif" font-size="10.00">+</text>
<text text-anchor="start" x="442" y="-496" font-family="Helvetica,sans-Serif" font-size="10.00">PooledAllocator()</text>
<text text-anchor="start" x="422.5" y="-481" font-family="Helvetica,sans-Serif" font-size="10.00">+</text>
<text text-anchor="start" x="442" y="-481" font-family="Helvetica,sans-Serif" font-size="10.00">~PooledAllocator()</text>
<text text-anchor="start" x="422.5" y="-466" font-family="Helvetica,sans-Serif" font-size="10.00">+</text>
<text text-anchor="start" x="442" y="-466" font-family="Helvetica,sans-Serif" font-size="10.00">free_all()</text>
<text text-anchor="start" x="422.5" y="-451" font-family="Helvetica,sans-Serif" font-size="10.00">+</text>
<text text-anchor="start" x="442" y="-451" font-family="Helvetica,sans-Serif" font-size="10.00">malloc()</text>
<text text-anchor="start" x="422.5" y="-436" font-family="Helvetica,sans-Serif" font-size="10.00">+</text>
<text text-anchor="start" x="442" y="-436" font-family="Helvetica,sans-Serif" font-size="10.00">allocate()</text>
<polygon fill="#666666" stroke="#666666" points="412,-536 412,-536 553,-536 553,-536 412,-536"/>
<polygon fill="#666666" stroke="#666666" points="412,-506 412,-506 440,-506 440,-506 412,-506"/>
<polygon fill="#666666" stroke="#666666" points="440,-506 440,-506 553,-506 553,-506 440,-506"/>
<polygon fill="none" stroke="#666666" points="411.5,-429 411.5,-553 552.5,-553 552.5,-429 411.5,-429"/>
</a>
</g>
</g>
<!-- Node4&#45;&gt;Node1 -->
<g id="edge4_Node000001_Node000004" class="edge">
<title>Node4&#45;&gt;Node1</title>
<g id="a_edge4_Node000001_Node000004"><a xlink:title=" ">
<path fill="none" stroke="#63b8ff" d="M452.54,-428.93C443.67,-410.53 433.43,-389.3 422.74,-367.14"/>
<polygon fill="none" stroke="#63b8ff" points="422.68,-367.01 416.47,-363.34 417.47,-356.2 423.68,-359.87 422.68,-367.01"/>
</a>
</g>
<text text-anchor="middle" x="448" y="-377" font-family="Helvetica,sans-Serif" font-size="10.00" fill="grey"> +pool_</text>
</g>
</g>
</svg>

<g id="navigator" transform="translate(0 0)" fill="#404254">
  <rect fill="#f2f5e9" fill-opacity="0.5" stroke="#606060" stroke-width=".5" x="0" y="0" width="60" height="60"/>
  <use id="zoomplus" xlink:href="#zoomPlus" x="17" y="9" onmousedown="handleZoom(evt,'in')"/>
  <use id="zoomminus" xlink:href="#zoomMin" x="42" y="9" onmousedown="handleZoom(evt,'out')"/>
  <use id="reset" xlink:href="#resetDef" x="30" y="36" onmousedown="handleReset()"/>
   <use id="arrowup" xlink:href="#arrowUp" x="0" y="0" onmousedown="handlePan(0,-1)"/>
  <use id="arrowright" xlink:href="#arrowRight" x="0" y="0" onmousedown="handlePan(1,0)"/>
  <use id="arrowdown" xlink:href="#arrowDown" x="0" y="0" onmousedown="handlePan(0,1)"/>
  <use id="arrowleft" xlink:href="#arrowLeft" x="0" y="0" onmousedown="handlePan(-1,0)"/>
</g>
<svg viewBox="0 0 15 15" width="100%" height="30px" preserveAspectRatio="xMaxYMin meet">
 <g id="arrow_out" transform="scale(0.3 0.3)">
  <a xlink:href="classnanoflann_1_1KDTreeBaseClass__coll__graph_org.svg" target="_base">
   <rect id="button" ry="5" rx="5" y="6" x="6" height="38" width="38"
        fill="#f2f5e9" fill-opacity="0.5" stroke="#606060" stroke-width="1.0"/>
   <path id="arrow"
     d="M 11.500037,31.436501 C 11.940474,20.09759 22.043105,11.32322 32.158766,21.979434 L 37.068811,17.246167 C 37.068811,17.246167 37.088388,32 37.088388,32 L 22.160133,31.978069 C 22.160133,31.978069 26.997745,27.140456 26.997745,27.140456 C 18.528582,18.264221 13.291696,25.230495 11.500037,31.436501 z"
     style="fill:#404040;"/>
  </a>
 </g>
</svg>

<style type='text/css'>
<![CDATA[
[data-mouse-over-selected='false'] { opacity: 0.7; }
[data-mouse-over-selected='true']  { opacity: 1.0; }
]]>
</style>
<script type="application/ecmascript"><![CDATA[
document.addEventListener('DOMContentLoaded', (event) => {
  highlightEdges();
  highlightAdjacentNodes();
});
]]></script>
</svg>
