<?xml version="1.0" encoding="UTF-8" standalone="no"?>
<!DOCTYPE svg PUBLIC "-//W3C//DTD SVG 1.1//EN"
 "http://www.w3.org/Graphics/SVG/1.1/DTD/svg11.dtd">
<!-- Generated by graphviz version 2.43.0 (0)
 -->
<!-- Title: PatchPacking::gofPatchPacking Pages: 1 -->
<svg width="371pt" height="134pt"
 viewBox="0.00 0.00 371.00 134.00" xmlns="http://www.w3.org/2000/svg" xmlns:xlink="http://www.w3.org/1999/xlink">
<g id="graph0" class="graph" transform="scale(1 1) rotate(0) translate(4 130)">
<title>PatchPacking::gofPatchPacking</title>
<!-- Node1 -->
<g id="Node000001" class="node">
<title>Node1</title>
<g id="a_Node000001"><a xlink:title=" ">
<polygon fill="#999999" stroke="#666666" points="166,-72.5 0,-72.5 0,-53.5 166,-53.5 166,-72.5"/>
<text text-anchor="middle" x="83" y="-60.5" font-family="Helvetica,sans-Serif" font-size="10.00">PatchPacking::gofPatchPacking</text>
</a>
</g>
</g>
<!-- Node2 -->
<g id="Node000002" class="node">
<title>Node2</title>
<g id="a_Node000002"><a xlink:href="classPatchPacking.html#a52deb9540d234496e20ef760ecc0dd54" target="_top" xlink:title=" ">
<polygon fill="white" stroke="#666666" points="363,-126 202,-126 202,-96 363,-96 363,-126"/>
<text text-anchor="start" x="210" y="-114" font-family="Helvetica,sans-Serif" font-size="10.00">PatchPacking::allocateDefault</text>
<text text-anchor="middle" x="282.5" y="-103" font-family="Helvetica,sans-Serif" font-size="10.00">OccupancyMap</text>
</a>
</g>
</g>
<!-- Node1&#45;&gt;Node2 -->
<g id="edge1_Node000001_Node000002" class="edge">
<title>Node1&#45;&gt;Node2</title>
<g id="a_edge1_Node000001_Node000002"><a xlink:title=" ">
<path fill="none" stroke="#63b8ff" d="M123.49,-72.6C148.17,-78.6 180.68,-86.5 209.8,-93.57"/>
<polygon fill="#63b8ff" stroke="#63b8ff" points="208.98,-96.98 219.52,-95.94 210.63,-90.17 208.98,-96.98"/>
</a>
</g>
</g>
<!-- Node3 -->
<g id="Node000003" class="node">
<title>Node3</title>
<g id="a_Node000003"><a xlink:href="classPatchPacking.html#a1f7d7e56508922503b11cbe49d4d21ba" target="_top" xlink:title=" ">
<polygon fill="white" stroke="#666666" points="351.5,-78 213.5,-78 213.5,-48 351.5,-48 351.5,-78"/>
<text text-anchor="start" x="221.5" y="-66" font-family="Helvetica,sans-Serif" font-size="10.00">PatchPacking::frameInter</text>
<text text-anchor="middle" x="282.5" y="-55" font-family="Helvetica,sans-Serif" font-size="10.00">PatchPacking</text>
</a>
</g>
</g>
<!-- Node1&#45;&gt;Node3 -->
<g id="edge2_Node000001_Node000003" class="edge">
<title>Node1&#45;&gt;Node3</title>
<g id="a_edge2_Node000001_Node000003"><a xlink:title=" ">
<path fill="none" stroke="#63b8ff" d="M166.04,-63C178.38,-63 191.07,-63 203.33,-63"/>
<polygon fill="#63b8ff" stroke="#63b8ff" points="203.5,-66.5 213.5,-63 203.5,-59.5 203.5,-66.5"/>
</a>
</g>
</g>
<!-- Node4 -->
<g id="Node000004" class="node">
<title>Node4</title>
<g id="a_Node000004"><a xlink:href="classPatchPacking.html#ae18c38bf6f8d8681f7bc4020eb8146c3" target="_top" xlink:title=" ">
<polygon fill="white" stroke="#666666" points="351.5,-30 213.5,-30 213.5,0 351.5,0 351.5,-30"/>
<text text-anchor="start" x="221.5" y="-18" font-family="Helvetica,sans-Serif" font-size="10.00">PatchPacking::frameIntra</text>
<text text-anchor="middle" x="282.5" y="-7" font-family="Helvetica,sans-Serif" font-size="10.00">PatchPacking</text>
</a>
</g>
</g>
<!-- Node1&#45;&gt;Node4 -->
<g id="edge3_Node000001_Node000004" class="edge">
<title>Node1&#45;&gt;Node4</title>
<g id="a_edge3_Node000001_Node000004"><a xlink:title=" ">
<path fill="none" stroke="#63b8ff" d="M123.49,-53.4C148.17,-47.4 180.68,-39.5 209.8,-32.43"/>
<polygon fill="#63b8ff" stroke="#63b8ff" points="210.63,-35.83 219.52,-30.06 208.98,-29.02 210.63,-35.83"/>
</a>
</g>
</g>
</g>
</svg>
