<?xml version="1.0" encoding="UTF-8" standalone="no"?>
<!DOCTYPE svg PUBLIC "-//W3C//DTD SVG 1.1//EN"
 "http://www.w3.org/Graphics/SVG/1.1/DTD/svg11.dtd">
<!-- Generated by graphviz version 2.43.0 (0)
 -->
<!-- Title: PatchSegmentation::patchSegmentation Pages: 1 -->
<svg width="492pt" height="200pt"
 viewBox="0.00 0.00 492.00 200.00" xmlns="http://www.w3.org/2000/svg" xmlns:xlink="http://www.w3.org/1999/xlink">
<g id="graph0" class="graph" transform="scale(1 1) rotate(0) translate(4 196)">
<title>PatchSegmentation::patchSegmentation</title>
<!-- Node1 -->
<g id="Node000001" class="node">
<title>Node1</title>
<g id="a_Node000001"><a xlink:title=" ">
<polygon fill="#999999" stroke="#666666" points="117,-120 0,-120 0,-90 117,-90 117,-120"/>
<text text-anchor="start" x="8" y="-108" font-family="Helvetica,sans-Serif" font-size="10.00">PatchSegmentation::</text>
<text text-anchor="middle" x="58.5" y="-97" font-family="Helvetica,sans-Serif" font-size="10.00">patchSegmentation</text>
</a>
</g>
</g>
<!-- Node2 -->
<g id="Node000002" class="node">
<title>Node2</title>
<g id="a_Node000002"><a xlink:href="namespaceFileExport.html#a77ccae02b99d57cd4d828bee46139f51" target="_top" xlink:title=" ">
<polygon fill="white" stroke="#666666" points="316,-192 161,-192 161,-162 316,-162 316,-192"/>
<text text-anchor="start" x="169" y="-180" font-family="Helvetica,sans-Serif" font-size="10.00">FileExport::exportPointCloud</text>
<text text-anchor="middle" x="238.5" y="-169" font-family="Helvetica,sans-Serif" font-size="10.00">PatchSegmentationBorder</text>
</a>
</g>
</g>
<!-- Node1&#45;&gt;Node2 -->
<g id="edge1_Node000001_Node000002" class="edge">
<title>Node1&#45;&gt;Node2</title>
<g id="a_edge1_Node000001_Node000002"><a xlink:title=" ">
<path fill="none" stroke="#63b8ff" d="M85.45,-120.09C103.87,-130.35 129.4,-143.7 153,-153 158.14,-155.03 163.52,-156.96 168.97,-158.79"/>
<polygon fill="#63b8ff" stroke="#63b8ff" points="168.22,-162.22 178.81,-161.96 170.37,-155.56 168.22,-162.22"/>
</a>
</g>
</g>
<!-- Node4 -->
<g id="Node000004" class="node">
<title>Node4</title>
<g id="a_Node000004"><a xlink:href="namespaceFileExport.html#afa65f718975b30cc1387729f9e355b75" target="_top" xlink:title=" ">
<polygon fill="white" stroke="#666666" points="324,-144 153,-144 153,-114 324,-114 324,-144"/>
<text text-anchor="start" x="161" y="-132" font-family="Helvetica,sans-Serif" font-size="10.00">FileExport::exportPointCloud</text>
<text text-anchor="middle" x="238.5" y="-121" font-family="Helvetica,sans-Serif" font-size="10.00">PatchSegmentationBorderBlank</text>
</a>
</g>
</g>
<!-- Node1&#45;&gt;Node4 -->
<g id="edge3_Node000001_Node000004" class="edge">
<title>Node1&#45;&gt;Node4</title>
<g id="a_edge3_Node000001_Node000004"><a xlink:title=" ">
<path fill="none" stroke="#63b8ff" d="M117.29,-112.79C125.46,-113.89 134.04,-115.05 142.68,-116.22"/>
<polygon fill="#63b8ff" stroke="#63b8ff" points="142.47,-119.72 152.85,-117.59 143.41,-112.78 142.47,-119.72"/>
</a>
</g>
</g>
<!-- Node5 -->
<g id="Node000005" class="node">
<title>Node5</title>
<g id="a_Node000005"><a xlink:href="namespaceFileExport.html#a05bd491ceaac33ece5f9ce26395d0cbd" target="_top" xlink:title=" ">
<polygon fill="white" stroke="#666666" points="316,-96 161,-96 161,-66 316,-66 316,-96"/>
<text text-anchor="start" x="169" y="-84" font-family="Helvetica,sans-Serif" font-size="10.00">FileExport::exportPointCloud</text>
<text text-anchor="middle" x="238.5" y="-73" font-family="Helvetica,sans-Serif" font-size="10.00">PatchSegmentationColor</text>
</a>
</g>
</g>
<!-- Node1&#45;&gt;Node5 -->
<g id="edge5_Node000001_Node000005" class="edge">
<title>Node1&#45;&gt;Node5</title>
<g id="a_edge5_Node000001_Node000005"><a xlink:title=" ">
<path fill="none" stroke="#63b8ff" d="M117.29,-97.21C128.05,-95.76 139.5,-94.21 150.9,-92.68"/>
<polygon fill="#63b8ff" stroke="#63b8ff" points="151.44,-96.13 160.89,-91.33 150.51,-89.2 151.44,-96.13"/>
</a>
</g>
</g>
<!-- Node6 -->
<g id="Node000006" class="node">
<title>Node6</title>
<g id="a_Node000006"><a xlink:href="classrobin__hood_1_1detail_1_1Table.html#a6c2d436df6800ac290cc26da5961a331" target="_top" xlink:title=" ">
<polygon fill="white" stroke="#666666" points="290.5,-30 186.5,-30 186.5,0 290.5,0 290.5,-30"/>
<text text-anchor="start" x="194.5" y="-18" font-family="Helvetica,sans-Serif" font-size="10.00">robin_hood::detail</text>
<text text-anchor="middle" x="238.5" y="-7" font-family="Helvetica,sans-Serif" font-size="10.00">::Table::reserve</text>
</a>
</g>
</g>
<!-- Node1&#45;&gt;Node6 -->
<g id="edge7_Node000001_Node000006" class="edge">
<title>Node1&#45;&gt;Node6</title>
<g id="a_edge7_Node000001_Node000006"><a xlink:title=" ">
<path fill="none" stroke="#63b8ff" d="M88.51,-89.98C106.95,-80.47 131.34,-67.94 153,-57 167.63,-49.61 183.74,-41.58 197.93,-34.54"/>
<polygon fill="#63b8ff" stroke="#63b8ff" points="199.54,-37.64 206.94,-30.07 196.43,-31.37 199.54,-37.64"/>
</a>
</g>
</g>
<!-- Node3 -->
<g id="Node000003" class="node">
<title>Node3</title>
<g id="a_Node000003"><a xlink:href="namespaceuvgvpcc__enc.html#a69b2cb991ff48de10ff75bc3c0582a54" target="_top" xlink:title=" ">
<polygon fill="white" stroke="#666666" points="484,-138.5 360,-138.5 360,-119.5 484,-119.5 484,-138.5"/>
<text text-anchor="middle" x="422" y="-126.5" font-family="Helvetica,sans-Serif" font-size="10.00">uvgvpcc_enc::zeroPad</text>
</a>
</g>
</g>
<!-- Node2&#45;&gt;Node3 -->
<g id="edge2_Node000002_Node000003" class="edge">
<title>Node2&#45;&gt;Node3</title>
<g id="a_edge2_Node000002_Node000003"><a xlink:title=" ">
<path fill="none" stroke="#63b8ff" d="M296.43,-161.94C321.72,-155.26 351.1,-147.49 374.97,-141.17"/>
<polygon fill="#63b8ff" stroke="#63b8ff" points="376.06,-144.5 384.83,-138.56 374.27,-137.74 376.06,-144.5"/>
</a>
</g>
</g>
<!-- Node4&#45;&gt;Node3 -->
<g id="edge4_Node000004_Node000003" class="edge">
<title>Node4&#45;&gt;Node3</title>
<g id="a_edge4_Node000004_Node000003"><a xlink:title=" ">
<path fill="none" stroke="#63b8ff" d="M324.14,-129C332.68,-129 341.29,-129 349.68,-129"/>
<polygon fill="#63b8ff" stroke="#63b8ff" points="349.76,-132.5 359.76,-129 349.76,-125.5 349.76,-132.5"/>
</a>
</g>
</g>
<!-- Node5&#45;&gt;Node3 -->
<g id="edge6_Node000005_Node000003" class="edge">
<title>Node5&#45;&gt;Node3</title>
<g id="a_edge6_Node000005_Node000003"><a xlink:title=" ">
<path fill="none" stroke="#63b8ff" d="M296.43,-96.06C321.72,-102.74 351.1,-110.51 374.97,-116.83"/>
<polygon fill="#63b8ff" stroke="#63b8ff" points="374.27,-120.26 384.83,-119.44 376.06,-113.5 374.27,-120.26"/>
</a>
</g>
</g>
<!-- Node6&#45;&gt;Node6 -->
<g id="edge8_Node000006_Node000006" class="edge">
<title>Node6&#45;&gt;Node6</title>
<g id="a_edge8_Node000006_Node000006"><a xlink:title=" ">
<path fill="none" stroke="#63b8ff" d="M206.86,-30.28C199.83,-39.41 210.38,-48 238.5,-48 255.2,-48 265.7,-44.97 270.01,-40.6"/>
<polygon fill="#63b8ff" stroke="#63b8ff" points="273.51,-40.32 270.14,-30.28 266.51,-40.23 273.51,-40.32"/>
</a>
</g>
</g>
</g>
</svg>
