<?xml version="1.0" encoding="UTF-8" standalone="no"?>
<!DOCTYPE svg PUBLIC "-//W3C//DTD SVG 1.1//EN"
 "http://www.w3.org/Graphics/SVG/1.1/DTD/svg11.dtd">
<!-- Generated by graphviz version 2.43.0 (0)
 -->
<!-- Title: v3c_gof::write_v3c_chunk Pages: 1 -->
<svg width="618pt" height="227pt"
 viewBox="0.00 0.00 618.00 226.50" xmlns="http://www.w3.org/2000/svg" xmlns:xlink="http://www.w3.org/1999/xlink">
<g id="graph0" class="graph" transform="scale(1 1) rotate(0) translate(4 222.5)">
<title>v3c_gof::write_v3c_chunk</title>
<!-- Node1 -->
<g id="Node000001" class="node">
<title>Node1</title>
<g id="a_Node000001"><a xlink:title=" ">
<polygon fill="#999999" stroke="#666666" points="107,-116.5 0,-116.5 0,-86.5 107,-86.5 107,-116.5"/>
<text text-anchor="start" x="8" y="-104.5" font-family="Helvetica,sans-Serif" font-size="10.00">v3c_gof::write_v3c</text>
<text text-anchor="middle" x="53.5" y="-93.5" font-family="Helvetica,sans-Serif" font-size="10.00">_chunk</text>
</a>
</g>
</g>
<!-- Node2 -->
<g id="Node000002" class="node">
<title>Node2</title>
<g id="a_Node000002"><a xlink:href="classuvgvpcc__enc_1_1Logger.html#af125e72496c52fe57a8aafaadc445ac2" target="_top" xlink:title=" ">
<polygon fill="white" stroke="#666666" points="283,-211 143,-211 143,-192 283,-192 283,-211"/>
<text text-anchor="middle" x="213" y="-199" font-family="Helvetica,sans-Serif" font-size="10.00">uvgvpcc_enc::Logger::log</text>
</a>
</g>
</g>
<!-- Node1&#45;&gt;Node2 -->
<g id="edge1_Node000001_Node000002" class="edge">
<title>Node1&#45;&gt;Node2</title>
<g id="a_edge1_Node000001_Node000002"><a xlink:title=" ">
<path fill="none" stroke="#63b8ff" d="M70.44,-116.59C87.42,-132.08 115.58,-156.18 143,-172.5 152.92,-178.4 164.26,-183.7 174.84,-188.1"/>
<polygon fill="#63b8ff" stroke="#63b8ff" points="173.7,-191.42 184.28,-191.89 176.3,-184.92 173.7,-191.42"/>
</a>
</g>
</g>
<!-- Node4 -->
<g id="Node000004" class="node">
<title>Node4</title>
<g id="a_Node000004"><a xlink:href="bitstream__util_8cpp.html#ac69c20ee312c7d90392e8a6b3b06341a" target="_top" xlink:title="Copy array of bytes to a byte&#45;aligned bitstream.">
<polygon fill="white" stroke="#666666" points="446.5,-170.5 330.5,-170.5 330.5,-140.5 446.5,-140.5 446.5,-170.5"/>
<text text-anchor="start" x="338.5" y="-158.5" font-family="Helvetica,sans-Serif" font-size="10.00">uvg_bitstream_copy</text>
<text text-anchor="middle" x="388.5" y="-147.5" font-family="Helvetica,sans-Serif" font-size="10.00">_bytes</text>
</a>
</g>
</g>
<!-- Node1&#45;&gt;Node4 -->
<g id="edge3_Node000001_Node000004" class="edge">
<title>Node1&#45;&gt;Node4</title>
<g id="a_edge3_Node000001_Node000004"><a xlink:title=" ">
<path fill="none" stroke="#63b8ff" d="M82.75,-116.56C99.72,-124.86 122.03,-134.47 143,-139.5 201.7,-153.58 270.45,-156.97 320.07,-157.19"/>
<polygon fill="#63b8ff" stroke="#63b8ff" points="320.36,-160.69 330.36,-157.19 320.36,-153.69 320.36,-160.69"/>
</a>
</g>
</g>
<!-- Node6 -->
<g id="Node000006" class="node">
<title>Node6</title>
<g id="a_Node000006"><a xlink:href="bitstream__util_8cpp.html#a3bdf77ac9496bba79a46c840a4042550" target="_top" xlink:title=" ">
<polygon fill="white" stroke="#666666" points="277,-130 149,-130 149,-111 277,-111 277,-130"/>
<text text-anchor="middle" x="213" y="-118" font-family="Helvetica,sans-Serif" font-size="10.00">uvg_bitstream_finalize</text>
</a>
</g>
</g>
<!-- Node1&#45;&gt;Node6 -->
<g id="edge5_Node000001_Node000006" class="edge">
<title>Node1&#45;&gt;Node6</title>
<g id="a_edge5_Node000001_Node000006"><a xlink:title=" ">
<path fill="none" stroke="#63b8ff" d="M107.38,-107.88C117.47,-109.1 128.2,-110.39 138.8,-111.67"/>
<polygon fill="#63b8ff" stroke="#63b8ff" points="138.54,-115.16 148.89,-112.89 139.38,-108.21 138.54,-115.16"/>
</a>
</g>
</g>
<!-- Node8 -->
<g id="Node000008" class="node">
<title>Node8</title>
<g id="a_Node000008"><a xlink:href="bitstream__util_8cpp.html#a6ad7f5421e391ce3552b43f2c387ad59" target="_top" xlink:title=" ">
<polygon fill="white" stroke="#666666" points="267,-93 159,-93 159,-74 267,-74 267,-93"/>
<text text-anchor="middle" x="213" y="-81" font-family="Helvetica,sans-Serif" font-size="10.00">uvg_bitstream_init</text>
</a>
</g>
</g>
<!-- Node1&#45;&gt;Node8 -->
<g id="edge7_Node000001_Node000008" class="edge">
<title>Node1&#45;&gt;Node8</title>
<g id="a_edge7_Node000001_Node000008"><a xlink:title=" ">
<path fill="none" stroke="#63b8ff" d="M107.38,-95.46C120.63,-93.94 134.97,-92.3 148.67,-90.74"/>
<polygon fill="#63b8ff" stroke="#63b8ff" points="149.45,-94.17 158.99,-89.56 148.66,-87.22 149.45,-94.17"/>
</a>
</g>
</g>
<!-- Node9 -->
<g id="Node000009" class="node">
<title>Node9</title>
<g id="a_Node000009"><a xlink:href="bitstream__util_8cpp.html#a0e5e61b87281454f22e12f063c0bbeb6" target="_top" xlink:title=" ">
<polygon fill="white" stroke="#666666" points="267,-56 159,-56 159,-37 267,-37 267,-56"/>
<text text-anchor="middle" x="213" y="-44" font-family="Helvetica,sans-Serif" font-size="10.00">uvg_bitstream_put</text>
</a>
</g>
</g>
<!-- Node1&#45;&gt;Node9 -->
<g id="edge8_Node000001_Node000009" class="edge">
<title>Node1&#45;&gt;Node9</title>
<g id="a_edge8_Node000001_Node000009"><a xlink:title=" ">
<path fill="none" stroke="#63b8ff" d="M89.03,-86.35C105.25,-79.52 124.94,-71.64 143,-65.5 149.87,-63.16 157.21,-60.9 164.43,-58.81"/>
<polygon fill="#63b8ff" stroke="#63b8ff" points="165.48,-62.15 174.15,-56.06 163.58,-55.41 165.48,-62.15"/>
</a>
</g>
</g>
<!-- Node11 -->
<g id="Node000011" class="node">
<title>Node11</title>
<g id="a_Node000011"><a xlink:href="bitstream__util_8cpp.html#aa11755e3025221790473c013345959ab" target="_top" xlink:title=" ">
<polygon fill="white" stroke="#666666" points="267,-19 159,-19 159,0 267,0 267,-19"/>
<text text-anchor="middle" x="213" y="-7" font-family="Helvetica,sans-Serif" font-size="10.00">uvg_bitstream_tell</text>
</a>
</g>
</g>
<!-- Node1&#45;&gt;Node11 -->
<g id="edge11_Node000001_Node000011" class="edge">
<title>Node1&#45;&gt;Node11</title>
<g id="a_edge11_Node000001_Node000011"><a xlink:title=" ">
<path fill="none" stroke="#63b8ff" d="M68.37,-86.44C84.67,-69.64 113.27,-42.82 143,-27.5 146.71,-25.59 150.65,-23.86 154.68,-22.32"/>
<polygon fill="#63b8ff" stroke="#63b8ff" points="155.9,-25.6 164.21,-19.01 153.61,-18.98 155.9,-25.6"/>
</a>
</g>
</g>
<!-- Node3 -->
<g id="Node000003" class="node">
<title>Node3</title>
<g id="a_Node000003"><a xlink:href="classuvgvpcc__enc_1_1Logger.html#a93dc0b596dbe176e77961cb5caf71507" target="_top" xlink:title=" ">
<polygon fill="white" stroke="#666666" points="448,-218.5 329,-218.5 329,-188.5 448,-188.5 448,-218.5"/>
<text text-anchor="start" x="337" y="-206.5" font-family="Helvetica,sans-Serif" font-size="10.00">uvgvpcc_enc::Logger</text>
<text text-anchor="middle" x="388.5" y="-195.5" font-family="Helvetica,sans-Serif" font-size="10.00">::getLogLevel</text>
</a>
</g>
</g>
<!-- Node2&#45;&gt;Node3 -->
<g id="edge2_Node000002_Node000003" class="edge">
<title>Node2&#45;&gt;Node3</title>
<g id="a_edge2_Node000002_Node000003"><a xlink:title=" ">
<path fill="none" stroke="#63b8ff" d="M283.07,-202.3C294.76,-202.43 306.91,-202.57 318.6,-202.71"/>
<polygon fill="#63b8ff" stroke="#63b8ff" points="318.69,-206.21 328.73,-202.82 318.77,-199.21 318.69,-206.21"/>
</a>
</g>
</g>
<!-- Node5 -->
<g id="Node000005" class="node">
<title>Node5</title>
<g id="a_Node000005"><a xlink:href="bitstream__util_8cpp.html#a7b8aab2d25c86997e6d1462e4cbcd30f" target="_top" xlink:title=" ">
<polygon fill="white" stroke="#666666" points="610,-119.5 494,-119.5 494,-89.5 610,-89.5 610,-119.5"/>
<text text-anchor="start" x="502" y="-107.5" font-family="Helvetica,sans-Serif" font-size="10.00">uvg_bitstream_alloc</text>
<text text-anchor="middle" x="552" y="-96.5" font-family="Helvetica,sans-Serif" font-size="10.00">_chunk</text>
</a>
</g>
</g>
<!-- Node4&#45;&gt;Node5 -->
<g id="edge4_Node000004_Node000005" class="edge">
<title>Node4&#45;&gt;Node5</title>
<g id="a_edge4_Node000004_Node000005"><a xlink:title=" ">
<path fill="none" stroke="#63b8ff" d="M437.08,-140.47C454.83,-134.87 475.16,-128.45 493.69,-122.6"/>
<polygon fill="#63b8ff" stroke="#63b8ff" points="495,-125.86 503.48,-119.51 492.89,-119.18 495,-125.86"/>
</a>
</g>
</g>
<!-- Node7 -->
<g id="Node000007" class="node">
<title>Node7</title>
<g id="a_Node000007"><a xlink:href="bitstream__util_8cpp.html#a9f9ae794155176e68c744fa3f2ed57cd" target="_top" xlink:title=" ">
<polygon fill="white" stroke="#666666" points="444.5,-122.5 332.5,-122.5 332.5,-92.5 444.5,-92.5 444.5,-122.5"/>
<text text-anchor="start" x="340.5" y="-110.5" font-family="Helvetica,sans-Serif" font-size="10.00">uvg_bitstream_free</text>
<text text-anchor="middle" x="388.5" y="-99.5" font-family="Helvetica,sans-Serif" font-size="10.00">_chunks</text>
</a>
</g>
</g>
<!-- Node6&#45;&gt;Node7 -->
<g id="edge6_Node000006_Node000007" class="edge">
<title>Node6&#45;&gt;Node7</title>
<g id="a_edge6_Node000006_Node000007"><a xlink:title=" ">
<path fill="none" stroke="#63b8ff" d="M277.13,-115.77C291.85,-114.67 307.55,-113.49 322.36,-112.38"/>
<polygon fill="#63b8ff" stroke="#63b8ff" points="322.73,-115.86 332.44,-111.63 322.21,-108.88 322.73,-115.86"/>
</a>
</g>
</g>
<!-- Node10 -->
<g id="Node000010" class="node">
<title>Node10</title>
<g id="a_Node000010"><a xlink:href="bitstream__util_8cpp.html#a7cf378cfbd682b58c16948ad8935d7bc" target="_top" xlink:title="Write a byte to bitstream.">
<polygon fill="white" stroke="#666666" points="458,-69 319,-69 319,-50 458,-50 458,-69"/>
<text text-anchor="middle" x="388.5" y="-57" font-family="Helvetica,sans-Serif" font-size="10.00">uvg_bitstream_writebyte</text>
</a>
</g>
</g>
<!-- Node9&#45;&gt;Node10 -->
<g id="edge9_Node000009_Node000010" class="edge">
<title>Node9&#45;&gt;Node10</title>
<g id="a_edge9_Node000009_Node000010"><a xlink:title=" ">
<path fill="none" stroke="#63b8ff" d="M267.47,-50.51C280.53,-51.49 294.78,-52.55 308.74,-53.6"/>
<polygon fill="#63b8ff" stroke="#63b8ff" points="308.61,-57.1 318.84,-54.36 309.13,-50.12 308.61,-57.1"/>
</a>
</g>
</g>
<!-- Node10&#45;&gt;Node5 -->
<g id="edge10_Node000010_Node000005" class="edge">
<title>Node10&#45;&gt;Node5</title>
<g id="a_edge10_Node000010_Node000005"><a xlink:title=" ">
<path fill="none" stroke="#63b8ff" d="M423.75,-69.04C442.22,-74.19 465.61,-80.71 487.28,-86.75"/>
<polygon fill="#63b8ff" stroke="#63b8ff" points="486.52,-90.17 497.1,-89.48 488.4,-83.42 486.52,-90.17"/>
</a>
</g>
</g>
</g>
</svg>
