<?xml version="1.0" encoding="UTF-8" standalone="no"?>
<!DOCTYPE svg PUBLIC "-//W3C//DTD SVG 1.1//EN"
 "http://www.w3.org/Graphics/SVG/1.1/DTD/svg11.dtd">
<!-- Generated by graphviz version 2.43.0 (0)
 -->
<!-- Title: MapGeneration::generateFrameMaps Pages: 1 -->
<svg width="578pt" height="236pt"
 viewBox="0.00 0.00 578.00 236.00" xmlns="http://www.w3.org/2000/svg" xmlns:xlink="http://www.w3.org/1999/xlink">
<g id="graph0" class="graph" transform="scale(1 1) rotate(0) translate(4 232)">
<title>MapGeneration::generateFrameMaps</title>
<!-- Node1 -->
<g id="Node000001" class="node">
<title>Node1</title>
<g id="a_Node000001"><a xlink:title=" ">
<polygon fill="#999999" stroke="#666666" points="198,-126 0,-126 0,-107 198,-107 198,-126"/>
<text text-anchor="middle" x="99" y="-114" font-family="Helvetica,sans-Serif" font-size="10.00">MapGeneration::generateFrameMaps</text>
</a>
</g>
</g>
<!-- Node2 -->
<g id="Node000002" class="node">
<title>Node2</title>
<g id="a_Node000002"><a xlink:href="bgFillAttribute_8cpp.html#ab0d3290d5e51fe3166e7aaf415374f3f" target="_top" xlink:title=" ">
<polygon fill="white" stroke="#666666" points="377,-228 291,-228 291,-209 377,-209 377,-228"/>
<text text-anchor="middle" x="334" y="-216" font-family="Helvetica,sans-Serif" font-size="10.00">bgFillAttribute</text>
</a>
</g>
</g>
<!-- Node1&#45;&gt;Node2 -->
<g id="edge1_Node000001_Node000002" class="edge">
<title>Node1&#45;&gt;Node2</title>
<g id="a_edge1_Node000001_Node000002"><a xlink:title=" ">
<path fill="none" stroke="#63b8ff" d="M111.72,-126.05C134.05,-143.72 184.85,-181.44 234,-200.5 248.7,-206.2 265.33,-210.12 280.72,-212.8"/>
<polygon fill="#63b8ff" stroke="#63b8ff" points="280.18,-216.26 290.61,-214.39 281.29,-209.35 280.18,-216.26"/>
</a>
</g>
</g>
<!-- Node3 -->
<g id="Node000003" class="node">
<title>Node3</title>
<g id="a_Node000003"><a xlink:href="bgFillGeometry_8cpp.html#a1277492db5cb54d9ebc8cae8ea6b3a87" target="_top" xlink:title=" ">
<polygon fill="white" stroke="#666666" points="380,-191 288,-191 288,-172 380,-172 380,-191"/>
<text text-anchor="middle" x="334" y="-179" font-family="Helvetica,sans-Serif" font-size="10.00">bgFillGeometry</text>
</a>
</g>
</g>
<!-- Node1&#45;&gt;Node3 -->
<g id="edge2_Node000001_Node000003" class="edge">
<title>Node1&#45;&gt;Node3</title>
<g id="a_edge2_Node000001_Node000003"><a xlink:title=" ">
<path fill="none" stroke="#63b8ff" d="M124.38,-126.03C150.99,-136.16 195.02,-152.12 234,-162.5 248.02,-166.23 263.34,-169.54 277.64,-172.3"/>
<polygon fill="#63b8ff" stroke="#63b8ff" points="277.37,-175.81 287.85,-174.22 278.67,-168.93 277.37,-175.81"/>
</a>
</g>
</g>
<!-- Node4 -->
<g id="Node000004" class="node">
<title>Node4</title>
<g id="a_Node000004"><a xlink:href="namespaceFileExport.html#a7ce79028d0f1956f0de29a43ffbdc27b" target="_top" xlink:title=" ">
<polygon fill="white" stroke="#666666" points="422,-153.5 246,-153.5 246,-123.5 422,-123.5 422,-153.5"/>
<text text-anchor="start" x="254" y="-141.5" font-family="Helvetica,sans-Serif" font-size="10.00">FileExport::exportImageAttribute</text>
<text text-anchor="middle" x="334" y="-130.5" font-family="Helvetica,sans-Serif" font-size="10.00">BgFill</text>
</a>
</g>
</g>
<!-- Node1&#45;&gt;Node4 -->
<g id="edge3_Node000001_Node000004" class="edge">
<title>Node1&#45;&gt;Node4</title>
<g id="a_edge3_Node000001_Node000004"><a xlink:title=" ">
<path fill="none" stroke="#63b8ff" d="M198.14,-125.77C210.48,-126.93 223.1,-128.12 235.43,-129.29"/>
<polygon fill="#63b8ff" stroke="#63b8ff" points="235.42,-132.8 245.71,-130.26 236.08,-125.83 235.42,-132.8"/>
</a>
</g>
</g>
<!-- Node6 -->
<g id="Node000006" class="node">
<title>Node6</title>
<g id="a_Node000006"><a xlink:href="namespaceFileExport.html#a38357fd7781625e0a9c44f6d1ce8b04c" target="_top" xlink:title=" ">
<polygon fill="white" stroke="#666666" points="432.5,-105 235.5,-105 235.5,-86 432.5,-86 432.5,-105"/>
<text text-anchor="middle" x="334" y="-93" font-family="Helvetica,sans-Serif" font-size="10.00">FileExport::exportImageAttributeYUV</text>
</a>
</g>
</g>
<!-- Node1&#45;&gt;Node6 -->
<g id="edge5_Node000001_Node000006" class="edge">
<title>Node1&#45;&gt;Node6</title>
<g id="a_edge5_Node000001_Node000006"><a xlink:title=" ">
<path fill="none" stroke="#63b8ff" d="M198.14,-107.65C207.08,-106.85 216.18,-106.03 225.2,-105.22"/>
<polygon fill="#63b8ff" stroke="#63b8ff" points="225.7,-108.68 235.35,-104.3 225.07,-101.71 225.7,-108.68"/>
</a>
</g>
</g>
<!-- Node7 -->
<g id="Node000007" class="node">
<title>Node7</title>
<g id="a_Node000007"><a xlink:href="namespaceFileExport.html#a14f1fd295139088b2c1c130ebd36dbe3" target="_top" xlink:title=" ">
<polygon fill="white" stroke="#666666" points="425,-67.5 243,-67.5 243,-37.5 425,-37.5 425,-67.5"/>
<text text-anchor="start" x="251" y="-55.5" font-family="Helvetica,sans-Serif" font-size="10.00">FileExport::exportImageGeometry</text>
<text text-anchor="middle" x="334" y="-44.5" font-family="Helvetica,sans-Serif" font-size="10.00">BgFill</text>
</a>
</g>
</g>
<!-- Node1&#45;&gt;Node7 -->
<g id="edge7_Node000001_Node000007" class="edge">
<title>Node1&#45;&gt;Node7</title>
<g id="a_edge7_Node000001_Node000007"><a xlink:title=" ">
<path fill="none" stroke="#63b8ff" d="M131.59,-106.96C158.68,-98.86 198.81,-87.06 234,-77.5 243.08,-75.03 252.65,-72.52 262.11,-70.07"/>
<polygon fill="#63b8ff" stroke="#63b8ff" points="263.1,-73.43 271.91,-67.56 261.36,-66.65 263.1,-73.43"/>
</a>
</g>
</g>
<!-- Node8 -->
<g id="Node000008" class="node">
<title>Node8</title>
<g id="a_Node000008"><a xlink:href="namespaceFileExport.html#af3572e7dc6a5bb93770e300f64313b2f" target="_top" xlink:title=" ">
<polygon fill="white" stroke="#666666" points="434,-19 234,-19 234,0 434,0 434,-19"/>
<text text-anchor="middle" x="334" y="-7" font-family="Helvetica,sans-Serif" font-size="10.00">FileExport::exportImageOccupancyDS</text>
</a>
</g>
</g>
<!-- Node1&#45;&gt;Node8 -->
<g id="edge9_Node000001_Node000008" class="edge">
<title>Node1&#45;&gt;Node8</title>
<g id="a_edge9_Node000001_Node000008"><a xlink:title=" ">
<path fill="none" stroke="#63b8ff" d="M111.31,-106.8C133.34,-88.45 184.22,-48.69 234,-28.5 240.58,-25.83 247.56,-23.53 254.65,-21.55"/>
<polygon fill="#63b8ff" stroke="#63b8ff" points="255.54,-24.93 264.35,-19.04 253.79,-18.16 255.54,-24.93"/>
</a>
</g>
</g>
<!-- Node5 -->
<g id="Node000005" class="node">
<title>Node5</title>
<g id="a_Node000005"><a xlink:href="namespaceuvgutils.html#a0abc693a4c9342061a1247ee333c53eb" target="_top" xlink:title=" ">
<polygon fill="white" stroke="#666666" points="570,-83 470,-83 470,-64 570,-64 570,-83"/>
<text text-anchor="middle" x="520" y="-71" font-family="Helvetica,sans-Serif" font-size="10.00">uvgutils::zeroPad</text>
</a>
</g>
</g>
<!-- Node4&#45;&gt;Node5 -->
<g id="edge4_Node000004_Node000005" class="edge">
<title>Node4&#45;&gt;Node5</title>
<g id="a_edge4_Node000004_Node000005"><a xlink:title=" ">
<path fill="none" stroke="#63b8ff" d="M405.05,-123.48C414.87,-120.81 424.76,-117.81 434,-114.5 454.37,-107.21 476.35,-96.53 492.85,-87.9"/>
<polygon fill="#63b8ff" stroke="#63b8ff" points="494.7,-90.88 501.88,-83.09 491.41,-84.7 494.7,-90.88"/>
</a>
</g>
</g>
<!-- Node6&#45;&gt;Node5 -->
<g id="edge6_Node000006_Node000005" class="edge">
<title>Node6&#45;&gt;Node5</title>
<g id="a_edge6_Node000006_Node000005"><a xlink:title=" ">
<path fill="none" stroke="#63b8ff" d="M414.63,-85.98C429.72,-84.17 445.25,-82.32 459.58,-80.6"/>
<polygon fill="#63b8ff" stroke="#63b8ff" points="460.26,-84.05 469.77,-79.39 459.43,-77.1 460.26,-84.05"/>
</a>
</g>
</g>
<!-- Node7&#45;&gt;Node5 -->
<g id="edge8_Node000007_Node000005" class="edge">
<title>Node7&#45;&gt;Node5</title>
<g id="a_edge8_Node000007_Node000005"><a xlink:title=" ">
<path fill="none" stroke="#63b8ff" d="M425.11,-62.78C436.71,-64.11 448.34,-65.44 459.27,-66.68"/>
<polygon fill="#63b8ff" stroke="#63b8ff" points="459.19,-70.2 469.52,-67.85 459.98,-63.24 459.19,-70.2"/>
</a>
</g>
</g>
<!-- Node8&#45;&gt;Node5 -->
<g id="edge10_Node000008_Node000005" class="edge">
<title>Node8&#45;&gt;Node5</title>
<g id="a_edge10_Node000008_Node000005"><a xlink:title=" ">
<path fill="none" stroke="#63b8ff" d="M399.65,-19.03C411.25,-21.55 423.1,-24.67 434,-28.5 455.73,-36.14 478.72,-48.61 495.3,-58.49"/>
<polygon fill="#63b8ff" stroke="#63b8ff" points="493.9,-61.74 504.27,-63.95 497.55,-55.76 493.9,-61.74"/>
</a>
</g>
</g>
</g>
</svg>
