<?xml version="1.0" encoding="UTF-8" standalone="no"?>
<!DOCTYPE svg PUBLIC "-//W3C//DTD SVG 1.1//EN"
 "http://www.w3.org/Graphics/SVG/1.1/DTD/svg11.dtd">
<!-- Generated by graphviz version 2.43.0 (0)
 -->
<!-- Title: PPISegmenter::refineSegmentation Pages: 1 -->
<svg width="546pt" height="76pt"
 viewBox="0.00 0.00 546.00 75.50" xmlns="http://www.w3.org/2000/svg" xmlns:xlink="http://www.w3.org/1999/xlink">
<g id="graph0" class="graph" transform="scale(1 1) rotate(0) translate(4 71.5)">
<title>PPISegmenter::refineSegmentation</title>
<!-- Node1 -->
<g id="Node000001" class="node">
<title>Node1</title>
<g id="a_Node000001"><a xlink:title=" ">
<polygon fill="#999999" stroke="#666666" points="187,-45.5 0,-45.5 0,-26.5 187,-26.5 187,-45.5"/>
<text text-anchor="middle" x="93.5" y="-33.5" font-family="Helvetica,sans-Serif" font-size="10.00">PPISegmenter::refineSegmentation</text>
</a>
</g>
</g>
<!-- Node2 -->
<g id="Node000002" class="node">
<title>Node2</title>
<g id="a_Node000002"><a xlink:href="classStatsCollector.html#ab1a99cc3ba798bf5d01e16156d8afe41" target="_top" xlink:title=" ">
<polygon fill="white" stroke="#666666" points="373.5,-67.5 227.5,-67.5 227.5,-48.5 373.5,-48.5 373.5,-67.5"/>
<text text-anchor="middle" x="300.5" y="-55.5" font-family="Helvetica,sans-Serif" font-size="10.00">StatsCollector::collectData</text>
</a>
</g>
</g>
<!-- Node1&#45;&gt;Node2 -->
<g id="edge1_Node000001_Node000002" class="edge">
<title>Node1&#45;&gt;Node2</title>
<g id="a_edge1_Node000001_Node000002"><a xlink:title=" ">
<path fill="none" stroke="#63b8ff" d="M183.22,-45.52C194.49,-46.73 205.98,-47.96 217.15,-49.16"/>
<polygon fill="#63b8ff" stroke="#63b8ff" points="216.97,-52.66 227.29,-50.25 217.72,-45.7 216.97,-52.66"/>
</a>
</g>
</g>
<!-- Node3 -->
<g id="Node000003" class="node">
<title>Node3</title>
<g id="a_Node000003"><a xlink:href="namespaceFileExport.html#abb3934fea49bd8651d8498d236496bb8" target="_top" xlink:title=" ">
<polygon fill="white" stroke="#666666" points="378,-30 223,-30 223,0 378,0 378,-30"/>
<text text-anchor="start" x="231" y="-18" font-family="Helvetica,sans-Serif" font-size="10.00">FileExport::exportPointCloud</text>
<text text-anchor="middle" x="300.5" y="-7" font-family="Helvetica,sans-Serif" font-size="10.00">RefineSegmentation</text>
</a>
</g>
</g>
<!-- Node1&#45;&gt;Node3 -->
<g id="edge2_Node000001_Node000003" class="edge">
<title>Node1&#45;&gt;Node3</title>
<g id="a_edge2_Node000001_Node000003"><a xlink:title=" ">
<path fill="none" stroke="#63b8ff" d="M187.1,-26.51C195.72,-25.63 204.43,-24.74 212.99,-23.86"/>
<polygon fill="#63b8ff" stroke="#63b8ff" points="213.37,-27.34 222.96,-22.84 212.65,-20.38 213.37,-27.34"/>
</a>
</g>
</g>
<!-- Node4 -->
<g id="Node000004" class="node">
<title>Node4</title>
<g id="a_Node000004"><a xlink:href="namespaceuvgvpcc__enc.html#a69b2cb991ff48de10ff75bc3c0582a54" target="_top" xlink:title=" ">
<polygon fill="white" stroke="#666666" points="538,-24.5 414,-24.5 414,-5.5 538,-5.5 538,-24.5"/>
<text text-anchor="middle" x="476" y="-12.5" font-family="Helvetica,sans-Serif" font-size="10.00">uvgvpcc_enc::zeroPad</text>
</a>
</g>
</g>
<!-- Node3&#45;&gt;Node4 -->
<g id="edge3_Node000003_Node000004" class="edge">
<title>Node3&#45;&gt;Node4</title>
<g id="a_edge3_Node000003_Node000004"><a xlink:title=" ">
<path fill="none" stroke="#63b8ff" d="M378.1,-15C386.62,-15 395.27,-15 403.72,-15"/>
<polygon fill="#63b8ff" stroke="#63b8ff" points="403.91,-18.5 413.91,-15 403.91,-11.5 403.91,-18.5"/>
</a>
</g>
</g>
</g>
</svg>
