<?xml version="1.0" encoding="UTF-8" standalone="no"?>
<!DOCTYPE svg PUBLIC "-//W3C//DTD SVG 1.1//EN"
 "http://www.w3.org/Graphics/SVG/1.1/DTD/svg11.dtd">
<!-- Generated by graphviz version 2.43.0 (0)
 -->
<!-- Title: uvgvpcc_enc::Job::setExecutionMethod Pages: 1 -->
<svg width="701pt" height="104pt"
 viewBox="0.00 0.00 701.00 104.00" xmlns="http://www.w3.org/2000/svg" xmlns:xlink="http://www.w3.org/1999/xlink">
<g id="graph0" class="graph" transform="scale(1 1) rotate(0) translate(4 100)">
<title>uvgvpcc_enc::Job::setExecutionMethod</title>
<!-- Node1 -->
<g id="Node000001" class="node">
<title>Node1</title>
<g id="a_Node000001"><a xlink:title=" ">
<polygon fill="#999999" stroke="#666666" points="169,-72 0,-72 0,-42 169,-42 169,-72"/>
<text text-anchor="start" x="8" y="-60" font-family="Helvetica,sans-Serif" font-size="10.00">uvgvpcc_enc::Job::setExecution</text>
<text text-anchor="middle" x="84.5" y="-49" font-family="Helvetica,sans-Serif" font-size="10.00">Method</text>
</a>
</g>
</g>
<!-- Node2 -->
<g id="Node000002" class="node">
<title>Node2</title>
<g id="a_Node000002"><a xlink:href="classuvgvpcc__enc_1_1Job.html#a03a6d90c801275c5bb513432b0d11c8e" target="_top" xlink:title=" ">
<polygon fill="white" stroke="#666666" points="350,-96 205,-96 205,-66 350,-66 350,-96"/>
<text text-anchor="start" x="213" y="-84" font-family="Helvetica,sans-Serif" font-size="10.00">uvgvpcc_enc::Job::execute</text>
<text text-anchor="middle" x="277.5" y="-73" font-family="Helvetica,sans-Serif" font-size="10.00">NoTimer</text>
</a>
</g>
</g>
<!-- Node1&#45;&gt;Node2 -->
<g id="edge1_Node000001_Node000002" class="edge">
<title>Node1&#45;&gt;Node2</title>
<g id="a_edge1_Node000001_Node000002"><a xlink:title=" ">
<path fill="none" stroke="#63b8ff" d="M169.28,-67.53C177.68,-68.58 186.22,-69.66 194.6,-70.71"/>
<polygon fill="#63b8ff" stroke="#63b8ff" points="194.39,-74.21 204.75,-71.98 195.26,-67.26 194.39,-74.21"/>
</a>
</g>
</g>
<!-- Node3 -->
<g id="Node000003" class="node">
<title>Node3</title>
<g id="a_Node000003"><a xlink:href="classuvgvpcc__enc_1_1Job.html#a03ce044f441a0ceceb61cb04a6ace0d7" target="_top" xlink:title=" ">
<polygon fill="white" stroke="#666666" points="350,-48 205,-48 205,-18 350,-18 350,-48"/>
<text text-anchor="start" x="213" y="-36" font-family="Helvetica,sans-Serif" font-size="10.00">uvgvpcc_enc::Job::execute</text>
<text text-anchor="middle" x="277.5" y="-25" font-family="Helvetica,sans-Serif" font-size="10.00">Timer</text>
</a>
</g>
</g>
<!-- Node1&#45;&gt;Node3 -->
<g id="edge2_Node000001_Node000003" class="edge">
<title>Node1&#45;&gt;Node3</title>
<g id="a_edge2_Node000001_Node000003"><a xlink:title=" ">
<path fill="none" stroke="#63b8ff" d="M169.28,-46.47C177.68,-45.42 186.22,-44.34 194.6,-43.29"/>
<polygon fill="#63b8ff" stroke="#63b8ff" points="195.26,-46.74 204.75,-42.02 194.39,-39.79 195.26,-46.74"/>
</a>
</g>
</g>
<!-- Node4 -->
<g id="Node000004" class="node">
<title>Node4</title>
<g id="a_Node000004"><a xlink:href="classuvgvpcc__enc_1_1Job.html#a5f316185e7cead1e22db38fc064ae3ca" target="_top" xlink:title=" ">
<polygon fill="white" stroke="#666666" points="538,-61.5 386,-61.5 386,-42.5 538,-42.5 538,-61.5"/>
<text text-anchor="middle" x="462" y="-49.5" font-family="Helvetica,sans-Serif" font-size="10.00">uvgvpcc_enc::Job::getName</text>
</a>
</g>
</g>
<!-- Node3&#45;&gt;Node4 -->
<g id="edge3_Node000003_Node000004" class="edge">
<title>Node3&#45;&gt;Node4</title>
<g id="a_edge3_Node000003_Node000004"><a xlink:title=" ">
<path fill="none" stroke="#63b8ff" d="M350.11,-40.45C358.57,-41.34 367.28,-42.24 375.91,-43.14"/>
<polygon fill="#63b8ff" stroke="#63b8ff" points="375.69,-46.64 385.99,-44.19 376.41,-39.67 375.69,-46.64"/>
</a>
</g>
</g>
<!-- Node5 -->
<g id="Node000005" class="node">
<title>Node5</title>
<g id="a_Node000005"><a xlink:href="classuvgvpcc__enc_1_1Logger.html#af125e72496c52fe57a8aafaadc445ac2" target="_top" xlink:title=" ">
<polygon fill="white" stroke="#666666" points="532,-24.5 392,-24.5 392,-5.5 532,-5.5 532,-24.5"/>
<text text-anchor="middle" x="462" y="-12.5" font-family="Helvetica,sans-Serif" font-size="10.00">uvgvpcc_enc::Logger::log</text>
</a>
</g>
</g>
<!-- Node3&#45;&gt;Node5 -->
<g id="edge4_Node000003_Node000005" class="edge">
<title>Node3&#45;&gt;Node5</title>
<g id="a_edge4_Node000003_Node000005"><a xlink:title=" ">
<path fill="none" stroke="#63b8ff" d="M350.11,-25.94C360.55,-24.91 371.35,-23.84 381.93,-22.8"/>
<polygon fill="#63b8ff" stroke="#63b8ff" points="382.38,-26.27 391.99,-21.81 381.7,-19.3 382.38,-26.27"/>
</a>
</g>
</g>
<!-- Node6 -->
<g id="Node000006" class="node">
<title>Node6</title>
<g id="a_Node000006"><a xlink:href="classuvgvpcc__enc_1_1Logger.html#a93dc0b596dbe176e77961cb5caf71507" target="_top" xlink:title=" ">
<polygon fill="white" stroke="#666666" points="693,-30 574,-30 574,0 693,0 693,-30"/>
<text text-anchor="start" x="582" y="-18" font-family="Helvetica,sans-Serif" font-size="10.00">uvgvpcc_enc::Logger</text>
<text text-anchor="middle" x="633.5" y="-7" font-family="Helvetica,sans-Serif" font-size="10.00">::getLogLevel</text>
</a>
</g>
</g>
<!-- Node5&#45;&gt;Node6 -->
<g id="edge5_Node000005_Node000006" class="edge">
<title>Node5&#45;&gt;Node6</title>
<g id="a_edge5_Node000005_Node000006"><a xlink:title=" ">
<path fill="none" stroke="#63b8ff" d="M532.43,-15C542.79,-15 553.45,-15 563.79,-15"/>
<polygon fill="#63b8ff" stroke="#63b8ff" points="564,-18.5 574,-15 564,-11.5 564,-18.5"/>
</a>
</g>
</g>
</g>
</svg>
