<?xml version="1.0" encoding="UTF-8" standalone="no"?>
<!DOCTYPE svg PUBLIC "-//W3C//DTD SVG 1.1//EN"
 "http://www.w3.org/Graphics/SVG/1.1/DTD/svg11.dtd">
<!-- Generated by graphviz version 2.43.0 (0)
 -->
<!-- Title: vps::write_vps Pages: 1 -->
<svg width="955pt" height="140pt"
 viewBox="0.00 0.00 955.00 139.91" xmlns="http://www.w3.org/2000/svg" xmlns:xlink="http://www.w3.org/1999/xlink">
<g id="graph0" class="graph" transform="scale(1 1) rotate(0) translate(4 135.91)">
<title>vps::write_vps</title>
<!-- Node1 -->
<g id="Node000001" class="node">
<title>Node1</title>
<g id="a_Node000001"><a xlink:title=" ">
<polygon fill="#999999" stroke="#666666" points="87,-83.41 0,-83.41 0,-64.41 87,-64.41 87,-83.41"/>
<text text-anchor="middle" x="43.5" y="-71.41" font-family="Helvetica,sans-Serif" font-size="10.00">vps::write_vps</text>
</a>
</g>
</g>
<!-- Node2 -->
<g id="Node000002" class="node">
<title>Node2</title>
<g id="a_Node000002"><a xlink:href="bitstream__util_8cpp.html#a7a68eb472ffb2162b61292d074642d4c" target="_top" xlink:title=" ">
<polygon fill="white" stroke="#666666" points="239,-123.41 123,-123.41 123,-104.41 239,-104.41 239,-123.41"/>
<text text-anchor="middle" x="181" y="-111.41" font-family="Helvetica,sans-Serif" font-size="10.00">uvg_bitstream_align</text>
</a>
</g>
</g>
<!-- Node1&#45;&gt;Node2 -->
<g id="edge1_Node000001_Node000002" class="edge">
<title>Node1&#45;&gt;Node2</title>
<g id="a_edge1_Node000001_Node000002"><a xlink:title=" ">
<path fill="none" stroke="#63b8ff" d="M76.96,-83.49C95.31,-88.91 118.45,-95.74 138.16,-101.56"/>
<polygon fill="#63b8ff" stroke="#63b8ff" points="137.23,-104.93 147.81,-104.41 139.21,-98.22 137.23,-104.93"/>
</a>
</g>
</g>
<!-- Node7 -->
<g id="Node000007" class="node">
<title>Node7</title>
<g id="a_Node000007"><a xlink:href="bitstream__util_8cpp.html#aa8c4c50cd09a25e7222ff889eb4fa737" target="_top" xlink:title=" ">
<polygon fill="white" stroke="#666666" points="205.5,-46.41 156.5,-46.41 156.5,-27.41 205.5,-27.41 205.5,-46.41"/>
<text text-anchor="middle" x="181" y="-34.41" font-family="Helvetica,sans-Serif" font-size="10.00">writeU</text>
</a>
</g>
</g>
<!-- Node1&#45;&gt;Node7 -->
<g id="edge6_Node000001_Node000007" class="edge">
<title>Node1&#45;&gt;Node7</title>
<g id="a_edge6_Node000001_Node000007"><a xlink:title=" ">
<path fill="none" stroke="#63b8ff" d="M79.39,-64.38C100.06,-58.74 126.09,-51.63 146.51,-46.05"/>
<polygon fill="#63b8ff" stroke="#63b8ff" points="147.59,-49.39 156.32,-43.38 145.75,-42.63 147.59,-49.39"/>
</a>
</g>
</g>
<!-- Node10 -->
<g id="Node000010" class="node">
<title>Node10</title>
<g id="a_Node000010"><a xlink:href="bitstream__util_8cpp.html#ae284706aa3795e821fc5e735c7195149" target="_top" xlink:title=" ">
<polygon fill="white" stroke="#666666" points="208.5,-83.41 153.5,-83.41 153.5,-64.41 208.5,-64.41 208.5,-83.41"/>
<text text-anchor="middle" x="181" y="-71.41" font-family="Helvetica,sans-Serif" font-size="10.00">writeUE</text>
</a>
</g>
</g>
<!-- Node1&#45;&gt;Node10 -->
<g id="edge10_Node000001_Node000010" class="edge">
<title>Node1&#45;&gt;Node10</title>
<g id="a_edge10_Node000001_Node000010"><a xlink:title=" ">
<path fill="none" stroke="#63b8ff" d="M87,-73.91C105,-73.91 125.77,-73.91 143.11,-73.91"/>
<polygon fill="#63b8ff" stroke="#63b8ff" points="143.41,-77.41 153.41,-73.91 143.41,-70.41 143.41,-77.41"/>
</a>
</g>
</g>
<!-- Node3 -->
<g id="Node000003" class="node">
<title>Node3</title>
<g id="a_Node000003"><a xlink:href="bitstream__util_8cpp.html#a423bd5bc72b723f5642a91deb7a5cb0b" target="_top" xlink:title=" ">
<polygon fill="white" stroke="#666666" points="436,-131.91 299,-131.91 299,-101.91 436,-101.91 436,-131.91"/>
<text text-anchor="start" x="307" y="-119.91" font-family="Helvetica,sans-Serif" font-size="10.00">uvg_bitstream_add_rbsp</text>
<text text-anchor="middle" x="367.5" y="-108.91" font-family="Helvetica,sans-Serif" font-size="10.00">_trailing_bits</text>
</a>
</g>
</g>
<!-- Node2&#45;&gt;Node3 -->
<g id="edge2_Node000002_Node000003" class="edge">
<title>Node2&#45;&gt;Node3</title>
<g id="a_edge2_Node000002_Node000003"><a xlink:title=" ">
<path fill="none" stroke="#63b8ff" d="M239.11,-114.84C254.8,-115.09 272.08,-115.37 288.72,-115.64"/>
<polygon fill="#63b8ff" stroke="#63b8ff" points="288.92,-119.15 298.98,-115.81 289.04,-112.15 288.92,-119.15"/>
</a>
</g>
</g>
<!-- Node4 -->
<g id="Node000004" class="node">
<title>Node4</title>
<g id="a_Node000004"><a xlink:href="bitstream__util_8cpp.html#a0e5e61b87281454f22e12f063c0bbeb6" target="_top" xlink:title=" ">
<polygon fill="white" stroke="#666666" points="612,-83.41 504,-83.41 504,-64.41 612,-64.41 612,-83.41"/>
<text text-anchor="middle" x="558" y="-71.41" font-family="Helvetica,sans-Serif" font-size="10.00">uvg_bitstream_put</text>
</a>
</g>
</g>
<!-- Node3&#45;&gt;Node4 -->
<g id="edge3_Node000003_Node000004" class="edge">
<title>Node3&#45;&gt;Node4</title>
<g id="a_edge3_Node000003_Node000004"><a xlink:title=" ">
<path fill="none" stroke="#63b8ff" d="M434.43,-101.87C457.72,-96.56 483.56,-90.66 505.48,-85.66"/>
<polygon fill="#63b8ff" stroke="#63b8ff" points="506.29,-89.07 515.26,-83.43 504.73,-82.24 506.29,-89.07"/>
</a>
</g>
</g>
<!-- Node5 -->
<g id="Node000005" class="node">
<title>Node5</title>
<g id="a_Node000005"><a xlink:href="bitstream__util_8cpp.html#a7cf378cfbd682b58c16948ad8935d7bc" target="_top" xlink:title="Write a byte to bitstream.">
<polygon fill="white" stroke="#666666" points="795,-83.41 656,-83.41 656,-64.41 795,-64.41 795,-83.41"/>
<text text-anchor="middle" x="725.5" y="-71.41" font-family="Helvetica,sans-Serif" font-size="10.00">uvg_bitstream_writebyte</text>
</a>
</g>
</g>
<!-- Node4&#45;&gt;Node5 -->
<g id="edge4_Node000004_Node000005" class="edge">
<title>Node4&#45;&gt;Node5</title>
<g id="a_edge4_Node000004_Node000005"><a xlink:title=" ">
<path fill="none" stroke="#63b8ff" d="M612.28,-73.91C622.91,-73.91 634.29,-73.91 645.58,-73.91"/>
<polygon fill="#63b8ff" stroke="#63b8ff" points="645.89,-77.41 655.89,-73.91 645.89,-70.41 645.89,-77.41"/>
</a>
</g>
</g>
<!-- Node6 -->
<g id="Node000006" class="node">
<title>Node6</title>
<g id="a_Node000006"><a xlink:href="bitstream__util_8cpp.html#a7b8aab2d25c86997e6d1462e4cbcd30f" target="_top" xlink:title=" ">
<polygon fill="white" stroke="#666666" points="947,-88.91 831,-88.91 831,-58.91 947,-58.91 947,-88.91"/>
<text text-anchor="start" x="839" y="-76.91" font-family="Helvetica,sans-Serif" font-size="10.00">uvg_bitstream_alloc</text>
<text text-anchor="middle" x="889" y="-65.91" font-family="Helvetica,sans-Serif" font-size="10.00">_chunk</text>
</a>
</g>
</g>
<!-- Node5&#45;&gt;Node6 -->
<g id="edge5_Node000005_Node000006" class="edge">
<title>Node5&#45;&gt;Node6</title>
<g id="a_edge5_Node000005_Node000006"><a xlink:title=" ">
<path fill="none" stroke="#63b8ff" d="M795.46,-73.91C803.87,-73.91 812.46,-73.91 820.84,-73.91"/>
<polygon fill="#63b8ff" stroke="#63b8ff" points="820.94,-77.41 830.94,-73.91 820.94,-70.41 820.94,-77.41"/>
</a>
</g>
</g>
<!-- Node7&#45;&gt;Node4 -->
<g id="edge9_Node000007_Node000004" class="edge">
<title>Node7&#45;&gt;Node4</title>
<g id="a_edge9_Node000007_Node000004"><a xlink:title=" ">
<path fill="none" stroke="#63b8ff" d="M205.54,-28.35C255.02,-11.8 372.45,19.75 460,-17.91 481.37,-27.1 476.16,-43.75 496,-55.91 498.78,-57.61 501.72,-59.16 504.77,-60.57"/>
<polygon fill="#63b8ff" stroke="#63b8ff" points="503.51,-63.84 514.1,-64.38 506.16,-57.36 503.51,-63.84"/>
</a>
</g>
</g>
<!-- Node8 -->
<g id="Node000008" class="node">
<title>Node8</title>
<g id="a_Node000008"><a xlink:href="namespaceFileExport.html#a7aeaa297ad205055b403629f094bec0d" target="_top" xlink:title=" ">
<polygon fill="white" stroke="#666666" points="460,-46.41 275,-46.41 275,-27.41 460,-27.41 460,-46.41"/>
<text text-anchor="middle" x="367.5" y="-34.41" font-family="Helvetica,sans-Serif" font-size="10.00">FileExport::exportAtlasInformation</text>
</a>
</g>
</g>
<!-- Node7&#45;&gt;Node8 -->
<g id="edge7_Node000007_Node000008" class="edge">
<title>Node7&#45;&gt;Node8</title>
<g id="a_edge7_Node000007_Node000008"><a xlink:title=" ">
<path fill="none" stroke="#63b8ff" d="M205.74,-36.91C221.19,-36.91 242.5,-36.91 264.56,-36.91"/>
<polygon fill="#63b8ff" stroke="#63b8ff" points="264.73,-40.41 274.73,-36.91 264.73,-33.41 264.73,-40.41"/>
</a>
</g>
</g>
<!-- Node9 -->
<g id="Node000009" class="node">
<title>Node9</title>
<g id="a_Node000009"><a xlink:href="namespaceuvgvpcc__enc.html#a69b2cb991ff48de10ff75bc3c0582a54" target="_top" xlink:title=" ">
<polygon fill="white" stroke="#666666" points="620,-46.41 496,-46.41 496,-27.41 620,-27.41 620,-46.41"/>
<text text-anchor="middle" x="558" y="-34.41" font-family="Helvetica,sans-Serif" font-size="10.00">uvgvpcc_enc::zeroPad</text>
</a>
</g>
</g>
<!-- Node8&#45;&gt;Node9 -->
<g id="edge8_Node000008_Node000009" class="edge">
<title>Node8&#45;&gt;Node9</title>
<g id="a_edge8_Node000008_Node000009"><a xlink:title=" ">
<path fill="none" stroke="#63b8ff" d="M460.27,-36.91C468.85,-36.91 477.47,-36.91 485.82,-36.91"/>
<polygon fill="#63b8ff" stroke="#63b8ff" points="485.87,-40.41 495.87,-36.91 485.87,-33.41 485.87,-40.41"/>
</a>
</g>
</g>
<!-- Node10&#45;&gt;Node8 -->
<g id="edge11_Node000010_Node000008" class="edge">
<title>Node10&#45;&gt;Node8</title>
<g id="a_edge11_Node000010_Node000008"><a xlink:title=" ">
<path fill="none" stroke="#63b8ff" d="M208.83,-68.53C234.91,-63.3 275.38,-55.18 308.78,-48.48"/>
<polygon fill="#63b8ff" stroke="#63b8ff" points="309.78,-51.85 318.9,-46.46 308.4,-44.99 309.78,-51.85"/>
</a>
</g>
</g>
<!-- Node11 -->
<g id="Node000011" class="node">
<title>Node11</title>
<g id="a_Node000011"><a xlink:href="bitstream__util_8cpp.html#a30bd11b6c91d37315d3ee911d83a72ed" target="_top" xlink:title=" ">
<polygon fill="white" stroke="#666666" points="430,-83.41 305,-83.41 305,-64.41 430,-64.41 430,-83.41"/>
<text text-anchor="middle" x="367.5" y="-71.41" font-family="Helvetica,sans-Serif" font-size="10.00">uvg_bitstream_put_ue</text>
</a>
</g>
</g>
<!-- Node10&#45;&gt;Node11 -->
<g id="edge12_Node000010_Node000011" class="edge">
<title>Node10&#45;&gt;Node11</title>
<g id="a_edge12_Node000010_Node000011"><a xlink:title=" ">
<path fill="none" stroke="#63b8ff" d="M208.83,-73.91C231.37,-73.91 264.64,-73.91 294.82,-73.91"/>
<polygon fill="#63b8ff" stroke="#63b8ff" points="294.91,-77.41 304.91,-73.91 294.91,-70.41 294.91,-77.41"/>
</a>
</g>
</g>
<!-- Node11&#45;&gt;Node4 -->
<g id="edge13_Node000011_Node000004" class="edge">
<title>Node11&#45;&gt;Node4</title>
<g id="a_edge13_Node000011_Node000004"><a xlink:title=" ">
<path fill="none" stroke="#63b8ff" d="M430.22,-73.91C450.61,-73.91 473.32,-73.91 493.82,-73.91"/>
<polygon fill="#63b8ff" stroke="#63b8ff" points="494,-77.41 504,-73.91 494,-70.41 494,-77.41"/>
</a>
</g>
</g>
</g>
</svg>
