<?xml version="1.0" encoding="UTF-8" standalone="no"?>
<!DOCTYPE svg PUBLIC "-//W3C//DTD SVG 1.1//EN"
 "http://www.w3.org/Graphics/SVG/1.1/DTD/svg11.dtd">
<!-- Generated by graphviz version 2.43.0 (0)
 -->
<!-- Title: nanoflann::KDTreeSingleIndexAdaptor&lt; Distance, DatasetAdaptor, DIM, IndexType &gt; Pages: 1 -->
<svg width="611pt" height="990pt"
 viewBox="0.00 0.00 611.00 990.00" xmlns="http://www.w3.org/2000/svg" xmlns:xlink="http://www.w3.org/1999/xlink">
<g id="graph0" class="graph" transform="scale(1 1) rotate(0) translate(4 986)">
<title>nanoflann::KDTreeSingleIndexAdaptor&lt; Distance, DatasetAdaptor, DIM, IndexType &gt;</title>
<!-- Node1 -->
<g id="Node000001" class="node">
<title>Node1</title>
<g id="a_Node000001"><a xlink:title=" ">
<polygon fill="#999999" stroke="transparent" points="522,-356 334,-356 334,0 522,0 522,-356"/>
<text text-anchor="start" x="339" y="-344" font-family="Helvetica,sans-Serif" font-size="10.00">nanoflann::KDTreeSingleIndex</text>
<text text-anchor="start" x="339" y="-333" font-family="Helvetica,sans-Serif" font-size="10.00">Adaptor&lt; Distance, DatasetAdaptor,</text>
<text text-anchor="start" x="383" y="-322" font-family="Helvetica,sans-Serif" font-size="10.00"> DIM, IndexType &gt;</text>
<text text-anchor="start" x="342" y="-307" font-family="Helvetica,sans-Serif" font-size="10.00">+</text>
<text text-anchor="start" x="359" y="-307" font-family="Helvetica,sans-Serif" font-size="10.00">dataset_</text>
<text text-anchor="start" x="342" y="-292" font-family="Helvetica,sans-Serif" font-size="10.00">+</text>
<text text-anchor="start" x="359" y="-292" font-family="Helvetica,sans-Serif" font-size="10.00">distance_</text>
<text text-anchor="start" x="342" y="-277" font-family="Helvetica,sans-Serif" font-size="10.00">+</text>
<text text-anchor="start" x="359" y="-277" font-family="Helvetica,sans-Serif" font-size="10.00">KDTreeSingleIndexAdaptor()</text>
<text text-anchor="start" x="342" y="-262" font-family="Helvetica,sans-Serif" font-size="10.00">+</text>
<text text-anchor="start" x="359" y="-262" font-family="Helvetica,sans-Serif" font-size="10.00">KDTreeSingleIndexAdaptor()</text>
<text text-anchor="start" x="342" y="-247" font-family="Helvetica,sans-Serif" font-size="10.00">+</text>
<text text-anchor="start" x="359" y="-247" font-family="Helvetica,sans-Serif" font-size="10.00">KDTreeSingleIndexAdaptor()</text>
<text text-anchor="start" x="342" y="-232" font-family="Helvetica,sans-Serif" font-size="10.00">+</text>
<text text-anchor="start" x="359" y="-232" font-family="Helvetica,sans-Serif" font-size="10.00">buildIndex()</text>
<text text-anchor="start" x="342" y="-217" font-family="Helvetica,sans-Serif" font-size="10.00">+</text>
<text text-anchor="start" x="359" y="-217" font-family="Helvetica,sans-Serif" font-size="10.00">init_vind()</text>
<text text-anchor="start" x="342" y="-202" font-family="Helvetica,sans-Serif" font-size="10.00">+</text>
<text text-anchor="start" x="359" y="-202" font-family="Helvetica,sans-Serif" font-size="10.00">computeBoundingBox()</text>
<text text-anchor="start" x="342" y="-187" font-family="Helvetica,sans-Serif" font-size="10.00">+</text>
<text text-anchor="start" x="359" y="-187" font-family="Helvetica,sans-Serif" font-size="10.00">searchLevel()</text>
<text text-anchor="start" x="342" y="-172" font-family="Helvetica,sans-Serif" font-size="10.00">+</text>
<text text-anchor="start" x="359" y="-172" font-family="Helvetica,sans-Serif" font-size="10.00">saveIndex()</text>
<text text-anchor="start" x="342" y="-157" font-family="Helvetica,sans-Serif" font-size="10.00">+</text>
<text text-anchor="start" x="359" y="-157" font-family="Helvetica,sans-Serif" font-size="10.00">loadIndex()</text>
<text text-anchor="start" x="342" y="-142" font-family="Helvetica,sans-Serif" font-size="10.00">+</text>
<text text-anchor="start" x="359" y="-142" font-family="Helvetica,sans-Serif" font-size="10.00">findNeighbors()</text>
<text text-anchor="start" x="342" y="-127" font-family="Helvetica,sans-Serif" font-size="10.00">+</text>
<text text-anchor="start" x="359" y="-127" font-family="Helvetica,sans-Serif" font-size="10.00">knnSearch()</text>
<text text-anchor="start" x="342" y="-112" font-family="Helvetica,sans-Serif" font-size="10.00">+</text>
<text text-anchor="start" x="359" y="-112" font-family="Helvetica,sans-Serif" font-size="10.00">radiusSearch()</text>
<text text-anchor="start" x="342" y="-97" font-family="Helvetica,sans-Serif" font-size="10.00">+</text>
<text text-anchor="start" x="359" y="-97" font-family="Helvetica,sans-Serif" font-size="10.00">radiusSearchCustomCallback()</text>
<text text-anchor="start" x="342" y="-82" font-family="Helvetica,sans-Serif" font-size="10.00">+</text>
<text text-anchor="start" x="359" y="-82" font-family="Helvetica,sans-Serif" font-size="10.00">rknnSearch()</text>
<text text-anchor="start" x="343.5" y="-67" font-family="Helvetica,sans-Serif" font-size="10.00">*</text>
<text text-anchor="start" x="359" y="-67" font-family="Helvetica,sans-Serif" font-size="10.00">findNeighbors()</text>
<text text-anchor="start" x="343.5" y="-52" font-family="Helvetica,sans-Serif" font-size="10.00">*</text>
<text text-anchor="start" x="359" y="-52" font-family="Helvetica,sans-Serif" font-size="10.00">knnSearch()</text>
<text text-anchor="start" x="343.5" y="-37" font-family="Helvetica,sans-Serif" font-size="10.00">*</text>
<text text-anchor="start" x="359" y="-37" font-family="Helvetica,sans-Serif" font-size="10.00">radiusSearch()</text>
<text text-anchor="start" x="343.5" y="-22" font-family="Helvetica,sans-Serif" font-size="10.00">*</text>
<text text-anchor="start" x="359" y="-22" font-family="Helvetica,sans-Serif" font-size="10.00">radiusSearchCustomCallback()</text>
<text text-anchor="start" x="343.5" y="-7" font-family="Helvetica,sans-Serif" font-size="10.00">*</text>
<text text-anchor="start" x="359" y="-7" font-family="Helvetica,sans-Serif" font-size="10.00">rknnSearch()</text>
<polygon fill="#666666" stroke="#666666" points="334,-317 334,-317 522,-317 522,-317 334,-317"/>
<polygon fill="#666666" stroke="#666666" points="334,-287 334,-287 357,-287 357,-287 334,-287"/>
<polygon fill="#666666" stroke="#666666" points="357,-287 357,-287 522,-287 522,-287 357,-287"/>
<polygon fill="none" stroke="#666666" points="334,0 334,-356 522,-356 522,0 334,0"/>
</a>
</g>
</g>
<!-- Node2 -->
<g id="Node000002" class="node">
<title>Node2</title>
<g id="a_Node000002"><a xlink:href="classnanoflann_1_1KDTreeBaseClass.html" target="_top" xlink:title=" ">
<polygon fill="white" stroke="transparent" points="429,-759 235,-759 235,-403 429,-403 429,-759"/>
<text text-anchor="start" x="240" y="-747" font-family="Helvetica,sans-Serif" font-size="10.00">nanoflann::KDTreeBaseClass</text>
<text text-anchor="start" x="240" y="-736" font-family="Helvetica,sans-Serif" font-size="10.00">&lt; Derived, Distance, DatasetAdaptor,</text>
<text text-anchor="start" x="287" y="-725" font-family="Helvetica,sans-Serif" font-size="10.00"> DIM, IndexType &gt;</text>
<text text-anchor="start" x="250.5" y="-710" font-family="Helvetica,sans-Serif" font-size="10.00">+</text>
<text text-anchor="start" x="275" y="-710" font-family="Helvetica,sans-Serif" font-size="10.00">vAcc_</text>
<text text-anchor="start" x="250.5" y="-695" font-family="Helvetica,sans-Serif" font-size="10.00">+</text>
<text text-anchor="start" x="275" y="-695" font-family="Helvetica,sans-Serif" font-size="10.00">leaf_max_size_</text>
<text text-anchor="start" x="250.5" y="-680" font-family="Helvetica,sans-Serif" font-size="10.00">+</text>
<text text-anchor="start" x="275" y="-680" font-family="Helvetica,sans-Serif" font-size="10.00">n_thread_build_</text>
<text text-anchor="start" x="250.5" y="-665" font-family="Helvetica,sans-Serif" font-size="10.00">+</text>
<text text-anchor="start" x="275" y="-665" font-family="Helvetica,sans-Serif" font-size="10.00">size_</text>
<text text-anchor="start" x="250.5" y="-650" font-family="Helvetica,sans-Serif" font-size="10.00">+</text>
<text text-anchor="start" x="275" y="-650" font-family="Helvetica,sans-Serif" font-size="10.00">size_at_index_build_</text>
<text text-anchor="start" x="250.5" y="-635" font-family="Helvetica,sans-Serif" font-size="10.00">+</text>
<text text-anchor="start" x="275" y="-635" font-family="Helvetica,sans-Serif" font-size="10.00">dim_</text>
<text text-anchor="start" x="250.5" y="-620" font-family="Helvetica,sans-Serif" font-size="10.00">+</text>
<text text-anchor="start" x="275" y="-620" font-family="Helvetica,sans-Serif" font-size="10.00">freeIndex()</text>
<text text-anchor="start" x="250.5" y="-605" font-family="Helvetica,sans-Serif" font-size="10.00">+</text>
<text text-anchor="start" x="275" y="-605" font-family="Helvetica,sans-Serif" font-size="10.00">size()</text>
<text text-anchor="start" x="250.5" y="-590" font-family="Helvetica,sans-Serif" font-size="10.00">+</text>
<text text-anchor="start" x="275" y="-590" font-family="Helvetica,sans-Serif" font-size="10.00">veclen()</text>
<text text-anchor="start" x="250.5" y="-575" font-family="Helvetica,sans-Serif" font-size="10.00">+</text>
<text text-anchor="start" x="275" y="-575" font-family="Helvetica,sans-Serif" font-size="10.00">dataset_get()</text>
<text text-anchor="start" x="250.5" y="-560" font-family="Helvetica,sans-Serif" font-size="10.00">+</text>
<text text-anchor="start" x="275" y="-560" font-family="Helvetica,sans-Serif" font-size="10.00">usedMemory()</text>
<text text-anchor="start" x="250.5" y="-545" font-family="Helvetica,sans-Serif" font-size="10.00">+</text>
<text text-anchor="start" x="275" y="-545" font-family="Helvetica,sans-Serif" font-size="10.00">computeMinMax()</text>
<text text-anchor="start" x="250.5" y="-530" font-family="Helvetica,sans-Serif" font-size="10.00">+</text>
<text text-anchor="start" x="275" y="-530" font-family="Helvetica,sans-Serif" font-size="10.00">divideTree()</text>
<text text-anchor="start" x="250.5" y="-515" font-family="Helvetica,sans-Serif" font-size="10.00">+</text>
<text text-anchor="start" x="275" y="-515" font-family="Helvetica,sans-Serif" font-size="10.00">divideTreeConcurrent()</text>
<text text-anchor="start" x="250.5" y="-500" font-family="Helvetica,sans-Serif" font-size="10.00">+</text>
<text text-anchor="start" x="275" y="-500" font-family="Helvetica,sans-Serif" font-size="10.00">middleSplit_()</text>
<text text-anchor="start" x="250.5" y="-485" font-family="Helvetica,sans-Serif" font-size="10.00">+</text>
<text text-anchor="start" x="275" y="-485" font-family="Helvetica,sans-Serif" font-size="10.00">planeSplit()</text>
<text text-anchor="start" x="250.5" y="-470" font-family="Helvetica,sans-Serif" font-size="10.00">+</text>
<text text-anchor="start" x="275" y="-470" font-family="Helvetica,sans-Serif" font-size="10.00">computeInitialDistances()</text>
<text text-anchor="start" x="250.5" y="-455" font-family="Helvetica,sans-Serif" font-size="10.00">+</text>
<text text-anchor="start" x="275" y="-455" font-family="Helvetica,sans-Serif" font-size="10.00">saveIndex()</text>
<text text-anchor="start" x="250.5" y="-440" font-family="Helvetica,sans-Serif" font-size="10.00">+</text>
<text text-anchor="start" x="275" y="-440" font-family="Helvetica,sans-Serif" font-size="10.00">loadIndex()</text>
<text text-anchor="start" x="250.5" y="-425" font-family="Helvetica,sans-Serif" font-size="10.00">+</text>
<text text-anchor="start" x="275" y="-425" font-family="Helvetica,sans-Serif" font-size="10.00">save_tree()</text>
<text text-anchor="start" x="250.5" y="-410" font-family="Helvetica,sans-Serif" font-size="10.00">+</text>
<text text-anchor="start" x="275" y="-410" font-family="Helvetica,sans-Serif" font-size="10.00">load_tree()</text>
<polygon fill="#666666" stroke="#666666" points="235,-720 235,-720 429,-720 429,-720 235,-720"/>
<polygon fill="#666666" stroke="#666666" points="235,-630 235,-630 273,-630 273,-630 235,-630"/>
<polygon fill="#666666" stroke="#666666" points="273,-630 273,-630 429,-630 429,-630 273,-630"/>
<polygon fill="none" stroke="#666666" points="235,-403 235,-759 429,-759 429,-403 235,-403"/>
</a>
</g>
</g>
<!-- Node2&#45;&gt;Node1 -->
<g id="edge1_Node000001_Node000002" class="edge">
<title>Node2&#45;&gt;Node1</title>
<g id="a_edge1_Node000001_Node000002"><a xlink:title=" ">
<path fill="none" stroke="#63b8ff" d="M376.74,-393.1C379.69,-380.8 382.65,-368.43 385.58,-356.18"/>
<polygon fill="none" stroke="#63b8ff" points="373.31,-392.41 374.39,-402.95 380.12,-394.04 373.31,-392.41"/>
</a>
</g>
</g>
<!-- Node3 -->
<g id="Node000003" class="node">
<title>Node3</title>
<g id="a_Node000003"><a xlink:href="structnanoflann_1_1KDTreeBaseClass_1_1Node.html" target="_top" xlink:title=" ">
<polygon fill="white" stroke="transparent" points="194,-982 0,-982 0,-806 194,-806 194,-982"/>
<text text-anchor="start" x="5" y="-970" font-family="Helvetica,sans-Serif" font-size="10.00">nanoflann::KDTreeBaseClass</text>
<text text-anchor="start" x="5" y="-959" font-family="Helvetica,sans-Serif" font-size="10.00">&lt; Derived, Distance, DatasetAdaptor,</text>
<text text-anchor="start" x="36.5" y="-948" font-family="Helvetica,sans-Serif" font-size="10.00"> DIM, IndexType &gt;::Node</text>
<text text-anchor="start" x="34" y="-933" font-family="Helvetica,sans-Serif" font-size="10.00">+</text>
<text text-anchor="start" x="77" y="-933" font-family="Helvetica,sans-Serif" font-size="10.00">left</text>
<text text-anchor="start" x="34" y="-918" font-family="Helvetica,sans-Serif" font-size="10.00">+</text>
<text text-anchor="start" x="77" y="-918" font-family="Helvetica,sans-Serif" font-size="10.00">right</text>
<text text-anchor="start" x="34" y="-903" font-family="Helvetica,sans-Serif" font-size="10.00">+</text>
<text text-anchor="start" x="77" y="-903" font-family="Helvetica,sans-Serif" font-size="10.00">lr</text>
<text text-anchor="start" x="34" y="-888" font-family="Helvetica,sans-Serif" font-size="10.00">+</text>
<text text-anchor="start" x="77" y="-888" font-family="Helvetica,sans-Serif" font-size="10.00">divfeat</text>
<text text-anchor="start" x="34" y="-873" font-family="Helvetica,sans-Serif" font-size="10.00">+</text>
<text text-anchor="start" x="77" y="-873" font-family="Helvetica,sans-Serif" font-size="10.00">divlow</text>
<text text-anchor="start" x="34" y="-858" font-family="Helvetica,sans-Serif" font-size="10.00">+</text>
<text text-anchor="start" x="77" y="-858" font-family="Helvetica,sans-Serif" font-size="10.00">divhigh</text>
<text text-anchor="start" x="34" y="-843" font-family="Helvetica,sans-Serif" font-size="10.00">+</text>
<text text-anchor="start" x="77" y="-843" font-family="Helvetica,sans-Serif" font-size="10.00">sub</text>
<text text-anchor="start" x="34" y="-828" font-family="Helvetica,sans-Serif" font-size="10.00">+</text>
<text text-anchor="start" x="77" y="-828" font-family="Helvetica,sans-Serif" font-size="10.00">node_type</text>
<text text-anchor="start" x="95" y="-813" font-family="Helvetica,sans-Serif" font-size="10.00"> </text>
<polygon fill="#666666" stroke="#666666" points="0,-943 0,-943 194,-943 194,-943 0,-943"/>
<polygon fill="#666666" stroke="#666666" points="0,-823 0,-823 75,-823 75,-823 0,-823"/>
<polygon fill="#666666" stroke="#666666" points="75,-823 75,-823 194,-823 194,-823 75,-823"/>
<polygon fill="none" stroke="#666666" points="0,-806 0,-982 194,-982 194,-806 0,-806"/>
</a>
</g>
</g>
<!-- Node3&#45;&gt;Node2 -->
<g id="edge2_Node000002_Node000003" class="edge">
<title>Node3&#45;&gt;Node2</title>
<g id="a_edge2_Node000002_Node000003"><a xlink:title=" ">
<path fill="none" stroke="#63b8ff" d="M162.77,-805.96C182.84,-779.4 205.42,-749.51 227.4,-720.43"/>
<polygon fill="none" stroke="#63b8ff" points="227.59,-720.18 228.01,-712.98 234.82,-710.61 234.4,-717.8 227.59,-720.18"/>
</a>
</g>
<text text-anchor="middle" x="213" y="-780" font-family="Helvetica,sans-Serif" font-size="10.00" fill="grey"> +root_node_</text>
</g>
<!-- Node3&#45;&gt;Node3 -->
<g id="edge3_Node000003_Node000003" class="edge">
<title>Node3&#45;&gt;Node3</title>
<g id="a_edge3_Node000003_Node000003"><a xlink:title=" ">
<path fill="none" stroke="#63b8ff" d="M194.32,-911.35C205.06,-908.06 212,-902.27 212,-894 212,-889.09 209.55,-885.05 205.32,-881.9"/>
<polygon fill="none" stroke="#63b8ff" points="205.15,-881.82 198.01,-882.84 194.32,-876.65 201.46,-875.62 205.15,-881.82"/>
</a>
</g>
<text text-anchor="middle" x="232.5" y="-897" font-family="Helvetica,sans-Serif" font-size="10.00" fill="grey"> +child1</text>
<text text-anchor="middle" x="232.5" y="-886" font-family="Helvetica,sans-Serif" font-size="10.00" fill="grey">+child2</text>
</g>
<!-- Node4 -->
<g id="Node000004" class="node">
<title>Node4</title>
<g id="a_Node000004"><a xlink:href="structnanoflann_1_1array__or__vector.html" target="_top" xlink:title=" ">
<polygon fill="white" stroke="transparent" points="393,-924 271,-924 271,-864 393,-864 393,-924"/>
<text text-anchor="start" x="276" y="-912" font-family="Helvetica,sans-Serif" font-size="10.00">nanoflann::array_or</text>
<text text-anchor="start" x="276" y="-901" font-family="Helvetica,sans-Serif" font-size="10.00">_vector&lt; &#45;1, Interval &gt;</text>
<text text-anchor="start" x="330" y="-886" font-family="Helvetica,sans-Serif" font-size="10.00"> </text>
<text text-anchor="start" x="330" y="-871" font-family="Helvetica,sans-Serif" font-size="10.00"> </text>
<polygon fill="#666666" stroke="#666666" points="271,-896 271,-896 393,-896 393,-896 271,-896"/>
<polygon fill="#666666" stroke="#666666" points="271,-881 271,-881 393,-881 393,-881 271,-881"/>
<polygon fill="none" stroke="#666666" points="271,-864 271,-924 393,-924 393,-864 271,-864"/>
</a>
</g>
</g>
<!-- Node4&#45;&gt;Node2 -->
<g id="edge4_Node000002_Node000004" class="edge">
<title>Node4&#45;&gt;Node2</title>
<g id="a_edge4_Node000002_Node000004"><a xlink:title=" ">
<path fill="none" stroke="#63b8ff" d="M332,-863.74C332,-841.12 332,-807.67 332,-771.65"/>
<polygon fill="none" stroke="#63b8ff" points="332,-771.34 328,-765.34 332,-759.34 336,-765.34 332,-771.34"/>
</a>
</g>
<text text-anchor="middle" x="365" y="-780" font-family="Helvetica,sans-Serif" font-size="10.00" fill="grey"> +root_bbox_</text>
</g>
<!-- Node5 -->
<g id="Node000005" class="node">
<title>Node5</title>
<g id="a_Node000005"><a xlink:href="classnanoflann_1_1PooledAllocator.html" target="_top" xlink:title=" ">
<polygon fill="white" stroke="transparent" points="552.5,-956 411.5,-956 411.5,-832 552.5,-832 552.5,-956"/>
<text text-anchor="start" x="417" y="-944" font-family="Helvetica,sans-Serif" font-size="10.00">nanoflann::PooledAllocator</text>
<text text-anchor="start" x="422.5" y="-929" font-family="Helvetica,sans-Serif" font-size="10.00">+</text>
<text text-anchor="start" x="442" y="-929" font-family="Helvetica,sans-Serif" font-size="10.00">usedMemory</text>
<text text-anchor="start" x="422.5" y="-914" font-family="Helvetica,sans-Serif" font-size="10.00">+</text>
<text text-anchor="start" x="442" y="-914" font-family="Helvetica,sans-Serif" font-size="10.00">wastedMemory</text>
<text text-anchor="start" x="422.5" y="-899" font-family="Helvetica,sans-Serif" font-size="10.00">+</text>
<text text-anchor="start" x="442" y="-899" font-family="Helvetica,sans-Serif" font-size="10.00">PooledAllocator()</text>
<text text-anchor="start" x="422.5" y="-884" font-family="Helvetica,sans-Serif" font-size="10.00">+</text>
<text text-anchor="start" x="442" y="-884" font-family="Helvetica,sans-Serif" font-size="10.00">~PooledAllocator()</text>
<text text-anchor="start" x="422.5" y="-869" font-family="Helvetica,sans-Serif" font-size="10.00">+</text>
<text text-anchor="start" x="442" y="-869" font-family="Helvetica,sans-Serif" font-size="10.00">free_all()</text>
<text text-anchor="start" x="422.5" y="-854" font-family="Helvetica,sans-Serif" font-size="10.00">+</text>
<text text-anchor="start" x="442" y="-854" font-family="Helvetica,sans-Serif" font-size="10.00">malloc()</text>
<text text-anchor="start" x="422.5" y="-839" font-family="Helvetica,sans-Serif" font-size="10.00">+</text>
<text text-anchor="start" x="442" y="-839" font-family="Helvetica,sans-Serif" font-size="10.00">allocate()</text>
<polygon fill="#666666" stroke="#666666" points="412,-939 412,-939 553,-939 553,-939 412,-939"/>
<polygon fill="#666666" stroke="#666666" points="412,-909 412,-909 440,-909 440,-909 412,-909"/>
<polygon fill="#666666" stroke="#666666" points="440,-909 440,-909 553,-909 553,-909 440,-909"/>
<polygon fill="none" stroke="#666666" points="411.5,-832 411.5,-956 552.5,-956 552.5,-832 411.5,-832"/>
</a>
</g>
</g>
<!-- Node5&#45;&gt;Node2 -->
<g id="edge5_Node000002_Node000005" class="edge">
<title>Node5&#45;&gt;Node2</title>
<g id="a_edge5_Node000002_Node000005"><a xlink:title=" ">
<path fill="none" stroke="#63b8ff" d="M452.54,-831.93C443.67,-813.53 433.43,-792.3 422.74,-770.14"/>
<polygon fill="none" stroke="#63b8ff" points="422.68,-770.01 416.47,-766.34 417.47,-759.2 423.68,-762.87 422.68,-770.01"/>
</a>
</g>
<text text-anchor="middle" x="449" y="-780" font-family="Helvetica,sans-Serif" font-size="10.00" fill="grey"> +pool_</text>
</g>
<!-- Node6 -->
<g id="Node000006" class="node">
<title>Node6</title>
<g id="a_Node000006"><a xlink:href="structnanoflann_1_1KDTreeSingleIndexAdaptorParams.html" target="_top" xlink:title=" ">
<polygon fill="white" stroke="transparent" points="603,-631.5 447,-631.5 447,-530.5 603,-530.5 603,-631.5"/>
<text text-anchor="start" x="452" y="-619" font-family="Helvetica,sans-Serif" font-size="10.00">nanoflann::KDTreeSingleIndex</text>
<text text-anchor="start" x="487.5" y="-608" font-family="Helvetica,sans-Serif" font-size="10.00">AdaptorParams</text>
<text text-anchor="start" x="452" y="-593" font-family="Helvetica,sans-Serif" font-size="10.00">+</text>
<text text-anchor="start" x="466" y="-593" font-family="Helvetica,sans-Serif" font-size="10.00">leaf_max_size</text>
<text text-anchor="start" x="452" y="-578" font-family="Helvetica,sans-Serif" font-size="10.00">+</text>
<text text-anchor="start" x="466" y="-578" font-family="Helvetica,sans-Serif" font-size="10.00">flags</text>
<text text-anchor="start" x="452" y="-563" font-family="Helvetica,sans-Serif" font-size="10.00">+</text>
<text text-anchor="start" x="466" y="-563" font-family="Helvetica,sans-Serif" font-size="10.00">n_thread_build</text>
<text text-anchor="start" x="452" y="-548" font-family="Helvetica,sans-Serif" font-size="10.00">+</text>
<text text-anchor="start" x="466" y="-548" font-family="Helvetica,sans-Serif" font-size="10.00">KDTreeSingleIndexAdaptor</text>
<text text-anchor="start" x="466" y="-537" font-family="Helvetica,sans-Serif" font-size="10.00">Params()</text>
<polygon fill="#666666" stroke="#666666" points="447,-603 447,-603 603,-603 603,-603 447,-603"/>
<polygon fill="#666666" stroke="#666666" points="447,-558 447,-558 464,-558 464,-558 447,-558"/>
<polygon fill="#666666" stroke="#666666" points="464,-558 464,-558 603,-558 603,-558 464,-558"/>
<polygon fill="none" stroke="#666666" points="447,-530.5 447,-631.5 603,-631.5 603,-530.5 447,-530.5"/>
</a>
</g>
</g>
<!-- Node6&#45;&gt;Node1 -->
<g id="edge6_Node000001_Node000006" class="edge">
<title>Node6&#45;&gt;Node1</title>
<g id="a_edge6_Node000001_Node000006"><a xlink:title=" ">
<path fill="none" stroke="#63b8ff" d="M513.01,-530.43C503.05,-489.27 488.23,-427.98 473.73,-368.05"/>
<polygon fill="none" stroke="#63b8ff" points="473.66,-367.75 468.36,-362.86 470.84,-356.09 476.14,-360.98 473.66,-367.75"/>
</a>
</g>
<text text-anchor="middle" x="514.5" y="-377" font-family="Helvetica,sans-Serif" font-size="10.00" fill="grey"> +indexParams</text>
</g>
</g>
</svg>
