<?xml version="1.0" encoding="UTF-8" standalone="no"?>
<!DOCTYPE svg PUBLIC "-//W3C//DTD SVG 1.1//EN"
 "http://www.w3.org/Graphics/SVG/1.1/DTD/svg11.dtd">
<!-- Generated by graphviz version 2.43.0 (0)
 -->
<!-- Title: EncoderKvazaar::encodeGOFMaps Pages: 1 -->
<svg width="544pt" height="134pt"
 viewBox="0.00 0.00 544.00 134.00" xmlns="http://www.w3.org/2000/svg" xmlns:xlink="http://www.w3.org/1999/xlink">
<g id="graph0" class="graph" transform="scale(1 1) rotate(0) translate(4 130)">
<title>EncoderKvazaar::encodeGOFMaps</title>
<!-- Node1 -->
<g id="Node000001" class="node">
<title>Node1</title>
<g id="a_Node000001"><a xlink:title=" ">
<polygon fill="#999999" stroke="#666666" points="184,-72.5 0,-72.5 0,-53.5 184,-53.5 184,-72.5"/>
<text text-anchor="middle" x="92" y="-60.5" font-family="Helvetica,sans-Serif" font-size="10.00">EncoderKvazaar::encodeGOFMaps</text>
</a>
</g>
</g>
<!-- Node2 -->
<g id="Node000002" class="node">
<title>Node2</title>
<g id="a_Node000002"><a xlink:href="namespaceFileExport.html#a1dd387de242c49e6c29330cef47cd738" target="_top" xlink:title=" ">
<polygon fill="white" stroke="#666666" points="371,-126 225,-126 225,-96 371,-96 371,-126"/>
<text text-anchor="start" x="233" y="-114" font-family="Helvetica,sans-Serif" font-size="10.00">FileExport::exportAttribute</text>
<text text-anchor="middle" x="298" y="-103" font-family="Helvetica,sans-Serif" font-size="10.00">Bitstream</text>
</a>
</g>
</g>
<!-- Node1&#45;&gt;Node2 -->
<g id="edge1_Node000001_Node000002" class="edge">
<title>Node1&#45;&gt;Node2</title>
<g id="a_edge1_Node000001_Node000002"><a xlink:title=" ">
<path fill="none" stroke="#63b8ff" d="M133.79,-72.6C159.28,-78.6 192.86,-86.5 222.94,-93.57"/>
<polygon fill="#63b8ff" stroke="#63b8ff" points="222.45,-97.05 232.98,-95.94 224.05,-90.24 222.45,-97.05"/>
</a>
</g>
</g>
<!-- Node4 -->
<g id="Node000004" class="node">
<title>Node4</title>
<g id="a_Node000004"><a xlink:href="namespaceFileExport.html#a303ebe8ace06be8e35f50ac2ee1c2b18" target="_top" xlink:title=" ">
<polygon fill="white" stroke="#666666" points="374,-78 222,-78 222,-48 374,-48 374,-78"/>
<text text-anchor="start" x="230" y="-66" font-family="Helvetica,sans-Serif" font-size="10.00">FileExport::exportGeometry</text>
<text text-anchor="middle" x="298" y="-55" font-family="Helvetica,sans-Serif" font-size="10.00">Bitstream</text>
</a>
</g>
</g>
<!-- Node1&#45;&gt;Node4 -->
<g id="edge3_Node000001_Node000004" class="edge">
<title>Node1&#45;&gt;Node4</title>
<g id="a_edge3_Node000001_Node000004"><a xlink:title=" ">
<path fill="none" stroke="#63b8ff" d="M184.26,-63C193.36,-63 202.57,-63 211.6,-63"/>
<polygon fill="#63b8ff" stroke="#63b8ff" points="211.7,-66.5 221.7,-63 211.7,-59.5 211.7,-66.5"/>
</a>
</g>
</g>
<!-- Node5 -->
<g id="Node000005" class="node">
<title>Node5</title>
<g id="a_Node000005"><a xlink:href="namespaceFileExport.html#a7f638e98ce327128e84bd34f78bf98bc" target="_top" xlink:title=" ">
<polygon fill="white" stroke="#666666" points="376,-30 220,-30 220,0 376,0 376,-30"/>
<text text-anchor="start" x="228" y="-18" font-family="Helvetica,sans-Serif" font-size="10.00">FileExport::exportOccupancy</text>
<text text-anchor="middle" x="298" y="-7" font-family="Helvetica,sans-Serif" font-size="10.00">Bitstream</text>
</a>
</g>
</g>
<!-- Node1&#45;&gt;Node5 -->
<g id="edge5_Node000001_Node000005" class="edge">
<title>Node1&#45;&gt;Node5</title>
<g id="a_edge5_Node000001_Node000005"><a xlink:title=" ">
<path fill="none" stroke="#63b8ff" d="M133.79,-53.4C159.28,-47.4 192.86,-39.5 222.94,-32.43"/>
<polygon fill="#63b8ff" stroke="#63b8ff" points="224.05,-35.76 232.98,-30.06 222.45,-28.95 224.05,-35.76"/>
</a>
</g>
</g>
<!-- Node3 -->
<g id="Node000003" class="node">
<title>Node3</title>
<g id="a_Node000003"><a xlink:href="namespaceuvgvpcc__enc.html#a69b2cb991ff48de10ff75bc3c0582a54" target="_top" xlink:title=" ">
<polygon fill="white" stroke="#666666" points="536,-72.5 412,-72.5 412,-53.5 536,-53.5 536,-72.5"/>
<text text-anchor="middle" x="474" y="-60.5" font-family="Helvetica,sans-Serif" font-size="10.00">uvgvpcc_enc::zeroPad</text>
</a>
</g>
</g>
<!-- Node2&#45;&gt;Node3 -->
<g id="edge2_Node000002_Node000003" class="edge">
<title>Node2&#45;&gt;Node3</title>
<g id="a_edge2_Node000002_Node000003"><a xlink:title=" ">
<path fill="none" stroke="#63b8ff" d="M353.58,-95.94C377.71,-89.29 405.73,-81.56 428.56,-75.26"/>
<polygon fill="#63b8ff" stroke="#63b8ff" points="429.62,-78.6 438.33,-72.56 427.76,-71.85 429.62,-78.6"/>
</a>
</g>
</g>
<!-- Node4&#45;&gt;Node3 -->
<g id="edge4_Node000004_Node000003" class="edge">
<title>Node4&#45;&gt;Node3</title>
<g id="a_edge4_Node000004_Node000003"><a xlink:title=" ">
<path fill="none" stroke="#63b8ff" d="M374.05,-63C383.21,-63 392.54,-63 401.64,-63"/>
<polygon fill="#63b8ff" stroke="#63b8ff" points="401.8,-66.5 411.8,-63 401.8,-59.5 401.8,-66.5"/>
</a>
</g>
</g>
<!-- Node5&#45;&gt;Node3 -->
<g id="edge6_Node000005_Node000003" class="edge">
<title>Node5&#45;&gt;Node3</title>
<g id="a_edge6_Node000005_Node000003"><a xlink:title=" ">
<path fill="none" stroke="#63b8ff" d="M353.58,-30.06C377.71,-36.71 405.73,-44.44 428.56,-50.74"/>
<polygon fill="#63b8ff" stroke="#63b8ff" points="427.76,-54.15 438.33,-53.44 429.62,-47.4 427.76,-54.15"/>
</a>
</g>
</g>
</g>
</svg>
