<?xml version="1.0" encoding="UTF-8" standalone="no"?>
<!DOCTYPE svg PUBLIC "-//W3C//DTD SVG 1.1//EN"
 "http://www.w3.org/Graphics/SVG/1.1/DTD/svg11.dtd">
<!-- Generated by graphviz version 2.43.0 (0)
 -->
<!-- Title: PatchGeneration::generateFramePatches Pages: 1 -->
<!--zoomable 1052 -->

<svg id="main" version="1.1" xmlns="http://www.w3.org/2000/svg" xmlns:xlink="http://www.w3.org/1999/xlink" xml:space="preserve" onload="init(evt)">
<style type="text/css"><![CDATA[
.node, .edge {opacity: 0.7;}
.node.selected, .edge.selected {opacity: 1;}
.edge:hover path { stroke: red; }
.edge:hover polygon { stroke: red; fill: red; }
]]></style>

<defs>
  <circle id="rim" cx="0" cy="0" r="7"/>
  <circle id="rim2" cx="0" cy="0" r="3.5"/>
  <g id="zoomPlus">
    <use xlink:href="#rim" fill="#404040"><set attributeName="fill" to="#808080" begin="zoomplus.mouseover" end="zoomplus.mouseout"/></use>
    <path d="M-4,0h8M0,-4v8" fill="none" stroke="white" stroke-width="1.5" pointer-events="none"/>
  </g>
  <g id="zoomMin">
    <use xlink:href="#rim" fill="#404040"><set attributeName="fill" to="#808080" begin="zoomminus.mouseover" end="zoomminus.mouseout"/></use>
    <path d="M-4,0h8" fill="none" stroke="white" stroke-width="1.5" pointer-events="none"/>
  </g>
  <g id="arrowUp" transform="translate(30 24)">
    <use xlink:href="#rim"/>
    <path pointer-events="none" fill="none" stroke="white" stroke-width="1.5" d="M0,-3.0v7 M-2.5,-0.5L0,-3.0L2.5,-0.5"/>
  </g>
  <g id="arrowRight" transform="rotate(90) translate(36 -43)">
    <use xlink:href="#rim"/>
    <path pointer-events="none" fill="none" stroke="white" stroke-width="1.5" d="M0,-3.0v7 M-2.5,-0.5L0,-3.0L2.5,-0.5"/>
  </g>
  <g id="arrowDown" transform="rotate(180) translate(-30 -48)">
    <use xlink:href="#rim"/>
    <path pointer-events="none" fill="none" stroke="white" stroke-width="1.5" d="M0,-3.0v7 M-2.5,-0.5L0,-3.0L2.5,-0.5"/>
  </g>
  <g id="arrowLeft" transform="rotate(270) translate(-36 17)">
    <use xlink:href="#rim"/>
    <path pointer-events="none" fill="none" stroke="white" stroke-width="1.5" d="M0,-3.0v7 M-2.5,-0.5L0,-3.0L2.5,-0.5"/>
  </g>
  <g id="resetDef">
    <use xlink:href="#rim2" fill="#404040"><set attributeName="fill" to="#808080" begin="reset.mouseover" end="reset.mouseout"/></use>
  </g>
</defs>
<script type="application/ecmascript">
var viewWidth = 923;
var viewHeight = 1052;
var sectionId = 'dynsection-1';
</script>
<script type="application/ecmascript" xlink:href="svg.min.js"/>
<svg id="graph" class="graph">
<g id="viewport">
<title>PatchGeneration::generateFramePatches</title>
<!-- Node1 -->
<g id="Node000001" class="node">
<title>Node1</title>
<g id="a_Node000001"><a xlink:title=" ">
<polygon fill="#999999" stroke="#666666" points="146,-791 0,-791 0,-761 146,-761 146,-791"/>
<text text-anchor="start" x="8" y="-779" font-family="Helvetica,sans-Serif" font-size="10.00">PatchGeneration::generate</text>
<text text-anchor="middle" x="73" y="-768" font-family="Helvetica,sans-Serif" font-size="10.00">FramePatches</text>
</a>
</g>
</g>
<!-- Node2 -->
<g id="Node000002" class="node">
<title>Node2</title>
<g id="a_Node000002"><a xlink:href="namespaceNormalComputation.html#a46480ca405a1a36a28d865696ba485f0" target="_top" xlink:title=" ">
<polygon fill="white" stroke="#666666" points="336.5,-871 214.5,-871 214.5,-841 336.5,-841 336.5,-871"/>
<text text-anchor="start" x="222.5" y="-859" font-family="Helvetica,sans-Serif" font-size="10.00">NormalComputation::</text>
<text text-anchor="middle" x="275.5" y="-848" font-family="Helvetica,sans-Serif" font-size="10.00">computeNormals</text>
</a>
</g>
</g>
<!-- Node1&#45;&gt;Node2 -->
<g id="edge1_Node000001_Node000002" class="edge">
<title>Node1&#45;&gt;Node2</title>
<g id="a_edge1_Node000001_Node000002"><a xlink:title=" ">
<path fill="none" stroke="#63b8ff" d="M99,-791.02C120.42,-803.38 152.42,-820.66 182,-832 189.19,-834.76 196.81,-837.3 204.47,-839.62"/>
<polygon fill="#63b8ff" stroke="#63b8ff" points="203.59,-843.01 214.17,-842.44 205.54,-836.29 203.59,-843.01"/>
</a>
</g>
</g>
<!-- Node7 -->
<g id="Node000007" class="node">
<title>Node7</title>
<g id="a_Node000007"><a xlink:href="classuvgvpcc__enc_1_1Logger.html#af125e72496c52fe57a8aafaadc445ac2" target="_top" xlink:title=" ">
<polygon fill="white" stroke="#666666" points="747,-782.5 607,-782.5 607,-763.5 747,-763.5 747,-782.5"/>
<text text-anchor="middle" x="677" y="-770.5" font-family="Helvetica,sans-Serif" font-size="10.00">uvgvpcc_enc::Logger::log</text>
</a>
</g>
</g>
<!-- Node1&#45;&gt;Node7 -->
<g id="edge14_Node000001_Node000007" class="edge">
<title>Node1&#45;&gt;Node7</title>
<g id="a_edge14_Node000001_Node000007"><a xlink:title=" ">
<path fill="none" stroke="#63b8ff" d="M84.14,-791.09C101.15,-814.93 137.92,-860.6 182,-880 338.31,-948.8 409.82,-963.09 566,-894 613.61,-872.94 649.46,-819.96 665.96,-791.6"/>
<polygon fill="#63b8ff" stroke="#63b8ff" points="669.12,-793.12 670.98,-782.69 663.02,-789.69 669.12,-793.12"/>
</a>
</g>
</g>
<!-- Node10 -->
<g id="Node000010" class="node">
<title>Node10</title>
<g id="a_Node000010"><a xlink:href="classPPISegmenter.html#a96b9ea22784cdc373e67a724e3019475" target="_top" xlink:title=" ">
<polygon fill="white" stroke="#666666" points="369,-785.5 182,-785.5 182,-766.5 369,-766.5 369,-785.5"/>
<text text-anchor="middle" x="275.5" y="-773.5" font-family="Helvetica,sans-Serif" font-size="10.00">PPISegmenter::initialSegmentation</text>
</a>
</g>
</g>
<!-- Node1&#45;&gt;Node10 -->
<g id="edge9_Node000001_Node000010" class="edge">
<title>Node1&#45;&gt;Node10</title>
<g id="a_edge9_Node000001_Node000010"><a xlink:title=" ">
<path fill="none" stroke="#63b8ff" d="M146.1,-776C154.41,-776 163.01,-776 171.62,-776"/>
<polygon fill="#63b8ff" stroke="#63b8ff" points="171.74,-779.5 181.74,-776 171.74,-772.5 171.74,-779.5"/>
</a>
</g>
</g>
<!-- Node12 -->
<g id="Node000012" class="node">
<title>Node12</title>
<g id="a_Node000012"><a xlink:href="namespaceNormalOrientation.html#a5fadc067a7ed313e80ad559d11e7c67f" target="_top" xlink:title=" ">
<polygon fill="white" stroke="#666666" points="332,-748 219,-748 219,-718 332,-718 332,-748"/>
<text text-anchor="start" x="227" y="-736" font-family="Helvetica,sans-Serif" font-size="10.00">NormalOrientation::</text>
<text text-anchor="middle" x="275.5" y="-725" font-family="Helvetica,sans-Serif" font-size="10.00">orientNormals</text>
</a>
</g>
</g>
<!-- Node1&#45;&gt;Node12 -->
<g id="edge15_Node000001_Node000012" class="edge">
<title>Node1&#45;&gt;Node12</title>
<g id="a_edge15_Node000001_Node000012"><a xlink:title=" ">
<path fill="none" stroke="#63b8ff" d="M144.13,-760.96C165.18,-756.44 188.2,-751.51 208.95,-747.06"/>
<polygon fill="#63b8ff" stroke="#63b8ff" points="209.89,-750.44 218.94,-744.92 208.42,-743.59 209.89,-750.44"/>
</a>
</g>
</g>
<!-- Node13 -->
<g id="Node000013" class="node">
<title>Node13</title>
<g id="a_Node000013"><a xlink:href="classPatchSegmentation.html#a819536989846a15453734058b91521ee" target="_top" xlink:title=" ">
<polygon fill="white" stroke="#666666" points="334,-457 217,-457 217,-427 334,-427 334,-457"/>
<text text-anchor="start" x="225" y="-445" font-family="Helvetica,sans-Serif" font-size="10.00">PatchSegmentation::</text>
<text text-anchor="middle" x="275.5" y="-434" font-family="Helvetica,sans-Serif" font-size="10.00">patchSegmentation</text>
</a>
</g>
</g>
<!-- Node1&#45;&gt;Node13 -->
<g id="edge20_Node000001_Node000013" class="edge">
<title>Node1&#45;&gt;Node13</title>
<g id="a_edge20_Node000001_Node000013"><a xlink:title=" ">
<path fill="none" stroke="#63b8ff" d="M83.14,-760.78C114.97,-707.75 221.19,-530.8 260.08,-466.02"/>
<polygon fill="#63b8ff" stroke="#63b8ff" points="263.16,-467.68 265.31,-457.31 257.16,-464.08 263.16,-467.68"/>
</a>
</g>
</g>
<!-- Node32 -->
<g id="Node000032" class="node">
<title>Node32</title>
<g id="a_Node000032"><a xlink:href="classPPISegmenter.html#a6d388df0893b2c0d43b730c7dd32f56f" target="_top" xlink:title=" ">
<polygon fill="white" stroke="#666666" points="369,-822.5 182,-822.5 182,-803.5 369,-803.5 369,-822.5"/>
<text text-anchor="middle" x="275.5" y="-810.5" font-family="Helvetica,sans-Serif" font-size="10.00">PPISegmenter::refineSegmentation</text>
</a>
</g>
</g>
<!-- Node1&#45;&gt;Node32 -->
<g id="edge50_Node000001_Node000032" class="edge">
<title>Node1&#45;&gt;Node32</title>
<g id="a_edge50_Node000001_Node000032"><a xlink:title=" ">
<path fill="none" stroke="#63b8ff" d="M146.1,-789.31C167.91,-793.33 191.64,-797.71 212.71,-801.6"/>
<polygon fill="#63b8ff" stroke="#63b8ff" points="212.35,-805.09 222.82,-803.46 213.62,-798.21 212.35,-805.09"/>
</a>
</g>
</g>
<!-- Node33 -->
<g id="Node000033" class="node">
<title>Node33</title>
<g id="a_Node000033"><a xlink:href="utilsPatchGeneration_8hpp.html#a1e33592d61eabca8b87655fb1cf3c737" target="_top" xlink:title=" ">
<polygon fill="white" stroke="#666666" points="313.5,-389.5 237.5,-389.5 237.5,-370.5 313.5,-370.5 313.5,-389.5"/>
<text text-anchor="middle" x="275.5" y="-377.5" font-family="Helvetica,sans-Serif" font-size="10.00">voxelization</text>
</a>
</g>
</g>
<!-- Node1&#45;&gt;Node33 -->
<g id="edge54_Node000001_Node000033" class="edge">
<title>Node1&#45;&gt;Node33</title>
<g id="a_edge54_Node000001_Node000033"><a xlink:title=" ">
<path fill="none" stroke="#63b8ff" d="M74.16,-760.87C75.55,-707.01 87.32,-522.32 182,-418 193.88,-404.91 210.96,-396.21 227.21,-390.5"/>
<polygon fill="#63b8ff" stroke="#63b8ff" points="228.71,-393.69 237.16,-387.31 226.57,-387.03 228.71,-393.69"/>
</a>
</g>
</g>
<!-- Node3 -->
<g id="Node000003" class="node">
<title>Node3</title>
<g id="a_Node000003"><a xlink:href="namespaceNormalComputation.html#a68400b431752d36119a550beaafd042e" target="_top" xlink:title=" ">
<polygon fill="white" stroke="#666666" points="546.5,-1020 424.5,-1020 424.5,-990 546.5,-990 546.5,-1020"/>
<text text-anchor="start" x="432.5" y="-1008" font-family="Helvetica,sans-Serif" font-size="10.00">NormalComputation::</text>
<text text-anchor="middle" x="485.5" y="-997" font-family="Helvetica,sans-Serif" font-size="10.00">computeNormal</text>
</a>
</g>
</g>
<!-- Node2&#45;&gt;Node3 -->
<g id="edge2_Node000002_Node000003" class="edge">
<title>Node2&#45;&gt;Node3</title>
<g id="a_edge2_Node000002_Node000003"><a xlink:title=" ">
<path fill="none" stroke="#63b8ff" d="M297.59,-871.11C334.89,-897.82 412.55,-953.46 455.09,-983.93"/>
<polygon fill="#63b8ff" stroke="#63b8ff" points="453.19,-986.87 463.36,-989.85 457.26,-981.18 453.19,-986.87"/>
</a>
</g>
</g>
<!-- Node6 -->
<g id="Node000006" class="node">
<title>Node6</title>
<g id="a_Node000006"><a xlink:href="utilsPatchGeneration_8hpp.html#a7e03bd9f637d6875e048306bf9f014a2" target="_top" xlink:title=" ">
<polygon fill="white" stroke="#666666" points="536,-819.5 435,-819.5 435,-800.5 536,-800.5 536,-819.5"/>
<text text-anchor="middle" x="485.5" y="-807.5" font-family="Helvetica,sans-Serif" font-size="10.00">exportPointCloud</text>
</a>
</g>
</g>
<!-- Node2&#45;&gt;Node6 -->
<g id="edge5_Node000002_Node000006" class="edge">
<title>Node2&#45;&gt;Node6</title>
<g id="a_edge5_Node000002_Node000006"><a xlink:title=" ">
<path fill="none" stroke="#63b8ff" d="M336.66,-842.69C366.61,-836.07 402.49,-828.14 431.4,-821.74"/>
<polygon fill="#63b8ff" stroke="#63b8ff" points="432.31,-825.13 441.31,-819.55 430.79,-818.29 432.31,-825.13"/>
</a>
</g>
</g>
<!-- Node2&#45;&gt;Node7 -->
<g id="edge6_Node000002_Node000007" class="edge">
<title>Node2&#45;&gt;Node7</title>
<g id="a_edge6_Node000002_Node000007"><a xlink:title=" ">
<path fill="none" stroke="#63b8ff" d="M327.35,-871.05C386.74,-885.89 486.93,-902.34 566,-872 608.33,-855.76 644.57,-814.87 663,-791.03"/>
<polygon fill="#63b8ff" stroke="#63b8ff" points="665.96,-792.91 669.17,-782.81 660.36,-788.71 665.96,-792.91"/>
</a>
</g>
</g>
<!-- Node9 -->
<g id="Node000009" class="node">
<title>Node9</title>
<g id="a_Node000009"><a xlink:href="namespaceuvgvpcc__enc.html#a69b2cb991ff48de10ff75bc3c0582a54" target="_top" xlink:title=" ">
<polygon fill="white" stroke="#666666" points="547.5,-782.5 423.5,-782.5 423.5,-763.5 547.5,-763.5 547.5,-782.5"/>
<text text-anchor="middle" x="485.5" y="-770.5" font-family="Helvetica,sans-Serif" font-size="10.00">uvgvpcc_enc::zeroPad</text>
</a>
</g>
</g>
<!-- Node2&#45;&gt;Node9 -->
<g id="edge8_Node000002_Node000009" class="edge">
<title>Node2&#45;&gt;Node9</title>
<g id="a_edge8_Node000002_Node000009"><a xlink:title=" ">
<path fill="none" stroke="#63b8ff" d="M336.8,-845.81C347.99,-842.43 359.22,-837.94 369,-832 389.44,-819.58 384.44,-804.22 405,-792 408.71,-789.8 412.65,-787.85 416.73,-786.13"/>
<polygon fill="#63b8ff" stroke="#63b8ff" points="418.28,-789.28 426.42,-782.51 415.83,-782.73 418.28,-789.28"/>
</a>
</g>
</g>
<!-- Node4 -->
<g id="Node000004" class="node">
<title>Node4</title>
<g id="a_Node000004"><a xlink:href="namespaceNormalComputation.html#a41dd4c8e05dcf89f3c7951a00776616c" target="_top" xlink:title=" ">
<polygon fill="white" stroke="#666666" points="738,-1044 616,-1044 616,-1014 738,-1014 738,-1044"/>
<text text-anchor="start" x="624" y="-1032" font-family="Helvetica,sans-Serif" font-size="10.00">NormalComputation::</text>
<text text-anchor="middle" x="677" y="-1021" font-family="Helvetica,sans-Serif" font-size="10.00">computeCovMat</text>
</a>
</g>
</g>
<!-- Node3&#45;&gt;Node4 -->
<g id="edge3_Node000003_Node000004" class="edge">
<title>Node3&#45;&gt;Node4</title>
<g id="a_edge3_Node000003_Node000004"><a xlink:title=" ">
<path fill="none" stroke="#63b8ff" d="M546.72,-1012.63C565.55,-1015.01 586.48,-1017.66 605.92,-1020.12"/>
<polygon fill="#63b8ff" stroke="#63b8ff" points="605.58,-1023.61 615.94,-1021.39 606.46,-1016.66 605.58,-1023.61"/>
</a>
</g>
</g>
<!-- Node5 -->
<g id="Node000005" class="node">
<title>Node5</title>
<g id="a_Node000005"><a xlink:href="namespaceNormalComputation.html#abcc8a8dde80714795af1b5aed7a670a4" target="_top" xlink:title=" ">
<polygon fill="white" stroke="#666666" points="738,-996 616,-996 616,-966 738,-966 738,-996"/>
<text text-anchor="start" x="624" y="-984" font-family="Helvetica,sans-Serif" font-size="10.00">NormalComputation::</text>
<text text-anchor="middle" x="677" y="-973" font-family="Helvetica,sans-Serif" font-size="10.00">diagonalize</text>
</a>
</g>
</g>
<!-- Node3&#45;&gt;Node5 -->
<g id="edge4_Node000003_Node000005" class="edge">
<title>Node3&#45;&gt;Node5</title>
<g id="a_edge4_Node000003_Node000005"><a xlink:title=" ">
<path fill="none" stroke="#63b8ff" d="M546.72,-997.37C565.55,-994.99 586.48,-992.34 605.92,-989.88"/>
<polygon fill="#63b8ff" stroke="#63b8ff" points="606.46,-993.34 615.94,-988.61 605.58,-986.39 606.46,-993.34"/>
</a>
</g>
</g>
<!-- Node8 -->
<g id="Node000008" class="node">
<title>Node8</title>
<g id="a_Node000008"><a xlink:href="classuvgvpcc__enc_1_1Logger.html#a93dc0b596dbe176e77961cb5caf71507" target="_top" xlink:title=" ">
<polygon fill="white" stroke="#666666" points="911,-788 792,-788 792,-758 911,-758 911,-788"/>
<text text-anchor="start" x="800" y="-776" font-family="Helvetica,sans-Serif" font-size="10.00">uvgvpcc_enc::Logger</text>
<text text-anchor="middle" x="851.5" y="-765" font-family="Helvetica,sans-Serif" font-size="10.00">::getLogLevel</text>
</a>
</g>
</g>
<!-- Node7&#45;&gt;Node8 -->
<g id="edge7_Node000007_Node000008" class="edge">
<title>Node7&#45;&gt;Node8</title>
<g id="a_edge7_Node000007_Node000008"><a xlink:title=" ">
<path fill="none" stroke="#63b8ff" d="M747.17,-773C758.51,-773 770.26,-773 781.59,-773"/>
<polygon fill="#63b8ff" stroke="#63b8ff" points="781.85,-776.5 791.85,-773 781.85,-769.5 781.85,-776.5"/>
</a>
</g>
</g>
<!-- Node10&#45;&gt;Node6 -->
<g id="edge11_Node000010_Node000006" class="edge">
<title>Node10&#45;&gt;Node6</title>
<g id="a_edge11_Node000010_Node000006"><a xlink:title=" ">
<path fill="none" stroke="#63b8ff" d="M334.72,-785.52C362.76,-790.1 396.35,-795.59 424.61,-800.21"/>
<polygon fill="#63b8ff" stroke="#63b8ff" points="424.33,-803.71 434.76,-801.87 425.46,-796.8 424.33,-803.71"/>
</a>
</g>
</g>
<!-- Node10&#45;&gt;Node7 -->
<g id="edge12_Node000010_Node000007" class="edge">
<title>Node10&#45;&gt;Node7</title>
<g id="a_edge12_Node000010_Node000007"><a xlink:title=" ">
<path fill="none" stroke="#63b8ff" d="M345.18,-785.61C353.45,-788.07 361.58,-791.14 369,-795 388.52,-805.16 384.55,-820.87 405,-829 471.49,-855.44 496.42,-845.69 566,-829 598.64,-821.17 632.51,-801.96 653.9,-788.22"/>
<polygon fill="#63b8ff" stroke="#63b8ff" points="655.83,-791.14 662.26,-782.72 651.98,-785.3 655.83,-791.14"/>
</a>
</g>
</g>
<!-- Node10&#45;&gt;Node9 -->
<g id="edge13_Node000010_Node000009" class="edge">
<title>Node10&#45;&gt;Node9</title>
<g id="a_edge13_Node000010_Node000009"><a xlink:title=" ">
<path fill="none" stroke="#63b8ff" d="M369.25,-774.66C383.98,-774.45 399.02,-774.23 413.16,-774.03"/>
<polygon fill="#63b8ff" stroke="#63b8ff" points="413.33,-777.53 423.28,-773.88 413.23,-770.53 413.33,-777.53"/>
</a>
</g>
</g>
<!-- Node11 -->
<g id="Node000011" class="node">
<title>Node11</title>
<g id="a_Node000011"><a xlink:href="utilsPatchGeneration_8hpp.html#a254e1f999f13aa89c65618b5cd6f707e" target="_top" xlink:title=" ">
<polygon fill="white" stroke="#666666" points="520,-745.5 451,-745.5 451,-726.5 520,-726.5 520,-745.5"/>
<text text-anchor="middle" x="485.5" y="-733.5" font-family="Helvetica,sans-Serif" font-size="10.00">dotProduct</text>
</a>
</g>
</g>
<!-- Node10&#45;&gt;Node11 -->
<g id="edge10_Node000010_Node000011" class="edge">
<title>Node10&#45;&gt;Node11</title>
<g id="a_edge10_Node000010_Node000011"><a xlink:title=" ">
<path fill="none" stroke="#63b8ff" d="M326.06,-766.47C361.01,-759.75 407.4,-750.83 440.94,-744.38"/>
<polygon fill="#63b8ff" stroke="#63b8ff" points="441.75,-747.79 450.91,-742.46 440.42,-740.91 441.75,-747.79"/>
</a>
</g>
</g>
<!-- Node12&#45;&gt;Node6 -->
<g id="edge17_Node000012_Node000006" class="edge">
<title>Node12&#45;&gt;Node6</title>
<g id="a_edge17_Node000012_Node000006"><a xlink:title=" ">
<path fill="none" stroke="#63b8ff" d="M332.05,-743.26C344.67,-746.86 357.68,-751.66 369,-758 388.2,-768.75 385.58,-781.65 405,-792 411.12,-795.26 417.82,-797.94 424.64,-800.13"/>
<polygon fill="#63b8ff" stroke="#63b8ff" points="424.1,-803.62 434.68,-803.01 426.03,-796.89 424.1,-803.62"/>
</a>
</g>
</g>
<!-- Node12&#45;&gt;Node7 -->
<g id="edge18_Node000012_Node000007" class="edge">
<title>Node12&#45;&gt;Node7</title>
<g id="a_edge18_Node000012_Node000007"><a xlink:title=" ">
<path fill="none" stroke="#63b8ff" d="M332.02,-720.99C390.92,-710.35 486.28,-699.18 566,-718 598.4,-725.65 632.14,-744.38 653.57,-757.86"/>
<polygon fill="#63b8ff" stroke="#63b8ff" points="651.93,-760.97 662.23,-763.45 655.72,-755.09 651.93,-760.97"/>
</a>
</g>
</g>
<!-- Node12&#45;&gt;Node9 -->
<g id="edge19_Node000012_Node000009" class="edge">
<title>Node12&#45;&gt;Node9</title>
<g id="a_edge19_Node000012_Node000009"><a xlink:title=" ">
<path fill="none" stroke="#63b8ff" d="M332.24,-743.72C360.87,-749.23 395.78,-755.94 424.94,-761.55"/>
<polygon fill="#63b8ff" stroke="#63b8ff" points="424.52,-765.03 435,-763.48 425.84,-758.15 424.52,-765.03"/>
</a>
</g>
</g>
<!-- Node12&#45;&gt;Node11 -->
<g id="edge16_Node000012_Node000011" class="edge">
<title>Node12&#45;&gt;Node11</title>
<g id="a_edge16_Node000012_Node000011"><a xlink:title=" ">
<path fill="none" stroke="#63b8ff" d="M332.24,-733.8C366.19,-734.29 408.95,-734.91 440.51,-735.37"/>
<polygon fill="#63b8ff" stroke="#63b8ff" points="440.7,-738.87 450.75,-735.51 440.8,-731.87 440.7,-738.87"/>
</a>
</g>
</g>
<!-- Node13&#45;&gt;Node6 -->
<g id="edge34_Node000013_Node000006" class="edge">
<title>Node13&#45;&gt;Node6</title>
<g id="a_edge34_Node000013_Node000006"><a xlink:title=" ">
<path fill="none" stroke="#63b8ff" d="M281.68,-457.35C304,-523.35 391.44,-780.09 405,-792 410.7,-797.01 417.5,-800.71 424.69,-803.43"/>
<polygon fill="#63b8ff" stroke="#63b8ff" points="424.08,-806.91 434.67,-806.56 426.18,-800.23 424.08,-806.91"/>
</a>
</g>
</g>
<!-- Node13&#45;&gt;Node7 -->
<g id="edge36_Node000013_Node000007" class="edge">
<title>Node13&#45;&gt;Node7</title>
<g id="a_edge36_Node000013_Node000007"><a xlink:title=" ">
<path fill="none" stroke="#63b8ff" d="M282.3,-457.02C297.16,-493.6 340.06,-588.21 405,-641 464.5,-689.36 497.54,-668.47 566,-703 598.19,-719.23 632.89,-742.36 654.53,-757.52"/>
<polygon fill="#63b8ff" stroke="#63b8ff" points="652.78,-760.56 662.96,-763.49 656.82,-754.85 652.78,-760.56"/>
</a>
</g>
</g>
<!-- Node13&#45;&gt;Node9 -->
<g id="edge49_Node000013_Node000009" class="edge">
<title>Node13&#45;&gt;Node9</title>
<g id="a_edge49_Node000013_Node000009"><a xlink:title=" ">
<path fill="none" stroke="#63b8ff" d="M280.7,-457.12C296.76,-513.93 355.88,-713.47 405,-755 407.87,-757.43 411,-759.54 414.31,-761.39"/>
<polygon fill="#63b8ff" stroke="#63b8ff" points="412.87,-764.58 423.41,-765.67 415.85,-758.25 412.87,-764.58"/>
</a>
</g>
</g>
<!-- Node14 -->
<g id="Node000014" class="node">
<title>Node14</title>
<g id="a_Node000014"><a xlink:href="classPatchSegmentation.html#a5d31ba00ed822bdc118aba7b671d91fd" target="_top" xlink:title=" ">
<polygon fill="white" stroke="#666666" points="562.5,-632 408.5,-632 408.5,-602 562.5,-602 562.5,-632"/>
<text text-anchor="start" x="416.5" y="-620" font-family="Helvetica,sans-Serif" font-size="10.00">PatchSegmentation::</text>
<text text-anchor="middle" x="485.5" y="-609" font-family="Helvetica,sans-Serif" font-size="10.00">computeAdditionalPatchInfo</text>
</a>
</g>
</g>
<!-- Node13&#45;&gt;Node14 -->
<g id="edge21_Node000013_Node000014" class="edge">
<title>Node13&#45;&gt;Node14</title>
<g id="a_edge21_Node000013_Node000014"><a xlink:title=" ">
<path fill="none" stroke="#63b8ff" d="M285.34,-457.37C303.68,-487.87 348.83,-556.24 405,-593 407.43,-594.59 409.97,-596.08 412.59,-597.47"/>
<polygon fill="#63b8ff" stroke="#63b8ff" points="411.22,-600.7 421.75,-601.85 414.24,-594.38 411.22,-600.7"/>
</a>
</g>
</g>
<!-- Node15 -->
<g id="Node000015" class="node">
<title>Node15</title>
<g id="a_Node000015"><a xlink:href="classPatchSegmentation.html#aa3b3fcb12079a71ee833e203847d78a3" target="_top" xlink:title=" ">
<polygon fill="white" stroke="#666666" points="752,-488 602,-488 602,-458 752,-458 752,-488"/>
<text text-anchor="start" x="610" y="-476" font-family="Helvetica,sans-Serif" font-size="10.00">PatchSegmentation::</text>
<text text-anchor="middle" x="677" y="-465" font-family="Helvetica,sans-Serif" font-size="10.00">computePatchBoundingBox</text>
</a>
</g>
</g>
<!-- Node13&#45;&gt;Node15 -->
<g id="edge22_Node000013_Node000015" class="edge">
<title>Node13&#45;&gt;Node15</title>
<g id="a_edge22_Node000013_Node000015"><a xlink:title=" ">
<path fill="none" stroke="#63b8ff" d="M334.13,-440.17C392.72,-439.07 486.01,-439.4 566,-449 579.3,-450.6 593.36,-453.06 606.83,-455.81"/>
<polygon fill="#63b8ff" stroke="#63b8ff" points="606.47,-459.31 616.98,-457.96 607.92,-452.46 606.47,-459.31"/>
</a>
</g>
</g>
<!-- Node17 -->
<g id="Node000017" class="node">
<title>Node17</title>
<g id="a_Node000017"><a xlink:href="classPatchSegmentation.html#a3cdab98e5e9f30842b38ea848c160aa2" target="_top" xlink:title=" ">
<polygon fill="white" stroke="#666666" points="740,-440 614,-440 614,-410 740,-410 740,-440"/>
<text text-anchor="start" x="622" y="-428" font-family="Helvetica,sans-Serif" font-size="10.00">PatchSegmentation::</text>
<text text-anchor="middle" x="677" y="-417" font-family="Helvetica,sans-Serif" font-size="10.00">computePatchDepthL1</text>
</a>
</g>
</g>
<!-- Node13&#45;&gt;Node17 -->
<g id="edge24_Node000013_Node000017" class="edge">
<title>Node13&#45;&gt;Node17</title>
<g id="a_edge24_Node000013_Node000017"><a xlink:title=" ">
<path fill="none" stroke="#63b8ff" d="M334.02,-427.81C356.07,-423.05 381.56,-418.35 405,-416 476.2,-408.87 494.5,-413.08 566,-416 578.24,-416.5 591.22,-417.31 603.81,-418.25"/>
<polygon fill="#63b8ff" stroke="#63b8ff" points="603.57,-421.74 613.81,-419.02 604.11,-414.76 603.57,-421.74"/>
</a>
</g>
</g>
<!-- Node18 -->
<g id="Node000018" class="node">
<title>Node18</title>
<g id="a_Node000018"><a xlink:href="classPatchSegmentation.html#a006a62e16aa564064c4350dfd05e6cdc" target="_top" xlink:title=" ">
<polygon fill="white" stroke="#666666" points="548.5,-584 422.5,-584 422.5,-554 548.5,-554 548.5,-584"/>
<text text-anchor="start" x="430.5" y="-572" font-family="Helvetica,sans-Serif" font-size="10.00">PatchSegmentation::</text>
<text text-anchor="middle" x="485.5" y="-561" font-family="Helvetica,sans-Serif" font-size="10.00">computePatchDepthL2</text>
</a>
</g>
</g>
<!-- Node13&#45;&gt;Node18 -->
<g id="edge26_Node000013_Node000018" class="edge">
<title>Node13&#45;&gt;Node18</title>
<g id="a_edge26_Node000013_Node000018"><a xlink:title=" ">
<path fill="none" stroke="#63b8ff" d="M291.33,-457.14C313.93,-479.39 359.2,-520.9 405,-545 408.49,-546.84 412.14,-548.55 415.88,-550.16"/>
<polygon fill="#63b8ff" stroke="#63b8ff" points="414.72,-553.46 425.31,-553.91 417.31,-546.96 414.72,-553.46"/>
</a>
</g>
</g>
<!-- Node19 -->
<g id="Node000019" class="node">
<title>Node19</title>
<g id="a_Node000019"><a xlink:href="classPatchSegmentation.html#aa8784a26746eb86d546a53f5dab6c1f3" target="_top" xlink:title=" ">
<polygon fill="white" stroke="#666666" points="566,-326 405,-326 405,-296 566,-296 566,-326"/>
<text text-anchor="start" x="413" y="-314" font-family="Helvetica,sans-Serif" font-size="10.00">PatchSegmentation::</text>
<text text-anchor="middle" x="485.5" y="-303" font-family="Helvetica,sans-Serif" font-size="10.00">createConnectedComponents</text>
</a>
</g>
</g>
<!-- Node13&#45;&gt;Node19 -->
<g id="edge27_Node000013_Node000019" class="edge">
<title>Node13&#45;&gt;Node19</title>
<g id="a_edge27_Node000013_Node000019"><a xlink:title=" ">
<path fill="none" stroke="#63b8ff" d="M321.03,-426.92C337.36,-419.9 355.21,-410.33 369,-398 391.62,-377.78 381.46,-359.14 405,-340 409.35,-336.47 414.16,-333.34 419.21,-330.58"/>
<polygon fill="#63b8ff" stroke="#63b8ff" points="421.07,-333.57 428.5,-326.01 417.98,-327.29 421.07,-333.57"/>
</a>
</g>
</g>
<!-- Node24 -->
<g id="Node000024" class="node">
<title>Node24</title>
<g id="a_Node000024"><a xlink:href="classrobin__hood_1_1detail_1_1Table.html#acfe6a7a850fd8f76f5751f854ad2fe86" target="_top" xlink:title=" ">
<polygon fill="white" stroke="#666666" points="729,-230 625,-230 625,-200 729,-200 729,-230"/>
<text text-anchor="start" x="633" y="-218" font-family="Helvetica,sans-Serif" font-size="10.00">robin_hood::detail</text>
<text text-anchor="middle" x="677" y="-207" font-family="Helvetica,sans-Serif" font-size="10.00">::Table::emplace</text>
</a>
</g>
</g>
<!-- Node13&#45;&gt;Node24 -->
<g id="edge33_Node000013_Node000024" class="edge">
<title>Node13&#45;&gt;Node24</title>
<g id="a_edge33_Node000013_Node000024"><a xlink:title=" ">
<path fill="none" stroke="#63b8ff" d="M330.05,-426.79C344.7,-420.17 359.21,-410.89 369,-398 425.48,-323.63 333.54,-251.11 405,-191 470.4,-135.99 578.72,-170.73 636.63,-195.83"/>
<polygon fill="#63b8ff" stroke="#63b8ff" points="635.25,-199.05 645.81,-199.91 638.1,-192.65 635.25,-199.05"/>
</a>
</g>
</g>
<!-- Node25 -->
<g id="Node000025" class="node">
<title>Node25</title>
<g id="a_Node000025"><a xlink:href="classPatchSegmentation.html#a273639e3bb44b17761c34223b1f7269d" target="_top" xlink:title=" ">
<polygon fill="white" stroke="#666666" points="544,-536 427,-536 427,-506 544,-506 544,-536"/>
<text text-anchor="start" x="435" y="-524" font-family="Helvetica,sans-Serif" font-size="10.00">PatchSegmentation::</text>
<text text-anchor="middle" x="485.5" y="-513" font-family="Helvetica,sans-Serif" font-size="10.00">filterDepth</text>
</a>
</g>
</g>
<!-- Node13&#45;&gt;Node25 -->
<g id="edge35_Node000013_Node000025" class="edge">
<title>Node13&#45;&gt;Node25</title>
<g id="a_edge35_Node000013_Node000025"><a xlink:title=" ">
<path fill="none" stroke="#63b8ff" d="M308.84,-457.03C334.59,-468.7 371.7,-484.89 405,-497 410.47,-498.99 416.19,-500.95 421.94,-502.83"/>
<polygon fill="#63b8ff" stroke="#63b8ff" points="421.04,-506.22 431.63,-505.94 423.17,-499.55 421.04,-506.22"/>
</a>
</g>
</g>
<!-- Node26 -->
<g id="Node000026" class="node">
<title>Node26</title>
<g id="a_Node000026"><a xlink:href="classPatchSegmentation.html#a997b96c5dffc5685b1fca9e72898403f" target="_top" xlink:title=" ">
<polygon fill="white" stroke="#666666" points="544,-488 427,-488 427,-458 544,-458 544,-488"/>
<text text-anchor="start" x="435" y="-476" font-family="Helvetica,sans-Serif" font-size="10.00">PatchSegmentation::</text>
<text text-anchor="middle" x="485.5" y="-465" font-family="Helvetica,sans-Serif" font-size="10.00">patchSplitting</text>
</a>
</g>
</g>
<!-- Node13&#45;&gt;Node26 -->
<g id="edge37_Node000013_Node000026" class="edge">
<title>Node13&#45;&gt;Node26</title>
<g id="a_edge37_Node000013_Node000026"><a xlink:title=" ">
<path fill="none" stroke="#63b8ff" d="M334.16,-450.59C359.75,-454.41 390.04,-458.92 416.7,-462.9"/>
<polygon fill="#63b8ff" stroke="#63b8ff" points="416.32,-466.38 426.72,-464.39 417.35,-459.45 416.32,-466.38"/>
</a>
</g>
</g>
<!-- Node27 -->
<g id="Node000027" class="node">
<title>Node27</title>
<g id="a_Node000027"><a xlink:href="classPatchSegmentation.html#a92baf340c005144fdd53c04ad99dd657" target="_top" xlink:title=" ">
<polygon fill="white" stroke="#666666" points="544,-278 427,-278 427,-248 544,-248 544,-278"/>
<text text-anchor="start" x="435" y="-266" font-family="Helvetica,sans-Serif" font-size="10.00">PatchSegmentation::</text>
<text text-anchor="middle" x="485.5" y="-255" font-family="Helvetica,sans-Serif" font-size="10.00">refillRawPoints</text>
</a>
</g>
</g>
<!-- Node13&#45;&gt;Node27 -->
<g id="edge40_Node000013_Node000027" class="edge">
<title>Node13&#45;&gt;Node27</title>
<g id="a_edge40_Node000013_Node000027"><a xlink:title=" ">
<path fill="none" stroke="#63b8ff" d="M326.54,-426.96C341.92,-420.23 357.74,-410.83 369,-398 403.21,-359.02 367.95,-323.3 405,-287 408.77,-283.31 413.08,-280.19 417.7,-277.54"/>
<polygon fill="#63b8ff" stroke="#63b8ff" points="419.48,-280.56 426.92,-273.02 416.4,-274.28 419.48,-280.56"/>
</a>
</g>
</g>
<!-- Node28 -->
<g id="Node000028" class="node">
<title>Node28</title>
<g id="a_Node000028"><a xlink:href="classPatchSegmentation.html#a712463e82395b7797ee915f932e23157" target="_top" xlink:title=" ">
<polygon fill="white" stroke="#666666" points="545,-230 426,-230 426,-200 545,-200 545,-230"/>
<text text-anchor="start" x="434" y="-218" font-family="Helvetica,sans-Serif" font-size="10.00">PatchSegmentation::</text>
<text text-anchor="middle" x="485.5" y="-207" font-family="Helvetica,sans-Serif" font-size="10.00">resampledPointcloud</text>
</a>
</g>
</g>
<!-- Node13&#45;&gt;Node28 -->
<g id="edge43_Node000013_Node000028" class="edge">
<title>Node13&#45;&gt;Node28</title>
<g id="a_edge43_Node000013_Node000028"><a xlink:title=" ">
<path fill="none" stroke="#63b8ff" d="M328.68,-426.91C343.64,-420.25 358.67,-410.91 369,-398 414.26,-341.42 355.6,-292.01 405,-239 408.38,-235.37 412.3,-232.28 416.54,-229.65"/>
<polygon fill="#63b8ff" stroke="#63b8ff" points="418.39,-232.63 425.62,-224.88 415.14,-226.43 418.39,-232.63"/>
</a>
</g>
</g>
<!-- Node29 -->
<g id="Node000029" class="node">
<title>Node29</title>
<g id="a_Node000029"><a xlink:href="classrobin__hood_1_1detail_1_1Table.html#a6c2d436df6800ac290cc26da5961a331" target="_top" xlink:title=" ">
<polygon fill="white" stroke="#666666" points="537.5,-78 433.5,-78 433.5,-48 537.5,-48 537.5,-78"/>
<text text-anchor="start" x="441.5" y="-66" font-family="Helvetica,sans-Serif" font-size="10.00">robin_hood::detail</text>
<text text-anchor="middle" x="485.5" y="-55" font-family="Helvetica,sans-Serif" font-size="10.00">::Table::reserve</text>
</a>
</g>
</g>
<!-- Node13&#45;&gt;Node29 -->
<g id="edge45_Node000013_Node000029" class="edge">
<title>Node13&#45;&gt;Node29</title>
<g id="a_edge45_Node000013_Node000029"><a xlink:title=" ">
<path fill="none" stroke="#63b8ff" d="M330.94,-426.87C345.43,-420.28 359.64,-410.98 369,-398 445.72,-291.56 330.54,-213.02 405,-105 411.24,-95.95 420.06,-88.7 429.58,-82.94"/>
<polygon fill="#63b8ff" stroke="#63b8ff" points="431.38,-85.95 438.46,-78.07 428.01,-79.81 431.38,-85.95"/>
</a>
</g>
</g>
<!-- Node30 -->
<g id="Node000030" class="node">
<title>Node30</title>
<g id="a_Node000030"><a xlink:href="structuvgvpcc__enc_1_1Patch.html#a3ecf8a9dc6427df10fb92d4220d3a50f" target="_top" xlink:title=" ">
<polygon fill="white" stroke="#666666" points="541.5,-144 429.5,-144 429.5,-114 541.5,-114 541.5,-144"/>
<text text-anchor="start" x="437.5" y="-132" font-family="Helvetica,sans-Serif" font-size="10.00">uvgvpcc_enc::Patch</text>
<text text-anchor="middle" x="485.5" y="-121" font-family="Helvetica,sans-Serif" font-size="10.00">::setPatchPpi</text>
</a>
</g>
</g>
<!-- Node13&#45;&gt;Node30 -->
<g id="edge47_Node000013_Node000030" class="edge">
<title>Node13&#45;&gt;Node30</title>
<g id="a_edge47_Node000013_Node000030"><a xlink:title=" ">
<path fill="none" stroke="#63b8ff" d="M330.24,-426.93C344.89,-420.32 359.36,-411 369,-398 433.23,-311.35 336.76,-241.53 405,-158 409.31,-152.73 414.66,-148.41 420.55,-144.88"/>
<polygon fill="#63b8ff" stroke="#63b8ff" points="422.21,-147.96 429.48,-140.25 418.99,-141.74 422.21,-147.96"/>
</a>
</g>
</g>
<!-- Node16 -->
<g id="Node000016" class="node">
<title>Node16</title>
<g id="a_Node000016"><a xlink:href="namespaceuvgvpcc__enc.html#a735c39eb14ded23670bac21df7dc8189" target="_top" xlink:title=" ">
<polygon fill="white" stroke="#666666" points="915,-458.5 788,-458.5 788,-439.5 915,-439.5 915,-458.5"/>
<text text-anchor="middle" x="851.5" y="-446.5" font-family="Helvetica,sans-Serif" font-size="10.00">uvgvpcc_enc::roundUp</text>
</a>
</g>
</g>
<!-- Node15&#45;&gt;Node16 -->
<g id="edge23_Node000015_Node000016" class="edge">
<title>Node15&#45;&gt;Node16</title>
<g id="a_edge23_Node000015_Node000016"><a xlink:title=" ">
<path fill="none" stroke="#63b8ff" d="M752.16,-462.68C760.6,-461.51 769.19,-460.31 777.62,-459.14"/>
<polygon fill="#63b8ff" stroke="#63b8ff" points="778.36,-462.57 787.78,-457.73 777.39,-455.64 778.36,-462.57"/>
</a>
</g>
</g>
<!-- Node17&#45;&gt;Node16 -->
<g id="edge25_Node000017_Node000016" class="edge">
<title>Node17&#45;&gt;Node16</title>
<g id="a_edge25_Node000017_Node000016"><a xlink:title=" ">
<path fill="none" stroke="#63b8ff" d="M740.28,-433.66C752.46,-435.36 765.34,-437.15 777.82,-438.89"/>
<polygon fill="#63b8ff" stroke="#63b8ff" points="777.35,-442.36 787.74,-440.27 778.31,-435.42 777.35,-442.36"/>
</a>
</g>
</g>
<!-- Node20 -->
<g id="Node000020" class="node">
<title>Node20</title>
<g id="a_Node000020"><a xlink:href="classrobin__hood_1_1detail_1_1Table.html#afb214db6f1196694807c182a1ae4d9ba" target="_top" xlink:title=" ">
<polygon fill="white" stroke="#666666" points="729,-392 625,-392 625,-362 729,-362 729,-392"/>
<text text-anchor="start" x="633" y="-380" font-family="Helvetica,sans-Serif" font-size="10.00">robin_hood::detail</text>
<text text-anchor="middle" x="677" y="-369" font-family="Helvetica,sans-Serif" font-size="10.00">::Table::at</text>
</a>
</g>
</g>
<!-- Node19&#45;&gt;Node20 -->
<g id="edge28_Node000019_Node000020" class="edge">
<title>Node19&#45;&gt;Node20</title>
<g id="a_edge28_Node000019_Node000020"><a xlink:title=" ">
<path fill="none" stroke="#63b8ff" d="M527.88,-326.09C559.47,-337.6 598.23,-351.7 602,-353 607.48,-354.89 613.21,-356.81 618.94,-358.72"/>
<polygon fill="#63b8ff" stroke="#63b8ff" points="617.95,-362.08 628.55,-361.88 620.14,-355.43 617.95,-362.08"/>
</a>
</g>
</g>
<!-- Node21 -->
<g id="Node000021" class="node">
<title>Node21</title>
<g id="a_Node000021"><a xlink:href="classrobin__hood_1_1detail_1_1Table.html#a79fdf3ba7034cb3eb36bbda40ec2d3c7" target="_top" xlink:title=" ">
<polygon fill="white" stroke="#666666" points="729,-278 625,-278 625,-248 729,-248 729,-278"/>
<text text-anchor="start" x="633" y="-266" font-family="Helvetica,sans-Serif" font-size="10.00">robin_hood::detail</text>
<text text-anchor="middle" x="677" y="-255" font-family="Helvetica,sans-Serif" font-size="10.00">::Table::contains</text>
</a>
</g>
</g>
<!-- Node19&#45;&gt;Node21 -->
<g id="edge29_Node000019_Node000021" class="edge">
<title>Node19&#45;&gt;Node21</title>
<g id="a_edge29_Node000019_Node000021"><a xlink:title=" ">
<path fill="none" stroke="#63b8ff" d="M545.94,-295.94C567.87,-290.39 592.75,-284.09 614.83,-278.49"/>
<polygon fill="#63b8ff" stroke="#63b8ff" points="615.92,-281.83 624.76,-275.98 614.21,-275.04 615.92,-281.83"/>
</a>
</g>
</g>
<!-- Node23 -->
<g id="Node000023" class="node">
<title>Node23</title>
<g id="a_Node000023"><a xlink:href="classrobin__hood_1_1detail_1_1Table.html#a0539538ef39c9c19c00253a705890919" target="_top" xlink:title=" ">
<polygon fill="white" stroke="#666666" points="729,-326 625,-326 625,-296 729,-296 729,-326"/>
<text text-anchor="start" x="633" y="-314" font-family="Helvetica,sans-Serif" font-size="10.00">robin_hood::detail</text>
<text text-anchor="middle" x="677" y="-303" font-family="Helvetica,sans-Serif" font-size="10.00">::Table::erase</text>
</a>
</g>
</g>
<!-- Node19&#45;&gt;Node23 -->
<g id="edge31_Node000019_Node000023" class="edge">
<title>Node19&#45;&gt;Node23</title>
<g id="a_edge31_Node000019_Node000023"><a xlink:title=" ">
<path fill="none" stroke="#63b8ff" d="M566.04,-311C582.17,-311 598.9,-311 614.31,-311"/>
<polygon fill="#63b8ff" stroke="#63b8ff" points="614.73,-314.5 624.73,-311 614.73,-307.5 614.73,-314.5"/>
</a>
</g>
</g>
<!-- Node22 -->
<g id="Node000022" class="node">
<title>Node22</title>
<g id="a_Node000022"><a xlink:href="classrobin__hood_1_1detail_1_1Table.html#a98a73a7b295dc5cb50304068fbd811bd" target="_top" xlink:title=" ">
<polygon fill="white" stroke="#666666" points="903.5,-278 799.5,-278 799.5,-248 903.5,-248 903.5,-278"/>
<text text-anchor="start" x="807.5" y="-266" font-family="Helvetica,sans-Serif" font-size="10.00">robin_hood::detail</text>
<text text-anchor="middle" x="851.5" y="-255" font-family="Helvetica,sans-Serif" font-size="10.00">::Table::count</text>
</a>
</g>
</g>
<!-- Node21&#45;&gt;Node22 -->
<g id="edge30_Node000021_Node000022" class="edge">
<title>Node21&#45;&gt;Node22</title>
<g id="a_edge30_Node000021_Node000022"><a xlink:title=" ">
<path fill="none" stroke="#63b8ff" d="M729.29,-263C748.15,-263 769.69,-263 789.33,-263"/>
<polygon fill="#63b8ff" stroke="#63b8ff" points="789.41,-266.5 799.41,-263 789.41,-259.5 789.41,-266.5"/>
</a>
</g>
</g>
<!-- Node23&#45;&gt;Node23 -->
<g id="edge32_Node000023_Node000023" class="edge">
<title>Node23&#45;&gt;Node23</title>
<g id="a_edge32_Node000023_Node000023"><a xlink:title=" ">
<path fill="none" stroke="#63b8ff" d="M646.41,-326.28C639.62,-335.41 649.81,-344 677,-344 693.14,-344 703.29,-340.97 707.46,-336.6"/>
<polygon fill="#63b8ff" stroke="#63b8ff" points="710.96,-336.32 707.59,-326.28 703.96,-336.23 710.96,-336.32"/>
</a>
</g>
</g>
<!-- Node26&#45;&gt;Node7 -->
<g id="edge39_Node000026_Node000007" class="edge">
<title>Node26&#45;&gt;Node7</title>
<g id="a_edge39_Node000026_Node000007"><a xlink:title=" ">
<path fill="none" stroke="#63b8ff" d="M544.14,-483.55C552.13,-486.87 559.73,-491.25 566,-497 643.93,-568.5 667.59,-702.51 673.92,-753.04"/>
<polygon fill="#63b8ff" stroke="#63b8ff" points="670.48,-753.72 675.1,-763.26 677.43,-752.92 670.48,-753.72"/>
</a>
</g>
</g>
<!-- Node26&#45;&gt;Node15 -->
<g id="edge38_Node000026_Node000015" class="edge">
<title>Node26&#45;&gt;Node15</title>
<g id="a_edge38_Node000026_Node000015"><a xlink:title=" ">
<path fill="none" stroke="#63b8ff" d="M544.13,-473C559.05,-473 575.42,-473 591.41,-473"/>
<polygon fill="#63b8ff" stroke="#63b8ff" points="591.83,-476.5 601.83,-473 591.83,-469.5 591.83,-476.5"/>
</a>
</g>
</g>
<!-- Node27&#45;&gt;Node21 -->
<g id="edge41_Node000027_Node000021" class="edge">
<title>Node27&#45;&gt;Node21</title>
<g id="a_edge41_Node000027_Node000021"><a xlink:title=" ">
<path fill="none" stroke="#63b8ff" d="M544.13,-263C566.41,-263 591.95,-263 614.58,-263"/>
<polygon fill="#63b8ff" stroke="#63b8ff" points="614.76,-266.5 624.76,-263 614.76,-259.5 614.76,-266.5"/>
</a>
</g>
</g>
<!-- Node27&#45;&gt;Node24 -->
<g id="edge42_Node000027_Node000024" class="edge">
<title>Node27&#45;&gt;Node24</title>
<g id="a_edge42_Node000027_Node000024"><a xlink:title=" ">
<path fill="none" stroke="#63b8ff" d="M544.13,-248.4C566.51,-242.73 592.18,-236.23 614.89,-230.48"/>
<polygon fill="#63b8ff" stroke="#63b8ff" points="615.92,-233.83 624.76,-227.98 614.2,-227.04 615.92,-233.83"/>
</a>
</g>
</g>
<!-- Node28&#45;&gt;Node24 -->
<g id="edge44_Node000028_Node000024" class="edge">
<title>Node28&#45;&gt;Node24</title>
<g id="a_edge44_Node000028_Node000024"><a xlink:title=" ">
<path fill="none" stroke="#63b8ff" d="M545.16,-215C567.31,-215 592.56,-215 614.93,-215"/>
<polygon fill="#63b8ff" stroke="#63b8ff" points="614.98,-218.5 624.98,-215 614.98,-211.5 614.98,-218.5"/>
</a>
</g>
</g>
<!-- Node29&#45;&gt;Node29 -->
<g id="edge46_Node000029_Node000029" class="edge">
<title>Node29&#45;&gt;Node29</title>
<g id="a_edge46_Node000029_Node000029"><a xlink:title=" ">
<path fill="none" stroke="#63b8ff" d="M452.1,-78.28C444.68,-87.41 455.81,-96 485.5,-96 503.13,-96 514.21,-92.97 518.76,-88.6"/>
<polygon fill="#63b8ff" stroke="#63b8ff" points="522.26,-88.32 518.9,-78.28 515.26,-88.23 522.26,-88.32"/>
</a>
</g>
</g>
<!-- Node31 -->
<g id="Node000031" class="node">
<title>Node31</title>
<g id="a_Node000031"><a xlink:href="structuvgvpcc__enc_1_1Patch.html#ad24dc23eb86f57f9cc5bdbb9f54e668a" target="_top" xlink:title=" ">
<polygon fill="white" stroke="#666666" points="733,-144 621,-144 621,-114 733,-114 733,-144"/>
<text text-anchor="start" x="629" y="-132" font-family="Helvetica,sans-Serif" font-size="10.00">uvgvpcc_enc::Patch</text>
<text text-anchor="middle" x="677" y="-121" font-family="Helvetica,sans-Serif" font-size="10.00">::setAxis</text>
</a>
</g>
</g>
<!-- Node30&#45;&gt;Node31 -->
<g id="edge48_Node000030_Node000031" class="edge">
<title>Node30&#45;&gt;Node31</title>
<g id="a_edge48_Node000030_Node000031"><a xlink:title=" ">
<path fill="none" stroke="#63b8ff" d="M541.57,-129C563.17,-129 588.14,-129 610.65,-129"/>
<polygon fill="#63b8ff" stroke="#63b8ff" points="610.8,-132.5 620.8,-129 610.8,-125.5 610.8,-132.5"/>
</a>
</g>
</g>
<!-- Node32&#45;&gt;Node6 -->
<g id="edge51_Node000032_Node000006" class="edge">
<title>Node32&#45;&gt;Node6</title>
<g id="a_edge51_Node000032_Node000006"><a xlink:title=" ">
<path fill="none" stroke="#63b8ff" d="M369.25,-811.66C388,-811.39 407.24,-811.11 424.5,-810.87"/>
<polygon fill="#63b8ff" stroke="#63b8ff" points="425.02,-814.36 434.97,-810.71 424.92,-807.36 425.02,-814.36"/>
</a>
</g>
</g>
<!-- Node32&#45;&gt;Node7 -->
<g id="edge52_Node000032_Node000007" class="edge">
<title>Node32&#45;&gt;Node7</title>
<g id="a_edge52_Node000032_Node000007"><a xlink:title=" ">
<path fill="none" stroke="#63b8ff" d="M335.91,-822.61C347.06,-825.14 358.51,-828.24 369,-832 386.03,-838.1 387.44,-846.65 405,-851 474.46,-868.2 497.82,-872.72 566,-851 603.64,-839.01 639.46,-808.93 659.49,-789.83"/>
<polygon fill="#63b8ff" stroke="#63b8ff" points="662.15,-792.13 666.84,-782.63 657.25,-787.13 662.15,-792.13"/>
</a>
</g>
</g>
<!-- Node32&#45;&gt;Node9 -->
<g id="edge53_Node000032_Node000009" class="edge">
<title>Node32&#45;&gt;Node9</title>
<g id="a_edge53_Node000032_Node000009"><a xlink:title=" ">
<path fill="none" stroke="#63b8ff" d="M326.06,-803.47C355.77,-797.76 393.73,-790.46 425.05,-784.43"/>
<polygon fill="#63b8ff" stroke="#63b8ff" points="425.8,-787.85 434.96,-782.53 424.48,-780.98 425.8,-787.85"/>
</a>
</g>
</g>
<!-- Node33&#45;&gt;Node7 -->
<g id="edge55_Node000033_Node000007" class="edge">
<title>Node33&#45;&gt;Node7</title>
<g id="a_edge55_Node000033_Node000007"><a xlink:title=" ">
<path fill="none" stroke="#63b8ff" d="M313.66,-378.14C374.32,-377.19 494.95,-384.29 566,-449 613.02,-491.83 658.35,-689.72 671.91,-753.28"/>
<polygon fill="#63b8ff" stroke="#63b8ff" points="668.52,-754.15 674,-763.22 675.37,-752.71 668.52,-754.15"/>
</a>
</g>
</g>
<!-- Node33&#45;&gt;Node29 -->
<g id="edge56_Node000033_Node000029" class="edge">
<title>Node33&#45;&gt;Node29</title>
<g id="a_edge56_Node000033_Node000029"><a xlink:title=" ">
<path fill="none" stroke="#63b8ff" d="M278.61,-370.46C287.44,-332.36 324.87,-189.15 405,-105 413.41,-96.17 424.09,-88.82 434.87,-82.86"/>
<polygon fill="#63b8ff" stroke="#63b8ff" points="436.63,-85.89 443.91,-78.19 433.42,-79.67 436.63,-85.89"/>
</a>
</g>
</g>
<!-- Node34 -->
<g id="Node000034" class="node">
<title>Node34</title>
<g id="a_Node000034"><a xlink:href="classrobin__hood_1_1detail_1_1Table.html#a1d9deb34fedb87863788360123c53973" target="_top" xlink:title=" ">
<polygon fill="white" stroke="#666666" points="543,-30 428,-30 428,0 543,0 543,-30"/>
<text text-anchor="start" x="436" y="-18" font-family="Helvetica,sans-Serif" font-size="10.00">robin_hood::detail</text>
<text text-anchor="middle" x="485.5" y="-7" font-family="Helvetica,sans-Serif" font-size="10.00">::Table::try_emplace</text>
</a>
</g>
</g>
<!-- Node33&#45;&gt;Node34 -->
<g id="edge57_Node000033_Node000034" class="edge">
<title>Node33&#45;&gt;Node34</title>
<g id="a_edge57_Node000033_Node000034"><a xlink:title=" ">
<path fill="none" stroke="#63b8ff" d="M277.12,-370.49C280.55,-325.96 301.02,-136.22 405,-39 409.08,-35.18 413.75,-31.97 418.73,-29.27"/>
<polygon fill="#63b8ff" stroke="#63b8ff" points="420.41,-32.35 427.98,-24.94 417.44,-26.01 420.41,-32.35"/>
</a>
</g>
</g>
</g>
</svg>

<g id="navigator" transform="translate(0 0)" fill="#404254">
  <rect fill="#f2f5e9" fill-opacity="0.5" stroke="#606060" stroke-width=".5" x="0" y="0" width="60" height="60"/>
  <use id="zoomplus" xlink:href="#zoomPlus" x="17" y="9" onmousedown="handleZoom(evt,'in')"/>
  <use id="zoomminus" xlink:href="#zoomMin" x="42" y="9" onmousedown="handleZoom(evt,'out')"/>
  <use id="reset" xlink:href="#resetDef" x="30" y="36" onmousedown="handleReset()"/>
   <use id="arrowup" xlink:href="#arrowUp" x="0" y="0" onmousedown="handlePan(0,-1)"/>
  <use id="arrowright" xlink:href="#arrowRight" x="0" y="0" onmousedown="handlePan(1,0)"/>
  <use id="arrowdown" xlink:href="#arrowDown" x="0" y="0" onmousedown="handlePan(0,1)"/>
  <use id="arrowleft" xlink:href="#arrowLeft" x="0" y="0" onmousedown="handlePan(-1,0)"/>
</g>
<svg viewBox="0 0 15 15" width="100%" height="30px" preserveAspectRatio="xMaxYMin meet">
 <g id="arrow_out" transform="scale(0.3 0.3)">
  <a xlink:href="classPatchGeneration_a0f5554a29116f3ceeba740292bffa5d7_cgraph_org.svg" target="_base">
   <rect id="button" ry="5" rx="5" y="6" x="6" height="38" width="38"
        fill="#f2f5e9" fill-opacity="0.5" stroke="#606060" stroke-width="1.0"/>
   <path id="arrow"
     d="M 11.500037,31.436501 C 11.940474,20.09759 22.043105,11.32322 32.158766,21.979434 L 37.068811,17.246167 C 37.068811,17.246167 37.088388,32 37.088388,32 L 22.160133,31.978069 C 22.160133,31.978069 26.997745,27.140456 26.997745,27.140456 C 18.528582,18.264221 13.291696,25.230495 11.500037,31.436501 z"
     style="fill:#404040;"/>
  </a>
 </g>
</svg>

<style type='text/css'>
<![CDATA[
[data-mouse-over-selected='false'] { opacity: 0.7; }
[data-mouse-over-selected='true']  { opacity: 1.0; }
]]>
</style>
<script type="application/ecmascript"><![CDATA[
document.addEventListener('DOMContentLoaded', (event) => {
  highlightEdges();
  highlightAdjacentNodes();
});
]]></script>
</svg>
