<?xml version="1.0" encoding="UTF-8" standalone="no"?>
<!DOCTYPE svg PUBLIC "-//W3C//DTD SVG 1.1//EN"
 "http://www.w3.org/Graphics/SVG/1.1/DTD/svg11.dtd">
<!-- Generated by graphviz version 2.43.0 (0)
 -->
<!-- Title: uvgutils::Job::addDependency Pages: 1 -->
<svg width="333pt" height="64pt"
 viewBox="0.00 0.00 333.00 64.00" xmlns="http://www.w3.org/2000/svg" xmlns:xlink="http://www.w3.org/1999/xlink">
<g id="graph0" class="graph" transform="scale(1 1) rotate(0) translate(4 60)">
<title>uvgutils::Job::addDependency</title>
<!-- Node1 -->
<g id="Node000001" class="node">
<title>Node1</title>
<g id="a_Node000001"><a xlink:title=" ">
<polygon fill="#999999" stroke="#666666" points="161,-37 0,-37 0,-18 161,-18 161,-37"/>
<text text-anchor="middle" x="80.5" y="-25" font-family="Helvetica,sans-Serif" font-size="10.00">uvgutils::Job::addDependency</text>
</a>
</g>
</g>
<!-- Node2 -->
<g id="Node000002" class="node">
<title>Node2</title>
<g id="a_Node000002"><a xlink:href="classuvgutils_1_1Job.html#aee2a092b1e73b8a9d770b6c8b3402baf" target="_top" xlink:title=" ">
<polygon fill="white" stroke="#666666" points="325,-56 197,-56 197,-37 325,-37 325,-56"/>
<text text-anchor="middle" x="261" y="-44" font-family="Helvetica,sans-Serif" font-size="10.00">uvgutils::Job::getName</text>
</a>
</g>
</g>
<!-- Node1&#45;&gt;Node2 -->
<g id="edge1_Node000001_Node000002" class="edge">
<title>Node1&#45;&gt;Node2</title>
<g id="a_edge1_Node000001_Node000002"><a xlink:title=" ">
<path fill="none" stroke="#63b8ff" d="M161.09,-35.97C169.62,-36.88 178.26,-37.8 186.71,-38.7"/>
<polygon fill="#63b8ff" stroke="#63b8ff" points="186.58,-42.2 196.9,-39.78 187.32,-35.24 186.58,-42.2"/>
</a>
</g>
</g>
<!-- Node3 -->
<g id="Node000003" class="node">
<title>Node3</title>
<g id="a_Node000003"><a xlink:href="namespaceuvgutils.html#ab91367f5f20b6033f5dcedabbfe60193" target="_top" xlink:title=" ">
<polygon fill="white" stroke="#666666" points="324,-19 198,-19 198,0 324,0 324,-19"/>
<text text-anchor="middle" x="261" y="-7" font-family="Helvetica,sans-Serif" font-size="10.00">uvgutils::jobStateToStr</text>
</a>
</g>
</g>
<!-- Node1&#45;&gt;Node3 -->
<g id="edge2_Node000001_Node000003" class="edge">
<title>Node1&#45;&gt;Node3</title>
<g id="a_edge2_Node000001_Node000003"><a xlink:title=" ">
<path fill="none" stroke="#63b8ff" d="M161.09,-19.47C169.98,-18.58 179,-17.67 187.78,-16.78"/>
<polygon fill="#63b8ff" stroke="#63b8ff" points="188.37,-20.24 197.97,-15.75 187.67,-13.28 188.37,-20.24"/>
</a>
</g>
</g>
</g>
</svg>
