<?xml version="1.0" encoding="UTF-8" standalone="no"?>
<!DOCTYPE svg PUBLIC "-//W3C//DTD SVG 1.1//EN"
 "http://www.w3.org/Graphics/SVG/1.1/DTD/svg11.dtd">
<!-- Generated by graphviz version 2.43.0 (0)
 -->
<!-- Title: miniply::PLYReader::element Pages: 1 -->
<!--zoomable 626 -->

<svg id="main" version="1.1" xmlns="http://www.w3.org/2000/svg" xmlns:xlink="http://www.w3.org/1999/xlink" xml:space="preserve" onload="init(evt)">
<style type="text/css"><![CDATA[
.node, .edge {opacity: 0.7;}
.node.selected, .edge.selected {opacity: 1;}
.edge:hover path { stroke: red; }
.edge:hover polygon { stroke: red; fill: red; }
]]></style>

<defs>
  <circle id="rim" cx="0" cy="0" r="7"/>
  <circle id="rim2" cx="0" cy="0" r="3.5"/>
  <g id="zoomPlus">
    <use xlink:href="#rim" fill="#404040"><set attributeName="fill" to="#808080" begin="zoomplus.mouseover" end="zoomplus.mouseout"/></use>
    <path d="M-4,0h8M0,-4v8" fill="none" stroke="white" stroke-width="1.5" pointer-events="none"/>
  </g>
  <g id="zoomMin">
    <use xlink:href="#rim" fill="#404040"><set attributeName="fill" to="#808080" begin="zoomminus.mouseover" end="zoomminus.mouseout"/></use>
    <path d="M-4,0h8" fill="none" stroke="white" stroke-width="1.5" pointer-events="none"/>
  </g>
  <g id="arrowUp" transform="translate(30 24)">
    <use xlink:href="#rim"/>
    <path pointer-events="none" fill="none" stroke="white" stroke-width="1.5" d="M0,-3.0v7 M-2.5,-0.5L0,-3.0L2.5,-0.5"/>
  </g>
  <g id="arrowRight" transform="rotate(90) translate(36 -43)">
    <use xlink:href="#rim"/>
    <path pointer-events="none" fill="none" stroke="white" stroke-width="1.5" d="M0,-3.0v7 M-2.5,-0.5L0,-3.0L2.5,-0.5"/>
  </g>
  <g id="arrowDown" transform="rotate(180) translate(-30 -48)">
    <use xlink:href="#rim"/>
    <path pointer-events="none" fill="none" stroke="white" stroke-width="1.5" d="M0,-3.0v7 M-2.5,-0.5L0,-3.0L2.5,-0.5"/>
  </g>
  <g id="arrowLeft" transform="rotate(270) translate(-36 17)">
    <use xlink:href="#rim"/>
    <path pointer-events="none" fill="none" stroke="white" stroke-width="1.5" d="M0,-3.0v7 M-2.5,-0.5L0,-3.0L2.5,-0.5"/>
  </g>
  <g id="resetDef">
    <use xlink:href="#rim2" fill="#404040"><set attributeName="fill" to="#808080" begin="reset.mouseover" end="reset.mouseout"/></use>
  </g>
</defs>
<script type="application/ecmascript">
var viewWidth = 582;
var viewHeight = 626;
var sectionId = 'dynsection-2';
</script>
<script type="application/ecmascript" xlink:href="svg.min.js"/>
<svg id="graph" class="graph">
<g id="viewport">
<title>miniply::PLYReader::element</title>
<!-- Node1 -->
<g id="Node000001" class="node">
<title>Node1</title>
<g id="a_Node000001"><a xlink:title=" ">
<polygon fill="#999999" stroke="#666666" points="574,-298 464,-298 464,-268 574,-268 574,-298"/>
<text text-anchor="start" x="472" y="-286" font-family="Helvetica,sans-Serif" font-size="10.00">miniply::PLYReader</text>
<text text-anchor="middle" x="519" y="-275" font-family="Helvetica,sans-Serif" font-size="10.00">::element</text>
</a>
</g>
</g>
<!-- Node2 -->
<g id="Node000002" class="node">
<title>Node2</title>
<g id="a_Node000002"><a xlink:href="classminiply_1_1PLYReader.html#a5a7f6084cb54ccbb47f2b5e952c6a73c" target="_top" xlink:title="Check whether the current element has the given name.">
<polygon fill="white" stroke="#666666" points="425,-618 315,-618 315,-588 425,-588 425,-618"/>
<text text-anchor="start" x="323" y="-606" font-family="Helvetica,sans-Serif" font-size="10.00">miniply::PLYReader</text>
<text text-anchor="middle" x="370" y="-595" font-family="Helvetica,sans-Serif" font-size="10.00">::element_is</text>
</a>
</g>
</g>
<!-- Node1&#45;&gt;Node2 -->
<g id="edge1_Node000001_Node000002" class="edge">
<title>Node1&#45;&gt;Node2</title>
<g id="a_edge1_Node000001_Node000002"><a xlink:title=" ">
<path fill="none" stroke="#63b8ff" d="M516.64,-308.43C512.46,-363.19 495.57,-493.78 428,-574 423.35,-579.52 417.39,-584.11 411.08,-587.88"/>
<polygon fill="#63b8ff" stroke="#63b8ff" points="520.15,-308.45 517.34,-298.24 513.17,-307.97 520.15,-308.45"/>
</a>
</g>
</g>
<!-- Node3 -->
<g id="Node000003" class="node">
<title>Node3</title>
<g id="a_Node000003"><a xlink:href="classminiply_1_1PLYReader.html#a2c71e492c56ebee22a9011c76cad0ae9" target="_top" xlink:title=" ">
<polygon fill="white" stroke="#666666" points="273,-580 149,-580 149,-550 273,-550 273,-580"/>
<text text-anchor="start" x="157" y="-568" font-family="Helvetica,sans-Serif" font-size="10.00">miniply::PLYReader</text>
<text text-anchor="middle" x="211" y="-557" font-family="Helvetica,sans-Serif" font-size="10.00">::extract_list_property</text>
</a>
</g>
</g>
<!-- Node1&#45;&gt;Node3 -->
<g id="edge2_Node000001_Node000003" class="edge">
<title>Node1&#45;&gt;Node3</title>
<g id="a_edge2_Node000001_Node000003"><a xlink:title=" ">
<path fill="none" stroke="#63b8ff" d="M517.21,-308.28C514.11,-360.1 499.17,-478.3 428,-536 384.94,-570.91 320.43,-575.36 273.12,-572.78"/>
<polygon fill="#63b8ff" stroke="#63b8ff" points="520.7,-308.44 517.71,-298.28 513.71,-308.09 520.7,-308.44"/>
</a>
</g>
</g>
<!-- Node4 -->
<g id="Node000004" class="node">
<title>Node4</title>
<g id="a_Node000004"><a xlink:href="classminiply_1_1PLYReader.html#aa51b5c6344acb425b1b5d36c98a8f698" target="_top" xlink:title=" ">
<polygon fill="white" stroke="#666666" points="110,-537 0,-537 0,-507 110,-507 110,-537"/>
<text text-anchor="start" x="8" y="-525" font-family="Helvetica,sans-Serif" font-size="10.00">miniply::PLYReader</text>
<text text-anchor="middle" x="55" y="-514" font-family="Helvetica,sans-Serif" font-size="10.00">::extract_triangles</text>
</a>
</g>
</g>
<!-- Node1&#45;&gt;Node4 -->
<g id="edge7_Node000001_Node000004" class="edge">
<title>Node1&#45;&gt;Node4</title>
<g id="a_edge7_Node000001_Node000004"><a xlink:title=" ">
<path fill="none" stroke="#63b8ff" d="M512.72,-308.06C503.06,-347.61 478.66,-424.18 428,-465 336.17,-539 188.9,-536.98 110.02,-529.36"/>
<polygon fill="#63b8ff" stroke="#63b8ff" points="516.17,-308.71 515.02,-298.17 509.35,-307.12 516.17,-308.71"/>
</a>
</g>
</g>
<!-- Node5 -->
<g id="Node000005" class="node">
<title>Node5</title>
<g id="a_Node000005"><a xlink:href="classminiply_1_1PLYReader.html#a567b0c1b1aa8ee95da31305f8a0703dc" target="_top" xlink:title=" ">
<polygon fill="white" stroke="#666666" points="426,-456 314,-456 314,-426 426,-426 426,-456"/>
<text text-anchor="start" x="322" y="-444" font-family="Helvetica,sans-Serif" font-size="10.00">miniply::PLYReader</text>
<text text-anchor="middle" x="370" y="-433" font-family="Helvetica,sans-Serif" font-size="10.00">::extract_properties</text>
</a>
</g>
</g>
<!-- Node1&#45;&gt;Node5 -->
<g id="edge4_Node000001_Node000005" class="edge">
<title>Node1&#45;&gt;Node5</title>
<g id="a_edge4_Node000001_Node000005"><a xlink:title=" ">
<path fill="none" stroke="#63b8ff" d="M501.68,-306.59C484.66,-330.39 456.52,-367.6 428,-396 417.1,-406.85 403.64,-417.58 392.54,-425.84"/>
<polygon fill="#63b8ff" stroke="#63b8ff" points="504.72,-308.35 507.63,-298.17 499,-304.31 504.72,-308.35"/>
</a>
</g>
</g>
<!-- Node6 -->
<g id="Node000006" class="node">
<title>Node6</title>
<g id="a_Node000006"><a xlink:href="classminiply_1_1PLYReader.html#acb9146f0176d6d12701f1e71126a4ee2" target="_top" xlink:title=" ">
<polygon fill="white" stroke="#666666" points="267,-493.5 155,-493.5 155,-452.5 267,-452.5 267,-493.5"/>
<text text-anchor="start" x="163" y="-481.5" font-family="Helvetica,sans-Serif" font-size="10.00">miniply::PLYReader</text>
<text text-anchor="start" x="163" y="-470.5" font-family="Helvetica,sans-Serif" font-size="10.00">::extract_properties</text>
<text text-anchor="middle" x="211" y="-459.5" font-family="Helvetica,sans-Serif" font-size="10.00">_with_stride</text>
</a>
</g>
</g>
<!-- Node1&#45;&gt;Node6 -->
<g id="edge6_Node000001_Node000006" class="edge">
<title>Node1&#45;&gt;Node6</title>
<g id="a_edge6_Node000001_Node000006"><a xlink:title=" ">
<path fill="none" stroke="#63b8ff" d="M493.09,-304.99C475.53,-319.96 451.12,-339.76 428,-355 379.19,-387.17 361.59,-386.04 312,-417 295.26,-427.45 293.01,-432.99 276,-443 270.5,-446.24 264.59,-449.4 258.67,-452.38"/>
<polygon fill="#63b8ff" stroke="#63b8ff" points="495.84,-307.24 501.13,-298.06 491.27,-301.94 495.84,-307.24"/>
</a>
</g>
</g>
<!-- Node7 -->
<g id="Node000007" class="node">
<title>Node7</title>
<g id="a_Node000007"><a xlink:href="classminiply_1_1PLYReader.html#ab6f68be0808073bcb0f4321cc1718d44" target="_top" xlink:title="Equivalent to calling find_properties on the current element.">
<polygon fill="white" stroke="#666666" points="425,-346 315,-346 315,-316 425,-316 425,-346"/>
<text text-anchor="start" x="323" y="-334" font-family="Helvetica,sans-Serif" font-size="10.00">miniply::PLYReader</text>
<text text-anchor="middle" x="370" y="-323" font-family="Helvetica,sans-Serif" font-size="10.00">::find_properties</text>
</a>
</g>
</g>
<!-- Node1&#45;&gt;Node7 -->
<g id="edge8_Node000001_Node000007" class="edge">
<title>Node1&#45;&gt;Node7</title>
<g id="a_edge8_Node000001_Node000007"><a xlink:title=" ">
<path fill="none" stroke="#63b8ff" d="M462.24,-301.21C447.29,-306.09 431.3,-311.31 416.94,-316"/>
<polygon fill="#63b8ff" stroke="#63b8ff" points="463.47,-304.49 471.89,-298.06 461.3,-297.83 463.47,-304.49"/>
</a>
</g>
</g>
<!-- Node13 -->
<g id="Node000013" class="node">
<title>Node13</title>
<g id="a_Node000013"><a xlink:href="classminiply_1_1PLYReader.html#a31bffce6e8067881984b7d1c8bbcf8e3" target="_top" xlink:title=" ">
<polygon fill="white" stroke="#666666" points="425,-298 315,-298 315,-268 425,-268 425,-298"/>
<text text-anchor="start" x="323" y="-286" font-family="Helvetica,sans-Serif" font-size="10.00">miniply::PLYReader</text>
<text text-anchor="middle" x="370" y="-275" font-family="Helvetica,sans-Serif" font-size="10.00">::find_property</text>
</a>
</g>
</g>
<!-- Node1&#45;&gt;Node13 -->
<g id="edge14_Node000001_Node000013" class="edge">
<title>Node1&#45;&gt;Node13</title>
<g id="a_edge14_Node000001_Node000013"><a xlink:title=" ">
<path fill="none" stroke="#63b8ff" d="M453.5,-283C444.02,-283 434.34,-283 425.1,-283"/>
<polygon fill="#63b8ff" stroke="#63b8ff" points="453.68,-286.5 463.68,-283 453.68,-279.5 453.68,-286.5"/>
</a>
</g>
</g>
<!-- Node14 -->
<g id="Node000014" class="node">
<title>Node14</title>
<g id="a_Node000014"><a xlink:href="classminiply_1_1PLYReader.html#a6c3a307099823961ebb5fe6381d61a9c" target="_top" xlink:title=" ">
<polygon fill="white" stroke="#666666" points="425,-212 315,-212 315,-182 425,-182 425,-212"/>
<text text-anchor="start" x="323" y="-200" font-family="Helvetica,sans-Serif" font-size="10.00">miniply::PLYReader</text>
<text text-anchor="middle" x="370" y="-189" font-family="Helvetica,sans-Serif" font-size="10.00">::get_list_counts</text>
</a>
</g>
</g>
<!-- Node1&#45;&gt;Node14 -->
<g id="edge15_Node000001_Node000014" class="edge">
<title>Node1&#45;&gt;Node14</title>
<g id="a_edge15_Node000001_Node000014"><a xlink:title=" ">
<path fill="none" stroke="#63b8ff" d="M486.92,-262.3C469.78,-251.15 447.98,-237.38 428,-226 419.7,-221.28 410.55,-216.45 402.05,-212.13"/>
<polygon fill="#63b8ff" stroke="#63b8ff" points="485.14,-265.32 495.43,-267.87 488.98,-259.47 485.14,-265.32"/>
</a>
</g>
</g>
<!-- Node15 -->
<g id="Node000015" class="node">
<title>Node15</title>
<g id="a_Node000015"><a xlink:href="classminiply_1_1PLYReader.html#acbb7c69009a67eea41189fadc9786b36" target="_top" xlink:title=" ">
<polygon fill="white" stroke="#666666" points="266,-194 156,-194 156,-164 266,-164 266,-194"/>
<text text-anchor="start" x="164" y="-182" font-family="Helvetica,sans-Serif" font-size="10.00">miniply::PLYReader</text>
<text text-anchor="middle" x="211" y="-171" font-family="Helvetica,sans-Serif" font-size="10.00">::num_triangles</text>
</a>
</g>
</g>
<!-- Node1&#45;&gt;Node15 -->
<g id="edge21_Node000001_Node000015" class="edge">
<title>Node1&#45;&gt;Node15</title>
<g id="a_edge21_Node000001_Node000015"><a xlink:title=" ">
<path fill="none" stroke="#63b8ff" d="M454.21,-265.1C403.87,-250.73 337.95,-231.31 312,-221 295.37,-214.4 292.4,-210.15 276,-203 269.04,-199.96 261.56,-196.95 254.25,-194.13"/>
<polygon fill="#63b8ff" stroke="#63b8ff" points="453.48,-268.53 464.05,-267.9 455.4,-261.79 453.48,-268.53"/>
</a>
</g>
</g>
<!-- Node16 -->
<g id="Node000016" class="node">
<title>Node16</title>
<g id="a_Node000016"><a xlink:href="classminiply_1_1PLYReader.html#a61b2399d231ea55e8fc1cf75f58b9b7f" target="_top" xlink:title=" ">
<polygon fill="white" stroke="#666666" points="276,-146 146,-146 146,-116 276,-116 276,-146"/>
<text text-anchor="start" x="154" y="-134" font-family="Helvetica,sans-Serif" font-size="10.00">miniply::PLYReader</text>
<text text-anchor="middle" x="211" y="-123" font-family="Helvetica,sans-Serif" font-size="10.00">::requires_triangulation</text>
</a>
</g>
</g>
<!-- Node1&#45;&gt;Node16 -->
<g id="edge22_Node000001_Node000016" class="edge">
<title>Node1&#45;&gt;Node16</title>
<g id="a_edge22_Node000001_Node000016"><a xlink:title=" ">
<path fill="none" stroke="#63b8ff" d="M505.15,-258.99C490.16,-233.43 462.9,-193.85 428,-173 381.92,-145.47 321.36,-135.51 276.09,-132.12"/>
<polygon fill="#63b8ff" stroke="#63b8ff" points="502.13,-260.75 510.11,-267.71 508.21,-257.29 502.13,-260.75"/>
</a>
</g>
</g>
<!-- Node17 -->
<g id="Node000017" class="node">
<title>Node17</title>
<g id="a_Node000017"><a xlink:href="classminiply_1_1PLYReader.html#a9c1d4d6175cb370232f225df3f2453b4" target="_top" xlink:title=" ">
<polygon fill="white" stroke="#666666" points="425,-126 315,-126 315,-96 425,-96 425,-126"/>
<text text-anchor="start" x="323" y="-114" font-family="Helvetica,sans-Serif" font-size="10.00">miniply::PLYReader</text>
<text text-anchor="middle" x="370" y="-103" font-family="Helvetica,sans-Serif" font-size="10.00">::get_list_data</text>
</a>
</g>
</g>
<!-- Node1&#45;&gt;Node17 -->
<g id="edge19_Node000001_Node000017" class="edge">
<title>Node1&#45;&gt;Node17</title>
<g id="a_edge19_Node000001_Node000017"><a xlink:title=" ">
<path fill="none" stroke="#63b8ff" d="M507.63,-258.57C493.49,-227.64 465.54,-174.26 428,-140 422.1,-134.61 415,-129.96 407.86,-126.06"/>
<polygon fill="#63b8ff" stroke="#63b8ff" points="504.47,-260.07 511.74,-267.78 510.86,-257.22 504.47,-260.07"/>
</a>
</g>
</g>
<!-- Node18 -->
<g id="Node000018" class="node">
<title>Node18</title>
<g id="a_Node000018"><a xlink:href="classminiply_1_1PLYReader.html#a45de18e74bbd7a4925c19279b1290985" target="_top" xlink:title="Number of rows in the current element.">
<polygon fill="white" stroke="#666666" points="425,-78 315,-78 315,-48 425,-48 425,-78"/>
<text text-anchor="start" x="323" y="-66" font-family="Helvetica,sans-Serif" font-size="10.00">miniply::PLYReader</text>
<text text-anchor="middle" x="370" y="-55" font-family="Helvetica,sans-Serif" font-size="10.00">::num_rows</text>
</a>
</g>
</g>
<!-- Node1&#45;&gt;Node18 -->
<g id="edge20_Node000001_Node000018" class="edge">
<title>Node1&#45;&gt;Node18</title>
<g id="a_edge20_Node000001_Node000018"><a xlink:title=" ">
<path fill="none" stroke="#63b8ff" d="M512.7,-257.85C502.84,-216.87 478,-135.42 428,-87 424.45,-83.56 420.34,-80.59 415.98,-78.02"/>
<polygon fill="#63b8ff" stroke="#63b8ff" points="509.34,-258.85 514.99,-267.81 516.16,-257.28 509.34,-258.85"/>
</a>
</g>
</g>
<!-- Node19 -->
<g id="Node000019" class="node">
<title>Node19</title>
<g id="a_Node000019"><a xlink:href="classminiply_1_1PLYReader.html#a8711740c8502ca48ff997df0d24e2b42" target="_top" xlink:title=" ">
<polygon fill="white" stroke="#666666" points="428,-30 312,-30 312,0 428,0 428,-30"/>
<text text-anchor="start" x="320" y="-18" font-family="Helvetica,sans-Serif" font-size="10.00">miniply::PLYReader</text>
<text text-anchor="middle" x="370" y="-7" font-family="Helvetica,sans-Serif" font-size="10.00">::sum_of_list_counts</text>
</a>
</g>
</g>
<!-- Node1&#45;&gt;Node19 -->
<g id="edge23_Node000001_Node000019" class="edge">
<title>Node1&#45;&gt;Node19</title>
<g id="a_edge23_Node000001_Node000019"><a xlink:title=" ">
<path fill="none" stroke="#63b8ff" d="M515.35,-258.02C508.97,-209.62 488.47,-102.27 428,-39 424.74,-35.58 420.91,-32.63 416.81,-30.09"/>
<polygon fill="#63b8ff" stroke="#63b8ff" points="511.88,-258.45 516.57,-267.94 518.83,-257.59 511.88,-258.45"/>
</a>
</g>
</g>
<!-- Node3&#45;&gt;Node4 -->
<g id="edge3_Node000003_Node000004" class="edge">
<title>Node3&#45;&gt;Node4</title>
<g id="a_edge3_Node000003_Node000004"><a xlink:title=" ">
<path fill="none" stroke="#63b8ff" d="M146.49,-547.27C134.31,-543.87 121.67,-540.34 109.83,-537.03"/>
<polygon fill="#63b8ff" stroke="#63b8ff" points="145.57,-550.64 156.14,-549.96 147.45,-543.9 145.57,-550.64"/>
</a>
</g>
</g>
<!-- Node5&#45;&gt;Node6 -->
<g id="edge5_Node000005_Node000006" class="edge">
<title>Node5&#45;&gt;Node6</title>
<g id="a_edge5_Node000005_Node000006"><a xlink:title=" ">
<path fill="none" stroke="#63b8ff" d="M303.59,-454.33C291.46,-456.8 278.9,-459.36 267.12,-461.77"/>
<polygon fill="#63b8ff" stroke="#63b8ff" points="304.55,-457.71 313.65,-452.28 303.15,-450.85 304.55,-457.71"/>
</a>
</g>
</g>
<!-- Node8 -->
<g id="Node000008" class="node">
<title>Node8</title>
<g id="a_Node000008"><a xlink:href="classminiply_1_1PLYReader.html#a1762f902e785c821ba0b58de743a5083" target="_top" xlink:title=" ">
<polygon fill="white" stroke="#666666" points="266,-434 156,-434 156,-404 266,-404 266,-434"/>
<text text-anchor="start" x="164" y="-422" font-family="Helvetica,sans-Serif" font-size="10.00">miniply::PLYReader</text>
<text text-anchor="middle" x="211" y="-411" font-family="Helvetica,sans-Serif" font-size="10.00">::find_color</text>
</a>
</g>
</g>
<!-- Node7&#45;&gt;Node8 -->
<g id="edge9_Node000007_Node000008" class="edge">
<title>Node7&#45;&gt;Node8</title>
<g id="a_edge9_Node000007_Node000008"><a xlink:title=" ">
<path fill="none" stroke="#63b8ff" d="M336.43,-351.6C328.37,-356.85 319.81,-362.54 312,-368 295.6,-379.45 293.54,-385.39 276,-395 270.07,-398.25 263.6,-401.24 257.14,-403.93"/>
<polygon fill="#63b8ff" stroke="#63b8ff" points="338.41,-354.49 344.91,-346.13 334.61,-348.61 338.41,-354.49"/>
</a>
</g>
</g>
<!-- Node9 -->
<g id="Node000009" class="node">
<title>Node9</title>
<g id="a_Node000009"><a xlink:href="classminiply_1_1PLYReader.html#a169d064aecfcf42796619e66e4319fc7" target="_top" xlink:title=" ">
<polygon fill="white" stroke="#666666" points="266,-386 156,-386 156,-356 266,-356 266,-386"/>
<text text-anchor="start" x="164" y="-374" font-family="Helvetica,sans-Serif" font-size="10.00">miniply::PLYReader</text>
<text text-anchor="middle" x="211" y="-363" font-family="Helvetica,sans-Serif" font-size="10.00">::find_indices</text>
</a>
</g>
</g>
<!-- Node7&#45;&gt;Node9 -->
<g id="edge10_Node000007_Node000009" class="edge">
<title>Node7&#45;&gt;Node9</title>
<g id="a_edge10_Node000007_Node000009"><a xlink:title=" ">
<path fill="none" stroke="#63b8ff" d="M305.19,-347.26C292.23,-350.56 278.72,-354 266.13,-357.21"/>
<polygon fill="#63b8ff" stroke="#63b8ff" points="306.14,-350.63 314.97,-344.77 304.41,-343.84 306.14,-350.63"/>
</a>
</g>
</g>
<!-- Node10 -->
<g id="Node000010" class="node">
<title>Node10</title>
<g id="a_Node000010"><a xlink:href="classminiply_1_1PLYReader.html#ad9483def5341c12c751c7fbf73c4a115" target="_top" xlink:title=" ">
<polygon fill="white" stroke="#666666" points="266,-338 156,-338 156,-308 266,-308 266,-338"/>
<text text-anchor="start" x="164" y="-326" font-family="Helvetica,sans-Serif" font-size="10.00">miniply::PLYReader</text>
<text text-anchor="middle" x="211" y="-315" font-family="Helvetica,sans-Serif" font-size="10.00">::find_normal</text>
</a>
</g>
</g>
<!-- Node7&#45;&gt;Node10 -->
<g id="edge11_Node000007_Node000010" class="edge">
<title>Node7&#45;&gt;Node10</title>
<g id="a_edge11_Node000007_Node000010"><a xlink:title=" ">
<path fill="none" stroke="#63b8ff" d="M304.81,-327.73C291.97,-327.07 278.59,-326.39 266.13,-325.76"/>
<polygon fill="#63b8ff" stroke="#63b8ff" points="304.8,-331.23 314.97,-328.25 305.16,-324.24 304.8,-331.23"/>
</a>
</g>
</g>
<!-- Node11 -->
<g id="Node000011" class="node">
<title>Node11</title>
<g id="a_Node000011"><a xlink:href="classminiply_1_1PLYReader.html#afa06fc5c6d73ee0e4074b38392c74a62" target="_top" xlink:title=" ">
<polygon fill="white" stroke="#666666" points="266,-290 156,-290 156,-260 266,-260 266,-290"/>
<text text-anchor="start" x="164" y="-278" font-family="Helvetica,sans-Serif" font-size="10.00">miniply::PLYReader</text>
<text text-anchor="middle" x="211" y="-267" font-family="Helvetica,sans-Serif" font-size="10.00">::find_pos</text>
</a>
</g>
</g>
<!-- Node7&#45;&gt;Node11 -->
<g id="edge12_Node000007_Node000011" class="edge">
<title>Node7&#45;&gt;Node11</title>
<g id="a_edge12_Node000007_Node000011"><a xlink:title=" ">
<path fill="none" stroke="#63b8ff" d="M317.43,-312.6C296.93,-305.29 273.65,-296.99 254.19,-290.05"/>
<polygon fill="#63b8ff" stroke="#63b8ff" points="316.33,-315.93 326.93,-315.99 318.68,-309.34 316.33,-315.93"/>
</a>
</g>
</g>
<!-- Node12 -->
<g id="Node000012" class="node">
<title>Node12</title>
<g id="a_Node000012"><a xlink:href="classminiply_1_1PLYReader.html#a3b5ec87cdab33318d088e3eee03332c4" target="_top" xlink:title=" ">
<polygon fill="white" stroke="#666666" points="266,-242 156,-242 156,-212 266,-212 266,-242"/>
<text text-anchor="start" x="164" y="-230" font-family="Helvetica,sans-Serif" font-size="10.00">miniply::PLYReader</text>
<text text-anchor="middle" x="211" y="-219" font-family="Helvetica,sans-Serif" font-size="10.00">::find_texcoord</text>
</a>
</g>
</g>
<!-- Node7&#45;&gt;Node12 -->
<g id="edge13_Node000007_Node000012" class="edge">
<title>Node7&#45;&gt;Node12</title>
<g id="a_edge13_Node000007_Node000012"><a xlink:title=" ">
<path fill="none" stroke="#63b8ff" d="M316.74,-310.63C315.1,-309.48 313.51,-308.27 312,-307 289.35,-287.96 299.02,-269.58 276,-251 271.75,-247.57 266.96,-244.6 261.97,-242.03"/>
<polygon fill="#63b8ff" stroke="#63b8ff" points="315.01,-313.68 325.37,-315.94 318.68,-307.72 315.01,-313.68"/>
</a>
</g>
</g>
<!-- Node14&#45;&gt;Node15 -->
<g id="edge16_Node000014_Node000015" class="edge">
<title>Node14&#45;&gt;Node15</title>
<g id="a_edge16_Node000014_Node000015"><a xlink:title=" ">
<path fill="none" stroke="#63b8ff" d="M304.81,-189.64C291.97,-188.17 278.59,-186.63 266.13,-185.21"/>
<polygon fill="#63b8ff" stroke="#63b8ff" points="304.64,-193.14 314.97,-190.81 305.43,-186.19 304.64,-193.14"/>
</a>
</g>
</g>
<!-- Node14&#45;&gt;Node16 -->
<g id="edge17_Node000014_Node000016" class="edge">
<title>Node14&#45;&gt;Node16</title>
<g id="a_edge17_Node000014_Node000016"><a xlink:title=" ">
<path fill="none" stroke="#63b8ff" d="M327.81,-177.7C311.75,-170.36 293.11,-162.06 276,-155 268.76,-152.01 261,-148.97 253.47,-146.1"/>
<polygon fill="#63b8ff" stroke="#63b8ff" points="326.4,-180.9 336.95,-181.9 329.32,-174.54 326.4,-180.9"/>
</a>
</g>
</g>
<!-- Node16&#45;&gt;Node4 -->
<g id="edge18_Node000016_Node000004" class="edge">
<title>Node16&#45;&gt;Node4</title>
<g id="a_edge18_Node000016_Node000004"><a xlink:title=" ">
<path fill="none" stroke="#63b8ff" d="M148.72,-152.2C147.77,-153.09 146.86,-154.03 146,-155 97.75,-209.32 65.62,-444.39 57.83,-506.76"/>
<polygon fill="#63b8ff" stroke="#63b8ff" points="150.89,-154.94 156.63,-146.04 146.59,-149.42 150.89,-154.94"/>
</a>
</g>
</g>
</g>
</svg>

<g id="navigator" transform="translate(0 0)" fill="#404254">
  <rect fill="#f2f5e9" fill-opacity="0.5" stroke="#606060" stroke-width=".5" x="0" y="0" width="60" height="60"/>
  <use id="zoomplus" xlink:href="#zoomPlus" x="17" y="9" onmousedown="handleZoom(evt,'in')"/>
  <use id="zoomminus" xlink:href="#zoomMin" x="42" y="9" onmousedown="handleZoom(evt,'out')"/>
  <use id="reset" xlink:href="#resetDef" x="30" y="36" onmousedown="handleReset()"/>
   <use id="arrowup" xlink:href="#arrowUp" x="0" y="0" onmousedown="handlePan(0,-1)"/>
  <use id="arrowright" xlink:href="#arrowRight" x="0" y="0" onmousedown="handlePan(1,0)"/>
  <use id="arrowdown" xlink:href="#arrowDown" x="0" y="0" onmousedown="handlePan(0,1)"/>
  <use id="arrowleft" xlink:href="#arrowLeft" x="0" y="0" onmousedown="handlePan(-1,0)"/>
</g>
<svg viewBox="0 0 15 15" width="100%" height="30px" preserveAspectRatio="xMaxYMin meet">
 <g id="arrow_out" transform="scale(0.3 0.3)">
  <a xlink:href="classminiply_1_1PLYReader_a13bf1a5ab6c1547622af0729f707c52d_icgraph_org.svg" target="_base">
   <rect id="button" ry="5" rx="5" y="6" x="6" height="38" width="38"
        fill="#f2f5e9" fill-opacity="0.5" stroke="#606060" stroke-width="1.0"/>
   <path id="arrow"
     d="M 11.500037,31.436501 C 11.940474,20.09759 22.043105,11.32322 32.158766,21.979434 L 37.068811,17.246167 C 37.068811,17.246167 37.088388,32 37.088388,32 L 22.160133,31.978069 C 22.160133,31.978069 26.997745,27.140456 26.997745,27.140456 C 18.528582,18.264221 13.291696,25.230495 11.500037,31.436501 z"
     style="fill:#404040;"/>
  </a>
 </g>
</svg>

<style type='text/css'>
<![CDATA[
[data-mouse-over-selected='false'] { opacity: 0.7; }
[data-mouse-over-selected='true']  { opacity: 1.0; }
]]>
</style>
<script type="application/ecmascript"><![CDATA[
document.addEventListener('DOMContentLoaded', (event) => {
  highlightEdges();
  highlightAdjacentNodes();
});
]]></script>
</svg>
