<?xml version="1.0" encoding="UTF-8" standalone="no"?>
<!DOCTYPE svg PUBLIC "-//W3C//DTD SVG 1.1//EN"
 "http://www.w3.org/Graphics/SVG/1.1/DTD/svg11.dtd">
<!-- Generated by graphviz version 2.43.0 (0)
 -->
<!-- Title: robin_hood::detail::Table::at Pages: 1 -->
<svg width="773pt" height="81pt"
 viewBox="0.00 0.00 773.00 81.00" xmlns="http://www.w3.org/2000/svg" xmlns:xlink="http://www.w3.org/1999/xlink">
<g id="graph0" class="graph" transform="scale(1 1) rotate(0) translate(4 77)">
<title>robin_hood::detail::Table::at</title>
<!-- Node1 -->
<g id="Node000001" class="node">
<title>Node1</title>
<g id="a_Node000001"><a xlink:title=" ">
<polygon fill="#999999" stroke="#666666" points="765,-51 661,-51 661,-21 765,-21 765,-51"/>
<text text-anchor="start" x="669" y="-39" font-family="Helvetica,sans-Serif" font-size="10.00">robin_hood::detail</text>
<text text-anchor="middle" x="713" y="-28" font-family="Helvetica,sans-Serif" font-size="10.00">::Table::at</text>
</a>
</g>
</g>
<!-- Node2 -->
<g id="Node000002" class="node">
<title>Node2</title>
<g id="a_Node000002"><a xlink:href="classPPISegmenter.html#a581dc0d578e49609015b82b1f9c46f8a" target="_top" xlink:title=" ">
<polygon fill="white" stroke="#666666" points="625,-67.5 438,-67.5 438,-48.5 625,-48.5 625,-67.5"/>
<text text-anchor="middle" x="531.5" y="-55.5" font-family="Helvetica,sans-Serif" font-size="10.00">PPISegmenter::refineSegmentation</text>
</a>
</g>
</g>
<!-- Node1&#45;&gt;Node2 -->
<g id="edge1_Node000001_Node000002" class="edge">
<title>Node1&#45;&gt;Node2</title>
<g id="a_edge1_Node000001_Node000002"><a xlink:title=" ">
<path fill="none" stroke="#63b8ff" d="M650.36,-43.55C637.38,-45.15 623.53,-46.84 610.05,-48.5"/>
<polygon fill="#63b8ff" stroke="#63b8ff" points="651.06,-46.99 660.56,-42.3 650.21,-40.05 651.06,-46.99"/>
</a>
</g>
</g>
<!-- Node6 -->
<g id="Node000006" class="node">
<title>Node6</title>
<g id="a_Node000006"><a xlink:href="classPPISegmenter__NewRS.html#a96d1c098a345cc689616904ac391884c" target="_top" xlink:title=" ">
<polygon fill="white" stroke="#666666" points="610.5,-30 452.5,-30 452.5,0 610.5,0 610.5,-30"/>
<text text-anchor="start" x="460.5" y="-18" font-family="Helvetica,sans-Serif" font-size="10.00">PPISegmenter_NewRS</text>
<text text-anchor="middle" x="531.5" y="-7" font-family="Helvetica,sans-Serif" font-size="10.00">::refineSegmentation_NewRS</text>
</a>
</g>
</g>
<!-- Node1&#45;&gt;Node6 -->
<g id="edge5_Node000001_Node000006" class="edge">
<title>Node1&#45;&gt;Node6</title>
<g id="a_edge5_Node000001_Node000006"><a xlink:title=" ">
<path fill="none" stroke="#63b8ff" d="M650.5,-28.81C637.7,-27.31 624.04,-25.71 610.72,-24.15"/>
<polygon fill="#63b8ff" stroke="#63b8ff" points="650.22,-32.3 660.56,-29.98 651.04,-25.34 650.22,-32.3"/>
</a>
</g>
</g>
<!-- Node3 -->
<g id="Node000003" class="node">
<title>Node3</title>
<g id="a_Node000003"><a xlink:href="classPatchGeneration.html#a0f5554a29116f3ceeba740292bffa5d7" target="_top" xlink:title=" ">
<polygon fill="white" stroke="#666666" points="402,-73 256,-73 256,-43 402,-43 402,-73"/>
<text text-anchor="start" x="264" y="-61" font-family="Helvetica,sans-Serif" font-size="10.00">PatchGeneration::generate</text>
<text text-anchor="middle" x="329" y="-50" font-family="Helvetica,sans-Serif" font-size="10.00">FramePatches</text>
</a>
</g>
</g>
<!-- Node2&#45;&gt;Node3 -->
<g id="edge2_Node000002_Node000003" class="edge">
<title>Node2&#45;&gt;Node3</title>
<g id="a_edge2_Node000002_Node000003"><a xlink:title=" ">
<path fill="none" stroke="#63b8ff" d="M427.73,-58C419.08,-58 410.46,-58 402.12,-58"/>
<polygon fill="#63b8ff" stroke="#63b8ff" points="427.88,-61.5 437.88,-58 427.88,-54.5 427.88,-61.5"/>
</a>
</g>
</g>
<!-- Node4 -->
<g id="Node000004" class="node">
<title>Node4</title>
<g id="a_Node000004"><a xlink:href="namespaceuvgvpcc__enc_1_1API.html#ac96f1663ec59a1bbc04778ae958780fa" target="_top" xlink:title="Entry point of the uvgVPCCenc library. Take as input a frame. Create all the jobs for processing this...">
<polygon fill="white" stroke="#666666" points="220,-73 77,-73 77,-43 220,-43 220,-73"/>
<text text-anchor="start" x="85" y="-61" font-family="Helvetica,sans-Serif" font-size="10.00">uvgvpcc_enc::API::encode</text>
<text text-anchor="middle" x="148.5" y="-50" font-family="Helvetica,sans-Serif" font-size="10.00">Frame</text>
</a>
</g>
</g>
<!-- Node3&#45;&gt;Node4 -->
<g id="edge3_Node000003_Node000004" class="edge">
<title>Node3&#45;&gt;Node4</title>
<g id="a_edge3_Node000003_Node000004"><a xlink:title=" ">
<path fill="none" stroke="#63b8ff" d="M245.87,-58C237.27,-58 228.58,-58 220.12,-58"/>
<polygon fill="#63b8ff" stroke="#63b8ff" points="245.91,-61.5 255.91,-58 245.91,-54.5 245.91,-61.5"/>
</a>
</g>
</g>
<!-- Node5 -->
<g id="Node000005" class="node">
<title>Node5</title>
<g id="a_Node000005"><a xlink:href="uvgVPCCencAppExample_8cpp.html#aee608aedd5b0b58f2966c2ff15101925" target="_top" xlink:title="This example application offers a simple approach to working with the uvgVPCCenc library and highligh...">
<polygon fill="white" stroke="#666666" points="41,-67.5 0,-67.5 0,-48.5 41,-48.5 41,-67.5"/>
<text text-anchor="middle" x="20.5" y="-55.5" font-family="Helvetica,sans-Serif" font-size="10.00">main</text>
</a>
</g>
</g>
<!-- Node4&#45;&gt;Node5 -->
<g id="edge4_Node000004_Node000005" class="edge">
<title>Node4&#45;&gt;Node5</title>
<g id="a_edge4_Node000004_Node000005"><a xlink:title=" ">
<path fill="none" stroke="#63b8ff" d="M66.74,-58C57.29,-58 48.42,-58 41.08,-58"/>
<polygon fill="#63b8ff" stroke="#63b8ff" points="66.77,-61.5 76.77,-58 66.77,-54.5 66.77,-61.5"/>
</a>
</g>
</g>
</g>
</svg>
