<?xml version="1.0" encoding="UTF-8" standalone="no"?>
<!DOCTYPE svg PUBLIC "-//W3C//DTD SVG 1.1//EN"
 "http://www.w3.org/Graphics/SVG/1.1/DTD/svg11.dtd">
<!-- Generated by graphviz version 2.43.0 (0)
 -->
<!-- Title: src/libuvgvpccenc/utils/commonMemory.hpp Pages: 1 -->
<svg width="1754pt" height="269pt"
 viewBox="0.00 0.00 1753.62 269.00" xmlns="http://www.w3.org/2000/svg" xmlns:xlink="http://www.w3.org/1999/xlink">
<g id="graph0" class="graph" transform="scale(1 1) rotate(0) translate(4 265)">
<title>src/libuvgvpccenc/utils/commonMemory.hpp</title>
<!-- Node1 -->
<g id="Node000001" class="node">
<title>Node1</title>
<g id="a_Node000001"><a xlink:title=" ">
<polygon fill="#999999" stroke="#666666" points="1070.5,-261 942.5,-261 942.5,-231 1070.5,-231 1070.5,-261"/>
<text text-anchor="start" x="950.5" y="-249" font-family="Helvetica,sans-Serif" font-size="10.00">src/libuvgvpccenc/utils</text>
<text text-anchor="middle" x="1006.5" y="-238" font-family="Helvetica,sans-Serif" font-size="10.00">/commonMemory.hpp</text>
</a>
</g>
</g>
<!-- Node2 -->
<g id="Node000002" class="node">
<title>Node2</title>
<g id="a_Node000002"><a xlink:title=" ">
<polygon fill="#e0e0e0" stroke="#999999" points="740.5,-129 688.5,-129 688.5,-110 740.5,-110 740.5,-129"/>
<text text-anchor="middle" x="714.5" y="-117" font-family="Helvetica,sans-Serif" font-size="10.00">cassert</text>
</a>
</g>
</g>
<!-- Node1&#45;&gt;Node2 -->
<g id="edge1_Node000001_Node000002" class="edge">
<title>Node1&#45;&gt;Node2</title>
<g id="a_edge1_Node000001_Node000002"><a xlink:title=" ">
<path fill="none" stroke="#63b8ff" d="M973.57,-230.96C916.28,-206.53 799.15,-156.59 744.2,-133.16"/>
<polygon fill="#63b8ff" stroke="#63b8ff" points="745.26,-129.81 734.69,-129.11 742.52,-136.25 745.26,-129.81"/>
</a>
</g>
</g>
<!-- Node3 -->
<g id="Node000003" class="node">
<title>Node3</title>
<g id="a_Node000003"><a xlink:href="robin__hood_8h.html" target="_top" xlink:title=" ">
<polygon fill="white" stroke="#666666" points="451,-195 344,-195 344,-165 451,-165 451,-195"/>
<text text-anchor="start" x="352" y="-183" font-family="Helvetica,sans-Serif" font-size="10.00">../patchGeneration</text>
<text text-anchor="middle" x="397.5" y="-172" font-family="Helvetica,sans-Serif" font-size="10.00">/robin_hood.h</text>
</a>
</g>
</g>
<!-- Node1&#45;&gt;Node3 -->
<g id="edge2_Node000001_Node000003" class="edge">
<title>Node1&#45;&gt;Node3</title>
<g id="a_edge2_Node000001_Node000003"><a xlink:title=" ">
<path fill="none" stroke="#63b8ff" d="M942.48,-238.27C825.53,-225.98 578.66,-200.04 461.63,-187.74"/>
<polygon fill="#63b8ff" stroke="#63b8ff" points="461.71,-184.23 451.4,-186.66 460.98,-191.19 461.71,-184.23"/>
</a>
</g>
</g>
<!-- Node14 -->
<g id="Node000014" class="node">
<title>Node14</title>
<g id="a_Node000014"><a xlink:href="uvgvpcc_8hpp.html" target="_top" xlink:title=" ">
<polygon fill="white" stroke="#666666" points="1165.5,-189.5 1043.5,-189.5 1043.5,-170.5 1165.5,-170.5 1165.5,-189.5"/>
<text text-anchor="middle" x="1104.5" y="-177.5" font-family="Helvetica,sans-Serif" font-size="10.00">uvgvpcc/uvgvpcc.hpp</text>
</a>
</g>
</g>
<!-- Node1&#45;&gt;Node14 -->
<g id="edge13_Node000001_Node000014" class="edge">
<title>Node1&#45;&gt;Node14</title>
<g id="a_edge13_Node000001_Node000014"><a xlink:title=" ">
<path fill="none" stroke="#63b8ff" d="M1028.25,-230.8C1044.37,-220.27 1066.26,-205.97 1082.45,-195.4"/>
<polygon fill="#63b8ff" stroke="#63b8ff" points="1084.78,-198.06 1091.24,-189.66 1080.96,-192.2 1084.78,-198.06"/>
</a>
</g>
</g>
<!-- Node31 -->
<g id="Node000031" class="node">
<title>Node31</title>
<g id="a_Node000031"><a xlink:href="constants_8hpp.html" target="_top" xlink:title=" ">
<polygon fill="white" stroke="#666666" points="1640,-189.5 1555,-189.5 1555,-170.5 1640,-170.5 1640,-189.5"/>
<text text-anchor="middle" x="1597.5" y="-177.5" font-family="Helvetica,sans-Serif" font-size="10.00">constants.hpp</text>
</a>
</g>
</g>
<!-- Node1&#45;&gt;Node31 -->
<g id="edge41_Node000001_Node000031" class="edge">
<title>Node1&#45;&gt;Node31</title>
<g id="a_edge41_Node000001_Node000031"><a xlink:title=" ">
<path fill="none" stroke="#63b8ff" d="M1070.59,-238.06C1188.12,-225.33 1436.02,-198.49 1544.63,-186.73"/>
<polygon fill="#63b8ff" stroke="#63b8ff" points="1545.13,-190.19 1554.7,-185.64 1544.38,-183.23 1545.13,-190.19"/>
</a>
</g>
</g>
<!-- Node4 -->
<g id="Node000004" class="node">
<title>Node4</title>
<g id="a_Node000004"><a xlink:title=" ">
<polygon fill="#e0e0e0" stroke="#999999" points="127.5,-129 63.5,-129 63.5,-110 127.5,-110 127.5,-129"/>
<text text-anchor="middle" x="95.5" y="-117" font-family="Helvetica,sans-Serif" font-size="10.00">algorithm</text>
</a>
</g>
</g>
<!-- Node3&#45;&gt;Node4 -->
<g id="edge3_Node000003_Node000004" class="edge">
<title>Node3&#45;&gt;Node4</title>
<g id="a_edge3_Node000003_Node000004"><a xlink:title=" ">
<path fill="none" stroke="#63b8ff" d="M343.97,-168.99C293.34,-159.47 214.97,-144.58 137.63,-129.2"/>
<polygon fill="#63b8ff" stroke="#63b8ff" points="138.21,-125.75 127.72,-127.23 136.84,-132.61 138.21,-125.75"/>
</a>
</g>
</g>
<!-- Node5 -->
<g id="Node000005" class="node">
<title>Node5</title>
<g id="a_Node000005"><a xlink:title=" ">
<polygon fill="#e0e0e0" stroke="#999999" points="195,-129 146,-129 146,-110 195,-110 195,-129"/>
<text text-anchor="middle" x="170.5" y="-117" font-family="Helvetica,sans-Serif" font-size="10.00">cstdlib</text>
</a>
</g>
</g>
<!-- Node3&#45;&gt;Node5 -->
<g id="edge4_Node000003_Node000005" class="edge">
<title>Node3&#45;&gt;Node5</title>
<g id="a_edge4_Node000003_Node000005"><a xlink:title=" ">
<path fill="none" stroke="#63b8ff" d="M343.99,-165.21C300.98,-154.13 241.84,-138.88 204.91,-129.37"/>
<polygon fill="#63b8ff" stroke="#63b8ff" points="205.67,-125.95 195.11,-126.84 203.92,-132.73 205.67,-125.95"/>
</a>
</g>
</g>
<!-- Node6 -->
<g id="Node000006" class="node">
<title>Node6</title>
<g id="a_Node000006"><a xlink:title=" ">
<polygon fill="#e0e0e0" stroke="#999999" points="263.5,-129 213.5,-129 213.5,-110 263.5,-110 263.5,-129"/>
<text text-anchor="middle" x="238.5" y="-117" font-family="Helvetica,sans-Serif" font-size="10.00">cstring</text>
</a>
</g>
</g>
<!-- Node3&#45;&gt;Node6 -->
<g id="edge5_Node000003_Node000006" class="edge">
<title>Node3&#45;&gt;Node6</title>
<g id="a_edge5_Node000003_Node000006"><a xlink:title=" ">
<path fill="none" stroke="#63b8ff" d="M359.42,-164.99C332.65,-155.14 297.2,-142.1 271.61,-132.68"/>
<polygon fill="#63b8ff" stroke="#63b8ff" points="272.57,-129.31 261.98,-129.14 270.16,-135.88 272.57,-129.31"/>
</a>
</g>
</g>
<!-- Node7 -->
<g id="Node000007" class="node">
<title>Node7</title>
<g id="a_Node000007"><a xlink:title=" ">
<polygon fill="#e0e0e0" stroke="#999999" points="347,-129 282,-129 282,-110 347,-110 347,-129"/>
<text text-anchor="middle" x="314.5" y="-117" font-family="Helvetica,sans-Serif" font-size="10.00">functional</text>
</a>
</g>
</g>
<!-- Node3&#45;&gt;Node7 -->
<g id="edge6_Node000003_Node000007" class="edge">
<title>Node3&#45;&gt;Node7</title>
<g id="a_edge6_Node000003_Node000007"><a xlink:title=" ">
<path fill="none" stroke="#63b8ff" d="M377.41,-164.84C364.62,-155.83 348.1,-144.18 335.2,-135.09"/>
<polygon fill="#63b8ff" stroke="#63b8ff" points="337.13,-132.17 326.94,-129.27 333.09,-137.89 337.13,-132.17"/>
</a>
</g>
</g>
<!-- Node8 -->
<g id="Node000008" class="node">
<title>Node8</title>
<g id="a_Node000008"><a xlink:title=" ">
<polygon fill="#e0e0e0" stroke="#999999" points="1343.5,-74 1299.5,-74 1299.5,-55 1343.5,-55 1343.5,-74"/>
<text text-anchor="middle" x="1321.5" y="-62" font-family="Helvetica,sans-Serif" font-size="10.00">limits</text>
</a>
</g>
</g>
<!-- Node3&#45;&gt;Node8 -->
<g id="edge7_Node000003_Node000008" class="edge">
<title>Node3&#45;&gt;Node8</title>
<g id="a_edge7_Node000003_Node000008"><a xlink:title=" ">
<path fill="none" stroke="#63b8ff" d="M451.27,-165.29C484.38,-156.27 527.43,-143.47 564.5,-129 582.46,-121.99 584.86,-114.91 603.5,-110 735.68,-75.17 1166.76,-67.37 1288.95,-65.84"/>
<polygon fill="#63b8ff" stroke="#63b8ff" points="1289.19,-69.34 1299.15,-65.72 1289.11,-62.34 1289.19,-69.34"/>
</a>
</g>
</g>
<!-- Node9 -->
<g id="Node000009" class="node">
<title>Node9</title>
<g id="a_Node000009"><a xlink:title=" ">
<polygon fill="#e0e0e0" stroke="#999999" points="670.5,-129 612.5,-129 612.5,-110 670.5,-110 670.5,-129"/>
<text text-anchor="middle" x="641.5" y="-117" font-family="Helvetica,sans-Serif" font-size="10.00">memory</text>
</a>
</g>
</g>
<!-- Node3&#45;&gt;Node9 -->
<g id="edge8_Node000003_Node000009" class="edge">
<title>Node3&#45;&gt;Node9</title>
<g id="a_edge8_Node000003_Node000009"><a xlink:title=" ">
<path fill="none" stroke="#63b8ff" d="M451.05,-166.16C496.83,-155.19 561.62,-139.65 602.59,-129.83"/>
<polygon fill="#63b8ff" stroke="#63b8ff" points="603.56,-133.19 612.47,-127.46 601.93,-126.39 603.56,-133.19"/>
</a>
</g>
</g>
<!-- Node10 -->
<g id="Node000010" class="node">
<title>Node10</title>
<g id="a_Node000010"><a xlink:title=" ">
<polygon fill="#e0e0e0" stroke="#999999" points="430,-129 365,-129 365,-110 430,-110 430,-129"/>
<text text-anchor="middle" x="397.5" y="-117" font-family="Helvetica,sans-Serif" font-size="10.00">stdexcept</text>
</a>
</g>
</g>
<!-- Node3&#45;&gt;Node10 -->
<g id="edge9_Node000003_Node000010" class="edge">
<title>Node3&#45;&gt;Node10</title>
<g id="a_edge9_Node000003_Node000010"><a xlink:title=" ">
<path fill="none" stroke="#63b8ff" d="M397.5,-164.84C397.5,-157.21 397.5,-147.7 397.5,-139.45"/>
<polygon fill="#63b8ff" stroke="#63b8ff" points="401,-139.27 397.5,-129.27 394,-139.27 401,-139.27"/>
</a>
</g>
</g>
<!-- Node11 -->
<g id="Node000011" class="node">
<title>Node11</title>
<g id="a_Node000011"><a xlink:title=" ">
<polygon fill="#e0e0e0" stroke="#999999" points="790.5,-19 746.5,-19 746.5,0 790.5,0 790.5,-19"/>
<text text-anchor="middle" x="768.5" y="-7" font-family="Helvetica,sans-Serif" font-size="10.00">string</text>
</a>
</g>
</g>
<!-- Node3&#45;&gt;Node11 -->
<g id="edge10_Node000003_Node000011" class="edge">
<title>Node3&#45;&gt;Node11</title>
<g id="a_edge10_Node000003_Node000011"><a xlink:title=" ">
<path fill="none" stroke="#63b8ff" d="M410.69,-164.75C425.6,-149.37 451.25,-125.05 477.5,-110 564.75,-59.98 681.15,-29.7 736.56,-17.19"/>
<polygon fill="#63b8ff" stroke="#63b8ff" points="737.49,-20.57 746.49,-14.99 735.97,-13.74 737.49,-20.57"/>
</a>
</g>
</g>
<!-- Node12 -->
<g id="Node000012" class="node">
<title>Node12</title>
<g id="a_Node000012"><a xlink:title=" ">
<polygon fill="#e0e0e0" stroke="#999999" points="556,-129 487,-129 487,-110 556,-110 556,-129"/>
<text text-anchor="middle" x="521.5" y="-117" font-family="Helvetica,sans-Serif" font-size="10.00">type_traits</text>
</a>
</g>
</g>
<!-- Node3&#45;&gt;Node12 -->
<g id="edge11_Node000003_Node000012" class="edge">
<title>Node3&#45;&gt;Node12</title>
<g id="a_edge11_Node000003_Node000012"><a xlink:title=" ">
<path fill="none" stroke="#63b8ff" d="M427.2,-164.99C447.52,-155.4 474.26,-142.79 494.08,-133.44"/>
<polygon fill="#63b8ff" stroke="#63b8ff" points="495.64,-136.57 503.19,-129.14 492.65,-130.24 495.64,-136.57"/>
</a>
</g>
</g>
<!-- Node13 -->
<g id="Node000013" class="node">
<title>Node13</title>
<g id="a_Node000013"><a xlink:title=" ">
<polygon fill="#e0e0e0" stroke="#999999" points="45,-129 0,-129 0,-110 45,-110 45,-129"/>
<text text-anchor="middle" x="22.5" y="-117" font-family="Helvetica,sans-Serif" font-size="10.00">utility</text>
</a>
</g>
</g>
<!-- Node3&#45;&gt;Node13 -->
<g id="edge12_Node000003_Node000013" class="edge">
<title>Node3&#45;&gt;Node13</title>
<g id="a_edge12_Node000003_Node000013"><a xlink:title=" ">
<path fill="none" stroke="#63b8ff" d="M343.99,-173.13C278.28,-165.49 163.27,-150.74 55.24,-128.92"/>
<polygon fill="#63b8ff" stroke="#63b8ff" points="55.65,-125.43 45.15,-126.86 54.25,-132.29 55.65,-125.43"/>
</a>
</g>
</g>
<!-- Node14&#45;&gt;Node2 -->
<g id="edge15_Node000014_Node000002" class="edge">
<title>Node14&#45;&gt;Node2</title>
<g id="a_edge15_Node000014_Node000002"><a xlink:title=" ">
<path fill="none" stroke="#63b8ff" d="M1043.29,-171.53C973.27,-162.68 855.28,-146.89 754.5,-129 753.24,-128.78 751.96,-128.54 750.67,-128.3"/>
<polygon fill="#63b8ff" stroke="#63b8ff" points="751.19,-124.84 740.7,-126.33 749.83,-131.7 751.19,-124.84"/>
</a>
</g>
</g>
<!-- Node14&#45;&gt;Node9 -->
<g id="edge19_Node000014_Node000009" class="edge">
<title>Node14&#45;&gt;Node9</title>
<g id="a_edge19_Node000014_Node000009"><a xlink:title=" ">
<path fill="none" stroke="#63b8ff" d="M1043.34,-173.8C962.53,-166.48 815.61,-151.66 680.98,-129.1"/>
<polygon fill="#63b8ff" stroke="#63b8ff" points="681.34,-125.61 670.9,-127.39 680.17,-132.51 681.34,-125.61"/>
</a>
</g>
</g>
<!-- Node14&#45;&gt;Node11 -->
<g id="edge23_Node000014_Node000011" class="edge">
<title>Node14&#45;&gt;Node11</title>
<g id="a_edge23_Node000014_Node000011"><a xlink:title=" ">
<path fill="none" stroke="#63b8ff" d="M1043.2,-175.69C967.87,-170.43 845.81,-157.66 811.5,-129 781.5,-103.95 772.43,-56.19 769.69,-29.59"/>
<polygon fill="#63b8ff" stroke="#63b8ff" points="773.15,-28.99 768.84,-19.31 766.18,-29.57 773.15,-28.99"/>
</a>
</g>
</g>
<!-- Node15 -->
<g id="Node000015" class="node">
<title>Node15</title>
<g id="a_Node000015"><a xlink:title=" ">
<polygon fill="#e0e0e0" stroke="#999999" points="1587.5,-74 1545.5,-74 1545.5,-55 1587.5,-55 1587.5,-74"/>
<text text-anchor="middle" x="1566.5" y="-62" font-family="Helvetica,sans-Serif" font-size="10.00">array</text>
</a>
</g>
</g>
<!-- Node14&#45;&gt;Node15 -->
<g id="edge14_Node000014_Node000015" class="edge">
<title>Node14&#45;&gt;Node15</title>
<g id="a_edge14_Node000014_Node000015"><a xlink:title=" ">
<path fill="none" stroke="#63b8ff" d="M1165.82,-176.57C1284.07,-171.28 1534.44,-156.89 1561.5,-129 1572.68,-117.48 1572.79,-98.6 1570.78,-84.42"/>
<polygon fill="#63b8ff" stroke="#63b8ff" points="1574.17,-83.47 1568.9,-74.28 1567.29,-84.75 1574.17,-83.47"/>
</a>
</g>
</g>
<!-- Node16 -->
<g id="Node000016" class="node">
<title>Node16</title>
<g id="a_Node000016"><a xlink:title=" ">
<polygon fill="#e0e0e0" stroke="#999999" points="1659,-74 1606,-74 1606,-55 1659,-55 1659,-74"/>
<text text-anchor="middle" x="1632.5" y="-62" font-family="Helvetica,sans-Serif" font-size="10.00">cstddef</text>
</a>
</g>
</g>
<!-- Node14&#45;&gt;Node16 -->
<g id="edge16_Node000014_Node000016" class="edge">
<title>Node14&#45;&gt;Node16</title>
<g id="a_edge16_Node000014_Node000016"><a xlink:title=" ">
<path fill="none" stroke="#63b8ff" d="M1165.55,-178.21C1277.2,-175.86 1509.27,-166.47 1579.5,-129 1598.83,-118.69 1613.95,-98.11 1623,-83.17"/>
<polygon fill="#63b8ff" stroke="#63b8ff" points="1626.13,-84.74 1628.06,-74.33 1620.06,-81.27 1626.13,-84.74"/>
</a>
</g>
</g>
<!-- Node17 -->
<g id="Node000017" class="node">
<title>Node17</title>
<g id="a_Node000017"><a xlink:title=" ">
<polygon fill="#e0e0e0" stroke="#999999" points="1727.5,-74 1677.5,-74 1677.5,-55 1727.5,-55 1727.5,-74"/>
<text text-anchor="middle" x="1702.5" y="-62" font-family="Helvetica,sans-Serif" font-size="10.00">cstdint</text>
</a>
</g>
</g>
<!-- Node14&#45;&gt;Node17 -->
<g id="edge17_Node000014_Node000017" class="edge">
<title>Node14&#45;&gt;Node17</title>
<g id="a_edge17_Node000014_Node000017"><a xlink:title=" ">
<path fill="none" stroke="#63b8ff" d="M1165.56,-176.49C1280.58,-171.17 1524.96,-156.9 1604.5,-129 1635.38,-118.17 1666.29,-95.75 1684.9,-80.66"/>
<polygon fill="#63b8ff" stroke="#63b8ff" points="1687.32,-83.2 1692.78,-74.12 1682.85,-77.82 1687.32,-83.2"/>
</a>
</g>
</g>
<!-- Node18 -->
<g id="Node000018" class="node">
<title>Node18</title>
<g id="a_Node000018"><a xlink:title=" ">
<polygon fill="#e0e0e0" stroke="#999999" points="1098.5,-19 1038.5,-19 1038.5,0 1098.5,0 1098.5,-19"/>
<text text-anchor="middle" x="1068.5" y="-7" font-family="Helvetica,sans-Serif" font-size="10.00">iostream</text>
</a>
</g>
</g>
<!-- Node14&#45;&gt;Node18 -->
<g id="edge18_Node000014_Node000018" class="edge">
<title>Node14&#45;&gt;Node18</title>
<g id="a_edge18_Node000014_Node000018"><a xlink:title=" ">
<path fill="none" stroke="#63b8ff" d="M1043.41,-176.85C970.09,-172.84 853.59,-161.4 826.5,-129 766.93,-57.76 945.26,-25.75 1028.36,-14.97"/>
<polygon fill="#63b8ff" stroke="#63b8ff" points="1028.98,-18.42 1038.47,-13.7 1028.11,-11.47 1028.98,-18.42"/>
</a>
</g>
</g>
<!-- Node19 -->
<g id="Node000019" class="node">
<title>Node19</title>
<g id="a_Node000019"><a xlink:title=" ">
<polygon fill="#e0e0e0" stroke="#999999" points="1267,-129 1220,-129 1220,-110 1267,-110 1267,-129"/>
<text text-anchor="middle" x="1243.5" y="-117" font-family="Helvetica,sans-Serif" font-size="10.00">queue</text>
</a>
</g>
</g>
<!-- Node14&#45;&gt;Node19 -->
<g id="edge20_Node000014_Node000019" class="edge">
<title>Node14&#45;&gt;Node19</title>
<g id="a_edge20_Node000014_Node000019"><a xlink:title=" ">
<path fill="none" stroke="#63b8ff" d="M1124.71,-170.49C1148.18,-160.62 1187.11,-144.23 1213.96,-132.93"/>
<polygon fill="#63b8ff" stroke="#63b8ff" points="1215.4,-136.12 1223.26,-129.02 1212.69,-129.67 1215.4,-136.12"/>
</a>
</g>
</g>
<!-- Node20 -->
<g id="Node000020" class="node">
<title>Node20</title>
<g id="a_Node000020"><a xlink:title=" ">
<polygon fill="#e0e0e0" stroke="#999999" points="1356,-129 1285,-129 1285,-110 1356,-110 1356,-129"/>
<text text-anchor="middle" x="1320.5" y="-117" font-family="Helvetica,sans-Serif" font-size="10.00">semaphore</text>
</a>
</g>
</g>
<!-- Node14&#45;&gt;Node20 -->
<g id="edge21_Node000014_Node000020" class="edge">
<title>Node14&#45;&gt;Node20</title>
<g id="a_edge21_Node000014_Node000020"><a xlink:title=" ">
<path fill="none" stroke="#63b8ff" d="M1135.91,-170.49C1173.74,-160.25 1237.41,-143 1279.19,-131.69"/>
<polygon fill="#63b8ff" stroke="#63b8ff" points="1280.32,-135.01 1289.05,-129.02 1278.49,-128.25 1280.32,-135.01"/>
</a>
</g>
</g>
<!-- Node21 -->
<g id="Node000021" class="node">
<title>Node21</title>
<g id="a_Node000021"><a xlink:title=" ">
<polygon fill="#e0e0e0" stroke="#999999" points="1417.5,-74 1361.5,-74 1361.5,-55 1417.5,-55 1417.5,-74"/>
<text text-anchor="middle" x="1389.5" y="-62" font-family="Helvetica,sans-Serif" font-size="10.00">sstream</text>
</a>
</g>
</g>
<!-- Node14&#45;&gt;Node21 -->
<g id="edge22_Node000014_Node000021" class="edge">
<title>Node14&#45;&gt;Node21</title>
<g id="a_edge22_Node000014_Node000021"><a xlink:title=" ">
<path fill="none" stroke="#63b8ff" d="M1115.07,-170.48C1133.54,-155.99 1173.37,-126.52 1211.5,-110 1224.33,-104.44 1303.23,-85.59 1351.58,-74.28"/>
<polygon fill="#63b8ff" stroke="#63b8ff" points="1352.46,-77.67 1361.4,-71.99 1350.87,-70.85 1352.46,-77.67"/>
</a>
</g>
</g>
<!-- Node22 -->
<g id="Node000022" class="node">
<title>Node22</title>
<g id="a_Node000022"><a xlink:title=" ">
<polygon fill="#e0e0e0" stroke="#999999" points="882,-129 835,-129 835,-110 882,-110 882,-129"/>
<text text-anchor="middle" x="858.5" y="-117" font-family="Helvetica,sans-Serif" font-size="10.00">vector</text>
</a>
</g>
</g>
<!-- Node14&#45;&gt;Node22 -->
<g id="edge24_Node000014_Node000022" class="edge">
<title>Node14&#45;&gt;Node22</title>
<g id="a_edge24_Node000014_Node000022"><a xlink:title=" ">
<path fill="none" stroke="#63b8ff" d="M1067.12,-170.48C1026.54,-161.18 959.56,-145.66 892.21,-129.13"/>
<polygon fill="#63b8ff" stroke="#63b8ff" points="892.82,-125.68 882.28,-126.69 891.15,-132.48 892.82,-125.68"/>
</a>
</g>
</g>
<!-- Node23 -->
<g id="Node000023" class="node">
<title>Node23</title>
<g id="a_Node000023"><a xlink:title=" ">
<polygon fill="#e0e0e0" stroke="#999999" points="1027,-129 900,-129 900,-110 1027,-110 1027,-129"/>
<text text-anchor="middle" x="963.5" y="-117" font-family="Helvetica,sans-Serif" font-size="10.00">../utils/parameters.hpp</text>
</a>
</g>
</g>
<!-- Node14&#45;&gt;Node23 -->
<g id="edge25_Node000014_Node000023" class="edge">
<title>Node14&#45;&gt;Node23</title>
<g id="a_edge25_Node000014_Node000023"><a xlink:title=" ">
<path fill="none" stroke="#63b8ff" d="M1084,-170.49C1060.19,-160.62 1020.71,-144.23 993.46,-132.93"/>
<polygon fill="#63b8ff" stroke="#63b8ff" points="994.61,-129.62 984.03,-129.02 991.92,-136.08 994.61,-129.62"/>
</a>
</g>
</g>
<!-- Node24 -->
<g id="Node000024" class="node">
<title>Node24</title>
<g id="a_Node000024"><a xlink:title=" ">
<polygon fill="#e0e0e0" stroke="#999999" points="1163.5,-129 1045.5,-129 1045.5,-110 1163.5,-110 1163.5,-129"/>
<text text-anchor="middle" x="1104.5" y="-117" font-family="Helvetica,sans-Serif" font-size="10.00">../utils/constants.hpp</text>
</a>
</g>
</g>
<!-- Node14&#45;&gt;Node24 -->
<g id="edge26_Node000014_Node000024" class="edge">
<title>Node14&#45;&gt;Node24</title>
<g id="a_edge26_Node000014_Node000024"><a xlink:title=" ">
<path fill="none" stroke="#63b8ff" d="M1104.5,-170.37C1104.5,-162.25 1104.5,-149.81 1104.5,-139.39"/>
<polygon fill="#63b8ff" stroke="#63b8ff" points="1108,-139.17 1104.5,-129.17 1101,-139.17 1108,-139.17"/>
</a>
</g>
</g>
<!-- Node25 -->
<g id="Node000025" class="node">
<title>Node25</title>
<g id="a_Node000025"><a xlink:href="utils_8hpp.html" target="_top" xlink:title=" ">
<polygon fill="white" stroke="#666666" points="1552,-129 1451,-129 1451,-110 1552,-110 1552,-129"/>
<text text-anchor="middle" x="1501.5" y="-117" font-family="Helvetica,sans-Serif" font-size="10.00">uvgutils/utils.hpp</text>
</a>
</g>
</g>
<!-- Node14&#45;&gt;Node25 -->
<g id="edge27_Node000014_Node000025" class="edge">
<title>Node14&#45;&gt;Node25</title>
<g id="a_edge27_Node000014_Node000025"><a xlink:title=" ">
<path fill="none" stroke="#63b8ff" d="M1162.23,-170.49C1236.48,-159.55 1364.87,-140.63 1440.61,-129.47"/>
<polygon fill="#63b8ff" stroke="#63b8ff" points="1441.56,-132.87 1450.94,-127.95 1440.54,-125.95 1441.56,-132.87"/>
</a>
</g>
</g>
<!-- Node25&#45;&gt;Node8 -->
<g id="edge32_Node000025_Node000008" class="edge">
<title>Node25&#45;&gt;Node8</title>
<g id="a_edge32_Node000025_Node000008"><a xlink:title=" ">
<path fill="none" stroke="#63b8ff" d="M1472.58,-109.98C1439.98,-100.39 1387.13,-84.82 1353.36,-74.88"/>
<polygon fill="#63b8ff" stroke="#63b8ff" points="1354.12,-71.46 1343.54,-71.99 1352.14,-78.17 1354.12,-71.46"/>
</a>
</g>
</g>
<!-- Node25&#45;&gt;Node15 -->
<g id="edge28_Node000025_Node000015" class="edge">
<title>Node25&#45;&gt;Node15</title>
<g id="a_edge28_Node000025_Node000015"><a xlink:title=" ">
<path fill="none" stroke="#63b8ff" d="M1511.94,-109.98C1521.65,-102.07 1536.32,-90.11 1548,-80.58"/>
<polygon fill="#63b8ff" stroke="#63b8ff" points="1550.33,-83.2 1555.87,-74.17 1545.9,-77.78 1550.33,-83.2"/>
</a>
</g>
</g>
<!-- Node25&#45;&gt;Node16 -->
<g id="edge29_Node000025_Node000016" class="edge">
<title>Node25&#45;&gt;Node16</title>
<g id="a_edge29_Node000025_Node000016"><a xlink:title=" ">
<path fill="none" stroke="#63b8ff" d="M1522.55,-109.98C1543.91,-101.34 1577.2,-87.87 1601.56,-78.02"/>
<polygon fill="#63b8ff" stroke="#63b8ff" points="1603.11,-81.17 1611.07,-74.17 1600.49,-74.68 1603.11,-81.17"/>
</a>
</g>
</g>
<!-- Node25&#45;&gt;Node17 -->
<g id="edge30_Node000025_Node000017" class="edge">
<title>Node25&#45;&gt;Node17</title>
<g id="a_edge30_Node000025_Node000017"><a xlink:title=" ">
<path fill="none" stroke="#63b8ff" d="M1533.79,-109.98C1570.31,-100.36 1629.58,-84.73 1667.26,-74.79"/>
<polygon fill="#63b8ff" stroke="#63b8ff" points="1668.51,-78.08 1677.28,-72.15 1666.72,-71.31 1668.51,-78.08"/>
</a>
</g>
</g>
<!-- Node25&#45;&gt;Node21 -->
<g id="edge33_Node000025_Node000021" class="edge">
<title>Node25&#45;&gt;Node21</title>
<g id="a_edge33_Node000025_Node000021"><a xlink:title=" ">
<path fill="none" stroke="#63b8ff" d="M1483.51,-109.98C1465.57,-101.5 1437.78,-88.35 1417.07,-78.54"/>
<polygon fill="#63b8ff" stroke="#63b8ff" points="1418.36,-75.28 1407.82,-74.17 1415.36,-81.61 1418.36,-75.28"/>
</a>
</g>
</g>
<!-- Node26 -->
<g id="Node000026" class="node">
<title>Node26</title>
<g id="a_Node000026"><a xlink:title=" ">
<polygon fill="#e0e0e0" stroke="#999999" points="1594.5,-19 1538.5,-19 1538.5,0 1594.5,0 1594.5,-19"/>
<text text-anchor="middle" x="1566.5" y="-7" font-family="Helvetica,sans-Serif" font-size="10.00">iomanip</text>
</a>
</g>
</g>
<!-- Node25&#45;&gt;Node26 -->
<g id="edge31_Node000025_Node000026" class="edge">
<title>Node25&#45;&gt;Node26</title>
<g id="a_edge31_Node000025_Node000026"><a xlink:title=" ">
<path fill="none" stroke="#63b8ff" d="M1506.01,-109.73C1512.46,-97.35 1524.82,-74.12 1536.5,-55 1542.15,-45.76 1548.85,-35.73 1554.49,-27.54"/>
<polygon fill="#63b8ff" stroke="#63b8ff" points="1557.45,-29.42 1560.29,-19.21 1551.7,-25.42 1557.45,-29.42"/>
</a>
</g>
</g>
<!-- Node27 -->
<g id="Node000027" class="node">
<title>Node27</title>
<g id="a_Node000027"><a xlink:href="log_8hpp.html" target="_top" xlink:title=" ">
<polygon fill="white" stroke="#666666" points="1489,-74 1436,-74 1436,-55 1489,-55 1489,-74"/>
<text text-anchor="middle" x="1462.5" y="-62" font-family="Helvetica,sans-Serif" font-size="10.00">log.hpp</text>
</a>
</g>
</g>
<!-- Node25&#45;&gt;Node27 -->
<g id="edge34_Node000025_Node000027" class="edge">
<title>Node25&#45;&gt;Node27</title>
<g id="a_edge34_Node000025_Node000027"><a xlink:title=" ">
<path fill="none" stroke="#63b8ff" d="M1495.06,-109.75C1489.61,-102.34 1481.64,-91.5 1474.94,-82.41"/>
<polygon fill="#63b8ff" stroke="#63b8ff" points="1477.57,-80.07 1468.82,-74.09 1471.93,-84.22 1477.57,-80.07"/>
</a>
</g>
</g>
<!-- Node27&#45;&gt;Node11 -->
<g id="edge40_Node000027_Node000011" class="edge">
<title>Node27&#45;&gt;Node11</title>
<g id="a_edge40_Node000027_Node000011"><a xlink:title=" ">
<path fill="none" stroke="#63b8ff" d="M1435.86,-56.69C1432.72,-56.05 1429.55,-55.46 1426.5,-55 1303.66,-36.47 916.29,-17.38 801.11,-11.99"/>
<polygon fill="#63b8ff" stroke="#63b8ff" points="800.98,-8.48 790.83,-11.52 800.66,-15.48 800.98,-8.48"/>
</a>
</g>
</g>
<!-- Node27&#45;&gt;Node18 -->
<g id="edge38_Node000027_Node000018" class="edge">
<title>Node27&#45;&gt;Node18</title>
<g id="a_edge38_Node000027_Node000018"><a xlink:title=" ">
<path fill="none" stroke="#63b8ff" d="M1435.83,-56.86C1432.7,-56.18 1429.53,-55.55 1426.5,-55 1312.11,-34.45 1175.44,-20.31 1108.9,-14.08"/>
<polygon fill="#63b8ff" stroke="#63b8ff" points="1109.12,-10.59 1098.84,-13.15 1108.48,-17.56 1109.12,-10.59"/>
</a>
</g>
</g>
<!-- Node27&#45;&gt;Node26 -->
<g id="edge37_Node000027_Node000026" class="edge">
<title>Node27&#45;&gt;Node26</title>
<g id="a_edge37_Node000027_Node000026"><a xlink:title=" ">
<path fill="none" stroke="#63b8ff" d="M1479.21,-54.98C1495.71,-46.57 1521.2,-33.59 1540.38,-23.81"/>
<polygon fill="#63b8ff" stroke="#63b8ff" points="1542.17,-26.83 1549.49,-19.17 1538.99,-20.59 1542.17,-26.83"/>
</a>
</g>
</g>
<!-- Node28 -->
<g id="Node000028" class="node">
<title>Node28</title>
<g id="a_Node000028"><a xlink:title=" ">
<polygon fill="#e0e0e0" stroke="#999999" points="1520.5,-19 1470.5,-19 1470.5,0 1520.5,0 1520.5,-19"/>
<text text-anchor="middle" x="1495.5" y="-7" font-family="Helvetica,sans-Serif" font-size="10.00">chrono</text>
</a>
</g>
</g>
<!-- Node27&#45;&gt;Node28 -->
<g id="edge35_Node000027_Node000028" class="edge">
<title>Node27&#45;&gt;Node28</title>
<g id="a_edge35_Node000027_Node000028"><a xlink:title=" ">
<path fill="none" stroke="#63b8ff" d="M1467.95,-54.75C1472.51,-47.42 1479.17,-36.73 1484.79,-27.7"/>
<polygon fill="#63b8ff" stroke="#63b8ff" points="1487.84,-29.43 1490.15,-19.09 1481.9,-25.73 1487.84,-29.43"/>
</a>
</g>
</g>
<!-- Node29 -->
<g id="Node000029" class="node">
<title>Node29</title>
<g id="a_Node000029"><a xlink:title=" ">
<polygon fill="#e0e0e0" stroke="#999999" points="1386,-19 1333,-19 1333,0 1386,0 1386,-19"/>
<text text-anchor="middle" x="1359.5" y="-7" font-family="Helvetica,sans-Serif" font-size="10.00">cstdarg</text>
</a>
</g>
</g>
<!-- Node27&#45;&gt;Node29 -->
<g id="edge36_Node000027_Node000029" class="edge">
<title>Node27&#45;&gt;Node29</title>
<g id="a_edge36_Node000027_Node000029"><a xlink:title=" ">
<path fill="none" stroke="#63b8ff" d="M1445.95,-54.98C1429.61,-46.57 1404.37,-33.59 1385.37,-23.81"/>
<polygon fill="#63b8ff" stroke="#63b8ff" points="1386.84,-20.63 1376.35,-19.17 1383.64,-26.86 1386.84,-20.63"/>
</a>
</g>
</g>
<!-- Node30 -->
<g id="Node000030" class="node">
<title>Node30</title>
<g id="a_Node000030"><a xlink:title=" ">
<polygon fill="#e0e0e0" stroke="#999999" points="1452.5,-19 1404.5,-19 1404.5,0 1452.5,0 1452.5,-19"/>
<text text-anchor="middle" x="1428.5" y="-7" font-family="Helvetica,sans-Serif" font-size="10.00">mutex</text>
</a>
</g>
</g>
<!-- Node27&#45;&gt;Node30 -->
<g id="edge39_Node000027_Node000030" class="edge">
<title>Node27&#45;&gt;Node30</title>
<g id="a_edge39_Node000027_Node000030"><a xlink:title=" ">
<path fill="none" stroke="#63b8ff" d="M1456.89,-54.75C1452.18,-47.42 1445.33,-36.73 1439.53,-27.7"/>
<polygon fill="#63b8ff" stroke="#63b8ff" points="1442.36,-25.62 1434.01,-19.09 1436.46,-29.4 1442.36,-25.62"/>
</a>
</g>
</g>
<!-- Node31&#45;&gt;Node8 -->
<g id="edge46_Node000031_Node000008" class="edge">
<title>Node31&#45;&gt;Node8</title>
<g id="a_edge46_Node000031_Node000008"><a xlink:title=" ">
<path fill="none" stroke="#63b8ff" d="M1554.73,-171.07C1517.4,-163.24 1462.36,-149.45 1417.5,-129 1388.62,-115.84 1358.62,-94.56 1340.01,-80.31"/>
<polygon fill="#63b8ff" stroke="#63b8ff" points="1342.11,-77.51 1332.07,-74.12 1337.81,-83.03 1342.11,-77.51"/>
</a>
</g>
</g>
<!-- Node31&#45;&gt;Node15 -->
<g id="edge42_Node000031_Node000015" class="edge">
<title>Node31&#45;&gt;Node15</title>
<g id="a_edge42_Node000031_Node000015"><a xlink:title=" ">
<path fill="none" stroke="#63b8ff" d="M1598.52,-170.26C1599.78,-156.92 1601,-130.83 1594.5,-110 1591.38,-100 1585.43,-90.02 1579.81,-82.05"/>
<polygon fill="#63b8ff" stroke="#63b8ff" points="1582.58,-79.91 1573.78,-74.02 1576.98,-84.12 1582.58,-79.91"/>
</a>
</g>
</g>
<!-- Node31&#45;&gt;Node16 -->
<g id="edge43_Node000031_Node000016" class="edge">
<title>Node31&#45;&gt;Node16</title>
<g id="a_edge43_Node000031_Node000016"><a xlink:title=" ">
<path fill="none" stroke="#63b8ff" d="M1600.13,-170.47C1605.78,-152.15 1619.18,-108.68 1626.85,-83.81"/>
<polygon fill="#63b8ff" stroke="#63b8ff" points="1630.24,-84.72 1629.84,-74.13 1623.55,-82.65 1630.24,-84.72"/>
</a>
</g>
</g>
<!-- Node31&#45;&gt;Node17 -->
<g id="edge44_Node000031_Node000017" class="edge">
<title>Node31&#45;&gt;Node17</title>
<g id="a_edge44_Node000031_Node000017"><a xlink:title=" ">
<path fill="none" stroke="#63b8ff" d="M1605.39,-170.47C1622.87,-151.57 1665.1,-105.93 1687.68,-81.52"/>
<polygon fill="#63b8ff" stroke="#63b8ff" points="1690.29,-83.85 1694.52,-74.13 1685.16,-79.09 1690.29,-83.85"/>
</a>
</g>
</g>
<!-- Node31&#45;&gt;Node21 -->
<g id="edge47_Node000031_Node000021" class="edge">
<title>Node31&#45;&gt;Node21</title>
<g id="a_edge47_Node000031_Node000021"><a xlink:title=" ">
<path fill="none" stroke="#63b8ff" d="M1554.86,-171.96C1522.01,-165.02 1476.6,-152.01 1442.5,-129 1424.71,-116.99 1409.62,-97.35 1400.15,-83.09"/>
<polygon fill="#63b8ff" stroke="#63b8ff" points="1402.84,-80.8 1394.52,-74.24 1396.93,-84.55 1402.84,-80.8"/>
</a>
</g>
</g>
<!-- Node31&#45;&gt;Node25 -->
<g id="edge48_Node000031_Node000025" class="edge">
<title>Node31&#45;&gt;Node25</title>
<g id="a_edge48_Node000031_Node000025"><a xlink:title=" ">
<path fill="none" stroke="#63b8ff" d="M1583.33,-170.37C1567.81,-160.91 1542.67,-145.59 1524.35,-134.42"/>
<polygon fill="#63b8ff" stroke="#63b8ff" points="1526.08,-131.38 1515.72,-129.17 1522.44,-137.36 1526.08,-131.38"/>
</a>
</g>
</g>
<!-- Node31&#45;&gt;Node26 -->
<g id="edge45_Node000031_Node000026" class="edge">
<title>Node31&#45;&gt;Node26</title>
<g id="a_edge45_Node000031_Node000026"><a xlink:title=" ">
<path fill="none" stroke="#63b8ff" d="M1622.07,-170.45C1671.61,-151.91 1775.53,-105.56 1736.5,-55 1720.55,-34.33 1649.93,-21.41 1604.88,-15.11"/>
<polygon fill="#63b8ff" stroke="#63b8ff" points="1605.23,-11.63 1594.85,-13.76 1604.29,-18.57 1605.23,-11.63"/>
</a>
</g>
</g>
</g>
</svg>
