<?xml version="1.0" encoding="UTF-8" standalone="no"?>
<!DOCTYPE svg PUBLIC "-//W3C//DTD SVG 1.1//EN"
 "http://www.w3.org/Graphics/SVG/1.1/DTD/svg11.dtd">
<!-- Generated by graphviz version 2.43.0 (0)
 -->
<!-- Title: src/libuvgvpccenc/utils/constants.hpp Pages: 1 -->
<!--zoomable 170 -->

<svg id="main" version="1.1" xmlns="http://www.w3.org/2000/svg" xmlns:xlink="http://www.w3.org/1999/xlink" xml:space="preserve" onload="init(evt)">
<style type="text/css"><![CDATA[
.node, .edge {opacity: 0.7;}
.node.selected, .edge.selected {opacity: 1;}
.edge:hover path { stroke: red; }
.edge:hover polygon { stroke: red; fill: red; }
]]></style>

<defs>
  <circle id="rim" cx="0" cy="0" r="7"/>
  <circle id="rim2" cx="0" cy="0" r="3.5"/>
  <g id="zoomPlus">
    <use xlink:href="#rim" fill="#404040"><set attributeName="fill" to="#808080" begin="zoomplus.mouseover" end="zoomplus.mouseout"/></use>
    <path d="M-4,0h8M0,-4v8" fill="none" stroke="white" stroke-width="1.5" pointer-events="none"/>
  </g>
  <g id="zoomMin">
    <use xlink:href="#rim" fill="#404040"><set attributeName="fill" to="#808080" begin="zoomminus.mouseover" end="zoomminus.mouseout"/></use>
    <path d="M-4,0h8" fill="none" stroke="white" stroke-width="1.5" pointer-events="none"/>
  </g>
  <g id="arrowUp" transform="translate(30 24)">
    <use xlink:href="#rim"/>
    <path pointer-events="none" fill="none" stroke="white" stroke-width="1.5" d="M0,-3.0v7 M-2.5,-0.5L0,-3.0L2.5,-0.5"/>
  </g>
  <g id="arrowRight" transform="rotate(90) translate(36 -43)">
    <use xlink:href="#rim"/>
    <path pointer-events="none" fill="none" stroke="white" stroke-width="1.5" d="M0,-3.0v7 M-2.5,-0.5L0,-3.0L2.5,-0.5"/>
  </g>
  <g id="arrowDown" transform="rotate(180) translate(-30 -48)">
    <use xlink:href="#rim"/>
    <path pointer-events="none" fill="none" stroke="white" stroke-width="1.5" d="M0,-3.0v7 M-2.5,-0.5L0,-3.0L2.5,-0.5"/>
  </g>
  <g id="arrowLeft" transform="rotate(270) translate(-36 17)">
    <use xlink:href="#rim"/>
    <path pointer-events="none" fill="none" stroke="white" stroke-width="1.5" d="M0,-3.0v7 M-2.5,-0.5L0,-3.0L2.5,-0.5"/>
  </g>
  <g id="resetDef">
    <use xlink:href="#rim2" fill="#404040"><set attributeName="fill" to="#808080" begin="reset.mouseover" end="reset.mouseout"/></use>
  </g>
</defs>
<script type="application/ecmascript">
var viewWidth = 2879;
var viewHeight = 170;
var sectionId = 'dynsection-1';
</script>
<script type="application/ecmascript" xlink:href="svg.min.js"/>
<svg id="graph" class="graph">
<g id="viewport">
<title>src/libuvgvpccenc/utils/constants.hpp</title>
<!-- Node1 -->
<g id="Node000001" class="node">
<title>Node1</title>
<g id="a_Node000001"><a xlink:title=" ">
<polygon fill="#999999" stroke="#666666" points="1020,-162 892,-162 892,-132 1020,-132 1020,-162"/>
<text text-anchor="start" x="900" y="-150" font-family="Helvetica,sans-Serif" font-size="10.00">src/libuvgvpccenc/utils</text>
<text text-anchor="middle" x="956" y="-139" font-family="Helvetica,sans-Serif" font-size="10.00">/constants.hpp</text>
</a>
</g>
</g>
<!-- Node2 -->
<g id="Node000002" class="node">
<title>Node2</title>
<g id="a_Node000002"><a xlink:href="kdTree_8hpp.html" target="_top" xlink:title=" ">
<polygon fill="white" stroke="#666666" points="367,-96 179,-96 179,-66 367,-66 367,-96"/>
<text text-anchor="start" x="187" y="-84" font-family="Helvetica,sans-Serif" font-size="10.00">src/libuvgvpccenc/patchGeneration</text>
<text text-anchor="middle" x="273" y="-73" font-family="Helvetica,sans-Serif" font-size="10.00">/kdTree.hpp</text>
</a>
</g>
</g>
<!-- Node1&#45;&gt;Node2 -->
<g id="edge1_Node000001_Node000002" class="edge">
<title>Node1&#45;&gt;Node2</title>
<g id="a_edge1_Node000001_Node000002"><a xlink:title=" ">
<path fill="none" stroke="#63b8ff" d="M881.37,-140.52C771.61,-132.23 560.26,-115.4 381,-96 376.49,-95.51 371.87,-94.99 367.22,-94.45"/>
<polygon fill="#63b8ff" stroke="#63b8ff" points="881.44,-144.04 891.67,-141.3 881.96,-137.06 881.44,-144.04"/>
</a>
</g>
</g>
<!-- Node4 -->
<g id="Node000004" class="node">
<title>Node4</title>
<g id="a_Node000004"><a xlink:href="patchGeneration_8cpp.html" target="_top" xlink:title=" ">
<polygon fill="white" stroke="#666666" points="394,-30 206,-30 206,0 394,0 394,-30"/>
<text text-anchor="start" x="214" y="-18" font-family="Helvetica,sans-Serif" font-size="10.00">src/libuvgvpccenc/patchGeneration</text>
<text text-anchor="middle" x="300" y="-7" font-family="Helvetica,sans-Serif" font-size="10.00">/patchGeneration.cpp</text>
</a>
</g>
</g>
<!-- Node1&#45;&gt;Node4 -->
<g id="edge4_Node000001_Node000004" class="edge">
<title>Node1&#45;&gt;Node4</title>
<g id="a_edge4_Node000001_Node000004"><a xlink:title=" ">
<path fill="none" stroke="#63b8ff" d="M881.85,-144.35C753.83,-140.64 497.09,-129.2 414,-96 394.02,-88.02 393.45,-78.59 376,-66 358.45,-53.34 337.92,-39.91 322.62,-30.16"/>
<polygon fill="#63b8ff" stroke="#63b8ff" points="881.87,-147.85 891.96,-144.63 882.07,-140.85 881.87,-147.85"/>
</a>
</g>
</g>
<!-- Node5 -->
<g id="Node000005" class="node">
<title>Node5</title>
<g id="a_Node000005"><a xlink:href="patchSegmentation_8cpp.html" target="_top" xlink:title=" ">
<polygon fill="white" stroke="#666666" points="806,-30 618,-30 618,0 806,0 806,-30"/>
<text text-anchor="start" x="626" y="-18" font-family="Helvetica,sans-Serif" font-size="10.00">src/libuvgvpccenc/patchGeneration</text>
<text text-anchor="middle" x="712" y="-7" font-family="Helvetica,sans-Serif" font-size="10.00">/patchSegmentation.cpp</text>
</a>
</g>
</g>
<!-- Node1&#45;&gt;Node5 -->
<g id="edge5_Node000001_Node000005" class="edge">
<title>Node1&#45;&gt;Node5</title>
<g id="a_edge5_Node000001_Node000005"><a xlink:title=" ">
<path fill="none" stroke="#63b8ff" d="M881.85,-138.04C824.79,-130.4 752.21,-116.9 731,-96 713.41,-78.66 710.92,-48.22 711.15,-30.31"/>
<polygon fill="#63b8ff" stroke="#63b8ff" points="881.58,-141.53 891.95,-139.35 882.48,-134.59 881.58,-141.53"/>
</a>
</g>
</g>
<!-- Node6 -->
<g id="Node000006" class="node">
<title>Node6</title>
<g id="a_Node000006"><a xlink:href="ppiSegmenter_8cpp.html" target="_top" xlink:title=" ">
<polygon fill="white" stroke="#666666" points="600,-30 412,-30 412,0 600,0 600,-30"/>
<text text-anchor="start" x="420" y="-18" font-family="Helvetica,sans-Serif" font-size="10.00">src/libuvgvpccenc/patchGeneration</text>
<text text-anchor="middle" x="506" y="-7" font-family="Helvetica,sans-Serif" font-size="10.00">/ppiSegmenter.cpp</text>
</a>
</g>
</g>
<!-- Node1&#45;&gt;Node6 -->
<g id="edge6_Node000001_Node000006" class="edge">
<title>Node1&#45;&gt;Node6</title>
<g id="a_edge6_Node000001_Node000006"><a xlink:title=" ">
<path fill="none" stroke="#63b8ff" d="M881.68,-134.12C832.92,-125.51 768.06,-112.5 712,-96 648.51,-77.31 577.05,-47.49 537.19,-30.02"/>
<polygon fill="#63b8ff" stroke="#63b8ff" points="881.38,-137.62 891.83,-135.89 882.58,-130.73 881.38,-137.62"/>
</a>
</g>
</g>
<!-- Node7 -->
<g id="Node000007" class="node">
<title>Node7</title>
<g id="a_Node000007"><a xlink:href="ppiSegmenter_8hpp.html" target="_top" xlink:title=" ">
<polygon fill="white" stroke="#666666" points="611,-96 423,-96 423,-66 611,-66 611,-96"/>
<text text-anchor="start" x="431" y="-84" font-family="Helvetica,sans-Serif" font-size="10.00">src/libuvgvpccenc/patchGeneration</text>
<text text-anchor="middle" x="517" y="-73" font-family="Helvetica,sans-Serif" font-size="10.00">/ppiSegmenter.hpp</text>
</a>
</g>
</g>
<!-- Node1&#45;&gt;Node7 -->
<g id="edge7_Node000001_Node000007" class="edge">
<title>Node1&#45;&gt;Node7</title>
<g id="a_edge7_Node000001_Node000007"><a xlink:title=" ">
<path fill="none" stroke="#63b8ff" d="M881.45,-135.13C806.86,-124.26 691.89,-107.5 611.06,-95.71"/>
<polygon fill="#63b8ff" stroke="#63b8ff" points="881.3,-138.65 891.7,-136.63 882.31,-131.72 881.3,-138.65"/>
</a>
</g>
</g>
<!-- Node8 -->
<g id="Node000008" class="node">
<title>Node8</title>
<g id="a_Node000008"><a xlink:href="slicingComputation_8cpp.html" target="_top" xlink:title=" ">
<polygon fill="white" stroke="#666666" points="1424,-30 1236,-30 1236,0 1424,0 1424,-30"/>
<text text-anchor="start" x="1244" y="-18" font-family="Helvetica,sans-Serif" font-size="10.00">src/libuvgvpccenc/patchGeneration</text>
<text text-anchor="middle" x="1330" y="-7" font-family="Helvetica,sans-Serif" font-size="10.00">/slicingComputation.cpp</text>
</a>
</g>
</g>
<!-- Node1&#45;&gt;Node8 -->
<g id="edge10_Node000001_Node000008" class="edge">
<title>Node1&#45;&gt;Node8</title>
<g id="a_edge10_Node000001_Node000008"><a xlink:title=" ">
<path fill="none" stroke="#63b8ff" d="M1030.26,-134.78C1074.84,-126.76 1132.18,-114.14 1181,-96 1228.61,-78.31 1279.92,-48 1308.18,-30.2"/>
<polygon fill="#63b8ff" stroke="#63b8ff" points="1029.62,-131.34 1020.38,-136.52 1030.83,-138.23 1029.62,-131.34"/>
</a>
</g>
</g>
<!-- Node9 -->
<g id="Node000009" class="node">
<title>Node9</title>
<g id="a_Node000009"><a xlink:href="slicingPpiSegmenter_8cpp.html" target="_top" xlink:title=" ">
<polygon fill="white" stroke="#666666" points="1012,-30 824,-30 824,0 1012,0 1012,-30"/>
<text text-anchor="start" x="832" y="-18" font-family="Helvetica,sans-Serif" font-size="10.00">src/libuvgvpccenc/patchGeneration</text>
<text text-anchor="middle" x="918" y="-7" font-family="Helvetica,sans-Serif" font-size="10.00">/slicingPpiSegmenter.cpp</text>
</a>
</g>
</g>
<!-- Node1&#45;&gt;Node9 -->
<g id="edge11_Node000001_Node000009" class="edge">
<title>Node1&#45;&gt;Node9</title>
<g id="a_edge11_Node000001_Node000009"><a xlink:title=" ">
<path fill="none" stroke="#63b8ff" d="M951.13,-121.87C947.69,-105.88 942.69,-84.52 937,-66 933.24,-53.75 928.01,-40.18 923.99,-30.27"/>
<polygon fill="#63b8ff" stroke="#63b8ff" points="947.77,-122.91 953.25,-131.98 954.62,-121.47 947.77,-122.91"/>
</a>
</g>
</g>
<!-- Node10 -->
<g id="Node000010" class="node">
<title>Node10</title>
<g id="a_Node000010"><a xlink:href="slicingPpiSegmenter_8hpp.html" target="_top" xlink:title=" ">
<polygon fill="white" stroke="#666666" points="1172,-96 984,-96 984,-66 1172,-66 1172,-96"/>
<text text-anchor="start" x="992" y="-84" font-family="Helvetica,sans-Serif" font-size="10.00">src/libuvgvpccenc/patchGeneration</text>
<text text-anchor="middle" x="1078" y="-73" font-family="Helvetica,sans-Serif" font-size="10.00">/slicingPpiSegmenter.hpp</text>
</a>
</g>
</g>
<!-- Node1&#45;&gt;Node10 -->
<g id="edge12_Node000001_Node000010" class="edge">
<title>Node1&#45;&gt;Node10</title>
<g id="a_edge12_Node000001_Node000010"><a xlink:title=" ">
<path fill="none" stroke="#63b8ff" d="M991.76,-127.24C1010.8,-117.25 1033.82,-105.18 1051.29,-96.01"/>
<polygon fill="#63b8ff" stroke="#63b8ff" points="990,-124.21 982.77,-131.95 993.25,-130.41 990,-124.21"/>
</a>
</g>
</g>
<!-- Node11 -->
<g id="Node000011" class="node">
<title>Node11</title>
<g id="a_Node000011"><a xlink:href="utilsPatchGeneration_8hpp.html" target="_top" xlink:title=" ">
<polygon fill="white" stroke="#666666" points="928,-96 740,-96 740,-66 928,-66 928,-96"/>
<text text-anchor="start" x="748" y="-84" font-family="Helvetica,sans-Serif" font-size="10.00">src/libuvgvpccenc/patchGeneration</text>
<text text-anchor="middle" x="834" y="-73" font-family="Helvetica,sans-Serif" font-size="10.00">/utilsPatchGeneration.hpp</text>
</a>
</g>
</g>
<!-- Node1&#45;&gt;Node11 -->
<g id="edge15_Node000001_Node000011" class="edge">
<title>Node1&#45;&gt;Node11</title>
<g id="a_edge15_Node000001_Node000011"><a xlink:title=" ">
<path fill="none" stroke="#63b8ff" d="M920.24,-127.24C901.2,-117.25 878.18,-105.18 860.71,-96.01"/>
<polygon fill="#63b8ff" stroke="#63b8ff" points="918.75,-130.41 929.23,-131.95 922,-124.21 918.75,-130.41"/>
</a>
</g>
</g>
<!-- Node13 -->
<g id="Node000013" class="node">
<title>Node13</title>
<g id="a_Node000013"><a xlink:href="uvgvpcc_8cpp.html" target="_top" xlink:title=" ">
<polygon fill="white" stroke="#666666" points="1609.5,-24.5 1442.5,-24.5 1442.5,-5.5 1609.5,-5.5 1609.5,-24.5"/>
<text text-anchor="middle" x="1526" y="-12.5" font-family="Helvetica,sans-Serif" font-size="10.00">src/libuvgvpccenc/uvgvpcc.cpp</text>
</a>
</g>
</g>
<!-- Node1&#45;&gt;Node13 -->
<g id="edge39_Node000001_Node000013" class="edge">
<title>Node1&#45;&gt;Node13</title>
<g id="a_edge39_Node000001_Node000013"><a xlink:title=" ">
<path fill="none" stroke="#63b8ff" d="M1030.24,-135.92C1085.15,-127.59 1161.47,-114.18 1227,-96 1263.59,-85.85 1270.63,-76.92 1307,-66 1366.2,-48.23 1436.05,-33.3 1480.66,-24.5"/>
<polygon fill="#63b8ff" stroke="#63b8ff" points="1029.61,-132.47 1020.24,-137.41 1030.65,-139.39 1029.61,-132.47"/>
</a>
</g>
</g>
<!-- Node14 -->
<g id="Node000014" class="node">
<title>Node14</title>
<g id="a_Node000014"><a xlink:href="patchPacking_8cpp.html" target="_top" xlink:title=" ">
<polygon fill="white" stroke="#666666" points="1779.5,-96 1608.5,-96 1608.5,-66 1779.5,-66 1779.5,-96"/>
<text text-anchor="start" x="1616.5" y="-84" font-family="Helvetica,sans-Serif" font-size="10.00">src/libuvgvpccenc/patchPacking</text>
<text text-anchor="middle" x="1694" y="-73" font-family="Helvetica,sans-Serif" font-size="10.00">/patchPacking.cpp</text>
</a>
</g>
</g>
<!-- Node1&#45;&gt;Node14 -->
<g id="edge22_Node000001_Node000014" class="edge">
<title>Node1&#45;&gt;Node14</title>
<g id="a_edge22_Node000001_Node000014"><a xlink:title=" ">
<path fill="none" stroke="#63b8ff" d="M1030.18,-141.89C1150.03,-134.88 1393.58,-119.1 1599,-96 1602.06,-95.66 1605.18,-95.29 1608.33,-94.9"/>
<polygon fill="#63b8ff" stroke="#63b8ff" points="1029.8,-138.41 1020.02,-142.48 1030.21,-145.4 1029.8,-138.41"/>
</a>
</g>
</g>
<!-- Node15 -->
<g id="Node000015" class="node">
<title>Node15</title>
<g id="a_Node000015"><a xlink:href="commonMemory_8hpp.html" target="_top" xlink:title=" ">
<polygon fill="white" stroke="#666666" points="1444,-96 1316,-96 1316,-66 1444,-66 1444,-96"/>
<text text-anchor="start" x="1324" y="-84" font-family="Helvetica,sans-Serif" font-size="10.00">src/libuvgvpccenc/utils</text>
<text text-anchor="middle" x="1380" y="-73" font-family="Helvetica,sans-Serif" font-size="10.00">/commonMemory.hpp</text>
</a>
</g>
</g>
<!-- Node1&#45;&gt;Node15 -->
<g id="edge23_Node000001_Node000015" class="edge">
<title>Node1&#45;&gt;Node15</title>
<g id="a_edge23_Node000001_Node000015"><a xlink:title=" ">
<path fill="none" stroke="#63b8ff" d="M1030.19,-135.02C1097.88,-124.97 1200.69,-109.63 1290,-96 1298.28,-94.74 1307,-93.39 1315.6,-92.06"/>
<polygon fill="#63b8ff" stroke="#63b8ff" points="1029.42,-131.59 1020.05,-136.52 1030.45,-138.52 1029.42,-131.59"/>
</a>
</g>
</g>
<!-- Node17 -->
<g id="Node000017" class="node">
<title>Node17</title>
<g id="a_Node000017"><a xlink:href="fileExport_8hpp.html" target="_top" xlink:title=" ">
<polygon fill="white" stroke="#666666" points="1590,-96 1462,-96 1462,-66 1590,-66 1590,-96"/>
<text text-anchor="start" x="1470" y="-84" font-family="Helvetica,sans-Serif" font-size="10.00">src/libuvgvpccenc/utils</text>
<text text-anchor="middle" x="1526" y="-73" font-family="Helvetica,sans-Serif" font-size="10.00">/fileExport.hpp</text>
</a>
</g>
</g>
<!-- Node1&#45;&gt;Node17 -->
<g id="edge26_Node000001_Node000017" class="edge">
<title>Node1&#45;&gt;Node17</title>
<g id="a_edge26_Node000001_Node000017"><a xlink:title=" ">
<path fill="none" stroke="#63b8ff" d="M1030.2,-140.61C1127.56,-133.07 1303.61,-117.8 1453,-96 1455.94,-95.57 1458.94,-95.11 1461.96,-94.62"/>
<polygon fill="#63b8ff" stroke="#63b8ff" points="1029.87,-137.13 1020.17,-141.38 1030.4,-144.11 1029.87,-137.13"/>
</a>
</g>
</g>
<!-- Node3 -->
<g id="Node000003" class="node">
<title>Node3</title>
<g id="a_Node000003"><a xlink:href="kdTree_8cpp.html" target="_top" xlink:title=" ">
<polygon fill="white" stroke="#666666" points="188,-30 0,-30 0,0 188,0 188,-30"/>
<text text-anchor="start" x="8" y="-18" font-family="Helvetica,sans-Serif" font-size="10.00">src/libuvgvpccenc/patchGeneration</text>
<text text-anchor="middle" x="94" y="-7" font-family="Helvetica,sans-Serif" font-size="10.00">/kdTree.cpp</text>
</a>
</g>
</g>
<!-- Node2&#45;&gt;Node3 -->
<g id="edge2_Node000002_Node000003" class="edge">
<title>Node2&#45;&gt;Node3</title>
<g id="a_edge2_Node000002_Node000003"><a xlink:title=" ">
<path fill="none" stroke="#63b8ff" d="M223.93,-62.46C195.38,-52.25 159.87,-39.55 133.19,-30.01"/>
<polygon fill="#63b8ff" stroke="#63b8ff" points="223.12,-65.88 233.72,-65.95 225.48,-59.29 223.12,-65.88"/>
</a>
</g>
</g>
<!-- Node2&#45;&gt;Node4 -->
<g id="edge3_Node000002_Node000004" class="edge">
<title>Node2&#45;&gt;Node4</title>
<g id="a_edge3_Node000002_Node000004"><a xlink:title=" ">
<path fill="none" stroke="#63b8ff" d="M282.96,-56.39C286.67,-47.59 290.78,-37.86 294.02,-30.16"/>
<polygon fill="#63b8ff" stroke="#63b8ff" points="279.65,-55.22 278.99,-65.8 286.1,-57.94 279.65,-55.22"/>
</a>
</g>
</g>
<!-- Node7&#45;&gt;Node4 -->
<g id="edge8_Node000007_Node000004" class="edge">
<title>Node7&#45;&gt;Node4</title>
<g id="a_edge8_Node000007_Node000004"><a xlink:title=" ">
<path fill="none" stroke="#63b8ff" d="M459.77,-63.12C424.78,-52.8 380.56,-39.76 347.51,-30.01"/>
<polygon fill="#63b8ff" stroke="#63b8ff" points="458.8,-66.48 469.38,-65.95 460.78,-59.77 458.8,-66.48"/>
</a>
</g>
</g>
<!-- Node7&#45;&gt;Node6 -->
<g id="edge9_Node000007_Node000006" class="edge">
<title>Node7&#45;&gt;Node6</title>
<g id="a_edge9_Node000007_Node000006"><a xlink:title=" ">
<path fill="none" stroke="#63b8ff" d="M512.84,-55.83C511.36,-47.17 509.73,-37.7 508.43,-30.16"/>
<polygon fill="#63b8ff" stroke="#63b8ff" points="509.42,-56.53 514.56,-65.8 516.31,-55.35 509.42,-56.53"/>
</a>
</g>
</g>
<!-- Node10&#45;&gt;Node8 -->
<g id="edge13_Node000010_Node000008" class="edge">
<title>Node10&#45;&gt;Node8</title>
<g id="a_edge13_Node000010_Node000008"><a xlink:title=" ">
<path fill="none" stroke="#63b8ff" d="M1143.16,-63.45C1183.99,-53.08 1236.04,-39.86 1274.83,-30.01"/>
<polygon fill="#63b8ff" stroke="#63b8ff" points="1142.13,-60.1 1133.3,-65.95 1143.86,-66.89 1142.13,-60.1"/>
</a>
</g>
</g>
<!-- Node10&#45;&gt;Node9 -->
<g id="edge14_Node000010_Node000009" class="edge">
<title>Node10&#45;&gt;Node9</title>
<g id="a_edge14_Node000010_Node000009"><a xlink:title=" ">
<path fill="none" stroke="#63b8ff" d="M1033.47,-62.19C1008.06,-52.02 976.67,-39.47 953.03,-30.01"/>
<polygon fill="#63b8ff" stroke="#63b8ff" points="1032.3,-65.49 1042.89,-65.95 1034.9,-58.99 1032.3,-65.49"/>
</a>
</g>
</g>
<!-- Node11&#45;&gt;Node4 -->
<g id="edge17_Node000011_Node000004" class="edge">
<title>Node11&#45;&gt;Node4</title>
<g id="a_edge17_Node000011_Node000004"><a xlink:title=" ">
<path fill="none" stroke="#63b8ff" d="M729.59,-68.47C642.26,-58.68 514.43,-44.04 403,-30 400.05,-29.63 397.04,-29.25 394.01,-28.86"/>
<polygon fill="#63b8ff" stroke="#63b8ff" points="729.44,-71.97 739.77,-69.61 730.22,-65.02 729.44,-71.97"/>
</a>
</g>
</g>
<!-- Node11&#45;&gt;Node5 -->
<g id="edge18_Node000011_Node000005" class="edge">
<title>Node11&#45;&gt;Node5</title>
<g id="a_edge18_Node000011_Node000005"><a xlink:title=" ">
<path fill="none" stroke="#63b8ff" d="M798.24,-61.24C779.2,-51.25 756.18,-39.18 738.71,-30.01"/>
<polygon fill="#63b8ff" stroke="#63b8ff" points="796.75,-64.41 807.23,-65.95 800,-58.21 796.75,-64.41"/>
</a>
</g>
</g>
<!-- Node11&#45;&gt;Node6 -->
<g id="edge19_Node000011_Node000006" class="edge">
<title>Node11&#45;&gt;Node6</title>
<g id="a_edge19_Node000011_Node000006"><a xlink:title=" ">
<path fill="none" stroke="#63b8ff" d="M751.87,-63.98C698.34,-53.53 629.15,-40.03 577.81,-30.01"/>
<polygon fill="#63b8ff" stroke="#63b8ff" points="751.53,-67.47 762.02,-65.95 752.87,-60.6 751.53,-67.47"/>
</a>
</g>
</g>
<!-- Node11&#45;&gt;Node9 -->
<g id="edge20_Node000011_Node000009" class="edge">
<title>Node11&#45;&gt;Node9</title>
<g id="a_edge20_Node000011_Node000009"><a xlink:title=" ">
<path fill="none" stroke="#63b8ff" d="M860.94,-59.48C873.49,-49.91 888.11,-38.77 899.41,-30.16"/>
<polygon fill="#63b8ff" stroke="#63b8ff" points="858.48,-56.95 852.64,-65.8 862.72,-62.52 858.48,-56.95"/>
</a>
</g>
</g>
<!-- Node12 -->
<g id="Node000012" class="node">
<title>Node12</title>
<g id="a_Node000012"><a xlink:href="normalOrientation_8cpp.html" target="_top" xlink:title=" ">
<polygon fill="white" stroke="#666666" points="1218,-30 1030,-30 1030,0 1218,0 1218,-30"/>
<text text-anchor="start" x="1038" y="-18" font-family="Helvetica,sans-Serif" font-size="10.00">src/libuvgvpccenc/patchGeneration</text>
<text text-anchor="middle" x="1124" y="-7" font-family="Helvetica,sans-Serif" font-size="10.00">/normalOrientation.cpp</text>
</a>
</g>
</g>
<!-- Node11&#45;&gt;Node12 -->
<g id="edge16_Node000011_Node000012" class="edge">
<title>Node11&#45;&gt;Node12</title>
<g id="a_edge16_Node000011_Node000012"><a xlink:title=" ">
<path fill="none" stroke="#63b8ff" d="M907.5,-63.78C954.71,-53.36 1015.4,-39.97 1060.51,-30.01"/>
<polygon fill="#63b8ff" stroke="#63b8ff" points="906.65,-60.38 897.64,-65.95 908.16,-67.22 906.65,-60.38"/>
</a>
</g>
</g>
<!-- Node11&#45;&gt;Node13 -->
<g id="edge21_Node000011_Node000013" class="edge">
<title>Node11&#45;&gt;Node13</title>
<g id="a_edge21_Node000011_Node000013"><a xlink:title=" ">
<path fill="none" stroke="#63b8ff" d="M937.99,-69.43C950.46,-68.24 963.01,-67.07 975,-66 1178.38,-47.91 1230.14,-53.21 1433,-30 1446.3,-28.48 1460.62,-26.49 1473.95,-24.5"/>
<polygon fill="#63b8ff" stroke="#63b8ff" points="937.64,-65.95 928.02,-70.39 938.31,-72.92 937.64,-65.95"/>
</a>
</g>
</g>
<!-- Node15&#45;&gt;Node13 -->
<g id="edge25_Node000015_Node000013" class="edge">
<title>Node15&#45;&gt;Node13</title>
<g id="a_edge25_Node000015_Node000013"><a xlink:title=" ">
<path fill="none" stroke="#63b8ff" d="M1421.56,-61.78C1449.48,-49.54 1484.98,-33.98 1506.57,-24.52"/>
<polygon fill="#63b8ff" stroke="#63b8ff" points="1419.79,-58.73 1412.04,-65.95 1422.6,-65.15 1419.79,-58.73"/>
</a>
</g>
</g>
<!-- Node16 -->
<g id="Node000016" class="node">
<title>Node16</title>
<g id="a_Node000016"><a xlink:href="commonMemory_8cpp.html" target="_top" xlink:title=" ">
<polygon fill="white" stroke="#666666" points="1756,-30 1628,-30 1628,0 1756,0 1756,-30"/>
<text text-anchor="start" x="1636" y="-18" font-family="Helvetica,sans-Serif" font-size="10.00">src/libuvgvpccenc/utils</text>
<text text-anchor="middle" x="1692" y="-7" font-family="Helvetica,sans-Serif" font-size="10.00">/commonMemory.cpp</text>
</a>
</g>
</g>
<!-- Node15&#45;&gt;Node16 -->
<g id="edge24_Node000015_Node000016" class="edge">
<title>Node15&#45;&gt;Node16</title>
<g id="a_edge24_Node000015_Node000016"><a xlink:title=" ">
<path fill="none" stroke="#63b8ff" d="M1454.26,-64.77C1507.11,-53.93 1577.39,-39.51 1627.82,-29.17"/>
<polygon fill="#63b8ff" stroke="#63b8ff" points="1453.36,-61.38 1444.27,-66.82 1454.77,-68.24 1453.36,-61.38"/>
</a>
</g>
</g>
<!-- Node17&#45;&gt;Node5 -->
<g id="edge33_Node000017_Node000005" class="edge">
<title>Node17&#45;&gt;Node5</title>
<g id="a_edge33_Node000017_Node000005"><a xlink:title=" ">
<path fill="none" stroke="#63b8ff" d="M1451.85,-65.98C1169.39,-31.78 1094.39,-56.83 815,-30 812.13,-29.72 809.21,-29.43 806.26,-29.12"/>
<polygon fill="#63b8ff" stroke="#63b8ff" points="1451.63,-69.48 1461.98,-67.22 1452.48,-62.53 1451.63,-69.48"/>
</a>
</g>
</g>
<!-- Node17&#45;&gt;Node6 -->
<g id="edge34_Node000017_Node000006" class="edge">
<title>Node17&#45;&gt;Node6</title>
<g id="a_edge34_Node000017_Node000006"><a xlink:title=" ">
<path fill="none" stroke="#63b8ff" d="M1451.98,-66.02C1078.35,-23.24 979.68,-63.03 609,-30 606.12,-29.74 603.21,-29.46 600.26,-29.17"/>
<polygon fill="#63b8ff" stroke="#63b8ff" points="1451.65,-69.5 1461.99,-67.17 1452.46,-62.55 1451.65,-69.5"/>
</a>
</g>
</g>
<!-- Node17&#45;&gt;Node8 -->
<g id="edge35_Node000017_Node000008" class="edge">
<title>Node17&#45;&gt;Node8</title>
<g id="a_edge35_Node000017_Node000008"><a xlink:title=" ">
<path fill="none" stroke="#63b8ff" d="M1473.09,-62.72C1441.68,-52.47 1402.38,-39.63 1372.91,-30.01"/>
<polygon fill="#63b8ff" stroke="#63b8ff" points="1472.39,-66.18 1482.99,-65.95 1474.57,-59.52 1472.39,-66.18"/>
</a>
</g>
</g>
<!-- Node17&#45;&gt;Node9 -->
<g id="edge36_Node000017_Node000009" class="edge">
<title>Node17&#45;&gt;Node9</title>
<g id="a_edge36_Node000017_Node000009"><a xlink:title=" ">
<path fill="none" stroke="#63b8ff" d="M1451.85,-65.94C1260.38,-40.19 1209.25,-50.62 1021,-30 1018.13,-29.69 1015.22,-29.36 1012.28,-29.01"/>
<polygon fill="#63b8ff" stroke="#63b8ff" points="1451.59,-69.44 1461.97,-67.32 1452.53,-62.5 1451.59,-69.44"/>
</a>
</g>
</g>
<!-- Node17&#45;&gt;Node12 -->
<g id="edge32_Node000017_Node000012" class="edge">
<title>Node17&#45;&gt;Node12</title>
<g id="a_edge32_Node000017_Node000012"><a xlink:title=" ">
<path fill="none" stroke="#63b8ff" d="M1451.88,-65.84C1367.18,-51.4 1281.48,-38.51 1218.11,-29.32"/>
<polygon fill="#63b8ff" stroke="#63b8ff" points="1451.48,-69.33 1461.93,-67.57 1452.67,-62.43 1451.48,-69.33"/>
</a>
</g>
</g>
<!-- Node17&#45;&gt;Node13 -->
<g id="edge38_Node000017_Node000013" class="edge">
<title>Node17&#45;&gt;Node13</title>
<g id="a_edge38_Node000017_Node000013"><a xlink:title=" ">
<path fill="none" stroke="#63b8ff" d="M1526,-55.6C1526,-44.8 1526,-32.78 1526,-24.84"/>
<polygon fill="#63b8ff" stroke="#63b8ff" points="1522.5,-55.8 1526,-65.8 1529.5,-55.8 1522.5,-55.8"/>
</a>
</g>
</g>
<!-- Node18 -->
<g id="Node000018" class="node">
<title>Node18</title>
<g id="a_Node000018"><a xlink:href="bitstream__util_8cpp.html" target="_top" xlink:title=" ">
<polygon fill="white" stroke="#666666" points="2488,-30 2326,-30 2326,0 2488,0 2488,-30"/>
<text text-anchor="start" x="2334" y="-18" font-family="Helvetica,sans-Serif" font-size="10.00">src/libuvgvpccenc/bitstream</text>
<text text-anchor="middle" x="2407" y="-7" font-family="Helvetica,sans-Serif" font-size="10.00">Generation/bitstream_util.cpp</text>
</a>
</g>
</g>
<!-- Node17&#45;&gt;Node18 -->
<g id="edge27_Node000017_Node000018" class="edge">
<title>Node17&#45;&gt;Node18</title>
<g id="a_edge27_Node000017_Node000018"><a xlink:title=" ">
<path fill="none" stroke="#63b8ff" d="M1600.07,-66.14C1918.55,-28.95 2002.85,-62.23 2317,-30 2319.83,-29.71 2322.71,-29.39 2325.61,-29.05"/>
<polygon fill="#63b8ff" stroke="#63b8ff" points="1599.61,-62.67 1590.09,-67.32 1600.43,-69.62 1599.61,-62.67"/>
</a>
</g>
</g>
<!-- Node19 -->
<g id="Node000019" class="node">
<title>Node19</title>
<g id="a_Node000019"><a xlink:href="encoderFFmpeg_8cpp.html" target="_top" xlink:title=" ">
<polygon fill="white" stroke="#666666" points="2679.5,-30 2506.5,-30 2506.5,0 2679.5,0 2679.5,-30"/>
<text text-anchor="start" x="2514.5" y="-18" font-family="Helvetica,sans-Serif" font-size="10.00">src/libuvgvpccenc/mapEncoding</text>
<text text-anchor="middle" x="2593" y="-7" font-family="Helvetica,sans-Serif" font-size="10.00">/encoderFFmpeg.cpp</text>
</a>
</g>
</g>
<!-- Node17&#45;&gt;Node19 -->
<g id="edge28_Node000017_Node000019" class="edge">
<title>Node17&#45;&gt;Node19</title>
<g id="a_edge28_Node000017_Node000019"><a xlink:title=" ">
<path fill="none" stroke="#63b8ff" d="M1600.14,-66.14C1998.15,-21.55 2103.01,-66.53 2497,-30 2500.1,-29.71 2503.26,-29.39 2506.44,-29.05"/>
<polygon fill="#63b8ff" stroke="#63b8ff" points="1599.63,-62.68 1590.09,-67.28 1600.42,-69.63 1599.63,-62.68"/>
</a>
</g>
</g>
<!-- Node20 -->
<g id="Node000020" class="node">
<title>Node20</title>
<g id="a_Node000020"><a xlink:href="encoderKvazaar_8cpp.html" target="_top" xlink:title=" ">
<polygon fill="white" stroke="#666666" points="2870.5,-30 2697.5,-30 2697.5,0 2870.5,0 2870.5,-30"/>
<text text-anchor="start" x="2705.5" y="-18" font-family="Helvetica,sans-Serif" font-size="10.00">src/libuvgvpccenc/mapEncoding</text>
<text text-anchor="middle" x="2784" y="-7" font-family="Helvetica,sans-Serif" font-size="10.00">/encoderKvazaar.cpp</text>
</a>
</g>
</g>
<!-- Node17&#45;&gt;Node20 -->
<g id="edge29_Node000017_Node000020" class="edge">
<title>Node17&#45;&gt;Node20</title>
<g id="a_edge29_Node000017_Node000020"><a xlink:title=" ">
<path fill="none" stroke="#63b8ff" d="M1600.11,-66.15C2083.07,-13.66 2209.98,-73.07 2689,-30 2691.74,-29.75 2694.52,-29.48 2697.33,-29.19"/>
<polygon fill="#63b8ff" stroke="#63b8ff" points="1599.64,-62.68 1590.08,-67.25 1600.41,-69.64 1599.64,-62.68"/>
</a>
</g>
</g>
<!-- Node21 -->
<g id="Node000021" class="node">
<title>Node21</title>
<g id="a_Node000021"><a xlink:href="mapGeneration_8cpp.html" target="_top" xlink:title=" ">
<polygon fill="white" stroke="#666666" points="1956,-30 1774,-30 1774,0 1956,0 1956,-30"/>
<text text-anchor="start" x="1782" y="-18" font-family="Helvetica,sans-Serif" font-size="10.00">src/libuvgvpccenc/mapGeneration</text>
<text text-anchor="middle" x="1865" y="-7" font-family="Helvetica,sans-Serif" font-size="10.00">/mapGeneration.cpp</text>
</a>
</g>
</g>
<!-- Node17&#45;&gt;Node21 -->
<g id="edge30_Node000017_Node000021" class="edge">
<title>Node17&#45;&gt;Node21</title>
<g id="a_edge30_Node000017_Node000021"><a xlink:title=" ">
<path fill="none" stroke="#63b8ff" d="M1600.16,-65.97C1670.82,-52.62 1739.75,-39.62 1790.47,-30.05"/>
<polygon fill="#63b8ff" stroke="#63b8ff" points="1599.35,-62.56 1590.17,-67.86 1600.65,-69.44 1599.35,-62.56"/>
</a>
</g>
</g>
<!-- Node22 -->
<g id="Node000022" class="node">
<title>Node22</title>
<g id="a_Node000022"><a xlink:href="normalComputation_8cpp.html" target="_top" xlink:title=" ">
<polygon fill="white" stroke="#666666" points="2162,-30 1974,-30 1974,0 2162,0 2162,-30"/>
<text text-anchor="start" x="1982" y="-18" font-family="Helvetica,sans-Serif" font-size="10.00">src/libuvgvpccenc/patchGeneration</text>
<text text-anchor="middle" x="2068" y="-7" font-family="Helvetica,sans-Serif" font-size="10.00">/normalComputation.cpp</text>
</a>
</g>
</g>
<!-- Node17&#45;&gt;Node22 -->
<g id="edge31_Node000017_Node000022" class="edge">
<title>Node17&#45;&gt;Node22</title>
<g id="a_edge31_Node000017_Node000022"><a xlink:title=" ">
<path fill="none" stroke="#63b8ff" d="M1600.49,-66.03C1763.12,-43.07 1806.42,-48.59 1965,-30 1967.96,-29.65 1970.96,-29.29 1973.99,-28.92"/>
<polygon fill="#63b8ff" stroke="#63b8ff" points="1599.52,-62.63 1590.12,-67.51 1600.51,-69.56 1599.52,-62.63"/>
</a>
</g>
</g>
<!-- Node23 -->
<g id="Node000023" class="node">
<title>Node23</title>
<g id="a_Node000023"><a xlink:href="fileExport_8cpp.html" target="_top" xlink:title=" ">
<polygon fill="white" stroke="#666666" points="2308,-30 2180,-30 2180,0 2308,0 2308,-30"/>
<text text-anchor="start" x="2188" y="-18" font-family="Helvetica,sans-Serif" font-size="10.00">src/libuvgvpccenc/utils</text>
<text text-anchor="middle" x="2244" y="-7" font-family="Helvetica,sans-Serif" font-size="10.00">/fileExport.cpp</text>
</a>
</g>
</g>
<!-- Node17&#45;&gt;Node23 -->
<g id="edge37_Node000017_Node000023" class="edge">
<title>Node17&#45;&gt;Node23</title>
<g id="a_edge37_Node000017_Node000023"><a xlink:title=" ">
<path fill="none" stroke="#63b8ff" d="M1600.37,-66.09C1854.08,-35.02 1922.07,-61.59 2171,-30 2173.94,-29.63 2176.95,-29.21 2179.98,-28.75"/>
<polygon fill="#63b8ff" stroke="#63b8ff" points="1599.59,-62.66 1590.1,-67.37 1600.45,-69.61 1599.59,-62.66"/>
</a>
</g>
</g>
</g>
</svg>

<g id="navigator" transform="translate(0 0)" fill="#404254">
  <rect fill="#f2f5e9" fill-opacity="0.5" stroke="#606060" stroke-width=".5" x="0" y="0" width="60" height="60"/>
  <use id="zoomplus" xlink:href="#zoomPlus" x="17" y="9" onmousedown="handleZoom(evt,'in')"/>
  <use id="zoomminus" xlink:href="#zoomMin" x="42" y="9" onmousedown="handleZoom(evt,'out')"/>
  <use id="reset" xlink:href="#resetDef" x="30" y="36" onmousedown="handleReset()"/>
   <use id="arrowup" xlink:href="#arrowUp" x="0" y="0" onmousedown="handlePan(0,-1)"/>
  <use id="arrowright" xlink:href="#arrowRight" x="0" y="0" onmousedown="handlePan(1,0)"/>
  <use id="arrowdown" xlink:href="#arrowDown" x="0" y="0" onmousedown="handlePan(0,1)"/>
  <use id="arrowleft" xlink:href="#arrowLeft" x="0" y="0" onmousedown="handlePan(-1,0)"/>
</g>
<svg viewBox="0 0 15 15" width="100%" height="30px" preserveAspectRatio="xMaxYMin meet">
 <g id="arrow_out" transform="scale(0.3 0.3)">
  <a xlink:href="constants_8hpp__dep__incl_org.svg" target="_base">
   <rect id="button" ry="5" rx="5" y="6" x="6" height="38" width="38"
        fill="#f2f5e9" fill-opacity="0.5" stroke="#606060" stroke-width="1.0"/>
   <path id="arrow"
     d="M 11.500037,31.436501 C 11.940474,20.09759 22.043105,11.32322 32.158766,21.979434 L 37.068811,17.246167 C 37.068811,17.246167 37.088388,32 37.088388,32 L 22.160133,31.978069 C 22.160133,31.978069 26.997745,27.140456 26.997745,27.140456 C 18.528582,18.264221 13.291696,25.230495 11.500037,31.436501 z"
     style="fill:#404040;"/>
  </a>
 </g>
</svg>

<style type='text/css'>
<![CDATA[
[data-mouse-over-selected='false'] { opacity: 0.7; }
[data-mouse-over-selected='true']  { opacity: 1.0; }
]]>
</style>
<script type="application/ecmascript"><![CDATA[
document.addEventListener('DOMContentLoaded', (event) => {
  highlightEdges();
  highlightAdjacentNodes();
});
]]></script>
</svg>
