<?xml version="1.0" encoding="UTF-8" standalone="no"?>
<!DOCTYPE svg PUBLIC "-//W3C//DTD SVG 1.1//EN"
 "http://www.w3.org/Graphics/SVG/1.1/DTD/svg11.dtd">
<!-- Generated by graphviz version 2.43.0 (0)
 -->
<!-- Title: src/libuvgvpccenc/utils/constants.hpp Pages: 1 -->
<svg width="479pt" height="203pt"
 viewBox="0.00 0.00 478.55 203.00" xmlns="http://www.w3.org/2000/svg" xmlns:xlink="http://www.w3.org/1999/xlink">

<svg id="main" version="1.1" xmlns="http://www.w3.org/2000/svg" xmlns:xlink="http://www.w3.org/1999/xlink" xml:space="preserve" onload="init(evt)">
<style type="text/css"><![CDATA[
.node, .edge {opacity: 0.7;}
.node.selected, .edge.selected {opacity: 1;}
.edge:hover path { stroke: red; }
.edge:hover polygon { stroke: red; fill: red; }
]]></style>
<script type="application/ecmascript" xlink:href="svg.min.js"/>
<svg id="graph" class="graph">
<g id="graph0" class="graph" transform="scale(1 1) rotate(0) translate(4 199)">
<title>src/libuvgvpccenc/utils/constants.hpp</title>
<!-- Node1 -->
<g id="Node000001" class="node">
<title>Node1</title>
<g id="a_Node000001"><a xlink:title=" ">
<polygon fill="#999999" stroke="#666666" points="211.05,-195 83.05,-195 83.05,-165 211.05,-165 211.05,-195"/>
<text text-anchor="start" x="91.05" y="-183" font-family="Helvetica,sans-Serif" font-size="10.00">src/libuvgvpccenc/utils</text>
<text text-anchor="middle" x="147.05" y="-172" font-family="Helvetica,sans-Serif" font-size="10.00">/constants.hpp</text>
</a>
</g>
</g>
<!-- Node2 -->
<g id="Node000002" class="node">
<title>Node2</title>
<g id="a_Node000002"><a xlink:title=" ">
<polygon fill="#e0e0e0" stroke="#999999" points="54.05,-74 12.05,-74 12.05,-55 54.05,-55 54.05,-74"/>
<text text-anchor="middle" x="33.05" y="-62" font-family="Helvetica,sans-Serif" font-size="10.00">array</text>
</a>
</g>
</g>
<!-- Node1&#45;&gt;Node2 -->
<g id="edge1_Node000001_Node000002" class="edge">
<title>Node1&#45;&gt;Node2</title>
<g id="a_edge1_Node000001_Node000002"><a xlink:title=" ">
<path fill="none" stroke="#63b8ff" d="M132.61,-164.63C111.27,-143.37 71.42,-103.71 49.16,-81.54"/>
<polygon fill="#63b8ff" stroke="#63b8ff" points="51.37,-78.8 41.82,-74.23 46.43,-83.77 51.37,-78.8"/>
</a>
</g>
</g>
<!-- Node3 -->
<g id="Node000003" class="node">
<title>Node3</title>
<g id="a_Node000003"><a xlink:title=" ">
<polygon fill="#e0e0e0" stroke="#999999" points="122.05,-74 72.05,-74 72.05,-55 122.05,-55 122.05,-74"/>
<text text-anchor="middle" x="97.05" y="-62" font-family="Helvetica,sans-Serif" font-size="10.00">cstdint</text>
</a>
</g>
</g>
<!-- Node1&#45;&gt;Node3 -->
<g id="edge2_Node000001_Node000003" class="edge">
<title>Node1&#45;&gt;Node3</title>
<g id="a_edge2_Node000001_Node000003"><a xlink:title=" ">
<path fill="none" stroke="#63b8ff" d="M140.72,-164.63C131.64,-144.03 114.94,-106.12 105.03,-83.63"/>
<polygon fill="#63b8ff" stroke="#63b8ff" points="108.13,-81.97 100.89,-74.23 101.72,-84.79 108.13,-81.97"/>
</a>
</g>
</g>
<!-- Node4 -->
<g id="Node000004" class="node">
<title>Node4</title>
<g id="a_Node000004"><a xlink:title=" ">
<polygon fill="#e0e0e0" stroke="#999999" points="125.05,-19 69.05,-19 69.05,0 125.05,0 125.05,-19"/>
<text text-anchor="middle" x="97.05" y="-7" font-family="Helvetica,sans-Serif" font-size="10.00">iomanip</text>
</a>
</g>
</g>
<!-- Node1&#45;&gt;Node4 -->
<g id="edge3_Node000001_Node000004" class="edge">
<title>Node1&#45;&gt;Node4</title>
<g id="a_edge3_Node000001_Node000004"><a xlink:title=" ">
<path fill="none" stroke="#63b8ff" d="M111.78,-164.92C76.82,-148.8 25.35,-118.72 3.05,-74 -10.67,-46.49 27.29,-28.92 59.01,-19.39"/>
<polygon fill="#63b8ff" stroke="#63b8ff" points="60.34,-22.66 69.02,-16.58 58.44,-15.92 60.34,-22.66"/>
</a>
</g>
</g>
<!-- Node5 -->
<g id="Node000005" class="node">
<title>Node5</title>
<g id="a_Node000005"><a xlink:title=" ">
<polygon fill="#e0e0e0" stroke="#999999" points="366.05,-74 322.05,-74 322.05,-55 366.05,-55 366.05,-74"/>
<text text-anchor="middle" x="344.05" y="-62" font-family="Helvetica,sans-Serif" font-size="10.00">limits</text>
</a>
</g>
</g>
<!-- Node1&#45;&gt;Node5 -->
<g id="edge4_Node000001_Node000005" class="edge">
<title>Node1&#45;&gt;Node5</title>
<g id="a_edge4_Node000001_Node000005"><a xlink:title=" ">
<path fill="none" stroke="#63b8ff" d="M190.41,-165C214.46,-156.32 244.4,-143.97 269.05,-129 291.44,-115.4 313.96,-95.27 328.39,-81.33"/>
<polygon fill="#63b8ff" stroke="#63b8ff" points="330.85,-83.82 335.52,-74.31 325.94,-78.83 330.85,-83.82"/>
</a>
</g>
</g>
<!-- Node6 -->
<g id="Node000006" class="node">
<title>Node6</title>
<g id="a_Node000006"><a xlink:title=" ">
<polygon fill="#e0e0e0" stroke="#999999" points="440.05,-74 384.05,-74 384.05,-55 440.05,-55 440.05,-74"/>
<text text-anchor="middle" x="412.05" y="-62" font-family="Helvetica,sans-Serif" font-size="10.00">sstream</text>
</a>
</g>
</g>
<!-- Node1&#45;&gt;Node6 -->
<g id="edge5_Node000001_Node000006" class="edge">
<title>Node1&#45;&gt;Node6</title>
<g id="a_edge5_Node000001_Node000006"><a xlink:title=" ">
<path fill="none" stroke="#63b8ff" d="M196.54,-165C226.19,-156 264.36,-143.33 297.05,-129 330.46,-114.35 367.02,-93.22 389.74,-79.42"/>
<polygon fill="#63b8ff" stroke="#63b8ff" points="391.61,-82.38 398.31,-74.17 387.95,-76.42 391.61,-82.38"/>
</a>
</g>
</g>
<!-- Node7 -->
<g id="Node000007" class="node">
<title>Node7</title>
<g id="a_Node000007"><a xlink:href="utils_8hpp.html" target="_top" xlink:title=" ">
<polygon fill="white" stroke="#666666" points="260.55,-129 159.55,-129 159.55,-110 260.55,-110 260.55,-129"/>
<text text-anchor="middle" x="210.05" y="-117" font-family="Helvetica,sans-Serif" font-size="10.00">uvgutils/utils.hpp</text>
</a>
</g>
</g>
<!-- Node1&#45;&gt;Node7 -->
<g id="edge6_Node000001_Node000007" class="edge">
<title>Node1&#45;&gt;Node7</title>
<g id="a_edge6_Node000001_Node000007"><a xlink:title=" ">
<path fill="none" stroke="#63b8ff" d="M162.3,-164.84C171.63,-156.17 183.58,-145.08 193.19,-136.15"/>
<polygon fill="#63b8ff" stroke="#63b8ff" points="195.66,-138.64 200.61,-129.27 190.9,-133.51 195.66,-138.64"/>
</a>
</g>
</g>
<!-- Node7&#45;&gt;Node2 -->
<g id="edge7_Node000007_Node000002" class="edge">
<title>Node7&#45;&gt;Node2</title>
<g id="a_edge7_Node000007_Node000002"><a xlink:title=" ">
<path fill="none" stroke="#63b8ff" d="M181.61,-109.98C149.37,-100.33 97.01,-84.65 63.83,-74.72"/>
<polygon fill="#63b8ff" stroke="#63b8ff" points="64.78,-71.35 54.2,-71.83 62.77,-78.05 64.78,-71.35"/>
</a>
</g>
</g>
<!-- Node7&#45;&gt;Node3 -->
<g id="edge9_Node000007_Node000003" class="edge">
<title>Node7&#45;&gt;Node3</title>
<g id="a_edge9_Node000007_Node000003"><a xlink:title=" ">
<path fill="none" stroke="#63b8ff" d="M191.89,-109.98C173.8,-101.5 145.76,-88.35 124.86,-78.54"/>
<polygon fill="#63b8ff" stroke="#63b8ff" points="126.07,-75.25 115.53,-74.17 123.1,-81.59 126.07,-75.25"/>
</a>
</g>
</g>
<!-- Node7&#45;&gt;Node4 -->
<g id="edge10_Node000007_Node000004" class="edge">
<title>Node7&#45;&gt;Node4</title>
<g id="a_edge10_Node000007_Node000004"><a xlink:title=" ">
<path fill="none" stroke="#63b8ff" d="M211.49,-109.69C213.14,-96.42 214.25,-71.13 202.05,-55 193.47,-43.66 161.46,-31.03 135.01,-22.14"/>
<polygon fill="#63b8ff" stroke="#63b8ff" points="135.8,-18.71 125.21,-18.92 133.62,-25.36 135.8,-18.71"/>
</a>
</g>
</g>
<!-- Node7&#45;&gt;Node5 -->
<g id="edge11_Node000007_Node000005" class="edge">
<title>Node7&#45;&gt;Node5</title>
<g id="a_edge11_Node000007_Node000005"><a xlink:title=" ">
<path fill="none" stroke="#63b8ff" d="M231.58,-109.98C253.52,-101.3 287.79,-87.75 312.74,-77.88"/>
<polygon fill="#63b8ff" stroke="#63b8ff" points="314.12,-81.1 322.13,-74.17 311.54,-74.59 314.12,-81.1"/>
</a>
</g>
</g>
<!-- Node7&#45;&gt;Node6 -->
<g id="edge12_Node000007_Node000006" class="edge">
<title>Node7&#45;&gt;Node6</title>
<g id="a_edge12_Node000007_Node000006"><a xlink:title=" ">
<path fill="none" stroke="#63b8ff" d="M242.5,-109.98C278.28,-100.6 335.8,-85.51 373.76,-75.55"/>
<polygon fill="#63b8ff" stroke="#63b8ff" points="375.12,-78.81 383.91,-72.88 373.35,-72.04 375.12,-78.81"/>
</a>
</g>
</g>
<!-- Node8 -->
<g id="Node000008" class="node">
<title>Node8</title>
<g id="a_Node000008"><a xlink:title=" ">
<polygon fill="#e0e0e0" stroke="#999999" points="193.55,-74 140.55,-74 140.55,-55 193.55,-55 193.55,-74"/>
<text text-anchor="middle" x="167.05" y="-62" font-family="Helvetica,sans-Serif" font-size="10.00">cstddef</text>
</a>
</g>
</g>
<!-- Node7&#45;&gt;Node8 -->
<g id="edge8_Node000007_Node000008" class="edge">
<title>Node7&#45;&gt;Node8</title>
<g id="a_edge8_Node000007_Node000008"><a xlink:title=" ">
<path fill="none" stroke="#63b8ff" d="M202.95,-109.75C196.87,-102.26 187.96,-91.28 180.54,-82.13"/>
<polygon fill="#63b8ff" stroke="#63b8ff" points="183.03,-79.65 174.02,-74.09 177.6,-84.06 183.03,-79.65"/>
</a>
</g>
</g>
<!-- Node9 -->
<g id="Node000009" class="node">
<title>Node9</title>
<g id="a_Node000009"><a xlink:href="log_8hpp.html" target="_top" xlink:title=" ">
<polygon fill="white" stroke="#666666" points="303.55,-74 250.55,-74 250.55,-55 303.55,-55 303.55,-74"/>
<text text-anchor="middle" x="277.05" y="-62" font-family="Helvetica,sans-Serif" font-size="10.00">log.hpp</text>
</a>
</g>
</g>
<!-- Node7&#45;&gt;Node9 -->
<g id="edge13_Node000007_Node000009" class="edge">
<title>Node7&#45;&gt;Node9</title>
<g id="a_edge13_Node000007_Node000009"><a xlink:title=" ">
<path fill="none" stroke="#63b8ff" d="M220.81,-109.98C230.81,-102.07 245.93,-90.11 257.98,-80.58"/>
<polygon fill="#63b8ff" stroke="#63b8ff" points="260.42,-83.12 266.09,-74.17 256.07,-77.63 260.42,-83.12"/>
</a>
</g>
</g>
<!-- Node9&#45;&gt;Node4 -->
<g id="edge16_Node000009_Node000004" class="edge">
<title>Node9&#45;&gt;Node4</title>
<g id="a_edge16_Node000009_Node000004"><a xlink:title=" ">
<path fill="none" stroke="#63b8ff" d="M250.49,-55.68C219.96,-46.69 169.61,-31.87 134.97,-21.67"/>
<polygon fill="#63b8ff" stroke="#63b8ff" points="135.78,-18.26 125.2,-18.79 133.8,-24.97 135.78,-18.26"/>
</a>
</g>
</g>
<!-- Node10 -->
<g id="Node000010" class="node">
<title>Node10</title>
<g id="a_Node000010"><a xlink:title=" ">
<polygon fill="#e0e0e0" stroke="#999999" points="399.05,-19 349.05,-19 349.05,0 399.05,0 399.05,-19"/>
<text text-anchor="middle" x="374.05" y="-7" font-family="Helvetica,sans-Serif" font-size="10.00">chrono</text>
</a>
</g>
</g>
<!-- Node9&#45;&gt;Node10 -->
<g id="edge14_Node000009_Node000010" class="edge">
<title>Node9&#45;&gt;Node10</title>
<g id="a_edge14_Node000009_Node000010"><a xlink:title=" ">
<path fill="none" stroke="#63b8ff" d="M292.63,-54.98C307.82,-46.69 331.15,-33.94 348.95,-24.22"/>
<polygon fill="#63b8ff" stroke="#63b8ff" points="351.08,-27.04 358.18,-19.17 347.73,-20.89 351.08,-27.04"/>
</a>
</g>
</g>
<!-- Node11 -->
<g id="Node000011" class="node">
<title>Node11</title>
<g id="a_Node000011"><a xlink:title=" ">
<polygon fill="#e0e0e0" stroke="#999999" points="470.55,-19 417.55,-19 417.55,0 470.55,0 470.55,-19"/>
<text text-anchor="middle" x="444.05" y="-7" font-family="Helvetica,sans-Serif" font-size="10.00">cstdarg</text>
</a>
</g>
</g>
<!-- Node9&#45;&gt;Node11 -->
<g id="edge15_Node000009_Node000011" class="edge">
<title>Node9&#45;&gt;Node11</title>
<g id="a_edge15_Node000009_Node000011"><a xlink:title=" ">
<path fill="none" stroke="#63b8ff" d="M303.88,-54.98C332,-46.06 376.36,-31.98 407.63,-22.06"/>
<polygon fill="#63b8ff" stroke="#63b8ff" points="408.81,-25.36 417.28,-18.99 406.69,-18.68 408.81,-25.36"/>
</a>
</g>
</g>
<!-- Node12 -->
<g id="Node000012" class="node">
<title>Node12</title>
<g id="a_Node000012"><a xlink:title=" ">
<polygon fill="#e0e0e0" stroke="#999999" points="203.05,-19 143.05,-19 143.05,0 203.05,0 203.05,-19"/>
<text text-anchor="middle" x="173.05" y="-7" font-family="Helvetica,sans-Serif" font-size="10.00">iostream</text>
</a>
</g>
</g>
<!-- Node9&#45;&gt;Node12 -->
<g id="edge17_Node000009_Node000012" class="edge">
<title>Node9&#45;&gt;Node12</title>
<g id="a_edge17_Node000009_Node000012"><a xlink:title=" ">
<path fill="none" stroke="#63b8ff" d="M260.34,-54.98C243.83,-46.57 218.35,-33.59 199.17,-23.81"/>
<polygon fill="#63b8ff" stroke="#63b8ff" points="200.56,-20.59 190.06,-19.17 197.38,-26.83 200.56,-20.59"/>
</a>
</g>
</g>
<!-- Node13 -->
<g id="Node000013" class="node">
<title>Node13</title>
<g id="a_Node000013"><a xlink:title=" ">
<polygon fill="#e0e0e0" stroke="#999999" points="269.05,-19 221.05,-19 221.05,0 269.05,0 269.05,-19"/>
<text text-anchor="middle" x="245.05" y="-7" font-family="Helvetica,sans-Serif" font-size="10.00">mutex</text>
</a>
</g>
</g>
<!-- Node9&#45;&gt;Node13 -->
<g id="edge18_Node000009_Node000013" class="edge">
<title>Node9&#45;&gt;Node13</title>
<g id="a_edge18_Node000009_Node000013"><a xlink:title=" ">
<path fill="none" stroke="#63b8ff" d="M271.76,-54.75C267.34,-47.42 260.88,-36.73 255.43,-27.7"/>
<polygon fill="#63b8ff" stroke="#63b8ff" points="258.4,-25.84 250.23,-19.09 252.41,-29.46 258.4,-25.84"/>
</a>
</g>
</g>
<!-- Node14 -->
<g id="Node000014" class="node">
<title>Node14</title>
<g id="a_Node000014"><a xlink:title=" ">
<polygon fill="#e0e0e0" stroke="#999999" points="331.05,-19 287.05,-19 287.05,0 331.05,0 331.05,-19"/>
<text text-anchor="middle" x="309.05" y="-7" font-family="Helvetica,sans-Serif" font-size="10.00">string</text>
</a>
</g>
</g>
<!-- Node9&#45;&gt;Node14 -->
<g id="edge19_Node000009_Node000014" class="edge">
<title>Node9&#45;&gt;Node14</title>
<g id="a_edge19_Node000009_Node000014"><a xlink:title=" ">
<path fill="none" stroke="#63b8ff" d="M282.33,-54.75C286.76,-47.42 293.21,-36.73 298.67,-27.7"/>
<polygon fill="#63b8ff" stroke="#63b8ff" points="301.69,-29.46 303.86,-19.09 295.7,-25.84 301.69,-29.46"/>
</a>
</g>
</g>
</g>
</svg>
</svg>

<style type='text/css'>
<![CDATA[
[data-mouse-over-selected='false'] { opacity: 0.7; }
[data-mouse-over-selected='true']  { opacity: 1.0; }
]]>
</style>
<script type="application/ecmascript"><![CDATA[
document.addEventListener('DOMContentLoaded', (event) => {
  highlightEdges();
  highlightAdjacentNodes();
});
]]></script>
</svg>
