<?xml version="1.0" encoding="UTF-8" standalone="no"?>
<!DOCTYPE svg PUBLIC "-//W3C//DTD SVG 1.1//EN"
 "http://www.w3.org/Graphics/SVG/1.1/DTD/svg11.dtd">
<!-- Generated by graphviz version 2.43.0 (0)
 -->
<!-- Title: src/libuvgvpccenc/utils/constants.hpp Pages: 1 -->
<svg width="2527pt" height="170pt"
 viewBox="0.00 0.00 2526.50 170.00" xmlns="http://www.w3.org/2000/svg" xmlns:xlink="http://www.w3.org/1999/xlink">
<g id="graph0" class="graph" transform="scale(1 1) rotate(0) translate(4 166)">
<title>src/libuvgvpccenc/utils/constants.hpp</title>
<!-- Node1 -->
<g id="Node000001" class="node">
<title>Node1</title>
<g id="a_Node000001"><a xlink:title=" ">
<polygon fill="#999999" stroke="#666666" points="900,-162 772,-162 772,-132 900,-132 900,-162"/>
<text text-anchor="start" x="780" y="-150" font-family="Helvetica,sans-Serif" font-size="10.00">src/libuvgvpccenc/utils</text>
<text text-anchor="middle" x="836" y="-139" font-family="Helvetica,sans-Serif" font-size="10.00">/constants.hpp</text>
</a>
</g>
</g>
<!-- Node2 -->
<g id="Node000002" class="node">
<title>Node2</title>
<g id="a_Node000002"><a xlink:href="kdTree_8hpp.html" target="_top" xlink:title=" ">
<polygon fill="white" stroke="#666666" points="394,-96 206,-96 206,-66 394,-66 394,-96"/>
<text text-anchor="start" x="214" y="-84" font-family="Helvetica,sans-Serif" font-size="10.00">src/libuvgvpccenc/patchGeneration</text>
<text text-anchor="middle" x="300" y="-73" font-family="Helvetica,sans-Serif" font-size="10.00">/kdTree.hpp</text>
</a>
</g>
</g>
<!-- Node1&#45;&gt;Node2 -->
<g id="edge1_Node000001_Node000002" class="edge">
<title>Node1&#45;&gt;Node2</title>
<g id="a_edge1_Node000001_Node000002"><a xlink:title=" ">
<path fill="none" stroke="#63b8ff" d="M761.69,-137.13C665.86,-125.68 499.1,-105.77 394.39,-93.27"/>
<polygon fill="#63b8ff" stroke="#63b8ff" points="761.53,-140.63 771.88,-138.34 762.36,-133.68 761.53,-140.63"/>
</a>
</g>
</g>
<!-- Node5 -->
<g id="Node000005" class="node">
<title>Node5</title>
<g id="a_Node000005"><a xlink:href="patchSegmentation_8cpp.html" target="_top" xlink:title=" ">
<polygon fill="white" stroke="#666666" points="1198,-30 1010,-30 1010,0 1198,0 1198,-30"/>
<text text-anchor="start" x="1018" y="-18" font-family="Helvetica,sans-Serif" font-size="10.00">src/libuvgvpccenc/patchGeneration</text>
<text text-anchor="middle" x="1104" y="-7" font-family="Helvetica,sans-Serif" font-size="10.00">/patchSegmentation.cpp</text>
</a>
</g>
</g>
<!-- Node1&#45;&gt;Node5 -->
<g id="edge4_Node000001_Node000005" class="edge">
<title>Node1&#45;&gt;Node5</title>
<g id="a_edge4_Node000001_Node000005"><a xlink:title=" ">
<path fill="none" stroke="#63b8ff" d="M910.18,-131.78C941.81,-123.92 978.39,-112.35 1009,-96 1041.9,-78.42 1073.72,-48.07 1090.89,-30.23"/>
<polygon fill="#63b8ff" stroke="#63b8ff" points="909.01,-128.47 900.1,-134.21 910.64,-135.27 909.01,-128.47"/>
</a>
</g>
</g>
<!-- Node6 -->
<g id="Node000006" class="node">
<title>Node6</title>
<g id="a_Node000006"><a xlink:href="ppiSegmenter_8cpp.html" target="_top" xlink:title=" ">
<polygon fill="white" stroke="#666666" points="806,-30 618,-30 618,0 806,0 806,-30"/>
<text text-anchor="start" x="626" y="-18" font-family="Helvetica,sans-Serif" font-size="10.00">src/libuvgvpccenc/patchGeneration</text>
<text text-anchor="middle" x="712" y="-7" font-family="Helvetica,sans-Serif" font-size="10.00">/ppiSegmenter.cpp</text>
</a>
</g>
</g>
<!-- Node1&#45;&gt;Node6 -->
<g id="edge5_Node000001_Node000006" class="edge">
<title>Node1&#45;&gt;Node6</title>
<g id="a_edge5_Node000001_Node000006"><a xlink:title=" ">
<path fill="none" stroke="#63b8ff" d="M815.49,-124.49C789.99,-97.76 747.19,-52.89 725.49,-30.14"/>
<polygon fill="#63b8ff" stroke="#63b8ff" points="813.06,-127.02 822.49,-131.84 818.12,-122.19 813.06,-127.02"/>
</a>
</g>
</g>
<!-- Node7 -->
<g id="Node000007" class="node">
<title>Node7</title>
<g id="a_Node000007"><a xlink:href="ppiSegmenter_8hpp.html" target="_top" xlink:title=" ">
<polygon fill="white" stroke="#666666" points="729,-96 541,-96 541,-66 729,-66 729,-96"/>
<text text-anchor="start" x="549" y="-84" font-family="Helvetica,sans-Serif" font-size="10.00">src/libuvgvpccenc/patchGeneration</text>
<text text-anchor="middle" x="635" y="-73" font-family="Helvetica,sans-Serif" font-size="10.00">/ppiSegmenter.hpp</text>
</a>
</g>
</g>
<!-- Node1&#45;&gt;Node7 -->
<g id="edge6_Node000001_Node000007" class="edge">
<title>Node1&#45;&gt;Node7</title>
<g id="a_edge6_Node000001_Node000007"><a xlink:title=" ">
<path fill="none" stroke="#63b8ff" d="M782.16,-128.86C749.88,-118.58 709.36,-105.68 679.01,-96.01"/>
<polygon fill="#63b8ff" stroke="#63b8ff" points="781.3,-132.26 791.89,-131.95 783.42,-125.59 781.3,-132.26"/>
</a>
</g>
</g>
<!-- Node8 -->
<g id="Node000008" class="node">
<title>Node8</title>
<g id="a_Node000008"><a xlink:href="slicingComputation_8cpp.html" target="_top" xlink:title=" ">
<polygon fill="white" stroke="#666666" points="600,-30 412,-30 412,0 600,0 600,-30"/>
<text text-anchor="start" x="420" y="-18" font-family="Helvetica,sans-Serif" font-size="10.00">src/libuvgvpccenc/patchGeneration</text>
<text text-anchor="middle" x="506" y="-7" font-family="Helvetica,sans-Serif" font-size="10.00">/slicingComputation.cpp</text>
</a>
</g>
</g>
<!-- Node1&#45;&gt;Node8 -->
<g id="edge10_Node000001_Node000008" class="edge">
<title>Node1&#45;&gt;Node8</title>
<g id="a_edge10_Node000001_Node000008"><a xlink:title=" ">
<path fill="none" stroke="#63b8ff" d="M761.57,-142.49C682.88,-137.3 565.58,-124.85 532,-96 512.73,-79.44 507.64,-48.43 506.36,-30.27"/>
<polygon fill="#63b8ff" stroke="#63b8ff" points="761.72,-146.01 771.92,-143.15 762.16,-139.02 761.72,-146.01"/>
</a>
</g>
</g>
<!-- Node9 -->
<g id="Node000009" class="node">
<title>Node9</title>
<g id="a_Node000009"><a xlink:href="utilsPatchGeneration_8hpp.html" target="_top" xlink:title=" ">
<polygon fill="white" stroke="#666666" points="1000,-96 812,-96 812,-66 1000,-66 1000,-96"/>
<text text-anchor="start" x="820" y="-84" font-family="Helvetica,sans-Serif" font-size="10.00">src/libuvgvpccenc/patchGeneration</text>
<text text-anchor="middle" x="906" y="-73" font-family="Helvetica,sans-Serif" font-size="10.00">/utilsPatchGeneration.hpp</text>
</a>
</g>
</g>
<!-- Node1&#45;&gt;Node9 -->
<g id="edge11_Node000001_Node000009" class="edge">
<title>Node1&#45;&gt;Node9</title>
<g id="a_edge11_Node000001_Node000009"><a xlink:title=" ">
<path fill="none" stroke="#63b8ff" d="M859.05,-124.92C869.37,-115.49 881.27,-104.61 890.51,-96.16"/>
<polygon fill="#63b8ff" stroke="#63b8ff" points="856.55,-122.47 851.54,-131.8 861.28,-127.63 856.55,-122.47"/>
</a>
</g>
</g>
<!-- Node12 -->
<g id="Node000012" class="node">
<title>Node12</title>
<g id="a_Node000012"><a xlink:href="patchPacking_8cpp.html" target="_top" xlink:title=" ">
<polygon fill="white" stroke="#666666" points="1563.5,-96 1392.5,-96 1392.5,-66 1563.5,-66 1563.5,-96"/>
<text text-anchor="start" x="1400.5" y="-84" font-family="Helvetica,sans-Serif" font-size="10.00">src/libuvgvpccenc/patchPacking</text>
<text text-anchor="middle" x="1478" y="-73" font-family="Helvetica,sans-Serif" font-size="10.00">/patchPacking.cpp</text>
</a>
</g>
</g>
<!-- Node1&#45;&gt;Node12 -->
<g id="edge17_Node000001_Node000012" class="edge">
<title>Node1&#45;&gt;Node12</title>
<g id="a_edge17_Node000001_Node000012"><a xlink:title=" ">
<path fill="none" stroke="#63b8ff" d="M910.33,-140.51C1015.68,-132.44 1214.39,-116.12 1383,-96 1386.06,-95.63 1389.18,-95.25 1392.32,-94.85"/>
<polygon fill="#63b8ff" stroke="#63b8ff" points="909.83,-137.04 900.12,-141.29 910.36,-144.02 909.83,-137.04"/>
</a>
</g>
</g>
<!-- Node13 -->
<g id="Node000013" class="node">
<title>Node13</title>
<g id="a_Node000013"><a xlink:href="fileExport_8hpp.html" target="_top" xlink:title=" ">
<polygon fill="white" stroke="#666666" points="1374,-96 1246,-96 1246,-66 1374,-66 1374,-96"/>
<text text-anchor="start" x="1254" y="-84" font-family="Helvetica,sans-Serif" font-size="10.00">src/libuvgvpccenc/utils</text>
<text text-anchor="middle" x="1310" y="-73" font-family="Helvetica,sans-Serif" font-size="10.00">/fileExport.hpp</text>
</a>
</g>
</g>
<!-- Node1&#45;&gt;Node13 -->
<g id="edge18_Node000001_Node000013" class="edge">
<title>Node1&#45;&gt;Node13</title>
<g id="a_edge18_Node000001_Node000013"><a xlink:title=" ">
<path fill="none" stroke="#63b8ff" d="M910.52,-135.94C1002.8,-123.48 1158.45,-102.46 1245.72,-90.68"/>
<polygon fill="#63b8ff" stroke="#63b8ff" points="909.86,-132.5 900.42,-137.3 910.8,-139.43 909.86,-132.5"/>
</a>
</g>
</g>
<!-- Node3 -->
<g id="Node000003" class="node">
<title>Node3</title>
<g id="a_Node000003"><a xlink:href="kdTree_8cpp.html" target="_top" xlink:title=" ">
<polygon fill="white" stroke="#666666" points="188,-30 0,-30 0,0 188,0 188,-30"/>
<text text-anchor="start" x="8" y="-18" font-family="Helvetica,sans-Serif" font-size="10.00">src/libuvgvpccenc/patchGeneration</text>
<text text-anchor="middle" x="94" y="-7" font-family="Helvetica,sans-Serif" font-size="10.00">/kdTree.cpp</text>
</a>
</g>
</g>
<!-- Node2&#45;&gt;Node3 -->
<g id="edge2_Node000002_Node000003" class="edge">
<title>Node2&#45;&gt;Node3</title>
<g id="a_edge2_Node000002_Node000003"><a xlink:title=" ">
<path fill="none" stroke="#63b8ff" d="M244.82,-62.86C211.74,-52.58 170.21,-39.68 139.1,-30.01"/>
<polygon fill="#63b8ff" stroke="#63b8ff" points="244.2,-66.33 254.79,-65.95 246.28,-59.65 244.2,-66.33"/>
</a>
</g>
</g>
<!-- Node4 -->
<g id="Node000004" class="node">
<title>Node4</title>
<g id="a_Node000004"><a xlink:href="patchGeneration_8cpp.html" target="_top" xlink:title=" ">
<polygon fill="white" stroke="#666666" points="394,-30 206,-30 206,0 394,0 394,-30"/>
<text text-anchor="start" x="214" y="-18" font-family="Helvetica,sans-Serif" font-size="10.00">src/libuvgvpccenc/patchGeneration</text>
<text text-anchor="middle" x="300" y="-7" font-family="Helvetica,sans-Serif" font-size="10.00">/patchGeneration.cpp</text>
</a>
</g>
</g>
<!-- Node2&#45;&gt;Node4 -->
<g id="edge3_Node000002_Node000004" class="edge">
<title>Node2&#45;&gt;Node4</title>
<g id="a_edge3_Node000002_Node000004"><a xlink:title=" ">
<path fill="none" stroke="#63b8ff" d="M300,-55.54C300,-46.96 300,-37.61 300,-30.16"/>
<polygon fill="#63b8ff" stroke="#63b8ff" points="296.5,-55.8 300,-65.8 303.5,-55.8 296.5,-55.8"/>
</a>
</g>
</g>
<!-- Node7&#45;&gt;Node4 -->
<g id="edge7_Node000007_Node000004" class="edge">
<title>Node7&#45;&gt;Node4</title>
<g id="a_edge7_Node000007_Node000004"><a xlink:title=" ">
<path fill="none" stroke="#63b8ff" d="M551.46,-64.04C496.74,-53.59 425.89,-40.05 373.35,-30.01"/>
<polygon fill="#63b8ff" stroke="#63b8ff" points="551,-67.52 561.48,-65.95 552.32,-60.64 551,-67.52"/>
</a>
</g>
</g>
<!-- Node7&#45;&gt;Node6 -->
<g id="edge8_Node000007_Node000006" class="edge">
<title>Node7&#45;&gt;Node6</title>
<g id="a_edge8_Node000007_Node000006"><a xlink:title=" ">
<path fill="none" stroke="#63b8ff" d="M660.02,-59.2C671.45,-49.7 684.7,-38.69 694.96,-30.16"/>
<polygon fill="#63b8ff" stroke="#63b8ff" points="657.54,-56.71 652.09,-65.8 662.02,-62.1 657.54,-56.71"/>
</a>
</g>
</g>
<!-- Node7&#45;&gt;Node8 -->
<g id="edge9_Node000007_Node000008" class="edge">
<title>Node7&#45;&gt;Node8</title>
<g id="a_edge9_Node000007_Node000008"><a xlink:title=" ">
<path fill="none" stroke="#63b8ff" d="M597.46,-61.38C577.28,-51.36 552.8,-39.22 534.24,-30.01"/>
<polygon fill="#63b8ff" stroke="#63b8ff" points="596.18,-64.65 606.69,-65.95 599.29,-58.38 596.18,-64.65"/>
</a>
</g>
</g>
<!-- Node9&#45;&gt;Node4 -->
<g id="edge13_Node000009_Node000004" class="edge">
<title>Node9&#45;&gt;Node4</title>
<g id="a_edge13_Node000009_Node000004"><a xlink:title=" ">
<path fill="none" stroke="#63b8ff" d="M801.82,-70.75C700.01,-61.45 540.7,-46.2 403,-30 400.04,-29.65 397.04,-29.29 394.01,-28.92"/>
<polygon fill="#63b8ff" stroke="#63b8ff" points="801.52,-74.23 811.79,-71.66 802.15,-67.26 801.52,-74.23"/>
</a>
</g>
</g>
<!-- Node9&#45;&gt;Node5 -->
<g id="edge14_Node000009_Node000005" class="edge">
<title>Node9&#45;&gt;Node5</title>
<g id="a_edge14_Node000009_Node000005"><a xlink:title=" ">
<path fill="none" stroke="#63b8ff" d="M959.04,-62.86C990.83,-52.58 1030.75,-39.68 1060.65,-30.01"/>
<polygon fill="#63b8ff" stroke="#63b8ff" points="957.89,-59.55 949.45,-65.95 960.04,-66.21 957.89,-59.55"/>
</a>
</g>
</g>
<!-- Node9&#45;&gt;Node6 -->
<g id="edge15_Node000009_Node000006" class="edge">
<title>Node9&#45;&gt;Node6</title>
<g id="a_edge15_Node000009_Node000006"><a xlink:title=" ">
<path fill="none" stroke="#63b8ff" d="M853.63,-62.72C822.54,-52.47 783.64,-39.63 754.47,-30.01"/>
<polygon fill="#63b8ff" stroke="#63b8ff" points="852.83,-66.15 863.43,-65.95 855.03,-59.5 852.83,-66.15"/>
</a>
</g>
</g>
<!-- Node10 -->
<g id="Node000010" class="node">
<title>Node10</title>
<g id="a_Node000010"><a xlink:href="normalOrientation_8cpp.html" target="_top" xlink:title=" ">
<polygon fill="white" stroke="#666666" points="1404,-30 1216,-30 1216,0 1404,0 1404,-30"/>
<text text-anchor="start" x="1224" y="-18" font-family="Helvetica,sans-Serif" font-size="10.00">src/libuvgvpccenc/patchGeneration</text>
<text text-anchor="middle" x="1310" y="-7" font-family="Helvetica,sans-Serif" font-size="10.00">/normalOrientation.cpp</text>
</a>
</g>
</g>
<!-- Node9&#45;&gt;Node10 -->
<g id="edge12_Node000009_Node000010" class="edge">
<title>Node9&#45;&gt;Node10</title>
<g id="a_edge12_Node000009_Node000010"><a xlink:title=" ">
<path fill="none" stroke="#63b8ff" d="M1004.7,-64.36C1070.97,-53.87 1157.53,-40.15 1221.55,-30.01"/>
<polygon fill="#63b8ff" stroke="#63b8ff" points="1003.99,-60.93 994.66,-65.95 1005.08,-67.85 1003.99,-60.93"/>
</a>
</g>
</g>
<!-- Node11 -->
<g id="Node000011" class="node">
<title>Node11</title>
<g id="a_Node000011"><a xlink:href="uvgvpcc_8cpp.html" target="_top" xlink:title=" ">
<polygon fill="white" stroke="#666666" points="991.5,-24.5 824.5,-24.5 824.5,-5.5 991.5,-5.5 991.5,-24.5"/>
<text text-anchor="middle" x="908" y="-12.5" font-family="Helvetica,sans-Serif" font-size="10.00">src/libuvgvpccenc/uvgvpcc.cpp</text>
</a>
</g>
</g>
<!-- Node9&#45;&gt;Node11 -->
<g id="edge16_Node000009_Node000011" class="edge">
<title>Node9&#45;&gt;Node11</title>
<g id="a_edge16_Node000009_Node000011"><a xlink:title=" ">
<path fill="none" stroke="#63b8ff" d="M906.76,-55.6C907.1,-44.8 907.48,-32.78 907.72,-24.84"/>
<polygon fill="#63b8ff" stroke="#63b8ff" points="903.26,-55.69 906.44,-65.8 910.25,-55.91 903.26,-55.69"/>
</a>
</g>
</g>
<!-- Node13&#45;&gt;Node5 -->
<g id="edge25_Node000013_Node000005" class="edge">
<title>Node13&#45;&gt;Node5</title>
<g id="a_edge25_Node000013_Node000005"><a xlink:title=" ">
<path fill="none" stroke="#63b8ff" d="M1254.82,-62.86C1221.74,-52.58 1180.21,-39.68 1149.1,-30.01"/>
<polygon fill="#63b8ff" stroke="#63b8ff" points="1254.2,-66.33 1264.79,-65.95 1256.28,-59.65 1254.2,-66.33"/>
</a>
</g>
</g>
<!-- Node13&#45;&gt;Node6 -->
<g id="edge26_Node000013_Node000006" class="edge">
<title>Node13&#45;&gt;Node6</title>
<g id="a_edge26_Node000013_Node000006"><a xlink:title=" ">
<path fill="none" stroke="#63b8ff" d="M1235.86,-73.31C1138.98,-64.39 964.12,-47.66 815,-30 812.04,-29.65 809.04,-29.29 806.01,-28.91"/>
<polygon fill="#63b8ff" stroke="#63b8ff" points="1235.57,-76.8 1245.85,-74.23 1236.21,-69.83 1235.57,-76.8"/>
</a>
</g>
</g>
<!-- Node13&#45;&gt;Node8 -->
<g id="edge27_Node000013_Node000008" class="edge">
<title>Node13&#45;&gt;Node8</title>
<g id="a_edge27_Node000013_Node000008"><a xlink:title=" ">
<path fill="none" stroke="#63b8ff" d="M1235.51,-76.25C1107.31,-69.46 836.76,-53.58 609,-30 606.13,-29.7 603.21,-29.39 600.27,-29.06"/>
<polygon fill="#63b8ff" stroke="#63b8ff" points="1235.44,-79.76 1245.61,-76.79 1235.81,-72.76 1235.44,-79.76"/>
</a>
</g>
</g>
<!-- Node13&#45;&gt;Node10 -->
<g id="edge24_Node000013_Node000010" class="edge">
<title>Node13&#45;&gt;Node10</title>
<g id="a_edge24_Node000013_Node000010"><a xlink:title=" ">
<path fill="none" stroke="#63b8ff" d="M1310,-55.54C1310,-46.96 1310,-37.61 1310,-30.16"/>
<polygon fill="#63b8ff" stroke="#63b8ff" points="1306.5,-55.8 1310,-65.8 1313.5,-55.8 1306.5,-55.8"/>
</a>
</g>
</g>
<!-- Node13&#45;&gt;Node11 -->
<g id="edge29_Node000013_Node000011" class="edge">
<title>Node13&#45;&gt;Node11</title>
<g id="a_edge29_Node000013_Node000011"><a xlink:title=" ">
<path fill="none" stroke="#63b8ff" d="M1235.91,-68.21C1156.44,-55.55 1032.16,-35.77 961.62,-24.54"/>
<polygon fill="#63b8ff" stroke="#63b8ff" points="1235.43,-71.67 1245.86,-69.79 1236.53,-64.76 1235.43,-71.67"/>
</a>
</g>
</g>
<!-- Node14 -->
<g id="Node000014" class="node">
<title>Node14</title>
<g id="a_Node000014"><a xlink:href="bitstream__util_8cpp.html" target="_top" xlink:title=" ">
<polygon fill="white" stroke="#666666" points="2136,-30 1974,-30 1974,0 2136,0 2136,-30"/>
<text text-anchor="start" x="1982" y="-18" font-family="Helvetica,sans-Serif" font-size="10.00">src/libuvgvpccenc/bitstream</text>
<text text-anchor="middle" x="2055" y="-7" font-family="Helvetica,sans-Serif" font-size="10.00">Generation/bitstream_util.cpp</text>
</a>
</g>
</g>
<!-- Node13&#45;&gt;Node14 -->
<g id="edge19_Node000013_Node000014" class="edge">
<title>Node13&#45;&gt;Node14</title>
<g id="a_edge19_Node000013_Node000014"><a xlink:title=" ">
<path fill="none" stroke="#63b8ff" d="M1384.16,-66.12C1642.45,-34.49 1711.06,-57.56 1965,-30 1967.83,-29.69 1970.71,-29.36 1973.61,-29.01"/>
<polygon fill="#63b8ff" stroke="#63b8ff" points="1383.59,-62.66 1374.1,-67.37 1384.45,-69.61 1383.59,-62.66"/>
</a>
</g>
</g>
<!-- Node15 -->
<g id="Node000015" class="node">
<title>Node15</title>
<g id="a_Node000015"><a xlink:href="encoderFFmpeg_8cpp.html" target="_top" xlink:title=" ">
<polygon fill="white" stroke="#666666" points="2327.5,-30 2154.5,-30 2154.5,0 2327.5,0 2327.5,-30"/>
<text text-anchor="start" x="2162.5" y="-18" font-family="Helvetica,sans-Serif" font-size="10.00">src/libuvgvpccenc/mapEncoding</text>
<text text-anchor="middle" x="2241" y="-7" font-family="Helvetica,sans-Serif" font-size="10.00">/encoderFFmpeg.cpp</text>
</a>
</g>
</g>
<!-- Node13&#45;&gt;Node15 -->
<g id="edge20_Node000013_Node000015" class="edge">
<title>Node13&#45;&gt;Node15</title>
<g id="a_edge20_Node000013_Node000015"><a xlink:title=" ">
<path fill="none" stroke="#63b8ff" d="M1384.16,-66.13C1722.02,-27.13 1811.25,-62.15 2145,-30 2148.1,-29.7 2151.26,-29.37 2154.44,-29.02"/>
<polygon fill="#63b8ff" stroke="#63b8ff" points="1383.62,-62.67 1374.09,-67.31 1384.43,-69.62 1383.62,-62.67"/>
</a>
</g>
</g>
<!-- Node16 -->
<g id="Node000016" class="node">
<title>Node16</title>
<g id="a_Node000016"><a xlink:href="encoderKvazaar_8cpp.html" target="_top" xlink:title=" ">
<polygon fill="white" stroke="#666666" points="2518.5,-30 2345.5,-30 2345.5,0 2518.5,0 2518.5,-30"/>
<text text-anchor="start" x="2353.5" y="-18" font-family="Helvetica,sans-Serif" font-size="10.00">src/libuvgvpccenc/mapEncoding</text>
<text text-anchor="middle" x="2432" y="-7" font-family="Helvetica,sans-Serif" font-size="10.00">/encoderKvazaar.cpp</text>
</a>
</g>
</g>
<!-- Node13&#45;&gt;Node16 -->
<g id="edge21_Node000013_Node000016" class="edge">
<title>Node13&#45;&gt;Node16</title>
<g id="a_edge21_Node000013_Node000016"><a xlink:title=" ">
<path fill="none" stroke="#63b8ff" d="M1384.13,-66.14C1806.92,-19.26 1918.23,-68.65 2337,-30 2339.74,-29.75 2342.52,-29.47 2345.33,-29.17"/>
<polygon fill="#63b8ff" stroke="#63b8ff" points="1383.63,-62.68 1374.09,-67.27 1384.41,-69.63 1383.63,-62.68"/>
</a>
</g>
</g>
<!-- Node17 -->
<g id="Node000017" class="node">
<title>Node17</title>
<g id="a_Node000017"><a xlink:href="mapGeneration_8cpp.html" target="_top" xlink:title=" ">
<polygon fill="white" stroke="#666666" points="1604,-30 1422,-30 1422,0 1604,0 1604,-30"/>
<text text-anchor="start" x="1430" y="-18" font-family="Helvetica,sans-Serif" font-size="10.00">src/libuvgvpccenc/mapGeneration</text>
<text text-anchor="middle" x="1513" y="-7" font-family="Helvetica,sans-Serif" font-size="10.00">/mapGeneration.cpp</text>
</a>
</g>
</g>
<!-- Node13&#45;&gt;Node17 -->
<g id="edge22_Node000013_Node000017" class="edge">
<title>Node13&#45;&gt;Node17</title>
<g id="a_edge22_Node000013_Node000017"><a xlink:title=" ">
<path fill="none" stroke="#63b8ff" d="M1364.38,-62.86C1396.97,-52.58 1437.9,-39.68 1468.55,-30.01"/>
<polygon fill="#63b8ff" stroke="#63b8ff" points="1363.03,-59.61 1354.55,-65.95 1365.14,-66.29 1363.03,-59.61"/>
</a>
</g>
</g>
<!-- Node18 -->
<g id="Node000018" class="node">
<title>Node18</title>
<g id="a_Node000018"><a xlink:href="normalComputation_8cpp.html" target="_top" xlink:title=" ">
<polygon fill="white" stroke="#666666" points="1810,-30 1622,-30 1622,0 1810,0 1810,-30"/>
<text text-anchor="start" x="1630" y="-18" font-family="Helvetica,sans-Serif" font-size="10.00">src/libuvgvpccenc/patchGeneration</text>
<text text-anchor="middle" x="1716" y="-7" font-family="Helvetica,sans-Serif" font-size="10.00">/normalComputation.cpp</text>
</a>
</g>
</g>
<!-- Node13&#45;&gt;Node18 -->
<g id="edge23_Node000013_Node000018" class="edge">
<title>Node13&#45;&gt;Node18</title>
<g id="a_edge23_Node000013_Node000018"><a xlink:title=" ">
<path fill="none" stroke="#63b8ff" d="M1384.16,-66.02C1470.76,-51.41 1557.69,-38.45 1621.76,-29.23"/>
<polygon fill="#63b8ff" stroke="#63b8ff" points="1383.42,-62.59 1374.15,-67.71 1384.59,-69.49 1383.42,-62.59"/>
</a>
</g>
</g>
<!-- Node19 -->
<g id="Node000019" class="node">
<title>Node19</title>
<g id="a_Node000019"><a xlink:href="fileExport_8cpp.html" target="_top" xlink:title=" ">
<polygon fill="white" stroke="#666666" points="1956,-30 1828,-30 1828,0 1956,0 1956,-30"/>
<text text-anchor="start" x="1836" y="-18" font-family="Helvetica,sans-Serif" font-size="10.00">src/libuvgvpccenc/utils</text>
<text text-anchor="middle" x="1892" y="-7" font-family="Helvetica,sans-Serif" font-size="10.00">/fileExport.cpp</text>
</a>
</g>
</g>
<!-- Node13&#45;&gt;Node19 -->
<g id="edge28_Node000013_Node000019" class="edge">
<title>Node13&#45;&gt;Node19</title>
<g id="a_edge28_Node000013_Node000019"><a xlink:title=" ">
<path fill="none" stroke="#63b8ff" d="M1384.05,-66.11C1577.95,-40.47 1629.99,-55.87 1819,-30 1821.94,-29.6 1824.94,-29.15 1827.97,-28.68"/>
<polygon fill="#63b8ff" stroke="#63b8ff" points="1383.55,-62.65 1374.11,-67.45 1384.49,-69.59 1383.55,-62.65"/>
</a>
</g>
</g>
</g>
</svg>
