<?xml version="1.0" encoding="UTF-8" standalone="no"?>
<!DOCTYPE svg PUBLIC "-//W3C//DTD SVG 1.1//EN"
 "http://www.w3.org/Graphics/SVG/1.1/DTD/svg11.dtd">
<!-- Generated by graphviz version 2.43.0 (0)
 -->
<!-- Title: src/libuvgvpccenc/utils/constants.hpp Pages: 1 -->
<svg width="492pt" height="203pt"
 viewBox="0.00 0.00 492.15 203.00" xmlns="http://www.w3.org/2000/svg" xmlns:xlink="http://www.w3.org/1999/xlink">
<g id="graph0" class="graph" transform="scale(1 1) rotate(0) translate(4 199)">
<title>src/libuvgvpccenc/utils/constants.hpp</title>
<!-- Node1 -->
<g id="Node000001" class="node">
<title>Node1</title>
<g id="a_Node000001"><a xlink:title=" ">
<polygon fill="#999999" stroke="#666666" points="207.15,-195 79.15,-195 79.15,-165 207.15,-165 207.15,-195"/>
<text text-anchor="start" x="87.15" y="-183" font-family="Helvetica,sans-Serif" font-size="10.00">src/libuvgvpccenc/utils</text>
<text text-anchor="middle" x="143.15" y="-172" font-family="Helvetica,sans-Serif" font-size="10.00">/constants.hpp</text>
</a>
</g>
</g>
<!-- Node2 -->
<g id="Node000002" class="node">
<title>Node2</title>
<g id="a_Node000002"><a xlink:title=" ">
<polygon fill="#e0e0e0" stroke="#999999" points="54.15,-74 12.15,-74 12.15,-55 54.15,-55 54.15,-74"/>
<text text-anchor="middle" x="33.15" y="-62" font-family="Helvetica,sans-Serif" font-size="10.00">array</text>
</a>
</g>
</g>
<!-- Node1&#45;&gt;Node2 -->
<g id="edge1_Node000001_Node000002" class="edge">
<title>Node1&#45;&gt;Node2</title>
<g id="a_edge1_Node000001_Node000002"><a xlink:title=" ">
<path fill="none" stroke="#63b8ff" d="M129.22,-164.63C108.62,-143.37 70.18,-103.71 48.69,-81.54"/>
<polygon fill="#63b8ff" stroke="#63b8ff" points="51.08,-78.97 41.61,-74.23 46.06,-83.85 51.08,-78.97"/>
</a>
</g>
</g>
<!-- Node3 -->
<g id="Node000003" class="node">
<title>Node3</title>
<g id="a_Node000003"><a xlink:title=" ">
<polygon fill="#e0e0e0" stroke="#999999" points="125.65,-74 72.65,-74 72.65,-55 125.65,-55 125.65,-74"/>
<text text-anchor="middle" x="99.15" y="-62" font-family="Helvetica,sans-Serif" font-size="10.00">cstddef</text>
</a>
</g>
</g>
<!-- Node1&#45;&gt;Node3 -->
<g id="edge2_Node000001_Node000003" class="edge">
<title>Node1&#45;&gt;Node3</title>
<g id="a_edge2_Node000001_Node000003"><a xlink:title=" ">
<path fill="none" stroke="#63b8ff" d="M137.58,-164.63C129.59,-144.03 114.9,-106.12 106.18,-83.63"/>
<polygon fill="#63b8ff" stroke="#63b8ff" points="109.41,-82.29 102.53,-74.23 102.89,-84.82 109.41,-82.29"/>
</a>
</g>
</g>
<!-- Node4 -->
<g id="Node000004" class="node">
<title>Node4</title>
<g id="a_Node000004"><a xlink:title=" ">
<polygon fill="#e0e0e0" stroke="#999999" points="194.15,-74 144.15,-74 144.15,-55 194.15,-55 194.15,-74"/>
<text text-anchor="middle" x="169.15" y="-62" font-family="Helvetica,sans-Serif" font-size="10.00">cstdint</text>
</a>
</g>
</g>
<!-- Node1&#45;&gt;Node4 -->
<g id="edge3_Node000001_Node000004" class="edge">
<title>Node1&#45;&gt;Node4</title>
<g id="a_edge3_Node000001_Node000004"><a xlink:title=" ">
<path fill="none" stroke="#63b8ff" d="M146.44,-164.63C151.12,-144.21 159.69,-106.81 164.86,-84.24"/>
<polygon fill="#63b8ff" stroke="#63b8ff" points="168.33,-84.76 167.15,-74.23 161.51,-83.2 168.33,-84.76"/>
</a>
</g>
</g>
<!-- Node5 -->
<g id="Node000005" class="node">
<title>Node5</title>
<g id="a_Node000005"><a xlink:title=" ">
<polygon fill="#e0e0e0" stroke="#999999" points="138.15,-19 82.15,-19 82.15,0 138.15,0 138.15,-19"/>
<text text-anchor="middle" x="110.15" y="-7" font-family="Helvetica,sans-Serif" font-size="10.00">iomanip</text>
</a>
</g>
</g>
<!-- Node1&#45;&gt;Node5 -->
<g id="edge4_Node000001_Node000005" class="edge">
<title>Node1&#45;&gt;Node5</title>
<g id="a_edge4_Node000001_Node000005"><a xlink:title=" ">
<path fill="none" stroke="#63b8ff" d="M109.52,-164.92C75.55,-148.63 25.03,-118.26 3.15,-74 -12.47,-42.41 35.28,-25.29 71.98,-17.03"/>
<polygon fill="#63b8ff" stroke="#63b8ff" points="72.9,-20.41 81.97,-14.93 71.46,-13.56 72.9,-20.41"/>
</a>
</g>
</g>
<!-- Node6 -->
<g id="Node000006" class="node">
<title>Node6</title>
<g id="a_Node000006"><a xlink:title=" ">
<polygon fill="#e0e0e0" stroke="#999999" points="366.15,-74 322.15,-74 322.15,-55 366.15,-55 366.15,-74"/>
<text text-anchor="middle" x="344.15" y="-62" font-family="Helvetica,sans-Serif" font-size="10.00">limits</text>
</a>
</g>
</g>
<!-- Node1&#45;&gt;Node6 -->
<g id="edge5_Node000001_Node000006" class="edge">
<title>Node1&#45;&gt;Node6</title>
<g id="a_edge5_Node000001_Node000006"><a xlink:title=" ">
<path fill="none" stroke="#63b8ff" d="M198.8,-164.98C225.04,-156.87 256.03,-145.05 281.15,-129 301.09,-116.26 319.61,-96.19 331.34,-82.03"/>
<polygon fill="#63b8ff" stroke="#63b8ff" points="334.18,-84.08 337.72,-74.09 328.73,-79.7 334.18,-84.08"/>
</a>
</g>
</g>
<!-- Node7 -->
<g id="Node000007" class="node">
<title>Node7</title>
<g id="a_Node000007"><a xlink:title=" ">
<polygon fill="#e0e0e0" stroke="#999999" points="440.15,-74 384.15,-74 384.15,-55 440.15,-55 440.15,-74"/>
<text text-anchor="middle" x="412.15" y="-62" font-family="Helvetica,sans-Serif" font-size="10.00">sstream</text>
</a>
</g>
</g>
<!-- Node1&#45;&gt;Node7 -->
<g id="edge6_Node000001_Node000007" class="edge">
<title>Node1&#45;&gt;Node7</title>
<g id="a_edge6_Node000001_Node000007"><a xlink:title=" ">
<path fill="none" stroke="#63b8ff" d="M201.73,-164.93C233.6,-156.35 273.31,-144.11 307.15,-129 338.16,-115.15 371.26,-93.93 391.83,-79.88"/>
<polygon fill="#63b8ff" stroke="#63b8ff" points="393.86,-82.74 400.09,-74.17 389.88,-76.98 393.86,-82.74"/>
</a>
</g>
</g>
<!-- Node8 -->
<g id="Node000008" class="node">
<title>Node8</title>
<g id="a_Node000008"><a xlink:href="utils_8hpp.html" target="_top" xlink:title=" ">
<polygon fill="white" stroke="#666666" points="272.65,-129 171.65,-129 171.65,-110 272.65,-110 272.65,-129"/>
<text text-anchor="middle" x="222.15" y="-117" font-family="Helvetica,sans-Serif" font-size="10.00">uvgutils/utils.hpp</text>
</a>
</g>
</g>
<!-- Node1&#45;&gt;Node8 -->
<g id="edge7_Node000001_Node000008" class="edge">
<title>Node1&#45;&gt;Node8</title>
<g id="a_edge7_Node000001_Node000008"><a xlink:title=" ">
<path fill="none" stroke="#63b8ff" d="M162.27,-164.84C174.33,-155.91 189.86,-144.41 202.09,-135.35"/>
<polygon fill="#63b8ff" stroke="#63b8ff" points="204.36,-138.03 210.31,-129.27 200.19,-132.4 204.36,-138.03"/>
</a>
</g>
</g>
<!-- Node8&#45;&gt;Node2 -->
<g id="edge8_Node000008_Node000002" class="edge">
<title>Node8&#45;&gt;Node2</title>
<g id="a_edge8_Node000008_Node000002"><a xlink:title=" ">
<path fill="none" stroke="#63b8ff" d="M191.66,-110C161.59,-101.6 114.05,-88.32 64.13,-74.27"/>
<polygon fill="#63b8ff" stroke="#63b8ff" points="65.03,-70.89 54.45,-71.54 63.13,-77.62 65.03,-70.89"/>
</a>
</g>
</g>
<!-- Node8&#45;&gt;Node3 -->
<g id="edge9_Node000008_Node000003" class="edge">
<title>Node8&#45;&gt;Node3</title>
<g id="a_edge9_Node000008_Node000003"><a xlink:title=" ">
<path fill="none" stroke="#63b8ff" d="M202.39,-109.98C182.42,-101.38 151.35,-87.99 128.5,-78.15"/>
<polygon fill="#63b8ff" stroke="#63b8ff" points="129.84,-74.91 119.27,-74.17 127.07,-81.34 129.84,-74.91"/>
</a>
</g>
</g>
<!-- Node8&#45;&gt;Node4 -->
<g id="edge10_Node000008_Node000004" class="edge">
<title>Node8&#45;&gt;Node4</title>
<g id="a_edge10_Node000008_Node000004"><a xlink:title=" ">
<path fill="none" stroke="#63b8ff" d="M213.4,-109.75C205.68,-102.03 194.25,-90.6 184.93,-81.28"/>
<polygon fill="#63b8ff" stroke="#63b8ff" points="187.29,-78.69 177.74,-74.09 182.34,-83.64 187.29,-78.69"/>
</a>
</g>
</g>
<!-- Node8&#45;&gt;Node5 -->
<g id="edge11_Node000008_Node000005" class="edge">
<title>Node8&#45;&gt;Node5</title>
<g id="a_edge11_Node000008_Node000005"><a xlink:title=" ">
<path fill="none" stroke="#63b8ff" d="M221.72,-109.64C220.62,-96.3 216.76,-70.91 203.15,-55 188.88,-38.32 166.95,-27.41 147.96,-20.57"/>
<polygon fill="#63b8ff" stroke="#63b8ff" points="148.95,-17.21 138.36,-17.35 146.73,-23.85 148.95,-17.21"/>
</a>
</g>
</g>
<!-- Node8&#45;&gt;Node6 -->
<g id="edge12_Node000008_Node000006" class="edge">
<title>Node8&#45;&gt;Node6</title>
<g id="a_edge12_Node000008_Node000006"><a xlink:title=" ">
<path fill="none" stroke="#63b8ff" d="M241.75,-109.98C261.47,-101.42 292.1,-88.11 314.73,-78.28"/>
<polygon fill="#63b8ff" stroke="#63b8ff" points="316.42,-81.37 324.19,-74.17 313.63,-74.94 316.42,-81.37"/>
</a>
</g>
</g>
<!-- Node8&#45;&gt;Node7 -->
<g id="edge13_Node000008_Node000007" class="edge">
<title>Node8&#45;&gt;Node7</title>
<g id="a_edge13_Node000008_Node000007"><a xlink:title=" ">
<path fill="none" stroke="#63b8ff" d="M252.68,-109.98C285.62,-100.8 338.13,-86.15 373.83,-76.19"/>
<polygon fill="#63b8ff" stroke="#63b8ff" points="375.18,-79.45 383.87,-73.39 373.3,-72.7 375.18,-79.45"/>
</a>
</g>
</g>
<!-- Node9 -->
<g id="Node000009" class="node">
<title>Node9</title>
<g id="a_Node000009"><a xlink:href="log_8hpp.html" target="_top" xlink:title=" ">
<polygon fill="white" stroke="#666666" points="303.65,-74 250.65,-74 250.65,-55 303.65,-55 303.65,-74"/>
<text text-anchor="middle" x="277.15" y="-62" font-family="Helvetica,sans-Serif" font-size="10.00">log.hpp</text>
</a>
</g>
</g>
<!-- Node8&#45;&gt;Node9 -->
<g id="edge14_Node000008_Node000009" class="edge">
<title>Node8&#45;&gt;Node9</title>
<g id="a_edge14_Node000008_Node000009"><a xlink:title=" ">
<path fill="none" stroke="#63b8ff" d="M231.23,-109.75C239.24,-102.03 251.11,-90.6 260.77,-81.28"/>
<polygon fill="#63b8ff" stroke="#63b8ff" points="263.47,-83.55 268.24,-74.09 258.61,-78.51 263.47,-83.55"/>
</a>
</g>
</g>
<!-- Node9&#45;&gt;Node5 -->
<g id="edge17_Node000009_Node000005" class="edge">
<title>Node9&#45;&gt;Node5</title>
<g id="a_edge17_Node000009_Node000005"><a xlink:title=" ">
<path fill="none" stroke="#63b8ff" d="M250.32,-54.98C222.28,-46.09 178.1,-32.07 146.85,-22.15"/>
<polygon fill="#63b8ff" stroke="#63b8ff" points="147.78,-18.77 137.19,-19.08 145.67,-25.44 147.78,-18.77"/>
</a>
</g>
</g>
<!-- Node10 -->
<g id="Node000010" class="node">
<title>Node10</title>
<g id="a_Node000010"><a xlink:title=" ">
<polygon fill="#e0e0e0" stroke="#999999" points="334.15,-19 284.15,-19 284.15,0 334.15,0 334.15,-19"/>
<text text-anchor="middle" x="309.15" y="-7" font-family="Helvetica,sans-Serif" font-size="10.00">chrono</text>
</a>
</g>
</g>
<!-- Node9&#45;&gt;Node10 -->
<g id="edge15_Node000009_Node000010" class="edge">
<title>Node9&#45;&gt;Node10</title>
<g id="a_edge15_Node000009_Node000010"><a xlink:title=" ">
<path fill="none" stroke="#63b8ff" d="M282.43,-54.75C286.86,-47.42 293.31,-36.73 298.77,-27.7"/>
<polygon fill="#63b8ff" stroke="#63b8ff" points="301.79,-29.46 303.96,-19.09 295.8,-25.84 301.79,-29.46"/>
</a>
</g>
</g>
<!-- Node11 -->
<g id="Node000011" class="node">
<title>Node11</title>
<g id="a_Node000011"><a xlink:title=" ">
<polygon fill="#e0e0e0" stroke="#999999" points="405.65,-19 352.65,-19 352.65,0 405.65,0 405.65,-19"/>
<text text-anchor="middle" x="379.15" y="-7" font-family="Helvetica,sans-Serif" font-size="10.00">cstdarg</text>
</a>
</g>
</g>
<!-- Node9&#45;&gt;Node11 -->
<g id="edge16_Node000009_Node000011" class="edge">
<title>Node9&#45;&gt;Node11</title>
<g id="a_edge16_Node000009_Node000011"><a xlink:title=" ">
<path fill="none" stroke="#63b8ff" d="M293.54,-54.98C309.73,-46.57 334.72,-33.59 353.53,-23.81"/>
<polygon fill="#63b8ff" stroke="#63b8ff" points="355.2,-26.89 362.46,-19.17 351.98,-20.68 355.2,-26.89"/>
</a>
</g>
</g>
<!-- Node12 -->
<g id="Node000012" class="node">
<title>Node12</title>
<g id="a_Node000012"><a xlink:title=" ">
<polygon fill="#e0e0e0" stroke="#999999" points="484.15,-19 424.15,-19 424.15,0 484.15,0 484.15,-19"/>
<text text-anchor="middle" x="454.15" y="-7" font-family="Helvetica,sans-Serif" font-size="10.00">iostream</text>
</a>
</g>
</g>
<!-- Node9&#45;&gt;Node12 -->
<g id="edge18_Node000009_Node000012" class="edge">
<title>Node9&#45;&gt;Node12</title>
<g id="a_edge18_Node000009_Node000012"><a xlink:title=" ">
<path fill="none" stroke="#63b8ff" d="M304.03,-55.45C333.74,-46.55 381.85,-32.15 415.58,-22.05"/>
<polygon fill="#63b8ff" stroke="#63b8ff" points="416.97,-25.29 425.55,-19.07 414.96,-18.58 416.97,-25.29"/>
</a>
</g>
</g>
<!-- Node13 -->
<g id="Node000013" class="node">
<title>Node13</title>
<g id="a_Node000013"><a xlink:title=" ">
<polygon fill="#e0e0e0" stroke="#999999" points="204.15,-19 156.15,-19 156.15,0 204.15,0 204.15,-19"/>
<text text-anchor="middle" x="180.15" y="-7" font-family="Helvetica,sans-Serif" font-size="10.00">mutex</text>
</a>
</g>
</g>
<!-- Node9&#45;&gt;Node13 -->
<g id="edge19_Node000009_Node000013" class="edge">
<title>Node9&#45;&gt;Node13</title>
<g id="a_edge19_Node000009_Node000013"><a xlink:title=" ">
<path fill="none" stroke="#63b8ff" d="M261.57,-54.98C246.38,-46.69 223.05,-33.94 205.25,-24.22"/>
<polygon fill="#63b8ff" stroke="#63b8ff" points="206.47,-20.89 196.02,-19.17 203.12,-27.04 206.47,-20.89"/>
</a>
</g>
</g>
<!-- Node14 -->
<g id="Node000014" class="node">
<title>Node14</title>
<g id="a_Node000014"><a xlink:title=" ">
<polygon fill="#e0e0e0" stroke="#999999" points="266.15,-19 222.15,-19 222.15,0 266.15,0 266.15,-19"/>
<text text-anchor="middle" x="244.15" y="-7" font-family="Helvetica,sans-Serif" font-size="10.00">string</text>
</a>
</g>
</g>
<!-- Node9&#45;&gt;Node14 -->
<g id="edge20_Node000009_Node000014" class="edge">
<title>Node9&#45;&gt;Node14</title>
<g id="a_edge20_Node000009_Node000014"><a xlink:title=" ">
<path fill="none" stroke="#63b8ff" d="M271.7,-54.75C267.14,-47.42 260.48,-36.73 254.86,-27.7"/>
<polygon fill="#63b8ff" stroke="#63b8ff" points="257.76,-25.73 249.5,-19.09 251.81,-29.43 257.76,-25.73"/>
</a>
</g>
</g>
</g>
</svg>
