<?xml version="1.0" encoding="UTF-8" standalone="no"?>
<!DOCTYPE svg PUBLIC "-//W3C//DTD SVG 1.1//EN"
 "http://www.w3.org/Graphics/SVG/1.1/DTD/svg11.dtd">
<!-- Generated by graphviz version 2.43.0 (0)
 -->
<!-- Title: src/libuvgvpccenc Pages: 1 -->
<svg width="557pt" height="361pt"
 viewBox="0.00 0.00 557.00 361.00" xmlns="http://www.w3.org/2000/svg" xmlns:xlink="http://www.w3.org/1999/xlink">
<g id="graph0" class="graph" transform="scale(1 1) rotate(0) translate(4 357)">
<title>src/libuvgvpccenc</title>
<g id="clust1" class="cluster">
<title>clusterdir_68267d1309a1af8e8297ef4c3efbcdba</title>
<g id="a_clust1"><a xlink:href="dir_68267d1309a1af8e8297ef4c3efbcdba.html" target="_top" xlink:title="src">
<polygon fill="#edf0f7" stroke="#404040" stroke-dasharray="5,2" points="8,-8 8,-345 541,-345 541,-8 8,-8"/>
<text text-anchor="middle" x="274.5" y="-333" font-family="Helvetica,sans-Serif" font-size="10.00">src</text>
</a>
</g>
</g>
<g id="clust2" class="cluster">
<title>clusterdir_ecc1da70cf6a1beb95498706df8e6909</title>
<g id="a_clust2"><a xlink:href="dir_ecc1da70cf6a1beb95498706df8e6909.html" target="_top">
<polygon fill="#edf0f7" stroke="#404040" stroke-width="2" points="16,-63 16,-318 521,-318 521,-63 16,-63"/>
</a>
</g>
</g>
<!-- dir_a622c5bdfd738cd0e4990bbfd2314a8c -->
<g id="node1" class="node">
<title>dir_a622c5bdfd738cd0e4990bbfd2314a8c</title>
<g id="a_node1"><a xlink:href="dir_a622c5bdfd738cd0e4990bbfd2314a8c.html" target="_top" xlink:title="libuvgutils">
<polygon fill="#a2b4d6" stroke="red" points="406,-35 338,-35 338,-16 406,-16 406,-35"/>
<text text-anchor="middle" x="372" y="-23" font-family="Helvetica,sans-Serif" font-size="10.00">libuvgutils</text>
</a>
</g>
</g>
<!-- dir_ecc1da70cf6a1beb95498706df8e6909 -->
<g id="node2" class="node">
<title>dir_ecc1da70cf6a1beb95498706df8e6909</title>
<text text-anchor="middle" x="233" y="-298" font-family="Helvetica,sans-Serif" font-size="10.00">libuvgvpccenc</text>
</g>
<!-- dir_ecc1da70cf6a1beb95498706df8e6909&#45;&gt;dir_a622c5bdfd738cd0e4990bbfd2314a8c -->
<g id="edge4" class="edge">
<title>dir_ecc1da70cf6a1beb95498706df8e6909&#45;&gt;dir_a622c5bdfd738cd0e4990bbfd2314a8c</title>
<g id="a_edge4"><a xlink:href="dir_000006_000005.html" target="_top">
<path fill="none" stroke="#63b8ff" d="M276.19,-298.88C348.18,-296.89 488.2,-288.68 522,-255 542.24,-234.83 532,-220.07 532,-191.5 532,-191.5 532,-191.5 532,-134.5 532,-78.34 463.44,-49.42 416.08,-36.15"/>
<polygon fill="#63b8ff" stroke="#63b8ff" points="416.89,-32.75 406.32,-33.55 415.09,-39.51 416.89,-32.75"/>
</a>
</g>
<g id="a_edge4&#45;headlabel"><a xlink:href="dir_000006_000005.html" target="_top" xlink:title="37">
<text text-anchor="middle" x="421.09" y="-28.43" font-family="Helvetica,sans-Serif" font-size="10.00" fill="#63b8ff">37</text>
</a>
</g>
</g>
<!-- dir_310816a6b8d8f243be3a5e32db2b2d06 -->
<g id="node3" class="node">
<title>dir_310816a6b8d8f243be3a5e32db2b2d06</title>
<g id="a_node3"><a xlink:href="dir_310816a6b8d8f243be3a5e32db2b2d06.html" target="_top" xlink:title="bitstreamGeneration">
<polygon fill="#a2b4d6" stroke="#404040" points="182,-255 64,-255 64,-236 182,-236 182,-255"/>
<text text-anchor="middle" x="123" y="-243" font-family="Helvetica,sans-Serif" font-size="10.00">bitstreamGeneration</text>
</a>
</g>
</g>
<!-- dir_ecc1da70cf6a1beb95498706df8e6909&#45;&gt;dir_310816a6b8d8f243be3a5e32db2b2d06 -->
<g id="edge3" class="edge">
<title>dir_ecc1da70cf6a1beb95498706df8e6909&#45;&gt;dir_310816a6b8d8f243be3a5e32db2b2d06</title>
<g id="a_edge3"><a xlink:href="dir_000006_000001.html" target="_top">
<path fill="none" stroke="#63b8ff" d="M215.33,-290.98C197.71,-282.5 170.42,-269.35 150.07,-259.54"/>
<polygon fill="#63b8ff" stroke="#63b8ff" points="151.52,-256.36 140.99,-255.17 148.48,-262.66 151.52,-256.36"/>
</a>
</g>
<g id="a_edge3&#45;headlabel"><a xlink:href="dir_000006_000001.html" target="_top" xlink:title="1">
<text text-anchor="middle" x="155.99" y="-252.86" font-family="Helvetica,sans-Serif" font-size="10.00" fill="#63b8ff">1</text>
</a>
</g>
</g>
<!-- dir_a9daaf6619208f31e1f862e20a2aea68 -->
<g id="node4" class="node">
<title>dir_a9daaf6619208f31e1f862e20a2aea68</title>
<g id="a_node4"><a xlink:href="dir_a9daaf6619208f31e1f862e20a2aea68.html" target="_top" xlink:title="include">
<polygon fill="#a2b4d6" stroke="#404040" points="256,-90 204,-90 204,-71 256,-71 256,-90"/>
<text text-anchor="middle" x="230" y="-78" font-family="Helvetica,sans-Serif" font-size="10.00">include</text>
</a>
</g>
</g>
<!-- dir_ecc1da70cf6a1beb95498706df8e6909&#45;&gt;dir_a9daaf6619208f31e1f862e20a2aea68 -->
<g id="edge5" class="edge">
<title>dir_ecc1da70cf6a1beb95498706df8e6909&#45;&gt;dir_a9daaf6619208f31e1f862e20a2aea68</title>
<g id="a_edge5"><a xlink:href="dir_000006_000004.html" target="_top">
<path fill="none" stroke="#63b8ff" d="M189.58,-295.5C139.27,-289.86 60.94,-277.63 43,-255 -11.42,-186.37 129.86,-120.23 196.93,-93.69"/>
<polygon fill="#63b8ff" stroke="#63b8ff" points="198.21,-96.95 206.26,-90.07 195.67,-90.43 198.21,-96.95"/>
</a>
</g>
<g id="a_edge5&#45;headlabel"><a xlink:href="dir_000006_000004.html" target="_top" xlink:title="41">
<text text-anchor="middle" x="195.88" y="-98.4" font-family="Helvetica,sans-Serif" font-size="10.00" fill="#63b8ff">41</text>
</a>
</g>
</g>
<!-- dir_f073919779465e9e5feb3f71944b86d1 -->
<g id="node5" class="node">
<title>dir_f073919779465e9e5feb3f71944b86d1</title>
<g id="a_node5"><a xlink:href="dir_f073919779465e9e5feb3f71944b86d1.html" target="_top" xlink:title="mapEncoding">
<polygon fill="#a2b4d6" stroke="#404040" points="512.5,-255 429.5,-255 429.5,-236 512.5,-236 512.5,-255"/>
<text text-anchor="middle" x="471" y="-243" font-family="Helvetica,sans-Serif" font-size="10.00">mapEncoding</text>
</a>
</g>
</g>
<!-- dir_ecc1da70cf6a1beb95498706df8e6909&#45;&gt;dir_f073919779465e9e5feb3f71944b86d1 -->
<g id="edge7" class="edge">
<title>dir_ecc1da70cf6a1beb95498706df8e6909&#45;&gt;dir_f073919779465e9e5feb3f71944b86d1</title>
<g id="a_edge7"><a xlink:href="dir_000006_000007.html" target="_top">
<path fill="none" stroke="#63b8ff" d="M271.24,-290.98C312.41,-281.82 377.99,-267.21 422.7,-257.26"/>
<polygon fill="#63b8ff" stroke="#63b8ff" points="423.46,-260.67 432.46,-255.08 421.94,-253.84 423.46,-260.67"/>
</a>
</g>
<g id="a_edge7&#45;headlabel"><a xlink:href="dir_000006_000007.html" target="_top" xlink:title="1">
<text text-anchor="middle" x="420.57" y="-261.72" font-family="Helvetica,sans-Serif" font-size="10.00" fill="#63b8ff">1</text>
</a>
</g>
</g>
<!-- dir_f5eeb3b080936b2356f4b9d9762ada4f -->
<g id="node6" class="node">
<title>dir_f5eeb3b080936b2356f4b9d9762ada4f</title>
<g id="a_node6"><a xlink:href="dir_f5eeb3b080936b2356f4b9d9762ada4f.html" target="_top" xlink:title="mapGeneration">
<polygon fill="#a2b4d6" stroke="#404040" points="312,-255 220,-255 220,-236 312,-236 312,-255"/>
<text text-anchor="middle" x="266" y="-243" font-family="Helvetica,sans-Serif" font-size="10.00">mapGeneration</text>
</a>
</g>
</g>
<!-- dir_ecc1da70cf6a1beb95498706df8e6909&#45;&gt;dir_f5eeb3b080936b2356f4b9d9762ada4f -->
<g id="edge8" class="edge">
<title>dir_ecc1da70cf6a1beb95498706df8e6909&#45;&gt;dir_f5eeb3b080936b2356f4b9d9762ada4f</title>
<g id="a_edge8"><a xlink:href="dir_000006_000008.html" target="_top">
<path fill="none" stroke="#63b8ff" d="M238.45,-290.75C243.01,-283.42 249.67,-272.73 255.29,-263.7"/>
<polygon fill="#63b8ff" stroke="#63b8ff" points="258.34,-265.43 260.65,-255.09 252.4,-261.73 258.34,-265.43"/>
</a>
</g>
<g id="a_edge8&#45;headlabel"><a xlink:href="dir_000006_000008.html" target="_top" xlink:title="1">
<text text-anchor="middle" x="258.85" y="-267.48" font-family="Helvetica,sans-Serif" font-size="10.00" fill="#63b8ff">1</text>
</a>
</g>
</g>
<!-- dir_d2ba98c9ffd9b7f188bc8ddaba5db254 -->
<g id="node7" class="node">
<title>dir_d2ba98c9ffd9b7f188bc8ddaba5db254</title>
<g id="a_node7"><a xlink:href="dir_d2ba98c9ffd9b7f188bc8ddaba5db254.html" target="_top" xlink:title="patchGeneration">
<polygon fill="#a2b4d6" stroke="#404040" points="263,-145 165,-145 165,-126 263,-126 263,-145"/>
<text text-anchor="middle" x="214" y="-133" font-family="Helvetica,sans-Serif" font-size="10.00">patchGeneration</text>
</a>
</g>
</g>
<!-- dir_ecc1da70cf6a1beb95498706df8e6909&#45;&gt;dir_d2ba98c9ffd9b7f188bc8ddaba5db254 -->
<g id="edge6" class="edge">
<title>dir_ecc1da70cf6a1beb95498706df8e6909&#45;&gt;dir_d2ba98c9ffd9b7f188bc8ddaba5db254</title>
<g id="a_edge6"><a xlink:href="dir_000006_000009.html" target="_top">
<path fill="none" stroke="#63b8ff" d="M189.78,-294.76C142.55,-288.59 71.42,-276.03 55,-255 16.45,-205.62 113.04,-166.57 172.13,-148.11"/>
<polygon fill="#63b8ff" stroke="#63b8ff" points="173.43,-151.37 181.98,-145.11 171.39,-144.68 173.43,-151.37"/>
</a>
</g>
<g id="a_edge6&#45;headlabel"><a xlink:href="dir_000006_000009.html" target="_top" xlink:title="3">
<text text-anchor="middle" x="170.82" y="-152.64" font-family="Helvetica,sans-Serif" font-size="10.00" fill="#63b8ff">3</text>
</a>
</g>
</g>
<!-- dir_21b86c26142e0651efd4c00e2a0ec927 -->
<g id="node8" class="node">
<title>dir_21b86c26142e0651efd4c00e2a0ec927</title>
<g id="a_node8"><a xlink:href="dir_21b86c26142e0651efd4c00e2a0ec927.html" target="_top" xlink:title="patchPacking">
<polygon fill="#a2b4d6" stroke="#404040" points="411.5,-255 330.5,-255 330.5,-236 411.5,-236 411.5,-255"/>
<text text-anchor="middle" x="371" y="-243" font-family="Helvetica,sans-Serif" font-size="10.00">patchPacking</text>
</a>
</g>
</g>
<!-- dir_ecc1da70cf6a1beb95498706df8e6909&#45;&gt;dir_21b86c26142e0651efd4c00e2a0ec927 -->
<g id="edge1" class="edge">
<title>dir_ecc1da70cf6a1beb95498706df8e6909&#45;&gt;dir_21b86c26142e0651efd4c00e2a0ec927</title>
<g id="a_edge1"><a xlink:href="dir_000006_000010.html" target="_top">
<path fill="none" stroke="#63b8ff" d="M255.17,-290.98C277.77,-282.3 313.06,-268.75 338.75,-258.88"/>
<polygon fill="#63b8ff" stroke="#63b8ff" points="340.34,-262.02 348.42,-255.17 337.83,-255.49 340.34,-262.02"/>
</a>
</g>
<g id="a_edge1&#45;headlabel"><a xlink:href="dir_000006_000010.html" target="_top" xlink:title="1">
<text text-anchor="middle" x="338.01" y="-263.46" font-family="Helvetica,sans-Serif" font-size="10.00" fill="#63b8ff">1</text>
</a>
</g>
</g>
<!-- dir_2c9b97b4f1c6301ab3fde0957b899ea3 -->
<g id="node9" class="node">
<title>dir_2c9b97b4f1c6301ab3fde0957b899ea3</title>
<g id="a_node9"><a xlink:href="dir_2c9b97b4f1c6301ab3fde0957b899ea3.html" target="_top" xlink:title="utils">
<polygon fill="#a2b4d6" stroke="#404040" points="283,-200 245,-200 245,-181 283,-181 283,-200"/>
<text text-anchor="middle" x="264" y="-188" font-family="Helvetica,sans-Serif" font-size="10.00">utils</text>
</a>
</g>
</g>
<!-- dir_ecc1da70cf6a1beb95498706df8e6909&#45;&gt;dir_2c9b97b4f1c6301ab3fde0957b899ea3 -->
<g id="edge2" class="edge">
<title>dir_ecc1da70cf6a1beb95498706df8e6909&#45;&gt;dir_2c9b97b4f1c6301ab3fde0957b899ea3</title>
<g id="a_edge2"><a xlink:href="dir_000006_000012.html" target="_top">
<path fill="none" stroke="#63b8ff" d="M225.67,-290.65C216.29,-278.17 202.23,-254.82 211,-236 216.83,-223.49 228.09,-213.25 238.75,-205.76"/>
<polygon fill="#63b8ff" stroke="#63b8ff" points="240.94,-208.51 247.42,-200.13 237.12,-202.64 240.94,-208.51"/>
</a>
</g>
<g id="a_edge2&#45;headlabel"><a xlink:href="dir_000006_000012.html" target="_top" xlink:title="50">
<text text-anchor="middle" x="239.47" y="-210.35" font-family="Helvetica,sans-Serif" font-size="10.00" fill="#63b8ff">50</text>
</a>
</g>
</g>
<!-- dir_310816a6b8d8f243be3a5e32db2b2d06&#45;&gt;dir_a622c5bdfd738cd0e4990bbfd2314a8c -->
<g id="edge10" class="edge">
<title>dir_310816a6b8d8f243be3a5e32db2b2d06&#45;&gt;dir_a622c5bdfd738cd0e4990bbfd2314a8c</title>
<g id="a_edge10"><a xlink:href="dir_000001_000005.html" target="_top">
<path fill="none" stroke="#63b8ff" d="M173.97,-235.97C216.9,-227.92 274.09,-214.88 292,-200 341.26,-159.06 361.73,-81.17 368.81,-45.36"/>
<polygon fill="#63b8ff" stroke="#63b8ff" points="372.29,-45.78 370.66,-35.31 365.4,-44.52 372.29,-45.78"/>
</a>
</g>
<g id="a_edge10&#45;headlabel"><a xlink:href="dir_000001_000005.html" target="_top" xlink:title="2">
<text text-anchor="middle" x="374.43" y="-47.33" font-family="Helvetica,sans-Serif" font-size="10.00" fill="#63b8ff">2</text>
</a>
</g>
</g>
<!-- dir_310816a6b8d8f243be3a5e32db2b2d06&#45;&gt;dir_a9daaf6619208f31e1f862e20a2aea68 -->
<g id="edge11" class="edge">
<title>dir_310816a6b8d8f243be3a5e32db2b2d06&#45;&gt;dir_a9daaf6619208f31e1f862e20a2aea68</title>
<g id="a_edge11"><a xlink:href="dir_000001_000004.html" target="_top">
<path fill="none" stroke="#63b8ff" d="M122.69,-235.77C122.38,-214.7 124.3,-160.26 150,-126 161.06,-111.26 178.51,-100.74 194.29,-93.65"/>
<polygon fill="#63b8ff" stroke="#63b8ff" points="195.95,-96.75 203.83,-89.67 193.26,-90.29 195.95,-96.75"/>
</a>
</g>
<g id="a_edge11&#45;headlabel"><a xlink:href="dir_000001_000004.html" target="_top" xlink:title="9">
<text text-anchor="middle" x="193.73" y="-98.25" font-family="Helvetica,sans-Serif" font-size="10.00" fill="#63b8ff">9</text>
</a>
</g>
</g>
<!-- dir_310816a6b8d8f243be3a5e32db2b2d06&#45;&gt;dir_2c9b97b4f1c6301ab3fde0957b899ea3 -->
<g id="edge9" class="edge">
<title>dir_310816a6b8d8f243be3a5e32db2b2d06&#45;&gt;dir_2c9b97b4f1c6301ab3fde0957b899ea3</title>
<g id="a_edge9"><a xlink:href="dir_000001_000012.html" target="_top">
<path fill="none" stroke="#63b8ff" d="M145.65,-235.98C169.95,-226.85 208.61,-212.32 235.08,-202.37"/>
<polygon fill="#63b8ff" stroke="#63b8ff" points="236.45,-205.59 244.58,-198.8 233.99,-199.04 236.45,-205.59"/>
</a>
</g>
<g id="a_edge9&#45;headlabel"><a xlink:href="dir_000001_000012.html" target="_top" xlink:title="8">
<text text-anchor="middle" x="234.08" y="-207.02" font-family="Helvetica,sans-Serif" font-size="10.00" fill="#63b8ff">8</text>
</a>
</g>
</g>
<!-- dir_a9daaf6619208f31e1f862e20a2aea68&#45;&gt;dir_a622c5bdfd738cd0e4990bbfd2314a8c -->
<g id="edge12" class="edge">
<title>dir_a9daaf6619208f31e1f862e20a2aea68&#45;&gt;dir_a622c5bdfd738cd0e4990bbfd2314a8c</title>
<g id="a_edge12"><a xlink:href="dir_000004_000005.html" target="_top">
<path fill="none" stroke="#63b8ff" d="M244.37,-70.88C249.24,-68.16 254.76,-65.27 260,-63 282.84,-53.1 309.28,-44.36 330.74,-37.92"/>
<polygon fill="#63b8ff" stroke="#63b8ff" points="331.92,-41.22 340.52,-35.04 329.94,-34.51 331.92,-41.22"/>
</a>
</g>
<g id="a_edge12&#45;headlabel"><a xlink:href="dir_000004_000005.html" target="_top" xlink:title="1">
<text text-anchor="middle" x="329.27" y="-42.46" font-family="Helvetica,sans-Serif" font-size="10.00" fill="#63b8ff">1</text>
</a>
</g>
</g>
<!-- dir_f073919779465e9e5feb3f71944b86d1&#45;&gt;dir_a622c5bdfd738cd0e4990bbfd2314a8c -->
<g id="edge14" class="edge">
<title>dir_f073919779465e9e5feb3f71944b86d1&#45;&gt;dir_a622c5bdfd738cd0e4990bbfd2314a8c</title>
<g id="a_edge14"><a xlink:href="dir_000007_000005.html" target="_top">
<path fill="none" stroke="#63b8ff" d="M467.88,-235.99C458.14,-209.69 426.98,-127.64 394,-63 390.69,-56.51 386.67,-49.62 382.98,-43.59"/>
<polygon fill="#63b8ff" stroke="#63b8ff" points="385.88,-41.62 377.6,-35.01 379.95,-45.34 385.88,-41.62"/>
</a>
</g>
<g id="a_edge14&#45;headlabel"><a xlink:href="dir_000007_000005.html" target="_top" xlink:title="3">
<text text-anchor="middle" x="390.19" y="-40.65" font-family="Helvetica,sans-Serif" font-size="10.00" fill="#63b8ff">3</text>
</a>
</g>
</g>
<!-- dir_f073919779465e9e5feb3f71944b86d1&#45;&gt;dir_a9daaf6619208f31e1f862e20a2aea68 -->
<g id="edge15" class="edge">
<title>dir_f073919779465e9e5feb3f71944b86d1&#45;&gt;dir_a9daaf6619208f31e1f862e20a2aea68</title>
<g id="a_edge15"><a xlink:href="dir_000007_000004.html" target="_top">
<path fill="none" stroke="#63b8ff" d="M431.51,-235.93C394.63,-227.3 342.94,-213.37 327,-200 323.46,-197.03 291.98,-129.54 289,-126 278.93,-114.03 265.07,-103.37 253.31,-95.48"/>
<polygon fill="#63b8ff" stroke="#63b8ff" points="255.13,-92.49 244.83,-90.02 251.34,-98.38 255.13,-92.49"/>
</a>
</g>
<g id="a_edge15&#45;headlabel"><a xlink:href="dir_000007_000004.html" target="_top" xlink:title="7">
<text text-anchor="middle" x="259.69" y="-89.55" font-family="Helvetica,sans-Serif" font-size="10.00" fill="#63b8ff">7</text>
</a>
</g>
</g>
<!-- dir_f073919779465e9e5feb3f71944b86d1&#45;&gt;dir_2c9b97b4f1c6301ab3fde0957b899ea3 -->
<g id="edge13" class="edge">
<title>dir_f073919779465e9e5feb3f71944b86d1&#45;&gt;dir_2c9b97b4f1c6301ab3fde0957b899ea3</title>
<g id="a_edge13"><a xlink:href="dir_000007_000012.html" target="_top">
<path fill="none" stroke="#63b8ff" d="M437.74,-235.98C397.73,-225.74 331.21,-208.71 293.13,-198.96"/>
<polygon fill="#63b8ff" stroke="#63b8ff" points="293.75,-195.5 283.19,-196.41 292.01,-202.29 293.75,-195.5"/>
</a>
</g>
<g id="a_edge13&#45;headlabel"><a xlink:href="dir_000007_000012.html" target="_top" xlink:title="5">
<text text-anchor="middle" x="297.94" y="-191.15" font-family="Helvetica,sans-Serif" font-size="10.00" fill="#63b8ff">5</text>
</a>
</g>
</g>
<!-- dir_f5eeb3b080936b2356f4b9d9762ada4f&#45;&gt;dir_a622c5bdfd738cd0e4990bbfd2314a8c -->
<g id="edge17" class="edge">
<title>dir_f5eeb3b080936b2356f4b9d9762ada4f&#45;&gt;dir_a622c5bdfd738cd0e4990bbfd2314a8c</title>
<g id="a_edge17"><a xlink:href="dir_000008_000005.html" target="_top">
<path fill="none" stroke="#63b8ff" d="M311.66,-235.92C332.12,-229.59 354.43,-218.68 367,-200 399.19,-152.16 386.05,-78.89 377.36,-44.94"/>
<polygon fill="#63b8ff" stroke="#63b8ff" points="380.67,-43.76 374.66,-35.03 373.91,-45.6 380.67,-43.76"/>
</a>
</g>
<g id="a_edge17&#45;headlabel"><a xlink:href="dir_000008_000005.html" target="_top" xlink:title="2">
<text text-anchor="middle" x="384.35" y="-43.98" font-family="Helvetica,sans-Serif" font-size="10.00" fill="#63b8ff">2</text>
</a>
</g>
</g>
<!-- dir_f5eeb3b080936b2356f4b9d9762ada4f&#45;&gt;dir_a9daaf6619208f31e1f862e20a2aea68 -->
<g id="edge18" class="edge">
<title>dir_f5eeb3b080936b2356f4b9d9762ada4f&#45;&gt;dir_a9daaf6619208f31e1f862e20a2aea68</title>
<g id="a_edge18"><a xlink:href="dir_000008_000004.html" target="_top">
<path fill="none" stroke="#63b8ff" d="M249.77,-235.83C224.17,-221.11 175.33,-188.54 156,-145 145.94,-122.32 171.64,-104.8 195.47,-93.96"/>
<polygon fill="#63b8ff" stroke="#63b8ff" points="196.94,-97.14 204.77,-90 194.19,-90.7 196.94,-97.14"/>
</a>
</g>
<g id="a_edge18&#45;headlabel"><a xlink:href="dir_000008_000004.html" target="_top" xlink:title="5">
<text text-anchor="middle" x="194.74" y="-98.66" font-family="Helvetica,sans-Serif" font-size="10.00" fill="#63b8ff">5</text>
</a>
</g>
</g>
<!-- dir_f5eeb3b080936b2356f4b9d9762ada4f&#45;&gt;dir_2c9b97b4f1c6301ab3fde0957b899ea3 -->
<g id="edge16" class="edge">
<title>dir_f5eeb3b080936b2356f4b9d9762ada4f&#45;&gt;dir_2c9b97b4f1c6301ab3fde0957b899ea3</title>
<g id="a_edge16"><a xlink:href="dir_000008_000012.html" target="_top">
<path fill="none" stroke="#63b8ff" d="M265.67,-235.75C265.41,-228.8 265.03,-218.85 264.7,-210.13"/>
<polygon fill="#63b8ff" stroke="#63b8ff" points="268.2,-209.95 264.32,-200.09 261.2,-210.21 268.2,-209.95"/>
</a>
</g>
<g id="a_edge16&#45;headlabel"><a xlink:href="dir_000008_000012.html" target="_top" xlink:title="4">
<text text-anchor="middle" x="271.17" y="-210.93" font-family="Helvetica,sans-Serif" font-size="10.00" fill="#63b8ff">4</text>
</a>
</g>
</g>
<!-- dir_d2ba98c9ffd9b7f188bc8ddaba5db254&#45;&gt;dir_a622c5bdfd738cd0e4990bbfd2314a8c -->
<g id="edge20" class="edge">
<title>dir_d2ba98c9ffd9b7f188bc8ddaba5db254&#45;&gt;dir_a622c5bdfd738cd0e4990bbfd2314a8c</title>
<g id="a_edge20"><a xlink:href="dir_000009_000005.html" target="_top">
<path fill="none" stroke="#63b8ff" d="M226.66,-125.84C253.7,-107.36 317.34,-63.86 350.72,-41.05"/>
<polygon fill="#63b8ff" stroke="#63b8ff" points="353,-43.73 359.28,-35.2 349.05,-37.95 353,-43.73"/>
</a>
</g>
<g id="a_edge20&#45;headlabel"><a xlink:href="dir_000009_000005.html" target="_top" xlink:title="18">
<text text-anchor="middle" x="351.63" y="-45.6" font-family="Helvetica,sans-Serif" font-size="10.00" fill="#63b8ff">18</text>
</a>
</g>
</g>
<!-- dir_d2ba98c9ffd9b7f188bc8ddaba5db254&#45;&gt;dir_a9daaf6619208f31e1f862e20a2aea68 -->
<g id="edge21" class="edge">
<title>dir_d2ba98c9ffd9b7f188bc8ddaba5db254&#45;&gt;dir_a9daaf6619208f31e1f862e20a2aea68</title>
<g id="a_edge21"><a xlink:href="dir_000009_000004.html" target="_top">
<path fill="none" stroke="#63b8ff" d="M216.64,-125.75C218.76,-118.72 221.81,-108.62 224.46,-99.84"/>
<polygon fill="#63b8ff" stroke="#63b8ff" points="227.87,-100.67 227.41,-90.09 221.17,-98.65 227.87,-100.67"/>
</a>
</g>
<g id="a_edge21&#45;headlabel"><a xlink:href="dir_000009_000004.html" target="_top" xlink:title="14">
<text text-anchor="middle" x="229.55" y="-102.44" font-family="Helvetica,sans-Serif" font-size="10.00" fill="#63b8ff">14</text>
</a>
</g>
</g>
<!-- dir_d2ba98c9ffd9b7f188bc8ddaba5db254&#45;&gt;dir_2c9b97b4f1c6301ab3fde0957b899ea3 -->
<g id="edge19" class="edge">
<title>dir_d2ba98c9ffd9b7f188bc8ddaba5db254&#45;&gt;dir_2c9b97b4f1c6301ab3fde0957b899ea3</title>
<g id="a_edge19"><a xlink:href="dir_000009_000012.html" target="_top">
<path fill="none" stroke="#63b8ff" d="M227.23,-145.09C235.88,-152.52 246.63,-163.5 254.46,-172.67"/>
<polygon fill="#63b8ff" stroke="#63b8ff" points="251.93,-175.12 260.91,-180.75 257.4,-170.75 251.93,-175.12"/>
</a>
</g>
<g id="a_edge19&#45;headlabel"><a xlink:href="dir_000009_000012.html" target="_top" xlink:title="26">
<text text-anchor="middle" x="247.47" y="-171.58" font-family="Helvetica,sans-Serif" font-size="10.00" fill="#63b8ff">26</text>
</a>
</g>
</g>
<!-- dir_21b86c26142e0651efd4c00e2a0ec927&#45;&gt;dir_a622c5bdfd738cd0e4990bbfd2314a8c -->
<g id="edge23" class="edge">
<title>dir_21b86c26142e0651efd4c00e2a0ec927&#45;&gt;dir_a622c5bdfd738cd0e4990bbfd2314a8c</title>
<g id="a_edge23"><a xlink:href="dir_000010_000005.html" target="_top">
<path fill="none" stroke="#63b8ff" d="M375.11,-235.88C379.06,-227.09 384.74,-212.94 387,-200 397.46,-140.02 398.8,-122.74 387,-63 385.77,-56.78 383.47,-50.29 381.04,-44.54"/>
<polygon fill="#63b8ff" stroke="#63b8ff" points="384.09,-42.8 376.71,-35.2 377.74,-45.74 384.09,-42.8"/>
</a>
</g>
<g id="a_edge23&#45;headlabel"><a xlink:href="dir_000010_000005.html" target="_top" xlink:title="2">
<text text-anchor="middle" x="388.18" y="-42.37" font-family="Helvetica,sans-Serif" font-size="10.00" fill="#63b8ff">2</text>
</a>
</g>
</g>
<!-- dir_21b86c26142e0651efd4c00e2a0ec927&#45;&gt;dir_a9daaf6619208f31e1f862e20a2aea68 -->
<g id="edge24" class="edge">
<title>dir_21b86c26142e0651efd4c00e2a0ec927&#45;&gt;dir_a9daaf6619208f31e1f862e20a2aea68</title>
<g id="a_edge24"><a xlink:href="dir_000010_000004.html" target="_top">
<path fill="none" stroke="#63b8ff" d="M357.7,-235.88C345.89,-227.71 328.73,-214.57 317,-200 293.81,-171.2 301.49,-155.34 279,-126 270.57,-115 259.2,-104.48 249.53,-96.43"/>
<polygon fill="#63b8ff" stroke="#63b8ff" points="251.58,-93.59 241.6,-90.05 247.2,-99.05 251.58,-93.59"/>
</a>
</g>
<g id="a_edge24&#45;headlabel"><a xlink:href="dir_000010_000004.html" target="_top" xlink:title="2">
<text text-anchor="middle" x="256.16" y="-91.13" font-family="Helvetica,sans-Serif" font-size="10.00" fill="#63b8ff">2</text>
</a>
</g>
</g>
<!-- dir_21b86c26142e0651efd4c00e2a0ec927&#45;&gt;dir_2c9b97b4f1c6301ab3fde0957b899ea3 -->
<g id="edge22" class="edge">
<title>dir_21b86c26142e0651efd4c00e2a0ec927&#45;&gt;dir_2c9b97b4f1c6301ab3fde0957b899ea3</title>
<g id="a_edge22"><a xlink:href="dir_000010_000012.html" target="_top">
<path fill="none" stroke="#63b8ff" d="M353.81,-235.98C336.75,-227.54 310.37,-214.47 290.6,-204.68"/>
<polygon fill="#63b8ff" stroke="#63b8ff" points="292.02,-201.47 281.5,-200.17 288.91,-207.75 292.02,-201.47"/>
</a>
</g>
<g id="a_edge22&#45;headlabel"><a xlink:href="dir_000010_000012.html" target="_top" xlink:title="2">
<text text-anchor="middle" x="296.5" y="-198.02" font-family="Helvetica,sans-Serif" font-size="10.00" fill="#63b8ff">2</text>
</a>
</g>
</g>
<!-- dir_2c9b97b4f1c6301ab3fde0957b899ea3&#45;&gt;dir_a622c5bdfd738cd0e4990bbfd2314a8c -->
<g id="edge25" class="edge">
<title>dir_2c9b97b4f1c6301ab3fde0957b899ea3&#45;&gt;dir_a622c5bdfd738cd0e4990bbfd2314a8c</title>
<g id="a_edge25"><a xlink:href="dir_000012_000005.html" target="_top">
<path fill="none" stroke="#63b8ff" d="M269.81,-180.74C286.95,-154.87 337.56,-78.48 360.48,-43.88"/>
<polygon fill="#63b8ff" stroke="#63b8ff" points="363.56,-45.58 366.16,-35.31 357.72,-41.71 363.56,-45.58"/>
</a>
</g>
<g id="a_edge25&#45;headlabel"><a xlink:href="dir_000012_000005.html" target="_top" xlink:title="7">
<text text-anchor="middle" x="363.94" y="-47.64" font-family="Helvetica,sans-Serif" font-size="10.00" fill="#63b8ff">7</text>
</a>
</g>
</g>
<!-- dir_2c9b97b4f1c6301ab3fde0957b899ea3&#45;&gt;dir_a9daaf6619208f31e1f862e20a2aea68 -->
<g id="edge26" class="edge">
<title>dir_2c9b97b4f1c6301ab3fde0957b899ea3&#45;&gt;dir_a9daaf6619208f31e1f862e20a2aea68</title>
<g id="a_edge26"><a xlink:href="dir_000012_000004.html" target="_top">
<path fill="none" stroke="#63b8ff" d="M267.65,-180.95C272.43,-168.43 279.39,-144.59 272,-126 267.48,-114.63 258.53,-104.48 250.04,-96.76"/>
<polygon fill="#63b8ff" stroke="#63b8ff" points="252.11,-93.92 242.21,-90.14 247.59,-99.27 252.11,-93.92"/>
</a>
</g>
<g id="a_edge26&#45;headlabel"><a xlink:href="dir_000012_000004.html" target="_top" xlink:title="3">
<text text-anchor="middle" x="256.68" y="-91.57" font-family="Helvetica,sans-Serif" font-size="10.00" fill="#63b8ff">3</text>
</a>
</g>
</g>
<!-- dir_2c9b97b4f1c6301ab3fde0957b899ea3&#45;&gt;dir_d2ba98c9ffd9b7f188bc8ddaba5db254 -->
<g id="edge27" class="edge">
<title>dir_2c9b97b4f1c6301ab3fde0957b899ea3&#45;&gt;dir_d2ba98c9ffd9b7f188bc8ddaba5db254</title>
<g id="a_edge27"><a xlink:href="dir_000012_000009.html" target="_top">
<path fill="none" stroke="#63b8ff" d="M250.85,-180.98C242.18,-173.53 231.36,-162.49 223.5,-153.27"/>
<polygon fill="#63b8ff" stroke="#63b8ff" points="226,-150.8 217.03,-145.17 220.53,-155.17 226,-150.8"/>
</a>
</g>
<g id="a_edge27&#45;headlabel"><a xlink:href="dir_000012_000009.html" target="_top" xlink:title="1">
<text text-anchor="middle" x="230.46" y="-149.34" font-family="Helvetica,sans-Serif" font-size="10.00" fill="#63b8ff">1</text>
</a>
</g>
</g>
</g>
</svg>
