<?xml version="1.0" encoding="UTF-8" standalone="no"?>
<!DOCTYPE svg PUBLIC "-//W3C//DTD SVG 1.1//EN"
 "http://www.w3.org/Graphics/SVG/1.1/DTD/svg11.dtd">
<!-- Generated by graphviz version 2.43.0 (0)
 -->
<!-- Title: src/lib Pages: 1 -->
<!--zoomable 259 -->

<svg id="main" version="1.1" xmlns="http://www.w3.org/2000/svg" xmlns:xlink="http://www.w3.org/1999/xlink" xml:space="preserve" onload="init(evt)">
<style type="text/css"><![CDATA[
.node, .edge {opacity: 0.7;}
.node.selected, .edge.selected {opacity: 1;}
.edge:hover path { stroke: red; }
.edge:hover polygon { stroke: red; fill: red; }
]]></style>

<defs>
  <circle id="rim" cx="0" cy="0" r="7"/>
  <circle id="rim2" cx="0" cy="0" r="3.5"/>
  <g id="zoomPlus">
    <use xlink:href="#rim" fill="#404040"><set attributeName="fill" to="#808080" begin="zoomplus.mouseover" end="zoomplus.mouseout"/></use>
    <path d="M-4,0h8M0,-4v8" fill="none" stroke="white" stroke-width="1.5" pointer-events="none"/>
  </g>
  <g id="zoomMin">
    <use xlink:href="#rim" fill="#404040"><set attributeName="fill" to="#808080" begin="zoomminus.mouseover" end="zoomminus.mouseout"/></use>
    <path d="M-4,0h8" fill="none" stroke="white" stroke-width="1.5" pointer-events="none"/>
  </g>
  <g id="arrowUp" transform="translate(30 24)">
    <use xlink:href="#rim"/>
    <path pointer-events="none" fill="none" stroke="white" stroke-width="1.5" d="M0,-3.0v7 M-2.5,-0.5L0,-3.0L2.5,-0.5"/>
  </g>
  <g id="arrowRight" transform="rotate(90) translate(36 -43)">
    <use xlink:href="#rim"/>
    <path pointer-events="none" fill="none" stroke="white" stroke-width="1.5" d="M0,-3.0v7 M-2.5,-0.5L0,-3.0L2.5,-0.5"/>
  </g>
  <g id="arrowDown" transform="rotate(180) translate(-30 -48)">
    <use xlink:href="#rim"/>
    <path pointer-events="none" fill="none" stroke="white" stroke-width="1.5" d="M0,-3.0v7 M-2.5,-0.5L0,-3.0L2.5,-0.5"/>
  </g>
  <g id="arrowLeft" transform="rotate(270) translate(-36 17)">
    <use xlink:href="#rim"/>
    <path pointer-events="none" fill="none" stroke="white" stroke-width="1.5" d="M0,-3.0v7 M-2.5,-0.5L0,-3.0L2.5,-0.5"/>
  </g>
  <g id="resetDef">
    <use xlink:href="#rim2" fill="#404040"><set attributeName="fill" to="#808080" begin="reset.mouseover" end="reset.mouseout"/></use>
  </g>
</defs>
<script type="application/ecmascript">
var viewWidth = 642;
var viewHeight = 259;
var sectionId = 'dynsection-0';
</script>
<script type="application/ecmascript" xlink:href="svg.min.js"/>
<svg id="graph" class="graph">
<g id="viewport">
<title>src/lib</title>
<g id="clust1" class="cluster">
<title>clusterdir_68267d1309a1af8e8297ef4c3efbcdba</title>
<g id="a_clust1"><a xlink:href="dir_68267d1309a1af8e8297ef4c3efbcdba.html" target="_top" xlink:title="src">
<polygon fill="#edf0f7" stroke="#404040" stroke-dasharray="5,2" points="8,-8 8,-243 626,-243 626,-8 8,-8"/>
<text text-anchor="middle" x="317" y="-231" font-family="Helvetica,sans-Serif" font-size="10.00">src</text>
</a>
</g>
</g>
<g id="clust2" class="cluster">
<title>clusterdir_c85d3e3c5052e9ad9ce18c6863244a25</title>
<g id="a_clust2"><a xlink:href="dir_c85d3e3c5052e9ad9ce18c6863244a25.html" target="_top">
<polygon fill="#edf0f7" stroke="#404040" stroke-width="2" points="16,-16 16,-216 618,-216 618,-16 16,-16"/>
</a>
</g>
</g>
<!-- dir_c85d3e3c5052e9ad9ce18c6863244a25 -->
<g id="node1" class="node">
<title>dir_c85d3e3c5052e9ad9ce18c6863244a25</title>
<text text-anchor="middle" x="328" y="-196" font-family="Helvetica,sans-Serif" font-size="10.00">lib</text>
</g>
<!-- dir_e0686263133896cec8318639fc211ff2 -->
<g id="node2" class="node">
<title>dir_e0686263133896cec8318639fc211ff2</title>
<g id="a_node2"><a xlink:href="dir_e0686263133896cec8318639fc211ff2.html" target="_top" xlink:title="bitstreamGeneration">
<polygon fill="#a2b4d6" stroke="#404040" points="162,-153 44,-153 44,-134 162,-134 162,-153"/>
<text text-anchor="middle" x="103" y="-141" font-family="Helvetica,sans-Serif" font-size="10.00">bitstreamGeneration</text>
</a>
</g>
</g>
<!-- dir_c85d3e3c5052e9ad9ce18c6863244a25&#45;&gt;dir_e0686263133896cec8318639fc211ff2 -->
<g id="edge7" class="edge">
<title>dir_c85d3e3c5052e9ad9ce18c6863244a25&#45;&gt;dir_e0686263133896cec8318639fc211ff2</title>
<g id="a_edge7"><a xlink:href="dir_000004_000001.html" target="_top">
<path fill="none" stroke="#63b8ff" d="M313.24,-194.02C280.42,-186.29 200.29,-167.42 148.98,-155.33"/>
<polygon fill="#63b8ff" stroke="#63b8ff" points="149.66,-151.89 139.12,-153.01 148.05,-158.71 149.66,-151.89"/>
</a>
</g>
<g id="a_edge7&#45;headlabel"><a xlink:href="dir_000004_000001.html" target="_top" xlink:title="1">
<text text-anchor="middle" x="153.8" y="-147.45" font-family="Helvetica,sans-Serif" font-size="10.00" fill="#63b8ff">1</text>
</a>
</g>
</g>
<!-- dir_a6de617209e7dfe1dba6aa99bb75c990 -->
<g id="node3" class="node">
<title>dir_a6de617209e7dfe1dba6aa99bb75c990</title>
<g id="a_node3"><a xlink:href="dir_a6de617209e7dfe1dba6aa99bb75c990.html" target="_top" xlink:title="include">
<polygon fill="#a2b4d6" stroke="#404040" points="335,-43 283,-43 283,-24 335,-24 335,-43"/>
<text text-anchor="middle" x="309" y="-31" font-family="Helvetica,sans-Serif" font-size="10.00">include</text>
</a>
</g>
</g>
<!-- dir_c85d3e3c5052e9ad9ce18c6863244a25&#45;&gt;dir_a6de617209e7dfe1dba6aa99bb75c990 -->
<g id="edge5" class="edge">
<title>dir_c85d3e3c5052e9ad9ce18c6863244a25&#45;&gt;dir_a6de617209e7dfe1dba6aa99bb75c990</title>
<g id="a_edge5"><a xlink:href="dir_000004_000003.html" target="_top">
<path fill="none" stroke="#63b8ff" d="M313.34,-197.66C259.18,-197.91 71.64,-195.63 35,-153 -34.31,-72.37 183.45,-44.87 272.67,-37.12"/>
<polygon fill="#63b8ff" stroke="#63b8ff" points="273.21,-40.59 282.89,-36.28 272.63,-33.62 273.21,-40.59"/>
</a>
</g>
<g id="a_edge5&#45;headlabel"><a xlink:href="dir_000004_000003.html" target="_top" xlink:title="59">
<text text-anchor="middle" x="269.86" y="-41.22" font-family="Helvetica,sans-Serif" font-size="10.00" fill="#63b8ff">59</text>
</a>
</g>
</g>
<!-- dir_a829c0b1e95d10093ffb95db4b979f49 -->
<g id="node4" class="node">
<title>dir_a829c0b1e95d10093ffb95db4b979f49</title>
<g id="a_node4"><a xlink:href="dir_a829c0b1e95d10093ffb95db4b979f49.html" target="_top" xlink:title="mapEncoding">
<polygon fill="#a2b4d6" stroke="#404040" points="263.5,-153 180.5,-153 180.5,-134 263.5,-134 263.5,-153"/>
<text text-anchor="middle" x="222" y="-141" font-family="Helvetica,sans-Serif" font-size="10.00">mapEncoding</text>
</a>
</g>
</g>
<!-- dir_c85d3e3c5052e9ad9ce18c6863244a25&#45;&gt;dir_a829c0b1e95d10093ffb95db4b979f49 -->
<g id="edge6" class="edge">
<title>dir_c85d3e3c5052e9ad9ce18c6863244a25&#45;&gt;dir_a829c0b1e95d10093ffb95db4b979f49</title>
<g id="a_edge6"><a xlink:href="dir_000004_000005.html" target="_top">
<path fill="none" stroke="#63b8ff" d="M313.26,-190.13C296.47,-181.73 268.69,-167.85 248.19,-157.6"/>
<polygon fill="#63b8ff" stroke="#63b8ff" points="249.58,-154.38 239.07,-153.03 246.45,-160.64 249.58,-154.38"/>
</a>
</g>
<g id="a_edge6&#45;headlabel"><a xlink:href="dir_000004_000005.html" target="_top" xlink:title="1">
<text text-anchor="middle" x="254.06" y="-150.94" font-family="Helvetica,sans-Serif" font-size="10.00" fill="#63b8ff">1</text>
</a>
</g>
</g>
<!-- dir_66f7d0aed3c1c0d9771fd7d6cbedbd3f -->
<g id="node5" class="node">
<title>dir_66f7d0aed3c1c0d9771fd7d6cbedbd3f</title>
<g id="a_node5"><a xlink:href="dir_66f7d0aed3c1c0d9771fd7d6cbedbd3f.html" target="_top" xlink:title="mapGeneration">
<polygon fill="#a2b4d6" stroke="#404040" points="374,-153 282,-153 282,-134 374,-134 374,-153"/>
<text text-anchor="middle" x="328" y="-141" font-family="Helvetica,sans-Serif" font-size="10.00">mapGeneration</text>
</a>
</g>
</g>
<!-- dir_c85d3e3c5052e9ad9ce18c6863244a25&#45;&gt;dir_66f7d0aed3c1c0d9771fd7d6cbedbd3f -->
<g id="edge3" class="edge">
<title>dir_c85d3e3c5052e9ad9ce18c6863244a25&#45;&gt;dir_66f7d0aed3c1c0d9771fd7d6cbedbd3f</title>
<g id="a_edge3"><a xlink:href="dir_000004_000006.html" target="_top">
<path fill="none" stroke="#63b8ff" d="M328,-188.75C328,-181.8 328,-171.85 328,-163.13"/>
<polygon fill="#63b8ff" stroke="#63b8ff" points="331.5,-163.09 328,-153.09 324.5,-163.09 331.5,-163.09"/>
</a>
</g>
<g id="a_edge3&#45;headlabel"><a xlink:href="dir_000004_000006.html" target="_top" xlink:title="1">
<text text-anchor="middle" x="334.34" y="-164.18" font-family="Helvetica,sans-Serif" font-size="10.00" fill="#63b8ff">1</text>
</a>
</g>
</g>
<!-- dir_162bc35208f30672811e47a7919aed40 -->
<g id="node6" class="node">
<title>dir_162bc35208f30672811e47a7919aed40</title>
<g id="a_node6"><a xlink:href="dir_162bc35208f30672811e47a7919aed40.html" target="_top" xlink:title="patchGeneration">
<polygon fill="#a2b4d6" stroke="#404040" points="510,-153 412,-153 412,-134 510,-134 510,-153"/>
<text text-anchor="middle" x="461" y="-141" font-family="Helvetica,sans-Serif" font-size="10.00">patchGeneration</text>
</a>
</g>
</g>
<!-- dir_c85d3e3c5052e9ad9ce18c6863244a25&#45;&gt;dir_162bc35208f30672811e47a7919aed40 -->
<g id="edge1" class="edge">
<title>dir_c85d3e3c5052e9ad9ce18c6863244a25&#45;&gt;dir_162bc35208f30672811e47a7919aed40</title>
<g id="a_edge1"><a xlink:href="dir_000004_000007.html" target="_top">
<path fill="none" stroke="#63b8ff" d="M342.74,-191.63C363.7,-183.27 402.62,-167.76 430.08,-156.82"/>
<polygon fill="#63b8ff" stroke="#63b8ff" points="431.62,-159.97 439.62,-153.02 429.03,-153.47 431.62,-159.97"/>
</a>
</g>
<g id="a_edge1&#45;headlabel"><a xlink:href="dir_000004_000007.html" target="_top" xlink:title="2">
<text text-anchor="middle" x="429.34" y="-161.44" font-family="Helvetica,sans-Serif" font-size="10.00" fill="#63b8ff">2</text>
</a>
</g>
</g>
<!-- dir_1968a8b7244e276db216d19e0f588724 -->
<g id="node7" class="node">
<title>dir_1968a8b7244e276db216d19e0f588724</title>
<g id="a_node7"><a xlink:href="dir_1968a8b7244e276db216d19e0f588724.html" target="_top" xlink:title="patchPacking">
<polygon fill="#a2b4d6" stroke="#404040" points="609.5,-153 528.5,-153 528.5,-134 609.5,-134 609.5,-153"/>
<text text-anchor="middle" x="569" y="-141" font-family="Helvetica,sans-Serif" font-size="10.00">patchPacking</text>
</a>
</g>
</g>
<!-- dir_c85d3e3c5052e9ad9ce18c6863244a25&#45;&gt;dir_1968a8b7244e276db216d19e0f588724 -->
<g id="edge2" class="edge">
<title>dir_c85d3e3c5052e9ad9ce18c6863244a25&#45;&gt;dir_1968a8b7244e276db216d19e0f588724</title>
<g id="a_edge2"><a xlink:href="dir_000004_000008.html" target="_top">
<path fill="none" stroke="#63b8ff" d="M342.71,-194.26C377.25,-186.67 464.79,-167.42 520.31,-155.21"/>
<polygon fill="#63b8ff" stroke="#63b8ff" points="521.27,-158.58 530.28,-153.01 519.77,-151.74 521.27,-158.58"/>
</a>
</g>
<g id="a_edge2&#45;headlabel"><a xlink:href="dir_000004_000008.html" target="_top" xlink:title="1">
<text text-anchor="middle" x="518.37" y="-159.63" font-family="Helvetica,sans-Serif" font-size="10.00" fill="#63b8ff">1</text>
</a>
</g>
</g>
<!-- dir_87d18a4dc5174905bfd7d2dc734defe6 -->
<g id="node8" class="node">
<title>dir_87d18a4dc5174905bfd7d2dc734defe6</title>
<g id="a_node8"><a xlink:href="dir_87d18a4dc5174905bfd7d2dc734defe6.html" target="_top" xlink:title="utils">
<polygon fill="#a2b4d6" stroke="#404040" points="366,-98 328,-98 328,-79 366,-79 366,-98"/>
<text text-anchor="middle" x="347" y="-86" font-family="Helvetica,sans-Serif" font-size="10.00">utils</text>
</a>
</g>
</g>
<!-- dir_c85d3e3c5052e9ad9ce18c6863244a25&#45;&gt;dir_87d18a4dc5174905bfd7d2dc734defe6 -->
<g id="edge4" class="edge">
<title>dir_c85d3e3c5052e9ad9ce18c6863244a25&#45;&gt;dir_87d18a4dc5174905bfd7d2dc734defe6</title>
<g id="a_edge4"><a xlink:href="dir_000004_000010.html" target="_top">
<path fill="none" stroke="#63b8ff" d="M342.59,-190.49C355.89,-183.2 374.69,-170.4 383,-153 390.96,-136.33 378.18,-118.06 365.71,-105.41"/>
<polygon fill="#63b8ff" stroke="#63b8ff" points="367.85,-102.62 358.16,-98.33 363.06,-107.73 367.85,-102.62"/>
</a>
</g>
<g id="a_edge4&#45;headlabel"><a xlink:href="dir_000004_000010.html" target="_top" xlink:title="48">
<text text-anchor="middle" x="372.41" y="-100.52" font-family="Helvetica,sans-Serif" font-size="10.00" fill="#63b8ff">48</text>
</a>
</g>
</g>
<!-- dir_e0686263133896cec8318639fc211ff2&#45;&gt;dir_a6de617209e7dfe1dba6aa99bb75c990 -->
<g id="edge9" class="edge">
<title>dir_e0686263133896cec8318639fc211ff2&#45;&gt;dir_a6de617209e7dfe1dba6aa99bb75c990</title>
<g id="a_edge9"><a xlink:href="dir_000001_000003.html" target="_top">
<path fill="none" stroke="#63b8ff" d="M119.51,-133.84C155.46,-115 241.01,-70.14 283.77,-47.73"/>
<polygon fill="#63b8ff" stroke="#63b8ff" points="285.47,-50.79 292.7,-43.05 282.22,-44.59 285.47,-50.79"/>
</a>
</g>
<g id="a_edge9&#45;headlabel"><a xlink:href="dir_000001_000003.html" target="_top" xlink:title="11">
<text text-anchor="middle" x="283.6" y="-52.47" font-family="Helvetica,sans-Serif" font-size="10.00" fill="#63b8ff">11</text>
</a>
</g>
</g>
<!-- dir_e0686263133896cec8318639fc211ff2&#45;&gt;dir_87d18a4dc5174905bfd7d2dc734defe6 -->
<g id="edge8" class="edge">
<title>dir_e0686263133896cec8318639fc211ff2&#45;&gt;dir_87d18a4dc5174905bfd7d2dc734defe6</title>
<g id="a_edge8"><a xlink:href="dir_000001_000010.html" target="_top">
<path fill="none" stroke="#63b8ff" d="M142.2,-133.98C191.24,-123.33 274.06,-105.34 317.84,-95.83"/>
<polygon fill="#63b8ff" stroke="#63b8ff" points="318.81,-99.21 327.84,-93.66 317.32,-92.36 318.81,-99.21"/>
</a>
</g>
<g id="a_edge8&#45;headlabel"><a xlink:href="dir_000001_000010.html" target="_top" xlink:title="8">
<text text-anchor="middle" x="315.9" y="-100.24" font-family="Helvetica,sans-Serif" font-size="10.00" fill="#63b8ff">8</text>
</a>
</g>
</g>
<!-- dir_a829c0b1e95d10093ffb95db4b979f49&#45;&gt;dir_a6de617209e7dfe1dba6aa99bb75c990 -->
<g id="edge11" class="edge">
<title>dir_a829c0b1e95d10093ffb95db4b979f49&#45;&gt;dir_a6de617209e7dfe1dba6aa99bb75c990</title>
<g id="a_edge11"><a xlink:href="dir_000005_000003.html" target="_top">
<path fill="none" stroke="#63b8ff" d="M229.12,-133.66C243.66,-115.61 276.96,-74.28 295.65,-51.08"/>
<polygon fill="#63b8ff" stroke="#63b8ff" points="298.48,-53.14 302.03,-43.16 293.03,-48.75 298.48,-53.14"/>
</a>
</g>
<g id="a_edge11&#45;headlabel"><a xlink:href="dir_000005_000003.html" target="_top" xlink:title="10">
<text text-anchor="middle" x="298.43" y="-55.22" font-family="Helvetica,sans-Serif" font-size="10.00" fill="#63b8ff">10</text>
</a>
</g>
</g>
<!-- dir_a829c0b1e95d10093ffb95db4b979f49&#45;&gt;dir_87d18a4dc5174905bfd7d2dc734defe6 -->
<g id="edge10" class="edge">
<title>dir_a829c0b1e95d10093ffb95db4b979f49&#45;&gt;dir_87d18a4dc5174905bfd7d2dc734defe6</title>
<g id="a_edge10"><a xlink:href="dir_000005_000010.html" target="_top">
<path fill="none" stroke="#63b8ff" d="M242.08,-133.98C262.74,-125.23 295.09,-111.51 318.41,-101.62"/>
<polygon fill="#63b8ff" stroke="#63b8ff" points="319.95,-104.77 327.79,-97.65 317.21,-98.33 319.95,-104.77"/>
</a>
</g>
<g id="a_edge10&#45;headlabel"><a xlink:href="dir_000005_000010.html" target="_top" xlink:title="5">
<text text-anchor="middle" x="317.75" y="-106.29" font-family="Helvetica,sans-Serif" font-size="10.00" fill="#63b8ff">5</text>
</a>
</g>
</g>
<!-- dir_66f7d0aed3c1c0d9771fd7d6cbedbd3f&#45;&gt;dir_a6de617209e7dfe1dba6aa99bb75c990 -->
<g id="edge13" class="edge">
<title>dir_66f7d0aed3c1c0d9771fd7d6cbedbd3f&#45;&gt;dir_a6de617209e7dfe1dba6aa99bb75c990</title>
<g id="a_edge13"><a xlink:href="dir_000006_000003.html" target="_top">
<path fill="none" stroke="#63b8ff" d="M326.16,-133.99C324.26,-125.05 321.26,-110.57 319,-98 316.31,-83.03 313.65,-66 311.75,-53.35"/>
<polygon fill="#63b8ff" stroke="#63b8ff" points="315.17,-52.53 310.24,-43.15 308.24,-53.55 315.17,-52.53"/>
</a>
</g>
<g id="a_edge13&#45;headlabel"><a xlink:href="dir_000006_000003.html" target="_top" xlink:title="6">
<text text-anchor="middle" x="318.5" y="-53.17" font-family="Helvetica,sans-Serif" font-size="10.00" fill="#63b8ff">6</text>
</a>
</g>
</g>
<!-- dir_66f7d0aed3c1c0d9771fd7d6cbedbd3f&#45;&gt;dir_87d18a4dc5174905bfd7d2dc734defe6 -->
<g id="edge12" class="edge">
<title>dir_66f7d0aed3c1c0d9771fd7d6cbedbd3f&#45;&gt;dir_87d18a4dc5174905bfd7d2dc734defe6</title>
<g id="a_edge12"><a xlink:href="dir_000006_000010.html" target="_top">
<path fill="none" stroke="#63b8ff" d="M331.14,-133.75C333.68,-126.65 337.36,-116.4 340.53,-107.56"/>
<polygon fill="#63b8ff" stroke="#63b8ff" points="343.84,-108.68 343.92,-98.09 337.25,-106.32 343.84,-108.68"/>
</a>
</g>
<g id="a_edge12&#45;headlabel"><a xlink:href="dir_000006_000010.html" target="_top" xlink:title="5">
<text text-anchor="middle" x="345.3" y="-110.53" font-family="Helvetica,sans-Serif" font-size="10.00" fill="#63b8ff">5</text>
</a>
</g>
</g>
<!-- dir_162bc35208f30672811e47a7919aed40&#45;&gt;dir_a6de617209e7dfe1dba6aa99bb75c990 -->
<g id="edge15" class="edge">
<title>dir_162bc35208f30672811e47a7919aed40&#45;&gt;dir_a6de617209e7dfe1dba6aa99bb75c990</title>
<g id="a_edge15"><a xlink:href="dir_000007_000003.html" target="_top">
<path fill="none" stroke="#63b8ff" d="M449.71,-133.92C433.37,-121.57 402.14,-98.16 375,-79 360.46,-68.74 343.85,-57.54 330.94,-48.95"/>
<polygon fill="#63b8ff" stroke="#63b8ff" points="332.53,-45.81 322.26,-43.2 328.66,-51.64 332.53,-45.81"/>
</a>
</g>
<g id="a_edge15&#45;headlabel"><a xlink:href="dir_000007_000003.html" target="_top" xlink:title="18">
<text text-anchor="middle" x="337.1" y="-42.93" font-family="Helvetica,sans-Serif" font-size="10.00" fill="#63b8ff">18</text>
</a>
</g>
</g>
<!-- dir_162bc35208f30672811e47a7919aed40&#45;&gt;dir_87d18a4dc5174905bfd7d2dc734defe6 -->
<g id="edge14" class="edge">
<title>dir_162bc35208f30672811e47a7919aed40&#45;&gt;dir_87d18a4dc5174905bfd7d2dc734defe6</title>
<g id="a_edge14"><a xlink:href="dir_000007_000010.html" target="_top">
<path fill="none" stroke="#63b8ff" d="M442.68,-133.98C424.34,-125.46 395.89,-112.23 374.77,-102.41"/>
<polygon fill="#63b8ff" stroke="#63b8ff" points="376.19,-99.21 365.65,-98.17 373.24,-105.56 376.19,-99.21"/>
</a>
</g>
<g id="a_edge14&#45;headlabel"><a xlink:href="dir_000007_000010.html" target="_top" xlink:title="23">
<text text-anchor="middle" x="380.65" y="-95.65" font-family="Helvetica,sans-Serif" font-size="10.00" fill="#63b8ff">23</text>
</a>
</g>
</g>
<!-- dir_1968a8b7244e276db216d19e0f588724&#45;&gt;dir_a6de617209e7dfe1dba6aa99bb75c990 -->
<g id="edge17" class="edge">
<title>dir_1968a8b7244e276db216d19e0f588724&#45;&gt;dir_a6de617209e7dfe1dba6aa99bb75c990</title>
<g id="a_edge17"><a xlink:href="dir_000008_000003.html" target="_top">
<path fill="none" stroke="#63b8ff" d="M548.16,-133.84C502.22,-114.76 392.08,-69.01 338.83,-46.89"/>
<polygon fill="#63b8ff" stroke="#63b8ff" points="340.15,-43.65 329.58,-43.05 337.47,-50.12 340.15,-43.65"/>
</a>
</g>
<g id="a_edge17&#45;headlabel"><a xlink:href="dir_000008_000003.html" target="_top" xlink:title="3">
<text text-anchor="middle" x="344.56" y="-39.91" font-family="Helvetica,sans-Serif" font-size="10.00" fill="#63b8ff">3</text>
</a>
</g>
</g>
<!-- dir_1968a8b7244e276db216d19e0f588724&#45;&gt;dir_87d18a4dc5174905bfd7d2dc734defe6 -->
<g id="edge16" class="edge">
<title>dir_1968a8b7244e276db216d19e0f588724&#45;&gt;dir_87d18a4dc5174905bfd7d2dc734defe6</title>
<g id="a_edge16"><a xlink:href="dir_000008_000010.html" target="_top">
<path fill="none" stroke="#63b8ff" d="M533.33,-133.98C489.58,-123.54 416.28,-106.04 375.88,-96.4"/>
<polygon fill="#63b8ff" stroke="#63b8ff" points="376.67,-92.98 366.13,-94.07 375.04,-99.79 376.67,-92.98"/>
</a>
</g>
<g id="a_edge16&#45;headlabel"><a xlink:href="dir_000008_000010.html" target="_top" xlink:title="2">
<text text-anchor="middle" x="380.82" y="-88.56" font-family="Helvetica,sans-Serif" font-size="10.00" fill="#63b8ff">2</text>
</a>
</g>
</g>
<!-- dir_87d18a4dc5174905bfd7d2dc734defe6&#45;&gt;dir_a6de617209e7dfe1dba6aa99bb75c990 -->
<g id="edge18" class="edge">
<title>dir_87d18a4dc5174905bfd7d2dc734defe6&#45;&gt;dir_a6de617209e7dfe1dba6aa99bb75c990</title>
<g id="a_edge18"><a xlink:href="dir_000010_000003.html" target="_top">
<path fill="none" stroke="#63b8ff" d="M340.73,-78.75C335.41,-71.34 327.64,-60.5 321.12,-51.41"/>
<polygon fill="#63b8ff" stroke="#63b8ff" points="323.83,-49.18 315.16,-43.09 318.14,-53.26 323.83,-49.18"/>
</a>
</g>
<g id="a_edge18&#45;headlabel"><a xlink:href="dir_000010_000003.html" target="_top" xlink:title="9">
<text text-anchor="middle" x="328.23" y="-47.94" font-family="Helvetica,sans-Serif" font-size="10.00" fill="#63b8ff">9</text>
</a>
</g>
</g>
</g>
</svg>

<g id="navigator" transform="translate(0 0)" fill="#404254">
  <rect fill="#f2f5e9" fill-opacity="0.5" stroke="#606060" stroke-width=".5" x="0" y="0" width="60" height="60"/>
  <use id="zoomplus" xlink:href="#zoomPlus" x="17" y="9" onmousedown="handleZoom(evt,'in')"/>
  <use id="zoomminus" xlink:href="#zoomMin" x="42" y="9" onmousedown="handleZoom(evt,'out')"/>
  <use id="reset" xlink:href="#resetDef" x="30" y="36" onmousedown="handleReset()"/>
   <use id="arrowup" xlink:href="#arrowUp" x="0" y="0" onmousedown="handlePan(0,-1)"/>
  <use id="arrowright" xlink:href="#arrowRight" x="0" y="0" onmousedown="handlePan(1,0)"/>
  <use id="arrowdown" xlink:href="#arrowDown" x="0" y="0" onmousedown="handlePan(0,1)"/>
  <use id="arrowleft" xlink:href="#arrowLeft" x="0" y="0" onmousedown="handlePan(-1,0)"/>
</g>
<svg viewBox="0 0 15 15" width="100%" height="30px" preserveAspectRatio="xMaxYMin meet">
 <g id="arrow_out" transform="scale(0.3 0.3)">
  <a xlink:href="dir_c85d3e3c5052e9ad9ce18c6863244a25_dep_org.svg" target="_base">
   <rect id="button" ry="5" rx="5" y="6" x="6" height="38" width="38"
        fill="#f2f5e9" fill-opacity="0.5" stroke="#606060" stroke-width="1.0"/>
   <path id="arrow"
     d="M 11.500037,31.436501 C 11.940474,20.09759 22.043105,11.32322 32.158766,21.979434 L 37.068811,17.246167 C 37.068811,17.246167 37.088388,32 37.088388,32 L 22.160133,31.978069 C 22.160133,31.978069 26.997745,27.140456 26.997745,27.140456 C 18.528582,18.264221 13.291696,25.230495 11.500037,31.436501 z"
     style="fill:#404040;"/>
  </a>
 </g>
</svg>

<style type='text/css'>
<![CDATA[
[data-mouse-over-selected='false'] { opacity: 0.7; }
[data-mouse-over-selected='true']  { opacity: 1.0; }
]]>
</style>
<script type="application/ecmascript"><![CDATA[
document.addEventListener('DOMContentLoaded', (event) => {
  highlightEdges();
  highlightAdjacentNodes();
});
]]></script>
</svg>
