<?xml version="1.0" encoding="UTF-8" standalone="no"?>
<!DOCTYPE svg PUBLIC "-//W3C//DTD SVG 1.1//EN"
 "http://www.w3.org/Graphics/SVG/1.1/DTD/svg11.dtd">
<!-- Generated by graphviz version 2.43.0 (0)
 -->
<!-- Title: src/lib Pages: 1 -->
<svg width="526pt" height="259pt"
 viewBox="0.00 0.00 526.00 259.00" xmlns="http://www.w3.org/2000/svg" xmlns:xlink="http://www.w3.org/1999/xlink">
<g id="graph0" class="graph" transform="scale(1 1) rotate(0) translate(4 255)">
<title>src/lib</title>
<g id="clust1" class="cluster">
<title>clusterdir_68267d1309a1af8e8297ef4c3efbcdba</title>
<g id="a_clust1"><a xlink:href="dir_68267d1309a1af8e8297ef4c3efbcdba.html" target="_top" xlink:title="src">
<polygon fill="#edf0f7" stroke="#404040" stroke-dasharray="5,2" points="8,-8 8,-243 510,-243 510,-8 8,-8"/>
<text text-anchor="middle" x="259" y="-231" font-family="Helvetica,sans-Serif" font-size="10.00">src</text>
</a>
</g>
</g>
<g id="clust2" class="cluster">
<title>clusterdir_c85d3e3c5052e9ad9ce18c6863244a25</title>
<g id="a_clust2"><a xlink:href="dir_c85d3e3c5052e9ad9ce18c6863244a25.html" target="_top">
<polygon fill="#edf0f7" stroke="#404040" stroke-width="2" points="16,-16 16,-216 502,-216 502,-16 16,-16"/>
</a>
</g>
</g>
<!-- dir_c85d3e3c5052e9ad9ce18c6863244a25 -->
<g id="node1" class="node">
<title>dir_c85d3e3c5052e9ad9ce18c6863244a25</title>
<text text-anchor="middle" x="212" y="-196" font-family="Helvetica,sans-Serif" font-size="10.00">lib</text>
</g>
<!-- dir_e0686263133896cec8318639fc211ff2 -->
<g id="node2" class="node">
<title>dir_e0686263133896cec8318639fc211ff2</title>
<g id="a_node2"><a xlink:href="dir_e0686263133896cec8318639fc211ff2.html" target="_top" xlink:title="bitstreamGeneration">
<polygon fill="#a2b4d6" stroke="#404040" points="142,-98 24,-98 24,-79 142,-79 142,-98"/>
<text text-anchor="middle" x="83" y="-86" font-family="Helvetica,sans-Serif" font-size="10.00">bitstreamGeneration</text>
</a>
</g>
</g>
<!-- dir_c85d3e3c5052e9ad9ce18c6863244a25&#45;&gt;dir_e0686263133896cec8318639fc211ff2 -->
<g id="edge7" class="edge">
<title>dir_c85d3e3c5052e9ad9ce18c6863244a25&#45;&gt;dir_e0686263133896cec8318639fc211ff2</title>
<g id="a_edge7"><a xlink:href="dir_000004_000001.html" target="_top">
<path fill="none" stroke="#63b8ff" d="M197.38,-195.98C159.45,-191.69 59.5,-178.18 40,-153 27.58,-136.95 45.19,-117.5 61.48,-104.39"/>
<polygon fill="#63b8ff" stroke="#63b8ff" points="63.85,-106.99 69.71,-98.16 59.62,-101.41 63.85,-106.99"/>
</a>
</g>
<g id="a_edge7&#45;headlabel"><a xlink:href="dir_000004_000001.html" target="_top" xlink:title="1">
<text text-anchor="middle" x="62.69" y="-108.92" font-family="Helvetica,sans-Serif" font-size="10.00" fill="#63b8ff">1</text>
</a>
</g>
</g>
<!-- dir_a6de617209e7dfe1dba6aa99bb75c990 -->
<g id="node3" class="node">
<title>dir_a6de617209e7dfe1dba6aa99bb75c990</title>
<g id="a_node3"><a xlink:href="dir_a6de617209e7dfe1dba6aa99bb75c990.html" target="_top" xlink:title="include">
<polygon fill="#a2b4d6" stroke="#404040" points="238,-43 186,-43 186,-24 238,-24 238,-43"/>
<text text-anchor="middle" x="212" y="-31" font-family="Helvetica,sans-Serif" font-size="10.00">include</text>
</a>
</g>
</g>
<!-- dir_c85d3e3c5052e9ad9ce18c6863244a25&#45;&gt;dir_a6de617209e7dfe1dba6aa99bb75c990 -->
<g id="edge5" class="edge">
<title>dir_c85d3e3c5052e9ad9ce18c6863244a25&#45;&gt;dir_a6de617209e7dfe1dba6aa99bb75c990</title>
<g id="a_edge5"><a xlink:href="dir_000004_000003.html" target="_top">
<path fill="none" stroke="#63b8ff" d="M197.45,-195.58C162.09,-190.57 73.3,-175.93 56,-153 17.42,-101.88 79.29,-150.55 151,-98 159.68,-91.64 158.78,-86.98 166,-79 175.13,-68.9 186.05,-58.28 194.97,-49.95"/>
<polygon fill="#63b8ff" stroke="#63b8ff" points="197.5,-52.37 202.48,-43.02 192.75,-47.23 197.5,-52.37"/>
</a>
</g>
<g id="a_edge5&#45;headlabel"><a xlink:href="dir_000004_000003.html" target="_top" xlink:title="51">
<text text-anchor="middle" x="196.78" y="-54.4" font-family="Helvetica,sans-Serif" font-size="10.00" fill="#63b8ff">51</text>
</a>
</g>
</g>
<!-- dir_a829c0b1e95d10093ffb95db4b979f49 -->
<g id="node4" class="node">
<title>dir_a829c0b1e95d10093ffb95db4b979f49</title>
<g id="a_node4"><a xlink:href="dir_a829c0b1e95d10093ffb95db4b979f49.html" target="_top" xlink:title="mapEncoding">
<polygon fill="#a2b4d6" stroke="#404040" points="147.5,-153 64.5,-153 64.5,-134 147.5,-134 147.5,-153"/>
<text text-anchor="middle" x="106" y="-141" font-family="Helvetica,sans-Serif" font-size="10.00">mapEncoding</text>
</a>
</g>
</g>
<!-- dir_c85d3e3c5052e9ad9ce18c6863244a25&#45;&gt;dir_a829c0b1e95d10093ffb95db4b979f49 -->
<g id="edge6" class="edge">
<title>dir_c85d3e3c5052e9ad9ce18c6863244a25&#45;&gt;dir_a829c0b1e95d10093ffb95db4b979f49</title>
<g id="a_edge6"><a xlink:href="dir_000004_000005.html" target="_top">
<path fill="none" stroke="#63b8ff" d="M197.26,-190.13C180.47,-181.73 152.69,-167.85 132.19,-157.6"/>
<polygon fill="#63b8ff" stroke="#63b8ff" points="133.58,-154.38 123.07,-153.03 130.45,-160.64 133.58,-154.38"/>
</a>
</g>
<g id="a_edge6&#45;headlabel"><a xlink:href="dir_000004_000005.html" target="_top" xlink:title="1">
<text text-anchor="middle" x="138.06" y="-150.94" font-family="Helvetica,sans-Serif" font-size="10.00" fill="#63b8ff">1</text>
</a>
</g>
</g>
<!-- dir_66f7d0aed3c1c0d9771fd7d6cbedbd3f -->
<g id="node5" class="node">
<title>dir_66f7d0aed3c1c0d9771fd7d6cbedbd3f</title>
<g id="a_node5"><a xlink:href="dir_66f7d0aed3c1c0d9771fd7d6cbedbd3f.html" target="_top" xlink:title="mapGeneration">
<polygon fill="#a2b4d6" stroke="#404040" points="258,-153 166,-153 166,-134 258,-134 258,-153"/>
<text text-anchor="middle" x="212" y="-141" font-family="Helvetica,sans-Serif" font-size="10.00">mapGeneration</text>
</a>
</g>
</g>
<!-- dir_c85d3e3c5052e9ad9ce18c6863244a25&#45;&gt;dir_66f7d0aed3c1c0d9771fd7d6cbedbd3f -->
<g id="edge3" class="edge">
<title>dir_c85d3e3c5052e9ad9ce18c6863244a25&#45;&gt;dir_66f7d0aed3c1c0d9771fd7d6cbedbd3f</title>
<g id="a_edge3"><a xlink:href="dir_000004_000006.html" target="_top">
<path fill="none" stroke="#63b8ff" d="M212,-188.75C212,-181.8 212,-171.85 212,-163.13"/>
<polygon fill="#63b8ff" stroke="#63b8ff" points="215.5,-163.09 212,-153.09 208.5,-163.09 215.5,-163.09"/>
</a>
</g>
<g id="a_edge3&#45;headlabel"><a xlink:href="dir_000004_000006.html" target="_top" xlink:title="1">
<text text-anchor="middle" x="218.34" y="-164.18" font-family="Helvetica,sans-Serif" font-size="10.00" fill="#63b8ff">1</text>
</a>
</g>
</g>
<!-- dir_162bc35208f30672811e47a7919aed40 -->
<g id="node6" class="node">
<title>dir_162bc35208f30672811e47a7919aed40</title>
<g id="a_node6"><a xlink:href="dir_162bc35208f30672811e47a7919aed40.html" target="_top" xlink:title="patchGeneration">
<polygon fill="#a2b4d6" stroke="#404040" points="394,-153 296,-153 296,-134 394,-134 394,-153"/>
<text text-anchor="middle" x="345" y="-141" font-family="Helvetica,sans-Serif" font-size="10.00">patchGeneration</text>
</a>
</g>
</g>
<!-- dir_c85d3e3c5052e9ad9ce18c6863244a25&#45;&gt;dir_162bc35208f30672811e47a7919aed40 -->
<g id="edge1" class="edge">
<title>dir_c85d3e3c5052e9ad9ce18c6863244a25&#45;&gt;dir_162bc35208f30672811e47a7919aed40</title>
<g id="a_edge1"><a xlink:href="dir_000004_000007.html" target="_top">
<path fill="none" stroke="#63b8ff" d="M226.74,-191.63C247.7,-183.27 286.62,-167.76 314.08,-156.82"/>
<polygon fill="#63b8ff" stroke="#63b8ff" points="315.62,-159.97 323.62,-153.02 313.03,-153.47 315.62,-159.97"/>
</a>
</g>
<g id="a_edge1&#45;headlabel"><a xlink:href="dir_000004_000007.html" target="_top" xlink:title="1">
<text text-anchor="middle" x="313.34" y="-161.44" font-family="Helvetica,sans-Serif" font-size="10.00" fill="#63b8ff">1</text>
</a>
</g>
</g>
<!-- dir_1968a8b7244e276db216d19e0f588724 -->
<g id="node7" class="node">
<title>dir_1968a8b7244e276db216d19e0f588724</title>
<g id="a_node7"><a xlink:href="dir_1968a8b7244e276db216d19e0f588724.html" target="_top" xlink:title="patchPacking">
<polygon fill="#a2b4d6" stroke="#404040" points="493.5,-153 412.5,-153 412.5,-134 493.5,-134 493.5,-153"/>
<text text-anchor="middle" x="453" y="-141" font-family="Helvetica,sans-Serif" font-size="10.00">patchPacking</text>
</a>
</g>
</g>
<!-- dir_c85d3e3c5052e9ad9ce18c6863244a25&#45;&gt;dir_1968a8b7244e276db216d19e0f588724 -->
<g id="edge2" class="edge">
<title>dir_c85d3e3c5052e9ad9ce18c6863244a25&#45;&gt;dir_1968a8b7244e276db216d19e0f588724</title>
<g id="a_edge2"><a xlink:href="dir_000004_000008.html" target="_top">
<path fill="none" stroke="#63b8ff" d="M226.71,-194.26C261.25,-186.67 348.79,-167.42 404.31,-155.21"/>
<polygon fill="#63b8ff" stroke="#63b8ff" points="405.27,-158.58 414.28,-153.01 403.77,-151.74 405.27,-158.58"/>
</a>
</g>
<g id="a_edge2&#45;headlabel"><a xlink:href="dir_000004_000008.html" target="_top" xlink:title="1">
<text text-anchor="middle" x="402.37" y="-159.63" font-family="Helvetica,sans-Serif" font-size="10.00" fill="#63b8ff">1</text>
</a>
</g>
</g>
<!-- dir_87d18a4dc5174905bfd7d2dc734defe6 -->
<g id="node8" class="node">
<title>dir_87d18a4dc5174905bfd7d2dc734defe6</title>
<g id="a_node8"><a xlink:href="dir_87d18a4dc5174905bfd7d2dc734defe6.html" target="_top" xlink:title="utils">
<polygon fill="#a2b4d6" stroke="#404040" points="282,-98 244,-98 244,-79 282,-79 282,-98"/>
<text text-anchor="middle" x="263" y="-86" font-family="Helvetica,sans-Serif" font-size="10.00">utils</text>
</a>
</g>
</g>
<!-- dir_c85d3e3c5052e9ad9ce18c6863244a25&#45;&gt;dir_87d18a4dc5174905bfd7d2dc734defe6 -->
<g id="edge4" class="edge">
<title>dir_c85d3e3c5052e9ad9ce18c6863244a25&#45;&gt;dir_87d18a4dc5174905bfd7d2dc734defe6</title>
<g id="a_edge4"><a xlink:href="dir_000004_000010.html" target="_top">
<path fill="none" stroke="#63b8ff" d="M226.59,-190.49C239.89,-183.2 258.69,-170.4 267,-153 273.69,-138.98 271.82,-121.2 268.78,-108.03"/>
<polygon fill="#63b8ff" stroke="#63b8ff" points="272.12,-106.95 266.11,-98.22 265.36,-108.79 272.12,-106.95"/>
</a>
</g>
<g id="a_edge4&#45;headlabel"><a xlink:href="dir_000004_000010.html" target="_top" xlink:title="19">
<text text-anchor="middle" x="275.8" y="-107.17" font-family="Helvetica,sans-Serif" font-size="10.00" fill="#63b8ff">19</text>
</a>
</g>
</g>
<!-- dir_e0686263133896cec8318639fc211ff2&#45;&gt;dir_a6de617209e7dfe1dba6aa99bb75c990 -->
<g id="edge8" class="edge">
<title>dir_e0686263133896cec8318639fc211ff2&#45;&gt;dir_a6de617209e7dfe1dba6aa99bb75c990</title>
<g id="a_edge8"><a xlink:href="dir_000001_000003.html" target="_top">
<path fill="none" stroke="#63b8ff" d="M103.73,-78.98C124.76,-70.34 157.55,-56.87 181.54,-47.02"/>
<polygon fill="#63b8ff" stroke="#63b8ff" points="182.98,-50.21 190.9,-43.17 180.32,-43.73 182.98,-50.21"/>
</a>
</g>
<g id="a_edge8&#45;headlabel"><a xlink:href="dir_000001_000003.html" target="_top" xlink:title="11">
<text text-anchor="middle" x="180.73" y="-51.7" font-family="Helvetica,sans-Serif" font-size="10.00" fill="#63b8ff">11</text>
</a>
</g>
</g>
<!-- dir_a829c0b1e95d10093ffb95db4b979f49&#45;&gt;dir_a6de617209e7dfe1dba6aa99bb75c990 -->
<g id="edge10" class="edge">
<title>dir_a829c0b1e95d10093ffb95db4b979f49&#45;&gt;dir_a6de617209e7dfe1dba6aa99bb75c990</title>
<g id="a_edge10"><a xlink:href="dir_000005_000003.html" target="_top">
<path fill="none" stroke="#63b8ff" d="M120.3,-133.7C133.1,-125.42 151.96,-112.2 166,-98 179.86,-83.98 192.77,-65.5 201.36,-52.09"/>
<polygon fill="#63b8ff" stroke="#63b8ff" points="204.48,-53.7 206.8,-43.36 198.54,-49.99 204.48,-53.7"/>
</a>
</g>
<g id="a_edge10&#45;headlabel"><a xlink:href="dir_000005_000003.html" target="_top" xlink:title="7">
<text text-anchor="middle" x="204.98" y="-55.75" font-family="Helvetica,sans-Serif" font-size="10.00" fill="#63b8ff">7</text>
</a>
</g>
</g>
<!-- dir_a829c0b1e95d10093ffb95db4b979f49&#45;&gt;dir_87d18a4dc5174905bfd7d2dc734defe6 -->
<g id="edge9" class="edge">
<title>dir_a829c0b1e95d10093ffb95db4b979f49&#45;&gt;dir_87d18a4dc5174905bfd7d2dc734defe6</title>
<g id="a_edge9"><a xlink:href="dir_000005_000010.html" target="_top">
<path fill="none" stroke="#63b8ff" d="M131.22,-133.98C159.29,-124.51 204.57,-109.23 234.06,-99.27"/>
<polygon fill="#63b8ff" stroke="#63b8ff" points="235.42,-102.5 243.78,-95.99 233.18,-95.87 235.42,-102.5"/>
</a>
</g>
<g id="a_edge9&#45;headlabel"><a xlink:href="dir_000005_000010.html" target="_top" xlink:title="1">
<text text-anchor="middle" x="232.92" y="-103.84" font-family="Helvetica,sans-Serif" font-size="10.00" fill="#63b8ff">1</text>
</a>
</g>
</g>
<!-- dir_66f7d0aed3c1c0d9771fd7d6cbedbd3f&#45;&gt;dir_a6de617209e7dfe1dba6aa99bb75c990 -->
<g id="edge12" class="edge">
<title>dir_66f7d0aed3c1c0d9771fd7d6cbedbd3f&#45;&gt;dir_a6de617209e7dfe1dba6aa99bb75c990</title>
<g id="a_edge12"><a xlink:href="dir_000006_000003.html" target="_top">
<path fill="none" stroke="#63b8ff" d="M212,-133.66C212,-116.17 212,-76.8 212,-53.27"/>
<polygon fill="#63b8ff" stroke="#63b8ff" points="215.5,-53.16 212,-43.16 208.5,-53.16 215.5,-53.16"/>
</a>
</g>
<g id="a_edge12&#45;headlabel"><a xlink:href="dir_000006_000003.html" target="_top" xlink:title="3">
<text text-anchor="middle" x="218.34" y="-54.25" font-family="Helvetica,sans-Serif" font-size="10.00" fill="#63b8ff">3</text>
</a>
</g>
</g>
<!-- dir_66f7d0aed3c1c0d9771fd7d6cbedbd3f&#45;&gt;dir_87d18a4dc5174905bfd7d2dc734defe6 -->
<g id="edge11" class="edge">
<title>dir_66f7d0aed3c1c0d9771fd7d6cbedbd3f&#45;&gt;dir_87d18a4dc5174905bfd7d2dc734defe6</title>
<g id="a_edge11"><a xlink:href="dir_000006_000010.html" target="_top">
<path fill="none" stroke="#63b8ff" d="M220.42,-133.75C227.77,-126.11 238.63,-114.82 247.54,-105.56"/>
<polygon fill="#63b8ff" stroke="#63b8ff" points="250.32,-107.72 254.74,-98.09 245.28,-102.87 250.32,-107.72"/>
</a>
</g>
<g id="a_edge11&#45;headlabel"><a xlink:href="dir_000006_000010.html" target="_top" xlink:title="2">
<text text-anchor="middle" x="249.88" y="-109.78" font-family="Helvetica,sans-Serif" font-size="10.00" fill="#63b8ff">2</text>
</a>
</g>
</g>
<!-- dir_162bc35208f30672811e47a7919aed40&#45;&gt;dir_a6de617209e7dfe1dba6aa99bb75c990 -->
<g id="edge14" class="edge">
<title>dir_162bc35208f30672811e47a7919aed40&#45;&gt;dir_a6de617209e7dfe1dba6aa99bb75c990</title>
<g id="a_edge14"><a xlink:href="dir_000007_000003.html" target="_top">
<path fill="none" stroke="#63b8ff" d="M339.17,-133.85C330.04,-120.78 311.32,-95.76 291,-79 275.71,-66.39 256.36,-55.43 240.63,-47.53"/>
<polygon fill="#63b8ff" stroke="#63b8ff" points="241.9,-44.26 231.38,-43.03 238.84,-50.55 241.9,-44.26"/>
</a>
</g>
<g id="a_edge14&#45;headlabel"><a xlink:href="dir_000007_000003.html" target="_top" xlink:title="16">
<text text-anchor="middle" x="246.38" y="-40.78" font-family="Helvetica,sans-Serif" font-size="10.00" fill="#63b8ff">16</text>
</a>
</g>
</g>
<!-- dir_162bc35208f30672811e47a7919aed40&#45;&gt;dir_87d18a4dc5174905bfd7d2dc734defe6 -->
<g id="edge13" class="edge">
<title>dir_162bc35208f30672811e47a7919aed40&#45;&gt;dir_87d18a4dc5174905bfd7d2dc734defe6</title>
<g id="a_edge13"><a xlink:href="dir_000007_000010.html" target="_top">
<path fill="none" stroke="#63b8ff" d="M331.83,-133.98C319.23,-125.84 300,-113.41 285.06,-103.76"/>
<polygon fill="#63b8ff" stroke="#63b8ff" points="286.71,-100.66 276.41,-98.17 282.91,-106.54 286.71,-100.66"/>
</a>
</g>
<g id="a_edge13&#45;headlabel"><a xlink:href="dir_000007_000010.html" target="_top" xlink:title="12">
<text text-anchor="middle" x="291.27" y="-97.73" font-family="Helvetica,sans-Serif" font-size="10.00" fill="#63b8ff">12</text>
</a>
</g>
</g>
<!-- dir_1968a8b7244e276db216d19e0f588724&#45;&gt;dir_a6de617209e7dfe1dba6aa99bb75c990 -->
<g id="edge16" class="edge">
<title>dir_1968a8b7244e276db216d19e0f588724&#45;&gt;dir_a6de617209e7dfe1dba6aa99bb75c990</title>
<g id="a_edge16"><a xlink:href="dir_000008_000003.html" target="_top">
<path fill="none" stroke="#63b8ff" d="M433.69,-133.84C391.28,-114.84 289.85,-69.39 240.27,-47.17"/>
<polygon fill="#63b8ff" stroke="#63b8ff" points="241.63,-43.94 231.07,-43.05 238.77,-50.33 241.63,-43.94"/>
</a>
</g>
<g id="a_edge16&#45;headlabel"><a xlink:href="dir_000008_000003.html" target="_top" xlink:title="3">
<text text-anchor="middle" x="246.07" y="-40.32" font-family="Helvetica,sans-Serif" font-size="10.00" fill="#63b8ff">3</text>
</a>
</g>
</g>
<!-- dir_1968a8b7244e276db216d19e0f588724&#45;&gt;dir_87d18a4dc5174905bfd7d2dc734defe6 -->
<g id="edge15" class="edge">
<title>dir_1968a8b7244e276db216d19e0f588724&#45;&gt;dir_87d18a4dc5174905bfd7d2dc734defe6</title>
<g id="a_edge15"><a xlink:href="dir_000008_000010.html" target="_top">
<path fill="none" stroke="#63b8ff" d="M422.47,-133.98C386.48,-123.94 327.1,-107.38 291.85,-97.55"/>
<polygon fill="#63b8ff" stroke="#63b8ff" points="292.74,-94.16 282.17,-94.85 290.86,-100.9 292.74,-94.16"/>
</a>
</g>
<g id="a_edge15&#45;headlabel"><a xlink:href="dir_000008_000010.html" target="_top" xlink:title="1">
<text text-anchor="middle" x="296.96" y="-89.89" font-family="Helvetica,sans-Serif" font-size="10.00" fill="#63b8ff">1</text>
</a>
</g>
</g>
<!-- dir_87d18a4dc5174905bfd7d2dc734defe6&#45;&gt;dir_a6de617209e7dfe1dba6aa99bb75c990 -->
<g id="edge17" class="edge">
<title>dir_87d18a4dc5174905bfd7d2dc734defe6&#45;&gt;dir_a6de617209e7dfe1dba6aa99bb75c990</title>
<g id="a_edge17"><a xlink:href="dir_000010_000003.html" target="_top">
<path fill="none" stroke="#63b8ff" d="M254.58,-78.75C247.23,-71.11 236.37,-59.82 227.46,-50.56"/>
<polygon fill="#63b8ff" stroke="#63b8ff" points="229.72,-47.87 220.26,-43.09 224.68,-52.72 229.72,-47.87"/>
</a>
</g>
<g id="a_edge17&#45;headlabel"><a xlink:href="dir_000010_000003.html" target="_top" xlink:title="8">
<text text-anchor="middle" x="234.26" y="-45.99" font-family="Helvetica,sans-Serif" font-size="10.00" fill="#63b8ff">8</text>
</a>
</g>
</g>
</g>
</svg>
