<?xml version="1.0" encoding="UTF-8" standalone="no"?>
<!DOCTYPE svg PUBLIC "-//W3C//DTD SVG 1.1//EN"
 "http://www.w3.org/Graphics/SVG/1.1/DTD/svg11.dtd">
<!-- Generated by graphviz version 2.43.0 (0)
 -->
<!-- Title: src/libuvgvpccenc Pages: 1 -->
<!--zoomable 306 -->

<svg id="main" version="1.1" xmlns="http://www.w3.org/2000/svg" xmlns:xlink="http://www.w3.org/1999/xlink" xml:space="preserve" onload="init(evt)">
<style type="text/css"><![CDATA[
.node, .edge {opacity: 0.7;}
.node.selected, .edge.selected {opacity: 1;}
.edge:hover path { stroke: red; }
.edge:hover polygon { stroke: red; fill: red; }
]]></style>

<defs>
  <circle id="rim" cx="0" cy="0" r="7"/>
  <circle id="rim2" cx="0" cy="0" r="3.5"/>
  <g id="zoomPlus">
    <use xlink:href="#rim" fill="#404040"><set attributeName="fill" to="#808080" begin="zoomplus.mouseover" end="zoomplus.mouseout"/></use>
    <path d="M-4,0h8M0,-4v8" fill="none" stroke="white" stroke-width="1.5" pointer-events="none"/>
  </g>
  <g id="zoomMin">
    <use xlink:href="#rim" fill="#404040"><set attributeName="fill" to="#808080" begin="zoomminus.mouseover" end="zoomminus.mouseout"/></use>
    <path d="M-4,0h8" fill="none" stroke="white" stroke-width="1.5" pointer-events="none"/>
  </g>
  <g id="arrowUp" transform="translate(30 24)">
    <use xlink:href="#rim"/>
    <path pointer-events="none" fill="none" stroke="white" stroke-width="1.5" d="M0,-3.0v7 M-2.5,-0.5L0,-3.0L2.5,-0.5"/>
  </g>
  <g id="arrowRight" transform="rotate(90) translate(36 -43)">
    <use xlink:href="#rim"/>
    <path pointer-events="none" fill="none" stroke="white" stroke-width="1.5" d="M0,-3.0v7 M-2.5,-0.5L0,-3.0L2.5,-0.5"/>
  </g>
  <g id="arrowDown" transform="rotate(180) translate(-30 -48)">
    <use xlink:href="#rim"/>
    <path pointer-events="none" fill="none" stroke="white" stroke-width="1.5" d="M0,-3.0v7 M-2.5,-0.5L0,-3.0L2.5,-0.5"/>
  </g>
  <g id="arrowLeft" transform="rotate(270) translate(-36 17)">
    <use xlink:href="#rim"/>
    <path pointer-events="none" fill="none" stroke="white" stroke-width="1.5" d="M0,-3.0v7 M-2.5,-0.5L0,-3.0L2.5,-0.5"/>
  </g>
  <g id="resetDef">
    <use xlink:href="#rim2" fill="#404040"><set attributeName="fill" to="#808080" begin="reset.mouseover" end="reset.mouseout"/></use>
  </g>
</defs>
<script type="application/ecmascript">
var viewWidth = 654;
var viewHeight = 306;
var sectionId = 'dynsection-0';
</script>
<script type="application/ecmascript" xlink:href="svg.min.js"/>
<svg id="graph" class="graph">
<g id="viewport">
<title>src/libuvgvpccenc</title>
<g id="clust1" class="cluster">
<title>clusterdir_68267d1309a1af8e8297ef4c3efbcdba</title>
<g id="a_clust1"><a xlink:href="dir_68267d1309a1af8e8297ef4c3efbcdba.html" target="_top" xlink:title="src">
<polygon fill="#edf0f7" stroke="#404040" stroke-dasharray="5,2" points="8,-8 8,-290 638,-290 638,-8 8,-8"/>
<text text-anchor="middle" x="323" y="-278" font-family="Helvetica,sans-Serif" font-size="10.00">src</text>
</a>
</g>
</g>
<g id="clust2" class="cluster">
<title>clusterdir_ecc1da70cf6a1beb95498706df8e6909</title>
<g id="a_clust2"><a xlink:href="dir_ecc1da70cf6a1beb95498706df8e6909.html" target="_top">
<polygon fill="#edf0f7" stroke="#404040" stroke-width="2" points="16,-63 16,-263 618,-263 618,-63 16,-63"/>
</a>
</g>
</g>
<!-- dir_a622c5bdfd738cd0e4990bbfd2314a8c -->
<g id="node1" class="node">
<title>dir_a622c5bdfd738cd0e4990bbfd2314a8c</title>
<g id="a_node1"><a xlink:href="dir_a622c5bdfd738cd0e4990bbfd2314a8c.html" target="_top" xlink:title="libuvgutils">
<polygon fill="#a2b4d6" stroke="red" points="454,-35 386,-35 386,-16 454,-16 454,-35"/>
<text text-anchor="middle" x="420" y="-23" font-family="Helvetica,sans-Serif" font-size="10.00">libuvgutils</text>
</a>
</g>
</g>
<!-- dir_ecc1da70cf6a1beb95498706df8e6909 -->
<g id="node2" class="node">
<title>dir_ecc1da70cf6a1beb95498706df8e6909</title>
<text text-anchor="middle" x="342" y="-243" font-family="Helvetica,sans-Serif" font-size="10.00">libuvgvpccenc</text>
</g>
<!-- dir_ecc1da70cf6a1beb95498706df8e6909&#45;&gt;dir_a622c5bdfd738cd0e4990bbfd2314a8c -->
<g id="edge4" class="edge">
<title>dir_ecc1da70cf6a1beb95498706df8e6909&#45;&gt;dir_a622c5bdfd738cd0e4990bbfd2314a8c</title>
<g id="a_edge4"><a xlink:href="dir_000006_000005.html" target="_top">
<path fill="none" stroke="#63b8ff" d="M385.08,-244.1C455.27,-242.43 589.46,-234.66 619,-200 677.92,-130.86 526.36,-64.79 454.89,-38.47"/>
<polygon fill="#63b8ff" stroke="#63b8ff" points="455.96,-35.14 445.36,-35.03 453.58,-41.72 455.96,-35.14"/>
</a>
</g>
<g id="a_edge4&#45;headlabel"><a xlink:href="dir_000006_000005.html" target="_top" xlink:title="34">
<text text-anchor="middle" x="460.3" y="-31.19" font-family="Helvetica,sans-Serif" font-size="10.00" fill="#63b8ff">34</text>
</a>
</g>
</g>
<!-- dir_310816a6b8d8f243be3a5e32db2b2d06 -->
<g id="node3" class="node">
<title>dir_310816a6b8d8f243be3a5e32db2b2d06</title>
<g id="a_node3"><a xlink:href="dir_310816a6b8d8f243be3a5e32db2b2d06.html" target="_top" xlink:title="bitstreamGeneration">
<polygon fill="#a2b4d6" stroke="#404040" points="510,-200 392,-200 392,-181 510,-181 510,-200"/>
<text text-anchor="middle" x="451" y="-188" font-family="Helvetica,sans-Serif" font-size="10.00">bitstreamGeneration</text>
</a>
</g>
</g>
<!-- dir_ecc1da70cf6a1beb95498706df8e6909&#45;&gt;dir_310816a6b8d8f243be3a5e32db2b2d06 -->
<g id="edge3" class="edge">
<title>dir_ecc1da70cf6a1beb95498706df8e6909&#45;&gt;dir_310816a6b8d8f243be3a5e32db2b2d06</title>
<g id="a_edge3"><a xlink:href="dir_000006_000001.html" target="_top">
<path fill="none" stroke="#63b8ff" d="M359.51,-235.98C376.97,-227.5 404.01,-214.35 424.17,-204.54"/>
<polygon fill="#63b8ff" stroke="#63b8ff" points="425.71,-207.69 433.17,-200.17 422.64,-201.4 425.71,-207.69"/>
</a>
</g>
<g id="a_edge3&#45;headlabel"><a xlink:href="dir_000006_000001.html" target="_top" xlink:title="1">
<text text-anchor="middle" x="423.71" y="-209.32" font-family="Helvetica,sans-Serif" font-size="10.00" fill="#63b8ff">1</text>
</a>
</g>
</g>
<!-- dir_a9daaf6619208f31e1f862e20a2aea68 -->
<g id="node4" class="node">
<title>dir_a9daaf6619208f31e1f862e20a2aea68</title>
<g id="a_node4"><a xlink:href="dir_a9daaf6619208f31e1f862e20a2aea68.html" target="_top" xlink:title="include">
<polygon fill="#a2b4d6" stroke="#404040" points="319,-90 267,-90 267,-71 319,-71 319,-90"/>
<text text-anchor="middle" x="293" y="-78" font-family="Helvetica,sans-Serif" font-size="10.00">include</text>
</a>
</g>
</g>
<!-- dir_ecc1da70cf6a1beb95498706df8e6909&#45;&gt;dir_a9daaf6619208f31e1f862e20a2aea68 -->
<g id="edge5" class="edge">
<title>dir_ecc1da70cf6a1beb95498706df8e6909&#45;&gt;dir_a9daaf6619208f31e1f862e20a2aea68</title>
<g id="a_edge5"><a xlink:href="dir_000006_000004.html" target="_top">
<path fill="none" stroke="#63b8ff" d="M298.89,-244.87C222.58,-244.5 68.61,-238.84 35,-200 -30.72,-124.06 171.61,-93.94 256.93,-84.8"/>
<polygon fill="#63b8ff" stroke="#63b8ff" points="257.38,-88.28 266.97,-83.77 256.66,-81.31 257.38,-88.28"/>
</a>
</g>
<g id="a_edge5&#45;headlabel"><a xlink:href="dir_000006_000004.html" target="_top" xlink:title="38">
<text text-anchor="middle" x="254.1" y="-88.97" font-family="Helvetica,sans-Serif" font-size="10.00" fill="#63b8ff">38</text>
</a>
</g>
</g>
<!-- dir_f073919779465e9e5feb3f71944b86d1 -->
<g id="node5" class="node">
<title>dir_f073919779465e9e5feb3f71944b86d1</title>
<g id="a_node5"><a xlink:href="dir_f073919779465e9e5feb3f71944b86d1.html" target="_top" xlink:title="mapEncoding">
<polygon fill="#a2b4d6" stroke="#404040" points="353.5,-200 270.5,-200 270.5,-181 353.5,-181 353.5,-200"/>
<text text-anchor="middle" x="312" y="-188" font-family="Helvetica,sans-Serif" font-size="10.00">mapEncoding</text>
</a>
</g>
</g>
<!-- dir_ecc1da70cf6a1beb95498706df8e6909&#45;&gt;dir_f073919779465e9e5feb3f71944b86d1 -->
<g id="edge7" class="edge">
<title>dir_ecc1da70cf6a1beb95498706df8e6909&#45;&gt;dir_f073919779465e9e5feb3f71944b86d1</title>
<g id="a_edge7"><a xlink:href="dir_000006_000007.html" target="_top">
<path fill="none" stroke="#63b8ff" d="M337.05,-235.75C332.94,-228.49 326.97,-217.95 321.9,-208.98"/>
<polygon fill="#63b8ff" stroke="#63b8ff" points="324.83,-207.07 316.86,-200.09 318.74,-210.52 324.83,-207.07"/>
</a>
</g>
<g id="a_edge7&#45;headlabel"><a xlink:href="dir_000006_000007.html" target="_top" xlink:title="1">
<text text-anchor="middle" x="329.08" y="-206.3" font-family="Helvetica,sans-Serif" font-size="10.00" fill="#63b8ff">1</text>
</a>
</g>
</g>
<!-- dir_f5eeb3b080936b2356f4b9d9762ada4f -->
<g id="node6" class="node">
<title>dir_f5eeb3b080936b2356f4b9d9762ada4f</title>
<g id="a_node6"><a xlink:href="dir_f5eeb3b080936b2356f4b9d9762ada4f.html" target="_top" xlink:title="mapGeneration">
<polygon fill="#a2b4d6" stroke="#404040" points="252,-200 160,-200 160,-181 252,-181 252,-200"/>
<text text-anchor="middle" x="206" y="-188" font-family="Helvetica,sans-Serif" font-size="10.00">mapGeneration</text>
</a>
</g>
</g>
<!-- dir_ecc1da70cf6a1beb95498706df8e6909&#45;&gt;dir_f5eeb3b080936b2356f4b9d9762ada4f -->
<g id="edge8" class="edge">
<title>dir_ecc1da70cf6a1beb95498706df8e6909&#45;&gt;dir_f5eeb3b080936b2356f4b9d9762ada4f</title>
<g id="a_edge8"><a xlink:href="dir_000006_000008.html" target="_top">
<path fill="none" stroke="#63b8ff" d="M320.15,-235.98C297.88,-227.3 263.1,-213.75 237.78,-203.88"/>
<polygon fill="#63b8ff" stroke="#63b8ff" points="238.84,-200.54 228.25,-200.17 236.29,-207.06 238.84,-200.54"/>
</a>
</g>
<g id="a_edge8&#45;headlabel"><a xlink:href="dir_000006_000008.html" target="_top" xlink:title="1">
<text text-anchor="middle" x="243.22" y="-196.7" font-family="Helvetica,sans-Serif" font-size="10.00" fill="#63b8ff">1</text>
</a>
</g>
</g>
<!-- dir_d2ba98c9ffd9b7f188bc8ddaba5db254 -->
<g id="node7" class="node">
<title>dir_d2ba98c9ffd9b7f188bc8ddaba5db254</title>
<g id="a_node7"><a xlink:href="dir_d2ba98c9ffd9b7f188bc8ddaba5db254.html" target="_top" xlink:title="patchGeneration">
<polygon fill="#a2b4d6" stroke="#404040" points="142,-200 44,-200 44,-181 142,-181 142,-200"/>
<text text-anchor="middle" x="93" y="-188" font-family="Helvetica,sans-Serif" font-size="10.00">patchGeneration</text>
</a>
</g>
</g>
<!-- dir_ecc1da70cf6a1beb95498706df8e6909&#45;&gt;dir_d2ba98c9ffd9b7f188bc8ddaba5db254 -->
<g id="edge6" class="edge">
<title>dir_ecc1da70cf6a1beb95498706df8e6909&#45;&gt;dir_d2ba98c9ffd9b7f188bc8ddaba5db254</title>
<g id="a_edge6"><a xlink:href="dir_000006_000009.html" target="_top">
<path fill="none" stroke="#63b8ff" d="M301.99,-235.98C258.83,-226.8 190.02,-212.15 143.24,-202.19"/>
<polygon fill="#63b8ff" stroke="#63b8ff" points="143.83,-198.74 133.32,-200.08 142.37,-205.59 143.83,-198.74"/>
</a>
</g>
<g id="a_edge6&#45;headlabel"><a xlink:href="dir_000006_000009.html" target="_top" xlink:title="2">
<text text-anchor="middle" x="147.94" y="-194.21" font-family="Helvetica,sans-Serif" font-size="10.00" fill="#63b8ff">2</text>
</a>
</g>
</g>
<!-- dir_21b86c26142e0651efd4c00e2a0ec927 -->
<g id="node8" class="node">
<title>dir_21b86c26142e0651efd4c00e2a0ec927</title>
<g id="a_node8"><a xlink:href="dir_21b86c26142e0651efd4c00e2a0ec927.html" target="_top" xlink:title="patchPacking">
<polygon fill="#a2b4d6" stroke="#404040" points="609.5,-200 528.5,-200 528.5,-181 609.5,-181 609.5,-200"/>
<text text-anchor="middle" x="569" y="-188" font-family="Helvetica,sans-Serif" font-size="10.00">patchPacking</text>
</a>
</g>
</g>
<!-- dir_ecc1da70cf6a1beb95498706df8e6909&#45;&gt;dir_21b86c26142e0651efd4c00e2a0ec927 -->
<g id="edge1" class="edge">
<title>dir_ecc1da70cf6a1beb95498706df8e6909&#45;&gt;dir_21b86c26142e0651efd4c00e2a0ec927</title>
<g id="a_edge1"><a xlink:href="dir_000006_000010.html" target="_top">
<path fill="none" stroke="#63b8ff" d="M378.47,-235.98C417.57,-226.86 479.77,-212.33 522.39,-202.38"/>
<polygon fill="#63b8ff" stroke="#63b8ff" points="523.3,-205.76 532.24,-200.08 521.71,-198.95 523.3,-205.76"/>
</a>
</g>
<g id="a_edge1&#45;headlabel"><a xlink:href="dir_000006_000010.html" target="_top" xlink:title="1">
<text text-anchor="middle" x="520.45" y="-206.85" font-family="Helvetica,sans-Serif" font-size="10.00" fill="#63b8ff">1</text>
</a>
</g>
</g>
<!-- dir_2c9b97b4f1c6301ab3fde0957b899ea3 -->
<g id="node9" class="node">
<title>dir_2c9b97b4f1c6301ab3fde0957b899ea3</title>
<g id="a_node9"><a xlink:href="dir_2c9b97b4f1c6301ab3fde0957b899ea3.html" target="_top" xlink:title="utils">
<polygon fill="#a2b4d6" stroke="#404040" points="331,-145 293,-145 293,-126 331,-126 331,-145"/>
<text text-anchor="middle" x="312" y="-133" font-family="Helvetica,sans-Serif" font-size="10.00">utils</text>
</a>
</g>
</g>
<!-- dir_ecc1da70cf6a1beb95498706df8e6909&#45;&gt;dir_2c9b97b4f1c6301ab3fde0957b899ea3 -->
<g id="edge2" class="edge">
<title>dir_ecc1da70cf6a1beb95498706df8e6909&#45;&gt;dir_2c9b97b4f1c6301ab3fde0957b899ea3</title>
<g id="a_edge2"><a xlink:href="dir_000006_000012.html" target="_top">
<path fill="none" stroke="#63b8ff" d="M349.04,-235.65C358.06,-223.17 371.55,-199.82 363,-181 357.38,-168.63 346.43,-158.36 336.11,-150.81"/>
<polygon fill="#63b8ff" stroke="#63b8ff" points="337.97,-147.84 327.73,-145.12 334.04,-153.63 337.97,-147.84"/>
</a>
</g>
<g id="a_edge2&#45;headlabel"><a xlink:href="dir_000006_000012.html" target="_top" xlink:title="42">
<text text-anchor="middle" x="342.54" y="-145.01" font-family="Helvetica,sans-Serif" font-size="10.00" fill="#63b8ff">42</text>
</a>
</g>
</g>
<!-- dir_310816a6b8d8f243be3a5e32db2b2d06&#45;&gt;dir_a622c5bdfd738cd0e4990bbfd2314a8c -->
<g id="edge10" class="edge">
<title>dir_310816a6b8d8f243be3a5e32db2b2d06&#45;&gt;dir_a622c5bdfd738cd0e4990bbfd2314a8c</title>
<g id="a_edge10"><a xlink:href="dir_000001_000005.html" target="_top">
<path fill="none" stroke="#63b8ff" d="M450.69,-180.76C449.77,-160 446.4,-106.24 435,-63 433.38,-56.87 430.98,-50.41 428.56,-44.65"/>
<polygon fill="#63b8ff" stroke="#63b8ff" points="431.65,-42.98 424.38,-35.27 425.26,-45.83 431.65,-42.98"/>
</a>
</g>
<g id="a_edge10&#45;headlabel"><a xlink:href="dir_000001_000005.html" target="_top" xlink:title="2">
<text text-anchor="middle" x="435.71" y="-42.6" font-family="Helvetica,sans-Serif" font-size="10.00" fill="#63b8ff">2</text>
</a>
</g>
</g>
<!-- dir_310816a6b8d8f243be3a5e32db2b2d06&#45;&gt;dir_a9daaf6619208f31e1f862e20a2aea68 -->
<g id="edge11" class="edge">
<title>dir_310816a6b8d8f243be3a5e32db2b2d06&#45;&gt;dir_a9daaf6619208f31e1f862e20a2aea68</title>
<g id="a_edge11"><a xlink:href="dir_000001_000004.html" target="_top">
<path fill="none" stroke="#63b8ff" d="M431.1,-180.9C413.15,-172.75 386.37,-159.62 365,-145 344.07,-130.68 322.59,-110.95 308.6,-97.3"/>
<polygon fill="#63b8ff" stroke="#63b8ff" points="310.86,-94.61 301.3,-90.06 305.93,-99.58 310.86,-94.61"/>
</a>
</g>
<g id="a_edge11&#45;headlabel"><a xlink:href="dir_000001_000004.html" target="_top" xlink:title="9">
<text text-anchor="middle" x="315.41" y="-92.63" font-family="Helvetica,sans-Serif" font-size="10.00" fill="#63b8ff">9</text>
</a>
</g>
</g>
<!-- dir_310816a6b8d8f243be3a5e32db2b2d06&#45;&gt;dir_2c9b97b4f1c6301ab3fde0957b899ea3 -->
<g id="edge9" class="edge">
<title>dir_310816a6b8d8f243be3a5e32db2b2d06&#45;&gt;dir_2c9b97b4f1c6301ab3fde0957b899ea3</title>
<g id="a_edge9"><a xlink:href="dir_000001_000012.html" target="_top">
<path fill="none" stroke="#63b8ff" d="M428.67,-180.98C404.71,-171.85 366.61,-157.32 340.51,-147.37"/>
<polygon fill="#63b8ff" stroke="#63b8ff" points="341.74,-144.09 331.14,-143.8 339.24,-150.63 341.74,-144.09"/>
</a>
</g>
<g id="a_edge9&#45;headlabel"><a xlink:href="dir_000001_000012.html" target="_top" xlink:title="8">
<text text-anchor="middle" x="346.11" y="-140.22" font-family="Helvetica,sans-Serif" font-size="10.00" fill="#63b8ff">8</text>
</a>
</g>
</g>
<!-- dir_a9daaf6619208f31e1f862e20a2aea68&#45;&gt;dir_a622c5bdfd738cd0e4990bbfd2314a8c -->
<g id="edge12" class="edge">
<title>dir_a9daaf6619208f31e1f862e20a2aea68&#45;&gt;dir_a622c5bdfd738cd0e4990bbfd2314a8c</title>
<g id="a_edge12"><a xlink:href="dir_000004_000005.html" target="_top">
<path fill="none" stroke="#63b8ff" d="M307.74,-70.85C312.53,-68.18 317.92,-65.34 323,-63 342.95,-53.82 365.93,-45.09 384.51,-38.48"/>
<polygon fill="#63b8ff" stroke="#63b8ff" points="385.79,-41.74 394.06,-35.13 383.47,-35.14 385.79,-41.74"/>
</a>
</g>
<g id="a_edge12&#45;headlabel"><a xlink:href="dir_000004_000005.html" target="_top" xlink:title="1">
<text text-anchor="middle" x="383.33" y="-43.11" font-family="Helvetica,sans-Serif" font-size="10.00" fill="#63b8ff">1</text>
</a>
</g>
</g>
<!-- dir_f073919779465e9e5feb3f71944b86d1&#45;&gt;dir_a622c5bdfd738cd0e4990bbfd2314a8c -->
<g id="edge14" class="edge">
<title>dir_f073919779465e9e5feb3f71944b86d1&#45;&gt;dir_a622c5bdfd738cd0e4990bbfd2314a8c</title>
<g id="a_edge14"><a xlink:href="dir_000007_000005.html" target="_top">
<path fill="none" stroke="#63b8ff" d="M353.68,-182.44C375.72,-176.41 401.03,-165.3 415,-145 435.54,-115.14 430.2,-70.31 424.85,-45.22"/>
<polygon fill="#63b8ff" stroke="#63b8ff" points="428.19,-44.14 422.49,-35.21 421.38,-45.74 428.19,-44.14"/>
</a>
</g>
<g id="a_edge14&#45;headlabel"><a xlink:href="dir_000007_000005.html" target="_top" xlink:title="3">
<text text-anchor="middle" x="431.78" y="-44.48" font-family="Helvetica,sans-Serif" font-size="10.00" fill="#63b8ff">3</text>
</a>
</g>
</g>
<!-- dir_f073919779465e9e5feb3f71944b86d1&#45;&gt;dir_a9daaf6619208f31e1f862e20a2aea68 -->
<g id="edge15" class="edge">
<title>dir_f073919779465e9e5feb3f71944b86d1&#45;&gt;dir_a9daaf6619208f31e1f862e20a2aea68</title>
<g id="a_edge15"><a xlink:href="dir_000007_000004.html" target="_top">
<path fill="none" stroke="#63b8ff" d="M304.33,-180.7C297.48,-172.21 287.95,-158.68 284,-145 279.71,-130.12 282.74,-112.67 286.4,-99.83"/>
<polygon fill="#63b8ff" stroke="#63b8ff" points="289.73,-100.88 289.47,-90.29 283.07,-98.73 289.73,-100.88"/>
</a>
</g>
<g id="a_edge15&#45;headlabel"><a xlink:href="dir_000007_000004.html" target="_top" xlink:title="7">
<text text-anchor="middle" x="291.33" y="-102.67" font-family="Helvetica,sans-Serif" font-size="10.00" fill="#63b8ff">7</text>
</a>
</g>
</g>
<!-- dir_f073919779465e9e5feb3f71944b86d1&#45;&gt;dir_2c9b97b4f1c6301ab3fde0957b899ea3 -->
<g id="edge13" class="edge">
<title>dir_f073919779465e9e5feb3f71944b86d1&#45;&gt;dir_2c9b97b4f1c6301ab3fde0957b899ea3</title>
<g id="a_edge13"><a xlink:href="dir_000007_000012.html" target="_top">
<path fill="none" stroke="#63b8ff" d="M312,-180.75C312,-173.8 312,-163.85 312,-155.13"/>
<polygon fill="#63b8ff" stroke="#63b8ff" points="315.5,-155.09 312,-145.09 308.5,-155.09 315.5,-155.09"/>
</a>
</g>
<g id="a_edge13&#45;headlabel"><a xlink:href="dir_000007_000012.html" target="_top" xlink:title="5">
<text text-anchor="middle" x="318.34" y="-156.18" font-family="Helvetica,sans-Serif" font-size="10.00" fill="#63b8ff">5</text>
</a>
</g>
</g>
<!-- dir_f5eeb3b080936b2356f4b9d9762ada4f&#45;&gt;dir_a622c5bdfd738cd0e4990bbfd2314a8c -->
<g id="edge17" class="edge">
<title>dir_f5eeb3b080936b2356f4b9d9762ada4f&#45;&gt;dir_a622c5bdfd738cd0e4990bbfd2314a8c</title>
<g id="a_edge17"><a xlink:href="dir_000008_000005.html" target="_top">
<path fill="none" stroke="#63b8ff" d="M252.27,-181.28C304.93,-171.51 384.99,-155.25 395,-145 421.24,-118.14 423.04,-71.09 421.72,-45.09"/>
<polygon fill="#63b8ff" stroke="#63b8ff" points="425.21,-44.79 421.01,-35.06 418.23,-45.29 425.21,-44.79"/>
</a>
</g>
<g id="a_edge17&#45;headlabel"><a xlink:href="dir_000008_000005.html" target="_top" xlink:title="2">
<text text-anchor="middle" x="428.3" y="-45.67" font-family="Helvetica,sans-Serif" font-size="10.00" fill="#63b8ff">2</text>
</a>
</g>
</g>
<!-- dir_f5eeb3b080936b2356f4b9d9762ada4f&#45;&gt;dir_a9daaf6619208f31e1f862e20a2aea68 -->
<g id="edge18" class="edge">
<title>dir_f5eeb3b080936b2356f4b9d9762ada4f&#45;&gt;dir_a9daaf6619208f31e1f862e20a2aea68</title>
<g id="a_edge18"><a xlink:href="dir_000008_000004.html" target="_top">
<path fill="none" stroke="#63b8ff" d="M213.12,-180.66C227.66,-162.61 260.96,-121.28 279.65,-98.08"/>
<polygon fill="#63b8ff" stroke="#63b8ff" points="282.48,-100.14 286.03,-90.16 277.03,-95.75 282.48,-100.14"/>
</a>
</g>
<g id="a_edge18&#45;headlabel"><a xlink:href="dir_000008_000004.html" target="_top" xlink:title="5">
<text text-anchor="middle" x="282.43" y="-102.22" font-family="Helvetica,sans-Serif" font-size="10.00" fill="#63b8ff">5</text>
</a>
</g>
</g>
<!-- dir_f5eeb3b080936b2356f4b9d9762ada4f&#45;&gt;dir_2c9b97b4f1c6301ab3fde0957b899ea3 -->
<g id="edge16" class="edge">
<title>dir_f5eeb3b080936b2356f4b9d9762ada4f&#45;&gt;dir_2c9b97b4f1c6301ab3fde0957b899ea3</title>
<g id="a_edge16"><a xlink:href="dir_000008_000012.html" target="_top">
<path fill="none" stroke="#63b8ff" d="M223.03,-180.98C239.93,-172.54 266.06,-159.47 285.64,-149.68"/>
<polygon fill="#63b8ff" stroke="#63b8ff" points="287.28,-152.77 294.66,-145.17 284.15,-146.51 287.28,-152.77"/>
</a>
</g>
<g id="a_edge16&#45;headlabel"><a xlink:href="dir_000008_000012.html" target="_top" xlink:title="4">
<text text-anchor="middle" x="285.34" y="-154.42" font-family="Helvetica,sans-Serif" font-size="10.00" fill="#63b8ff">4</text>
</a>
</g>
</g>
<!-- dir_d2ba98c9ffd9b7f188bc8ddaba5db254&#45;&gt;dir_a622c5bdfd738cd0e4990bbfd2314a8c -->
<g id="edge20" class="edge">
<title>dir_d2ba98c9ffd9b7f188bc8ddaba5db254&#45;&gt;dir_a622c5bdfd738cd0e4990bbfd2314a8c</title>
<g id="a_edge20"><a xlink:href="dir_000009_000005.html" target="_top">
<path fill="none" stroke="#63b8ff" d="M142.05,-181.67C211.69,-170.4 331.74,-150.38 340,-145 377.65,-120.46 402.06,-71.36 413.13,-44.71"/>
<polygon fill="#63b8ff" stroke="#63b8ff" points="416.5,-45.69 416.94,-35.1 410,-43.1 416.5,-45.69"/>
</a>
</g>
<g id="a_edge20&#45;headlabel"><a xlink:href="dir_000009_000005.html" target="_top" xlink:title="15">
<text text-anchor="middle" x="417.82" y="-47.57" font-family="Helvetica,sans-Serif" font-size="10.00" fill="#63b8ff">15</text>
</a>
</g>
</g>
<!-- dir_d2ba98c9ffd9b7f188bc8ddaba5db254&#45;&gt;dir_a9daaf6619208f31e1f862e20a2aea68 -->
<g id="edge21" class="edge">
<title>dir_d2ba98c9ffd9b7f188bc8ddaba5db254&#45;&gt;dir_a9daaf6619208f31e1f862e20a2aea68</title>
<g id="a_edge21"><a xlink:href="dir_000009_000004.html" target="_top">
<path fill="none" stroke="#63b8ff" d="M109.03,-180.84C143.86,-162.04 226.64,-117.33 268.24,-94.87"/>
<polygon fill="#63b8ff" stroke="#63b8ff" points="270.04,-97.88 277.17,-90.05 266.71,-91.72 270.04,-97.88"/>
</a>
</g>
<g id="a_edge21&#45;headlabel"><a xlink:href="dir_000009_000004.html" target="_top" xlink:title="12">
<text text-anchor="middle" x="268.22" y="-99.58" font-family="Helvetica,sans-Serif" font-size="10.00" fill="#63b8ff">12</text>
</a>
</g>
</g>
<!-- dir_d2ba98c9ffd9b7f188bc8ddaba5db254&#45;&gt;dir_2c9b97b4f1c6301ab3fde0957b899ea3 -->
<g id="edge19" class="edge">
<title>dir_d2ba98c9ffd9b7f188bc8ddaba5db254&#45;&gt;dir_2c9b97b4f1c6301ab3fde0957b899ea3</title>
<g id="a_edge19"><a xlink:href="dir_000009_000012.html" target="_top">
<path fill="none" stroke="#63b8ff" d="M128.19,-180.98C171.14,-170.59 242.98,-153.2 282.94,-143.53"/>
<polygon fill="#63b8ff" stroke="#63b8ff" points="283.95,-146.89 292.85,-141.13 282.31,-140.09 283.95,-146.89"/>
</a>
</g>
<g id="a_edge19&#45;headlabel"><a xlink:href="dir_000009_000012.html" target="_top" xlink:title="20">
<text text-anchor="middle" x="281.13" y="-147.99" font-family="Helvetica,sans-Serif" font-size="10.00" fill="#63b8ff">20</text>
</a>
</g>
</g>
<!-- dir_21b86c26142e0651efd4c00e2a0ec927&#45;&gt;dir_a622c5bdfd738cd0e4990bbfd2314a8c -->
<g id="edge23" class="edge">
<title>dir_21b86c26142e0651efd4c00e2a0ec927&#45;&gt;dir_a622c5bdfd738cd0e4990bbfd2314a8c</title>
<g id="a_edge23"><a xlink:href="dir_000010_000005.html" target="_top">
<path fill="none" stroke="#63b8ff" d="M560.99,-180.74C537.14,-154.65 466.32,-77.17 435.09,-43"/>
<polygon fill="#63b8ff" stroke="#63b8ff" points="437.38,-40.33 428.05,-35.31 432.21,-45.05 437.38,-40.33"/>
</a>
</g>
<g id="a_edge23&#45;headlabel"><a xlink:href="dir_000010_000005.html" target="_top" xlink:title="2">
<text text-anchor="middle" x="441.9" y="-38.56" font-family="Helvetica,sans-Serif" font-size="10.00" fill="#63b8ff">2</text>
</a>
</g>
</g>
<!-- dir_21b86c26142e0651efd4c00e2a0ec927&#45;&gt;dir_a9daaf6619208f31e1f862e20a2aea68 -->
<g id="edge24" class="edge">
<title>dir_21b86c26142e0651efd4c00e2a0ec927&#45;&gt;dir_a9daaf6619208f31e1f862e20a2aea68</title>
<g id="a_edge24"><a xlink:href="dir_000010_000004.html" target="_top">
<path fill="none" stroke="#63b8ff" d="M528.29,-181.53C475.37,-170.97 388.13,-152.75 375,-145 365.24,-139.24 366.51,-133.48 358,-126 345.1,-114.67 329.22,-103.75 316.39,-95.57"/>
<polygon fill="#63b8ff" stroke="#63b8ff" points="318,-92.45 307.67,-90.12 314.3,-98.39 318,-92.45"/>
</a>
</g>
<g id="a_edge24&#45;headlabel"><a xlink:href="dir_000010_000004.html" target="_top" xlink:title="2">
<text text-anchor="middle" x="322.56" y="-89.44" font-family="Helvetica,sans-Serif" font-size="10.00" fill="#63b8ff">2</text>
</a>
</g>
</g>
<!-- dir_21b86c26142e0651efd4c00e2a0ec927&#45;&gt;dir_2c9b97b4f1c6301ab3fde0957b899ea3 -->
<g id="edge22" class="edge">
<title>dir_21b86c26142e0651efd4c00e2a0ec927&#45;&gt;dir_2c9b97b4f1c6301ab3fde0957b899ea3</title>
<g id="a_edge22"><a xlink:href="dir_000010_000012.html" target="_top">
<path fill="none" stroke="#63b8ff" d="M528.28,-181.1C476.02,-170.32 386.65,-151.89 340.88,-142.46"/>
<polygon fill="#63b8ff" stroke="#63b8ff" points="341.51,-139.01 331.01,-140.42 340.1,-145.87 341.51,-139.01"/>
</a>
</g>
<g id="a_edge22&#45;headlabel"><a xlink:href="dir_000010_000012.html" target="_top" xlink:title="2">
<text text-anchor="middle" x="345.61" y="-134.46" font-family="Helvetica,sans-Serif" font-size="10.00" fill="#63b8ff">2</text>
</a>
</g>
</g>
<!-- dir_2c9b97b4f1c6301ab3fde0957b899ea3&#45;&gt;dir_a622c5bdfd738cd0e4990bbfd2314a8c -->
<g id="edge25" class="edge">
<title>dir_2c9b97b4f1c6301ab3fde0957b899ea3&#45;&gt;dir_a622c5bdfd738cd0e4990bbfd2314a8c</title>
<g id="a_edge25"><a xlink:href="dir_000012_000005.html" target="_top">
<path fill="none" stroke="#63b8ff" d="M320.84,-125.66C339.04,-107.46 380.95,-65.55 404.03,-42.47"/>
<polygon fill="#63b8ff" stroke="#63b8ff" points="406.75,-44.7 411.34,-35.16 401.8,-39.75 406.75,-44.7"/>
</a>
</g>
<g id="a_edge25&#45;headlabel"><a xlink:href="dir_000012_000005.html" target="_top" xlink:title="7">
<text text-anchor="middle" x="406.21" y="-46.75" font-family="Helvetica,sans-Serif" font-size="10.00" fill="#63b8ff">7</text>
</a>
</g>
</g>
<!-- dir_2c9b97b4f1c6301ab3fde0957b899ea3&#45;&gt;dir_a9daaf6619208f31e1f862e20a2aea68 -->
<g id="edge26" class="edge">
<title>dir_2c9b97b4f1c6301ab3fde0957b899ea3&#45;&gt;dir_a9daaf6619208f31e1f862e20a2aea68</title>
<g id="a_edge26"><a xlink:href="dir_000012_000004.html" target="_top">
<path fill="none" stroke="#63b8ff" d="M308.86,-125.75C306.32,-118.65 302.64,-108.4 299.47,-99.56"/>
<polygon fill="#63b8ff" stroke="#63b8ff" points="302.75,-98.32 296.08,-90.09 296.16,-100.68 302.75,-98.32"/>
</a>
</g>
<g id="a_edge26&#45;headlabel"><a xlink:href="dir_000012_000004.html" target="_top" xlink:title="2">
<text text-anchor="middle" x="306.63" y="-98.25" font-family="Helvetica,sans-Serif" font-size="10.00" fill="#63b8ff">2</text>
</a>
</g>
</g>
</g>
</svg>

<g id="navigator" transform="translate(0 0)" fill="#404254">
  <rect fill="#f2f5e9" fill-opacity="0.5" stroke="#606060" stroke-width=".5" x="0" y="0" width="60" height="60"/>
  <use id="zoomplus" xlink:href="#zoomPlus" x="17" y="9" onmousedown="handleZoom(evt,'in')"/>
  <use id="zoomminus" xlink:href="#zoomMin" x="42" y="9" onmousedown="handleZoom(evt,'out')"/>
  <use id="reset" xlink:href="#resetDef" x="30" y="36" onmousedown="handleReset()"/>
   <use id="arrowup" xlink:href="#arrowUp" x="0" y="0" onmousedown="handlePan(0,-1)"/>
  <use id="arrowright" xlink:href="#arrowRight" x="0" y="0" onmousedown="handlePan(1,0)"/>
  <use id="arrowdown" xlink:href="#arrowDown" x="0" y="0" onmousedown="handlePan(0,1)"/>
  <use id="arrowleft" xlink:href="#arrowLeft" x="0" y="0" onmousedown="handlePan(-1,0)"/>
</g>
<svg viewBox="0 0 15 15" width="100%" height="30px" preserveAspectRatio="xMaxYMin meet">
 <g id="arrow_out" transform="scale(0.3 0.3)">
  <a xlink:href="dir_ecc1da70cf6a1beb95498706df8e6909_dep_org.svg" target="_base">
   <rect id="button" ry="5" rx="5" y="6" x="6" height="38" width="38"
        fill="#f2f5e9" fill-opacity="0.5" stroke="#606060" stroke-width="1.0"/>
   <path id="arrow"
     d="M 11.500037,31.436501 C 11.940474,20.09759 22.043105,11.32322 32.158766,21.979434 L 37.068811,17.246167 C 37.068811,17.246167 37.088388,32 37.088388,32 L 22.160133,31.978069 C 22.160133,31.978069 26.997745,27.140456 26.997745,27.140456 C 18.528582,18.264221 13.291696,25.230495 11.500037,31.436501 z"
     style="fill:#404040;"/>
  </a>
 </g>
</svg>

<style type='text/css'>
<![CDATA[
[data-mouse-over-selected='false'] { opacity: 0.7; }
[data-mouse-over-selected='true']  { opacity: 1.0; }
]]>
</style>
<script type="application/ecmascript"><![CDATA[
document.addEventListener('DOMContentLoaded', (event) => {
  highlightEdges();
  highlightAdjacentNodes();
});
]]></script>
</svg>
