<?xml version="1.0" encoding="UTF-8" standalone="no"?>
<!DOCTYPE svg PUBLIC "-//W3C//DTD SVG 1.1//EN"
 "http://www.w3.org/Graphics/SVG/1.1/DTD/svg11.dtd">
<!-- Generated by graphviz version 2.43.0 (0)
 -->
<!-- Title: src/libuvgvpccenc/mapEncoding/encoderKvazaar.cpp Pages: 1 -->
<svg width="1924pt" height="368pt"
 viewBox="0.00 0.00 1923.50 368.00" xmlns="http://www.w3.org/2000/svg" xmlns:xlink="http://www.w3.org/1999/xlink">
<g id="graph0" class="graph" transform="scale(1 1) rotate(0) translate(4 364)">
<title>src/libuvgvpccenc/mapEncoding/encoderKvazaar.cpp</title>
<!-- Node1 -->
<g id="Node000001" class="node">
<title>Node1</title>
<g id="a_Node000001"><a xlink:title=" ">
<polygon fill="#999999" stroke="#666666" points="1260.5,-360 1087.5,-360 1087.5,-330 1260.5,-330 1260.5,-360"/>
<text text-anchor="start" x="1095.5" y="-348" font-family="Helvetica,sans-Serif" font-size="10.00">src/libuvgvpccenc/mapEncoding</text>
<text text-anchor="middle" x="1174" y="-337" font-family="Helvetica,sans-Serif" font-size="10.00">/encoderKvazaar.cpp</text>
</a>
</g>
</g>
<!-- Node2 -->
<g id="Node000002" class="node">
<title>Node2</title>
<g id="a_Node000002"><a xlink:href="encoderKvazaar_8hpp.html" target="_top" xlink:title=" ">
<polygon fill="white" stroke="#666666" points="790,-294 674,-294 674,-275 790,-275 790,-294"/>
<text text-anchor="middle" x="732" y="-282" font-family="Helvetica,sans-Serif" font-size="10.00">encoderKvazaar.hpp</text>
</a>
</g>
</g>
<!-- Node1&#45;&gt;Node2 -->
<g id="edge1_Node000001_Node000002" class="edge">
<title>Node1&#45;&gt;Node2</title>
<g id="a_edge1_Node000001_Node000002"><a xlink:title=" ">
<path fill="none" stroke="#63b8ff" d="M1087.47,-332.55C1003.4,-321.42 877.47,-304.75 800.25,-294.53"/>
<polygon fill="#63b8ff" stroke="#63b8ff" points="800.52,-291.04 790.15,-293.2 799.6,-297.98 800.52,-291.04"/>
</a>
</g>
</g>
<!-- Node3 -->
<g id="Node000003" class="node">
<title>Node3</title>
<g id="a_Node000003"><a xlink:title=" ">
<polygon fill="#e0e0e0" stroke="#999999" points="657,-239 593,-239 593,-220 657,-220 657,-239"/>
<text text-anchor="middle" x="625" y="-227" font-family="Helvetica,sans-Serif" font-size="10.00">kvazaar.h</text>
</a>
</g>
</g>
<!-- Node1&#45;&gt;Node3 -->
<g id="edge33_Node000001_Node000003" class="edge">
<title>Node1&#45;&gt;Node3</title>
<g id="a_edge33_Node000001_Node000003"><a xlink:title=" ">
<path fill="none" stroke="#63b8ff" d="M1087.45,-344.52C961.07,-343.79 733.6,-336.37 665,-294 648.41,-283.75 637.54,-263.78 631.38,-248.96"/>
<polygon fill="#63b8ff" stroke="#63b8ff" points="634.53,-247.4 627.71,-239.29 627.99,-249.88 634.53,-247.4"/>
</a>
</g>
</g>
<!-- Node4 -->
<g id="Node000004" class="node">
<title>Node4</title>
<g id="a_Node000004"><a xlink:href="uvgvpcc_8hpp.html" target="_top" xlink:title=" ">
<polygon fill="white" stroke="#666666" points="733,-184 611,-184 611,-165 733,-165 733,-184"/>
<text text-anchor="middle" x="672" y="-172" font-family="Helvetica,sans-Serif" font-size="10.00">uvgvpcc/uvgvpcc.hpp</text>
</a>
</g>
</g>
<!-- Node1&#45;&gt;Node4 -->
<g id="edge67_Node000001_Node000004" class="edge">
<title>Node1&#45;&gt;Node4</title>
<g id="a_edge67_Node000001_Node000004"><a xlink:title=" ">
<path fill="none" stroke="#63b8ff" d="M1087.48,-342.68C957.6,-339.55 719.23,-329.07 642,-294 603.95,-276.72 562.11,-255.6 584,-220 593.45,-204.64 610.02,-194.39 626.25,-187.64"/>
<polygon fill="#63b8ff" stroke="#63b8ff" points="627.6,-190.87 635.71,-184.06 625.12,-184.32 627.6,-190.87"/>
</a>
</g>
</g>
<!-- Node5 -->
<g id="Node000005" class="node">
<title>Node5</title>
<g id="a_Node000005"><a xlink:title=" ">
<polygon fill="#e0e0e0" stroke="#999999" points="417.5,-74 364.5,-74 364.5,-55 417.5,-55 417.5,-74"/>
<text text-anchor="middle" x="391" y="-62" font-family="Helvetica,sans-Serif" font-size="10.00">cstddef</text>
</a>
</g>
</g>
<!-- Node1&#45;&gt;Node5 -->
<g id="edge36_Node000001_Node000005" class="edge">
<title>Node1&#45;&gt;Node5</title>
<g id="a_edge36_Node000001_Node000005"><a xlink:title=" ">
<path fill="none" stroke="#63b8ff" d="M1087.2,-344.69C815.6,-345.73 0,-339.73 0,-230.5 0,-230.5 0,-230.5 0,-173.5 0,-100.44 256.81,-74.87 354.18,-67.8"/>
<polygon fill="#63b8ff" stroke="#63b8ff" points="354.7,-71.27 364.43,-67.08 354.21,-64.28 354.7,-71.27"/>
</a>
</g>
</g>
<!-- Node6 -->
<g id="Node000006" class="node">
<title>Node6</title>
<g id="a_Node000006"><a xlink:title=" ">
<polygon fill="#e0e0e0" stroke="#999999" points="1326,-74 1276,-74 1276,-55 1326,-55 1326,-74"/>
<text text-anchor="middle" x="1301" y="-62" font-family="Helvetica,sans-Serif" font-size="10.00">cstdint</text>
</a>
</g>
</g>
<!-- Node1&#45;&gt;Node6 -->
<g id="edge37_Node000001_Node000006" class="edge">
<title>Node1&#45;&gt;Node6</title>
<g id="a_edge37_Node000001_Node000006"><a xlink:title=" ">
<path fill="none" stroke="#63b8ff" d="M1216.17,-329.91C1272.65,-308.49 1370.57,-261.78 1412,-184 1435.99,-138.97 1370.57,-98.38 1330.18,-78.46"/>
<polygon fill="#63b8ff" stroke="#63b8ff" points="1331.54,-75.23 1321.01,-74.08 1328.52,-81.55 1331.54,-75.23"/>
</a>
</g>
</g>
<!-- Node8 -->
<g id="Node000008" class="node">
<title>Node8</title>
<g id="a_Node000008"><a xlink:title=" ">
<polygon fill="#e0e0e0" stroke="#999999" points="1048,-129 990,-129 990,-110 1048,-110 1048,-129"/>
<text text-anchor="middle" x="1019" y="-117" font-family="Helvetica,sans-Serif" font-size="10.00">memory</text>
</a>
</g>
</g>
<!-- Node1&#45;&gt;Node8 -->
<g id="edge40_Node000001_Node000008" class="edge">
<title>Node1&#45;&gt;Node8</title>
<g id="a_edge40_Node000001_Node000008"><a xlink:title=" ">
<path fill="none" stroke="#63b8ff" d="M1164.07,-329.68C1136.74,-290.27 1060.48,-180.31 1030.92,-137.69"/>
<polygon fill="#63b8ff" stroke="#63b8ff" points="1033.63,-135.45 1025.06,-129.23 1027.88,-139.44 1033.63,-135.45"/>
</a>
</g>
</g>
<!-- Node12 -->
<g id="Node000012" class="node">
<title>Node12</title>
<g id="a_Node000012"><a xlink:title=" ">
<polygon fill="#e0e0e0" stroke="#999999" points="1085,-19 1041,-19 1041,0 1085,0 1085,-19"/>
<text text-anchor="middle" x="1063" y="-7" font-family="Helvetica,sans-Serif" font-size="10.00">string</text>
</a>
</g>
</g>
<!-- Node1&#45;&gt;Node12 -->
<g id="edge42_Node000001_Node000012" class="edge">
<title>Node1&#45;&gt;Node12</title>
<g id="a_edge42_Node000001_Node000012"><a xlink:title=" ">
<path fill="none" stroke="#63b8ff" d="M1207.72,-329.95C1302.14,-288.75 1556,-164.3 1457,-55 1404.55,2.91 1190.02,-31.09 1095.37,-18.68"/>
<polygon fill="#63b8ff" stroke="#63b8ff" points="1095.67,-15.19 1085.25,-17.08 1094.58,-22.1 1095.67,-15.19"/>
</a>
</g>
</g>
<!-- Node13 -->
<g id="Node000013" class="node">
<title>Node13</title>
<g id="a_Node000013"><a xlink:title=" ">
<polygon fill="#e0e0e0" stroke="#999999" points="895.5,-129 848.5,-129 848.5,-110 895.5,-110 895.5,-129"/>
<text text-anchor="middle" x="872" y="-117" font-family="Helvetica,sans-Serif" font-size="10.00">vector</text>
</a>
</g>
</g>
<!-- Node1&#45;&gt;Node13 -->
<g id="edge43_Node000001_Node000013" class="edge">
<title>Node1&#45;&gt;Node13</title>
<g id="a_edge43_Node000001_Node000013"><a xlink:title=" ">
<path fill="none" stroke="#63b8ff" d="M1124.76,-329.88C1074.4,-313.74 995.71,-283.63 939,-239 913.27,-218.75 905.75,-212.7 890,-184 882.32,-170.02 877.67,-152.46 875.03,-139.36"/>
<polygon fill="#63b8ff" stroke="#63b8ff" points="878.41,-138.41 873.19,-129.19 871.52,-139.65 878.41,-138.41"/>
</a>
</g>
</g>
<!-- Node24 -->
<g id="Node000024" class="node">
<title>Node24</title>
<g id="a_Node000024"><a xlink:title=" ">
<polygon fill="#e0e0e0" stroke="#999999" points="1609.5,-19 1556.5,-19 1556.5,0 1609.5,0 1609.5,-19"/>
<text text-anchor="middle" x="1583" y="-7" font-family="Helvetica,sans-Serif" font-size="10.00">cstdarg</text>
</a>
</g>
</g>
<!-- Node1&#45;&gt;Node24 -->
<g id="edge35_Node000001_Node000024" class="edge">
<title>Node1&#45;&gt;Node24</title>
<g id="a_edge35_Node000001_Node000024"><a xlink:title=" ">
<path fill="none" stroke="#63b8ff" d="M1260.56,-340.38C1393.4,-334.06 1635.47,-319.23 1666,-294 1688.71,-275.23 1685,-259.96 1685,-230.5 1685,-230.5 1685,-230.5 1685,-118.5 1685,-74.56 1639.82,-41.27 1609.6,-23.92"/>
<polygon fill="#63b8ff" stroke="#63b8ff" points="1611.21,-20.81 1600.77,-19.05 1607.84,-26.94 1611.21,-20.81"/>
</a>
</g>
</g>
<!-- Node26 -->
<g id="Node000026" class="node">
<title>Node26</title>
<g id="a_Node000026"><a xlink:href="abstract2DMapEncoder_8hpp.html" target="_top" xlink:title=" ">
<polygon fill="white" stroke="#666666" points="863,-239 713,-239 713,-220 863,-220 863,-239"/>
<text text-anchor="middle" x="788" y="-227" font-family="Helvetica,sans-Serif" font-size="10.00">abstract2DMapEncoder.hpp</text>
</a>
</g>
</g>
<!-- Node1&#45;&gt;Node26 -->
<g id="edge44_Node000001_Node000026" class="edge">
<title>Node1&#45;&gt;Node26</title>
<g id="a_edge44_Node000001_Node000026"><a xlink:title=" ">
<path fill="none" stroke="#63b8ff" d="M1087.32,-339.73C1026.51,-334.29 944.37,-321.95 877,-294 849.23,-282.48 821.75,-260.91 804.84,-246.13"/>
<polygon fill="#63b8ff" stroke="#63b8ff" points="806.79,-243.18 797.01,-239.11 802.12,-248.39 806.79,-243.18"/>
</a>
</g>
</g>
<!-- Node27 -->
<g id="Node000027" class="node">
<title>Node27</title>
<g id="a_Node000027"><a xlink:title=" ">
<polygon fill="#e0e0e0" stroke="#999999" points="1765,-294 1713,-294 1713,-275 1765,-275 1765,-294"/>
<text text-anchor="middle" x="1739" y="-282" font-family="Helvetica,sans-Serif" font-size="10.00">cassert</text>
</a>
</g>
</g>
<!-- Node1&#45;&gt;Node27 -->
<g id="edge34_Node000001_Node000027" class="edge">
<title>Node1&#45;&gt;Node27</title>
<g id="a_edge34_Node000001_Node000027"><a xlink:title=" ">
<path fill="none" stroke="#63b8ff" d="M1260.77,-338.79C1365.18,-331.82 1545.6,-317.52 1699,-294 1700.26,-293.81 1701.55,-293.6 1702.84,-293.38"/>
<polygon fill="#63b8ff" stroke="#63b8ff" points="1703.64,-296.79 1712.83,-291.51 1702.36,-289.91 1703.64,-296.79"/>
</a>
</g>
</g>
<!-- Node28 -->
<g id="Node000028" class="node">
<title>Node28</title>
<g id="a_Node000028"><a xlink:title=" ">
<polygon fill="#e0e0e0" stroke="#999999" points="1832.5,-294 1783.5,-294 1783.5,-275 1832.5,-275 1832.5,-294"/>
<text text-anchor="middle" x="1808" y="-282" font-family="Helvetica,sans-Serif" font-size="10.00">cstdlib</text>
</a>
</g>
</g>
<!-- Node1&#45;&gt;Node28 -->
<g id="edge38_Node000001_Node000028" class="edge">
<title>Node1&#45;&gt;Node28</title>
<g id="a_edge38_Node000001_Node000028"><a xlink:title=" ">
<path fill="none" stroke="#63b8ff" d="M1260.74,-341.18C1375.83,-336.44 1585.36,-324.42 1773.16,-293.85"/>
<polygon fill="#63b8ff" stroke="#63b8ff" points="1773.92,-297.27 1783.21,-292.19 1772.78,-290.36 1773.92,-297.27"/>
</a>
</g>
</g>
<!-- Node29 -->
<g id="Node000029" class="node">
<title>Node29</title>
<g id="a_Node000029"><a xlink:title=" ">
<polygon fill="#e0e0e0" stroke="#999999" points="1915.5,-294 1850.5,-294 1850.5,-275 1915.5,-275 1915.5,-294"/>
<text text-anchor="middle" x="1883" y="-282" font-family="Helvetica,sans-Serif" font-size="10.00">functional</text>
</a>
</g>
</g>
<!-- Node1&#45;&gt;Node29 -->
<g id="edge39_Node000001_Node000029" class="edge">
<title>Node1&#45;&gt;Node29</title>
<g id="a_edge39_Node000001_Node000029"><a xlink:title=" ">
<path fill="none" stroke="#63b8ff" d="M1260.59,-341.11C1386.33,-336.11 1626.89,-323.54 1840.25,-294.07"/>
<polygon fill="#63b8ff" stroke="#63b8ff" points="1840.97,-297.51 1850.39,-292.66 1840,-290.57 1840.97,-297.51"/>
</a>
</g>
</g>
<!-- Node30 -->
<g id="Node000030" class="node">
<title>Node30</title>
<g id="a_Node000030"><a xlink:title=" ">
<polygon fill="#e0e0e0" stroke="#999999" points="1326.5,-129 1261.5,-129 1261.5,-110 1326.5,-110 1326.5,-129"/>
<text text-anchor="middle" x="1294" y="-117" font-family="Helvetica,sans-Serif" font-size="10.00">stdexcept</text>
</a>
</g>
</g>
<!-- Node1&#45;&gt;Node30 -->
<g id="edge41_Node000001_Node000030" class="edge">
<title>Node1&#45;&gt;Node30</title>
<g id="a_edge41_Node000001_Node000030"><a xlink:title=" ">
<path fill="none" stroke="#63b8ff" d="M1181.69,-329.68C1202.76,-290.43 1261.39,-181.23 1284.48,-138.23"/>
<polygon fill="#63b8ff" stroke="#63b8ff" points="1287.67,-139.7 1289.31,-129.23 1281.5,-136.39 1287.67,-139.7"/>
</a>
</g>
</g>
<!-- Node31 -->
<g id="Node000031" class="node">
<title>Node31</title>
<g id="a_Node000031"><a xlink:href="catchLibLog_8hpp.html" target="_top" xlink:title=" ">
<polygon fill="white" stroke="#666666" points="1656.5,-294 1561.5,-294 1561.5,-275 1656.5,-275 1656.5,-294"/>
<text text-anchor="middle" x="1609" y="-282" font-family="Helvetica,sans-Serif" font-size="10.00">catchLibLog.hpp</text>
</a>
</g>
</g>
<!-- Node1&#45;&gt;Node31 -->
<g id="edge45_Node000001_Node000031" class="edge">
<title>Node1&#45;&gt;Node31</title>
<g id="a_edge45_Node000001_Node000031"><a xlink:title=" ">
<path fill="none" stroke="#63b8ff" d="M1260.68,-332.45C1336.29,-322.37 1448.91,-307.3 1547,-294 1548.3,-293.82 1549.62,-293.64 1550.95,-293.46"/>
<polygon fill="#63b8ff" stroke="#63b8ff" points="1551.84,-296.88 1561.27,-292.06 1550.89,-289.94 1551.84,-296.88"/>
</a>
</g>
</g>
<!-- Node33 -->
<g id="Node000033" class="node">
<title>Node33</title>
<g id="a_Node000033"><a xlink:href="fileExport_8hpp.html" target="_top" xlink:title=" ">
<polygon fill="white" stroke="#666666" points="1056,-239 948,-239 948,-220 1056,-220 1056,-239"/>
<text text-anchor="middle" x="1002" y="-227" font-family="Helvetica,sans-Serif" font-size="10.00">utils/fileExport.hpp</text>
</a>
</g>
</g>
<!-- Node1&#45;&gt;Node33 -->
<g id="edge48_Node000001_Node000033" class="edge">
<title>Node1&#45;&gt;Node33</title>
<g id="a_edge48_Node000001_Node000033"><a xlink:title=" ">
<path fill="none" stroke="#63b8ff" d="M1138.75,-329.95C1118.18,-321.02 1092.19,-308.43 1071,-294 1050.53,-280.06 1030.02,-260.26 1016.75,-246.49"/>
<polygon fill="#63b8ff" stroke="#63b8ff" points="1019.24,-244.03 1009.82,-239.17 1014.15,-248.84 1019.24,-244.03"/>
</a>
</g>
</g>
<!-- Node35 -->
<g id="Node000035" class="node">
<title>Node35</title>
<g id="a_Node000035"><a xlink:href="parameters_8hpp.html" target="_top" xlink:title=" ">
<polygon fill="white" stroke="#666666" points="1233,-184 1115,-184 1115,-165 1233,-165 1233,-184"/>
<text text-anchor="middle" x="1174" y="-172" font-family="Helvetica,sans-Serif" font-size="10.00">utils/parameters.hpp</text>
</a>
</g>
</g>
<!-- Node1&#45;&gt;Node35 -->
<g id="edge62_Node000001_Node000035" class="edge">
<title>Node1&#45;&gt;Node35</title>
<g id="a_edge62_Node000001_Node000035"><a xlink:title=" ">
<path fill="none" stroke="#63b8ff" d="M1174,-329.92C1174,-299.65 1174,-228.35 1174,-194.27"/>
<polygon fill="#63b8ff" stroke="#63b8ff" points="1177.5,-194.25 1174,-184.25 1170.5,-194.25 1177.5,-194.25"/>
</a>
</g>
</g>
<!-- Node2&#45;&gt;Node3 -->
<g id="edge2_Node000002_Node000003" class="edge">
<title>Node2&#45;&gt;Node3</title>
<g id="a_edge2_Node000002_Node000003"><a xlink:title=" ">
<path fill="none" stroke="#63b8ff" d="M714.81,-274.98C697.75,-266.54 671.37,-253.47 651.6,-243.68"/>
<polygon fill="#63b8ff" stroke="#63b8ff" points="653.02,-240.47 642.5,-239.17 649.91,-246.75 653.02,-240.47"/>
</a>
</g>
</g>
<!-- Node2&#45;&gt;Node4 -->
<g id="edge3_Node000002_Node000004" class="edge">
<title>Node2&#45;&gt;Node4</title>
<g id="a_edge3_Node000002_Node000004"><a xlink:title=" ">
<path fill="none" stroke="#63b8ff" d="M726.17,-274.78C720.32,-265.92 711.18,-251.72 704,-239 695.47,-223.9 686.67,-206.26 680.46,-193.4"/>
<polygon fill="#63b8ff" stroke="#63b8ff" points="683.56,-191.78 676.09,-184.26 677.25,-194.8 683.56,-191.78"/>
</a>
</g>
</g>
<!-- Node2&#45;&gt;Node26 -->
<g id="edge31_Node000002_Node000026" class="edge">
<title>Node2&#45;&gt;Node26</title>
<g id="a_edge31_Node000002_Node000026"><a xlink:title=" ">
<path fill="none" stroke="#63b8ff" d="M741,-274.98C749.19,-267.23 761.51,-255.58 771.47,-246.14"/>
<polygon fill="#63b8ff" stroke="#63b8ff" points="773.98,-248.59 778.84,-239.17 769.17,-243.5 773.98,-248.59"/>
</a>
</g>
</g>
<!-- Node4&#45;&gt;Node5 -->
<g id="edge4_Node000004_Node000005" class="edge">
<title>Node4&#45;&gt;Node5</title>
<g id="a_edge4_Node000004_Node000005"><a xlink:title=" ">
<path fill="none" stroke="#63b8ff" d="M610.94,-173.37C469.63,-172.43 129.51,-166.28 95,-129 89.26,-122.8 89.49,-116.4 95,-110 127.97,-71.7 281.73,-65.91 353.68,-65.34"/>
<polygon fill="#63b8ff" stroke="#63b8ff" points="354.11,-68.84 364.09,-65.29 354.07,-61.84 354.11,-68.84"/>
</a>
</g>
</g>
<!-- Node4&#45;&gt;Node6 -->
<g id="edge5_Node000004_Node000006" class="edge">
<title>Node4&#45;&gt;Node6</title>
<g id="a_edge5_Node000004_Node000006"><a xlink:title=" ">
<path fill="none" stroke="#63b8ff" d="M698.3,-164.94C723.96,-156.42 763.99,-142.67 798,-129 817.01,-121.36 820.19,-115.24 840,-110 1007.86,-65.61 1056.33,-92.18 1229,-74 1240.88,-72.75 1253.86,-71.26 1265.47,-69.87"/>
<polygon fill="#63b8ff" stroke="#63b8ff" points="1266.18,-73.31 1275.69,-68.65 1265.35,-66.36 1266.18,-73.31"/>
</a>
</g>
</g>
<!-- Node7 -->
<g id="Node000007" class="node">
<title>Node7</title>
<g id="a_Node000007"><a xlink:title=" ">
<polygon fill="#e0e0e0" stroke="#999999" points="546,-19 486,-19 486,0 546,0 546,-19"/>
<text text-anchor="middle" x="516" y="-7" font-family="Helvetica,sans-Serif" font-size="10.00">iostream</text>
</a>
</g>
</g>
<!-- Node4&#45;&gt;Node7 -->
<g id="edge6_Node000004_Node000007" class="edge">
<title>Node4&#45;&gt;Node7</title>
<g id="a_edge6_Node000004_Node000007"><a xlink:title=" ">
<path fill="none" stroke="#63b8ff" d="M610.89,-173.44C468.12,-172.66 122.07,-166.84 87,-129 31.55,-69.18 359.35,-27.43 475.97,-14.63"/>
<polygon fill="#63b8ff" stroke="#63b8ff" points="476.37,-18.11 485.93,-13.55 475.62,-11.15 476.37,-18.11"/>
</a>
</g>
</g>
<!-- Node4&#45;&gt;Node8 -->
<g id="edge7_Node000004_Node000008" class="edge">
<title>Node4&#45;&gt;Node8</title>
<g id="a_edge7_Node000004_Node000008"><a xlink:title=" ">
<path fill="none" stroke="#63b8ff" d="M727.75,-164.98C798.38,-154.2 918.3,-135.88 979.91,-126.47"/>
<polygon fill="#63b8ff" stroke="#63b8ff" points="980.64,-129.9 990,-124.93 979.58,-122.98 980.64,-129.9"/>
</a>
</g>
</g>
<!-- Node9 -->
<g id="Node000009" class="node">
<title>Node9</title>
<g id="a_Node000009"><a xlink:title=" ">
<polygon fill="#e0e0e0" stroke="#999999" points="151.5,-129 104.5,-129 104.5,-110 151.5,-110 151.5,-129"/>
<text text-anchor="middle" x="128" y="-117" font-family="Helvetica,sans-Serif" font-size="10.00">queue</text>
</a>
</g>
</g>
<!-- Node4&#45;&gt;Node9 -->
<g id="edge8_Node000004_Node000009" class="edge">
<title>Node4&#45;&gt;Node9</title>
<g id="a_edge8_Node000004_Node000009"><a xlink:title=" ">
<path fill="none" stroke="#63b8ff" d="M610.87,-171.6C516.3,-167.92 328.78,-157.62 161.63,-129.01"/>
<polygon fill="#63b8ff" stroke="#63b8ff" points="162.12,-125.54 151.66,-127.27 160.92,-132.44 162.12,-125.54"/>
</a>
</g>
</g>
<!-- Node10 -->
<g id="Node000010" class="node">
<title>Node10</title>
<g id="a_Node000010"><a xlink:title=" ">
<polygon fill="#e0e0e0" stroke="#999999" points="240.5,-129 169.5,-129 169.5,-110 240.5,-110 240.5,-129"/>
<text text-anchor="middle" x="205" y="-117" font-family="Helvetica,sans-Serif" font-size="10.00">semaphore</text>
</a>
</g>
</g>
<!-- Node4&#45;&gt;Node10 -->
<g id="edge9_Node000004_Node000010" class="edge">
<title>Node4&#45;&gt;Node10</title>
<g id="a_edge9_Node000004_Node000010"><a xlink:title=" ">
<path fill="none" stroke="#63b8ff" d="M610.65,-168.61C530.36,-161.86 385.05,-148.44 250.87,-129.01"/>
<polygon fill="#63b8ff" stroke="#63b8ff" points="251.22,-125.52 240.82,-127.54 250.21,-132.45 251.22,-125.52"/>
</a>
</g>
</g>
<!-- Node11 -->
<g id="Node000011" class="node">
<title>Node11</title>
<g id="a_Node000011"><a xlink:title=" ">
<polygon fill="#e0e0e0" stroke="#999999" points="1148,-74 1092,-74 1092,-55 1148,-55 1148,-74"/>
<text text-anchor="middle" x="1120" y="-62" font-family="Helvetica,sans-Serif" font-size="10.00">sstream</text>
</a>
</g>
</g>
<!-- Node4&#45;&gt;Node11 -->
<g id="edge10_Node000004_Node000011" class="edge">
<title>Node4&#45;&gt;Node11</title>
<g id="a_edge10_Node000004_Node000011"><a xlink:title=" ">
<path fill="none" stroke="#63b8ff" d="M688.5,-164.91C718.79,-149.27 782.33,-117.11 806,-110 902.51,-81.03 1021.51,-70.74 1081.52,-67.22"/>
<polygon fill="#63b8ff" stroke="#63b8ff" points="1081.88,-70.71 1091.67,-66.66 1081.49,-63.72 1081.88,-70.71"/>
</a>
</g>
</g>
<!-- Node4&#45;&gt;Node12 -->
<g id="edge11_Node000004_Node000012" class="edge">
<title>Node4&#45;&gt;Node12</title>
<g id="a_edge11_Node000004_Node000012"><a xlink:title=" ">
<path fill="none" stroke="#63b8ff" d="M681.51,-164.98C696.83,-151.63 728.38,-125.69 759,-110 852.52,-62.09 973.88,-30.64 1030.83,-17.5"/>
<polygon fill="#63b8ff" stroke="#63b8ff" points="1031.71,-20.89 1040.69,-15.26 1030.16,-14.06 1031.71,-20.89"/>
</a>
</g>
</g>
<!-- Node4&#45;&gt;Node13 -->
<g id="edge12_Node000004_Node000013" class="edge">
<title>Node4&#45;&gt;Node13</title>
<g id="a_edge12_Node000004_Node000013"><a xlink:title=" ">
<path fill="none" stroke="#63b8ff" d="M704.13,-164.98C740.97,-155.22 801.08,-139.29 838.49,-129.38"/>
<polygon fill="#63b8ff" stroke="#63b8ff" points="839.63,-132.7 848.4,-126.75 837.84,-125.93 839.63,-132.7"/>
</a>
</g>
</g>
<!-- Node14 -->
<g id="Node000014" class="node">
<title>Node14</title>
<g id="a_Node000014"><a xlink:title=" ">
<polygon fill="#e0e0e0" stroke="#999999" points="323,-129 259,-129 259,-110 323,-110 323,-129"/>
<text text-anchor="middle" x="291" y="-117" font-family="Helvetica,sans-Serif" font-size="10.00">algorithm</text>
</a>
</g>
</g>
<!-- Node4&#45;&gt;Node14 -->
<g id="edge13_Node000004_Node000014" class="edge">
<title>Node4&#45;&gt;Node14</title>
<g id="a_edge13_Node000004_Node000014"><a xlink:title=" ">
<path fill="none" stroke="#63b8ff" d="M610.99,-166.9C544.92,-159.44 436.21,-146.26 333.14,-129.08"/>
<polygon fill="#63b8ff" stroke="#63b8ff" points="333.63,-125.62 323.19,-127.41 332.47,-132.52 333.63,-125.62"/>
</a>
</g>
</g>
<!-- Node15 -->
<g id="Node000015" class="node">
<title>Node15</title>
<g id="a_Node000015"><a xlink:title=" ">
<polygon fill="#e0e0e0" stroke="#999999" points="434.5,-129 341.5,-129 341.5,-110 434.5,-110 434.5,-129"/>
<text text-anchor="middle" x="388" y="-117" font-family="Helvetica,sans-Serif" font-size="10.00">unordered_map</text>
</a>
</g>
</g>
<!-- Node4&#45;&gt;Node15 -->
<g id="edge14_Node000004_Node000015" class="edge">
<title>Node4&#45;&gt;Node15</title>
<g id="a_edge14_Node000004_Node000015"><a xlink:title=" ">
<path fill="none" stroke="#63b8ff" d="M626.37,-164.98C576.73,-155.72 497.34,-140.9 443.97,-130.94"/>
<polygon fill="#63b8ff" stroke="#63b8ff" points="444.46,-127.48 433.99,-129.08 443.18,-134.36 444.46,-127.48"/>
</a>
</g>
</g>
<!-- Node16 -->
<g id="Node000016" class="node">
<title>Node16</title>
<g id="a_Node000016"><a xlink:title=" ">
<polygon fill="#e0e0e0" stroke="#999999" points="579.5,-129 452.5,-129 452.5,-110 579.5,-110 579.5,-129"/>
<text text-anchor="middle" x="516" y="-117" font-family="Helvetica,sans-Serif" font-size="10.00">../utils/parameters.hpp</text>
</a>
</g>
</g>
<!-- Node4&#45;&gt;Node16 -->
<g id="edge15_Node000004_Node000016" class="edge">
<title>Node4&#45;&gt;Node16</title>
<g id="a_edge15_Node000004_Node000016"><a xlink:title=" ">
<path fill="none" stroke="#63b8ff" d="M646.94,-164.98C620.97,-156.16 580.19,-142.31 551.04,-132.41"/>
<polygon fill="#63b8ff" stroke="#63b8ff" points="551.85,-128.99 541.26,-129.08 549.6,-135.61 551.85,-128.99"/>
</a>
</g>
</g>
<!-- Node17 -->
<g id="Node000017" class="node">
<title>Node17</title>
<g id="a_Node000017"><a xlink:title=" ">
<polygon fill="#e0e0e0" stroke="#999999" points="716,-129 598,-129 598,-110 716,-110 716,-129"/>
<text text-anchor="middle" x="657" y="-117" font-family="Helvetica,sans-Serif" font-size="10.00">../utils/constants.hpp</text>
</a>
</g>
</g>
<!-- Node4&#45;&gt;Node17 -->
<g id="edge16_Node000004_Node000017" class="edge">
<title>Node4&#45;&gt;Node17</title>
<g id="a_edge16_Node000004_Node000017"><a xlink:title=" ">
<path fill="none" stroke="#63b8ff" d="M669.52,-164.75C667.54,-157.72 664.68,-147.62 662.19,-138.84"/>
<polygon fill="#63b8ff" stroke="#63b8ff" points="665.52,-137.76 659.43,-129.09 658.79,-139.66 665.52,-137.76"/>
</a>
</g>
</g>
<!-- Node18 -->
<g id="Node000018" class="node">
<title>Node18</title>
<g id="a_Node000018"><a xlink:href="utils_8hpp.html" target="_top" xlink:title=" ">
<polygon fill="white" stroke="#666666" points="1243.5,-129 1142.5,-129 1142.5,-110 1243.5,-110 1243.5,-129"/>
<text text-anchor="middle" x="1193" y="-117" font-family="Helvetica,sans-Serif" font-size="10.00">uvgutils/utils.hpp</text>
</a>
</g>
</g>
<!-- Node4&#45;&gt;Node18 -->
<g id="edge17_Node000004_Node000018" class="edge">
<title>Node4&#45;&gt;Node18</title>
<g id="a_edge17_Node000004_Node000018"><a xlink:title=" ">
<path fill="none" stroke="#63b8ff" d="M733.04,-167.29C833.45,-157.08 1032.29,-136.85 1132.4,-126.66"/>
<polygon fill="#63b8ff" stroke="#63b8ff" points="1132.77,-130.15 1142.36,-125.65 1132.06,-123.18 1132.77,-130.15"/>
</a>
</g>
</g>
<!-- Node18&#45;&gt;Node5 -->
<g id="edge19_Node000018_Node000005" class="edge">
<title>Node18&#45;&gt;Node5</title>
<g id="a_edge19_Node000018_Node000005"><a xlink:title=" ">
<path fill="none" stroke="#63b8ff" d="M1142.22,-115.14C992.85,-105.27 557.31,-76.49 427.76,-67.93"/>
<polygon fill="#63b8ff" stroke="#63b8ff" points="427.78,-64.42 417.58,-67.26 427.32,-71.41 427.78,-64.42"/>
</a>
</g>
</g>
<!-- Node18&#45;&gt;Node6 -->
<g id="edge20_Node000018_Node000006" class="edge">
<title>Node18&#45;&gt;Node6</title>
<g id="a_edge20_Node000018_Node000006"><a xlink:title=" ">
<path fill="none" stroke="#63b8ff" d="M1210.35,-109.98C1227.57,-101.54 1254.2,-88.47 1274.15,-78.68"/>
<polygon fill="#63b8ff" stroke="#63b8ff" points="1275.9,-81.72 1283.33,-74.17 1272.81,-75.43 1275.9,-81.72"/>
</a>
</g>
</g>
<!-- Node18&#45;&gt;Node11 -->
<g id="edge23_Node000018_Node000011" class="edge">
<title>Node18&#45;&gt;Node11</title>
<g id="a_edge23_Node000018_Node000011"><a xlink:title=" ">
<path fill="none" stroke="#63b8ff" d="M1181.27,-109.98C1170.27,-102 1153.58,-89.88 1140.4,-80.31"/>
<polygon fill="#63b8ff" stroke="#63b8ff" points="1142.09,-77.21 1131.94,-74.17 1137.98,-82.88 1142.09,-77.21"/>
</a>
</g>
</g>
<!-- Node19 -->
<g id="Node000019" class="node">
<title>Node19</title>
<g id="a_Node000019"><a xlink:title=" ">
<polygon fill="#e0e0e0" stroke="#999999" points="1448,-74 1406,-74 1406,-55 1448,-55 1448,-74"/>
<text text-anchor="middle" x="1427" y="-62" font-family="Helvetica,sans-Serif" font-size="10.00">array</text>
</a>
</g>
</g>
<!-- Node18&#45;&gt;Node19 -->
<g id="edge18_Node000018_Node000019" class="edge">
<title>Node18&#45;&gt;Node19</title>
<g id="a_edge18_Node000018_Node000019"><a xlink:title=" ">
<path fill="none" stroke="#63b8ff" d="M1235.77,-109.97C1275.06,-101.95 1335.13,-89.24 1395.97,-74.14"/>
<polygon fill="#63b8ff" stroke="#63b8ff" points="1396.89,-77.52 1405.74,-71.7 1395.19,-70.73 1396.89,-77.52"/>
</a>
</g>
</g>
<!-- Node20 -->
<g id="Node000020" class="node">
<title>Node20</title>
<g id="a_Node000020"><a xlink:title=" ">
<polygon fill="#e0e0e0" stroke="#999999" points="1293,-19 1237,-19 1237,0 1293,0 1293,-19"/>
<text text-anchor="middle" x="1265" y="-7" font-family="Helvetica,sans-Serif" font-size="10.00">iomanip</text>
</a>
</g>
</g>
<!-- Node18&#45;&gt;Node20 -->
<g id="edge21_Node000018_Node000020" class="edge">
<title>Node18&#45;&gt;Node20</title>
<g id="a_edge21_Node000018_Node000020"><a xlink:title=" ">
<path fill="none" stroke="#63b8ff" d="M1200.61,-109.96C1208.22,-101.24 1220.05,-87.14 1229,-74 1239.02,-59.29 1248.88,-41.61 1255.74,-28.64"/>
<polygon fill="#63b8ff" stroke="#63b8ff" points="1259.04,-29.89 1260.55,-19.4 1252.83,-26.66 1259.04,-29.89"/>
</a>
</g>
</g>
<!-- Node21 -->
<g id="Node000021" class="node">
<title>Node21</title>
<g id="a_Node000021"><a xlink:title=" ">
<polygon fill="#e0e0e0" stroke="#999999" points="1388,-74 1344,-74 1344,-55 1388,-55 1388,-74"/>
<text text-anchor="middle" x="1366" y="-62" font-family="Helvetica,sans-Serif" font-size="10.00">limits</text>
</a>
</g>
</g>
<!-- Node18&#45;&gt;Node21 -->
<g id="edge22_Node000018_Node000021" class="edge">
<title>Node18&#45;&gt;Node21</title>
<g id="a_edge22_Node000018_Node000021"><a xlink:title=" ">
<path fill="none" stroke="#63b8ff" d="M1220.8,-109.98C1251.65,-100.53 1301.37,-85.3 1333.87,-75.34"/>
<polygon fill="#63b8ff" stroke="#63b8ff" points="1335.24,-78.59 1343.77,-72.31 1333.19,-71.89 1335.24,-78.59"/>
</a>
</g>
</g>
<!-- Node22 -->
<g id="Node000022" class="node">
<title>Node22</title>
<g id="a_Node000022"><a xlink:href="log_8hpp.html" target="_top" xlink:title=" ">
<polygon fill="white" stroke="#666666" points="1219.5,-74 1166.5,-74 1166.5,-55 1219.5,-55 1219.5,-74"/>
<text text-anchor="middle" x="1193" y="-62" font-family="Helvetica,sans-Serif" font-size="10.00">log.hpp</text>
</a>
</g>
</g>
<!-- Node18&#45;&gt;Node22 -->
<g id="edge24_Node000018_Node000022" class="edge">
<title>Node18&#45;&gt;Node22</title>
<g id="a_edge24_Node000018_Node000022"><a xlink:title=" ">
<path fill="none" stroke="#63b8ff" d="M1193,-109.75C1193,-102.8 1193,-92.85 1193,-84.13"/>
<polygon fill="#63b8ff" stroke="#63b8ff" points="1196.5,-84.09 1193,-74.09 1189.5,-84.09 1196.5,-84.09"/>
</a>
</g>
</g>
<!-- Node22&#45;&gt;Node7 -->
<g id="edge28_Node000022_Node000007" class="edge">
<title>Node22&#45;&gt;Node7</title>
<g id="a_edge28_Node000022_Node000007"><a xlink:title=" ">
<path fill="none" stroke="#63b8ff" d="M1166.36,-56.7C1163.22,-56.05 1160.05,-55.46 1157,-55 931.71,-20.82 657.83,-12.85 556.34,-11.03"/>
<polygon fill="#63b8ff" stroke="#63b8ff" points="556.28,-7.53 546.23,-10.86 556.17,-14.53 556.28,-7.53"/>
</a>
</g>
</g>
<!-- Node22&#45;&gt;Node12 -->
<g id="edge30_Node000022_Node000012" class="edge">
<title>Node22&#45;&gt;Node12</title>
<g id="a_edge30_Node000022_Node000012"><a xlink:title=" ">
<path fill="none" stroke="#63b8ff" d="M1172.11,-54.98C1150.92,-46.34 1117.87,-32.87 1093.7,-23.02"/>
<polygon fill="#63b8ff" stroke="#63b8ff" points="1094.85,-19.7 1084.27,-19.17 1092.21,-26.19 1094.85,-19.7"/>
</a>
</g>
</g>
<!-- Node22&#45;&gt;Node20 -->
<g id="edge27_Node000022_Node000020" class="edge">
<title>Node22&#45;&gt;Node20</title>
<g id="a_edge27_Node000022_Node000020"><a xlink:title=" ">
<path fill="none" stroke="#63b8ff" d="M1204.57,-54.98C1215.42,-47 1231.88,-34.88 1244.88,-25.31"/>
<polygon fill="#63b8ff" stroke="#63b8ff" points="1247.24,-27.92 1253.22,-19.17 1243.09,-22.28 1247.24,-27.92"/>
</a>
</g>
</g>
<!-- Node23 -->
<g id="Node000023" class="node">
<title>Node23</title>
<g id="a_Node000023"><a xlink:title=" ">
<polygon fill="#e0e0e0" stroke="#999999" points="1219,-19 1169,-19 1169,0 1219,0 1219,-19"/>
<text text-anchor="middle" x="1194" y="-7" font-family="Helvetica,sans-Serif" font-size="10.00">chrono</text>
</a>
</g>
</g>
<!-- Node22&#45;&gt;Node23 -->
<g id="edge25_Node000022_Node000023" class="edge">
<title>Node22&#45;&gt;Node23</title>
<g id="a_edge25_Node000022_Node000023"><a xlink:title=" ">
<path fill="none" stroke="#63b8ff" d="M1193.17,-54.75C1193.3,-47.8 1193.48,-37.85 1193.65,-29.13"/>
<polygon fill="#63b8ff" stroke="#63b8ff" points="1197.15,-29.15 1193.84,-19.09 1190.15,-29.02 1197.15,-29.15"/>
</a>
</g>
</g>
<!-- Node22&#45;&gt;Node24 -->
<g id="edge26_Node000022_Node000024" class="edge">
<title>Node22&#45;&gt;Node24</title>
<g id="a_edge26_Node000022_Node000024"><a xlink:title=" ">
<path fill="none" stroke="#63b8ff" d="M1219.81,-59.86C1287.93,-50.6 1467.84,-26.15 1545.94,-15.54"/>
<polygon fill="#63b8ff" stroke="#63b8ff" points="1546.83,-18.95 1556.26,-14.13 1545.88,-12.01 1546.83,-18.95"/>
</a>
</g>
</g>
<!-- Node25 -->
<g id="Node000025" class="node">
<title>Node25</title>
<g id="a_Node000025"><a xlink:title=" ">
<polygon fill="#e0e0e0" stroke="#999999" points="1151,-19 1103,-19 1103,0 1151,0 1151,-19"/>
<text text-anchor="middle" x="1127" y="-7" font-family="Helvetica,sans-Serif" font-size="10.00">mutex</text>
</a>
</g>
</g>
<!-- Node22&#45;&gt;Node25 -->
<g id="edge29_Node000022_Node000025" class="edge">
<title>Node22&#45;&gt;Node25</title>
<g id="a_edge29_Node000022_Node000025"><a xlink:title=" ">
<path fill="none" stroke="#63b8ff" d="M1182.4,-54.98C1172.54,-47.07 1157.65,-35.11 1145.78,-25.58"/>
<polygon fill="#63b8ff" stroke="#63b8ff" points="1147.79,-22.7 1137.8,-19.17 1143.4,-28.16 1147.79,-22.7"/>
</a>
</g>
</g>
<!-- Node26&#45;&gt;Node4 -->
<g id="edge32_Node000026_Node000004" class="edge">
<title>Node26&#45;&gt;Node4</title>
<g id="a_edge32_Node000026_Node000004"><a xlink:title=" ">
<path fill="none" stroke="#63b8ff" d="M769.36,-219.98C750.7,-211.46 721.75,-198.23 700.26,-188.41"/>
<polygon fill="#63b8ff" stroke="#63b8ff" points="701.53,-185.14 690.98,-184.17 698.62,-191.51 701.53,-185.14"/>
</a>
</g>
</g>
<!-- Node31&#45;&gt;Node24 -->
<g id="edge46_Node000031_Node000024" class="edge">
<title>Node31&#45;&gt;Node24</title>
<g id="a_edge46_Node000031_Node000024"><a xlink:title=" ">
<path fill="none" stroke="#63b8ff" d="M1605.49,-274.99C1598.4,-256.97 1583,-213.49 1583,-175.5 1583,-175.5 1583,-175.5 1583,-118.5 1583,-87.19 1583,-50.77 1583,-29.23"/>
<polygon fill="#63b8ff" stroke="#63b8ff" points="1586.5,-29.18 1583,-19.18 1579.5,-29.18 1586.5,-29.18"/>
</a>
</g>
</g>
<!-- Node32 -->
<g id="Node000032" class="node">
<title>Node32</title>
<g id="a_Node000032"><a xlink:title=" ">
<polygon fill="#e0e0e0" stroke="#999999" points="1657,-239 1611,-239 1611,-220 1657,-220 1657,-239"/>
<text text-anchor="middle" x="1634" y="-227" font-family="Helvetica,sans-Serif" font-size="10.00">cstdio</text>
</a>
</g>
</g>
<!-- Node31&#45;&gt;Node32 -->
<g id="edge47_Node000031_Node000032" class="edge">
<title>Node31&#45;&gt;Node32</title>
<g id="a_edge47_Node000031_Node000032"><a xlink:title=" ">
<path fill="none" stroke="#63b8ff" d="M1613.13,-274.75C1616.51,-267.57 1621.42,-257.18 1625.62,-248.27"/>
<polygon fill="#63b8ff" stroke="#63b8ff" points="1628.85,-249.63 1629.95,-239.09 1622.52,-246.64 1628.85,-249.63"/>
</a>
</g>
</g>
<!-- Node33&#45;&gt;Node4 -->
<g id="edge61_Node000033_Node000004" class="edge">
<title>Node33&#45;&gt;Node4</title>
<g id="a_edge61_Node000033_Node000004"><a xlink:title=" ">
<path fill="none" stroke="#63b8ff" d="M948.98,-219.98C890.73,-210.63 797.23,-195.61 735.22,-185.65"/>
<polygon fill="#63b8ff" stroke="#63b8ff" points="735.59,-182.17 725.16,-184.04 734.48,-189.08 735.59,-182.17"/>
</a>
</g>
</g>
<!-- Node33&#45;&gt;Node5 -->
<g id="edge49_Node000033_Node000005" class="edge">
<title>Node33&#45;&gt;Node5</title>
<g id="a_edge49_Node000033_Node000005"><a xlink:title=" ">
<path fill="none" stroke="#63b8ff" d="M988.88,-219.73C977.19,-211.47 960.11,-198.26 948,-184 923.38,-155 937.12,-130.38 905,-110 864.89,-84.55 538.24,-70.72 427.54,-66.73"/>
<polygon fill="#63b8ff" stroke="#63b8ff" points="427.63,-63.23 417.51,-66.37 427.38,-70.23 427.63,-63.23"/>
</a>
</g>
</g>
<!-- Node33&#45;&gt;Node8 -->
<g id="edge50_Node000033_Node000008" class="edge">
<title>Node33&#45;&gt;Node8</title>
<g id="a_edge50_Node000033_Node000008"><a xlink:title=" ">
<path fill="none" stroke="#63b8ff" d="M1003.39,-219.66C1006.14,-202.17 1012.34,-162.8 1016.04,-139.27"/>
<polygon fill="#63b8ff" stroke="#63b8ff" points="1019.54,-139.58 1017.64,-129.16 1012.62,-138.49 1019.54,-139.58"/>
</a>
</g>
</g>
<!-- Node33&#45;&gt;Node12 -->
<g id="edge51_Node000033_Node000012" class="edge">
<title>Node33&#45;&gt;Node12</title>
<g id="a_edge51_Node000033_Node000012"><a xlink:title=" ">
<path fill="none" stroke="#63b8ff" d="M997.54,-219.91C987.85,-200.04 966.81,-149.53 981,-110 993.56,-75 1024.35,-43.53 1044.42,-25.74"/>
<polygon fill="#63b8ff" stroke="#63b8ff" points="1046.73,-28.37 1052.03,-19.2 1042.16,-23.06 1046.73,-28.37"/>
</a>
</g>
</g>
<!-- Node33&#45;&gt;Node13 -->
<g id="edge52_Node000033_Node000013" class="edge">
<title>Node33&#45;&gt;Node13</title>
<g id="a_edge52_Node000033_Node000013"><a xlink:title=" ">
<path fill="none" stroke="#63b8ff" d="M974.16,-219.85C954.49,-212.67 928.46,-200.89 910,-184 896.25,-171.42 885.89,-152.71 879.48,-138.86"/>
<polygon fill="#63b8ff" stroke="#63b8ff" points="882.56,-137.17 875.37,-129.39 876.14,-139.96 882.56,-137.17"/>
</a>
</g>
</g>
<!-- Node33&#45;&gt;Node18 -->
<g id="edge60_Node000033_Node000018" class="edge">
<title>Node33&#45;&gt;Node18</title>
<g id="a_edge60_Node000033_Node000018"><a xlink:title=" ">
<path fill="none" stroke="#63b8ff" d="M1015.27,-219.95C1034.86,-207.44 1072.78,-183.61 1106,-165 1125.86,-153.88 1148.8,-142.19 1166.13,-133.59"/>
<polygon fill="#63b8ff" stroke="#63b8ff" points="1167.71,-136.71 1175.13,-129.15 1164.61,-130.43 1167.71,-136.71"/>
</a>
</g>
</g>
<!-- Node34 -->
<g id="Node000034" class="node">
<title>Node34</title>
<g id="a_Node000034"><a xlink:href="constants_8hpp.html" target="_top" xlink:title=" ">
<polygon fill="white" stroke="#666666" points="1402.5,-184 1293.5,-184 1293.5,-165 1402.5,-165 1402.5,-184"/>
<text text-anchor="middle" x="1348" y="-172" font-family="Helvetica,sans-Serif" font-size="10.00">utils/constants.hpp</text>
</a>
</g>
</g>
<!-- Node33&#45;&gt;Node34 -->
<g id="edge53_Node000033_Node000034" class="edge">
<title>Node33&#45;&gt;Node34</title>
<g id="a_edge53_Node000033_Node000034"><a xlink:title=" ">
<path fill="none" stroke="#63b8ff" d="M1056.06,-220.22C1117.49,-210.81 1217.7,-195.46 1283.25,-185.42"/>
<polygon fill="#63b8ff" stroke="#63b8ff" points="1284.11,-188.83 1293.46,-183.85 1283.05,-181.91 1284.11,-188.83"/>
</a>
</g>
</g>
<!-- Node34&#45;&gt;Node6 -->
<g id="edge55_Node000034_Node000006" class="edge">
<title>Node34&#45;&gt;Node6</title>
<g id="a_edge55_Node000034_Node000006"><a xlink:title=" ">
<path fill="none" stroke="#63b8ff" d="M1347.66,-164.89C1346.89,-152.31 1344.36,-128.38 1336,-110 1331.29,-99.64 1323.68,-89.55 1316.76,-81.6"/>
<polygon fill="#63b8ff" stroke="#63b8ff" points="1319.29,-79.18 1309.94,-74.18 1314.13,-83.91 1319.29,-79.18"/>
</a>
</g>
</g>
<!-- Node34&#45;&gt;Node11 -->
<g id="edge58_Node000034_Node000011" class="edge">
<title>Node34&#45;&gt;Node11</title>
<g id="a_edge58_Node000034_Node000011"><a xlink:title=" ">
<path fill="none" stroke="#63b8ff" d="M1293.27,-168.84C1237.49,-162.95 1156.1,-150.84 1134,-129 1122.34,-117.48 1119.4,-98.6 1119.05,-84.42"/>
<polygon fill="#63b8ff" stroke="#63b8ff" points="1122.55,-84.33 1119.19,-74.28 1115.55,-84.23 1122.55,-84.33"/>
</a>
</g>
</g>
<!-- Node34&#45;&gt;Node18 -->
<g id="edge59_Node000034_Node000018" class="edge">
<title>Node34&#45;&gt;Node18</title>
<g id="a_edge59_Node000034_Node000018"><a xlink:title=" ">
<path fill="none" stroke="#63b8ff" d="M1323.1,-164.98C1297.3,-156.16 1256.78,-142.31 1227.82,-132.41"/>
<polygon fill="#63b8ff" stroke="#63b8ff" points="1228.69,-129.01 1218.1,-129.08 1226.43,-135.63 1228.69,-129.01"/>
</a>
</g>
</g>
<!-- Node34&#45;&gt;Node19 -->
<g id="edge54_Node000034_Node000019" class="edge">
<title>Node34&#45;&gt;Node19</title>
<g id="a_edge54_Node000034_Node000019"><a xlink:title=" ">
<path fill="none" stroke="#63b8ff" d="M1355.4,-164.81C1362.84,-155.96 1374.53,-141.77 1384,-129 1395.35,-113.68 1407.46,-95.62 1415.93,-82.69"/>
<polygon fill="#63b8ff" stroke="#63b8ff" points="1418.87,-84.58 1421.39,-74.29 1413,-80.77 1418.87,-84.58"/>
</a>
</g>
</g>
<!-- Node34&#45;&gt;Node20 -->
<g id="edge56_Node000034_Node000020" class="edge">
<title>Node34&#45;&gt;Node20</title>
<g id="a_edge56_Node000034_Node000020"><a xlink:title=" ">
<path fill="none" stroke="#63b8ff" d="M1366.95,-164.97C1406.55,-146 1491.61,-98.55 1457,-55 1438.17,-31.3 1353.67,-19.11 1303.26,-13.83"/>
<polygon fill="#63b8ff" stroke="#63b8ff" points="1303.35,-10.32 1293.05,-12.81 1302.65,-17.29 1303.35,-10.32"/>
</a>
</g>
</g>
<!-- Node34&#45;&gt;Node21 -->
<g id="edge57_Node000034_Node000021" class="edge">
<title>Node34&#45;&gt;Node21</title>
<g id="a_edge57_Node000034_Node000021"><a xlink:title=" ">
<path fill="none" stroke="#63b8ff" d="M1353.58,-164.72C1358.74,-156.03 1366.05,-142.17 1369,-129 1372.32,-114.17 1371.2,-96.93 1369.46,-84.16"/>
<polygon fill="#63b8ff" stroke="#63b8ff" points="1372.91,-83.57 1367.86,-74.25 1366,-84.68 1372.91,-83.57"/>
</a>
</g>
</g>
<!-- Node35&#45;&gt;Node12 -->
<g id="edge64_Node000035_Node000012" class="edge">
<title>Node35&#45;&gt;Node12</title>
<g id="a_edge64_Node000035_Node000012"><a xlink:title=" ">
<path fill="none" stroke="#63b8ff" d="M1161.26,-164.94C1149.46,-156.63 1131.85,-143.21 1119,-129 1099.41,-107.33 1095.51,-100.4 1083,-74 1076.19,-59.62 1070.92,-42.34 1067.5,-29.44"/>
<polygon fill="#63b8ff" stroke="#63b8ff" points="1070.82,-28.26 1064.99,-19.41 1064.03,-29.97 1070.82,-28.26"/>
</a>
</g>
</g>
<!-- Node35&#45;&gt;Node13 -->
<g id="edge65_Node000035_Node000013" class="edge">
<title>Node35&#45;&gt;Node13</title>
<g id="a_edge65_Node000035_Node000013"><a xlink:title=" ">
<path fill="none" stroke="#63b8ff" d="M1125.48,-164.98C1063.89,-154.18 959.24,-135.81 905.71,-126.42"/>
<polygon fill="#63b8ff" stroke="#63b8ff" points="906.17,-122.94 895.72,-124.66 904.96,-129.84 906.17,-122.94"/>
</a>
</g>
</g>
<!-- Node35&#45;&gt;Node18 -->
<g id="edge66_Node000035_Node000018" class="edge">
<title>Node35&#45;&gt;Node18</title>
<g id="a_edge66_Node000035_Node000018"><a xlink:title=" ">
<path fill="none" stroke="#63b8ff" d="M1177.14,-164.75C1179.68,-157.65 1183.36,-147.4 1186.53,-138.56"/>
<polygon fill="#63b8ff" stroke="#63b8ff" points="1189.84,-139.68 1189.92,-129.09 1183.25,-137.32 1189.84,-139.68"/>
</a>
</g>
</g>
<!-- Node35&#45;&gt;Node30 -->
<g id="edge63_Node000035_Node000030" class="edge">
<title>Node35&#45;&gt;Node30</title>
<g id="a_edge63_Node000035_Node000030"><a xlink:title=" ">
<path fill="none" stroke="#63b8ff" d="M1193.28,-164.98C1212.67,-156.42 1242.81,-143.11 1265.07,-133.28"/>
<polygon fill="#63b8ff" stroke="#63b8ff" points="1266.64,-136.41 1274.37,-129.17 1263.81,-130.01 1266.64,-136.41"/>
</a>
</g>
</g>
</g>
</svg>
