<?xml version="1.0" encoding="UTF-8" standalone="no"?>
<!DOCTYPE svg PUBLIC "-//W3C//DTD SVG 1.1//EN"
 "http://www.w3.org/Graphics/SVG/1.1/DTD/svg11.dtd">
<!-- Generated by graphviz version 2.43.0 (0)
 -->
<!-- Title: src/libuvgvpccenc/mapEncoding/encoderKvazaar.cpp Pages: 1 -->
<svg width="1707pt" height="368pt"
 viewBox="0.00 0.00 1706.50 368.00" xmlns="http://www.w3.org/2000/svg" xmlns:xlink="http://www.w3.org/1999/xlink">
<g id="graph0" class="graph" transform="scale(1 1) rotate(0) translate(4 364)">
<title>src/libuvgvpccenc/mapEncoding/encoderKvazaar.cpp</title>
<!-- Node1 -->
<g id="Node000001" class="node">
<title>Node1</title>
<g id="a_Node000001"><a xlink:title=" ">
<polygon fill="#999999" stroke="#666666" points="1136,-360 963,-360 963,-330 1136,-330 1136,-360"/>
<text text-anchor="start" x="971" y="-348" font-family="Helvetica,sans-Serif" font-size="10.00">src/libuvgvpccenc/mapEncoding</text>
<text text-anchor="middle" x="1049.5" y="-337" font-family="Helvetica,sans-Serif" font-size="10.00">/encoderKvazaar.cpp</text>
</a>
</g>
</g>
<!-- Node2 -->
<g id="Node000002" class="node">
<title>Node2</title>
<g id="a_Node000002"><a xlink:href="encoderKvazaar_8hpp.html" target="_top" xlink:title=" ">
<polygon fill="white" stroke="#666666" points="910.5,-294 794.5,-294 794.5,-275 910.5,-275 910.5,-294"/>
<text text-anchor="middle" x="852.5" y="-282" font-family="Helvetica,sans-Serif" font-size="10.00">encoderKvazaar.hpp</text>
</a>
</g>
</g>
<!-- Node1&#45;&gt;Node2 -->
<g id="edge1_Node000001_Node000002" class="edge">
<title>Node1&#45;&gt;Node2</title>
<g id="a_edge1_Node000001_Node000002"><a xlink:title=" ">
<path fill="none" stroke="#63b8ff" d="M1002.31,-329.99C968.32,-319.89 923,-306.44 891.14,-296.98"/>
<polygon fill="#63b8ff" stroke="#63b8ff" points="891.89,-293.55 881.3,-294.05 889.89,-300.26 891.89,-293.55"/>
</a>
</g>
</g>
<!-- Node3 -->
<g id="Node000003" class="node">
<title>Node3</title>
<g id="a_Node000003"><a xlink:title=" ">
<polygon fill="#e0e0e0" stroke="#999999" points="777.5,-239 713.5,-239 713.5,-220 777.5,-220 777.5,-239"/>
<text text-anchor="middle" x="745.5" y="-227" font-family="Helvetica,sans-Serif" font-size="10.00">kvazaar.h</text>
</a>
</g>
</g>
<!-- Node1&#45;&gt;Node3 -->
<g id="edge33_Node000001_Node000003" class="edge">
<title>Node1&#45;&gt;Node3</title>
<g id="a_edge33_Node000001_Node000003"><a xlink:title=" ">
<path fill="none" stroke="#63b8ff" d="M962.75,-335.11C897.24,-327.01 813.93,-313.37 785.5,-294 769.38,-283.02 758.44,-263.18 752.13,-248.58"/>
<polygon fill="#63b8ff" stroke="#63b8ff" points="755.3,-247.08 748.34,-239.09 748.79,-249.67 755.3,-247.08"/>
</a>
</g>
</g>
<!-- Node4 -->
<g id="Node000004" class="node">
<title>Node4</title>
<g id="a_Node000004"><a xlink:href="uvgvpcc_8hpp.html" target="_top" xlink:title=" ">
<polygon fill="white" stroke="#666666" points="874.5,-184 752.5,-184 752.5,-165 874.5,-165 874.5,-184"/>
<text text-anchor="middle" x="813.5" y="-172" font-family="Helvetica,sans-Serif" font-size="10.00">uvgvpcc/uvgvpcc.hpp</text>
</a>
</g>
</g>
<!-- Node1&#45;&gt;Node4 -->
<g id="edge69_Node000001_Node000004" class="edge">
<title>Node1&#45;&gt;Node4</title>
<g id="a_edge69_Node000001_Node000004"><a xlink:title=" ">
<path fill="none" stroke="#63b8ff" d="M1044.68,-329.65C1034.54,-300.29 1010.47,-234.89 992.5,-220 962.54,-195.18 920.69,-183.9 884.99,-178.89"/>
<polygon fill="#63b8ff" stroke="#63b8ff" points="884.98,-175.36 874.62,-177.58 884.1,-182.31 884.98,-175.36"/>
</a>
</g>
</g>
<!-- Node6 -->
<g id="Node000006" class="node">
<title>Node6</title>
<g id="a_Node000006"><a xlink:title=" ">
<polygon fill="#e0e0e0" stroke="#999999" points="241.5,-129 189.5,-129 189.5,-110 241.5,-110 241.5,-129"/>
<text text-anchor="middle" x="215.5" y="-117" font-family="Helvetica,sans-Serif" font-size="10.00">cassert</text>
</a>
</g>
</g>
<!-- Node1&#45;&gt;Node6 -->
<g id="edge34_Node000001_Node000006" class="edge">
<title>Node1&#45;&gt;Node6</title>
<g id="a_edge34_Node000001_Node000006"><a xlink:title=" ">
<path fill="none" stroke="#63b8ff" d="M962.85,-332.01C905.57,-323.33 829.07,-310.28 762.5,-294 563.95,-245.45 332.33,-163.29 248.16,-132.57"/>
<polygon fill="#63b8ff" stroke="#63b8ff" points="249.23,-129.23 238.64,-129.08 246.83,-135.8 249.23,-129.23"/>
</a>
</g>
</g>
<!-- Node7 -->
<g id="Node000007" class="node">
<title>Node7</title>
<g id="a_Node000007"><a xlink:title=" ">
<polygon fill="#e0e0e0" stroke="#999999" points="1357,-74 1304,-74 1304,-55 1357,-55 1357,-74"/>
<text text-anchor="middle" x="1330.5" y="-62" font-family="Helvetica,sans-Serif" font-size="10.00">cstddef</text>
</a>
</g>
</g>
<!-- Node1&#45;&gt;Node7 -->
<g id="edge36_Node000001_Node000007" class="edge">
<title>Node1&#45;&gt;Node7</title>
<g id="a_edge36_Node000001_Node000007"><a xlink:title=" ">
<path fill="none" stroke="#63b8ff" d="M1136.02,-339.71C1258.21,-332.9 1474.77,-317.91 1549.5,-294 1603.63,-276.68 1660.5,-287.34 1660.5,-230.5 1660.5,-230.5 1660.5,-230.5 1660.5,-173.5 1660.5,-144.04 1663.82,-129.23 1641.5,-110 1601.03,-75.14 1440.43,-67.57 1367.22,-65.94"/>
<polygon fill="#63b8ff" stroke="#63b8ff" points="1367.14,-62.44 1357.07,-65.74 1367,-69.44 1367.14,-62.44"/>
</a>
</g>
</g>
<!-- Node8 -->
<g id="Node000008" class="node">
<title>Node8</title>
<g id="a_Node000008"><a xlink:title=" ">
<polygon fill="#e0e0e0" stroke="#999999" points="639.5,-74 589.5,-74 589.5,-55 639.5,-55 639.5,-74"/>
<text text-anchor="middle" x="614.5" y="-62" font-family="Helvetica,sans-Serif" font-size="10.00">cstdint</text>
</a>
</g>
</g>
<!-- Node1&#45;&gt;Node8 -->
<g id="edge37_Node000001_Node000008" class="edge">
<title>Node1&#45;&gt;Node8</title>
<g id="a_edge37_Node000001_Node000008"><a xlink:title=" ">
<path fill="none" stroke="#63b8ff" d="M962.74,-341.91C739.29,-335.38 161.5,-310.74 161.5,-230.5 161.5,-230.5 161.5,-230.5 161.5,-173.5 161.5,-144.04 157.8,-128.78 180.5,-110 211.01,-84.76 481.3,-71.06 579.25,-66.89"/>
<polygon fill="#63b8ff" stroke="#63b8ff" points="579.41,-70.39 589.25,-66.47 579.11,-63.39 579.41,-70.39"/>
</a>
</g>
</g>
<!-- Node10 -->
<g id="Node000010" class="node">
<title>Node10</title>
<g id="a_Node000010"><a xlink:title=" ">
<polygon fill="#e0e0e0" stroke="#999999" points="906.5,-129 848.5,-129 848.5,-110 906.5,-110 906.5,-129"/>
<text text-anchor="middle" x="877.5" y="-117" font-family="Helvetica,sans-Serif" font-size="10.00">memory</text>
</a>
</g>
</g>
<!-- Node1&#45;&gt;Node10 -->
<g id="edge40_Node000001_Node000010" class="edge">
<title>Node1&#45;&gt;Node10</title>
<g id="a_edge40_Node000001_Node000010"><a xlink:title=" ">
<path fill="none" stroke="#63b8ff" d="M1048.61,-329.83C1046.4,-305.06 1038.73,-253.39 1012.5,-220 982.31,-181.57 933.68,-150.76 903.77,-134.1"/>
<polygon fill="#63b8ff" stroke="#63b8ff" points="905.21,-130.91 894.76,-129.2 901.87,-137.05 905.21,-130.91"/>
</a>
</g>
</g>
<!-- Node14 -->
<g id="Node000014" class="node">
<title>Node14</title>
<g id="a_Node000014"><a xlink:title=" ">
<polygon fill="#e0e0e0" stroke="#999999" points="1418.5,-19 1374.5,-19 1374.5,0 1418.5,0 1418.5,-19"/>
<text text-anchor="middle" x="1396.5" y="-7" font-family="Helvetica,sans-Serif" font-size="10.00">string</text>
</a>
</g>
</g>
<!-- Node1&#45;&gt;Node14 -->
<g id="edge42_Node000001_Node000014" class="edge">
<title>Node1&#45;&gt;Node14</title>
<g id="a_edge42_Node000001_Node000014"><a xlink:title=" ">
<path fill="none" stroke="#63b8ff" d="M1136.17,-341.39C1269.84,-336.5 1519.67,-323.62 1603.5,-294 1651.39,-277.08 1698.5,-281.29 1698.5,-230.5 1698.5,-230.5 1698.5,-230.5 1698.5,-118.5 1698.5,-61.73 1506.9,-26.88 1428.92,-15.04"/>
<polygon fill="#63b8ff" stroke="#63b8ff" points="1429.11,-11.53 1418.71,-13.53 1428.08,-18.46 1429.11,-11.53"/>
</a>
</g>
</g>
<!-- Node15 -->
<g id="Node000015" class="node">
<title>Node15</title>
<g id="a_Node000015"><a xlink:title=" ">
<polygon fill="#e0e0e0" stroke="#999999" points="1472,-129 1425,-129 1425,-110 1472,-110 1472,-129"/>
<text text-anchor="middle" x="1448.5" y="-117" font-family="Helvetica,sans-Serif" font-size="10.00">vector</text>
</a>
</g>
</g>
<!-- Node1&#45;&gt;Node15 -->
<g id="edge43_Node000001_Node000015" class="edge">
<title>Node1&#45;&gt;Node15</title>
<g id="a_edge43_Node000001_Node000015"><a xlink:title=" ">
<path fill="none" stroke="#63b8ff" d="M1100.77,-329.96C1173.79,-308.05 1309.21,-260.17 1402.5,-184 1417.94,-171.39 1430.77,-152.43 1438.92,-138.51"/>
<polygon fill="#63b8ff" stroke="#63b8ff" points="1442.18,-139.86 1444,-129.42 1436.07,-136.44 1442.18,-139.86"/>
</a>
</g>
</g>
<!-- Node23 -->
<g id="Node000023" class="node">
<title>Node23</title>
<g id="a_Node000023"><a xlink:title=" ">
<polygon fill="#e0e0e0" stroke="#999999" points="150,-19 97,-19 97,0 150,0 150,-19"/>
<text text-anchor="middle" x="123.5" y="-7" font-family="Helvetica,sans-Serif" font-size="10.00">cstdarg</text>
</a>
</g>
</g>
<!-- Node1&#45;&gt;Node23 -->
<g id="edge35_Node000001_Node000023" class="edge">
<title>Node1&#45;&gt;Node23</title>
<g id="a_edge35_Node000001_Node000023"><a xlink:title=" ">
<path fill="none" stroke="#63b8ff" d="M962.86,-343.69C781.56,-342.24 367.88,-334.45 233.5,-294 179.45,-277.73 123.5,-286.95 123.5,-230.5 123.5,-230.5 123.5,-230.5 123.5,-118.5 123.5,-87.19 123.5,-50.77 123.5,-29.23"/>
<polygon fill="#63b8ff" stroke="#63b8ff" points="127,-29.18 123.5,-19.18 120,-29.18 127,-29.18"/>
</a>
</g>
</g>
<!-- Node25 -->
<g id="Node000025" class="node">
<title>Node25</title>
<g id="a_Node000025"><a xlink:href="abstract2DMapEncoder_8hpp.html" target="_top" xlink:title=" ">
<polygon fill="white" stroke="#666666" points="983.5,-239 833.5,-239 833.5,-220 983.5,-220 983.5,-239"/>
<text text-anchor="middle" x="908.5" y="-227" font-family="Helvetica,sans-Serif" font-size="10.00">abstract2DMapEncoder.hpp</text>
</a>
</g>
</g>
<!-- Node1&#45;&gt;Node25 -->
<g id="edge44_Node000001_Node000025" class="edge">
<title>Node1&#45;&gt;Node25</title>
<g id="a_edge44_Node000001_Node000025"><a xlink:title=" ">
<path fill="none" stroke="#63b8ff" d="M1031.93,-329.85C1005.28,-308.41 954.87,-267.82 927.43,-245.74"/>
<polygon fill="#63b8ff" stroke="#63b8ff" points="929.38,-242.81 919.4,-239.27 924.99,-248.27 929.38,-242.81"/>
</a>
</g>
</g>
<!-- Node26 -->
<g id="Node000026" class="node">
<title>Node26</title>
<g id="a_Node000026"><a xlink:title=" ">
<polygon fill="#e0e0e0" stroke="#999999" points="1412,-294 1363,-294 1363,-275 1412,-275 1412,-294"/>
<text text-anchor="middle" x="1387.5" y="-282" font-family="Helvetica,sans-Serif" font-size="10.00">cstdlib</text>
</a>
</g>
</g>
<!-- Node1&#45;&gt;Node26 -->
<g id="edge38_Node000001_Node000026" class="edge">
<title>Node1&#45;&gt;Node26</title>
<g id="a_edge38_Node000001_Node000026"><a xlink:title=" ">
<path fill="none" stroke="#63b8ff" d="M1136.06,-330.67C1195.86,-321.18 1277.18,-307.73 1348.5,-294 1349.95,-293.72 1351.42,-293.43 1352.91,-293.13"/>
<polygon fill="#63b8ff" stroke="#63b8ff" points="1353.7,-296.54 1362.78,-291.08 1352.28,-289.69 1353.7,-296.54"/>
</a>
</g>
</g>
<!-- Node27 -->
<g id="Node000027" class="node">
<title>Node27</title>
<g id="a_Node000027"><a xlink:title=" ">
<polygon fill="#e0e0e0" stroke="#999999" points="1495,-294 1430,-294 1430,-275 1495,-275 1495,-294"/>
<text text-anchor="middle" x="1462.5" y="-282" font-family="Helvetica,sans-Serif" font-size="10.00">functional</text>
</a>
</g>
</g>
<!-- Node1&#45;&gt;Node27 -->
<g id="edge39_Node000001_Node000027" class="edge">
<title>Node1&#45;&gt;Node27</title>
<g id="a_edge39_Node000001_Node000027"><a xlink:title=" ">
<path fill="none" stroke="#63b8ff" d="M1136.21,-334.11C1209.41,-325.35 1317.19,-311.5 1419.94,-294.17"/>
<polygon fill="#63b8ff" stroke="#63b8ff" points="1420.59,-297.61 1429.87,-292.48 1419.42,-290.71 1420.59,-297.61"/>
</a>
</g>
</g>
<!-- Node28 -->
<g id="Node000028" class="node">
<title>Node28</title>
<g id="a_Node000028"><a xlink:title=" ">
<polygon fill="#e0e0e0" stroke="#999999" points="1632,-129 1567,-129 1567,-110 1632,-110 1632,-129"/>
<text text-anchor="middle" x="1599.5" y="-117" font-family="Helvetica,sans-Serif" font-size="10.00">stdexcept</text>
</a>
</g>
</g>
<!-- Node1&#45;&gt;Node28 -->
<g id="edge41_Node000001_Node000028" class="edge">
<title>Node1&#45;&gt;Node28</title>
<g id="a_edge41_Node000001_Node000028"><a xlink:title=" ">
<path fill="none" stroke="#63b8ff" d="M1136.05,-343.92C1255.12,-342.3 1461.88,-333.64 1524.5,-294 1572.87,-263.38 1572.62,-238.04 1591.5,-184 1596.55,-169.56 1598.48,-152.29 1599.19,-139.4"/>
<polygon fill="#63b8ff" stroke="#63b8ff" points="1602.69,-139.51 1599.54,-129.39 1595.69,-139.26 1602.69,-139.51"/>
</a>
</g>
</g>
<!-- Node29 -->
<g id="Node000029" class="node">
<title>Node29</title>
<g id="a_Node000029"><a xlink:href="catchLibLog_8hpp.html" target="_top" xlink:title=" ">
<polygon fill="white" stroke="#666666" points="95,-294 0,-294 0,-275 95,-275 95,-294"/>
<text text-anchor="middle" x="47.5" y="-282" font-family="Helvetica,sans-Serif" font-size="10.00">catchLibLog.hpp</text>
</a>
</g>
</g>
<!-- Node1&#45;&gt;Node29 -->
<g id="edge45_Node000001_Node000029" class="edge">
<title>Node1&#45;&gt;Node29</title>
<g id="a_edge45_Node000001_Node000029"><a xlink:title=" ">
<path fill="none" stroke="#63b8ff" d="M962.82,-341.8C796.86,-337.05 422.89,-323.77 109.5,-294 108.19,-293.88 106.87,-293.74 105.54,-293.61"/>
<polygon fill="#63b8ff" stroke="#63b8ff" points="105.51,-290.08 95.18,-292.44 104.73,-297.04 105.51,-290.08"/>
</a>
</g>
</g>
<!-- Node31 -->
<g id="Node000031" class="node">
<title>Node31</title>
<g id="a_Node000031"><a xlink:href="fileExport_8hpp.html" target="_top" xlink:title=" ">
<polygon fill="white" stroke="#666666" points="1224.5,-239 1116.5,-239 1116.5,-220 1224.5,-220 1224.5,-239"/>
<text text-anchor="middle" x="1170.5" y="-227" font-family="Helvetica,sans-Serif" font-size="10.00">utils/fileExport.hpp</text>
</a>
</g>
</g>
<!-- Node1&#45;&gt;Node31 -->
<g id="edge48_Node000001_Node000031" class="edge">
<title>Node1&#45;&gt;Node31</title>
<g id="a_edge48_Node000001_Node000031"><a xlink:title=" ">
<path fill="none" stroke="#63b8ff" d="M1064.82,-329.63C1087.58,-308.28 1130.14,-268.36 1153.71,-246.25"/>
<polygon fill="#63b8ff" stroke="#63b8ff" points="1156.29,-248.62 1161.19,-239.23 1151.51,-243.52 1156.29,-248.62"/>
</a>
</g>
</g>
<!-- Node33 -->
<g id="Node000033" class="node">
<title>Node33</title>
<g id="a_Node000033"><a xlink:href="parameters_8hpp.html" target="_top" xlink:title=" ">
<polygon fill="white" stroke="#666666" points="1582.5,-184 1464.5,-184 1464.5,-165 1582.5,-165 1582.5,-184"/>
<text text-anchor="middle" x="1523.5" y="-172" font-family="Helvetica,sans-Serif" font-size="10.00">utils/parameters.hpp</text>
</a>
</g>
</g>
<!-- Node1&#45;&gt;Node33 -->
<g id="edge63_Node000001_Node000033" class="edge">
<title>Node1&#45;&gt;Node33</title>
<g id="a_edge63_Node000001_Node000033"><a xlink:title=" ">
<path fill="none" stroke="#63b8ff" d="M1136.04,-340.08C1260.59,-333.6 1478.38,-318.86 1504.5,-294 1531.45,-268.35 1530.05,-220.82 1526.73,-194.42"/>
<polygon fill="#63b8ff" stroke="#63b8ff" points="1530.15,-193.61 1525.22,-184.23 1523.23,-194.63 1530.15,-193.61"/>
</a>
</g>
</g>
<!-- Node2&#45;&gt;Node3 -->
<g id="edge2_Node000002_Node000003" class="edge">
<title>Node2&#45;&gt;Node3</title>
<g id="a_edge2_Node000002_Node000003"><a xlink:title=" ">
<path fill="none" stroke="#63b8ff" d="M835.31,-274.98C818.25,-266.54 791.87,-253.47 772.1,-243.68"/>
<polygon fill="#63b8ff" stroke="#63b8ff" points="773.52,-240.47 763,-239.17 770.41,-246.75 773.52,-240.47"/>
</a>
</g>
</g>
<!-- Node2&#45;&gt;Node4 -->
<g id="edge3_Node000002_Node000004" class="edge">
<title>Node2&#45;&gt;Node4</title>
<g id="a_edge3_Node000002_Node000004"><a xlink:title=" ">
<path fill="none" stroke="#63b8ff" d="M845.6,-274.85C839.12,-266.26 829.67,-252.46 824.5,-239 818.98,-224.62 816.21,-207.34 814.84,-194.44"/>
<polygon fill="#63b8ff" stroke="#63b8ff" points="818.32,-194.07 813.95,-184.41 811.35,-194.68 818.32,-194.07"/>
</a>
</g>
</g>
<!-- Node2&#45;&gt;Node25 -->
<g id="edge31_Node000002_Node000025" class="edge">
<title>Node2&#45;&gt;Node25</title>
<g id="a_edge31_Node000002_Node000025"><a xlink:title=" ">
<path fill="none" stroke="#63b8ff" d="M861.5,-274.98C869.69,-267.23 882.01,-255.58 891.97,-246.14"/>
<polygon fill="#63b8ff" stroke="#63b8ff" points="894.48,-248.59 899.34,-239.17 889.67,-243.5 894.48,-248.59"/>
</a>
</g>
</g>
<!-- Node5 -->
<g id="Node000005" class="node">
<title>Node5</title>
<g id="a_Node000005"><a xlink:title=" ">
<polygon fill="#e0e0e0" stroke="#999999" points="961.5,-74 919.5,-74 919.5,-55 961.5,-55 961.5,-74"/>
<text text-anchor="middle" x="940.5" y="-62" font-family="Helvetica,sans-Serif" font-size="10.00">array</text>
</a>
</g>
</g>
<!-- Node4&#45;&gt;Node5 -->
<g id="edge4_Node000004_Node000005" class="edge">
<title>Node4&#45;&gt;Node5</title>
<g id="a_edge4_Node000004_Node000005"><a xlink:title=" ">
<path fill="none" stroke="#63b8ff" d="M814.88,-164.98C817.47,-151.64 824.21,-125.7 839.5,-110 849.71,-99.52 883.68,-85.7 909.44,-76.27"/>
<polygon fill="#63b8ff" stroke="#63b8ff" points="910.96,-79.44 919.18,-72.76 908.59,-72.85 910.96,-79.44"/>
</a>
</g>
</g>
<!-- Node4&#45;&gt;Node6 -->
<g id="edge5_Node000004_Node000006" class="edge">
<title>Node4&#45;&gt;Node6</title>
<g id="a_edge5_Node000004_Node000006"><a xlink:title=" ">
<path fill="none" stroke="#63b8ff" d="M752.11,-171.21C649.04,-166.79 434.86,-155.1 255.5,-129 254.24,-128.82 252.95,-128.62 251.66,-128.4"/>
<polygon fill="#63b8ff" stroke="#63b8ff" points="252.13,-124.93 241.66,-126.57 250.87,-131.82 252.13,-124.93"/>
</a>
</g>
</g>
<!-- Node4&#45;&gt;Node7 -->
<g id="edge6_Node000004_Node000007" class="edge">
<title>Node4&#45;&gt;Node7</title>
<g id="a_edge6_Node000004_Node000007"><a xlink:title=" ">
<path fill="none" stroke="#63b8ff" d="M874.81,-171.81C949.79,-168.47 1080,-158.54 1187.5,-129 1231.08,-117.02 1278.42,-93.79 1306.22,-78.99"/>
<polygon fill="#63b8ff" stroke="#63b8ff" points="1308.06,-81.98 1315.2,-74.14 1304.74,-75.82 1308.06,-81.98"/>
</a>
</g>
</g>
<!-- Node4&#45;&gt;Node8 -->
<g id="edge7_Node000004_Node000008" class="edge">
<title>Node4&#45;&gt;Node8</title>
<g id="a_edge7_Node000004_Node000008"><a xlink:title=" ">
<path fill="none" stroke="#63b8ff" d="M752.43,-169.84C659.31,-163.64 490.64,-149.67 472.5,-129 439.75,-91.69 527.26,-75.22 579.2,-68.9"/>
<polygon fill="#63b8ff" stroke="#63b8ff" points="579.84,-72.35 589.38,-67.73 579.05,-65.39 579.84,-72.35"/>
</a>
</g>
</g>
<!-- Node9 -->
<g id="Node000009" class="node">
<title>Node9</title>
<g id="a_Node000009"><a xlink:title=" ">
<polygon fill="#e0e0e0" stroke="#999999" points="612.5,-19 552.5,-19 552.5,0 612.5,0 612.5,-19"/>
<text text-anchor="middle" x="582.5" y="-7" font-family="Helvetica,sans-Serif" font-size="10.00">iostream</text>
</a>
</g>
</g>
<!-- Node4&#45;&gt;Node9 -->
<g id="edge8_Node000004_Node000009" class="edge">
<title>Node4&#45;&gt;Node9</title>
<g id="a_edge8_Node000004_Node000009"><a xlink:title=" ">
<path fill="none" stroke="#63b8ff" d="M752.08,-172.86C620.2,-170.83 319.33,-162.55 288.5,-129 212.34,-46.11 445.58,-20.03 542.41,-12.89"/>
<polygon fill="#63b8ff" stroke="#63b8ff" points="542.71,-16.38 552.43,-12.18 542.21,-9.4 542.71,-16.38"/>
</a>
</g>
</g>
<!-- Node4&#45;&gt;Node10 -->
<g id="edge9_Node000004_Node000010" class="edge">
<title>Node4&#45;&gt;Node10</title>
<g id="a_edge9_Node000004_Node000010"><a xlink:title=" ">
<path fill="none" stroke="#63b8ff" d="M823.78,-164.98C833.34,-157.07 847.78,-145.11 859.28,-135.58"/>
<polygon fill="#63b8ff" stroke="#63b8ff" points="861.56,-138.24 867.03,-129.17 857.1,-132.85 861.56,-138.24"/>
</a>
</g>
</g>
<!-- Node11 -->
<g id="Node000011" class="node">
<title>Node11</title>
<g id="a_Node000011"><a xlink:title=" ">
<polygon fill="#e0e0e0" stroke="#999999" points="665,-129 618,-129 618,-110 665,-110 665,-129"/>
<text text-anchor="middle" x="641.5" y="-117" font-family="Helvetica,sans-Serif" font-size="10.00">queue</text>
</a>
</g>
</g>
<!-- Node4&#45;&gt;Node11 -->
<g id="edge10_Node000004_Node000011" class="edge">
<title>Node4&#45;&gt;Node11</title>
<g id="a_edge10_Node000004_Node000011"><a xlink:title=" ">
<path fill="none" stroke="#63b8ff" d="M785.87,-164.98C755.7,-155.69 707.41,-140.81 675.08,-130.85"/>
<polygon fill="#63b8ff" stroke="#63b8ff" points="675.78,-127.4 665.19,-127.8 673.72,-134.09 675.78,-127.4"/>
</a>
</g>
</g>
<!-- Node12 -->
<g id="Node000012" class="node">
<title>Node12</title>
<g id="a_Node000012"><a xlink:title=" ">
<polygon fill="#e0e0e0" stroke="#999999" points="754,-129 683,-129 683,-110 754,-110 754,-129"/>
<text text-anchor="middle" x="718.5" y="-117" font-family="Helvetica,sans-Serif" font-size="10.00">semaphore</text>
</a>
</g>
</g>
<!-- Node4&#45;&gt;Node12 -->
<g id="edge11_Node000004_Node000012" class="edge">
<title>Node4&#45;&gt;Node12</title>
<g id="a_edge11_Node000004_Node000012"><a xlink:title=" ">
<path fill="none" stroke="#63b8ff" d="M798.24,-164.98C783.37,-156.69 760.52,-143.94 743.08,-134.22"/>
<polygon fill="#63b8ff" stroke="#63b8ff" points="744.48,-130.99 734.04,-129.17 741.07,-137.1 744.48,-130.99"/>
</a>
</g>
</g>
<!-- Node13 -->
<g id="Node000013" class="node">
<title>Node13</title>
<g id="a_Node000013"><a xlink:title=" ">
<polygon fill="#e0e0e0" stroke="#999999" points="901.5,-74 845.5,-74 845.5,-55 901.5,-55 901.5,-74"/>
<text text-anchor="middle" x="873.5" y="-62" font-family="Helvetica,sans-Serif" font-size="10.00">sstream</text>
</a>
</g>
</g>
<!-- Node4&#45;&gt;Node13 -->
<g id="edge12_Node000004_Node000013" class="edge">
<title>Node4&#45;&gt;Node13</title>
<g id="a_edge12_Node000004_Node000013"><a xlink:title=" ">
<path fill="none" stroke="#63b8ff" d="M809.52,-164.69C804.36,-151.84 797.06,-127.59 806.5,-110 814.01,-96 828.07,-85.66 841.38,-78.48"/>
<polygon fill="#63b8ff" stroke="#63b8ff" points="842.98,-81.6 850.39,-74.02 839.87,-75.33 842.98,-81.6"/>
</a>
</g>
</g>
<!-- Node4&#45;&gt;Node14 -->
<g id="edge13_Node000004_Node000014" class="edge">
<title>Node4&#45;&gt;Node14</title>
<g id="a_edge13_Node000004_Node000014"><a xlink:title=" ">
<path fill="none" stroke="#63b8ff" d="M834.76,-164.87C887.97,-143.54 1031.56,-87.72 1155.5,-55 1229.16,-35.56 1317.68,-21.54 1364.23,-14.87"/>
<polygon fill="#63b8ff" stroke="#63b8ff" points="1364.91,-18.31 1374.32,-13.45 1363.93,-11.38 1364.91,-18.31"/>
</a>
</g>
</g>
<!-- Node4&#45;&gt;Node15 -->
<g id="edge14_Node000004_Node000015" class="edge">
<title>Node4&#45;&gt;Node15</title>
<g id="a_edge14_Node000004_Node000015"><a xlink:title=" ">
<path fill="none" stroke="#63b8ff" d="M874.67,-168.39C1006.32,-157.41 1312.8,-131.83 1414.8,-123.31"/>
<polygon fill="#63b8ff" stroke="#63b8ff" points="1415.17,-126.79 1424.85,-122.47 1414.59,-119.82 1415.17,-126.79"/>
</a>
</g>
</g>
<!-- Node16 -->
<g id="Node000016" class="node">
<title>Node16</title>
<g id="a_Node000016"><a xlink:title=" ">
<polygon fill="#e0e0e0" stroke="#999999" points="425,-129 298,-129 298,-110 425,-110 425,-129"/>
<text text-anchor="middle" x="361.5" y="-117" font-family="Helvetica,sans-Serif" font-size="10.00">../utils/parameters.hpp</text>
</a>
</g>
</g>
<!-- Node4&#45;&gt;Node16 -->
<g id="edge15_Node000004_Node000016" class="edge">
<title>Node4&#45;&gt;Node16</title>
<g id="a_edge15_Node000004_Node000016"><a xlink:title=" ">
<path fill="none" stroke="#63b8ff" d="M752.07,-166.3C669.68,-156.64 523.55,-139.5 435.29,-129.15"/>
<polygon fill="#63b8ff" stroke="#63b8ff" points="435.69,-125.67 425.35,-127.99 434.87,-132.63 435.69,-125.67"/>
</a>
</g>
</g>
<!-- Node17 -->
<g id="Node000017" class="node">
<title>Node17</title>
<g id="a_Node000017"><a xlink:title=" ">
<polygon fill="#e0e0e0" stroke="#999999" points="599.5,-129 481.5,-129 481.5,-110 599.5,-110 599.5,-129"/>
<text text-anchor="middle" x="540.5" y="-117" font-family="Helvetica,sans-Serif" font-size="10.00">../utils/constants.hpp</text>
</a>
</g>
</g>
<!-- Node4&#45;&gt;Node17 -->
<g id="edge16_Node000004_Node000017" class="edge">
<title>Node4&#45;&gt;Node17</title>
<g id="a_edge16_Node000004_Node000017"><a xlink:title=" ">
<path fill="none" stroke="#63b8ff" d="M769.64,-164.98C722.02,-155.74 645.92,-140.97 594.62,-131.01"/>
<polygon fill="#63b8ff" stroke="#63b8ff" points="595.19,-127.55 584.71,-129.08 593.86,-134.42 595.19,-127.55"/>
</a>
</g>
</g>
<!-- Node18 -->
<g id="Node000018" class="node">
<title>Node18</title>
<g id="a_Node000018"><a xlink:href="utils_8hpp.html" target="_top" xlink:title=" ">
<polygon fill="white" stroke="#666666" points="1178,-129 1077,-129 1077,-110 1178,-110 1178,-129"/>
<text text-anchor="middle" x="1127.5" y="-117" font-family="Helvetica,sans-Serif" font-size="10.00">uvgutils/utils.hpp</text>
</a>
</g>
</g>
<!-- Node4&#45;&gt;Node18 -->
<g id="edge17_Node000004_Node000018" class="edge">
<title>Node4&#45;&gt;Node18</title>
<g id="a_edge17_Node000004_Node000018"><a xlink:title=" ">
<path fill="none" stroke="#63b8ff" d="M863.95,-164.98C919.26,-155.65 1007.97,-140.67 1066.98,-130.71"/>
<polygon fill="#63b8ff" stroke="#63b8ff" points="1067.64,-134.15 1076.92,-129.04 1066.47,-127.25 1067.64,-134.15"/>
</a>
</g>
</g>
<!-- Node18&#45;&gt;Node5 -->
<g id="edge18_Node000018_Node000005" class="edge">
<title>Node18&#45;&gt;Node5</title>
<g id="a_edge18_Node000018_Node000005"><a xlink:title=" ">
<path fill="none" stroke="#63b8ff" d="M1097.46,-109.98C1062.88,-100.18 1006.37,-84.17 971.42,-74.26"/>
<polygon fill="#63b8ff" stroke="#63b8ff" points="972.32,-70.88 961.75,-71.52 970.41,-77.62 972.32,-70.88"/>
</a>
</g>
</g>
<!-- Node18&#45;&gt;Node7 -->
<g id="edge19_Node000018_Node000007" class="edge">
<title>Node18&#45;&gt;Node7</title>
<g id="a_edge19_Node000018_Node000007"><a xlink:title=" ">
<path fill="none" stroke="#63b8ff" d="M1160.12,-109.98C1196.59,-100.46 1255.52,-85.08 1293.64,-75.12"/>
<polygon fill="#63b8ff" stroke="#63b8ff" points="1295.01,-78.38 1303.8,-72.47 1293.24,-71.61 1295.01,-78.38"/>
</a>
</g>
</g>
<!-- Node18&#45;&gt;Node8 -->
<g id="edge20_Node000018_Node000008" class="edge">
<title>Node18&#45;&gt;Node8</title>
<g id="a_edge20_Node000018_Node000008"><a xlink:title=" ">
<path fill="none" stroke="#63b8ff" d="M1076.91,-113.27C973.19,-102.56 738.73,-78.33 649.7,-69.14"/>
<polygon fill="#63b8ff" stroke="#63b8ff" points="649.88,-65.64 639.58,-68.09 649.16,-72.6 649.88,-65.64"/>
</a>
</g>
</g>
<!-- Node18&#45;&gt;Node13 -->
<g id="edge23_Node000018_Node000013" class="edge">
<title>Node18&#45;&gt;Node13</title>
<g id="a_edge23_Node000018_Node000013"><a xlink:title=" ">
<path fill="none" stroke="#63b8ff" d="M1084.21,-109.93C1042.5,-101.61 977.38,-88.44 911.86,-74.26"/>
<polygon fill="#63b8ff" stroke="#63b8ff" points="912.28,-70.77 901.77,-72.07 910.8,-77.61 912.28,-70.77"/>
</a>
</g>
</g>
<!-- Node19 -->
<g id="Node000019" class="node">
<title>Node19</title>
<g id="a_Node000019"><a xlink:title=" ">
<polygon fill="#e0e0e0" stroke="#999999" points="1155.5,-19 1099.5,-19 1099.5,0 1155.5,0 1155.5,-19"/>
<text text-anchor="middle" x="1127.5" y="-7" font-family="Helvetica,sans-Serif" font-size="10.00">iomanip</text>
</a>
</g>
</g>
<!-- Node18&#45;&gt;Node19 -->
<g id="edge21_Node000018_Node000019" class="edge">
<title>Node18&#45;&gt;Node19</title>
<g id="a_edge21_Node000018_Node000019"><a xlink:title=" ">
<path fill="none" stroke="#63b8ff" d="M1127.5,-109.66C1127.5,-92.17 1127.5,-52.8 1127.5,-29.27"/>
<polygon fill="#63b8ff" stroke="#63b8ff" points="1131,-29.16 1127.5,-19.16 1124,-29.16 1131,-29.16"/>
</a>
</g>
</g>
<!-- Node20 -->
<g id="Node000020" class="node">
<title>Node20</title>
<g id="a_Node000020"><a xlink:title=" ">
<polygon fill="#e0e0e0" stroke="#999999" points="1208.5,-74 1164.5,-74 1164.5,-55 1208.5,-55 1208.5,-74"/>
<text text-anchor="middle" x="1186.5" y="-62" font-family="Helvetica,sans-Serif" font-size="10.00">limits</text>
</a>
</g>
</g>
<!-- Node18&#45;&gt;Node20 -->
<g id="edge22_Node000018_Node000020" class="edge">
<title>Node18&#45;&gt;Node20</title>
<g id="a_edge22_Node000018_Node000020"><a xlink:title=" ">
<path fill="none" stroke="#63b8ff" d="M1136.98,-109.98C1145.7,-102.15 1158.84,-90.34 1169.4,-80.86"/>
<polygon fill="#63b8ff" stroke="#63b8ff" points="1171.75,-83.46 1176.85,-74.17 1167.07,-78.25 1171.75,-83.46"/>
</a>
</g>
</g>
<!-- Node21 -->
<g id="Node000021" class="node">
<title>Node21</title>
<g id="a_Node000021"><a xlink:href="log_8hpp.html" target="_top" xlink:title=" ">
<polygon fill="white" stroke="#666666" points="1033,-74 980,-74 980,-55 1033,-55 1033,-74"/>
<text text-anchor="middle" x="1006.5" y="-62" font-family="Helvetica,sans-Serif" font-size="10.00">log.hpp</text>
</a>
</g>
</g>
<!-- Node18&#45;&gt;Node21 -->
<g id="edge24_Node000018_Node000021" class="edge">
<title>Node18&#45;&gt;Node21</title>
<g id="a_edge24_Node000018_Node000021"><a xlink:title=" ">
<path fill="none" stroke="#63b8ff" d="M1108.06,-109.98C1088.51,-101.42 1058.12,-88.11 1035.68,-78.28"/>
<polygon fill="#63b8ff" stroke="#63b8ff" points="1036.86,-74.98 1026.29,-74.17 1034.05,-81.39 1036.86,-74.98"/>
</a>
</g>
</g>
<!-- Node21&#45;&gt;Node9 -->
<g id="edge28_Node000021_Node000009" class="edge">
<title>Node21&#45;&gt;Node9</title>
<g id="a_edge28_Node000021_Node000009"><a xlink:title=" ">
<path fill="none" stroke="#63b8ff" d="M979.84,-56.84C976.7,-56.16 973.54,-55.53 970.5,-55 844.71,-33.02 694.01,-19.29 623.13,-13.58"/>
<polygon fill="#63b8ff" stroke="#63b8ff" points="623.11,-10.06 612.86,-12.76 622.55,-17.04 623.11,-10.06"/>
</a>
</g>
</g>
<!-- Node21&#45;&gt;Node14 -->
<g id="edge30_Node000021_Node000014" class="edge">
<title>Node21&#45;&gt;Node14</title>
<g id="a_edge30_Node000021_Node000014"><a xlink:title=" ">
<path fill="none" stroke="#63b8ff" d="M1033.35,-57.62C1038.05,-56.68 1042.91,-55.77 1047.5,-55 1163.44,-35.62 1302.29,-20.23 1364.09,-13.78"/>
<polygon fill="#63b8ff" stroke="#63b8ff" points="1364.78,-17.23 1374.36,-12.72 1364.06,-10.27 1364.78,-17.23"/>
</a>
</g>
</g>
<!-- Node21&#45;&gt;Node19 -->
<g id="edge27_Node000021_Node000019" class="edge">
<title>Node21&#45;&gt;Node19</title>
<g id="a_edge27_Node000021_Node000019"><a xlink:title=" ">
<path fill="none" stroke="#63b8ff" d="M1025.94,-54.98C1045.49,-46.42 1075.88,-33.11 1098.32,-23.28"/>
<polygon fill="#63b8ff" stroke="#63b8ff" points="1099.95,-26.39 1107.71,-19.17 1097.14,-19.98 1099.95,-26.39"/>
</a>
</g>
</g>
<!-- Node22 -->
<g id="Node000022" class="node">
<title>Node22</title>
<g id="a_Node000022"><a xlink:title=" ">
<polygon fill="#e0e0e0" stroke="#999999" points="1070.5,-19 1020.5,-19 1020.5,0 1070.5,0 1070.5,-19"/>
<text text-anchor="middle" x="1045.5" y="-7" font-family="Helvetica,sans-Serif" font-size="10.00">chrono</text>
</a>
</g>
</g>
<!-- Node21&#45;&gt;Node22 -->
<g id="edge25_Node000021_Node000022" class="edge">
<title>Node21&#45;&gt;Node22</title>
<g id="a_edge25_Node000021_Node000022"><a xlink:title=" ">
<path fill="none" stroke="#63b8ff" d="M1012.94,-54.75C1018.39,-47.34 1026.36,-36.5 1033.06,-27.41"/>
<polygon fill="#63b8ff" stroke="#63b8ff" points="1036.07,-29.22 1039.18,-19.09 1030.43,-25.07 1036.07,-29.22"/>
</a>
</g>
</g>
<!-- Node21&#45;&gt;Node23 -->
<g id="edge26_Node000021_Node000023" class="edge">
<title>Node21&#45;&gt;Node23</title>
<g id="a_edge26_Node000021_Node000023"><a xlink:title=" ">
<path fill="none" stroke="#63b8ff" d="M979.87,-56.65C976.72,-56.01 973.55,-55.44 970.5,-55 810.5,-32.1 302.05,-15.75 160.43,-11.56"/>
<polygon fill="#63b8ff" stroke="#63b8ff" points="160.22,-8.05 150.12,-11.25 160.01,-15.05 160.22,-8.05"/>
</a>
</g>
</g>
<!-- Node24 -->
<g id="Node000024" class="node">
<title>Node24</title>
<g id="a_Node000024"><a xlink:title=" ">
<polygon fill="#e0e0e0" stroke="#999999" points="1002.5,-19 954.5,-19 954.5,0 1002.5,0 1002.5,-19"/>
<text text-anchor="middle" x="978.5" y="-7" font-family="Helvetica,sans-Serif" font-size="10.00">mutex</text>
</a>
</g>
</g>
<!-- Node21&#45;&gt;Node24 -->
<g id="edge29_Node000021_Node000024" class="edge">
<title>Node21&#45;&gt;Node24</title>
<g id="a_edge29_Node000021_Node000024"><a xlink:title=" ">
<path fill="none" stroke="#63b8ff" d="M1001.88,-54.75C998.04,-47.49 992.48,-36.95 987.74,-27.98"/>
<polygon fill="#63b8ff" stroke="#63b8ff" points="990.8,-26.3 983.04,-19.09 984.61,-29.57 990.8,-26.3"/>
</a>
</g>
</g>
<!-- Node25&#45;&gt;Node4 -->
<g id="edge32_Node000025_Node000004" class="edge">
<title>Node25&#45;&gt;Node4</title>
<g id="a_edge32_Node000025_Node000004"><a xlink:title=" ">
<path fill="none" stroke="#63b8ff" d="M893.24,-219.98C878.37,-211.69 855.52,-198.94 838.08,-189.22"/>
<polygon fill="#63b8ff" stroke="#63b8ff" points="839.48,-185.99 829.04,-184.17 836.07,-192.1 839.48,-185.99"/>
</a>
</g>
</g>
<!-- Node29&#45;&gt;Node23 -->
<g id="edge46_Node000029_Node000023" class="edge">
<title>Node29&#45;&gt;Node23</title>
<g id="a_edge46_Node000029_Node000023"><a xlink:title=" ">
<path fill="none" stroke="#63b8ff" d="M43.99,-274.99C36.9,-256.97 21.5,-213.49 21.5,-175.5 21.5,-175.5 21.5,-175.5 21.5,-118.5 21.5,-74.56 66.68,-41.27 96.9,-23.92"/>
<polygon fill="#63b8ff" stroke="#63b8ff" points="98.66,-26.94 105.73,-19.05 95.29,-20.81 98.66,-26.94"/>
</a>
</g>
</g>
<!-- Node30 -->
<g id="Node000030" class="node">
<title>Node30</title>
<g id="a_Node000030"><a xlink:title=" ">
<polygon fill="#e0e0e0" stroke="#999999" points="95.5,-239 49.5,-239 49.5,-220 95.5,-220 95.5,-239"/>
<text text-anchor="middle" x="72.5" y="-227" font-family="Helvetica,sans-Serif" font-size="10.00">cstdio</text>
</a>
</g>
</g>
<!-- Node29&#45;&gt;Node30 -->
<g id="edge47_Node000029_Node000030" class="edge">
<title>Node29&#45;&gt;Node30</title>
<g id="a_edge47_Node000029_Node000030"><a xlink:title=" ">
<path fill="none" stroke="#63b8ff" d="M51.63,-274.75C55.01,-267.57 59.92,-257.18 64.12,-248.27"/>
<polygon fill="#63b8ff" stroke="#63b8ff" points="67.35,-249.63 68.45,-239.09 61.02,-246.64 67.35,-249.63"/>
</a>
</g>
</g>
<!-- Node31&#45;&gt;Node4 -->
<g id="edge62_Node000031_Node000004" class="edge">
<title>Node31&#45;&gt;Node4</title>
<g id="a_edge62_Node000031_Node000004"><a xlink:title=" ">
<path fill="none" stroke="#63b8ff" d="M1116.28,-220.45C1053.29,-211.1 949.31,-195.66 881.11,-185.54"/>
<polygon fill="#63b8ff" stroke="#63b8ff" points="881.3,-182.03 870.9,-184.02 880.27,-188.95 881.3,-182.03"/>
</a>
</g>
</g>
<!-- Node31&#45;&gt;Node7 -->
<g id="edge49_Node000031_Node000007" class="edge">
<title>Node31&#45;&gt;Node7</title>
<g id="a_edge49_Node000031_Node000007"><a xlink:title=" ">
<path fill="none" stroke="#63b8ff" d="M1199.7,-219.89C1221.23,-212.61 1250.48,-200.68 1272.5,-184 1297.68,-164.93 1303.94,-157.52 1317.5,-129 1324.23,-114.85 1327.48,-97.31 1329.05,-84.25"/>
<polygon fill="#63b8ff" stroke="#63b8ff" points="1332.55,-84.42 1330.04,-74.13 1325.59,-83.74 1332.55,-84.42"/>
</a>
</g>
</g>
<!-- Node31&#45;&gt;Node10 -->
<g id="edge50_Node000031_Node000010" class="edge">
<title>Node31&#45;&gt;Node10</title>
<g id="a_edge50_Node000031_Node000010"><a xlink:title=" ">
<path fill="none" stroke="#63b8ff" d="M1158.61,-219.8C1139.5,-206.21 1100.33,-179.94 1063.5,-165 1037.18,-154.33 962.99,-138.05 916.65,-128.42"/>
<polygon fill="#63b8ff" stroke="#63b8ff" points="917.15,-124.95 906.64,-126.36 915.73,-131.81 917.15,-124.95"/>
</a>
</g>
</g>
<!-- Node31&#45;&gt;Node14 -->
<g id="edge51_Node000031_Node000014" class="edge">
<title>Node31&#45;&gt;Node14</title>
<g id="a_edge51_Node000031_Node000014"><a xlink:title=" ">
<path fill="none" stroke="#63b8ff" d="M1216.25,-219.96C1242.09,-213.41 1273.84,-202.28 1297.5,-184 1350.72,-142.88 1380.12,-64.49 1391.25,-28.9"/>
<polygon fill="#63b8ff" stroke="#63b8ff" points="1394.6,-29.9 1394.12,-19.31 1387.9,-27.89 1394.6,-29.9"/>
</a>
</g>
</g>
<!-- Node31&#45;&gt;Node15 -->
<g id="edge52_Node000031_Node000015" class="edge">
<title>Node31&#45;&gt;Node15</title>
<g id="a_edge52_Node000031_Node000015"><a xlink:title=" ">
<path fill="none" stroke="#63b8ff" d="M1224.88,-223.98C1267.43,-218.75 1327.12,-207.59 1374.5,-184 1398.03,-172.29 1420.23,-151.43 1434.07,-136.82"/>
<polygon fill="#63b8ff" stroke="#63b8ff" points="1436.66,-139.18 1440.85,-129.45 1431.5,-134.44 1436.66,-139.18"/>
</a>
</g>
</g>
<!-- Node31&#45;&gt;Node18 -->
<g id="edge61_Node000031_Node000018" class="edge">
<title>Node31&#45;&gt;Node18</title>
<g id="a_edge61_Node000031_Node000018"><a xlink:title=" ">
<path fill="none" stroke="#63b8ff" d="M1164.89,-219.94C1159.35,-211.2 1150.94,-197.09 1145.5,-184 1139.44,-169.43 1134.7,-152.17 1131.6,-139.32"/>
<polygon fill="#63b8ff" stroke="#63b8ff" points="1134.96,-138.31 1129.31,-129.35 1128.14,-139.88 1134.96,-138.31"/>
</a>
</g>
</g>
<!-- Node32 -->
<g id="Node000032" class="node">
<title>Node32</title>
<g id="a_Node000032"><a xlink:href="constants_8hpp.html" target="_top" xlink:title=" ">
<polygon fill="white" stroke="#666666" points="1263,-184 1154,-184 1154,-165 1263,-165 1263,-184"/>
<text text-anchor="middle" x="1208.5" y="-172" font-family="Helvetica,sans-Serif" font-size="10.00">utils/constants.hpp</text>
</a>
</g>
</g>
<!-- Node31&#45;&gt;Node32 -->
<g id="edge53_Node000031_Node000032" class="edge">
<title>Node31&#45;&gt;Node32</title>
<g id="a_edge53_Node000031_Node000032"><a xlink:title=" ">
<path fill="none" stroke="#63b8ff" d="M1176.77,-219.75C1182.09,-212.34 1189.86,-201.5 1196.38,-192.41"/>
<polygon fill="#63b8ff" stroke="#63b8ff" points="1199.36,-194.26 1202.34,-184.09 1193.67,-190.18 1199.36,-194.26"/>
</a>
</g>
</g>
<!-- Node32&#45;&gt;Node5 -->
<g id="edge54_Node000032_Node000005" class="edge">
<title>Node32&#45;&gt;Node5</title>
<g id="a_edge54_Node000032_Node000005"><a xlink:title=" ">
<path fill="none" stroke="#63b8ff" d="M1176.88,-164.95C1148.18,-156.83 1104.91,-143.72 1068.5,-129 1031.38,-114 990.2,-92.67 964.82,-78.96"/>
<polygon fill="#63b8ff" stroke="#63b8ff" points="966.37,-75.82 955.91,-74.11 963.02,-81.97 966.37,-75.82"/>
</a>
</g>
</g>
<!-- Node32&#45;&gt;Node7 -->
<g id="edge55_Node000032_Node000007" class="edge">
<title>Node32&#45;&gt;Node7</title>
<g id="a_edge55_Node000032_Node000007"><a xlink:title=" ">
<path fill="none" stroke="#63b8ff" d="M1234.96,-164.99C1253.94,-157.82 1279.11,-145.99 1296.5,-129 1309.47,-116.33 1318.66,-97.63 1324.19,-83.81"/>
<polygon fill="#63b8ff" stroke="#63b8ff" points="1327.49,-84.96 1327.7,-74.36 1320.93,-82.51 1327.49,-84.96"/>
</a>
</g>
</g>
<!-- Node32&#45;&gt;Node8 -->
<g id="edge56_Node000032_Node000008" class="edge">
<title>Node32&#45;&gt;Node8</title>
<g id="a_edge56_Node000032_Node000008"><a xlink:title=" ">
<path fill="none" stroke="#63b8ff" d="M1153.86,-165.78C1105.07,-158.31 1031.89,-145.68 969.5,-129 944.92,-122.43 940.2,-116.11 915.5,-110 821.08,-86.64 706.76,-73.86 650.02,-68.53"/>
<polygon fill="#63b8ff" stroke="#63b8ff" points="650.07,-65.02 639.79,-67.59 649.43,-71.99 650.07,-65.02"/>
</a>
</g>
</g>
<!-- Node32&#45;&gt;Node13 -->
<g id="edge59_Node000032_Node000013" class="edge">
<title>Node32&#45;&gt;Node13</title>
<g id="a_edge59_Node000032_Node000013"><a xlink:title=" ">
<path fill="none" stroke="#63b8ff" d="M1164.45,-164.93C1126.82,-157.11 1071.49,-144.45 1024.5,-129 980.08,-114.39 930.43,-92.36 900.6,-78.46"/>
<polygon fill="#63b8ff" stroke="#63b8ff" points="901.81,-75.16 891.27,-74.08 898.84,-81.5 901.81,-75.16"/>
</a>
</g>
</g>
<!-- Node32&#45;&gt;Node18 -->
<g id="edge60_Node000032_Node000018" class="edge">
<title>Node32&#45;&gt;Node18</title>
<g id="a_edge60_Node000032_Node000018"><a xlink:title=" ">
<path fill="none" stroke="#63b8ff" d="M1195.49,-164.98C1183.04,-156.84 1164.04,-144.41 1149.29,-134.76"/>
<polygon fill="#63b8ff" stroke="#63b8ff" points="1151.04,-131.72 1140.75,-129.17 1147.2,-137.57 1151.04,-131.72"/>
</a>
</g>
</g>
<!-- Node32&#45;&gt;Node19 -->
<g id="edge57_Node000032_Node000019" class="edge">
<title>Node32&#45;&gt;Node19</title>
<g id="a_edge57_Node000032_Node000019"><a xlink:title=" ">
<path fill="none" stroke="#63b8ff" d="M1212.34,-164.94C1220.99,-144.24 1239.6,-90.58 1217.5,-55 1206.07,-36.59 1184.51,-25.57 1165.36,-19.1"/>
<polygon fill="#63b8ff" stroke="#63b8ff" points="1166.22,-15.7 1155.63,-16.11 1164.17,-22.39 1166.22,-15.7"/>
</a>
</g>
</g>
<!-- Node32&#45;&gt;Node20 -->
<g id="edge58_Node000032_Node000020" class="edge">
<title>Node32&#45;&gt;Node20</title>
<g id="a_edge58_Node000032_Node000020"><a xlink:title=" ">
<path fill="none" stroke="#63b8ff" d="M1206.7,-164.66C1203.14,-147.17 1195.12,-107.8 1190.32,-84.27"/>
<polygon fill="#63b8ff" stroke="#63b8ff" points="1193.69,-83.26 1188.26,-74.16 1186.83,-84.66 1193.69,-83.26"/>
</a>
</g>
</g>
<!-- Node33&#45;&gt;Node7 -->
<g id="edge64_Node000033_Node000007" class="edge">
<title>Node33&#45;&gt;Node7</title>
<g id="a_edge64_Node000033_Node000007"><a xlink:title=" ">
<path fill="none" stroke="#63b8ff" d="M1520.04,-164.69C1514.2,-150.94 1501.06,-124.46 1481.5,-110 1447.69,-85.01 1399.98,-73.98 1367.29,-69.16"/>
<polygon fill="#63b8ff" stroke="#63b8ff" points="1367.62,-65.68 1357.24,-67.81 1366.68,-72.61 1367.62,-65.68"/>
</a>
</g>
</g>
<!-- Node33&#45;&gt;Node14 -->
<g id="edge66_Node000033_Node000014" class="edge">
<title>Node33&#45;&gt;Node14</title>
<g id="a_edge66_Node000033_Node000014"><a xlink:title=" ">
<path fill="none" stroke="#63b8ff" d="M1522.2,-164.68C1519.99,-151.84 1514.61,-127.59 1503.5,-110 1480.8,-74.06 1441.96,-42.53 1417.85,-25.04"/>
<polygon fill="#63b8ff" stroke="#63b8ff" points="1419.57,-21.98 1409.39,-19.05 1415.52,-27.69 1419.57,-21.98"/>
</a>
</g>
</g>
<!-- Node33&#45;&gt;Node15 -->
<g id="edge67_Node000033_Node000015" class="edge">
<title>Node33&#45;&gt;Node15</title>
<g id="a_edge67_Node000033_Node000015"><a xlink:title=" ">
<path fill="none" stroke="#63b8ff" d="M1511.45,-164.98C1500.04,-156.92 1482.67,-144.65 1469.07,-135.03"/>
<polygon fill="#63b8ff" stroke="#63b8ff" points="1470.96,-132.08 1460.77,-129.17 1466.92,-137.8 1470.96,-132.08"/>
</a>
</g>
</g>
<!-- Node33&#45;&gt;Node18 -->
<g id="edge68_Node000033_Node000018" class="edge">
<title>Node33&#45;&gt;Node18</title>
<g id="a_edge68_Node000033_Node000018"><a xlink:title=" ">
<path fill="none" stroke="#63b8ff" d="M1464.21,-165.57C1389.93,-155.62 1263.28,-138.67 1188.29,-128.64"/>
<polygon fill="#63b8ff" stroke="#63b8ff" points="1188.44,-125.13 1178.07,-127.27 1187.51,-132.06 1188.44,-125.13"/>
</a>
</g>
</g>
<!-- Node33&#45;&gt;Node28 -->
<g id="edge65_Node000033_Node000028" class="edge">
<title>Node33&#45;&gt;Node28</title>
<g id="a_edge65_Node000033_Node000028"><a xlink:title=" ">
<path fill="none" stroke="#63b8ff" d="M1535.71,-164.98C1547.28,-156.92 1564.88,-144.65 1578.66,-135.03"/>
<polygon fill="#63b8ff" stroke="#63b8ff" points="1580.87,-137.76 1587.07,-129.17 1576.86,-132.02 1580.87,-137.76"/>
</a>
</g>
</g>
</g>
</svg>
