<?xml version="1.0" encoding="UTF-8" standalone="no"?>
<!DOCTYPE svg PUBLIC "-//W3C//DTD SVG 1.1//EN"
 "http://www.w3.org/Graphics/SVG/1.1/DTD/svg11.dtd">
<!-- Generated by graphviz version 2.43.0 (0)
 -->
<!-- Title: src/lib/mapEncoding/encoderFFmpeg.cpp Pages: 1 -->
<svg width="2164pt" height="258pt"
 viewBox="0.00 0.00 2163.50 258.00" xmlns="http://www.w3.org/2000/svg" xmlns:xlink="http://www.w3.org/1999/xlink">
<g id="graph0" class="graph" transform="scale(1 1) rotate(0) translate(4 254)">
<title>src/lib/mapEncoding/encoderFFmpeg.cpp</title>
<!-- Node1 -->
<g id="Node000001" class="node">
<title>Node1</title>
<g id="a_Node000001"><a xlink:title=" ">
<polygon fill="#999999" stroke="#666666" points="1007,-250 888,-250 888,-220 1007,-220 1007,-250"/>
<text text-anchor="start" x="896" y="-238" font-family="Helvetica,sans-Serif" font-size="10.00">src/lib/mapEncoding</text>
<text text-anchor="middle" x="947.5" y="-227" font-family="Helvetica,sans-Serif" font-size="10.00">/encoderFFmpeg.cpp</text>
</a>
</g>
</g>
<!-- Node2 -->
<g id="Node000002" class="node">
<title>Node2</title>
<g id="a_Node000002"><a xlink:href="encoderFFmpeg_8hpp.html" target="_top" xlink:title=" ">
<polygon fill="white" stroke="#666666" points="474.5,-184 358.5,-184 358.5,-165 474.5,-165 474.5,-184"/>
<text text-anchor="middle" x="416.5" y="-172" font-family="Helvetica,sans-Serif" font-size="10.00">encoderFFmpeg.hpp</text>
</a>
</g>
</g>
<!-- Node1&#45;&gt;Node2 -->
<g id="edge1_Node000001_Node000002" class="edge">
<title>Node1&#45;&gt;Node2</title>
<g id="a_edge1_Node000001_Node000002"><a xlink:title=" ">
<path fill="none" stroke="#63b8ff" d="M887.7,-227.66C800.08,-218.33 631.67,-200.25 488.5,-184 487.23,-183.86 485.95,-183.71 484.67,-183.56"/>
<polygon fill="#63b8ff" stroke="#63b8ff" points="484.99,-180.08 474.65,-182.41 484.19,-187.03 484.99,-180.08"/>
</a>
</g>
</g>
<!-- Node3 -->
<g id="Node000003" class="node">
<title>Node3</title>
<g id="a_Node000003"><a xlink:title=" ">
<polygon fill="#e0e0e0" stroke="#999999" points="244.5,-129 122.5,-129 122.5,-110 244.5,-110 244.5,-129"/>
<text text-anchor="middle" x="183.5" y="-117" font-family="Helvetica,sans-Serif" font-size="10.00">libavcodec/avcodec.h</text>
</a>
</g>
</g>
<!-- Node1&#45;&gt;Node3 -->
<g id="edge58_Node000001_Node000003" class="edge">
<title>Node1&#45;&gt;Node3</title>
<g id="a_edge58_Node000001_Node000003"><a xlink:title=" ">
<path fill="none" stroke="#63b8ff" d="M887.62,-231.55C754.49,-225.72 437.49,-209.54 333.5,-184 287.36,-172.67 237.18,-148.86 208.13,-133.83"/>
<polygon fill="#63b8ff" stroke="#63b8ff" points="209.61,-130.65 199.12,-129.1 206.35,-136.85 209.61,-130.65"/>
</a>
</g>
</g>
<!-- Node4 -->
<g id="Node000004" class="node">
<title>Node4</title>
<g id="a_Node000004"><a xlink:href="uvgvpcc_8hpp.html" target="_top" xlink:title=" ">
<polygon fill="white" stroke="#666666" points="503.5,-74 381.5,-74 381.5,-55 503.5,-55 503.5,-74"/>
<text text-anchor="middle" x="442.5" y="-62" font-family="Helvetica,sans-Serif" font-size="10.00">uvgvpcc/uvgvpcc.hpp</text>
</a>
</g>
</g>
<!-- Node1&#45;&gt;Node4 -->
<g id="edge57_Node000001_Node000004" class="edge">
<title>Node1&#45;&gt;Node4</title>
<g id="a_edge57_Node000001_Node000004"><a xlink:title=" ">
<path fill="none" stroke="#63b8ff" d="M887.84,-234.63C769.56,-234.78 497.48,-229.59 274.5,-184 200.42,-168.85 157.48,-190.51 113.5,-129 108.59,-122.13 107.94,-116.36 113.5,-110 146.29,-72.48 284.87,-65.34 371.38,-64.66"/>
<polygon fill="#63b8ff" stroke="#63b8ff" points="371.42,-68.16 381.4,-64.61 371.38,-61.16 371.42,-68.16"/>
</a>
</g>
</g>
<!-- Node5 -->
<g id="Node000005" class="node">
<title>Node5</title>
<g id="a_Node000005"><a xlink:title=" ">
<polygon fill="#e0e0e0" stroke="#999999" points="53,-19 0,-19 0,0 53,0 53,-19"/>
<text text-anchor="middle" x="26.5" y="-7" font-family="Helvetica,sans-Serif" font-size="10.00">cstddef</text>
</a>
</g>
</g>
<!-- Node1&#45;&gt;Node5 -->
<g id="edge21_Node000001_Node000005" class="edge">
<title>Node1&#45;&gt;Node5</title>
<g id="a_edge21_Node000001_Node000005"><a xlink:title=" ">
<path fill="none" stroke="#63b8ff" d="M887.98,-233.03C714.15,-229.81 215.35,-217.71 150.5,-184 85.92,-150.43 47.4,-66.1 33,-28.77"/>
<polygon fill="#63b8ff" stroke="#63b8ff" points="36.2,-27.34 29.44,-19.18 29.64,-29.78 36.2,-27.34"/>
</a>
</g>
</g>
<!-- Node6 -->
<g id="Node000006" class="node">
<title>Node6</title>
<g id="a_Node000006"><a xlink:title=" ">
<polygon fill="#e0e0e0" stroke="#999999" points="799.5,-19 749.5,-19 749.5,0 799.5,0 799.5,-19"/>
<text text-anchor="middle" x="774.5" y="-7" font-family="Helvetica,sans-Serif" font-size="10.00">cstdint</text>
</a>
</g>
</g>
<!-- Node1&#45;&gt;Node6 -->
<g id="edge22_Node000001_Node000006" class="edge">
<title>Node1&#45;&gt;Node6</title>
<g id="a_edge22_Node000001_Node000006"><a xlink:title=" ">
<path fill="none" stroke="#63b8ff" d="M887.8,-229.04C828.28,-222.71 742.88,-209.4 722.5,-184 702.81,-159.46 745.68,-67.26 765.33,-28.18"/>
<polygon fill="#63b8ff" stroke="#63b8ff" points="768.56,-29.56 769.99,-19.07 762.32,-26.38 768.56,-29.56"/>
</a>
</g>
</g>
<!-- Node8 -->
<g id="Node000008" class="node">
<title>Node8</title>
<g id="a_Node000008"><a xlink:title=" ">
<polygon fill="#e0e0e0" stroke="#999999" points="587.5,-19 529.5,-19 529.5,0 587.5,0 587.5,-19"/>
<text text-anchor="middle" x="558.5" y="-7" font-family="Helvetica,sans-Serif" font-size="10.00">memory</text>
</a>
</g>
</g>
<!-- Node1&#45;&gt;Node8 -->
<g id="edge24_Node000001_Node000008" class="edge">
<title>Node1&#45;&gt;Node8</title>
<g id="a_edge24_Node000001_Node000008"><a xlink:title=" ">
<path fill="none" stroke="#63b8ff" d="M887.84,-232.87C822.21,-229.77 714.75,-219.16 629.5,-184 590.96,-168.1 572.46,-166.13 553.5,-129 537.09,-96.88 545.48,-53.23 552.41,-28.87"/>
<polygon fill="#63b8ff" stroke="#63b8ff" points="555.81,-29.74 555.4,-19.15 549.12,-27.68 555.81,-29.74"/>
</a>
</g>
</g>
<!-- Node12 -->
<g id="Node000012" class="node">
<title>Node12</title>
<g id="a_Node000012"><a xlink:title=" ">
<polygon fill="#e0e0e0" stroke="#999999" points="1057.5,-19 1013.5,-19 1013.5,0 1057.5,0 1057.5,-19"/>
<text text-anchor="middle" x="1035.5" y="-7" font-family="Helvetica,sans-Serif" font-size="10.00">string</text>
</a>
</g>
</g>
<!-- Node1&#45;&gt;Node12 -->
<g id="edge26_Node000001_Node000012" class="edge">
<title>Node1&#45;&gt;Node12</title>
<g id="a_edge26_Node000001_Node000012"><a xlink:title=" ">
<path fill="none" stroke="#63b8ff" d="M999.15,-219.97C1019.79,-212.2 1042.42,-200.65 1058.5,-184 1095.19,-146 1093.31,-125.83 1103.5,-74 1105.13,-65.71 1107.52,-62.43 1103.5,-55 1095.65,-40.48 1080.77,-29.94 1066.93,-22.77"/>
<polygon fill="#63b8ff" stroke="#63b8ff" points="1068.14,-19.47 1057.61,-18.34 1065.14,-25.79 1068.14,-19.47"/>
</a>
</g>
</g>
<!-- Node13 -->
<g id="Node000013" class="node">
<title>Node13</title>
<g id="a_Node000013"><a xlink:title=" ">
<polygon fill="#e0e0e0" stroke="#999999" points="731,-19 684,-19 684,0 731,0 731,-19"/>
<text text-anchor="middle" x="707.5" y="-7" font-family="Helvetica,sans-Serif" font-size="10.00">vector</text>
</a>
</g>
</g>
<!-- Node1&#45;&gt;Node13 -->
<g id="edge27_Node000001_Node000013" class="edge">
<title>Node1&#45;&gt;Node13</title>
<g id="a_edge27_Node000001_Node000013"><a xlink:title=" ">
<path fill="none" stroke="#63b8ff" d="M887.88,-229.56C825.79,-223.56 734.54,-210.43 712.5,-184 675.41,-139.52 691.2,-64.03 701.37,-29.17"/>
<polygon fill="#63b8ff" stroke="#63b8ff" points="704.79,-29.96 704.4,-19.37 698.1,-27.89 704.79,-29.96"/>
</a>
</g>
</g>
<!-- Node17 -->
<g id="Node000017" class="node">
<title>Node17</title>
<g id="a_Node000017"><a xlink:href="abstract2DMapEncoder_8hpp.html" target="_top" xlink:title=" ">
<polygon fill="white" stroke="#666666" points="412.5,-129 262.5,-129 262.5,-110 412.5,-110 412.5,-129"/>
<text text-anchor="middle" x="337.5" y="-117" font-family="Helvetica,sans-Serif" font-size="10.00">abstract2DMapEncoder.hpp</text>
</a>
</g>
</g>
<!-- Node1&#45;&gt;Node17 -->
<g id="edge29_Node000001_Node000017" class="edge">
<title>Node1&#45;&gt;Node17</title>
<g id="a_edge29_Node000001_Node000017"><a xlink:title=" ">
<path fill="none" stroke="#63b8ff" d="M887.86,-233.04C744.39,-230.18 388.91,-219.54 349.5,-184 337.27,-172.97 335.12,-153.72 335.51,-139.3"/>
<polygon fill="#63b8ff" stroke="#63b8ff" points="339.02,-139.23 336.22,-129.01 332.04,-138.75 339.02,-139.23"/>
</a>
</g>
</g>
<!-- Node18 -->
<g id="Node000018" class="node">
<title>Node18</title>
<g id="a_Node000018"><a xlink:title=" ">
<polygon fill="#e0e0e0" stroke="#999999" points="506.5,-129 468.5,-129 468.5,-110 506.5,-110 506.5,-129"/>
<text text-anchor="middle" x="487.5" y="-117" font-family="Helvetica,sans-Serif" font-size="10.00">map</text>
</a>
</g>
</g>
<!-- Node1&#45;&gt;Node18 -->
<g id="edge28_Node000001_Node000018" class="edge">
<title>Node1&#45;&gt;Node18</title>
<g id="a_edge28_Node000001_Node000018"><a xlink:title=" ">
<path fill="none" stroke="#63b8ff" d="M887.72,-233.21C786.11,-230.85 585.01,-221.43 526.5,-184 510.19,-173.57 499.62,-153.63 493.65,-138.86"/>
<polygon fill="#63b8ff" stroke="#63b8ff" points="496.85,-137.41 490.11,-129.24 490.28,-139.83 496.85,-137.41"/>
</a>
</g>
</g>
<!-- Node19 -->
<g id="Node000019" class="node">
<title>Node19</title>
<g id="a_Node000019"><a xlink:title=" ">
<polygon fill="#e0e0e0" stroke="#999999" points="783.5,-184 731.5,-184 731.5,-165 783.5,-165 783.5,-184"/>
<text text-anchor="middle" x="757.5" y="-172" font-family="Helvetica,sans-Serif" font-size="10.00">cassert</text>
</a>
</g>
</g>
<!-- Node1&#45;&gt;Node19 -->
<g id="edge19_Node000001_Node000019" class="edge">
<title>Node1&#45;&gt;Node19</title>
<g id="a_edge19_Node000001_Node000019"><a xlink:title=" ">
<path fill="none" stroke="#63b8ff" d="M901.99,-219.99C868.75,-209.75 824.3,-196.07 793.51,-186.59"/>
<polygon fill="#63b8ff" stroke="#63b8ff" points="794.22,-183.14 783.63,-183.55 792.16,-189.83 794.22,-183.14"/>
</a>
</g>
</g>
<!-- Node20 -->
<g id="Node000020" class="node">
<title>Node20</title>
<g id="a_Node000020"><a xlink:title=" ">
<polygon fill="#e0e0e0" stroke="#999999" points="882,-129 829,-129 829,-110 882,-110 882,-129"/>
<text text-anchor="middle" x="855.5" y="-117" font-family="Helvetica,sans-Serif" font-size="10.00">cstdarg</text>
</a>
</g>
</g>
<!-- Node1&#45;&gt;Node20 -->
<g id="edge20_Node000001_Node000020" class="edge">
<title>Node1&#45;&gt;Node20</title>
<g id="a_edge20_Node000001_Node000020"><a xlink:title=" ">
<path fill="none" stroke="#63b8ff" d="M966.33,-219.84C982.94,-205.6 1002.63,-183.2 989.5,-165 983.57,-156.79 929.47,-140.64 891.86,-130.22"/>
<polygon fill="#63b8ff" stroke="#63b8ff" points="892.78,-126.84 882.21,-127.57 890.93,-133.59 892.78,-126.84"/>
</a>
</g>
</g>
<!-- Node21 -->
<g id="Node000021" class="node">
<title>Node21</title>
<g id="a_Node000021"><a xlink:title=" ">
<polygon fill="#e0e0e0" stroke="#999999" points="980,-184 915,-184 915,-165 980,-165 980,-184"/>
<text text-anchor="middle" x="947.5" y="-172" font-family="Helvetica,sans-Serif" font-size="10.00">functional</text>
</a>
</g>
</g>
<!-- Node1&#45;&gt;Node21 -->
<g id="edge23_Node000001_Node000021" class="edge">
<title>Node1&#45;&gt;Node21</title>
<g id="a_edge23_Node000001_Node000021"><a xlink:title=" ">
<path fill="none" stroke="#63b8ff" d="M947.5,-219.84C947.5,-212.21 947.5,-202.7 947.5,-194.45"/>
<polygon fill="#63b8ff" stroke="#63b8ff" points="951,-194.27 947.5,-184.27 944,-194.27 951,-194.27"/>
</a>
</g>
</g>
<!-- Node22 -->
<g id="Node000022" class="node">
<title>Node22</title>
<g id="a_Node000022"><a xlink:title=" ">
<polygon fill="#e0e0e0" stroke="#999999" points="1094,-74 1029,-74 1029,-55 1094,-55 1094,-74"/>
<text text-anchor="middle" x="1061.5" y="-62" font-family="Helvetica,sans-Serif" font-size="10.00">stdexcept</text>
</a>
</g>
</g>
<!-- Node1&#45;&gt;Node22 -->
<g id="edge25_Node000001_Node000022" class="edge">
<title>Node1&#45;&gt;Node22</title>
<g id="a_edge25_Node000001_Node000022"><a xlink:title=" ">
<path fill="none" stroke="#63b8ff" d="M983.66,-219.94C1001.56,-211.59 1022.49,-199.57 1037.5,-184 1061.91,-158.69 1067.08,-145.13 1065.5,-110 1065.12,-101.47 1064.32,-92.04 1063.54,-84.07"/>
<polygon fill="#63b8ff" stroke="#63b8ff" points="1067.01,-83.6 1062.49,-74.02 1060.05,-84.32 1067.01,-83.6"/>
</a>
</g>
</g>
<!-- Node23 -->
<g id="Node000023" class="node">
<title>Node23</title>
<g id="a_Node000023"><a xlink:href="catchLibLog_8hpp.html" target="_top" xlink:title=" ">
<polygon fill="white" stroke="#666666" points="897,-184 802,-184 802,-165 897,-165 897,-184"/>
<text text-anchor="middle" x="849.5" y="-172" font-family="Helvetica,sans-Serif" font-size="10.00">catchLibLog.hpp</text>
</a>
</g>
</g>
<!-- Node1&#45;&gt;Node23 -->
<g id="edge30_Node000001_Node000023" class="edge">
<title>Node1&#45;&gt;Node23</title>
<g id="a_edge30_Node000001_Node000023"><a xlink:title=" ">
<path fill="none" stroke="#63b8ff" d="M923.78,-219.84C908.3,-210.6 888.18,-198.59 872.79,-189.4"/>
<polygon fill="#63b8ff" stroke="#63b8ff" points="874.28,-186.21 863.9,-184.09 870.69,-192.23 874.28,-186.21"/>
</a>
</g>
</g>
<!-- Node25 -->
<g id="Node000025" class="node">
<title>Node25</title>
<g id="a_Node000025"><a xlink:href="fileExport_8hpp.html" target="_top" xlink:title=" ">
<polygon fill="white" stroke="#666666" points="670.5,-129 562.5,-129 562.5,-110 670.5,-110 670.5,-129"/>
<text text-anchor="middle" x="616.5" y="-117" font-family="Helvetica,sans-Serif" font-size="10.00">utils/fileExport.hpp</text>
</a>
</g>
</g>
<!-- Node1&#45;&gt;Node25 -->
<g id="edge33_Node000001_Node000025" class="edge">
<title>Node1&#45;&gt;Node25</title>
<g id="a_edge33_Node000001_Node000025"><a xlink:title=" ">
<path fill="none" stroke="#63b8ff" d="M887.88,-230.03C812.64,-223.99 688.58,-210.32 651.5,-184 636.28,-173.2 626.96,-153.62 621.8,-139.05"/>
<polygon fill="#63b8ff" stroke="#63b8ff" points="625,-137.58 618.64,-129.11 618.33,-139.7 625,-137.58"/>
</a>
</g>
</g>
<!-- Node30 -->
<g id="Node000030" class="node">
<title>Node30</title>
<g id="a_Node000030"><a xlink:href="parameters_8hpp.html" target="_top" xlink:title=" ">
<polygon fill="white" stroke="#666666" points="1056.5,-129 938.5,-129 938.5,-110 1056.5,-110 1056.5,-129"/>
<text text-anchor="middle" x="997.5" y="-117" font-family="Helvetica,sans-Serif" font-size="10.00">utils/parameters.hpp</text>
</a>
</g>
</g>
<!-- Node1&#45;&gt;Node30 -->
<g id="edge45_Node000001_Node000030" class="edge">
<title>Node1&#45;&gt;Node30</title>
<g id="a_edge45_Node000001_Node000030"><a xlink:title=" ">
<path fill="none" stroke="#63b8ff" d="M982.57,-219.85C997.73,-211.77 1013.93,-200 1022.5,-184 1030.59,-168.89 1021.56,-150.59 1012.17,-137.52"/>
<polygon fill="#63b8ff" stroke="#63b8ff" points="1014.74,-135.13 1005.82,-129.41 1009.23,-139.44 1014.74,-135.13"/>
</a>
</g>
</g>
<!-- Node31 -->
<g id="Node000031" class="node">
<title>Node31</title>
<g id="a_Node000031"><a xlink:href="log_8hpp.html" target="_top" xlink:title=" ">
<polygon fill="white" stroke="#666666" points="1246.5,-184 1150.5,-184 1150.5,-165 1246.5,-165 1246.5,-184"/>
<text text-anchor="middle" x="1198.5" y="-172" font-family="Helvetica,sans-Serif" font-size="10.00">uvgvpcc/log.hpp</text>
</a>
</g>
</g>
<!-- Node1&#45;&gt;Node31 -->
<g id="edge50_Node000001_Node000031" class="edge">
<title>Node1&#45;&gt;Node31</title>
<g id="a_edge50_Node000001_Node000031"><a xlink:title=" ">
<path fill="none" stroke="#63b8ff" d="M1007.3,-220.06C1051.55,-209.75 1110.97,-195.9 1151.76,-186.39"/>
<polygon fill="#63b8ff" stroke="#63b8ff" points="1152.76,-189.75 1161.7,-184.08 1151.17,-182.94 1152.76,-189.75"/>
</a>
</g>
</g>
<!-- Node34 -->
<g id="Node000034" class="node">
<title>Node34</title>
<g id="a_Node000034"><a xlink:title=" ">
<polygon fill="#e0e0e0" stroke="#999999" points="1396,-184 1265,-184 1265,-165 1396,-165 1396,-184"/>
<text text-anchor="middle" x="1330.5" y="-172" font-family="Helvetica,sans-Serif" font-size="10.00">libavformat/avformat.h</text>
</a>
</g>
</g>
<!-- Node1&#45;&gt;Node34 -->
<g id="edge59_Node000001_Node000034" class="edge">
<title>Node1&#45;&gt;Node34</title>
<g id="a_edge59_Node000001_Node000034"><a xlink:title=" ">
<path fill="none" stroke="#63b8ff" d="M1007.34,-224.86C1077.27,-214.18 1192.59,-196.56 1264.9,-185.52"/>
<polygon fill="#63b8ff" stroke="#63b8ff" points="1265.45,-188.98 1274.81,-184.01 1264.39,-182.06 1265.45,-188.98"/>
</a>
</g>
</g>
<!-- Node35 -->
<g id="Node000035" class="node">
<title>Node35</title>
<g id="a_Node000035"><a xlink:title=" ">
<polygon fill="#e0e0e0" stroke="#999999" points="1533,-184 1414,-184 1414,-165 1533,-165 1533,-184"/>
<text text-anchor="middle" x="1473.5" y="-172" font-family="Helvetica,sans-Serif" font-size="10.00">libavutil/hwcontext.h</text>
</a>
</g>
</g>
<!-- Node1&#45;&gt;Node35 -->
<g id="edge60_Node000001_Node000035" class="edge">
<title>Node1&#45;&gt;Node35</title>
<g id="a_edge60_Node000001_Node000035"><a xlink:title=" ">
<path fill="none" stroke="#63b8ff" d="M1007.18,-227.78C1092.67,-218.82 1255.19,-201.52 1403.6,-184.21"/>
<polygon fill="#63b8ff" stroke="#63b8ff" points="1404.28,-187.65 1413.8,-183.02 1403.46,-180.7 1404.28,-187.65"/>
</a>
</g>
</g>
<!-- Node36 -->
<g id="Node000036" class="node">
<title>Node36</title>
<g id="a_Node000036"><a xlink:title=" ">
<polygon fill="#e0e0e0" stroke="#999999" points="1659.5,-184 1551.5,-184 1551.5,-165 1659.5,-165 1659.5,-184"/>
<text text-anchor="middle" x="1605.5" y="-172" font-family="Helvetica,sans-Serif" font-size="10.00">libavutil/imgutils.h</text>
</a>
</g>
</g>
<!-- Node1&#45;&gt;Node36 -->
<g id="edge61_Node000001_Node000036" class="edge">
<title>Node1&#45;&gt;Node36</title>
<g id="a_edge61_Node000001_Node000036"><a xlink:title=" ">
<path fill="none" stroke="#63b8ff" d="M1007.13,-229.99C1112.63,-222.67 1339.28,-205.96 1541.03,-184.11"/>
<polygon fill="#63b8ff" stroke="#63b8ff" points="1541.66,-187.56 1551.23,-183 1540.9,-180.6 1541.66,-187.56"/>
</a>
</g>
</g>
<!-- Node37 -->
<g id="Node000037" class="node">
<title>Node37</title>
<g id="a_Node000037"><a xlink:title=" ">
<polygon fill="#e0e0e0" stroke="#999999" points="1811,-184 1678,-184 1678,-165 1811,-165 1811,-184"/>
<text text-anchor="middle" x="1744.5" y="-172" font-family="Helvetica,sans-Serif" font-size="10.00">libavutil/mathematics.h</text>
</a>
</g>
</g>
<!-- Node1&#45;&gt;Node37 -->
<g id="edge62_Node000001_Node000037" class="edge">
<title>Node1&#45;&gt;Node37</title>
<g id="a_edge62_Node000001_Node000037"><a xlink:title=" ">
<path fill="none" stroke="#63b8ff" d="M1007.39,-230.7C1129.42,-223.8 1415.89,-206.64 1667.71,-184.03"/>
<polygon fill="#63b8ff" stroke="#63b8ff" points="1668.14,-187.51 1677.79,-183.12 1667.51,-180.54 1668.14,-187.51"/>
</a>
</g>
</g>
<!-- Node38 -->
<g id="Node000038" class="node">
<title>Node38</title>
<g id="a_Node000038"><a xlink:title=" ">
<polygon fill="#e0e0e0" stroke="#999999" points="1913.5,-184 1829.5,-184 1829.5,-165 1913.5,-165 1913.5,-184"/>
<text text-anchor="middle" x="1871.5" y="-172" font-family="Helvetica,sans-Serif" font-size="10.00">libavutil/opt.h</text>
</a>
</g>
</g>
<!-- Node1&#45;&gt;Node38 -->
<g id="edge63_Node000001_Node000038" class="edge">
<title>Node1&#45;&gt;Node38</title>
<g id="a_edge63_Node000001_Node000038"><a xlink:title=" ">
<path fill="none" stroke="#63b8ff" d="M1007.23,-232.8C1147.31,-229.51 1508.06,-218.25 1819.13,-184.03"/>
<polygon fill="#63b8ff" stroke="#63b8ff" points="1819.7,-187.48 1829.25,-182.9 1818.92,-180.53 1819.7,-187.48"/>
</a>
</g>
</g>
<!-- Node39 -->
<g id="Node000039" class="node">
<title>Node39</title>
<g id="a_Node000039"><a xlink:title=" ">
<polygon fill="#e0e0e0" stroke="#999999" points="2015,-184 1932,-184 1932,-165 2015,-165 2015,-184"/>
<text text-anchor="middle" x="1973.5" y="-172" font-family="Helvetica,sans-Serif" font-size="10.00">libavutil/log.h</text>
</a>
</g>
</g>
<!-- Node1&#45;&gt;Node39 -->
<g id="edge64_Node000001_Node000039" class="edge">
<title>Node1&#45;&gt;Node39</title>
<g id="a_edge64_Node000001_Node000039"><a xlink:title=" ">
<path fill="none" stroke="#63b8ff" d="M1007.04,-233.3C1158.2,-231.03 1569.15,-221.7 1921.66,-183.94"/>
<polygon fill="#63b8ff" stroke="#63b8ff" points="1922.24,-187.4 1931.8,-182.85 1921.49,-180.44 1922.24,-187.4"/>
</a>
</g>
</g>
<!-- Node40 -->
<g id="Node000040" class="node">
<title>Node40</title>
<g id="a_Node000040"><a xlink:title=" ">
<polygon fill="#e0e0e0" stroke="#999999" points="2155.5,-184 2033.5,-184 2033.5,-165 2155.5,-165 2155.5,-184"/>
<text text-anchor="middle" x="2094.5" y="-172" font-family="Helvetica,sans-Serif" font-size="10.00">libavutil/timestamp.h</text>
</a>
</g>
</g>
<!-- Node1&#45;&gt;Node40 -->
<g id="edge65_Node000001_Node000040" class="edge">
<title>Node1&#45;&gt;Node40</title>
<g id="a_edge65_Node000001_Node000040"><a xlink:title=" ">
<path fill="none" stroke="#63b8ff" d="M1007.15,-232.79C1168.88,-229.17 1629.5,-216.65 2023.28,-184.03"/>
<polygon fill="#63b8ff" stroke="#63b8ff" points="2023.77,-187.5 2033.44,-183.19 2023.19,-180.53 2023.77,-187.5"/>
</a>
</g>
</g>
<!-- Node2&#45;&gt;Node3 -->
<g id="edge2_Node000002_Node000003" class="edge">
<title>Node2&#45;&gt;Node3</title>
<g id="a_edge2_Node000002_Node000003"><a xlink:title=" ">
<path fill="none" stroke="#63b8ff" d="M379.06,-164.98C338.85,-155.84 274.82,-141.27 231.06,-131.32"/>
<polygon fill="#63b8ff" stroke="#63b8ff" points="231.76,-127.89 221.23,-129.08 230.2,-134.71 231.76,-127.89"/>
</a>
</g>
</g>
<!-- Node2&#45;&gt;Node4 -->
<g id="edge3_Node000002_Node000004" class="edge">
<title>Node2&#45;&gt;Node4</title>
<g id="a_edge3_Node000002_Node000004"><a xlink:title=" ">
<path fill="none" stroke="#63b8ff" d="M418.63,-164.66C422.86,-147.09 432.4,-107.45 438.06,-83.95"/>
<polygon fill="#63b8ff" stroke="#63b8ff" points="441.48,-84.7 440.42,-74.16 434.67,-83.06 441.48,-84.7"/>
</a>
</g>
</g>
<!-- Node2&#45;&gt;Node17 -->
<g id="edge16_Node000002_Node000017" class="edge">
<title>Node2&#45;&gt;Node17</title>
<g id="a_edge16_Node000002_Node000017"><a xlink:title=" ">
<path fill="none" stroke="#63b8ff" d="M403.81,-164.98C391.67,-156.84 373.14,-144.41 358.75,-134.76"/>
<polygon fill="#63b8ff" stroke="#63b8ff" points="360.68,-131.84 350.42,-129.17 356.78,-137.65 360.68,-131.84"/>
</a>
</g>
</g>
<!-- Node2&#45;&gt;Node18 -->
<g id="edge18_Node000002_Node000018" class="edge">
<title>Node2&#45;&gt;Node18</title>
<g id="a_edge18_Node000002_Node000018"><a xlink:title=" ">
<path fill="none" stroke="#63b8ff" d="M427.91,-164.98C438.61,-157 454.84,-144.88 467.66,-135.31"/>
<polygon fill="#63b8ff" stroke="#63b8ff" points="469.97,-137.96 475.89,-129.17 465.78,-132.35 469.97,-137.96"/>
</a>
</g>
</g>
<!-- Node4&#45;&gt;Node5 -->
<g id="edge4_Node000004_Node000005" class="edge">
<title>Node4&#45;&gt;Node5</title>
<g id="a_edge4_Node000004_Node000005"><a xlink:title=" ">
<path fill="none" stroke="#63b8ff" d="M381.46,-58.68C308,-52.37 180.79,-39.79 63.08,-19.1"/>
<polygon fill="#63b8ff" stroke="#63b8ff" points="63.64,-15.64 53.18,-17.33 62.41,-22.53 63.64,-15.64"/>
</a>
</g>
</g>
<!-- Node4&#45;&gt;Node6 -->
<g id="edge5_Node000004_Node000006" class="edge">
<title>Node4&#45;&gt;Node6</title>
<g id="a_edge5_Node000004_Node000006"><a xlink:title=" ">
<path fill="none" stroke="#63b8ff" d="M503.58,-56.14C561.79,-48.72 652.05,-36.19 739.24,-19.08"/>
<polygon fill="#63b8ff" stroke="#63b8ff" points="740.18,-22.47 749.31,-17.09 738.82,-15.6 740.18,-22.47"/>
</a>
</g>
</g>
<!-- Node7 -->
<g id="Node000007" class="node">
<title>Node7</title>
<g id="a_Node000007"><a xlink:title=" ">
<polygon fill="#e0e0e0" stroke="#999999" points="665.5,-19 605.5,-19 605.5,0 665.5,0 665.5,-19"/>
<text text-anchor="middle" x="635.5" y="-7" font-family="Helvetica,sans-Serif" font-size="10.00">iostream</text>
</a>
</g>
</g>
<!-- Node4&#45;&gt;Node7 -->
<g id="edge6_Node000004_Node000007" class="edge">
<title>Node4&#45;&gt;Node7</title>
<g id="a_edge6_Node000004_Node000007"><a xlink:title=" ">
<path fill="none" stroke="#63b8ff" d="M473.51,-54.98C506.62,-45.89 559.22,-31.45 595.45,-21.5"/>
<polygon fill="#63b8ff" stroke="#63b8ff" points="596.49,-24.84 605.2,-18.82 594.63,-18.09 596.49,-24.84"/>
</a>
</g>
</g>
<!-- Node4&#45;&gt;Node8 -->
<g id="edge7_Node000004_Node000008" class="edge">
<title>Node4&#45;&gt;Node8</title>
<g id="a_edge7_Node000004_Node000008"><a xlink:title=" ">
<path fill="none" stroke="#63b8ff" d="M461.14,-54.98C479.8,-46.46 508.75,-33.23 530.24,-23.41"/>
<polygon fill="#63b8ff" stroke="#63b8ff" points="531.88,-26.51 539.52,-19.17 528.97,-20.14 531.88,-26.51"/>
</a>
</g>
</g>
<!-- Node9 -->
<g id="Node000009" class="node">
<title>Node9</title>
<g id="a_Node000009"><a xlink:title=" ">
<polygon fill="#e0e0e0" stroke="#999999" points="340,-19 293,-19 293,0 340,0 340,-19"/>
<text text-anchor="middle" x="316.5" y="-7" font-family="Helvetica,sans-Serif" font-size="10.00">queue</text>
</a>
</g>
</g>
<!-- Node4&#45;&gt;Node9 -->
<g id="edge8_Node000004_Node000009" class="edge">
<title>Node4&#45;&gt;Node9</title>
<g id="a_edge8_Node000004_Node000009"><a xlink:title=" ">
<path fill="none" stroke="#63b8ff" d="M422.26,-54.98C401.8,-46.38 369.97,-32.99 346.57,-23.15"/>
<polygon fill="#63b8ff" stroke="#63b8ff" points="347.69,-19.82 337.11,-19.17 344.97,-26.27 347.69,-19.82"/>
</a>
</g>
</g>
<!-- Node10 -->
<g id="Node000010" class="node">
<title>Node10</title>
<g id="a_Node000010"><a xlink:title=" ">
<polygon fill="#e0e0e0" stroke="#999999" points="429,-19 358,-19 358,0 429,0 429,-19"/>
<text text-anchor="middle" x="393.5" y="-7" font-family="Helvetica,sans-Serif" font-size="10.00">semaphore</text>
</a>
</g>
</g>
<!-- Node4&#45;&gt;Node10 -->
<g id="edge9_Node000004_Node000010" class="edge">
<title>Node4&#45;&gt;Node10</title>
<g id="a_edge9_Node000004_Node000010"><a xlink:title=" ">
<path fill="none" stroke="#63b8ff" d="M434.41,-54.75C427.34,-47.11 416.91,-35.82 408.35,-26.56"/>
<polygon fill="#63b8ff" stroke="#63b8ff" points="410.8,-24.06 401.44,-19.09 405.66,-28.81 410.8,-24.06"/>
</a>
</g>
</g>
<!-- Node11 -->
<g id="Node000011" class="node">
<title>Node11</title>
<g id="a_Node000011"><a xlink:title=" ">
<polygon fill="#e0e0e0" stroke="#999999" points="873.5,-19 817.5,-19 817.5,0 873.5,0 873.5,-19"/>
<text text-anchor="middle" x="845.5" y="-7" font-family="Helvetica,sans-Serif" font-size="10.00">sstream</text>
</a>
</g>
</g>
<!-- Node4&#45;&gt;Node11 -->
<g id="edge10_Node000004_Node000011" class="edge">
<title>Node4&#45;&gt;Node11</title>
<g id="a_edge10_Node000004_Node000011"><a xlink:title=" ">
<path fill="none" stroke="#63b8ff" d="M503.66,-58.04C574.44,-51.28 694.64,-38.44 807.12,-19.08"/>
<polygon fill="#63b8ff" stroke="#63b8ff" points="808.03,-22.47 817.28,-17.3 806.83,-15.57 808.03,-22.47"/>
</a>
</g>
</g>
<!-- Node4&#45;&gt;Node12 -->
<g id="edge11_Node000004_Node000012" class="edge">
<title>Node4&#45;&gt;Node12</title>
<g id="a_edge11_Node000004_Node000012"><a xlink:title=" ">
<path fill="none" stroke="#63b8ff" d="M503.68,-62.42C605.62,-59.81 816.63,-50.88 1003.27,-18.88"/>
<polygon fill="#63b8ff" stroke="#63b8ff" points="1004.01,-22.3 1013.26,-17.14 1002.81,-15.4 1004.01,-22.3"/>
</a>
</g>
</g>
<!-- Node4&#45;&gt;Node13 -->
<g id="edge12_Node000004_Node000013" class="edge">
<title>Node4&#45;&gt;Node13</title>
<g id="a_edge12_Node000004_Node000013"><a xlink:title=" ">
<path fill="none" stroke="#63b8ff" d="M492.02,-54.93C536.91,-46.95 605.11,-34.31 673.64,-19.07"/>
<polygon fill="#63b8ff" stroke="#63b8ff" points="674.76,-22.41 683.75,-16.81 673.23,-15.58 674.76,-22.41"/>
</a>
</g>
</g>
<!-- Node14 -->
<g id="Node000014" class="node">
<title>Node14</title>
<g id="a_Node000014"><a xlink:title=" ">
<polygon fill="#e0e0e0" stroke="#999999" points="511.5,-19 447.5,-19 447.5,0 511.5,0 511.5,-19"/>
<text text-anchor="middle" x="479.5" y="-7" font-family="Helvetica,sans-Serif" font-size="10.00">algorithm</text>
</a>
</g>
</g>
<!-- Node4&#45;&gt;Node14 -->
<g id="edge13_Node000004_Node000014" class="edge">
<title>Node4&#45;&gt;Node14</title>
<g id="a_edge13_Node000004_Node000014"><a xlink:title=" ">
<path fill="none" stroke="#63b8ff" d="M448.61,-54.75C453.78,-47.34 461.35,-36.5 467.69,-27.41"/>
<polygon fill="#63b8ff" stroke="#63b8ff" points="470.65,-29.29 473.5,-19.09 464.91,-25.29 470.65,-29.29"/>
</a>
</g>
</g>
<!-- Node15 -->
<g id="Node000015" class="node">
<title>Node15</title>
<g id="a_Node000015"><a xlink:title=" ">
<polygon fill="#e0e0e0" stroke="#999999" points="164,-19 71,-19 71,0 164,0 164,-19"/>
<text text-anchor="middle" x="117.5" y="-7" font-family="Helvetica,sans-Serif" font-size="10.00">unordered_map</text>
</a>
</g>
</g>
<!-- Node4&#45;&gt;Node15 -->
<g id="edge14_Node000004_Node000015" class="edge">
<title>Node4&#45;&gt;Node15</title>
<g id="a_edge14_Node000004_Node000015"><a xlink:title=" ">
<path fill="none" stroke="#63b8ff" d="M390.28,-54.98C331.17,-45.34 235.19,-29.69 174.26,-19.76"/>
<polygon fill="#63b8ff" stroke="#63b8ff" points="174.49,-16.25 164.06,-18.09 173.36,-23.16 174.49,-16.25"/>
</a>
</g>
</g>
<!-- Node16 -->
<g id="Node000016" class="node">
<title>Node16</title>
<g id="a_Node000016"><a xlink:title=" ">
<polygon fill="#e0e0e0" stroke="#999999" points="274.5,-19 182.5,-19 182.5,0 274.5,0 274.5,-19"/>
<text text-anchor="middle" x="228.5" y="-7" font-family="Helvetica,sans-Serif" font-size="10.00">../utils/utils.hpp</text>
</a>
</g>
</g>
<!-- Node4&#45;&gt;Node16 -->
<g id="edge15_Node000004_Node000016" class="edge">
<title>Node4&#45;&gt;Node16</title>
<g id="a_edge15_Node000004_Node000016"><a xlink:title=" ">
<path fill="none" stroke="#63b8ff" d="M408.12,-54.98C371.41,-45.89 313.12,-31.46 272.95,-21.51"/>
<polygon fill="#63b8ff" stroke="#63b8ff" points="273.7,-18.09 263.15,-19.08 272.02,-24.88 273.7,-18.09"/>
</a>
</g>
</g>
<!-- Node17&#45;&gt;Node4 -->
<g id="edge17_Node000017_Node000004" class="edge">
<title>Node17&#45;&gt;Node4</title>
<g id="a_edge17_Node000017_Node000004"><a xlink:title=" ">
<path fill="none" stroke="#63b8ff" d="M354.37,-109.98C371.11,-101.54 397,-88.47 416.39,-78.68"/>
<polygon fill="#63b8ff" stroke="#63b8ff" points="417.97,-81.8 425.32,-74.17 414.82,-75.55 417.97,-81.8"/>
</a>
</g>
</g>
<!-- Node23&#45;&gt;Node20 -->
<g id="edge31_Node000023_Node000020" class="edge">
<title>Node23&#45;&gt;Node20</title>
<g id="a_edge31_Node000023_Node000020"><a xlink:title=" ">
<path fill="none" stroke="#63b8ff" d="M850.49,-164.75C851.28,-157.8 852.4,-147.85 853.39,-139.13"/>
<polygon fill="#63b8ff" stroke="#63b8ff" points="856.88,-139.42 854.53,-129.09 849.92,-138.63 856.88,-139.42"/>
</a>
</g>
</g>
<!-- Node24 -->
<g id="Node000024" class="node">
<title>Node24</title>
<g id="a_Node000024"><a xlink:title=" ">
<polygon fill="#e0e0e0" stroke="#999999" points="810.5,-129 764.5,-129 764.5,-110 810.5,-110 810.5,-129"/>
<text text-anchor="middle" x="787.5" y="-117" font-family="Helvetica,sans-Serif" font-size="10.00">cstdio</text>
</a>
</g>
</g>
<!-- Node23&#45;&gt;Node24 -->
<g id="edge32_Node000023_Node000024" class="edge">
<title>Node23&#45;&gt;Node24</title>
<g id="a_edge32_Node000023_Node000024"><a xlink:title=" ">
<path fill="none" stroke="#63b8ff" d="M839.54,-164.98C830.37,-157.15 816.56,-145.34 805.47,-135.86"/>
<polygon fill="#63b8ff" stroke="#63b8ff" points="807.52,-133.01 797.64,-129.17 802.97,-138.33 807.52,-133.01"/>
</a>
</g>
</g>
<!-- Node25&#45;&gt;Node4 -->
<g id="edge44_Node000025_Node000004" class="edge">
<title>Node25&#45;&gt;Node4</title>
<g id="a_edge44_Node000025_Node000004"><a xlink:title=" ">
<path fill="none" stroke="#63b8ff" d="M588.54,-109.98C559.2,-101.05 512.9,-86.94 480.31,-77.02"/>
<polygon fill="#63b8ff" stroke="#63b8ff" points="481.26,-73.65 470.68,-74.08 479.22,-80.34 481.26,-73.65"/>
</a>
</g>
</g>
<!-- Node25&#45;&gt;Node5 -->
<g id="edge34_Node000025_Node000005" class="edge">
<title>Node25&#45;&gt;Node5</title>
<g id="a_edge34_Node000025_Node000005"><a xlink:title=" ">
<path fill="none" stroke="#63b8ff" d="M562.71,-109.97C465.05,-94.25 251.89,-58.82 63.04,-19.23"/>
<polygon fill="#63b8ff" stroke="#63b8ff" points="63.72,-15.8 53.21,-17.17 62.28,-22.65 63.72,-15.8"/>
</a>
</g>
</g>
<!-- Node25&#45;&gt;Node8 -->
<g id="edge35_Node000025_Node000008" class="edge">
<title>Node25&#45;&gt;Node8</title>
<g id="a_edge35_Node000025_Node000008"><a xlink:title=" ">
<path fill="none" stroke="#63b8ff" d="M611.75,-109.66C602.19,-91.85 580.45,-51.37 567.9,-28.01"/>
<polygon fill="#63b8ff" stroke="#63b8ff" points="570.96,-26.31 563.15,-19.16 564.8,-29.62 570.96,-26.31"/>
</a>
</g>
</g>
<!-- Node25&#45;&gt;Node12 -->
<g id="edge36_Node000025_Node000012" class="edge">
<title>Node25&#45;&gt;Node12</title>
<g id="a_edge36_Node000025_Node000012"><a xlink:title=" ">
<path fill="none" stroke="#63b8ff" d="M670.82,-114.19C750.52,-107.34 894.95,-92.81 943.5,-74 972.43,-62.79 1001.1,-40.82 1018.55,-25.9"/>
<polygon fill="#63b8ff" stroke="#63b8ff" points="1020.96,-28.45 1026.18,-19.22 1016.35,-23.18 1020.96,-28.45"/>
</a>
</g>
</g>
<!-- Node25&#45;&gt;Node13 -->
<g id="edge37_Node000025_Node000013" class="edge">
<title>Node25&#45;&gt;Node13</title>
<g id="a_edge37_Node000025_Node000013"><a xlink:title=" ">
<path fill="none" stroke="#63b8ff" d="M623.95,-109.66C639.15,-91.61 673.98,-50.28 693.53,-27.08"/>
<polygon fill="#63b8ff" stroke="#63b8ff" points="696.44,-29.06 700.2,-19.16 691.08,-24.55 696.44,-29.06"/>
</a>
</g>
</g>
<!-- Node26 -->
<g id="Node000026" class="node">
<title>Node26</title>
<g id="a_Node000026"><a xlink:href="utils_8hpp.html" target="_top" xlink:title=" ">
<polygon fill="white" stroke="#666666" points="934,-74 851,-74 851,-55 934,-55 934,-74"/>
<text text-anchor="middle" x="892.5" y="-62" font-family="Helvetica,sans-Serif" font-size="10.00">utils/utils.hpp</text>
</a>
</g>
</g>
<!-- Node25&#45;&gt;Node26 -->
<g id="edge38_Node000025_Node000026" class="edge">
<title>Node25&#45;&gt;Node26</title>
<g id="a_edge38_Node000025_Node000026"><a xlink:title=" ">
<path fill="none" stroke="#63b8ff" d="M660.84,-109.98C709.99,-100.55 789.13,-85.35 840.98,-75.39"/>
<polygon fill="#63b8ff" stroke="#63b8ff" points="841.81,-78.8 850.97,-73.47 840.49,-71.92 841.81,-78.8"/>
</a>
</g>
</g>
<!-- Node26&#45;&gt;Node6 -->
<g id="edge40_Node000026_Node000006" class="edge">
<title>Node26&#45;&gt;Node6</title>
<g id="a_edge40_Node000026_Node000006"><a xlink:title=" ">
<path fill="none" stroke="#63b8ff" d="M873.54,-54.98C854.47,-46.42 824.84,-33.11 802.95,-23.28"/>
<polygon fill="#63b8ff" stroke="#63b8ff" points="804.36,-20.07 793.8,-19.17 801.49,-26.46 804.36,-20.07"/>
</a>
</g>
</g>
<!-- Node26&#45;&gt;Node11 -->
<g id="edge42_Node000026_Node000011" class="edge">
<title>Node26&#45;&gt;Node11</title>
<g id="a_edge42_Node000026_Node000011"><a xlink:title=" ">
<path fill="none" stroke="#63b8ff" d="M884.74,-54.75C878.03,-47.18 868.16,-36.05 859.99,-26.84"/>
<polygon fill="#63b8ff" stroke="#63b8ff" points="862.37,-24.25 853.12,-19.09 857.13,-28.89 862.37,-24.25"/>
</a>
</g>
</g>
<!-- Node27 -->
<g id="Node000027" class="node">
<title>Node27</title>
<g id="a_Node000027"><a xlink:title=" ">
<polygon fill="#e0e0e0" stroke="#999999" points="933.5,-19 891.5,-19 891.5,0 933.5,0 933.5,-19"/>
<text text-anchor="middle" x="912.5" y="-7" font-family="Helvetica,sans-Serif" font-size="10.00">array</text>
</a>
</g>
</g>
<!-- Node26&#45;&gt;Node27 -->
<g id="edge39_Node000026_Node000027" class="edge">
<title>Node26&#45;&gt;Node27</title>
<g id="a_edge39_Node000026_Node000027"><a xlink:title=" ">
<path fill="none" stroke="#63b8ff" d="M895.8,-54.75C898.48,-47.65 902.35,-37.4 905.69,-28.56"/>
<polygon fill="#63b8ff" stroke="#63b8ff" points="909,-29.68 909.26,-19.09 902.45,-27.21 909,-29.68"/>
</a>
</g>
</g>
<!-- Node28 -->
<g id="Node000028" class="node">
<title>Node28</title>
<g id="a_Node000028"><a xlink:title=" ">
<polygon fill="#e0e0e0" stroke="#999999" points="995.5,-19 951.5,-19 951.5,0 995.5,0 995.5,-19"/>
<text text-anchor="middle" x="973.5" y="-7" font-family="Helvetica,sans-Serif" font-size="10.00">limits</text>
</a>
</g>
</g>
<!-- Node26&#45;&gt;Node28 -->
<g id="edge41_Node000026_Node000028" class="edge">
<title>Node26&#45;&gt;Node28</title>
<g id="a_edge41_Node000026_Node000028"><a xlink:title=" ">
<path fill="none" stroke="#63b8ff" d="M905.51,-54.98C917.96,-46.84 936.96,-34.41 951.71,-24.76"/>
<polygon fill="#63b8ff" stroke="#63b8ff" points="953.8,-27.57 960.25,-19.17 949.96,-21.72 953.8,-27.57"/>
</a>
</g>
</g>
<!-- Node29 -->
<g id="Node000029" class="node">
<title>Node29</title>
<g id="a_Node000029"><a xlink:title=" ">
<polygon fill="#e0e0e0" stroke="#999999" points="1179.5,-19 1123.5,-19 1123.5,0 1179.5,0 1179.5,-19"/>
<text text-anchor="middle" x="1151.5" y="-7" font-family="Helvetica,sans-Serif" font-size="10.00">iomanip</text>
</a>
</g>
</g>
<!-- Node26&#45;&gt;Node29 -->
<g id="edge43_Node000026_Node000029" class="edge">
<title>Node26&#45;&gt;Node29</title>
<g id="a_edge43_Node000026_Node000029"><a xlink:title=" ">
<path fill="none" stroke="#63b8ff" d="M934.11,-54.98C983.54,-44.87 1065.3,-28.14 1113.22,-18.33"/>
<polygon fill="#63b8ff" stroke="#63b8ff" points="1114.1,-21.73 1123.19,-16.29 1112.69,-14.87 1114.1,-21.73"/>
</a>
</g>
</g>
<!-- Node30&#45;&gt;Node12 -->
<g id="edge47_Node000030_Node000012" class="edge">
<title>Node30&#45;&gt;Node12</title>
<g id="a_edge47_Node000030_Node000012"><a xlink:title=" ">
<path fill="none" stroke="#63b8ff" d="M1000.61,-109.66C1006.82,-92.01 1020.87,-52.09 1029.12,-28.64"/>
<polygon fill="#63b8ff" stroke="#63b8ff" points="1032.44,-29.75 1032.45,-19.16 1025.83,-27.43 1032.44,-29.75"/>
</a>
</g>
</g>
<!-- Node30&#45;&gt;Node13 -->
<g id="edge48_Node000030_Node000013" class="edge">
<title>Node30&#45;&gt;Node13</title>
<g id="a_edge48_Node000030_Node000013"><a xlink:title=" ">
<path fill="none" stroke="#63b8ff" d="M961.58,-109.93C929.82,-101.94 882.46,-89.03 842.5,-74 803.2,-59.23 759.55,-37.7 732.81,-23.9"/>
<polygon fill="#63b8ff" stroke="#63b8ff" points="734.25,-20.7 723.76,-19.19 731.01,-26.91 734.25,-20.7"/>
</a>
</g>
</g>
<!-- Node30&#45;&gt;Node22 -->
<g id="edge46_Node000030_Node000022" class="edge">
<title>Node30&#45;&gt;Node22</title>
<g id="a_edge46_Node000030_Node000022"><a xlink:title=" ">
<path fill="none" stroke="#63b8ff" d="M1007.78,-109.98C1017.34,-102.07 1031.78,-90.11 1043.28,-80.58"/>
<polygon fill="#63b8ff" stroke="#63b8ff" points="1045.56,-83.24 1051.03,-74.17 1041.1,-77.85 1045.56,-83.24"/>
</a>
</g>
</g>
<!-- Node30&#45;&gt;Node26 -->
<g id="edge49_Node000030_Node000026" class="edge">
<title>Node30&#45;&gt;Node26</title>
<g id="a_edge49_Node000030_Node000026"><a xlink:title=" ">
<path fill="none" stroke="#63b8ff" d="M980.63,-109.98C963.89,-101.54 938,-88.47 918.61,-78.68"/>
<polygon fill="#63b8ff" stroke="#63b8ff" points="920.18,-75.55 909.68,-74.17 917.03,-81.8 920.18,-75.55"/>
</a>
</g>
</g>
<!-- Node31&#45;&gt;Node7 -->
<g id="edge54_Node000031_Node000007" class="edge">
<title>Node31&#45;&gt;Node7</title>
<g id="a_edge54_Node000031_Node000007"><a xlink:title=" ">
<path fill="none" stroke="#63b8ff" d="M1150.34,-169.91C1095.71,-164.83 1004.47,-153.33 929.5,-129 911.54,-123.17 908.85,-117.46 891.5,-110 848.49,-91.5 836.21,-90.78 792.5,-74 748.04,-56.93 696.99,-36.04 665.49,-23"/>
<polygon fill="#63b8ff" stroke="#63b8ff" points="666.56,-19.65 655.98,-19.06 663.88,-26.12 666.56,-19.65"/>
</a>
</g>
</g>
<!-- Node31&#45;&gt;Node12 -->
<g id="edge55_Node000031_Node000012" class="edge">
<title>Node31&#45;&gt;Node12</title>
<g id="a_edge55_Node000031_Node000012"><a xlink:title=" ">
<path fill="none" stroke="#63b8ff" d="M1196.15,-164.82C1189.93,-143.39 1171.1,-87.35 1136.5,-55 1117.05,-36.81 1088.95,-25.25 1067.32,-18.49"/>
<polygon fill="#63b8ff" stroke="#63b8ff" points="1068.18,-15.09 1057.59,-15.63 1066.2,-21.81 1068.18,-15.09"/>
</a>
</g>
</g>
<!-- Node31&#45;&gt;Node20 -->
<g id="edge52_Node000031_Node000020" class="edge">
<title>Node31&#45;&gt;Node20</title>
<g id="a_edge52_Node000031_Node000020"><a xlink:title=" ">
<path fill="none" stroke="#63b8ff" d="M1150.24,-167.27C1090.5,-159.35 985.73,-144.81 896.5,-129 895.21,-128.77 893.9,-128.53 892.58,-128.29"/>
<polygon fill="#63b8ff" stroke="#63b8ff" points="892.85,-124.77 882.36,-126.3 891.51,-131.65 892.85,-124.77"/>
</a>
</g>
</g>
<!-- Node31&#45;&gt;Node29 -->
<g id="edge53_Node000031_Node000029" class="edge">
<title>Node31&#45;&gt;Node29</title>
<g id="a_edge53_Node000031_Node000029"><a xlink:title=" ">
<path fill="none" stroke="#63b8ff" d="M1197.59,-164.95C1195.31,-145.15 1188.51,-94.8 1174.5,-55 1171.22,-45.67 1166.31,-35.84 1161.87,-27.81"/>
<polygon fill="#63b8ff" stroke="#63b8ff" points="1164.85,-25.97 1156.83,-19.04 1158.78,-29.46 1164.85,-25.97"/>
</a>
</g>
</g>
<!-- Node32 -->
<g id="Node000032" class="node">
<title>Node32</title>
<g id="a_Node000032"><a xlink:title=" ">
<polygon fill="#e0e0e0" stroke="#999999" points="1276.5,-129 1226.5,-129 1226.5,-110 1276.5,-110 1276.5,-129"/>
<text text-anchor="middle" x="1251.5" y="-117" font-family="Helvetica,sans-Serif" font-size="10.00">chrono</text>
</a>
</g>
</g>
<!-- Node31&#45;&gt;Node32 -->
<g id="edge51_Node000031_Node000032" class="edge">
<title>Node31&#45;&gt;Node32</title>
<g id="a_edge51_Node000031_Node000032"><a xlink:title=" ">
<path fill="none" stroke="#63b8ff" d="M1207.25,-164.75C1214.97,-157.03 1226.4,-145.6 1235.72,-136.28"/>
<polygon fill="#63b8ff" stroke="#63b8ff" points="1238.31,-138.64 1242.91,-129.09 1233.36,-133.69 1238.31,-138.64"/>
</a>
</g>
</g>
<!-- Node33 -->
<g id="Node000033" class="node">
<title>Node33</title>
<g id="a_Node000033"><a xlink:title=" ">
<polygon fill="#e0e0e0" stroke="#999999" points="1342.5,-129 1294.5,-129 1294.5,-110 1342.5,-110 1342.5,-129"/>
<text text-anchor="middle" x="1318.5" y="-117" font-family="Helvetica,sans-Serif" font-size="10.00">mutex</text>
</a>
</g>
</g>
<!-- Node31&#45;&gt;Node33 -->
<g id="edge56_Node000031_Node000033" class="edge">
<title>Node31&#45;&gt;Node33</title>
<g id="a_edge56_Node000031_Node000033"><a xlink:title=" ">
<path fill="none" stroke="#63b8ff" d="M1217.78,-164.98C1237.17,-156.42 1267.31,-143.11 1289.57,-133.28"/>
<polygon fill="#63b8ff" stroke="#63b8ff" points="1291.14,-136.41 1298.87,-129.17 1288.31,-130.01 1291.14,-136.41"/>
</a>
</g>
</g>
</g>
</svg>
