<?xml version="1.0" encoding="UTF-8" standalone="no"?>
<!DOCTYPE svg PUBLIC "-//W3C//DTD SVG 1.1//EN"
 "http://www.w3.org/Graphics/SVG/1.1/DTD/svg11.dtd">
<!-- Generated by graphviz version 2.43.0 (0)
 -->
<!-- Title: src/lib/mapEncoding/encoderKvazaar.cpp Pages: 1 -->
<svg width="1316pt" height="258pt"
 viewBox="0.00 0.00 1316.00 258.00" xmlns="http://www.w3.org/2000/svg" xmlns:xlink="http://www.w3.org/1999/xlink">
<g id="graph0" class="graph" transform="scale(1 1) rotate(0) translate(4 254)">
<title>src/lib/mapEncoding/encoderKvazaar.cpp</title>
<!-- Node1 -->
<g id="Node000001" class="node">
<title>Node1</title>
<g id="a_Node000001"><a xlink:title=" ">
<polygon fill="#999999" stroke="#666666" points="773.5,-250 655.5,-250 655.5,-220 773.5,-220 773.5,-250"/>
<text text-anchor="start" x="663.5" y="-238" font-family="Helvetica,sans-Serif" font-size="10.00">src/lib/mapEncoding</text>
<text text-anchor="middle" x="714.5" y="-227" font-family="Helvetica,sans-Serif" font-size="10.00">/encoderKvazaar.cpp</text>
</a>
</g>
</g>
<!-- Node2 -->
<g id="Node000002" class="node">
<title>Node2</title>
<g id="a_Node000002"><a xlink:href="encoderKvazaar_8hpp.html" target="_top" xlink:title=" ">
<polygon fill="white" stroke="#666666" points="388.5,-184 272.5,-184 272.5,-165 388.5,-165 388.5,-184"/>
<text text-anchor="middle" x="330.5" y="-172" font-family="Helvetica,sans-Serif" font-size="10.00">encoderKvazaar.hpp</text>
</a>
</g>
</g>
<!-- Node1&#45;&gt;Node2 -->
<g id="edge1_Node000001_Node000002" class="edge">
<title>Node1&#45;&gt;Node2</title>
<g id="a_edge1_Node000001_Node000002"><a xlink:title=" ">
<path fill="none" stroke="#63b8ff" d="M655.34,-224.99C585.42,-214.34 469.39,-196.66 396.58,-185.57"/>
<polygon fill="#63b8ff" stroke="#63b8ff" points="397.01,-182.09 386.6,-184.05 395.96,-189.01 397.01,-182.09"/>
</a>
</g>
</g>
<!-- Node3 -->
<g id="Node000003" class="node">
<title>Node3</title>
<g id="a_Node000003"><a xlink:title=" ">
<polygon fill="#e0e0e0" stroke="#999999" points="426.5,-129 362.5,-129 362.5,-110 426.5,-110 426.5,-129"/>
<text text-anchor="middle" x="394.5" y="-117" font-family="Helvetica,sans-Serif" font-size="10.00">kvazaar.h</text>
</a>
</g>
</g>
<!-- Node1&#45;&gt;Node3 -->
<g id="edge16_Node000001_Node000003" class="edge">
<title>Node1&#45;&gt;Node3</title>
<g id="a_edge16_Node000001_Node000003"><a xlink:title=" ">
<path fill="none" stroke="#63b8ff" d="M655.2,-228.38C585.66,-220.9 475.43,-206.01 440.5,-184 423.09,-173.03 410.21,-152.89 402.57,-138.22"/>
<polygon fill="#63b8ff" stroke="#63b8ff" points="405.66,-136.57 398.13,-129.12 399.37,-139.64 405.66,-136.57"/>
</a>
</g>
</g>
<!-- Node4 -->
<g id="Node000004" class="node">
<title>Node4</title>
<g id="a_Node000004"><a xlink:href="uvgvpcc_8hpp.html" target="_top" xlink:title=" ">
<polygon fill="white" stroke="#666666" points="441.5,-74 319.5,-74 319.5,-55 441.5,-55 441.5,-74"/>
<text text-anchor="middle" x="380.5" y="-62" font-family="Helvetica,sans-Serif" font-size="10.00">uvgvpcc/uvgvpcc.hpp</text>
</a>
</g>
</g>
<!-- Node1&#45;&gt;Node4 -->
<g id="edge46_Node000001_Node000004" class="edge">
<title>Node1&#45;&gt;Node4</title>
<g id="a_edge46_Node000001_Node000004"><a xlink:title=" ">
<path fill="none" stroke="#63b8ff" d="M655.47,-227.03C595.08,-218.95 506.28,-204.11 478.5,-184 447.69,-161.69 460.25,-138.88 435.5,-110 425.79,-98.67 412.9,-88.07 402.05,-80.06"/>
<polygon fill="#63b8ff" stroke="#63b8ff" points="404.05,-77.18 393.87,-74.22 399.98,-82.88 404.05,-77.18"/>
</a>
</g>
</g>
<!-- Node5 -->
<g id="Node000005" class="node">
<title>Node5</title>
<g id="a_Node000005"><a xlink:title=" ">
<polygon fill="#e0e0e0" stroke="#999999" points="53,-19 0,-19 0,0 53,0 53,-19"/>
<text text-anchor="middle" x="26.5" y="-7" font-family="Helvetica,sans-Serif" font-size="10.00">cstddef</text>
</a>
</g>
</g>
<!-- Node1&#45;&gt;Node5 -->
<g id="edge19_Node000001_Node000005" class="edge">
<title>Node1&#45;&gt;Node5</title>
<g id="a_edge19_Node000001_Node000005"><a xlink:title=" ">
<path fill="none" stroke="#63b8ff" d="M655.41,-230.77C546.58,-224.32 318.7,-208.34 243.5,-184 151.31,-154.16 70.18,-64.31 39.52,-27.01"/>
<polygon fill="#63b8ff" stroke="#63b8ff" points="42.15,-24.69 33.14,-19.11 36.7,-29.09 42.15,-24.69"/>
</a>
</g>
</g>
<!-- Node6 -->
<g id="Node000006" class="node">
<title>Node6</title>
<g id="a_Node000006"><a xlink:title=" ">
<polygon fill="#e0e0e0" stroke="#999999" points="540.5,-19 490.5,-19 490.5,0 540.5,0 540.5,-19"/>
<text text-anchor="middle" x="515.5" y="-7" font-family="Helvetica,sans-Serif" font-size="10.00">cstdint</text>
</a>
</g>
</g>
<!-- Node1&#45;&gt;Node6 -->
<g id="edge20_Node000001_Node000006" class="edge">
<title>Node1&#45;&gt;Node6</title>
<g id="a_edge20_Node000001_Node000006"><a xlink:title=" ">
<path fill="none" stroke="#63b8ff" d="M687.17,-219.95C655.3,-202.39 602.77,-169.65 569.5,-129 544.29,-98.2 528.22,-53.72 520.64,-28.95"/>
<polygon fill="#63b8ff" stroke="#63b8ff" points="523.91,-27.68 517.75,-19.07 517.2,-29.65 523.91,-27.68"/>
</a>
</g>
</g>
<!-- Node8 -->
<g id="Node000008" class="node">
<title>Node8</title>
<g id="a_Node000008"><a xlink:title=" ">
<polygon fill="#e0e0e0" stroke="#999999" points="472.5,-19 414.5,-19 414.5,0 472.5,0 472.5,-19"/>
<text text-anchor="middle" x="443.5" y="-7" font-family="Helvetica,sans-Serif" font-size="10.00">memory</text>
</a>
</g>
</g>
<!-- Node1&#45;&gt;Node8 -->
<g id="edge23_Node000001_Node000008" class="edge">
<title>Node1&#45;&gt;Node8</title>
<g id="a_edge23_Node000001_Node000008"><a xlink:title=" ">
<path fill="none" stroke="#63b8ff" d="M672.43,-219.94C650.43,-211.45 623.75,-199.31 602.5,-184 537.96,-137.49 479.62,-61.37 455.38,-27.58"/>
<polygon fill="#63b8ff" stroke="#63b8ff" points="458.11,-25.37 449.47,-19.23 452.4,-29.42 458.11,-25.37"/>
</a>
</g>
</g>
<!-- Node12 -->
<g id="Node000012" class="node">
<title>Node12</title>
<g id="a_Node000012"><a xlink:title=" ">
<polygon fill="#e0e0e0" stroke="#999999" points="938.5,-19 894.5,-19 894.5,0 938.5,0 938.5,-19"/>
<text text-anchor="middle" x="916.5" y="-7" font-family="Helvetica,sans-Serif" font-size="10.00">string</text>
</a>
</g>
</g>
<!-- Node1&#45;&gt;Node12 -->
<g id="edge25_Node000001_Node000012" class="edge">
<title>Node1&#45;&gt;Node12</title>
<g id="a_edge25_Node000001_Node000012"><a xlink:title=" ">
<path fill="none" stroke="#63b8ff" d="M764.32,-219.99C788.36,-211.8 816.83,-199.91 839.5,-184 890.08,-148.52 906.85,-133.21 924.5,-74 928.87,-59.34 926.23,-42.08 922.85,-29.26"/>
<polygon fill="#63b8ff" stroke="#63b8ff" points="926.09,-27.88 919.85,-19.31 919.39,-29.9 926.09,-27.88"/>
</a>
</g>
</g>
<!-- Node13 -->
<g id="Node000013" class="node">
<title>Node13</title>
<g id="a_Node000013"><a xlink:title=" ">
<polygon fill="#e0e0e0" stroke="#999999" points="876,-19 829,-19 829,0 876,0 876,-19"/>
<text text-anchor="middle" x="852.5" y="-7" font-family="Helvetica,sans-Serif" font-size="10.00">vector</text>
</a>
</g>
</g>
<!-- Node1&#45;&gt;Node13 -->
<g id="edge26_Node000001_Node000013" class="edge">
<title>Node1&#45;&gt;Node13</title>
<g id="a_edge26_Node000001_Node000013"><a xlink:title=" ">
<path fill="none" stroke="#63b8ff" d="M713.55,-219.95C712.57,-195.82 713.4,-145.67 733.5,-110 755.48,-71.01 799.08,-40.7 826.96,-24.24"/>
<polygon fill="#63b8ff" stroke="#63b8ff" points="828.83,-27.21 835.76,-19.2 825.35,-21.14 828.83,-27.21"/>
</a>
</g>
</g>
<!-- Node15 -->
<g id="Node000015" class="node">
<title>Node15</title>
<g id="a_Node000015"><a xlink:href="abstract2DMapEncoder_8hpp.html" target="_top" xlink:title=" ">
<polygon fill="white" stroke="#666666" points="306.5,-129 156.5,-129 156.5,-110 306.5,-110 306.5,-129"/>
<text text-anchor="middle" x="231.5" y="-117" font-family="Helvetica,sans-Serif" font-size="10.00">abstract2DMapEncoder.hpp</text>
</a>
</g>
</g>
<!-- Node1&#45;&gt;Node15 -->
<g id="edge27_Node000001_Node000015" class="edge">
<title>Node1&#45;&gt;Node15</title>
<g id="a_edge27_Node000001_Node000015"><a xlink:title=" ">
<path fill="none" stroke="#63b8ff" d="M655.26,-234.28C547.66,-233.68 325.53,-227.09 263.5,-184 248.47,-173.56 240.12,-153.92 235.75,-139.24"/>
<polygon fill="#63b8ff" stroke="#63b8ff" points="239.05,-138 233.14,-129.21 232.27,-139.77 239.05,-138"/>
</a>
</g>
</g>
<!-- Node16 -->
<g id="Node000016" class="node">
<title>Node16</title>
<g id="a_Node000016"><a xlink:title=" ">
<polygon fill="#e0e0e0" stroke="#999999" points="1006.5,-184 954.5,-184 954.5,-165 1006.5,-165 1006.5,-184"/>
<text text-anchor="middle" x="980.5" y="-172" font-family="Helvetica,sans-Serif" font-size="10.00">cassert</text>
</a>
</g>
</g>
<!-- Node1&#45;&gt;Node16 -->
<g id="edge17_Node000001_Node000016" class="edge">
<title>Node1&#45;&gt;Node16</title>
<g id="a_edge17_Node000001_Node000016"><a xlink:title=" ">
<path fill="none" stroke="#63b8ff" d="M773.53,-221.02C825.82,-209.52 900.47,-193.1 944.36,-183.45"/>
<polygon fill="#63b8ff" stroke="#63b8ff" points="945.29,-186.83 954.3,-181.26 943.78,-179.99 945.29,-186.83"/>
</a>
</g>
</g>
<!-- Node17 -->
<g id="Node000017" class="node">
<title>Node17</title>
<g id="a_Node000017"><a xlink:title=" ">
<polygon fill="#e0e0e0" stroke="#999999" points="1065,-129 1012,-129 1012,-110 1065,-110 1065,-129"/>
<text text-anchor="middle" x="1038.5" y="-117" font-family="Helvetica,sans-Serif" font-size="10.00">cstdarg</text>
</a>
</g>
</g>
<!-- Node1&#45;&gt;Node17 -->
<g id="edge18_Node000001_Node000017" class="edge">
<title>Node1&#45;&gt;Node17</title>
<g id="a_edge18_Node000001_Node000017"><a xlink:title=" ">
<path fill="none" stroke="#63b8ff" d="M773.81,-231.14C850.83,-226.27 979.66,-213.81 1015.5,-184 1028.73,-172.99 1034.35,-153.74 1036.74,-139.31"/>
<polygon fill="#63b8ff" stroke="#63b8ff" points="1040.26,-139.38 1038.04,-129.02 1033.31,-138.5 1040.26,-139.38"/>
</a>
</g>
</g>
<!-- Node18 -->
<g id="Node000018" class="node">
<title>Node18</title>
<g id="a_Node000018"><a xlink:title=" ">
<polygon fill="#e0e0e0" stroke="#999999" points="1225,-184 1176,-184 1176,-165 1225,-165 1225,-184"/>
<text text-anchor="middle" x="1200.5" y="-172" font-family="Helvetica,sans-Serif" font-size="10.00">cstdlib</text>
</a>
</g>
</g>
<!-- Node1&#45;&gt;Node18 -->
<g id="edge21_Node000001_Node000018" class="edge">
<title>Node1&#45;&gt;Node18</title>
<g id="a_edge21_Node000001_Node000018"><a xlink:title=" ">
<path fill="none" stroke="#63b8ff" d="M773.53,-230.18C858.41,-224.08 1019.94,-210.28 1165.7,-184.11"/>
<polygon fill="#63b8ff" stroke="#63b8ff" points="1166.51,-187.52 1175.72,-182.29 1165.25,-180.63 1166.51,-187.52"/>
</a>
</g>
</g>
<!-- Node19 -->
<g id="Node000019" class="node">
<title>Node19</title>
<g id="a_Node000019"><a xlink:title=" ">
<polygon fill="#e0e0e0" stroke="#999999" points="1308,-184 1243,-184 1243,-165 1308,-165 1308,-184"/>
<text text-anchor="middle" x="1275.5" y="-172" font-family="Helvetica,sans-Serif" font-size="10.00">functional</text>
</a>
</g>
</g>
<!-- Node1&#45;&gt;Node19 -->
<g id="edge22_Node000001_Node000019" class="edge">
<title>Node1&#45;&gt;Node19</title>
<g id="a_edge22_Node000001_Node000019"><a xlink:title=" ">
<path fill="none" stroke="#63b8ff" d="M773.63,-230.41C868.54,-224.19 1060.88,-209.7 1232.89,-184.1"/>
<polygon fill="#63b8ff" stroke="#63b8ff" points="1233.52,-187.54 1242.88,-182.59 1232.47,-180.62 1233.52,-187.54"/>
</a>
</g>
</g>
<!-- Node20 -->
<g id="Node000020" class="node">
<title>Node20</title>
<g id="a_Node000020"><a xlink:title=" ">
<polygon fill="#e0e0e0" stroke="#999999" points="916,-74 851,-74 851,-55 916,-55 916,-74"/>
<text text-anchor="middle" x="883.5" y="-62" font-family="Helvetica,sans-Serif" font-size="10.00">stdexcept</text>
</a>
</g>
</g>
<!-- Node1&#45;&gt;Node20 -->
<g id="edge24_Node000001_Node000020" class="edge">
<title>Node1&#45;&gt;Node20</title>
<g id="a_edge24_Node000001_Node000020"><a xlink:title=" ">
<path fill="none" stroke="#63b8ff" d="M749.23,-219.85C785.05,-203.42 839.75,-172.84 869.5,-129 878.51,-115.72 881.83,-97.6 883,-84.12"/>
<polygon fill="#63b8ff" stroke="#63b8ff" points="886.5,-84.27 883.56,-74.09 879.51,-83.88 886.5,-84.27"/>
</a>
</g>
</g>
<!-- Node21 -->
<g id="Node000021" class="node">
<title>Node21</title>
<g id="a_Node000021"><a xlink:href="catchLibLog_8hpp.html" target="_top" xlink:title=" ">
<polygon fill="white" stroke="#666666" points="1158,-184 1063,-184 1063,-165 1158,-165 1158,-184"/>
<text text-anchor="middle" x="1110.5" y="-172" font-family="Helvetica,sans-Serif" font-size="10.00">catchLibLog.hpp</text>
</a>
</g>
</g>
<!-- Node1&#45;&gt;Node21 -->
<g id="edge28_Node000001_Node000021" class="edge">
<title>Node1&#45;&gt;Node21</title>
<g id="a_edge28_Node000001_Node000021"><a xlink:title=" ">
<path fill="none" stroke="#63b8ff" d="M773.79,-225.24C849.1,-214.12 978.24,-195.04 1052.8,-184.02"/>
<polygon fill="#63b8ff" stroke="#63b8ff" points="1053.56,-187.45 1062.94,-182.53 1052.54,-180.52 1053.56,-187.45"/>
</a>
</g>
</g>
<!-- Node23 -->
<g id="Node000023" class="node">
<title>Node23</title>
<g id="a_Node000023"><a xlink:href="fileExport_8hpp.html" target="_top" xlink:title=" ">
<polygon fill="white" stroke="#666666" points="686.5,-129 578.5,-129 578.5,-110 686.5,-110 686.5,-129"/>
<text text-anchor="middle" x="632.5" y="-117" font-family="Helvetica,sans-Serif" font-size="10.00">utils/fileExport.hpp</text>
</a>
</g>
</g>
<!-- Node1&#45;&gt;Node23 -->
<g id="edge31_Node000001_Node000023" class="edge">
<title>Node1&#45;&gt;Node23</title>
<g id="a_edge31_Node000001_Node000023"><a xlink:title=" ">
<path fill="none" stroke="#63b8ff" d="M704.11,-219.63C688.96,-198.65 660.85,-159.75 644.73,-137.42"/>
<polygon fill="#63b8ff" stroke="#63b8ff" points="647.5,-135.29 638.81,-129.23 641.83,-139.38 647.5,-135.29"/>
</a>
</g>
</g>
<!-- Node28 -->
<g id="Node000028" class="node">
<title>Node28</title>
<g id="a_Node000028"><a xlink:href="parameters_8hpp.html" target="_top" xlink:title=" ">
<polygon fill="white" stroke="#666666" points="860.5,-129 742.5,-129 742.5,-110 860.5,-110 860.5,-129"/>
<text text-anchor="middle" x="801.5" y="-117" font-family="Helvetica,sans-Serif" font-size="10.00">utils/parameters.hpp</text>
</a>
</g>
</g>
<!-- Node1&#45;&gt;Node28 -->
<g id="edge41_Node000001_Node000028" class="edge">
<title>Node1&#45;&gt;Node28</title>
<g id="a_edge41_Node000001_Node000028"><a xlink:title=" ">
<path fill="none" stroke="#63b8ff" d="M725.52,-219.63C741.59,-198.65 771.42,-159.75 788.53,-137.42"/>
<polygon fill="#63b8ff" stroke="#63b8ff" points="791.5,-139.3 794.81,-129.23 785.95,-135.04 791.5,-139.3"/>
</a>
</g>
</g>
<!-- Node2&#45;&gt;Node3 -->
<g id="edge2_Node000002_Node000003" class="edge">
<title>Node2&#45;&gt;Node3</title>
<g id="a_edge2_Node000002_Node000003"><a xlink:title=" ">
<path fill="none" stroke="#63b8ff" d="M340.78,-164.98C350.34,-157.07 364.78,-145.11 376.28,-135.58"/>
<polygon fill="#63b8ff" stroke="#63b8ff" points="378.56,-138.24 384.03,-129.17 374.1,-132.85 378.56,-138.24"/>
</a>
</g>
</g>
<!-- Node2&#45;&gt;Node4 -->
<g id="edge3_Node000002_Node000004" class="edge">
<title>Node2&#45;&gt;Node4</title>
<g id="a_edge3_Node000002_Node000004"><a xlink:title=" ">
<path fill="none" stroke="#63b8ff" d="M333.09,-164.65C336.89,-152.17 344.49,-128.83 353.5,-110 357.99,-100.63 363.89,-90.69 369.03,-82.6"/>
<polygon fill="#63b8ff" stroke="#63b8ff" points="372.06,-84.37 374.59,-74.08 366.2,-80.54 372.06,-84.37"/>
</a>
</g>
</g>
<!-- Node2&#45;&gt;Node15 -->
<g id="edge14_Node000002_Node000015" class="edge">
<title>Node2&#45;&gt;Node15</title>
<g id="a_edge14_Node000002_Node000015"><a xlink:title=" ">
<path fill="none" stroke="#63b8ff" d="M314.59,-164.98C298.95,-156.61 274.84,-143.7 256.62,-133.95"/>
<polygon fill="#63b8ff" stroke="#63b8ff" points="258.16,-130.8 247.7,-129.17 254.86,-136.98 258.16,-130.8"/>
</a>
</g>
</g>
<!-- Node4&#45;&gt;Node5 -->
<g id="edge4_Node000004_Node000005" class="edge">
<title>Node4&#45;&gt;Node5</title>
<g id="a_edge4_Node000004_Node000005"><a xlink:title=" ">
<path fill="none" stroke="#63b8ff" d="M319.35,-56.8C257.12,-49.58 157.7,-36.9 63.21,-19.17"/>
<polygon fill="#63b8ff" stroke="#63b8ff" points="63.67,-15.7 53.19,-17.27 62.37,-22.58 63.67,-15.7"/>
</a>
</g>
</g>
<!-- Node4&#45;&gt;Node6 -->
<g id="edge5_Node000004_Node000006" class="edge">
<title>Node4&#45;&gt;Node6</title>
<g id="a_edge5_Node000004_Node000006"><a xlink:title=" ">
<path fill="none" stroke="#63b8ff" d="M402.19,-54.98C424.3,-46.3 458.82,-32.75 483.95,-22.88"/>
<polygon fill="#63b8ff" stroke="#63b8ff" points="485.39,-26.08 493.42,-19.17 482.83,-19.57 485.39,-26.08"/>
</a>
</g>
</g>
<!-- Node7 -->
<g id="Node000007" class="node">
<title>Node7</title>
<g id="a_Node000007"><a xlink:title=" ">
<polygon fill="#e0e0e0" stroke="#999999" points="330.5,-19 270.5,-19 270.5,0 330.5,0 330.5,-19"/>
<text text-anchor="middle" x="300.5" y="-7" font-family="Helvetica,sans-Serif" font-size="10.00">iostream</text>
</a>
</g>
</g>
<!-- Node4&#45;&gt;Node7 -->
<g id="edge6_Node000004_Node000007" class="edge">
<title>Node4&#45;&gt;Node7</title>
<g id="a_edge6_Node000004_Node000007"><a xlink:title=" ">
<path fill="none" stroke="#63b8ff" d="M367.65,-54.98C355.36,-46.84 336.59,-34.41 322.02,-24.76"/>
<polygon fill="#63b8ff" stroke="#63b8ff" points="323.86,-21.78 313.59,-19.17 319.99,-27.61 323.86,-21.78"/>
</a>
</g>
</g>
<!-- Node4&#45;&gt;Node8 -->
<g id="edge7_Node000004_Node000008" class="edge">
<title>Node4&#45;&gt;Node8</title>
<g id="a_edge7_Node000004_Node000008"><a xlink:title=" ">
<path fill="none" stroke="#63b8ff" d="M390.62,-54.98C399.94,-47.15 413.97,-35.34 425.24,-25.86"/>
<polygon fill="#63b8ff" stroke="#63b8ff" points="427.79,-28.29 433.19,-19.17 423.29,-22.93 427.79,-28.29"/>
</a>
</g>
</g>
<!-- Node9 -->
<g id="Node000009" class="node">
<title>Node9</title>
<g id="a_Node000009"><a xlink:title=" ">
<polygon fill="#e0e0e0" stroke="#999999" points="396,-19 349,-19 349,0 396,0 396,-19"/>
<text text-anchor="middle" x="372.5" y="-7" font-family="Helvetica,sans-Serif" font-size="10.00">queue</text>
</a>
</g>
</g>
<!-- Node4&#45;&gt;Node9 -->
<g id="edge8_Node000004_Node000009" class="edge">
<title>Node4&#45;&gt;Node9</title>
<g id="a_edge8_Node000004_Node000009"><a xlink:title=" ">
<path fill="none" stroke="#63b8ff" d="M379.18,-54.75C378.13,-47.8 376.63,-37.85 375.31,-29.13"/>
<polygon fill="#63b8ff" stroke="#63b8ff" points="378.75,-28.45 373.8,-19.09 371.83,-29.5 378.75,-28.45"/>
</a>
</g>
</g>
<!-- Node10 -->
<g id="Node000010" class="node">
<title>Node10</title>
<g id="a_Node000010"><a xlink:title=" ">
<polygon fill="#e0e0e0" stroke="#999999" points="142,-19 71,-19 71,0 142,0 142,-19"/>
<text text-anchor="middle" x="106.5" y="-7" font-family="Helvetica,sans-Serif" font-size="10.00">semaphore</text>
</a>
</g>
</g>
<!-- Node4&#45;&gt;Node10 -->
<g id="edge9_Node000004_Node000010" class="edge">
<title>Node4&#45;&gt;Node10</title>
<g id="a_edge9_Node000004_Node000010"><a xlink:title=" ">
<path fill="none" stroke="#63b8ff" d="M336.48,-54.98C285.95,-45.21 203.48,-29.26 152.25,-19.35"/>
<polygon fill="#63b8ff" stroke="#63b8ff" points="152.6,-15.85 142.12,-17.39 151.27,-22.73 152.6,-15.85"/>
</a>
</g>
</g>
<!-- Node11 -->
<g id="Node000011" class="node">
<title>Node11</title>
<g id="a_Node000011"><a xlink:title=" ">
<polygon fill="#e0e0e0" stroke="#999999" points="614.5,-19 558.5,-19 558.5,0 614.5,0 614.5,-19"/>
<text text-anchor="middle" x="586.5" y="-7" font-family="Helvetica,sans-Serif" font-size="10.00">sstream</text>
</a>
</g>
</g>
<!-- Node4&#45;&gt;Node11 -->
<g id="edge10_Node000004_Node000011" class="edge">
<title>Node4&#45;&gt;Node11</title>
<g id="a_edge10_Node000004_Node000011"><a xlink:title=" ">
<path fill="none" stroke="#63b8ff" d="M413.6,-54.98C450.45,-45.5 509.91,-30.2 548.6,-20.25"/>
<polygon fill="#63b8ff" stroke="#63b8ff" points="549.64,-23.6 558.45,-17.72 547.89,-16.82 549.64,-23.6"/>
</a>
</g>
</g>
<!-- Node4&#45;&gt;Node12 -->
<g id="edge11_Node000004_Node000012" class="edge">
<title>Node4&#45;&gt;Node12</title>
<g id="a_edge11_Node000004_Node000012"><a xlink:title=" ">
<path fill="none" stroke="#63b8ff" d="M441.84,-61.48C535.32,-57.64 719.04,-47.19 884.37,-18.66"/>
<polygon fill="#63b8ff" stroke="#63b8ff" points="884.98,-22.11 894.23,-16.94 883.78,-15.22 884.98,-22.11"/>
</a>
</g>
</g>
<!-- Node4&#45;&gt;Node13 -->
<g id="edge12_Node000004_Node000013" class="edge">
<title>Node4&#45;&gt;Node13</title>
<g id="a_edge12_Node000004_Node000013"><a xlink:title=" ">
<path fill="none" stroke="#63b8ff" d="M441.62,-60.23C524.81,-55.13 678.41,-43.42 818.72,-18.85"/>
<polygon fill="#63b8ff" stroke="#63b8ff" points="819.57,-22.26 828.8,-17.06 818.34,-15.36 819.57,-22.26"/>
</a>
</g>
</g>
<!-- Node14 -->
<g id="Node000014" class="node">
<title>Node14</title>
<g id="a_Node000014"><a xlink:title=" ">
<polygon fill="#e0e0e0" stroke="#999999" points="252.5,-19 160.5,-19 160.5,0 252.5,0 252.5,-19"/>
<text text-anchor="middle" x="206.5" y="-7" font-family="Helvetica,sans-Serif" font-size="10.00">../utils/utils.hpp</text>
</a>
</g>
</g>
<!-- Node4&#45;&gt;Node14 -->
<g id="edge13_Node000004_Node000014" class="edge">
<title>Node4&#45;&gt;Node14</title>
<g id="a_edge13_Node000004_Node000014"><a xlink:title=" ">
<path fill="none" stroke="#63b8ff" d="M352.54,-54.98C323.2,-46.05 276.9,-31.94 244.31,-22.02"/>
<polygon fill="#63b8ff" stroke="#63b8ff" points="245.26,-18.65 234.68,-19.08 243.22,-25.34 245.26,-18.65"/>
</a>
</g>
</g>
<!-- Node15&#45;&gt;Node4 -->
<g id="edge15_Node000015_Node000004" class="edge">
<title>Node15&#45;&gt;Node4</title>
<g id="a_edge15_Node000015_Node000004"><a xlink:title=" ">
<path fill="none" stroke="#63b8ff" d="M255.44,-109.98C280.06,-101.23 318.62,-87.51 346.42,-77.62"/>
<polygon fill="#63b8ff" stroke="#63b8ff" points="347.88,-80.82 356.12,-74.17 345.53,-74.22 347.88,-80.82"/>
</a>
</g>
</g>
<!-- Node21&#45;&gt;Node17 -->
<g id="edge29_Node000021_Node000017" class="edge">
<title>Node21&#45;&gt;Node17</title>
<g id="a_edge29_Node000021_Node000017"><a xlink:title=" ">
<path fill="none" stroke="#63b8ff" d="M1098.93,-164.98C1088.08,-157 1071.62,-144.88 1058.62,-135.31"/>
<polygon fill="#63b8ff" stroke="#63b8ff" points="1060.41,-132.28 1050.28,-129.17 1056.26,-137.92 1060.41,-132.28"/>
</a>
</g>
</g>
<!-- Node22 -->
<g id="Node000022" class="node">
<title>Node22</title>
<g id="a_Node000022"><a xlink:title=" ">
<polygon fill="#e0e0e0" stroke="#999999" points="1133.5,-129 1087.5,-129 1087.5,-110 1133.5,-110 1133.5,-129"/>
<text text-anchor="middle" x="1110.5" y="-117" font-family="Helvetica,sans-Serif" font-size="10.00">cstdio</text>
</a>
</g>
</g>
<!-- Node21&#45;&gt;Node22 -->
<g id="edge30_Node000021_Node000022" class="edge">
<title>Node21&#45;&gt;Node22</title>
<g id="a_edge30_Node000021_Node000022"><a xlink:title=" ">
<path fill="none" stroke="#63b8ff" d="M1110.5,-164.75C1110.5,-157.8 1110.5,-147.85 1110.5,-139.13"/>
<polygon fill="#63b8ff" stroke="#63b8ff" points="1114,-139.09 1110.5,-129.09 1107,-139.09 1114,-139.09"/>
</a>
</g>
</g>
<!-- Node23&#45;&gt;Node4 -->
<g id="edge34_Node000023_Node000004" class="edge">
<title>Node23&#45;&gt;Node4</title>
<g id="a_edge34_Node000023_Node000004"><a xlink:title=" ">
<path fill="none" stroke="#63b8ff" d="M592.01,-109.98C548.33,-100.8 478.69,-86.15 431.35,-76.19"/>
<polygon fill="#63b8ff" stroke="#63b8ff" points="431.81,-72.72 421.31,-74.08 430.37,-79.57 431.81,-72.72"/>
</a>
</g>
</g>
<!-- Node23&#45;&gt;Node8 -->
<g id="edge32_Node000023_Node000008" class="edge">
<title>Node23&#45;&gt;Node8</title>
<g id="a_edge32_Node000023_Node000008"><a xlink:title=" ">
<path fill="none" stroke="#63b8ff" d="M617.35,-109.84C584.51,-91.08 506.54,-46.52 467.14,-24.01"/>
<polygon fill="#63b8ff" stroke="#63b8ff" points="468.88,-20.97 458.46,-19.05 465.4,-27.05 468.88,-20.97"/>
</a>
</g>
</g>
<!-- Node23&#45;&gt;Node13 -->
<g id="edge33_Node000023_Node000013" class="edge">
<title>Node23&#45;&gt;Node13</title>
<g id="a_edge33_Node000023_Node000013"><a xlink:title=" ">
<path fill="none" stroke="#63b8ff" d="M644.33,-109.82C662.57,-96.71 698.97,-71.63 732.5,-55 760.84,-40.94 794.78,-28.76 819.32,-20.71"/>
<polygon fill="#63b8ff" stroke="#63b8ff" points="820.44,-24.02 828.89,-17.62 818.3,-17.36 820.44,-24.02"/>
</a>
</g>
</g>
<!-- Node24 -->
<g id="Node000024" class="node">
<title>Node24</title>
<g id="a_Node000024"><a xlink:href="utils_8hpp.html" target="_top" xlink:title=" ">
<polygon fill="white" stroke="#666666" points="680,-74 597,-74 597,-55 680,-55 680,-74"/>
<text text-anchor="middle" x="638.5" y="-62" font-family="Helvetica,sans-Serif" font-size="10.00">utils/utils.hpp</text>
</a>
</g>
</g>
<!-- Node23&#45;&gt;Node24 -->
<g id="edge35_Node000023_Node000024" class="edge">
<title>Node23&#45;&gt;Node24</title>
<g id="a_edge35_Node000023_Node000024"><a xlink:title=" ">
<path fill="none" stroke="#63b8ff" d="M633.49,-109.75C634.28,-102.8 635.4,-92.85 636.39,-84.13"/>
<polygon fill="#63b8ff" stroke="#63b8ff" points="639.88,-84.42 637.53,-74.09 632.92,-83.63 639.88,-84.42"/>
</a>
</g>
</g>
<!-- Node24&#45;&gt;Node6 -->
<g id="edge37_Node000024_Node000006" class="edge">
<title>Node24&#45;&gt;Node6</title>
<g id="a_edge37_Node000024_Node000006"><a xlink:title=" ">
<path fill="none" stroke="#63b8ff" d="M618.74,-54.98C598.77,-46.38 567.7,-32.99 544.85,-23.15"/>
<polygon fill="#63b8ff" stroke="#63b8ff" points="546.19,-19.91 535.62,-19.17 543.42,-26.34 546.19,-19.91"/>
</a>
</g>
</g>
<!-- Node24&#45;&gt;Node11 -->
<g id="edge39_Node000024_Node000011" class="edge">
<title>Node24&#45;&gt;Node11</title>
<g id="a_edge39_Node000024_Node000011"><a xlink:title=" ">
<path fill="none" stroke="#63b8ff" d="M629.91,-54.75C622.34,-47.03 611.12,-35.6 601.99,-26.28"/>
<polygon fill="#63b8ff" stroke="#63b8ff" points="604.43,-23.78 594.93,-19.09 599.43,-28.68 604.43,-23.78"/>
</a>
</g>
</g>
<!-- Node25 -->
<g id="Node000025" class="node">
<title>Node25</title>
<g id="a_Node000025"><a xlink:title=" ">
<polygon fill="#e0e0e0" stroke="#999999" points="674.5,-19 632.5,-19 632.5,0 674.5,0 674.5,-19"/>
<text text-anchor="middle" x="653.5" y="-7" font-family="Helvetica,sans-Serif" font-size="10.00">array</text>
</a>
</g>
</g>
<!-- Node24&#45;&gt;Node25 -->
<g id="edge36_Node000024_Node000025" class="edge">
<title>Node24&#45;&gt;Node25</title>
<g id="a_edge36_Node000024_Node000025"><a xlink:title=" ">
<path fill="none" stroke="#63b8ff" d="M640.98,-54.75C642.96,-47.72 645.82,-37.62 648.31,-28.84"/>
<polygon fill="#63b8ff" stroke="#63b8ff" points="651.71,-29.66 651.07,-19.09 644.98,-27.76 651.71,-29.66"/>
</a>
</g>
</g>
<!-- Node26 -->
<g id="Node000026" class="node">
<title>Node26</title>
<g id="a_Node000026"><a xlink:title=" ">
<polygon fill="#e0e0e0" stroke="#999999" points="736.5,-19 692.5,-19 692.5,0 736.5,0 736.5,-19"/>
<text text-anchor="middle" x="714.5" y="-7" font-family="Helvetica,sans-Serif" font-size="10.00">limits</text>
</a>
</g>
</g>
<!-- Node24&#45;&gt;Node26 -->
<g id="edge38_Node000024_Node000026" class="edge">
<title>Node24&#45;&gt;Node26</title>
<g id="a_edge38_Node000024_Node000026"><a xlink:title=" ">
<path fill="none" stroke="#63b8ff" d="M650.71,-54.98C662.28,-46.92 679.88,-34.65 693.66,-25.03"/>
<polygon fill="#63b8ff" stroke="#63b8ff" points="695.87,-27.76 702.07,-19.17 691.86,-22.02 695.87,-27.76"/>
</a>
</g>
</g>
<!-- Node27 -->
<g id="Node000027" class="node">
<title>Node27</title>
<g id="a_Node000027"><a xlink:title=" ">
<polygon fill="#e0e0e0" stroke="#999999" points="810.5,-19 754.5,-19 754.5,0 810.5,0 810.5,-19"/>
<text text-anchor="middle" x="782.5" y="-7" font-family="Helvetica,sans-Serif" font-size="10.00">iomanip</text>
</a>
</g>
</g>
<!-- Node24&#45;&gt;Node27 -->
<g id="edge40_Node000024_Node000027" class="edge">
<title>Node24&#45;&gt;Node27</title>
<g id="a_edge40_Node000024_Node000027"><a xlink:title=" ">
<path fill="none" stroke="#63b8ff" d="M661.64,-54.98C685.32,-46.27 722.37,-32.63 749.21,-22.75"/>
<polygon fill="#63b8ff" stroke="#63b8ff" points="750.77,-25.91 758.94,-19.17 748.35,-19.34 750.77,-25.91"/>
</a>
</g>
</g>
<!-- Node28&#45;&gt;Node12 -->
<g id="edge43_Node000028_Node000012" class="edge">
<title>Node28&#45;&gt;Node12</title>
<g id="a_edge43_Node000028_Node000012"><a xlink:title=" ">
<path fill="none" stroke="#63b8ff" d="M805.34,-109.8C811.46,-96.66 824.51,-71.54 841.5,-55 854.76,-42.09 872.45,-31.36 887.33,-23.68"/>
<polygon fill="#63b8ff" stroke="#63b8ff" points="889.21,-26.65 896.62,-19.08 886.1,-20.38 889.21,-26.65"/>
</a>
</g>
</g>
<!-- Node28&#45;&gt;Node13 -->
<g id="edge44_Node000028_Node000013" class="edge">
<title>Node28&#45;&gt;Node13</title>
<g id="a_edge44_Node000028_Node000013"><a xlink:title=" ">
<path fill="none" stroke="#63b8ff" d="M800.71,-109.8C799.94,-97.09 799.91,-73.02 808.5,-55 813.94,-43.59 823.53,-33.35 832.37,-25.59"/>
<polygon fill="#63b8ff" stroke="#63b8ff" points="834.64,-28.25 840.13,-19.18 830.19,-22.84 834.64,-28.25"/>
</a>
</g>
</g>
<!-- Node28&#45;&gt;Node20 -->
<g id="edge42_Node000028_Node000020" class="edge">
<title>Node28&#45;&gt;Node20</title>
<g id="a_edge42_Node000028_Node000020"><a xlink:title=" ">
<path fill="none" stroke="#63b8ff" d="M814.67,-109.98C827.27,-101.84 846.5,-89.41 861.44,-79.76"/>
<polygon fill="#63b8ff" stroke="#63b8ff" points="863.59,-82.54 870.09,-74.17 859.79,-76.66 863.59,-82.54"/>
</a>
</g>
</g>
<!-- Node28&#45;&gt;Node24 -->
<g id="edge45_Node000028_Node000024" class="edge">
<title>Node28&#45;&gt;Node24</title>
<g id="a_edge45_Node000028_Node000024"><a xlink:title=" ">
<path fill="none" stroke="#63b8ff" d="M775.31,-109.98C748.06,-101.13 705.2,-87.19 674.72,-77.28"/>
<polygon fill="#63b8ff" stroke="#63b8ff" points="675.49,-73.85 664.89,-74.08 673.32,-80.5 675.49,-73.85"/>
</a>
</g>
</g>
</g>
</svg>
