<?xml version="1.0" encoding="UTF-8" standalone="no"?>
<!DOCTYPE svg PUBLIC "-//W3C//DTD SVG 1.1//EN"
 "http://www.w3.org/Graphics/SVG/1.1/DTD/svg11.dtd">
<!-- Generated by graphviz version 2.43.0 (0)
 -->
<!-- Title: src/libuvgvpccenc/mapEncoding/encoderKvazaar.hpp Pages: 1 -->
<svg width="1159pt" height="313pt"
 viewBox="0.00 0.00 1159.00 313.00" xmlns="http://www.w3.org/2000/svg" xmlns:xlink="http://www.w3.org/1999/xlink">
<g id="graph0" class="graph" transform="scale(1 1) rotate(0) translate(4 309)">
<title>src/libuvgvpccenc/mapEncoding/encoderKvazaar.hpp</title>
<!-- Node1 -->
<g id="Node000001" class="node">
<title>Node1</title>
<g id="a_Node000001"><a xlink:title=" ">
<polygon fill="#999999" stroke="#666666" points="556.5,-305 383.5,-305 383.5,-275 556.5,-275 556.5,-305"/>
<text text-anchor="start" x="391.5" y="-293" font-family="Helvetica,sans-Serif" font-size="10.00">src/libuvgvpccenc/mapEncoding</text>
<text text-anchor="middle" x="470" y="-282" font-family="Helvetica,sans-Serif" font-size="10.00">/encoderKvazaar.hpp</text>
</a>
</g>
</g>
<!-- Node2 -->
<g id="Node000002" class="node">
<title>Node2</title>
<g id="a_Node000002"><a xlink:title=" ">
<polygon fill="#e0e0e0" stroke="#999999" points="377,-239 313,-239 313,-220 377,-220 377,-239"/>
<text text-anchor="middle" x="345" y="-227" font-family="Helvetica,sans-Serif" font-size="10.00">kvazaar.h</text>
</a>
</g>
</g>
<!-- Node1&#45;&gt;Node2 -->
<g id="edge1_Node000001_Node000002" class="edge">
<title>Node1&#45;&gt;Node2</title>
<g id="a_edge1_Node000001_Node000002"><a xlink:title=" ">
<path fill="none" stroke="#63b8ff" d="M440.06,-274.99C419.58,-265.4 392.62,-252.79 372.65,-243.44"/>
<polygon fill="#63b8ff" stroke="#63b8ff" points="374,-240.21 363.46,-239.14 371.03,-246.55 374,-240.21"/>
</a>
</g>
</g>
<!-- Node3 -->
<g id="Node000003" class="node">
<title>Node3</title>
<g id="a_Node000003"><a xlink:href="uvgvpcc_8hpp.html" target="_top" xlink:title=" ">
<polygon fill="white" stroke="#666666" points="582,-184 460,-184 460,-165 582,-165 582,-184"/>
<text text-anchor="middle" x="521" y="-172" font-family="Helvetica,sans-Serif" font-size="10.00">uvgvpcc/uvgvpcc.hpp</text>
</a>
</g>
</g>
<!-- Node1&#45;&gt;Node3 -->
<g id="edge2_Node000001_Node000003" class="edge">
<title>Node1&#45;&gt;Node3</title>
<g id="a_edge2_Node000001_Node000003"><a xlink:title=" ">
<path fill="none" stroke="#63b8ff" d="M511.36,-274.81C527.66,-266.95 544.69,-255.38 554,-239 563.05,-223.08 550.74,-204.44 538.66,-191.49"/>
<polygon fill="#63b8ff" stroke="#63b8ff" points="540.93,-188.81 531.37,-184.24 535.99,-193.77 540.93,-188.81"/>
</a>
</g>
</g>
<!-- Node24 -->
<g id="Node000024" class="node">
<title>Node24</title>
<g id="a_Node000024"><a xlink:href="abstract2DMapEncoder_8hpp.html" target="_top" xlink:title=" ">
<polygon fill="white" stroke="#666666" points="545,-239 395,-239 395,-220 545,-220 545,-239"/>
<text text-anchor="middle" x="470" y="-227" font-family="Helvetica,sans-Serif" font-size="10.00">abstract2DMapEncoder.hpp</text>
</a>
</g>
</g>
<!-- Node1&#45;&gt;Node24 -->
<g id="edge30_Node000001_Node000024" class="edge">
<title>Node1&#45;&gt;Node24</title>
<g id="a_edge30_Node000001_Node000024"><a xlink:title=" ">
<path fill="none" stroke="#63b8ff" d="M470,-274.84C470,-267.21 470,-257.7 470,-249.45"/>
<polygon fill="#63b8ff" stroke="#63b8ff" points="473.5,-249.27 470,-239.27 466.5,-249.27 473.5,-249.27"/>
</a>
</g>
</g>
<!-- Node4 -->
<g id="Node000004" class="node">
<title>Node4</title>
<g id="a_Node000004"><a xlink:title=" ">
<polygon fill="#e0e0e0" stroke="#999999" points="42,-74 0,-74 0,-55 42,-55 42,-74"/>
<text text-anchor="middle" x="21" y="-62" font-family="Helvetica,sans-Serif" font-size="10.00">array</text>
</a>
</g>
</g>
<!-- Node3&#45;&gt;Node4 -->
<g id="edge3_Node000003_Node000004" class="edge">
<title>Node3&#45;&gt;Node4</title>
<g id="a_edge3_Node000003_Node000004"><a xlink:title=" ">
<path fill="none" stroke="#63b8ff" d="M459.94,-173.77C382.52,-172.47 245.76,-164.66 135,-129 99.71,-117.64 62.96,-94.86 41.04,-79.9"/>
<polygon fill="#63b8ff" stroke="#63b8ff" points="42.8,-76.86 32.59,-74.02 38.8,-82.61 42.8,-76.86"/>
</a>
</g>
</g>
<!-- Node5 -->
<g id="Node000005" class="node">
<title>Node5</title>
<g id="a_Node000005"><a xlink:title=" ">
<polygon fill="#e0e0e0" stroke="#999999" points="574,-129 522,-129 522,-110 574,-110 574,-129"/>
<text text-anchor="middle" x="548" y="-117" font-family="Helvetica,sans-Serif" font-size="10.00">cassert</text>
</a>
</g>
</g>
<!-- Node3&#45;&gt;Node5 -->
<g id="edge4_Node000003_Node000005" class="edge">
<title>Node3&#45;&gt;Node5</title>
<g id="a_edge4_Node000003_Node000005"><a xlink:title=" ">
<path fill="none" stroke="#63b8ff" d="M525.46,-164.75C529.12,-157.57 534.41,-147.18 538.95,-138.27"/>
<polygon fill="#63b8ff" stroke="#63b8ff" points="542.2,-139.59 543.62,-129.09 535.97,-136.41 542.2,-139.59"/>
</a>
</g>
</g>
<!-- Node6 -->
<g id="Node000006" class="node">
<title>Node6</title>
<g id="a_Node000006"><a xlink:title=" ">
<polygon fill="#e0e0e0" stroke="#999999" points="113.5,-74 60.5,-74 60.5,-55 113.5,-55 113.5,-74"/>
<text text-anchor="middle" x="87" y="-62" font-family="Helvetica,sans-Serif" font-size="10.00">cstddef</text>
</a>
</g>
</g>
<!-- Node3&#45;&gt;Node6 -->
<g id="edge5_Node000003_Node000006" class="edge">
<title>Node3&#45;&gt;Node6</title>
<g id="a_edge5_Node000003_Node000006"><a xlink:title=" ">
<path fill="none" stroke="#63b8ff" d="M459.91,-169.54C373.92,-163.31 221.98,-149.77 171,-129 144.18,-118.07 118.4,-96.36 102.63,-81.39"/>
<polygon fill="#63b8ff" stroke="#63b8ff" points="104.94,-78.76 95.34,-74.27 100.05,-83.76 104.94,-78.76"/>
</a>
</g>
</g>
<!-- Node7 -->
<g id="Node000007" class="node">
<title>Node7</title>
<g id="a_Node000007"><a xlink:title=" ">
<polygon fill="#e0e0e0" stroke="#999999" points="182,-74 132,-74 132,-55 182,-55 182,-74"/>
<text text-anchor="middle" x="157" y="-62" font-family="Helvetica,sans-Serif" font-size="10.00">cstdint</text>
</a>
</g>
</g>
<!-- Node3&#45;&gt;Node7 -->
<g id="edge6_Node000003_Node000007" class="edge">
<title>Node3&#45;&gt;Node7</title>
<g id="a_edge6_Node000003_Node000007"><a xlink:title=" ">
<path fill="none" stroke="#63b8ff" d="M459.89,-171.81C376.7,-168.42 233.33,-158.37 191,-129 175.77,-118.43 166.78,-98.82 161.91,-84.17"/>
<polygon fill="#63b8ff" stroke="#63b8ff" points="165.14,-82.77 158.95,-74.17 158.43,-84.75 165.14,-82.77"/>
</a>
</g>
</g>
<!-- Node8 -->
<g id="Node000008" class="node">
<title>Node8</title>
<g id="a_Node000008"><a xlink:title=" ">
<polygon fill="#e0e0e0" stroke="#999999" points="454,-19 394,-19 394,0 454,0 454,-19"/>
<text text-anchor="middle" x="424" y="-7" font-family="Helvetica,sans-Serif" font-size="10.00">iostream</text>
</a>
</g>
</g>
<!-- Node3&#45;&gt;Node8 -->
<g id="edge7_Node000003_Node000008" class="edge">
<title>Node3&#45;&gt;Node8</title>
<g id="a_edge7_Node000003_Node000008"><a xlink:title=" ">
<path fill="none" stroke="#63b8ff" d="M515.78,-164.74C500.46,-138.98 455.32,-63.13 434.61,-28.33"/>
<polygon fill="#63b8ff" stroke="#63b8ff" points="437.36,-26.11 429.24,-19.31 431.35,-29.69 437.36,-26.11"/>
</a>
</g>
</g>
<!-- Node9 -->
<g id="Node000009" class="node">
<title>Node9</title>
<g id="a_Node000009"><a xlink:title=" ">
<polygon fill="#e0e0e0" stroke="#999999" points="650,-129 592,-129 592,-110 650,-110 650,-129"/>
<text text-anchor="middle" x="621" y="-117" font-family="Helvetica,sans-Serif" font-size="10.00">memory</text>
</a>
</g>
</g>
<!-- Node3&#45;&gt;Node9 -->
<g id="edge8_Node000003_Node000009" class="edge">
<title>Node3&#45;&gt;Node9</title>
<g id="a_edge8_Node000003_Node000009"><a xlink:title=" ">
<path fill="none" stroke="#63b8ff" d="M537.07,-164.98C552.86,-156.61 577.22,-143.7 595.63,-133.95"/>
<polygon fill="#63b8ff" stroke="#63b8ff" points="597.44,-136.95 604.64,-129.17 594.17,-130.76 597.44,-136.95"/>
</a>
</g>
</g>
<!-- Node10 -->
<g id="Node000010" class="node">
<title>Node10</title>
<g id="a_Node000010"><a xlink:title=" ">
<polygon fill="#e0e0e0" stroke="#999999" points="715.5,-129 668.5,-129 668.5,-110 715.5,-110 715.5,-129"/>
<text text-anchor="middle" x="692" y="-117" font-family="Helvetica,sans-Serif" font-size="10.00">queue</text>
</a>
</g>
</g>
<!-- Node3&#45;&gt;Node10 -->
<g id="edge9_Node000003_Node000010" class="edge">
<title>Node3&#45;&gt;Node10</title>
<g id="a_edge9_Node000003_Node000010"><a xlink:title=" ">
<path fill="none" stroke="#63b8ff" d="M548.47,-164.98C578.46,-155.69 626.48,-140.81 658.61,-130.85"/>
<polygon fill="#63b8ff" stroke="#63b8ff" points="659.93,-134.1 668.45,-127.8 657.86,-127.42 659.93,-134.1"/>
</a>
</g>
</g>
<!-- Node11 -->
<g id="Node000011" class="node">
<title>Node11</title>
<g id="a_Node000011"><a xlink:title=" ">
<polygon fill="#e0e0e0" stroke="#999999" points="804.5,-129 733.5,-129 733.5,-110 804.5,-110 804.5,-129"/>
<text text-anchor="middle" x="769" y="-117" font-family="Helvetica,sans-Serif" font-size="10.00">semaphore</text>
</a>
</g>
</g>
<!-- Node3&#45;&gt;Node11 -->
<g id="edge10_Node000003_Node000011" class="edge">
<title>Node3&#45;&gt;Node11</title>
<g id="a_edge10_Node000003_Node000011"><a xlink:title=" ">
<path fill="none" stroke="#63b8ff" d="M560.85,-164.98C605.24,-155.5 676.87,-140.19 723.45,-130.23"/>
<polygon fill="#63b8ff" stroke="#63b8ff" points="724.23,-133.65 733.28,-128.13 722.77,-126.8 724.23,-133.65"/>
</a>
</g>
</g>
<!-- Node12 -->
<g id="Node000012" class="node">
<title>Node12</title>
<g id="a_Node000012"><a xlink:title=" ">
<polygon fill="#e0e0e0" stroke="#999999" points="428,-74 372,-74 372,-55 428,-55 428,-74"/>
<text text-anchor="middle" x="400" y="-62" font-family="Helvetica,sans-Serif" font-size="10.00">sstream</text>
</a>
</g>
</g>
<!-- Node3&#45;&gt;Node12 -->
<g id="edge11_Node000003_Node000012" class="edge">
<title>Node3&#45;&gt;Node12</title>
<g id="a_edge11_Node000003_Node000012"><a xlink:title=" ">
<path fill="none" stroke="#63b8ff" d="M499.79,-164.9C482.79,-157.27 459.05,-144.88 442,-129 427.83,-115.81 416.13,-96.93 408.71,-83.19"/>
<polygon fill="#63b8ff" stroke="#63b8ff" points="411.79,-81.52 404.09,-74.24 405.57,-84.73 411.79,-81.52"/>
</a>
</g>
</g>
<!-- Node13 -->
<g id="Node000013" class="node">
<title>Node13</title>
<g id="a_Node000013"><a xlink:title=" ">
<polygon fill="#e0e0e0" stroke="#999999" points="516,-19 472,-19 472,0 516,0 516,-19"/>
<text text-anchor="middle" x="494" y="-7" font-family="Helvetica,sans-Serif" font-size="10.00">string</text>
</a>
</g>
</g>
<!-- Node3&#45;&gt;Node13 -->
<g id="edge12_Node000003_Node000013" class="edge">
<title>Node3&#45;&gt;Node13</title>
<g id="a_edge12_Node000003_Node000013"><a xlink:title=" ">
<path fill="none" stroke="#63b8ff" d="M519.42,-164.98C517.77,-156.03 515.13,-141.54 513,-129 507,-93.7 500.49,-52.38 496.86,-29.04"/>
<polygon fill="#63b8ff" stroke="#63b8ff" points="500.32,-28.48 495.33,-19.13 493.4,-29.55 500.32,-28.48"/>
</a>
</g>
</g>
<!-- Node14 -->
<g id="Node000014" class="node">
<title>Node14</title>
<g id="a_Node000014"><a xlink:title=" ">
<polygon fill="#e0e0e0" stroke="#999999" points="869.5,-129 822.5,-129 822.5,-110 869.5,-110 869.5,-129"/>
<text text-anchor="middle" x="846" y="-117" font-family="Helvetica,sans-Serif" font-size="10.00">vector</text>
</a>
</g>
</g>
<!-- Node3&#45;&gt;Node14 -->
<g id="edge13_Node000003_Node000014" class="edge">
<title>Node3&#45;&gt;Node14</title>
<g id="a_edge13_Node000003_Node000014"><a xlink:title=" ">
<path fill="none" stroke="#63b8ff" d="M582.23,-166.17C639.48,-158.88 727.52,-146.52 812.26,-129.19"/>
<polygon fill="#63b8ff" stroke="#63b8ff" points="813.22,-132.56 822.3,-127.1 811.8,-125.71 813.22,-132.56"/>
</a>
</g>
</g>
<!-- Node15 -->
<g id="Node000015" class="node">
<title>Node15</title>
<g id="a_Node000015"><a xlink:title=" ">
<polygon fill="#e0e0e0" stroke="#999999" points="1014.5,-129 887.5,-129 887.5,-110 1014.5,-110 1014.5,-129"/>
<text text-anchor="middle" x="951" y="-117" font-family="Helvetica,sans-Serif" font-size="10.00">../utils/parameters.hpp</text>
</a>
</g>
</g>
<!-- Node3&#45;&gt;Node15 -->
<g id="edge14_Node000003_Node000015" class="edge">
<title>Node3&#45;&gt;Node15</title>
<g id="a_edge14_Node000003_Node000015"><a xlink:title=" ">
<path fill="none" stroke="#63b8ff" d="M582.15,-165.96C659.83,-156.39 793.78,-139.88 877.1,-129.61"/>
<polygon fill="#63b8ff" stroke="#63b8ff" points="877.76,-133.05 887.26,-128.36 876.9,-126.11 877.76,-133.05"/>
</a>
</g>
</g>
<!-- Node16 -->
<g id="Node000016" class="node">
<title>Node16</title>
<g id="a_Node000016"><a xlink:title=" ">
<polygon fill="#e0e0e0" stroke="#999999" points="1151,-129 1033,-129 1033,-110 1151,-110 1151,-129"/>
<text text-anchor="middle" x="1092" y="-117" font-family="Helvetica,sans-Serif" font-size="10.00">../utils/constants.hpp</text>
</a>
</g>
</g>
<!-- Node3&#45;&gt;Node16 -->
<g id="edge15_Node000003_Node000016" class="edge">
<title>Node3&#45;&gt;Node16</title>
<g id="a_edge15_Node000003_Node000016"><a xlink:title=" ">
<path fill="none" stroke="#63b8ff" d="M582.24,-168.8C675.07,-161.52 857.24,-146.6 1022.33,-129.14"/>
<polygon fill="#63b8ff" stroke="#63b8ff" points="1023.1,-132.58 1032.68,-128.04 1022.36,-125.62 1023.1,-132.58"/>
</a>
</g>
</g>
<!-- Node17 -->
<g id="Node000017" class="node">
<title>Node17</title>
<g id="a_Node000017"><a xlink:href="utils_8hpp.html" target="_top" xlink:title=" ">
<polygon fill="white" stroke="#666666" points="301.5,-129 200.5,-129 200.5,-110 301.5,-110 301.5,-129"/>
<text text-anchor="middle" x="251" y="-117" font-family="Helvetica,sans-Serif" font-size="10.00">uvgutils/utils.hpp</text>
</a>
</g>
</g>
<!-- Node3&#45;&gt;Node17 -->
<g id="edge16_Node000003_Node000017" class="edge">
<title>Node3&#45;&gt;Node17</title>
<g id="a_edge16_Node000003_Node000017"><a xlink:title=" ">
<path fill="none" stroke="#63b8ff" d="M477.62,-164.98C430.62,-155.76 355.57,-141.03 304.84,-131.07"/>
<polygon fill="#63b8ff" stroke="#63b8ff" points="305.21,-127.57 294.72,-129.08 303.86,-134.44 305.21,-127.57"/>
</a>
</g>
</g>
<!-- Node17&#45;&gt;Node4 -->
<g id="edge17_Node000017_Node000004" class="edge">
<title>Node17&#45;&gt;Node4</title>
<g id="a_edge17_Node000017_Node000004"><a xlink:title=" ">
<path fill="none" stroke="#63b8ff" d="M209.47,-109.98C171.04,-101.94 112.11,-89.2 52.27,-74.21"/>
<polygon fill="#63b8ff" stroke="#63b8ff" points="52.82,-70.74 42.26,-71.69 51.1,-77.53 52.82,-70.74"/>
</a>
</g>
</g>
<!-- Node17&#45;&gt;Node6 -->
<g id="edge18_Node000017_Node000006" class="edge">
<title>Node17&#45;&gt;Node6</title>
<g id="a_edge18_Node000017_Node000006"><a xlink:title=" ">
<path fill="none" stroke="#63b8ff" d="M224.65,-109.98C197.24,-101.13 154.11,-87.19 123.44,-77.28"/>
<polygon fill="#63b8ff" stroke="#63b8ff" points="124.15,-73.83 113.56,-74.08 122,-80.49 124.15,-73.83"/>
</a>
</g>
</g>
<!-- Node17&#45;&gt;Node7 -->
<g id="edge19_Node000017_Node000007" class="edge">
<title>Node17&#45;&gt;Node7</title>
<g id="a_edge19_Node000017_Node000007"><a xlink:title=" ">
<path fill="none" stroke="#63b8ff" d="M235.9,-109.98C221.18,-101.69 198.58,-88.94 181.33,-79.22"/>
<polygon fill="#63b8ff" stroke="#63b8ff" points="182.81,-76.03 172.38,-74.17 179.37,-82.13 182.81,-76.03"/>
</a>
</g>
</g>
<!-- Node17&#45;&gt;Node12 -->
<g id="edge22_Node000017_Node000012" class="edge">
<title>Node17&#45;&gt;Node12</title>
<g id="a_edge22_Node000017_Node000012"><a xlink:title=" ">
<path fill="none" stroke="#63b8ff" d="M274.94,-109.98C299.56,-101.23 338.12,-87.51 365.92,-77.62"/>
<polygon fill="#63b8ff" stroke="#63b8ff" points="367.38,-80.82 375.62,-74.17 365.03,-74.22 367.38,-80.82"/>
</a>
</g>
</g>
<!-- Node18 -->
<g id="Node000018" class="node">
<title>Node18</title>
<g id="a_Node000018"><a xlink:title=" ">
<polygon fill="#e0e0e0" stroke="#999999" points="170,-19 114,-19 114,0 170,0 170,-19"/>
<text text-anchor="middle" x="142" y="-7" font-family="Helvetica,sans-Serif" font-size="10.00">iomanip</text>
</a>
</g>
</g>
<!-- Node17&#45;&gt;Node18 -->
<g id="edge20_Node000017_Node000018" class="edge">
<title>Node17&#45;&gt;Node18</title>
<g id="a_edge20_Node000017_Node000018"><a xlink:title=" ">
<path fill="none" stroke="#63b8ff" d="M243.05,-109.67C231.75,-97.22 210.28,-73.9 191,-55 180.85,-45.04 169.06,-34.32 159.59,-25.89"/>
<polygon fill="#63b8ff" stroke="#63b8ff" points="161.78,-23.15 151.97,-19.15 157.14,-28.39 161.78,-23.15"/>
</a>
</g>
</g>
<!-- Node19 -->
<g id="Node000019" class="node">
<title>Node19</title>
<g id="a_Node000019"><a xlink:title=" ">
<polygon fill="#e0e0e0" stroke="#999999" points="354,-74 310,-74 310,-55 354,-55 354,-74"/>
<text text-anchor="middle" x="332" y="-62" font-family="Helvetica,sans-Serif" font-size="10.00">limits</text>
</a>
</g>
</g>
<!-- Node17&#45;&gt;Node19 -->
<g id="edge21_Node000017_Node000019" class="edge">
<title>Node17&#45;&gt;Node19</title>
<g id="a_edge21_Node000017_Node000019"><a xlink:title=" ">
<path fill="none" stroke="#63b8ff" d="M264.01,-109.98C276.46,-101.84 295.46,-89.41 310.21,-79.76"/>
<polygon fill="#63b8ff" stroke="#63b8ff" points="312.3,-82.57 318.75,-74.17 308.46,-76.72 312.3,-82.57"/>
</a>
</g>
</g>
<!-- Node20 -->
<g id="Node000020" class="node">
<title>Node20</title>
<g id="a_Node000020"><a xlink:href="log_8hpp.html" target="_top" xlink:title=" ">
<polygon fill="white" stroke="#666666" points="291.5,-74 238.5,-74 238.5,-55 291.5,-55 291.5,-74"/>
<text text-anchor="middle" x="265" y="-62" font-family="Helvetica,sans-Serif" font-size="10.00">log.hpp</text>
</a>
</g>
</g>
<!-- Node17&#45;&gt;Node20 -->
<g id="edge23_Node000017_Node000020" class="edge">
<title>Node17&#45;&gt;Node20</title>
<g id="a_edge23_Node000017_Node000020"><a xlink:title=" ">
<path fill="none" stroke="#63b8ff" d="M253.31,-109.75C255.17,-102.72 257.84,-92.62 260.15,-83.84"/>
<polygon fill="#63b8ff" stroke="#63b8ff" points="263.56,-84.65 262.73,-74.09 256.79,-82.86 263.56,-84.65"/>
</a>
</g>
</g>
<!-- Node20&#45;&gt;Node8 -->
<g id="edge27_Node000020_Node000008" class="edge">
<title>Node20&#45;&gt;Node8</title>
<g id="a_edge27_Node000020_Node000008"><a xlink:title=" ">
<path fill="none" stroke="#63b8ff" d="M290.55,-54.98C317.12,-46.13 358.94,-32.19 388.67,-22.28"/>
<polygon fill="#63b8ff" stroke="#63b8ff" points="389.87,-25.56 398.25,-19.08 387.66,-18.92 389.87,-25.56"/>
</a>
</g>
</g>
<!-- Node20&#45;&gt;Node13 -->
<g id="edge29_Node000020_Node000013" class="edge">
<title>Node20&#45;&gt;Node13</title>
<g id="a_edge29_Node000020_Node000013"><a xlink:title=" ">
<path fill="none" stroke="#63b8ff" d="M291.73,-57.15C294.85,-56.42 298,-55.69 301,-55 369.8,-39.23 389.72,-36.94 461.67,-19.24"/>
<polygon fill="#63b8ff" stroke="#63b8ff" points="462.82,-22.56 471.68,-16.76 461.14,-15.77 462.82,-22.56"/>
</a>
</g>
</g>
<!-- Node20&#45;&gt;Node18 -->
<g id="edge26_Node000020_Node000018" class="edge">
<title>Node20&#45;&gt;Node18</title>
<g id="a_edge26_Node000020_Node000018"><a xlink:title=" ">
<path fill="none" stroke="#63b8ff" d="M245.24,-54.98C225.27,-46.38 194.2,-32.99 171.35,-23.15"/>
<polygon fill="#63b8ff" stroke="#63b8ff" points="172.69,-19.91 162.12,-19.17 169.92,-26.34 172.69,-19.91"/>
</a>
</g>
</g>
<!-- Node21 -->
<g id="Node000021" class="node">
<title>Node21</title>
<g id="a_Node000021"><a xlink:title=" ">
<polygon fill="#e0e0e0" stroke="#999999" points="238,-19 188,-19 188,0 238,0 238,-19"/>
<text text-anchor="middle" x="213" y="-7" font-family="Helvetica,sans-Serif" font-size="10.00">chrono</text>
</a>
</g>
</g>
<!-- Node20&#45;&gt;Node21 -->
<g id="edge24_Node000020_Node000021" class="edge">
<title>Node20&#45;&gt;Node21</title>
<g id="a_edge24_Node000020_Node000021"><a xlink:title=" ">
<path fill="none" stroke="#63b8ff" d="M256.41,-54.75C248.84,-47.03 237.62,-35.6 228.49,-26.28"/>
<polygon fill="#63b8ff" stroke="#63b8ff" points="230.93,-23.78 221.43,-19.09 225.93,-28.68 230.93,-23.78"/>
</a>
</g>
</g>
<!-- Node22 -->
<g id="Node000022" class="node">
<title>Node22</title>
<g id="a_Node000022"><a xlink:title=" ">
<polygon fill="#e0e0e0" stroke="#999999" points="309.5,-19 256.5,-19 256.5,0 309.5,0 309.5,-19"/>
<text text-anchor="middle" x="283" y="-7" font-family="Helvetica,sans-Serif" font-size="10.00">cstdarg</text>
</a>
</g>
</g>
<!-- Node20&#45;&gt;Node22 -->
<g id="edge25_Node000020_Node000022" class="edge">
<title>Node20&#45;&gt;Node22</title>
<g id="a_edge25_Node000020_Node000022"><a xlink:title=" ">
<path fill="none" stroke="#63b8ff" d="M267.97,-54.75C270.36,-47.72 273.79,-37.62 276.77,-28.84"/>
<polygon fill="#63b8ff" stroke="#63b8ff" points="280.18,-29.68 280.08,-19.09 273.55,-27.43 280.18,-29.68"/>
</a>
</g>
</g>
<!-- Node23 -->
<g id="Node000023" class="node">
<title>Node23</title>
<g id="a_Node000023"><a xlink:title=" ">
<polygon fill="#e0e0e0" stroke="#999999" points="376,-19 328,-19 328,0 376,0 376,-19"/>
<text text-anchor="middle" x="352" y="-7" font-family="Helvetica,sans-Serif" font-size="10.00">mutex</text>
</a>
</g>
</g>
<!-- Node20&#45;&gt;Node23 -->
<g id="edge28_Node000020_Node000023" class="edge">
<title>Node20&#45;&gt;Node23</title>
<g id="a_edge28_Node000020_Node000023"><a xlink:title=" ">
<path fill="none" stroke="#63b8ff" d="M278.98,-54.98C292.47,-46.77 313.13,-34.18 329.04,-24.49"/>
<polygon fill="#63b8ff" stroke="#63b8ff" points="331.05,-27.36 337.77,-19.17 327.41,-21.38 331.05,-27.36"/>
</a>
</g>
</g>
<!-- Node24&#45;&gt;Node3 -->
<g id="edge31_Node000024_Node000003" class="edge">
<title>Node24&#45;&gt;Node3</title>
<g id="a_edge31_Node000024_Node000003"><a xlink:title=" ">
<path fill="none" stroke="#63b8ff" d="M478.42,-219.75C485.77,-212.11 496.63,-200.82 505.54,-191.56"/>
<polygon fill="#63b8ff" stroke="#63b8ff" points="508.32,-193.72 512.74,-184.09 503.28,-188.87 508.32,-193.72"/>
</a>
</g>
</g>
</g>
</svg>
