<?xml version="1.0" encoding="UTF-8" standalone="no"?>
<!DOCTYPE svg PUBLIC "-//W3C//DTD SVG 1.1//EN"
 "http://www.w3.org/Graphics/SVG/1.1/DTD/svg11.dtd">
<!-- Generated by graphviz version 2.43.0 (0)
 -->
<!-- Title: src/lib/mapEncoding/encoderKvazaar.cpp Pages: 1 -->
<svg width="1234pt" height="258pt"
 viewBox="0.00 0.00 1234.00 258.00" xmlns="http://www.w3.org/2000/svg" xmlns:xlink="http://www.w3.org/1999/xlink">
<g id="graph0" class="graph" transform="scale(1 1) rotate(0) translate(4 254)">
<title>src/lib/mapEncoding/encoderKvazaar.cpp</title>
<!-- Node1 -->
<g id="Node000001" class="node">
<title>Node1</title>
<g id="a_Node000001"><a xlink:title=" ">
<polygon fill="#999999" stroke="#666666" points="691.5,-250 573.5,-250 573.5,-220 691.5,-220 691.5,-250"/>
<text text-anchor="start" x="581.5" y="-238" font-family="Helvetica,sans-Serif" font-size="10.00">src/lib/mapEncoding</text>
<text text-anchor="middle" x="632.5" y="-227" font-family="Helvetica,sans-Serif" font-size="10.00">/encoderKvazaar.cpp</text>
</a>
</g>
</g>
<!-- Node2 -->
<g id="Node000002" class="node">
<title>Node2</title>
<g id="a_Node000002"><a xlink:href="encoderKvazaar_8hpp.html" target="_top" xlink:title=" ">
<polygon fill="white" stroke="#666666" points="343.5,-184 227.5,-184 227.5,-165 343.5,-165 343.5,-184"/>
<text text-anchor="middle" x="285.5" y="-172" font-family="Helvetica,sans-Serif" font-size="10.00">encoderKvazaar.hpp</text>
</a>
</g>
</g>
<!-- Node1&#45;&gt;Node2 -->
<g id="edge1_Node000001_Node000002" class="edge">
<title>Node1&#45;&gt;Node2</title>
<g id="a_edge1_Node000001_Node000002"><a xlink:title=" ">
<path fill="none" stroke="#63b8ff" d="M573.24,-224.01C509.85,-213.32 409.84,-196.46 345.98,-185.7"/>
<polygon fill="#63b8ff" stroke="#63b8ff" points="346.5,-182.23 336.05,-184.02 345.33,-189.14 346.5,-182.23"/>
</a>
</g>
</g>
<!-- Node3 -->
<g id="Node000003" class="node">
<title>Node3</title>
<g id="a_Node000003"><a xlink:title=" ">
<polygon fill="#e0e0e0" stroke="#999999" points="196.5,-129 132.5,-129 132.5,-110 196.5,-110 196.5,-129"/>
<text text-anchor="middle" x="164.5" y="-117" font-family="Helvetica,sans-Serif" font-size="10.00">kvazaar.h</text>
</a>
</g>
</g>
<!-- Node1&#45;&gt;Node3 -->
<g id="edge16_Node000001_Node000003" class="edge">
<title>Node1&#45;&gt;Node3</title>
<g id="a_edge16_Node000001_Node000003"><a xlink:title=" ">
<path fill="none" stroke="#63b8ff" d="M573.47,-232.13C474.14,-228.11 278.52,-216.26 218.5,-184 199.05,-173.55 183.6,-153 174.3,-138.1"/>
<polygon fill="#63b8ff" stroke="#63b8ff" points="177.19,-136.12 169.09,-129.29 171.16,-139.68 177.19,-136.12"/>
</a>
</g>
</g>
<!-- Node4 -->
<g id="Node000004" class="node">
<title>Node4</title>
<g id="a_Node000004"><a xlink:href="uvgvpcc_8hpp.html" target="_top" xlink:title=" ">
<polygon fill="white" stroke="#666666" points="395.5,-74 273.5,-74 273.5,-55 395.5,-55 395.5,-74"/>
<text text-anchor="middle" x="334.5" y="-62" font-family="Helvetica,sans-Serif" font-size="10.00">uvgvpcc/uvgvpcc.hpp</text>
</a>
</g>
</g>
<!-- Node1&#45;&gt;Node4 -->
<g id="edge48_Node000001_Node000004" class="edge">
<title>Node1&#45;&gt;Node4</title>
<g id="a_edge48_Node000001_Node000004"><a xlink:title=" ">
<path fill="none" stroke="#63b8ff" d="M573.3,-231.32C469.66,-225.97 259.97,-211.97 192.5,-184 156.27,-168.98 140.52,-164.33 123.5,-129 119.84,-121.39 118.18,-116.56 123.5,-110 140.98,-88.45 208.93,-76.94 263.06,-71.07"/>
<polygon fill="#63b8ff" stroke="#63b8ff" points="263.75,-74.51 273.34,-70 263.03,-67.55 263.75,-74.51"/>
</a>
</g>
</g>
<!-- Node5 -->
<g id="Node000005" class="node">
<title>Node5</title>
<g id="a_Node000005"><a xlink:title=" ">
<polygon fill="#e0e0e0" stroke="#999999" points="53,-19 0,-19 0,0 53,0 53,-19"/>
<text text-anchor="middle" x="26.5" y="-7" font-family="Helvetica,sans-Serif" font-size="10.00">cstddef</text>
</a>
</g>
</g>
<!-- Node1&#45;&gt;Node5 -->
<g id="edge19_Node000001_Node000005" class="edge">
<title>Node1&#45;&gt;Node5</title>
<g id="a_edge19_Node000001_Node000005"><a xlink:title=" ">
<path fill="none" stroke="#63b8ff" d="M573.22,-233.87C460.46,-232.67 220.02,-225.19 149.5,-184 87.11,-147.56 48.23,-65.45 33.38,-28.79"/>
<polygon fill="#63b8ff" stroke="#63b8ff" points="36.58,-27.38 29.68,-19.34 30.07,-29.93 36.58,-27.38"/>
</a>
</g>
</g>
<!-- Node6 -->
<g id="Node000006" class="node">
<title>Node6</title>
<g id="a_Node000006"><a xlink:title=" ">
<polygon fill="#e0e0e0" stroke="#999999" points="680.5,-19 630.5,-19 630.5,0 680.5,0 680.5,-19"/>
<text text-anchor="middle" x="655.5" y="-7" font-family="Helvetica,sans-Serif" font-size="10.00">cstdint</text>
</a>
</g>
</g>
<!-- Node1&#45;&gt;Node6 -->
<g id="edge20_Node000001_Node000006" class="edge">
<title>Node1&#45;&gt;Node6</title>
<g id="a_edge20_Node000001_Node000006"><a xlink:title=" ">
<path fill="none" stroke="#63b8ff" d="M633.97,-219.68C637.98,-180.76 649.06,-73.07 653.56,-29.33"/>
<polygon fill="#63b8ff" stroke="#63b8ff" points="657.06,-29.54 654.6,-19.23 650.1,-28.82 657.06,-29.54"/>
</a>
</g>
</g>
<!-- Node8 -->
<g id="Node000008" class="node">
<title>Node8</title>
<g id="a_Node000008"><a xlink:title=" ">
<polygon fill="#e0e0e0" stroke="#999999" points="472.5,-19 414.5,-19 414.5,0 472.5,0 472.5,-19"/>
<text text-anchor="middle" x="443.5" y="-7" font-family="Helvetica,sans-Serif" font-size="10.00">memory</text>
</a>
</g>
</g>
<!-- Node1&#45;&gt;Node8 -->
<g id="edge23_Node000001_Node000008" class="edge">
<title>Node1&#45;&gt;Node8</title>
<g id="a_edge23_Node000001_Node000008"><a xlink:title=" ">
<path fill="none" stroke="#63b8ff" d="M581.7,-219.88C538.45,-204.95 478.8,-176.77 449.5,-129 430.54,-98.09 434.82,-53.66 439.34,-28.91"/>
<polygon fill="#63b8ff" stroke="#63b8ff" points="442.78,-29.55 441.35,-19.05 435.92,-28.15 442.78,-29.55"/>
</a>
</g>
</g>
<!-- Node12 -->
<g id="Node000012" class="node">
<title>Node12</title>
<g id="a_Node000012"><a xlink:title=" ">
<polygon fill="#e0e0e0" stroke="#999999" points="938.5,-19 894.5,-19 894.5,0 938.5,0 938.5,-19"/>
<text text-anchor="middle" x="916.5" y="-7" font-family="Helvetica,sans-Serif" font-size="10.00">string</text>
</a>
</g>
</g>
<!-- Node1&#45;&gt;Node12 -->
<g id="edge25_Node000001_Node000012" class="edge">
<title>Node1&#45;&gt;Node12</title>
<g id="a_edge25_Node000001_Node000012"><a xlink:title=" ">
<path fill="none" stroke="#63b8ff" d="M691.75,-221.62C762.96,-203.18 879.13,-160.9 929.5,-74 937.59,-60.03 932.54,-41.78 926.52,-28.43"/>
<polygon fill="#63b8ff" stroke="#63b8ff" points="929.57,-26.69 921.94,-19.33 923.31,-29.84 929.57,-26.69"/>
</a>
</g>
</g>
<!-- Node13 -->
<g id="Node000013" class="node">
<title>Node13</title>
<g id="a_Node000013"><a xlink:title=" ">
<polygon fill="#e0e0e0" stroke="#999999" points="538,-19 491,-19 491,0 538,0 538,-19"/>
<text text-anchor="middle" x="514.5" y="-7" font-family="Helvetica,sans-Serif" font-size="10.00">vector</text>
</a>
</g>
</g>
<!-- Node1&#45;&gt;Node13 -->
<g id="edge26_Node000001_Node000013" class="edge">
<title>Node1&#45;&gt;Node13</title>
<g id="a_edge26_Node000001_Node000013"><a xlink:title=" ">
<path fill="none" stroke="#63b8ff" d="M626.7,-219.98C616.94,-196.72 596.26,-148.88 575.5,-110 559.59,-80.2 538.53,-47.01 525.78,-27.49"/>
<polygon fill="#63b8ff" stroke="#63b8ff" points="528.66,-25.51 520.24,-19.08 522.82,-29.36 528.66,-25.51"/>
</a>
</g>
</g>
<!-- Node15 -->
<g id="Node000015" class="node">
<title>Node15</title>
<g id="a_Node000015"><a xlink:href="abstract2DMapEncoder_8hpp.html" target="_top" xlink:title=" ">
<polygon fill="white" stroke="#666666" points="402.5,-129 252.5,-129 252.5,-110 402.5,-110 402.5,-129"/>
<text text-anchor="middle" x="327.5" y="-117" font-family="Helvetica,sans-Serif" font-size="10.00">abstract2DMapEncoder.hpp</text>
</a>
</g>
</g>
<!-- Node1&#45;&gt;Node15 -->
<g id="edge27_Node000001_Node000015" class="edge">
<title>Node1&#45;&gt;Node15</title>
<g id="a_edge27_Node000001_Node000015"><a xlink:title=" ">
<path fill="none" stroke="#63b8ff" d="M573.19,-226.67C528.63,-219.67 466.85,-206.7 416.5,-184 389.39,-171.78 362.12,-150.73 345.05,-136.24"/>
<polygon fill="#63b8ff" stroke="#63b8ff" points="346.95,-133.25 337.1,-129.34 342.36,-138.54 346.95,-133.25"/>
</a>
</g>
</g>
<!-- Node16 -->
<g id="Node000016" class="node">
<title>Node16</title>
<g id="a_Node000016"><a xlink:title=" ">
<polygon fill="#e0e0e0" stroke="#999999" points="924.5,-184 872.5,-184 872.5,-165 924.5,-165 924.5,-184"/>
<text text-anchor="middle" x="898.5" y="-172" font-family="Helvetica,sans-Serif" font-size="10.00">cassert</text>
</a>
</g>
</g>
<!-- Node1&#45;&gt;Node16 -->
<g id="edge17_Node000001_Node000016" class="edge">
<title>Node1&#45;&gt;Node16</title>
<g id="a_edge17_Node000001_Node000016"><a xlink:title=" ">
<path fill="none" stroke="#63b8ff" d="M691.53,-221.02C743.82,-209.52 818.47,-193.1 862.36,-183.45"/>
<polygon fill="#63b8ff" stroke="#63b8ff" points="863.29,-186.83 872.3,-181.26 861.78,-179.99 863.29,-186.83"/>
</a>
</g>
</g>
<!-- Node17 -->
<g id="Node000017" class="node">
<title>Node17</title>
<g id="a_Node000017"><a xlink:title=" ">
<polygon fill="#e0e0e0" stroke="#999999" points="983,-129 930,-129 930,-110 983,-110 983,-129"/>
<text text-anchor="middle" x="956.5" y="-117" font-family="Helvetica,sans-Serif" font-size="10.00">cstdarg</text>
</a>
</g>
</g>
<!-- Node1&#45;&gt;Node17 -->
<g id="edge18_Node000001_Node000017" class="edge">
<title>Node1&#45;&gt;Node17</title>
<g id="a_edge18_Node000001_Node000017"><a xlink:title=" ">
<path fill="none" stroke="#63b8ff" d="M691.81,-231.14C768.83,-226.27 897.66,-213.81 933.5,-184 946.73,-172.99 952.35,-153.74 954.74,-139.31"/>
<polygon fill="#63b8ff" stroke="#63b8ff" points="958.26,-139.38 956.04,-129.02 951.31,-138.5 958.26,-139.38"/>
</a>
</g>
</g>
<!-- Node18 -->
<g id="Node000018" class="node">
<title>Node18</title>
<g id="a_Node000018"><a xlink:title=" ">
<polygon fill="#e0e0e0" stroke="#999999" points="1143,-184 1094,-184 1094,-165 1143,-165 1143,-184"/>
<text text-anchor="middle" x="1118.5" y="-172" font-family="Helvetica,sans-Serif" font-size="10.00">cstdlib</text>
</a>
</g>
</g>
<!-- Node1&#45;&gt;Node18 -->
<g id="edge21_Node000001_Node000018" class="edge">
<title>Node1&#45;&gt;Node18</title>
<g id="a_edge21_Node000001_Node000018"><a xlink:title=" ">
<path fill="none" stroke="#63b8ff" d="M691.53,-230.18C776.41,-224.08 937.94,-210.28 1083.7,-184.11"/>
<polygon fill="#63b8ff" stroke="#63b8ff" points="1084.51,-187.52 1093.72,-182.29 1083.25,-180.63 1084.51,-187.52"/>
</a>
</g>
</g>
<!-- Node19 -->
<g id="Node000019" class="node">
<title>Node19</title>
<g id="a_Node000019"><a xlink:title=" ">
<polygon fill="#e0e0e0" stroke="#999999" points="1226,-184 1161,-184 1161,-165 1226,-165 1226,-184"/>
<text text-anchor="middle" x="1193.5" y="-172" font-family="Helvetica,sans-Serif" font-size="10.00">functional</text>
</a>
</g>
</g>
<!-- Node1&#45;&gt;Node19 -->
<g id="edge22_Node000001_Node000019" class="edge">
<title>Node1&#45;&gt;Node19</title>
<g id="a_edge22_Node000001_Node000019"><a xlink:title=" ">
<path fill="none" stroke="#63b8ff" d="M691.63,-230.41C786.54,-224.19 978.88,-209.7 1150.89,-184.1"/>
<polygon fill="#63b8ff" stroke="#63b8ff" points="1151.52,-187.54 1160.88,-182.59 1150.47,-180.62 1151.52,-187.54"/>
</a>
</g>
</g>
<!-- Node20 -->
<g id="Node000020" class="node">
<title>Node20</title>
<g id="a_Node000020"><a xlink:title=" ">
<polygon fill="#e0e0e0" stroke="#999999" points="921,-74 856,-74 856,-55 921,-55 921,-74"/>
<text text-anchor="middle" x="888.5" y="-62" font-family="Helvetica,sans-Serif" font-size="10.00">stdexcept</text>
</a>
</g>
</g>
<!-- Node1&#45;&gt;Node20 -->
<g id="edge24_Node000001_Node000020" class="edge">
<title>Node1&#45;&gt;Node20</title>
<g id="a_edge24_Node000001_Node000020"><a xlink:title=" ">
<path fill="none" stroke="#63b8ff" d="M653.89,-219.92C702.09,-188.19 818.78,-111.39 867.05,-79.62"/>
<polygon fill="#63b8ff" stroke="#63b8ff" points="869.06,-82.48 875.49,-74.06 865.21,-76.64 869.06,-82.48"/>
</a>
</g>
</g>
<!-- Node21 -->
<g id="Node000021" class="node">
<title>Node21</title>
<g id="a_Node000021"><a xlink:href="catchLibLog_8hpp.html" target="_top" xlink:title=" ">
<polygon fill="white" stroke="#666666" points="1076,-184 981,-184 981,-165 1076,-165 1076,-184"/>
<text text-anchor="middle" x="1028.5" y="-172" font-family="Helvetica,sans-Serif" font-size="10.00">catchLibLog.hpp</text>
</a>
</g>
</g>
<!-- Node1&#45;&gt;Node21 -->
<g id="edge28_Node000001_Node000021" class="edge">
<title>Node1&#45;&gt;Node21</title>
<g id="a_edge28_Node000001_Node000021"><a xlink:title=" ">
<path fill="none" stroke="#63b8ff" d="M691.79,-225.24C767.1,-214.12 896.24,-195.04 970.8,-184.02"/>
<polygon fill="#63b8ff" stroke="#63b8ff" points="971.56,-187.45 980.94,-182.53 970.54,-180.52 971.56,-187.45"/>
</a>
</g>
</g>
<!-- Node23 -->
<g id="Node000023" class="node">
<title>Node23</title>
<g id="a_Node000023"><a xlink:href="fileExport_8hpp.html" target="_top" xlink:title=" ">
<polygon fill="white" stroke="#666666" points="566.5,-129 458.5,-129 458.5,-110 566.5,-110 566.5,-129"/>
<text text-anchor="middle" x="512.5" y="-117" font-family="Helvetica,sans-Serif" font-size="10.00">utils/fileExport.hpp</text>
</a>
</g>
</g>
<!-- Node1&#45;&gt;Node23 -->
<g id="edge31_Node000001_Node000023" class="edge">
<title>Node1&#45;&gt;Node23</title>
<g id="a_edge31_Node000001_Node000023"><a xlink:title=" ">
<path fill="none" stroke="#63b8ff" d="M617.3,-219.63C594.74,-198.28 552.53,-158.36 529.15,-136.25"/>
<polygon fill="#63b8ff" stroke="#63b8ff" points="531.4,-133.56 521.73,-129.23 526.59,-138.64 531.4,-133.56"/>
</a>
</g>
</g>
<!-- Node28 -->
<g id="Node000028" class="node">
<title>Node28</title>
<g id="a_Node000028"><a xlink:href="parameters_8hpp.html" target="_top" xlink:title=" ">
<polygon fill="white" stroke="#666666" points="778.5,-129 660.5,-129 660.5,-110 778.5,-110 778.5,-129"/>
<text text-anchor="middle" x="719.5" y="-117" font-family="Helvetica,sans-Serif" font-size="10.00">utils/parameters.hpp</text>
</a>
</g>
</g>
<!-- Node1&#45;&gt;Node28 -->
<g id="edge43_Node000001_Node000028" class="edge">
<title>Node1&#45;&gt;Node28</title>
<g id="a_edge43_Node000001_Node000028"><a xlink:title=" ">
<path fill="none" stroke="#63b8ff" d="M643.52,-219.63C659.59,-198.65 689.42,-159.75 706.53,-137.42"/>
<polygon fill="#63b8ff" stroke="#63b8ff" points="709.5,-139.3 712.81,-129.23 703.95,-135.04 709.5,-139.3"/>
</a>
</g>
</g>
<!-- Node2&#45;&gt;Node3 -->
<g id="edge2_Node000002_Node000003" class="edge">
<title>Node2&#45;&gt;Node3</title>
<g id="a_edge2_Node000002_Node000003"><a xlink:title=" ">
<path fill="none" stroke="#63b8ff" d="M266.06,-164.98C246.51,-156.42 216.12,-143.11 193.68,-133.28"/>
<polygon fill="#63b8ff" stroke="#63b8ff" points="194.86,-129.98 184.29,-129.17 192.05,-136.39 194.86,-129.98"/>
</a>
</g>
</g>
<!-- Node2&#45;&gt;Node4 -->
<g id="edge3_Node000002_Node000004" class="edge">
<title>Node2&#45;&gt;Node4</title>
<g id="a_edge3_Node000002_Node000004"><a xlink:title=" ">
<path fill="none" stroke="#63b8ff" d="M272.71,-164.97C256.21,-152.86 231.04,-129.96 243.5,-110 253.15,-94.54 269.91,-84.3 286.43,-77.59"/>
<polygon fill="#63b8ff" stroke="#63b8ff" points="287.9,-80.78 296.08,-74.04 285.48,-74.21 287.9,-80.78"/>
</a>
</g>
</g>
<!-- Node2&#45;&gt;Node15 -->
<g id="edge14_Node000002_Node000015" class="edge">
<title>Node2&#45;&gt;Node15</title>
<g id="a_edge14_Node000002_Node000015"><a xlink:title=" ">
<path fill="none" stroke="#63b8ff" d="M292.44,-164.75C298.37,-157.26 307.07,-146.28 314.32,-137.13"/>
<polygon fill="#63b8ff" stroke="#63b8ff" points="317.23,-139.1 320.69,-129.09 311.74,-134.75 317.23,-139.1"/>
</a>
</g>
</g>
<!-- Node4&#45;&gt;Node5 -->
<g id="edge4_Node000004_Node000005" class="edge">
<title>Node4&#45;&gt;Node5</title>
<g id="a_edge4_Node000004_Node000005"><a xlink:title=" ">
<path fill="none" stroke="#63b8ff" d="M273.81,-54.97C220.6,-47.18 140.96,-34.78 63.17,-19.22"/>
<polygon fill="#63b8ff" stroke="#63b8ff" points="63.7,-15.76 53.21,-17.21 62.31,-22.62 63.7,-15.76"/>
</a>
</g>
</g>
<!-- Node4&#45;&gt;Node6 -->
<g id="edge5_Node000004_Node000006" class="edge">
<title>Node4&#45;&gt;Node6</title>
<g id="a_edge5_Node000004_Node000006"><a xlink:title=" ">
<path fill="none" stroke="#63b8ff" d="M395.53,-55.68C451.61,-48.12 537.21,-35.65 620.43,-19.06"/>
<polygon fill="#63b8ff" stroke="#63b8ff" points="621.2,-22.48 630.31,-17.07 619.81,-15.61 621.2,-22.48"/>
</a>
</g>
</g>
<!-- Node7 -->
<g id="Node000007" class="node">
<title>Node7</title>
<g id="a_Node000007"><a xlink:title=" ">
<polygon fill="#e0e0e0" stroke="#999999" points="330.5,-19 270.5,-19 270.5,0 330.5,0 330.5,-19"/>
<text text-anchor="middle" x="300.5" y="-7" font-family="Helvetica,sans-Serif" font-size="10.00">iostream</text>
</a>
</g>
</g>
<!-- Node4&#45;&gt;Node7 -->
<g id="edge6_Node000004_Node000007" class="edge">
<title>Node4&#45;&gt;Node7</title>
<g id="a_edge6_Node000004_Node000007"><a xlink:title=" ">
<path fill="none" stroke="#63b8ff" d="M328.89,-54.75C324.18,-47.42 317.33,-36.73 311.53,-27.7"/>
<polygon fill="#63b8ff" stroke="#63b8ff" points="314.36,-25.62 306.01,-19.09 308.46,-29.4 314.36,-25.62"/>
</a>
</g>
</g>
<!-- Node4&#45;&gt;Node8 -->
<g id="edge7_Node000004_Node000008" class="edge">
<title>Node4&#45;&gt;Node8</title>
<g id="a_edge7_Node000004_Node000008"><a xlink:title=" ">
<path fill="none" stroke="#63b8ff" d="M352.01,-54.98C369.47,-46.5 396.51,-33.35 416.67,-23.54"/>
<polygon fill="#63b8ff" stroke="#63b8ff" points="418.21,-26.69 425.67,-19.17 415.14,-20.4 418.21,-26.69"/>
</a>
</g>
</g>
<!-- Node9 -->
<g id="Node000009" class="node">
<title>Node9</title>
<g id="a_Node000009"><a xlink:title=" ">
<polygon fill="#e0e0e0" stroke="#999999" points="396,-19 349,-19 349,0 396,0 396,-19"/>
<text text-anchor="middle" x="372.5" y="-7" font-family="Helvetica,sans-Serif" font-size="10.00">queue</text>
</a>
</g>
</g>
<!-- Node4&#45;&gt;Node9 -->
<g id="edge8_Node000004_Node000009" class="edge">
<title>Node4&#45;&gt;Node9</title>
<g id="a_edge8_Node000004_Node000009"><a xlink:title=" ">
<path fill="none" stroke="#63b8ff" d="M340.77,-54.75C346.09,-47.34 353.86,-36.5 360.38,-27.41"/>
<polygon fill="#63b8ff" stroke="#63b8ff" points="363.36,-29.26 366.34,-19.09 357.67,-25.18 363.36,-29.26"/>
</a>
</g>
</g>
<!-- Node10 -->
<g id="Node000010" class="node">
<title>Node10</title>
<g id="a_Node000010"><a xlink:title=" ">
<polygon fill="#e0e0e0" stroke="#999999" points="142,-19 71,-19 71,0 142,0 142,-19"/>
<text text-anchor="middle" x="106.5" y="-7" font-family="Helvetica,sans-Serif" font-size="10.00">semaphore</text>
</a>
</g>
</g>
<!-- Node4&#45;&gt;Node10 -->
<g id="edge9_Node000004_Node000010" class="edge">
<title>Node4&#45;&gt;Node10</title>
<g id="a_edge9_Node000004_Node000010"><a xlink:title=" ">
<path fill="none" stroke="#63b8ff" d="M297.87,-54.98C258.25,-45.77 195.01,-31.08 152.18,-21.12"/>
<polygon fill="#63b8ff" stroke="#63b8ff" points="152.82,-17.67 142.29,-18.82 151.24,-24.49 152.82,-17.67"/>
</a>
</g>
</g>
<!-- Node11 -->
<g id="Node000011" class="node">
<title>Node11</title>
<g id="a_Node000011"><a xlink:title=" ">
<polygon fill="#e0e0e0" stroke="#999999" points="612.5,-19 556.5,-19 556.5,0 612.5,0 612.5,-19"/>
<text text-anchor="middle" x="584.5" y="-7" font-family="Helvetica,sans-Serif" font-size="10.00">sstream</text>
</a>
</g>
</g>
<!-- Node4&#45;&gt;Node11 -->
<g id="edge10_Node000004_Node000011" class="edge">
<title>Node4&#45;&gt;Node11</title>
<g id="a_edge10_Node000004_Node000011"><a xlink:title=" ">
<path fill="none" stroke="#63b8ff" d="M375.97,-54.96C418.73,-46.12 487.33,-31.83 546.5,-19 546.6,-18.98 546.7,-18.96 546.8,-18.94"/>
<polygon fill="#63b8ff" stroke="#63b8ff" points="547.27,-22.42 556.29,-16.85 545.77,-15.58 547.27,-22.42"/>
</a>
</g>
</g>
<!-- Node4&#45;&gt;Node12 -->
<g id="edge11_Node000004_Node000012" class="edge">
<title>Node4&#45;&gt;Node12</title>
<g id="a_edge11_Node000004_Node000012"><a xlink:title=" ">
<path fill="none" stroke="#63b8ff" d="M395.72,-62.29C496.07,-59.48 701.85,-50.3 884.22,-18.89"/>
<polygon fill="#63b8ff" stroke="#63b8ff" points="885.01,-22.3 894.26,-17.13 883.81,-15.41 885.01,-22.3"/>
</a>
</g>
</g>
<!-- Node4&#45;&gt;Node13 -->
<g id="edge12_Node000004_Node000013" class="edge">
<title>Node4&#45;&gt;Node13</title>
<g id="a_edge12_Node000004_Node000013"><a xlink:title=" ">
<path fill="none" stroke="#63b8ff" d="M363.42,-54.98C395.48,-45.54 447.13,-30.34 480.94,-20.38"/>
<polygon fill="#63b8ff" stroke="#63b8ff" points="482.22,-23.65 490.82,-17.47 480.24,-16.94 482.22,-23.65"/>
</a>
</g>
</g>
<!-- Node14 -->
<g id="Node000014" class="node">
<title>Node14</title>
<g id="a_Node000014"><a xlink:title=" ">
<polygon fill="#e0e0e0" stroke="#999999" points="252.5,-19 160.5,-19 160.5,0 252.5,0 252.5,-19"/>
<text text-anchor="middle" x="206.5" y="-7" font-family="Helvetica,sans-Serif" font-size="10.00">../utils/utils.hpp</text>
</a>
</g>
</g>
<!-- Node4&#45;&gt;Node14 -->
<g id="edge13_Node000004_Node000014" class="edge">
<title>Node4&#45;&gt;Node14</title>
<g id="a_edge13_Node000004_Node000014"><a xlink:title=" ">
<path fill="none" stroke="#63b8ff" d="M313.93,-54.98C293.07,-46.34 260.53,-32.87 236.73,-23.02"/>
<polygon fill="#63b8ff" stroke="#63b8ff" points="238.02,-19.76 227.44,-19.17 235.34,-26.23 238.02,-19.76"/>
</a>
</g>
</g>
<!-- Node15&#45;&gt;Node4 -->
<g id="edge15_Node000015_Node000004" class="edge">
<title>Node15&#45;&gt;Node4</title>
<g id="a_edge15_Node000015_Node000004"><a xlink:title=" ">
<path fill="none" stroke="#63b8ff" d="M328.66,-109.75C329.57,-102.8 330.89,-92.85 332.04,-84.13"/>
<polygon fill="#63b8ff" stroke="#63b8ff" points="335.53,-84.46 333.37,-74.09 328.59,-83.54 335.53,-84.46"/>
</a>
</g>
</g>
<!-- Node21&#45;&gt;Node17 -->
<g id="edge29_Node000021_Node000017" class="edge">
<title>Node21&#45;&gt;Node17</title>
<g id="a_edge29_Node000021_Node000017"><a xlink:title=" ">
<path fill="none" stroke="#63b8ff" d="M1016.93,-164.98C1006.08,-157 989.62,-144.88 976.62,-135.31"/>
<polygon fill="#63b8ff" stroke="#63b8ff" points="978.41,-132.28 968.28,-129.17 974.26,-137.92 978.41,-132.28"/>
</a>
</g>
</g>
<!-- Node22 -->
<g id="Node000022" class="node">
<title>Node22</title>
<g id="a_Node000022"><a xlink:title=" ">
<polygon fill="#e0e0e0" stroke="#999999" points="1051.5,-129 1005.5,-129 1005.5,-110 1051.5,-110 1051.5,-129"/>
<text text-anchor="middle" x="1028.5" y="-117" font-family="Helvetica,sans-Serif" font-size="10.00">cstdio</text>
</a>
</g>
</g>
<!-- Node21&#45;&gt;Node22 -->
<g id="edge30_Node000021_Node000022" class="edge">
<title>Node21&#45;&gt;Node22</title>
<g id="a_edge30_Node000021_Node000022"><a xlink:title=" ">
<path fill="none" stroke="#63b8ff" d="M1028.5,-164.75C1028.5,-157.8 1028.5,-147.85 1028.5,-139.13"/>
<polygon fill="#63b8ff" stroke="#63b8ff" points="1032,-139.09 1028.5,-129.09 1025,-139.09 1032,-139.09"/>
</a>
</g>
</g>
<!-- Node23&#45;&gt;Node4 -->
<g id="edge42_Node000023_Node000004" class="edge">
<title>Node23&#45;&gt;Node4</title>
<g id="a_edge42_Node000023_Node000004"><a xlink:title=" ">
<path fill="none" stroke="#63b8ff" d="M483.9,-109.98C453.89,-101.05 406.52,-86.94 373.18,-77.02"/>
<polygon fill="#63b8ff" stroke="#63b8ff" points="373.91,-73.58 363.32,-74.08 371.91,-80.29 373.91,-73.58"/>
</a>
</g>
</g>
<!-- Node23&#45;&gt;Node5 -->
<g id="edge32_Node000023_Node000005" class="edge">
<title>Node23&#45;&gt;Node5</title>
<g id="a_edge32_Node000023_Node000005"><a xlink:title=" ">
<path fill="none" stroke="#63b8ff" d="M458.06,-110.07C407.64,-101.94 330.68,-88.74 264.5,-74 192.36,-57.93 109.16,-34.62 62.7,-21.17"/>
<polygon fill="#63b8ff" stroke="#63b8ff" points="63.67,-17.8 53.09,-18.37 61.72,-24.52 63.67,-17.8"/>
</a>
</g>
</g>
<!-- Node23&#45;&gt;Node8 -->
<g id="edge33_Node000023_Node000008" class="edge">
<title>Node23&#45;&gt;Node8</title>
<g id="a_edge33_Node000023_Node000008"><a xlink:title=" ">
<path fill="none" stroke="#63b8ff" d="M506.85,-109.66C495.42,-91.77 469.38,-51 454.48,-27.69"/>
<polygon fill="#63b8ff" stroke="#63b8ff" points="457.37,-25.7 449.03,-19.16 451.47,-29.47 457.37,-25.7"/>
</a>
</g>
</g>
<!-- Node23&#45;&gt;Node12 -->
<g id="edge34_Node000023_Node000012" class="edge">
<title>Node23&#45;&gt;Node12</title>
<g id="a_edge34_Node000023_Node000012"><a xlink:title=" ">
<path fill="none" stroke="#63b8ff" d="M566.5,-114.48C619.45,-109.32 701.85,-97.97 769.5,-74 785.82,-68.22 787.86,-62.41 803.5,-55 830.39,-42.26 861.97,-30.05 884.9,-21.65"/>
<polygon fill="#63b8ff" stroke="#63b8ff" points="886.26,-24.88 894.47,-18.18 883.87,-18.3 886.26,-24.88"/>
</a>
</g>
</g>
<!-- Node23&#45;&gt;Node13 -->
<g id="edge35_Node000023_Node000013" class="edge">
<title>Node23&#45;&gt;Node13</title>
<g id="a_edge35_Node000023_Node000013"><a xlink:title=" ">
<path fill="none" stroke="#63b8ff" d="M512.66,-109.66C512.99,-92.17 513.72,-52.8 514.15,-29.27"/>
<polygon fill="#63b8ff" stroke="#63b8ff" points="517.65,-29.22 514.34,-19.16 510.66,-29.09 517.65,-29.22"/>
</a>
</g>
</g>
<!-- Node24 -->
<g id="Node000024" class="node">
<title>Node24</title>
<g id="a_Node000024"><a xlink:href="utils_8hpp.html" target="_top" xlink:title=" ">
<polygon fill="white" stroke="#666666" points="761,-74 678,-74 678,-55 761,-55 761,-74"/>
<text text-anchor="middle" x="719.5" y="-62" font-family="Helvetica,sans-Serif" font-size="10.00">utils/utils.hpp</text>
</a>
</g>
</g>
<!-- Node23&#45;&gt;Node24 -->
<g id="edge36_Node000023_Node000024" class="edge">
<title>Node23&#45;&gt;Node24</title>
<g id="a_edge36_Node000023_Node000024"><a xlink:title=" ">
<path fill="none" stroke="#63b8ff" d="M545.76,-109.98C581.11,-100.93 637.17,-86.58 676.01,-76.64"/>
<polygon fill="#63b8ff" stroke="#63b8ff" points="677.16,-79.95 685.98,-74.08 675.43,-73.17 677.16,-79.95"/>
</a>
</g>
</g>
<!-- Node24&#45;&gt;Node6 -->
<g id="edge38_Node000024_Node000006" class="edge">
<title>Node24&#45;&gt;Node6</title>
<g id="a_edge38_Node000024_Node000006"><a xlink:title=" ">
<path fill="none" stroke="#63b8ff" d="M709.22,-54.98C699.66,-47.07 685.22,-35.11 673.72,-25.58"/>
<polygon fill="#63b8ff" stroke="#63b8ff" points="675.9,-22.85 665.97,-19.17 671.44,-28.24 675.9,-22.85"/>
</a>
</g>
</g>
<!-- Node24&#45;&gt;Node11 -->
<g id="edge40_Node000024_Node000011" class="edge">
<title>Node24&#45;&gt;Node11</title>
<g id="a_edge40_Node000024_Node000011"><a xlink:title=" ">
<path fill="none" stroke="#63b8ff" d="M697.81,-54.98C675.7,-46.3 641.18,-32.75 616.05,-22.88"/>
<polygon fill="#63b8ff" stroke="#63b8ff" points="617.17,-19.57 606.58,-19.17 614.61,-26.08 617.17,-19.57"/>
</a>
</g>
</g>
<!-- Node25 -->
<g id="Node000025" class="node">
<title>Node25</title>
<g id="a_Node000025"><a xlink:title=" ">
<polygon fill="#e0e0e0" stroke="#999999" points="740.5,-19 698.5,-19 698.5,0 740.5,0 740.5,-19"/>
<text text-anchor="middle" x="719.5" y="-7" font-family="Helvetica,sans-Serif" font-size="10.00">array</text>
</a>
</g>
</g>
<!-- Node24&#45;&gt;Node25 -->
<g id="edge37_Node000024_Node000025" class="edge">
<title>Node24&#45;&gt;Node25</title>
<g id="a_edge37_Node000024_Node000025"><a xlink:title=" ">
<path fill="none" stroke="#63b8ff" d="M719.5,-54.75C719.5,-47.8 719.5,-37.85 719.5,-29.13"/>
<polygon fill="#63b8ff" stroke="#63b8ff" points="723,-29.09 719.5,-19.09 716,-29.09 723,-29.09"/>
</a>
</g>
</g>
<!-- Node26 -->
<g id="Node000026" class="node">
<title>Node26</title>
<g id="a_Node000026"><a xlink:title=" ">
<polygon fill="#e0e0e0" stroke="#999999" points="802.5,-19 758.5,-19 758.5,0 802.5,0 802.5,-19"/>
<text text-anchor="middle" x="780.5" y="-7" font-family="Helvetica,sans-Serif" font-size="10.00">limits</text>
</a>
</g>
</g>
<!-- Node24&#45;&gt;Node26 -->
<g id="edge39_Node000024_Node000026" class="edge">
<title>Node24&#45;&gt;Node26</title>
<g id="a_edge39_Node000024_Node000026"><a xlink:title=" ">
<path fill="none" stroke="#63b8ff" d="M729.3,-54.98C738.32,-47.15 751.91,-35.34 762.82,-25.86"/>
<polygon fill="#63b8ff" stroke="#63b8ff" points="765.27,-28.37 770.52,-19.17 760.68,-23.09 765.27,-28.37"/>
</a>
</g>
</g>
<!-- Node27 -->
<g id="Node000027" class="node">
<title>Node27</title>
<g id="a_Node000027"><a xlink:title=" ">
<polygon fill="#e0e0e0" stroke="#999999" points="876.5,-19 820.5,-19 820.5,0 876.5,0 876.5,-19"/>
<text text-anchor="middle" x="848.5" y="-7" font-family="Helvetica,sans-Serif" font-size="10.00">iomanip</text>
</a>
</g>
</g>
<!-- Node24&#45;&gt;Node27 -->
<g id="edge41_Node000024_Node000027" class="edge">
<title>Node24&#45;&gt;Node27</title>
<g id="a_edge41_Node000024_Node000027"><a xlink:title=" ">
<path fill="none" stroke="#63b8ff" d="M740.23,-54.98C761.26,-46.34 794.05,-32.87 818.04,-23.02"/>
<polygon fill="#63b8ff" stroke="#63b8ff" points="819.48,-26.21 827.4,-19.17 816.82,-19.73 819.48,-26.21"/>
</a>
</g>
</g>
<!-- Node28&#45;&gt;Node12 -->
<g id="edge45_Node000028_Node000012" class="edge">
<title>Node28&#45;&gt;Node12</title>
<g id="a_edge45_Node000028_Node000012"><a xlink:title=" ">
<path fill="none" stroke="#63b8ff" d="M735.98,-109.92C752.97,-101.05 780.18,-86.73 803.5,-74 834.44,-57.12 869.82,-37.12 892.62,-24.14"/>
<polygon fill="#63b8ff" stroke="#63b8ff" points="894.62,-27.03 901.58,-19.04 891.16,-20.95 894.62,-27.03"/>
</a>
</g>
</g>
<!-- Node28&#45;&gt;Node13 -->
<g id="edge46_Node000028_Node000013" class="edge">
<title>Node28&#45;&gt;Node13</title>
<g id="a_edge46_Node000028_Node000013"><a xlink:title=" ">
<path fill="none" stroke="#63b8ff" d="M703.07,-109.84C667.3,-91 582.16,-46.14 539.61,-23.73"/>
<polygon fill="#63b8ff" stroke="#63b8ff" points="541.2,-20.61 530.72,-19.05 537.94,-26.8 541.2,-20.61"/>
</a>
</g>
</g>
<!-- Node28&#45;&gt;Node20 -->
<g id="edge44_Node000028_Node000020" class="edge">
<title>Node28&#45;&gt;Node20</title>
<g id="a_edge44_Node000028_Node000020"><a xlink:title=" ">
<path fill="none" stroke="#63b8ff" d="M746.65,-109.98C775.03,-101.09 819.73,-87.07 851.36,-77.15"/>
<polygon fill="#63b8ff" stroke="#63b8ff" points="852.64,-80.41 861.13,-74.08 850.55,-73.73 852.64,-80.41"/>
</a>
</g>
</g>
<!-- Node28&#45;&gt;Node24 -->
<g id="edge47_Node000028_Node000024" class="edge">
<title>Node28&#45;&gt;Node24</title>
<g id="a_edge47_Node000028_Node000024"><a xlink:title=" ">
<path fill="none" stroke="#63b8ff" d="M719.5,-109.75C719.5,-102.8 719.5,-92.85 719.5,-84.13"/>
<polygon fill="#63b8ff" stroke="#63b8ff" points="723,-84.09 719.5,-74.09 716,-84.09 723,-84.09"/>
</a>
</g>
</g>
</g>
</svg>
