<?xml version="1.0" encoding="UTF-8" standalone="no"?>
<!DOCTYPE svg PUBLIC "-//W3C//DTD SVG 1.1//EN"
 "http://www.w3.org/Graphics/SVG/1.1/DTD/svg11.dtd">
<!-- Generated by graphviz version 2.43.0 (0)
 -->
<!-- Title: src/lib/mapEncoding/encoderKvazaar.cpp Pages: 1 -->
<svg width="1191pt" height="258pt"
 viewBox="0.00 0.00 1191.00 258.00" xmlns="http://www.w3.org/2000/svg" xmlns:xlink="http://www.w3.org/1999/xlink">
<g id="graph0" class="graph" transform="scale(1 1) rotate(0) translate(4 254)">
<title>src/lib/mapEncoding/encoderKvazaar.cpp</title>
<!-- Node1 -->
<g id="Node000001" class="node">
<title>Node1</title>
<g id="a_Node000001"><a xlink:title=" ">
<polygon fill="#999999" stroke="#666666" points="787.5,-250 669.5,-250 669.5,-220 787.5,-220 787.5,-250"/>
<text text-anchor="start" x="677.5" y="-238" font-family="Helvetica,sans-Serif" font-size="10.00">src/lib/mapEncoding</text>
<text text-anchor="middle" x="728.5" y="-227" font-family="Helvetica,sans-Serif" font-size="10.00">/encoderKvazaar.cpp</text>
</a>
</g>
</g>
<!-- Node2 -->
<g id="Node000002" class="node">
<title>Node2</title>
<g id="a_Node000002"><a xlink:href="abstract2DMapEncoder_8hpp.html" target="_top" xlink:title=" ">
<polygon fill="white" stroke="#666666" points="471.5,-129 321.5,-129 321.5,-110 471.5,-110 471.5,-129"/>
<text text-anchor="middle" x="396.5" y="-117" font-family="Helvetica,sans-Serif" font-size="10.00">abstract2DMapEncoder.hpp</text>
</a>
</g>
</g>
<!-- Node1&#45;&gt;Node2 -->
<g id="edge1_Node000001_Node000002" class="edge">
<title>Node1&#45;&gt;Node2</title>
<g id="a_edge1_Node000001_Node000002"><a xlink:title=" ">
<path fill="none" stroke="#63b8ff" d="M669.48,-228.79C618.94,-222.73 545.11,-210 485.5,-184 458.24,-172.11 431.01,-150.99 413.98,-136.39"/>
<polygon fill="#63b8ff" stroke="#63b8ff" points="415.89,-133.4 406.06,-129.43 411.27,-138.66 415.89,-133.4"/>
</a>
</g>
</g>
<!-- Node4 -->
<g id="Node000004" class="node">
<title>Node4</title>
<g id="a_Node000004"><a xlink:href="uvgvpcc_8hpp.html" target="_top" xlink:title=" ">
<polygon fill="white" stroke="#666666" points="560.5,-74 438.5,-74 438.5,-55 560.5,-55 560.5,-74"/>
<text text-anchor="middle" x="499.5" y="-62" font-family="Helvetica,sans-Serif" font-size="10.00">uvgvpcc/uvgvpcc.hpp</text>
</a>
</g>
</g>
<!-- Node1&#45;&gt;Node4 -->
<g id="edge29_Node000001_Node000004" class="edge">
<title>Node1&#45;&gt;Node4</title>
<g id="a_edge29_Node000001_Node000004"><a xlink:title=" ">
<path fill="none" stroke="#63b8ff" d="M669.37,-227.28C614.63,-219.79 538.73,-205.81 518.5,-184 493.19,-156.73 493.95,-109.84 496.72,-83.98"/>
<polygon fill="#63b8ff" stroke="#63b8ff" points="500.2,-84.37 498,-74.01 493.25,-83.48 500.2,-84.37"/>
</a>
</g>
</g>
<!-- Node5 -->
<g id="Node000005" class="node">
<title>Node5</title>
<g id="a_Node000005"><a xlink:title=" ">
<polygon fill="#e0e0e0" stroke="#999999" points="53,-19 0,-19 0,0 53,0 53,-19"/>
<text text-anchor="middle" x="26.5" y="-7" font-family="Helvetica,sans-Serif" font-size="10.00">cstddef</text>
</a>
</g>
</g>
<!-- Node1&#45;&gt;Node5 -->
<g id="edge22_Node000001_Node000005" class="edge">
<title>Node1&#45;&gt;Node5</title>
<g id="a_edge22_Node000001_Node000005"><a xlink:title=" ">
<path fill="none" stroke="#63b8ff" d="M669.29,-230.62C600.53,-225.49 484.28,-213.04 388.5,-184 333.9,-167.45 323.98,-153.6 272.5,-129 192.61,-90.82 98.33,-45.27 53.2,-23.43"/>
<polygon fill="#63b8ff" stroke="#63b8ff" points="54.61,-20.22 44.08,-19.01 51.56,-26.52 54.61,-20.22"/>
</a>
</g>
</g>
<!-- Node6 -->
<g id="Node000006" class="node">
<title>Node6</title>
<g id="a_Node000006"><a xlink:title=" ">
<polygon fill="#e0e0e0" stroke="#999999" points="121.5,-19 71.5,-19 71.5,0 121.5,0 121.5,-19"/>
<text text-anchor="middle" x="96.5" y="-7" font-family="Helvetica,sans-Serif" font-size="10.00">cstdint</text>
</a>
</g>
</g>
<!-- Node1&#45;&gt;Node6 -->
<g id="edge23_Node000001_Node000006" class="edge">
<title>Node1&#45;&gt;Node6</title>
<g id="a_edge23_Node000001_Node000006"><a xlink:title=" ">
<path fill="none" stroke="#63b8ff" d="M669.23,-227.05C611.99,-219.49 523.23,-205.53 448.5,-184 385.85,-165.95 371.41,-156.95 312.5,-129 240.54,-94.85 158.98,-47.68 119.86,-24.5"/>
<polygon fill="#63b8ff" stroke="#63b8ff" points="121.24,-21.25 110.86,-19.15 117.66,-27.27 121.24,-21.25"/>
</a>
</g>
</g>
<!-- Node8 -->
<g id="Node000008" class="node">
<title>Node8</title>
<g id="a_Node000008"><a xlink:title=" ">
<polygon fill="#e0e0e0" stroke="#999999" points="761.5,-19 703.5,-19 703.5,0 761.5,0 761.5,-19"/>
<text text-anchor="middle" x="732.5" y="-7" font-family="Helvetica,sans-Serif" font-size="10.00">memory</text>
</a>
</g>
</g>
<!-- Node1&#45;&gt;Node8 -->
<g id="edge25_Node000001_Node000008" class="edge">
<title>Node1&#45;&gt;Node8</title>
<g id="a_edge25_Node000001_Node000008"><a xlink:title=" ">
<path fill="none" stroke="#63b8ff" d="M728.76,-219.68C729.45,-180.76 731.38,-73.07 732.16,-29.33"/>
<polygon fill="#63b8ff" stroke="#63b8ff" points="735.66,-29.29 732.34,-19.23 728.67,-29.17 735.66,-29.29"/>
</a>
</g>
</g>
<!-- Node12 -->
<g id="Node000012" class="node">
<title>Node12</title>
<g id="a_Node000012"><a xlink:title=" ">
<polygon fill="#e0e0e0" stroke="#999999" points="823.5,-19 779.5,-19 779.5,0 823.5,0 823.5,-19"/>
<text text-anchor="middle" x="801.5" y="-7" font-family="Helvetica,sans-Serif" font-size="10.00">string</text>
</a>
</g>
</g>
<!-- Node1&#45;&gt;Node12 -->
<g id="edge27_Node000001_Node000012" class="edge">
<title>Node1&#45;&gt;Node12</title>
<g id="a_edge27_Node000001_Node000012"><a xlink:title=" ">
<path fill="none" stroke="#63b8ff" d="M730.14,-219.99C734.11,-189.09 745.89,-113.22 771.5,-55 775.81,-45.21 782.28,-35.25 788.12,-27.24"/>
<polygon fill="#63b8ff" stroke="#63b8ff" points="791.01,-29.22 794.28,-19.15 785.44,-24.98 791.01,-29.22"/>
</a>
</g>
</g>
<!-- Node13 -->
<g id="Node000013" class="node">
<title>Node13</title>
<g id="a_Node000013"><a xlink:title=" ">
<polygon fill="#e0e0e0" stroke="#999999" points="889,-19 842,-19 842,0 889,0 889,-19"/>
<text text-anchor="middle" x="865.5" y="-7" font-family="Helvetica,sans-Serif" font-size="10.00">vector</text>
</a>
</g>
</g>
<!-- Node1&#45;&gt;Node13 -->
<g id="edge28_Node000001_Node000013" class="edge">
<title>Node1&#45;&gt;Node13</title>
<g id="a_edge28_Node000001_Node000013"><a xlink:title=" ">
<path fill="none" stroke="#63b8ff" d="M737.28,-219.68C761.39,-180.35 828.56,-70.77 854.8,-27.96"/>
<polygon fill="#63b8ff" stroke="#63b8ff" points="857.91,-29.59 860.15,-19.23 851.94,-25.93 857.91,-29.59"/>
</a>
</g>
</g>
<!-- Node16 -->
<g id="Node000016" class="node">
<title>Node16</title>
<g id="a_Node000016"><a xlink:href="encoderKvazaar_8hpp.html" target="_top" xlink:title=" ">
<polygon fill="white" stroke="#666666" points="643.5,-184 527.5,-184 527.5,-165 643.5,-165 643.5,-184"/>
<text text-anchor="middle" x="585.5" y="-172" font-family="Helvetica,sans-Serif" font-size="10.00">encoderKvazaar.hpp</text>
</a>
</g>
</g>
<!-- Node1&#45;&gt;Node16 -->
<g id="edge15_Node000001_Node000016" class="edge">
<title>Node1&#45;&gt;Node16</title>
<g id="a_edge15_Node000001_Node000016"><a xlink:title=" ">
<path fill="none" stroke="#63b8ff" d="M694.25,-219.99C670.39,-210.23 638.85,-197.33 615.89,-187.93"/>
<polygon fill="#63b8ff" stroke="#63b8ff" points="617.2,-184.69 606.62,-184.14 614.55,-191.17 617.2,-184.69"/>
</a>
</g>
</g>
<!-- Node17 -->
<g id="Node000017" class="node">
<title>Node17</title>
<g id="a_Node000017"><a xlink:title=" ">
<polygon fill="#e0e0e0" stroke="#999999" points="679.5,-129 615.5,-129 615.5,-110 679.5,-110 679.5,-129"/>
<text text-anchor="middle" x="647.5" y="-117" font-family="Helvetica,sans-Serif" font-size="10.00">kvazaar.h</text>
</a>
</g>
</g>
<!-- Node1&#45;&gt;Node17 -->
<g id="edge19_Node000001_Node000017" class="edge">
<title>Node1&#45;&gt;Node17</title>
<g id="a_edge19_Node000001_Node000017"><a xlink:title=" ">
<path fill="none" stroke="#63b8ff" d="M718.24,-219.63C703.28,-198.65 675.51,-159.75 659.58,-137.42"/>
<polygon fill="#63b8ff" stroke="#63b8ff" points="662.39,-135.34 653.73,-129.23 656.69,-139.4 662.39,-135.34"/>
</a>
</g>
</g>
<!-- Node18 -->
<g id="Node000018" class="node">
<title>Node18</title>
<g id="a_Node000018"><a xlink:title=" ">
<polygon fill="#e0e0e0" stroke="#999999" points="865.5,-184 813.5,-184 813.5,-165 865.5,-165 865.5,-184"/>
<text text-anchor="middle" x="839.5" y="-172" font-family="Helvetica,sans-Serif" font-size="10.00">cassert</text>
</a>
</g>
</g>
<!-- Node1&#45;&gt;Node18 -->
<g id="edge20_Node000001_Node000018" class="edge">
<title>Node1&#45;&gt;Node18</title>
<g id="a_edge20_Node000001_Node000018"><a xlink:title=" ">
<path fill="none" stroke="#63b8ff" d="M755.09,-219.99C772.95,-210.58 796.34,-198.24 813.98,-188.95"/>
<polygon fill="#63b8ff" stroke="#63b8ff" points="815.89,-191.9 823.11,-184.14 812.63,-185.71 815.89,-191.9"/>
</a>
</g>
</g>
<!-- Node19 -->
<g id="Node000019" class="node">
<title>Node19</title>
<g id="a_Node000019"><a xlink:title=" ">
<polygon fill="#e0e0e0" stroke="#999999" points="1007,-129 954,-129 954,-110 1007,-110 1007,-129"/>
<text text-anchor="middle" x="980.5" y="-117" font-family="Helvetica,sans-Serif" font-size="10.00">cstdarg</text>
</a>
</g>
</g>
<!-- Node1&#45;&gt;Node19 -->
<g id="edge21_Node000001_Node000019" class="edge">
<title>Node1&#45;&gt;Node19</title>
<g id="a_edge21_Node000001_Node000019"><a xlink:title=" ">
<path fill="none" stroke="#63b8ff" d="M777.84,-219.94C806.61,-211.04 843.28,-198.5 874.5,-184 905.51,-169.59 939.01,-148.51 959.86,-134.65"/>
<polygon fill="#63b8ff" stroke="#63b8ff" points="961.9,-137.5 968.24,-129.01 957.99,-131.69 961.9,-137.5"/>
</a>
</g>
</g>
<!-- Node20 -->
<g id="Node000020" class="node">
<title>Node20</title>
<g id="a_Node000020"><a xlink:title=" ">
<polygon fill="#e0e0e0" stroke="#999999" points="987,-184 922,-184 922,-165 987,-165 987,-184"/>
<text text-anchor="middle" x="954.5" y="-172" font-family="Helvetica,sans-Serif" font-size="10.00">functional</text>
</a>
</g>
</g>
<!-- Node1&#45;&gt;Node20 -->
<g id="edge24_Node000001_Node000020" class="edge">
<title>Node1&#45;&gt;Node20</title>
<g id="a_edge24_Node000001_Node000020"><a xlink:title=" ">
<path fill="none" stroke="#63b8ff" d="M782.63,-219.99C822.26,-209.73 875.29,-196 911.92,-186.52"/>
<polygon fill="#63b8ff" stroke="#63b8ff" points="912.98,-189.86 921.78,-183.97 911.23,-183.09 912.98,-189.86"/>
</a>
</g>
</g>
<!-- Node21 -->
<g id="Node000021" class="node">
<title>Node21</title>
<g id="a_Node000021"><a xlink:title=" ">
<polygon fill="#e0e0e0" stroke="#999999" points="1070,-184 1005,-184 1005,-165 1070,-165 1070,-184"/>
<text text-anchor="middle" x="1037.5" y="-172" font-family="Helvetica,sans-Serif" font-size="10.00">stdexcept</text>
</a>
</g>
</g>
<!-- Node1&#45;&gt;Node21 -->
<g id="edge26_Node000001_Node000021" class="edge">
<title>Node1&#45;&gt;Node21</title>
<g id="a_edge26_Node000001_Node000021"><a xlink:title=" ">
<path fill="none" stroke="#63b8ff" d="M787.67,-223.17C839.59,-213.62 917.39,-199.16 995,-184.07"/>
<polygon fill="#63b8ff" stroke="#63b8ff" points="995.8,-187.48 1004.95,-182.14 994.47,-180.61 995.8,-187.48"/>
</a>
</g>
</g>
<!-- Node22 -->
<g id="Node000022" class="node">
<title>Node22</title>
<g id="a_Node000022"><a xlink:href="catchLibLog_8hpp.html" target="_top" xlink:title=" ">
<polygon fill="white" stroke="#666666" points="1183,-184 1088,-184 1088,-165 1183,-165 1183,-184"/>
<text text-anchor="middle" x="1135.5" y="-172" font-family="Helvetica,sans-Serif" font-size="10.00">catchLibLog.hpp</text>
</a>
</g>
</g>
<!-- Node1&#45;&gt;Node22 -->
<g id="edge30_Node000001_Node000022" class="edge">
<title>Node1&#45;&gt;Node22</title>
<g id="a_edge30_Node000001_Node000022"><a xlink:title=" ">
<path fill="none" stroke="#63b8ff" d="M787.52,-225.76C855.18,-216.28 969.69,-200.11 1077.75,-184.25"/>
<polygon fill="#63b8ff" stroke="#63b8ff" points="1078.46,-187.68 1087.85,-182.76 1077.44,-180.76 1078.46,-187.68"/>
</a>
</g>
</g>
<!-- Node3 -->
<g id="Node000003" class="node">
<title>Node3</title>
<g id="a_Node000003"><a xlink:title=" ">
<polygon fill="#e0e0e0" stroke="#999999" points="420,-74 365,-74 365,-55 420,-55 420,-74"/>
<text text-anchor="middle" x="392.5" y="-62" font-family="Helvetica,sans-Serif" font-size="10.00">fstream</text>
</a>
</g>
</g>
<!-- Node2&#45;&gt;Node3 -->
<g id="edge2_Node000002_Node000003" class="edge">
<title>Node2&#45;&gt;Node3</title>
<g id="a_edge2_Node000002_Node000003"><a xlink:title=" ">
<path fill="none" stroke="#63b8ff" d="M395.84,-109.75C395.32,-102.8 394.56,-92.85 393.91,-84.13"/>
<polygon fill="#63b8ff" stroke="#63b8ff" points="397.39,-83.8 393.15,-74.09 390.41,-84.32 397.39,-83.8"/>
</a>
</g>
</g>
<!-- Node2&#45;&gt;Node4 -->
<g id="edge3_Node000002_Node000004" class="edge">
<title>Node2&#45;&gt;Node4</title>
<g id="a_edge3_Node000002_Node000004"><a xlink:title=" ">
<path fill="none" stroke="#63b8ff" d="M413.05,-109.98C429.39,-101.57 454.63,-88.59 473.63,-78.81"/>
<polygon fill="#63b8ff" stroke="#63b8ff" points="475.36,-81.86 482.65,-74.17 472.16,-75.63 475.36,-81.86"/>
</a>
</g>
</g>
<!-- Node4&#45;&gt;Node5 -->
<g id="edge4_Node000004_Node000005" class="edge">
<title>Node4&#45;&gt;Node5</title>
<g id="a_edge4_Node000004_Node000005"><a xlink:title=" ">
<path fill="none" stroke="#63b8ff" d="M438.32,-56.09C435,-55.72 431.71,-55.35 428.5,-55 269.34,-37.65 225.52,-45.5 63.49,-18.93"/>
<polygon fill="#63b8ff" stroke="#63b8ff" points="63.59,-15.4 53.16,-17.21 62.45,-22.3 63.59,-15.4"/>
</a>
</g>
</g>
<!-- Node4&#45;&gt;Node6 -->
<g id="edge5_Node000004_Node000006" class="edge">
<title>Node4&#45;&gt;Node6</title>
<g id="a_edge5_Node000004_Node000006"><a xlink:title=" ">
<path fill="none" stroke="#63b8ff" d="M438.5,-56.19C345.6,-45.06 175.45,-24.64 131.59,-18.64"/>
<polygon fill="#63b8ff" stroke="#63b8ff" points="132.08,-15.18 121.67,-17.17 131.05,-22.1 132.08,-15.18"/>
</a>
</g>
</g>
<!-- Node7 -->
<g id="Node000007" class="node">
<title>Node7</title>
<g id="a_Node000007"><a xlink:title=" ">
<polygon fill="#e0e0e0" stroke="#999999" points="619.5,-19 559.5,-19 559.5,0 619.5,0 619.5,-19"/>
<text text-anchor="middle" x="589.5" y="-7" font-family="Helvetica,sans-Serif" font-size="10.00">iostream</text>
</a>
</g>
</g>
<!-- Node4&#45;&gt;Node7 -->
<g id="edge6_Node000004_Node000007" class="edge">
<title>Node4&#45;&gt;Node7</title>
<g id="a_edge6_Node000004_Node000007"><a xlink:title=" ">
<path fill="none" stroke="#63b8ff" d="M513.96,-54.98C527.92,-46.77 549.29,-34.18 565.75,-24.49"/>
<polygon fill="#63b8ff" stroke="#63b8ff" points="567.94,-27.26 574.78,-19.17 564.38,-21.23 567.94,-27.26"/>
</a>
</g>
</g>
<!-- Node4&#45;&gt;Node8 -->
<g id="edge7_Node000004_Node000008" class="edge">
<title>Node4&#45;&gt;Node8</title>
<g id="a_edge7_Node000004_Node000008"><a xlink:title=" ">
<path fill="none" stroke="#63b8ff" d="M536.94,-54.98C579.81,-45.23 649.73,-29.33 693.32,-19.41"/>
<polygon fill="#63b8ff" stroke="#63b8ff" points="694.3,-22.78 703.27,-17.15 692.74,-15.95 694.3,-22.78"/>
</a>
</g>
</g>
<!-- Node9 -->
<g id="Node000009" class="node">
<title>Node9</title>
<g id="a_Node000009"><a xlink:title=" ">
<polygon fill="#e0e0e0" stroke="#999999" points="685,-19 638,-19 638,0 685,0 685,-19"/>
<text text-anchor="middle" x="661.5" y="-7" font-family="Helvetica,sans-Serif" font-size="10.00">queue</text>
</a>
</g>
</g>
<!-- Node4&#45;&gt;Node9 -->
<g id="edge8_Node000004_Node000009" class="edge">
<title>Node4&#45;&gt;Node9</title>
<g id="a_edge8_Node000004_Node000009"><a xlink:title=" ">
<path fill="none" stroke="#63b8ff" d="M525.53,-54.98C553.41,-45.86 597.75,-31.36 628.17,-21.4"/>
<polygon fill="#63b8ff" stroke="#63b8ff" points="629.49,-24.65 637.91,-18.22 627.31,-18 629.49,-24.65"/>
</a>
</g>
</g>
<!-- Node10 -->
<g id="Node000010" class="node">
<title>Node10</title>
<g id="a_Node000010"><a xlink:title=" ">
<polygon fill="#e0e0e0" stroke="#999999" points="211,-19 140,-19 140,0 211,0 211,-19"/>
<text text-anchor="middle" x="175.5" y="-7" font-family="Helvetica,sans-Serif" font-size="10.00">semaphore</text>
</a>
</g>
</g>
<!-- Node4&#45;&gt;Node10 -->
<g id="edge9_Node000004_Node000010" class="edge">
<title>Node4&#45;&gt;Node10</title>
<g id="a_edge9_Node000004_Node000010"><a xlink:title=" ">
<path fill="none" stroke="#63b8ff" d="M443.05,-54.98C388.83,-46.69 304.37,-33.48 221.45,-19.12"/>
<polygon fill="#63b8ff" stroke="#63b8ff" points="221.8,-15.63 211.34,-17.37 220.6,-22.53 221.8,-15.63"/>
</a>
</g>
</g>
<!-- Node11 -->
<g id="Node000011" class="node">
<title>Node11</title>
<g id="a_Node000011"><a xlink:title=" ">
<polygon fill="#e0e0e0" stroke="#999999" points="285.5,-19 229.5,-19 229.5,0 285.5,0 285.5,-19"/>
<text text-anchor="middle" x="257.5" y="-7" font-family="Helvetica,sans-Serif" font-size="10.00">sstream</text>
</a>
</g>
</g>
<!-- Node4&#45;&gt;Node11 -->
<g id="edge10_Node000004_Node000011" class="edge">
<title>Node4&#45;&gt;Node11</title>
<g id="a_edge10_Node000004_Node000011"><a xlink:title=" ">
<path fill="none" stroke="#63b8ff" d="M459.4,-54.95C420.15,-46.54 358.4,-33.22 295.82,-19.28"/>
<polygon fill="#63b8ff" stroke="#63b8ff" points="296.3,-15.8 285.77,-17.03 294.77,-22.63 296.3,-15.8"/>
</a>
</g>
</g>
<!-- Node4&#45;&gt;Node12 -->
<g id="edge11_Node000004_Node000012" class="edge">
<title>Node4&#45;&gt;Node12</title>
<g id="a_edge11_Node000004_Node000012"><a xlink:title=" ">
<path fill="none" stroke="#63b8ff" d="M560.66,-55.33C613.55,-47.83 692.22,-35.68 769.33,-19.07"/>
<polygon fill="#63b8ff" stroke="#63b8ff" points="770.19,-22.46 779.22,-16.91 768.7,-15.62 770.19,-22.46"/>
</a>
</g>
</g>
<!-- Node4&#45;&gt;Node13 -->
<g id="edge12_Node000004_Node000013" class="edge">
<title>Node4&#45;&gt;Node13</title>
<g id="a_edge12_Node000004_Node000013"><a xlink:title=" ">
<path fill="none" stroke="#63b8ff" d="M560.62,-57.54C625.52,-50.72 731.24,-38.19 831.76,-18.92"/>
<polygon fill="#63b8ff" stroke="#63b8ff" points="832.64,-22.31 841.78,-16.97 831.3,-15.44 832.64,-22.31"/>
</a>
</g>
</g>
<!-- Node14 -->
<g id="Node000014" class="node">
<title>Node14</title>
<g id="a_Node000014"><a xlink:title=" ">
<polygon fill="#e0e0e0" stroke="#999999" points="395.5,-19 303.5,-19 303.5,0 395.5,0 395.5,-19"/>
<text text-anchor="middle" x="349.5" y="-7" font-family="Helvetica,sans-Serif" font-size="10.00">../utils/utils.hpp</text>
</a>
</g>
</g>
<!-- Node4&#45;&gt;Node14 -->
<g id="edge13_Node000004_Node000014" class="edge">
<title>Node4&#45;&gt;Node14</title>
<g id="a_edge13_Node000004_Node000014"><a xlink:title=" ">
<path fill="none" stroke="#63b8ff" d="M475.4,-54.98C450.62,-46.23 411.8,-32.51 383.81,-22.62"/>
<polygon fill="#63b8ff" stroke="#63b8ff" points="384.63,-19.2 374.04,-19.17 382.3,-25.8 384.63,-19.2"/>
</a>
</g>
</g>
<!-- Node15 -->
<g id="Node000015" class="node">
<title>Node15</title>
<g id="a_Node000015"><a xlink:title=" ">
<polygon fill="#e0e0e0" stroke="#999999" points="541,-19 414,-19 414,0 541,0 541,-19"/>
<text text-anchor="middle" x="477.5" y="-7" font-family="Helvetica,sans-Serif" font-size="10.00">../utils/parameters.hpp</text>
</a>
</g>
</g>
<!-- Node4&#45;&gt;Node15 -->
<g id="edge14_Node000004_Node000015" class="edge">
<title>Node4&#45;&gt;Node15</title>
<g id="a_edge14_Node000004_Node000015"><a xlink:title=" ">
<path fill="none" stroke="#63b8ff" d="M495.87,-54.75C492.92,-47.65 488.67,-37.4 484.99,-28.56"/>
<polygon fill="#63b8ff" stroke="#63b8ff" points="488.13,-26.98 481.07,-19.09 481.67,-29.67 488.13,-26.98"/>
</a>
</g>
</g>
<!-- Node16&#45;&gt;Node2 -->
<g id="edge18_Node000016_Node000002" class="edge">
<title>Node16&#45;&gt;Node2</title>
<g id="a_edge18_Node000016_Node000002"><a xlink:title=" ">
<path fill="none" stroke="#63b8ff" d="M555.13,-164.98C523.13,-156.01 472.54,-141.82 437.12,-131.89"/>
<polygon fill="#63b8ff" stroke="#63b8ff" points="437.68,-128.41 427.1,-129.08 435.79,-135.15 437.68,-128.41"/>
</a>
</g>
</g>
<!-- Node16&#45;&gt;Node4 -->
<g id="edge17_Node000016_Node000004" class="edge">
<title>Node16&#45;&gt;Node4</title>
<g id="a_edge17_Node000016_Node000004"><a xlink:title=" ">
<path fill="none" stroke="#63b8ff" d="M578.46,-164.66C564.09,-146.61 531.17,-105.28 512.7,-82.08"/>
<polygon fill="#63b8ff" stroke="#63b8ff" points="515.36,-79.8 506.39,-74.16 509.89,-84.16 515.36,-79.8"/>
</a>
</g>
</g>
<!-- Node16&#45;&gt;Node17 -->
<g id="edge16_Node000016_Node000017" class="edge">
<title>Node16&#45;&gt;Node17</title>
<g id="a_edge16_Node000016_Node000017"><a xlink:title=" ">
<path fill="none" stroke="#63b8ff" d="M595.46,-164.98C604.63,-157.15 618.44,-145.34 629.53,-135.86"/>
<polygon fill="#63b8ff" stroke="#63b8ff" points="632.03,-138.33 637.36,-129.17 627.48,-133.01 632.03,-138.33"/>
</a>
</g>
</g>
<!-- Node22&#45;&gt;Node19 -->
<g id="edge31_Node000022_Node000019" class="edge">
<title>Node22&#45;&gt;Node19</title>
<g id="a_edge31_Node000022_Node000019"><a xlink:title=" ">
<path fill="none" stroke="#63b8ff" d="M1110.6,-164.98C1084.8,-156.16 1044.28,-142.31 1015.32,-132.41"/>
<polygon fill="#63b8ff" stroke="#63b8ff" points="1016.19,-129.01 1005.6,-129.08 1013.93,-135.63 1016.19,-129.01"/>
</a>
</g>
</g>
<!-- Node23 -->
<g id="Node000023" class="node">
<title>Node23</title>
<g id="a_Node000023"><a xlink:title=" ">
<polygon fill="#e0e0e0" stroke="#999999" points="1158.5,-129 1112.5,-129 1112.5,-110 1158.5,-110 1158.5,-129"/>
<text text-anchor="middle" x="1135.5" y="-117" font-family="Helvetica,sans-Serif" font-size="10.00">cstdio</text>
</a>
</g>
</g>
<!-- Node22&#45;&gt;Node23 -->
<g id="edge32_Node000022_Node000023" class="edge">
<title>Node22&#45;&gt;Node23</title>
<g id="a_edge32_Node000022_Node000023"><a xlink:title=" ">
<path fill="none" stroke="#63b8ff" d="M1135.5,-164.75C1135.5,-157.8 1135.5,-147.85 1135.5,-139.13"/>
<polygon fill="#63b8ff" stroke="#63b8ff" points="1139,-139.09 1135.5,-129.09 1132,-139.09 1139,-139.09"/>
</a>
</g>
</g>
</g>
</svg>
