<?xml version="1.0" encoding="UTF-8" standalone="no"?>
<!DOCTYPE svg PUBLIC "-//W3C//DTD SVG 1.1//EN"
 "http://www.w3.org/Graphics/SVG/1.1/DTD/svg11.dtd">
<!-- Generated by graphviz version 2.43.0 (0)
 -->
<!-- Title: src/libuvgvpccenc/utils/fileExport.hpp Pages: 1 -->
<svg width="1206pt" height="258pt"
 viewBox="0.00 0.00 1205.98 258.00" xmlns="http://www.w3.org/2000/svg" xmlns:xlink="http://www.w3.org/1999/xlink">
<g id="graph0" class="graph" transform="scale(1 1) rotate(0) translate(4 254)">
<title>src/libuvgvpccenc/utils/fileExport.hpp</title>
<!-- Node1 -->
<g id="Node000001" class="node">
<title>Node1</title>
<g id="a_Node000001"><a xlink:title=" ">
<polygon fill="#999999" stroke="#666666" points="458.49,-250 330.49,-250 330.49,-220 458.49,-220 458.49,-250"/>
<text text-anchor="start" x="338.49" y="-238" font-family="Helvetica,sans-Serif" font-size="10.00">src/libuvgvpccenc/utils</text>
<text text-anchor="middle" x="394.49" y="-227" font-family="Helvetica,sans-Serif" font-size="10.00">/fileExport.hpp</text>
</a>
</g>
</g>
<!-- Node2 -->
<g id="Node000002" class="node">
<title>Node2</title>
<g id="a_Node000002"><a xlink:title=" ">
<polygon fill="#e0e0e0" stroke="#999999" points="70.99,-74 17.99,-74 17.99,-55 70.99,-55 70.99,-74"/>
<text text-anchor="middle" x="44.49" y="-62" font-family="Helvetica,sans-Serif" font-size="10.00">cstddef</text>
</a>
</g>
</g>
<!-- Node1&#45;&gt;Node2 -->
<g id="edge1_Node000001_Node000002" class="edge">
<title>Node1&#45;&gt;Node2</title>
<g id="a_edge1_Node000001_Node000002"><a xlink:title=" ">
<path fill="none" stroke="#63b8ff" d="M330.46,-231.5C271.17,-227.19 181.68,-215.51 110.49,-184 73.99,-167.84 57.06,-164.84 39.49,-129 32.64,-115.04 34.83,-97.25 38.19,-84.06"/>
<polygon fill="#63b8ff" stroke="#63b8ff" points="41.61,-84.82 41.11,-74.24 34.9,-82.83 41.61,-84.82"/>
</a>
</g>
</g>
<!-- Node3 -->
<g id="Node000003" class="node">
<title>Node3</title>
<g id="a_Node000003"><a xlink:title=" ">
<polygon fill="#e0e0e0" stroke="#999999" points="423.49,-129 365.49,-129 365.49,-110 423.49,-110 423.49,-129"/>
<text text-anchor="middle" x="394.49" y="-117" font-family="Helvetica,sans-Serif" font-size="10.00">memory</text>
</a>
</g>
</g>
<!-- Node1&#45;&gt;Node3 -->
<g id="edge2_Node000001_Node000003" class="edge">
<title>Node1&#45;&gt;Node3</title>
<g id="a_edge2_Node000001_Node000003"><a xlink:title=" ">
<path fill="none" stroke="#63b8ff" d="M394.49,-219.63C394.49,-199.21 394.49,-161.81 394.49,-139.24"/>
<polygon fill="#63b8ff" stroke="#63b8ff" points="397.99,-139.23 394.49,-129.23 390.99,-139.23 397.99,-139.23"/>
</a>
</g>
</g>
<!-- Node4 -->
<g id="Node000004" class="node">
<title>Node4</title>
<g id="a_Node000004"><a xlink:title=" ">
<polygon fill="#e0e0e0" stroke="#999999" points="1197.49,-19 1153.49,-19 1153.49,0 1197.49,0 1197.49,-19"/>
<text text-anchor="middle" x="1175.49" y="-7" font-family="Helvetica,sans-Serif" font-size="10.00">string</text>
</a>
</g>
</g>
<!-- Node1&#45;&gt;Node4 -->
<g id="edge3_Node000001_Node000004" class="edge">
<title>Node1&#45;&gt;Node4</title>
<g id="a_edge3_Node000001_Node000004"><a xlink:title=" ">
<path fill="none" stroke="#63b8ff" d="M458.78,-233.99C625.91,-232.65 1068.52,-220.36 1176.49,-129 1202.25,-107.2 1199.94,-88.12 1193.49,-55 1191.7,-45.8 1188.01,-36.09 1184.43,-28.1"/>
<polygon fill="#63b8ff" stroke="#63b8ff" points="1187.58,-26.57 1180.11,-19.06 1181.26,-29.59 1187.58,-26.57"/>
</a>
</g>
</g>
<!-- Node5 -->
<g id="Node000005" class="node">
<title>Node5</title>
<g id="a_Node000005"><a xlink:title=" ">
<polygon fill="#e0e0e0" stroke="#999999" points="488.99,-129 441.99,-129 441.99,-110 488.99,-110 488.99,-129"/>
<text text-anchor="middle" x="465.49" y="-117" font-family="Helvetica,sans-Serif" font-size="10.00">vector</text>
</a>
</g>
</g>
<!-- Node1&#45;&gt;Node5 -->
<g id="edge4_Node000001_Node000005" class="edge">
<title>Node1&#45;&gt;Node5</title>
<g id="a_edge4_Node000001_Node000005"><a xlink:title=" ">
<path fill="none" stroke="#63b8ff" d="M403.48,-219.63C416.54,-198.75 440.72,-160.09 454.72,-137.72"/>
<polygon fill="#63b8ff" stroke="#63b8ff" points="457.69,-139.56 460.03,-129.23 451.76,-135.85 457.69,-139.56"/>
</a>
</g>
</g>
<!-- Node6 -->
<g id="Node000006" class="node">
<title>Node6</title>
<g id="a_Node000006"><a xlink:href="constants_8hpp.html" target="_top" xlink:title=" ">
<polygon fill="white" stroke="#666666" points="228.99,-184 119.99,-184 119.99,-165 228.99,-165 228.99,-184"/>
<text text-anchor="middle" x="174.49" y="-172" font-family="Helvetica,sans-Serif" font-size="10.00">utils/constants.hpp</text>
</a>
</g>
</g>
<!-- Node1&#45;&gt;Node6 -->
<g id="edge5_Node000001_Node000006" class="edge">
<title>Node1&#45;&gt;Node6</title>
<g id="a_edge5_Node000001_Node000006"><a xlink:title=" ">
<path fill="none" stroke="#63b8ff" d="M341.79,-219.99C303.5,-209.8 252.35,-196.2 216.72,-186.73"/>
<polygon fill="#63b8ff" stroke="#63b8ff" points="217.22,-183.24 206.66,-184.05 215.42,-190.01 217.22,-183.24"/>
</a>
</g>
</g>
<!-- Node12 -->
<g id="Node000012" class="node">
<title>Node12</title>
<g id="a_Node000012"><a xlink:href="utils_8hpp.html" target="_top" xlink:title=" ">
<polygon fill="white" stroke="#666666" points="270.99,-129 169.99,-129 169.99,-110 270.99,-110 270.99,-129"/>
<text text-anchor="middle" x="220.49" y="-117" font-family="Helvetica,sans-Serif" font-size="10.00">uvgutils/utils.hpp</text>
</a>
</g>
</g>
<!-- Node1&#45;&gt;Node12 -->
<g id="edge26_Node000001_Node000012" class="edge">
<title>Node1&#45;&gt;Node12</title>
<g id="a_edge26_Node000001_Node000012"><a xlink:title=" ">
<path fill="none" stroke="#63b8ff" d="M372.8,-219.85C339.5,-198.13 276.09,-156.77 242.55,-134.89"/>
<polygon fill="#63b8ff" stroke="#63b8ff" points="244.22,-131.8 233.94,-129.27 240.4,-137.67 244.22,-131.8"/>
</a>
</g>
</g>
<!-- Node18 -->
<g id="Node000018" class="node">
<title>Node18</title>
<g id="a_Node000018"><a xlink:href="uvgvpcc_8hpp.html" target="_top" xlink:title=" ">
<polygon fill="white" stroke="#666666" points="654.49,-184 532.49,-184 532.49,-165 654.49,-165 654.49,-184"/>
<text text-anchor="middle" x="593.49" y="-172" font-family="Helvetica,sans-Serif" font-size="10.00">uvgvpcc/uvgvpcc.hpp</text>
</a>
</g>
</g>
<!-- Node1&#45;&gt;Node18 -->
<g id="edge27_Node000001_Node000018" class="edge">
<title>Node1&#45;&gt;Node18</title>
<g id="a_edge27_Node000001_Node000018"><a xlink:title=" ">
<path fill="none" stroke="#63b8ff" d="M442.15,-219.99C476.5,-209.89 522.27,-196.44 554.45,-186.98"/>
<polygon fill="#63b8ff" stroke="#63b8ff" points="555.79,-190.23 564.39,-184.05 553.81,-183.52 555.79,-190.23"/>
</a>
</g>
</g>
<!-- Node6&#45;&gt;Node2 -->
<g id="edge7_Node000006_Node000002" class="edge">
<title>Node6&#45;&gt;Node2</title>
<g id="a_edge7_Node000006_Node000002"><a xlink:title=" ">
<path fill="none" stroke="#63b8ff" d="M119.93,-166.93C95.26,-161.06 67.99,-149.97 51.49,-129 41.74,-116.61 40.66,-98.39 41.63,-84.64"/>
<polygon fill="#63b8ff" stroke="#63b8ff" points="45.14,-84.7 42.78,-74.37 38.19,-83.92 45.14,-84.7"/>
</a>
</g>
</g>
<!-- Node7 -->
<g id="Node000007" class="node">
<title>Node7</title>
<g id="a_Node000007"><a xlink:title=" ">
<polygon fill="#e0e0e0" stroke="#999999" points="445.49,-74 403.49,-74 403.49,-55 445.49,-55 445.49,-74"/>
<text text-anchor="middle" x="424.49" y="-62" font-family="Helvetica,sans-Serif" font-size="10.00">array</text>
</a>
</g>
</g>
<!-- Node6&#45;&gt;Node7 -->
<g id="edge6_Node000006_Node000007" class="edge">
<title>Node6&#45;&gt;Node7</title>
<g id="a_edge6_Node000006_Node000007"><a xlink:title=" ">
<path fill="none" stroke="#63b8ff" d="M204.9,-164.98C232.22,-156.93 273.21,-143.9 307.49,-129 341.39,-114.26 378.61,-93.15 401.76,-79.38"/>
<polygon fill="#63b8ff" stroke="#63b8ff" points="403.71,-82.29 410.48,-74.15 400.11,-76.29 403.71,-82.29"/>
</a>
</g>
</g>
<!-- Node8 -->
<g id="Node000008" class="node">
<title>Node8</title>
<g id="a_Node000008"><a xlink:title=" ">
<polygon fill="#e0e0e0" stroke="#999999" points="201.49,-74 151.49,-74 151.49,-55 201.49,-55 201.49,-74"/>
<text text-anchor="middle" x="176.49" y="-62" font-family="Helvetica,sans-Serif" font-size="10.00">cstdint</text>
</a>
</g>
</g>
<!-- Node6&#45;&gt;Node8 -->
<g id="edge8_Node000006_Node000008" class="edge">
<title>Node6&#45;&gt;Node8</title>
<g id="a_edge8_Node000006_Node000008"><a xlink:title=" ">
<path fill="none" stroke="#63b8ff" d="M170.42,-164.92C165.16,-152.76 157.04,-129.8 160.49,-110 162.06,-101 165.28,-91.42 168.43,-83.46"/>
<polygon fill="#63b8ff" stroke="#63b8ff" points="171.71,-84.69 172.38,-74.12 165.26,-81.97 171.71,-84.69"/>
</a>
</g>
</g>
<!-- Node9 -->
<g id="Node000009" class="node">
<title>Node9</title>
<g id="a_Node000009"><a xlink:title=" ">
<polygon fill="#e0e0e0" stroke="#999999" points="206.49,-19 150.49,-19 150.49,0 206.49,0 206.49,-19"/>
<text text-anchor="middle" x="178.49" y="-7" font-family="Helvetica,sans-Serif" font-size="10.00">iomanip</text>
</a>
</g>
</g>
<!-- Node6&#45;&gt;Node9 -->
<g id="edge9_Node000006_Node000009" class="edge">
<title>Node6&#45;&gt;Node9</title>
<g id="a_edge9_Node000006_Node000009"><a xlink:title=" ">
<path fill="none" stroke="#63b8ff" d="M119.71,-165.01C93.2,-158.67 62.27,-147.73 39.49,-129 11.94,-106.36 -13.3,-83.23 8.49,-55 24.44,-34.33 95.06,-21.41 140.11,-15.11"/>
<polygon fill="#63b8ff" stroke="#63b8ff" points="140.7,-18.57 150.14,-13.76 139.76,-11.63 140.7,-18.57"/>
</a>
</g>
</g>
<!-- Node10 -->
<g id="Node000010" class="node">
<title>Node10</title>
<g id="a_Node000010"><a xlink:title=" ">
<polygon fill="#e0e0e0" stroke="#999999" points="133.49,-74 89.49,-74 89.49,-55 133.49,-55 133.49,-74"/>
<text text-anchor="middle" x="111.49" y="-62" font-family="Helvetica,sans-Serif" font-size="10.00">limits</text>
</a>
</g>
</g>
<!-- Node6&#45;&gt;Node10 -->
<g id="edge10_Node000006_Node000010" class="edge">
<title>Node6&#45;&gt;Node10</title>
<g id="a_edge10_Node000006_Node000010"><a xlink:title=" ">
<path fill="none" stroke="#63b8ff" d="M169.33,-164.66C158.95,-146.85 135.33,-106.37 121.7,-83.01"/>
<polygon fill="#63b8ff" stroke="#63b8ff" points="124.6,-81.03 116.54,-74.16 118.56,-84.56 124.6,-81.03"/>
</a>
</g>
</g>
<!-- Node11 -->
<g id="Node000011" class="node">
<title>Node11</title>
<g id="a_Node000011"><a xlink:title=" ">
<polygon fill="#e0e0e0" stroke="#999999" points="385.49,-74 329.49,-74 329.49,-55 385.49,-55 385.49,-74"/>
<text text-anchor="middle" x="357.49" y="-62" font-family="Helvetica,sans-Serif" font-size="10.00">sstream</text>
</a>
</g>
</g>
<!-- Node6&#45;&gt;Node11 -->
<g id="edge11_Node000006_Node000011" class="edge">
<title>Node6&#45;&gt;Node11</title>
<g id="a_edge11_Node000006_Node000011"><a xlink:title=" ">
<path fill="none" stroke="#63b8ff" d="M200.78,-164.89C222.88,-157.1 254.87,-144.48 280.49,-129 303.26,-115.24 326.42,-95.14 341.31,-81.26"/>
<polygon fill="#63b8ff" stroke="#63b8ff" points="343.83,-83.69 348.67,-74.26 339.01,-78.61 343.83,-83.69"/>
</a>
</g>
</g>
<!-- Node6&#45;&gt;Node12 -->
<g id="edge12_Node000006_Node000012" class="edge">
<title>Node6&#45;&gt;Node12</title>
<g id="a_edge12_Node000006_Node000012"><a xlink:title=" ">
<path fill="none" stroke="#63b8ff" d="M182.09,-164.75C188.65,-157.18 198.31,-146.05 206.3,-136.84"/>
<polygon fill="#63b8ff" stroke="#63b8ff" points="209.12,-138.94 213.03,-129.09 203.84,-134.35 209.12,-138.94"/>
</a>
</g>
</g>
<!-- Node12&#45;&gt;Node2 -->
<g id="edge14_Node000012_Node000002" class="edge">
<title>Node12&#45;&gt;Node2</title>
<g id="a_edge14_Node000012_Node000002"><a xlink:title=" ">
<path fill="none" stroke="#63b8ff" d="M192.21,-109.98C162.01,-100.89 114.03,-86.44 80.99,-76.49"/>
<polygon fill="#63b8ff" stroke="#63b8ff" points="81.84,-73.09 71.25,-73.56 79.82,-79.79 81.84,-73.09"/>
</a>
</g>
</g>
<!-- Node12&#45;&gt;Node7 -->
<g id="edge13_Node000012_Node000007" class="edge">
<title>Node12&#45;&gt;Node7</title>
<g id="a_edge13_Node000012_Node000007"><a xlink:title=" ">
<path fill="none" stroke="#63b8ff" d="M254.89,-109.98C288.05,-101.7 339.88,-88.61 393.52,-74.21"/>
<polygon fill="#63b8ff" stroke="#63b8ff" points="394.46,-77.58 403.2,-71.6 392.64,-70.83 394.46,-77.58"/>
</a>
</g>
</g>
<!-- Node12&#45;&gt;Node8 -->
<g id="edge15_Node000012_Node000008" class="edge">
<title>Node12&#45;&gt;Node8</title>
<g id="a_edge15_Node000012_Node000008"><a xlink:title=" ">
<path fill="none" stroke="#63b8ff" d="M213.22,-109.75C206.94,-102.18 197.7,-91.05 190.06,-81.84"/>
<polygon fill="#63b8ff" stroke="#63b8ff" points="192.7,-79.55 183.62,-74.09 187.31,-84.02 192.7,-79.55"/>
</a>
</g>
</g>
<!-- Node12&#45;&gt;Node9 -->
<g id="edge16_Node000012_Node000009" class="edge">
<title>Node12&#45;&gt;Node9</title>
<g id="a_edge16_Node000012_Node000009"><a xlink:title=" ">
<path fill="none" stroke="#63b8ff" d="M220.39,-109.95C219.97,-97.43 218.12,-73.58 210.49,-55 206.35,-44.92 199.5,-34.95 193.21,-27.01"/>
<polygon fill="#63b8ff" stroke="#63b8ff" points="195.84,-24.7 186.74,-19.28 190.47,-29.2 195.84,-24.7"/>
</a>
</g>
</g>
<!-- Node12&#45;&gt;Node10 -->
<g id="edge17_Node000012_Node000010" class="edge">
<title>Node12&#45;&gt;Node10</title>
<g id="a_edge17_Node000012_Node000010"><a xlink:title=" ">
<path fill="none" stroke="#63b8ff" d="M202.98,-109.98C185.52,-101.5 158.48,-88.35 138.32,-78.54"/>
<polygon fill="#63b8ff" stroke="#63b8ff" points="139.84,-75.4 129.32,-74.17 136.78,-81.69 139.84,-75.4"/>
</a>
</g>
</g>
<!-- Node12&#45;&gt;Node11 -->
<g id="edge18_Node000012_Node000011" class="edge">
<title>Node12&#45;&gt;Node11</title>
<g id="a_edge18_Node000012_Node000011"><a xlink:title=" ">
<path fill="none" stroke="#63b8ff" d="M242.5,-109.98C264.94,-101.3 299.97,-87.75 325.48,-77.88"/>
<polygon fill="#63b8ff" stroke="#63b8ff" points="327.01,-81.04 335.08,-74.17 324.49,-74.51 327.01,-81.04"/>
</a>
</g>
</g>
<!-- Node13 -->
<g id="Node000013" class="node">
<title>Node13</title>
<g id="a_Node000013"><a xlink:href="log_8hpp.html" target="_top" xlink:title=" ">
<polygon fill="white" stroke="#666666" points="310.99,-74 257.99,-74 257.99,-55 310.99,-55 310.99,-74"/>
<text text-anchor="middle" x="284.49" y="-62" font-family="Helvetica,sans-Serif" font-size="10.00">log.hpp</text>
</a>
</g>
</g>
<!-- Node12&#45;&gt;Node13 -->
<g id="edge19_Node000012_Node000013" class="edge">
<title>Node12&#45;&gt;Node13</title>
<g id="a_edge19_Node000012_Node000013"><a xlink:title=" ">
<path fill="none" stroke="#63b8ff" d="M230.77,-109.98C240.33,-102.07 254.77,-90.11 266.27,-80.58"/>
<polygon fill="#63b8ff" stroke="#63b8ff" points="268.55,-83.24 274.02,-74.17 264.09,-77.85 268.55,-83.24"/>
</a>
</g>
</g>
<!-- Node13&#45;&gt;Node4 -->
<g id="edge25_Node000013_Node000004" class="edge">
<title>Node13&#45;&gt;Node4</title>
<g id="a_edge25_Node000013_Node000004"><a xlink:title=" ">
<path fill="none" stroke="#63b8ff" d="M311.12,-56.65C314.27,-56.01 317.44,-55.44 320.49,-55 638.72,-9.53 1029.49,-9.13 1143.1,-10.1"/>
<polygon fill="#63b8ff" stroke="#63b8ff" points="1143.19,-13.6 1153.22,-10.19 1143.25,-6.6 1143.19,-13.6"/>
</a>
</g>
</g>
<!-- Node13&#45;&gt;Node9 -->
<g id="edge22_Node000013_Node000009" class="edge">
<title>Node13&#45;&gt;Node9</title>
<g id="a_edge22_Node000013_Node000009"><a xlink:title=" ">
<path fill="none" stroke="#63b8ff" d="M267.46,-54.98C250.56,-46.54 224.42,-33.47 204.85,-23.68"/>
<polygon fill="#63b8ff" stroke="#63b8ff" points="206.34,-20.51 195.83,-19.17 203.21,-26.77 206.34,-20.51"/>
</a>
</g>
</g>
<!-- Node14 -->
<g id="Node000014" class="node">
<title>Node14</title>
<g id="a_Node000014"><a xlink:title=" ">
<polygon fill="#e0e0e0" stroke="#999999" points="274.49,-19 224.49,-19 224.49,0 274.49,0 274.49,-19"/>
<text text-anchor="middle" x="249.49" y="-7" font-family="Helvetica,sans-Serif" font-size="10.00">chrono</text>
</a>
</g>
</g>
<!-- Node13&#45;&gt;Node14 -->
<g id="edge20_Node000013_Node000014" class="edge">
<title>Node13&#45;&gt;Node14</title>
<g id="a_edge20_Node000013_Node000014"><a xlink:title=" ">
<path fill="none" stroke="#63b8ff" d="M278.71,-54.75C273.87,-47.42 266.81,-36.73 260.84,-27.7"/>
<polygon fill="#63b8ff" stroke="#63b8ff" points="263.59,-25.5 255.16,-19.09 257.75,-29.36 263.59,-25.5"/>
</a>
</g>
</g>
<!-- Node15 -->
<g id="Node000015" class="node">
<title>Node15</title>
<g id="a_Node000015"><a xlink:title=" ">
<polygon fill="#e0e0e0" stroke="#999999" points="345.99,-19 292.99,-19 292.99,0 345.99,0 345.99,-19"/>
<text text-anchor="middle" x="319.49" y="-7" font-family="Helvetica,sans-Serif" font-size="10.00">cstdarg</text>
</a>
</g>
</g>
<!-- Node13&#45;&gt;Node15 -->
<g id="edge21_Node000013_Node000015" class="edge">
<title>Node13&#45;&gt;Node15</title>
<g id="a_edge21_Node000013_Node000015"><a xlink:title=" ">
<path fill="none" stroke="#63b8ff" d="M290.27,-54.75C295.11,-47.42 302.17,-36.73 308.13,-27.7"/>
<polygon fill="#63b8ff" stroke="#63b8ff" points="311.23,-29.36 313.82,-19.09 305.39,-25.5 311.23,-29.36"/>
</a>
</g>
</g>
<!-- Node16 -->
<g id="Node000016" class="node">
<title>Node16</title>
<g id="a_Node000016"><a xlink:title=" ">
<polygon fill="#e0e0e0" stroke="#999999" points="558.49,-19 498.49,-19 498.49,0 558.49,0 558.49,-19"/>
<text text-anchor="middle" x="528.49" y="-7" font-family="Helvetica,sans-Serif" font-size="10.00">iostream</text>
</a>
</g>
</g>
<!-- Node13&#45;&gt;Node16 -->
<g id="edge23_Node000013_Node000016" class="edge">
<title>Node13&#45;&gt;Node16</title>
<g id="a_edge23_Node000013_Node000016"><a xlink:title=" ">
<path fill="none" stroke="#63b8ff" d="M311.21,-57.12C314.34,-56.4 317.48,-55.68 320.49,-55 378.9,-41.86 446.76,-27.51 488.66,-18.76"/>
<polygon fill="#63b8ff" stroke="#63b8ff" points="489.4,-22.18 498.48,-16.71 487.98,-15.33 489.4,-22.18"/>
</a>
</g>
</g>
<!-- Node17 -->
<g id="Node000017" class="node">
<title>Node17</title>
<g id="a_Node000017"><a xlink:title=" ">
<polygon fill="#e0e0e0" stroke="#999999" points="412.49,-19 364.49,-19 364.49,0 412.49,0 412.49,-19"/>
<text text-anchor="middle" x="388.49" y="-7" font-family="Helvetica,sans-Serif" font-size="10.00">mutex</text>
</a>
</g>
</g>
<!-- Node13&#45;&gt;Node17 -->
<g id="edge24_Node000013_Node000017" class="edge">
<title>Node13&#45;&gt;Node17</title>
<g id="a_edge24_Node000013_Node000017"><a xlink:title=" ">
<path fill="none" stroke="#63b8ff" d="M301.2,-54.98C317.7,-46.57 343.19,-33.59 362.37,-23.81"/>
<polygon fill="#63b8ff" stroke="#63b8ff" points="364.16,-26.83 371.48,-19.17 360.98,-20.59 364.16,-26.83"/>
</a>
</g>
</g>
<!-- Node18&#45;&gt;Node2 -->
<g id="edge30_Node000018_Node000002" class="edge">
<title>Node18&#45;&gt;Node2</title>
<g id="a_edge30_Node000018_Node000002"><a xlink:title=" ">
<path fill="none" stroke="#63b8ff" d="M532.42,-170.22C430.04,-164.21 228.32,-150.1 160.49,-129 124.46,-117.79 86.88,-94.8 64.59,-79.78"/>
<polygon fill="#63b8ff" stroke="#63b8ff" points="66.52,-76.85 56.29,-74.07 62.55,-82.62 66.52,-76.85"/>
</a>
</g>
</g>
<!-- Node18&#45;&gt;Node3 -->
<g id="edge33_Node000018_Node000003" class="edge">
<title>Node18&#45;&gt;Node3</title>
<g id="a_edge33_Node000018_Node000003"><a xlink:title=" ">
<path fill="none" stroke="#63b8ff" d="M561.52,-164.98C526.77,-155.73 471.22,-140.94 433.82,-130.98"/>
<polygon fill="#63b8ff" stroke="#63b8ff" points="434.35,-127.49 423.79,-128.3 432.55,-134.26 434.35,-127.49"/>
</a>
</g>
</g>
<!-- Node18&#45;&gt;Node4 -->
<g id="edge37_Node000018_Node000004" class="edge">
<title>Node18&#45;&gt;Node4</title>
<g id="a_edge37_Node000018_Node000004"><a xlink:title=" ">
<path fill="none" stroke="#63b8ff" d="M654.5,-172.86C792.64,-170.82 1120.22,-162.48 1156.49,-129 1183.95,-103.65 1182.26,-55.65 1178.78,-29.18"/>
<polygon fill="#63b8ff" stroke="#63b8ff" points="1182.24,-28.64 1177.26,-19.29 1175.32,-29.7 1182.24,-28.64"/>
</a>
</g>
</g>
<!-- Node18&#45;&gt;Node5 -->
<g id="edge38_Node000018_Node000005" class="edge">
<title>Node18&#45;&gt;Node5</title>
<g id="a_edge38_Node000018_Node000005"><a xlink:title=" ">
<path fill="none" stroke="#63b8ff" d="M572.92,-164.98C552.05,-156.34 519.52,-142.87 495.72,-133.02"/>
<polygon fill="#63b8ff" stroke="#63b8ff" points="497.01,-129.76 486.43,-129.17 494.33,-136.23 497.01,-129.76"/>
</a>
</g>
</g>
<!-- Node18&#45;&gt;Node7 -->
<g id="edge28_Node000018_Node000007" class="edge">
<title>Node18&#45;&gt;Node7</title>
<g id="a_edge28_Node000018_Node000007"><a xlink:title=" ">
<path fill="none" stroke="#63b8ff" d="M592.61,-164.78C590.78,-151.15 585.3,-124.84 569.49,-110 538.26,-80.7 488.2,-70.67 455.83,-67.25"/>
<polygon fill="#63b8ff" stroke="#63b8ff" points="455.86,-63.74 445.58,-66.32 455.23,-70.71 455.86,-63.74"/>
</a>
</g>
</g>
<!-- Node18&#45;&gt;Node8 -->
<g id="edge31_Node000018_Node000008" class="edge">
<title>Node18&#45;&gt;Node8</title>
<g id="a_edge31_Node000018_Node000008"><a xlink:title=" ">
<path fill="none" stroke="#63b8ff" d="M581.98,-164.85C560.83,-149.1 516.29,-116.77 498.49,-110 485.17,-104.94 292.51,-80.17 211.73,-69.94"/>
<polygon fill="#63b8ff" stroke="#63b8ff" points="211.91,-66.43 201.55,-68.65 211.03,-73.38 211.91,-66.43"/>
</a>
</g>
</g>
<!-- Node18&#45;&gt;Node11 -->
<g id="edge36_Node000018_Node000011" class="edge">
<title>Node18&#45;&gt;Node11</title>
<g id="a_edge36_Node000018_Node000011"><a xlink:title=" ">
<path fill="none" stroke="#63b8ff" d="M587.36,-164.62C577.33,-150.78 556.04,-124.18 531.49,-110 525.52,-106.55 444.79,-86.64 395.42,-74.65"/>
<polygon fill="#63b8ff" stroke="#63b8ff" points="396.24,-71.25 385.7,-72.29 394.59,-78.05 396.24,-71.25"/>
</a>
</g>
</g>
<!-- Node18&#45;&gt;Node12 -->
<g id="edge41_Node000018_Node000012" class="edge">
<title>Node18&#45;&gt;Node12</title>
<g id="a_edge41_Node000018_Node000012"><a xlink:title=" ">
<path fill="none" stroke="#63b8ff" d="M533.56,-164.98C464.18,-155.13 350.53,-138.98 280.93,-129.09"/>
<polygon fill="#63b8ff" stroke="#63b8ff" points="281.39,-125.62 270.99,-127.68 280.4,-132.55 281.39,-125.62"/>
</a>
</g>
</g>
<!-- Node18&#45;&gt;Node16 -->
<g id="edge32_Node000018_Node000016" class="edge">
<title>Node18&#45;&gt;Node16</title>
<g id="a_edge32_Node000018_Node000016"><a xlink:title=" ">
<path fill="none" stroke="#63b8ff" d="M594.25,-164.63C595.04,-152.12 595.42,-128.75 589.49,-110 579.36,-77.98 556.77,-45.71 542.11,-26.94"/>
<polygon fill="#63b8ff" stroke="#63b8ff" points="544.81,-24.71 535.82,-19.09 539.34,-29.08 544.81,-24.71"/>
</a>
</g>
</g>
<!-- Node19 -->
<g id="Node000019" class="node">
<title>Node19</title>
<g id="a_Node000019"><a xlink:title=" ">
<polygon fill="#e0e0e0" stroke="#999999" points="711.49,-129 659.49,-129 659.49,-110 711.49,-110 711.49,-129"/>
<text text-anchor="middle" x="685.49" y="-117" font-family="Helvetica,sans-Serif" font-size="10.00">cassert</text>
</a>
</g>
</g>
<!-- Node18&#45;&gt;Node19 -->
<g id="edge29_Node000018_Node000019" class="edge">
<title>Node18&#45;&gt;Node19</title>
<g id="a_edge29_Node000018_Node000019"><a xlink:title=" ">
<path fill="none" stroke="#63b8ff" d="M608.27,-164.98C622.67,-156.69 644.8,-143.94 661.68,-134.22"/>
<polygon fill="#63b8ff" stroke="#63b8ff" points="663.52,-137.19 670.44,-129.17 660.03,-131.13 663.52,-137.19"/>
</a>
</g>
</g>
<!-- Node20 -->
<g id="Node000020" class="node">
<title>Node20</title>
<g id="a_Node000020"><a xlink:title=" ">
<polygon fill="#e0e0e0" stroke="#999999" points="776.99,-129 729.99,-129 729.99,-110 776.99,-110 776.99,-129"/>
<text text-anchor="middle" x="753.49" y="-117" font-family="Helvetica,sans-Serif" font-size="10.00">queue</text>
</a>
</g>
</g>
<!-- Node18&#45;&gt;Node20 -->
<g id="edge34_Node000018_Node000020" class="edge">
<title>Node18&#45;&gt;Node20</title>
<g id="a_edge34_Node000018_Node000020"><a xlink:title=" ">
<path fill="none" stroke="#63b8ff" d="M619.2,-164.98C646.66,-155.89 690.28,-141.44 720.31,-131.49"/>
<polygon fill="#63b8ff" stroke="#63b8ff" points="721.54,-134.77 729.93,-128.3 719.34,-128.13 721.54,-134.77"/>
</a>
</g>
</g>
<!-- Node21 -->
<g id="Node000021" class="node">
<title>Node21</title>
<g id="a_Node000021"><a xlink:title=" ">
<polygon fill="#e0e0e0" stroke="#999999" points="865.99,-129 794.99,-129 794.99,-110 865.99,-110 865.99,-129"/>
<text text-anchor="middle" x="830.49" y="-117" font-family="Helvetica,sans-Serif" font-size="10.00">semaphore</text>
</a>
</g>
</g>
<!-- Node18&#45;&gt;Node21 -->
<g id="edge35_Node000018_Node000021" class="edge">
<title>Node18&#45;&gt;Node21</title>
<g id="a_edge35_Node000018_Node000021"><a xlink:title=" ">
<path fill="none" stroke="#63b8ff" d="M631.57,-164.98C673.33,-155.65 740.31,-140.67 784.85,-130.71"/>
<polygon fill="#63b8ff" stroke="#63b8ff" points="785.84,-134.07 794.83,-128.47 784.31,-127.24 785.84,-134.07"/>
</a>
</g>
</g>
<!-- Node22 -->
<g id="Node000022" class="node">
<title>Node22</title>
<g id="a_Node000022"><a xlink:title=" ">
<polygon fill="#e0e0e0" stroke="#999999" points="1010.99,-129 883.99,-129 883.99,-110 1010.99,-110 1010.99,-129"/>
<text text-anchor="middle" x="947.49" y="-117" font-family="Helvetica,sans-Serif" font-size="10.00">../utils/parameters.hpp</text>
</a>
</g>
</g>
<!-- Node18&#45;&gt;Node22 -->
<g id="edge39_Node000018_Node000022" class="edge">
<title>Node18&#45;&gt;Node22</title>
<g id="a_edge39_Node000018_Node000022"><a xlink:title=" ">
<path fill="none" stroke="#63b8ff" d="M650.37,-164.98C713.11,-155.59 813.98,-140.49 880.5,-130.53"/>
<polygon fill="#63b8ff" stroke="#63b8ff" points="881.09,-133.98 890.46,-129.04 880.05,-127.06 881.09,-133.98"/>
</a>
</g>
</g>
<!-- Node23 -->
<g id="Node000023" class="node">
<title>Node23</title>
<g id="a_Node000023"><a xlink:title=" ">
<polygon fill="#e0e0e0" stroke="#999999" points="1147.49,-129 1029.49,-129 1029.49,-110 1147.49,-110 1147.49,-129"/>
<text text-anchor="middle" x="1088.49" y="-117" font-family="Helvetica,sans-Serif" font-size="10.00">../utils/constants.hpp</text>
</a>
</g>
</g>
<!-- Node18&#45;&gt;Node23 -->
<g id="edge40_Node000018_Node000023" class="edge">
<title>Node18&#45;&gt;Node23</title>
<g id="a_edge40_Node000018_Node000023"><a xlink:title=" ">
<path fill="none" stroke="#63b8ff" d="M654.7,-167.52C735.62,-159.52 882.93,-144.66 1018.97,-129.15"/>
<polygon fill="#63b8ff" stroke="#63b8ff" points="1019.62,-132.6 1029.16,-127.99 1018.83,-125.65 1019.62,-132.6"/>
</a>
</g>
</g>
</g>
</svg>
