<?xml version="1.0" encoding="UTF-8" standalone="no"?>
<!DOCTYPE svg PUBLIC "-//W3C//DTD SVG 1.1//EN"
 "http://www.w3.org/Graphics/SVG/1.1/DTD/svg11.dtd">
<!-- Generated by graphviz version 2.43.0 (0)
 -->
<!-- Title: src/lib/utils/fileExport.cpp Pages: 1 -->
<!--zoomable 192 -->

<svg id="main" version="1.1" xmlns="http://www.w3.org/2000/svg" xmlns:xlink="http://www.w3.org/1999/xlink" xml:space="preserve" onload="init(evt)">
<style type="text/css"><![CDATA[
.node, .edge {opacity: 0.7;}
.node.selected, .edge.selected {opacity: 1;}
.edge:hover path { stroke: red; }
.edge:hover polygon { stroke: red; fill: red; }
]]></style>

<defs>
  <circle id="rim" cx="0" cy="0" r="7"/>
  <circle id="rim2" cx="0" cy="0" r="3.5"/>
  <g id="zoomPlus">
    <use xlink:href="#rim" fill="#404040"><set attributeName="fill" to="#808080" begin="zoomplus.mouseover" end="zoomplus.mouseout"/></use>
    <path d="M-4,0h8M0,-4v8" fill="none" stroke="white" stroke-width="1.5" pointer-events="none"/>
  </g>
  <g id="zoomMin">
    <use xlink:href="#rim" fill="#404040"><set attributeName="fill" to="#808080" begin="zoomminus.mouseover" end="zoomminus.mouseout"/></use>
    <path d="M-4,0h8" fill="none" stroke="white" stroke-width="1.5" pointer-events="none"/>
  </g>
  <g id="arrowUp" transform="translate(30 24)">
    <use xlink:href="#rim"/>
    <path pointer-events="none" fill="none" stroke="white" stroke-width="1.5" d="M0,-3.0v7 M-2.5,-0.5L0,-3.0L2.5,-0.5"/>
  </g>
  <g id="arrowRight" transform="rotate(90) translate(36 -43)">
    <use xlink:href="#rim"/>
    <path pointer-events="none" fill="none" stroke="white" stroke-width="1.5" d="M0,-3.0v7 M-2.5,-0.5L0,-3.0L2.5,-0.5"/>
  </g>
  <g id="arrowDown" transform="rotate(180) translate(-30 -48)">
    <use xlink:href="#rim"/>
    <path pointer-events="none" fill="none" stroke="white" stroke-width="1.5" d="M0,-3.0v7 M-2.5,-0.5L0,-3.0L2.5,-0.5"/>
  </g>
  <g id="arrowLeft" transform="rotate(270) translate(-36 17)">
    <use xlink:href="#rim"/>
    <path pointer-events="none" fill="none" stroke="white" stroke-width="1.5" d="M0,-3.0v7 M-2.5,-0.5L0,-3.0L2.5,-0.5"/>
  </g>
  <g id="resetDef">
    <use xlink:href="#rim2" fill="#404040"><set attributeName="fill" to="#808080" begin="reset.mouseover" end="reset.mouseout"/></use>
  </g>
</defs>
<script type="application/ecmascript">
var viewWidth = 1398;
var viewHeight = 192;
var sectionId = 'dynsection-0';
</script>
<script type="application/ecmascript" xlink:href="svg.min.js"/>
<svg id="graph" class="graph">
<g id="viewport">
<title>src/lib/utils/fileExport.cpp</title>
<!-- Node1 -->
<g id="Node000001" class="node">
<title>Node1</title>
<g id="a_Node000001"><a xlink:title=" ">
<polygon fill="#999999" stroke="#666666" points="845,-184 705,-184 705,-165 845,-165 845,-184"/>
<text text-anchor="middle" x="775" y="-172" font-family="Helvetica,sans-Serif" font-size="10.00">src/lib/utils/fileExport.cpp</text>
</a>
</g>
</g>
<!-- Node2 -->
<g id="Node000002" class="node">
<title>Node2</title>
<g id="a_Node000002"><a xlink:href="fileExport_8hpp.html" target="_top" xlink:title=" ">
<polygon fill="white" stroke="#666666" points="371,-129 287,-129 287,-110 371,-110 371,-129"/>
<text text-anchor="middle" x="329" y="-117" font-family="Helvetica,sans-Serif" font-size="10.00">fileExport.hpp</text>
</a>
</g>
</g>
<!-- Node1&#45;&gt;Node2 -->
<g id="edge1_Node000001_Node000002" class="edge">
<title>Node1&#45;&gt;Node2</title>
<g id="a_edge1_Node000001_Node000002"><a xlink:title=" ">
<path fill="none" stroke="#63b8ff" d="M704.8,-166.28C626.65,-158.06 496.63,-143.84 385,-129 383.74,-128.83 382.46,-128.66 381.17,-128.48"/>
<polygon fill="#63b8ff" stroke="#63b8ff" points="381.56,-125 371.17,-127.07 380.59,-131.94 381.56,-125"/>
</a>
</g>
</g>
<!-- Node3 -->
<g id="Node000003" class="node">
<title>Node3</title>
<g id="a_Node000003"><a xlink:title=" ">
<polygon fill="#e0e0e0" stroke="#999999" points="58,-19 0,-19 0,0 58,0 58,-19"/>
<text text-anchor="middle" x="29" y="-7" font-family="Helvetica,sans-Serif" font-size="10.00">memory</text>
</a>
</g>
</g>
<!-- Node1&#45;&gt;Node3 -->
<g id="edge30_Node000001_Node000003" class="edge">
<title>Node1&#45;&gt;Node3</title>
<g id="a_edge30_Node000001_Node000003"><a xlink:title=" ">
<path fill="none" stroke="#63b8ff" d="M704.56,-171.57C578.39,-167.48 319.03,-156 233,-129 158.74,-105.7 82.33,-51.7 47.87,-25.41"/>
<polygon fill="#63b8ff" stroke="#63b8ff" points="49.72,-22.42 39.67,-19.07 45.44,-27.96 49.72,-22.42"/>
</a>
</g>
</g>
<!-- Node4 -->
<g id="Node000004" class="node">
<title>Node4</title>
<g id="a_Node000004"><a xlink:title=" ">
<polygon fill="#e0e0e0" stroke="#999999" points="123.5,-19 76.5,-19 76.5,0 123.5,0 123.5,-19"/>
<text text-anchor="middle" x="100" y="-7" font-family="Helvetica,sans-Serif" font-size="10.00">vector</text>
</a>
</g>
</g>
<!-- Node1&#45;&gt;Node4 -->
<g id="edge36_Node000001_Node000004" class="edge">
<title>Node1&#45;&gt;Node4</title>
<g id="a_edge36_Node000001_Node000004"><a xlink:title=" ">
<path fill="none" stroke="#63b8ff" d="M704.69,-171.47C586.84,-167.36 354.82,-156.03 278,-129 212.02,-105.79 146.75,-52.56 116.88,-26.07"/>
<polygon fill="#63b8ff" stroke="#63b8ff" points="118.87,-23.15 109.1,-19.06 114.19,-28.35 118.87,-23.15"/>
</a>
</g>
</g>
<!-- Node5 -->
<g id="Node000005" class="node">
<title>Node5</title>
<g id="a_Node000005"><a xlink:href="utils_8hpp.html" target="_top" xlink:title=" ">
<polygon fill="white" stroke="#666666" points="624.5,-74 541.5,-74 541.5,-55 624.5,-55 624.5,-74"/>
<text text-anchor="middle" x="583" y="-62" font-family="Helvetica,sans-Serif" font-size="10.00">utils/utils.hpp</text>
</a>
</g>
</g>
<!-- Node1&#45;&gt;Node5 -->
<g id="edge42_Node000001_Node000005" class="edge">
<title>Node1&#45;&gt;Node5</title>
<g id="a_edge42_Node000001_Node000005"><a xlink:title=" ">
<path fill="none" stroke="#63b8ff" d="M704.84,-171.24C669.84,-166.56 629.27,-155.23 602,-129 589.96,-117.42 585.46,-98.55 583.83,-84.38"/>
<polygon fill="#63b8ff" stroke="#63b8ff" points="587.31,-83.96 583.04,-74.26 580.33,-84.5 587.31,-83.96"/>
</a>
</g>
</g>
<!-- Node6 -->
<g id="Node000006" class="node">
<title>Node6</title>
<g id="a_Node000006"><a xlink:title=" ">
<polygon fill="#e0e0e0" stroke="#999999" points="662,-19 620,-19 620,0 662,0 662,-19"/>
<text text-anchor="middle" x="641" y="-7" font-family="Helvetica,sans-Serif" font-size="10.00">array</text>
</a>
</g>
</g>
<!-- Node1&#45;&gt;Node6 -->
<g id="edge21_Node000001_Node000006" class="edge">
<title>Node1&#45;&gt;Node6</title>
<g id="a_edge21_Node000001_Node000006"><a xlink:title=" ">
<path fill="none" stroke="#63b8ff" d="M704.91,-169.86C643.31,-162.22 559.47,-139.61 533,-74 529.84,-66.17 528.3,-62.02 533,-55 537.59,-48.15 579.93,-32.05 610.2,-21.21"/>
<polygon fill="#63b8ff" stroke="#63b8ff" points="611.68,-24.4 619.94,-17.76 609.34,-17.8 611.68,-24.4"/>
</a>
</g>
</g>
<!-- Node7 -->
<g id="Node000007" class="node">
<title>Node7</title>
<g id="a_Node000007"><a xlink:title=" ">
<polygon fill="#e0e0e0" stroke="#999999" points="528,-19 478,-19 478,0 528,0 528,-19"/>
<text text-anchor="middle" x="503" y="-7" font-family="Helvetica,sans-Serif" font-size="10.00">cstdint</text>
</a>
</g>
</g>
<!-- Node1&#45;&gt;Node7 -->
<g id="edge24_Node000001_Node000007" class="edge">
<title>Node1&#45;&gt;Node7</title>
<g id="a_edge24_Node000001_Node000007"><a xlink:title=" ">
<path fill="none" stroke="#63b8ff" d="M704.81,-166.41C648.61,-159.49 575.45,-147.32 552,-129 520.38,-104.3 508.99,-55.63 505.02,-29"/>
<polygon fill="#63b8ff" stroke="#63b8ff" points="508.49,-28.53 503.74,-19.06 501.55,-29.43 508.49,-28.53"/>
</a>
</g>
</g>
<!-- Node8 -->
<g id="Node000008" class="node">
<title>Node8</title>
<g id="a_Node000008"><a xlink:title=" ">
<polygon fill="#e0e0e0" stroke="#999999" points="724,-19 680,-19 680,0 724,0 724,-19"/>
<text text-anchor="middle" x="702" y="-7" font-family="Helvetica,sans-Serif" font-size="10.00">limits</text>
</a>
</g>
</g>
<!-- Node1&#45;&gt;Node8 -->
<g id="edge29_Node000001_Node000008" class="edge">
<title>Node1&#45;&gt;Node8</title>
<g id="a_edge29_Node000001_Node000008"><a xlink:title=" ">
<path fill="none" stroke="#63b8ff" d="M775.61,-164.78C776.66,-144.19 776.92,-91.52 756,-55 748.9,-42.61 736.93,-32.21 726.06,-24.59"/>
<polygon fill="#63b8ff" stroke="#63b8ff" points="727.98,-21.66 717.7,-19.09 724.13,-27.51 727.98,-21.66"/>
</a>
</g>
</g>
<!-- Node10 -->
<g id="Node000010" class="node">
<title>Node10</title>
<g id="a_Node000010"><a xlink:title=" ">
<polygon fill="#e0e0e0" stroke="#999999" points="938,-19 882,-19 882,0 938,0 938,-19"/>
<text text-anchor="middle" x="910" y="-7" font-family="Helvetica,sans-Serif" font-size="10.00">iomanip</text>
</a>
</g>
</g>
<!-- Node1&#45;&gt;Node10 -->
<g id="edge27_Node000001_Node000010" class="edge">
<title>Node1&#45;&gt;Node10</title>
<g id="a_edge27_Node000001_Node000010"><a xlink:title=" ">
<path fill="none" stroke="#63b8ff" d="M781.75,-164.74C797.08,-144.91 835.87,-95.2 870,-55 878.07,-45.5 887.36,-35.13 894.96,-26.79"/>
<polygon fill="#63b8ff" stroke="#63b8ff" points="897.71,-28.97 901.88,-19.24 892.54,-24.24 897.71,-28.97"/>
</a>
</g>
</g>
<!-- Node11 -->
<g id="Node000011" class="node">
<title>Node11</title>
<g id="a_Node000011"><a xlink:href="uvgvpcc_8hpp.html" target="_top" xlink:title=" ">
<polygon fill="white" stroke="#666666" points="409,-74 287,-74 287,-55 409,-55 409,-74"/>
<text text-anchor="middle" x="348" y="-62" font-family="Helvetica,sans-Serif" font-size="10.00">uvgvpcc/uvgvpcc.hpp</text>
</a>
</g>
</g>
<!-- Node1&#45;&gt;Node11 -->
<g id="edge50_Node000001_Node000011" class="edge">
<title>Node1&#45;&gt;Node11</title>
<g id="a_edge50_Node000001_Node000011"><a xlink:title=" ">
<path fill="none" stroke="#63b8ff" d="M704.89,-169.37C617.04,-163.37 472.06,-150.57 423,-129 398.49,-118.23 375.84,-96.8 361.99,-81.83"/>
<polygon fill="#63b8ff" stroke="#63b8ff" points="364.52,-79.4 355.24,-74.28 359.3,-84.07 364.52,-79.4"/>
</a>
</g>
</g>
<!-- Node12 -->
<g id="Node000012" class="node">
<title>Node12</title>
<g id="a_Node000012"><a xlink:title=" ">
<polygon fill="#e0e0e0" stroke="#999999" points="459.5,-19 406.5,-19 406.5,0 459.5,0 459.5,-19"/>
<text text-anchor="middle" x="433" y="-7" font-family="Helvetica,sans-Serif" font-size="10.00">cstddef</text>
</a>
</g>
</g>
<!-- Node1&#45;&gt;Node12 -->
<g id="edge23_Node000001_Node000012" class="edge">
<title>Node1&#45;&gt;Node12</title>
<g id="a_edge23_Node000001_Node000012"><a xlink:title=" ">
<path fill="none" stroke="#63b8ff" d="M704.86,-173.31C653.55,-170.3 583.94,-160.02 531,-129 488.93,-104.34 457,-54.54 442.16,-28.03"/>
<polygon fill="#63b8ff" stroke="#63b8ff" points="445.17,-26.24 437.32,-19.11 439.02,-29.57 445.17,-26.24"/>
</a>
</g>
</g>
<!-- Node16 -->
<g id="Node000016" class="node">
<title>Node16</title>
<g id="a_Node000016"><a xlink:title=" ">
<polygon fill="#e0e0e0" stroke="#999999" points="786,-19 742,-19 742,0 786,0 786,-19"/>
<text text-anchor="middle" x="764" y="-7" font-family="Helvetica,sans-Serif" font-size="10.00">string</text>
</a>
</g>
</g>
<!-- Node1&#45;&gt;Node16 -->
<g id="edge34_Node000001_Node000016" class="edge">
<title>Node1&#45;&gt;Node16</title>
<g id="a_edge34_Node000001_Node000016"><a xlink:title=" ">
<path fill="none" stroke="#63b8ff" d="M778.6,-164.82C782.06,-155.99 787.03,-141.81 789,-129 793.99,-96.49 797.33,-86.82 789,-55 786.45,-45.26 781.25,-35.41 776.24,-27.46"/>
<polygon fill="#63b8ff" stroke="#63b8ff" points="779.11,-25.46 770.63,-19.12 773.31,-29.37 779.11,-25.46"/>
</a>
</g>
</g>
<!-- Node18 -->
<g id="Node000018" class="node">
<title>Node18</title>
<g id="a_Node000018"><a xlink:title=" ">
<polygon fill="#e0e0e0" stroke="#999999" points="1007,-129 955,-129 955,-110 1007,-110 1007,-129"/>
<text text-anchor="middle" x="981" y="-117" font-family="Helvetica,sans-Serif" font-size="10.00">cassert</text>
</a>
</g>
</g>
<!-- Node1&#45;&gt;Node18 -->
<g id="edge22_Node000001_Node000018" class="edge">
<title>Node1&#45;&gt;Node18</title>
<g id="a_edge22_Node000001_Node000018"><a xlink:title=" ">
<path fill="none" stroke="#63b8ff" d="M808.1,-164.98C845.58,-155.34 906.44,-139.68 945.06,-129.75"/>
<polygon fill="#63b8ff" stroke="#63b8ff" points="946.03,-133.11 954.85,-127.23 944.29,-126.33 946.03,-133.11"/>
</a>
</g>
</g>
<!-- Node19 -->
<g id="Node000019" class="node">
<title>Node19</title>
<g id="a_Node000019"><a xlink:title=" ">
<polygon fill="#e0e0e0" stroke="#999999" points="1093,-129 1025,-129 1025,-110 1093,-110 1093,-129"/>
<text text-anchor="middle" x="1059" y="-117" font-family="Helvetica,sans-Serif" font-size="10.00">filesystem</text>
</a>
</g>
</g>
<!-- Node1&#45;&gt;Node19 -->
<g id="edge25_Node000001_Node000019" class="edge">
<title>Node1&#45;&gt;Node19</title>
<g id="a_edge25_Node000001_Node000019"><a xlink:title=" ">
<path fill="none" stroke="#63b8ff" d="M822.14,-164.98C868.56,-156.54 941.77,-143.13 1014.49,-129.27"/>
<polygon fill="#63b8ff" stroke="#63b8ff" points="1015.57,-132.63 1024.74,-127.31 1014.26,-125.75 1015.57,-132.63"/>
</a>
</g>
</g>
<!-- Node20 -->
<g id="Node000020" class="node">
<title>Node20</title>
<g id="a_Node000020"><a xlink:title=" ">
<polygon fill="#e0e0e0" stroke="#999999" points="1166.5,-129 1111.5,-129 1111.5,-110 1166.5,-110 1166.5,-129"/>
<text text-anchor="middle" x="1139" y="-117" font-family="Helvetica,sans-Serif" font-size="10.00">fstream</text>
</a>
</g>
</g>
<!-- Node1&#45;&gt;Node20 -->
<g id="edge26_Node000001_Node000020" class="edge">
<title>Node1&#45;&gt;Node20</title>
<g id="a_edge26_Node000001_Node000020"><a xlink:title=" ">
<path fill="none" stroke="#63b8ff" d="M845.14,-165.82C909.28,-158.37 1006.98,-145.96 1101.19,-128.99"/>
<polygon fill="#63b8ff" stroke="#63b8ff" points="1101.96,-132.41 1111.18,-127.18 1100.71,-125.52 1101.96,-132.41"/>
</a>
</g>
</g>
<!-- Node21 -->
<g id="Node000021" class="node">
<title>Node21</title>
<g id="a_Node000021"><a xlink:title=" ">
<polygon fill="#e0e0e0" stroke="#999999" points="1215.5,-129 1184.5,-129 1184.5,-110 1215.5,-110 1215.5,-129"/>
<text text-anchor="middle" x="1200" y="-117" font-family="Helvetica,sans-Serif" font-size="10.00">ios</text>
</a>
</g>
</g>
<!-- Node1&#45;&gt;Node21 -->
<g id="edge28_Node000001_Node000021" class="edge">
<title>Node1&#45;&gt;Node21</title>
<g id="a_edge28_Node000001_Node000021"><a xlink:title=" ">
<path fill="none" stroke="#63b8ff" d="M845.36,-170.59C923.87,-166.24 1054.59,-155.74 1174.33,-128.91"/>
<polygon fill="#63b8ff" stroke="#63b8ff" points="1175.43,-132.25 1184.4,-126.6 1173.87,-125.42 1175.43,-132.25"/>
</a>
</g>
</g>
<!-- Node22 -->
<g id="Node000022" class="node">
<title>Node22</title>
<g id="a_Node000022"><a xlink:title=" ">
<polygon fill="#e0e0e0" stroke="#999999" points="1144,-19 1096,-19 1096,0 1144,0 1144,-19"/>
<text text-anchor="middle" x="1120" y="-7" font-family="Helvetica,sans-Serif" font-size="10.00">mutex</text>
</a>
</g>
</g>
<!-- Node1&#45;&gt;Node22 -->
<g id="edge31_Node000001_Node000022" class="edge">
<title>Node1&#45;&gt;Node22</title>
<g id="a_edge31_Node000001_Node000022"><a xlink:title=" ">
<path fill="none" stroke="#63b8ff" d="M799.54,-164.87C823.04,-156.4 859.34,-142.78 890,-129 966.78,-94.48 1054.4,-47 1095.85,-24.03"/>
<polygon fill="#63b8ff" stroke="#63b8ff" points="1097.62,-27.05 1104.66,-19.13 1094.22,-20.93 1097.62,-27.05"/>
</a>
</g>
</g>
<!-- Node23 -->
<g id="Node000023" class="node">
<title>Node23</title>
<g id="a_Node000023"><a xlink:title=" ">
<polygon fill="#e0e0e0" stroke="#999999" points="1290.5,-129 1233.5,-129 1233.5,-110 1290.5,-110 1290.5,-129"/>
<text text-anchor="middle" x="1262" y="-117" font-family="Helvetica,sans-Serif" font-size="10.00">ostream</text>
</a>
</g>
</g>
<!-- Node1&#45;&gt;Node23 -->
<g id="edge32_Node000001_Node000023" class="edge">
<title>Node1&#45;&gt;Node23</title>
<g id="a_edge32_Node000001_Node000023"><a xlink:title=" ">
<path fill="none" stroke="#63b8ff" d="M845.12,-169.34C931.87,-163.57 1084.2,-151.42 1223.39,-129.08"/>
<polygon fill="#63b8ff" stroke="#63b8ff" points="1224.08,-132.51 1233.39,-127.45 1222.96,-125.6 1224.08,-132.51"/>
</a>
</g>
</g>
<!-- Node24 -->
<g id="Node000024" class="node">
<title>Node24</title>
<g id="a_Node000024"><a xlink:title=" ">
<polygon fill="#e0e0e0" stroke="#999999" points="746.5,-74 681.5,-74 681.5,-55 746.5,-55 746.5,-74"/>
<text text-anchor="middle" x="714" y="-62" font-family="Helvetica,sans-Serif" font-size="10.00">stdexcept</text>
</a>
</g>
</g>
<!-- Node1&#45;&gt;Node24 -->
<g id="edge33_Node000001_Node000024" class="edge">
<title>Node1&#45;&gt;Node24</title>
<g id="a_edge33_Node000001_Node000024"><a xlink:title=" ">
<path fill="none" stroke="#63b8ff" d="M770.01,-164.66C759.95,-146.85 737.08,-106.37 723.89,-83.01"/>
<polygon fill="#63b8ff" stroke="#63b8ff" points="726.86,-81.14 718.89,-74.16 720.76,-84.59 726.86,-81.14"/>
</a>
</g>
</g>
<!-- Node25 -->
<g id="Node000025" class="node">
<title>Node25</title>
<g id="a_Node000025"><a xlink:title=" ">
<polygon fill="#e0e0e0" stroke="#999999" points="1389.5,-129 1308.5,-129 1308.5,-110 1389.5,-110 1389.5,-129"/>
<text text-anchor="middle" x="1349" y="-117" font-family="Helvetica,sans-Serif" font-size="10.00">system_error</text>
</a>
</g>
</g>
<!-- Node1&#45;&gt;Node25 -->
<g id="edge35_Node000001_Node000025" class="edge">
<title>Node1&#45;&gt;Node25</title>
<g id="a_edge35_Node000001_Node000025"><a xlink:title=" ">
<path fill="none" stroke="#63b8ff" d="M845.27,-169.5C944.2,-163.43 1130.38,-150.42 1298.38,-129.11"/>
<polygon fill="#63b8ff" stroke="#63b8ff" points="1298.93,-132.57 1308.4,-127.82 1298.04,-125.62 1298.93,-132.57"/>
</a>
</g>
</g>
<!-- Node26 -->
<g id="Node000026" class="node">
<title>Node26</title>
<g id="a_Node000026"><a xlink:href="parameters_8hpp.html" target="_top" xlink:title=" ">
<polygon fill="white" stroke="#666666" points="705,-129 611,-129 611,-110 705,-110 705,-129"/>
<text text-anchor="middle" x="658" y="-117" font-family="Helvetica,sans-Serif" font-size="10.00">parameters.hpp</text>
</a>
</g>
</g>
<!-- Node1&#45;&gt;Node26 -->
<g id="edge37_Node000001_Node000026" class="edge">
<title>Node1&#45;&gt;Node26</title>
<g id="a_edge37_Node000001_Node000026"><a xlink:title=" ">
<path fill="none" stroke="#63b8ff" d="M756.2,-164.98C737.38,-156.46 708.18,-143.23 686.5,-133.41"/>
<polygon fill="#63b8ff" stroke="#63b8ff" points="687.69,-130.11 677.14,-129.17 684.8,-136.48 687.69,-130.11"/>
</a>
</g>
</g>
<!-- Node27 -->
<g id="Node000027" class="node">
<title>Node27</title>
<g id="a_Node000027"><a xlink:href="log_8hpp.html" target="_top" xlink:title=" ">
<polygon fill="white" stroke="#666666" points="975,-74 879,-74 879,-55 975,-55 975,-74"/>
<text text-anchor="middle" x="927" y="-62" font-family="Helvetica,sans-Serif" font-size="10.00">uvgvpcc/log.hpp</text>
</a>
</g>
</g>
<!-- Node1&#45;&gt;Node27 -->
<g id="edge43_Node000001_Node000027" class="edge">
<title>Node1&#45;&gt;Node27</title>
<g id="a_edge43_Node000001_Node000027"><a xlink:title=" ">
<path fill="none" stroke="#63b8ff" d="M797.25,-164.99C816.22,-157.17 843.71,-144.47 865,-129 883.79,-115.35 901.94,-95.76 913.7,-81.96"/>
<polygon fill="#63b8ff" stroke="#63b8ff" points="916.44,-84.14 920.14,-74.22 911.05,-79.67 916.44,-84.14"/>
</a>
</g>
</g>
<!-- Node2&#45;&gt;Node3 -->
<g id="edge2_Node000002_Node000003" class="edge">
<title>Node2&#45;&gt;Node3</title>
<g id="a_edge2_Node000002_Node000003"><a xlink:title=" ">
<path fill="none" stroke="#63b8ff" d="M302.61,-109.91C275.89,-101.15 233.44,-87.02 197,-74 149.24,-56.93 94.34,-35.91 60.66,-22.86"/>
<polygon fill="#63b8ff" stroke="#63b8ff" points="61.51,-19.43 50.92,-19.08 58.98,-25.96 61.51,-19.43"/>
</a>
</g>
</g>
<!-- Node2&#45;&gt;Node4 -->
<g id="edge3_Node000002_Node000004" class="edge">
<title>Node2&#45;&gt;Node4</title>
<g id="a_edge3_Node000002_Node000004"><a xlink:title=" ">
<path fill="none" stroke="#63b8ff" d="M310.65,-109.84C270.52,-90.92 174.78,-45.77 127.45,-23.45"/>
<polygon fill="#63b8ff" stroke="#63b8ff" points="128.66,-20.15 118.12,-19.05 125.67,-26.48 128.66,-20.15"/>
</a>
</g>
</g>
<!-- Node2&#45;&gt;Node5 -->
<g id="edge4_Node000002_Node000005" class="edge">
<title>Node2&#45;&gt;Node5</title>
<g id="a_edge4_Node000002_Node000005"><a xlink:title=" ">
<path fill="none" stroke="#63b8ff" d="M369.81,-109.98C413.93,-100.78 484.33,-86.09 532.05,-76.13"/>
<polygon fill="#63b8ff" stroke="#63b8ff" points="532.8,-79.55 541.87,-74.08 531.37,-72.7 532.8,-79.55"/>
</a>
</g>
</g>
<!-- Node2&#45;&gt;Node11 -->
<g id="edge10_Node000002_Node000011" class="edge">
<title>Node2&#45;&gt;Node11</title>
<g id="a_edge10_Node000002_Node000011"><a xlink:title=" ">
<path fill="none" stroke="#63b8ff" d="M332.14,-109.75C334.68,-102.65 338.36,-92.4 341.53,-83.56"/>
<polygon fill="#63b8ff" stroke="#63b8ff" points="344.84,-84.68 344.92,-74.09 338.25,-82.32 344.84,-84.68"/>
</a>
</g>
</g>
<!-- Node5&#45;&gt;Node6 -->
<g id="edge5_Node000005_Node000006" class="edge">
<title>Node5&#45;&gt;Node6</title>
<g id="a_edge5_Node000005_Node000006"><a xlink:title=" ">
<path fill="none" stroke="#63b8ff" d="M592.32,-54.98C600.81,-47.23 613.56,-35.58 623.88,-26.14"/>
<polygon fill="#63b8ff" stroke="#63b8ff" points="626.49,-28.5 631.51,-19.17 621.77,-23.33 626.49,-28.5"/>
</a>
</g>
</g>
<!-- Node5&#45;&gt;Node7 -->
<g id="edge6_Node000005_Node000007" class="edge">
<title>Node5&#45;&gt;Node7</title>
<g id="a_edge6_Node000005_Node000007"><a xlink:title=" ">
<path fill="none" stroke="#63b8ff" d="M570.15,-54.98C557.86,-46.84 539.09,-34.41 524.52,-24.76"/>
<polygon fill="#63b8ff" stroke="#63b8ff" points="526.36,-21.78 516.09,-19.17 522.49,-27.61 526.36,-21.78"/>
</a>
</g>
</g>
<!-- Node5&#45;&gt;Node8 -->
<g id="edge7_Node000005_Node000008" class="edge">
<title>Node5&#45;&gt;Node8</title>
<g id="a_edge7_Node000005_Node000008"><a xlink:title=" ">
<path fill="none" stroke="#63b8ff" d="M602.12,-54.98C621.35,-46.42 651.23,-33.11 673.31,-23.28"/>
<polygon fill="#63b8ff" stroke="#63b8ff" points="674.82,-26.44 682.53,-19.17 671.97,-20.04 674.82,-26.44"/>
</a>
</g>
</g>
<!-- Node9 -->
<g id="Node000009" class="node">
<title>Node9</title>
<g id="a_Node000009"><a xlink:title=" ">
<polygon fill="#e0e0e0" stroke="#999999" points="602,-19 546,-19 546,0 602,0 602,-19"/>
<text text-anchor="middle" x="574" y="-7" font-family="Helvetica,sans-Serif" font-size="10.00">sstream</text>
</a>
</g>
</g>
<!-- Node5&#45;&gt;Node9 -->
<g id="edge8_Node000005_Node000009" class="edge">
<title>Node5&#45;&gt;Node9</title>
<g id="a_edge8_Node000005_Node000009"><a xlink:title=" ">
<path fill="none" stroke="#63b8ff" d="M581.51,-54.75C580.33,-47.8 578.64,-37.85 577.16,-29.13"/>
<polygon fill="#63b8ff" stroke="#63b8ff" points="580.58,-28.36 575.46,-19.09 573.68,-29.53 580.58,-28.36"/>
</a>
</g>
</g>
<!-- Node5&#45;&gt;Node10 -->
<g id="edge9_Node000005_Node000010" class="edge">
<title>Node5&#45;&gt;Node10</title>
<g id="a_edge9_Node000005_Node000010"><a xlink:title=" ">
<path fill="none" stroke="#63b8ff" d="M624.95,-58.05C679.56,-50.74 778.16,-36.79 871.84,-19.1"/>
<polygon fill="#63b8ff" stroke="#63b8ff" points="872.6,-22.52 881.76,-17.21 871.28,-15.65 872.6,-22.52"/>
</a>
</g>
</g>
<!-- Node11&#45;&gt;Node3 -->
<g id="edge14_Node000011_Node000003" class="edge">
<title>Node11&#45;&gt;Node3</title>
<g id="a_edge14_Node000011_Node000003"><a xlink:title=" ">
<path fill="none" stroke="#63b8ff" d="M286.96,-54.97C232.14,-47.04 149.23,-34.43 67.91,-19.07"/>
<polygon fill="#63b8ff" stroke="#63b8ff" points="68.49,-15.62 58.01,-17.19 67.18,-22.49 68.49,-15.62"/>
</a>
</g>
</g>
<!-- Node11&#45;&gt;Node4 -->
<g id="edge19_Node000011_Node000004" class="edge">
<title>Node11&#45;&gt;Node4</title>
<g id="a_edge19_Node000011_Node000004"><a xlink:title=" ">
<path fill="none" stroke="#63b8ff" d="M303.81,-55C262.37,-46.88 198.47,-34 133.73,-19.08"/>
<polygon fill="#63b8ff" stroke="#63b8ff" points="134.29,-15.62 123.76,-16.77 132.71,-22.43 134.29,-15.62"/>
</a>
</g>
</g>
<!-- Node11&#45;&gt;Node7 -->
<g id="edge12_Node000011_Node000007" class="edge">
<title>Node11&#45;&gt;Node7</title>
<g id="a_edge12_Node000011_Node000007"><a xlink:title=" ">
<path fill="none" stroke="#63b8ff" d="M372.9,-54.98C398.7,-46.16 439.22,-32.31 468.18,-22.41"/>
<polygon fill="#63b8ff" stroke="#63b8ff" points="469.57,-25.63 477.9,-19.08 467.31,-19.01 469.57,-25.63"/>
</a>
</g>
</g>
<!-- Node11&#45;&gt;Node9 -->
<g id="edge17_Node000011_Node000009" class="edge">
<title>Node11&#45;&gt;Node9</title>
<g id="a_edge17_Node000011_Node000009"><a xlink:title=" ">
<path fill="none" stroke="#63b8ff" d="M384.31,-54.98C425.92,-45.23 493.81,-29.31 536.08,-19.39"/>
<polygon fill="#63b8ff" stroke="#63b8ff" points="537.05,-22.76 545.99,-17.07 535.45,-15.94 537.05,-22.76"/>
</a>
</g>
</g>
<!-- Node11&#45;&gt;Node12 -->
<g id="edge11_Node000011_Node000012" class="edge">
<title>Node11&#45;&gt;Node12</title>
<g id="a_edge11_Node000011_Node000012"><a xlink:title=" ">
<path fill="none" stroke="#63b8ff" d="M361.66,-54.98C374.84,-46.77 395.03,-34.18 410.57,-24.49"/>
<polygon fill="#63b8ff" stroke="#63b8ff" points="412.46,-27.43 419.09,-19.17 408.76,-21.49 412.46,-27.43"/>
</a>
</g>
</g>
<!-- Node13 -->
<g id="Node000013" class="node">
<title>Node13</title>
<g id="a_Node000013"><a xlink:title=" ">
<polygon fill="#e0e0e0" stroke="#999999" points="864,-19 804,-19 804,0 864,0 864,-19"/>
<text text-anchor="middle" x="834" y="-7" font-family="Helvetica,sans-Serif" font-size="10.00">iostream</text>
</a>
</g>
</g>
<!-- Node11&#45;&gt;Node13 -->
<g id="edge13_Node000011_Node000013" class="edge">
<title>Node11&#45;&gt;Node13</title>
<g id="a_edge13_Node000011_Node000013"><a xlink:title=" ">
<path fill="none" stroke="#63b8ff" d="M409.02,-59.67C493.32,-53.87 650.31,-41.3 793.54,-19.05"/>
<polygon fill="#63b8ff" stroke="#63b8ff" points="794.5,-22.45 803.83,-17.44 793.41,-15.53 794.5,-22.45"/>
</a>
</g>
</g>
<!-- Node14 -->
<g id="Node000014" class="node">
<title>Node14</title>
<g id="a_Node000014"><a xlink:title=" ">
<polygon fill="#e0e0e0" stroke="#999999" points="299.5,-19 252.5,-19 252.5,0 299.5,0 299.5,-19"/>
<text text-anchor="middle" x="276" y="-7" font-family="Helvetica,sans-Serif" font-size="10.00">queue</text>
</a>
</g>
</g>
<!-- Node11&#45;&gt;Node14 -->
<g id="edge15_Node000011_Node000014" class="edge">
<title>Node11&#45;&gt;Node14</title>
<g id="a_edge15_Node000011_Node000014"><a xlink:title=" ">
<path fill="none" stroke="#63b8ff" d="M336.43,-54.98C325.58,-47 309.12,-34.88 296.12,-25.31"/>
<polygon fill="#63b8ff" stroke="#63b8ff" points="297.91,-22.28 287.78,-19.17 293.76,-27.92 297.91,-22.28"/>
</a>
</g>
</g>
<!-- Node15 -->
<g id="Node000015" class="node">
<title>Node15</title>
<g id="a_Node000015"><a xlink:title=" ">
<polygon fill="#e0e0e0" stroke="#999999" points="388.5,-19 317.5,-19 317.5,0 388.5,0 388.5,-19"/>
<text text-anchor="middle" x="353" y="-7" font-family="Helvetica,sans-Serif" font-size="10.00">semaphore</text>
</a>
</g>
</g>
<!-- Node11&#45;&gt;Node15 -->
<g id="edge16_Node000011_Node000015" class="edge">
<title>Node11&#45;&gt;Node15</title>
<g id="a_edge16_Node000011_Node000015"><a xlink:title=" ">
<path fill="none" stroke="#63b8ff" d="M348.83,-54.75C349.48,-47.8 350.42,-37.85 351.24,-29.13"/>
<polygon fill="#63b8ff" stroke="#63b8ff" points="354.73,-29.37 352.19,-19.09 347.77,-28.72 354.73,-29.37"/>
</a>
</g>
</g>
<!-- Node11&#45;&gt;Node16 -->
<g id="edge18_Node000011_Node000016" class="edge">
<title>Node11&#45;&gt;Node16</title>
<g id="a_edge18_Node000011_Node000016"><a xlink:title=" ">
<path fill="none" stroke="#63b8ff" d="M409.12,-59.33C483.34,-53.62 612.41,-41.62 731.71,-18.97"/>
<polygon fill="#63b8ff" stroke="#63b8ff" points="732.59,-22.37 741.74,-17.04 731.26,-15.5 732.59,-22.37"/>
</a>
</g>
</g>
<!-- Node17 -->
<g id="Node000017" class="node">
<title>Node17</title>
<g id="a_Node000017"><a xlink:title=" ">
<polygon fill="#e0e0e0" stroke="#999999" points="234,-19 142,-19 142,0 234,0 234,-19"/>
<text text-anchor="middle" x="188" y="-7" font-family="Helvetica,sans-Serif" font-size="10.00">../utils/utils.hpp</text>
</a>
</g>
</g>
<!-- Node11&#45;&gt;Node17 -->
<g id="edge20_Node000011_Node000017" class="edge">
<title>Node11&#45;&gt;Node17</title>
<g id="a_edge20_Node000011_Node000017"><a xlink:title=" ">
<path fill="none" stroke="#63b8ff" d="M322.29,-54.98C295.55,-46.13 253.47,-32.19 223.55,-22.28"/>
<polygon fill="#63b8ff" stroke="#63b8ff" points="224.5,-18.9 213.91,-19.08 222.3,-25.55 224.5,-18.9"/>
</a>
</g>
</g>
<!-- Node26&#45;&gt;Node4 -->
<g id="edge40_Node000026_Node000004" class="edge">
<title>Node26&#45;&gt;Node4</title>
<g id="a_edge40_Node000026_Node000004"><a xlink:title=" ">
<path fill="none" stroke="#63b8ff" d="M610.81,-116.81C538.29,-113.35 395.49,-103.16 278,-74 255.33,-68.37 250.93,-63.03 229,-55 196.79,-43.21 159.75,-30.52 133.65,-21.72"/>
<polygon fill="#63b8ff" stroke="#63b8ff" points="134.46,-18.3 123.87,-18.43 132.24,-24.94 134.46,-18.3"/>
</a>
</g>
</g>
<!-- Node26&#45;&gt;Node5 -->
<g id="edge41_Node000026_Node000005" class="edge">
<title>Node26&#45;&gt;Node5</title>
<g id="a_edge41_Node000026_Node000005"><a xlink:title=" ">
<path fill="none" stroke="#63b8ff" d="M645.95,-109.98C634.54,-101.92 617.17,-89.65 603.57,-80.03"/>
<polygon fill="#63b8ff" stroke="#63b8ff" points="605.46,-77.08 595.27,-74.17 601.42,-82.8 605.46,-77.08"/>
</a>
</g>
</g>
<!-- Node26&#45;&gt;Node16 -->
<g id="edge39_Node000026_Node000016" class="edge">
<title>Node26&#45;&gt;Node16</title>
<g id="a_edge39_Node000026_Node000016"><a xlink:title=" ">
<path fill="none" stroke="#63b8ff" d="M657.81,-109.69C657.98,-96.41 660.13,-71.11 673,-55 681.02,-44.96 709.53,-31.88 732.53,-22.51"/>
<polygon fill="#63b8ff" stroke="#63b8ff" points="733.99,-25.7 741.97,-18.74 731.39,-19.19 733.99,-25.7"/>
</a>
</g>
</g>
<!-- Node26&#45;&gt;Node24 -->
<g id="edge38_Node000026_Node000024" class="edge">
<title>Node26&#45;&gt;Node24</title>
<g id="a_edge38_Node000026_Node000024"><a xlink:title=" ">
<path fill="none" stroke="#63b8ff" d="M667,-109.98C675.19,-102.23 687.51,-90.58 697.47,-81.14"/>
<polygon fill="#63b8ff" stroke="#63b8ff" points="699.98,-83.59 704.84,-74.17 695.17,-78.5 699.98,-83.59"/>
</a>
</g>
</g>
<!-- Node27&#45;&gt;Node10 -->
<g id="edge46_Node000027_Node000010" class="edge">
<title>Node27&#45;&gt;Node10</title>
<g id="a_edge46_Node000027_Node000010"><a xlink:title=" ">
<path fill="none" stroke="#63b8ff" d="M924.19,-54.75C921.94,-47.72 918.7,-37.62 915.88,-28.84"/>
<polygon fill="#63b8ff" stroke="#63b8ff" points="919.14,-27.54 912.75,-19.09 912.48,-29.68 919.14,-27.54"/>
</a>
</g>
</g>
<!-- Node27&#45;&gt;Node13 -->
<g id="edge47_Node000027_Node000013" class="edge">
<title>Node27&#45;&gt;Node13</title>
<g id="a_edge47_Node000027_Node000013"><a xlink:title=" ">
<path fill="none" stroke="#63b8ff" d="M912.06,-54.98C897.5,-46.69 875.13,-33.94 858.07,-24.22"/>
<polygon fill="#63b8ff" stroke="#63b8ff" points="859.64,-21.08 849.21,-19.17 856.17,-27.16 859.64,-21.08"/>
</a>
</g>
</g>
<!-- Node27&#45;&gt;Node16 -->
<g id="edge48_Node000027_Node000016" class="edge">
<title>Node27&#45;&gt;Node16</title>
<g id="a_edge48_Node000027_Node000016"><a xlink:title=" ">
<path fill="none" stroke="#63b8ff" d="M900.81,-54.98C872.27,-45.7 826.59,-30.85 795.96,-20.89"/>
<polygon fill="#63b8ff" stroke="#63b8ff" points="796.79,-17.48 786.2,-17.72 794.62,-24.14 796.79,-17.48"/>
</a>
</g>
</g>
<!-- Node27&#45;&gt;Node22 -->
<g id="edge49_Node000027_Node000022" class="edge">
<title>Node27&#45;&gt;Node22</title>
<g id="a_edge49_Node000027_Node000022"><a xlink:title=" ">
<path fill="none" stroke="#63b8ff" d="M958.01,-54.98C992.92,-45.4 1049.49,-29.86 1085.7,-19.92"/>
<polygon fill="#63b8ff" stroke="#63b8ff" points="1087.07,-23.17 1095.79,-17.15 1085.22,-16.42 1087.07,-23.17"/>
</a>
</g>
</g>
<!-- Node28 -->
<g id="Node000028" class="node">
<title>Node28</title>
<g id="a_Node000028"><a xlink:title=" ">
<polygon fill="#e0e0e0" stroke="#999999" points="1006,-19 956,-19 956,0 1006,0 1006,-19"/>
<text text-anchor="middle" x="981" y="-7" font-family="Helvetica,sans-Serif" font-size="10.00">chrono</text>
</a>
</g>
</g>
<!-- Node27&#45;&gt;Node28 -->
<g id="edge44_Node000027_Node000028" class="edge">
<title>Node27&#45;&gt;Node28</title>
<g id="a_edge44_Node000027_Node000028"><a xlink:title=" ">
<path fill="none" stroke="#63b8ff" d="M935.92,-54.75C943.78,-47.03 955.43,-35.6 964.92,-26.28"/>
<polygon fill="#63b8ff" stroke="#63b8ff" points="967.56,-28.59 972.25,-19.09 962.66,-23.6 967.56,-28.59"/>
</a>
</g>
</g>
<!-- Node29 -->
<g id="Node000029" class="node">
<title>Node29</title>
<g id="a_Node000029"><a xlink:title=" ">
<polygon fill="#e0e0e0" stroke="#999999" points="1077.5,-19 1024.5,-19 1024.5,0 1077.5,0 1077.5,-19"/>
<text text-anchor="middle" x="1051" y="-7" font-family="Helvetica,sans-Serif" font-size="10.00">cstdarg</text>
</a>
</g>
</g>
<!-- Node27&#45;&gt;Node29 -->
<g id="edge45_Node000027_Node000029" class="edge">
<title>Node27&#45;&gt;Node29</title>
<g id="a_edge45_Node000027_Node000029"><a xlink:title=" ">
<path fill="none" stroke="#63b8ff" d="M946.92,-54.98C967.05,-46.38 998.38,-32.99 1021.41,-23.15"/>
<polygon fill="#63b8ff" stroke="#63b8ff" points="1022.9,-26.32 1030.71,-19.17 1020.14,-19.88 1022.9,-26.32"/>
</a>
</g>
</g>
</g>
</svg>

<g id="navigator" transform="translate(0 0)" fill="#404254">
  <rect fill="#f2f5e9" fill-opacity="0.5" stroke="#606060" stroke-width=".5" x="0" y="0" width="60" height="60"/>
  <use id="zoomplus" xlink:href="#zoomPlus" x="17" y="9" onmousedown="handleZoom(evt,'in')"/>
  <use id="zoomminus" xlink:href="#zoomMin" x="42" y="9" onmousedown="handleZoom(evt,'out')"/>
  <use id="reset" xlink:href="#resetDef" x="30" y="36" onmousedown="handleReset()"/>
   <use id="arrowup" xlink:href="#arrowUp" x="0" y="0" onmousedown="handlePan(0,-1)"/>
  <use id="arrowright" xlink:href="#arrowRight" x="0" y="0" onmousedown="handlePan(1,0)"/>
  <use id="arrowdown" xlink:href="#arrowDown" x="0" y="0" onmousedown="handlePan(0,1)"/>
  <use id="arrowleft" xlink:href="#arrowLeft" x="0" y="0" onmousedown="handlePan(-1,0)"/>
</g>
<svg viewBox="0 0 15 15" width="100%" height="30px" preserveAspectRatio="xMaxYMin meet">
 <g id="arrow_out" transform="scale(0.3 0.3)">
  <a xlink:href="fileExport_8cpp__incl_org.svg" target="_base">
   <rect id="button" ry="5" rx="5" y="6" x="6" height="38" width="38"
        fill="#f2f5e9" fill-opacity="0.5" stroke="#606060" stroke-width="1.0"/>
   <path id="arrow"
     d="M 11.500037,31.436501 C 11.940474,20.09759 22.043105,11.32322 32.158766,21.979434 L 37.068811,17.246167 C 37.068811,17.246167 37.088388,32 37.088388,32 L 22.160133,31.978069 C 22.160133,31.978069 26.997745,27.140456 26.997745,27.140456 C 18.528582,18.264221 13.291696,25.230495 11.500037,31.436501 z"
     style="fill:#404040;"/>
  </a>
 </g>
</svg>

<style type='text/css'>
<![CDATA[
[data-mouse-over-selected='false'] { opacity: 0.7; }
[data-mouse-over-selected='true']  { opacity: 1.0; }
]]>
</style>
<script type="application/ecmascript"><![CDATA[
document.addEventListener('DOMContentLoaded', (event) => {
  highlightEdges();
  highlightAdjacentNodes();
});
]]></script>
</svg>
