<?xml version="1.0" encoding="UTF-8" standalone="no"?>
<!DOCTYPE svg PUBLIC "-//W3C//DTD SVG 1.1//EN"
 "http://www.w3.org/Graphics/SVG/1.1/DTD/svg11.dtd">
<!-- Generated by graphviz version 2.43.0 (0)
 -->
<!-- Title: src/lib/utils/fileExport.cpp Pages: 1 -->
<svg width="1388pt" height="192pt"
 viewBox="0.00 0.00 1388.00 192.00" xmlns="http://www.w3.org/2000/svg" xmlns:xlink="http://www.w3.org/1999/xlink">
<g id="graph0" class="graph" transform="scale(1 1) rotate(0) translate(4 188)">
<title>src/lib/utils/fileExport.cpp</title>
<!-- Node1 -->
<g id="Node000001" class="node">
<title>Node1</title>
<g id="a_Node000001"><a xlink:title=" ">
<polygon fill="#999999" stroke="#666666" points="819,-184 679,-184 679,-165 819,-165 819,-184"/>
<text text-anchor="middle" x="749" y="-172" font-family="Helvetica,sans-Serif" font-size="10.00">src/lib/utils/fileExport.cpp</text>
</a>
</g>
</g>
<!-- Node2 -->
<g id="Node000002" class="node">
<title>Node2</title>
<g id="a_Node000002"><a xlink:href="fileExport_8hpp.html" target="_top" xlink:title=" ">
<polygon fill="white" stroke="#666666" points="387,-129 303,-129 303,-110 387,-110 387,-129"/>
<text text-anchor="middle" x="345" y="-117" font-family="Helvetica,sans-Serif" font-size="10.00">fileExport.hpp</text>
</a>
</g>
</g>
<!-- Node1&#45;&gt;Node2 -->
<g id="edge1_Node000001_Node000002" class="edge">
<title>Node1&#45;&gt;Node2</title>
<g id="a_edge1_Node000001_Node000002"><a xlink:title=" ">
<path fill="none" stroke="#63b8ff" d="M678.95,-165.03C608.63,-156.42 497.21,-142.45 401,-129 399.74,-128.82 398.46,-128.64 397.18,-128.46"/>
<polygon fill="#63b8ff" stroke="#63b8ff" points="397.58,-124.98 387.18,-127.01 396.58,-131.91 397.58,-124.98"/>
</a>
</g>
</g>
<!-- Node3 -->
<g id="Node000003" class="node">
<title>Node3</title>
<g id="a_Node000003"><a xlink:title=" ">
<polygon fill="#e0e0e0" stroke="#999999" points="129.5,-19 76.5,-19 76.5,0 129.5,0 129.5,-19"/>
<text text-anchor="middle" x="103" y="-7" font-family="Helvetica,sans-Serif" font-size="10.00">cstddef</text>
</a>
</g>
</g>
<!-- Node1&#45;&gt;Node3 -->
<g id="edge25_Node000001_Node000003" class="edge">
<title>Node1&#45;&gt;Node3</title>
<g id="a_edge25_Node000001_Node000003"><a xlink:title=" ">
<path fill="none" stroke="#63b8ff" d="M678.76,-170.08C566.56,-164.08 352.1,-150.24 279,-129 227.27,-113.97 215.12,-104.91 171,-74 151.06,-60.03 131.03,-40.5 117.93,-26.8"/>
<polygon fill="#63b8ff" stroke="#63b8ff" points="120.12,-24.02 110.73,-19.12 115.01,-28.81 120.12,-24.02"/>
</a>
</g>
</g>
<!-- Node4 -->
<g id="Node000004" class="node">
<title>Node4</title>
<g id="a_Node000004"><a xlink:title=" ">
<polygon fill="#e0e0e0" stroke="#999999" points="58,-19 0,-19 0,0 58,0 58,-19"/>
<text text-anchor="middle" x="29" y="-7" font-family="Helvetica,sans-Serif" font-size="10.00">memory</text>
</a>
</g>
</g>
<!-- Node1&#45;&gt;Node4 -->
<g id="edge32_Node000001_Node000004" class="edge">
<title>Node1&#45;&gt;Node4</title>
<g id="a_edge32_Node000001_Node000004"><a xlink:title=" ">
<path fill="none" stroke="#63b8ff" d="M678.93,-171.03C556.19,-166.13 307.38,-153.47 224,-129 151.77,-107.8 79.33,-52.78 46.79,-25.83"/>
<polygon fill="#63b8ff" stroke="#63b8ff" points="48.96,-23.08 39.05,-19.32 44.45,-28.44 48.96,-23.08"/>
</a>
</g>
</g>
<!-- Node5 -->
<g id="Node000005" class="node">
<title>Node5</title>
<g id="a_Node000005"><a xlink:title=" ">
<polygon fill="#e0e0e0" stroke="#999999" points="664,-19 620,-19 620,0 664,0 664,-19"/>
<text text-anchor="middle" x="642" y="-7" font-family="Helvetica,sans-Serif" font-size="10.00">string</text>
</a>
</g>
</g>
<!-- Node1&#45;&gt;Node5 -->
<g id="edge36_Node000001_Node000005" class="edge">
<title>Node1&#45;&gt;Node5</title>
<g id="a_edge36_Node000001_Node000005"><a xlink:title=" ">
<path fill="none" stroke="#63b8ff" d="M678.96,-167.75C625.83,-161.77 559.12,-150.19 542,-129 510.68,-90.23 576.98,-45.55 616.07,-23.79"/>
<polygon fill="#63b8ff" stroke="#63b8ff" points="617.76,-26.86 624.88,-19.02 614.42,-20.71 617.76,-26.86"/>
</a>
</g>
</g>
<!-- Node6 -->
<g id="Node000006" class="node">
<title>Node6</title>
<g id="a_Node000006"><a xlink:title=" ">
<polygon fill="#e0e0e0" stroke="#999999" points="459.5,-19 412.5,-19 412.5,0 459.5,0 459.5,-19"/>
<text text-anchor="middle" x="436" y="-7" font-family="Helvetica,sans-Serif" font-size="10.00">vector</text>
</a>
</g>
</g>
<!-- Node1&#45;&gt;Node6 -->
<g id="edge38_Node000001_Node000006" class="edge">
<title>Node1&#45;&gt;Node6</title>
<g id="a_edge38_Node000001_Node000006"><a xlink:title=" ">
<path fill="none" stroke="#63b8ff" d="M678.76,-165.87C620.81,-158.51 544.04,-145.98 518,-129 480.06,-104.26 454.77,-55.24 443.21,-28.66"/>
<polygon fill="#63b8ff" stroke="#63b8ff" points="446.3,-26.96 439.22,-19.07 439.83,-29.65 446.3,-26.96"/>
</a>
</g>
</g>
<!-- Node7 -->
<g id="Node000007" class="node">
<title>Node7</title>
<g id="a_Node000007"><a xlink:href="utils_8hpp.html" target="_top" xlink:title=" ">
<polygon fill="white" stroke="#666666" points="710.5,-74 627.5,-74 627.5,-55 710.5,-55 710.5,-74"/>
<text text-anchor="middle" x="669" y="-62" font-family="Helvetica,sans-Serif" font-size="10.00">utils/utils.hpp</text>
</a>
</g>
</g>
<!-- Node1&#45;&gt;Node7 -->
<g id="edge44_Node000001_Node000007" class="edge">
<title>Node1&#45;&gt;Node7</title>
<g id="a_edge44_Node000001_Node000007"><a xlink:title=" ">
<path fill="none" stroke="#63b8ff" d="M742.45,-164.66C729.14,-146.69 698.73,-105.64 681.51,-82.38"/>
<polygon fill="#63b8ff" stroke="#63b8ff" points="684.18,-80.11 675.41,-74.16 678.55,-84.28 684.18,-80.11"/>
</a>
</g>
</g>
<!-- Node8 -->
<g id="Node000008" class="node">
<title>Node8</title>
<g id="a_Node000008"><a xlink:title=" ">
<polygon fill="#e0e0e0" stroke="#999999" points="833,-19 791,-19 791,0 833,0 833,-19"/>
<text text-anchor="middle" x="812" y="-7" font-family="Helvetica,sans-Serif" font-size="10.00">array</text>
</a>
</g>
</g>
<!-- Node1&#45;&gt;Node8 -->
<g id="edge23_Node000001_Node000008" class="edge">
<title>Node1&#45;&gt;Node8</title>
<g id="a_edge23_Node000001_Node000008"><a xlink:title=" ">
<path fill="none" stroke="#63b8ff" d="M750.26,-164.76C752.38,-152 757.51,-127.86 768,-110 779.3,-90.76 793.17,-94.03 803,-74 809.83,-60.08 811.89,-42.52 812.35,-29.4"/>
<polygon fill="#63b8ff" stroke="#63b8ff" points="815.85,-29.23 812.43,-19.21 808.85,-29.18 815.85,-29.23"/>
</a>
</g>
</g>
<!-- Node9 -->
<g id="Node000009" class="node">
<title>Node9</title>
<g id="a_Node000009"><a xlink:title=" ">
<polygon fill="#e0e0e0" stroke="#999999" points="602,-19 552,-19 552,0 602,0 602,-19"/>
<text text-anchor="middle" x="577" y="-7" font-family="Helvetica,sans-Serif" font-size="10.00">cstdint</text>
</a>
</g>
</g>
<!-- Node1&#45;&gt;Node9 -->
<g id="edge26_Node000001_Node000009" class="edge">
<title>Node1&#45;&gt;Node9</title>
<g id="a_edge26_Node000001_Node000009"><a xlink:title=" ">
<path fill="none" stroke="#63b8ff" d="M678.89,-168.71C622.12,-163.2 548.63,-151.79 530,-129 504.46,-97.74 539.16,-50.88 561.24,-26.51"/>
<polygon fill="#63b8ff" stroke="#63b8ff" points="563.84,-28.85 568.13,-19.16 558.74,-24.06 563.84,-28.85"/>
</a>
</g>
</g>
<!-- Node10 -->
<g id="Node000010" class="node">
<title>Node10</title>
<g id="a_Node000010"><a xlink:title=" ">
<polygon fill="#e0e0e0" stroke="#999999" points="997,-19 953,-19 953,0 997,0 997,-19"/>
<text text-anchor="middle" x="975" y="-7" font-family="Helvetica,sans-Serif" font-size="10.00">limits</text>
</a>
</g>
</g>
<!-- Node1&#45;&gt;Node10 -->
<g id="edge31_Node000001_Node000010" class="edge">
<title>Node1&#45;&gt;Node10</title>
<g id="a_edge31_Node000001_Node000010"><a xlink:title=" ">
<path fill="none" stroke="#63b8ff" d="M819.21,-173.17C897.87,-171.13 1018.19,-162.43 1047,-129 1075.89,-95.47 1026.15,-48.98 995.82,-25.44"/>
<polygon fill="#63b8ff" stroke="#63b8ff" points="997.59,-22.4 987.5,-19.18 993.38,-27.99 997.59,-22.4"/>
</a>
</g>
</g>
<!-- Node12 -->
<g id="Node000012" class="node">
<title>Node12</title>
<g id="a_Node000012"><a xlink:title=" ">
<polygon fill="#e0e0e0" stroke="#999999" points="1174,-19 1118,-19 1118,0 1174,0 1174,-19"/>
<text text-anchor="middle" x="1146" y="-7" font-family="Helvetica,sans-Serif" font-size="10.00">iomanip</text>
</a>
</g>
</g>
<!-- Node1&#45;&gt;Node12 -->
<g id="edge29_Node000001_Node000012" class="edge">
<title>Node1&#45;&gt;Node12</title>
<g id="a_edge29_Node000001_Node000012"><a xlink:title=" ">
<path fill="none" stroke="#63b8ff" d="M819.1,-170.94C930.73,-166.14 1138.62,-153.93 1161,-129 1185.95,-101.21 1168.37,-53.87 1155.75,-28.25"/>
<polygon fill="#63b8ff" stroke="#63b8ff" points="1158.82,-26.55 1151.1,-19.29 1152.6,-29.77 1158.82,-26.55"/>
</a>
</g>
</g>
<!-- Node13 -->
<g id="Node000013" class="node">
<title>Node13</title>
<g id="a_Node000013"><a xlink:href="uvgvpcc_8hpp.html" target="_top" xlink:title=" ">
<polygon fill="white" stroke="#666666" points="343,-74 221,-74 221,-55 343,-55 343,-74"/>
<text text-anchor="middle" x="282" y="-62" font-family="Helvetica,sans-Serif" font-size="10.00">uvgvpcc/uvgvpcc.hpp</text>
</a>
</g>
</g>
<!-- Node1&#45;&gt;Node13 -->
<g id="edge52_Node000001_Node000013" class="edge">
<title>Node1&#45;&gt;Node13</title>
<g id="a_edge52_Node000001_Node000013"><a xlink:title=" ">
<path fill="none" stroke="#63b8ff" d="M678.94,-171.21C558.35,-166.6 321.78,-154.41 294,-129 281.98,-118.01 279.73,-99.06 280.04,-84.71"/>
<polygon fill="#63b8ff" stroke="#63b8ff" points="283.55,-84.64 280.7,-74.44 276.57,-84.19 283.55,-84.64"/>
</a>
</g>
</g>
<!-- Node18 -->
<g id="Node000018" class="node">
<title>Node18</title>
<g id="a_Node000018"><a xlink:title=" ">
<polygon fill="#e0e0e0" stroke="#999999" points="829,-129 777,-129 777,-110 829,-110 829,-129"/>
<text text-anchor="middle" x="803" y="-117" font-family="Helvetica,sans-Serif" font-size="10.00">cassert</text>
</a>
</g>
</g>
<!-- Node1&#45;&gt;Node18 -->
<g id="edge24_Node000001_Node000018" class="edge">
<title>Node1&#45;&gt;Node18</title>
<g id="a_edge24_Node000001_Node000018"><a xlink:title=" ">
<path fill="none" stroke="#63b8ff" d="M757.92,-164.75C765.78,-157.03 777.43,-145.6 786.92,-136.28"/>
<polygon fill="#63b8ff" stroke="#63b8ff" points="789.56,-138.59 794.25,-129.09 784.66,-133.6 789.56,-138.59"/>
</a>
</g>
</g>
<!-- Node19 -->
<g id="Node000019" class="node">
<title>Node19</title>
<g id="a_Node000019"><a xlink:title=" ">
<polygon fill="#e0e0e0" stroke="#999999" points="915,-129 847,-129 847,-110 915,-110 915,-129"/>
<text text-anchor="middle" x="881" y="-117" font-family="Helvetica,sans-Serif" font-size="10.00">filesystem</text>
</a>
</g>
</g>
<!-- Node1&#45;&gt;Node19 -->
<g id="edge27_Node000001_Node000019" class="edge">
<title>Node1&#45;&gt;Node19</title>
<g id="a_edge27_Node000001_Node000019"><a xlink:title=" ">
<path fill="none" stroke="#63b8ff" d="M770.21,-164.98C791.73,-156.34 825.28,-142.87 849.83,-133.02"/>
<polygon fill="#63b8ff" stroke="#63b8ff" points="851.43,-136.14 859.41,-129.17 848.82,-129.65 851.43,-136.14"/>
</a>
</g>
</g>
<!-- Node20 -->
<g id="Node000020" class="node">
<title>Node20</title>
<g id="a_Node000020"><a xlink:title=" ">
<polygon fill="#e0e0e0" stroke="#999999" points="988.5,-129 933.5,-129 933.5,-110 988.5,-110 988.5,-129"/>
<text text-anchor="middle" x="961" y="-117" font-family="Helvetica,sans-Serif" font-size="10.00">fstream</text>
</a>
</g>
</g>
<!-- Node1&#45;&gt;Node20 -->
<g id="edge28_Node000001_Node000020" class="edge">
<title>Node1&#45;&gt;Node20</title>
<g id="a_edge28_Node000001_Node000020"><a xlink:title=" ">
<path fill="none" stroke="#63b8ff" d="M783.06,-164.98C821.5,-155.37 883.84,-139.79 923.6,-129.85"/>
<polygon fill="#63b8ff" stroke="#63b8ff" points="924.59,-133.21 933.44,-127.39 922.89,-126.42 924.59,-133.21"/>
</a>
</g>
</g>
<!-- Node21 -->
<g id="Node000021" class="node">
<title>Node21</title>
<g id="a_Node000021"><a xlink:title=" ">
<polygon fill="#e0e0e0" stroke="#999999" points="1037.5,-129 1006.5,-129 1006.5,-110 1037.5,-110 1037.5,-129"/>
<text text-anchor="middle" x="1022" y="-117" font-family="Helvetica,sans-Serif" font-size="10.00">ios</text>
</a>
</g>
</g>
<!-- Node1&#45;&gt;Node21 -->
<g id="edge30_Node000001_Node000021" class="edge">
<title>Node1&#45;&gt;Node21</title>
<g id="a_edge30_Node000001_Node000021"><a xlink:title=" ">
<path fill="none" stroke="#63b8ff" d="M813.08,-164.99C861.37,-157.91 929.29,-146.53 996.46,-129.07"/>
<polygon fill="#63b8ff" stroke="#63b8ff" points="997.59,-132.39 1006.37,-126.45 995.8,-125.62 997.59,-132.39"/>
</a>
</g>
</g>
<!-- Node22 -->
<g id="Node000022" class="node">
<title>Node22</title>
<g id="a_Node000022"><a xlink:title=" ">
<polygon fill="#e0e0e0" stroke="#999999" points="1380,-19 1332,-19 1332,0 1380,0 1380,-19"/>
<text text-anchor="middle" x="1356" y="-7" font-family="Helvetica,sans-Serif" font-size="10.00">mutex</text>
</a>
</g>
</g>
<!-- Node1&#45;&gt;Node22 -->
<g id="edge33_Node000001_Node000022" class="edge">
<title>Node1&#45;&gt;Node22</title>
<g id="a_edge33_Node000001_Node000022"><a xlink:title=" ">
<path fill="none" stroke="#63b8ff" d="M819.21,-172.23C962.12,-169.04 1276.59,-158.69 1315,-129 1346.05,-105 1353.7,-56.05 1355.51,-29.18"/>
<polygon fill="#63b8ff" stroke="#63b8ff" points="1359.01,-29.31 1355.98,-19.16 1352.02,-28.98 1359.01,-29.31"/>
</a>
</g>
</g>
<!-- Node23 -->
<g id="Node000023" class="node">
<title>Node23</title>
<g id="a_Node000023"><a xlink:title=" ">
<polygon fill="#e0e0e0" stroke="#999999" points="1151.5,-129 1094.5,-129 1094.5,-110 1151.5,-110 1151.5,-129"/>
<text text-anchor="middle" x="1123" y="-117" font-family="Helvetica,sans-Serif" font-size="10.00">ostream</text>
</a>
</g>
</g>
<!-- Node1&#45;&gt;Node23 -->
<g id="edge34_Node000001_Node000023" class="edge">
<title>Node1&#45;&gt;Node23</title>
<g id="a_edge34_Node000001_Node000023"><a xlink:title=" ">
<path fill="none" stroke="#63b8ff" d="M819.25,-165.33C886.38,-157.22 990.34,-143.87 1080,-129 1081.45,-128.76 1082.94,-128.51 1084.43,-128.24"/>
<polygon fill="#63b8ff" stroke="#63b8ff" points="1085.16,-131.67 1094.36,-126.42 1083.9,-124.78 1085.16,-131.67"/>
</a>
</g>
</g>
<!-- Node24 -->
<g id="Node000024" class="node">
<title>Node24</title>
<g id="a_Node000024"><a xlink:title=" ">
<polygon fill="#e0e0e0" stroke="#999999" points="793.5,-74 728.5,-74 728.5,-55 793.5,-55 793.5,-74"/>
<text text-anchor="middle" x="761" y="-62" font-family="Helvetica,sans-Serif" font-size="10.00">stdexcept</text>
</a>
</g>
</g>
<!-- Node1&#45;&gt;Node24 -->
<g id="edge35_Node000001_Node000024" class="edge">
<title>Node1&#45;&gt;Node24</title>
<g id="a_edge35_Node000001_Node000024"><a xlink:title=" ">
<path fill="none" stroke="#63b8ff" d="M744.43,-164.81C738.57,-152.52 729.75,-129.4 735,-110 737.66,-100.19 743.07,-90.33 748.28,-82.39"/>
<polygon fill="#63b8ff" stroke="#63b8ff" points="751.23,-84.27 754.11,-74.07 745.5,-80.25 751.23,-84.27"/>
</a>
</g>
</g>
<!-- Node25 -->
<g id="Node000025" class="node">
<title>Node25</title>
<g id="a_Node000025"><a xlink:title=" ">
<polygon fill="#e0e0e0" stroke="#999999" points="1289.5,-129 1208.5,-129 1208.5,-110 1289.5,-110 1289.5,-129"/>
<text text-anchor="middle" x="1249" y="-117" font-family="Helvetica,sans-Serif" font-size="10.00">system_error</text>
</a>
</g>
</g>
<!-- Node1&#45;&gt;Node25 -->
<g id="edge37_Node000001_Node000025" class="edge">
<title>Node1&#45;&gt;Node25</title>
<g id="a_edge37_Node000001_Node000025"><a xlink:title=" ">
<path fill="none" stroke="#63b8ff" d="M819.27,-167.65C907.08,-160.06 1061.91,-145.8 1194,-129 1195.47,-128.81 1196.96,-128.62 1198.46,-128.42"/>
<polygon fill="#63b8ff" stroke="#63b8ff" points="1199.07,-131.87 1208.49,-127.01 1198.1,-124.93 1199.07,-131.87"/>
</a>
</g>
</g>
<!-- Node26 -->
<g id="Node000026" class="node">
<title>Node26</title>
<g id="a_Node000026"><a xlink:href="parameters_8hpp.html" target="_top" xlink:title=" ">
<polygon fill="white" stroke="#666666" points="645,-129 551,-129 551,-110 645,-110 645,-129"/>
<text text-anchor="middle" x="598" y="-117" font-family="Helvetica,sans-Serif" font-size="10.00">parameters.hpp</text>
</a>
</g>
</g>
<!-- Node1&#45;&gt;Node26 -->
<g id="edge39_Node000001_Node000026" class="edge">
<title>Node1&#45;&gt;Node26</title>
<g id="a_edge39_Node000001_Node000026"><a xlink:title=" ">
<path fill="none" stroke="#63b8ff" d="M724.74,-164.98C699.68,-156.19 660.37,-142.39 632.17,-132.49"/>
<polygon fill="#63b8ff" stroke="#63b8ff" points="633.3,-129.18 622.7,-129.17 630.98,-135.78 633.3,-129.18"/>
</a>
</g>
</g>
<!-- Node27 -->
<g id="Node000027" class="node">
<title>Node27</title>
<g id="a_Node000027"><a xlink:href="log_8hpp.html" target="_top" xlink:title=" ">
<polygon fill="white" stroke="#666666" points="1304,-74 1208,-74 1208,-55 1304,-55 1304,-74"/>
<text text-anchor="middle" x="1256" y="-62" font-family="Helvetica,sans-Serif" font-size="10.00">uvgvpcc/log.hpp</text>
</a>
</g>
</g>
<!-- Node1&#45;&gt;Node27 -->
<g id="edge45_Node000001_Node000027" class="edge">
<title>Node1&#45;&gt;Node27</title>
<g id="a_edge45_Node000001_Node000027"><a xlink:title=" ">
<path fill="none" stroke="#63b8ff" d="M819.15,-173.01C960.12,-171.3 1267.09,-163.59 1299,-129 1313.04,-113.78 1294.14,-93.61 1277.15,-80.13"/>
<polygon fill="#63b8ff" stroke="#63b8ff" points="1279.22,-77.3 1269.12,-74.1 1275.01,-82.9 1279.22,-77.3"/>
</a>
</g>
</g>
<!-- Node2&#45;&gt;Node3 -->
<g id="edge2_Node000002_Node000003" class="edge">
<title>Node2&#45;&gt;Node3</title>
<g id="a_edge2_Node000002_Node000003"><a xlink:title=" ">
<path fill="none" stroke="#63b8ff" d="M313.68,-109.99C286.28,-102.09 245.71,-89.27 212,-74 180.2,-59.6 145.74,-38.51 124.26,-24.65"/>
<polygon fill="#63b8ff" stroke="#63b8ff" points="125.92,-21.55 115.63,-19.01 122.09,-27.41 125.92,-21.55"/>
</a>
</g>
</g>
<!-- Node2&#45;&gt;Node4 -->
<g id="edge3_Node000002_Node000004" class="edge">
<title>Node2&#45;&gt;Node4</title>
<g id="a_edge3_Node000002_Node000004"><a xlink:title=" ">
<path fill="none" stroke="#63b8ff" d="M303.28,-109.93C267.66,-102.11 215.31,-89.45 171,-74 129.26,-59.45 82.84,-37.54 54.79,-23.64"/>
<polygon fill="#63b8ff" stroke="#63b8ff" points="56.18,-20.42 45.67,-19.08 53.05,-26.68 56.18,-20.42"/>
</a>
</g>
</g>
<!-- Node2&#45;&gt;Node5 -->
<g id="edge4_Node000002_Node000005" class="edge">
<title>Node2&#45;&gt;Node5</title>
<g id="a_edge4_Node000002_Node000005"><a xlink:title=" ">
<path fill="none" stroke="#63b8ff" d="M368.55,-109.94C421.47,-90.69 549.83,-44.02 609.95,-22.16"/>
<polygon fill="#63b8ff" stroke="#63b8ff" points="611.46,-25.33 619.67,-18.62 609.07,-18.75 611.46,-25.33"/>
</a>
</g>
</g>
<!-- Node2&#45;&gt;Node6 -->
<g id="edge5_Node000002_Node000006" class="edge">
<title>Node2&#45;&gt;Node6</title>
<g id="a_edge5_Node000002_Node000006"><a xlink:title=" ">
<path fill="none" stroke="#63b8ff" d="M351.58,-109.7C360.96,-97.28 378.8,-74.01 395,-55 403.26,-45.31 412.89,-34.81 420.75,-26.45"/>
<polygon fill="#63b8ff" stroke="#63b8ff" points="423.29,-28.85 427.63,-19.18 418.21,-24.04 423.29,-28.85"/>
</a>
</g>
</g>
<!-- Node2&#45;&gt;Node7 -->
<g id="edge6_Node000002_Node000007" class="edge">
<title>Node2&#45;&gt;Node7</title>
<g id="a_edge6_Node000002_Node000007"><a xlink:title=" ">
<path fill="none" stroke="#63b8ff" d="M387.03,-111.63C445.98,-101.98 553.17,-84.45 617.06,-74"/>
<polygon fill="#63b8ff" stroke="#63b8ff" points="618,-77.39 627.31,-72.32 616.87,-70.48 618,-77.39"/>
</a>
</g>
</g>
<!-- Node2&#45;&gt;Node13 -->
<g id="edge12_Node000002_Node000013" class="edge">
<title>Node2&#45;&gt;Node13</title>
<g id="a_edge12_Node000002_Node000013"><a xlink:title=" ">
<path fill="none" stroke="#63b8ff" d="M334.88,-109.98C325.56,-102.15 311.53,-90.34 300.26,-80.86"/>
<polygon fill="#63b8ff" stroke="#63b8ff" points="302.21,-77.93 292.31,-74.17 297.71,-83.29 302.21,-77.93"/>
</a>
</g>
</g>
<!-- Node7&#45;&gt;Node8 -->
<g id="edge7_Node000007_Node000008" class="edge">
<title>Node7&#45;&gt;Node8</title>
<g id="a_edge7_Node000007_Node000008"><a xlink:title=" ">
<path fill="none" stroke="#63b8ff" d="M691.98,-54.98C716.2,-46.01 754.49,-31.82 781.29,-21.88"/>
<polygon fill="#63b8ff" stroke="#63b8ff" points="782.79,-25.06 790.95,-18.3 780.35,-18.5 782.79,-25.06"/>
</a>
</g>
</g>
<!-- Node7&#45;&gt;Node9 -->
<g id="edge8_Node000007_Node000009" class="edge">
<title>Node7&#45;&gt;Node9</title>
<g id="a_edge8_Node000007_Node000009"><a xlink:title=" ">
<path fill="none" stroke="#63b8ff" d="M654.22,-54.98C639.82,-46.69 617.69,-33.94 600.81,-24.22"/>
<polygon fill="#63b8ff" stroke="#63b8ff" points="602.46,-21.13 592.05,-19.17 598.97,-27.19 602.46,-21.13"/>
</a>
</g>
</g>
<!-- Node7&#45;&gt;Node10 -->
<g id="edge9_Node000007_Node000010" class="edge">
<title>Node7&#45;&gt;Node10</title>
<g id="a_edge9_Node000007_Node000010"><a xlink:title=" ">
<path fill="none" stroke="#63b8ff" d="M710.59,-56.3C772.3,-45.61 886.83,-25.77 942.69,-16.1"/>
<polygon fill="#63b8ff" stroke="#63b8ff" points="943.47,-19.51 952.73,-14.36 942.28,-12.62 943.47,-19.51"/>
</a>
</g>
</g>
<!-- Node11 -->
<g id="Node000011" class="node">
<title>Node11</title>
<g id="a_Node000011"><a xlink:title=" ">
<polygon fill="#e0e0e0" stroke="#999999" points="534,-19 478,-19 478,0 534,0 534,-19"/>
<text text-anchor="middle" x="506" y="-7" font-family="Helvetica,sans-Serif" font-size="10.00">sstream</text>
</a>
</g>
</g>
<!-- Node7&#45;&gt;Node11 -->
<g id="edge10_Node000007_Node000011" class="edge">
<title>Node7&#45;&gt;Node11</title>
<g id="a_edge10_Node000007_Node000011"><a xlink:title=" ">
<path fill="none" stroke="#63b8ff" d="M642.81,-54.98C615.56,-46.13 572.7,-32.19 542.22,-22.28"/>
<polygon fill="#63b8ff" stroke="#63b8ff" points="542.99,-18.85 532.39,-19.08 540.82,-25.5 542.99,-18.85"/>
</a>
</g>
</g>
<!-- Node7&#45;&gt;Node12 -->
<g id="edge11_Node000007_Node000012" class="edge">
<title>Node7&#45;&gt;Node12</title>
<g id="a_edge11_Node000007_Node000012"><a xlink:title=" ">
<path fill="none" stroke="#63b8ff" d="M710.72,-56.33C713.86,-55.86 716.98,-55.41 720,-55 862.4,-35.71 1032.56,-20.19 1107.43,-13.73"/>
<polygon fill="#63b8ff" stroke="#63b8ff" points="1108.1,-17.19 1117.77,-12.85 1107.5,-10.22 1108.1,-17.19"/>
</a>
</g>
</g>
<!-- Node13&#45;&gt;Node3 -->
<g id="edge13_Node000013_Node000003" class="edge">
<title>Node13&#45;&gt;Node3</title>
<g id="a_edge13_Node000013_Node000003"><a xlink:title=" ">
<path fill="none" stroke="#63b8ff" d="M253.24,-54.98C222.34,-45.84 173.16,-31.27 139.54,-21.32"/>
<polygon fill="#63b8ff" stroke="#63b8ff" points="140.22,-17.87 129.64,-18.39 138.24,-24.58 140.22,-17.87"/>
</a>
</g>
</g>
<!-- Node13&#45;&gt;Node4 -->
<g id="edge16_Node000013_Node000004" class="edge">
<title>Node13&#45;&gt;Node4</title>
<g id="a_edge16_Node000013_Node000004"><a xlink:title=" ">
<path fill="none" stroke="#63b8ff" d="M239.53,-54.92C198.25,-46.53 133.52,-33.25 68.11,-19.21"/>
<polygon fill="#63b8ff" stroke="#63b8ff" points="68.55,-15.73 58.04,-17.04 67.08,-22.57 68.55,-15.73"/>
</a>
</g>
</g>
<!-- Node13&#45;&gt;Node5 -->
<g id="edge20_Node000013_Node000005" class="edge">
<title>Node13&#45;&gt;Node5</title>
<g id="a_edge20_Node000013_Node000005"><a xlink:title=" ">
<path fill="none" stroke="#63b8ff" d="M343.04,-57.7C407.27,-51.05 511.4,-38.7 609.91,-18.98"/>
<polygon fill="#63b8ff" stroke="#63b8ff" points="610.63,-22.41 619.73,-16.99 609.24,-15.55 610.63,-22.41"/>
</a>
</g>
</g>
<!-- Node13&#45;&gt;Node6 -->
<g id="edge21_Node000013_Node000006" class="edge">
<title>Node13&#45;&gt;Node6</title>
<g id="a_edge21_Node000013_Node000006"><a xlink:title=" ">
<path fill="none" stroke="#63b8ff" d="M306.74,-54.98C332.75,-46.03 373.83,-31.9 402.68,-21.97"/>
<polygon fill="#63b8ff" stroke="#63b8ff" points="404.01,-25.21 412.33,-18.65 401.74,-18.59 404.01,-25.21"/>
</a>
</g>
</g>
<!-- Node13&#45;&gt;Node9 -->
<g id="edge14_Node000013_Node000009" class="edge">
<title>Node13&#45;&gt;Node9</title>
<g id="a_edge14_Node000013_Node000009"><a xlink:title=" ">
<path fill="none" stroke="#63b8ff" d="M339.52,-54.98C390.28,-47.17 466.49,-34.74 541.68,-19.15"/>
<polygon fill="#63b8ff" stroke="#63b8ff" points="542.73,-22.5 551.8,-17.03 541.29,-15.65 542.73,-22.5"/>
</a>
</g>
</g>
<!-- Node13&#45;&gt;Node11 -->
<g id="edge19_Node000013_Node000011" class="edge">
<title>Node13&#45;&gt;Node11</title>
<g id="a_edge19_Node000013_Node000011"><a xlink:title=" ">
<path fill="none" stroke="#63b8ff" d="M317.99,-54.98C359.12,-45.25 426.14,-29.39 468.07,-19.47"/>
<polygon fill="#63b8ff" stroke="#63b8ff" points="468.97,-22.86 477.9,-17.15 467.36,-16.05 468.97,-22.86"/>
</a>
</g>
</g>
<!-- Node14 -->
<g id="Node000014" class="node">
<title>Node14</title>
<g id="a_Node000014"><a xlink:title=" ">
<polygon fill="#e0e0e0" stroke="#999999" points="753,-19 693,-19 693,0 753,0 753,-19"/>
<text text-anchor="middle" x="723" y="-7" font-family="Helvetica,sans-Serif" font-size="10.00">iostream</text>
</a>
</g>
</g>
<!-- Node13&#45;&gt;Node14 -->
<g id="edge15_Node000013_Node000014" class="edge">
<title>Node13&#45;&gt;Node14</title>
<g id="a_edge15_Node000013_Node000014"><a xlink:title=" ">
<path fill="none" stroke="#63b8ff" d="M343.09,-57.6C420.14,-49.91 556.65,-35.5 673,-19 676.23,-18.54 679.56,-18.04 682.91,-17.51"/>
<polygon fill="#63b8ff" stroke="#63b8ff" points="683.59,-20.95 692.9,-15.89 682.47,-14.04 683.59,-20.95"/>
</a>
</g>
</g>
<!-- Node15 -->
<g id="Node000015" class="node">
<title>Node15</title>
<g id="a_Node000015"><a xlink:title=" ">
<polygon fill="#e0e0e0" stroke="#999999" points="305.5,-19 258.5,-19 258.5,0 305.5,0 305.5,-19"/>
<text text-anchor="middle" x="282" y="-7" font-family="Helvetica,sans-Serif" font-size="10.00">queue</text>
</a>
</g>
</g>
<!-- Node13&#45;&gt;Node15 -->
<g id="edge17_Node000013_Node000015" class="edge">
<title>Node13&#45;&gt;Node15</title>
<g id="a_edge17_Node000013_Node000015"><a xlink:title=" ">
<path fill="none" stroke="#63b8ff" d="M282,-54.75C282,-47.8 282,-37.85 282,-29.13"/>
<polygon fill="#63b8ff" stroke="#63b8ff" points="285.5,-29.09 282,-19.09 278.5,-29.09 285.5,-29.09"/>
</a>
</g>
</g>
<!-- Node16 -->
<g id="Node000016" class="node">
<title>Node16</title>
<g id="a_Node000016"><a xlink:title=" ">
<polygon fill="#e0e0e0" stroke="#999999" points="394.5,-19 323.5,-19 323.5,0 394.5,0 394.5,-19"/>
<text text-anchor="middle" x="359" y="-7" font-family="Helvetica,sans-Serif" font-size="10.00">semaphore</text>
</a>
</g>
</g>
<!-- Node13&#45;&gt;Node16 -->
<g id="edge18_Node000013_Node000016" class="edge">
<title>Node13&#45;&gt;Node16</title>
<g id="a_edge18_Node000013_Node000016"><a xlink:title=" ">
<path fill="none" stroke="#63b8ff" d="M294.37,-54.98C306.09,-46.92 323.92,-34.65 337.89,-25.03"/>
<polygon fill="#63b8ff" stroke="#63b8ff" points="340.15,-27.72 346.4,-19.17 336.18,-21.96 340.15,-27.72"/>
</a>
</g>
</g>
<!-- Node17 -->
<g id="Node000017" class="node">
<title>Node17</title>
<g id="a_Node000017"><a xlink:title=" ">
<polygon fill="#e0e0e0" stroke="#999999" points="240,-19 148,-19 148,0 240,0 240,-19"/>
<text text-anchor="middle" x="194" y="-7" font-family="Helvetica,sans-Serif" font-size="10.00">../utils/utils.hpp</text>
</a>
</g>
</g>
<!-- Node13&#45;&gt;Node17 -->
<g id="edge22_Node000013_Node000017" class="edge">
<title>Node13&#45;&gt;Node17</title>
<g id="a_edge22_Node000013_Node000017"><a xlink:title=" ">
<path fill="none" stroke="#63b8ff" d="M267.86,-54.98C254.21,-46.77 233.31,-34.18 217.22,-24.49"/>
<polygon fill="#63b8ff" stroke="#63b8ff" points="218.77,-21.33 208.4,-19.17 215.16,-27.33 218.77,-21.33"/>
</a>
</g>
</g>
<!-- Node26&#45;&gt;Node5 -->
<g id="edge41_Node000026_Node000005" class="edge">
<title>Node26&#45;&gt;Node5</title>
<g id="a_edge41_Node000026_Node000005"><a xlink:title=" ">
<path fill="none" stroke="#63b8ff" d="M600.21,-109.69C603.45,-97.25 609.99,-73.95 618,-55 621.89,-45.8 627.06,-35.99 631.6,-27.93"/>
<polygon fill="#63b8ff" stroke="#63b8ff" points="634.72,-29.53 636.71,-19.12 628.67,-26.02 634.72,-29.53"/>
</a>
</g>
</g>
<!-- Node26&#45;&gt;Node6 -->
<g id="edge42_Node000026_Node000006" class="edge">
<title>Node26&#45;&gt;Node6</title>
<g id="a_edge42_Node000026_Node000006"><a xlink:title=" ">
<path fill="none" stroke="#63b8ff" d="M585.02,-109.84C557.17,-91.28 491.48,-47.49 457.38,-24.75"/>
<polygon fill="#63b8ff" stroke="#63b8ff" points="459.31,-21.83 449.05,-19.2 455.42,-27.66 459.31,-21.83"/>
</a>
</g>
</g>
<!-- Node26&#45;&gt;Node7 -->
<g id="edge43_Node000026_Node000007" class="edge">
<title>Node26&#45;&gt;Node7</title>
<g id="a_edge43_Node000026_Node000007"><a xlink:title=" ">
<path fill="none" stroke="#63b8ff" d="M609.41,-109.98C620.11,-102 636.34,-89.88 649.16,-80.31"/>
<polygon fill="#63b8ff" stroke="#63b8ff" points="651.47,-82.96 657.39,-74.17 647.28,-77.35 651.47,-82.96"/>
</a>
</g>
</g>
<!-- Node26&#45;&gt;Node24 -->
<g id="edge40_Node000026_Node000024" class="edge">
<title>Node26&#45;&gt;Node24</title>
<g id="a_edge40_Node000026_Node000024"><a xlink:title=" ">
<path fill="none" stroke="#63b8ff" d="M624.19,-109.98C651.44,-101.13 694.3,-87.19 724.78,-77.28"/>
<polygon fill="#63b8ff" stroke="#63b8ff" points="726.18,-80.5 734.61,-74.08 724.01,-73.85 726.18,-80.5"/>
</a>
</g>
</g>
<!-- Node27&#45;&gt;Node5 -->
<g id="edge50_Node000027_Node000005" class="edge">
<title>Node27&#45;&gt;Node5</title>
<g id="a_edge50_Node000027_Node000005"><a xlink:title=" ">
<path fill="none" stroke="#63b8ff" d="M1207.95,-61.74C1109.34,-57.7 877.11,-45.95 684,-19 680.76,-18.55 677.39,-18 674.03,-17.4"/>
<polygon fill="#63b8ff" stroke="#63b8ff" points="674.63,-13.95 664.15,-15.51 673.31,-20.83 674.63,-13.95"/>
</a>
</g>
</g>
<!-- Node27&#45;&gt;Node12 -->
<g id="edge48_Node000027_Node000012" class="edge">
<title>Node27&#45;&gt;Node12</title>
<g id="a_edge48_Node000027_Node000012"><a xlink:title=" ">
<path fill="none" stroke="#63b8ff" d="M1238.33,-54.98C1220.71,-46.5 1193.42,-33.35 1173.07,-23.54"/>
<polygon fill="#63b8ff" stroke="#63b8ff" points="1174.52,-20.36 1163.99,-19.17 1171.48,-26.66 1174.52,-20.36"/>
</a>
</g>
</g>
<!-- Node27&#45;&gt;Node14 -->
<g id="edge49_Node000027_Node000014" class="edge">
<title>Node27&#45;&gt;Node14</title>
<g id="a_edge49_Node000027_Node000014"><a xlink:title=" ">
<path fill="none" stroke="#63b8ff" d="M1207.81,-59.77C1122.04,-52.95 937.33,-37.47 782,-19 776.01,-18.29 769.69,-17.46 763.5,-16.6"/>
<polygon fill="#63b8ff" stroke="#63b8ff" points="763.67,-13.09 753.28,-15.16 762.69,-20.02 763.67,-13.09"/>
</a>
</g>
</g>
<!-- Node27&#45;&gt;Node22 -->
<g id="edge51_Node000027_Node000022" class="edge">
<title>Node27&#45;&gt;Node22</title>
<g id="a_edge51_Node000027_Node000022"><a xlink:title=" ">
<path fill="none" stroke="#63b8ff" d="M1272.07,-54.98C1287.86,-46.61 1312.22,-33.7 1330.63,-23.95"/>
<polygon fill="#63b8ff" stroke="#63b8ff" points="1332.44,-26.95 1339.64,-19.17 1329.17,-20.76 1332.44,-26.95"/>
</a>
</g>
</g>
<!-- Node28 -->
<g id="Node000028" class="node">
<title>Node28</title>
<g id="a_Node000028"><a xlink:title=" ">
<polygon fill="#e0e0e0" stroke="#999999" points="1242,-19 1192,-19 1192,0 1242,0 1242,-19"/>
<text text-anchor="middle" x="1217" y="-7" font-family="Helvetica,sans-Serif" font-size="10.00">chrono</text>
</a>
</g>
</g>
<!-- Node27&#45;&gt;Node28 -->
<g id="edge46_Node000027_Node000028" class="edge">
<title>Node27&#45;&gt;Node28</title>
<g id="a_edge46_Node000027_Node000028"><a xlink:title=" ">
<path fill="none" stroke="#63b8ff" d="M1249.56,-54.75C1244.11,-47.34 1236.14,-36.5 1229.44,-27.41"/>
<polygon fill="#63b8ff" stroke="#63b8ff" points="1232.07,-25.07 1223.32,-19.09 1226.43,-29.22 1232.07,-25.07"/>
</a>
</g>
</g>
<!-- Node29 -->
<g id="Node000029" class="node">
<title>Node29</title>
<g id="a_Node000029"><a xlink:title=" ">
<polygon fill="#e0e0e0" stroke="#999999" points="1313.5,-19 1260.5,-19 1260.5,0 1313.5,0 1313.5,-19"/>
<text text-anchor="middle" x="1287" y="-7" font-family="Helvetica,sans-Serif" font-size="10.00">cstdarg</text>
</a>
</g>
</g>
<!-- Node27&#45;&gt;Node29 -->
<g id="edge47_Node000027_Node000029" class="edge">
<title>Node27&#45;&gt;Node29</title>
<g id="a_edge47_Node000027_Node000029"><a xlink:title=" ">
<path fill="none" stroke="#63b8ff" d="M1261.12,-54.75C1265.36,-47.49 1271.53,-36.95 1276.78,-27.98"/>
<polygon fill="#63b8ff" stroke="#63b8ff" points="1279.95,-29.49 1281.98,-19.09 1273.91,-25.95 1279.95,-29.49"/>
</a>
</g>
</g>
</g>
</svg>
