<?xml version="1.0" encoding="UTF-8" standalone="no"?>
<!DOCTYPE svg PUBLIC "-//W3C//DTD SVG 1.1//EN"
 "http://www.w3.org/Graphics/SVG/1.1/DTD/svg11.dtd">
<!-- Generated by graphviz version 2.43.0 (0)
 -->
<!-- Title: src/lib/utils/fileExport.cpp Pages: 1 -->
<svg width="1598pt" height="192pt"
 viewBox="0.00 0.00 1598.00 192.00" xmlns="http://www.w3.org/2000/svg" xmlns:xlink="http://www.w3.org/1999/xlink">
<g id="graph0" class="graph" transform="scale(1 1) rotate(0) translate(4 188)">
<title>src/lib/utils/fileExport.cpp</title>
<!-- Node1 -->
<g id="Node000001" class="node">
<title>Node1</title>
<g id="a_Node000001"><a xlink:title=" ">
<polygon fill="#999999" stroke="#666666" points="1045.5,-184 905.5,-184 905.5,-165 1045.5,-165 1045.5,-184"/>
<text text-anchor="middle" x="975.5" y="-172" font-family="Helvetica,sans-Serif" font-size="10.00">src/lib/utils/fileExport.cpp</text>
</a>
</g>
</g>
<!-- Node2 -->
<g id="Node000002" class="node">
<title>Node2</title>
<g id="a_Node000002"><a xlink:href="fileExport_8hpp.html" target="_top" xlink:title=" ">
<polygon fill="white" stroke="#666666" points="583.5,-129 499.5,-129 499.5,-110 583.5,-110 583.5,-129"/>
<text text-anchor="middle" x="541.5" y="-117" font-family="Helvetica,sans-Serif" font-size="10.00">fileExport.hpp</text>
</a>
</g>
</g>
<!-- Node1&#45;&gt;Node2 -->
<g id="edge1_Node000001_Node000002" class="edge">
<title>Node1&#45;&gt;Node2</title>
<g id="a_edge1_Node000001_Node000002"><a xlink:title=" ">
<path fill="none" stroke="#63b8ff" d="M905.77,-164.98C818.74,-154.36 671.89,-136.42 593.87,-126.9"/>
<polygon fill="#63b8ff" stroke="#63b8ff" points="594.14,-123.4 583.79,-125.66 593.29,-130.35 594.14,-123.4"/>
</a>
</g>
</g>
<!-- Node3 -->
<g id="Node000003" class="node">
<title>Node3</title>
<g id="a_Node000003"><a xlink:title=" ">
<polygon fill="#e0e0e0" stroke="#999999" points="53,-19 0,-19 0,0 53,0 53,-19"/>
<text text-anchor="middle" x="26.5" y="-7" font-family="Helvetica,sans-Serif" font-size="10.00">cstddef</text>
</a>
</g>
</g>
<!-- Node1&#45;&gt;Node3 -->
<g id="edge27_Node000001_Node000003" class="edge">
<title>Node1&#45;&gt;Node3</title>
<g id="a_edge27_Node000001_Node000003"><a xlink:title=" ">
<path fill="none" stroke="#63b8ff" d="M905.47,-170.94C765.62,-165.43 456.3,-151.12 352.5,-129 237.73,-104.54 108.79,-48.65 53.75,-23.36"/>
<polygon fill="#63b8ff" stroke="#63b8ff" points="54.9,-20.03 44.36,-19.01 51.96,-26.39 54.9,-20.03"/>
</a>
</g>
</g>
<!-- Node4 -->
<g id="Node000004" class="node">
<title>Node4</title>
<g id="a_Node000004"><a xlink:title=" ">
<polygon fill="#e0e0e0" stroke="#999999" points="129.5,-19 71.5,-19 71.5,0 129.5,0 129.5,-19"/>
<text text-anchor="middle" x="100.5" y="-7" font-family="Helvetica,sans-Serif" font-size="10.00">memory</text>
</a>
</g>
</g>
<!-- Node1&#45;&gt;Node4 -->
<g id="edge34_Node000001_Node000004" class="edge">
<title>Node1&#45;&gt;Node4</title>
<g id="a_edge34_Node000001_Node000004"><a xlink:title=" ">
<path fill="none" stroke="#63b8ff" d="M905.26,-173.63C799.42,-172.52 593.25,-165.33 422.5,-129 350.59,-113.7 335.5,-99.36 266.5,-74 219.39,-56.69 165.12,-35.74 131.82,-22.76"/>
<polygon fill="#63b8ff" stroke="#63b8ff" points="132.77,-19.38 122.18,-19 130.23,-25.9 132.77,-19.38"/>
</a>
</g>
</g>
<!-- Node5 -->
<g id="Node000005" class="node">
<title>Node5</title>
<g id="a_Node000005"><a xlink:title=" ">
<polygon fill="#e0e0e0" stroke="#999999" points="858.5,-19 814.5,-19 814.5,0 858.5,0 858.5,-19"/>
<text text-anchor="middle" x="836.5" y="-7" font-family="Helvetica,sans-Serif" font-size="10.00">string</text>
</a>
</g>
</g>
<!-- Node1&#45;&gt;Node5 -->
<g id="edge38_Node000001_Node000005" class="edge">
<title>Node1&#45;&gt;Node5</title>
<g id="a_edge38_Node000001_Node000005"><a xlink:title=" ">
<path fill="none" stroke="#63b8ff" d="M905.43,-167.82C851.77,-161.86 784.05,-150.29 766.5,-129 745.57,-103.62 749.57,-83.78 765.5,-55 773.99,-39.65 790.24,-28.89 805.05,-21.8"/>
<polygon fill="#63b8ff" stroke="#63b8ff" points="806.73,-24.88 814.48,-17.66 803.91,-18.47 806.73,-24.88"/>
</a>
</g>
</g>
<!-- Node6 -->
<g id="Node000006" class="node">
<title>Node6</title>
<g id="a_Node000006"><a xlink:title=" ">
<polygon fill="#e0e0e0" stroke="#999999" points="195,-19 148,-19 148,0 195,0 195,-19"/>
<text text-anchor="middle" x="171.5" y="-7" font-family="Helvetica,sans-Serif" font-size="10.00">vector</text>
</a>
</g>
</g>
<!-- Node1&#45;&gt;Node6 -->
<g id="edge40_Node000001_Node000006" class="edge">
<title>Node1&#45;&gt;Node6</title>
<g id="a_edge40_Node000001_Node000006"><a xlink:title=" ">
<path fill="none" stroke="#63b8ff" d="M905.12,-172.84C809.94,-170.63 635.41,-161.95 490.5,-129 378.51,-103.53 252.65,-48.41 198.57,-23.36"/>
<polygon fill="#63b8ff" stroke="#63b8ff" points="199.87,-20.1 189.32,-19.04 196.91,-26.44 199.87,-20.1"/>
</a>
</g>
</g>
<!-- Node7 -->
<g id="Node000007" class="node">
<title>Node7</title>
<g id="a_Node000007"><a xlink:href="utils_8hpp.html" target="_top" xlink:title=" ">
<polygon fill="white" stroke="#666666" points="864,-74 781,-74 781,-55 864,-55 864,-74"/>
<text text-anchor="middle" x="822.5" y="-62" font-family="Helvetica,sans-Serif" font-size="10.00">utils/utils.hpp</text>
</a>
</g>
</g>
<!-- Node1&#45;&gt;Node7 -->
<g id="edge46_Node000001_Node000007" class="edge">
<title>Node1&#45;&gt;Node7</title>
<g id="a_edge46_Node000001_Node000007"><a xlink:title=" ">
<path fill="none" stroke="#63b8ff" d="M963.24,-164.84C937.05,-146.36 875.43,-102.86 843.11,-80.05"/>
<polygon fill="#63b8ff" stroke="#63b8ff" points="845.01,-77.1 834.82,-74.2 840.97,-82.82 845.01,-77.1"/>
</a>
</g>
</g>
<!-- Node8 -->
<g id="Node000008" class="node">
<title>Node8</title>
<g id="a_Node000008"><a xlink:title=" ">
<polygon fill="#e0e0e0" stroke="#999999" points="996.5,-19 954.5,-19 954.5,0 996.5,0 996.5,-19"/>
<text text-anchor="middle" x="975.5" y="-7" font-family="Helvetica,sans-Serif" font-size="10.00">array</text>
</a>
</g>
</g>
<!-- Node1&#45;&gt;Node8 -->
<g id="edge25_Node000001_Node000008" class="edge">
<title>Node1&#45;&gt;Node8</title>
<g id="a_edge25_Node000001_Node000008"><a xlink:title=" ">
<path fill="none" stroke="#63b8ff" d="M975.5,-164.74C975.5,-139.31 975.5,-65.08 975.5,-29.69"/>
<polygon fill="#63b8ff" stroke="#63b8ff" points="979,-29.31 975.5,-19.31 972,-29.31 979,-29.31"/>
</a>
</g>
</g>
<!-- Node9 -->
<g id="Node000009" class="node">
<title>Node9</title>
<g id="a_Node000009"><a xlink:title=" ">
<polygon fill="#e0e0e0" stroke="#999999" points="722.5,-19 672.5,-19 672.5,0 722.5,0 722.5,-19"/>
<text text-anchor="middle" x="697.5" y="-7" font-family="Helvetica,sans-Serif" font-size="10.00">cstdint</text>
</a>
</g>
</g>
<!-- Node1&#45;&gt;Node9 -->
<g id="edge28_Node000001_Node000009" class="edge">
<title>Node1&#45;&gt;Node9</title>
<g id="a_edge28_Node000001_Node000009"><a xlink:title=" ">
<path fill="none" stroke="#63b8ff" d="M905.49,-166.59C848.93,-159.76 775.01,-147.61 751.5,-129 719.7,-103.83 705.95,-55.75 700.57,-29.23"/>
<polygon fill="#63b8ff" stroke="#63b8ff" points="704,-28.51 698.75,-19.31 697.11,-29.78 704,-28.51"/>
</a>
</g>
</g>
<!-- Node10 -->
<g id="Node000010" class="node">
<title>Node10</title>
<g id="a_Node000010"><a xlink:title=" ">
<polygon fill="#e0e0e0" stroke="#999999" points="1058.5,-19 1014.5,-19 1014.5,0 1058.5,0 1058.5,-19"/>
<text text-anchor="middle" x="1036.5" y="-7" font-family="Helvetica,sans-Serif" font-size="10.00">limits</text>
</a>
</g>
</g>
<!-- Node1&#45;&gt;Node10 -->
<g id="edge33_Node000001_Node000010" class="edge">
<title>Node1&#45;&gt;Node10</title>
<g id="a_edge33_Node000001_Node000010"><a xlink:title=" ">
<path fill="none" stroke="#63b8ff" d="M978.78,-164.74C988.38,-139.09 1016.56,-63.78 1029.66,-28.78"/>
<polygon fill="#63b8ff" stroke="#63b8ff" points="1032.98,-29.9 1033.2,-19.31 1026.42,-27.45 1032.98,-29.9"/>
</a>
</g>
</g>
<!-- Node12 -->
<g id="Node000012" class="node">
<title>Node12</title>
<g id="a_Node000012"><a xlink:title=" ">
<polygon fill="#e0e0e0" stroke="#999999" points="1132.5,-19 1076.5,-19 1076.5,0 1132.5,0 1132.5,-19"/>
<text text-anchor="middle" x="1104.5" y="-7" font-family="Helvetica,sans-Serif" font-size="10.00">iomanip</text>
</a>
</g>
</g>
<!-- Node1&#45;&gt;Node12 -->
<g id="edge31_Node000001_Node000012" class="edge">
<title>Node1&#45;&gt;Node12</title>
<g id="a_edge31_Node000001_Node000012"><a xlink:title=" ">
<path fill="none" stroke="#63b8ff" d="M982.44,-164.74C1003,-138.76 1063.88,-61.83 1091.09,-27.44"/>
<polygon fill="#63b8ff" stroke="#63b8ff" points="1094.07,-29.32 1097.53,-19.31 1088.58,-24.98 1094.07,-29.32"/>
</a>
</g>
</g>
<!-- Node13 -->
<g id="Node000013" class="node">
<title>Node13</title>
<g id="a_Node000013"><a xlink:href="uvgvpcc_8hpp.html" target="_top" xlink:title=" ">
<polygon fill="white" stroke="#666666" points="602.5,-74 480.5,-74 480.5,-55 602.5,-55 602.5,-74"/>
<text text-anchor="middle" x="541.5" y="-62" font-family="Helvetica,sans-Serif" font-size="10.00">uvgvpcc/uvgvpcc.hpp</text>
</a>
</g>
</g>
<!-- Node1&#45;&gt;Node13 -->
<g id="edge54_Node000001_Node000013" class="edge">
<title>Node1&#45;&gt;Node13</title>
<g id="a_edge54_Node000001_Node000013"><a xlink:title=" ">
<path fill="none" stroke="#63b8ff" d="M905.28,-170.37C840.81,-165.9 743.33,-155.09 662.5,-129 625.43,-117.03 586.13,-94.29 562.72,-79.52"/>
<polygon fill="#63b8ff" stroke="#63b8ff" points="564.58,-76.56 554.27,-74.11 560.8,-82.45 564.58,-76.56"/>
</a>
</g>
</g>
<!-- Node20 -->
<g id="Node000020" class="node">
<title>Node20</title>
<g id="a_Node000020"><a xlink:title=" ">
<polygon fill="#e0e0e0" stroke="#999999" points="1207.5,-129 1155.5,-129 1155.5,-110 1207.5,-110 1207.5,-129"/>
<text text-anchor="middle" x="1181.5" y="-117" font-family="Helvetica,sans-Serif" font-size="10.00">cassert</text>
</a>
</g>
</g>
<!-- Node1&#45;&gt;Node20 -->
<g id="edge26_Node000001_Node000020" class="edge">
<title>Node1&#45;&gt;Node20</title>
<g id="a_edge26_Node000001_Node000020"><a xlink:title=" ">
<path fill="none" stroke="#63b8ff" d="M1008.6,-164.98C1046.08,-155.34 1106.94,-139.68 1145.56,-129.75"/>
<polygon fill="#63b8ff" stroke="#63b8ff" points="1146.53,-133.11 1155.35,-127.23 1144.79,-126.33 1146.53,-133.11"/>
</a>
</g>
</g>
<!-- Node21 -->
<g id="Node000021" class="node">
<title>Node21</title>
<g id="a_Node000021"><a xlink:title=" ">
<polygon fill="#e0e0e0" stroke="#999999" points="1293.5,-129 1225.5,-129 1225.5,-110 1293.5,-110 1293.5,-129"/>
<text text-anchor="middle" x="1259.5" y="-117" font-family="Helvetica,sans-Serif" font-size="10.00">filesystem</text>
</a>
</g>
</g>
<!-- Node1&#45;&gt;Node21 -->
<g id="edge29_Node000001_Node000021" class="edge">
<title>Node1&#45;&gt;Node21</title>
<g id="a_edge29_Node000001_Node000021"><a xlink:title=" ">
<path fill="none" stroke="#63b8ff" d="M1022.64,-164.98C1069.06,-156.54 1142.27,-143.13 1214.99,-129.27"/>
<polygon fill="#63b8ff" stroke="#63b8ff" points="1216.07,-132.63 1225.24,-127.31 1214.76,-125.75 1216.07,-132.63"/>
</a>
</g>
</g>
<!-- Node22 -->
<g id="Node000022" class="node">
<title>Node22</title>
<g id="a_Node000022"><a xlink:title=" ">
<polygon fill="#e0e0e0" stroke="#999999" points="1367,-129 1312,-129 1312,-110 1367,-110 1367,-129"/>
<text text-anchor="middle" x="1339.5" y="-117" font-family="Helvetica,sans-Serif" font-size="10.00">fstream</text>
</a>
</g>
</g>
<!-- Node1&#45;&gt;Node22 -->
<g id="edge30_Node000001_Node000022" class="edge">
<title>Node1&#45;&gt;Node22</title>
<g id="a_edge30_Node000001_Node000022"><a xlink:title=" ">
<path fill="none" stroke="#63b8ff" d="M1045.64,-165.82C1109.78,-158.37 1207.48,-145.96 1301.69,-128.99"/>
<polygon fill="#63b8ff" stroke="#63b8ff" points="1302.46,-132.41 1311.68,-127.18 1301.21,-125.52 1302.46,-132.41"/>
</a>
</g>
</g>
<!-- Node23 -->
<g id="Node000023" class="node">
<title>Node23</title>
<g id="a_Node000023"><a xlink:title=" ">
<polygon fill="#e0e0e0" stroke="#999999" points="1416,-129 1385,-129 1385,-110 1416,-110 1416,-129"/>
<text text-anchor="middle" x="1400.5" y="-117" font-family="Helvetica,sans-Serif" font-size="10.00">ios</text>
</a>
</g>
</g>
<!-- Node1&#45;&gt;Node23 -->
<g id="edge32_Node000001_Node000023" class="edge">
<title>Node1&#45;&gt;Node23</title>
<g id="a_edge32_Node000001_Node000023"><a xlink:title=" ">
<path fill="none" stroke="#63b8ff" d="M1045.86,-170.59C1124.37,-166.24 1255.09,-155.74 1374.83,-128.91"/>
<polygon fill="#63b8ff" stroke="#63b8ff" points="1375.93,-132.25 1384.9,-126.6 1374.37,-125.42 1375.93,-132.25"/>
</a>
</g>
</g>
<!-- Node24 -->
<g id="Node000024" class="node">
<title>Node24</title>
<g id="a_Node000024"><a xlink:title=" ">
<polygon fill="#e0e0e0" stroke="#999999" points="1338.5,-19 1290.5,-19 1290.5,0 1338.5,0 1338.5,-19"/>
<text text-anchor="middle" x="1314.5" y="-7" font-family="Helvetica,sans-Serif" font-size="10.00">mutex</text>
</a>
</g>
</g>
<!-- Node1&#45;&gt;Node24 -->
<g id="edge35_Node000001_Node000024" class="edge">
<title>Node1&#45;&gt;Node24</title>
<g id="a_edge35_Node000001_Node000024"><a xlink:title=" ">
<path fill="none" stroke="#63b8ff" d="M1000.07,-164.94C1023.6,-156.52 1059.92,-142.95 1090.5,-129 1165.54,-94.77 1250.8,-47.13 1291.07,-24.07"/>
<polygon fill="#63b8ff" stroke="#63b8ff" points="1292.93,-27.04 1299.86,-19.02 1289.45,-20.97 1292.93,-27.04"/>
</a>
</g>
</g>
<!-- Node25 -->
<g id="Node000025" class="node">
<title>Node25</title>
<g id="a_Node000025"><a xlink:title=" ">
<polygon fill="#e0e0e0" stroke="#999999" points="1491,-129 1434,-129 1434,-110 1491,-110 1491,-129"/>
<text text-anchor="middle" x="1462.5" y="-117" font-family="Helvetica,sans-Serif" font-size="10.00">ostream</text>
</a>
</g>
</g>
<!-- Node1&#45;&gt;Node25 -->
<g id="edge36_Node000001_Node000025" class="edge">
<title>Node1&#45;&gt;Node25</title>
<g id="a_edge36_Node000001_Node000025"><a xlink:title=" ">
<path fill="none" stroke="#63b8ff" d="M1045.62,-169.34C1132.37,-163.57 1284.7,-151.42 1423.89,-129.08"/>
<polygon fill="#63b8ff" stroke="#63b8ff" points="1424.58,-132.51 1433.89,-127.45 1423.46,-125.6 1424.58,-132.51"/>
</a>
</g>
</g>
<!-- Node26 -->
<g id="Node000026" class="node">
<title>Node26</title>
<g id="a_Node000026"><a xlink:title=" ">
<polygon fill="#e0e0e0" stroke="#999999" points="947,-74 882,-74 882,-55 947,-55 947,-74"/>
<text text-anchor="middle" x="914.5" y="-62" font-family="Helvetica,sans-Serif" font-size="10.00">stdexcept</text>
</a>
</g>
</g>
<!-- Node1&#45;&gt;Node26 -->
<g id="edge37_Node000001_Node000026" class="edge">
<title>Node1&#45;&gt;Node26</title>
<g id="a_edge37_Node000001_Node000026"><a xlink:title=" ">
<path fill="none" stroke="#63b8ff" d="M970.51,-164.66C960.45,-146.85 937.58,-106.37 924.39,-83.01"/>
<polygon fill="#63b8ff" stroke="#63b8ff" points="927.36,-81.14 919.39,-74.16 921.26,-84.59 927.36,-81.14"/>
</a>
</g>
</g>
<!-- Node27 -->
<g id="Node000027" class="node">
<title>Node27</title>
<g id="a_Node000027"><a xlink:title=" ">
<polygon fill="#e0e0e0" stroke="#999999" points="1590,-129 1509,-129 1509,-110 1590,-110 1590,-129"/>
<text text-anchor="middle" x="1549.5" y="-117" font-family="Helvetica,sans-Serif" font-size="10.00">system_error</text>
</a>
</g>
</g>
<!-- Node1&#45;&gt;Node27 -->
<g id="edge39_Node000001_Node000027" class="edge">
<title>Node1&#45;&gt;Node27</title>
<g id="a_edge39_Node000001_Node000027"><a xlink:title=" ">
<path fill="none" stroke="#63b8ff" d="M1045.77,-169.5C1144.7,-163.43 1330.88,-150.42 1498.88,-129.11"/>
<polygon fill="#63b8ff" stroke="#63b8ff" points="1499.43,-132.57 1508.9,-127.82 1498.54,-125.62 1499.43,-132.57"/>
</a>
</g>
</g>
<!-- Node28 -->
<g id="Node000028" class="node">
<title>Node28</title>
<g id="a_Node000028"><a xlink:href="parameters_8hpp.html" target="_top" xlink:title=" ">
<polygon fill="white" stroke="#666666" points="869.5,-129 775.5,-129 775.5,-110 869.5,-110 869.5,-129"/>
<text text-anchor="middle" x="822.5" y="-117" font-family="Helvetica,sans-Serif" font-size="10.00">parameters.hpp</text>
</a>
</g>
</g>
<!-- Node1&#45;&gt;Node28 -->
<g id="edge41_Node000001_Node000028" class="edge">
<title>Node1&#45;&gt;Node28</title>
<g id="a_edge41_Node000001_Node000028"><a xlink:title=" ">
<path fill="none" stroke="#63b8ff" d="M950.92,-164.98C925.45,-156.16 885.46,-142.31 856.87,-132.41"/>
<polygon fill="#63b8ff" stroke="#63b8ff" points="857.87,-129.05 847.27,-129.08 855.58,-135.66 857.87,-129.05"/>
</a>
</g>
</g>
<!-- Node29 -->
<g id="Node000029" class="node">
<title>Node29</title>
<g id="a_Node000029"><a xlink:href="log_8hpp.html" target="_top" xlink:title=" ">
<polygon fill="white" stroke="#666666" points="1175.5,-74 1079.5,-74 1079.5,-55 1175.5,-55 1175.5,-74"/>
<text text-anchor="middle" x="1127.5" y="-62" font-family="Helvetica,sans-Serif" font-size="10.00">uvgvpcc/log.hpp</text>
</a>
</g>
</g>
<!-- Node1&#45;&gt;Node29 -->
<g id="edge47_Node000001_Node000029" class="edge">
<title>Node1&#45;&gt;Node29</title>
<g id="a_edge47_Node000001_Node000029"><a xlink:title=" ">
<path fill="none" stroke="#63b8ff" d="M997.75,-164.99C1016.72,-157.17 1044.21,-144.47 1065.5,-129 1084.29,-115.35 1102.44,-95.76 1114.2,-81.96"/>
<polygon fill="#63b8ff" stroke="#63b8ff" points="1116.94,-84.14 1120.64,-74.22 1111.55,-79.67 1116.94,-84.14"/>
</a>
</g>
</g>
<!-- Node2&#45;&gt;Node3 -->
<g id="edge2_Node000002_Node000003" class="edge">
<title>Node2&#45;&gt;Node3</title>
<g id="a_edge2_Node000002_Node000003"><a xlink:title=" ">
<path fill="none" stroke="#63b8ff" d="M499.33,-111.77C449.52,-103.65 364.22,-89.17 291.5,-74 209.39,-56.87 113.92,-33.01 62.97,-19.96"/>
<polygon fill="#63b8ff" stroke="#63b8ff" points="63.65,-16.52 53.09,-17.42 61.9,-23.3 63.65,-16.52"/>
</a>
</g>
</g>
<!-- Node2&#45;&gt;Node4 -->
<g id="edge3_Node000002_Node000004" class="edge">
<title>Node2&#45;&gt;Node4</title>
<g id="a_edge3_Node000002_Node000004"><a xlink:title=" ">
<path fill="none" stroke="#63b8ff" d="M506.53,-109.94C425.28,-90.04 224.28,-40.81 139.36,-20.02"/>
<polygon fill="#63b8ff" stroke="#63b8ff" points="140.14,-16.6 129.59,-17.63 138.47,-23.4 140.14,-16.6"/>
</a>
</g>
</g>
<!-- Node2&#45;&gt;Node5 -->
<g id="edge4_Node000002_Node000005" class="edge">
<title>Node2&#45;&gt;Node5</title>
<g id="a_edge4_Node000002_Node000005"><a xlink:title=" ">
<path fill="none" stroke="#63b8ff" d="M561.92,-109.86C592.03,-97.23 650.21,-73.25 700.5,-55 735.86,-42.17 776.96,-28.95 804.65,-20.29"/>
<polygon fill="#63b8ff" stroke="#63b8ff" points="805.7,-23.63 814.21,-17.31 803.62,-16.94 805.7,-23.63"/>
</a>
</g>
</g>
<!-- Node2&#45;&gt;Node6 -->
<g id="edge5_Node000002_Node000006" class="edge">
<title>Node2&#45;&gt;Node6</title>
<g id="a_edge5_Node000002_Node000006"><a xlink:title=" ">
<path fill="none" stroke="#63b8ff" d="M522.42,-109.79C492.51,-96.41 432.5,-70.71 379.5,-55 306.34,-33.31 283.62,-36.6 205.12,-19.02"/>
<polygon fill="#63b8ff" stroke="#63b8ff" points="205.79,-15.58 195.26,-16.77 204.23,-22.41 205.79,-15.58"/>
</a>
</g>
</g>
<!-- Node2&#45;&gt;Node7 -->
<g id="edge6_Node000002_Node000007" class="edge">
<title>Node2&#45;&gt;Node7</title>
<g id="a_edge6_Node000002_Node000007"><a xlink:title=" ">
<path fill="none" stroke="#63b8ff" d="M583.57,-110.57C633.48,-101.15 716.69,-85.46 770.57,-75.29"/>
<polygon fill="#63b8ff" stroke="#63b8ff" points="771.43,-78.7 780.6,-73.4 770.13,-71.82 771.43,-78.7"/>
</a>
</g>
</g>
<!-- Node2&#45;&gt;Node13 -->
<g id="edge12_Node000002_Node000013" class="edge">
<title>Node2&#45;&gt;Node13</title>
<g id="a_edge12_Node000002_Node000013"><a xlink:title=" ">
<path fill="none" stroke="#63b8ff" d="M541.5,-109.75C541.5,-102.8 541.5,-92.85 541.5,-84.13"/>
<polygon fill="#63b8ff" stroke="#63b8ff" points="545,-84.09 541.5,-74.09 538,-84.09 545,-84.09"/>
</a>
</g>
</g>
<!-- Node7&#45;&gt;Node8 -->
<g id="edge7_Node000007_Node000008" class="edge">
<title>Node7&#45;&gt;Node8</title>
<g id="a_edge7_Node000007_Node000008"><a xlink:title=" ">
<path fill="none" stroke="#63b8ff" d="M847.08,-54.98C873.68,-45.77 916.13,-31.07 944.88,-21.11"/>
<polygon fill="#63b8ff" stroke="#63b8ff" points="946.12,-24.38 954.43,-17.8 943.83,-17.77 946.12,-24.38"/>
</a>
</g>
</g>
<!-- Node7&#45;&gt;Node9 -->
<g id="edge8_Node000007_Node000009" class="edge">
<title>Node7&#45;&gt;Node9</title>
<g id="a_edge8_Node000007_Node000009"><a xlink:title=" ">
<path fill="none" stroke="#63b8ff" d="M802.42,-54.98C782.13,-46.38 750.54,-32.99 727.33,-23.15"/>
<polygon fill="#63b8ff" stroke="#63b8ff" points="728.52,-19.85 717.95,-19.17 725.79,-26.3 728.52,-19.85"/>
</a>
</g>
</g>
<!-- Node7&#45;&gt;Node10 -->
<g id="edge9_Node000007_Node000010" class="edge">
<title>Node7&#45;&gt;Node10</title>
<g id="a_edge9_Node000007_Node000010"><a xlink:title=" ">
<path fill="none" stroke="#63b8ff" d="M859.04,-54.95C894.01,-46.68 948.48,-33.63 1004.45,-19.22"/>
<polygon fill="#63b8ff" stroke="#63b8ff" points="1005.36,-22.6 1014.17,-16.71 1003.61,-15.82 1005.36,-22.6"/>
</a>
</g>
</g>
<!-- Node11 -->
<g id="Node000011" class="node">
<title>Node11</title>
<g id="a_Node000011"><a xlink:title=" ">
<polygon fill="#e0e0e0" stroke="#999999" points="796.5,-19 740.5,-19 740.5,0 796.5,0 796.5,-19"/>
<text text-anchor="middle" x="768.5" y="-7" font-family="Helvetica,sans-Serif" font-size="10.00">sstream</text>
</a>
</g>
</g>
<!-- Node7&#45;&gt;Node11 -->
<g id="edge10_Node000007_Node000011" class="edge">
<title>Node7&#45;&gt;Node11</title>
<g id="a_edge10_Node000007_Node000011"><a xlink:title=" ">
<path fill="none" stroke="#63b8ff" d="M813.58,-54.75C805.72,-47.03 794.07,-35.6 784.58,-26.28"/>
<polygon fill="#63b8ff" stroke="#63b8ff" points="786.84,-23.6 777.25,-19.09 781.94,-28.59 786.84,-23.6"/>
</a>
</g>
</g>
<!-- Node7&#45;&gt;Node12 -->
<g id="edge11_Node000007_Node000012" class="edge">
<title>Node7&#45;&gt;Node12</title>
<g id="a_edge11_Node000007_Node000012"><a xlink:title=" ">
<path fill="none" stroke="#63b8ff" d="M864.23,-56.52C911.07,-48.56 989.59,-34.81 1066.4,-19.15"/>
<polygon fill="#63b8ff" stroke="#63b8ff" points="1067.15,-22.57 1076.25,-17.13 1065.75,-15.71 1067.15,-22.57"/>
</a>
</g>
</g>
<!-- Node13&#45;&gt;Node3 -->
<g id="edge13_Node000013_Node000003" class="edge">
<title>Node13&#45;&gt;Node3</title>
<g id="a_edge13_Node000013_Node000003"><a xlink:title=" ">
<path fill="none" stroke="#63b8ff" d="M480.29,-60.55C390.83,-55.63 219.06,-43.9 63.38,-18.9"/>
<polygon fill="#63b8ff" stroke="#63b8ff" points="63.59,-15.38 53.15,-17.23 62.46,-22.29 63.59,-15.38"/>
</a>
</g>
</g>
<!-- Node13&#45;&gt;Node4 -->
<g id="edge16_Node000013_Node000004" class="edge">
<title>Node13&#45;&gt;Node4</title>
<g id="a_edge16_Node000013_Node000004"><a xlink:title=" ">
<path fill="none" stroke="#63b8ff" d="M480.45,-58.86C403.34,-52.54 266.43,-39.76 140.13,-19.11"/>
<polygon fill="#63b8ff" stroke="#63b8ff" points="140.33,-15.59 129.9,-17.41 139.19,-22.5 140.33,-15.59"/>
</a>
</g>
</g>
<!-- Node13&#45;&gt;Node5 -->
<g id="edge20_Node000013_Node000005" class="edge">
<title>Node13&#45;&gt;Node5</title>
<g id="a_edge20_Node000013_Node000005"><a xlink:title=" ">
<path fill="none" stroke="#63b8ff" d="M602.65,-54.98C654.07,-47.4 729.67,-35.33 804.19,-19.11"/>
<polygon fill="#63b8ff" stroke="#63b8ff" points="805.2,-22.47 814.22,-16.9 803.7,-15.63 805.2,-22.47"/>
</a>
</g>
</g>
<!-- Node13&#45;&gt;Node6 -->
<g id="edge21_Node000013_Node000006" class="edge">
<title>Node13&#45;&gt;Node6</title>
<g id="a_edge21_Node000013_Node000006"><a xlink:title=" ">
<path fill="none" stroke="#63b8ff" d="M480.37,-56.33C402.23,-47.01 270.2,-30.74 205.07,-18.84"/>
<polygon fill="#63b8ff" stroke="#63b8ff" points="205.69,-15.4 195.22,-16.97 204.39,-22.28 205.69,-15.4"/>
</a>
</g>
</g>
<!-- Node13&#45;&gt;Node9 -->
<g id="edge14_Node000013_Node000009" class="edge">
<title>Node13&#45;&gt;Node9</title>
<g id="a_edge14_Node000013_Node000009"><a xlink:title=" ">
<path fill="none" stroke="#63b8ff" d="M566.56,-54.98C592.61,-46.14 633.55,-32.23 662.72,-22.32"/>
<polygon fill="#63b8ff" stroke="#63b8ff" points="664.16,-25.53 672.5,-18.99 661.9,-18.9 664.16,-25.53"/>
</a>
</g>
</g>
<!-- Node13&#45;&gt;Node11 -->
<g id="edge19_Node000013_Node000011" class="edge">
<title>Node13&#45;&gt;Node11</title>
<g id="a_edge19_Node000013_Node000011"><a xlink:title=" ">
<path fill="none" stroke="#63b8ff" d="M577.97,-54.98C619.77,-45.23 687.95,-29.31 730.42,-19.39"/>
<polygon fill="#63b8ff" stroke="#63b8ff" points="731.42,-22.75 740.36,-17.07 729.83,-15.93 731.42,-22.75"/>
</a>
</g>
</g>
<!-- Node14 -->
<g id="Node000014" class="node">
<title>Node14</title>
<g id="a_Node000014"><a xlink:title=" ">
<polygon fill="#e0e0e0" stroke="#999999" points="936.5,-19 876.5,-19 876.5,0 936.5,0 936.5,-19"/>
<text text-anchor="middle" x="906.5" y="-7" font-family="Helvetica,sans-Serif" font-size="10.00">iostream</text>
</a>
</g>
</g>
<!-- Node13&#45;&gt;Node14 -->
<g id="edge15_Node000013_Node000014" class="edge">
<title>Node13&#45;&gt;Node14</title>
<g id="a_edge15_Node000013_Node000014"><a xlink:title=" ">
<path fill="none" stroke="#63b8ff" d="M602.71,-56.61C666.21,-49.13 768.6,-36.15 866.27,-19.1"/>
<polygon fill="#63b8ff" stroke="#63b8ff" points="867.07,-22.51 876.31,-17.33 865.86,-15.62 867.07,-22.51"/>
</a>
</g>
</g>
<!-- Node15 -->
<g id="Node000015" class="node">
<title>Node15</title>
<g id="a_Node000015"><a xlink:title=" ">
<polygon fill="#e0e0e0" stroke="#999999" points="565,-19 518,-19 518,0 565,0 565,-19"/>
<text text-anchor="middle" x="541.5" y="-7" font-family="Helvetica,sans-Serif" font-size="10.00">queue</text>
</a>
</g>
</g>
<!-- Node13&#45;&gt;Node15 -->
<g id="edge17_Node000013_Node000015" class="edge">
<title>Node13&#45;&gt;Node15</title>
<g id="a_edge17_Node000013_Node000015"><a xlink:title=" ">
<path fill="none" stroke="#63b8ff" d="M541.5,-54.75C541.5,-47.8 541.5,-37.85 541.5,-29.13"/>
<polygon fill="#63b8ff" stroke="#63b8ff" points="545,-29.09 541.5,-19.09 538,-29.09 545,-29.09"/>
</a>
</g>
</g>
<!-- Node16 -->
<g id="Node000016" class="node">
<title>Node16</title>
<g id="a_Node000016"><a xlink:title=" ">
<polygon fill="#e0e0e0" stroke="#999999" points="654,-19 583,-19 583,0 654,0 654,-19"/>
<text text-anchor="middle" x="618.5" y="-7" font-family="Helvetica,sans-Serif" font-size="10.00">semaphore</text>
</a>
</g>
</g>
<!-- Node13&#45;&gt;Node16 -->
<g id="edge18_Node000013_Node000016" class="edge">
<title>Node13&#45;&gt;Node16</title>
<g id="a_edge18_Node000013_Node000016"><a xlink:title=" ">
<path fill="none" stroke="#63b8ff" d="M553.87,-54.98C565.59,-46.92 583.42,-34.65 597.39,-25.03"/>
<polygon fill="#63b8ff" stroke="#63b8ff" points="599.65,-27.72 605.9,-19.17 595.68,-21.96 599.65,-27.72"/>
</a>
</g>
</g>
<!-- Node17 -->
<g id="Node000017" class="node">
<title>Node17</title>
<g id="a_Node000017"><a xlink:title=" ">
<polygon fill="#e0e0e0" stroke="#999999" points="277.5,-19 213.5,-19 213.5,0 277.5,0 277.5,-19"/>
<text text-anchor="middle" x="245.5" y="-7" font-family="Helvetica,sans-Serif" font-size="10.00">algorithm</text>
</a>
</g>
</g>
<!-- Node13&#45;&gt;Node17 -->
<g id="edge22_Node000013_Node000017" class="edge">
<title>Node13&#45;&gt;Node17</title>
<g id="a_edge22_Node000013_Node000017"><a xlink:title=" ">
<path fill="none" stroke="#63b8ff" d="M489.64,-54.94C440.27,-46.69 363.63,-33.58 287.9,-19.22"/>
<polygon fill="#63b8ff" stroke="#63b8ff" points="288.19,-15.71 277.71,-17.28 286.88,-22.59 288.19,-15.71"/>
</a>
</g>
</g>
<!-- Node18 -->
<g id="Node000018" class="node">
<title>Node18</title>
<g id="a_Node000018"><a xlink:title=" ">
<polygon fill="#e0e0e0" stroke="#999999" points="389,-19 296,-19 296,0 389,0 389,-19"/>
<text text-anchor="middle" x="342.5" y="-7" font-family="Helvetica,sans-Serif" font-size="10.00">unordered_map</text>
</a>
</g>
</g>
<!-- Node13&#45;&gt;Node18 -->
<g id="edge23_Node000013_Node000018" class="edge">
<title>Node13&#45;&gt;Node18</title>
<g id="a_edge23_Node000013_Node000018"><a xlink:title=" ">
<path fill="none" stroke="#63b8ff" d="M509.53,-54.98C475.68,-45.97 422.1,-31.7 384.79,-21.76"/>
<polygon fill="#63b8ff" stroke="#63b8ff" points="385.29,-18.27 374.72,-19.08 383.49,-25.04 385.29,-18.27"/>
</a>
</g>
</g>
<!-- Node19 -->
<g id="Node000019" class="node">
<title>Node19</title>
<g id="a_Node000019"><a xlink:title=" ">
<polygon fill="#e0e0e0" stroke="#999999" points="499.5,-19 407.5,-19 407.5,0 499.5,0 499.5,-19"/>
<text text-anchor="middle" x="453.5" y="-7" font-family="Helvetica,sans-Serif" font-size="10.00">../utils/utils.hpp</text>
</a>
</g>
</g>
<!-- Node13&#45;&gt;Node19 -->
<g id="edge24_Node000013_Node000019" class="edge">
<title>Node13&#45;&gt;Node19</title>
<g id="a_edge24_Node000013_Node000019"><a xlink:title=" ">
<path fill="none" stroke="#63b8ff" d="M527.36,-54.98C513.71,-46.77 492.81,-34.18 476.72,-24.49"/>
<polygon fill="#63b8ff" stroke="#63b8ff" points="478.27,-21.33 467.9,-19.17 474.66,-27.33 478.27,-21.33"/>
</a>
</g>
</g>
<!-- Node28&#45;&gt;Node5 -->
<g id="edge43_Node000028_Node000005" class="edge">
<title>Node28&#45;&gt;Node5</title>
<g id="a_edge43_Node000028_Node000005"><a xlink:title=" ">
<path fill="none" stroke="#63b8ff" d="M806.62,-109.83C787.71,-98.28 760.02,-76.76 771.5,-55 778.74,-41.27 792.33,-30.97 805.22,-23.76"/>
<polygon fill="#63b8ff" stroke="#63b8ff" points="807.09,-26.73 814.38,-19.05 803.89,-20.51 807.09,-26.73"/>
</a>
</g>
</g>
<!-- Node28&#45;&gt;Node6 -->
<g id="edge44_Node000028_Node000006" class="edge">
<title>Node28&#45;&gt;Node6</title>
<g id="a_edge44_Node000028_Node000006"><a xlink:title=" ">
<path fill="none" stroke="#63b8ff" d="M775.29,-116.07C707.28,-111.78 578.18,-100.63 471.5,-74 448.44,-68.24 444.45,-61.2 421.5,-55 330.16,-30.33 301.96,-38.62 205.14,-18.94"/>
<polygon fill="#63b8ff" stroke="#63b8ff" points="205.74,-15.49 195.23,-16.88 204.31,-22.34 205.74,-15.49"/>
</a>
</g>
</g>
<!-- Node28&#45;&gt;Node7 -->
<g id="edge45_Node000028_Node000007" class="edge">
<title>Node28&#45;&gt;Node7</title>
<g id="a_edge45_Node000028_Node000007"><a xlink:title=" ">
<path fill="none" stroke="#63b8ff" d="M822.5,-109.75C822.5,-102.8 822.5,-92.85 822.5,-84.13"/>
<polygon fill="#63b8ff" stroke="#63b8ff" points="826,-84.09 822.5,-74.09 819,-84.09 826,-84.09"/>
</a>
</g>
</g>
<!-- Node28&#45;&gt;Node26 -->
<g id="edge42_Node000028_Node000026" class="edge">
<title>Node28&#45;&gt;Node26</title>
<g id="a_edge42_Node000028_Node000026"><a xlink:title=" ">
<path fill="none" stroke="#63b8ff" d="M837.28,-109.98C851.68,-101.69 873.81,-88.94 890.69,-79.22"/>
<polygon fill="#63b8ff" stroke="#63b8ff" points="892.53,-82.19 899.45,-74.17 889.04,-76.13 892.53,-82.19"/>
</a>
</g>
</g>
<!-- Node29&#45;&gt;Node5 -->
<g id="edge52_Node000029_Node000005" class="edge">
<title>Node29&#45;&gt;Node5</title>
<g id="a_edge52_Node000029_Node000005"><a xlink:title=" ">
<path fill="none" stroke="#63b8ff" d="M1079.3,-56.7C1029.05,-49.28 947.82,-36.4 868.9,-19.13"/>
<polygon fill="#63b8ff" stroke="#63b8ff" points="869.31,-15.64 858.79,-16.89 867.79,-22.47 869.31,-15.64"/>
</a>
</g>
</g>
<!-- Node29&#45;&gt;Node12 -->
<g id="edge50_Node000029_Node000012" class="edge">
<title>Node29&#45;&gt;Node12</title>
<g id="a_edge50_Node000029_Node000012"><a xlink:title=" ">
<path fill="none" stroke="#63b8ff" d="M1123.7,-54.75C1120.59,-47.57 1116.08,-37.18 1112.21,-28.27"/>
<polygon fill="#63b8ff" stroke="#63b8ff" points="1115.42,-26.87 1108.23,-19.09 1109,-29.66 1115.42,-26.87"/>
</a>
</g>
</g>
<!-- Node29&#45;&gt;Node14 -->
<g id="edge51_Node000029_Node000014" class="edge">
<title>Node29&#45;&gt;Node14</title>
<g id="a_edge51_Node000029_Node000014"><a xlink:title=" ">
<path fill="none" stroke="#63b8ff" d="M1091.99,-54.98C1052.2,-45.44 987.85,-30.01 946.36,-20.06"/>
<polygon fill="#63b8ff" stroke="#63b8ff" points="947.13,-16.65 936.59,-17.72 945.5,-23.45 947.13,-16.65"/>
</a>
</g>
</g>
<!-- Node29&#45;&gt;Node24 -->
<g id="edge53_Node000029_Node000024" class="edge">
<title>Node29&#45;&gt;Node24</title>
<g id="a_edge53_Node000029_Node000024"><a xlink:title=" ">
<path fill="none" stroke="#63b8ff" d="M1157.54,-54.98C1191.19,-45.45 1245.58,-30.03 1280.68,-20.09"/>
<polygon fill="#63b8ff" stroke="#63b8ff" points="1281.81,-23.4 1290.47,-17.31 1279.9,-16.67 1281.81,-23.4"/>
</a>
</g>
</g>
<!-- Node30 -->
<g id="Node000030" class="node">
<title>Node30</title>
<g id="a_Node000030"><a xlink:title=" ">
<polygon fill="#e0e0e0" stroke="#999999" points="1200.5,-19 1150.5,-19 1150.5,0 1200.5,0 1200.5,-19"/>
<text text-anchor="middle" x="1175.5" y="-7" font-family="Helvetica,sans-Serif" font-size="10.00">chrono</text>
</a>
</g>
</g>
<!-- Node29&#45;&gt;Node30 -->
<g id="edge48_Node000029_Node000030" class="edge">
<title>Node29&#45;&gt;Node30</title>
<g id="a_edge48_Node000029_Node000030"><a xlink:title=" ">
<path fill="none" stroke="#63b8ff" d="M1135.43,-54.75C1142.35,-47.11 1152.57,-35.82 1160.95,-26.56"/>
<polygon fill="#63b8ff" stroke="#63b8ff" points="1163.6,-28.85 1167.72,-19.09 1158.41,-24.15 1163.6,-28.85"/>
</a>
</g>
</g>
<!-- Node31 -->
<g id="Node000031" class="node">
<title>Node31</title>
<g id="a_Node000031"><a xlink:title=" ">
<polygon fill="#e0e0e0" stroke="#999999" points="1272,-19 1219,-19 1219,0 1272,0 1272,-19"/>
<text text-anchor="middle" x="1245.5" y="-7" font-family="Helvetica,sans-Serif" font-size="10.00">cstdarg</text>
</a>
</g>
</g>
<!-- Node29&#45;&gt;Node31 -->
<g id="edge49_Node000029_Node000031" class="edge">
<title>Node29&#45;&gt;Node31</title>
<g id="a_edge49_Node000029_Node000031"><a xlink:title=" ">
<path fill="none" stroke="#63b8ff" d="M1146.46,-54.98C1165.53,-46.42 1195.16,-33.11 1217.05,-23.28"/>
<polygon fill="#63b8ff" stroke="#63b8ff" points="1218.51,-26.46 1226.2,-19.17 1215.64,-20.07 1218.51,-26.46"/>
</a>
</g>
</g>
</g>
</svg>
