<?xml version="1.0" encoding="UTF-8" standalone="no"?>
<!DOCTYPE svg PUBLIC "-//W3C//DTD SVG 1.1//EN"
 "http://www.w3.org/Graphics/SVG/1.1/DTD/svg11.dtd">
<!-- Generated by graphviz version 2.43.0 (0)
 -->
<!-- Title: src/lib/utils/fileExport.cpp Pages: 1 -->
<svg width="1408pt" height="192pt"
 viewBox="0.00 0.00 1408.23 192.00" xmlns="http://www.w3.org/2000/svg" xmlns:xlink="http://www.w3.org/1999/xlink">
<g id="graph0" class="graph" transform="scale(1 1) rotate(0) translate(4 188)">
<title>src/lib/utils/fileExport.cpp</title>
<!-- Node1 -->
<g id="Node000001" class="node">
<title>Node1</title>
<g id="a_Node000001"><a xlink:title=" ">
<polygon fill="#999999" stroke="#666666" points="835,-184 695,-184 695,-165 835,-165 835,-184"/>
<text text-anchor="middle" x="765" y="-172" font-family="Helvetica,sans-Serif" font-size="10.00">src/lib/utils/fileExport.cpp</text>
</a>
</g>
</g>
<!-- Node2 -->
<g id="Node000002" class="node">
<title>Node2</title>
<g id="a_Node000002"><a xlink:href="utils_8hpp.html" target="_top" xlink:title=" ">
<polygon fill="white" stroke="#666666" points="590.5,-74 507.5,-74 507.5,-55 590.5,-55 590.5,-74"/>
<text text-anchor="middle" x="549" y="-62" font-family="Helvetica,sans-Serif" font-size="10.00">utils/utils.hpp</text>
</a>
</g>
</g>
<!-- Node1&#45;&gt;Node2 -->
<g id="edge1_Node000001_Node000002" class="edge">
<title>Node1&#45;&gt;Node2</title>
<g id="a_edge1_Node000001_Node000002"><a xlink:title=" ">
<path fill="none" stroke="#63b8ff" d="M703.49,-164.96C672.23,-158.57 634.69,-147.6 605,-129 586.2,-117.22 570.1,-97.26 560.05,-82.86"/>
<polygon fill="#63b8ff" stroke="#63b8ff" points="562.83,-80.7 554.36,-74.34 557.01,-84.59 562.83,-80.7"/>
</a>
</g>
</g>
<!-- Node3 -->
<g id="Node000003" class="node">
<title>Node3</title>
<g id="a_Node000003"><a xlink:title=" ">
<polygon fill="#e0e0e0" stroke="#999999" points="462,-19 420,-19 420,0 462,0 462,-19"/>
<text text-anchor="middle" x="441" y="-7" font-family="Helvetica,sans-Serif" font-size="10.00">array</text>
</a>
</g>
</g>
<!-- Node1&#45;&gt;Node3 -->
<g id="edge32_Node000001_Node000003" class="edge">
<title>Node1&#45;&gt;Node3</title>
<g id="a_edge32_Node000001_Node000003"><a xlink:title=" ">
<path fill="none" stroke="#63b8ff" d="M694.84,-165.98C635.57,-158.59 556.13,-145.98 529,-129 489.5,-104.28 461.71,-54.88 448.93,-28.34"/>
<polygon fill="#63b8ff" stroke="#63b8ff" points="452.02,-26.69 444.64,-19.09 445.67,-29.64 452.02,-26.69"/>
</a>
</g>
</g>
<!-- Node4 -->
<g id="Node000004" class="node">
<title>Node4</title>
<g id="a_Node000004"><a xlink:title=" ">
<polygon fill="#e0e0e0" stroke="#999999" points="592,-19 542,-19 542,0 592,0 592,-19"/>
<text text-anchor="middle" x="567" y="-7" font-family="Helvetica,sans-Serif" font-size="10.00">cstdint</text>
</a>
</g>
</g>
<!-- Node1&#45;&gt;Node4 -->
<g id="edge27_Node000001_Node000004" class="edge">
<title>Node1&#45;&gt;Node4</title>
<g id="a_edge27_Node000001_Node000004"><a xlink:title=" ">
<path fill="none" stroke="#63b8ff" d="M746.83,-164.85C730.47,-156.66 706.13,-143.51 687,-129 644.63,-96.87 601.99,-50.7 580.78,-26.57"/>
<polygon fill="#63b8ff" stroke="#63b8ff" points="583.41,-24.26 574.21,-19.02 578.13,-28.86 583.41,-24.26"/>
</a>
</g>
</g>
<!-- Node5 -->
<g id="Node000005" class="node">
<title>Node5</title>
<g id="a_Node000005"><a xlink:title=" ">
<polygon fill="#e0e0e0" stroke="#999999" points="524,-19 480,-19 480,0 524,0 524,-19"/>
<text text-anchor="middle" x="502" y="-7" font-family="Helvetica,sans-Serif" font-size="10.00">limits</text>
</a>
</g>
</g>
<!-- Node1&#45;&gt;Node5 -->
<g id="edge35_Node000001_Node000005" class="edge">
<title>Node1&#45;&gt;Node5</title>
<g id="a_edge35_Node000001_Node000005"><a xlink:title=" ">
<path fill="none" stroke="#63b8ff" d="M705.85,-164.98C668.39,-158.23 619.55,-146.9 579,-129 539.19,-111.43 518.37,-112.45 498,-74 490.73,-60.27 492.65,-42.47 495.86,-29.2"/>
<polygon fill="#63b8ff" stroke="#63b8ff" points="499.31,-29.9 498.69,-19.32 492.58,-27.97 499.31,-29.9"/>
</a>
</g>
</g>
<!-- Node7 -->
<g id="Node000007" class="node">
<title>Node7</title>
<g id="a_Node000007"><a xlink:title=" ">
<polygon fill="#e0e0e0" stroke="#999999" points="262,-19 206,-19 206,0 262,0 262,-19"/>
<text text-anchor="middle" x="234" y="-7" font-family="Helvetica,sans-Serif" font-size="10.00">iomanip</text>
</a>
</g>
</g>
<!-- Node1&#45;&gt;Node7 -->
<g id="edge34_Node000001_Node000007" class="edge">
<title>Node1&#45;&gt;Node7</title>
<g id="a_edge34_Node000001_Node000007"><a xlink:title=" ">
<path fill="none" stroke="#63b8ff" d="M695,-169.09C634.54,-163.84 545.43,-152.59 471,-129 387.19,-102.44 296.43,-49.49 255.81,-24.36"/>
<polygon fill="#63b8ff" stroke="#63b8ff" points="257.59,-21.35 247.25,-19.02 253.88,-27.28 257.59,-21.35"/>
</a>
</g>
</g>
<!-- Node8 -->
<g id="Node000008" class="node">
<title>Node8</title>
<g id="a_Node000008"><a xlink:href="log_8hpp.html" target="_top" xlink:title=" ">
<polygon fill="white" stroke="#666666" points="282,-74 186,-74 186,-55 282,-55 282,-74"/>
<text text-anchor="middle" x="234" y="-62" font-family="Helvetica,sans-Serif" font-size="10.00">uvgvpcc/log.hpp</text>
</a>
</g>
</g>
<!-- Node1&#45;&gt;Node8 -->
<g id="edge7_Node000001_Node000008" class="edge">
<title>Node1&#45;&gt;Node8</title>
<g id="a_edge7_Node000001_Node000008"><a xlink:title=" ">
<path fill="none" stroke="#63b8ff" d="M694.66,-170.81C587.61,-165.98 389.22,-153.93 323,-129 294.86,-118.41 267.47,-96.61 250.68,-81.54"/>
<polygon fill="#63b8ff" stroke="#63b8ff" points="252.63,-78.58 242.91,-74.36 247.88,-83.72 252.63,-78.58"/>
</a>
</g>
</g>
<!-- Node12 -->
<g id="Node000012" class="node">
<title>Node12</title>
<g id="a_Node000012"><a xlink:title=" ">
<polygon fill="#e0e0e0" stroke="#999999" points="402,-19 358,-19 358,0 402,0 402,-19"/>
<text text-anchor="middle" x="380" y="-7" font-family="Helvetica,sans-Serif" font-size="10.00">string</text>
</a>
</g>
</g>
<!-- Node1&#45;&gt;Node12 -->
<g id="edge30_Node000001_Node000012" class="edge">
<title>Node1&#45;&gt;Node12</title>
<g id="a_edge30_Node000001_Node000012"><a xlink:title=" ">
<path fill="none" stroke="#63b8ff" d="M694.76,-172.73C639.89,-169.56 563.13,-159.36 503,-129 454.22,-104.38 411.94,-53.8 392.07,-27.4"/>
<polygon fill="#63b8ff" stroke="#63b8ff" points="394.75,-25.13 386,-19.15 389.11,-29.28 394.75,-25.13"/>
</a>
</g>
</g>
<!-- Node14 -->
<g id="Node000014" class="node">
<title>Node14</title>
<g id="a_Node000014"><a xlink:href="uvgvpcc_8hpp.html" target="_top" xlink:title=" ">
<polygon fill="white" stroke="#666666" points="807,-74 685,-74 685,-55 807,-55 807,-74"/>
<text text-anchor="middle" x="746" y="-62" font-family="Helvetica,sans-Serif" font-size="10.00">uvgvpcc/uvgvpcc.hpp</text>
</a>
</g>
</g>
<!-- Node1&#45;&gt;Node14 -->
<g id="edge14_Node000001_Node000014" class="edge">
<title>Node1&#45;&gt;Node14</title>
<g id="a_edge14_Node000001_Node000014"><a xlink:title=" ">
<path fill="none" stroke="#63b8ff" d="M749.27,-164.88C737.12,-157.23 721.2,-144.83 714,-129 706.54,-112.59 718,-94.24 729.22,-81.5"/>
<polygon fill="#63b8ff" stroke="#63b8ff" points="731.99,-83.67 736.37,-74.02 726.93,-78.84 731.99,-83.67"/>
</a>
</g>
</g>
<!-- Node15 -->
<g id="Node000015" class="node">
<title>Node15</title>
<g id="a_Node000015"><a xlink:title=" ">
<polygon fill="#e0e0e0" stroke="#999999" points="737.5,-19 684.5,-19 684.5,0 737.5,0 737.5,-19"/>
<text text-anchor="middle" x="711" y="-7" font-family="Helvetica,sans-Serif" font-size="10.00">cstddef</text>
</a>
</g>
</g>
<!-- Node1&#45;&gt;Node15 -->
<g id="edge36_Node000001_Node000015" class="edge">
<title>Node1&#45;&gt;Node15</title>
<g id="a_edge36_Node000001_Node000015"><a xlink:title=" ">
<path fill="none" stroke="#63b8ff" d="M750.82,-164.97C738.2,-156.87 719.81,-143.76 707,-129 688.61,-107.81 683.12,-101.14 676,-74 673.86,-65.83 673.24,-62.98 676,-55 679.67,-44.38 687.04,-34.38 694.08,-26.55"/>
<polygon fill="#63b8ff" stroke="#63b8ff" points="696.7,-28.88 701.12,-19.25 691.66,-24.02 696.7,-28.88"/>
</a>
</g>
</g>
<!-- Node16 -->
<g id="Node000016" class="node">
<title>Node16</title>
<g id="a_Node000016"><a xlink:title=" ">
<polygon fill="#e0e0e0" stroke="#999999" points="1289,-19 1231,-19 1231,0 1289,0 1289,-19"/>
<text text-anchor="middle" x="1260" y="-7" font-family="Helvetica,sans-Serif" font-size="10.00">memory</text>
</a>
</g>
</g>
<!-- Node1&#45;&gt;Node16 -->
<g id="edge40_Node000001_Node000016" class="edge">
<title>Node1&#45;&gt;Node16</title>
<g id="a_edge40_Node000001_Node000016"><a xlink:title=" ">
<path fill="none" stroke="#63b8ff" d="M835.15,-173.76C990.51,-173.6 1352.84,-168.9 1390,-129 1428.73,-87.41 1342.46,-43.67 1292.45,-22.88"/>
<polygon fill="#63b8ff" stroke="#63b8ff" points="1293.56,-19.55 1282.98,-19.04 1290.93,-26.04 1293.56,-19.55"/>
</a>
</g>
</g>
<!-- Node19 -->
<g id="Node000019" class="node">
<title>Node19</title>
<g id="a_Node000019"><a xlink:title=" ">
<polygon fill="#e0e0e0" stroke="#999999" points="1212.5,-19 1165.5,-19 1165.5,0 1212.5,0 1212.5,-19"/>
<text text-anchor="middle" x="1189" y="-7" font-family="Helvetica,sans-Serif" font-size="10.00">vector</text>
</a>
</g>
</g>
<!-- Node1&#45;&gt;Node19 -->
<g id="edge31_Node000001_Node000019" class="edge">
<title>Node1&#45;&gt;Node19</title>
<g id="a_edge31_Node000001_Node000019"><a xlink:title=" ">
<path fill="none" stroke="#63b8ff" d="M774.71,-164.89C790.37,-151.42 822.62,-125.32 854,-110 881.65,-96.5 1075.89,-41.9 1155.3,-19.83"/>
<polygon fill="#63b8ff" stroke="#63b8ff" points="1156.57,-23.11 1165.27,-17.06 1154.7,-16.36 1156.57,-23.11"/>
</a>
</g>
</g>
<!-- Node22 -->
<g id="Node000022" class="node">
<title>Node22</title>
<g id="a_Node000022"><a xlink:title=" ">
<polygon fill="#e0e0e0" stroke="#999999" points="915,-129 863,-129 863,-110 915,-110 915,-129"/>
<text text-anchor="middle" x="889" y="-117" font-family="Helvetica,sans-Serif" font-size="10.00">cassert</text>
</a>
</g>
</g>
<!-- Node1&#45;&gt;Node22 -->
<g id="edge26_Node000001_Node000022" class="edge">
<title>Node1&#45;&gt;Node22</title>
<g id="a_edge26_Node000001_Node000022"><a xlink:title=" ">
<path fill="none" stroke="#63b8ff" d="M784.92,-164.98C805.05,-156.38 836.38,-142.99 859.41,-133.15"/>
<polygon fill="#63b8ff" stroke="#63b8ff" points="860.9,-136.32 868.71,-129.17 858.14,-129.88 860.9,-136.32"/>
</a>
</g>
</g>
<!-- Node23 -->
<g id="Node000023" class="node">
<title>Node23</title>
<g id="a_Node000023"><a xlink:title=" ">
<polygon fill="#e0e0e0" stroke="#999999" points="1001,-129 933,-129 933,-110 1001,-110 1001,-129"/>
<text text-anchor="middle" x="967" y="-117" font-family="Helvetica,sans-Serif" font-size="10.00">filesystem</text>
</a>
</g>
</g>
<!-- Node1&#45;&gt;Node23 -->
<g id="edge28_Node000001_Node000023" class="edge">
<title>Node1&#45;&gt;Node23</title>
<g id="a_edge28_Node000001_Node000023"><a xlink:title=" ">
<path fill="none" stroke="#63b8ff" d="M797.45,-164.98C831.96,-155.93 886.66,-141.58 924.56,-131.64"/>
<polygon fill="#63b8ff" stroke="#63b8ff" points="925.51,-135.01 934.29,-129.08 923.73,-128.23 925.51,-135.01"/>
</a>
</g>
</g>
<!-- Node24 -->
<g id="Node000024" class="node">
<title>Node24</title>
<g id="a_Node000024"><a xlink:title=" ">
<polygon fill="#e0e0e0" stroke="#999999" points="1074.5,-129 1019.5,-129 1019.5,-110 1074.5,-110 1074.5,-129"/>
<text text-anchor="middle" x="1047" y="-117" font-family="Helvetica,sans-Serif" font-size="10.00">fstream</text>
</a>
</g>
</g>
<!-- Node1&#45;&gt;Node24 -->
<g id="edge29_Node000001_Node000024" class="edge">
<title>Node1&#45;&gt;Node24</title>
<g id="a_edge29_Node000001_Node000024"><a xlink:title=" ">
<path fill="none" stroke="#63b8ff" d="M815.81,-164.98C863.32,-156.85 936.47,-143.92 1009.34,-129.06"/>
<polygon fill="#63b8ff" stroke="#63b8ff" points="1010.06,-132.48 1019.15,-127.04 1008.65,-125.63 1010.06,-132.48"/>
</a>
</g>
</g>
<!-- Node25 -->
<g id="Node000025" class="node">
<title>Node25</title>
<g id="a_Node000025"><a xlink:title=" ">
<polygon fill="#e0e0e0" stroke="#999999" points="1157.5,-129 1092.5,-129 1092.5,-110 1157.5,-110 1157.5,-129"/>
<text text-anchor="middle" x="1125" y="-117" font-family="Helvetica,sans-Serif" font-size="10.00">stdexcept</text>
</a>
</g>
</g>
<!-- Node1&#45;&gt;Node25 -->
<g id="edge33_Node000001_Node000025" class="edge">
<title>Node1&#45;&gt;Node25</title>
<g id="a_edge33_Node000001_Node000025"><a xlink:title=" ">
<path fill="none" stroke="#63b8ff" d="M835.22,-165.05C897.71,-157.23 991.84,-144.69 1082.47,-129.18"/>
<polygon fill="#63b8ff" stroke="#63b8ff" points="1083.1,-132.62 1092.36,-127.47 1081.91,-125.72 1083.1,-132.62"/>
</a>
</g>
</g>
<!-- Node26 -->
<g id="Node000026" class="node">
<title>Node26</title>
<g id="a_Node000026"><a xlink:title=" ">
<polygon fill="#e0e0e0" stroke="#999999" points="1232.5,-129 1175.5,-129 1175.5,-110 1232.5,-110 1232.5,-129"/>
<text text-anchor="middle" x="1204" y="-117" font-family="Helvetica,sans-Serif" font-size="10.00">ostream</text>
</a>
</g>
</g>
<!-- Node1&#45;&gt;Node26 -->
<g id="edge37_Node000001_Node000026" class="edge">
<title>Node1&#45;&gt;Node26</title>
<g id="a_edge37_Node000001_Node000026"><a xlink:title=" ">
<path fill="none" stroke="#63b8ff" d="M835.06,-168.22C913.34,-161.75 1044,-149.32 1165.19,-129.14"/>
<polygon fill="#63b8ff" stroke="#63b8ff" points="1166.1,-132.53 1175.38,-127.42 1164.94,-125.63 1166.1,-132.53"/>
</a>
</g>
</g>
<!-- Node27 -->
<g id="Node000027" class="node">
<title>Node27</title>
<g id="a_Node000027"><a xlink:title=" ">
<polygon fill="#e0e0e0" stroke="#999999" points="1281.5,-129 1250.5,-129 1250.5,-110 1281.5,-110 1281.5,-129"/>
<text text-anchor="middle" x="1266" y="-117" font-family="Helvetica,sans-Serif" font-size="10.00">ios</text>
</a>
</g>
</g>
<!-- Node1&#45;&gt;Node27 -->
<g id="edge38_Node000001_Node000027" class="edge">
<title>Node1&#45;&gt;Node27</title>
<g id="a_edge38_Node000001_Node000027"><a xlink:title=" ">
<path fill="none" stroke="#63b8ff" d="M835.35,-172.35C927.04,-169.66 1092.22,-160.71 1240.24,-128.88"/>
<polygon fill="#63b8ff" stroke="#63b8ff" points="1241.39,-132.21 1250.41,-126.65 1239.89,-125.37 1241.39,-132.21"/>
</a>
</g>
</g>
<!-- Node28 -->
<g id="Node000028" class="node">
<title>Node28</title>
<g id="a_Node000028"><a xlink:title=" ">
<polygon fill="#e0e0e0" stroke="#999999" points="1380.5,-129 1299.5,-129 1299.5,-110 1380.5,-110 1380.5,-129"/>
<text text-anchor="middle" x="1340" y="-117" font-family="Helvetica,sans-Serif" font-size="10.00">system_error</text>
</a>
</g>
</g>
<!-- Node1&#45;&gt;Node28 -->
<g id="edge39_Node000001_Node000028" class="edge">
<title>Node1&#45;&gt;Node28</title>
<g id="a_edge39_Node000001_Node000028"><a xlink:title=" ">
<path fill="none" stroke="#63b8ff" d="M835.4,-169.51C934.52,-163.44 1121.06,-150.44 1289.36,-129.11"/>
<polygon fill="#63b8ff" stroke="#63b8ff" points="1289.93,-132.57 1299.4,-127.82 1289.04,-125.62 1289.93,-132.57"/>
</a>
</g>
</g>
<!-- Node29 -->
<g id="Node000029" class="node">
<title>Node29</title>
<g id="a_Node000029"><a xlink:href="fileExport_8hpp.html" target="_top" xlink:title=" ">
<polygon fill="white" stroke="#666666" points="807,-129 723,-129 723,-110 807,-110 807,-129"/>
<text text-anchor="middle" x="765" y="-117" font-family="Helvetica,sans-Serif" font-size="10.00">fileExport.hpp</text>
</a>
</g>
</g>
<!-- Node1&#45;&gt;Node29 -->
<g id="edge41_Node000001_Node000029" class="edge">
<title>Node1&#45;&gt;Node29</title>
<g id="a_edge41_Node000001_Node000029"><a xlink:title=" ">
<path fill="none" stroke="#63b8ff" d="M765,-164.75C765,-157.8 765,-147.85 765,-139.13"/>
<polygon fill="#63b8ff" stroke="#63b8ff" points="768.5,-139.09 765,-129.09 761.5,-139.09 768.5,-139.09"/>
</a>
</g>
</g>
<!-- Node2&#45;&gt;Node3 -->
<g id="edge2_Node000002_Node000003" class="edge">
<title>Node2&#45;&gt;Node3</title>
<g id="a_edge2_Node000002_Node000003"><a xlink:title=" ">
<path fill="none" stroke="#63b8ff" d="M531.65,-54.98C514.43,-46.54 487.8,-33.47 467.85,-23.68"/>
<polygon fill="#63b8ff" stroke="#63b8ff" points="469.19,-20.43 458.67,-19.17 466.1,-26.72 469.19,-20.43"/>
</a>
</g>
</g>
<!-- Node2&#45;&gt;Node4 -->
<g id="edge3_Node000002_Node000004" class="edge">
<title>Node2&#45;&gt;Node4</title>
<g id="a_edge3_Node000002_Node000004"><a xlink:title=" ">
<path fill="none" stroke="#63b8ff" d="M551.97,-54.75C554.36,-47.72 557.79,-37.62 560.77,-28.84"/>
<polygon fill="#63b8ff" stroke="#63b8ff" points="564.18,-29.68 564.08,-19.09 557.55,-27.43 564.18,-29.68"/>
</a>
</g>
</g>
<!-- Node2&#45;&gt;Node5 -->
<g id="edge4_Node000002_Node000005" class="edge">
<title>Node2&#45;&gt;Node5</title>
<g id="a_edge4_Node000002_Node000005"><a xlink:title=" ">
<path fill="none" stroke="#63b8ff" d="M541.24,-54.75C534.53,-47.18 524.66,-36.05 516.49,-26.84"/>
<polygon fill="#63b8ff" stroke="#63b8ff" points="518.87,-24.25 509.62,-19.09 513.63,-28.89 518.87,-24.25"/>
</a>
</g>
</g>
<!-- Node6 -->
<g id="Node000006" class="node">
<title>Node6</title>
<g id="a_Node000006"><a xlink:title=" ">
<polygon fill="#e0e0e0" stroke="#999999" points="666,-19 610,-19 610,0 666,0 666,-19"/>
<text text-anchor="middle" x="638" y="-7" font-family="Helvetica,sans-Serif" font-size="10.00">sstream</text>
</a>
</g>
</g>
<!-- Node2&#45;&gt;Node6 -->
<g id="edge5_Node000002_Node000006" class="edge">
<title>Node2&#45;&gt;Node6</title>
<g id="a_edge5_Node000002_Node000006"><a xlink:title=" ">
<path fill="none" stroke="#63b8ff" d="M563.3,-54.98C577.1,-46.77 598.24,-34.18 614.51,-24.49"/>
<polygon fill="#63b8ff" stroke="#63b8ff" points="616.64,-27.29 623.44,-19.17 613.06,-21.28 616.64,-27.29"/>
</a>
</g>
</g>
<!-- Node2&#45;&gt;Node7 -->
<g id="edge6_Node000002_Node000007" class="edge">
<title>Node2&#45;&gt;Node7</title>
<g id="a_edge6_Node000002_Node000007"><a xlink:title=" ">
<path fill="none" stroke="#63b8ff" d="M507.4,-57.73C454.88,-50.25 361.54,-36.31 272.26,-19.14"/>
<polygon fill="#63b8ff" stroke="#63b8ff" points="272.72,-15.66 262.24,-17.19 271.39,-22.53 272.72,-15.66"/>
</a>
</g>
</g>
<!-- Node8&#45;&gt;Node7 -->
<g id="edge10_Node000008_Node000007" class="edge">
<title>Node8&#45;&gt;Node7</title>
<g id="a_edge10_Node000008_Node000007"><a xlink:title=" ">
<path fill="none" stroke="#63b8ff" d="M234,-54.75C234,-47.8 234,-37.85 234,-29.13"/>
<polygon fill="#63b8ff" stroke="#63b8ff" points="237.5,-29.09 234,-19.09 230.5,-29.09 237.5,-29.09"/>
</a>
</g>
</g>
<!-- Node9 -->
<g id="Node000009" class="node">
<title>Node9</title>
<g id="a_Node000009"><a xlink:title=" ">
<polygon fill="#e0e0e0" stroke="#999999" points="50,-19 0,-19 0,0 50,0 50,-19"/>
<text text-anchor="middle" x="25" y="-7" font-family="Helvetica,sans-Serif" font-size="10.00">chrono</text>
</a>
</g>
</g>
<!-- Node8&#45;&gt;Node9 -->
<g id="edge8_Node000008_Node000009" class="edge">
<title>Node8&#45;&gt;Node9</title>
<g id="a_edge8_Node000008_Node000009"><a xlink:title=" ">
<path fill="none" stroke="#63b8ff" d="M200.42,-54.98C161.97,-45.23 99.27,-29.33 60.16,-19.42"/>
<polygon fill="#63b8ff" stroke="#63b8ff" points="60.83,-15.98 50.28,-16.91 59.11,-22.76 60.83,-15.98"/>
</a>
</g>
</g>
<!-- Node10 -->
<g id="Node000010" class="node">
<title>Node10</title>
<g id="a_Node000010"><a xlink:title=" ">
<polygon fill="#e0e0e0" stroke="#999999" points="121.5,-19 68.5,-19 68.5,0 121.5,0 121.5,-19"/>
<text text-anchor="middle" x="95" y="-7" font-family="Helvetica,sans-Serif" font-size="10.00">cstdarg</text>
</a>
</g>
</g>
<!-- Node8&#45;&gt;Node10 -->
<g id="edge9_Node000008_Node000010" class="edge">
<title>Node8&#45;&gt;Node10</title>
<g id="a_edge9_Node000008_Node000010"><a xlink:title=" ">
<path fill="none" stroke="#63b8ff" d="M211.67,-54.98C188.8,-46.27 153.04,-32.63 127.14,-22.75"/>
<polygon fill="#63b8ff" stroke="#63b8ff" points="128.33,-19.46 117.74,-19.17 125.84,-26 128.33,-19.46"/>
</a>
</g>
</g>
<!-- Node11 -->
<g id="Node000011" class="node">
<title>Node11</title>
<g id="a_Node000011"><a xlink:title=" ">
<polygon fill="#e0e0e0" stroke="#999999" points="340,-19 280,-19 280,0 340,0 340,-19"/>
<text text-anchor="middle" x="310" y="-7" font-family="Helvetica,sans-Serif" font-size="10.00">iostream</text>
</a>
</g>
</g>
<!-- Node8&#45;&gt;Node11 -->
<g id="edge11_Node000008_Node000011" class="edge">
<title>Node8&#45;&gt;Node11</title>
<g id="a_edge11_Node000008_Node000011"><a xlink:title=" ">
<path fill="none" stroke="#63b8ff" d="M246.21,-54.98C257.78,-46.92 275.38,-34.65 289.16,-25.03"/>
<polygon fill="#63b8ff" stroke="#63b8ff" points="291.37,-27.76 297.57,-19.17 287.36,-22.02 291.37,-27.76"/>
</a>
</g>
</g>
<!-- Node8&#45;&gt;Node12 -->
<g id="edge12_Node000008_Node000012" class="edge">
<title>Node8&#45;&gt;Node12</title>
<g id="a_edge12_Node000008_Node000012"><a xlink:title=" ">
<path fill="none" stroke="#63b8ff" d="M257.46,-54.98C282.01,-46.07 320.72,-32.02 348.05,-22.1"/>
<polygon fill="#63b8ff" stroke="#63b8ff" points="349.35,-25.35 357.56,-18.65 346.97,-18.77 349.35,-25.35"/>
</a>
</g>
</g>
<!-- Node13 -->
<g id="Node000013" class="node">
<title>Node13</title>
<g id="a_Node000013"><a xlink:title=" ">
<polygon fill="#e0e0e0" stroke="#999999" points="188,-19 140,-19 140,0 188,0 188,-19"/>
<text text-anchor="middle" x="164" y="-7" font-family="Helvetica,sans-Serif" font-size="10.00">mutex</text>
</a>
</g>
</g>
<!-- Node8&#45;&gt;Node13 -->
<g id="edge13_Node000008_Node000013" class="edge">
<title>Node8&#45;&gt;Node13</title>
<g id="a_edge13_Node000008_Node000013"><a xlink:title=" ">
<path fill="none" stroke="#63b8ff" d="M222.75,-54.98C212.2,-47 196.2,-34.88 183.56,-25.31"/>
<polygon fill="#63b8ff" stroke="#63b8ff" points="185.54,-22.42 175.45,-19.17 181.31,-28 185.54,-22.42"/>
</a>
</g>
</g>
<!-- Node14&#45;&gt;Node4 -->
<g id="edge16_Node000014_Node000004" class="edge">
<title>Node14&#45;&gt;Node4</title>
<g id="a_edge16_Node000014_Node000004"><a xlink:title=" ">
<path fill="none" stroke="#63b8ff" d="M717.24,-54.98C685.89,-45.7 635.73,-30.85 602.09,-20.89"/>
<polygon fill="#63b8ff" stroke="#63b8ff" points="602.8,-17.45 592.22,-17.97 600.81,-24.16 602.8,-17.45"/>
</a>
</g>
</g>
<!-- Node14&#45;&gt;Node6 -->
<g id="edge21_Node000014_Node000006" class="edge">
<title>Node14&#45;&gt;Node6</title>
<g id="a_edge21_Node000014_Node000006"><a xlink:title=" ">
<path fill="none" stroke="#63b8ff" d="M728.65,-54.98C711.43,-46.54 684.8,-33.47 664.85,-23.68"/>
<polygon fill="#63b8ff" stroke="#63b8ff" points="666.19,-20.43 655.67,-19.17 663.1,-26.72 666.19,-20.43"/>
</a>
</g>
</g>
<!-- Node14&#45;&gt;Node11 -->
<g id="edge17_Node000014_Node000011" class="edge">
<title>Node14&#45;&gt;Node11</title>
<g id="a_edge17_Node000014_Node000011"><a xlink:title=" ">
<path fill="none" stroke="#63b8ff" d="M684.86,-58.62C608.73,-52.09 474.53,-39.16 350.25,-19.05"/>
<polygon fill="#63b8ff" stroke="#63b8ff" points="350.61,-15.56 340.17,-17.4 349.48,-22.47 350.61,-15.56"/>
</a>
</g>
</g>
<!-- Node14&#45;&gt;Node12 -->
<g id="edge22_Node000014_Node000012" class="edge">
<title>Node14&#45;&gt;Node12</title>
<g id="a_edge22_Node000014_Node000012"><a xlink:title=" ">
<path fill="none" stroke="#63b8ff" d="M684.76,-57.88C619.46,-51.33 512.88,-39.01 412.29,-19.02"/>
<polygon fill="#63b8ff" stroke="#63b8ff" points="412.76,-15.54 402.26,-16.99 411.37,-22.4 412.76,-15.54"/>
</a>
</g>
</g>
<!-- Node14&#45;&gt;Node15 -->
<g id="edge15_Node000014_Node000015" class="edge">
<title>Node14&#45;&gt;Node15</title>
<g id="a_edge15_Node000014_Node000015"><a xlink:title=" ">
<path fill="none" stroke="#63b8ff" d="M740.22,-54.75C735.38,-47.42 728.32,-36.73 722.36,-27.7"/>
<polygon fill="#63b8ff" stroke="#63b8ff" points="725.1,-25.5 716.67,-19.09 719.26,-29.36 725.1,-25.5"/>
</a>
</g>
</g>
<!-- Node14&#45;&gt;Node16 -->
<g id="edge18_Node000014_Node000016" class="edge">
<title>Node14&#45;&gt;Node16</title>
<g id="a_edge18_Node000014_Node000016"><a xlink:title=" ">
<path fill="none" stroke="#63b8ff" d="M807.34,-58.74C913.3,-50.36 1127.49,-32.7 1220.66,-18.99"/>
<polygon fill="#63b8ff" stroke="#63b8ff" points="1221.26,-22.43 1230.61,-17.46 1220.2,-15.52 1221.26,-22.43"/>
</a>
</g>
</g>
<!-- Node17 -->
<g id="Node000017" class="node">
<title>Node17</title>
<g id="a_Node000017"><a xlink:title=" ">
<polygon fill="#e0e0e0" stroke="#999999" points="1058.5,-19 1011.5,-19 1011.5,0 1058.5,0 1058.5,-19"/>
<text text-anchor="middle" x="1035" y="-7" font-family="Helvetica,sans-Serif" font-size="10.00">queue</text>
</a>
</g>
</g>
<!-- Node14&#45;&gt;Node17 -->
<g id="edge19_Node000014_Node000017" class="edge">
<title>Node14&#45;&gt;Node17</title>
<g id="a_edge19_Node000014_Node000017"><a xlink:title=" ">
<path fill="none" stroke="#63b8ff" d="M803.7,-55C853.72,-47.29 928.25,-35 1001.44,-19.2"/>
<polygon fill="#63b8ff" stroke="#63b8ff" points="1002.27,-22.6 1011.29,-17.05 1000.77,-15.76 1002.27,-22.6"/>
</a>
</g>
</g>
<!-- Node18 -->
<g id="Node000018" class="node">
<title>Node18</title>
<g id="a_Node000018"><a xlink:title=" ">
<polygon fill="#e0e0e0" stroke="#999999" points="1147.5,-19 1076.5,-19 1076.5,0 1147.5,0 1147.5,-19"/>
<text text-anchor="middle" x="1112" y="-7" font-family="Helvetica,sans-Serif" font-size="10.00">semaphore</text>
</a>
</g>
</g>
<!-- Node14&#45;&gt;Node18 -->
<g id="edge20_Node000014_Node000018" class="edge">
<title>Node14&#45;&gt;Node18</title>
<g id="a_edge20_Node000014_Node000018"><a xlink:title=" ">
<path fill="none" stroke="#63b8ff" d="M807.28,-56.02C870.01,-48.14 970.57,-34.9 1066.61,-19.16"/>
<polygon fill="#63b8ff" stroke="#63b8ff" points="1067.19,-22.61 1076.49,-17.53 1066.05,-15.7 1067.19,-22.61"/>
</a>
</g>
</g>
<!-- Node14&#45;&gt;Node19 -->
<g id="edge23_Node000014_Node000019" class="edge">
<title>Node14&#45;&gt;Node19</title>
<g id="a_edge23_Node000014_Node000019"><a xlink:title=" ">
<path fill="none" stroke="#63b8ff" d="M807.39,-56.51C812,-56 816.57,-55.49 821,-55 967.08,-38.9 1007.6,-46.03 1155.43,-19.05"/>
<polygon fill="#63b8ff" stroke="#63b8ff" points="1156.13,-22.48 1165.33,-17.22 1154.86,-15.59 1156.13,-22.48"/>
</a>
</g>
</g>
<!-- Node20 -->
<g id="Node000020" class="node">
<title>Node20</title>
<g id="a_Node000020"><a xlink:title=" ">
<polygon fill="#e0e0e0" stroke="#999999" points="848,-19 756,-19 756,0 848,0 848,-19"/>
<text text-anchor="middle" x="802" y="-7" font-family="Helvetica,sans-Serif" font-size="10.00">../utils/utils.hpp</text>
</a>
</g>
</g>
<!-- Node14&#45;&gt;Node20 -->
<g id="edge24_Node000014_Node000020" class="edge">
<title>Node14&#45;&gt;Node20</title>
<g id="a_edge24_Node000014_Node000020"><a xlink:title=" ">
<path fill="none" stroke="#63b8ff" d="M755,-54.98C763.19,-47.23 775.51,-35.58 785.47,-26.14"/>
<polygon fill="#63b8ff" stroke="#63b8ff" points="787.98,-28.59 792.84,-19.17 783.17,-23.5 787.98,-28.59"/>
</a>
</g>
</g>
<!-- Node21 -->
<g id="Node000021" class="node">
<title>Node21</title>
<g id="a_Node000021"><a xlink:title=" ">
<polygon fill="#e0e0e0" stroke="#999999" points="993.5,-19 866.5,-19 866.5,0 993.5,0 993.5,-19"/>
<text text-anchor="middle" x="930" y="-7" font-family="Helvetica,sans-Serif" font-size="10.00">../utils/parameters.hpp</text>
</a>
</g>
</g>
<!-- Node14&#45;&gt;Node21 -->
<g id="edge25_Node000014_Node000021" class="edge">
<title>Node14&#45;&gt;Node21</title>
<g id="a_edge25_Node000014_Node000021"><a xlink:title=" ">
<path fill="none" stroke="#63b8ff" d="M775.56,-54.98C806.72,-46.01 855.97,-31.82 890.46,-21.89"/>
<polygon fill="#63b8ff" stroke="#63b8ff" points="891.57,-25.21 900.21,-19.08 889.63,-18.49 891.57,-25.21"/>
</a>
</g>
</g>
<!-- Node29&#45;&gt;Node2 -->
<g id="edge45_Node000029_Node000002" class="edge">
<title>Node29&#45;&gt;Node2</title>
<g id="a_edge45_Node000029_Node000002"><a xlink:title=" ">
<path fill="none" stroke="#63b8ff" d="M730.3,-109.98C693.25,-100.89 634.41,-86.46 593.87,-76.51"/>
<polygon fill="#63b8ff" stroke="#63b8ff" points="594.52,-73.07 583.98,-74.08 592.85,-79.86 594.52,-73.07"/>
</a>
</g>
</g>
<!-- Node29&#45;&gt;Node14 -->
<g id="edge44_Node000029_Node000014" class="edge">
<title>Node29&#45;&gt;Node14</title>
<g id="a_edge44_Node000029_Node000014"><a xlink:title=" ">
<path fill="none" stroke="#63b8ff" d="M761.86,-109.75C759.32,-102.65 755.64,-92.4 752.47,-83.56"/>
<polygon fill="#63b8ff" stroke="#63b8ff" points="755.75,-82.32 749.08,-74.09 749.16,-84.68 755.75,-82.32"/>
</a>
</g>
</g>
<!-- Node29&#45;&gt;Node16 -->
<g id="edge42_Node000029_Node000016" class="edge">
<title>Node29&#45;&gt;Node16</title>
<g id="a_edge42_Node000029_Node000016"><a xlink:title=" ">
<path fill="none" stroke="#63b8ff" d="M804.44,-109.99C882.01,-93.24 1060.08,-54.7 1220.88,-19.24"/>
<polygon fill="#63b8ff" stroke="#63b8ff" points="1221.95,-22.59 1230.96,-17.01 1220.44,-15.75 1221.95,-22.59"/>
</a>
</g>
</g>
<!-- Node29&#45;&gt;Node19 -->
<g id="edge43_Node000029_Node000019" class="edge">
<title>Node29&#45;&gt;Node19</title>
<g id="a_edge43_Node000029_Node000019"><a xlink:title=" ">
<path fill="none" stroke="#63b8ff" d="M774.29,-109.95C790.24,-95.82 824.5,-67.88 859,-55 980.94,-9.5 1023.89,-42.49 1155.29,-19.05"/>
<polygon fill="#63b8ff" stroke="#63b8ff" points="1156.13,-22.45 1165.32,-17.18 1154.85,-15.57 1156.13,-22.45"/>
</a>
</g>
</g>
</g>
</svg>
