<?xml version="1.0" encoding="UTF-8" standalone="no"?>
<!DOCTYPE svg PUBLIC "-//W3C//DTD SVG 1.1//EN"
 "http://www.w3.org/Graphics/SVG/1.1/DTD/svg11.dtd">
<!-- Generated by graphviz version 2.43.0 (0)
 -->
<!-- Title: src/lib/bitstreamGeneration/gof.cpp Pages: 1 -->
<!--zoomable 313 -->

<svg id="main" version="1.1" xmlns="http://www.w3.org/2000/svg" xmlns:xlink="http://www.w3.org/1999/xlink" xml:space="preserve" onload="init(evt)">
<style type="text/css"><![CDATA[
.node, .edge {opacity: 0.7;}
.node.selected, .edge.selected {opacity: 1;}
.edge:hover path { stroke: red; }
.edge:hover polygon { stroke: red; fill: red; }
]]></style>

<defs>
  <circle id="rim" cx="0" cy="0" r="7"/>
  <circle id="rim2" cx="0" cy="0" r="3.5"/>
  <g id="zoomPlus">
    <use xlink:href="#rim" fill="#404040"><set attributeName="fill" to="#808080" begin="zoomplus.mouseover" end="zoomplus.mouseout"/></use>
    <path d="M-4,0h8M0,-4v8" fill="none" stroke="white" stroke-width="1.5" pointer-events="none"/>
  </g>
  <g id="zoomMin">
    <use xlink:href="#rim" fill="#404040"><set attributeName="fill" to="#808080" begin="zoomminus.mouseover" end="zoomminus.mouseout"/></use>
    <path d="M-4,0h8" fill="none" stroke="white" stroke-width="1.5" pointer-events="none"/>
  </g>
  <g id="arrowUp" transform="translate(30 24)">
    <use xlink:href="#rim"/>
    <path pointer-events="none" fill="none" stroke="white" stroke-width="1.5" d="M0,-3.0v7 M-2.5,-0.5L0,-3.0L2.5,-0.5"/>
  </g>
  <g id="arrowRight" transform="rotate(90) translate(36 -43)">
    <use xlink:href="#rim"/>
    <path pointer-events="none" fill="none" stroke="white" stroke-width="1.5" d="M0,-3.0v7 M-2.5,-0.5L0,-3.0L2.5,-0.5"/>
  </g>
  <g id="arrowDown" transform="rotate(180) translate(-30 -48)">
    <use xlink:href="#rim"/>
    <path pointer-events="none" fill="none" stroke="white" stroke-width="1.5" d="M0,-3.0v7 M-2.5,-0.5L0,-3.0L2.5,-0.5"/>
  </g>
  <g id="arrowLeft" transform="rotate(270) translate(-36 17)">
    <use xlink:href="#rim"/>
    <path pointer-events="none" fill="none" stroke="white" stroke-width="1.5" d="M0,-3.0v7 M-2.5,-0.5L0,-3.0L2.5,-0.5"/>
  </g>
  <g id="resetDef">
    <use xlink:href="#rim2" fill="#404040"><set attributeName="fill" to="#808080" begin="reset.mouseover" end="reset.mouseout"/></use>
  </g>
</defs>
<script type="application/ecmascript">
var viewWidth = 1262;
var viewHeight = 313;
var sectionId = 'dynsection-0';
</script>
<script type="application/ecmascript" xlink:href="svg.min.js"/>
<svg id="graph" class="graph">
<g id="viewport">
<title>src/lib/bitstreamGeneration/gof.cpp</title>
<!-- Node1 -->
<g id="Node000001" class="node">
<title>Node1</title>
<g id="a_Node000001"><a xlink:title=" ">
<polygon fill="#999999" stroke="#666666" points="916,-305 766,-305 766,-275 916,-275 916,-305"/>
<text text-anchor="start" x="774" y="-293" font-family="Helvetica,sans-Serif" font-size="10.00">src/lib/bitstreamGeneration</text>
<text text-anchor="middle" x="841" y="-282" font-family="Helvetica,sans-Serif" font-size="10.00">/gof.cpp</text>
</a>
</g>
</g>
<!-- Node2 -->
<g id="Node000002" class="node">
<title>Node2</title>
<g id="a_Node000002"><a xlink:href="gof_8hpp.html" target="_top" xlink:title=" ">
<polygon fill="white" stroke="#666666" points="449.5,-239 396.5,-239 396.5,-220 449.5,-220 449.5,-239"/>
<text text-anchor="middle" x="423" y="-227" font-family="Helvetica,sans-Serif" font-size="10.00">gof.hpp</text>
</a>
</g>
</g>
<!-- Node1&#45;&gt;Node2 -->
<g id="edge1_Node000001_Node000002" class="edge">
<title>Node1&#45;&gt;Node2</title>
<g id="a_edge1_Node000001_Node000002"><a xlink:title=" ">
<path fill="none" stroke="#63b8ff" d="M765.79,-278.47C675.65,-265.86 528.24,-245.23 459.91,-235.67"/>
<polygon fill="#63b8ff" stroke="#63b8ff" points="460.04,-232.15 449.65,-234.23 459.06,-239.08 460.04,-232.15"/>
</a>
</g>
</g>
<!-- Node3 -->
<g id="Node000003" class="node">
<title>Node3</title>
<g id="a_Node000003"><a xlink:title=" ">
<polygon fill="#e0e0e0" stroke="#999999" points="60,-19 2,-19 2,0 60,0 60,-19"/>
<text text-anchor="middle" x="31" y="-7" font-family="Helvetica,sans-Serif" font-size="10.00">memory</text>
</a>
</g>
</g>
<!-- Node1&#45;&gt;Node3 -->
<g id="edge47_Node000001_Node000003" class="edge">
<title>Node1&#45;&gt;Node3</title>
<g id="a_edge47_Node000001_Node000003"><a xlink:title=" ">
<path fill="none" stroke="#63b8ff" d="M766,-286.7C559.87,-279.38 0,-252.43 0,-175.5 0,-175.5 0,-175.5 0,-118.5 0,-85.79 13.3,-49.6 22.48,-28.52"/>
<polygon fill="#63b8ff" stroke="#63b8ff" points="25.75,-29.77 26.69,-19.22 19.37,-26.88 25.75,-29.77"/>
</a>
</g>
</g>
<!-- Node4 -->
<g id="Node000004" class="node">
<title>Node4</title>
<g id="a_Node000004"><a xlink:title=" ">
<polygon fill="#e0e0e0" stroke="#999999" points="125.5,-19 78.5,-19 78.5,0 125.5,0 125.5,-19"/>
<text text-anchor="middle" x="102" y="-7" font-family="Helvetica,sans-Serif" font-size="10.00">vector</text>
</a>
</g>
</g>
<!-- Node1&#45;&gt;Node4 -->
<g id="edge51_Node000001_Node000004" class="edge">
<title>Node1&#45;&gt;Node4</title>
<g id="a_edge51_Node000001_Node000004"><a xlink:title=" ">
<path fill="none" stroke="#63b8ff" d="M765.55,-286.71C643.17,-282.16 407.28,-269.61 330,-239 218.34,-194.77 180.35,-175.4 116,-74 107.49,-60.58 104.1,-42.72 102.78,-29.36"/>
<polygon fill="#63b8ff" stroke="#63b8ff" points="106.25,-28.74 102.07,-19 99.26,-29.22 106.25,-28.74"/>
</a>
</g>
</g>
<!-- Node8 -->
<g id="Node000008" class="node">
<title>Node8</title>
<g id="a_Node000008"><a xlink:href="bitstream__common_8hpp.html" target="_top" xlink:title=" ">
<polygon fill="white" stroke="#666666" points="415.5,-74 282.5,-74 282.5,-55 415.5,-55 415.5,-74"/>
<text text-anchor="middle" x="349" y="-62" font-family="Helvetica,sans-Serif" font-size="10.00">bitstream_common.hpp</text>
</a>
</g>
</g>
<!-- Node1&#45;&gt;Node8 -->
<g id="edge52_Node000001_Node000008" class="edge">
<title>Node1&#45;&gt;Node8</title>
<g id="a_edge52_Node000001_Node000008"><a xlink:title=" ">
<path fill="none" stroke="#63b8ff" d="M765.88,-289.38C653.1,-288.53 446.94,-281.04 388,-239 338.8,-203.91 342.04,-121.04 346.29,-83.98"/>
<polygon fill="#63b8ff" stroke="#63b8ff" points="349.76,-84.42 347.58,-74.05 342.82,-83.51 349.76,-84.42"/>
</a>
</g>
</g>
<!-- Node9 -->
<g id="Node000009" class="node">
<title>Node9</title>
<g id="a_Node000009"><a xlink:title=" ">
<polygon fill="#e0e0e0" stroke="#999999" points="749,-19 699,-19 699,0 749,0 749,-19"/>
<text text-anchor="middle" x="724" y="-7" font-family="Helvetica,sans-Serif" font-size="10.00">cstdint</text>
</a>
</g>
</g>
<!-- Node1&#45;&gt;Node9 -->
<g id="edge63_Node000001_Node000009" class="edge">
<title>Node1&#45;&gt;Node9</title>
<g id="a_edge63_Node000001_Node000009"><a xlink:title=" ">
<path fill="none" stroke="#63b8ff" d="M916.28,-284.28C986.66,-275.31 1081,-249.48 1081,-175.5 1081,-175.5 1081,-175.5 1081,-118.5 1081,-89.04 1084.43,-74.1 1062,-55 1061.64,-54.69 845.72,-26.42 759.22,-15.11"/>
<polygon fill="#63b8ff" stroke="#63b8ff" points="759.47,-11.61 749.1,-13.78 758.56,-18.55 759.47,-11.61"/>
</a>
</g>
</g>
<!-- Node10 -->
<g id="Node000010" class="node">
<title>Node10</title>
<g id="a_Node000010"><a xlink:href="uvgvpcc_8hpp.html" target="_top" xlink:title=" ">
<polygon fill="white" stroke="#666666" points="264,-74 142,-74 142,-55 264,-55 264,-74"/>
<text text-anchor="middle" x="203" y="-62" font-family="Helvetica,sans-Serif" font-size="10.00">uvgvpcc/uvgvpcc.hpp</text>
</a>
</g>
</g>
<!-- Node1&#45;&gt;Node10 -->
<g id="edge61_Node000001_Node000010" class="edge">
<title>Node1&#45;&gt;Node10</title>
<g id="a_edge61_Node000001_Node000010"><a xlink:title=" ">
<path fill="none" stroke="#63b8ff" d="M765.98,-287.37C650.08,-283.82 433.71,-272.75 365,-239 291.97,-203.12 235.23,-119.39 213.09,-82.95"/>
<polygon fill="#63b8ff" stroke="#63b8ff" points="215.89,-80.82 207.78,-74.01 209.88,-84.39 215.89,-80.82"/>
</a>
</g>
</g>
<!-- Node18 -->
<g id="Node000018" class="node">
<title>Node18</title>
<g id="a_Node000018"><a xlink:href="bitstream__util_8hpp.html" target="_top" xlink:title=" ">
<polygon fill="white" stroke="#666666" points="818,-129 712,-129 712,-110 818,-110 818,-129"/>
<text text-anchor="middle" x="765" y="-117" font-family="Helvetica,sans-Serif" font-size="10.00">bitstream_util.hpp</text>
</a>
</g>
</g>
<!-- Node1&#45;&gt;Node18 -->
<g id="edge53_Node000001_Node000018" class="edge">
<title>Node1&#45;&gt;Node18</title>
<g id="a_edge53_Node000001_Node000018"><a xlink:title=" ">
<path fill="none" stroke="#63b8ff" d="M834.65,-274.92C820.88,-244.39 788.27,-172.1 773.07,-138.39"/>
<polygon fill="#63b8ff" stroke="#63b8ff" points="776.25,-136.93 768.95,-129.25 769.87,-139.81 776.25,-136.93"/>
</a>
</g>
</g>
<!-- Node20 -->
<g id="Node000020" class="node">
<title>Node20</title>
<g id="a_Node000020"><a xlink:title=" ">
<polygon fill="#e0e0e0" stroke="#999999" points="895,-74 845,-74 845,-55 895,-55 895,-74"/>
<text text-anchor="middle" x="870" y="-62" font-family="Helvetica,sans-Serif" font-size="10.00">cstring</text>
</a>
</g>
</g>
<!-- Node1&#45;&gt;Node20 -->
<g id="edge46_Node000001_Node000020" class="edge">
<title>Node1&#45;&gt;Node20</title>
<g id="a_edge46_Node000001_Node000020"><a xlink:title=" ">
<path fill="none" stroke="#63b8ff" d="M845.76,-274.73C848.88,-264.81 852.78,-251.24 855,-239 865.1,-183.36 868.45,-116.41 869.52,-84.38"/>
<polygon fill="#63b8ff" stroke="#63b8ff" points="873.02,-84.34 869.82,-74.24 866.03,-84.13 873.02,-84.34"/>
</a>
</g>
</g>
<!-- Node22 -->
<g id="Node000022" class="node">
<title>Node22</title>
<g id="a_Node000022"><a xlink:title=" ">
<polygon fill="#e0e0e0" stroke="#999999" points="718.5,-74 653.5,-74 653.5,-55 718.5,-55 718.5,-74"/>
<text text-anchor="middle" x="686" y="-62" font-family="Helvetica,sans-Serif" font-size="10.00">stdexcept</text>
</a>
</g>
</g>
<!-- Node1&#45;&gt;Node22 -->
<g id="edge49_Node000001_Node000022" class="edge">
<title>Node1&#45;&gt;Node22</title>
<g id="a_edge49_Node000001_Node000022"><a xlink:title=" ">
<path fill="none" stroke="#63b8ff" d="M824.71,-274.86C795.82,-248.9 735.59,-190.61 703,-129 695.57,-114.96 691.19,-97.41 688.75,-84.32"/>
<polygon fill="#63b8ff" stroke="#63b8ff" points="692.15,-83.46 687.07,-74.17 685.25,-84.6 692.15,-83.46"/>
</a>
</g>
</g>
<!-- Node27 -->
<g id="Node000027" class="node">
<title>Node27</title>
<g id="a_Node000027"><a xlink:href="video__sub__bitstream_8hpp.html" target="_top" xlink:title=" ">
<polygon fill="white" stroke="#666666" points="1053,-74 913,-74 913,-55 1053,-55 1053,-74"/>
<text text-anchor="middle" x="983" y="-62" font-family="Helvetica,sans-Serif" font-size="10.00">video_sub_bitstream.hpp</text>
</a>
</g>
</g>
<!-- Node1&#45;&gt;Node27 -->
<g id="edge62_Node000001_Node000027" class="edge">
<title>Node1&#45;&gt;Node27</title>
<g id="a_edge62_Node000001_Node000027"><a xlink:title=" ">
<path fill="none" stroke="#63b8ff" d="M850.1,-274.68C875.14,-235.27 945,-125.31 972.08,-82.69"/>
<polygon fill="#63b8ff" stroke="#63b8ff" points="975.04,-84.55 977.45,-74.23 969.14,-80.79 975.04,-84.55"/>
</a>
</g>
</g>
<!-- Node29 -->
<g id="Node000029" class="node">
<title>Node29</title>
<g id="a_Node000029"><a xlink:title=" ">
<polygon fill="#e0e0e0" stroke="#999999" points="1184.5,-239 1147.5,-239 1147.5,-220 1184.5,-220 1184.5,-239"/>
<text text-anchor="middle" x="1166" y="-227" font-family="Helvetica,sans-Serif" font-size="10.00">new</text>
</a>
</g>
</g>
<!-- Node1&#45;&gt;Node29 -->
<g id="edge48_Node000001_Node000029" class="edge">
<title>Node1&#45;&gt;Node29</title>
<g id="a_edge48_Node000001_Node000029"><a xlink:title=" ">
<path fill="none" stroke="#63b8ff" d="M916.04,-277.9C975.21,-268.72 1059.7,-254.69 1133,-239 1134.45,-238.69 1135.92,-238.36 1137.42,-238.02"/>
<polygon fill="#63b8ff" stroke="#63b8ff" points="1138.33,-241.4 1147.22,-235.62 1136.67,-234.6 1138.33,-241.4"/>
</a>
</g>
</g>
<!-- Node30 -->
<g id="Node000030" class="node">
<title>Node30</title>
<g id="a_Node000030"><a xlink:title=" ">
<polygon fill="#e0e0e0" stroke="#999999" points="1247.5,-239 1202.5,-239 1202.5,-220 1247.5,-220 1247.5,-239"/>
<text text-anchor="middle" x="1225" y="-227" font-family="Helvetica,sans-Serif" font-size="10.00">utility</text>
</a>
</g>
</g>
<!-- Node1&#45;&gt;Node30 -->
<g id="edge50_Node000001_Node000030" class="edge">
<title>Node1&#45;&gt;Node30</title>
<g id="a_edge50_Node000001_Node000030"><a xlink:title=" ">
<path fill="none" stroke="#63b8ff" d="M916.19,-281.15C985.67,-273.26 1091.88,-259.59 1192.37,-239.12"/>
<polygon fill="#63b8ff" stroke="#63b8ff" points="1193.31,-242.5 1202.39,-237.05 1191.89,-235.65 1193.31,-242.5"/>
</a>
</g>
</g>
<!-- Node31 -->
<g id="Node000031" class="node">
<title>Node31</title>
<g id="a_Node000031"><a xlink:href="log_8hpp.html" target="_top" xlink:title=" ">
<polygon fill="white" stroke="#666666" points="1205,-74 1109,-74 1109,-55 1205,-55 1205,-74"/>
<text text-anchor="middle" x="1157" y="-62" font-family="Helvetica,sans-Serif" font-size="10.00">uvgvpcc/log.hpp</text>
</a>
</g>
</g>
<!-- Node1&#45;&gt;Node31 -->
<g id="edge54_Node000001_Node000031" class="edge">
<title>Node1&#45;&gt;Node31</title>
<g id="a_edge54_Node000001_Node000031"><a xlink:title=" ">
<path fill="none" stroke="#63b8ff" d="M916.09,-282.41C981.06,-275.26 1068.61,-261.73 1095,-239 1141.8,-198.69 1153.27,-120.48 1156.09,-84.47"/>
<polygon fill="#63b8ff" stroke="#63b8ff" points="1159.59,-84.57 1156.73,-74.37 1152.6,-84.13 1159.59,-84.57"/>
</a>
</g>
</g>
<!-- Node2&#45;&gt;Node3 -->
<g id="edge2_Node000002_Node000003" class="edge">
<title>Node2&#45;&gt;Node3</title>
<g id="a_edge2_Node000002_Node000003"><a xlink:title=" ">
<path fill="none" stroke="#63b8ff" d="M396.29,-223.92C362.78,-217.6 304.01,-204.59 257,-184 166.82,-144.5 80.25,-61.54 46.19,-26.58"/>
<polygon fill="#63b8ff" stroke="#63b8ff" points="48.49,-23.92 39.04,-19.14 43.45,-28.78 48.49,-23.92"/>
</a>
</g>
</g>
<!-- Node2&#45;&gt;Node4 -->
<g id="edge3_Node000002_Node000004" class="edge">
<title>Node2&#45;&gt;Node4</title>
<g id="a_edge3_Node000002_Node000004"><a xlink:title=" ">
<path fill="none" stroke="#63b8ff" d="M396.24,-220.63C340.46,-203 210.51,-155.38 133,-74 120.85,-61.24 112.58,-42.82 107.65,-29.09"/>
<polygon fill="#63b8ff" stroke="#63b8ff" points="110.88,-27.69 104.41,-19.3 104.23,-29.89 110.88,-27.69"/>
</a>
</g>
</g>
<!-- Node5 -->
<g id="Node000005" class="node">
<title>Node5</title>
<g id="a_Node000005"><a xlink:href="atlas__context_8hpp.html" target="_top" xlink:title=" ">
<polygon fill="white" stroke="#666666" points="475,-184 371,-184 371,-165 475,-165 475,-184"/>
<text text-anchor="middle" x="423" y="-172" font-family="Helvetica,sans-Serif" font-size="10.00">atlas_context.hpp</text>
</a>
</g>
</g>
<!-- Node2&#45;&gt;Node5 -->
<g id="edge4_Node000002_Node000005" class="edge">
<title>Node2&#45;&gt;Node5</title>
<g id="a_edge4_Node000002_Node000005"><a xlink:title=" ">
<path fill="none" stroke="#63b8ff" d="M423,-219.75C423,-212.8 423,-202.85 423,-194.13"/>
<polygon fill="#63b8ff" stroke="#63b8ff" points="426.5,-194.09 423,-184.09 419.5,-194.09 426.5,-194.09"/>
</a>
</g>
</g>
<!-- Node2&#45;&gt;Node10 -->
<g id="edge36_Node000002_Node000010" class="edge">
<title>Node2&#45;&gt;Node10</title>
<g id="a_edge36_Node000002_Node000010"><a xlink:title=" ">
<path fill="none" stroke="#63b8ff" d="M410.82,-219.67C398.49,-210.72 378.88,-196.45 362,-184 311.78,-146.97 252.97,-102.97 222.91,-80.44"/>
<polygon fill="#63b8ff" stroke="#63b8ff" points="224.64,-77.36 214.54,-74.16 220.44,-82.96 224.64,-77.36"/>
</a>
</g>
</g>
<!-- Node2&#45;&gt;Node27 -->
<g id="edge37_Node000002_Node000027" class="edge">
<title>Node2&#45;&gt;Node27</title>
<g id="a_edge37_Node000002_Node000027"><a xlink:title=" ">
<path fill="none" stroke="#63b8ff" d="M449.85,-223.3C515.22,-210.32 687.53,-174.29 827,-129 872.92,-114.09 924.51,-91.99 955.35,-78.19"/>
<polygon fill="#63b8ff" stroke="#63b8ff" points="956.92,-81.32 964.59,-74.01 954.04,-74.93 956.92,-81.32"/>
</a>
</g>
</g>
<!-- Node28 -->
<g id="Node000028" class="node">
<title>Node28</title>
<g id="a_Node000028"><a xlink:href="vps_8hpp.html" target="_top" xlink:title=" ">
<polygon fill="white" stroke="#666666" points="548.5,-184 493.5,-184 493.5,-165 548.5,-165 548.5,-184"/>
<text text-anchor="middle" x="521" y="-172" font-family="Helvetica,sans-Serif" font-size="10.00">vps.hpp</text>
</a>
</g>
</g>
<!-- Node2&#45;&gt;Node28 -->
<g id="edge41_Node000002_Node000028" class="edge">
<title>Node2&#45;&gt;Node28</title>
<g id="a_edge41_Node000002_Node000028"><a xlink:title=" ">
<path fill="none" stroke="#63b8ff" d="M438.75,-219.98C454.23,-211.61 478.09,-198.7 496.14,-188.95"/>
<polygon fill="#63b8ff" stroke="#63b8ff" points="497.84,-192.01 504.97,-184.17 494.51,-185.85 497.84,-192.01"/>
</a>
</g>
</g>
<!-- Node6 -->
<g id="Node000006" class="node">
<title>Node6</title>
<g id="a_Node000006"><a xlink:href="atlas__frame_8hpp.html" target="_top" xlink:title=" ">
<polygon fill="white" stroke="#666666" points="482,-129 386,-129 386,-110 482,-110 482,-129"/>
<text text-anchor="middle" x="434" y="-117" font-family="Helvetica,sans-Serif" font-size="10.00">atlas_frame.hpp</text>
</a>
</g>
</g>
<!-- Node5&#45;&gt;Node6 -->
<g id="edge5_Node000005_Node000006" class="edge">
<title>Node5&#45;&gt;Node6</title>
<g id="a_edge5_Node000005_Node000006"><a xlink:title=" ">
<path fill="none" stroke="#63b8ff" d="M424.82,-164.75C426.26,-157.8 428.32,-147.85 430.13,-139.13"/>
<polygon fill="#63b8ff" stroke="#63b8ff" points="433.61,-139.59 432.22,-129.09 426.76,-138.17 433.61,-139.59"/>
</a>
</g>
</g>
<!-- Node5&#45;&gt;Node8 -->
<g id="edge20_Node000005_Node000008" class="edge">
<title>Node5&#45;&gt;Node8</title>
<g id="a_edge20_Node000005_Node000008"><a xlink:title=" ">
<path fill="none" stroke="#63b8ff" d="M411.96,-164.94C401.82,-156.63 386.91,-143.22 377,-129 367.31,-115.1 359.82,-97.31 355.03,-84.1"/>
<polygon fill="#63b8ff" stroke="#63b8ff" points="358.21,-82.59 351.66,-74.26 351.59,-84.86 358.21,-82.59"/>
</a>
</g>
</g>
<!-- Node5&#45;&gt;Node10 -->
<g id="edge35_Node000005_Node000010" class="edge">
<title>Node5&#45;&gt;Node10</title>
<g id="a_edge35_Node000005_Node000010"><a xlink:title=" ">
<path fill="none" stroke="#63b8ff" d="M405.37,-164.84C366.9,-145.96 275.22,-100.96 229.66,-78.59"/>
<polygon fill="#63b8ff" stroke="#63b8ff" points="230.93,-75.31 220.41,-74.05 227.84,-81.6 230.93,-75.31"/>
</a>
</g>
</g>
<!-- Node5&#45;&gt;Node18 -->
<g id="edge21_Node000005_Node000018" class="edge">
<title>Node5&#45;&gt;Node18</title>
<g id="a_edge21_Node000005_Node000018"><a xlink:title=" ">
<path fill="none" stroke="#63b8ff" d="M475.31,-165.39C536.15,-155.97 636.53,-140.41 701.7,-130.31"/>
<polygon fill="#63b8ff" stroke="#63b8ff" points="702.5,-133.73 711.85,-128.74 701.43,-126.81 702.5,-133.73"/>
</a>
</g>
</g>
<!-- Node21 -->
<g id="Node000021" class="node">
<title>Node21</title>
<g id="a_Node000021"><a xlink:href="parameters_8hpp.html" target="_top" xlink:title=" ">
<polygon fill="white" stroke="#666666" points="656,-129 538,-129 538,-110 656,-110 656,-129"/>
<text text-anchor="middle" x="597" y="-117" font-family="Helvetica,sans-Serif" font-size="10.00">utils/parameters.hpp</text>
</a>
</g>
</g>
<!-- Node5&#45;&gt;Node21 -->
<g id="edge25_Node000005_Node000021" class="edge">
<title>Node5&#45;&gt;Node21</title>
<g id="a_edge25_Node000005_Node000021"><a xlink:title=" ">
<path fill="none" stroke="#63b8ff" d="M450.96,-164.98C480.3,-156.05 526.6,-141.94 559.19,-132.02"/>
<polygon fill="#63b8ff" stroke="#63b8ff" points="560.28,-135.34 568.82,-129.08 558.24,-128.65 560.28,-135.34"/>
</a>
</g>
</g>
<!-- Node7 -->
<g id="Node000007" class="node">
<title>Node7</title>
<g id="a_Node000007"><a xlink:title=" ">
<polygon fill="#e0e0e0" stroke="#999999" points="480.5,-74 433.5,-74 433.5,-55 480.5,-55 480.5,-74"/>
<text text-anchor="middle" x="457" y="-62" font-family="Helvetica,sans-Serif" font-size="10.00">cmath</text>
</a>
</g>
</g>
<!-- Node6&#45;&gt;Node7 -->
<g id="edge6_Node000006_Node000007" class="edge">
<title>Node6&#45;&gt;Node7</title>
<g id="a_edge6_Node000006_Node000007"><a xlink:title=" ">
<path fill="none" stroke="#63b8ff" d="M437.8,-109.75C440.91,-102.57 445.42,-92.18 449.29,-83.27"/>
<polygon fill="#63b8ff" stroke="#63b8ff" points="452.5,-84.66 453.27,-74.09 446.08,-81.87 452.5,-84.66"/>
</a>
</g>
</g>
<!-- Node6&#45;&gt;Node8 -->
<g id="edge7_Node000006_Node000008" class="edge">
<title>Node6&#45;&gt;Node8</title>
<g id="a_edge7_Node000006_Node000008"><a xlink:title=" ">
<path fill="none" stroke="#63b8ff" d="M420.34,-109.98C407.16,-101.77 386.97,-89.18 371.43,-79.49"/>
<polygon fill="#63b8ff" stroke="#63b8ff" points="373.24,-76.49 362.91,-74.17 369.54,-82.43 373.24,-76.49"/>
</a>
</g>
</g>
<!-- Node6&#45;&gt;Node10 -->
<g id="edge9_Node000006_Node000010" class="edge">
<title>Node6&#45;&gt;Node10</title>
<g id="a_edge9_Node000006_Node000010"><a xlink:title=" ">
<path fill="none" stroke="#63b8ff" d="M396.89,-109.98C357.01,-100.84 293.54,-86.27 250.16,-76.32"/>
<polygon fill="#63b8ff" stroke="#63b8ff" points="250.93,-72.91 240.41,-74.08 249.37,-79.73 250.93,-72.91"/>
</a>
</g>
</g>
<!-- Node8&#45;&gt;Node9 -->
<g id="edge8_Node000008_Node000009" class="edge">
<title>Node8&#45;&gt;Node9</title>
<g id="a_edge8_Node000008_Node000009"><a xlink:title=" ">
<path fill="none" stroke="#63b8ff" d="M410.38,-55C474.25,-46.12 577.16,-31.75 666,-19 673.41,-17.94 681.35,-16.78 688.91,-15.68"/>
<polygon fill="#63b8ff" stroke="#63b8ff" points="689.5,-19.13 698.88,-14.21 688.48,-12.2 689.5,-19.13"/>
</a>
</g>
</g>
<!-- Node10&#45;&gt;Node3 -->
<g id="edge13_Node000010_Node000003" class="edge">
<title>Node10&#45;&gt;Node3</title>
<g id="a_edge13_Node000010_Node000003"><a xlink:title=" ">
<path fill="none" stroke="#63b8ff" d="M175.37,-54.98C146.49,-46.09 100.99,-32.07 68.8,-22.15"/>
<polygon fill="#63b8ff" stroke="#63b8ff" points="69.44,-18.68 58.85,-19.08 67.38,-25.37 69.44,-18.68"/>
</a>
</g>
</g>
<!-- Node10&#45;&gt;Node4 -->
<g id="edge18_Node000010_Node000004" class="edge">
<title>Node10&#45;&gt;Node4</title>
<g id="a_edge18_Node000010_Node000004"><a xlink:title=" ">
<path fill="none" stroke="#63b8ff" d="M186.77,-54.98C170.82,-46.61 146.22,-33.7 127.62,-23.95"/>
<polygon fill="#63b8ff" stroke="#63b8ff" points="129,-20.72 118.52,-19.17 125.75,-26.92 129,-20.72"/>
</a>
</g>
</g>
<!-- Node10&#45;&gt;Node9 -->
<g id="edge11_Node000010_Node000009" class="edge">
<title>Node10&#45;&gt;Node9</title>
<g id="a_edge11_Node000010_Node000009"><a xlink:title=" ">
<path fill="none" stroke="#63b8ff" d="M264.18,-56.07C267.5,-55.7 270.79,-55.34 274,-55 447.99,-36.6 492.27,-39.69 666,-19 673.43,-18.11 681.38,-17.04 688.94,-15.95"/>
<polygon fill="#63b8ff" stroke="#63b8ff" points="689.53,-19.4 698.92,-14.48 688.51,-12.47 689.53,-19.4"/>
</a>
</g>
</g>
<!-- Node11 -->
<g id="Node000011" class="node">
<title>Node11</title>
<g id="a_Node000011"><a xlink:title=" ">
<polygon fill="#e0e0e0" stroke="#999999" points="196.5,-19 143.5,-19 143.5,0 196.5,0 196.5,-19"/>
<text text-anchor="middle" x="170" y="-7" font-family="Helvetica,sans-Serif" font-size="10.00">cstddef</text>
</a>
</g>
</g>
<!-- Node10&#45;&gt;Node11 -->
<g id="edge10_Node000010_Node000011" class="edge">
<title>Node10&#45;&gt;Node11</title>
<g id="a_edge10_Node000010_Node000011"><a xlink:title=" ">
<path fill="none" stroke="#63b8ff" d="M197.55,-54.75C192.99,-47.42 186.33,-36.73 180.71,-27.7"/>
<polygon fill="#63b8ff" stroke="#63b8ff" points="183.6,-25.73 175.35,-19.09 177.66,-29.43 183.6,-25.73"/>
</a>
</g>
</g>
<!-- Node12 -->
<g id="Node000012" class="node">
<title>Node12</title>
<g id="a_Node000012"><a xlink:title=" ">
<polygon fill="#e0e0e0" stroke="#999999" points="951,-19 891,-19 891,0 951,0 951,-19"/>
<text text-anchor="middle" x="921" y="-7" font-family="Helvetica,sans-Serif" font-size="10.00">iostream</text>
</a>
</g>
</g>
<!-- Node10&#45;&gt;Node12 -->
<g id="edge12_Node000010_Node000012" class="edge">
<title>Node10&#45;&gt;Node12</title>
<g id="a_edge12_Node000010_Node000012"><a xlink:title=" ">
<path fill="none" stroke="#63b8ff" d="M264.17,-55.95C267.49,-55.61 270.79,-55.29 274,-55 529.89,-31.72 595.13,-42.5 851,-19 860.58,-18.12 870.87,-16.98 880.54,-15.82"/>
<polygon fill="#63b8ff" stroke="#63b8ff" points="881.22,-19.26 890.72,-14.57 880.37,-12.32 881.22,-19.26"/>
</a>
</g>
</g>
<!-- Node13 -->
<g id="Node000013" class="node">
<title>Node13</title>
<g id="a_Node000013"><a xlink:title=" ">
<polygon fill="#e0e0e0" stroke="#999999" points="261.5,-19 214.5,-19 214.5,0 261.5,0 261.5,-19"/>
<text text-anchor="middle" x="238" y="-7" font-family="Helvetica,sans-Serif" font-size="10.00">queue</text>
</a>
</g>
</g>
<!-- Node10&#45;&gt;Node13 -->
<g id="edge14_Node000010_Node000013" class="edge">
<title>Node10&#45;&gt;Node13</title>
<g id="a_edge14_Node000010_Node000013"><a xlink:title=" ">
<path fill="none" stroke="#63b8ff" d="M208.78,-54.75C213.62,-47.42 220.68,-36.73 226.64,-27.7"/>
<polygon fill="#63b8ff" stroke="#63b8ff" points="229.74,-29.36 232.33,-19.09 223.9,-25.5 229.74,-29.36"/>
</a>
</g>
</g>
<!-- Node14 -->
<g id="Node000014" class="node">
<title>Node14</title>
<g id="a_Node000014"><a xlink:title=" ">
<polygon fill="#e0e0e0" stroke="#999999" points="350.5,-19 279.5,-19 279.5,0 350.5,0 350.5,-19"/>
<text text-anchor="middle" x="315" y="-7" font-family="Helvetica,sans-Serif" font-size="10.00">semaphore</text>
</a>
</g>
</g>
<!-- Node10&#45;&gt;Node14 -->
<g id="edge15_Node000010_Node000014" class="edge">
<title>Node10&#45;&gt;Node14</title>
<g id="a_edge15_Node000010_Node000014"><a xlink:title=" ">
<path fill="none" stroke="#63b8ff" d="M220.99,-54.98C238.93,-46.5 266.72,-33.35 287.43,-23.54"/>
<polygon fill="#63b8ff" stroke="#63b8ff" points="289.14,-26.61 296.68,-19.17 286.14,-20.28 289.14,-26.61"/>
</a>
</g>
</g>
<!-- Node15 -->
<g id="Node000015" class="node">
<title>Node15</title>
<g id="a_Node000015"><a xlink:title=" ">
<polygon fill="#e0e0e0" stroke="#999999" points="535,-19 479,-19 479,0 535,0 535,-19"/>
<text text-anchor="middle" x="507" y="-7" font-family="Helvetica,sans-Serif" font-size="10.00">sstream</text>
</a>
</g>
</g>
<!-- Node10&#45;&gt;Node15 -->
<g id="edge16_Node000010_Node000015" class="edge">
<title>Node10&#45;&gt;Node15</title>
<g id="a_edge16_Node000010_Node000015"><a xlink:title=" ">
<path fill="none" stroke="#63b8ff" d="M260.21,-54.99C312.18,-47.03 391.17,-34.36 468.8,-19.14"/>
<polygon fill="#63b8ff" stroke="#63b8ff" points="469.62,-22.55 478.76,-17.17 468.27,-15.68 469.62,-22.55"/>
</a>
</g>
</g>
<!-- Node16 -->
<g id="Node000016" class="node">
<title>Node16</title>
<g id="a_Node000016"><a xlink:title=" ">
<polygon fill="#e0e0e0" stroke="#999999" points="842,-19 798,-19 798,0 842,0 842,-19"/>
<text text-anchor="middle" x="820" y="-7" font-family="Helvetica,sans-Serif" font-size="10.00">string</text>
</a>
</g>
</g>
<!-- Node10&#45;&gt;Node16 -->
<g id="edge17_Node000010_Node000016" class="edge">
<title>Node10&#45;&gt;Node16</title>
<g id="a_edge17_Node000010_Node000016"><a xlink:title=" ">
<path fill="none" stroke="#63b8ff" d="M264.17,-56C267.49,-55.65 270.79,-55.31 274,-55 488.7,-34.17 543.49,-41.66 758,-19 767.76,-17.97 778.35,-16.61 787.97,-15.28"/>
<polygon fill="#63b8ff" stroke="#63b8ff" points="788.54,-18.73 797.95,-13.86 787.55,-11.8 788.54,-18.73"/>
</a>
</g>
</g>
<!-- Node17 -->
<g id="Node000017" class="node">
<title>Node17</title>
<g id="a_Node000017"><a xlink:title=" ">
<polygon fill="#e0e0e0" stroke="#999999" points="461,-19 369,-19 369,0 461,0 461,-19"/>
<text text-anchor="middle" x="415" y="-7" font-family="Helvetica,sans-Serif" font-size="10.00">../utils/utils.hpp</text>
</a>
</g>
</g>
<!-- Node10&#45;&gt;Node17 -->
<g id="edge19_Node000010_Node000017" class="edge">
<title>Node10&#45;&gt;Node17</title>
<g id="a_edge19_Node000010_Node000017"><a xlink:title=" ">
<path fill="none" stroke="#63b8ff" d="M237.06,-54.98C273.42,-45.89 331.17,-31.46 370.97,-21.51"/>
<polygon fill="#63b8ff" stroke="#63b8ff" points="371.82,-24.9 380.67,-19.08 370.12,-18.11 371.82,-24.9"/>
</a>
</g>
</g>
<!-- Node18&#45;&gt;Node9 -->
<g id="edge24_Node000018_Node000009" class="edge">
<title>Node18&#45;&gt;Node9</title>
<g id="a_edge24_Node000018_Node000009"><a xlink:title=" ">
<path fill="none" stroke="#63b8ff" d="M761.64,-109.66C754.94,-92.01 739.79,-52.09 730.88,-28.64"/>
<polygon fill="#63b8ff" stroke="#63b8ff" points="734.11,-27.27 727.29,-19.16 727.56,-29.75 734.11,-27.27"/>
</a>
</g>
</g>
<!-- Node19 -->
<g id="Node000019" class="node">
<title>Node19</title>
<g id="a_Node000019"><a xlink:title=" ">
<polygon fill="#e0e0e0" stroke="#999999" points="827,-74 775,-74 775,-55 827,-55 827,-74"/>
<text text-anchor="middle" x="801" y="-62" font-family="Helvetica,sans-Serif" font-size="10.00">cassert</text>
</a>
</g>
</g>
<!-- Node18&#45;&gt;Node19 -->
<g id="edge22_Node000018_Node000019" class="edge">
<title>Node18&#45;&gt;Node19</title>
<g id="a_edge22_Node000018_Node000019"><a xlink:title=" ">
<path fill="none" stroke="#63b8ff" d="M770.94,-109.75C775.98,-102.34 783.34,-91.5 789.51,-82.41"/>
<polygon fill="#63b8ff" stroke="#63b8ff" points="792.44,-84.33 795.17,-74.09 786.65,-80.39 792.44,-84.33"/>
</a>
</g>
</g>
<!-- Node18&#45;&gt;Node20 -->
<g id="edge23_Node000018_Node000020" class="edge">
<title>Node18&#45;&gt;Node20</title>
<g id="a_edge23_Node000018_Node000020"><a xlink:title=" ">
<path fill="none" stroke="#63b8ff" d="M781.87,-109.98C798.61,-101.54 824.5,-88.47 843.89,-78.68"/>
<polygon fill="#63b8ff" stroke="#63b8ff" points="845.47,-81.8 852.82,-74.17 842.32,-75.55 845.47,-81.8"/>
</a>
</g>
</g>
<!-- Node21&#45;&gt;Node4 -->
<g id="edge28_Node000021_Node000004" class="edge">
<title>Node21&#45;&gt;Node4</title>
<g id="a_edge28_Node000021_Node000004"><a xlink:title=" ">
<path fill="none" stroke="#63b8ff" d="M583.97,-109.79C560.04,-93.96 509.7,-61.49 490,-55 342.05,-6.27 292.49,-45.81 135.66,-19.01"/>
<polygon fill="#63b8ff" stroke="#63b8ff" points="136.13,-15.54 125.67,-17.24 134.91,-22.43 136.13,-15.54"/>
</a>
</g>
</g>
<!-- Node21&#45;&gt;Node16 -->
<g id="edge27_Node000021_Node000016" class="edge">
<title>Node21&#45;&gt;Node16</title>
<g id="a_edge27_Node000021_Node000016"><a xlink:title=" ">
<path fill="none" stroke="#63b8ff" d="M601.23,-109.6C608.29,-95.72 623.82,-69.07 645,-55 668.33,-39.51 744.34,-23.96 788.13,-15.99"/>
<polygon fill="#63b8ff" stroke="#63b8ff" points="788.77,-19.43 798,-14.22 787.54,-12.54 788.77,-19.43"/>
</a>
</g>
</g>
<!-- Node21&#45;&gt;Node22 -->
<g id="edge26_Node000021_Node000022" class="edge">
<title>Node21&#45;&gt;Node22</title>
<g id="a_edge26_Node000021_Node000022"><a xlink:title=" ">
<path fill="none" stroke="#63b8ff" d="M611.3,-109.98C625.1,-101.77 646.24,-89.18 662.51,-79.49"/>
<polygon fill="#63b8ff" stroke="#63b8ff" points="664.64,-82.29 671.44,-74.17 661.06,-76.28 664.64,-82.29"/>
</a>
</g>
</g>
<!-- Node23 -->
<g id="Node000023" class="node">
<title>Node23</title>
<g id="a_Node000023"><a xlink:href="utils_8hpp.html" target="_top" xlink:title=" ">
<polygon fill="white" stroke="#666666" points="596.5,-74 537.5,-74 537.5,-55 596.5,-55 596.5,-74"/>
<text text-anchor="middle" x="567" y="-62" font-family="Helvetica,sans-Serif" font-size="10.00">utils.hpp</text>
</a>
</g>
</g>
<!-- Node21&#45;&gt;Node23 -->
<g id="edge29_Node000021_Node000023" class="edge">
<title>Node21&#45;&gt;Node23</title>
<g id="a_edge29_Node000021_Node000023"><a xlink:title=" ">
<path fill="none" stroke="#63b8ff" d="M592.05,-109.75C587.94,-102.49 581.97,-91.95 576.9,-82.98"/>
<polygon fill="#63b8ff" stroke="#63b8ff" points="579.83,-81.07 571.86,-74.09 573.74,-84.52 579.83,-81.07"/>
</a>
</g>
</g>
<!-- Node23&#45;&gt;Node9 -->
<g id="edge31_Node000023_Node000009" class="edge">
<title>Node23&#45;&gt;Node9</title>
<g id="a_edge31_Node000023_Node000009"><a xlink:title=" ">
<path fill="none" stroke="#63b8ff" d="M592.22,-54.98C618.43,-46.14 659.64,-32.23 688.99,-22.32"/>
<polygon fill="#63b8ff" stroke="#63b8ff" points="690.48,-25.51 698.84,-18.99 688.24,-18.88 690.48,-25.51"/>
</a>
</g>
</g>
<!-- Node23&#45;&gt;Node15 -->
<g id="edge33_Node000023_Node000015" class="edge">
<title>Node23&#45;&gt;Node15</title>
<g id="a_edge33_Node000023_Node000015"><a xlink:title=" ">
<path fill="none" stroke="#63b8ff" d="M557.36,-54.98C548.49,-47.15 535.13,-35.34 524.39,-25.86"/>
<polygon fill="#63b8ff" stroke="#63b8ff" points="526.63,-23.17 516.82,-19.17 521.99,-28.41 526.63,-23.17"/>
</a>
</g>
</g>
<!-- Node24 -->
<g id="Node000024" class="node">
<title>Node24</title>
<g id="a_Node000024"><a xlink:title=" ">
<polygon fill="#e0e0e0" stroke="#999999" points="657,-19 615,-19 615,0 657,0 657,-19"/>
<text text-anchor="middle" x="636" y="-7" font-family="Helvetica,sans-Serif" font-size="10.00">array</text>
</a>
</g>
</g>
<!-- Node23&#45;&gt;Node24 -->
<g id="edge30_Node000023_Node000024" class="edge">
<title>Node23&#45;&gt;Node24</title>
<g id="a_edge30_Node000023_Node000024"><a xlink:title=" ">
<path fill="none" stroke="#63b8ff" d="M578.09,-54.98C588.49,-47 604.26,-34.88 616.72,-25.31"/>
<polygon fill="#63b8ff" stroke="#63b8ff" points="618.91,-28.04 624.71,-19.17 614.65,-22.49 618.91,-28.04"/>
</a>
</g>
</g>
<!-- Node25 -->
<g id="Node000025" class="node">
<title>Node25</title>
<g id="a_Node000025"><a xlink:title=" ">
<polygon fill="#e0e0e0" stroke="#999999" points="597,-19 553,-19 553,0 597,0 597,-19"/>
<text text-anchor="middle" x="575" y="-7" font-family="Helvetica,sans-Serif" font-size="10.00">limits</text>
</a>
</g>
</g>
<!-- Node23&#45;&gt;Node25 -->
<g id="edge32_Node000023_Node000025" class="edge">
<title>Node23&#45;&gt;Node25</title>
<g id="a_edge32_Node000023_Node000025"><a xlink:title=" ">
<path fill="none" stroke="#63b8ff" d="M568.32,-54.75C569.37,-47.8 570.87,-37.85 572.19,-29.13"/>
<polygon fill="#63b8ff" stroke="#63b8ff" points="575.67,-29.5 573.7,-19.09 568.75,-28.45 575.67,-29.5"/>
</a>
</g>
</g>
<!-- Node26 -->
<g id="Node000026" class="node">
<title>Node26</title>
<g id="a_Node000026"><a xlink:title=" ">
<polygon fill="#e0e0e0" stroke="#999999" points="1040,-19 984,-19 984,0 1040,0 1040,-19"/>
<text text-anchor="middle" x="1012" y="-7" font-family="Helvetica,sans-Serif" font-size="10.00">iomanip</text>
</a>
</g>
</g>
<!-- Node23&#45;&gt;Node26 -->
<g id="edge34_Node000023_Node000026" class="edge">
<title>Node23&#45;&gt;Node26</title>
<g id="a_edge34_Node000023_Node000026"><a xlink:title=" ">
<path fill="none" stroke="#63b8ff" d="M596.74,-60.22C682.14,-50.78 924.25,-23.94 960,-19 964.51,-18.38 969.22,-17.68 973.9,-16.95"/>
<polygon fill="#63b8ff" stroke="#63b8ff" points="974.65,-20.37 983.97,-15.34 973.55,-13.46 974.65,-20.37"/>
</a>
</g>
</g>
<!-- Node27&#45;&gt;Node4 -->
<g id="edge40_Node000027_Node000004" class="edge">
<title>Node27&#45;&gt;Node4</title>
<g id="a_edge40_Node000027_Node000004"><a xlink:title=" ">
<path fill="none" stroke="#63b8ff" d="M912.81,-55.73C909.83,-55.47 906.89,-55.22 904,-55 565.75,-28.92 474.36,-70.45 135.74,-18.93"/>
<polygon fill="#63b8ff" stroke="#63b8ff" points="136.06,-15.44 125.65,-17.38 135,-22.36 136.06,-15.44"/>
</a>
</g>
</g>
<!-- Node27&#45;&gt;Node9 -->
<g id="edge38_Node000027_Node000009" class="edge">
<title>Node27&#45;&gt;Node9</title>
<g id="a_edge38_Node000027_Node000009"><a xlink:title=" ">
<path fill="none" stroke="#63b8ff" d="M941.39,-54.98C890.87,-44.65 806.57,-27.4 759.16,-17.69"/>
<polygon fill="#63b8ff" stroke="#63b8ff" points="759.56,-14.2 749.06,-15.63 758.16,-21.06 759.56,-14.2"/>
</a>
</g>
</g>
<!-- Node27&#45;&gt;Node16 -->
<g id="edge39_Node000027_Node000016" class="edge">
<title>Node27&#45;&gt;Node16</title>
<g id="a_edge39_Node000027_Node000016"><a xlink:title=" ">
<path fill="none" stroke="#63b8ff" d="M956.81,-54.98C928.27,-45.7 882.59,-30.85 851.96,-20.89"/>
<polygon fill="#63b8ff" stroke="#63b8ff" points="852.79,-17.48 842.2,-17.72 850.62,-24.14 852.79,-17.48"/>
</a>
</g>
</g>
<!-- Node28&#45;&gt;Node7 -->
<g id="edge42_Node000028_Node000007" class="edge">
<title>Node28&#45;&gt;Node7</title>
<g id="a_edge42_Node000028_Node000007"><a xlink:title=" ">
<path fill="none" stroke="#63b8ff" d="M517.66,-164.99C512.61,-152.52 502.41,-128.75 491,-110 485.13,-100.36 477.6,-90.32 471.12,-82.22"/>
<polygon fill="#63b8ff" stroke="#63b8ff" points="473.67,-79.81 464.62,-74.3 468.26,-84.25 473.67,-79.81"/>
</a>
</g>
</g>
<!-- Node28&#45;&gt;Node10 -->
<g id="edge45_Node000028_Node000010" class="edge">
<title>Node28&#45;&gt;Node10</title>
<g id="a_edge45_Node000028_Node000010"><a xlink:title=" ">
<path fill="none" stroke="#63b8ff" d="M493.24,-165.43C464.13,-156.85 417.13,-142.66 377,-129 354.1,-121.2 348.71,-118.34 326,-110 295.84,-98.92 261.44,-86.5 236.7,-77.6"/>
<polygon fill="#63b8ff" stroke="#63b8ff" points="237.66,-74.22 227.06,-74.13 235.29,-80.81 237.66,-74.22"/>
</a>
</g>
</g>
<!-- Node28&#45;&gt;Node18 -->
<g id="edge43_Node000028_Node000018" class="edge">
<title>Node28&#45;&gt;Node18</title>
<g id="a_edge43_Node000028_Node000018"><a xlink:title=" ">
<path fill="none" stroke="#63b8ff" d="M548.52,-167.52C588.98,-158.73 665.16,-142.19 715.5,-131.25"/>
<polygon fill="#63b8ff" stroke="#63b8ff" points="716.49,-134.62 725.52,-129.08 715,-127.78 716.49,-134.62"/>
</a>
</g>
</g>
<!-- Node28&#45;&gt;Node21 -->
<g id="edge44_Node000028_Node000021" class="edge">
<title>Node28&#45;&gt;Node21</title>
<g id="a_edge44_Node000028_Node000021"><a xlink:title=" ">
<path fill="none" stroke="#63b8ff" d="M533.21,-164.98C544.78,-156.92 562.38,-144.65 576.16,-135.03"/>
<polygon fill="#63b8ff" stroke="#63b8ff" points="578.37,-137.76 584.57,-129.17 574.36,-132.02 578.37,-137.76"/>
</a>
</g>
</g>
<!-- Node31&#45;&gt;Node12 -->
<g id="edge58_Node000031_Node000012" class="edge">
<title>Node31&#45;&gt;Node12</title>
<g id="a_edge58_Node000031_Node000012"><a xlink:title=" ">
<path fill="none" stroke="#63b8ff" d="M1119.08,-54.98C1075.81,-45.27 1005.32,-29.44 961.14,-19.51"/>
<polygon fill="#63b8ff" stroke="#63b8ff" points="961.84,-16.09 951.32,-17.31 960.31,-22.92 961.84,-16.09"/>
</a>
</g>
</g>
<!-- Node31&#45;&gt;Node16 -->
<g id="edge59_Node000031_Node000016" class="edge">
<title>Node31&#45;&gt;Node16</title>
<g id="a_edge59_Node000031_Node000016"><a xlink:title=" ">
<path fill="none" stroke="#63b8ff" d="M1108.72,-55.91C1038.84,-44.92 911.4,-24.88 852.03,-15.54"/>
<polygon fill="#63b8ff" stroke="#63b8ff" points="852.52,-12.07 842.1,-13.98 851.44,-18.99 852.52,-12.07"/>
</a>
</g>
</g>
<!-- Node31&#45;&gt;Node26 -->
<g id="edge57_Node000031_Node000026" class="edge">
<title>Node31&#45;&gt;Node26</title>
<g id="a_edge57_Node000031_Node000026"><a xlink:title=" ">
<path fill="none" stroke="#63b8ff" d="M1133.7,-54.98C1109.75,-46.23 1072.22,-32.51 1045.17,-22.62"/>
<polygon fill="#63b8ff" stroke="#63b8ff" points="1046.31,-19.32 1035.72,-19.17 1043.91,-25.89 1046.31,-19.32"/>
</a>
</g>
</g>
<!-- Node32 -->
<g id="Node000032" class="node">
<title>Node32</title>
<g id="a_Node000032"><a xlink:title=" ">
<polygon fill="#e0e0e0" stroke="#999999" points="1182,-19 1132,-19 1132,0 1182,0 1182,-19"/>
<text text-anchor="middle" x="1157" y="-7" font-family="Helvetica,sans-Serif" font-size="10.00">chrono</text>
</a>
</g>
</g>
<!-- Node31&#45;&gt;Node32 -->
<g id="edge55_Node000031_Node000032" class="edge">
<title>Node31&#45;&gt;Node32</title>
<g id="a_edge55_Node000031_Node000032"><a xlink:title=" ">
<path fill="none" stroke="#63b8ff" d="M1157,-54.75C1157,-47.8 1157,-37.85 1157,-29.13"/>
<polygon fill="#63b8ff" stroke="#63b8ff" points="1160.5,-29.09 1157,-19.09 1153.5,-29.09 1160.5,-29.09"/>
</a>
</g>
</g>
<!-- Node33 -->
<g id="Node000033" class="node">
<title>Node33</title>
<g id="a_Node000033"><a xlink:title=" ">
<polygon fill="#e0e0e0" stroke="#999999" points="1253.5,-19 1200.5,-19 1200.5,0 1253.5,0 1253.5,-19"/>
<text text-anchor="middle" x="1227" y="-7" font-family="Helvetica,sans-Serif" font-size="10.00">cstdarg</text>
</a>
</g>
</g>
<!-- Node31&#45;&gt;Node33 -->
<g id="edge56_Node000031_Node000033" class="edge">
<title>Node31&#45;&gt;Node33</title>
<g id="a_edge56_Node000031_Node000033"><a xlink:title=" ">
<path fill="none" stroke="#63b8ff" d="M1168.25,-54.98C1178.8,-47 1194.8,-34.88 1207.44,-25.31"/>
<polygon fill="#63b8ff" stroke="#63b8ff" points="1209.69,-28 1215.55,-19.17 1205.46,-22.42 1209.69,-28"/>
</a>
</g>
</g>
<!-- Node34 -->
<g id="Node000034" class="node">
<title>Node34</title>
<g id="a_Node000034"><a xlink:title=" ">
<polygon fill="#e0e0e0" stroke="#999999" points="1114,-19 1066,-19 1066,0 1114,0 1114,-19"/>
<text text-anchor="middle" x="1090" y="-7" font-family="Helvetica,sans-Serif" font-size="10.00">mutex</text>
</a>
</g>
</g>
<!-- Node31&#45;&gt;Node34 -->
<g id="edge60_Node000031_Node000034" class="edge">
<title>Node31&#45;&gt;Node34</title>
<g id="a_edge60_Node000031_Node000034"><a xlink:title=" ">
<path fill="none" stroke="#63b8ff" d="M1146.24,-54.98C1136.23,-47.07 1121.11,-35.11 1109.07,-25.58"/>
<polygon fill="#63b8ff" stroke="#63b8ff" points="1110.97,-22.63 1100.96,-19.17 1106.63,-28.12 1110.97,-22.63"/>
</a>
</g>
</g>
</g>
</svg>

<g id="navigator" transform="translate(0 0)" fill="#404254">
  <rect fill="#f2f5e9" fill-opacity="0.5" stroke="#606060" stroke-width=".5" x="0" y="0" width="60" height="60"/>
  <use id="zoomplus" xlink:href="#zoomPlus" x="17" y="9" onmousedown="handleZoom(evt,'in')"/>
  <use id="zoomminus" xlink:href="#zoomMin" x="42" y="9" onmousedown="handleZoom(evt,'out')"/>
  <use id="reset" xlink:href="#resetDef" x="30" y="36" onmousedown="handleReset()"/>
   <use id="arrowup" xlink:href="#arrowUp" x="0" y="0" onmousedown="handlePan(0,-1)"/>
  <use id="arrowright" xlink:href="#arrowRight" x="0" y="0" onmousedown="handlePan(1,0)"/>
  <use id="arrowdown" xlink:href="#arrowDown" x="0" y="0" onmousedown="handlePan(0,1)"/>
  <use id="arrowleft" xlink:href="#arrowLeft" x="0" y="0" onmousedown="handlePan(-1,0)"/>
</g>
<svg viewBox="0 0 15 15" width="100%" height="30px" preserveAspectRatio="xMaxYMin meet">
 <g id="arrow_out" transform="scale(0.3 0.3)">
  <a xlink:href="gof_8cpp__incl_org.svg" target="_base">
   <rect id="button" ry="5" rx="5" y="6" x="6" height="38" width="38"
        fill="#f2f5e9" fill-opacity="0.5" stroke="#606060" stroke-width="1.0"/>
   <path id="arrow"
     d="M 11.500037,31.436501 C 11.940474,20.09759 22.043105,11.32322 32.158766,21.979434 L 37.068811,17.246167 C 37.068811,17.246167 37.088388,32 37.088388,32 L 22.160133,31.978069 C 22.160133,31.978069 26.997745,27.140456 26.997745,27.140456 C 18.528582,18.264221 13.291696,25.230495 11.500037,31.436501 z"
     style="fill:#404040;"/>
  </a>
 </g>
</svg>

<style type='text/css'>
<![CDATA[
[data-mouse-over-selected='false'] { opacity: 0.7; }
[data-mouse-over-selected='true']  { opacity: 1.0; }
]]>
</style>
<script type="application/ecmascript"><![CDATA[
document.addEventListener('DOMContentLoaded', (event) => {
  highlightEdges();
  highlightAdjacentNodes();
});
]]></script>
</svg>
