<?xml version="1.0" encoding="UTF-8" standalone="no"?>
<!DOCTYPE svg PUBLIC "-//W3C//DTD SVG 1.1//EN"
 "http://www.w3.org/Graphics/SVG/1.1/DTD/svg11.dtd">
<!-- Generated by graphviz version 2.43.0 (0)
 -->
<!-- Title: src/libuvgvpccenc/bitstreamGeneration/gof.cpp Pages: 1 -->
<!--zoomable 423 -->

<svg id="main" version="1.1" xmlns="http://www.w3.org/2000/svg" xmlns:xlink="http://www.w3.org/1999/xlink" xml:space="preserve" onload="init(evt)">
<style type="text/css"><![CDATA[
.node, .edge {opacity: 0.7;}
.node.selected, .edge.selected {opacity: 1;}
.edge:hover path { stroke: red; }
.edge:hover polygon { stroke: red; fill: red; }
]]></style>

<defs>
  <circle id="rim" cx="0" cy="0" r="7"/>
  <circle id="rim2" cx="0" cy="0" r="3.5"/>
  <g id="zoomPlus">
    <use xlink:href="#rim" fill="#404040"><set attributeName="fill" to="#808080" begin="zoomplus.mouseover" end="zoomplus.mouseout"/></use>
    <path d="M-4,0h8M0,-4v8" fill="none" stroke="white" stroke-width="1.5" pointer-events="none"/>
  </g>
  <g id="zoomMin">
    <use xlink:href="#rim" fill="#404040"><set attributeName="fill" to="#808080" begin="zoomminus.mouseover" end="zoomminus.mouseout"/></use>
    <path d="M-4,0h8" fill="none" stroke="white" stroke-width="1.5" pointer-events="none"/>
  </g>
  <g id="arrowUp" transform="translate(30 24)">
    <use xlink:href="#rim"/>
    <path pointer-events="none" fill="none" stroke="white" stroke-width="1.5" d="M0,-3.0v7 M-2.5,-0.5L0,-3.0L2.5,-0.5"/>
  </g>
  <g id="arrowRight" transform="rotate(90) translate(36 -43)">
    <use xlink:href="#rim"/>
    <path pointer-events="none" fill="none" stroke="white" stroke-width="1.5" d="M0,-3.0v7 M-2.5,-0.5L0,-3.0L2.5,-0.5"/>
  </g>
  <g id="arrowDown" transform="rotate(180) translate(-30 -48)">
    <use xlink:href="#rim"/>
    <path pointer-events="none" fill="none" stroke="white" stroke-width="1.5" d="M0,-3.0v7 M-2.5,-0.5L0,-3.0L2.5,-0.5"/>
  </g>
  <g id="arrowLeft" transform="rotate(270) translate(-36 17)">
    <use xlink:href="#rim"/>
    <path pointer-events="none" fill="none" stroke="white" stroke-width="1.5" d="M0,-3.0v7 M-2.5,-0.5L0,-3.0L2.5,-0.5"/>
  </g>
  <g id="resetDef">
    <use xlink:href="#rim2" fill="#404040"><set attributeName="fill" to="#808080" begin="reset.mouseover" end="reset.mouseout"/></use>
  </g>
</defs>
<script type="application/ecmascript">
var viewWidth = 1601;
var viewHeight = 423;
var sectionId = 'dynsection-0';
</script>
<script type="application/ecmascript" xlink:href="svg.min.js"/>
<svg id="graph" class="graph">
<g id="viewport">
<title>src/libuvgvpccenc/bitstreamGeneration/gof.cpp</title>
<!-- Node1 -->
<g id="Node000001" class="node">
<title>Node1</title>
<g id="a_Node000001"><a xlink:title=" ">
<polygon fill="#999999" stroke="#666666" points="1221,-415 1067,-415 1067,-385 1221,-385 1221,-415"/>
<text text-anchor="start" x="1075" y="-403" font-family="Helvetica,sans-Serif" font-size="10.00">src/libuvgvpccenc/bitstream</text>
<text text-anchor="middle" x="1144" y="-392" font-family="Helvetica,sans-Serif" font-size="10.00">Generation/gof.cpp</text>
</a>
</g>
</g>
<!-- Node2 -->
<g id="Node000002" class="node">
<title>Node2</title>
<g id="a_Node000002"><a xlink:href="gof_8hpp.html" target="_top" xlink:title=" ">
<polygon fill="white" stroke="#666666" points="866.5,-349 813.5,-349 813.5,-330 866.5,-330 866.5,-349"/>
<text text-anchor="middle" x="840" y="-337" font-family="Helvetica,sans-Serif" font-size="10.00">gof.hpp</text>
</a>
</g>
</g>
<!-- Node1&#45;&gt;Node2 -->
<g id="edge1_Node000001_Node000002" class="edge">
<title>Node1&#45;&gt;Node2</title>
<g id="a_edge1_Node000001_Node000002"><a xlink:title=" ">
<path fill="none" stroke="#63b8ff" d="M1071.18,-384.99C1009.82,-373.18 924.56,-356.77 876.58,-347.54"/>
<polygon fill="#63b8ff" stroke="#63b8ff" points="877.13,-344.08 866.65,-345.63 875.81,-350.96 877.13,-344.08"/>
</a>
</g>
</g>
<!-- Node3 -->
<g id="Node000003" class="node">
<title>Node3</title>
<g id="a_Node000003"><a xlink:title=" ">
<polygon fill="#e0e0e0" stroke="#999999" points="58,-129 0,-129 0,-110 58,-110 58,-129"/>
<text text-anchor="middle" x="29" y="-117" font-family="Helvetica,sans-Serif" font-size="10.00">memory</text>
</a>
</g>
</g>
<!-- Node1&#45;&gt;Node3 -->
<g id="edge62_Node000001_Node000003" class="edge">
<title>Node1&#45;&gt;Node3</title>
<g id="a_edge62_Node000001_Node000003"><a xlink:title=" ">
<path fill="none" stroke="#63b8ff" d="M1066.72,-398.23C841.74,-395.58 197.62,-384.91 110,-349 70.83,-332.94 39,-327.83 39,-285.5 39,-285.5 39,-285.5 39,-228.5 39,-197.06 34.75,-160.68 31.79,-139.19"/>
<polygon fill="#63b8ff" stroke="#63b8ff" points="35.23,-138.56 30.35,-129.15 28.3,-139.55 35.23,-138.56"/>
</a>
</g>
</g>
<!-- Node4 -->
<g id="Node000004" class="node">
<title>Node4</title>
<g id="a_Node000004"><a xlink:title=" ">
<polygon fill="#e0e0e0" stroke="#999999" points="1130.5,-129 1083.5,-129 1083.5,-110 1130.5,-110 1130.5,-129"/>
<text text-anchor="middle" x="1107" y="-117" font-family="Helvetica,sans-Serif" font-size="10.00">vector</text>
</a>
</g>
</g>
<!-- Node1&#45;&gt;Node4 -->
<g id="edge66_Node000001_Node000004" class="edge">
<title>Node1&#45;&gt;Node4</title>
<g id="a_edge66_Node000001_Node000004"><a xlink:title=" ">
<path fill="none" stroke="#63b8ff" d="M1126.37,-384.9C1103.92,-365.23 1068,-327.24 1068,-285.5 1068,-285.5 1068,-285.5 1068,-228.5 1068,-194.92 1084.88,-158.78 1096.43,-137.98"/>
<polygon fill="#63b8ff" stroke="#63b8ff" points="1099.6,-139.49 1101.58,-129.08 1093.54,-135.98 1099.6,-139.49"/>
</a>
</g>
</g>
<!-- Node8 -->
<g id="Node000008" class="node">
<title>Node8</title>
<g id="a_Node000008"><a xlink:href="bitstream__common_8hpp.html" target="_top" xlink:title=" ">
<polygon fill="white" stroke="#666666" points="1001.5,-184 868.5,-184 868.5,-165 1001.5,-165 1001.5,-184"/>
<text text-anchor="middle" x="935" y="-172" font-family="Helvetica,sans-Serif" font-size="10.00">bitstream_common.hpp</text>
</a>
</g>
</g>
<!-- Node1&#45;&gt;Node8 -->
<g id="edge67_Node000001_Node000008" class="edge">
<title>Node1&#45;&gt;Node8</title>
<g id="a_edge67_Node000001_Node000008"><a xlink:title=" ">
<path fill="none" stroke="#63b8ff" d="M1110.4,-384.93C1092.37,-376.31 1070.52,-364.04 1054,-349 1001.86,-301.54 960.69,-227.01 943.59,-193.21"/>
<polygon fill="#63b8ff" stroke="#63b8ff" points="946.65,-191.51 939.07,-184.11 940.38,-194.62 946.65,-191.51"/>
</a>
</g>
</g>
<!-- Node9 -->
<g id="Node000009" class="node">
<title>Node9</title>
<g id="a_Node000009"><a xlink:title=" ">
<polygon fill="#e0e0e0" stroke="#999999" points="1174,-74 1124,-74 1124,-55 1174,-55 1174,-74"/>
<text text-anchor="middle" x="1149" y="-62" font-family="Helvetica,sans-Serif" font-size="10.00">cstdint</text>
</a>
</g>
</g>
<!-- Node1&#45;&gt;Node9 -->
<g id="edge60_Node000001_Node000009" class="edge">
<title>Node1&#45;&gt;Node9</title>
<g id="a_edge60_Node000001_Node000009"><a xlink:title=" ">
<path fill="none" stroke="#63b8ff" d="M1221.06,-387.38C1315.74,-370.89 1464,-336.86 1464,-285.5 1464,-285.5 1464,-285.5 1464,-173.5 1464,-134.98 1438.86,-128.37 1405,-110 1333.74,-71.34 1236.37,-65.03 1184.66,-64.7"/>
<polygon fill="#63b8ff" stroke="#63b8ff" points="1184.35,-61.2 1174.35,-64.71 1184.35,-68.2 1184.35,-61.2"/>
</a>
</g>
</g>
<!-- Node10 -->
<g id="Node000010" class="node">
<title>Node10</title>
<g id="a_Node000010"><a xlink:href="uvgvpcc_8hpp.html" target="_top" xlink:title=" ">
<polygon fill="white" stroke="#666666" points="649,-184 527,-184 527,-165 649,-165 649,-184"/>
<text text-anchor="middle" x="588" y="-172" font-family="Helvetica,sans-Serif" font-size="10.00">uvgvpcc/uvgvpcc.hpp</text>
</a>
</g>
</g>
<!-- Node1&#45;&gt;Node10 -->
<g id="edge70_Node000001_Node000010" class="edge">
<title>Node1&#45;&gt;Node10</title>
<g id="a_edge70_Node000001_Node000010"><a xlink:title=" ">
<path fill="none" stroke="#63b8ff" d="M1066.87,-394.08C997.23,-388.13 892.57,-375.41 805,-349 749.99,-332.41 737.3,-323.51 688,-294 652.84,-272.96 639.13,-271.37 614,-239 603.61,-225.62 596.74,-207.51 592.69,-194.06"/>
<polygon fill="#63b8ff" stroke="#63b8ff" points="595.96,-192.77 589.93,-184.06 589.21,-194.63 595.96,-192.77"/>
</a>
</g>
</g>
<!-- Node24 -->
<g id="Node000024" class="node">
<title>Node24</title>
<g id="a_Node000024"><a xlink:href="log_8hpp.html" target="_top" xlink:title=" ">
<polygon fill="white" stroke="#666666" points="517.5,-74 464.5,-74 464.5,-55 517.5,-55 517.5,-74"/>
<text text-anchor="middle" x="491" y="-62" font-family="Helvetica,sans-Serif" font-size="10.00">log.hpp</text>
</a>
</g>
</g>
<!-- Node1&#45;&gt;Node24 -->
<g id="edge69_Node000001_Node000024" class="edge">
<title>Node1&#45;&gt;Node24</title>
<g id="a_edge69_Node000001_Node000024"><a xlink:title=" ">
<path fill="none" stroke="#63b8ff" d="M1066.92,-398.5C829.29,-395.93 124,-380.32 124,-285.5 124,-285.5 124,-285.5 124,-173.5 124,-144.04 120.54,-129.06 143,-110 189.28,-70.73 374.42,-65.63 454.16,-65.3"/>
<polygon fill="#63b8ff" stroke="#63b8ff" points="454.25,-68.8 464.24,-65.28 454.24,-61.8 454.25,-68.8"/>
</a>
</g>
</g>
<!-- Node28 -->
<g id="Node000028" class="node">
<title>Node28</title>
<g id="a_Node000028"><a xlink:href="bitstream__util_8hpp.html" target="_top" xlink:title=" ">
<polygon fill="white" stroke="#666666" points="1240,-184 1134,-184 1134,-165 1240,-165 1240,-184"/>
<text text-anchor="middle" x="1187" y="-172" font-family="Helvetica,sans-Serif" font-size="10.00">bitstream_util.hpp</text>
</a>
</g>
</g>
<!-- Node1&#45;&gt;Node28 -->
<g id="edge68_Node000001_Node000028" class="edge">
<title>Node1&#45;&gt;Node28</title>
<g id="a_edge68_Node000001_Node000028"><a xlink:title=" ">
<path fill="none" stroke="#63b8ff" d="M1148.46,-384.66C1151.44,-374.72 1155.29,-361.14 1158,-349 1170.43,-293.25 1180.17,-226.35 1184.53,-194.35"/>
<polygon fill="#63b8ff" stroke="#63b8ff" points="1188.02,-194.6 1185.88,-184.23 1181.08,-193.68 1188.02,-194.6"/>
</a>
</g>
</g>
<!-- Node29 -->
<g id="Node000029" class="node">
<title>Node29</title>
<g id="a_Node000029"><a xlink:title=" ">
<polygon fill="#e0e0e0" stroke="#999999" points="1396,-129 1346,-129 1346,-110 1396,-110 1396,-129"/>
<text text-anchor="middle" x="1371" y="-117" font-family="Helvetica,sans-Serif" font-size="10.00">cstring</text>
</a>
</g>
</g>
<!-- Node1&#45;&gt;Node29 -->
<g id="edge61_Node000001_Node000029" class="edge">
<title>Node1&#45;&gt;Node29</title>
<g id="a_edge61_Node000001_Node000029"><a xlink:title=" ">
<path fill="none" stroke="#63b8ff" d="M1215.53,-384.94C1299.07,-366.42 1426,-330.82 1426,-285.5 1426,-285.5 1426,-285.5 1426,-228.5 1426,-199.04 1420.75,-191.05 1407,-165 1401.63,-154.82 1393.76,-144.75 1386.74,-136.77"/>
<polygon fill="#63b8ff" stroke="#63b8ff" points="1389.22,-134.29 1379.88,-129.29 1384.06,-139.02 1389.22,-134.29"/>
</a>
</g>
</g>
<!-- Node31 -->
<g id="Node000031" class="node">
<title>Node31</title>
<g id="a_Node000031"><a xlink:title=" ">
<polygon fill="#e0e0e0" stroke="#999999" points="1213.5,-129 1148.5,-129 1148.5,-110 1213.5,-110 1213.5,-129"/>
<text text-anchor="middle" x="1181" y="-117" font-family="Helvetica,sans-Serif" font-size="10.00">stdexcept</text>
</a>
</g>
</g>
<!-- Node1&#45;&gt;Node31 -->
<g id="edge64_Node000001_Node000031" class="edge">
<title>Node1&#45;&gt;Node31</title>
<g id="a_edge64_Node000001_Node000031"><a xlink:title=" ">
<path fill="none" stroke="#63b8ff" d="M1138.15,-384.91C1123.38,-347.08 1088.33,-240.98 1125,-165 1131.22,-152.12 1143.18,-141.82 1154.46,-134.38"/>
<polygon fill="#63b8ff" stroke="#63b8ff" points="1156.51,-137.23 1163.23,-129.04 1152.87,-131.25 1156.51,-137.23"/>
</a>
</g>
</g>
<!-- Node32 -->
<g id="Node000032" class="node">
<title>Node32</title>
<g id="a_Node000032"><a xlink:href="video__sub__bitstream_8hpp.html" target="_top" xlink:title=" ">
<polygon fill="white" stroke="#666666" points="1398,-184 1258,-184 1258,-165 1398,-165 1398,-184"/>
<text text-anchor="middle" x="1328" y="-172" font-family="Helvetica,sans-Serif" font-size="10.00">video_sub_bitstream.hpp</text>
</a>
</g>
</g>
<!-- Node1&#45;&gt;Node32 -->
<g id="edge71_Node000001_Node000032" class="edge">
<title>Node1&#45;&gt;Node32</title>
<g id="a_edge71_Node000001_Node000032"><a xlink:title=" ">
<path fill="none" stroke="#63b8ff" d="M1155.79,-384.68C1188.37,-345.1 1279.52,-234.38 1314.29,-192.15"/>
<polygon fill="#63b8ff" stroke="#63b8ff" points="1317.16,-194.18 1320.81,-184.23 1311.75,-189.73 1317.16,-194.18"/>
</a>
</g>
</g>
<!-- Node34 -->
<g id="Node000034" class="node">
<title>Node34</title>
<g id="a_Node000034"><a xlink:title=" ">
<polygon fill="#e0e0e0" stroke="#999999" points="1529.5,-349 1492.5,-349 1492.5,-330 1529.5,-330 1529.5,-349"/>
<text text-anchor="middle" x="1511" y="-337" font-family="Helvetica,sans-Serif" font-size="10.00">new</text>
</a>
</g>
</g>
<!-- Node1&#45;&gt;Node34 -->
<g id="edge63_Node000001_Node000034" class="edge">
<title>Node1&#45;&gt;Node34</title>
<g id="a_edge63_Node000001_Node000034"><a xlink:title=" ">
<path fill="none" stroke="#63b8ff" d="M1221,-389.77C1288.96,-381.08 1390.52,-366.77 1478,-349 1479.45,-348.71 1480.93,-348.39 1482.42,-348.05"/>
<polygon fill="#63b8ff" stroke="#63b8ff" points="1483.33,-351.44 1492.23,-345.69 1481.69,-344.63 1483.33,-351.44"/>
</a>
</g>
</g>
<!-- Node35 -->
<g id="Node000035" class="node">
<title>Node35</title>
<g id="a_Node000035"><a xlink:title=" ">
<polygon fill="#e0e0e0" stroke="#999999" points="1592.5,-349 1547.5,-349 1547.5,-330 1592.5,-330 1592.5,-349"/>
<text text-anchor="middle" x="1570" y="-337" font-family="Helvetica,sans-Serif" font-size="10.00">utility</text>
</a>
</g>
</g>
<!-- Node1&#45;&gt;Node35 -->
<g id="edge65_Node000001_Node000035" class="edge">
<title>Node1&#45;&gt;Node35</title>
<g id="a_edge65_Node000001_Node000035"><a xlink:title=" ">
<path fill="none" stroke="#63b8ff" d="M1221.35,-392.48C1299.1,-385.18 1422.46,-371.59 1537.38,-349.08"/>
<polygon fill="#63b8ff" stroke="#63b8ff" points="1538.27,-352.47 1547.4,-347.09 1536.91,-345.61 1538.27,-352.47"/>
</a>
</g>
</g>
<!-- Node2&#45;&gt;Node3 -->
<g id="edge2_Node000002_Node000003" class="edge">
<title>Node2&#45;&gt;Node3</title>
<g id="a_edge2_Node000002_Node000003"><a xlink:title=" ">
<path fill="none" stroke="#63b8ff" d="M813.48,-331.37C694.56,-299.41 210.16,-169.2 68.25,-131.05"/>
<polygon fill="#63b8ff" stroke="#63b8ff" points="68.81,-127.58 58.25,-128.36 67,-134.34 68.81,-127.58"/>
</a>
</g>
</g>
<!-- Node2&#45;&gt;Node4 -->
<g id="edge3_Node000002_Node000004" class="edge">
<title>Node2&#45;&gt;Node4</title>
<g id="a_edge3_Node000002_Node000004"><a xlink:title=" ">
<path fill="none" stroke="#63b8ff" d="M852.34,-329.88C864.8,-321.09 884.5,-306.95 901,-294 970.97,-239.09 985.94,-222.26 1054,-165 1065.64,-155.21 1078.72,-144.22 1088.98,-135.62"/>
<polygon fill="#63b8ff" stroke="#63b8ff" points="1091.42,-138.13 1096.83,-129.02 1086.92,-132.77 1091.42,-138.13"/>
</a>
</g>
</g>
<!-- Node5 -->
<g id="Node000005" class="node">
<title>Node5</title>
<g id="a_Node000005"><a xlink:href="atlas__context_8hpp.html" target="_top" xlink:title=" ">
<polygon fill="white" stroke="#666666" points="892,-294 788,-294 788,-275 892,-275 892,-294"/>
<text text-anchor="middle" x="840" y="-282" font-family="Helvetica,sans-Serif" font-size="10.00">atlas_context.hpp</text>
</a>
</g>
</g>
<!-- Node2&#45;&gt;Node5 -->
<g id="edge4_Node000002_Node000005" class="edge">
<title>Node2&#45;&gt;Node5</title>
<g id="a_edge4_Node000002_Node000005"><a xlink:title=" ">
<path fill="none" stroke="#63b8ff" d="M840,-329.75C840,-322.8 840,-312.85 840,-304.13"/>
<polygon fill="#63b8ff" stroke="#63b8ff" points="843.5,-304.09 840,-294.09 836.5,-304.09 843.5,-304.09"/>
</a>
</g>
</g>
<!-- Node2&#45;&gt;Node10 -->
<g id="edge50_Node000002_Node000010" class="edge">
<title>Node2&#45;&gt;Node10</title>
<g id="a_edge50_Node000002_Node000010"><a xlink:title=" ">
<path fill="none" stroke="#63b8ff" d="M813.99,-329.94C773.36,-315.7 693.75,-284.15 638,-239 621.88,-225.94 607.7,-206.78 598.59,-192.93"/>
<polygon fill="#63b8ff" stroke="#63b8ff" points="601.45,-190.9 593.14,-184.32 595.54,-194.64 601.45,-190.9"/>
</a>
</g>
</g>
<!-- Node2&#45;&gt;Node32 -->
<g id="edge51_Node000002_Node000032" class="edge">
<title>Node2&#45;&gt;Node32</title>
<g id="a_edge51_Node000002_Node000032"><a xlink:title=" ">
<path fill="none" stroke="#63b8ff" d="M865.55,-329.97C946.82,-302.82 1199.48,-218.43 1292.85,-187.24"/>
<polygon fill="#63b8ff" stroke="#63b8ff" points="1294.03,-190.54 1302.41,-184.05 1291.82,-183.9 1294.03,-190.54"/>
</a>
</g>
</g>
<!-- Node33 -->
<g id="Node000033" class="node">
<title>Node33</title>
<g id="a_Node000033"><a xlink:href="vps_8hpp.html" target="_top" xlink:title=" ">
<polygon fill="white" stroke="#666666" points="735.5,-239 680.5,-239 680.5,-220 735.5,-220 735.5,-239"/>
<text text-anchor="middle" x="708" y="-227" font-family="Helvetica,sans-Serif" font-size="10.00">vps.hpp</text>
</a>
</g>
</g>
<!-- Node2&#45;&gt;Node33 -->
<g id="edge55_Node000002_Node000033" class="edge">
<title>Node2&#45;&gt;Node33</title>
<g id="a_edge55_Node000002_Node000033"><a xlink:title=" ">
<path fill="none" stroke="#63b8ff" d="M827.58,-329.98C815.06,-321.27 795.31,-307.19 779,-294 759.65,-278.35 738.52,-259.16 724.38,-246"/>
<polygon fill="#63b8ff" stroke="#63b8ff" points="726.63,-243.3 716.94,-239.02 721.84,-248.41 726.63,-243.3"/>
</a>
</g>
</g>
<!-- Node6 -->
<g id="Node000006" class="node">
<title>Node6</title>
<g id="a_Node000006"><a xlink:href="atlas__frame_8hpp.html" target="_top" xlink:title=" ">
<polygon fill="white" stroke="#666666" points="888,-239 792,-239 792,-220 888,-220 888,-239"/>
<text text-anchor="middle" x="840" y="-227" font-family="Helvetica,sans-Serif" font-size="10.00">atlas_frame.hpp</text>
</a>
</g>
</g>
<!-- Node5&#45;&gt;Node6 -->
<g id="edge5_Node000005_Node000006" class="edge">
<title>Node5&#45;&gt;Node6</title>
<g id="a_edge5_Node000005_Node000006"><a xlink:title=" ">
<path fill="none" stroke="#63b8ff" d="M840,-274.75C840,-267.8 840,-257.85 840,-249.13"/>
<polygon fill="#63b8ff" stroke="#63b8ff" points="843.5,-249.09 840,-239.09 836.5,-249.09 843.5,-249.09"/>
</a>
</g>
</g>
<!-- Node5&#45;&gt;Node8 -->
<g id="edge37_Node000005_Node000008" class="edge">
<title>Node5&#45;&gt;Node8</title>
<g id="a_edge37_Node000005_Node000008"><a xlink:title=" ">
<path fill="none" stroke="#63b8ff" d="M853.84,-274.84C866.17,-266.65 884.2,-253.49 897,-239 909.2,-225.19 919.66,-206.92 926.5,-193.52"/>
<polygon fill="#63b8ff" stroke="#63b8ff" points="929.72,-194.9 930.99,-184.38 923.44,-191.81 929.72,-194.9"/>
</a>
</g>
</g>
<!-- Node5&#45;&gt;Node10 -->
<g id="edge49_Node000005_Node000010" class="edge">
<title>Node5&#45;&gt;Node10</title>
<g id="a_edge49_Node000005_Node000010"><a xlink:title=" ">
<path fill="none" stroke="#63b8ff" d="M787.81,-275.1C753.67,-268.32 708.76,-256.9 672,-239 646.25,-226.46 620.55,-205.48 604.49,-191.09"/>
<polygon fill="#63b8ff" stroke="#63b8ff" points="606.76,-188.42 597.02,-184.25 602.03,-193.59 606.76,-188.42"/>
</a>
</g>
</g>
<!-- Node5&#45;&gt;Node28 -->
<g id="edge38_Node000005_Node000028" class="edge">
<title>Node5&#45;&gt;Node28</title>
<g id="a_edge38_Node000005_Node000028"><a xlink:title=" ">
<path fill="none" stroke="#63b8ff" d="M867.52,-274.94C929.4,-255.68 1079.57,-208.94 1149.73,-187.1"/>
<polygon fill="#63b8ff" stroke="#63b8ff" points="1150.97,-190.38 1159.48,-184.07 1148.89,-183.7 1150.97,-190.38"/>
</a>
</g>
</g>
<!-- Node30 -->
<g id="Node000030" class="node">
<title>Node30</title>
<g id="a_Node000030"><a xlink:href="parameters_8hpp.html" target="_top" xlink:title=" ">
<polygon fill="white" stroke="#666666" points="785,-184 667,-184 667,-165 785,-165 785,-184"/>
<text text-anchor="middle" x="726" y="-172" font-family="Helvetica,sans-Serif" font-size="10.00">utils/parameters.hpp</text>
</a>
</g>
</g>
<!-- Node5&#45;&gt;Node30 -->
<g id="edge43_Node000005_Node000030" class="edge">
<title>Node5&#45;&gt;Node30</title>
<g id="a_edge43_Node000005_Node000030"><a xlink:title=" ">
<path fill="none" stroke="#63b8ff" d="M827.71,-274.88C815.81,-266.31 797.5,-252.54 783,-239 767.01,-224.07 750.5,-205.24 739.4,-191.97"/>
<polygon fill="#63b8ff" stroke="#63b8ff" points="742,-189.63 732.93,-184.16 736.61,-194.09 742,-189.63"/>
</a>
</g>
</g>
<!-- Node7 -->
<g id="Node000007" class="node">
<title>Node7</title>
<g id="a_Node000007"><a xlink:title=" ">
<polygon fill="#e0e0e0" stroke="#999999" points="850.5,-184 803.5,-184 803.5,-165 850.5,-165 850.5,-184"/>
<text text-anchor="middle" x="827" y="-172" font-family="Helvetica,sans-Serif" font-size="10.00">cmath</text>
</a>
</g>
</g>
<!-- Node6&#45;&gt;Node7 -->
<g id="edge6_Node000006_Node000007" class="edge">
<title>Node6&#45;&gt;Node7</title>
<g id="a_edge6_Node000006_Node000007"><a xlink:title=" ">
<path fill="none" stroke="#63b8ff" d="M837.85,-219.75C836.13,-212.72 833.65,-202.62 831.5,-193.84"/>
<polygon fill="#63b8ff" stroke="#63b8ff" points="834.89,-192.97 829.11,-184.09 828.09,-194.63 834.89,-192.97"/>
</a>
</g>
</g>
<!-- Node6&#45;&gt;Node8 -->
<g id="edge7_Node000006_Node000008" class="edge">
<title>Node6&#45;&gt;Node8</title>
<g id="a_edge7_Node000006_Node000008"><a xlink:title=" ">
<path fill="none" stroke="#63b8ff" d="M855.26,-219.98C870.13,-211.69 892.98,-198.94 910.42,-189.22"/>
<polygon fill="#63b8ff" stroke="#63b8ff" points="912.43,-192.1 919.46,-184.17 909.02,-185.99 912.43,-192.1"/>
</a>
</g>
</g>
<!-- Node6&#45;&gt;Node10 -->
<g id="edge9_Node000006_Node000010" class="edge">
<title>Node6&#45;&gt;Node10</title>
<g id="a_edge9_Node000006_Node000010"><a xlink:title=" ">
<path fill="none" stroke="#63b8ff" d="M799.51,-219.98C755.83,-210.8 686.19,-196.15 638.85,-186.19"/>
<polygon fill="#63b8ff" stroke="#63b8ff" points="639.31,-182.72 628.81,-184.08 637.87,-189.57 639.31,-182.72"/>
</a>
</g>
</g>
<!-- Node8&#45;&gt;Node9 -->
<g id="edge8_Node000008_Node000009" class="edge">
<title>Node8&#45;&gt;Node9</title>
<g id="a_edge8_Node000008_Node000009"><a xlink:title=" ">
<path fill="none" stroke="#63b8ff" d="M956.17,-164.88C976.79,-156.31 1008.92,-142.53 1036,-129 1067.7,-113.15 1103.17,-92.77 1125.77,-79.43"/>
<polygon fill="#63b8ff" stroke="#63b8ff" points="1127.8,-82.29 1134.62,-74.18 1124.23,-76.27 1127.8,-82.29"/>
</a>
</g>
</g>
<!-- Node10&#45;&gt;Node3 -->
<g id="edge15_Node000010_Node000003" class="edge">
<title>Node10&#45;&gt;Node3</title>
<g id="a_edge15_Node000010_Node000003"><a xlink:title=" ">
<path fill="none" stroke="#63b8ff" d="M526.99,-170.4C430.18,-164.99 235.59,-152.15 72,-129 70.73,-128.82 69.44,-128.63 68.14,-128.42"/>
<polygon fill="#63b8ff" stroke="#63b8ff" points="68.52,-124.94 58.07,-126.69 67.33,-131.84 68.52,-124.94"/>
</a>
</g>
</g>
<!-- Node10&#45;&gt;Node4 -->
<g id="edge20_Node000010_Node000004" class="edge">
<title>Node10&#45;&gt;Node4</title>
<g id="a_edge20_Node000010_Node000004"><a xlink:title=" ">
<path fill="none" stroke="#63b8ff" d="M649.07,-165.99C652.09,-165.65 655.08,-165.32 658,-165 825.78,-146.83 868.21,-147.03 1036,-129 1048.1,-127.7 1061.34,-126.15 1073.07,-124.73"/>
<polygon fill="#63b8ff" stroke="#63b8ff" points="1073.85,-128.16 1083.35,-123.48 1073,-121.21 1073.85,-128.16"/>
</a>
</g>
</g>
<!-- Node10&#45;&gt;Node9 -->
<g id="edge13_Node000010_Node000009" class="edge">
<title>Node10&#45;&gt;Node9</title>
<g id="a_edge13_Node000010_Node000009"><a xlink:title=" ">
<path fill="none" stroke="#63b8ff" d="M636.19,-164.96C685.45,-156.18 764.12,-141.99 832,-129 934.71,-109.35 1055.83,-84.67 1114.15,-72.69"/>
<polygon fill="#63b8ff" stroke="#63b8ff" points="1114.87,-76.11 1123.96,-70.67 1113.46,-69.25 1114.87,-76.11"/>
</a>
</g>
</g>
<!-- Node11 -->
<g id="Node000011" class="node">
<title>Node11</title>
<g id="a_Node000011"><a xlink:title=" ">
<polygon fill="#e0e0e0" stroke="#999999" points="652,-74 610,-74 610,-55 652,-55 652,-74"/>
<text text-anchor="middle" x="631" y="-62" font-family="Helvetica,sans-Serif" font-size="10.00">array</text>
</a>
</g>
</g>
<!-- Node10&#45;&gt;Node11 -->
<g id="edge10_Node000010_Node000011" class="edge">
<title>Node10&#45;&gt;Node11</title>
<g id="a_edge10_Node000010_Node000011"><a xlink:title=" ">
<path fill="none" stroke="#63b8ff" d="M526.68,-173.55C447.33,-172.16 315.59,-164.41 285,-129 279.48,-122.61 279.38,-116.3 285,-110 330.18,-59.38 515.92,-85.38 599.85,-73.64"/>
<polygon fill="#63b8ff" stroke="#63b8ff" points="600.52,-77.08 609.8,-71.97 599.36,-70.18 600.52,-77.08"/>
</a>
</g>
</g>
<!-- Node12 -->
<g id="Node000012" class="node">
<title>Node12</title>
<g id="a_Node000012"><a xlink:title=" ">
<polygon fill="#e0e0e0" stroke="#999999" points="1027,-129 975,-129 975,-110 1027,-110 1027,-129"/>
<text text-anchor="middle" x="1001" y="-117" font-family="Helvetica,sans-Serif" font-size="10.00">cassert</text>
</a>
</g>
</g>
<!-- Node10&#45;&gt;Node12 -->
<g id="edge11_Node000010_Node000012" class="edge">
<title>Node10&#45;&gt;Node12</title>
<g id="a_edge11_Node000010_Node000012"><a xlink:title=" ">
<path fill="none" stroke="#63b8ff" d="M649.38,-165.62C736.59,-154.43 893.6,-134.28 964.5,-125.18"/>
<polygon fill="#63b8ff" stroke="#63b8ff" points="965.25,-128.62 974.72,-123.87 964.35,-121.67 965.25,-128.62"/>
</a>
</g>
</g>
<!-- Node13 -->
<g id="Node000013" class="node">
<title>Node13</title>
<g id="a_Node000013"><a xlink:title=" ">
<polygon fill="#e0e0e0" stroke="#999999" points="876.5,-74 823.5,-74 823.5,-55 876.5,-55 876.5,-74"/>
<text text-anchor="middle" x="850" y="-62" font-family="Helvetica,sans-Serif" font-size="10.00">cstddef</text>
</a>
</g>
</g>
<!-- Node10&#45;&gt;Node13 -->
<g id="edge12_Node000010_Node000013" class="edge">
<title>Node10&#45;&gt;Node13</title>
<g id="a_edge12_Node000010_Node000013"><a xlink:title=" ">
<path fill="none" stroke="#63b8ff" d="M641.41,-164.98C702.31,-154.92 795.25,-138.37 809,-129 825.23,-117.94 836.5,-98.11 843.06,-83.54"/>
<polygon fill="#63b8ff" stroke="#63b8ff" points="846.39,-84.64 847,-74.06 839.93,-81.95 846.39,-84.64"/>
</a>
</g>
</g>
<!-- Node14 -->
<g id="Node000014" class="node">
<title>Node14</title>
<g id="a_Node000014"><a xlink:title=" ">
<polygon fill="#e0e0e0" stroke="#999999" points="254,-19 194,-19 194,0 254,0 254,-19"/>
<text text-anchor="middle" x="224" y="-7" font-family="Helvetica,sans-Serif" font-size="10.00">iostream</text>
</a>
</g>
</g>
<!-- Node10&#45;&gt;Node14 -->
<g id="edge14_Node000010_Node000014" class="edge">
<title>Node10&#45;&gt;Node14</title>
<g id="a_edge14_Node000010_Node000014"><a xlink:title=" ">
<path fill="none" stroke="#63b8ff" d="M526.78,-171.85C410.79,-168.08 168.27,-156.92 143,-129 111.99,-94.74 168.4,-47.94 201.86,-24.74"/>
<polygon fill="#63b8ff" stroke="#63b8ff" points="203.87,-27.61 210.2,-19.11 199.95,-21.8 203.87,-27.61"/>
</a>
</g>
</g>
<!-- Node15 -->
<g id="Node000015" class="node">
<title>Node15</title>
<g id="a_Node000015"><a xlink:title=" ">
<polygon fill="#e0e0e0" stroke="#999999" points="199.5,-129 152.5,-129 152.5,-110 199.5,-110 199.5,-129"/>
<text text-anchor="middle" x="176" y="-117" font-family="Helvetica,sans-Serif" font-size="10.00">queue</text>
</a>
</g>
</g>
<!-- Node10&#45;&gt;Node15 -->
<g id="edge16_Node000010_Node000015" class="edge">
<title>Node10&#45;&gt;Node15</title>
<g id="a_edge16_Node000010_Node000015"><a xlink:title=" ">
<path fill="none" stroke="#63b8ff" d="M526.83,-168.15C452.55,-161.2 323.57,-147.72 214,-129 212.54,-128.75 211.06,-128.48 209.56,-128.2"/>
<polygon fill="#63b8ff" stroke="#63b8ff" points="210.14,-124.75 199.64,-126.18 208.74,-131.61 210.14,-124.75"/>
</a>
</g>
</g>
<!-- Node16 -->
<g id="Node000016" class="node">
<title>Node16</title>
<g id="a_Node000016"><a xlink:title=" ">
<polygon fill="#e0e0e0" stroke="#999999" points="365.5,-129 294.5,-129 294.5,-110 365.5,-110 365.5,-129"/>
<text text-anchor="middle" x="330" y="-117" font-family="Helvetica,sans-Serif" font-size="10.00">semaphore</text>
</a>
</g>
</g>
<!-- Node10&#45;&gt;Node16 -->
<g id="edge17_Node000010_Node000016" class="edge">
<title>Node10&#45;&gt;Node16</title>
<g id="a_edge17_Node000010_Node000016"><a xlink:title=" ">
<path fill="none" stroke="#63b8ff" d="M546.55,-164.98C499.74,-155.37 423.81,-139.77 375.42,-129.83"/>
<polygon fill="#63b8ff" stroke="#63b8ff" points="376.04,-126.38 365.54,-127.8 374.63,-133.24 376.04,-126.38"/>
</a>
</g>
</g>
<!-- Node17 -->
<g id="Node000017" class="node">
<title>Node17</title>
<g id="a_Node000017"><a xlink:title=" ">
<polygon fill="#e0e0e0" stroke="#999999" points="592,-74 536,-74 536,-55 592,-55 592,-74"/>
<text text-anchor="middle" x="564" y="-62" font-family="Helvetica,sans-Serif" font-size="10.00">sstream</text>
</a>
</g>
</g>
<!-- Node10&#45;&gt;Node17 -->
<g id="edge18_Node000010_Node000017" class="edge">
<title>Node10&#45;&gt;Node17</title>
<g id="a_edge18_Node000010_Node000017"><a xlink:title=" ">
<path fill="none" stroke="#63b8ff" d="M526.7,-169.7C434.71,-163.36 269.79,-149.3 252,-129 246.43,-122.65 246.43,-116.35 252,-110 292.5,-63.83 465.53,-84.71 526,-74 526.1,-73.98 526.2,-73.96 526.3,-73.95"/>
<polygon fill="#63b8ff" stroke="#63b8ff" points="526.69,-77.44 535.83,-72.09 525.35,-70.57 526.69,-77.44"/>
</a>
</g>
</g>
<!-- Node18 -->
<g id="Node000018" class="node">
<title>Node18</title>
<g id="a_Node000018"><a xlink:title=" ">
<polygon fill="#e0e0e0" stroke="#999999" points="969,-19 925,-19 925,0 969,0 969,-19"/>
<text text-anchor="middle" x="947" y="-7" font-family="Helvetica,sans-Serif" font-size="10.00">string</text>
</a>
</g>
</g>
<!-- Node10&#45;&gt;Node18 -->
<g id="edge19_Node000010_Node000018" class="edge">
<title>Node10&#45;&gt;Node18</title>
<g id="a_edge19_Node000010_Node000018"><a xlink:title=" ">
<path fill="none" stroke="#63b8ff" d="M647.3,-164.93C694.58,-157.12 756.05,-144.46 776,-129 805.39,-106.23 786.7,-79.1 815,-55 843.53,-30.7 885.89,-19.51 914.88,-14.47"/>
<polygon fill="#63b8ff" stroke="#63b8ff" points="915.58,-17.9 924.91,-12.87 914.48,-10.99 915.58,-17.9"/>
</a>
</g>
</g>
<!-- Node19 -->
<g id="Node000019" class="node">
<title>Node19</title>
<g id="a_Node000019"><a xlink:title=" ">
<polygon fill="#e0e0e0" stroke="#999999" points="510.5,-129 383.5,-129 383.5,-110 510.5,-110 510.5,-129"/>
<text text-anchor="middle" x="447" y="-117" font-family="Helvetica,sans-Serif" font-size="10.00">../utils/parameters.hpp</text>
</a>
</g>
</g>
<!-- Node10&#45;&gt;Node19 -->
<g id="edge21_Node000010_Node000019" class="edge">
<title>Node10&#45;&gt;Node19</title>
<g id="a_edge21_Node000010_Node000019"><a xlink:title=" ">
<path fill="none" stroke="#63b8ff" d="M565.35,-164.98C542.15,-156.27 505.88,-142.63 479.6,-132.75"/>
<polygon fill="#63b8ff" stroke="#63b8ff" points="480.66,-129.41 470.07,-129.17 478.2,-135.97 480.66,-129.41"/>
</a>
</g>
</g>
<!-- Node20 -->
<g id="Node000020" class="node">
<title>Node20</title>
<g id="a_Node000020"><a xlink:title=" ">
<polygon fill="#e0e0e0" stroke="#999999" points="647,-129 529,-129 529,-110 647,-110 647,-129"/>
<text text-anchor="middle" x="588" y="-117" font-family="Helvetica,sans-Serif" font-size="10.00">../utils/constants.hpp</text>
</a>
</g>
</g>
<!-- Node10&#45;&gt;Node20 -->
<g id="edge22_Node000010_Node000020" class="edge">
<title>Node10&#45;&gt;Node20</title>
<g id="a_edge22_Node000010_Node000020"><a xlink:title=" ">
<path fill="none" stroke="#63b8ff" d="M588,-164.75C588,-157.8 588,-147.85 588,-139.13"/>
<polygon fill="#63b8ff" stroke="#63b8ff" points="591.5,-139.09 588,-129.09 584.5,-139.09 591.5,-139.09"/>
</a>
</g>
</g>
<!-- Node21 -->
<g id="Node000021" class="node">
<title>Node21</title>
<g id="a_Node000021"><a xlink:href="utils_8hpp.html" target="_top" xlink:title=" ">
<polygon fill="white" stroke="#666666" points="766.5,-129 665.5,-129 665.5,-110 766.5,-110 766.5,-129"/>
<text text-anchor="middle" x="716" y="-117" font-family="Helvetica,sans-Serif" font-size="10.00">uvgutils/utils.hpp</text>
</a>
</g>
</g>
<!-- Node10&#45;&gt;Node21 -->
<g id="edge23_Node000010_Node000021" class="edge">
<title>Node10&#45;&gt;Node21</title>
<g id="a_edge23_Node000010_Node000021"><a xlink:title=" ">
<path fill="none" stroke="#63b8ff" d="M608.57,-164.98C629.43,-156.34 661.97,-142.87 685.77,-133.02"/>
<polygon fill="#63b8ff" stroke="#63b8ff" points="687.16,-136.23 695.06,-129.17 684.48,-129.76 687.16,-136.23"/>
</a>
</g>
</g>
<!-- Node21&#45;&gt;Node9 -->
<g id="edge26_Node000021_Node000009" class="edge">
<title>Node21&#45;&gt;Node9</title>
<g id="a_edge26_Node000021_Node000009"><a xlink:title=" ">
<path fill="none" stroke="#63b8ff" d="M766.52,-112.32C855.37,-101.44 1037.42,-79.16 1113.92,-69.79"/>
<polygon fill="#63b8ff" stroke="#63b8ff" points="1114.49,-73.25 1123.99,-68.56 1113.64,-66.3 1114.49,-73.25"/>
</a>
</g>
</g>
<!-- Node21&#45;&gt;Node11 -->
<g id="edge24_Node000021_Node000011" class="edge">
<title>Node21&#45;&gt;Node11</title>
<g id="a_edge24_Node000021_Node000011"><a xlink:title=" ">
<path fill="none" stroke="#63b8ff" d="M702.34,-109.98C689.16,-101.77 668.97,-89.18 653.43,-79.49"/>
<polygon fill="#63b8ff" stroke="#63b8ff" points="655.24,-76.49 644.91,-74.17 651.54,-82.43 655.24,-76.49"/>
</a>
</g>
</g>
<!-- Node21&#45;&gt;Node13 -->
<g id="edge25_Node000021_Node000013" class="edge">
<title>Node21&#45;&gt;Node13</title>
<g id="a_edge25_Node000021_Node000013"><a xlink:title=" ">
<path fill="none" stroke="#63b8ff" d="M737.53,-109.98C759.47,-101.3 793.74,-87.75 818.69,-77.88"/>
<polygon fill="#63b8ff" stroke="#63b8ff" points="820.07,-81.1 828.08,-74.17 817.49,-74.59 820.07,-81.1"/>
</a>
</g>
</g>
<!-- Node21&#45;&gt;Node17 -->
<g id="edge29_Node000021_Node000017" class="edge">
<title>Node21&#45;&gt;Node17</title>
<g id="a_edge29_Node000021_Node000017"><a xlink:title=" ">
<path fill="none" stroke="#63b8ff" d="M691.58,-109.98C666.28,-101.16 626.55,-87.31 598.14,-77.41"/>
<polygon fill="#63b8ff" stroke="#63b8ff" points="599.21,-74.07 588.61,-74.08 596.9,-80.68 599.21,-74.07"/>
</a>
</g>
</g>
<!-- Node22 -->
<g id="Node000022" class="node">
<title>Node22</title>
<g id="a_Node000022"><a xlink:title=" ">
<polygon fill="#e0e0e0" stroke="#999999" points="682,-19 626,-19 626,0 682,0 682,-19"/>
<text text-anchor="middle" x="654" y="-7" font-family="Helvetica,sans-Serif" font-size="10.00">iomanip</text>
</a>
</g>
</g>
<!-- Node21&#45;&gt;Node22 -->
<g id="edge27_Node000021_Node000022" class="edge">
<title>Node21&#45;&gt;Node22</title>
<g id="a_edge27_Node000021_Node000022"><a xlink:title=" ">
<path fill="none" stroke="#63b8ff" d="M710.93,-109.66C700.7,-91.85 677.46,-51.37 664.05,-28.01"/>
<polygon fill="#63b8ff" stroke="#63b8ff" points="666.98,-26.09 658.97,-19.16 660.91,-29.57 666.98,-26.09"/>
</a>
</g>
</g>
<!-- Node23 -->
<g id="Node000023" class="node">
<title>Node23</title>
<g id="a_Node000023"><a xlink:title=" ">
<polygon fill="#e0e0e0" stroke="#999999" points="752,-74 708,-74 708,-55 752,-55 752,-74"/>
<text text-anchor="middle" x="730" y="-62" font-family="Helvetica,sans-Serif" font-size="10.00">limits</text>
</a>
</g>
</g>
<!-- Node21&#45;&gt;Node23 -->
<g id="edge28_Node000021_Node000023" class="edge">
<title>Node21&#45;&gt;Node23</title>
<g id="a_edge28_Node000021_Node000023"><a xlink:title=" ">
<path fill="none" stroke="#63b8ff" d="M718.31,-109.75C720.17,-102.72 722.84,-92.62 725.15,-83.84"/>
<polygon fill="#63b8ff" stroke="#63b8ff" points="728.56,-84.65 727.73,-74.09 721.79,-82.86 728.56,-84.65"/>
</a>
</g>
</g>
<!-- Node21&#45;&gt;Node24 -->
<g id="edge30_Node000021_Node000024" class="edge">
<title>Node21&#45;&gt;Node24</title>
<g id="a_edge30_Node000021_Node000024"><a xlink:title=" ">
<path fill="none" stroke="#63b8ff" d="M679.77,-109.98C643.73,-101.5 586.58,-88.05 527.6,-74.14"/>
<polygon fill="#63b8ff" stroke="#63b8ff" points="528.27,-70.7 517.74,-71.81 526.67,-77.52 528.27,-70.7"/>
</a>
</g>
</g>
<!-- Node24&#45;&gt;Node14 -->
<g id="edge34_Node000024_Node000014" class="edge">
<title>Node24&#45;&gt;Node14</title>
<g id="a_edge34_Node000024_Node000014"><a xlink:title=" ">
<path fill="none" stroke="#63b8ff" d="M464.42,-58.22C417.46,-48.9 319.54,-29.47 264.26,-18.49"/>
<polygon fill="#63b8ff" stroke="#63b8ff" points="264.61,-14.99 254.12,-16.48 263.25,-21.86 264.61,-14.99"/>
</a>
</g>
</g>
<!-- Node24&#45;&gt;Node18 -->
<g id="edge36_Node000024_Node000018" class="edge">
<title>Node24&#45;&gt;Node18</title>
<g id="a_edge36_Node000024_Node000018"><a xlink:title=" ">
<path fill="none" stroke="#63b8ff" d="M517.66,-56.81C520.8,-56.14 523.96,-55.52 527,-55 670.35,-30.58 843.66,-17.29 914.47,-12.54"/>
<polygon fill="#63b8ff" stroke="#63b8ff" points="914.8,-16.03 924.55,-11.88 914.34,-9.04 914.8,-16.03"/>
</a>
</g>
</g>
<!-- Node24&#45;&gt;Node22 -->
<g id="edge33_Node000024_Node000022" class="edge">
<title>Node24&#45;&gt;Node22</title>
<g id="a_edge33_Node000024_Node000022"><a xlink:title=" ">
<path fill="none" stroke="#63b8ff" d="M517.19,-54.98C544.44,-46.13 587.3,-32.19 617.78,-22.28"/>
<polygon fill="#63b8ff" stroke="#63b8ff" points="619.18,-25.5 627.61,-19.08 617.01,-18.85 619.18,-25.5"/>
</a>
</g>
</g>
<!-- Node25 -->
<g id="Node000025" class="node">
<title>Node25</title>
<g id="a_Node000025"><a xlink:title=" ">
<polygon fill="#e0e0e0" stroke="#999999" points="583,-19 533,-19 533,0 583,0 583,-19"/>
<text text-anchor="middle" x="558" y="-7" font-family="Helvetica,sans-Serif" font-size="10.00">chrono</text>
</a>
</g>
</g>
<!-- Node24&#45;&gt;Node25 -->
<g id="edge31_Node000024_Node000025" class="edge">
<title>Node24&#45;&gt;Node25</title>
<g id="a_edge31_Node000024_Node000025"><a xlink:title=" ">
<path fill="none" stroke="#63b8ff" d="M501.76,-54.98C511.77,-47.07 526.89,-35.11 538.93,-25.58"/>
<polygon fill="#63b8ff" stroke="#63b8ff" points="541.37,-28.12 547.04,-19.17 537.03,-22.63 541.37,-28.12"/>
</a>
</g>
</g>
<!-- Node26 -->
<g id="Node000026" class="node">
<title>Node26</title>
<g id="a_Node000026"><a xlink:title=" ">
<polygon fill="#e0e0e0" stroke="#999999" points="448.5,-19 395.5,-19 395.5,0 448.5,0 448.5,-19"/>
<text text-anchor="middle" x="422" y="-7" font-family="Helvetica,sans-Serif" font-size="10.00">cstdarg</text>
</a>
</g>
</g>
<!-- Node24&#45;&gt;Node26 -->
<g id="edge32_Node000024_Node000026" class="edge">
<title>Node24&#45;&gt;Node26</title>
<g id="a_edge32_Node000024_Node000026"><a xlink:title=" ">
<path fill="none" stroke="#63b8ff" d="M479.91,-54.98C469.51,-47 453.74,-34.88 441.28,-25.31"/>
<polygon fill="#63b8ff" stroke="#63b8ff" points="443.35,-22.49 433.29,-19.17 439.09,-28.04 443.35,-22.49"/>
</a>
</g>
</g>
<!-- Node27 -->
<g id="Node000027" class="node">
<title>Node27</title>
<g id="a_Node000027"><a xlink:title=" ">
<polygon fill="#e0e0e0" stroke="#999999" points="515,-19 467,-19 467,0 515,0 515,-19"/>
<text text-anchor="middle" x="491" y="-7" font-family="Helvetica,sans-Serif" font-size="10.00">mutex</text>
</a>
</g>
</g>
<!-- Node24&#45;&gt;Node27 -->
<g id="edge35_Node000024_Node000027" class="edge">
<title>Node24&#45;&gt;Node27</title>
<g id="a_edge35_Node000024_Node000027"><a xlink:title=" ">
<path fill="none" stroke="#63b8ff" d="M491,-54.75C491,-47.8 491,-37.85 491,-29.13"/>
<polygon fill="#63b8ff" stroke="#63b8ff" points="494.5,-29.09 491,-19.09 487.5,-29.09 494.5,-29.09"/>
</a>
</g>
</g>
<!-- Node28&#45;&gt;Node9 -->
<g id="edge41_Node000028_Node000009" class="edge">
<title>Node28&#45;&gt;Node9</title>
<g id="a_edge41_Node000028_Node000009"><a xlink:title=" ">
<path fill="none" stroke="#63b8ff" d="M1198.08,-164.88C1212.36,-152.66 1234.1,-129.63 1223,-110 1214.46,-94.91 1198.54,-84.37 1183.64,-77.35"/>
<polygon fill="#63b8ff" stroke="#63b8ff" points="1184.65,-73.98 1174.08,-73.23 1181.88,-80.4 1184.65,-73.98"/>
</a>
</g>
</g>
<!-- Node28&#45;&gt;Node12 -->
<g id="edge39_Node000028_Node000012" class="edge">
<title>Node28&#45;&gt;Node12</title>
<g id="a_edge39_Node000028_Node000012"><a xlink:title=" ">
<path fill="none" stroke="#63b8ff" d="M1157.12,-164.98C1124.4,-155.66 1071.96,-140.72 1037.01,-130.76"/>
<polygon fill="#63b8ff" stroke="#63b8ff" points="1037.78,-127.34 1027.2,-127.97 1035.86,-134.07 1037.78,-127.34"/>
</a>
</g>
</g>
<!-- Node28&#45;&gt;Node18 -->
<g id="edge42_Node000028_Node000018" class="edge">
<title>Node28&#45;&gt;Node18</title>
<g id="a_edge42_Node000028_Node000018"><a xlink:title=" ">
<path fill="none" stroke="#63b8ff" d="M1202.73,-164.88C1214.88,-157.23 1230.8,-144.83 1238,-129 1254.96,-91.7 1219.24,-74.14 1183,-55 1116.64,-19.96 1026.94,-12.19 979.52,-10.67"/>
<polygon fill="#63b8ff" stroke="#63b8ff" points="979.32,-7.17 969.24,-10.42 979.15,-14.16 979.32,-7.17"/>
</a>
</g>
</g>
<!-- Node28&#45;&gt;Node29 -->
<g id="edge40_Node000028_Node000029" class="edge">
<title>Node28&#45;&gt;Node29</title>
<g id="a_edge40_Node000028_Node000029"><a xlink:title=" ">
<path fill="none" stroke="#63b8ff" d="M1216.56,-164.98C1249.2,-155.58 1301.69,-140.46 1336.27,-130.51"/>
<polygon fill="#63b8ff" stroke="#63b8ff" points="1337.3,-133.85 1345.94,-127.72 1335.37,-127.12 1337.3,-133.85"/>
</a>
</g>
</g>
<!-- Node30&#45;&gt;Node4 -->
<g id="edge47_Node000030_Node000004" class="edge">
<title>Node30&#45;&gt;Node4</title>
<g id="a_edge47_Node000030_Node000004"><a xlink:title=" ">
<path fill="none" stroke="#63b8ff" d="M785.11,-165.28C865.89,-154.04 1008.13,-134.25 1073.02,-125.23"/>
<polygon fill="#63b8ff" stroke="#63b8ff" points="1073.69,-128.67 1083.11,-123.82 1072.72,-121.73 1073.69,-128.67"/>
</a>
</g>
</g>
<!-- Node30&#45;&gt;Node13 -->
<g id="edge44_Node000030_Node000013" class="edge">
<title>Node30&#45;&gt;Node13</title>
<g id="a_edge44_Node000030_Node000013"><a xlink:title=" ">
<path fill="none" stroke="#63b8ff" d="M785.28,-165.88C808.27,-159.76 832.51,-148.76 847,-129 856.28,-116.35 856.18,-98.16 854.25,-84.49"/>
<polygon fill="#63b8ff" stroke="#63b8ff" points="857.63,-83.49 852.37,-74.29 850.74,-84.76 857.63,-83.49"/>
</a>
</g>
</g>
<!-- Node30&#45;&gt;Node18 -->
<g id="edge46_Node000030_Node000018" class="edge">
<title>Node30&#45;&gt;Node18</title>
<g id="a_edge46_Node000030_Node000018"><a xlink:title=" ">
<path fill="none" stroke="#63b8ff" d="M778.2,-164.99C805.72,-158.56 838.89,-147.54 864,-129 900.41,-102.12 926.68,-54.38 939.05,-28.46"/>
<polygon fill="#63b8ff" stroke="#63b8ff" points="942.36,-29.64 943.36,-19.09 936,-26.71 942.36,-29.64"/>
</a>
</g>
</g>
<!-- Node30&#45;&gt;Node21 -->
<g id="edge48_Node000030_Node000021" class="edge">
<title>Node30&#45;&gt;Node21</title>
<g id="a_edge48_Node000030_Node000021"><a xlink:title=" ">
<path fill="none" stroke="#63b8ff" d="M724.35,-164.75C723.04,-157.8 721.16,-147.85 719.52,-139.13"/>
<polygon fill="#63b8ff" stroke="#63b8ff" points="722.91,-138.27 717.62,-129.09 716.04,-139.56 722.91,-138.27"/>
</a>
</g>
</g>
<!-- Node30&#45;&gt;Node31 -->
<g id="edge45_Node000030_Node000031" class="edge">
<title>Node30&#45;&gt;Node31</title>
<g id="a_edge45_Node000030_Node000031"><a xlink:title=" ">
<path fill="none" stroke="#63b8ff" d="M785.09,-166.15C788.44,-165.75 791.76,-165.37 795,-165 944.89,-147.95 985.91,-152.47 1138.19,-129.15"/>
<polygon fill="#63b8ff" stroke="#63b8ff" points="1139.03,-132.56 1148.38,-127.57 1137.96,-125.64 1139.03,-132.56"/>
</a>
</g>
</g>
<!-- Node32&#45;&gt;Node4 -->
<g id="edge54_Node000032_Node000004" class="edge">
<title>Node32&#45;&gt;Node4</title>
<g id="a_edge54_Node000032_Node000004"><a xlink:title=" ">
<path fill="none" stroke="#63b8ff" d="M1290.85,-164.93C1254.89,-156.59 1198.59,-143.4 1140.5,-129.08"/>
<polygon fill="#63b8ff" stroke="#63b8ff" points="1141.33,-125.68 1130.78,-126.68 1139.65,-132.48 1141.33,-125.68"/>
</a>
</g>
</g>
<!-- Node32&#45;&gt;Node9 -->
<g id="edge52_Node000032_Node000009" class="edge">
<title>Node32&#45;&gt;Node9</title>
<g id="a_edge52_Node000032_Node000009"><a xlink:title=" ">
<path fill="none" stroke="#63b8ff" d="M1317,-164.92C1300.4,-152.15 1267.7,-127.77 1238,-110 1218.36,-98.25 1195.22,-86.75 1177.45,-78.38"/>
<polygon fill="#63b8ff" stroke="#63b8ff" points="1178.74,-75.12 1168.19,-74.07 1175.78,-81.46 1178.74,-75.12"/>
</a>
</g>
</g>
<!-- Node32&#45;&gt;Node18 -->
<g id="edge53_Node000032_Node000018" class="edge">
<title>Node32&#45;&gt;Node18</title>
<g id="a_edge53_Node000032_Node000018"><a xlink:title=" ">
<path fill="none" stroke="#63b8ff" d="M1353.73,-164.97C1382.49,-154.05 1422.83,-133.66 1405,-110 1353.3,-41.41 1075.4,-18.28 979.54,-12.28"/>
<polygon fill="#63b8ff" stroke="#63b8ff" points="979.48,-8.77 969.29,-11.66 979.06,-15.76 979.48,-8.77"/>
</a>
</g>
</g>
<!-- Node33&#45;&gt;Node7 -->
<g id="edge56_Node000033_Node000007" class="edge">
<title>Node33&#45;&gt;Node7</title>
<g id="a_edge56_Node000033_Node000007"><a xlink:title=" ">
<path fill="none" stroke="#63b8ff" d="M727.12,-219.98C746.35,-211.42 776.23,-198.11 798.31,-188.28"/>
<polygon fill="#63b8ff" stroke="#63b8ff" points="799.82,-191.44 807.53,-184.17 796.97,-185.04 799.82,-191.44"/>
</a>
</g>
</g>
<!-- Node33&#45;&gt;Node10 -->
<g id="edge59_Node000033_Node000010" class="edge">
<title>Node33&#45;&gt;Node10</title>
<g id="a_edge59_Node000033_Node000010"><a xlink:title=" ">
<path fill="none" stroke="#63b8ff" d="M688.72,-219.98C669.33,-211.42 639.19,-198.11 616.93,-188.28"/>
<polygon fill="#63b8ff" stroke="#63b8ff" points="618.19,-185.01 607.63,-184.17 615.36,-191.41 618.19,-185.01"/>
</a>
</g>
</g>
<!-- Node33&#45;&gt;Node28 -->
<g id="edge57_Node000033_Node000028" class="edge">
<title>Node33&#45;&gt;Node28</title>
<g id="a_edge57_Node000033_Node000028"><a xlink:title=" ">
<path fill="none" stroke="#63b8ff" d="M735.78,-225.33C749.92,-223.72 767.37,-221.75 783,-220 903.3,-206.56 1043.79,-191.15 1123.38,-182.44"/>
<polygon fill="#63b8ff" stroke="#63b8ff" points="1124.17,-185.88 1133.73,-181.31 1123.41,-178.92 1124.17,-185.88"/>
</a>
</g>
</g>
<!-- Node33&#45;&gt;Node30 -->
<g id="edge58_Node000033_Node000030" class="edge">
<title>Node33&#45;&gt;Node30</title>
<g id="a_edge58_Node000033_Node000030"><a xlink:title=" ">
<path fill="none" stroke="#63b8ff" d="M710.97,-219.75C713.36,-212.72 716.79,-202.62 719.77,-193.84"/>
<polygon fill="#63b8ff" stroke="#63b8ff" points="723.18,-194.68 723.08,-184.09 716.55,-192.43 723.18,-194.68"/>
</a>
</g>
</g>
</g>
</svg>

<g id="navigator" transform="translate(0 0)" fill="#404254">
  <rect fill="#f2f5e9" fill-opacity="0.5" stroke="#606060" stroke-width=".5" x="0" y="0" width="60" height="60"/>
  <use id="zoomplus" xlink:href="#zoomPlus" x="17" y="9" onmousedown="handleZoom(evt,'in')"/>
  <use id="zoomminus" xlink:href="#zoomMin" x="42" y="9" onmousedown="handleZoom(evt,'out')"/>
  <use id="reset" xlink:href="#resetDef" x="30" y="36" onmousedown="handleReset()"/>
   <use id="arrowup" xlink:href="#arrowUp" x="0" y="0" onmousedown="handlePan(0,-1)"/>
  <use id="arrowright" xlink:href="#arrowRight" x="0" y="0" onmousedown="handlePan(1,0)"/>
  <use id="arrowdown" xlink:href="#arrowDown" x="0" y="0" onmousedown="handlePan(0,1)"/>
  <use id="arrowleft" xlink:href="#arrowLeft" x="0" y="0" onmousedown="handlePan(-1,0)"/>
</g>
<svg viewBox="0 0 15 15" width="100%" height="30px" preserveAspectRatio="xMaxYMin meet">
 <g id="arrow_out" transform="scale(0.3 0.3)">
  <a xlink:href="gof_8cpp__incl_org.svg" target="_base">
   <rect id="button" ry="5" rx="5" y="6" x="6" height="38" width="38"
        fill="#f2f5e9" fill-opacity="0.5" stroke="#606060" stroke-width="1.0"/>
   <path id="arrow"
     d="M 11.500037,31.436501 C 11.940474,20.09759 22.043105,11.32322 32.158766,21.979434 L 37.068811,17.246167 C 37.068811,17.246167 37.088388,32 37.088388,32 L 22.160133,31.978069 C 22.160133,31.978069 26.997745,27.140456 26.997745,27.140456 C 18.528582,18.264221 13.291696,25.230495 11.500037,31.436501 z"
     style="fill:#404040;"/>
  </a>
 </g>
</svg>

<style type='text/css'>
<![CDATA[
[data-mouse-over-selected='false'] { opacity: 0.7; }
[data-mouse-over-selected='true']  { opacity: 1.0; }
]]>
</style>
<script type="application/ecmascript"><![CDATA[
document.addEventListener('DOMContentLoaded', (event) => {
  highlightEdges();
  highlightAdjacentNodes();
});
]]></script>
</svg>
