<?xml version="1.0" encoding="UTF-8" standalone="no"?>
<!DOCTYPE svg PUBLIC "-//W3C//DTD SVG 1.1//EN"
 "http://www.w3.org/Graphics/SVG/1.1/DTD/svg11.dtd">
<!-- Generated by graphviz version 2.43.0 (0)
 -->
<!-- Title: nanoflann::load_value Pages: 1 -->
<svg width="292pt" height="45pt"
 viewBox="0.00 0.00 292.00 45.00" xmlns="http://www.w3.org/2000/svg" xmlns:xlink="http://www.w3.org/1999/xlink">
<g id="graph0" class="graph" transform="scale(1 1) rotate(0) translate(4 41)">
<title>nanoflann::load_value</title>
<!-- Node1 -->
<g id="Node000001" class="node">
<title>Node1</title>
<g id="a_Node000001"><a xlink:title=" ">
<polygon fill="#999999" stroke="#666666" points="124,-19 0,-19 0,0 124,0 124,-19"/>
<text text-anchor="middle" x="62" y="-7" font-family="Helvetica,sans-Serif" font-size="10.00">nanoflann::load_value</text>
</a>
</g>
</g>
<!-- Node2 -->
<g id="Node000002" class="node">
<title>Node2</title>
<g id="a_Node000002"><a xlink:href="group__loadsave__grp.html#ga0e46446b869ab24cc7217bd799b5e11d" target="_top" xlink:title=" ">
<polygon fill="white" stroke="#666666" points="284,-19 160,-19 160,0 284,0 284,-19"/>
<text text-anchor="middle" x="222" y="-7" font-family="Helvetica,sans-Serif" font-size="10.00">nanoflann::load_value</text>
</a>
</g>
</g>
<!-- Node1&#45;&gt;Node2 -->
<g id="edge1_Node000001_Node000002" class="edge">
<title>Node1&#45;&gt;Node2</title>
<g id="a_edge1_Node000001_Node000002"><a xlink:title=" ">
<path fill="none" stroke="#63b8ff" d="M124.09,-9.5C132.51,-9.5 141.23,-9.5 149.81,-9.5"/>
<polygon fill="#63b8ff" stroke="#63b8ff" points="149.82,-13 159.82,-9.5 149.82,-6 149.82,-13"/>
</a>
</g>
</g>
<!-- Node2&#45;&gt;Node2 -->
<g id="edge2_Node000002_Node000002" class="edge">
<title>Node2&#45;&gt;Node2</title>
<g id="a_edge2_Node000002_Node000002"><a xlink:title=" ">
<path fill="none" stroke="#63b8ff" d="M197.34,-19.08C185.34,-27.73 193.56,-37 222,-37 240.66,-37 250.62,-33.01 251.87,-27.82"/>
<polygon fill="#63b8ff" stroke="#63b8ff" points="254.79,-25.88 246.66,-19.08 248.77,-29.47 254.79,-25.88"/>
</a>
</g>
</g>
</g>
</svg>
