<?xml version="1.0" encoding="UTF-8" standalone="no"?>
<!DOCTYPE svg PUBLIC "-//W3C//DTD SVG 1.1//EN"
 "http://www.w3.org/Graphics/SVG/1.1/DTD/svg11.dtd">
<!-- Generated by graphviz version 2.43.0 (0)
 -->
<!-- Title: nanoflann C++ library for KD&#45;trees Pages: 1 -->
<svg width="324pt" height="284pt"
 viewBox="0.00 0.00 324.00 283.50" xmlns="http://www.w3.org/2000/svg" xmlns:xlink="http://www.w3.org/1999/xlink">

<svg id="main" version="1.1" xmlns="http://www.w3.org/2000/svg" xmlns:xlink="http://www.w3.org/1999/xlink" xml:space="preserve" onload="init(evt)">
<style type="text/css"><![CDATA[
.node, .edge {opacity: 0.7;}
.node.selected, .edge.selected {opacity: 1;}
.edge:hover path { stroke: red; }
.edge:hover polygon { stroke: red; fill: red; }
]]></style>
<script type="application/ecmascript" xlink:href="svg.min.js"/>
<svg id="graph" class="graph">
<g id="graph0" class="graph" transform="scale(1 1) rotate(0) translate(4 279.5)">
<title>nanoflann C++ library for KD&#45;trees</title>
<!-- Node8 -->
<g id="Node000008" class="node">
<title>Node8</title>
<g id="a_Node000008"><a xlink:href="group__kdtrees__grp.html" target="_top" xlink:title=" ">
<polygon fill="white" stroke="#666666" points="295.5,-275.5 181.5,-275.5 181.5,-245.5 295.5,-245.5 295.5,-275.5"/>
<text text-anchor="start" x="189.5" y="-263.5" font-family="Helvetica,sans-Serif" font-size="10.00">KD&#45;tree classes and</text>
<text text-anchor="middle" x="238.5" y="-252.5" font-family="Helvetica,sans-Serif" font-size="10.00"> adaptors</text>
</a>
</g>
</g>
<!-- Node3 -->
<g id="Node000003" class="node">
<title>Node3</title>
<g id="a_Node000003"><a xlink:href="group__loadsave__grp.html" target="_top" xlink:title=" ">
<polygon fill="white" stroke="#666666" points="294.5,-227.5 182.5,-227.5 182.5,-197.5 294.5,-197.5 294.5,-227.5"/>
<text text-anchor="start" x="190.5" y="-215.5" font-family="Helvetica,sans-Serif" font-size="10.00">Load/save auxiliary</text>
<text text-anchor="middle" x="238.5" y="-204.5" font-family="Helvetica,sans-Serif" font-size="10.00"> functions</text>
</a>
</g>
</g>
<!-- Node6 -->
<g id="Node000006" class="node">
<title>Node6</title>
<g id="a_Node000006"><a xlink:href="group__memalloc__grp.html" target="_top" xlink:title=" ">
<polygon fill="white" stroke="#666666" points="292.5,-179 184.5,-179 184.5,-160 292.5,-160 292.5,-179"/>
<text text-anchor="middle" x="238.5" y="-167" font-family="Helvetica,sans-Serif" font-size="10.00">Memory allocation</text>
</a>
</g>
</g>
<!-- Node4 -->
<g id="Node000004" class="node">
<title>Node4</title>
<g id="a_Node000004"><a xlink:href="group__metric__grp.html" target="_top" xlink:title=" ">
<polygon fill="white" stroke="#666666" points="307.5,-142 169.5,-142 169.5,-123 307.5,-123 307.5,-142"/>
<text text-anchor="middle" x="238.5" y="-130" font-family="Helvetica,sans-Serif" font-size="10.00">Metric (distance) classes</text>
</a>
</g>
</g>
<!-- Node1 -->
<g id="Node000001" class="node">
<title>Node1</title>
<g id="a_Node000001"><a xlink:title=" ">
<polygon fill="#999999" stroke="#666666" points="125,-147.5 0,-147.5 0,-117.5 125,-117.5 125,-147.5"/>
<text text-anchor="start" x="8" y="-135.5" font-family="Helvetica,sans-Serif" font-size="10.00">nanoflann C++ library</text>
<text text-anchor="middle" x="62.5" y="-124.5" font-family="Helvetica,sans-Serif" font-size="10.00"> for KD&#45;trees</text>
</a>
</g>
</g>
<!-- Node1&#45;&gt;Node8 -->
<g id="edge7" class="edge">
<title>Node1&#45;&gt;Node8</title>
<path fill="none" stroke="black" d="M79.75,-155.91C97.25,-179.47 127.18,-215.26 161,-236.5 167.25,-240.42 174.19,-243.75 181.26,-246.56"/>
<polygon fill="black" stroke="black" points="82.38,-153.57 73.67,-147.54 76.71,-157.69 82.38,-153.57"/>
</g>
<!-- Node1&#45;&gt;Node3 -->
<g id="edge2" class="edge">
<title>Node1&#45;&gt;Node3</title>
<path fill="none" stroke="black" d="M95.06,-152.97C113.72,-164.47 138.1,-178.48 161,-188.5 168.4,-191.74 176.37,-194.74 184.27,-197.45"/>
<polygon fill="black" stroke="black" points="96.73,-149.89 86.4,-147.56 93.02,-155.82 96.73,-149.89"/>
</g>
<!-- Node1&#45;&gt;Node6 -->
<g id="edge5" class="edge">
<title>Node1&#45;&gt;Node6</title>
<path fill="none" stroke="black" d="M135.12,-147.73C154.65,-151.88 175.25,-156.26 192.81,-160"/>
<polygon fill="black" stroke="black" points="135.85,-144.31 125.34,-145.65 134.39,-151.15 135.85,-144.31"/>
</g>
<!-- Node1&#45;&gt;Node4 -->
<g id="edge3" class="edge">
<title>Node1&#45;&gt;Node4</title>
<path fill="none" stroke="black" d="M135.5,-132.5C146.7,-132.5 158.25,-132.5 169.36,-132.5"/>
<polygon fill="black" stroke="black" points="135.34,-129 125.34,-132.5 135.34,-136 135.34,-129"/>
</g>
<!-- Node7 -->
<g id="Node000007" class="node">
<title>Node7</title>
<g id="a_Node000007"><a xlink:href="group__nanoflann__metaprog__grp.html" target="_top" xlink:title=" ">
<polygon fill="white" stroke="#666666" points="316,-104.5 161,-104.5 161,-74.5 316,-74.5 316,-104.5"/>
<text text-anchor="start" x="169" y="-92.5" font-family="Helvetica,sans-Serif" font-size="10.00">Auxiliary metaprogramming</text>
<text text-anchor="middle" x="238.5" y="-81.5" font-family="Helvetica,sans-Serif" font-size="10.00"> stuff</text>
</a>
</g>
</g>
<!-- Node1&#45;&gt;Node7 -->
<g id="edge6" class="edge">
<title>Node1&#45;&gt;Node7</title>
<path fill="none" stroke="black" d="M134.44,-114.97C148.45,-111.51 163.04,-107.9 176.68,-104.53"/>
<polygon fill="black" stroke="black" points="133.23,-111.66 124.36,-117.46 134.9,-118.46 133.23,-111.66"/>
</g>
<!-- Node5 -->
<g id="Node000005" class="node">
<title>Node5</title>
<g id="a_Node000005"><a xlink:href="group__param__grp.html" target="_top" xlink:title=" ">
<polygon fill="white" stroke="#666666" points="290,-56 187,-56 187,-37 290,-37 290,-56"/>
<text text-anchor="middle" x="238.5" y="-44" font-family="Helvetica,sans-Serif" font-size="10.00">Parameter structs</text>
</a>
</g>
</g>
<!-- Node1&#45;&gt;Node5 -->
<g id="edge4" class="edge">
<title>Node1&#45;&gt;Node5</title>
<path fill="none" stroke="black" d="M89.42,-110.84C108.22,-96.13 134.85,-77.26 161,-65.5 169.49,-61.68 178.86,-58.55 188.06,-56.01"/>
<polygon fill="black" stroke="black" points="86.99,-108.3 81.36,-117.27 91.36,-113.77 86.99,-108.3"/>
</g>
<!-- Node2 -->
<g id="Node000002" class="node">
<title>Node2</title>
<g id="a_Node000002"><a xlink:href="group__result__sets__grp.html" target="_top" xlink:title=" ">
<polygon fill="white" stroke="#666666" points="290.5,-19 186.5,-19 186.5,0 290.5,0 290.5,-19"/>
<text text-anchor="middle" x="238.5" y="-7" font-family="Helvetica,sans-Serif" font-size="10.00">Result set classes</text>
</a>
</g>
</g>
<!-- Node1&#45;&gt;Node2 -->
<g id="edge1" class="edge">
<title>Node1&#45;&gt;Node2</title>
<path fill="none" stroke="black" d="M79.27,-108.98C96.53,-85.09 126.4,-48.8 161,-28.5 168.67,-24 177.38,-20.56 186.1,-17.93"/>
<polygon fill="black" stroke="black" points="76.39,-106.98 73.49,-117.17 82.11,-111.01 76.39,-106.98"/>
</g>
</g>
</svg>
</svg>

<style type='text/css'>
<![CDATA[
[data-mouse-over-selected='false'] { opacity: 0.7; }
[data-mouse-over-selected='true']  { opacity: 1.0; }
]]>
</style>
<script type="application/ecmascript"><![CDATA[
document.addEventListener('DOMContentLoaded', (event) => {
  highlightEdges();
  highlightAdjacentNodes();
});
]]></script>
</svg>
