<?xml version="1.0" encoding="UTF-8" standalone="no"?>
<!DOCTYPE svg PUBLIC "-//W3C//DTD SVG 1.1//EN"
 "http://www.w3.org/Graphics/SVG/1.1/DTD/svg11.dtd">
<!-- Generated by graphviz version 2.43.0 (0)
 -->
<!-- Title: Graphical Class Hierarchy Pages: 1 -->
<svg width="270pt" height="64pt"
 viewBox="0.00 0.00 270.00 64.00" xmlns="http://www.w3.org/2000/svg" xmlns:xlink="http://www.w3.org/1999/xlink">
<g id="graph0" class="graph" transform="scale(1 1) rotate(0) translate(4 60)">
<title>Graphical Class Hierarchy</title>
<!-- Node0 -->
<g id="Node000000" class="node">
<title>Node0</title>
<g id="a_Node000000"><a xlink:href="classAbstract2DMapEncoder.html" target="_top" xlink:title=" ">
<polygon fill="white" stroke="#666666" points="131,-37 0,-37 0,-18 131,-18 131,-37"/>
<text text-anchor="middle" x="65.5" y="-25" font-family="Helvetica,sans-Serif" font-size="10.00">Abstract2DMapEncoder</text>
</a>
</g>
</g>
<!-- Node1 -->
<g id="Node000001" class="node">
<title>Node1</title>
<g id="a_Node000001"><a xlink:href="classEncoderFFmpeg.html" target="_top" xlink:title=" ">
<polygon fill="white" stroke="#666666" points="262,-56 167,-56 167,-37 262,-37 262,-56"/>
<text text-anchor="middle" x="214.5" y="-44" font-family="Helvetica,sans-Serif" font-size="10.00">EncoderFFmpeg</text>
</a>
</g>
</g>
<!-- Node0&#45;&gt;Node1 -->
<g id="edge1_Node000000_Node000001" class="edge">
<title>Node0&#45;&gt;Node1</title>
<g id="a_edge1_Node000000_Node000001"><a xlink:title=" ">
<path fill="none" stroke="#63b8ff" d="M141.44,-37.19C150.01,-38.29 158.54,-39.4 166.59,-40.44"/>
<polygon fill="#63b8ff" stroke="#63b8ff" points="141.77,-33.7 131.4,-35.89 140.87,-40.64 141.77,-33.7"/>
</a>
</g>
</g>
<!-- Node2 -->
<g id="Node000002" class="node">
<title>Node2</title>
<g id="a_Node000002"><a xlink:href="classEncoderKvazaar.html" target="_top" xlink:title=" ">
<polygon fill="white" stroke="#666666" points="262,-19 167,-19 167,0 262,0 262,-19"/>
<text text-anchor="middle" x="214.5" y="-7" font-family="Helvetica,sans-Serif" font-size="10.00">EncoderKvazaar</text>
</a>
</g>
</g>
<!-- Node0&#45;&gt;Node2 -->
<g id="edge2_Node000000_Node000002" class="edge">
<title>Node0&#45;&gt;Node2</title>
<g id="a_edge2_Node000000_Node000002"><a xlink:title=" ">
<path fill="none" stroke="#63b8ff" d="M141.44,-18.32C150.01,-17.27 158.54,-16.23 166.59,-15.24"/>
<polygon fill="#63b8ff" stroke="#63b8ff" points="140.9,-14.86 131.4,-19.55 141.76,-21.81 140.9,-14.86"/>
</a>
</g>
</g>
</g>
</svg>
