<?xml version="1.0" encoding="UTF-8" standalone="no"?>
<!DOCTYPE svg PUBLIC "-//W3C//DTD SVG 1.1//EN"
 "http://www.w3.org/Graphics/SVG/1.1/DTD/svg11.dtd">
<!-- Generated by graphviz version 2.43.0 (0)
 -->
<!-- Title: Graphical Class Hierarchy Pages: 1 -->
<svg width="438pt" height="167pt"
 viewBox="0.00 0.00 438.00 167.00" xmlns="http://www.w3.org/2000/svg" xmlns:xlink="http://www.w3.org/1999/xlink">
<g id="graph0" class="graph" transform="scale(1 1) rotate(0) translate(4 163)">
<title>Graphical Class Hierarchy</title>
<!-- Node0 -->
<g id="Node000000" class="node">
<title>Node0</title>
<g id="a_Node000000"><a xlink:href="classnanoflann_1_1KDTreeBaseClass.html" target="_top" xlink:title=" ">
<polygon fill="white" stroke="#666666" points="200,-100 0,-100 0,-59 200,-59 200,-100"/>
<text text-anchor="start" x="8" y="-88" font-family="Helvetica,sans-Serif" font-size="10.00">nanoflann::KDTreeBaseClass</text>
<text text-anchor="start" x="8" y="-77" font-family="Helvetica,sans-Serif" font-size="10.00">&lt; Derived, Distance, DatasetAdaptor,</text>
<text text-anchor="middle" x="100" y="-66" font-family="Helvetica,sans-Serif" font-size="10.00"> DIM, IndexType &gt;</text>
</a>
</g>
</g>
<!-- Node1 -->
<g id="Node000001" class="node">
<title>Node1</title>
<g id="a_Node000001"><a xlink:href="classnanoflann_1_1KDTreeSingleIndexDynamicAdaptor__.html" target="_top" xlink:title=" ">
<polygon fill="white" stroke="#666666" points="414,-159 252,-159 252,-118 414,-118 414,-159"/>
<text text-anchor="start" x="260" y="-147" font-family="Helvetica,sans-Serif" font-size="10.00">nanoflann::KDTreeSingleIndex</text>
<text text-anchor="start" x="260" y="-136" font-family="Helvetica,sans-Serif" font-size="10.00">DynamicAdaptor_&lt; Distance,</text>
<text text-anchor="middle" x="333" y="-125" font-family="Helvetica,sans-Serif" font-size="10.00"> DatasetAdaptor, &#45;1 &gt;</text>
</a>
</g>
</g>
<!-- Node0&#45;&gt;Node1 -->
<g id="edge8_Node000000_Node000001" class="edge">
<title>Node0&#45;&gt;Node1</title>
<g id="a_edge8_Node000000_Node000001"><a xlink:title=" ">
<path fill="none" stroke="#63b8ff" d="M191.19,-102.54C211.19,-107.64 232.25,-113.02 251.82,-118.02"/>
<polygon fill="#63b8ff" stroke="#63b8ff" points="192.02,-99.14 181.47,-100.05 190.29,-105.92 192.02,-99.14"/>
</a>
</g>
</g>
<!-- Node2 -->
<g id="Node000002" class="node">
<title>Node2</title>
<g id="a_Node000002"><a xlink:href="classnanoflann_1_1KDTreeSingleIndexAdaptor.html" target="_top" xlink:title=" ">
<polygon fill="white" stroke="#666666" points="430,-100 236,-100 236,-59 430,-59 430,-100"/>
<text text-anchor="start" x="244" y="-88" font-family="Helvetica,sans-Serif" font-size="10.00">nanoflann::KDTreeSingleIndex</text>
<text text-anchor="start" x="244" y="-77" font-family="Helvetica,sans-Serif" font-size="10.00">Adaptor&lt; Distance, DatasetAdaptor,</text>
<text text-anchor="middle" x="333" y="-66" font-family="Helvetica,sans-Serif" font-size="10.00"> DIM, IndexType &gt;</text>
</a>
</g>
</g>
<!-- Node0&#45;&gt;Node2 -->
<g id="edge9_Node000000_Node000002" class="edge">
<title>Node0&#45;&gt;Node2</title>
<g id="a_edge9_Node000000_Node000002"><a xlink:title=" ">
<path fill="none" stroke="#63b8ff" d="M210.53,-79.5C218.94,-79.5 227.39,-79.5 235.71,-79.5"/>
<polygon fill="#63b8ff" stroke="#63b8ff" points="210.31,-76 200.31,-79.5 210.31,-83 210.31,-76"/>
</a>
</g>
</g>
<!-- Node3 -->
<g id="Node000003" class="node">
<title>Node3</title>
<g id="a_Node000003"><a xlink:href="classnanoflann_1_1KDTreeSingleIndexDynamicAdaptor__.html" target="_top" xlink:title=" ">
<polygon fill="white" stroke="#666666" points="427,-41 239,-41 239,0 427,0 427,-41"/>
<text text-anchor="start" x="247" y="-29" font-family="Helvetica,sans-Serif" font-size="10.00">nanoflann::KDTreeSingleIndex</text>
<text text-anchor="start" x="247" y="-18" font-family="Helvetica,sans-Serif" font-size="10.00">DynamicAdaptor_&lt; Distance,</text>
<text text-anchor="middle" x="333" y="-7" font-family="Helvetica,sans-Serif" font-size="10.00"> DatasetAdaptor, DIM, IndexType &gt;</text>
</a>
</g>
</g>
<!-- Node0&#45;&gt;Node3 -->
<g id="edge10_Node000000_Node000003" class="edge">
<title>Node0&#45;&gt;Node3</title>
<g id="a_edge10_Node000000_Node000003"><a xlink:title=" ">
<path fill="none" stroke="#63b8ff" d="M191.4,-56.41C211.21,-51.35 232.04,-46.03 251.43,-41.08"/>
<polygon fill="#63b8ff" stroke="#63b8ff" points="190.29,-53.08 181.47,-58.95 192.02,-59.86 190.29,-53.08"/>
</a>
</g>
</g>
</g>
</svg>
