<?xml version="1.0" encoding="UTF-8" standalone="no"?>
<!DOCTYPE svg PUBLIC "-//W3C//DTD SVG 1.1//EN"
 "http://www.w3.org/Graphics/SVG/1.1/DTD/svg11.dtd">
<!-- Generated by graphviz version 2.43.0 (0)
 -->
<!-- Title: Graphical Class Hierarchy Pages: 1 -->
<svg width="258pt" height="146pt"
 viewBox="0.00 0.00 258.00 145.50" xmlns="http://www.w3.org/2000/svg" xmlns:xlink="http://www.w3.org/1999/xlink">
<g id="graph0" class="graph" transform="scale(1 1) rotate(0) translate(4 141.5)">
<title>Graphical Class Hierarchy</title>
<!-- Node0 -->
<g id="Node000000" class="node">
<title>Node0</title>
<g id="a_Node000000"><a xlink:title=" ">
<polygon fill="#e0e0e0" stroke="#999999" points="89,-84 0,-84 0,-65 89,-65 89,-84"/>
<text text-anchor="middle" x="44.5" y="-72" font-family="Helvetica,sans-Serif" font-size="10.00">std::false_type</text>
</a>
</g>
</g>
<!-- Node1 -->
<g id="Node000001" class="node">
<title>Node1</title>
<g id="a_Node000001"><a xlink:href="structnanoflann_1_1has__assign.html" target="_top" xlink:title=" ">
<polygon fill="white" stroke="#666666" points="250,-137.5 125,-137.5 125,-107.5 250,-107.5 250,-137.5"/>
<text text-anchor="start" x="133" y="-125.5" font-family="Helvetica,sans-Serif" font-size="10.00">nanoflann::has_assign</text>
<text text-anchor="middle" x="187.5" y="-114.5" font-family="Helvetica,sans-Serif" font-size="10.00">&lt; T, typename &gt;</text>
</a>
</g>
</g>
<!-- Node0&#45;&gt;Node1 -->
<g id="edge19_Node000000_Node000001" class="edge">
<title>Node0&#45;&gt;Node1</title>
<g id="a_edge19_Node000000_Node000001"><a xlink:title=" ">
<path fill="none" stroke="#63b8ff" d="M83.35,-87.39C101.5,-93.56 123.34,-101 142.25,-107.44"/>
<polygon fill="#63b8ff" stroke="#63b8ff" points="84.29,-84.01 73.69,-84.1 82.03,-90.63 84.29,-84.01"/>
</a>
</g>
</g>
<!-- Node2 -->
<g id="Node000002" class="node">
<title>Node2</title>
<g id="a_Node000002"><a xlink:href="structnanoflann_1_1has__resize.html" target="_top" xlink:title=" ">
<polygon fill="white" stroke="#666666" points="248.5,-89.5 126.5,-89.5 126.5,-59.5 248.5,-59.5 248.5,-89.5"/>
<text text-anchor="start" x="134.5" y="-77.5" font-family="Helvetica,sans-Serif" font-size="10.00">nanoflann::has_resize</text>
<text text-anchor="middle" x="187.5" y="-66.5" font-family="Helvetica,sans-Serif" font-size="10.00">&lt; T, typename &gt;</text>
</a>
</g>
</g>
<!-- Node0&#45;&gt;Node2 -->
<g id="edge20_Node000000_Node000002" class="edge">
<title>Node0&#45;&gt;Node2</title>
<g id="a_edge20_Node000000_Node000002"><a xlink:title=" ">
<path fill="none" stroke="#63b8ff" d="M99.47,-74.5C108.27,-74.5 117.43,-74.5 126.37,-74.5"/>
<polygon fill="#63b8ff" stroke="#63b8ff" points="99.34,-71 89.34,-74.5 99.34,-78 99.34,-71"/>
</a>
</g>
</g>
<!-- Node3 -->
<g id="Node000003" class="node">
<title>Node3</title>
<g id="a_Node000003"><a xlink:href="structrobin__hood_1_1detail_1_1has__is__transparent.html" target="_top" xlink:title=" ">
<polygon fill="white" stroke="#666666" points="245,-41 130,-41 130,0 245,0 245,-41"/>
<text text-anchor="start" x="138" y="-29" font-family="Helvetica,sans-Serif" font-size="10.00">robin_hood::detail</text>
<text text-anchor="start" x="138" y="-18" font-family="Helvetica,sans-Serif" font-size="10.00">::has_is_transparent</text>
<text text-anchor="middle" x="187.5" y="-7" font-family="Helvetica,sans-Serif" font-size="10.00">&lt; T, typename &gt;</text>
</a>
</g>
</g>
<!-- Node0&#45;&gt;Node3 -->
<g id="edge21_Node000000_Node000003" class="edge">
<title>Node0&#45;&gt;Node3</title>
<g id="a_edge21_Node000000_Node000003"><a xlink:title=" ">
<path fill="none" stroke="#63b8ff" d="M79.84,-61.35C95.79,-55.24 115.14,-47.83 132.95,-41.01"/>
<polygon fill="#63b8ff" stroke="#63b8ff" points="78.47,-58.13 70.38,-64.97 80.97,-64.66 78.47,-58.13"/>
</a>
</g>
</g>
</g>
</svg>
