<?xml version="1.0" encoding="UTF-8" standalone="no"?>
<!DOCTYPE svg PUBLIC "-//W3C//DTD SVG 1.1//EN"
 "http://www.w3.org/Graphics/SVG/1.1/DTD/svg11.dtd">
<!-- Generated by graphviz version 2.43.0 (0)
 -->
<!-- Title: Graphical Class Hierarchy Pages: 1 -->
<svg width="289pt" height="212pt"
 viewBox="0.00 0.00 289.00 211.50" xmlns="http://www.w3.org/2000/svg" xmlns:xlink="http://www.w3.org/1999/xlink">
<g id="graph0" class="graph" transform="scale(1 1) rotate(0) translate(4 207.5)">
<title>Graphical Class Hierarchy</title>
<!-- Node0 -->
<g id="Node000000" class="node">
<title>Node0</title>
<g id="a_Node000000"><a xlink:title=" ">
<polygon fill="#e0e0e0" stroke="#999999" points="84,-117 0,-117 0,-98 84,-98 84,-117"/>
<text text-anchor="middle" x="42" y="-105" font-family="Helvetica,sans-Serif" font-size="10.00">std::true_type</text>
</a>
</g>
</g>
<!-- Node1 -->
<g id="Node000001" class="node">
<title>Node1</title>
<g id="a_Node000001"><a xlink:href="structnanoflann_1_1has__assign_3_01T_00_01decltype_07_07void_08_01std_1_1declval_3_01T_01_4_07_0384656df8feb37b62ef12dfcd439e93e.html" target="_top" xlink:title=" ">
<polygon fill="white" stroke="#666666" points="273.5,-203.5 127.5,-203.5 127.5,-151.5 273.5,-151.5 273.5,-203.5"/>
<text text-anchor="start" x="135.5" y="-191.5" font-family="Helvetica,sans-Serif" font-size="10.00">nanoflann::has_assign</text>
<text text-anchor="start" x="135.5" y="-180.5" font-family="Helvetica,sans-Serif" font-size="10.00">&lt; T, decltype((void)</text>
<text text-anchor="start" x="135.5" y="-169.5" font-family="Helvetica,sans-Serif" font-size="10.00"> std::declval&lt; T &gt;().assign</text>
<text text-anchor="middle" x="200.5" y="-158.5" font-family="Helvetica,sans-Serif" font-size="10.00">(1, 0), 0)&gt;</text>
</a>
</g>
</g>
<!-- Node0&#45;&gt;Node1 -->
<g id="edge24_Node000000_Node000001" class="edge">
<title>Node0&#45;&gt;Node1</title>
<g id="a_edge24_Node000000_Node000001"><a xlink:title=" ">
<path fill="none" stroke="#63b8ff" d="M73.18,-121.32C87.37,-127.79 104.54,-135.58 120,-142.5 126.47,-145.39 133.24,-148.41 139.99,-151.39"/>
<polygon fill="#63b8ff" stroke="#63b8ff" points="74.44,-118.04 63.89,-117.07 71.53,-124.41 74.44,-118.04"/>
</a>
</g>
</g>
<!-- Node2 -->
<g id="Node000002" class="node">
<title>Node2</title>
<g id="a_Node000002"><a xlink:href="structnanoflann_1_1has__resize_3_01T_00_01decltype_07_07void_08_01std_1_1declval_3_01T_01_4_07_08_8resize_071_08_00_010_08_4.html" target="_top" xlink:title=" ">
<polygon fill="white" stroke="#666666" points="272.5,-133.5 128.5,-133.5 128.5,-81.5 272.5,-81.5 272.5,-133.5"/>
<text text-anchor="start" x="136.5" y="-121.5" font-family="Helvetica,sans-Serif" font-size="10.00">nanoflann::has_resize</text>
<text text-anchor="start" x="136.5" y="-110.5" font-family="Helvetica,sans-Serif" font-size="10.00">&lt; T, decltype((void)</text>
<text text-anchor="start" x="136.5" y="-99.5" font-family="Helvetica,sans-Serif" font-size="10.00"> std::declval&lt; T &gt;().resize</text>
<text text-anchor="middle" x="200.5" y="-88.5" font-family="Helvetica,sans-Serif" font-size="10.00">(1), 0)&gt;</text>
</a>
</g>
</g>
<!-- Node0&#45;&gt;Node2 -->
<g id="edge25_Node000000_Node000002" class="edge">
<title>Node0&#45;&gt;Node2</title>
<g id="a_edge25_Node000000_Node000002"><a xlink:title=" ">
<path fill="none" stroke="#63b8ff" d="M94.3,-107.5C105.2,-107.5 116.9,-107.5 128.4,-107.5"/>
<polygon fill="#63b8ff" stroke="#63b8ff" points="94.12,-104 84.12,-107.5 94.12,-111 94.12,-104"/>
</a>
</g>
</g>
<!-- Node3 -->
<g id="Node000003" class="node">
<title>Node3</title>
<g id="a_Node000003"><a xlink:href="structrobin__hood_1_1detail_1_1has__is__transparent_3_01T_00_01typename_01void__type_3_01typename7954ac560d441ff48df0956ad92574d.html" target="_top" xlink:title=" ">
<polygon fill="white" stroke="#666666" points="281,-63 120,-63 120,0 281,0 281,-63"/>
<text text-anchor="start" x="128" y="-51" font-family="Helvetica,sans-Serif" font-size="10.00">robin_hood::detail</text>
<text text-anchor="start" x="128" y="-40" font-family="Helvetica,sans-Serif" font-size="10.00">::has_is_transparent</text>
<text text-anchor="start" x="128" y="-29" font-family="Helvetica,sans-Serif" font-size="10.00">&lt; T, typename void_type</text>
<text text-anchor="start" x="128" y="-18" font-family="Helvetica,sans-Serif" font-size="10.00">&lt; typename T::is_transparent</text>
<text text-anchor="middle" x="200.5" y="-7" font-family="Helvetica,sans-Serif" font-size="10.00"> &gt;::type &gt;</text>
</a>
</g>
</g>
<!-- Node0&#45;&gt;Node3 -->
<g id="edge26_Node000000_Node000003" class="edge">
<title>Node0&#45;&gt;Node3</title>
<g id="a_edge26_Node000000_Node000003"><a xlink:title=" ">
<path fill="none" stroke="#63b8ff" d="M71.97,-93.43C89.55,-84.89 112.73,-73.64 134.5,-63.07"/>
<polygon fill="#63b8ff" stroke="#63b8ff" points="70.29,-90.36 62.82,-97.87 73.35,-96.65 70.29,-90.36"/>
</a>
</g>
</g>
</g>
</svg>
