<?xml version="1.0" encoding="UTF-8" standalone="no"?>
<!DOCTYPE svg PUBLIC "-//W3C//DTD SVG 1.1//EN"
 "http://www.w3.org/Graphics/SVG/1.1/DTD/svg11.dtd">
<!-- Generated by graphviz version 2.43.0 (0)
 -->
<!-- Title: Graphical Class Hierarchy Pages: 1 -->
<svg width="195pt" height="86pt"
 viewBox="0.00 0.00 195.00 86.00" xmlns="http://www.w3.org/2000/svg" xmlns:xlink="http://www.w3.org/1999/xlink">
<g id="graph0" class="graph" transform="scale(1 1) rotate(0) translate(4 82)">
<title>Graphical Class Hierarchy</title>
<!-- Node0 -->
<g id="Node000000" class="node">
<title>Node0</title>
<g id="a_Node000000"><a xlink:title=" ">
<polygon fill="#e0e0e0" stroke="#999999" points="29,-48.5 0,-48.5 0,-29.5 29,-29.5 29,-48.5"/>
<text text-anchor="middle" x="14.5" y="-36.5" font-family="Helvetica,sans-Serif" font-size="10.00">T</text>
</a>
</g>
</g>
<!-- Node1 -->
<g id="Node000001" class="node">
<title>Node1</title>
<g id="a_Node000001"><a xlink:href="structrobin__hood_1_1detail_1_1WrapHash.html" target="_top" xlink:title=" ">
<polygon fill="white" stroke="#666666" points="178,-78 74,-78 74,-48 178,-48 178,-78"/>
<text text-anchor="start" x="82" y="-66" font-family="Helvetica,sans-Serif" font-size="10.00">robin_hood::detail</text>
<text text-anchor="middle" x="126" y="-55" font-family="Helvetica,sans-Serif" font-size="10.00">::WrapHash&lt; T &gt;</text>
</a>
</g>
</g>
<!-- Node0&#45;&gt;Node1 -->
<g id="edge27_Node000000_Node000001" class="edge">
<title>Node0&#45;&gt;Node1</title>
<g id="a_edge27_Node000000_Node000001"><a xlink:title=" ">
<path fill="none" stroke="#63b8ff" d="M39.39,-44.24C49.47,-46.45 61.63,-49.11 73.57,-51.73"/>
<polygon fill="#63b8ff" stroke="#63b8ff" points="39.89,-40.76 29.37,-42.04 38.39,-47.6 39.89,-40.76"/>
</a>
</g>
</g>
<!-- Node2 -->
<g id="Node000002" class="node">
<title>Node2</title>
<g id="a_Node000002"><a xlink:href="structrobin__hood_1_1detail_1_1WrapKeyEqual.html" target="_top" xlink:title=" ">
<polygon fill="white" stroke="#666666" points="187,-30 65,-30 65,0 187,0 187,-30"/>
<text text-anchor="start" x="73" y="-18" font-family="Helvetica,sans-Serif" font-size="10.00">robin_hood::detail</text>
<text text-anchor="middle" x="126" y="-7" font-family="Helvetica,sans-Serif" font-size="10.00">::WrapKeyEqual&lt; T &gt;</text>
</a>
</g>
</g>
<!-- Node0&#45;&gt;Node2 -->
<g id="edge28_Node000000_Node000002" class="edge">
<title>Node0&#45;&gt;Node2</title>
<g id="a_edge28_Node000000_Node000002"><a xlink:title=" ">
<path fill="none" stroke="#63b8ff" d="M39.22,-33.8C46.82,-32.14 55.61,-30.21 64.6,-28.24"/>
<polygon fill="#63b8ff" stroke="#63b8ff" points="38.39,-30.4 29.37,-35.96 39.89,-37.24 38.39,-30.4"/>
</a>
</g>
</g>
</g>
</svg>
