<?xml version="1.0" encoding="UTF-8" standalone="no"?>
<!DOCTYPE svg PUBLIC "-//W3C//DTD SVG 1.1//EN"
 "http://www.w3.org/Graphics/SVG/1.1/DTD/svg11.dtd">
<!-- Generated by graphviz version 2.43.0 (0)
 -->
<!-- Title: Graphical Class Hierarchy Pages: 1 -->
<svg width="490pt" height="211pt"
 viewBox="0.00 0.00 490.00 211.00" xmlns="http://www.w3.org/2000/svg" xmlns:xlink="http://www.w3.org/1999/xlink">
<g id="graph0" class="graph" transform="scale(1 1) rotate(0) translate(4 207)">
<title>Graphical Class Hierarchy</title>
<!-- Node0 -->
<g id="Node000000" class="node">
<title>Node0</title>
<g id="a_Node000000"><a xlink:title=" ">
<polygon fill="#e0e0e0" stroke="#999999" points="51.5,-148 10.5,-148 10.5,-129 51.5,-129 51.5,-148"/>
<text text-anchor="middle" x="31" y="-136" font-family="Helvetica,sans-Serif" font-size="10.00">Hash</text>
</a>
</g>
</g>
<!-- Node1 -->
<g id="Node000001" class="node">
<title>Node1</title>
<g id="a_Node000001"><a xlink:href="structrobin__hood_1_1detail_1_1WrapHash.html" target="_top" xlink:title=" ">
<polygon fill="white" stroke="#666666" points="238.5,-153.5 118.5,-153.5 118.5,-123.5 238.5,-123.5 238.5,-153.5"/>
<text text-anchor="start" x="126.5" y="-141.5" font-family="Helvetica,sans-Serif" font-size="10.00">robin_hood::detail</text>
<text text-anchor="middle" x="178.5" y="-130.5" font-family="Helvetica,sans-Serif" font-size="10.00">::WrapHash&lt; Hash &gt;</text>
</a>
</g>
</g>
<!-- Node0&#45;&gt;Node1 -->
<g id="edge3_Node000000_Node000001" class="edge">
<title>Node0&#45;&gt;Node1</title>
<g id="a_edge3_Node000000_Node000001"><a xlink:title=" ">
<path fill="none" stroke="#63b8ff" d="M61.64,-138.5C77.97,-138.5 98.84,-138.5 118.35,-138.5"/>
<polygon fill="#63b8ff" stroke="#63b8ff" points="61.62,-135 51.62,-138.5 61.62,-142 61.62,-135"/>
</a>
</g>
</g>
<!-- Node2 -->
<g id="Node000002" class="node">
<title>Node2</title>
<g id="a_Node000002"><a xlink:href="classrobin__hood_1_1detail_1_1Table.html" target="_top" xlink:title=" ">
<polygon fill="white" stroke="#666666" points="476.5,-203 300.5,-203 300.5,-140 476.5,-140 476.5,-203"/>
<text text-anchor="start" x="308.5" y="-191" font-family="Helvetica,sans-Serif" font-size="10.00">robin_hood::detail</text>
<text text-anchor="start" x="308.5" y="-180" font-family="Helvetica,sans-Serif" font-size="10.00">::Table&lt; size_t, std</text>
<text text-anchor="start" x="308.5" y="-169" font-family="Helvetica,sans-Serif" font-size="10.00">::unique_ptr&lt; std::array</text>
<text text-anchor="start" x="308.5" y="-158" font-family="Helvetica,sans-Serif" font-size="10.00">&lt; std::vector&lt; uvgvpcc_enc</text>
<text text-anchor="middle" x="388.5" y="-147" font-family="Helvetica,sans-Serif" font-size="10.00">::Patch &gt;, MAX_GOF_SIZE &gt; &gt; &gt;</text>
</a>
</g>
</g>
<!-- Node1&#45;&gt;Node2 -->
<g id="edge4_Node000001_Node000002" class="edge">
<title>Node1&#45;&gt;Node2</title>
<g id="a_edge4_Node000001_Node000002"><a xlink:title=" ">
<path fill="none" stroke="#63b8ff" d="M248.66,-149.47C265.21,-152.1 283.1,-154.94 300.34,-157.67"/>
<polygon fill="#63b8ff" stroke="#63b8ff" points="248.97,-145.98 238.55,-147.87 247.88,-152.89 248.97,-145.98"/>
</a>
</g>
</g>
<!-- Node4 -->
<g id="Node000004" class="node">
<title>Node4</title>
<g id="a_Node000004"><a xlink:href="classrobin__hood_1_1detail_1_1Table.html" target="_top" xlink:title=" ">
<polygon fill="white" stroke="#666666" points="456.5,-122 320.5,-122 320.5,-59 456.5,-59 456.5,-122"/>
<text text-anchor="start" x="328.5" y="-110" font-family="Helvetica,sans-Serif" font-size="10.00">robin_hood::detail</text>
<text text-anchor="start" x="328.5" y="-99" font-family="Helvetica,sans-Serif" font-size="10.00">::Table&lt; size_t, std</text>
<text text-anchor="start" x="328.5" y="-88" font-family="Helvetica,sans-Serif" font-size="10.00">::unique_ptr&lt; std::array</text>
<text text-anchor="start" x="328.5" y="-77" font-family="Helvetica,sans-Serif" font-size="10.00">&lt; std::vector&lt; uint8_t &gt;</text>
<text text-anchor="middle" x="388.5" y="-66" font-family="Helvetica,sans-Serif" font-size="10.00">, MAX_GOF_SIZE &gt; &gt; &gt;</text>
</a>
</g>
</g>
<!-- Node1&#45;&gt;Node4 -->
<g id="edge5_Node000001_Node000004" class="edge">
<title>Node1&#45;&gt;Node4</title>
<g id="a_edge5_Node000001_Node000004"><a xlink:title=" ">
<path fill="none" stroke="#63b8ff" d="M248.6,-122.55C271.66,-117.23 297.32,-111.31 320.24,-106.02"/>
<polygon fill="#63b8ff" stroke="#63b8ff" points="247.5,-119.21 238.55,-124.87 249.08,-126.04 247.5,-119.21"/>
</a>
</g>
</g>
<!-- Node6 -->
<g id="Node000006" class="node">
<title>Node6</title>
<g id="a_Node000006"><a xlink:href="classrobin__hood_1_1detail_1_1Table.html" target="_top" xlink:title=" ">
<polygon fill="white" stroke="#666666" points="482,-41 295,-41 295,0 482,0 482,-41"/>
<text text-anchor="start" x="303" y="-29" font-family="Helvetica,sans-Serif" font-size="10.00">robin_hood::detail</text>
<text text-anchor="start" x="303" y="-18" font-family="Helvetica,sans-Serif" font-size="10.00">::Table&lt; IsFlat, MaxLoadFactor100,</text>
<text text-anchor="middle" x="388.5" y="-7" font-family="Helvetica,sans-Serif" font-size="10.00"> Key, T, Hash, KeyEqual &gt;</text>
</a>
</g>
</g>
<!-- Node1&#45;&gt;Node6 -->
<g id="edge6_Node000001_Node000006" class="edge">
<title>Node1&#45;&gt;Node6</title>
<g id="a_edge6_Node000001_Node000006"><a xlink:title=" ">
<path fill="none" stroke="#63b8ff" d="M247.62,-122C251.65,-119.8 255.49,-117.32 259,-114.5 284.46,-94.09 269.75,-71.17 295,-50.5 299.31,-46.97 304.05,-43.85 309.03,-41.1"/>
<polygon fill="#63b8ff" stroke="#63b8ff" points="246.04,-118.87 238.53,-126.35 249.07,-125.18 246.04,-118.87"/>
</a>
</g>
</g>
<!-- Node7 -->
<g id="Node000007" class="node">
<title>Node7</title>
<g id="a_Node000007"><a xlink:title=" ">
<polygon fill="#e0e0e0" stroke="#999999" points="62,-100 0,-100 0,-81 62,-81 62,-100"/>
<text text-anchor="middle" x="31" y="-88" font-family="Helvetica,sans-Serif" font-size="10.00">KeyEqual</text>
</a>
</g>
</g>
<!-- Node3 -->
<g id="Node000003" class="node">
<title>Node3</title>
<g id="a_Node000003"><a xlink:href="structrobin__hood_1_1detail_1_1WrapKeyEqual.html" target="_top" xlink:title=" ">
<polygon fill="white" stroke="#666666" points="259,-105.5 98,-105.5 98,-75.5 259,-75.5 259,-105.5"/>
<text text-anchor="start" x="106" y="-93.5" font-family="Helvetica,sans-Serif" font-size="10.00">robin_hood::detail</text>
<text text-anchor="middle" x="178.5" y="-82.5" font-family="Helvetica,sans-Serif" font-size="10.00">::WrapKeyEqual&lt; KeyEqual &gt;</text>
</a>
</g>
</g>
<!-- Node7&#45;&gt;Node3 -->
<g id="edge7_Node000007_Node000003" class="edge">
<title>Node7&#45;&gt;Node3</title>
<g id="a_edge7_Node000007_Node000003"><a xlink:title=" ">
<path fill="none" stroke="#63b8ff" d="M72.28,-90.5C80.32,-90.5 89.01,-90.5 97.85,-90.5"/>
<polygon fill="#63b8ff" stroke="#63b8ff" points="72.15,-87 62.15,-90.5 72.15,-94 72.15,-87"/>
</a>
</g>
</g>
<!-- Node3&#45;&gt;Node2 -->
<g id="edge8_Node000003_Node000002" class="edge">
<title>Node3&#45;&gt;Node2</title>
<g id="a_edge8_Node000003_Node000002"><a xlink:title=" ">
<path fill="none" stroke="#63b8ff" d="M243.09,-108.77C248.5,-110.61 253.87,-112.53 259,-114.5 275.51,-120.85 278.88,-124.21 295,-131.5 301.14,-134.28 307.52,-137.12 313.94,-139.95"/>
<polygon fill="#63b8ff" stroke="#63b8ff" points="243.91,-105.36 233.32,-105.57 241.73,-112.01 243.91,-105.36"/>
</a>
</g>
</g>
<!-- Node3&#45;&gt;Node4 -->
<g id="edge9_Node000003_Node000004" class="edge">
<title>Node3&#45;&gt;Node4</title>
<g id="a_edge9_Node000003_Node000004"><a xlink:title=" ">
<path fill="none" stroke="#63b8ff" d="M269.05,-90.5C286.21,-90.5 303.9,-90.5 320.21,-90.5"/>
<polygon fill="#63b8ff" stroke="#63b8ff" points="269.03,-87 259.03,-90.5 269.03,-94 269.03,-87"/>
</a>
</g>
</g>
<!-- Node3&#45;&gt;Node6 -->
<g id="edge10_Node000003_Node000006" class="edge">
<title>Node3&#45;&gt;Node6</title>
<g id="a_edge10_Node000003_Node000006"><a xlink:title=" ">
<path fill="none" stroke="#63b8ff" d="M242.36,-72.32C248.02,-70.45 253.63,-68.49 259,-66.5 275.41,-60.4 278.65,-56.76 295,-50.5 303.36,-47.3 312.22,-44.14 321.01,-41.14"/>
<polygon fill="#63b8ff" stroke="#63b8ff" points="241.27,-69 232.83,-75.4 243.43,-75.66 241.27,-69"/>
</a>
</g>
</g>
<!-- Node5 -->
<g id="Node000005" class="node">
<title>Node5</title>
<g id="a_Node000005"><a xlink:href="structrobin__hood_1_1detail_1_1NodeAllocator.html" target="_top" xlink:title=" ">
<polygon fill="white" stroke="#666666" points="253,-57 104,-57 104,-16 253,-16 253,-57"/>
<text text-anchor="start" x="112" y="-45" font-family="Helvetica,sans-Serif" font-size="10.00">robin_hood::detail</text>
<text text-anchor="start" x="112" y="-34" font-family="Helvetica,sans-Serif" font-size="10.00">::NodeAllocator&lt; T,</text>
<text text-anchor="middle" x="178.5" y="-23" font-family="Helvetica,sans-Serif" font-size="10.00"> MinSize, MaxSize, IsFlat &gt;</text>
</a>
</g>
</g>
<!-- Node5&#45;&gt;Node2 -->
<g id="edge11_Node000005_Node000002" class="edge">
<title>Node5&#45;&gt;Node2</title>
<g id="a_edge11_Node000005_Node000002"><a xlink:title=" ">
<path fill="none" stroke="#8b1a1a" d="M254.3,-62.75C255.92,-63.95 257.49,-65.2 259,-66.5 283.98,-88.1 270.54,-109.32 295,-131.5 298.24,-134.44 301.73,-137.18 305.39,-139.75"/>
<polygon fill="#8b1a1a" stroke="#8b1a1a" points="256.11,-59.75 245.83,-57.19 252.27,-65.6 256.11,-59.75"/>
</a>
</g>
</g>
<!-- Node5&#45;&gt;Node4 -->
<g id="edge12_Node000005_Node000004" class="edge">
<title>Node5&#45;&gt;Node4</title>
<g id="a_edge12_Node000005_Node000004"><a xlink:title=" ">
<path fill="none" stroke="#8b1a1a" d="M262.97,-58.17C282,-63.11 301.98,-68.3 320.22,-73.03"/>
<polygon fill="#8b1a1a" stroke="#8b1a1a" points="263.68,-54.74 253.13,-55.61 261.93,-61.51 263.68,-54.74"/>
</a>
</g>
</g>
<!-- Node5&#45;&gt;Node6 -->
<g id="edge13_Node000005_Node000006" class="edge">
<title>Node5&#45;&gt;Node6</title>
<g id="a_edge13_Node000005_Node000006"><a xlink:title=" ">
<path fill="none" stroke="#8b1a1a" d="M263.33,-30.05C273.64,-29.26 284.22,-28.44 294.66,-27.64"/>
<polygon fill="#8b1a1a" stroke="#8b1a1a" points="262.83,-26.58 253.13,-30.84 263.36,-33.56 262.83,-26.58"/>
</a>
</g>
</g>
</g>
</svg>
