<?xml version="1.0" encoding="UTF-8" standalone="no"?>
<!DOCTYPE svg PUBLIC "-//W3C//DTD SVG 1.1//EN"
 "http://www.w3.org/Graphics/SVG/1.1/DTD/svg11.dtd">
<!-- Generated by graphviz version 2.43.0 (0)
 -->
<!-- Title: src/libuvgvpccenc/patchGeneration/kdTree.cpp Pages: 1 -->
<svg width="1349pt" height="313pt"
 viewBox="0.00 0.00 1349.47 313.00" xmlns="http://www.w3.org/2000/svg" xmlns:xlink="http://www.w3.org/1999/xlink">
<g id="graph0" class="graph" transform="scale(1 1) rotate(0) translate(4 309)">
<title>src/libuvgvpccenc/patchGeneration/kdTree.cpp</title>
<!-- Node1 -->
<g id="Node000001" class="node">
<title>Node1</title>
<g id="a_Node000001"><a xlink:title=" ">
<polygon fill="#999999" stroke="#666666" points="1178.5,-305 990.5,-305 990.5,-275 1178.5,-275 1178.5,-305"/>
<text text-anchor="start" x="998.5" y="-293" font-family="Helvetica,sans-Serif" font-size="10.00">src/libuvgvpccenc/patchGeneration</text>
<text text-anchor="middle" x="1084.5" y="-282" font-family="Helvetica,sans-Serif" font-size="10.00">/kdTree.cpp</text>
</a>
</g>
</g>
<!-- Node2 -->
<g id="Node000002" class="node">
<title>Node2</title>
<g id="a_Node000002"><a xlink:href="kdTree_8hpp.html" target="_top" xlink:title=" ">
<polygon fill="white" stroke="#666666" points="1119.5,-239 1049.5,-239 1049.5,-220 1119.5,-220 1119.5,-239"/>
<text text-anchor="middle" x="1084.5" y="-227" font-family="Helvetica,sans-Serif" font-size="10.00">kdTree.hpp</text>
</a>
</g>
</g>
<!-- Node1&#45;&gt;Node2 -->
<g id="edge1_Node000001_Node000002" class="edge">
<title>Node1&#45;&gt;Node2</title>
<g id="a_edge1_Node000001_Node000002"><a xlink:title=" ">
<path fill="none" stroke="#63b8ff" d="M1084.5,-274.84C1084.5,-267.21 1084.5,-257.7 1084.5,-249.45"/>
<polygon fill="#63b8ff" stroke="#63b8ff" points="1088,-249.27 1084.5,-239.27 1081,-249.27 1088,-249.27"/>
</a>
</g>
</g>
<!-- Node3 -->
<g id="Node000003" class="node">
<title>Node3</title>
<g id="a_Node000003"><a xlink:href="nanoflann_8hpp.html" target="_top" xlink:title=" ">
<polygon fill="white" stroke="#666666" points="596.5,-129 510.5,-129 510.5,-110 596.5,-110 596.5,-129"/>
<text text-anchor="middle" x="553.5" y="-117" font-family="Helvetica,sans-Serif" font-size="10.00">nanoflann.hpp</text>
</a>
</g>
</g>
<!-- Node2&#45;&gt;Node3 -->
<g id="edge2_Node000002_Node000003" class="edge">
<title>Node2&#45;&gt;Node3</title>
<g id="a_edge2_Node000002_Node000003"><a xlink:title=" ">
<path fill="none" stroke="#63b8ff" d="M1049.25,-221.33C957.92,-202.75 713.26,-152.99 605.59,-131.09"/>
<polygon fill="#63b8ff" stroke="#63b8ff" points="606.1,-127.63 595.6,-129.06 604.7,-134.49 606.1,-127.63"/>
</a>
</g>
</g>
<!-- Node18 -->
<g id="Node000018" class="node">
<title>Node18</title>
<g id="a_Node000018"><a xlink:href="constants_8hpp.html" target="_top" xlink:title=" ">
<polygon fill="white" stroke="#666666" points="1222,-184 1113,-184 1113,-165 1222,-165 1222,-184"/>
<text text-anchor="middle" x="1167.5" y="-172" font-family="Helvetica,sans-Serif" font-size="10.00">utils/constants.hpp</text>
</a>
</g>
</g>
<!-- Node2&#45;&gt;Node18 -->
<g id="edge17_Node000002_Node000018" class="edge">
<title>Node2&#45;&gt;Node18</title>
<g id="a_edge17_Node000002_Node000018"><a xlink:title=" ">
<path fill="none" stroke="#63b8ff" d="M1097.84,-219.98C1110.59,-211.84 1130.05,-199.41 1145.17,-189.76"/>
<polygon fill="#63b8ff" stroke="#63b8ff" points="1147.38,-192.5 1153.92,-184.17 1143.61,-186.6 1147.38,-192.5"/>
</a>
</g>
</g>
<!-- Node23 -->
<g id="Node000023" class="node">
<title>Node23</title>
<g id="a_Node000023"><a xlink:href="utils_8hpp.html" target="_top" xlink:title=" ">
<polygon fill="white" stroke="#666666" points="1139,-129 1038,-129 1038,-110 1139,-110 1139,-129"/>
<text text-anchor="middle" x="1088.5" y="-117" font-family="Helvetica,sans-Serif" font-size="10.00">uvgutils/utils.hpp</text>
</a>
</g>
</g>
<!-- Node2&#45;&gt;Node23 -->
<g id="edge38_Node000002_Node000023" class="edge">
<title>Node2&#45;&gt;Node23</title>
<g id="a_edge38_Node000002_Node000023"><a xlink:title=" ">
<path fill="none" stroke="#63b8ff" d="M1084.83,-219.66C1085.48,-202.17 1086.93,-162.8 1087.8,-139.27"/>
<polygon fill="#63b8ff" stroke="#63b8ff" points="1091.31,-139.28 1088.18,-129.16 1084.31,-139.02 1091.31,-139.28"/>
</a>
</g>
</g>
<!-- Node4 -->
<g id="Node000004" class="node">
<title>Node4</title>
<g id="a_Node000004"><a xlink:title=" ">
<polygon fill="#e0e0e0" stroke="#999999" points="744.5,-74 680.5,-74 680.5,-55 744.5,-55 744.5,-74"/>
<text text-anchor="middle" x="712.5" y="-62" font-family="Helvetica,sans-Serif" font-size="10.00">algorithm</text>
</a>
</g>
</g>
<!-- Node3&#45;&gt;Node4 -->
<g id="edge3_Node000003_Node000004" class="edge">
<title>Node3&#45;&gt;Node4</title>
<g id="a_edge3_Node000003_Node000004"><a xlink:title=" ">
<path fill="none" stroke="#63b8ff" d="M579.05,-109.98C605.62,-101.13 647.44,-87.19 677.17,-77.28"/>
<polygon fill="#63b8ff" stroke="#63b8ff" points="678.37,-80.56 686.75,-74.08 676.16,-73.92 678.37,-80.56"/>
</a>
</g>
</g>
<!-- Node5 -->
<g id="Node000005" class="node">
<title>Node5</title>
<g id="a_Node000005"><a xlink:title=" ">
<polygon fill="#e0e0e0" stroke="#999999" points="942.5,-74 900.5,-74 900.5,-55 942.5,-55 942.5,-74"/>
<text text-anchor="middle" x="921.5" y="-62" font-family="Helvetica,sans-Serif" font-size="10.00">array</text>
</a>
</g>
</g>
<!-- Node3&#45;&gt;Node5 -->
<g id="edge4_Node000003_Node000005" class="edge">
<title>Node3&#45;&gt;Node5</title>
<g id="a_edge4_Node000003_Node000005"><a xlink:title=" ">
<path fill="none" stroke="#63b8ff" d="M596.52,-114.85C659.17,-109.1 779.28,-96.42 890.27,-73.98"/>
<polygon fill="#63b8ff" stroke="#63b8ff" points="891.2,-77.36 900.29,-71.92 889.79,-70.51 891.2,-77.36"/>
</a>
</g>
</g>
<!-- Node6 -->
<g id="Node000006" class="node">
<title>Node6</title>
<g id="a_Node000006"><a xlink:title=" ">
<polygon fill="#e0e0e0" stroke="#999999" points="812.5,-74 762.5,-74 762.5,-55 812.5,-55 812.5,-74"/>
<text text-anchor="middle" x="787.5" y="-62" font-family="Helvetica,sans-Serif" font-size="10.00">atomic</text>
</a>
</g>
</g>
<!-- Node3&#45;&gt;Node6 -->
<g id="edge5_Node000003_Node000006" class="edge">
<title>Node3&#45;&gt;Node6</title>
<g id="a_edge5_Node000003_Node000006"><a xlink:title=" ">
<path fill="none" stroke="#63b8ff" d="M593.41,-109.94C631.78,-101.64 691.64,-88.5 752.5,-74.19"/>
<polygon fill="#63b8ff" stroke="#63b8ff" points="753.34,-77.59 762.27,-71.89 751.73,-70.78 753.34,-77.59"/>
</a>
</g>
</g>
<!-- Node7 -->
<g id="Node000007" class="node">
<title>Node7</title>
<g id="a_Node000007"><a xlink:title=" ">
<polygon fill="#e0e0e0" stroke="#999999" points="882.5,-74 830.5,-74 830.5,-55 882.5,-55 882.5,-74"/>
<text text-anchor="middle" x="856.5" y="-62" font-family="Helvetica,sans-Serif" font-size="10.00">cassert</text>
</a>
</g>
</g>
<!-- Node3&#45;&gt;Node7 -->
<g id="edge6_Node000003_Node000007" class="edge">
<title>Node3&#45;&gt;Node7</title>
<g id="a_edge6_Node000003_Node000007"><a xlink:title=" ">
<path fill="none" stroke="#63b8ff" d="M596.85,-112.31C647.97,-104.78 735.7,-91.17 820.16,-74.15"/>
<polygon fill="#63b8ff" stroke="#63b8ff" points="821.07,-77.54 830.17,-72.11 819.68,-70.68 821.07,-77.54"/>
</a>
</g>
</g>
<!-- Node8 -->
<g id="Node000008" class="node">
<title>Node8</title>
<g id="a_Node000008"><a xlink:title=" ">
<polygon fill="#e0e0e0" stroke="#999999" points="47,-74 0,-74 0,-55 47,-55 47,-74"/>
<text text-anchor="middle" x="23.5" y="-62" font-family="Helvetica,sans-Serif" font-size="10.00">cmath</text>
</a>
</g>
</g>
<!-- Node3&#45;&gt;Node8 -->
<g id="edge7_Node000003_Node000008" class="edge">
<title>Node3&#45;&gt;Node8</title>
<g id="a_edge7_Node000003_Node000008"><a xlink:title=" ">
<path fill="none" stroke="#63b8ff" d="M510.21,-117.11C425.03,-113.85 229.61,-103.72 57.18,-74.02"/>
<polygon fill="#63b8ff" stroke="#63b8ff" points="57.62,-70.54 47.17,-72.27 56.41,-77.44 57.62,-70.54"/>
</a>
</g>
</g>
<!-- Node9 -->
<g id="Node000009" class="node">
<title>Node9</title>
<g id="a_Node000009"><a xlink:title=" ">
<polygon fill="#e0e0e0" stroke="#999999" points="114,-74 65,-74 65,-55 114,-55 114,-74"/>
<text text-anchor="middle" x="89.5" y="-62" font-family="Helvetica,sans-Serif" font-size="10.00">cstdlib</text>
</a>
</g>
</g>
<!-- Node3&#45;&gt;Node9 -->
<g id="edge8_Node000003_Node000009" class="edge">
<title>Node3&#45;&gt;Node9</title>
<g id="a_edge8_Node000003_Node000009"><a xlink:title=" ">
<path fill="none" stroke="#63b8ff" d="M510.38,-116.18C434.2,-111.63 270.74,-99.78 124.34,-74.1"/>
<polygon fill="#63b8ff" stroke="#63b8ff" points="124.74,-70.61 114.28,-72.31 123.51,-77.5 124.74,-70.61"/>
</a>
</g>
</g>
<!-- Node10 -->
<g id="Node000010" class="node">
<title>Node10</title>
<g id="a_Node000010"><a xlink:title=" ">
<polygon fill="#e0e0e0" stroke="#999999" points="197,-74 132,-74 132,-55 197,-55 197,-74"/>
<text text-anchor="middle" x="164.5" y="-62" font-family="Helvetica,sans-Serif" font-size="10.00">functional</text>
</a>
</g>
</g>
<!-- Node3&#45;&gt;Node10 -->
<g id="edge9_Node000003_Node000010" class="edge">
<title>Node3&#45;&gt;Node10</title>
<g id="a_edge9_Node000003_Node000010"><a xlink:title=" ">
<path fill="none" stroke="#63b8ff" d="M510.35,-113.98C446.44,-107.06 322.68,-92.82 207.1,-73.98"/>
<polygon fill="#63b8ff" stroke="#63b8ff" points="207.45,-70.49 197.02,-72.32 206.32,-77.4 207.45,-70.49"/>
</a>
</g>
</g>
<!-- Node11 -->
<g id="Node000011" class="node">
<title>Node11</title>
<g id="a_Node000011"><a xlink:title=" ">
<polygon fill="#e0e0e0" stroke="#999999" points="261.5,-74 215.5,-74 215.5,-55 261.5,-55 261.5,-74"/>
<text text-anchor="middle" x="238.5" y="-62" font-family="Helvetica,sans-Serif" font-size="10.00">future</text>
</a>
</g>
</g>
<!-- Node3&#45;&gt;Node11 -->
<g id="edge10_Node000003_Node000011" class="edge">
<title>Node3&#45;&gt;Node11</title>
<g id="a_edge10_Node000003_Node000011"><a xlink:title=" ">
<path fill="none" stroke="#63b8ff" d="M510.1,-113.1C456.29,-106.09 361.64,-92.73 271.35,-73.99"/>
<polygon fill="#63b8ff" stroke="#63b8ff" points="272.01,-70.55 261.5,-71.92 270.57,-77.4 272.01,-70.55"/>
</a>
</g>
</g>
<!-- Node12 -->
<g id="Node000012" class="node">
<title>Node12</title>
<g id="a_Node000012"><a xlink:title=" ">
<polygon fill="#e0e0e0" stroke="#999999" points="333.5,-74 279.5,-74 279.5,-55 333.5,-55 333.5,-74"/>
<text text-anchor="middle" x="306.5" y="-62" font-family="Helvetica,sans-Serif" font-size="10.00">istream</text>
</a>
</g>
</g>
<!-- Node3&#45;&gt;Node12 -->
<g id="edge11_Node000003_Node000012" class="edge">
<title>Node3&#45;&gt;Node12</title>
<g id="a_edge11_Node000003_Node000012"><a xlink:title=" ">
<path fill="none" stroke="#63b8ff" d="M511.4,-109.93C470.85,-101.61 407.52,-88.43 343.48,-74.18"/>
<polygon fill="#63b8ff" stroke="#63b8ff" points="344.13,-70.74 333.61,-71.97 342.61,-77.57 344.13,-70.74"/>
</a>
</g>
</g>
<!-- Node13 -->
<g id="Node000013" class="node">
<title>Node13</title>
<g id="a_Node000013"><a xlink:title=" ">
<polygon fill="#e0e0e0" stroke="#999999" points="1004.5,-74 960.5,-74 960.5,-55 1004.5,-55 1004.5,-74"/>
<text text-anchor="middle" x="982.5" y="-62" font-family="Helvetica,sans-Serif" font-size="10.00">limits</text>
</a>
</g>
</g>
<!-- Node3&#45;&gt;Node13 -->
<g id="edge12_Node000003_Node000013" class="edge">
<title>Node3&#45;&gt;Node13</title>
<g id="a_edge12_Node000003_Node000013"><a xlink:title=" ">
<path fill="none" stroke="#63b8ff" d="M596.53,-115.9C668.1,-111.1 816.18,-99.13 950.21,-73.96"/>
<polygon fill="#63b8ff" stroke="#63b8ff" points="951.08,-77.36 960.25,-72.05 949.77,-70.48 951.08,-77.36"/>
</a>
</g>
</g>
<!-- Node14 -->
<g id="Node000014" class="node">
<title>Node14</title>
<g id="a_Node000014"><a xlink:title=" ">
<polygon fill="#e0e0e0" stroke="#999999" points="409,-74 352,-74 352,-55 409,-55 409,-74"/>
<text text-anchor="middle" x="380.5" y="-62" font-family="Helvetica,sans-Serif" font-size="10.00">ostream</text>
</a>
</g>
</g>
<!-- Node3&#45;&gt;Node14 -->
<g id="edge13_Node000003_Node000014" class="edge">
<title>Node3&#45;&gt;Node14</title>
<g id="a_edge13_Node000003_Node000014"><a xlink:title=" ">
<path fill="none" stroke="#63b8ff" d="M525.7,-109.98C496.53,-101.05 450.5,-86.94 418.1,-77.02"/>
<polygon fill="#63b8ff" stroke="#63b8ff" points="419.1,-73.66 408.51,-74.08 417.05,-80.36 419.1,-73.66"/>
</a>
</g>
</g>
<!-- Node15 -->
<g id="Node000015" class="node">
<title>Node15</title>
<g id="a_Node000015"><a xlink:title=" ">
<polygon fill="#e0e0e0" stroke="#999999" points="492,-74 427,-74 427,-55 492,-55 492,-74"/>
<text text-anchor="middle" x="459.5" y="-62" font-family="Helvetica,sans-Serif" font-size="10.00">stdexcept</text>
</a>
</g>
</g>
<!-- Node3&#45;&gt;Node15 -->
<g id="edge14_Node000003_Node000015" class="edge">
<title>Node3&#45;&gt;Node15</title>
<g id="a_edge14_Node000003_Node000015"><a xlink:title=" ">
<path fill="none" stroke="#63b8ff" d="M538.4,-109.98C523.68,-101.69 501.08,-88.94 483.83,-79.22"/>
<polygon fill="#63b8ff" stroke="#63b8ff" points="485.31,-76.03 474.88,-74.17 481.87,-82.13 485.31,-76.03"/>
</a>
</g>
</g>
<!-- Node16 -->
<g id="Node000016" class="node">
<title>Node16</title>
<g id="a_Node000016"><a xlink:title=" ">
<polygon fill="#e0e0e0" stroke="#999999" points="596.5,-74 510.5,-74 510.5,-55 596.5,-55 596.5,-74"/>
<text text-anchor="middle" x="553.5" y="-62" font-family="Helvetica,sans-Serif" font-size="10.00">unordered_set</text>
</a>
</g>
</g>
<!-- Node3&#45;&gt;Node16 -->
<g id="edge15_Node000003_Node000016" class="edge">
<title>Node3&#45;&gt;Node16</title>
<g id="a_edge15_Node000003_Node000016"><a xlink:title=" ">
<path fill="none" stroke="#63b8ff" d="M553.5,-109.75C553.5,-102.8 553.5,-92.85 553.5,-84.13"/>
<polygon fill="#63b8ff" stroke="#63b8ff" points="557,-84.09 553.5,-74.09 550,-84.09 557,-84.09"/>
</a>
</g>
</g>
<!-- Node17 -->
<g id="Node000017" class="node">
<title>Node17</title>
<g id="a_Node000017"><a xlink:title=" ">
<polygon fill="#e0e0e0" stroke="#999999" points="662,-74 615,-74 615,-55 662,-55 662,-74"/>
<text text-anchor="middle" x="638.5" y="-62" font-family="Helvetica,sans-Serif" font-size="10.00">vector</text>
</a>
</g>
</g>
<!-- Node3&#45;&gt;Node17 -->
<g id="edge16_Node000003_Node000017" class="edge">
<title>Node3&#45;&gt;Node17</title>
<g id="a_edge16_Node000003_Node000017"><a xlink:title=" ">
<path fill="none" stroke="#63b8ff" d="M567.16,-109.98C580.34,-101.77 600.53,-89.18 616.07,-79.49"/>
<polygon fill="#63b8ff" stroke="#63b8ff" points="617.96,-82.43 624.59,-74.17 614.26,-76.49 617.96,-82.43"/>
</a>
</g>
</g>
<!-- Node18&#45;&gt;Node5 -->
<g id="edge18_Node000018_Node000005" class="edge">
<title>Node18&#45;&gt;Node5</title>
<g id="a_edge18_Node000018_Node000005"><a xlink:title=" ">
<path fill="none" stroke="#63b8ff" d="M1118.6,-164.93C1085.78,-158 1042.18,-146.48 1006.5,-129 980.58,-116.3 954.55,-95.36 938.25,-81.02"/>
<polygon fill="#63b8ff" stroke="#63b8ff" points="940.44,-78.29 930.67,-74.2 935.76,-83.49 940.44,-78.29"/>
</a>
</g>
</g>
<!-- Node18&#45;&gt;Node13 -->
<g id="edge22_Node000018_Node000013" class="edge">
<title>Node18&#45;&gt;Node13</title>
<g id="a_edge22_Node000018_Node000013"><a xlink:title=" ">
<path fill="none" stroke="#63b8ff" d="M1115.37,-164.99C1087.62,-158.54 1054.05,-147.51 1028.5,-129 1012.02,-117.06 999.1,-97.41 991.2,-83.13"/>
<polygon fill="#63b8ff" stroke="#63b8ff" points="994.3,-81.49 986.56,-74.26 988.1,-84.74 994.3,-81.49"/>
</a>
</g>
</g>
<!-- Node19 -->
<g id="Node000019" class="node">
<title>Node19</title>
<g id="a_Node000019"><a xlink:title=" ">
<polygon fill="#e0e0e0" stroke="#999999" points="1186,-74 1133,-74 1133,-55 1186,-55 1186,-74"/>
<text text-anchor="middle" x="1159.5" y="-62" font-family="Helvetica,sans-Serif" font-size="10.00">cstddef</text>
</a>
</g>
</g>
<!-- Node18&#45;&gt;Node19 -->
<g id="edge19_Node000018_Node000019" class="edge">
<title>Node18&#45;&gt;Node19</title>
<g id="a_edge19_Node000018_Node000019"><a xlink:title=" ">
<path fill="none" stroke="#63b8ff" d="M1166.85,-164.66C1165.55,-147.17 1162.63,-107.8 1160.89,-84.27"/>
<polygon fill="#63b8ff" stroke="#63b8ff" points="1164.37,-83.87 1160.14,-74.16 1157.39,-84.39 1164.37,-83.87"/>
</a>
</g>
</g>
<!-- Node20 -->
<g id="Node000020" class="node">
<title>Node20</title>
<g id="a_Node000020"><a xlink:title=" ">
<polygon fill="#e0e0e0" stroke="#999999" points="1254.5,-74 1204.5,-74 1204.5,-55 1254.5,-55 1254.5,-74"/>
<text text-anchor="middle" x="1229.5" y="-62" font-family="Helvetica,sans-Serif" font-size="10.00">cstdint</text>
</a>
</g>
</g>
<!-- Node18&#45;&gt;Node20 -->
<g id="edge20_Node000018_Node000020" class="edge">
<title>Node18&#45;&gt;Node20</title>
<g id="a_edge20_Node000018_Node000020"><a xlink:title=" ">
<path fill="none" stroke="#63b8ff" d="M1172.57,-164.66C1182.8,-146.85 1206.04,-106.37 1219.45,-83.01"/>
<polygon fill="#63b8ff" stroke="#63b8ff" points="1222.59,-84.57 1224.53,-74.16 1216.52,-81.09 1222.59,-84.57"/>
</a>
</g>
</g>
<!-- Node21 -->
<g id="Node000021" class="node">
<title>Node21</title>
<g id="a_Node000021"><a xlink:title=" ">
<polygon fill="#e0e0e0" stroke="#999999" points="1245.5,-19 1189.5,-19 1189.5,0 1245.5,0 1245.5,-19"/>
<text text-anchor="middle" x="1217.5" y="-7" font-family="Helvetica,sans-Serif" font-size="10.00">iomanip</text>
</a>
</g>
</g>
<!-- Node18&#45;&gt;Node21 -->
<g id="edge21_Node000018_Node000021" class="edge">
<title>Node18&#45;&gt;Node21</title>
<g id="a_edge21_Node000018_Node000021"><a xlink:title=" ">
<path fill="none" stroke="#63b8ff" d="M1201.15,-164.99C1241.96,-152.63 1308.86,-125.37 1337.5,-74 1357.01,-39.01 1297.7,-22.49 1255.65,-15.34"/>
<polygon fill="#63b8ff" stroke="#63b8ff" points="1256.07,-11.86 1245.65,-13.75 1254.98,-18.78 1256.07,-11.86"/>
</a>
</g>
</g>
<!-- Node22 -->
<g id="Node000022" class="node">
<title>Node22</title>
<g id="a_Node000022"><a xlink:title=" ">
<polygon fill="#e0e0e0" stroke="#999999" points="1328.5,-74 1272.5,-74 1272.5,-55 1328.5,-55 1328.5,-74"/>
<text text-anchor="middle" x="1300.5" y="-62" font-family="Helvetica,sans-Serif" font-size="10.00">sstream</text>
</a>
</g>
</g>
<!-- Node18&#45;&gt;Node22 -->
<g id="edge23_Node000018_Node000022" class="edge">
<title>Node18&#45;&gt;Node22</title>
<g id="a_edge23_Node000018_Node000022"><a xlink:title=" ">
<path fill="none" stroke="#63b8ff" d="M1178.38,-164.66C1201.1,-146.22 1253.77,-103.45 1281.94,-80.57"/>
<polygon fill="#63b8ff" stroke="#63b8ff" points="1284.28,-83.18 1289.84,-74.16 1279.87,-77.75 1284.28,-83.18"/>
</a>
</g>
</g>
<!-- Node18&#45;&gt;Node23 -->
<g id="edge24_Node000018_Node000023" class="edge">
<title>Node18&#45;&gt;Node23</title>
<g id="a_edge24_Node000018_Node000023"><a xlink:title=" ">
<path fill="none" stroke="#63b8ff" d="M1154.81,-164.98C1142.67,-156.84 1124.14,-144.41 1109.75,-134.76"/>
<polygon fill="#63b8ff" stroke="#63b8ff" points="1111.68,-131.84 1101.42,-129.17 1107.78,-137.65 1111.68,-131.84"/>
</a>
</g>
</g>
<!-- Node23&#45;&gt;Node5 -->
<g id="edge25_Node000023_Node000005" class="edge">
<title>Node23&#45;&gt;Node5</title>
<g id="a_edge25_Node000023_Node000005"><a xlink:title=" ">
<path fill="none" stroke="#63b8ff" d="M1061.67,-109.98C1031.8,-100.51 983.62,-85.21 952.25,-75.26"/>
<polygon fill="#63b8ff" stroke="#63b8ff" points="953.29,-71.92 942.7,-72.23 951.18,-78.59 953.29,-71.92"/>
</a>
</g>
</g>
<!-- Node23&#45;&gt;Node13 -->
<g id="edge29_Node000023_Node000013" class="edge">
<title>Node23&#45;&gt;Node13</title>
<g id="a_edge29_Node000023_Node000013"><a xlink:title=" ">
<path fill="none" stroke="#63b8ff" d="M1071.47,-109.98C1054.57,-101.54 1028.44,-88.47 1008.86,-78.68"/>
<polygon fill="#63b8ff" stroke="#63b8ff" points="1010.35,-75.51 999.84,-74.17 1007.22,-81.77 1010.35,-75.51"/>
</a>
</g>
</g>
<!-- Node23&#45;&gt;Node19 -->
<g id="edge26_Node000023_Node000019" class="edge">
<title>Node23&#45;&gt;Node19</title>
<g id="a_edge26_Node000023_Node000019"><a xlink:title=" ">
<path fill="none" stroke="#63b8ff" d="M1099.91,-109.98C1110.61,-102 1126.84,-89.88 1139.66,-80.31"/>
<polygon fill="#63b8ff" stroke="#63b8ff" points="1141.97,-82.96 1147.89,-74.17 1137.78,-77.35 1141.97,-82.96"/>
</a>
</g>
</g>
<!-- Node23&#45;&gt;Node20 -->
<g id="edge27_Node000023_Node000020" class="edge">
<title>Node23&#45;&gt;Node20</title>
<g id="a_edge27_Node000023_Node000020"><a xlink:title=" ">
<path fill="none" stroke="#63b8ff" d="M1111.15,-109.98C1134.35,-101.27 1170.62,-87.63 1196.9,-77.75"/>
<polygon fill="#63b8ff" stroke="#63b8ff" points="1198.3,-80.97 1206.43,-74.17 1195.84,-74.41 1198.3,-80.97"/>
</a>
</g>
</g>
<!-- Node23&#45;&gt;Node21 -->
<g id="edge28_Node000023_Node000021" class="edge">
<title>Node23&#45;&gt;Node21</title>
<g id="a_edge28_Node000023_Node000021"><a xlink:title=" ">
<path fill="none" stroke="#63b8ff" d="M1091.4,-109.58C1096.16,-96.17 1106.81,-70.69 1123.5,-55 1139.41,-40.04 1161.26,-29.29 1179.89,-22.1"/>
<polygon fill="#63b8ff" stroke="#63b8ff" points="1181.1,-25.39 1189.29,-18.67 1178.7,-18.81 1181.1,-25.39"/>
</a>
</g>
</g>
<!-- Node23&#45;&gt;Node22 -->
<g id="edge30_Node000023_Node000022" class="edge">
<title>Node23&#45;&gt;Node22</title>
<g id="a_edge30_Node000023_Node000022"><a xlink:title=" ">
<path fill="none" stroke="#63b8ff" d="M1122.56,-109.98C1160.79,-100.43 1222.64,-84.97 1262.43,-75.02"/>
<polygon fill="#63b8ff" stroke="#63b8ff" points="1263.44,-78.37 1272.29,-72.55 1261.74,-71.58 1263.44,-78.37"/>
</a>
</g>
</g>
<!-- Node24 -->
<g id="Node000024" class="node">
<title>Node24</title>
<g id="a_Node000024"><a xlink:href="log_8hpp.html" target="_top" xlink:title=" ">
<polygon fill="white" stroke="#666666" points="1076,-74 1023,-74 1023,-55 1076,-55 1076,-74"/>
<text text-anchor="middle" x="1049.5" y="-62" font-family="Helvetica,sans-Serif" font-size="10.00">log.hpp</text>
</a>
</g>
</g>
<!-- Node23&#45;&gt;Node24 -->
<g id="edge31_Node000023_Node000024" class="edge">
<title>Node23&#45;&gt;Node24</title>
<g id="a_edge31_Node000023_Node000024"><a xlink:title=" ">
<path fill="none" stroke="#63b8ff" d="M1082.06,-109.75C1076.61,-102.34 1068.64,-91.5 1061.94,-82.41"/>
<polygon fill="#63b8ff" stroke="#63b8ff" points="1064.57,-80.07 1055.82,-74.09 1058.93,-84.22 1064.57,-80.07"/>
</a>
</g>
</g>
<!-- Node24&#45;&gt;Node21 -->
<g id="edge34_Node000024_Node000021" class="edge">
<title>Node24&#45;&gt;Node21</title>
<g id="a_edge34_Node000024_Node000021"><a xlink:title=" ">
<path fill="none" stroke="#63b8ff" d="M1076.12,-55.1C1104.34,-46.2 1149.11,-32.08 1180.69,-22.11"/>
<polygon fill="#63b8ff" stroke="#63b8ff" points="1181.96,-25.38 1190.45,-19.03 1179.86,-18.71 1181.96,-25.38"/>
</a>
</g>
</g>
<!-- Node25 -->
<g id="Node000025" class="node">
<title>Node25</title>
<g id="a_Node000025"><a xlink:title=" ">
<polygon fill="#e0e0e0" stroke="#999999" points="893.5,-19 843.5,-19 843.5,0 893.5,0 893.5,-19"/>
<text text-anchor="middle" x="868.5" y="-7" font-family="Helvetica,sans-Serif" font-size="10.00">chrono</text>
</a>
</g>
</g>
<!-- Node24&#45;&gt;Node25 -->
<g id="edge32_Node000024_Node000025" class="edge">
<title>Node24&#45;&gt;Node25</title>
<g id="a_edge32_Node000024_Node000025"><a xlink:title=" ">
<path fill="none" stroke="#63b8ff" d="M1022.79,-55.68C991.11,-46.4 938.2,-30.91 903.33,-20.7"/>
<polygon fill="#63b8ff" stroke="#63b8ff" points="904.15,-17.29 893.57,-17.84 902.18,-24.01 904.15,-17.29"/>
</a>
</g>
</g>
<!-- Node26 -->
<g id="Node000026" class="node">
<title>Node26</title>
<g id="a_Node000026"><a xlink:title=" ">
<polygon fill="#e0e0e0" stroke="#999999" points="965,-19 912,-19 912,0 965,0 965,-19"/>
<text text-anchor="middle" x="938.5" y="-7" font-family="Helvetica,sans-Serif" font-size="10.00">cstdarg</text>
</a>
</g>
</g>
<!-- Node24&#45;&gt;Node26 -->
<g id="edge33_Node000024_Node000026" class="edge">
<title>Node24&#45;&gt;Node26</title>
<g id="a_edge33_Node000024_Node000026"><a xlink:title=" ">
<path fill="none" stroke="#63b8ff" d="M1031.67,-54.98C1013.89,-46.5 986.35,-33.35 965.82,-23.54"/>
<polygon fill="#63b8ff" stroke="#63b8ff" points="967.19,-20.32 956.66,-19.17 964.17,-26.64 967.19,-20.32"/>
</a>
</g>
</g>
<!-- Node27 -->
<g id="Node000027" class="node">
<title>Node27</title>
<g id="a_Node000027"><a xlink:title=" ">
<polygon fill="#e0e0e0" stroke="#999999" points="1043.5,-19 983.5,-19 983.5,0 1043.5,0 1043.5,-19"/>
<text text-anchor="middle" x="1013.5" y="-7" font-family="Helvetica,sans-Serif" font-size="10.00">iostream</text>
</a>
</g>
</g>
<!-- Node24&#45;&gt;Node27 -->
<g id="edge35_Node000024_Node000027" class="edge">
<title>Node24&#45;&gt;Node27</title>
<g id="a_edge35_Node000024_Node000027"><a xlink:title=" ">
<path fill="none" stroke="#63b8ff" d="M1043.56,-54.75C1038.52,-47.34 1031.16,-36.5 1024.99,-27.41"/>
<polygon fill="#63b8ff" stroke="#63b8ff" points="1027.85,-25.39 1019.33,-19.09 1022.06,-29.33 1027.85,-25.39"/>
</a>
</g>
</g>
<!-- Node28 -->
<g id="Node000028" class="node">
<title>Node28</title>
<g id="a_Node000028"><a xlink:title=" ">
<polygon fill="#e0e0e0" stroke="#999999" points="1109.5,-19 1061.5,-19 1061.5,0 1109.5,0 1109.5,-19"/>
<text text-anchor="middle" x="1085.5" y="-7" font-family="Helvetica,sans-Serif" font-size="10.00">mutex</text>
</a>
</g>
</g>
<!-- Node24&#45;&gt;Node28 -->
<g id="edge36_Node000024_Node000028" class="edge">
<title>Node24&#45;&gt;Node28</title>
<g id="a_edge36_Node000024_Node000028"><a xlink:title=" ">
<path fill="none" stroke="#63b8ff" d="M1055.44,-54.75C1060.48,-47.34 1067.84,-36.5 1074.01,-27.41"/>
<polygon fill="#63b8ff" stroke="#63b8ff" points="1076.94,-29.33 1079.67,-19.09 1071.15,-25.39 1076.94,-29.33"/>
</a>
</g>
</g>
<!-- Node29 -->
<g id="Node000029" class="node">
<title>Node29</title>
<g id="a_Node000029"><a xlink:title=" ">
<polygon fill="#e0e0e0" stroke="#999999" points="1171.5,-19 1127.5,-19 1127.5,0 1171.5,0 1171.5,-19"/>
<text text-anchor="middle" x="1149.5" y="-7" font-family="Helvetica,sans-Serif" font-size="10.00">string</text>
</a>
</g>
</g>
<!-- Node24&#45;&gt;Node29 -->
<g id="edge37_Node000024_Node000029" class="edge">
<title>Node24&#45;&gt;Node29</title>
<g id="a_edge37_Node000024_Node000029"><a xlink:title=" ">
<path fill="none" stroke="#63b8ff" d="M1065.57,-54.98C1081.36,-46.61 1105.72,-33.7 1124.13,-23.95"/>
<polygon fill="#63b8ff" stroke="#63b8ff" points="1125.94,-26.95 1133.14,-19.17 1122.67,-20.76 1125.94,-26.95"/>
</a>
</g>
</g>
</g>
</svg>
