<?xml version="1.0" encoding="UTF-8" standalone="no"?>
<!DOCTYPE svg PUBLIC "-//W3C//DTD SVG 1.1//EN"
 "http://www.w3.org/Graphics/SVG/1.1/DTD/svg11.dtd">
<!-- Generated by graphviz version 2.43.0 (0)
 -->
<!-- Title: src/lib/include/uvgvpcc/log.hpp Pages: 1 -->
<svg width="410pt" height="93pt"
 viewBox="0.00 0.00 410.00 93.00" xmlns="http://www.w3.org/2000/svg" xmlns:xlink="http://www.w3.org/1999/xlink">
<g id="graph0" class="graph" transform="scale(1 1) rotate(0) translate(4 89)">
<title>src/lib/include/uvgvpcc/log.hpp</title>
<!-- Node1 -->
<g id="Node000001" class="node">
<title>Node1</title>
<g id="a_Node000001"><a xlink:title=" ">
<polygon fill="#999999" stroke="#666666" points="270,-85 142,-85 142,-55 270,-55 270,-85"/>
<text text-anchor="start" x="150" y="-73" font-family="Helvetica,sans-Serif" font-size="10.00">src/lib/include/uvgvpcc</text>
<text text-anchor="middle" x="206" y="-62" font-family="Helvetica,sans-Serif" font-size="10.00">/log.hpp</text>
</a>
</g>
</g>
<!-- Node2 -->
<g id="Node000002" class="node">
<title>Node2</title>
<g id="a_Node000002"><a xlink:title=" ">
<polygon fill="#e0e0e0" stroke="#999999" points="50,-19 0,-19 0,0 50,0 50,-19"/>
<text text-anchor="middle" x="25" y="-7" font-family="Helvetica,sans-Serif" font-size="10.00">chrono</text>
</a>
</g>
</g>
<!-- Node1&#45;&gt;Node2 -->
<g id="edge1_Node000001_Node000002" class="edge">
<title>Node1&#45;&gt;Node2</title>
<g id="a_edge1_Node000001_Node000002"><a xlink:title=" ">
<path fill="none" stroke="#63b8ff" d="M162.65,-54.99C131.21,-44.83 89.25,-31.27 59.95,-21.8"/>
<polygon fill="#63b8ff" stroke="#63b8ff" points="60.75,-18.38 50.16,-18.63 58.59,-25.04 60.75,-18.38"/>
</a>
</g>
</g>
<!-- Node3 -->
<g id="Node000003" class="node">
<title>Node3</title>
<g id="a_Node000003"><a xlink:title=" ">
<polygon fill="#e0e0e0" stroke="#999999" points="121.5,-19 68.5,-19 68.5,0 121.5,0 121.5,-19"/>
<text text-anchor="middle" x="95" y="-7" font-family="Helvetica,sans-Serif" font-size="10.00">cstdarg</text>
</a>
</g>
</g>
<!-- Node1&#45;&gt;Node3 -->
<g id="edge2_Node000001_Node000003" class="edge">
<title>Node1&#45;&gt;Node3</title>
<g id="a_edge2_Node000001_Node000003"><a xlink:title=" ">
<path fill="none" stroke="#63b8ff" d="M179.41,-54.99C161.55,-45.58 138.16,-33.24 120.52,-23.95"/>
<polygon fill="#63b8ff" stroke="#63b8ff" points="121.87,-20.71 111.39,-19.14 118.61,-26.9 121.87,-20.71"/>
</a>
</g>
</g>
<!-- Node4 -->
<g id="Node000004" class="node">
<title>Node4</title>
<g id="a_Node000004"><a xlink:title=" ">
<polygon fill="#e0e0e0" stroke="#999999" points="196,-19 140,-19 140,0 196,0 196,-19"/>
<text text-anchor="middle" x="168" y="-7" font-family="Helvetica,sans-Serif" font-size="10.00">iomanip</text>
</a>
</g>
</g>
<!-- Node1&#45;&gt;Node4 -->
<g id="edge3_Node000001_Node000004" class="edge">
<title>Node1&#45;&gt;Node4</title>
<g id="a_edge3_Node000001_Node000004"><a xlink:title=" ">
<path fill="none" stroke="#63b8ff" d="M196.8,-54.84C191.51,-46.69 184.82,-36.4 179.22,-27.78"/>
<polygon fill="#63b8ff" stroke="#63b8ff" points="182.08,-25.75 173.69,-19.27 176.21,-29.56 182.08,-25.75"/>
</a>
</g>
</g>
<!-- Node5 -->
<g id="Node000005" class="node">
<title>Node5</title>
<g id="a_Node000005"><a xlink:title=" ">
<polygon fill="#e0e0e0" stroke="#999999" points="274,-19 214,-19 214,0 274,0 274,-19"/>
<text text-anchor="middle" x="244" y="-7" font-family="Helvetica,sans-Serif" font-size="10.00">iostream</text>
</a>
</g>
</g>
<!-- Node1&#45;&gt;Node5 -->
<g id="edge4_Node000001_Node000005" class="edge">
<title>Node1&#45;&gt;Node5</title>
<g id="a_edge4_Node000001_Node000005"><a xlink:title=" ">
<path fill="none" stroke="#63b8ff" d="M215.2,-54.84C220.49,-46.69 227.18,-36.4 232.78,-27.78"/>
<polygon fill="#63b8ff" stroke="#63b8ff" points="235.79,-29.56 238.31,-19.27 229.92,-25.75 235.79,-29.56"/>
</a>
</g>
</g>
<!-- Node6 -->
<g id="Node000006" class="node">
<title>Node6</title>
<g id="a_Node000006"><a xlink:title=" ">
<polygon fill="#e0e0e0" stroke="#999999" points="336,-19 292,-19 292,0 336,0 336,-19"/>
<text text-anchor="middle" x="314" y="-7" font-family="Helvetica,sans-Serif" font-size="10.00">string</text>
</a>
</g>
</g>
<!-- Node1&#45;&gt;Node6 -->
<g id="edge5_Node000001_Node000006" class="edge">
<title>Node1&#45;&gt;Node6</title>
<g id="a_edge5_Node000001_Node000006"><a xlink:title=" ">
<path fill="none" stroke="#63b8ff" d="M231.87,-54.99C249.24,-45.58 272.01,-33.24 289.17,-23.95"/>
<polygon fill="#63b8ff" stroke="#63b8ff" points="290.92,-26.98 298.05,-19.14 287.59,-20.82 290.92,-26.98"/>
</a>
</g>
</g>
<!-- Node7 -->
<g id="Node000007" class="node">
<title>Node7</title>
<g id="a_Node000007"><a xlink:title=" ">
<polygon fill="#e0e0e0" stroke="#999999" points="402,-19 354,-19 354,0 402,0 402,-19"/>
<text text-anchor="middle" x="378" y="-7" font-family="Helvetica,sans-Serif" font-size="10.00">mutex</text>
</a>
</g>
</g>
<!-- Node1&#45;&gt;Node7 -->
<g id="edge6_Node000001_Node000007" class="edge">
<title>Node1&#45;&gt;Node7</title>
<g id="a_edge6_Node000001_Node000007"><a xlink:title=" ">
<path fill="none" stroke="#63b8ff" d="M247.2,-54.99C276.76,-44.93 316.13,-31.54 343.92,-22.09"/>
<polygon fill="#63b8ff" stroke="#63b8ff" points="345.26,-25.33 353.6,-18.8 343.01,-18.71 345.26,-25.33"/>
</a>
</g>
</g>
</g>
</svg>
