<?xml version="1.0" encoding="UTF-8" standalone="no"?>
<!DOCTYPE svg PUBLIC "-//W3C//DTD SVG 1.1//EN"
 "http://www.w3.org/Graphics/SVG/1.1/DTD/svg11.dtd">
<!-- Generated by graphviz version 2.43.0 (0)
 -->
<!-- Title: src/lib/include/uvgvpcc/log.hpp Pages: 1 -->
<!--zoomable 170 -->

<svg id="main" version="1.1" xmlns="http://www.w3.org/2000/svg" xmlns:xlink="http://www.w3.org/1999/xlink" xml:space="preserve" onload="init(evt)">
<style type="text/css"><![CDATA[
.node, .edge {opacity: 0.7;}
.node.selected, .edge.selected {opacity: 1;}
.edge:hover path { stroke: red; }
.edge:hover polygon { stroke: red; fill: red; }
]]></style>

<defs>
  <circle id="rim" cx="0" cy="0" r="7"/>
  <circle id="rim2" cx="0" cy="0" r="3.5"/>
  <g id="zoomPlus">
    <use xlink:href="#rim" fill="#404040"><set attributeName="fill" to="#808080" begin="zoomplus.mouseover" end="zoomplus.mouseout"/></use>
    <path d="M-4,0h8M0,-4v8" fill="none" stroke="white" stroke-width="1.5" pointer-events="none"/>
  </g>
  <g id="zoomMin">
    <use xlink:href="#rim" fill="#404040"><set attributeName="fill" to="#808080" begin="zoomminus.mouseover" end="zoomminus.mouseout"/></use>
    <path d="M-4,0h8" fill="none" stroke="white" stroke-width="1.5" pointer-events="none"/>
  </g>
  <g id="arrowUp" transform="translate(30 24)">
    <use xlink:href="#rim"/>
    <path pointer-events="none" fill="none" stroke="white" stroke-width="1.5" d="M0,-3.0v7 M-2.5,-0.5L0,-3.0L2.5,-0.5"/>
  </g>
  <g id="arrowRight" transform="rotate(90) translate(36 -43)">
    <use xlink:href="#rim"/>
    <path pointer-events="none" fill="none" stroke="white" stroke-width="1.5" d="M0,-3.0v7 M-2.5,-0.5L0,-3.0L2.5,-0.5"/>
  </g>
  <g id="arrowDown" transform="rotate(180) translate(-30 -48)">
    <use xlink:href="#rim"/>
    <path pointer-events="none" fill="none" stroke="white" stroke-width="1.5" d="M0,-3.0v7 M-2.5,-0.5L0,-3.0L2.5,-0.5"/>
  </g>
  <g id="arrowLeft" transform="rotate(270) translate(-36 17)">
    <use xlink:href="#rim"/>
    <path pointer-events="none" fill="none" stroke="white" stroke-width="1.5" d="M0,-3.0v7 M-2.5,-0.5L0,-3.0L2.5,-0.5"/>
  </g>
  <g id="resetDef">
    <use xlink:href="#rim2" fill="#404040"><set attributeName="fill" to="#808080" begin="reset.mouseover" end="reset.mouseout"/></use>
  </g>
</defs>
<script type="application/ecmascript">
var viewWidth = 2689;
var viewHeight = 170;
var sectionId = 'dynsection-1';
</script>
<script type="application/ecmascript" xlink:href="svg.min.js"/>
<svg id="graph" class="graph">
<g id="viewport">
<title>src/lib/include/uvgvpcc/log.hpp</title>
<!-- Node1 -->
<g id="Node000001" class="node">
<title>Node1</title>
<g id="a_Node000001"><a xlink:title=" ">
<polygon fill="#999999" stroke="#666666" points="1480,-162 1352,-162 1352,-132 1480,-132 1480,-162"/>
<text text-anchor="start" x="1360" y="-150" font-family="Helvetica,sans-Serif" font-size="10.00">src/lib/include/uvgvpcc</text>
<text text-anchor="middle" x="1416" y="-139" font-family="Helvetica,sans-Serif" font-size="10.00">/log.hpp</text>
</a>
</g>
</g>
<!-- Node2 -->
<g id="Node000002" class="node">
<title>Node2</title>
<g id="a_Node000002"><a xlink:href="cli_8cpp.html" target="_top" xlink:title=" ">
<polygon fill="white" stroke="#666666" points="86,-90.5 0,-90.5 0,-71.5 86,-71.5 86,-90.5"/>
<text text-anchor="middle" x="43" y="-78.5" font-family="Helvetica,sans-Serif" font-size="10.00">src/app/cli.cpp</text>
</a>
</g>
</g>
<!-- Node1&#45;&gt;Node2 -->
<g id="edge1_Node000001_Node000002" class="edge">
<title>Node1&#45;&gt;Node2</title>
<g id="a_edge1_Node000001_Node000002"><a xlink:title=" ">
<path fill="none" stroke="#63b8ff" d="M1341.61,-145.39C1099.88,-143.04 338.13,-132.85 95,-96 86.77,-94.75 77.98,-92.68 70.01,-90.51"/>
<polygon fill="#63b8ff" stroke="#63b8ff" points="1341.67,-148.89 1351.7,-145.48 1341.74,-141.89 1341.67,-148.89"/>
</a>
</g>
</g>
<!-- Node3 -->
<g id="Node000003" class="node">
<title>Node3</title>
<g id="a_Node000003"><a xlink:href="uvgVPCCencAppExample_8cpp.html" target="_top" xlink:title=" ">
<polygon fill="white" stroke="#666666" points="302,-90.5 104,-90.5 104,-71.5 302,-71.5 302,-90.5"/>
<text text-anchor="middle" x="203" y="-78.5" font-family="Helvetica,sans-Serif" font-size="10.00">src/app/uvgVPCCencAppExample.cpp</text>
</a>
</g>
</g>
<!-- Node1&#45;&gt;Node3 -->
<g id="edge2_Node000001_Node000003" class="edge">
<title>Node1&#45;&gt;Node3</title>
<g id="a_edge2_Node000001_Node000003"><a xlink:title=" ">
<path fill="none" stroke="#63b8ff" d="M1341.68,-144.78C1163.51,-141.4 698.06,-129.78 311,-96 294.99,-94.6 277.71,-92.59 261.76,-90.52"/>
<polygon fill="#63b8ff" stroke="#63b8ff" points="1341.67,-148.28 1351.73,-144.97 1341.8,-141.28 1341.67,-148.28"/>
</a>
</g>
</g>
<!-- Node4 -->
<g id="Node000004" class="node">
<title>Node4</title>
<g id="a_Node000004"><a xlink:href="bitstreamGeneration_8cpp.html" target="_top" xlink:title=" ">
<polygon fill="white" stroke="#666666" points="470,-96 320,-96 320,-66 470,-66 470,-96"/>
<text text-anchor="start" x="328" y="-84" font-family="Helvetica,sans-Serif" font-size="10.00">src/lib/bitstreamGeneration</text>
<text text-anchor="middle" x="395" y="-73" font-family="Helvetica,sans-Serif" font-size="10.00">/bitstreamGeneration.cpp</text>
</a>
</g>
</g>
<!-- Node1&#45;&gt;Node4 -->
<g id="edge3_Node000001_Node000004" class="edge">
<title>Node1&#45;&gt;Node4</title>
<g id="a_edge3_Node000001_Node000004"><a xlink:title=" ">
<path fill="none" stroke="#63b8ff" d="M1341.77,-144.86C1183.01,-141.79 798.88,-131.08 479,-96 476.06,-95.68 473.07,-95.32 470.05,-94.94"/>
<polygon fill="#63b8ff" stroke="#63b8ff" points="1341.83,-148.36 1351.9,-145.05 1341.96,-141.36 1341.83,-148.36"/>
</a>
</g>
</g>
<!-- Node5 -->
<g id="Node000005" class="node">
<title>Node5</title>
<g id="a_Node000005"><a xlink:href="gof_8cpp.html" target="_top" xlink:title=" ">
<polygon fill="white" stroke="#666666" points="638,-96 488,-96 488,-66 638,-66 638,-96"/>
<text text-anchor="start" x="496" y="-84" font-family="Helvetica,sans-Serif" font-size="10.00">src/lib/bitstreamGeneration</text>
<text text-anchor="middle" x="563" y="-73" font-family="Helvetica,sans-Serif" font-size="10.00">/gof.cpp</text>
</a>
</g>
</g>
<!-- Node1&#45;&gt;Node5 -->
<g id="edge4_Node000001_Node000005" class="edge">
<title>Node1&#45;&gt;Node5</title>
<g id="a_edge4_Node000001_Node000005"><a xlink:title=" ">
<path fill="none" stroke="#63b8ff" d="M1341.9,-143.71C1204.37,-138.9 900.43,-125.64 646,-96 643.39,-95.7 640.73,-95.36 638.05,-95.01"/>
<polygon fill="#63b8ff" stroke="#63b8ff" points="1341.8,-147.21 1351.91,-144.05 1342.04,-140.21 1341.8,-147.21"/>
</a>
</g>
</g>
<!-- Node6 -->
<g id="Node000006" class="node">
<title>Node6</title>
<g id="a_Node000006"><a xlink:href="catchLibLog_8cpp.html" target="_top" xlink:title=" ">
<polygon fill="white" stroke="#666666" points="770.5,-96 655.5,-96 655.5,-66 770.5,-66 770.5,-96"/>
<text text-anchor="start" x="663.5" y="-84" font-family="Helvetica,sans-Serif" font-size="10.00">src/lib/mapEncoding</text>
<text text-anchor="middle" x="713" y="-73" font-family="Helvetica,sans-Serif" font-size="10.00">/catchLibLog.cpp</text>
</a>
</g>
</g>
<!-- Node1&#45;&gt;Node6 -->
<g id="edge5_Node000001_Node000006" class="edge">
<title>Node1&#45;&gt;Node6</title>
<g id="a_edge5_Node000001_Node000006"><a xlink:title=" ">
<path fill="none" stroke="#63b8ff" d="M1341.85,-143.33C1222.69,-138.32 981.42,-125.29 779,-96 776.22,-95.6 773.38,-95.15 770.51,-94.66"/>
<polygon fill="#63b8ff" stroke="#63b8ff" points="1341.82,-146.83 1351.95,-143.74 1342.11,-139.83 1341.82,-146.83"/>
</a>
</g>
</g>
<!-- Node7 -->
<g id="Node000007" class="node">
<title>Node7</title>
<g id="a_Node000007"><a xlink:href="mapEncoding_8cpp.html" target="_top" xlink:title=" ">
<polygon fill="white" stroke="#666666" points="903.5,-96 788.5,-96 788.5,-66 903.5,-66 903.5,-96"/>
<text text-anchor="start" x="796.5" y="-84" font-family="Helvetica,sans-Serif" font-size="10.00">src/lib/mapEncoding</text>
<text text-anchor="middle" x="846" y="-73" font-family="Helvetica,sans-Serif" font-size="10.00">/mapEncoding.cpp</text>
</a>
</g>
</g>
<!-- Node1&#45;&gt;Node7 -->
<g id="edge6_Node000001_Node000007" class="edge">
<title>Node1&#45;&gt;Node7</title>
<g id="a_edge6_Node000001_Node000007"><a xlink:title=" ">
<path fill="none" stroke="#63b8ff" d="M1341.5,-141.19C1242.86,-134.23 1063.68,-119.54 912,-96 909.22,-95.57 906.38,-95.1 903.52,-94.59"/>
<polygon fill="#63b8ff" stroke="#63b8ff" points="1341.45,-144.69 1351.67,-141.9 1341.94,-137.71 1341.45,-144.69"/>
</a>
</g>
</g>
<!-- Node8 -->
<g id="Node000008" class="node">
<title>Node8</title>
<g id="a_Node000008"><a xlink:href="mapGeneration_8cpp.html" target="_top" xlink:title=" ">
<polygon fill="white" stroke="#666666" points="1046.5,-96 921.5,-96 921.5,-66 1046.5,-66 1046.5,-96"/>
<text text-anchor="start" x="929.5" y="-84" font-family="Helvetica,sans-Serif" font-size="10.00">src/lib/mapGeneration</text>
<text text-anchor="middle" x="984" y="-73" font-family="Helvetica,sans-Serif" font-size="10.00">/mapGeneration.cpp</text>
</a>
</g>
</g>
<!-- Node1&#45;&gt;Node8 -->
<g id="edge7_Node000001_Node000008" class="edge">
<title>Node1&#45;&gt;Node8</title>
<g id="a_edge7_Node000001_Node000008"><a xlink:title=" ">
<path fill="none" stroke="#63b8ff" d="M1341.89,-136.99C1268.78,-127.81 1153.93,-112.59 1055,-96 1052.27,-95.54 1049.49,-95.06 1046.68,-94.56"/>
<polygon fill="#63b8ff" stroke="#63b8ff" points="1341.57,-140.48 1351.93,-138.25 1342.44,-133.53 1341.57,-140.48"/>
</a>
</g>
</g>
<!-- Node9 -->
<g id="Node000009" class="node">
<title>Node9</title>
<g id="a_Node000009"><a xlink:href="normalComputation_8cpp.html" target="_top" xlink:title=" ">
<polygon fill="white" stroke="#666666" points="1201.5,-96 1064.5,-96 1064.5,-66 1201.5,-66 1201.5,-96"/>
<text text-anchor="start" x="1072.5" y="-84" font-family="Helvetica,sans-Serif" font-size="10.00">src/lib/patchGeneration</text>
<text text-anchor="middle" x="1133" y="-73" font-family="Helvetica,sans-Serif" font-size="10.00">/normalComputation.cpp</text>
</a>
</g>
</g>
<!-- Node1&#45;&gt;Node9 -->
<g id="edge8_Node000001_Node000009" class="edge">
<title>Node1&#45;&gt;Node9</title>
<g id="a_edge8_Node000001_Node000009"><a xlink:title=" ">
<path fill="none" stroke="#63b8ff" d="M1343.98,-129.71C1297.96,-119.31 1238.89,-105.95 1194.96,-96.01"/>
<polygon fill="#63b8ff" stroke="#63b8ff" points="1343.37,-133.16 1353.89,-131.95 1344.91,-126.34 1343.37,-133.16"/>
</a>
</g>
</g>
<!-- Node10 -->
<g id="Node000010" class="node">
<title>Node10</title>
<g id="a_Node000010"><a xlink:href="normalOrientation_8cpp.html" target="_top" xlink:title=" ">
<polygon fill="white" stroke="#666666" points="1209,-30 1079,-30 1079,0 1209,0 1209,-30"/>
<text text-anchor="start" x="1087" y="-18" font-family="Helvetica,sans-Serif" font-size="10.00">src/lib/patchGeneration</text>
<text text-anchor="middle" x="1144" y="-7" font-family="Helvetica,sans-Serif" font-size="10.00">/normalOrientation.cpp</text>
</a>
</g>
</g>
<!-- Node1&#45;&gt;Node10 -->
<g id="edge9_Node000001_Node000010" class="edge">
<title>Node1&#45;&gt;Node10</title>
<g id="a_edge9_Node000001_Node000010"><a xlink:title=" ">
<path fill="none" stroke="#63b8ff" d="M1359.65,-128.77C1333.69,-120.1 1302.76,-108.73 1276,-96 1234.62,-76.32 1189.62,-47.24 1164.31,-30.09"/>
<polygon fill="#63b8ff" stroke="#63b8ff" points="1358.75,-132.15 1369.34,-131.96 1360.93,-125.51 1358.75,-132.15"/>
</a>
</g>
</g>
<!-- Node11 -->
<g id="Node000011" class="node">
<title>Node11</title>
<g id="a_Node000011"><a xlink:href="patchGeneration_8cpp.html" target="_top" xlink:title=" ">
<polygon fill="white" stroke="#666666" points="1357,-30 1227,-30 1227,0 1357,0 1357,-30"/>
<text text-anchor="start" x="1235" y="-18" font-family="Helvetica,sans-Serif" font-size="10.00">src/lib/patchGeneration</text>
<text text-anchor="middle" x="1292" y="-7" font-family="Helvetica,sans-Serif" font-size="10.00">/patchGeneration.cpp</text>
</a>
</g>
</g>
<!-- Node1&#45;&gt;Node11 -->
<g id="edge10_Node000001_Node000011" class="edge">
<title>Node1&#45;&gt;Node11</title>
<g id="a_edge10_Node000001_Node000011"><a xlink:title=" ">
<path fill="none" stroke="#63b8ff" d="M1342.09,-133.77C1320.77,-126.45 1299.83,-114.73 1287,-96 1273.55,-76.37 1280.3,-47.27 1286.27,-30.11"/>
<polygon fill="#63b8ff" stroke="#63b8ff" points="1341.29,-137.19 1351.88,-136.84 1343.38,-130.51 1341.29,-137.19"/>
</a>
</g>
</g>
<!-- Node12 -->
<g id="Node000012" class="node">
<title>Node12</title>
<g id="a_Node000012"><a xlink:href="patchSegmentation_8cpp.html" target="_top" xlink:title=" ">
<polygon fill="white" stroke="#666666" points="1510.5,-30 1375.5,-30 1375.5,0 1510.5,0 1510.5,-30"/>
<text text-anchor="start" x="1383.5" y="-18" font-family="Helvetica,sans-Serif" font-size="10.00">src/lib/patchGeneration</text>
<text text-anchor="middle" x="1443" y="-7" font-family="Helvetica,sans-Serif" font-size="10.00">/patchSegmentation.cpp</text>
</a>
</g>
</g>
<!-- Node1&#45;&gt;Node12 -->
<g id="edge11_Node000001_Node000012" class="edge">
<title>Node1&#45;&gt;Node12</title>
<g id="a_edge11_Node000001_Node000012"><a xlink:title=" ">
<path fill="none" stroke="#63b8ff" d="M1433.65,-123.47C1439.03,-115.29 1444.25,-105.67 1447,-96 1453.36,-73.67 1449.72,-46.43 1446.42,-30.19"/>
<polygon fill="#63b8ff" stroke="#63b8ff" points="1430.74,-121.53 1427.86,-131.72 1436.47,-125.55 1430.74,-121.53"/>
</a>
</g>
</g>
<!-- Node13 -->
<g id="Node000013" class="node">
<title>Node13</title>
<g id="a_Node000013"><a xlink:href="ppiSegmenter_8cpp.html" target="_top" xlink:title=" ">
<polygon fill="white" stroke="#666666" points="1659,-30 1529,-30 1529,0 1659,0 1659,-30"/>
<text text-anchor="start" x="1537" y="-18" font-family="Helvetica,sans-Serif" font-size="10.00">src/lib/patchGeneration</text>
<text text-anchor="middle" x="1594" y="-7" font-family="Helvetica,sans-Serif" font-size="10.00">/ppiSegmenter.cpp</text>
</a>
</g>
</g>
<!-- Node1&#45;&gt;Node13 -->
<g id="edge12_Node000001_Node000013" class="edge">
<title>Node1&#45;&gt;Node13</title>
<g id="a_edge12_Node000001_Node000013"><a xlink:title=" ">
<path fill="none" stroke="#63b8ff" d="M1442.48,-125.88C1464.04,-109.57 1495.32,-86.08 1523,-66 1539.96,-53.69 1559.43,-40.01 1573.69,-30.07"/>
<polygon fill="#63b8ff" stroke="#63b8ff" points="1440.3,-123.14 1434.44,-131.96 1444.52,-128.72 1440.3,-123.14"/>
</a>
</g>
</g>
<!-- Node14 -->
<g id="Node000014" class="node">
<title>Node14</title>
<g id="a_Node000014"><a xlink:href="utilsPatchGeneration_8hpp.html" target="_top" xlink:title=" ">
<polygon fill="white" stroke="#666666" points="1438,-96 1296,-96 1296,-66 1438,-66 1438,-96"/>
<text text-anchor="start" x="1304" y="-84" font-family="Helvetica,sans-Serif" font-size="10.00">src/lib/patchGeneration</text>
<text text-anchor="middle" x="1367" y="-73" font-family="Helvetica,sans-Serif" font-size="10.00">/utilsPatchGeneration.hpp</text>
</a>
</g>
</g>
<!-- Node1&#45;&gt;Node14 -->
<g id="edge13_Node000001_Node000014" class="edge">
<title>Node1&#45;&gt;Node14</title>
<g id="a_edge13_Node000001_Node000014"><a xlink:title=" ">
<path fill="none" stroke="#63b8ff" d="M1399.01,-123.81C1391.99,-114.64 1384.06,-104.28 1377.84,-96.16"/>
<polygon fill="#63b8ff" stroke="#63b8ff" points="1396.27,-125.98 1405.13,-131.8 1401.83,-121.73 1396.27,-125.98"/>
</a>
</g>
</g>
<!-- Node15 -->
<g id="Node000015" class="node">
<title>Node15</title>
<g id="a_Node000015"><a xlink:href="patchPacking_8cpp.html" target="_top" xlink:title=" ">
<polygon fill="white" stroke="#666666" points="1645.5,-96 1532.5,-96 1532.5,-66 1645.5,-66 1645.5,-96"/>
<text text-anchor="start" x="1540.5" y="-84" font-family="Helvetica,sans-Serif" font-size="10.00">src/lib/patchPacking</text>
<text text-anchor="middle" x="1589" y="-73" font-family="Helvetica,sans-Serif" font-size="10.00">/patchPacking.cpp</text>
</a>
</g>
</g>
<!-- Node1&#45;&gt;Node15 -->
<g id="edge18_Node000001_Node000015" class="edge">
<title>Node1&#45;&gt;Node15</title>
<g id="a_edge18_Node000001_Node000015"><a xlink:title=" ">
<path fill="none" stroke="#63b8ff" d="M1463.42,-128.46C1491.02,-118.25 1525.34,-105.55 1551.12,-96.01"/>
<polygon fill="#63b8ff" stroke="#63b8ff" points="1462.13,-125.2 1453.97,-131.95 1464.56,-131.77 1462.13,-125.2"/>
</a>
</g>
</g>
<!-- Node16 -->
<g id="Node000016" class="node">
<title>Node16</title>
<g id="a_Node000016"><a xlink:href="fileExport_8cpp.html" target="_top" xlink:title=" ">
<polygon fill="white" stroke="#666666" points="1804,-90.5 1664,-90.5 1664,-71.5 1804,-71.5 1804,-90.5"/>
<text text-anchor="middle" x="1734" y="-78.5" font-family="Helvetica,sans-Serif" font-size="10.00">src/lib/utils/fileExport.cpp</text>
</a>
</g>
</g>
<!-- Node1&#45;&gt;Node16 -->
<g id="edge19_Node000001_Node000016" class="edge">
<title>Node1&#45;&gt;Node16</title>
<g id="a_edge19_Node000001_Node000016"><a xlink:title=" ">
<path fill="none" stroke="#63b8ff" d="M1490.18,-131.07C1552.78,-118.47 1640.2,-100.88 1691.57,-90.54"/>
<polygon fill="#63b8ff" stroke="#63b8ff" points="1489.46,-127.64 1480.35,-133.05 1490.85,-134.51 1489.46,-127.64"/>
</a>
</g>
</g>
<!-- Node17 -->
<g id="Node000017" class="node">
<title>Node17</title>
<g id="a_Node000017"><a xlink:href="jobManagement_8cpp.html" target="_top" xlink:title=" ">
<polygon fill="white" stroke="#666666" points="1935.5,-24.5 1762.5,-24.5 1762.5,-5.5 1935.5,-5.5 1935.5,-24.5"/>
<text text-anchor="middle" x="1849" y="-12.5" font-family="Helvetica,sans-Serif" font-size="10.00">src/lib/utils/jobManagement.cpp</text>
</a>
</g>
</g>
<!-- Node1&#45;&gt;Node17 -->
<g id="edge20_Node000001_Node000017" class="edge">
<title>Node1&#45;&gt;Node17</title>
<g id="a_edge20_Node000001_Node000017"><a xlink:title=" ">
<path fill="none" stroke="#63b8ff" d="M1490.45,-145.13C1590.98,-142.56 1763.31,-132.73 1813,-96 1836.76,-78.44 1845.18,-41.55 1847.87,-24.71"/>
<polygon fill="#63b8ff" stroke="#63b8ff" points="1490.26,-141.64 1480.35,-145.38 1490.43,-148.64 1490.26,-141.64"/>
</a>
</g>
</g>
<!-- Node18 -->
<g id="Node000018" class="node">
<title>Node18</title>
<g id="a_Node000018"><a xlink:href="jobManagement_8hpp.html" target="_top" xlink:title=" ">
<polygon fill="white" stroke="#666666" points="2033.5,-90.5 1860.5,-90.5 1860.5,-71.5 2033.5,-71.5 2033.5,-90.5"/>
<text text-anchor="middle" x="1947" y="-78.5" font-family="Helvetica,sans-Serif" font-size="10.00">src/lib/utils/jobManagement.hpp</text>
</a>
</g>
</g>
<!-- Node1&#45;&gt;Node18 -->
<g id="edge21_Node000001_Node000018" class="edge">
<title>Node1&#45;&gt;Node18</title>
<g id="a_edge21_Node000001_Node000018"><a xlink:title=" ">
<path fill="none" stroke="#63b8ff" d="M1490.32,-137.86C1576.09,-128.35 1721.35,-111.88 1846,-96 1859.35,-94.3 1873.67,-92.37 1887.21,-90.51"/>
<polygon fill="#63b8ff" stroke="#63b8ff" points="1489.72,-134.41 1480.16,-138.98 1490.49,-141.36 1489.72,-134.41"/>
</a>
</g>
</g>
<!-- Node19 -->
<g id="Node000019" class="node">
<title>Node19</title>
<g id="a_Node000019"><a xlink:href="uvgvpcc_8cpp.html" target="_top" xlink:title=" ">
<polygon fill="white" stroke="#666666" points="2099,-24.5 1989,-24.5 1989,-5.5 2099,-5.5 2099,-24.5"/>
<text text-anchor="middle" x="2044" y="-12.5" font-family="Helvetica,sans-Serif" font-size="10.00">src/lib/uvgvpcc.cpp</text>
</a>
</g>
</g>
<!-- Node1&#45;&gt;Node19 -->
<g id="edge28_Node000001_Node000019" class="edge">
<title>Node1&#45;&gt;Node19</title>
<g id="a_edge28_Node000001_Node000019"><a xlink:title=" ">
<path fill="none" stroke="#63b8ff" d="M1490.17,-145.57C1648.02,-143.87 2005.92,-135.66 2043,-96 2061.21,-76.52 2052.67,-41.26 2047.26,-24.85"/>
<polygon fill="#63b8ff" stroke="#63b8ff" points="1490.03,-142.07 1480.07,-145.67 1490.1,-149.07 1490.03,-142.07"/>
</a>
</g>
</g>
<!-- Node20 -->
<g id="Node000020" class="node">
<title>Node20</title>
<g id="a_Node000020"><a xlink:href="log_8cpp.html" target="_top" xlink:title=" ">
<polygon fill="white" stroke="#666666" points="2198,-90.5 2090,-90.5 2090,-71.5 2198,-71.5 2198,-90.5"/>
<text text-anchor="middle" x="2144" y="-78.5" font-family="Helvetica,sans-Serif" font-size="10.00">src/lib/utils/log.cpp</text>
</a>
</g>
</g>
<!-- Node1&#45;&gt;Node20 -->
<g id="edge24_Node000001_Node000020" class="edge">
<title>Node1&#45;&gt;Node20</title>
<g id="a_edge24_Node000001_Node000020"><a xlink:title=" ">
<path fill="none" stroke="#63b8ff" d="M1490.02,-143.47C1612.44,-138.6 1864.59,-125.65 2076,-96 2086.03,-94.59 2096.79,-92.6 2106.74,-90.56"/>
<polygon fill="#63b8ff" stroke="#63b8ff" points="1489.86,-139.97 1480,-143.86 1490.13,-146.97 1489.86,-139.97"/>
</a>
</g>
</g>
<!-- Node21 -->
<g id="Node000021" class="node">
<title>Node21</title>
<g id="a_Node000021"><a xlink:href="parameters_8cpp.html" target="_top" xlink:title=" ">
<polygon fill="white" stroke="#666666" points="2365.5,-90.5 2216.5,-90.5 2216.5,-71.5 2365.5,-71.5 2365.5,-90.5"/>
<text text-anchor="middle" x="2291" y="-78.5" font-family="Helvetica,sans-Serif" font-size="10.00">src/lib/utils/parameters.cpp</text>
</a>
</g>
</g>
<!-- Node1&#45;&gt;Node21 -->
<g id="edge25_Node000001_Node000021" class="edge">
<title>Node1&#45;&gt;Node21</title>
<g id="a_edge25_Node000001_Node000021"><a xlink:title=" ">
<path fill="none" stroke="#63b8ff" d="M1490.23,-143.83C1630.6,-139.18 1944.43,-126.1 2207,-96 2219.34,-94.59 2232.62,-92.59 2244.91,-90.55"/>
<polygon fill="#63b8ff" stroke="#63b8ff" points="1489.9,-140.34 1480.02,-144.17 1490.13,-147.34 1489.9,-140.34"/>
</a>
</g>
</g>
<!-- Node22 -->
<g id="Node000022" class="node">
<title>Node22</title>
<g id="a_Node000022"><a xlink:href="preset_8cpp.html" target="_top" xlink:title=" ">
<polygon fill="white" stroke="#666666" points="2507,-90.5 2383,-90.5 2383,-71.5 2507,-71.5 2507,-90.5"/>
<text text-anchor="middle" x="2445" y="-78.5" font-family="Helvetica,sans-Serif" font-size="10.00">src/lib/utils/preset.cpp</text>
</a>
</g>
</g>
<!-- Node1&#45;&gt;Node22 -->
<g id="edge26_Node000001_Node000022" class="edge">
<title>Node1&#45;&gt;Node22</title>
<g id="a_edge26_Node000001_Node000022"><a xlink:title=" ">
<path fill="none" stroke="#63b8ff" d="M1490.57,-145.79C1652.31,-144.53 2047.21,-137.1 2375,-96 2385.58,-94.67 2396.95,-92.66 2407.38,-90.57"/>
<polygon fill="#63b8ff" stroke="#63b8ff" points="1490.23,-142.29 1480.25,-145.87 1490.28,-149.29 1490.23,-142.29"/>
</a>
</g>
</g>
<!-- Node23 -->
<g id="Node000023" class="node">
<title>Node23</title>
<g id="a_Node000023"><a xlink:href="threadqueue_8cpp.html" target="_top" xlink:title=" ">
<polygon fill="white" stroke="#666666" points="2680.5,-90.5 2525.5,-90.5 2525.5,-71.5 2680.5,-71.5 2680.5,-90.5"/>
<text text-anchor="middle" x="2603" y="-78.5" font-family="Helvetica,sans-Serif" font-size="10.00">src/lib/utils/threadqueue.cpp</text>
</a>
</g>
</g>
<!-- Node1&#45;&gt;Node23 -->
<g id="edge27_Node000001_Node000023" class="edge">
<title>Node1&#45;&gt;Node23</title>
<g id="a_edge27_Node000001_Node000023"><a xlink:title=" ">
<path fill="none" stroke="#63b8ff" d="M1490.06,-145.55C1667.58,-143.82 2131.25,-135.57 2516,-96 2529.09,-94.65 2543.2,-92.63 2556.17,-90.54"/>
<polygon fill="#63b8ff" stroke="#63b8ff" points="1490.01,-142.05 1480.04,-145.64 1490.08,-149.05 1490.01,-142.05"/>
</a>
</g>
</g>
<!-- Node14&#45;&gt;Node10 -->
<g id="edge14_Node000014_Node000010" class="edge">
<title>Node14&#45;&gt;Node10</title>
<g id="a_edge14_Node000014_Node000010"><a xlink:title=" ">
<path fill="none" stroke="#63b8ff" d="M1308.19,-63.12C1272.23,-52.8 1226.78,-39.76 1192.82,-30.01"/>
<polygon fill="#63b8ff" stroke="#63b8ff" points="1307.48,-66.56 1318.06,-65.95 1309.42,-59.83 1307.48,-66.56"/>
</a>
</g>
</g>
<!-- Node14&#45;&gt;Node11 -->
<g id="edge15_Node000014_Node000011" class="edge">
<title>Node14&#45;&gt;Node11</title>
<g id="a_edge15_Node000014_Node000011"><a xlink:title=" ">
<path fill="none" stroke="#63b8ff" d="M1342.63,-59.2C1331.49,-49.7 1318.59,-38.69 1308.6,-30.16"/>
<polygon fill="#63b8ff" stroke="#63b8ff" points="1340.48,-61.97 1350.36,-65.8 1345.02,-56.64 1340.48,-61.97"/>
</a>
</g>
</g>
<!-- Node14&#45;&gt;Node12 -->
<g id="edge16_Node000014_Node000012" class="edge">
<title>Node14&#45;&gt;Node12</title>
<g id="a_edge16_Node000014_Node000012"><a xlink:title=" ">
<path fill="none" stroke="#63b8ff" d="M1391.7,-59.2C1402.98,-49.7 1416.05,-38.69 1426.18,-30.16"/>
<polygon fill="#63b8ff" stroke="#63b8ff" points="1389.26,-56.68 1383.87,-65.8 1393.77,-62.03 1389.26,-56.68"/>
</a>
</g>
</g>
<!-- Node14&#45;&gt;Node13 -->
<g id="edge17_Node000014_Node000013" class="edge">
<title>Node14&#45;&gt;Node13</title>
<g id="a_edge17_Node000014_Node000013"><a xlink:title=" ">
<path fill="none" stroke="#63b8ff" d="M1426.87,-63.12C1463.47,-52.8 1509.73,-39.76 1544.3,-30.01"/>
<polygon fill="#63b8ff" stroke="#63b8ff" points="1425.49,-59.87 1416.82,-65.95 1427.39,-66.61 1425.49,-59.87"/>
</a>
</g>
</g>
<!-- Node18&#45;&gt;Node17 -->
<g id="edge22_Node000018_Node000017" class="edge">
<title>Node18&#45;&gt;Node17</title>
<g id="a_edge22_Node000018_Node000017"><a xlink:title=" ">
<path fill="none" stroke="#63b8ff" d="M1925.33,-65.85C1906.07,-53.27 1878.52,-35.28 1862.32,-24.7"/>
<polygon fill="#63b8ff" stroke="#63b8ff" points="1923.5,-68.83 1933.78,-71.37 1927.32,-62.97 1923.5,-68.83"/>
</a>
</g>
</g>
<!-- Node18&#45;&gt;Node19 -->
<g id="edge23_Node000018_Node000019" class="edge">
<title>Node18&#45;&gt;Node19</title>
<g id="a_edge23_Node000018_Node000019"><a xlink:title=" ">
<path fill="none" stroke="#63b8ff" d="M1968.45,-65.85C1987.51,-53.27 2014.79,-35.28 2030.82,-24.7"/>
<polygon fill="#63b8ff" stroke="#63b8ff" points="1966.5,-62.94 1960.08,-71.37 1970.36,-68.78 1966.5,-62.94"/>
</a>
</g>
</g>
</g>
</svg>

<g id="navigator" transform="translate(0 0)" fill="#404254">
  <rect fill="#f2f5e9" fill-opacity="0.5" stroke="#606060" stroke-width=".5" x="0" y="0" width="60" height="60"/>
  <use id="zoomplus" xlink:href="#zoomPlus" x="17" y="9" onmousedown="handleZoom(evt,'in')"/>
  <use id="zoomminus" xlink:href="#zoomMin" x="42" y="9" onmousedown="handleZoom(evt,'out')"/>
  <use id="reset" xlink:href="#resetDef" x="30" y="36" onmousedown="handleReset()"/>
   <use id="arrowup" xlink:href="#arrowUp" x="0" y="0" onmousedown="handlePan(0,-1)"/>
  <use id="arrowright" xlink:href="#arrowRight" x="0" y="0" onmousedown="handlePan(1,0)"/>
  <use id="arrowdown" xlink:href="#arrowDown" x="0" y="0" onmousedown="handlePan(0,1)"/>
  <use id="arrowleft" xlink:href="#arrowLeft" x="0" y="0" onmousedown="handlePan(-1,0)"/>
</g>
<svg viewBox="0 0 15 15" width="100%" height="30px" preserveAspectRatio="xMaxYMin meet">
 <g id="arrow_out" transform="scale(0.3 0.3)">
  <a xlink:href="log_8hpp__dep__incl_org.svg" target="_base">
   <rect id="button" ry="5" rx="5" y="6" x="6" height="38" width="38"
        fill="#f2f5e9" fill-opacity="0.5" stroke="#606060" stroke-width="1.0"/>
   <path id="arrow"
     d="M 11.500037,31.436501 C 11.940474,20.09759 22.043105,11.32322 32.158766,21.979434 L 37.068811,17.246167 C 37.068811,17.246167 37.088388,32 37.088388,32 L 22.160133,31.978069 C 22.160133,31.978069 26.997745,27.140456 26.997745,27.140456 C 18.528582,18.264221 13.291696,25.230495 11.500037,31.436501 z"
     style="fill:#404040;"/>
  </a>
 </g>
</svg>

<style type='text/css'>
<![CDATA[
[data-mouse-over-selected='false'] { opacity: 0.7; }
[data-mouse-over-selected='true']  { opacity: 1.0; }
]]>
</style>
<script type="application/ecmascript"><![CDATA[
document.addEventListener('DOMContentLoaded', (event) => {
  highlightEdges();
  highlightAdjacentNodes();
});
]]></script>
</svg>
