<?xml version="1.0" encoding="UTF-8" standalone="no"?>
<!DOCTYPE svg PUBLIC "-//W3C//DTD SVG 1.1//EN"
 "http://www.w3.org/Graphics/SVG/1.1/DTD/svg11.dtd">
<!-- Generated by graphviz version 2.43.0 (0)
 -->
<!-- Title: src/lib/mapEncoding/mapEncoding.cpp Pages: 1 -->
<!--zoomable 258 -->

<svg id="main" version="1.1" xmlns="http://www.w3.org/2000/svg" xmlns:xlink="http://www.w3.org/1999/xlink" xml:space="preserve" onload="init(evt)">
<style type="text/css"><![CDATA[
.node, .edge {opacity: 0.7;}
.node.selected, .edge.selected {opacity: 1;}
.edge:hover path { stroke: red; }
.edge:hover polygon { stroke: red; fill: red; }
]]></style>

<defs>
  <circle id="rim" cx="0" cy="0" r="7"/>
  <circle id="rim2" cx="0" cy="0" r="3.5"/>
  <g id="zoomPlus">
    <use xlink:href="#rim" fill="#404040"><set attributeName="fill" to="#808080" begin="zoomplus.mouseover" end="zoomplus.mouseout"/></use>
    <path d="M-4,0h8M0,-4v8" fill="none" stroke="white" stroke-width="1.5" pointer-events="none"/>
  </g>
  <g id="zoomMin">
    <use xlink:href="#rim" fill="#404040"><set attributeName="fill" to="#808080" begin="zoomminus.mouseover" end="zoomminus.mouseout"/></use>
    <path d="M-4,0h8" fill="none" stroke="white" stroke-width="1.5" pointer-events="none"/>
  </g>
  <g id="arrowUp" transform="translate(30 24)">
    <use xlink:href="#rim"/>
    <path pointer-events="none" fill="none" stroke="white" stroke-width="1.5" d="M0,-3.0v7 M-2.5,-0.5L0,-3.0L2.5,-0.5"/>
  </g>
  <g id="arrowRight" transform="rotate(90) translate(36 -43)">
    <use xlink:href="#rim"/>
    <path pointer-events="none" fill="none" stroke="white" stroke-width="1.5" d="M0,-3.0v7 M-2.5,-0.5L0,-3.0L2.5,-0.5"/>
  </g>
  <g id="arrowDown" transform="rotate(180) translate(-30 -48)">
    <use xlink:href="#rim"/>
    <path pointer-events="none" fill="none" stroke="white" stroke-width="1.5" d="M0,-3.0v7 M-2.5,-0.5L0,-3.0L2.5,-0.5"/>
  </g>
  <g id="arrowLeft" transform="rotate(270) translate(-36 17)">
    <use xlink:href="#rim"/>
    <path pointer-events="none" fill="none" stroke="white" stroke-width="1.5" d="M0,-3.0v7 M-2.5,-0.5L0,-3.0L2.5,-0.5"/>
  </g>
  <g id="resetDef">
    <use xlink:href="#rim2" fill="#404040"><set attributeName="fill" to="#808080" begin="reset.mouseover" end="reset.mouseout"/></use>
  </g>
</defs>
<script type="application/ecmascript">
var viewWidth = 1176;
var viewHeight = 258;
var sectionId = 'dynsection-0';
</script>
<script type="application/ecmascript" xlink:href="svg.min.js"/>
<svg id="graph" class="graph">
<g id="viewport">
<title>src/lib/mapEncoding/mapEncoding.cpp</title>
<!-- Node1 -->
<g id="Node000001" class="node">
<title>Node1</title>
<g id="a_Node000001"><a xlink:title=" ">
<polygon fill="#999999" stroke="#666666" points="569.5,-250 454.5,-250 454.5,-220 569.5,-220 569.5,-250"/>
<text text-anchor="start" x="462.5" y="-238" font-family="Helvetica,sans-Serif" font-size="10.00">src/lib/mapEncoding</text>
<text text-anchor="middle" x="512" y="-227" font-family="Helvetica,sans-Serif" font-size="10.00">/mapEncoding.cpp</text>
</a>
</g>
</g>
<!-- Node2 -->
<g id="Node000002" class="node">
<title>Node2</title>
<g id="a_Node000002"><a xlink:href="mapEncoding_8hpp.html" target="_top" xlink:title=" ">
<polygon fill="white" stroke="#666666" points="472,-129 368,-129 368,-110 472,-110 472,-129"/>
<text text-anchor="middle" x="420" y="-117" font-family="Helvetica,sans-Serif" font-size="10.00">mapEncoding.hpp</text>
</a>
</g>
</g>
<!-- Node1&#45;&gt;Node2 -->
<g id="edge1_Node000001_Node000002" class="edge">
<title>Node1&#45;&gt;Node2</title>
<g id="a_edge1_Node000001_Node000002"><a xlink:title=" ">
<path fill="none" stroke="#63b8ff" d="M499.75,-219.66C491.31,-209.72 479.87,-196.14 470,-184 457.2,-168.26 442.9,-150.03 432.89,-137.16"/>
<polygon fill="#63b8ff" stroke="#63b8ff" points="435.6,-134.95 426.71,-129.2 430.07,-139.24 435.6,-134.95"/>
</a>
</g>
</g>
<!-- Node3 -->
<g id="Node000003" class="node">
<title>Node3</title>
<g id="a_Node000003"><a xlink:href="uvgvpcc_8hpp.html" target="_top" xlink:title=" ">
<polygon fill="white" stroke="#666666" points="555,-74 433,-74 433,-55 555,-55 555,-74"/>
<text text-anchor="middle" x="494" y="-62" font-family="Helvetica,sans-Serif" font-size="10.00">uvgvpcc/uvgvpcc.hpp</text>
</a>
</g>
</g>
<!-- Node1&#45;&gt;Node3 -->
<g id="edge31_Node000001_Node000003" class="edge">
<title>Node1&#45;&gt;Node3</title>
<g id="a_edge31_Node000001_Node000003"><a xlink:title=" ">
<path fill="none" stroke="#63b8ff" d="M473.37,-219.87C436.44,-204.04 382.94,-174.47 359,-129 342.5,-97.67 382.13,-81.69 422.65,-73.6"/>
<polygon fill="#63b8ff" stroke="#63b8ff" points="423.45,-77.01 432.66,-71.76 422.19,-70.13 423.45,-77.01"/>
</a>
</g>
</g>
<!-- Node7 -->
<g id="Node000007" class="node">
<title>Node7</title>
<g id="a_Node000007"><a xlink:title=" ">
<polygon fill="#e0e0e0" stroke="#999999" points="58,-19 0,-19 0,0 58,0 58,-19"/>
<text text-anchor="middle" x="29" y="-7" font-family="Helvetica,sans-Serif" font-size="10.00">memory</text>
</a>
</g>
</g>
<!-- Node1&#45;&gt;Node7 -->
<g id="edge16_Node000001_Node000007" class="edge">
<title>Node1&#45;&gt;Node7</title>
<g id="a_edge16_Node000001_Node000007"><a xlink:title=" ">
<path fill="none" stroke="#63b8ff" d="M473.58,-219.93C447.98,-210.33 413.71,-197.04 384,-184 258.41,-128.89 112.46,-54.04 54.55,-23.89"/>
<polygon fill="#63b8ff" stroke="#63b8ff" points="55.89,-20.64 45.41,-19.12 52.65,-26.85 55.89,-20.64"/>
</a>
</g>
</g>
<!-- Node11 -->
<g id="Node000011" class="node">
<title>Node11</title>
<g id="a_Node000011"><a xlink:title=" ">
<polygon fill="#e0e0e0" stroke="#999999" points="810,-19 766,-19 766,0 810,0 810,-19"/>
<text text-anchor="middle" x="788" y="-7" font-family="Helvetica,sans-Serif" font-size="10.00">string</text>
</a>
</g>
</g>
<!-- Node1&#45;&gt;Node11 -->
<g id="edge17_Node000001_Node000011" class="edge">
<title>Node1&#45;&gt;Node11</title>
<g id="a_edge17_Node000001_Node000011"><a xlink:title=" ">
<path fill="none" stroke="#63b8ff" d="M569.51,-228.29C630.82,-221.11 722.64,-206.88 749,-184 794.23,-144.73 793.3,-65.34 790.2,-29.19"/>
<polygon fill="#63b8ff" stroke="#63b8ff" points="793.67,-28.67 789.18,-19.08 786.7,-29.38 793.67,-28.67"/>
</a>
</g>
</g>
<!-- Node15 -->
<g id="Node000015" class="node">
<title>Node15</title>
<g id="a_Node000015"><a xlink:title=" ">
<polygon fill="#e0e0e0" stroke="#999999" points="538,-184 486,-184 486,-165 538,-165 538,-184"/>
<text text-anchor="middle" x="512" y="-172" font-family="Helvetica,sans-Serif" font-size="10.00">cassert</text>
</a>
</g>
</g>
<!-- Node1&#45;&gt;Node15 -->
<g id="edge14_Node000001_Node000015" class="edge">
<title>Node1&#45;&gt;Node15</title>
<g id="a_edge14_Node000001_Node000015"><a xlink:title=" ">
<path fill="none" stroke="#63b8ff" d="M512,-219.84C512,-212.21 512,-202.7 512,-194.45"/>
<polygon fill="#63b8ff" stroke="#63b8ff" points="515.5,-194.27 512,-184.27 508.5,-194.27 515.5,-194.27"/>
</a>
</g>
</g>
<!-- Node16 -->
<g id="Node000016" class="node">
<title>Node16</title>
<g id="a_Node000016"><a xlink:title=" ">
<polygon fill="#e0e0e0" stroke="#999999" points="606,-184 556,-184 556,-165 606,-165 606,-184"/>
<text text-anchor="middle" x="581" y="-172" font-family="Helvetica,sans-Serif" font-size="10.00">cstring</text>
</a>
</g>
</g>
<!-- Node1&#45;&gt;Node16 -->
<g id="edge15_Node000001_Node000016" class="edge">
<title>Node1&#45;&gt;Node16</title>
<g id="a_edge15_Node000001_Node000016"><a xlink:title=" ">
<path fill="none" stroke="#63b8ff" d="M528.7,-219.84C539.03,-211.09 552.28,-199.85 562.86,-190.88"/>
<polygon fill="#63b8ff" stroke="#63b8ff" points="565.3,-193.4 570.66,-184.27 560.77,-188.06 565.3,-193.4"/>
</a>
</g>
</g>
<!-- Node17 -->
<g id="Node000017" class="node">
<title>Node17</title>
<g id="a_Node000017"><a xlink:href="abstract2DMapEncoder_8hpp.html" target="_top" xlink:title=" ">
<polygon fill="white" stroke="#666666" points="640,-129 490,-129 490,-110 640,-110 640,-129"/>
<text text-anchor="middle" x="565" y="-117" font-family="Helvetica,sans-Serif" font-size="10.00">abstract2DMapEncoder.hpp</text>
</a>
</g>
</g>
<!-- Node1&#45;&gt;Node17 -->
<g id="edge18_Node000001_Node000017" class="edge">
<title>Node1&#45;&gt;Node17</title>
<g id="a_edge18_Node000001_Node000017"><a xlink:title=" ">
<path fill="none" stroke="#63b8ff" d="M496.18,-219.89C482.23,-205.68 465.74,-183.31 477,-165 486.45,-149.64 503.02,-139.39 519.25,-132.64"/>
<polygon fill="#63b8ff" stroke="#63b8ff" points="520.6,-135.87 528.71,-129.06 518.12,-129.32 520.6,-135.87"/>
</a>
</g>
</g>
<!-- Node18 -->
<g id="Node000018" class="node">
<title>Node18</title>
<g id="a_Node000018"><a xlink:href="encoderKvazaar_8hpp.html" target="_top" xlink:title=" ">
<polygon fill="white" stroke="#666666" points="740,-184 624,-184 624,-165 740,-165 740,-184"/>
<text text-anchor="middle" x="682" y="-172" font-family="Helvetica,sans-Serif" font-size="10.00">encoderKvazaar.hpp</text>
</a>
</g>
</g>
<!-- Node1&#45;&gt;Node18 -->
<g id="edge20_Node000001_Node000018" class="edge">
<title>Node1&#45;&gt;Node18</title>
<g id="a_edge20_Node000001_Node000018"><a xlink:title=" ">
<path fill="none" stroke="#63b8ff" d="M552.72,-219.99C581.59,-210.05 619.91,-196.86 647.33,-187.43"/>
<polygon fill="#63b8ff" stroke="#63b8ff" points="648.58,-190.7 656.89,-184.14 646.3,-184.08 648.58,-190.7"/>
</a>
</g>
</g>
<!-- Node20 -->
<g id="Node000020" class="node">
<title>Node20</title>
<g id="a_Node000020"><a xlink:href="log_8hpp.html" target="_top" xlink:title=" ">
<polygon fill="white" stroke="#666666" points="981,-74 885,-74 885,-55 981,-55 981,-74"/>
<text text-anchor="middle" x="933" y="-62" font-family="Helvetica,sans-Serif" font-size="10.00">uvgvpcc/log.hpp</text>
</a>
</g>
</g>
<!-- Node1&#45;&gt;Node20 -->
<g id="edge24_Node000001_Node000020" class="edge">
<title>Node1&#45;&gt;Node20</title>
<g id="a_edge24_Node000001_Node000020"><a xlink:title=" ">
<path fill="none" stroke="#63b8ff" d="M569.64,-233.42C630.33,-230.72 727.24,-220.39 802,-184 853.03,-159.16 898.75,-108.3 920.16,-82.03"/>
<polygon fill="#63b8ff" stroke="#63b8ff" points="922.96,-84.13 926.46,-74.13 917.49,-79.76 922.96,-84.13"/>
</a>
</g>
</g>
<!-- Node2&#45;&gt;Node3 -->
<g id="edge2_Node000002_Node000003" class="edge">
<title>Node2&#45;&gt;Node3</title>
<g id="a_edge2_Node000002_Node000003"><a xlink:title=" ">
<path fill="none" stroke="#63b8ff" d="M431.89,-109.98C443.15,-101.92 460.29,-89.65 473.71,-80.03"/>
<polygon fill="#63b8ff" stroke="#63b8ff" points="475.8,-82.84 481.89,-74.17 471.73,-77.15 475.8,-82.84"/>
</a>
</g>
</g>
<!-- Node4 -->
<g id="Node000004" class="node">
<title>Node4</title>
<g id="a_Node000004"><a xlink:title=" ">
<polygon fill="#e0e0e0" stroke="#999999" points="450.5,-19 397.5,-19 397.5,0 450.5,0 450.5,-19"/>
<text text-anchor="middle" x="424" y="-7" font-family="Helvetica,sans-Serif" font-size="10.00">cstddef</text>
</a>
</g>
</g>
<!-- Node3&#45;&gt;Node4 -->
<g id="edge3_Node000003_Node000004" class="edge">
<title>Node3&#45;&gt;Node4</title>
<g id="a_edge3_Node000003_Node000004"><a xlink:title=" ">
<path fill="none" stroke="#63b8ff" d="M482.75,-54.98C472.2,-47 456.2,-34.88 443.56,-25.31"/>
<polygon fill="#63b8ff" stroke="#63b8ff" points="445.54,-22.42 435.45,-19.17 441.31,-28 445.54,-22.42"/>
</a>
</g>
</g>
<!-- Node5 -->
<g id="Node000005" class="node">
<title>Node5</title>
<g id="a_Node000005"><a xlink:title=" ">
<polygon fill="#e0e0e0" stroke="#999999" points="519,-19 469,-19 469,0 519,0 519,-19"/>
<text text-anchor="middle" x="494" y="-7" font-family="Helvetica,sans-Serif" font-size="10.00">cstdint</text>
</a>
</g>
</g>
<!-- Node3&#45;&gt;Node5 -->
<g id="edge4_Node000003_Node000005" class="edge">
<title>Node3&#45;&gt;Node5</title>
<g id="a_edge4_Node000003_Node000005"><a xlink:title=" ">
<path fill="none" stroke="#63b8ff" d="M494,-54.75C494,-47.8 494,-37.85 494,-29.13"/>
<polygon fill="#63b8ff" stroke="#63b8ff" points="497.5,-29.09 494,-19.09 490.5,-29.09 497.5,-29.09"/>
</a>
</g>
</g>
<!-- Node6 -->
<g id="Node000006" class="node">
<title>Node6</title>
<g id="a_Node000006"><a xlink:title=" ">
<polygon fill="#e0e0e0" stroke="#999999" points="888,-19 828,-19 828,0 888,0 888,-19"/>
<text text-anchor="middle" x="858" y="-7" font-family="Helvetica,sans-Serif" font-size="10.00">iostream</text>
</a>
</g>
</g>
<!-- Node3&#45;&gt;Node6 -->
<g id="edge5_Node000003_Node000006" class="edge">
<title>Node3&#45;&gt;Node6</title>
<g id="a_edge5_Node000003_Node000006"><a xlink:title=" ">
<path fill="none" stroke="#63b8ff" d="M555.02,-56.6C618.33,-49.1 720.4,-36.12 817.8,-19.09"/>
<polygon fill="#63b8ff" stroke="#63b8ff" points="818.57,-22.51 827.81,-17.32 817.36,-15.62 818.57,-22.51"/>
</a>
</g>
</g>
<!-- Node3&#45;&gt;Node7 -->
<g id="edge6_Node000003_Node000007" class="edge">
<title>Node3&#45;&gt;Node7</title>
<g id="a_edge6_Node000003_Node000007"><a xlink:title=" ">
<path fill="none" stroke="#63b8ff" d="M432.89,-59.38C351.77,-53.4 203.9,-40.79 68.53,-19.08"/>
<polygon fill="#63b8ff" stroke="#63b8ff" points="68.82,-15.58 58.39,-17.43 67.7,-22.49 68.82,-15.58"/>
</a>
</g>
</g>
<!-- Node8 -->
<g id="Node000008" class="node">
<title>Node8</title>
<g id="a_Node000008"><a xlink:title=" ">
<polygon fill="#e0e0e0" stroke="#999999" points="584.5,-19 537.5,-19 537.5,0 584.5,0 584.5,-19"/>
<text text-anchor="middle" x="561" y="-7" font-family="Helvetica,sans-Serif" font-size="10.00">queue</text>
</a>
</g>
</g>
<!-- Node3&#45;&gt;Node8 -->
<g id="edge7_Node000003_Node000008" class="edge">
<title>Node3&#45;&gt;Node8</title>
<g id="a_edge7_Node000003_Node000008"><a xlink:title=" ">
<path fill="none" stroke="#63b8ff" d="M504.76,-54.98C514.77,-47.07 529.89,-35.11 541.93,-25.58"/>
<polygon fill="#63b8ff" stroke="#63b8ff" points="544.37,-28.12 550.04,-19.17 540.03,-22.63 544.37,-28.12"/>
</a>
</g>
</g>
<!-- Node9 -->
<g id="Node000009" class="node">
<title>Node9</title>
<g id="a_Node000009"><a xlink:title=" ">
<polygon fill="#e0e0e0" stroke="#999999" points="673.5,-19 602.5,-19 602.5,0 673.5,0 673.5,-19"/>
<text text-anchor="middle" x="638" y="-7" font-family="Helvetica,sans-Serif" font-size="10.00">semaphore</text>
</a>
</g>
</g>
<!-- Node3&#45;&gt;Node9 -->
<g id="edge8_Node000003_Node000009" class="edge">
<title>Node3&#45;&gt;Node9</title>
<g id="a_edge8_Node000003_Node000009"><a xlink:title=" ">
<path fill="none" stroke="#63b8ff" d="M517.14,-54.98C540.82,-46.27 577.87,-32.63 604.71,-22.75"/>
<polygon fill="#63b8ff" stroke="#63b8ff" points="606.27,-25.91 614.44,-19.17 603.85,-19.34 606.27,-25.91"/>
</a>
</g>
</g>
<!-- Node10 -->
<g id="Node000010" class="node">
<title>Node10</title>
<g id="a_Node000010"><a xlink:title=" ">
<polygon fill="#e0e0e0" stroke="#999999" points="748,-19 692,-19 692,0 748,0 748,-19"/>
<text text-anchor="middle" x="720" y="-7" font-family="Helvetica,sans-Serif" font-size="10.00">sstream</text>
</a>
</g>
</g>
<!-- Node3&#45;&gt;Node10 -->
<g id="edge9_Node000003_Node000010" class="edge">
<title>Node3&#45;&gt;Node10</title>
<g id="a_edge9_Node000003_Node000010"><a xlink:title=" ">
<path fill="none" stroke="#63b8ff" d="M530.31,-54.98C571.92,-45.23 639.81,-29.31 682.08,-19.39"/>
<polygon fill="#63b8ff" stroke="#63b8ff" points="683.05,-22.76 691.99,-17.07 681.45,-15.94 683.05,-22.76"/>
</a>
</g>
</g>
<!-- Node3&#45;&gt;Node11 -->
<g id="edge10_Node000003_Node000011" class="edge">
<title>Node3&#45;&gt;Node11</title>
<g id="a_edge10_Node000003_Node000011"><a xlink:title=" ">
<path fill="none" stroke="#63b8ff" d="M554.66,-55C605.88,-47.42 681.33,-35.32 755.71,-19.11"/>
<polygon fill="#63b8ff" stroke="#63b8ff" points="756.7,-22.47 765.72,-16.9 755.2,-15.63 756.7,-22.47"/>
</a>
</g>
</g>
<!-- Node12 -->
<g id="Node000012" class="node">
<title>Node12</title>
<g id="a_Node000012"><a xlink:title=" ">
<polygon fill="#e0e0e0" stroke="#999999" points="123.5,-19 76.5,-19 76.5,0 123.5,0 123.5,-19"/>
<text text-anchor="middle" x="100" y="-7" font-family="Helvetica,sans-Serif" font-size="10.00">vector</text>
</a>
</g>
</g>
<!-- Node3&#45;&gt;Node12 -->
<g id="edge11_Node000003_Node000012" class="edge">
<title>Node3&#45;&gt;Node12</title>
<g id="a_edge11_Node000003_Node000012"><a xlink:title=" ">
<path fill="none" stroke="#63b8ff" d="M432.95,-58.4C362.97,-52.02 244.72,-39.58 133.74,-18.89"/>
<polygon fill="#63b8ff" stroke="#63b8ff" points="134.19,-15.42 123.71,-17 132.89,-22.3 134.19,-15.42"/>
</a>
</g>
</g>
<!-- Node13 -->
<g id="Node000013" class="node">
<title>Node13</title>
<g id="a_Node000013"><a xlink:title=" ">
<polygon fill="#e0e0e0" stroke="#999999" points="234,-19 142,-19 142,0 234,0 234,-19"/>
<text text-anchor="middle" x="188" y="-7" font-family="Helvetica,sans-Serif" font-size="10.00">../utils/utils.hpp</text>
</a>
</g>
</g>
<!-- Node3&#45;&gt;Node13 -->
<g id="edge12_Node000003_Node000013" class="edge">
<title>Node3&#45;&gt;Node13</title>
<g id="a_edge12_Node000003_Node000013"><a xlink:title=" ">
<path fill="none" stroke="#63b8ff" d="M444.84,-54.98C390.01,-45.49 301.51,-30.16 244.04,-20.21"/>
<polygon fill="#63b8ff" stroke="#63b8ff" points="244.49,-16.73 234.04,-18.47 243.29,-23.63 244.49,-16.73"/>
</a>
</g>
</g>
<!-- Node14 -->
<g id="Node000014" class="node">
<title>Node14</title>
<g id="a_Node000014"><a xlink:title=" ">
<polygon fill="#e0e0e0" stroke="#999999" points="379.5,-19 252.5,-19 252.5,0 379.5,0 379.5,-19"/>
<text text-anchor="middle" x="316" y="-7" font-family="Helvetica,sans-Serif" font-size="10.00">../utils/parameters.hpp</text>
</a>
</g>
</g>
<!-- Node3&#45;&gt;Node14 -->
<g id="edge13_Node000003_Node000014" class="edge">
<title>Node3&#45;&gt;Node14</title>
<g id="a_edge13_Node000003_Node000014"><a xlink:title=" ">
<path fill="none" stroke="#63b8ff" d="M465.4,-54.98C435.39,-46.05 388.02,-31.94 354.68,-22.02"/>
<polygon fill="#63b8ff" stroke="#63b8ff" points="355.41,-18.58 344.82,-19.08 353.41,-25.29 355.41,-18.58"/>
</a>
</g>
</g>
<!-- Node17&#45;&gt;Node3 -->
<g id="edge19_Node000017_Node000003" class="edge">
<title>Node17&#45;&gt;Node3</title>
<g id="a_edge19_Node000017_Node000003"><a xlink:title=" ">
<path fill="none" stroke="#63b8ff" d="M553.59,-109.98C542.89,-102 526.66,-89.88 513.84,-80.31"/>
<polygon fill="#63b8ff" stroke="#63b8ff" points="515.72,-77.35 505.61,-74.17 511.53,-82.96 515.72,-77.35"/>
</a>
</g>
</g>
<!-- Node18&#45;&gt;Node3 -->
<g id="edge22_Node000018_Node000003" class="edge">
<title>Node18&#45;&gt;Node3</title>
<g id="a_edge22_Node000018_Node000003"><a xlink:title=" ">
<path fill="none" stroke="#63b8ff" d="M679.84,-164.69C676,-150.95 666.7,-124.47 649,-110 625.35,-90.66 593.69,-79.72 565.16,-73.53"/>
<polygon fill="#63b8ff" stroke="#63b8ff" points="565.71,-70.07 555.21,-71.54 564.33,-76.94 565.71,-70.07"/>
</a>
</g>
</g>
<!-- Node18&#45;&gt;Node17 -->
<g id="edge23_Node000018_Node000017" class="edge">
<title>Node18&#45;&gt;Node17</title>
<g id="a_edge23_Node000018_Node000017"><a xlink:title=" ">
<path fill="none" stroke="#63b8ff" d="M663.2,-164.98C644.38,-156.46 615.18,-143.23 593.5,-133.41"/>
<polygon fill="#63b8ff" stroke="#63b8ff" points="594.69,-130.11 584.14,-129.17 591.8,-136.48 594.69,-130.11"/>
</a>
</g>
</g>
<!-- Node19 -->
<g id="Node000019" class="node">
<title>Node19</title>
<g id="a_Node000019"><a xlink:title=" ">
<polygon fill="#e0e0e0" stroke="#999999" points="760,-129 696,-129 696,-110 760,-110 760,-129"/>
<text text-anchor="middle" x="728" y="-117" font-family="Helvetica,sans-Serif" font-size="10.00">kvazaar.h</text>
</a>
</g>
</g>
<!-- Node18&#45;&gt;Node19 -->
<g id="edge21_Node000018_Node000019" class="edge">
<title>Node18&#45;&gt;Node19</title>
<g id="a_edge21_Node000018_Node000019"><a xlink:title=" ">
<path fill="none" stroke="#63b8ff" d="M689.6,-164.75C696.16,-157.18 705.82,-146.05 713.81,-136.84"/>
<polygon fill="#63b8ff" stroke="#63b8ff" points="716.63,-138.94 720.55,-129.09 711.35,-134.35 716.63,-138.94"/>
</a>
</g>
</g>
<!-- Node20&#45;&gt;Node6 -->
<g id="edge28_Node000020_Node000006" class="edge">
<title>Node20&#45;&gt;Node6</title>
<g id="a_edge28_Node000020_Node000006"><a xlink:title=" ">
<path fill="none" stroke="#63b8ff" d="M920.95,-54.98C909.54,-46.92 892.17,-34.65 878.57,-25.03"/>
<polygon fill="#63b8ff" stroke="#63b8ff" points="880.46,-22.08 870.27,-19.17 876.42,-27.8 880.46,-22.08"/>
</a>
</g>
</g>
<!-- Node20&#45;&gt;Node11 -->
<g id="edge29_Node000020_Node000011" class="edge">
<title>Node20&#45;&gt;Node11</title>
<g id="a_edge29_Node000020_Node000011"><a xlink:title=" ">
<path fill="none" stroke="#63b8ff" d="M909.7,-54.98C885.32,-46.07 846.87,-32.02 819.73,-22.1"/>
<polygon fill="#63b8ff" stroke="#63b8ff" points="820.88,-18.79 810.29,-18.65 818.48,-25.37 820.88,-18.79"/>
</a>
</g>
</g>
<!-- Node21 -->
<g id="Node000021" class="node">
<title>Node21</title>
<g id="a_Node000021"><a xlink:title=" ">
<polygon fill="#e0e0e0" stroke="#999999" points="1168,-19 1118,-19 1118,0 1168,0 1168,-19"/>
<text text-anchor="middle" x="1143" y="-7" font-family="Helvetica,sans-Serif" font-size="10.00">chrono</text>
</a>
</g>
</g>
<!-- Node20&#45;&gt;Node21 -->
<g id="edge25_Node000020_Node000021" class="edge">
<title>Node20&#45;&gt;Node21</title>
<g id="a_edge25_Node000020_Node000021"><a xlink:title=" ">
<path fill="none" stroke="#63b8ff" d="M966.74,-54.98C1005.48,-45.21 1068.73,-29.25 1107.99,-19.34"/>
<polygon fill="#63b8ff" stroke="#63b8ff" points="1109.07,-22.67 1117.91,-16.83 1107.36,-15.89 1109.07,-22.67"/>
</a>
</g>
</g>
<!-- Node22 -->
<g id="Node000022" class="node">
<title>Node22</title>
<g id="a_Node000022"><a xlink:title=" ">
<polygon fill="#e0e0e0" stroke="#999999" points="959.5,-19 906.5,-19 906.5,0 959.5,0 959.5,-19"/>
<text text-anchor="middle" x="933" y="-7" font-family="Helvetica,sans-Serif" font-size="10.00">cstdarg</text>
</a>
</g>
</g>
<!-- Node20&#45;&gt;Node22 -->
<g id="edge26_Node000020_Node000022" class="edge">
<title>Node20&#45;&gt;Node22</title>
<g id="a_edge26_Node000020_Node000022"><a xlink:title=" ">
<path fill="none" stroke="#63b8ff" d="M933,-54.75C933,-47.8 933,-37.85 933,-29.13"/>
<polygon fill="#63b8ff" stroke="#63b8ff" points="936.5,-29.09 933,-19.09 929.5,-29.09 936.5,-29.09"/>
</a>
</g>
</g>
<!-- Node23 -->
<g id="Node000023" class="node">
<title>Node23</title>
<g id="a_Node000023"><a xlink:title=" ">
<polygon fill="#e0e0e0" stroke="#999999" points="1034,-19 978,-19 978,0 1034,0 1034,-19"/>
<text text-anchor="middle" x="1006" y="-7" font-family="Helvetica,sans-Serif" font-size="10.00">iomanip</text>
</a>
</g>
</g>
<!-- Node20&#45;&gt;Node23 -->
<g id="edge27_Node000020_Node000023" class="edge">
<title>Node20&#45;&gt;Node23</title>
<g id="a_edge27_Node000020_Node000023"><a xlink:title=" ">
<path fill="none" stroke="#63b8ff" d="M944.73,-54.98C955.73,-47 972.42,-34.88 985.6,-25.31"/>
<polygon fill="#63b8ff" stroke="#63b8ff" points="988.02,-27.88 994.06,-19.17 983.91,-22.21 988.02,-27.88"/>
</a>
</g>
</g>
<!-- Node24 -->
<g id="Node000024" class="node">
<title>Node24</title>
<g id="a_Node000024"><a xlink:title=" ">
<polygon fill="#e0e0e0" stroke="#999999" points="1100,-19 1052,-19 1052,0 1100,0 1100,-19"/>
<text text-anchor="middle" x="1076" y="-7" font-family="Helvetica,sans-Serif" font-size="10.00">mutex</text>
</a>
</g>
</g>
<!-- Node20&#45;&gt;Node24 -->
<g id="edge30_Node000020_Node000024" class="edge">
<title>Node20&#45;&gt;Node24</title>
<g id="a_edge30_Node000020_Node000024"><a xlink:title=" ">
<path fill="none" stroke="#63b8ff" d="M955.98,-54.98C979.5,-46.27 1016.29,-32.63 1042.94,-22.75"/>
<polygon fill="#63b8ff" stroke="#63b8ff" points="1044.45,-25.93 1052.61,-19.17 1042.01,-19.36 1044.45,-25.93"/>
</a>
</g>
</g>
</g>
</svg>

<g id="navigator" transform="translate(0 0)" fill="#404254">
  <rect fill="#f2f5e9" fill-opacity="0.5" stroke="#606060" stroke-width=".5" x="0" y="0" width="60" height="60"/>
  <use id="zoomplus" xlink:href="#zoomPlus" x="17" y="9" onmousedown="handleZoom(evt,'in')"/>
  <use id="zoomminus" xlink:href="#zoomMin" x="42" y="9" onmousedown="handleZoom(evt,'out')"/>
  <use id="reset" xlink:href="#resetDef" x="30" y="36" onmousedown="handleReset()"/>
   <use id="arrowup" xlink:href="#arrowUp" x="0" y="0" onmousedown="handlePan(0,-1)"/>
  <use id="arrowright" xlink:href="#arrowRight" x="0" y="0" onmousedown="handlePan(1,0)"/>
  <use id="arrowdown" xlink:href="#arrowDown" x="0" y="0" onmousedown="handlePan(0,1)"/>
  <use id="arrowleft" xlink:href="#arrowLeft" x="0" y="0" onmousedown="handlePan(-1,0)"/>
</g>
<svg viewBox="0 0 15 15" width="100%" height="30px" preserveAspectRatio="xMaxYMin meet">
 <g id="arrow_out" transform="scale(0.3 0.3)">
  <a xlink:href="mapEncoding_8cpp__incl_org.svg" target="_base">
   <rect id="button" ry="5" rx="5" y="6" x="6" height="38" width="38"
        fill="#f2f5e9" fill-opacity="0.5" stroke="#606060" stroke-width="1.0"/>
   <path id="arrow"
     d="M 11.500037,31.436501 C 11.940474,20.09759 22.043105,11.32322 32.158766,21.979434 L 37.068811,17.246167 C 37.068811,17.246167 37.088388,32 37.088388,32 L 22.160133,31.978069 C 22.160133,31.978069 26.997745,27.140456 26.997745,27.140456 C 18.528582,18.264221 13.291696,25.230495 11.500037,31.436501 z"
     style="fill:#404040;"/>
  </a>
 </g>
</svg>

<style type='text/css'>
<![CDATA[
[data-mouse-over-selected='false'] { opacity: 0.7; }
[data-mouse-over-selected='true']  { opacity: 1.0; }
]]>
</style>
<script type="application/ecmascript"><![CDATA[
document.addEventListener('DOMContentLoaded', (event) => {
  highlightEdges();
  highlightAdjacentNodes();
});
]]></script>
</svg>
