<?xml version="1.0" encoding="UTF-8" standalone="no"?>
<!DOCTYPE svg PUBLIC "-//W3C//DTD SVG 1.1//EN"
 "http://www.w3.org/Graphics/SVG/1.1/DTD/svg11.dtd">
<!-- Generated by graphviz version 2.43.0 (0)
 -->
<!-- Title: src/lib/mapEncoding/mapEncoding.cpp Pages: 1 -->
<svg width="1152pt" height="258pt"
 viewBox="0.00 0.00 1152.00 258.00" xmlns="http://www.w3.org/2000/svg" xmlns:xlink="http://www.w3.org/1999/xlink">
<g id="graph0" class="graph" transform="scale(1 1) rotate(0) translate(4 254)">
<title>src/lib/mapEncoding/mapEncoding.cpp</title>
<!-- Node1 -->
<g id="Node000001" class="node">
<title>Node1</title>
<g id="a_Node000001"><a xlink:title=" ">
<polygon fill="#999999" stroke="#666666" points="497.5,-250 382.5,-250 382.5,-220 497.5,-220 497.5,-250"/>
<text text-anchor="start" x="390.5" y="-238" font-family="Helvetica,sans-Serif" font-size="10.00">src/lib/mapEncoding</text>
<text text-anchor="middle" x="440" y="-227" font-family="Helvetica,sans-Serif" font-size="10.00">/mapEncoding.cpp</text>
</a>
</g>
</g>
<!-- Node2 -->
<g id="Node000002" class="node">
<title>Node2</title>
<g id="a_Node000002"><a xlink:href="mapEncoding_8hpp.html" target="_top" xlink:title=" ">
<polygon fill="white" stroke="#666666" points="513,-129 409,-129 409,-110 513,-110 513,-129"/>
<text text-anchor="middle" x="461" y="-117" font-family="Helvetica,sans-Serif" font-size="10.00">mapEncoding.hpp</text>
</a>
</g>
</g>
<!-- Node1&#45;&gt;Node2 -->
<g id="edge1_Node000001_Node000002" class="edge">
<title>Node1&#45;&gt;Node2</title>
<g id="a_edge1_Node000001_Node000002"><a xlink:title=" ">
<path fill="none" stroke="#63b8ff" d="M471.26,-219.84C485.53,-211.59 501,-199.68 509,-184 518.36,-165.66 500.56,-147.15 484.04,-134.89"/>
<polygon fill="#63b8ff" stroke="#63b8ff" points="485.89,-131.91 475.68,-129.08 481.89,-137.66 485.89,-131.91"/>
</a>
</g>
</g>
<!-- Node3 -->
<g id="Node000003" class="node">
<title>Node3</title>
<g id="a_Node000003"><a xlink:href="uvgvpcc_8hpp.html" target="_top" xlink:title=" ">
<polygon fill="white" stroke="#666666" points="412,-74 290,-74 290,-55 412,-55 412,-74"/>
<text text-anchor="middle" x="351" y="-62" font-family="Helvetica,sans-Serif" font-size="10.00">uvgvpcc/uvgvpcc.hpp</text>
</a>
</g>
</g>
<!-- Node1&#45;&gt;Node3 -->
<g id="edge40_Node000001_Node000003" class="edge">
<title>Node1&#45;&gt;Node3</title>
<g id="a_edge40_Node000001_Node000003"><a xlink:title=" ">
<path fill="none" stroke="#63b8ff" d="M410.9,-219.85C396.63,-211.41 380.52,-199.33 371,-184 351.72,-152.93 349.46,-108.87 349.96,-84.16"/>
<polygon fill="#63b8ff" stroke="#63b8ff" points="353.46,-84.13 350.34,-74.01 346.47,-83.87 353.46,-84.13"/>
</a>
</g>
</g>
<!-- Node7 -->
<g id="Node000007" class="node">
<title>Node7</title>
<g id="a_Node000007"><a xlink:title=" ">
<polygon fill="#e0e0e0" stroke="#999999" points="58,-19 0,-19 0,0 58,0 58,-19"/>
<text text-anchor="middle" x="29" y="-7" font-family="Helvetica,sans-Serif" font-size="10.00">memory</text>
</a>
</g>
</g>
<!-- Node1&#45;&gt;Node7 -->
<g id="edge15_Node000001_Node000007" class="edge">
<title>Node1&#45;&gt;Node7</title>
<g id="a_edge15_Node000001_Node000007"><a xlink:title=" ">
<path fill="none" stroke="#63b8ff" d="M382.38,-227.32C283.31,-214.5 87.49,-182.82 48,-129 26.3,-99.43 25.46,-54.49 27.05,-29.31"/>
<polygon fill="#63b8ff" stroke="#63b8ff" points="30.55,-29.51 27.89,-19.25 23.57,-28.92 30.55,-29.51"/>
</a>
</g>
</g>
<!-- Node11 -->
<g id="Node000011" class="node">
<title>Node11</title>
<g id="a_Node000011"><a xlink:title=" ">
<polygon fill="#e0e0e0" stroke="#999999" points="664,-19 620,-19 620,0 664,0 664,-19"/>
<text text-anchor="middle" x="642" y="-7" font-family="Helvetica,sans-Serif" font-size="10.00">string</text>
</a>
</g>
</g>
<!-- Node1&#45;&gt;Node11 -->
<g id="edge16_Node000001_Node000011" class="edge">
<title>Node1&#45;&gt;Node11</title>
<g id="a_edge16_Node000001_Node000011"><a xlink:title=" ">
<path fill="none" stroke="#63b8ff" d="M470.54,-219.96C487.51,-211.19 508.31,-198.77 524,-184 550.65,-158.91 608.18,-66.29 631.68,-27.63"/>
<polygon fill="#63b8ff" stroke="#63b8ff" points="634.7,-29.4 636.88,-19.03 628.71,-25.78 634.7,-29.4"/>
</a>
</g>
</g>
<!-- Node14 -->
<g id="Node000014" class="node">
<title>Node14</title>
<g id="a_Node000014"><a xlink:title=" ">
<polygon fill="#e0e0e0" stroke="#999999" points="432,-184 380,-184 380,-165 432,-165 432,-184"/>
<text text-anchor="middle" x="406" y="-172" font-family="Helvetica,sans-Serif" font-size="10.00">cassert</text>
</a>
</g>
</g>
<!-- Node1&#45;&gt;Node14 -->
<g id="edge13_Node000001_Node000014" class="edge">
<title>Node1&#45;&gt;Node14</title>
<g id="a_edge13_Node000001_Node000014"><a xlink:title=" ">
<path fill="none" stroke="#63b8ff" d="M431.77,-219.84C427.09,-211.78 421.18,-201.62 416.2,-193.06"/>
<polygon fill="#63b8ff" stroke="#63b8ff" points="419.15,-191.15 411.09,-184.27 413.09,-194.67 419.15,-191.15"/>
</a>
</g>
</g>
<!-- Node15 -->
<g id="Node000015" class="node">
<title>Node15</title>
<g id="a_Node000015"><a xlink:title=" ">
<polygon fill="#e0e0e0" stroke="#999999" points="500,-184 450,-184 450,-165 500,-165 500,-184"/>
<text text-anchor="middle" x="475" y="-172" font-family="Helvetica,sans-Serif" font-size="10.00">cstring</text>
</a>
</g>
</g>
<!-- Node1&#45;&gt;Node15 -->
<g id="edge14_Node000001_Node000015" class="edge">
<title>Node1&#45;&gt;Node15</title>
<g id="a_edge14_Node000001_Node000015"><a xlink:title=" ">
<path fill="none" stroke="#63b8ff" d="M448.47,-219.84C453.29,-211.78 459.37,-201.62 464.5,-193.06"/>
<polygon fill="#63b8ff" stroke="#63b8ff" points="467.62,-194.64 469.76,-184.27 461.62,-191.05 467.62,-194.64"/>
</a>
</g>
</g>
<!-- Node16 -->
<g id="Node000016" class="node">
<title>Node16</title>
<g id="a_Node000016"><a xlink:href="abstract2DMapEncoder_8hpp.html" target="_top" xlink:title=" ">
<polygon fill="white" stroke="#666666" points="207,-129 57,-129 57,-110 207,-110 207,-129"/>
<text text-anchor="middle" x="132" y="-117" font-family="Helvetica,sans-Serif" font-size="10.00">abstract2DMapEncoder.hpp</text>
</a>
</g>
</g>
<!-- Node1&#45;&gt;Node16 -->
<g id="edge17_Node000001_Node000016" class="edge">
<title>Node1&#45;&gt;Node16</title>
<g id="a_edge17_Node000001_Node000016"><a xlink:title=" ">
<path fill="none" stroke="#63b8ff" d="M382.36,-233.92C327.44,-231.4 244.29,-221 183,-184 164.71,-172.96 150.24,-152.82 141.45,-138.18"/>
<polygon fill="#63b8ff" stroke="#63b8ff" points="144.28,-136.07 136.3,-129.1 138.19,-139.52 144.28,-136.07"/>
</a>
</g>
</g>
<!-- Node17 -->
<g id="Node000017" class="node">
<title>Node17</title>
<g id="a_Node000017"><a xlink:href="encoderKvazaar_8hpp.html" target="_top" xlink:title=" ">
<polygon fill="white" stroke="#666666" points="308,-184 192,-184 192,-165 308,-165 308,-184"/>
<text text-anchor="middle" x="250" y="-172" font-family="Helvetica,sans-Serif" font-size="10.00">encoderKvazaar.hpp</text>
</a>
</g>
</g>
<!-- Node1&#45;&gt;Node17 -->
<g id="edge19_Node000001_Node000017" class="edge">
<title>Node1&#45;&gt;Node17</title>
<g id="a_edge19_Node000001_Node000017"><a xlink:title=" ">
<path fill="none" stroke="#63b8ff" d="M394.49,-219.99C361.84,-209.94 318.37,-196.55 287.67,-187.1"/>
<polygon fill="#63b8ff" stroke="#63b8ff" points="288.37,-183.65 277.78,-184.05 286.31,-190.34 288.37,-183.65"/>
</a>
</g>
</g>
<!-- Node19 -->
<g id="Node000019" class="node">
<title>Node19</title>
<g id="a_Node000019"><a xlink:href="parameters_8hpp.html" target="_top" xlink:title=" ">
<polygon fill="white" stroke="#666666" points="712,-129 594,-129 594,-110 712,-110 712,-129"/>
<text text-anchor="middle" x="653" y="-117" font-family="Helvetica,sans-Serif" font-size="10.00">utils/parameters.hpp</text>
</a>
</g>
</g>
<!-- Node1&#45;&gt;Node19 -->
<g id="edge23_Node000001_Node000019" class="edge">
<title>Node1&#45;&gt;Node19</title>
<g id="a_edge23_Node000001_Node000019"><a xlink:title=" ">
<path fill="none" stroke="#63b8ff" d="M493.92,-219.9C520.84,-211.61 553.27,-199.64 580,-184 602.3,-170.95 624.15,-150.66 638.05,-136.54"/>
<polygon fill="#63b8ff" stroke="#63b8ff" points="640.85,-138.68 645.26,-129.04 635.8,-133.83 640.85,-138.68"/>
</a>
</g>
</g>
<!-- Node25 -->
<g id="Node000025" class="node">
<title>Node25</title>
<g id="a_Node000025"><a xlink:href="log_8hpp.html" target="_top" xlink:title=" ">
<polygon fill="white" stroke="#666666" points="958,-74 862,-74 862,-55 958,-55 958,-74"/>
<text text-anchor="middle" x="910" y="-62" font-family="Helvetica,sans-Serif" font-size="10.00">uvgvpcc/log.hpp</text>
</a>
</g>
</g>
<!-- Node1&#45;&gt;Node25 -->
<g id="edge33_Node000001_Node000025" class="edge">
<title>Node1&#45;&gt;Node25</title>
<g id="a_edge33_Node000001_Node000025"><a xlink:title=" ">
<path fill="none" stroke="#63b8ff" d="M490.77,-219.97C524.04,-210.49 568.37,-197.31 607,-184 708.55,-149.01 826.43,-100.61 880.34,-78.04"/>
<polygon fill="#63b8ff" stroke="#63b8ff" points="881.78,-81.23 889.64,-74.13 879.07,-74.78 881.78,-81.23"/>
</a>
</g>
</g>
<!-- Node2&#45;&gt;Node3 -->
<g id="edge2_Node000002_Node000003" class="edge">
<title>Node2&#45;&gt;Node3</title>
<g id="a_edge2_Node000002_Node000003"><a xlink:title=" ">
<path fill="none" stroke="#63b8ff" d="M443.33,-109.98C425.71,-101.5 398.42,-88.35 378.07,-78.54"/>
<polygon fill="#63b8ff" stroke="#63b8ff" points="379.52,-75.36 368.99,-74.17 376.48,-81.66 379.52,-75.36"/>
</a>
</g>
</g>
<!-- Node4 -->
<g id="Node000004" class="node">
<title>Node4</title>
<g id="a_Node000004"><a xlink:title=" ">
<polygon fill="#e0e0e0" stroke="#999999" points="129.5,-19 76.5,-19 76.5,0 129.5,0 129.5,-19"/>
<text text-anchor="middle" x="103" y="-7" font-family="Helvetica,sans-Serif" font-size="10.00">cstddef</text>
</a>
</g>
</g>
<!-- Node3&#45;&gt;Node4 -->
<g id="edge3_Node000003_Node000004" class="edge">
<title>Node3&#45;&gt;Node4</title>
<g id="a_edge3_Node000003_Node000004"><a xlink:title=" ">
<path fill="none" stroke="#63b8ff" d="M308.07,-54.96C267.1,-46.7 203.38,-33.63 139.56,-19.3"/>
<polygon fill="#63b8ff" stroke="#63b8ff" points="140.26,-15.87 129.73,-17.09 138.72,-22.7 140.26,-15.87"/>
</a>
</g>
</g>
<!-- Node5 -->
<g id="Node000005" class="node">
<title>Node5</title>
<g id="a_Node000005"><a xlink:title=" ">
<polygon fill="#e0e0e0" stroke="#999999" points="528,-19 478,-19 478,0 528,0 528,-19"/>
<text text-anchor="middle" x="503" y="-7" font-family="Helvetica,sans-Serif" font-size="10.00">cstdint</text>
</a>
</g>
</g>
<!-- Node3&#45;&gt;Node5 -->
<g id="edge4_Node000003_Node000005" class="edge">
<title>Node3&#45;&gt;Node5</title>
<g id="a_edge4_Node000003_Node000005"><a xlink:title=" ">
<path fill="none" stroke="#63b8ff" d="M375.42,-54.98C400.72,-46.16 440.45,-32.31 468.86,-22.41"/>
<polygon fill="#63b8ff" stroke="#63b8ff" points="470.1,-25.68 478.39,-19.08 467.79,-19.07 470.1,-25.68"/>
</a>
</g>
</g>
<!-- Node6 -->
<g id="Node000006" class="node">
<title>Node6</title>
<g id="a_Node000006"><a xlink:title=" ">
<polygon fill="#e0e0e0" stroke="#999999" points="802,-19 742,-19 742,0 802,0 802,-19"/>
<text text-anchor="middle" x="772" y="-7" font-family="Helvetica,sans-Serif" font-size="10.00">iostream</text>
</a>
</g>
</g>
<!-- Node3&#45;&gt;Node6 -->
<g id="edge5_Node000003_Node000006" class="edge">
<title>Node3&#45;&gt;Node6</title>
<g id="a_edge5_Node000003_Node000006"><a xlink:title=" ">
<path fill="none" stroke="#63b8ff" d="M412.13,-58.25C485.71,-51.52 613.17,-38.52 731.84,-19.04"/>
<polygon fill="#63b8ff" stroke="#63b8ff" points="732.53,-22.48 741.82,-17.38 731.38,-15.57 732.53,-22.48"/>
</a>
</g>
</g>
<!-- Node3&#45;&gt;Node7 -->
<g id="edge6_Node000003_Node000007" class="edge">
<title>Node3&#45;&gt;Node7</title>
<g id="a_edge6_Node000003_Node000007"><a xlink:title=" ">
<path fill="none" stroke="#63b8ff" d="M289.86,-55.09C234.47,-47.2 150.37,-34.57 68.04,-19.09"/>
<polygon fill="#63b8ff" stroke="#63b8ff" points="68.48,-15.61 58.01,-17.19 67.18,-22.49 68.48,-15.61"/>
</a>
</g>
</g>
<!-- Node8 -->
<g id="Node000008" class="node">
<title>Node8</title>
<g id="a_Node000008"><a xlink:title=" ">
<polygon fill="#e0e0e0" stroke="#999999" points="194.5,-19 147.5,-19 147.5,0 194.5,0 194.5,-19"/>
<text text-anchor="middle" x="171" y="-7" font-family="Helvetica,sans-Serif" font-size="10.00">queue</text>
</a>
</g>
</g>
<!-- Node3&#45;&gt;Node8 -->
<g id="edge7_Node000003_Node000008" class="edge">
<title>Node3&#45;&gt;Node8</title>
<g id="a_edge7_Node000003_Node000008"><a xlink:title=" ">
<path fill="none" stroke="#63b8ff" d="M322.08,-54.98C290.02,-45.54 238.37,-30.34 204.56,-20.38"/>
<polygon fill="#63b8ff" stroke="#63b8ff" points="205.26,-16.94 194.68,-17.47 203.28,-23.65 205.26,-16.94"/>
</a>
</g>
</g>
<!-- Node9 -->
<g id="Node000009" class="node">
<title>Node9</title>
<g id="a_Node000009"><a xlink:title=" ">
<polygon fill="#e0e0e0" stroke="#999999" points="283.5,-19 212.5,-19 212.5,0 283.5,0 283.5,-19"/>
<text text-anchor="middle" x="248" y="-7" font-family="Helvetica,sans-Serif" font-size="10.00">semaphore</text>
</a>
</g>
</g>
<!-- Node3&#45;&gt;Node9 -->
<g id="edge8_Node000003_Node000009" class="edge">
<title>Node3&#45;&gt;Node9</title>
<g id="a_edge8_Node000003_Node000009"><a xlink:title=" ">
<path fill="none" stroke="#63b8ff" d="M334.45,-54.98C318.11,-46.57 292.87,-33.59 273.87,-23.81"/>
<polygon fill="#63b8ff" stroke="#63b8ff" points="275.34,-20.63 264.85,-19.17 272.14,-26.86 275.34,-20.63"/>
</a>
</g>
</g>
<!-- Node10 -->
<g id="Node000010" class="node">
<title>Node10</title>
<g id="a_Node000010"><a xlink:title=" ">
<polygon fill="#e0e0e0" stroke="#999999" points="602,-19 546,-19 546,0 602,0 602,-19"/>
<text text-anchor="middle" x="574" y="-7" font-family="Helvetica,sans-Serif" font-size="10.00">sstream</text>
</a>
</g>
</g>
<!-- Node3&#45;&gt;Node10 -->
<g id="edge9_Node000003_Node000010" class="edge">
<title>Node3&#45;&gt;Node10</title>
<g id="a_edge9_Node000003_Node000010"><a xlink:title=" ">
<path fill="none" stroke="#63b8ff" d="M386.83,-54.98C427.66,-45.28 494.13,-29.48 535.89,-19.56"/>
<polygon fill="#63b8ff" stroke="#63b8ff" points="536.77,-22.95 545.69,-17.23 535.15,-16.14 536.77,-22.95"/>
</a>
</g>
</g>
<!-- Node3&#45;&gt;Node11 -->
<g id="edge10_Node000003_Node000011" class="edge">
<title>Node3&#45;&gt;Node11</title>
<g id="a_edge10_Node000003_Node000011"><a xlink:title=" ">
<path fill="none" stroke="#63b8ff" d="M410.7,-54.99C461.34,-47.38 536.06,-35.24 609.79,-19.09"/>
<polygon fill="#63b8ff" stroke="#63b8ff" points="610.71,-22.47 619.71,-16.89 609.19,-15.64 610.71,-22.47"/>
</a>
</g>
</g>
<!-- Node12 -->
<g id="Node000012" class="node">
<title>Node12</title>
<g id="a_Node000012"><a xlink:title=" ">
<polygon fill="#e0e0e0" stroke="#999999" points="459.5,-19 412.5,-19 412.5,0 459.5,0 459.5,-19"/>
<text text-anchor="middle" x="436" y="-7" font-family="Helvetica,sans-Serif" font-size="10.00">vector</text>
</a>
</g>
</g>
<!-- Node3&#45;&gt;Node12 -->
<g id="edge11_Node000003_Node000012" class="edge">
<title>Node3&#45;&gt;Node12</title>
<g id="a_edge11_Node000003_Node000012"><a xlink:title=" ">
<path fill="none" stroke="#63b8ff" d="M364.66,-54.98C377.84,-46.77 398.03,-34.18 413.57,-24.49"/>
<polygon fill="#63b8ff" stroke="#63b8ff" points="415.46,-27.43 422.09,-19.17 411.76,-21.49 415.46,-27.43"/>
</a>
</g>
</g>
<!-- Node13 -->
<g id="Node000013" class="node">
<title>Node13</title>
<g id="a_Node000013"><a xlink:title=" ">
<polygon fill="#e0e0e0" stroke="#999999" points="394,-19 302,-19 302,0 394,0 394,-19"/>
<text text-anchor="middle" x="348" y="-7" font-family="Helvetica,sans-Serif" font-size="10.00">../utils/utils.hpp</text>
</a>
</g>
</g>
<!-- Node3&#45;&gt;Node13 -->
<g id="edge12_Node000003_Node000013" class="edge">
<title>Node3&#45;&gt;Node13</title>
<g id="a_edge12_Node000003_Node000013"><a xlink:title=" ">
<path fill="none" stroke="#63b8ff" d="M350.5,-54.75C350.11,-47.8 349.55,-37.85 349.05,-29.13"/>
<polygon fill="#63b8ff" stroke="#63b8ff" points="352.55,-28.88 348.49,-19.09 345.56,-29.27 352.55,-28.88"/>
</a>
</g>
</g>
<!-- Node16&#45;&gt;Node3 -->
<g id="edge18_Node000016_Node000003" class="edge">
<title>Node16&#45;&gt;Node3</title>
<g id="a_edge18_Node000016_Node000003"><a xlink:title=" ">
<path fill="none" stroke="#63b8ff" d="M167.19,-109.98C204.83,-100.87 264.66,-86.4 305.77,-76.45"/>
<polygon fill="#63b8ff" stroke="#63b8ff" points="306.64,-79.84 315.54,-74.08 305,-73.03 306.64,-79.84"/>
</a>
</g>
</g>
<!-- Node17&#45;&gt;Node3 -->
<g id="edge21_Node000017_Node000003" class="edge">
<title>Node17&#45;&gt;Node3</title>
<g id="a_edge21_Node000017_Node000003"><a xlink:title=" ">
<path fill="none" stroke="#63b8ff" d="M247.96,-164.8C245.4,-151.68 242.62,-126.57 254,-110 264.71,-94.41 282.3,-84.17 299.59,-77.51"/>
<polygon fill="#63b8ff" stroke="#63b8ff" points="300.84,-80.77 309.11,-74.16 298.52,-74.17 300.84,-80.77"/>
</a>
</g>
</g>
<!-- Node17&#45;&gt;Node16 -->
<g id="edge22_Node000017_Node000016" class="edge">
<title>Node17&#45;&gt;Node16</title>
<g id="a_edge22_Node000017_Node000016"><a xlink:title=" ">
<path fill="none" stroke="#63b8ff" d="M231.04,-164.98C211.97,-156.42 182.34,-143.11 160.45,-133.28"/>
<polygon fill="#63b8ff" stroke="#63b8ff" points="161.86,-130.07 151.3,-129.17 158.99,-136.46 161.86,-130.07"/>
</a>
</g>
</g>
<!-- Node18 -->
<g id="Node000018" class="node">
<title>Node18</title>
<g id="a_Node000018"><a xlink:title=" ">
<polygon fill="#e0e0e0" stroke="#999999" points="327,-129 263,-129 263,-110 327,-110 327,-129"/>
<text text-anchor="middle" x="295" y="-117" font-family="Helvetica,sans-Serif" font-size="10.00">kvazaar.h</text>
</a>
</g>
</g>
<!-- Node17&#45;&gt;Node18 -->
<g id="edge20_Node000017_Node000018" class="edge">
<title>Node17&#45;&gt;Node18</title>
<g id="a_edge20_Node000017_Node000018"><a xlink:title=" ">
<path fill="none" stroke="#63b8ff" d="M257.43,-164.75C263.85,-157.18 273.31,-146.05 281.12,-136.84"/>
<polygon fill="#63b8ff" stroke="#63b8ff" points="283.9,-138.98 287.71,-129.09 278.57,-134.45 283.9,-138.98"/>
</a>
</g>
</g>
<!-- Node19&#45;&gt;Node11 -->
<g id="edge25_Node000019_Node000011" class="edge">
<title>Node19&#45;&gt;Node11</title>
<g id="a_edge25_Node000019_Node000011"><a xlink:title=" ">
<path fill="none" stroke="#63b8ff" d="M652.1,-109.66C650.32,-92.17 646.31,-52.8 643.91,-29.27"/>
<polygon fill="#63b8ff" stroke="#63b8ff" points="647.38,-28.75 642.88,-19.16 640.41,-29.46 647.38,-28.75"/>
</a>
</g>
</g>
<!-- Node19&#45;&gt;Node12 -->
<g id="edge26_Node000019_Node000012" class="edge">
<title>Node19&#45;&gt;Node12</title>
<g id="a_edge26_Node000019_Node000012"><a xlink:title=" ">
<path fill="none" stroke="#63b8ff" d="M635.61,-109.84C597.66,-90.96 507.24,-45.96 462.29,-23.59"/>
<polygon fill="#63b8ff" stroke="#63b8ff" points="463.68,-20.37 453.17,-19.05 460.57,-26.64 463.68,-20.37"/>
</a>
</g>
</g>
<!-- Node20 -->
<g id="Node000020" class="node">
<title>Node20</title>
<g id="a_Node000020"><a xlink:title=" ">
<polygon fill="#e0e0e0" stroke="#999999" points="735.5,-74 670.5,-74 670.5,-55 735.5,-55 735.5,-74"/>
<text text-anchor="middle" x="703" y="-62" font-family="Helvetica,sans-Serif" font-size="10.00">stdexcept</text>
</a>
</g>
</g>
<!-- Node19&#45;&gt;Node20 -->
<g id="edge24_Node000019_Node000020" class="edge">
<title>Node19&#45;&gt;Node20</title>
<g id="a_edge24_Node000019_Node000020"><a xlink:title=" ">
<path fill="none" stroke="#63b8ff" d="M661.26,-109.75C668.46,-102.11 679.11,-90.82 687.85,-81.56"/>
<polygon fill="#63b8ff" stroke="#63b8ff" points="690.58,-83.76 694.9,-74.09 685.49,-78.96 690.58,-83.76"/>
</a>
</g>
</g>
<!-- Node21 -->
<g id="Node000021" class="node">
<title>Node21</title>
<g id="a_Node000021"><a xlink:href="utils_8hpp.html" target="_top" xlink:title=" ">
<polygon fill="white" stroke="#666666" points="812.5,-74 753.5,-74 753.5,-55 812.5,-55 812.5,-74"/>
<text text-anchor="middle" x="783" y="-62" font-family="Helvetica,sans-Serif" font-size="10.00">utils.hpp</text>
</a>
</g>
</g>
<!-- Node19&#45;&gt;Node21 -->
<g id="edge27_Node000019_Node000021" class="edge">
<title>Node19&#45;&gt;Node21</title>
<g id="a_edge27_Node000019_Node000021"><a xlink:title=" ">
<path fill="none" stroke="#63b8ff" d="M673.89,-109.98C695.08,-101.34 728.13,-87.87 752.3,-78.02"/>
<polygon fill="#63b8ff" stroke="#63b8ff" points="753.79,-81.19 761.73,-74.17 751.15,-74.7 753.79,-81.19"/>
</a>
</g>
</g>
<!-- Node21&#45;&gt;Node5 -->
<g id="edge29_Node000021_Node000005" class="edge">
<title>Node21&#45;&gt;Node5</title>
<g id="a_edge29_Node000021_Node000005"><a xlink:title=" ">
<path fill="none" stroke="#63b8ff" d="M753.16,-56.68C750.4,-56.09 747.65,-55.53 745,-55 656.12,-37.38 630.53,-38.3 538.26,-19.13"/>
<polygon fill="#63b8ff" stroke="#63b8ff" points="538.71,-15.65 528.2,-17.02 537.27,-22.5 538.71,-15.65"/>
</a>
</g>
</g>
<!-- Node21&#45;&gt;Node10 -->
<g id="edge31_Node000021_Node000010" class="edge">
<title>Node21&#45;&gt;Node10</title>
<g id="a_edge31_Node000021_Node000010"><a xlink:title=" ">
<path fill="none" stroke="#63b8ff" d="M753.5,-56.02C716.36,-46.6 652.52,-30.41 611.83,-20.09"/>
<polygon fill="#63b8ff" stroke="#63b8ff" points="612.57,-16.67 602.02,-17.6 610.85,-23.46 612.57,-16.67"/>
</a>
</g>
</g>
<!-- Node22 -->
<g id="Node000022" class="node">
<title>Node22</title>
<g id="a_Node000022"><a xlink:title=" ">
<polygon fill="#e0e0e0" stroke="#999999" points="724,-19 682,-19 682,0 724,0 724,-19"/>
<text text-anchor="middle" x="703" y="-7" font-family="Helvetica,sans-Serif" font-size="10.00">array</text>
</a>
</g>
</g>
<!-- Node21&#45;&gt;Node22 -->
<g id="edge28_Node000021_Node000022" class="edge">
<title>Node21&#45;&gt;Node22</title>
<g id="a_edge28_Node000021_Node000022"><a xlink:title=" ">
<path fill="none" stroke="#63b8ff" d="M770.15,-54.98C757.86,-46.84 739.09,-34.41 724.52,-24.76"/>
<polygon fill="#63b8ff" stroke="#63b8ff" points="726.36,-21.78 716.09,-19.17 722.49,-27.61 726.36,-21.78"/>
</a>
</g>
</g>
<!-- Node23 -->
<g id="Node000023" class="node">
<title>Node23</title>
<g id="a_Node000023"><a xlink:title=" ">
<polygon fill="#e0e0e0" stroke="#999999" points="864,-19 820,-19 820,0 864,0 864,-19"/>
<text text-anchor="middle" x="842" y="-7" font-family="Helvetica,sans-Serif" font-size="10.00">limits</text>
</a>
</g>
</g>
<!-- Node21&#45;&gt;Node23 -->
<g id="edge30_Node000021_Node000023" class="edge">
<title>Node21&#45;&gt;Node23</title>
<g id="a_edge30_Node000021_Node000023"><a xlink:title=" ">
<path fill="none" stroke="#63b8ff" d="M792.48,-54.98C801.2,-47.15 814.34,-35.34 824.9,-25.86"/>
<polygon fill="#63b8ff" stroke="#63b8ff" points="827.25,-28.46 832.35,-19.17 822.57,-23.25 827.25,-28.46"/>
</a>
</g>
</g>
<!-- Node24 -->
<g id="Node000024" class="node">
<title>Node24</title>
<g id="a_Node000024"><a xlink:title=" ">
<polygon fill="#e0e0e0" stroke="#999999" points="938,-19 882,-19 882,0 938,0 938,-19"/>
<text text-anchor="middle" x="910" y="-7" font-family="Helvetica,sans-Serif" font-size="10.00">iomanip</text>
</a>
</g>
</g>
<!-- Node21&#45;&gt;Node24 -->
<g id="edge32_Node000021_Node000024" class="edge">
<title>Node21&#45;&gt;Node24</title>
<g id="a_edge32_Node000021_Node000024"><a xlink:title=" ">
<path fill="none" stroke="#63b8ff" d="M803.4,-54.98C824.02,-46.38 856.11,-32.99 879.69,-23.15"/>
<polygon fill="#63b8ff" stroke="#63b8ff" points="881.34,-26.25 889.22,-19.17 878.65,-19.79 881.34,-26.25"/>
</a>
</g>
</g>
<!-- Node25&#45;&gt;Node6 -->
<g id="edge37_Node000025_Node000006" class="edge">
<title>Node25&#45;&gt;Node6</title>
<g id="a_edge37_Node000025_Node000006"><a xlink:title=" ">
<path fill="none" stroke="#63b8ff" d="M887.83,-54.98C865.23,-46.3 829.94,-32.75 804.25,-22.88"/>
<polygon fill="#63b8ff" stroke="#63b8ff" points="805.17,-19.49 794.58,-19.17 802.66,-26.02 805.17,-19.49"/>
</a>
</g>
</g>
<!-- Node25&#45;&gt;Node11 -->
<g id="edge38_Node000025_Node000011" class="edge">
<title>Node25&#45;&gt;Node11</title>
<g id="a_edge38_Node000025_Node000011"><a xlink:title=" ">
<path fill="none" stroke="#63b8ff" d="M861.64,-55.62C815.74,-47.86 744.61,-35.16 674.22,-19.13"/>
<polygon fill="#63b8ff" stroke="#63b8ff" points="674.83,-15.68 664.3,-16.85 673.26,-22.5 674.83,-15.68"/>
</a>
</g>
</g>
<!-- Node25&#45;&gt;Node24 -->
<g id="edge36_Node000025_Node000024" class="edge">
<title>Node25&#45;&gt;Node24</title>
<g id="a_edge36_Node000025_Node000024"><a xlink:title=" ">
<path fill="none" stroke="#63b8ff" d="M910,-54.75C910,-47.8 910,-37.85 910,-29.13"/>
<polygon fill="#63b8ff" stroke="#63b8ff" points="913.5,-29.09 910,-19.09 906.5,-29.09 913.5,-29.09"/>
</a>
</g>
</g>
<!-- Node26 -->
<g id="Node000026" class="node">
<title>Node26</title>
<g id="a_Node000026"><a xlink:title=" ">
<polygon fill="#e0e0e0" stroke="#999999" points="1006,-19 956,-19 956,0 1006,0 1006,-19"/>
<text text-anchor="middle" x="981" y="-7" font-family="Helvetica,sans-Serif" font-size="10.00">chrono</text>
</a>
</g>
</g>
<!-- Node25&#45;&gt;Node26 -->
<g id="edge34_Node000025_Node000026" class="edge">
<title>Node25&#45;&gt;Node26</title>
<g id="a_edge34_Node000025_Node000026"><a xlink:title=" ">
<path fill="none" stroke="#63b8ff" d="M921.41,-54.98C932.11,-47 948.34,-34.88 961.16,-25.31"/>
<polygon fill="#63b8ff" stroke="#63b8ff" points="963.47,-27.96 969.39,-19.17 959.28,-22.35 963.47,-27.96"/>
</a>
</g>
</g>
<!-- Node27 -->
<g id="Node000027" class="node">
<title>Node27</title>
<g id="a_Node000027"><a xlink:title=" ">
<polygon fill="#e0e0e0" stroke="#999999" points="1077.5,-19 1024.5,-19 1024.5,0 1077.5,0 1077.5,-19"/>
<text text-anchor="middle" x="1051" y="-7" font-family="Helvetica,sans-Serif" font-size="10.00">cstdarg</text>
</a>
</g>
</g>
<!-- Node25&#45;&gt;Node27 -->
<g id="edge35_Node000025_Node000027" class="edge">
<title>Node25&#45;&gt;Node27</title>
<g id="a_edge35_Node000025_Node000027"><a xlink:title=" ">
<path fill="none" stroke="#63b8ff" d="M932.65,-54.98C955.85,-46.27 992.12,-32.63 1018.4,-22.75"/>
<polygon fill="#63b8ff" stroke="#63b8ff" points="1019.8,-25.97 1027.93,-19.17 1017.34,-19.41 1019.8,-25.97"/>
</a>
</g>
</g>
<!-- Node28 -->
<g id="Node000028" class="node">
<title>Node28</title>
<g id="a_Node000028"><a xlink:title=" ">
<polygon fill="#e0e0e0" stroke="#999999" points="1144,-19 1096,-19 1096,0 1144,0 1144,-19"/>
<text text-anchor="middle" x="1120" y="-7" font-family="Helvetica,sans-Serif" font-size="10.00">mutex</text>
</a>
</g>
</g>
<!-- Node25&#45;&gt;Node28 -->
<g id="edge39_Node000025_Node000028" class="edge">
<title>Node25&#45;&gt;Node28</title>
<g id="a_edge39_Node000025_Node000028"><a xlink:title=" ">
<path fill="none" stroke="#63b8ff" d="M944.28,-54.94C977.92,-46.53 1030.97,-33.24 1085.94,-19.26"/>
<polygon fill="#63b8ff" stroke="#63b8ff" points="1087.03,-22.59 1095.85,-16.74 1085.3,-15.81 1087.03,-22.59"/>
</a>
</g>
</g>
</g>
</svg>
