<?xml version="1.0" encoding="UTF-8" standalone="no"?>
<!DOCTYPE svg PUBLIC "-//W3C//DTD SVG 1.1//EN"
 "http://www.w3.org/Graphics/SVG/1.1/DTD/svg11.dtd">
<!-- Generated by graphviz version 2.43.0 (0)
 -->
<!-- Title: src/libuvgvpccenc/mapEncoding/mapEncoding.cpp Pages: 1 -->
<svg width="1346pt" height="368pt"
 viewBox="0.00 0.00 1346.00 368.00" xmlns="http://www.w3.org/2000/svg" xmlns:xlink="http://www.w3.org/1999/xlink">
<g id="graph0" class="graph" transform="scale(1 1) rotate(0) translate(4 364)">
<title>src/libuvgvpccenc/mapEncoding/mapEncoding.cpp</title>
<!-- Node1 -->
<g id="Node000001" class="node">
<title>Node1</title>
<g id="a_Node000001"><a xlink:title=" ">
<polygon fill="#999999" stroke="#666666" points="960.5,-360 787.5,-360 787.5,-330 960.5,-330 960.5,-360"/>
<text text-anchor="start" x="795.5" y="-348" font-family="Helvetica,sans-Serif" font-size="10.00">src/libuvgvpccenc/mapEncoding</text>
<text text-anchor="middle" x="874" y="-337" font-family="Helvetica,sans-Serif" font-size="10.00">/mapEncoding.cpp</text>
</a>
</g>
</g>
<!-- Node2 -->
<g id="Node000002" class="node">
<title>Node2</title>
<g id="a_Node000002"><a xlink:href="mapEncoding_8hpp.html" target="_top" xlink:title=" ">
<polygon fill="white" stroke="#666666" points="819,-239 715,-239 715,-220 819,-220 819,-239"/>
<text text-anchor="middle" x="767" y="-227" font-family="Helvetica,sans-Serif" font-size="10.00">mapEncoding.hpp</text>
</a>
</g>
</g>
<!-- Node1&#45;&gt;Node2 -->
<g id="edge1_Node000001_Node000002" class="edge">
<title>Node1&#45;&gt;Node2</title>
<g id="a_edge1_Node000001_Node000002"><a xlink:title=" ">
<path fill="none" stroke="#63b8ff" d="M860.45,-329.63C840.41,-308.37 803.02,-268.71 782.12,-246.54"/>
<polygon fill="#63b8ff" stroke="#63b8ff" points="784.64,-244.1 775.23,-239.23 779.54,-248.91 784.64,-244.1"/>
</a>
</g>
</g>
<!-- Node3 -->
<g id="Node000003" class="node">
<title>Node3</title>
<g id="a_Node000003"><a xlink:href="uvgvpcc_8hpp.html" target="_top" xlink:title=" ">
<polygon fill="white" stroke="#666666" points="591,-184 469,-184 469,-165 591,-165 591,-184"/>
<text text-anchor="middle" x="530" y="-172" font-family="Helvetica,sans-Serif" font-size="10.00">uvgvpcc/uvgvpcc.hpp</text>
</a>
</g>
</g>
<!-- Node1&#45;&gt;Node3 -->
<g id="edge46_Node000001_Node000003" class="edge">
<title>Node1&#45;&gt;Node3</title>
<g id="a_edge46_Node000001_Node000003"><a xlink:title=" ">
<path fill="none" stroke="#63b8ff" d="M870.7,-330C863.51,-300.67 845.65,-234.33 828,-220 794.19,-192.55 678.27,-181.98 601.37,-177.95"/>
<polygon fill="#63b8ff" stroke="#63b8ff" points="601.42,-174.45 591.26,-177.44 601.08,-181.44 601.42,-174.45"/>
</a>
</g>
</g>
<!-- Node7 -->
<g id="Node000007" class="node">
<title>Node7</title>
<g id="a_Node000007"><a xlink:title=" ">
<polygon fill="#e0e0e0" stroke="#999999" points="58,-129 0,-129 0,-110 58,-110 58,-129"/>
<text text-anchor="middle" x="29" y="-117" font-family="Helvetica,sans-Serif" font-size="10.00">memory</text>
</a>
</g>
</g>
<!-- Node1&#45;&gt;Node7 -->
<g id="edge32_Node000001_Node000007" class="edge">
<title>Node1&#45;&gt;Node7</title>
<g id="a_edge32_Node000001_Node000007"><a xlink:title=" ">
<path fill="none" stroke="#63b8ff" d="M787.31,-334.99C720.5,-327.05 626.14,-313.65 545,-294 356.49,-248.35 138.61,-164.39 59.6,-132.88"/>
<polygon fill="#63b8ff" stroke="#63b8ff" points="60.82,-129.6 50.24,-129.13 58.22,-136.1 60.82,-129.6"/>
</a>
</g>
</g>
<!-- Node11 -->
<g id="Node000011" class="node">
<title>Node11</title>
<g id="a_Node000011"><a xlink:title=" ">
<polygon fill="#e0e0e0" stroke="#999999" points="1120,-19 1076,-19 1076,0 1120,0 1120,-19"/>
<text text-anchor="middle" x="1098" y="-7" font-family="Helvetica,sans-Serif" font-size="10.00">string</text>
</a>
</g>
</g>
<!-- Node1&#45;&gt;Node11 -->
<g id="edge33_Node000001_Node000011" class="edge">
<title>Node1&#45;&gt;Node11</title>
<g id="a_edge33_Node000001_Node000011"><a xlink:title=" ">
<path fill="none" stroke="#63b8ff" d="M960.68,-332.51C1061.41,-316.67 1214,-283.86 1214,-230.5 1214,-230.5 1214,-230.5 1214,-173.5 1214,-108.46 1151.93,-51.35 1118.6,-25.37"/>
<polygon fill="#63b8ff" stroke="#63b8ff" points="1120.5,-22.42 1110.41,-19.17 1116.27,-28 1120.5,-22.42"/>
</a>
</g>
</g>
<!-- Node21 -->
<g id="Node000021" class="node">
<title>Node21</title>
<g id="a_Node000021"><a xlink:href="log_8hpp.html" target="_top" xlink:title=" ">
<polygon fill="white" stroke="#666666" points="1271.5,-74 1218.5,-74 1218.5,-55 1271.5,-55 1271.5,-74"/>
<text text-anchor="middle" x="1245" y="-62" font-family="Helvetica,sans-Serif" font-size="10.00">log.hpp</text>
</a>
</g>
</g>
<!-- Node1&#45;&gt;Node21 -->
<g id="edge45_Node000001_Node000021" class="edge">
<title>Node1&#45;&gt;Node21</title>
<g id="a_edge45_Node000001_Node000021"><a xlink:title=" ">
<path fill="none" stroke="#63b8ff" d="M960.82,-341.68C1052.11,-337.55 1187.96,-326.04 1228,-294 1251.56,-275.15 1252,-260.67 1252,-230.5 1252,-230.5 1252,-230.5 1252,-173.5 1252,-142.12 1249.02,-105.73 1246.95,-84.21"/>
<polygon fill="#63b8ff" stroke="#63b8ff" points="1250.42,-83.77 1245.94,-74.17 1243.46,-84.47 1250.42,-83.77"/>
</a>
</g>
</g>
<!-- Node25 -->
<g id="Node000025" class="node">
<title>Node25</title>
<g id="a_Node000025"><a xlink:title=" ">
<polygon fill="#e0e0e0" stroke="#999999" points="927,-294 875,-294 875,-275 927,-275 927,-294"/>
<text text-anchor="middle" x="901" y="-282" font-family="Helvetica,sans-Serif" font-size="10.00">cassert</text>
</a>
</g>
</g>
<!-- Node1&#45;&gt;Node25 -->
<g id="edge30_Node000001_Node000025" class="edge">
<title>Node1&#45;&gt;Node25</title>
<g id="a_edge30_Node000001_Node000025"><a xlink:title=" ">
<path fill="none" stroke="#63b8ff" d="M880.54,-329.84C884.18,-321.95 888.74,-312.05 892.64,-303.61"/>
<polygon fill="#63b8ff" stroke="#63b8ff" points="895.94,-304.81 896.95,-294.27 889.59,-301.88 895.94,-304.81"/>
</a>
</g>
</g>
<!-- Node26 -->
<g id="Node000026" class="node">
<title>Node26</title>
<g id="a_Node000026"><a xlink:title=" ">
<polygon fill="#e0e0e0" stroke="#999999" points="995,-294 945,-294 945,-275 995,-275 995,-294"/>
<text text-anchor="middle" x="970" y="-282" font-family="Helvetica,sans-Serif" font-size="10.00">cstring</text>
</a>
</g>
</g>
<!-- Node1&#45;&gt;Node26 -->
<g id="edge31_Node000001_Node000026" class="edge">
<title>Node1&#45;&gt;Node26</title>
<g id="a_edge31_Node000001_Node000026"><a xlink:title=" ">
<path fill="none" stroke="#63b8ff" d="M897.24,-329.84C912.4,-320.6 932.11,-308.59 947.19,-299.4"/>
<polygon fill="#63b8ff" stroke="#63b8ff" points="949.18,-302.29 955.9,-294.09 945.54,-296.31 949.18,-302.29"/>
</a>
</g>
</g>
<!-- Node27 -->
<g id="Node000027" class="node">
<title>Node27</title>
<g id="a_Node000027"><a xlink:href="abstract2DMapEncoder_8hpp.html" target="_top" xlink:title=" ">
<polygon fill="white" stroke="#666666" points="577,-239 427,-239 427,-220 577,-220 577,-239"/>
<text text-anchor="middle" x="502" y="-227" font-family="Helvetica,sans-Serif" font-size="10.00">abstract2DMapEncoder.hpp</text>
</a>
</g>
</g>
<!-- Node1&#45;&gt;Node27 -->
<g id="edge34_Node000001_Node000027" class="edge">
<title>Node1&#45;&gt;Node27</title>
<g id="a_edge34_Node000001_Node000027"><a xlink:title=" ">
<path fill="none" stroke="#63b8ff" d="M787.27,-341.08C726.58,-336.27 644.91,-324.13 579,-294 554.27,-282.69 530.92,-261.39 516.56,-246.59"/>
<polygon fill="#63b8ff" stroke="#63b8ff" points="518.95,-244.02 509.55,-239.14 513.85,-248.82 518.95,-244.02"/>
</a>
</g>
</g>
<!-- Node28 -->
<g id="Node000028" class="node">
<title>Node28</title>
<g id="a_Node000028"><a xlink:href="encoderKvazaar_8hpp.html" target="_top" xlink:title=" ">
<polygon fill="white" stroke="#666666" points="704,-294 588,-294 588,-275 704,-275 704,-294"/>
<text text-anchor="middle" x="646" y="-282" font-family="Helvetica,sans-Serif" font-size="10.00">encoderKvazaar.hpp</text>
</a>
</g>
</g>
<!-- Node1&#45;&gt;Node28 -->
<g id="edge36_Node000001_Node000028" class="edge">
<title>Node1&#45;&gt;Node28</title>
<g id="a_edge36_Node000001_Node000028"><a xlink:title=" ">
<path fill="none" stroke="#63b8ff" d="M819.39,-329.99C779.53,-319.76 726.23,-306.09 689.3,-296.61"/>
<polygon fill="#63b8ff" stroke="#63b8ff" points="689.89,-293.15 679.34,-294.05 688.15,-299.93 689.89,-293.15"/>
</a>
</g>
</g>
<!-- Node30 -->
<g id="Node000030" class="node">
<title>Node30</title>
<g id="a_Node000030"><a xlink:href="parameters_8hpp.html" target="_top" xlink:title=" ">
<polygon fill="white" stroke="#666666" points="1099,-184 981,-184 981,-165 1099,-165 1099,-184"/>
<text text-anchor="middle" x="1040" y="-172" font-family="Helvetica,sans-Serif" font-size="10.00">utils/parameters.hpp</text>
</a>
</g>
</g>
<!-- Node1&#45;&gt;Node30 -->
<g id="edge40_Node000001_Node000030" class="edge">
<title>Node1&#45;&gt;Node30</title>
<g id="a_edge40_Node000001_Node000030"><a xlink:title=" ">
<path fill="none" stroke="#63b8ff" d="M943.66,-329.97C965.49,-322.51 988.02,-311.17 1004,-294 1029.91,-266.15 1037.2,-220.2 1039.23,-194.47"/>
<polygon fill="#63b8ff" stroke="#63b8ff" points="1042.74,-194.4 1039.85,-184.21 1035.76,-193.98 1042.74,-194.4"/>
</a>
</g>
</g>
<!-- Node2&#45;&gt;Node3 -->
<g id="edge2_Node000002_Node000003" class="edge">
<title>Node2&#45;&gt;Node3</title>
<g id="a_edge2_Node000002_Node000003"><a xlink:title=" ">
<path fill="none" stroke="#63b8ff" d="M728.92,-219.98C688.01,-210.84 622.89,-196.27 578.38,-186.32"/>
<polygon fill="#63b8ff" stroke="#63b8ff" points="578.9,-182.85 568.38,-184.08 577.37,-189.68 578.9,-182.85"/>
</a>
</g>
</g>
<!-- Node4 -->
<g id="Node000004" class="node">
<title>Node4</title>
<g id="a_Node000004"><a xlink:title=" ">
<polygon fill="#e0e0e0" stroke="#999999" points="391.5,-74 338.5,-74 338.5,-55 391.5,-55 391.5,-74"/>
<text text-anchor="middle" x="365" y="-62" font-family="Helvetica,sans-Serif" font-size="10.00">cstddef</text>
</a>
</g>
</g>
<!-- Node3&#45;&gt;Node4 -->
<g id="edge3_Node000003_Node000004" class="edge">
<title>Node3&#45;&gt;Node4</title>
<g id="a_edge3_Node000003_Node000004"><a xlink:title=" ">
<path fill="none" stroke="#63b8ff" d="M469,-166.94C421.21,-160.39 360.33,-148.46 345,-129 334.42,-115.58 342.74,-96.47 351.65,-82.73"/>
<polygon fill="#63b8ff" stroke="#63b8ff" points="354.76,-84.39 357.69,-74.21 349.05,-80.34 354.76,-84.39"/>
</a>
</g>
</g>
<!-- Node5 -->
<g id="Node000005" class="node">
<title>Node5</title>
<g id="a_Node000005"><a xlink:title=" ">
<polygon fill="#e0e0e0" stroke="#999999" points="612,-74 562,-74 562,-55 612,-55 612,-74"/>
<text text-anchor="middle" x="587" y="-62" font-family="Helvetica,sans-Serif" font-size="10.00">cstdint</text>
</a>
</g>
</g>
<!-- Node3&#45;&gt;Node5 -->
<g id="edge4_Node000003_Node000005" class="edge">
<title>Node3&#45;&gt;Node5</title>
<g id="a_edge4_Node000003_Node000005"><a xlink:title=" ">
<path fill="none" stroke="#63b8ff" d="M512.1,-164.88C490.38,-153.22 458.38,-131.41 473,-110 490.46,-84.45 524.96,-73.56 551.45,-68.93"/>
<polygon fill="#63b8ff" stroke="#63b8ff" points="552.16,-72.36 561.52,-67.4 551.11,-65.44 552.16,-72.36"/>
</a>
</g>
</g>
<!-- Node6 -->
<g id="Node000006" class="node">
<title>Node6</title>
<g id="a_Node000006"><a xlink:title=" ">
<polygon fill="#e0e0e0" stroke="#999999" points="523,-19 463,-19 463,0 523,0 523,-19"/>
<text text-anchor="middle" x="493" y="-7" font-family="Helvetica,sans-Serif" font-size="10.00">iostream</text>
</a>
</g>
</g>
<!-- Node3&#45;&gt;Node6 -->
<g id="edge5_Node000003_Node000006" class="edge">
<title>Node3&#45;&gt;Node6</title>
<g id="a_edge5_Node000003_Node000006"><a xlink:title=" ">
<path fill="none" stroke="#63b8ff" d="M468.89,-173.05C392.93,-171.03 269.76,-162.52 241,-129 178.09,-55.66 367.03,-24.6 452.9,-14.51"/>
<polygon fill="#63b8ff" stroke="#63b8ff" points="453.3,-17.99 462.84,-13.39 452.51,-11.04 453.3,-17.99"/>
</a>
</g>
</g>
<!-- Node3&#45;&gt;Node7 -->
<g id="edge6_Node000003_Node000007" class="edge">
<title>Node3&#45;&gt;Node7</title>
<g id="a_edge6_Node000003_Node000007"><a xlink:title=" ">
<path fill="none" stroke="#63b8ff" d="M468.65,-170.04C381.71,-164.59 217.53,-152.33 68.63,-129.07"/>
<polygon fill="#63b8ff" stroke="#63b8ff" points="68.81,-125.56 58.39,-127.45 67.72,-132.47 68.81,-125.56"/>
</a>
</g>
</g>
<!-- Node8 -->
<g id="Node000008" class="node">
<title>Node8</title>
<g id="a_Node000008"><a xlink:title=" ">
<polygon fill="#e0e0e0" stroke="#999999" points="297.5,-129 250.5,-129 250.5,-110 297.5,-110 297.5,-129"/>
<text text-anchor="middle" x="274" y="-117" font-family="Helvetica,sans-Serif" font-size="10.00">queue</text>
</a>
</g>
</g>
<!-- Node3&#45;&gt;Node8 -->
<g id="edge7_Node000003_Node000008" class="edge">
<title>Node3&#45;&gt;Node8</title>
<g id="a_edge7_Node000003_Node000008"><a xlink:title=" ">
<path fill="none" stroke="#63b8ff" d="M486.93,-164.96C442.92,-156.17 372.63,-141.97 312,-129 310.55,-128.69 309.08,-128.37 307.59,-128.05"/>
<polygon fill="#63b8ff" stroke="#63b8ff" points="308.22,-124.6 297.7,-125.87 306.72,-131.44 308.22,-124.6"/>
</a>
</g>
</g>
<!-- Node9 -->
<g id="Node000009" class="node">
<title>Node9</title>
<g id="a_Node000009"><a xlink:title=" ">
<polygon fill="#e0e0e0" stroke="#999999" points="425.5,-129 354.5,-129 354.5,-110 425.5,-110 425.5,-129"/>
<text text-anchor="middle" x="390" y="-117" font-family="Helvetica,sans-Serif" font-size="10.00">semaphore</text>
</a>
</g>
</g>
<!-- Node3&#45;&gt;Node9 -->
<g id="edge8_Node000003_Node000009" class="edge">
<title>Node3&#45;&gt;Node9</title>
<g id="a_edge8_Node000003_Node000009"><a xlink:title=" ">
<path fill="none" stroke="#63b8ff" d="M507.51,-164.98C484.48,-156.27 448.46,-142.63 422.37,-132.75"/>
<polygon fill="#63b8ff" stroke="#63b8ff" points="423.49,-129.44 412.9,-129.17 421.02,-135.98 423.49,-129.44"/>
</a>
</g>
</g>
<!-- Node10 -->
<g id="Node000010" class="node">
<title>Node10</title>
<g id="a_Node000010"><a xlink:title=" ">
<polygon fill="#e0e0e0" stroke="#999999" points="762,-74 706,-74 706,-55 762,-55 762,-74"/>
<text text-anchor="middle" x="734" y="-62" font-family="Helvetica,sans-Serif" font-size="10.00">sstream</text>
</a>
</g>
</g>
<!-- Node3&#45;&gt;Node10 -->
<g id="edge9_Node000003_Node000010" class="edge">
<title>Node3&#45;&gt;Node10</title>
<g id="a_edge9_Node000003_Node000010"><a xlink:title=" ">
<path fill="none" stroke="#63b8ff" d="M536.49,-164.8C547.08,-151.2 569.37,-124.92 594,-110 625.71,-90.79 666.55,-79.05 695.92,-72.49"/>
<polygon fill="#63b8ff" stroke="#63b8ff" points="696.75,-75.89 705.8,-70.38 695.29,-69.04 696.75,-75.89"/>
</a>
</g>
</g>
<!-- Node3&#45;&gt;Node11 -->
<g id="edge10_Node000003_Node000011" class="edge">
<title>Node3&#45;&gt;Node11</title>
<g id="a_edge10_Node000003_Node000011"><a xlink:title=" ">
<path fill="none" stroke="#63b8ff" d="M591.31,-172.03C695.7,-168.75 903.05,-158.61 969,-129 1020.6,-105.83 1065.31,-53.79 1085.91,-27.05"/>
<polygon fill="#63b8ff" stroke="#63b8ff" points="1088.73,-29.12 1091.94,-19.03 1083.13,-24.91 1088.73,-29.12"/>
</a>
</g>
</g>
<!-- Node12 -->
<g id="Node000012" class="node">
<title>Node12</title>
<g id="a_Node000012"><a xlink:title=" ">
<polygon fill="#e0e0e0" stroke="#999999" points="1063.5,-129 1016.5,-129 1016.5,-110 1063.5,-110 1063.5,-129"/>
<text text-anchor="middle" x="1040" y="-117" font-family="Helvetica,sans-Serif" font-size="10.00">vector</text>
</a>
</g>
</g>
<!-- Node3&#45;&gt;Node12 -->
<g id="edge11_Node000003_Node000012" class="edge">
<title>Node3&#45;&gt;Node12</title>
<g id="a_edge11_Node000003_Node000012"><a xlink:title=" ">
<path fill="none" stroke="#63b8ff" d="M591.03,-170.21C681.28,-164.79 855.47,-152.2 1002,-129 1003.46,-128.77 1004.95,-128.51 1006.45,-128.24"/>
<polygon fill="#63b8ff" stroke="#63b8ff" points="1007.25,-131.65 1016.37,-126.27 1005.88,-124.79 1007.25,-131.65"/>
</a>
</g>
</g>
<!-- Node13 -->
<g id="Node000013" class="node">
<title>Node13</title>
<g id="a_Node000013"><a xlink:title=" ">
<polygon fill="#e0e0e0" stroke="#999999" points="546,-129 482,-129 482,-110 546,-110 546,-129"/>
<text text-anchor="middle" x="514" y="-117" font-family="Helvetica,sans-Serif" font-size="10.00">algorithm</text>
</a>
</g>
</g>
<!-- Node3&#45;&gt;Node13 -->
<g id="edge12_Node000003_Node000013" class="edge">
<title>Node3&#45;&gt;Node13</title>
<g id="a_edge12_Node000003_Node000013"><a xlink:title=" ">
<path fill="none" stroke="#63b8ff" d="M527.36,-164.75C525.24,-157.72 522.19,-147.62 519.54,-138.84"/>
<polygon fill="#63b8ff" stroke="#63b8ff" points="522.83,-137.65 516.59,-129.09 516.13,-139.67 522.83,-137.65"/>
</a>
</g>
</g>
<!-- Node14 -->
<g id="Node000014" class="node">
<title>Node14</title>
<g id="a_Node000014"><a xlink:title=" ">
<polygon fill="#e0e0e0" stroke="#999999" points="695.5,-129 602.5,-129 602.5,-110 695.5,-110 695.5,-129"/>
<text text-anchor="middle" x="649" y="-117" font-family="Helvetica,sans-Serif" font-size="10.00">unordered_map</text>
</a>
</g>
</g>
<!-- Node3&#45;&gt;Node14 -->
<g id="edge13_Node000003_Node000014" class="edge">
<title>Node3&#45;&gt;Node14</title>
<g id="a_edge13_Node000003_Node000014"><a xlink:title=" ">
<path fill="none" stroke="#63b8ff" d="M549.12,-164.98C568.35,-156.42 598.23,-143.11 620.31,-133.28"/>
<polygon fill="#63b8ff" stroke="#63b8ff" points="621.82,-136.44 629.53,-129.17 618.97,-130.04 621.82,-136.44"/>
</a>
</g>
</g>
<!-- Node15 -->
<g id="Node000015" class="node">
<title>Node15</title>
<g id="a_Node000015"><a xlink:title=" ">
<polygon fill="#e0e0e0" stroke="#999999" points="840.5,-129 713.5,-129 713.5,-110 840.5,-110 840.5,-129"/>
<text text-anchor="middle" x="777" y="-117" font-family="Helvetica,sans-Serif" font-size="10.00">../utils/parameters.hpp</text>
</a>
</g>
</g>
<!-- Node3&#45;&gt;Node15 -->
<g id="edge14_Node000003_Node000015" class="edge">
<title>Node3&#45;&gt;Node15</title>
<g id="a_edge14_Node000003_Node000015"><a xlink:title=" ">
<path fill="none" stroke="#63b8ff" d="M569.68,-164.98C612.5,-155.8 680.76,-141.15 727.16,-131.19"/>
<polygon fill="#63b8ff" stroke="#63b8ff" points="727.96,-134.6 737,-129.08 726.49,-127.76 727.96,-134.6"/>
</a>
</g>
</g>
<!-- Node16 -->
<g id="Node000016" class="node">
<title>Node16</title>
<g id="a_Node000016"><a xlink:title=" ">
<polygon fill="#e0e0e0" stroke="#999999" points="194,-129 76,-129 76,-110 194,-110 194,-129"/>
<text text-anchor="middle" x="135" y="-117" font-family="Helvetica,sans-Serif" font-size="10.00">../utils/constants.hpp</text>
</a>
</g>
</g>
<!-- Node3&#45;&gt;Node16 -->
<g id="edge15_Node000003_Node000016" class="edge">
<title>Node3&#45;&gt;Node16</title>
<g id="a_edge15_Node000003_Node000016"><a xlink:title=" ">
<path fill="none" stroke="#63b8ff" d="M468.71,-165.28C397.21,-155.68 279.26,-139.86 204.43,-129.82"/>
<polygon fill="#63b8ff" stroke="#63b8ff" points="204.54,-126.3 194.17,-128.44 203.61,-133.24 204.54,-126.3"/>
</a>
</g>
</g>
<!-- Node17 -->
<g id="Node000017" class="node">
<title>Node17</title>
<g id="a_Node000017"><a xlink:href="utils_8hpp.html" target="_top" xlink:title=" ">
<polygon fill="white" stroke="#666666" points="959.5,-129 858.5,-129 858.5,-110 959.5,-110 959.5,-129"/>
<text text-anchor="middle" x="909" y="-117" font-family="Helvetica,sans-Serif" font-size="10.00">uvgutils/utils.hpp</text>
</a>
</g>
</g>
<!-- Node3&#45;&gt;Node17 -->
<g id="edge16_Node000003_Node000017" class="edge">
<title>Node3&#45;&gt;Node17</title>
<g id="a_edge16_Node000003_Node000017"><a xlink:title=" ">
<path fill="none" stroke="#63b8ff" d="M591.06,-165.1C653.26,-156.52 752.8,-142.74 848.34,-129.23"/>
<polygon fill="#63b8ff" stroke="#63b8ff" points="849.06,-132.66 858.47,-127.8 848.08,-125.73 849.06,-132.66"/>
</a>
</g>
</g>
<!-- Node17&#45;&gt;Node4 -->
<g id="edge18_Node000017_Node000004" class="edge">
<title>Node17&#45;&gt;Node4</title>
<g id="a_edge18_Node000017_Node000004"><a xlink:title=" ">
<path fill="none" stroke="#63b8ff" d="M858.49,-111.05C855.62,-110.68 852.77,-110.33 850,-110 683.04,-90.33 482.87,-74.37 401.79,-68.22"/>
<polygon fill="#63b8ff" stroke="#63b8ff" points="401.84,-64.72 391.6,-67.46 401.31,-71.7 401.84,-64.72"/>
</a>
</g>
</g>
<!-- Node17&#45;&gt;Node5 -->
<g id="edge19_Node000017_Node000005" class="edge">
<title>Node17&#45;&gt;Node5</title>
<g id="a_edge19_Node000017_Node000005"><a xlink:title=" ">
<path fill="none" stroke="#63b8ff" d="M858.33,-110.16C792.47,-99.32 679.16,-80.67 622.06,-71.27"/>
<polygon fill="#63b8ff" stroke="#63b8ff" points="622.51,-67.8 612.07,-69.63 621.37,-74.7 622.51,-67.8"/>
</a>
</g>
</g>
<!-- Node17&#45;&gt;Node10 -->
<g id="edge22_Node000017_Node000010" class="edge">
<title>Node17&#45;&gt;Node10</title>
<g id="a_edge22_Node000017_Node000010"><a xlink:title=" ">
<path fill="none" stroke="#63b8ff" d="M880.88,-109.98C851.29,-101.02 804.53,-86.86 771.74,-76.93"/>
<polygon fill="#63b8ff" stroke="#63b8ff" points="772.63,-73.54 762.05,-73.99 770.6,-80.24 772.63,-73.54"/>
</a>
</g>
</g>
<!-- Node18 -->
<g id="Node000018" class="node">
<title>Node18</title>
<g id="a_Node000018"><a xlink:title=" ">
<polygon fill="#e0e0e0" stroke="#999999" points="960,-74 918,-74 918,-55 960,-55 960,-74"/>
<text text-anchor="middle" x="939" y="-62" font-family="Helvetica,sans-Serif" font-size="10.00">array</text>
</a>
</g>
</g>
<!-- Node17&#45;&gt;Node18 -->
<g id="edge17_Node000017_Node000018" class="edge">
<title>Node17&#45;&gt;Node18</title>
<g id="a_edge17_Node000017_Node000018"><a xlink:title=" ">
<path fill="none" stroke="#63b8ff" d="M913.95,-109.75C918.06,-102.49 924.03,-91.95 929.1,-82.98"/>
<polygon fill="#63b8ff" stroke="#63b8ff" points="932.26,-84.52 934.14,-74.09 926.17,-81.07 932.26,-84.52"/>
</a>
</g>
</g>
<!-- Node19 -->
<g id="Node000019" class="node">
<title>Node19</title>
<g id="a_Node000019"><a xlink:title=" ">
<polygon fill="#e0e0e0" stroke="#999999" points="960,-19 904,-19 904,0 960,0 960,-19"/>
<text text-anchor="middle" x="932" y="-7" font-family="Helvetica,sans-Serif" font-size="10.00">iomanip</text>
</a>
</g>
</g>
<!-- Node17&#45;&gt;Node19 -->
<g id="edge20_Node000017_Node000019" class="edge">
<title>Node17&#45;&gt;Node19</title>
<g id="a_edge20_Node000017_Node000019"><a xlink:title=" ">
<path fill="none" stroke="#63b8ff" d="M889.32,-109.99C866.36,-98.79 833.2,-77.8 847,-55 857.33,-37.93 876.61,-27.09 894.2,-20.39"/>
<polygon fill="#63b8ff" stroke="#63b8ff" points="895.43,-23.66 903.73,-17.08 893.14,-17.05 895.43,-23.66"/>
</a>
</g>
</g>
<!-- Node20 -->
<g id="Node000020" class="node">
<title>Node20</title>
<g id="a_Node000020"><a xlink:title=" ">
<polygon fill="#e0e0e0" stroke="#999999" points="900,-74 856,-74 856,-55 900,-55 900,-74"/>
<text text-anchor="middle" x="878" y="-62" font-family="Helvetica,sans-Serif" font-size="10.00">limits</text>
</a>
</g>
</g>
<!-- Node17&#45;&gt;Node20 -->
<g id="edge21_Node000017_Node000020" class="edge">
<title>Node17&#45;&gt;Node20</title>
<g id="a_edge21_Node000017_Node000020"><a xlink:title=" ">
<path fill="none" stroke="#63b8ff" d="M903.88,-109.75C899.64,-102.49 893.47,-91.95 888.22,-82.98"/>
<polygon fill="#63b8ff" stroke="#63b8ff" points="891.09,-80.95 883.02,-74.09 885.05,-84.49 891.09,-80.95"/>
</a>
</g>
</g>
<!-- Node17&#45;&gt;Node21 -->
<g id="edge23_Node000017_Node000021" class="edge">
<title>Node17&#45;&gt;Node21</title>
<g id="a_edge23_Node000017_Node000021"><a xlink:title=" ">
<path fill="none" stroke="#63b8ff" d="M959.67,-110.51C1027.98,-99.73 1147.99,-80.8 1208.27,-71.29"/>
<polygon fill="#63b8ff" stroke="#63b8ff" points="1209.12,-74.7 1218.45,-69.69 1208.03,-67.79 1209.12,-74.7"/>
</a>
</g>
</g>
<!-- Node21&#45;&gt;Node6 -->
<g id="edge27_Node000021_Node000006" class="edge">
<title>Node21&#45;&gt;Node6</title>
<g id="a_edge27_Node000021_Node000006"><a xlink:title=" ">
<path fill="none" stroke="#63b8ff" d="M1218.24,-61.61C1105.51,-53.67 668.98,-22.9 533.4,-13.35"/>
<polygon fill="#63b8ff" stroke="#63b8ff" points="533.28,-9.83 523.06,-12.62 532.79,-16.81 533.28,-9.83"/>
</a>
</g>
</g>
<!-- Node21&#45;&gt;Node11 -->
<g id="edge29_Node000021_Node000011" class="edge">
<title>Node21&#45;&gt;Node11</title>
<g id="a_edge29_Node000021_Node000011"><a xlink:title=" ">
<path fill="none" stroke="#63b8ff" d="M1221.38,-54.98C1196.52,-46.02 1157.23,-31.86 1129.69,-21.92"/>
<polygon fill="#63b8ff" stroke="#63b8ff" points="1130.71,-18.57 1120.12,-18.47 1128.34,-25.16 1130.71,-18.57"/>
</a>
</g>
</g>
<!-- Node21&#45;&gt;Node19 -->
<g id="edge26_Node000021_Node000019" class="edge">
<title>Node21&#45;&gt;Node19</title>
<g id="a_edge26_Node000021_Node000019"><a xlink:title=" ">
<path fill="none" stroke="#63b8ff" d="M1218.31,-58.98C1162.86,-49.59 1034.97,-27.94 970.56,-17.03"/>
<polygon fill="#63b8ff" stroke="#63b8ff" points="970.86,-13.53 960.42,-15.31 969.69,-20.43 970.86,-13.53"/>
</a>
</g>
</g>
<!-- Node22 -->
<g id="Node000022" class="node">
<title>Node22</title>
<g id="a_Node000022"><a xlink:title=" ">
<polygon fill="#e0e0e0" stroke="#999999" points="1200,-19 1150,-19 1150,0 1200,0 1200,-19"/>
<text text-anchor="middle" x="1175" y="-7" font-family="Helvetica,sans-Serif" font-size="10.00">chrono</text>
</a>
</g>
</g>
<!-- Node21&#45;&gt;Node22 -->
<g id="edge24_Node000021_Node000022" class="edge">
<title>Node21&#45;&gt;Node22</title>
<g id="a_edge24_Node000021_Node000022"><a xlink:title=" ">
<path fill="none" stroke="#63b8ff" d="M1233.75,-54.98C1223.2,-47 1207.2,-34.88 1194.56,-25.31"/>
<polygon fill="#63b8ff" stroke="#63b8ff" points="1196.54,-22.42 1186.45,-19.17 1192.31,-28 1196.54,-22.42"/>
</a>
</g>
</g>
<!-- Node23 -->
<g id="Node000023" class="node">
<title>Node23</title>
<g id="a_Node000023"><a xlink:title=" ">
<polygon fill="#e0e0e0" stroke="#999999" points="1271.5,-19 1218.5,-19 1218.5,0 1271.5,0 1271.5,-19"/>
<text text-anchor="middle" x="1245" y="-7" font-family="Helvetica,sans-Serif" font-size="10.00">cstdarg</text>
</a>
</g>
</g>
<!-- Node21&#45;&gt;Node23 -->
<g id="edge25_Node000021_Node000023" class="edge">
<title>Node21&#45;&gt;Node23</title>
<g id="a_edge25_Node000021_Node000023"><a xlink:title=" ">
<path fill="none" stroke="#63b8ff" d="M1245,-54.75C1245,-47.8 1245,-37.85 1245,-29.13"/>
<polygon fill="#63b8ff" stroke="#63b8ff" points="1248.5,-29.09 1245,-19.09 1241.5,-29.09 1248.5,-29.09"/>
</a>
</g>
</g>
<!-- Node24 -->
<g id="Node000024" class="node">
<title>Node24</title>
<g id="a_Node000024"><a xlink:title=" ">
<polygon fill="#e0e0e0" stroke="#999999" points="1338,-19 1290,-19 1290,0 1338,0 1338,-19"/>
<text text-anchor="middle" x="1314" y="-7" font-family="Helvetica,sans-Serif" font-size="10.00">mutex</text>
</a>
</g>
</g>
<!-- Node21&#45;&gt;Node24 -->
<g id="edge28_Node000021_Node000024" class="edge">
<title>Node21&#45;&gt;Node24</title>
<g id="a_edge28_Node000021_Node000024"><a xlink:title=" ">
<path fill="none" stroke="#63b8ff" d="M1256.09,-54.98C1266.49,-47 1282.26,-34.88 1294.72,-25.31"/>
<polygon fill="#63b8ff" stroke="#63b8ff" points="1296.91,-28.04 1302.71,-19.17 1292.65,-22.49 1296.91,-28.04"/>
</a>
</g>
</g>
<!-- Node27&#45;&gt;Node3 -->
<g id="edge35_Node000027_Node000003" class="edge">
<title>Node27&#45;&gt;Node3</title>
<g id="a_edge35_Node000027_Node000003"><a xlink:title=" ">
<path fill="none" stroke="#63b8ff" d="M506.62,-219.75C510.46,-212.49 516.02,-201.95 520.76,-192.98"/>
<polygon fill="#63b8ff" stroke="#63b8ff" points="523.89,-194.57 525.46,-184.09 517.7,-191.3 523.89,-194.57"/>
</a>
</g>
</g>
<!-- Node28&#45;&gt;Node3 -->
<g id="edge38_Node000028_Node000003" class="edge">
<title>Node28&#45;&gt;Node3</title>
<g id="a_edge38_Node000028_Node000003"><a xlink:title=" ">
<path fill="none" stroke="#63b8ff" d="M638.59,-274.91C627.61,-262.35 606.11,-238.46 586,-220 574.59,-209.53 561.02,-198.7 550.09,-190.35"/>
<polygon fill="#63b8ff" stroke="#63b8ff" points="552.07,-187.47 541.98,-184.24 547.86,-193.05 552.07,-187.47"/>
</a>
</g>
</g>
<!-- Node28&#45;&gt;Node27 -->
<g id="edge39_Node000028_Node000027" class="edge">
<title>Node28&#45;&gt;Node27</title>
<g id="a_edge39_Node000028_Node000027"><a xlink:title=" ">
<path fill="none" stroke="#63b8ff" d="M622.86,-274.98C599.18,-266.27 562.13,-252.63 535.29,-242.75"/>
<polygon fill="#63b8ff" stroke="#63b8ff" points="536.15,-239.34 525.56,-239.17 533.73,-245.91 536.15,-239.34"/>
</a>
</g>
</g>
<!-- Node29 -->
<g id="Node000029" class="node">
<title>Node29</title>
<g id="a_Node000029"><a xlink:title=" ">
<polygon fill="#e0e0e0" stroke="#999999" points="697,-239 633,-239 633,-220 697,-220 697,-239"/>
<text text-anchor="middle" x="665" y="-227" font-family="Helvetica,sans-Serif" font-size="10.00">kvazaar.h</text>
</a>
</g>
</g>
<!-- Node28&#45;&gt;Node29 -->
<g id="edge37_Node000028_Node000029" class="edge">
<title>Node28&#45;&gt;Node29</title>
<g id="a_edge37_Node000028_Node000029"><a xlink:title=" ">
<path fill="none" stroke="#63b8ff" d="M649.14,-274.75C651.68,-267.65 655.36,-257.4 658.53,-248.56"/>
<polygon fill="#63b8ff" stroke="#63b8ff" points="661.84,-249.68 661.92,-239.09 655.25,-247.32 661.84,-249.68"/>
</a>
</g>
</g>
<!-- Node30&#45;&gt;Node11 -->
<g id="edge42_Node000030_Node000011" class="edge">
<title>Node30&#45;&gt;Node11</title>
<g id="a_edge42_Node000030_Node000011"><a xlink:title=" ">
<path fill="none" stroke="#63b8ff" d="M1048.35,-164.7C1055.93,-156.21 1066.84,-142.68 1073,-129 1087.91,-95.88 1094.08,-53.51 1096.52,-29.44"/>
<polygon fill="#63b8ff" stroke="#63b8ff" points="1100.03,-29.5 1097.44,-19.22 1093.06,-28.87 1100.03,-29.5"/>
</a>
</g>
</g>
<!-- Node30&#45;&gt;Node12 -->
<g id="edge43_Node000030_Node000012" class="edge">
<title>Node30&#45;&gt;Node12</title>
<g id="a_edge43_Node000030_Node000012"><a xlink:title=" ">
<path fill="none" stroke="#63b8ff" d="M1040,-164.75C1040,-157.8 1040,-147.85 1040,-139.13"/>
<polygon fill="#63b8ff" stroke="#63b8ff" points="1043.5,-139.09 1040,-129.09 1036.5,-139.09 1043.5,-139.09"/>
</a>
</g>
</g>
<!-- Node30&#45;&gt;Node17 -->
<g id="edge44_Node000030_Node000017" class="edge">
<title>Node30&#45;&gt;Node17</title>
<g id="a_edge44_Node000030_Node000017"><a xlink:title=" ">
<path fill="none" stroke="#63b8ff" d="M1018.95,-164.98C997.59,-156.34 964.3,-142.87 939.94,-133.02"/>
<polygon fill="#63b8ff" stroke="#63b8ff" points="941.01,-129.68 930.43,-129.17 938.39,-136.17 941.01,-129.68"/>
</a>
</g>
</g>
<!-- Node31 -->
<g id="Node000031" class="node">
<title>Node31</title>
<g id="a_Node000031"><a xlink:title=" ">
<polygon fill="#e0e0e0" stroke="#999999" points="1185.5,-129 1120.5,-129 1120.5,-110 1185.5,-110 1185.5,-129"/>
<text text-anchor="middle" x="1153" y="-117" font-family="Helvetica,sans-Serif" font-size="10.00">stdexcept</text>
</a>
</g>
</g>
<!-- Node30&#45;&gt;Node31 -->
<g id="edge41_Node000030_Node000031" class="edge">
<title>Node30&#45;&gt;Node31</title>
<g id="a_edge41_Node000030_Node000031"><a xlink:title=" ">
<path fill="none" stroke="#63b8ff" d="M1058.16,-164.98C1076.25,-156.5 1104.28,-143.35 1125.19,-133.54"/>
<polygon fill="#63b8ff" stroke="#63b8ff" points="1126.95,-136.59 1134.51,-129.17 1123.97,-130.25 1126.95,-136.59"/>
</a>
</g>
</g>
</g>
</svg>
