<?xml version="1.0" encoding="UTF-8" standalone="no"?>
<!DOCTYPE svg PUBLIC "-//W3C//DTD SVG 1.1//EN"
 "http://www.w3.org/Graphics/SVG/1.1/DTD/svg11.dtd">
<!-- Generated by graphviz version 2.43.0 (0)
 -->
<!-- Title: src/lib/mapGeneration/mapGeneration.cpp Pages: 1 -->
<svg width="1437pt" height="203pt"
 viewBox="0.00 0.00 1437.00 203.00" xmlns="http://www.w3.org/2000/svg" xmlns:xlink="http://www.w3.org/1999/xlink">
<g id="graph0" class="graph" transform="scale(1 1) rotate(0) translate(4 199)">
<title>src/lib/mapGeneration/mapGeneration.cpp</title>
<!-- Node1 -->
<g id="Node000001" class="node">
<title>Node1</title>
<g id="a_Node000001"><a xlink:title=" ">
<polygon fill="#999999" stroke="#666666" points="764.5,-195 639.5,-195 639.5,-165 764.5,-165 764.5,-195"/>
<text text-anchor="start" x="647.5" y="-183" font-family="Helvetica,sans-Serif" font-size="10.00">src/lib/mapGeneration</text>
<text text-anchor="middle" x="702" y="-172" font-family="Helvetica,sans-Serif" font-size="10.00">/mapGeneration.cpp</text>
</a>
</g>
</g>
<!-- Node2 -->
<g id="Node000002" class="node">
<title>Node2</title>
<g id="a_Node000002"><a xlink:href="mapGeneration_8hpp.html" target="_top" xlink:title=" ">
<polygon fill="white" stroke="#666666" points="542.5,-129 429.5,-129 429.5,-110 542.5,-110 542.5,-129"/>
<text text-anchor="middle" x="486" y="-117" font-family="Helvetica,sans-Serif" font-size="10.00">mapGeneration.hpp</text>
</a>
</g>
</g>
<!-- Node1&#45;&gt;Node2 -->
<g id="edge1_Node000001_Node000002" class="edge">
<title>Node1&#45;&gt;Node2</title>
<g id="a_edge1_Node000001_Node000002"><a xlink:title=" ">
<path fill="none" stroke="#63b8ff" d="M650.26,-164.99C612.66,-154.8 562.44,-141.2 527.47,-131.73"/>
<polygon fill="#63b8ff" stroke="#63b8ff" points="528.15,-128.29 517.58,-129.05 526.32,-135.05 528.15,-128.29"/>
</a>
</g>
</g>
<!-- Node3 -->
<g id="Node000003" class="node">
<title>Node3</title>
<g id="a_Node000003"><a xlink:href="uvgvpcc_8hpp.html" target="_top" xlink:title=" ">
<polygon fill="white" stroke="#666666" points="543,-74 421,-74 421,-55 543,-55 543,-74"/>
<text text-anchor="middle" x="482" y="-62" font-family="Helvetica,sans-Serif" font-size="10.00">uvgvpcc/uvgvpcc.hpp</text>
</a>
</g>
</g>
<!-- Node1&#45;&gt;Node3 -->
<g id="edge54_Node000001_Node000003" class="edge">
<title>Node1&#45;&gt;Node3</title>
<g id="a_edge54_Node000001_Node000003"><a xlink:title=" ">
<path fill="none" stroke="#63b8ff" d="M639.28,-176.9C565.12,-172.94 448.29,-161.57 421,-129 405.81,-110.87 431.25,-91.47 453.77,-78.95"/>
<polygon fill="#63b8ff" stroke="#63b8ff" points="455.58,-81.95 462.79,-74.19 452.31,-75.76 455.58,-81.95"/>
</a>
</g>
</g>
<!-- Node4 -->
<g id="Node000004" class="node">
<title>Node4</title>
<g id="a_Node000004"><a xlink:title=" ">
<polygon fill="#e0e0e0" stroke="#999999" points="135.5,-19 82.5,-19 82.5,0 135.5,0 135.5,-19"/>
<text text-anchor="middle" x="109" y="-7" font-family="Helvetica,sans-Serif" font-size="10.00">cstddef</text>
</a>
</g>
</g>
<!-- Node1&#45;&gt;Node4 -->
<g id="edge19_Node000001_Node000004" class="edge">
<title>Node1&#45;&gt;Node4</title>
<g id="a_edge19_Node000001_Node000004"><a xlink:title=" ">
<path fill="none" stroke="#63b8ff" d="M639.45,-178.22C495.62,-175.8 150.89,-166.15 115,-129 89.33,-102.43 96.68,-54.91 103.39,-28.85"/>
<polygon fill="#63b8ff" stroke="#63b8ff" points="106.79,-29.69 106.13,-19.12 100.05,-27.8 106.79,-29.69"/>
</a>
</g>
</g>
<!-- Node5 -->
<g id="Node000005" class="node">
<title>Node5</title>
<g id="a_Node000005"><a xlink:title=" ">
<polygon fill="#e0e0e0" stroke="#999999" points="220,-19 170,-19 170,0 220,0 220,-19"/>
<text text-anchor="middle" x="195" y="-7" font-family="Helvetica,sans-Serif" font-size="10.00">cstdint</text>
</a>
</g>
</g>
<!-- Node1&#45;&gt;Node5 -->
<g id="edge20_Node000001_Node000005" class="edge">
<title>Node1&#45;&gt;Node5</title>
<g id="a_edge20_Node000001_Node000005"><a xlink:title=" ">
<path fill="none" stroke="#63b8ff" d="M639.29,-178.22C497.34,-175.81 161.09,-166.18 127,-129 97.38,-96.7 145.94,-49.3 175.25,-25.42"/>
<polygon fill="#63b8ff" stroke="#63b8ff" points="177.61,-28.02 183.28,-19.07 173.26,-22.53 177.61,-28.02"/>
</a>
</g>
</g>
<!-- Node7 -->
<g id="Node000007" class="node">
<title>Node7</title>
<g id="a_Node000007"><a xlink:title=" ">
<polygon fill="#e0e0e0" stroke="#999999" points="673,-19 615,-19 615,0 673,0 673,-19"/>
<text text-anchor="middle" x="644" y="-7" font-family="Helvetica,sans-Serif" font-size="10.00">memory</text>
</a>
</g>
</g>
<!-- Node1&#45;&gt;Node7 -->
<g id="edge22_Node000001_Node000007" class="edge">
<title>Node1&#45;&gt;Node7</title>
<g id="a_edge22_Node000001_Node000007"><a xlink:title=" ">
<path fill="none" stroke="#63b8ff" d="M639.36,-165.26C620.24,-157.82 601.3,-146.42 590,-129 567.78,-94.75 603.78,-49.85 626.92,-26.37"/>
<polygon fill="#63b8ff" stroke="#63b8ff" points="629.47,-28.78 634.17,-19.28 624.57,-23.77 629.47,-28.78"/>
</a>
</g>
</g>
<!-- Node11 -->
<g id="Node000011" class="node">
<title>Node11</title>
<g id="a_Node000011"><a xlink:title=" ">
<polygon fill="#e0e0e0" stroke="#999999" points="1071,-19 1027,-19 1027,0 1071,0 1071,-19"/>
<text text-anchor="middle" x="1049" y="-7" font-family="Helvetica,sans-Serif" font-size="10.00">string</text>
</a>
</g>
</g>
<!-- Node1&#45;&gt;Node11 -->
<g id="edge23_Node000001_Node000011" class="edge">
<title>Node1&#45;&gt;Node11</title>
<g id="a_edge23_Node000001_Node000011"><a xlink:title=" ">
<path fill="none" stroke="#63b8ff" d="M764.87,-176.53C881.95,-171.28 1123.85,-157.12 1149,-129 1182.31,-91.76 1114.74,-46.22 1075.07,-24"/>
<polygon fill="#63b8ff" stroke="#63b8ff" points="1076.59,-20.84 1066.14,-19.12 1073.24,-26.99 1076.59,-20.84"/>
</a>
</g>
</g>
<!-- Node12 -->
<g id="Node000012" class="node">
<title>Node12</title>
<g id="a_Node000012"><a xlink:title=" ">
<polygon fill="#e0e0e0" stroke="#999999" points="838.5,-19 791.5,-19 791.5,0 838.5,0 838.5,-19"/>
<text text-anchor="middle" x="815" y="-7" font-family="Helvetica,sans-Serif" font-size="10.00">vector</text>
</a>
</g>
</g>
<!-- Node1&#45;&gt;Node12 -->
<g id="edge24_Node000001_Node000012" class="edge">
<title>Node1&#45;&gt;Node12</title>
<g id="a_edge24_Node000001_Node000012"><a xlink:title=" ">
<path fill="none" stroke="#63b8ff" d="M764.71,-173.21C822.08,-166.46 900.86,-153.03 920,-129 953.27,-87.24 883.06,-112.3 845,-74 832.66,-61.58 824.72,-43.11 820.13,-29.29"/>
<polygon fill="#63b8ff" stroke="#63b8ff" points="823.39,-27.97 817.15,-19.4 816.69,-29.99 823.39,-27.97"/>
</a>
</g>
</g>
<!-- Node13 -->
<g id="Node000013" class="node">
<title>Node13</title>
<g id="a_Node000013"><a xlink:title=" ">
<polygon fill="#e0e0e0" stroke="#999999" points="64,-19 0,-19 0,0 64,0 64,-19"/>
<text text-anchor="middle" x="32" y="-7" font-family="Helvetica,sans-Serif" font-size="10.00">algorithm</text>
</a>
</g>
</g>
<!-- Node1&#45;&gt;Node13 -->
<g id="edge15_Node000001_Node000013" class="edge">
<title>Node1&#45;&gt;Node13</title>
<g id="a_edge15_Node000001_Node000013"><a xlink:title=" ">
<path fill="none" stroke="#63b8ff" d="M639.45,-177.08C494.54,-172.16 144.75,-157.45 100,-129 63.76,-105.96 44.77,-56.24 36.75,-29.1"/>
<polygon fill="#63b8ff" stroke="#63b8ff" points="40.08,-28 34.05,-19.3 33.34,-29.87 40.08,-28"/>
</a>
</g>
</g>
<!-- Node16 -->
<g id="Node000016" class="node">
<title>Node16</title>
<g id="a_Node000016"><a xlink:title=" ">
<polygon fill="#e0e0e0" stroke="#999999" points="988,-19 946,-19 946,0 988,0 988,-19"/>
<text text-anchor="middle" x="967" y="-7" font-family="Helvetica,sans-Serif" font-size="10.00">array</text>
</a>
</g>
</g>
<!-- Node1&#45;&gt;Node16 -->
<g id="edge16_Node000001_Node000016" class="edge">
<title>Node1&#45;&gt;Node16</title>
<g id="a_edge16_Node000001_Node000016"><a xlink:title=" ">
<path fill="none" stroke="#63b8ff" d="M764.69,-176.24C878.13,-170.6 1108.01,-155.94 1132,-129 1150.79,-107.9 1127.88,-74.17 1106,-55 1089.83,-40.83 1033.99,-25.89 998.2,-17.42"/>
<polygon fill="#63b8ff" stroke="#63b8ff" points="998.77,-13.97 988.24,-15.12 997.19,-20.78 998.77,-13.97"/>
</a>
</g>
</g>
<!-- Node17 -->
<g id="Node000017" class="node">
<title>Node17</title>
<g id="a_Node000017"><a xlink:title=" ">
<polygon fill="#e0e0e0" stroke="#999999" points="777,-129 725,-129 725,-110 777,-110 777,-129"/>
<text text-anchor="middle" x="751" y="-117" font-family="Helvetica,sans-Serif" font-size="10.00">cassert</text>
</a>
</g>
</g>
<!-- Node1&#45;&gt;Node17 -->
<g id="edge17_Node000001_Node000017" class="edge">
<title>Node1&#45;&gt;Node17</title>
<g id="a_edge17_Node000001_Node000017"><a xlink:title=" ">
<path fill="none" stroke="#63b8ff" d="M713.86,-164.84C720.9,-156.43 729.86,-145.74 737.21,-136.96"/>
<polygon fill="#63b8ff" stroke="#63b8ff" points="739.92,-139.18 743.66,-129.27 734.55,-134.68 739.92,-139.18"/>
</a>
</g>
</g>
<!-- Node18 -->
<g id="Node000018" class="node">
<title>Node18</title>
<g id="a_Node000018"><a xlink:title=" ">
<polygon fill="#e0e0e0" stroke="#999999" points="842.5,-129 795.5,-129 795.5,-110 842.5,-110 842.5,-129"/>
<text text-anchor="middle" x="819" y="-117" font-family="Helvetica,sans-Serif" font-size="10.00">cmath</text>
</a>
</g>
</g>
<!-- Node1&#45;&gt;Node18 -->
<g id="edge18_Node000001_Node000018" class="edge">
<title>Node1&#45;&gt;Node18</title>
<g id="a_edge18_Node000001_Node000018"><a xlink:title=" ">
<path fill="none" stroke="#63b8ff" d="M730.02,-164.99C749.02,-155.49 773.97,-143.02 792.61,-133.69"/>
<polygon fill="#63b8ff" stroke="#63b8ff" points="794.34,-136.74 801.72,-129.14 791.21,-130.48 794.34,-136.74"/>
</a>
</g>
</g>
<!-- Node19 -->
<g id="Node000019" class="node">
<title>Node19</title>
<g id="a_Node000019"><a xlink:title=" ">
<polygon fill="#e0e0e0" stroke="#999999" points="911,-129 861,-129 861,-110 911,-110 911,-129"/>
<text text-anchor="middle" x="886" y="-117" font-family="Helvetica,sans-Serif" font-size="10.00">cstring</text>
</a>
</g>
</g>
<!-- Node1&#45;&gt;Node19 -->
<g id="edge21_Node000001_Node000019" class="edge">
<title>Node1&#45;&gt;Node19</title>
<g id="a_edge21_Node000001_Node000019"><a xlink:title=" ">
<path fill="none" stroke="#63b8ff" d="M746.07,-164.99C778.36,-154.72 821.57,-140.98 851.39,-131.5"/>
<polygon fill="#63b8ff" stroke="#63b8ff" points="852.48,-134.83 860.95,-128.46 850.36,-128.16 852.48,-134.83"/>
</a>
</g>
</g>
<!-- Node20 -->
<g id="Node000020" class="node">
<title>Node20</title>
<g id="a_Node000020"><a xlink:href="bgFillAttribute_8hpp.html" target="_top" xlink:title=" ">
<polygon fill="white" stroke="#666666" points="243.5,-129 136.5,-129 136.5,-110 243.5,-110 243.5,-129"/>
<text text-anchor="middle" x="190" y="-117" font-family="Helvetica,sans-Serif" font-size="10.00">bgFillAttribute.hpp</text>
</a>
</g>
</g>
<!-- Node1&#45;&gt;Node20 -->
<g id="edge25_Node000001_Node000020" class="edge">
<title>Node1&#45;&gt;Node20</title>
<g id="a_edge25_Node000001_Node000020"><a xlink:title=" ">
<path fill="none" stroke="#63b8ff" d="M639.48,-172.5C554.63,-163.58 398.02,-146.74 253.54,-129.04"/>
<polygon fill="#63b8ff" stroke="#63b8ff" points="253.96,-125.56 243.61,-127.82 253.1,-132.51 253.96,-125.56"/>
</a>
</g>
</g>
<!-- Node21 -->
<g id="Node000021" class="node">
<title>Node21</title>
<g id="a_Node000021"><a xlink:href="bgFillGeometry_8hpp.html" target="_top" xlink:title=" ">
<polygon fill="white" stroke="#666666" points="372.5,-129 261.5,-129 261.5,-110 372.5,-110 372.5,-129"/>
<text text-anchor="middle" x="317" y="-117" font-family="Helvetica,sans-Serif" font-size="10.00">bgFillGeometry.hpp</text>
</a>
</g>
</g>
<!-- Node1&#45;&gt;Node21 -->
<g id="edge27_Node000001_Node000021" class="edge">
<title>Node1&#45;&gt;Node21</title>
<g id="a_edge27_Node000001_Node000021"><a xlink:title=" ">
<path fill="none" stroke="#63b8ff" d="M639.29,-169.47C568.82,-158.76 454.91,-141.45 383.09,-130.54"/>
<polygon fill="#63b8ff" stroke="#63b8ff" points="383.22,-127.02 372.8,-128.98 382.16,-133.94 383.22,-127.02"/>
</a>
</g>
</g>
<!-- Node22 -->
<g id="Node000022" class="node">
<title>Node22</title>
<g id="a_Node000022"><a xlink:href="fileExport_8hpp.html" target="_top" xlink:title=" ">
<polygon fill="white" stroke="#666666" points="707,-129 599,-129 599,-110 707,-110 707,-129"/>
<text text-anchor="middle" x="653" y="-117" font-family="Helvetica,sans-Serif" font-size="10.00">utils/fileExport.hpp</text>
</a>
</g>
</g>
<!-- Node1&#45;&gt;Node22 -->
<g id="edge29_Node000001_Node000022" class="edge">
<title>Node1&#45;&gt;Node22</title>
<g id="a_edge29_Node000001_Node000022"><a xlink:title=" ">
<path fill="none" stroke="#63b8ff" d="M690.14,-164.84C683.1,-156.43 674.14,-145.74 666.79,-136.96"/>
<polygon fill="#63b8ff" stroke="#63b8ff" points="669.45,-134.68 660.34,-129.27 664.08,-139.18 669.45,-134.68"/>
</a>
</g>
</g>
<!-- Node23 -->
<g id="Node000023" class="node">
<title>Node23</title>
<g id="a_Node000023"><a xlink:href="utils_8hpp.html" target="_top" xlink:title=" ">
<polygon fill="white" stroke="#666666" points="936.5,-74 853.5,-74 853.5,-55 936.5,-55 936.5,-74"/>
<text text-anchor="middle" x="895" y="-62" font-family="Helvetica,sans-Serif" font-size="10.00">utils/utils.hpp</text>
</a>
</g>
</g>
<!-- Node1&#45;&gt;Node23 -->
<g id="edge46_Node000001_Node000023" class="edge">
<title>Node1&#45;&gt;Node23</title>
<g id="a_edge46_Node000001_Node000023"><a xlink:title=" ">
<path fill="none" stroke="#63b8ff" d="M764.58,-175.38C831.01,-170.07 929.61,-157.51 953,-129 967.67,-111.12 943.36,-91.64 921.87,-79.03"/>
<polygon fill="#63b8ff" stroke="#63b8ff" points="923.39,-75.87 912.95,-74.07 919.99,-81.99 923.39,-75.87"/>
</a>
</g>
</g>
<!-- Node26 -->
<g id="Node000026" class="node">
<title>Node26</title>
<g id="a_Node000026"><a xlink:href="parameters_8hpp.html" target="_top" xlink:title=" ">
<polygon fill="white" stroke="#666666" points="1123,-129 1005,-129 1005,-110 1123,-110 1123,-129"/>
<text text-anchor="middle" x="1064" y="-117" font-family="Helvetica,sans-Serif" font-size="10.00">utils/parameters.hpp</text>
</a>
</g>
</g>
<!-- Node1&#45;&gt;Node26 -->
<g id="edge41_Node000001_Node000026" class="edge">
<title>Node1&#45;&gt;Node26</title>
<g id="a_edge41_Node000001_Node000026"><a xlink:title=" ">
<path fill="none" stroke="#63b8ff" d="M764.64,-168.88C830.95,-158.16 935,-141.35 1001.32,-130.63"/>
<polygon fill="#63b8ff" stroke="#63b8ff" points="1001.92,-134.08 1011.23,-129.03 1000.8,-127.17 1001.92,-134.08"/>
</a>
</g>
</g>
<!-- Node28 -->
<g id="Node000028" class="node">
<title>Node28</title>
<g id="a_Node000028"><a xlink:href="log_8hpp.html" target="_top" xlink:title=" ">
<polygon fill="white" stroke="#666666" points="1325,-74 1229,-74 1229,-55 1325,-55 1325,-74"/>
<text text-anchor="middle" x="1277" y="-62" font-family="Helvetica,sans-Serif" font-size="10.00">uvgvpcc/log.hpp</text>
</a>
</g>
</g>
<!-- Node1&#45;&gt;Node28 -->
<g id="edge47_Node000001_Node000028" class="edge">
<title>Node1&#45;&gt;Node28</title>
<g id="a_edge47_Node000001_Node000028"><a xlink:title=" ">
<path fill="none" stroke="#63b8ff" d="M764.84,-178.21C883.8,-175.85 1136.94,-166.44 1215,-129 1236.4,-118.74 1254.49,-97.83 1265.51,-82.81"/>
<polygon fill="#63b8ff" stroke="#63b8ff" points="1268.56,-84.57 1271.42,-74.37 1262.82,-80.55 1268.56,-84.57"/>
</a>
</g>
</g>
<!-- Node2&#45;&gt;Node3 -->
<g id="edge2_Node000002_Node000003" class="edge">
<title>Node2&#45;&gt;Node3</title>
<g id="a_edge2_Node000002_Node000003"><a xlink:title=" ">
<path fill="none" stroke="#63b8ff" d="M485.34,-109.75C484.82,-102.8 484.06,-92.85 483.41,-84.13"/>
<polygon fill="#63b8ff" stroke="#63b8ff" points="486.89,-83.8 482.65,-74.09 479.91,-84.32 486.89,-83.8"/>
</a>
</g>
</g>
<!-- Node3&#45;&gt;Node4 -->
<g id="edge3_Node000003_Node000004" class="edge">
<title>Node3&#45;&gt;Node4</title>
<g id="a_edge3_Node000003_Node000004"><a xlink:title=" ">
<path fill="none" stroke="#63b8ff" d="M421,-55.49C356.37,-46.9 251.4,-32.65 161,-19 156.11,-18.26 150.97,-17.46 145.9,-16.65"/>
<polygon fill="#63b8ff" stroke="#63b8ff" points="146.13,-13.14 135.7,-14.99 145.01,-20.05 146.13,-13.14"/>
</a>
</g>
</g>
<!-- Node3&#45;&gt;Node5 -->
<g id="edge4_Node000003_Node000005" class="edge">
<title>Node3&#45;&gt;Node5</title>
<g id="a_edge4_Node000003_Node000005"><a xlink:title=" ">
<path fill="none" stroke="#63b8ff" d="M427,-54.98C377.81,-47.1 303.55,-34.56 230.09,-19.11"/>
<polygon fill="#63b8ff" stroke="#63b8ff" points="230.71,-15.66 220.2,-17.01 229.26,-22.51 230.71,-15.66"/>
</a>
</g>
</g>
<!-- Node6 -->
<g id="Node000006" class="node">
<title>Node6</title>
<g id="a_Node000006"><a xlink:title=" ">
<polygon fill="#e0e0e0" stroke="#999999" points="1149,-19 1089,-19 1089,0 1149,0 1149,-19"/>
<text text-anchor="middle" x="1119" y="-7" font-family="Helvetica,sans-Serif" font-size="10.00">iostream</text>
</a>
</g>
</g>
<!-- Node3&#45;&gt;Node6 -->
<g id="edge5_Node000003_Node000006" class="edge">
<title>Node3&#45;&gt;Node6</title>
<g id="a_edge5_Node000003_Node000006"><a xlink:title=" ">
<path fill="none" stroke="#63b8ff" d="M543,-61.79C649.72,-58.17 877.31,-47.71 1078.67,-18.98"/>
<polygon fill="#63b8ff" stroke="#63b8ff" points="1079.45,-22.41 1088.84,-17.51 1078.44,-15.48 1079.45,-22.41"/>
</a>
</g>
</g>
<!-- Node3&#45;&gt;Node7 -->
<g id="edge6_Node000003_Node000007" class="edge">
<title>Node3&#45;&gt;Node7</title>
<g id="a_edge6_Node000003_Node000007"><a xlink:title=" ">
<path fill="none" stroke="#63b8ff" d="M508.03,-54.98C535.11,-46.13 577.71,-32.19 608.01,-22.28"/>
<polygon fill="#63b8ff" stroke="#63b8ff" points="609.35,-25.52 617.77,-19.08 607.18,-18.87 609.35,-25.52"/>
</a>
</g>
</g>
<!-- Node8 -->
<g id="Node000008" class="node">
<title>Node8</title>
<g id="a_Node000008"><a xlink:title=" ">
<polygon fill="#e0e0e0" stroke="#999999" points="596.5,-19 549.5,-19 549.5,0 596.5,0 596.5,-19"/>
<text text-anchor="middle" x="573" y="-7" font-family="Helvetica,sans-Serif" font-size="10.00">queue</text>
</a>
</g>
</g>
<!-- Node3&#45;&gt;Node8 -->
<g id="edge7_Node000003_Node000008" class="edge">
<title>Node3&#45;&gt;Node8</title>
<g id="a_edge7_Node000003_Node000008"><a xlink:title=" ">
<path fill="none" stroke="#63b8ff" d="M496.62,-54.98C510.86,-46.69 532.75,-33.94 549.45,-24.22"/>
<polygon fill="#63b8ff" stroke="#63b8ff" points="551.23,-27.23 558.11,-19.17 547.71,-21.18 551.23,-27.23"/>
</a>
</g>
</g>
<!-- Node9 -->
<g id="Node000009" class="node">
<title>Node9</title>
<g id="a_Node000009"><a xlink:title=" ">
<polygon fill="#e0e0e0" stroke="#999999" points="309.5,-19 238.5,-19 238.5,0 309.5,0 309.5,-19"/>
<text text-anchor="middle" x="274" y="-7" font-family="Helvetica,sans-Serif" font-size="10.00">semaphore</text>
</a>
</g>
</g>
<!-- Node3&#45;&gt;Node9 -->
<g id="edge8_Node000003_Node000009" class="edge">
<title>Node3&#45;&gt;Node9</title>
<g id="a_edge8_Node000003_Node000009"><a xlink:title=" ">
<path fill="none" stroke="#63b8ff" d="M448.58,-54.98C413.06,-45.93 356.73,-31.58 317.7,-21.64"/>
<polygon fill="#63b8ff" stroke="#63b8ff" points="318.24,-18.16 307.68,-19.08 316.51,-24.94 318.24,-18.16"/>
</a>
</g>
</g>
<!-- Node10 -->
<g id="Node000010" class="node">
<title>Node10</title>
<g id="a_Node000010"><a xlink:title=" ">
<polygon fill="#e0e0e0" stroke="#999999" points="754,-19 698,-19 698,0 754,0 754,-19"/>
<text text-anchor="middle" x="726" y="-7" font-family="Helvetica,sans-Serif" font-size="10.00">sstream</text>
</a>
</g>
</g>
<!-- Node3&#45;&gt;Node10 -->
<g id="edge9_Node000003_Node000010" class="edge">
<title>Node3&#45;&gt;Node10</title>
<g id="a_edge9_Node000003_Node000010"><a xlink:title=" ">
<path fill="none" stroke="#63b8ff" d="M521.2,-54.98C567.07,-45.02 642.5,-28.64 687.89,-18.78"/>
<polygon fill="#63b8ff" stroke="#63b8ff" points="688.89,-22.14 697.92,-16.6 687.41,-15.3 688.89,-22.14"/>
</a>
</g>
</g>
<!-- Node3&#45;&gt;Node11 -->
<g id="edge10_Node000003_Node000011" class="edge">
<title>Node3&#45;&gt;Node11</title>
<g id="a_edge10_Node000003_Node000011"><a xlink:title=" ">
<path fill="none" stroke="#63b8ff" d="M543.2,-59.72C639.84,-53.41 833.59,-39.39 997,-19 1003.43,-18.2 1010.29,-17.19 1016.84,-16.15"/>
<polygon fill="#63b8ff" stroke="#63b8ff" points="1017.49,-19.59 1026.79,-14.51 1016.35,-12.68 1017.49,-19.59"/>
</a>
</g>
</g>
<!-- Node3&#45;&gt;Node12 -->
<g id="edge11_Node000003_Node000012" class="edge">
<title>Node3&#45;&gt;Node12</title>
<g id="a_edge11_Node000003_Node000012"><a xlink:title=" ">
<path fill="none" stroke="#63b8ff" d="M536.41,-54.97C593.02,-46.07 684.24,-31.67 763,-19 768.96,-18.04 775.3,-17.01 781.43,-16.01"/>
<polygon fill="#63b8ff" stroke="#63b8ff" points="782.14,-19.44 791.45,-14.38 781.01,-12.53 782.14,-19.44"/>
</a>
</g>
</g>
<!-- Node3&#45;&gt;Node13 -->
<g id="edge12_Node000003_Node000013" class="edge">
<title>Node3&#45;&gt;Node13</title>
<g id="a_edge12_Node000003_Node000013"><a xlink:title=" ">
<path fill="none" stroke="#63b8ff" d="M420.78,-58.69C342.63,-52.13 203.08,-39.04 74.22,-19.05"/>
<polygon fill="#63b8ff" stroke="#63b8ff" points="74.6,-15.57 64.18,-17.47 73.51,-22.48 74.6,-15.57"/>
</a>
</g>
</g>
<!-- Node14 -->
<g id="Node000014" class="node">
<title>Node14</title>
<g id="a_Node000014"><a xlink:title=" ">
<polygon fill="#e0e0e0" stroke="#999999" points="420.5,-19 327.5,-19 327.5,0 420.5,0 420.5,-19"/>
<text text-anchor="middle" x="374" y="-7" font-family="Helvetica,sans-Serif" font-size="10.00">unordered_map</text>
</a>
</g>
</g>
<!-- Node3&#45;&gt;Node14 -->
<g id="edge13_Node000003_Node000014" class="edge">
<title>Node3&#45;&gt;Node14</title>
<g id="a_edge13_Node000003_Node000014"><a xlink:title=" ">
<path fill="none" stroke="#63b8ff" d="M464.65,-54.98C447.43,-46.54 420.8,-33.47 400.85,-23.68"/>
<polygon fill="#63b8ff" stroke="#63b8ff" points="402.19,-20.43 391.67,-19.17 399.1,-26.72 402.19,-20.43"/>
</a>
</g>
</g>
<!-- Node15 -->
<g id="Node000015" class="node">
<title>Node15</title>
<g id="a_Node000015"><a xlink:title=" ">
<polygon fill="#e0e0e0" stroke="#999999" points="531,-19 439,-19 439,0 531,0 531,-19"/>
<text text-anchor="middle" x="485" y="-7" font-family="Helvetica,sans-Serif" font-size="10.00">../utils/utils.hpp</text>
</a>
</g>
</g>
<!-- Node3&#45;&gt;Node15 -->
<g id="edge14_Node000003_Node000015" class="edge">
<title>Node3&#45;&gt;Node15</title>
<g id="a_edge14_Node000003_Node000015"><a xlink:title=" ">
<path fill="none" stroke="#63b8ff" d="M482.5,-54.75C482.89,-47.8 483.45,-37.85 483.95,-29.13"/>
<polygon fill="#63b8ff" stroke="#63b8ff" points="487.44,-29.27 484.51,-19.09 480.45,-28.88 487.44,-29.27"/>
</a>
</g>
</g>
<!-- Node20&#45;&gt;Node3 -->
<g id="edge26_Node000020_Node000003" class="edge">
<title>Node20&#45;&gt;Node3</title>
<g id="a_edge26_Node000020_Node000003"><a xlink:title=" ">
<path fill="none" stroke="#63b8ff" d="M236.91,-109.98C288.06,-100.7 369.92,-85.84 424.8,-75.88"/>
<polygon fill="#63b8ff" stroke="#63b8ff" points="425.5,-79.31 434.72,-74.08 424.25,-72.42 425.5,-79.31"/>
</a>
</g>
</g>
<!-- Node21&#45;&gt;Node3 -->
<g id="edge28_Node000021_Node000003" class="edge">
<title>Node21&#45;&gt;Node3</title>
<g id="a_edge28_Node000021_Node000003"><a xlink:title=" ">
<path fill="none" stroke="#63b8ff" d="M343.51,-109.98C371.21,-101.09 414.86,-87.07 445.74,-77.15"/>
<polygon fill="#63b8ff" stroke="#63b8ff" points="446.83,-80.47 455.28,-74.08 444.69,-73.81 446.83,-80.47"/>
</a>
</g>
</g>
<!-- Node22&#45;&gt;Node3 -->
<g id="edge40_Node000022_Node000003" class="edge">
<title>Node22&#45;&gt;Node3</title>
<g id="a_edge40_Node000022_Node000003"><a xlink:title=" ">
<path fill="none" stroke="#63b8ff" d="M625.53,-109.98C596.82,-101.09 551.58,-87.07 519.58,-77.15"/>
<polygon fill="#63b8ff" stroke="#63b8ff" points="520.28,-73.7 509.69,-74.08 518.2,-80.39 520.28,-73.7"/>
</a>
</g>
</g>
<!-- Node22&#45;&gt;Node4 -->
<g id="edge30_Node000022_Node000004" class="edge">
<title>Node22&#45;&gt;Node4</title>
<g id="a_edge30_Node000022_Node000004"><a xlink:title=" ">
<path fill="none" stroke="#63b8ff" d="M604.92,-109.97C556.23,-101.26 478.79,-87.16 412,-74 315.69,-55.02 202.59,-30.8 145.67,-18.48"/>
<polygon fill="#63b8ff" stroke="#63b8ff" points="146.22,-15.02 135.71,-16.32 144.74,-21.86 146.22,-15.02"/>
</a>
</g>
</g>
<!-- Node22&#45;&gt;Node7 -->
<g id="edge31_Node000022_Node000007" class="edge">
<title>Node22&#45;&gt;Node7</title>
<g id="a_edge31_Node000022_Node000007"><a xlink:title=" ">
<path fill="none" stroke="#63b8ff" d="M652.26,-109.66C650.81,-92.17 647.53,-52.8 645.56,-29.27"/>
<polygon fill="#63b8ff" stroke="#63b8ff" points="649.04,-28.83 644.72,-19.16 642.06,-29.41 649.04,-28.83"/>
</a>
</g>
</g>
<!-- Node22&#45;&gt;Node11 -->
<g id="edge32_Node000022_Node000011" class="edge">
<title>Node22&#45;&gt;Node11</title>
<g id="a_edge32_Node000022_Node000011"><a xlink:title=" ">
<path fill="none" stroke="#63b8ff" d="M707.19,-110.84C788.78,-99.22 934.91,-78.07 946,-74 977.81,-62.33 1010.43,-40.16 1030.2,-25.35"/>
<polygon fill="#63b8ff" stroke="#63b8ff" points="1032.52,-27.98 1038.34,-19.13 1028.27,-22.42 1032.52,-27.98"/>
</a>
</g>
</g>
<!-- Node22&#45;&gt;Node12 -->
<g id="edge33_Node000022_Node000012" class="edge">
<title>Node22&#45;&gt;Node12</title>
<g id="a_edge33_Node000022_Node000012"><a xlink:title=" ">
<path fill="none" stroke="#63b8ff" d="M665.98,-109.84C693.83,-91.28 759.52,-47.49 793.62,-24.75"/>
<polygon fill="#63b8ff" stroke="#63b8ff" points="795.58,-27.66 801.95,-19.2 791.69,-21.83 795.58,-27.66"/>
</a>
</g>
</g>
<!-- Node22&#45;&gt;Node23 -->
<g id="edge34_Node000022_Node000023" class="edge">
<title>Node22&#45;&gt;Node23</title>
<g id="a_edge34_Node000022_Node000023"><a xlink:title=" ">
<path fill="none" stroke="#63b8ff" d="M691.88,-109.98C733.74,-100.82 800.43,-86.21 845.88,-76.26"/>
<polygon fill="#63b8ff" stroke="#63b8ff" points="846.79,-79.64 855.81,-74.08 845.3,-72.8 846.79,-79.64"/>
</a>
</g>
</g>
<!-- Node23&#45;&gt;Node5 -->
<g id="edge36_Node000023_Node000005" class="edge">
<title>Node23&#45;&gt;Node5</title>
<g id="a_edge36_Node000023_Node000005"><a xlink:title=" ">
<path fill="none" stroke="#63b8ff" d="M853.41,-63.29C749.62,-62.21 470.87,-55.96 230.14,-18.88"/>
<polygon fill="#63b8ff" stroke="#63b8ff" points="230.57,-15.4 220.15,-17.32 229.49,-22.32 230.57,-15.4"/>
</a>
</g>
</g>
<!-- Node23&#45;&gt;Node10 -->
<g id="edge38_Node000023_Node000010" class="edge">
<title>Node23&#45;&gt;Node10</title>
<g id="a_edge38_Node000023_Node000010"><a xlink:title=" ">
<path fill="none" stroke="#63b8ff" d="M867.85,-54.98C839.47,-46.09 794.77,-32.07 763.14,-22.15"/>
<polygon fill="#63b8ff" stroke="#63b8ff" points="763.95,-18.73 753.37,-19.08 761.86,-25.41 763.95,-18.73"/>
</a>
</g>
</g>
<!-- Node23&#45;&gt;Node16 -->
<g id="edge35_Node000023_Node000016" class="edge">
<title>Node23&#45;&gt;Node16</title>
<g id="a_edge35_Node000023_Node000016"><a xlink:title=" ">
<path fill="none" stroke="#63b8ff" d="M906.57,-54.98C917.42,-47 933.88,-34.88 946.88,-25.31"/>
<polygon fill="#63b8ff" stroke="#63b8ff" points="949.24,-27.92 955.22,-19.17 945.09,-22.28 949.24,-27.92"/>
</a>
</g>
</g>
<!-- Node24 -->
<g id="Node000024" class="node">
<title>Node24</title>
<g id="a_Node000024"><a xlink:title=" ">
<polygon fill="#e0e0e0" stroke="#999999" points="917,-19 873,-19 873,0 917,0 917,-19"/>
<text text-anchor="middle" x="895" y="-7" font-family="Helvetica,sans-Serif" font-size="10.00">limits</text>
</a>
</g>
</g>
<!-- Node23&#45;&gt;Node24 -->
<g id="edge37_Node000023_Node000024" class="edge">
<title>Node23&#45;&gt;Node24</title>
<g id="a_edge37_Node000023_Node000024"><a xlink:title=" ">
<path fill="none" stroke="#63b8ff" d="M895,-54.75C895,-47.8 895,-37.85 895,-29.13"/>
<polygon fill="#63b8ff" stroke="#63b8ff" points="898.5,-29.09 895,-19.09 891.5,-29.09 898.5,-29.09"/>
</a>
</g>
</g>
<!-- Node25 -->
<g id="Node000025" class="node">
<title>Node25</title>
<g id="a_Node000025"><a xlink:title=" ">
<polygon fill="#e0e0e0" stroke="#999999" points="1223,-19 1167,-19 1167,0 1223,0 1223,-19"/>
<text text-anchor="middle" x="1195" y="-7" font-family="Helvetica,sans-Serif" font-size="10.00">iomanip</text>
</a>
</g>
</g>
<!-- Node23&#45;&gt;Node25 -->
<g id="edge39_Node000023_Node000025" class="edge">
<title>Node23&#45;&gt;Node25</title>
<g id="a_edge39_Node000023_Node000025"><a xlink:title=" ">
<path fill="none" stroke="#63b8ff" d="M936.59,-57.23C986.57,-49.52 1073.2,-35.63 1156.84,-19.14"/>
<polygon fill="#63b8ff" stroke="#63b8ff" points="1157.63,-22.55 1166.75,-17.17 1156.26,-15.68 1157.63,-22.55"/>
</a>
</g>
</g>
<!-- Node26&#45;&gt;Node11 -->
<g id="edge43_Node000026_Node000011" class="edge">
<title>Node26&#45;&gt;Node11</title>
<g id="a_edge43_Node000026_Node000011"><a xlink:title=" ">
<path fill="none" stroke="#63b8ff" d="M1076.73,-109.9C1092.52,-98.08 1116.2,-75.91 1106,-55 1099.7,-42.09 1087.65,-31.83 1076.24,-24.43"/>
<polygon fill="#63b8ff" stroke="#63b8ff" points="1077.73,-21.25 1067.35,-19.12 1074.14,-27.25 1077.73,-21.25"/>
</a>
</g>
</g>
<!-- Node26&#45;&gt;Node12 -->
<g id="edge44_Node000026_Node000012" class="edge">
<title>Node26&#45;&gt;Node12</title>
<g id="a_edge44_Node000026_Node000012"><a xlink:title=" ">
<path fill="none" stroke="#63b8ff" d="M1049.85,-109.89C1028.08,-96.87 984.82,-71.9 946,-55 913.58,-40.89 875.14,-28.29 848.31,-20.14"/>
<polygon fill="#63b8ff" stroke="#63b8ff" points="849.22,-16.75 838.63,-17.23 847.21,-23.46 849.22,-16.75"/>
</a>
</g>
</g>
<!-- Node26&#45;&gt;Node23 -->
<g id="edge45_Node000026_Node000023" class="edge">
<title>Node26&#45;&gt;Node23</title>
<g id="a_edge45_Node000026_Node000023"><a xlink:title=" ">
<path fill="none" stroke="#63b8ff" d="M1036.85,-109.98C1008.47,-101.09 963.77,-87.07 932.14,-77.15"/>
<polygon fill="#63b8ff" stroke="#63b8ff" points="932.95,-73.73 922.37,-74.08 930.86,-80.41 932.95,-73.73"/>
</a>
</g>
</g>
<!-- Node27 -->
<g id="Node000027" class="node">
<title>Node27</title>
<g id="a_Node000027"><a xlink:title=" ">
<polygon fill="#e0e0e0" stroke="#999999" points="1096.5,-74 1031.5,-74 1031.5,-55 1096.5,-55 1096.5,-74"/>
<text text-anchor="middle" x="1064" y="-62" font-family="Helvetica,sans-Serif" font-size="10.00">stdexcept</text>
</a>
</g>
</g>
<!-- Node26&#45;&gt;Node27 -->
<g id="edge42_Node000026_Node000027" class="edge">
<title>Node26&#45;&gt;Node27</title>
<g id="a_edge42_Node000026_Node000027"><a xlink:title=" ">
<path fill="none" stroke="#63b8ff" d="M1064,-109.75C1064,-102.8 1064,-92.85 1064,-84.13"/>
<polygon fill="#63b8ff" stroke="#63b8ff" points="1067.5,-84.09 1064,-74.09 1060.5,-84.09 1067.5,-84.09"/>
</a>
</g>
</g>
<!-- Node28&#45;&gt;Node6 -->
<g id="edge51_Node000028_Node000006" class="edge">
<title>Node28&#45;&gt;Node6</title>
<g id="a_edge51_Node000028_Node000006"><a xlink:title=" ">
<path fill="none" stroke="#63b8ff" d="M1251.61,-54.98C1225.2,-46.13 1183.65,-32.19 1154.11,-22.28"/>
<polygon fill="#63b8ff" stroke="#63b8ff" points="1155.18,-18.94 1144.58,-19.08 1152.95,-25.58 1155.18,-18.94"/>
</a>
</g>
</g>
<!-- Node28&#45;&gt;Node11 -->
<g id="edge52_Node000028_Node000011" class="edge">
<title>Node28&#45;&gt;Node11</title>
<g id="a_edge52_Node000028_Node000011"><a xlink:title=" ">
<path fill="none" stroke="#63b8ff" d="M1236.88,-55C1199.09,-46.86 1140.66,-33.97 1081.25,-19.23"/>
<polygon fill="#63b8ff" stroke="#63b8ff" points="1081.87,-15.78 1071.32,-16.75 1080.17,-22.57 1081.87,-15.78"/>
</a>
</g>
</g>
<!-- Node28&#45;&gt;Node25 -->
<g id="edge50_Node000028_Node000025" class="edge">
<title>Node28&#45;&gt;Node25</title>
<g id="a_edge50_Node000028_Node000025"><a xlink:title=" ">
<path fill="none" stroke="#63b8ff" d="M1263.83,-54.98C1251.23,-46.84 1232,-34.41 1217.06,-24.76"/>
<polygon fill="#63b8ff" stroke="#63b8ff" points="1218.71,-21.66 1208.41,-19.17 1214.91,-27.54 1218.71,-21.66"/>
</a>
</g>
</g>
<!-- Node29 -->
<g id="Node000029" class="node">
<title>Node29</title>
<g id="a_Node000029"><a xlink:title=" ">
<polygon fill="#e0e0e0" stroke="#999999" points="1291,-19 1241,-19 1241,0 1291,0 1291,-19"/>
<text text-anchor="middle" x="1266" y="-7" font-family="Helvetica,sans-Serif" font-size="10.00">chrono</text>
</a>
</g>
</g>
<!-- Node28&#45;&gt;Node29 -->
<g id="edge48_Node000028_Node000029" class="edge">
<title>Node28&#45;&gt;Node29</title>
<g id="a_edge48_Node000028_Node000029"><a xlink:title=" ">
<path fill="none" stroke="#63b8ff" d="M1275.18,-54.75C1273.74,-47.8 1271.68,-37.85 1269.87,-29.13"/>
<polygon fill="#63b8ff" stroke="#63b8ff" points="1273.24,-28.17 1267.78,-19.09 1266.39,-29.59 1273.24,-28.17"/>
</a>
</g>
</g>
<!-- Node30 -->
<g id="Node000030" class="node">
<title>Node30</title>
<g id="a_Node000030"><a xlink:title=" ">
<polygon fill="#e0e0e0" stroke="#999999" points="1362.5,-19 1309.5,-19 1309.5,0 1362.5,0 1362.5,-19"/>
<text text-anchor="middle" x="1336" y="-7" font-family="Helvetica,sans-Serif" font-size="10.00">cstdarg</text>
</a>
</g>
</g>
<!-- Node28&#45;&gt;Node30 -->
<g id="edge49_Node000028_Node000030" class="edge">
<title>Node28&#45;&gt;Node30</title>
<g id="a_edge49_Node000028_Node000030"><a xlink:title=" ">
<path fill="none" stroke="#63b8ff" d="M1286.48,-54.98C1295.2,-47.15 1308.34,-35.34 1318.9,-25.86"/>
<polygon fill="#63b8ff" stroke="#63b8ff" points="1321.25,-28.46 1326.35,-19.17 1316.57,-23.25 1321.25,-28.46"/>
</a>
</g>
</g>
<!-- Node31 -->
<g id="Node000031" class="node">
<title>Node31</title>
<g id="a_Node000031"><a xlink:title=" ">
<polygon fill="#e0e0e0" stroke="#999999" points="1429,-19 1381,-19 1381,0 1429,0 1429,-19"/>
<text text-anchor="middle" x="1405" y="-7" font-family="Helvetica,sans-Serif" font-size="10.00">mutex</text>
</a>
</g>
</g>
<!-- Node28&#45;&gt;Node31 -->
<g id="edge53_Node000028_Node000031" class="edge">
<title>Node28&#45;&gt;Node31</title>
<g id="a_edge53_Node000028_Node000031"><a xlink:title=" ">
<path fill="none" stroke="#63b8ff" d="M1297.57,-54.98C1318.43,-46.34 1350.97,-32.87 1374.77,-23.02"/>
<polygon fill="#63b8ff" stroke="#63b8ff" points="1376.16,-26.23 1384.06,-19.17 1373.48,-19.76 1376.16,-26.23"/>
</a>
</g>
</g>
</g>
</svg>
