<?xml version="1.0" encoding="UTF-8" standalone="no"?>
<!DOCTYPE svg PUBLIC "-//W3C//DTD SVG 1.1//EN"
 "http://www.w3.org/Graphics/SVG/1.1/DTD/svg11.dtd">
<!-- Generated by graphviz version 2.43.0 (0)
 -->
<!-- Title: src/lib/mapGeneration/mapGeneration.cpp Pages: 1 -->
<svg width="1298pt" height="203pt"
 viewBox="0.00 0.00 1297.50 203.00" xmlns="http://www.w3.org/2000/svg" xmlns:xlink="http://www.w3.org/1999/xlink">
<g id="graph0" class="graph" transform="scale(1 1) rotate(0) translate(4 199)">
<title>src/lib/mapGeneration/mapGeneration.cpp</title>
<!-- Node1 -->
<g id="Node000001" class="node">
<title>Node1</title>
<g id="a_Node000001"><a xlink:title=" ">
<polygon fill="#999999" stroke="#666666" points="776.5,-195 651.5,-195 651.5,-165 776.5,-165 776.5,-195"/>
<text text-anchor="start" x="659.5" y="-183" font-family="Helvetica,sans-Serif" font-size="10.00">src/lib/mapGeneration</text>
<text text-anchor="middle" x="714" y="-172" font-family="Helvetica,sans-Serif" font-size="10.00">/mapGeneration.cpp</text>
</a>
</g>
</g>
<!-- Node2 -->
<g id="Node000002" class="node">
<title>Node2</title>
<g id="a_Node000002"><a xlink:href="mapGeneration_8hpp.html" target="_top" xlink:title=" ">
<polygon fill="white" stroke="#666666" points="770.5,-129 657.5,-129 657.5,-110 770.5,-110 770.5,-129"/>
<text text-anchor="middle" x="714" y="-117" font-family="Helvetica,sans-Serif" font-size="10.00">mapGeneration.hpp</text>
</a>
</g>
</g>
<!-- Node1&#45;&gt;Node2 -->
<g id="edge1_Node000001_Node000002" class="edge">
<title>Node1&#45;&gt;Node2</title>
<g id="a_edge1_Node000001_Node000002"><a xlink:title=" ">
<path fill="none" stroke="#63b8ff" d="M714,-164.84C714,-157.21 714,-147.7 714,-139.45"/>
<polygon fill="#63b8ff" stroke="#63b8ff" points="717.5,-139.27 714,-129.27 710.5,-139.27 717.5,-139.27"/>
</a>
</g>
</g>
<!-- Node3 -->
<g id="Node000003" class="node">
<title>Node3</title>
<g id="a_Node000003"><a xlink:href="uvgvpcc_8hpp.html" target="_top" xlink:title=" ">
<polygon fill="white" stroke="#666666" points="771,-74 649,-74 649,-55 771,-55 771,-74"/>
<text text-anchor="middle" x="710" y="-62" font-family="Helvetica,sans-Serif" font-size="10.00">uvgvpcc/uvgvpcc.hpp</text>
</a>
</g>
</g>
<!-- Node1&#45;&gt;Node3 -->
<g id="edge33_Node000001_Node000003" class="edge">
<title>Node1&#45;&gt;Node3</title>
<g id="a_edge33_Node000001_Node000003"><a xlink:title=" ">
<path fill="none" stroke="#63b8ff" d="M684.75,-164.95C670.91,-156.6 655.74,-144.58 648,-129 637.79,-108.45 660.45,-90.31 681.19,-78.74"/>
<polygon fill="#63b8ff" stroke="#63b8ff" points="682.92,-81.79 690.16,-74.05 679.67,-75.58 682.92,-81.79"/>
</a>
</g>
</g>
<!-- Node4 -->
<g id="Node000004" class="node">
<title>Node4</title>
<g id="a_Node000004"><a xlink:title=" ">
<polygon fill="#e0e0e0" stroke="#999999" points="671.5,-19 618.5,-19 618.5,0 671.5,0 671.5,-19"/>
<text text-anchor="middle" x="645" y="-7" font-family="Helvetica,sans-Serif" font-size="10.00">cstddef</text>
</a>
</g>
</g>
<!-- Node1&#45;&gt;Node4 -->
<g id="edge18_Node000001_Node000004" class="edge">
<title>Node1&#45;&gt;Node4</title>
<g id="a_edge18_Node000001_Node000004"><a xlink:title=" ">
<path fill="none" stroke="#63b8ff" d="M681.3,-164.81C666.58,-156.61 650.61,-144.76 642,-129 624.71,-97.36 632.49,-53.54 639.12,-29.02"/>
<polygon fill="#63b8ff" stroke="#63b8ff" points="642.54,-29.8 642,-19.22 635.82,-27.83 642.54,-29.8"/>
</a>
</g>
</g>
<!-- Node5 -->
<g id="Node000005" class="node">
<title>Node5</title>
<g id="a_Node000005"><a xlink:title=" ">
<polygon fill="#e0e0e0" stroke="#999999" points="110,-19 60,-19 60,0 110,0 110,-19"/>
<text text-anchor="middle" x="85" y="-7" font-family="Helvetica,sans-Serif" font-size="10.00">cstdint</text>
</a>
</g>
</g>
<!-- Node1&#45;&gt;Node5 -->
<g id="edge19_Node000001_Node000005" class="edge">
<title>Node1&#45;&gt;Node5</title>
<g id="a_edge19_Node000001_Node000005"><a xlink:title=" ">
<path fill="none" stroke="#63b8ff" d="M651.47,-179.06C543.95,-176.68 319.79,-160.69 156,-74 133.52,-62.1 112.42,-41.58 99.16,-27.09"/>
<polygon fill="#63b8ff" stroke="#63b8ff" points="101.56,-24.52 92.31,-19.37 96.33,-29.17 101.56,-24.52"/>
</a>
</g>
</g>
<!-- Node6 -->
<g id="Node000006" class="node">
<title>Node6</title>
<g id="a_Node000006"><a xlink:title=" ">
<polygon fill="#e0e0e0" stroke="#999999" points="538,-19 478,-19 478,0 538,0 538,-19"/>
<text text-anchor="middle" x="508" y="-7" font-family="Helvetica,sans-Serif" font-size="10.00">iostream</text>
</a>
</g>
</g>
<!-- Node1&#45;&gt;Node6 -->
<g id="edge22_Node000001_Node000006" class="edge">
<title>Node1&#45;&gt;Node6</title>
<g id="a_edge22_Node000001_Node000006"><a xlink:title=" ">
<path fill="none" stroke="#63b8ff" d="M677.86,-164.9C657.96,-156.19 633.44,-143.85 614,-129 574.52,-98.84 538.15,-52.51 520.04,-27.65"/>
<polygon fill="#63b8ff" stroke="#63b8ff" points="522.69,-25.35 514.02,-19.26 517,-29.43 522.69,-25.35"/>
</a>
</g>
</g>
<!-- Node7 -->
<g id="Node000007" class="node">
<title>Node7</title>
<g id="a_Node000007"><a xlink:title=" ">
<polygon fill="#e0e0e0" stroke="#999999" points="1158,-19 1100,-19 1100,0 1158,0 1158,-19"/>
<text text-anchor="middle" x="1129" y="-7" font-family="Helvetica,sans-Serif" font-size="10.00">memory</text>
</a>
</g>
</g>
<!-- Node1&#45;&gt;Node7 -->
<g id="edge23_Node000001_Node000007" class="edge">
<title>Node1&#45;&gt;Node7</title>
<g id="a_edge23_Node000001_Node000007"><a xlink:title=" ">
<path fill="none" stroke="#63b8ff" d="M736.5,-164.86C749.89,-155.72 766.62,-142.95 779,-129 804.4,-100.38 791.08,-76.1 823,-55 920.62,9.51 970.05,-37.51 1089.71,-18.99"/>
<polygon fill="#63b8ff" stroke="#63b8ff" points="1090.31,-22.44 1099.59,-17.34 1089.15,-15.54 1090.31,-22.44"/>
</a>
</g>
</g>
<!-- Node11 -->
<g id="Node000011" class="node">
<title>Node11</title>
<g id="a_Node000011"><a xlink:title=" ">
<polygon fill="#e0e0e0" stroke="#999999" points="600,-19 556,-19 556,0 600,0 600,-19"/>
<text text-anchor="middle" x="578" y="-7" font-family="Helvetica,sans-Serif" font-size="10.00">string</text>
</a>
</g>
</g>
<!-- Node1&#45;&gt;Node11 -->
<g id="edge25_Node000001_Node000011" class="edge">
<title>Node1&#45;&gt;Node11</title>
<g id="a_edge25_Node000001_Node000011"><a xlink:title=" ">
<path fill="none" stroke="#63b8ff" d="M680.77,-164.87C664.09,-156.44 644.6,-144.37 631,-129 604.58,-99.16 589.37,-54 582.49,-28.93"/>
<polygon fill="#63b8ff" stroke="#63b8ff" points="585.88,-28.03 579.98,-19.23 579.1,-29.79 585.88,-28.03"/>
</a>
</g>
</g>
<!-- Node12 -->
<g id="Node000012" class="node">
<title>Node12</title>
<g id="a_Node000012"><a xlink:title=" ">
<polygon fill="#e0e0e0" stroke="#999999" points="1223.5,-19 1176.5,-19 1176.5,0 1223.5,0 1223.5,-19"/>
<text text-anchor="middle" x="1200" y="-7" font-family="Helvetica,sans-Serif" font-size="10.00">vector</text>
</a>
</g>
</g>
<!-- Node1&#45;&gt;Node12 -->
<g id="edge26_Node000001_Node000012" class="edge">
<title>Node1&#45;&gt;Node12</title>
<g id="a_edge26_Node000001_Node000012"><a xlink:title=" ">
<path fill="none" stroke="#63b8ff" d="M739.58,-164.92C767.57,-149.91 814.04,-126.13 856,-110 914.06,-87.69 1091.51,-39.47 1166.25,-19.47"/>
<polygon fill="#63b8ff" stroke="#63b8ff" points="1167.33,-22.81 1176.09,-16.84 1165.53,-16.04 1167.33,-22.81"/>
</a>
</g>
</g>
<!-- Node15 -->
<g id="Node000015" class="node">
<title>Node15</title>
<g id="a_Node000015"><a xlink:title=" ">
<polygon fill="#e0e0e0" stroke="#999999" points="929,-129 865,-129 865,-110 929,-110 929,-129"/>
<text text-anchor="middle" x="897" y="-117" font-family="Helvetica,sans-Serif" font-size="10.00">algorithm</text>
</a>
</g>
</g>
<!-- Node1&#45;&gt;Node15 -->
<g id="edge14_Node000001_Node000015" class="edge">
<title>Node1&#45;&gt;Node15</title>
<g id="a_edge14_Node000001_Node000015"><a xlink:title=" ">
<path fill="none" stroke="#63b8ff" d="M757.83,-164.99C789.14,-154.98 830.78,-141.67 860.33,-132.22"/>
<polygon fill="#63b8ff" stroke="#63b8ff" points="861.78,-135.43 870.24,-129.05 859.65,-128.76 861.78,-135.43"/>
</a>
</g>
</g>
<!-- Node16 -->
<g id="Node000016" class="node">
<title>Node16</title>
<g id="a_Node000016"><a xlink:title=" ">
<polygon fill="#e0e0e0" stroke="#999999" points="42,-19 0,-19 0,0 42,0 42,-19"/>
<text text-anchor="middle" x="21" y="-7" font-family="Helvetica,sans-Serif" font-size="10.00">array</text>
</a>
</g>
</g>
<!-- Node1&#45;&gt;Node16 -->
<g id="edge15_Node000001_Node000016" class="edge">
<title>Node1&#45;&gt;Node16</title>
<g id="a_edge15_Node000001_Node000016"><a xlink:title=" ">
<path fill="none" stroke="#63b8ff" d="M651.44,-178.86C560.05,-177.22 385.42,-168.56 243,-129 162.67,-106.69 78.75,-51.79 41.22,-25.29"/>
<polygon fill="#63b8ff" stroke="#63b8ff" points="42.88,-22.17 32.71,-19.2 38.81,-27.87 42.88,-22.17"/>
</a>
</g>
</g>
<!-- Node17 -->
<g id="Node000017" class="node">
<title>Node17</title>
<g id="a_Node000017"><a xlink:title=" ">
<polygon fill="#e0e0e0" stroke="#999999" points="999,-129 947,-129 947,-110 999,-110 999,-129"/>
<text text-anchor="middle" x="973" y="-117" font-family="Helvetica,sans-Serif" font-size="10.00">cassert</text>
</a>
</g>
</g>
<!-- Node1&#45;&gt;Node17 -->
<g id="edge16_Node000001_Node000017" class="edge">
<title>Node1&#45;&gt;Node17</title>
<g id="a_edge16_Node000001_Node000017"><a xlink:title=" ">
<path fill="none" stroke="#63b8ff" d="M776.83,-165.3C819.4,-155.95 877.19,-143.1 936.69,-129.28"/>
<polygon fill="#63b8ff" stroke="#63b8ff" points="937.69,-132.63 946.64,-126.96 936.11,-125.82 937.69,-132.63"/>
</a>
</g>
</g>
<!-- Node18 -->
<g id="Node000018" class="node">
<title>Node18</title>
<g id="a_Node000018"><a xlink:title=" ">
<polygon fill="#e0e0e0" stroke="#999999" points="1064.5,-129 1017.5,-129 1017.5,-110 1064.5,-110 1064.5,-129"/>
<text text-anchor="middle" x="1041" y="-117" font-family="Helvetica,sans-Serif" font-size="10.00">cmath</text>
</a>
</g>
</g>
<!-- Node1&#45;&gt;Node18 -->
<g id="edge17_Node000001_Node000018" class="edge">
<title>Node1&#45;&gt;Node18</title>
<g id="a_edge17_Node000001_Node000018"><a xlink:title=" ">
<path fill="none" stroke="#63b8ff" d="M776.52,-169.92C834.02,-161.22 921.82,-147.04 1007.38,-128.97"/>
<polygon fill="#63b8ff" stroke="#63b8ff" points="1008.21,-132.37 1017.26,-126.87 1006.75,-125.53 1008.21,-132.37"/>
</a>
</g>
</g>
<!-- Node19 -->
<g id="Node000019" class="node">
<title>Node19</title>
<g id="a_Node000019"><a xlink:title=" ">
<polygon fill="#e0e0e0" stroke="#999999" points="1133,-129 1083,-129 1083,-110 1133,-110 1133,-129"/>
<text text-anchor="middle" x="1108" y="-117" font-family="Helvetica,sans-Serif" font-size="10.00">cstring</text>
</a>
</g>
</g>
<!-- Node1&#45;&gt;Node19 -->
<g id="edge20_Node000001_Node000019" class="edge">
<title>Node1&#45;&gt;Node19</title>
<g id="a_edge20_Node000001_Node000019"><a xlink:title=" ">
<path fill="none" stroke="#63b8ff" d="M776.77,-172.34C846.76,-164.46 963.46,-149.94 1072.93,-129.03"/>
<polygon fill="#63b8ff" stroke="#63b8ff" points="1073.66,-132.45 1082.82,-127.11 1072.33,-125.58 1073.66,-132.45"/>
</a>
</g>
</g>
<!-- Node20 -->
<g id="Node000020" class="node">
<title>Node20</title>
<g id="a_Node000020"><a xlink:title=" ">
<polygon fill="#e0e0e0" stroke="#999999" points="1206.5,-129 1151.5,-129 1151.5,-110 1206.5,-110 1206.5,-129"/>
<text text-anchor="middle" x="1179" y="-117" font-family="Helvetica,sans-Serif" font-size="10.00">fstream</text>
</a>
</g>
</g>
<!-- Node1&#45;&gt;Node20 -->
<g id="edge21_Node000001_Node000020" class="edge">
<title>Node1&#45;&gt;Node20</title>
<g id="a_edge21_Node000001_Node000020"><a xlink:title=" ">
<path fill="none" stroke="#63b8ff" d="M776.68,-173.84C858.31,-166.65 1005.58,-152.02 1141.04,-128.98"/>
<polygon fill="#63b8ff" stroke="#63b8ff" points="1141.92,-132.38 1151.19,-127.23 1140.74,-125.48 1141.92,-132.38"/>
</a>
</g>
</g>
<!-- Node21 -->
<g id="Node000021" class="node">
<title>Node21</title>
<g id="a_Node000021"><a xlink:title=" ">
<polygon fill="#e0e0e0" stroke="#999999" points="1289.5,-129 1224.5,-129 1224.5,-110 1289.5,-110 1289.5,-129"/>
<text text-anchor="middle" x="1257" y="-117" font-family="Helvetica,sans-Serif" font-size="10.00">stdexcept</text>
</a>
</g>
</g>
<!-- Node1&#45;&gt;Node21 -->
<g id="edge24_Node000001_Node000021" class="edge">
<title>Node1&#45;&gt;Node21</title>
<g id="a_edge24_Node000001_Node000021"><a xlink:title=" ">
<path fill="none" stroke="#63b8ff" d="M776.88,-174.87C870.25,-168.27 1051.25,-153.66 1214.17,-129.14"/>
<polygon fill="#63b8ff" stroke="#63b8ff" points="1215.02,-132.55 1224.38,-127.58 1213.97,-125.63 1215.02,-132.55"/>
</a>
</g>
</g>
<!-- Node22 -->
<g id="Node000022" class="node">
<title>Node22</title>
<g id="a_Node000022"><a xlink:href="log_8hpp.html" target="_top" xlink:title=" ">
<polygon fill="white" stroke="#666666" points="437,-74 341,-74 341,-55 437,-55 437,-74"/>
<text text-anchor="middle" x="389" y="-62" font-family="Helvetica,sans-Serif" font-size="10.00">uvgvpcc/log.hpp</text>
</a>
</g>
</g>
<!-- Node1&#45;&gt;Node22 -->
<g id="edge27_Node000001_Node000022" class="edge">
<title>Node1&#45;&gt;Node22</title>
<g id="a_edge27_Node000001_Node000022"><a xlink:title=" ">
<path fill="none" stroke="#63b8ff" d="M651.37,-169.94C606.94,-162.25 546.47,-149.19 496,-129 463.68,-116.07 429.65,-94.26 408.87,-79.87"/>
<polygon fill="#63b8ff" stroke="#63b8ff" points="410.76,-76.91 400.56,-74.02 406.73,-82.64 410.76,-76.91"/>
</a>
</g>
</g>
<!-- Node26 -->
<g id="Node000026" class="node">
<title>Node26</title>
<g id="a_Node000026"><a xlink:href="utils_8hpp.html" target="_top" xlink:title=" ">
<polygon fill="white" stroke="#666666" points="248.5,-74 165.5,-74 165.5,-55 248.5,-55 248.5,-74"/>
<text text-anchor="middle" x="207" y="-62" font-family="Helvetica,sans-Serif" font-size="10.00">utils/utils.hpp</text>
</a>
</g>
</g>
<!-- Node1&#45;&gt;Node26 -->
<g id="edge34_Node000001_Node000026" class="edge">
<title>Node1&#45;&gt;Node26</title>
<g id="a_edge34_Node000001_Node000026"><a xlink:title=" ">
<path fill="none" stroke="#63b8ff" d="M651.49,-167.94C599.11,-158.42 522.45,-143.9 456,-129 382.24,-112.46 297.03,-90 247.85,-76.7"/>
<polygon fill="#63b8ff" stroke="#63b8ff" points="248.48,-73.24 237.92,-74 246.65,-80 248.48,-73.24"/>
</a>
</g>
</g>
<!-- Node2&#45;&gt;Node3 -->
<g id="edge2_Node000002_Node000003" class="edge">
<title>Node2&#45;&gt;Node3</title>
<g id="a_edge2_Node000002_Node000003"><a xlink:title=" ">
<path fill="none" stroke="#63b8ff" d="M713.34,-109.75C712.82,-102.8 712.06,-92.85 711.41,-84.13"/>
<polygon fill="#63b8ff" stroke="#63b8ff" points="714.89,-83.8 710.65,-74.09 707.91,-84.32 714.89,-83.8"/>
</a>
</g>
</g>
<!-- Node3&#45;&gt;Node4 -->
<g id="edge3_Node000003_Node000004" class="edge">
<title>Node3&#45;&gt;Node4</title>
<g id="a_edge3_Node000003_Node000004"><a xlink:title=" ">
<path fill="none" stroke="#63b8ff" d="M699.56,-54.98C689.85,-47.07 675.18,-35.11 663.5,-25.58"/>
<polygon fill="#63b8ff" stroke="#63b8ff" points="665.6,-22.78 655.63,-19.17 661.17,-28.2 665.6,-22.78"/>
</a>
</g>
</g>
<!-- Node3&#45;&gt;Node5 -->
<g id="edge4_Node000003_Node000005" class="edge">
<title>Node3&#45;&gt;Node5</title>
<g id="a_edge4_Node000003_Node000005"><a xlink:title=" ">
<path fill="none" stroke="#63b8ff" d="M648.77,-62.31C542.8,-59.5 318.34,-50.27 120.17,-18.9"/>
<polygon fill="#63b8ff" stroke="#63b8ff" points="120.58,-15.42 110.15,-17.29 119.47,-22.33 120.58,-15.42"/>
</a>
</g>
</g>
<!-- Node3&#45;&gt;Node6 -->
<g id="edge5_Node000003_Node000006" class="edge">
<title>Node3&#45;&gt;Node6</title>
<g id="a_edge5_Node000003_Node000006"><a xlink:title=" ">
<path fill="none" stroke="#63b8ff" d="M677.55,-54.98C642.23,-45.72 585.73,-30.89 547.77,-20.93"/>
<polygon fill="#63b8ff" stroke="#63b8ff" points="548.63,-17.54 538.07,-18.39 546.85,-24.31 548.63,-17.54"/>
</a>
</g>
</g>
<!-- Node3&#45;&gt;Node7 -->
<g id="edge6_Node000003_Node000007" class="edge">
<title>Node3&#45;&gt;Node7</title>
<g id="a_edge6_Node000003_Node000007"><a xlink:title=" ">
<path fill="none" stroke="#63b8ff" d="M771.03,-56.54C865.78,-45.71 1041.68,-25.52 1089.64,-18.88"/>
<polygon fill="#63b8ff" stroke="#63b8ff" points="1090.23,-22.34 1099.6,-17.39 1089.19,-15.41 1090.23,-22.34"/>
</a>
</g>
</g>
<!-- Node8 -->
<g id="Node000008" class="node">
<title>Node8</title>
<g id="a_Node000008"><a xlink:title=" ">
<polygon fill="#e0e0e0" stroke="#999999" points="736.5,-19 689.5,-19 689.5,0 736.5,0 736.5,-19"/>
<text text-anchor="middle" x="713" y="-7" font-family="Helvetica,sans-Serif" font-size="10.00">queue</text>
</a>
</g>
</g>
<!-- Node3&#45;&gt;Node8 -->
<g id="edge7_Node000003_Node000008" class="edge">
<title>Node3&#45;&gt;Node8</title>
<g id="a_edge7_Node000003_Node000008"><a xlink:title=" ">
<path fill="none" stroke="#63b8ff" d="M710.5,-54.75C710.89,-47.8 711.45,-37.85 711.95,-29.13"/>
<polygon fill="#63b8ff" stroke="#63b8ff" points="715.44,-29.27 712.51,-19.09 708.45,-28.88 715.44,-29.27"/>
</a>
</g>
</g>
<!-- Node9 -->
<g id="Node000009" class="node">
<title>Node9</title>
<g id="a_Node000009"><a xlink:title=" ">
<polygon fill="#e0e0e0" stroke="#999999" points="825.5,-19 754.5,-19 754.5,0 825.5,0 825.5,-19"/>
<text text-anchor="middle" x="790" y="-7" font-family="Helvetica,sans-Serif" font-size="10.00">semaphore</text>
</a>
</g>
</g>
<!-- Node3&#45;&gt;Node9 -->
<g id="edge8_Node000003_Node000009" class="edge">
<title>Node3&#45;&gt;Node9</title>
<g id="a_edge8_Node000003_Node000009"><a xlink:title=" ">
<path fill="none" stroke="#63b8ff" d="M722.85,-54.98C735.14,-46.84 753.91,-34.41 768.48,-24.76"/>
<polygon fill="#63b8ff" stroke="#63b8ff" points="770.51,-27.61 776.91,-19.17 766.64,-21.78 770.51,-27.61"/>
</a>
</g>
</g>
<!-- Node10 -->
<g id="Node000010" class="node">
<title>Node10</title>
<g id="a_Node000010"><a xlink:title=" ">
<polygon fill="#e0e0e0" stroke="#999999" points="460,-19 404,-19 404,0 460,0 460,-19"/>
<text text-anchor="middle" x="432" y="-7" font-family="Helvetica,sans-Serif" font-size="10.00">sstream</text>
</a>
</g>
</g>
<!-- Node3&#45;&gt;Node10 -->
<g id="edge9_Node000003_Node000010" class="edge">
<title>Node3&#45;&gt;Node10</title>
<g id="a_edge9_Node000003_Node000010"><a xlink:title=" ">
<path fill="none" stroke="#63b8ff" d="M660.03,-54.92C613.4,-46.77 541.63,-33.86 470.31,-19.2"/>
<polygon fill="#63b8ff" stroke="#63b8ff" points="470.76,-15.72 460.25,-17.12 469.34,-22.58 470.76,-15.72"/>
</a>
</g>
</g>
<!-- Node3&#45;&gt;Node11 -->
<g id="edge10_Node000003_Node000011" class="edge">
<title>Node3&#45;&gt;Node11</title>
<g id="a_edge10_Node000003_Node000011"><a xlink:title=" ">
<path fill="none" stroke="#63b8ff" d="M688.79,-54.98C667.27,-46.34 633.72,-32.87 609.17,-23.02"/>
<polygon fill="#63b8ff" stroke="#63b8ff" points="610.18,-19.65 599.59,-19.17 607.57,-26.14 610.18,-19.65"/>
</a>
</g>
</g>
<!-- Node3&#45;&gt;Node12 -->
<g id="edge11_Node000003_Node000012" class="edge">
<title>Node3&#45;&gt;Node12</title>
<g id="a_edge11_Node000003_Node000012"><a xlink:title=" ">
<path fill="none" stroke="#63b8ff" d="M771.01,-58.74C873.43,-50.56 1076.7,-33.47 1166.45,-18.76"/>
<polygon fill="#63b8ff" stroke="#63b8ff" points="1167.04,-22.21 1176.3,-17.07 1165.86,-15.31 1167.04,-22.21"/>
</a>
</g>
</g>
<!-- Node13 -->
<g id="Node000013" class="node">
<title>Node13</title>
<g id="a_Node000013"><a xlink:title=" ">
<polygon fill="#e0e0e0" stroke="#999999" points="936,-19 844,-19 844,0 936,0 936,-19"/>
<text text-anchor="middle" x="890" y="-7" font-family="Helvetica,sans-Serif" font-size="10.00">../utils/utils.hpp</text>
</a>
</g>
</g>
<!-- Node3&#45;&gt;Node13 -->
<g id="edge12_Node000003_Node000013" class="edge">
<title>Node3&#45;&gt;Node13</title>
<g id="a_edge12_Node000003_Node000013"><a xlink:title=" ">
<path fill="none" stroke="#63b8ff" d="M738.92,-54.98C769.27,-46.05 817.17,-31.94 850.88,-22.02"/>
<polygon fill="#63b8ff" stroke="#63b8ff" points="852.25,-25.26 860.85,-19.08 850.27,-18.55 852.25,-25.26"/>
</a>
</g>
</g>
<!-- Node14 -->
<g id="Node000014" class="node">
<title>Node14</title>
<g id="a_Node000014"><a xlink:title=" ">
<polygon fill="#e0e0e0" stroke="#999999" points="1081.5,-19 954.5,-19 954.5,0 1081.5,0 1081.5,-19"/>
<text text-anchor="middle" x="1018" y="-7" font-family="Helvetica,sans-Serif" font-size="10.00">../utils/parameters.hpp</text>
</a>
</g>
</g>
<!-- Node3&#45;&gt;Node14 -->
<g id="edge13_Node000003_Node000014" class="edge">
<title>Node3&#45;&gt;Node14</title>
<g id="a_edge13_Node000003_Node000014"><a xlink:title=" ">
<path fill="none" stroke="#63b8ff" d="M759.49,-54.98C813.63,-45.67 900.4,-30.74 958.28,-20.78"/>
<polygon fill="#63b8ff" stroke="#63b8ff" points="959.12,-24.18 968.38,-19.04 957.93,-17.28 959.12,-24.18"/>
</a>
</g>
</g>
<!-- Node22&#45;&gt;Node6 -->
<g id="edge31_Node000022_Node000006" class="edge">
<title>Node22&#45;&gt;Node6</title>
<g id="a_edge31_Node000022_Node000006"><a xlink:title=" ">
<path fill="none" stroke="#63b8ff" d="M408.12,-54.98C427.35,-46.42 457.23,-33.11 479.31,-23.28"/>
<polygon fill="#63b8ff" stroke="#63b8ff" points="480.82,-26.44 488.53,-19.17 477.97,-20.04 480.82,-26.44"/>
</a>
</g>
</g>
<!-- Node22&#45;&gt;Node11 -->
<g id="edge32_Node000022_Node000011" class="edge">
<title>Node22&#45;&gt;Node11</title>
<g id="a_edge32_Node000022_Node000011"><a xlink:title=" ">
<path fill="none" stroke="#63b8ff" d="M419.37,-54.98C454.13,-45.24 510.81,-29.34 546.17,-19.43"/>
<polygon fill="#63b8ff" stroke="#63b8ff" points="547.29,-22.75 555.98,-16.68 545.4,-16.01 547.29,-22.75"/>
</a>
</g>
</g>
<!-- Node23 -->
<g id="Node000023" class="node">
<title>Node23</title>
<g id="a_Node000023"><a xlink:title=" ">
<polygon fill="#e0e0e0" stroke="#999999" points="386,-19 336,-19 336,0 386,0 386,-19"/>
<text text-anchor="middle" x="361" y="-7" font-family="Helvetica,sans-Serif" font-size="10.00">chrono</text>
</a>
</g>
</g>
<!-- Node22&#45;&gt;Node23 -->
<g id="edge28_Node000022_Node000023" class="edge">
<title>Node22&#45;&gt;Node23</title>
<g id="a_edge28_Node000022_Node000023"><a xlink:title=" ">
<path fill="none" stroke="#63b8ff" d="M384.38,-54.75C380.54,-47.49 374.98,-36.95 370.24,-27.98"/>
<polygon fill="#63b8ff" stroke="#63b8ff" points="373.3,-26.3 365.54,-19.09 367.11,-29.57 373.3,-26.3"/>
</a>
</g>
</g>
<!-- Node24 -->
<g id="Node000024" class="node">
<title>Node24</title>
<g id="a_Node000024"><a xlink:title=" ">
<polygon fill="#e0e0e0" stroke="#999999" points="317.5,-19 264.5,-19 264.5,0 317.5,0 317.5,-19"/>
<text text-anchor="middle" x="291" y="-7" font-family="Helvetica,sans-Serif" font-size="10.00">cstdarg</text>
</a>
</g>
</g>
<!-- Node22&#45;&gt;Node24 -->
<g id="edge29_Node000022_Node000024" class="edge">
<title>Node22&#45;&gt;Node24</title>
<g id="a_edge29_Node000022_Node000024"><a xlink:title=" ">
<path fill="none" stroke="#63b8ff" d="M373.25,-54.98C357.77,-46.61 333.91,-33.7 315.86,-23.95"/>
<polygon fill="#63b8ff" stroke="#63b8ff" points="317.49,-20.85 307.03,-19.17 314.16,-27.01 317.49,-20.85"/>
</a>
</g>
</g>
<!-- Node25 -->
<g id="Node000025" class="node">
<title>Node25</title>
<g id="a_Node000025"><a xlink:title=" ">
<polygon fill="#e0e0e0" stroke="#999999" points="246,-19 190,-19 190,0 246,0 246,-19"/>
<text text-anchor="middle" x="218" y="-7" font-family="Helvetica,sans-Serif" font-size="10.00">iomanip</text>
</a>
</g>
</g>
<!-- Node22&#45;&gt;Node25 -->
<g id="edge30_Node000022_Node000025" class="edge">
<title>Node22&#45;&gt;Node25</title>
<g id="a_edge30_Node000022_Node000025"><a xlink:title=" ">
<path fill="none" stroke="#63b8ff" d="M361.53,-54.98C332.82,-46.09 287.58,-32.07 255.58,-22.15"/>
<polygon fill="#63b8ff" stroke="#63b8ff" points="256.28,-18.7 245.69,-19.08 254.2,-25.39 256.28,-18.7"/>
</a>
</g>
</g>
<!-- Node26&#45;&gt;Node5 -->
<g id="edge36_Node000026_Node000005" class="edge">
<title>Node26&#45;&gt;Node5</title>
<g id="a_edge36_Node000026_Node000005"><a xlink:title=" ">
<path fill="none" stroke="#63b8ff" d="M187.4,-54.98C167.68,-46.42 137.05,-33.11 114.42,-23.28"/>
<polygon fill="#63b8ff" stroke="#63b8ff" points="115.52,-19.94 104.96,-19.17 112.74,-26.37 115.52,-19.94"/>
</a>
</g>
</g>
<!-- Node26&#45;&gt;Node10 -->
<g id="edge38_Node000026_Node000010" class="edge">
<title>Node26&#45;&gt;Node10</title>
<g id="a_edge38_Node000026_Node000010"><a xlink:title=" ">
<path fill="none" stroke="#63b8ff" d="M243.15,-54.98C284.46,-45.25 351.79,-29.39 393.9,-19.47"/>
<polygon fill="#63b8ff" stroke="#63b8ff" points="394.84,-22.85 403.77,-17.15 393.24,-16.03 394.84,-22.85"/>
</a>
</g>
</g>
<!-- Node26&#45;&gt;Node16 -->
<g id="edge35_Node000026_Node000016" class="edge">
<title>Node26&#45;&gt;Node16</title>
<g id="a_edge35_Node000026_Node000016"><a xlink:title=" ">
<path fill="none" stroke="#63b8ff" d="M177.12,-54.98C142.72,-45.18 86.52,-29.17 51.76,-19.26"/>
<polygon fill="#63b8ff" stroke="#63b8ff" points="52.71,-15.9 42.13,-16.52 50.79,-22.63 52.71,-15.9"/>
</a>
</g>
</g>
<!-- Node26&#45;&gt;Node25 -->
<g id="edge39_Node000026_Node000025" class="edge">
<title>Node26&#45;&gt;Node25</title>
<g id="a_edge39_Node000026_Node000025"><a xlink:title=" ">
<path fill="none" stroke="#63b8ff" d="M208.82,-54.75C210.26,-47.8 212.32,-37.85 214.13,-29.13"/>
<polygon fill="#63b8ff" stroke="#63b8ff" points="217.61,-29.59 216.22,-19.09 210.76,-28.17 217.61,-29.59"/>
</a>
</g>
</g>
<!-- Node27 -->
<g id="Node000027" class="node">
<title>Node27</title>
<g id="a_Node000027"><a xlink:title=" ">
<polygon fill="#e0e0e0" stroke="#999999" points="172,-19 128,-19 128,0 172,0 172,-19"/>
<text text-anchor="middle" x="150" y="-7" font-family="Helvetica,sans-Serif" font-size="10.00">limits</text>
</a>
</g>
</g>
<!-- Node26&#45;&gt;Node27 -->
<g id="edge37_Node000026_Node000027" class="edge">
<title>Node26&#45;&gt;Node27</title>
<g id="a_edge37_Node000026_Node000027"><a xlink:title=" ">
<path fill="none" stroke="#63b8ff" d="M197.84,-54.98C189.5,-47.23 176.97,-35.58 166.82,-26.14"/>
<polygon fill="#63b8ff" stroke="#63b8ff" points="169.03,-23.42 159.32,-19.17 164.26,-28.54 169.03,-23.42"/>
</a>
</g>
</g>
</g>
</svg>
