<?xml version="1.0" encoding="UTF-8" standalone="no"?>
<!DOCTYPE svg PUBLIC "-//W3C//DTD SVG 1.1//EN"
 "http://www.w3.org/Graphics/SVG/1.1/DTD/svg11.dtd">
<!-- Generated by graphviz version 2.43.0 (0)
 -->
<!-- Title: src/lib/mapGeneration/mapGeneration.cpp Pages: 1 -->
<svg width="1189pt" height="203pt"
 viewBox="0.00 0.00 1189.00 203.00" xmlns="http://www.w3.org/2000/svg" xmlns:xlink="http://www.w3.org/1999/xlink">
<g id="graph0" class="graph" transform="scale(1 1) rotate(0) translate(4 199)">
<title>src/lib/mapGeneration/mapGeneration.cpp</title>
<!-- Node1 -->
<g id="Node000001" class="node">
<title>Node1</title>
<g id="a_Node000001"><a xlink:title=" ">
<polygon fill="#999999" stroke="#666666" points="627.5,-195 502.5,-195 502.5,-165 627.5,-165 627.5,-195"/>
<text text-anchor="start" x="510.5" y="-183" font-family="Helvetica,sans-Serif" font-size="10.00">src/lib/mapGeneration</text>
<text text-anchor="middle" x="565" y="-172" font-family="Helvetica,sans-Serif" font-size="10.00">/mapGeneration.cpp</text>
</a>
</g>
</g>
<!-- Node2 -->
<g id="Node000002" class="node">
<title>Node2</title>
<g id="a_Node000002"><a xlink:href="mapGeneration_8hpp.html" target="_top" xlink:title=" ">
<polygon fill="white" stroke="#666666" points="282.5,-129 169.5,-129 169.5,-110 282.5,-110 282.5,-129"/>
<text text-anchor="middle" x="226" y="-117" font-family="Helvetica,sans-Serif" font-size="10.00">mapGeneration.hpp</text>
</a>
</g>
</g>
<!-- Node1&#45;&gt;Node2 -->
<g id="edge1_Node000001_Node000002" class="edge">
<title>Node1&#45;&gt;Node2</title>
<g id="a_edge1_Node000001_Node000002"><a xlink:title=" ">
<path fill="none" stroke="#63b8ff" d="M502.43,-168.2C440.49,-157.51 346.34,-141.27 285.5,-130.77"/>
<polygon fill="#63b8ff" stroke="#63b8ff" points="285.73,-127.26 275.28,-129 284.54,-134.15 285.73,-127.26"/>
</a>
</g>
</g>
<!-- Node3 -->
<g id="Node000003" class="node">
<title>Node3</title>
<g id="a_Node000003"><a xlink:href="uvgvpcc_8hpp.html" target="_top" xlink:title=" ">
<polygon fill="white" stroke="#666666" points="409,-74 287,-74 287,-55 409,-55 409,-74"/>
<text text-anchor="middle" x="348" y="-62" font-family="Helvetica,sans-Serif" font-size="10.00">uvgvpcc/uvgvpcc.hpp</text>
</a>
</g>
</g>
<!-- Node1&#45;&gt;Node3 -->
<g id="edge48_Node000001_Node000003" class="edge">
<title>Node1&#45;&gt;Node3</title>
<g id="a_edge48_Node000001_Node000003"><a xlink:title=" ">
<path fill="none" stroke="#63b8ff" d="M502.39,-174.4C440.27,-168.39 351.33,-155.34 330,-129 319.34,-115.83 327,-96.69 335.37,-82.87"/>
<polygon fill="#63b8ff" stroke="#63b8ff" points="338.45,-84.55 341.07,-74.29 332.62,-80.68 338.45,-84.55"/>
</a>
</g>
</g>
<!-- Node4 -->
<g id="Node000004" class="node">
<title>Node4</title>
<g id="a_Node000004"><a xlink:title=" ">
<polygon fill="#e0e0e0" stroke="#999999" points="129.5,-19 76.5,-19 76.5,0 129.5,0 129.5,-19"/>
<text text-anchor="middle" x="103" y="-7" font-family="Helvetica,sans-Serif" font-size="10.00">cstddef</text>
</a>
</g>
</g>
<!-- Node1&#45;&gt;Node4 -->
<g id="edge17_Node000001_Node000004" class="edge">
<title>Node1&#45;&gt;Node4</title>
<g id="a_edge17_Node000001_Node000004"><a xlink:title=" ">
<path fill="none" stroke="#63b8ff" d="M502.25,-178.89C400.79,-177.5 206.64,-169.46 153,-129 120.87,-104.77 109.19,-55.91 105.1,-29.12"/>
<polygon fill="#63b8ff" stroke="#63b8ff" points="108.56,-28.58 103.77,-19.13 101.62,-29.5 108.56,-28.58"/>
</a>
</g>
</g>
<!-- Node5 -->
<g id="Node000005" class="node">
<title>Node5</title>
<g id="a_Node000005"><a xlink:title=" ">
<polygon fill="#e0e0e0" stroke="#999999" points="462,-19 412,-19 412,0 462,0 462,-19"/>
<text text-anchor="middle" x="437" y="-7" font-family="Helvetica,sans-Serif" font-size="10.00">cstdint</text>
</a>
</g>
</g>
<!-- Node1&#45;&gt;Node5 -->
<g id="edge18_Node000001_Node000005" class="edge">
<title>Node1&#45;&gt;Node5</title>
<g id="a_edge18_Node000001_Node000005"><a xlink:title=" ">
<path fill="none" stroke="#63b8ff" d="M502.14,-175.75C394.03,-169.5 182.26,-154.18 160,-129 154.41,-122.67 155.46,-117.12 160,-110 191.09,-61.2 223.74,-75.09 278,-55 300.69,-46.6 362.59,-29.93 402.12,-19.55"/>
<polygon fill="#63b8ff" stroke="#63b8ff" points="403.11,-22.91 411.9,-16.99 401.34,-16.14 403.11,-22.91"/>
</a>
</g>
</g>
<!-- Node7 -->
<g id="Node000007" class="node">
<title>Node7</title>
<g id="a_Node000007"><a xlink:title=" ">
<polygon fill="#e0e0e0" stroke="#999999" points="58,-19 0,-19 0,0 58,0 58,-19"/>
<text text-anchor="middle" x="29" y="-7" font-family="Helvetica,sans-Serif" font-size="10.00">memory</text>
</a>
</g>
</g>
<!-- Node1&#45;&gt;Node7 -->
<g id="edge20_Node000001_Node000007" class="edge">
<title>Node1&#45;&gt;Node7</title>
<g id="a_edge20_Node000001_Node000007"><a xlink:title=" ">
<path fill="none" stroke="#63b8ff" d="M502.48,-177.3C398.41,-173.56 194.84,-162.13 132,-129 87.76,-105.68 54.03,-54.92 38.47,-28.03"/>
<polygon fill="#63b8ff" stroke="#63b8ff" points="41.51,-26.31 33.57,-19.3 35.41,-29.73 41.51,-26.31"/>
</a>
</g>
</g>
<!-- Node11 -->
<g id="Node000011" class="node">
<title>Node11</title>
<g id="a_Node000011"><a xlink:title=" ">
<polygon fill="#e0e0e0" stroke="#999999" points="841,-19 797,-19 797,0 841,0 841,-19"/>
<text text-anchor="middle" x="819" y="-7" font-family="Helvetica,sans-Serif" font-size="10.00">string</text>
</a>
</g>
</g>
<!-- Node1&#45;&gt;Node11 -->
<g id="edge21_Node000001_Node000011" class="edge">
<title>Node1&#45;&gt;Node11</title>
<g id="a_edge21_Node000001_Node000011"><a xlink:title=" ">
<path fill="none" stroke="#63b8ff" d="M627.87,-175.4C732.45,-168.77 932.83,-153.06 954,-129 972.43,-108.05 948.73,-74.64 928,-55 916.5,-44.11 878.98,-30.1 851.16,-20.73"/>
<polygon fill="#63b8ff" stroke="#63b8ff" points="852.01,-17.33 841.41,-17.51 849.81,-23.97 852.01,-17.33"/>
</a>
</g>
</g>
<!-- Node12 -->
<g id="Node000012" class="node">
<title>Node12</title>
<g id="a_Node000012"><a xlink:title=" ">
<polygon fill="#e0e0e0" stroke="#999999" points="527.5,-19 480.5,-19 480.5,0 527.5,0 527.5,-19"/>
<text text-anchor="middle" x="504" y="-7" font-family="Helvetica,sans-Serif" font-size="10.00">vector</text>
</a>
</g>
</g>
<!-- Node1&#45;&gt;Node12 -->
<g id="edge22_Node000001_Node000012" class="edge">
<title>Node1&#45;&gt;Node12</title>
<g id="a_edge22_Node000001_Node000012"><a xlink:title=" ">
<path fill="none" stroke="#63b8ff" d="M532.49,-164.84C517.92,-156.65 502.19,-144.79 494,-129 477.27,-96.75 488.26,-52.85 496.77,-28.55"/>
<polygon fill="#63b8ff" stroke="#63b8ff" points="500.06,-29.74 500.29,-19.15 493.51,-27.29 500.06,-29.74"/>
</a>
</g>
</g>
<!-- Node14 -->
<g id="Node000014" class="node">
<title>Node14</title>
<g id="a_Node000014"><a xlink:title=" ">
<polygon fill="#e0e0e0" stroke="#999999" points="567,-129 503,-129 503,-110 567,-110 567,-129"/>
<text text-anchor="middle" x="535" y="-117" font-family="Helvetica,sans-Serif" font-size="10.00">algorithm</text>
</a>
</g>
</g>
<!-- Node1&#45;&gt;Node14 -->
<g id="edge13_Node000001_Node000014" class="edge">
<title>Node1&#45;&gt;Node14</title>
<g id="a_edge13_Node000001_Node000014"><a xlink:title=" ">
<path fill="none" stroke="#63b8ff" d="M557.74,-164.84C553.65,-156.87 548.51,-146.84 544.14,-138.33"/>
<polygon fill="#63b8ff" stroke="#63b8ff" points="547.17,-136.57 539.5,-129.27 540.94,-139.76 547.17,-136.57"/>
</a>
</g>
</g>
<!-- Node15 -->
<g id="Node000015" class="node">
<title>Node15</title>
<g id="a_Node000015"><a xlink:title=" ">
<polygon fill="#e0e0e0" stroke="#999999" points="901,-19 859,-19 859,0 901,0 901,-19"/>
<text text-anchor="middle" x="880" y="-7" font-family="Helvetica,sans-Serif" font-size="10.00">array</text>
</a>
</g>
</g>
<!-- Node1&#45;&gt;Node15 -->
<g id="edge14_Node000001_Node000015" class="edge">
<title>Node1&#45;&gt;Node15</title>
<g id="a_edge14_Node000001_Node000015"><a xlink:title=" ">
<path fill="none" stroke="#63b8ff" d="M627.59,-175.78C735.83,-169.57 948.65,-154.27 971,-129 986.94,-110.98 968.37,-77.51 950,-55 939.2,-41.77 923.38,-31.24 909.51,-23.76"/>
<polygon fill="#63b8ff" stroke="#63b8ff" points="910.8,-20.49 900.3,-19.07 907.62,-26.73 910.8,-20.49"/>
</a>
</g>
</g>
<!-- Node16 -->
<g id="Node000016" class="node">
<title>Node16</title>
<g id="a_Node000016"><a xlink:title=" ">
<polygon fill="#e0e0e0" stroke="#999999" points="675,-129 623,-129 623,-110 675,-110 675,-129"/>
<text text-anchor="middle" x="649" y="-117" font-family="Helvetica,sans-Serif" font-size="10.00">cassert</text>
</a>
</g>
</g>
<!-- Node1&#45;&gt;Node16 -->
<g id="edge15_Node000001_Node000016" class="edge">
<title>Node1&#45;&gt;Node16</title>
<g id="a_edge15_Node000001_Node000016"><a xlink:title=" ">
<path fill="none" stroke="#63b8ff" d="M585.33,-164.84C598.27,-155.83 614.99,-144.18 628.05,-135.09"/>
<polygon fill="#63b8ff" stroke="#63b8ff" points="630.21,-137.85 636.41,-129.27 626.21,-132.11 630.21,-137.85"/>
</a>
</g>
</g>
<!-- Node17 -->
<g id="Node000017" class="node">
<title>Node17</title>
<g id="a_Node000017"><a xlink:title=" ">
<polygon fill="#e0e0e0" stroke="#999999" points="740.5,-129 693.5,-129 693.5,-110 740.5,-110 740.5,-129"/>
<text text-anchor="middle" x="717" y="-117" font-family="Helvetica,sans-Serif" font-size="10.00">cmath</text>
</a>
</g>
</g>
<!-- Node1&#45;&gt;Node17 -->
<g id="edge16_Node000001_Node000017" class="edge">
<title>Node1&#45;&gt;Node17</title>
<g id="a_edge16_Node000001_Node000017"><a xlink:title=" ">
<path fill="none" stroke="#63b8ff" d="M601.41,-164.99C626.88,-155.18 660.59,-142.21 685.03,-132.81"/>
<polygon fill="#63b8ff" stroke="#63b8ff" points="686.48,-136 694.55,-129.14 683.96,-129.46 686.48,-136"/>
</a>
</g>
</g>
<!-- Node18 -->
<g id="Node000018" class="node">
<title>Node18</title>
<g id="a_Node000018"><a xlink:title=" ">
<polygon fill="#e0e0e0" stroke="#999999" points="809,-129 759,-129 759,-110 809,-110 809,-129"/>
<text text-anchor="middle" x="784" y="-117" font-family="Helvetica,sans-Serif" font-size="10.00">cstring</text>
</a>
</g>
</g>
<!-- Node1&#45;&gt;Node18 -->
<g id="edge19_Node000001_Node000018" class="edge">
<title>Node1&#45;&gt;Node18</title>
<g id="a_edge19_Node000001_Node000018"><a xlink:title=" ">
<path fill="none" stroke="#63b8ff" d="M617.46,-164.99C658.11,-154.13 713.32,-139.38 748.81,-129.9"/>
<polygon fill="#63b8ff" stroke="#63b8ff" points="749.96,-133.22 758.72,-127.25 748.15,-126.45 749.96,-133.22"/>
</a>
</g>
</g>
<!-- Node19 -->
<g id="Node000019" class="node">
<title>Node19</title>
<g id="a_Node000019"><a xlink:href="fileExport_8hpp.html" target="_top" xlink:title=" ">
<polygon fill="white" stroke="#666666" points="447,-129 339,-129 339,-110 447,-110 447,-129"/>
<text text-anchor="middle" x="393" y="-117" font-family="Helvetica,sans-Serif" font-size="10.00">utils/fileExport.hpp</text>
</a>
</g>
</g>
<!-- Node1&#45;&gt;Node19 -->
<g id="edge23_Node000001_Node000019" class="edge">
<title>Node1&#45;&gt;Node19</title>
<g id="a_edge23_Node000001_Node000019"><a xlink:title=" ">
<path fill="none" stroke="#63b8ff" d="M523.8,-164.99C494.5,-155.02 455.58,-141.78 427.83,-132.35"/>
<polygon fill="#63b8ff" stroke="#63b8ff" points="428.74,-128.96 418.15,-129.05 426.49,-135.59 428.74,-128.96"/>
</a>
</g>
</g>
<!-- Node20 -->
<g id="Node000020" class="node">
<title>Node20</title>
<g id="a_Node000020"><a xlink:href="utils_8hpp.html" target="_top" xlink:title=" ">
<polygon fill="white" stroke="#666666" points="712.5,-74 629.5,-74 629.5,-55 712.5,-55 712.5,-74"/>
<text text-anchor="middle" x="671" y="-62" font-family="Helvetica,sans-Serif" font-size="10.00">utils/utils.hpp</text>
</a>
</g>
</g>
<!-- Node1&#45;&gt;Node20 -->
<g id="edge40_Node000001_Node000020" class="edge">
<title>Node1&#45;&gt;Node20</title>
<g id="a_edge40_Node000001_Node000020"><a xlink:title=" ">
<path fill="none" stroke="#63b8ff" d="M573.32,-164.88C582.3,-150.27 597.56,-127.21 614,-110 624.68,-98.83 638.26,-88.11 649.5,-79.99"/>
<polygon fill="#63b8ff" stroke="#63b8ff" points="651.73,-82.7 657.9,-74.08 647.7,-76.98 651.73,-82.7"/>
</a>
</g>
</g>
<!-- Node23 -->
<g id="Node000023" class="node">
<title>Node23</title>
<g id="a_Node000023"><a xlink:href="parameters_8hpp.html" target="_top" xlink:title=" ">
<polygon fill="white" stroke="#666666" points="945,-129 827,-129 827,-110 945,-110 945,-129"/>
<text text-anchor="middle" x="886" y="-117" font-family="Helvetica,sans-Serif" font-size="10.00">utils/parameters.hpp</text>
</a>
</g>
</g>
<!-- Node1&#45;&gt;Node23 -->
<g id="edge35_Node000001_Node000023" class="edge">
<title>Node1&#45;&gt;Node23</title>
<g id="a_edge35_Node000001_Node000023"><a xlink:title=" ">
<path fill="none" stroke="#63b8ff" d="M627.65,-167.58C686.18,-156.92 772.76,-141.14 829.28,-130.84"/>
<polygon fill="#63b8ff" stroke="#63b8ff" points="829.91,-134.28 839.13,-129.04 828.66,-127.39 829.91,-134.28"/>
</a>
</g>
</g>
<!-- Node25 -->
<g id="Node000025" class="node">
<title>Node25</title>
<g id="a_Node000025"><a xlink:href="log_8hpp.html" target="_top" xlink:title=" ">
<polygon fill="white" stroke="#666666" points="1135,-74 1039,-74 1039,-55 1135,-55 1135,-74"/>
<text text-anchor="middle" x="1087" y="-62" font-family="Helvetica,sans-Serif" font-size="10.00">uvgvpcc/log.hpp</text>
</a>
</g>
</g>
<!-- Node1&#45;&gt;Node25 -->
<g id="edge41_Node000001_Node000025" class="edge">
<title>Node1&#45;&gt;Node25</title>
<g id="a_edge41_Node000001_Node000025"><a xlink:title=" ">
<path fill="none" stroke="#63b8ff" d="M627.71,-177.39C736.81,-173.73 956.47,-162.34 1025,-129 1046.34,-118.62 1064.45,-97.74 1075.48,-82.76"/>
<polygon fill="#63b8ff" stroke="#63b8ff" points="1078.52,-84.53 1081.41,-74.33 1072.79,-80.5 1078.52,-84.53"/>
</a>
</g>
</g>
<!-- Node2&#45;&gt;Node3 -->
<g id="edge2_Node000002_Node000003" class="edge">
<title>Node2&#45;&gt;Node3</title>
<g id="a_edge2_Node000002_Node000003"><a xlink:title=" ">
<path fill="none" stroke="#63b8ff" d="M245.6,-109.98C265.32,-101.42 295.95,-88.11 318.58,-78.28"/>
<polygon fill="#63b8ff" stroke="#63b8ff" points="320.26,-81.37 328.04,-74.17 317.48,-74.94 320.26,-81.37"/>
</a>
</g>
</g>
<!-- Node3&#45;&gt;Node4 -->
<g id="edge3_Node000003_Node000004" class="edge">
<title>Node3&#45;&gt;Node4</title>
<g id="a_edge3_Node000003_Node000004"><a xlink:title=" ">
<path fill="none" stroke="#63b8ff" d="M306.08,-55C265.8,-46.74 202.94,-33.63 139.86,-19.38"/>
<polygon fill="#63b8ff" stroke="#63b8ff" points="140.26,-15.88 129.73,-17.08 138.71,-22.71 140.26,-15.88"/>
</a>
</g>
</g>
<!-- Node3&#45;&gt;Node5 -->
<g id="edge4_Node000003_Node000005" class="edge">
<title>Node3&#45;&gt;Node5</title>
<g id="a_edge4_Node000003_Node000005"><a xlink:title=" ">
<path fill="none" stroke="#63b8ff" d="M362.3,-54.98C376.1,-46.77 397.24,-34.18 413.51,-24.49"/>
<polygon fill="#63b8ff" stroke="#63b8ff" points="415.64,-27.29 422.44,-19.17 412.06,-21.28 415.64,-27.29"/>
</a>
</g>
</g>
<!-- Node6 -->
<g id="Node000006" class="node">
<title>Node6</title>
<g id="a_Node000006"><a xlink:title=" ">
<polygon fill="#e0e0e0" stroke="#999999" points="680,-19 620,-19 620,0 680,0 680,-19"/>
<text text-anchor="middle" x="650" y="-7" font-family="Helvetica,sans-Serif" font-size="10.00">iostream</text>
</a>
</g>
</g>
<!-- Node3&#45;&gt;Node6 -->
<g id="edge5_Node000003_Node000006" class="edge">
<title>Node3&#45;&gt;Node6</title>
<g id="a_edge5_Node000003_Node000006"><a xlink:title=" ">
<path fill="none" stroke="#63b8ff" d="M402.79,-55C453.9,-46.89 532.5,-33.99 609.88,-19.14"/>
<polygon fill="#63b8ff" stroke="#63b8ff" points="610.64,-22.56 619.8,-17.23 609.31,-15.69 610.64,-22.56"/>
</a>
</g>
</g>
<!-- Node3&#45;&gt;Node7 -->
<g id="edge6_Node000003_Node000007" class="edge">
<title>Node3&#45;&gt;Node7</title>
<g id="a_edge6_Node000003_Node000007"><a xlink:title=" ">
<path fill="none" stroke="#63b8ff" d="M286.96,-54.97C232.14,-47.04 149.23,-34.43 67.91,-19.07"/>
<polygon fill="#63b8ff" stroke="#63b8ff" points="68.49,-15.62 58.01,-17.19 67.18,-22.49 68.49,-15.62"/>
</a>
</g>
</g>
<!-- Node8 -->
<g id="Node000008" class="node">
<title>Node8</title>
<g id="a_Node000008"><a xlink:title=" ">
<polygon fill="#e0e0e0" stroke="#999999" points="194.5,-19 147.5,-19 147.5,0 194.5,0 194.5,-19"/>
<text text-anchor="middle" x="171" y="-7" font-family="Helvetica,sans-Serif" font-size="10.00">queue</text>
</a>
</g>
</g>
<!-- Node3&#45;&gt;Node8 -->
<g id="edge7_Node000003_Node000008" class="edge">
<title>Node3&#45;&gt;Node8</title>
<g id="a_edge7_Node000003_Node000008"><a xlink:title=" ">
<path fill="none" stroke="#63b8ff" d="M319.56,-54.98C288.12,-45.57 237.54,-30.42 204.28,-20.46"/>
<polygon fill="#63b8ff" stroke="#63b8ff" points="205.14,-17.07 194.55,-17.55 203.13,-23.77 205.14,-17.07"/>
</a>
</g>
</g>
<!-- Node9 -->
<g id="Node000009" class="node">
<title>Node9</title>
<g id="a_Node000009"><a xlink:title=" ">
<polygon fill="#e0e0e0" stroke="#999999" points="283.5,-19 212.5,-19 212.5,0 283.5,0 283.5,-19"/>
<text text-anchor="middle" x="248" y="-7" font-family="Helvetica,sans-Serif" font-size="10.00">semaphore</text>
</a>
</g>
</g>
<!-- Node3&#45;&gt;Node9 -->
<g id="edge8_Node000003_Node000009" class="edge">
<title>Node3&#45;&gt;Node9</title>
<g id="a_edge8_Node000003_Node000009"><a xlink:title=" ">
<path fill="none" stroke="#63b8ff" d="M331.93,-54.98C316.14,-46.61 291.78,-33.7 273.37,-23.95"/>
<polygon fill="#63b8ff" stroke="#63b8ff" points="274.83,-20.76 264.36,-19.17 271.56,-26.95 274.83,-20.76"/>
</a>
</g>
</g>
<!-- Node10 -->
<g id="Node000010" class="node">
<title>Node10</title>
<g id="a_Node000010"><a xlink:title=" ">
<polygon fill="#e0e0e0" stroke="#999999" points="602,-19 546,-19 546,0 602,0 602,-19"/>
<text text-anchor="middle" x="574" y="-7" font-family="Helvetica,sans-Serif" font-size="10.00">sstream</text>
</a>
</g>
</g>
<!-- Node3&#45;&gt;Node10 -->
<g id="edge9_Node000003_Node000010" class="edge">
<title>Node3&#45;&gt;Node10</title>
<g id="a_edge9_Node000003_Node000010"><a xlink:title=" ">
<path fill="none" stroke="#63b8ff" d="M384.31,-54.98C425.92,-45.23 493.81,-29.31 536.08,-19.39"/>
<polygon fill="#63b8ff" stroke="#63b8ff" points="537.05,-22.76 545.99,-17.07 535.45,-15.94 537.05,-22.76"/>
</a>
</g>
</g>
<!-- Node3&#45;&gt;Node11 -->
<g id="edge10_Node000003_Node000011" class="edge">
<title>Node3&#45;&gt;Node11</title>
<g id="a_edge10_Node000003_Node000011"><a xlink:title=" ">
<path fill="none" stroke="#63b8ff" d="M409.14,-57.03C488.13,-48.6 629.88,-33.26 751,-19 762.76,-17.62 775.66,-16.02 787.02,-14.59"/>
<polygon fill="#63b8ff" stroke="#63b8ff" points="787.48,-18.06 796.96,-13.34 786.6,-11.12 787.48,-18.06"/>
</a>
</g>
</g>
<!-- Node3&#45;&gt;Node12 -->
<g id="edge11_Node000003_Node000012" class="edge">
<title>Node3&#45;&gt;Node12</title>
<g id="a_edge11_Node000003_Node000012"><a xlink:title=" ">
<path fill="none" stroke="#63b8ff" d="M373.06,-54.98C399.49,-46.01 441.27,-31.81 470.5,-21.88"/>
<polygon fill="#63b8ff" stroke="#63b8ff" points="471.93,-25.09 480.28,-18.56 469.68,-18.46 471.93,-25.09"/>
</a>
</g>
</g>
<!-- Node13 -->
<g id="Node000013" class="node">
<title>Node13</title>
<g id="a_Node000013"><a xlink:title=" ">
<polygon fill="#e0e0e0" stroke="#999999" points="394,-19 302,-19 302,0 394,0 394,-19"/>
<text text-anchor="middle" x="348" y="-7" font-family="Helvetica,sans-Serif" font-size="10.00">../utils/utils.hpp</text>
</a>
</g>
</g>
<!-- Node3&#45;&gt;Node13 -->
<g id="edge12_Node000003_Node000013" class="edge">
<title>Node3&#45;&gt;Node13</title>
<g id="a_edge12_Node000003_Node000013"><a xlink:title=" ">
<path fill="none" stroke="#63b8ff" d="M348,-54.75C348,-47.8 348,-37.85 348,-29.13"/>
<polygon fill="#63b8ff" stroke="#63b8ff" points="351.5,-29.09 348,-19.09 344.5,-29.09 351.5,-29.09"/>
</a>
</g>
</g>
<!-- Node19&#45;&gt;Node3 -->
<g id="edge34_Node000019_Node000003" class="edge">
<title>Node19&#45;&gt;Node3</title>
<g id="a_edge34_Node000019_Node000003"><a xlink:title=" ">
<path fill="none" stroke="#63b8ff" d="M385.57,-109.75C379.15,-102.18 369.69,-91.05 361.88,-81.84"/>
<polygon fill="#63b8ff" stroke="#63b8ff" points="364.43,-79.45 355.29,-74.09 359.1,-83.98 364.43,-79.45"/>
</a>
</g>
</g>
<!-- Node19&#45;&gt;Node4 -->
<g id="edge24_Node000019_Node000004" class="edge">
<title>Node19&#45;&gt;Node4</title>
<g id="a_edge24_Node000019_Node000004"><a xlink:title=" ">
<path fill="none" stroke="#63b8ff" d="M369.76,-109.84C318.3,-90.68 194.64,-44.63 135.53,-22.62"/>
<polygon fill="#63b8ff" stroke="#63b8ff" points="136.54,-19.26 125.95,-19.05 134.1,-25.82 136.54,-19.26"/>
</a>
</g>
</g>
<!-- Node19&#45;&gt;Node7 -->
<g id="edge25_Node000019_Node000007" class="edge">
<title>Node19&#45;&gt;Node7</title>
<g id="a_edge25_Node000019_Node000007"><a xlink:title=" ">
<path fill="none" stroke="#63b8ff" d="M359.17,-109.94C325.53,-101.31 272.51,-87.39 227,-74 169.5,-57.08 103.29,-35.4 63.86,-22.24"/>
<polygon fill="#63b8ff" stroke="#63b8ff" points="64.79,-18.86 54.2,-19.01 62.57,-25.5 64.79,-18.86"/>
</a>
</g>
</g>
<!-- Node19&#45;&gt;Node11 -->
<g id="edge26_Node000019_Node000011" class="edge">
<title>Node19&#45;&gt;Node11</title>
<g id="a_edge26_Node000019_Node000011"><a xlink:title=" ">
<path fill="none" stroke="#63b8ff" d="M422.03,-109.91C465.23,-97.24 549.07,-73.09 621,-55 679.22,-40.36 747.65,-25.5 786.91,-17.19"/>
<polygon fill="#63b8ff" stroke="#63b8ff" points="787.88,-20.56 796.94,-15.08 786.43,-13.71 787.88,-20.56"/>
</a>
</g>
</g>
<!-- Node19&#45;&gt;Node12 -->
<g id="edge27_Node000019_Node000012" class="edge">
<title>Node19&#45;&gt;Node12</title>
<g id="a_edge27_Node000019_Node000012"><a xlink:title=" ">
<path fill="none" stroke="#63b8ff" d="M402.08,-109.66C420.88,-91.38 464.24,-49.18 487.9,-26.17"/>
<polygon fill="#63b8ff" stroke="#63b8ff" points="490.37,-28.64 495.1,-19.16 485.49,-23.62 490.37,-28.64"/>
</a>
</g>
</g>
<!-- Node19&#45;&gt;Node20 -->
<g id="edge28_Node000019_Node000020" class="edge">
<title>Node19&#45;&gt;Node20</title>
<g id="a_edge28_Node000019_Node000020"><a xlink:title=" ">
<path fill="none" stroke="#63b8ff" d="M437.67,-109.98C487.16,-100.55 566.88,-85.35 619.11,-75.39"/>
<polygon fill="#63b8ff" stroke="#63b8ff" points="620.01,-78.78 629.17,-73.47 618.7,-71.91 620.01,-78.78"/>
</a>
</g>
</g>
<!-- Node20&#45;&gt;Node5 -->
<g id="edge30_Node000020_Node000005" class="edge">
<title>Node20&#45;&gt;Node5</title>
<g id="a_edge30_Node000020_Node000005"><a xlink:title=" ">
<path fill="none" stroke="#63b8ff" d="M631.09,-54.94C592.72,-46.64 532.86,-33.5 472,-19.19"/>
<polygon fill="#63b8ff" stroke="#63b8ff" points="472.77,-15.78 462.23,-16.89 471.16,-22.59 472.77,-15.78"/>
</a>
</g>
</g>
<!-- Node20&#45;&gt;Node10 -->
<g id="edge32_Node000020_Node000010" class="edge">
<title>Node20&#45;&gt;Node10</title>
<g id="a_edge32_Node000020_Node000010"><a xlink:title=" ">
<path fill="none" stroke="#63b8ff" d="M655.42,-54.98C640.23,-46.69 616.9,-33.94 599.1,-24.22"/>
<polygon fill="#63b8ff" stroke="#63b8ff" points="600.32,-20.89 589.87,-19.17 596.97,-27.04 600.32,-20.89"/>
</a>
</g>
</g>
<!-- Node20&#45;&gt;Node15 -->
<g id="edge29_Node000020_Node000015" class="edge">
<title>Node20&#45;&gt;Node15</title>
<g id="a_edge29_Node000020_Node000015"><a xlink:title=" ">
<path fill="none" stroke="#63b8ff" d="M706.75,-54.97C740.89,-46.75 794.03,-33.74 848.83,-19.25"/>
<polygon fill="#63b8ff" stroke="#63b8ff" points="849.95,-22.57 858.72,-16.62 848.15,-15.81 849.95,-22.57"/>
</a>
</g>
</g>
<!-- Node21 -->
<g id="Node000021" class="node">
<title>Node21</title>
<g id="a_Node000021"><a xlink:title=" ">
<polygon fill="#e0e0e0" stroke="#999999" points="742,-19 698,-19 698,0 742,0 742,-19"/>
<text text-anchor="middle" x="720" y="-7" font-family="Helvetica,sans-Serif" font-size="10.00">limits</text>
</a>
</g>
</g>
<!-- Node20&#45;&gt;Node21 -->
<g id="edge31_Node000020_Node000021" class="edge">
<title>Node20&#45;&gt;Node21</title>
<g id="a_edge31_Node000020_Node000021"><a xlink:title=" ">
<path fill="none" stroke="#63b8ff" d="M679.09,-54.75C686.16,-47.11 696.59,-35.82 705.15,-26.56"/>
<polygon fill="#63b8ff" stroke="#63b8ff" points="707.84,-28.81 712.06,-19.09 702.7,-24.06 707.84,-28.81"/>
</a>
</g>
</g>
<!-- Node22 -->
<g id="Node000022" class="node">
<title>Node22</title>
<g id="a_Node000022"><a xlink:title=" ">
<polygon fill="#e0e0e0" stroke="#999999" points="975,-19 919,-19 919,0 975,0 975,-19"/>
<text text-anchor="middle" x="947" y="-7" font-family="Helvetica,sans-Serif" font-size="10.00">iomanip</text>
</a>
</g>
</g>
<!-- Node20&#45;&gt;Node22 -->
<g id="edge33_Node000020_Node000022" class="edge">
<title>Node20&#45;&gt;Node22</title>
<g id="a_edge33_Node000020_Node000022"><a xlink:title=" ">
<path fill="none" stroke="#63b8ff" d="M712.55,-56.31C758.26,-48.27 834.12,-34.59 908.71,-19.2"/>
<polygon fill="#63b8ff" stroke="#63b8ff" points="909.66,-22.58 918.74,-17.12 908.24,-15.72 909.66,-22.58"/>
</a>
</g>
</g>
<!-- Node23&#45;&gt;Node11 -->
<g id="edge37_Node000023_Node000011" class="edge">
<title>Node23&#45;&gt;Node11</title>
<g id="a_edge37_Node000023_Node000011"><a xlink:title=" ">
<path fill="none" stroke="#63b8ff" d="M876.15,-109.76C867.1,-101.33 853.8,-87.83 845,-74 836.01,-59.87 829.05,-42.1 824.6,-28.95"/>
<polygon fill="#63b8ff" stroke="#63b8ff" points="827.86,-27.64 821.47,-19.18 821.19,-29.77 827.86,-27.64"/>
</a>
</g>
</g>
<!-- Node23&#45;&gt;Node12 -->
<g id="edge38_Node000023_Node000012" class="edge">
<title>Node23&#45;&gt;Node12</title>
<g id="a_edge38_Node000023_Node000012"><a xlink:title=" ">
<path fill="none" stroke="#63b8ff" d="M826.72,-110.87C760.6,-101.94 658.05,-86.77 621,-74 585.28,-61.69 547.47,-39.21 524.8,-24.57"/>
<polygon fill="#63b8ff" stroke="#63b8ff" points="526.62,-21.57 516.34,-19.01 522.78,-27.42 526.62,-21.57"/>
</a>
</g>
</g>
<!-- Node23&#45;&gt;Node20 -->
<g id="edge39_Node000023_Node000020" class="edge">
<title>Node23&#45;&gt;Node20</title>
<g id="a_edge39_Node000023_Node000020"><a xlink:title=" ">
<path fill="none" stroke="#63b8ff" d="M851.46,-109.98C814.58,-100.89 756.01,-86.46 715.66,-76.51"/>
<polygon fill="#63b8ff" stroke="#63b8ff" points="716.36,-73.08 705.81,-74.08 714.69,-79.87 716.36,-73.08"/>
</a>
</g>
</g>
<!-- Node24 -->
<g id="Node000024" class="node">
<title>Node24</title>
<g id="a_Node000024"><a xlink:title=" ">
<polygon fill="#e0e0e0" stroke="#999999" points="918.5,-74 853.5,-74 853.5,-55 918.5,-55 918.5,-74"/>
<text text-anchor="middle" x="886" y="-62" font-family="Helvetica,sans-Serif" font-size="10.00">stdexcept</text>
</a>
</g>
</g>
<!-- Node23&#45;&gt;Node24 -->
<g id="edge36_Node000023_Node000024" class="edge">
<title>Node23&#45;&gt;Node24</title>
<g id="a_edge36_Node000023_Node000024"><a xlink:title=" ">
<path fill="none" stroke="#63b8ff" d="M886,-109.75C886,-102.8 886,-92.85 886,-84.13"/>
<polygon fill="#63b8ff" stroke="#63b8ff" points="889.5,-84.09 886,-74.09 882.5,-84.09 889.5,-84.09"/>
</a>
</g>
</g>
<!-- Node25&#45;&gt;Node6 -->
<g id="edge45_Node000025_Node000006" class="edge">
<title>Node25&#45;&gt;Node6</title>
<g id="a_edge45_Node000025_Node000006"><a xlink:title=" ">
<path fill="none" stroke="#63b8ff" d="M1038.99,-59.74C965.89,-53.67 822.09,-40.34 690.44,-19.08"/>
<polygon fill="#63b8ff" stroke="#63b8ff" points="690.61,-15.56 680.17,-17.4 689.48,-22.47 690.61,-15.56"/>
</a>
</g>
</g>
<!-- Node25&#45;&gt;Node11 -->
<g id="edge46_Node000025_Node000011" class="edge">
<title>Node25&#45;&gt;Node11</title>
<g id="a_edge46_Node000025_Node000011"><a xlink:title=" ">
<path fill="none" stroke="#63b8ff" d="M1038.64,-55.62C992.74,-47.86 921.61,-35.16 851.22,-19.13"/>
<polygon fill="#63b8ff" stroke="#63b8ff" points="851.83,-15.68 841.3,-16.85 850.26,-22.5 851.83,-15.68"/>
</a>
</g>
</g>
<!-- Node25&#45;&gt;Node22 -->
<g id="edge44_Node000025_Node000022" class="edge">
<title>Node25&#45;&gt;Node22</title>
<g id="a_edge44_Node000025_Node000022"><a xlink:title=" ">
<path fill="none" stroke="#63b8ff" d="M1064.51,-54.98C1041.48,-46.27 1005.46,-32.63 979.37,-22.75"/>
<polygon fill="#63b8ff" stroke="#63b8ff" points="980.49,-19.44 969.9,-19.17 978.02,-25.98 980.49,-19.44"/>
</a>
</g>
</g>
<!-- Node26 -->
<g id="Node000026" class="node">
<title>Node26</title>
<g id="a_Node000026"><a xlink:title=" ">
<polygon fill="#e0e0e0" stroke="#999999" points="1181,-19 1131,-19 1131,0 1181,0 1181,-19"/>
<text text-anchor="middle" x="1156" y="-7" font-family="Helvetica,sans-Serif" font-size="10.00">chrono</text>
</a>
</g>
</g>
<!-- Node25&#45;&gt;Node26 -->
<g id="edge42_Node000025_Node000026" class="edge">
<title>Node25&#45;&gt;Node26</title>
<g id="a_edge42_Node000025_Node000026"><a xlink:title=" ">
<path fill="none" stroke="#63b8ff" d="M1098.09,-54.98C1108.49,-47 1124.26,-34.88 1136.72,-25.31"/>
<polygon fill="#63b8ff" stroke="#63b8ff" points="1138.91,-28.04 1144.71,-19.17 1134.65,-22.49 1138.91,-28.04"/>
</a>
</g>
</g>
<!-- Node27 -->
<g id="Node000027" class="node">
<title>Node27</title>
<g id="a_Node000027"><a xlink:title=" ">
<polygon fill="#e0e0e0" stroke="#999999" points="1046.5,-19 993.5,-19 993.5,0 1046.5,0 1046.5,-19"/>
<text text-anchor="middle" x="1020" y="-7" font-family="Helvetica,sans-Serif" font-size="10.00">cstdarg</text>
</a>
</g>
</g>
<!-- Node25&#45;&gt;Node27 -->
<g id="edge43_Node000025_Node000027" class="edge">
<title>Node25&#45;&gt;Node27</title>
<g id="a_edge43_Node000025_Node000027"><a xlink:title=" ">
<path fill="none" stroke="#63b8ff" d="M1076.24,-54.98C1066.23,-47.07 1051.11,-35.11 1039.07,-25.58"/>
<polygon fill="#63b8ff" stroke="#63b8ff" points="1040.97,-22.63 1030.96,-19.17 1036.63,-28.12 1040.97,-22.63"/>
</a>
</g>
</g>
<!-- Node28 -->
<g id="Node000028" class="node">
<title>Node28</title>
<g id="a_Node000028"><a xlink:title=" ">
<polygon fill="#e0e0e0" stroke="#999999" points="1113,-19 1065,-19 1065,0 1113,0 1113,-19"/>
<text text-anchor="middle" x="1089" y="-7" font-family="Helvetica,sans-Serif" font-size="10.00">mutex</text>
</a>
</g>
</g>
<!-- Node25&#45;&gt;Node28 -->
<g id="edge47_Node000025_Node000028" class="edge">
<title>Node25&#45;&gt;Node28</title>
<g id="a_edge47_Node000025_Node000028"><a xlink:title=" ">
<path fill="none" stroke="#63b8ff" d="M1087.33,-54.75C1087.59,-47.8 1087.97,-37.85 1088.3,-29.13"/>
<polygon fill="#63b8ff" stroke="#63b8ff" points="1091.8,-29.21 1088.68,-19.09 1084.8,-28.95 1091.8,-29.21"/>
</a>
</g>
</g>
</g>
</svg>
