<?xml version="1.0" encoding="UTF-8" standalone="no"?>
<!DOCTYPE svg PUBLIC "-//W3C//DTD SVG 1.1//EN"
 "http://www.w3.org/Graphics/SVG/1.1/DTD/svg11.dtd">
<!-- Generated by graphviz version 2.43.0 (0)
 -->
<!-- Title: src/libuvgvpccenc/mapGeneration/mapGeneration.cpp Pages: 1 -->
<svg width="1616pt" height="313pt"
 viewBox="0.00 0.00 1616.17 313.00" xmlns="http://www.w3.org/2000/svg" xmlns:xlink="http://www.w3.org/1999/xlink">
<g id="graph0" class="graph" transform="scale(1 1) rotate(0) translate(4 309)">
<title>src/libuvgvpccenc/mapGeneration/mapGeneration.cpp</title>
<!-- Node1 -->
<g id="Node000001" class="node">
<title>Node1</title>
<g id="a_Node000001"><a xlink:title=" ">
<polygon fill="#999999" stroke="#666666" points="931,-305 749,-305 749,-275 931,-275 931,-305"/>
<text text-anchor="start" x="757" y="-293" font-family="Helvetica,sans-Serif" font-size="10.00">src/libuvgvpccenc/mapGeneration</text>
<text text-anchor="middle" x="840" y="-282" font-family="Helvetica,sans-Serif" font-size="10.00">/mapGeneration.cpp</text>
</a>
</g>
</g>
<!-- Node2 -->
<g id="Node000002" class="node">
<title>Node2</title>
<g id="a_Node000002"><a xlink:href="mapGeneration_8hpp.html" target="_top" xlink:title=" ">
<polygon fill="white" stroke="#666666" points="754.5,-239 641.5,-239 641.5,-220 754.5,-220 754.5,-239"/>
<text text-anchor="middle" x="698" y="-227" font-family="Helvetica,sans-Serif" font-size="10.00">mapGeneration.hpp</text>
</a>
</g>
</g>
<!-- Node1&#45;&gt;Node2 -->
<g id="edge1_Node000001_Node000002" class="edge">
<title>Node1&#45;&gt;Node2</title>
<g id="a_edge1_Node000001_Node000002"><a xlink:title=" ">
<path fill="none" stroke="#63b8ff" d="M805.99,-274.99C782.4,-265.27 751.26,-252.44 728.48,-243.06"/>
<polygon fill="#63b8ff" stroke="#63b8ff" points="729.55,-239.71 718.97,-239.14 726.88,-246.18 729.55,-239.71"/>
</a>
</g>
</g>
<!-- Node3 -->
<g id="Node000003" class="node">
<title>Node3</title>
<g id="a_Node000003"><a xlink:href="uvgvpcc_8hpp.html" target="_top" xlink:title=" ">
<polygon fill="white" stroke="#666666" points="759,-184 637,-184 637,-165 759,-165 759,-184"/>
<text text-anchor="middle" x="698" y="-172" font-family="Helvetica,sans-Serif" font-size="10.00">uvgvpcc/uvgvpcc.hpp</text>
</a>
</g>
</g>
<!-- Node1&#45;&gt;Node3 -->
<g id="edge67_Node000001_Node000003" class="edge">
<title>Node1&#45;&gt;Node3</title>
<g id="a_edge67_Node000001_Node000003"><a xlink:title=" ">
<path fill="none" stroke="#63b8ff" d="M825.7,-274.86C810.81,-260.43 786.57,-237.71 764,-220 750.18,-209.16 733.8,-198.11 720.82,-189.73"/>
<polygon fill="#63b8ff" stroke="#63b8ff" points="722.37,-186.57 712.06,-184.15 718.61,-192.47 722.37,-186.57"/>
</a>
</g>
</g>
<!-- Node4 -->
<g id="Node000004" class="node">
<title>Node4</title>
<g id="a_Node000004"><a xlink:title=" ">
<polygon fill="#e0e0e0" stroke="#999999" points="927,-74 885,-74 885,-55 927,-55 927,-74"/>
<text text-anchor="middle" x="906" y="-62" font-family="Helvetica,sans-Serif" font-size="10.00">array</text>
</a>
</g>
</g>
<!-- Node1&#45;&gt;Node4 -->
<g id="edge31_Node000001_Node000004" class="edge">
<title>Node1&#45;&gt;Node4</title>
<g id="a_edge31_Node000001_Node000004"><a xlink:title=" ">
<path fill="none" stroke="#63b8ff" d="M844.23,-274.68C855.74,-235.68 887.66,-127.61 900.52,-84.05"/>
<polygon fill="#63b8ff" stroke="#63b8ff" points="903.95,-84.81 903.42,-74.23 897.23,-82.83 903.95,-84.81"/>
</a>
</g>
</g>
<!-- Node5 -->
<g id="Node000005" class="node">
<title>Node5</title>
<g id="a_Node000005"><a xlink:title=" ">
<polygon fill="#e0e0e0" stroke="#999999" points="162,-129 110,-129 110,-110 162,-110 162,-129"/>
<text text-anchor="middle" x="136" y="-117" font-family="Helvetica,sans-Serif" font-size="10.00">cassert</text>
</a>
</g>
</g>
<!-- Node1&#45;&gt;Node5 -->
<g id="edge32_Node000001_Node000005" class="edge">
<title>Node1&#45;&gt;Node5</title>
<g id="a_edge32_Node000001_Node000005"><a xlink:title=" ">
<path fill="none" stroke="#63b8ff" d="M748.78,-288.39C654.27,-285.63 503.16,-275.2 378,-239 291.91,-214.1 199.14,-160.1 157.91,-134.51"/>
<polygon fill="#63b8ff" stroke="#63b8ff" points="159.57,-131.42 149.24,-129.07 155.85,-137.35 159.57,-131.42"/>
</a>
</g>
</g>
<!-- Node6 -->
<g id="Node000006" class="node">
<title>Node6</title>
<g id="a_Node000006"><a xlink:title=" ">
<polygon fill="#e0e0e0" stroke="#999999" points="1371.5,-74 1318.5,-74 1318.5,-55 1371.5,-55 1371.5,-74"/>
<text text-anchor="middle" x="1345" y="-62" font-family="Helvetica,sans-Serif" font-size="10.00">cstddef</text>
</a>
</g>
</g>
<!-- Node1&#45;&gt;Node6 -->
<g id="edge34_Node000001_Node000006" class="edge">
<title>Node1&#45;&gt;Node6</title>
<g id="a_edge34_Node000001_Node000006"><a xlink:title=" ">
<path fill="none" stroke="#63b8ff" d="M931.24,-285.64C1076.6,-279.59 1354.04,-265.02 1449,-239 1502.87,-224.24 1519.63,-220.39 1562,-184 1590.05,-159.91 1623.79,-138.3 1600,-110 1572.54,-77.33 1445.47,-68.64 1381.7,-66.33"/>
<polygon fill="#63b8ff" stroke="#63b8ff" points="1381.78,-62.84 1371.67,-66.01 1381.55,-69.83 1381.78,-62.84"/>
</a>
</g>
</g>
<!-- Node7 -->
<g id="Node000007" class="node">
<title>Node7</title>
<g id="a_Node000007"><a xlink:title=" ">
<polygon fill="#e0e0e0" stroke="#999999" points="797,-74 747,-74 747,-55 797,-55 797,-74"/>
<text text-anchor="middle" x="772" y="-62" font-family="Helvetica,sans-Serif" font-size="10.00">cstdint</text>
</a>
</g>
</g>
<!-- Node1&#45;&gt;Node7 -->
<g id="edge35_Node000001_Node000007" class="edge">
<title>Node1&#45;&gt;Node7</title>
<g id="a_edge35_Node000001_Node000007"><a xlink:title=" ">
<path fill="none" stroke="#63b8ff" d="M748.57,-289.3C644.31,-287.56 469.57,-278.21 325,-239 268.77,-223.75 258.27,-209.75 206,-184 158.74,-160.72 128.27,-174.07 101,-129 96.63,-121.78 95.23,-116.17 101,-110 144.65,-63.36 604.04,-63.94 736.46,-65.09"/>
<polygon fill="#63b8ff" stroke="#63b8ff" points="736.81,-68.6 746.84,-65.19 736.87,-61.6 736.81,-68.6"/>
</a>
</g>
</g>
<!-- Node9 -->
<g id="Node000009" class="node">
<title>Node9</title>
<g id="a_Node000009"><a xlink:title=" ">
<polygon fill="#e0e0e0" stroke="#999999" points="865,-129 807,-129 807,-110 865,-110 865,-129"/>
<text text-anchor="middle" x="836" y="-117" font-family="Helvetica,sans-Serif" font-size="10.00">memory</text>
</a>
</g>
</g>
<!-- Node1&#45;&gt;Node9 -->
<g id="edge37_Node000001_Node000009" class="edge">
<title>Node1&#45;&gt;Node9</title>
<g id="a_edge37_Node000001_Node000009"><a xlink:title=" ">
<path fill="none" stroke="#63b8ff" d="M839.67,-274.92C838.95,-244.65 837.25,-173.35 836.45,-139.27"/>
<polygon fill="#63b8ff" stroke="#63b8ff" points="839.94,-139.17 836.21,-129.25 832.95,-139.34 839.94,-139.17"/>
</a>
</g>
</g>
<!-- Node13 -->
<g id="Node000013" class="node">
<title>Node13</title>
<g id="a_Node000013"><a xlink:title=" ">
<polygon fill="#e0e0e0" stroke="#999999" points="328,-19 284,-19 284,0 328,0 328,-19"/>
<text text-anchor="middle" x="306" y="-7" font-family="Helvetica,sans-Serif" font-size="10.00">string</text>
</a>
</g>
</g>
<!-- Node1&#45;&gt;Node13 -->
<g id="edge38_Node000001_Node000013" class="edge">
<title>Node1&#45;&gt;Node13</title>
<g id="a_edge38_Node000001_Node000013"><a xlink:title=" ">
<path fill="none" stroke="#63b8ff" d="M748.87,-284.6C611.5,-277.35 358.08,-261.45 270,-239 210.79,-223.91 193.65,-219.62 144,-184 111.75,-160.86 72.71,-143.5 94,-110 94.34,-109.47 221.03,-50.21 278.37,-23.41"/>
<polygon fill="#63b8ff" stroke="#63b8ff" points="280.02,-26.51 287.59,-19.1 277.05,-20.16 280.02,-26.51"/>
</a>
</g>
</g>
<!-- Node14 -->
<g id="Node000014" class="node">
<title>Node14</title>
<g id="a_Node000014"><a xlink:title=" ">
<polygon fill="#e0e0e0" stroke="#999999" points="1430.5,-129 1383.5,-129 1383.5,-110 1430.5,-110 1430.5,-129"/>
<text text-anchor="middle" x="1407" y="-117" font-family="Helvetica,sans-Serif" font-size="10.00">vector</text>
</a>
</g>
</g>
<!-- Node1&#45;&gt;Node14 -->
<g id="edge39_Node000001_Node000014" class="edge">
<title>Node1&#45;&gt;Node14</title>
<g id="a_edge39_Node000001_Node000014"><a xlink:title=" ">
<path fill="none" stroke="#63b8ff" d="M931.06,-286.9C1016.95,-282.88 1148.5,-271.41 1258,-239 1311.18,-223.26 1329.42,-221.79 1370,-184 1383.54,-171.39 1393.62,-152.69 1399.8,-138.84"/>
<polygon fill="#63b8ff" stroke="#63b8ff" points="1403.13,-139.96 1403.77,-129.38 1396.68,-137.25 1403.13,-139.96"/>
</a>
</g>
</g>
<!-- Node17 -->
<g id="Node000017" class="node">
<title>Node17</title>
<g id="a_Node000017"><a xlink:href="utils_8hpp.html" target="_top" xlink:title=" ">
<polygon fill="white" stroke="#666666" points="1098.5,-129 997.5,-129 997.5,-110 1098.5,-110 1098.5,-129"/>
<text text-anchor="middle" x="1048" y="-117" font-family="Helvetica,sans-Serif" font-size="10.00">uvgutils/utils.hpp</text>
</a>
</g>
</g>
<!-- Node1&#45;&gt;Node17 -->
<g id="edge66_Node000001_Node000017" class="edge">
<title>Node1&#45;&gt;Node17</title>
<g id="a_edge66_Node000001_Node000017"><a xlink:title=" ">
<path fill="none" stroke="#63b8ff" d="M854.78,-274.84C869.84,-260.59 894.04,-238.18 916,-220 954.16,-188.4 1000.89,-154.17 1027.27,-135.23"/>
<polygon fill="#63b8ff" stroke="#63b8ff" points="1029.61,-137.86 1035.7,-129.19 1025.53,-132.17 1029.61,-137.86"/>
</a>
</g>
</g>
<!-- Node20 -->
<g id="Node000020" class="node">
<title>Node20</title>
<g id="a_Node000020"><a xlink:href="log_8hpp.html" target="_top" xlink:title=" ">
<polygon fill="white" stroke="#666666" points="161.5,-74 108.5,-74 108.5,-55 161.5,-55 161.5,-74"/>
<text text-anchor="middle" x="135" y="-62" font-family="Helvetica,sans-Serif" font-size="10.00">log.hpp</text>
</a>
</g>
</g>
<!-- Node1&#45;&gt;Node20 -->
<g id="edge65_Node000001_Node000020" class="edge">
<title>Node1&#45;&gt;Node20</title>
<g id="a_edge65_Node000001_Node000020"><a xlink:title=" ">
<path fill="none" stroke="#63b8ff" d="M748.8,-286.68C542.18,-280.99 54.31,-264.85 30,-239 -9.27,-197.23 -1.66,-157.8 30,-110 45.11,-87.18 74.53,-76.03 98.39,-70.6"/>
<polygon fill="#63b8ff" stroke="#63b8ff" points="99.11,-74.02 108.21,-68.6 97.72,-67.16 99.11,-74.02"/>
</a>
</g>
</g>
<!-- Node24 -->
<g id="Node000024" class="node">
<title>Node24</title>
<g id="a_Node000024"><a xlink:title=" ">
<polygon fill="#e0e0e0" stroke="#999999" points="989,-239 925,-239 925,-220 989,-220 989,-239"/>
<text text-anchor="middle" x="957" y="-227" font-family="Helvetica,sans-Serif" font-size="10.00">algorithm</text>
</a>
</g>
</g>
<!-- Node1&#45;&gt;Node24 -->
<g id="edge30_Node000001_Node000024" class="edge">
<title>Node1&#45;&gt;Node24</title>
<g id="a_edge30_Node000001_Node000024"><a xlink:title=" ">
<path fill="none" stroke="#63b8ff" d="M868.02,-274.99C887.02,-265.49 911.97,-253.02 930.61,-243.69"/>
<polygon fill="#63b8ff" stroke="#63b8ff" points="932.34,-246.74 939.72,-239.14 929.21,-240.48 932.34,-246.74"/>
</a>
</g>
</g>
<!-- Node25 -->
<g id="Node000025" class="node">
<title>Node25</title>
<g id="a_Node000025"><a xlink:title=" ">
<polygon fill="#e0e0e0" stroke="#999999" points="1054.5,-239 1007.5,-239 1007.5,-220 1054.5,-220 1054.5,-239"/>
<text text-anchor="middle" x="1031" y="-227" font-family="Helvetica,sans-Serif" font-size="10.00">cmath</text>
</a>
</g>
</g>
<!-- Node1&#45;&gt;Node25 -->
<g id="edge33_Node000001_Node000025" class="edge">
<title>Node1&#45;&gt;Node25</title>
<g id="a_edge33_Node000001_Node000025"><a xlink:title=" ">
<path fill="none" stroke="#63b8ff" d="M885.75,-274.99C920.16,-264.45 966.52,-250.25 997.51,-240.76"/>
<polygon fill="#63b8ff" stroke="#63b8ff" points="998.86,-244 1007.4,-237.73 996.81,-237.31 998.86,-244"/>
</a>
</g>
</g>
<!-- Node26 -->
<g id="Node000026" class="node">
<title>Node26</title>
<g id="a_Node000026"><a xlink:title=" ">
<polygon fill="#e0e0e0" stroke="#999999" points="1123,-239 1073,-239 1073,-220 1123,-220 1123,-239"/>
<text text-anchor="middle" x="1098" y="-227" font-family="Helvetica,sans-Serif" font-size="10.00">cstring</text>
</a>
</g>
</g>
<!-- Node1&#45;&gt;Node26 -->
<g id="edge36_Node000001_Node000026" class="edge">
<title>Node1&#45;&gt;Node26</title>
<g id="a_edge36_Node000001_Node000026"><a xlink:title=" ">
<path fill="none" stroke="#63b8ff" d="M904.79,-274.99C947.22,-265.72 1004.11,-253.08 1062.93,-239.21"/>
<polygon fill="#63b8ff" stroke="#63b8ff" points="1063.84,-242.59 1072.77,-236.88 1062.23,-235.78 1063.84,-242.59"/>
</a>
</g>
</g>
<!-- Node27 -->
<g id="Node000027" class="node">
<title>Node27</title>
<g id="a_Node000027"><a xlink:href="bgFillAttribute_8hpp.html" target="_top" xlink:title=" ">
<polygon fill="white" stroke="#666666" points="494.5,-239 387.5,-239 387.5,-220 494.5,-220 494.5,-239"/>
<text text-anchor="middle" x="441" y="-227" font-family="Helvetica,sans-Serif" font-size="10.00">bgFillAttribute.hpp</text>
</a>
</g>
</g>
<!-- Node1&#45;&gt;Node27 -->
<g id="edge40_Node000001_Node000027" class="edge">
<title>Node1&#45;&gt;Node27</title>
<g id="a_edge40_Node000001_Node000027"><a xlink:title=" ">
<path fill="none" stroke="#63b8ff" d="M748.96,-275.65C674.4,-264.72 570.81,-249.53 504.83,-239.86"/>
<polygon fill="#63b8ff" stroke="#63b8ff" points="504.98,-236.34 494.58,-238.36 503.96,-243.27 504.98,-236.34"/>
</a>
</g>
</g>
<!-- Node28 -->
<g id="Node000028" class="node">
<title>Node28</title>
<g id="a_Node000028"><a xlink:href="bgFillGeometry_8hpp.html" target="_top" xlink:title=" ">
<polygon fill="white" stroke="#666666" points="623.5,-239 512.5,-239 512.5,-220 623.5,-220 623.5,-239"/>
<text text-anchor="middle" x="568" y="-227" font-family="Helvetica,sans-Serif" font-size="10.00">bgFillGeometry.hpp</text>
</a>
</g>
</g>
<!-- Node1&#45;&gt;Node28 -->
<g id="edge42_Node000001_Node000028" class="edge">
<title>Node1&#45;&gt;Node28</title>
<g id="a_edge42_Node000001_Node000028"><a xlink:title=" ">
<path fill="none" stroke="#63b8ff" d="M774.85,-274.99C726.59,-264.61 661.81,-250.68 617.69,-241.19"/>
<polygon fill="#63b8ff" stroke="#63b8ff" points="618.28,-237.73 607.77,-239.05 616.81,-244.58 618.28,-237.73"/>
</a>
</g>
</g>
<!-- Node29 -->
<g id="Node000029" class="node">
<title>Node29</title>
<g id="a_Node000029"><a xlink:href="fileExport_8hpp.html" target="_top" xlink:title=" ">
<polygon fill="white" stroke="#666666" points="1249,-239 1141,-239 1141,-220 1249,-220 1249,-239"/>
<text text-anchor="middle" x="1195" y="-227" font-family="Helvetica,sans-Serif" font-size="10.00">utils/fileExport.hpp</text>
</a>
</g>
</g>
<!-- Node1&#45;&gt;Node29 -->
<g id="edge44_Node000001_Node000029" class="edge">
<title>Node1&#45;&gt;Node29</title>
<g id="a_edge44_Node000001_Node000029"><a xlink:title=" ">
<path fill="none" stroke="#63b8ff" d="M925.03,-274.99C989.18,-264.42 1075.68,-250.16 1133.3,-240.67"/>
<polygon fill="#63b8ff" stroke="#63b8ff" points="1134.05,-244.09 1143.35,-239.01 1132.92,-237.18 1134.05,-244.09"/>
</a>
</g>
</g>
<!-- Node31 -->
<g id="Node000031" class="node">
<title>Node31</title>
<g id="a_Node000031"><a xlink:href="parameters_8hpp.html" target="_top" xlink:title=" ">
<polygon fill="white" stroke="#666666" points="1553,-184 1435,-184 1435,-165 1553,-165 1553,-184"/>
<text text-anchor="middle" x="1494" y="-172" font-family="Helvetica,sans-Serif" font-size="10.00">utils/parameters.hpp</text>
</a>
</g>
</g>
<!-- Node1&#45;&gt;Node31 -->
<g id="edge59_Node000001_Node000031" class="edge">
<title>Node1&#45;&gt;Node31</title>
<g id="a_edge59_Node000001_Node000031"><a xlink:title=" ">
<path fill="none" stroke="#63b8ff" d="M931.1,-288C1071.9,-285.3 1335.13,-275.4 1421,-239 1445.27,-228.71 1467.22,-207.17 1480.57,-192.05"/>
<polygon fill="#63b8ff" stroke="#63b8ff" points="1483.25,-194.3 1487.06,-184.41 1477.92,-189.76 1483.25,-194.3"/>
</a>
</g>
</g>
<!-- Node2&#45;&gt;Node3 -->
<g id="edge2_Node000002_Node000003" class="edge">
<title>Node2&#45;&gt;Node3</title>
<g id="a_edge2_Node000002_Node000003"><a xlink:title=" ">
<path fill="none" stroke="#63b8ff" d="M698,-219.75C698,-212.8 698,-202.85 698,-194.13"/>
<polygon fill="#63b8ff" stroke="#63b8ff" points="701.5,-194.09 698,-184.09 694.5,-194.09 701.5,-194.09"/>
</a>
</g>
</g>
<!-- Node3&#45;&gt;Node4 -->
<g id="edge3_Node000003_Node000004" class="edge">
<title>Node3&#45;&gt;Node4</title>
<g id="a_edge3_Node000003_Node000004"><a xlink:title=" ">
<path fill="none" stroke="#63b8ff" d="M704.89,-164.81C716.09,-151.22 739.59,-124.96 765,-110 799.82,-89.49 845.14,-77.38 874.88,-71.09"/>
<polygon fill="#63b8ff" stroke="#63b8ff" points="875.59,-74.52 884.7,-69.11 874.21,-67.66 875.59,-74.52"/>
</a>
</g>
</g>
<!-- Node3&#45;&gt;Node5 -->
<g id="edge4_Node000003_Node000005" class="edge">
<title>Node3&#45;&gt;Node5</title>
<g id="a_edge4_Node000003_Node000005"><a xlink:title=" ">
<path fill="none" stroke="#63b8ff" d="M636.64,-170.75C538.78,-165.8 341.54,-153.55 176,-129 174.74,-128.81 173.45,-128.61 172.16,-128.39"/>
<polygon fill="#63b8ff" stroke="#63b8ff" points="172.64,-124.92 162.17,-126.55 171.36,-131.81 172.64,-124.92"/>
</a>
</g>
</g>
<!-- Node3&#45;&gt;Node6 -->
<g id="edge5_Node000003_Node000006" class="edge">
<title>Node3&#45;&gt;Node6</title>
<g id="a_edge5_Node000003_Node000006"><a xlink:title=" ">
<path fill="none" stroke="#63b8ff" d="M759.21,-169.8C839.72,-164.27 985.37,-151.94 1108,-129 1180.17,-115.5 1262.59,-91.39 1308.74,-77.08"/>
<polygon fill="#63b8ff" stroke="#63b8ff" points="1309.79,-80.42 1318.3,-74.1 1307.71,-73.74 1309.79,-80.42"/>
</a>
</g>
</g>
<!-- Node3&#45;&gt;Node7 -->
<g id="edge6_Node000003_Node000007" class="edge">
<title>Node3&#45;&gt;Node7</title>
<g id="a_edge6_Node000003_Node000007"><a xlink:title=" ">
<path fill="none" stroke="#63b8ff" d="M700.85,-164.76C705.25,-152.01 714.51,-127.88 727,-110 734.51,-99.24 744.81,-88.84 753.66,-80.79"/>
<polygon fill="#63b8ff" stroke="#63b8ff" points="756.05,-83.36 761.26,-74.13 751.43,-78.09 756.05,-83.36"/>
</a>
</g>
</g>
<!-- Node8 -->
<g id="Node000008" class="node">
<title>Node8</title>
<g id="a_Node000008"><a xlink:title=" ">
<polygon fill="#e0e0e0" stroke="#999999" points="60,-19 0,-19 0,0 60,0 60,-19"/>
<text text-anchor="middle" x="30" y="-7" font-family="Helvetica,sans-Serif" font-size="10.00">iostream</text>
</a>
</g>
</g>
<!-- Node3&#45;&gt;Node8 -->
<g id="edge7_Node000003_Node000008" class="edge">
<title>Node3&#45;&gt;Node8</title>
<g id="a_edge7_Node000003_Node000008"><a xlink:title=" ">
<path fill="none" stroke="#63b8ff" d="M636.77,-173.19C547.25,-171.5 375.99,-163.51 235,-129 203.33,-121.25 126.55,-91.43 99,-74 78.07,-60.76 57.65,-40.83 44.52,-26.84"/>
<polygon fill="#63b8ff" stroke="#63b8ff" points="47.02,-24.39 37.69,-19.38 41.86,-29.12 47.02,-24.39"/>
</a>
</g>
</g>
<!-- Node3&#45;&gt;Node9 -->
<g id="edge8_Node000003_Node000009" class="edge">
<title>Node3&#45;&gt;Node9</title>
<g id="a_edge8_Node000003_Node000009"><a xlink:title=" ">
<path fill="none" stroke="#63b8ff" d="M720.17,-164.98C742.77,-156.3 778.06,-142.75 803.75,-132.88"/>
<polygon fill="#63b8ff" stroke="#63b8ff" points="805.34,-136.02 813.42,-129.17 802.83,-129.49 805.34,-136.02"/>
</a>
</g>
</g>
<!-- Node10 -->
<g id="Node000010" class="node">
<title>Node10</title>
<g id="a_Node000010"><a xlink:title=" ">
<polygon fill="#e0e0e0" stroke="#999999" points="585.5,-129 538.5,-129 538.5,-110 585.5,-110 585.5,-129"/>
<text text-anchor="middle" x="562" y="-117" font-family="Helvetica,sans-Serif" font-size="10.00">queue</text>
</a>
</g>
</g>
<!-- Node3&#45;&gt;Node10 -->
<g id="edge9_Node000003_Node000010" class="edge">
<title>Node3&#45;&gt;Node10</title>
<g id="a_edge9_Node000003_Node000010"><a xlink:title=" ">
<path fill="none" stroke="#63b8ff" d="M676.15,-164.98C653.88,-156.3 619.1,-142.75 593.78,-132.88"/>
<polygon fill="#63b8ff" stroke="#63b8ff" points="594.84,-129.54 584.25,-129.17 592.29,-136.06 594.84,-129.54"/>
</a>
</g>
</g>
<!-- Node11 -->
<g id="Node000011" class="node">
<title>Node11</title>
<g id="a_Node000011"><a xlink:title=" ">
<polygon fill="#e0e0e0" stroke="#999999" points="674.5,-129 603.5,-129 603.5,-110 674.5,-110 674.5,-129"/>
<text text-anchor="middle" x="639" y="-117" font-family="Helvetica,sans-Serif" font-size="10.00">semaphore</text>
</a>
</g>
</g>
<!-- Node3&#45;&gt;Node11 -->
<g id="edge10_Node000003_Node000011" class="edge">
<title>Node3&#45;&gt;Node11</title>
<g id="a_edge10_Node000003_Node000011"><a xlink:title=" ">
<path fill="none" stroke="#63b8ff" d="M688.52,-164.98C679.8,-157.15 666.66,-145.34 656.1,-135.86"/>
<polygon fill="#63b8ff" stroke="#63b8ff" points="658.43,-133.25 648.65,-129.17 653.75,-138.46 658.43,-133.25"/>
</a>
</g>
</g>
<!-- Node12 -->
<g id="Node000012" class="node">
<title>Node12</title>
<g id="a_Node000012"><a xlink:title=" ">
<polygon fill="#e0e0e0" stroke="#999999" points="1111,-74 1055,-74 1055,-55 1111,-55 1111,-74"/>
<text text-anchor="middle" x="1083" y="-62" font-family="Helvetica,sans-Serif" font-size="10.00">sstream</text>
</a>
</g>
</g>
<!-- Node3&#45;&gt;Node12 -->
<g id="edge11_Node000003_Node000012" class="edge">
<title>Node3&#45;&gt;Node12</title>
<g id="a_edge11_Node000003_Node000012"><a xlink:title=" ">
<path fill="none" stroke="#63b8ff" d="M711.11,-164.75C736.05,-148.17 788.67,-113.52 798,-110 882.31,-78.23 988.87,-69.14 1044.77,-66.54"/>
<polygon fill="#63b8ff" stroke="#63b8ff" points="1045.09,-70.03 1054.93,-66.11 1044.79,-63.03 1045.09,-70.03"/>
</a>
</g>
</g>
<!-- Node3&#45;&gt;Node13 -->
<g id="edge12_Node000003_Node000013" class="edge">
<title>Node3&#45;&gt;Node13</title>
<g id="a_edge12_Node000003_Node000013"><a xlink:title=" ">
<path fill="none" stroke="#63b8ff" d="M636.87,-171.94C519.68,-168.31 272.69,-157.35 247,-129 218.61,-97.67 261.49,-50.17 287.87,-25.92"/>
<polygon fill="#63b8ff" stroke="#63b8ff" points="290.29,-28.45 295.43,-19.19 285.64,-23.23 290.29,-28.45"/>
</a>
</g>
</g>
<!-- Node3&#45;&gt;Node14 -->
<g id="edge13_Node000003_Node000014" class="edge">
<title>Node3&#45;&gt;Node14</title>
<g id="a_edge13_Node000003_Node000014"><a xlink:title=" ">
<path fill="none" stroke="#63b8ff" d="M759.06,-168.94C903.38,-158.15 1261.74,-131.36 1373.3,-123.02"/>
<polygon fill="#63b8ff" stroke="#63b8ff" points="1373.6,-126.51 1383.31,-122.27 1373.08,-119.53 1373.6,-126.51"/>
</a>
</g>
</g>
<!-- Node15 -->
<g id="Node000015" class="node">
<title>Node15</title>
<g id="a_Node000015"><a xlink:title=" ">
<polygon fill="#e0e0e0" stroke="#999999" points="383.5,-129 256.5,-129 256.5,-110 383.5,-110 383.5,-129"/>
<text text-anchor="middle" x="320" y="-117" font-family="Helvetica,sans-Serif" font-size="10.00">../utils/parameters.hpp</text>
</a>
</g>
</g>
<!-- Node3&#45;&gt;Node15 -->
<g id="edge14_Node000003_Node000015" class="edge">
<title>Node3&#45;&gt;Node15</title>
<g id="a_edge14_Node000003_Node000015"><a xlink:title=" ">
<path fill="none" stroke="#63b8ff" d="M637.27,-164.98C570.13,-155.57 462.12,-140.43 391.1,-130.47"/>
<polygon fill="#63b8ff" stroke="#63b8ff" points="391.28,-126.96 380.89,-129.04 390.31,-133.89 391.28,-126.96"/>
</a>
</g>
</g>
<!-- Node16 -->
<g id="Node000016" class="node">
<title>Node16</title>
<g id="a_Node000016"><a xlink:title=" ">
<polygon fill="#e0e0e0" stroke="#999999" points="520,-129 402,-129 402,-110 520,-110 520,-129"/>
<text text-anchor="middle" x="461" y="-117" font-family="Helvetica,sans-Serif" font-size="10.00">../utils/constants.hpp</text>
</a>
</g>
</g>
<!-- Node3&#45;&gt;Node16 -->
<g id="edge15_Node000003_Node000016" class="edge">
<title>Node3&#45;&gt;Node16</title>
<g id="a_edge15_Node000003_Node000016"><a xlink:title=" ">
<path fill="none" stroke="#63b8ff" d="M659.92,-164.98C619.01,-155.84 553.89,-141.27 509.38,-131.32"/>
<polygon fill="#63b8ff" stroke="#63b8ff" points="509.9,-127.85 499.38,-129.08 508.37,-134.68 509.9,-127.85"/>
</a>
</g>
</g>
<!-- Node3&#45;&gt;Node17 -->
<g id="edge16_Node000003_Node000017" class="edge">
<title>Node3&#45;&gt;Node17</title>
<g id="a_edge16_Node000003_Node000017"><a xlink:title=" ">
<path fill="none" stroke="#63b8ff" d="M754.23,-164.98C817.97,-155.33 921.51,-139.65 987.12,-129.72"/>
<polygon fill="#63b8ff" stroke="#63b8ff" points="987.94,-133.13 997.31,-128.18 986.9,-126.21 987.94,-133.13"/>
</a>
</g>
</g>
<!-- Node17&#45;&gt;Node4 -->
<g id="edge17_Node000017_Node000004" class="edge">
<title>Node17&#45;&gt;Node4</title>
<g id="a_edge17_Node000017_Node000004"><a xlink:title=" ">
<path fill="none" stroke="#63b8ff" d="M1025.19,-109.98C1001.27,-101.06 963.55,-86.98 936.96,-77.05"/>
<polygon fill="#63b8ff" stroke="#63b8ff" points="937.96,-73.69 927.36,-73.47 935.51,-80.25 937.96,-73.69"/>
</a>
</g>
</g>
<!-- Node17&#45;&gt;Node6 -->
<g id="edge18_Node000017_Node000006" class="edge">
<title>Node17&#45;&gt;Node6</title>
<g id="a_edge18_Node000017_Node000006"><a xlink:title=" ">
<path fill="none" stroke="#63b8ff" d="M1095.72,-109.98C1154.9,-99.42 1254.53,-81.65 1308.16,-72.07"/>
<polygon fill="#63b8ff" stroke="#63b8ff" points="1309.02,-75.48 1318.25,-70.27 1307.79,-68.59 1309.02,-75.48"/>
</a>
</g>
</g>
<!-- Node17&#45;&gt;Node7 -->
<g id="edge19_Node000017_Node000007" class="edge">
<title>Node17&#45;&gt;Node7</title>
<g id="a_edge19_Node000017_Node000007"><a xlink:title=" ">
<path fill="none" stroke="#63b8ff" d="M1003.66,-109.98C949.03,-99.49 857.33,-81.88 807.25,-72.27"/>
<polygon fill="#63b8ff" stroke="#63b8ff" points="807.71,-68.79 797.22,-70.34 806.39,-75.67 807.71,-68.79"/>
</a>
</g>
</g>
<!-- Node17&#45;&gt;Node12 -->
<g id="edge22_Node000017_Node000012" class="edge">
<title>Node17&#45;&gt;Node12</title>
<g id="a_edge22_Node000017_Node000012"><a xlink:title=" ">
<path fill="none" stroke="#63b8ff" d="M1053.78,-109.75C1058.62,-102.42 1065.68,-91.73 1071.64,-82.7"/>
<polygon fill="#63b8ff" stroke="#63b8ff" points="1074.74,-84.36 1077.33,-74.09 1068.9,-80.5 1074.74,-84.36"/>
</a>
</g>
</g>
<!-- Node18 -->
<g id="Node000018" class="node">
<title>Node18</title>
<g id="a_Node000018"><a xlink:title=" ">
<polygon fill="#e0e0e0" stroke="#999999" points="1055,-19 999,-19 999,0 1055,0 1055,-19"/>
<text text-anchor="middle" x="1027" y="-7" font-family="Helvetica,sans-Serif" font-size="10.00">iomanip</text>
</a>
</g>
</g>
<!-- Node17&#45;&gt;Node18 -->
<g id="edge20_Node000017_Node000018" class="edge">
<title>Node17&#45;&gt;Node18</title>
<g id="a_edge20_Node000017_Node000018"><a xlink:title=" ">
<path fill="none" stroke="#63b8ff" d="M1046.28,-109.66C1042.88,-92.17 1035.23,-52.8 1030.65,-29.27"/>
<polygon fill="#63b8ff" stroke="#63b8ff" points="1034.03,-28.31 1028.68,-19.16 1027.16,-29.64 1034.03,-28.31"/>
</a>
</g>
</g>
<!-- Node19 -->
<g id="Node000019" class="node">
<title>Node19</title>
<g id="a_Node000019"><a xlink:title=" ">
<polygon fill="#e0e0e0" stroke="#999999" points="1199,-74 1155,-74 1155,-55 1199,-55 1199,-74"/>
<text text-anchor="middle" x="1177" y="-62" font-family="Helvetica,sans-Serif" font-size="10.00">limits</text>
</a>
</g>
</g>
<!-- Node17&#45;&gt;Node19 -->
<g id="edge21_Node000017_Node000019" class="edge">
<title>Node17&#45;&gt;Node19</title>
<g id="a_edge21_Node000017_Node000019"><a xlink:title=" ">
<path fill="none" stroke="#63b8ff" d="M1068.73,-109.98C1089.76,-101.34 1122.55,-87.87 1146.54,-78.02"/>
<polygon fill="#63b8ff" stroke="#63b8ff" points="1147.98,-81.21 1155.9,-74.17 1145.32,-74.73 1147.98,-81.21"/>
</a>
</g>
</g>
<!-- Node17&#45;&gt;Node20 -->
<g id="edge23_Node000017_Node000020" class="edge">
<title>Node17&#45;&gt;Node20</title>
<g id="a_edge23_Node000017_Node000020"><a xlink:title=" ">
<path fill="none" stroke="#63b8ff" d="M997.29,-115.56C832.43,-105.99 314.12,-75.9 171.59,-67.62"/>
<polygon fill="#63b8ff" stroke="#63b8ff" points="171.79,-64.13 161.61,-67.04 171.39,-71.12 171.79,-64.13"/>
</a>
</g>
</g>
<!-- Node20&#45;&gt;Node8 -->
<g id="edge27_Node000020_Node000008" class="edge">
<title>Node20&#45;&gt;Node8</title>
<g id="a_edge27_Node000020_Node000008"><a xlink:title=" ">
<path fill="none" stroke="#63b8ff" d="M118.13,-54.98C101.39,-46.54 75.5,-33.47 56.11,-23.68"/>
<polygon fill="#63b8ff" stroke="#63b8ff" points="57.68,-20.55 47.18,-19.17 54.53,-26.8 57.68,-20.55"/>
</a>
</g>
</g>
<!-- Node20&#45;&gt;Node13 -->
<g id="edge29_Node000020_Node000013" class="edge">
<title>Node20&#45;&gt;Node13</title>
<g id="a_edge29_Node000020_Node000013"><a xlink:title=" ">
<path fill="none" stroke="#63b8ff" d="M161.72,-55.22C192.06,-45.81 241.55,-30.48 273.95,-20.43"/>
<polygon fill="#63b8ff" stroke="#63b8ff" points="275.3,-23.68 283.82,-17.37 273.23,-16.99 275.3,-23.68"/>
</a>
</g>
</g>
<!-- Node20&#45;&gt;Node18 -->
<g id="edge26_Node000020_Node000018" class="edge">
<title>Node20&#45;&gt;Node18</title>
<g id="a_edge26_Node000020_Node000018"><a xlink:title=" ">
<path fill="none" stroke="#63b8ff" d="M161.7,-61.91C289.37,-54.33 837.69,-21.75 988.49,-12.79"/>
<polygon fill="#63b8ff" stroke="#63b8ff" points="988.87,-16.27 998.65,-12.18 988.46,-9.28 988.87,-16.27"/>
</a>
</g>
</g>
<!-- Node21 -->
<g id="Node000021" class="node">
<title>Node21</title>
<g id="a_Node000021"><a xlink:title=" ">
<polygon fill="#e0e0e0" stroke="#999999" points="194,-19 144,-19 144,0 194,0 194,-19"/>
<text text-anchor="middle" x="169" y="-7" font-family="Helvetica,sans-Serif" font-size="10.00">chrono</text>
</a>
</g>
</g>
<!-- Node20&#45;&gt;Node21 -->
<g id="edge24_Node000020_Node000021" class="edge">
<title>Node20&#45;&gt;Node21</title>
<g id="a_edge24_Node000020_Node000021"><a xlink:title=" ">
<path fill="none" stroke="#63b8ff" d="M140.61,-54.75C145.32,-47.42 152.17,-36.73 157.97,-27.7"/>
<polygon fill="#63b8ff" stroke="#63b8ff" points="161.04,-29.4 163.49,-19.09 155.14,-25.62 161.04,-29.4"/>
</a>
</g>
</g>
<!-- Node22 -->
<g id="Node000022" class="node">
<title>Node22</title>
<g id="a_Node000022"><a xlink:title=" ">
<polygon fill="#e0e0e0" stroke="#999999" points="265.5,-19 212.5,-19 212.5,0 265.5,0 265.5,-19"/>
<text text-anchor="middle" x="239" y="-7" font-family="Helvetica,sans-Serif" font-size="10.00">cstdarg</text>
</a>
</g>
</g>
<!-- Node20&#45;&gt;Node22 -->
<g id="edge25_Node000020_Node000022" class="edge">
<title>Node20&#45;&gt;Node22</title>
<g id="a_edge25_Node000020_Node000022"><a xlink:title=" ">
<path fill="none" stroke="#63b8ff" d="M151.71,-54.98C168.21,-46.57 193.7,-33.59 212.88,-23.81"/>
<polygon fill="#63b8ff" stroke="#63b8ff" points="214.67,-26.83 221.99,-19.17 211.49,-20.59 214.67,-26.83"/>
</a>
</g>
</g>
<!-- Node23 -->
<g id="Node000023" class="node">
<title>Node23</title>
<g id="a_Node000023"><a xlink:title=" ">
<polygon fill="#e0e0e0" stroke="#999999" points="126,-19 78,-19 78,0 126,0 126,-19"/>
<text text-anchor="middle" x="102" y="-7" font-family="Helvetica,sans-Serif" font-size="10.00">mutex</text>
</a>
</g>
</g>
<!-- Node20&#45;&gt;Node23 -->
<g id="edge28_Node000020_Node000023" class="edge">
<title>Node20&#45;&gt;Node23</title>
<g id="a_edge28_Node000020_Node000023"><a xlink:title=" ">
<path fill="none" stroke="#63b8ff" d="M129.55,-54.75C124.99,-47.42 118.33,-36.73 112.71,-27.7"/>
<polygon fill="#63b8ff" stroke="#63b8ff" points="115.6,-25.73 107.35,-19.09 109.66,-29.43 115.6,-25.73"/>
</a>
</g>
</g>
<!-- Node27&#45;&gt;Node3 -->
<g id="edge41_Node000027_Node000003" class="edge">
<title>Node27&#45;&gt;Node3</title>
<g id="a_edge41_Node000027_Node000003"><a xlink:title=" ">
<path fill="none" stroke="#63b8ff" d="M482.29,-219.98C526.93,-210.78 598.16,-196.09 646.45,-186.13"/>
<polygon fill="#63b8ff" stroke="#63b8ff" points="647.3,-189.53 656.38,-184.08 645.88,-182.67 647.3,-189.53"/>
</a>
</g>
</g>
<!-- Node28&#45;&gt;Node3 -->
<g id="edge43_Node000028_Node000003" class="edge">
<title>Node28&#45;&gt;Node3</title>
<g id="a_edge43_Node000028_Node000003"><a xlink:title=" ">
<path fill="none" stroke="#63b8ff" d="M588.89,-219.98C610.08,-211.34 643.13,-197.87 667.3,-188.02"/>
<polygon fill="#63b8ff" stroke="#63b8ff" points="668.79,-191.19 676.73,-184.17 666.15,-184.7 668.79,-191.19"/>
</a>
</g>
</g>
<!-- Node29&#45;&gt;Node3 -->
<g id="edge58_Node000029_Node000003" class="edge">
<title>Node29&#45;&gt;Node3</title>
<g id="a_edge58_Node000029_Node000003"><a xlink:title=" ">
<path fill="none" stroke="#63b8ff" d="M1140.72,-221.06C1137.77,-220.7 1134.85,-220.34 1132,-220 1004.43,-204.86 855.4,-190.25 769.34,-182.11"/>
<polygon fill="#63b8ff" stroke="#63b8ff" points="769.44,-178.6 759.16,-181.15 768.79,-185.57 769.44,-178.6"/>
</a>
</g>
</g>
<!-- Node29&#45;&gt;Node6 -->
<g id="edge45_Node000029_Node000006" class="edge">
<title>Node29&#45;&gt;Node6</title>
<g id="a_edge45_Node000029_Node000006"><a xlink:title=" ">
<path fill="none" stroke="#63b8ff" d="M1209.09,-219.99C1233.65,-204.56 1284.67,-169.75 1316,-129 1326.49,-115.35 1334.27,-97.3 1339.11,-83.94"/>
<polygon fill="#63b8ff" stroke="#63b8ff" points="1342.45,-84.99 1342.37,-74.39 1335.83,-82.73 1342.45,-84.99"/>
</a>
</g>
</g>
<!-- Node29&#45;&gt;Node9 -->
<g id="edge46_Node000029_Node000009" class="edge">
<title>Node29&#45;&gt;Node9</title>
<g id="a_edge46_Node000029_Node000009"><a xlink:title=" ">
<path fill="none" stroke="#63b8ff" d="M1140.93,-220.17C1082.05,-210.77 991.87,-195.31 959,-184 921.89,-171.23 882.07,-148.91 858.1,-134.42"/>
<polygon fill="#63b8ff" stroke="#63b8ff" points="859.79,-131.35 849.43,-129.11 856.13,-137.32 859.79,-131.35"/>
</a>
</g>
</g>
<!-- Node29&#45;&gt;Node13 -->
<g id="edge47_Node000029_Node000013" class="edge">
<title>Node29&#45;&gt;Node13</title>
<g id="a_edge47_Node000029_Node000013"><a xlink:title=" ">
<path fill="none" stroke="#63b8ff" d="M1173.86,-219.97C1152.88,-211.36 1119.9,-197.45 1092,-184 1045.25,-161.47 1028.02,-163.21 989,-129 958.58,-102.33 971.31,-74.75 936,-55 883.57,-25.68 459.28,-13.95 338.17,-11.18"/>
<polygon fill="#63b8ff" stroke="#63b8ff" points="338.12,-7.68 328.05,-10.95 337.97,-14.68 338.12,-7.68"/>
</a>
</g>
</g>
<!-- Node29&#45;&gt;Node14 -->
<g id="edge48_Node000029_Node000014" class="edge">
<title>Node29&#45;&gt;Node14</title>
<g id="a_edge48_Node000029_Node000014"><a xlink:title=" ">
<path fill="none" stroke="#63b8ff" d="M1246.62,-219.95C1276.85,-213.35 1314.88,-202.17 1345,-184 1365.1,-171.87 1383.24,-151.68 1394.63,-137.33"/>
<polygon fill="#63b8ff" stroke="#63b8ff" points="1397.5,-139.33 1400.81,-129.27 1391.95,-135.08 1397.5,-139.33"/>
</a>
</g>
</g>
<!-- Node29&#45;&gt;Node17 -->
<g id="edge57_Node000029_Node000017" class="edge">
<title>Node29&#45;&gt;Node17</title>
<g id="a_edge57_Node000029_Node000017"><a xlink:title=" ">
<path fill="none" stroke="#63b8ff" d="M1178.09,-219.86C1162.28,-211.5 1138.28,-198.05 1119,-184 1098.89,-169.35 1077.89,-149.98 1064,-136.51"/>
<polygon fill="#63b8ff" stroke="#63b8ff" points="1066.28,-133.84 1056.7,-129.33 1061.38,-138.84 1066.28,-133.84"/>
</a>
</g>
</g>
<!-- Node30 -->
<g id="Node000030" class="node">
<title>Node30</title>
<g id="a_Node000030"><a xlink:href="constants_8hpp.html" target="_top" xlink:title=" ">
<polygon fill="white" stroke="#666666" points="1236.5,-184 1127.5,-184 1127.5,-165 1236.5,-165 1236.5,-184"/>
<text text-anchor="middle" x="1182" y="-172" font-family="Helvetica,sans-Serif" font-size="10.00">utils/constants.hpp</text>
</a>
</g>
</g>
<!-- Node29&#45;&gt;Node30 -->
<g id="edge49_Node000029_Node000030" class="edge">
<title>Node29&#45;&gt;Node30</title>
<g id="a_edge49_Node000029_Node000030"><a xlink:title=" ">
<path fill="none" stroke="#63b8ff" d="M1192.85,-219.75C1191.13,-212.72 1188.65,-202.62 1186.5,-193.84"/>
<polygon fill="#63b8ff" stroke="#63b8ff" points="1189.89,-192.97 1184.11,-184.09 1183.09,-194.63 1189.89,-192.97"/>
</a>
</g>
</g>
<!-- Node30&#45;&gt;Node4 -->
<g id="edge50_Node000030_Node000004" class="edge">
<title>Node30&#45;&gt;Node4</title>
<g id="a_edge50_Node000030_Node000004"><a xlink:title=" ">
<path fill="none" stroke="#63b8ff" d="M1174.35,-164.56C1161.91,-150.63 1135.87,-123.91 1108,-110 1051.96,-82.03 978.52,-71.51 937.4,-67.65"/>
<polygon fill="#63b8ff" stroke="#63b8ff" points="937.45,-64.15 927.18,-66.77 936.84,-71.12 937.45,-64.15"/>
</a>
</g>
</g>
<!-- Node30&#45;&gt;Node6 -->
<g id="edge51_Node000030_Node000006" class="edge">
<title>Node30&#45;&gt;Node6</title>
<g id="a_edge51_Node000030_Node000006"><a xlink:title=" ">
<path fill="none" stroke="#63b8ff" d="M1215.28,-164.96C1238.56,-157.89 1269.56,-146.19 1293,-129 1310.18,-116.4 1325.02,-96.86 1334.41,-82.78"/>
<polygon fill="#63b8ff" stroke="#63b8ff" points="1337.55,-84.37 1339.99,-74.06 1331.65,-80.6 1337.55,-84.37"/>
</a>
</g>
</g>
<!-- Node30&#45;&gt;Node7 -->
<g id="edge52_Node000030_Node000007" class="edge">
<title>Node30&#45;&gt;Node7</title>
<g id="a_edge52_Node000030_Node000007"><a xlink:title=" ">
<path fill="none" stroke="#63b8ff" d="M1141.91,-164.97C1102.76,-156.47 1041.56,-142.74 989,-129 924.31,-112.09 849.63,-89.57 806.9,-76.39"/>
<polygon fill="#63b8ff" stroke="#63b8ff" points="807.84,-73.02 797.26,-73.41 805.78,-79.71 807.84,-73.02"/>
</a>
</g>
</g>
<!-- Node30&#45;&gt;Node12 -->
<g id="edge55_Node000030_Node000012" class="edge">
<title>Node30&#45;&gt;Node12</title>
<g id="a_edge55_Node000030_Node000012"><a xlink:title=" ">
<path fill="none" stroke="#63b8ff" d="M1177.54,-164.62C1170.78,-151.7 1157.01,-127.37 1141,-110 1130.55,-98.66 1116.95,-88.06 1105.55,-80.05"/>
<polygon fill="#63b8ff" stroke="#63b8ff" points="1107.21,-76.95 1096.98,-74.22 1103.27,-82.74 1107.21,-76.95"/>
</a>
</g>
</g>
<!-- Node30&#45;&gt;Node17 -->
<g id="edge56_Node000030_Node000017" class="edge">
<title>Node30&#45;&gt;Node17</title>
<g id="a_edge56_Node000030_Node000017"><a xlink:title=" ">
<path fill="none" stroke="#63b8ff" d="M1160.47,-164.98C1138.53,-156.3 1104.26,-142.75 1079.31,-132.88"/>
<polygon fill="#63b8ff" stroke="#63b8ff" points="1080.51,-129.59 1069.92,-129.17 1077.93,-136.1 1080.51,-129.59"/>
</a>
</g>
</g>
<!-- Node30&#45;&gt;Node18 -->
<g id="edge53_Node000030_Node000018" class="edge">
<title>Node30&#45;&gt;Node18</title>
<g id="a_edge53_Node000030_Node000018"><a xlink:title=" ">
<path fill="none" stroke="#63b8ff" d="M1188.27,-164.69C1202.57,-143.45 1234.38,-88.65 1208,-55 1190.61,-32.82 1113.06,-20.22 1065.29,-14.43"/>
<polygon fill="#63b8ff" stroke="#63b8ff" points="1065.63,-10.95 1055.29,-13.27 1064.82,-17.9 1065.63,-10.95"/>
</a>
</g>
</g>
<!-- Node30&#45;&gt;Node19 -->
<g id="edge54_Node000030_Node000019" class="edge">
<title>Node30&#45;&gt;Node19</title>
<g id="a_edge54_Node000030_Node000019"><a xlink:title=" ">
<path fill="none" stroke="#63b8ff" d="M1181.59,-164.66C1180.78,-147.17 1178.96,-107.8 1177.87,-84.27"/>
<polygon fill="#63b8ff" stroke="#63b8ff" points="1181.36,-83.99 1177.4,-74.16 1174.37,-84.31 1181.36,-83.99"/>
</a>
</g>
</g>
<!-- Node31&#45;&gt;Node6 -->
<g id="edge60_Node000031_Node000006" class="edge">
<title>Node31&#45;&gt;Node6</title>
<g id="a_edge60_Node000031_Node000006"><a xlink:title=" ">
<path fill="none" stroke="#63b8ff" d="M1488.32,-164.66C1479.4,-151.34 1460.93,-125.98 1440,-110 1422,-96.26 1399.08,-85.37 1380.26,-77.8"/>
<polygon fill="#63b8ff" stroke="#63b8ff" points="1381.43,-74.5 1370.84,-74.15 1378.9,-81.03 1381.43,-74.5"/>
</a>
</g>
</g>
<!-- Node31&#45;&gt;Node13 -->
<g id="edge62_Node000031_Node000013" class="edge">
<title>Node31&#45;&gt;Node13</title>
<g id="a_edge62_Node000031_Node000013"><a xlink:title=" ">
<path fill="none" stroke="#63b8ff" d="M1491.57,-164.86C1487.56,-151.79 1478.52,-126.78 1464,-110 1435.04,-76.54 1423.1,-68.64 1381,-55 1279.77,-22.21 507.07,-12.54 338.44,-10.81"/>
<polygon fill="#63b8ff" stroke="#63b8ff" points="338.47,-7.31 328.43,-10.71 338.4,-14.31 338.47,-7.31"/>
</a>
</g>
</g>
<!-- Node31&#45;&gt;Node14 -->
<g id="edge63_Node000031_Node000014" class="edge">
<title>Node31&#45;&gt;Node14</title>
<g id="a_edge63_Node000031_Node000014"><a xlink:title=" ">
<path fill="none" stroke="#63b8ff" d="M1480.02,-164.98C1466.53,-156.77 1445.87,-144.18 1429.96,-134.49"/>
<polygon fill="#63b8ff" stroke="#63b8ff" points="1431.59,-131.38 1421.23,-129.17 1427.95,-137.36 1431.59,-131.38"/>
</a>
</g>
</g>
<!-- Node31&#45;&gt;Node17 -->
<g id="edge64_Node000031_Node000017" class="edge">
<title>Node31&#45;&gt;Node17</title>
<g id="a_edge64_Node000031_Node000017"><a xlink:title=" ">
<path fill="none" stroke="#63b8ff" d="M1434.77,-166.46C1349.96,-156.38 1194.69,-137.93 1108.94,-127.74"/>
<polygon fill="#63b8ff" stroke="#63b8ff" points="1109.18,-124.25 1098.83,-126.54 1108.35,-131.2 1109.18,-124.25"/>
</a>
</g>
</g>
<!-- Node32 -->
<g id="Node000032" class="node">
<title>Node32</title>
<g id="a_Node000032"><a xlink:title=" ">
<polygon fill="#e0e0e0" stroke="#999999" points="1590.5,-129 1525.5,-129 1525.5,-110 1590.5,-110 1590.5,-129"/>
<text text-anchor="middle" x="1558" y="-117" font-family="Helvetica,sans-Serif" font-size="10.00">stdexcept</text>
</a>
</g>
</g>
<!-- Node31&#45;&gt;Node32 -->
<g id="edge61_Node000031_Node000032" class="edge">
<title>Node31&#45;&gt;Node32</title>
<g id="a_edge61_Node000031_Node000032"><a xlink:title=" ">
<path fill="none" stroke="#63b8ff" d="M1504.28,-164.98C1513.84,-157.07 1528.28,-145.11 1539.78,-135.58"/>
<polygon fill="#63b8ff" stroke="#63b8ff" points="1542.06,-138.24 1547.53,-129.17 1537.6,-132.85 1542.06,-138.24"/>
</a>
</g>
</g>
</g>
</svg>
