<?xml version="1.0" encoding="UTF-8" standalone="no"?>
<!DOCTYPE svg PUBLIC "-//W3C//DTD SVG 1.1//EN"
 "http://www.w3.org/Graphics/SVG/1.1/DTD/svg11.dtd">
<!-- Generated by graphviz version 2.43.0 (0)
 -->
<!-- Title: uvgutils::zeroPad Pages: 1 -->
<!--zoomable 906 -->

<svg id="main" version="1.1" xmlns="http://www.w3.org/2000/svg" xmlns:xlink="http://www.w3.org/1999/xlink" xml:space="preserve" onload="init(evt)">
<style type="text/css"><![CDATA[
.node, .edge {opacity: 0.7;}
.node.selected, .edge.selected {opacity: 1;}
.edge:hover path { stroke: red; }
.edge:hover polygon { stroke: red; fill: red; }
]]></style>

<defs>
  <circle id="rim" cx="0" cy="0" r="7"/>
  <circle id="rim2" cx="0" cy="0" r="3.5"/>
  <g id="zoomPlus">
    <use xlink:href="#rim" fill="#404040"><set attributeName="fill" to="#808080" begin="zoomplus.mouseover" end="zoomplus.mouseout"/></use>
    <path d="M-4,0h8M0,-4v8" fill="none" stroke="white" stroke-width="1.5" pointer-events="none"/>
  </g>
  <g id="zoomMin">
    <use xlink:href="#rim" fill="#404040"><set attributeName="fill" to="#808080" begin="zoomminus.mouseover" end="zoomminus.mouseout"/></use>
    <path d="M-4,0h8" fill="none" stroke="white" stroke-width="1.5" pointer-events="none"/>
  </g>
  <g id="arrowUp" transform="translate(30 24)">
    <use xlink:href="#rim"/>
    <path pointer-events="none" fill="none" stroke="white" stroke-width="1.5" d="M0,-3.0v7 M-2.5,-0.5L0,-3.0L2.5,-0.5"/>
  </g>
  <g id="arrowRight" transform="rotate(90) translate(36 -43)">
    <use xlink:href="#rim"/>
    <path pointer-events="none" fill="none" stroke="white" stroke-width="1.5" d="M0,-3.0v7 M-2.5,-0.5L0,-3.0L2.5,-0.5"/>
  </g>
  <g id="arrowDown" transform="rotate(180) translate(-30 -48)">
    <use xlink:href="#rim"/>
    <path pointer-events="none" fill="none" stroke="white" stroke-width="1.5" d="M0,-3.0v7 M-2.5,-0.5L0,-3.0L2.5,-0.5"/>
  </g>
  <g id="arrowLeft" transform="rotate(270) translate(-36 17)">
    <use xlink:href="#rim"/>
    <path pointer-events="none" fill="none" stroke="white" stroke-width="1.5" d="M0,-3.0v7 M-2.5,-0.5L0,-3.0L2.5,-0.5"/>
  </g>
  <g id="resetDef">
    <use xlink:href="#rim2" fill="#404040"><set attributeName="fill" to="#808080" begin="reset.mouseover" end="reset.mouseout"/></use>
  </g>
</defs>
<script type="application/ecmascript">
var viewWidth = 1016;
var viewHeight = 906;
var sectionId = 'dynsection-2';
</script>
<script type="application/ecmascript" xlink:href="svg.min.js"/>
<svg id="graph" class="graph">
<g id="viewport">
<title>uvgutils::zeroPad</title>
<!-- Node1 -->
<g id="Node000001" class="node">
<title>Node1</title>
<g id="a_Node000001"><a xlink:title=" ">
<polygon fill="#999999" stroke="#666666" points="1008,-440.5 908,-440.5 908,-421.5 1008,-421.5 1008,-440.5"/>
<text text-anchor="middle" x="958" y="-428.5" font-family="Helvetica,sans-Serif" font-size="10.00">uvgutils::zeroPad</text>
</a>
</g>
</g>
<!-- Node2 -->
<g id="Node000002" class="node">
<title>Node2</title>
<g id="a_Node000002"><a xlink:href="namespaceFileExport.html#a7aeaa297ad205055b403629f094bec0d" target="_top" xlink:title=" ">
<polygon fill="white" stroke="#666666" points="864.5,-879.5 679.5,-879.5 679.5,-860.5 864.5,-860.5 864.5,-879.5"/>
<text text-anchor="middle" x="772" y="-867.5" font-family="Helvetica,sans-Serif" font-size="10.00">FileExport::exportAtlasInformation</text>
</a>
</g>
</g>
<!-- Node1&#45;&gt;Node2 -->
<g id="edge1_Node000001_Node000002" class="edge">
<title>Node1&#45;&gt;Node2</title>
<g id="a_edge1_Node000001_Node000002"><a xlink:title=" ">
<path fill="none" stroke="#63b8ff" d="M955.83,-450.91C950.99,-526.41 929.96,-793.62 872,-851 868.27,-854.69 864.05,-857.78 859.52,-860.36"/>
<polygon fill="#63b8ff" stroke="#63b8ff" points="959.35,-450.7 956.47,-440.5 952.37,-450.27 959.35,-450.7"/>
</a>
</g>
</g>
<!-- Node6 -->
<g id="Node000006" class="node">
<title>Node6</title>
<g id="a_Node000006"><a xlink:href="namespaceFileExport.html#a1dd387de242c49e6c29330cef47cd738" target="_top" xlink:title=" ">
<polygon fill="white" stroke="#666666" points="845,-842 699,-842 699,-812 845,-812 845,-842"/>
<text text-anchor="start" x="707" y="-830" font-family="Helvetica,sans-Serif" font-size="10.00">FileExport::exportAttribute</text>
<text text-anchor="middle" x="772" y="-819" font-family="Helvetica,sans-Serif" font-size="10.00">Bitstream</text>
</a>
</g>
</g>
<!-- Node1&#45;&gt;Node6 -->
<g id="edge6_Node000001_Node000006" class="edge">
<title>Node1&#45;&gt;Node6</title>
<g id="a_edge6_Node000001_Node000006"><a xlink:title=" ">
<path fill="none" stroke="#63b8ff" d="M955.19,-450.78C948.44,-520.28 922.47,-751.86 872,-803 864.55,-810.55 855.15,-815.88 845.13,-819.62"/>
<polygon fill="#63b8ff" stroke="#63b8ff" points="958.68,-451.02 956.14,-440.74 951.71,-450.37 958.68,-451.02"/>
</a>
</g>
</g>
<!-- Node9 -->
<g id="Node000009" class="node">
<title>Node9</title>
<g id="a_Node000009"><a xlink:href="namespaceFileExport.html#a303ebe8ace06be8e35f50ac2ee1c2b18" target="_top" xlink:title=" ">
<polygon fill="white" stroke="#666666" points="848,-794 696,-794 696,-764 848,-764 848,-794"/>
<text text-anchor="start" x="704" y="-782" font-family="Helvetica,sans-Serif" font-size="10.00">FileExport::exportGeometry</text>
<text text-anchor="middle" x="772" y="-771" font-family="Helvetica,sans-Serif" font-size="10.00">Bitstream</text>
</a>
</g>
</g>
<!-- Node1&#45;&gt;Node9 -->
<g id="edge9_Node000001_Node000009" class="edge">
<title>Node1&#45;&gt;Node9</title>
<g id="a_edge9_Node000001_Node000009"><a xlink:title=" ">
<path fill="none" stroke="#63b8ff" d="M954.44,-451.05C945.89,-514.84 916.35,-711.48 872,-755 865.31,-761.57 857.15,-766.44 848.41,-770.05"/>
<polygon fill="#63b8ff" stroke="#63b8ff" points="957.96,-451.12 955.79,-440.75 951.02,-450.21 957.96,-451.12"/>
</a>
</g>
</g>
<!-- Node10 -->
<g id="Node000010" class="node">
<title>Node10</title>
<g id="a_Node000010"><a xlink:href="namespaceFileExport.html#af8cb0e8959f542254301b74c640e376b" target="_top" xlink:title=" ">
<polygon fill="white" stroke="#666666" points="860,-697.5 684,-697.5 684,-678.5 860,-678.5 860,-697.5"/>
<text text-anchor="middle" x="772" y="-685.5" font-family="Helvetica,sans-Serif" font-size="10.00">FileExport::exportImageAttribute</text>
</a>
</g>
</g>
<!-- Node1&#45;&gt;Node10 -->
<g id="edge12_Node000001_Node000010" class="edge">
<title>Node1&#45;&gt;Node10</title>
<g id="a_edge12_Node000001_Node000010"><a xlink:title=" ">
<path fill="none" stroke="#63b8ff" d="M956.23,-450.68C953.29,-496.61 939.25,-611.35 872,-669 867.62,-672.76 862.72,-675.86 857.51,-678.42"/>
<polygon fill="#63b8ff" stroke="#63b8ff" points="959.73,-450.73 956.76,-440.56 952.74,-450.36 959.73,-450.73"/>
</a>
</g>
</g>
<!-- Node11 -->
<g id="Node000011" class="node">
<title>Node11</title>
<g id="a_Node000011"><a xlink:href="namespaceFileExport.html#a7ce79028d0f1956f0de29a43ffbdc27b" target="_top" xlink:title=" ">
<polygon fill="white" stroke="#666666" points="860,-468 684,-468 684,-438 860,-438 860,-468"/>
<text text-anchor="start" x="692" y="-456" font-family="Helvetica,sans-Serif" font-size="10.00">FileExport::exportImageAttribute</text>
<text text-anchor="middle" x="772" y="-445" font-family="Helvetica,sans-Serif" font-size="10.00">BgFill</text>
</a>
</g>
</g>
<!-- Node1&#45;&gt;Node11 -->
<g id="edge13_Node000001_Node000011" class="edge">
<title>Node1&#45;&gt;Node11</title>
<g id="a_edge13_Node000001_Node000011"><a xlink:title=" ">
<path fill="none" stroke="#63b8ff" d="M897.44,-438.12C885.51,-439.55 872.74,-441.07 860.1,-442.59"/>
<polygon fill="#63b8ff" stroke="#63b8ff" points="898.18,-441.56 907.69,-436.9 897.35,-434.61 898.18,-441.56"/>
</a>
</g>
</g>
<!-- Node15 -->
<g id="Node000015" class="node">
<title>Node15</title>
<g id="a_Node000015"><a xlink:href="namespaceFileExport.html#a38357fd7781625e0a9c44f6d1ce8b04c" target="_top" xlink:title=" ">
<polygon fill="white" stroke="#666666" points="870.5,-419.5 673.5,-419.5 673.5,-400.5 870.5,-400.5 870.5,-419.5"/>
<text text-anchor="middle" x="772" y="-407.5" font-family="Helvetica,sans-Serif" font-size="10.00">FileExport::exportImageAttributeYUV</text>
</a>
</g>
</g>
<!-- Node1&#45;&gt;Node15 -->
<g id="edge17_Node000001_Node000015" class="edge">
<title>Node1&#45;&gt;Node15</title>
<g id="a_edge17_Node000001_Node000015"><a xlink:title=" ">
<path fill="none" stroke="#63b8ff" d="M897.46,-424.2C884.4,-422.71 870.35,-421.11 856.55,-419.54"/>
<polygon fill="#63b8ff" stroke="#63b8ff" points="897.36,-427.72 907.69,-425.37 898.15,-420.76 897.36,-427.72"/>
</a>
</g>
</g>
<!-- Node16 -->
<g id="Node000016" class="node">
<title>Node16</title>
<g id="a_Node000016"><a xlink:href="namespaceFileExport.html#add57770ddcd8337550f0ade0b90a0902" target="_top" xlink:title=" ">
<polygon fill="white" stroke="#666666" points="863,-296.5 681,-296.5 681,-277.5 863,-277.5 863,-296.5"/>
<text text-anchor="middle" x="772" y="-284.5" font-family="Helvetica,sans-Serif" font-size="10.00">FileExport::exportImageGeometry</text>
</a>
</g>
</g>
<!-- Node1&#45;&gt;Node16 -->
<g id="edge19_Node000001_Node000016" class="edge">
<title>Node1&#45;&gt;Node16</title>
<g id="a_edge19_Node000001_Node000016"><a xlink:title=" ">
<path fill="none" stroke="#63b8ff" d="M949.59,-411.77C937.72,-383.71 911.67,-332.08 872,-306 866.15,-302.15 859.71,-299.05 853.01,-296.54"/>
<polygon fill="#63b8ff" stroke="#63b8ff" points="946.44,-413.31 953.44,-421.26 952.92,-410.68 946.44,-413.31"/>
</a>
</g>
</g>
<!-- Node17 -->
<g id="Node000017" class="node">
<title>Node17</title>
<g id="a_Node000017"><a xlink:href="namespaceFileExport.html#a14f1fd295139088b2c1c130ebd36dbe3" target="_top" xlink:title=" ">
<polygon fill="white" stroke="#666666" points="863,-382 681,-382 681,-352 863,-352 863,-382"/>
<text text-anchor="start" x="689" y="-370" font-family="Helvetica,sans-Serif" font-size="10.00">FileExport::exportImageGeometry</text>
<text text-anchor="middle" x="772" y="-359" font-family="Helvetica,sans-Serif" font-size="10.00">BgFill</text>
</a>
</g>
</g>
<!-- Node1&#45;&gt;Node17 -->
<g id="edge20_Node000001_Node000017" class="edge">
<title>Node1&#45;&gt;Node17</title>
<g id="a_edge20_Node000001_Node000017"><a xlink:title=" ">
<path fill="none" stroke="#63b8ff" d="M929.8,-416.97C913.37,-408.9 891.84,-398.99 872,-392 861.63,-388.35 850.48,-385 839.53,-382.02"/>
<polygon fill="#63b8ff" stroke="#63b8ff" points="928.32,-420.15 938.83,-421.48 931.45,-413.89 928.32,-420.15"/>
</a>
</g>
</g>
<!-- Node18 -->
<g id="Node000018" class="node">
<title>Node18</title>
<g id="a_Node000018"><a xlink:href="namespaceFileExport.html#a7ffbcd5dbb931da7c5137f2c85a862ad" target="_top" xlink:title=" ">
<polygon fill="white" stroke="#666666" points="865.5,-259.5 678.5,-259.5 678.5,-240.5 865.5,-240.5 865.5,-259.5"/>
<text text-anchor="middle" x="772" y="-247.5" font-family="Helvetica,sans-Serif" font-size="10.00">FileExport::exportImageOccupancy</text>
</a>
</g>
</g>
<!-- Node1&#45;&gt;Node18 -->
<g id="edge22_Node000001_Node000018" class="edge">
<title>Node1&#45;&gt;Node18</title>
<g id="a_edge22_Node000001_Node000018"><a xlink:title=" ">
<path fill="none" stroke="#63b8ff" d="M952.68,-411.64C943.9,-377.08 920.55,-305.05 872,-269 866.94,-265.24 861.35,-262.17 855.47,-259.66"/>
<polygon fill="#63b8ff" stroke="#63b8ff" points="949.3,-412.54 955.03,-421.45 956.1,-410.91 949.3,-412.54"/>
</a>
</g>
</g>
<!-- Node19 -->
<g id="Node000019" class="node">
<title>Node19</title>
<g id="a_Node000019"><a xlink:href="namespaceFileExport.html#af3572e7dc6a5bb93770e300f64313b2f" target="_top" xlink:title=" ">
<polygon fill="white" stroke="#666666" points="872,-333.5 672,-333.5 672,-314.5 872,-314.5 872,-333.5"/>
<text text-anchor="middle" x="772" y="-321.5" font-family="Helvetica,sans-Serif" font-size="10.00">FileExport::exportImageOccupancyDS</text>
</a>
</g>
</g>
<!-- Node1&#45;&gt;Node19 -->
<g id="edge23_Node000001_Node000019" class="edge">
<title>Node1&#45;&gt;Node19</title>
<g id="a_edge23_Node000001_Node000019"><a xlink:title=" ">
<path fill="none" stroke="#63b8ff" d="M944.96,-413.06C930.26,-392.67 903.43,-360.01 872,-343 864.84,-339.13 857.02,-336.03 849.01,-333.56"/>
<polygon fill="#63b8ff" stroke="#63b8ff" points="942.24,-415.28 950.83,-421.47 947.97,-411.27 942.24,-415.28"/>
</a>
</g>
</g>
<!-- Node20 -->
<g id="Node000020" class="node">
<title>Node20</title>
<g id="a_Node000020"><a xlink:href="namespaceFileExport.html#a7f638e98ce327128e84bd34f78bf98bc" target="_top" xlink:title=" ">
<polygon fill="white" stroke="#666666" points="850,-746 694,-746 694,-716 850,-716 850,-746"/>
<text text-anchor="start" x="702" y="-734" font-family="Helvetica,sans-Serif" font-size="10.00">FileExport::exportOccupancy</text>
<text text-anchor="middle" x="772" y="-723" font-family="Helvetica,sans-Serif" font-size="10.00">Bitstream</text>
</a>
</g>
</g>
<!-- Node1&#45;&gt;Node20 -->
<g id="edge25_Node000001_Node000020" class="edge">
<title>Node1&#45;&gt;Node20</title>
<g id="a_edge25_Node000001_Node000020"><a xlink:title=" ">
<path fill="none" stroke="#63b8ff" d="M957.14,-450.75C956.38,-501.3 947.04,-636.4 872,-707 865.69,-712.94 858.17,-717.48 850.13,-720.95"/>
<polygon fill="#63b8ff" stroke="#63b8ff" points="960.64,-450.56 957.19,-440.54 953.64,-450.52 960.64,-450.56"/>
</a>
</g>
</g>
<!-- Node21 -->
<g id="Node000021" class="node">
<title>Node21</title>
<g id="a_Node000021"><a xlink:href="namespaceFileExport.html#a41bacc142c592180673dcb824ce8d80e" target="_top" xlink:title=" ">
<polygon fill="white" stroke="#666666" points="849.5,-516 694.5,-516 694.5,-486 849.5,-486 849.5,-516"/>
<text text-anchor="start" x="702.5" y="-504" font-family="Helvetica,sans-Serif" font-size="10.00">FileExport::exportPointCloud</text>
<text text-anchor="middle" x="772" y="-493" font-family="Helvetica,sans-Serif" font-size="10.00">InitialSegmentation</text>
</a>
</g>
</g>
<!-- Node1&#45;&gt;Node21 -->
<g id="edge28_Node000001_Node000021" class="edge">
<title>Node1&#45;&gt;Node21</title>
<g id="a_edge28_Node000001_Node000021"><a xlink:title=" ">
<path fill="none" stroke="#63b8ff" d="M933.22,-446.03C916.6,-455.99 893.6,-468.7 872,-477 863.33,-480.33 854.06,-483.31 844.79,-485.93"/>
<polygon fill="#63b8ff" stroke="#63b8ff" points="935.5,-448.74 942.21,-440.54 931.85,-442.77 935.5,-448.74"/>
</a>
</g>
</g>
<!-- Node24 -->
<g id="Node000024" class="node">
<title>Node24</title>
<g id="a_Node000024"><a xlink:href="namespaceFileExport.html#a9ab9dedac041f25b341246202db71a42" target="_top" xlink:title=" ">
<polygon fill="white" stroke="#666666" points="849.5,-612 694.5,-612 694.5,-582 849.5,-582 849.5,-612"/>
<text text-anchor="start" x="702.5" y="-600" font-family="Helvetica,sans-Serif" font-size="10.00">FileExport::exportPointCloud</text>
<text text-anchor="middle" x="772" y="-589" font-family="Helvetica,sans-Serif" font-size="10.00">NormalComputation</text>
</a>
</g>
</g>
<!-- Node1&#45;&gt;Node24 -->
<g id="edge32_Node000001_Node000024" class="edge">
<title>Node1&#45;&gt;Node24</title>
<g id="a_edge32_Node000001_Node000024"><a xlink:title=" ">
<path fill="none" stroke="#63b8ff" d="M950.92,-450.35C940.18,-481.25 914.84,-541.46 872,-573 865.24,-577.98 857.57,-581.94 849.58,-585.08"/>
<polygon fill="#63b8ff" stroke="#63b8ff" points="954.28,-451.33 954.11,-440.74 947.64,-449.13 954.28,-451.33"/>
</a>
</g>
</g>
<!-- Node26 -->
<g id="Node000026" class="node">
<title>Node26</title>
<g id="a_Node000026"><a xlink:href="namespaceFileExport.html#a3508d8090e6df89b9f0532ce22387e55" target="_top" xlink:title=" ">
<polygon fill="white" stroke="#666666" points="849.5,-564 694.5,-564 694.5,-534 849.5,-534 849.5,-564"/>
<text text-anchor="start" x="702.5" y="-552" font-family="Helvetica,sans-Serif" font-size="10.00">FileExport::exportPointCloud</text>
<text text-anchor="middle" x="772" y="-541" font-family="Helvetica,sans-Serif" font-size="10.00">NormalOrientation</text>
</a>
</g>
</g>
<!-- Node1&#45;&gt;Node26 -->
<g id="edge35_Node000001_Node000026" class="edge">
<title>Node1&#45;&gt;Node26</title>
<g id="a_edge35_Node000001_Node000026"><a xlink:title=" ">
<path fill="none" stroke="#63b8ff" d="M945.52,-449.27C931.04,-470.75 904.12,-505.89 872,-525 865.08,-529.11 857.5,-532.52 849.7,-535.35"/>
<polygon fill="#63b8ff" stroke="#63b8ff" points="948.56,-451.02 951.1,-440.73 942.7,-447.18 948.56,-451.02"/>
</a>
</g>
</g>
<!-- Node28 -->
<g id="Node000028" class="node">
<title>Node28</title>
<g id="a_Node000028"><a xlink:href="namespaceFileExport.html#a77ccae02b99d57cd4d828bee46139f51" target="_top" xlink:title=" ">
<polygon fill="white" stroke="#666666" points="849.5,-222 694.5,-222 694.5,-192 849.5,-192 849.5,-222"/>
<text text-anchor="start" x="702.5" y="-210" font-family="Helvetica,sans-Serif" font-size="10.00">FileExport::exportPointCloud</text>
<text text-anchor="middle" x="772" y="-199" font-family="Helvetica,sans-Serif" font-size="10.00">PatchSegmentationBorder</text>
</a>
</g>
</g>
<!-- Node1&#45;&gt;Node28 -->
<g id="edge38_Node000001_Node000028" class="edge">
<title>Node1&#45;&gt;Node28</title>
<g id="a_edge38_Node000001_Node000028"><a xlink:title=" ">
<path fill="none" stroke="#63b8ff" d="M954.42,-411.28C948.08,-371.17 928,-279.87 872,-232 865.4,-226.36 857.69,-221.96 849.56,-218.53"/>
<polygon fill="#63b8ff" stroke="#63b8ff" points="950.98,-411.97 955.88,-421.36 957.91,-410.96 950.98,-411.97"/>
</a>
</g>
</g>
<!-- Node30 -->
<g id="Node000030" class="node">
<title>Node30</title>
<g id="a_Node000030"><a xlink:href="namespaceFileExport.html#afa65f718975b30cc1387729f9e355b75" target="_top" xlink:title=" ">
<polygon fill="white" stroke="#666666" points="857.5,-174 686.5,-174 686.5,-144 857.5,-144 857.5,-174"/>
<text text-anchor="start" x="694.5" y="-162" font-family="Helvetica,sans-Serif" font-size="10.00">FileExport::exportPointCloud</text>
<text text-anchor="middle" x="772" y="-151" font-family="Helvetica,sans-Serif" font-size="10.00">PatchSegmentationBorderBlank</text>
</a>
</g>
</g>
<!-- Node1&#45;&gt;Node30 -->
<g id="edge40_Node000001_Node000030" class="edge">
<title>Node1&#45;&gt;Node30</title>
<g id="a_edge40_Node000001_Node000030"><a xlink:title=" ">
<path fill="none" stroke="#63b8ff" d="M956.35,-411.36C953.69,-364.46 940.2,-245.18 872,-183 867.69,-179.07 862.84,-175.75 857.67,-172.96"/>
<polygon fill="#63b8ff" stroke="#63b8ff" points="952.86,-411.59 956.81,-421.42 959.85,-411.27 952.86,-411.59"/>
</a>
</g>
</g>
<!-- Node31 -->
<g id="Node000031" class="node">
<title>Node31</title>
<g id="a_Node000031"><a xlink:href="namespaceFileExport.html#a05bd491ceaac33ece5f9ce26395d0cbd" target="_top" xlink:title=" ">
<polygon fill="white" stroke="#666666" points="849.5,-126 694.5,-126 694.5,-96 849.5,-96 849.5,-126"/>
<text text-anchor="start" x="702.5" y="-114" font-family="Helvetica,sans-Serif" font-size="10.00">FileExport::exportPointCloud</text>
<text text-anchor="middle" x="772" y="-103" font-family="Helvetica,sans-Serif" font-size="10.00">PatchSegmentationColor</text>
</a>
</g>
</g>
<!-- Node1&#45;&gt;Node31 -->
<g id="edge42_Node000001_Node000031" class="edge">
<title>Node1&#45;&gt;Node31</title>
<g id="a_edge42_Node000001_Node000031"><a xlink:title=" ">
<path fill="none" stroke="#63b8ff" d="M957.63,-411.26C958.17,-358.27 951.99,-211.71 872,-135 865.62,-128.88 857.95,-124.23 849.75,-120.72"/>
<polygon fill="#63b8ff" stroke="#63b8ff" points="954.13,-411.28 957.43,-421.35 961.12,-411.42 954.13,-411.28"/>
</a>
</g>
</g>
<!-- Node32 -->
<g id="Node000032" class="node">
<title>Node32</title>
<g id="a_Node000032"><a xlink:href="namespaceFileExport.html#abb8595255f8a5176d227c0b8dfa9ca19" target="_top" xlink:title=" ">
<polygon fill="white" stroke="#666666" points="849.5,-78 694.5,-78 694.5,-48 849.5,-48 849.5,-78"/>
<text text-anchor="start" x="702.5" y="-66" font-family="Helvetica,sans-Serif" font-size="10.00">FileExport::exportPointCloud</text>
<text text-anchor="middle" x="772" y="-55" font-family="Helvetica,sans-Serif" font-size="10.00">PPIAttributionSlicing</text>
</a>
</g>
</g>
<!-- Node1&#45;&gt;Node32 -->
<g id="edge44_Node000001_Node000032" class="edge">
<title>Node1&#45;&gt;Node32</title>
<g id="a_edge44_Node000001_Node000032"><a xlink:title=" ">
<path fill="none" stroke="#63b8ff" d="M954.77,-411.03C946.99,-344.75 918.88,-133.68 872,-87 865.73,-80.76 858.14,-76.04 849.97,-72.49"/>
<polygon fill="#63b8ff" stroke="#63b8ff" points="951.34,-411.79 955.96,-421.33 958.29,-411 951.34,-411.79"/>
</a>
</g>
</g>
<!-- Node33 -->
<g id="Node000033" class="node">
<title>Node33</title>
<g id="a_Node000033"><a xlink:href="namespaceFileExport.html#a0a4a47addb40f5b7f846592a92895c90" target="_top" xlink:title=" ">
<polygon fill="white" stroke="#666666" points="849.5,-660 694.5,-660 694.5,-630 849.5,-630 849.5,-660"/>
<text text-anchor="start" x="702.5" y="-648" font-family="Helvetica,sans-Serif" font-size="10.00">FileExport::exportPointCloud</text>
<text text-anchor="middle" x="772" y="-637" font-family="Helvetica,sans-Serif" font-size="10.00">RefineSegmentation</text>
</a>
</g>
</g>
<!-- Node1&#45;&gt;Node33 -->
<g id="edge45_Node000001_Node000033" class="edge">
<title>Node1&#45;&gt;Node33</title>
<g id="a_edge45_Node000001_Node000033"><a xlink:title=" ">
<path fill="none" stroke="#63b8ff" d="M954.02,-450.68C947.08,-489.48 926.1,-575.98 872,-621 865.41,-626.49 857.76,-630.75 849.69,-634.07"/>
<polygon fill="#63b8ff" stroke="#63b8ff" points="957.5,-451.11 955.69,-440.67 950.6,-449.96 957.5,-451.11"/>
</a>
</g>
</g>
<!-- Node36 -->
<g id="Node000036" class="node">
<title>Node36</title>
<g id="a_Node000036"><a xlink:href="namespaceFileExport.html#a2418208f6ecb69a280b4830060567098" target="_top" xlink:title=" ">
<polygon fill="white" stroke="#666666" points="849.5,-30 694.5,-30 694.5,0 849.5,0 849.5,-30"/>
<text text-anchor="start" x="702.5" y="-18" font-family="Helvetica,sans-Serif" font-size="10.00">FileExport::exportPointCloud</text>
<text text-anchor="middle" x="772" y="-7" font-family="Helvetica,sans-Serif" font-size="10.00">Subslices</text>
</a>
</g>
</g>
<!-- Node1&#45;&gt;Node36 -->
<g id="edge49_Node000001_Node000036" class="edge">
<title>Node1&#45;&gt;Node36</title>
<g id="a_edge49_Node000001_Node000036"><a xlink:title=" ">
<path fill="none" stroke="#63b8ff" d="M955.43,-411.12C949.35,-339.1 924.98,-93.29 872,-39 865.7,-32.55 857.98,-27.71 849.66,-24.1"/>
<polygon fill="#63b8ff" stroke="#63b8ff" points="951.97,-411.78 956.28,-421.46 958.95,-411.21 951.97,-411.78"/>
</a>
</g>
</g>
<!-- Node3 -->
<g id="Node000003" class="node">
<title>Node3</title>
<g id="a_Node000003"><a xlink:href="bitstream__util_8cpp.html#aa8c4c50cd09a25e7222ff889eb4fa737" target="_top" xlink:title=" ">
<polygon fill="white" stroke="#666666" points="561.5,-897.5 512.5,-897.5 512.5,-878.5 561.5,-878.5 561.5,-897.5"/>
<text text-anchor="middle" x="537" y="-885.5" font-family="Helvetica,sans-Serif" font-size="10.00">writeU</text>
</a>
</g>
</g>
<!-- Node2&#45;&gt;Node3 -->
<g id="edge2_Node000002_Node000003" class="edge">
<title>Node2&#45;&gt;Node3</title>
<g id="a_edge2_Node000002_Node000003"><a xlink:title=" ">
<path fill="none" stroke="#63b8ff" d="M669.2,-877.86C629.46,-880.93 587.4,-884.18 561.92,-886.15"/>
<polygon fill="#63b8ff" stroke="#63b8ff" points="669.55,-881.35 679.25,-877.09 669.01,-874.37 669.55,-881.35"/>
</a>
</g>
</g>
<!-- Node5 -->
<g id="Node000005" class="node">
<title>Node5</title>
<g id="a_Node000005"><a xlink:href="bitstream__util_8cpp.html#ae284706aa3795e821fc5e735c7195149" target="_top" xlink:title=" ">
<polygon fill="white" stroke="#666666" points="564.5,-860.5 509.5,-860.5 509.5,-841.5 564.5,-841.5 564.5,-860.5"/>
<text text-anchor="middle" x="537" y="-848.5" font-family="Helvetica,sans-Serif" font-size="10.00">writeUE</text>
</a>
</g>
</g>
<!-- Node2&#45;&gt;Node5 -->
<g id="edge4_Node000002_Node000005" class="edge">
<title>Node2&#45;&gt;Node5</title>
<g id="a_edge4_Node000002_Node000005"><a xlink:title=" ">
<path fill="none" stroke="#63b8ff" d="M669.05,-861.69C630.77,-858.57 590.37,-855.27 564.72,-853.18"/>
<polygon fill="#63b8ff" stroke="#63b8ff" points="669,-865.19 679.25,-862.52 669.56,-858.22 669,-865.19"/>
</a>
</g>
</g>
<!-- Node4 -->
<g id="Node000004" class="node">
<title>Node4</title>
<g id="a_Node000004"><a xlink:href="classvps.html#a621f597b4c41ed6cde608d6932299803" target="_top" xlink:title=" ">
<polygon fill="white" stroke="#666666" points="372.5,-878.5 285.5,-878.5 285.5,-859.5 372.5,-859.5 372.5,-878.5"/>
<text text-anchor="middle" x="329" y="-866.5" font-family="Helvetica,sans-Serif" font-size="10.00">vps::write_vps</text>
</a>
</g>
</g>
<!-- Node3&#45;&gt;Node4 -->
<g id="edge3_Node000003_Node000004" class="edge">
<title>Node3&#45;&gt;Node4</title>
<g id="a_edge3_Node000003_Node000004"><a xlink:title=" ">
<path fill="none" stroke="#63b8ff" d="M502.07,-884.87C466.64,-881.6 411.01,-876.47 372.64,-872.93"/>
<polygon fill="#63b8ff" stroke="#63b8ff" points="502.09,-888.39 512.37,-885.82 502.73,-881.42 502.09,-888.39"/>
</a>
</g>
</g>
<!-- Node5&#45;&gt;Node4 -->
<g id="edge5_Node000005_Node000004" class="edge">
<title>Node5&#45;&gt;Node4</title>
<g id="a_edge5_Node000005_Node000004"><a xlink:title=" ">
<path fill="none" stroke="#63b8ff" d="M499.08,-854.23C463.54,-857.33 409.82,-862.03 372.51,-865.29"/>
<polygon fill="#63b8ff" stroke="#63b8ff" points="499.83,-857.67 509.49,-853.32 499.22,-850.7 499.83,-857.67"/>
</a>
</g>
</g>
<!-- Node7 -->
<g id="Node000007" class="node">
<title>Node7</title>
<g id="a_Node000007"><a xlink:href="classEncoderFFmpeg.html#a5aaf55a14764423ad9c645a070e95890" target="_top" xlink:title=" ">
<polygon fill="white" stroke="#666666" points="629,-768.5 445,-768.5 445,-749.5 629,-749.5 629,-768.5"/>
<text text-anchor="middle" x="537" y="-756.5" font-family="Helvetica,sans-Serif" font-size="10.00">EncoderFFmpeg::encodeGOFMaps</text>
</a>
</g>
</g>
<!-- Node6&#45;&gt;Node7 -->
<g id="edge7_Node000006_Node000007" class="edge">
<title>Node6&#45;&gt;Node7</title>
<g id="a_edge7_Node000006_Node000007"><a xlink:title=" ">
<path fill="none" stroke="#63b8ff" d="M688.96,-809.65C683.13,-807.65 677.43,-805.44 672,-803 654.23,-795.01 653.95,-785.57 636,-778 626.74,-774.09 616.64,-770.98 606.57,-768.5"/>
<polygon fill="#63b8ff" stroke="#63b8ff" points="688.25,-813.1 698.84,-812.83 690.39,-806.44 688.25,-813.1"/>
</a>
</g>
</g>
<!-- Node8 -->
<g id="Node000008" class="node">
<title>Node8</title>
<g id="a_Node000008"><a xlink:href="classEncoderKvazaar.html#a7ad02c30c21ef1f790bca3bcc6309288" target="_top" xlink:title=" ">
<polygon fill="white" stroke="#666666" points="629,-805.5 445,-805.5 445,-786.5 629,-786.5 629,-805.5"/>
<text text-anchor="middle" x="537" y="-793.5" font-family="Helvetica,sans-Serif" font-size="10.00">EncoderKvazaar::encodeGOFMaps</text>
</a>
</g>
</g>
<!-- Node6&#45;&gt;Node8 -->
<g id="edge8_Node000006_Node000008" class="edge">
<title>Node6&#45;&gt;Node8</title>
<g id="a_edge8_Node000006_Node000008"><a xlink:title=" ">
<path fill="none" stroke="#63b8ff" d="M688.76,-816.06C662.99,-812.63 634.77,-808.88 609.79,-805.55"/>
<polygon fill="#63b8ff" stroke="#63b8ff" points="688.5,-819.55 698.87,-817.4 689.42,-812.62 688.5,-819.55"/>
</a>
</g>
</g>
<!-- Node9&#45;&gt;Node7 -->
<g id="edge10_Node000009_Node000007" class="edge">
<title>Node9&#45;&gt;Node7</title>
<g id="a_edge10_Node000009_Node000007"><a xlink:title=" ">
<path fill="none" stroke="#63b8ff" d="M685.87,-771.69C667.42,-770.11 647.84,-768.43 629.17,-766.83"/>
<polygon fill="#63b8ff" stroke="#63b8ff" points="685.73,-775.19 695.99,-772.56 686.33,-768.22 685.73,-775.19"/>
</a>
</g>
</g>
<!-- Node9&#45;&gt;Node8 -->
<g id="edge11_Node000009_Node000008" class="edge">
<title>Node9&#45;&gt;Node8</title>
<g id="a_edge11_Node000009_Node000008"><a xlink:title=" ">
<path fill="none" stroke="#63b8ff" d="M685.87,-785.21C667.42,-786.56 647.84,-787.99 629.17,-789.35"/>
<polygon fill="#63b8ff" stroke="#63b8ff" points="686.28,-788.69 695.99,-784.47 685.77,-781.71 686.28,-788.69"/>
</a>
</g>
</g>
<!-- Node12 -->
<g id="Node000012" class="node">
<title>Node12</title>
<g id="a_Node000012"><a xlink:href="classMapGeneration.html#a56bc2b6243c157465d684157b84246e0" target="_top" xlink:title=" ">
<polygon fill="white" stroke="#666666" points="636,-419.5 438,-419.5 438,-400.5 636,-400.5 636,-419.5"/>
<text text-anchor="middle" x="537" y="-407.5" font-family="Helvetica,sans-Serif" font-size="10.00">MapGeneration::generateFrameMaps</text>
</a>
</g>
</g>
<!-- Node11&#45;&gt;Node12 -->
<g id="edge14_Node000011_Node000012" class="edge">
<title>Node11&#45;&gt;Node12</title>
<g id="a_edge14_Node000011_Node000012"><a xlink:title=" ">
<path fill="none" stroke="#63b8ff" d="M679.67,-436.15C649.08,-430.5 616.06,-424.41 589.6,-419.52"/>
<polygon fill="#63b8ff" stroke="#63b8ff" points="679.04,-439.59 689.51,-437.96 680.31,-432.7 679.04,-439.59"/>
</a>
</g>
</g>
<!-- Node13 -->
<g id="Node000013" class="node">
<title>Node13</title>
<g id="a_Node000013"><a xlink:href="namespaceuvgvpcc__enc_1_1API.html#ac96f1663ec59a1bbc04778ae958780fa" target="_top" xlink:title="Entry point of the uvgVPCCenc library. Take as input a frame. Create all the jobs for processing this...">
<polygon fill="white" stroke="#666666" points="220,-493 77,-493 77,-463 220,-463 220,-493"/>
<text text-anchor="start" x="85" y="-481" font-family="Helvetica,sans-Serif" font-size="10.00">uvgvpcc_enc::API::encode</text>
<text text-anchor="middle" x="148.5" y="-470" font-family="Helvetica,sans-Serif" font-size="10.00">Frame</text>
</a>
</g>
</g>
<!-- Node12&#45;&gt;Node13 -->
<g id="edge15_Node000012_Node000013" class="edge">
<title>Node12&#45;&gt;Node13</title>
<g id="a_edge15_Node000012_Node000013"><a xlink:title=" ">
<path fill="none" stroke="#63b8ff" d="M471.92,-421.27C402.56,-433.48 292.23,-452.89 220.33,-465.54"/>
<polygon fill="#63b8ff" stroke="#63b8ff" points="472.61,-424.71 481.85,-419.53 471.4,-417.81 472.61,-424.71"/>
</a>
</g>
</g>
<!-- Node14 -->
<g id="Node000014" class="node">
<title>Node14</title>
<g id="a_Node000014"><a xlink:href="uvgVPCCencAppExample_8cpp.html#aee608aedd5b0b58f2966c2ff15101925" target="_top" xlink:title="This example application offers a simple approach to working with the uvgVPCCenc library and highligh...">
<polygon fill="white" stroke="#666666" points="41,-487.5 0,-487.5 0,-468.5 41,-468.5 41,-487.5"/>
<text text-anchor="middle" x="20.5" y="-475.5" font-family="Helvetica,sans-Serif" font-size="10.00">main</text>
</a>
</g>
</g>
<!-- Node13&#45;&gt;Node14 -->
<g id="edge16_Node000013_Node000014" class="edge">
<title>Node13&#45;&gt;Node14</title>
<g id="a_edge16_Node000013_Node000014"><a xlink:title=" ">
<path fill="none" stroke="#63b8ff" d="M66.74,-478C57.29,-478 48.42,-478 41.08,-478"/>
<polygon fill="#63b8ff" stroke="#63b8ff" points="66.77,-481.5 76.77,-478 66.77,-474.5 66.77,-481.5"/>
</a>
</g>
</g>
<!-- Node15&#45;&gt;Node12 -->
<g id="edge18_Node000015_Node000012" class="edge">
<title>Node15&#45;&gt;Node12</title>
<g id="a_edge18_Node000015_Node000012"><a xlink:title=" ">
<path fill="none" stroke="#63b8ff" d="M663.14,-410C654.19,-410 645.17,-410 636.3,-410"/>
<polygon fill="#63b8ff" stroke="#63b8ff" points="663.2,-413.5 673.2,-410 663.2,-406.5 663.2,-413.5"/>
</a>
</g>
</g>
<!-- Node17&#45;&gt;Node12 -->
<g id="edge21_Node000017_Node000012" class="edge">
<title>Node17&#45;&gt;Node12</title>
<g id="a_edge21_Node000017_Node000012"><a xlink:title=" ">
<path fill="none" stroke="#63b8ff" d="M679.67,-383.85C649.08,-389.5 616.06,-395.59 589.6,-400.48"/>
<polygon fill="#63b8ff" stroke="#63b8ff" points="680.31,-387.3 689.51,-382.04 679.04,-380.41 680.31,-387.3"/>
</a>
</g>
</g>
<!-- Node19&#45;&gt;Node12 -->
<g id="edge24_Node000019_Node000012" class="edge">
<title>Node19&#45;&gt;Node12</title>
<g id="a_edge24_Node000019_Node000012"><a xlink:title=" ">
<path fill="none" stroke="#63b8ff" d="M697.64,-335.73C688.91,-337.81 680.19,-340.23 672,-343 626.92,-358.27 577.82,-385.95 553.48,-400.49"/>
<polygon fill="#63b8ff" stroke="#63b8ff" points="698.49,-339.12 707.48,-333.51 696.96,-332.3 698.49,-339.12"/>
</a>
</g>
</g>
<!-- Node20&#45;&gt;Node7 -->
<g id="edge26_Node000020_Node000007" class="edge">
<title>Node20&#45;&gt;Node7</title>
<g id="a_edge26_Node000020_Node000007"><a xlink:title=" ">
<path fill="none" stroke="#63b8ff" d="M683.55,-741.51C661.86,-744.12 638.73,-746.9 617.44,-749.45"/>
<polygon fill="#63b8ff" stroke="#63b8ff" points="684.23,-744.95 693.74,-740.28 683.39,-738 684.23,-744.95"/>
</a>
</g>
</g>
<!-- Node20&#45;&gt;Node8 -->
<g id="edge27_Node000020_Node000008" class="edge">
<title>Node20&#45;&gt;Node8</title>
<g id="a_edge27_Node000020_Node000008"><a xlink:title=" ">
<path fill="none" stroke="#63b8ff" d="M687.5,-749.11C682.19,-750.91 676.98,-752.88 672,-755 654.54,-762.45 653.67,-771.04 636,-778 627.31,-781.42 617.92,-784.2 608.52,-786.46"/>
<polygon fill="#63b8ff" stroke="#63b8ff" points="688.67,-752.41 697.13,-746.03 686.54,-745.74 688.67,-752.41"/>
</a>
</g>
</g>
<!-- Node22 -->
<g id="Node000022" class="node">
<title>Node22</title>
<g id="a_Node000022"><a xlink:href="classPPISegmenter.html#a4a7440a210f2209c6048ec22dc338e8b" target="_top" xlink:title=" ">
<polygon fill="white" stroke="#666666" points="630.5,-512.5 443.5,-512.5 443.5,-493.5 630.5,-493.5 630.5,-512.5"/>
<text text-anchor="middle" x="537" y="-500.5" font-family="Helvetica,sans-Serif" font-size="10.00">PPISegmenter::initialSegmentation</text>
</a>
</g>
</g>
<!-- Node21&#45;&gt;Node22 -->
<g id="edge29_Node000021_Node000022" class="edge">
<title>Node21&#45;&gt;Node22</title>
<g id="a_edge29_Node000021_Node000022"><a xlink:title=" ">
<path fill="none" stroke="#63b8ff" d="M684.26,-501.74C666.86,-501.89 648.51,-502.05 630.9,-502.2"/>
<polygon fill="#63b8ff" stroke="#63b8ff" points="684.41,-505.24 694.38,-501.66 684.35,-498.24 684.41,-505.24"/>
</a>
</g>
</g>
<!-- Node23 -->
<g id="Node000023" class="node">
<title>Node23</title>
<g id="a_Node000023"><a xlink:href="classPatchGeneration.html#a0f5554a29116f3ceeba740292bffa5d7" target="_top" xlink:title=" ">
<polygon fill="white" stroke="#666666" points="402,-563 256,-563 256,-533 402,-533 402,-563"/>
<text text-anchor="start" x="264" y="-551" font-family="Helvetica,sans-Serif" font-size="10.00">PatchGeneration::generate</text>
<text text-anchor="middle" x="329" y="-540" font-family="Helvetica,sans-Serif" font-size="10.00">FramePatches</text>
</a>
</g>
</g>
<!-- Node22&#45;&gt;Node23 -->
<g id="edge30_Node000022_Node000023" class="edge">
<title>Node22&#45;&gt;Node23</title>
<g id="a_edge30_Node000022_Node000023"><a xlink:title=" ">
<path fill="none" stroke="#63b8ff" d="M481.08,-514.69C467.03,-517.7 451.95,-520.95 438,-524 424.86,-526.87 410.84,-529.96 397.39,-532.94"/>
<polygon fill="#63b8ff" stroke="#63b8ff" points="482.05,-518.06 491.1,-512.55 480.59,-511.22 482.05,-518.06"/>
</a>
</g>
</g>
<!-- Node23&#45;&gt;Node13 -->
<g id="edge31_Node000023_Node000013" class="edge">
<title>Node23&#45;&gt;Node13</title>
<g id="a_edge31_Node000023_Node000013"><a xlink:title=" ">
<path fill="none" stroke="#63b8ff" d="M280.23,-529.27C251.37,-517.95 215.06,-503.71 188.04,-493.11"/>
<polygon fill="#63b8ff" stroke="#63b8ff" points="279.12,-532.59 289.71,-532.98 281.68,-526.07 279.12,-532.59"/>
</a>
</g>
</g>
<!-- Node25 -->
<g id="Node000025" class="node">
<title>Node25</title>
<g id="a_Node000025"><a xlink:href="namespaceNormalComputation.html#afee0c74fa33c55ca9299f5bc960ee6fb" target="_top" xlink:title=" ">
<polygon fill="white" stroke="#666666" points="598,-611 476,-611 476,-581 598,-581 598,-611"/>
<text text-anchor="start" x="484" y="-599" font-family="Helvetica,sans-Serif" font-size="10.00">NormalComputation::</text>
<text text-anchor="middle" x="537" y="-588" font-family="Helvetica,sans-Serif" font-size="10.00">computeNormals</text>
</a>
</g>
</g>
<!-- Node24&#45;&gt;Node25 -->
<g id="edge33_Node000024_Node000025" class="edge">
<title>Node24&#45;&gt;Node25</title>
<g id="a_edge33_Node000024_Node000025"><a xlink:title=" ">
<path fill="none" stroke="#63b8ff" d="M684.35,-596.63C655.63,-596.5 624.31,-596.37 598.05,-596.26"/>
<polygon fill="#63b8ff" stroke="#63b8ff" points="684.37,-600.13 694.38,-596.67 684.4,-593.13 684.37,-600.13"/>
</a>
</g>
</g>
<!-- Node25&#45;&gt;Node23 -->
<g id="edge34_Node000025_Node000023" class="edge">
<title>Node25&#45;&gt;Node23</title>
<g id="a_edge34_Node000025_Node000023"><a xlink:title=" ">
<path fill="none" stroke="#63b8ff" d="M466.1,-579.71C442.94,-574.32 417.27,-568.33 394.53,-563.04"/>
<polygon fill="#63b8ff" stroke="#63b8ff" points="465.33,-583.13 475.86,-581.99 466.92,-576.31 465.33,-583.13"/>
</a>
</g>
</g>
<!-- Node27 -->
<g id="Node000027" class="node">
<title>Node27</title>
<g id="a_Node000027"><a xlink:href="namespaceNormalOrientation.html#af36f6417219e982b994424b1e18339dd" target="_top" xlink:title=" ">
<polygon fill="white" stroke="#666666" points="593.5,-563 480.5,-563 480.5,-533 593.5,-533 593.5,-563"/>
<text text-anchor="start" x="488.5" y="-551" font-family="Helvetica,sans-Serif" font-size="10.00">NormalOrientation::</text>
<text text-anchor="middle" x="537" y="-540" font-family="Helvetica,sans-Serif" font-size="10.00">orientNormals</text>
</a>
</g>
</g>
<!-- Node26&#45;&gt;Node27 -->
<g id="edge36_Node000026_Node000027" class="edge">
<title>Node26&#45;&gt;Node27</title>
<g id="a_edge36_Node000026_Node000027"><a xlink:title=" ">
<path fill="none" stroke="#63b8ff" d="M684.23,-548.63C653.91,-548.5 620.71,-548.35 593.62,-548.24"/>
<polygon fill="#63b8ff" stroke="#63b8ff" points="684.37,-552.13 694.38,-548.67 684.4,-545.13 684.37,-552.13"/>
</a>
</g>
</g>
<!-- Node27&#45;&gt;Node23 -->
<g id="edge37_Node000027_Node000023" class="edge">
<title>Node27&#45;&gt;Node23</title>
<g id="a_edge37_Node000027_Node000023"><a xlink:title=" ">
<path fill="none" stroke="#63b8ff" d="M470.15,-548C448.45,-548 424.21,-548 402.07,-548"/>
<polygon fill="#63b8ff" stroke="#63b8ff" points="470.25,-551.5 480.25,-548 470.25,-544.5 470.25,-551.5"/>
</a>
</g>
</g>
<!-- Node29 -->
<g id="Node000029" class="node">
<title>Node29</title>
<g id="a_Node000029"><a xlink:href="classPatchSegmentation.html#a963380b29b8e3be6e657c17efbecb5ee" target="_top" xlink:title=" ">
<polygon fill="white" stroke="#666666" points="595.5,-174 478.5,-174 478.5,-144 595.5,-144 595.5,-174"/>
<text text-anchor="start" x="486.5" y="-162" font-family="Helvetica,sans-Serif" font-size="10.00">PatchSegmentation::</text>
<text text-anchor="middle" x="537" y="-151" font-family="Helvetica,sans-Serif" font-size="10.00">patchSegmentation</text>
</a>
</g>
</g>
<!-- Node28&#45;&gt;Node29 -->
<g id="edge39_Node000028_Node000029" class="edge">
<title>Node28&#45;&gt;Node29</title>
<g id="a_edge39_Node000028_Node000029"><a xlink:title=" ">
<path fill="none" stroke="#63b8ff" d="M688.12,-189.93C657.53,-183.62 623.56,-176.63 595.68,-170.88"/>
<polygon fill="#63b8ff" stroke="#63b8ff" points="687.42,-193.35 697.92,-191.94 688.83,-186.5 687.42,-193.35"/>
</a>
</g>
</g>
<!-- Node30&#45;&gt;Node29 -->
<g id="edge41_Node000030_Node000029" class="edge">
<title>Node30&#45;&gt;Node29</title>
<g id="a_edge41_Node000030_Node000029"><a xlink:title=" ">
<path fill="none" stroke="#63b8ff" d="M675.9,-159C648.74,-159 619.97,-159 595.77,-159"/>
<polygon fill="#63b8ff" stroke="#63b8ff" points="676.22,-162.5 686.22,-159 676.22,-155.5 676.22,-162.5"/>
</a>
</g>
</g>
<!-- Node31&#45;&gt;Node29 -->
<g id="edge43_Node000031_Node000029" class="edge">
<title>Node31&#45;&gt;Node29</title>
<g id="a_edge43_Node000031_Node000029"><a xlink:title=" ">
<path fill="none" stroke="#63b8ff" d="M688.12,-128.07C657.53,-134.38 623.56,-141.37 595.68,-147.12"/>
<polygon fill="#63b8ff" stroke="#63b8ff" points="688.83,-131.5 697.92,-126.06 687.42,-124.65 688.83,-131.5"/>
</a>
</g>
</g>
<!-- Node34 -->
<g id="Node000034" class="node">
<title>Node34</title>
<g id="a_Node000034"><a xlink:href="classPPISegmenter.html#a581dc0d578e49609015b82b1f9c46f8a" target="_top" xlink:title=" ">
<polygon fill="white" stroke="#666666" points="630.5,-696.5 443.5,-696.5 443.5,-677.5 630.5,-677.5 630.5,-696.5"/>
<text text-anchor="middle" x="537" y="-684.5" font-family="Helvetica,sans-Serif" font-size="10.00">PPISegmenter::refineSegmentation</text>
</a>
</g>
</g>
<!-- Node33&#45;&gt;Node34 -->
<g id="edge46_Node000033_Node000034" class="edge">
<title>Node33&#45;&gt;Node34</title>
<g id="a_edge46_Node000033_Node000034"><a xlink:title=" ">
<path fill="none" stroke="#63b8ff" d="M684.3,-660.63C652.87,-666.29 618.34,-672.52 590.73,-677.5"/>
<polygon fill="#63b8ff" stroke="#63b8ff" points="685.16,-664.03 694.38,-658.81 683.92,-657.14 685.16,-664.03"/>
</a>
</g>
</g>
<!-- Node35 -->
<g id="Node000035" class="node">
<title>Node35</title>
<g id="a_Node000035"><a xlink:href="classPPISegmenter__NewRS.html#a96d1c098a345cc689616904ac391884c" target="_top" xlink:title=" ">
<polygon fill="white" stroke="#666666" points="616,-659 458,-659 458,-629 616,-629 616,-659"/>
<text text-anchor="start" x="466" y="-647" font-family="Helvetica,sans-Serif" font-size="10.00">PPISegmenter_NewRS</text>
<text text-anchor="middle" x="537" y="-636" font-family="Helvetica,sans-Serif" font-size="10.00">::refineSegmentation_NewRS</text>
</a>
</g>
</g>
<!-- Node33&#45;&gt;Node35 -->
<g id="edge48_Node000033_Node000035" class="edge">
<title>Node33&#45;&gt;Node35</title>
<g id="a_edge48_Node000033_Node000035"><a xlink:title=" ">
<path fill="none" stroke="#63b8ff" d="M684.26,-644.63C661.96,-644.53 638.1,-644.43 616.26,-644.34"/>
<polygon fill="#63b8ff" stroke="#63b8ff" points="684.37,-648.13 694.38,-644.67 684.4,-641.13 684.37,-648.13"/>
</a>
</g>
</g>
<!-- Node34&#45;&gt;Node23 -->
<g id="edge47_Node000034_Node000023" class="edge">
<title>Node34&#45;&gt;Node23</title>
<g id="a_edge47_Node000034_Node000023"><a xlink:title=" ">
<path fill="none" stroke="#63b8ff" d="M450.47,-673.98C446.16,-672.23 441.97,-670.24 438,-668 392.13,-642.06 355.39,-589.5 339.1,-563.41"/>
<polygon fill="#63b8ff" stroke="#63b8ff" points="449.51,-677.36 460.11,-677.46 451.89,-670.77 449.51,-677.36"/>
</a>
</g>
</g>
</g>
</svg>

<g id="navigator" transform="translate(0 0)" fill="#404254">
  <rect fill="#f2f5e9" fill-opacity="0.5" stroke="#606060" stroke-width=".5" x="0" y="0" width="60" height="60"/>
  <use id="zoomplus" xlink:href="#zoomPlus" x="17" y="9" onmousedown="handleZoom(evt,'in')"/>
  <use id="zoomminus" xlink:href="#zoomMin" x="42" y="9" onmousedown="handleZoom(evt,'out')"/>
  <use id="reset" xlink:href="#resetDef" x="30" y="36" onmousedown="handleReset()"/>
   <use id="arrowup" xlink:href="#arrowUp" x="0" y="0" onmousedown="handlePan(0,-1)"/>
  <use id="arrowright" xlink:href="#arrowRight" x="0" y="0" onmousedown="handlePan(1,0)"/>
  <use id="arrowdown" xlink:href="#arrowDown" x="0" y="0" onmousedown="handlePan(0,1)"/>
  <use id="arrowleft" xlink:href="#arrowLeft" x="0" y="0" onmousedown="handlePan(-1,0)"/>
</g>
<svg viewBox="0 0 15 15" width="100%" height="30px" preserveAspectRatio="xMaxYMin meet">
 <g id="arrow_out" transform="scale(0.3 0.3)">
  <a xlink:href="namespaceuvgutils_a0abc693a4c9342061a1247ee333c53eb_icgraph_org.svg" target="_base">
   <rect id="button" ry="5" rx="5" y="6" x="6" height="38" width="38"
        fill="#f2f5e9" fill-opacity="0.5" stroke="#606060" stroke-width="1.0"/>
   <path id="arrow"
     d="M 11.500037,31.436501 C 11.940474,20.09759 22.043105,11.32322 32.158766,21.979434 L 37.068811,17.246167 C 37.068811,17.246167 37.088388,32 37.088388,32 L 22.160133,31.978069 C 22.160133,31.978069 26.997745,27.140456 26.997745,27.140456 C 18.528582,18.264221 13.291696,25.230495 11.500037,31.436501 z"
     style="fill:#404040;"/>
  </a>
 </g>
</svg>

<style type='text/css'>
<![CDATA[
[data-mouse-over-selected='false'] { opacity: 0.7; }
[data-mouse-over-selected='true']  { opacity: 1.0; }
]]>
</style>
<script type="application/ecmascript"><![CDATA[
document.addEventListener('DOMContentLoaded', (event) => {
  highlightEdges();
  highlightAdjacentNodes();
});
]]></script>
</svg>
