<?xml version="1.0" encoding="UTF-8" standalone="no"?>
<!DOCTYPE svg PUBLIC "-//W3C//DTD SVG 1.1//EN"
 "http://www.w3.org/Graphics/SVG/1.1/DTD/svg11.dtd">
<!-- Generated by graphviz version 2.43.0 (0)
 -->
<!-- Title: uvgvpcc_enc::zeroPad Pages: 1 -->
<!--zoomable 658 -->

<svg id="main" version="1.1" xmlns="http://www.w3.org/2000/svg" xmlns:xlink="http://www.w3.org/1999/xlink" xml:space="preserve" onload="init(evt)">
<style type="text/css"><![CDATA[
.node, .edge {opacity: 0.7;}
.node.selected, .edge.selected {opacity: 1;}
.edge:hover path { stroke: red; }
.edge:hover polygon { stroke: red; fill: red; }
]]></style>

<defs>
  <circle id="rim" cx="0" cy="0" r="7"/>
  <circle id="rim2" cx="0" cy="0" r="3.5"/>
  <g id="zoomPlus">
    <use xlink:href="#rim" fill="#404040"><set attributeName="fill" to="#808080" begin="zoomplus.mouseover" end="zoomplus.mouseout"/></use>
    <path d="M-4,0h8M0,-4v8" fill="none" stroke="white" stroke-width="1.5" pointer-events="none"/>
  </g>
  <g id="zoomMin">
    <use xlink:href="#rim" fill="#404040"><set attributeName="fill" to="#808080" begin="zoomminus.mouseover" end="zoomminus.mouseout"/></use>
    <path d="M-4,0h8" fill="none" stroke="white" stroke-width="1.5" pointer-events="none"/>
  </g>
  <g id="arrowUp" transform="translate(30 24)">
    <use xlink:href="#rim"/>
    <path pointer-events="none" fill="none" stroke="white" stroke-width="1.5" d="M0,-3.0v7 M-2.5,-0.5L0,-3.0L2.5,-0.5"/>
  </g>
  <g id="arrowRight" transform="rotate(90) translate(36 -43)">
    <use xlink:href="#rim"/>
    <path pointer-events="none" fill="none" stroke="white" stroke-width="1.5" d="M0,-3.0v7 M-2.5,-0.5L0,-3.0L2.5,-0.5"/>
  </g>
  <g id="arrowDown" transform="rotate(180) translate(-30 -48)">
    <use xlink:href="#rim"/>
    <path pointer-events="none" fill="none" stroke="white" stroke-width="1.5" d="M0,-3.0v7 M-2.5,-0.5L0,-3.0L2.5,-0.5"/>
  </g>
  <g id="arrowLeft" transform="rotate(270) translate(-36 17)">
    <use xlink:href="#rim"/>
    <path pointer-events="none" fill="none" stroke="white" stroke-width="1.5" d="M0,-3.0v7 M-2.5,-0.5L0,-3.0L2.5,-0.5"/>
  </g>
  <g id="resetDef">
    <use xlink:href="#rim2" fill="#404040"><set attributeName="fill" to="#808080" begin="reset.mouseover" end="reset.mouseout"/></use>
  </g>
</defs>
<script type="application/ecmascript">
var viewWidth = 1029;
var viewHeight = 658;
var sectionId = 'dynsection-6';
</script>
<script type="application/ecmascript" xlink:href="svg.min.js"/>
<svg id="graph" class="graph">
<g id="viewport">
<title>uvgvpcc_enc::zeroPad</title>
<!-- Node1 -->
<g id="Node000001" class="node">
<title>Node1</title>
<g id="a_Node000001"><a xlink:title=" ">
<polygon fill="#999999" stroke="#666666" points="1021,-333.5 897,-333.5 897,-314.5 1021,-314.5 1021,-333.5"/>
<text text-anchor="middle" x="959" y="-321.5" font-family="Helvetica,sans-Serif" font-size="10.00">uvgvpcc_enc::zeroPad</text>
</a>
</g>
</g>
<!-- Node2 -->
<g id="Node000002" class="node">
<title>Node2</title>
<g id="a_Node000002"><a xlink:href="namespaceFileExport.html#a1dd387de242c49e6c29330cef47cd738" target="_top" xlink:title=" ">
<polygon fill="white" stroke="#666666" points="834,-650 688,-650 688,-620 834,-620 834,-650"/>
<text text-anchor="start" x="696" y="-638" font-family="Helvetica,sans-Serif" font-size="10.00">FileExport::exportAttribute</text>
<text text-anchor="middle" x="761" y="-627" font-family="Helvetica,sans-Serif" font-size="10.00">Bitstream</text>
</a>
</g>
</g>
<!-- Node1&#45;&gt;Node2 -->
<g id="edge1_Node000001_Node000002" class="edge">
<title>Node1&#45;&gt;Node2</title>
<g id="a_edge1_Node000001_Node000002"><a xlink:title=" ">
<path fill="none" stroke="#63b8ff" d="M957.5,-343.9C955.08,-396.05 941.06,-537.7 861,-611 853.37,-617.99 844.06,-623.03 834.23,-626.66"/>
<polygon fill="#63b8ff" stroke="#63b8ff" points="961.01,-343.79 957.88,-333.67 954.01,-343.54 961.01,-343.79"/>
</a>
</g>
</g>
<!-- Node4 -->
<g id="Node000004" class="node">
<title>Node4</title>
<g id="a_Node000004"><a xlink:href="namespaceFileExport.html#a303ebe8ace06be8e35f50ac2ee1c2b18" target="_top" xlink:title=" ">
<polygon fill="white" stroke="#666666" points="837,-602 685,-602 685,-572 837,-572 837,-602"/>
<text text-anchor="start" x="693" y="-590" font-family="Helvetica,sans-Serif" font-size="10.00">FileExport::exportGeometry</text>
<text text-anchor="middle" x="761" y="-579" font-family="Helvetica,sans-Serif" font-size="10.00">Bitstream</text>
</a>
</g>
</g>
<!-- Node1&#45;&gt;Node4 -->
<g id="edge3_Node000001_Node000004" class="edge">
<title>Node1&#45;&gt;Node4</title>
<g id="a_edge3_Node000001_Node000004"><a xlink:title=" ">
<path fill="none" stroke="#63b8ff" d="M956.01,-343.61C950.27,-389.4 929.47,-503.96 861,-563 854.04,-569.01 845.81,-573.56 837.14,-577.01"/>
<polygon fill="#63b8ff" stroke="#63b8ff" points="959.5,-343.85 957.16,-333.52 952.55,-343.06 959.5,-343.85"/>
</a>
</g>
</g>
<!-- Node5 -->
<g id="Node000005" class="node">
<title>Node5</title>
<g id="a_Node000005"><a xlink:href="namespaceFileExport.html#af8cb0e8959f542254301b74c640e376b" target="_top" xlink:title=" ">
<polygon fill="white" stroke="#666666" points="849,-553.5 673,-553.5 673,-534.5 849,-534.5 849,-553.5"/>
<text text-anchor="middle" x="761" y="-541.5" font-family="Helvetica,sans-Serif" font-size="10.00">FileExport::exportImageAttribute</text>
</a>
</g>
</g>
<!-- Node1&#45;&gt;Node5 -->
<g id="edge5_Node000001_Node000005" class="edge">
<title>Node1&#45;&gt;Node5</title>
<g id="a_edge5_Node000001_Node000005"><a xlink:title=" ">
<path fill="none" stroke="#63b8ff" d="M954.5,-343.99C946.22,-384.98 921.37,-478.59 861,-525 856.14,-528.73 850.76,-531.8 845.1,-534.32"/>
<polygon fill="#63b8ff" stroke="#63b8ff" points="957.99,-344.39 956.41,-333.91 951.11,-343.08 957.99,-344.39"/>
</a>
</g>
</g>
<!-- Node6 -->
<g id="Node000006" class="node">
<title>Node6</title>
<g id="a_Node000006"><a xlink:href="namespaceFileExport.html#a7ce79028d0f1956f0de29a43ffbdc27b" target="_top" xlink:title=" ">
<polygon fill="white" stroke="#666666" points="849,-516 673,-516 673,-486 849,-486 849,-516"/>
<text text-anchor="start" x="681" y="-504" font-family="Helvetica,sans-Serif" font-size="10.00">FileExport::exportImageAttribute</text>
<text text-anchor="middle" x="761" y="-493" font-family="Helvetica,sans-Serif" font-size="10.00">BgFill</text>
</a>
</g>
</g>
<!-- Node1&#45;&gt;Node6 -->
<g id="edge6_Node000001_Node000006" class="edge">
<title>Node1&#45;&gt;Node6</title>
<g id="a_edge6_Node000001_Node000006"><a xlink:title=" ">
<path fill="none" stroke="#63b8ff" d="M951.23,-343.48C938.77,-376.35 909,-442.6 861,-477 856.26,-480.4 851.09,-483.32 845.69,-485.83"/>
<polygon fill="#63b8ff" stroke="#63b8ff" points="954.66,-344.3 954.79,-333.71 948.08,-341.9 954.66,-344.3"/>
</a>
</g>
</g>
<!-- Node7 -->
<g id="Node000007" class="node">
<title>Node7</title>
<g id="a_Node000007"><a xlink:href="namespaceFileExport.html#a38357fd7781625e0a9c44f6d1ce8b04c" target="_top" xlink:title=" ">
<polygon fill="white" stroke="#666666" points="859.5,-296.5 662.5,-296.5 662.5,-277.5 859.5,-277.5 859.5,-296.5"/>
<text text-anchor="middle" x="761" y="-284.5" font-family="Helvetica,sans-Serif" font-size="10.00">FileExport::exportImageAttributeYUV</text>
</a>
</g>
</g>
<!-- Node1&#45;&gt;Node7 -->
<g id="edge7_Node000001_Node000007" class="edge">
<title>Node1&#45;&gt;Node7</title>
<g id="a_edge7_Node000001_Node000007"><a xlink:title=" ">
<path fill="none" stroke="#63b8ff" d="M897.36,-312.55C870.19,-307.42 838.52,-301.44 812.64,-296.56"/>
<polygon fill="#63b8ff" stroke="#63b8ff" points="897.05,-316.06 907.53,-314.47 898.35,-309.18 897.05,-316.06"/>
</a>
</g>
</g>
<!-- Node11 -->
<g id="Node000011" class="node">
<title>Node11</title>
<g id="a_Node000011"><a xlink:href="namespaceFileExport.html#add57770ddcd8337550f0ade0b90a0902" target="_top" xlink:title=" ">
<polygon fill="white" stroke="#666666" points="852,-419.5 670,-419.5 670,-400.5 852,-400.5 852,-419.5"/>
<text text-anchor="middle" x="761" y="-407.5" font-family="Helvetica,sans-Serif" font-size="10.00">FileExport::exportImageGeometry</text>
</a>
</g>
</g>
<!-- Node1&#45;&gt;Node11 -->
<g id="edge11_Node000001_Node000011" class="edge">
<title>Node1&#45;&gt;Node11</title>
<g id="a_edge11_Node000001_Node000011"><a xlink:title=" ">
<path fill="none" stroke="#63b8ff" d="M939.59,-340.24C921.05,-355.71 890.95,-378.44 861,-391 851.72,-394.89 841.61,-397.99 831.52,-400.46"/>
<polygon fill="#63b8ff" stroke="#63b8ff" points="941.92,-342.85 947.26,-333.7 937.38,-337.53 941.92,-342.85"/>
</a>
</g>
</g>
<!-- Node12 -->
<g id="Node000012" class="node">
<title>Node12</title>
<g id="a_Node000012"><a xlink:href="namespaceFileExport.html#a14f1fd295139088b2c1c130ebd36dbe3" target="_top" xlink:title=" ">
<polygon fill="white" stroke="#666666" points="852,-382 670,-382 670,-352 852,-352 852,-382"/>
<text text-anchor="start" x="678" y="-370" font-family="Helvetica,sans-Serif" font-size="10.00">FileExport::exportImageGeometry</text>
<text text-anchor="middle" x="761" y="-359" font-family="Helvetica,sans-Serif" font-size="10.00">BgFill</text>
</a>
</g>
</g>
<!-- Node1&#45;&gt;Node12 -->
<g id="edge12_Node000001_Node000012" class="edge">
<title>Node1&#45;&gt;Node12</title>
<g id="a_edge12_Node000001_Node000012"><a xlink:title=" ">
<path fill="none" stroke="#63b8ff" d="M904.63,-335.71C881.75,-340.73 854.73,-346.66 830.4,-351.99"/>
<polygon fill="#63b8ff" stroke="#63b8ff" points="905.48,-339.1 914.5,-333.54 903.98,-332.27 905.48,-339.1"/>
</a>
</g>
</g>
<!-- Node13 -->
<g id="Node000013" class="node">
<title>Node13</title>
<g id="a_Node000013"><a xlink:href="namespaceFileExport.html#a7ffbcd5dbb931da7c5137f2c85a862ad" target="_top" xlink:title=" ">
<polygon fill="white" stroke="#666666" points="854.5,-333.5 667.5,-333.5 667.5,-314.5 854.5,-314.5 854.5,-333.5"/>
<text text-anchor="middle" x="761" y="-321.5" font-family="Helvetica,sans-Serif" font-size="10.00">FileExport::exportImageOccupancy</text>
</a>
</g>
</g>
<!-- Node1&#45;&gt;Node13 -->
<g id="edge13_Node000001_Node000013" class="edge">
<title>Node1&#45;&gt;Node13</title>
<g id="a_edge13_Node000001_Node000013"><a xlink:title=" ">
<path fill="none" stroke="#63b8ff" d="M886.58,-324C876.22,-324 865.42,-324 854.71,-324"/>
<polygon fill="#63b8ff" stroke="#63b8ff" points="886.79,-327.5 896.79,-324 886.79,-320.5 886.79,-327.5"/>
</a>
</g>
</g>
<!-- Node14 -->
<g id="Node000014" class="node">
<title>Node14</title>
<g id="a_Node000014"><a xlink:href="namespaceFileExport.html#af3572e7dc6a5bb93770e300f64313b2f" target="_top" xlink:title=" ">
<polygon fill="white" stroke="#666666" points="861,-259.5 661,-259.5 661,-240.5 861,-240.5 861,-259.5"/>
<text text-anchor="middle" x="761" y="-247.5" font-family="Helvetica,sans-Serif" font-size="10.00">FileExport::exportImageOccupancyDS</text>
</a>
</g>
</g>
<!-- Node1&#45;&gt;Node14 -->
<g id="edge14_Node000001_Node000014" class="edge">
<title>Node1&#45;&gt;Node14</title>
<g id="a_edge14_Node000001_Node000014"><a xlink:title=" ">
<path fill="none" stroke="#63b8ff" d="M936.05,-308.78C917.02,-296.28 888.32,-279.06 861,-269 850.49,-265.13 839.05,-262.01 827.79,-259.5"/>
<polygon fill="#63b8ff" stroke="#63b8ff" points="934.3,-311.82 944.56,-314.48 938.2,-306.01 934.3,-311.82"/>
</a>
</g>
</g>
<!-- Node15 -->
<g id="Node000015" class="node">
<title>Node15</title>
<g id="a_Node000015"><a xlink:href="namespaceFileExport.html#a7f638e98ce327128e84bd34f78bf98bc" target="_top" xlink:title=" ">
<polygon fill="white" stroke="#666666" points="839,-468 683,-468 683,-438 839,-438 839,-468"/>
<text text-anchor="start" x="691" y="-456" font-family="Helvetica,sans-Serif" font-size="10.00">FileExport::exportOccupancy</text>
<text text-anchor="middle" x="761" y="-445" font-family="Helvetica,sans-Serif" font-size="10.00">Bitstream</text>
</a>
</g>
</g>
<!-- Node1&#45;&gt;Node15 -->
<g id="edge16_Node000001_Node000015" class="edge">
<title>Node1&#45;&gt;Node15</title>
<g id="a_edge16_Node000001_Node000015"><a xlink:title=" ">
<path fill="none" stroke="#63b8ff" d="M946.45,-342C930.27,-365.69 898.59,-406.91 861,-429 854.22,-432.99 846.8,-436.31 839.17,-439.09"/>
<polygon fill="#63b8ff" stroke="#63b8ff" points="949.42,-343.84 952.05,-333.58 943.59,-339.96 949.42,-343.84"/>
</a>
</g>
</g>
<!-- Node16 -->
<g id="Node000016" class="node">
<title>Node16</title>
<g id="a_Node000016"><a xlink:href="namespaceFileExport.html#abfd9c58f0cd1e6b112ef97709d6a56fd" target="_top" xlink:title=" ">
<polygon fill="white" stroke="#666666" points="838.5,-126 683.5,-126 683.5,-96 838.5,-96 838.5,-126"/>
<text text-anchor="start" x="691.5" y="-114" font-family="Helvetica,sans-Serif" font-size="10.00">FileExport::exportPointCloud</text>
<text text-anchor="middle" x="761" y="-103" font-family="Helvetica,sans-Serif" font-size="10.00">InitialSegmentation</text>
</a>
</g>
</g>
<!-- Node1&#45;&gt;Node16 -->
<g id="edge18_Node000001_Node000016" class="edge">
<title>Node1&#45;&gt;Node16</title>
<g id="a_edge18_Node000001_Node000016"><a xlink:title=" ">
<path fill="none" stroke="#63b8ff" d="M953.69,-304.37C944.14,-265.67 917.43,-179.45 861,-135 854.33,-129.75 846.68,-125.62 838.66,-122.38"/>
<polygon fill="#63b8ff" stroke="#63b8ff" points="950.34,-305.41 956.03,-314.35 957.16,-303.82 950.34,-305.41"/>
</a>
</g>
</g>
<!-- Node19 -->
<g id="Node000019" class="node">
<title>Node19</title>
<g id="a_Node000019"><a xlink:href="namespaceFileExport.html#a6ebdd5de8f9a45307e11b410bb952b8a" target="_top" xlink:title=" ">
<polygon fill="white" stroke="#666666" points="838.5,-78 683.5,-78 683.5,-48 838.5,-48 838.5,-78"/>
<text text-anchor="start" x="691.5" y="-66" font-family="Helvetica,sans-Serif" font-size="10.00">FileExport::exportPointCloud</text>
<text text-anchor="middle" x="761" y="-55" font-family="Helvetica,sans-Serif" font-size="10.00">NormalComputation</text>
</a>
</g>
</g>
<!-- Node1&#45;&gt;Node19 -->
<g id="edge22_Node000001_Node000019" class="edge">
<title>Node1&#45;&gt;Node19</title>
<g id="a_edge22_Node000001_Node000019"><a xlink:title=" ">
<path fill="none" stroke="#63b8ff" d="M955.87,-303.93C949.91,-258.1 928.75,-145.25 861,-87 854.43,-81.35 846.75,-76.98 838.62,-73.62"/>
<polygon fill="#63b8ff" stroke="#63b8ff" points="952.42,-304.55 957.08,-314.06 959.37,-303.72 952.42,-304.55"/>
</a>
</g>
</g>
<!-- Node21 -->
<g id="Node000021" class="node">
<title>Node21</title>
<g id="a_Node000021"><a xlink:href="namespaceFileExport.html#a47686502937a09de52acf65f0d6357db" target="_top" xlink:title=" ">
<polygon fill="white" stroke="#666666" points="838.5,-30 683.5,-30 683.5,0 838.5,0 838.5,-30"/>
<text text-anchor="start" x="691.5" y="-18" font-family="Helvetica,sans-Serif" font-size="10.00">FileExport::exportPointCloud</text>
<text text-anchor="middle" x="761" y="-7" font-family="Helvetica,sans-Serif" font-size="10.00">NormalOrientation</text>
</a>
</g>
</g>
<!-- Node1&#45;&gt;Node21 -->
<g id="edge25_Node000001_Node000021" class="edge">
<title>Node1&#45;&gt;Node21</title>
<g id="a_edge25_Node000001_Node000021"><a xlink:title=" ">
<path fill="none" stroke="#63b8ff" d="M957.46,-304.24C954.91,-252.44 940.64,-111.76 861,-39 854.6,-33.15 847.03,-28.67 838.96,-25.23"/>
<polygon fill="#63b8ff" stroke="#63b8ff" points="953.97,-304.54 957.85,-314.4 960.96,-304.27 953.97,-304.54"/>
</a>
</g>
</g>
<!-- Node23 -->
<g id="Node000023" class="node">
<title>Node23</title>
<g id="a_Node000023"><a xlink:href="namespaceFileExport.html#a2679d8ba97301be6900c125953a54986" target="_top" xlink:title=" ">
<polygon fill="white" stroke="#666666" points="838.5,-222 683.5,-222 683.5,-192 838.5,-192 838.5,-222"/>
<text text-anchor="start" x="691.5" y="-210" font-family="Helvetica,sans-Serif" font-size="10.00">FileExport::exportPointCloud</text>
<text text-anchor="middle" x="761" y="-199" font-family="Helvetica,sans-Serif" font-size="10.00">PatchSegmentation</text>
</a>
</g>
</g>
<!-- Node1&#45;&gt;Node23 -->
<g id="edge28_Node000001_Node000023" class="edge">
<title>Node1&#45;&gt;Node23</title>
<g id="a_edge28_Node000001_Node000023"><a xlink:title=" ">
<path fill="none" stroke="#63b8ff" d="M944.14,-306.18C926.91,-285.25 895.52,-251 861,-232 853.93,-228.11 846.25,-224.81 838.4,-222.02"/>
<polygon fill="#63b8ff" stroke="#63b8ff" points="941.63,-308.65 950.63,-314.25 947.09,-304.26 941.63,-308.65"/>
</a>
</g>
</g>
<!-- Node25 -->
<g id="Node000025" class="node">
<title>Node25</title>
<g id="a_Node000025"><a xlink:href="namespaceFileExport.html#abb3934fea49bd8651d8498d236496bb8" target="_top" xlink:title=" ">
<polygon fill="white" stroke="#666666" points="838.5,-174 683.5,-174 683.5,-144 838.5,-144 838.5,-174"/>
<text text-anchor="start" x="691.5" y="-162" font-family="Helvetica,sans-Serif" font-size="10.00">FileExport::exportPointCloud</text>
<text text-anchor="middle" x="761" y="-151" font-family="Helvetica,sans-Serif" font-size="10.00">RefineSegmentation</text>
</a>
</g>
</g>
<!-- Node1&#45;&gt;Node25 -->
<g id="edge31_Node000001_Node000025" class="edge">
<title>Node1&#45;&gt;Node25</title>
<g id="a_edge31_Node000001_Node000025"><a xlink:title=" ">
<path fill="none" stroke="#63b8ff" d="M950.24,-304.76C936.82,-274.04 906.31,-214.2 861,-183 854.15,-178.29 846.48,-174.49 838.53,-171.44"/>
<polygon fill="#63b8ff" stroke="#63b8ff" points="947.16,-306.46 954.27,-314.31 953.61,-303.74 947.16,-306.46"/>
</a>
</g>
</g>
<!-- Node3 -->
<g id="Node000003" class="node">
<title>Node3</title>
<g id="a_Node000003"><a xlink:href="classEncoderKvazaar.html#a7ad02c30c21ef1f790bca3bcc6309288" target="_top" xlink:title=" ">
<polygon fill="white" stroke="#666666" points="623.5,-596.5 439.5,-596.5 439.5,-577.5 623.5,-577.5 623.5,-596.5"/>
<text text-anchor="middle" x="531.5" y="-584.5" font-family="Helvetica,sans-Serif" font-size="10.00">EncoderKvazaar::encodeGOFMaps</text>
</a>
</g>
</g>
<!-- Node2&#45;&gt;Node3 -->
<g id="edge2_Node000002_Node000003" class="edge">
<title>Node2&#45;&gt;Node3</title>
<g id="a_edge2_Node000002_Node000003"><a xlink:title=" ">
<path fill="none" stroke="#63b8ff" d="M678.73,-617.85C644.79,-610.69 606.65,-602.65 577.83,-596.56"/>
<polygon fill="#63b8ff" stroke="#63b8ff" points="678.13,-621.3 688.64,-619.94 679.58,-614.46 678.13,-621.3"/>
</a>
</g>
</g>
<!-- Node4&#45;&gt;Node3 -->
<g id="edge4_Node000004_Node000003" class="edge">
<title>Node4&#45;&gt;Node3</title>
<g id="a_edge4_Node000004_Node000003"><a xlink:title=" ">
<path fill="none" stroke="#63b8ff" d="M674.66,-587C658.05,-587 640.58,-587 623.79,-587"/>
<polygon fill="#63b8ff" stroke="#63b8ff" points="674.88,-590.5 684.88,-587 674.88,-583.5 674.88,-590.5"/>
</a>
</g>
</g>
<!-- Node8 -->
<g id="Node000008" class="node">
<title>Node8</title>
<g id="a_Node000008"><a xlink:href="classMapGenerationBaseLine.html#a7d9862ea5acff65b91f5a2bfad449030" target="_top" xlink:title=" ">
<polygon fill="white" stroke="#666666" points="599.5,-265 463.5,-265 463.5,-235 599.5,-235 599.5,-265"/>
<text text-anchor="start" x="471.5" y="-253" font-family="Helvetica,sans-Serif" font-size="10.00">MapGenerationBaseLine</text>
<text text-anchor="middle" x="531.5" y="-242" font-family="Helvetica,sans-Serif" font-size="10.00">::generateFrameMaps</text>
</a>
</g>
</g>
<!-- Node7&#45;&gt;Node8 -->
<g id="edge8_Node000007_Node000008" class="edge">
<title>Node7&#45;&gt;Node8</title>
<g id="a_edge8_Node000007_Node000008"><a xlink:title=" ">
<path fill="none" stroke="#63b8ff" d="M691.36,-275.84C662.33,-271.11 628.62,-265.63 599.75,-260.94"/>
<polygon fill="#63b8ff" stroke="#63b8ff" points="690.98,-279.32 701.41,-277.47 692.1,-272.41 690.98,-279.32"/>
</a>
</g>
</g>
<!-- Node9 -->
<g id="Node000009" class="node">
<title>Node9</title>
<g id="a_Node000009"><a xlink:href="namespaceuvgvpcc__enc_1_1API.html#ac96f1663ec59a1bbc04778ae958780fa" target="_top" xlink:title="Entry point of the uvgVPCCenc library. Take as input a frame. Create all the jobs for processing this...">
<polygon fill="white" stroke="#666666" points="220,-174 77,-174 77,-144 220,-144 220,-174"/>
<text text-anchor="start" x="85" y="-162" font-family="Helvetica,sans-Serif" font-size="10.00">uvgvpcc_enc::API::encode</text>
<text text-anchor="middle" x="148.5" y="-151" font-family="Helvetica,sans-Serif" font-size="10.00">Frame</text>
</a>
</g>
</g>
<!-- Node8&#45;&gt;Node9 -->
<g id="edge9_Node000008_Node000009" class="edge">
<title>Node8&#45;&gt;Node9</title>
<g id="a_edge9_Node000008_Node000009"><a xlink:title=" ">
<path fill="none" stroke="#63b8ff" d="M457.82,-232.64C386.85,-215.69 279.97,-190.16 212.51,-174.05"/>
<polygon fill="#63b8ff" stroke="#63b8ff" points="457.05,-236.05 467.59,-234.97 458.67,-229.25 457.05,-236.05"/>
</a>
</g>
</g>
<!-- Node10 -->
<g id="Node000010" class="node">
<title>Node10</title>
<g id="a_Node000010"><a xlink:href="uvgVPCCencAppExample_8cpp.html#aee608aedd5b0b58f2966c2ff15101925" target="_top" xlink:title="This example application offers a simple approach to working with the uvgVPCCenc library and highligh...">
<polygon fill="white" stroke="#666666" points="41,-168.5 0,-168.5 0,-149.5 41,-149.5 41,-168.5"/>
<text text-anchor="middle" x="20.5" y="-156.5" font-family="Helvetica,sans-Serif" font-size="10.00">main</text>
</a>
</g>
</g>
<!-- Node9&#45;&gt;Node10 -->
<g id="edge10_Node000009_Node000010" class="edge">
<title>Node9&#45;&gt;Node10</title>
<g id="a_edge10_Node000009_Node000010"><a xlink:title=" ">
<path fill="none" stroke="#63b8ff" d="M66.74,-159C57.29,-159 48.42,-159 41.08,-159"/>
<polygon fill="#63b8ff" stroke="#63b8ff" points="66.77,-162.5 76.77,-159 66.77,-155.5 66.77,-162.5"/>
</a>
</g>
</g>
<!-- Node14&#45;&gt;Node8 -->
<g id="edge15_Node000014_Node000008" class="edge">
<title>Node14&#45;&gt;Node8</title>
<g id="a_edge15_Node000014_Node000008"><a xlink:title=" ">
<path fill="none" stroke="#63b8ff" d="M650.64,-250C633.21,-250 615.64,-250 599.57,-250"/>
<polygon fill="#63b8ff" stroke="#63b8ff" points="650.88,-253.5 660.88,-250 650.88,-246.5 650.88,-253.5"/>
</a>
</g>
</g>
<!-- Node15&#45;&gt;Node3 -->
<g id="edge17_Node000015_Node000003" class="edge">
<title>Node15&#45;&gt;Node3</title>
<g id="a_edge17_Node000015_Node000003"><a xlink:title=" ">
<path fill="none" stroke="#63b8ff" d="M673.34,-471.41C669.1,-473.11 664.96,-474.97 661,-477 608.71,-503.75 559.69,-555.84 540.75,-577.35"/>
<polygon fill="#63b8ff" stroke="#63b8ff" points="674.6,-474.67 682.76,-467.91 672.17,-468.11 674.6,-474.67"/>
</a>
</g>
</g>
<!-- Node17 -->
<g id="Node000017" class="node">
<title>Node17</title>
<g id="a_Node000017"><a xlink:href="classPPISegmenter.html#a4a7440a210f2209c6048ec22dc338e8b" target="_top" xlink:title=" ">
<polygon fill="white" stroke="#666666" points="625,-123.5 438,-123.5 438,-104.5 625,-104.5 625,-123.5"/>
<text text-anchor="middle" x="531.5" y="-111.5" font-family="Helvetica,sans-Serif" font-size="10.00">PPISegmenter::initialSegmentation</text>
</a>
</g>
</g>
<!-- Node16&#45;&gt;Node17 -->
<g id="edge19_Node000016_Node000017" class="edge">
<title>Node16&#45;&gt;Node17</title>
<g id="a_edge19_Node000016_Node000017"><a xlink:title=" ">
<path fill="none" stroke="#63b8ff" d="M673.08,-112.15C657.36,-112.35 640.91,-112.57 625.03,-112.78"/>
<polygon fill="#63b8ff" stroke="#63b8ff" points="673.34,-115.64 683.3,-112.01 673.25,-108.64 673.34,-115.64"/>
</a>
</g>
</g>
<!-- Node18 -->
<g id="Node000018" class="node">
<title>Node18</title>
<g id="a_Node000018"><a xlink:href="classPatchGeneration.html#a0f5554a29116f3ceeba740292bffa5d7" target="_top" xlink:title=" ">
<polygon fill="white" stroke="#666666" points="402,-153 256,-153 256,-123 402,-123 402,-153"/>
<text text-anchor="start" x="264" y="-141" font-family="Helvetica,sans-Serif" font-size="10.00">PatchGeneration::generate</text>
<text text-anchor="middle" x="329" y="-130" font-family="Helvetica,sans-Serif" font-size="10.00">FramePatches</text>
</a>
</g>
</g>
<!-- Node17&#45;&gt;Node18 -->
<g id="edge20_Node000017_Node000018" class="edge">
<title>Node17&#45;&gt;Node18</title>
<g id="a_edge20_Node000017_Node000018"><a xlink:title=" ">
<path fill="none" stroke="#63b8ff" d="M440.72,-124.75C427.85,-126.29 414.75,-127.86 402.28,-129.35"/>
<polygon fill="#63b8ff" stroke="#63b8ff" points="441.46,-128.18 450.97,-123.52 440.62,-121.23 441.46,-128.18"/>
</a>
</g>
</g>
<!-- Node18&#45;&gt;Node9 -->
<g id="edge21_Node000018_Node000009" class="edge">
<title>Node18&#45;&gt;Node9</title>
<g id="a_edge21_Node000018_Node000009"><a xlink:title=" ">
<path fill="none" stroke="#63b8ff" d="M245.87,-147.66C237.27,-148.67 228.58,-149.7 220.12,-150.69"/>
<polygon fill="#63b8ff" stroke="#63b8ff" points="246.39,-151.13 255.91,-146.48 245.57,-144.17 246.39,-151.13"/>
</a>
</g>
</g>
<!-- Node20 -->
<g id="Node000020" class="node">
<title>Node20</title>
<g id="a_Node000020"><a xlink:href="namespaceNormalComputation.html#a46480ca405a1a36a28d865696ba485f0" target="_top" xlink:title=" ">
<polygon fill="white" stroke="#666666" points="592.5,-85 470.5,-85 470.5,-55 592.5,-55 592.5,-85"/>
<text text-anchor="start" x="478.5" y="-73" font-family="Helvetica,sans-Serif" font-size="10.00">NormalComputation::</text>
<text text-anchor="middle" x="531.5" y="-62" font-family="Helvetica,sans-Serif" font-size="10.00">computeNormals</text>
</a>
</g>
</g>
<!-- Node19&#45;&gt;Node20 -->
<g id="edge23_Node000019_Node000020" class="edge">
<title>Node19&#45;&gt;Node20</title>
<g id="a_edge23_Node000019_Node000020"><a xlink:title=" ">
<path fill="none" stroke="#63b8ff" d="M673.13,-65.67C646.29,-66.5 617.33,-67.39 592.71,-68.15"/>
<polygon fill="#63b8ff" stroke="#63b8ff" points="673.41,-69.17 683.3,-65.36 673.19,-62.17 673.41,-69.17"/>
</a>
</g>
</g>
<!-- Node20&#45;&gt;Node18 -->
<g id="edge24_Node000020_Node000018" class="edge">
<title>Node20&#45;&gt;Node18</title>
<g id="a_edge24_Node000020_Node000018"><a xlink:title=" ">
<path fill="none" stroke="#63b8ff" d="M461.36,-87.75C453.44,-90.06 445.52,-92.5 438,-95 413.3,-103.22 386.07,-114.08 365.13,-122.82"/>
<polygon fill="#63b8ff" stroke="#63b8ff" points="462.33,-91.11 470.98,-85 460.41,-84.38 462.33,-91.11"/>
</a>
</g>
</g>
<!-- Node22 -->
<g id="Node000022" class="node">
<title>Node22</title>
<g id="a_Node000022"><a xlink:href="namespaceNormalOrientation.html#a5fadc067a7ed313e80ad559d11e7c67f" target="_top" xlink:title=" ">
<polygon fill="white" stroke="#666666" points="588,-35 475,-35 475,-5 588,-5 588,-35"/>
<text text-anchor="start" x="483" y="-23" font-family="Helvetica,sans-Serif" font-size="10.00">NormalOrientation::</text>
<text text-anchor="middle" x="531.5" y="-12" font-family="Helvetica,sans-Serif" font-size="10.00">orientNormals</text>
</a>
</g>
</g>
<!-- Node21&#45;&gt;Node22 -->
<g id="edge26_Node000021_Node000022" class="edge">
<title>Node21&#45;&gt;Node22</title>
<g id="a_edge26_Node000021_Node000022"><a xlink:title=" ">
<path fill="none" stroke="#63b8ff" d="M673.29,-16.91C644.69,-17.53 613.66,-18.22 588.03,-18.78"/>
<polygon fill="#63b8ff" stroke="#63b8ff" points="673.38,-20.4 683.3,-16.69 673.22,-13.41 673.38,-20.4"/>
</a>
</g>
</g>
<!-- Node22&#45;&gt;Node18 -->
<g id="edge27_Node000022_Node000018" class="edge">
<title>Node22&#45;&gt;Node18</title>
<g id="a_edge27_Node000022_Node000018"><a xlink:title=" ">
<path fill="none" stroke="#63b8ff" d="M465,-34.57C455.68,-37.74 446.41,-41.52 438,-46 399.53,-66.51 362.63,-102.64 343.52,-122.98"/>
<polygon fill="#63b8ff" stroke="#63b8ff" points="466.22,-37.86 474.7,-31.5 464.11,-31.18 466.22,-37.86"/>
</a>
</g>
</g>
<!-- Node24 -->
<g id="Node000024" class="node">
<title>Node24</title>
<g id="a_Node000024"><a xlink:href="classPatchSegmentation.html#ae9e1573c095e27775256945bfee089ac" target="_top" xlink:title=" ">
<polygon fill="white" stroke="#666666" points="590,-215 473,-215 473,-185 590,-185 590,-215"/>
<text text-anchor="start" x="481" y="-203" font-family="Helvetica,sans-Serif" font-size="10.00">PatchSegmentation::</text>
<text text-anchor="middle" x="531.5" y="-192" font-family="Helvetica,sans-Serif" font-size="10.00">patchSegmentation</text>
</a>
</g>
</g>
<!-- Node23&#45;&gt;Node24 -->
<g id="edge29_Node000023_Node000024" class="edge">
<title>Node23&#45;&gt;Node24</title>
<g id="a_edge29_Node000023_Node000024"><a xlink:title=" ">
<path fill="none" stroke="#63b8ff" d="M673.18,-204.33C645.4,-203.47 615.35,-202.55 590.18,-201.77"/>
<polygon fill="#63b8ff" stroke="#63b8ff" points="673.19,-207.83 683.3,-204.64 673.41,-200.83 673.19,-207.83"/>
</a>
</g>
</g>
<!-- Node24&#45;&gt;Node18 -->
<g id="edge30_Node000024_Node000018" class="edge">
<title>Node24&#45;&gt;Node18</title>
<g id="a_edge30_Node000024_Node000018"><a xlink:title=" ">
<path fill="none" stroke="#63b8ff" d="M468.42,-182.15C458.24,-179.15 447.81,-176.02 438,-173 417.37,-166.65 394.63,-159.33 375.36,-153.03"/>
<polygon fill="#63b8ff" stroke="#63b8ff" points="467.5,-185.53 478.08,-184.99 469.47,-178.81 467.5,-185.53"/>
</a>
</g>
</g>
<!-- Node26 -->
<g id="Node000026" class="node">
<title>Node26</title>
<g id="a_Node000026"><a xlink:href="classPPISegmenter.html#a581dc0d578e49609015b82b1f9c46f8a" target="_top" xlink:title=" ">
<polygon fill="white" stroke="#666666" points="625,-163.5 438,-163.5 438,-144.5 625,-144.5 625,-163.5"/>
<text text-anchor="middle" x="531.5" y="-151.5" font-family="Helvetica,sans-Serif" font-size="10.00">PPISegmenter::refineSegmentation</text>
</a>
</g>
</g>
<!-- Node25&#45;&gt;Node26 -->
<g id="edge32_Node000025_Node000026" class="edge">
<title>Node25&#45;&gt;Node26</title>
<g id="a_edge32_Node000025_Node000026"><a xlink:title=" ">
<path fill="none" stroke="#63b8ff" d="M673.08,-157.09C657.36,-156.74 640.91,-156.38 625.03,-156.03"/>
<polygon fill="#63b8ff" stroke="#63b8ff" points="673.22,-160.59 683.3,-157.31 673.38,-153.6 673.22,-160.59"/>
</a>
</g>
</g>
<!-- Node26&#45;&gt;Node18 -->
<g id="edge33_Node000026_Node000018" class="edge">
<title>Node26&#45;&gt;Node18</title>
<g id="a_edge33_Node000026_Node000018"><a xlink:title=" ">
<path fill="none" stroke="#63b8ff" d="M427.73,-145.8C419.08,-145.11 410.46,-144.42 402.12,-143.76"/>
<polygon fill="#63b8ff" stroke="#63b8ff" points="427.63,-149.3 437.88,-146.61 428.19,-142.32 427.63,-149.3"/>
</a>
</g>
</g>
</g>
</svg>

<g id="navigator" transform="translate(0 0)" fill="#404254">
  <rect fill="#f2f5e9" fill-opacity="0.5" stroke="#606060" stroke-width=".5" x="0" y="0" width="60" height="60"/>
  <use id="zoomplus" xlink:href="#zoomPlus" x="17" y="9" onmousedown="handleZoom(evt,'in')"/>
  <use id="zoomminus" xlink:href="#zoomMin" x="42" y="9" onmousedown="handleZoom(evt,'out')"/>
  <use id="reset" xlink:href="#resetDef" x="30" y="36" onmousedown="handleReset()"/>
   <use id="arrowup" xlink:href="#arrowUp" x="0" y="0" onmousedown="handlePan(0,-1)"/>
  <use id="arrowright" xlink:href="#arrowRight" x="0" y="0" onmousedown="handlePan(1,0)"/>
  <use id="arrowdown" xlink:href="#arrowDown" x="0" y="0" onmousedown="handlePan(0,1)"/>
  <use id="arrowleft" xlink:href="#arrowLeft" x="0" y="0" onmousedown="handlePan(-1,0)"/>
</g>
<svg viewBox="0 0 15 15" width="100%" height="30px" preserveAspectRatio="xMaxYMin meet">
 <g id="arrow_out" transform="scale(0.3 0.3)">
  <a xlink:href="namespaceuvgvpcc__enc_a69b2cb991ff48de10ff75bc3c0582a54_icgraph_org.svg" target="_base">
   <rect id="button" ry="5" rx="5" y="6" x="6" height="38" width="38"
        fill="#f2f5e9" fill-opacity="0.5" stroke="#606060" stroke-width="1.0"/>
   <path id="arrow"
     d="M 11.500037,31.436501 C 11.940474,20.09759 22.043105,11.32322 32.158766,21.979434 L 37.068811,17.246167 C 37.068811,17.246167 37.088388,32 37.088388,32 L 22.160133,31.978069 C 22.160133,31.978069 26.997745,27.140456 26.997745,27.140456 C 18.528582,18.264221 13.291696,25.230495 11.500037,31.436501 z"
     style="fill:#404040;"/>
  </a>
 </g>
</svg>

<style type='text/css'>
<![CDATA[
[data-mouse-over-selected='false'] { opacity: 0.7; }
[data-mouse-over-selected='true']  { opacity: 1.0; }
]]>
</style>
<script type="application/ecmascript"><![CDATA[
document.addEventListener('DOMContentLoaded', (event) => {
  highlightEdges();
  highlightAdjacentNodes();
});
]]></script>
</svg>
