<?xml version="1.0" encoding="UTF-8" standalone="no"?>
<!DOCTYPE svg PUBLIC "-//W3C//DTD SVG 1.1//EN"
 "http://www.w3.org/Graphics/SVG/1.1/DTD/svg11.dtd">
<!-- Generated by graphviz version 2.43.0 (0)
 -->
<!-- Title: uvgvpcc_enc::zeroPad Pages: 1 -->
<!--zoomable 812 -->

<svg id="main" version="1.1" xmlns="http://www.w3.org/2000/svg" xmlns:xlink="http://www.w3.org/1999/xlink" xml:space="preserve" onload="init(evt)">
<style type="text/css"><![CDATA[
.node, .edge {opacity: 0.7;}
.node.selected, .edge.selected {opacity: 1;}
.edge:hover path { stroke: red; }
.edge:hover polygon { stroke: red; fill: red; }
]]></style>

<defs>
  <circle id="rim" cx="0" cy="0" r="7"/>
  <circle id="rim2" cx="0" cy="0" r="3.5"/>
  <g id="zoomPlus">
    <use xlink:href="#rim" fill="#404040"><set attributeName="fill" to="#808080" begin="zoomplus.mouseover" end="zoomplus.mouseout"/></use>
    <path d="M-4,0h8M0,-4v8" fill="none" stroke="white" stroke-width="1.5" pointer-events="none"/>
  </g>
  <g id="zoomMin">
    <use xlink:href="#rim" fill="#404040"><set attributeName="fill" to="#808080" begin="zoomminus.mouseover" end="zoomminus.mouseout"/></use>
    <path d="M-4,0h8" fill="none" stroke="white" stroke-width="1.5" pointer-events="none"/>
  </g>
  <g id="arrowUp" transform="translate(30 24)">
    <use xlink:href="#rim"/>
    <path pointer-events="none" fill="none" stroke="white" stroke-width="1.5" d="M0,-3.0v7 M-2.5,-0.5L0,-3.0L2.5,-0.5"/>
  </g>
  <g id="arrowRight" transform="rotate(90) translate(36 -43)">
    <use xlink:href="#rim"/>
    <path pointer-events="none" fill="none" stroke="white" stroke-width="1.5" d="M0,-3.0v7 M-2.5,-0.5L0,-3.0L2.5,-0.5"/>
  </g>
  <g id="arrowDown" transform="rotate(180) translate(-30 -48)">
    <use xlink:href="#rim"/>
    <path pointer-events="none" fill="none" stroke="white" stroke-width="1.5" d="M0,-3.0v7 M-2.5,-0.5L0,-3.0L2.5,-0.5"/>
  </g>
  <g id="arrowLeft" transform="rotate(270) translate(-36 17)">
    <use xlink:href="#rim"/>
    <path pointer-events="none" fill="none" stroke="white" stroke-width="1.5" d="M0,-3.0v7 M-2.5,-0.5L0,-3.0L2.5,-0.5"/>
  </g>
  <g id="resetDef">
    <use xlink:href="#rim2" fill="#404040"><set attributeName="fill" to="#808080" begin="reset.mouseover" end="reset.mouseout"/></use>
  </g>
</defs>
<script type="application/ecmascript">
var viewWidth = 1040;
var viewHeight = 812;
var sectionId = 'dynsection-6';
</script>
<script type="application/ecmascript" xlink:href="svg.min.js"/>
<svg id="graph" class="graph">
<g id="viewport">
<title>uvgvpcc_enc::zeroPad</title>
<!-- Node1 -->
<g id="Node000001" class="node">
<title>Node1</title>
<g id="a_Node000001"><a xlink:title=" ">
<polygon fill="#999999" stroke="#666666" points="1032,-409.5 908,-409.5 908,-390.5 1032,-390.5 1032,-409.5"/>
<text text-anchor="middle" x="970" y="-397.5" font-family="Helvetica,sans-Serif" font-size="10.00">uvgvpcc_enc::zeroPad</text>
</a>
</g>
</g>
<!-- Node2 -->
<g id="Node000002" class="node">
<title>Node2</title>
<g id="a_Node000002"><a xlink:href="namespaceFileExport.html#a7aeaa297ad205055b403629f094bec0d" target="_top" xlink:title=" ">
<polygon fill="white" stroke="#666666" points="864.5,-785.5 679.5,-785.5 679.5,-766.5 864.5,-766.5 864.5,-785.5"/>
<text text-anchor="middle" x="772" y="-773.5" font-family="Helvetica,sans-Serif" font-size="10.00">FileExport::exportAtlasInformation</text>
</a>
</g>
</g>
<!-- Node1&#45;&gt;Node2 -->
<g id="edge1_Node000001_Node000002" class="edge">
<title>Node1&#45;&gt;Node2</title>
<g id="a_edge1_Node000001_Node000002"><a xlink:title=" ">
<path fill="none" stroke="#63b8ff" d="M966.36,-419.97C956.95,-488.1 922.87,-709.84 872,-757 868.02,-760.69 863.55,-763.76 858.78,-766.32"/>
<polygon fill="#63b8ff" stroke="#63b8ff" points="969.87,-420.13 967.75,-409.75 962.94,-419.19 969.87,-420.13"/>
</a>
</g>
</g>
<!-- Node6 -->
<g id="Node000006" class="node">
<title>Node6</title>
<g id="a_Node000006"><a xlink:href="namespaceFileExport.html#a1dd387de242c49e6c29330cef47cd738" target="_top" xlink:title=" ">
<polygon fill="white" stroke="#666666" points="845,-748 699,-748 699,-718 845,-718 845,-748"/>
<text text-anchor="start" x="707" y="-736" font-family="Helvetica,sans-Serif" font-size="10.00">FileExport::exportAttribute</text>
<text text-anchor="middle" x="772" y="-725" font-family="Helvetica,sans-Serif" font-size="10.00">Bitstream</text>
</a>
</g>
</g>
<!-- Node1&#45;&gt;Node6 -->
<g id="edge6_Node000001_Node000006" class="edge">
<title>Node1&#45;&gt;Node6</title>
<g id="a_edge6_Node000001_Node000006"><a xlink:title=" ">
<path fill="none" stroke="#63b8ff" d="M969.06,-419.57C968.12,-474.07 957.66,-628.84 872,-709 864.38,-716.13 855.02,-721.25 845.11,-724.9"/>
<polygon fill="#63b8ff" stroke="#63b8ff" points="972.56,-419.55 969.14,-409.52 965.56,-419.5 972.56,-419.55"/>
</a>
</g>
</g>
<!-- Node8 -->
<g id="Node000008" class="node">
<title>Node8</title>
<g id="a_Node000008"><a xlink:href="namespaceFileExport.html#a303ebe8ace06be8e35f50ac2ee1c2b18" target="_top" xlink:title=" ">
<polygon fill="white" stroke="#666666" points="848,-700 696,-700 696,-670 848,-670 848,-700"/>
<text text-anchor="start" x="704" y="-688" font-family="Helvetica,sans-Serif" font-size="10.00">FileExport::exportGeometry</text>
<text text-anchor="middle" x="772" y="-677" font-family="Helvetica,sans-Serif" font-size="10.00">Bitstream</text>
</a>
</g>
</g>
<!-- Node1&#45;&gt;Node8 -->
<g id="edge8_Node000001_Node000008" class="edge">
<title>Node1&#45;&gt;Node8</title>
<g id="a_edge8_Node000001_Node000008"><a xlink:title=" ">
<path fill="none" stroke="#63b8ff" d="M967.75,-419.73C963.57,-468.49 945.77,-595.46 872,-661 865.06,-667.17 856.8,-671.81 848.06,-675.3"/>
<polygon fill="#63b8ff" stroke="#63b8ff" points="971.26,-419.82 968.52,-409.58 964.28,-419.29 971.26,-419.82"/>
</a>
</g>
</g>
<!-- Node9 -->
<g id="Node000009" class="node">
<title>Node9</title>
<g id="a_Node000009"><a xlink:href="namespaceFileExport.html#af8cb0e8959f542254301b74c640e376b" target="_top" xlink:title=" ">
<polygon fill="white" stroke="#666666" points="860,-651.5 684,-651.5 684,-632.5 860,-632.5 860,-651.5"/>
<text text-anchor="middle" x="772" y="-639.5" font-family="Helvetica,sans-Serif" font-size="10.00">FileExport::exportImageAttribute</text>
</a>
</g>
</g>
<!-- Node1&#45;&gt;Node9 -->
<g id="edge10_Node000001_Node000009" class="edge">
<title>Node1&#45;&gt;Node9</title>
<g id="a_edge10_Node000001_Node000009"><a xlink:title=" ">
<path fill="none" stroke="#63b8ff" d="M966.53,-420.02C959.96,-464.21 937.79,-570.33 872,-623 867.35,-626.72 862.2,-629.78 856.75,-632.31"/>
<polygon fill="#63b8ff" stroke="#63b8ff" points="970.02,-420.35 967.91,-409.96 963.08,-419.39 970.02,-420.35"/>
</a>
</g>
</g>
<!-- Node10 -->
<g id="Node000010" class="node">
<title>Node10</title>
<g id="a_Node000010"><a xlink:href="namespaceFileExport.html#a7ce79028d0f1956f0de29a43ffbdc27b" target="_top" xlink:title=" ">
<polygon fill="white" stroke="#666666" points="860,-250 684,-250 684,-220 860,-220 860,-250"/>
<text text-anchor="start" x="692" y="-238" font-family="Helvetica,sans-Serif" font-size="10.00">FileExport::exportImageAttribute</text>
<text text-anchor="middle" x="772" y="-227" font-family="Helvetica,sans-Serif" font-size="10.00">BgFill</text>
</a>
</g>
</g>
<!-- Node1&#45;&gt;Node10 -->
<g id="edge11_Node000001_Node000010" class="edge">
<title>Node1&#45;&gt;Node10</title>
<g id="a_edge11_Node000001_Node000010"><a xlink:title=" ">
<path fill="none" stroke="#63b8ff" d="M961.24,-380.76C947.82,-350.04 917.31,-290.2 872,-259 867.05,-255.59 861.66,-252.66 856.05,-250.15"/>
<polygon fill="#63b8ff" stroke="#63b8ff" points="958.16,-382.46 965.27,-390.31 964.61,-379.74 958.16,-382.46"/>
</a>
</g>
</g>
<!-- Node14 -->
<g id="Node000014" class="node">
<title>Node14</title>
<g id="a_Node000014"><a xlink:href="namespaceFileExport.html#a38357fd7781625e0a9c44f6d1ce8b04c" target="_top" xlink:title=" ">
<polygon fill="white" stroke="#666666" points="870.5,-201.5 673.5,-201.5 673.5,-182.5 870.5,-182.5 870.5,-201.5"/>
<text text-anchor="middle" x="772" y="-189.5" font-family="Helvetica,sans-Serif" font-size="10.00">FileExport::exportImageAttributeYUV</text>
</a>
</g>
</g>
<!-- Node1&#45;&gt;Node14 -->
<g id="edge15_Node000001_Node000014" class="edge">
<title>Node1&#45;&gt;Node14</title>
<g id="a_edge15_Node000001_Node000014"><a xlink:title=" ">
<path fill="none" stroke="#63b8ff" d="M964.93,-380.38C955.76,-341.39 929.61,-254.17 872,-211 866.96,-207.22 861.38,-204.13 855.51,-201.61"/>
<polygon fill="#63b8ff" stroke="#63b8ff" points="961.54,-381.23 967.12,-390.23 968.37,-379.71 961.54,-381.23"/>
</a>
</g>
</g>
<!-- Node15 -->
<g id="Node000015" class="node">
<title>Node15</title>
<g id="a_Node000015"><a xlink:href="namespaceFileExport.html#add57770ddcd8337550f0ade0b90a0902" target="_top" xlink:title=" ">
<polygon fill="white" stroke="#666666" points="863,-517.5 681,-517.5 681,-498.5 863,-498.5 863,-517.5"/>
<text text-anchor="middle" x="772" y="-505.5" font-family="Helvetica,sans-Serif" font-size="10.00">FileExport::exportImageGeometry</text>
</a>
</g>
</g>
<!-- Node1&#45;&gt;Node15 -->
<g id="edge17_Node000001_Node000015" class="edge">
<title>Node1&#45;&gt;Node15</title>
<g id="a_edge17_Node000001_Node000015"><a xlink:title=" ">
<path fill="none" stroke="#63b8ff" d="M955.19,-417.56C938,-438.12 906.66,-471.57 872,-489 864.26,-492.89 855.81,-495.99 847.22,-498.45"/>
<polygon fill="#63b8ff" stroke="#63b8ff" points="958.05,-419.59 961.66,-409.63 952.63,-415.17 958.05,-419.59"/>
</a>
</g>
</g>
<!-- Node16 -->
<g id="Node000016" class="node">
<title>Node16</title>
<g id="a_Node000016"><a xlink:href="namespaceFileExport.html#a14f1fd295139088b2c1c130ebd36dbe3" target="_top" xlink:title=" ">
<polygon fill="white" stroke="#666666" points="863,-164 681,-164 681,-134 863,-134 863,-164"/>
<text text-anchor="start" x="689" y="-152" font-family="Helvetica,sans-Serif" font-size="10.00">FileExport::exportImageGeometry</text>
<text text-anchor="middle" x="772" y="-141" font-family="Helvetica,sans-Serif" font-size="10.00">BgFill</text>
</a>
</g>
</g>
<!-- Node1&#45;&gt;Node16 -->
<g id="edge18_Node000001_Node000016" class="edge">
<title>Node1&#45;&gt;Node16</title>
<g id="a_edge18_Node000001_Node000016"><a xlink:title=" ">
<path fill="none" stroke="#63b8ff" d="M966.39,-380C959.54,-335.79 936.84,-229.32 872,-174 867.55,-170.2 862.6,-166.97 857.36,-164.22"/>
<polygon fill="#63b8ff" stroke="#63b8ff" points="962.95,-380.65 967.84,-390.05 969.88,-379.65 962.95,-380.65"/>
</a>
</g>
</g>
<!-- Node17 -->
<g id="Node000017" class="node">
<title>Node17</title>
<g id="a_Node000017"><a xlink:href="namespaceFileExport.html#a7ffbcd5dbb931da7c5137f2c85a862ad" target="_top" xlink:title=" ">
<polygon fill="white" stroke="#666666" points="865.5,-431.5 678.5,-431.5 678.5,-412.5 865.5,-412.5 865.5,-431.5"/>
<text text-anchor="middle" x="772" y="-419.5" font-family="Helvetica,sans-Serif" font-size="10.00">FileExport::exportImageOccupancy</text>
</a>
</g>
</g>
<!-- Node1&#45;&gt;Node17 -->
<g id="edge20_Node000001_Node000017" class="edge">
<title>Node1&#45;&gt;Node17</title>
<g id="a_edge20_Node000001_Node000017"><a xlink:title=" ">
<path fill="none" stroke="#63b8ff" d="M897.59,-408.02C884.66,-409.47 871.07,-410.99 857.81,-412.48"/>
<polygon fill="#63b8ff" stroke="#63b8ff" points="898.24,-411.46 907.79,-406.87 897.46,-404.51 898.24,-411.46"/>
</a>
</g>
</g>
<!-- Node18 -->
<g id="Node000018" class="node">
<title>Node18</title>
<g id="a_Node000018"><a xlink:href="namespaceFileExport.html#af3572e7dc6a5bb93770e300f64313b2f" target="_top" xlink:title=" ">
<polygon fill="white" stroke="#666666" points="872,-67.5 672,-67.5 672,-48.5 872,-48.5 872,-67.5"/>
<text text-anchor="middle" x="772" y="-55.5" font-family="Helvetica,sans-Serif" font-size="10.00">FileExport::exportImageOccupancyDS</text>
</a>
</g>
</g>
<!-- Node1&#45;&gt;Node18 -->
<g id="edge21_Node000001_Node000018" class="edge">
<title>Node1&#45;&gt;Node18</title>
<g id="a_edge21_Node000001_Node000018"><a xlink:title=" ">
<path fill="none" stroke="#63b8ff" d="M969.57,-380.09C970.04,-323.28 963.08,-159.22 872,-77 867.84,-73.25 863.18,-70.14 858.2,-67.56"/>
<polygon fill="#63b8ff" stroke="#63b8ff" points="966.07,-380.18 969.4,-390.24 973.07,-380.3 966.07,-380.18"/>
</a>
</g>
</g>
<!-- Node19 -->
<g id="Node000019" class="node">
<title>Node19</title>
<g id="a_Node000019"><a xlink:href="namespaceFileExport.html#a7f638e98ce327128e84bd34f78bf98bc" target="_top" xlink:title=" ">
<polygon fill="white" stroke="#666666" points="850,-614 694,-614 694,-584 850,-584 850,-614"/>
<text text-anchor="start" x="702" y="-602" font-family="Helvetica,sans-Serif" font-size="10.00">FileExport::exportOccupancy</text>
<text text-anchor="middle" x="772" y="-591" font-family="Helvetica,sans-Serif" font-size="10.00">Bitstream</text>
</a>
</g>
</g>
<!-- Node1&#45;&gt;Node19 -->
<g id="edge23_Node000001_Node000019" class="edge">
<title>Node1&#45;&gt;Node19</title>
<g id="a_edge23_Node000001_Node000019"><a xlink:title=" ">
<path fill="none" stroke="#63b8ff" d="M963.81,-419.69C953.12,-456.25 925.08,-534.54 872,-575 865.46,-579.99 858.03,-583.95 850.25,-587.1"/>
<polygon fill="#63b8ff" stroke="#63b8ff" points="967.26,-420.35 966.58,-409.78 960.52,-418.47 967.26,-420.35"/>
</a>
</g>
</g>
<!-- Node20 -->
<g id="Node000020" class="node">
<title>Node20</title>
<g id="a_Node000020"><a xlink:href="namespaceFileExport.html#abfd9c58f0cd1e6b112ef97709d6a56fd" target="_top" xlink:title=" ">
<polygon fill="white" stroke="#666666" points="849.5,-298 694.5,-298 694.5,-268 849.5,-268 849.5,-298"/>
<text text-anchor="start" x="702.5" y="-286" font-family="Helvetica,sans-Serif" font-size="10.00">FileExport::exportPointCloud</text>
<text text-anchor="middle" x="772" y="-275" font-family="Helvetica,sans-Serif" font-size="10.00">InitialSegmentation</text>
</a>
</g>
</g>
<!-- Node1&#45;&gt;Node20 -->
<g id="edge25_Node000001_Node000020" class="edge">
<title>Node1&#45;&gt;Node20</title>
<g id="a_edge25_Node000001_Node000020"><a xlink:title=" ">
<path fill="none" stroke="#63b8ff" d="M955.71,-382.53C938.66,-361.38 907.07,-326.21 872,-307 865.02,-303.18 857.43,-299.96 849.67,-297.24"/>
<polygon fill="#63b8ff" stroke="#63b8ff" points="952.96,-384.7 961.9,-390.4 958.46,-380.38 952.96,-384.7"/>
</a>
</g>
</g>
<!-- Node23 -->
<g id="Node000023" class="node">
<title>Node23</title>
<g id="a_Node000023"><a xlink:href="namespaceFileExport.html#a6ebdd5de8f9a45307e11b410bb952b8a" target="_top" xlink:title=" ">
<polygon fill="white" stroke="#666666" points="849.5,-566 694.5,-566 694.5,-536 849.5,-536 849.5,-566"/>
<text text-anchor="start" x="702.5" y="-554" font-family="Helvetica,sans-Serif" font-size="10.00">FileExport::exportPointCloud</text>
<text text-anchor="middle" x="772" y="-543" font-family="Helvetica,sans-Serif" font-size="10.00">NormalComputation</text>
</a>
</g>
</g>
<!-- Node1&#45;&gt;Node23 -->
<g id="edge29_Node000001_Node000023" class="edge">
<title>Node1&#45;&gt;Node23</title>
<g id="a_edge29_Node000001_Node000023"><a xlink:title=" ">
<path fill="none" stroke="#63b8ff" d="M959.9,-418.93C945.37,-447.04 914.21,-499.45 872,-527 865.11,-531.49 857.46,-535.15 849.55,-538.12"/>
<polygon fill="#63b8ff" stroke="#63b8ff" points="963.14,-420.27 964.49,-409.76 956.88,-417.14 963.14,-420.27"/>
</a>
</g>
</g>
<!-- Node25 -->
<g id="Node000025" class="node">
<title>Node25</title>
<g id="a_Node000025"><a xlink:href="namespaceFileExport.html#a47686502937a09de52acf65f0d6357db" target="_top" xlink:title=" ">
<polygon fill="white" stroke="#666666" points="849.5,-480 694.5,-480 694.5,-450 849.5,-450 849.5,-480"/>
<text text-anchor="start" x="702.5" y="-468" font-family="Helvetica,sans-Serif" font-size="10.00">FileExport::exportPointCloud</text>
<text text-anchor="middle" x="772" y="-457" font-family="Helvetica,sans-Serif" font-size="10.00">NormalOrientation</text>
</a>
</g>
</g>
<!-- Node1&#45;&gt;Node25 -->
<g id="edge32_Node000001_Node000025" class="edge">
<title>Node1&#45;&gt;Node25</title>
<g id="a_edge32_Node000001_Node000025"><a xlink:title=" ">
<path fill="none" stroke="#63b8ff" d="M939.63,-413.89C920.63,-422.5 895.21,-433.34 872,-441 862.18,-444.24 851.67,-447.26 841.31,-449.98"/>
<polygon fill="#63b8ff" stroke="#63b8ff" points="941.3,-416.97 948.93,-409.62 938.38,-410.61 941.3,-416.97"/>
</a>
</g>
</g>
<!-- Node27 -->
<g id="Node000027" class="node">
<title>Node27</title>
<g id="a_Node000027"><a xlink:href="namespaceFileExport.html#a2679d8ba97301be6900c125953a54986" target="_top" xlink:title=" ">
<polygon fill="white" stroke="#666666" points="849.5,-394 694.5,-394 694.5,-364 849.5,-364 849.5,-394"/>
<text text-anchor="start" x="702.5" y="-382" font-family="Helvetica,sans-Serif" font-size="10.00">FileExport::exportPointCloud</text>
<text text-anchor="middle" x="772" y="-371" font-family="Helvetica,sans-Serif" font-size="10.00">PatchSegmentation</text>
</a>
</g>
</g>
<!-- Node1&#45;&gt;Node27 -->
<g id="edge35_Node000001_Node000027" class="edge">
<title>Node1&#45;&gt;Node27</title>
<g id="a_edge35_Node000001_Node000027"><a xlink:title=" ">
<path fill="none" stroke="#63b8ff" d="M897.68,-392.36C882.06,-390.68 865.45,-388.91 849.63,-387.21"/>
<polygon fill="#63b8ff" stroke="#63b8ff" points="897.47,-395.86 907.79,-393.44 898.22,-388.9 897.47,-395.86"/>
</a>
</g>
</g>
<!-- Node29 -->
<g id="Node000029" class="node">
<title>Node29</title>
<g id="a_Node000029"><a xlink:href="namespaceFileExport.html#af97c60c1293687b5cf50fc553f0902b8" target="_top" xlink:title=" ">
<polygon fill="white" stroke="#666666" points="849.5,-116 694.5,-116 694.5,-86 849.5,-86 849.5,-116"/>
<text text-anchor="start" x="702.5" y="-104" font-family="Helvetica,sans-Serif" font-size="10.00">FileExport::exportPointCloud</text>
<text text-anchor="middle" x="772" y="-93" font-family="Helvetica,sans-Serif" font-size="10.00">PPIAttributionSlicing</text>
</a>
</g>
</g>
<!-- Node1&#45;&gt;Node29 -->
<g id="edge38_Node000001_Node000029" class="edge">
<title>Node1&#45;&gt;Node29</title>
<g id="a_edge38_Node000001_Node000029"><a xlink:title=" ">
<path fill="none" stroke="#63b8ff" d="M968.18,-380.26C964.96,-329.71 949.19,-194.75 872,-125 865.57,-119.19 857.97,-114.73 849.9,-111.3"/>
<polygon fill="#63b8ff" stroke="#63b8ff" points="964.69,-380.66 968.72,-390.46 971.68,-380.29 964.69,-380.66"/>
</a>
</g>
</g>
<!-- Node30 -->
<g id="Node000030" class="node">
<title>Node30</title>
<g id="a_Node000030"><a xlink:href="namespaceFileExport.html#abb3934fea49bd8651d8498d236496bb8" target="_top" xlink:title=" ">
<polygon fill="white" stroke="#666666" points="849.5,-346 694.5,-346 694.5,-316 849.5,-316 849.5,-346"/>
<text text-anchor="start" x="702.5" y="-334" font-family="Helvetica,sans-Serif" font-size="10.00">FileExport::exportPointCloud</text>
<text text-anchor="middle" x="772" y="-323" font-family="Helvetica,sans-Serif" font-size="10.00">RefineSegmentation</text>
</a>
</g>
</g>
<!-- Node1&#45;&gt;Node30 -->
<g id="edge39_Node000001_Node000030" class="edge">
<title>Node1&#45;&gt;Node30</title>
<g id="a_edge39_Node000001_Node000030"><a xlink:title=" ">
<path fill="none" stroke="#63b8ff" d="M942.18,-385.82C923.03,-376.13 896.44,-363.54 872,-355 862.57,-351.7 852.48,-348.69 842.48,-346"/>
<polygon fill="#63b8ff" stroke="#63b8ff" points="940.71,-389 951.21,-390.45 943.91,-382.77 940.71,-389"/>
</a>
</g>
</g>
<!-- Node32 -->
<g id="Node000032" class="node">
<title>Node32</title>
<g id="a_Node000032"><a xlink:href="namespaceFileExport.html#a0fd74d198831b276f3faff9169ff618d" target="_top" xlink:title=" ">
<polygon fill="white" stroke="#666666" points="849.5,-30 694.5,-30 694.5,0 849.5,0 849.5,-30"/>
<text text-anchor="start" x="702.5" y="-18" font-family="Helvetica,sans-Serif" font-size="10.00">FileExport::exportPointCloud</text>
<text text-anchor="middle" x="772" y="-7" font-family="Helvetica,sans-Serif" font-size="10.00">Subslices</text>
</a>
</g>
</g>
<!-- Node1&#45;&gt;Node32 -->
<g id="edge42_Node000001_Node000032" class="edge">
<title>Node1&#45;&gt;Node32</title>
<g id="a_edge42_Node000001_Node000032"><a xlink:title=" ">
<path fill="none" stroke="#63b8ff" d="M966.31,-379.9C956.73,-311.3 922.17,-87.95 872,-39 865.67,-32.82 858.04,-28.15 849.85,-24.62"/>
<polygon fill="#63b8ff" stroke="#63b8ff" points="962.89,-380.76 967.72,-390.19 969.83,-379.81 962.89,-380.76"/>
</a>
</g>
</g>
<!-- Node3 -->
<g id="Node000003" class="node">
<title>Node3</title>
<g id="a_Node000003"><a xlink:href="bitstream__util_8cpp.html#aa8c4c50cd09a25e7222ff889eb4fa737" target="_top" xlink:title=" ">
<polygon fill="white" stroke="#666666" points="561.5,-803.5 512.5,-803.5 512.5,-784.5 561.5,-784.5 561.5,-803.5"/>
<text text-anchor="middle" x="537" y="-791.5" font-family="Helvetica,sans-Serif" font-size="10.00">writeU</text>
</a>
</g>
</g>
<!-- Node2&#45;&gt;Node3 -->
<g id="edge2_Node000002_Node000003" class="edge">
<title>Node2&#45;&gt;Node3</title>
<g id="a_edge2_Node000002_Node000003"><a xlink:title=" ">
<path fill="none" stroke="#63b8ff" d="M669.2,-783.86C629.46,-786.93 587.4,-790.18 561.92,-792.15"/>
<polygon fill="#63b8ff" stroke="#63b8ff" points="669.55,-787.35 679.25,-783.09 669.01,-780.37 669.55,-787.35"/>
</a>
</g>
</g>
<!-- Node5 -->
<g id="Node000005" class="node">
<title>Node5</title>
<g id="a_Node000005"><a xlink:href="bitstream__util_8cpp.html#ae284706aa3795e821fc5e735c7195149" target="_top" xlink:title=" ">
<polygon fill="white" stroke="#666666" points="564.5,-766.5 509.5,-766.5 509.5,-747.5 564.5,-747.5 564.5,-766.5"/>
<text text-anchor="middle" x="537" y="-754.5" font-family="Helvetica,sans-Serif" font-size="10.00">writeUE</text>
</a>
</g>
</g>
<!-- Node2&#45;&gt;Node5 -->
<g id="edge4_Node000002_Node000005" class="edge">
<title>Node2&#45;&gt;Node5</title>
<g id="a_edge4_Node000002_Node000005"><a xlink:title=" ">
<path fill="none" stroke="#63b8ff" d="M669.05,-767.69C630.77,-764.57 590.37,-761.27 564.72,-759.18"/>
<polygon fill="#63b8ff" stroke="#63b8ff" points="669,-771.19 679.25,-768.52 669.56,-764.22 669,-771.19"/>
</a>
</g>
</g>
<!-- Node4 -->
<g id="Node000004" class="node">
<title>Node4</title>
<g id="a_Node000004"><a xlink:href="classvps.html#a621f597b4c41ed6cde608d6932299803" target="_top" xlink:title=" ">
<polygon fill="white" stroke="#666666" points="372.5,-784.5 285.5,-784.5 285.5,-765.5 372.5,-765.5 372.5,-784.5"/>
<text text-anchor="middle" x="329" y="-772.5" font-family="Helvetica,sans-Serif" font-size="10.00">vps::write_vps</text>
</a>
</g>
</g>
<!-- Node3&#45;&gt;Node4 -->
<g id="edge3_Node000003_Node000004" class="edge">
<title>Node3&#45;&gt;Node4</title>
<g id="a_edge3_Node000003_Node000004"><a xlink:title=" ">
<path fill="none" stroke="#63b8ff" d="M502.07,-790.87C466.64,-787.6 411.01,-782.47 372.64,-778.93"/>
<polygon fill="#63b8ff" stroke="#63b8ff" points="502.09,-794.39 512.37,-791.82 502.73,-787.42 502.09,-794.39"/>
</a>
</g>
</g>
<!-- Node5&#45;&gt;Node4 -->
<g id="edge5_Node000005_Node000004" class="edge">
<title>Node5&#45;&gt;Node4</title>
<g id="a_edge5_Node000005_Node000004"><a xlink:title=" ">
<path fill="none" stroke="#63b8ff" d="M499.08,-760.23C463.54,-763.33 409.82,-768.03 372.51,-771.29"/>
<polygon fill="#63b8ff" stroke="#63b8ff" points="499.83,-763.67 509.49,-759.32 499.22,-756.7 499.83,-763.67"/>
</a>
</g>
</g>
<!-- Node7 -->
<g id="Node000007" class="node">
<title>Node7</title>
<g id="a_Node000007"><a xlink:href="classEncoderKvazaar.html#a7ad02c30c21ef1f790bca3bcc6309288" target="_top" xlink:title=" ">
<polygon fill="white" stroke="#666666" points="629,-694.5 445,-694.5 445,-675.5 629,-675.5 629,-694.5"/>
<text text-anchor="middle" x="537" y="-682.5" font-family="Helvetica,sans-Serif" font-size="10.00">EncoderKvazaar::encodeGOFMaps</text>
</a>
</g>
</g>
<!-- Node6&#45;&gt;Node7 -->
<g id="edge7_Node000006_Node000007" class="edge">
<title>Node6&#45;&gt;Node7</title>
<g id="a_edge7_Node000006_Node000007"><a xlink:title=" ">
<path fill="none" stroke="#63b8ff" d="M688.66,-716.04C653.7,-708.83 614.23,-700.7 584.46,-694.57"/>
<polygon fill="#63b8ff" stroke="#63b8ff" points="688.37,-719.55 698.87,-718.14 689.78,-712.7 688.37,-719.55"/>
</a>
</g>
</g>
<!-- Node8&#45;&gt;Node7 -->
<g id="edge9_Node000008_Node000007" class="edge">
<title>Node8&#45;&gt;Node7</title>
<g id="a_edge9_Node000008_Node000007"><a xlink:title=" ">
<path fill="none" stroke="#63b8ff" d="M685.87,-685C667.42,-685 647.84,-685 629.17,-685"/>
<polygon fill="#63b8ff" stroke="#63b8ff" points="685.99,-688.5 695.99,-685 685.99,-681.5 685.99,-688.5"/>
</a>
</g>
</g>
<!-- Node11 -->
<g id="Node000011" class="node">
<title>Node11</title>
<g id="a_Node000011"><a xlink:href="classMapGeneration.html#a56bc2b6243c157465d684157b84246e0" target="_top" xlink:title=" ">
<polygon fill="white" stroke="#666666" points="636,-201.5 438,-201.5 438,-182.5 636,-182.5 636,-201.5"/>
<text text-anchor="middle" x="537" y="-189.5" font-family="Helvetica,sans-Serif" font-size="10.00">MapGeneration::generateFrameMaps</text>
</a>
</g>
</g>
<!-- Node10&#45;&gt;Node11 -->
<g id="edge12_Node000010_Node000011" class="edge">
<title>Node10&#45;&gt;Node11</title>
<g id="a_edge12_Node000010_Node000011"><a xlink:title=" ">
<path fill="none" stroke="#63b8ff" d="M679.67,-218.15C649.08,-212.5 616.06,-206.41 589.6,-201.52"/>
<polygon fill="#63b8ff" stroke="#63b8ff" points="679.04,-221.59 689.51,-219.96 680.31,-214.7 679.04,-221.59"/>
</a>
</g>
</g>
<!-- Node12 -->
<g id="Node000012" class="node">
<title>Node12</title>
<g id="a_Node000012"><a xlink:href="namespaceuvgvpcc__enc_1_1API.html#ac96f1663ec59a1bbc04778ae958780fa" target="_top" xlink:title="Entry point of the uvgVPCCenc library. Take as input a frame. Create all the jobs for processing this...">
<polygon fill="white" stroke="#666666" points="220,-298 77,-298 77,-268 220,-268 220,-298"/>
<text text-anchor="start" x="85" y="-286" font-family="Helvetica,sans-Serif" font-size="10.00">uvgvpcc_enc::API::encode</text>
<text text-anchor="middle" x="148.5" y="-275" font-family="Helvetica,sans-Serif" font-size="10.00">Frame</text>
</a>
</g>
</g>
<!-- Node11&#45;&gt;Node12 -->
<g id="edge13_Node000011_Node000012" class="edge">
<title>Node11&#45;&gt;Node12</title>
<g id="a_edge13_Node000011_Node000012"><a xlink:title=" ">
<path fill="none" stroke="#63b8ff" d="M485.49,-203.89C415.71,-220.32 289.79,-249.97 213.5,-267.93"/>
<polygon fill="#63b8ff" stroke="#63b8ff" points="486.44,-207.27 495.37,-201.57 484.83,-200.45 486.44,-207.27"/>
</a>
</g>
</g>
<!-- Node13 -->
<g id="Node000013" class="node">
<title>Node13</title>
<g id="a_Node000013"><a xlink:href="uvgVPCCencAppExample_8cpp.html#aee608aedd5b0b58f2966c2ff15101925" target="_top" xlink:title="This example application offers a simple approach to working with the uvgVPCCenc library and highligh...">
<polygon fill="white" stroke="#666666" points="41,-292.5 0,-292.5 0,-273.5 41,-273.5 41,-292.5"/>
<text text-anchor="middle" x="20.5" y="-280.5" font-family="Helvetica,sans-Serif" font-size="10.00">main</text>
</a>
</g>
</g>
<!-- Node12&#45;&gt;Node13 -->
<g id="edge14_Node000012_Node000013" class="edge">
<title>Node12&#45;&gt;Node13</title>
<g id="a_edge14_Node000012_Node000013"><a xlink:title=" ">
<path fill="none" stroke="#63b8ff" d="M66.74,-283C57.29,-283 48.42,-283 41.08,-283"/>
<polygon fill="#63b8ff" stroke="#63b8ff" points="66.77,-286.5 76.77,-283 66.77,-279.5 66.77,-286.5"/>
</a>
</g>
</g>
<!-- Node14&#45;&gt;Node11 -->
<g id="edge16_Node000014_Node000011" class="edge">
<title>Node14&#45;&gt;Node11</title>
<g id="a_edge16_Node000014_Node000011"><a xlink:title=" ">
<path fill="none" stroke="#63b8ff" d="M663.14,-192C654.19,-192 645.17,-192 636.3,-192"/>
<polygon fill="#63b8ff" stroke="#63b8ff" points="663.2,-195.5 673.2,-192 663.2,-188.5 663.2,-195.5"/>
</a>
</g>
</g>
<!-- Node16&#45;&gt;Node11 -->
<g id="edge19_Node000016_Node000011" class="edge">
<title>Node16&#45;&gt;Node11</title>
<g id="a_edge19_Node000016_Node000011"><a xlink:title=" ">
<path fill="none" stroke="#63b8ff" d="M679.67,-165.85C649.08,-171.5 616.06,-177.59 589.6,-182.48"/>
<polygon fill="#63b8ff" stroke="#63b8ff" points="680.31,-169.3 689.51,-164.04 679.04,-162.41 680.31,-169.3"/>
</a>
</g>
</g>
<!-- Node18&#45;&gt;Node11 -->
<g id="edge22_Node000018_Node000011" class="edge">
<title>Node18&#45;&gt;Node11</title>
<g id="a_edge22_Node000018_Node000011"><a xlink:title=" ">
<path fill="none" stroke="#63b8ff" d="M688.35,-70.42C682.71,-72.31 677.2,-74.49 672,-77 616.22,-103.9 565.04,-159.95 545.93,-182.4"/>
<polygon fill="#63b8ff" stroke="#63b8ff" points="689.4,-73.76 697.95,-67.51 687.36,-67.07 689.4,-73.76"/>
</a>
</g>
</g>
<!-- Node19&#45;&gt;Node7 -->
<g id="edge24_Node000019_Node000007" class="edge">
<title>Node19&#45;&gt;Node7</title>
<g id="a_edge24_Node000019_Node000007"><a xlink:title=" ">
<path fill="none" stroke="#63b8ff" d="M694.7,-616.79C686.97,-619.03 679.29,-621.44 672,-624 629.31,-638.97 581.59,-662.4 556.21,-675.44"/>
<polygon fill="#63b8ff" stroke="#63b8ff" points="695.79,-620.12 704.48,-614.05 693.9,-613.38 695.79,-620.12"/>
</a>
</g>
</g>
<!-- Node21 -->
<g id="Node000021" class="node">
<title>Node21</title>
<g id="a_Node000021"><a xlink:href="classPPISegmenter.html#a4a7440a210f2209c6048ec22dc338e8b" target="_top" xlink:title=" ">
<polygon fill="white" stroke="#666666" points="630.5,-299.5 443.5,-299.5 443.5,-280.5 630.5,-280.5 630.5,-299.5"/>
<text text-anchor="middle" x="537" y="-287.5" font-family="Helvetica,sans-Serif" font-size="10.00">PPISegmenter::initialSegmentation</text>
</a>
</g>
</g>
<!-- Node20&#45;&gt;Node21 -->
<g id="edge26_Node000020_Node000021" class="edge">
<title>Node20&#45;&gt;Node21</title>
<g id="a_edge26_Node000020_Node000021"><a xlink:title=" ">
<path fill="none" stroke="#63b8ff" d="M684.26,-285.61C666.86,-286.13 648.51,-286.68 630.9,-287.21"/>
<polygon fill="#63b8ff" stroke="#63b8ff" points="684.49,-289.1 694.38,-285.3 684.28,-282.1 684.49,-289.1"/>
</a>
</g>
</g>
<!-- Node22 -->
<g id="Node000022" class="node">
<title>Node22</title>
<g id="a_Node000022"><a xlink:href="classPatchGeneration.html#a0f5554a29116f3ceeba740292bffa5d7" target="_top" xlink:title=" ">
<polygon fill="white" stroke="#666666" points="402,-370 256,-370 256,-340 402,-340 402,-370"/>
<text text-anchor="start" x="264" y="-358" font-family="Helvetica,sans-Serif" font-size="10.00">PatchGeneration::generate</text>
<text text-anchor="middle" x="329" y="-347" font-family="Helvetica,sans-Serif" font-size="10.00">FramePatches</text>
</a>
</g>
</g>
<!-- Node21&#45;&gt;Node22 -->
<g id="edge27_Node000021_Node000022" class="edge">
<title>Node21&#45;&gt;Node22</title>
<g id="a_edge27_Node000021_Node000022"><a xlink:title=" ">
<path fill="none" stroke="#63b8ff" d="M484.97,-301.94C469.76,-305.79 453.13,-310.28 438,-315 414.33,-322.38 388.25,-332 367.65,-339.95"/>
<polygon fill="#63b8ff" stroke="#63b8ff" points="485.87,-305.32 494.72,-299.51 484.18,-298.53 485.87,-305.32"/>
</a>
</g>
</g>
<!-- Node22&#45;&gt;Node12 -->
<g id="edge28_Node000022_Node000012" class="edge">
<title>Node22&#45;&gt;Node12</title>
<g id="a_edge28_Node000022_Node000012"><a xlink:title=" ">
<path fill="none" stroke="#63b8ff" d="M280.94,-336.02C251.55,-324.16 214.23,-309.11 186.87,-298.07"/>
<polygon fill="#63b8ff" stroke="#63b8ff" points="280,-339.41 290.58,-339.91 282.62,-332.92 280,-339.41"/>
</a>
</g>
</g>
<!-- Node24 -->
<g id="Node000024" class="node">
<title>Node24</title>
<g id="a_Node000024"><a xlink:href="namespaceNormalComputation.html#a46480ca405a1a36a28d865696ba485f0" target="_top" xlink:title=" ">
<polygon fill="white" stroke="#666666" points="598,-538 476,-538 476,-508 598,-508 598,-538"/>
<text text-anchor="start" x="484" y="-526" font-family="Helvetica,sans-Serif" font-size="10.00">NormalComputation::</text>
<text text-anchor="middle" x="537" y="-515" font-family="Helvetica,sans-Serif" font-size="10.00">computeNormals</text>
</a>
</g>
</g>
<!-- Node23&#45;&gt;Node24 -->
<g id="edge30_Node000023_Node000024" class="edge">
<title>Node23&#45;&gt;Node24</title>
<g id="a_edge30_Node000023_Node000024"><a xlink:title=" ">
<path fill="none" stroke="#63b8ff" d="M684.35,-540.59C655.63,-537.14 624.31,-533.37 598.05,-530.22"/>
<polygon fill="#63b8ff" stroke="#63b8ff" points="684.04,-544.07 694.38,-541.79 684.87,-537.12 684.04,-544.07"/>
</a>
</g>
</g>
<!-- Node24&#45;&gt;Node22 -->
<g id="edge31_Node000024_Node000022" class="edge">
<title>Node24&#45;&gt;Node22</title>
<g id="a_edge31_Node000024_Node000022"><a xlink:title=" ">
<path fill="none" stroke="#63b8ff" d="M492.69,-503.37C474.95,-494.38 454.7,-482.86 438,-470 398.29,-439.42 360.16,-393.79 341.65,-370.26"/>
<polygon fill="#63b8ff" stroke="#63b8ff" points="491.2,-506.53 501.71,-507.83 494.3,-500.26 491.2,-506.53"/>
</a>
</g>
</g>
<!-- Node26 -->
<g id="Node000026" class="node">
<title>Node26</title>
<g id="a_Node000026"><a xlink:href="namespaceNormalOrientation.html#a5fadc067a7ed313e80ad559d11e7c67f" target="_top" xlink:title=" ">
<polygon fill="white" stroke="#666666" points="593.5,-461 480.5,-461 480.5,-431 593.5,-431 593.5,-461"/>
<text text-anchor="start" x="488.5" y="-449" font-family="Helvetica,sans-Serif" font-size="10.00">NormalOrientation::</text>
<text text-anchor="middle" x="537" y="-438" font-family="Helvetica,sans-Serif" font-size="10.00">orientNormals</text>
</a>
</g>
</g>
<!-- Node25&#45;&gt;Node26 -->
<g id="edge33_Node000025_Node000026" class="edge">
<title>Node25&#45;&gt;Node26</title>
<g id="a_edge33_Node000025_Node000026"><a xlink:title=" ">
<path fill="none" stroke="#63b8ff" d="M684.23,-457.92C653.91,-455.45 620.71,-452.74 593.62,-450.54"/>
<polygon fill="#63b8ff" stroke="#63b8ff" points="684.13,-461.43 694.38,-458.75 684.7,-454.45 684.13,-461.43"/>
</a>
</g>
</g>
<!-- Node26&#45;&gt;Node22 -->
<g id="edge34_Node000026_Node000022" class="edge">
<title>Node26&#45;&gt;Node22</title>
<g id="a_edge34_Node000026_Node000022"><a xlink:title=" ">
<path fill="none" stroke="#63b8ff" d="M492.63,-426.84C454.34,-409.93 399.27,-385.6 364.07,-370.05"/>
<polygon fill="#63b8ff" stroke="#63b8ff" points="491.42,-430.13 501.98,-430.97 494.25,-423.73 491.42,-430.13"/>
</a>
</g>
</g>
<!-- Node28 -->
<g id="Node000028" class="node">
<title>Node28</title>
<g id="a_Node000028"><a xlink:href="classPatchSegmentation.html#ae9e1573c095e27775256945bfee089ac" target="_top" xlink:title=" ">
<polygon fill="white" stroke="#666666" points="595.5,-393 478.5,-393 478.5,-363 595.5,-363 595.5,-393"/>
<text text-anchor="start" x="486.5" y="-381" font-family="Helvetica,sans-Serif" font-size="10.00">PatchSegmentation::</text>
<text text-anchor="middle" x="537" y="-370" font-family="Helvetica,sans-Serif" font-size="10.00">patchSegmentation</text>
</a>
</g>
</g>
<!-- Node27&#45;&gt;Node28 -->
<g id="edge36_Node000027_Node000028" class="edge">
<title>Node27&#45;&gt;Node28</title>
<g id="a_edge36_Node000027_Node000028"><a xlink:title=" ">
<path fill="none" stroke="#63b8ff" d="M684.09,-378.63C654.62,-378.5 622.45,-378.36 595.82,-378.25"/>
<polygon fill="#63b8ff" stroke="#63b8ff" points="684.37,-382.13 694.38,-378.67 684.4,-375.13 684.37,-382.13"/>
</a>
</g>
</g>
<!-- Node28&#45;&gt;Node22 -->
<g id="edge37_Node000028_Node000022" class="edge">
<title>Node28&#45;&gt;Node22</title>
<g id="a_edge37_Node000028_Node000022"><a xlink:title=" ">
<path fill="none" stroke="#63b8ff" d="M468.18,-370.43C447.09,-368.07 423.75,-365.47 402.36,-363.08"/>
<polygon fill="#63b8ff" stroke="#63b8ff" points="468.02,-373.93 478.34,-371.56 468.79,-366.97 468.02,-373.93"/>
</a>
</g>
</g>
<!-- Node31 -->
<g id="Node000031" class="node">
<title>Node31</title>
<g id="a_Node000031"><a xlink:href="classPPISegmenter.html#a581dc0d578e49609015b82b1f9c46f8a" target="_top" xlink:title=" ">
<polygon fill="white" stroke="#666666" points="630.5,-342.5 443.5,-342.5 443.5,-323.5 630.5,-323.5 630.5,-342.5"/>
<text text-anchor="middle" x="537" y="-330.5" font-family="Helvetica,sans-Serif" font-size="10.00">PPISegmenter::refineSegmentation</text>
</a>
</g>
</g>
<!-- Node30&#45;&gt;Node31 -->
<g id="edge40_Node000030_Node000031" class="edge">
<title>Node30&#45;&gt;Node31</title>
<g id="a_edge40_Node000030_Node000031"><a xlink:title=" ">
<path fill="none" stroke="#63b8ff" d="M684.26,-331.74C666.86,-331.89 648.51,-332.05 630.9,-332.2"/>
<polygon fill="#63b8ff" stroke="#63b8ff" points="684.41,-335.24 694.38,-331.66 684.35,-328.24 684.41,-335.24"/>
</a>
</g>
</g>
<!-- Node31&#45;&gt;Node22 -->
<g id="edge41_Node000031_Node000022" class="edge">
<title>Node31&#45;&gt;Node22</title>
<g id="a_edge41_Node000031_Node000022"><a xlink:title=" ">
<path fill="none" stroke="#63b8ff" d="M436.67,-343.61C425.06,-344.85 413.39,-346.09 402.25,-347.28"/>
<polygon fill="#63b8ff" stroke="#63b8ff" points="437.27,-347.06 446.84,-342.52 436.53,-340.1 437.27,-347.06"/>
</a>
</g>
</g>
</g>
</svg>

<g id="navigator" transform="translate(0 0)" fill="#404254">
  <rect fill="#f2f5e9" fill-opacity="0.5" stroke="#606060" stroke-width=".5" x="0" y="0" width="60" height="60"/>
  <use id="zoomplus" xlink:href="#zoomPlus" x="17" y="9" onmousedown="handleZoom(evt,'in')"/>
  <use id="zoomminus" xlink:href="#zoomMin" x="42" y="9" onmousedown="handleZoom(evt,'out')"/>
  <use id="reset" xlink:href="#resetDef" x="30" y="36" onmousedown="handleReset()"/>
   <use id="arrowup" xlink:href="#arrowUp" x="0" y="0" onmousedown="handlePan(0,-1)"/>
  <use id="arrowright" xlink:href="#arrowRight" x="0" y="0" onmousedown="handlePan(1,0)"/>
  <use id="arrowdown" xlink:href="#arrowDown" x="0" y="0" onmousedown="handlePan(0,1)"/>
  <use id="arrowleft" xlink:href="#arrowLeft" x="0" y="0" onmousedown="handlePan(-1,0)"/>
</g>
<svg viewBox="0 0 15 15" width="100%" height="30px" preserveAspectRatio="xMaxYMin meet">
 <g id="arrow_out" transform="scale(0.3 0.3)">
  <a xlink:href="namespaceuvgvpcc__enc_a69b2cb991ff48de10ff75bc3c0582a54_icgraph_org.svg" target="_base">
   <rect id="button" ry="5" rx="5" y="6" x="6" height="38" width="38"
        fill="#f2f5e9" fill-opacity="0.5" stroke="#606060" stroke-width="1.0"/>
   <path id="arrow"
     d="M 11.500037,31.436501 C 11.940474,20.09759 22.043105,11.32322 32.158766,21.979434 L 37.068811,17.246167 C 37.068811,17.246167 37.088388,32 37.088388,32 L 22.160133,31.978069 C 22.160133,31.978069 26.997745,27.140456 26.997745,27.140456 C 18.528582,18.264221 13.291696,25.230495 11.500037,31.436501 z"
     style="fill:#404040;"/>
  </a>
 </g>
</svg>

<style type='text/css'>
<![CDATA[
[data-mouse-over-selected='false'] { opacity: 0.7; }
[data-mouse-over-selected='true']  { opacity: 1.0; }
]]>
</style>
<script type="application/ecmascript"><![CDATA[
document.addEventListener('DOMContentLoaded', (event) => {
  highlightEdges();
  highlightAdjacentNodes();
});
]]></script>
</svg>
