<?xml version="1.0" encoding="UTF-8" standalone="no"?>
<!DOCTYPE svg PUBLIC "-//W3C//DTD SVG 1.1//EN"
 "http://www.w3.org/Graphics/SVG/1.1/DTD/svg11.dtd">
<!-- Generated by graphviz version 2.43.0 (0)
 -->
<!-- Title: cli::opts_parse Pages: 1 -->
<svg width="408pt" height="138pt"
 viewBox="0.00 0.00 408.00 138.00" xmlns="http://www.w3.org/2000/svg" xmlns:xlink="http://www.w3.org/1999/xlink">

<svg id="main" version="1.1" xmlns="http://www.w3.org/2000/svg" xmlns:xlink="http://www.w3.org/1999/xlink" xml:space="preserve" onload="init(evt)">
<style type="text/css"><![CDATA[
.node, .edge {opacity: 0.7;}
.node.selected, .edge.selected {opacity: 1;}
.edge:hover path { stroke: red; }
.edge:hover polygon { stroke: red; fill: red; }
]]></style>
<script type="application/ecmascript" xlink:href="svg.min.js"/>
<svg id="graph" class="graph">
<g id="graph0" class="graph" transform="scale(1 1) rotate(0) translate(4 134)">
<title>cli::opts_parse</title>
<!-- Node1 -->
<g id="Node000001" class="node">
<title>Node1</title>
<g id="a_Node000001"><a xlink:title="Parse command line options.">
<polygon fill="#999999" stroke="#666666" points="87,-74 0,-74 0,-55 87,-55 87,-74"/>
<text text-anchor="middle" x="43.5" y="-62" font-family="Helvetica,sans-Serif" font-size="10.00">cli::opts_parse</text>
</a>
</g>
</g>
<!-- Node2 -->
<g id="Node000002" class="node">
<title>Node2</title>
<g id="a_Node000002"><a xlink:href="getopt_8c.html#a670b3d6580b88001f22388938a15504d" target="_top" xlink:title=" ">
<polygon fill="white" stroke="#666666" points="209,-130 135,-130 135,-111 209,-111 209,-130"/>
<text text-anchor="middle" x="172" y="-118" font-family="Helvetica,sans-Serif" font-size="10.00">getopt_long</text>
</a>
</g>
</g>
<!-- Node1&#45;&gt;Node2 -->
<g id="edge1_Node000001_Node000002" class="edge">
<title>Node1&#45;&gt;Node2</title>
<g id="a_edge1_Node000001_Node000002"><a xlink:title=" ">
<path fill="none" stroke="#63b8ff" d="M62.99,-74.05C78.76,-82.05 102.12,-93.56 123,-102.5 126.71,-104.09 130.62,-105.68 134.53,-107.23"/>
<polygon fill="#63b8ff" stroke="#63b8ff" points="133.58,-110.61 144.17,-110.94 136.09,-104.08 133.58,-110.61"/>
</a>
</g>
</g>
<!-- Node3 -->
<g id="Node000003" class="node">
<title>Node3</title>
<g id="a_Node000003"><a xlink:href="namespacecli.html#aad9dd85363af7529cc26e1cf5def6450" target="_top" xlink:title="Print the help message of the application.">
<polygon fill="white" stroke="#666666" points="213.5,-93 130.5,-93 130.5,-74 213.5,-74 213.5,-93"/>
<text text-anchor="middle" x="172" y="-81" font-family="Helvetica,sans-Serif" font-size="10.00">cli::print_help</text>
</a>
</g>
</g>
<!-- Node1&#45;&gt;Node3 -->
<g id="edge2_Node000001_Node000003" class="edge">
<title>Node1&#45;&gt;Node3</title>
<g id="a_edge2_Node000001_Node000003"><a xlink:title=" ">
<path fill="none" stroke="#63b8ff" d="M87.33,-70.93C97.97,-72.53 109.48,-74.26 120.46,-75.91"/>
<polygon fill="#63b8ff" stroke="#63b8ff" points="119.95,-79.37 130.35,-77.4 120.99,-72.45 119.95,-79.37"/>
</a>
</g>
</g>
<!-- Node4 -->
<g id="Node000004" class="node">
<title>Node4</title>
<g id="a_Node000004"><a xlink:href="namespacecli.html#a168b4d6afdac8a3811a23b5d58ced3fa" target="_top" xlink:title="Print the version of the uvgVPCCenc library.">
<polygon fill="white" stroke="#666666" points="221,-56 123,-56 123,-37 221,-37 221,-56"/>
<text text-anchor="middle" x="172" y="-44" font-family="Helvetica,sans-Serif" font-size="10.00">cli::print_version</text>
</a>
</g>
</g>
<!-- Node1&#45;&gt;Node4 -->
<g id="edge3_Node000001_Node000004" class="edge">
<title>Node1&#45;&gt;Node4</title>
<g id="a_edge3_Node000001_Node000004"><a xlink:title=" ">
<path fill="none" stroke="#63b8ff" d="M87.33,-58.41C95.57,-57.23 104.33,-55.99 112.96,-54.76"/>
<polygon fill="#63b8ff" stroke="#63b8ff" points="113.59,-58.2 123,-53.33 112.6,-51.27 113.59,-58.2"/>
</a>
</g>
</g>
<!-- Node6 -->
<g id="Node000006" class="node">
<title>Node6</title>
<g id="a_Node000006"><a xlink:href="namespacecli.html#ac4cff10fb86b38e537816bb8e32d3005" target="_top" xlink:title=" ">
<polygon fill="white" stroke="#666666" points="214.5,-19 129.5,-19 129.5,0 214.5,0 214.5,-19"/>
<text text-anchor="middle" x="172" y="-7" font-family="Helvetica,sans-Serif" font-size="10.00">cli::stringToInt</text>
</a>
</g>
</g>
<!-- Node1&#45;&gt;Node6 -->
<g id="edge5_Node000001_Node000006" class="edge">
<title>Node1&#45;&gt;Node6</title>
<g id="a_edge5_Node000001_Node000006"><a xlink:title=" ">
<path fill="none" stroke="#63b8ff" d="M64.7,-54.88C80.48,-47.45 103.01,-37.03 123,-28.5 127.4,-26.62 132.06,-24.7 136.67,-22.83"/>
<polygon fill="#63b8ff" stroke="#63b8ff" points="138,-26.07 145.98,-19.11 135.4,-19.57 138,-26.07"/>
</a>
</g>
</g>
<!-- Node5 -->
<g id="Node000005" class="node">
<title>Node5</title>
<g id="a_Node000005"><a xlink:href="namespaceuvgvpcc__enc.html#a81d86f6ad45b7b1ae67d8d944d880022" target="_top" xlink:title=" ">
<polygon fill="white" stroke="#666666" points="400,-56 257,-56 257,-37 400,-37 400,-56"/>
<text text-anchor="middle" x="328.5" y="-44" font-family="Helvetica,sans-Serif" font-size="10.00">uvgvpcc_enc::get_version</text>
</a>
</g>
</g>
<!-- Node4&#45;&gt;Node5 -->
<g id="edge4_Node000004_Node000005" class="edge">
<title>Node4&#45;&gt;Node5</title>
<g id="a_edge4_Node000004_Node000005"><a xlink:title=" ">
<path fill="none" stroke="#63b8ff" d="M221.04,-46.5C229.19,-46.5 237.85,-46.5 246.57,-46.5"/>
<polygon fill="#63b8ff" stroke="#63b8ff" points="246.81,-50 256.81,-46.5 246.81,-43 246.81,-50"/>
</a>
</g>
</g>
</g>
</svg>
</svg>

<style type='text/css'>
<![CDATA[
[data-mouse-over-selected='false'] { opacity: 0.7; }
[data-mouse-over-selected='true']  { opacity: 1.0; }
]]>
</style>
<script type="application/ecmascript"><![CDATA[
document.addEventListener('DOMContentLoaded', (event) => {
  highlightEdges();
  highlightAdjacentNodes();
});
]]></script>
</svg>
