<?xml version="1.0" encoding="UTF-8" standalone="no"?>
<!DOCTYPE svg PUBLIC "-//W3C//DTD SVG 1.1//EN"
 "http://www.w3.org/Graphics/SVG/1.1/DTD/svg11.dtd">
<!-- Generated by graphviz version 2.43.0 (0)
 -->
<!-- Title: cli::opts_parse Pages: 1 -->
<svg width="408pt" height="101pt"
 viewBox="0.00 0.00 408.00 101.00" xmlns="http://www.w3.org/2000/svg" xmlns:xlink="http://www.w3.org/1999/xlink">

<svg id="main" version="1.1" xmlns="http://www.w3.org/2000/svg" xmlns:xlink="http://www.w3.org/1999/xlink" xml:space="preserve" onload="init(evt)">
<style type="text/css"><![CDATA[
.node, .edge {opacity: 0.7;}
.node.selected, .edge.selected {opacity: 1;}
.edge:hover path { stroke: red; }
.edge:hover polygon { stroke: red; fill: red; }
]]></style>
<script type="application/ecmascript" xlink:href="svg.min.js"/>
<svg id="graph" class="graph">
<g id="graph0" class="graph" transform="scale(1 1) rotate(0) translate(4 97)">
<title>cli::opts_parse</title>
<!-- Node1 -->
<g id="Node000001" class="node">
<title>Node1</title>
<g id="a_Node000001"><a xlink:title="Parse command line options.">
<polygon fill="#999999" stroke="#666666" points="87,-56 0,-56 0,-37 87,-37 87,-56"/>
<text text-anchor="middle" x="43.5" y="-44" font-family="Helvetica,sans-Serif" font-size="10.00">cli::opts_parse</text>
</a>
</g>
</g>
<!-- Node2 -->
<g id="Node000002" class="node">
<title>Node2</title>
<g id="a_Node000002"><a xlink:href="getopt_8c.html#a670b3d6580b88001f22388938a15504d" target="_top" xlink:title=" ">
<polygon fill="white" stroke="#666666" points="209,-93 135,-93 135,-74 209,-74 209,-93"/>
<text text-anchor="middle" x="172" y="-81" font-family="Helvetica,sans-Serif" font-size="10.00">getopt_long</text>
</a>
</g>
</g>
<!-- Node1&#45;&gt;Node2 -->
<g id="edge1_Node000001_Node000002" class="edge">
<title>Node1&#45;&gt;Node2</title>
<g id="a_edge1_Node000001_Node000002"><a xlink:title=" ">
<path fill="none" stroke="#63b8ff" d="M77.08,-56.03C92.6,-60.57 111.37,-66.06 128.03,-70.93"/>
<polygon fill="#63b8ff" stroke="#63b8ff" points="127.51,-74.43 138.09,-73.88 129.48,-67.71 127.51,-74.43"/>
</a>
</g>
</g>
<!-- Node3 -->
<g id="Node000003" class="node">
<title>Node3</title>
<g id="a_Node000003"><a xlink:href="namespacecli.html#aad9dd85363af7529cc26e1cf5def6450" target="_top" xlink:title="Print the help message of the application.">
<polygon fill="white" stroke="#666666" points="213.5,-56 130.5,-56 130.5,-37 213.5,-37 213.5,-56"/>
<text text-anchor="middle" x="172" y="-44" font-family="Helvetica,sans-Serif" font-size="10.00">cli::print_help</text>
</a>
</g>
</g>
<!-- Node1&#45;&gt;Node3 -->
<g id="edge2_Node000001_Node000003" class="edge">
<title>Node1&#45;&gt;Node3</title>
<g id="a_edge2_Node000001_Node000003"><a xlink:title=" ">
<path fill="none" stroke="#63b8ff" d="M87.33,-46.5C97.86,-46.5 109.25,-46.5 120.13,-46.5"/>
<polygon fill="#63b8ff" stroke="#63b8ff" points="120.35,-50 130.35,-46.5 120.35,-43 120.35,-50"/>
</a>
</g>
</g>
<!-- Node4 -->
<g id="Node000004" class="node">
<title>Node4</title>
<g id="a_Node000004"><a xlink:href="namespacecli.html#a168b4d6afdac8a3811a23b5d58ced3fa" target="_top" xlink:title="Print the version of the uvgVPCCenc library.">
<polygon fill="white" stroke="#666666" points="221,-19 123,-19 123,0 221,0 221,-19"/>
<text text-anchor="middle" x="172" y="-7" font-family="Helvetica,sans-Serif" font-size="10.00">cli::print_version</text>
</a>
</g>
</g>
<!-- Node1&#45;&gt;Node4 -->
<g id="edge3_Node000001_Node000004" class="edge">
<title>Node1&#45;&gt;Node4</title>
<g id="a_edge3_Node000001_Node000004"><a xlink:title=" ">
<path fill="none" stroke="#63b8ff" d="M77.08,-36.97C92.6,-32.43 111.37,-26.94 128.03,-22.07"/>
<polygon fill="#63b8ff" stroke="#63b8ff" points="129.48,-25.29 138.09,-19.12 127.51,-18.57 129.48,-25.29"/>
</a>
</g>
</g>
<!-- Node5 -->
<g id="Node000005" class="node">
<title>Node5</title>
<g id="a_Node000005"><a xlink:href="namespaceuvgvpcc__enc.html#a81d86f6ad45b7b1ae67d8d944d880022" target="_top" xlink:title=" ">
<polygon fill="white" stroke="#666666" points="400,-19 257,-19 257,0 400,0 400,-19"/>
<text text-anchor="middle" x="328.5" y="-7" font-family="Helvetica,sans-Serif" font-size="10.00">uvgvpcc_enc::get_version</text>
</a>
</g>
</g>
<!-- Node4&#45;&gt;Node5 -->
<g id="edge4_Node000004_Node000005" class="edge">
<title>Node4&#45;&gt;Node5</title>
<g id="a_edge4_Node000004_Node000005"><a xlink:title=" ">
<path fill="none" stroke="#63b8ff" d="M221.04,-9.5C229.19,-9.5 237.85,-9.5 246.57,-9.5"/>
<polygon fill="#63b8ff" stroke="#63b8ff" points="246.81,-13 256.81,-9.5 246.81,-6 246.81,-13"/>
</a>
</g>
</g>
</g>
</svg>
</svg>

<style type='text/css'>
<![CDATA[
[data-mouse-over-selected='false'] { opacity: 0.7; }
[data-mouse-over-selected='true']  { opacity: 1.0; }
]]>
</style>
<script type="application/ecmascript"><![CDATA[
document.addEventListener('DOMContentLoaded', (event) => {
  highlightEdges();
  highlightAdjacentNodes();
});
]]></script>
</svg>
