<?xml version="1.0" encoding="UTF-8" standalone="no"?>
<!DOCTYPE svg PUBLIC "-//W3C//DTD SVG 1.1//EN"
 "http://www.w3.org/Graphics/SVG/1.1/DTD/svg11.dtd">
<!-- Generated by graphviz version 2.43.0 (0)
 -->
<!-- Title: FileExport::exportGeometryBitstream Pages: 1 -->
<svg width="380pt" height="64pt"
 viewBox="0.00 0.00 380.00 64.00" xmlns="http://www.w3.org/2000/svg" xmlns:xlink="http://www.w3.org/1999/xlink">
<g id="graph0" class="graph" transform="scale(1 1) rotate(0) translate(4 60)">
<title>FileExport::exportGeometryBitstream</title>
<!-- Node1 -->
<g id="Node000001" class="node">
<title>Node1</title>
<g id="a_Node000001"><a xlink:title=" ">
<polygon fill="#999999" stroke="#666666" points="372,-42.5 220,-42.5 220,-12.5 372,-12.5 372,-42.5"/>
<text text-anchor="start" x="228" y="-30.5" font-family="Helvetica,sans-Serif" font-size="10.00">FileExport::exportGeometry</text>
<text text-anchor="middle" x="296" y="-19.5" font-family="Helvetica,sans-Serif" font-size="10.00">Bitstream</text>
</a>
</g>
</g>
<!-- Node2 -->
<g id="Node000002" class="node">
<title>Node2</title>
<g id="a_Node000002"><a xlink:href="classEncoderFFmpeg.html#a5aaf55a14764423ad9c645a070e95890" target="_top" xlink:title=" ">
<polygon fill="white" stroke="#666666" points="184,-56 0,-56 0,-37 184,-37 184,-56"/>
<text text-anchor="middle" x="92" y="-44" font-family="Helvetica,sans-Serif" font-size="10.00">EncoderFFmpeg::encodeGOFMaps</text>
</a>
</g>
</g>
<!-- Node1&#45;&gt;Node2 -->
<g id="edge1_Node000001_Node000002" class="edge">
<title>Node1&#45;&gt;Node2</title>
<g id="a_edge1_Node000001_Node000002"><a xlink:title=" ">
<path fill="none" stroke="#63b8ff" d="M209.66,-35.53C201.29,-36.31 192.77,-37.12 184.34,-37.91"/>
<polygon fill="#63b8ff" stroke="#63b8ff" points="210.15,-39 219.78,-34.57 209.5,-32.03 210.15,-39"/>
</a>
</g>
</g>
<!-- Node3 -->
<g id="Node000003" class="node">
<title>Node3</title>
<g id="a_Node000003"><a xlink:href="classEncoderKvazaar.html#a7ad02c30c21ef1f790bca3bcc6309288" target="_top" xlink:title=" ">
<polygon fill="white" stroke="#666666" points="184,-19 0,-19 0,0 184,0 184,-19"/>
<text text-anchor="middle" x="92" y="-7" font-family="Helvetica,sans-Serif" font-size="10.00">EncoderKvazaar::encodeGOFMaps</text>
</a>
</g>
</g>
<!-- Node1&#45;&gt;Node3 -->
<g id="edge2_Node000001_Node000003" class="edge">
<title>Node1&#45;&gt;Node3</title>
<g id="a_edge2_Node000001_Node000003"><a xlink:title=" ">
<path fill="none" stroke="#63b8ff" d="M209.66,-19.9C201.29,-19.15 192.77,-18.39 184.34,-17.64"/>
<polygon fill="#63b8ff" stroke="#63b8ff" points="209.51,-23.4 219.78,-20.8 210.13,-16.42 209.51,-23.4"/>
</a>
</g>
</g>
</g>
</svg>
