<?xml version="1.0" encoding="UTF-8" standalone="no"?>
<!DOCTYPE svg PUBLIC "-//W3C//DTD SVG 1.1//EN"
 "http://www.w3.org/Graphics/SVG/1.1/DTD/svg11.dtd">
<!-- Generated by graphviz version 2.43.0 (0)
 -->
<!-- Title: uvgvpcc_enc::API::initializeEncoder Pages: 1 -->
<svg width="392pt" height="76pt"
 viewBox="0.00 0.00 392.00 75.50" xmlns="http://www.w3.org/2000/svg" xmlns:xlink="http://www.w3.org/1999/xlink">
<g id="graph0" class="graph" transform="scale(1 1) rotate(0) translate(4 71.5)">
<title>uvgvpcc_enc::API::initializeEncoder</title>
<!-- Node1 -->
<g id="Node000001" class="node">
<title>Node1</title>
<g id="a_Node000001"><a xlink:title="Create the context of the uvgVPCCenc encoder. Parse the input parameters and verify if the given conf...">
<polygon fill="#999999" stroke="#666666" points="149,-45.5 0,-45.5 0,-15.5 149,-15.5 149,-45.5"/>
<text text-anchor="start" x="8" y="-33.5" font-family="Helvetica,sans-Serif" font-size="10.00">uvgvpcc_enc::API::initialize</text>
<text text-anchor="middle" x="74.5" y="-22.5" font-family="Helvetica,sans-Serif" font-size="10.00">Encoder</text>
</a>
</g>
</g>
<!-- Node2 -->
<g id="Node000002" class="node">
<title>Node2</title>
<g id="a_Node000002"><a xlink:href="namespaceFileExport.html#a0f5b11ba0211d2438a37b61e881ef298" target="_top" xlink:title=" ">
<polygon fill="white" stroke="#666666" points="365,-67.5 204,-67.5 204,-37.5 365,-37.5 365,-67.5"/>
<text text-anchor="start" x="212" y="-55.5" font-family="Helvetica,sans-Serif" font-size="10.00">FileExport::cleanIntermediate</text>
<text text-anchor="middle" x="284.5" y="-44.5" font-family="Helvetica,sans-Serif" font-size="10.00">Files</text>
</a>
</g>
</g>
<!-- Node1&#45;&gt;Node2 -->
<g id="edge1_Node000001_Node000002" class="edge">
<title>Node1&#45;&gt;Node2</title>
<g id="a_edge1_Node000001_Node000002"><a xlink:title=" ">
<path fill="none" stroke="#63b8ff" d="M149.13,-38.29C163.56,-39.81 178.85,-41.43 193.74,-43.01"/>
<polygon fill="#63b8ff" stroke="#63b8ff" points="193.66,-46.52 203.97,-44.09 194.39,-39.56 193.66,-46.52"/>
</a>
</g>
</g>
<!-- Node3 -->
<g id="Node000003" class="node">
<title>Node3</title>
<g id="a_Node000003"><a xlink:href="namespaceuvgvpcc__enc.html#a8eec80eff55cd4c2169744feac8f1209" target="_top" xlink:title=" ">
<polygon fill="white" stroke="#666666" points="384,-19 185,-19 185,0 384,0 384,-19"/>
<text text-anchor="middle" x="284.5" y="-7" font-family="Helvetica,sans-Serif" font-size="10.00">uvgvpcc_enc::initializeParameterMap</text>
</a>
</g>
</g>
<!-- Node1&#45;&gt;Node3 -->
<g id="edge2_Node000001_Node000003" class="edge">
<title>Node1&#45;&gt;Node3</title>
<g id="a_edge2_Node000001_Node000003"><a xlink:title=" ">
<path fill="none" stroke="#63b8ff" d="M149.13,-23.07C158.85,-22.08 168.97,-21.06 179.1,-20.04"/>
<polygon fill="#63b8ff" stroke="#63b8ff" points="179.61,-23.51 189.21,-19.02 178.9,-16.54 179.61,-23.51"/>
</a>
</g>
</g>
</g>
</svg>
