<?xml version="1.0" encoding="UTF-8" standalone="no"?>
<!DOCTYPE svg PUBLIC "-//W3C//DTD SVG 1.1//EN"
 "http://www.w3.org/Graphics/SVG/1.1/DTD/svg11.dtd">
<!-- Generated by graphviz version 2.43.0 (0)
 -->
<!-- Title: robin_hood::hash_int Pages: 1 -->
<svg width="317pt" height="194pt"
 viewBox="0.00 0.00 317.00 194.00" xmlns="http://www.w3.org/2000/svg" xmlns:xlink="http://www.w3.org/1999/xlink">

<svg id="main" version="1.1" xmlns="http://www.w3.org/2000/svg" xmlns:xlink="http://www.w3.org/1999/xlink" xml:space="preserve" onload="init(evt)">
<style type="text/css"><![CDATA[
.node, .edge {opacity: 0.7;}
.node.selected, .edge.selected {opacity: 1;}
.edge:hover path { stroke: red; }
.edge:hover polygon { stroke: red; fill: red; }
]]></style>
<script type="application/ecmascript" xlink:href="svg.min.js"/>
<svg id="graph" class="graph">
<g id="graph0" class="graph" transform="scale(1 1) rotate(0) translate(4 190)">
<title>robin_hood::hash_int</title>
<!-- Node1 -->
<g id="Node000001" class="node">
<title>Node1</title>
<g id="a_Node000001"><a xlink:title=" ">
<polygon fill="#999999" stroke="#666666" points="309,-89 191,-89 191,-70 309,-70 309,-89"/>
<text text-anchor="middle" x="250" y="-77" font-family="Helvetica,sans-Serif" font-size="10.00">robin_hood::hash_int</text>
</a>
</g>
</g>
<!-- Node2 -->
<g id="Node000002" class="node">
<title>Node2</title>
<g id="a_Node000002"><a xlink:href="structrobin__hood_1_1hash_3_01std_1_1shared__ptr_3_01T_01_4_01_4.html#a9ea63c26d44b4ffd202db58fb7f9091a" target="_top" xlink:title=" ">
<polygon fill="white" stroke="#666666" points="140.5,-186 14.5,-186 14.5,-145 140.5,-145 140.5,-186"/>
<text text-anchor="start" x="22.5" y="-174" font-family="Helvetica,sans-Serif" font-size="10.00">robin_hood::hash&lt; std</text>
<text text-anchor="start" x="22.5" y="-163" font-family="Helvetica,sans-Serif" font-size="10.00">::shared_ptr&lt; T &gt; &gt;::</text>
<text text-anchor="middle" x="77.5" y="-152" font-family="Helvetica,sans-Serif" font-size="10.00">operator()</text>
</a>
</g>
</g>
<!-- Node1&#45;&gt;Node2 -->
<g id="edge1_Node000001_Node000002" class="edge">
<title>Node1&#45;&gt;Node2</title>
<g id="a_edge1_Node000001_Node000002"><a xlink:title=" ">
<path fill="none" stroke="#63b8ff" d="M226.74,-94.6C208.09,-106.85 180.5,-124.06 155,-136.5 149,-139.43 142.62,-142.26 136.21,-144.92"/>
<polygon fill="#63b8ff" stroke="#63b8ff" points="228.73,-97.47 235.12,-89.03 224.86,-91.64 228.73,-97.47"/>
</a>
</g>
</g>
<!-- Node3 -->
<g id="Node000003" class="node">
<title>Node3</title>
<g id="a_Node000003"><a xlink:href="structrobin__hood_1_1hash_3_01std_1_1unique__ptr_3_01T_01_4_01_4.html#a2cdcb85ce517669b3d72a64a97e63dd6" target="_top" xlink:title=" ">
<polygon fill="white" stroke="#666666" points="140.5,-127 14.5,-127 14.5,-86 140.5,-86 140.5,-127"/>
<text text-anchor="start" x="22.5" y="-115" font-family="Helvetica,sans-Serif" font-size="10.00">robin_hood::hash&lt; std</text>
<text text-anchor="start" x="22.5" y="-104" font-family="Helvetica,sans-Serif" font-size="10.00">::unique_ptr&lt; T &gt; &gt;::</text>
<text text-anchor="middle" x="77.5" y="-93" font-family="Helvetica,sans-Serif" font-size="10.00">operator()</text>
</a>
</g>
</g>
<!-- Node1&#45;&gt;Node3 -->
<g id="edge2_Node000001_Node000003" class="edge">
<title>Node1&#45;&gt;Node3</title>
<g id="a_edge2_Node000001_Node000003"><a xlink:title=" ">
<path fill="none" stroke="#63b8ff" d="M180.77,-90.31C167.47,-92.41 153.6,-94.61 140.51,-96.68"/>
<polygon fill="#63b8ff" stroke="#63b8ff" points="181.47,-93.74 190.8,-88.72 180.38,-86.82 181.47,-93.74"/>
</a>
</g>
</g>
<!-- Node4 -->
<g id="Node000004" class="node">
<title>Node4</title>
<g id="a_Node000004"><a xlink:href="structrobin__hood_1_1hash_3_01T_01_5_01_4.html#abd875bb3fa9efc5fdf7f544dd9c0a195" target="_top" xlink:title=" ">
<polygon fill="white" stroke="#666666" points="136,-67.5 19,-67.5 19,-37.5 136,-37.5 136,-67.5"/>
<text text-anchor="start" x="27" y="-55.5" font-family="Helvetica,sans-Serif" font-size="10.00">robin_hood::hash&lt; T</text>
<text text-anchor="middle" x="77.5" y="-44.5" font-family="Helvetica,sans-Serif" font-size="10.00"> * &gt;::operator()</text>
</a>
</g>
</g>
<!-- Node1&#45;&gt;Node4 -->
<g id="edge3_Node000001_Node000004" class="edge">
<title>Node1&#45;&gt;Node4</title>
<g id="a_edge3_Node000001_Node000004"><a xlink:title=" ">
<path fill="none" stroke="#63b8ff" d="M180.71,-68.69C165.94,-66.35 150.46,-63.9 136.15,-61.63"/>
<polygon fill="#63b8ff" stroke="#63b8ff" points="180.38,-72.18 190.8,-70.28 181.47,-65.26 180.38,-72.18"/>
</a>
</g>
</g>
<!-- Node5 -->
<g id="Node000005" class="node">
<title>Node5</title>
<g id="a_Node000005"><a xlink:href="structrobin__hood_1_1hash.html#a959f3d5067d9d8b50704d3d6d5b1db94" target="_top" xlink:title=" ">
<polygon fill="white" stroke="#666666" points="155,-19 0,-19 0,0 155,0 155,-19"/>
<text text-anchor="middle" x="77.5" y="-7" font-family="Helvetica,sans-Serif" font-size="10.00">robin_hood::hash::operator()</text>
</a>
</g>
</g>
<!-- Node1&#45;&gt;Node5 -->
<g id="edge4_Node000001_Node000005" class="edge">
<title>Node1&#45;&gt;Node5</title>
<g id="a_edge4_Node000001_Node000005"><a xlink:title=" ">
<path fill="none" stroke="#63b8ff" d="M225.63,-64.64C207.08,-53.4 180.17,-38.27 155,-28.5 145.56,-24.84 135.18,-21.7 125.2,-19.1"/>
<polygon fill="#63b8ff" stroke="#63b8ff" points="223.92,-67.7 234.26,-69.97 227.59,-61.74 223.92,-67.7"/>
</a>
</g>
</g>
</g>
</svg>
</svg>

<style type='text/css'>
<![CDATA[
[data-mouse-over-selected='false'] { opacity: 0.7; }
[data-mouse-over-selected='true']  { opacity: 1.0; }
]]>
</style>
<script type="application/ecmascript"><![CDATA[
document.addEventListener('DOMContentLoaded', (event) => {
  highlightEdges();
  highlightAdjacentNodes();
});
]]></script>
</svg>
