<?xml version="1.0" encoding="UTF-8" standalone="no"?>
<!DOCTYPE svg PUBLIC "-//W3C//DTD SVG 1.1//EN"
 "http://www.w3.org/Graphics/SVG/1.1/DTD/svg11.dtd">
<!-- Generated by graphviz version 2.43.0 (0)
 -->
<!-- Title: uvgvpcc_enc::API::encodeFrame Pages: 1 -->
<svg width="1071pt" height="892pt"
 viewBox="0.00 0.00 1071.00 891.50" xmlns="http://www.w3.org/2000/svg" xmlns:xlink="http://www.w3.org/1999/xlink">
<g id="graph0" class="graph" transform="scale(1 1) rotate(0) translate(4 887.5)">
<title>uvgvpcc_enc::API::encodeFrame</title>
<!-- Node1 -->
<g id="Node000001" class="node">
<title>Node1</title>
<g id="a_Node000001"><a xlink:title="Entry point of the uvgVPCCenc library. Take as input a frame. Create all the jobs for processing this...">
<polygon fill="#999999" stroke="#666666" points="143,-511.5 0,-511.5 0,-481.5 143,-481.5 143,-511.5"/>
<text text-anchor="start" x="8" y="-499.5" font-family="Helvetica,sans-Serif" font-size="10.00">uvgvpcc_enc::API::encode</text>
<text text-anchor="middle" x="71.5" y="-488.5" font-family="Helvetica,sans-Serif" font-size="10.00">Frame</text>
</a>
</g>
</g>
<!-- Node2 -->
<g id="Node000002" class="node">
<title>Node2</title>
<g id="a_Node000002"><a xlink:href="classPatchPacking.html#a52deb9540d234496e20ef760ecc0dd54" target="_top" xlink:title=" ">
<polygon fill="white" stroke="#666666" points="559,-883.5 398,-883.5 398,-853.5 559,-853.5 559,-883.5"/>
<text text-anchor="start" x="406" y="-871.5" font-family="Helvetica,sans-Serif" font-size="10.00">PatchPacking::allocateDefault</text>
<text text-anchor="middle" x="478.5" y="-860.5" font-family="Helvetica,sans-Serif" font-size="10.00">OccupancyMap</text>
</a>
</g>
</g>
<!-- Node1&#45;&gt;Node2 -->
<g id="edge1_Node000001_Node000002" class="edge">
<title>Node1&#45;&gt;Node2</title>
<g id="a_edge1_Node000001_Node000002"><a xlink:title=" ">
<path fill="none" stroke="#63b8ff" d="M72.78,-511.52C74.59,-561.68 87.56,-724.74 179,-805.5 235.81,-855.67 322.37,-869.44 387.68,-871.82"/>
<polygon fill="#63b8ff" stroke="#63b8ff" points="387.87,-875.33 397.97,-872.11 388.07,-868.33 387.87,-875.33"/>
</a>
</g>
</g>
<!-- Node3 -->
<g id="Node000003" class="node">
<title>Node3</title>
<g id="a_Node000003"><a xlink:href="classBitstreamGeneration.html#a575d20f0f40bad111cab04d0b4f259ee" target="_top" xlink:title=" ">
<polygon fill="white" stroke="#666666" points="335,-533.5 193,-533.5 193,-503.5 335,-503.5 335,-533.5"/>
<text text-anchor="start" x="201" y="-521.5" font-family="Helvetica,sans-Serif" font-size="10.00">BitstreamGeneration</text>
<text text-anchor="middle" x="264" y="-510.5" font-family="Helvetica,sans-Serif" font-size="10.00">::createV3CGOFBitstream</text>
</a>
</g>
</g>
<!-- Node1&#45;&gt;Node3 -->
<g id="edge2_Node000001_Node000003" class="edge">
<title>Node1&#45;&gt;Node3</title>
<g id="a_edge2_Node000001_Node000003"><a xlink:title=" ">
<path fill="none" stroke="#63b8ff" d="M143.16,-504.66C156.07,-506.15 169.63,-507.72 182.79,-509.24"/>
<polygon fill="#63b8ff" stroke="#63b8ff" points="182.43,-512.72 192.77,-510.39 183.23,-505.76 182.43,-512.72"/>
</a>
</g>
</g>
<!-- Node23 -->
<g id="Node000023" class="node">
<title>Node23</title>
<g id="a_Node000023"><a xlink:href="namespaceMapEncoding.html#a0bc181915a9f3bb43115710ccda8ffcd" target="_top" xlink:title=" ">
<polygon fill="white" stroke="#666666" points="349,-485 179,-485 179,-466 349,-466 349,-485"/>
<text text-anchor="middle" x="264" y="-473" font-family="Helvetica,sans-Serif" font-size="10.00">MapEncoding::encodeGOFMaps</text>
</a>
</g>
</g>
<!-- Node1&#45;&gt;Node23 -->
<g id="edge28_Node000001_Node000023" class="edge">
<title>Node1&#45;&gt;Node23</title>
<g id="a_edge28_Node000001_Node000023"><a xlink:title=" ">
<path fill="none" stroke="#63b8ff" d="M143.16,-488.71C151.54,-487.79 160.18,-486.83 168.81,-485.88"/>
<polygon fill="#63b8ff" stroke="#63b8ff" points="169.37,-489.34 178.92,-484.77 168.6,-482.39 169.37,-489.34"/>
</a>
</g>
</g>
<!-- Node24 -->
<g id="Node000024" class="node">
<title>Node24</title>
<g id="a_Node000024"><a xlink:href="classPatchPacking.html#ae18c38bf6f8d8681f7bc4020eb8146c3" target="_top" xlink:title=" ">
<polygon fill="white" stroke="#666666" points="547.5,-787.5 409.5,-787.5 409.5,-757.5 547.5,-757.5 547.5,-787.5"/>
<text text-anchor="start" x="417.5" y="-775.5" font-family="Helvetica,sans-Serif" font-size="10.00">PatchPacking::frameIntra</text>
<text text-anchor="middle" x="478.5" y="-764.5" font-family="Helvetica,sans-Serif" font-size="10.00">PatchPacking</text>
</a>
</g>
</g>
<!-- Node1&#45;&gt;Node24 -->
<g id="edge29_Node000001_Node000024" class="edge">
<title>Node1&#45;&gt;Node24</title>
<g id="a_edge29_Node000001_Node000024"><a xlink:title=" ">
<path fill="none" stroke="#63b8ff" d="M86.48,-511.61C127.73,-555.28 254.26,-682.71 385,-748.5 389.61,-750.82 394.46,-752.93 399.42,-754.84"/>
<polygon fill="#63b8ff" stroke="#63b8ff" points="398.5,-758.23 409.09,-758.3 400.85,-751.64 398.5,-758.23"/>
</a>
</g>
</g>
<!-- Node25 -->
<g id="Node000025" class="node">
<title>Node25</title>
<g id="a_Node000025"><a xlink:href="classMapGenerationBaseLine.html#a7d9862ea5acff65b91f5a2bfad449030" target="_top" xlink:title=" ">
<polygon fill="white" stroke="#666666" points="332,-385.5 196,-385.5 196,-355.5 332,-355.5 332,-385.5"/>
<text text-anchor="start" x="204" y="-373.5" font-family="Helvetica,sans-Serif" font-size="10.00">MapGenerationBaseLine</text>
<text text-anchor="middle" x="264" y="-362.5" font-family="Helvetica,sans-Serif" font-size="10.00">::generateFrameMaps</text>
</a>
</g>
</g>
<!-- Node1&#45;&gt;Node25 -->
<g id="edge30_Node000001_Node000025" class="edge">
<title>Node1&#45;&gt;Node25</title>
<g id="a_edge30_Node000001_Node000025"><a xlink:title=" ">
<path fill="none" stroke="#63b8ff" d="M95.48,-481.3C129.47,-458.82 193.24,-416.64 231.54,-391.31"/>
<polygon fill="#63b8ff" stroke="#63b8ff" points="233.83,-393.99 240.24,-385.56 229.96,-388.15 233.83,-393.99"/>
</a>
</g>
</g>
<!-- Node27 -->
<g id="Node000027" class="node">
<title>Node27</title>
<g id="a_Node000027"><a xlink:href="classPatchGeneration.html#a0f5554a29116f3ceeba740292bffa5d7" target="_top" xlink:title=" ">
<polygon fill="white" stroke="#666666" points="337,-196.5 191,-196.5 191,-166.5 337,-166.5 337,-196.5"/>
<text text-anchor="start" x="199" y="-184.5" font-family="Helvetica,sans-Serif" font-size="10.00">PatchGeneration::generate</text>
<text text-anchor="middle" x="264" y="-173.5" font-family="Helvetica,sans-Serif" font-size="10.00">FramePatches</text>
</a>
</g>
</g>
<!-- Node1&#45;&gt;Node27 -->
<g id="edge32_Node000001_Node000027" class="edge">
<title>Node1&#45;&gt;Node27</title>
<g id="a_edge32_Node000001_Node000027"><a xlink:title=" ">
<path fill="none" stroke="#63b8ff" d="M81.69,-481.31C112.37,-430.57 211.44,-266.76 248.68,-205.19"/>
<polygon fill="#63b8ff" stroke="#63b8ff" points="251.72,-206.91 253.9,-196.54 245.73,-203.29 251.72,-206.91"/>
</a>
</g>
</g>
<!-- Node42 -->
<g id="Node000042" class="node">
<title>Node42</title>
<g id="a_Node000042"><a xlink:href="classPatchPacking.html#a3882407ca2aafda5290a6b52991124dd" target="_top" xlink:title=" ">
<polygon fill="white" stroke="#666666" points="347,-796 181,-796 181,-777 347,-777 347,-796"/>
<text text-anchor="middle" x="264" y="-784" font-family="Helvetica,sans-Serif" font-size="10.00">PatchPacking::gofPatchPacking</text>
</a>
</g>
</g>
<!-- Node1&#45;&gt;Node42 -->
<g id="edge56_Node000001_Node000042" class="edge">
<title>Node1&#45;&gt;Node42</title>
<g id="a_edge56_Node000001_Node000042"><a xlink:title=" ">
<path fill="none" stroke="#63b8ff" d="M81.61,-511.78C99.67,-541.91 141.49,-610.96 179,-667.5 203.19,-703.96 233.06,-745.5 249.87,-768.59"/>
<polygon fill="#63b8ff" stroke="#63b8ff" points="247.11,-770.75 255.84,-776.76 252.77,-766.62 247.11,-770.75"/>
</a>
</g>
</g>
<!-- Node44 -->
<g id="Node000044" class="node">
<title>Node44</title>
<g id="a_Node000044"><a xlink:href="classMapGenerationBaseLine.html#a186ae71d7a2e66d0f3200b8c2b43f148" target="_top" xlink:title=" ">
<polygon fill="white" stroke="#666666" points="332,-86.5 196,-86.5 196,-56.5 332,-56.5 332,-86.5"/>
<text text-anchor="start" x="204" y="-74.5" font-family="Helvetica,sans-Serif" font-size="10.00">MapGenerationBaseLine</text>
<text text-anchor="middle" x="264" y="-63.5" font-family="Helvetica,sans-Serif" font-size="10.00">::initGOFMapGeneration</text>
</a>
</g>
</g>
<!-- Node1&#45;&gt;Node44 -->
<g id="edge60_Node000001_Node000044" class="edge">
<title>Node1&#45;&gt;Node44</title>
<g id="a_edge60_Node000001_Node000044"><a xlink:title=" ">
<path fill="none" stroke="#63b8ff" d="M74.69,-481.27C82.34,-431.57 111.24,-270.8 179,-157.5 193.86,-132.65 217.29,-109.47 235.63,-93.46"/>
<polygon fill="#63b8ff" stroke="#63b8ff" points="238.31,-95.77 243.65,-86.62 233.77,-90.44 238.31,-95.77"/>
</a>
</g>
</g>
<!-- Node4 -->
<g id="Node000004" class="node">
<title>Node4</title>
<g id="a_Node000004"><a xlink:href="classv3c__gof.html#a6a107d849bed5cacedc55fe98f0772c1" target="_top" xlink:title=" ">
<polygon fill="white" stroke="#666666" points="543.5,-595.5 413.5,-595.5 413.5,-565.5 543.5,-565.5 543.5,-595.5"/>
<text text-anchor="start" x="421.5" y="-583.5" font-family="Helvetica,sans-Serif" font-size="10.00">v3c_gof::add_v3c_atlas</text>
<text text-anchor="middle" x="478.5" y="-572.5" font-family="Helvetica,sans-Serif" font-size="10.00">_context</text>
</a>
</g>
</g>
<!-- Node3&#45;&gt;Node4 -->
<g id="edge3_Node000003_Node000004" class="edge">
<title>Node3&#45;&gt;Node4</title>
<g id="a_edge3_Node000003_Node000004"><a xlink:title=" ">
<path fill="none" stroke="#63b8ff" d="M310.41,-533.5C332.79,-540.74 360.22,-549.37 385,-556.5 392.4,-558.63 400.15,-560.78 407.9,-562.86"/>
<polygon fill="#63b8ff" stroke="#63b8ff" points="407.1,-566.27 417.66,-565.47 408.9,-559.51 407.1,-566.27"/>
</a>
</g>
</g>
<!-- Node5 -->
<g id="Node000005" class="node">
<title>Node5</title>
<g id="a_Node000005"><a xlink:href="classv3c__gof.html#a263296629443aa4ac7dcf7f7e7884389" target="_top" xlink:title=" ">
<polygon fill="white" stroke="#666666" points="551.5,-547 405.5,-547 405.5,-528 551.5,-528 551.5,-547"/>
<text text-anchor="middle" x="478.5" y="-535" font-family="Helvetica,sans-Serif" font-size="10.00">v3c_gof::add_v3c_avd_sub</text>
</a>
</g>
</g>
<!-- Node3&#45;&gt;Node5 -->
<g id="edge4_Node000003_Node000005" class="edge">
<title>Node3&#45;&gt;Node5</title>
<g id="a_edge4_Node000003_Node000005"><a xlink:title=" ">
<path fill="none" stroke="#63b8ff" d="M335.17,-524.77C354.32,-526.49 375.24,-528.36 395.01,-530.12"/>
<polygon fill="#63b8ff" stroke="#63b8ff" points="394.95,-533.63 405.22,-531.04 395.57,-526.66 394.95,-533.63"/>
</a>
</g>
</g>
<!-- Node6 -->
<g id="Node000006" class="node">
<title>Node6</title>
<g id="a_Node000006"><a xlink:href="classv3c__gof.html#a899ad52a9837759feead70e5af99da94" target="_top" xlink:title=" ">
<polygon fill="white" stroke="#666666" points="551.5,-510 405.5,-510 405.5,-491 551.5,-491 551.5,-510"/>
<text text-anchor="middle" x="478.5" y="-498" font-family="Helvetica,sans-Serif" font-size="10.00">v3c_gof::add_v3c_gvd_sub</text>
</a>
</g>
</g>
<!-- Node3&#45;&gt;Node6 -->
<g id="edge5_Node000003_Node000006" class="edge">
<title>Node3&#45;&gt;Node6</title>
<g id="a_edge5_Node000003_Node000006"><a xlink:title=" ">
<path fill="none" stroke="#63b8ff" d="M335.17,-512.56C354.32,-510.93 375.24,-509.16 395.01,-507.49"/>
<polygon fill="#63b8ff" stroke="#63b8ff" points="395.55,-510.95 405.22,-506.62 394.96,-503.98 395.55,-510.95"/>
</a>
</g>
</g>
<!-- Node7 -->
<g id="Node000007" class="node">
<title>Node7</title>
<g id="a_Node000007"><a xlink:href="classv3c__gof.html#a418e29be967d58974050ead4ec90c227" target="_top" xlink:title=" ">
<polygon fill="white" stroke="#666666" points="551.5,-473 405.5,-473 405.5,-454 551.5,-454 551.5,-473"/>
<text text-anchor="middle" x="478.5" y="-461" font-family="Helvetica,sans-Serif" font-size="10.00">v3c_gof::add_v3c_ovd_sub</text>
</a>
</g>
</g>
<!-- Node3&#45;&gt;Node7 -->
<g id="edge6_Node000003_Node000007" class="edge">
<title>Node3&#45;&gt;Node7</title>
<g id="a_edge6_Node000003_Node000007"><a xlink:title=" ">
<path fill="none" stroke="#63b8ff" d="M318.88,-503.48C328.91,-500.58 339.29,-497.5 349,-494.5 365.11,-489.52 368.71,-486.87 385,-482.5 394.74,-479.89 405.14,-477.43 415.31,-475.21"/>
<polygon fill="#63b8ff" stroke="#63b8ff" points="416.33,-478.57 425.39,-473.07 414.88,-471.73 416.33,-478.57"/>
</a>
</g>
</g>
<!-- Node8 -->
<g id="Node000008" class="node">
<title>Node8</title>
<g id="a_Node000008"><a xlink:href="classv3c__gof.html#abe8c31a1393a898d71178cb79a687893" target="_top" xlink:title=" ">
<polygon fill="white" stroke="#666666" points="540,-436 417,-436 417,-417 540,-417 540,-436"/>
<text text-anchor="middle" x="478.5" y="-424" font-family="Helvetica,sans-Serif" font-size="10.00">v3c_gof::add_v3c_vps</text>
</a>
</g>
</g>
<!-- Node3&#45;&gt;Node8 -->
<g id="edge7_Node000003_Node000008" class="edge">
<title>Node3&#45;&gt;Node8</title>
<g id="a_edge7_Node000003_Node000008"><a xlink:title=" ">
<path fill="none" stroke="#63b8ff" d="M332.85,-503.47C338.54,-500.93 344.02,-497.96 349,-494.5 371.18,-479.07 362.25,-460.08 385,-445.5 391.77,-441.16 399.34,-437.79 407.16,-435.17"/>
<polygon fill="#63b8ff" stroke="#63b8ff" points="408.18,-438.52 416.78,-432.33 406.2,-431.8 408.18,-438.52"/>
</a>
</g>
</g>
<!-- Node9 -->
<g id="Node000009" class="node">
<title>Node9</title>
<g id="a_Node000009"><a xlink:href="video__sub__bitstream_8cpp.html#ae8d99b3cf0d33016153819e640104529" target="_top" xlink:title=" ">
<polygon fill="white" stroke="#666666" points="556.5,-399 400.5,-399 400.5,-380 556.5,-380 556.5,-399"/>
<text text-anchor="middle" x="478.5" y="-387" font-family="Helvetica,sans-Serif" font-size="10.00">byteStreamToSampleStream</text>
</a>
</g>
</g>
<!-- Node3&#45;&gt;Node9 -->
<g id="edge8_Node000003_Node000009" class="edge">
<title>Node3&#45;&gt;Node9</title>
<g id="a_edge8_Node000003_Node000009"><a xlink:title=" ">
<path fill="none" stroke="#63b8ff" d="M335.03,-504.04C340.07,-501.38 344.8,-498.23 349,-494.5 379.98,-466.98 353,-434.83 385,-408.5 386.99,-406.86 389.09,-405.35 391.28,-403.96"/>
<polygon fill="#63b8ff" stroke="#63b8ff" points="392.96,-407.03 400.07,-399.17 389.61,-400.88 392.96,-407.03"/>
</a>
</g>
</g>
<!-- Node10 -->
<g id="Node000010" class="node">
<title>Node10</title>
<g id="a_Node000010"><a xlink:href="classv3c__gof.html#a3723017afa8250c6b0b50f6f56016389" target="_top" xlink:title=" ">
<polygon fill="white" stroke="#666666" points="541.5,-362 415.5,-362 415.5,-343 541.5,-343 541.5,-362"/>
<text text-anchor="middle" x="478.5" y="-350" font-family="Helvetica,sans-Serif" font-size="10.00">v3c_gof::set_n_frames</text>
</a>
</g>
</g>
<!-- Node3&#45;&gt;Node10 -->
<g id="edge9_Node000003_Node000010" class="edge">
<title>Node3&#45;&gt;Node10</title>
<g id="a_edge9_Node000003_Node000010"><a xlink:title=" ">
<path fill="none" stroke="#63b8ff" d="M335.1,-504.77C340.19,-501.95 344.91,-498.56 349,-494.5 389.41,-454.35 343.1,-410.09 385,-371.5 391,-365.97 398.16,-361.88 405.81,-358.86"/>
<polygon fill="#63b8ff" stroke="#63b8ff" points="406.95,-362.17 415.33,-355.7 404.74,-355.53 406.95,-362.17"/>
</a>
</g>
</g>
<!-- Node11 -->
<g id="Node000011" class="node">
<title>Node11</title>
<g id="a_Node000011"><a xlink:href="classv3c__gof.html#ad967970c96fcd07a7c38bae799989a4b" target="_top" xlink:title=" ">
<polygon fill="white" stroke="#666666" points="539.5,-739.5 417.5,-739.5 417.5,-709.5 539.5,-709.5 539.5,-739.5"/>
<text text-anchor="start" x="425.5" y="-727.5" font-family="Helvetica,sans-Serif" font-size="10.00">v3c_gof::set_v3c_unit</text>
<text text-anchor="middle" x="478.5" y="-716.5" font-family="Helvetica,sans-Serif" font-size="10.00">_precision</text>
</a>
</g>
</g>
<!-- Node3&#45;&gt;Node11 -->
<g id="edge10_Node000003_Node000011" class="edge">
<title>Node3&#45;&gt;Node11</title>
<g id="a_edge10_Node000003_Node000011"><a xlink:title=" ">
<path fill="none" stroke="#63b8ff" d="M275.97,-533.54C292.37,-556.18 324.02,-600.53 349,-639.5 365.99,-666 359.86,-681.56 385,-700.5 391.76,-705.6 399.5,-709.61 407.57,-712.78"/>
<polygon fill="#63b8ff" stroke="#63b8ff" points="406.54,-716.13 417.14,-716.12 408.85,-709.52 406.54,-716.13"/>
</a>
</g>
</g>
<!-- Node12 -->
<g id="Node000012" class="node">
<title>Node12</title>
<g id="a_Node000012"><a xlink:href="classv3c__gof.html#a7623e830a39058987eaea7f9ff65bf72" target="_top" xlink:title=" ">
<polygon fill="white" stroke="#666666" points="532,-691.5 425,-691.5 425,-661.5 532,-661.5 532,-691.5"/>
<text text-anchor="start" x="433" y="-679.5" font-family="Helvetica,sans-Serif" font-size="10.00">v3c_gof::write_v3c</text>
<text text-anchor="middle" x="478.5" y="-668.5" font-family="Helvetica,sans-Serif" font-size="10.00">_chunk</text>
</a>
</g>
</g>
<!-- Node3&#45;&gt;Node12 -->
<g id="edge11_Node000003_Node000012" class="edge">
<title>Node3&#45;&gt;Node12</title>
<g id="a_edge11_Node000003_Node000012"><a xlink:title=" ">
<path fill="none" stroke="#63b8ff" d="M274.15,-533.59C291.9,-561.53 333.79,-621.31 385,-652.5 394.22,-658.12 404.73,-662.43 415.28,-665.74"/>
<polygon fill="#63b8ff" stroke="#63b8ff" points="414.36,-669.12 424.94,-668.5 416.29,-662.39 414.36,-669.12"/>
</a>
</g>
</g>
<!-- Node21 -->
<g id="Node000021" class="node">
<title>Node21</title>
<g id="a_Node000021"><a xlink:href="classv3c__gof.html#a16c6c5414ca72ba7a33ab15981c7b40c" target="_top" xlink:title=" ">
<polygon fill="white" stroke="#666666" points="532,-643.5 425,-643.5 425,-613.5 532,-613.5 532,-643.5"/>
<text text-anchor="start" x="433" y="-631.5" font-family="Helvetica,sans-Serif" font-size="10.00">v3c_gof::write_v3c</text>
<text text-anchor="middle" x="478.5" y="-620.5" font-family="Helvetica,sans-Serif" font-size="10.00">_ld_chunk</text>
</a>
</g>
</g>
<!-- Node3&#45;&gt;Node21 -->
<g id="edge21_Node000003_Node000021" class="edge">
<title>Node3&#45;&gt;Node21</title>
<g id="a_edge21_Node000003_Node000021"><a xlink:title=" ">
<path fill="none" stroke="#63b8ff" d="M282,-533.83C304.16,-553.03 344.84,-585.7 385,-604.5 394.45,-608.92 404.84,-612.62 415.14,-615.69"/>
<polygon fill="#63b8ff" stroke="#63b8ff" points="414.38,-619.11 424.95,-618.43 416.26,-612.37 414.38,-619.11"/>
</a>
</g>
</g>
<!-- Node13 -->
<g id="Node000013" class="node">
<title>Node13</title>
<g id="a_Node000013"><a xlink:href="bitstream__util_8cpp.html#ac69c20ee312c7d90392e8a6b3b06341a" target="_top" xlink:title="Copy array of bytes to a byte&#45;aligned bitstream.">
<polygon fill="white" stroke="#666666" points="730,-643.5 614,-643.5 614,-613.5 730,-613.5 730,-643.5"/>
<text text-anchor="start" x="622" y="-631.5" font-family="Helvetica,sans-Serif" font-size="10.00">uvg_bitstream_copy</text>
<text text-anchor="middle" x="672" y="-620.5" font-family="Helvetica,sans-Serif" font-size="10.00">_bytes</text>
</a>
</g>
</g>
<!-- Node12&#45;&gt;Node13 -->
<g id="edge12_Node000012_Node000013" class="edge">
<title>Node12&#45;&gt;Node13</title>
<g id="a_edge12_Node000012_Node000013"><a xlink:title=" ">
<path fill="none" stroke="#63b8ff" d="M532.08,-663.32C554.27,-657.76 580.37,-651.22 603.92,-645.31"/>
<polygon fill="#63b8ff" stroke="#63b8ff" points="604.98,-648.66 613.83,-642.83 603.28,-641.87 604.98,-648.66"/>
</a>
</g>
</g>
<!-- Node15 -->
<g id="Node000015" class="node">
<title>Node15</title>
<g id="a_Node000015"><a xlink:href="bitstream__util_8cpp.html#a3bdf77ac9496bba79a46c840a4042550" target="_top" xlink:title=" ">
<polygon fill="white" stroke="#666666" points="736,-718 608,-718 608,-699 736,-699 736,-718"/>
<text text-anchor="middle" x="672" y="-706" font-family="Helvetica,sans-Serif" font-size="10.00">uvg_bitstream_finalize</text>
</a>
</g>
</g>
<!-- Node12&#45;&gt;Node15 -->
<g id="edge14_Node000012_Node000015" class="edge">
<title>Node12&#45;&gt;Node15</title>
<g id="a_edge14_Node000012_Node000015"><a xlink:title=" ">
<path fill="none" stroke="#63b8ff" d="M532.08,-685.29C554.27,-688.99 580.37,-693.35 603.92,-697.29"/>
<polygon fill="#63b8ff" stroke="#63b8ff" points="603.39,-700.75 613.83,-698.95 604.55,-693.85 603.39,-700.75"/>
</a>
</g>
</g>
<!-- Node17 -->
<g id="Node000017" class="node">
<title>Node17</title>
<g id="a_Node000017"><a xlink:href="bitstream__util_8cpp.html#a6ad7f5421e391ce3552b43f2c387ad59" target="_top" xlink:title=" ">
<polygon fill="white" stroke="#666666" points="726,-595 618,-595 618,-576 726,-576 726,-595"/>
<text text-anchor="middle" x="672" y="-583" font-family="Helvetica,sans-Serif" font-size="10.00">uvg_bitstream_init</text>
</a>
</g>
</g>
<!-- Node12&#45;&gt;Node17 -->
<g id="edge16_Node000012_Node000017" class="edge">
<title>Node12&#45;&gt;Node17</title>
<g id="a_edge16_Node000012_Node000017"><a xlink:title=" ">
<path fill="none" stroke="#63b8ff" d="M532.02,-669.32C545.82,-665.76 560.15,-660.45 572,-652.5 594.15,-637.65 586.14,-619.78 608,-604.5 610.85,-602.51 613.91,-600.72 617.09,-599.12"/>
<polygon fill="#63b8ff" stroke="#63b8ff" points="618.56,-602.3 626.31,-595.08 615.75,-595.89 618.56,-602.3"/>
</a>
</g>
</g>
<!-- Node18 -->
<g id="Node000018" class="node">
<title>Node18</title>
<g id="a_Node000018"><a xlink:href="bitstream__util_8cpp.html#a0e5e61b87281454f22e12f063c0bbeb6" target="_top" xlink:title=" ">
<polygon fill="white" stroke="#666666" points="726,-681 618,-681 618,-662 726,-662 726,-681"/>
<text text-anchor="middle" x="672" y="-669" font-family="Helvetica,sans-Serif" font-size="10.00">uvg_bitstream_put</text>
</a>
</g>
</g>
<!-- Node12&#45;&gt;Node18 -->
<g id="edge17_Node000012_Node000018" class="edge">
<title>Node12&#45;&gt;Node18</title>
<g id="a_edge17_Node000012_Node000018"><a xlink:title=" ">
<path fill="none" stroke="#63b8ff" d="M532.08,-675.13C555.43,-674.52 583.11,-673.79 607.6,-673.16"/>
<polygon fill="#63b8ff" stroke="#63b8ff" points="607.97,-676.65 617.87,-672.89 607.78,-669.65 607.97,-676.65"/>
</a>
</g>
</g>
<!-- Node20 -->
<g id="Node000020" class="node">
<title>Node20</title>
<g id="a_Node000020"><a xlink:href="bitstream__util_8cpp.html#aa11755e3025221790473c013345959ab" target="_top" xlink:title=" ">
<polygon fill="white" stroke="#666666" points="726,-755 618,-755 618,-736 726,-736 726,-755"/>
<text text-anchor="middle" x="672" y="-743" font-family="Helvetica,sans-Serif" font-size="10.00">uvg_bitstream_tell</text>
</a>
</g>
</g>
<!-- Node12&#45;&gt;Node20 -->
<g id="edge20_Node000012_Node000020" class="edge">
<title>Node12&#45;&gt;Node20</title>
<g id="a_edge20_Node000012_Node000020"><a xlink:title=" ">
<path fill="none" stroke="#63b8ff" d="M532.14,-686.38C545.51,-689.9 559.59,-694.53 572,-700.5 590.02,-709.18 590.09,-718.6 608,-727.5 611.78,-729.38 615.79,-731.09 619.89,-732.64"/>
<polygon fill="#63b8ff" stroke="#63b8ff" points="618.92,-736.01 629.52,-735.99 621.22,-729.4 618.92,-736.01"/>
</a>
</g>
</g>
<!-- Node14 -->
<g id="Node000014" class="node">
<title>Node14</title>
<g id="a_Node000014"><a xlink:href="bitstream__util_8cpp.html#a7b8aab2d25c86997e6d1462e4cbcd30f" target="_top" xlink:title=" ">
<polygon fill="white" stroke="#666666" points="1063,-662.5 947,-662.5 947,-632.5 1063,-632.5 1063,-662.5"/>
<text text-anchor="start" x="955" y="-650.5" font-family="Helvetica,sans-Serif" font-size="10.00">uvg_bitstream_alloc</text>
<text text-anchor="middle" x="1005" y="-639.5" font-family="Helvetica,sans-Serif" font-size="10.00">_chunk</text>
</a>
</g>
</g>
<!-- Node13&#45;&gt;Node14 -->
<g id="edge13_Node000013_Node000014" class="edge">
<title>Node13&#45;&gt;Node14</title>
<g id="a_edge13_Node000013_Node000014"><a xlink:title=" ">
<path fill="none" stroke="#63b8ff" d="M730.28,-631.79C787.65,-635.08 875.92,-640.15 936.62,-643.63"/>
<polygon fill="#63b8ff" stroke="#63b8ff" points="936.69,-647.14 946.87,-644.22 937.09,-640.15 936.69,-647.14"/>
</a>
</g>
</g>
<!-- Node16 -->
<g id="Node000016" class="node">
<title>Node16</title>
<g id="a_Node000016"><a xlink:href="bitstream__util_8cpp.html#a9f9ae794155176e68c744fa3f2ed57cd" target="_top" xlink:title=" ">
<polygon fill="white" stroke="#666666" points="897.5,-724.5 785.5,-724.5 785.5,-694.5 897.5,-694.5 897.5,-724.5"/>
<text text-anchor="start" x="793.5" y="-712.5" font-family="Helvetica,sans-Serif" font-size="10.00">uvg_bitstream_free</text>
<text text-anchor="middle" x="841.5" y="-701.5" font-family="Helvetica,sans-Serif" font-size="10.00">_chunks</text>
</a>
</g>
</g>
<!-- Node15&#45;&gt;Node16 -->
<g id="edge15_Node000015_Node000016" class="edge">
<title>Node15&#45;&gt;Node16</title>
<g id="a_edge15_Node000015_Node000016"><a xlink:title=" ">
<path fill="none" stroke="#63b8ff" d="M736.32,-708.88C749.04,-708.95 762.43,-709.03 775.22,-709.11"/>
<polygon fill="#63b8ff" stroke="#63b8ff" points="775.3,-712.61 785.32,-709.17 775.34,-705.61 775.3,-712.61"/>
</a>
</g>
</g>
<!-- Node19 -->
<g id="Node000019" class="node">
<title>Node19</title>
<g id="a_Node000019"><a xlink:href="bitstream__util_8cpp.html#a7cf378cfbd682b58c16948ad8935d7bc" target="_top" xlink:title="Write a byte to bitstream.">
<polygon fill="white" stroke="#666666" points="911,-676 772,-676 772,-657 911,-657 911,-676"/>
<text text-anchor="middle" x="841.5" y="-664" font-family="Helvetica,sans-Serif" font-size="10.00">uvg_bitstream_writebyte</text>
</a>
</g>
</g>
<!-- Node18&#45;&gt;Node19 -->
<g id="edge18_Node000018_Node000019" class="edge">
<title>Node18&#45;&gt;Node19</title>
<g id="a_edge18_Node000018_Node000019"><a xlink:title=" ">
<path fill="none" stroke="#63b8ff" d="M726.46,-669.9C737.75,-669.57 749.9,-669.2 761.9,-668.85"/>
<polygon fill="#63b8ff" stroke="#63b8ff" points="762.04,-672.34 771.93,-668.55 761.83,-665.35 762.04,-672.34"/>
</a>
</g>
</g>
<!-- Node19&#45;&gt;Node14 -->
<g id="edge19_Node000019_Node000014" class="edge">
<title>Node19&#45;&gt;Node14</title>
<g id="a_edge19_Node000019_Node000014"><a xlink:title=" ">
<path fill="none" stroke="#63b8ff" d="M911.46,-658.39C919.87,-657.4 928.46,-656.39 936.84,-655.4"/>
<polygon fill="#63b8ff" stroke="#63b8ff" points="937.42,-658.86 946.94,-654.21 936.6,-651.91 937.42,-658.86"/>
</a>
</g>
</g>
<!-- Node21&#45;&gt;Node13 -->
<g id="edge22_Node000021_Node000013" class="edge">
<title>Node21&#45;&gt;Node13</title>
<g id="a_edge22_Node000021_Node000013"><a xlink:title=" ">
<path fill="none" stroke="#63b8ff" d="M532.08,-628.5C554.17,-628.5 580.13,-628.5 603.6,-628.5"/>
<polygon fill="#63b8ff" stroke="#63b8ff" points="603.83,-632 613.83,-628.5 603.83,-625 603.83,-632"/>
</a>
</g>
</g>
<!-- Node21&#45;&gt;Node15 -->
<g id="edge23_Node000021_Node000015" class="edge">
<title>Node21&#45;&gt;Node15</title>
<g id="a_edge23_Node000021_Node000015"><a xlink:title=" ">
<path fill="none" stroke="#63b8ff" d="M532.4,-636.85C545.91,-640.4 560,-645.42 572,-652.5 592.04,-664.32 588.11,-678.43 608,-690.5 610.82,-692.21 613.81,-693.77 616.89,-695.18"/>
<polygon fill="#63b8ff" stroke="#63b8ff" points="615.78,-698.5 626.36,-698.99 618.39,-692.01 615.78,-698.5"/>
</a>
</g>
</g>
<!-- Node21&#45;&gt;Node17 -->
<g id="edge24_Node000021_Node000017" class="edge">
<title>Node21&#45;&gt;Node17</title>
<g id="a_edge24_Node000021_Node000017"><a xlink:title=" ">
<path fill="none" stroke="#63b8ff" d="M532.08,-616.69C558.98,-610.65 591.64,-603.32 618.52,-597.28"/>
<polygon fill="#63b8ff" stroke="#63b8ff" points="619.53,-600.64 628.52,-595.04 618,-593.81 619.53,-600.64"/>
</a>
</g>
</g>
<!-- Node21&#45;&gt;Node18 -->
<g id="edge25_Node000021_Node000018" class="edge">
<title>Node21&#45;&gt;Node18</title>
<g id="a_edge25_Node000021_Node000018"><a xlink:title=" ">
<path fill="none" stroke="#63b8ff" d="M532.08,-640.31C558.98,-646.35 591.64,-653.68 618.52,-659.72"/>
<polygon fill="#63b8ff" stroke="#63b8ff" points="618,-663.19 628.52,-661.96 619.53,-656.36 618,-663.19"/>
</a>
</g>
</g>
<!-- Node21&#45;&gt;Node20 -->
<g id="edge27_Node000021_Node000020" class="edge">
<title>Node21&#45;&gt;Node20</title>
<g id="a_edge27_Node000021_Node000020"><a xlink:title=" ">
<path fill="none" stroke="#63b8ff" d="M532.16,-633.96C546.27,-637.49 560.73,-643.22 572,-652.5 600.55,-675.99 579.74,-703.66 608,-727.5 609.53,-728.79 611.15,-729.99 612.84,-731.11"/>
<polygon fill="#63b8ff" stroke="#63b8ff" points="611.31,-734.26 621.76,-735.99 614.67,-728.12 611.31,-734.26"/>
</a>
</g>
</g>
<!-- Node22 -->
<g id="Node000022" class="node">
<title>Node22</title>
<g id="a_Node000022"><a xlink:href="bitstream__util_8cpp.html#ad3c9546517d2a78df0a17d9cd426ac17" target="_top" xlink:title=" ">
<polygon fill="white" stroke="#666666" points="728.5,-557.5 615.5,-557.5 615.5,-527.5 728.5,-527.5 728.5,-557.5"/>
<text text-anchor="start" x="623.5" y="-545.5" font-family="Helvetica,sans-Serif" font-size="10.00">uvg_bitstream_take</text>
<text text-anchor="middle" x="672" y="-534.5" font-family="Helvetica,sans-Serif" font-size="10.00">_chunks</text>
</a>
</g>
</g>
<!-- Node21&#45;&gt;Node22 -->
<g id="edge26_Node000021_Node000022" class="edge">
<title>Node21&#45;&gt;Node22</title>
<g id="a_edge26_Node000021_Node000022"><a xlink:title=" ">
<path fill="none" stroke="#63b8ff" d="M532.34,-620.04C545.85,-616.49 559.95,-611.5 572,-604.5 591.84,-592.97 588.92,-580.24 608,-567.5 610.88,-565.58 613.92,-563.77 617.06,-562.07"/>
<polygon fill="#63b8ff" stroke="#63b8ff" points="618.7,-565.17 626.09,-557.58 615.58,-558.9 618.7,-565.17"/>
</a>
</g>
</g>
<!-- Node26 -->
<g id="Node000026" class="node">
<title>Node26</title>
<g id="a_Node000026"><a xlink:href="classMapGenerationBaseLine.html#a5314cb6e72422598cd4e4f07b779bbfa" target="_top" xlink:title=" ">
<polygon fill="white" stroke="#666666" points="546.5,-324.5 410.5,-324.5 410.5,-294.5 546.5,-294.5 546.5,-324.5"/>
<text text-anchor="start" x="418.5" y="-312.5" font-family="Helvetica,sans-Serif" font-size="10.00">MapGenerationBaseLine</text>
<text text-anchor="middle" x="478.5" y="-301.5" font-family="Helvetica,sans-Serif" font-size="10.00">::writeFrameMapsYUV</text>
</a>
</g>
</g>
<!-- Node25&#45;&gt;Node26 -->
<g id="edge31_Node000025_Node000026" class="edge">
<title>Node25&#45;&gt;Node26</title>
<g id="a_edge31_Node000025_Node000026"><a xlink:title=" ">
<path fill="none" stroke="#63b8ff" d="M313.95,-355.48C335.68,-348.9 361.57,-341.18 385,-334.5 393.37,-332.11 402.18,-329.66 410.9,-327.26"/>
<polygon fill="#63b8ff" stroke="#63b8ff" points="411.96,-330.6 420.69,-324.59 410.12,-323.85 411.96,-330.6"/>
</a>
</g>
</g>
<!-- Node28 -->
<g id="Node000028" class="node">
<title>Node28</title>
<g id="a_Node000028"><a xlink:href="namespaceNormalComputation.html#a46480ca405a1a36a28d865696ba485f0" target="_top" xlink:title=" ">
<polygon fill="white" stroke="#666666" points="539.5,-67.5 417.5,-67.5 417.5,-37.5 539.5,-37.5 539.5,-67.5"/>
<text text-anchor="start" x="425.5" y="-55.5" font-family="Helvetica,sans-Serif" font-size="10.00">NormalComputation::</text>
<text text-anchor="middle" x="478.5" y="-44.5" font-family="Helvetica,sans-Serif" font-size="10.00">computeNormals</text>
</a>
</g>
</g>
<!-- Node27&#45;&gt;Node28 -->
<g id="edge33_Node000027_Node000028" class="edge">
<title>Node27&#45;&gt;Node28</title>
<g id="a_edge33_Node000027_Node000028"><a xlink:title=" ">
<path fill="none" stroke="#63b8ff" d="M278.12,-166.15C298.6,-143.18 340.46,-100.05 385,-76.5 392.09,-72.75 399.8,-69.56 407.65,-66.86"/>
<polygon fill="#63b8ff" stroke="#63b8ff" points="408.79,-70.17 417.25,-63.79 406.66,-63.5 408.79,-70.17"/>
</a>
</g>
</g>
<!-- Node34 -->
<g id="Node000034" class="node">
<title>Node34</title>
<g id="a_Node000034"><a xlink:href="classPPISegmenter.html#a96b9ea22784cdc373e67a724e3019475" target="_top" xlink:title=" ">
<polygon fill="white" stroke="#666666" points="572,-191 385,-191 385,-172 572,-172 572,-191"/>
<text text-anchor="middle" x="478.5" y="-179" font-family="Helvetica,sans-Serif" font-size="10.00">PPISegmenter::initialSegmentation</text>
</a>
</g>
</g>
<!-- Node27&#45;&gt;Node34 -->
<g id="edge39_Node000027_Node000034" class="edge">
<title>Node27&#45;&gt;Node34</title>
<g id="a_edge39_Node000027_Node000034"><a xlink:title=" ">
<path fill="none" stroke="#63b8ff" d="M337.24,-181.5C349.3,-181.5 362.01,-181.5 374.65,-181.5"/>
<polygon fill="#63b8ff" stroke="#63b8ff" points="374.77,-185 384.77,-181.5 374.77,-178 374.77,-185"/>
</a>
</g>
</g>
<!-- Node36 -->
<g id="Node000036" class="node">
<title>Node36</title>
<g id="a_Node000036"><a xlink:href="namespaceNormalOrientation.html#a5fadc067a7ed313e80ad559d11e7c67f" target="_top" xlink:title=" ">
<polygon fill="white" stroke="#666666" points="535,-153.5 422,-153.5 422,-123.5 535,-123.5 535,-153.5"/>
<text text-anchor="start" x="430" y="-141.5" font-family="Helvetica,sans-Serif" font-size="10.00">NormalOrientation::</text>
<text text-anchor="middle" x="478.5" y="-130.5" font-family="Helvetica,sans-Serif" font-size="10.00">orientNormals</text>
</a>
</g>
</g>
<!-- Node27&#45;&gt;Node36 -->
<g id="edge43_Node000027_Node000036" class="edge">
<title>Node27&#45;&gt;Node36</title>
<g id="a_edge43_Node000027_Node000036"><a xlink:title=" ">
<path fill="none" stroke="#63b8ff" d="M337.24,-166.88C361.45,-161.98 388.3,-156.55 411.97,-151.76"/>
<polygon fill="#63b8ff" stroke="#63b8ff" points="412.8,-155.16 421.91,-149.75 411.41,-148.3 412.8,-155.16"/>
</a>
</g>
</g>
<!-- Node37 -->
<g id="Node000037" class="node">
<title>Node37</title>
<g id="a_Node000037"><a xlink:href="classPatchSegmentation.html#ae9e1573c095e27775256945bfee089ac" target="_top" xlink:title=" ">
<polygon fill="white" stroke="#666666" points="537,-276.5 420,-276.5 420,-246.5 537,-246.5 537,-276.5"/>
<text text-anchor="start" x="428" y="-264.5" font-family="Helvetica,sans-Serif" font-size="10.00">PatchSegmentation::</text>
<text text-anchor="middle" x="478.5" y="-253.5" font-family="Helvetica,sans-Serif" font-size="10.00">patchSegmentation</text>
</a>
</g>
</g>
<!-- Node27&#45;&gt;Node37 -->
<g id="edge47_Node000027_Node000037" class="edge">
<title>Node27&#45;&gt;Node37</title>
<g id="a_edge47_Node000027_Node000037"><a xlink:title=" ">
<path fill="none" stroke="#63b8ff" d="M293.47,-196.6C317.4,-208.84 352.77,-225.91 385,-237.5 392.97,-240.37 401.43,-243.04 409.88,-245.49"/>
<polygon fill="#63b8ff" stroke="#63b8ff" points="409.19,-248.93 419.76,-248.26 411.08,-242.19 409.19,-248.93"/>
</a>
</g>
</g>
<!-- Node39 -->
<g id="Node000039" class="node">
<title>Node39</title>
<g id="a_Node000039"><a xlink:href="classPPISegmenter.html#a6d388df0893b2c0d43b730c7dd32f56f" target="_top" xlink:title=" ">
<polygon fill="white" stroke="#666666" points="572,-105 385,-105 385,-86 572,-86 572,-105"/>
<text text-anchor="middle" x="478.5" y="-93" font-family="Helvetica,sans-Serif" font-size="10.00">PPISegmenter::refineSegmentation</text>
</a>
</g>
</g>
<!-- Node27&#45;&gt;Node39 -->
<g id="edge50_Node000027_Node000039" class="edge">
<title>Node27&#45;&gt;Node39</title>
<g id="a_edge50_Node000027_Node000039"><a xlink:title=" ">
<path fill="none" stroke="#63b8ff" d="M287,-166.48C310.34,-151.22 348.77,-127.97 385,-114.5 392.24,-111.81 399.95,-109.46 407.7,-107.43"/>
<polygon fill="#63b8ff" stroke="#63b8ff" points="408.65,-110.8 417.53,-105.02 406.98,-104.01 408.65,-110.8"/>
</a>
</g>
</g>
<!-- Node40 -->
<g id="Node000040" class="node">
<title>Node40</title>
<g id="a_Node000040"><a xlink:href="utilsPatchGeneration_8hpp.html#a1e33592d61eabca8b87655fb1cf3c737" target="_top" xlink:title=" ">
<polygon fill="white" stroke="#666666" points="516.5,-228 440.5,-228 440.5,-209 516.5,-209 516.5,-228"/>
<text text-anchor="middle" x="478.5" y="-216" font-family="Helvetica,sans-Serif" font-size="10.00">voxelization</text>
</a>
</g>
</g>
<!-- Node27&#45;&gt;Node40 -->
<g id="edge53_Node000027_Node000040" class="edge">
<title>Node27&#45;&gt;Node40</title>
<g id="a_edge53_Node000027_Node000040"><a xlink:title=" ">
<path fill="none" stroke="#63b8ff" d="M337.24,-194.08C367.97,-199.43 402.94,-205.52 430.27,-210.28"/>
<polygon fill="#63b8ff" stroke="#63b8ff" points="429.9,-213.76 440.35,-212.03 431.1,-206.87 429.9,-213.76"/>
</a>
</g>
</g>
<!-- Node29 -->
<g id="Node000029" class="node">
<title>Node29</title>
<g id="a_Node000029"><a xlink:href="namespaceNormalComputation.html#a68400b431752d36119a550beaafd042e" target="_top" xlink:title=" ">
<polygon fill="white" stroke="#666666" points="733,-67.5 611,-67.5 611,-37.5 733,-37.5 733,-67.5"/>
<text text-anchor="start" x="619" y="-55.5" font-family="Helvetica,sans-Serif" font-size="10.00">NormalComputation::</text>
<text text-anchor="middle" x="672" y="-44.5" font-family="Helvetica,sans-Serif" font-size="10.00">computeNormal</text>
</a>
</g>
</g>
<!-- Node28&#45;&gt;Node29 -->
<g id="edge34_Node000028_Node000029" class="edge">
<title>Node28&#45;&gt;Node29</title>
<g id="a_edge34_Node000028_Node000029"><a xlink:title=" ">
<path fill="none" stroke="#63b8ff" d="M539.57,-52.5C558.99,-52.5 580.7,-52.5 600.79,-52.5"/>
<polygon fill="#63b8ff" stroke="#63b8ff" points="600.82,-56 610.82,-52.5 600.82,-49 600.82,-56"/>
</a>
</g>
</g>
<!-- Node32 -->
<g id="Node000032" class="node">
<title>Node32</title>
<g id="a_Node000032"><a xlink:href="utilsPatchGeneration_8hpp.html#a7e03bd9f637d6875e048306bf9f014a2" target="_top" xlink:title=" ">
<polygon fill="white" stroke="#666666" points="722.5,-143 621.5,-143 621.5,-124 722.5,-124 722.5,-143"/>
<text text-anchor="middle" x="672" y="-131" font-family="Helvetica,sans-Serif" font-size="10.00">exportPointCloud</text>
</a>
</g>
</g>
<!-- Node28&#45;&gt;Node32 -->
<g id="edge37_Node000028_Node000032" class="edge">
<title>Node28&#45;&gt;Node32</title>
<g id="a_edge37_Node000028_Node000032"><a xlink:title=" ">
<path fill="none" stroke="#63b8ff" d="M539.68,-62.9C550.88,-66.26 562.14,-70.68 572,-76.5 592.04,-88.32 588.2,-102.29 608,-114.5 611.4,-116.6 615.05,-118.48 618.82,-120.16"/>
<polygon fill="#63b8ff" stroke="#63b8ff" points="617.76,-123.51 628.34,-123.95 620.34,-117 617.76,-123.51"/>
</a>
</g>
</g>
<!-- Node33 -->
<g id="Node000033" class="node">
<title>Node33</title>
<g id="a_Node000033"><a xlink:href="namespaceuvgvpcc__enc.html#a69b2cb991ff48de10ff75bc3c0582a54" target="_top" xlink:title=" ">
<polygon fill="white" stroke="#666666" points="734,-106 610,-106 610,-87 734,-87 734,-106"/>
<text text-anchor="middle" x="672" y="-94" font-family="Helvetica,sans-Serif" font-size="10.00">uvgvpcc_enc::zeroPad</text>
</a>
</g>
</g>
<!-- Node28&#45;&gt;Node33 -->
<g id="edge38_Node000028_Node000033" class="edge">
<title>Node28&#45;&gt;Node33</title>
<g id="a_edge38_Node000028_Node000033"><a xlink:title=" ">
<path fill="none" stroke="#63b8ff" d="M539.57,-66.3C565.31,-72.22 595.06,-79.05 619.74,-84.72"/>
<polygon fill="#63b8ff" stroke="#63b8ff" points="619.1,-88.17 629.63,-87 620.67,-81.35 619.1,-88.17"/>
</a>
</g>
</g>
<!-- Node30 -->
<g id="Node000030" class="node">
<title>Node30</title>
<g id="a_Node000030"><a xlink:href="namespaceNormalComputation.html#a023db1970e149a658bad91da7aef758f" target="_top" xlink:title=" ">
<polygon fill="white" stroke="#666666" points="902.5,-43.5 780.5,-43.5 780.5,-13.5 902.5,-13.5 902.5,-43.5"/>
<text text-anchor="start" x="788.5" y="-31.5" font-family="Helvetica,sans-Serif" font-size="10.00">NormalComputation::</text>
<text text-anchor="middle" x="841.5" y="-20.5" font-family="Helvetica,sans-Serif" font-size="10.00">computeCovMat</text>
</a>
</g>
</g>
<!-- Node29&#45;&gt;Node30 -->
<g id="edge35_Node000029_Node000030" class="edge">
<title>Node29&#45;&gt;Node30</title>
<g id="a_edge35_Node000029_Node000030"><a xlink:title=" ">
<path fill="none" stroke="#63b8ff" d="M733.47,-43.84C745.4,-42.13 758.02,-40.32 770.25,-38.57"/>
<polygon fill="#63b8ff" stroke="#63b8ff" points="771,-41.99 780.4,-37.11 770,-35.07 771,-41.99"/>
</a>
</g>
</g>
<!-- Node31 -->
<g id="Node000031" class="node">
<title>Node31</title>
<g id="a_Node000031"><a xlink:href="namespaceNormalComputation.html#a98c50cc726c4d2abcb8c2fc5a2a9e7a8" target="_top" xlink:title=" ">
<polygon fill="white" stroke="#666666" points="902.5,-91.5 780.5,-91.5 780.5,-61.5 902.5,-61.5 902.5,-91.5"/>
<text text-anchor="start" x="788.5" y="-79.5" font-family="Helvetica,sans-Serif" font-size="10.00">NormalComputation::</text>
<text text-anchor="middle" x="841.5" y="-68.5" font-family="Helvetica,sans-Serif" font-size="10.00">diagonalize</text>
</a>
</g>
</g>
<!-- Node29&#45;&gt;Node31 -->
<g id="edge36_Node000029_Node000031" class="edge">
<title>Node29&#45;&gt;Node31</title>
<g id="a_edge36_Node000029_Node000031"><a xlink:title=" ">
<path fill="none" stroke="#63b8ff" d="M733.47,-61.16C745.4,-62.87 758.02,-64.68 770.25,-66.43"/>
<polygon fill="#63b8ff" stroke="#63b8ff" points="770,-69.93 780.4,-67.89 771,-63.01 770,-69.93"/>
</a>
</g>
</g>
<!-- Node34&#45;&gt;Node32 -->
<g id="edge41_Node000034_Node000032" class="edge">
<title>Node34&#45;&gt;Node32</title>
<g id="a_edge41_Node000034_Node000032"><a xlink:title=" ">
<path fill="none" stroke="#63b8ff" d="M530.1,-172C543.76,-169.19 558.5,-165.94 572,-162.5 588.21,-158.37 591.96,-156.24 608,-151.5 614.23,-149.66 620.81,-147.74 627.28,-145.88"/>
<polygon fill="#63b8ff" stroke="#63b8ff" points="628.64,-149.13 637.29,-143.01 626.71,-142.4 628.64,-149.13"/>
</a>
</g>
</g>
<!-- Node34&#45;&gt;Node33 -->
<g id="edge42_Node000034_Node000033" class="edge">
<title>Node34&#45;&gt;Node33</title>
<g id="a_edge42_Node000034_Node000033"><a xlink:title=" ">
<path fill="none" stroke="#63b8ff" d="M552.21,-171.94C559.18,-169.46 565.91,-166.36 572,-162.5 594.52,-148.22 586.03,-129.62 608,-114.5 610.25,-112.95 612.63,-111.53 615.1,-110.24"/>
<polygon fill="#63b8ff" stroke="#63b8ff" points="616.68,-113.37 624.35,-106.06 613.8,-106.99 616.68,-113.37"/>
</a>
</g>
</g>
<!-- Node35 -->
<g id="Node000035" class="node">
<title>Node35</title>
<g id="a_Node000035"><a xlink:href="utilsPatchGeneration_8hpp.html#a254e1f999f13aa89c65618b5cd6f707e" target="_top" xlink:title=" ">
<polygon fill="white" stroke="#666666" points="706.5,-180 637.5,-180 637.5,-161 706.5,-161 706.5,-180"/>
<text text-anchor="middle" x="672" y="-168" font-family="Helvetica,sans-Serif" font-size="10.00">dotProduct</text>
</a>
</g>
</g>
<!-- Node34&#45;&gt;Node35 -->
<g id="edge40_Node000034_Node000035" class="edge">
<title>Node34&#45;&gt;Node35</title>
<g id="a_edge40_Node000034_Node000035"><a xlink:title=" ">
<path fill="none" stroke="#63b8ff" d="M572.16,-176.18C591.27,-175.08 610.55,-173.97 626.94,-173.03"/>
<polygon fill="#63b8ff" stroke="#63b8ff" points="627.47,-176.51 637.26,-172.44 627.07,-169.52 627.47,-176.51"/>
</a>
</g>
</g>
<!-- Node36&#45;&gt;Node32 -->
<g id="edge45_Node000036_Node000032" class="edge">
<title>Node36&#45;&gt;Node32</title>
<g id="a_edge45_Node000036_Node000032"><a xlink:title=" ">
<path fill="none" stroke="#63b8ff" d="M535.15,-137.05C559.01,-136.42 586.94,-135.69 611.24,-135.06"/>
<polygon fill="#63b8ff" stroke="#63b8ff" points="611.51,-138.55 621.41,-134.79 611.33,-131.56 611.51,-138.55"/>
</a>
</g>
</g>
<!-- Node36&#45;&gt;Node33 -->
<g id="edge46_Node000036_Node000033" class="edge">
<title>Node36&#45;&gt;Node33</title>
<g id="a_edge46_Node000036_Node000033"><a xlink:title=" ">
<path fill="none" stroke="#63b8ff" d="M535.15,-126.3C561.08,-120.61 591.8,-113.87 617.47,-108.24"/>
<polygon fill="#63b8ff" stroke="#63b8ff" points="618.38,-111.62 627.4,-106.06 616.88,-104.79 618.38,-111.62"/>
</a>
</g>
</g>
<!-- Node36&#45;&gt;Node35 -->
<g id="edge44_Node000036_Node000035" class="edge">
<title>Node36&#45;&gt;Node35</title>
<g id="a_edge44_Node000036_Node000035"><a xlink:title=" ">
<path fill="none" stroke="#63b8ff" d="M535.15,-147.8C564.52,-152.71 600.05,-158.64 627.4,-163.21"/>
<polygon fill="#63b8ff" stroke="#63b8ff" points="627.01,-166.7 637.45,-164.89 628.17,-159.79 627.01,-166.7"/>
</a>
</g>
</g>
<!-- Node38 -->
<g id="Node000038" class="node">
<title>Node38</title>
<g id="a_Node000038"><a xlink:href="classrobin__hood_1_1detail_1_1Table.html#a6c2d436df6800ac290cc26da5961a331" target="_top" xlink:title=" ">
<polygon fill="white" stroke="#666666" points="724,-276.5 620,-276.5 620,-246.5 724,-246.5 724,-276.5"/>
<text text-anchor="start" x="628" y="-264.5" font-family="Helvetica,sans-Serif" font-size="10.00">robin_hood::detail</text>
<text text-anchor="middle" x="672" y="-253.5" font-family="Helvetica,sans-Serif" font-size="10.00">::Table::reserve</text>
</a>
</g>
</g>
<!-- Node37&#45;&gt;Node38 -->
<g id="edge48_Node000037_Node000038" class="edge">
<title>Node37&#45;&gt;Node38</title>
<g id="a_edge48_Node000037_Node000038"><a xlink:title=" ">
<path fill="none" stroke="#63b8ff" d="M537.22,-261.5C560.14,-261.5 586.55,-261.5 609.81,-261.5"/>
<polygon fill="#63b8ff" stroke="#63b8ff" points="609.9,-265 619.9,-261.5 609.9,-258 609.9,-265"/>
</a>
</g>
</g>
<!-- Node38&#45;&gt;Node38 -->
<g id="edge49_Node000038_Node000038" class="edge">
<title>Node38&#45;&gt;Node38</title>
<g id="a_edge49_Node000038_Node000038"><a xlink:title=" ">
<path fill="none" stroke="#63b8ff" d="M642.47,-276.78C635.91,-285.91 645.75,-294.5 672,-294.5 687.59,-294.5 697.39,-291.47 701.41,-287.1"/>
<polygon fill="#63b8ff" stroke="#63b8ff" points="704.91,-286.82 701.53,-276.78 697.91,-286.73 704.91,-286.82"/>
</a>
</g>
</g>
<!-- Node39&#45;&gt;Node32 -->
<g id="edge51_Node000039_Node000032" class="edge">
<title>Node39&#45;&gt;Node32</title>
<g id="a_edge51_Node000039_Node000032"><a xlink:title=" ">
<path fill="none" stroke="#63b8ff" d="M527.82,-105.09C553.66,-110.22 585.67,-116.57 612.86,-121.96"/>
<polygon fill="#63b8ff" stroke="#63b8ff" points="612.53,-125.47 623.02,-123.98 613.9,-118.6 612.53,-125.47"/>
</a>
</g>
</g>
<!-- Node39&#45;&gt;Node33 -->
<g id="edge52_Node000039_Node000033" class="edge">
<title>Node39&#45;&gt;Node33</title>
<g id="a_edge52_Node000039_Node000033"><a xlink:title=" ">
<path fill="none" stroke="#63b8ff" d="M572.16,-95.98C581.46,-96.03 590.79,-96.08 599.82,-96.13"/>
<polygon fill="#63b8ff" stroke="#63b8ff" points="599.83,-99.63 609.85,-96.18 599.87,-92.63 599.83,-99.63"/>
</a>
</g>
</g>
<!-- Node40&#45;&gt;Node38 -->
<g id="edge54_Node000040_Node000038" class="edge">
<title>Node40&#45;&gt;Node38</title>
<g id="a_edge54_Node000040_Node000038"><a xlink:title=" ">
<path fill="none" stroke="#63b8ff" d="M516.92,-225.87C533.78,-229.28 553.92,-233.45 572,-237.5 584.32,-240.26 597.48,-243.35 610.03,-246.36"/>
<polygon fill="#63b8ff" stroke="#63b8ff" points="609.41,-249.81 619.95,-248.76 611.06,-243.01 609.41,-249.81"/>
</a>
</g>
</g>
<!-- Node41 -->
<g id="Node000041" class="node">
<title>Node41</title>
<g id="a_Node000041"><a xlink:href="classrobin__hood_1_1detail_1_1Table.html#a1d9deb34fedb87863788360123c53973" target="_top" xlink:title=" ">
<polygon fill="white" stroke="#666666" points="729.5,-228.5 614.5,-228.5 614.5,-198.5 729.5,-198.5 729.5,-228.5"/>
<text text-anchor="start" x="622.5" y="-216.5" font-family="Helvetica,sans-Serif" font-size="10.00">robin_hood::detail</text>
<text text-anchor="middle" x="672" y="-205.5" font-family="Helvetica,sans-Serif" font-size="10.00">::Table::try_emplace</text>
</a>
</g>
</g>
<!-- Node40&#45;&gt;Node41 -->
<g id="edge55_Node000040_Node000041" class="edge">
<title>Node40&#45;&gt;Node41</title>
<g id="a_edge55_Node000040_Node000041"><a xlink:title=" ">
<path fill="none" stroke="#63b8ff" d="M516.88,-217.52C541.71,-216.88 575,-216.01 604.29,-215.24"/>
<polygon fill="#63b8ff" stroke="#63b8ff" points="604.56,-218.74 614.47,-214.98 604.38,-211.74 604.56,-218.74"/>
</a>
</g>
</g>
<!-- Node42&#45;&gt;Node2 -->
<g id="edge57_Node000042_Node000002" class="edge">
<title>Node42&#45;&gt;Node2</title>
<g id="a_edge57_Node000042_Node000002"><a xlink:title=" ">
<path fill="none" stroke="#63b8ff" d="M282.02,-796.05C304.87,-808.56 346.99,-830.54 385,-844.5 390.83,-846.64 396.92,-848.67 403.09,-850.57"/>
<polygon fill="#63b8ff" stroke="#63b8ff" points="402.22,-853.96 412.81,-853.45 404.22,-847.25 402.22,-853.96"/>
</a>
</g>
</g>
<!-- Node42&#45;&gt;Node24 -->
<g id="edge59_Node000042_Node000024" class="edge">
<title>Node42&#45;&gt;Node24</title>
<g id="a_edge59_Node000042_Node000024"><a xlink:title=" ">
<path fill="none" stroke="#63b8ff" d="M347.16,-781.09C364.18,-779.97 382.07,-778.79 398.96,-777.67"/>
<polygon fill="#63b8ff" stroke="#63b8ff" points="399.58,-781.14 409.33,-776.99 399.12,-774.16 399.58,-781.14"/>
</a>
</g>
</g>
<!-- Node43 -->
<g id="Node000043" class="node">
<title>Node43</title>
<g id="a_Node000043"><a xlink:href="classPatchPacking.html#a1f7d7e56508922503b11cbe49d4d21ba" target="_top" xlink:title=" ">
<polygon fill="white" stroke="#666666" points="547.5,-835.5 409.5,-835.5 409.5,-805.5 547.5,-805.5 547.5,-835.5"/>
<text text-anchor="start" x="417.5" y="-823.5" font-family="Helvetica,sans-Serif" font-size="10.00">PatchPacking::frameInter</text>
<text text-anchor="middle" x="478.5" y="-812.5" font-family="Helvetica,sans-Serif" font-size="10.00">PatchPacking</text>
</a>
</g>
</g>
<!-- Node42&#45;&gt;Node43 -->
<g id="edge58_Node000042_Node000043" class="edge">
<title>Node42&#45;&gt;Node43</title>
<g id="a_edge58_Node000042_Node000043"><a xlink:title=" ">
<path fill="none" stroke="#63b8ff" d="M324.48,-796.02C347.68,-799.73 374.6,-804.04 399.33,-807.99"/>
<polygon fill="#63b8ff" stroke="#63b8ff" points="398.99,-811.48 409.41,-809.61 400.09,-804.57 398.99,-811.48"/>
</a>
</g>
</g>
<!-- Node45 -->
<g id="Node000045" class="node">
<title>Node45</title>
<g id="a_Node000045"><a xlink:href="namespaceuvgvpcc__enc.html#a735c39eb14ded23670bac21df7dc8189" target="_top" xlink:title=" ">
<polygon fill="white" stroke="#666666" points="542,-19 415,-19 415,0 542,0 542,-19"/>
<text text-anchor="middle" x="478.5" y="-7" font-family="Helvetica,sans-Serif" font-size="10.00">uvgvpcc_enc::roundUp</text>
</a>
</g>
</g>
<!-- Node44&#45;&gt;Node45 -->
<g id="edge61_Node000044_Node000045" class="edge">
<title>Node44&#45;&gt;Node45</title>
<g id="a_edge61_Node000044_Node000045"><a xlink:title=" ">
<path fill="none" stroke="#63b8ff" d="M302.66,-56.46C326.08,-47.49 356.98,-36.36 385,-28.5 394.47,-25.84 404.58,-23.39 414.52,-21.19"/>
<polygon fill="#63b8ff" stroke="#63b8ff" points="415.32,-24.6 424.36,-19.07 413.85,-17.75 415.32,-24.6"/>
</a>
</g>
</g>
</g>
</svg>
