<?xml version="1.0" encoding="UTF-8" standalone="no"?>
<!DOCTYPE svg PUBLIC "-//W3C//DTD SVG 1.1//EN"
 "http://www.w3.org/Graphics/SVG/1.1/DTD/svg11.dtd">
<!-- Generated by graphviz version 2.43.0 (0)
 -->
<!-- Title: NormalComputation::computeNormals Pages: 1 -->
<svg width="448pt" height="137pt"
 viewBox="0.00 0.00 448.00 136.50" xmlns="http://www.w3.org/2000/svg" xmlns:xlink="http://www.w3.org/1999/xlink">
<g id="graph0" class="graph" transform="scale(1 1) rotate(0) translate(4 132.5)">
<title>NormalComputation::computeNormals</title>
<!-- Node1 -->
<g id="Node000001" class="node">
<title>Node1</title>
<g id="a_Node000001"><a xlink:title=" ">
<polygon fill="#999999" stroke="#666666" points="122,-61.5 0,-61.5 0,-31.5 122,-31.5 122,-61.5"/>
<text text-anchor="start" x="8" y="-49.5" font-family="Helvetica,sans-Serif" font-size="10.00">NormalComputation::</text>
<text text-anchor="middle" x="61" y="-38.5" font-family="Helvetica,sans-Serif" font-size="10.00">computeNormals</text>
</a>
</g>
</g>
<!-- Node2 -->
<g id="Node000002" class="node">
<title>Node2</title>
<g id="a_Node000002"><a xlink:href="namespaceNormalComputation.html#a68400b431752d36119a550beaafd042e" target="_top" xlink:title=" ">
<polygon fill="white" stroke="#666666" points="281,-104.5 159,-104.5 159,-74.5 281,-74.5 281,-104.5"/>
<text text-anchor="start" x="167" y="-92.5" font-family="Helvetica,sans-Serif" font-size="10.00">NormalComputation::</text>
<text text-anchor="middle" x="220" y="-81.5" font-family="Helvetica,sans-Serif" font-size="10.00">computeNormal</text>
</a>
</g>
</g>
<!-- Node1&#45;&gt;Node2 -->
<g id="edge1_Node000001_Node000002" class="edge">
<title>Node1&#45;&gt;Node2</title>
<g id="a_edge1_Node000001_Node000002"><a xlink:title=" ">
<path fill="none" stroke="#63b8ff" d="M116.91,-61.54C128.98,-64.85 141.87,-68.38 154.29,-71.78"/>
<polygon fill="#63b8ff" stroke="#63b8ff" points="153.55,-75.2 164.12,-74.47 155.4,-68.45 153.55,-75.2"/>
</a>
</g>
</g>
<!-- Node5 -->
<g id="Node000005" class="node">
<title>Node5</title>
<g id="a_Node000005"><a xlink:href="utilsPatchGeneration_8hpp.html#a7e03bd9f637d6875e048306bf9f014a2" target="_top" xlink:title=" ">
<polygon fill="white" stroke="#666666" points="270.5,-56 169.5,-56 169.5,-37 270.5,-37 270.5,-56"/>
<text text-anchor="middle" x="220" y="-44" font-family="Helvetica,sans-Serif" font-size="10.00">exportPointCloud</text>
</a>
</g>
</g>
<!-- Node1&#45;&gt;Node5 -->
<g id="edge4_Node000001_Node000005" class="edge">
<title>Node1&#45;&gt;Node5</title>
<g id="a_edge4_Node000001_Node000005"><a xlink:title=" ">
<path fill="none" stroke="#63b8ff" d="M122.25,-46.5C134.41,-46.5 147.19,-46.5 159.33,-46.5"/>
<polygon fill="#63b8ff" stroke="#63b8ff" points="159.35,-50 169.35,-46.5 159.35,-43 159.35,-50"/>
</a>
</g>
</g>
<!-- Node6 -->
<g id="Node000006" class="node">
<title>Node6</title>
<g id="a_Node000006"><a xlink:href="namespaceuvgvpcc__enc.html#a69b2cb991ff48de10ff75bc3c0582a54" target="_top" xlink:title=" ">
<polygon fill="white" stroke="#666666" points="282,-19 158,-19 158,0 282,0 282,-19"/>
<text text-anchor="middle" x="220" y="-7" font-family="Helvetica,sans-Serif" font-size="10.00">uvgvpcc_enc::zeroPad</text>
</a>
</g>
</g>
<!-- Node1&#45;&gt;Node6 -->
<g id="edge5_Node000001_Node000006" class="edge">
<title>Node1&#45;&gt;Node6</title>
<g id="a_edge5_Node000001_Node000006"><a xlink:title=" ">
<path fill="none" stroke="#63b8ff" d="M122.25,-32.3C137.57,-28.69 153.87,-24.85 168.63,-21.37"/>
<polygon fill="#63b8ff" stroke="#63b8ff" points="169.65,-24.73 178.58,-19.03 168.05,-17.91 169.65,-24.73"/>
</a>
</g>
</g>
<!-- Node3 -->
<g id="Node000003" class="node">
<title>Node3</title>
<g id="a_Node000003"><a xlink:href="namespaceNormalComputation.html#a023db1970e149a658bad91da7aef758f" target="_top" xlink:title=" ">
<polygon fill="white" stroke="#666666" points="440,-128.5 318,-128.5 318,-98.5 440,-98.5 440,-128.5"/>
<text text-anchor="start" x="326" y="-116.5" font-family="Helvetica,sans-Serif" font-size="10.00">NormalComputation::</text>
<text text-anchor="middle" x="379" y="-105.5" font-family="Helvetica,sans-Serif" font-size="10.00">computeCovMat</text>
</a>
</g>
</g>
<!-- Node2&#45;&gt;Node3 -->
<g id="edge2_Node000002_Node000003" class="edge">
<title>Node2&#45;&gt;Node3</title>
<g id="a_edge2_Node000002_Node000003"><a xlink:title=" ">
<path fill="none" stroke="#63b8ff" d="M281.25,-98.71C289.98,-100.05 299.04,-101.43 307.94,-102.79"/>
<polygon fill="#63b8ff" stroke="#63b8ff" points="307.5,-106.26 317.91,-104.31 308.55,-99.34 307.5,-106.26"/>
</a>
</g>
</g>
<!-- Node4 -->
<g id="Node000004" class="node">
<title>Node4</title>
<g id="a_Node000004"><a xlink:href="namespaceNormalComputation.html#a98c50cc726c4d2abcb8c2fc5a2a9e7a8" target="_top" xlink:title=" ">
<polygon fill="white" stroke="#666666" points="440,-80.5 318,-80.5 318,-50.5 440,-50.5 440,-80.5"/>
<text text-anchor="start" x="326" y="-68.5" font-family="Helvetica,sans-Serif" font-size="10.00">NormalComputation::</text>
<text text-anchor="middle" x="379" y="-57.5" font-family="Helvetica,sans-Serif" font-size="10.00">diagonalize</text>
</a>
</g>
</g>
<!-- Node2&#45;&gt;Node4 -->
<g id="edge3_Node000002_Node000004" class="edge">
<title>Node2&#45;&gt;Node4</title>
<g id="a_edge3_Node000002_Node000004"><a xlink:title=" ">
<path fill="none" stroke="#63b8ff" d="M281.25,-80.29C289.98,-78.95 299.04,-77.57 307.94,-76.21"/>
<polygon fill="#63b8ff" stroke="#63b8ff" points="308.55,-79.66 317.91,-74.69 307.5,-72.74 308.55,-79.66"/>
</a>
</g>
</g>
</g>
</svg>
