<?xml version="1.0" encoding="UTF-8" standalone="no"?>
<!DOCTYPE svg PUBLIC "-//W3C//DTD SVG 1.1//EN"
 "http://www.w3.org/Graphics/SVG/1.1/DTD/svg11.dtd">
<!-- Generated by graphviz version 2.43.0 (0)
 -->
<!-- Title: NormalComputation::computeNormals Pages: 1 -->
<svg width="464pt" height="182pt"
 viewBox="0.00 0.00 464.00 181.50" xmlns="http://www.w3.org/2000/svg" xmlns:xlink="http://www.w3.org/1999/xlink">
<g id="graph0" class="graph" transform="scale(1 1) rotate(0) translate(4 177.5)">
<title>NormalComputation::computeNormals</title>
<!-- Node1 -->
<g id="Node000001" class="node">
<title>Node1</title>
<g id="a_Node000001"><a xlink:title=" ">
<polygon fill="#999999" stroke="#666666" points="122,-79.5 0,-79.5 0,-49.5 122,-49.5 122,-79.5"/>
<text text-anchor="start" x="8" y="-67.5" font-family="Helvetica,sans-Serif" font-size="10.00">NormalComputation::</text>
<text text-anchor="middle" x="61" y="-56.5" font-family="Helvetica,sans-Serif" font-size="10.00">computeNormals</text>
</a>
</g>
</g>
<!-- Node2 -->
<g id="Node000002" class="node">
<title>Node2</title>
<g id="a_Node000002"><a xlink:href="namespaceNormalComputation.html#a68400b431752d36119a550beaafd042e" target="_top" xlink:title=" ">
<polygon fill="white" stroke="#666666" points="289,-141.5 167,-141.5 167,-111.5 289,-111.5 289,-141.5"/>
<text text-anchor="start" x="175" y="-129.5" font-family="Helvetica,sans-Serif" font-size="10.00">NormalComputation::</text>
<text text-anchor="middle" x="228" y="-118.5" font-family="Helvetica,sans-Serif" font-size="10.00">computeNormal</text>
</a>
</g>
</g>
<!-- Node1&#45;&gt;Node2 -->
<g id="edge1_Node000001_Node000002" class="edge">
<title>Node1&#45;&gt;Node2</title>
<g id="a_edge1_Node000001_Node000002"><a xlink:title=" ">
<path fill="none" stroke="#63b8ff" d="M99.24,-79.67C116.97,-86.78 138.51,-95.26 158,-102.5 162.85,-104.3 167.91,-106.14 172.99,-107.96"/>
<polygon fill="#63b8ff" stroke="#63b8ff" points="172.13,-111.37 182.73,-111.41 174.47,-104.77 172.13,-111.37"/>
</a>
</g>
</g>
<!-- Node5 -->
<g id="Node000005" class="node">
<title>Node5</title>
<g id="a_Node000005"><a xlink:href="utilsPatchGeneration_8hpp.html#a7e03bd9f637d6875e048306bf9f014a2" target="_top" xlink:title=" ">
<polygon fill="white" stroke="#666666" points="278.5,-93 177.5,-93 177.5,-74 278.5,-74 278.5,-93"/>
<text text-anchor="middle" x="228" y="-81" font-family="Helvetica,sans-Serif" font-size="10.00">exportPointCloud</text>
</a>
</g>
</g>
<!-- Node1&#45;&gt;Node5 -->
<g id="edge4_Node000001_Node000005" class="edge">
<title>Node1&#45;&gt;Node5</title>
<g id="a_edge4_Node000001_Node000005"><a xlink:title=" ">
<path fill="none" stroke="#63b8ff" d="M122.04,-71.41C136.78,-73.11 152.57,-74.93 167.3,-76.63"/>
<polygon fill="#63b8ff" stroke="#63b8ff" points="166.97,-80.11 177.31,-77.78 167.77,-73.16 166.97,-80.11"/>
</a>
</g>
</g>
<!-- Node6 -->
<g id="Node000006" class="node">
<title>Node6</title>
<g id="a_Node000006"><a xlink:href="classuvgvpcc__enc_1_1Logger.html#af125e72496c52fe57a8aafaadc445ac2" target="_top" xlink:title=" ">
<polygon fill="white" stroke="#666666" points="298,-56 158,-56 158,-37 298,-37 298,-56"/>
<text text-anchor="middle" x="228" y="-44" font-family="Helvetica,sans-Serif" font-size="10.00">uvgvpcc_enc::Logger::log</text>
</a>
</g>
</g>
<!-- Node1&#45;&gt;Node6 -->
<g id="edge5_Node000001_Node000006" class="edge">
<title>Node1&#45;&gt;Node6</title>
<g id="a_edge5_Node000001_Node000006"><a xlink:title=" ">
<path fill="none" stroke="#63b8ff" d="M122.04,-57.95C130.38,-57.04 139.06,-56.09 147.69,-55.15"/>
<polygon fill="#63b8ff" stroke="#63b8ff" points="148.21,-58.62 157.77,-54.05 147.45,-51.66 148.21,-58.62"/>
</a>
</g>
</g>
<!-- Node8 -->
<g id="Node000008" class="node">
<title>Node8</title>
<g id="a_Node000008"><a xlink:href="namespaceuvgvpcc__enc.html#a69b2cb991ff48de10ff75bc3c0582a54" target="_top" xlink:title=" ">
<polygon fill="white" stroke="#666666" points="290,-19 166,-19 166,0 290,0 290,-19"/>
<text text-anchor="middle" x="228" y="-7" font-family="Helvetica,sans-Serif" font-size="10.00">uvgvpcc_enc::zeroPad</text>
</a>
</g>
</g>
<!-- Node1&#45;&gt;Node8 -->
<g id="edge7_Node000001_Node000008" class="edge">
<title>Node1&#45;&gt;Node8</title>
<g id="a_edge7_Node000001_Node000008"><a xlink:title=" ">
<path fill="none" stroke="#63b8ff" d="M98.12,-49.47C115.97,-42.33 137.94,-33.96 158,-27.5 164.33,-25.46 171.05,-23.48 177.71,-21.63"/>
<polygon fill="#63b8ff" stroke="#63b8ff" points="178.63,-25.01 187.37,-19.02 176.8,-18.25 178.63,-25.01"/>
</a>
</g>
</g>
<!-- Node3 -->
<g id="Node000003" class="node">
<title>Node3</title>
<g id="a_Node000003"><a xlink:href="namespaceNormalComputation.html#a41dd4c8e05dcf89f3c7951a00776616c" target="_top" xlink:title=" ">
<polygon fill="white" stroke="#666666" points="456,-173.5 334,-173.5 334,-143.5 456,-143.5 456,-173.5"/>
<text text-anchor="start" x="342" y="-161.5" font-family="Helvetica,sans-Serif" font-size="10.00">NormalComputation::</text>
<text text-anchor="middle" x="395" y="-150.5" font-family="Helvetica,sans-Serif" font-size="10.00">computeCovMat</text>
</a>
</g>
</g>
<!-- Node2&#45;&gt;Node3 -->
<g id="edge2_Node000002_Node000003" class="edge">
<title>Node2&#45;&gt;Node3</title>
<g id="a_edge2_Node000002_Node000003"><a xlink:title=" ">
<path fill="none" stroke="#63b8ff" d="M289.04,-138.14C300.3,-140.33 312.16,-142.63 323.7,-144.87"/>
<polygon fill="#63b8ff" stroke="#63b8ff" points="323.25,-148.34 333.73,-146.81 324.58,-141.47 323.25,-148.34"/>
</a>
</g>
</g>
<!-- Node4 -->
<g id="Node000004" class="node">
<title>Node4</title>
<g id="a_Node000004"><a xlink:href="namespaceNormalComputation.html#abcc8a8dde80714795af1b5aed7a670a4" target="_top" xlink:title=" ">
<polygon fill="white" stroke="#666666" points="456,-125.5 334,-125.5 334,-95.5 456,-95.5 456,-125.5"/>
<text text-anchor="start" x="342" y="-113.5" font-family="Helvetica,sans-Serif" font-size="10.00">NormalComputation::</text>
<text text-anchor="middle" x="395" y="-102.5" font-family="Helvetica,sans-Serif" font-size="10.00">diagonalize</text>
</a>
</g>
</g>
<!-- Node2&#45;&gt;Node4 -->
<g id="edge3_Node000002_Node000004" class="edge">
<title>Node2&#45;&gt;Node4</title>
<g id="a_edge3_Node000002_Node000004"><a xlink:title=" ">
<path fill="none" stroke="#63b8ff" d="M289.04,-120.68C300.3,-119.59 312.16,-118.44 323.7,-117.32"/>
<polygon fill="#63b8ff" stroke="#63b8ff" points="324.12,-120.79 333.73,-116.34 323.44,-113.83 324.12,-120.79"/>
</a>
</g>
</g>
<!-- Node7 -->
<g id="Node000007" class="node">
<title>Node7</title>
<g id="a_Node000007"><a xlink:href="classuvgvpcc__enc_1_1Logger.html#a93dc0b596dbe176e77961cb5caf71507" target="_top" xlink:title=" ">
<polygon fill="white" stroke="#666666" points="454.5,-61.5 335.5,-61.5 335.5,-31.5 454.5,-31.5 454.5,-61.5"/>
<text text-anchor="start" x="343.5" y="-49.5" font-family="Helvetica,sans-Serif" font-size="10.00">uvgvpcc_enc::Logger</text>
<text text-anchor="middle" x="395" y="-38.5" font-family="Helvetica,sans-Serif" font-size="10.00">::getLogLevel</text>
</a>
</g>
</g>
<!-- Node6&#45;&gt;Node7 -->
<g id="edge6_Node000006_Node000007" class="edge">
<title>Node6&#45;&gt;Node7</title>
<g id="a_edge6_Node000006_Node000007"><a xlink:title=" ">
<path fill="none" stroke="#63b8ff" d="M298.02,-46.5C307.07,-46.5 316.33,-46.5 325.38,-46.5"/>
<polygon fill="#63b8ff" stroke="#63b8ff" points="325.46,-50 335.46,-46.5 325.46,-43 325.46,-50"/>
</a>
</g>
</g>
</g>
</svg>
