<?xml version="1.0" encoding="UTF-8" standalone="no"?>
<!DOCTYPE svg PUBLIC "-//W3C//DTD SVG 1.1//EN"
 "http://www.w3.org/Graphics/SVG/1.1/DTD/svg11.dtd">
<!-- Generated by graphviz version 2.43.0 (0)
 -->
<!-- Title: MapEncoding::initializeStaticParameters Pages: 1 -->
<svg width="675pt" height="86pt"
 viewBox="0.00 0.00 675.00 86.00" xmlns="http://www.w3.org/2000/svg" xmlns:xlink="http://www.w3.org/1999/xlink">
<g id="graph0" class="graph" transform="scale(1 1) rotate(0) translate(4 82)">
<title>MapEncoding::initializeStaticParameters</title>
<!-- Node1 -->
<g id="Node000001" class="node">
<title>Node1</title>
<g id="a_Node000001"><a xlink:title=" ">
<polygon fill="#999999" stroke="#666666" points="158,-54 0,-54 0,-24 158,-24 158,-54"/>
<text text-anchor="start" x="8" y="-42" font-family="Helvetica,sans-Serif" font-size="10.00">MapEncoding::initializeStatic</text>
<text text-anchor="middle" x="79" y="-31" font-family="Helvetica,sans-Serif" font-size="10.00">Parameters</text>
</a>
</g>
</g>
<!-- Node2 -->
<g id="Node000002" class="node">
<title>Node2</title>
<g id="a_Node000002"><a xlink:href="classEncoderFFmpeg.html#a5a3535ae20fbc6e9f8dcb739d17f06b1" target="_top" xlink:title=" ">
<polygon fill="white" stroke="#666666" points="337,-78 194,-78 194,-48 337,-48 337,-78"/>
<text text-anchor="start" x="202" y="-66" font-family="Helvetica,sans-Serif" font-size="10.00">EncoderFFmpeg::initialize</text>
<text text-anchor="middle" x="265.5" y="-55" font-family="Helvetica,sans-Serif" font-size="10.00">LogCallback</text>
</a>
</g>
</g>
<!-- Node1&#45;&gt;Node2 -->
<g id="edge1_Node000001_Node000002" class="edge">
<title>Node1&#45;&gt;Node2</title>
<g id="a_edge1_Node000001_Node000002"><a xlink:title=" ">
<path fill="none" stroke="#63b8ff" d="M158.24,-49.18C166.62,-50.27 175.16,-51.38 183.57,-52.47"/>
<polygon fill="#63b8ff" stroke="#63b8ff" points="183.38,-55.98 193.74,-53.8 184.28,-49.04 183.38,-55.98"/>
</a>
</g>
</g>
<!-- Node3 -->
<g id="Node000003" class="node">
<title>Node3</title>
<g id="a_Node000003"><a xlink:href="classEncoderKvazaar.html#adab91d200e76091ec41f96afc9eea4d0" target="_top" xlink:title=" ">
<polygon fill="white" stroke="#666666" points="337,-30 194,-30 194,0 337,0 337,-30"/>
<text text-anchor="start" x="202" y="-18" font-family="Helvetica,sans-Serif" font-size="10.00">EncoderKvazaar::initialize</text>
<text text-anchor="middle" x="265.5" y="-7" font-family="Helvetica,sans-Serif" font-size="10.00">LogCallback</text>
</a>
</g>
</g>
<!-- Node1&#45;&gt;Node3 -->
<g id="edge2_Node000001_Node000003" class="edge">
<title>Node1&#45;&gt;Node3</title>
<g id="a_edge2_Node000001_Node000003"><a xlink:title=" ">
<path fill="none" stroke="#63b8ff" d="M158.24,-28.82C166.62,-27.73 175.16,-26.62 183.57,-25.53"/>
<polygon fill="#63b8ff" stroke="#63b8ff" points="184.28,-28.96 193.74,-24.2 183.38,-22.02 184.28,-28.96"/>
</a>
</g>
</g>
<!-- Node4 -->
<g id="Node000004" class="node">
<title>Node4</title>
<g id="a_Node000004"><a xlink:href="catchLibLog_8cpp.html#adbbbbd21939ee7e3d31fde350c5fda01" target="_top" xlink:title=" ">
<polygon fill="white" stroke="#666666" points="512,-24.5 373,-24.5 373,-5.5 512,-5.5 512,-24.5"/>
<text text-anchor="middle" x="442.5" y="-12.5" font-family="Helvetica,sans-Serif" font-size="10.00">kvazaar_lib_log_callback</text>
</a>
</g>
</g>
<!-- Node3&#45;&gt;Node4 -->
<g id="edge3_Node000003_Node000004" class="edge">
<title>Node3&#45;&gt;Node4</title>
<g id="a_edge3_Node000003_Node000004"><a xlink:title=" ">
<path fill="none" stroke="#63b8ff" d="M337.17,-15C345.54,-15 354.11,-15 362.58,-15"/>
<polygon fill="#63b8ff" stroke="#63b8ff" points="362.83,-18.5 372.83,-15 362.83,-11.5 362.83,-18.5"/>
</a>
</g>
</g>
<!-- Node5 -->
<g id="Node000005" class="node">
<title>Node5</title>
<g id="a_Node000005"><a xlink:href="classuvgvpcc__enc_1_1Logger.html#ac9681a9cbe3ddd401d9f6163e762b788" target="_top" xlink:title=" ">
<polygon fill="white" stroke="#666666" points="667,-30 548,-30 548,0 667,0 667,-30"/>
<text text-anchor="start" x="556" y="-18" font-family="Helvetica,sans-Serif" font-size="10.00">uvgvpcc_enc::Logger</text>
<text text-anchor="middle" x="607.5" y="-7" font-family="Helvetica,sans-Serif" font-size="10.00">::vprintfStrToStdStr</text>
</a>
</g>
</g>
<!-- Node4&#45;&gt;Node5 -->
<g id="edge4_Node000004_Node000005" class="edge">
<title>Node4&#45;&gt;Node5</title>
<g id="a_edge4_Node000004_Node000005"><a xlink:title=" ">
<path fill="none" stroke="#63b8ff" d="M512.15,-15C520.63,-15 529.29,-15 537.77,-15"/>
<polygon fill="#63b8ff" stroke="#63b8ff" points="537.99,-18.5 547.99,-15 537.99,-11.5 537.99,-18.5"/>
</a>
</g>
</g>
</g>
</svg>
