<?xml version="1.0" encoding="UTF-8" standalone="no"?>
<!DOCTYPE svg PUBLIC "-//W3C//DTD SVG 1.1//EN"
 "http://www.w3.org/Graphics/SVG/1.1/DTD/svg11.dtd">
<!-- Generated by graphviz version 2.43.0 (0)
 -->
<!-- Title: MapEncoding::initializeStaticParameters Pages: 1 -->
<svg width="1006pt" height="59pt"
 viewBox="0.00 0.00 1006.00 59.00" xmlns="http://www.w3.org/2000/svg" xmlns:xlink="http://www.w3.org/1999/xlink">
<g id="graph0" class="graph" transform="scale(1 1) rotate(0) translate(4 55)">
<title>MapEncoding::initializeStaticParameters</title>
<!-- Node1 -->
<g id="Node000001" class="node">
<title>Node1</title>
<g id="a_Node000001"><a xlink:title=" ">
<polygon fill="#999999" stroke="#666666" points="158,-51 0,-51 0,-21 158,-21 158,-51"/>
<text text-anchor="start" x="8" y="-39" font-family="Helvetica,sans-Serif" font-size="10.00">MapEncoding::initializeStatic</text>
<text text-anchor="middle" x="79" y="-28" font-family="Helvetica,sans-Serif" font-size="10.00">Parameters</text>
</a>
</g>
</g>
<!-- Node2 -->
<g id="Node000002" class="node">
<title>Node2</title>
<g id="a_Node000002"><a xlink:href="classEncoderKvazaar.html#adab91d200e76091ec41f96afc9eea4d0" target="_top" xlink:title=" ">
<polygon fill="white" stroke="#666666" points="337,-51 194,-51 194,-21 337,-21 337,-51"/>
<text text-anchor="start" x="202" y="-39" font-family="Helvetica,sans-Serif" font-size="10.00">EncoderKvazaar::initialize</text>
<text text-anchor="middle" x="265.5" y="-28" font-family="Helvetica,sans-Serif" font-size="10.00">LogCallback</text>
</a>
</g>
</g>
<!-- Node1&#45;&gt;Node2 -->
<g id="edge1_Node000001_Node000002" class="edge">
<title>Node1&#45;&gt;Node2</title>
<g id="a_edge1_Node000001_Node000002"><a xlink:title=" ">
<path fill="none" stroke="#63b8ff" d="M158.24,-36C166.62,-36 175.16,-36 183.57,-36"/>
<polygon fill="#63b8ff" stroke="#63b8ff" points="183.74,-39.5 193.74,-36 183.74,-32.5 183.74,-39.5"/>
</a>
</g>
</g>
<!-- Node3 -->
<g id="Node000003" class="node">
<title>Node3</title>
<g id="a_Node000003"><a xlink:href="catchLibLog_8cpp.html#adbbbbd21939ee7e3d31fde350c5fda01" target="_top" xlink:title=" ">
<polygon fill="white" stroke="#666666" points="512,-45.5 373,-45.5 373,-26.5 512,-26.5 512,-45.5"/>
<text text-anchor="middle" x="442.5" y="-33.5" font-family="Helvetica,sans-Serif" font-size="10.00">kvazaar_lib_log_callback</text>
</a>
</g>
</g>
<!-- Node2&#45;&gt;Node3 -->
<g id="edge2_Node000002_Node000003" class="edge">
<title>Node2&#45;&gt;Node3</title>
<g id="a_edge2_Node000002_Node000003"><a xlink:title=" ">
<path fill="none" stroke="#63b8ff" d="M337.17,-36C345.54,-36 354.11,-36 362.58,-36"/>
<polygon fill="#63b8ff" stroke="#63b8ff" points="362.83,-39.5 372.83,-36 362.83,-32.5 362.83,-39.5"/>
</a>
</g>
</g>
<!-- Node4 -->
<g id="Node000004" class="node">
<title>Node4</title>
<g id="a_Node000004"><a xlink:href="classuvgvpcc__enc_1_1Logger.html#af125e72496c52fe57a8aafaadc445ac2" target="_top" xlink:title=" ">
<polygon fill="white" stroke="#666666" points="843,-45.5 703,-45.5 703,-26.5 843,-26.5 843,-45.5"/>
<text text-anchor="middle" x="773" y="-33.5" font-family="Helvetica,sans-Serif" font-size="10.00">uvgvpcc_enc::Logger::log</text>
</a>
</g>
</g>
<!-- Node3&#45;&gt;Node4 -->
<g id="edge3_Node000003_Node000004" class="edge">
<title>Node3&#45;&gt;Node4</title>
<g id="a_edge3_Node000003_Node000004"><a xlink:title=" ">
<path fill="none" stroke="#63b8ff" d="M512.07,-38.25C524.05,-38.56 536.39,-38.83 548,-39 600.88,-39.76 614.12,-39.76 667,-39 675.32,-38.88 684.01,-38.71 692.68,-38.51"/>
<polygon fill="#63b8ff" stroke="#63b8ff" points="692.91,-42 702.82,-38.26 692.73,-35 692.91,-42"/>
</a>
</g>
</g>
<!-- Node6 -->
<g id="Node000006" class="node">
<title>Node6</title>
<g id="a_Node000006"><a xlink:href="classuvgvpcc__enc_1_1Logger.html#ac9681a9cbe3ddd401d9f6163e762b788" target="_top" xlink:title=" ">
<polygon fill="white" stroke="#666666" points="667,-30 548,-30 548,0 667,0 667,-30"/>
<text text-anchor="start" x="556" y="-18" font-family="Helvetica,sans-Serif" font-size="10.00">uvgvpcc_enc::Logger</text>
<text text-anchor="middle" x="607.5" y="-7" font-family="Helvetica,sans-Serif" font-size="10.00">::vprintfStrToStdStr</text>
</a>
</g>
</g>
<!-- Node3&#45;&gt;Node6 -->
<g id="edge5_Node000003_Node000006" class="edge">
<title>Node3&#45;&gt;Node6</title>
<g id="a_edge5_Node000003_Node000006"><a xlink:title=" ">
<path fill="none" stroke="#63b8ff" d="M512.15,-27.15C520.72,-26.05 529.48,-24.92 538.05,-23.82"/>
<polygon fill="#63b8ff" stroke="#63b8ff" points="538.52,-27.29 547.99,-22.54 537.62,-20.35 538.52,-27.29"/>
</a>
</g>
</g>
<!-- Node5 -->
<g id="Node000005" class="node">
<title>Node5</title>
<g id="a_Node000005"><a xlink:href="classuvgvpcc__enc_1_1Logger.html#a93dc0b596dbe176e77961cb5caf71507" target="_top" xlink:title=" ">
<polygon fill="white" stroke="#666666" points="998,-51 879,-51 879,-21 998,-21 998,-51"/>
<text text-anchor="start" x="887" y="-39" font-family="Helvetica,sans-Serif" font-size="10.00">uvgvpcc_enc::Logger</text>
<text text-anchor="middle" x="938.5" y="-28" font-family="Helvetica,sans-Serif" font-size="10.00">::getLogLevel</text>
</a>
</g>
</g>
<!-- Node4&#45;&gt;Node5 -->
<g id="edge4_Node000004_Node000005" class="edge">
<title>Node4&#45;&gt;Node5</title>
<g id="a_edge4_Node000004_Node000005"><a xlink:title=" ">
<path fill="none" stroke="#63b8ff" d="M843.34,-36C851.75,-36 860.35,-36 868.76,-36"/>
<polygon fill="#63b8ff" stroke="#63b8ff" points="868.89,-39.5 878.89,-36 868.89,-32.5 868.89,-39.5"/>
</a>
</g>
</g>
<!-- Node6&#45;&gt;Node4 -->
<g id="edge6_Node000006_Node000004" class="edge">
<title>Node6&#45;&gt;Node4</title>
<g id="a_edge6_Node000006_Node000004"><a xlink:title=" ">
<path fill="none" stroke="#63b8ff" d="M667.07,-22.52C675.43,-23.6 684.15,-24.72 692.82,-25.83"/>
<polygon fill="#63b8ff" stroke="#63b8ff" points="692.61,-29.33 702.97,-27.13 693.5,-22.39 692.61,-29.33"/>
</a>
</g>
</g>
</g>
</svg>
