<?xml version="1.0" encoding="UTF-8" standalone="no"?>
<!DOCTYPE svg PUBLIC "-//W3C//DTD SVG 1.1//EN"
 "http://www.w3.org/Graphics/SVG/1.1/DTD/svg11.dtd">
<!-- Generated by graphviz version 2.43.0 (0)
 -->
<!-- Title: uvgvpcc_enc::API::initializeEncoder Pages: 1 -->
<svg width="547pt" height="70pt"
 viewBox="0.00 0.00 547.00 69.50" xmlns="http://www.w3.org/2000/svg" xmlns:xlink="http://www.w3.org/1999/xlink">
<g id="graph0" class="graph" transform="scale(1 1) rotate(0) translate(4 65.5)">
<title>uvgvpcc_enc::API::initializeEncoder</title>
<!-- Node1 -->
<g id="Node000001" class="node">
<title>Node1</title>
<g id="a_Node000001"><a xlink:title="Create the context of the uvgVPCCenc encoder. Parse the input parameters and verify if the given conf...">
<polygon fill="#999999" stroke="#666666" points="149,-48 0,-48 0,-18 149,-18 149,-48"/>
<text text-anchor="start" x="8" y="-36" font-family="Helvetica,sans-Serif" font-size="10.00">uvgvpcc_enc::API::initialize</text>
<text text-anchor="middle" x="74.5" y="-25" font-family="Helvetica,sans-Serif" font-size="10.00">Encoder</text>
</a>
</g>
</g>
<!-- Node2 -->
<g id="Node000002" class="node">
<title>Node2</title>
<g id="a_Node000002"><a xlink:href="namespaceuvgvpcc__enc.html#a8eec80eff55cd4c2169744feac8f1209" target="_top" xlink:title=" ">
<polygon fill="white" stroke="#666666" points="384,-61.5 185,-61.5 185,-42.5 384,-42.5 384,-61.5"/>
<text text-anchor="middle" x="284.5" y="-49.5" font-family="Helvetica,sans-Serif" font-size="10.00">uvgvpcc_enc::initializeParameterMap</text>
</a>
</g>
</g>
<!-- Node1&#45;&gt;Node2 -->
<g id="edge1_Node000001_Node000002" class="edge">
<title>Node1&#45;&gt;Node2</title>
<g id="a_edge1_Node000001_Node000002"><a xlink:title=" ">
<path fill="none" stroke="#63b8ff" d="M149.13,-39.73C157.44,-40.49 166.04,-41.27 174.69,-42.06"/>
<polygon fill="#63b8ff" stroke="#63b8ff" points="174.56,-45.56 184.84,-42.99 175.2,-38.59 174.56,-45.56"/>
</a>
</g>
</g>
<!-- Node3 -->
<g id="Node000003" class="node">
<title>Node3</title>
<g id="a_Node000003"><a xlink:href="classuvgvpcc__enc_1_1Logger.html#af125e72496c52fe57a8aafaadc445ac2" target="_top" xlink:title=" ">
<polygon fill="white" stroke="#666666" points="354.5,-24.5 214.5,-24.5 214.5,-5.5 354.5,-5.5 354.5,-24.5"/>
<text text-anchor="middle" x="284.5" y="-12.5" font-family="Helvetica,sans-Serif" font-size="10.00">uvgvpcc_enc::Logger::log</text>
</a>
</g>
</g>
<!-- Node1&#45;&gt;Node3 -->
<g id="edge2_Node000001_Node000003" class="edge">
<title>Node1&#45;&gt;Node3</title>
<g id="a_edge2_Node000001_Node000003"><a xlink:title=" ">
<path fill="none" stroke="#63b8ff" d="M149.13,-26.63C167.07,-25.08 186.34,-23.41 204.52,-21.83"/>
<polygon fill="#63b8ff" stroke="#63b8ff" points="204.84,-25.32 214.5,-20.97 204.24,-18.35 204.84,-25.32"/>
</a>
</g>
</g>
<!-- Node4 -->
<g id="Node000004" class="node">
<title>Node4</title>
<g id="a_Node000004"><a xlink:href="classuvgvpcc__enc_1_1Logger.html#a93dc0b596dbe176e77961cb5caf71507" target="_top" xlink:title=" ">
<polygon fill="white" stroke="#666666" points="539,-30 420,-30 420,0 539,0 539,-30"/>
<text text-anchor="start" x="428" y="-18" font-family="Helvetica,sans-Serif" font-size="10.00">uvgvpcc_enc::Logger</text>
<text text-anchor="middle" x="479.5" y="-7" font-family="Helvetica,sans-Serif" font-size="10.00">::getLogLevel</text>
</a>
</g>
</g>
<!-- Node3&#45;&gt;Node4 -->
<g id="edge3_Node000003_Node000004" class="edge">
<title>Node3&#45;&gt;Node4</title>
<g id="a_edge3_Node000003_Node000004"><a xlink:title=" ">
<path fill="none" stroke="#63b8ff" d="M354.63,-15C372.44,-15 391.61,-15 409.42,-15"/>
<polygon fill="#63b8ff" stroke="#63b8ff" points="409.73,-18.5 419.73,-15 409.73,-11.5 409.73,-18.5"/>
</a>
</g>
</g>
</g>
</svg>
