<?xml version="1.0" encoding="UTF-8" standalone="no"?>
<!DOCTYPE svg PUBLIC "-//W3C//DTD SVG 1.1//EN"
 "http://www.w3.org/Graphics/SVG/1.1/DTD/svg11.dtd">
<!-- Generated by graphviz version 2.43.0 (0)
 -->
<!-- Title: src/lib/patchGeneration/normalComputation.cpp Pages: 1 -->
<svg width="1152pt" height="203pt"
 viewBox="0.00 0.00 1152.00 203.00" xmlns="http://www.w3.org/2000/svg" xmlns:xlink="http://www.w3.org/1999/xlink">
<g id="graph0" class="graph" transform="scale(1 1) rotate(0) translate(4 199)">
<title>src/lib/patchGeneration/normalComputation.cpp</title>
<!-- Node1 -->
<g id="Node000001" class="node">
<title>Node1</title>
<g id="a_Node000001"><a xlink:title=" ">
<polygon fill="#999999" stroke="#666666" points="569.5,-195 432.5,-195 432.5,-165 569.5,-165 569.5,-195"/>
<text text-anchor="start" x="440.5" y="-183" font-family="Helvetica,sans-Serif" font-size="10.00">src/lib/patchGeneration</text>
<text text-anchor="middle" x="501" y="-172" font-family="Helvetica,sans-Serif" font-size="10.00">/normalComputation.cpp</text>
</a>
</g>
</g>
<!-- Node2 -->
<g id="Node000002" class="node">
<title>Node2</title>
<g id="a_Node000002"><a xlink:href="normalComputation_8hpp.html" target="_top" xlink:title=" ">
<polygon fill="white" stroke="#666666" points="308.5,-129 173.5,-129 173.5,-110 308.5,-110 308.5,-129"/>
<text text-anchor="middle" x="241" y="-117" font-family="Helvetica,sans-Serif" font-size="10.00">normalComputation.hpp</text>
</a>
</g>
</g>
<!-- Node1&#45;&gt;Node2 -->
<g id="edge1_Node000001_Node000002" class="edge">
<title>Node1&#45;&gt;Node2</title>
<g id="a_edge1_Node000001_Node000002"><a xlink:title=" ">
<path fill="none" stroke="#63b8ff" d="M438.72,-164.99C392.78,-154.65 331.19,-140.79 289.03,-131.31"/>
<polygon fill="#63b8ff" stroke="#63b8ff" points="289.54,-127.83 279.02,-129.05 288,-134.66 289.54,-127.83"/>
</a>
</g>
</g>
<!-- Node3 -->
<g id="Node000003" class="node">
<title>Node3</title>
<g id="a_Node000003"><a xlink:href="uvgvpcc_8hpp.html" target="_top" xlink:title=" ">
<polygon fill="white" stroke="#666666" points="397,-74 275,-74 275,-55 397,-55 397,-74"/>
<text text-anchor="middle" x="336" y="-62" font-family="Helvetica,sans-Serif" font-size="10.00">uvgvpcc/uvgvpcc.hpp</text>
</a>
</g>
</g>
<!-- Node1&#45;&gt;Node3 -->
<g id="edge45_Node000001_Node000003" class="edge">
<title>Node1&#45;&gt;Node3</title>
<g id="a_edge45_Node000001_Node000003"><a xlink:title=" ">
<path fill="none" stroke="#63b8ff" d="M432.42,-178.94C344.12,-177.24 197.95,-168.36 164,-129 131.21,-90.98 204.11,-75.71 264.91,-69.58"/>
<polygon fill="#63b8ff" stroke="#63b8ff" points="265.31,-73.06 274.94,-68.64 264.65,-66.09 265.31,-73.06"/>
</a>
</g>
</g>
<!-- Node4 -->
<g id="Node000004" class="node">
<title>Node4</title>
<g id="a_Node000004"><a xlink:title=" ">
<polygon fill="#e0e0e0" stroke="#999999" points="129.5,-19 76.5,-19 76.5,0 129.5,0 129.5,-19"/>
<text text-anchor="middle" x="103" y="-7" font-family="Helvetica,sans-Serif" font-size="10.00">cstddef</text>
</a>
</g>
</g>
<!-- Node1&#45;&gt;Node4 -->
<g id="edge16_Node000001_Node000004" class="edge">
<title>Node1&#45;&gt;Node4</title>
<g id="a_edge16_Node000001_Node000004"><a xlink:title=" ">
<path fill="none" stroke="#63b8ff" d="M432.14,-177.07C343.12,-173.25 194.48,-162 152,-129 120.31,-104.38 108.95,-55.68 105.01,-29.02"/>
<polygon fill="#63b8ff" stroke="#63b8ff" points="108.48,-28.55 103.73,-19.08 101.53,-29.44 108.48,-28.55"/>
</a>
</g>
</g>
<!-- Node7 -->
<g id="Node000007" class="node">
<title>Node7</title>
<g id="a_Node000007"><a xlink:title=" ">
<polygon fill="#e0e0e0" stroke="#999999" points="58,-19 0,-19 0,0 58,0 58,-19"/>
<text text-anchor="middle" x="29" y="-7" font-family="Helvetica,sans-Serif" font-size="10.00">memory</text>
</a>
</g>
</g>
<!-- Node1&#45;&gt;Node7 -->
<g id="edge17_Node000001_Node000007" class="edge">
<title>Node1&#45;&gt;Node7</title>
<g id="a_edge17_Node000001_Node000007"><a xlink:title=" ">
<path fill="none" stroke="#63b8ff" d="M432.43,-175.47C340.36,-169.75 182.49,-156.25 132,-129 88.18,-105.35 54.46,-55.12 38.73,-28.28"/>
<polygon fill="#63b8ff" stroke="#63b8ff" points="41.58,-26.21 33.6,-19.24 35.49,-29.67 41.58,-26.21"/>
</a>
</g>
</g>
<!-- Node11 -->
<g id="Node000011" class="node">
<title>Node11</title>
<g id="a_Node000011"><a xlink:title=" ">
<polygon fill="#e0e0e0" stroke="#999999" points="742,-19 698,-19 698,0 742,0 742,-19"/>
<text text-anchor="middle" x="720" y="-7" font-family="Helvetica,sans-Serif" font-size="10.00">string</text>
</a>
</g>
</g>
<!-- Node1&#45;&gt;Node11 -->
<g id="edge18_Node000001_Node000011" class="edge">
<title>Node1&#45;&gt;Node11</title>
<g id="a_edge18_Node000001_Node000011"><a xlink:title=" ">
<path fill="none" stroke="#63b8ff" d="M501.58,-164.77C502.89,-149.62 507.05,-125.73 520,-110 542.94,-82.14 638.21,-42.21 688.54,-22.48"/>
<polygon fill="#63b8ff" stroke="#63b8ff" points="689.92,-25.69 697.97,-18.81 687.38,-19.17 689.92,-25.69"/>
</a>
</g>
</g>
<!-- Node12 -->
<g id="Node000012" class="node">
<title>Node12</title>
<g id="a_Node000012"><a xlink:title=" ">
<polygon fill="#e0e0e0" stroke="#999999" points="459.5,-19 412.5,-19 412.5,0 459.5,0 459.5,-19"/>
<text text-anchor="middle" x="436" y="-7" font-family="Helvetica,sans-Serif" font-size="10.00">vector</text>
</a>
</g>
</g>
<!-- Node1&#45;&gt;Node12 -->
<g id="edge19_Node000001_Node000012" class="edge">
<title>Node1&#45;&gt;Node12</title>
<g id="a_edge19_Node000001_Node000012"><a xlink:title=" ">
<path fill="none" stroke="#63b8ff" d="M495.57,-164.92C483.84,-134.52 456.15,-62.73 443.07,-28.83"/>
<polygon fill="#63b8ff" stroke="#63b8ff" points="446.24,-27.33 439.38,-19.25 439.71,-29.84 446.24,-27.33"/>
</a>
</g>
</g>
<!-- Node14 -->
<g id="Node000014" class="node">
<title>Node14</title>
<g id="a_Node000014"><a xlink:title=" ">
<polygon fill="#e0e0e0" stroke="#999999" points="864,-19 822,-19 822,0 864,0 864,-19"/>
<text text-anchor="middle" x="843" y="-7" font-family="Helvetica,sans-Serif" font-size="10.00">array</text>
</a>
</g>
</g>
<!-- Node1&#45;&gt;Node14 -->
<g id="edge13_Node000001_Node000014" class="edge">
<title>Node1&#45;&gt;Node14</title>
<g id="a_edge13_Node000001_Node000014"><a xlink:title=" ">
<path fill="none" stroke="#63b8ff" d="M569.68,-175.52C648.89,-170.21 772.85,-157.52 809,-129 839.29,-105.11 843.78,-56.11 843.79,-29.21"/>
<polygon fill="#63b8ff" stroke="#63b8ff" points="847.29,-29.1 843.58,-19.17 840.29,-29.24 847.29,-29.1"/>
</a>
</g>
</g>
<!-- Node15 -->
<g id="Node000015" class="node">
<title>Node15</title>
<g id="a_Node000015"><a xlink:title=" ">
<polygon fill="#e0e0e0" stroke="#999999" points="581,-129 529,-129 529,-110 581,-110 581,-129"/>
<text text-anchor="middle" x="555" y="-117" font-family="Helvetica,sans-Serif" font-size="10.00">cassert</text>
</a>
</g>
</g>
<!-- Node1&#45;&gt;Node15 -->
<g id="edge14_Node000001_Node000015" class="edge">
<title>Node1&#45;&gt;Node15</title>
<g id="a_edge14_Node000001_Node000015"><a xlink:title=" ">
<path fill="none" stroke="#63b8ff" d="M514.07,-164.84C521.91,-156.35 531.91,-145.52 540.06,-136.69"/>
<polygon fill="#63b8ff" stroke="#63b8ff" points="542.7,-138.99 546.91,-129.27 537.55,-134.24 542.7,-138.99"/>
</a>
</g>
</g>
<!-- Node16 -->
<g id="Node000016" class="node">
<title>Node16</title>
<g id="a_Node000016"><a xlink:title=" ">
<polygon fill="#e0e0e0" stroke="#999999" points="646.5,-129 599.5,-129 599.5,-110 646.5,-110 646.5,-129"/>
<text text-anchor="middle" x="623" y="-117" font-family="Helvetica,sans-Serif" font-size="10.00">cmath</text>
</a>
</g>
</g>
<!-- Node1&#45;&gt;Node16 -->
<g id="edge15_Node000001_Node000016" class="edge">
<title>Node1&#45;&gt;Node16</title>
<g id="a_edge15_Node000001_Node000016"><a xlink:title=" ">
<path fill="none" stroke="#63b8ff" d="M530.22,-164.99C550.12,-155.45 576.28,-142.9 595.75,-133.57"/>
<polygon fill="#63b8ff" stroke="#63b8ff" points="597.48,-136.62 604.98,-129.14 594.45,-130.31 597.48,-136.62"/>
</a>
</g>
</g>
<!-- Node17 -->
<g id="Node000017" class="node">
<title>Node17</title>
<g id="a_Node000017"><a xlink:href="fileExport_8hpp.html" target="_top" xlink:title=" ">
<polygon fill="white" stroke="#666666" points="435,-129 327,-129 327,-110 435,-110 435,-129"/>
<text text-anchor="middle" x="381" y="-117" font-family="Helvetica,sans-Serif" font-size="10.00">utils/fileExport.hpp</text>
</a>
</g>
</g>
<!-- Node1&#45;&gt;Node17 -->
<g id="edge20_Node000001_Node000017" class="edge">
<title>Node1&#45;&gt;Node17</title>
<g id="a_edge20_Node000001_Node000017"><a xlink:title=" ">
<path fill="none" stroke="#63b8ff" d="M472.26,-164.99C452.68,-155.45 426.95,-142.9 407.8,-133.57"/>
<polygon fill="#63b8ff" stroke="#63b8ff" points="409.24,-130.38 398.72,-129.14 406.18,-136.67 409.24,-130.38"/>
</a>
</g>
</g>
<!-- Node18 -->
<g id="Node000018" class="node">
<title>Node18</title>
<g id="a_Node000018"><a xlink:href="utils_8hpp.html" target="_top" xlink:title=" ">
<polygon fill="white" stroke="#666666" points="822.5,-74 739.5,-74 739.5,-55 822.5,-55 822.5,-74"/>
<text text-anchor="middle" x="781" y="-62" font-family="Helvetica,sans-Serif" font-size="10.00">utils/utils.hpp</text>
</a>
</g>
</g>
<!-- Node1&#45;&gt;Node18 -->
<g id="edge37_Node000001_Node000018" class="edge">
<title>Node1&#45;&gt;Node18</title>
<g id="a_edge37_Node000001_Node000018"><a xlink:title=" ">
<path fill="none" stroke="#63b8ff" d="M569.65,-177.06C646.56,-173.27 764.13,-162.07 792,-129 802.68,-116.33 797.32,-97.08 790.91,-83.09"/>
<polygon fill="#63b8ff" stroke="#63b8ff" points="793.94,-81.32 786.27,-74.01 787.7,-84.51 793.94,-81.32"/>
</a>
</g>
</g>
<!-- Node21 -->
<g id="Node000021" class="node">
<title>Node21</title>
<g id="a_Node000021"><a xlink:href="parameters_8hpp.html" target="_top" xlink:title=" ">
<polygon fill="white" stroke="#666666" points="783,-129 665,-129 665,-110 783,-110 783,-129"/>
<text text-anchor="middle" x="724" y="-117" font-family="Helvetica,sans-Serif" font-size="10.00">utils/parameters.hpp</text>
</a>
</g>
</g>
<!-- Node1&#45;&gt;Node21 -->
<g id="edge32_Node000001_Node000021" class="edge">
<title>Node1&#45;&gt;Node21</title>
<g id="a_edge32_Node000001_Node000021"><a xlink:title=" ">
<path fill="none" stroke="#63b8ff" d="M554.41,-164.99C593.4,-154.76 645.53,-141.09 681.65,-131.61"/>
<polygon fill="#63b8ff" stroke="#63b8ff" points="682.61,-134.98 691.39,-129.05 680.83,-128.21 682.61,-134.98"/>
</a>
</g>
</g>
<!-- Node23 -->
<g id="Node000023" class="node">
<title>Node23</title>
<g id="a_Node000023"><a xlink:href="log_8hpp.html" target="_top" xlink:title=" ">
<polygon fill="white" stroke="#666666" points="975,-74 879,-74 879,-55 975,-55 975,-74"/>
<text text-anchor="middle" x="927" y="-62" font-family="Helvetica,sans-Serif" font-size="10.00">uvgvpcc/log.hpp</text>
</a>
</g>
</g>
<!-- Node1&#45;&gt;Node23 -->
<g id="edge38_Node000001_Node000023" class="edge">
<title>Node1&#45;&gt;Node23</title>
<g id="a_edge38_Node000001_Node000023"><a xlink:title=" ">
<path fill="none" stroke="#63b8ff" d="M569.58,-174.89C660.32,-168.55 814.66,-154.38 865,-129 886.19,-118.32 904.33,-97.5 915.41,-82.61"/>
<polygon fill="#63b8ff" stroke="#63b8ff" points="918.42,-84.43 921.37,-74.25 912.72,-80.37 918.42,-84.43"/>
</a>
</g>
</g>
<!-- Node2&#45;&gt;Node3 -->
<g id="edge2_Node000002_Node000003" class="edge">
<title>Node2&#45;&gt;Node3</title>
<g id="a_edge2_Node000002_Node000003"><a xlink:title=" ">
<path fill="none" stroke="#63b8ff" d="M256.26,-109.98C271.13,-101.69 293.98,-88.94 311.42,-79.22"/>
<polygon fill="#63b8ff" stroke="#63b8ff" points="313.43,-82.1 320.46,-74.17 310.02,-75.99 313.43,-82.1"/>
</a>
</g>
</g>
<!-- Node3&#45;&gt;Node4 -->
<g id="edge3_Node000003_Node000004" class="edge">
<title>Node3&#45;&gt;Node4</title>
<g id="a_edge3_Node000003_Node000004"><a xlink:title=" ">
<path fill="none" stroke="#63b8ff" d="M297.26,-55C259.41,-46.65 199.93,-33.4 139.79,-19.39"/>
<polygon fill="#63b8ff" stroke="#63b8ff" points="140.28,-15.91 129.74,-17.04 138.68,-22.73 140.28,-15.91"/>
</a>
</g>
</g>
<!-- Node5 -->
<g id="Node000005" class="node">
<title>Node5</title>
<g id="a_Node000005"><a xlink:title=" ">
<polygon fill="#e0e0e0" stroke="#999999" points="602,-19 552,-19 552,0 602,0 602,-19"/>
<text text-anchor="middle" x="577" y="-7" font-family="Helvetica,sans-Serif" font-size="10.00">cstdint</text>
</a>
</g>
</g>
<!-- Node3&#45;&gt;Node5 -->
<g id="edge4_Node000003_Node000005" class="edge">
<title>Node3&#45;&gt;Node5</title>
<g id="a_edge4_Node000003_Node000005"><a xlink:title=" ">
<path fill="none" stroke="#63b8ff" d="M377.72,-54.96C417.47,-46.72 479.22,-33.68 541.74,-19.24"/>
<polygon fill="#63b8ff" stroke="#63b8ff" points="542.82,-22.58 551.77,-16.91 541.24,-15.76 542.82,-22.58"/>
</a>
</g>
</g>
<!-- Node6 -->
<g id="Node000006" class="node">
<title>Node6</title>
<g id="a_Node000006"><a xlink:title=" ">
<polygon fill="#e0e0e0" stroke="#999999" points="680,-19 620,-19 620,0 680,0 680,-19"/>
<text text-anchor="middle" x="650" y="-7" font-family="Helvetica,sans-Serif" font-size="10.00">iostream</text>
</a>
</g>
</g>
<!-- Node3&#45;&gt;Node6 -->
<g id="edge5_Node000003_Node000006" class="edge">
<title>Node3&#45;&gt;Node6</title>
<g id="a_edge5_Node000003_Node000006"><a xlink:title=" ">
<path fill="none" stroke="#63b8ff" d="M394.37,-54.99C447.86,-46.98 529.48,-34.23 609.54,-19.19"/>
<polygon fill="#63b8ff" stroke="#63b8ff" points="610.62,-22.55 619.8,-17.25 609.32,-15.67 610.62,-22.55"/>
</a>
</g>
</g>
<!-- Node3&#45;&gt;Node7 -->
<g id="edge6_Node000003_Node000007" class="edge">
<title>Node3&#45;&gt;Node7</title>
<g id="a_edge6_Node000003_Node000007"><a xlink:title=" ">
<path fill="none" stroke="#63b8ff" d="M278.63,-54.96C226.3,-46.96 146.59,-34.23 68.08,-19.12"/>
<polygon fill="#63b8ff" stroke="#63b8ff" points="68.49,-15.63 58.01,-17.17 67.16,-22.51 68.49,-15.63"/>
</a>
</g>
</g>
<!-- Node8 -->
<g id="Node000008" class="node">
<title>Node8</title>
<g id="a_Node000008"><a xlink:title=" ">
<polygon fill="#e0e0e0" stroke="#999999" points="194.5,-19 147.5,-19 147.5,0 194.5,0 194.5,-19"/>
<text text-anchor="middle" x="171" y="-7" font-family="Helvetica,sans-Serif" font-size="10.00">queue</text>
</a>
</g>
</g>
<!-- Node3&#45;&gt;Node8 -->
<g id="edge7_Node000003_Node000008" class="edge">
<title>Node3&#45;&gt;Node8</title>
<g id="a_edge7_Node000003_Node000008"><a xlink:title=" ">
<path fill="none" stroke="#63b8ff" d="M309.49,-54.98C280.93,-45.81 235.41,-31.19 204.41,-21.23"/>
<polygon fill="#63b8ff" stroke="#63b8ff" points="205.1,-17.78 194.5,-18.05 202.96,-24.44 205.1,-17.78"/>
</a>
</g>
</g>
<!-- Node9 -->
<g id="Node000009" class="node">
<title>Node9</title>
<g id="a_Node000009"><a xlink:title=" ">
<polygon fill="#e0e0e0" stroke="#999999" points="283.5,-19 212.5,-19 212.5,0 283.5,0 283.5,-19"/>
<text text-anchor="middle" x="248" y="-7" font-family="Helvetica,sans-Serif" font-size="10.00">semaphore</text>
</a>
</g>
</g>
<!-- Node3&#45;&gt;Node9 -->
<g id="edge8_Node000003_Node000009" class="edge">
<title>Node3&#45;&gt;Node9</title>
<g id="a_edge8_Node000003_Node000009"><a xlink:title=" ">
<path fill="none" stroke="#63b8ff" d="M321.86,-54.98C308.21,-46.77 287.31,-34.18 271.22,-24.49"/>
<polygon fill="#63b8ff" stroke="#63b8ff" points="272.77,-21.33 262.4,-19.17 269.16,-27.33 272.77,-21.33"/>
</a>
</g>
</g>
<!-- Node10 -->
<g id="Node000010" class="node">
<title>Node10</title>
<g id="a_Node000010"><a xlink:title=" ">
<polygon fill="#e0e0e0" stroke="#999999" points="534,-19 478,-19 478,0 534,0 534,-19"/>
<text text-anchor="middle" x="506" y="-7" font-family="Helvetica,sans-Serif" font-size="10.00">sstream</text>
</a>
</g>
</g>
<!-- Node3&#45;&gt;Node10 -->
<g id="edge9_Node000003_Node000010" class="edge">
<title>Node3&#45;&gt;Node10</title>
<g id="a_edge9_Node000003_Node000010"><a xlink:title=" ">
<path fill="none" stroke="#63b8ff" d="M363.31,-54.98C391.85,-46.09 436.83,-32.07 468.64,-22.15"/>
<polygon fill="#63b8ff" stroke="#63b8ff" points="469.97,-25.4 478.47,-19.08 467.88,-18.72 469.97,-25.4"/>
</a>
</g>
</g>
<!-- Node3&#45;&gt;Node11 -->
<g id="edge10_Node000003_Node000011" class="edge">
<title>Node3&#45;&gt;Node11</title>
<g id="a_edge10_Node000003_Node000011"><a xlink:title=" ">
<path fill="none" stroke="#63b8ff" d="M397.01,-58.47C465.58,-52.21 580.32,-39.97 687.71,-19"/>
<polygon fill="#63b8ff" stroke="#63b8ff" points="688.61,-22.39 697.74,-17.01 687.25,-15.52 688.61,-22.39"/>
</a>
</g>
</g>
<!-- Node3&#45;&gt;Node12 -->
<g id="edge11_Node000003_Node000012" class="edge">
<title>Node3&#45;&gt;Node12</title>
<g id="a_edge11_Node000003_Node000012"><a xlink:title=" ">
<path fill="none" stroke="#63b8ff" d="M352.07,-54.98C367.86,-46.61 392.22,-33.7 410.63,-23.95"/>
<polygon fill="#63b8ff" stroke="#63b8ff" points="412.44,-26.95 419.64,-19.17 409.17,-20.76 412.44,-26.95"/>
</a>
</g>
</g>
<!-- Node13 -->
<g id="Node000013" class="node">
<title>Node13</title>
<g id="a_Node000013"><a xlink:title=" ">
<polygon fill="#e0e0e0" stroke="#999999" points="394,-19 302,-19 302,0 394,0 394,-19"/>
<text text-anchor="middle" x="348" y="-7" font-family="Helvetica,sans-Serif" font-size="10.00">../utils/utils.hpp</text>
</a>
</g>
</g>
<!-- Node3&#45;&gt;Node13 -->
<g id="edge12_Node000003_Node000013" class="edge">
<title>Node3&#45;&gt;Node13</title>
<g id="a_edge12_Node000003_Node000013"><a xlink:title=" ">
<path fill="none" stroke="#63b8ff" d="M337.98,-54.75C339.57,-47.72 341.86,-37.62 343.85,-28.84"/>
<polygon fill="#63b8ff" stroke="#63b8ff" points="347.26,-29.62 346.06,-19.09 340.43,-28.07 347.26,-29.62"/>
</a>
</g>
</g>
<!-- Node17&#45;&gt;Node3 -->
<g id="edge31_Node000017_Node000003" class="edge">
<title>Node17&#45;&gt;Node3</title>
<g id="a_edge31_Node000017_Node000003"><a xlink:title=" ">
<path fill="none" stroke="#63b8ff" d="M373.57,-109.75C367.15,-102.18 357.69,-91.05 349.88,-81.84"/>
<polygon fill="#63b8ff" stroke="#63b8ff" points="352.43,-79.45 343.29,-74.09 347.1,-83.98 352.43,-79.45"/>
</a>
</g>
</g>
<!-- Node17&#45;&gt;Node4 -->
<g id="edge21_Node000017_Node000004" class="edge">
<title>Node17&#45;&gt;Node4</title>
<g id="a_edge21_Node000017_Node000004"><a xlink:title=" ">
<path fill="none" stroke="#63b8ff" d="M358.95,-109.98C335.79,-101.04 298.33,-86.55 266,-74 220.2,-56.22 167.2,-35.55 134.38,-22.75"/>
<polygon fill="#63b8ff" stroke="#63b8ff" points="135.46,-19.42 124.88,-19.04 132.92,-25.94 135.46,-19.42"/>
</a>
</g>
</g>
<!-- Node17&#45;&gt;Node7 -->
<g id="edge22_Node000017_Node000007" class="edge">
<title>Node17&#45;&gt;Node7</title>
<g id="a_edge22_Node000017_Node000007"><a xlink:title=" ">
<path fill="none" stroke="#63b8ff" d="M347.44,-109.94C314.37,-101.37 262.48,-87.53 218,-74 163.13,-57.31 100.11,-35.62 62.48,-22.4"/>
<polygon fill="#63b8ff" stroke="#63b8ff" points="63.62,-19.09 53.02,-19.07 61.29,-25.69 63.62,-19.09"/>
</a>
</g>
</g>
<!-- Node17&#45;&gt;Node11 -->
<g id="edge23_Node000017_Node000011" class="edge">
<title>Node17&#45;&gt;Node11</title>
<g id="a_edge23_Node000017_Node000011"><a xlink:title=" ">
<path fill="none" stroke="#63b8ff" d="M397.42,-109.96C423.73,-96.58 477.21,-70.61 525,-55 592.89,-32.83 614.68,-36.49 687.55,-19.22"/>
<polygon fill="#63b8ff" stroke="#63b8ff" points="688.79,-22.52 697.68,-16.77 687.14,-15.72 688.79,-22.52"/>
</a>
</g>
</g>
<!-- Node17&#45;&gt;Node12 -->
<g id="edge24_Node000017_Node000012" class="edge">
<title>Node17&#45;&gt;Node12</title>
<g id="a_edge24_Node000017_Node000012"><a xlink:title=" ">
<path fill="none" stroke="#63b8ff" d="M386.17,-109.73C391.36,-100.83 399.5,-86.6 406,-74 413.86,-58.78 422.12,-41.15 427.98,-28.33"/>
<polygon fill="#63b8ff" stroke="#63b8ff" points="431.17,-29.77 432.11,-19.22 424.8,-26.88 431.17,-29.77"/>
</a>
</g>
</g>
<!-- Node17&#45;&gt;Node18 -->
<g id="edge25_Node000017_Node000018" class="edge">
<title>Node17&#45;&gt;Node18</title>
<g id="a_edge25_Node000017_Node000018"><a xlink:title=" ">
<path fill="none" stroke="#63b8ff" d="M435.06,-112.34C501.89,-104.56 619.35,-90.38 729.34,-74.2"/>
<polygon fill="#63b8ff" stroke="#63b8ff" points="729.9,-77.65 739.28,-72.73 728.87,-70.73 729.9,-77.65"/>
</a>
</g>
</g>
<!-- Node18&#45;&gt;Node5 -->
<g id="edge27_Node000018_Node000005" class="edge">
<title>Node18&#45;&gt;Node5</title>
<g id="a_edge27_Node000018_Node000005"><a xlink:title=" ">
<path fill="none" stroke="#63b8ff" d="M748.22,-54.98C711.06,-45.33 650.68,-29.64 612.44,-19.71"/>
<polygon fill="#63b8ff" stroke="#63b8ff" points="612.84,-16.2 602.28,-17.07 611.08,-22.97 612.84,-16.2"/>
</a>
</g>
</g>
<!-- Node18&#45;&gt;Node10 -->
<g id="edge29_Node000018_Node000010" class="edge">
<title>Node18&#45;&gt;Node10</title>
<g id="a_edge29_Node000018_Node000010"><a xlink:title=" ">
<path fill="none" stroke="#63b8ff" d="M739.19,-56.22C693.63,-48.16 618.34,-34.51 544.23,-19.19"/>
<polygon fill="#63b8ff" stroke="#63b8ff" points="544.76,-15.73 534.26,-17.12 543.33,-22.58 544.76,-15.73"/>
</a>
</g>
</g>
<!-- Node18&#45;&gt;Node14 -->
<g id="edge26_Node000018_Node000014" class="edge">
<title>Node18&#45;&gt;Node14</title>
<g id="a_edge26_Node000018_Node000014"><a xlink:title=" ">
<path fill="none" stroke="#63b8ff" d="M790.96,-54.98C800.13,-47.15 813.94,-35.34 825.03,-25.86"/>
<polygon fill="#63b8ff" stroke="#63b8ff" points="827.53,-28.33 832.86,-19.17 822.98,-23.01 827.53,-28.33"/>
</a>
</g>
</g>
<!-- Node19 -->
<g id="Node000019" class="node">
<title>Node19</title>
<g id="a_Node000019"><a xlink:title=" ">
<polygon fill="#e0e0e0" stroke="#999999" points="804,-19 760,-19 760,0 804,0 804,-19"/>
<text text-anchor="middle" x="782" y="-7" font-family="Helvetica,sans-Serif" font-size="10.00">limits</text>
</a>
</g>
</g>
<!-- Node18&#45;&gt;Node19 -->
<g id="edge28_Node000018_Node000019" class="edge">
<title>Node18&#45;&gt;Node19</title>
<g id="a_edge28_Node000018_Node000019"><a xlink:title=" ">
<path fill="none" stroke="#63b8ff" d="M781.17,-54.75C781.3,-47.8 781.48,-37.85 781.65,-29.13"/>
<polygon fill="#63b8ff" stroke="#63b8ff" points="785.15,-29.15 781.84,-19.09 778.15,-29.02 785.15,-29.15"/>
</a>
</g>
</g>
<!-- Node20 -->
<g id="Node000020" class="node">
<title>Node20</title>
<g id="a_Node000020"><a xlink:title=" ">
<polygon fill="#e0e0e0" stroke="#999999" points="938,-19 882,-19 882,0 938,0 938,-19"/>
<text text-anchor="middle" x="910" y="-7" font-family="Helvetica,sans-Serif" font-size="10.00">iomanip</text>
</a>
</g>
</g>
<!-- Node18&#45;&gt;Node20 -->
<g id="edge30_Node000018_Node000020" class="edge">
<title>Node18&#45;&gt;Node20</title>
<g id="a_edge30_Node000018_Node000020"><a xlink:title=" ">
<path fill="none" stroke="#63b8ff" d="M801.73,-54.98C822.76,-46.34 855.55,-32.87 879.54,-23.02"/>
<polygon fill="#63b8ff" stroke="#63b8ff" points="880.98,-26.21 888.9,-19.17 878.32,-19.73 880.98,-26.21"/>
</a>
</g>
</g>
<!-- Node21&#45;&gt;Node11 -->
<g id="edge34_Node000021_Node000011" class="edge">
<title>Node21&#45;&gt;Node11</title>
<g id="a_edge34_Node000021_Node000011"><a xlink:title=" ">
<path fill="none" stroke="#63b8ff" d="M694.86,-109.87C677.65,-103.1 657.26,-91.79 647,-74 634.05,-51.55 663.22,-33.1 688.45,-21.98"/>
<polygon fill="#63b8ff" stroke="#63b8ff" points="689.94,-25.15 697.83,-18.08 687.25,-18.68 689.94,-25.15"/>
</a>
</g>
</g>
<!-- Node21&#45;&gt;Node12 -->
<g id="edge35_Node000021_Node000012" class="edge">
<title>Node21&#45;&gt;Node12</title>
<g id="a_edge35_Node000021_Node000012"><a xlink:title=" ">
<path fill="none" stroke="#63b8ff" d="M700.92,-109.84C649.82,-90.68 527.01,-44.63 468.31,-22.62"/>
<polygon fill="#63b8ff" stroke="#63b8ff" points="469.38,-19.28 458.79,-19.05 466.93,-25.84 469.38,-19.28"/>
</a>
</g>
</g>
<!-- Node21&#45;&gt;Node18 -->
<g id="edge36_Node000021_Node000018" class="edge">
<title>Node21&#45;&gt;Node18</title>
<g id="a_edge36_Node000021_Node000018"><a xlink:title=" ">
<path fill="none" stroke="#63b8ff" d="M733.16,-109.98C741.5,-102.23 754.03,-90.58 764.18,-81.14"/>
<polygon fill="#63b8ff" stroke="#63b8ff" points="766.74,-83.54 771.68,-74.17 761.97,-78.42 766.74,-83.54"/>
</a>
</g>
</g>
<!-- Node22 -->
<g id="Node000022" class="node">
<title>Node22</title>
<g id="a_Node000022"><a xlink:title=" ">
<polygon fill="#e0e0e0" stroke="#999999" points="721.5,-74 656.5,-74 656.5,-55 721.5,-55 721.5,-74"/>
<text text-anchor="middle" x="689" y="-62" font-family="Helvetica,sans-Serif" font-size="10.00">stdexcept</text>
</a>
</g>
</g>
<!-- Node21&#45;&gt;Node22 -->
<g id="edge33_Node000021_Node000022" class="edge">
<title>Node21&#45;&gt;Node22</title>
<g id="a_edge33_Node000021_Node000022"><a xlink:title=" ">
<path fill="none" stroke="#63b8ff" d="M718.22,-109.75C713.38,-102.42 706.32,-91.73 700.36,-82.7"/>
<polygon fill="#63b8ff" stroke="#63b8ff" points="703.1,-80.5 694.67,-74.09 697.26,-84.36 703.1,-80.5"/>
</a>
</g>
</g>
<!-- Node23&#45;&gt;Node6 -->
<g id="edge42_Node000023_Node000006" class="edge">
<title>Node23&#45;&gt;Node6</title>
<g id="a_edge42_Node000023_Node000006"><a xlink:title=" ">
<path fill="none" stroke="#63b8ff" d="M879.05,-54.97C833.09,-46.69 761.5,-33.55 690.26,-19.21"/>
<polygon fill="#63b8ff" stroke="#63b8ff" points="690.71,-15.73 680.21,-17.18 689.32,-22.59 690.71,-15.73"/>
</a>
</g>
</g>
<!-- Node23&#45;&gt;Node11 -->
<g id="edge43_Node000023_Node000011" class="edge">
<title>Node23&#45;&gt;Node11</title>
<g id="a_edge43_Node000023_Node000011"><a xlink:title=" ">
<path fill="none" stroke="#63b8ff" d="M892.22,-54.92C858.69,-46.61 806.28,-33.48 751.83,-19.18"/>
<polygon fill="#63b8ff" stroke="#63b8ff" points="752.56,-15.75 742,-16.59 750.78,-22.52 752.56,-15.75"/>
</a>
</g>
</g>
<!-- Node23&#45;&gt;Node20 -->
<g id="edge41_Node000023_Node000020" class="edge">
<title>Node23&#45;&gt;Node20</title>
<g id="a_edge41_Node000023_Node000020"><a xlink:title=" ">
<path fill="none" stroke="#63b8ff" d="M924.19,-54.75C921.94,-47.72 918.7,-37.62 915.88,-28.84"/>
<polygon fill="#63b8ff" stroke="#63b8ff" points="919.14,-27.54 912.75,-19.09 912.48,-29.68 919.14,-27.54"/>
</a>
</g>
</g>
<!-- Node24 -->
<g id="Node000024" class="node">
<title>Node24</title>
<g id="a_Node000024"><a xlink:title=" ">
<polygon fill="#e0e0e0" stroke="#999999" points="1006,-19 956,-19 956,0 1006,0 1006,-19"/>
<text text-anchor="middle" x="981" y="-7" font-family="Helvetica,sans-Serif" font-size="10.00">chrono</text>
</a>
</g>
</g>
<!-- Node23&#45;&gt;Node24 -->
<g id="edge39_Node000023_Node000024" class="edge">
<title>Node23&#45;&gt;Node24</title>
<g id="a_edge39_Node000023_Node000024"><a xlink:title=" ">
<path fill="none" stroke="#63b8ff" d="M935.92,-54.75C943.78,-47.03 955.43,-35.6 964.92,-26.28"/>
<polygon fill="#63b8ff" stroke="#63b8ff" points="967.56,-28.59 972.25,-19.09 962.66,-23.6 967.56,-28.59"/>
</a>
</g>
</g>
<!-- Node25 -->
<g id="Node000025" class="node">
<title>Node25</title>
<g id="a_Node000025"><a xlink:title=" ">
<polygon fill="#e0e0e0" stroke="#999999" points="1077.5,-19 1024.5,-19 1024.5,0 1077.5,0 1077.5,-19"/>
<text text-anchor="middle" x="1051" y="-7" font-family="Helvetica,sans-Serif" font-size="10.00">cstdarg</text>
</a>
</g>
</g>
<!-- Node23&#45;&gt;Node25 -->
<g id="edge40_Node000023_Node000025" class="edge">
<title>Node23&#45;&gt;Node25</title>
<g id="a_edge40_Node000023_Node000025"><a xlink:title=" ">
<path fill="none" stroke="#63b8ff" d="M946.92,-54.98C967.05,-46.38 998.38,-32.99 1021.41,-23.15"/>
<polygon fill="#63b8ff" stroke="#63b8ff" points="1022.9,-26.32 1030.71,-19.17 1020.14,-19.88 1022.9,-26.32"/>
</a>
</g>
</g>
<!-- Node26 -->
<g id="Node000026" class="node">
<title>Node26</title>
<g id="a_Node000026"><a xlink:title=" ">
<polygon fill="#e0e0e0" stroke="#999999" points="1144,-19 1096,-19 1096,0 1144,0 1144,-19"/>
<text text-anchor="middle" x="1120" y="-7" font-family="Helvetica,sans-Serif" font-size="10.00">mutex</text>
</a>
</g>
</g>
<!-- Node23&#45;&gt;Node26 -->
<g id="edge44_Node000023_Node000026" class="edge">
<title>Node23&#45;&gt;Node26</title>
<g id="a_edge44_Node000023_Node000026"><a xlink:title=" ">
<path fill="none" stroke="#63b8ff" d="M958.01,-54.98C992.92,-45.4 1049.49,-29.86 1085.7,-19.92"/>
<polygon fill="#63b8ff" stroke="#63b8ff" points="1087.07,-23.17 1095.79,-17.15 1085.22,-16.42 1087.07,-23.17"/>
</a>
</g>
</g>
</g>
</svg>
