<?xml version="1.0" encoding="UTF-8" standalone="no"?>
<!DOCTYPE svg PUBLIC "-//W3C//DTD SVG 1.1//EN"
 "http://www.w3.org/Graphics/SVG/1.1/DTD/svg11.dtd">
<!-- Generated by graphviz version 2.43.0 (0)
 -->
<!-- Title: src/lib/patchGeneration/normalOrientation.cpp Pages: 1 -->
<!--zoomable 203 -->

<svg id="main" version="1.1" xmlns="http://www.w3.org/2000/svg" xmlns:xlink="http://www.w3.org/1999/xlink" xml:space="preserve" onload="init(evt)">
<style type="text/css"><![CDATA[
.node, .edge {opacity: 0.7;}
.node.selected, .edge.selected {opacity: 1;}
.edge:hover path { stroke: red; }
.edge:hover polygon { stroke: red; fill: red; }
]]></style>

<defs>
  <circle id="rim" cx="0" cy="0" r="7"/>
  <circle id="rim2" cx="0" cy="0" r="3.5"/>
  <g id="zoomPlus">
    <use xlink:href="#rim" fill="#404040"><set attributeName="fill" to="#808080" begin="zoomplus.mouseover" end="zoomplus.mouseout"/></use>
    <path d="M-4,0h8M0,-4v8" fill="none" stroke="white" stroke-width="1.5" pointer-events="none"/>
  </g>
  <g id="zoomMin">
    <use xlink:href="#rim" fill="#404040"><set attributeName="fill" to="#808080" begin="zoomminus.mouseover" end="zoomminus.mouseout"/></use>
    <path d="M-4,0h8" fill="none" stroke="white" stroke-width="1.5" pointer-events="none"/>
  </g>
  <g id="arrowUp" transform="translate(30 24)">
    <use xlink:href="#rim"/>
    <path pointer-events="none" fill="none" stroke="white" stroke-width="1.5" d="M0,-3.0v7 M-2.5,-0.5L0,-3.0L2.5,-0.5"/>
  </g>
  <g id="arrowRight" transform="rotate(90) translate(36 -43)">
    <use xlink:href="#rim"/>
    <path pointer-events="none" fill="none" stroke="white" stroke-width="1.5" d="M0,-3.0v7 M-2.5,-0.5L0,-3.0L2.5,-0.5"/>
  </g>
  <g id="arrowDown" transform="rotate(180) translate(-30 -48)">
    <use xlink:href="#rim"/>
    <path pointer-events="none" fill="none" stroke="white" stroke-width="1.5" d="M0,-3.0v7 M-2.5,-0.5L0,-3.0L2.5,-0.5"/>
  </g>
  <g id="arrowLeft" transform="rotate(270) translate(-36 17)">
    <use xlink:href="#rim"/>
    <path pointer-events="none" fill="none" stroke="white" stroke-width="1.5" d="M0,-3.0v7 M-2.5,-0.5L0,-3.0L2.5,-0.5"/>
  </g>
  <g id="resetDef">
    <use xlink:href="#rim2" fill="#404040"><set attributeName="fill" to="#808080" begin="reset.mouseover" end="reset.mouseout"/></use>
  </g>
</defs>
<script type="application/ecmascript">
var viewWidth = 1690;
var viewHeight = 203;
var sectionId = 'dynsection-0';
</script>
<script type="application/ecmascript" xlink:href="svg.min.js"/>
<svg id="graph" class="graph">
<g id="viewport">
<title>src/lib/patchGeneration/normalOrientation.cpp</title>
<!-- Node1 -->
<g id="Node000001" class="node">
<title>Node1</title>
<g id="a_Node000001"><a xlink:title=" ">
<polygon fill="#999999" stroke="#666666" points="565.5,-195 435.5,-195 435.5,-165 565.5,-165 565.5,-195"/>
<text text-anchor="start" x="443.5" y="-183" font-family="Helvetica,sans-Serif" font-size="10.00">src/lib/patchGeneration</text>
<text text-anchor="middle" x="500.5" y="-172" font-family="Helvetica,sans-Serif" font-size="10.00">/normalOrientation.cpp</text>
</a>
</g>
</g>
<!-- Node2 -->
<g id="Node000002" class="node">
<title>Node2</title>
<g id="a_Node000002"><a xlink:href="normalOrientation_8hpp.html" target="_top" xlink:title=" ">
<polygon fill="white" stroke="#666666" points="289,-129 162,-129 162,-110 289,-110 289,-129"/>
<text text-anchor="middle" x="225.5" y="-117" font-family="Helvetica,sans-Serif" font-size="10.00">normalOrientation.hpp</text>
</a>
</g>
</g>
<!-- Node1&#45;&gt;Node2 -->
<g id="edge1_Node000001_Node000002" class="edge">
<title>Node1&#45;&gt;Node2</title>
<g id="a_edge1_Node000001_Node000002"><a xlink:title=" ">
<path fill="none" stroke="#63b8ff" d="M435.33,-165.14C386.3,-154.71 320.13,-140.63 275.3,-131.09"/>
<polygon fill="#63b8ff" stroke="#63b8ff" points="276.02,-127.67 265.51,-129.01 274.57,-134.52 276.02,-127.67"/>
</a>
</g>
</g>
<!-- Node3 -->
<g id="Node000003" class="node">
<title>Node3</title>
<g id="a_Node000003"><a xlink:href="uvgvpcc_8hpp.html" target="_top" xlink:title=" ">
<polygon fill="white" stroke="#666666" points="371.5,-74 249.5,-74 249.5,-55 371.5,-55 371.5,-74"/>
<text text-anchor="middle" x="310.5" y="-62" font-family="Helvetica,sans-Serif" font-size="10.00">uvgvpcc/uvgvpcc.hpp</text>
</a>
</g>
</g>
<!-- Node1&#45;&gt;Node3 -->
<g id="edge60_Node000001_Node000003" class="edge">
<title>Node1&#45;&gt;Node3</title>
<g id="a_edge60_Node000001_Node000003"><a xlink:title=" ">
<path fill="none" stroke="#63b8ff" d="M435.21,-172.43C402.16,-166.07 363.45,-153.56 336.5,-129 323.72,-117.35 317.07,-98.49 313.71,-84.34"/>
<polygon fill="#63b8ff" stroke="#63b8ff" points="317.08,-83.35 311.67,-74.24 310.22,-84.74 317.08,-83.35"/>
</a>
</g>
</g>
<!-- Node4 -->
<g id="Node000004" class="node">
<title>Node4</title>
<g id="a_Node000004"><a xlink:title=" ">
<polygon fill="#e0e0e0" stroke="#999999" points="53,-19 0,-19 0,0 53,0 53,-19"/>
<text text-anchor="middle" x="26.5" y="-7" font-family="Helvetica,sans-Serif" font-size="10.00">cstddef</text>
</a>
</g>
</g>
<!-- Node1&#45;&gt;Node4 -->
<g id="edge15_Node000001_Node000004" class="edge">
<title>Node1&#45;&gt;Node4</title>
<g id="a_edge15_Node000001_Node000004"><a xlink:title=" ">
<path fill="none" stroke="#63b8ff" d="M435.24,-176.03C342.09,-170.85 176.48,-157.81 124.5,-129 81.85,-105.36 50.17,-55.13 35.52,-28.28"/>
<polygon fill="#63b8ff" stroke="#63b8ff" points="38.51,-26.46 30.75,-19.24 32.32,-29.72 38.51,-26.46"/>
</a>
</g>
</g>
<!-- Node7 -->
<g id="Node000007" class="node">
<title>Node7</title>
<g id="a_Node000007"><a xlink:title=" ">
<polygon fill="#e0e0e0" stroke="#999999" points="394.5,-19 336.5,-19 336.5,0 394.5,0 394.5,-19"/>
<text text-anchor="middle" x="365.5" y="-7" font-family="Helvetica,sans-Serif" font-size="10.00">memory</text>
</a>
</g>
</g>
<!-- Node1&#45;&gt;Node7 -->
<g id="edge16_Node000001_Node000007" class="edge">
<title>Node1&#45;&gt;Node7</title>
<g id="a_edge16_Node000001_Node000007"><a xlink:title=" ">
<path fill="none" stroke="#63b8ff" d="M435.46,-179.36C345.03,-178.32 188.38,-170.4 152.5,-129 146.97,-122.62 148.41,-117.39 152.5,-110 170.61,-77.33 271.68,-40.52 327.85,-22.19"/>
<polygon fill="#63b8ff" stroke="#63b8ff" points="329.01,-25.49 337.45,-19.09 326.86,-18.83 329.01,-25.49"/>
</a>
</g>
</g>
<!-- Node8 -->
<g id="Node000008" class="node">
<title>Node8</title>
<g id="a_Node000008"><a xlink:title=" ">
<polygon fill="#e0e0e0" stroke="#999999" points="118,-19 71,-19 71,0 118,0 118,-19"/>
<text text-anchor="middle" x="94.5" y="-7" font-family="Helvetica,sans-Serif" font-size="10.00">queue</text>
</a>
</g>
</g>
<!-- Node1&#45;&gt;Node8 -->
<g id="edge17_Node000001_Node000008" class="edge">
<title>Node1&#45;&gt;Node8</title>
<g id="a_edge17_Node000001_Node000008"><a xlink:title=" ">
<path fill="none" stroke="#63b8ff" d="M435.49,-177.33C345.7,-173.78 189.77,-162.81 145.5,-129 113.41,-104.5 101.23,-55.75 96.83,-29.05"/>
<polygon fill="#63b8ff" stroke="#63b8ff" points="100.28,-28.48 95.38,-19.09 93.35,-29.49 100.28,-28.48"/>
</a>
</g>
</g>
<!-- Node11 -->
<g id="Node000011" class="node">
<title>Node11</title>
<g id="a_Node000011"><a xlink:title=" ">
<polygon fill="#e0e0e0" stroke="#999999" points="870.5,-19 826.5,-19 826.5,0 870.5,0 870.5,-19"/>
<text text-anchor="middle" x="848.5" y="-7" font-family="Helvetica,sans-Serif" font-size="10.00">string</text>
</a>
</g>
</g>
<!-- Node1&#45;&gt;Node11 -->
<g id="edge18_Node000001_Node000011" class="edge">
<title>Node1&#45;&gt;Node11</title>
<g id="a_edge18_Node000001_Node000011"><a xlink:title=" ">
<path fill="none" stroke="#63b8ff" d="M565.67,-175.46C672.9,-168.96 876.87,-153.51 898.5,-129 925.44,-98.46 888.62,-51.29 865.21,-26.69"/>
<polygon fill="#63b8ff" stroke="#63b8ff" points="867.41,-23.93 857.9,-19.26 862.42,-28.84 867.41,-23.93"/>
</a>
</g>
</g>
<!-- Node12 -->
<g id="Node000012" class="node">
<title>Node12</title>
<g id="a_Node000012"><a xlink:title=" ">
<polygon fill="#e0e0e0" stroke="#999999" points="460,-19 413,-19 413,0 460,0 460,-19"/>
<text text-anchor="middle" x="436.5" y="-7" font-family="Helvetica,sans-Serif" font-size="10.00">vector</text>
</a>
</g>
</g>
<!-- Node1&#45;&gt;Node12 -->
<g id="edge19_Node000001_Node000012" class="edge">
<title>Node1&#45;&gt;Node12</title>
<g id="a_edge19_Node000001_Node000012"><a xlink:title=" ">
<path fill="none" stroke="#63b8ff" d="M495.15,-164.92C483.61,-134.52 456.34,-62.73 443.46,-28.83"/>
<polygon fill="#63b8ff" stroke="#63b8ff" points="446.65,-27.36 439.83,-19.25 440.1,-29.85 446.65,-27.36"/>
</a>
</g>
</g>
<!-- Node14 -->
<g id="Node000014" class="node">
<title>Node14</title>
<g id="a_Node000014"><a xlink:title=" ">
<polygon fill="#e0e0e0" stroke="#999999" points="1543.5,-19 1479.5,-19 1479.5,0 1543.5,0 1543.5,-19"/>
<text text-anchor="middle" x="1511.5" y="-7" font-family="Helvetica,sans-Serif" font-size="10.00">algorithm</text>
</a>
</g>
</g>
<!-- Node1&#45;&gt;Node14 -->
<g id="edge13_Node000001_Node000014" class="edge">
<title>Node1&#45;&gt;Node14</title>
<g id="a_edge13_Node000001_Node000014"><a xlink:title=" ">
<path fill="none" stroke="#63b8ff" d="M565.78,-174.64C658.59,-167.88 833.8,-153.1 981.5,-129 1165.18,-99.02 1380.71,-44.82 1469.77,-21.58"/>
<polygon fill="#63b8ff" stroke="#63b8ff" points="1470.7,-24.95 1479.49,-19.03 1468.93,-18.18 1470.7,-24.95"/>
</a>
</g>
</g>
<!-- Node15 -->
<g id="Node000015" class="node">
<title>Node15</title>
<g id="a_Node000015"><a xlink:title=" ">
<polygon fill="#e0e0e0" stroke="#999999" points="595,-129 548,-129 548,-110 595,-110 595,-129"/>
<text text-anchor="middle" x="571.5" y="-117" font-family="Helvetica,sans-Serif" font-size="10.00">cmath</text>
</a>
</g>
</g>
<!-- Node1&#45;&gt;Node15 -->
<g id="edge14_Node000001_Node000015" class="edge">
<title>Node1&#45;&gt;Node15</title>
<g id="a_edge14_Node000001_Node000015"><a xlink:title=" ">
<path fill="none" stroke="#63b8ff" d="M517.69,-164.84C528.31,-156.09 541.94,-144.85 552.83,-135.88"/>
<polygon fill="#63b8ff" stroke="#63b8ff" points="555.37,-138.33 560.86,-129.27 550.92,-132.92 555.37,-138.33"/>
</a>
</g>
</g>
<!-- Node16 -->
<g id="Node000016" class="node">
<title>Node16</title>
<g id="a_Node000016"><a xlink:href="fileExport_8hpp.html" target="_top" xlink:title=" ">
<polygon fill="white" stroke="#666666" points="453.5,-129 345.5,-129 345.5,-110 453.5,-110 453.5,-129"/>
<text text-anchor="middle" x="399.5" y="-117" font-family="Helvetica,sans-Serif" font-size="10.00">utils/fileExport.hpp</text>
</a>
</g>
</g>
<!-- Node1&#45;&gt;Node16 -->
<g id="edge20_Node000001_Node000016" class="edge">
<title>Node1&#45;&gt;Node16</title>
<g id="a_edge20_Node000001_Node000016"><a xlink:title=" ">
<path fill="none" stroke="#63b8ff" d="M476.31,-164.99C460.21,-155.66 439.16,-143.47 423.17,-134.21"/>
<polygon fill="#63b8ff" stroke="#63b8ff" points="424.82,-131.12 414.42,-129.14 421.31,-137.18 424.82,-131.12"/>
</a>
</g>
</g>
<!-- Node17 -->
<g id="Node000017" class="node">
<title>Node17</title>
<g id="a_Node000017"><a xlink:href="utils_8hpp.html" target="_top" xlink:title=" ">
<polygon fill="white" stroke="#666666" points="676,-74 593,-74 593,-55 676,-55 676,-74"/>
<text text-anchor="middle" x="634.5" y="-62" font-family="Helvetica,sans-Serif" font-size="10.00">utils/utils.hpp</text>
</a>
</g>
</g>
<!-- Node1&#45;&gt;Node17 -->
<g id="edge35_Node000001_Node000017" class="edge">
<title>Node1&#45;&gt;Node17</title>
<g id="a_edge35_Node000001_Node000017"><a xlink:title=" ">
<path fill="none" stroke="#63b8ff" d="M505.47,-164.89C511.46,-149.63 522.84,-125.43 539.5,-110 555.24,-95.42 576.62,-84.83 595.11,-77.65"/>
<polygon fill="#63b8ff" stroke="#63b8ff" points="596.57,-80.84 604.75,-74.11 594.15,-74.27 596.57,-80.84"/>
</a>
</g>
</g>
<!-- Node21 -->
<g id="Node000021" class="node">
<title>Node21</title>
<g id="a_Node000021"><a xlink:href="parameters_8hpp.html" target="_top" xlink:title=" ">
<polygon fill="white" stroke="#666666" points="731.5,-129 613.5,-129 613.5,-110 731.5,-110 731.5,-129"/>
<text text-anchor="middle" x="672.5" y="-117" font-family="Helvetica,sans-Serif" font-size="10.00">utils/parameters.hpp</text>
</a>
</g>
</g>
<!-- Node1&#45;&gt;Node21 -->
<g id="edge30_Node000001_Node000021" class="edge">
<title>Node1&#45;&gt;Node21</title>
<g id="a_edge30_Node000001_Node000021"><a xlink:title=" ">
<path fill="none" stroke="#63b8ff" d="M541.7,-164.99C571,-155.02 609.92,-141.78 637.67,-132.35"/>
<polygon fill="#63b8ff" stroke="#63b8ff" points="639.01,-135.59 647.35,-129.05 636.76,-128.96 639.01,-135.59"/>
</a>
</g>
</g>
<!-- Node23 -->
<g id="Node000023" class="node">
<title>Node23</title>
<g id="a_Node000023"><a xlink:href="utilsPatchGeneration_8hpp.html" target="_top" xlink:title=" ">
<polygon fill="white" stroke="#666666" points="889,-129 750,-129 750,-110 889,-110 889,-129"/>
<text text-anchor="middle" x="819.5" y="-117" font-family="Helvetica,sans-Serif" font-size="10.00">utilsPatchGeneration.hpp</text>
</a>
</g>
</g>
<!-- Node1&#45;&gt;Node23 -->
<g id="edge36_Node000001_Node000023" class="edge">
<title>Node1&#45;&gt;Node23</title>
<g id="a_edge36_Node000001_Node000023"><a xlink:title=" ">
<path fill="none" stroke="#63b8ff" d="M565.82,-167.02C623.83,-156.38 707.71,-141 762.91,-130.88"/>
<polygon fill="#63b8ff" stroke="#63b8ff" points="763.66,-134.3 772.87,-129.05 762.4,-127.41 763.66,-134.3"/>
</a>
</g>
</g>
<!-- Node24 -->
<g id="Node000024" class="node">
<title>Node24</title>
<g id="a_Node000024"><a xlink:href="log_8hpp.html" target="_top" xlink:title=" ">
<polygon fill="white" stroke="#666666" points="1200.5,-74 1104.5,-74 1104.5,-55 1200.5,-55 1200.5,-74"/>
<text text-anchor="middle" x="1152.5" y="-62" font-family="Helvetica,sans-Serif" font-size="10.00">uvgvpcc/log.hpp</text>
</a>
</g>
</g>
<!-- Node1&#45;&gt;Node24 -->
<g id="edge59_Node000001_Node000024" class="edge">
<title>Node1&#45;&gt;Node24</title>
<g id="a_edge59_Node000001_Node000024"><a xlink:title=" ">
<path fill="none" stroke="#63b8ff" d="M565.64,-174.79C650.5,-168.55 803.17,-154.7 931.5,-129 998.54,-115.57 1074.8,-91.69 1117.93,-77.35"/>
<polygon fill="#63b8ff" stroke="#63b8ff" points="1119.27,-80.59 1127.64,-74.1 1117.05,-73.96 1119.27,-80.59"/>
</a>
</g>
</g>
<!-- Node2&#45;&gt;Node3 -->
<g id="edge2_Node000002_Node000003" class="edge">
<title>Node2&#45;&gt;Node3</title>
<g id="a_edge2_Node000002_Node000003"><a xlink:title=" ">
<path fill="none" stroke="#63b8ff" d="M239.16,-109.98C252.34,-101.77 272.53,-89.18 288.07,-79.49"/>
<polygon fill="#63b8ff" stroke="#63b8ff" points="289.96,-82.43 296.59,-74.17 286.26,-76.49 289.96,-82.43"/>
</a>
</g>
</g>
<!-- Node3&#45;&gt;Node4 -->
<g id="edge3_Node000003_Node000004" class="edge">
<title>Node3&#45;&gt;Node4</title>
<g id="a_edge3_Node000003_Node000004"><a xlink:title=" ">
<path fill="none" stroke="#63b8ff" d="M257.37,-54.98C209.1,-47.01 135.71,-34.36 63.41,-19.31"/>
<polygon fill="#63b8ff" stroke="#63b8ff" points="63.72,-15.8 53.21,-17.17 62.28,-22.65 63.72,-15.8"/>
</a>
</g>
</g>
<!-- Node5 -->
<g id="Node000005" class="node">
<title>Node5</title>
<g id="a_Node000005"><a xlink:title=" ">
<polygon fill="#e0e0e0" stroke="#999999" points="602.5,-19 552.5,-19 552.5,0 602.5,0 602.5,-19"/>
<text text-anchor="middle" x="577.5" y="-7" font-family="Helvetica,sans-Serif" font-size="10.00">cstdint</text>
</a>
</g>
</g>
<!-- Node3&#45;&gt;Node5 -->
<g id="edge4_Node000003_Node000005" class="edge">
<title>Node3&#45;&gt;Node5</title>
<g id="a_edge4_Node000003_Node000005"><a xlink:title=" ">
<path fill="none" stroke="#63b8ff" d="M359.76,-54.92C404.81,-46.89 473.54,-34.17 542.16,-19.2"/>
<polygon fill="#63b8ff" stroke="#63b8ff" points="543.27,-22.54 552.29,-16.97 541.77,-15.7 543.27,-22.54"/>
</a>
</g>
</g>
<!-- Node6 -->
<g id="Node000006" class="node">
<title>Node6</title>
<g id="a_Node000006"><a xlink:title=" ">
<polygon fill="#e0e0e0" stroke="#999999" points="1036.5,-19 976.5,-19 976.5,0 1036.5,0 1036.5,-19"/>
<text text-anchor="middle" x="1006.5" y="-7" font-family="Helvetica,sans-Serif" font-size="10.00">iostream</text>
</a>
</g>
</g>
<!-- Node3&#45;&gt;Node6 -->
<g id="edge5_Node000003_Node000006" class="edge">
<title>Node3&#45;&gt;Node6</title>
<g id="a_edge5_Node000003_Node000006"><a xlink:title=" ">
<path fill="none" stroke="#63b8ff" d="M371.95,-62.35C486.89,-59.53 742.27,-50.19 966.37,-18.94"/>
<polygon fill="#63b8ff" stroke="#63b8ff" points="966.93,-22.39 976.35,-17.53 965.95,-15.46 966.93,-22.39"/>
</a>
</g>
</g>
<!-- Node3&#45;&gt;Node7 -->
<g id="edge6_Node000003_Node000007" class="edge">
<title>Node3&#45;&gt;Node7</title>
<g id="a_edge6_Node000003_Node000007"><a xlink:title=" ">
<path fill="none" stroke="#63b8ff" d="M319.58,-54.75C327.59,-47.03 339.46,-35.6 349.12,-26.28"/>
<polygon fill="#63b8ff" stroke="#63b8ff" points="351.81,-28.55 356.59,-19.09 346.96,-23.51 351.81,-28.55"/>
</a>
</g>
</g>
<!-- Node3&#45;&gt;Node8 -->
<g id="edge7_Node000003_Node000008" class="edge">
<title>Node3&#45;&gt;Node8</title>
<g id="a_edge7_Node000003_Node000008"><a xlink:title=" ">
<path fill="none" stroke="#63b8ff" d="M274.7,-54.95C239.8,-46.57 184.98,-33.33 128.16,-19.14"/>
<polygon fill="#63b8ff" stroke="#63b8ff" points="128.83,-15.7 118.28,-16.67 127.13,-22.49 128.83,-15.7"/>
</a>
</g>
</g>
<!-- Node9 -->
<g id="Node000009" class="node">
<title>Node9</title>
<g id="a_Node000009"><a xlink:title=" ">
<polygon fill="#e0e0e0" stroke="#999999" points="318,-19 247,-19 247,0 318,0 318,-19"/>
<text text-anchor="middle" x="282.5" y="-7" font-family="Helvetica,sans-Serif" font-size="10.00">semaphore</text>
</a>
</g>
</g>
<!-- Node3&#45;&gt;Node9 -->
<g id="edge8_Node000003_Node000009" class="edge">
<title>Node3&#45;&gt;Node9</title>
<g id="a_edge8_Node000003_Node000009"><a xlink:title=" ">
<path fill="none" stroke="#63b8ff" d="M305.88,-54.75C302.04,-47.49 296.48,-36.95 291.74,-27.98"/>
<polygon fill="#63b8ff" stroke="#63b8ff" points="294.8,-26.3 287.04,-19.09 288.61,-29.57 294.8,-26.3"/>
</a>
</g>
</g>
<!-- Node10 -->
<g id="Node000010" class="node">
<title>Node10</title>
<g id="a_Node000010"><a xlink:title=" ">
<polygon fill="#e0e0e0" stroke="#999999" points="534.5,-19 478.5,-19 478.5,0 534.5,0 534.5,-19"/>
<text text-anchor="middle" x="506.5" y="-7" font-family="Helvetica,sans-Serif" font-size="10.00">sstream</text>
</a>
</g>
</g>
<!-- Node3&#45;&gt;Node10 -->
<g id="edge9_Node000003_Node000010" class="edge">
<title>Node3&#45;&gt;Node10</title>
<g id="a_edge9_Node000003_Node000010"><a xlink:title=" ">
<path fill="none" stroke="#63b8ff" d="M341.99,-54.98C376.41,-45.68 431.56,-30.76 468.4,-20.8"/>
<polygon fill="#63b8ff" stroke="#63b8ff" points="469.53,-24.12 478.27,-18.13 467.7,-17.37 469.53,-24.12"/>
</a>
</g>
</g>
<!-- Node3&#45;&gt;Node11 -->
<g id="edge10_Node000003_Node000011" class="edge">
<title>Node3&#45;&gt;Node11</title>
<g id="a_edge10_Node000003_Node000011"><a xlink:title=" ">
<path fill="none" stroke="#63b8ff" d="M371.84,-61.68C465.78,-58.1 650.93,-47.97 816.39,-18.88"/>
<polygon fill="#63b8ff" stroke="#63b8ff" points="817.03,-22.32 826.26,-17.11 815.8,-15.43 817.03,-22.32"/>
</a>
</g>
</g>
<!-- Node3&#45;&gt;Node12 -->
<g id="edge11_Node000003_Node000012" class="edge">
<title>Node3&#45;&gt;Node12</title>
<g id="a_edge11_Node000003_Node000012"><a xlink:title=" ">
<path fill="none" stroke="#63b8ff" d="M330.74,-54.98C351.2,-46.38 383.03,-32.99 406.43,-23.15"/>
<polygon fill="#63b8ff" stroke="#63b8ff" points="408.03,-26.27 415.89,-19.17 405.31,-19.82 408.03,-26.27"/>
</a>
</g>
</g>
<!-- Node13 -->
<g id="Node000013" class="node">
<title>Node13</title>
<g id="a_Node000013"><a xlink:title=" ">
<polygon fill="#e0e0e0" stroke="#999999" points="228.5,-19 136.5,-19 136.5,0 228.5,0 228.5,-19"/>
<text text-anchor="middle" x="182.5" y="-7" font-family="Helvetica,sans-Serif" font-size="10.00">../utils/utils.hpp</text>
</a>
</g>
</g>
<!-- Node3&#45;&gt;Node13 -->
<g id="edge12_Node000003_Node000013" class="edge">
<title>Node3&#45;&gt;Node13</title>
<g id="a_edge12_Node000003_Node000013"><a xlink:title=" ">
<path fill="none" stroke="#63b8ff" d="M289.93,-54.98C269.07,-46.34 236.53,-32.87 212.73,-23.02"/>
<polygon fill="#63b8ff" stroke="#63b8ff" points="214.02,-19.76 203.44,-19.17 211.34,-26.23 214.02,-19.76"/>
</a>
</g>
</g>
<!-- Node16&#45;&gt;Node3 -->
<g id="edge23_Node000016_Node000003" class="edge">
<title>Node16&#45;&gt;Node3</title>
<g id="a_edge23_Node000016_Node000003"><a xlink:title=" ">
<path fill="none" stroke="#63b8ff" d="M385.2,-109.98C371.4,-101.77 350.26,-89.18 333.99,-79.49"/>
<polygon fill="#63b8ff" stroke="#63b8ff" points="335.44,-76.28 325.06,-74.17 331.86,-82.29 335.44,-76.28"/>
</a>
</g>
</g>
<!-- Node16&#45;&gt;Node7 -->
<g id="edge21_Node000016_Node000007" class="edge">
<title>Node16&#45;&gt;Node7</title>
<g id="a_edge21_Node000016_Node000007"><a xlink:title=" ">
<path fill="none" stroke="#63b8ff" d="M397.01,-109.84C393.47,-97.59 386.71,-74.52 380.5,-55 377.72,-46.25 374.48,-36.58 371.72,-28.5"/>
<polygon fill="#63b8ff" stroke="#63b8ff" points="375.02,-27.32 368.46,-19 368.4,-29.6 375.02,-27.32"/>
</a>
</g>
</g>
<!-- Node16&#45;&gt;Node12 -->
<g id="edge22_Node000016_Node000012" class="edge">
<title>Node16&#45;&gt;Node12</title>
<g id="a_edge22_Node000016_Node000012"><a xlink:title=" ">
<path fill="none" stroke="#63b8ff" d="M402.53,-109.66C408.57,-92.01 422.25,-52.09 430.29,-28.64"/>
<polygon fill="#63b8ff" stroke="#63b8ff" points="433.6,-29.75 433.53,-19.16 426.98,-27.48 433.6,-29.75"/>
</a>
</g>
</g>
<!-- Node16&#45;&gt;Node17 -->
<g id="edge24_Node000016_Node000017" class="edge">
<title>Node16&#45;&gt;Node17</title>
<g id="a_edge24_Node000016_Node000017"><a xlink:title=" ">
<path fill="none" stroke="#63b8ff" d="M437.26,-109.98C477.82,-100.84 542.39,-86.27 586.53,-76.32"/>
<polygon fill="#63b8ff" stroke="#63b8ff" points="587.46,-79.7 596.45,-74.08 585.92,-72.87 587.46,-79.7"/>
</a>
</g>
</g>
<!-- Node17&#45;&gt;Node5 -->
<g id="edge26_Node000017_Node000005" class="edge">
<title>Node17&#45;&gt;Node5</title>
<g id="a_edge26_Node000017_Node000005"><a xlink:title=" ">
<path fill="none" stroke="#63b8ff" d="M625.34,-54.98C617,-47.23 604.47,-35.58 594.32,-26.14"/>
<polygon fill="#63b8ff" stroke="#63b8ff" points="596.53,-23.42 586.82,-19.17 591.76,-28.54 596.53,-23.42"/>
</a>
</g>
</g>
<!-- Node17&#45;&gt;Node10 -->
<g id="edge28_Node000017_Node000010" class="edge">
<title>Node17&#45;&gt;Node10</title>
<g id="a_edge28_Node000017_Node000010"><a xlink:title=" ">
<path fill="none" stroke="#63b8ff" d="M613.93,-54.98C593.07,-46.34 560.53,-32.87 536.73,-23.02"/>
<polygon fill="#63b8ff" stroke="#63b8ff" points="538.02,-19.76 527.44,-19.17 535.34,-26.23 538.02,-19.76"/>
</a>
</g>
</g>
<!-- Node18 -->
<g id="Node000018" class="node">
<title>Node18</title>
<g id="a_Node000018"><a xlink:title=" ">
<polygon fill="#e0e0e0" stroke="#999999" points="662.5,-19 620.5,-19 620.5,0 662.5,0 662.5,-19"/>
<text text-anchor="middle" x="641.5" y="-7" font-family="Helvetica,sans-Serif" font-size="10.00">array</text>
</a>
</g>
</g>
<!-- Node17&#45;&gt;Node18 -->
<g id="edge25_Node000017_Node000018" class="edge">
<title>Node17&#45;&gt;Node18</title>
<g id="a_edge25_Node000017_Node000018"><a xlink:title=" ">
<path fill="none" stroke="#63b8ff" d="M635.66,-54.75C636.57,-47.8 637.89,-37.85 639.04,-29.13"/>
<polygon fill="#63b8ff" stroke="#63b8ff" points="642.53,-29.46 640.37,-19.09 635.59,-28.54 642.53,-29.46"/>
</a>
</g>
</g>
<!-- Node19 -->
<g id="Node000019" class="node">
<title>Node19</title>
<g id="a_Node000019"><a xlink:title=" ">
<polygon fill="#e0e0e0" stroke="#999999" points="724.5,-19 680.5,-19 680.5,0 724.5,0 724.5,-19"/>
<text text-anchor="middle" x="702.5" y="-7" font-family="Helvetica,sans-Serif" font-size="10.00">limits</text>
</a>
</g>
</g>
<!-- Node17&#45;&gt;Node19 -->
<g id="edge27_Node000017_Node000019" class="edge">
<title>Node17&#45;&gt;Node19</title>
<g id="a_edge27_Node000017_Node000019"><a xlink:title=" ">
<path fill="none" stroke="#63b8ff" d="M645.43,-54.98C655.58,-47.07 670.92,-35.11 683.15,-25.58"/>
<polygon fill="#63b8ff" stroke="#63b8ff" points="685.64,-28.08 691.38,-19.17 681.34,-22.56 685.64,-28.08"/>
</a>
</g>
</g>
<!-- Node20 -->
<g id="Node000020" class="node">
<title>Node20</title>
<g id="a_Node000020"><a xlink:title=" ">
<polygon fill="#e0e0e0" stroke="#999999" points="1241.5,-19 1185.5,-19 1185.5,0 1241.5,0 1241.5,-19"/>
<text text-anchor="middle" x="1213.5" y="-7" font-family="Helvetica,sans-Serif" font-size="10.00">iomanip</text>
</a>
</g>
</g>
<!-- Node17&#45;&gt;Node20 -->
<g id="edge29_Node000017_Node000020" class="edge">
<title>Node17&#45;&gt;Node20</title>
<g id="a_edge29_Node000017_Node000020"><a xlink:title=" ">
<path fill="none" stroke="#63b8ff" d="M676.25,-60.85C782.55,-53.99 1062.41,-35.15 1175.23,-18.93"/>
<polygon fill="#63b8ff" stroke="#63b8ff" points="1175.93,-22.36 1185.3,-17.42 1174.89,-15.44 1175.93,-22.36"/>
</a>
</g>
</g>
<!-- Node21&#45;&gt;Node11 -->
<g id="edge32_Node000021_Node000011" class="edge">
<title>Node21&#45;&gt;Node11</title>
<g id="a_edge32_Node000021_Node000011"><a xlink:title=" ">
<path fill="none" stroke="#63b8ff" d="M686.61,-109.84C716.99,-91.2 788.83,-47.11 825.74,-24.46"/>
<polygon fill="#63b8ff" stroke="#63b8ff" points="827.63,-27.41 834.33,-19.2 823.97,-21.44 827.63,-27.41"/>
</a>
</g>
</g>
<!-- Node21&#45;&gt;Node12 -->
<g id="edge33_Node000021_Node000012" class="edge">
<title>Node21&#45;&gt;Node12</title>
<g id="a_edge33_Node000021_Node000012"><a xlink:title=" ">
<path fill="none" stroke="#63b8ff" d="M644.38,-109.93C618.88,-101.81 580.51,-88.69 548.5,-74 516.15,-59.16 480.7,-38.21 458.54,-24.49"/>
<polygon fill="#63b8ff" stroke="#63b8ff" points="460.23,-21.43 449.9,-19.1 456.52,-27.36 460.23,-21.43"/>
</a>
</g>
</g>
<!-- Node21&#45;&gt;Node17 -->
<g id="edge34_Node000021_Node000017" class="edge">
<title>Node21&#45;&gt;Node17</title>
<g id="a_edge34_Node000021_Node000017"><a xlink:title=" ">
<path fill="none" stroke="#63b8ff" d="M666.23,-109.75C660.91,-102.34 653.14,-91.5 646.62,-82.41"/>
<polygon fill="#63b8ff" stroke="#63b8ff" points="649.33,-80.18 640.66,-74.09 643.64,-84.26 649.33,-80.18"/>
</a>
</g>
</g>
<!-- Node22 -->
<g id="Node000022" class="node">
<title>Node22</title>
<g id="a_Node000022"><a xlink:title=" ">
<polygon fill="#e0e0e0" stroke="#999999" points="808,-19 743,-19 743,0 808,0 808,-19"/>
<text text-anchor="middle" x="775.5" y="-7" font-family="Helvetica,sans-Serif" font-size="10.00">stdexcept</text>
</a>
</g>
</g>
<!-- Node21&#45;&gt;Node22 -->
<g id="edge31_Node000021_Node000022" class="edge">
<title>Node21&#45;&gt;Node22</title>
<g id="a_edge31_Node000021_Node000022"><a xlink:title=" ">
<path fill="none" stroke="#63b8ff" d="M680.93,-109.66C698.29,-91.46 738.26,-49.55 760.27,-26.47"/>
<polygon fill="#63b8ff" stroke="#63b8ff" points="762.87,-28.81 767.24,-19.16 757.81,-23.98 762.87,-28.81"/>
</a>
</g>
</g>
<!-- Node23&#45;&gt;Node5 -->
<g id="edge45_Node000023_Node000005" class="edge">
<title>Node23&#45;&gt;Node5</title>
<g id="a_edge45_Node000023_Node000005"><a xlink:title=" ">
<path fill="none" stroke="#63b8ff" d="M802.29,-109.99C776.91,-97.53 727.87,-73.75 685.5,-55 659.77,-43.61 630.21,-31.5 608.52,-22.79"/>
<polygon fill="#63b8ff" stroke="#63b8ff" points="609.74,-19.5 599.15,-19.04 607.14,-26 609.74,-19.5"/>
</a>
</g>
</g>
<!-- Node23&#45;&gt;Node12 -->
<g id="edge47_Node000023_Node000012" class="edge">
<title>Node23&#45;&gt;Node12</title>
<g id="a_edge47_Node000023_Node000012"><a xlink:title=" ">
<path fill="none" stroke="#63b8ff" d="M749.95,-110.1C702.55,-103.23 638.78,-91.71 584.5,-74 565.79,-67.9 562.49,-62.97 544.5,-55 518.78,-43.6 489.21,-31.49 467.52,-22.78"/>
<polygon fill="#63b8ff" stroke="#63b8ff" points="468.74,-19.5 458.16,-19.03 466.14,-26 468.74,-19.5"/>
</a>
</g>
</g>
<!-- Node23&#45;&gt;Node17 -->
<g id="edge37_Node000023_Node000017" class="edge">
<title>Node23&#45;&gt;Node17</title>
<g id="a_edge37_Node000023_Node000017"><a xlink:title=" ">
<path fill="none" stroke="#63b8ff" d="M789.78,-109.98C758.45,-101.01 708.93,-86.82 674.26,-76.89"/>
<polygon fill="#63b8ff" stroke="#63b8ff" points="675.03,-73.47 664.46,-74.08 673.11,-80.2 675.03,-73.47"/>
</a>
</g>
</g>
<!-- Node23&#45;&gt;Node24 -->
<g id="edge38_Node000023_Node000024" class="edge">
<title>Node23&#45;&gt;Node24</title>
<g id="a_edge38_Node000023_Node000024"><a xlink:title=" ">
<path fill="none" stroke="#63b8ff" d="M873,-109.98C933.52,-100.35 1031.75,-84.72 1094.19,-74.78"/>
<polygon fill="#63b8ff" stroke="#63b8ff" points="1094.94,-78.2 1104.27,-73.18 1093.84,-71.29 1094.94,-78.2"/>
</a>
</g>
</g>
<!-- Node28 -->
<g id="Node000028" class="node">
<title>Node28</title>
<g id="a_Node000028"><a xlink:title=" ">
<polygon fill="#e0e0e0" stroke="#999999" points="864,-74 809,-74 809,-55 864,-55 864,-74"/>
<text text-anchor="middle" x="836.5" y="-62" font-family="Helvetica,sans-Serif" font-size="10.00">fstream</text>
</a>
</g>
</g>
<!-- Node23&#45;&gt;Node28 -->
<g id="edge46_Node000023_Node000028" class="edge">
<title>Node23&#45;&gt;Node28</title>
<g id="a_edge46_Node000023_Node000028"><a xlink:title=" ">
<path fill="none" stroke="#63b8ff" d="M822.31,-109.75C824.56,-102.72 827.8,-92.62 830.62,-83.84"/>
<polygon fill="#63b8ff" stroke="#63b8ff" points="834.02,-84.68 833.75,-74.09 827.36,-82.54 834.02,-84.68"/>
</a>
</g>
</g>
<!-- Node29 -->
<g id="Node000029" class="node">
<title>Node29</title>
<g id="a_Node000029"><a xlink:href="robin__hood_8h.html" target="_top" xlink:title=" ">
<polygon fill="white" stroke="#666666" points="1025.5,-74 945.5,-74 945.5,-55 1025.5,-55 1025.5,-74"/>
<text text-anchor="middle" x="985.5" y="-62" font-family="Helvetica,sans-Serif" font-size="10.00">robin_hood.h</text>
</a>
</g>
</g>
<!-- Node23&#45;&gt;Node29 -->
<g id="edge48_Node000023_Node000029" class="edge">
<title>Node23&#45;&gt;Node29</title>
<g id="a_edge48_Node000023_Node000029"><a xlink:title=" ">
<path fill="none" stroke="#63b8ff" d="M846.17,-109.98C874.04,-101.09 917.95,-87.07 949.02,-77.15"/>
<polygon fill="#63b8ff" stroke="#63b8ff" points="950.16,-80.46 958.62,-74.08 948.03,-73.79 950.16,-80.46"/>
</a>
</g>
</g>
<!-- Node24&#45;&gt;Node6 -->
<g id="edge42_Node000024_Node000006" class="edge">
<title>Node24&#45;&gt;Node6</title>
<g id="a_edge42_Node000024_Node000006"><a xlink:title=" ">
<path fill="none" stroke="#63b8ff" d="M1129.04,-54.98C1104.92,-46.23 1067.13,-32.51 1039.9,-22.62"/>
<polygon fill="#63b8ff" stroke="#63b8ff" points="1040.98,-19.29 1030.38,-19.17 1038.59,-25.87 1040.98,-19.29"/>
</a>
</g>
</g>
<!-- Node24&#45;&gt;Node11 -->
<g id="edge43_Node000024_Node000011" class="edge">
<title>Node24&#45;&gt;Node11</title>
<g id="a_edge43_Node000024_Node000011"><a xlink:title=" ">
<path fill="none" stroke="#63b8ff" d="M1104.08,-57.03C1051.56,-49.69 965.07,-36.67 880.81,-18.86"/>
<polygon fill="#63b8ff" stroke="#63b8ff" points="881.32,-15.39 870.81,-16.72 879.86,-22.24 881.32,-15.39"/>
</a>
</g>
</g>
<!-- Node24&#45;&gt;Node20 -->
<g id="edge41_Node000024_Node000020" class="edge">
<title>Node24&#45;&gt;Node20</title>
<g id="a_edge41_Node000024_Node000020"><a xlink:title=" ">
<path fill="none" stroke="#63b8ff" d="M1162.3,-54.98C1171.32,-47.15 1184.91,-35.34 1195.82,-25.86"/>
<polygon fill="#63b8ff" stroke="#63b8ff" points="1198.27,-28.37 1203.52,-19.17 1193.68,-23.09 1198.27,-28.37"/>
</a>
</g>
</g>
<!-- Node25 -->
<g id="Node000025" class="node">
<title>Node25</title>
<g id="a_Node000025"><a xlink:title=" ">
<polygon fill="#e0e0e0" stroke="#999999" points="1461.5,-19 1411.5,-19 1411.5,0 1461.5,0 1461.5,-19"/>
<text text-anchor="middle" x="1436.5" y="-7" font-family="Helvetica,sans-Serif" font-size="10.00">chrono</text>
</a>
</g>
</g>
<!-- Node24&#45;&gt;Node25 -->
<g id="edge39_Node000024_Node000025" class="edge">
<title>Node24&#45;&gt;Node25</title>
<g id="a_edge39_Node000024_Node000025"><a xlink:title=" ">
<path fill="none" stroke="#63b8ff" d="M1200.62,-55.94C1248.93,-48.13 1325.71,-35.11 1401.14,-19.17"/>
<polygon fill="#63b8ff" stroke="#63b8ff" points="1402.24,-22.51 1411.29,-17.01 1400.78,-15.67 1402.24,-22.51"/>
</a>
</g>
</g>
<!-- Node26 -->
<g id="Node000026" class="node">
<title>Node26</title>
<g id="a_Node000026"><a xlink:title=" ">
<polygon fill="#e0e0e0" stroke="#999999" points="1615,-19 1562,-19 1562,0 1615,0 1615,-19"/>
<text text-anchor="middle" x="1588.5" y="-7" font-family="Helvetica,sans-Serif" font-size="10.00">cstdarg</text>
</a>
</g>
</g>
<!-- Node24&#45;&gt;Node26 -->
<g id="edge40_Node000024_Node000026" class="edge">
<title>Node24&#45;&gt;Node26</title>
<g id="a_edge40_Node000024_Node000026"><a xlink:title=" ">
<path fill="none" stroke="#63b8ff" d="M1200.79,-60.03C1274.4,-54.32 1419.21,-41.45 1551.9,-18.89"/>
<polygon fill="#63b8ff" stroke="#63b8ff" points="1552.58,-22.32 1561.84,-17.17 1551.39,-15.42 1552.58,-22.32"/>
</a>
</g>
</g>
<!-- Node27 -->
<g id="Node000027" class="node">
<title>Node27</title>
<g id="a_Node000027"><a xlink:title=" ">
<polygon fill="#e0e0e0" stroke="#999999" points="1681.5,-19 1633.5,-19 1633.5,0 1681.5,0 1681.5,-19"/>
<text text-anchor="middle" x="1657.5" y="-7" font-family="Helvetica,sans-Serif" font-size="10.00">mutex</text>
</a>
</g>
</g>
<!-- Node24&#45;&gt;Node27 -->
<g id="edge44_Node000024_Node000027" class="edge">
<title>Node24&#45;&gt;Node27</title>
<g id="a_edge44_Node000024_Node000027"><a xlink:title=" ">
<path fill="none" stroke="#63b8ff" d="M1200.74,-61.47C1284.77,-57.39 1463.53,-46.29 1623.43,-18.91"/>
<polygon fill="#63b8ff" stroke="#63b8ff" points="1624.19,-22.33 1633.45,-17.16 1622.99,-15.43 1624.19,-22.33"/>
</a>
</g>
</g>
<!-- Node29&#45;&gt;Node7 -->
<g id="edge54_Node000029_Node000007" class="edge">
<title>Node29&#45;&gt;Node7</title>
<g id="a_edge54_Node000029_Node000007"><a xlink:title=" ">
<path fill="none" stroke="#63b8ff" d="M945.37,-60.44C824.92,-51.27 471.21,-24.32 405.17,-18.39"/>
<polygon fill="#63b8ff" stroke="#63b8ff" points="405.11,-14.86 394.81,-17.34 404.41,-21.83 405.11,-14.86"/>
</a>
</g>
</g>
<!-- Node29&#45;&gt;Node11 -->
<g id="edge56_Node000029_Node000011" class="edge">
<title>Node29&#45;&gt;Node11</title>
<g id="a_edge56_Node000029_Node000011"><a xlink:title=" ">
<path fill="none" stroke="#63b8ff" d="M963.49,-54.98C941.05,-46.3 906.02,-32.75 880.51,-22.88"/>
<polygon fill="#63b8ff" stroke="#63b8ff" points="881.5,-19.51 870.91,-19.17 878.98,-26.04 881.5,-19.51"/>
</a>
</g>
</g>
<!-- Node29&#45;&gt;Node14 -->
<g id="edge49_Node000029_Node000014" class="edge">
<title>Node29&#45;&gt;Node14</title>
<g id="a_edge49_Node000029_Node000014"><a xlink:title=" ">
<path fill="none" stroke="#63b8ff" d="M1025.74,-60.4C1122.64,-52.84 1367.86,-33.13 1469.39,-18.97"/>
<polygon fill="#63b8ff" stroke="#63b8ff" points="1469.94,-22.42 1479.33,-17.53 1468.93,-15.5 1469.94,-22.42"/>
</a>
</g>
</g>
<!-- Node29&#45;&gt;Node19 -->
<g id="edge53_Node000029_Node000019" class="edge">
<title>Node29&#45;&gt;Node19</title>
<g id="a_edge53_Node000029_Node000019"><a xlink:title=" ">
<path fill="none" stroke="#63b8ff" d="M945.3,-57.44C897.5,-50 815.15,-36.45 734.63,-18.85"/>
<polygon fill="#63b8ff" stroke="#63b8ff" points="735.34,-15.42 724.82,-16.69 733.83,-22.26 735.34,-15.42"/>
</a>
</g>
</g>
<!-- Node29&#45;&gt;Node22 -->
<g id="edge55_Node000029_Node000022" class="edge">
<title>Node29&#45;&gt;Node22</title>
<g id="a_edge55_Node000029_Node000022"><a xlink:title=" ">
<path fill="none" stroke="#63b8ff" d="M951.76,-54.98C915.39,-45.81 857.42,-31.18 817.97,-21.22"/>
<polygon fill="#63b8ff" stroke="#63b8ff" points="818.67,-17.79 808.12,-18.73 816.96,-24.57 818.67,-17.79"/>
</a>
</g>
</g>
<!-- Node30 -->
<g id="Node000030" class="node">
<title>Node30</title>
<g id="a_Node000030"><a xlink:title=" ">
<polygon fill="#e0e0e0" stroke="#999999" points="1167,-19 1118,-19 1118,0 1167,0 1167,-19"/>
<text text-anchor="middle" x="1142.5" y="-7" font-family="Helvetica,sans-Serif" font-size="10.00">cstdlib</text>
</a>
</g>
</g>
<!-- Node29&#45;&gt;Node30 -->
<g id="edge50_Node000029_Node000030" class="edge">
<title>Node29&#45;&gt;Node30</title>
<g id="a_edge50_Node000029_Node000030"><a xlink:title=" ">
<path fill="none" stroke="#63b8ff" d="M1010.72,-54.98C1037.09,-46.09 1078.63,-32.06 1108.01,-22.14"/>
<polygon fill="#63b8ff" stroke="#63b8ff" points="1109.5,-25.33 1117.86,-18.82 1107.26,-18.7 1109.5,-25.33"/>
</a>
</g>
</g>
<!-- Node31 -->
<g id="Node000031" class="node">
<title>Node31</title>
<g id="a_Node000031"><a xlink:title=" ">
<polygon fill="#e0e0e0" stroke="#999999" points="1309.5,-19 1259.5,-19 1259.5,0 1309.5,0 1309.5,-19"/>
<text text-anchor="middle" x="1284.5" y="-7" font-family="Helvetica,sans-Serif" font-size="10.00">cstring</text>
</a>
</g>
</g>
<!-- Node29&#45;&gt;Node31 -->
<g id="edge51_Node000029_Node000031" class="edge">
<title>Node29&#45;&gt;Node31</title>
<g id="a_edge51_Node000029_Node000031"><a xlink:title=" ">
<path fill="none" stroke="#63b8ff" d="M1025.64,-57.76C1075.78,-50.38 1164.38,-36.6 1249.48,-19.08"/>
<polygon fill="#63b8ff" stroke="#63b8ff" points="1250.22,-22.5 1259.3,-17.03 1248.8,-15.64 1250.22,-22.5"/>
</a>
</g>
</g>
<!-- Node32 -->
<g id="Node000032" class="node">
<title>Node32</title>
<g id="a_Node000032"><a xlink:title=" ">
<polygon fill="#e0e0e0" stroke="#999999" points="1393,-19 1328,-19 1328,0 1393,0 1393,-19"/>
<text text-anchor="middle" x="1360.5" y="-7" font-family="Helvetica,sans-Serif" font-size="10.00">functional</text>
</a>
</g>
</g>
<!-- Node29&#45;&gt;Node32 -->
<g id="edge52_Node000029_Node000032" class="edge">
<title>Node29&#45;&gt;Node32</title>
<g id="a_edge52_Node000029_Node000032"><a xlink:title=" ">
<path fill="none" stroke="#63b8ff" d="M1025.61,-59.02C1086.47,-52.03 1205.97,-37.55 1317.87,-19"/>
<polygon fill="#63b8ff" stroke="#63b8ff" points="1318.69,-22.41 1327.98,-17.3 1317.54,-15.5 1318.69,-22.41"/>
</a>
</g>
</g>
<!-- Node33 -->
<g id="Node000033" class="node">
<title>Node33</title>
<g id="a_Node000033"><a xlink:title=" ">
<polygon fill="#e0e0e0" stroke="#999999" points="958,-19 889,-19 889,0 958,0 958,-19"/>
<text text-anchor="middle" x="923.5" y="-7" font-family="Helvetica,sans-Serif" font-size="10.00">type_traits</text>
</a>
</g>
</g>
<!-- Node29&#45;&gt;Node33 -->
<g id="edge57_Node000029_Node000033" class="edge">
<title>Node29&#45;&gt;Node33</title>
<g id="a_edge57_Node000029_Node000033"><a xlink:title=" ">
<path fill="none" stroke="#63b8ff" d="M975.54,-54.98C966.37,-47.15 952.56,-35.34 941.47,-25.86"/>
<polygon fill="#63b8ff" stroke="#63b8ff" points="943.52,-23.01 933.64,-19.17 938.97,-28.33 943.52,-23.01"/>
</a>
</g>
</g>
<!-- Node34 -->
<g id="Node000034" class="node">
<title>Node34</title>
<g id="a_Node000034"><a xlink:title=" ">
<polygon fill="#e0e0e0" stroke="#999999" points="1100,-19 1055,-19 1055,0 1100,0 1100,-19"/>
<text text-anchor="middle" x="1077.5" y="-7" font-family="Helvetica,sans-Serif" font-size="10.00">utility</text>
</a>
</g>
</g>
<!-- Node29&#45;&gt;Node34 -->
<g id="edge58_Node000029_Node000034" class="edge">
<title>Node29&#45;&gt;Node34</title>
<g id="a_edge58_Node000029_Node000034"><a xlink:title=" ">
<path fill="none" stroke="#63b8ff" d="M1000.28,-54.98C1014.68,-46.69 1036.81,-33.94 1053.69,-24.22"/>
<polygon fill="#63b8ff" stroke="#63b8ff" points="1055.53,-27.19 1062.45,-19.17 1052.04,-21.13 1055.53,-27.19"/>
</a>
</g>
</g>
</g>
</svg>

<g id="navigator" transform="translate(0 0)" fill="#404254">
  <rect fill="#f2f5e9" fill-opacity="0.5" stroke="#606060" stroke-width=".5" x="0" y="0" width="60" height="60"/>
  <use id="zoomplus" xlink:href="#zoomPlus" x="17" y="9" onmousedown="handleZoom(evt,'in')"/>
  <use id="zoomminus" xlink:href="#zoomMin" x="42" y="9" onmousedown="handleZoom(evt,'out')"/>
  <use id="reset" xlink:href="#resetDef" x="30" y="36" onmousedown="handleReset()"/>
   <use id="arrowup" xlink:href="#arrowUp" x="0" y="0" onmousedown="handlePan(0,-1)"/>
  <use id="arrowright" xlink:href="#arrowRight" x="0" y="0" onmousedown="handlePan(1,0)"/>
  <use id="arrowdown" xlink:href="#arrowDown" x="0" y="0" onmousedown="handlePan(0,1)"/>
  <use id="arrowleft" xlink:href="#arrowLeft" x="0" y="0" onmousedown="handlePan(-1,0)"/>
</g>
<svg viewBox="0 0 15 15" width="100%" height="30px" preserveAspectRatio="xMaxYMin meet">
 <g id="arrow_out" transform="scale(0.3 0.3)">
  <a xlink:href="normalOrientation_8cpp__incl_org.svg" target="_base">
   <rect id="button" ry="5" rx="5" y="6" x="6" height="38" width="38"
        fill="#f2f5e9" fill-opacity="0.5" stroke="#606060" stroke-width="1.0"/>
   <path id="arrow"
     d="M 11.500037,31.436501 C 11.940474,20.09759 22.043105,11.32322 32.158766,21.979434 L 37.068811,17.246167 C 37.068811,17.246167 37.088388,32 37.088388,32 L 22.160133,31.978069 C 22.160133,31.978069 26.997745,27.140456 26.997745,27.140456 C 18.528582,18.264221 13.291696,25.230495 11.500037,31.436501 z"
     style="fill:#404040;"/>
  </a>
 </g>
</svg>

<style type='text/css'>
<![CDATA[
[data-mouse-over-selected='false'] { opacity: 0.7; }
[data-mouse-over-selected='true']  { opacity: 1.0; }
]]>
</style>
<script type="application/ecmascript"><![CDATA[
document.addEventListener('DOMContentLoaded', (event) => {
  highlightEdges();
  highlightAdjacentNodes();
});
]]></script>
</svg>
