<?xml version="1.0" encoding="UTF-8" standalone="no"?>
<!DOCTYPE svg PUBLIC "-//W3C//DTD SVG 1.1//EN"
 "http://www.w3.org/Graphics/SVG/1.1/DTD/svg11.dtd">
<!-- Generated by graphviz version 2.43.0 (0)
 -->
<!-- Title: src/lib/patchGeneration/normalComputation.cpp Pages: 1 -->
<!--zoomable 203 -->

<svg id="main" version="1.1" xmlns="http://www.w3.org/2000/svg" xmlns:xlink="http://www.w3.org/1999/xlink" xml:space="preserve" onload="init(evt)">
<style type="text/css"><![CDATA[
.node, .edge {opacity: 0.7;}
.node.selected, .edge.selected {opacity: 1;}
.edge:hover path { stroke: red; }
.edge:hover polygon { stroke: red; fill: red; }
]]></style>

<defs>
  <circle id="rim" cx="0" cy="0" r="7"/>
  <circle id="rim2" cx="0" cy="0" r="3.5"/>
  <g id="zoomPlus">
    <use xlink:href="#rim" fill="#404040"><set attributeName="fill" to="#808080" begin="zoomplus.mouseover" end="zoomplus.mouseout"/></use>
    <path d="M-4,0h8M0,-4v8" fill="none" stroke="white" stroke-width="1.5" pointer-events="none"/>
  </g>
  <g id="zoomMin">
    <use xlink:href="#rim" fill="#404040"><set attributeName="fill" to="#808080" begin="zoomminus.mouseover" end="zoomminus.mouseout"/></use>
    <path d="M-4,0h8" fill="none" stroke="white" stroke-width="1.5" pointer-events="none"/>
  </g>
  <g id="arrowUp" transform="translate(30 24)">
    <use xlink:href="#rim"/>
    <path pointer-events="none" fill="none" stroke="white" stroke-width="1.5" d="M0,-3.0v7 M-2.5,-0.5L0,-3.0L2.5,-0.5"/>
  </g>
  <g id="arrowRight" transform="rotate(90) translate(36 -43)">
    <use xlink:href="#rim"/>
    <path pointer-events="none" fill="none" stroke="white" stroke-width="1.5" d="M0,-3.0v7 M-2.5,-0.5L0,-3.0L2.5,-0.5"/>
  </g>
  <g id="arrowDown" transform="rotate(180) translate(-30 -48)">
    <use xlink:href="#rim"/>
    <path pointer-events="none" fill="none" stroke="white" stroke-width="1.5" d="M0,-3.0v7 M-2.5,-0.5L0,-3.0L2.5,-0.5"/>
  </g>
  <g id="arrowLeft" transform="rotate(270) translate(-36 17)">
    <use xlink:href="#rim"/>
    <path pointer-events="none" fill="none" stroke="white" stroke-width="1.5" d="M0,-3.0v7 M-2.5,-0.5L0,-3.0L2.5,-0.5"/>
  </g>
  <g id="resetDef">
    <use xlink:href="#rim2" fill="#404040"><set attributeName="fill" to="#808080" begin="reset.mouseover" end="reset.mouseout"/></use>
  </g>
</defs>
<script type="application/ecmascript">
var viewWidth = 1833;
var viewHeight = 203;
var sectionId = 'dynsection-0';
</script>
<script type="application/ecmascript" xlink:href="svg.min.js"/>
<svg id="graph" class="graph">
<g id="viewport">
<title>src/lib/patchGeneration/normalComputation.cpp</title>
<!-- Node1 -->
<g id="Node000001" class="node">
<title>Node1</title>
<g id="a_Node000001"><a xlink:title=" ">
<polygon fill="#999999" stroke="#666666" points="843,-195 706,-195 706,-165 843,-165 843,-195"/>
<text text-anchor="start" x="714" y="-183" font-family="Helvetica,sans-Serif" font-size="10.00">src/lib/patchGeneration</text>
<text text-anchor="middle" x="774.5" y="-172" font-family="Helvetica,sans-Serif" font-size="10.00">/normalComputation.cpp</text>
</a>
</g>
</g>
<!-- Node2 -->
<g id="Node000002" class="node">
<title>Node2</title>
<g id="a_Node000002"><a xlink:href="normalComputation_8hpp.html" target="_top" xlink:title=" ">
<polygon fill="white" stroke="#666666" points="593,-129 458,-129 458,-110 593,-110 593,-129"/>
<text text-anchor="middle" x="525.5" y="-117" font-family="Helvetica,sans-Serif" font-size="10.00">normalComputation.hpp</text>
</a>
</g>
</g>
<!-- Node1&#45;&gt;Node2 -->
<g id="edge1_Node000001_Node000002" class="edge">
<title>Node1&#45;&gt;Node2</title>
<g id="a_edge1_Node000001_Node000002"><a xlink:title=" ">
<path fill="none" stroke="#63b8ff" d="M714.86,-164.99C670.96,-154.67 612.13,-140.85 571.75,-131.37"/>
<polygon fill="#63b8ff" stroke="#63b8ff" points="572.44,-127.93 561.91,-129.05 570.84,-134.75 572.44,-127.93"/>
</a>
</g>
</g>
<!-- Node3 -->
<g id="Node000003" class="node">
<title>Node3</title>
<g id="a_Node000003"><a xlink:href="uvgvpcc_8hpp.html" target="_top" xlink:title=" ">
<polygon fill="white" stroke="#666666" points="525.5,-74 403.5,-74 403.5,-55 525.5,-55 525.5,-74"/>
<text text-anchor="middle" x="464.5" y="-62" font-family="Helvetica,sans-Serif" font-size="10.00">uvgvpcc/uvgvpcc.hpp</text>
</a>
</g>
</g>
<!-- Node1&#45;&gt;Node3 -->
<g id="edge51_Node000001_Node000003" class="edge">
<title>Node1&#45;&gt;Node3</title>
<g id="a_edge51_Node000001_Node000003"><a xlink:title=" ">
<path fill="none" stroke="#63b8ff" d="M705.94,-178.54C620.29,-176.34 480.99,-166.85 448.5,-129 437.55,-116.24 444.59,-97.04 452.49,-83.09"/>
<polygon fill="#63b8ff" stroke="#63b8ff" points="455.57,-84.75 457.88,-74.41 449.63,-81.06 455.57,-84.75"/>
</a>
</g>
</g>
<!-- Node4 -->
<g id="Node000004" class="node">
<title>Node4</title>
<g id="a_Node000004"><a xlink:title=" ">
<polygon fill="#e0e0e0" stroke="#999999" points="53,-19 0,-19 0,0 53,0 53,-19"/>
<text text-anchor="middle" x="26.5" y="-7" font-family="Helvetica,sans-Serif" font-size="10.00">cstddef</text>
</a>
</g>
</g>
<!-- Node1&#45;&gt;Node4 -->
<g id="edge17_Node000001_Node000004" class="edge">
<title>Node1&#45;&gt;Node4</title>
<g id="a_edge17_Node000001_Node000004"><a xlink:title=" ">
<path fill="none" stroke="#63b8ff" d="M705.72,-174.83C624.19,-168.9 484.64,-155.67 367.5,-129 292.95,-112.03 276.73,-99.07 204.5,-74 153.78,-56.4 95.19,-35.36 59.5,-22.46"/>
<polygon fill="#63b8ff" stroke="#63b8ff" points="60.66,-19.16 50.06,-19.05 58.28,-25.74 60.66,-19.16"/>
</a>
</g>
</g>
<!-- Node5 -->
<g id="Node000005" class="node">
<title>Node5</title>
<g id="a_Node000005"><a xlink:title=" ">
<polygon fill="#e0e0e0" stroke="#999999" points="670.5,-19 620.5,-19 620.5,0 670.5,0 670.5,-19"/>
<text text-anchor="middle" x="645.5" y="-7" font-family="Helvetica,sans-Serif" font-size="10.00">cstdint</text>
</a>
</g>
</g>
<!-- Node1&#45;&gt;Node5 -->
<g id="edge18_Node000001_Node000005" class="edge">
<title>Node1&#45;&gt;Node5</title>
<g id="a_edge18_Node000001_Node000005"><a xlink:title=" ">
<path fill="none" stroke="#63b8ff" d="M741.28,-164.87C724.23,-156.37 704.04,-144.23 689.5,-129 662.69,-100.92 651.92,-55.06 647.83,-29.4"/>
<polygon fill="#63b8ff" stroke="#63b8ff" points="651.25,-28.58 646.38,-19.17 644.32,-29.56 651.25,-28.58"/>
</a>
</g>
</g>
<!-- Node7 -->
<g id="Node000007" class="node">
<title>Node7</title>
<g id="a_Node000007"><a xlink:title=" ">
<polygon fill="#e0e0e0" stroke="#999999" points="806.5,-19 748.5,-19 748.5,0 806.5,0 806.5,-19"/>
<text text-anchor="middle" x="777.5" y="-7" font-family="Helvetica,sans-Serif" font-size="10.00">memory</text>
</a>
</g>
</g>
<!-- Node1&#45;&gt;Node7 -->
<g id="edge19_Node000001_Node000007" class="edge">
<title>Node1&#45;&gt;Node7</title>
<g id="a_edge19_Node000001_Node000007"><a xlink:title=" ">
<path fill="none" stroke="#63b8ff" d="M838.03,-164.92C856.84,-157.47 875.37,-146.15 886.5,-129 904.4,-101.41 904.84,-82.3 886.5,-55 878.23,-42.68 844.28,-30.03 816.45,-21.38"/>
<polygon fill="#63b8ff" stroke="#63b8ff" points="817.11,-17.92 806.53,-18.38 815.09,-24.62 817.11,-17.92"/>
</a>
</g>
</g>
<!-- Node11 -->
<g id="Node000011" class="node">
<title>Node11</title>
<g id="a_Node000011"><a xlink:title=" ">
<polygon fill="#e0e0e0" stroke="#999999" points="1618.5,-19 1574.5,-19 1574.5,0 1618.5,0 1618.5,-19"/>
<text text-anchor="middle" x="1596.5" y="-7" font-family="Helvetica,sans-Serif" font-size="10.00">string</text>
</a>
</g>
</g>
<!-- Node1&#45;&gt;Node11 -->
<g id="edge20_Node000001_Node000011" class="edge">
<title>Node1&#45;&gt;Node11</title>
<g id="a_edge20_Node000001_Node000011"><a xlink:title=" ">
<path fill="none" stroke="#63b8ff" d="M832.33,-164.99C892.81,-150.51 990.59,-127.61 1075.5,-110 1180.98,-88.13 1442.72,-46.15 1564.29,-19.1"/>
<polygon fill="#63b8ff" stroke="#63b8ff" points="1565.23,-22.48 1574.21,-16.85 1563.68,-15.65 1565.23,-22.48"/>
</a>
</g>
</g>
<!-- Node12 -->
<g id="Node000012" class="node">
<title>Node12</title>
<g id="a_Node000012"><a xlink:title=" ">
<polygon fill="#e0e0e0" stroke="#999999" points="118,-19 71,-19 71,0 118,0 118,-19"/>
<text text-anchor="middle" x="94.5" y="-7" font-family="Helvetica,sans-Serif" font-size="10.00">vector</text>
</a>
</g>
</g>
<!-- Node1&#45;&gt;Node12 -->
<g id="edge21_Node000001_Node000012" class="edge">
<title>Node1&#45;&gt;Node12</title>
<g id="a_edge21_Node000001_Node000012"><a xlink:title=" ">
<path fill="none" stroke="#63b8ff" d="M705.78,-172.46C637.56,-165.1 530.33,-151.18 439.5,-129 320.28,-99.89 183.86,-46.95 124.6,-22.93"/>
<polygon fill="#63b8ff" stroke="#63b8ff" points="125.69,-19.6 115.11,-19.07 123.05,-26.08 125.69,-19.6"/>
</a>
</g>
</g>
<!-- Node15 -->
<g id="Node000015" class="node">
<title>Node15</title>
<g id="a_Node000015"><a xlink:title=" ">
<polygon fill="#e0e0e0" stroke="#999999" points="730.5,-19 688.5,-19 688.5,0 730.5,0 730.5,-19"/>
<text text-anchor="middle" x="709.5" y="-7" font-family="Helvetica,sans-Serif" font-size="10.00">array</text>
</a>
</g>
</g>
<!-- Node1&#45;&gt;Node15 -->
<g id="edge14_Node000001_Node000015" class="edge">
<title>Node1&#45;&gt;Node15</title>
<g id="a_edge14_Node000001_Node000015"><a xlink:title=" ">
<path fill="none" stroke="#63b8ff" d="M812.22,-164.88C827.93,-156.9 844.58,-145.21 853.5,-129 869.36,-100.19 873.02,-81.47 853.5,-55 851.76,-52.65 782.24,-31.88 740.44,-19.57"/>
<polygon fill="#63b8ff" stroke="#63b8ff" points="741.3,-16.17 730.72,-16.71 739.33,-22.89 741.3,-16.17"/>
</a>
</g>
</g>
<!-- Node16 -->
<g id="Node000016" class="node">
<title>Node16</title>
<g id="a_Node000016"><a xlink:title=" ">
<polygon fill="#e0e0e0" stroke="#999999" points="1179.5,-129 1127.5,-129 1127.5,-110 1179.5,-110 1179.5,-129"/>
<text text-anchor="middle" x="1153.5" y="-117" font-family="Helvetica,sans-Serif" font-size="10.00">cassert</text>
</a>
</g>
</g>
<!-- Node1&#45;&gt;Node16 -->
<g id="edge15_Node000001_Node000016" class="edge">
<title>Node1&#45;&gt;Node16</title>
<g id="a_edge15_Node000001_Node000016"><a xlink:title=" ">
<path fill="none" stroke="#63b8ff" d="M843.21,-170.16C911.84,-161.02 1020.26,-145.77 1113.5,-129 1114.76,-128.77 1116.04,-128.54 1117.33,-128.29"/>
<polygon fill="#63b8ff" stroke="#63b8ff" points="1118.17,-131.69 1127.3,-126.31 1116.81,-124.83 1118.17,-131.69"/>
</a>
</g>
</g>
<!-- Node17 -->
<g id="Node000017" class="node">
<title>Node17</title>
<g id="a_Node000017"><a xlink:title=" ">
<polygon fill="#e0e0e0" stroke="#999999" points="1245,-129 1198,-129 1198,-110 1245,-110 1245,-129"/>
<text text-anchor="middle" x="1221.5" y="-117" font-family="Helvetica,sans-Serif" font-size="10.00">cmath</text>
</a>
</g>
</g>
<!-- Node1&#45;&gt;Node17 -->
<g id="edge16_Node000001_Node000017" class="edge">
<title>Node1&#45;&gt;Node17</title>
<g id="a_edge16_Node000001_Node000017"><a xlink:title=" ">
<path fill="none" stroke="#63b8ff" d="M843.05,-173.51C923.42,-166.45 1060.71,-152.45 1187.87,-128.87"/>
<polygon fill="#63b8ff" stroke="#63b8ff" points="1188.61,-132.29 1197.79,-127.01 1187.32,-125.41 1188.61,-132.29"/>
</a>
</g>
</g>
<!-- Node18 -->
<g id="Node000018" class="node">
<title>Node18</title>
<g id="a_Node000018"><a xlink:href="utilsPatchGeneration_8hpp.html" target="_top" xlink:title=" ">
<polygon fill="white" stroke="#666666" points="844,-129 705,-129 705,-110 844,-110 844,-129"/>
<text text-anchor="middle" x="774.5" y="-117" font-family="Helvetica,sans-Serif" font-size="10.00">utilsPatchGeneration.hpp</text>
</a>
</g>
</g>
<!-- Node1&#45;&gt;Node18 -->
<g id="edge22_Node000001_Node000018" class="edge">
<title>Node1&#45;&gt;Node18</title>
<g id="a_edge22_Node000001_Node000018"><a xlink:title=" ">
<path fill="none" stroke="#63b8ff" d="M774.5,-164.84C774.5,-157.21 774.5,-147.7 774.5,-139.45"/>
<polygon fill="#63b8ff" stroke="#63b8ff" points="778,-139.27 774.5,-129.27 771,-139.27 778,-139.27"/>
</a>
</g>
</g>
<!-- Node19 -->
<g id="Node000019" class="node">
<title>Node19</title>
<g id="a_Node000019"><a xlink:href="utils_8hpp.html" target="_top" xlink:title=" ">
<polygon fill="white" stroke="#666666" points="771,-74 688,-74 688,-55 771,-55 771,-74"/>
<text text-anchor="middle" x="729.5" y="-62" font-family="Helvetica,sans-Serif" font-size="10.00">utils/utils.hpp</text>
</a>
</g>
</g>
<!-- Node1&#45;&gt;Node19 -->
<g id="edge52_Node000001_Node000019" class="edge">
<title>Node1&#45;&gt;Node19</title>
<g id="a_edge52_Node000001_Node000019"><a xlink:title=" ">
<path fill="none" stroke="#63b8ff" d="M737.66,-164.98C722.02,-156.97 705.37,-145.23 696.5,-129 687.71,-112.93 699.99,-94.31 711.98,-81.41"/>
<polygon fill="#63b8ff" stroke="#63b8ff" points="714.61,-83.73 719.22,-74.19 709.67,-78.77 714.61,-83.73"/>
</a>
</g>
</g>
<!-- Node22 -->
<g id="Node000022" class="node">
<title>Node22</title>
<g id="a_Node000022"><a xlink:href="log_8hpp.html" target="_top" xlink:title=" ">
<polygon fill="white" stroke="#666666" points="1493.5,-74 1397.5,-74 1397.5,-55 1493.5,-55 1493.5,-74"/>
<text text-anchor="middle" x="1445.5" y="-62" font-family="Helvetica,sans-Serif" font-size="10.00">uvgvpcc/log.hpp</text>
</a>
</g>
</g>
<!-- Node1&#45;&gt;Node22 -->
<g id="edge50_Node000001_Node000022" class="edge">
<title>Node1&#45;&gt;Node22</title>
<g id="a_edge50_Node000001_Node000022"><a xlink:title=" ">
<path fill="none" stroke="#63b8ff" d="M843.15,-172.57C904.89,-165.62 997.59,-152.28 1075.5,-129 1095.52,-123.02 1098.4,-115.69 1118.5,-110 1210.21,-84.06 1320.81,-73.04 1387.02,-68.51"/>
<polygon fill="#63b8ff" stroke="#63b8ff" points="1387.51,-71.98 1397.26,-67.83 1387.05,-65 1387.51,-71.98"/>
</a>
</g>
</g>
<!-- Node2&#45;&gt;Node3 -->
<g id="edge2_Node000002_Node000003" class="edge">
<title>Node2&#45;&gt;Node3</title>
<g id="a_edge2_Node000002_Node000003"><a xlink:title=" ">
<path fill="none" stroke="#63b8ff" d="M515.7,-109.98C506.68,-102.15 493.09,-90.34 482.18,-80.86"/>
<polygon fill="#63b8ff" stroke="#63b8ff" points="484.32,-78.09 474.48,-74.17 479.73,-83.37 484.32,-78.09"/>
</a>
</g>
</g>
<!-- Node3&#45;&gt;Node4 -->
<g id="edge3_Node000003_Node000004" class="edge">
<title>Node3&#45;&gt;Node4</title>
<g id="a_edge3_Node000003_Node000004"><a xlink:title=" ">
<path fill="none" stroke="#63b8ff" d="M403.39,-59.21C326.22,-53.24 189.24,-40.83 63.38,-19.14"/>
<polygon fill="#63b8ff" stroke="#63b8ff" points="63.63,-15.63 53.18,-17.35 62.43,-22.52 63.63,-15.63"/>
</a>
</g>
</g>
<!-- Node3&#45;&gt;Node5 -->
<g id="edge4_Node000003_Node000005" class="edge">
<title>Node3&#45;&gt;Node5</title>
<g id="a_edge4_Node000003_Node000005"><a xlink:title=" ">
<path fill="none" stroke="#63b8ff" d="M493.58,-54.98C525.37,-45.68 576.3,-30.76 610.31,-20.8"/>
<polygon fill="#63b8ff" stroke="#63b8ff" points="611.67,-24.05 620.29,-17.88 609.71,-17.33 611.67,-24.05"/>
</a>
</g>
</g>
<!-- Node6 -->
<g id="Node000006" class="node">
<title>Node6</title>
<g id="a_Node000006"><a xlink:title=" ">
<polygon fill="#e0e0e0" stroke="#999999" points="1164.5,-19 1104.5,-19 1104.5,0 1164.5,0 1164.5,-19"/>
<text text-anchor="middle" x="1134.5" y="-7" font-family="Helvetica,sans-Serif" font-size="10.00">iostream</text>
</a>
</g>
</g>
<!-- Node3&#45;&gt;Node6 -->
<g id="edge5_Node000003_Node000006" class="edge">
<title>Node3&#45;&gt;Node6</title>
<g id="a_edge5_Node000003_Node000006"><a xlink:title=" ">
<path fill="none" stroke="#63b8ff" d="M525.5,-60.32C657.87,-53.25 968.96,-35.63 1094.23,-18.93"/>
<polygon fill="#63b8ff" stroke="#63b8ff" points="1094.92,-22.37 1104.34,-17.52 1093.96,-15.43 1094.92,-22.37"/>
</a>
</g>
</g>
<!-- Node3&#45;&gt;Node7 -->
<g id="edge6_Node000003_Node000007" class="edge">
<title>Node3&#45;&gt;Node7</title>
<g id="a_edge6_Node000003_Node000007"><a xlink:title=" ">
<path fill="none" stroke="#63b8ff" d="M523.69,-54.97C577.21,-47.01 658.42,-34.36 738.26,-19.14"/>
<polygon fill="#63b8ff" stroke="#63b8ff" points="739.33,-22.5 748.49,-17.18 738.01,-15.63 739.33,-22.5"/>
</a>
</g>
</g>
<!-- Node8 -->
<g id="Node000008" class="node">
<title>Node8</title>
<g id="a_Node000008"><a xlink:title=" ">
<polygon fill="#e0e0e0" stroke="#999999" points="183,-19 136,-19 136,0 183,0 183,-19"/>
<text text-anchor="middle" x="159.5" y="-7" font-family="Helvetica,sans-Serif" font-size="10.00">queue</text>
</a>
</g>
</g>
<!-- Node3&#45;&gt;Node8 -->
<g id="edge7_Node000003_Node000008" class="edge">
<title>Node3&#45;&gt;Node8</title>
<g id="a_edge7_Node000003_Node000008"><a xlink:title=" ">
<path fill="none" stroke="#63b8ff" d="M403.46,-55.3C350.2,-47.75 270.67,-35.51 193.14,-19.19"/>
<polygon fill="#63b8ff" stroke="#63b8ff" points="193.71,-15.73 183.2,-17.07 192.25,-22.58 193.71,-15.73"/>
</a>
</g>
</g>
<!-- Node9 -->
<g id="Node000009" class="node">
<title>Node9</title>
<g id="a_Node000009"><a xlink:title=" ">
<polygon fill="#e0e0e0" stroke="#999999" points="272,-19 201,-19 201,0 272,0 272,-19"/>
<text text-anchor="middle" x="236.5" y="-7" font-family="Helvetica,sans-Serif" font-size="10.00">semaphore</text>
</a>
</g>
</g>
<!-- Node3&#45;&gt;Node9 -->
<g id="edge8_Node000003_Node000009" class="edge">
<title>Node3&#45;&gt;Node9</title>
<g id="a_edge8_Node000003_Node000009"><a xlink:title=" ">
<path fill="none" stroke="#63b8ff" d="M427.87,-54.98C388.25,-45.77 325.01,-31.08 282.18,-21.12"/>
<polygon fill="#63b8ff" stroke="#63b8ff" points="282.82,-17.67 272.29,-18.82 281.24,-24.49 282.82,-17.67"/>
</a>
</g>
</g>
<!-- Node10 -->
<g id="Node000010" class="node">
<title>Node10</title>
<g id="a_Node000010"><a xlink:title=" ">
<polygon fill="#e0e0e0" stroke="#999999" points="602.5,-19 546.5,-19 546.5,0 602.5,0 602.5,-19"/>
<text text-anchor="middle" x="574.5" y="-7" font-family="Helvetica,sans-Serif" font-size="10.00">sstream</text>
</a>
</g>
</g>
<!-- Node3&#45;&gt;Node10 -->
<g id="edge9_Node000003_Node000010" class="edge">
<title>Node3&#45;&gt;Node10</title>
<g id="a_edge9_Node000003_Node000010"><a xlink:title=" ">
<path fill="none" stroke="#63b8ff" d="M482.17,-54.98C499.79,-46.5 527.08,-33.35 547.43,-23.54"/>
<polygon fill="#63b8ff" stroke="#63b8ff" points="549.02,-26.66 556.51,-19.17 545.98,-20.36 549.02,-26.66"/>
</a>
</g>
</g>
<!-- Node3&#45;&gt;Node11 -->
<g id="edge10_Node000003_Node000011" class="edge">
<title>Node3&#45;&gt;Node11</title>
<g id="a_edge10_Node000003_Node000011"><a xlink:title=" ">
<path fill="none" stroke="#63b8ff" d="M525.65,-61.07C742.78,-52.46 1468.4,-23.61 1564.06,-18"/>
<polygon fill="#63b8ff" stroke="#63b8ff" points="1564.57,-21.47 1574.28,-17.24 1564.05,-14.49 1564.57,-21.47"/>
</a>
</g>
</g>
<!-- Node3&#45;&gt;Node12 -->
<g id="edge11_Node000003_Node000012" class="edge">
<title>Node3&#45;&gt;Node12</title>
<g id="a_edge11_Node000003_Node000012"><a xlink:title=" ">
<path fill="none" stroke="#63b8ff" d="M403.36,-57.84C337.55,-51.22 229.68,-38.81 128.29,-19.14"/>
<polygon fill="#63b8ff" stroke="#63b8ff" points="128.67,-15.65 118.19,-17.16 127.32,-22.52 128.67,-15.65"/>
</a>
</g>
</g>
<!-- Node13 -->
<g id="Node000013" class="node">
<title>Node13</title>
<g id="a_Node000013"><a xlink:title=" ">
<polygon fill="#e0e0e0" stroke="#999999" points="382.5,-19 290.5,-19 290.5,0 382.5,0 382.5,-19"/>
<text text-anchor="middle" x="336.5" y="-7" font-family="Helvetica,sans-Serif" font-size="10.00">../utils/utils.hpp</text>
</a>
</g>
</g>
<!-- Node3&#45;&gt;Node13 -->
<g id="edge12_Node000003_Node000013" class="edge">
<title>Node3&#45;&gt;Node13</title>
<g id="a_edge12_Node000003_Node000013"><a xlink:title=" ">
<path fill="none" stroke="#63b8ff" d="M443.93,-54.98C423.07,-46.34 390.53,-32.87 366.73,-23.02"/>
<polygon fill="#63b8ff" stroke="#63b8ff" points="368.02,-19.76 357.44,-19.17 365.34,-26.23 368.02,-19.76"/>
</a>
</g>
</g>
<!-- Node14 -->
<g id="Node000014" class="node">
<title>Node14</title>
<g id="a_Node000014"><a xlink:title=" ">
<polygon fill="#e0e0e0" stroke="#999999" points="528,-19 401,-19 401,0 528,0 528,-19"/>
<text text-anchor="middle" x="464.5" y="-7" font-family="Helvetica,sans-Serif" font-size="10.00">../utils/parameters.hpp</text>
</a>
</g>
</g>
<!-- Node3&#45;&gt;Node14 -->
<g id="edge13_Node000003_Node000014" class="edge">
<title>Node3&#45;&gt;Node14</title>
<g id="a_edge13_Node000003_Node000014"><a xlink:title=" ">
<path fill="none" stroke="#63b8ff" d="M464.5,-54.75C464.5,-47.8 464.5,-37.85 464.5,-29.13"/>
<polygon fill="#63b8ff" stroke="#63b8ff" points="468,-29.09 464.5,-19.09 461,-29.09 468,-29.09"/>
</a>
</g>
</g>
<!-- Node18&#45;&gt;Node5 -->
<g id="edge36_Node000018_Node000005" class="edge">
<title>Node18&#45;&gt;Node5</title>
<g id="a_edge36_Node000018_Node000005"><a xlink:title=" ">
<path fill="none" stroke="#63b8ff" d="M744.18,-109.87C723.92,-102.87 697.74,-91.29 679.5,-74 666.34,-61.52 657.18,-42.8 651.71,-28.92"/>
<polygon fill="#63b8ff" stroke="#63b8ff" points="654.96,-27.62 648.24,-19.43 648.38,-30.02 654.96,-27.62"/>
</a>
</g>
</g>
<!-- Node18&#45;&gt;Node12 -->
<g id="edge38_Node000018_Node000012" class="edge">
<title>Node18&#45;&gt;Node12</title>
<g id="a_edge38_Node000018_Node000012"><a xlink:title=" ">
<path fill="none" stroke="#63b8ff" d="M704.91,-112.16C628.52,-104.78 502.38,-91.35 394.5,-74 277.62,-55.2 246.49,-47.26 128.05,-19.28"/>
<polygon fill="#63b8ff" stroke="#63b8ff" points="128.76,-15.86 118.23,-16.96 127.16,-22.67 128.76,-15.86"/>
</a>
</g>
</g>
<!-- Node18&#45;&gt;Node19 -->
<g id="edge23_Node000018_Node000019" class="edge">
<title>Node18&#45;&gt;Node19</title>
<g id="a_edge23_Node000018_Node000019"><a xlink:title=" ">
<path fill="none" stroke="#63b8ff" d="M767.07,-109.75C760.65,-102.18 751.19,-91.05 743.38,-81.84"/>
<polygon fill="#63b8ff" stroke="#63b8ff" points="745.93,-79.45 736.79,-74.09 740.6,-83.98 745.93,-79.45"/>
</a>
</g>
</g>
<!-- Node18&#45;&gt;Node22 -->
<g id="edge29_Node000018_Node000022" class="edge">
<title>Node18&#45;&gt;Node22</title>
<g id="a_edge29_Node000018_Node000022"><a xlink:title=" ">
<path fill="none" stroke="#63b8ff" d="M844.1,-113C976.81,-102.52 1263.83,-79.85 1387.2,-70.1"/>
<polygon fill="#63b8ff" stroke="#63b8ff" points="1387.52,-73.59 1397.21,-69.31 1386.97,-66.61 1387.52,-73.59"/>
</a>
</g>
</g>
<!-- Node26 -->
<g id="Node000026" class="node">
<title>Node26</title>
<g id="a_Node000026"><a xlink:title=" ">
<polygon fill="#e0e0e0" stroke="#999999" points="844,-74 789,-74 789,-55 844,-55 844,-74"/>
<text text-anchor="middle" x="816.5" y="-62" font-family="Helvetica,sans-Serif" font-size="10.00">fstream</text>
</a>
</g>
</g>
<!-- Node18&#45;&gt;Node26 -->
<g id="edge37_Node000018_Node000026" class="edge">
<title>Node18&#45;&gt;Node26</title>
<g id="a_edge37_Node000018_Node000026"><a xlink:title=" ">
<path fill="none" stroke="#63b8ff" d="M781.44,-109.75C787.37,-102.26 796.07,-91.28 803.32,-82.13"/>
<polygon fill="#63b8ff" stroke="#63b8ff" points="806.23,-84.1 809.69,-74.09 800.74,-79.75 806.23,-84.1"/>
</a>
</g>
</g>
<!-- Node27 -->
<g id="Node000027" class="node">
<title>Node27</title>
<g id="a_Node000027"><a xlink:href="robin__hood_8h.html" target="_top" xlink:title=" ">
<polygon fill="white" stroke="#666666" points="1033.5,-74 953.5,-74 953.5,-55 1033.5,-55 1033.5,-74"/>
<text text-anchor="middle" x="993.5" y="-62" font-family="Helvetica,sans-Serif" font-size="10.00">robin_hood.h</text>
</a>
</g>
</g>
<!-- Node18&#45;&gt;Node27 -->
<g id="edge39_Node000018_Node000027" class="edge">
<title>Node18&#45;&gt;Node27</title>
<g id="a_edge39_Node000018_Node000027"><a xlink:title=" ">
<path fill="none" stroke="#63b8ff" d="M809.69,-109.98C847.33,-100.87 907.16,-86.4 948.27,-76.45"/>
<polygon fill="#63b8ff" stroke="#63b8ff" points="949.14,-79.84 958.04,-74.08 947.5,-73.03 949.14,-79.84"/>
</a>
</g>
</g>
<!-- Node19&#45;&gt;Node5 -->
<g id="edge25_Node000019_Node000005" class="edge">
<title>Node19&#45;&gt;Node5</title>
<g id="a_edge25_Node000019_Node000005"><a xlink:title=" ">
<path fill="none" stroke="#63b8ff" d="M716,-54.98C703.1,-46.84 683.4,-34.41 668.1,-24.76"/>
<polygon fill="#63b8ff" stroke="#63b8ff" points="669.57,-21.55 659.24,-19.17 665.83,-27.47 669.57,-21.55"/>
</a>
</g>
</g>
<!-- Node19&#45;&gt;Node10 -->
<g id="edge27_Node000019_Node000010" class="edge">
<title>Node19&#45;&gt;Node10</title>
<g id="a_edge27_Node000019_Node000010"><a xlink:title=" ">
<path fill="none" stroke="#63b8ff" d="M704.6,-54.98C678.8,-46.16 638.28,-32.31 609.32,-22.41"/>
<polygon fill="#63b8ff" stroke="#63b8ff" points="610.19,-19.01 599.6,-19.08 607.93,-25.63 610.19,-19.01"/>
</a>
</g>
</g>
<!-- Node19&#45;&gt;Node15 -->
<g id="edge24_Node000019_Node000015" class="edge">
<title>Node19&#45;&gt;Node15</title>
<g id="a_edge24_Node000019_Node000015"><a xlink:title=" ">
<path fill="none" stroke="#63b8ff" d="M726.2,-54.75C723.52,-47.65 719.65,-37.4 716.31,-28.56"/>
<polygon fill="#63b8ff" stroke="#63b8ff" points="719.55,-27.21 712.74,-19.09 713,-29.68 719.55,-27.21"/>
</a>
</g>
</g>
<!-- Node20 -->
<g id="Node000020" class="node">
<title>Node20</title>
<g id="a_Node000020"><a xlink:title=" ">
<polygon fill="#e0e0e0" stroke="#999999" points="868.5,-19 824.5,-19 824.5,0 868.5,0 868.5,-19"/>
<text text-anchor="middle" x="846.5" y="-7" font-family="Helvetica,sans-Serif" font-size="10.00">limits</text>
</a>
</g>
</g>
<!-- Node19&#45;&gt;Node20 -->
<g id="edge26_Node000019_Node000020" class="edge">
<title>Node19&#45;&gt;Node20</title>
<g id="a_edge26_Node000019_Node000020"><a xlink:title=" ">
<path fill="none" stroke="#63b8ff" d="M748.3,-54.98C767.12,-46.46 796.32,-33.23 818,-23.41"/>
<polygon fill="#63b8ff" stroke="#63b8ff" points="819.7,-26.48 827.36,-19.17 816.81,-20.11 819.7,-26.48"/>
</a>
</g>
</g>
<!-- Node21 -->
<g id="Node000021" class="node">
<title>Node21</title>
<g id="a_Node000021"><a xlink:title=" ">
<polygon fill="#e0e0e0" stroke="#999999" points="1322.5,-19 1266.5,-19 1266.5,0 1322.5,0 1322.5,-19"/>
<text text-anchor="middle" x="1294.5" y="-7" font-family="Helvetica,sans-Serif" font-size="10.00">iomanip</text>
</a>
</g>
</g>
<!-- Node19&#45;&gt;Node21 -->
<g id="edge28_Node000019_Node000021" class="edge">
<title>Node19&#45;&gt;Node21</title>
<g id="a_edge28_Node000019_Node000021"><a xlink:title=" ">
<path fill="none" stroke="#63b8ff" d="M771.2,-56.24C774.35,-55.78 777.47,-55.37 780.5,-55 988.27,-29.9 1045.52,-50.23 1256.15,-18.97"/>
<polygon fill="#63b8ff" stroke="#63b8ff" points="1256.94,-22.39 1266.3,-17.44 1255.89,-15.47 1256.94,-22.39"/>
</a>
</g>
</g>
<!-- Node22&#45;&gt;Node6 -->
<g id="edge33_Node000022_Node000006" class="edge">
<title>Node22&#45;&gt;Node6</title>
<g id="a_edge33_Node000022_Node000006"><a xlink:title=" ">
<path fill="none" stroke="#63b8ff" d="M1397.41,-56.3C1343.14,-48.01 1252.28,-33.64 1174.5,-19 1174.4,-18.98 1174.3,-18.96 1174.2,-18.94"/>
<polygon fill="#63b8ff" stroke="#63b8ff" points="1175.1,-15.55 1164.61,-17.06 1173.75,-22.42 1175.1,-15.55"/>
</a>
</g>
</g>
<!-- Node22&#45;&gt;Node11 -->
<g id="edge34_Node000022_Node000011" class="edge">
<title>Node22&#45;&gt;Node11</title>
<g id="a_edge34_Node000022_Node000011"><a xlink:title=" ">
<path fill="none" stroke="#63b8ff" d="M1469.76,-54.98C1495.56,-45.93 1536.48,-31.56 1564.82,-21.62"/>
<polygon fill="#63b8ff" stroke="#63b8ff" points="1565.99,-24.92 1574.27,-18.3 1563.67,-18.31 1565.99,-24.92"/>
</a>
</g>
</g>
<!-- Node22&#45;&gt;Node21 -->
<g id="edge32_Node000022_Node000021" class="edge">
<title>Node22&#45;&gt;Node21</title>
<g id="a_edge32_Node000022_Node000021"><a xlink:title=" ">
<path fill="none" stroke="#63b8ff" d="M1421.24,-54.98C1396.18,-46.19 1356.87,-32.39 1328.67,-22.49"/>
<polygon fill="#63b8ff" stroke="#63b8ff" points="1329.8,-19.18 1319.2,-19.17 1327.48,-25.78 1329.8,-19.18"/>
</a>
</g>
</g>
<!-- Node23 -->
<g id="Node000023" class="node">
<title>Node23</title>
<g id="a_Node000023"><a xlink:title=" ">
<polygon fill="#e0e0e0" stroke="#999999" points="1686.5,-19 1636.5,-19 1636.5,0 1686.5,0 1686.5,-19"/>
<text text-anchor="middle" x="1661.5" y="-7" font-family="Helvetica,sans-Serif" font-size="10.00">chrono</text>
</a>
</g>
</g>
<!-- Node22&#45;&gt;Node23 -->
<g id="edge30_Node000022_Node000023" class="edge">
<title>Node22&#45;&gt;Node23</title>
<g id="a_edge30_Node000022_Node000023"><a xlink:title=" ">
<path fill="none" stroke="#63b8ff" d="M1480.74,-54.94C1515.41,-46.51 1570.11,-33.17 1626.46,-19.25"/>
<polygon fill="#63b8ff" stroke="#63b8ff" points="1627.38,-22.62 1636.25,-16.83 1625.7,-15.83 1627.38,-22.62"/>
</a>
</g>
</g>
<!-- Node24 -->
<g id="Node000024" class="node">
<title>Node24</title>
<g id="a_Node000024"><a xlink:title=" ">
<polygon fill="#e0e0e0" stroke="#999999" points="1758,-19 1705,-19 1705,0 1758,0 1758,-19"/>
<text text-anchor="middle" x="1731.5" y="-7" font-family="Helvetica,sans-Serif" font-size="10.00">cstdarg</text>
</a>
</g>
</g>
<!-- Node22&#45;&gt;Node24 -->
<g id="edge31_Node000022_Node000024" class="edge">
<title>Node22&#45;&gt;Node24</title>
<g id="a_edge31_Node000022_Node000024"><a xlink:title=" ">
<path fill="none" stroke="#63b8ff" d="M1493.58,-55.76C1541.86,-47.8 1618.61,-34.66 1694.58,-19.09"/>
<polygon fill="#63b8ff" stroke="#63b8ff" points="1695.72,-22.43 1704.8,-16.98 1694.3,-15.57 1695.72,-22.43"/>
</a>
</g>
</g>
<!-- Node25 -->
<g id="Node000025" class="node">
<title>Node25</title>
<g id="a_Node000025"><a xlink:title=" ">
<polygon fill="#e0e0e0" stroke="#999999" points="1824.5,-19 1776.5,-19 1776.5,0 1824.5,0 1824.5,-19"/>
<text text-anchor="middle" x="1800.5" y="-7" font-family="Helvetica,sans-Serif" font-size="10.00">mutex</text>
</a>
</g>
</g>
<!-- Node22&#45;&gt;Node25 -->
<g id="edge35_Node000022_Node000025" class="edge">
<title>Node22&#45;&gt;Node25</title>
<g id="a_edge35_Node000022_Node000025"><a xlink:title=" ">
<path fill="none" stroke="#63b8ff" d="M1493.52,-58.61C1554.72,-51.98 1663.93,-38.88 1766.52,-18.99"/>
<polygon fill="#63b8ff" stroke="#63b8ff" points="1767.28,-22.4 1776.42,-17.04 1765.94,-15.54 1767.28,-22.4"/>
</a>
</g>
</g>
<!-- Node27&#45;&gt;Node7 -->
<g id="edge45_Node000027_Node000007" class="edge">
<title>Node27&#45;&gt;Node7</title>
<g id="a_edge45_Node000027_Node000007"><a xlink:title=" ">
<path fill="none" stroke="#63b8ff" d="M958.8,-54.98C919.88,-45.44 856.92,-29.99 816.37,-20.04"/>
<polygon fill="#63b8ff" stroke="#63b8ff" points="817.12,-16.62 806.58,-17.63 815.46,-23.42 817.12,-16.62"/>
</a>
</g>
</g>
<!-- Node27&#45;&gt;Node11 -->
<g id="edge47_Node000027_Node000011" class="edge">
<title>Node27&#45;&gt;Node11</title>
<g id="a_edge47_Node000027_Node000011"><a xlink:title=" ">
<path fill="none" stroke="#63b8ff" d="M1033.55,-56.8C1038.25,-56.13 1042.97,-55.51 1047.5,-55 1273.56,-29.4 1336.22,-56.9 1564.33,-18.84"/>
<polygon fill="#63b8ff" stroke="#63b8ff" points="1564.99,-22.28 1574.27,-17.16 1563.82,-15.38 1564.99,-22.28"/>
</a>
</g>
</g>
<!-- Node27&#45;&gt;Node20 -->
<g id="edge44_Node000027_Node000020" class="edge">
<title>Node27&#45;&gt;Node20</title>
<g id="a_edge44_Node000027_Node000020"><a xlink:title=" ">
<path fill="none" stroke="#63b8ff" d="M969.88,-54.98C945.02,-46.02 905.73,-31.86 878.19,-21.92"/>
<polygon fill="#63b8ff" stroke="#63b8ff" points="879.21,-18.57 868.62,-18.47 876.84,-25.16 879.21,-18.57"/>
</a>
</g>
</g>
<!-- Node28 -->
<g id="Node000028" class="node">
<title>Node28</title>
<g id="a_Node000028"><a xlink:title=" ">
<polygon fill="#e0e0e0" stroke="#999999" points="950.5,-19 886.5,-19 886.5,0 950.5,0 950.5,-19"/>
<text text-anchor="middle" x="918.5" y="-7" font-family="Helvetica,sans-Serif" font-size="10.00">algorithm</text>
</a>
</g>
</g>
<!-- Node27&#45;&gt;Node28 -->
<g id="edge40_Node000027_Node000028" class="edge">
<title>Node27&#45;&gt;Node28</title>
<g id="a_edge40_Node000027_Node000028"><a xlink:title=" ">
<path fill="none" stroke="#63b8ff" d="M981.45,-54.98C970.04,-46.92 952.67,-34.65 939.07,-25.03"/>
<polygon fill="#63b8ff" stroke="#63b8ff" points="940.96,-22.08 930.77,-19.17 936.92,-27.8 940.96,-22.08"/>
</a>
</g>
</g>
<!-- Node29 -->
<g id="Node000029" class="node">
<title>Node29</title>
<g id="a_Node000029"><a xlink:title=" ">
<polygon fill="#e0e0e0" stroke="#999999" points="1018,-19 969,-19 969,0 1018,0 1018,-19"/>
<text text-anchor="middle" x="993.5" y="-7" font-family="Helvetica,sans-Serif" font-size="10.00">cstdlib</text>
</a>
</g>
</g>
<!-- Node27&#45;&gt;Node29 -->
<g id="edge41_Node000027_Node000029" class="edge">
<title>Node27&#45;&gt;Node29</title>
<g id="a_edge41_Node000027_Node000029"><a xlink:title=" ">
<path fill="none" stroke="#63b8ff" d="M993.5,-54.75C993.5,-47.8 993.5,-37.85 993.5,-29.13"/>
<polygon fill="#63b8ff" stroke="#63b8ff" points="997,-29.09 993.5,-19.09 990,-29.09 997,-29.09"/>
</a>
</g>
</g>
<!-- Node30 -->
<g id="Node000030" class="node">
<title>Node30</title>
<g id="a_Node000030"><a xlink:title=" ">
<polygon fill="#e0e0e0" stroke="#999999" points="1086.5,-19 1036.5,-19 1036.5,0 1086.5,0 1086.5,-19"/>
<text text-anchor="middle" x="1061.5" y="-7" font-family="Helvetica,sans-Serif" font-size="10.00">cstring</text>
</a>
</g>
</g>
<!-- Node27&#45;&gt;Node30 -->
<g id="edge42_Node000027_Node000030" class="edge">
<title>Node27&#45;&gt;Node30</title>
<g id="a_edge42_Node000027_Node000030"><a xlink:title=" ">
<path fill="none" stroke="#63b8ff" d="M1004.43,-54.98C1014.58,-47.07 1029.92,-35.11 1042.15,-25.58"/>
<polygon fill="#63b8ff" stroke="#63b8ff" points="1044.64,-28.08 1050.38,-19.17 1040.34,-22.56 1044.64,-28.08"/>
</a>
</g>
</g>
<!-- Node31 -->
<g id="Node000031" class="node">
<title>Node31</title>
<g id="a_Node000031"><a xlink:title=" ">
<polygon fill="#e0e0e0" stroke="#999999" points="1248,-19 1183,-19 1183,0 1248,0 1248,-19"/>
<text text-anchor="middle" x="1215.5" y="-7" font-family="Helvetica,sans-Serif" font-size="10.00">functional</text>
</a>
</g>
</g>
<!-- Node27&#45;&gt;Node31 -->
<g id="edge43_Node000027_Node000031" class="edge">
<title>Node27&#45;&gt;Node31</title>
<g id="a_edge43_Node000027_Node000031"><a xlink:title=" ">
<path fill="none" stroke="#63b8ff" d="M1029.17,-54.98C1068.35,-45.63 1131.23,-30.62 1172.95,-20.66"/>
<polygon fill="#63b8ff" stroke="#63b8ff" points="1173.9,-24.03 1182.81,-18.3 1172.27,-17.22 1173.9,-24.03"/>
</a>
</g>
</g>
<!-- Node32 -->
<g id="Node000032" class="node">
<title>Node32</title>
<g id="a_Node000032"><a xlink:title=" ">
<polygon fill="#e0e0e0" stroke="#999999" points="1406,-19 1341,-19 1341,0 1406,0 1406,-19"/>
<text text-anchor="middle" x="1373.5" y="-7" font-family="Helvetica,sans-Serif" font-size="10.00">stdexcept</text>
</a>
</g>
</g>
<!-- Node27&#45;&gt;Node32 -->
<g id="edge46_Node000027_Node000032" class="edge">
<title>Node27&#45;&gt;Node32</title>
<g id="a_edge46_Node000027_Node000032"><a xlink:title=" ">
<path fill="none" stroke="#63b8ff" d="M1033.58,-57.05C1038.27,-56.34 1042.99,-55.64 1047.5,-55 1170.27,-37.56 1204.24,-39.52 1330.89,-18.98"/>
<polygon fill="#63b8ff" stroke="#63b8ff" points="1331.68,-22.4 1340.98,-17.33 1330.55,-15.49 1331.68,-22.4"/>
</a>
</g>
</g>
<!-- Node33 -->
<g id="Node000033" class="node">
<title>Node33</title>
<g id="a_Node000033"><a xlink:title=" ">
<polygon fill="#e0e0e0" stroke="#999999" points="1493,-19 1424,-19 1424,0 1493,0 1493,-19"/>
<text text-anchor="middle" x="1458.5" y="-7" font-family="Helvetica,sans-Serif" font-size="10.00">type_traits</text>
</a>
</g>
</g>
<!-- Node27&#45;&gt;Node33 -->
<g id="edge48_Node000027_Node000033" class="edge">
<title>Node27&#45;&gt;Node33</title>
<g id="a_edge48_Node000027_Node000033"><a xlink:title=" ">
<path fill="none" stroke="#63b8ff" d="M1033.57,-56.93C1038.26,-56.24 1042.98,-55.58 1047.5,-55 1207.17,-34.64 1251.13,-42.62 1413.46,-19.17"/>
<polygon fill="#63b8ff" stroke="#63b8ff" points="1414.43,-22.57 1423.82,-17.66 1413.42,-15.64 1414.43,-22.57"/>
</a>
</g>
</g>
<!-- Node34 -->
<g id="Node000034" class="node">
<title>Node34</title>
<g id="a_Node000034"><a xlink:title=" ">
<polygon fill="#e0e0e0" stroke="#999999" points="1556,-19 1511,-19 1511,0 1556,0 1556,-19"/>
<text text-anchor="middle" x="1533.5" y="-7" font-family="Helvetica,sans-Serif" font-size="10.00">utility</text>
</a>
</g>
</g>
<!-- Node27&#45;&gt;Node34 -->
<g id="edge49_Node000027_Node000034" class="edge">
<title>Node27&#45;&gt;Node34</title>
<g id="a_edge49_Node000027_Node000034"><a xlink:title=" ">
<path fill="none" stroke="#63b8ff" d="M1033.56,-56.84C1038.25,-56.17 1042.98,-55.53 1047.5,-55 1245.71,-31.59 1300.91,-53.25 1500.98,-18.95"/>
<polygon fill="#63b8ff" stroke="#63b8ff" points="1501.67,-22.38 1510.92,-17.22 1500.47,-15.49 1501.67,-22.38"/>
</a>
</g>
</g>
</g>
</svg>

<g id="navigator" transform="translate(0 0)" fill="#404254">
  <rect fill="#f2f5e9" fill-opacity="0.5" stroke="#606060" stroke-width=".5" x="0" y="0" width="60" height="60"/>
  <use id="zoomplus" xlink:href="#zoomPlus" x="17" y="9" onmousedown="handleZoom(evt,'in')"/>
  <use id="zoomminus" xlink:href="#zoomMin" x="42" y="9" onmousedown="handleZoom(evt,'out')"/>
  <use id="reset" xlink:href="#resetDef" x="30" y="36" onmousedown="handleReset()"/>
   <use id="arrowup" xlink:href="#arrowUp" x="0" y="0" onmousedown="handlePan(0,-1)"/>
  <use id="arrowright" xlink:href="#arrowRight" x="0" y="0" onmousedown="handlePan(1,0)"/>
  <use id="arrowdown" xlink:href="#arrowDown" x="0" y="0" onmousedown="handlePan(0,1)"/>
  <use id="arrowleft" xlink:href="#arrowLeft" x="0" y="0" onmousedown="handlePan(-1,0)"/>
</g>
<svg viewBox="0 0 15 15" width="100%" height="30px" preserveAspectRatio="xMaxYMin meet">
 <g id="arrow_out" transform="scale(0.3 0.3)">
  <a xlink:href="normalComputation_8cpp__incl_org.svg" target="_base">
   <rect id="button" ry="5" rx="5" y="6" x="6" height="38" width="38"
        fill="#f2f5e9" fill-opacity="0.5" stroke="#606060" stroke-width="1.0"/>
   <path id="arrow"
     d="M 11.500037,31.436501 C 11.940474,20.09759 22.043105,11.32322 32.158766,21.979434 L 37.068811,17.246167 C 37.068811,17.246167 37.088388,32 37.088388,32 L 22.160133,31.978069 C 22.160133,31.978069 26.997745,27.140456 26.997745,27.140456 C 18.528582,18.264221 13.291696,25.230495 11.500037,31.436501 z"
     style="fill:#404040;"/>
  </a>
 </g>
</svg>

<style type='text/css'>
<![CDATA[
[data-mouse-over-selected='false'] { opacity: 0.7; }
[data-mouse-over-selected='true']  { opacity: 1.0; }
]]>
</style>
<script type="application/ecmascript"><![CDATA[
document.addEventListener('DOMContentLoaded', (event) => {
  highlightEdges();
  highlightAdjacentNodes();
});
]]></script>
</svg>
