<?xml version="1.0" encoding="UTF-8" standalone="no"?>
<!DOCTYPE svg PUBLIC "-//W3C//DTD SVG 1.1//EN"
 "http://www.w3.org/Graphics/SVG/1.1/DTD/svg11.dtd">
<!-- Generated by graphviz version 2.43.0 (0)
 -->
<!-- Title: src/lib/patchGeneration/normalComputation.cpp Pages: 1 -->
<svg width="1766pt" height="203pt"
 viewBox="0.00 0.00 1766.00 203.00" xmlns="http://www.w3.org/2000/svg" xmlns:xlink="http://www.w3.org/1999/xlink">
<g id="graph0" class="graph" transform="scale(1 1) rotate(0) translate(4 199)">
<title>src/lib/patchGeneration/normalComputation.cpp</title>
<!-- Node1 -->
<g id="Node000001" class="node">
<title>Node1</title>
<g id="a_Node000001"><a xlink:title=" ">
<polygon fill="#999999" stroke="#666666" points="716,-195 579,-195 579,-165 716,-165 716,-195"/>
<text text-anchor="start" x="587" y="-183" font-family="Helvetica,sans-Serif" font-size="10.00">src/lib/patchGeneration</text>
<text text-anchor="middle" x="647.5" y="-172" font-family="Helvetica,sans-Serif" font-size="10.00">/normalComputation.cpp</text>
</a>
</g>
</g>
<!-- Node2 -->
<g id="Node000002" class="node">
<title>Node2</title>
<g id="a_Node000002"><a xlink:href="normalComputation_8hpp.html" target="_top" xlink:title=" ">
<polygon fill="white" stroke="#666666" points="619,-129 484,-129 484,-110 619,-110 619,-129"/>
<text text-anchor="middle" x="551.5" y="-117" font-family="Helvetica,sans-Serif" font-size="10.00">normalComputation.hpp</text>
</a>
</g>
</g>
<!-- Node1&#45;&gt;Node2 -->
<g id="edge1_Node000001_Node000002" class="edge">
<title>Node1&#45;&gt;Node2</title>
<g id="a_edge1_Node000001_Node000002"><a xlink:title=" ">
<path fill="none" stroke="#63b8ff" d="M624.26,-164.84C609.1,-155.6 589.39,-143.59 574.31,-134.4"/>
<polygon fill="#63b8ff" stroke="#63b8ff" points="575.96,-131.31 565.6,-129.09 572.32,-137.29 575.96,-131.31"/>
</a>
</g>
</g>
<!-- Node3 -->
<g id="Node000003" class="node">
<title>Node3</title>
<g id="a_Node000003"><a xlink:href="uvgvpcc_8hpp.html" target="_top" xlink:title=" ">
<polygon fill="white" stroke="#666666" points="557.5,-74 435.5,-74 435.5,-55 557.5,-55 557.5,-74"/>
<text text-anchor="middle" x="496.5" y="-62" font-family="Helvetica,sans-Serif" font-size="10.00">uvgvpcc/uvgvpcc.hpp</text>
</a>
</g>
</g>
<!-- Node1&#45;&gt;Node3 -->
<g id="edge51_Node000001_Node000003" class="edge">
<title>Node1&#45;&gt;Node3</title>
<g id="a_edge51_Node000001_Node000003"><a xlink:title=" ">
<path fill="none" stroke="#63b8ff" d="M578.85,-167.68C536.65,-159.16 488.29,-146.04 475.5,-129 465.19,-115.27 473.8,-96.21 482.91,-82.57"/>
<polygon fill="#63b8ff" stroke="#63b8ff" points="486.01,-84.26 489.07,-74.11 480.35,-80.13 486.01,-84.26"/>
</a>
</g>
</g>
<!-- Node4 -->
<g id="Node000004" class="node">
<title>Node4</title>
<g id="a_Node000004"><a xlink:title=" ">
<polygon fill="#e0e0e0" stroke="#999999" points="53,-19 0,-19 0,0 53,0 53,-19"/>
<text text-anchor="middle" x="26.5" y="-7" font-family="Helvetica,sans-Serif" font-size="10.00">cstddef</text>
</a>
</g>
</g>
<!-- Node1&#45;&gt;Node4 -->
<g id="edge17_Node000001_Node000004" class="edge">
<title>Node1&#45;&gt;Node4</title>
<g id="a_edge17_Node000001_Node000004"><a xlink:title=" ">
<path fill="none" stroke="#63b8ff" d="M578.8,-174.95C506.6,-169.4 390.31,-156.73 293.5,-129 199.74,-102.14 96.16,-48.76 50.44,-23.86"/>
<polygon fill="#63b8ff" stroke="#63b8ff" points="52.03,-20.75 41.58,-19 48.67,-26.88 52.03,-20.75"/>
</a>
</g>
</g>
<!-- Node5 -->
<g id="Node000005" class="node">
<title>Node5</title>
<g id="a_Node000005"><a xlink:title=" ">
<polygon fill="#e0e0e0" stroke="#999999" points="181.5,-19 131.5,-19 131.5,0 181.5,0 181.5,-19"/>
<text text-anchor="middle" x="156.5" y="-7" font-family="Helvetica,sans-Serif" font-size="10.00">cstdint</text>
</a>
</g>
</g>
<!-- Node1&#45;&gt;Node5 -->
<g id="edge18_Node000001_Node000005" class="edge">
<title>Node1&#45;&gt;Node5</title>
<g id="a_edge18_Node000001_Node000005"><a xlink:title=" ">
<path fill="none" stroke="#63b8ff" d="M578.87,-167.64C499.4,-152.86 365.82,-122.99 259.5,-74 229.22,-60.05 196.9,-38.99 176.71,-25"/>
<polygon fill="#63b8ff" stroke="#63b8ff" points="178.53,-22 168.33,-19.12 174.51,-27.73 178.53,-22"/>
</a>
</g>
</g>
<!-- Node7 -->
<g id="Node000007" class="node">
<title>Node7</title>
<g id="a_Node000007"><a xlink:title=" ">
<polygon fill="#e0e0e0" stroke="#999999" points="1021.5,-19 963.5,-19 963.5,0 1021.5,0 1021.5,-19"/>
<text text-anchor="middle" x="992.5" y="-7" font-family="Helvetica,sans-Serif" font-size="10.00">memory</text>
</a>
</g>
</g>
<!-- Node1&#45;&gt;Node7 -->
<g id="edge19_Node000001_Node000007" class="edge">
<title>Node1&#45;&gt;Node7</title>
<g id="a_edge19_Node000001_Node000007"><a xlink:title=" ">
<path fill="none" stroke="#63b8ff" d="M716.33,-165.44C749.96,-157.36 790.41,-145.43 824.5,-129 875.28,-104.52 881.35,-87.37 927.5,-55 941.92,-44.89 958.27,-33.69 970.97,-25.06"/>
<polygon fill="#63b8ff" stroke="#63b8ff" points="973.18,-27.79 979.49,-19.28 969.25,-22 973.18,-27.79"/>
</a>
</g>
</g>
<!-- Node11 -->
<g id="Node000011" class="node">
<title>Node11</title>
<g id="a_Node000011"><a xlink:title=" ">
<polygon fill="#e0e0e0" stroke="#999999" points="1223.5,-19 1179.5,-19 1179.5,0 1223.5,0 1223.5,-19"/>
<text text-anchor="middle" x="1201.5" y="-7" font-family="Helvetica,sans-Serif" font-size="10.00">string</text>
</a>
</g>
</g>
<!-- Node1&#45;&gt;Node11 -->
<g id="edge20_Node000001_Node000011" class="edge">
<title>Node1&#45;&gt;Node11</title>
<g id="a_edge20_Node000001_Node000011"><a xlink:title=" ">
<path fill="none" stroke="#63b8ff" d="M716.28,-172.98C778.1,-166.3 870.85,-153.13 948.5,-129 1037.18,-101.44 1134.72,-48.83 1178.27,-24.05"/>
<polygon fill="#63b8ff" stroke="#63b8ff" points="1180.03,-27.07 1186.96,-19.06 1176.54,-21 1180.03,-27.07"/>
</a>
</g>
</g>
<!-- Node12 -->
<g id="Node000012" class="node">
<title>Node12</title>
<g id="a_Node000012"><a xlink:title=" ">
<polygon fill="#e0e0e0" stroke="#999999" points="731,-19 684,-19 684,0 731,0 731,-19"/>
<text text-anchor="middle" x="707.5" y="-7" font-family="Helvetica,sans-Serif" font-size="10.00">vector</text>
</a>
</g>
</g>
<!-- Node1&#45;&gt;Node12 -->
<g id="edge21_Node000001_Node000012" class="edge">
<title>Node1&#45;&gt;Node12</title>
<g id="a_edge21_Node000001_Node000012"><a xlink:title=" ">
<path fill="none" stroke="#63b8ff" d="M651.15,-164.86C654.88,-150.82 661.03,-128.75 667.5,-110 677.48,-81.06 691.15,-48.24 699.64,-28.47"/>
<polygon fill="#63b8ff" stroke="#63b8ff" points="702.91,-29.74 703.67,-19.17 696.48,-26.96 702.91,-29.74"/>
</a>
</g>
</g>
<!-- Node15 -->
<g id="Node000015" class="node">
<title>Node15</title>
<g id="a_Node000015"><a xlink:title=" ">
<polygon fill="#e0e0e0" stroke="#999999" points="113.5,-19 71.5,-19 71.5,0 113.5,0 113.5,-19"/>
<text text-anchor="middle" x="92.5" y="-7" font-family="Helvetica,sans-Serif" font-size="10.00">array</text>
</a>
</g>
</g>
<!-- Node1&#45;&gt;Node15 -->
<g id="edge14_Node000001_Node000015" class="edge">
<title>Node1&#45;&gt;Node15</title>
<g id="a_edge14_Node000001_Node000015"><a xlink:title=" ">
<path fill="none" stroke="#63b8ff" d="M578.9,-171.95C518.26,-164.65 427.83,-151.15 351.5,-129 290.86,-111.4 277.92,-100.27 220.5,-74 184.49,-57.53 143.63,-36.91 117.96,-23.72"/>
<polygon fill="#63b8ff" stroke="#63b8ff" points="119.4,-20.53 108.91,-19.06 116.19,-26.75 119.4,-20.53"/>
</a>
</g>
</g>
<!-- Node16 -->
<g id="Node000016" class="node">
<title>Node16</title>
<g id="a_Node000016"><a xlink:title=" ">
<polygon fill="#e0e0e0" stroke="#999999" points="1140.5,-129 1088.5,-129 1088.5,-110 1140.5,-110 1140.5,-129"/>
<text text-anchor="middle" x="1114.5" y="-117" font-family="Helvetica,sans-Serif" font-size="10.00">cassert</text>
</a>
</g>
</g>
<!-- Node1&#45;&gt;Node16 -->
<g id="edge15_Node000001_Node000016" class="edge">
<title>Node1&#45;&gt;Node16</title>
<g id="a_edge15_Node000001_Node000016"><a xlink:title=" ">
<path fill="none" stroke="#63b8ff" d="M716.18,-172.94C800.78,-165.02 948.74,-149.68 1074.5,-129 1075.76,-128.79 1077.04,-128.57 1078.34,-128.34"/>
<polygon fill="#63b8ff" stroke="#63b8ff" points="1079.15,-131.75 1088.32,-126.43 1077.84,-124.87 1079.15,-131.75"/>
</a>
</g>
</g>
<!-- Node17 -->
<g id="Node000017" class="node">
<title>Node17</title>
<g id="a_Node000017"><a xlink:title=" ">
<polygon fill="#e0e0e0" stroke="#999999" points="1206,-129 1159,-129 1159,-110 1206,-110 1206,-129"/>
<text text-anchor="middle" x="1182.5" y="-117" font-family="Helvetica,sans-Serif" font-size="10.00">cmath</text>
</a>
</g>
</g>
<!-- Node1&#45;&gt;Node17 -->
<g id="edge16_Node000001_Node000017" class="edge">
<title>Node1&#45;&gt;Node17</title>
<g id="a_edge16_Node000001_Node000017"><a xlink:title=" ">
<path fill="none" stroke="#63b8ff" d="M716.16,-175.49C811.27,-169.89 988.54,-156.8 1148.76,-128.84"/>
<polygon fill="#63b8ff" stroke="#63b8ff" points="1149.56,-132.25 1158.8,-127.07 1148.35,-125.36 1149.56,-132.25"/>
</a>
</g>
</g>
<!-- Node18 -->
<g id="Node000018" class="node">
<title>Node18</title>
<g id="a_Node000018"><a xlink:href="utilsPatchGeneration_8hpp.html" target="_top" xlink:title=" ">
<polygon fill="white" stroke="#666666" points="815,-129 676,-129 676,-110 815,-110 815,-129"/>
<text text-anchor="middle" x="745.5" y="-117" font-family="Helvetica,sans-Serif" font-size="10.00">utilsPatchGeneration.hpp</text>
</a>
</g>
</g>
<!-- Node1&#45;&gt;Node18 -->
<g id="edge22_Node000001_Node000018" class="edge">
<title>Node1&#45;&gt;Node18</title>
<g id="a_edge22_Node000001_Node000018"><a xlink:title=" ">
<path fill="none" stroke="#63b8ff" d="M671.22,-164.84C686.7,-155.6 706.82,-143.59 722.21,-134.4"/>
<polygon fill="#63b8ff" stroke="#63b8ff" points="724.31,-137.23 731.1,-129.09 720.72,-131.21 724.31,-137.23"/>
</a>
</g>
</g>
<!-- Node19 -->
<g id="Node000019" class="node">
<title>Node19</title>
<g id="a_Node000019"><a xlink:href="utils_8hpp.html" target="_top" xlink:title=" ">
<polygon fill="white" stroke="#666666" points="417,-74 334,-74 334,-55 417,-55 417,-74"/>
<text text-anchor="middle" x="375.5" y="-62" font-family="Helvetica,sans-Serif" font-size="10.00">utils/utils.hpp</text>
</a>
</g>
</g>
<!-- Node1&#45;&gt;Node19 -->
<g id="edge52_Node000001_Node000019" class="edge">
<title>Node1&#45;&gt;Node19</title>
<g id="a_edge52_Node000001_Node000019"><a xlink:title=" ">
<path fill="none" stroke="#63b8ff" d="M578.94,-165.85C544.24,-157.77 502.05,-145.71 466.5,-129 438.93,-116.04 410.7,-94.86 393.14,-80.57"/>
<polygon fill="#63b8ff" stroke="#63b8ff" points="395.36,-77.86 385.43,-74.17 390.89,-83.25 395.36,-77.86"/>
</a>
</g>
</g>
<!-- Node22 -->
<g id="Node000022" class="node">
<title>Node22</title>
<g id="a_Node000022"><a xlink:href="log_8hpp.html" target="_top" xlink:title=" ">
<polygon fill="white" stroke="#666666" points="1032.5,-74 936.5,-74 936.5,-55 1032.5,-55 1032.5,-74"/>
<text text-anchor="middle" x="984.5" y="-62" font-family="Helvetica,sans-Serif" font-size="10.00">uvgvpcc/log.hpp</text>
</a>
</g>
</g>
<!-- Node1&#45;&gt;Node22 -->
<g id="edge50_Node000001_Node000022" class="edge">
<title>Node1&#45;&gt;Node22</title>
<g id="a_edge50_Node000001_Node000022"><a xlink:title=" ">
<path fill="none" stroke="#63b8ff" d="M716.26,-177.99C774.31,-174.54 858.01,-163.28 922.5,-129 943.46,-117.86 961.64,-97.14 972.8,-82.4"/>
<polygon fill="#63b8ff" stroke="#63b8ff" points="975.76,-84.28 978.8,-74.13 970.1,-80.16 975.76,-84.28"/>
</a>
</g>
</g>
<!-- Node2&#45;&gt;Node3 -->
<g id="edge2_Node000002_Node000003" class="edge">
<title>Node2&#45;&gt;Node3</title>
<g id="a_edge2_Node000002_Node000003"><a xlink:title=" ">
<path fill="none" stroke="#63b8ff" d="M542.42,-109.75C534.41,-102.03 522.54,-90.6 512.88,-81.28"/>
<polygon fill="#63b8ff" stroke="#63b8ff" points="515.04,-78.51 505.41,-74.09 510.19,-83.55 515.04,-78.51"/>
</a>
</g>
</g>
<!-- Node3&#45;&gt;Node4 -->
<g id="edge3_Node000003_Node000004" class="edge">
<title>Node3&#45;&gt;Node4</title>
<g id="a_edge3_Node000003_Node000004"><a xlink:title=" ">
<path fill="none" stroke="#63b8ff" d="M435.43,-56C432.41,-55.66 429.42,-55.32 426.5,-55 268.22,-37.57 224.63,-45.4 63.44,-18.92"/>
<polygon fill="#63b8ff" stroke="#63b8ff" points="63.59,-15.4 53.16,-17.21 62.45,-22.3 63.59,-15.4"/>
</a>
</g>
</g>
<!-- Node3&#45;&gt;Node5 -->
<g id="edge4_Node000003_Node000005" class="edge">
<title>Node3&#45;&gt;Node5</title>
<g id="a_edge4_Node000003_Node000005"><a xlink:title=" ">
<path fill="none" stroke="#63b8ff" d="M435.23,-55.33C364.06,-45.72 249.92,-29.91 191.57,-19"/>
<polygon fill="#63b8ff" stroke="#63b8ff" points="192.17,-15.56 181.69,-17.1 190.84,-22.43 192.17,-15.56"/>
</a>
</g>
</g>
<!-- Node6 -->
<g id="Node000006" class="node">
<title>Node6</title>
<g id="a_Node000006"><a xlink:title=" ">
<polygon fill="#e0e0e0" stroke="#999999" points="945.5,-19 885.5,-19 885.5,0 945.5,0 945.5,-19"/>
<text text-anchor="middle" x="915.5" y="-7" font-family="Helvetica,sans-Serif" font-size="10.00">iostream</text>
</a>
</g>
</g>
<!-- Node3&#45;&gt;Node6 -->
<g id="edge5_Node000003_Node000006" class="edge">
<title>Node3&#45;&gt;Node6</title>
<g id="a_edge5_Node000003_Node000006"><a xlink:title=" ">
<path fill="none" stroke="#63b8ff" d="M557.64,-58.2C630.88,-51.44 757.47,-38.43 875.4,-19.03"/>
<polygon fill="#63b8ff" stroke="#63b8ff" points="876.03,-22.48 885.32,-17.38 874.88,-15.57 876.03,-22.48"/>
</a>
</g>
</g>
<!-- Node3&#45;&gt;Node7 -->
<g id="edge6_Node000003_Node000007" class="edge">
<title>Node3&#45;&gt;Node7</title>
<g id="a_edge6_Node000003_Node000007"><a xlink:title=" ">
<path fill="none" stroke="#63b8ff" d="M557.55,-59.97C643.66,-54.46 805.8,-42.13 952.99,-19.06"/>
<polygon fill="#63b8ff" stroke="#63b8ff" points="953.78,-22.48 963.11,-17.45 952.69,-15.56 953.78,-22.48"/>
</a>
</g>
</g>
<!-- Node8 -->
<g id="Node000008" class="node">
<title>Node8</title>
<g id="a_Node000008"><a xlink:title=" ">
<polygon fill="#e0e0e0" stroke="#999999" points="321,-19 274,-19 274,0 321,0 321,-19"/>
<text text-anchor="middle" x="297.5" y="-7" font-family="Helvetica,sans-Serif" font-size="10.00">queue</text>
</a>
</g>
</g>
<!-- Node3&#45;&gt;Node8 -->
<g id="edge7_Node000003_Node000008" class="edge">
<title>Node3&#45;&gt;Node8</title>
<g id="a_edge7_Node000003_Node000008"><a xlink:title=" ">
<path fill="none" stroke="#63b8ff" d="M464.53,-54.98C427.97,-45.25 368.39,-29.38 331.15,-19.46"/>
<polygon fill="#63b8ff" stroke="#63b8ff" points="331.84,-16.02 321.28,-16.83 330.04,-22.79 331.84,-16.02"/>
</a>
</g>
</g>
<!-- Node9 -->
<g id="Node000009" class="node">
<title>Node9</title>
<g id="a_Node000009"><a xlink:title=" ">
<polygon fill="#e0e0e0" stroke="#999999" points="410,-19 339,-19 339,0 410,0 410,-19"/>
<text text-anchor="middle" x="374.5" y="-7" font-family="Helvetica,sans-Serif" font-size="10.00">semaphore</text>
</a>
</g>
</g>
<!-- Node3&#45;&gt;Node9 -->
<g id="edge8_Node000003_Node000009" class="edge">
<title>Node3&#45;&gt;Node9</title>
<g id="a_edge8_Node000003_Node000009"><a xlink:title=" ">
<path fill="none" stroke="#63b8ff" d="M476.9,-54.98C457.18,-46.42 426.55,-33.11 403.92,-23.28"/>
<polygon fill="#63b8ff" stroke="#63b8ff" points="405.02,-19.94 394.46,-19.17 402.24,-26.37 405.02,-19.94"/>
</a>
</g>
</g>
<!-- Node10 -->
<g id="Node000010" class="node">
<title>Node10</title>
<g id="a_Node000010"><a xlink:title=" ">
<polygon fill="#e0e0e0" stroke="#999999" points="255.5,-19 199.5,-19 199.5,0 255.5,0 255.5,-19"/>
<text text-anchor="middle" x="227.5" y="-7" font-family="Helvetica,sans-Serif" font-size="10.00">sstream</text>
</a>
</g>
</g>
<!-- Node3&#45;&gt;Node10 -->
<g id="edge9_Node000003_Node000010" class="edge">
<title>Node3&#45;&gt;Node10</title>
<g id="a_edge9_Node000003_Node000010"><a xlink:title=" ">
<path fill="none" stroke="#63b8ff" d="M449.3,-54.97C404.55,-46.76 335.19,-33.74 265.97,-19.25"/>
<polygon fill="#63b8ff" stroke="#63b8ff" points="266.26,-15.74 255.76,-17.1 264.82,-22.59 266.26,-15.74"/>
</a>
</g>
</g>
<!-- Node3&#45;&gt;Node11 -->
<g id="edge10_Node000003_Node000011" class="edge">
<title>Node3&#45;&gt;Node11</title>
<g id="a_edge10_Node000003_Node000011"><a xlink:title=" ">
<path fill="none" stroke="#63b8ff" d="M557.69,-61.04C697.08,-55.19 1035.77,-39.51 1169.26,-18.8"/>
<polygon fill="#63b8ff" stroke="#63b8ff" points="1169.96,-22.23 1179.27,-17.17 1168.84,-15.32 1169.96,-22.23"/>
</a>
</g>
</g>
<!-- Node3&#45;&gt;Node12 -->
<g id="edge11_Node000003_Node000012" class="edge">
<title>Node3&#45;&gt;Node12</title>
<g id="a_edge11_Node000003_Node000012"><a xlink:title=" ">
<path fill="none" stroke="#63b8ff" d="M531.53,-54.97C565.6,-46.63 619.08,-33.44 673.87,-19.39"/>
<polygon fill="#63b8ff" stroke="#63b8ff" points="674.93,-22.73 683.75,-16.85 673.19,-15.95 674.93,-22.73"/>
</a>
</g>
</g>
<!-- Node13 -->
<g id="Node000013" class="node">
<title>Node13</title>
<g id="a_Node000013"><a xlink:title=" ">
<polygon fill="#e0e0e0" stroke="#999999" points="520.5,-19 428.5,-19 428.5,0 520.5,0 520.5,-19"/>
<text text-anchor="middle" x="474.5" y="-7" font-family="Helvetica,sans-Serif" font-size="10.00">../utils/utils.hpp</text>
</a>
</g>
</g>
<!-- Node3&#45;&gt;Node13 -->
<g id="edge12_Node000003_Node000013" class="edge">
<title>Node3&#45;&gt;Node13</title>
<g id="a_edge12_Node000003_Node000013"><a xlink:title=" ">
<path fill="none" stroke="#63b8ff" d="M492.87,-54.75C489.92,-47.65 485.67,-37.4 481.99,-28.56"/>
<polygon fill="#63b8ff" stroke="#63b8ff" points="485.13,-26.98 478.07,-19.09 478.67,-29.67 485.13,-26.98"/>
</a>
</g>
</g>
<!-- Node14 -->
<g id="Node000014" class="node">
<title>Node14</title>
<g id="a_Node000014"><a xlink:title=" ">
<polygon fill="#e0e0e0" stroke="#999999" points="666,-19 539,-19 539,0 666,0 666,-19"/>
<text text-anchor="middle" x="602.5" y="-7" font-family="Helvetica,sans-Serif" font-size="10.00">../utils/parameters.hpp</text>
</a>
</g>
</g>
<!-- Node3&#45;&gt;Node14 -->
<g id="edge13_Node000003_Node000014" class="edge">
<title>Node3&#45;&gt;Node14</title>
<g id="a_edge13_Node000003_Node000014"><a xlink:title=" ">
<path fill="none" stroke="#63b8ff" d="M513.53,-54.98C530.43,-46.54 556.56,-33.47 576.14,-23.68"/>
<polygon fill="#63b8ff" stroke="#63b8ff" points="577.78,-26.77 585.16,-19.17 574.65,-20.51 577.78,-26.77"/>
</a>
</g>
</g>
<!-- Node18&#45;&gt;Node5 -->
<g id="edge35_Node000018_Node000005" class="edge">
<title>Node18&#45;&gt;Node5</title>
<g id="a_edge35_Node000018_Node000005"><a xlink:title=" ">
<path fill="none" stroke="#63b8ff" d="M675.78,-113.31C573.89,-105.34 389.39,-89.42 324.5,-74 273.37,-61.85 216.73,-38.17 184.01,-23.41"/>
<polygon fill="#63b8ff" stroke="#63b8ff" points="185.21,-20.11 174.66,-19.14 182.3,-26.48 185.21,-20.11"/>
</a>
</g>
</g>
<!-- Node18&#45;&gt;Node12 -->
<g id="edge37_Node000018_Node000012" class="edge">
<title>Node18&#45;&gt;Node12</title>
<g id="a_edge37_Node000018_Node000012"><a xlink:title=" ">
<path fill="none" stroke="#63b8ff" d="M733.86,-109.73C724.19,-101.67 711.15,-88.74 705.5,-74 700,-59.66 701.08,-42.14 703.2,-29.14"/>
<polygon fill="#63b8ff" stroke="#63b8ff" points="706.68,-29.56 705.2,-19.07 699.82,-28.19 706.68,-29.56"/>
</a>
</g>
</g>
<!-- Node18&#45;&gt;Node19 -->
<g id="edge23_Node000018_Node000019" class="edge">
<title>Node18&#45;&gt;Node19</title>
<g id="a_edge23_Node000018_Node000019"><a xlink:title=" ">
<path fill="none" stroke="#63b8ff" d="M680.66,-109.97C618.36,-101.65 521.3,-88.4 427.21,-74.07"/>
<polygon fill="#63b8ff" stroke="#63b8ff" points="427.65,-70.6 417.23,-72.55 426.59,-77.52 427.65,-70.6"/>
</a>
</g>
</g>
<!-- Node18&#45;&gt;Node22 -->
<g id="edge29_Node000018_Node000022" class="edge">
<title>Node18&#45;&gt;Node22</title>
<g id="a_edge29_Node000018_Node000022"><a xlink:title=" ">
<path fill="none" stroke="#63b8ff" d="M783.9,-109.98C825.24,-100.82 891.1,-86.21 935.99,-76.26"/>
<polygon fill="#63b8ff" stroke="#63b8ff" points="936.79,-79.66 945.8,-74.08 935.28,-72.83 936.79,-79.66"/>
</a>
</g>
</g>
<!-- Node25 -->
<g id="Node000025" class="node">
<title>Node25</title>
<g id="a_Node000025"><a xlink:title=" ">
<polygon fill="#e0e0e0" stroke="#999999" points="769,-74 714,-74 714,-55 769,-55 769,-74"/>
<text text-anchor="middle" x="741.5" y="-62" font-family="Helvetica,sans-Serif" font-size="10.00">fstream</text>
</a>
</g>
</g>
<!-- Node18&#45;&gt;Node25 -->
<g id="edge36_Node000018_Node000025" class="edge">
<title>Node18&#45;&gt;Node25</title>
<g id="a_edge36_Node000018_Node000025"><a xlink:title=" ">
<path fill="none" stroke="#63b8ff" d="M744.84,-109.75C744.32,-102.8 743.56,-92.85 742.91,-84.13"/>
<polygon fill="#63b8ff" stroke="#63b8ff" points="746.39,-83.8 742.15,-74.09 739.41,-84.32 746.39,-83.8"/>
</a>
</g>
</g>
<!-- Node26 -->
<g id="Node000026" class="node">
<title>Node26</title>
<g id="a_Node000026"><a xlink:title=" ">
<polygon fill="#e0e0e0" stroke="#999999" points="880,-74 787,-74 787,-55 880,-55 880,-74"/>
<text text-anchor="middle" x="833.5" y="-62" font-family="Helvetica,sans-Serif" font-size="10.00">unordered_map</text>
</a>
</g>
</g>
<!-- Node18&#45;&gt;Node26 -->
<g id="edge38_Node000018_Node000026" class="edge">
<title>Node18&#45;&gt;Node26</title>
<g id="a_edge38_Node000018_Node000026"><a xlink:title=" ">
<path fill="none" stroke="#63b8ff" d="M759.64,-109.98C773.29,-101.77 794.19,-89.18 810.28,-79.49"/>
<polygon fill="#63b8ff" stroke="#63b8ff" points="812.34,-82.33 819.1,-74.17 808.73,-76.33 812.34,-82.33"/>
</a>
</g>
</g>
<!-- Node27 -->
<g id="Node000027" class="node">
<title>Node27</title>
<g id="a_Node000027"><a xlink:href="robin__hood_8h.html" target="_top" xlink:title=" ">
<polygon fill="white" stroke="#666666" points="1388.5,-74 1308.5,-74 1308.5,-55 1388.5,-55 1388.5,-74"/>
<text text-anchor="middle" x="1348.5" y="-62" font-family="Helvetica,sans-Serif" font-size="10.00">robin_hood.h</text>
</a>
</g>
</g>
<!-- Node18&#45;&gt;Node27 -->
<g id="edge39_Node000018_Node000027" class="edge">
<title>Node18&#45;&gt;Node27</title>
<g id="a_edge39_Node000018_Node000027"><a xlink:title=" ">
<path fill="none" stroke="#63b8ff" d="M815.26,-112.37C938.12,-101.57 1190.26,-79.41 1297.94,-69.94"/>
<polygon fill="#63b8ff" stroke="#63b8ff" points="1298.55,-73.4 1308.21,-69.04 1297.94,-66.43 1298.55,-73.4"/>
</a>
</g>
</g>
<!-- Node19&#45;&gt;Node5 -->
<g id="edge25_Node000019_Node000005" class="edge">
<title>Node19&#45;&gt;Node5</title>
<g id="a_edge25_Node000019_Node000005"><a xlink:title=" ">
<path fill="none" stroke="#63b8ff" d="M339.67,-54.98C304.42,-46.58 248.82,-33.27 191.67,-19.27"/>
<polygon fill="#63b8ff" stroke="#63b8ff" points="192.29,-15.82 181.74,-16.84 190.62,-22.62 192.29,-15.82"/>
</a>
</g>
</g>
<!-- Node19&#45;&gt;Node10 -->
<g id="edge27_Node000019_Node000010" class="edge">
<title>Node19&#45;&gt;Node10</title>
<g id="a_edge27_Node000019_Node000010"><a xlink:title=" ">
<path fill="none" stroke="#63b8ff" d="M351.72,-54.98C327.27,-46.23 288.97,-32.51 261.35,-22.62"/>
<polygon fill="#63b8ff" stroke="#63b8ff" points="262.31,-19.25 251.71,-19.17 259.95,-25.84 262.31,-19.25"/>
</a>
</g>
</g>
<!-- Node19&#45;&gt;Node15 -->
<g id="edge24_Node000019_Node000015" class="edge">
<title>Node19&#45;&gt;Node15</title>
<g id="a_edge24_Node000019_Node000015"><a xlink:title=" ">
<path fill="none" stroke="#63b8ff" d="M333.6,-57.47C285.28,-50.22 203.26,-37.01 123.9,-19.13"/>
<polygon fill="#63b8ff" stroke="#63b8ff" points="124.26,-15.62 113.74,-16.81 122.71,-22.44 124.26,-15.62"/>
</a>
</g>
</g>
<!-- Node20 -->
<g id="Node000020" class="node">
<title>Node20</title>
<g id="a_Node000020"><a xlink:title=" ">
<polygon fill="#e0e0e0" stroke="#999999" points="867.5,-19 823.5,-19 823.5,0 867.5,0 867.5,-19"/>
<text text-anchor="middle" x="845.5" y="-7" font-family="Helvetica,sans-Serif" font-size="10.00">limits</text>
</a>
</g>
</g>
<!-- Node19&#45;&gt;Node20 -->
<g id="edge26_Node000019_Node000020" class="edge">
<title>Node19&#45;&gt;Node20</title>
<g id="a_edge26_Node000019_Node000020"><a xlink:title=" ">
<path fill="none" stroke="#63b8ff" d="M417.21,-56.29C420.35,-55.83 423.47,-55.39 426.5,-55 594.98,-33.17 642.32,-49.37 813.17,-18.93"/>
<polygon fill="#63b8ff" stroke="#63b8ff" points="814.04,-22.33 823.26,-17.1 812.79,-15.44 814.04,-22.33"/>
</a>
</g>
</g>
<!-- Node21 -->
<g id="Node000021" class="node">
<title>Node21</title>
<g id="a_Node000021"><a xlink:title=" ">
<polygon fill="#e0e0e0" stroke="#999999" points="805.5,-19 749.5,-19 749.5,0 805.5,0 805.5,-19"/>
<text text-anchor="middle" x="777.5" y="-7" font-family="Helvetica,sans-Serif" font-size="10.00">iomanip</text>
</a>
</g>
</g>
<!-- Node19&#45;&gt;Node21 -->
<g id="edge28_Node000019_Node000021" class="edge">
<title>Node19&#45;&gt;Node21</title>
<g id="a_edge28_Node000019_Node000021"><a xlink:title=" ">
<path fill="none" stroke="#63b8ff" d="M417.22,-56.37C420.36,-55.89 423.48,-55.42 426.5,-55 562.34,-35.91 600.29,-42.43 739.11,-19.06"/>
<polygon fill="#63b8ff" stroke="#63b8ff" points="740.01,-22.46 749.28,-17.32 738.84,-15.56 740.01,-22.46"/>
</a>
</g>
</g>
<!-- Node22&#45;&gt;Node6 -->
<g id="edge33_Node000022_Node000006" class="edge">
<title>Node22&#45;&gt;Node6</title>
<g id="a_edge33_Node000022_Node000006"><a xlink:title=" ">
<path fill="none" stroke="#63b8ff" d="M973.41,-54.98C963.01,-47 947.24,-34.88 934.78,-25.31"/>
<polygon fill="#63b8ff" stroke="#63b8ff" points="936.85,-22.49 926.79,-19.17 932.59,-28.04 936.85,-22.49"/>
</a>
</g>
</g>
<!-- Node22&#45;&gt;Node11 -->
<g id="edge34_Node000022_Node000011" class="edge">
<title>Node22&#45;&gt;Node11</title>
<g id="a_edge34_Node000022_Node000011"><a xlink:title=" ">
<path fill="none" stroke="#63b8ff" d="M1021.64,-54.99C1057.19,-46.76 1112.57,-33.73 1169.31,-19.24"/>
<polygon fill="#63b8ff" stroke="#63b8ff" points="1170.36,-22.59 1179.17,-16.72 1168.62,-15.81 1170.36,-22.59"/>
</a>
</g>
</g>
<!-- Node22&#45;&gt;Node21 -->
<g id="edge32_Node000022_Node000021" class="edge">
<title>Node22&#45;&gt;Node21</title>
<g id="a_edge32_Node000022_Node000021"><a xlink:title=" ">
<path fill="none" stroke="#63b8ff" d="M951.24,-54.98C914.21,-45.5 854.46,-30.2 815.58,-20.25"/>
<polygon fill="#63b8ff" stroke="#63b8ff" points="816.24,-16.81 805.69,-17.72 814.51,-23.59 816.24,-16.81"/>
</a>
</g>
</g>
<!-- Node23 -->
<g id="Node000023" class="node">
<title>Node23</title>
<g id="a_Node000023"><a xlink:title=" ">
<polygon fill="#e0e0e0" stroke="#999999" points="1161.5,-19 1111.5,-19 1111.5,0 1161.5,0 1161.5,-19"/>
<text text-anchor="middle" x="1136.5" y="-7" font-family="Helvetica,sans-Serif" font-size="10.00">chrono</text>
</a>
</g>
</g>
<!-- Node22&#45;&gt;Node23 -->
<g id="edge30_Node000022_Node000023" class="edge">
<title>Node22&#45;&gt;Node23</title>
<g id="a_edge30_Node000022_Node000023"><a xlink:title=" ">
<path fill="none" stroke="#63b8ff" d="M1008.92,-54.98C1034.22,-46.16 1073.95,-32.31 1102.36,-22.41"/>
<polygon fill="#63b8ff" stroke="#63b8ff" points="1103.6,-25.68 1111.89,-19.08 1101.29,-19.07 1103.6,-25.68"/>
</a>
</g>
</g>
<!-- Node24 -->
<g id="Node000024" class="node">
<title>Node24</title>
<g id="a_Node000024"><a xlink:title=" ">
<polygon fill="#e0e0e0" stroke="#999999" points="1093,-19 1040,-19 1040,0 1093,0 1093,-19"/>
<text text-anchor="middle" x="1066.5" y="-7" font-family="Helvetica,sans-Serif" font-size="10.00">cstdarg</text>
</a>
</g>
</g>
<!-- Node22&#45;&gt;Node24 -->
<g id="edge31_Node000022_Node000024" class="edge">
<title>Node22&#45;&gt;Node24</title>
<g id="a_edge31_Node000022_Node000024"><a xlink:title=" ">
<path fill="none" stroke="#63b8ff" d="M997.67,-54.98C1010.27,-46.84 1029.5,-34.41 1044.44,-24.76"/>
<polygon fill="#63b8ff" stroke="#63b8ff" points="1046.59,-27.54 1053.09,-19.17 1042.79,-21.66 1046.59,-27.54"/>
</a>
</g>
</g>
<!-- Node27&#45;&gt;Node7 -->
<g id="edge45_Node000027_Node000007" class="edge">
<title>Node27&#45;&gt;Node7</title>
<g id="a_edge45_Node000027_Node000007"><a xlink:title=" ">
<path fill="none" stroke="#63b8ff" d="M1308.31,-58.84C1249.81,-51.84 1137.58,-37.61 1031.73,-18.91"/>
<polygon fill="#63b8ff" stroke="#63b8ff" points="1032.3,-15.45 1021.84,-17.14 1031.07,-22.34 1032.3,-15.45"/>
</a>
</g>
</g>
<!-- Node27&#45;&gt;Node11 -->
<g id="edge47_Node000027_Node000011" class="edge">
<title>Node27&#45;&gt;Node11</title>
<g id="a_edge47_Node000027_Node000011"><a xlink:title=" ">
<path fill="none" stroke="#63b8ff" d="M1324.88,-54.98C1300.02,-46.02 1260.73,-31.86 1233.19,-21.92"/>
<polygon fill="#63b8ff" stroke="#63b8ff" points="1234.21,-18.57 1223.62,-18.47 1231.84,-25.16 1234.21,-18.57"/>
</a>
</g>
</g>
<!-- Node27&#45;&gt;Node20 -->
<g id="edge44_Node000027_Node000020" class="edge">
<title>Node27&#45;&gt;Node20</title>
<g id="a_edge44_Node000027_Node000020"><a xlink:title=" ">
<path fill="none" stroke="#63b8ff" d="M1308.4,-62.07C1228.26,-58.7 1042.61,-48.37 878.05,-18.97"/>
<polygon fill="#63b8ff" stroke="#63b8ff" points="878.21,-15.44 867.74,-17.1 876.96,-22.33 878.21,-15.44"/>
</a>
</g>
</g>
<!-- Node28 -->
<g id="Node000028" class="node">
<title>Node28</title>
<g id="a_Node000028"><a xlink:title=" ">
<polygon fill="#e0e0e0" stroke="#999999" points="1305.5,-19 1241.5,-19 1241.5,0 1305.5,0 1305.5,-19"/>
<text text-anchor="middle" x="1273.5" y="-7" font-family="Helvetica,sans-Serif" font-size="10.00">algorithm</text>
</a>
</g>
</g>
<!-- Node27&#45;&gt;Node28 -->
<g id="edge40_Node000027_Node000028" class="edge">
<title>Node27&#45;&gt;Node28</title>
<g id="a_edge40_Node000027_Node000028"><a xlink:title=" ">
<path fill="none" stroke="#63b8ff" d="M1336.45,-54.98C1325.04,-46.92 1307.67,-34.65 1294.07,-25.03"/>
<polygon fill="#63b8ff" stroke="#63b8ff" points="1295.96,-22.08 1285.77,-19.17 1291.92,-27.8 1295.96,-22.08"/>
</a>
</g>
</g>
<!-- Node29 -->
<g id="Node000029" class="node">
<title>Node29</title>
<g id="a_Node000029"><a xlink:title=" ">
<polygon fill="#e0e0e0" stroke="#999999" points="1373,-19 1324,-19 1324,0 1373,0 1373,-19"/>
<text text-anchor="middle" x="1348.5" y="-7" font-family="Helvetica,sans-Serif" font-size="10.00">cstdlib</text>
</a>
</g>
</g>
<!-- Node27&#45;&gt;Node29 -->
<g id="edge41_Node000027_Node000029" class="edge">
<title>Node27&#45;&gt;Node29</title>
<g id="a_edge41_Node000027_Node000029"><a xlink:title=" ">
<path fill="none" stroke="#63b8ff" d="M1348.5,-54.75C1348.5,-47.8 1348.5,-37.85 1348.5,-29.13"/>
<polygon fill="#63b8ff" stroke="#63b8ff" points="1352,-29.09 1348.5,-19.09 1345,-29.09 1352,-29.09"/>
</a>
</g>
</g>
<!-- Node30 -->
<g id="Node000030" class="node">
<title>Node30</title>
<g id="a_Node000030"><a xlink:title=" ">
<polygon fill="#e0e0e0" stroke="#999999" points="1441.5,-19 1391.5,-19 1391.5,0 1441.5,0 1441.5,-19"/>
<text text-anchor="middle" x="1416.5" y="-7" font-family="Helvetica,sans-Serif" font-size="10.00">cstring</text>
</a>
</g>
</g>
<!-- Node27&#45;&gt;Node30 -->
<g id="edge42_Node000027_Node000030" class="edge">
<title>Node27&#45;&gt;Node30</title>
<g id="a_edge42_Node000027_Node000030"><a xlink:title=" ">
<path fill="none" stroke="#63b8ff" d="M1359.43,-54.98C1369.58,-47.07 1384.92,-35.11 1397.15,-25.58"/>
<polygon fill="#63b8ff" stroke="#63b8ff" points="1399.64,-28.08 1405.38,-19.17 1395.34,-22.56 1399.64,-28.08"/>
</a>
</g>
</g>
<!-- Node31 -->
<g id="Node000031" class="node">
<title>Node31</title>
<g id="a_Node000031"><a xlink:title=" ">
<polygon fill="#e0e0e0" stroke="#999999" points="1525,-19 1460,-19 1460,0 1525,0 1525,-19"/>
<text text-anchor="middle" x="1492.5" y="-7" font-family="Helvetica,sans-Serif" font-size="10.00">functional</text>
</a>
</g>
</g>
<!-- Node27&#45;&gt;Node31 -->
<g id="edge43_Node000027_Node000031" class="edge">
<title>Node27&#45;&gt;Node31</title>
<g id="a_edge43_Node000027_Node000031"><a xlink:title=" ">
<path fill="none" stroke="#63b8ff" d="M1371.64,-54.98C1395.32,-46.27 1432.37,-32.63 1459.21,-22.75"/>
<polygon fill="#63b8ff" stroke="#63b8ff" points="1460.77,-25.91 1468.94,-19.17 1458.35,-19.34 1460.77,-25.91"/>
</a>
</g>
</g>
<!-- Node32 -->
<g id="Node000032" class="node">
<title>Node32</title>
<g id="a_Node000032"><a xlink:title=" ">
<polygon fill="#e0e0e0" stroke="#999999" points="1608,-19 1543,-19 1543,0 1608,0 1608,-19"/>
<text text-anchor="middle" x="1575.5" y="-7" font-family="Helvetica,sans-Serif" font-size="10.00">stdexcept</text>
</a>
</g>
</g>
<!-- Node27&#45;&gt;Node32 -->
<g id="edge46_Node000027_Node000032" class="edge">
<title>Node27&#45;&gt;Node32</title>
<g id="a_edge46_Node000027_Node000032"><a xlink:title=" ">
<path fill="none" stroke="#63b8ff" d="M1384.97,-54.98C1425.35,-45.56 1490.35,-30.38 1533,-20.42"/>
<polygon fill="#63b8ff" stroke="#63b8ff" points="1533.86,-23.82 1542.8,-18.13 1532.27,-17 1533.86,-23.82"/>
</a>
</g>
</g>
<!-- Node33 -->
<g id="Node000033" class="node">
<title>Node33</title>
<g id="a_Node000033"><a xlink:title=" ">
<polygon fill="#e0e0e0" stroke="#999999" points="1695,-19 1626,-19 1626,0 1695,0 1695,-19"/>
<text text-anchor="middle" x="1660.5" y="-7" font-family="Helvetica,sans-Serif" font-size="10.00">type_traits</text>
</a>
</g>
</g>
<!-- Node27&#45;&gt;Node33 -->
<g id="edge48_Node000027_Node000033" class="edge">
<title>Node27&#45;&gt;Node33</title>
<g id="a_edge48_Node000027_Node000033"><a xlink:title=" ">
<path fill="none" stroke="#63b8ff" d="M1388.67,-57.26C1439.36,-49.29 1529.46,-34.83 1615.82,-19.26"/>
<polygon fill="#63b8ff" stroke="#63b8ff" points="1616.57,-22.69 1625.78,-17.46 1615.32,-15.8 1616.57,-22.69"/>
</a>
</g>
</g>
<!-- Node34 -->
<g id="Node000034" class="node">
<title>Node34</title>
<g id="a_Node000034"><a xlink:title=" ">
<polygon fill="#e0e0e0" stroke="#999999" points="1758,-19 1713,-19 1713,0 1758,0 1758,-19"/>
<text text-anchor="middle" x="1735.5" y="-7" font-family="Helvetica,sans-Serif" font-size="10.00">utility</text>
</a>
</g>
</g>
<!-- Node27&#45;&gt;Node34 -->
<g id="edge49_Node000027_Node000034" class="edge">
<title>Node27&#45;&gt;Node34</title>
<g id="a_edge49_Node000027_Node000034"><a xlink:title=" ">
<path fill="none" stroke="#63b8ff" d="M1388.57,-60.38C1452.98,-54.95 1583.62,-42.25 1702.87,-19.08"/>
<polygon fill="#63b8ff" stroke="#63b8ff" points="1703.77,-22.47 1712.9,-17.1 1702.41,-15.6 1703.77,-22.47"/>
</a>
</g>
</g>
</g>
</svg>
