<?xml version="1.0" encoding="UTF-8" standalone="no"?>
<!DOCTYPE svg PUBLIC "-//W3C//DTD SVG 1.1//EN"
 "http://www.w3.org/Graphics/SVG/1.1/DTD/svg11.dtd">
<!-- Generated by graphviz version 2.43.0 (0)
 -->
<!-- Title: src/libuvgvpccenc/patchGeneration/normalComputation.cpp Pages: 1 -->
<svg width="1546pt" height="313pt"
 viewBox="0.00 0.00 1546.39 313.00" xmlns="http://www.w3.org/2000/svg" xmlns:xlink="http://www.w3.org/1999/xlink">
<g id="graph0" class="graph" transform="scale(1 1) rotate(0) translate(4 309)">
<title>src/libuvgvpccenc/patchGeneration/normalComputation.cpp</title>
<!-- Node1 -->
<g id="Node000001" class="node">
<title>Node1</title>
<g id="a_Node000001"><a xlink:title=" ">
<polygon fill="#999999" stroke="#666666" points="1344.39,-305 1156.39,-305 1156.39,-275 1344.39,-275 1344.39,-305"/>
<text text-anchor="start" x="1164.39" y="-293" font-family="Helvetica,sans-Serif" font-size="10.00">src/libuvgvpccenc/patchGeneration</text>
<text text-anchor="middle" x="1250.39" y="-282" font-family="Helvetica,sans-Serif" font-size="10.00">/normalComputation.cpp</text>
</a>
</g>
</g>
<!-- Node2 -->
<g id="Node000002" class="node">
<title>Node2</title>
<g id="a_Node000002"><a xlink:href="normalComputation_8hpp.html" target="_top" xlink:title=" ">
<polygon fill="white" stroke="#666666" points="791.89,-239 656.89,-239 656.89,-220 791.89,-220 791.89,-239"/>
<text text-anchor="middle" x="724.39" y="-227" font-family="Helvetica,sans-Serif" font-size="10.00">normalComputation.hpp</text>
</a>
</g>
</g>
<!-- Node1&#45;&gt;Node2 -->
<g id="edge1_Node000001_Node000002" class="edge">
<title>Node1&#45;&gt;Node2</title>
<g id="a_edge1_Node000001_Node000002"><a xlink:title=" ">
<path fill="none" stroke="#63b8ff" d="M1156.35,-278.54C1055.28,-267.3 896.47,-249.64 802.17,-239.15"/>
<polygon fill="#63b8ff" stroke="#63b8ff" points="802.46,-235.66 792.13,-238.03 801.68,-242.62 802.46,-235.66"/>
</a>
</g>
</g>
<!-- Node3 -->
<g id="Node000003" class="node">
<title>Node3</title>
<g id="a_Node000003"><a xlink:href="uvgvpcc_8hpp.html" target="_top" xlink:title=" ">
<polygon fill="white" stroke="#666666" points="689.39,-184 567.39,-184 567.39,-165 689.39,-165 689.39,-184"/>
<text text-anchor="middle" x="628.39" y="-172" font-family="Helvetica,sans-Serif" font-size="10.00">uvgvpcc/uvgvpcc.hpp</text>
</a>
</g>
</g>
<!-- Node1&#45;&gt;Node3 -->
<g id="edge58_Node000001_Node000003" class="edge">
<title>Node1&#45;&gt;Node3</title>
<g id="a_edge58_Node000001_Node000003"><a xlink:title=" ">
<path fill="none" stroke="#63b8ff" d="M1156.34,-286.95C996.65,-282.63 685.97,-270.28 647.39,-239 634.27,-228.36 629.95,-209.05 628.65,-194.51"/>
<polygon fill="#63b8ff" stroke="#63b8ff" points="632.13,-193.94 628.14,-184.12 625.13,-194.28 632.13,-193.94"/>
</a>
</g>
</g>
<!-- Node4 -->
<g id="Node000004" class="node">
<title>Node4</title>
<g id="a_Node000004"><a xlink:title=" ">
<polygon fill="#e0e0e0" stroke="#999999" points="500.89,-74 447.89,-74 447.89,-55 500.89,-55 500.89,-74"/>
<text text-anchor="middle" x="474.39" y="-62" font-family="Helvetica,sans-Serif" font-size="10.00">cstddef</text>
</a>
</g>
</g>
<!-- Node1&#45;&gt;Node4 -->
<g id="edge33_Node000001_Node000004" class="edge">
<title>Node1&#45;&gt;Node4</title>
<g id="a_edge33_Node000001_Node000004"><a xlink:title=" ">
<path fill="none" stroke="#63b8ff" d="M1156,-284.08C878.69,-268.66 81.21,-216.97 7.39,-129 1.96,-122.53 1.71,-116.25 7.39,-110 36.16,-78.36 332.08,-68.68 437.41,-66.23"/>
<polygon fill="#63b8ff" stroke="#63b8ff" points="437.65,-69.72 447.57,-66 437.5,-62.73 437.65,-69.72"/>
</a>
</g>
</g>
<!-- Node7 -->
<g id="Node000007" class="node">
<title>Node7</title>
<g id="a_Node000007"><a xlink:title=" ">
<polygon fill="#e0e0e0" stroke="#999999" points="857.39,-129 799.39,-129 799.39,-110 857.39,-110 857.39,-129"/>
<text text-anchor="middle" x="828.39" y="-117" font-family="Helvetica,sans-Serif" font-size="10.00">memory</text>
</a>
</g>
</g>
<!-- Node1&#45;&gt;Node7 -->
<g id="edge34_Node000001_Node000007" class="edge">
<title>Node1&#45;&gt;Node7</title>
<g id="a_edge34_Node000001_Node000007"><a xlink:title=" ">
<path fill="none" stroke="#63b8ff" d="M1156.64,-274.92C1053.87,-257.67 897.89,-225.54 855.39,-184 842.95,-171.84 835.94,-153.05 832.19,-139.06"/>
<polygon fill="#63b8ff" stroke="#63b8ff" points="835.55,-138.02 829.85,-129.09 828.73,-139.62 835.55,-138.02"/>
</a>
</g>
</g>
<!-- Node11 -->
<g id="Node000011" class="node">
<title>Node11</title>
<g id="a_Node000011"><a xlink:title=" ">
<polygon fill="#e0e0e0" stroke="#999999" points="1342.39,-19 1298.39,-19 1298.39,0 1342.39,0 1342.39,-19"/>
<text text-anchor="middle" x="1320.39" y="-7" font-family="Helvetica,sans-Serif" font-size="10.00">string</text>
</a>
</g>
</g>
<!-- Node1&#45;&gt;Node11 -->
<g id="edge35_Node000001_Node000011" class="edge">
<title>Node1&#45;&gt;Node11</title>
<g id="a_edge35_Node000001_Node000011"><a xlink:title=" ">
<path fill="none" stroke="#63b8ff" d="M1344.65,-278.37C1404.93,-270.04 1476.34,-256.88 1501.39,-239 1527.97,-220.02 1538.39,-208.16 1538.39,-175.5 1538.39,-175.5 1538.39,-175.5 1538.39,-118.5 1538.39,-36.62 1413.38,-16.82 1352.69,-12.03"/>
<polygon fill="#63b8ff" stroke="#63b8ff" points="1352.71,-8.52 1342.49,-11.32 1352.22,-15.5 1352.71,-8.52"/>
</a>
</g>
</g>
<!-- Node12 -->
<g id="Node000012" class="node">
<title>Node12</title>
<g id="a_Node000012"><a xlink:title=" ">
<polygon fill="#e0e0e0" stroke="#999999" points="1308.89,-129 1261.89,-129 1261.89,-110 1308.89,-110 1308.89,-129"/>
<text text-anchor="middle" x="1285.39" y="-117" font-family="Helvetica,sans-Serif" font-size="10.00">vector</text>
</a>
</g>
</g>
<!-- Node1&#45;&gt;Node12 -->
<g id="edge36_Node000001_Node000012" class="edge">
<title>Node1&#45;&gt;Node12</title>
<g id="a_edge36_Node000001_Node000012"><a xlink:title=" ">
<path fill="none" stroke="#63b8ff" d="M1252.89,-274.82C1257.02,-251.73 1265.66,-204.62 1274.39,-165 1276.29,-156.34 1278.62,-146.8 1280.65,-138.77"/>
<polygon fill="#63b8ff" stroke="#63b8ff" points="1284.06,-139.56 1283.15,-129 1277.28,-137.82 1284.06,-139.56"/>
</a>
</g>
</g>
<!-- Node17 -->
<g id="Node000017" class="node">
<title>Node17</title>
<g id="a_Node000017"><a xlink:href="utils_8hpp.html" target="_top" xlink:title=" ">
<polygon fill="white" stroke="#666666" points="1052.89,-129 951.89,-129 951.89,-110 1052.89,-110 1052.89,-129"/>
<text text-anchor="middle" x="1002.39" y="-117" font-family="Helvetica,sans-Serif" font-size="10.00">uvgutils/utils.hpp</text>
</a>
</g>
</g>
<!-- Node1&#45;&gt;Node17 -->
<g id="edge57_Node000001_Node000017" class="edge">
<title>Node1&#45;&gt;Node17</title>
<g id="a_edge57_Node000001_Node000017"><a xlink:title=" ">
<path fill="none" stroke="#63b8ff" d="M1156.14,-281.28C1096.72,-274.29 1027.69,-261.51 1008.39,-239 984.56,-211.21 990.92,-164.9 997.04,-139.18"/>
<polygon fill="#63b8ff" stroke="#63b8ff" points="1000.5,-139.79 999.64,-129.23 993.73,-138.02 1000.5,-139.79"/>
</a>
</g>
</g>
<!-- Node18 -->
<g id="Node000018" class="node">
<title>Node18</title>
<g id="a_Node000018"><a xlink:title=" ">
<polygon fill="#e0e0e0" stroke="#999999" points="1274.39,-74 1232.39,-74 1232.39,-55 1274.39,-55 1274.39,-74"/>
<text text-anchor="middle" x="1253.39" y="-62" font-family="Helvetica,sans-Serif" font-size="10.00">array</text>
</a>
</g>
</g>
<!-- Node1&#45;&gt;Node18 -->
<g id="edge30_Node000001_Node000018" class="edge">
<title>Node1&#45;&gt;Node18</title>
<g id="a_edge30_Node000001_Node000018"><a xlink:title=" ">
<path fill="none" stroke="#63b8ff" d="M1344.46,-280.54C1400.48,-273.33 1463.97,-260.6 1481.39,-239 1491.36,-226.64 1534.02,-175.85 1478.39,-110 1453.83,-80.92 1340.47,-70.46 1284.64,-67.02"/>
<polygon fill="#63b8ff" stroke="#63b8ff" points="1284.78,-63.52 1274.6,-66.44 1284.38,-70.51 1284.78,-63.52"/>
</a>
</g>
</g>
<!-- Node21 -->
<g id="Node000021" class="node">
<title>Node21</title>
<g id="a_Node000021"><a xlink:href="log_8hpp.html" target="_top" xlink:title=" ">
<polygon fill="white" stroke="#666666" points="1213.89,-74 1160.89,-74 1160.89,-55 1213.89,-55 1213.89,-74"/>
<text text-anchor="middle" x="1187.39" y="-62" font-family="Helvetica,sans-Serif" font-size="10.00">log.hpp</text>
</a>
</g>
</g>
<!-- Node1&#45;&gt;Node21 -->
<g id="edge56_Node000001_Node000021" class="edge">
<title>Node1&#45;&gt;Node21</title>
<g id="a_edge56_Node000001_Node000021"><a xlink:title=" ">
<path fill="none" stroke="#63b8ff" d="M1257.58,-274.68C1262.49,-264.74 1269.04,-251.17 1274.39,-239 1284.98,-214.9 1313.41,-154.85 1318.39,-129 1319.99,-120.71 1323.31,-116.86 1318.39,-110 1312.67,-102.01 1260.75,-86.06 1224.02,-75.58"/>
<polygon fill="#63b8ff" stroke="#63b8ff" points="1224.69,-72.13 1214.11,-72.78 1222.79,-78.87 1224.69,-72.13"/>
</a>
</g>
</g>
<!-- Node25 -->
<g id="Node000025" class="node">
<title>Node25</title>
<g id="a_Node000025"><a xlink:title=" ">
<polygon fill="#e0e0e0" stroke="#999999" points="1406.39,-239 1354.39,-239 1354.39,-220 1406.39,-220 1406.39,-239"/>
<text text-anchor="middle" x="1380.39" y="-227" font-family="Helvetica,sans-Serif" font-size="10.00">cassert</text>
</a>
</g>
</g>
<!-- Node1&#45;&gt;Node25 -->
<g id="edge31_Node000001_Node000025" class="edge">
<title>Node1&#45;&gt;Node25</title>
<g id="a_edge31_Node000001_Node000025"><a xlink:title=" ">
<path fill="none" stroke="#63b8ff" d="M1281.53,-274.99C1302.93,-265.36 1331.12,-252.67 1351.92,-243.31"/>
<polygon fill="#63b8ff" stroke="#63b8ff" points="1353.51,-246.43 1361.19,-239.14 1350.63,-240.05 1353.51,-246.43"/>
</a>
</g>
</g>
<!-- Node26 -->
<g id="Node000026" class="node">
<title>Node26</title>
<g id="a_Node000026"><a xlink:title=" ">
<polygon fill="#e0e0e0" stroke="#999999" points="1471.89,-239 1424.89,-239 1424.89,-220 1471.89,-220 1471.89,-239"/>
<text text-anchor="middle" x="1448.39" y="-227" font-family="Helvetica,sans-Serif" font-size="10.00">cmath</text>
</a>
</g>
</g>
<!-- Node1&#45;&gt;Node26 -->
<g id="edge32_Node000001_Node000026" class="edge">
<title>Node1&#45;&gt;Node26</title>
<g id="a_edge32_Node000001_Node000026"><a xlink:title=" ">
<path fill="none" stroke="#63b8ff" d="M1297.81,-274.99C1333.95,-264.31 1382.8,-249.88 1414.92,-240.39"/>
<polygon fill="#63b8ff" stroke="#63b8ff" points="1416.13,-243.68 1424.73,-237.49 1414.15,-236.97 1416.13,-243.68"/>
</a>
</g>
</g>
<!-- Node27 -->
<g id="Node000027" class="node">
<title>Node27</title>
<g id="a_Node000027"><a xlink:href="fileExport_8hpp.html" target="_top" xlink:title=" ">
<polygon fill="white" stroke="#666666" points="1125.39,-239 1017.39,-239 1017.39,-220 1125.39,-220 1125.39,-239"/>
<text text-anchor="middle" x="1071.39" y="-227" font-family="Helvetica,sans-Serif" font-size="10.00">utils/fileExport.hpp</text>
</a>
</g>
</g>
<!-- Node1&#45;&gt;Node27 -->
<g id="edge37_Node000001_Node000027" class="edge">
<title>Node1&#45;&gt;Node27</title>
<g id="a_edge37_Node000001_Node000027"><a xlink:title=" ">
<path fill="none" stroke="#63b8ff" d="M1207.51,-274.99C1176.89,-264.98 1136.16,-251.67 1107.26,-242.22"/>
<polygon fill="#63b8ff" stroke="#63b8ff" points="1108.15,-238.83 1097.56,-239.05 1105.98,-245.49 1108.15,-238.83"/>
</a>
</g>
</g>
<!-- Node29 -->
<g id="Node000029" class="node">
<title>Node29</title>
<g id="a_Node000029"><a xlink:href="parameters_8hpp.html" target="_top" xlink:title=" ">
<polygon fill="white" stroke="#666666" points="1434.39,-184 1316.39,-184 1316.39,-165 1434.39,-165 1434.39,-184"/>
<text text-anchor="middle" x="1375.39" y="-172" font-family="Helvetica,sans-Serif" font-size="10.00">utils/parameters.hpp</text>
</a>
</g>
</g>
<!-- Node1&#45;&gt;Node29 -->
<g id="edge51_Node000001_Node000029" class="edge">
<title>Node1&#45;&gt;Node29</title>
<g id="a_edge51_Node000001_Node000029"><a xlink:title=" ">
<path fill="none" stroke="#63b8ff" d="M1265.97,-274.85C1289.49,-253.5 1333.9,-213.17 1358.29,-191.03"/>
<polygon fill="#63b8ff" stroke="#63b8ff" points="1360.68,-193.58 1365.73,-184.27 1355.97,-188.4 1360.68,-193.58"/>
</a>
</g>
</g>
<!-- Node2&#45;&gt;Node3 -->
<g id="edge2_Node000002_Node000003" class="edge">
<title>Node2&#45;&gt;Node3</title>
<g id="a_edge2_Node000002_Node000003"><a xlink:title=" ">
<path fill="none" stroke="#63b8ff" d="M708.96,-219.98C693.94,-211.69 670.85,-198.94 653.23,-189.22"/>
<polygon fill="#63b8ff" stroke="#63b8ff" points="654.54,-185.94 644.09,-184.17 651.16,-192.07 654.54,-185.94"/>
</a>
</g>
</g>
<!-- Node3&#45;&gt;Node4 -->
<g id="edge3_Node000003_Node000004" class="edge">
<title>Node3&#45;&gt;Node4</title>
<g id="a_edge3_Node000003_Node000004"><a xlink:title=" ">
<path fill="none" stroke="#63b8ff" d="M567.14,-173.48C488.27,-172.01 357.72,-164.14 327.39,-129 294.1,-90.43 383.82,-74.54 437.49,-68.62"/>
<polygon fill="#63b8ff" stroke="#63b8ff" points="438.1,-72.08 447.69,-67.57 437.38,-65.12 438.1,-72.08"/>
</a>
</g>
</g>
<!-- Node5 -->
<g id="Node000005" class="node">
<title>Node5</title>
<g id="a_Node000005"><a xlink:title=" ">
<polygon fill="#e0e0e0" stroke="#999999" points="1042.39,-74 992.39,-74 992.39,-55 1042.39,-55 1042.39,-74"/>
<text text-anchor="middle" x="1017.39" y="-62" font-family="Helvetica,sans-Serif" font-size="10.00">cstdint</text>
</a>
</g>
</g>
<!-- Node3&#45;&gt;Node5 -->
<g id="edge4_Node000003_Node000005" class="edge">
<title>Node3&#45;&gt;Node5</title>
<g id="a_edge4_Node000003_Node000005"><a xlink:title=" ">
<path fill="none" stroke="#63b8ff" d="M653.89,-164.98C678.76,-156.49 717.53,-142.76 750.39,-129 768.54,-121.4 771.7,-116.16 790.39,-110 856.42,-88.23 936.95,-75.55 982.18,-69.63"/>
<polygon fill="#63b8ff" stroke="#63b8ff" points="982.87,-73.07 992.35,-68.33 981.99,-66.12 982.87,-73.07"/>
</a>
</g>
</g>
<!-- Node6 -->
<g id="Node000006" class="node">
<title>Node6</title>
<g id="a_Node000006"><a xlink:title=" ">
<polygon fill="#e0e0e0" stroke="#999999" points="517.39,-19 457.39,-19 457.39,0 517.39,0 517.39,-19"/>
<text text-anchor="middle" x="487.39" y="-7" font-family="Helvetica,sans-Serif" font-size="10.00">iostream</text>
</a>
</g>
</g>
<!-- Node3&#45;&gt;Node6 -->
<g id="edge5_Node000003_Node000006" class="edge">
<title>Node3&#45;&gt;Node6</title>
<g id="a_edge5_Node000003_Node000006"><a xlink:title=" ">
<path fill="none" stroke="#63b8ff" d="M567.13,-173.73C417.9,-173.66 45,-169.4 7.39,-129 -55.11,-61.86 321.36,-24.23 447.36,-13.63"/>
<polygon fill="#63b8ff" stroke="#63b8ff" points="447.7,-17.12 457.38,-12.8 447.12,-10.14 447.7,-17.12"/>
</a>
</g>
</g>
<!-- Node3&#45;&gt;Node7 -->
<g id="edge6_Node000003_Node000007" class="edge">
<title>Node3&#45;&gt;Node7</title>
<g id="a_edge6_Node000003_Node000007"><a xlink:title=" ">
<path fill="none" stroke="#63b8ff" d="M660.52,-164.98C695.55,-155.7 751.6,-140.85 789.18,-130.89"/>
<polygon fill="#63b8ff" stroke="#63b8ff" points="790.49,-134.16 799.26,-128.22 788.7,-127.4 790.49,-134.16"/>
</a>
</g>
</g>
<!-- Node8 -->
<g id="Node000008" class="node">
<title>Node8</title>
<g id="a_Node000008"><a xlink:title=" ">
<polygon fill="#e0e0e0" stroke="#999999" points="383.89,-129 336.89,-129 336.89,-110 383.89,-110 383.89,-129"/>
<text text-anchor="middle" x="360.39" y="-117" font-family="Helvetica,sans-Serif" font-size="10.00">queue</text>
</a>
</g>
</g>
<!-- Node3&#45;&gt;Node8 -->
<g id="edge7_Node000003_Node000008" class="edge">
<title>Node3&#45;&gt;Node8</title>
<g id="a_edge7_Node000003_Node000008"><a xlink:title=" ">
<path fill="none" stroke="#63b8ff" d="M577.07,-164.94C531.36,-157.06 462.45,-144.58 394.17,-129.28"/>
<polygon fill="#63b8ff" stroke="#63b8ff" points="394.63,-125.8 384.11,-127.01 393.09,-132.63 394.63,-125.8"/>
</a>
</g>
</g>
<!-- Node9 -->
<g id="Node000009" class="node">
<title>Node9</title>
<g id="a_Node000009"><a xlink:title=" ">
<polygon fill="#e0e0e0" stroke="#999999" points="472.89,-129 401.89,-129 401.89,-110 472.89,-110 472.89,-129"/>
<text text-anchor="middle" x="437.39" y="-117" font-family="Helvetica,sans-Serif" font-size="10.00">semaphore</text>
</a>
</g>
</g>
<!-- Node3&#45;&gt;Node9 -->
<g id="edge8_Node000003_Node000009" class="edge">
<title>Node3&#45;&gt;Node9</title>
<g id="a_edge8_Node000003_Node000009"><a xlink:title=" ">
<path fill="none" stroke="#63b8ff" d="M597.7,-164.98C565.22,-155.97 513.79,-141.7 477.98,-131.76"/>
<polygon fill="#63b8ff" stroke="#63b8ff" points="478.89,-128.38 468.32,-129.08 477.02,-135.13 478.89,-128.38"/>
</a>
</g>
</g>
<!-- Node10 -->
<g id="Node000010" class="node">
<title>Node10</title>
<g id="a_Node000010"><a xlink:title=" ">
<polygon fill="#e0e0e0" stroke="#999999" points="936.39,-74 880.39,-74 880.39,-55 936.39,-55 936.39,-74"/>
<text text-anchor="middle" x="908.39" y="-62" font-family="Helvetica,sans-Serif" font-size="10.00">sstream</text>
</a>
</g>
</g>
<!-- Node3&#45;&gt;Node10 -->
<g id="edge9_Node000003_Node000010" class="edge">
<title>Node3&#45;&gt;Node10</title>
<g id="a_edge9_Node000003_Node000010"><a xlink:title=" ">
<path fill="none" stroke="#63b8ff" d="M643.88,-164.79C667.72,-151.64 715.07,-126.51 757.39,-110 795.02,-95.32 839.53,-82.76 870.43,-74.76"/>
<polygon fill="#63b8ff" stroke="#63b8ff" points="871.53,-78.09 880.36,-72.23 869.8,-71.31 871.53,-78.09"/>
</a>
</g>
</g>
<!-- Node3&#45;&gt;Node11 -->
<g id="edge10_Node000003_Node000011" class="edge">
<title>Node3&#45;&gt;Node11</title>
<g id="a_edge10_Node000003_Node000011"><a xlink:title=" ">
<path fill="none" stroke="#63b8ff" d="M637.28,-164.98C651.62,-151.64 681.22,-125.71 710.39,-110 776.96,-74.14 797.4,-70.58 871.39,-55 1050.65,-17.25 1103.96,-50.57 1288.14,-18.88"/>
<polygon fill="#63b8ff" stroke="#63b8ff" points="1288.91,-22.3 1298.15,-17.12 1287.69,-15.41 1288.91,-22.3"/>
</a>
</g>
</g>
<!-- Node3&#45;&gt;Node12 -->
<g id="edge11_Node000003_Node000012" class="edge">
<title>Node3&#45;&gt;Node12</title>
<g id="a_edge11_Node000003_Node000012"><a xlink:title=" ">
<path fill="none" stroke="#63b8ff" d="M689.61,-168.56C825.12,-157.63 1146.72,-131.69 1251.64,-123.22"/>
<polygon fill="#63b8ff" stroke="#63b8ff" points="1251.99,-126.71 1261.67,-122.41 1251.42,-119.73 1251.99,-126.71"/>
</a>
</g>
</g>
<!-- Node13 -->
<g id="Node000013" class="node">
<title>Node13</title>
<g id="a_Node000013"><a xlink:title=" ">
<polygon fill="#e0e0e0" stroke="#999999" points="555.39,-129 491.39,-129 491.39,-110 555.39,-110 555.39,-129"/>
<text text-anchor="middle" x="523.39" y="-117" font-family="Helvetica,sans-Serif" font-size="10.00">algorithm</text>
</a>
</g>
</g>
<!-- Node3&#45;&gt;Node13 -->
<g id="edge12_Node000003_Node000013" class="edge">
<title>Node3&#45;&gt;Node13</title>
<g id="a_edge12_Node000003_Node000013"><a xlink:title=" ">
<path fill="none" stroke="#63b8ff" d="M611.52,-164.98C594.78,-156.54 568.89,-143.47 549.5,-133.68"/>
<polygon fill="#63b8ff" stroke="#63b8ff" points="551.07,-130.55 540.57,-129.17 547.92,-136.8 551.07,-130.55"/>
</a>
</g>
</g>
<!-- Node14 -->
<g id="Node000014" class="node">
<title>Node14</title>
<g id="a_Node000014"><a xlink:title=" ">
<polygon fill="#e0e0e0" stroke="#999999" points="666.89,-129 573.89,-129 573.89,-110 666.89,-110 666.89,-129"/>
<text text-anchor="middle" x="620.39" y="-117" font-family="Helvetica,sans-Serif" font-size="10.00">unordered_map</text>
</a>
</g>
</g>
<!-- Node3&#45;&gt;Node14 -->
<g id="edge13_Node000003_Node000014" class="edge">
<title>Node3&#45;&gt;Node14</title>
<g id="a_edge13_Node000003_Node000014"><a xlink:title=" ">
<path fill="none" stroke="#63b8ff" d="M627.07,-164.75C626.02,-157.8 624.52,-147.85 623.2,-139.13"/>
<polygon fill="#63b8ff" stroke="#63b8ff" points="626.64,-138.45 621.69,-129.09 619.72,-139.5 626.64,-138.45"/>
</a>
</g>
</g>
<!-- Node15 -->
<g id="Node000015" class="node">
<title>Node15</title>
<g id="a_Node000015"><a xlink:title=" ">
<polygon fill="#e0e0e0" stroke="#999999" points="143.89,-129 16.89,-129 16.89,-110 143.89,-110 143.89,-129"/>
<text text-anchor="middle" x="80.39" y="-117" font-family="Helvetica,sans-Serif" font-size="10.00">../utils/parameters.hpp</text>
</a>
</g>
</g>
<!-- Node3&#45;&gt;Node15 -->
<g id="edge14_Node000003_Node000015" class="edge">
<title>Node3&#45;&gt;Node15</title>
<g id="a_edge14_Node000003_Node000015"><a xlink:title=" ">
<path fill="none" stroke="#63b8ff" d="M567.23,-168.21C478.69,-160.46 309.34,-145.27 154.27,-129.07"/>
<polygon fill="#63b8ff" stroke="#63b8ff" points="154.39,-125.56 144.08,-128 153.66,-132.53 154.39,-125.56"/>
</a>
</g>
</g>
<!-- Node16 -->
<g id="Node000016" class="node">
<title>Node16</title>
<g id="a_Node000016"><a xlink:title=" ">
<polygon fill="#e0e0e0" stroke="#999999" points="280.39,-129 162.39,-129 162.39,-110 280.39,-110 280.39,-129"/>
<text text-anchor="middle" x="221.39" y="-117" font-family="Helvetica,sans-Serif" font-size="10.00">../utils/constants.hpp</text>
</a>
</g>
</g>
<!-- Node3&#45;&gt;Node16 -->
<g id="edge15_Node000003_Node000016" class="edge">
<title>Node3&#45;&gt;Node16</title>
<g id="a_edge15_Node000003_Node000016"><a xlink:title=" ">
<path fill="none" stroke="#63b8ff" d="M567.02,-165.51C492.84,-155.85 368.36,-139.64 290.77,-129.53"/>
<polygon fill="#63b8ff" stroke="#63b8ff" points="290.98,-126.03 280.61,-128.21 290.07,-132.97 290.98,-126.03"/>
</a>
</g>
</g>
<!-- Node3&#45;&gt;Node17 -->
<g id="edge16_Node000003_Node000017" class="edge">
<title>Node3&#45;&gt;Node17</title>
<g id="a_edge16_Node000003_Node000017"><a xlink:title=" ">
<path fill="none" stroke="#63b8ff" d="M688.48,-164.98C758.05,-155.13 872,-138.98 941.78,-129.09"/>
<polygon fill="#63b8ff" stroke="#63b8ff" points="942.34,-132.54 951.75,-127.68 941.36,-125.61 942.34,-132.54"/>
</a>
</g>
</g>
<!-- Node17&#45;&gt;Node4 -->
<g id="edge18_Node000017_Node000004" class="edge">
<title>Node17&#45;&gt;Node4</title>
<g id="a_edge18_Node000017_Node000004"><a xlink:title=" ">
<path fill="none" stroke="#63b8ff" d="M951.76,-113.42C845.89,-102.79 603.25,-78.44 510.95,-69.17"/>
<polygon fill="#63b8ff" stroke="#63b8ff" points="511.26,-65.68 500.96,-68.17 510.56,-72.65 511.26,-65.68"/>
</a>
</g>
</g>
<!-- Node17&#45;&gt;Node5 -->
<g id="edge19_Node000017_Node000005" class="edge">
<title>Node17&#45;&gt;Node5</title>
<g id="a_edge19_Node000017_Node000005"><a xlink:title=" ">
<path fill="none" stroke="#63b8ff" d="M1004.87,-109.75C1006.85,-102.72 1009.71,-92.62 1012.2,-83.84"/>
<polygon fill="#63b8ff" stroke="#63b8ff" points="1015.6,-84.66 1014.96,-74.09 1008.87,-82.76 1015.6,-84.66"/>
</a>
</g>
</g>
<!-- Node17&#45;&gt;Node10 -->
<g id="edge22_Node000017_Node000010" class="edge">
<title>Node17&#45;&gt;Node10</title>
<g id="a_edge22_Node000017_Node000010"><a xlink:title=" ">
<path fill="none" stroke="#63b8ff" d="M987.29,-109.98C972.57,-101.69 949.96,-88.94 932.71,-79.22"/>
<polygon fill="#63b8ff" stroke="#63b8ff" points="934.2,-76.03 923.77,-74.17 930.76,-82.13 934.2,-76.03"/>
</a>
</g>
</g>
<!-- Node17&#45;&gt;Node18 -->
<g id="edge17_Node000017_Node000018" class="edge">
<title>Node17&#45;&gt;Node18</title>
<g id="a_edge17_Node000017_Node000018"><a xlink:title=" ">
<path fill="none" stroke="#63b8ff" d="M1050.48,-109.93C1093.21,-102.06 1157.57,-89.6 1222.19,-74.15"/>
<polygon fill="#63b8ff" stroke="#63b8ff" points="1223.24,-77.49 1232.14,-71.74 1221.59,-70.69 1223.24,-77.49"/>
</a>
</g>
</g>
<!-- Node19 -->
<g id="Node000019" class="node">
<title>Node19</title>
<g id="a_Node000019"><a xlink:title=" ">
<polygon fill="#e0e0e0" stroke="#999999" points="1074.39,-19 1018.39,-19 1018.39,0 1074.39,0 1074.39,-19"/>
<text text-anchor="middle" x="1046.39" y="-7" font-family="Helvetica,sans-Serif" font-size="10.00">iomanip</text>
</a>
</g>
</g>
<!-- Node17&#45;&gt;Node19 -->
<g id="edge20_Node000017_Node000019" class="edge">
<title>Node17&#45;&gt;Node19</title>
<g id="a_edge20_Node000017_Node000019"><a xlink:title=" ">
<path fill="none" stroke="#63b8ff" d="M995.84,-109.9C987.13,-97.31 973.86,-73.39 983.39,-55 990.43,-41.41 1003.73,-31.09 1016.31,-23.82"/>
<polygon fill="#63b8ff" stroke="#63b8ff" points="1018.06,-26.86 1025.24,-19.07 1014.77,-20.68 1018.06,-26.86"/>
</a>
</g>
</g>
<!-- Node20 -->
<g id="Node000020" class="node">
<title>Node20</title>
<g id="a_Node000020"><a xlink:title=" ">
<polygon fill="#e0e0e0" stroke="#999999" points="1104.39,-74 1060.39,-74 1060.39,-55 1104.39,-55 1104.39,-74"/>
<text text-anchor="middle" x="1082.39" y="-62" font-family="Helvetica,sans-Serif" font-size="10.00">limits</text>
</a>
</g>
</g>
<!-- Node17&#45;&gt;Node20 -->
<g id="edge21_Node000017_Node000020" class="edge">
<title>Node17&#45;&gt;Node20</title>
<g id="a_edge21_Node000017_Node000020"><a xlink:title=" ">
<path fill="none" stroke="#63b8ff" d="M1015.24,-109.98C1027.53,-101.84 1046.3,-89.41 1060.87,-79.76"/>
<polygon fill="#63b8ff" stroke="#63b8ff" points="1062.9,-82.61 1069.3,-74.17 1059.03,-76.78 1062.9,-82.61"/>
</a>
</g>
</g>
<!-- Node17&#45;&gt;Node21 -->
<g id="edge23_Node000017_Node000021" class="edge">
<title>Node17&#45;&gt;Node21</title>
<g id="a_edge23_Node000017_Node000021"><a xlink:title=" ">
<path fill="none" stroke="#63b8ff" d="M1032.11,-109.98C1064.46,-100.72 1116.21,-85.89 1150.98,-75.93"/>
<polygon fill="#63b8ff" stroke="#63b8ff" points="1152.09,-79.25 1160.74,-73.13 1150.16,-72.52 1152.09,-79.25"/>
</a>
</g>
</g>
<!-- Node21&#45;&gt;Node6 -->
<g id="edge27_Node000021_Node000006" class="edge">
<title>Node21&#45;&gt;Node6</title>
<g id="a_edge27_Node000021_Node000006"><a xlink:title=" ">
<path fill="none" stroke="#63b8ff" d="M1160.7,-60.15C1146.64,-58.46 1129.1,-56.46 1113.39,-55 892.53,-34.48 627.05,-18.45 527.6,-12.75"/>
<polygon fill="#63b8ff" stroke="#63b8ff" points="527.58,-9.24 517.4,-12.17 527.18,-16.23 527.58,-9.24"/>
</a>
</g>
</g>
<!-- Node21&#45;&gt;Node11 -->
<g id="edge29_Node000021_Node000011" class="edge">
<title>Node21&#45;&gt;Node11</title>
<g id="a_edge29_Node000021_Node000011"><a xlink:title=" ">
<path fill="none" stroke="#63b8ff" d="M1208.76,-54.98C1230.54,-46.3 1264.55,-32.75 1289.31,-22.88"/>
<polygon fill="#63b8ff" stroke="#63b8ff" points="1290.64,-26.12 1298.63,-19.17 1288.05,-19.62 1290.64,-26.12"/>
</a>
</g>
</g>
<!-- Node21&#45;&gt;Node19 -->
<g id="edge26_Node000021_Node000019" class="edge">
<title>Node21&#45;&gt;Node19</title>
<g id="a_edge26_Node000021_Node000019"><a xlink:title=" ">
<path fill="none" stroke="#63b8ff" d="M1164.73,-54.98C1141.54,-46.27 1105.27,-32.63 1078.99,-22.75"/>
<polygon fill="#63b8ff" stroke="#63b8ff" points="1080.05,-19.41 1069.46,-19.17 1077.58,-25.97 1080.05,-19.41"/>
</a>
</g>
</g>
<!-- Node22 -->
<g id="Node000022" class="node">
<title>Node22</title>
<g id="a_Node000022"><a xlink:title=" ">
<polygon fill="#e0e0e0" stroke="#999999" points="1142.39,-19 1092.39,-19 1092.39,0 1142.39,0 1142.39,-19"/>
<text text-anchor="middle" x="1117.39" y="-7" font-family="Helvetica,sans-Serif" font-size="10.00">chrono</text>
</a>
</g>
</g>
<!-- Node21&#45;&gt;Node22 -->
<g id="edge24_Node000021_Node000022" class="edge">
<title>Node21&#45;&gt;Node22</title>
<g id="a_edge24_Node000021_Node000022"><a xlink:title=" ">
<path fill="none" stroke="#63b8ff" d="M1176.14,-54.98C1165.59,-47 1149.59,-34.88 1136.95,-25.31"/>
<polygon fill="#63b8ff" stroke="#63b8ff" points="1138.93,-22.42 1128.84,-19.17 1134.7,-28 1138.93,-22.42"/>
</a>
</g>
</g>
<!-- Node23 -->
<g id="Node000023" class="node">
<title>Node23</title>
<g id="a_Node000023"><a xlink:title=" ">
<polygon fill="#e0e0e0" stroke="#999999" points="1213.89,-19 1160.89,-19 1160.89,0 1213.89,0 1213.89,-19"/>
<text text-anchor="middle" x="1187.39" y="-7" font-family="Helvetica,sans-Serif" font-size="10.00">cstdarg</text>
</a>
</g>
</g>
<!-- Node21&#45;&gt;Node23 -->
<g id="edge25_Node000021_Node000023" class="edge">
<title>Node21&#45;&gt;Node23</title>
<g id="a_edge25_Node000021_Node000023"><a xlink:title=" ">
<path fill="none" stroke="#63b8ff" d="M1187.39,-54.75C1187.39,-47.8 1187.39,-37.85 1187.39,-29.13"/>
<polygon fill="#63b8ff" stroke="#63b8ff" points="1190.89,-29.09 1187.39,-19.09 1183.89,-29.09 1190.89,-29.09"/>
</a>
</g>
</g>
<!-- Node24 -->
<g id="Node000024" class="node">
<title>Node24</title>
<g id="a_Node000024"><a xlink:title=" ">
<polygon fill="#e0e0e0" stroke="#999999" points="1280.39,-19 1232.39,-19 1232.39,0 1280.39,0 1280.39,-19"/>
<text text-anchor="middle" x="1256.39" y="-7" font-family="Helvetica,sans-Serif" font-size="10.00">mutex</text>
</a>
</g>
</g>
<!-- Node21&#45;&gt;Node24 -->
<g id="edge28_Node000021_Node000024" class="edge">
<title>Node21&#45;&gt;Node24</title>
<g id="a_edge28_Node000021_Node000024"><a xlink:title=" ">
<path fill="none" stroke="#63b8ff" d="M1198.47,-54.98C1208.87,-47 1224.65,-34.88 1237.11,-25.31"/>
<polygon fill="#63b8ff" stroke="#63b8ff" points="1239.3,-28.04 1245.1,-19.17 1235.04,-22.49 1239.3,-28.04"/>
</a>
</g>
</g>
<!-- Node27&#45;&gt;Node3 -->
<g id="edge50_Node000027_Node000003" class="edge">
<title>Node27&#45;&gt;Node3</title>
<g id="a_edge50_Node000027_Node000003"><a xlink:title=" ">
<path fill="none" stroke="#63b8ff" d="M1017.07,-222C937.2,-212.45 788.01,-194.6 699.5,-184.01"/>
<polygon fill="#63b8ff" stroke="#63b8ff" points="699.89,-180.53 689.55,-182.82 699.06,-187.48 699.89,-180.53"/>
</a>
</g>
</g>
<!-- Node27&#45;&gt;Node4 -->
<g id="edge38_Node000027_Node000004" class="edge">
<title>Node27&#45;&gt;Node4</title>
<g id="a_edge38_Node000027_Node000004"><a xlink:title=" ">
<path fill="none" stroke="#63b8ff" d="M1060.19,-219.74C1030.55,-197.09 946.81,-136.52 866.39,-110 741.1,-68.68 582.44,-64.35 511.54,-64.73"/>
<polygon fill="#63b8ff" stroke="#63b8ff" points="511.3,-61.24 501.34,-64.83 511.37,-68.24 511.3,-61.24"/>
</a>
</g>
</g>
<!-- Node27&#45;&gt;Node7 -->
<g id="edge39_Node000027_Node000007" class="edge">
<title>Node27&#45;&gt;Node7</title>
<g id="a_edge39_Node000027_Node000007"><a xlink:title=" ">
<path fill="none" stroke="#63b8ff" d="M1017.05,-224.79C977.29,-220 923.37,-209.05 882.39,-184 863.75,-172.61 848.32,-152.58 838.79,-138.05"/>
<polygon fill="#63b8ff" stroke="#63b8ff" points="841.68,-136.07 833.41,-129.45 835.75,-139.78 841.68,-136.07"/>
</a>
</g>
</g>
<!-- Node27&#45;&gt;Node11 -->
<g id="edge40_Node000027_Node000011" class="edge">
<title>Node27&#45;&gt;Node11</title>
<g id="a_edge40_Node000027_Node000011"><a xlink:title=" ">
<path fill="none" stroke="#63b8ff" d="M1090.43,-219.92C1107.92,-211.69 1134.26,-198.41 1155.39,-184 1217.36,-141.74 1235.4,-131.65 1283.39,-74 1295.1,-59.93 1305.3,-41.7 1312.01,-28.38"/>
<polygon fill="#63b8ff" stroke="#63b8ff" points="1315.2,-29.82 1316.43,-19.3 1308.9,-26.76 1315.2,-29.82"/>
</a>
</g>
</g>
<!-- Node27&#45;&gt;Node12 -->
<g id="edge41_Node000027_Node000012" class="edge">
<title>Node27&#45;&gt;Node12</title>
<g id="a_edge41_Node000027_Node000012"><a xlink:title=" ">
<path fill="none" stroke="#63b8ff" d="M1099.06,-219.86C1123.23,-211.88 1158.96,-199.01 1188.39,-184 1216.56,-169.63 1246.69,-148.98 1265.76,-135.17"/>
<polygon fill="#63b8ff" stroke="#63b8ff" points="1267.94,-137.91 1273.94,-129.18 1263.81,-132.27 1267.94,-137.91"/>
</a>
</g>
</g>
<!-- Node27&#45;&gt;Node17 -->
<g id="edge49_Node000027_Node000017" class="edge">
<title>Node27&#45;&gt;Node17</title>
<g id="a_edge49_Node000027_Node000017"><a xlink:title=" ">
<path fill="none" stroke="#63b8ff" d="M1061.03,-219.86C1051.51,-211.49 1037.55,-198.03 1028.39,-184 1019.23,-169.97 1012.29,-152.2 1007.89,-139.02"/>
<polygon fill="#63b8ff" stroke="#63b8ff" points="1011.15,-137.71 1004.8,-129.22 1004.47,-139.81 1011.15,-137.71"/>
</a>
</g>
</g>
<!-- Node28 -->
<g id="Node000028" class="node">
<title>Node28</title>
<g id="a_Node000028"><a xlink:href="constants_8hpp.html" target="_top" xlink:title=" ">
<polygon fill="white" stroke="#666666" points="1145.89,-184 1036.89,-184 1036.89,-165 1145.89,-165 1145.89,-184"/>
<text text-anchor="middle" x="1091.39" y="-172" font-family="Helvetica,sans-Serif" font-size="10.00">utils/constants.hpp</text>
</a>
</g>
</g>
<!-- Node27&#45;&gt;Node28 -->
<g id="edge42_Node000027_Node000028" class="edge">
<title>Node27&#45;&gt;Node28</title>
<g id="a_edge42_Node000027_Node000028"><a xlink:title=" ">
<path fill="none" stroke="#63b8ff" d="M1074.69,-219.75C1077.37,-212.65 1081.24,-202.4 1084.58,-193.56"/>
<polygon fill="#63b8ff" stroke="#63b8ff" points="1087.89,-194.68 1088.15,-184.09 1081.34,-192.21 1087.89,-194.68"/>
</a>
</g>
</g>
<!-- Node28&#45;&gt;Node5 -->
<g id="edge44_Node000028_Node000005" class="edge">
<title>Node28&#45;&gt;Node5</title>
<g id="a_edge44_Node000028_Node000005"><a xlink:title=" ">
<path fill="none" stroke="#63b8ff" d="M1088.54,-164.76C1084.14,-152.01 1074.88,-127.88 1062.39,-110 1054.87,-99.24 1044.58,-88.84 1035.73,-80.79"/>
<polygon fill="#63b8ff" stroke="#63b8ff" points="1037.96,-78.09 1028.13,-74.13 1033.34,-83.36 1037.96,-78.09"/>
</a>
</g>
</g>
<!-- Node28&#45;&gt;Node10 -->
<g id="edge47_Node000028_Node000010" class="edge">
<title>Node28&#45;&gt;Node10</title>
<g id="a_edge47_Node000028_Node000010"><a xlink:title=" ">
<path fill="none" stroke="#63b8ff" d="M1036.71,-167.3C1006.53,-161.53 969.89,-150.41 943.39,-129 929.03,-117.4 919.64,-98.26 914.23,-84.02"/>
<polygon fill="#63b8ff" stroke="#63b8ff" points="917.44,-82.59 910.86,-74.29 910.83,-84.88 917.44,-82.59"/>
</a>
</g>
</g>
<!-- Node28&#45;&gt;Node17 -->
<g id="edge48_Node000028_Node000017" class="edge">
<title>Node28&#45;&gt;Node17</title>
<g id="a_edge48_Node000028_Node000017"><a xlink:title=" ">
<path fill="none" stroke="#63b8ff" d="M1077.09,-164.98C1063.29,-156.77 1042.15,-144.18 1025.88,-134.49"/>
<polygon fill="#63b8ff" stroke="#63b8ff" points="1027.33,-131.28 1016.95,-129.17 1023.75,-137.29 1027.33,-131.28"/>
</a>
</g>
</g>
<!-- Node28&#45;&gt;Node18 -->
<g id="edge43_Node000028_Node000018" class="edge">
<title>Node28&#45;&gt;Node18</title>
<g id="a_edge43_Node000028_Node000018"><a xlink:title=" ">
<path fill="none" stroke="#63b8ff" d="M1108.68,-164.85C1125.19,-156.37 1150.56,-142.74 1171.39,-129 1194.34,-113.86 1219.09,-94.18 1235.32,-80.77"/>
<polygon fill="#63b8ff" stroke="#63b8ff" points="1237.96,-83.13 1243.4,-74.04 1233.48,-77.75 1237.96,-83.13"/>
</a>
</g>
</g>
<!-- Node28&#45;&gt;Node19 -->
<g id="edge45_Node000028_Node000019" class="edge">
<title>Node28&#45;&gt;Node19</title>
<g id="a_edge45_Node000028_Node000019"><a xlink:title=" ">
<path fill="none" stroke="#63b8ff" d="M1096.58,-164.88C1108.12,-144.49 1133.37,-92.25 1113.39,-55 1105.88,-41 1091.82,-30.66 1078.51,-23.48"/>
<polygon fill="#63b8ff" stroke="#63b8ff" points="1080.01,-20.33 1069.5,-19.02 1076.9,-26.6 1080.01,-20.33"/>
</a>
</g>
</g>
<!-- Node28&#45;&gt;Node20 -->
<g id="edge46_Node000028_Node000020" class="edge">
<title>Node28&#45;&gt;Node20</title>
<g id="a_edge46_Node000028_Node000020"><a xlink:title=" ">
<path fill="none" stroke="#63b8ff" d="M1093.05,-164.83C1095.15,-152.56 1098.17,-129.46 1095.39,-110 1094.13,-101.24 1091.56,-91.79 1089.03,-83.86"/>
<polygon fill="#63b8ff" stroke="#63b8ff" points="1092.27,-82.54 1085.73,-74.2 1085.65,-84.8 1092.27,-82.54"/>
</a>
</g>
</g>
<!-- Node29&#45;&gt;Node11 -->
<g id="edge53_Node000029_Node000011" class="edge">
<title>Node29&#45;&gt;Node11</title>
<g id="a_edge53_Node000029_Node000011"><a xlink:title=" ">
<path fill="none" stroke="#63b8ff" d="M1372.43,-164.74C1363.81,-139.2 1338.59,-64.43 1326.71,-29.23"/>
<polygon fill="#63b8ff" stroke="#63b8ff" points="1329.87,-27.66 1323.36,-19.31 1323.24,-29.9 1329.87,-27.66"/>
</a>
</g>
</g>
<!-- Node29&#45;&gt;Node12 -->
<g id="edge54_Node000029_Node000012" class="edge">
<title>Node29&#45;&gt;Node12</title>
<g id="a_edge54_Node000029_Node000012"><a xlink:title=" ">
<path fill="none" stroke="#63b8ff" d="M1360.93,-164.98C1346.97,-156.77 1325.59,-144.18 1309.14,-134.49"/>
<polygon fill="#63b8ff" stroke="#63b8ff" points="1310.5,-131.23 1300.11,-129.17 1306.95,-137.26 1310.5,-131.23"/>
</a>
</g>
</g>
<!-- Node29&#45;&gt;Node17 -->
<g id="edge55_Node000029_Node000017" class="edge">
<title>Node29&#45;&gt;Node17</title>
<g id="a_edge55_Node000029_Node000017"><a xlink:title=" ">
<path fill="none" stroke="#63b8ff" d="M1316.29,-165.1C1247.07,-155.27 1133.02,-139.06 1063.12,-129.13"/>
<polygon fill="#63b8ff" stroke="#63b8ff" points="1063.53,-125.65 1053.13,-127.71 1062.54,-132.58 1063.53,-125.65"/>
</a>
</g>
</g>
<!-- Node30 -->
<g id="Node000030" class="node">
<title>Node30</title>
<g id="a_Node000030"><a xlink:title=" ">
<polygon fill="#e0e0e0" stroke="#999999" points="1468.89,-129 1403.89,-129 1403.89,-110 1468.89,-110 1468.89,-129"/>
<text text-anchor="middle" x="1436.39" y="-117" font-family="Helvetica,sans-Serif" font-size="10.00">stdexcept</text>
</a>
</g>
</g>
<!-- Node29&#45;&gt;Node30 -->
<g id="edge52_Node000029_Node000030" class="edge">
<title>Node29&#45;&gt;Node30</title>
<g id="a_edge52_Node000029_Node000030"><a xlink:title=" ">
<path fill="none" stroke="#63b8ff" d="M1385.19,-164.98C1394.21,-157.15 1407.79,-145.34 1418.71,-135.86"/>
<polygon fill="#63b8ff" stroke="#63b8ff" points="1421.16,-138.37 1426.41,-129.17 1416.57,-133.09 1421.16,-138.37"/>
</a>
</g>
</g>
</g>
</svg>
