<?xml version="1.0" encoding="UTF-8" standalone="no"?>
<!DOCTYPE svg PUBLIC "-//W3C//DTD SVG 1.1//EN"
 "http://www.w3.org/Graphics/SVG/1.1/DTD/svg11.dtd">
<!-- Generated by graphviz version 2.43.0 (0)
 -->
<!-- Title: src/lib/patchGeneration/normalComputation.cpp Pages: 1 -->
<svg width="1153pt" height="203pt"
 viewBox="0.00 0.00 1152.50 203.00" xmlns="http://www.w3.org/2000/svg" xmlns:xlink="http://www.w3.org/1999/xlink">
<g id="graph0" class="graph" transform="scale(1 1) rotate(0) translate(4 199)">
<title>src/lib/patchGeneration/normalComputation.cpp</title>
<!-- Node1 -->
<g id="Node000001" class="node">
<title>Node1</title>
<g id="a_Node000001"><a xlink:title=" ">
<polygon fill="#999999" stroke="#666666" points="612,-195 475,-195 475,-165 612,-165 612,-195"/>
<text text-anchor="start" x="483" y="-183" font-family="Helvetica,sans-Serif" font-size="10.00">src/lib/patchGeneration</text>
<text text-anchor="middle" x="543.5" y="-172" font-family="Helvetica,sans-Serif" font-size="10.00">/normalComputation.cpp</text>
</a>
</g>
</g>
<!-- Node2 -->
<g id="Node000002" class="node">
<title>Node2</title>
<g id="a_Node000002"><a xlink:href="normalComputation_8hpp.html" target="_top" xlink:title=" ">
<polygon fill="white" stroke="#666666" points="302,-129 167,-129 167,-110 302,-110 302,-129"/>
<text text-anchor="middle" x="234.5" y="-117" font-family="Helvetica,sans-Serif" font-size="10.00">normalComputation.hpp</text>
</a>
</g>
</g>
<!-- Node1&#45;&gt;Node2 -->
<g id="edge1_Node000001_Node000002" class="edge">
<title>Node1&#45;&gt;Node2</title>
<g id="a_edge1_Node000001_Node000002"><a xlink:title=" ">
<path fill="none" stroke="#63b8ff" d="M474.92,-166.02C419.08,-155.45 341.28,-140.72 289.48,-130.91"/>
<polygon fill="#63b8ff" stroke="#63b8ff" points="289.95,-127.44 279.48,-129.02 288.65,-134.31 289.95,-127.44"/>
</a>
</g>
</g>
<!-- Node3 -->
<g id="Node000003" class="node">
<title>Node3</title>
<g id="a_Node000003"><a xlink:href="uvgvpcc_8hpp.html" target="_top" xlink:title=" ">
<polygon fill="white" stroke="#666666" points="390.5,-74 268.5,-74 268.5,-55 390.5,-55 390.5,-74"/>
<text text-anchor="middle" x="329.5" y="-62" font-family="Helvetica,sans-Serif" font-size="10.00">uvgvpcc/uvgvpcc.hpp</text>
</a>
</g>
</g>
<!-- Node1&#45;&gt;Node3 -->
<g id="edge43_Node000001_Node000003" class="edge">
<title>Node1&#45;&gt;Node3</title>
<g id="a_edge43_Node000001_Node000003"><a xlink:title=" ">
<path fill="none" stroke="#63b8ff" d="M474.8,-174.96C369.49,-168.05 178.08,-152.41 157.5,-129 124.36,-91.29 197.34,-75.94 258.26,-69.72"/>
<polygon fill="#63b8ff" stroke="#63b8ff" points="258.68,-73.19 268.3,-68.76 258.01,-66.22 258.68,-73.19"/>
</a>
</g>
</g>
<!-- Node4 -->
<g id="Node000004" class="node">
<title>Node4</title>
<g id="a_Node000004"><a xlink:title=" ">
<polygon fill="#e0e0e0" stroke="#999999" points="53,-19 0,-19 0,0 53,0 53,-19"/>
<text text-anchor="middle" x="26.5" y="-7" font-family="Helvetica,sans-Serif" font-size="10.00">cstddef</text>
</a>
</g>
</g>
<!-- Node1&#45;&gt;Node4 -->
<g id="edge16_Node000001_Node000004" class="edge">
<title>Node1&#45;&gt;Node4</title>
<g id="a_edge16_Node000001_Node000004"><a xlink:title=" ">
<path fill="none" stroke="#63b8ff" d="M474.84,-176.88C372.11,-172.7 184.21,-160.84 125.5,-129 82.45,-105.66 50.43,-55.29 35.62,-28.35"/>
<polygon fill="#63b8ff" stroke="#63b8ff" points="38.58,-26.47 30.8,-19.28 32.4,-29.76 38.58,-26.47"/>
</a>
</g>
</g>
<!-- Node7 -->
<g id="Node000007" class="node">
<title>Node7</title>
<g id="a_Node000007"><a xlink:title=" ">
<polygon fill="#e0e0e0" stroke="#999999" points="129.5,-19 71.5,-19 71.5,0 129.5,0 129.5,-19"/>
<text text-anchor="middle" x="100.5" y="-7" font-family="Helvetica,sans-Serif" font-size="10.00">memory</text>
</a>
</g>
</g>
<!-- Node1&#45;&gt;Node7 -->
<g id="edge17_Node000001_Node000007" class="edge">
<title>Node1&#45;&gt;Node7</title>
<g id="a_edge17_Node000001_Node000007"><a xlink:title=" ">
<path fill="none" stroke="#63b8ff" d="M474.62,-178.69C374.47,-176.87 195.18,-168.07 145.5,-129 114.46,-104.59 104.82,-56.18 101.84,-29.4"/>
<polygon fill="#63b8ff" stroke="#63b8ff" points="105.29,-28.73 100.9,-19.09 98.32,-29.36 105.29,-28.73"/>
</a>
</g>
</g>
<!-- Node11 -->
<g id="Node000011" class="node">
<title>Node11</title>
<g id="a_Node000011"><a xlink:title=" ">
<polygon fill="#e0e0e0" stroke="#999999" points="864.5,-19 820.5,-19 820.5,0 864.5,0 864.5,-19"/>
<text text-anchor="middle" x="842.5" y="-7" font-family="Helvetica,sans-Serif" font-size="10.00">string</text>
</a>
</g>
</g>
<!-- Node1&#45;&gt;Node11 -->
<g id="edge18_Node000001_Node000011" class="edge">
<title>Node1&#45;&gt;Node11</title>
<g id="a_edge18_Node000001_Node000011"><a xlink:title=" ">
<path fill="none" stroke="#63b8ff" d="M612.11,-171.32C672.98,-163.33 756.22,-149.15 782.5,-129 815.32,-103.83 831.61,-55.75 838.41,-29.23"/>
<polygon fill="#63b8ff" stroke="#63b8ff" points="841.86,-29.85 840.77,-19.31 835.05,-28.23 841.86,-29.85"/>
</a>
</g>
</g>
<!-- Node12 -->
<g id="Node000012" class="node">
<title>Node12</title>
<g id="a_Node000012"><a xlink:title=" ">
<polygon fill="#e0e0e0" stroke="#999999" points="460,-19 413,-19 413,0 460,0 460,-19"/>
<text text-anchor="middle" x="436.5" y="-7" font-family="Helvetica,sans-Serif" font-size="10.00">vector</text>
</a>
</g>
</g>
<!-- Node1&#45;&gt;Node12 -->
<g id="edge19_Node000001_Node000012" class="edge">
<title>Node1&#45;&gt;Node12</title>
<g id="a_edge19_Node000001_Node000012"><a xlink:title=" ">
<path fill="none" stroke="#63b8ff" d="M517.09,-164.98C502.98,-156.29 486.34,-143.95 475.5,-129 453.22,-98.27 443.17,-54.08 439.04,-29.26"/>
<polygon fill="#63b8ff" stroke="#63b8ff" points="442.46,-28.42 437.5,-19.06 435.53,-29.47 442.46,-28.42"/>
</a>
</g>
</g>
<!-- Node14 -->
<g id="Node000014" class="node">
<title>Node14</title>
<g id="a_Node000014"><a xlink:title=" ">
<polygon fill="#e0e0e0" stroke="#999999" points="802.5,-19 760.5,-19 760.5,0 802.5,0 802.5,-19"/>
<text text-anchor="middle" x="781.5" y="-7" font-family="Helvetica,sans-Serif" font-size="10.00">array</text>
</a>
</g>
</g>
<!-- Node1&#45;&gt;Node14 -->
<g id="edge13_Node000001_Node000014" class="edge">
<title>Node1&#45;&gt;Node14</title>
<g id="a_edge13_Node000001_Node000014"><a xlink:title=" ">
<path fill="none" stroke="#63b8ff" d="M612.25,-171.7C668.59,-164.25 742.21,-150.67 762.5,-129 787.93,-101.84 787.13,-54.91 784.32,-29.01"/>
<polygon fill="#63b8ff" stroke="#63b8ff" points="787.78,-28.49 783.01,-19.02 780.84,-29.39 787.78,-28.49"/>
</a>
</g>
</g>
<!-- Node15 -->
<g id="Node000015" class="node">
<title>Node15</title>
<g id="a_Node000015"><a xlink:title=" ">
<polygon fill="#e0e0e0" stroke="#999999" points="672.5,-129 620.5,-129 620.5,-110 672.5,-110 672.5,-129"/>
<text text-anchor="middle" x="646.5" y="-117" font-family="Helvetica,sans-Serif" font-size="10.00">cassert</text>
</a>
</g>
</g>
<!-- Node1&#45;&gt;Node15 -->
<g id="edge14_Node000001_Node000015" class="edge">
<title>Node1&#45;&gt;Node15</title>
<g id="a_edge14_Node000001_Node000015"><a xlink:title=" ">
<path fill="none" stroke="#63b8ff" d="M568.17,-164.99C584.59,-155.66 606.05,-143.47 622.36,-134.21"/>
<polygon fill="#63b8ff" stroke="#63b8ff" points="624.32,-137.12 631.29,-129.14 620.87,-131.03 624.32,-137.12"/>
</a>
</g>
</g>
<!-- Node16 -->
<g id="Node000016" class="node">
<title>Node16</title>
<g id="a_Node000016"><a xlink:title=" ">
<polygon fill="#e0e0e0" stroke="#999999" points="738,-129 691,-129 691,-110 738,-110 738,-129"/>
<text text-anchor="middle" x="714.5" y="-117" font-family="Helvetica,sans-Serif" font-size="10.00">cmath</text>
</a>
</g>
</g>
<!-- Node1&#45;&gt;Node16 -->
<g id="edge15_Node000001_Node000016" class="edge">
<title>Node1&#45;&gt;Node16</title>
<g id="a_edge15_Node000001_Node000016"><a xlink:title=" ">
<path fill="none" stroke="#63b8ff" d="M584.46,-164.99C614.03,-154.87 653.45,-141.38 681.12,-131.92"/>
<polygon fill="#63b8ff" stroke="#63b8ff" points="682.41,-135.18 690.73,-128.63 680.14,-128.56 682.41,-135.18"/>
</a>
</g>
</g>
<!-- Node17 -->
<g id="Node000017" class="node">
<title>Node17</title>
<g id="a_Node000017"><a xlink:href="fileExport_8hpp.html" target="_top" xlink:title=" ">
<polygon fill="white" stroke="#666666" points="428.5,-129 320.5,-129 320.5,-110 428.5,-110 428.5,-129"/>
<text text-anchor="middle" x="374.5" y="-117" font-family="Helvetica,sans-Serif" font-size="10.00">utils/fileExport.hpp</text>
</a>
</g>
</g>
<!-- Node1&#45;&gt;Node17 -->
<g id="edge20_Node000001_Node000017" class="edge">
<title>Node1&#45;&gt;Node17</title>
<g id="a_edge20_Node000001_Node000017"><a xlink:title=" ">
<path fill="none" stroke="#63b8ff" d="M503.02,-164.99C474.32,-155.05 436.22,-141.86 408.97,-132.43"/>
<polygon fill="#63b8ff" stroke="#63b8ff" points="410.05,-129.1 399.46,-129.14 407.76,-135.72 410.05,-129.1"/>
</a>
</g>
</g>
<!-- Node18 -->
<g id="Node000018" class="node">
<title>Node18</title>
<g id="a_Node000018"><a xlink:href="utils_8hpp.html" target="_top" xlink:title=" ">
<polygon fill="white" stroke="#666666" points="616,-74 533,-74 533,-55 616,-55 616,-74"/>
<text text-anchor="middle" x="574.5" y="-62" font-family="Helvetica,sans-Serif" font-size="10.00">utils/utils.hpp</text>
</a>
</g>
</g>
<!-- Node1&#45;&gt;Node18 -->
<g id="edge35_Node000001_Node000018" class="edge">
<title>Node1&#45;&gt;Node18</title>
<g id="a_edge35_Node000001_Node000018"><a xlink:title=" ">
<path fill="none" stroke="#63b8ff" d="M612.1,-171.26C664.6,-163.76 730.76,-150.34 747.5,-129 752.71,-122.36 752.67,-116.67 747.5,-110 739.92,-100.22 674.51,-85.33 626.35,-75.51"/>
<polygon fill="#63b8ff" stroke="#63b8ff" points="626.86,-72.04 616.37,-73.49 625.48,-78.9 626.86,-72.04"/>
</a>
</g>
</g>
<!-- Node21 -->
<g id="Node000021" class="node">
<title>Node21</title>
<g id="a_Node000021"><a xlink:href="parameters_8hpp.html" target="_top" xlink:title=" ">
<polygon fill="white" stroke="#666666" points="602.5,-129 484.5,-129 484.5,-110 602.5,-110 602.5,-129"/>
<text text-anchor="middle" x="543.5" y="-117" font-family="Helvetica,sans-Serif" font-size="10.00">utils/parameters.hpp</text>
</a>
</g>
</g>
<!-- Node1&#45;&gt;Node21 -->
<g id="edge30_Node000001_Node000021" class="edge">
<title>Node1&#45;&gt;Node21</title>
<g id="a_edge30_Node000001_Node000021"><a xlink:title=" ">
<path fill="none" stroke="#63b8ff" d="M543.5,-164.84C543.5,-157.21 543.5,-147.7 543.5,-139.45"/>
<polygon fill="#63b8ff" stroke="#63b8ff" points="547,-139.27 543.5,-129.27 540,-139.27 547,-139.27"/>
</a>
</g>
</g>
<!-- Node23 -->
<g id="Node000023" class="node">
<title>Node23</title>
<g id="a_Node000023"><a xlink:href="log_8hpp.html" target="_top" xlink:title=" ">
<polygon fill="white" stroke="#666666" points="966.5,-74 870.5,-74 870.5,-55 966.5,-55 966.5,-74"/>
<text text-anchor="middle" x="918.5" y="-62" font-family="Helvetica,sans-Serif" font-size="10.00">uvgvpcc/log.hpp</text>
</a>
</g>
</g>
<!-- Node1&#45;&gt;Node23 -->
<g id="edge36_Node000001_Node000023" class="edge">
<title>Node1&#45;&gt;Node23</title>
<g id="a_edge36_Node000001_Node000023"><a xlink:title=" ">
<path fill="none" stroke="#63b8ff" d="M612.02,-173.11C690.93,-165.46 815.03,-150.48 856.5,-129 877.57,-118.09 895.73,-97.32 906.86,-82.5"/>
<polygon fill="#63b8ff" stroke="#63b8ff" points="909.84,-84.35 912.84,-74.19 904.16,-80.26 909.84,-84.35"/>
</a>
</g>
</g>
<!-- Node2&#45;&gt;Node3 -->
<g id="edge2_Node000002_Node000003" class="edge">
<title>Node2&#45;&gt;Node3</title>
<g id="a_edge2_Node000002_Node000003"><a xlink:title=" ">
<path fill="none" stroke="#63b8ff" d="M249.76,-109.98C264.63,-101.69 287.48,-88.94 304.92,-79.22"/>
<polygon fill="#63b8ff" stroke="#63b8ff" points="306.93,-82.1 313.96,-74.17 303.52,-75.99 306.93,-82.1"/>
</a>
</g>
</g>
<!-- Node3&#45;&gt;Node4 -->
<g id="edge3_Node000003_Node000004" class="edge">
<title>Node3&#45;&gt;Node4</title>
<g id="a_edge3_Node000003_Node000004"><a xlink:title=" ">
<path fill="none" stroke="#63b8ff" d="M271.48,-54.97C219.49,-47.07 140.91,-34.5 63.16,-19.01"/>
<polygon fill="#63b8ff" stroke="#63b8ff" points="63.69,-15.55 53.19,-17.01 62.31,-22.41 63.69,-15.55"/>
</a>
</g>
</g>
<!-- Node5 -->
<g id="Node000005" class="node">
<title>Node5</title>
<g id="a_Node000005"><a xlink:title=" ">
<polygon fill="#e0e0e0" stroke="#999999" points="528.5,-19 478.5,-19 478.5,0 528.5,0 528.5,-19"/>
<text text-anchor="middle" x="503.5" y="-7" font-family="Helvetica,sans-Serif" font-size="10.00">cstdint</text>
</a>
</g>
</g>
<!-- Node3&#45;&gt;Node5 -->
<g id="edge4_Node000003_Node000005" class="edge">
<title>Node3&#45;&gt;Node5</title>
<g id="a_edge4_Node000003_Node000005"><a xlink:title=" ">
<path fill="none" stroke="#63b8ff" d="M357.46,-54.98C387.75,-45.76 436.14,-31.02 468.83,-21.06"/>
<polygon fill="#63b8ff" stroke="#63b8ff" points="469.89,-24.4 478.44,-18.13 467.85,-17.7 469.89,-24.4"/>
</a>
</g>
</g>
<!-- Node6 -->
<g id="Node000006" class="node">
<title>Node6</title>
<g id="a_Node000006"><a xlink:title=" ">
<polygon fill="#e0e0e0" stroke="#999999" points="680.5,-19 620.5,-19 620.5,0 680.5,0 680.5,-19"/>
<text text-anchor="middle" x="650.5" y="-7" font-family="Helvetica,sans-Serif" font-size="10.00">iostream</text>
</a>
</g>
</g>
<!-- Node3&#45;&gt;Node6 -->
<g id="edge5_Node000003_Node000006" class="edge">
<title>Node3&#45;&gt;Node6</title>
<g id="a_edge5_Node000003_Node000006"><a xlink:title=" ">
<path fill="none" stroke="#63b8ff" d="M390.19,-54.96C445.18,-46.99 528.67,-34.3 610.35,-19.13"/>
<polygon fill="#63b8ff" stroke="#63b8ff" points="611.12,-22.54 620.3,-17.26 609.83,-15.66 611.12,-22.54"/>
</a>
</g>
</g>
<!-- Node3&#45;&gt;Node7 -->
<g id="edge6_Node000003_Node000007" class="edge">
<title>Node3&#45;&gt;Node7</title>
<g id="a_edge6_Node000003_Node000007"><a xlink:title=" ">
<path fill="none" stroke="#63b8ff" d="M292.71,-54.98C250.69,-45.26 182.23,-29.42 139.36,-19.49"/>
<polygon fill="#63b8ff" stroke="#63b8ff" points="140.11,-16.07 129.57,-17.23 138.53,-22.89 140.11,-16.07"/>
</a>
</g>
</g>
<!-- Node8 -->
<g id="Node000008" class="node">
<title>Node8</title>
<g id="a_Node000008"><a xlink:title=" ">
<polygon fill="#e0e0e0" stroke="#999999" points="195,-19 148,-19 148,0 195,0 195,-19"/>
<text text-anchor="middle" x="171.5" y="-7" font-family="Helvetica,sans-Serif" font-size="10.00">queue</text>
</a>
</g>
</g>
<!-- Node3&#45;&gt;Node8 -->
<g id="edge7_Node000003_Node000008" class="edge">
<title>Node3&#45;&gt;Node8</title>
<g id="a_edge7_Node000003_Node000008"><a xlink:title=" ">
<path fill="none" stroke="#63b8ff" d="M304.11,-54.98C277.08,-45.91 234.17,-31.52 204.52,-21.58"/>
<polygon fill="#63b8ff" stroke="#63b8ff" points="205.61,-18.25 195.02,-18.39 203.38,-24.89 205.61,-18.25"/>
</a>
</g>
</g>
<!-- Node9 -->
<g id="Node000009" class="node">
<title>Node9</title>
<g id="a_Node000009"><a xlink:title=" ">
<polygon fill="#e0e0e0" stroke="#999999" points="284,-19 213,-19 213,0 284,0 284,-19"/>
<text text-anchor="middle" x="248.5" y="-7" font-family="Helvetica,sans-Serif" font-size="10.00">semaphore</text>
</a>
</g>
</g>
<!-- Node3&#45;&gt;Node9 -->
<g id="edge8_Node000003_Node000009" class="edge">
<title>Node3&#45;&gt;Node9</title>
<g id="a_edge8_Node000003_Node000009"><a xlink:title=" ">
<path fill="none" stroke="#63b8ff" d="M316.49,-54.98C304.04,-46.84 285.04,-34.41 270.29,-24.76"/>
<polygon fill="#63b8ff" stroke="#63b8ff" points="272.04,-21.72 261.75,-19.17 268.2,-27.57 272.04,-21.72"/>
</a>
</g>
</g>
<!-- Node10 -->
<g id="Node000010" class="node">
<title>Node10</title>
<g id="a_Node000010"><a xlink:title=" ">
<polygon fill="#e0e0e0" stroke="#999999" points="602.5,-19 546.5,-19 546.5,0 602.5,0 602.5,-19"/>
<text text-anchor="middle" x="574.5" y="-7" font-family="Helvetica,sans-Serif" font-size="10.00">sstream</text>
</a>
</g>
</g>
<!-- Node3&#45;&gt;Node10 -->
<g id="edge9_Node000003_Node000010" class="edge">
<title>Node3&#45;&gt;Node10</title>
<g id="a_edge9_Node000003_Node000010"><a xlink:title=" ">
<path fill="none" stroke="#63b8ff" d="M370.19,-54.98C410.1,-46.59 472.94,-33.26 536.45,-19.21"/>
<polygon fill="#63b8ff" stroke="#63b8ff" points="537.22,-22.62 546.23,-17.04 535.71,-15.79 537.22,-22.62"/>
</a>
</g>
</g>
<!-- Node3&#45;&gt;Node11 -->
<g id="edge10_Node000003_Node000011" class="edge">
<title>Node3&#45;&gt;Node11</title>
<g id="a_edge10_Node000003_Node000011"><a xlink:title=" ">
<path fill="none" stroke="#63b8ff" d="M390.84,-61.29C480.89,-57.28 654.2,-46.68 810.02,-18.95"/>
<polygon fill="#63b8ff" stroke="#63b8ff" points="811.04,-22.32 820.26,-17.1 809.79,-15.44 811.04,-22.32"/>
</a>
</g>
</g>
<!-- Node3&#45;&gt;Node12 -->
<g id="edge11_Node000003_Node000012" class="edge">
<title>Node3&#45;&gt;Node12</title>
<g id="a_edge11_Node000003_Node000012"><a xlink:title=" ">
<path fill="none" stroke="#63b8ff" d="M346.69,-54.98C363.75,-46.54 390.13,-33.47 409.9,-23.68"/>
<polygon fill="#63b8ff" stroke="#63b8ff" points="411.59,-26.75 419,-19.17 408.48,-20.47 411.59,-26.75"/>
</a>
</g>
</g>
<!-- Node13 -->
<g id="Node000013" class="node">
<title>Node13</title>
<g id="a_Node000013"><a xlink:title=" ">
<polygon fill="#e0e0e0" stroke="#999999" points="394.5,-19 302.5,-19 302.5,0 394.5,0 394.5,-19"/>
<text text-anchor="middle" x="348.5" y="-7" font-family="Helvetica,sans-Serif" font-size="10.00">../utils/utils.hpp</text>
</a>
</g>
</g>
<!-- Node3&#45;&gt;Node13 -->
<g id="edge12_Node000003_Node000013" class="edge">
<title>Node3&#45;&gt;Node13</title>
<g id="a_edge12_Node000003_Node000013"><a xlink:title=" ">
<path fill="none" stroke="#63b8ff" d="M332.64,-54.75C335.18,-47.65 338.86,-37.4 342.03,-28.56"/>
<polygon fill="#63b8ff" stroke="#63b8ff" points="345.34,-29.68 345.42,-19.09 338.75,-27.32 345.34,-29.68"/>
</a>
</g>
</g>
<!-- Node17&#45;&gt;Node3 -->
<g id="edge29_Node000017_Node000003" class="edge">
<title>Node17&#45;&gt;Node3</title>
<g id="a_edge29_Node000017_Node000003"><a xlink:title=" ">
<path fill="none" stroke="#63b8ff" d="M367.07,-109.75C360.65,-102.18 351.19,-91.05 343.38,-81.84"/>
<polygon fill="#63b8ff" stroke="#63b8ff" points="345.93,-79.45 336.79,-74.09 340.6,-83.98 345.93,-79.45"/>
</a>
</g>
</g>
<!-- Node17&#45;&gt;Node7 -->
<g id="edge21_Node000017_Node000007" class="edge">
<title>Node17&#45;&gt;Node7</title>
<g id="a_edge21_Node000017_Node000007"><a xlink:title=" ">
<path fill="none" stroke="#63b8ff" d="M352,-109.87C328.79,-100.96 291.58,-86.61 259.5,-74 214.94,-56.48 163.51,-35.87 131.5,-22.99"/>
<polygon fill="#63b8ff" stroke="#63b8ff" points="132.4,-19.58 121.82,-19.1 129.79,-26.08 132.4,-19.58"/>
</a>
</g>
</g>
<!-- Node17&#45;&gt;Node12 -->
<g id="edge22_Node000017_Node000012" class="edge">
<title>Node17&#45;&gt;Node12</title>
<g id="a_edge22_Node000017_Node000012"><a xlink:title=" ">
<path fill="none" stroke="#63b8ff" d="M379.57,-109.66C389.8,-91.85 413.04,-51.37 426.45,-28.01"/>
<polygon fill="#63b8ff" stroke="#63b8ff" points="429.59,-29.57 431.53,-19.16 423.52,-26.09 429.59,-29.57"/>
</a>
</g>
</g>
<!-- Node17&#45;&gt;Node18 -->
<g id="edge23_Node000017_Node000018" class="edge">
<title>Node17&#45;&gt;Node18</title>
<g id="a_edge23_Node000017_Node000018"><a xlink:title=" ">
<path fill="none" stroke="#63b8ff" d="M406.63,-109.98C440.65,-100.97 494.5,-86.7 532,-76.76"/>
<polygon fill="#63b8ff" stroke="#63b8ff" points="533.34,-80.03 542.11,-74.08 531.55,-73.26 533.34,-80.03"/>
</a>
</g>
</g>
<!-- Node18&#45;&gt;Node5 -->
<g id="edge25_Node000018_Node000005" class="edge">
<title>Node18&#45;&gt;Node5</title>
<g id="a_edge25_Node000018_Node000005"><a xlink:title=" ">
<path fill="none" stroke="#63b8ff" d="M563.09,-54.98C552.39,-47 536.16,-34.88 523.34,-25.31"/>
<polygon fill="#63b8ff" stroke="#63b8ff" points="525.22,-22.35 515.11,-19.17 521.03,-27.96 525.22,-22.35"/>
</a>
</g>
</g>
<!-- Node18&#45;&gt;Node10 -->
<g id="edge27_Node000018_Node000010" class="edge">
<title>Node18&#45;&gt;Node10</title>
<g id="a_edge27_Node000018_Node000010"><a xlink:title=" ">
<path fill="none" stroke="#63b8ff" d="M574.5,-54.75C574.5,-47.8 574.5,-37.85 574.5,-29.13"/>
<polygon fill="#63b8ff" stroke="#63b8ff" points="578,-29.09 574.5,-19.09 571,-29.09 578,-29.09"/>
</a>
</g>
</g>
<!-- Node18&#45;&gt;Node14 -->
<g id="edge24_Node000018_Node000014" class="edge">
<title>Node18&#45;&gt;Node14</title>
<g id="a_edge24_Node000018_Node000014"><a xlink:title=" ">
<path fill="none" stroke="#63b8ff" d="M609.84,-54.94C643.6,-46.7 696.15,-33.67 750.42,-19.23"/>
<polygon fill="#63b8ff" stroke="#63b8ff" points="751.46,-22.58 760.22,-16.61 749.65,-15.81 751.46,-22.58"/>
</a>
</g>
</g>
<!-- Node19 -->
<g id="Node000019" class="node">
<title>Node19</title>
<g id="a_Node000019"><a xlink:title=" ">
<polygon fill="#e0e0e0" stroke="#999999" points="742.5,-19 698.5,-19 698.5,0 742.5,0 742.5,-19"/>
<text text-anchor="middle" x="720.5" y="-7" font-family="Helvetica,sans-Serif" font-size="10.00">limits</text>
</a>
</g>
</g>
<!-- Node18&#45;&gt;Node19 -->
<g id="edge26_Node000018_Node000019" class="edge">
<title>Node18&#45;&gt;Node19</title>
<g id="a_edge26_Node000018_Node000019"><a xlink:title=" ">
<path fill="none" stroke="#63b8ff" d="M597.96,-54.98C622.51,-46.07 661.22,-32.02 688.55,-22.1"/>
<polygon fill="#63b8ff" stroke="#63b8ff" points="689.85,-25.35 698.06,-18.65 687.47,-18.77 689.85,-25.35"/>
</a>
</g>
</g>
<!-- Node20 -->
<g id="Node000020" class="node">
<title>Node20</title>
<g id="a_Node000020"><a xlink:title=" ">
<polygon fill="#e0e0e0" stroke="#999999" points="938.5,-19 882.5,-19 882.5,0 938.5,0 938.5,-19"/>
<text text-anchor="middle" x="910.5" y="-7" font-family="Helvetica,sans-Serif" font-size="10.00">iomanip</text>
</a>
</g>
</g>
<!-- Node18&#45;&gt;Node20 -->
<g id="edge28_Node000018_Node000020" class="edge">
<title>Node18&#45;&gt;Node20</title>
<g id="a_edge28_Node000018_Node000020"><a xlink:title=" ">
<path fill="none" stroke="#63b8ff" d="M616.24,-56.47C619.37,-55.97 622.48,-55.47 625.5,-55 732.43,-38.33 762.34,-39.41 872.43,-19.07"/>
<polygon fill="#63b8ff" stroke="#63b8ff" points="873.08,-22.51 882.27,-17.24 871.8,-15.63 873.08,-22.51"/>
</a>
</g>
</g>
<!-- Node21&#45;&gt;Node11 -->
<g id="edge32_Node000021_Node000011" class="edge">
<title>Node21&#45;&gt;Node11</title>
<g id="a_edge32_Node000021_Node000011"><a xlink:title=" ">
<path fill="none" stroke="#63b8ff" d="M582.79,-110C616.61,-102.19 666.46,-89.49 708.5,-74 747.87,-59.5 791.43,-37.72 817.88,-23.81"/>
<polygon fill="#63b8ff" stroke="#63b8ff" points="819.62,-26.85 826.81,-19.07 816.34,-20.67 819.62,-26.85"/>
</a>
</g>
</g>
<!-- Node21&#45;&gt;Node12 -->
<g id="edge33_Node000021_Node000012" class="edge">
<title>Node21&#45;&gt;Node12</title>
<g id="a_edge33_Node000021_Node000012"><a xlink:title=" ">
<path fill="none" stroke="#63b8ff" d="M534.74,-109.66C516.71,-91.46 475.19,-49.55 452.32,-26.47"/>
<polygon fill="#63b8ff" stroke="#63b8ff" points="454.6,-23.8 445.08,-19.16 449.63,-28.73 454.6,-23.8"/>
</a>
</g>
</g>
<!-- Node21&#45;&gt;Node18 -->
<g id="edge34_Node000021_Node000018" class="edge">
<title>Node21&#45;&gt;Node18</title>
<g id="a_edge34_Node000021_Node000018"><a xlink:title=" ">
<path fill="none" stroke="#63b8ff" d="M548.62,-109.75C552.86,-102.49 559.03,-91.95 564.28,-82.98"/>
<polygon fill="#63b8ff" stroke="#63b8ff" points="567.45,-84.49 569.48,-74.09 561.41,-80.95 567.45,-84.49"/>
</a>
</g>
</g>
<!-- Node22 -->
<g id="Node000022" class="node">
<title>Node22</title>
<g id="a_Node000022"><a xlink:title=" ">
<polygon fill="#e0e0e0" stroke="#999999" points="699,-74 634,-74 634,-55 699,-55 699,-74"/>
<text text-anchor="middle" x="666.5" y="-62" font-family="Helvetica,sans-Serif" font-size="10.00">stdexcept</text>
</a>
</g>
</g>
<!-- Node21&#45;&gt;Node22 -->
<g id="edge31_Node000021_Node000022" class="edge">
<title>Node21&#45;&gt;Node22</title>
<g id="a_edge31_Node000021_Node000022"><a xlink:title=" ">
<path fill="none" stroke="#63b8ff" d="M563.26,-109.98C583.23,-101.38 614.3,-87.99 637.15,-78.15"/>
<polygon fill="#63b8ff" stroke="#63b8ff" points="638.58,-81.34 646.38,-74.17 635.81,-74.91 638.58,-81.34"/>
</a>
</g>
</g>
<!-- Node23&#45;&gt;Node6 -->
<g id="edge40_Node000023_Node000006" class="edge">
<title>Node23&#45;&gt;Node6</title>
<g id="a_edge40_Node000023_Node000006"><a xlink:title=" ">
<path fill="none" stroke="#63b8ff" d="M872.82,-54.94C828.72,-46.6 759.81,-33.39 690.89,-19.25"/>
<polygon fill="#63b8ff" stroke="#63b8ff" points="691.22,-15.75 680.72,-17.16 689.81,-22.6 691.22,-15.75"/>
</a>
</g>
</g>
<!-- Node23&#45;&gt;Node11 -->
<g id="edge41_Node000023_Node000011" class="edge">
<title>Node23&#45;&gt;Node11</title>
<g id="a_edge41_Node000023_Node000011"><a xlink:title=" ">
<path fill="none" stroke="#63b8ff" d="M906.29,-54.98C894.72,-46.92 877.12,-34.65 863.34,-25.03"/>
<polygon fill="#63b8ff" stroke="#63b8ff" points="865.14,-22.02 854.93,-19.17 861.13,-27.76 865.14,-22.02"/>
</a>
</g>
</g>
<!-- Node23&#45;&gt;Node20 -->
<g id="edge39_Node000023_Node000020" class="edge">
<title>Node23&#45;&gt;Node20</title>
<g id="a_edge39_Node000023_Node000020"><a xlink:title=" ">
<path fill="none" stroke="#63b8ff" d="M917.18,-54.75C916.13,-47.8 914.63,-37.85 913.31,-29.13"/>
<polygon fill="#63b8ff" stroke="#63b8ff" points="916.75,-28.45 911.8,-19.09 909.83,-29.5 916.75,-28.45"/>
</a>
</g>
</g>
<!-- Node24 -->
<g id="Node000024" class="node">
<title>Node24</title>
<g id="a_Node000024"><a xlink:title=" ">
<polygon fill="#e0e0e0" stroke="#999999" points="1006.5,-19 956.5,-19 956.5,0 1006.5,0 1006.5,-19"/>
<text text-anchor="middle" x="981.5" y="-7" font-family="Helvetica,sans-Serif" font-size="10.00">chrono</text>
</a>
</g>
</g>
<!-- Node23&#45;&gt;Node24 -->
<g id="edge37_Node000023_Node000024" class="edge">
<title>Node23&#45;&gt;Node24</title>
<g id="a_edge37_Node000023_Node000024"><a xlink:title=" ">
<path fill="none" stroke="#63b8ff" d="M928.62,-54.98C937.94,-47.15 951.97,-35.34 963.24,-25.86"/>
<polygon fill="#63b8ff" stroke="#63b8ff" points="965.79,-28.29 971.19,-19.17 961.29,-22.93 965.79,-28.29"/>
</a>
</g>
</g>
<!-- Node25 -->
<g id="Node000025" class="node">
<title>Node25</title>
<g id="a_Node000025"><a xlink:title=" ">
<polygon fill="#e0e0e0" stroke="#999999" points="1078,-19 1025,-19 1025,0 1078,0 1078,-19"/>
<text text-anchor="middle" x="1051.5" y="-7" font-family="Helvetica,sans-Serif" font-size="10.00">cstdarg</text>
</a>
</g>
</g>
<!-- Node23&#45;&gt;Node25 -->
<g id="edge38_Node000023_Node000025" class="edge">
<title>Node23&#45;&gt;Node25</title>
<g id="a_edge38_Node000023_Node000025"><a xlink:title=" ">
<path fill="none" stroke="#63b8ff" d="M939.87,-54.98C961.65,-46.3 995.66,-32.75 1020.42,-22.88"/>
<polygon fill="#63b8ff" stroke="#63b8ff" points="1021.75,-26.12 1029.74,-19.17 1019.16,-19.62 1021.75,-26.12"/>
</a>
</g>
</g>
<!-- Node26 -->
<g id="Node000026" class="node">
<title>Node26</title>
<g id="a_Node000026"><a xlink:title=" ">
<polygon fill="#e0e0e0" stroke="#999999" points="1144.5,-19 1096.5,-19 1096.5,0 1144.5,0 1144.5,-19"/>
<text text-anchor="middle" x="1120.5" y="-7" font-family="Helvetica,sans-Serif" font-size="10.00">mutex</text>
</a>
</g>
</g>
<!-- Node23&#45;&gt;Node26 -->
<g id="edge42_Node000023_Node000026" class="edge">
<title>Node23&#45;&gt;Node26</title>
<g id="a_edge42_Node000023_Node000026"><a xlink:title=" ">
<path fill="none" stroke="#63b8ff" d="M950.95,-54.98C988.06,-45.25 1048.54,-29.38 1086.34,-19.46"/>
<polygon fill="#63b8ff" stroke="#63b8ff" points="1087.58,-22.76 1096.37,-16.83 1085.81,-15.98 1087.58,-22.76"/>
</a>
</g>
</g>
</g>
</svg>
