<?xml version="1.0" encoding="UTF-8" standalone="no"?>
<!DOCTYPE svg PUBLIC "-//W3C//DTD SVG 1.1//EN"
 "http://www.w3.org/Graphics/SVG/1.1/DTD/svg11.dtd">
<!-- Generated by graphviz version 2.43.0 (0)
 -->
<!-- Title: src/lib/patchGeneration/normalOrientation.cpp Pages: 1 -->
<svg width="1765pt" height="203pt"
 viewBox="0.00 0.00 1764.50 203.00" xmlns="http://www.w3.org/2000/svg" xmlns:xlink="http://www.w3.org/1999/xlink">
<g id="graph0" class="graph" transform="scale(1 1) rotate(0) translate(4 199)">
<title>src/lib/patchGeneration/normalOrientation.cpp</title>
<!-- Node1 -->
<g id="Node000001" class="node">
<title>Node1</title>
<g id="a_Node000001"><a xlink:title=" ">
<polygon fill="#999999" stroke="#666666" points="791.5,-195 661.5,-195 661.5,-165 791.5,-165 791.5,-195"/>
<text text-anchor="start" x="669.5" y="-183" font-family="Helvetica,sans-Serif" font-size="10.00">src/lib/patchGeneration</text>
<text text-anchor="middle" x="726.5" y="-172" font-family="Helvetica,sans-Serif" font-size="10.00">/normalOrientation.cpp</text>
</a>
</g>
</g>
<!-- Node2 -->
<g id="Node000002" class="node">
<title>Node2</title>
<g id="a_Node000002"><a xlink:href="normalOrientation_8hpp.html" target="_top" xlink:title=" ">
<polygon fill="white" stroke="#666666" points="493,-129 366,-129 366,-110 493,-110 493,-129"/>
<text text-anchor="middle" x="429.5" y="-117" font-family="Helvetica,sans-Serif" font-size="10.00">normalOrientation.hpp</text>
</a>
</g>
</g>
<!-- Node1&#45;&gt;Node2 -->
<g id="edge1_Node000001_Node000002" class="edge">
<title>Node1&#45;&gt;Node2</title>
<g id="a_edge1_Node000001_Node000002"><a xlink:title=" ">
<path fill="none" stroke="#63b8ff" d="M661.32,-166.16C607.81,-155.62 532.94,-140.88 482.92,-131.02"/>
<polygon fill="#63b8ff" stroke="#63b8ff" points="483.44,-127.56 472.95,-129.06 482.09,-134.43 483.44,-127.56"/>
</a>
</g>
</g>
<!-- Node3 -->
<g id="Node000003" class="node">
<title>Node3</title>
<g id="a_Node000003"><a xlink:href="uvgvpcc_8hpp.html" target="_top" xlink:title=" ">
<polygon fill="white" stroke="#666666" points="490.5,-74 368.5,-74 368.5,-55 490.5,-55 490.5,-74"/>
<text text-anchor="middle" x="429.5" y="-62" font-family="Helvetica,sans-Serif" font-size="10.00">uvgvpcc/uvgvpcc.hpp</text>
</a>
</g>
</g>
<!-- Node1&#45;&gt;Node3 -->
<g id="edge51_Node000001_Node000003" class="edge">
<title>Node1&#45;&gt;Node3</title>
<g id="a_edge51_Node000001_Node000003"><a xlink:title=" ">
<path fill="none" stroke="#63b8ff" d="M661.46,-174.8C560.67,-167.63 376.23,-151.57 356.5,-129 339.3,-109.31 370,-90.09 396.71,-78.05"/>
<polygon fill="#63b8ff" stroke="#63b8ff" points="398.1,-81.26 405.91,-74.1 395.34,-74.83 398.1,-81.26"/>
</a>
</g>
</g>
<!-- Node4 -->
<g id="Node000004" class="node">
<title>Node4</title>
<g id="a_Node000004"><a xlink:title=" ">
<polygon fill="#e0e0e0" stroke="#999999" points="53,-19 0,-19 0,0 53,0 53,-19"/>
<text text-anchor="middle" x="26.5" y="-7" font-family="Helvetica,sans-Serif" font-size="10.00">cstddef</text>
</a>
</g>
</g>
<!-- Node1&#45;&gt;Node4 -->
<g id="edge16_Node000001_Node000004" class="edge">
<title>Node1&#45;&gt;Node4</title>
<g id="a_edge16_Node000001_Node000004"><a xlink:title=" ">
<path fill="none" stroke="#63b8ff" d="M661.15,-177.58C575.36,-174.33 420.71,-163.71 293.5,-129 199.4,-103.33 96,-49.35 50.38,-24.08"/>
<polygon fill="#63b8ff" stroke="#63b8ff" points="51.98,-20.97 41.54,-19.15 48.57,-27.08 51.98,-20.97"/>
</a>
</g>
</g>
<!-- Node5 -->
<g id="Node000005" class="node">
<title>Node5</title>
<g id="a_Node000005"><a xlink:title=" ">
<polygon fill="#e0e0e0" stroke="#999999" points="531.5,-19 481.5,-19 481.5,0 531.5,0 531.5,-19"/>
<text text-anchor="middle" x="506.5" y="-7" font-family="Helvetica,sans-Serif" font-size="10.00">cstdint</text>
</a>
</g>
</g>
<!-- Node1&#45;&gt;Node5 -->
<g id="edge21_Node000001_Node000005" class="edge">
<title>Node1&#45;&gt;Node5</title>
<g id="a_edge21_Node000001_Node000005"><a xlink:title=" ">
<path fill="none" stroke="#63b8ff" d="M692.01,-164.88C653.48,-147.8 590.95,-116.03 548.5,-74 534.74,-60.38 522.98,-41.56 515.43,-27.95"/>
<polygon fill="#63b8ff" stroke="#63b8ff" points="518.51,-26.28 510.71,-19.11 512.33,-29.58 518.51,-26.28"/>
</a>
</g>
</g>
<!-- Node7 -->
<g id="Node000007" class="node">
<title>Node7</title>
<g id="a_Node000007"><a xlink:title=" ">
<polygon fill="#e0e0e0" stroke="#999999" points="819.5,-19 761.5,-19 761.5,0 819.5,0 819.5,-19"/>
<text text-anchor="middle" x="790.5" y="-7" font-family="Helvetica,sans-Serif" font-size="10.00">memory</text>
</a>
</g>
</g>
<!-- Node1&#45;&gt;Node7 -->
<g id="edge17_Node000001_Node000007" class="edge">
<title>Node1&#45;&gt;Node7</title>
<g id="a_edge17_Node000001_Node000007"><a xlink:title=" ">
<path fill="none" stroke="#63b8ff" d="M760.32,-164.88C794.02,-148.65 843.42,-118.4 862.5,-74 872.1,-51.66 847.37,-34.16 824.33,-23.24"/>
<polygon fill="#63b8ff" stroke="#63b8ff" points="825.55,-19.95 814.99,-19.1 822.72,-26.35 825.55,-19.95"/>
</a>
</g>
</g>
<!-- Node8 -->
<g id="Node000008" class="node">
<title>Node8</title>
<g id="a_Node000008"><a xlink:title=" ">
<polygon fill="#e0e0e0" stroke="#999999" points="959,-19 912,-19 912,0 959,0 959,-19"/>
<text text-anchor="middle" x="935.5" y="-7" font-family="Helvetica,sans-Serif" font-size="10.00">queue</text>
</a>
</g>
</g>
<!-- Node1&#45;&gt;Node8 -->
<g id="edge18_Node000001_Node000008" class="edge">
<title>Node1&#45;&gt;Node8</title>
<g id="a_edge18_Node000001_Node000008"><a xlink:title=" ">
<path fill="none" stroke="#63b8ff" d="M791.69,-170.85C839.56,-163.49 905.55,-150.46 960.5,-129 1005.23,-111.53 1029.71,-115.71 1053.5,-74 1057.68,-66.66 1058.3,-61.95 1053.5,-55 1048.42,-47.66 1001.9,-31.6 968.82,-20.92"/>
<polygon fill="#63b8ff" stroke="#63b8ff" points="969.63,-17.51 959.04,-17.79 967.5,-24.18 969.63,-17.51"/>
</a>
</g>
</g>
<!-- Node11 -->
<g id="Node000011" class="node">
<title>Node11</title>
<g id="a_Node000011"><a xlink:title=" ">
<polygon fill="#e0e0e0" stroke="#999999" points="1021.5,-19 977.5,-19 977.5,0 1021.5,0 1021.5,-19"/>
<text text-anchor="middle" x="999.5" y="-7" font-family="Helvetica,sans-Serif" font-size="10.00">string</text>
</a>
</g>
</g>
<!-- Node1&#45;&gt;Node11 -->
<g id="edge19_Node000001_Node000011" class="edge">
<title>Node1&#45;&gt;Node11</title>
<g id="a_edge19_Node000001_Node000011"><a xlink:title=" ">
<path fill="none" stroke="#63b8ff" d="M765.52,-164.94C788.59,-155.97 817.99,-143.34 842.5,-129 889.3,-101.62 896.17,-87.6 939.5,-55 952.71,-45.06 967.65,-33.98 979.31,-25.37"/>
<polygon fill="#63b8ff" stroke="#63b8ff" points="981.54,-28.07 987.51,-19.32 977.39,-22.44 981.54,-28.07"/>
</a>
</g>
</g>
<!-- Node12 -->
<g id="Node000012" class="node">
<title>Node12</title>
<g id="a_Node000012"><a xlink:title=" ">
<polygon fill="#e0e0e0" stroke="#999999" points="118,-19 71,-19 71,0 118,0 118,-19"/>
<text text-anchor="middle" x="94.5" y="-7" font-family="Helvetica,sans-Serif" font-size="10.00">vector</text>
</a>
</g>
</g>
<!-- Node1&#45;&gt;Node12 -->
<g id="edge20_Node000001_Node000012" class="edge">
<title>Node1&#45;&gt;Node12</title>
<g id="a_edge20_Node000001_Node000012"><a xlink:title=" ">
<path fill="none" stroke="#63b8ff" d="M661.39,-176.4C585.07,-171.99 455.41,-160.21 348.5,-129 258.85,-102.83 160.87,-49.3 117.43,-24.14"/>
<polygon fill="#63b8ff" stroke="#63b8ff" points="119.17,-21.1 108.77,-19.08 115.64,-27.15 119.17,-21.1"/>
</a>
</g>
</g>
<!-- Node15 -->
<g id="Node000015" class="node">
<title>Node15</title>
<g id="a_Node000015"><a xlink:title=" ">
<polygon fill="#e0e0e0" stroke="#999999" points="1756.5,-19 1692.5,-19 1692.5,0 1756.5,0 1756.5,-19"/>
<text text-anchor="middle" x="1724.5" y="-7" font-family="Helvetica,sans-Serif" font-size="10.00">algorithm</text>
</a>
</g>
</g>
<!-- Node1&#45;&gt;Node15 -->
<g id="edge14_Node000001_Node000015" class="edge">
<title>Node1&#45;&gt;Node15</title>
<g id="a_edge14_Node000001_Node000015"><a xlink:title=" ">
<path fill="none" stroke="#63b8ff" d="M791.63,-168.41C906.95,-149.64 1154.6,-109.17 1363.5,-74 1502.61,-50.58 1540.05,-46.07 1682.32,-19.18"/>
<polygon fill="#63b8ff" stroke="#63b8ff" points="1683.12,-22.59 1692.29,-17.29 1681.81,-15.71 1683.12,-22.59"/>
</a>
</g>
</g>
<!-- Node16 -->
<g id="Node000016" class="node">
<title>Node16</title>
<g id="a_Node000016"><a xlink:title=" ">
<polygon fill="#e0e0e0" stroke="#999999" points="1458,-129 1411,-129 1411,-110 1458,-110 1458,-129"/>
<text text-anchor="middle" x="1434.5" y="-117" font-family="Helvetica,sans-Serif" font-size="10.00">cmath</text>
</a>
</g>
</g>
<!-- Node1&#45;&gt;Node16 -->
<g id="edge15_Node000001_Node000016" class="edge">
<title>Node1&#45;&gt;Node16</title>
<g id="a_edge15_Node000001_Node000016"><a xlink:title=" ">
<path fill="none" stroke="#63b8ff" d="M791.53,-177.29C911.63,-173.43 1176.12,-161.69 1396.5,-129 1397.96,-128.78 1399.45,-128.54 1400.96,-128.28"/>
<polygon fill="#63b8ff" stroke="#63b8ff" points="1401.74,-131.69 1410.88,-126.34 1400.4,-124.82 1401.74,-131.69"/>
</a>
</g>
</g>
<!-- Node17 -->
<g id="Node000017" class="node">
<title>Node17</title>
<g id="a_Node000017"><a xlink:href="utilsPatchGeneration_8hpp.html" target="_top" xlink:title=" ">
<polygon fill="white" stroke="#666666" points="796,-129 657,-129 657,-110 796,-110 796,-129"/>
<text text-anchor="middle" x="726.5" y="-117" font-family="Helvetica,sans-Serif" font-size="10.00">utilsPatchGeneration.hpp</text>
</a>
</g>
</g>
<!-- Node1&#45;&gt;Node17 -->
<g id="edge22_Node000001_Node000017" class="edge">
<title>Node1&#45;&gt;Node17</title>
<g id="a_edge22_Node000001_Node000017"><a xlink:title=" ">
<path fill="none" stroke="#63b8ff" d="M726.5,-164.84C726.5,-157.21 726.5,-147.7 726.5,-139.45"/>
<polygon fill="#63b8ff" stroke="#63b8ff" points="730,-139.27 726.5,-129.27 723,-139.27 730,-139.27"/>
</a>
</g>
</g>
<!-- Node18 -->
<g id="Node000018" class="node">
<title>Node18</title>
<g id="a_Node000018"><a xlink:href="utils_8hpp.html" target="_top" xlink:title=" ">
<polygon fill="white" stroke="#666666" points="670,-74 587,-74 587,-55 670,-55 670,-74"/>
<text text-anchor="middle" x="628.5" y="-62" font-family="Helvetica,sans-Serif" font-size="10.00">utils/utils.hpp</text>
</a>
</g>
</g>
<!-- Node1&#45;&gt;Node18 -->
<g id="edge52_Node000001_Node000018" class="edge">
<title>Node1&#45;&gt;Node18</title>
<g id="a_edge52_Node000001_Node000018"><a xlink:title=" ">
<path fill="none" stroke="#63b8ff" d="M693.26,-164.8C677.36,-156.48 659.27,-144.52 647.5,-129 637.62,-115.96 632.85,-97.82 630.57,-84.26"/>
<polygon fill="#63b8ff" stroke="#63b8ff" points="634.01,-83.59 629.17,-74.17 627.07,-84.55 634.01,-83.59"/>
</a>
</g>
</g>
<!-- Node22 -->
<g id="Node000022" class="node">
<title>Node22</title>
<g id="a_Node000022"><a xlink:href="log_8hpp.html" target="_top" xlink:title=" ">
<polygon fill="white" stroke="#666666" points="1044.5,-74 948.5,-74 948.5,-55 1044.5,-55 1044.5,-74"/>
<text text-anchor="middle" x="996.5" y="-62" font-family="Helvetica,sans-Serif" font-size="10.00">uvgvpcc/log.hpp</text>
</a>
</g>
</g>
<!-- Node1&#45;&gt;Node22 -->
<g id="edge50_Node000001_Node000022" class="edge">
<title>Node1&#45;&gt;Node22</title>
<g id="a_edge50_Node000001_Node000022"><a xlink:title=" ">
<path fill="none" stroke="#63b8ff" d="M791.81,-172.79C834.62,-166.5 890.58,-153.95 934.5,-129 954.91,-117.4 972.99,-97.11 984.28,-82.59"/>
<polygon fill="#63b8ff" stroke="#63b8ff" points="987.21,-84.52 990.4,-74.42 981.6,-80.33 987.21,-84.52"/>
</a>
</g>
</g>
<!-- Node2&#45;&gt;Node3 -->
<g id="edge2_Node000002_Node000003" class="edge">
<title>Node2&#45;&gt;Node3</title>
<g id="a_edge2_Node000002_Node000003"><a xlink:title=" ">
<path fill="none" stroke="#63b8ff" d="M429.5,-109.75C429.5,-102.8 429.5,-92.85 429.5,-84.13"/>
<polygon fill="#63b8ff" stroke="#63b8ff" points="433,-84.09 429.5,-74.09 426,-84.09 433,-84.09"/>
</a>
</g>
</g>
<!-- Node3&#45;&gt;Node4 -->
<g id="edge3_Node000003_Node000004" class="edge">
<title>Node3&#45;&gt;Node4</title>
<g id="a_edge3_Node000003_Node000004"><a xlink:title=" ">
<path fill="none" stroke="#63b8ff" d="M368.29,-58.32C297.13,-51.81 176.03,-39.19 63.36,-19.16"/>
<polygon fill="#63b8ff" stroke="#63b8ff" points="63.65,-15.65 53.18,-17.32 62.4,-22.54 63.65,-15.65"/>
</a>
</g>
</g>
<!-- Node3&#45;&gt;Node5 -->
<g id="edge4_Node000003_Node000005" class="edge">
<title>Node3&#45;&gt;Node5</title>
<g id="a_edge4_Node000003_Node000005"><a xlink:title=" ">
<path fill="none" stroke="#63b8ff" d="M441.87,-54.98C453.59,-46.92 471.42,-34.65 485.39,-25.03"/>
<polygon fill="#63b8ff" stroke="#63b8ff" points="487.65,-27.72 493.9,-19.17 483.68,-21.96 487.65,-27.72"/>
</a>
</g>
</g>
<!-- Node6 -->
<g id="Node000006" class="node">
<title>Node6</title>
<g id="a_Node000006"><a xlink:title=" ">
<polygon fill="#e0e0e0" stroke="#999999" points="743.5,-19 683.5,-19 683.5,0 743.5,0 743.5,-19"/>
<text text-anchor="middle" x="713.5" y="-7" font-family="Helvetica,sans-Serif" font-size="10.00">iostream</text>
</a>
</g>
</g>
<!-- Node3&#45;&gt;Node6 -->
<g id="edge5_Node000003_Node000006" class="edge">
<title>Node3&#45;&gt;Node6</title>
<g id="a_edge5_Node000003_Node000006"><a xlink:title=" ">
<path fill="none" stroke="#63b8ff" d="M479.34,-54.97C526.78,-46.74 600.43,-33.65 673.46,-19.15"/>
<polygon fill="#63b8ff" stroke="#63b8ff" points="674.17,-22.58 683.29,-17.19 672.8,-15.72 674.17,-22.58"/>
</a>
</g>
</g>
<!-- Node3&#45;&gt;Node7 -->
<g id="edge6_Node000003_Node000007" class="edge">
<title>Node3&#45;&gt;Node7</title>
<g id="a_edge6_Node000003_Node000007"><a xlink:title=" ">
<path fill="none" stroke="#63b8ff" d="M490.76,-56.6C553.74,-49.16 654.85,-36.25 751.18,-19.11"/>
<polygon fill="#63b8ff" stroke="#63b8ff" points="751.87,-22.55 761.09,-17.33 750.63,-15.66 751.87,-22.55"/>
</a>
</g>
</g>
<!-- Node3&#45;&gt;Node8 -->
<g id="edge7_Node000003_Node000008" class="edge">
<title>Node3&#45;&gt;Node8</title>
<g id="a_edge7_Node000003_Node000008"><a xlink:title=" ">
<path fill="none" stroke="#63b8ff" d="M490.92,-58.94C596.43,-50.91 808.93,-33.83 901.87,-18.77"/>
<polygon fill="#63b8ff" stroke="#63b8ff" points="902.53,-22.2 911.8,-17.08 901.36,-15.3 902.53,-22.2"/>
</a>
</g>
</g>
<!-- Node9 -->
<g id="Node000009" class="node">
<title>Node9</title>
<g id="a_Node000009"><a xlink:title=" ">
<polygon fill="#e0e0e0" stroke="#999999" points="463,-19 392,-19 392,0 463,0 463,-19"/>
<text text-anchor="middle" x="427.5" y="-7" font-family="Helvetica,sans-Serif" font-size="10.00">semaphore</text>
</a>
</g>
</g>
<!-- Node3&#45;&gt;Node9 -->
<g id="edge8_Node000003_Node000009" class="edge">
<title>Node3&#45;&gt;Node9</title>
<g id="a_edge8_Node000003_Node000009"><a xlink:title=" ">
<path fill="none" stroke="#63b8ff" d="M429.17,-54.75C428.91,-47.8 428.53,-37.85 428.2,-29.13"/>
<polygon fill="#63b8ff" stroke="#63b8ff" points="431.7,-28.95 427.82,-19.09 424.7,-29.21 431.7,-28.95"/>
</a>
</g>
</g>
<!-- Node10 -->
<g id="Node000010" class="node">
<title>Node10</title>
<g id="a_Node000010"><a xlink:title=" ">
<polygon fill="#e0e0e0" stroke="#999999" points="605.5,-19 549.5,-19 549.5,0 605.5,0 605.5,-19"/>
<text text-anchor="middle" x="577.5" y="-7" font-family="Helvetica,sans-Serif" font-size="10.00">sstream</text>
</a>
</g>
</g>
<!-- Node3&#45;&gt;Node10 -->
<g id="edge9_Node000003_Node000010" class="edge">
<title>Node3&#45;&gt;Node10</title>
<g id="a_edge9_Node000003_Node000010"><a xlink:title=" ">
<path fill="none" stroke="#63b8ff" d="M453.28,-54.98C477.73,-46.23 516.03,-32.51 543.65,-22.62"/>
<polygon fill="#63b8ff" stroke="#63b8ff" points="545.05,-25.84 553.29,-19.17 542.69,-19.25 545.05,-25.84"/>
</a>
</g>
</g>
<!-- Node3&#45;&gt;Node11 -->
<g id="edge10_Node000003_Node000011" class="edge">
<title>Node3&#45;&gt;Node11</title>
<g id="a_edge10_Node000003_Node000011"><a xlink:title=" ">
<path fill="none" stroke="#63b8ff" d="M490.9,-59.87C608.21,-52.7 861.23,-36.08 967.18,-18.85"/>
<polygon fill="#63b8ff" stroke="#63b8ff" points="967.99,-22.26 977.26,-17.13 966.81,-15.36 967.99,-22.26"/>
</a>
</g>
</g>
<!-- Node3&#45;&gt;Node12 -->
<g id="edge11_Node000003_Node000012" class="edge">
<title>Node3&#45;&gt;Node12</title>
<g id="a_edge11_Node000003_Node000012"><a xlink:title=" ">
<path fill="none" stroke="#63b8ff" d="M368.44,-56.43C309.41,-49.16 217.31,-36.67 128.23,-18.95"/>
<polygon fill="#63b8ff" stroke="#63b8ff" points="128.72,-15.47 118.22,-16.93 127.34,-22.34 128.72,-15.47"/>
</a>
</g>
</g>
<!-- Node13 -->
<g id="Node000013" class="node">
<title>Node13</title>
<g id="a_Node000013"><a xlink:title=" ">
<polygon fill="#e0e0e0" stroke="#999999" points="228.5,-19 136.5,-19 136.5,0 228.5,0 228.5,-19"/>
<text text-anchor="middle" x="182.5" y="-7" font-family="Helvetica,sans-Serif" font-size="10.00">../utils/utils.hpp</text>
</a>
</g>
</g>
<!-- Node3&#45;&gt;Node13 -->
<g id="edge12_Node000003_Node000013" class="edge">
<title>Node3&#45;&gt;Node13</title>
<g id="a_edge12_Node000003_Node000013"><a xlink:title=" ">
<path fill="none" stroke="#63b8ff" d="M389.82,-54.98C347,-45.8 278.74,-31.15 232.34,-21.19"/>
<polygon fill="#63b8ff" stroke="#63b8ff" points="233.01,-17.76 222.5,-19.08 231.54,-24.6 233.01,-17.76"/>
</a>
</g>
</g>
<!-- Node14 -->
<g id="Node000014" class="node">
<title>Node14</title>
<g id="a_Node000014"><a xlink:title=" ">
<polygon fill="#e0e0e0" stroke="#999999" points="374,-19 247,-19 247,0 374,0 374,-19"/>
<text text-anchor="middle" x="310.5" y="-7" font-family="Helvetica,sans-Serif" font-size="10.00">../utils/parameters.hpp</text>
</a>
</g>
</g>
<!-- Node3&#45;&gt;Node14 -->
<g id="edge13_Node000003_Node000014" class="edge">
<title>Node3&#45;&gt;Node14</title>
<g id="a_edge13_Node000003_Node000014"><a xlink:title=" ">
<path fill="none" stroke="#63b8ff" d="M410.38,-54.98C391.15,-46.42 361.27,-33.11 339.19,-23.28"/>
<polygon fill="#63b8ff" stroke="#63b8ff" points="340.53,-20.04 329.97,-19.17 337.68,-26.44 340.53,-20.04"/>
</a>
</g>
</g>
<!-- Node17&#45;&gt;Node5 -->
<g id="edge35_Node000017_Node000005" class="edge">
<title>Node17&#45;&gt;Node5</title>
<g id="a_edge35_Node000017_Node000005"><a xlink:title=" ">
<path fill="none" stroke="#63b8ff" d="M679.42,-110C649,-103.19 609.31,-91.79 577.5,-74 555.3,-61.58 534.15,-41.16 520.8,-26.84"/>
<polygon fill="#63b8ff" stroke="#63b8ff" points="523.2,-24.28 513.89,-19.22 518.01,-28.98 523.2,-24.28"/>
</a>
</g>
</g>
<!-- Node17&#45;&gt;Node12 -->
<g id="edge37_Node000017_Node000012" class="edge">
<title>Node17&#45;&gt;Node12</title>
<g id="a_edge37_Node000017_Node000012"><a xlink:title=" ">
<path fill="none" stroke="#63b8ff" d="M656.82,-112.4C582.74,-105.36 462.33,-92.36 359.5,-74 275.37,-58.98 178.01,-33.53 127.99,-19.86"/>
<polygon fill="#63b8ff" stroke="#63b8ff" points="128.63,-16.41 118.06,-17.13 126.77,-23.15 128.63,-16.41"/>
</a>
</g>
</g>
<!-- Node17&#45;&gt;Node18 -->
<g id="edge23_Node000017_Node000018" class="edge">
<title>Node17&#45;&gt;Node18</title>
<g id="a_edge23_Node000017_Node000018"><a xlink:title=" ">
<path fill="none" stroke="#63b8ff" d="M710.75,-109.98C695.27,-101.61 671.41,-88.7 653.36,-78.95"/>
<polygon fill="#63b8ff" stroke="#63b8ff" points="654.99,-75.85 644.53,-74.17 651.66,-82.01 654.99,-75.85"/>
</a>
</g>
</g>
<!-- Node17&#45;&gt;Node22 -->
<g id="edge29_Node000017_Node000022" class="edge">
<title>Node17&#45;&gt;Node22</title>
<g id="a_edge29_Node000017_Node000022"><a xlink:title=" ">
<path fill="none" stroke="#63b8ff" d="M769.88,-109.98C816.88,-100.76 891.93,-86.03 942.66,-76.07"/>
<polygon fill="#63b8ff" stroke="#63b8ff" points="943.64,-79.44 952.78,-74.08 942.29,-72.57 943.64,-79.44"/>
</a>
</g>
</g>
<!-- Node25 -->
<g id="Node000025" class="node">
<title>Node25</title>
<g id="a_Node000025"><a xlink:title=" ">
<polygon fill="#e0e0e0" stroke="#999999" points="743,-74 688,-74 688,-55 743,-55 743,-74"/>
<text text-anchor="middle" x="715.5" y="-62" font-family="Helvetica,sans-Serif" font-size="10.00">fstream</text>
</a>
</g>
</g>
<!-- Node17&#45;&gt;Node25 -->
<g id="edge36_Node000017_Node000025" class="edge">
<title>Node17&#45;&gt;Node25</title>
<g id="a_edge36_Node000017_Node000025"><a xlink:title=" ">
<path fill="none" stroke="#63b8ff" d="M724.68,-109.75C723.24,-102.8 721.18,-92.85 719.37,-84.13"/>
<polygon fill="#63b8ff" stroke="#63b8ff" points="722.74,-83.17 717.28,-74.09 715.89,-84.59 722.74,-83.17"/>
</a>
</g>
</g>
<!-- Node26 -->
<g id="Node000026" class="node">
<title>Node26</title>
<g id="a_Node000026"><a xlink:title=" ">
<polygon fill="#e0e0e0" stroke="#999999" points="854,-74 761,-74 761,-55 854,-55 854,-74"/>
<text text-anchor="middle" x="807.5" y="-62" font-family="Helvetica,sans-Serif" font-size="10.00">unordered_map</text>
</a>
</g>
</g>
<!-- Node17&#45;&gt;Node26 -->
<g id="edge38_Node000017_Node000026" class="edge">
<title>Node17&#45;&gt;Node26</title>
<g id="a_edge38_Node000017_Node000026"><a xlink:title=" ">
<path fill="none" stroke="#63b8ff" d="M739.51,-109.98C751.96,-101.84 770.96,-89.41 785.71,-79.76"/>
<polygon fill="#63b8ff" stroke="#63b8ff" points="787.8,-82.57 794.25,-74.17 783.96,-76.72 787.8,-82.57"/>
</a>
</g>
</g>
<!-- Node27 -->
<g id="Node000027" class="node">
<title>Node27</title>
<g id="a_Node000027"><a xlink:href="robin__hood_8h.html" target="_top" xlink:title=" ">
<polygon fill="white" stroke="#666666" points="1354.5,-74 1274.5,-74 1274.5,-55 1354.5,-55 1354.5,-74"/>
<text text-anchor="middle" x="1314.5" y="-62" font-family="Helvetica,sans-Serif" font-size="10.00">robin_hood.h</text>
</a>
</g>
</g>
<!-- Node17&#45;&gt;Node27 -->
<g id="edge39_Node000017_Node000027" class="edge">
<title>Node17&#45;&gt;Node27</title>
<g id="a_edge39_Node000017_Node000027"><a xlink:title=" ">
<path fill="none" stroke="#63b8ff" d="M796.26,-112.21C916.38,-101.39 1159.45,-79.48 1264.39,-70.02"/>
<polygon fill="#63b8ff" stroke="#63b8ff" points="1264.76,-73.5 1274.4,-69.11 1264.13,-66.53 1264.76,-73.5"/>
</a>
</g>
</g>
<!-- Node18&#45;&gt;Node5 -->
<g id="edge25_Node000018_Node000005" class="edge">
<title>Node18&#45;&gt;Node5</title>
<g id="a_edge25_Node000018_Node000005"><a xlink:title=" ">
<path fill="none" stroke="#63b8ff" d="M608.9,-54.98C589.18,-46.42 558.55,-33.11 535.92,-23.28"/>
<polygon fill="#63b8ff" stroke="#63b8ff" points="537.02,-19.94 526.46,-19.17 534.24,-26.37 537.02,-19.94"/>
</a>
</g>
</g>
<!-- Node18&#45;&gt;Node10 -->
<g id="edge27_Node000018_Node000010" class="edge">
<title>Node18&#45;&gt;Node10</title>
<g id="a_edge27_Node000018_Node000010"><a xlink:title=" ">
<path fill="none" stroke="#63b8ff" d="M620.08,-54.75C612.73,-47.11 601.87,-35.82 592.96,-26.56"/>
<polygon fill="#63b8ff" stroke="#63b8ff" points="595.22,-23.87 585.76,-19.09 590.18,-28.72 595.22,-23.87"/>
</a>
</g>
</g>
<!-- Node19 -->
<g id="Node000019" class="node">
<title>Node19</title>
<g id="a_Node000019"><a xlink:title=" ">
<polygon fill="#e0e0e0" stroke="#999999" points="665.5,-19 623.5,-19 623.5,0 665.5,0 665.5,-19"/>
<text text-anchor="middle" x="644.5" y="-7" font-family="Helvetica,sans-Serif" font-size="10.00">array</text>
</a>
</g>
</g>
<!-- Node18&#45;&gt;Node19 -->
<g id="edge24_Node000018_Node000019" class="edge">
<title>Node18&#45;&gt;Node19</title>
<g id="a_edge24_Node000018_Node000019"><a xlink:title=" ">
<path fill="none" stroke="#63b8ff" d="M631.14,-54.75C633.26,-47.72 636.31,-37.62 638.96,-28.84"/>
<polygon fill="#63b8ff" stroke="#63b8ff" points="642.37,-29.67 641.91,-19.09 635.67,-27.65 642.37,-29.67"/>
</a>
</g>
</g>
<!-- Node20 -->
<g id="Node000020" class="node">
<title>Node20</title>
<g id="a_Node000020"><a xlink:title=" ">
<polygon fill="#e0e0e0" stroke="#999999" points="1083.5,-19 1039.5,-19 1039.5,0 1083.5,0 1083.5,-19"/>
<text text-anchor="middle" x="1061.5" y="-7" font-family="Helvetica,sans-Serif" font-size="10.00">limits</text>
</a>
</g>
</g>
<!-- Node18&#45;&gt;Node20 -->
<g id="edge26_Node000018_Node000020" class="edge">
<title>Node18&#45;&gt;Node20</title>
<g id="a_edge26_Node000018_Node000020"><a xlink:title=" ">
<path fill="none" stroke="#63b8ff" d="M670.21,-56.2C673.01,-55.77 675.8,-55.37 678.5,-55 831.13,-34.24 874.16,-47.33 1029.35,-18.91"/>
<polygon fill="#63b8ff" stroke="#63b8ff" points="1030.06,-22.34 1039.25,-17.07 1028.78,-15.46 1030.06,-22.34"/>
</a>
</g>
</g>
<!-- Node21 -->
<g id="Node000021" class="node">
<title>Node21</title>
<g id="a_Node000021"><a xlink:title=" ">
<polygon fill="#e0e0e0" stroke="#999999" points="893.5,-19 837.5,-19 837.5,0 893.5,0 893.5,-19"/>
<text text-anchor="middle" x="865.5" y="-7" font-family="Helvetica,sans-Serif" font-size="10.00">iomanip</text>
</a>
</g>
</g>
<!-- Node18&#45;&gt;Node21 -->
<g id="edge28_Node000018_Node000021" class="edge">
<title>Node18&#45;&gt;Node21</title>
<g id="a_edge28_Node000018_Node000021"><a xlink:title=" ">
<path fill="none" stroke="#63b8ff" d="M667.23,-54.96C705.49,-46.52 765.94,-33.12 827.36,-19.25"/>
<polygon fill="#63b8ff" stroke="#63b8ff" points="828.24,-22.64 837.22,-17.02 826.7,-15.81 828.24,-22.64"/>
</a>
</g>
</g>
<!-- Node22&#45;&gt;Node6 -->
<g id="edge33_Node000022_Node000006" class="edge">
<title>Node22&#45;&gt;Node6</title>
<g id="a_edge33_Node000022_Node000006"><a xlink:title=" ">
<path fill="none" stroke="#63b8ff" d="M948.26,-55.2C901.09,-46.98 826.98,-33.76 753.59,-19.17"/>
<polygon fill="#63b8ff" stroke="#63b8ff" points="754.2,-15.72 743.71,-17.19 752.83,-22.58 754.2,-15.72"/>
</a>
</g>
</g>
<!-- Node22&#45;&gt;Node11 -->
<g id="edge34_Node000022_Node000011" class="edge">
<title>Node22&#45;&gt;Node11</title>
<g id="a_edge34_Node000022_Node000011"><a xlink:title=" ">
<path fill="none" stroke="#63b8ff" d="M997,-54.75C997.39,-47.8 997.95,-37.85 998.45,-29.13"/>
<polygon fill="#63b8ff" stroke="#63b8ff" points="1001.94,-29.27 999.01,-19.09 994.95,-28.88 1001.94,-29.27"/>
</a>
</g>
</g>
<!-- Node22&#45;&gt;Node21 -->
<g id="edge32_Node000022_Node000021" class="edge">
<title>Node22&#45;&gt;Node21</title>
<g id="a_edge32_Node000022_Node000021"><a xlink:title=" ">
<path fill="none" stroke="#63b8ff" d="M975.45,-54.98C954.09,-46.34 920.8,-32.87 896.44,-23.02"/>
<polygon fill="#63b8ff" stroke="#63b8ff" points="897.51,-19.68 886.93,-19.17 894.89,-26.17 897.51,-19.68"/>
</a>
</g>
</g>
<!-- Node23 -->
<g id="Node000023" class="node">
<title>Node23</title>
<g id="a_Node000023"><a xlink:title=" ">
<polygon fill="#e0e0e0" stroke="#999999" points="1151.5,-19 1101.5,-19 1101.5,0 1151.5,0 1151.5,-19"/>
<text text-anchor="middle" x="1126.5" y="-7" font-family="Helvetica,sans-Serif" font-size="10.00">chrono</text>
</a>
</g>
</g>
<!-- Node22&#45;&gt;Node23 -->
<g id="edge30_Node000022_Node000023" class="edge">
<title>Node22&#45;&gt;Node23</title>
<g id="a_edge30_Node000022_Node000023"><a xlink:title=" ">
<path fill="none" stroke="#63b8ff" d="M1017.39,-54.98C1038.58,-46.34 1071.63,-32.87 1095.8,-23.02"/>
<polygon fill="#63b8ff" stroke="#63b8ff" points="1097.29,-26.19 1105.23,-19.17 1094.65,-19.7 1097.29,-26.19"/>
</a>
</g>
</g>
<!-- Node24 -->
<g id="Node000024" class="node">
<title>Node24</title>
<g id="a_Node000024"><a xlink:title=" ">
<polygon fill="#e0e0e0" stroke="#999999" points="1223,-19 1170,-19 1170,0 1223,0 1223,-19"/>
<text text-anchor="middle" x="1196.5" y="-7" font-family="Helvetica,sans-Serif" font-size="10.00">cstdarg</text>
</a>
</g>
</g>
<!-- Node22&#45;&gt;Node24 -->
<g id="edge31_Node000022_Node000024" class="edge">
<title>Node22&#45;&gt;Node24</title>
<g id="a_edge31_Node000022_Node000024"><a xlink:title=" ">
<path fill="none" stroke="#63b8ff" d="M1028.63,-54.98C1064.46,-45.49 1122.3,-30.16 1159.86,-20.21"/>
<polygon fill="#63b8ff" stroke="#63b8ff" points="1161.12,-23.5 1169.89,-17.55 1159.32,-16.73 1161.12,-23.5"/>
</a>
</g>
</g>
<!-- Node27&#45;&gt;Node7 -->
<g id="edge45_Node000027_Node000007" class="edge">
<title>Node27&#45;&gt;Node7</title>
<g id="a_edge45_Node000027_Node000007"><a xlink:title=" ">
<path fill="none" stroke="#63b8ff" d="M1274.28,-61.57C1192.38,-57.27 1000.27,-45.25 829.79,-19.01"/>
<polygon fill="#63b8ff" stroke="#63b8ff" points="830.31,-15.55 819.89,-17.47 829.23,-22.46 830.31,-15.55"/>
</a>
</g>
</g>
<!-- Node27&#45;&gt;Node11 -->
<g id="edge47_Node000027_Node000011" class="edge">
<title>Node27&#45;&gt;Node11</title>
<g id="a_edge47_Node000027_Node000011"><a xlink:title=" ">
<path fill="none" stroke="#63b8ff" d="M1274.26,-58.64C1220.93,-51.89 1123.76,-38.48 1031.81,-19.07"/>
<polygon fill="#63b8ff" stroke="#63b8ff" points="1032.29,-15.6 1021.78,-16.93 1030.82,-22.44 1032.29,-15.6"/>
</a>
</g>
</g>
<!-- Node27&#45;&gt;Node15 -->
<g id="edge40_Node000027_Node000015" class="edge">
<title>Node27&#45;&gt;Node15</title>
<g id="a_edge40_Node000027_Node000015"><a xlink:title=" ">
<path fill="none" stroke="#63b8ff" d="M1354.58,-57C1359.27,-56.29 1363.99,-55.61 1368.5,-55 1504.86,-36.48 1542.61,-41.09 1682.1,-19.09"/>
<polygon fill="#63b8ff" stroke="#63b8ff" points="1683,-22.49 1692.32,-17.46 1681.9,-15.58 1683,-22.49"/>
</a>
</g>
</g>
<!-- Node27&#45;&gt;Node20 -->
<g id="edge44_Node000027_Node000020" class="edge">
<title>Node27&#45;&gt;Node20</title>
<g id="a_edge44_Node000027_Node000020"><a xlink:title=" ">
<path fill="none" stroke="#63b8ff" d="M1274.21,-56.3C1231.68,-48.5 1162.48,-35.27 1093.91,-19.21"/>
<polygon fill="#63b8ff" stroke="#63b8ff" points="1094.34,-15.71 1083.8,-16.82 1092.73,-22.52 1094.34,-15.71"/>
</a>
</g>
</g>
<!-- Node28 -->
<g id="Node000028" class="node">
<title>Node28</title>
<g id="a_Node000028"><a xlink:title=" ">
<polygon fill="#e0e0e0" stroke="#999999" points="1606,-19 1557,-19 1557,0 1606,0 1606,-19"/>
<text text-anchor="middle" x="1581.5" y="-7" font-family="Helvetica,sans-Serif" font-size="10.00">cstdlib</text>
</a>
</g>
</g>
<!-- Node27&#45;&gt;Node28 -->
<g id="edge41_Node000027_Node000028" class="edge">
<title>Node27&#45;&gt;Node28</title>
<g id="a_edge41_Node000027_Node000028"><a xlink:title=" ">
<path fill="none" stroke="#63b8ff" d="M1354.83,-56.64C1399.58,-48.85 1474.15,-35.34 1546.89,-19.26"/>
<polygon fill="#63b8ff" stroke="#63b8ff" points="1547.68,-22.67 1556.67,-17.08 1546.15,-15.84 1547.68,-22.67"/>
</a>
</g>
</g>
<!-- Node29 -->
<g id="Node000029" class="node">
<title>Node29</title>
<g id="a_Node000029"><a xlink:title=" ">
<polygon fill="#e0e0e0" stroke="#999999" points="1674.5,-19 1624.5,-19 1624.5,0 1674.5,0 1674.5,-19"/>
<text text-anchor="middle" x="1649.5" y="-7" font-family="Helvetica,sans-Serif" font-size="10.00">cstring</text>
</a>
</g>
</g>
<!-- Node27&#45;&gt;Node29 -->
<g id="edge42_Node000027_Node000029" class="edge">
<title>Node27&#45;&gt;Node29</title>
<g id="a_edge42_Node000027_Node000029"><a xlink:title=" ">
<path fill="none" stroke="#63b8ff" d="M1354.6,-57.14C1359.28,-56.41 1364,-55.68 1368.5,-55 1474.97,-38.86 1504.92,-40.37 1614.2,-19.09"/>
<polygon fill="#63b8ff" stroke="#63b8ff" points="1615.18,-22.46 1624.31,-17.1 1613.82,-15.59 1615.18,-22.46"/>
</a>
</g>
</g>
<!-- Node30 -->
<g id="Node000030" class="node">
<title>Node30</title>
<g id="a_Node000030"><a xlink:title=" ">
<polygon fill="#e0e0e0" stroke="#999999" points="1306,-19 1241,-19 1241,0 1306,0 1306,-19"/>
<text text-anchor="middle" x="1273.5" y="-7" font-family="Helvetica,sans-Serif" font-size="10.00">functional</text>
</a>
</g>
</g>
<!-- Node27&#45;&gt;Node30 -->
<g id="edge43_Node000027_Node000030" class="edge">
<title>Node27&#45;&gt;Node30</title>
<g id="a_edge43_Node000027_Node000030"><a xlink:title=" ">
<path fill="none" stroke="#63b8ff" d="M1307.73,-54.75C1301.94,-47.26 1293.44,-36.28 1286.36,-27.13"/>
<polygon fill="#63b8ff" stroke="#63b8ff" points="1289.03,-24.86 1280.14,-19.09 1283.49,-29.14 1289.03,-24.86"/>
</a>
</g>
</g>
<!-- Node31 -->
<g id="Node000031" class="node">
<title>Node31</title>
<g id="a_Node000031"><a xlink:title=" ">
<polygon fill="#e0e0e0" stroke="#999999" points="1389,-19 1324,-19 1324,0 1389,0 1389,-19"/>
<text text-anchor="middle" x="1356.5" y="-7" font-family="Helvetica,sans-Serif" font-size="10.00">stdexcept</text>
</a>
</g>
</g>
<!-- Node27&#45;&gt;Node31 -->
<g id="edge46_Node000027_Node000031" class="edge">
<title>Node27&#45;&gt;Node31</title>
<g id="a_edge46_Node000027_Node000031"><a xlink:title=" ">
<path fill="none" stroke="#63b8ff" d="M1321.44,-54.75C1327.37,-47.26 1336.07,-36.28 1343.32,-27.13"/>
<polygon fill="#63b8ff" stroke="#63b8ff" points="1346.23,-29.1 1349.69,-19.09 1340.74,-24.75 1346.23,-29.1"/>
</a>
</g>
</g>
<!-- Node32 -->
<g id="Node000032" class="node">
<title>Node32</title>
<g id="a_Node000032"><a xlink:title=" ">
<polygon fill="#e0e0e0" stroke="#999999" points="1476,-19 1407,-19 1407,0 1476,0 1476,-19"/>
<text text-anchor="middle" x="1441.5" y="-7" font-family="Helvetica,sans-Serif" font-size="10.00">type_traits</text>
</a>
</g>
</g>
<!-- Node27&#45;&gt;Node32 -->
<g id="edge48_Node000027_Node000032" class="edge">
<title>Node27&#45;&gt;Node32</title>
<g id="a_edge48_Node000027_Node000032"><a xlink:title=" ">
<path fill="none" stroke="#63b8ff" d="M1334.9,-54.98C1355.52,-46.38 1387.61,-32.99 1411.19,-23.15"/>
<polygon fill="#63b8ff" stroke="#63b8ff" points="1412.84,-26.25 1420.72,-19.17 1410.15,-19.79 1412.84,-26.25"/>
</a>
</g>
</g>
<!-- Node33 -->
<g id="Node000033" class="node">
<title>Node33</title>
<g id="a_Node000033"><a xlink:title=" ">
<polygon fill="#e0e0e0" stroke="#999999" points="1539,-19 1494,-19 1494,0 1539,0 1539,-19"/>
<text text-anchor="middle" x="1516.5" y="-7" font-family="Helvetica,sans-Serif" font-size="10.00">utility</text>
</a>
</g>
</g>
<!-- Node27&#45;&gt;Node33 -->
<g id="edge49_Node000027_Node000033" class="edge">
<title>Node27&#45;&gt;Node33</title>
<g id="a_edge49_Node000027_Node000033"><a xlink:title=" ">
<path fill="none" stroke="#63b8ff" d="M1347.96,-54.93C1380.43,-46.58 1431.37,-33.41 1483.98,-19.38"/>
<polygon fill="#63b8ff" stroke="#63b8ff" points="1485.06,-22.72 1493.82,-16.75 1483.26,-15.95 1485.06,-22.72"/>
</a>
</g>
</g>
</g>
</svg>
