<?xml version="1.0" encoding="UTF-8" standalone="no"?>
<!DOCTYPE svg PUBLIC "-//W3C//DTD SVG 1.1//EN"
 "http://www.w3.org/Graphics/SVG/1.1/DTD/svg11.dtd">
<!-- Generated by graphviz version 2.43.0 (0)
 -->
<!-- Title: src/lib/patchGeneration/normalOrientation.cpp Pages: 1 -->
<!--zoomable 203 -->

<svg id="main" version="1.1" xmlns="http://www.w3.org/2000/svg" xmlns:xlink="http://www.w3.org/1999/xlink" xml:space="preserve" onload="init(evt)">
<style type="text/css"><![CDATA[
.node, .edge {opacity: 0.7;}
.node.selected, .edge.selected {opacity: 1;}
.edge:hover path { stroke: red; }
.edge:hover polygon { stroke: red; fill: red; }
]]></style>

<defs>
  <circle id="rim" cx="0" cy="0" r="7"/>
  <circle id="rim2" cx="0" cy="0" r="3.5"/>
  <g id="zoomPlus">
    <use xlink:href="#rim" fill="#404040"><set attributeName="fill" to="#808080" begin="zoomplus.mouseover" end="zoomplus.mouseout"/></use>
    <path d="M-4,0h8M0,-4v8" fill="none" stroke="white" stroke-width="1.5" pointer-events="none"/>
  </g>
  <g id="zoomMin">
    <use xlink:href="#rim" fill="#404040"><set attributeName="fill" to="#808080" begin="zoomminus.mouseover" end="zoomminus.mouseout"/></use>
    <path d="M-4,0h8" fill="none" stroke="white" stroke-width="1.5" pointer-events="none"/>
  </g>
  <g id="arrowUp" transform="translate(30 24)">
    <use xlink:href="#rim"/>
    <path pointer-events="none" fill="none" stroke="white" stroke-width="1.5" d="M0,-3.0v7 M-2.5,-0.5L0,-3.0L2.5,-0.5"/>
  </g>
  <g id="arrowRight" transform="rotate(90) translate(36 -43)">
    <use xlink:href="#rim"/>
    <path pointer-events="none" fill="none" stroke="white" stroke-width="1.5" d="M0,-3.0v7 M-2.5,-0.5L0,-3.0L2.5,-0.5"/>
  </g>
  <g id="arrowDown" transform="rotate(180) translate(-30 -48)">
    <use xlink:href="#rim"/>
    <path pointer-events="none" fill="none" stroke="white" stroke-width="1.5" d="M0,-3.0v7 M-2.5,-0.5L0,-3.0L2.5,-0.5"/>
  </g>
  <g id="arrowLeft" transform="rotate(270) translate(-36 17)">
    <use xlink:href="#rim"/>
    <path pointer-events="none" fill="none" stroke="white" stroke-width="1.5" d="M0,-3.0v7 M-2.5,-0.5L0,-3.0L2.5,-0.5"/>
  </g>
  <g id="resetDef">
    <use xlink:href="#rim2" fill="#404040"><set attributeName="fill" to="#808080" begin="reset.mouseover" end="reset.mouseout"/></use>
  </g>
</defs>
<script type="application/ecmascript">
var viewWidth = 1798;
var viewHeight = 203;
var sectionId = 'dynsection-0';
</script>
<script type="application/ecmascript" xlink:href="svg.min.js"/>
<svg id="graph" class="graph">
<g id="viewport">
<title>src/lib/patchGeneration/normalOrientation.cpp</title>
<!-- Node1 -->
<g id="Node000001" class="node">
<title>Node1</title>
<g id="a_Node000001"><a xlink:title=" ">
<polygon fill="#999999" stroke="#666666" points="712.5,-195 582.5,-195 582.5,-165 712.5,-165 712.5,-195"/>
<text text-anchor="start" x="590.5" y="-183" font-family="Helvetica,sans-Serif" font-size="10.00">src/lib/patchGeneration</text>
<text text-anchor="middle" x="647.5" y="-172" font-family="Helvetica,sans-Serif" font-size="10.00">/normalOrientation.cpp</text>
</a>
</g>
</g>
<!-- Node2 -->
<g id="Node000002" class="node">
<title>Node2</title>
<g id="a_Node000002"><a xlink:href="normalOrientation_8hpp.html" target="_top" xlink:title=" ">
<polygon fill="white" stroke="#666666" points="436,-129 309,-129 309,-110 436,-110 436,-129"/>
<text text-anchor="middle" x="372.5" y="-117" font-family="Helvetica,sans-Serif" font-size="10.00">normalOrientation.hpp</text>
</a>
</g>
</g>
<!-- Node1&#45;&gt;Node2 -->
<g id="edge1_Node000001_Node000002" class="edge">
<title>Node1&#45;&gt;Node2</title>
<g id="a_edge1_Node000001_Node000002"><a xlink:title=" ">
<path fill="none" stroke="#63b8ff" d="M582.33,-165.14C533.3,-154.71 467.13,-140.63 422.3,-131.09"/>
<polygon fill="#63b8ff" stroke="#63b8ff" points="423.02,-127.67 412.51,-129.01 421.57,-134.52 423.02,-127.67"/>
</a>
</g>
</g>
<!-- Node3 -->
<g id="Node000003" class="node">
<title>Node3</title>
<g id="a_Node000003"><a xlink:href="uvgvpcc_8hpp.html" target="_top" xlink:title=" ">
<polygon fill="white" stroke="#666666" points="480.5,-74 358.5,-74 358.5,-55 480.5,-55 480.5,-74"/>
<text text-anchor="middle" x="419.5" y="-62" font-family="Helvetica,sans-Serif" font-size="10.00">uvgvpcc/uvgvpcc.hpp</text>
</a>
</g>
</g>
<!-- Node1&#45;&gt;Node3 -->
<g id="edge66_Node000001_Node000003" class="edge">
<title>Node1&#45;&gt;Node3</title>
<g id="a_edge66_Node000001_Node000003"><a xlink:title=" ">
<path fill="none" stroke="#63b8ff" d="M582.19,-166.78C550.85,-159.05 513.65,-147.02 483.5,-129 463.03,-116.76 444.25,-96.6 432.41,-82.28"/>
<polygon fill="#63b8ff" stroke="#63b8ff" points="434.95,-79.86 425.97,-74.24 429.49,-84.23 434.95,-79.86"/>
</a>
</g>
</g>
<!-- Node4 -->
<g id="Node000004" class="node">
<title>Node4</title>
<g id="a_Node000004"><a xlink:title=" ">
<polygon fill="#e0e0e0" stroke="#999999" points="118,-19 65,-19 65,0 118,0 118,-19"/>
<text text-anchor="middle" x="91.5" y="-7" font-family="Helvetica,sans-Serif" font-size="10.00">cstddef</text>
</a>
</g>
</g>
<!-- Node1&#45;&gt;Node4 -->
<g id="edge17_Node000001_Node000004" class="edge">
<title>Node1&#45;&gt;Node4</title>
<g id="a_edge17_Node000001_Node000004"><a xlink:title=" ">
<path fill="none" stroke="#63b8ff" d="M582.37,-177.89C508.6,-174.84 385.75,-164.32 286.5,-129 215.92,-103.89 143.21,-51.22 110.03,-25.4"/>
<polygon fill="#63b8ff" stroke="#63b8ff" points="112.13,-22.6 102.11,-19.16 107.8,-28.1 112.13,-22.6"/>
</a>
</g>
</g>
<!-- Node7 -->
<g id="Node000007" class="node">
<title>Node7</title>
<g id="a_Node000007"><a xlink:title=" ">
<polygon fill="#e0e0e0" stroke="#999999" points="504.5,-19 446.5,-19 446.5,0 504.5,0 504.5,-19"/>
<text text-anchor="middle" x="475.5" y="-7" font-family="Helvetica,sans-Serif" font-size="10.00">memory</text>
</a>
</g>
</g>
<!-- Node1&#45;&gt;Node7 -->
<g id="edge18_Node000001_Node000007" class="edge">
<title>Node1&#45;&gt;Node7</title>
<g id="a_edge18_Node000001_Node000007"><a xlink:title=" ">
<path fill="none" stroke="#63b8ff" d="M582.26,-179.33C492.04,-178.24 336.22,-170.23 300.5,-129 255.12,-76.61 371.99,-37.02 436.38,-19.86"/>
<polygon fill="#63b8ff" stroke="#63b8ff" points="437.43,-23.2 446.23,-17.3 435.67,-16.43 437.43,-23.2"/>
</a>
</g>
</g>
<!-- Node8 -->
<g id="Node000008" class="node">
<title>Node8</title>
<g id="a_Node000008"><a xlink:title=" ">
<polygon fill="#e0e0e0" stroke="#999999" points="47,-19 0,-19 0,0 47,0 47,-19"/>
<text text-anchor="middle" x="23.5" y="-7" font-family="Helvetica,sans-Serif" font-size="10.00">queue</text>
</a>
</g>
</g>
<!-- Node1&#45;&gt;Node8 -->
<g id="edge19_Node000001_Node000008" class="edge">
<title>Node1&#45;&gt;Node8</title>
<g id="a_edge19_Node000001_Node000008"><a xlink:title=" ">
<path fill="none" stroke="#63b8ff" d="M582.26,-178.42C500.69,-176.01 357.65,-166.23 241.5,-129 163.6,-104.03 81.31,-50.89 44.01,-25.12"/>
<polygon fill="#63b8ff" stroke="#63b8ff" points="45.73,-22.05 35.53,-19.2 41.72,-27.79 45.73,-22.05"/>
</a>
</g>
</g>
<!-- Node11 -->
<g id="Node000011" class="node">
<title>Node11</title>
<g id="a_Node000011"><a xlink:title=" ">
<polygon fill="#e0e0e0" stroke="#999999" points="774.5,-19 730.5,-19 730.5,0 774.5,0 774.5,-19"/>
<text text-anchor="middle" x="752.5" y="-7" font-family="Helvetica,sans-Serif" font-size="10.00">string</text>
</a>
</g>
</g>
<!-- Node1&#45;&gt;Node11 -->
<g id="edge20_Node000001_Node000011" class="edge">
<title>Node1&#45;&gt;Node11</title>
<g id="a_edge20_Node000001_Node000011"><a xlink:title=" ">
<path fill="none" stroke="#63b8ff" d="M655.13,-164.82C662.79,-150.75 675.06,-128.65 686.5,-110 704.57,-80.54 727.09,-47.25 740.61,-27.61"/>
<polygon fill="#63b8ff" stroke="#63b8ff" points="743.65,-29.37 746.46,-19.15 737.9,-25.38 743.65,-29.37"/>
</a>
</g>
</g>
<!-- Node12 -->
<g id="Node000012" class="node">
<title>Node12</title>
<g id="a_Node000012"><a xlink:title=" ">
<polygon fill="#e0e0e0" stroke="#999999" points="570,-19 523,-19 523,0 570,0 570,-19"/>
<text text-anchor="middle" x="546.5" y="-7" font-family="Helvetica,sans-Serif" font-size="10.00">vector</text>
</a>
</g>
</g>
<!-- Node1&#45;&gt;Node12 -->
<g id="edge21_Node000001_Node000012" class="edge">
<title>Node1&#45;&gt;Node12</title>
<g id="a_edge21_Node000001_Node000012"><a xlink:title=" ">
<path fill="none" stroke="#63b8ff" d="M640.03,-164.85C632.54,-150.8 620.57,-128.72 609.5,-110 592.15,-80.66 570.68,-47.33 557.81,-27.66"/>
<polygon fill="#63b8ff" stroke="#63b8ff" points="560.66,-25.61 552.24,-19.17 554.81,-29.45 560.66,-25.61"/>
</a>
</g>
</g>
<!-- Node13 -->
<g id="Node000013" class="node">
<title>Node13</title>
<g id="a_Node000013"><a xlink:title=" ">
<polygon fill="#e0e0e0" stroke="#999999" points="1509.5,-19 1445.5,-19 1445.5,0 1509.5,0 1509.5,-19"/>
<text text-anchor="middle" x="1477.5" y="-7" font-family="Helvetica,sans-Serif" font-size="10.00">algorithm</text>
</a>
</g>
</g>
<!-- Node1&#45;&gt;Node13 -->
<g id="edge15_Node000001_Node000013" class="edge">
<title>Node1&#45;&gt;Node13</title>
<g id="a_edge15_Node000001_Node000013"><a xlink:title=" ">
<path fill="none" stroke="#63b8ff" d="M712.58,-175.26C800.25,-169.42 960.81,-155.91 1095.5,-129 1181.29,-111.86 1200.94,-99.9 1284.5,-74 1340.02,-56.79 1404.03,-35.43 1442.59,-22.39"/>
<polygon fill="#63b8ff" stroke="#63b8ff" points="1443.95,-25.62 1452.3,-19.1 1441.7,-18.99 1443.95,-25.62"/>
</a>
</g>
</g>
<!-- Node16 -->
<g id="Node000016" class="node">
<title>Node16</title>
<g id="a_Node000016"><a xlink:title=" ">
<polygon fill="#e0e0e0" stroke="#999999" points="742,-129 695,-129 695,-110 742,-110 742,-129"/>
<text text-anchor="middle" x="718.5" y="-117" font-family="Helvetica,sans-Serif" font-size="10.00">cmath</text>
</a>
</g>
</g>
<!-- Node1&#45;&gt;Node16 -->
<g id="edge16_Node000001_Node000016" class="edge">
<title>Node1&#45;&gt;Node16</title>
<g id="a_edge16_Node000001_Node000016"><a xlink:title=" ">
<path fill="none" stroke="#63b8ff" d="M664.69,-164.84C675.31,-156.09 688.94,-144.85 699.83,-135.88"/>
<polygon fill="#63b8ff" stroke="#63b8ff" points="702.37,-138.33 707.86,-129.27 697.92,-132.92 702.37,-138.33"/>
</a>
</g>
</g>
<!-- Node17 -->
<g id="Node000017" class="node">
<title>Node17</title>
<g id="a_Node000017"><a xlink:href="fileExport_8hpp.html" target="_top" xlink:title=" ">
<polygon fill="white" stroke="#666666" points="600.5,-129 492.5,-129 492.5,-110 600.5,-110 600.5,-129"/>
<text text-anchor="middle" x="546.5" y="-117" font-family="Helvetica,sans-Serif" font-size="10.00">utils/fileExport.hpp</text>
</a>
</g>
</g>
<!-- Node1&#45;&gt;Node17 -->
<g id="edge22_Node000001_Node000017" class="edge">
<title>Node1&#45;&gt;Node17</title>
<g id="a_edge22_Node000001_Node000017"><a xlink:title=" ">
<path fill="none" stroke="#63b8ff" d="M623.31,-164.99C607.21,-155.66 586.16,-143.47 570.17,-134.21"/>
<polygon fill="#63b8ff" stroke="#63b8ff" points="571.82,-131.12 561.42,-129.14 568.31,-137.18 571.82,-131.12"/>
</a>
</g>
</g>
<!-- Node18 -->
<g id="Node000018" class="node">
<title>Node18</title>
<g id="a_Node000018"><a xlink:href="utils_8hpp.html" target="_top" xlink:title=" ">
<polygon fill="white" stroke="#666666" points="886,-74 803,-74 803,-55 886,-55 886,-74"/>
<text text-anchor="middle" x="844.5" y="-62" font-family="Helvetica,sans-Serif" font-size="10.00">utils/utils.hpp</text>
</a>
</g>
</g>
<!-- Node1&#45;&gt;Node18 -->
<g id="edge39_Node000001_Node000018" class="edge">
<title>Node1&#45;&gt;Node18</title>
<g id="a_edge39_Node000001_Node000018"><a xlink:title=" ">
<path fill="none" stroke="#63b8ff" d="M712.6,-174.49C775.98,-168.59 865.82,-155.67 887.5,-129 900.38,-113.17 882.42,-93.53 865.93,-80.32"/>
<polygon fill="#63b8ff" stroke="#63b8ff" points="867.71,-77.27 857.62,-74.05 863.5,-82.86 867.71,-77.27"/>
</a>
</g>
</g>
<!-- Node22 -->
<g id="Node000022" class="node">
<title>Node22</title>
<g id="a_Node000022"><a xlink:href="parameters_8hpp.html" target="_top" xlink:title=" ">
<polygon fill="white" stroke="#666666" points="878.5,-129 760.5,-129 760.5,-110 878.5,-110 878.5,-129"/>
<text text-anchor="middle" x="819.5" y="-117" font-family="Helvetica,sans-Serif" font-size="10.00">utils/parameters.hpp</text>
</a>
</g>
</g>
<!-- Node1&#45;&gt;Node22 -->
<g id="edge34_Node000001_Node000022" class="edge">
<title>Node1&#45;&gt;Node22</title>
<g id="a_edge34_Node000001_Node000022"><a xlink:title=" ">
<path fill="none" stroke="#63b8ff" d="M688.7,-164.99C718,-155.02 756.92,-141.78 784.67,-132.35"/>
<polygon fill="#63b8ff" stroke="#63b8ff" points="786.01,-135.59 794.35,-129.05 783.76,-128.96 786.01,-135.59"/>
</a>
</g>
</g>
<!-- Node24 -->
<g id="Node000024" class="node">
<title>Node24</title>
<g id="a_Node000024"><a xlink:href="utilsPatchGeneration_8hpp.html" target="_top" xlink:title=" ">
<polygon fill="white" stroke="#666666" points="1086,-129 947,-129 947,-110 1086,-110 1086,-129"/>
<text text-anchor="middle" x="1016.5" y="-117" font-family="Helvetica,sans-Serif" font-size="10.00">utilsPatchGeneration.hpp</text>
</a>
</g>
</g>
<!-- Node1&#45;&gt;Node24 -->
<g id="edge40_Node000001_Node000024" class="edge">
<title>Node1&#45;&gt;Node24</title>
<g id="a_edge40_Node000001_Node000024"><a xlink:title=" ">
<path fill="none" stroke="#63b8ff" d="M712.62,-168.68C780.32,-157.94 885.6,-141.25 952.77,-130.6"/>
<polygon fill="#63b8ff" stroke="#63b8ff" points="953.48,-134.03 962.81,-129.01 952.38,-127.12 953.48,-134.03"/>
</a>
</g>
</g>
<!-- Node26 -->
<g id="Node000026" class="node">
<title>Node26</title>
<g id="a_Node000026"><a xlink:href="log_8hpp.html" target="_top" xlink:title=" ">
<polygon fill="white" stroke="#666666" points="1578.5,-74 1482.5,-74 1482.5,-55 1578.5,-55 1578.5,-74"/>
<text text-anchor="middle" x="1530.5" y="-62" font-family="Helvetica,sans-Serif" font-size="10.00">uvgvpcc/log.hpp</text>
</a>
</g>
</g>
<!-- Node1&#45;&gt;Node26 -->
<g id="edge65_Node000001_Node000026" class="edge">
<title>Node1&#45;&gt;Node26</title>
<g id="a_edge65_Node000001_Node000026"><a xlink:title=" ">
<path fill="none" stroke="#63b8ff" d="M712.68,-179.62C878.12,-180.46 1310.65,-177.76 1444.5,-129 1472.42,-118.83 1499.05,-96.55 1515.09,-81.28"/>
<polygon fill="#63b8ff" stroke="#63b8ff" points="1517.78,-83.54 1522.46,-74.03 1512.87,-78.55 1517.78,-83.54"/>
</a>
</g>
</g>
<!-- Node2&#45;&gt;Node3 -->
<g id="edge2_Node000002_Node000003" class="edge">
<title>Node2&#45;&gt;Node3</title>
<g id="a_edge2_Node000002_Node000003"><a xlink:title=" ">
<path fill="none" stroke="#63b8ff" d="M380.26,-109.75C386.97,-102.18 396.84,-91.05 405.01,-81.84"/>
<polygon fill="#63b8ff" stroke="#63b8ff" points="407.87,-83.89 411.88,-74.09 402.63,-79.25 407.87,-83.89"/>
</a>
</g>
</g>
<!-- Node3&#45;&gt;Node4 -->
<g id="edge3_Node000003_Node000004" class="edge">
<title>Node3&#45;&gt;Node4</title>
<g id="a_edge3_Node000003_Node000004"><a xlink:title=" ">
<path fill="none" stroke="#63b8ff" d="M358.34,-55.8C301.15,-48.24 213.15,-35.69 128.27,-19.21"/>
<polygon fill="#63b8ff" stroke="#63b8ff" points="128.69,-15.73 118.2,-17.24 127.34,-22.6 128.69,-15.73"/>
</a>
</g>
</g>
<!-- Node5 -->
<g id="Node000005" class="node">
<title>Node5</title>
<g id="a_Node000005"><a xlink:title=" ">
<polygon fill="#e0e0e0" stroke="#999999" points="712.5,-19 662.5,-19 662.5,0 712.5,0 712.5,-19"/>
<text text-anchor="middle" x="687.5" y="-7" font-family="Helvetica,sans-Serif" font-size="10.00">cstdint</text>
</a>
</g>
</g>
<!-- Node3&#45;&gt;Node5 -->
<g id="edge4_Node000003_Node000005" class="edge">
<title>Node3&#45;&gt;Node5</title>
<g id="a_edge4_Node000003_Node000005"><a xlink:title=" ">
<path fill="none" stroke="#63b8ff" d="M468.97,-54.94C514.22,-46.92 583.24,-34.21 652.13,-19.2"/>
<polygon fill="#63b8ff" stroke="#63b8ff" points="653.27,-22.54 662.29,-16.97 651.77,-15.7 653.27,-22.54"/>
</a>
</g>
</g>
<!-- Node6 -->
<g id="Node000006" class="node">
<title>Node6</title>
<g id="a_Node000006"><a xlink:title=" ">
<polygon fill="#e0e0e0" stroke="#999999" points="1126.5,-19 1066.5,-19 1066.5,0 1126.5,0 1126.5,-19"/>
<text text-anchor="middle" x="1096.5" y="-7" font-family="Helvetica,sans-Serif" font-size="10.00">iostream</text>
</a>
</g>
</g>
<!-- Node3&#45;&gt;Node6 -->
<g id="edge5_Node000003_Node000006" class="edge">
<title>Node3&#45;&gt;Node6</title>
<g id="a_edge5_Node000003_Node000006"><a xlink:title=" ">
<path fill="none" stroke="#63b8ff" d="M480.51,-62.18C592.7,-59.12 839.4,-49.42 1056.36,-18.94"/>
<polygon fill="#63b8ff" stroke="#63b8ff" points="1056.94,-22.4 1066.34,-17.52 1055.95,-15.47 1056.94,-22.4"/>
</a>
</g>
</g>
<!-- Node3&#45;&gt;Node7 -->
<g id="edge6_Node000003_Node000007" class="edge">
<title>Node3&#45;&gt;Node7</title>
<g id="a_edge6_Node000003_Node000007"><a xlink:title=" ">
<path fill="none" stroke="#63b8ff" d="M428.5,-54.98C436.69,-47.23 449.01,-35.58 458.97,-26.14"/>
<polygon fill="#63b8ff" stroke="#63b8ff" points="461.48,-28.59 466.34,-19.17 456.67,-23.5 461.48,-28.59"/>
</a>
</g>
</g>
<!-- Node3&#45;&gt;Node8 -->
<g id="edge7_Node000003_Node000008" class="edge">
<title>Node3&#45;&gt;Node8</title>
<g id="a_edge7_Node000003_Node000008"><a xlink:title=" ">
<path fill="none" stroke="#63b8ff" d="M358.24,-58.61C287.7,-52.4 168.24,-40.11 57.21,-19.11"/>
<polygon fill="#63b8ff" stroke="#63b8ff" points="57.66,-15.63 47.18,-17.18 56.34,-22.5 57.66,-15.63"/>
</a>
</g>
</g>
<!-- Node9 -->
<g id="Node000009" class="node">
<title>Node9</title>
<g id="a_Node000009"><a xlink:title=" ">
<polygon fill="#e0e0e0" stroke="#999999" points="207,-19 136,-19 136,0 207,0 207,-19"/>
<text text-anchor="middle" x="171.5" y="-7" font-family="Helvetica,sans-Serif" font-size="10.00">semaphore</text>
</a>
</g>
</g>
<!-- Node3&#45;&gt;Node9 -->
<g id="edge8_Node000003_Node000009" class="edge">
<title>Node3&#45;&gt;Node9</title>
<g id="a_edge8_Node000003_Node000009"><a xlink:title=" ">
<path fill="none" stroke="#63b8ff" d="M379.65,-54.98C335.26,-45.5 263.63,-30.19 217.05,-20.23"/>
<polygon fill="#63b8ff" stroke="#63b8ff" points="217.73,-16.8 207.22,-18.13 216.27,-23.65 217.73,-16.8"/>
</a>
</g>
</g>
<!-- Node10 -->
<g id="Node000010" class="node">
<title>Node10</title>
<g id="a_Node000010"><a xlink:title=" ">
<polygon fill="#e0e0e0" stroke="#999999" points="644.5,-19 588.5,-19 588.5,0 644.5,0 644.5,-19"/>
<text text-anchor="middle" x="616.5" y="-7" font-family="Helvetica,sans-Serif" font-size="10.00">sstream</text>
</a>
</g>
</g>
<!-- Node3&#45;&gt;Node10 -->
<g id="edge9_Node000003_Node000010" class="edge">
<title>Node3&#45;&gt;Node10</title>
<g id="a_edge9_Node000003_Node000010"><a xlink:title=" ">
<path fill="none" stroke="#63b8ff" d="M451.15,-54.98C485.85,-45.65 541.5,-30.68 578.52,-20.72"/>
<polygon fill="#63b8ff" stroke="#63b8ff" points="579.69,-24.03 588.44,-18.05 577.87,-17.27 579.69,-24.03"/>
</a>
</g>
</g>
<!-- Node3&#45;&gt;Node11 -->
<g id="edge10_Node000003_Node000011" class="edge">
<title>Node3&#45;&gt;Node11</title>
<g id="a_edge10_Node000003_Node000011"><a xlink:title=" ">
<path fill="none" stroke="#63b8ff" d="M480.62,-56.7C539.69,-49.63 631.82,-37.3 720.3,-19.03"/>
<polygon fill="#63b8ff" stroke="#63b8ff" points="721.16,-22.43 730.23,-16.95 719.72,-15.58 721.16,-22.43"/>
</a>
</g>
</g>
<!-- Node3&#45;&gt;Node12 -->
<g id="edge11_Node000003_Node000012" class="edge">
<title>Node3&#45;&gt;Node12</title>
<g id="a_edge11_Node000003_Node000012"><a xlink:title=" ">
<path fill="none" stroke="#63b8ff" d="M439.9,-54.98C460.52,-46.38 492.61,-32.99 516.19,-23.15"/>
<polygon fill="#63b8ff" stroke="#63b8ff" points="517.84,-26.25 525.72,-19.17 515.15,-19.79 517.84,-26.25"/>
</a>
</g>
</g>
<!-- Node3&#45;&gt;Node13 -->
<g id="edge12_Node000003_Node000013" class="edge">
<title>Node3&#45;&gt;Node13</title>
<g id="a_edge12_Node000003_Node000013"><a xlink:title=" ">
<path fill="none" stroke="#63b8ff" d="M480.8,-62.11C667.91,-57.67 1230.83,-42.77 1435.31,-18.89"/>
<polygon fill="#63b8ff" stroke="#63b8ff" points="1435.85,-22.35 1445.35,-17.67 1435,-15.4 1435.85,-22.35"/>
</a>
</g>
</g>
<!-- Node14 -->
<g id="Node000014" class="node">
<title>Node14</title>
<g id="a_Node000014"><a xlink:title=" ">
<polygon fill="#e0e0e0" stroke="#999999" points="318,-19 225,-19 225,0 318,0 318,-19"/>
<text text-anchor="middle" x="271.5" y="-7" font-family="Helvetica,sans-Serif" font-size="10.00">unordered_map</text>
</a>
</g>
</g>
<!-- Node3&#45;&gt;Node14 -->
<g id="edge13_Node000003_Node000014" class="edge">
<title>Node3&#45;&gt;Node14</title>
<g id="a_edge13_Node000003_Node000014"><a xlink:title=" ">
<path fill="none" stroke="#63b8ff" d="M395.72,-54.98C371.27,-46.23 332.97,-32.51 305.35,-22.62"/>
<polygon fill="#63b8ff" stroke="#63b8ff" points="306.31,-19.25 295.71,-19.17 303.95,-25.84 306.31,-19.25"/>
</a>
</g>
</g>
<!-- Node15 -->
<g id="Node000015" class="node">
<title>Node15</title>
<g id="a_Node000015"><a xlink:title=" ">
<polygon fill="#e0e0e0" stroke="#999999" points="428.5,-19 336.5,-19 336.5,0 428.5,0 428.5,-19"/>
<text text-anchor="middle" x="382.5" y="-7" font-family="Helvetica,sans-Serif" font-size="10.00">../utils/utils.hpp</text>
</a>
</g>
</g>
<!-- Node3&#45;&gt;Node15 -->
<g id="edge14_Node000003_Node000015" class="edge">
<title>Node3&#45;&gt;Node15</title>
<g id="a_edge14_Node000003_Node000015"><a xlink:title=" ">
<path fill="none" stroke="#63b8ff" d="M413.39,-54.75C408.22,-47.34 400.65,-36.5 394.31,-27.41"/>
<polygon fill="#63b8ff" stroke="#63b8ff" points="397.09,-25.29 388.5,-19.09 391.35,-29.29 397.09,-25.29"/>
</a>
</g>
</g>
<!-- Node17&#45;&gt;Node3 -->
<g id="edge33_Node000017_Node000003" class="edge">
<title>Node17&#45;&gt;Node3</title>
<g id="a_edge33_Node000017_Node000003"><a xlink:title=" ">
<path fill="none" stroke="#63b8ff" d="M526.1,-109.98C505.48,-101.38 473.39,-87.99 449.81,-78.15"/>
<polygon fill="#63b8ff" stroke="#63b8ff" points="450.85,-74.79 440.28,-74.17 448.16,-81.25 450.85,-74.79"/>
</a>
</g>
</g>
<!-- Node17&#45;&gt;Node4 -->
<g id="edge23_Node000017_Node000004" class="edge">
<title>Node17&#45;&gt;Node4</title>
<g id="a_edge23_Node000017_Node000004"><a xlink:title=" ">
<path fill="none" stroke="#63b8ff" d="M507.58,-109.94C467.8,-101.14 404.27,-86.93 349.5,-74 270.49,-55.36 178.19,-32.34 128.2,-19.77"/>
<polygon fill="#63b8ff" stroke="#63b8ff" points="128.75,-16.3 118.2,-17.25 127.04,-23.09 128.75,-16.3"/>
</a>
</g>
</g>
<!-- Node17&#45;&gt;Node7 -->
<g id="edge24_Node000017_Node000007" class="edge">
<title>Node17&#45;&gt;Node7</title>
<g id="a_edge24_Node000017_Node000007"><a xlink:title=" ">
<path fill="none" stroke="#63b8ff" d="M540.69,-109.66C528.93,-91.77 502.13,-51 486.8,-27.69"/>
<polygon fill="#63b8ff" stroke="#63b8ff" points="489.61,-25.59 481.19,-19.16 483.76,-29.44 489.61,-25.59"/>
</a>
</g>
</g>
<!-- Node17&#45;&gt;Node11 -->
<g id="edge25_Node000017_Node000011" class="edge">
<title>Node17&#45;&gt;Node11</title>
<g id="a_edge25_Node000017_Node000011"><a xlink:title=" ">
<path fill="none" stroke="#63b8ff" d="M563.01,-109.84C598.96,-91 684.51,-46.14 727.27,-23.73"/>
<polygon fill="#63b8ff" stroke="#63b8ff" points="728.97,-26.79 736.2,-19.05 725.72,-20.59 728.97,-26.79"/>
</a>
</g>
</g>
<!-- Node17&#45;&gt;Node12 -->
<g id="edge26_Node000017_Node000012" class="edge">
<title>Node17&#45;&gt;Node12</title>
<g id="a_edge26_Node000017_Node000012"><a xlink:title=" ">
<path fill="none" stroke="#63b8ff" d="M546.5,-109.66C546.5,-92.17 546.5,-52.8 546.5,-29.27"/>
<polygon fill="#63b8ff" stroke="#63b8ff" points="550,-29.16 546.5,-19.16 543,-29.16 550,-29.16"/>
</a>
</g>
</g>
<!-- Node17&#45;&gt;Node18 -->
<g id="edge27_Node000017_Node000018" class="edge">
<title>Node17&#45;&gt;Node18</title>
<g id="a_edge27_Node000017_Node000018"><a xlink:title=" ">
<path fill="none" stroke="#63b8ff" d="M594.38,-109.98C648.74,-100.32 737.12,-84.6 792.96,-74.67"/>
<polygon fill="#63b8ff" stroke="#63b8ff" points="793.76,-78.08 802.99,-72.88 792.53,-71.19 793.76,-78.08"/>
</a>
</g>
</g>
<!-- Node18&#45;&gt;Node5 -->
<g id="edge29_Node000018_Node000005" class="edge">
<title>Node18&#45;&gt;Node5</title>
<g id="a_edge29_Node000018_Node000005"><a xlink:title=" ">
<path fill="none" stroke="#63b8ff" d="M819.28,-54.98C793.07,-46.14 751.86,-32.23 722.51,-22.32"/>
<polygon fill="#63b8ff" stroke="#63b8ff" points="723.26,-18.88 712.66,-18.99 721.02,-25.51 723.26,-18.88"/>
</a>
</g>
</g>
<!-- Node18&#45;&gt;Node10 -->
<g id="edge31_Node000018_Node000010" class="edge">
<title>Node18&#45;&gt;Node10</title>
<g id="a_edge31_Node000018_Node000010"><a xlink:title=" ">
<path fill="none" stroke="#63b8ff" d="M807.87,-54.98C765.89,-45.23 697.4,-29.31 654.75,-19.39"/>
<polygon fill="#63b8ff" stroke="#63b8ff" points="655.29,-15.92 644.76,-17.07 653.71,-22.74 655.29,-15.92"/>
</a>
</g>
</g>
<!-- Node19 -->
<g id="Node000019" class="node">
<title>Node19</title>
<g id="a_Node000019"><a xlink:title=" ">
<polygon fill="#e0e0e0" stroke="#999999" points="834.5,-19 792.5,-19 792.5,0 834.5,0 834.5,-19"/>
<text text-anchor="middle" x="813.5" y="-7" font-family="Helvetica,sans-Serif" font-size="10.00">array</text>
</a>
</g>
</g>
<!-- Node18&#45;&gt;Node19 -->
<g id="edge28_Node000018_Node000019" class="edge">
<title>Node18&#45;&gt;Node19</title>
<g id="a_edge28_Node000018_Node000019"><a xlink:title=" ">
<path fill="none" stroke="#63b8ff" d="M839.38,-54.75C835.14,-47.49 828.97,-36.95 823.72,-27.98"/>
<polygon fill="#63b8ff" stroke="#63b8ff" points="826.59,-25.95 818.52,-19.09 820.55,-29.49 826.59,-25.95"/>
</a>
</g>
</g>
<!-- Node20 -->
<g id="Node000020" class="node">
<title>Node20</title>
<g id="a_Node000020"><a xlink:title=" ">
<polygon fill="#e0e0e0" stroke="#999999" points="896.5,-19 852.5,-19 852.5,0 896.5,0 896.5,-19"/>
<text text-anchor="middle" x="874.5" y="-7" font-family="Helvetica,sans-Serif" font-size="10.00">limits</text>
</a>
</g>
</g>
<!-- Node18&#45;&gt;Node20 -->
<g id="edge30_Node000018_Node000020" class="edge">
<title>Node18&#45;&gt;Node20</title>
<g id="a_edge30_Node000018_Node000020"><a xlink:title=" ">
<path fill="none" stroke="#63b8ff" d="M849.45,-54.75C853.56,-47.49 859.53,-36.95 864.6,-27.98"/>
<polygon fill="#63b8ff" stroke="#63b8ff" points="867.76,-29.52 869.64,-19.09 861.67,-26.07 867.76,-29.52"/>
</a>
</g>
</g>
<!-- Node21 -->
<g id="Node000021" class="node">
<title>Node21</title>
<g id="a_Node000021"><a xlink:title=" ">
<polygon fill="#e0e0e0" stroke="#999999" points="1583.5,-19 1527.5,-19 1527.5,0 1583.5,0 1583.5,-19"/>
<text text-anchor="middle" x="1555.5" y="-7" font-family="Helvetica,sans-Serif" font-size="10.00">iomanip</text>
</a>
</g>
</g>
<!-- Node18&#45;&gt;Node21 -->
<g id="edge32_Node000018_Node000021" class="edge">
<title>Node18&#45;&gt;Node21</title>
<g id="a_edge32_Node000018_Node000021"><a xlink:title=" ">
<path fill="none" stroke="#63b8ff" d="M886.26,-60.69C911.03,-59.03 943.06,-56.89 971.5,-55 1211.28,-39.09 1275.69,-53.97 1517.16,-18.95"/>
<polygon fill="#63b8ff" stroke="#63b8ff" points="1517.92,-22.38 1527.31,-17.47 1516.9,-15.45 1517.92,-22.38"/>
</a>
</g>
</g>
<!-- Node22&#45;&gt;Node11 -->
<g id="edge36_Node000022_Node000011" class="edge">
<title>Node22&#45;&gt;Node11</title>
<g id="a_edge36_Node000022_Node000011"><a xlink:title=" ">
<path fill="none" stroke="#63b8ff" d="M814.02,-109.66C802.92,-91.77 777.63,-51 763.17,-27.69"/>
<polygon fill="#63b8ff" stroke="#63b8ff" points="766.12,-25.81 757.87,-19.16 760.17,-29.5 766.12,-25.81"/>
</a>
</g>
</g>
<!-- Node22&#45;&gt;Node12 -->
<g id="edge37_Node000022_Node000012" class="edge">
<title>Node22&#45;&gt;Node12</title>
<g id="a_edge37_Node000022_Node000012"><a xlink:title=" ">
<path fill="none" stroke="#63b8ff" d="M797.62,-109.84C749.28,-90.72 633.25,-44.82 577.47,-22.75"/>
<polygon fill="#63b8ff" stroke="#63b8ff" points="578.69,-19.47 568.1,-19.05 576.12,-25.98 578.69,-19.47"/>
</a>
</g>
</g>
<!-- Node22&#45;&gt;Node18 -->
<g id="edge38_Node000022_Node000018" class="edge">
<title>Node22&#45;&gt;Node18</title>
<g id="a_edge38_Node000022_Node000018"><a xlink:title=" ">
<path fill="none" stroke="#63b8ff" d="M823.63,-109.75C827.01,-102.57 831.92,-92.18 836.12,-83.27"/>
<polygon fill="#63b8ff" stroke="#63b8ff" points="839.35,-84.63 840.45,-74.09 833.02,-81.64 839.35,-84.63"/>
</a>
</g>
</g>
<!-- Node23 -->
<g id="Node000023" class="node">
<title>Node23</title>
<g id="a_Node000023"><a xlink:title=" ">
<polygon fill="#e0e0e0" stroke="#999999" points="980,-19 915,-19 915,0 980,0 980,-19"/>
<text text-anchor="middle" x="947.5" y="-7" font-family="Helvetica,sans-Serif" font-size="10.00">stdexcept</text>
</a>
</g>
</g>
<!-- Node22&#45;&gt;Node23 -->
<g id="edge35_Node000022_Node000023" class="edge">
<title>Node22&#45;&gt;Node23</title>
<g id="a_edge35_Node000022_Node000023"><a xlink:title=" ">
<path fill="none" stroke="#63b8ff" d="M838.19,-109.91C854.35,-101.96 877.83,-89.1 895.5,-74 911.52,-60.31 926.38,-41.25 936.08,-27.59"/>
<polygon fill="#63b8ff" stroke="#63b8ff" points="939.12,-29.35 941.92,-19.13 933.36,-25.37 939.12,-29.35"/>
</a>
</g>
</g>
<!-- Node24&#45;&gt;Node5 -->
<g id="edge50_Node000024_Node000005" class="edge">
<title>Node24&#45;&gt;Node5</title>
<g id="a_edge50_Node000024_Node000005"><a xlink:title=" ">
<path fill="none" stroke="#63b8ff" d="M1003.28,-109.97C981.61,-96.36 936.82,-69.79 895.5,-55 824.05,-29.43 800.34,-35.99 722.49,-19.11"/>
<polygon fill="#63b8ff" stroke="#63b8ff" points="723.25,-15.69 712.72,-16.93 721.72,-22.52 723.25,-15.69"/>
</a>
</g>
</g>
<!-- Node24&#45;&gt;Node12 -->
<g id="edge52_Node000024_Node000012" class="edge">
<title>Node24&#45;&gt;Node12</title>
<g id="a_edge52_Node000024_Node000012"><a xlink:title=" ">
<path fill="none" stroke="#63b8ff" d="M970.43,-110C925.43,-101.52 855.05,-87.8 794.5,-74 701.43,-52.78 676.61,-44.09 580.17,-19.18"/>
<polygon fill="#63b8ff" stroke="#63b8ff" points="580.85,-15.74 570.29,-16.63 579.1,-22.52 580.85,-15.74"/>
</a>
</g>
</g>
<!-- Node24&#45;&gt;Node13 -->
<g id="edge53_Node000024_Node000013" class="edge">
<title>Node24&#45;&gt;Node13</title>
<g id="a_edge53_Node000024_Node000013"><a xlink:title=" ">
<path fill="none" stroke="#63b8ff" d="M1061.53,-109.98C1105.53,-101.49 1174.32,-87.76 1233.5,-74 1305.54,-57.25 1388.79,-34.95 1437.06,-21.72"/>
<polygon fill="#63b8ff" stroke="#63b8ff" points="1438.1,-25.06 1446.81,-19.04 1436.24,-18.31 1438.1,-25.06"/>
</a>
</g>
</g>
<!-- Node24&#45;&gt;Node18 -->
<g id="edge42_Node000024_Node000018" class="edge">
<title>Node24&#45;&gt;Node18</title>
<g id="a_edge42_Node000024_Node000018"><a xlink:title=" ">
<path fill="none" stroke="#63b8ff" d="M988.87,-109.98C959.99,-101.09 914.49,-87.07 882.3,-77.15"/>
<polygon fill="#63b8ff" stroke="#63b8ff" points="882.94,-73.68 872.35,-74.08 880.88,-80.37 882.94,-73.68"/>
</a>
</g>
</g>
<!-- Node25 -->
<g id="Node000025" class="node">
<title>Node25</title>
<g id="a_Node000025"><a xlink:title=" ">
<polygon fill="#e0e0e0" stroke="#999999" points="1052.5,-74 980.5,-74 980.5,-55 1052.5,-55 1052.5,-74"/>
<text text-anchor="middle" x="1016.5" y="-62" font-family="Helvetica,sans-Serif" font-size="10.00">sys/types.h</text>
</a>
</g>
</g>
<!-- Node24&#45;&gt;Node25 -->
<g id="edge41_Node000024_Node000025" class="edge">
<title>Node24&#45;&gt;Node25</title>
<g id="a_edge41_Node000024_Node000025"><a xlink:title=" ">
<path fill="none" stroke="#63b8ff" d="M1016.5,-109.75C1016.5,-102.8 1016.5,-92.85 1016.5,-84.13"/>
<polygon fill="#63b8ff" stroke="#63b8ff" points="1020,-84.09 1016.5,-74.09 1013,-84.09 1020,-84.09"/>
</a>
</g>
</g>
<!-- Node24&#45;&gt;Node26 -->
<g id="edge43_Node000024_Node000026" class="edge">
<title>Node24&#45;&gt;Node26</title>
<g id="a_edge43_Node000024_Node000026"><a xlink:title=" ">
<path fill="none" stroke="#63b8ff" d="M1086.09,-111.32C1188.23,-100.79 1376.92,-81.34 1472.2,-71.51"/>
<polygon fill="#63b8ff" stroke="#63b8ff" points="1472.65,-74.98 1482.24,-70.48 1471.93,-68.02 1472.65,-74.98"/>
</a>
</g>
</g>
<!-- Node30 -->
<g id="Node000030" class="node">
<title>Node30</title>
<g id="a_Node000030"><a xlink:title=" ">
<polygon fill="#e0e0e0" stroke="#999999" points="1224,-74 1169,-74 1169,-55 1224,-55 1224,-74"/>
<text text-anchor="middle" x="1196.5" y="-62" font-family="Helvetica,sans-Serif" font-size="10.00">fstream</text>
</a>
</g>
</g>
<!-- Node24&#45;&gt;Node30 -->
<g id="edge51_Node000024_Node000030" class="edge">
<title>Node24&#45;&gt;Node30</title>
<g id="a_edge51_Node000024_Node000030"><a xlink:title=" ">
<path fill="none" stroke="#63b8ff" d="M1045.42,-109.98C1076.22,-100.92 1125.09,-86.53 1158.87,-76.58"/>
<polygon fill="#63b8ff" stroke="#63b8ff" points="1160.23,-79.83 1168.83,-73.65 1158.25,-73.11 1160.23,-79.83"/>
</a>
</g>
</g>
<!-- Node31 -->
<g id="Node000031" class="node">
<title>Node31</title>
<g id="a_Node000031"><a xlink:href="robin__hood_8h.html" target="_top" xlink:title=" ">
<polygon fill="white" stroke="#666666" points="1150.5,-74 1070.5,-74 1070.5,-55 1150.5,-55 1150.5,-74"/>
<text text-anchor="middle" x="1110.5" y="-62" font-family="Helvetica,sans-Serif" font-size="10.00">robin_hood.h</text>
</a>
</g>
</g>
<!-- Node24&#45;&gt;Node31 -->
<g id="edge54_Node000024_Node000031" class="edge">
<title>Node24&#45;&gt;Node31</title>
<g id="a_edge54_Node000024_Node000031"><a xlink:title=" ">
<path fill="none" stroke="#63b8ff" d="M1031.6,-109.98C1046.32,-101.69 1068.92,-88.94 1086.17,-79.22"/>
<polygon fill="#63b8ff" stroke="#63b8ff" points="1088.13,-82.13 1095.12,-74.17 1084.69,-76.03 1088.13,-82.13"/>
</a>
</g>
</g>
<!-- Node26&#45;&gt;Node6 -->
<g id="edge47_Node000026_Node000006" class="edge">
<title>Node26&#45;&gt;Node6</title>
<g id="a_edge47_Node000026_Node000006"><a xlink:title=" ">
<path fill="none" stroke="#63b8ff" d="M1482.38,-59.58C1407.94,-53.17 1260.51,-39.13 1136.5,-19 1136.4,-18.98 1136.3,-18.97 1136.2,-18.95"/>
<polygon fill="#63b8ff" stroke="#63b8ff" points="1137.04,-15.55 1126.58,-17.22 1135.8,-22.44 1137.04,-15.55"/>
</a>
</g>
</g>
<!-- Node26&#45;&gt;Node11 -->
<g id="edge48_Node000026_Node000011" class="edge">
<title>Node26&#45;&gt;Node11</title>
<g id="a_edge48_Node000026_Node000011"><a xlink:title=" ">
<path fill="none" stroke="#63b8ff" d="M1482.41,-61.94C1342.71,-57.22 937.65,-42.05 784.85,-18.81"/>
<polygon fill="#63b8ff" stroke="#63b8ff" points="785.15,-15.31 774.73,-17.19 784.05,-22.22 785.15,-15.31"/>
</a>
</g>
</g>
<!-- Node26&#45;&gt;Node21 -->
<g id="edge46_Node000026_Node000021" class="edge">
<title>Node26&#45;&gt;Node21</title>
<g id="a_edge46_Node000026_Node000021"><a xlink:title=" ">
<path fill="none" stroke="#63b8ff" d="M1534.63,-54.75C1538.01,-47.57 1542.92,-37.18 1547.12,-28.27"/>
<polygon fill="#63b8ff" stroke="#63b8ff" points="1550.35,-29.63 1551.45,-19.09 1544.02,-26.64 1550.35,-29.63"/>
</a>
</g>
</g>
<!-- Node27 -->
<g id="Node000027" class="node">
<title>Node27</title>
<g id="a_Node000027"><a xlink:title=" ">
<polygon fill="#e0e0e0" stroke="#999999" points="1651.5,-19 1601.5,-19 1601.5,0 1651.5,0 1651.5,-19"/>
<text text-anchor="middle" x="1626.5" y="-7" font-family="Helvetica,sans-Serif" font-size="10.00">chrono</text>
</a>
</g>
</g>
<!-- Node26&#45;&gt;Node27 -->
<g id="edge44_Node000026_Node000027" class="edge">
<title>Node26&#45;&gt;Node27</title>
<g id="a_edge44_Node000026_Node000027"><a xlink:title=" ">
<path fill="none" stroke="#63b8ff" d="M1545.92,-54.98C1560.95,-46.69 1584.04,-33.94 1601.66,-24.22"/>
<polygon fill="#63b8ff" stroke="#63b8ff" points="1603.73,-27.07 1610.8,-19.17 1600.35,-20.94 1603.73,-27.07"/>
</a>
</g>
</g>
<!-- Node28 -->
<g id="Node000028" class="node">
<title>Node28</title>
<g id="a_Node000028"><a xlink:title=" ">
<polygon fill="#e0e0e0" stroke="#999999" points="1723,-19 1670,-19 1670,0 1723,0 1723,-19"/>
<text text-anchor="middle" x="1696.5" y="-7" font-family="Helvetica,sans-Serif" font-size="10.00">cstdarg</text>
</a>
</g>
</g>
<!-- Node26&#45;&gt;Node28 -->
<g id="edge45_Node000026_Node000028" class="edge">
<title>Node26&#45;&gt;Node28</title>
<g id="a_edge45_Node000026_Node000028"><a xlink:title=" ">
<path fill="none" stroke="#63b8ff" d="M1557.17,-54.98C1585.12,-46.06 1629.21,-31.98 1660.3,-22.06"/>
<polygon fill="#63b8ff" stroke="#63b8ff" points="1661.43,-25.37 1669.9,-18.99 1659.3,-18.7 1661.43,-25.37"/>
</a>
</g>
</g>
<!-- Node29 -->
<g id="Node000029" class="node">
<title>Node29</title>
<g id="a_Node000029"><a xlink:title=" ">
<polygon fill="#e0e0e0" stroke="#999999" points="1789.5,-19 1741.5,-19 1741.5,0 1789.5,0 1789.5,-19"/>
<text text-anchor="middle" x="1765.5" y="-7" font-family="Helvetica,sans-Serif" font-size="10.00">mutex</text>
</a>
</g>
</g>
<!-- Node26&#45;&gt;Node29 -->
<g id="edge49_Node000026_Node000029" class="edge">
<title>Node26&#45;&gt;Node29</title>
<g id="a_edge49_Node000026_Node000029"><a xlink:title=" ">
<path fill="none" stroke="#63b8ff" d="M1571.22,-54.97C1610.01,-46.75 1670.28,-33.71 1731.54,-19.17"/>
<polygon fill="#63b8ff" stroke="#63b8ff" points="1732.46,-22.54 1741.37,-16.82 1730.83,-15.74 1732.46,-22.54"/>
</a>
</g>
</g>
<!-- Node31&#45;&gt;Node7 -->
<g id="edge60_Node000031_Node000007" class="edge">
<title>Node31&#45;&gt;Node7</title>
<g id="a_edge60_Node000031_Node000007"><a xlink:title=" ">
<path fill="none" stroke="#63b8ff" d="M1070.44,-56.19C1067.42,-55.75 1064.41,-55.35 1061.5,-55 822.89,-26.53 757.53,-52.31 514.99,-18.8"/>
<polygon fill="#63b8ff" stroke="#63b8ff" points="515.19,-15.3 504.8,-17.38 514.22,-22.23 515.19,-15.3"/>
</a>
</g>
</g>
<!-- Node31&#45;&gt;Node11 -->
<g id="edge62_Node000031_Node000011" class="edge">
<title>Node31&#45;&gt;Node11</title>
<g id="a_edge62_Node000031_Node000011"><a xlink:title=" ">
<path fill="none" stroke="#63b8ff" d="M1070.41,-56.4C1067.4,-55.91 1064.4,-55.44 1061.5,-55 941.56,-36.84 907.43,-43.17 784.91,-19.03"/>
<polygon fill="#63b8ff" stroke="#63b8ff" points="785.25,-15.53 774.76,-17 783.88,-22.39 785.25,-15.53"/>
</a>
</g>
</g>
<!-- Node31&#45;&gt;Node13 -->
<g id="edge55_Node000031_Node000013" class="edge">
<title>Node31&#45;&gt;Node13</title>
<g id="a_edge55_Node000031_Node000013"><a xlink:title=" ">
<path fill="none" stroke="#63b8ff" d="M1150.6,-56.54C1153.94,-56.01 1157.28,-55.48 1160.5,-55 1279.61,-37.11 1312.78,-39.43 1435.17,-19.11"/>
<polygon fill="#63b8ff" stroke="#63b8ff" points="1436.03,-22.52 1445.31,-17.41 1434.87,-15.61 1436.03,-22.52"/>
</a>
</g>
</g>
<!-- Node31&#45;&gt;Node20 -->
<g id="edge59_Node000031_Node000020" class="edge">
<title>Node31&#45;&gt;Node20</title>
<g id="a_edge59_Node000031_Node000020"><a xlink:title=" ">
<path fill="none" stroke="#63b8ff" d="M1070.12,-55.25C1028.88,-46.69 963.05,-32.67 906.5,-19 906.4,-18.98 906.3,-18.95 906.2,-18.93"/>
<polygon fill="#63b8ff" stroke="#63b8ff" points="907.05,-15.53 896.5,-16.48 905.34,-22.32 907.05,-15.53"/>
</a>
</g>
</g>
<!-- Node31&#45;&gt;Node23 -->
<g id="edge61_Node000031_Node000023" class="edge">
<title>Node31&#45;&gt;Node23</title>
<g id="a_edge61_Node000031_Node000023"><a xlink:title=" ">
<path fill="none" stroke="#63b8ff" d="M1084.31,-54.98C1057.06,-46.13 1014.2,-32.19 983.72,-22.28"/>
<polygon fill="#63b8ff" stroke="#63b8ff" points="984.49,-18.85 973.89,-19.08 982.32,-25.5 984.49,-18.85"/>
</a>
</g>
</g>
<!-- Node32 -->
<g id="Node000032" class="node">
<title>Node32</title>
<g id="a_Node000032"><a xlink:title=" ">
<polygon fill="#e0e0e0" stroke="#999999" points="1257,-19 1208,-19 1208,0 1257,0 1257,-19"/>
<text text-anchor="middle" x="1232.5" y="-7" font-family="Helvetica,sans-Serif" font-size="10.00">cstdlib</text>
</a>
</g>
</g>
<!-- Node31&#45;&gt;Node32 -->
<g id="edge56_Node000031_Node000032" class="edge">
<title>Node31&#45;&gt;Node32</title>
<g id="a_edge56_Node000031_Node000032"><a xlink:title=" ">
<path fill="none" stroke="#63b8ff" d="M1130.1,-54.98C1149.82,-46.42 1180.45,-33.11 1203.08,-23.28"/>
<polygon fill="#63b8ff" stroke="#63b8ff" points="1204.76,-26.37 1212.54,-19.17 1201.98,-19.94 1204.76,-26.37"/>
</a>
</g>
</g>
<!-- Node33 -->
<g id="Node000033" class="node">
<title>Node33</title>
<g id="a_Node000033"><a xlink:title=" ">
<polygon fill="#e0e0e0" stroke="#999999" points="1048.5,-19 998.5,-19 998.5,0 1048.5,0 1048.5,-19"/>
<text text-anchor="middle" x="1023.5" y="-7" font-family="Helvetica,sans-Serif" font-size="10.00">cstring</text>
</a>
</g>
</g>
<!-- Node31&#45;&gt;Node33 -->
<g id="edge57_Node000031_Node000033" class="edge">
<title>Node31&#45;&gt;Node33</title>
<g id="a_edge57_Node000031_Node000033"><a xlink:title=" ">
<path fill="none" stroke="#63b8ff" d="M1096.52,-54.98C1083.03,-46.77 1062.37,-34.18 1046.46,-24.49"/>
<polygon fill="#63b8ff" stroke="#63b8ff" points="1048.09,-21.38 1037.73,-19.17 1044.45,-27.36 1048.09,-21.38"/>
</a>
</g>
</g>
<!-- Node34 -->
<g id="Node000034" class="node">
<title>Node34</title>
<g id="a_Node000034"><a xlink:title=" ">
<polygon fill="#e0e0e0" stroke="#999999" points="1340,-19 1275,-19 1275,0 1340,0 1340,-19"/>
<text text-anchor="middle" x="1307.5" y="-7" font-family="Helvetica,sans-Serif" font-size="10.00">functional</text>
</a>
</g>
</g>
<!-- Node31&#45;&gt;Node34 -->
<g id="edge58_Node000031_Node000034" class="edge">
<title>Node31&#45;&gt;Node34</title>
<g id="a_edge58_Node000031_Node000034"><a xlink:title=" ">
<path fill="none" stroke="#63b8ff" d="M1142.15,-54.98C1175.66,-45.97 1228.7,-31.7 1265.64,-21.76"/>
<polygon fill="#63b8ff" stroke="#63b8ff" points="1266.85,-25.06 1275.6,-19.08 1265.03,-18.3 1266.85,-25.06"/>
</a>
</g>
</g>
<!-- Node35 -->
<g id="Node000035" class="node">
<title>Node35</title>
<g id="a_Node000035"><a xlink:title=" ">
<polygon fill="#e0e0e0" stroke="#999999" points="1427,-19 1358,-19 1358,0 1427,0 1427,-19"/>
<text text-anchor="middle" x="1392.5" y="-7" font-family="Helvetica,sans-Serif" font-size="10.00">type_traits</text>
</a>
</g>
</g>
<!-- Node31&#45;&gt;Node35 -->
<g id="edge63_Node000031_Node000035" class="edge">
<title>Node31&#45;&gt;Node35</title>
<g id="a_edge63_Node000031_Node000035"><a xlink:title=" ">
<path fill="none" stroke="#63b8ff" d="M1150.7,-56.16C1196.17,-47.82 1272.72,-33.69 1347.69,-19.33"/>
<polygon fill="#63b8ff" stroke="#63b8ff" points="1348.61,-22.72 1357.77,-17.4 1347.29,-15.85 1348.61,-22.72"/>
</a>
</g>
</g>
<!-- Node36 -->
<g id="Node000036" class="node">
<title>Node36</title>
<g id="a_Node000036"><a xlink:title=" ">
<polygon fill="#e0e0e0" stroke="#999999" points="1190,-19 1145,-19 1145,0 1190,0 1190,-19"/>
<text text-anchor="middle" x="1167.5" y="-7" font-family="Helvetica,sans-Serif" font-size="10.00">utility</text>
</a>
</g>
</g>
<!-- Node31&#45;&gt;Node36 -->
<g id="edge64_Node000031_Node000036" class="edge">
<title>Node31&#45;&gt;Node36</title>
<g id="a_edge64_Node000031_Node000036"><a xlink:title=" ">
<path fill="none" stroke="#63b8ff" d="M1119.66,-54.98C1128,-47.23 1140.53,-35.58 1150.68,-26.14"/>
<polygon fill="#63b8ff" stroke="#63b8ff" points="1153.24,-28.54 1158.18,-19.17 1148.47,-23.42 1153.24,-28.54"/>
</a>
</g>
</g>
</g>
</svg>

<g id="navigator" transform="translate(0 0)" fill="#404254">
  <rect fill="#f2f5e9" fill-opacity="0.5" stroke="#606060" stroke-width=".5" x="0" y="0" width="60" height="60"/>
  <use id="zoomplus" xlink:href="#zoomPlus" x="17" y="9" onmousedown="handleZoom(evt,'in')"/>
  <use id="zoomminus" xlink:href="#zoomMin" x="42" y="9" onmousedown="handleZoom(evt,'out')"/>
  <use id="reset" xlink:href="#resetDef" x="30" y="36" onmousedown="handleReset()"/>
   <use id="arrowup" xlink:href="#arrowUp" x="0" y="0" onmousedown="handlePan(0,-1)"/>
  <use id="arrowright" xlink:href="#arrowRight" x="0" y="0" onmousedown="handlePan(1,0)"/>
  <use id="arrowdown" xlink:href="#arrowDown" x="0" y="0" onmousedown="handlePan(0,1)"/>
  <use id="arrowleft" xlink:href="#arrowLeft" x="0" y="0" onmousedown="handlePan(-1,0)"/>
</g>
<svg viewBox="0 0 15 15" width="100%" height="30px" preserveAspectRatio="xMaxYMin meet">
 <g id="arrow_out" transform="scale(0.3 0.3)">
  <a xlink:href="normalOrientation_8cpp__incl_org.svg" target="_base">
   <rect id="button" ry="5" rx="5" y="6" x="6" height="38" width="38"
        fill="#f2f5e9" fill-opacity="0.5" stroke="#606060" stroke-width="1.0"/>
   <path id="arrow"
     d="M 11.500037,31.436501 C 11.940474,20.09759 22.043105,11.32322 32.158766,21.979434 L 37.068811,17.246167 C 37.068811,17.246167 37.088388,32 37.088388,32 L 22.160133,31.978069 C 22.160133,31.978069 26.997745,27.140456 26.997745,27.140456 C 18.528582,18.264221 13.291696,25.230495 11.500037,31.436501 z"
     style="fill:#404040;"/>
  </a>
 </g>
</svg>

<style type='text/css'>
<![CDATA[
[data-mouse-over-selected='false'] { opacity: 0.7; }
[data-mouse-over-selected='true']  { opacity: 1.0; }
]]>
</style>
<script type="application/ecmascript"><![CDATA[
document.addEventListener('DOMContentLoaded', (event) => {
  highlightEdges();
  highlightAdjacentNodes();
});
]]></script>
</svg>
