<?xml version="1.0" encoding="UTF-8" standalone="no"?>
<!DOCTYPE svg PUBLIC "-//W3C//DTD SVG 1.1//EN"
 "http://www.w3.org/Graphics/SVG/1.1/DTD/svg11.dtd">
<!-- Generated by graphviz version 2.43.0 (0)
 -->
<!-- Title: src/lib/utils/parameters.hpp Pages: 1 -->
<!--zoomable 225 -->

<svg id="main" version="1.1" xmlns="http://www.w3.org/2000/svg" xmlns:xlink="http://www.w3.org/1999/xlink" xml:space="preserve" onload="init(evt)">
<style type="text/css"><![CDATA[
.node, .edge {opacity: 0.7;}
.node.selected, .edge.selected {opacity: 1;}
.edge:hover path { stroke: red; }
.edge:hover polygon { stroke: red; fill: red; }
]]></style>

<defs>
  <circle id="rim" cx="0" cy="0" r="7"/>
  <circle id="rim2" cx="0" cy="0" r="3.5"/>
  <g id="zoomPlus">
    <use xlink:href="#rim" fill="#404040"><set attributeName="fill" to="#808080" begin="zoomplus.mouseover" end="zoomplus.mouseout"/></use>
    <path d="M-4,0h8M0,-4v8" fill="none" stroke="white" stroke-width="1.5" pointer-events="none"/>
  </g>
  <g id="zoomMin">
    <use xlink:href="#rim" fill="#404040"><set attributeName="fill" to="#808080" begin="zoomminus.mouseover" end="zoomminus.mouseout"/></use>
    <path d="M-4,0h8" fill="none" stroke="white" stroke-width="1.5" pointer-events="none"/>
  </g>
  <g id="arrowUp" transform="translate(30 24)">
    <use xlink:href="#rim"/>
    <path pointer-events="none" fill="none" stroke="white" stroke-width="1.5" d="M0,-3.0v7 M-2.5,-0.5L0,-3.0L2.5,-0.5"/>
  </g>
  <g id="arrowRight" transform="rotate(90) translate(36 -43)">
    <use xlink:href="#rim"/>
    <path pointer-events="none" fill="none" stroke="white" stroke-width="1.5" d="M0,-3.0v7 M-2.5,-0.5L0,-3.0L2.5,-0.5"/>
  </g>
  <g id="arrowDown" transform="rotate(180) translate(-30 -48)">
    <use xlink:href="#rim"/>
    <path pointer-events="none" fill="none" stroke="white" stroke-width="1.5" d="M0,-3.0v7 M-2.5,-0.5L0,-3.0L2.5,-0.5"/>
  </g>
  <g id="arrowLeft" transform="rotate(270) translate(-36 17)">
    <use xlink:href="#rim"/>
    <path pointer-events="none" fill="none" stroke="white" stroke-width="1.5" d="M0,-3.0v7 M-2.5,-0.5L0,-3.0L2.5,-0.5"/>
  </g>
  <g id="resetDef">
    <use xlink:href="#rim2" fill="#404040"><set attributeName="fill" to="#808080" begin="reset.mouseover" end="reset.mouseout"/></use>
  </g>
</defs>
<script type="application/ecmascript">
var viewWidth = 2743;
var viewHeight = 225;
var sectionId = 'dynsection-1';
</script>
<script type="application/ecmascript" xlink:href="svg.min.js"/>
<svg id="graph" class="graph">
<g id="viewport">
<title>src/lib/utils/parameters.hpp</title>
<!-- Node1 -->
<g id="Node000001" class="node">
<title>Node1</title>
<g id="a_Node000001"><a xlink:title=" ">
<polygon fill="#999999" stroke="#666666" points="1330,-217 1180,-217 1180,-198 1330,-198 1330,-217"/>
<text text-anchor="middle" x="1255" y="-205" font-family="Helvetica,sans-Serif" font-size="10.00">src/lib/utils/parameters.hpp</text>
</a>
</g>
</g>
<!-- Node2 -->
<g id="Node000002" class="node">
<title>Node2</title>
<g id="a_Node000002"><a xlink:href="atlas__context_8cpp.html" target="_top" xlink:title=" ">
<polygon fill="white" stroke="#666666" points="150,-96 0,-96 0,-66 150,-66 150,-96"/>
<text text-anchor="start" x="8" y="-84" font-family="Helvetica,sans-Serif" font-size="10.00">src/lib/bitstreamGeneration</text>
<text text-anchor="middle" x="75" y="-73" font-family="Helvetica,sans-Serif" font-size="10.00">/atlas_context.cpp</text>
</a>
</g>
</g>
<!-- Node1&#45;&gt;Node2 -->
<g id="edge1_Node000001_Node000002" class="edge">
<title>Node1&#45;&gt;Node2</title>
<g id="a_edge1_Node000001_Node000002"><a xlink:title=" ">
<path fill="none" stroke="#63b8ff" d="M1169.78,-206.14C930.35,-204.69 263.05,-197.48 171,-162 135.17,-148.19 102.99,-115.23 86.55,-96.21"/>
<polygon fill="#63b8ff" stroke="#63b8ff" points="1169.81,-209.64 1179.83,-206.2 1169.85,-202.64 1169.81,-209.64"/>
</a>
</g>
</g>
<!-- Node3 -->
<g id="Node000003" class="node">
<title>Node3</title>
<g id="a_Node000003"><a xlink:href="atlas__context_8hpp.html" target="_top" xlink:title=" ">
<polygon fill="white" stroke="#666666" points="330,-162 180,-162 180,-132 330,-132 330,-162"/>
<text text-anchor="start" x="188" y="-150" font-family="Helvetica,sans-Serif" font-size="10.00">src/lib/bitstreamGeneration</text>
<text text-anchor="middle" x="255" y="-139" font-family="Helvetica,sans-Serif" font-size="10.00">/atlas_context.hpp</text>
</a>
</g>
</g>
<!-- Node1&#45;&gt;Node3 -->
<g id="edge2_Node000001_Node000003" class="edge">
<title>Node1&#45;&gt;Node3</title>
<g id="a_edge2_Node000001_Node000003"><a xlink:title=" ">
<path fill="none" stroke="#63b8ff" d="M1169.79,-204.49C1010.88,-200.25 658.62,-188.49 363,-162 352.36,-161.05 341.16,-159.83 330.16,-158.52"/>
<polygon fill="#63b8ff" stroke="#63b8ff" points="1169.88,-207.99 1179.97,-204.76 1170.07,-201 1169.88,-207.99"/>
</a>
</g>
</g>
<!-- Node4 -->
<g id="Node000004" class="node">
<title>Node4</title>
<g id="a_Node000004"><a xlink:href="bitstreamGeneration_8cpp.html" target="_top" xlink:title=" ">
<polygon fill="white" stroke="#666666" points="478,-30 328,-30 328,0 478,0 478,-30"/>
<text text-anchor="start" x="336" y="-18" font-family="Helvetica,sans-Serif" font-size="10.00">src/lib/bitstreamGeneration</text>
<text text-anchor="middle" x="403" y="-7" font-family="Helvetica,sans-Serif" font-size="10.00">/bitstreamGeneration.cpp</text>
</a>
</g>
</g>
<!-- Node1&#45;&gt;Node4 -->
<g id="edge8_Node000001_Node000004" class="edge">
<title>Node1&#45;&gt;Node4</title>
<g id="a_edge8_Node000001_Node000004"><a xlink:title=" ">
<path fill="none" stroke="#63b8ff" d="M1169.5,-205.21C957.42,-201.59 422.35,-189.75 396,-162 361.75,-125.93 384.05,-59.51 396.38,-30.36"/>
<polygon fill="#63b8ff" stroke="#63b8ff" points="1169.6,-208.71 1179.65,-205.38 1169.71,-201.71 1169.6,-208.71"/>
</a>
</g>
</g>
<!-- Node7 -->
<g id="Node000007" class="node">
<title>Node7</title>
<g id="a_Node000007"><a xlink:href="bitstreamGeneration_8hpp.html" target="_top" xlink:title=" ">
<polygon fill="white" stroke="#666666" points="723,-162 573,-162 573,-132 723,-132 723,-162"/>
<text text-anchor="start" x="581" y="-150" font-family="Helvetica,sans-Serif" font-size="10.00">src/lib/bitstreamGeneration</text>
<text text-anchor="middle" x="648" y="-139" font-family="Helvetica,sans-Serif" font-size="10.00">/bitstreamGeneration.hpp</text>
</a>
</g>
</g>
<!-- Node1&#45;&gt;Node7 -->
<g id="edge9_Node000001_Node000007" class="edge">
<title>Node1&#45;&gt;Node7</title>
<g id="a_edge9_Node000001_Node000007"><a xlink:title=" ">
<path fill="none" stroke="#63b8ff" d="M1169.75,-201.02C1066.94,-193.99 888.97,-180.46 737,-162 732.5,-161.45 727.87,-160.85 723.21,-160.21"/>
<polygon fill="#63b8ff" stroke="#63b8ff" points="1169.55,-204.52 1179.77,-201.7 1170.03,-197.53 1169.55,-204.52"/>
</a>
</g>
</g>
<!-- Node8 -->
<g id="Node000008" class="node">
<title>Node8</title>
<g id="a_Node000008"><a xlink:href="uvgvpcc_8cpp.html" target="_top" xlink:title=" ">
<polygon fill="white" stroke="#666666" points="806,-90.5 696,-90.5 696,-71.5 806,-71.5 806,-90.5"/>
<text text-anchor="middle" x="751" y="-78.5" font-family="Helvetica,sans-Serif" font-size="10.00">src/lib/uvgvpcc.cpp</text>
</a>
</g>
</g>
<!-- Node1&#45;&gt;Node8 -->
<g id="edge32_Node000001_Node000008" class="edge">
<title>Node1&#45;&gt;Node8</title>
<g id="a_edge32_Node000001_Node000008"><a xlink:title=" ">
<path fill="none" stroke="#63b8ff" d="M1169.88,-203.96C1039.07,-199.27 800.56,-187.34 771,-162 749.91,-143.92 749.3,-107.3 750.24,-90.62"/>
<polygon fill="#63b8ff" stroke="#63b8ff" points="1169.76,-207.46 1179.88,-204.31 1170.01,-200.46 1169.76,-207.46"/>
</a>
</g>
</g>
<!-- Node9 -->
<g id="Node000009" class="node">
<title>Node9</title>
<g id="a_Node000009"><a xlink:href="bitstream__util_8cpp.html" target="_top" xlink:title=" ">
<polygon fill="white" stroke="#666666" points="1111,-162 961,-162 961,-132 1111,-132 1111,-162"/>
<text text-anchor="start" x="969" y="-150" font-family="Helvetica,sans-Serif" font-size="10.00">src/lib/bitstreamGeneration</text>
<text text-anchor="middle" x="1036" y="-139" font-family="Helvetica,sans-Serif" font-size="10.00">/bitstream_util.cpp</text>
</a>
</g>
</g>
<!-- Node1&#45;&gt;Node9 -->
<g id="edge12_Node000001_Node000009" class="edge">
<title>Node1&#45;&gt;Node9</title>
<g id="a_edge12_Node000001_Node000009"><a xlink:title=" ">
<path fill="none" stroke="#63b8ff" d="M1213.15,-195.32C1177.74,-185.86 1126.82,-172.26 1088.65,-162.06"/>
<polygon fill="#63b8ff" stroke="#63b8ff" points="1212.59,-198.79 1223.16,-197.99 1214.4,-192.03 1212.59,-198.79"/>
</a>
</g>
</g>
<!-- Node10 -->
<g id="Node000010" class="node">
<title>Node10</title>
<g id="a_Node000010"><a xlink:href="vps_8hpp.html" target="_top" xlink:title=" ">
<polygon fill="white" stroke="#666666" points="555,-162 405,-162 405,-132 555,-132 555,-162"/>
<text text-anchor="start" x="413" y="-150" font-family="Helvetica,sans-Serif" font-size="10.00">src/lib/bitstreamGeneration</text>
<text text-anchor="middle" x="480" y="-139" font-family="Helvetica,sans-Serif" font-size="10.00">/vps.hpp</text>
</a>
</g>
</g>
<!-- Node1&#45;&gt;Node10 -->
<g id="edge13_Node000001_Node000010" class="edge">
<title>Node1&#45;&gt;Node10</title>
<g id="a_edge13_Node000001_Node000010"><a xlink:title=" ">
<path fill="none" stroke="#63b8ff" d="M1169.54,-203.77C1038.76,-198.96 781.29,-187.04 564,-162 561.06,-161.66 558.07,-161.29 555.05,-160.89"/>
<polygon fill="#63b8ff" stroke="#63b8ff" points="1169.76,-207.28 1179.88,-204.14 1170.01,-200.28 1169.76,-207.28"/>
</a>
</g>
</g>
<!-- Node12 -->
<g id="Node000012" class="node">
<title>Node12</title>
<g id="a_Node000012"><a xlink:href="encoderKvazaar_8cpp.html" target="_top" xlink:title=" ">
<polygon fill="white" stroke="#666666" points="1247,-162 1129,-162 1129,-132 1247,-132 1247,-162"/>
<text text-anchor="start" x="1137" y="-150" font-family="Helvetica,sans-Serif" font-size="10.00">src/lib/mapEncoding</text>
<text text-anchor="middle" x="1188" y="-139" font-family="Helvetica,sans-Serif" font-size="10.00">/encoderKvazaar.cpp</text>
</a>
</g>
</g>
<!-- Node1&#45;&gt;Node12 -->
<g id="edge17_Node000001_Node000012" class="edge">
<title>Node1&#45;&gt;Node12</title>
<g id="a_edge17_Node000001_Node000012"><a xlink:title=" ">
<path fill="none" stroke="#63b8ff" d="M1237.52,-191.23C1227.2,-182.23 1214.24,-170.91 1204.17,-162.11"/>
<polygon fill="#63b8ff" stroke="#63b8ff" points="1235.28,-193.93 1245.11,-197.87 1239.88,-188.65 1235.28,-193.93"/>
</a>
</g>
</g>
<!-- Node13 -->
<g id="Node000013" class="node">
<title>Node13</title>
<g id="a_Node000013"><a xlink:href="mapEncoding_8cpp.html" target="_top" xlink:title=" ">
<polygon fill="white" stroke="#666666" points="1380.5,-162 1265.5,-162 1265.5,-132 1380.5,-132 1380.5,-162"/>
<text text-anchor="start" x="1273.5" y="-150" font-family="Helvetica,sans-Serif" font-size="10.00">src/lib/mapEncoding</text>
<text text-anchor="middle" x="1323" y="-139" font-family="Helvetica,sans-Serif" font-size="10.00">/mapEncoding.cpp</text>
</a>
</g>
</g>
<!-- Node1&#45;&gt;Node13 -->
<g id="edge18_Node000001_Node000013" class="edge">
<title>Node1&#45;&gt;Node13</title>
<g id="a_edge18_Node000001_Node000013"><a xlink:title=" ">
<path fill="none" stroke="#63b8ff" d="M1272.74,-191.23C1283.21,-182.23 1296.37,-170.91 1306.59,-162.11"/>
<polygon fill="#63b8ff" stroke="#63b8ff" points="1270.33,-188.69 1265.03,-197.87 1274.9,-194 1270.33,-188.69"/>
</a>
</g>
</g>
<!-- Node14 -->
<g id="Node000014" class="node">
<title>Node14</title>
<g id="a_Node000014"><a xlink:href="mapGeneration_8cpp.html" target="_top" xlink:title=" ">
<polygon fill="white" stroke="#666666" points="1523.5,-162 1398.5,-162 1398.5,-132 1523.5,-132 1523.5,-162"/>
<text text-anchor="start" x="1406.5" y="-150" font-family="Helvetica,sans-Serif" font-size="10.00">src/lib/mapGeneration</text>
<text text-anchor="middle" x="1461" y="-139" font-family="Helvetica,sans-Serif" font-size="10.00">/mapGeneration.cpp</text>
</a>
</g>
</g>
<!-- Node1&#45;&gt;Node14 -->
<g id="edge19_Node000001_Node000014" class="edge">
<title>Node1&#45;&gt;Node14</title>
<g id="a_edge19_Node000001_Node000014"><a xlink:title=" ">
<path fill="none" stroke="#63b8ff" d="M1294.79,-195.2C1328.08,-185.75 1375.72,-172.22 1411.47,-162.06"/>
<polygon fill="#63b8ff" stroke="#63b8ff" points="1293.62,-191.89 1284.95,-197.99 1295.53,-198.63 1293.62,-191.89"/>
</a>
</g>
</g>
<!-- Node15 -->
<g id="Node000015" class="node">
<title>Node15</title>
<g id="a_Node000015"><a xlink:href="normalComputation_8cpp.html" target="_top" xlink:title=" ">
<polygon fill="white" stroke="#666666" points="1678.5,-162 1541.5,-162 1541.5,-132 1678.5,-132 1678.5,-162"/>
<text text-anchor="start" x="1549.5" y="-150" font-family="Helvetica,sans-Serif" font-size="10.00">src/lib/patchGeneration</text>
<text text-anchor="middle" x="1610" y="-139" font-family="Helvetica,sans-Serif" font-size="10.00">/normalComputation.cpp</text>
</a>
</g>
</g>
<!-- Node1&#45;&gt;Node15 -->
<g id="edge20_Node000001_Node000015" class="edge">
<title>Node1&#45;&gt;Node15</title>
<g id="a_edge20_Node000001_Node000015"><a xlink:title=" ">
<path fill="none" stroke="#63b8ff" d="M1320.64,-196.39C1377.02,-187.62 1460.43,-174.4 1533,-162 1535.68,-161.54 1538.41,-161.07 1541.17,-160.59"/>
<polygon fill="#63b8ff" stroke="#63b8ff" points="1319.78,-192.98 1310.44,-197.98 1320.86,-199.9 1319.78,-192.98"/>
</a>
</g>
</g>
<!-- Node16 -->
<g id="Node000016" class="node">
<title>Node16</title>
<g id="a_Node000016"><a xlink:href="normalOrientation_8cpp.html" target="_top" xlink:title=" ">
<polygon fill="white" stroke="#666666" points="1827,-162 1697,-162 1697,-132 1827,-132 1827,-162"/>
<text text-anchor="start" x="1705" y="-150" font-family="Helvetica,sans-Serif" font-size="10.00">src/lib/patchGeneration</text>
<text text-anchor="middle" x="1762" y="-139" font-family="Helvetica,sans-Serif" font-size="10.00">/normalOrientation.cpp</text>
</a>
</g>
</g>
<!-- Node1&#45;&gt;Node16 -->
<g id="edge21_Node000001_Node000016" class="edge">
<title>Node1&#45;&gt;Node16</title>
<g id="a_edge21_Node000001_Node000016"><a xlink:title=" ">
<path fill="none" stroke="#63b8ff" d="M1340.48,-199.86C1428.01,-192.56 1567.87,-179.5 1688,-162 1690.85,-161.59 1693.75,-161.14 1696.68,-160.67"/>
<polygon fill="#63b8ff" stroke="#63b8ff" points="1340.01,-196.39 1330.33,-200.7 1340.59,-203.37 1340.01,-196.39"/>
</a>
</g>
</g>
<!-- Node17 -->
<g id="Node000017" class="node">
<title>Node17</title>
<g id="a_Node000017"><a xlink:href="patchGeneration_8cpp.html" target="_top" xlink:title=" ">
<polygon fill="white" stroke="#666666" points="1975,-162 1845,-162 1845,-132 1975,-132 1975,-162"/>
<text text-anchor="start" x="1853" y="-150" font-family="Helvetica,sans-Serif" font-size="10.00">src/lib/patchGeneration</text>
<text text-anchor="middle" x="1910" y="-139" font-family="Helvetica,sans-Serif" font-size="10.00">/patchGeneration.cpp</text>
</a>
</g>
</g>
<!-- Node1&#45;&gt;Node17 -->
<g id="edge22_Node000001_Node000017" class="edge">
<title>Node1&#45;&gt;Node17</title>
<g id="a_edge22_Node000001_Node000017"><a xlink:title=" ">
<path fill="none" stroke="#63b8ff" d="M1340.04,-202.93C1453.51,-197.5 1660.53,-185.25 1836,-162 1838.85,-161.62 1841.76,-161.21 1844.69,-160.76"/>
<polygon fill="#63b8ff" stroke="#63b8ff" points="1339.85,-199.44 1330.02,-203.41 1340.18,-206.43 1339.85,-199.44"/>
</a>
</g>
</g>
<!-- Node18 -->
<g id="Node000018" class="node">
<title>Node18</title>
<g id="a_Node000018"><a xlink:href="patchSegmentation_8cpp.html" target="_top" xlink:title=" ">
<polygon fill="white" stroke="#666666" points="2128.5,-162 1993.5,-162 1993.5,-132 2128.5,-132 2128.5,-162"/>
<text text-anchor="start" x="2001.5" y="-150" font-family="Helvetica,sans-Serif" font-size="10.00">src/lib/patchGeneration</text>
<text text-anchor="middle" x="2061" y="-139" font-family="Helvetica,sans-Serif" font-size="10.00">/patchSegmentation.cpp</text>
</a>
</g>
</g>
<!-- Node1&#45;&gt;Node18 -->
<g id="edge23_Node000001_Node000018" class="edge">
<title>Node1&#45;&gt;Node18</title>
<g id="a_edge23_Node000001_Node000018"><a xlink:title=" ">
<path fill="none" stroke="#63b8ff" d="M1340.42,-204.58C1476.87,-200.76 1752.28,-190.04 1984,-162 1987.1,-161.62 1990.27,-161.2 1993.46,-160.75"/>
<polygon fill="#63b8ff" stroke="#63b8ff" points="1339.94,-201.09 1330.04,-204.86 1340.13,-208.08 1339.94,-201.09"/>
</a>
</g>
</g>
<!-- Node19 -->
<g id="Node000019" class="node">
<title>Node19</title>
<g id="a_Node000019"><a xlink:href="ppiSegmenter_8cpp.html" target="_top" xlink:title=" ">
<polygon fill="white" stroke="#666666" points="2277,-162 2147,-162 2147,-132 2277,-132 2277,-162"/>
<text text-anchor="start" x="2155" y="-150" font-family="Helvetica,sans-Serif" font-size="10.00">src/lib/patchGeneration</text>
<text text-anchor="middle" x="2212" y="-139" font-family="Helvetica,sans-Serif" font-size="10.00">/ppiSegmenter.cpp</text>
</a>
</g>
</g>
<!-- Node1&#45;&gt;Node19 -->
<g id="edge24_Node000001_Node000019" class="edge">
<title>Node1&#45;&gt;Node19</title>
<g id="a_edge24_Node000001_Node000019"><a xlink:title=" ">
<path fill="none" stroke="#63b8ff" d="M1340.13,-206.07C1498,-204.41 1846.62,-196.74 2138,-162 2140.86,-161.66 2143.77,-161.27 2146.7,-160.85"/>
<polygon fill="#63b8ff" stroke="#63b8ff" points="1339.97,-202.57 1330.01,-206.17 1340.04,-209.57 1339.97,-202.57"/>
</a>
</g>
</g>
<!-- Node20 -->
<g id="Node000020" class="node">
<title>Node20</title>
<g id="a_Node000020"><a xlink:href="patchPacking_8cpp.html" target="_top" xlink:title=" ">
<polygon fill="white" stroke="#666666" points="2408.5,-162 2295.5,-162 2295.5,-132 2408.5,-132 2408.5,-162"/>
<text text-anchor="start" x="2303.5" y="-150" font-family="Helvetica,sans-Serif" font-size="10.00">src/lib/patchPacking</text>
<text text-anchor="middle" x="2352" y="-139" font-family="Helvetica,sans-Serif" font-size="10.00">/patchPacking.cpp</text>
</a>
</g>
</g>
<!-- Node1&#45;&gt;Node20 -->
<g id="edge25_Node000001_Node000020" class="edge">
<title>Node1&#45;&gt;Node20</title>
<g id="a_edge25_Node000001_Node000020"><a xlink:title=" ">
<path fill="none" stroke="#63b8ff" d="M1340.47,-204.64C1553.51,-199.7 2104.02,-185.07 2286,-162 2289.02,-161.62 2292.11,-161.17 2295.22,-160.67"/>
<polygon fill="#63b8ff" stroke="#63b8ff" points="1340.2,-201.14 1330.28,-204.87 1340.36,-208.14 1340.2,-201.14"/>
</a>
</g>
</g>
<!-- Node21 -->
<g id="Node000021" class="node">
<title>Node21</title>
<g id="a_Node000021"><a xlink:href="fileExport_8cpp.html" target="_top" xlink:title=" ">
<polygon fill="white" stroke="#666666" points="2567,-156.5 2427,-156.5 2427,-137.5 2567,-137.5 2567,-156.5"/>
<text text-anchor="middle" x="2497" y="-144.5" font-family="Helvetica,sans-Serif" font-size="10.00">src/lib/utils/fileExport.cpp</text>
</a>
</g>
</g>
<!-- Node1&#45;&gt;Node21 -->
<g id="edge26_Node000001_Node000021" class="edge">
<title>Node1&#45;&gt;Node21</title>
<g id="a_edge26_Node000001_Node000021"><a xlink:title=" ">
<path fill="none" stroke="#63b8ff" d="M1340.15,-207.23C1532.74,-208.01 2016.34,-205.07 2418,-162 2430.05,-160.71 2443.03,-158.68 2454.92,-156.56"/>
<polygon fill="#63b8ff" stroke="#63b8ff" points="1340.11,-203.73 1330.09,-207.18 1340.08,-210.73 1340.11,-203.73"/>
</a>
</g>
</g>
<!-- Node22 -->
<g id="Node000022" class="node">
<title>Node22</title>
<g id="a_Node000022"><a xlink:href="parameters_8cpp.html" target="_top" xlink:title=" ">
<polygon fill="white" stroke="#666666" points="2734.5,-156.5 2585.5,-156.5 2585.5,-137.5 2734.5,-137.5 2734.5,-156.5"/>
<text text-anchor="middle" x="2660" y="-144.5" font-family="Helvetica,sans-Serif" font-size="10.00">src/lib/utils/parameters.cpp</text>
</a>
</g>
</g>
<!-- Node1&#45;&gt;Node22 -->
<g id="edge27_Node000001_Node000022" class="edge">
<title>Node1&#45;&gt;Node22</title>
<g id="a_edge27_Node000001_Node000022"><a xlink:title=" ">
<path fill="none" stroke="#63b8ff" d="M1340.51,-205.09C1593.38,-200.69 2335.02,-186.04 2576,-162 2588.95,-160.71 2602.92,-158.65 2615.68,-156.51"/>
<polygon fill="#63b8ff" stroke="#63b8ff" points="1340.21,-201.59 1330.27,-205.27 1340.33,-208.59 1340.21,-201.59"/>
</a>
</g>
</g>
<!-- Node23 -->
<g id="Node000023" class="node">
<title>Node23</title>
<g id="a_Node000023"><a xlink:href="preset_8cpp.html" target="_top" xlink:title=" ">
<polygon fill="white" stroke="#666666" points="972,-90.5 848,-90.5 848,-71.5 972,-71.5 972,-90.5"/>
<text text-anchor="middle" x="910" y="-78.5" font-family="Helvetica,sans-Serif" font-size="10.00">src/lib/utils/preset.cpp</text>
</a>
</g>
</g>
<!-- Node1&#45;&gt;Node23 -->
<g id="edge28_Node000001_Node000023" class="edge">
<title>Node1&#45;&gt;Node23</title>
<g id="a_edge28_Node000001_Node000023"><a xlink:title=" ">
<path fill="none" stroke="#63b8ff" d="M1169.67,-202.53C1092.56,-197.43 986.09,-186.16 952,-162 927.17,-144.4 915.85,-107.53 911.83,-90.71"/>
<polygon fill="#63b8ff" stroke="#63b8ff" points="1169.66,-206.04 1179.87,-203.18 1170.11,-199.05 1169.66,-206.04"/>
</a>
</g>
</g>
<!-- Node24 -->
<g id="Node000024" class="node">
<title>Node24</title>
<g id="a_Node000024"><a xlink:href="preset_8hpp.html" target="_top" xlink:title=" ">
<polygon fill="white" stroke="#666666" points="904.5,-156.5 779.5,-156.5 779.5,-137.5 904.5,-137.5 904.5,-156.5"/>
<text text-anchor="middle" x="842" y="-144.5" font-family="Helvetica,sans-Serif" font-size="10.00">src/lib/utils/preset.hpp</text>
</a>
</g>
</g>
<!-- Node1&#45;&gt;Node24 -->
<g id="edge29_Node000001_Node000024" class="edge">
<title>Node1&#45;&gt;Node24</title>
<g id="a_edge29_Node000001_Node000024"><a xlink:title=" ">
<path fill="none" stroke="#63b8ff" d="M1172.85,-196.74C1104.72,-188.38 1005.39,-175.57 919,-162 908.53,-160.36 897.29,-158.41 886.73,-156.51"/>
<polygon fill="#63b8ff" stroke="#63b8ff" points="1172.73,-200.25 1183.08,-197.99 1173.58,-193.31 1172.73,-200.25"/>
</a>
</g>
</g>
<!-- Node3&#45;&gt;Node2 -->
<g id="edge3_Node000003_Node000002" class="edge">
<title>Node3&#45;&gt;Node2</title>
<g id="a_edge3_Node000003_Node000002"><a xlink:title=" ">
<path fill="none" stroke="#63b8ff" d="M206.03,-128.59C177.26,-118.36 141.35,-105.59 114.41,-96.01"/>
<polygon fill="#63b8ff" stroke="#63b8ff" points="204.9,-131.9 215.5,-131.95 207.25,-125.31 204.9,-131.9"/>
</a>
</g>
</g>
<!-- Node3&#45;&gt;Node4 -->
<g id="edge4_Node000003_Node000004" class="edge">
<title>Node3&#45;&gt;Node4</title>
<g id="a_edge4_Node000003_Node000004"><a xlink:title=" ">
<path fill="none" stroke="#63b8ff" d="M224.12,-125.77C202.98,-109.4 181.37,-85.88 197,-66 205.39,-55.33 272.5,-40.36 327.88,-29.58"/>
<polygon fill="#63b8ff" stroke="#63b8ff" points="222.29,-128.77 232.42,-131.88 226.45,-123.13 222.29,-128.77"/>
</a>
</g>
</g>
<!-- Node5 -->
<g id="Node000005" class="node">
<title>Node5</title>
<g id="a_Node000005"><a xlink:href="gof_8hpp.html" target="_top" xlink:title=" ">
<polygon fill="white" stroke="#666666" points="356,-96 206,-96 206,-66 356,-66 356,-96"/>
<text text-anchor="start" x="214" y="-84" font-family="Helvetica,sans-Serif" font-size="10.00">src/lib/bitstreamGeneration</text>
<text text-anchor="middle" x="281" y="-73" font-family="Helvetica,sans-Serif" font-size="10.00">/gof.hpp</text>
</a>
</g>
</g>
<!-- Node3&#45;&gt;Node5 -->
<g id="edge5_Node000003_Node000005" class="edge">
<title>Node3&#45;&gt;Node5</title>
<g id="a_edge5_Node000003_Node000005"><a xlink:title=" ">
<path fill="none" stroke="#63b8ff" d="M264.59,-122.39C268.17,-113.59 272.12,-103.86 275.25,-96.16"/>
<polygon fill="#63b8ff" stroke="#63b8ff" points="261.29,-121.21 260.77,-131.8 267.78,-123.85 261.29,-121.21"/>
</a>
</g>
</g>
<!-- Node5&#45;&gt;Node4 -->
<g id="edge6_Node000005_Node000004" class="edge">
<title>Node5&#45;&gt;Node4</title>
<g id="a_edge6_Node000005_Node000004"><a xlink:title=" ">
<path fill="none" stroke="#63b8ff" d="M316.76,-61.24C335.8,-51.25 358.82,-39.18 376.29,-30.01"/>
<polygon fill="#63b8ff" stroke="#63b8ff" points="315,-58.21 307.77,-65.95 318.25,-64.41 315,-58.21"/>
</a>
</g>
</g>
<!-- Node6 -->
<g id="Node000006" class="node">
<title>Node6</title>
<g id="a_Node000006"><a xlink:href="gof_8cpp.html" target="_top" xlink:title=" ">
<polygon fill="white" stroke="#666666" points="310,-30 160,-30 160,0 310,0 310,-30"/>
<text text-anchor="start" x="168" y="-18" font-family="Helvetica,sans-Serif" font-size="10.00">src/lib/bitstreamGeneration</text>
<text text-anchor="middle" x="235" y="-7" font-family="Helvetica,sans-Serif" font-size="10.00">/gof.cpp</text>
</a>
</g>
</g>
<!-- Node5&#45;&gt;Node6 -->
<g id="edge7_Node000005_Node000006" class="edge">
<title>Node5&#45;&gt;Node6</title>
<g id="a_edge7_Node000005_Node000006"><a xlink:title=" ">
<path fill="none" stroke="#63b8ff" d="M264.85,-57.53C258.31,-48.43 250.95,-38.19 245.18,-30.16"/>
<polygon fill="#63b8ff" stroke="#63b8ff" points="262.11,-59.72 270.79,-65.8 267.8,-55.63 262.11,-59.72"/>
</a>
</g>
</g>
<!-- Node7&#45;&gt;Node4 -->
<g id="edge10_Node000007_Node000004" class="edge">
<title>Node7&#45;&gt;Node4</title>
<g id="a_edge10_Node000007_Node000004"><a xlink:title=" ">
<path fill="none" stroke="#63b8ff" d="M642.26,-122.01C636.71,-104 626.51,-80.09 609,-66 572.3,-36.47 520.8,-23.97 478.48,-18.85"/>
<polygon fill="#63b8ff" stroke="#63b8ff" points="638.94,-123.14 645.01,-131.82 645.68,-121.25 638.94,-123.14"/>
</a>
</g>
</g>
<!-- Node7&#45;&gt;Node8 -->
<g id="edge11_Node000007_Node000008" class="edge">
<title>Node7&#45;&gt;Node8</title>
<g id="a_edge11_Node000007_Node000008"><a xlink:title=" ">
<path fill="none" stroke="#63b8ff" d="M679.14,-126.65C698.54,-114.6 722.53,-99.69 737.29,-90.52"/>
<polygon fill="#63b8ff" stroke="#63b8ff" points="677.25,-123.7 670.6,-131.95 680.94,-129.65 677.25,-123.7"/>
</a>
</g>
</g>
<!-- Node10&#45;&gt;Node4 -->
<g id="edge14_Node000010_Node000004" class="edge">
<title>Node10&#45;&gt;Node4</title>
<g id="a_edge14_Node000010_Node000004"><a xlink:title=" ">
<path fill="none" stroke="#63b8ff" d="M461.04,-123.86C454.29,-115.43 446.9,-105.56 441,-96 427.43,-74.02 415.31,-46.43 408.57,-30.07"/>
<polygon fill="#63b8ff" stroke="#63b8ff" points="458.46,-126.23 467.51,-131.74 463.87,-121.79 458.46,-126.23"/>
</a>
</g>
</g>
<!-- Node10&#45;&gt;Node5 -->
<g id="edge15_Node000010_Node000005" class="edge">
<title>Node10&#45;&gt;Node5</title>
<g id="a_edge15_Node000010_Node000005"><a xlink:title=" ">
<path fill="none" stroke="#63b8ff" d="M426.69,-128.86C394.74,-118.58 354.62,-105.68 324.57,-96.01"/>
<polygon fill="#63b8ff" stroke="#63b8ff" points="425.74,-132.23 436.33,-131.95 427.88,-125.56 425.74,-132.23"/>
</a>
</g>
</g>
<!-- Node11 -->
<g id="Node000011" class="node">
<title>Node11</title>
<g id="a_Node000011"><a xlink:href="vps_8cpp.html" target="_top" xlink:title=" ">
<polygon fill="white" stroke="#666666" points="600,-96 450,-96 450,-66 600,-66 600,-96"/>
<text text-anchor="start" x="458" y="-84" font-family="Helvetica,sans-Serif" font-size="10.00">src/lib/bitstreamGeneration</text>
<text text-anchor="middle" x="525" y="-73" font-family="Helvetica,sans-Serif" font-size="10.00">/vps.cpp</text>
</a>
</g>
</g>
<!-- Node10&#45;&gt;Node11 -->
<g id="edge16_Node000010_Node000011" class="edge">
<title>Node10&#45;&gt;Node11</title>
<g id="a_edge16_Node000010_Node000011"><a xlink:title=" ">
<path fill="none" stroke="#63b8ff" d="M495.8,-123.53C502.2,-114.43 509.39,-104.19 515.04,-96.16"/>
<polygon fill="#63b8ff" stroke="#63b8ff" points="492.88,-121.6 489.99,-131.8 498.6,-125.63 492.88,-121.6"/>
</a>
</g>
</g>
<!-- Node24&#45;&gt;Node8 -->
<g id="edge31_Node000024_Node000008" class="edge">
<title>Node24&#45;&gt;Node8</title>
<g id="a_edge31_Node000024_Node000008"><a xlink:title=" ">
<path fill="none" stroke="#63b8ff" d="M821.15,-131.33C803.3,-118.78 778.2,-101.13 763.37,-90.7"/>
<polygon fill="#63b8ff" stroke="#63b8ff" points="819.53,-134.48 829.73,-137.37 823.56,-128.75 819.53,-134.48"/>
</a>
</g>
</g>
<!-- Node24&#45;&gt;Node23 -->
<g id="edge30_Node000024_Node000023" class="edge">
<title>Node24&#45;&gt;Node23</title>
<g id="a_edge30_Node000024_Node000023"><a xlink:title=" ">
<path fill="none" stroke="#63b8ff" d="M858.65,-130.33C871.81,-117.94 889.72,-101.09 900.54,-90.91"/>
<polygon fill="#63b8ff" stroke="#63b8ff" points="856.05,-127.97 851.17,-137.37 860.85,-133.06 856.05,-127.97"/>
</a>
</g>
</g>
</g>
</svg>

<g id="navigator" transform="translate(0 0)" fill="#404254">
  <rect fill="#f2f5e9" fill-opacity="0.5" stroke="#606060" stroke-width=".5" x="0" y="0" width="60" height="60"/>
  <use id="zoomplus" xlink:href="#zoomPlus" x="17" y="9" onmousedown="handleZoom(evt,'in')"/>
  <use id="zoomminus" xlink:href="#zoomMin" x="42" y="9" onmousedown="handleZoom(evt,'out')"/>
  <use id="reset" xlink:href="#resetDef" x="30" y="36" onmousedown="handleReset()"/>
   <use id="arrowup" xlink:href="#arrowUp" x="0" y="0" onmousedown="handlePan(0,-1)"/>
  <use id="arrowright" xlink:href="#arrowRight" x="0" y="0" onmousedown="handlePan(1,0)"/>
  <use id="arrowdown" xlink:href="#arrowDown" x="0" y="0" onmousedown="handlePan(0,1)"/>
  <use id="arrowleft" xlink:href="#arrowLeft" x="0" y="0" onmousedown="handlePan(-1,0)"/>
</g>
<svg viewBox="0 0 15 15" width="100%" height="30px" preserveAspectRatio="xMaxYMin meet">
 <g id="arrow_out" transform="scale(0.3 0.3)">
  <a xlink:href="parameters_8hpp__dep__incl_org.svg" target="_base">
   <rect id="button" ry="5" rx="5" y="6" x="6" height="38" width="38"
        fill="#f2f5e9" fill-opacity="0.5" stroke="#606060" stroke-width="1.0"/>
   <path id="arrow"
     d="M 11.500037,31.436501 C 11.940474,20.09759 22.043105,11.32322 32.158766,21.979434 L 37.068811,17.246167 C 37.068811,17.246167 37.088388,32 37.088388,32 L 22.160133,31.978069 C 22.160133,31.978069 26.997745,27.140456 26.997745,27.140456 C 18.528582,18.264221 13.291696,25.230495 11.500037,31.436501 z"
     style="fill:#404040;"/>
  </a>
 </g>
</svg>

<style type='text/css'>
<![CDATA[
[data-mouse-over-selected='false'] { opacity: 0.7; }
[data-mouse-over-selected='true']  { opacity: 1.0; }
]]>
</style>
<script type="application/ecmascript"><![CDATA[
document.addEventListener('DOMContentLoaded', (event) => {
  highlightEdges();
  highlightAdjacentNodes();
});
]]></script>
</svg>
