<?xml version="1.0" encoding="UTF-8" standalone="no"?>
<!DOCTYPE svg PUBLIC "-//W3C//DTD SVG 1.1//EN"
 "http://www.w3.org/Graphics/SVG/1.1/DTD/svg11.dtd">
<!-- Generated by graphviz version 2.43.0 (0)
 -->
<!-- Title: src/libuvgvpccenc/utils/parameters.cpp Pages: 1 -->
<svg width="1133pt" height="258pt"
 viewBox="0.00 0.00 1133.00 258.00" xmlns="http://www.w3.org/2000/svg" xmlns:xlink="http://www.w3.org/1999/xlink">
<g id="graph0" class="graph" transform="scale(1 1) rotate(0) translate(4 254)">
<title>src/libuvgvpccenc/utils/parameters.cpp</title>
<!-- Node1 -->
<g id="Node000001" class="node">
<title>Node1</title>
<g id="a_Node000001"><a xlink:title=" ">
<polygon fill="#999999" stroke="#666666" points="617.5,-250 489.5,-250 489.5,-220 617.5,-220 617.5,-250"/>
<text text-anchor="start" x="497.5" y="-238" font-family="Helvetica,sans-Serif" font-size="10.00">src/libuvgvpccenc/utils</text>
<text text-anchor="middle" x="553.5" y="-227" font-family="Helvetica,sans-Serif" font-size="10.00">/parameters.cpp</text>
</a>
</g>
</g>
<!-- Node2 -->
<g id="Node000002" class="node">
<title>Node2</title>
<g id="a_Node000002"><a xlink:href="parameters_8hpp.html" target="_top" xlink:title=" ">
<polygon fill="white" stroke="#666666" points="309.5,-184 215.5,-184 215.5,-165 309.5,-165 309.5,-184"/>
<text text-anchor="middle" x="262.5" y="-172" font-family="Helvetica,sans-Serif" font-size="10.00">parameters.hpp</text>
</a>
</g>
</g>
<!-- Node1&#45;&gt;Node2 -->
<g id="edge1_Node000001_Node000002" class="edge">
<title>Node1&#45;&gt;Node2</title>
<g id="a_edge1_Node000001_Node000002"><a xlink:title=" ">
<path fill="none" stroke="#63b8ff" d="M489.28,-221.09C436.93,-210.57 363.92,-195.89 315.02,-186.06"/>
<polygon fill="#63b8ff" stroke="#63b8ff" points="315.46,-182.58 304.97,-184.04 314.08,-189.44 315.46,-182.58"/>
</a>
</g>
</g>
<!-- Node3 -->
<g id="Node000003" class="node">
<title>Node3</title>
<g id="a_Node000003"><a xlink:title=" ">
<polygon fill="#e0e0e0" stroke="#999999" points="53,-74 0,-74 0,-55 53,-55 53,-74"/>
<text text-anchor="middle" x="26.5" y="-62" font-family="Helvetica,sans-Serif" font-size="10.00">cstddef</text>
</a>
</g>
</g>
<!-- Node1&#45;&gt;Node3 -->
<g id="edge22_Node000001_Node000003" class="edge">
<title>Node1&#45;&gt;Node3</title>
<g id="a_edge22_Node000001_Node000003"><a xlink:title=" ">
<path fill="none" stroke="#63b8ff" d="M489.31,-232.47C410.5,-229.08 273.51,-218.29 161.5,-184 109.61,-168.12 89.33,-168.85 52.5,-129 40.89,-116.44 34.12,-97.99 30.42,-84.21"/>
<polygon fill="#63b8ff" stroke="#63b8ff" points="33.8,-83.28 28.07,-74.36 26.99,-84.9 33.8,-83.28"/>
</a>
</g>
</g>
<!-- Node4 -->
<g id="Node000004" class="node">
<title>Node4</title>
<g id="a_Node000004"><a xlink:title=" ">
<polygon fill="#e0e0e0" stroke="#999999" points="127,-129 62,-129 62,-110 127,-110 127,-129"/>
<text text-anchor="middle" x="94.5" y="-117" font-family="Helvetica,sans-Serif" font-size="10.00">stdexcept</text>
</a>
</g>
</g>
<!-- Node1&#45;&gt;Node4 -->
<g id="edge29_Node000001_Node000004" class="edge">
<title>Node1&#45;&gt;Node4</title>
<g id="a_edge29_Node000001_Node000004"><a xlink:title=" ">
<path fill="none" stroke="#63b8ff" d="M489.48,-231.87C418.56,-227.9 301.67,-216.54 206.5,-184 172.08,-172.23 136.16,-149.76 114.55,-134.95"/>
<polygon fill="#63b8ff" stroke="#63b8ff" points="116.42,-131.99 106.22,-129.13 112.41,-137.73 116.42,-131.99"/>
</a>
</g>
</g>
<!-- Node5 -->
<g id="Node000005" class="node">
<title>Node5</title>
<g id="a_Node000005"><a xlink:title=" ">
<polygon fill="#e0e0e0" stroke="#999999" points="497.5,-19 453.5,-19 453.5,0 497.5,0 497.5,-19"/>
<text text-anchor="middle" x="475.5" y="-7" font-family="Helvetica,sans-Serif" font-size="10.00">string</text>
</a>
</g>
</g>
<!-- Node1&#45;&gt;Node5 -->
<g id="edge30_Node000001_Node000005" class="edge">
<title>Node1&#45;&gt;Node5</title>
<g id="a_edge30_Node000001_Node000005"><a xlink:title=" ">
<path fill="none" stroke="#63b8ff" d="M538.88,-219.99C529.95,-210.62 519.02,-197.56 512.5,-184 487.3,-131.62 479.14,-62.16 476.6,-29.29"/>
<polygon fill="#63b8ff" stroke="#63b8ff" points="480.09,-29.01 475.92,-19.27 473.11,-29.49 480.09,-29.01"/>
</a>
</g>
</g>
<!-- Node6 -->
<g id="Node000006" class="node">
<title>Node6</title>
<g id="a_Node000006"><a xlink:title=" ">
<polygon fill="#e0e0e0" stroke="#999999" points="389,-129 342,-129 342,-110 389,-110 389,-129"/>
<text text-anchor="middle" x="365.5" y="-117" font-family="Helvetica,sans-Serif" font-size="10.00">vector</text>
</a>
</g>
</g>
<!-- Node1&#45;&gt;Node6 -->
<g id="edge32_Node000001_Node000006" class="edge">
<title>Node1&#45;&gt;Node6</title>
<g id="a_edge32_Node000001_Node000006"><a xlink:title=" ">
<path fill="none" stroke="#63b8ff" d="M489.14,-223.1C460.6,-215.76 428.01,-203.68 403.5,-184 388.81,-172.2 378.48,-153.09 372.34,-138.91"/>
<polygon fill="#63b8ff" stroke="#63b8ff" points="375.43,-137.21 368.45,-129.23 368.93,-139.81 375.43,-137.21"/>
</a>
</g>
</g>
<!-- Node11 -->
<g id="Node000011" class="node">
<title>Node11</title>
<g id="a_Node000011"><a xlink:title=" ">
<polygon fill="#e0e0e0" stroke="#999999" points="465.5,-74 421.5,-74 421.5,-55 465.5,-55 465.5,-74"/>
<text text-anchor="middle" x="443.5" y="-62" font-family="Helvetica,sans-Serif" font-size="10.00">limits</text>
</a>
</g>
</g>
<!-- Node1&#45;&gt;Node11 -->
<g id="edge26_Node000001_Node000011" class="edge">
<title>Node1&#45;&gt;Node11</title>
<g id="a_edge26_Node000001_Node000011"><a xlink:title=" ">
<path fill="none" stroke="#63b8ff" d="M523.5,-219.96C508.35,-211.49 490.82,-199.34 479.5,-184 457.13,-153.68 448.51,-109.34 445.31,-84.38"/>
<polygon fill="#63b8ff" stroke="#63b8ff" points="448.75,-83.67 444.16,-74.12 441.79,-84.45 448.75,-83.67"/>
</a>
</g>
</g>
<!-- Node13 -->
<g id="Node000013" class="node">
<title>Node13</title>
<g id="a_Node000013"><a xlink:href="log_8hpp.html" target="_top" xlink:title=" ">
<polygon fill="white" stroke="#666666" points="365,-74 312,-74 312,-55 365,-55 365,-74"/>
<text text-anchor="middle" x="338.5" y="-62" font-family="Helvetica,sans-Serif" font-size="10.00">log.hpp</text>
</a>
</g>
</g>
<!-- Node1&#45;&gt;Node13 -->
<g id="edge33_Node000001_Node000013" class="edge">
<title>Node1&#45;&gt;Node13</title>
<g id="a_edge33_Node000001_Node000013"><a xlink:title=" ">
<path fill="none" stroke="#63b8ff" d="M522.28,-219.98C504.16,-211.06 481.45,-198.47 463.5,-184 429.42,-156.52 430.71,-139.65 398.5,-110 386.64,-99.08 372.15,-88.27 360.38,-80.04"/>
<polygon fill="#63b8ff" stroke="#63b8ff" points="362.23,-77.06 352,-74.29 358.27,-82.84 362.23,-77.06"/>
</a>
</g>
</g>
<!-- Node18 -->
<g id="Node000018" class="node">
<title>Node18</title>
<g id="a_Node000018"><a xlink:title=" ">
<polygon fill="#e0e0e0" stroke="#999999" points="585.5,-184 521.5,-184 521.5,-165 585.5,-165 585.5,-184"/>
<text text-anchor="middle" x="553.5" y="-172" font-family="Helvetica,sans-Serif" font-size="10.00">algorithm</text>
</a>
</g>
</g>
<!-- Node1&#45;&gt;Node18 -->
<g id="edge20_Node000001_Node000018" class="edge">
<title>Node1&#45;&gt;Node18</title>
<g id="a_edge20_Node000001_Node000018"><a xlink:title=" ">
<path fill="none" stroke="#63b8ff" d="M553.5,-219.84C553.5,-212.21 553.5,-202.7 553.5,-194.45"/>
<polygon fill="#63b8ff" stroke="#63b8ff" points="557,-194.27 553.5,-184.27 550,-194.27 557,-194.27"/>
</a>
</g>
</g>
<!-- Node19 -->
<g id="Node000019" class="node">
<title>Node19</title>
<g id="a_Node000019"><a xlink:title=" ">
<polygon fill="#e0e0e0" stroke="#999999" points="655.5,-184 603.5,-184 603.5,-165 655.5,-165 655.5,-184"/>
<text text-anchor="middle" x="629.5" y="-172" font-family="Helvetica,sans-Serif" font-size="10.00">cassert</text>
</a>
</g>
</g>
<!-- Node1&#45;&gt;Node19 -->
<g id="edge21_Node000001_Node000019" class="edge">
<title>Node1&#45;&gt;Node19</title>
<g id="a_edge21_Node000001_Node000019"><a xlink:title=" ">
<path fill="none" stroke="#63b8ff" d="M571.9,-219.84C583.38,-211 598.15,-199.63 609.86,-190.62"/>
<polygon fill="#63b8ff" stroke="#63b8ff" points="612.32,-193.14 618.11,-184.27 608.05,-187.59 612.32,-193.14"/>
</a>
</g>
</g>
<!-- Node20 -->
<g id="Node000020" class="node">
<title>Node20</title>
<g id="a_Node000020"><a xlink:title=" ">
<polygon fill="#e0e0e0" stroke="#999999" points="723,-184 674,-184 674,-165 723,-165 723,-184"/>
<text text-anchor="middle" x="698.5" y="-172" font-family="Helvetica,sans-Serif" font-size="10.00">cstdlib</text>
</a>
</g>
</g>
<!-- Node1&#45;&gt;Node20 -->
<g id="edge23_Node000001_Node000020" class="edge">
<title>Node1&#45;&gt;Node20</title>
<g id="a_edge23_Node000001_Node000020"><a xlink:title=" ">
<path fill="none" stroke="#63b8ff" d="M588.23,-219.99C612.42,-210.23 644.4,-197.33 667.69,-187.93"/>
<polygon fill="#63b8ff" stroke="#63b8ff" points="669.12,-191.13 677.09,-184.14 666.5,-184.63 669.12,-191.13"/>
</a>
</g>
</g>
<!-- Node21 -->
<g id="Node000021" class="node">
<title>Node21</title>
<g id="a_Node000021"><a xlink:title=" ">
<polygon fill="#e0e0e0" stroke="#999999" points="806,-184 741,-184 741,-165 806,-165 806,-184"/>
<text text-anchor="middle" x="773.5" y="-172" font-family="Helvetica,sans-Serif" font-size="10.00">exception</text>
</a>
</g>
</g>
<!-- Node1&#45;&gt;Node21 -->
<g id="edge24_Node000001_Node000021" class="edge">
<title>Node1&#45;&gt;Node21</title>
<g id="a_edge24_Node000001_Node000021"><a xlink:title=" ">
<path fill="none" stroke="#63b8ff" d="M606.2,-219.99C644.49,-209.8 695.64,-196.2 731.27,-186.73"/>
<polygon fill="#63b8ff" stroke="#63b8ff" points="732.57,-190.01 741.33,-184.05 730.77,-183.24 732.57,-190.01"/>
</a>
</g>
</g>
<!-- Node22 -->
<g id="Node000022" class="node">
<title>Node22</title>
<g id="a_Node000022"><a xlink:title=" ">
<polygon fill="#e0e0e0" stroke="#999999" points="877,-184 824,-184 824,-165 877,-165 877,-184"/>
<text text-anchor="middle" x="850.5" y="-172" font-family="Helvetica,sans-Serif" font-size="10.00">iterator</text>
</a>
</g>
</g>
<!-- Node1&#45;&gt;Node22 -->
<g id="edge25_Node000001_Node000022" class="edge">
<title>Node1&#45;&gt;Node22</title>
<g id="a_edge25_Node000001_Node000022"><a xlink:title=" ">
<path fill="none" stroke="#63b8ff" d="M617.75,-222.66C668.51,-213.49 741.39,-199.86 813.6,-184.34"/>
<polygon fill="#63b8ff" stroke="#63b8ff" points="814.74,-187.67 823.78,-182.13 813.26,-180.83 814.74,-187.67"/>
</a>
</g>
</g>
<!-- Node23 -->
<g id="Node000023" class="node">
<title>Node23</title>
<g id="a_Node000023"><a xlink:title=" ">
<polygon fill="#e0e0e0" stroke="#999999" points="951.5,-184 895.5,-184 895.5,-165 951.5,-165 951.5,-184"/>
<text text-anchor="middle" x="923.5" y="-172" font-family="Helvetica,sans-Serif" font-size="10.00">numeric</text>
</a>
</g>
</g>
<!-- Node1&#45;&gt;Node23 -->
<g id="edge27_Node000001_Node000023" class="edge">
<title>Node1&#45;&gt;Node23</title>
<g id="a_edge27_Node000001_Node000023"><a xlink:title=" ">
<path fill="none" stroke="#63b8ff" d="M617.58,-225.86C682.65,-217.27 786.49,-202.63 885.4,-184.09"/>
<polygon fill="#63b8ff" stroke="#63b8ff" points="886.09,-187.52 895.27,-182.22 884.79,-180.64 886.09,-187.52"/>
</a>
</g>
</g>
<!-- Node24 -->
<g id="Node000024" class="node">
<title>Node24</title>
<g id="a_Node000024"><a xlink:title=" ">
<polygon fill="#e0e0e0" stroke="#999999" points="1013.5,-184 969.5,-184 969.5,-165 1013.5,-165 1013.5,-184"/>
<text text-anchor="middle" x="991.5" y="-172" font-family="Helvetica,sans-Serif" font-size="10.00">regex</text>
</a>
</g>
</g>
<!-- Node1&#45;&gt;Node24 -->
<g id="edge28_Node000001_Node000024" class="edge">
<title>Node1&#45;&gt;Node24</title>
<g id="a_edge28_Node000001_Node000024"><a xlink:title=" ">
<path fill="none" stroke="#63b8ff" d="M617.75,-229.01C696.31,-222.27 833.36,-208.41 959.41,-183.95"/>
<polygon fill="#63b8ff" stroke="#63b8ff" points="960.1,-187.38 969.24,-182.02 958.75,-180.52 960.1,-187.38"/>
</a>
</g>
</g>
<!-- Node25 -->
<g id="Node000025" class="node">
<title>Node25</title>
<g id="a_Node000025"><a xlink:title=" ">
<polygon fill="#e0e0e0" stroke="#999999" points="1125,-184 1032,-184 1032,-165 1125,-165 1125,-184"/>
<text text-anchor="middle" x="1078.5" y="-172" font-family="Helvetica,sans-Serif" font-size="10.00">unordered_map</text>
</a>
</g>
</g>
<!-- Node1&#45;&gt;Node25 -->
<g id="edge31_Node000001_Node000025" class="edge">
<title>Node1&#45;&gt;Node25</title>
<g id="a_edge31_Node000001_Node000025"><a xlink:title=" ">
<path fill="none" stroke="#63b8ff" d="M617.71,-228.07C706.2,-219.68 870.88,-203.36 1021.85,-184.03"/>
<polygon fill="#63b8ff" stroke="#63b8ff" points="1022.3,-187.5 1031.77,-182.75 1021.41,-180.56 1022.3,-187.5"/>
</a>
</g>
</g>
<!-- Node2&#45;&gt;Node3 -->
<g id="edge2_Node000002_Node000003" class="edge">
<title>Node2&#45;&gt;Node3</title>
<g id="a_edge2_Node000002_Node000003"><a xlink:title=" ">
<path fill="none" stroke="#63b8ff" d="M245.68,-165C213.71,-148.86 146.39,-114.94 135.5,-110 109.83,-98.36 80.19,-86.35 58.31,-77.75"/>
<polygon fill="#63b8ff" stroke="#63b8ff" points="59.43,-74.43 48.84,-74.05 56.88,-80.95 59.43,-74.43"/>
</a>
</g>
</g>
<!-- Node2&#45;&gt;Node4 -->
<g id="edge3_Node000002_Node000004" class="edge">
<title>Node2&#45;&gt;Node4</title>
<g id="a_edge3_Node000002_Node000004"><a xlink:title=" ">
<path fill="none" stroke="#63b8ff" d="M235.51,-164.98C207.3,-156.09 162.86,-142.07 131.42,-132.15"/>
<polygon fill="#63b8ff" stroke="#63b8ff" points="132.29,-128.75 121.7,-129.08 130.19,-135.43 132.29,-128.75"/>
</a>
</g>
</g>
<!-- Node2&#45;&gt;Node5 -->
<g id="edge4_Node000002_Node000005" class="edge">
<title>Node2&#45;&gt;Node5</title>
<g id="a_edge4_Node000002_Node000005"><a xlink:title=" ">
<path fill="none" stroke="#63b8ff" d="M271.39,-164.92C284.55,-152.37 310.18,-128.5 333.5,-110 374.4,-77.57 425.04,-43.42 453.46,-24.76"/>
<polygon fill="#63b8ff" stroke="#63b8ff" points="455.75,-27.45 462.2,-19.05 451.92,-21.59 455.75,-27.45"/>
</a>
</g>
</g>
<!-- Node2&#45;&gt;Node6 -->
<g id="edge5_Node000002_Node000006" class="edge">
<title>Node2&#45;&gt;Node6</title>
<g id="a_edge5_Node000002_Node000006"><a xlink:title=" ">
<path fill="none" stroke="#63b8ff" d="M279.05,-164.98C295.39,-156.57 320.63,-143.59 339.63,-133.81"/>
<polygon fill="#63b8ff" stroke="#63b8ff" points="341.36,-136.86 348.65,-129.17 338.16,-130.63 341.36,-136.86"/>
</a>
</g>
</g>
<!-- Node7 -->
<g id="Node000007" class="node">
<title>Node7</title>
<g id="a_Node000007"><a xlink:href="utils_8hpp.html" target="_top" xlink:title=" ">
<polygon fill="white" stroke="#666666" points="285,-129 184,-129 184,-110 285,-110 285,-129"/>
<text text-anchor="middle" x="234.5" y="-117" font-family="Helvetica,sans-Serif" font-size="10.00">uvgutils/utils.hpp</text>
</a>
</g>
</g>
<!-- Node2&#45;&gt;Node7 -->
<g id="edge6_Node000002_Node000007" class="edge">
<title>Node2&#45;&gt;Node7</title>
<g id="a_edge6_Node000002_Node000007"><a xlink:title=" ">
<path fill="none" stroke="#63b8ff" d="M257.88,-164.75C254.04,-157.49 248.48,-146.95 243.74,-137.98"/>
<polygon fill="#63b8ff" stroke="#63b8ff" points="246.8,-136.3 239.04,-129.09 240.61,-139.57 246.8,-136.3"/>
</a>
</g>
</g>
<!-- Node7&#45;&gt;Node3 -->
<g id="edge8_Node000007_Node000003" class="edge">
<title>Node7&#45;&gt;Node3</title>
<g id="a_edge8_Node000007_Node000003"><a xlink:title=" ">
<path fill="none" stroke="#63b8ff" d="M201.08,-109.98C163.34,-100.37 102.12,-84.77 63.12,-74.83"/>
<polygon fill="#63b8ff" stroke="#63b8ff" points="63.78,-71.39 53.22,-72.31 62.05,-78.17 63.78,-71.39"/>
</a>
</g>
</g>
<!-- Node8 -->
<g id="Node000008" class="node">
<title>Node8</title>
<g id="a_Node000008"><a xlink:title=" ">
<polygon fill="#e0e0e0" stroke="#999999" points="225.5,-74 183.5,-74 183.5,-55 225.5,-55 225.5,-74"/>
<text text-anchor="middle" x="204.5" y="-62" font-family="Helvetica,sans-Serif" font-size="10.00">array</text>
</a>
</g>
</g>
<!-- Node7&#45;&gt;Node8 -->
<g id="edge7_Node000007_Node000008" class="edge">
<title>Node7&#45;&gt;Node8</title>
<g id="a_edge7_Node000007_Node000008"><a xlink:title=" ">
<path fill="none" stroke="#63b8ff" d="M229.55,-109.75C225.44,-102.49 219.47,-91.95 214.4,-82.98"/>
<polygon fill="#63b8ff" stroke="#63b8ff" points="217.33,-81.07 209.36,-74.09 211.24,-84.52 217.33,-81.07"/>
</a>
</g>
</g>
<!-- Node9 -->
<g id="Node000009" class="node">
<title>Node9</title>
<g id="a_Node000009"><a xlink:title=" ">
<polygon fill="#e0e0e0" stroke="#999999" points="293.5,-74 243.5,-74 243.5,-55 293.5,-55 293.5,-74"/>
<text text-anchor="middle" x="268.5" y="-62" font-family="Helvetica,sans-Serif" font-size="10.00">cstdint</text>
</a>
</g>
</g>
<!-- Node7&#45;&gt;Node9 -->
<g id="edge9_Node000007_Node000009" class="edge">
<title>Node7&#45;&gt;Node9</title>
<g id="a_edge9_Node000007_Node000009"><a xlink:title=" ">
<path fill="none" stroke="#63b8ff" d="M240.11,-109.75C244.82,-102.42 251.67,-91.73 257.47,-82.7"/>
<polygon fill="#63b8ff" stroke="#63b8ff" points="260.54,-84.4 262.99,-74.09 254.64,-80.62 260.54,-84.4"/>
</a>
</g>
</g>
<!-- Node10 -->
<g id="Node000010" class="node">
<title>Node10</title>
<g id="a_Node000010"><a xlink:title=" ">
<polygon fill="#e0e0e0" stroke="#999999" points="130.5,-19 74.5,-19 74.5,0 130.5,0 130.5,-19"/>
<text text-anchor="middle" x="102.5" y="-7" font-family="Helvetica,sans-Serif" font-size="10.00">iomanip</text>
</a>
</g>
</g>
<!-- Node7&#45;&gt;Node10 -->
<g id="edge10_Node000007_Node000010" class="edge">
<title>Node7&#45;&gt;Node10</title>
<g id="a_edge10_Node000007_Node000010"><a xlink:title=" ">
<path fill="none" stroke="#63b8ff" d="M191.86,-109.99C156.9,-102.05 111.44,-89.16 100.5,-74 91.23,-61.16 92.99,-42.74 96.32,-29.04"/>
<polygon fill="#63b8ff" stroke="#63b8ff" points="99.73,-29.85 99.15,-19.27 93.01,-27.9 99.73,-29.85"/>
</a>
</g>
</g>
<!-- Node7&#45;&gt;Node11 -->
<g id="edge11_Node000007_Node000011" class="edge">
<title>Node7&#45;&gt;Node11</title>
<g id="a_edge11_Node000007_Node000011"><a xlink:title=" ">
<path fill="none" stroke="#63b8ff" d="M268.08,-109.98C307.59,-99.97 372.71,-83.45 411.51,-73.61"/>
<polygon fill="#63b8ff" stroke="#63b8ff" points="412.42,-76.99 421.25,-71.14 410.7,-70.21 412.42,-76.99"/>
</a>
</g>
</g>
<!-- Node12 -->
<g id="Node000012" class="node">
<title>Node12</title>
<g id="a_Node000012"><a xlink:title=" ">
<polygon fill="#e0e0e0" stroke="#999999" points="165.5,-74 109.5,-74 109.5,-55 165.5,-55 165.5,-74"/>
<text text-anchor="middle" x="137.5" y="-62" font-family="Helvetica,sans-Serif" font-size="10.00">sstream</text>
</a>
</g>
</g>
<!-- Node7&#45;&gt;Node12 -->
<g id="edge12_Node000007_Node000012" class="edge">
<title>Node7&#45;&gt;Node12</title>
<g id="a_edge12_Node000007_Node000012"><a xlink:title=" ">
<path fill="none" stroke="#63b8ff" d="M218.92,-109.98C203.73,-101.69 180.4,-88.94 162.6,-79.22"/>
<polygon fill="#63b8ff" stroke="#63b8ff" points="163.82,-75.89 153.37,-74.17 160.47,-82.04 163.82,-75.89"/>
</a>
</g>
</g>
<!-- Node7&#45;&gt;Node13 -->
<g id="edge13_Node000007_Node000013" class="edge">
<title>Node7&#45;&gt;Node13</title>
<g id="a_edge13_Node000007_Node000013"><a xlink:title=" ">
<path fill="none" stroke="#63b8ff" d="M251.21,-109.98C267.71,-101.57 293.2,-88.59 312.38,-78.81"/>
<polygon fill="#63b8ff" stroke="#63b8ff" points="314.17,-81.83 321.49,-74.17 310.99,-75.59 314.17,-81.83"/>
</a>
</g>
</g>
<!-- Node13&#45;&gt;Node5 -->
<g id="edge19_Node000013_Node000005" class="edge">
<title>Node13&#45;&gt;Node5</title>
<g id="a_edge19_Node000013_Node000005"><a xlink:title=" ">
<path fill="none" stroke="#63b8ff" d="M360.51,-54.98C382.95,-46.3 417.98,-32.75 443.49,-22.88"/>
<polygon fill="#63b8ff" stroke="#63b8ff" points="445.02,-26.04 453.09,-19.17 442.5,-19.51 445.02,-26.04"/>
</a>
</g>
</g>
<!-- Node13&#45;&gt;Node10 -->
<g id="edge16_Node000013_Node000010" class="edge">
<title>Node13&#45;&gt;Node10</title>
<g id="a_edge16_Node000013_Node000010"><a xlink:title=" ">
<path fill="none" stroke="#63b8ff" d="M311.77,-57.15C308.65,-56.42 305.5,-55.69 302.5,-55 246.21,-42.09 180.87,-27.66 140.6,-18.82"/>
<polygon fill="#63b8ff" stroke="#63b8ff" points="141.2,-15.37 130.68,-16.65 139.7,-22.21 141.2,-15.37"/>
</a>
</g>
</g>
<!-- Node14 -->
<g id="Node000014" class="node">
<title>Node14</title>
<g id="a_Node000014"><a xlink:title=" ">
<polygon fill="#e0e0e0" stroke="#999999" points="363.5,-19 313.5,-19 313.5,0 363.5,0 363.5,-19"/>
<text text-anchor="middle" x="338.5" y="-7" font-family="Helvetica,sans-Serif" font-size="10.00">chrono</text>
</a>
</g>
</g>
<!-- Node13&#45;&gt;Node14 -->
<g id="edge14_Node000013_Node000014" class="edge">
<title>Node13&#45;&gt;Node14</title>
<g id="a_edge14_Node000013_Node000014"><a xlink:title=" ">
<path fill="none" stroke="#63b8ff" d="M338.5,-54.75C338.5,-47.8 338.5,-37.85 338.5,-29.13"/>
<polygon fill="#63b8ff" stroke="#63b8ff" points="342,-29.09 338.5,-19.09 335,-29.09 342,-29.09"/>
</a>
</g>
</g>
<!-- Node15 -->
<g id="Node000015" class="node">
<title>Node15</title>
<g id="a_Node000015"><a xlink:title=" ">
<polygon fill="#e0e0e0" stroke="#999999" points="435,-19 382,-19 382,0 435,0 435,-19"/>
<text text-anchor="middle" x="408.5" y="-7" font-family="Helvetica,sans-Serif" font-size="10.00">cstdarg</text>
</a>
</g>
</g>
<!-- Node13&#45;&gt;Node15 -->
<g id="edge15_Node000013_Node000015" class="edge">
<title>Node13&#45;&gt;Node15</title>
<g id="a_edge15_Node000013_Node000015"><a xlink:title=" ">
<path fill="none" stroke="#63b8ff" d="M349.75,-54.98C360.3,-47 376.3,-34.88 388.94,-25.31"/>
<polygon fill="#63b8ff" stroke="#63b8ff" points="391.19,-28 397.05,-19.17 386.96,-22.42 391.19,-28"/>
</a>
</g>
</g>
<!-- Node16 -->
<g id="Node000016" class="node">
<title>Node16</title>
<g id="a_Node000016"><a xlink:title=" ">
<polygon fill="#e0e0e0" stroke="#999999" points="229.5,-19 169.5,-19 169.5,0 229.5,0 229.5,-19"/>
<text text-anchor="middle" x="199.5" y="-7" font-family="Helvetica,sans-Serif" font-size="10.00">iostream</text>
</a>
</g>
</g>
<!-- Node13&#45;&gt;Node16 -->
<g id="edge17_Node000013_Node000016" class="edge">
<title>Node13&#45;&gt;Node16</title>
<g id="a_edge17_Node000013_Node000016"><a xlink:title=" ">
<path fill="none" stroke="#63b8ff" d="M316.17,-54.98C293.3,-46.27 257.54,-32.63 231.64,-22.75"/>
<polygon fill="#63b8ff" stroke="#63b8ff" points="232.83,-19.46 222.24,-19.17 230.34,-26 232.83,-19.46"/>
</a>
</g>
</g>
<!-- Node17 -->
<g id="Node000017" class="node">
<title>Node17</title>
<g id="a_Node000017"><a xlink:title=" ">
<polygon fill="#e0e0e0" stroke="#999999" points="295.5,-19 247.5,-19 247.5,0 295.5,0 295.5,-19"/>
<text text-anchor="middle" x="271.5" y="-7" font-family="Helvetica,sans-Serif" font-size="10.00">mutex</text>
</a>
</g>
</g>
<!-- Node13&#45;&gt;Node17 -->
<g id="edge18_Node000013_Node000017" class="edge">
<title>Node13&#45;&gt;Node17</title>
<g id="a_edge18_Node000013_Node000017"><a xlink:title=" ">
<path fill="none" stroke="#63b8ff" d="M327.74,-54.98C317.73,-47.07 302.61,-35.11 290.57,-25.58"/>
<polygon fill="#63b8ff" stroke="#63b8ff" points="292.47,-22.63 282.46,-19.17 288.13,-28.12 292.47,-22.63"/>
</a>
</g>
</g>
</g>
</svg>
