<?xml version="1.0" encoding="UTF-8" standalone="no"?>
<!DOCTYPE svg PUBLIC "-//W3C//DTD SVG 1.1//EN"
 "http://www.w3.org/Graphics/SVG/1.1/DTD/svg11.dtd">
<!-- Generated by graphviz version 2.43.0 (0)
 -->
<!-- Title: src/lib/utils/parameters.hpp Pages: 1 -->
<!--zoomable 225 -->

<svg id="main" version="1.1" xmlns="http://www.w3.org/2000/svg" xmlns:xlink="http://www.w3.org/1999/xlink" xml:space="preserve" onload="init(evt)">
<style type="text/css"><![CDATA[
.node, .edge {opacity: 0.7;}
.node.selected, .edge.selected {opacity: 1;}
.edge:hover path { stroke: red; }
.edge:hover polygon { stroke: red; fill: red; }
]]></style>

<defs>
  <circle id="rim" cx="0" cy="0" r="7"/>
  <circle id="rim2" cx="0" cy="0" r="3.5"/>
  <g id="zoomPlus">
    <use xlink:href="#rim" fill="#404040"><set attributeName="fill" to="#808080" begin="zoomplus.mouseover" end="zoomplus.mouseout"/></use>
    <path d="M-4,0h8M0,-4v8" fill="none" stroke="white" stroke-width="1.5" pointer-events="none"/>
  </g>
  <g id="zoomMin">
    <use xlink:href="#rim" fill="#404040"><set attributeName="fill" to="#808080" begin="zoomminus.mouseover" end="zoomminus.mouseout"/></use>
    <path d="M-4,0h8" fill="none" stroke="white" stroke-width="1.5" pointer-events="none"/>
  </g>
  <g id="arrowUp" transform="translate(30 24)">
    <use xlink:href="#rim"/>
    <path pointer-events="none" fill="none" stroke="white" stroke-width="1.5" d="M0,-3.0v7 M-2.5,-0.5L0,-3.0L2.5,-0.5"/>
  </g>
  <g id="arrowRight" transform="rotate(90) translate(36 -43)">
    <use xlink:href="#rim"/>
    <path pointer-events="none" fill="none" stroke="white" stroke-width="1.5" d="M0,-3.0v7 M-2.5,-0.5L0,-3.0L2.5,-0.5"/>
  </g>
  <g id="arrowDown" transform="rotate(180) translate(-30 -48)">
    <use xlink:href="#rim"/>
    <path pointer-events="none" fill="none" stroke="white" stroke-width="1.5" d="M0,-3.0v7 M-2.5,-0.5L0,-3.0L2.5,-0.5"/>
  </g>
  <g id="arrowLeft" transform="rotate(270) translate(-36 17)">
    <use xlink:href="#rim"/>
    <path pointer-events="none" fill="none" stroke="white" stroke-width="1.5" d="M0,-3.0v7 M-2.5,-0.5L0,-3.0L2.5,-0.5"/>
  </g>
  <g id="resetDef">
    <use xlink:href="#rim2" fill="#404040"><set attributeName="fill" to="#808080" begin="reset.mouseover" end="reset.mouseout"/></use>
  </g>
</defs>
<script type="application/ecmascript">
var viewWidth = 3319;
var viewHeight = 225;
var sectionId = 'dynsection-1';
</script>
<script type="application/ecmascript" xlink:href="svg.min.js"/>
<svg id="graph" class="graph">
<g id="viewport">
<title>src/lib/utils/parameters.hpp</title>
<!-- Node1 -->
<g id="Node000001" class="node">
<title>Node1</title>
<g id="a_Node000001"><a xlink:title=" ">
<polygon fill="#999999" stroke="#666666" points="1605,-217 1455,-217 1455,-198 1605,-198 1605,-217"/>
<text text-anchor="middle" x="1530" y="-205" font-family="Helvetica,sans-Serif" font-size="10.00">src/lib/utils/parameters.hpp</text>
</a>
</g>
</g>
<!-- Node2 -->
<g id="Node000002" class="node">
<title>Node2</title>
<g id="a_Node000002"><a xlink:href="atlas__context_8cpp.html" target="_top" xlink:title=" ">
<polygon fill="white" stroke="#666666" points="150,-96 0,-96 0,-66 150,-66 150,-96"/>
<text text-anchor="start" x="8" y="-84" font-family="Helvetica,sans-Serif" font-size="10.00">src/lib/bitstreamGeneration</text>
<text text-anchor="middle" x="75" y="-73" font-family="Helvetica,sans-Serif" font-size="10.00">/atlas_context.cpp</text>
</a>
</g>
</g>
<!-- Node1&#45;&gt;Node2 -->
<g id="edge1_Node000001_Node000002" class="edge">
<title>Node1&#45;&gt;Node2</title>
<g id="a_edge1_Node000001_Node000002"><a xlink:title=" ">
<path fill="none" stroke="#63b8ff" d="M1444.63,-206.92C1165.26,-207.84 289.43,-207.08 171,-162 135.11,-148.34 102.96,-115.32 86.53,-96.25"/>
<polygon fill="#63b8ff" stroke="#63b8ff" points="1444.72,-210.42 1454.71,-206.88 1444.7,-203.42 1444.72,-210.42"/>
</a>
</g>
</g>
<!-- Node3 -->
<g id="Node000003" class="node">
<title>Node3</title>
<g id="a_Node000003"><a xlink:href="atlas__context_8hpp.html" target="_top" xlink:title=" ">
<polygon fill="white" stroke="#666666" points="330,-162 180,-162 180,-132 330,-132 330,-162"/>
<text text-anchor="start" x="188" y="-150" font-family="Helvetica,sans-Serif" font-size="10.00">src/lib/bitstreamGeneration</text>
<text text-anchor="middle" x="255" y="-139" font-family="Helvetica,sans-Serif" font-size="10.00">/atlas_context.hpp</text>
</a>
</g>
</g>
<!-- Node1&#45;&gt;Node3 -->
<g id="edge2_Node000001_Node000003" class="edge">
<title>Node1&#45;&gt;Node3</title>
<g id="a_edge2_Node000001_Node000003"><a xlink:title=" ">
<path fill="none" stroke="#63b8ff" d="M1444.69,-205.9C1251.7,-203.95 766.93,-195.81 363,-162 352.35,-161.11 341.15,-159.93 330.15,-158.63"/>
<polygon fill="#63b8ff" stroke="#63b8ff" points="1444.73,-209.4 1454.77,-206 1444.8,-202.4 1444.73,-209.4"/>
</a>
</g>
</g>
<!-- Node4 -->
<g id="Node000004" class="node">
<title>Node4</title>
<g id="a_Node000004"><a xlink:href="bitstreamGeneration_8cpp.html" target="_top" xlink:title=" ">
<polygon fill="white" stroke="#666666" points="478,-30 328,-30 328,0 478,0 478,-30"/>
<text text-anchor="start" x="336" y="-18" font-family="Helvetica,sans-Serif" font-size="10.00">src/lib/bitstreamGeneration</text>
<text text-anchor="middle" x="403" y="-7" font-family="Helvetica,sans-Serif" font-size="10.00">/bitstreamGeneration.cpp</text>
</a>
</g>
</g>
<!-- Node1&#45;&gt;Node4 -->
<g id="edge8_Node000001_Node000004" class="edge">
<title>Node1&#45;&gt;Node4</title>
<g id="a_edge8_Node000001_Node000004"><a xlink:title=" ">
<path fill="none" stroke="#63b8ff" d="M1444.83,-206.35C1187.3,-205.46 432.22,-199.67 396,-162 361.53,-126.15 383.94,-59.61 396.35,-30.39"/>
<polygon fill="#63b8ff" stroke="#63b8ff" points="1444.87,-209.85 1454.88,-206.38 1444.89,-202.85 1444.87,-209.85"/>
</a>
</g>
</g>
<!-- Node7 -->
<g id="Node000007" class="node">
<title>Node7</title>
<g id="a_Node000007"><a xlink:href="bitstreamGeneration_8hpp.html" target="_top" xlink:title=" ">
<polygon fill="white" stroke="#666666" points="723,-162 573,-162 573,-132 723,-132 723,-162"/>
<text text-anchor="start" x="581" y="-150" font-family="Helvetica,sans-Serif" font-size="10.00">src/lib/bitstreamGeneration</text>
<text text-anchor="middle" x="648" y="-139" font-family="Helvetica,sans-Serif" font-size="10.00">/bitstreamGeneration.hpp</text>
</a>
</g>
</g>
<!-- Node1&#45;&gt;Node7 -->
<g id="edge9_Node000001_Node000007" class="edge">
<title>Node1&#45;&gt;Node7</title>
<g id="a_edge9_Node000001_Node000007"><a xlink:title=" ">
<path fill="none" stroke="#63b8ff" d="M1444.71,-204.51C1299.19,-200.49 993.76,-189.33 737,-162 732.49,-161.52 727.86,-160.97 723.19,-160.37"/>
<polygon fill="#63b8ff" stroke="#63b8ff" points="1444.81,-208.01 1454.9,-204.79 1445,-201.02 1444.81,-208.01"/>
</a>
</g>
</g>
<!-- Node8 -->
<g id="Node000008" class="node">
<title>Node8</title>
<g id="a_Node000008"><a xlink:href="uvgvpcc_8cpp.html" target="_top" xlink:title=" ">
<polygon fill="white" stroke="#666666" points="806,-90.5 696,-90.5 696,-71.5 806,-71.5 806,-90.5"/>
<text text-anchor="middle" x="751" y="-78.5" font-family="Helvetica,sans-Serif" font-size="10.00">src/lib/uvgvpcc.cpp</text>
</a>
</g>
</g>
<!-- Node1&#45;&gt;Node8 -->
<g id="edge36_Node000001_Node000008" class="edge">
<title>Node1&#45;&gt;Node8</title>
<g id="a_edge36_Node000001_Node000008"><a xlink:title=" ">
<path fill="none" stroke="#63b8ff" d="M1444.76,-207.09C1257.32,-207.6 821.86,-204.16 771,-162 749.62,-144.27 749.16,-107.47 750.19,-90.69"/>
<polygon fill="#63b8ff" stroke="#63b8ff" points="1444.87,-210.59 1454.86,-207.06 1444.84,-203.59 1444.87,-210.59"/>
</a>
</g>
</g>
<!-- Node9 -->
<g id="Node000009" class="node">
<title>Node9</title>
<g id="a_Node000009"><a xlink:href="bitstream__util_8cpp.html" target="_top" xlink:title=" ">
<polygon fill="white" stroke="#666666" points="1111,-162 961,-162 961,-132 1111,-132 1111,-162"/>
<text text-anchor="start" x="969" y="-150" font-family="Helvetica,sans-Serif" font-size="10.00">src/lib/bitstreamGeneration</text>
<text text-anchor="middle" x="1036" y="-139" font-family="Helvetica,sans-Serif" font-size="10.00">/bitstream_util.cpp</text>
</a>
</g>
</g>
<!-- Node1&#45;&gt;Node9 -->
<g id="edge12_Node000001_Node000009" class="edge">
<title>Node1&#45;&gt;Node9</title>
<g id="a_edge12_Node000001_Node000009"><a xlink:title=" ">
<path fill="none" stroke="#63b8ff" d="M1444.72,-198.6C1361.87,-190.59 1232.58,-177.25 1121,-162 1117.74,-161.55 1114.41,-161.08 1111.05,-160.59"/>
<polygon fill="#63b8ff" stroke="#63b8ff" points="1444.55,-202.1 1454.84,-199.57 1445.22,-195.13 1444.55,-202.1"/>
</a>
</g>
</g>
<!-- Node10 -->
<g id="Node000010" class="node">
<title>Node10</title>
<g id="a_Node000010"><a xlink:href="vps_8hpp.html" target="_top" xlink:title=" ">
<polygon fill="white" stroke="#666666" points="555,-162 405,-162 405,-132 555,-132 555,-162"/>
<text text-anchor="start" x="413" y="-150" font-family="Helvetica,sans-Serif" font-size="10.00">src/lib/bitstreamGeneration</text>
<text text-anchor="middle" x="480" y="-139" font-family="Helvetica,sans-Serif" font-size="10.00">/vps.hpp</text>
</a>
</g>
</g>
<!-- Node1&#45;&gt;Node10 -->
<g id="edge13_Node000001_Node000010" class="edge">
<title>Node1&#45;&gt;Node10</title>
<g id="a_edge13_Node000001_Node000010"><a xlink:title=" ">
<path fill="none" stroke="#63b8ff" d="M1444.87,-205.98C1276.27,-204.2 888.15,-196.36 564,-162 561.06,-161.69 558.07,-161.34 555.05,-160.96"/>
<polygon fill="#63b8ff" stroke="#63b8ff" points="1444.89,-209.48 1454.92,-206.08 1444.96,-202.48 1444.89,-209.48"/>
</a>
</g>
</g>
<!-- Node12 -->
<g id="Node000012" class="node">
<title>Node12</title>
<g id="a_Node000012"><a xlink:href="encoderFFmpeg_8cpp.html" target="_top" xlink:title=" ">
<polygon fill="white" stroke="#666666" points="1248.5,-162 1129.5,-162 1129.5,-132 1248.5,-132 1248.5,-162"/>
<text text-anchor="start" x="1137.5" y="-150" font-family="Helvetica,sans-Serif" font-size="10.00">src/lib/mapEncoding</text>
<text text-anchor="middle" x="1189" y="-139" font-family="Helvetica,sans-Serif" font-size="10.00">/encoderFFmpeg.cpp</text>
</a>
</g>
</g>
<!-- Node1&#45;&gt;Node12 -->
<g id="edge17_Node000001_Node000012" class="edge">
<title>Node1&#45;&gt;Node12</title>
<g id="a_edge17_Node000001_Node000012"><a xlink:title=" ">
<path fill="none" stroke="#63b8ff" d="M1464.16,-196.45C1409,-187.85 1328.23,-174.86 1258,-162 1254.99,-161.45 1251.92,-160.87 1248.81,-160.28"/>
<polygon fill="#63b8ff" stroke="#63b8ff" points="1463.73,-199.92 1474.15,-198 1464.81,-193 1463.73,-199.92"/>
</a>
</g>
</g>
<!-- Node13 -->
<g id="Node000013" class="node">
<title>Node13</title>
<g id="a_Node000013"><a xlink:href="encoderKvazaar_8cpp.html" target="_top" xlink:title=" ">
<polygon fill="white" stroke="#666666" points="1385,-162 1267,-162 1267,-132 1385,-132 1385,-162"/>
<text text-anchor="start" x="1275" y="-150" font-family="Helvetica,sans-Serif" font-size="10.00">src/lib/mapEncoding</text>
<text text-anchor="middle" x="1326" y="-139" font-family="Helvetica,sans-Serif" font-size="10.00">/encoderKvazaar.cpp</text>
</a>
</g>
</g>
<!-- Node1&#45;&gt;Node13 -->
<g id="edge18_Node000001_Node000013" class="edge">
<title>Node1&#45;&gt;Node13</title>
<g id="a_edge18_Node000001_Node000013"><a xlink:title=" ">
<path fill="none" stroke="#63b8ff" d="M1490.59,-195.2C1457.63,-185.75 1410.45,-172.22 1375.04,-162.06"/>
<polygon fill="#63b8ff" stroke="#63b8ff" points="1489.76,-198.6 1500.34,-197.99 1491.69,-191.87 1489.76,-198.6"/>
</a>
</g>
</g>
<!-- Node14 -->
<g id="Node000014" class="node">
<title>Node14</title>
<g id="a_Node000014"><a xlink:href="mapEncoding_8cpp.html" target="_top" xlink:title=" ">
<polygon fill="white" stroke="#666666" points="1518.5,-162 1403.5,-162 1403.5,-132 1518.5,-132 1518.5,-162"/>
<text text-anchor="start" x="1411.5" y="-150" font-family="Helvetica,sans-Serif" font-size="10.00">src/lib/mapEncoding</text>
<text text-anchor="middle" x="1461" y="-139" font-family="Helvetica,sans-Serif" font-size="10.00">/mapEncoding.cpp</text>
</a>
</g>
</g>
<!-- Node1&#45;&gt;Node14 -->
<g id="edge19_Node000001_Node000014" class="edge">
<title>Node1&#45;&gt;Node14</title>
<g id="a_edge19_Node000001_Node000014"><a xlink:title=" ">
<path fill="none" stroke="#63b8ff" d="M1511.99,-191.23C1501.37,-182.23 1488.02,-170.91 1477.65,-162.11"/>
<polygon fill="#63b8ff" stroke="#63b8ff" points="1509.93,-194.07 1519.82,-197.87 1514.45,-188.73 1509.93,-194.07"/>
</a>
</g>
</g>
<!-- Node15 -->
<g id="Node000015" class="node">
<title>Node15</title>
<g id="a_Node000015"><a xlink:href="bgFillAttribute_8cpp.html" target="_top" xlink:title=" ">
<polygon fill="white" stroke="#666666" points="1661.5,-162 1536.5,-162 1536.5,-132 1661.5,-132 1661.5,-162"/>
<text text-anchor="start" x="1544.5" y="-150" font-family="Helvetica,sans-Serif" font-size="10.00">src/lib/mapGeneration</text>
<text text-anchor="middle" x="1599" y="-139" font-family="Helvetica,sans-Serif" font-size="10.00">/bgFillAttribute.cpp</text>
</a>
</g>
</g>
<!-- Node1&#45;&gt;Node15 -->
<g id="edge20_Node000001_Node000015" class="edge">
<title>Node1&#45;&gt;Node15</title>
<g id="a_edge20_Node000001_Node000015"><a xlink:title=" ">
<path fill="none" stroke="#63b8ff" d="M1548.01,-191.23C1558.63,-182.23 1571.98,-170.91 1582.35,-162.11"/>
<polygon fill="#63b8ff" stroke="#63b8ff" points="1545.55,-188.73 1540.18,-197.87 1550.07,-194.07 1545.55,-188.73"/>
</a>
</g>
</g>
<!-- Node16 -->
<g id="Node000016" class="node">
<title>Node16</title>
<g id="a_Node000016"><a xlink:href="bgFillGeometry_8cpp.html" target="_top" xlink:title=" ">
<polygon fill="white" stroke="#666666" points="1804.5,-162 1679.5,-162 1679.5,-132 1804.5,-132 1804.5,-162"/>
<text text-anchor="start" x="1687.5" y="-150" font-family="Helvetica,sans-Serif" font-size="10.00">src/lib/mapGeneration</text>
<text text-anchor="middle" x="1742" y="-139" font-family="Helvetica,sans-Serif" font-size="10.00">/bgFillGeometry.cpp</text>
</a>
</g>
</g>
<!-- Node1&#45;&gt;Node16 -->
<g id="edge21_Node000001_Node000016" class="edge">
<title>Node1&#45;&gt;Node16</title>
<g id="a_edge21_Node000001_Node000016"><a xlink:title=" ">
<path fill="none" stroke="#63b8ff" d="M1570.51,-195.32C1604.79,-185.86 1654.08,-172.26 1691.03,-162.06"/>
<polygon fill="#63b8ff" stroke="#63b8ff" points="1569.54,-191.96 1560.83,-197.99 1571.4,-198.71 1569.54,-191.96"/>
</a>
</g>
</g>
<!-- Node17 -->
<g id="Node000017" class="node">
<title>Node17</title>
<g id="a_Node000017"><a xlink:href="mapGeneration_8cpp.html" target="_top" xlink:title=" ">
<polygon fill="white" stroke="#666666" points="1947.5,-162 1822.5,-162 1822.5,-132 1947.5,-132 1947.5,-162"/>
<text text-anchor="start" x="1830.5" y="-150" font-family="Helvetica,sans-Serif" font-size="10.00">src/lib/mapGeneration</text>
<text text-anchor="middle" x="1885" y="-139" font-family="Helvetica,sans-Serif" font-size="10.00">/mapGeneration.cpp</text>
</a>
</g>
</g>
<!-- Node1&#45;&gt;Node17 -->
<g id="edge22_Node000001_Node000017" class="edge">
<title>Node1&#45;&gt;Node17</title>
<g id="a_edge22_Node000001_Node000017"><a xlink:title=" ">
<path fill="none" stroke="#63b8ff" d="M1598.93,-196.47C1656.52,-187.91 1740.75,-174.96 1814,-162 1816.72,-161.52 1819.5,-161.02 1822.31,-160.5"/>
<polygon fill="#63b8ff" stroke="#63b8ff" points="1598.23,-193.04 1588.86,-197.97 1599.26,-199.96 1598.23,-193.04"/>
</a>
</g>
</g>
<!-- Node18 -->
<g id="Node000018" class="node">
<title>Node18</title>
<g id="a_Node000018"><a xlink:href="normalComputation_8cpp.html" target="_top" xlink:title=" ">
<polygon fill="white" stroke="#666666" points="2102.5,-162 1965.5,-162 1965.5,-132 2102.5,-132 2102.5,-162"/>
<text text-anchor="start" x="1973.5" y="-150" font-family="Helvetica,sans-Serif" font-size="10.00">src/lib/patchGeneration</text>
<text text-anchor="middle" x="2034" y="-139" font-family="Helvetica,sans-Serif" font-size="10.00">/normalComputation.cpp</text>
</a>
</g>
</g>
<!-- Node1&#45;&gt;Node18 -->
<g id="edge23_Node000001_Node000018" class="edge">
<title>Node1&#45;&gt;Node18</title>
<g id="a_edge23_Node000001_Node000018"><a xlink:title=" ">
<path fill="none" stroke="#63b8ff" d="M1615.04,-199.55C1701.39,-192.05 1838.83,-178.88 1957,-162 1959.69,-161.62 1962.43,-161.21 1965.2,-160.78"/>
<polygon fill="#63b8ff" stroke="#63b8ff" points="1614.69,-196.07 1605.03,-200.42 1615.3,-203.05 1614.69,-196.07"/>
</a>
</g>
</g>
<!-- Node19 -->
<g id="Node000019" class="node">
<title>Node19</title>
<g id="a_Node000019"><a xlink:href="normalOrientation_8cpp.html" target="_top" xlink:title=" ">
<polygon fill="white" stroke="#666666" points="2251,-162 2121,-162 2121,-132 2251,-132 2251,-162"/>
<text text-anchor="start" x="2129" y="-150" font-family="Helvetica,sans-Serif" font-size="10.00">src/lib/patchGeneration</text>
<text text-anchor="middle" x="2186" y="-139" font-family="Helvetica,sans-Serif" font-size="10.00">/normalOrientation.cpp</text>
</a>
</g>
</g>
<!-- Node1&#45;&gt;Node19 -->
<g id="edge24_Node000001_Node000019" class="edge">
<title>Node1&#45;&gt;Node19</title>
<g id="a_edge24_Node000001_Node000019"><a xlink:title=" ">
<path fill="none" stroke="#63b8ff" d="M1615.18,-202.94C1728.85,-197.52 1936.23,-185.27 2112,-162 2114.85,-161.62 2117.76,-161.21 2120.69,-160.76"/>
<polygon fill="#63b8ff" stroke="#63b8ff" points="1614.98,-199.45 1605.15,-203.42 1615.31,-206.44 1614.98,-199.45"/>
</a>
</g>
</g>
<!-- Node20 -->
<g id="Node000020" class="node">
<title>Node20</title>
<g id="a_Node000020"><a xlink:href="patchGeneration_8cpp.html" target="_top" xlink:title=" ">
<polygon fill="white" stroke="#666666" points="2399,-162 2269,-162 2269,-132 2399,-132 2399,-162"/>
<text text-anchor="start" x="2277" y="-150" font-family="Helvetica,sans-Serif" font-size="10.00">src/lib/patchGeneration</text>
<text text-anchor="middle" x="2334" y="-139" font-family="Helvetica,sans-Serif" font-size="10.00">/patchGeneration.cpp</text>
</a>
</g>
</g>
<!-- Node1&#45;&gt;Node20 -->
<g id="edge25_Node000001_Node000020" class="edge">
<title>Node1&#45;&gt;Node20</title>
<g id="a_edge25_Node000001_Node000020"><a xlink:title=" ">
<path fill="none" stroke="#63b8ff" d="M1615.56,-204.78C1752.24,-201.24 2028.06,-190.89 2260,-162 2262.85,-161.64 2265.76,-161.25 2268.7,-160.82"/>
<polygon fill="#63b8ff" stroke="#63b8ff" points="1615.07,-201.29 1605.16,-205.04 1615.25,-208.29 1615.07,-201.29"/>
</a>
</g>
</g>
<!-- Node21 -->
<g id="Node000021" class="node">
<title>Node21</title>
<g id="a_Node000021"><a xlink:href="patchSegmentation_8cpp.html" target="_top" xlink:title=" ">
<polygon fill="white" stroke="#666666" points="2552.5,-162 2417.5,-162 2417.5,-132 2552.5,-132 2552.5,-162"/>
<text text-anchor="start" x="2425.5" y="-150" font-family="Helvetica,sans-Serif" font-size="10.00">src/lib/patchGeneration</text>
<text text-anchor="middle" x="2485" y="-139" font-family="Helvetica,sans-Serif" font-size="10.00">/patchSegmentation.cpp</text>
</a>
</g>
</g>
<!-- Node1&#45;&gt;Node21 -->
<g id="edge26_Node000001_Node000021" class="edge">
<title>Node1&#45;&gt;Node21</title>
<g id="a_edge26_Node000001_Node000021"><a xlink:title=" ">
<path fill="none" stroke="#63b8ff" d="M1615.22,-205.83C1772.45,-203.79 2118.52,-195.51 2408,-162 2411.1,-161.64 2414.27,-161.23 2417.47,-160.79"/>
<polygon fill="#63b8ff" stroke="#63b8ff" points="1615.1,-202.33 1605.14,-205.96 1615.19,-209.33 1615.1,-202.33"/>
</a>
</g>
</g>
<!-- Node22 -->
<g id="Node000022" class="node">
<title>Node22</title>
<g id="a_Node000022"><a xlink:href="ppiSegmenter_8cpp.html" target="_top" xlink:title=" ">
<polygon fill="white" stroke="#666666" points="2701,-162 2571,-162 2571,-132 2701,-132 2701,-162"/>
<text text-anchor="start" x="2579" y="-150" font-family="Helvetica,sans-Serif" font-size="10.00">src/lib/patchGeneration</text>
<text text-anchor="middle" x="2636" y="-139" font-family="Helvetica,sans-Serif" font-size="10.00">/ppiSegmenter.cpp</text>
</a>
</g>
</g>
<!-- Node1&#45;&gt;Node22 -->
<g id="edge27_Node000001_Node000022" class="edge">
<title>Node1&#45;&gt;Node22</title>
<g id="a_edge27_Node000001_Node000022"><a xlink:title=" ">
<path fill="none" stroke="#63b8ff" d="M1615.1,-206.96C1792.04,-207.01 2212.27,-202.41 2562,-162 2564.86,-161.67 2567.77,-161.29 2570.71,-160.88"/>
<polygon fill="#63b8ff" stroke="#63b8ff" points="1615.08,-203.46 1605.08,-206.95 1615.07,-210.46 1615.08,-203.46"/>
</a>
</g>
</g>
<!-- Node23 -->
<g id="Node000023" class="node">
<title>Node23</title>
<g id="a_Node000023"><a xlink:href="slicingComputation_8cpp.html" target="_top" xlink:title=" ">
<polygon fill="white" stroke="#666666" points="2853,-162 2719,-162 2719,-132 2853,-132 2853,-162"/>
<text text-anchor="start" x="2727" y="-150" font-family="Helvetica,sans-Serif" font-size="10.00">src/lib/patchGeneration</text>
<text text-anchor="middle" x="2786" y="-139" font-family="Helvetica,sans-Serif" font-size="10.00">/slicingComputation.cpp</text>
</a>
</g>
</g>
<!-- Node1&#45;&gt;Node23 -->
<g id="edge28_Node000001_Node000023" class="edge">
<title>Node1&#45;&gt;Node23</title>
<g id="a_edge28_Node000001_Node000023"><a xlink:title=" ">
<path fill="none" stroke="#63b8ff" d="M1615.19,-204.89C1849.05,-200.21 2497.67,-185.44 2710,-162 2712.93,-161.68 2715.92,-161.3 2718.94,-160.9"/>
<polygon fill="#63b8ff" stroke="#63b8ff" points="1614.96,-201.39 1605.04,-205.09 1615.1,-208.39 1614.96,-201.39"/>
</a>
</g>
</g>
<!-- Node24 -->
<g id="Node000024" class="node">
<title>Node24</title>
<g id="a_Node000024"><a xlink:href="patchPacking_8cpp.html" target="_top" xlink:title=" ">
<polygon fill="white" stroke="#666666" points="2984.5,-162 2871.5,-162 2871.5,-132 2984.5,-132 2984.5,-162"/>
<text text-anchor="start" x="2879.5" y="-150" font-family="Helvetica,sans-Serif" font-size="10.00">src/lib/patchPacking</text>
<text text-anchor="middle" x="2928" y="-139" font-family="Helvetica,sans-Serif" font-size="10.00">/patchPacking.cpp</text>
</a>
</g>
</g>
<!-- Node1&#45;&gt;Node24 -->
<g id="edge29_Node000001_Node000024" class="edge">
<title>Node1&#45;&gt;Node24</title>
<g id="a_edge29_Node000001_Node000024"><a xlink:title=" ">
<path fill="none" stroke="#63b8ff" d="M1615.38,-205.61C1869.66,-202.64 2619.32,-191.56 2862,-162 2865.02,-161.63 2868.11,-161.19 2871.22,-160.7"/>
<polygon fill="#63b8ff" stroke="#63b8ff" points="1615.05,-202.11 1605.09,-205.73 1615.13,-209.11 1615.05,-202.11"/>
</a>
</g>
</g>
<!-- Node25 -->
<g id="Node000025" class="node">
<title>Node25</title>
<g id="a_Node000025"><a xlink:href="fileExport_8cpp.html" target="_top" xlink:title=" ">
<polygon fill="white" stroke="#666666" points="3143,-156.5 3003,-156.5 3003,-137.5 3143,-137.5 3143,-156.5"/>
<text text-anchor="middle" x="3073" y="-144.5" font-family="Helvetica,sans-Serif" font-size="10.00">src/lib/utils/fileExport.cpp</text>
</a>
</g>
</g>
<!-- Node1&#45;&gt;Node25 -->
<g id="edge30_Node000001_Node000025" class="edge">
<title>Node1&#45;&gt;Node25</title>
<g id="a_edge30_Node000001_Node000025"><a xlink:title=" ">
<path fill="none" stroke="#63b8ff" d="M1615.31,-205.53C1886.06,-202.21 2723.98,-189.88 2994,-162 3006.19,-160.74 3019.34,-158.69 3031.34,-156.55"/>
<polygon fill="#63b8ff" stroke="#63b8ff" points="1615.1,-202.04 1605.15,-205.66 1615.19,-209.03 1615.1,-202.04"/>
</a>
</g>
</g>
<!-- Node26 -->
<g id="Node000026" class="node">
<title>Node26</title>
<g id="a_Node000026"><a xlink:href="parameters_8cpp.html" target="_top" xlink:title=" ">
<polygon fill="white" stroke="#666666" points="3310.5,-156.5 3161.5,-156.5 3161.5,-137.5 3310.5,-137.5 3310.5,-156.5"/>
<text text-anchor="middle" x="3236" y="-144.5" font-family="Helvetica,sans-Serif" font-size="10.00">src/lib/utils/parameters.cpp</text>
</a>
</g>
</g>
<!-- Node1&#45;&gt;Node26 -->
<g id="edge31_Node000001_Node000026" class="edge">
<title>Node1&#45;&gt;Node26</title>
<g id="a_edge31_Node000001_Node000026"><a xlink:title=" ">
<path fill="none" stroke="#63b8ff" d="M1615.48,-205.71C1905.34,-202.79 2849.6,-191.21 3152,-162 3164.95,-160.75 3178.92,-158.7 3191.68,-156.56"/>
<polygon fill="#63b8ff" stroke="#63b8ff" points="1615.41,-202.21 1605.45,-205.81 1615.48,-209.21 1615.41,-202.21"/>
</a>
</g>
</g>
<!-- Node27 -->
<g id="Node000027" class="node">
<title>Node27</title>
<g id="a_Node000027"><a xlink:href="preset_8cpp.html" target="_top" xlink:title=" ">
<polygon fill="white" stroke="#666666" points="972,-90.5 848,-90.5 848,-71.5 972,-71.5 972,-90.5"/>
<text text-anchor="middle" x="910" y="-78.5" font-family="Helvetica,sans-Serif" font-size="10.00">src/lib/utils/preset.cpp</text>
</a>
</g>
</g>
<!-- Node1&#45;&gt;Node27 -->
<g id="edge32_Node000001_Node000027" class="edge">
<title>Node1&#45;&gt;Node27</title>
<g id="a_edge32_Node000001_Node000027"><a xlink:title=" ">
<path fill="none" stroke="#63b8ff" d="M1444.58,-204.45C1293.7,-200.17 992.11,-188.4 952,-162 926.45,-145.18 915.45,-107.57 911.67,-90.6"/>
<polygon fill="#63b8ff" stroke="#63b8ff" points="1444.64,-207.95 1454.73,-204.73 1444.83,-200.96 1444.64,-207.95"/>
</a>
</g>
</g>
<!-- Node28 -->
<g id="Node000028" class="node">
<title>Node28</title>
<g id="a_Node000028"><a xlink:href="preset_8hpp.html" target="_top" xlink:title=" ">
<polygon fill="white" stroke="#666666" points="904.5,-156.5 779.5,-156.5 779.5,-137.5 904.5,-137.5 904.5,-156.5"/>
<text text-anchor="middle" x="842" y="-144.5" font-family="Helvetica,sans-Serif" font-size="10.00">src/lib/utils/preset.hpp</text>
</a>
</g>
</g>
<!-- Node1&#45;&gt;Node28 -->
<g id="edge33_Node000001_Node000028" class="edge">
<title>Node1&#45;&gt;Node28</title>
<g id="a_edge33_Node000001_Node000028"><a xlink:title=" ">
<path fill="none" stroke="#63b8ff" d="M1444.89,-203.18C1326.57,-197.92 1105.85,-185.72 919,-162 907.68,-160.56 895.5,-158.56 884.24,-156.52"/>
<polygon fill="#63b8ff" stroke="#63b8ff" points="1444.82,-206.68 1454.97,-203.63 1445.13,-199.69 1444.82,-206.68"/>
</a>
</g>
</g>
<!-- Node3&#45;&gt;Node2 -->
<g id="edge3_Node000003_Node000002" class="edge">
<title>Node3&#45;&gt;Node2</title>
<g id="a_edge3_Node000003_Node000002"><a xlink:title=" ">
<path fill="none" stroke="#63b8ff" d="M206.03,-128.59C177.26,-118.36 141.35,-105.59 114.41,-96.01"/>
<polygon fill="#63b8ff" stroke="#63b8ff" points="204.9,-131.9 215.5,-131.95 207.25,-125.31 204.9,-131.9"/>
</a>
</g>
</g>
<!-- Node3&#45;&gt;Node4 -->
<g id="edge4_Node000003_Node000004" class="edge">
<title>Node3&#45;&gt;Node4</title>
<g id="a_edge4_Node000003_Node000004"><a xlink:title=" ">
<path fill="none" stroke="#63b8ff" d="M224.12,-125.77C202.98,-109.4 181.37,-85.88 197,-66 205.39,-55.33 272.5,-40.36 327.88,-29.58"/>
<polygon fill="#63b8ff" stroke="#63b8ff" points="222.29,-128.77 232.42,-131.88 226.45,-123.13 222.29,-128.77"/>
</a>
</g>
</g>
<!-- Node5 -->
<g id="Node000005" class="node">
<title>Node5</title>
<g id="a_Node000005"><a xlink:href="gof_8hpp.html" target="_top" xlink:title=" ">
<polygon fill="white" stroke="#666666" points="356,-96 206,-96 206,-66 356,-66 356,-96"/>
<text text-anchor="start" x="214" y="-84" font-family="Helvetica,sans-Serif" font-size="10.00">src/lib/bitstreamGeneration</text>
<text text-anchor="middle" x="281" y="-73" font-family="Helvetica,sans-Serif" font-size="10.00">/gof.hpp</text>
</a>
</g>
</g>
<!-- Node3&#45;&gt;Node5 -->
<g id="edge5_Node000003_Node000005" class="edge">
<title>Node3&#45;&gt;Node5</title>
<g id="a_edge5_Node000003_Node000005"><a xlink:title=" ">
<path fill="none" stroke="#63b8ff" d="M264.59,-122.39C268.17,-113.59 272.12,-103.86 275.25,-96.16"/>
<polygon fill="#63b8ff" stroke="#63b8ff" points="261.29,-121.21 260.77,-131.8 267.78,-123.85 261.29,-121.21"/>
</a>
</g>
</g>
<!-- Node5&#45;&gt;Node4 -->
<g id="edge6_Node000005_Node000004" class="edge">
<title>Node5&#45;&gt;Node4</title>
<g id="a_edge6_Node000005_Node000004"><a xlink:title=" ">
<path fill="none" stroke="#63b8ff" d="M316.76,-61.24C335.8,-51.25 358.82,-39.18 376.29,-30.01"/>
<polygon fill="#63b8ff" stroke="#63b8ff" points="315,-58.21 307.77,-65.95 318.25,-64.41 315,-58.21"/>
</a>
</g>
</g>
<!-- Node6 -->
<g id="Node000006" class="node">
<title>Node6</title>
<g id="a_Node000006"><a xlink:href="gof_8cpp.html" target="_top" xlink:title=" ">
<polygon fill="white" stroke="#666666" points="310,-30 160,-30 160,0 310,0 310,-30"/>
<text text-anchor="start" x="168" y="-18" font-family="Helvetica,sans-Serif" font-size="10.00">src/lib/bitstreamGeneration</text>
<text text-anchor="middle" x="235" y="-7" font-family="Helvetica,sans-Serif" font-size="10.00">/gof.cpp</text>
</a>
</g>
</g>
<!-- Node5&#45;&gt;Node6 -->
<g id="edge7_Node000005_Node000006" class="edge">
<title>Node5&#45;&gt;Node6</title>
<g id="a_edge7_Node000005_Node000006"><a xlink:title=" ">
<path fill="none" stroke="#63b8ff" d="M264.85,-57.53C258.31,-48.43 250.95,-38.19 245.18,-30.16"/>
<polygon fill="#63b8ff" stroke="#63b8ff" points="262.11,-59.72 270.79,-65.8 267.8,-55.63 262.11,-59.72"/>
</a>
</g>
</g>
<!-- Node7&#45;&gt;Node4 -->
<g id="edge10_Node000007_Node000004" class="edge">
<title>Node7&#45;&gt;Node4</title>
<g id="a_edge10_Node000007_Node000004"><a xlink:title=" ">
<path fill="none" stroke="#63b8ff" d="M642.26,-122.01C636.71,-104 626.51,-80.09 609,-66 572.3,-36.47 520.8,-23.97 478.48,-18.85"/>
<polygon fill="#63b8ff" stroke="#63b8ff" points="638.94,-123.14 645.01,-131.82 645.68,-121.25 638.94,-123.14"/>
</a>
</g>
</g>
<!-- Node7&#45;&gt;Node8 -->
<g id="edge11_Node000007_Node000008" class="edge">
<title>Node7&#45;&gt;Node8</title>
<g id="a_edge11_Node000007_Node000008"><a xlink:title=" ">
<path fill="none" stroke="#63b8ff" d="M679.14,-126.65C698.54,-114.6 722.53,-99.69 737.29,-90.52"/>
<polygon fill="#63b8ff" stroke="#63b8ff" points="677.25,-123.7 670.6,-131.95 680.94,-129.65 677.25,-123.7"/>
</a>
</g>
</g>
<!-- Node10&#45;&gt;Node4 -->
<g id="edge14_Node000010_Node000004" class="edge">
<title>Node10&#45;&gt;Node4</title>
<g id="a_edge14_Node000010_Node000004"><a xlink:title=" ">
<path fill="none" stroke="#63b8ff" d="M461.04,-123.86C454.29,-115.43 446.9,-105.56 441,-96 427.43,-74.02 415.31,-46.43 408.57,-30.07"/>
<polygon fill="#63b8ff" stroke="#63b8ff" points="458.46,-126.23 467.51,-131.74 463.87,-121.79 458.46,-126.23"/>
</a>
</g>
</g>
<!-- Node10&#45;&gt;Node5 -->
<g id="edge15_Node000010_Node000005" class="edge">
<title>Node10&#45;&gt;Node5</title>
<g id="a_edge15_Node000010_Node000005"><a xlink:title=" ">
<path fill="none" stroke="#63b8ff" d="M426.69,-128.86C394.74,-118.58 354.62,-105.68 324.57,-96.01"/>
<polygon fill="#63b8ff" stroke="#63b8ff" points="425.74,-132.23 436.33,-131.95 427.88,-125.56 425.74,-132.23"/>
</a>
</g>
</g>
<!-- Node11 -->
<g id="Node000011" class="node">
<title>Node11</title>
<g id="a_Node000011"><a xlink:href="vps_8cpp.html" target="_top" xlink:title=" ">
<polygon fill="white" stroke="#666666" points="600,-96 450,-96 450,-66 600,-66 600,-96"/>
<text text-anchor="start" x="458" y="-84" font-family="Helvetica,sans-Serif" font-size="10.00">src/lib/bitstreamGeneration</text>
<text text-anchor="middle" x="525" y="-73" font-family="Helvetica,sans-Serif" font-size="10.00">/vps.cpp</text>
</a>
</g>
</g>
<!-- Node10&#45;&gt;Node11 -->
<g id="edge16_Node000010_Node000011" class="edge">
<title>Node10&#45;&gt;Node11</title>
<g id="a_edge16_Node000010_Node000011"><a xlink:title=" ">
<path fill="none" stroke="#63b8ff" d="M495.8,-123.53C502.2,-114.43 509.39,-104.19 515.04,-96.16"/>
<polygon fill="#63b8ff" stroke="#63b8ff" points="492.88,-121.6 489.99,-131.8 498.6,-125.63 492.88,-121.6"/>
</a>
</g>
</g>
<!-- Node28&#45;&gt;Node8 -->
<g id="edge35_Node000028_Node000008" class="edge">
<title>Node28&#45;&gt;Node8</title>
<g id="a_edge35_Node000028_Node000008"><a xlink:title=" ">
<path fill="none" stroke="#63b8ff" d="M821.15,-131.33C803.3,-118.78 778.2,-101.13 763.37,-90.7"/>
<polygon fill="#63b8ff" stroke="#63b8ff" points="819.53,-134.48 829.73,-137.37 823.56,-128.75 819.53,-134.48"/>
</a>
</g>
</g>
<!-- Node28&#45;&gt;Node27 -->
<g id="edge34_Node000028_Node000027" class="edge">
<title>Node28&#45;&gt;Node27</title>
<g id="a_edge34_Node000028_Node000027"><a xlink:title=" ">
<path fill="none" stroke="#63b8ff" d="M858.65,-130.33C871.81,-117.94 889.72,-101.09 900.54,-90.91"/>
<polygon fill="#63b8ff" stroke="#63b8ff" points="856.05,-127.97 851.17,-137.37 860.85,-133.06 856.05,-127.97"/>
</a>
</g>
</g>
</g>
</svg>

<g id="navigator" transform="translate(0 0)" fill="#404254">
  <rect fill="#f2f5e9" fill-opacity="0.5" stroke="#606060" stroke-width=".5" x="0" y="0" width="60" height="60"/>
  <use id="zoomplus" xlink:href="#zoomPlus" x="17" y="9" onmousedown="handleZoom(evt,'in')"/>
  <use id="zoomminus" xlink:href="#zoomMin" x="42" y="9" onmousedown="handleZoom(evt,'out')"/>
  <use id="reset" xlink:href="#resetDef" x="30" y="36" onmousedown="handleReset()"/>
   <use id="arrowup" xlink:href="#arrowUp" x="0" y="0" onmousedown="handlePan(0,-1)"/>
  <use id="arrowright" xlink:href="#arrowRight" x="0" y="0" onmousedown="handlePan(1,0)"/>
  <use id="arrowdown" xlink:href="#arrowDown" x="0" y="0" onmousedown="handlePan(0,1)"/>
  <use id="arrowleft" xlink:href="#arrowLeft" x="0" y="0" onmousedown="handlePan(-1,0)"/>
</g>
<svg viewBox="0 0 15 15" width="100%" height="30px" preserveAspectRatio="xMaxYMin meet">
 <g id="arrow_out" transform="scale(0.3 0.3)">
  <a xlink:href="parameters_8hpp__dep__incl_org.svg" target="_base">
   <rect id="button" ry="5" rx="5" y="6" x="6" height="38" width="38"
        fill="#f2f5e9" fill-opacity="0.5" stroke="#606060" stroke-width="1.0"/>
   <path id="arrow"
     d="M 11.500037,31.436501 C 11.940474,20.09759 22.043105,11.32322 32.158766,21.979434 L 37.068811,17.246167 C 37.068811,17.246167 37.088388,32 37.088388,32 L 22.160133,31.978069 C 22.160133,31.978069 26.997745,27.140456 26.997745,27.140456 C 18.528582,18.264221 13.291696,25.230495 11.500037,31.436501 z"
     style="fill:#404040;"/>
  </a>
 </g>
</svg>

<style type='text/css'>
<![CDATA[
[data-mouse-over-selected='false'] { opacity: 0.7; }
[data-mouse-over-selected='true']  { opacity: 1.0; }
]]>
</style>
<script type="application/ecmascript"><![CDATA[
document.addEventListener('DOMContentLoaded', (event) => {
  highlightEdges();
  highlightAdjacentNodes();
});
]]></script>
</svg>
