<?xml version="1.0" encoding="UTF-8" standalone="no"?>
<!DOCTYPE svg PUBLIC "-//W3C//DTD SVG 1.1//EN"
 "http://www.w3.org/Graphics/SVG/1.1/DTD/svg11.dtd">
<!-- Generated by graphviz version 2.43.0 (0)
 -->
<!-- Title: src/libuvgvpccenc/patchPacking/patchPacking.hpp Pages: 1 -->
<svg width="364pt" height="104pt"
 viewBox="0.00 0.00 364.00 104.00" xmlns="http://www.w3.org/2000/svg" xmlns:xlink="http://www.w3.org/1999/xlink">
<g id="graph0" class="graph" transform="scale(1 1) rotate(0) translate(4 100)">
<title>src/libuvgvpccenc/patchPacking/patchPacking.hpp</title>
<!-- Node1 -->
<g id="Node000001" class="node">
<title>Node1</title>
<g id="a_Node000001"><a xlink:title=" ">
<polygon fill="#999999" stroke="#666666" points="264,-96 93,-96 93,-66 264,-66 264,-96"/>
<text text-anchor="start" x="101" y="-84" font-family="Helvetica,sans-Serif" font-size="10.00">src/libuvgvpccenc/patchPacking</text>
<text text-anchor="middle" x="178.5" y="-73" font-family="Helvetica,sans-Serif" font-size="10.00">/patchPacking.hpp</text>
</a>
</g>
</g>
<!-- Node2 -->
<g id="Node000002" class="node">
<title>Node2</title>
<g id="a_Node000002"><a xlink:href="patchPacking_8cpp.html" target="_top" xlink:title=" ">
<polygon fill="white" stroke="#666666" points="171,-30 0,-30 0,0 171,0 171,-30"/>
<text text-anchor="start" x="8" y="-18" font-family="Helvetica,sans-Serif" font-size="10.00">src/libuvgvpccenc/patchPacking</text>
<text text-anchor="middle" x="85.5" y="-7" font-family="Helvetica,sans-Serif" font-size="10.00">/patchPacking.cpp</text>
</a>
</g>
</g>
<!-- Node1&#45;&gt;Node2 -->
<g id="edge1_Node000001_Node000002" class="edge">
<title>Node1&#45;&gt;Node2</title>
<g id="a_edge1_Node000001_Node000002"><a xlink:title=" ">
<path fill="none" stroke="#63b8ff" d="M149.48,-60.03C135.41,-50.34 118.83,-38.94 106.08,-30.16"/>
<polygon fill="#63b8ff" stroke="#63b8ff" points="147.64,-63.01 157.86,-65.8 151.61,-57.24 147.64,-63.01"/>
</a>
</g>
</g>
<!-- Node3 -->
<g id="Node000003" class="node">
<title>Node3</title>
<g id="a_Node000003"><a xlink:href="uvgvpcc_8cpp.html" target="_top" xlink:title=" ">
<polygon fill="white" stroke="#666666" points="356,-24.5 189,-24.5 189,-5.5 356,-5.5 356,-24.5"/>
<text text-anchor="middle" x="272.5" y="-12.5" font-family="Helvetica,sans-Serif" font-size="10.00">src/libuvgvpccenc/uvgvpcc.cpp</text>
</a>
</g>
</g>
<!-- Node1&#45;&gt;Node3 -->
<g id="edge2_Node000001_Node000003" class="edge">
<title>Node1&#45;&gt;Node3</title>
<g id="a_edge2_Node000001_Node000003"><a xlink:title=" ">
<path fill="none" stroke="#63b8ff" d="M208.06,-59.87C225.46,-48.03 246.58,-33.65 259.78,-24.66"/>
<polygon fill="#63b8ff" stroke="#63b8ff" points="205.66,-57.28 199.36,-65.8 209.6,-63.06 205.66,-57.28"/>
</a>
</g>
</g>
</g>
</svg>
