<?xml version="1.0" encoding="UTF-8" standalone="no"?>
<!DOCTYPE svg PUBLIC "-//W3C//DTD SVG 1.1//EN"
 "http://www.w3.org/Graphics/SVG/1.1/DTD/svg11.dtd">
<!-- Generated by graphviz version 2.43.0 (0)
 -->
<!-- Title: src/lib/patchGeneration/patchSegmentation.cpp Pages: 1 -->
<svg width="1871pt" height="203pt"
 viewBox="0.00 0.00 1871.00 203.00" xmlns="http://www.w3.org/2000/svg" xmlns:xlink="http://www.w3.org/1999/xlink">
<g id="graph0" class="graph" transform="scale(1 1) rotate(0) translate(4 199)">
<title>src/lib/patchGeneration/patchSegmentation.cpp</title>
<!-- Node1 -->
<g id="Node000001" class="node">
<title>Node1</title>
<g id="a_Node000001"><a xlink:title=" ">
<polygon fill="#999999" stroke="#666666" points="935,-195 800,-195 800,-165 935,-165 935,-195"/>
<text text-anchor="start" x="808" y="-183" font-family="Helvetica,sans-Serif" font-size="10.00">src/lib/patchGeneration</text>
<text text-anchor="middle" x="867.5" y="-172" font-family="Helvetica,sans-Serif" font-size="10.00">/patchSegmentation.cpp</text>
</a>
</g>
</g>
<!-- Node2 -->
<g id="Node000002" class="node">
<title>Node2</title>
<g id="a_Node000002"><a xlink:href="patchSegmentation_8hpp.html" target="_top" xlink:title=" ">
<polygon fill="white" stroke="#666666" points="346,-129 213,-129 213,-110 346,-110 346,-129"/>
<text text-anchor="middle" x="279.5" y="-117" font-family="Helvetica,sans-Serif" font-size="10.00">patchSegmentation.hpp</text>
</a>
</g>
</g>
<!-- Node1&#45;&gt;Node2 -->
<g id="edge1_Node000001_Node000002" class="edge">
<title>Node1&#45;&gt;Node2</title>
<g id="a_edge1_Node000001_Node000002"><a xlink:title=" ">
<path fill="none" stroke="#63b8ff" d="M799.83,-172.46C702.61,-163.04 517.79,-145.01 360.5,-129 359.19,-128.87 357.88,-128.73 356.55,-128.6"/>
<polygon fill="#63b8ff" stroke="#63b8ff" points="356.55,-125.08 346.24,-127.54 355.83,-132.04 356.55,-125.08"/>
</a>
</g>
</g>
<!-- Node3 -->
<g id="Node000003" class="node">
<title>Node3</title>
<g id="a_Node000003"><a xlink:href="uvgvpcc_8hpp.html" target="_top" xlink:title=" ">
<polygon fill="white" stroke="#666666" points="431.5,-74 309.5,-74 309.5,-55 431.5,-55 431.5,-74"/>
<text text-anchor="middle" x="370.5" y="-62" font-family="Helvetica,sans-Serif" font-size="10.00">uvgvpcc/uvgvpcc.hpp</text>
</a>
</g>
</g>
<!-- Node1&#45;&gt;Node3 -->
<g id="edge70_Node000001_Node000003" class="edge">
<title>Node1&#45;&gt;Node3</title>
<g id="a_edge70_Node000001_Node000003"><a xlink:title=" ">
<path fill="none" stroke="#63b8ff" d="M799.78,-175.8C676.42,-169.41 424.82,-153.52 393.5,-129 379.82,-118.29 374.27,-98.69 372.02,-84.09"/>
<polygon fill="#63b8ff" stroke="#63b8ff" points="375.49,-83.66 370.87,-74.13 368.54,-84.47 375.49,-83.66"/>
</a>
</g>
</g>
<!-- Node4 -->
<g id="Node000004" class="node">
<title>Node4</title>
<g id="a_Node000004"><a xlink:title=" ">
<polygon fill="#e0e0e0" stroke="#999999" points="53,-19 0,-19 0,0 53,0 53,-19"/>
<text text-anchor="middle" x="26.5" y="-7" font-family="Helvetica,sans-Serif" font-size="10.00">cstddef</text>
</a>
</g>
</g>
<!-- Node1&#45;&gt;Node4 -->
<g id="edge19_Node000001_Node000004" class="edge">
<title>Node1&#45;&gt;Node4</title>
<g id="a_edge19_Node000001_Node000004"><a xlink:title=" ">
<path fill="none" stroke="#63b8ff" d="M799.85,-179.26C648.16,-179.03 285.34,-173.65 172.5,-129 115.8,-106.56 64.12,-53.78 40.31,-26.88"/>
<polygon fill="#63b8ff" stroke="#63b8ff" points="42.79,-24.39 33.59,-19.13 37.5,-28.98 42.79,-24.39"/>
</a>
</g>
</g>
<!-- Node5 -->
<g id="Node000005" class="node">
<title>Node5</title>
<g id="a_Node000005"><a xlink:title=" ">
<polygon fill="#e0e0e0" stroke="#999999" points="919.5,-19 869.5,-19 869.5,0 919.5,0 919.5,-19"/>
<text text-anchor="middle" x="894.5" y="-7" font-family="Helvetica,sans-Serif" font-size="10.00">cstdint</text>
</a>
</g>
</g>
<!-- Node1&#45;&gt;Node5 -->
<g id="edge20_Node000001_Node000005" class="edge">
<title>Node1&#45;&gt;Node5</title>
<g id="a_edge20_Node000001_Node000005"><a xlink:title=" ">
<path fill="none" stroke="#63b8ff" d="M869.76,-164.92C874.61,-134.65 886.03,-63.35 891.49,-29.27"/>
<polygon fill="#63b8ff" stroke="#63b8ff" points="894.97,-29.68 893.1,-19.25 888.06,-28.58 894.97,-29.68"/>
</a>
</g>
</g>
<!-- Node7 -->
<g id="Node000007" class="node">
<title>Node7</title>
<g id="a_Node000007"><a xlink:title=" ">
<polygon fill="#e0e0e0" stroke="#999999" points="129.5,-19 71.5,-19 71.5,0 129.5,0 129.5,-19"/>
<text text-anchor="middle" x="100.5" y="-7" font-family="Helvetica,sans-Serif" font-size="10.00">memory</text>
</a>
</g>
</g>
<!-- Node1&#45;&gt;Node7 -->
<g id="edge21_Node000001_Node000007" class="edge">
<title>Node1&#45;&gt;Node7</title>
<g id="a_edge21_Node000001_Node000007"><a xlink:title=" ">
<path fill="none" stroke="#63b8ff" d="M799.77,-176.81C641.31,-171.28 255.84,-155.27 203.5,-129 158.78,-106.55 125.24,-55.38 109.84,-28.21"/>
<polygon fill="#63b8ff" stroke="#63b8ff" points="112.71,-26.17 104.83,-19.08 106.57,-29.53 112.71,-26.17"/>
</a>
</g>
</g>
<!-- Node11 -->
<g id="Node000011" class="node">
<title>Node11</title>
<g id="a_Node000011"><a xlink:title=" ">
<polygon fill="#e0e0e0" stroke="#999999" points="785.5,-19 741.5,-19 741.5,0 785.5,0 785.5,-19"/>
<text text-anchor="middle" x="763.5" y="-7" font-family="Helvetica,sans-Serif" font-size="10.00">string</text>
</a>
</g>
</g>
<!-- Node1&#45;&gt;Node11 -->
<g id="edge22_Node000001_Node000011" class="edge">
<title>Node1&#45;&gt;Node11</title>
<g id="a_edge22_Node000001_Node000011"><a xlink:title=" ">
<path fill="none" stroke="#63b8ff" d="M821.88,-164.86C781.35,-149.6 724.6,-120.94 698.5,-74 687.03,-53.37 711.17,-35.16 733.22,-23.59"/>
<polygon fill="#63b8ff" stroke="#63b8ff" points="735,-26.62 742.43,-19.05 731.91,-20.34 735,-26.62"/>
</a>
</g>
</g>
<!-- Node12 -->
<g id="Node000012" class="node">
<title>Node12</title>
<g id="a_Node000012"><a xlink:title=" ">
<polygon fill="#e0e0e0" stroke="#999999" points="571,-19 524,-19 524,0 571,0 571,-19"/>
<text text-anchor="middle" x="547.5" y="-7" font-family="Helvetica,sans-Serif" font-size="10.00">vector</text>
</a>
</g>
</g>
<!-- Node1&#45;&gt;Node12 -->
<g id="edge23_Node000001_Node000012" class="edge">
<title>Node1&#45;&gt;Node12</title>
<g id="a_edge23_Node000001_Node000012"><a xlink:title=" ">
<path fill="none" stroke="#63b8ff" d="M799.88,-178.72C723.63,-174.32 602.72,-154.15 544.5,-74 535.18,-61.18 537.26,-42.76 540.89,-29.06"/>
<polygon fill="#63b8ff" stroke="#63b8ff" points="544.3,-29.86 543.93,-19.28 537.62,-27.78 544.3,-29.86"/>
</a>
</g>
</g>
<!-- Node13 -->
<g id="Node000013" class="node">
<title>Node13</title>
<g id="a_Node000013"><a xlink:title=" ">
<polygon fill="#e0e0e0" stroke="#999999" points="1348.5,-19 1284.5,-19 1284.5,0 1348.5,0 1348.5,-19"/>
<text text-anchor="middle" x="1316.5" y="-7" font-family="Helvetica,sans-Serif" font-size="10.00">algorithm</text>
</a>
</g>
</g>
<!-- Node1&#45;&gt;Node13 -->
<g id="edge15_Node000001_Node000013" class="edge">
<title>Node1&#45;&gt;Node13</title>
<g id="a_edge15_Node000001_Node000013"><a xlink:title=" ">
<path fill="none" stroke="#63b8ff" d="M935.11,-175.8C1034.24,-170.25 1213.54,-156.67 1271.5,-129 1303.27,-113.84 1314.74,-106.4 1328.5,-74 1334.73,-59.33 1330.35,-41.39 1325.22,-28.33"/>
<polygon fill="#63b8ff" stroke="#63b8ff" points="1328.37,-26.79 1321.13,-19.05 1321.96,-29.61 1328.37,-26.79"/>
</a>
</g>
</g>
<!-- Node16 -->
<g id="Node000016" class="node">
<title>Node16</title>
<g id="a_Node000016"><a xlink:title=" ">
<polygon fill="#e0e0e0" stroke="#999999" points="1266.5,-19 1224.5,-19 1224.5,0 1266.5,0 1266.5,-19"/>
<text text-anchor="middle" x="1245.5" y="-7" font-family="Helvetica,sans-Serif" font-size="10.00">array</text>
</a>
</g>
</g>
<!-- Node1&#45;&gt;Node16 -->
<g id="edge16_Node000001_Node000016" class="edge">
<title>Node1&#45;&gt;Node16</title>
<g id="a_edge16_Node000001_Node000016"><a xlink:title=" ">
<path fill="none" stroke="#63b8ff" d="M935.14,-173.98C1026.55,-166.49 1184.22,-150.9 1237.5,-129 1275.07,-113.56 1292.37,-110.35 1310.5,-74 1320.97,-53 1297.33,-34.96 1275.68,-23.54"/>
<polygon fill="#63b8ff" stroke="#63b8ff" points="1277.14,-20.36 1266.63,-19.06 1274.04,-26.63 1277.14,-20.36"/>
</a>
</g>
</g>
<!-- Node17 -->
<g id="Node000017" class="node">
<title>Node17</title>
<g id="a_Node000017"><a xlink:title=" ">
<polygon fill="#e0e0e0" stroke="#999999" points="1523.5,-129 1471.5,-129 1471.5,-110 1523.5,-110 1523.5,-129"/>
<text text-anchor="middle" x="1497.5" y="-117" font-family="Helvetica,sans-Serif" font-size="10.00">cassert</text>
</a>
</g>
</g>
<!-- Node1&#45;&gt;Node17 -->
<g id="edge17_Node000001_Node000017" class="edge">
<title>Node1&#45;&gt;Node17</title>
<g id="a_edge17_Node000001_Node000017"><a xlink:title=" ">
<path fill="none" stroke="#63b8ff" d="M935.06,-176.02C1045.03,-170.56 1269.37,-156.85 1457.5,-129 1458.76,-128.81 1460.05,-128.61 1461.34,-128.39"/>
<polygon fill="#63b8ff" stroke="#63b8ff" points="1462.14,-131.81 1471.33,-126.55 1460.87,-124.92 1462.14,-131.81"/>
</a>
</g>
</g>
<!-- Node18 -->
<g id="Node000018" class="node">
<title>Node18</title>
<g id="a_Node000018"><a xlink:title=" ">
<polygon fill="#e0e0e0" stroke="#999999" points="1589,-129 1542,-129 1542,-110 1589,-110 1589,-129"/>
<text text-anchor="middle" x="1565.5" y="-117" font-family="Helvetica,sans-Serif" font-size="10.00">cmath</text>
</a>
</g>
</g>
<!-- Node1&#45;&gt;Node18 -->
<g id="edge18_Node000001_Node000018" class="edge">
<title>Node1&#45;&gt;Node18</title>
<g id="a_edge18_Node000001_Node000018"><a xlink:title=" ">
<path fill="none" stroke="#63b8ff" d="M935.46,-177.85C1054.57,-174.97 1308.73,-164.98 1531.88,-128.77"/>
<polygon fill="#63b8ff" stroke="#63b8ff" points="1532.51,-132.21 1541.81,-127.14 1531.38,-125.3 1532.51,-132.21"/>
</a>
</g>
</g>
<!-- Node19 -->
<g id="Node000019" class="node">
<title>Node19</title>
<g id="a_Node000019"><a xlink:href="robin__hood_8h.html" target="_top" xlink:title=" ">
<polygon fill="white" stroke="#666666" points="1513.5,-74 1433.5,-74 1433.5,-55 1513.5,-55 1513.5,-74"/>
<text text-anchor="middle" x="1473.5" y="-62" font-family="Helvetica,sans-Serif" font-size="10.00">robin_hood.h</text>
</a>
</g>
</g>
<!-- Node1&#45;&gt;Node19 -->
<g id="edge24_Node000001_Node000019" class="edge">
<title>Node1&#45;&gt;Node19</title>
<g id="a_edge24_Node000001_Node000019"><a xlink:title=" ">
<path fill="none" stroke="#63b8ff" d="M935.36,-179.18C1063.77,-178.49 1336.85,-171.84 1419.5,-129 1439.1,-118.84 1454.52,-98.23 1463.78,-83.24"/>
<polygon fill="#63b8ff" stroke="#63b8ff" points="1466.94,-84.77 1468.96,-74.37 1460.89,-81.24 1466.94,-84.77"/>
</a>
</g>
</g>
<!-- Node27 -->
<g id="Node000027" class="node">
<title>Node27</title>
<g id="a_Node000027"><a xlink:href="fileExport_8hpp.html" target="_top" xlink:title=" ">
<polygon fill="white" stroke="#666666" points="510.5,-129 402.5,-129 402.5,-110 510.5,-110 510.5,-129"/>
<text text-anchor="middle" x="456.5" y="-117" font-family="Helvetica,sans-Serif" font-size="10.00">utils/fileExport.hpp</text>
</a>
</g>
</g>
<!-- Node1&#45;&gt;Node27 -->
<g id="edge35_Node000001_Node000027" class="edge">
<title>Node1&#45;&gt;Node27</title>
<g id="a_edge35_Node000001_Node000027"><a xlink:title=" ">
<path fill="none" stroke="#63b8ff" d="M799.63,-169.34C722.17,-158.31 596.42,-140.42 520.58,-129.62"/>
<polygon fill="#63b8ff" stroke="#63b8ff" points="521.07,-126.15 510.67,-128.21 520.08,-133.09 521.07,-126.15"/>
</a>
</g>
</g>
<!-- Node28 -->
<g id="Node000028" class="node">
<title>Node28</title>
<g id="a_Node000028"><a xlink:href="utils_8hpp.html" target="_top" xlink:title=" ">
<polygon fill="white" stroke="#666666" points="1097,-74 1014,-74 1014,-55 1097,-55 1097,-74"/>
<text text-anchor="middle" x="1055.5" y="-62" font-family="Helvetica,sans-Serif" font-size="10.00">utils/utils.hpp</text>
</a>
</g>
</g>
<!-- Node1&#45;&gt;Node28 -->
<g id="edge52_Node000001_Node000028" class="edge">
<title>Node1&#45;&gt;Node28</title>
<g id="a_edge52_Node000001_Node000028"><a xlink:title=" ">
<path fill="none" stroke="#63b8ff" d="M935.13,-175.81C971.48,-170.53 1014.28,-157.98 1041.5,-129 1052.72,-117.05 1055.72,-98.23 1056.21,-84.18"/>
<polygon fill="#63b8ff" stroke="#63b8ff" points="1059.71,-84.14 1056.17,-74.15 1052.71,-84.16 1059.71,-84.14"/>
</a>
</g>
</g>
<!-- Node30 -->
<g id="Node000030" class="node">
<title>Node30</title>
<g id="a_Node000030"><a xlink:href="parameters_8hpp.html" target="_top" xlink:title=" ">
<polygon fill="white" stroke="#666666" points="1032.5,-129 914.5,-129 914.5,-110 1032.5,-110 1032.5,-129"/>
<text text-anchor="middle" x="973.5" y="-117" font-family="Helvetica,sans-Serif" font-size="10.00">utils/parameters.hpp</text>
</a>
</g>
</g>
<!-- Node1&#45;&gt;Node30 -->
<g id="edge47_Node000001_Node000030" class="edge">
<title>Node1&#45;&gt;Node30</title>
<g id="a_edge47_Node000001_Node000030"><a xlink:title=" ">
<path fill="none" stroke="#63b8ff" d="M892.89,-164.99C909.79,-155.66 931.88,-143.47 948.66,-134.21"/>
<polygon fill="#63b8ff" stroke="#63b8ff" points="950.78,-137.04 957.85,-129.14 947.4,-130.91 950.78,-137.04"/>
</a>
</g>
</g>
<!-- Node31 -->
<g id="Node000031" class="node">
<title>Node31</title>
<g id="a_Node000031"><a xlink:href="utilsPatchGeneration_8hpp.html" target="_top" xlink:title=" ">
<polygon fill="white" stroke="#666666" points="1228,-129 1089,-129 1089,-110 1228,-110 1228,-129"/>
<text text-anchor="middle" x="1158.5" y="-117" font-family="Helvetica,sans-Serif" font-size="10.00">utilsPatchGeneration.hpp</text>
</a>
</g>
</g>
<!-- Node1&#45;&gt;Node31 -->
<g id="edge53_Node000001_Node000031" class="edge">
<title>Node1&#45;&gt;Node31</title>
<g id="a_edge53_Node000001_Node000031"><a xlink:title=" ">
<path fill="none" stroke="#63b8ff" d="M935.36,-165.36C987.41,-154.89 1058.22,-140.66 1106,-131.05"/>
<polygon fill="#63b8ff" stroke="#63b8ff" points="1106.71,-134.48 1115.83,-129.08 1105.33,-127.62 1106.71,-134.48"/>
</a>
</g>
</g>
<!-- Node33 -->
<g id="Node000033" class="node">
<title>Node33</title>
<g id="a_Node000033"><a xlink:href="log_8hpp.html" target="_top" xlink:title=" ">
<polygon fill="white" stroke="#666666" points="995.5,-74 899.5,-74 899.5,-55 995.5,-55 995.5,-74"/>
<text text-anchor="middle" x="947.5" y="-62" font-family="Helvetica,sans-Serif" font-size="10.00">uvgvpcc/log.hpp</text>
</a>
</g>
</g>
<!-- Node1&#45;&gt;Node33 -->
<g id="edge69_Node000001_Node000033" class="edge">
<title>Node1&#45;&gt;Node33</title>
<g id="a_edge69_Node000001_Node000033"><a xlink:title=" ">
<path fill="none" stroke="#63b8ff" d="M873.96,-164.9C880.84,-150.5 892.53,-127.79 905.5,-110 912.99,-99.72 922.66,-89.32 930.84,-81.17"/>
<polygon fill="#63b8ff" stroke="#63b8ff" points="933.37,-83.59 938.09,-74.11 928.49,-78.57 933.37,-83.59"/>
</a>
</g>
</g>
<!-- Node38 -->
<g id="Node000038" class="node">
<title>Node38</title>
<g id="a_Node000038"><a xlink:href="statsCollector_8hpp.html" target="_top" xlink:title=" ">
<polygon fill="white" stroke="#666666" points="843.5,-74 715.5,-74 715.5,-55 843.5,-55 843.5,-74"/>
<text text-anchor="middle" x="779.5" y="-62" font-family="Helvetica,sans-Serif" font-size="10.00">utils/statsCollector.hpp</text>
</a>
</g>
</g>
<!-- Node1&#45;&gt;Node38 -->
<g id="edge71_Node000001_Node000038" class="edge">
<title>Node1&#45;&gt;Node38</title>
<g id="a_edge71_Node000001_Node000038"><a xlink:title=" ">
<path fill="none" stroke="#63b8ff" d="M856.35,-164.63C840.1,-143.65 809.93,-104.75 792.62,-82.42"/>
<polygon fill="#63b8ff" stroke="#63b8ff" points="795.16,-79.99 786.27,-74.23 789.63,-84.28 795.16,-79.99"/>
</a>
</g>
</g>
<!-- Node2&#45;&gt;Node3 -->
<g id="edge2_Node000002_Node000003" class="edge">
<title>Node2&#45;&gt;Node3</title>
<g id="a_edge2_Node000002_Node000003"><a xlink:title=" ">
<path fill="none" stroke="#63b8ff" d="M294.12,-109.98C308.36,-101.69 330.25,-88.94 346.95,-79.22"/>
<polygon fill="#63b8ff" stroke="#63b8ff" points="348.73,-82.23 355.61,-74.17 345.21,-76.18 348.73,-82.23"/>
</a>
</g>
</g>
<!-- Node3&#45;&gt;Node4 -->
<g id="edge3_Node000003_Node000004" class="edge">
<title>Node3&#45;&gt;Node4</title>
<g id="a_edge3_Node000003_Node000004"><a xlink:title=" ">
<path fill="none" stroke="#63b8ff" d="M309.46,-56.3C249.32,-48.83 154.64,-36.11 63.16,-18.97"/>
<polygon fill="#63b8ff" stroke="#63b8ff" points="63.66,-15.5 53.18,-17.08 62.35,-22.38 63.66,-15.5"/>
</a>
</g>
</g>
<!-- Node3&#45;&gt;Node5 -->
<g id="edge4_Node000003_Node000005" class="edge">
<title>Node3&#45;&gt;Node5</title>
<g id="a_edge4_Node000003_Node000005"><a xlink:title=" ">
<path fill="none" stroke="#63b8ff" d="M431.62,-60.98C522.82,-56.56 699.97,-45.4 859.35,-18.93"/>
<polygon fill="#63b8ff" stroke="#63b8ff" points="860.06,-22.36 869.34,-17.25 858.9,-15.46 860.06,-22.36"/>
</a>
</g>
</g>
<!-- Node6 -->
<g id="Node000006" class="node">
<title>Node6</title>
<g id="a_Node000006"><a xlink:title=" ">
<polygon fill="#e0e0e0" stroke="#999999" points="649.5,-19 589.5,-19 589.5,0 649.5,0 649.5,-19"/>
<text text-anchor="middle" x="619.5" y="-7" font-family="Helvetica,sans-Serif" font-size="10.00">iostream</text>
</a>
</g>
</g>
<!-- Node3&#45;&gt;Node6 -->
<g id="edge5_Node000003_Node000006" class="edge">
<title>Node3&#45;&gt;Node6</title>
<g id="a_edge5_Node000003_Node000006"><a xlink:title=" ">
<path fill="none" stroke="#63b8ff" d="M410.51,-54.98C456.9,-45.11 532.93,-28.93 579.38,-19.04"/>
<polygon fill="#63b8ff" stroke="#63b8ff" points="580.33,-22.42 589.38,-16.91 578.87,-15.57 580.33,-22.42"/>
</a>
</g>
</g>
<!-- Node3&#45;&gt;Node7 -->
<g id="edge6_Node000003_Node000007" class="edge">
<title>Node3&#45;&gt;Node7</title>
<g id="a_edge6_Node000003_Node000007"><a xlink:title=" ">
<path fill="none" stroke="#63b8ff" d="M323.76,-54.97C278.95,-46.69 209.17,-33.55 139.37,-19.13"/>
<polygon fill="#63b8ff" stroke="#63b8ff" points="140.03,-15.69 129.53,-17.09 138.61,-22.55 140.03,-15.69"/>
</a>
</g>
</g>
<!-- Node8 -->
<g id="Node000008" class="node">
<title>Node8</title>
<g id="a_Node000008"><a xlink:title=" ">
<polygon fill="#e0e0e0" stroke="#999999" points="195,-19 148,-19 148,0 195,0 195,-19"/>
<text text-anchor="middle" x="171.5" y="-7" font-family="Helvetica,sans-Serif" font-size="10.00">queue</text>
</a>
</g>
</g>
<!-- Node3&#45;&gt;Node8 -->
<g id="edge7_Node000003_Node000008" class="edge">
<title>Node3&#45;&gt;Node8</title>
<g id="a_edge7_Node000003_Node000008"><a xlink:title=" ">
<path fill="none" stroke="#63b8ff" d="M338.53,-54.98C301.97,-45.25 242.39,-29.38 205.15,-19.46"/>
<polygon fill="#63b8ff" stroke="#63b8ff" points="205.84,-16.02 195.28,-16.83 204.04,-22.79 205.84,-16.02"/>
</a>
</g>
</g>
<!-- Node9 -->
<g id="Node000009" class="node">
<title>Node9</title>
<g id="a_Node000009"><a xlink:title=" ">
<polygon fill="#e0e0e0" stroke="#999999" points="284,-19 213,-19 213,0 284,0 284,-19"/>
<text text-anchor="middle" x="248.5" y="-7" font-family="Helvetica,sans-Serif" font-size="10.00">semaphore</text>
</a>
</g>
</g>
<!-- Node3&#45;&gt;Node9 -->
<g id="edge8_Node000003_Node000009" class="edge">
<title>Node3&#45;&gt;Node9</title>
<g id="a_edge8_Node000003_Node000009"><a xlink:title=" ">
<path fill="none" stroke="#63b8ff" d="M350.9,-54.98C331.18,-46.42 300.55,-33.11 277.92,-23.28"/>
<polygon fill="#63b8ff" stroke="#63b8ff" points="279.02,-19.94 268.46,-19.17 276.24,-26.37 279.02,-19.94"/>
</a>
</g>
</g>
<!-- Node10 -->
<g id="Node000010" class="node">
<title>Node10</title>
<g id="a_Node000010"><a xlink:title=" ">
<polygon fill="#e0e0e0" stroke="#999999" points="723.5,-19 667.5,-19 667.5,0 723.5,0 723.5,-19"/>
<text text-anchor="middle" x="695.5" y="-7" font-family="Helvetica,sans-Serif" font-size="10.00">sstream</text>
</a>
</g>
</g>
<!-- Node3&#45;&gt;Node10 -->
<g id="edge9_Node000003_Node000010" class="edge">
<title>Node3&#45;&gt;Node10</title>
<g id="a_edge9_Node000003_Node000010"><a xlink:title=" ">
<path fill="none" stroke="#63b8ff" d="M431.68,-55.36C487.91,-47.58 573.77,-34.95 657.35,-19.11"/>
<polygon fill="#63b8ff" stroke="#63b8ff" points="658.1,-22.53 667.26,-17.21 656.78,-15.65 658.1,-22.53"/>
</a>
</g>
</g>
<!-- Node3&#45;&gt;Node11 -->
<g id="edge10_Node000003_Node000011" class="edge">
<title>Node3&#45;&gt;Node11</title>
<g id="a_edge10_Node000003_Node000011"><a xlink:title=" ">
<path fill="none" stroke="#63b8ff" d="M431.78,-58.7C502,-52.59 620.62,-40.41 731.25,-18.98"/>
<polygon fill="#63b8ff" stroke="#63b8ff" points="732.1,-22.38 741.24,-17.02 730.75,-15.51 732.1,-22.38"/>
</a>
</g>
</g>
<!-- Node3&#45;&gt;Node12 -->
<g id="edge11_Node000003_Node000012" class="edge">
<title>Node3&#45;&gt;Node12</title>
<g id="a_edge11_Node000003_Node000012"><a xlink:title=" ">
<path fill="none" stroke="#63b8ff" d="M398.94,-54.98C430.38,-45.57 480.96,-30.42 514.22,-20.46"/>
<polygon fill="#63b8ff" stroke="#63b8ff" points="515.37,-23.77 523.95,-17.55 513.36,-17.07 515.37,-23.77"/>
</a>
</g>
</g>
<!-- Node3&#45;&gt;Node13 -->
<g id="edge12_Node000003_Node000013" class="edge">
<title>Node3&#45;&gt;Node13</title>
<g id="a_edge12_Node000003_Node000013"><a xlink:title=" ">
<path fill="none" stroke="#63b8ff" d="M431.79,-61.73C604.37,-56.55 1093.06,-40.49 1274.4,-18.89"/>
<polygon fill="#63b8ff" stroke="#63b8ff" points="1274.86,-22.36 1284.35,-17.66 1274,-15.41 1274.86,-22.36"/>
</a>
</g>
</g>
<!-- Node14 -->
<g id="Node000014" class="node">
<title>Node14</title>
<g id="a_Node000014"><a xlink:title=" ">
<polygon fill="#e0e0e0" stroke="#999999" points="395,-19 302,-19 302,0 395,0 395,-19"/>
<text text-anchor="middle" x="348.5" y="-7" font-family="Helvetica,sans-Serif" font-size="10.00">unordered_map</text>
</a>
</g>
</g>
<!-- Node3&#45;&gt;Node14 -->
<g id="edge13_Node000003_Node000014" class="edge">
<title>Node3&#45;&gt;Node14</title>
<g id="a_edge13_Node000003_Node000014"><a xlink:title=" ">
<path fill="none" stroke="#63b8ff" d="M366.87,-54.75C363.92,-47.65 359.67,-37.4 355.99,-28.56"/>
<polygon fill="#63b8ff" stroke="#63b8ff" points="359.13,-26.98 352.07,-19.09 352.67,-29.67 359.13,-26.98"/>
</a>
</g>
</g>
<!-- Node15 -->
<g id="Node000015" class="node">
<title>Node15</title>
<g id="a_Node000015"><a xlink:title=" ">
<polygon fill="#e0e0e0" stroke="#999999" points="505.5,-19 413.5,-19 413.5,0 505.5,0 505.5,-19"/>
<text text-anchor="middle" x="459.5" y="-7" font-family="Helvetica,sans-Serif" font-size="10.00">../utils/utils.hpp</text>
</a>
</g>
</g>
<!-- Node3&#45;&gt;Node15 -->
<g id="edge14_Node000003_Node000015" class="edge">
<title>Node3&#45;&gt;Node15</title>
<g id="a_edge14_Node000003_Node000015"><a xlink:title=" ">
<path fill="none" stroke="#63b8ff" d="M384.8,-54.98C398.6,-46.77 419.74,-34.18 436.01,-24.49"/>
<polygon fill="#63b8ff" stroke="#63b8ff" points="438.14,-27.29 444.94,-19.17 434.56,-21.28 438.14,-27.29"/>
</a>
</g>
</g>
<!-- Node19&#45;&gt;Node7 -->
<g id="edge30_Node000019_Node000007" class="edge">
<title>Node19&#45;&gt;Node7</title>
<g id="a_edge30_Node000019_Node000007"><a xlink:title=" ">
<path fill="none" stroke="#63b8ff" d="M1433.32,-61.16C1400.33,-59.31 1352.4,-56.74 1310.5,-55 793.12,-33.57 657.26,-83.53 139.83,-18.9"/>
<polygon fill="#63b8ff" stroke="#63b8ff" points="140.22,-15.42 129.86,-17.64 139.35,-22.36 140.22,-15.42"/>
</a>
</g>
</g>
<!-- Node19&#45;&gt;Node11 -->
<g id="edge32_Node000019_Node000011" class="edge">
<title>Node19&#45;&gt;Node11</title>
<g id="a_edge32_Node000019_Node000011"><a xlink:title=" ">
<path fill="none" stroke="#63b8ff" d="M1433.08,-61.33C1301.86,-54.22 891.19,-31.44 795.76,-18.68"/>
<polygon fill="#63b8ff" stroke="#63b8ff" points="796.14,-15.2 785.73,-17.17 795.1,-22.12 796.14,-15.2"/>
</a>
</g>
</g>
<!-- Node19&#45;&gt;Node13 -->
<g id="edge25_Node000019_Node000013" class="edge">
<title>Node19&#45;&gt;Node13</title>
<g id="a_edge25_Node000019_Node000013"><a xlink:title=" ">
<path fill="none" stroke="#63b8ff" d="M1448.28,-54.98C1422.14,-46.16 1381.1,-32.31 1351.77,-22.41"/>
<polygon fill="#63b8ff" stroke="#63b8ff" points="1352.52,-18.96 1341.92,-19.08 1350.28,-25.6 1352.52,-18.96"/>
</a>
</g>
</g>
<!-- Node20 -->
<g id="Node000020" class="node">
<title>Node20</title>
<g id="a_Node000020"><a xlink:title=" ">
<polygon fill="#e0e0e0" stroke="#999999" points="1561,-19 1512,-19 1512,0 1561,0 1561,-19"/>
<text text-anchor="middle" x="1536.5" y="-7" font-family="Helvetica,sans-Serif" font-size="10.00">cstdlib</text>
</a>
</g>
</g>
<!-- Node19&#45;&gt;Node20 -->
<g id="edge26_Node000019_Node000020" class="edge">
<title>Node19&#45;&gt;Node20</title>
<g id="a_edge26_Node000019_Node000020"><a xlink:title=" ">
<path fill="none" stroke="#63b8ff" d="M1483.62,-54.98C1492.94,-47.15 1506.97,-35.34 1518.24,-25.86"/>
<polygon fill="#63b8ff" stroke="#63b8ff" points="1520.79,-28.29 1526.19,-19.17 1516.29,-22.93 1520.79,-28.29"/>
</a>
</g>
</g>
<!-- Node21 -->
<g id="Node000021" class="node">
<title>Node21</title>
<g id="a_Node000021"><a xlink:title=" ">
<polygon fill="#e0e0e0" stroke="#999999" points="1629.5,-19 1579.5,-19 1579.5,0 1629.5,0 1629.5,-19"/>
<text text-anchor="middle" x="1604.5" y="-7" font-family="Helvetica,sans-Serif" font-size="10.00">cstring</text>
</a>
</g>
</g>
<!-- Node19&#45;&gt;Node21 -->
<g id="edge27_Node000019_Node000021" class="edge">
<title>Node19&#45;&gt;Node21</title>
<g id="a_edge27_Node000019_Node000021"><a xlink:title=" ">
<path fill="none" stroke="#63b8ff" d="M1494.55,-54.98C1515.91,-46.34 1549.2,-32.87 1573.56,-23.02"/>
<polygon fill="#63b8ff" stroke="#63b8ff" points="1575.11,-26.17 1583.07,-19.17 1572.49,-19.68 1575.11,-26.17"/>
</a>
</g>
</g>
<!-- Node22 -->
<g id="Node000022" class="node">
<title>Node22</title>
<g id="a_Node000022"><a xlink:title=" ">
<polygon fill="#e0e0e0" stroke="#999999" points="1713,-19 1648,-19 1648,0 1713,0 1713,-19"/>
<text text-anchor="middle" x="1680.5" y="-7" font-family="Helvetica,sans-Serif" font-size="10.00">functional</text>
</a>
</g>
</g>
<!-- Node19&#45;&gt;Node22 -->
<g id="edge28_Node000019_Node000022" class="edge">
<title>Node19&#45;&gt;Node22</title>
<g id="a_edge28_Node000019_Node000022"><a xlink:title=" ">
<path fill="none" stroke="#63b8ff" d="M1506.76,-54.98C1542.32,-45.88 1598.84,-31.41 1637.7,-21.46"/>
<polygon fill="#63b8ff" stroke="#63b8ff" points="1638.85,-24.78 1647.67,-18.91 1637.11,-18 1638.85,-24.78"/>
</a>
</g>
</g>
<!-- Node23 -->
<g id="Node000023" class="node">
<title>Node23</title>
<g id="a_Node000023"><a xlink:title=" ">
<polygon fill="#e0e0e0" stroke="#999999" points="1410.5,-19 1366.5,-19 1366.5,0 1410.5,0 1410.5,-19"/>
<text text-anchor="middle" x="1388.5" y="-7" font-family="Helvetica,sans-Serif" font-size="10.00">limits</text>
</a>
</g>
</g>
<!-- Node19&#45;&gt;Node23 -->
<g id="edge29_Node000019_Node000023" class="edge">
<title>Node19&#45;&gt;Node23</title>
<g id="a_edge29_Node000019_Node000023"><a xlink:title=" ">
<path fill="none" stroke="#63b8ff" d="M1459.84,-54.98C1446.66,-46.77 1426.47,-34.18 1410.93,-24.49"/>
<polygon fill="#63b8ff" stroke="#63b8ff" points="1412.74,-21.49 1402.41,-19.17 1409.04,-27.43 1412.74,-21.49"/>
</a>
</g>
</g>
<!-- Node24 -->
<g id="Node000024" class="node">
<title>Node24</title>
<g id="a_Node000024"><a xlink:title=" ">
<polygon fill="#e0e0e0" stroke="#999999" points="1494,-19 1429,-19 1429,0 1494,0 1494,-19"/>
<text text-anchor="middle" x="1461.5" y="-7" font-family="Helvetica,sans-Serif" font-size="10.00">stdexcept</text>
</a>
</g>
</g>
<!-- Node19&#45;&gt;Node24 -->
<g id="edge31_Node000019_Node000024" class="edge">
<title>Node19&#45;&gt;Node24</title>
<g id="a_edge31_Node000019_Node000024"><a xlink:title=" ">
<path fill="none" stroke="#63b8ff" d="M1471.52,-54.75C1469.93,-47.72 1467.64,-37.62 1465.65,-28.84"/>
<polygon fill="#63b8ff" stroke="#63b8ff" points="1469.07,-28.07 1463.44,-19.09 1462.24,-29.62 1469.07,-28.07"/>
</a>
</g>
</g>
<!-- Node25 -->
<g id="Node000025" class="node">
<title>Node25</title>
<g id="a_Node000025"><a xlink:title=" ">
<polygon fill="#e0e0e0" stroke="#999999" points="1800,-19 1731,-19 1731,0 1800,0 1800,-19"/>
<text text-anchor="middle" x="1765.5" y="-7" font-family="Helvetica,sans-Serif" font-size="10.00">type_traits</text>
</a>
</g>
</g>
<!-- Node19&#45;&gt;Node25 -->
<g id="edge33_Node000019_Node000025" class="edge">
<title>Node19&#45;&gt;Node25</title>
<g id="a_edge33_Node000019_Node000025"><a xlink:title=" ">
<path fill="none" stroke="#63b8ff" d="M1513.65,-56.56C1560.88,-48.34 1641.92,-34.08 1720.69,-19.32"/>
<polygon fill="#63b8ff" stroke="#63b8ff" points="1721.6,-22.71 1730.78,-17.42 1720.3,-15.83 1721.6,-22.71"/>
</a>
</g>
</g>
<!-- Node26 -->
<g id="Node000026" class="node">
<title>Node26</title>
<g id="a_Node000026"><a xlink:title=" ">
<polygon fill="#e0e0e0" stroke="#999999" points="1863,-19 1818,-19 1818,0 1863,0 1863,-19"/>
<text text-anchor="middle" x="1840.5" y="-7" font-family="Helvetica,sans-Serif" font-size="10.00">utility</text>
</a>
</g>
</g>
<!-- Node19&#45;&gt;Node26 -->
<g id="edge34_Node000019_Node000026" class="edge">
<title>Node19&#45;&gt;Node26</title>
<g id="a_edge34_Node000019_Node000026"><a xlink:title=" ">
<path fill="none" stroke="#63b8ff" d="M1513.62,-59.97C1575.07,-54.17 1696.3,-41.2 1807.83,-19.1"/>
<polygon fill="#63b8ff" stroke="#63b8ff" points="1808.79,-22.48 1817.9,-17.08 1807.4,-15.62 1808.79,-22.48"/>
</a>
</g>
</g>
<!-- Node27&#45;&gt;Node3 -->
<g id="edge46_Node000027_Node000003" class="edge">
<title>Node27&#45;&gt;Node3</title>
<g id="a_edge46_Node000027_Node000003"><a xlink:title=" ">
<path fill="none" stroke="#63b8ff" d="M442.68,-109.98C429.35,-101.77 408.92,-89.18 393.19,-79.49"/>
<polygon fill="#63b8ff" stroke="#63b8ff" points="394.92,-76.44 384.57,-74.17 391.25,-82.4 394.92,-76.44"/>
</a>
</g>
</g>
<!-- Node27&#45;&gt;Node4 -->
<g id="edge36_Node000027_Node000004" class="edge">
<title>Node27&#45;&gt;Node4</title>
<g id="a_edge36_Node000027_Node000004"><a xlink:title=" ">
<path fill="none" stroke="#63b8ff" d="M407.71,-109.99C362.93,-101.86 294.88,-88.7 236.5,-74 174.23,-58.32 102.89,-35.75 61.44,-22.17"/>
<polygon fill="#63b8ff" stroke="#63b8ff" points="62.42,-18.8 51.82,-19 60.23,-25.45 62.42,-18.8"/>
</a>
</g>
</g>
<!-- Node27&#45;&gt;Node7 -->
<g id="edge37_Node000027_Node000007" class="edge">
<title>Node27&#45;&gt;Node7</title>
<g id="a_edge37_Node000027_Node000007"><a xlink:title=" ">
<path fill="none" stroke="#63b8ff" d="M425.64,-109.99C394.11,-101.22 343.78,-87.04 300.5,-74 242.78,-56.61 176.11,-35.17 136.19,-22.18"/>
<polygon fill="#63b8ff" stroke="#63b8ff" points="137.22,-18.84 126.63,-19.07 135.06,-25.49 137.22,-18.84"/>
</a>
</g>
</g>
<!-- Node27&#45;&gt;Node11 -->
<g id="edge38_Node000027_Node000011" class="edge">
<title>Node27&#45;&gt;Node11</title>
<g id="a_edge38_Node000027_Node000011"><a xlink:title=" ">
<path fill="none" stroke="#63b8ff" d="M480.51,-109.93C514.85,-97.68 579.97,-74.5 635.5,-55 668.23,-43.51 705.71,-30.49 731.62,-21.52"/>
<polygon fill="#63b8ff" stroke="#63b8ff" points="732.98,-24.75 741.29,-18.18 730.69,-18.14 732.98,-24.75"/>
</a>
</g>
</g>
<!-- Node27&#45;&gt;Node12 -->
<g id="edge39_Node000027_Node000012" class="edge">
<title>Node27&#45;&gt;Node12</title>
<g id="a_edge39_Node000027_Node000012"><a xlink:title=" ">
<path fill="none" stroke="#63b8ff" d="M458.52,-109.89C461.9,-96.88 469.75,-71.92 483.5,-55 493.74,-42.41 508.42,-31.85 521.15,-24.18"/>
<polygon fill="#63b8ff" stroke="#63b8ff" points="523.04,-27.13 529.97,-19.12 519.55,-21.06 523.04,-27.13"/>
</a>
</g>
</g>
<!-- Node27&#45;&gt;Node28 -->
<g id="edge40_Node000027_Node000028" class="edge">
<title>Node27&#45;&gt;Node28</title>
<g id="a_edge40_Node000027_Node000028"><a xlink:title=" ">
<path fill="none" stroke="#63b8ff" d="M510.71,-115.61C607.54,-110.13 816.75,-96.78 1003.78,-73.98"/>
<polygon fill="#63b8ff" stroke="#63b8ff" points="1004.3,-77.44 1013.79,-72.74 1003.44,-70.49 1004.3,-77.44"/>
</a>
</g>
</g>
<!-- Node28&#45;&gt;Node5 -->
<g id="edge42_Node000028_Node000005" class="edge">
<title>Node28&#45;&gt;Node5</title>
<g id="a_edge42_Node000028_Node000005"><a xlink:title=" ">
<path fill="none" stroke="#63b8ff" d="M1029.63,-54.98C1002.4,-46.02 959.37,-31.86 929.21,-21.92"/>
<polygon fill="#63b8ff" stroke="#63b8ff" points="930.1,-18.54 919.51,-18.73 927.91,-25.18 930.1,-18.54"/>
</a>
</g>
</g>
<!-- Node28&#45;&gt;Node10 -->
<g id="edge44_Node000028_Node000010" class="edge">
<title>Node28&#45;&gt;Node10</title>
<g id="a_edge44_Node000028_Node000010"><a xlink:title=" ">
<path fill="none" stroke="#63b8ff" d="M1013.77,-56.43C1010.63,-55.93 1007.52,-55.45 1004.5,-55 887.08,-37.45 854.22,-40.5 733.71,-19.07"/>
<polygon fill="#63b8ff" stroke="#63b8ff" points="734.19,-15.6 723.73,-17.27 732.95,-22.49 734.19,-15.6"/>
</a>
</g>
</g>
<!-- Node28&#45;&gt;Node16 -->
<g id="edge41_Node000028_Node000016" class="edge">
<title>Node28&#45;&gt;Node16</title>
<g id="a_edge41_Node000028_Node000016"><a xlink:title=" ">
<path fill="none" stroke="#63b8ff" d="M1086.48,-54.93C1116.77,-46.54 1164.45,-33.31 1214.5,-19.27"/>
<polygon fill="#63b8ff" stroke="#63b8ff" points="1215.52,-22.62 1224.2,-16.55 1213.62,-15.88 1215.52,-22.62"/>
</a>
</g>
</g>
<!-- Node28&#45;&gt;Node23 -->
<g id="edge43_Node000028_Node000023" class="edge">
<title>Node28&#45;&gt;Node23</title>
<g id="a_edge43_Node000028_Node000023"><a xlink:title=" ">
<path fill="none" stroke="#63b8ff" d="M1097.31,-58.97C1153.91,-52.47 1258.22,-39.25 1356.16,-19.06"/>
<polygon fill="#63b8ff" stroke="#63b8ff" points="1357.16,-22.43 1366.23,-16.95 1355.72,-15.57 1357.16,-22.43"/>
</a>
</g>
</g>
<!-- Node29 -->
<g id="Node000029" class="node">
<title>Node29</title>
<g id="a_Node000029"><a xlink:title=" ">
<polygon fill="#e0e0e0" stroke="#999999" points="1206.5,-19 1150.5,-19 1150.5,0 1206.5,0 1206.5,-19"/>
<text text-anchor="middle" x="1178.5" y="-7" font-family="Helvetica,sans-Serif" font-size="10.00">iomanip</text>
</a>
</g>
</g>
<!-- Node28&#45;&gt;Node29 -->
<g id="edge45_Node000028_Node000029" class="edge">
<title>Node28&#45;&gt;Node29</title>
<g id="a_edge45_Node000028_Node000029"><a xlink:title=" ">
<path fill="none" stroke="#63b8ff" d="M1075.26,-54.98C1095.23,-46.38 1126.3,-32.99 1149.15,-23.15"/>
<polygon fill="#63b8ff" stroke="#63b8ff" points="1150.58,-26.34 1158.38,-19.17 1147.81,-19.91 1150.58,-26.34"/>
</a>
</g>
</g>
<!-- Node30&#45;&gt;Node11 -->
<g id="edge49_Node000030_Node000011" class="edge">
<title>Node30&#45;&gt;Node11</title>
<g id="a_edge49_Node000030_Node000011"><a xlink:title=" ">
<path fill="none" stroke="#63b8ff" d="M914.26,-117.22C843.85,-114.3 732.58,-104.79 706.5,-74 691.67,-56.49 715.65,-36.93 736.9,-24.2"/>
<polygon fill="#63b8ff" stroke="#63b8ff" points="738.76,-27.17 745.72,-19.19 735.3,-21.09 738.76,-27.17"/>
</a>
</g>
</g>
<!-- Node30&#45;&gt;Node12 -->
<g id="edge50_Node000030_Node000012" class="edge">
<title>Node30&#45;&gt;Node12</title>
<g id="a_edge50_Node000030_Node000012"><a xlink:title=" ">
<path fill="none" stroke="#63b8ff" d="M914.44,-116C806.27,-110.87 585.06,-97.6 559.5,-74 547.53,-62.95 545.28,-44.01 545.57,-29.68"/>
<polygon fill="#63b8ff" stroke="#63b8ff" points="549.08,-29.62 546.21,-19.42 542.1,-29.18 549.08,-29.62"/>
</a>
</g>
</g>
<!-- Node30&#45;&gt;Node24 -->
<g id="edge48_Node000030_Node000024" class="edge">
<title>Node30&#45;&gt;Node24</title>
<g id="a_edge48_Node000030_Node000024"><a xlink:title=" ">
<path fill="none" stroke="#63b8ff" d="M1003.75,-109.97C1050.15,-97.05 1141.78,-72.22 1220.5,-55 1305.22,-36.47 1329.53,-35.93 1418.92,-19.07"/>
<polygon fill="#63b8ff" stroke="#63b8ff" points="1419.78,-22.46 1428.95,-17.16 1418.48,-15.59 1419.78,-22.46"/>
</a>
</g>
</g>
<!-- Node30&#45;&gt;Node28 -->
<g id="edge51_Node000030_Node000028" class="edge">
<title>Node30&#45;&gt;Node28</title>
<g id="a_edge51_Node000030_Node000028"><a xlink:title=" ">
<path fill="none" stroke="#63b8ff" d="M986.67,-109.98C999.27,-101.84 1018.5,-89.41 1033.44,-79.76"/>
<polygon fill="#63b8ff" stroke="#63b8ff" points="1035.59,-82.54 1042.09,-74.17 1031.79,-76.66 1035.59,-82.54"/>
</a>
</g>
</g>
<!-- Node31&#45;&gt;Node4 -->
<g id="edge63_Node000031_Node000004" class="edge">
<title>Node31&#45;&gt;Node4</title>
<g id="a_edge63_Node000031_Node000004"><a xlink:title=" ">
<path fill="none" stroke="#63b8ff" d="M1088.92,-113.17C1073.32,-112.05 1056.85,-110.93 1041.5,-110 712.38,-90.05 627.02,-119.84 300.5,-74 263.88,-68.86 255.52,-63.35 219.5,-55 152.76,-39.52 133.83,-35.56 63.08,-19.12"/>
<polygon fill="#63b8ff" stroke="#63b8ff" points="63.76,-15.69 53.23,-16.83 62.18,-22.51 63.76,-15.69"/>
</a>
</g>
</g>
<!-- Node31&#45;&gt;Node5 -->
<g id="edge64_Node000031_Node000005" class="edge">
<title>Node31&#45;&gt;Node5</title>
<g id="a_edge64_Node000031_Node000005"><a xlink:title=" ">
<path fill="none" stroke="#63b8ff" d="M1153.92,-109.92C1146.02,-96.01 1128.44,-68.69 1105.5,-55 1039.25,-15.47 1009.18,-35.05 929.67,-19.07"/>
<polygon fill="#63b8ff" stroke="#63b8ff" points="930.23,-15.61 919.72,-16.94 928.77,-22.46 930.23,-15.61"/>
</a>
</g>
</g>
<!-- Node31&#45;&gt;Node12 -->
<g id="edge66_Node000031_Node000012" class="edge">
<title>Node31&#45;&gt;Node12</title>
<g id="a_edge66_Node000031_Node000012"><a xlink:title=" ">
<path fill="none" stroke="#63b8ff" d="M1088.8,-112.72C971.21,-102.82 742.65,-82.81 706.5,-74 658.03,-62.19 604.77,-38.57 573.84,-23.7"/>
<polygon fill="#63b8ff" stroke="#63b8ff" points="575.14,-20.44 564.61,-19.21 572.07,-26.74 575.14,-20.44"/>
</a>
</g>
</g>
<!-- Node31&#45;&gt;Node13 -->
<g id="edge67_Node000031_Node000013" class="edge">
<title>Node31&#45;&gt;Node13</title>
<g id="a_edge67_Node000031_Node000013"><a xlink:title=" ">
<path fill="none" stroke="#63b8ff" d="M1228.11,-115C1257.94,-109.74 1290.46,-98.28 1310.5,-74 1320.73,-61.6 1321.29,-42.84 1319.85,-28.92"/>
<polygon fill="#63b8ff" stroke="#63b8ff" points="1323.32,-28.41 1318.42,-19.01 1316.39,-29.41 1323.32,-28.41"/>
</a>
</g>
</g>
<!-- Node31&#45;&gt;Node19 -->
<g id="edge68_Node000031_Node000019" class="edge">
<title>Node31&#45;&gt;Node19</title>
<g id="a_edge68_Node000031_Node000019"><a xlink:title=" ">
<path fill="none" stroke="#63b8ff" d="M1209.11,-109.98C1267.84,-100.1 1364.13,-83.9 1422.87,-74.02"/>
<polygon fill="#63b8ff" stroke="#63b8ff" points="1423.75,-77.42 1433.03,-72.31 1422.59,-70.52 1423.75,-77.42"/>
</a>
</g>
</g>
<!-- Node31&#45;&gt;Node28 -->
<g id="edge55_Node000031_Node000028" class="edge">
<title>Node31&#45;&gt;Node28</title>
<g id="a_edge55_Node000031_Node000028"><a xlink:title=" ">
<path fill="none" stroke="#63b8ff" d="M1141.95,-109.98C1125.61,-101.57 1100.37,-88.59 1081.37,-78.81"/>
<polygon fill="#63b8ff" stroke="#63b8ff" points="1082.84,-75.63 1072.35,-74.17 1079.64,-81.86 1082.84,-75.63"/>
</a>
</g>
</g>
<!-- Node32 -->
<g id="Node000032" class="node">
<title>Node32</title>
<g id="a_Node000032"><a xlink:title=" ">
<polygon fill="#e0e0e0" stroke="#999999" points="1301.5,-74 1229.5,-74 1229.5,-55 1301.5,-55 1301.5,-74"/>
<text text-anchor="middle" x="1265.5" y="-62" font-family="Helvetica,sans-Serif" font-size="10.00">sys/types.h</text>
</a>
</g>
</g>
<!-- Node31&#45;&gt;Node32 -->
<g id="edge54_Node000031_Node000032" class="edge">
<title>Node31&#45;&gt;Node32</title>
<g id="a_edge54_Node000031_Node000032"><a xlink:title=" ">
<path fill="none" stroke="#63b8ff" d="M1175.69,-109.98C1192.75,-101.54 1219.13,-88.47 1238.9,-78.68"/>
<polygon fill="#63b8ff" stroke="#63b8ff" points="1240.59,-81.75 1248,-74.17 1237.48,-75.47 1240.59,-81.75"/>
</a>
</g>
</g>
<!-- Node31&#45;&gt;Node33 -->
<g id="edge56_Node000031_Node000033" class="edge">
<title>Node31&#45;&gt;Node33</title>
<g id="a_edge56_Node000031_Node000033"><a xlink:title=" ">
<path fill="none" stroke="#63b8ff" d="M1124.6,-109.98C1088.48,-100.91 1031.18,-86.52 991.58,-76.57"/>
<polygon fill="#63b8ff" stroke="#63b8ff" points="992.22,-73.12 981.67,-74.08 990.51,-79.91 992.22,-73.12"/>
</a>
</g>
</g>
<!-- Node37 -->
<g id="Node000037" class="node">
<title>Node37</title>
<g id="a_Node000037"><a xlink:title=" ">
<polygon fill="#e0e0e0" stroke="#999999" points="1064,-19 1009,-19 1009,0 1064,0 1064,-19"/>
<text text-anchor="middle" x="1036.5" y="-7" font-family="Helvetica,sans-Serif" font-size="10.00">fstream</text>
</a>
</g>
</g>
<!-- Node31&#45;&gt;Node37 -->
<g id="edge65_Node000031_Node000037" class="edge">
<title>Node31&#45;&gt;Node37</title>
<g id="a_edge65_Node000031_Node000037"><a xlink:title=" ">
<path fill="none" stroke="#63b8ff" d="M1158.14,-109.57C1157.15,-96.14 1153.42,-70.65 1139.5,-55 1130.15,-44.48 1098.52,-31.65 1072.76,-22.48"/>
<polygon fill="#63b8ff" stroke="#63b8ff" points="1073.82,-19.14 1063.23,-19.15 1071.52,-25.75 1073.82,-19.14"/>
</a>
</g>
</g>
<!-- Node33&#45;&gt;Node6 -->
<g id="edge60_Node000033_Node000006" class="edge">
<title>Node33&#45;&gt;Node6</title>
<g id="a_edge60_Node000033_Node000006"><a xlink:title=" ">
<path fill="none" stroke="#63b8ff" d="M899.28,-57C843.8,-49.32 749.75,-35.67 659.54,-19.1"/>
<polygon fill="#63b8ff" stroke="#63b8ff" points="660.17,-15.65 649.7,-17.27 658.89,-22.54 660.17,-15.65"/>
</a>
</g>
</g>
<!-- Node33&#45;&gt;Node11 -->
<g id="edge61_Node000033_Node000011" class="edge">
<title>Node33&#45;&gt;Node11</title>
<g id="a_edge61_Node000033_Node000011"><a xlink:title=" ">
<path fill="none" stroke="#63b8ff" d="M917.94,-54.98C884.52,-45.36 830.29,-29.74 795.79,-19.8"/>
<polygon fill="#63b8ff" stroke="#63b8ff" points="796.33,-16.32 785.76,-16.91 794.4,-23.04 796.33,-16.32"/>
</a>
</g>
</g>
<!-- Node33&#45;&gt;Node29 -->
<g id="edge59_Node000033_Node000029" class="edge">
<title>Node33&#45;&gt;Node29</title>
<g id="a_edge59_Node000033_Node000029"><a xlink:title=" ">
<path fill="none" stroke="#63b8ff" d="M984.69,-54.97C1021.69,-46.49 1080.34,-33.04 1140.21,-19.3"/>
<polygon fill="#63b8ff" stroke="#63b8ff" points="1141.26,-22.65 1150.22,-17 1139.69,-15.82 1141.26,-22.65"/>
</a>
</g>
</g>
<!-- Node34 -->
<g id="Node000034" class="node">
<title>Node34</title>
<g id="a_Node000034"><a xlink:title=" ">
<polygon fill="#e0e0e0" stroke="#999999" points="1132.5,-19 1082.5,-19 1082.5,0 1132.5,0 1132.5,-19"/>
<text text-anchor="middle" x="1107.5" y="-7" font-family="Helvetica,sans-Serif" font-size="10.00">chrono</text>
</a>
</g>
</g>
<!-- Node33&#45;&gt;Node34 -->
<g id="edge57_Node000033_Node000034" class="edge">
<title>Node33&#45;&gt;Node34</title>
<g id="a_edge57_Node000033_Node000034"><a xlink:title=" ">
<path fill="none" stroke="#63b8ff" d="M973.21,-54.98C1000.19,-46.05 1042.78,-31.94 1072.75,-22.01"/>
<polygon fill="#63b8ff" stroke="#63b8ff" points="1073.99,-25.29 1082.38,-18.82 1071.79,-18.64 1073.99,-25.29"/>
</a>
</g>
</g>
<!-- Node35 -->
<g id="Node000035" class="node">
<title>Node35</title>
<g id="a_Node000035"><a xlink:title=" ">
<polygon fill="#e0e0e0" stroke="#999999" points="991,-19 938,-19 938,0 991,0 991,-19"/>
<text text-anchor="middle" x="964.5" y="-7" font-family="Helvetica,sans-Serif" font-size="10.00">cstdarg</text>
</a>
</g>
</g>
<!-- Node33&#45;&gt;Node35 -->
<g id="edge58_Node000033_Node000035" class="edge">
<title>Node33&#45;&gt;Node35</title>
<g id="a_edge58_Node000033_Node000035"><a xlink:title=" ">
<path fill="none" stroke="#63b8ff" d="M950.31,-54.75C952.56,-47.72 955.8,-37.62 958.62,-28.84"/>
<polygon fill="#63b8ff" stroke="#63b8ff" points="962.02,-29.68 961.75,-19.09 955.36,-27.54 962.02,-29.68"/>
</a>
</g>
</g>
<!-- Node36 -->
<g id="Node000036" class="node">
<title>Node36</title>
<g id="a_Node000036"><a xlink:title=" ">
<polygon fill="#e0e0e0" stroke="#999999" points="851.5,-19 803.5,-19 803.5,0 851.5,0 851.5,-19"/>
<text text-anchor="middle" x="827.5" y="-7" font-family="Helvetica,sans-Serif" font-size="10.00">mutex</text>
</a>
</g>
</g>
<!-- Node33&#45;&gt;Node36 -->
<g id="edge62_Node000033_Node000036" class="edge">
<title>Node33&#45;&gt;Node36</title>
<g id="a_edge62_Node000033_Node000036"><a xlink:title=" ">
<path fill="none" stroke="#63b8ff" d="M928.22,-54.98C908.83,-46.42 878.69,-33.11 856.43,-23.28"/>
<polygon fill="#63b8ff" stroke="#63b8ff" points="857.69,-20.01 847.13,-19.17 854.86,-26.41 857.69,-20.01"/>
</a>
</g>
</g>
<!-- Node38&#45;&gt;Node5 -->
<g id="edge75_Node000038_Node000005" class="edge">
<title>Node38&#45;&gt;Node5</title>
<g id="a_edge75_Node000038_Node000005"><a xlink:title=" ">
<path fill="none" stroke="#63b8ff" d="M797.98,-54.98C816.48,-46.46 845.18,-33.23 866.48,-23.41"/>
<polygon fill="#63b8ff" stroke="#63b8ff" points="868.07,-26.53 875.69,-19.17 865.14,-20.18 868.07,-26.53"/>
</a>
</g>
</g>
<!-- Node38&#45;&gt;Node6 -->
<g id="edge77_Node000038_Node000006" class="edge">
<title>Node38&#45;&gt;Node6</title>
<g id="a_edge77_Node000038_Node000006"><a xlink:title=" ">
<path fill="none" stroke="#63b8ff" d="M753.79,-54.98C727.05,-46.13 684.97,-32.19 655.05,-22.28"/>
<polygon fill="#63b8ff" stroke="#63b8ff" points="656,-18.9 645.41,-19.08 653.8,-25.55 656,-18.9"/>
</a>
</g>
</g>
<!-- Node38&#45;&gt;Node11 -->
<g id="edge74_Node000038_Node000011" class="edge">
<title>Node38&#45;&gt;Node11</title>
<g id="a_edge74_Node000038_Node000011"><a xlink:title=" ">
<path fill="none" stroke="#63b8ff" d="M776.86,-54.75C774.74,-47.72 771.69,-37.62 769.04,-28.84"/>
<polygon fill="#63b8ff" stroke="#63b8ff" points="772.33,-27.65 766.09,-19.09 765.63,-29.67 772.33,-27.65"/>
</a>
</g>
</g>
<!-- Node38&#45;&gt;Node12 -->
<g id="edge76_Node000038_Node000012" class="edge">
<title>Node38&#45;&gt;Node12</title>
<g id="a_edge76_Node000038_Node000012"><a xlink:title=" ">
<path fill="none" stroke="#63b8ff" d="M739.39,-54.93C701.18,-46.67 641.81,-33.62 581.03,-19.07"/>
<polygon fill="#63b8ff" stroke="#63b8ff" points="581.81,-15.65 571.27,-16.72 580.18,-22.46 581.81,-15.65"/>
</a>
</g>
</g>
<!-- Node38&#45;&gt;Node36 -->
<g id="edge73_Node000038_Node000036" class="edge">
<title>Node38&#45;&gt;Node36</title>
<g id="a_edge73_Node000038_Node000036"><a xlink:title=" ">
<path fill="none" stroke="#63b8ff" d="M787.43,-54.75C794.35,-47.11 804.57,-35.82 812.95,-26.56"/>
<polygon fill="#63b8ff" stroke="#63b8ff" points="815.6,-28.85 819.72,-19.09 810.41,-24.15 815.6,-28.85"/>
</a>
</g>
</g>
<!-- Node38&#45;&gt;Node37 -->
<g id="edge72_Node000038_Node000037" class="edge">
<title>Node38&#45;&gt;Node37</title>
<g id="a_edge72_Node000038_Node000037"><a xlink:title=" ">
<path fill="none" stroke="#63b8ff" d="M823.4,-54.97C865.77,-46.66 931.99,-33.47 998.78,-19.11"/>
<polygon fill="#63b8ff" stroke="#63b8ff" points="999.6,-22.51 1008.64,-16.98 998.12,-15.67 999.6,-22.51"/>
</a>
</g>
</g>
</g>
</svg>
