<?xml version="1.0" encoding="UTF-8" standalone="no"?>
<!DOCTYPE svg PUBLIC "-//W3C//DTD SVG 1.1//EN"
 "http://www.w3.org/Graphics/SVG/1.1/DTD/svg11.dtd">
<!-- Generated by graphviz version 2.43.0 (0)
 -->
<!-- Title: src/lib/patchGeneration/patchSegmentation.cpp Pages: 1 -->
<svg width="1688pt" height="203pt"
 viewBox="0.00 0.00 1687.50 203.00" xmlns="http://www.w3.org/2000/svg" xmlns:xlink="http://www.w3.org/1999/xlink">
<g id="graph0" class="graph" transform="scale(1 1) rotate(0) translate(4 199)">
<title>src/lib/patchGeneration/patchSegmentation.cpp</title>
<!-- Node1 -->
<g id="Node000001" class="node">
<title>Node1</title>
<g id="a_Node000001"><a xlink:title=" ">
<polygon fill="#999999" stroke="#666666" points="777,-195 642,-195 642,-165 777,-165 777,-195"/>
<text text-anchor="start" x="650" y="-183" font-family="Helvetica,sans-Serif" font-size="10.00">src/lib/patchGeneration</text>
<text text-anchor="middle" x="709.5" y="-172" font-family="Helvetica,sans-Serif" font-size="10.00">/patchSegmentation.cpp</text>
</a>
</g>
</g>
<!-- Node2 -->
<g id="Node000002" class="node">
<title>Node2</title>
<g id="a_Node000002"><a xlink:href="patchSegmentation_8hpp.html" target="_top" xlink:title=" ">
<polygon fill="white" stroke="#666666" points="364,-129 231,-129 231,-110 364,-110 364,-129"/>
<text text-anchor="middle" x="297.5" y="-117" font-family="Helvetica,sans-Serif" font-size="10.00">patchSegmentation.hpp</text>
</a>
</g>
</g>
<!-- Node1&#45;&gt;Node2 -->
<g id="edge1_Node000001_Node000002" class="edge">
<title>Node1&#45;&gt;Node2</title>
<g id="a_edge1_Node000001_Node000002"><a xlink:title=" ">
<path fill="none" stroke="#63b8ff" d="M641.93,-169.41C566.23,-158.66 444.1,-141.32 367.44,-130.43"/>
<polygon fill="#63b8ff" stroke="#63b8ff" points="367.8,-126.95 357.4,-129.01 366.81,-133.88 367.8,-126.95"/>
</a>
</g>
</g>
<!-- Node3 -->
<g id="Node000003" class="node">
<title>Node3</title>
<g id="a_Node000003"><a xlink:href="uvgvpcc_8hpp.html" target="_top" xlink:title=" ">
<polygon fill="white" stroke="#666666" points="370.5,-74 248.5,-74 248.5,-55 370.5,-55 370.5,-74"/>
<text text-anchor="middle" x="309.5" y="-62" font-family="Helvetica,sans-Serif" font-size="10.00">uvgvpcc/uvgvpcc.hpp</text>
</a>
</g>
</g>
<!-- Node1&#45;&gt;Node3 -->
<g id="edge65_Node000001_Node000003" class="edge">
<title>Node1&#45;&gt;Node3</title>
<g id="a_edge65_Node000001_Node000003"><a xlink:title=" ">
<path fill="none" stroke="#63b8ff" d="M641.87,-177C514.47,-172.53 249.14,-159.62 221.5,-129 201.99,-107.39 238.09,-88.73 269.78,-77.34"/>
<polygon fill="#63b8ff" stroke="#63b8ff" points="271.08,-80.59 279.41,-74.04 268.81,-73.97 271.08,-80.59"/>
</a>
</g>
</g>
<!-- Node4 -->
<g id="Node000004" class="node">
<title>Node4</title>
<g id="a_Node000004"><a xlink:title=" ">
<polygon fill="#e0e0e0" stroke="#999999" points="53,-19 0,-19 0,0 53,0 53,-19"/>
<text text-anchor="middle" x="26.5" y="-7" font-family="Helvetica,sans-Serif" font-size="10.00">cstddef</text>
</a>
</g>
</g>
<!-- Node1&#45;&gt;Node4 -->
<g id="edge17_Node000001_Node000004" class="edge">
<title>Node1&#45;&gt;Node4</title>
<g id="a_edge17_Node000001_Node000004"><a xlink:title=" ">
<path fill="none" stroke="#63b8ff" d="M641.87,-176.47C522.79,-171.33 280.79,-157.64 201.5,-129 136.48,-105.51 72.38,-52.41 43.06,-26.01"/>
<polygon fill="#63b8ff" stroke="#63b8ff" points="45.17,-23.19 35.43,-19.03 40.44,-28.36 45.17,-23.19"/>
</a>
</g>
</g>
<!-- Node5 -->
<g id="Node000005" class="node">
<title>Node5</title>
<g id="a_Node000005"><a xlink:title=" ">
<polygon fill="#e0e0e0" stroke="#999999" points="602.5,-19 552.5,-19 552.5,0 602.5,0 602.5,-19"/>
<text text-anchor="middle" x="577.5" y="-7" font-family="Helvetica,sans-Serif" font-size="10.00">cstdint</text>
</a>
</g>
</g>
<!-- Node1&#45;&gt;Node5 -->
<g id="edge18_Node000001_Node000005" class="edge">
<title>Node1&#45;&gt;Node5</title>
<g id="a_edge18_Node000001_Node000005"><a xlink:title=" ">
<path fill="none" stroke="#63b8ff" d="M681.55,-164.82C666.45,-156.08 648.32,-143.74 635.5,-129 608.92,-98.44 591.39,-53.56 583.08,-28.72"/>
<polygon fill="#63b8ff" stroke="#63b8ff" points="586.39,-27.58 580,-19.12 579.73,-29.71 586.39,-27.58"/>
</a>
</g>
</g>
<!-- Node7 -->
<g id="Node000007" class="node">
<title>Node7</title>
<g id="a_Node000007"><a xlink:title=" ">
<polygon fill="#e0e0e0" stroke="#999999" points="394.5,-19 336.5,-19 336.5,0 394.5,0 394.5,-19"/>
<text text-anchor="middle" x="365.5" y="-7" font-family="Helvetica,sans-Serif" font-size="10.00">memory</text>
</a>
</g>
</g>
<!-- Node1&#45;&gt;Node7 -->
<g id="edge19_Node000001_Node000007" class="edge">
<title>Node1&#45;&gt;Node7</title>
<g id="a_edge19_Node000001_Node000007"><a xlink:title=" ">
<path fill="none" stroke="#63b8ff" d="M641.63,-177.13C512.28,-172.86 240.75,-160.23 212.5,-129 193.24,-107.7 217.11,-74.92 239.5,-55 252.64,-43.31 294.4,-29.86 326.28,-20.84"/>
<polygon fill="#63b8ff" stroke="#63b8ff" points="327.53,-24.12 336.23,-18.07 325.66,-17.38 327.53,-24.12"/>
</a>
</g>
</g>
<!-- Node11 -->
<g id="Node000011" class="node">
<title>Node11</title>
<g id="a_Node000011"><a xlink:title=" ">
<polygon fill="#e0e0e0" stroke="#999999" points="742.5,-19 698.5,-19 698.5,0 742.5,0 742.5,-19"/>
<text text-anchor="middle" x="720.5" y="-7" font-family="Helvetica,sans-Serif" font-size="10.00">string</text>
</a>
</g>
</g>
<!-- Node1&#45;&gt;Node11 -->
<g id="edge20_Node000001_Node000011" class="edge">
<title>Node1&#45;&gt;Node11</title>
<g id="a_edge20_Node000001_Node000011"><a xlink:title=" ">
<path fill="none" stroke="#63b8ff" d="M679.04,-164.94C664.88,-156.66 649.44,-144.69 641.5,-129 637.69,-121.47 638.72,-117.97 641.5,-110 653.57,-75.38 683.28,-43.76 702.63,-25.85"/>
<polygon fill="#63b8ff" stroke="#63b8ff" points="705.11,-28.33 710.21,-19.04 700.43,-23.12 705.11,-28.33"/>
</a>
</g>
</g>
<!-- Node12 -->
<g id="Node000012" class="node">
<title>Node12</title>
<g id="a_Node000012"><a xlink:title=" ">
<polygon fill="#e0e0e0" stroke="#999999" points="460,-19 413,-19 413,0 460,0 460,-19"/>
<text text-anchor="middle" x="436.5" y="-7" font-family="Helvetica,sans-Serif" font-size="10.00">vector</text>
</a>
</g>
</g>
<!-- Node1&#45;&gt;Node12 -->
<g id="edge21_Node000001_Node000012" class="edge">
<title>Node1&#45;&gt;Node12</title>
<g id="a_edge21_Node000001_Node000012"><a xlink:title=" ">
<path fill="none" stroke="#63b8ff" d="M682.52,-164.86C664.26,-155.12 639.68,-141.69 618.5,-129 559.08,-93.4 491.2,-47.86 457.62,-24.99"/>
<polygon fill="#63b8ff" stroke="#63b8ff" points="459.32,-21.91 449.09,-19.17 455.37,-27.69 459.32,-21.91"/>
</a>
</g>
</g>
<!-- Node14 -->
<g id="Node000014" class="node">
<title>Node14</title>
<g id="a_Node000014"><a xlink:title=" ">
<polygon fill="#e0e0e0" stroke="#999999" points="1679.5,-19 1615.5,-19 1615.5,0 1679.5,0 1679.5,-19"/>
<text text-anchor="middle" x="1647.5" y="-7" font-family="Helvetica,sans-Serif" font-size="10.00">algorithm</text>
</a>
</g>
</g>
<!-- Node1&#45;&gt;Node14 -->
<g id="edge13_Node000001_Node000014" class="edge">
<title>Node1&#45;&gt;Node14</title>
<g id="a_edge13_Node000001_Node000014"><a xlink:title=" ">
<path fill="none" stroke="#63b8ff" d="M777.28,-171.03C850.35,-162.11 969.99,-146.6 1072.5,-129 1273.13,-94.56 1510.69,-41.73 1605.44,-20.17"/>
<polygon fill="#63b8ff" stroke="#63b8ff" points="1606.25,-23.57 1615.22,-17.94 1604.69,-16.75 1606.25,-23.57"/>
</a>
</g>
</g>
<!-- Node15 -->
<g id="Node000015" class="node">
<title>Node15</title>
<g id="a_Node000015"><a xlink:title=" ">
<polygon fill="#e0e0e0" stroke="#999999" points="802.5,-19 760.5,-19 760.5,0 802.5,0 802.5,-19"/>
<text text-anchor="middle" x="781.5" y="-7" font-family="Helvetica,sans-Serif" font-size="10.00">array</text>
</a>
</g>
</g>
<!-- Node1&#45;&gt;Node15 -->
<g id="edge14_Node000001_Node000015" class="edge">
<title>Node1&#45;&gt;Node15</title>
<g id="a_edge14_Node000001_Node000015"><a xlink:title=" ">
<path fill="none" stroke="#63b8ff" d="M777.25,-175.67C846.79,-170.66 948.16,-158.4 972.5,-129 993.47,-103.67 993.06,-80.67 972.5,-55 928.63,-0.23 886.37,-33.81 812.86,-18.99"/>
<polygon fill="#63b8ff" stroke="#63b8ff" points="813.29,-15.5 802.77,-16.68 811.74,-22.32 813.29,-15.5"/>
</a>
</g>
</g>
<!-- Node16 -->
<g id="Node000016" class="node">
<title>Node16</title>
<g id="a_Node000016"><a xlink:title=" ">
<polygon fill="#e0e0e0" stroke="#999999" points="1332.5,-129 1280.5,-129 1280.5,-110 1332.5,-110 1332.5,-129"/>
<text text-anchor="middle" x="1306.5" y="-117" font-family="Helvetica,sans-Serif" font-size="10.00">cassert</text>
</a>
</g>
</g>
<!-- Node1&#45;&gt;Node16 -->
<g id="edge15_Node000001_Node000016" class="edge">
<title>Node1&#45;&gt;Node16</title>
<g id="a_edge15_Node000001_Node000016"><a xlink:title=" ">
<path fill="none" stroke="#63b8ff" d="M777.12,-175.55C882.24,-169.6 1091.05,-155.42 1266.5,-129 1267.76,-128.81 1269.05,-128.6 1270.34,-128.39"/>
<polygon fill="#63b8ff" stroke="#63b8ff" points="1271.14,-131.8 1280.33,-126.53 1269.86,-124.92 1271.14,-131.8"/>
</a>
</g>
</g>
<!-- Node17 -->
<g id="Node000017" class="node">
<title>Node17</title>
<g id="a_Node000017"><a xlink:title=" ">
<polygon fill="#e0e0e0" stroke="#999999" points="1398,-129 1351,-129 1351,-110 1398,-110 1398,-129"/>
<text text-anchor="middle" x="1374.5" y="-117" font-family="Helvetica,sans-Serif" font-size="10.00">cmath</text>
</a>
</g>
</g>
<!-- Node1&#45;&gt;Node17 -->
<g id="edge16_Node000001_Node000017" class="edge">
<title>Node1&#45;&gt;Node17</title>
<g id="a_edge16_Node000001_Node000017"><a xlink:title=" ">
<path fill="none" stroke="#63b8ff" d="M777.31,-177.48C891.72,-174.07 1130.34,-163.35 1340.81,-128.79"/>
<polygon fill="#63b8ff" stroke="#63b8ff" points="1341.52,-132.22 1350.81,-127.12 1340.37,-125.31 1341.52,-132.22"/>
</a>
</g>
</g>
<!-- Node18 -->
<g id="Node000018" class="node">
<title>Node18</title>
<g id="a_Node000018"><a xlink:href="robin__hood_8h.html" target="_top" xlink:title=" ">
<polygon fill="white" stroke="#666666" points="1224.5,-74 1144.5,-74 1144.5,-55 1224.5,-55 1224.5,-74"/>
<text text-anchor="middle" x="1184.5" y="-62" font-family="Helvetica,sans-Serif" font-size="10.00">robin_hood.h</text>
</a>
</g>
</g>
<!-- Node1&#45;&gt;Node18 -->
<g id="edge22_Node000001_Node000018" class="edge">
<title>Node1&#45;&gt;Node18</title>
<g id="a_edge22_Node000001_Node000018"><a xlink:title=" ">
<path fill="none" stroke="#63b8ff" d="M777.23,-173.42C843.5,-166.82 946.83,-153.51 1033.5,-129 1078.98,-116.14 1129.06,-93.21 1158.59,-78.71"/>
<polygon fill="#63b8ff" stroke="#63b8ff" points="1160.38,-81.73 1167.78,-74.14 1157.27,-75.46 1160.38,-81.73"/>
</a>
</g>
</g>
<!-- Node26 -->
<g id="Node000026" class="node">
<title>Node26</title>
<g id="a_Node000026"><a xlink:href="fileExport_8hpp.html" target="_top" xlink:title=" ">
<polygon fill="white" stroke="#666666" points="490.5,-129 382.5,-129 382.5,-110 490.5,-110 490.5,-129"/>
<text text-anchor="middle" x="436.5" y="-117" font-family="Helvetica,sans-Serif" font-size="10.00">utils/fileExport.hpp</text>
</a>
</g>
</g>
<!-- Node1&#45;&gt;Node26 -->
<g id="edge33_Node000001_Node000026" class="edge">
<title>Node1&#45;&gt;Node26</title>
<g id="a_edge33_Node000001_Node000026"><a xlink:title=" ">
<path fill="none" stroke="#63b8ff" d="M644.11,-164.99C595.67,-154.61 530.65,-140.68 486.37,-131.19"/>
<polygon fill="#63b8ff" stroke="#63b8ff" points="486.93,-127.73 476.42,-129.05 485.46,-134.57 486.93,-127.73"/>
</a>
</g>
</g>
<!-- Node27 -->
<g id="Node000027" class="node">
<title>Node27</title>
<g id="a_Node000027"><a xlink:href="utils_8hpp.html" target="_top" xlink:title=" ">
<polygon fill="white" stroke="#666666" points="814,-74 731,-74 731,-55 814,-55 814,-74"/>
<text text-anchor="middle" x="772.5" y="-62" font-family="Helvetica,sans-Serif" font-size="10.00">utils/utils.hpp</text>
</a>
</g>
</g>
<!-- Node1&#45;&gt;Node27 -->
<g id="edge50_Node000001_Node000027" class="edge">
<title>Node1&#45;&gt;Node27</title>
<g id="a_edge50_Node000001_Node000027"><a xlink:title=" ">
<path fill="none" stroke="#63b8ff" d="M739.96,-164.94C754.12,-156.66 769.56,-144.69 777.5,-129 784.52,-115.12 782.32,-97.33 778.91,-84.11"/>
<polygon fill="#63b8ff" stroke="#63b8ff" points="782.18,-82.83 775.94,-74.27 775.48,-84.86 782.18,-82.83"/>
</a>
</g>
</g>
<!-- Node29 -->
<g id="Node000029" class="node">
<title>Node29</title>
<g id="a_Node000029"><a xlink:href="parameters_8hpp.html" target="_top" xlink:title=" ">
<polygon fill="white" stroke="#666666" points="768.5,-129 650.5,-129 650.5,-110 768.5,-110 768.5,-129"/>
<text text-anchor="middle" x="709.5" y="-117" font-family="Helvetica,sans-Serif" font-size="10.00">utils/parameters.hpp</text>
</a>
</g>
</g>
<!-- Node1&#45;&gt;Node29 -->
<g id="edge45_Node000001_Node000029" class="edge">
<title>Node1&#45;&gt;Node29</title>
<g id="a_edge45_Node000001_Node000029"><a xlink:title=" ">
<path fill="none" stroke="#63b8ff" d="M709.5,-164.84C709.5,-157.21 709.5,-147.7 709.5,-139.45"/>
<polygon fill="#63b8ff" stroke="#63b8ff" points="713,-139.27 709.5,-129.27 706,-139.27 713,-139.27"/>
</a>
</g>
</g>
<!-- Node30 -->
<g id="Node000030" class="node">
<title>Node30</title>
<g id="a_Node000030"><a xlink:href="utilsPatchGeneration_8hpp.html" target="_top" xlink:title=" ">
<polygon fill="white" stroke="#666666" points="964,-129 825,-129 825,-110 964,-110 964,-129"/>
<text text-anchor="middle" x="894.5" y="-117" font-family="Helvetica,sans-Serif" font-size="10.00">utilsPatchGeneration.hpp</text>
</a>
</g>
</g>
<!-- Node1&#45;&gt;Node30 -->
<g id="edge51_Node000001_Node000030" class="edge">
<title>Node1&#45;&gt;Node30</title>
<g id="a_edge51_Node000001_Node000030"><a xlink:title=" ">
<path fill="none" stroke="#63b8ff" d="M753.81,-164.99C785.6,-154.94 827.92,-141.55 857.82,-132.1"/>
<polygon fill="#63b8ff" stroke="#63b8ff" points="858.97,-135.41 867.45,-129.05 856.86,-128.73 858.97,-135.41"/>
</a>
</g>
</g>
<!-- Node31 -->
<g id="Node000031" class="node">
<title>Node31</title>
<g id="a_Node000031"><a xlink:href="log_8hpp.html" target="_top" xlink:title=" ">
<polygon fill="white" stroke="#666666" points="1116.5,-74 1020.5,-74 1020.5,-55 1116.5,-55 1116.5,-74"/>
<text text-anchor="middle" x="1068.5" y="-62" font-family="Helvetica,sans-Serif" font-size="10.00">uvgvpcc/log.hpp</text>
</a>
</g>
</g>
<!-- Node1&#45;&gt;Node31 -->
<g id="edge64_Node000001_Node000031" class="edge">
<title>Node1&#45;&gt;Node31</title>
<g id="a_edge64_Node000001_Node000031"><a xlink:title=" ">
<path fill="none" stroke="#63b8ff" d="M777.27,-179.37C840.05,-177.08 934.34,-166.76 1006.5,-129 1027.53,-118 1045.7,-97.25 1056.83,-82.46"/>
<polygon fill="#63b8ff" stroke="#63b8ff" points="1059.81,-84.32 1062.82,-74.17 1054.13,-80.23 1059.81,-84.32"/>
</a>
</g>
</g>
<!-- Node2&#45;&gt;Node3 -->
<g id="edge2_Node000002_Node000003" class="edge">
<title>Node2&#45;&gt;Node3</title>
<g id="a_edge2_Node000002_Node000003"><a xlink:title=" ">
<path fill="none" stroke="#63b8ff" d="M299.48,-109.75C301.07,-102.72 303.36,-92.62 305.35,-83.84"/>
<polygon fill="#63b8ff" stroke="#63b8ff" points="308.76,-84.62 307.56,-74.09 301.93,-83.07 308.76,-84.62"/>
</a>
</g>
</g>
<!-- Node3&#45;&gt;Node4 -->
<g id="edge3_Node000003_Node000004" class="edge">
<title>Node3&#45;&gt;Node4</title>
<g id="a_edge3_Node000003_Node000004"><a xlink:title=" ">
<path fill="none" stroke="#63b8ff" d="M257.3,-54.93C209.35,-46.87 136.1,-34.09 63.04,-19.02"/>
<polygon fill="#63b8ff" stroke="#63b8ff" points="63.7,-15.58 53.2,-16.97 62.28,-22.43 63.7,-15.58"/>
</a>
</g>
</g>
<!-- Node3&#45;&gt;Node5 -->
<g id="edge4_Node000003_Node000005" class="edge">
<title>Node3&#45;&gt;Node5</title>
<g id="a_edge4_Node000003_Node000005"><a xlink:title=" ">
<path fill="none" stroke="#63b8ff" d="M358.97,-54.94C404.22,-46.92 473.24,-34.21 542.13,-19.2"/>
<polygon fill="#63b8ff" stroke="#63b8ff" points="543.27,-22.54 552.29,-16.97 541.77,-15.7 543.27,-22.54"/>
</a>
</g>
</g>
<!-- Node6 -->
<g id="Node000006" class="node">
<title>Node6</title>
<g id="a_Node000006"><a xlink:title=" ">
<polygon fill="#e0e0e0" stroke="#999999" points="680.5,-19 620.5,-19 620.5,0 680.5,0 680.5,-19"/>
<text text-anchor="middle" x="650.5" y="-7" font-family="Helvetica,sans-Serif" font-size="10.00">iostream</text>
</a>
</g>
</g>
<!-- Node3&#45;&gt;Node6 -->
<g id="edge5_Node000003_Node000006" class="edge">
<title>Node3&#45;&gt;Node6</title>
<g id="a_edge5_Node000003_Node000006"><a xlink:title=" ">
<path fill="none" stroke="#63b8ff" d="M370.72,-55.73C429.67,-47.96 521.54,-35.12 610.34,-19.11"/>
<polygon fill="#63b8ff" stroke="#63b8ff" points="611.1,-22.53 620.31,-17.29 609.84,-15.64 611.1,-22.53"/>
</a>
</g>
</g>
<!-- Node3&#45;&gt;Node7 -->
<g id="edge6_Node000003_Node000007" class="edge">
<title>Node3&#45;&gt;Node7</title>
<g id="a_edge6_Node000003_Node000007"><a xlink:title=" ">
<path fill="none" stroke="#63b8ff" d="M318.5,-54.98C326.69,-47.23 339.01,-35.58 348.97,-26.14"/>
<polygon fill="#63b8ff" stroke="#63b8ff" points="351.48,-28.59 356.34,-19.17 346.67,-23.5 351.48,-28.59"/>
</a>
</g>
</g>
<!-- Node8 -->
<g id="Node000008" class="node">
<title>Node8</title>
<g id="a_Node000008"><a xlink:title=" ">
<polygon fill="#e0e0e0" stroke="#999999" points="229,-19 182,-19 182,0 229,0 229,-19"/>
<text text-anchor="middle" x="205.5" y="-7" font-family="Helvetica,sans-Serif" font-size="10.00">queue</text>
</a>
</g>
</g>
<!-- Node3&#45;&gt;Node8 -->
<g id="edge7_Node000003_Node000008" class="edge">
<title>Node3&#45;&gt;Node8</title>
<g id="a_edge7_Node000003_Node000008"><a xlink:title=" ">
<path fill="none" stroke="#63b8ff" d="M292.79,-54.98C276.29,-46.57 250.8,-33.59 231.62,-23.81"/>
<polygon fill="#63b8ff" stroke="#63b8ff" points="233.01,-20.59 222.51,-19.17 229.83,-26.83 233.01,-20.59"/>
</a>
</g>
</g>
<!-- Node9 -->
<g id="Node000009" class="node">
<title>Node9</title>
<g id="a_Node000009"><a xlink:title=" ">
<polygon fill="#e0e0e0" stroke="#999999" points="318,-19 247,-19 247,0 318,0 318,-19"/>
<text text-anchor="middle" x="282.5" y="-7" font-family="Helvetica,sans-Serif" font-size="10.00">semaphore</text>
</a>
</g>
</g>
<!-- Node3&#45;&gt;Node9 -->
<g id="edge8_Node000003_Node000009" class="edge">
<title>Node3&#45;&gt;Node9</title>
<g id="a_edge8_Node000003_Node000009"><a xlink:title=" ">
<path fill="none" stroke="#63b8ff" d="M305.04,-54.75C301.38,-47.57 296.09,-37.18 291.55,-28.27"/>
<polygon fill="#63b8ff" stroke="#63b8ff" points="294.53,-26.41 286.88,-19.09 288.3,-29.59 294.53,-26.41"/>
</a>
</g>
</g>
<!-- Node10 -->
<g id="Node000010" class="node">
<title>Node10</title>
<g id="a_Node000010"><a xlink:title=" ">
<polygon fill="#e0e0e0" stroke="#999999" points="534.5,-19 478.5,-19 478.5,0 534.5,0 534.5,-19"/>
<text text-anchor="middle" x="506.5" y="-7" font-family="Helvetica,sans-Serif" font-size="10.00">sstream</text>
</a>
</g>
</g>
<!-- Node3&#45;&gt;Node10 -->
<g id="edge9_Node000003_Node000010" class="edge">
<title>Node3&#45;&gt;Node10</title>
<g id="a_edge9_Node000003_Node000010"><a xlink:title=" ">
<path fill="none" stroke="#63b8ff" d="M341.15,-54.98C375.85,-45.65 431.5,-30.68 468.52,-20.72"/>
<polygon fill="#63b8ff" stroke="#63b8ff" points="469.69,-24.03 478.44,-18.05 467.87,-17.27 469.69,-24.03"/>
</a>
</g>
</g>
<!-- Node3&#45;&gt;Node11 -->
<g id="edge10_Node000003_Node000011" class="edge">
<title>Node3&#45;&gt;Node11</title>
<g id="a_edge10_Node000003_Node000011"><a xlink:title=" ">
<path fill="none" stroke="#63b8ff" d="M370.82,-59.19C444.23,-53.38 571,-41.34 688.37,-18.95"/>
<polygon fill="#63b8ff" stroke="#63b8ff" points="689.09,-22.37 698.24,-17.03 687.76,-15.5 689.09,-22.37"/>
</a>
</g>
</g>
<!-- Node3&#45;&gt;Node12 -->
<g id="edge11_Node000003_Node000012" class="edge">
<title>Node3&#45;&gt;Node12</title>
<g id="a_edge11_Node000003_Node000012"><a xlink:title=" ">
<path fill="none" stroke="#63b8ff" d="M329.9,-54.98C350.52,-46.38 382.61,-32.99 406.19,-23.15"/>
<polygon fill="#63b8ff" stroke="#63b8ff" points="407.84,-26.25 415.72,-19.17 405.15,-19.79 407.84,-26.25"/>
</a>
</g>
</g>
<!-- Node13 -->
<g id="Node000013" class="node">
<title>Node13</title>
<g id="a_Node000013"><a xlink:title=" ">
<polygon fill="#e0e0e0" stroke="#999999" points="163.5,-19 71.5,-19 71.5,0 163.5,0 163.5,-19"/>
<text text-anchor="middle" x="117.5" y="-7" font-family="Helvetica,sans-Serif" font-size="10.00">../utils/utils.hpp</text>
</a>
</g>
</g>
<!-- Node3&#45;&gt;Node13 -->
<g id="edge12_Node000003_Node000013" class="edge">
<title>Node3&#45;&gt;Node13</title>
<g id="a_edge12_Node000003_Node000013"><a xlink:title=" ">
<path fill="none" stroke="#63b8ff" d="M278.65,-54.98C246,-45.97 194.3,-31.7 158.3,-21.76"/>
<polygon fill="#63b8ff" stroke="#63b8ff" points="159.16,-18.37 148.59,-19.08 157.3,-25.12 159.16,-18.37"/>
</a>
</g>
</g>
<!-- Node18&#45;&gt;Node7 -->
<g id="edge28_Node000018_Node000007" class="edge">
<title>Node18&#45;&gt;Node7</title>
<g id="a_edge28_Node000018_Node000007"><a xlink:title=" ">
<path fill="none" stroke="#63b8ff" d="M1144.25,-57.19C1137.99,-56.36 1131.58,-55.59 1125.5,-55 808.98,-24.38 723.61,-61.45 404.85,-18.94"/>
<polygon fill="#63b8ff" stroke="#63b8ff" points="405.25,-15.46 394.87,-17.59 404.31,-22.39 405.25,-15.46"/>
</a>
</g>
</g>
<!-- Node18&#45;&gt;Node11 -->
<g id="edge30_Node000018_Node000011" class="edge">
<title>Node18&#45;&gt;Node11</title>
<g id="a_edge30_Node000018_Node000011"><a xlink:title=" ">
<path fill="none" stroke="#63b8ff" d="M1144.23,-57.44C1137.96,-56.57 1131.56,-55.73 1125.5,-55 962.94,-35.48 917.5,-48.65 752.74,-18.92"/>
<polygon fill="#63b8ff" stroke="#63b8ff" points="753.21,-15.45 742.75,-17.09 751.95,-22.33 753.21,-15.45"/>
</a>
</g>
</g>
<!-- Node18&#45;&gt;Node14 -->
<g id="edge23_Node000018_Node000014" class="edge">
<title>Node18&#45;&gt;Node14</title>
<g id="a_edge23_Node000018_Node000014"><a xlink:title=" ">
<path fill="none" stroke="#63b8ff" d="M1224.57,-56.93C1229.26,-56.24 1233.98,-55.58 1238.5,-55 1398.33,-34.62 1442.33,-43.36 1605.44,-19"/>
<polygon fill="#63b8ff" stroke="#63b8ff" points="1605.97,-22.46 1615.33,-17.51 1604.92,-15.54 1605.97,-22.46"/>
</a>
</g>
</g>
<!-- Node19 -->
<g id="Node000019" class="node">
<title>Node19</title>
<g id="a_Node000019"><a xlink:title=" ">
<polygon fill="#e0e0e0" stroke="#999999" points="1358,-19 1309,-19 1309,0 1358,0 1358,-19"/>
<text text-anchor="middle" x="1333.5" y="-7" font-family="Helvetica,sans-Serif" font-size="10.00">cstdlib</text>
</a>
</g>
</g>
<!-- Node18&#45;&gt;Node19 -->
<g id="edge24_Node000018_Node000019" class="edge">
<title>Node18&#45;&gt;Node19</title>
<g id="a_edge24_Node000018_Node000019"><a xlink:title=" ">
<path fill="none" stroke="#63b8ff" d="M1208.44,-54.98C1233.06,-46.23 1271.62,-32.51 1299.42,-22.62"/>
<polygon fill="#63b8ff" stroke="#63b8ff" points="1300.88,-25.82 1309.12,-19.17 1298.53,-19.22 1300.88,-25.82"/>
</a>
</g>
</g>
<!-- Node20 -->
<g id="Node000020" class="node">
<title>Node20</title>
<g id="a_Node000020"><a xlink:title=" ">
<polygon fill="#e0e0e0" stroke="#999999" points="1426.5,-19 1376.5,-19 1376.5,0 1426.5,0 1426.5,-19"/>
<text text-anchor="middle" x="1401.5" y="-7" font-family="Helvetica,sans-Serif" font-size="10.00">cstring</text>
</a>
</g>
</g>
<!-- Node18&#45;&gt;Node20 -->
<g id="edge25_Node000018_Node000020" class="edge">
<title>Node18&#45;&gt;Node20</title>
<g id="a_edge25_Node000018_Node000020"><a xlink:title=" ">
<path fill="none" stroke="#63b8ff" d="M1219.94,-54.95C1254.8,-46.53 1309.8,-33.2 1366.42,-19.26"/>
<polygon fill="#63b8ff" stroke="#63b8ff" points="1367.38,-22.62 1376.25,-16.83 1365.71,-15.83 1367.38,-22.62"/>
</a>
</g>
</g>
<!-- Node21 -->
<g id="Node000021" class="node">
<title>Node21</title>
<g id="a_Node000021"><a xlink:title=" ">
<polygon fill="#e0e0e0" stroke="#999999" points="1510,-19 1445,-19 1445,0 1510,0 1510,-19"/>
<text text-anchor="middle" x="1477.5" y="-7" font-family="Helvetica,sans-Serif" font-size="10.00">functional</text>
</a>
</g>
</g>
<!-- Node18&#45;&gt;Node21 -->
<g id="edge26_Node000018_Node000021" class="edge">
<title>Node18&#45;&gt;Node21</title>
<g id="a_edge26_Node000018_Node000021"><a xlink:title=" ">
<path fill="none" stroke="#63b8ff" d="M1224.55,-56.71C1272.2,-48.56 1354.41,-34.28 1435.12,-19.03"/>
<polygon fill="#63b8ff" stroke="#63b8ff" points="1435.78,-22.47 1444.96,-17.17 1434.48,-15.59 1435.78,-22.47"/>
</a>
</g>
</g>
<!-- Node22 -->
<g id="Node000022" class="node">
<title>Node22</title>
<g id="a_Node000022"><a xlink:title=" ">
<polygon fill="#e0e0e0" stroke="#999999" points="1144.5,-19 1100.5,-19 1100.5,0 1144.5,0 1144.5,-19"/>
<text text-anchor="middle" x="1122.5" y="-7" font-family="Helvetica,sans-Serif" font-size="10.00">limits</text>
</a>
</g>
</g>
<!-- Node18&#45;&gt;Node22 -->
<g id="edge27_Node000018_Node000022" class="edge">
<title>Node18&#45;&gt;Node22</title>
<g id="a_edge27_Node000018_Node000022"><a xlink:title=" ">
<path fill="none" stroke="#63b8ff" d="M1174.54,-54.98C1165.37,-47.15 1151.56,-35.34 1140.47,-25.86"/>
<polygon fill="#63b8ff" stroke="#63b8ff" points="1142.52,-23.01 1132.64,-19.17 1137.97,-28.33 1142.52,-23.01"/>
</a>
</g>
</g>
<!-- Node23 -->
<g id="Node000023" class="node">
<title>Node23</title>
<g id="a_Node000023"><a xlink:title=" ">
<polygon fill="#e0e0e0" stroke="#999999" points="1228,-19 1163,-19 1163,0 1228,0 1228,-19"/>
<text text-anchor="middle" x="1195.5" y="-7" font-family="Helvetica,sans-Serif" font-size="10.00">stdexcept</text>
</a>
</g>
</g>
<!-- Node18&#45;&gt;Node23 -->
<g id="edge29_Node000018_Node000023" class="edge">
<title>Node18&#45;&gt;Node23</title>
<g id="a_edge29_Node000018_Node000023"><a xlink:title=" ">
<path fill="none" stroke="#63b8ff" d="M1186.32,-54.75C1187.76,-47.8 1189.82,-37.85 1191.63,-29.13"/>
<polygon fill="#63b8ff" stroke="#63b8ff" points="1195.11,-29.59 1193.72,-19.09 1188.26,-28.17 1195.11,-29.59"/>
</a>
</g>
</g>
<!-- Node24 -->
<g id="Node000024" class="node">
<title>Node24</title>
<g id="a_Node000024"><a xlink:title=" ">
<polygon fill="#e0e0e0" stroke="#999999" points="1597,-19 1528,-19 1528,0 1597,0 1597,-19"/>
<text text-anchor="middle" x="1562.5" y="-7" font-family="Helvetica,sans-Serif" font-size="10.00">type_traits</text>
</a>
</g>
</g>
<!-- Node18&#45;&gt;Node24 -->
<g id="edge31_Node000018_Node000024" class="edge">
<title>Node18&#45;&gt;Node24</title>
<g id="a_edge31_Node000018_Node000024"><a xlink:title=" ">
<path fill="none" stroke="#63b8ff" d="M1224.59,-57.06C1229.27,-56.34 1233.99,-55.64 1238.5,-55 1359.98,-37.66 1393.54,-39.13 1517.9,-19.17"/>
<polygon fill="#63b8ff" stroke="#63b8ff" points="1518.49,-22.62 1527.8,-17.57 1517.37,-15.71 1518.49,-22.62"/>
</a>
</g>
</g>
<!-- Node25 -->
<g id="Node000025" class="node">
<title>Node25</title>
<g id="a_Node000025"><a xlink:title=" ">
<polygon fill="#e0e0e0" stroke="#999999" points="1291,-19 1246,-19 1246,0 1291,0 1291,-19"/>
<text text-anchor="middle" x="1268.5" y="-7" font-family="Helvetica,sans-Serif" font-size="10.00">utility</text>
</a>
</g>
</g>
<!-- Node18&#45;&gt;Node25 -->
<g id="edge32_Node000018_Node000025" class="edge">
<title>Node18&#45;&gt;Node25</title>
<g id="a_edge32_Node000018_Node000025"><a xlink:title=" ">
<path fill="none" stroke="#63b8ff" d="M1198,-54.98C1210.9,-46.84 1230.6,-34.41 1245.9,-24.76"/>
<polygon fill="#63b8ff" stroke="#63b8ff" points="1248.17,-27.47 1254.76,-19.17 1244.43,-21.55 1248.17,-27.47"/>
</a>
</g>
</g>
<!-- Node26&#45;&gt;Node3 -->
<g id="edge44_Node000026_Node000003" class="edge">
<title>Node26&#45;&gt;Node3</title>
<g id="a_edge44_Node000026_Node000003"><a xlink:title=" ">
<path fill="none" stroke="#63b8ff" d="M416.1,-109.98C395.48,-101.38 363.39,-87.99 339.81,-78.15"/>
<polygon fill="#63b8ff" stroke="#63b8ff" points="340.85,-74.79 330.28,-74.17 338.16,-81.25 340.85,-74.79"/>
</a>
</g>
</g>
<!-- Node26&#45;&gt;Node4 -->
<g id="edge34_Node000026_Node000004" class="edge">
<title>Node26&#45;&gt;Node4</title>
<g id="a_edge34_Node000026_Node000004"><a xlink:title=" ">
<path fill="none" stroke="#63b8ff" d="M394.8,-109.93C354.78,-101.52 292.76,-87.94 239.5,-74 176.95,-57.63 105.02,-35.48 62.8,-22.14"/>
<polygon fill="#63b8ff" stroke="#63b8ff" points="63.83,-18.79 53.24,-19.1 61.71,-25.46 63.83,-18.79"/>
</a>
</g>
</g>
<!-- Node26&#45;&gt;Node7 -->
<g id="edge35_Node000026_Node000007" class="edge">
<title>Node26&#45;&gt;Node7</title>
<g id="a_edge35_Node000026_Node000007"><a xlink:title=" ">
<path fill="none" stroke="#63b8ff" d="M430.69,-109.66C418.93,-91.77 392.13,-51 376.8,-27.69"/>
<polygon fill="#63b8ff" stroke="#63b8ff" points="379.61,-25.59 371.19,-19.16 373.76,-29.44 379.61,-25.59"/>
</a>
</g>
</g>
<!-- Node26&#45;&gt;Node11 -->
<g id="edge36_Node000026_Node000011" class="edge">
<title>Node26&#45;&gt;Node11</title>
<g id="a_edge36_Node000026_Node000011"><a xlink:title=" ">
<path fill="none" stroke="#63b8ff" d="M459.26,-109.84C509.78,-90.63 631.35,-44.4 689.07,-22.45"/>
<polygon fill="#63b8ff" stroke="#63b8ff" points="690.31,-25.72 698.42,-18.9 687.83,-19.18 690.31,-25.72"/>
</a>
</g>
</g>
<!-- Node26&#45;&gt;Node12 -->
<g id="edge37_Node000026_Node000012" class="edge">
<title>Node26&#45;&gt;Node12</title>
<g id="a_edge37_Node000026_Node000012"><a xlink:title=" ">
<path fill="none" stroke="#63b8ff" d="M436.5,-109.66C436.5,-92.17 436.5,-52.8 436.5,-29.27"/>
<polygon fill="#63b8ff" stroke="#63b8ff" points="440,-29.16 436.5,-19.16 433,-29.16 440,-29.16"/>
</a>
</g>
</g>
<!-- Node26&#45;&gt;Node27 -->
<g id="edge38_Node000026_Node000027" class="edge">
<title>Node26&#45;&gt;Node27</title>
<g id="a_edge38_Node000026_Node000027"><a xlink:title=" ">
<path fill="none" stroke="#63b8ff" d="M490.48,-109.98C553.92,-99.98 658.42,-83.49 720.84,-73.65"/>
<polygon fill="#63b8ff" stroke="#63b8ff" points="721.52,-77.08 730.85,-72.07 720.43,-70.17 721.52,-77.08"/>
</a>
</g>
</g>
<!-- Node27&#45;&gt;Node5 -->
<g id="edge40_Node000027_Node000005" class="edge">
<title>Node27&#45;&gt;Node5</title>
<g id="a_edge40_Node000027_Node000005"><a xlink:title=" ">
<path fill="none" stroke="#63b8ff" d="M741.17,-54.98C705.94,-45.41 648.89,-29.9 612.3,-19.96"/>
<polygon fill="#63b8ff" stroke="#63b8ff" points="613.12,-16.55 602.55,-17.31 611.29,-23.31 613.12,-16.55"/>
</a>
</g>
</g>
<!-- Node27&#45;&gt;Node10 -->
<g id="edge42_Node000027_Node000010" class="edge">
<title>Node27&#45;&gt;Node10</title>
<g id="a_edge42_Node000027_Node000010"><a xlink:title=" ">
<path fill="none" stroke="#63b8ff" d="M730.63,-55.8C686.71,-47.63 615.44,-34.1 544.73,-19.21"/>
<polygon fill="#63b8ff" stroke="#63b8ff" points="545.27,-15.74 534.76,-17.1 543.82,-22.59 545.27,-15.74"/>
</a>
</g>
</g>
<!-- Node27&#45;&gt;Node15 -->
<g id="edge39_Node000027_Node000015" class="edge">
<title>Node27&#45;&gt;Node15</title>
<g id="a_edge39_Node000027_Node000015"><a xlink:title=" ">
<path fill="none" stroke="#63b8ff" d="M773.99,-54.75C775.17,-47.8 776.86,-37.85 778.34,-29.13"/>
<polygon fill="#63b8ff" stroke="#63b8ff" points="781.82,-29.53 780.04,-19.09 774.92,-28.36 781.82,-29.53"/>
</a>
</g>
</g>
<!-- Node27&#45;&gt;Node22 -->
<g id="edge41_Node000027_Node000022" class="edge">
<title>Node27&#45;&gt;Node22</title>
<g id="a_edge41_Node000027_Node000022"><a xlink:title=" ">
<path fill="none" stroke="#63b8ff" d="M814.09,-59.43C873.35,-53.25 985.62,-40.16 1090.14,-19.04"/>
<polygon fill="#63b8ff" stroke="#63b8ff" points="1091.14,-22.41 1100.23,-16.98 1089.73,-15.55 1091.14,-22.41"/>
</a>
</g>
</g>
<!-- Node28 -->
<g id="Node000028" class="node">
<title>Node28</title>
<g id="a_Node000028"><a xlink:title=" ">
<polygon fill="#e0e0e0" stroke="#999999" points="876.5,-19 820.5,-19 820.5,0 876.5,0 876.5,-19"/>
<text text-anchor="middle" x="848.5" y="-7" font-family="Helvetica,sans-Serif" font-size="10.00">iomanip</text>
</a>
</g>
</g>
<!-- Node27&#45;&gt;Node28 -->
<g id="edge43_Node000027_Node000028" class="edge">
<title>Node27&#45;&gt;Node28</title>
<g id="a_edge43_Node000027_Node000028"><a xlink:title=" ">
<path fill="none" stroke="#63b8ff" d="M784.71,-54.98C796.28,-46.92 813.88,-34.65 827.66,-25.03"/>
<polygon fill="#63b8ff" stroke="#63b8ff" points="829.87,-27.76 836.07,-19.17 825.86,-22.02 829.87,-27.76"/>
</a>
</g>
</g>
<!-- Node29&#45;&gt;Node11 -->
<g id="edge47_Node000029_Node000011" class="edge">
<title>Node29&#45;&gt;Node11</title>
<g id="a_edge47_Node000029_Node000011"><a xlink:title=" ">
<path fill="none" stroke="#63b8ff" d="M710.4,-109.66C712.18,-92.17 716.19,-52.8 718.59,-29.27"/>
<polygon fill="#63b8ff" stroke="#63b8ff" points="722.09,-29.46 719.62,-19.16 715.12,-28.75 722.09,-29.46"/>
</a>
</g>
</g>
<!-- Node29&#45;&gt;Node12 -->
<g id="edge48_Node000029_Node000012" class="edge">
<title>Node29&#45;&gt;Node12</title>
<g id="a_edge48_Node000029_Node000012"><a xlink:title=" ">
<path fill="none" stroke="#63b8ff" d="M687.62,-109.84C639.28,-90.72 523.25,-44.82 467.47,-22.75"/>
<polygon fill="#63b8ff" stroke="#63b8ff" points="468.69,-19.47 458.1,-19.05 466.12,-25.98 468.69,-19.47"/>
</a>
</g>
</g>
<!-- Node29&#45;&gt;Node23 -->
<g id="edge46_Node000029_Node000023" class="edge">
<title>Node29&#45;&gt;Node23</title>
<g id="a_edge46_Node000029_Node000023"><a xlink:title=" ">
<path fill="none" stroke="#63b8ff" d="M730.79,-109.97C765.54,-96.36 836.88,-69.77 899.5,-55 1007.33,-29.56 1039.33,-37.81 1152.84,-18.99"/>
<polygon fill="#63b8ff" stroke="#63b8ff" points="1153.7,-22.4 1162.98,-17.28 1152.53,-15.5 1153.7,-22.4"/>
</a>
</g>
</g>
<!-- Node29&#45;&gt;Node27 -->
<g id="edge49_Node000029_Node000027" class="edge">
<title>Node29&#45;&gt;Node27</title>
<g id="a_edge49_Node000029_Node000027"><a xlink:title=" ">
<path fill="none" stroke="#63b8ff" d="M719.62,-109.98C728.94,-102.15 742.97,-90.34 754.24,-80.86"/>
<polygon fill="#63b8ff" stroke="#63b8ff" points="756.79,-83.29 762.19,-74.17 752.29,-77.93 756.79,-83.29"/>
</a>
</g>
</g>
<!-- Node30&#45;&gt;Node5 -->
<g id="edge60_Node000030_Node000005" class="edge">
<title>Node30&#45;&gt;Node5</title>
<g id="a_edge60_Node000030_Node000005"><a xlink:title=" ">
<path fill="none" stroke="#63b8ff" d="M887.57,-109.85C875.8,-95.83 850.47,-68.37 822.5,-55 739.52,-15.34 706.79,-36.99 612.63,-19.02"/>
<polygon fill="#63b8ff" stroke="#63b8ff" points="613.2,-15.57 602.7,-17.03 611.82,-22.43 613.2,-15.57"/>
</a>
</g>
</g>
<!-- Node30&#45;&gt;Node12 -->
<g id="edge62_Node000030_Node000012" class="edge">
<title>Node30&#45;&gt;Node12</title>
<g id="a_edge62_Node000030_Node000012"><a xlink:title=" ">
<path fill="none" stroke="#63b8ff" d="M856.91,-109.99C784.31,-93.5 619.54,-55.76 470.1,-19.1"/>
<polygon fill="#63b8ff" stroke="#63b8ff" points="470.82,-15.68 460.28,-16.69 469.15,-22.48 470.82,-15.68"/>
</a>
</g>
</g>
<!-- Node30&#45;&gt;Node18 -->
<g id="edge63_Node000030_Node000018" class="edge">
<title>Node30&#45;&gt;Node18</title>
<g id="a_edge63_Node000030_Node000018"><a xlink:title=" ">
<path fill="none" stroke="#63b8ff" d="M941.09,-109.98C993.89,-100.34 1079.64,-84.66 1134,-74.73"/>
<polygon fill="#63b8ff" stroke="#63b8ff" points="1134.9,-78.12 1144.1,-72.88 1133.64,-71.24 1134.9,-78.12"/>
</a>
</g>
</g>
<!-- Node30&#45;&gt;Node27 -->
<g id="edge52_Node000030_Node000027" class="edge">
<title>Node30&#45;&gt;Node27</title>
<g id="a_edge52_Node000030_Node000027"><a xlink:title=" ">
<path fill="none" stroke="#63b8ff" d="M874.9,-109.98C855.18,-101.42 824.55,-88.11 801.92,-78.28"/>
<polygon fill="#63b8ff" stroke="#63b8ff" points="803.02,-74.94 792.46,-74.17 800.24,-81.37 803.02,-74.94"/>
</a>
</g>
</g>
<!-- Node30&#45;&gt;Node31 -->
<g id="edge53_Node000030_Node000031" class="edge">
<title>Node30&#45;&gt;Node31</title>
<g id="a_edge53_Node000030_Node000031"><a xlink:title=" ">
<path fill="none" stroke="#63b8ff" d="M922.46,-109.98C951.8,-101.05 998.1,-86.94 1030.69,-77.02"/>
<polygon fill="#63b8ff" stroke="#63b8ff" points="1031.78,-80.34 1040.32,-74.08 1029.74,-73.65 1031.78,-80.34"/>
</a>
</g>
</g>
<!-- Node35 -->
<g id="Node000035" class="node">
<title>Node35</title>
<g id="a_Node000035"><a xlink:title=" ">
<polygon fill="#e0e0e0" stroke="#999999" points="964,-74 909,-74 909,-55 964,-55 964,-74"/>
<text text-anchor="middle" x="936.5" y="-62" font-family="Helvetica,sans-Serif" font-size="10.00">fstream</text>
</a>
</g>
</g>
<!-- Node30&#45;&gt;Node35 -->
<g id="edge61_Node000030_Node000035" class="edge">
<title>Node30&#45;&gt;Node35</title>
<g id="a_edge61_Node000030_Node000035"><a xlink:title=" ">
<path fill="none" stroke="#63b8ff" d="M901.44,-109.75C907.37,-102.26 916.07,-91.28 923.32,-82.13"/>
<polygon fill="#63b8ff" stroke="#63b8ff" points="926.23,-84.1 929.69,-74.09 920.74,-79.75 926.23,-84.1"/>
</a>
</g>
</g>
<!-- Node31&#45;&gt;Node6 -->
<g id="edge57_Node000031_Node000006" class="edge">
<title>Node31&#45;&gt;Node6</title>
<g id="a_edge57_Node000031_Node000006"><a xlink:title=" ">
<path fill="none" stroke="#63b8ff" d="M1020.42,-59.37C950.16,-53.01 815.13,-39.52 690.76,-19.06"/>
<polygon fill="#63b8ff" stroke="#63b8ff" points="691.12,-15.57 680.68,-17.38 689.97,-22.48 691.12,-15.57"/>
</a>
</g>
</g>
<!-- Node31&#45;&gt;Node11 -->
<g id="edge58_Node000031_Node000011" class="edge">
<title>Node31&#45;&gt;Node11</title>
<g id="a_edge58_Node000031_Node000011"><a xlink:title=" ">
<path fill="none" stroke="#63b8ff" d="M1020.37,-58.69C959.98,-52.22 853.1,-39.35 752.77,-19.03"/>
<polygon fill="#63b8ff" stroke="#63b8ff" points="753.27,-15.56 742.77,-16.97 751.86,-22.41 753.27,-15.56"/>
</a>
</g>
</g>
<!-- Node31&#45;&gt;Node28 -->
<g id="edge56_Node000031_Node000028" class="edge">
<title>Node31&#45;&gt;Node28</title>
<g id="a_edge56_Node000031_Node000028"><a xlink:title=" ">
<path fill="none" stroke="#63b8ff" d="M1033.15,-54.98C993.07,-45.33 927.94,-29.64 886.7,-19.7"/>
<polygon fill="#63b8ff" stroke="#63b8ff" points="887.31,-16.25 876.77,-17.31 885.67,-23.05 887.31,-16.25"/>
</a>
</g>
</g>
<!-- Node32 -->
<g id="Node000032" class="node">
<title>Node32</title>
<g id="a_Node000032"><a xlink:title=" ">
<polygon fill="#e0e0e0" stroke="#999999" points="944.5,-19 894.5,-19 894.5,0 944.5,0 944.5,-19"/>
<text text-anchor="middle" x="919.5" y="-7" font-family="Helvetica,sans-Serif" font-size="10.00">chrono</text>
</a>
</g>
</g>
<!-- Node31&#45;&gt;Node32 -->
<g id="edge54_Node000031_Node000032" class="edge">
<title>Node31&#45;&gt;Node32</title>
<g id="a_edge54_Node000031_Node000032"><a xlink:title=" ">
<path fill="none" stroke="#63b8ff" d="M1044.56,-54.98C1019.94,-46.23 981.38,-32.51 953.58,-22.62"/>
<polygon fill="#63b8ff" stroke="#63b8ff" points="954.47,-19.22 943.88,-19.17 952.12,-25.82 954.47,-19.22"/>
</a>
</g>
</g>
<!-- Node33 -->
<g id="Node000033" class="node">
<title>Node33</title>
<g id="a_Node000033"><a xlink:title=" ">
<polygon fill="#e0e0e0" stroke="#999999" points="1016,-19 963,-19 963,0 1016,0 1016,-19"/>
<text text-anchor="middle" x="989.5" y="-7" font-family="Helvetica,sans-Serif" font-size="10.00">cstdarg</text>
</a>
</g>
</g>
<!-- Node31&#45;&gt;Node33 -->
<g id="edge55_Node000031_Node000033" class="edge">
<title>Node31&#45;&gt;Node33</title>
<g id="a_edge55_Node000031_Node000033"><a xlink:title=" ">
<path fill="none" stroke="#63b8ff" d="M1055.81,-54.98C1043.67,-46.84 1025.14,-34.41 1010.75,-24.76"/>
<polygon fill="#63b8ff" stroke="#63b8ff" points="1012.68,-21.84 1002.42,-19.17 1008.78,-27.65 1012.68,-21.84"/>
</a>
</g>
</g>
<!-- Node34 -->
<g id="Node000034" class="node">
<title>Node34</title>
<g id="a_Node000034"><a xlink:title=" ">
<polygon fill="#e0e0e0" stroke="#999999" points="1082.5,-19 1034.5,-19 1034.5,0 1082.5,0 1082.5,-19"/>
<text text-anchor="middle" x="1058.5" y="-7" font-family="Helvetica,sans-Serif" font-size="10.00">mutex</text>
</a>
</g>
</g>
<!-- Node31&#45;&gt;Node34 -->
<g id="edge59_Node000031_Node000034" class="edge">
<title>Node31&#45;&gt;Node34</title>
<g id="a_edge59_Node000031_Node000034"><a xlink:title=" ">
<path fill="none" stroke="#63b8ff" d="M1066.85,-54.75C1065.54,-47.8 1063.66,-37.85 1062.02,-29.13"/>
<polygon fill="#63b8ff" stroke="#63b8ff" points="1065.41,-28.27 1060.12,-19.09 1058.54,-29.56 1065.41,-28.27"/>
</a>
</g>
</g>
</g>
</svg>
