<?xml version="1.0" encoding="UTF-8" standalone="no"?>
<!DOCTYPE svg PUBLIC "-//W3C//DTD SVG 1.1//EN"
 "http://www.w3.org/Graphics/SVG/1.1/DTD/svg11.dtd">
<!-- Generated by graphviz version 2.43.0 (0)
 -->
<!-- Title: src/lib/patchGeneration/patchSegmentation.cpp Pages: 1 -->
<!--zoomable 203 -->

<svg id="main" version="1.1" xmlns="http://www.w3.org/2000/svg" xmlns:xlink="http://www.w3.org/1999/xlink" xml:space="preserve" onload="init(evt)">
<style type="text/css"><![CDATA[
.node, .edge {opacity: 0.7;}
.node.selected, .edge.selected {opacity: 1;}
.edge:hover path { stroke: red; }
.edge:hover polygon { stroke: red; fill: red; }
]]></style>

<defs>
  <circle id="rim" cx="0" cy="0" r="7"/>
  <circle id="rim2" cx="0" cy="0" r="3.5"/>
  <g id="zoomPlus">
    <use xlink:href="#rim" fill="#404040"><set attributeName="fill" to="#808080" begin="zoomplus.mouseover" end="zoomplus.mouseout"/></use>
    <path d="M-4,0h8M0,-4v8" fill="none" stroke="white" stroke-width="1.5" pointer-events="none"/>
  </g>
  <g id="zoomMin">
    <use xlink:href="#rim" fill="#404040"><set attributeName="fill" to="#808080" begin="zoomminus.mouseover" end="zoomminus.mouseout"/></use>
    <path d="M-4,0h8" fill="none" stroke="white" stroke-width="1.5" pointer-events="none"/>
  </g>
  <g id="arrowUp" transform="translate(30 24)">
    <use xlink:href="#rim"/>
    <path pointer-events="none" fill="none" stroke="white" stroke-width="1.5" d="M0,-3.0v7 M-2.5,-0.5L0,-3.0L2.5,-0.5"/>
  </g>
  <g id="arrowRight" transform="rotate(90) translate(36 -43)">
    <use xlink:href="#rim"/>
    <path pointer-events="none" fill="none" stroke="white" stroke-width="1.5" d="M0,-3.0v7 M-2.5,-0.5L0,-3.0L2.5,-0.5"/>
  </g>
  <g id="arrowDown" transform="rotate(180) translate(-30 -48)">
    <use xlink:href="#rim"/>
    <path pointer-events="none" fill="none" stroke="white" stroke-width="1.5" d="M0,-3.0v7 M-2.5,-0.5L0,-3.0L2.5,-0.5"/>
  </g>
  <g id="arrowLeft" transform="rotate(270) translate(-36 17)">
    <use xlink:href="#rim"/>
    <path pointer-events="none" fill="none" stroke="white" stroke-width="1.5" d="M0,-3.0v7 M-2.5,-0.5L0,-3.0L2.5,-0.5"/>
  </g>
  <g id="resetDef">
    <use xlink:href="#rim2" fill="#404040"><set attributeName="fill" to="#808080" begin="reset.mouseover" end="reset.mouseout"/></use>
  </g>
</defs>
<script type="application/ecmascript">
var viewWidth = 1797;
var viewHeight = 203;
var sectionId = 'dynsection-0';
</script>
<script type="application/ecmascript" xlink:href="svg.min.js"/>
<svg id="graph" class="graph">
<g id="viewport">
<title>src/lib/patchGeneration/patchSegmentation.cpp</title>
<!-- Node1 -->
<g id="Node000001" class="node">
<title>Node1</title>
<g id="a_Node000001"><a xlink:title=" ">
<polygon fill="#999999" stroke="#666666" points="824,-195 689,-195 689,-165 824,-165 824,-195"/>
<text text-anchor="start" x="697" y="-183" font-family="Helvetica,sans-Serif" font-size="10.00">src/lib/patchGeneration</text>
<text text-anchor="middle" x="756.5" y="-172" font-family="Helvetica,sans-Serif" font-size="10.00">/patchSegmentation.cpp</text>
</a>
</g>
</g>
<!-- Node2 -->
<g id="Node000002" class="node">
<title>Node2</title>
<g id="a_Node000002"><a xlink:href="patchSegmentation_8hpp.html" target="_top" xlink:title=" ">
<polygon fill="white" stroke="#666666" points="603,-129 470,-129 470,-110 603,-110 603,-129"/>
<text text-anchor="middle" x="536.5" y="-117" font-family="Helvetica,sans-Serif" font-size="10.00">patchSegmentation.hpp</text>
</a>
</g>
</g>
<!-- Node1&#45;&gt;Node2 -->
<g id="edge1_Node000001_Node000002" class="edge">
<title>Node1&#45;&gt;Node2</title>
<g id="a_edge1_Node000001_Node000002"><a xlink:title=" ">
<path fill="none" stroke="#63b8ff" d="M703.8,-164.99C665.51,-154.8 614.36,-141.2 578.73,-131.73"/>
<polygon fill="#63b8ff" stroke="#63b8ff" points="579.23,-128.24 568.67,-129.05 577.43,-135.01 579.23,-128.24"/>
</a>
</g>
</g>
<!-- Node3 -->
<g id="Node000003" class="node">
<title>Node3</title>
<g id="a_Node000003"><a xlink:href="uvgvpcc_8hpp.html" target="_top" xlink:title=" ">
<polygon fill="white" stroke="#666666" points="502.5,-74 380.5,-74 380.5,-55 502.5,-55 502.5,-74"/>
<text text-anchor="middle" x="441.5" y="-62" font-family="Helvetica,sans-Serif" font-size="10.00">uvgvpcc/uvgvpcc.hpp</text>
</a>
</g>
</g>
<!-- Node1&#45;&gt;Node3 -->
<g id="edge69_Node000001_Node000003" class="edge">
<title>Node1&#45;&gt;Node3</title>
<g id="a_edge69_Node000001_Node000003"><a xlink:title=" ">
<path fill="none" stroke="#63b8ff" d="M688.95,-175.73C612.28,-170.65 493.55,-158.2 460.5,-129 447.98,-117.94 443.55,-99 442.06,-84.68"/>
<polygon fill="#63b8ff" stroke="#63b8ff" points="445.54,-84.17 441.4,-74.42 438.55,-84.62 445.54,-84.17"/>
</a>
</g>
</g>
<!-- Node4 -->
<g id="Node000004" class="node">
<title>Node4</title>
<g id="a_Node000004"><a xlink:title=" ">
<polygon fill="#e0e0e0" stroke="#999999" points="53,-19 0,-19 0,0 53,0 53,-19"/>
<text text-anchor="middle" x="26.5" y="-7" font-family="Helvetica,sans-Serif" font-size="10.00">cstddef</text>
</a>
</g>
</g>
<!-- Node1&#45;&gt;Node4 -->
<g id="edge19_Node000001_Node000004" class="edge">
<title>Node1&#45;&gt;Node4</title>
<g id="a_edge19_Node000001_Node000004"><a xlink:title=" ">
<path fill="none" stroke="#63b8ff" d="M688.8,-176.59C564.13,-171.52 303.14,-157.75 217.5,-129 147.5,-105.5 76.64,-52 44.43,-25.69"/>
<polygon fill="#63b8ff" stroke="#63b8ff" points="46.33,-22.72 36.4,-19.04 41.86,-28.11 46.33,-22.72"/>
</a>
</g>
</g>
<!-- Node5 -->
<g id="Node000005" class="node">
<title>Node5</title>
<g id="a_Node000005"><a xlink:title=" ">
<polygon fill="#e0e0e0" stroke="#999999" points="712.5,-19 662.5,-19 662.5,0 712.5,0 712.5,-19"/>
<text text-anchor="middle" x="687.5" y="-7" font-family="Helvetica,sans-Serif" font-size="10.00">cstdint</text>
</a>
</g>
</g>
<!-- Node1&#45;&gt;Node5 -->
<g id="edge20_Node000001_Node000005" class="edge">
<title>Node1&#45;&gt;Node5</title>
<g id="a_edge20_Node000001_Node000005"><a xlink:title=" ">
<path fill="none" stroke="#63b8ff" d="M702.25,-164.9C684.2,-157.34 666.03,-145.96 655.5,-129 638.15,-101.06 645.41,-86.3 655.5,-55 658.84,-44.62 665.6,-34.62 672.05,-26.74"/>
<polygon fill="#63b8ff" stroke="#63b8ff" points="674.79,-28.92 678.75,-19.1 669.53,-24.31 674.79,-28.92"/>
</a>
</g>
</g>
<!-- Node7 -->
<g id="Node000007" class="node">
<title>Node7</title>
<g id="a_Node000007"><a xlink:title=" ">
<polygon fill="#e0e0e0" stroke="#999999" points="194.5,-19 136.5,-19 136.5,0 194.5,0 194.5,-19"/>
<text text-anchor="middle" x="165.5" y="-7" font-family="Helvetica,sans-Serif" font-size="10.00">memory</text>
</a>
</g>
</g>
<!-- Node1&#45;&gt;Node7 -->
<g id="edge21_Node000001_Node000007" class="edge">
<title>Node1&#45;&gt;Node7</title>
<g id="a_edge21_Node000001_Node000007"><a xlink:title=" ">
<path fill="none" stroke="#63b8ff" d="M688.75,-176.74C578.32,-172.22 364.94,-159.71 296.5,-129 244.46,-105.65 198.9,-53.69 177.86,-27.01"/>
<polygon fill="#63b8ff" stroke="#63b8ff" points="180.57,-24.79 171.7,-19.01 175.03,-29.06 180.57,-24.79"/>
</a>
</g>
</g>
<!-- Node11 -->
<g id="Node000011" class="node">
<title>Node11</title>
<g id="a_Node000011"><a xlink:title=" ">
<polygon fill="#e0e0e0" stroke="#999999" points="852.5,-19 808.5,-19 808.5,0 852.5,0 852.5,-19"/>
<text text-anchor="middle" x="830.5" y="-7" font-family="Helvetica,sans-Serif" font-size="10.00">string</text>
</a>
</g>
</g>
<!-- Node1&#45;&gt;Node11 -->
<g id="edge22_Node000001_Node000011" class="edge">
<title>Node1&#45;&gt;Node11</title>
<g id="a_edge22_Node000001_Node000011"><a xlink:title=" ">
<path fill="none" stroke="#63b8ff" d="M726.04,-164.94C711.88,-156.66 696.44,-144.69 688.5,-129 684.69,-121.47 686.36,-118.17 688.5,-110 695.62,-82.86 698.39,-73.49 719.5,-55 731.72,-44.29 770.5,-30.04 798.79,-20.58"/>
<polygon fill="#63b8ff" stroke="#63b8ff" points="799.9,-23.9 808.3,-17.45 797.71,-17.25 799.9,-23.9"/>
</a>
</g>
</g>
<!-- Node12 -->
<g id="Node000012" class="node">
<title>Node12</title>
<g id="a_Node000012"><a xlink:title=" ">
<polygon fill="#e0e0e0" stroke="#999999" points="118,-19 71,-19 71,0 118,0 118,-19"/>
<text text-anchor="middle" x="94.5" y="-7" font-family="Helvetica,sans-Serif" font-size="10.00">vector</text>
</a>
</g>
</g>
<!-- Node1&#45;&gt;Node12 -->
<g id="edge23_Node000001_Node000012" class="edge">
<title>Node1&#45;&gt;Node12</title>
<g id="a_edge23_Node000001_Node000012"><a xlink:title=" ">
<path fill="none" stroke="#63b8ff" d="M688.64,-176.23C571.75,-170.79 337.55,-156.75 260.5,-129 197.73,-106.4 137.44,-52.88 109.98,-26.2"/>
<polygon fill="#63b8ff" stroke="#63b8ff" points="112.41,-23.67 102.84,-19.13 107.49,-28.65 112.41,-23.67"/>
</a>
</g>
</g>
<!-- Node13 -->
<g id="Node000013" class="node">
<title>Node13</title>
<g id="a_Node000013"><a xlink:title=" ">
<polygon fill="#e0e0e0" stroke="#999999" points="1274.5,-19 1210.5,-19 1210.5,0 1274.5,0 1274.5,-19"/>
<text text-anchor="middle" x="1242.5" y="-7" font-family="Helvetica,sans-Serif" font-size="10.00">algorithm</text>
</a>
</g>
</g>
<!-- Node1&#45;&gt;Node13 -->
<g id="edge15_Node000001_Node000013" class="edge">
<title>Node1&#45;&gt;Node13</title>
<g id="a_edge15_Node000001_Node000013"><a xlink:title=" ">
<path fill="none" stroke="#63b8ff" d="M824.12,-173.71C893.97,-167.19 1005.68,-153.79 1099.5,-129 1164.53,-111.82 1201.68,-128.93 1240.5,-74 1249.55,-61.19 1249.16,-43.02 1247.03,-29.4"/>
<polygon fill="#63b8ff" stroke="#63b8ff" points="1250.39,-28.36 1245,-19.24 1243.53,-29.73 1250.39,-28.36"/>
</a>
</g>
</g>
<!-- Node16 -->
<g id="Node000016" class="node">
<title>Node16</title>
<g id="a_Node000016"><a xlink:title=" ">
<polygon fill="#e0e0e0" stroke="#999999" points="912.5,-19 870.5,-19 870.5,0 912.5,0 912.5,-19"/>
<text text-anchor="middle" x="891.5" y="-7" font-family="Helvetica,sans-Serif" font-size="10.00">array</text>
</a>
</g>
</g>
<!-- Node1&#45;&gt;Node16 -->
<g id="edge16_Node000001_Node000016" class="edge">
<title>Node1&#45;&gt;Node16</title>
<g id="a_edge16_Node000001_Node000016"><a xlink:title=" ">
<path fill="none" stroke="#63b8ff" d="M790.64,-164.83C807.45,-156.45 826.96,-144.44 840.5,-129 866.5,-99.36 880.86,-54.45 887.29,-29.29"/>
<polygon fill="#63b8ff" stroke="#63b8ff" points="890.77,-29.78 889.7,-19.24 883.97,-28.15 890.77,-29.78"/>
</a>
</g>
</g>
<!-- Node17 -->
<g id="Node000017" class="node">
<title>Node17</title>
<g id="a_Node000017"><a xlink:title=" ">
<polygon fill="#e0e0e0" stroke="#999999" points="1395.5,-129 1343.5,-129 1343.5,-110 1395.5,-110 1395.5,-129"/>
<text text-anchor="middle" x="1369.5" y="-117" font-family="Helvetica,sans-Serif" font-size="10.00">cassert</text>
</a>
</g>
</g>
<!-- Node1&#45;&gt;Node17 -->
<g id="edge17_Node000001_Node000017" class="edge">
<title>Node1&#45;&gt;Node17</title>
<g id="a_edge17_Node000001_Node000017"><a xlink:title=" ">
<path fill="none" stroke="#63b8ff" d="M824.29,-175.77C931.86,-170.05 1148.02,-156.1 1329.5,-129 1330.76,-128.81 1332.05,-128.61 1333.34,-128.39"/>
<polygon fill="#63b8ff" stroke="#63b8ff" points="1334.14,-131.8 1343.33,-126.54 1332.86,-124.92 1334.14,-131.8"/>
</a>
</g>
</g>
<!-- Node18 -->
<g id="Node000018" class="node">
<title>Node18</title>
<g id="a_Node000018"><a xlink:title=" ">
<polygon fill="#e0e0e0" stroke="#999999" points="1461,-129 1414,-129 1414,-110 1461,-110 1461,-129"/>
<text text-anchor="middle" x="1437.5" y="-117" font-family="Helvetica,sans-Serif" font-size="10.00">cmath</text>
</a>
</g>
</g>
<!-- Node1&#45;&gt;Node18 -->
<g id="edge18_Node000001_Node000018" class="edge">
<title>Node1&#45;&gt;Node18</title>
<g id="a_edge18_Node000001_Node000018"><a xlink:title=" ">
<path fill="none" stroke="#63b8ff" d="M824.13,-177.67C940.73,-174.53 1187.08,-164.16 1403.84,-128.78"/>
<polygon fill="#63b8ff" stroke="#63b8ff" points="1404.52,-132.22 1413.81,-127.13 1403.38,-125.31 1404.52,-132.22"/>
</a>
</g>
</g>
<!-- Node19 -->
<g id="Node000019" class="node">
<title>Node19</title>
<g id="a_Node000019"><a xlink:href="robin__hood_8h.html" target="_top" xlink:title=" ">
<polygon fill="white" stroke="#666666" points="1407.5,-74 1327.5,-74 1327.5,-55 1407.5,-55 1407.5,-74"/>
<text text-anchor="middle" x="1367.5" y="-62" font-family="Helvetica,sans-Serif" font-size="10.00">robin_hood.h</text>
</a>
</g>
</g>
<!-- Node1&#45;&gt;Node19 -->
<g id="edge24_Node000001_Node000019" class="edge">
<title>Node1&#45;&gt;Node19</title>
<g id="a_edge24_Node000001_Node000019"><a xlink:title=" ">
<path fill="none" stroke="#63b8ff" d="M824.11,-177.66C948.55,-174.37 1208.72,-163.47 1291.5,-129 1316.41,-118.63 1339.34,-97.11 1353.36,-82.01"/>
<polygon fill="#63b8ff" stroke="#63b8ff" points="1356.12,-84.17 1360.18,-74.39 1350.9,-79.5 1356.12,-84.17"/>
</a>
</g>
</g>
<!-- Node27 -->
<g id="Node000027" class="node">
<title>Node27</title>
<g id="a_Node000027"><a xlink:href="fileExport_8hpp.html" target="_top" xlink:title=" ">
<polygon fill="white" stroke="#666666" points="413.5,-129 305.5,-129 305.5,-110 413.5,-110 413.5,-129"/>
<text text-anchor="middle" x="359.5" y="-117" font-family="Helvetica,sans-Serif" font-size="10.00">utils/fileExport.hpp</text>
</a>
</g>
</g>
<!-- Node1&#45;&gt;Node27 -->
<g id="edge35_Node000001_Node000027" class="edge">
<title>Node1&#45;&gt;Node27</title>
<g id="a_edge35_Node000001_Node000027"><a xlink:title=" ">
<path fill="none" stroke="#63b8ff" d="M688.7,-169.01C614.46,-158.07 496.31,-140.66 423.58,-129.94"/>
<polygon fill="#63b8ff" stroke="#63b8ff" points="424.03,-126.47 413.62,-128.48 423.01,-133.4 424.03,-126.47"/>
</a>
</g>
</g>
<!-- Node28 -->
<g id="Node000028" class="node">
<title>Node28</title>
<g id="a_Node000028"><a xlink:href="utils_8hpp.html" target="_top" xlink:title=" ">
<polygon fill="white" stroke="#666666" points="819,-74 736,-74 736,-55 819,-55 819,-74"/>
<text text-anchor="middle" x="777.5" y="-62" font-family="Helvetica,sans-Serif" font-size="10.00">utils/utils.hpp</text>
</a>
</g>
</g>
<!-- Node1&#45;&gt;Node28 -->
<g id="edge52_Node000001_Node000028" class="edge">
<title>Node1&#45;&gt;Node28</title>
<g id="a_edge52_Node000001_Node000028"><a xlink:title=" ">
<path fill="none" stroke="#63b8ff" d="M786.96,-164.94C801.12,-156.66 816.56,-144.69 824.5,-129 833.73,-110.76 816.29,-92.24 800.1,-79.94"/>
<polygon fill="#63b8ff" stroke="#63b8ff" points="802.07,-77.05 791.89,-74.12 798.02,-82.76 802.07,-77.05"/>
</a>
</g>
</g>
<!-- Node30 -->
<g id="Node000030" class="node">
<title>Node30</title>
<g id="a_Node000030"><a xlink:href="parameters_8hpp.html" target="_top" xlink:title=" ">
<polygon fill="white" stroke="#666666" points="815.5,-129 697.5,-129 697.5,-110 815.5,-110 815.5,-129"/>
<text text-anchor="middle" x="756.5" y="-117" font-family="Helvetica,sans-Serif" font-size="10.00">utils/parameters.hpp</text>
</a>
</g>
</g>
<!-- Node1&#45;&gt;Node30 -->
<g id="edge47_Node000001_Node000030" class="edge">
<title>Node1&#45;&gt;Node30</title>
<g id="a_edge47_Node000001_Node000030"><a xlink:title=" ">
<path fill="none" stroke="#63b8ff" d="M756.5,-164.84C756.5,-157.21 756.5,-147.7 756.5,-139.45"/>
<polygon fill="#63b8ff" stroke="#63b8ff" points="760,-139.27 756.5,-129.27 753,-139.27 760,-139.27"/>
</a>
</g>
</g>
<!-- Node31 -->
<g id="Node000031" class="node">
<title>Node31</title>
<g id="a_Node000031"><a xlink:href="utilsPatchGeneration_8hpp.html" target="_top" xlink:title=" ">
<polygon fill="white" stroke="#666666" points="1091,-129 952,-129 952,-110 1091,-110 1091,-129"/>
<text text-anchor="middle" x="1021.5" y="-117" font-family="Helvetica,sans-Serif" font-size="10.00">utilsPatchGeneration.hpp</text>
</a>
</g>
</g>
<!-- Node1&#45;&gt;Node31 -->
<g id="edge53_Node000001_Node000031" class="edge">
<title>Node1&#45;&gt;Node31</title>
<g id="a_edge53_Node000001_Node000031"><a xlink:title=" ">
<path fill="none" stroke="#63b8ff" d="M819.97,-164.99C866.9,-154.63 929.84,-140.73 972.82,-131.25"/>
<polygon fill="#63b8ff" stroke="#63b8ff" points="973.74,-134.63 982.75,-129.05 972.23,-127.79 973.74,-134.63"/>
</a>
</g>
</g>
<!-- Node33 -->
<g id="Node000033" class="node">
<title>Node33</title>
<g id="a_Node000033"><a xlink:href="log_8hpp.html" target="_top" xlink:title=" ">
<polygon fill="white" stroke="#666666" points="1009.5,-74 913.5,-74 913.5,-55 1009.5,-55 1009.5,-74"/>
<text text-anchor="middle" x="961.5" y="-62" font-family="Helvetica,sans-Serif" font-size="10.00">uvgvpcc/log.hpp</text>
</a>
</g>
</g>
<!-- Node1&#45;&gt;Node33 -->
<g id="edge68_Node000001_Node000033" class="edge">
<title>Node1&#45;&gt;Node33</title>
<g id="a_edge68_Node000001_Node000033"><a xlink:title=" ">
<path fill="none" stroke="#63b8ff" d="M815.63,-164.99C842.54,-156.98 873.99,-145.24 899.5,-129 919.31,-116.39 937.5,-96.3 948.98,-82.09"/>
<polygon fill="#63b8ff" stroke="#63b8ff" points="951.81,-84.16 955.22,-74.13 946.3,-79.84 951.81,-84.16"/>
</a>
</g>
</g>
<!-- Node2&#45;&gt;Node3 -->
<g id="edge2_Node000002_Node000003" class="edge">
<title>Node2&#45;&gt;Node3</title>
<g id="a_edge2_Node000002_Node000003"><a xlink:title=" ">
<path fill="none" stroke="#63b8ff" d="M521.24,-109.98C506.37,-101.69 483.52,-88.94 466.08,-79.22"/>
<polygon fill="#63b8ff" stroke="#63b8ff" points="467.48,-75.99 457.04,-74.17 464.07,-82.1 467.48,-75.99"/>
</a>
</g>
</g>
<!-- Node3&#45;&gt;Node4 -->
<g id="edge3_Node000003_Node000004" class="edge">
<title>Node3&#45;&gt;Node4</title>
<g id="a_edge3_Node000003_Node000004"><a xlink:title=" ">
<path fill="none" stroke="#63b8ff" d="M380.29,-58.64C306.97,-52.31 180.3,-39.73 63.05,-19.09"/>
<polygon fill="#63b8ff" stroke="#63b8ff" points="63.64,-15.64 53.18,-17.33 62.41,-22.54 63.64,-15.64"/>
</a>
</g>
</g>
<!-- Node3&#45;&gt;Node5 -->
<g id="edge4_Node000003_Node000005" class="edge">
<title>Node3&#45;&gt;Node5</title>
<g id="a_edge4_Node000003_Node000005"><a xlink:title=" ">
<path fill="none" stroke="#63b8ff" d="M484.64,-54.94C525.46,-46.74 588.67,-33.74 652.45,-19.18"/>
<polygon fill="#63b8ff" stroke="#63b8ff" points="653.31,-22.57 662.27,-16.92 651.75,-15.75 653.31,-22.57"/>
</a>
</g>
</g>
<!-- Node6 -->
<g id="Node000006" class="node">
<title>Node6</title>
<g id="a_Node000006"><a xlink:title=" ">
<polygon fill="#e0e0e0" stroke="#999999" points="790.5,-19 730.5,-19 730.5,0 790.5,0 790.5,-19"/>
<text text-anchor="middle" x="760.5" y="-7" font-family="Helvetica,sans-Serif" font-size="10.00">iostream</text>
</a>
</g>
</g>
<!-- Node3&#45;&gt;Node6 -->
<g id="edge5_Node000003_Node000006" class="edge">
<title>Node3&#45;&gt;Node6</title>
<g id="a_edge5_Node000003_Node000006"><a xlink:title=" ">
<path fill="none" stroke="#63b8ff" d="M501.48,-54.98C556.07,-46.99 639.12,-34.27 720.4,-19.12"/>
<polygon fill="#63b8ff" stroke="#63b8ff" points="721.12,-22.55 730.3,-17.26 719.83,-15.67 721.12,-22.55"/>
</a>
</g>
</g>
<!-- Node3&#45;&gt;Node7 -->
<g id="edge6_Node000003_Node000007" class="edge">
<title>Node3&#45;&gt;Node7</title>
<g id="a_edge6_Node000003_Node000007"><a xlink:title=" ">
<path fill="none" stroke="#63b8ff" d="M393.08,-54.96C347.09,-46.74 275.74,-33.68 204.56,-19.16"/>
<polygon fill="#63b8ff" stroke="#63b8ff" points="205.02,-15.68 194.52,-17.1 203.62,-22.54 205.02,-15.68"/>
</a>
</g>
</g>
<!-- Node8 -->
<g id="Node000008" class="node">
<title>Node8</title>
<g id="a_Node000008"><a xlink:title=" ">
<polygon fill="#e0e0e0" stroke="#999999" points="260,-19 213,-19 213,0 260,0 260,-19"/>
<text text-anchor="middle" x="236.5" y="-7" font-family="Helvetica,sans-Serif" font-size="10.00">queue</text>
</a>
</g>
</g>
<!-- Node3&#45;&gt;Node8 -->
<g id="edge7_Node000003_Node000008" class="edge">
<title>Node3&#45;&gt;Node8</title>
<g id="a_edge7_Node000003_Node000008"><a xlink:title=" ">
<path fill="none" stroke="#63b8ff" d="M407.99,-54.96C375.17,-46.58 323.47,-33.34 270.22,-19.44"/>
<polygon fill="#63b8ff" stroke="#63b8ff" points="270.82,-15.98 260.26,-16.83 269.05,-22.75 270.82,-15.98"/>
</a>
</g>
</g>
<!-- Node9 -->
<g id="Node000009" class="node">
<title>Node9</title>
<g id="a_Node000009"><a xlink:title=" ">
<polygon fill="#e0e0e0" stroke="#999999" points="349,-19 278,-19 278,0 349,0 349,-19"/>
<text text-anchor="middle" x="313.5" y="-7" font-family="Helvetica,sans-Serif" font-size="10.00">semaphore</text>
</a>
</g>
</g>
<!-- Node3&#45;&gt;Node9 -->
<g id="edge8_Node000003_Node000009" class="edge">
<title>Node3&#45;&gt;Node9</title>
<g id="a_edge8_Node000003_Node000009"><a xlink:title=" ">
<path fill="none" stroke="#63b8ff" d="M420.93,-54.98C400.07,-46.34 367.53,-32.87 343.73,-23.02"/>
<polygon fill="#63b8ff" stroke="#63b8ff" points="345.02,-19.76 334.44,-19.17 342.34,-26.23 345.02,-19.76"/>
</a>
</g>
</g>
<!-- Node10 -->
<g id="Node000010" class="node">
<title>Node10</title>
<g id="a_Node000010"><a xlink:title=" ">
<polygon fill="#e0e0e0" stroke="#999999" points="644.5,-19 588.5,-19 588.5,0 644.5,0 644.5,-19"/>
<text text-anchor="middle" x="616.5" y="-7" font-family="Helvetica,sans-Serif" font-size="10.00">sstream</text>
</a>
</g>
</g>
<!-- Node3&#45;&gt;Node10 -->
<g id="edge9_Node000003_Node000010" class="edge">
<title>Node3&#45;&gt;Node10</title>
<g id="a_edge9_Node000003_Node000010"><a xlink:title=" ">
<path fill="none" stroke="#63b8ff" d="M469.62,-54.98C499.21,-46.02 545.97,-31.86 578.76,-21.93"/>
<polygon fill="#63b8ff" stroke="#63b8ff" points="579.9,-25.24 588.45,-18.99 577.87,-18.54 579.9,-25.24"/>
</a>
</g>
</g>
<!-- Node3&#45;&gt;Node11 -->
<g id="edge10_Node000003_Node000011" class="edge">
<title>Node3&#45;&gt;Node11</title>
<g id="a_edge10_Node000003_Node000011"><a xlink:title=" ">
<path fill="none" stroke="#63b8ff" d="M502.74,-58.59C572.26,-52.41 689.19,-40.2 798.38,-18.96"/>
<polygon fill="#63b8ff" stroke="#63b8ff" points="799.11,-22.39 808.24,-17.02 797.75,-15.52 799.11,-22.39"/>
</a>
</g>
</g>
<!-- Node3&#45;&gt;Node12 -->
<g id="edge11_Node000003_Node000012" class="edge">
<title>Node3&#45;&gt;Node12</title>
<g id="a_edge11_Node000003_Node000012"><a xlink:title=" ">
<path fill="none" stroke="#63b8ff" d="M380.38,-56.88C319.02,-49.77 221.65,-37.25 128.13,-18.91"/>
<polygon fill="#63b8ff" stroke="#63b8ff" points="128.71,-15.46 118.22,-16.95 127.35,-22.33 128.71,-15.46"/>
</a>
</g>
</g>
<!-- Node3&#45;&gt;Node13 -->
<g id="edge12_Node000003_Node000013" class="edge">
<title>Node3&#45;&gt;Node13</title>
<g id="a_edge12_Node000003_Node000013"><a xlink:title=" ">
<path fill="none" stroke="#63b8ff" d="M502.55,-61.08C654.66,-54.86 1048.56,-37.61 1200.28,-18.92"/>
<polygon fill="#63b8ff" stroke="#63b8ff" points="1200.87,-22.37 1210.35,-17.63 1199.98,-15.43 1200.87,-22.37"/>
</a>
</g>
</g>
<!-- Node14 -->
<g id="Node000014" class="node">
<title>Node14</title>
<g id="a_Node000014"><a xlink:title=" ">
<polygon fill="#e0e0e0" stroke="#999999" points="460,-19 367,-19 367,0 460,0 460,-19"/>
<text text-anchor="middle" x="413.5" y="-7" font-family="Helvetica,sans-Serif" font-size="10.00">unordered_map</text>
</a>
</g>
</g>
<!-- Node3&#45;&gt;Node14 -->
<g id="edge13_Node000003_Node000014" class="edge">
<title>Node3&#45;&gt;Node14</title>
<g id="a_edge13_Node000003_Node000014"><a xlink:title=" ">
<path fill="none" stroke="#63b8ff" d="M436.88,-54.75C433.04,-47.49 427.48,-36.95 422.74,-27.98"/>
<polygon fill="#63b8ff" stroke="#63b8ff" points="425.8,-26.3 418.04,-19.09 419.61,-29.57 425.8,-26.3"/>
</a>
</g>
</g>
<!-- Node15 -->
<g id="Node000015" class="node">
<title>Node15</title>
<g id="a_Node000015"><a xlink:title=" ">
<polygon fill="#e0e0e0" stroke="#999999" points="570.5,-19 478.5,-19 478.5,0 570.5,0 570.5,-19"/>
<text text-anchor="middle" x="524.5" y="-7" font-family="Helvetica,sans-Serif" font-size="10.00">../utils/utils.hpp</text>
</a>
</g>
</g>
<!-- Node3&#45;&gt;Node15 -->
<g id="edge14_Node000003_Node000015" class="edge">
<title>Node3&#45;&gt;Node15</title>
<g id="a_edge14_Node000003_Node000015"><a xlink:title=" ">
<path fill="none" stroke="#63b8ff" d="M454.84,-54.98C467.59,-46.84 487.05,-34.41 502.17,-24.76"/>
<polygon fill="#63b8ff" stroke="#63b8ff" points="504.38,-27.5 510.92,-19.17 500.61,-21.6 504.38,-27.5"/>
</a>
</g>
</g>
<!-- Node19&#45;&gt;Node7 -->
<g id="edge30_Node000019_Node000007" class="edge">
<title>Node19&#45;&gt;Node7</title>
<g id="a_edge30_Node000019_Node000007"><a xlink:title=" ">
<path fill="none" stroke="#63b8ff" d="M1327.27,-60.93C1297.73,-59.1 1256.63,-56.68 1220.5,-55 772.02,-34.1 653.83,-75.99 204.86,-18.91"/>
<polygon fill="#63b8ff" stroke="#63b8ff" points="205.23,-15.43 194.86,-17.63 204.34,-22.37 205.23,-15.43"/>
</a>
</g>
</g>
<!-- Node19&#45;&gt;Node11 -->
<g id="edge32_Node000019_Node000011" class="edge">
<title>Node19&#45;&gt;Node11</title>
<g id="a_edge32_Node000019_Node000011"><a xlink:title=" ">
<path fill="none" stroke="#63b8ff" d="M1327.36,-60.91C1227.4,-54.31 968.33,-36.27 862.77,-18.85"/>
<polygon fill="#63b8ff" stroke="#63b8ff" points="863.19,-15.37 852.74,-17.11 862,-22.27 863.19,-15.37"/>
</a>
</g>
</g>
<!-- Node19&#45;&gt;Node13 -->
<g id="edge25_Node000019_Node000013" class="edge">
<title>Node19&#45;&gt;Node13</title>
<g id="a_edge25_Node000019_Node000013"><a xlink:title=" ">
<path fill="none" stroke="#63b8ff" d="M1347.42,-54.98C1327.13,-46.38 1295.54,-32.99 1272.33,-23.15"/>
<polygon fill="#63b8ff" stroke="#63b8ff" points="1273.52,-19.85 1262.95,-19.17 1270.79,-26.3 1273.52,-19.85"/>
</a>
</g>
</g>
<!-- Node20 -->
<g id="Node000020" class="node">
<title>Node20</title>
<g id="a_Node000020"><a xlink:title=" ">
<polygon fill="#e0e0e0" stroke="#999999" points="1720,-19 1671,-19 1671,0 1720,0 1720,-19"/>
<text text-anchor="middle" x="1695.5" y="-7" font-family="Helvetica,sans-Serif" font-size="10.00">cstdlib</text>
</a>
</g>
</g>
<!-- Node19&#45;&gt;Node20 -->
<g id="edge26_Node000019_Node000020" class="edge">
<title>Node19&#45;&gt;Node20</title>
<g id="a_edge26_Node000019_Node000020"><a xlink:title=" ">
<path fill="none" stroke="#63b8ff" d="M1407.81,-58.75C1462.94,-51.96 1565.09,-38.34 1660.85,-19.17"/>
<polygon fill="#63b8ff" stroke="#63b8ff" points="1661.59,-22.6 1670.7,-17.18 1660.2,-15.73 1661.59,-22.6"/>
</a>
</g>
</g>
<!-- Node21 -->
<g id="Node000021" class="node">
<title>Node21</title>
<g id="a_Node000021"><a xlink:title=" ">
<polygon fill="#e0e0e0" stroke="#999999" points="1788.5,-19 1738.5,-19 1738.5,0 1788.5,0 1788.5,-19"/>
<text text-anchor="middle" x="1763.5" y="-7" font-family="Helvetica,sans-Serif" font-size="10.00">cstring</text>
</a>
</g>
</g>
<!-- Node19&#45;&gt;Node21 -->
<g id="edge27_Node000019_Node000021" class="edge">
<title>Node19&#45;&gt;Node21</title>
<g id="a_edge27_Node000019_Node000021"><a xlink:title=" ">
<path fill="none" stroke="#63b8ff" d="M1407.65,-60.19C1472.94,-54.45 1606.28,-41.26 1728.43,-18.99"/>
<polygon fill="#63b8ff" stroke="#63b8ff" points="1729.13,-22.42 1738.32,-17.16 1727.85,-15.53 1729.13,-22.42"/>
</a>
</g>
</g>
<!-- Node22 -->
<g id="Node000022" class="node">
<title>Node22</title>
<g id="a_Node000022"><a xlink:title=" ">
<polygon fill="#e0e0e0" stroke="#999999" points="1503,-19 1438,-19 1438,0 1503,0 1503,-19"/>
<text text-anchor="middle" x="1470.5" y="-7" font-family="Helvetica,sans-Serif" font-size="10.00">functional</text>
</a>
</g>
</g>
<!-- Node19&#45;&gt;Node22 -->
<g id="edge28_Node000019_Node000022" class="edge">
<title>Node19&#45;&gt;Node22</title>
<g id="a_edge28_Node000019_Node000022"><a xlink:title=" ">
<path fill="none" stroke="#63b8ff" d="M1384.05,-54.98C1400.39,-46.57 1425.63,-33.59 1444.63,-23.81"/>
<polygon fill="#63b8ff" stroke="#63b8ff" points="1446.36,-26.86 1453.65,-19.17 1443.16,-20.63 1446.36,-26.86"/>
</a>
</g>
</g>
<!-- Node23 -->
<g id="Node000023" class="node">
<title>Node23</title>
<g id="a_Node000023"><a xlink:title=" ">
<polygon fill="#e0e0e0" stroke="#999999" points="1336.5,-19 1292.5,-19 1292.5,0 1336.5,0 1336.5,-19"/>
<text text-anchor="middle" x="1314.5" y="-7" font-family="Helvetica,sans-Serif" font-size="10.00">limits</text>
</a>
</g>
</g>
<!-- Node19&#45;&gt;Node23 -->
<g id="edge29_Node000019_Node000023" class="edge">
<title>Node19&#45;&gt;Node23</title>
<g id="a_edge29_Node000019_Node000023"><a xlink:title=" ">
<path fill="none" stroke="#63b8ff" d="M1358.75,-54.75C1351.03,-47.03 1339.6,-35.6 1330.28,-26.28"/>
<polygon fill="#63b8ff" stroke="#63b8ff" points="1332.64,-23.69 1323.09,-19.09 1327.69,-28.64 1332.64,-23.69"/>
</a>
</g>
</g>
<!-- Node24 -->
<g id="Node000024" class="node">
<title>Node24</title>
<g id="a_Node000024"><a xlink:title=" ">
<polygon fill="#e0e0e0" stroke="#999999" points="1420,-19 1355,-19 1355,0 1420,0 1420,-19"/>
<text text-anchor="middle" x="1387.5" y="-7" font-family="Helvetica,sans-Serif" font-size="10.00">stdexcept</text>
</a>
</g>
</g>
<!-- Node19&#45;&gt;Node24 -->
<g id="edge31_Node000019_Node000024" class="edge">
<title>Node19&#45;&gt;Node24</title>
<g id="a_edge31_Node000019_Node000024"><a xlink:title=" ">
<path fill="none" stroke="#63b8ff" d="M1370.8,-54.75C1373.48,-47.65 1377.35,-37.4 1380.69,-28.56"/>
<polygon fill="#63b8ff" stroke="#63b8ff" points="1384,-29.68 1384.26,-19.09 1377.45,-27.21 1384,-29.68"/>
</a>
</g>
</g>
<!-- Node25 -->
<g id="Node000025" class="node">
<title>Node25</title>
<g id="a_Node000025"><a xlink:title=" ">
<polygon fill="#e0e0e0" stroke="#999999" points="1590,-19 1521,-19 1521,0 1590,0 1590,-19"/>
<text text-anchor="middle" x="1555.5" y="-7" font-family="Helvetica,sans-Serif" font-size="10.00">type_traits</text>
</a>
</g>
</g>
<!-- Node19&#45;&gt;Node25 -->
<g id="edge33_Node000019_Node000025" class="edge">
<title>Node19&#45;&gt;Node25</title>
<g id="a_edge33_Node000019_Node000025"><a xlink:title=" ">
<path fill="none" stroke="#63b8ff" d="M1397.71,-54.98C1429.54,-46.01 1479.86,-31.82 1515.1,-21.89"/>
<polygon fill="#63b8ff" stroke="#63b8ff" points="1516.38,-25.16 1525.06,-19.08 1514.48,-18.43 1516.38,-25.16"/>
</a>
</g>
</g>
<!-- Node26 -->
<g id="Node000026" class="node">
<title>Node26</title>
<g id="a_Node000026"><a xlink:title=" ">
<polygon fill="#e0e0e0" stroke="#999999" points="1653,-19 1608,-19 1608,0 1653,0 1653,-19"/>
<text text-anchor="middle" x="1630.5" y="-7" font-family="Helvetica,sans-Serif" font-size="10.00">utility</text>
</a>
</g>
</g>
<!-- Node19&#45;&gt;Node26 -->
<g id="edge34_Node000019_Node000026" class="edge">
<title>Node19&#45;&gt;Node26</title>
<g id="a_edge34_Node000019_Node000026"><a xlink:title=" ">
<path fill="none" stroke="#63b8ff" d="M1407.52,-56.8C1451.83,-49.17 1525.59,-35.83 1597.7,-19.28"/>
<polygon fill="#63b8ff" stroke="#63b8ff" points="1598.91,-22.59 1607.87,-16.93 1597.33,-15.78 1598.91,-22.59"/>
</a>
</g>
</g>
<!-- Node27&#45;&gt;Node3 -->
<g id="edge46_Node000027_Node000003" class="edge">
<title>Node27&#45;&gt;Node3</title>
<g id="a_edge46_Node000027_Node000003"><a xlink:title=" ">
<path fill="none" stroke="#63b8ff" d="M372.67,-109.98C385.27,-101.84 404.5,-89.41 419.44,-79.76"/>
<polygon fill="#63b8ff" stroke="#63b8ff" points="421.59,-82.54 428.09,-74.17 417.79,-76.66 421.59,-82.54"/>
</a>
</g>
</g>
<!-- Node27&#45;&gt;Node4 -->
<g id="edge36_Node000027_Node000004" class="edge">
<title>Node27&#45;&gt;Node4</title>
<g id="a_edge36_Node000027_Node000004"><a xlink:title=" ">
<path fill="none" stroke="#63b8ff" d="M316.92,-109.98C279.9,-102.11 225.06,-89.35 178.5,-74 133.84,-59.28 83.85,-37.28 53.8,-23.41"/>
<polygon fill="#63b8ff" stroke="#63b8ff" points="54.95,-20.09 44.4,-19.05 52,-26.44 54.95,-20.09"/>
</a>
</g>
</g>
<!-- Node27&#45;&gt;Node7 -->
<g id="edge37_Node000027_Node000007" class="edge">
<title>Node27&#45;&gt;Node7</title>
<g id="a_edge37_Node000027_Node000007"><a xlink:title=" ">
<path fill="none" stroke="#63b8ff" d="M352.15,-109.94C340.22,-96.54 315.38,-70.54 289.5,-55 262.93,-39.05 229.74,-27.51 204.39,-20.19"/>
<polygon fill="#63b8ff" stroke="#63b8ff" points="205.31,-16.82 194.74,-17.5 203.43,-23.56 205.31,-16.82"/>
</a>
</g>
</g>
<!-- Node27&#45;&gt;Node11 -->
<g id="edge38_Node000027_Node000011" class="edge">
<title>Node27&#45;&gt;Node11</title>
<g id="a_edge38_Node000027_Node000011"><a xlink:title=" ">
<path fill="none" stroke="#63b8ff" d="M399.99,-109.99C476.03,-93.85 645.56,-57.23 798.16,-19.25"/>
<polygon fill="#63b8ff" stroke="#63b8ff" points="799.33,-22.57 808.18,-16.75 797.63,-15.78 799.33,-22.57"/>
</a>
</g>
</g>
<!-- Node27&#45;&gt;Node12 -->
<g id="edge39_Node000027_Node000012" class="edge">
<title>Node27&#45;&gt;Node12</title>
<g id="a_edge39_Node000027_Node000012"><a xlink:title=" ">
<path fill="none" stroke="#63b8ff" d="M328.6,-110C300.31,-101.87 257.5,-88.71 221.5,-74 184.67,-58.96 143.81,-37.64 118.63,-23.95"/>
<polygon fill="#63b8ff" stroke="#63b8ff" points="120.24,-20.84 109.79,-19.1 116.87,-26.98 120.24,-20.84"/>
</a>
</g>
</g>
<!-- Node27&#45;&gt;Node28 -->
<g id="edge40_Node000027_Node000028" class="edge">
<title>Node27&#45;&gt;Node28</title>
<g id="a_edge40_Node000027_Node000028"><a xlink:title=" ">
<path fill="none" stroke="#63b8ff" d="M413.72,-111.63C494.69,-101.36 646.17,-82.15 725.7,-72.07"/>
<polygon fill="#63b8ff" stroke="#63b8ff" points="726.49,-75.5 735.97,-70.77 725.61,-68.55 726.49,-75.5"/>
</a>
</g>
</g>
<!-- Node28&#45;&gt;Node5 -->
<g id="edge42_Node000028_Node000005" class="edge">
<title>Node28&#45;&gt;Node5</title>
<g id="a_edge42_Node000028_Node000005"><a xlink:title=" ">
<path fill="none" stroke="#63b8ff" d="M763.04,-54.98C749.08,-46.77 727.71,-34.18 711.25,-24.49"/>
<polygon fill="#63b8ff" stroke="#63b8ff" points="712.62,-21.23 702.22,-19.17 709.06,-27.26 712.62,-21.23"/>
</a>
</g>
</g>
<!-- Node28&#45;&gt;Node10 -->
<g id="edge44_Node000028_Node000010" class="edge">
<title>Node28&#45;&gt;Node10</title>
<g id="a_edge44_Node000028_Node000010"><a xlink:title=" ">
<path fill="none" stroke="#63b8ff" d="M751.63,-54.98C724.72,-46.13 682.38,-32.19 652.27,-22.28"/>
<polygon fill="#63b8ff" stroke="#63b8ff" points="653.16,-18.88 642.57,-19.08 650.97,-25.53 653.16,-18.88"/>
</a>
</g>
</g>
<!-- Node28&#45;&gt;Node16 -->
<g id="edge41_Node000028_Node000016" class="edge">
<title>Node28&#45;&gt;Node16</title>
<g id="a_edge41_Node000028_Node000016"><a xlink:title=" ">
<path fill="none" stroke="#63b8ff" d="M795.82,-54.98C814.16,-46.46 842.61,-33.23 863.73,-23.41"/>
<polygon fill="#63b8ff" stroke="#63b8ff" points="865.26,-26.56 872.85,-19.17 862.31,-20.21 865.26,-26.56"/>
</a>
</g>
</g>
<!-- Node28&#45;&gt;Node23 -->
<g id="edge43_Node000028_Node000023" class="edge">
<title>Node28&#45;&gt;Node23</title>
<g id="a_edge43_Node000028_Node000023"><a xlink:title=" ">
<path fill="none" stroke="#63b8ff" d="M819.15,-60.81C920.21,-54.12 1177.24,-36.18 1282.28,-18.84"/>
<polygon fill="#63b8ff" stroke="#63b8ff" points="1283,-22.27 1292.26,-17.11 1281.81,-15.37 1283,-22.27"/>
</a>
</g>
</g>
<!-- Node29 -->
<g id="Node000029" class="node">
<title>Node29</title>
<g id="a_Node000029"><a xlink:title=" ">
<polygon fill="#e0e0e0" stroke="#999999" points="986.5,-19 930.5,-19 930.5,0 986.5,0 986.5,-19"/>
<text text-anchor="middle" x="958.5" y="-7" font-family="Helvetica,sans-Serif" font-size="10.00">iomanip</text>
</a>
</g>
</g>
<!-- Node28&#45;&gt;Node29 -->
<g id="edge45_Node000028_Node000029" class="edge">
<title>Node28&#45;&gt;Node29</title>
<g id="a_edge45_Node000028_Node000029"><a xlink:title=" ">
<path fill="none" stroke="#63b8ff" d="M806.58,-54.98C837.46,-45.94 886.41,-31.61 920.37,-21.67"/>
<polygon fill="#63b8ff" stroke="#63b8ff" points="921.77,-24.9 930.38,-18.73 919.8,-18.18 921.77,-24.9"/>
</a>
</g>
</g>
<!-- Node30&#45;&gt;Node11 -->
<g id="edge49_Node000030_Node000011" class="edge">
<title>Node30&#45;&gt;Node11</title>
<g id="a_edge49_Node000030_Node000011"><a xlink:title=" ">
<path fill="none" stroke="#63b8ff" d="M746.94,-109.88C734.15,-97.27 714.41,-73.32 726.5,-55 734.88,-42.3 771.23,-28.67 798.61,-19.89"/>
<polygon fill="#63b8ff" stroke="#63b8ff" points="799.72,-23.21 808.22,-16.88 797.63,-16.53 799.72,-23.21"/>
</a>
</g>
</g>
<!-- Node30&#45;&gt;Node12 -->
<g id="edge50_Node000030_Node000012" class="edge">
<title>Node30&#45;&gt;Node12</title>
<g id="a_edge50_Node000030_Node000012"><a xlink:title=" ">
<path fill="none" stroke="#63b8ff" d="M697.23,-114.21C591.59,-106.32 374.88,-88.93 300.5,-74 237.58,-61.37 166.53,-37.17 126.47,-22.57"/>
<polygon fill="#63b8ff" stroke="#63b8ff" points="127.57,-19.24 116.98,-19.07 125.15,-25.81 127.57,-19.24"/>
</a>
</g>
</g>
<!-- Node30&#45;&gt;Node24 -->
<g id="edge48_Node000030_Node000024" class="edge">
<title>Node30&#45;&gt;Node24</title>
<g id="a_edge48_Node000030_Node000024"><a xlink:title=" ">
<path fill="none" stroke="#63b8ff" d="M815.71,-113.48C869.61,-107.73 950.86,-96.11 1018.5,-74 1036.45,-68.13 1038.43,-60.47 1056.5,-55 1177.25,-18.47 1215.8,-38.76 1344.72,-18.96"/>
<polygon fill="#63b8ff" stroke="#63b8ff" points="1345.66,-22.36 1354.99,-17.33 1344.56,-15.45 1345.66,-22.36"/>
</a>
</g>
</g>
<!-- Node30&#45;&gt;Node28 -->
<g id="edge51_Node000030_Node000028" class="edge">
<title>Node30&#45;&gt;Node28</title>
<g id="a_edge51_Node000030_Node000028"><a xlink:title=" ">
<path fill="none" stroke="#63b8ff" d="M759.97,-109.75C762.78,-102.65 766.84,-92.4 770.35,-83.56"/>
<polygon fill="#63b8ff" stroke="#63b8ff" points="773.67,-84.68 774.1,-74.09 767.16,-82.1 773.67,-84.68"/>
</a>
</g>
</g>
<!-- Node31&#45;&gt;Node5 -->
<g id="edge63_Node000031_Node000005" class="edge">
<title>Node31&#45;&gt;Node5</title>
<g id="a_edge63_Node000031_Node000005"><a xlink:title=" ">
<path fill="none" stroke="#63b8ff" d="M995.48,-109.9C958.27,-97.63 887.7,-74.42 827.5,-55 791.72,-43.46 750.73,-30.46 722.39,-21.5"/>
<polygon fill="#63b8ff" stroke="#63b8ff" points="723.15,-18.07 712.56,-18.39 721.04,-24.74 723.15,-18.07"/>
</a>
</g>
</g>
<!-- Node31&#45;&gt;Node12 -->
<g id="edge65_Node000031_Node000012" class="edge">
<title>Node31&#45;&gt;Node12</title>
<g id="a_edge65_Node000031_Node000012"><a xlink:title=" ">
<path fill="none" stroke="#63b8ff" d="M951.95,-115.09C808.06,-107.82 481.88,-90.12 371.5,-74 319.19,-66.36 194.52,-35.3 128.03,-19.09"/>
<polygon fill="#63b8ff" stroke="#63b8ff" points="128.82,-15.68 118.27,-16.71 127.16,-22.48 128.82,-15.68"/>
</a>
</g>
</g>
<!-- Node31&#45;&gt;Node13 -->
<g id="edge66_Node000031_Node000013" class="edge">
<title>Node31&#45;&gt;Node13</title>
<g id="a_edge66_Node000031_Node000013"><a xlink:title=" ">
<path fill="none" stroke="#63b8ff" d="M1091.01,-110.22C1140.47,-103.01 1201.42,-91.03 1220.5,-74 1233.14,-62.72 1238.52,-43.81 1240.81,-29.55"/>
<polygon fill="#63b8ff" stroke="#63b8ff" points="1244.31,-29.7 1242.06,-19.35 1237.37,-28.85 1244.31,-29.7"/>
</a>
</g>
</g>
<!-- Node31&#45;&gt;Node19 -->
<g id="edge67_Node000031_Node000019" class="edge">
<title>Node31&#45;&gt;Node19</title>
<g id="a_edge67_Node000031_Node000019"><a xlink:title=" ">
<path fill="none" stroke="#63b8ff" d="M1077.09,-109.98C1143.41,-99.83 1253.32,-82.99 1317.21,-73.2"/>
<polygon fill="#63b8ff" stroke="#63b8ff" points="1318.08,-76.61 1327.43,-71.64 1317.02,-69.69 1318.08,-76.61"/>
</a>
</g>
</g>
<!-- Node31&#45;&gt;Node28 -->
<g id="edge55_Node000031_Node000028" class="edge">
<title>Node31&#45;&gt;Node28</title>
<g id="a_edge55_Node000031_Node000028"><a xlink:title=" ">
<path fill="none" stroke="#63b8ff" d="M982.3,-109.98C940.09,-100.82 872.85,-86.21 827.02,-76.26"/>
<polygon fill="#63b8ff" stroke="#63b8ff" points="827.53,-72.78 817.01,-74.08 826.04,-79.63 827.53,-72.78"/>
</a>
</g>
</g>
<!-- Node32 -->
<g id="Node000032" class="node">
<title>Node32</title>
<g id="a_Node000032"><a xlink:title=" ">
<polygon fill="#e0e0e0" stroke="#999999" points="1137.5,-74 1065.5,-74 1065.5,-55 1137.5,-55 1137.5,-74"/>
<text text-anchor="middle" x="1101.5" y="-62" font-family="Helvetica,sans-Serif" font-size="10.00">sys/types.h</text>
</a>
</g>
</g>
<!-- Node31&#45;&gt;Node32 -->
<g id="edge54_Node000031_Node000032" class="edge">
<title>Node31&#45;&gt;Node32</title>
<g id="a_edge54_Node000031_Node000032"><a xlink:title=" ">
<path fill="none" stroke="#63b8ff" d="M1034.35,-109.98C1046.64,-101.84 1065.41,-89.41 1079.98,-79.76"/>
<polygon fill="#63b8ff" stroke="#63b8ff" points="1082.01,-82.61 1088.41,-74.17 1078.14,-76.78 1082.01,-82.61"/>
</a>
</g>
</g>
<!-- Node31&#45;&gt;Node33 -->
<g id="edge56_Node000031_Node000033" class="edge">
<title>Node31&#45;&gt;Node33</title>
<g id="a_edge56_Node000031_Node000033"><a xlink:title=" ">
<path fill="none" stroke="#63b8ff" d="M1011.86,-109.98C1002.99,-102.15 989.63,-90.34 978.89,-80.86"/>
<polygon fill="#63b8ff" stroke="#63b8ff" points="981.13,-78.17 971.32,-74.17 976.49,-83.41 981.13,-78.17"/>
</a>
</g>
</g>
<!-- Node37 -->
<g id="Node000037" class="node">
<title>Node37</title>
<g id="a_Node000037"><a xlink:title=" ">
<polygon fill="#e0e0e0" stroke="#999999" points="1211,-74 1156,-74 1156,-55 1211,-55 1211,-74"/>
<text text-anchor="middle" x="1183.5" y="-62" font-family="Helvetica,sans-Serif" font-size="10.00">fstream</text>
</a>
</g>
</g>
<!-- Node31&#45;&gt;Node37 -->
<g id="edge64_Node000031_Node000037" class="edge">
<title>Node31&#45;&gt;Node37</title>
<g id="a_edge64_Node000031_Node000037"><a xlink:title=" ">
<path fill="none" stroke="#63b8ff" d="M1047.53,-109.98C1074.61,-101.13 1117.21,-87.19 1147.51,-77.28"/>
<polygon fill="#63b8ff" stroke="#63b8ff" points="1148.85,-80.52 1157.27,-74.08 1146.68,-73.87 1148.85,-80.52"/>
</a>
</g>
</g>
<!-- Node33&#45;&gt;Node6 -->
<g id="edge60_Node000033_Node000006" class="edge">
<title>Node33&#45;&gt;Node6</title>
<g id="a_edge60_Node000033_Node000006"><a xlink:title=" ">
<path fill="none" stroke="#63b8ff" d="M929.21,-54.98C894.31,-45.78 838.65,-31.11 800.89,-21.15"/>
<polygon fill="#63b8ff" stroke="#63b8ff" points="801.3,-17.64 790.74,-18.47 799.52,-24.41 801.3,-17.64"/>
</a>
</g>
</g>
<!-- Node33&#45;&gt;Node11 -->
<g id="edge61_Node000033_Node000011" class="edge">
<title>Node33&#45;&gt;Node11</title>
<g id="a_edge61_Node000033_Node000011"><a xlink:title=" ">
<path fill="none" stroke="#63b8ff" d="M940.45,-54.98C919.09,-46.34 885.8,-32.87 861.44,-23.02"/>
<polygon fill="#63b8ff" stroke="#63b8ff" points="862.51,-19.68 851.93,-19.17 859.89,-26.17 862.51,-19.68"/>
</a>
</g>
</g>
<!-- Node33&#45;&gt;Node29 -->
<g id="edge59_Node000033_Node000029" class="edge">
<title>Node33&#45;&gt;Node29</title>
<g id="a_edge59_Node000033_Node000029"><a xlink:title=" ">
<path fill="none" stroke="#63b8ff" d="M961,-54.75C960.61,-47.8 960.05,-37.85 959.55,-29.13"/>
<polygon fill="#63b8ff" stroke="#63b8ff" points="963.05,-28.88 958.99,-19.09 956.06,-29.27 963.05,-28.88"/>
</a>
</g>
</g>
<!-- Node34 -->
<g id="Node000034" class="node">
<title>Node34</title>
<g id="a_Node000034"><a xlink:title=" ">
<polygon fill="#e0e0e0" stroke="#999999" points="1054.5,-19 1004.5,-19 1004.5,0 1054.5,0 1054.5,-19"/>
<text text-anchor="middle" x="1029.5" y="-7" font-family="Helvetica,sans-Serif" font-size="10.00">chrono</text>
</a>
</g>
</g>
<!-- Node33&#45;&gt;Node34 -->
<g id="edge57_Node000033_Node000034" class="edge">
<title>Node33&#45;&gt;Node34</title>
<g id="a_edge57_Node000033_Node000034"><a xlink:title=" ">
<path fill="none" stroke="#63b8ff" d="M972.43,-54.98C982.58,-47.07 997.92,-35.11 1010.15,-25.58"/>
<polygon fill="#63b8ff" stroke="#63b8ff" points="1012.64,-28.08 1018.38,-19.17 1008.34,-22.56 1012.64,-28.08"/>
</a>
</g>
</g>
<!-- Node35 -->
<g id="Node000035" class="node">
<title>Node35</title>
<g id="a_Node000035"><a xlink:title=" ">
<polygon fill="#e0e0e0" stroke="#999999" points="1126,-19 1073,-19 1073,0 1126,0 1126,-19"/>
<text text-anchor="middle" x="1099.5" y="-7" font-family="Helvetica,sans-Serif" font-size="10.00">cstdarg</text>
</a>
</g>
</g>
<!-- Node33&#45;&gt;Node35 -->
<g id="edge58_Node000033_Node000035" class="edge">
<title>Node33&#45;&gt;Node35</title>
<g id="a_edge58_Node000033_Node000035"><a xlink:title=" ">
<path fill="none" stroke="#63b8ff" d="M983.67,-54.98C1006.27,-46.3 1041.56,-32.75 1067.25,-22.88"/>
<polygon fill="#63b8ff" stroke="#63b8ff" points="1068.84,-26.02 1076.92,-19.17 1066.33,-19.49 1068.84,-26.02"/>
</a>
</g>
</g>
<!-- Node36 -->
<g id="Node000036" class="node">
<title>Node36</title>
<g id="a_Node000036"><a xlink:title=" ">
<polygon fill="#e0e0e0" stroke="#999999" points="1192.5,-19 1144.5,-19 1144.5,0 1192.5,0 1192.5,-19"/>
<text text-anchor="middle" x="1168.5" y="-7" font-family="Helvetica,sans-Serif" font-size="10.00">mutex</text>
</a>
</g>
</g>
<!-- Node33&#45;&gt;Node36 -->
<g id="edge62_Node000033_Node000036" class="edge">
<title>Node33&#45;&gt;Node36</title>
<g id="a_edge62_Node000033_Node000036"><a xlink:title=" ">
<path fill="none" stroke="#63b8ff" d="M994.76,-54.98C1033.16,-45.15 1095.97,-29.07 1134.63,-19.17"/>
<polygon fill="#63b8ff" stroke="#63b8ff" points="1135.56,-22.55 1144.38,-16.68 1133.82,-15.77 1135.56,-22.55"/>
</a>
</g>
</g>
</g>
</svg>

<g id="navigator" transform="translate(0 0)" fill="#404254">
  <rect fill="#f2f5e9" fill-opacity="0.5" stroke="#606060" stroke-width=".5" x="0" y="0" width="60" height="60"/>
  <use id="zoomplus" xlink:href="#zoomPlus" x="17" y="9" onmousedown="handleZoom(evt,'in')"/>
  <use id="zoomminus" xlink:href="#zoomMin" x="42" y="9" onmousedown="handleZoom(evt,'out')"/>
  <use id="reset" xlink:href="#resetDef" x="30" y="36" onmousedown="handleReset()"/>
   <use id="arrowup" xlink:href="#arrowUp" x="0" y="0" onmousedown="handlePan(0,-1)"/>
  <use id="arrowright" xlink:href="#arrowRight" x="0" y="0" onmousedown="handlePan(1,0)"/>
  <use id="arrowdown" xlink:href="#arrowDown" x="0" y="0" onmousedown="handlePan(0,1)"/>
  <use id="arrowleft" xlink:href="#arrowLeft" x="0" y="0" onmousedown="handlePan(-1,0)"/>
</g>
<svg viewBox="0 0 15 15" width="100%" height="30px" preserveAspectRatio="xMaxYMin meet">
 <g id="arrow_out" transform="scale(0.3 0.3)">
  <a xlink:href="patchSegmentation_8cpp__incl_org.svg" target="_base">
   <rect id="button" ry="5" rx="5" y="6" x="6" height="38" width="38"
        fill="#f2f5e9" fill-opacity="0.5" stroke="#606060" stroke-width="1.0"/>
   <path id="arrow"
     d="M 11.500037,31.436501 C 11.940474,20.09759 22.043105,11.32322 32.158766,21.979434 L 37.068811,17.246167 C 37.068811,17.246167 37.088388,32 37.088388,32 L 22.160133,31.978069 C 22.160133,31.978069 26.997745,27.140456 26.997745,27.140456 C 18.528582,18.264221 13.291696,25.230495 11.500037,31.436501 z"
     style="fill:#404040;"/>
  </a>
 </g>
</svg>

<style type='text/css'>
<![CDATA[
[data-mouse-over-selected='false'] { opacity: 0.7; }
[data-mouse-over-selected='true']  { opacity: 1.0; }
]]>
</style>
<script type="application/ecmascript"><![CDATA[
document.addEventListener('DOMContentLoaded', (event) => {
  highlightEdges();
  highlightAdjacentNodes();
});
]]></script>
</svg>
