<?xml version="1.0" encoding="UTF-8" standalone="no"?>
<!DOCTYPE svg PUBLIC "-//W3C//DTD SVG 1.1//EN"
 "http://www.w3.org/Graphics/SVG/1.1/DTD/svg11.dtd">
<!-- Generated by graphviz version 2.43.0 (0)
 -->
<!-- Title: src/lib/patchPacking/patchPacking.cpp Pages: 1 -->
<!--zoomable 203 -->

<svg id="main" version="1.1" xmlns="http://www.w3.org/2000/svg" xmlns:xlink="http://www.w3.org/1999/xlink" xml:space="preserve" onload="init(evt)">
<style type="text/css"><![CDATA[
.node, .edge {opacity: 0.7;}
.node.selected, .edge.selected {opacity: 1;}
.edge:hover path { stroke: red; }
.edge:hover polygon { stroke: red; fill: red; }
]]></style>

<defs>
  <circle id="rim" cx="0" cy="0" r="7"/>
  <circle id="rim2" cx="0" cy="0" r="3.5"/>
  <g id="zoomPlus">
    <use xlink:href="#rim" fill="#404040"><set attributeName="fill" to="#808080" begin="zoomplus.mouseover" end="zoomplus.mouseout"/></use>
    <path d="M-4,0h8M0,-4v8" fill="none" stroke="white" stroke-width="1.5" pointer-events="none"/>
  </g>
  <g id="zoomMin">
    <use xlink:href="#rim" fill="#404040"><set attributeName="fill" to="#808080" begin="zoomminus.mouseover" end="zoomminus.mouseout"/></use>
    <path d="M-4,0h8" fill="none" stroke="white" stroke-width="1.5" pointer-events="none"/>
  </g>
  <g id="arrowUp" transform="translate(30 24)">
    <use xlink:href="#rim"/>
    <path pointer-events="none" fill="none" stroke="white" stroke-width="1.5" d="M0,-3.0v7 M-2.5,-0.5L0,-3.0L2.5,-0.5"/>
  </g>
  <g id="arrowRight" transform="rotate(90) translate(36 -43)">
    <use xlink:href="#rim"/>
    <path pointer-events="none" fill="none" stroke="white" stroke-width="1.5" d="M0,-3.0v7 M-2.5,-0.5L0,-3.0L2.5,-0.5"/>
  </g>
  <g id="arrowDown" transform="rotate(180) translate(-30 -48)">
    <use xlink:href="#rim"/>
    <path pointer-events="none" fill="none" stroke="white" stroke-width="1.5" d="M0,-3.0v7 M-2.5,-0.5L0,-3.0L2.5,-0.5"/>
  </g>
  <g id="arrowLeft" transform="rotate(270) translate(-36 17)">
    <use xlink:href="#rim"/>
    <path pointer-events="none" fill="none" stroke="white" stroke-width="1.5" d="M0,-3.0v7 M-2.5,-0.5L0,-3.0L2.5,-0.5"/>
  </g>
  <g id="resetDef">
    <use xlink:href="#rim2" fill="#404040"><set attributeName="fill" to="#808080" begin="reset.mouseover" end="reset.mouseout"/></use>
  </g>
</defs>
<script type="application/ecmascript">
var viewWidth = 1298;
var viewHeight = 203;
var sectionId = 'dynsection-0';
</script>
<script type="application/ecmascript" xlink:href="svg.min.js"/>
<svg id="graph" class="graph">
<g id="viewport">
<title>src/lib/patchPacking/patchPacking.cpp</title>
<!-- Node1 -->
<g id="Node000001" class="node">
<title>Node1</title>
<g id="a_Node000001"><a xlink:title=" ">
<polygon fill="#999999" stroke="#666666" points="678,-195 565,-195 565,-165 678,-165 678,-195"/>
<text text-anchor="start" x="573" y="-183" font-family="Helvetica,sans-Serif" font-size="10.00">src/lib/patchPacking</text>
<text text-anchor="middle" x="621.5" y="-172" font-family="Helvetica,sans-Serif" font-size="10.00">/patchPacking.cpp</text>
</a>
</g>
</g>
<!-- Node2 -->
<g id="Node000002" class="node">
<title>Node2</title>
<g id="a_Node000002"><a xlink:href="patchPacking_8hpp.html" target="_top" xlink:title=" ">
<polygon fill="white" stroke="#666666" points="517.5,-129 415.5,-129 415.5,-110 517.5,-110 517.5,-129"/>
<text text-anchor="middle" x="466.5" y="-117" font-family="Helvetica,sans-Serif" font-size="10.00">patchPacking.hpp</text>
</a>
</g>
</g>
<!-- Node1&#45;&gt;Node2 -->
<g id="edge1_Node000001_Node000002" class="edge">
<title>Node1&#45;&gt;Node2</title>
<g id="a_edge1_Node000001_Node000002"><a xlink:title=" ">
<path fill="none" stroke="#63b8ff" d="M584.37,-164.99C558.28,-155.14 523.72,-142.1 498.77,-132.68"/>
<polygon fill="#63b8ff" stroke="#63b8ff" points="499.98,-129.4 489.39,-129.14 497.51,-135.94 499.98,-129.4"/>
</a>
</g>
</g>
<!-- Node3 -->
<g id="Node000003" class="node">
<title>Node3</title>
<g id="a_Node000003"><a xlink:title=" ">
<polygon fill="#e0e0e0" stroke="#999999" points="410.5,-74 370.5,-74 370.5,-55 410.5,-55 410.5,-74"/>
<text text-anchor="middle" x="390.5" y="-62" font-family="Helvetica,sans-Serif" font-size="10.00">span</text>
</a>
</g>
</g>
<!-- Node1&#45;&gt;Node3 -->
<g id="edge20_Node000001_Node000003" class="edge">
<title>Node1&#45;&gt;Node3</title>
<g id="a_edge20_Node000001_Node000003"><a xlink:title=" ">
<path fill="none" stroke="#63b8ff" d="M564.78,-172.52C508.86,-164.99 428.65,-150.75 406.5,-129 394.72,-117.44 391.16,-98.56 390.28,-84.39"/>
<polygon fill="#63b8ff" stroke="#63b8ff" points="393.77,-84.18 390.04,-74.27 386.78,-84.34 393.77,-84.18"/>
</a>
</g>
</g>
<!-- Node4 -->
<g id="Node000004" class="node">
<title>Node4</title>
<g id="a_Node000004"><a xlink:href="uvgvpcc_8hpp.html" target="_top" xlink:title=" ">
<polygon fill="white" stroke="#666666" points="554.5,-74 432.5,-74 432.5,-55 554.5,-55 554.5,-74"/>
<text text-anchor="middle" x="493.5" y="-62" font-family="Helvetica,sans-Serif" font-size="10.00">uvgvpcc/uvgvpcc.hpp</text>
</a>
</g>
</g>
<!-- Node1&#45;&gt;Node4 -->
<g id="edge31_Node000001_Node000004" class="edge">
<title>Node1&#45;&gt;Node4</title>
<g id="a_edge31_Node000001_Node000004"><a xlink:title=" ">
<path fill="none" stroke="#63b8ff" d="M605.55,-164.85C581.46,-143.5 535.99,-103.17 511.01,-81.03"/>
<polygon fill="#63b8ff" stroke="#63b8ff" points="513.2,-78.29 503.39,-74.27 508.55,-83.52 513.2,-78.29"/>
</a>
</g>
</g>
<!-- Node5 -->
<g id="Node000005" class="node">
<title>Node5</title>
<g id="a_Node000005"><a xlink:title=" ">
<polygon fill="#e0e0e0" stroke="#999999" points="53,-19 0,-19 0,0 53,0 53,-19"/>
<text text-anchor="middle" x="26.5" y="-7" font-family="Helvetica,sans-Serif" font-size="10.00">cstddef</text>
</a>
</g>
</g>
<!-- Node1&#45;&gt;Node5 -->
<g id="edge16_Node000001_Node000005" class="edge">
<title>Node1&#45;&gt;Node5</title>
<g id="a_edge16_Node000001_Node000005"><a xlink:title=" ">
<path fill="none" stroke="#63b8ff" d="M564.82,-172.31C506.8,-164.71 414.34,-150.49 336.5,-129 229.58,-99.48 108.15,-47.34 54.51,-23.3"/>
<polygon fill="#63b8ff" stroke="#63b8ff" points="55.85,-20.07 45.3,-19.15 52.98,-26.45 55.85,-20.07"/>
</a>
</g>
</g>
<!-- Node6 -->
<g id="Node000006" class="node">
<title>Node6</title>
<g id="a_Node000006"><a xlink:title=" ">
<polygon fill="#e0e0e0" stroke="#999999" points="813.5,-19 763.5,-19 763.5,0 813.5,0 813.5,-19"/>
<text text-anchor="middle" x="788.5" y="-7" font-family="Helvetica,sans-Serif" font-size="10.00">cstdint</text>
</a>
</g>
</g>
<!-- Node1&#45;&gt;Node6 -->
<g id="edge17_Node000001_Node000006" class="edge">
<title>Node1&#45;&gt;Node6</title>
<g id="a_edge17_Node000001_Node000006"><a xlink:title=" ">
<path fill="none" stroke="#63b8ff" d="M632.29,-164.75C643.35,-150.43 661.32,-127.97 678.5,-110 708.95,-78.15 747.85,-44.42 770.29,-25.55"/>
<polygon fill="#63b8ff" stroke="#63b8ff" points="772.6,-28.18 778.03,-19.09 768.11,-22.81 772.6,-28.18"/>
</a>
</g>
</g>
<!-- Node8 -->
<g id="Node000008" class="node">
<title>Node8</title>
<g id="a_Node000008"><a xlink:title=" ">
<polygon fill="#e0e0e0" stroke="#999999" points="129.5,-19 71.5,-19 71.5,0 129.5,0 129.5,-19"/>
<text text-anchor="middle" x="100.5" y="-7" font-family="Helvetica,sans-Serif" font-size="10.00">memory</text>
</a>
</g>
</g>
<!-- Node1&#45;&gt;Node8 -->
<g id="edge19_Node000001_Node000008" class="edge">
<title>Node1&#45;&gt;Node8</title>
<g id="a_edge19_Node000001_Node000008"><a xlink:title=" ">
<path fill="none" stroke="#63b8ff" d="M564.81,-169.41C518.04,-160.83 450.23,-146.87 392.5,-129 292.55,-98.05 178.97,-47.21 127.91,-23.47"/>
<polygon fill="#63b8ff" stroke="#63b8ff" points="129.09,-20.16 118.55,-19.1 126.13,-26.5 129.09,-20.16"/>
</a>
</g>
</g>
<!-- Node12 -->
<g id="Node000012" class="node">
<title>Node12</title>
<g id="a_Node000012"><a xlink:title=" ">
<polygon fill="#e0e0e0" stroke="#999999" points="745.5,-19 701.5,-19 701.5,0 745.5,0 745.5,-19"/>
<text text-anchor="middle" x="723.5" y="-7" font-family="Helvetica,sans-Serif" font-size="10.00">string</text>
</a>
</g>
</g>
<!-- Node1&#45;&gt;Node12 -->
<g id="edge21_Node000001_Node000012" class="edge">
<title>Node1&#45;&gt;Node12</title>
<g id="a_edge21_Node000001_Node000012"><a xlink:title=" ">
<path fill="none" stroke="#63b8ff" d="M620.61,-164.89C619.78,-140.22 621.36,-88.69 645.5,-55 656.78,-39.26 675.48,-28.32 691.74,-21.22"/>
<polygon fill="#63b8ff" stroke="#63b8ff" points="693.5,-24.28 701.46,-17.29 690.88,-17.79 693.5,-24.28"/>
</a>
</g>
</g>
<!-- Node13 -->
<g id="Node000013" class="node">
<title>Node13</title>
<g id="a_Node000013"><a xlink:title=" ">
<polygon fill="#e0e0e0" stroke="#999999" points="605,-19 558,-19 558,0 605,0 605,-19"/>
<text text-anchor="middle" x="581.5" y="-7" font-family="Helvetica,sans-Serif" font-size="10.00">vector</text>
</a>
</g>
</g>
<!-- Node1&#45;&gt;Node13 -->
<g id="edge22_Node000001_Node000013" class="edge">
<title>Node1&#45;&gt;Node13</title>
<g id="a_edge22_Node000001_Node000013"><a xlink:title=" ">
<path fill="none" stroke="#63b8ff" d="M617.24,-164.62C614.34,-154.66 610.51,-141.07 607.5,-129 598.74,-93.88 590.02,-52.5 585.24,-29.1"/>
<polygon fill="#63b8ff" stroke="#63b8ff" points="588.64,-28.27 583.22,-19.16 581.78,-29.66 588.64,-28.27"/>
</a>
</g>
</g>
<!-- Node16 -->
<g id="Node000016" class="node">
<title>Node16</title>
<g id="a_Node000016"><a xlink:title=" ">
<polygon fill="#e0e0e0" stroke="#999999" points="751.5,-129 687.5,-129 687.5,-110 751.5,-110 751.5,-129"/>
<text text-anchor="middle" x="719.5" y="-117" font-family="Helvetica,sans-Serif" font-size="10.00">algorithm</text>
</a>
</g>
</g>
<!-- Node1&#45;&gt;Node16 -->
<g id="edge15_Node000001_Node000016" class="edge">
<title>Node1&#45;&gt;Node16</title>
<g id="a_edge15_Node000001_Node000016"><a xlink:title=" ">
<path fill="none" stroke="#63b8ff" d="M645.22,-164.84C660.7,-155.6 680.82,-143.59 696.21,-134.4"/>
<polygon fill="#63b8ff" stroke="#63b8ff" points="698.31,-137.23 705.1,-129.09 694.72,-131.21 698.31,-137.23"/>
</a>
</g>
</g>
<!-- Node17 -->
<g id="Node000017" class="node">
<title>Node17</title>
<g id="a_Node000017"><a xlink:title=" ">
<polygon fill="#e0e0e0" stroke="#999999" points="823,-129 770,-129 770,-110 823,-110 823,-129"/>
<text text-anchor="middle" x="796.5" y="-117" font-family="Helvetica,sans-Serif" font-size="10.00">iterator</text>
</a>
</g>
</g>
<!-- Node1&#45;&gt;Node17 -->
<g id="edge18_Node000001_Node000017" class="edge">
<title>Node1&#45;&gt;Node17</title>
<g id="a_edge18_Node000001_Node000017"><a xlink:title=" ">
<path fill="none" stroke="#63b8ff" d="M663.42,-164.99C693.23,-155.02 732.83,-141.78 761.06,-132.35"/>
<polygon fill="#63b8ff" stroke="#63b8ff" points="762.54,-135.54 770.91,-129.05 760.32,-128.9 762.54,-135.54"/>
</a>
</g>
</g>
<!-- Node18 -->
<g id="Node000018" class="node">
<title>Node18</title>
<g id="a_Node000018"><a xlink:title=" ">
<polygon fill="#e0e0e0" stroke="#999999" points="893.5,-129 841.5,-129 841.5,-110 893.5,-110 893.5,-129"/>
<text text-anchor="middle" x="867.5" y="-117" font-family="Helvetica,sans-Serif" font-size="10.00">cassert</text>
</a>
</g>
</g>
<!-- Node1&#45;&gt;Node18 -->
<g id="edge23_Node000001_Node000018" class="edge">
<title>Node1&#45;&gt;Node18</title>
<g id="a_edge23_Node000001_Node000018"><a xlink:title=" ">
<path fill="none" stroke="#63b8ff" d="M678.39,-165.61C718.54,-156.14 773.88,-143.04 831.17,-129.31"/>
<polygon fill="#63b8ff" stroke="#63b8ff" points="832.22,-132.66 841.13,-126.92 830.59,-125.85 832.22,-132.66"/>
</a>
</g>
</g>
<!-- Node19 -->
<g id="Node000019" class="node">
<title>Node19</title>
<g id="a_Node000019"><a xlink:href="log_8hpp.html" target="_top" xlink:title=" ">
<polygon fill="white" stroke="#666666" points="969.5,-74 873.5,-74 873.5,-55 969.5,-55 969.5,-74"/>
<text text-anchor="middle" x="921.5" y="-62" font-family="Helvetica,sans-Serif" font-size="10.00">uvgvpcc/log.hpp</text>
</a>
</g>
</g>
<!-- Node1&#45;&gt;Node19 -->
<g id="edge24_Node000001_Node000019" class="edge">
<title>Node1&#45;&gt;Node19</title>
<g id="a_edge24_Node000001_Node000019"><a xlink:title=" ">
<path fill="none" stroke="#63b8ff" d="M678.06,-175.84C750.37,-170.66 870.09,-157.89 902.5,-129 914.97,-117.88 919.41,-98.95 920.91,-84.64"/>
<polygon fill="#63b8ff" stroke="#63b8ff" points="924.42,-84.61 921.59,-74.4 917.44,-84.15 924.42,-84.61"/>
</a>
</g>
</g>
<!-- Node24 -->
<g id="Node000024" class="node">
<title>Node24</title>
<g id="a_Node000024"><a xlink:href="utils_8hpp.html" target="_top" xlink:title=" ">
<polygon fill="white" stroke="#666666" points="1126,-74 1043,-74 1043,-55 1126,-55 1126,-74"/>
<text text-anchor="middle" x="1084.5" y="-62" font-family="Helvetica,sans-Serif" font-size="10.00">utils/utils.hpp</text>
</a>
</g>
</g>
<!-- Node1&#45;&gt;Node24 -->
<g id="edge32_Node000001_Node000024" class="edge">
<title>Node1&#45;&gt;Node24</title>
<g id="a_edge32_Node000001_Node000024"><a xlink:title=" ">
<path fill="none" stroke="#63b8ff" d="M678.09,-173.1C738.97,-165.93 838.26,-151.89 921.5,-129 970.6,-115.5 1025.3,-92.45 1057.2,-78.14"/>
<polygon fill="#63b8ff" stroke="#63b8ff" points="1058.68,-81.32 1066.34,-74.01 1055.79,-74.94 1058.68,-81.32"/>
</a>
</g>
</g>
<!-- Node2&#45;&gt;Node3 -->
<g id="edge2_Node000002_Node000003" class="edge">
<title>Node2&#45;&gt;Node3</title>
<g id="a_edge2_Node000002_Node000003"><a xlink:title=" ">
<path fill="none" stroke="#63b8ff" d="M454.29,-109.98C442.72,-101.92 425.12,-89.65 411.34,-80.03"/>
<polygon fill="#63b8ff" stroke="#63b8ff" points="413.14,-77.02 402.93,-74.17 409.13,-82.76 413.14,-77.02"/>
</a>
</g>
</g>
<!-- Node2&#45;&gt;Node4 -->
<g id="edge3_Node000002_Node000004" class="edge">
<title>Node2&#45;&gt;Node4</title>
<g id="a_edge3_Node000002_Node000004"><a xlink:title=" ">
<path fill="none" stroke="#63b8ff" d="M470.96,-109.75C474.62,-102.57 479.91,-92.18 484.45,-83.27"/>
<polygon fill="#63b8ff" stroke="#63b8ff" points="487.7,-84.59 489.12,-74.09 481.47,-81.41 487.7,-84.59"/>
</a>
</g>
</g>
<!-- Node4&#45;&gt;Node5 -->
<g id="edge4_Node000004_Node000005" class="edge">
<title>Node4&#45;&gt;Node5</title>
<g id="a_edge4_Node000004_Node000005"><a xlink:title=" ">
<path fill="none" stroke="#63b8ff" d="M432.13,-56.38C427.86,-55.91 423.61,-55.44 419.5,-55 264.2,-38.25 221.51,-45.08 63.25,-18.89"/>
<polygon fill="#63b8ff" stroke="#63b8ff" points="63.6,-15.4 53.16,-17.21 62.44,-22.31 63.6,-15.4"/>
</a>
</g>
</g>
<!-- Node4&#45;&gt;Node6 -->
<g id="edge5_Node000004_Node000006" class="edge">
<title>Node4&#45;&gt;Node6</title>
<g id="a_edge5_Node000004_Node000006"><a xlink:title=" ">
<path fill="none" stroke="#63b8ff" d="M551.02,-54.98C601.78,-47.17 677.99,-34.74 753.18,-19.15"/>
<polygon fill="#63b8ff" stroke="#63b8ff" points="754.23,-22.5 763.3,-17.03 752.79,-15.65 754.23,-22.5"/>
</a>
</g>
</g>
<!-- Node7 -->
<g id="Node000007" class="node">
<title>Node7</title>
<g id="a_Node000007"><a xlink:title=" ">
<polygon fill="#e0e0e0" stroke="#999999" points="683.5,-19 623.5,-19 623.5,0 683.5,0 683.5,-19"/>
<text text-anchor="middle" x="653.5" y="-7" font-family="Helvetica,sans-Serif" font-size="10.00">iostream</text>
</a>
</g>
</g>
<!-- Node4&#45;&gt;Node7 -->
<g id="edge6_Node000004_Node000007" class="edge">
<title>Node4&#45;&gt;Node7</title>
<g id="a_edge6_Node000004_Node000007"><a xlink:title=" ">
<path fill="none" stroke="#63b8ff" d="M519.21,-54.98C545.95,-46.13 588.03,-32.19 617.95,-22.28"/>
<polygon fill="#63b8ff" stroke="#63b8ff" points="619.2,-25.55 627.59,-19.08 617,-18.9 619.2,-25.55"/>
</a>
</g>
</g>
<!-- Node4&#45;&gt;Node8 -->
<g id="edge7_Node000004_Node000008" class="edge">
<title>Node4&#45;&gt;Node8</title>
<g id="a_edge7_Node000004_Node000008"><a xlink:title=" ">
<path fill="none" stroke="#63b8ff" d="M432.5,-56.18C345.44,-45.68 191.17,-26.89 139.92,-19"/>
<polygon fill="#63b8ff" stroke="#63b8ff" points="140.34,-15.52 129.9,-17.37 139.21,-22.43 140.34,-15.52"/>
</a>
</g>
</g>
<!-- Node9 -->
<g id="Node000009" class="node">
<title>Node9</title>
<g id="a_Node000009"><a xlink:title=" ">
<polygon fill="#e0e0e0" stroke="#999999" points="340,-19 293,-19 293,0 340,0 340,-19"/>
<text text-anchor="middle" x="316.5" y="-7" font-family="Helvetica,sans-Serif" font-size="10.00">queue</text>
</a>
</g>
</g>
<!-- Node4&#45;&gt;Node9 -->
<g id="edge8_Node000004_Node000009" class="edge">
<title>Node4&#45;&gt;Node9</title>
<g id="a_edge8_Node000004_Node000009"><a xlink:title=" ">
<path fill="none" stroke="#63b8ff" d="M465.06,-54.98C433.62,-45.57 383.04,-30.42 349.78,-20.46"/>
<polygon fill="#63b8ff" stroke="#63b8ff" points="350.64,-17.07 340.05,-17.55 348.63,-23.77 350.64,-17.07"/>
</a>
</g>
</g>
<!-- Node10 -->
<g id="Node000010" class="node">
<title>Node10</title>
<g id="a_Node000010"><a xlink:title=" ">
<polygon fill="#e0e0e0" stroke="#999999" points="429,-19 358,-19 358,0 429,0 429,-19"/>
<text text-anchor="middle" x="393.5" y="-7" font-family="Helvetica,sans-Serif" font-size="10.00">semaphore</text>
</a>
</g>
</g>
<!-- Node4&#45;&gt;Node10 -->
<g id="edge9_Node000004_Node000010" class="edge">
<title>Node4&#45;&gt;Node10</title>
<g id="a_edge9_Node000004_Node000010"><a xlink:title=" ">
<path fill="none" stroke="#63b8ff" d="M477.43,-54.98C461.64,-46.61 437.28,-33.7 418.87,-23.95"/>
<polygon fill="#63b8ff" stroke="#63b8ff" points="420.33,-20.76 409.86,-19.17 417.06,-26.95 420.33,-20.76"/>
</a>
</g>
</g>
<!-- Node11 -->
<g id="Node000011" class="node">
<title>Node11</title>
<g id="a_Node000011"><a xlink:title=" ">
<polygon fill="#e0e0e0" stroke="#999999" points="1021.5,-19 965.5,-19 965.5,0 1021.5,0 1021.5,-19"/>
<text text-anchor="middle" x="993.5" y="-7" font-family="Helvetica,sans-Serif" font-size="10.00">sstream</text>
</a>
</g>
</g>
<!-- Node4&#45;&gt;Node11 -->
<g id="edge10_Node000004_Node000011" class="edge">
<title>Node4&#45;&gt;Node11</title>
<g id="a_edge10_Node000004_Node000011"><a xlink:title=" ">
<path fill="none" stroke="#63b8ff" d="M554.87,-60.15C641.83,-54.84 806.03,-42.74 955.05,-19.03"/>
<polygon fill="#63b8ff" stroke="#63b8ff" points="955.98,-22.43 965.29,-17.38 954.86,-15.51 955.98,-22.43"/>
</a>
</g>
</g>
<!-- Node4&#45;&gt;Node12 -->
<g id="edge11_Node000004_Node000012" class="edge">
<title>Node4&#45;&gt;Node12</title>
<g id="a_edge11_Node000004_Node000012"><a xlink:title=" ">
<path fill="none" stroke="#63b8ff" d="M534.41,-54.95C572.61,-46.83 631.43,-33.99 691.2,-19.24"/>
<polygon fill="#63b8ff" stroke="#63b8ff" points="692.32,-22.56 701.18,-16.76 690.63,-15.77 692.32,-22.56"/>
</a>
</g>
</g>
<!-- Node4&#45;&gt;Node13 -->
<g id="edge12_Node000004_Node000013" class="edge">
<title>Node4&#45;&gt;Node13</title>
<g id="a_edge12_Node000004_Node000013"><a xlink:title=" ">
<path fill="none" stroke="#63b8ff" d="M507.64,-54.98C521.29,-46.77 542.19,-34.18 558.28,-24.49"/>
<polygon fill="#63b8ff" stroke="#63b8ff" points="560.34,-27.33 567.1,-19.17 556.73,-21.33 560.34,-27.33"/>
</a>
</g>
</g>
<!-- Node14 -->
<g id="Node000014" class="node">
<title>Node14</title>
<g id="a_Node000014"><a xlink:title=" ">
<polygon fill="#e0e0e0" stroke="#999999" points="539.5,-19 447.5,-19 447.5,0 539.5,0 539.5,-19"/>
<text text-anchor="middle" x="493.5" y="-7" font-family="Helvetica,sans-Serif" font-size="10.00">../utils/utils.hpp</text>
</a>
</g>
</g>
<!-- Node4&#45;&gt;Node14 -->
<g id="edge13_Node000004_Node000014" class="edge">
<title>Node4&#45;&gt;Node14</title>
<g id="a_edge13_Node000004_Node000014"><a xlink:title=" ">
<path fill="none" stroke="#63b8ff" d="M493.5,-54.75C493.5,-47.8 493.5,-37.85 493.5,-29.13"/>
<polygon fill="#63b8ff" stroke="#63b8ff" points="497,-29.09 493.5,-19.09 490,-29.09 497,-29.09"/>
</a>
</g>
</g>
<!-- Node15 -->
<g id="Node000015" class="node">
<title>Node15</title>
<g id="a_Node000015"><a xlink:title=" ">
<polygon fill="#e0e0e0" stroke="#999999" points="275,-19 148,-19 148,0 275,0 275,-19"/>
<text text-anchor="middle" x="211.5" y="-7" font-family="Helvetica,sans-Serif" font-size="10.00">../utils/parameters.hpp</text>
</a>
</g>
</g>
<!-- Node4&#45;&gt;Node15 -->
<g id="edge14_Node000004_Node000015" class="edge">
<title>Node4&#45;&gt;Node15</title>
<g id="a_edge14_Node000004_Node000015"><a xlink:title=" ">
<path fill="none" stroke="#63b8ff" d="M448.19,-54.98C398.9,-45.72 320.07,-30.9 267.07,-20.94"/>
<polygon fill="#63b8ff" stroke="#63b8ff" points="267.64,-17.49 257.16,-19.08 266.34,-24.37 267.64,-17.49"/>
</a>
</g>
</g>
<!-- Node19&#45;&gt;Node7 -->
<g id="edge28_Node000019_Node000007" class="edge">
<title>Node19&#45;&gt;Node7</title>
<g id="a_edge28_Node000019_Node000007"><a xlink:title=" ">
<path fill="none" stroke="#63b8ff" d="M875.82,-54.94C831.72,-46.6 762.81,-33.39 693.89,-19.25"/>
<polygon fill="#63b8ff" stroke="#63b8ff" points="694.22,-15.75 683.72,-17.16 692.81,-22.6 694.22,-15.75"/>
</a>
</g>
</g>
<!-- Node19&#45;&gt;Node12 -->
<g id="edge29_Node000019_Node000012" class="edge">
<title>Node19&#45;&gt;Node12</title>
<g id="a_edge29_Node000019_Node000012"><a xlink:title=" ">
<path fill="none" stroke="#63b8ff" d="M889.15,-54.95C857.47,-46.57 807.56,-33.31 755.29,-19.2"/>
<polygon fill="#63b8ff" stroke="#63b8ff" points="756.08,-15.79 745.51,-16.56 754.25,-22.54 756.08,-15.79"/>
</a>
</g>
</g>
<!-- Node20 -->
<g id="Node000020" class="node">
<title>Node20</title>
<g id="a_Node000020"><a xlink:title=" ">
<polygon fill="#e0e0e0" stroke="#999999" points="947.5,-19 897.5,-19 897.5,0 947.5,0 947.5,-19"/>
<text text-anchor="middle" x="922.5" y="-7" font-family="Helvetica,sans-Serif" font-size="10.00">chrono</text>
</a>
</g>
</g>
<!-- Node19&#45;&gt;Node20 -->
<g id="edge25_Node000019_Node000020" class="edge">
<title>Node19&#45;&gt;Node20</title>
<g id="a_edge25_Node000019_Node000020"><a xlink:title=" ">
<path fill="none" stroke="#63b8ff" d="M921.67,-54.75C921.8,-47.8 921.98,-37.85 922.15,-29.13"/>
<polygon fill="#63b8ff" stroke="#63b8ff" points="925.65,-29.15 922.34,-19.09 918.65,-29.02 925.65,-29.15"/>
</a>
</g>
</g>
<!-- Node21 -->
<g id="Node000021" class="node">
<title>Node21</title>
<g id="a_Node000021"><a xlink:title=" ">
<polygon fill="#e0e0e0" stroke="#999999" points="1093,-19 1040,-19 1040,0 1093,0 1093,-19"/>
<text text-anchor="middle" x="1066.5" y="-7" font-family="Helvetica,sans-Serif" font-size="10.00">cstdarg</text>
</a>
</g>
</g>
<!-- Node19&#45;&gt;Node21 -->
<g id="edge26_Node000019_Node000021" class="edge">
<title>Node19&#45;&gt;Node21</title>
<g id="a_edge26_Node000019_Node000021"><a xlink:title=" ">
<path fill="none" stroke="#63b8ff" d="M944.8,-54.98C968.75,-46.23 1006.28,-32.51 1033.33,-22.62"/>
<polygon fill="#63b8ff" stroke="#63b8ff" points="1034.59,-25.89 1042.78,-19.17 1032.19,-19.32 1034.59,-25.89"/>
</a>
</g>
</g>
<!-- Node22 -->
<g id="Node000022" class="node">
<title>Node22</title>
<g id="a_Node000022"><a xlink:title=" ">
<polygon fill="#e0e0e0" stroke="#999999" points="1167.5,-19 1111.5,-19 1111.5,0 1167.5,0 1167.5,-19"/>
<text text-anchor="middle" x="1139.5" y="-7" font-family="Helvetica,sans-Serif" font-size="10.00">iomanip</text>
</a>
</g>
</g>
<!-- Node19&#45;&gt;Node22 -->
<g id="edge27_Node000019_Node000022" class="edge">
<title>Node19&#45;&gt;Node22</title>
<g id="a_edge27_Node000019_Node000022"><a xlink:title=" ">
<path fill="none" stroke="#63b8ff" d="M956.53,-54.98C996.25,-45.33 1060.79,-29.64 1101.64,-19.7"/>
<polygon fill="#63b8ff" stroke="#63b8ff" points="1102.6,-23.07 1111.49,-17.31 1100.95,-16.27 1102.6,-23.07"/>
</a>
</g>
</g>
<!-- Node23 -->
<g id="Node000023" class="node">
<title>Node23</title>
<g id="a_Node000023"><a xlink:title=" ">
<polygon fill="#e0e0e0" stroke="#999999" points="879.5,-19 831.5,-19 831.5,0 879.5,0 879.5,-19"/>
<text text-anchor="middle" x="855.5" y="-7" font-family="Helvetica,sans-Serif" font-size="10.00">mutex</text>
</a>
</g>
</g>
<!-- Node19&#45;&gt;Node23 -->
<g id="edge30_Node000019_Node000023" class="edge">
<title>Node19&#45;&gt;Node23</title>
<g id="a_edge30_Node000019_Node000023"><a xlink:title=" ">
<path fill="none" stroke="#63b8ff" d="M910.9,-54.98C901.04,-47.07 886.15,-35.11 874.28,-25.58"/>
<polygon fill="#63b8ff" stroke="#63b8ff" points="876.29,-22.7 866.3,-19.17 871.9,-28.16 876.29,-22.7"/>
</a>
</g>
</g>
<!-- Node24&#45;&gt;Node6 -->
<g id="edge34_Node000024_Node000006" class="edge">
<title>Node24&#45;&gt;Node6</title>
<g id="a_edge34_Node000024_Node000006"><a xlink:title=" ">
<path fill="none" stroke="#63b8ff" d="M1042.57,-57.39C992.65,-49.9 906.59,-36.27 823.55,-19.09"/>
<polygon fill="#63b8ff" stroke="#63b8ff" points="824.21,-15.65 813.7,-17.03 822.77,-22.5 824.21,-15.65"/>
</a>
</g>
</g>
<!-- Node24&#45;&gt;Node11 -->
<g id="edge36_Node000024_Node000011" class="edge">
<title>Node24&#45;&gt;Node11</title>
<g id="a_edge36_Node000024_Node000011"><a xlink:title=" ">
<path fill="none" stroke="#63b8ff" d="M1069.88,-54.98C1055.64,-46.69 1033.75,-33.94 1017.05,-24.22"/>
<polygon fill="#63b8ff" stroke="#63b8ff" points="1018.79,-21.18 1008.39,-19.17 1015.27,-27.23 1018.79,-21.18"/>
</a>
</g>
</g>
<!-- Node24&#45;&gt;Node22 -->
<g id="edge37_Node000024_Node000022" class="edge">
<title>Node24&#45;&gt;Node22</title>
<g id="a_edge37_Node000024_Node000022"><a xlink:title=" ">
<path fill="none" stroke="#63b8ff" d="M1093.58,-54.75C1101.59,-47.03 1113.46,-35.6 1123.12,-26.28"/>
<polygon fill="#63b8ff" stroke="#63b8ff" points="1125.81,-28.55 1130.59,-19.09 1120.96,-23.51 1125.81,-28.55"/>
</a>
</g>
</g>
<!-- Node25 -->
<g id="Node000025" class="node">
<title>Node25</title>
<g id="a_Node000025"><a xlink:title=" ">
<polygon fill="#e0e0e0" stroke="#999999" points="1227.5,-19 1185.5,-19 1185.5,0 1227.5,0 1227.5,-19"/>
<text text-anchor="middle" x="1206.5" y="-7" font-family="Helvetica,sans-Serif" font-size="10.00">array</text>
</a>
</g>
</g>
<!-- Node24&#45;&gt;Node25 -->
<g id="edge33_Node000024_Node000025" class="edge">
<title>Node24&#45;&gt;Node25</title>
<g id="a_edge33_Node000024_Node000025"><a xlink:title=" ">
<path fill="none" stroke="#63b8ff" d="M1104.1,-54.98C1123.82,-46.42 1154.45,-33.11 1177.08,-23.28"/>
<polygon fill="#63b8ff" stroke="#63b8ff" points="1178.76,-26.37 1186.54,-19.17 1175.98,-19.94 1178.76,-26.37"/>
</a>
</g>
</g>
<!-- Node26 -->
<g id="Node000026" class="node">
<title>Node26</title>
<g id="a_Node000026"><a xlink:title=" ">
<polygon fill="#e0e0e0" stroke="#999999" points="1289.5,-19 1245.5,-19 1245.5,0 1289.5,0 1289.5,-19"/>
<text text-anchor="middle" x="1267.5" y="-7" font-family="Helvetica,sans-Serif" font-size="10.00">limits</text>
</a>
</g>
</g>
<!-- Node24&#45;&gt;Node26 -->
<g id="edge35_Node000024_Node000026" class="edge">
<title>Node24&#45;&gt;Node26</title>
<g id="a_edge35_Node000024_Node000026"><a xlink:title=" ">
<path fill="none" stroke="#63b8ff" d="M1113.9,-54.98C1147.14,-45.36 1201.08,-29.74 1235.39,-19.8"/>
<polygon fill="#63b8ff" stroke="#63b8ff" points="1236.73,-23.05 1245.36,-16.91 1234.79,-16.33 1236.73,-23.05"/>
</a>
</g>
</g>
</g>
</svg>

<g id="navigator" transform="translate(0 0)" fill="#404254">
  <rect fill="#f2f5e9" fill-opacity="0.5" stroke="#606060" stroke-width=".5" x="0" y="0" width="60" height="60"/>
  <use id="zoomplus" xlink:href="#zoomPlus" x="17" y="9" onmousedown="handleZoom(evt,'in')"/>
  <use id="zoomminus" xlink:href="#zoomMin" x="42" y="9" onmousedown="handleZoom(evt,'out')"/>
  <use id="reset" xlink:href="#resetDef" x="30" y="36" onmousedown="handleReset()"/>
   <use id="arrowup" xlink:href="#arrowUp" x="0" y="0" onmousedown="handlePan(0,-1)"/>
  <use id="arrowright" xlink:href="#arrowRight" x="0" y="0" onmousedown="handlePan(1,0)"/>
  <use id="arrowdown" xlink:href="#arrowDown" x="0" y="0" onmousedown="handlePan(0,1)"/>
  <use id="arrowleft" xlink:href="#arrowLeft" x="0" y="0" onmousedown="handlePan(-1,0)"/>
</g>
<svg viewBox="0 0 15 15" width="100%" height="30px" preserveAspectRatio="xMaxYMin meet">
 <g id="arrow_out" transform="scale(0.3 0.3)">
  <a xlink:href="patchPacking_8cpp__incl_org.svg" target="_base">
   <rect id="button" ry="5" rx="5" y="6" x="6" height="38" width="38"
        fill="#f2f5e9" fill-opacity="0.5" stroke="#606060" stroke-width="1.0"/>
   <path id="arrow"
     d="M 11.500037,31.436501 C 11.940474,20.09759 22.043105,11.32322 32.158766,21.979434 L 37.068811,17.246167 C 37.068811,17.246167 37.088388,32 37.088388,32 L 22.160133,31.978069 C 22.160133,31.978069 26.997745,27.140456 26.997745,27.140456 C 18.528582,18.264221 13.291696,25.230495 11.500037,31.436501 z"
     style="fill:#404040;"/>
  </a>
 </g>
</svg>

<style type='text/css'>
<![CDATA[
[data-mouse-over-selected='false'] { opacity: 0.7; }
[data-mouse-over-selected='true']  { opacity: 1.0; }
]]>
</style>
<script type="application/ecmascript"><![CDATA[
document.addEventListener('DOMContentLoaded', (event) => {
  highlightEdges();
  highlightAdjacentNodes();
});
]]></script>
</svg>
