<?xml version="1.0" encoding="UTF-8" standalone="no"?>
<!DOCTYPE svg PUBLIC "-//W3C//DTD SVG 1.1//EN"
 "http://www.w3.org/Graphics/SVG/1.1/DTD/svg11.dtd">
<!-- Generated by graphviz version 2.43.0 (0)
 -->
<!-- Title: src/lib/patchPacking/patchPacking.cpp Pages: 1 -->
<svg width="1232pt" height="203pt"
 viewBox="0.00 0.00 1231.50 203.00" xmlns="http://www.w3.org/2000/svg" xmlns:xlink="http://www.w3.org/1999/xlink">
<g id="graph0" class="graph" transform="scale(1 1) rotate(0) translate(4 199)">
<title>src/lib/patchPacking/patchPacking.cpp</title>
<!-- Node1 -->
<g id="Node000001" class="node">
<title>Node1</title>
<g id="a_Node000001"><a xlink:title=" ">
<polygon fill="#999999" stroke="#666666" points="693,-195 580,-195 580,-165 693,-165 693,-195"/>
<text text-anchor="start" x="588" y="-183" font-family="Helvetica,sans-Serif" font-size="10.00">src/lib/patchPacking</text>
<text text-anchor="middle" x="636.5" y="-172" font-family="Helvetica,sans-Serif" font-size="10.00">/patchPacking.cpp</text>
</a>
</g>
</g>
<!-- Node2 -->
<g id="Node000002" class="node">
<title>Node2</title>
<g id="a_Node000002"><a xlink:href="patchPacking_8hpp.html" target="_top" xlink:title=" ">
<polygon fill="white" stroke="#666666" points="551.5,-129 449.5,-129 449.5,-110 551.5,-110 551.5,-129"/>
<text text-anchor="middle" x="500.5" y="-117" font-family="Helvetica,sans-Serif" font-size="10.00">patchPacking.hpp</text>
</a>
</g>
</g>
<!-- Node1&#45;&gt;Node2 -->
<g id="edge1_Node000001_Node000002" class="edge">
<title>Node1&#45;&gt;Node2</title>
<g id="a_edge1_Node000001_Node000002"><a xlink:title=" ">
<path fill="none" stroke="#63b8ff" d="M603.92,-164.99C581.44,-155.31 551.78,-142.56 529.99,-133.18"/>
<polygon fill="#63b8ff" stroke="#63b8ff" points="531.15,-129.88 520.58,-129.14 528.39,-136.31 531.15,-129.88"/>
</a>
</g>
</g>
<!-- Node3 -->
<g id="Node000003" class="node">
<title>Node3</title>
<g id="a_Node000003"><a xlink:title=" ">
<polygon fill="#e0e0e0" stroke="#999999" points="449.5,-74 409.5,-74 409.5,-55 449.5,-55 449.5,-74"/>
<text text-anchor="middle" x="429.5" y="-62" font-family="Helvetica,sans-Serif" font-size="10.00">span</text>
</a>
</g>
</g>
<!-- Node1&#45;&gt;Node3 -->
<g id="edge20_Node000001_Node000003" class="edge">
<title>Node1&#45;&gt;Node3</title>
<g id="a_edge20_Node000001_Node000003"><a xlink:title=" ">
<path fill="none" stroke="#63b8ff" d="M579.63,-171.43C528.69,-163.46 459.22,-149.24 440.5,-129 429.47,-117.07 427.41,-98.25 427.7,-84.19"/>
<polygon fill="#63b8ff" stroke="#63b8ff" points="431.2,-84.35 428.3,-74.16 424.21,-83.93 431.2,-84.35"/>
</a>
</g>
</g>
<!-- Node4 -->
<g id="Node000004" class="node">
<title>Node4</title>
<g id="a_Node000004"><a xlink:href="uvgvpcc_8hpp.html" target="_top" xlink:title=" ">
<polygon fill="white" stroke="#666666" points="589.5,-74 467.5,-74 467.5,-55 589.5,-55 589.5,-74"/>
<text text-anchor="middle" x="528.5" y="-62" font-family="Helvetica,sans-Serif" font-size="10.00">uvgvpcc/uvgvpcc.hpp</text>
</a>
</g>
</g>
<!-- Node1&#45;&gt;Node4 -->
<g id="edge29_Node000001_Node000004" class="edge">
<title>Node1&#45;&gt;Node4</title>
<g id="a_edge29_Node000001_Node000004"><a xlink:title=" ">
<path fill="none" stroke="#63b8ff" d="M622.82,-164.63C602.6,-143.37 564.85,-103.71 543.76,-81.54"/>
<polygon fill="#63b8ff" stroke="#63b8ff" points="546.24,-79.06 536.81,-74.23 541.16,-83.89 546.24,-79.06"/>
</a>
</g>
</g>
<!-- Node5 -->
<g id="Node000005" class="node">
<title>Node5</title>
<g id="a_Node000005"><a xlink:title=" ">
<polygon fill="#e0e0e0" stroke="#999999" points="53,-19 0,-19 0,0 53,0 53,-19"/>
<text text-anchor="middle" x="26.5" y="-7" font-family="Helvetica,sans-Serif" font-size="10.00">cstddef</text>
</a>
</g>
</g>
<!-- Node1&#45;&gt;Node5 -->
<g id="edge16_Node000001_Node000005" class="edge">
<title>Node1&#45;&gt;Node5</title>
<g id="a_edge16_Node000001_Node000005"><a xlink:title=" ">
<path fill="none" stroke="#63b8ff" d="M579.9,-168.31C532.71,-159.03 463.86,-144.67 404.5,-129 276.1,-95.11 126.35,-44.93 60.5,-22.31"/>
<polygon fill="#63b8ff" stroke="#63b8ff" points="61.63,-19 51.04,-19.05 59.35,-25.62 61.63,-19"/>
</a>
</g>
</g>
<!-- Node6 -->
<g id="Node000006" class="node">
<title>Node6</title>
<g id="a_Node000006"><a xlink:title=" ">
<polygon fill="#e0e0e0" stroke="#999999" points="531.5,-19 481.5,-19 481.5,0 531.5,0 531.5,-19"/>
<text text-anchor="middle" x="506.5" y="-7" font-family="Helvetica,sans-Serif" font-size="10.00">cstdint</text>
</a>
</g>
</g>
<!-- Node1&#45;&gt;Node6 -->
<g id="edge17_Node000001_Node000006" class="edge">
<title>Node1&#45;&gt;Node6</title>
<g id="a_edge17_Node000001_Node000006"><a xlink:title=" ">
<path fill="none" stroke="#63b8ff" d="M579.78,-178.26C534.16,-174.89 470.77,-163.61 427.5,-129 400.16,-107.13 381.12,-84.16 400.5,-55 408.82,-42.49 444,-29.31 471.58,-20.57"/>
<polygon fill="#63b8ff" stroke="#63b8ff" points="472.81,-23.85 481.33,-17.56 470.74,-17.16 472.81,-23.85"/>
</a>
</g>
</g>
<!-- Node8 -->
<g id="Node000008" class="node">
<title>Node8</title>
<g id="a_Node000008"><a xlink:title=" ">
<polygon fill="#e0e0e0" stroke="#999999" points="607.5,-19 549.5,-19 549.5,0 607.5,0 607.5,-19"/>
<text text-anchor="middle" x="578.5" y="-7" font-family="Helvetica,sans-Serif" font-size="10.00">memory</text>
</a>
</g>
</g>
<!-- Node1&#45;&gt;Node8 -->
<g id="edge19_Node000001_Node000008" class="edge">
<title>Node1&#45;&gt;Node8</title>
<g id="a_edge19_Node000001_Node000008"><a xlink:title=" ">
<path fill="none" stroke="#63b8ff" d="M632.74,-164.67C626.48,-141.38 613.17,-93.99 598.5,-55 595.14,-46.08 590.88,-36.41 587.14,-28.36"/>
<polygon fill="#63b8ff" stroke="#63b8ff" points="590.26,-26.77 582.81,-19.23 583.93,-29.76 590.26,-26.77"/>
</a>
</g>
</g>
<!-- Node12 -->
<g id="Node000012" class="node">
<title>Node12</title>
<g id="a_Node000012"><a xlink:title=" ">
<polygon fill="#e0e0e0" stroke="#999999" points="813.5,-19 769.5,-19 769.5,0 813.5,0 813.5,-19"/>
<text text-anchor="middle" x="791.5" y="-7" font-family="Helvetica,sans-Serif" font-size="10.00">string</text>
</a>
</g>
</g>
<!-- Node1&#45;&gt;Node12 -->
<g id="edge21_Node000001_Node000012" class="edge">
<title>Node1&#45;&gt;Node12</title>
<g id="a_edge21_Node000001_Node000012"><a xlink:title=" ">
<path fill="none" stroke="#63b8ff" d="M649.45,-164.92C678.02,-133.86 746.34,-59.6 776.62,-26.68"/>
<polygon fill="#63b8ff" stroke="#63b8ff" points="779.25,-28.98 783.45,-19.25 774.1,-24.25 779.25,-28.98"/>
</a>
</g>
</g>
<!-- Node13 -->
<g id="Node000013" class="node">
<title>Node13</title>
<g id="a_Node000013"><a xlink:title=" ">
<polygon fill="#e0e0e0" stroke="#999999" points="673,-19 626,-19 626,0 673,0 673,-19"/>
<text text-anchor="middle" x="649.5" y="-7" font-family="Helvetica,sans-Serif" font-size="10.00">vector</text>
</a>
</g>
</g>
<!-- Node1&#45;&gt;Node13 -->
<g id="edge22_Node000001_Node000013" class="edge">
<title>Node1&#45;&gt;Node13</title>
<g id="a_edge22_Node000001_Node000013"><a xlink:title=" ">
<path fill="none" stroke="#63b8ff" d="M637.59,-164.92C639.92,-134.65 645.42,-63.35 648.05,-29.27"/>
<polygon fill="#63b8ff" stroke="#63b8ff" points="651.54,-29.49 648.82,-19.25 644.57,-28.96 651.54,-29.49"/>
</a>
</g>
</g>
<!-- Node16 -->
<g id="Node000016" class="node">
<title>Node16</title>
<g id="a_Node000016"><a xlink:title=" ">
<polygon fill="#e0e0e0" stroke="#999999" points="785.5,-129 721.5,-129 721.5,-110 785.5,-110 785.5,-129"/>
<text text-anchor="middle" x="753.5" y="-117" font-family="Helvetica,sans-Serif" font-size="10.00">algorithm</text>
</a>
</g>
</g>
<!-- Node1&#45;&gt;Node16 -->
<g id="edge15_Node000001_Node000016" class="edge">
<title>Node1&#45;&gt;Node16</title>
<g id="a_edge15_Node000001_Node000016"><a xlink:title=" ">
<path fill="none" stroke="#63b8ff" d="M664.52,-164.99C683.52,-155.49 708.47,-143.02 727.11,-133.69"/>
<polygon fill="#63b8ff" stroke="#63b8ff" points="728.84,-136.74 736.22,-129.14 725.71,-130.48 728.84,-136.74"/>
</a>
</g>
</g>
<!-- Node17 -->
<g id="Node000017" class="node">
<title>Node17</title>
<g id="a_Node000017"><a xlink:title=" ">
<polygon fill="#e0e0e0" stroke="#999999" points="857,-129 804,-129 804,-110 857,-110 857,-129"/>
<text text-anchor="middle" x="830.5" y="-117" font-family="Helvetica,sans-Serif" font-size="10.00">iterator</text>
</a>
</g>
</g>
<!-- Node1&#45;&gt;Node17 -->
<g id="edge18_Node000001_Node000017" class="edge">
<title>Node1&#45;&gt;Node17</title>
<g id="a_edge18_Node000001_Node000017"><a xlink:title=" ">
<path fill="none" stroke="#63b8ff" d="M682.97,-164.99C717.06,-154.71 762.69,-140.95 794.14,-131.46"/>
<polygon fill="#63b8ff" stroke="#63b8ff" points="795.25,-134.78 803.82,-128.55 793.23,-128.08 795.25,-134.78"/>
</a>
</g>
</g>
<!-- Node18 -->
<g id="Node000018" class="node">
<title>Node18</title>
<g id="a_Node000018"><a xlink:href="log_8hpp.html" target="_top" xlink:title=" ">
<polygon fill="white" stroke="#666666" points="971.5,-74 875.5,-74 875.5,-55 971.5,-55 971.5,-74"/>
<text text-anchor="middle" x="923.5" y="-62" font-family="Helvetica,sans-Serif" font-size="10.00">uvgvpcc/log.hpp</text>
</a>
</g>
</g>
<!-- Node1&#45;&gt;Node18 -->
<g id="edge23_Node000001_Node000018" class="edge">
<title>Node1&#45;&gt;Node18</title>
<g id="a_edge23_Node000001_Node000018"><a xlink:title=" ">
<path fill="none" stroke="#63b8ff" d="M693.43,-176.36C742.26,-171.92 812.98,-160.12 866.5,-129 886.04,-117.64 902.54,-97.26 912.68,-82.65"/>
<polygon fill="#63b8ff" stroke="#63b8ff" points="915.78,-84.31 918.39,-74.04 909.94,-80.44 915.78,-84.31"/>
</a>
</g>
</g>
<!-- Node22 -->
<g id="Node000022" class="node">
<title>Node22</title>
<g id="a_Node000022"><a xlink:href="utils_8hpp.html" target="_top" xlink:title=" ">
<polygon fill="white" stroke="#666666" points="1103,-74 1020,-74 1020,-55 1103,-55 1103,-74"/>
<text text-anchor="middle" x="1061.5" y="-62" font-family="Helvetica,sans-Serif" font-size="10.00">utils/utils.hpp</text>
</a>
</g>
</g>
<!-- Node1&#45;&gt;Node22 -->
<g id="edge30_Node000001_Node000022" class="edge">
<title>Node1&#45;&gt;Node22</title>
<g id="a_edge30_Node000001_Node000022"><a xlink:title=" ">
<path fill="none" stroke="#63b8ff" d="M693.09,-170.64C745.18,-162.3 824.32,-147.99 891.5,-129 942.05,-114.71 998.88,-92.09 1032.35,-78.06"/>
<polygon fill="#63b8ff" stroke="#63b8ff" points="1034.11,-81.12 1041.96,-74 1031.39,-74.67 1034.11,-81.12"/>
</a>
</g>
</g>
<!-- Node2&#45;&gt;Node3 -->
<g id="edge2_Node000002_Node000003" class="edge">
<title>Node2&#45;&gt;Node3</title>
<g id="a_edge2_Node000002_Node000003"><a xlink:title=" ">
<path fill="none" stroke="#63b8ff" d="M489.09,-109.98C478.39,-102 462.16,-89.88 449.34,-80.31"/>
<polygon fill="#63b8ff" stroke="#63b8ff" points="451.22,-77.35 441.11,-74.17 447.03,-82.96 451.22,-77.35"/>
</a>
</g>
</g>
<!-- Node2&#45;&gt;Node4 -->
<g id="edge3_Node000002_Node000004" class="edge">
<title>Node2&#45;&gt;Node4</title>
<g id="a_edge3_Node000002_Node000004"><a xlink:title=" ">
<path fill="none" stroke="#63b8ff" d="M505.12,-109.75C508.96,-102.49 514.52,-91.95 519.26,-82.98"/>
<polygon fill="#63b8ff" stroke="#63b8ff" points="522.39,-84.57 523.96,-74.09 516.2,-81.3 522.39,-84.57"/>
</a>
</g>
</g>
<!-- Node4&#45;&gt;Node5 -->
<g id="edge4_Node000004_Node000005" class="edge">
<title>Node4&#45;&gt;Node5</title>
<g id="a_edge4_Node000004_Node000005"><a xlink:title=" ">
<path fill="none" stroke="#63b8ff" d="M467.43,-55.97C464.41,-55.64 461.42,-55.31 458.5,-55 286.02,-36.69 238.68,-46.98 63.24,-18.87"/>
<polygon fill="#63b8ff" stroke="#63b8ff" points="63.58,-15.38 53.15,-17.24 62.46,-22.29 63.58,-15.38"/>
</a>
</g>
</g>
<!-- Node4&#45;&gt;Node6 -->
<g id="edge5_Node000004_Node000006" class="edge">
<title>Node4&#45;&gt;Node6</title>
<g id="a_edge5_Node000004_Node000006"><a xlink:title=" ">
<path fill="none" stroke="#63b8ff" d="M524.87,-54.75C521.92,-47.65 517.67,-37.4 513.99,-28.56"/>
<polygon fill="#63b8ff" stroke="#63b8ff" points="517.13,-26.98 510.07,-19.09 510.67,-29.67 517.13,-26.98"/>
</a>
</g>
</g>
<!-- Node7 -->
<g id="Node000007" class="node">
<title>Node7</title>
<g id="a_Node000007"><a xlink:title=" ">
<polygon fill="#e0e0e0" stroke="#999999" points="751.5,-19 691.5,-19 691.5,0 751.5,0 751.5,-19"/>
<text text-anchor="middle" x="721.5" y="-7" font-family="Helvetica,sans-Serif" font-size="10.00">iostream</text>
</a>
</g>
</g>
<!-- Node4&#45;&gt;Node7 -->
<g id="edge6_Node000004_Node000007" class="edge">
<title>Node4&#45;&gt;Node7</title>
<g id="a_edge6_Node000004_Node000007"><a xlink:title=" ">
<path fill="none" stroke="#63b8ff" d="M559.51,-54.98C592.62,-45.89 645.22,-31.45 681.45,-21.5"/>
<polygon fill="#63b8ff" stroke="#63b8ff" points="682.49,-24.84 691.2,-18.82 680.63,-18.09 682.49,-24.84"/>
</a>
</g>
</g>
<!-- Node4&#45;&gt;Node8 -->
<g id="edge7_Node000004_Node000008" class="edge">
<title>Node4&#45;&gt;Node8</title>
<g id="a_edge7_Node000004_Node000008"><a xlink:title=" ">
<path fill="none" stroke="#63b8ff" d="M536.76,-54.75C543.96,-47.11 554.61,-35.82 563.35,-26.56"/>
<polygon fill="#63b8ff" stroke="#63b8ff" points="566.08,-28.76 570.4,-19.09 560.99,-23.96 566.08,-28.76"/>
</a>
</g>
</g>
<!-- Node9 -->
<g id="Node000009" class="node">
<title>Node9</title>
<g id="a_Node000009"><a xlink:title=" ">
<polygon fill="#e0e0e0" stroke="#999999" points="374,-19 327,-19 327,0 374,0 374,-19"/>
<text text-anchor="middle" x="350.5" y="-7" font-family="Helvetica,sans-Serif" font-size="10.00">queue</text>
</a>
</g>
</g>
<!-- Node4&#45;&gt;Node9 -->
<g id="edge8_Node000004_Node000009" class="edge">
<title>Node4&#45;&gt;Node9</title>
<g id="a_edge8_Node000004_Node000009"><a xlink:title=" ">
<path fill="none" stroke="#63b8ff" d="M499.9,-54.98C468.28,-45.57 417.41,-30.42 383.97,-20.46"/>
<polygon fill="#63b8ff" stroke="#63b8ff" points="384.77,-17.05 374.19,-17.55 382.77,-23.76 384.77,-17.05"/>
</a>
</g>
</g>
<!-- Node10 -->
<g id="Node000010" class="node">
<title>Node10</title>
<g id="a_Node000010"><a xlink:title=" ">
<polygon fill="#e0e0e0" stroke="#999999" points="463,-19 392,-19 392,0 463,0 463,-19"/>
<text text-anchor="middle" x="427.5" y="-7" font-family="Helvetica,sans-Serif" font-size="10.00">semaphore</text>
</a>
</g>
</g>
<!-- Node4&#45;&gt;Node10 -->
<g id="edge9_Node000004_Node000010" class="edge">
<title>Node4&#45;&gt;Node10</title>
<g id="a_edge9_Node000004_Node000010"><a xlink:title=" ">
<path fill="none" stroke="#63b8ff" d="M512.27,-54.98C496.32,-46.61 471.72,-33.7 453.12,-23.95"/>
<polygon fill="#63b8ff" stroke="#63b8ff" points="454.5,-20.72 444.02,-19.17 451.25,-26.92 454.5,-20.72"/>
</a>
</g>
</g>
<!-- Node11 -->
<g id="Node000011" class="node">
<title>Node11</title>
<g id="a_Node000011"><a xlink:title=" ">
<polygon fill="#e0e0e0" stroke="#999999" points="887.5,-19 831.5,-19 831.5,0 887.5,0 887.5,-19"/>
<text text-anchor="middle" x="859.5" y="-7" font-family="Helvetica,sans-Serif" font-size="10.00">sstream</text>
</a>
</g>
</g>
<!-- Node4&#45;&gt;Node11 -->
<g id="edge10_Node000004_Node000011" class="edge">
<title>Node4&#45;&gt;Node11</title>
<g id="a_edge10_Node000004_Node000011"><a xlink:title=" ">
<path fill="none" stroke="#63b8ff" d="M589.54,-55.63C646.95,-47.92 735.5,-35.23 821.35,-19.1"/>
<polygon fill="#63b8ff" stroke="#63b8ff" points="822.09,-22.52 831.26,-17.22 820.79,-15.64 822.09,-22.52"/>
</a>
</g>
</g>
<!-- Node4&#45;&gt;Node12 -->
<g id="edge11_Node000004_Node000012" class="edge">
<title>Node4&#45;&gt;Node12</title>
<g id="a_edge11_Node000004_Node000012"><a xlink:title=" ">
<path fill="none" stroke="#63b8ff" d="M578.97,-54.99C623.92,-47.15 691.67,-34.69 759.24,-19.15"/>
<polygon fill="#63b8ff" stroke="#63b8ff" points="760.25,-22.51 769.2,-16.84 758.67,-15.69 760.25,-22.51"/>
</a>
</g>
</g>
<!-- Node4&#45;&gt;Node13 -->
<g id="edge12_Node000004_Node000013" class="edge">
<title>Node4&#45;&gt;Node13</title>
<g id="a_edge12_Node000004_Node000013"><a xlink:title=" ">
<path fill="none" stroke="#63b8ff" d="M547.94,-54.98C567.49,-46.42 597.88,-33.11 620.32,-23.28"/>
<polygon fill="#63b8ff" stroke="#63b8ff" points="621.95,-26.39 629.71,-19.17 619.14,-19.98 621.95,-26.39"/>
</a>
</g>
</g>
<!-- Node14 -->
<g id="Node000014" class="node">
<title>Node14</title>
<g id="a_Node000014"><a xlink:title=" ">
<polygon fill="#e0e0e0" stroke="#999999" points="163.5,-19 71.5,-19 71.5,0 163.5,0 163.5,-19"/>
<text text-anchor="middle" x="117.5" y="-7" font-family="Helvetica,sans-Serif" font-size="10.00">../utils/utils.hpp</text>
</a>
</g>
</g>
<!-- Node4&#45;&gt;Node14 -->
<g id="edge13_Node000004_Node000014" class="edge">
<title>Node4&#45;&gt;Node14</title>
<g id="a_edge13_Node000004_Node000014"><a xlink:title=" ">
<path fill="none" stroke="#63b8ff" d="M467.32,-56.07C385.25,-46.07 242.73,-28.56 173.73,-19.13"/>
<polygon fill="#63b8ff" stroke="#63b8ff" points="174.08,-15.64 163.7,-17.74 173.13,-22.58 174.08,-15.64"/>
</a>
</g>
</g>
<!-- Node15 -->
<g id="Node000015" class="node">
<title>Node15</title>
<g id="a_Node000015"><a xlink:title=" ">
<polygon fill="#e0e0e0" stroke="#999999" points="309,-19 182,-19 182,0 309,0 309,-19"/>
<text text-anchor="middle" x="245.5" y="-7" font-family="Helvetica,sans-Serif" font-size="10.00">../utils/parameters.hpp</text>
</a>
</g>
</g>
<!-- Node4&#45;&gt;Node15 -->
<g id="edge14_Node000004_Node000015" class="edge">
<title>Node4&#45;&gt;Node15</title>
<g id="a_edge14_Node000004_Node000015"><a xlink:title=" ">
<path fill="none" stroke="#63b8ff" d="M483.03,-54.98C433.56,-45.72 354.45,-30.9 301.27,-20.94"/>
<polygon fill="#63b8ff" stroke="#63b8ff" points="301.8,-17.48 291.33,-19.08 300.51,-24.36 301.8,-17.48"/>
</a>
</g>
</g>
<!-- Node18&#45;&gt;Node7 -->
<g id="edge27_Node000018_Node000007" class="edge">
<title>Node18&#45;&gt;Node7</title>
<g id="a_edge27_Node000018_Node000007"><a xlink:title=" ">
<path fill="none" stroke="#63b8ff" d="M891.05,-54.98C855.73,-45.72 799.23,-30.89 761.27,-20.93"/>
<polygon fill="#63b8ff" stroke="#63b8ff" points="762.13,-17.54 751.57,-18.39 760.35,-24.31 762.13,-17.54"/>
</a>
</g>
</g>
<!-- Node18&#45;&gt;Node12 -->
<g id="edge28_Node000018_Node000012" class="edge">
<title>Node18&#45;&gt;Node12</title>
<g id="a_edge28_Node000018_Node000012"><a xlink:title=" ">
<path fill="none" stroke="#63b8ff" d="M902.29,-54.98C880.77,-46.34 847.22,-32.87 822.67,-23.02"/>
<polygon fill="#63b8ff" stroke="#63b8ff" points="823.68,-19.65 813.09,-19.17 821.07,-26.14 823.68,-19.65"/>
</a>
</g>
</g>
<!-- Node19 -->
<g id="Node000019" class="node">
<title>Node19</title>
<g id="a_Node000019"><a xlink:title=" ">
<polygon fill="#e0e0e0" stroke="#999999" points="955.5,-19 905.5,-19 905.5,0 955.5,0 955.5,-19"/>
<text text-anchor="middle" x="930.5" y="-7" font-family="Helvetica,sans-Serif" font-size="10.00">chrono</text>
</a>
</g>
</g>
<!-- Node18&#45;&gt;Node19 -->
<g id="edge24_Node000018_Node000019" class="edge">
<title>Node18&#45;&gt;Node19</title>
<g id="a_edge24_Node000018_Node000019"><a xlink:title=" ">
<path fill="none" stroke="#63b8ff" d="M924.66,-54.75C925.57,-47.8 926.89,-37.85 928.04,-29.13"/>
<polygon fill="#63b8ff" stroke="#63b8ff" points="931.53,-29.46 929.37,-19.09 924.59,-28.54 931.53,-29.46"/>
</a>
</g>
</g>
<!-- Node20 -->
<g id="Node000020" class="node">
<title>Node20</title>
<g id="a_Node000020"><a xlink:title=" ">
<polygon fill="#e0e0e0" stroke="#999999" points="1027,-19 974,-19 974,0 1027,0 1027,-19"/>
<text text-anchor="middle" x="1000.5" y="-7" font-family="Helvetica,sans-Serif" font-size="10.00">cstdarg</text>
</a>
</g>
</g>
<!-- Node18&#45;&gt;Node20 -->
<g id="edge25_Node000018_Node000020" class="edge">
<title>Node18&#45;&gt;Node20</title>
<g id="a_edge25_Node000018_Node000020"><a xlink:title=" ">
<path fill="none" stroke="#63b8ff" d="M935.87,-54.98C947.59,-46.92 965.42,-34.65 979.39,-25.03"/>
<polygon fill="#63b8ff" stroke="#63b8ff" points="981.65,-27.72 987.9,-19.17 977.68,-21.96 981.65,-27.72"/>
</a>
</g>
</g>
<!-- Node21 -->
<g id="Node000021" class="node">
<title>Node21</title>
<g id="a_Node000021"><a xlink:title=" ">
<polygon fill="#e0e0e0" stroke="#999999" points="1101.5,-19 1045.5,-19 1045.5,0 1101.5,0 1101.5,-19"/>
<text text-anchor="middle" x="1073.5" y="-7" font-family="Helvetica,sans-Serif" font-size="10.00">iomanip</text>
</a>
</g>
</g>
<!-- Node18&#45;&gt;Node21 -->
<g id="edge26_Node000018_Node000021" class="edge">
<title>Node18&#45;&gt;Node21</title>
<g id="a_edge26_Node000018_Node000021"><a xlink:title=" ">
<path fill="none" stroke="#63b8ff" d="M947.6,-54.98C972.38,-46.23 1011.2,-32.51 1039.19,-22.62"/>
<polygon fill="#63b8ff" stroke="#63b8ff" points="1040.7,-25.8 1048.96,-19.17 1038.37,-19.2 1040.7,-25.8"/>
</a>
</g>
</g>
<!-- Node22&#45;&gt;Node6 -->
<g id="edge32_Node000022_Node000006" class="edge">
<title>Node22&#45;&gt;Node6</title>
<g id="a_edge32_Node000022_Node000006"><a xlink:title=" ">
<path fill="none" stroke="#63b8ff" d="M1019.89,-58.95C1007.25,-57.62 993.31,-56.2 980.5,-55 788.38,-37.06 735.83,-50.44 541.61,-18.91"/>
<polygon fill="#63b8ff" stroke="#63b8ff" points="542.09,-15.44 531.66,-17.28 540.96,-22.35 542.09,-15.44"/>
</a>
</g>
</g>
<!-- Node22&#45;&gt;Node11 -->
<g id="edge34_Node000022_Node000011" class="edge">
<title>Node22&#45;&gt;Node11</title>
<g id="a_edge34_Node000022_Node000011"><a xlink:title=" ">
<path fill="none" stroke="#63b8ff" d="M1029.05,-54.98C993.26,-45.6 935.75,-30.51 897.79,-20.55"/>
<polygon fill="#63b8ff" stroke="#63b8ff" points="898.2,-17.04 887.64,-17.88 896.42,-23.81 898.2,-17.04"/>
</a>
</g>
</g>
<!-- Node22&#45;&gt;Node21 -->
<g id="edge35_Node000022_Node000021" class="edge">
<title>Node22&#45;&gt;Node21</title>
<g id="a_edge35_Node000022_Node000021"><a xlink:title=" ">
<path fill="none" stroke="#63b8ff" d="M1063.48,-54.75C1065.07,-47.72 1067.36,-37.62 1069.35,-28.84"/>
<polygon fill="#63b8ff" stroke="#63b8ff" points="1072.76,-29.62 1071.56,-19.09 1065.93,-28.07 1072.76,-29.62"/>
</a>
</g>
</g>
<!-- Node23 -->
<g id="Node000023" class="node">
<title>Node23</title>
<g id="a_Node000023"><a xlink:title=" ">
<polygon fill="#e0e0e0" stroke="#999999" points="1161.5,-19 1119.5,-19 1119.5,0 1161.5,0 1161.5,-19"/>
<text text-anchor="middle" x="1140.5" y="-7" font-family="Helvetica,sans-Serif" font-size="10.00">array</text>
</a>
</g>
</g>
<!-- Node22&#45;&gt;Node23 -->
<g id="edge31_Node000022_Node000023" class="edge">
<title>Node22&#45;&gt;Node23</title>
<g id="a_edge31_Node000022_Node000023"><a xlink:title=" ">
<path fill="none" stroke="#63b8ff" d="M1074.19,-54.98C1086.33,-46.84 1104.86,-34.41 1119.25,-24.76"/>
<polygon fill="#63b8ff" stroke="#63b8ff" points="1121.22,-27.65 1127.58,-19.17 1117.32,-21.84 1121.22,-27.65"/>
</a>
</g>
</g>
<!-- Node24 -->
<g id="Node000024" class="node">
<title>Node24</title>
<g id="a_Node000024"><a xlink:title=" ">
<polygon fill="#e0e0e0" stroke="#999999" points="1223.5,-19 1179.5,-19 1179.5,0 1223.5,0 1223.5,-19"/>
<text text-anchor="middle" x="1201.5" y="-7" font-family="Helvetica,sans-Serif" font-size="10.00">limits</text>
</a>
</g>
</g>
<!-- Node22&#45;&gt;Node24 -->
<g id="edge33_Node000022_Node000024" class="edge">
<title>Node22&#45;&gt;Node24</title>
<g id="a_edge33_Node000022_Node000024"><a xlink:title=" ">
<path fill="none" stroke="#63b8ff" d="M1083.99,-54.98C1107.16,-46.21 1143.47,-32.47 1169.6,-22.58"/>
<polygon fill="#63b8ff" stroke="#63b8ff" points="1170.95,-25.81 1179.06,-18.99 1168.47,-19.26 1170.95,-25.81"/>
</a>
</g>
</g>
</g>
</svg>
