<?xml version="1.0" encoding="UTF-8" standalone="no"?>
<!DOCTYPE svg PUBLIC "-//W3C//DTD SVG 1.1//EN"
 "http://www.w3.org/Graphics/SVG/1.1/DTD/svg11.dtd">
<!-- Generated by graphviz version 2.43.0 (0)
 -->
<!-- Title: src/libuvgvpccenc/patchPacking/patchPacking.cpp Pages: 1 -->
<svg width="1670pt" height="313pt"
 viewBox="0.00 0.00 1669.50 313.00" xmlns="http://www.w3.org/2000/svg" xmlns:xlink="http://www.w3.org/1999/xlink">
<g id="graph0" class="graph" transform="scale(1 1) rotate(0) translate(4 309)">
<title>src/libuvgvpccenc/patchPacking/patchPacking.cpp</title>
<!-- Node1 -->
<g id="Node000001" class="node">
<title>Node1</title>
<g id="a_Node000001"><a xlink:title=" ">
<polygon fill="#999999" stroke="#666666" points="985.5,-305 814.5,-305 814.5,-275 985.5,-275 985.5,-305"/>
<text text-anchor="start" x="822.5" y="-293" font-family="Helvetica,sans-Serif" font-size="10.00">src/libuvgvpccenc/patchPacking</text>
<text text-anchor="middle" x="900" y="-282" font-family="Helvetica,sans-Serif" font-size="10.00">/patchPacking.cpp</text>
</a>
</g>
</g>
<!-- Node2 -->
<g id="Node000002" class="node">
<title>Node2</title>
<g id="a_Node000002"><a xlink:href="patchPacking_8hpp.html" target="_top" xlink:title=" ">
<polygon fill="white" stroke="#666666" points="715,-239 613,-239 613,-220 715,-220 715,-239"/>
<text text-anchor="middle" x="664" y="-227" font-family="Helvetica,sans-Serif" font-size="10.00">patchPacking.hpp</text>
</a>
</g>
</g>
<!-- Node1&#45;&gt;Node2 -->
<g id="edge1_Node000001_Node000002" class="edge">
<title>Node1&#45;&gt;Node2</title>
<g id="a_edge1_Node000001_Node000002"><a xlink:title=" ">
<path fill="none" stroke="#63b8ff" d="M843.47,-274.99C802.04,-264.72 746.57,-250.97 708.33,-241.49"/>
<polygon fill="#63b8ff" stroke="#63b8ff" points="709.06,-238.06 698.51,-239.05 707.37,-244.86 709.06,-238.06"/>
</a>
</g>
</g>
<!-- Node3 -->
<g id="Node000003" class="node">
<title>Node3</title>
<g id="a_Node000003"><a xlink:title=" ">
<polygon fill="#e0e0e0" stroke="#999999" points="585,-184 545,-184 545,-165 585,-165 585,-184"/>
<text text-anchor="middle" x="565" y="-172" font-family="Helvetica,sans-Serif" font-size="10.00">span</text>
</a>
</g>
</g>
<!-- Node1&#45;&gt;Node3 -->
<g id="edge37_Node000001_Node000003" class="edge">
<title>Node1&#45;&gt;Node3</title>
<g id="a_edge37_Node000001_Node000003"><a xlink:title=" ">
<path fill="none" stroke="#63b8ff" d="M814.49,-282.41C739.58,-275.25 637.59,-261.67 604,-239 587.95,-228.17 577.34,-208.3 571.29,-193.66"/>
<polygon fill="#63b8ff" stroke="#63b8ff" points="574.49,-192.24 567.68,-184.13 567.95,-194.72 574.49,-192.24"/>
</a>
</g>
</g>
<!-- Node4 -->
<g id="Node000004" class="node">
<title>Node4</title>
<g id="a_Node000004"><a xlink:href="uvgvpcc_8hpp.html" target="_top" xlink:title=" ">
<polygon fill="white" stroke="#666666" points="725,-184 603,-184 603,-165 725,-165 725,-184"/>
<text text-anchor="middle" x="664" y="-172" font-family="Helvetica,sans-Serif" font-size="10.00">uvgvpcc/uvgvpcc.hpp</text>
</a>
</g>
</g>
<!-- Node1&#45;&gt;Node4 -->
<g id="edge56_Node000001_Node000004" class="edge">
<title>Node1&#45;&gt;Node4</title>
<g id="a_edge56_Node000001_Node000004"><a xlink:title=" ">
<path fill="none" stroke="#63b8ff" d="M870.59,-274.85C824.43,-252.65 735.64,-209.95 691.01,-188.49"/>
<polygon fill="#63b8ff" stroke="#63b8ff" points="692.46,-185.3 681.93,-184.12 689.43,-191.61 692.46,-185.3"/>
</a>
</g>
</g>
<!-- Node6 -->
<g id="Node000006" class="node">
<title>Node6</title>
<g id="a_Node000006"><a xlink:title=" ">
<polygon fill="#e0e0e0" stroke="#999999" points="782,-129 730,-129 730,-110 782,-110 782,-129"/>
<text text-anchor="middle" x="756" y="-117" font-family="Helvetica,sans-Serif" font-size="10.00">cassert</text>
</a>
</g>
</g>
<!-- Node1&#45;&gt;Node6 -->
<g id="edge32_Node000001_Node000006" class="edge">
<title>Node1&#45;&gt;Node6</title>
<g id="a_edge32_Node000001_Node000006"><a xlink:title=" ">
<path fill="none" stroke="#63b8ff" d="M887.97,-274.92C861.54,-243.99 798.5,-170.23 770.19,-137.1"/>
<polygon fill="#63b8ff" stroke="#63b8ff" points="772.64,-134.58 763.48,-129.25 767.32,-139.13 772.64,-134.58"/>
</a>
</g>
</g>
<!-- Node7 -->
<g id="Node000007" class="node">
<title>Node7</title>
<g id="a_Node000007"><a xlink:title=" ">
<polygon fill="#e0e0e0" stroke="#999999" points="1033.5,-74 980.5,-74 980.5,-55 1033.5,-55 1033.5,-74"/>
<text text-anchor="middle" x="1007" y="-62" font-family="Helvetica,sans-Serif" font-size="10.00">cstddef</text>
</a>
</g>
</g>
<!-- Node1&#45;&gt;Node7 -->
<g id="edge33_Node000001_Node000007" class="edge">
<title>Node1&#45;&gt;Node7</title>
<g id="a_edge33_Node000001_Node000007"><a xlink:title=" ">
<path fill="none" stroke="#63b8ff" d="M814.47,-283.83C587.2,-268.54 -7.63,-217.76 95,-110 125.66,-77.81 802.86,-67.87 969.98,-65.9"/>
<polygon fill="#63b8ff" stroke="#63b8ff" points="970.27,-69.39 980.23,-65.78 970.19,-62.39 970.27,-69.39"/>
</a>
</g>
</g>
<!-- Node8 -->
<g id="Node000008" class="node">
<title>Node8</title>
<g id="a_Node000008"><a xlink:title=" ">
<polygon fill="#e0e0e0" stroke="#999999" points="1332,-74 1282,-74 1282,-55 1332,-55 1332,-74"/>
<text text-anchor="middle" x="1307" y="-62" font-family="Helvetica,sans-Serif" font-size="10.00">cstdint</text>
</a>
</g>
</g>
<!-- Node1&#45;&gt;Node8 -->
<g id="edge34_Node000001_Node000008" class="edge">
<title>Node1&#45;&gt;Node8</title>
<g id="a_edge34_Node000001_Node000008"><a xlink:title=" ">
<path fill="none" stroke="#63b8ff" d="M985.91,-280.96C1100.41,-268.24 1293.48,-239.05 1335,-184 1354.81,-157.73 1346.62,-141.46 1337,-110 1333.91,-99.9 1327.68,-90.02 1321.69,-82.15"/>
<polygon fill="#63b8ff" stroke="#63b8ff" points="1324.24,-79.74 1315.21,-74.2 1318.82,-84.16 1324.24,-79.74"/>
</a>
</g>
</g>
<!-- Node10 -->
<g id="Node000010" class="node">
<title>Node10</title>
<g id="a_Node000010"><a xlink:title=" ">
<polygon fill="#e0e0e0" stroke="#999999" points="858,-129 800,-129 800,-110 858,-110 858,-129"/>
<text text-anchor="middle" x="829" y="-117" font-family="Helvetica,sans-Serif" font-size="10.00">memory</text>
</a>
</g>
</g>
<!-- Node1&#45;&gt;Node10 -->
<g id="edge36_Node000001_Node000010" class="edge">
<title>Node1&#45;&gt;Node10</title>
<g id="a_edge36_Node000001_Node000010"><a xlink:title=" ">
<path fill="none" stroke="#63b8ff" d="M894.07,-274.92C881.26,-244.52 851.01,-172.73 836.72,-138.83"/>
<polygon fill="#63b8ff" stroke="#63b8ff" points="839.8,-137.11 832.69,-129.25 833.35,-139.83 839.8,-137.11"/>
</a>
</g>
</g>
<!-- Node14 -->
<g id="Node000014" class="node">
<title>Node14</title>
<g id="a_Node000014"><a xlink:title=" ">
<polygon fill="#e0e0e0" stroke="#999999" points="637,-19 593,-19 593,0 637,0 637,-19"/>
<text text-anchor="middle" x="615" y="-7" font-family="Helvetica,sans-Serif" font-size="10.00">string</text>
</a>
</g>
</g>
<!-- Node1&#45;&gt;Node14 -->
<g id="edge38_Node000001_Node000014" class="edge">
<title>Node1&#45;&gt;Node14</title>
<g id="a_edge38_Node000001_Node000014"><a xlink:title=" ">
<path fill="none" stroke="#63b8ff" d="M814.11,-287.09C589.15,-280.94 0,-257.05 0,-175.5 0,-175.5 0,-175.5 0,-118.5 0,-48.96 75.73,-72.61 143,-55 304.22,-12.81 505.68,-9.52 582.87,-9.99"/>
<polygon fill="#63b8ff" stroke="#63b8ff" points="582.89,-13.49 592.92,-10.08 582.95,-6.49 582.89,-13.49"/>
</a>
</g>
</g>
<!-- Node15 -->
<g id="Node000015" class="node">
<title>Node15</title>
<g id="a_Node000015"><a xlink:title=" ">
<polygon fill="#e0e0e0" stroke="#999999" points="923.5,-129 876.5,-129 876.5,-110 923.5,-110 923.5,-129"/>
<text text-anchor="middle" x="900" y="-117" font-family="Helvetica,sans-Serif" font-size="10.00">vector</text>
</a>
</g>
</g>
<!-- Node1&#45;&gt;Node15 -->
<g id="edge39_Node000001_Node000015" class="edge">
<title>Node1&#45;&gt;Node15</title>
<g id="a_edge39_Node000001_Node000015"><a xlink:title=" ">
<path fill="none" stroke="#63b8ff" d="M900,-274.92C900,-244.65 900,-173.35 900,-139.27"/>
<polygon fill="#63b8ff" stroke="#63b8ff" points="903.5,-139.25 900,-129.25 896.5,-139.25 903.5,-139.25"/>
</a>
</g>
</g>
<!-- Node18 -->
<g id="Node000018" class="node">
<title>Node18</title>
<g id="a_Node000018"><a xlink:href="utils_8hpp.html" target="_top" xlink:title=" ">
<polygon fill="white" stroke="#666666" points="1279.5,-129 1178.5,-129 1178.5,-110 1279.5,-110 1279.5,-129"/>
<text text-anchor="middle" x="1229" y="-117" font-family="Helvetica,sans-Serif" font-size="10.00">uvgutils/utils.hpp</text>
</a>
</g>
</g>
<!-- Node1&#45;&gt;Node18 -->
<g id="edge54_Node000001_Node000018" class="edge">
<title>Node1&#45;&gt;Node18</title>
<g id="a_edge54_Node000001_Node000018"><a xlink:title=" ">
<path fill="none" stroke="#63b8ff" d="M927.48,-274.92C990.08,-242.86 1142.53,-164.79 1203.34,-133.64"/>
<polygon fill="#63b8ff" stroke="#63b8ff" points="1204.98,-136.74 1212.28,-129.06 1201.79,-130.51 1204.98,-136.74"/>
</a>
</g>
</g>
<!-- Node21 -->
<g id="Node000021" class="node">
<title>Node21</title>
<g id="a_Node000021"><a xlink:href="log_8hpp.html" target="_top" xlink:title=" ">
<polygon fill="white" stroke="#666666" points="1503.5,-74 1450.5,-74 1450.5,-55 1503.5,-55 1503.5,-74"/>
<text text-anchor="middle" x="1477" y="-62" font-family="Helvetica,sans-Serif" font-size="10.00">log.hpp</text>
</a>
</g>
</g>
<!-- Node1&#45;&gt;Node21 -->
<g id="edge55_Node000001_Node000021" class="edge">
<title>Node1&#45;&gt;Node21</title>
<g id="a_edge55_Node000001_Node000021"><a xlink:title=" ">
<path fill="none" stroke="#63b8ff" d="M985.73,-287.26C1061.25,-283.4 1173.2,-271.97 1265,-239 1354.51,-206.85 1433.54,-119.06 1463.84,-82.18"/>
<polygon fill="#63b8ff" stroke="#63b8ff" points="1466.61,-84.32 1470.17,-74.34 1461.16,-79.92 1466.61,-84.32"/>
</a>
</g>
</g>
<!-- Node25 -->
<g id="Node000025" class="node">
<title>Node25</title>
<g id="a_Node000025"><a xlink:title=" ">
<polygon fill="#e0e0e0" stroke="#999999" points="1590,-239 1526,-239 1526,-220 1590,-220 1590,-239"/>
<text text-anchor="middle" x="1558" y="-227" font-family="Helvetica,sans-Serif" font-size="10.00">algorithm</text>
</a>
</g>
</g>
<!-- Node1&#45;&gt;Node25 -->
<g id="edge31_Node000001_Node000025" class="edge">
<title>Node1&#45;&gt;Node25</title>
<g id="a_edge31_Node000001_Node000025"><a xlink:title=" ">
<path fill="none" stroke="#63b8ff" d="M985.69,-284.74C1104.31,-278.22 1325.09,-263.84 1512,-239 1513.27,-238.83 1514.55,-238.65 1515.85,-238.46"/>
<polygon fill="#63b8ff" stroke="#63b8ff" points="1516.57,-241.89 1525.9,-236.86 1515.47,-234.98 1516.57,-241.89"/>
</a>
</g>
</g>
<!-- Node26 -->
<g id="Node000026" class="node">
<title>Node26</title>
<g id="a_Node000026"><a xlink:title=" ">
<polygon fill="#e0e0e0" stroke="#999999" points="1661.5,-239 1608.5,-239 1608.5,-220 1661.5,-220 1661.5,-239"/>
<text text-anchor="middle" x="1635" y="-227" font-family="Helvetica,sans-Serif" font-size="10.00">iterator</text>
</a>
</g>
</g>
<!-- Node1&#45;&gt;Node26 -->
<g id="edge35_Node000001_Node000026" class="edge">
<title>Node1&#45;&gt;Node26</title>
<g id="a_edge35_Node000001_Node000026"><a xlink:title=" ">
<path fill="none" stroke="#63b8ff" d="M985.77,-287.29C1116.14,-283.71 1372.03,-272.84 1598.29,-238.83"/>
<polygon fill="#63b8ff" stroke="#63b8ff" points="1599,-242.26 1608.36,-237.29 1597.94,-235.34 1599,-242.26"/>
</a>
</g>
</g>
<!-- Node27 -->
<g id="Node000027" class="node">
<title>Node27</title>
<g id="a_Node000027"><a xlink:href="parameters_8hpp.html" target="_top" xlink:title=" ">
<polygon fill="white" stroke="#666666" points="1048,-184 930,-184 930,-165 1048,-165 1048,-184"/>
<text text-anchor="middle" x="989" y="-172" font-family="Helvetica,sans-Serif" font-size="10.00">utils/parameters.hpp</text>
</a>
</g>
</g>
<!-- Node1&#45;&gt;Node27 -->
<g id="edge40_Node000001_Node000027" class="edge">
<title>Node1&#45;&gt;Node27</title>
<g id="a_edge40_Node000001_Node000027"><a xlink:title=" ">
<path fill="none" stroke="#63b8ff" d="M911.27,-274.63C927.79,-253.56 958.5,-214.4 975.96,-192.13"/>
<polygon fill="#63b8ff" stroke="#63b8ff" points="978.74,-194.26 982.15,-184.23 973.23,-189.94 978.74,-194.26"/>
</a>
</g>
</g>
<!-- Node29 -->
<g id="Node000029" class="node">
<title>Node29</title>
<g id="a_Node000029"><a xlink:href="constants_8hpp.html" target="_top" xlink:title=" ">
<polygon fill="white" stroke="#666666" points="1325.5,-184 1216.5,-184 1216.5,-165 1325.5,-165 1325.5,-184"/>
<text text-anchor="middle" x="1271" y="-172" font-family="Helvetica,sans-Serif" font-size="10.00">utils/constants.hpp</text>
</a>
</g>
</g>
<!-- Node1&#45;&gt;Node29 -->
<g id="edge46_Node000001_Node000029" class="edge">
<title>Node1&#45;&gt;Node29</title>
<g id="a_edge46_Node000001_Node000029"><a xlink:title=" ">
<path fill="none" stroke="#63b8ff" d="M983.13,-274.96C1026.82,-266.53 1080.93,-254.44 1128,-239 1170.48,-225.07 1217.45,-202.8 1245.57,-188.68"/>
<polygon fill="#63b8ff" stroke="#63b8ff" points="1247.36,-191.69 1254.7,-184.05 1244.2,-185.45 1247.36,-191.69"/>
</a>
</g>
</g>
<!-- Node2&#45;&gt;Node3 -->
<g id="edge2_Node000002_Node000003" class="edge">
<title>Node2&#45;&gt;Node3</title>
<g id="a_edge2_Node000002_Node000003"><a xlink:title=" ">
<path fill="none" stroke="#63b8ff" d="M648.09,-219.98C632.45,-211.61 608.34,-198.7 590.12,-188.95"/>
<polygon fill="#63b8ff" stroke="#63b8ff" points="591.66,-185.8 581.2,-184.17 588.36,-191.98 591.66,-185.8"/>
</a>
</g>
</g>
<!-- Node2&#45;&gt;Node4 -->
<g id="edge3_Node000002_Node000004" class="edge">
<title>Node2&#45;&gt;Node4</title>
<g id="a_edge3_Node000002_Node000004"><a xlink:title=" ">
<path fill="none" stroke="#63b8ff" d="M664,-219.75C664,-212.8 664,-202.85 664,-194.13"/>
<polygon fill="#63b8ff" stroke="#63b8ff" points="667.5,-194.09 664,-184.09 660.5,-194.09 667.5,-194.09"/>
</a>
</g>
</g>
<!-- Node5 -->
<g id="Node000005" class="node">
<title>Node5</title>
<g id="a_Node000005"><a xlink:title=" ">
<polygon fill="#e0e0e0" stroke="#999999" points="1152,-74 1110,-74 1110,-55 1152,-55 1152,-74"/>
<text text-anchor="middle" x="1131" y="-62" font-family="Helvetica,sans-Serif" font-size="10.00">array</text>
</a>
</g>
</g>
<!-- Node4&#45;&gt;Node5 -->
<g id="edge4_Node000004_Node000005" class="edge">
<title>Node4&#45;&gt;Node5</title>
<g id="a_edge4_Node000004_Node000005"><a xlink:title=" ">
<path fill="none" stroke="#63b8ff" d="M657.98,-164.9C649.36,-151.43 636,-125.34 650,-110 679.56,-77.61 999.34,-78.11 1043,-74 1061.68,-72.24 1082.58,-70.23 1099.33,-68.6"/>
<polygon fill="#63b8ff" stroke="#63b8ff" points="1100.05,-72.04 1109.66,-67.59 1099.37,-65.08 1100.05,-72.04"/>
</a>
</g>
</g>
<!-- Node4&#45;&gt;Node6 -->
<g id="edge5_Node000004_Node000006" class="edge">
<title>Node4&#45;&gt;Node6</title>
<g id="a_edge5_Node000004_Node000006"><a xlink:title=" ">
<path fill="none" stroke="#63b8ff" d="M678.78,-164.98C693.18,-156.69 715.31,-143.94 732.19,-134.22"/>
<polygon fill="#63b8ff" stroke="#63b8ff" points="734.03,-137.19 740.95,-129.17 730.54,-131.13 734.03,-137.19"/>
</a>
</g>
</g>
<!-- Node4&#45;&gt;Node7 -->
<g id="edge6_Node000004_Node000007" class="edge">
<title>Node4&#45;&gt;Node7</title>
<g id="a_edge6_Node000004_Node000007"><a xlink:title=" ">
<path fill="none" stroke="#63b8ff" d="M648.1,-164.88C627.2,-152.49 595,-129.02 612,-110 635.66,-83.52 876.6,-70.86 970.14,-66.91"/>
<polygon fill="#63b8ff" stroke="#63b8ff" points="970.44,-70.4 980.28,-66.49 970.15,-63.4 970.44,-70.4"/>
</a>
</g>
</g>
<!-- Node4&#45;&gt;Node8 -->
<g id="edge7_Node000004_Node000008" class="edge">
<title>Node4&#45;&gt;Node8</title>
<g id="a_edge7_Node000004_Node000008"><a xlink:title=" ">
<path fill="none" stroke="#63b8ff" d="M668.9,-164.57C677.37,-150.14 696.24,-122.1 721,-110 823.87,-59.72 1121,-84.72 1235,-74 1246.9,-72.88 1259.87,-71.42 1271.49,-70.03"/>
<polygon fill="#63b8ff" stroke="#63b8ff" points="1272.21,-73.47 1281.71,-68.78 1271.36,-66.52 1272.21,-73.47"/>
</a>
</g>
</g>
<!-- Node9 -->
<g id="Node000009" class="node">
<title>Node9</title>
<g id="a_Node000009"><a xlink:title=" ">
<polygon fill="#e0e0e0" stroke="#999999" points="917,-19 857,-19 857,0 917,0 917,-19"/>
<text text-anchor="middle" x="887" y="-7" font-family="Helvetica,sans-Serif" font-size="10.00">iostream</text>
</a>
</g>
</g>
<!-- Node4&#45;&gt;Node9 -->
<g id="edge8_Node000004_Node000009" class="edge">
<title>Node4&#45;&gt;Node9</title>
<g id="a_edge8_Node000004_Node000009"><a xlink:title=" ">
<path fill="none" stroke="#63b8ff" d="M645.17,-164.96C622.33,-153.38 588.66,-131.66 604,-110 659.75,-31.3 782.94,-14.39 846.82,-11.06"/>
<polygon fill="#63b8ff" stroke="#63b8ff" points="847.08,-14.55 856.91,-10.62 846.77,-7.56 847.08,-14.55"/>
</a>
</g>
</g>
<!-- Node4&#45;&gt;Node10 -->
<g id="edge9_Node000004_Node000010" class="edge">
<title>Node4&#45;&gt;Node10</title>
<g id="a_edge9_Node000004_Node000010"><a xlink:title=" ">
<path fill="none" stroke="#63b8ff" d="M690.51,-164.98C718.21,-156.09 761.86,-142.07 792.74,-132.15"/>
<polygon fill="#63b8ff" stroke="#63b8ff" points="793.83,-135.47 802.28,-129.08 791.69,-128.81 793.83,-135.47"/>
</a>
</g>
</g>
<!-- Node11 -->
<g id="Node000011" class="node">
<title>Node11</title>
<g id="a_Node000011"><a xlink:title=" ">
<polygon fill="#e0e0e0" stroke="#999999" points="151.5,-129 104.5,-129 104.5,-110 151.5,-110 151.5,-129"/>
<text text-anchor="middle" x="128" y="-117" font-family="Helvetica,sans-Serif" font-size="10.00">queue</text>
</a>
</g>
</g>
<!-- Node4&#45;&gt;Node11 -->
<g id="edge10_Node000004_Node000011" class="edge">
<title>Node4&#45;&gt;Node11</title>
<g id="a_edge10_Node000004_Node000011"><a xlink:title=" ">
<path fill="none" stroke="#63b8ff" d="M602.93,-165.95C599.91,-165.62 596.92,-165.3 594,-165 404.74,-145.67 352.5,-161.42 161.74,-129.02"/>
<polygon fill="#63b8ff" stroke="#63b8ff" points="162.11,-125.53 151.66,-127.28 160.92,-132.43 162.11,-125.53"/>
</a>
</g>
</g>
<!-- Node12 -->
<g id="Node000012" class="node">
<title>Node12</title>
<g id="a_Node000012"><a xlink:title=" ">
<polygon fill="#e0e0e0" stroke="#999999" points="240.5,-129 169.5,-129 169.5,-110 240.5,-110 240.5,-129"/>
<text text-anchor="middle" x="205" y="-117" font-family="Helvetica,sans-Serif" font-size="10.00">semaphore</text>
</a>
</g>
</g>
<!-- Node4&#45;&gt;Node12 -->
<g id="edge11_Node000004_Node000012" class="edge">
<title>Node4&#45;&gt;Node12</title>
<g id="a_edge11_Node000004_Node000012"><a xlink:title=" ">
<path fill="none" stroke="#63b8ff" d="M602.92,-166.02C599.91,-165.67 596.92,-165.33 594,-165 444.1,-148.08 403.24,-151.48 251.16,-129.22"/>
<polygon fill="#63b8ff" stroke="#63b8ff" points="251.38,-125.71 240.97,-127.71 250.36,-132.64 251.38,-125.71"/>
</a>
</g>
</g>
<!-- Node13 -->
<g id="Node000013" class="node">
<title>Node13</title>
<g id="a_Node000013"><a xlink:title=" ">
<polygon fill="#e0e0e0" stroke="#999999" points="1226,-74 1170,-74 1170,-55 1226,-55 1226,-74"/>
<text text-anchor="middle" x="1198" y="-62" font-family="Helvetica,sans-Serif" font-size="10.00">sstream</text>
</a>
</g>
</g>
<!-- Node4&#45;&gt;Node13 -->
<g id="edge12_Node000004_Node000013" class="edge">
<title>Node4&#45;&gt;Node13</title>
<g id="a_edge12_Node000004_Node000013"><a xlink:title=" ">
<path fill="none" stroke="#63b8ff" d="M664.47,-164.8C665.73,-150.71 670.45,-123.14 688,-110 769.99,-48.61 1040.83,-87.49 1159.8,-73.77"/>
<polygon fill="#63b8ff" stroke="#63b8ff" points="1160.35,-77.23 1169.8,-72.44 1159.43,-70.29 1160.35,-77.23"/>
</a>
</g>
</g>
<!-- Node4&#45;&gt;Node14 -->
<g id="edge13_Node000004_Node000014" class="edge">
<title>Node4&#45;&gt;Node14</title>
<g id="a_edge13_Node000004_Node000014"><a xlink:title=" ">
<path fill="none" stroke="#63b8ff" d="M602.94,-165.91C599.92,-165.59 596.92,-165.28 594,-165 538.67,-159.65 132.87,-169.7 95,-129 25.67,-54.49 458.9,-20.56 582.66,-12.46"/>
<polygon fill="#63b8ff" stroke="#63b8ff" points="582.92,-15.96 592.67,-11.82 582.47,-8.97 582.92,-15.96"/>
</a>
</g>
</g>
<!-- Node4&#45;&gt;Node15 -->
<g id="edge14_Node000004_Node000015" class="edge">
<title>Node4&#45;&gt;Node15</title>
<g id="a_edge14_Node000004_Node000015"><a xlink:title=" ">
<path fill="none" stroke="#63b8ff" d="M704.93,-164.98C743.91,-156.77 804.48,-143.75 866.3,-129.1"/>
<polygon fill="#63b8ff" stroke="#63b8ff" points="867.32,-132.45 876.23,-126.73 865.69,-125.64 867.32,-132.45"/>
</a>
</g>
</g>
<!-- Node16 -->
<g id="Node000016" class="node">
<title>Node16</title>
<g id="a_Node000016"><a xlink:title=" ">
<polygon fill="#e0e0e0" stroke="#999999" points="385.5,-129 258.5,-129 258.5,-110 385.5,-110 385.5,-129"/>
<text text-anchor="middle" x="322" y="-117" font-family="Helvetica,sans-Serif" font-size="10.00">../utils/parameters.hpp</text>
</a>
</g>
</g>
<!-- Node4&#45;&gt;Node16 -->
<g id="edge15_Node000004_Node000016" class="edge">
<title>Node4&#45;&gt;Node16</title>
<g id="a_edge15_Node000004_Node000016"><a xlink:title=" ">
<path fill="none" stroke="#63b8ff" d="M609.05,-164.98C548.56,-155.61 451.39,-140.55 387.12,-130.59"/>
<polygon fill="#63b8ff" stroke="#63b8ff" points="387.51,-127.11 377.1,-129.04 386.44,-134.03 387.51,-127.11"/>
</a>
</g>
</g>
<!-- Node17 -->
<g id="Node000017" class="node">
<title>Node17</title>
<g id="a_Node000017"><a xlink:title=" ">
<polygon fill="#e0e0e0" stroke="#999999" points="522,-129 404,-129 404,-110 522,-110 522,-129"/>
<text text-anchor="middle" x="463" y="-117" font-family="Helvetica,sans-Serif" font-size="10.00">../utils/constants.hpp</text>
</a>
</g>
</g>
<!-- Node4&#45;&gt;Node17 -->
<g id="edge16_Node000004_Node000017" class="edge">
<title>Node4&#45;&gt;Node17</title>
<g id="a_edge16_Node000004_Node000017"><a xlink:title=" ">
<path fill="none" stroke="#63b8ff" d="M631.71,-164.98C597.38,-155.93 542.94,-141.58 505.23,-131.64"/>
<polygon fill="#63b8ff" stroke="#63b8ff" points="506.11,-128.25 495.55,-129.08 504.32,-135.02 506.11,-128.25"/>
</a>
</g>
</g>
<!-- Node4&#45;&gt;Node18 -->
<g id="edge17_Node000004_Node000018" class="edge">
<title>Node4&#45;&gt;Node18</title>
<g id="a_edge17_Node000004_Node000018"><a xlink:title=" ">
<path fill="none" stroke="#63b8ff" d="M725,-167.78C833.64,-157.59 1059.39,-136.41 1168.01,-126.22"/>
<polygon fill="#63b8ff" stroke="#63b8ff" points="1168.52,-129.69 1178.15,-125.27 1167.87,-122.72 1168.52,-129.69"/>
</a>
</g>
</g>
<!-- Node18&#45;&gt;Node5 -->
<g id="edge18_Node000018_Node000005" class="edge">
<title>Node18&#45;&gt;Node5</title>
<g id="a_edge18_Node000018_Node000005"><a xlink:title=" ">
<path fill="none" stroke="#63b8ff" d="M1213.25,-109.98C1197.77,-101.61 1173.91,-88.7 1155.86,-78.95"/>
<polygon fill="#63b8ff" stroke="#63b8ff" points="1157.49,-75.85 1147.03,-74.17 1154.16,-82.01 1157.49,-75.85"/>
</a>
</g>
</g>
<!-- Node18&#45;&gt;Node7 -->
<g id="edge19_Node000018_Node000007" class="edge">
<title>Node18&#45;&gt;Node7</title>
<g id="a_edge19_Node000018_Node000007"><a xlink:title=" ">
<path fill="none" stroke="#63b8ff" d="M1193.33,-109.98C1152.2,-100.17 1084.95,-84.11 1043.48,-74.21"/>
<polygon fill="#63b8ff" stroke="#63b8ff" points="1044.06,-70.75 1033.52,-71.83 1042.44,-77.56 1044.06,-70.75"/>
</a>
</g>
</g>
<!-- Node18&#45;&gt;Node8 -->
<g id="edge20_Node000018_Node000008" class="edge">
<title>Node18&#45;&gt;Node8</title>
<g id="a_edge20_Node000018_Node000008"><a xlink:title=" ">
<path fill="none" stroke="#63b8ff" d="M1241.53,-109.98C1253.4,-101.92 1271.46,-89.65 1285.61,-80.03"/>
<polygon fill="#63b8ff" stroke="#63b8ff" points="1287.94,-82.69 1294.24,-74.17 1284,-76.9 1287.94,-82.69"/>
</a>
</g>
</g>
<!-- Node18&#45;&gt;Node13 -->
<g id="edge23_Node000018_Node000013" class="edge">
<title>Node18&#45;&gt;Node13</title>
<g id="a_edge23_Node000018_Node000013"><a xlink:title=" ">
<path fill="none" stroke="#63b8ff" d="M1223.88,-109.75C1219.64,-102.49 1213.47,-91.95 1208.22,-82.98"/>
<polygon fill="#63b8ff" stroke="#63b8ff" points="1211.09,-80.95 1203.02,-74.09 1205.05,-84.49 1211.09,-80.95"/>
</a>
</g>
</g>
<!-- Node19 -->
<g id="Node000019" class="node">
<title>Node19</title>
<g id="a_Node000019"><a xlink:title=" ">
<polygon fill="#e0e0e0" stroke="#999999" points="1399,-19 1343,-19 1343,0 1399,0 1399,-19"/>
<text text-anchor="middle" x="1371" y="-7" font-family="Helvetica,sans-Serif" font-size="10.00">iomanip</text>
</a>
</g>
</g>
<!-- Node18&#45;&gt;Node19 -->
<g id="edge21_Node000018_Node000019" class="edge">
<title>Node18&#45;&gt;Node19</title>
<g id="a_edge21_Node000018_Node000019"><a xlink:title=" ">
<path fill="none" stroke="#63b8ff" d="M1233.21,-109.57C1239.93,-96.14 1254.26,-70.64 1273,-55 1290.55,-40.35 1313.7,-29.54 1333.1,-22.25"/>
<polygon fill="#63b8ff" stroke="#63b8ff" points="1334.34,-25.52 1342.56,-18.85 1331.97,-18.93 1334.34,-25.52"/>
</a>
</g>
</g>
<!-- Node20 -->
<g id="Node000020" class="node">
<title>Node20</title>
<g id="a_Node000020"><a xlink:title=" ">
<polygon fill="#e0e0e0" stroke="#999999" points="1394,-74 1350,-74 1350,-55 1394,-55 1394,-74"/>
<text text-anchor="middle" x="1372" y="-62" font-family="Helvetica,sans-Serif" font-size="10.00">limits</text>
</a>
</g>
</g>
<!-- Node18&#45;&gt;Node20 -->
<g id="edge22_Node000018_Node000020" class="edge">
<title>Node18&#45;&gt;Node20</title>
<g id="a_edge22_Node000018_Node000020"><a xlink:title=" ">
<path fill="none" stroke="#63b8ff" d="M1251.98,-109.98C1275.78,-101.16 1313.16,-87.31 1339.89,-77.4"/>
<polygon fill="#63b8ff" stroke="#63b8ff" points="1341.39,-80.58 1349.55,-73.82 1338.96,-74.01 1341.39,-80.58"/>
</a>
</g>
</g>
<!-- Node18&#45;&gt;Node21 -->
<g id="edge24_Node000018_Node000021" class="edge">
<title>Node18&#45;&gt;Node21</title>
<g id="a_edge24_Node000018_Node000021"><a xlink:title=" ">
<path fill="none" stroke="#63b8ff" d="M1268.85,-109.98C1316.2,-99.86 1394.55,-83.12 1440.42,-73.32"/>
<polygon fill="#63b8ff" stroke="#63b8ff" points="1441.2,-76.73 1450.25,-71.22 1439.74,-69.88 1441.2,-76.73"/>
</a>
</g>
</g>
<!-- Node21&#45;&gt;Node9 -->
<g id="edge28_Node000021_Node000009" class="edge">
<title>Node21&#45;&gt;Node9</title>
<g id="a_edge28_Node000021_Node000009"><a xlink:title=" ">
<path fill="none" stroke="#63b8ff" d="M1450.3,-60.25C1436.24,-58.58 1418.7,-56.58 1403,-55 1226.08,-37.21 1014.59,-20.35 927.51,-13.6"/>
<polygon fill="#63b8ff" stroke="#63b8ff" points="927.51,-10.09 917.27,-12.81 926.97,-17.07 927.51,-10.09"/>
</a>
</g>
</g>
<!-- Node21&#45;&gt;Node14 -->
<g id="edge30_Node000021_Node000014" class="edge">
<title>Node21&#45;&gt;Node14</title>
<g id="a_edge30_Node000021_Node000014"><a xlink:title=" ">
<path fill="none" stroke="#63b8ff" d="M1450.32,-60.06C1436.26,-58.34 1418.72,-56.35 1403,-55 1110.31,-29.95 755.2,-15.65 647.49,-11.66"/>
<polygon fill="#63b8ff" stroke="#63b8ff" points="647.41,-8.15 637.28,-11.28 647.15,-15.15 647.41,-8.15"/>
</a>
</g>
</g>
<!-- Node21&#45;&gt;Node19 -->
<g id="edge27_Node000021_Node000019" class="edge">
<title>Node21&#45;&gt;Node19</title>
<g id="a_edge27_Node000021_Node000019"><a xlink:title=" ">
<path fill="none" stroke="#63b8ff" d="M1459.97,-54.98C1443.07,-46.54 1416.94,-33.47 1397.36,-23.68"/>
<polygon fill="#63b8ff" stroke="#63b8ff" points="1398.85,-20.51 1388.34,-19.17 1395.72,-26.77 1398.85,-20.51"/>
</a>
</g>
</g>
<!-- Node22 -->
<g id="Node000022" class="node">
<title>Node22</title>
<g id="a_Node000022"><a xlink:title=" ">
<polygon fill="#e0e0e0" stroke="#999999" points="1467,-19 1417,-19 1417,0 1467,0 1467,-19"/>
<text text-anchor="middle" x="1442" y="-7" font-family="Helvetica,sans-Serif" font-size="10.00">chrono</text>
</a>
</g>
</g>
<!-- Node21&#45;&gt;Node22 -->
<g id="edge25_Node000021_Node000022" class="edge">
<title>Node21&#45;&gt;Node22</title>
<g id="a_edge25_Node000021_Node000022"><a xlink:title=" ">
<path fill="none" stroke="#63b8ff" d="M1471.22,-54.75C1466.38,-47.42 1459.32,-36.73 1453.36,-27.7"/>
<polygon fill="#63b8ff" stroke="#63b8ff" points="1456.1,-25.5 1447.67,-19.09 1450.26,-29.36 1456.1,-25.5"/>
</a>
</g>
</g>
<!-- Node23 -->
<g id="Node000023" class="node">
<title>Node23</title>
<g id="a_Node000023"><a xlink:title=" ">
<polygon fill="#e0e0e0" stroke="#999999" points="1538.5,-19 1485.5,-19 1485.5,0 1538.5,0 1538.5,-19"/>
<text text-anchor="middle" x="1512" y="-7" font-family="Helvetica,sans-Serif" font-size="10.00">cstdarg</text>
</a>
</g>
</g>
<!-- Node21&#45;&gt;Node23 -->
<g id="edge26_Node000021_Node000023" class="edge">
<title>Node21&#45;&gt;Node23</title>
<g id="a_edge26_Node000021_Node000023"><a xlink:title=" ">
<path fill="none" stroke="#63b8ff" d="M1482.78,-54.75C1487.62,-47.42 1494.68,-36.73 1500.64,-27.7"/>
<polygon fill="#63b8ff" stroke="#63b8ff" points="1503.74,-29.36 1506.33,-19.09 1497.9,-25.5 1503.74,-29.36"/>
</a>
</g>
</g>
<!-- Node24 -->
<g id="Node000024" class="node">
<title>Node24</title>
<g id="a_Node000024"><a xlink:title=" ">
<polygon fill="#e0e0e0" stroke="#999999" points="1605,-19 1557,-19 1557,0 1605,0 1605,-19"/>
<text text-anchor="middle" x="1581" y="-7" font-family="Helvetica,sans-Serif" font-size="10.00">mutex</text>
</a>
</g>
</g>
<!-- Node21&#45;&gt;Node24 -->
<g id="edge29_Node000021_Node000024" class="edge">
<title>Node21&#45;&gt;Node24</title>
<g id="a_edge29_Node000021_Node000024"><a xlink:title=" ">
<path fill="none" stroke="#63b8ff" d="M1493.71,-54.98C1510.21,-46.57 1535.7,-33.59 1554.88,-23.81"/>
<polygon fill="#63b8ff" stroke="#63b8ff" points="1556.67,-26.83 1563.99,-19.17 1553.49,-20.59 1556.67,-26.83"/>
</a>
</g>
</g>
<!-- Node27&#45;&gt;Node7 -->
<g id="edge41_Node000027_Node000007" class="edge">
<title>Node27&#45;&gt;Node7</title>
<g id="a_edge41_Node000027_Node000007"><a xlink:title=" ">
<path fill="none" stroke="#63b8ff" d="M990.47,-164.66C993.39,-147.17 999.95,-107.8 1003.87,-84.27"/>
<polygon fill="#63b8ff" stroke="#63b8ff" points="1007.37,-84.6 1005.56,-74.16 1000.46,-83.45 1007.37,-84.6"/>
</a>
</g>
</g>
<!-- Node27&#45;&gt;Node14 -->
<g id="edge43_Node000027_Node000014" class="edge">
<title>Node27&#45;&gt;Node14</title>
<g id="a_edge43_Node000027_Node000014"><a xlink:title=" ">
<path fill="none" stroke="#63b8ff" d="M983.59,-164.75C974.69,-151.09 955.69,-124.72 933,-110 839.85,-49.54 707.58,-23.81 647.24,-14.71"/>
<polygon fill="#63b8ff" stroke="#63b8ff" points="647.58,-11.23 637.18,-13.25 646.57,-18.15 647.58,-11.23"/>
</a>
</g>
</g>
<!-- Node27&#45;&gt;Node15 -->
<g id="edge44_Node000027_Node000015" class="edge">
<title>Node27&#45;&gt;Node15</title>
<g id="a_edge44_Node000027_Node000015"><a xlink:title=" ">
<path fill="none" stroke="#63b8ff" d="M974.7,-164.98C960.9,-156.77 939.76,-144.18 923.49,-134.49"/>
<polygon fill="#63b8ff" stroke="#63b8ff" points="924.94,-131.28 914.56,-129.17 921.36,-137.29 924.94,-131.28"/>
</a>
</g>
</g>
<!-- Node27&#45;&gt;Node18 -->
<g id="edge45_Node000027_Node000018" class="edge">
<title>Node27&#45;&gt;Node18</title>
<g id="a_edge45_Node000027_Node000018"><a xlink:title=" ">
<path fill="none" stroke="#63b8ff" d="M1027.56,-164.98C1069.07,-155.82 1135.21,-141.21 1180.29,-131.26"/>
<polygon fill="#63b8ff" stroke="#63b8ff" points="1181.13,-134.66 1190.14,-129.08 1179.62,-127.82 1181.13,-134.66"/>
</a>
</g>
</g>
<!-- Node28 -->
<g id="Node000028" class="node">
<title>Node28</title>
<g id="a_Node000028"><a xlink:title=" ">
<polygon fill="#e0e0e0" stroke="#999999" points="1083.5,-129 1018.5,-129 1018.5,-110 1083.5,-110 1083.5,-129"/>
<text text-anchor="middle" x="1051" y="-117" font-family="Helvetica,sans-Serif" font-size="10.00">stdexcept</text>
</a>
</g>
</g>
<!-- Node27&#45;&gt;Node28 -->
<g id="edge42_Node000027_Node000028" class="edge">
<title>Node27&#45;&gt;Node28</title>
<g id="a_edge42_Node000027_Node000028"><a xlink:title=" ">
<path fill="none" stroke="#63b8ff" d="M998.96,-164.98C1008.13,-157.15 1021.94,-145.34 1033.03,-135.86"/>
<polygon fill="#63b8ff" stroke="#63b8ff" points="1035.53,-138.33 1040.86,-129.17 1030.98,-133.01 1035.53,-138.33"/>
</a>
</g>
</g>
<!-- Node29&#45;&gt;Node5 -->
<g id="edge47_Node000029_Node000005" class="edge">
<title>Node29&#45;&gt;Node5</title>
<g id="a_edge47_Node000029_Node000005"><a xlink:title=" ">
<path fill="none" stroke="#63b8ff" d="M1239.1,-164.93C1217.72,-157.96 1189.92,-146.39 1170,-129 1155.71,-116.53 1144.99,-97.51 1138.45,-83.54"/>
<polygon fill="#63b8ff" stroke="#63b8ff" points="1141.49,-81.77 1134.26,-74.03 1135.09,-84.59 1141.49,-81.77"/>
</a>
</g>
</g>
<!-- Node29&#45;&gt;Node7 -->
<g id="edge48_Node000029_Node000007" class="edge">
<title>Node29&#45;&gt;Node7</title>
<g id="a_edge48_Node000029_Node000007"><a xlink:title=" ">
<path fill="none" stroke="#63b8ff" d="M1246.04,-164.98C1221.24,-156.37 1182.22,-142.47 1149,-129 1108.7,-112.66 1062.92,-91.76 1034.5,-78.49"/>
<polygon fill="#63b8ff" stroke="#63b8ff" points="1035.74,-75.21 1025.2,-74.14 1032.77,-81.55 1035.74,-75.21"/>
</a>
</g>
</g>
<!-- Node29&#45;&gt;Node8 -->
<g id="edge49_Node000029_Node000008" class="edge">
<title>Node29&#45;&gt;Node8</title>
<g id="a_edge49_Node000029_Node000008"><a xlink:title=" ">
<path fill="none" stroke="#63b8ff" d="M1286.73,-164.88C1298.88,-157.23 1314.8,-144.83 1322,-129 1328.72,-114.21 1323.2,-96.06 1317.05,-82.95"/>
<polygon fill="#63b8ff" stroke="#63b8ff" points="1320.14,-81.31 1312.41,-74.06 1313.93,-84.54 1320.14,-81.31"/>
</a>
</g>
</g>
<!-- Node29&#45;&gt;Node13 -->
<g id="edge52_Node000029_Node000013" class="edge">
<title>Node29&#45;&gt;Node13</title>
<g id="a_edge52_Node000029_Node000013"><a xlink:title=" ">
<path fill="none" stroke="#63b8ff" d="M1277.7,-164.66C1286.59,-151.78 1299.92,-127.5 1289,-110 1277.42,-91.45 1255.63,-80.42 1236.27,-73.99"/>
<polygon fill="#63b8ff" stroke="#63b8ff" points="1237.02,-70.56 1226.44,-71.02 1235,-77.26 1237.02,-70.56"/>
</a>
</g>
</g>
<!-- Node29&#45;&gt;Node18 -->
<g id="edge53_Node000029_Node000018" class="edge">
<title>Node29&#45;&gt;Node18</title>
<g id="a_edge53_Node000029_Node000018"><a xlink:title=" ">
<path fill="none" stroke="#63b8ff" d="M1264.06,-164.75C1258.13,-157.26 1249.43,-146.28 1242.18,-137.13"/>
<polygon fill="#63b8ff" stroke="#63b8ff" points="1244.76,-134.75 1235.81,-129.09 1239.27,-139.1 1244.76,-134.75"/>
</a>
</g>
</g>
<!-- Node29&#45;&gt;Node19 -->
<g id="edge50_Node000029_Node000019" class="edge">
<title>Node29&#45;&gt;Node19</title>
<g id="a_edge50_Node000029_Node000019"><a xlink:title=" ">
<path fill="none" stroke="#63b8ff" d="M1295.16,-164.9C1328.24,-151.53 1385.52,-122.15 1403,-74 1409.08,-57.25 1398.13,-39.19 1387.42,-26.63"/>
<polygon fill="#63b8ff" stroke="#63b8ff" points="1389.95,-24.22 1380.59,-19.24 1384.8,-28.97 1389.95,-24.22"/>
</a>
</g>
</g>
<!-- Node29&#45;&gt;Node20 -->
<g id="edge51_Node000029_Node000020" class="edge">
<title>Node29&#45;&gt;Node20</title>
<g id="a_edge51_Node000029_Node000020"><a xlink:title=" ">
<path fill="none" stroke="#63b8ff" d="M1288.09,-164.96C1302.49,-157.12 1322.92,-144.4 1337,-129 1349.32,-115.53 1358.91,-96.94 1364.92,-83.36"/>
<polygon fill="#63b8ff" stroke="#63b8ff" points="1368.15,-84.69 1368.79,-74.11 1361.7,-81.98 1368.15,-84.69"/>
</a>
</g>
</g>
</g>
</svg>
