<?xml version="1.0" encoding="UTF-8" standalone="no"?>
<!DOCTYPE svg PUBLIC "-//W3C//DTD SVG 1.1//EN"
 "http://www.w3.org/Graphics/SVG/1.1/DTD/svg11.dtd">
<!-- Generated by graphviz version 2.43.0 (0)
 -->
<!-- Title: src/lib/patchGeneration/patchSegmentation.cpp Pages: 1 -->
<svg width="1834pt" height="203pt"
 viewBox="0.00 0.00 1833.50 203.00" xmlns="http://www.w3.org/2000/svg" xmlns:xlink="http://www.w3.org/1999/xlink">
<g id="graph0" class="graph" transform="scale(1 1) rotate(0) translate(4 199)">
<title>src/lib/patchGeneration/patchSegmentation.cpp</title>
<!-- Node1 -->
<g id="Node000001" class="node">
<title>Node1</title>
<g id="a_Node000001"><a xlink:title=" ">
<polygon fill="#999999" stroke="#666666" points="918,-195 783,-195 783,-165 918,-165 918,-195"/>
<text text-anchor="start" x="791" y="-183" font-family="Helvetica,sans-Serif" font-size="10.00">src/lib/patchGeneration</text>
<text text-anchor="middle" x="850.5" y="-172" font-family="Helvetica,sans-Serif" font-size="10.00">/patchSegmentation.cpp</text>
</a>
</g>
</g>
<!-- Node2 -->
<g id="Node000002" class="node">
<title>Node2</title>
<g id="a_Node000002"><a xlink:href="patchSegmentation_8hpp.html" target="_top" xlink:title=" ">
<polygon fill="white" stroke="#666666" points="592,-129 459,-129 459,-110 592,-110 592,-129"/>
<text text-anchor="middle" x="525.5" y="-117" font-family="Helvetica,sans-Serif" font-size="10.00">patchSegmentation.hpp</text>
</a>
</g>
</g>
<!-- Node1&#45;&gt;Node2 -->
<g id="edge1_Node000001_Node000002" class="edge">
<title>Node1&#45;&gt;Node2</title>
<g id="a_edge1_Node000001_Node000002"><a xlink:title=" ">
<path fill="none" stroke="#63b8ff" d="M782.76,-166.81C723.75,-156.18 639.09,-140.95 583.23,-130.89"/>
<polygon fill="#63b8ff" stroke="#63b8ff" points="583.61,-127.4 573.15,-129.08 582.37,-134.29 583.61,-127.4"/>
</a>
</g>
</g>
<!-- Node3 -->
<g id="Node000003" class="node">
<title>Node3</title>
<g id="a_Node000003"><a xlink:href="uvgvpcc_8hpp.html" target="_top" xlink:title=" ">
<polygon fill="white" stroke="#666666" points="597.5,-74 475.5,-74 475.5,-55 597.5,-55 597.5,-74"/>
<text text-anchor="middle" x="536.5" y="-62" font-family="Helvetica,sans-Serif" font-size="10.00">uvgvpcc/uvgvpcc.hpp</text>
</a>
</g>
</g>
<!-- Node1&#45;&gt;Node3 -->
<g id="edge41_Node000001_Node000003" class="edge">
<title>Node1&#45;&gt;Node3</title>
<g id="a_edge41_Node000001_Node000003"><a xlink:title=" ">
<path fill="none" stroke="#63b8ff" d="M782.61,-167.73C741.68,-159.67 689.01,-147.03 644.5,-129 612.19,-115.91 578,-94.32 556.95,-80"/>
<polygon fill="#63b8ff" stroke="#63b8ff" points="558.74,-76.98 548.52,-74.18 554.76,-82.74 558.74,-76.98"/>
</a>
</g>
</g>
<!-- Node4 -->
<g id="Node000004" class="node">
<title>Node4</title>
<g id="a_Node000004"><a xlink:title=" ">
<polygon fill="#e0e0e0" stroke="#999999" points="53,-19 0,-19 0,0 53,0 53,-19"/>
<text text-anchor="middle" x="26.5" y="-7" font-family="Helvetica,sans-Serif" font-size="10.00">cstddef</text>
</a>
</g>
</g>
<!-- Node1&#45;&gt;Node4 -->
<g id="edge17_Node000001_Node000004" class="edge">
<title>Node1&#45;&gt;Node4</title>
<g id="a_edge17_Node000001_Node000004"><a xlink:title=" ">
<path fill="none" stroke="#63b8ff" d="M782.76,-177.76C685.17,-174.73 499.86,-164.39 346.5,-129 234.55,-103.17 108.58,-48.47 54.07,-23.47"/>
<polygon fill="#63b8ff" stroke="#63b8ff" points="55.29,-20.17 44.74,-19.16 52.35,-26.53 55.29,-20.17"/>
</a>
</g>
</g>
<!-- Node5 -->
<g id="Node000005" class="node">
<title>Node5</title>
<g id="a_Node000005"><a xlink:title=" ">
<polygon fill="#e0e0e0" stroke="#999999" points="742.5,-19 692.5,-19 692.5,0 742.5,0 742.5,-19"/>
<text text-anchor="middle" x="717.5" y="-7" font-family="Helvetica,sans-Serif" font-size="10.00">cstdint</text>
</a>
</g>
</g>
<!-- Node1&#45;&gt;Node5 -->
<g id="edge18_Node000001_Node000005" class="edge">
<title>Node1&#45;&gt;Node5</title>
<g id="a_edge18_Node000001_Node000005"><a xlink:title=" ">
<path fill="none" stroke="#63b8ff" d="M800.82,-164.97C758.85,-150.09 701.8,-121.95 677.5,-74 668.79,-56.8 683.51,-38.27 697.48,-25.69"/>
<polygon fill="#63b8ff" stroke="#63b8ff" points="700.02,-28.13 705.45,-19.03 695.53,-22.77 700.02,-28.13"/>
</a>
</g>
</g>
<!-- Node7 -->
<g id="Node000007" class="node">
<title>Node7</title>
<g id="a_Node000007"><a xlink:title=" ">
<polygon fill="#e0e0e0" stroke="#999999" points="254.5,-19 196.5,-19 196.5,0 254.5,0 254.5,-19"/>
<text text-anchor="middle" x="225.5" y="-7" font-family="Helvetica,sans-Serif" font-size="10.00">memory</text>
</a>
</g>
</g>
<!-- Node1&#45;&gt;Node7 -->
<g id="edge20_Node000001_Node000007" class="edge">
<title>Node1&#45;&gt;Node7</title>
<g id="a_edge20_Node000001_Node000007"><a xlink:title=" ">
<path fill="none" stroke="#63b8ff" d="M782.94,-177.98C701.94,-175.08 562.92,-164.75 449.5,-129 369.81,-103.89 285.09,-50.82 246.65,-25.1"/>
<polygon fill="#63b8ff" stroke="#63b8ff" points="248.15,-21.88 237.9,-19.18 244.22,-27.68 248.15,-21.88"/>
</a>
</g>
</g>
<!-- Node11 -->
<g id="Node000011" class="node">
<title>Node11</title>
<g id="a_Node000011"><a xlink:title=" ">
<polygon fill="#e0e0e0" stroke="#999999" points="1228.5,-19 1184.5,-19 1184.5,0 1228.5,0 1228.5,-19"/>
<text text-anchor="middle" x="1206.5" y="-7" font-family="Helvetica,sans-Serif" font-size="10.00">string</text>
</a>
</g>
</g>
<!-- Node1&#45;&gt;Node11 -->
<g id="edge21_Node000001_Node000011" class="edge">
<title>Node1&#45;&gt;Node11</title>
<g id="a_edge21_Node000001_Node000011"><a xlink:title=" ">
<path fill="none" stroke="#63b8ff" d="M894.03,-164.93C921.28,-155.68 956.91,-142.77 987.5,-129 1061.27,-95.79 1144.22,-47.81 1183.5,-24.4"/>
<polygon fill="#63b8ff" stroke="#63b8ff" points="1185.74,-27.14 1192.52,-19 1182.14,-21.14 1185.74,-27.14"/>
</a>
</g>
</g>
<!-- Node12 -->
<g id="Node000012" class="node">
<title>Node12</title>
<g id="a_Node000012"><a xlink:title=" ">
<polygon fill="#e0e0e0" stroke="#999999" points="808,-19 761,-19 761,0 808,0 808,-19"/>
<text text-anchor="middle" x="784.5" y="-7" font-family="Helvetica,sans-Serif" font-size="10.00">vector</text>
</a>
</g>
</g>
<!-- Node1&#45;&gt;Node12 -->
<g id="edge22_Node000001_Node000012" class="edge">
<title>Node1&#45;&gt;Node12</title>
<g id="a_edge22_Node000001_Node000012"><a xlink:title=" ">
<path fill="none" stroke="#63b8ff" d="M888.22,-164.88C903.93,-156.9 920.58,-145.21 929.5,-129 933.57,-121.6 931.16,-118.28 929.5,-110 924.29,-84.02 925.66,-73.3 906.5,-55 893.48,-42.57 849.22,-28.33 817.77,-19.37"/>
<polygon fill="#63b8ff" stroke="#63b8ff" points="818.63,-15.98 808.06,-16.66 816.75,-22.72 818.63,-15.98"/>
</a>
</g>
</g>
<!-- Node15 -->
<g id="Node000015" class="node">
<title>Node15</title>
<g id="a_Node000015"><a xlink:title=" ">
<polygon fill="#e0e0e0" stroke="#999999" points="1825.5,-19 1761.5,-19 1761.5,0 1825.5,0 1825.5,-19"/>
<text text-anchor="middle" x="1793.5" y="-7" font-family="Helvetica,sans-Serif" font-size="10.00">algorithm</text>
</a>
</g>
</g>
<!-- Node1&#45;&gt;Node15 -->
<g id="edge14_Node000001_Node000015" class="edge">
<title>Node1&#45;&gt;Node15</title>
<g id="a_edge14_Node000001_Node000015"><a xlink:title=" ">
<path fill="none" stroke="#63b8ff" d="M918.1,-171.42C993,-162.67 1117.23,-147.14 1223.5,-129 1422.05,-95.1 1656.88,-42.17 1751.19,-20.38"/>
<polygon fill="#63b8ff" stroke="#63b8ff" points="1752.25,-23.73 1761.2,-18.06 1750.67,-16.91 1752.25,-23.73"/>
</a>
</g>
</g>
<!-- Node16 -->
<g id="Node000016" class="node">
<title>Node16</title>
<g id="a_Node000016"><a xlink:title=" ">
<polygon fill="#e0e0e0" stroke="#999999" points="1446.5,-129 1394.5,-129 1394.5,-110 1446.5,-110 1446.5,-129"/>
<text text-anchor="middle" x="1420.5" y="-117" font-family="Helvetica,sans-Serif" font-size="10.00">cassert</text>
</a>
</g>
</g>
<!-- Node1&#45;&gt;Node16 -->
<g id="edge15_Node000001_Node000016" class="edge">
<title>Node1&#45;&gt;Node16</title>
<g id="a_edge15_Node000001_Node000016"><a xlink:title=" ">
<path fill="none" stroke="#63b8ff" d="M918.16,-175.12C1019.21,-168.77 1215.37,-154.25 1380.5,-129 1381.76,-128.81 1383.05,-128.6 1384.34,-128.38"/>
<polygon fill="#63b8ff" stroke="#63b8ff" points="1385.14,-131.79 1394.33,-126.51 1383.86,-124.91 1385.14,-131.79"/>
</a>
</g>
</g>
<!-- Node17 -->
<g id="Node000017" class="node">
<title>Node17</title>
<g id="a_Node000017"><a xlink:title=" ">
<polygon fill="#e0e0e0" stroke="#999999" points="1512,-129 1465,-129 1465,-110 1512,-110 1512,-129"/>
<text text-anchor="middle" x="1488.5" y="-117" font-family="Helvetica,sans-Serif" font-size="10.00">cmath</text>
</a>
</g>
</g>
<!-- Node1&#45;&gt;Node17 -->
<g id="edge16_Node000001_Node000017" class="edge">
<title>Node1&#45;&gt;Node17</title>
<g id="a_edge16_Node000001_Node000017"><a xlink:title=" ">
<path fill="none" stroke="#63b8ff" d="M918.11,-177.15C1028.55,-173.31 1254.54,-162.02 1454.7,-128.82"/>
<polygon fill="#63b8ff" stroke="#63b8ff" points="1455.53,-132.22 1464.81,-127.11 1454.37,-125.32 1455.53,-132.22"/>
</a>
</g>
</g>
<!-- Node18 -->
<g id="Node000018" class="node">
<title>Node18</title>
<g id="a_Node000018"><a xlink:title=" ">
<polygon fill="#e0e0e0" stroke="#999999" points="178.5,-19 136.5,-19 136.5,0 178.5,0 178.5,-19"/>
<text text-anchor="middle" x="157.5" y="-7" font-family="Helvetica,sans-Serif" font-size="10.00">array</text>
</a>
</g>
</g>
<!-- Node1&#45;&gt;Node18 -->
<g id="edge19_Node000001_Node000018" class="edge">
<title>Node1&#45;&gt;Node18</title>
<g id="a_edge19_Node000001_Node000018"><a xlink:title=" ">
<path fill="none" stroke="#63b8ff" d="M783,-178.7C693.56,-176.69 531.69,-167.43 399.5,-129 313.44,-103.98 220.66,-50.05 179.41,-24.48"/>
<polygon fill="#63b8ff" stroke="#63b8ff" points="181.07,-21.39 170.74,-19.05 177.36,-27.33 181.07,-21.39"/>
</a>
</g>
</g>
<!-- Node19 -->
<g id="Node000019" class="node">
<title>Node19</title>
<g id="a_Node000019"><a xlink:href="robin__hood_8h.html" target="_top" xlink:title=" ">
<polygon fill="white" stroke="#666666" points="1338.5,-74 1258.5,-74 1258.5,-55 1338.5,-55 1338.5,-74"/>
<text text-anchor="middle" x="1298.5" y="-62" font-family="Helvetica,sans-Serif" font-size="10.00">robin_hood.h</text>
</a>
</g>
</g>
<!-- Node1&#45;&gt;Node19 -->
<g id="edge23_Node000001_Node000019" class="edge">
<title>Node1&#45;&gt;Node19</title>
<g id="a_edge23_Node000001_Node000019"><a xlink:title=" ">
<path fill="none" stroke="#63b8ff" d="M918.23,-176.56C987.98,-172.32 1098.97,-160.72 1189.5,-129 1222.99,-117.27 1257.75,-94.95 1278.76,-80.15"/>
<polygon fill="#63b8ff" stroke="#63b8ff" points="1281.05,-82.8 1287.13,-74.13 1276.97,-77.12 1281.05,-82.8"/>
</a>
</g>
</g>
<!-- Node27 -->
<g id="Node000027" class="node">
<title>Node27</title>
<g id="a_Node000027"><a xlink:href="log_8hpp.html" target="_top" xlink:title=" ">
<polygon fill="white" stroke="#666666" points="1072.5,-74 976.5,-74 976.5,-55 1072.5,-55 1072.5,-74"/>
<text text-anchor="middle" x="1024.5" y="-62" font-family="Helvetica,sans-Serif" font-size="10.00">uvgvpcc/log.hpp</text>
</a>
</g>
</g>
<!-- Node1&#45;&gt;Node27 -->
<g id="edge34_Node000001_Node000027" class="edge">
<title>Node1&#45;&gt;Node27</title>
<g id="a_edge34_Node000001_Node000027"><a xlink:title=" ">
<path fill="none" stroke="#63b8ff" d="M891.58,-164.97C913.66,-156.4 940.75,-144.16 962.5,-129 981.55,-115.72 999.66,-96.07 1011.33,-82.15"/>
<polygon fill="#63b8ff" stroke="#63b8ff" points="1014.1,-84.29 1017.72,-74.33 1008.68,-79.86 1014.1,-84.29"/>
</a>
</g>
</g>
<!-- Node32 -->
<g id="Node000032" class="node">
<title>Node32</title>
<g id="a_Node000032"><a xlink:href="utils_8hpp.html" target="_top" xlink:title=" ">
<polygon fill="white" stroke="#666666" points="770,-74 687,-74 687,-55 770,-55 770,-74"/>
<text text-anchor="middle" x="728.5" y="-62" font-family="Helvetica,sans-Serif" font-size="10.00">utils/utils.hpp</text>
</a>
</g>
</g>
<!-- Node1&#45;&gt;Node32 -->
<g id="edge42_Node000001_Node000032" class="edge">
<title>Node1&#45;&gt;Node32</title>
<g id="a_edge42_Node000001_Node000032"><a xlink:title=" ">
<path fill="none" stroke="#63b8ff" d="M822.98,-164.93C807.12,-155.99 787.43,-143.41 772.5,-129 758.36,-115.36 746,-96.55 738.01,-82.94"/>
<polygon fill="#63b8ff" stroke="#63b8ff" points="740.98,-81.08 733,-74.1 734.89,-84.53 740.98,-81.08"/>
</a>
</g>
</g>
<!-- Node33 -->
<g id="Node000033" class="node">
<title>Node33</title>
<g id="a_Node000033"><a xlink:href="utilsPatchGeneration_8hpp.html" target="_top" xlink:title=" ">
<polygon fill="white" stroke="#666666" points="920,-129 781,-129 781,-110 920,-110 920,-129"/>
<text text-anchor="middle" x="850.5" y="-117" font-family="Helvetica,sans-Serif" font-size="10.00">utilsPatchGeneration.hpp</text>
</a>
</g>
</g>
<!-- Node1&#45;&gt;Node33 -->
<g id="edge48_Node000001_Node000033" class="edge">
<title>Node1&#45;&gt;Node33</title>
<g id="a_edge48_Node000001_Node000033"><a xlink:title=" ">
<path fill="none" stroke="#63b8ff" d="M850.5,-164.84C850.5,-157.21 850.5,-147.7 850.5,-139.45"/>
<polygon fill="#63b8ff" stroke="#63b8ff" points="854,-139.27 850.5,-129.27 847,-139.27 854,-139.27"/>
</a>
</g>
</g>
<!-- Node2&#45;&gt;Node3 -->
<g id="edge2_Node000002_Node000003" class="edge">
<title>Node2&#45;&gt;Node3</title>
<g id="a_edge2_Node000002_Node000003"><a xlink:title=" ">
<path fill="none" stroke="#63b8ff" d="M527.32,-109.75C528.76,-102.8 530.82,-92.85 532.63,-84.13"/>
<polygon fill="#63b8ff" stroke="#63b8ff" points="536.11,-84.59 534.72,-74.09 529.26,-83.17 536.11,-84.59"/>
</a>
</g>
</g>
<!-- Node3&#45;&gt;Node4 -->
<g id="edge3_Node000003_Node000004" class="edge">
<title>Node3&#45;&gt;Node4</title>
<g id="a_edge3_Node000003_Node000004"><a xlink:title=" ">
<path fill="none" stroke="#63b8ff" d="M475.4,-60.61C386.56,-55.78 216.46,-44.19 63.24,-19.07"/>
<polygon fill="#63b8ff" stroke="#63b8ff" points="63.61,-15.59 53.17,-17.4 62.46,-22.49 63.61,-15.59"/>
</a>
</g>
</g>
<!-- Node3&#45;&gt;Node5 -->
<g id="edge4_Node000003_Node000005" class="edge">
<title>Node3&#45;&gt;Node5</title>
<g id="a_edge4_Node000003_Node000005"><a xlink:title=" ">
<path fill="none" stroke="#63b8ff" d="M565.58,-54.98C597.37,-45.68 648.3,-30.76 682.31,-20.8"/>
<polygon fill="#63b8ff" stroke="#63b8ff" points="683.67,-24.05 692.29,-17.88 681.71,-17.33 683.67,-24.05"/>
</a>
</g>
</g>
<!-- Node6 -->
<g id="Node000006" class="node">
<title>Node6</title>
<g id="a_Node000006"><a xlink:title=" ">
<polygon fill="#e0e0e0" stroke="#999999" points="886.5,-19 826.5,-19 826.5,0 886.5,0 886.5,-19"/>
<text text-anchor="middle" x="856.5" y="-7" font-family="Helvetica,sans-Serif" font-size="10.00">iostream</text>
</a>
</g>
</g>
<!-- Node3&#45;&gt;Node6 -->
<g id="edge5_Node000003_Node000006" class="edge">
<title>Node3&#45;&gt;Node6</title>
<g id="a_edge5_Node000003_Node000006"><a xlink:title=" ">
<path fill="none" stroke="#63b8ff" d="M596.7,-54.99C651.48,-47.01 734.83,-34.3 816.37,-19.12"/>
<polygon fill="#63b8ff" stroke="#63b8ff" points="817.12,-22.54 826.3,-17.26 815.83,-15.66 817.12,-22.54"/>
</a>
</g>
</g>
<!-- Node3&#45;&gt;Node7 -->
<g id="edge6_Node000003_Node000007" class="edge">
<title>Node3&#45;&gt;Node7</title>
<g id="a_edge6_Node000003_Node000007"><a xlink:title=" ">
<path fill="none" stroke="#63b8ff" d="M478.01,-54.98C424.88,-47.01 344.13,-34.32 264.69,-19.13"/>
<polygon fill="#63b8ff" stroke="#63b8ff" points="264.99,-15.63 254.51,-17.17 263.67,-22.5 264.99,-15.63"/>
</a>
</g>
</g>
<!-- Node8 -->
<g id="Node000008" class="node">
<title>Node8</title>
<g id="a_Node000008"><a xlink:title=" ">
<polygon fill="#e0e0e0" stroke="#999999" points="118,-19 71,-19 71,0 118,0 118,-19"/>
<text text-anchor="middle" x="94.5" y="-7" font-family="Helvetica,sans-Serif" font-size="10.00">queue</text>
</a>
</g>
</g>
<!-- Node3&#45;&gt;Node8 -->
<g id="edge7_Node000003_Node000008" class="edge">
<title>Node3&#45;&gt;Node8</title>
<g id="a_edge7_Node000003_Node000008"><a xlink:title=" ">
<path fill="none" stroke="#63b8ff" d="M475.47,-59.61C397.23,-54.01 257.28,-41.94 128.26,-18.87"/>
<polygon fill="#63b8ff" stroke="#63b8ff" points="128.67,-15.38 118.2,-17.04 127.42,-22.27 128.67,-15.38"/>
</a>
</g>
</g>
<!-- Node9 -->
<g id="Node000009" class="node">
<title>Node9</title>
<g id="a_Node000009"><a xlink:title=" ">
<polygon fill="#e0e0e0" stroke="#999999" points="344,-19 273,-19 273,0 344,0 344,-19"/>
<text text-anchor="middle" x="308.5" y="-7" font-family="Helvetica,sans-Serif" font-size="10.00">semaphore</text>
</a>
</g>
</g>
<!-- Node3&#45;&gt;Node9 -->
<g id="edge8_Node000003_Node000009" class="edge">
<title>Node3&#45;&gt;Node9</title>
<g id="a_edge8_Node000003_Node000009"><a xlink:title=" ">
<path fill="none" stroke="#63b8ff" d="M499.87,-54.98C460.25,-45.77 397.01,-31.08 354.18,-21.12"/>
<polygon fill="#63b8ff" stroke="#63b8ff" points="354.82,-17.67 344.29,-18.82 353.24,-24.49 354.82,-17.67"/>
</a>
</g>
</g>
<!-- Node10 -->
<g id="Node000010" class="node">
<title>Node10</title>
<g id="a_Node000010"><a xlink:title=" ">
<polygon fill="#e0e0e0" stroke="#999999" points="674.5,-19 618.5,-19 618.5,0 674.5,0 674.5,-19"/>
<text text-anchor="middle" x="646.5" y="-7" font-family="Helvetica,sans-Serif" font-size="10.00">sstream</text>
</a>
</g>
</g>
<!-- Node3&#45;&gt;Node10 -->
<g id="edge9_Node000003_Node000010" class="edge">
<title>Node3&#45;&gt;Node10</title>
<g id="a_edge9_Node000003_Node000010"><a xlink:title=" ">
<path fill="none" stroke="#63b8ff" d="M554.17,-54.98C571.79,-46.5 599.08,-33.35 619.43,-23.54"/>
<polygon fill="#63b8ff" stroke="#63b8ff" points="621.02,-26.66 628.51,-19.17 617.98,-20.36 621.02,-26.66"/>
</a>
</g>
</g>
<!-- Node3&#45;&gt;Node11 -->
<g id="edge10_Node000003_Node000011" class="edge">
<title>Node3&#45;&gt;Node11</title>
<g id="a_edge10_Node000003_Node000011"><a xlink:title=" ">
<path fill="none" stroke="#63b8ff" d="M597.72,-59.57C743.1,-50.18 1101.84,-26.76 1174.2,-18.52"/>
<polygon fill="#63b8ff" stroke="#63b8ff" points="1174.82,-21.97 1184.27,-17.16 1173.89,-15.03 1174.82,-21.97"/>
</a>
</g>
</g>
<!-- Node3&#45;&gt;Node12 -->
<g id="edge11_Node000003_Node000012" class="edge">
<title>Node3&#45;&gt;Node12</title>
<g id="a_edge11_Node000003_Node000012"><a xlink:title=" ">
<path fill="none" stroke="#63b8ff" d="M580.69,-55C622.13,-46.88 686.03,-34 750.77,-19.08"/>
<polygon fill="#63b8ff" stroke="#63b8ff" points="751.79,-22.43 760.74,-16.77 750.21,-15.62 751.79,-22.43"/>
</a>
</g>
</g>
<!-- Node13 -->
<g id="Node000013" class="node">
<title>Node13</title>
<g id="a_Node000013"><a xlink:title=" ">
<polygon fill="#e0e0e0" stroke="#999999" points="454.5,-19 362.5,-19 362.5,0 454.5,0 454.5,-19"/>
<text text-anchor="middle" x="408.5" y="-7" font-family="Helvetica,sans-Serif" font-size="10.00">../utils/utils.hpp</text>
</a>
</g>
</g>
<!-- Node3&#45;&gt;Node13 -->
<g id="edge12_Node000003_Node000013" class="edge">
<title>Node3&#45;&gt;Node13</title>
<g id="a_edge12_Node000003_Node000013"><a xlink:title=" ">
<path fill="none" stroke="#63b8ff" d="M515.93,-54.98C495.07,-46.34 462.53,-32.87 438.73,-23.02"/>
<polygon fill="#63b8ff" stroke="#63b8ff" points="440.02,-19.76 429.44,-19.17 437.34,-26.23 440.02,-19.76"/>
</a>
</g>
</g>
<!-- Node14 -->
<g id="Node000014" class="node">
<title>Node14</title>
<g id="a_Node000014"><a xlink:title=" ">
<polygon fill="#e0e0e0" stroke="#999999" points="600,-19 473,-19 473,0 600,0 600,-19"/>
<text text-anchor="middle" x="536.5" y="-7" font-family="Helvetica,sans-Serif" font-size="10.00">../utils/parameters.hpp</text>
</a>
</g>
</g>
<!-- Node3&#45;&gt;Node14 -->
<g id="edge13_Node000003_Node000014" class="edge">
<title>Node3&#45;&gt;Node14</title>
<g id="a_edge13_Node000003_Node000014"><a xlink:title=" ">
<path fill="none" stroke="#63b8ff" d="M536.5,-54.75C536.5,-47.8 536.5,-37.85 536.5,-29.13"/>
<polygon fill="#63b8ff" stroke="#63b8ff" points="540,-29.09 536.5,-19.09 533,-29.09 540,-29.09"/>
</a>
</g>
</g>
<!-- Node19&#45;&gt;Node7 -->
<g id="edge29_Node000019_Node000007" class="edge">
<title>Node19&#45;&gt;Node7</title>
<g id="a_edge29_Node000019_Node000007"><a xlink:title=" ">
<path fill="none" stroke="#63b8ff" d="M1258.37,-61.87C1079.98,-54.62 363.57,-25.38 265.01,-18.49"/>
<polygon fill="#63b8ff" stroke="#63b8ff" points="265.13,-14.98 254.87,-17.61 264.53,-21.96 265.13,-14.98"/>
</a>
</g>
</g>
<!-- Node19&#45;&gt;Node11 -->
<g id="edge31_Node000019_Node000011" class="edge">
<title>Node19&#45;&gt;Node11</title>
<g id="a_edge31_Node000019_Node000011"><a xlink:title=" ">
<path fill="none" stroke="#63b8ff" d="M1283.72,-54.98C1269.32,-46.69 1247.19,-33.94 1230.31,-24.22"/>
<polygon fill="#63b8ff" stroke="#63b8ff" points="1231.96,-21.13 1221.55,-19.17 1228.47,-27.19 1231.96,-21.13"/>
</a>
</g>
</g>
<!-- Node19&#45;&gt;Node15 -->
<g id="edge24_Node000019_Node000015" class="edge">
<title>Node19&#45;&gt;Node15</title>
<g id="a_edge24_Node000019_Node000015"><a xlink:title=" ">
<path fill="none" stroke="#63b8ff" d="M1338.56,-56.89C1343.25,-56.21 1347.98,-55.56 1352.5,-55 1526.45,-33.51 1574.22,-44.74 1751.42,-18.99"/>
<polygon fill="#63b8ff" stroke="#63b8ff" points="1751.95,-22.45 1761.33,-17.53 1750.93,-15.53 1751.95,-22.45"/>
</a>
</g>
</g>
<!-- Node20 -->
<g id="Node000020" class="node">
<title>Node20</title>
<g id="a_Node000020"><a xlink:title=" ">
<polygon fill="#e0e0e0" stroke="#999999" points="1358,-19 1309,-19 1309,0 1358,0 1358,-19"/>
<text text-anchor="middle" x="1333.5" y="-7" font-family="Helvetica,sans-Serif" font-size="10.00">cstdlib</text>
</a>
</g>
</g>
<!-- Node19&#45;&gt;Node20 -->
<g id="edge25_Node000019_Node000020" class="edge">
<title>Node19&#45;&gt;Node20</title>
<g id="a_edge25_Node000019_Node000020"><a xlink:title=" ">
<path fill="none" stroke="#63b8ff" d="M1304.28,-54.75C1309.12,-47.42 1316.18,-36.73 1322.14,-27.7"/>
<polygon fill="#63b8ff" stroke="#63b8ff" points="1325.24,-29.36 1327.83,-19.09 1319.4,-25.5 1325.24,-29.36"/>
</a>
</g>
</g>
<!-- Node21 -->
<g id="Node000021" class="node">
<title>Node21</title>
<g id="a_Node000021"><a xlink:title=" ">
<polygon fill="#e0e0e0" stroke="#999999" points="1426.5,-19 1376.5,-19 1376.5,0 1426.5,0 1426.5,-19"/>
<text text-anchor="middle" x="1401.5" y="-7" font-family="Helvetica,sans-Serif" font-size="10.00">cstring</text>
</a>
</g>
</g>
<!-- Node19&#45;&gt;Node21 -->
<g id="edge26_Node000019_Node000021" class="edge">
<title>Node19&#45;&gt;Node21</title>
<g id="a_edge26_Node000019_Node000021"><a xlink:title=" ">
<path fill="none" stroke="#63b8ff" d="M1315.05,-54.98C1331.39,-46.57 1356.63,-33.59 1375.63,-23.81"/>
<polygon fill="#63b8ff" stroke="#63b8ff" points="1377.36,-26.86 1384.65,-19.17 1374.16,-20.63 1377.36,-26.86"/>
</a>
</g>
</g>
<!-- Node22 -->
<g id="Node000022" class="node">
<title>Node22</title>
<g id="a_Node000022"><a xlink:title=" ">
<polygon fill="#e0e0e0" stroke="#999999" points="1510,-19 1445,-19 1445,0 1510,0 1510,-19"/>
<text text-anchor="middle" x="1477.5" y="-7" font-family="Helvetica,sans-Serif" font-size="10.00">functional</text>
</a>
</g>
</g>
<!-- Node19&#45;&gt;Node22 -->
<g id="edge27_Node000019_Node000022" class="edge">
<title>Node19&#45;&gt;Node22</title>
<g id="a_edge27_Node000019_Node000022"><a xlink:title=" ">
<path fill="none" stroke="#63b8ff" d="M1327.26,-54.98C1357.44,-46.05 1405.07,-31.94 1438.6,-22.02"/>
<polygon fill="#63b8ff" stroke="#63b8ff" points="1439.92,-25.28 1448.52,-19.08 1437.93,-18.57 1439.92,-25.28"/>
</a>
</g>
</g>
<!-- Node23 -->
<g id="Node000023" class="node">
<title>Node23</title>
<g id="a_Node000023"><a xlink:title=" ">
<polygon fill="#e0e0e0" stroke="#999999" points="1290.5,-19 1246.5,-19 1246.5,0 1290.5,0 1290.5,-19"/>
<text text-anchor="middle" x="1268.5" y="-7" font-family="Helvetica,sans-Serif" font-size="10.00">limits</text>
</a>
</g>
</g>
<!-- Node19&#45;&gt;Node23 -->
<g id="edge28_Node000019_Node000023" class="edge">
<title>Node19&#45;&gt;Node23</title>
<g id="a_edge28_Node000019_Node000023"><a xlink:title=" ">
<path fill="none" stroke="#63b8ff" d="M1293.55,-54.75C1289.44,-47.49 1283.47,-36.95 1278.4,-27.98"/>
<polygon fill="#63b8ff" stroke="#63b8ff" points="1281.33,-26.07 1273.36,-19.09 1275.24,-29.52 1281.33,-26.07"/>
</a>
</g>
</g>
<!-- Node24 -->
<g id="Node000024" class="node">
<title>Node24</title>
<g id="a_Node000024"><a xlink:title=" ">
<polygon fill="#e0e0e0" stroke="#999999" points="1593,-19 1528,-19 1528,0 1593,0 1593,-19"/>
<text text-anchor="middle" x="1560.5" y="-7" font-family="Helvetica,sans-Serif" font-size="10.00">stdexcept</text>
</a>
</g>
</g>
<!-- Node19&#45;&gt;Node24 -->
<g id="edge30_Node000019_Node000024" class="edge">
<title>Node19&#45;&gt;Node24</title>
<g id="a_edge30_Node000019_Node000024"><a xlink:title=" ">
<path fill="none" stroke="#63b8ff" d="M1338.84,-55.45C1381.08,-47 1449.62,-33.25 1517.78,-19.34"/>
<polygon fill="#63b8ff" stroke="#63b8ff" points="1518.73,-22.72 1527.83,-17.29 1517.33,-15.86 1518.73,-22.72"/>
</a>
</g>
</g>
<!-- Node25 -->
<g id="Node000025" class="node">
<title>Node25</title>
<g id="a_Node000025"><a xlink:title=" ">
<polygon fill="#e0e0e0" stroke="#999999" points="1680,-19 1611,-19 1611,0 1680,0 1680,-19"/>
<text text-anchor="middle" x="1645.5" y="-7" font-family="Helvetica,sans-Serif" font-size="10.00">type_traits</text>
</a>
</g>
</g>
<!-- Node19&#45;&gt;Node25 -->
<g id="edge32_Node000019_Node000025" class="edge">
<title>Node19&#45;&gt;Node25</title>
<g id="a_edge32_Node000019_Node000025"><a xlink:title=" ">
<path fill="none" stroke="#63b8ff" d="M1338.6,-57.13C1343.28,-56.4 1348,-55.68 1352.5,-55 1460.36,-38.75 1490.17,-37.93 1600.9,-19.2"/>
<polygon fill="#63b8ff" stroke="#63b8ff" points="1601.52,-22.65 1610.79,-17.52 1600.35,-15.75 1601.52,-22.65"/>
</a>
</g>
</g>
<!-- Node26 -->
<g id="Node000026" class="node">
<title>Node26</title>
<g id="a_Node000026"><a xlink:title=" ">
<polygon fill="#e0e0e0" stroke="#999999" points="1743,-19 1698,-19 1698,0 1743,0 1743,-19"/>
<text text-anchor="middle" x="1720.5" y="-7" font-family="Helvetica,sans-Serif" font-size="10.00">utility</text>
</a>
</g>
</g>
<!-- Node19&#45;&gt;Node26 -->
<g id="edge33_Node000019_Node000026" class="edge">
<title>Node19&#45;&gt;Node26</title>
<g id="a_edge33_Node000019_Node000026"><a xlink:title=" ">
<path fill="none" stroke="#63b8ff" d="M1338.57,-56.97C1343.26,-56.27 1347.98,-55.6 1352.5,-55 1498.63,-35.71 1539.74,-46.52 1687.99,-19.01"/>
<polygon fill="#63b8ff" stroke="#63b8ff" points="1688.73,-22.44 1697.91,-17.15 1687.44,-15.56 1688.73,-22.44"/>
</a>
</g>
</g>
<!-- Node27&#45;&gt;Node6 -->
<g id="edge38_Node000027_Node000006" class="edge">
<title>Node27&#45;&gt;Node6</title>
<g id="a_edge38_Node000027_Node000006"><a xlink:title=" ">
<path fill="none" stroke="#63b8ff" d="M997.51,-54.98C969.3,-46.09 924.86,-32.07 893.42,-22.15"/>
<polygon fill="#63b8ff" stroke="#63b8ff" points="894.29,-18.75 883.7,-19.08 892.19,-25.43 894.29,-18.75"/>
</a>
</g>
</g>
<!-- Node27&#45;&gt;Node11 -->
<g id="edge39_Node000027_Node000011" class="edge">
<title>Node27&#45;&gt;Node11</title>
<g id="a_edge39_Node000027_Node000011"><a xlink:title=" ">
<path fill="none" stroke="#63b8ff" d="M1053.74,-54.98C1086.8,-45.36 1140.44,-29.74 1174.57,-19.8"/>
<polygon fill="#63b8ff" stroke="#63b8ff" points="1175.86,-23.07 1184.49,-16.91 1173.91,-16.35 1175.86,-23.07"/>
</a>
</g>
</g>
<!-- Node28 -->
<g id="Node000028" class="node">
<title>Node28</title>
<g id="a_Node000028"><a xlink:title=" ">
<polygon fill="#e0e0e0" stroke="#999999" points="1166.5,-19 1116.5,-19 1116.5,0 1166.5,0 1166.5,-19"/>
<text text-anchor="middle" x="1141.5" y="-7" font-family="Helvetica,sans-Serif" font-size="10.00">chrono</text>
</a>
</g>
</g>
<!-- Node27&#45;&gt;Node28 -->
<g id="edge35_Node000027_Node000028" class="edge">
<title>Node27&#45;&gt;Node28</title>
<g id="a_edge35_Node000027_Node000028"><a xlink:title=" ">
<path fill="none" stroke="#63b8ff" d="M1043.3,-54.98C1062.12,-46.46 1091.32,-33.23 1113,-23.41"/>
<polygon fill="#63b8ff" stroke="#63b8ff" points="1114.7,-26.48 1122.36,-19.17 1111.81,-20.11 1114.7,-26.48"/>
</a>
</g>
</g>
<!-- Node29 -->
<g id="Node000029" class="node">
<title>Node29</title>
<g id="a_Node000029"><a xlink:title=" ">
<polygon fill="#e0e0e0" stroke="#999999" points="1032,-19 979,-19 979,0 1032,0 1032,-19"/>
<text text-anchor="middle" x="1005.5" y="-7" font-family="Helvetica,sans-Serif" font-size="10.00">cstdarg</text>
</a>
</g>
</g>
<!-- Node27&#45;&gt;Node29 -->
<g id="edge36_Node000027_Node000029" class="edge">
<title>Node27&#45;&gt;Node29</title>
<g id="a_edge36_Node000027_Node000029"><a xlink:title=" ">
<path fill="none" stroke="#63b8ff" d="M1021.36,-54.75C1018.82,-47.65 1015.14,-37.4 1011.97,-28.56"/>
<polygon fill="#63b8ff" stroke="#63b8ff" points="1015.25,-27.32 1008.58,-19.09 1008.66,-29.68 1015.25,-27.32"/>
</a>
</g>
</g>
<!-- Node30 -->
<g id="Node000030" class="node">
<title>Node30</title>
<g id="a_Node000030"><a xlink:title=" ">
<polygon fill="#e0e0e0" stroke="#999999" points="960.5,-19 904.5,-19 904.5,0 960.5,0 960.5,-19"/>
<text text-anchor="middle" x="932.5" y="-7" font-family="Helvetica,sans-Serif" font-size="10.00">iomanip</text>
</a>
</g>
</g>
<!-- Node27&#45;&gt;Node30 -->
<g id="edge37_Node000027_Node000030" class="edge">
<title>Node27&#45;&gt;Node30</title>
<g id="a_edge37_Node000027_Node000030"><a xlink:title=" ">
<path fill="none" stroke="#63b8ff" d="M1009.72,-54.98C995.32,-46.69 973.19,-33.94 956.31,-24.22"/>
<polygon fill="#63b8ff" stroke="#63b8ff" points="957.96,-21.13 947.55,-19.17 954.47,-27.19 957.96,-21.13"/>
</a>
</g>
</g>
<!-- Node31 -->
<g id="Node000031" class="node">
<title>Node31</title>
<g id="a_Node000031"><a xlink:title=" ">
<polygon fill="#e0e0e0" stroke="#999999" points="1098.5,-19 1050.5,-19 1050.5,0 1098.5,0 1098.5,-19"/>
<text text-anchor="middle" x="1074.5" y="-7" font-family="Helvetica,sans-Serif" font-size="10.00">mutex</text>
</a>
</g>
</g>
<!-- Node27&#45;&gt;Node31 -->
<g id="edge40_Node000027_Node000031" class="edge">
<title>Node27&#45;&gt;Node31</title>
<g id="a_edge40_Node000027_Node000031"><a xlink:title=" ">
<path fill="none" stroke="#63b8ff" d="M1032.76,-54.75C1039.96,-47.11 1050.61,-35.82 1059.35,-26.56"/>
<polygon fill="#63b8ff" stroke="#63b8ff" points="1062.08,-28.76 1066.4,-19.09 1056.99,-23.96 1062.08,-28.76"/>
</a>
</g>
</g>
<!-- Node32&#45;&gt;Node5 -->
<g id="edge44_Node000032_Node000005" class="edge">
<title>Node32&#45;&gt;Node5</title>
<g id="a_edge44_Node000032_Node000005"><a xlink:title=" ">
<path fill="none" stroke="#63b8ff" d="M726.68,-54.75C725.24,-47.8 723.18,-37.85 721.37,-29.13"/>
<polygon fill="#63b8ff" stroke="#63b8ff" points="724.74,-28.17 719.28,-19.09 717.89,-29.59 724.74,-28.17"/>
</a>
</g>
</g>
<!-- Node32&#45;&gt;Node10 -->
<g id="edge46_Node000032_Node000010" class="edge">
<title>Node32&#45;&gt;Node10</title>
<g id="a_edge46_Node000032_Node000010"><a xlink:title=" ">
<path fill="none" stroke="#63b8ff" d="M715.33,-54.98C702.73,-46.84 683.5,-34.41 668.56,-24.76"/>
<polygon fill="#63b8ff" stroke="#63b8ff" points="670.21,-21.66 659.91,-19.17 666.41,-27.54 670.21,-21.66"/>
</a>
</g>
</g>
<!-- Node32&#45;&gt;Node18 -->
<g id="edge43_Node000032_Node000018" class="edge">
<title>Node32&#45;&gt;Node18</title>
<g id="a_edge43_Node000032_Node000018"><a xlink:title=" ">
<path fill="none" stroke="#63b8ff" d="M686.67,-60.53C574.03,-52.47 268.05,-30.13 189.01,-18.72"/>
<polygon fill="#63b8ff" stroke="#63b8ff" points="189.12,-15.19 178.69,-17.05 188,-22.1 189.12,-15.19"/>
</a>
</g>
</g>
<!-- Node32&#45;&gt;Node23 -->
<g id="edge45_Node000032_Node000023" class="edge">
<title>Node32&#45;&gt;Node23</title>
<g id="a_edge45_Node000032_Node000023"><a xlink:title=" ">
<path fill="none" stroke="#63b8ff" d="M770.16,-59.49C785.37,-58.05 802.71,-56.42 818.5,-55 1001.38,-38.51 1051.74,-51.38 1236.23,-18.91"/>
<polygon fill="#63b8ff" stroke="#63b8ff" points="1237.03,-22.32 1246.26,-17.12 1235.8,-15.43 1237.03,-22.32"/>
</a>
</g>
</g>
<!-- Node32&#45;&gt;Node30 -->
<g id="edge47_Node000032_Node000030" class="edge">
<title>Node32&#45;&gt;Node30</title>
<g id="a_edge47_Node000032_Node000030"><a xlink:title=" ">
<path fill="none" stroke="#63b8ff" d="M761.28,-54.98C797.67,-45.53 856.32,-30.29 894.65,-20.33"/>
<polygon fill="#63b8ff" stroke="#63b8ff" points="895.6,-23.7 904.4,-17.8 893.84,-16.93 895.6,-23.7"/>
</a>
</g>
</g>
<!-- Node33&#45;&gt;Node5 -->
<g id="edge51_Node000033_Node000005" class="edge">
<title>Node33&#45;&gt;Node5</title>
<g id="a_edge51_Node000033_Node000005"><a xlink:title=" ">
<path fill="none" stroke="#63b8ff" d="M841.58,-109.96C828.39,-97.45 802.72,-73.63 779.5,-55 766.49,-44.56 751.28,-33.63 739.18,-25.21"/>
<polygon fill="#63b8ff" stroke="#63b8ff" points="740.84,-22.1 730.62,-19.31 736.87,-27.87 740.84,-22.1"/>
</a>
</g>
</g>
<!-- Node33&#45;&gt;Node12 -->
<g id="edge53_Node000033_Node000012" class="edge">
<title>Node33&#45;&gt;Node12</title>
<g id="a_edge53_Node000033_Node000012"><a xlink:title=" ">
<path fill="none" stroke="#63b8ff" d="M863.21,-109.82C879.58,-97.54 904.46,-74.43 891.5,-55 882.95,-42.18 846.32,-28.77 818.27,-20.06"/>
<polygon fill="#63b8ff" stroke="#63b8ff" points="818.98,-16.62 808.4,-17.08 816.96,-23.32 818.98,-16.62"/>
</a>
</g>
</g>
<!-- Node33&#45;&gt;Node19 -->
<g id="edge54_Node000033_Node000019" class="edge">
<title>Node33&#45;&gt;Node19</title>
<g id="a_edge54_Node000033_Node000019"><a xlink:title=" ">
<path fill="none" stroke="#63b8ff" d="M920.01,-110.28C1010.8,-99.54 1167.61,-80.98 1247.91,-71.48"/>
<polygon fill="#63b8ff" stroke="#63b8ff" points="1248.73,-74.91 1258.25,-70.26 1247.91,-67.96 1248.73,-74.91"/>
</a>
</g>
</g>
<!-- Node33&#45;&gt;Node27 -->
<g id="edge50_Node000033_Node000027" class="edge">
<title>Node33&#45;&gt;Node27</title>
<g id="a_edge50_Node000033_Node000027"><a xlink:title=" ">
<path fill="none" stroke="#63b8ff" d="M878.46,-109.98C907.8,-101.05 954.1,-86.94 986.69,-77.02"/>
<polygon fill="#63b8ff" stroke="#63b8ff" points="987.78,-80.34 996.32,-74.08 985.74,-73.65 987.78,-80.34"/>
</a>
</g>
</g>
<!-- Node33&#45;&gt;Node32 -->
<g id="edge49_Node000033_Node000032" class="edge">
<title>Node33&#45;&gt;Node32</title>
<g id="a_edge49_Node000033_Node000032"><a xlink:title=" ">
<path fill="none" stroke="#63b8ff" d="M830.9,-109.98C811.18,-101.42 780.55,-88.11 757.92,-78.28"/>
<polygon fill="#63b8ff" stroke="#63b8ff" points="759.02,-74.94 748.46,-74.17 756.24,-81.37 759.02,-74.94"/>
</a>
</g>
</g>
<!-- Node34 -->
<g id="Node000034" class="node">
<title>Node34</title>
<g id="a_Node000034"><a xlink:title=" ">
<polygon fill="#e0e0e0" stroke="#999999" points="882,-74 827,-74 827,-55 882,-55 882,-74"/>
<text text-anchor="middle" x="854.5" y="-62" font-family="Helvetica,sans-Serif" font-size="10.00">fstream</text>
</a>
</g>
</g>
<!-- Node33&#45;&gt;Node34 -->
<g id="edge52_Node000033_Node000034" class="edge">
<title>Node33&#45;&gt;Node34</title>
<g id="a_edge52_Node000033_Node000034"><a xlink:title=" ">
<path fill="none" stroke="#63b8ff" d="M851.16,-109.75C851.68,-102.8 852.44,-92.85 853.09,-84.13"/>
<polygon fill="#63b8ff" stroke="#63b8ff" points="856.59,-84.32 853.85,-74.09 849.61,-83.8 856.59,-84.32"/>
</a>
</g>
</g>
</g>
</svg>
