<?xml version="1.0" encoding="UTF-8" standalone="no"?>
<!DOCTYPE svg PUBLIC "-//W3C//DTD SVG 1.1//EN"
 "http://www.w3.org/Graphics/SVG/1.1/DTD/svg11.dtd">
<!-- Generated by graphviz version 2.43.0 (0)
 -->
<!-- Title: src/lib/patchGeneration/patchGeneration.cpp Pages: 1 -->
<svg width="2398pt" height="203pt"
 viewBox="0.00 0.00 2397.50 203.00" xmlns="http://www.w3.org/2000/svg" xmlns:xlink="http://www.w3.org/1999/xlink">
<g id="graph0" class="graph" transform="scale(1 1) rotate(0) translate(4 199)">
<title>src/lib/patchGeneration/patchGeneration.cpp</title>
<!-- Node1 -->
<g id="Node000001" class="node">
<title>Node1</title>
<g id="a_Node000001"><a xlink:title=" ">
<polygon fill="#999999" stroke="#666666" points="884.5,-195 754.5,-195 754.5,-165 884.5,-165 884.5,-195"/>
<text text-anchor="start" x="762.5" y="-183" font-family="Helvetica,sans-Serif" font-size="10.00">src/lib/patchGeneration</text>
<text text-anchor="middle" x="819.5" y="-172" font-family="Helvetica,sans-Serif" font-size="10.00">/patchGeneration.cpp</text>
</a>
</g>
</g>
<!-- Node2 -->
<g id="Node000002" class="node">
<title>Node2</title>
<g id="a_Node000002"><a xlink:href="patchGeneration_8hpp.html" target="_top" xlink:title=" ">
<polygon fill="white" stroke="#666666" points="167,-129 48,-129 48,-110 167,-110 167,-129"/>
<text text-anchor="middle" x="107.5" y="-117" font-family="Helvetica,sans-Serif" font-size="10.00">patchGeneration.hpp</text>
</a>
</g>
</g>
<!-- Node1&#45;&gt;Node2 -->
<g id="edge1_Node000001_Node000002" class="edge">
<title>Node1&#45;&gt;Node2</title>
<g id="a_edge1_Node000001_Node000002"><a xlink:title=" ">
<path fill="none" stroke="#63b8ff" d="M754.05,-174.94C639.32,-167.59 394.21,-150.9 177.17,-129.13"/>
<polygon fill="#63b8ff" stroke="#63b8ff" points="177.49,-125.64 167.19,-128.12 176.78,-132.61 177.49,-125.64"/>
</a>
</g>
</g>
<!-- Node3 -->
<g id="Node000003" class="node">
<title>Node3</title>
<g id="a_Node000003"><a xlink:href="uvgvpcc_8hpp.html" target="_top" xlink:title=" ">
<polygon fill="white" stroke="#666666" points="454.5,-74 332.5,-74 332.5,-55 454.5,-55 454.5,-74"/>
<text text-anchor="middle" x="393.5" y="-62" font-family="Helvetica,sans-Serif" font-size="10.00">uvgvpcc/uvgvpcc.hpp</text>
</a>
</g>
</g>
<!-- Node1&#45;&gt;Node3 -->
<g id="edge78_Node000001_Node000003" class="edge">
<title>Node1&#45;&gt;Node3</title>
<g id="a_edge78_Node000001_Node000003"><a xlink:title=" ">
<path fill="none" stroke="#63b8ff" d="M754.3,-177.23C570.99,-171.93 62.86,-154.97 38.5,-129 -1.62,-86.22 207.1,-72.05 321.94,-67.52"/>
<polygon fill="#63b8ff" stroke="#63b8ff" points="322.21,-71.01 332.07,-67.14 321.95,-64.02 322.21,-71.01"/>
</a>
</g>
</g>
<!-- Node4 -->
<g id="Node000004" class="node">
<title>Node4</title>
<g id="a_Node000004"><a xlink:title=" ">
<polygon fill="#e0e0e0" stroke="#999999" points="53,-19 0,-19 0,0 53,0 53,-19"/>
<text text-anchor="middle" x="26.5" y="-7" font-family="Helvetica,sans-Serif" font-size="10.00">cstddef</text>
</a>
</g>
</g>
<!-- Node1&#45;&gt;Node4 -->
<g id="edge16_Node000001_Node000004" class="edge">
<title>Node1&#45;&gt;Node4</title>
<g id="a_edge16_Node000001_Node000004"><a xlink:title=" ">
<path fill="none" stroke="#63b8ff" d="M754.24,-177.24C569.48,-171.96 54.51,-154.97 29.5,-129 3.9,-102.41 12.7,-54.9 20.26,-28.85"/>
<polygon fill="#63b8ff" stroke="#63b8ff" points="23.66,-29.71 23.33,-19.12 16.99,-27.61 23.66,-29.71"/>
</a>
</g>
</g>
<!-- Node7 -->
<g id="Node000007" class="node">
<title>Node7</title>
<g id="a_Node000007"><a xlink:title=" ">
<polygon fill="#e0e0e0" stroke="#999999" points="871.5,-19 813.5,-19 813.5,0 871.5,0 871.5,-19"/>
<text text-anchor="middle" x="842.5" y="-7" font-family="Helvetica,sans-Serif" font-size="10.00">memory</text>
</a>
</g>
</g>
<!-- Node1&#45;&gt;Node7 -->
<g id="edge17_Node000001_Node000007" class="edge">
<title>Node1&#45;&gt;Node7</title>
<g id="a_edge17_Node000001_Node000007"><a xlink:title=" ">
<path fill="none" stroke="#63b8ff" d="M884.7,-178.94C972.14,-177.31 1120.38,-168.59 1154.5,-129 1160.01,-122.6 1159.19,-117.02 1154.5,-110 1118.95,-56.82 1082.26,-74.99 1021.5,-55 995.82,-46.55 926.15,-29.89 881.68,-19.52"/>
<polygon fill="#63b8ff" stroke="#63b8ff" points="882.32,-16.08 871.78,-17.22 880.73,-22.9 882.32,-16.08"/>
</a>
</g>
</g>
<!-- Node11 -->
<g id="Node000011" class="node">
<title>Node11</title>
<g id="a_Node000011"><a xlink:title=" ">
<polygon fill="#e0e0e0" stroke="#999999" points="1007.5,-19 963.5,-19 963.5,0 1007.5,0 1007.5,-19"/>
<text text-anchor="middle" x="985.5" y="-7" font-family="Helvetica,sans-Serif" font-size="10.00">string</text>
</a>
</g>
</g>
<!-- Node1&#45;&gt;Node11 -->
<g id="edge18_Node000001_Node000011" class="edge">
<title>Node1&#45;&gt;Node11</title>
<g id="a_edge18_Node000001_Node000011"><a xlink:title=" ">
<path fill="none" stroke="#63b8ff" d="M884.53,-179.43C975.41,-178.48 1133.36,-170.68 1169.5,-129 1175.03,-122.62 1173.63,-117.37 1169.5,-110 1153.13,-80.81 1064.96,-42.08 1016.86,-22.67"/>
<polygon fill="#63b8ff" stroke="#63b8ff" points="1018.11,-19.4 1007.53,-18.95 1015.52,-25.91 1018.11,-19.4"/>
</a>
</g>
</g>
<!-- Node12 -->
<g id="Node000012" class="node">
<title>Node12</title>
<g id="a_Node000012"><a xlink:title=" ">
<polygon fill="#e0e0e0" stroke="#999999" points="795,-19 748,-19 748,0 795,0 795,-19"/>
<text text-anchor="middle" x="771.5" y="-7" font-family="Helvetica,sans-Serif" font-size="10.00">vector</text>
</a>
</g>
</g>
<!-- Node1&#45;&gt;Node12 -->
<g id="edge19_Node000001_Node000012" class="edge">
<title>Node1&#45;&gt;Node12</title>
<g id="a_edge19_Node000001_Node000012"><a xlink:title=" ">
<path fill="none" stroke="#63b8ff" d="M884.88,-171.82C925.88,-163.7 969.12,-146.47 958.5,-110 950.4,-82.18 946.66,-72.41 923.5,-55 918.65,-51.36 848.35,-31.61 805.07,-19.68"/>
<polygon fill="#63b8ff" stroke="#63b8ff" points="805.8,-16.25 795.23,-16.98 803.95,-23 805.8,-16.25"/>
</a>
</g>
</g>
<!-- Node15 -->
<g id="Node000015" class="node">
<title>Node15</title>
<g id="a_Node000015"><a xlink:title=" ">
<polygon fill="#e0e0e0" stroke="#999999" points="1869.5,-19 1805.5,-19 1805.5,0 1869.5,0 1869.5,-19"/>
<text text-anchor="middle" x="1837.5" y="-7" font-family="Helvetica,sans-Serif" font-size="10.00">algorithm</text>
</a>
</g>
</g>
<!-- Node1&#45;&gt;Node15 -->
<g id="edge14_Node000001_Node000015" class="edge">
<title>Node1&#45;&gt;Node15</title>
<g id="a_edge14_Node000001_Node000015"><a xlink:title=" ">
<path fill="none" stroke="#63b8ff" d="M884.56,-177.32C1100.67,-171.08 1784.67,-145.78 1849.5,-74 1860.63,-61.67 1854.88,-42.36 1848.04,-28.27"/>
<polygon fill="#63b8ff" stroke="#63b8ff" points="1850.92,-26.25 1843.1,-19.11 1844.76,-29.57 1850.92,-26.25"/>
</a>
</g>
</g>
<!-- Node16 -->
<g id="Node000016" class="node">
<title>Node16</title>
<g id="a_Node000016"><a xlink:title=" ">
<polygon fill="#e0e0e0" stroke="#999999" points="2389.5,-19 2337.5,-19 2337.5,0 2389.5,0 2389.5,-19"/>
<text text-anchor="middle" x="2363.5" y="-7" font-family="Helvetica,sans-Serif" font-size="10.00">cassert</text>
</a>
</g>
</g>
<!-- Node1&#45;&gt;Node16 -->
<g id="edge15_Node000001_Node000016" class="edge">
<title>Node1&#45;&gt;Node16</title>
<g id="a_edge15_Node000001_Node000016"><a xlink:title=" ">
<path fill="none" stroke="#63b8ff" d="M884.7,-178C1032.01,-175.14 1401.6,-164.73 1708.5,-129 1983.22,-97.02 2052.99,-76.97 2327.32,-19.15"/>
<polygon fill="#63b8ff" stroke="#63b8ff" points="2328.1,-22.57 2337.17,-17.08 2326.66,-15.72 2328.1,-22.57"/>
</a>
</g>
</g>
<!-- Node17 -->
<g id="Node000017" class="node">
<title>Node17</title>
<g id="a_Node000017"><a xlink:href="normalComputation_8hpp.html" target="_top" xlink:title=" ">
<polygon fill="white" stroke="#666666" points="320,-129 185,-129 185,-110 320,-110 320,-129"/>
<text text-anchor="middle" x="252.5" y="-117" font-family="Helvetica,sans-Serif" font-size="10.00">normalComputation.hpp</text>
</a>
</g>
</g>
<!-- Node1&#45;&gt;Node17 -->
<g id="edge20_Node000001_Node000017" class="edge">
<title>Node1&#45;&gt;Node17</title>
<g id="a_edge20_Node000001_Node000017"><a xlink:title=" ">
<path fill="none" stroke="#63b8ff" d="M754.35,-172.57C662.32,-163.45 488.67,-146.06 330.44,-129.2"/>
<polygon fill="#63b8ff" stroke="#63b8ff" points="330.36,-125.67 320.04,-128.09 329.61,-132.63 330.36,-125.67"/>
</a>
</g>
</g>
<!-- Node18 -->
<g id="Node000018" class="node">
<title>Node18</title>
<g id="a_Node000018"><a xlink:href="normalOrientation_8hpp.html" target="_top" xlink:title=" ">
<polygon fill="white" stroke="#666666" points="465,-129 338,-129 338,-110 465,-110 465,-129"/>
<text text-anchor="middle" x="401.5" y="-117" font-family="Helvetica,sans-Serif" font-size="10.00">normalOrientation.hpp</text>
</a>
</g>
</g>
<!-- Node1&#45;&gt;Node18 -->
<g id="edge22_Node000001_Node000018" class="edge">
<title>Node1&#45;&gt;Node18</title>
<g id="a_edge22_Node000001_Node000018"><a xlink:title=" ">
<path fill="none" stroke="#63b8ff" d="M754.19,-169.86C677.72,-159.16 551.5,-141.49 472.61,-130.45"/>
<polygon fill="#63b8ff" stroke="#63b8ff" points="472.67,-126.93 462.28,-129.01 471.7,-133.86 472.67,-126.93"/>
</a>
</g>
</g>
<!-- Node19 -->
<g id="Node000019" class="node">
<title>Node19</title>
<g id="a_Node000019"><a xlink:href="kdTree_8hpp.html" target="_top" xlink:title=" ">
<polygon fill="white" stroke="#666666" points="949.5,-129 795.5,-129 795.5,-110 949.5,-110 949.5,-129"/>
<text text-anchor="middle" x="872.5" y="-117" font-family="Helvetica,sans-Serif" font-size="10.00">patchGeneration/kdTree.hpp</text>
</a>
</g>
</g>
<!-- Node1&#45;&gt;Node19 -->
<g id="edge24_Node000001_Node000019" class="edge">
<title>Node1&#45;&gt;Node19</title>
<g id="a_edge24_Node000001_Node000019"><a xlink:title=" ">
<path fill="none" stroke="#63b8ff" d="M832.33,-164.84C840.02,-156.35 849.83,-145.52 857.83,-136.69"/>
<polygon fill="#63b8ff" stroke="#63b8ff" points="860.44,-139.03 864.56,-129.27 855.25,-134.33 860.44,-139.03"/>
</a>
</g>
</g>
<!-- Node32 -->
<g id="Node000032" class="node">
<title>Node32</title>
<g id="a_Node000032"><a xlink:href="utils_8hpp.html" target="_top" xlink:title=" ">
<polygon fill="white" stroke="#666666" points="914,-74 831,-74 831,-55 914,-55 914,-74"/>
<text text-anchor="middle" x="872.5" y="-62" font-family="Helvetica,sans-Serif" font-size="10.00">utils/utils.hpp</text>
</a>
</g>
</g>
<!-- Node1&#45;&gt;Node32 -->
<g id="edge79_Node000001_Node000032" class="edge">
<title>Node1&#45;&gt;Node32</title>
<g id="a_edge79_Node000001_Node000032"><a xlink:title=" ">
<path fill="none" stroke="#63b8ff" d="M804.4,-164.82C791.11,-150.57 775.46,-128.15 786.5,-110 795.69,-94.9 811.84,-84.69 827.69,-77.91"/>
<polygon fill="#63b8ff" stroke="#63b8ff" points="829.4,-81 837.45,-74.12 826.86,-74.48 829.4,-81"/>
</a>
</g>
</g>
<!-- Node34 -->
<g id="Node000034" class="node">
<title>Node34</title>
<g id="a_Node000034"><a xlink:href="patchSegmentation_8hpp.html" target="_top" xlink:title=" ">
<polygon fill="white" stroke="#666666" points="739,-129 606,-129 606,-110 739,-110 739,-129"/>
<text text-anchor="middle" x="672.5" y="-117" font-family="Helvetica,sans-Serif" font-size="10.00">patchSegmentation.hpp</text>
</a>
</g>
</g>
<!-- Node1&#45;&gt;Node34 -->
<g id="edge46_Node000001_Node000034" class="edge">
<title>Node1&#45;&gt;Node34</title>
<g id="a_edge46_Node000001_Node000034"><a xlink:title=" ">
<path fill="none" stroke="#63b8ff" d="M784.29,-164.99C759.76,-155.23 727.35,-142.33 703.74,-132.93"/>
<polygon fill="#63b8ff" stroke="#63b8ff" points="704.79,-129.58 694.21,-129.14 702.21,-136.09 704.79,-129.58"/>
</a>
</g>
</g>
<!-- Node39 -->
<g id="Node000039" class="node">
<title>Node39</title>
<g id="a_Node000039"><a xlink:href="ppiSegmenter_8hpp.html" target="_top" xlink:title=" ">
<polygon fill="white" stroke="#666666" points="588,-129 483,-129 483,-110 588,-110 588,-129"/>
<text text-anchor="middle" x="535.5" y="-117" font-family="Helvetica,sans-Serif" font-size="10.00">ppiSegmenter.hpp</text>
</a>
</g>
</g>
<!-- Node1&#45;&gt;Node39 -->
<g id="edge59_Node000001_Node000039" class="edge">
<title>Node1&#45;&gt;Node39</title>
<g id="a_edge59_Node000001_Node000039"><a xlink:title=" ">
<path fill="none" stroke="#63b8ff" d="M754.34,-165.58C703.54,-155.11 633.95,-140.78 587,-131.11"/>
<polygon fill="#63b8ff" stroke="#63b8ff" points="587.55,-127.65 577.05,-129.06 586.13,-134.5 587.55,-127.65"/>
</a>
</g>
</g>
<!-- Node40 -->
<g id="Node000040" class="node">
<title>Node40</title>
<g id="a_Node000040"><a xlink:href="utilsPatchGeneration_8hpp.html" target="_top" xlink:title=" ">
<polygon fill="white" stroke="#666666" points="1145,-129 1006,-129 1006,-110 1145,-110 1145,-129"/>
<text text-anchor="middle" x="1075.5" y="-117" font-family="Helvetica,sans-Serif" font-size="10.00">utilsPatchGeneration.hpp</text>
</a>
</g>
</g>
<!-- Node1&#45;&gt;Node40 -->
<g id="edge64_Node000001_Node000040" class="edge">
<title>Node1&#45;&gt;Node40</title>
<g id="a_edge64_Node000001_Node000040"><a xlink:title=" ">
<path fill="none" stroke="#63b8ff" d="M880.82,-164.99C926.05,-154.65 986.7,-140.79 1028.21,-131.31"/>
<polygon fill="#63b8ff" stroke="#63b8ff" points="1029.1,-134.69 1038.07,-129.05 1027.54,-127.87 1029.1,-134.69"/>
</a>
</g>
</g>
<!-- Node41 -->
<g id="Node000041" class="node">
<title>Node41</title>
<g id="a_Node000041"><a xlink:href="log_8hpp.html" target="_top" xlink:title=" ">
<polygon fill="white" stroke="#666666" points="1297.5,-74 1201.5,-74 1201.5,-55 1297.5,-55 1297.5,-74"/>
<text text-anchor="middle" x="1249.5" y="-62" font-family="Helvetica,sans-Serif" font-size="10.00">uvgvpcc/log.hpp</text>
</a>
</g>
</g>
<!-- Node1&#45;&gt;Node41 -->
<g id="edge77_Node000001_Node000041" class="edge">
<title>Node1&#45;&gt;Node41</title>
<g id="a_edge77_Node000001_Node000041"><a xlink:title=" ">
<path fill="none" stroke="#63b8ff" d="M884.77,-178.95C985.84,-177.58 1173.99,-169.48 1225.5,-129 1239.24,-118.21 1245.11,-98.63 1247.62,-84.05"/>
<polygon fill="#63b8ff" stroke="#63b8ff" points="1251.1,-84.49 1248.96,-74.11 1244.16,-83.55 1251.1,-84.49"/>
</a>
</g>
</g>
<!-- Node2&#45;&gt;Node3 -->
<g id="edge2_Node000002_Node000003" class="edge">
<title>Node2&#45;&gt;Node3</title>
<g id="a_edge2_Node000002_Node000003"><a xlink:title=" ">
<path fill="none" stroke="#63b8ff" d="M153.45,-109.98C203.44,-100.72 283.39,-85.9 337.14,-75.94"/>
<polygon fill="#63b8ff" stroke="#63b8ff" points="337.99,-79.35 347.19,-74.08 336.72,-72.46 337.99,-79.35"/>
</a>
</g>
</g>
<!-- Node3&#45;&gt;Node4 -->
<g id="edge3_Node000003_Node000004" class="edge">
<title>Node3&#45;&gt;Node4</title>
<g id="a_edge3_Node000003_Node000004"><a xlink:title=" ">
<path fill="none" stroke="#63b8ff" d="M334.54,-54.98C257.95,-43.92 126.58,-24.95 63.04,-15.78"/>
<polygon fill="#63b8ff" stroke="#63b8ff" points="63.47,-12.3 53.08,-14.34 62.47,-19.23 63.47,-12.3"/>
</a>
</g>
</g>
<!-- Node5 -->
<g id="Node000005" class="node">
<title>Node5</title>
<g id="a_Node000005"><a xlink:title=" ">
<polygon fill="#e0e0e0" stroke="#999999" points="166.5,-19 116.5,-19 116.5,0 166.5,0 166.5,-19"/>
<text text-anchor="middle" x="141.5" y="-7" font-family="Helvetica,sans-Serif" font-size="10.00">cstdint</text>
</a>
</g>
</g>
<!-- Node3&#45;&gt;Node5 -->
<g id="edge4_Node000003_Node000005" class="edge">
<title>Node3&#45;&gt;Node5</title>
<g id="a_edge4_Node000003_Node000005"><a xlink:title=" ">
<path fill="none" stroke="#63b8ff" d="M348.7,-54.95C306.7,-46.8 241.92,-33.89 176.76,-19.21"/>
<polygon fill="#63b8ff" stroke="#63b8ff" points="177.25,-15.73 166.72,-16.94 175.7,-22.56 177.25,-15.73"/>
</a>
</g>
</g>
<!-- Node6 -->
<g id="Node000006" class="node">
<title>Node6</title>
<g id="a_Node000006"><a xlink:title=" ">
<polygon fill="#e0e0e0" stroke="#999999" points="729.5,-19 669.5,-19 669.5,0 729.5,0 729.5,-19"/>
<text text-anchor="middle" x="699.5" y="-7" font-family="Helvetica,sans-Serif" font-size="10.00">iostream</text>
</a>
</g>
</g>
<!-- Node3&#45;&gt;Node6 -->
<g id="edge5_Node000003_Node000006" class="edge">
<title>Node3&#45;&gt;Node6</title>
<g id="a_edge5_Node000003_Node000006"><a xlink:title=" ">
<path fill="none" stroke="#63b8ff" d="M449.64,-54.97C501.55,-46.9 581.08,-34.05 659.27,-19.16"/>
<polygon fill="#63b8ff" stroke="#63b8ff" points="660.13,-22.56 669.3,-17.24 658.82,-15.68 660.13,-22.56"/>
</a>
</g>
</g>
<!-- Node3&#45;&gt;Node7 -->
<g id="edge6_Node000003_Node000007" class="edge">
<title>Node3&#45;&gt;Node7</title>
<g id="a_edge6_Node000003_Node000007"><a xlink:title=" ">
<path fill="none" stroke="#63b8ff" d="M454.72,-59.03C533.23,-52.82 673.75,-40.08 803.03,-19.08"/>
<polygon fill="#63b8ff" stroke="#63b8ff" points="803.81,-22.49 813.11,-17.42 802.67,-15.59 803.81,-22.49"/>
</a>
</g>
</g>
<!-- Node8 -->
<g id="Node000008" class="node">
<title>Node8</title>
<g id="a_Node000008"><a xlink:title=" ">
<polygon fill="#e0e0e0" stroke="#999999" points="232,-19 185,-19 185,0 232,0 232,-19"/>
<text text-anchor="middle" x="208.5" y="-7" font-family="Helvetica,sans-Serif" font-size="10.00">queue</text>
</a>
</g>
</g>
<!-- Node3&#45;&gt;Node8 -->
<g id="edge7_Node000003_Node000008" class="edge">
<title>Node3&#45;&gt;Node8</title>
<g id="a_edge7_Node000003_Node000008"><a xlink:title=" ">
<path fill="none" stroke="#63b8ff" d="M363.78,-54.98C330.5,-45.45 276.69,-30.03 241.96,-20.09"/>
<polygon fill="#63b8ff" stroke="#63b8ff" points="242.85,-16.7 232.27,-17.31 240.92,-23.43 242.85,-16.7"/>
</a>
</g>
</g>
<!-- Node9 -->
<g id="Node000009" class="node">
<title>Node9</title>
<g id="a_Node000009"><a xlink:title=" ">
<polygon fill="#e0e0e0" stroke="#999999" points="321,-19 250,-19 250,0 321,0 321,-19"/>
<text text-anchor="middle" x="285.5" y="-7" font-family="Helvetica,sans-Serif" font-size="10.00">semaphore</text>
</a>
</g>
</g>
<!-- Node3&#45;&gt;Node9 -->
<g id="edge8_Node000003_Node000009" class="edge">
<title>Node3&#45;&gt;Node9</title>
<g id="a_edge8_Node000003_Node000009"><a xlink:title=" ">
<path fill="none" stroke="#63b8ff" d="M376.15,-54.98C358.93,-46.54 332.3,-33.47 312.35,-23.68"/>
<polygon fill="#63b8ff" stroke="#63b8ff" points="313.69,-20.43 303.17,-19.17 310.6,-26.72 313.69,-20.43"/>
</a>
</g>
</g>
<!-- Node10 -->
<g id="Node000010" class="node">
<title>Node10</title>
<g id="a_Node000010"><a xlink:title=" ">
<polygon fill="#e0e0e0" stroke="#999999" points="651.5,-19 595.5,-19 595.5,0 651.5,0 651.5,-19"/>
<text text-anchor="middle" x="623.5" y="-7" font-family="Helvetica,sans-Serif" font-size="10.00">sstream</text>
</a>
</g>
</g>
<!-- Node3&#45;&gt;Node10 -->
<g id="edge9_Node000003_Node000010" class="edge">
<title>Node3&#45;&gt;Node10</title>
<g id="a_edge9_Node000003_Node000010"><a xlink:title=" ">
<path fill="none" stroke="#63b8ff" d="M430.45,-54.98C473.01,-45.18 542.56,-29.15 585.54,-19.25"/>
<polygon fill="#63b8ff" stroke="#63b8ff" points="586.38,-22.65 595.34,-16.99 584.81,-15.82 586.38,-22.65"/>
</a>
</g>
</g>
<!-- Node3&#45;&gt;Node11 -->
<g id="edge10_Node000003_Node000011" class="edge">
<title>Node3&#45;&gt;Node11</title>
<g id="a_edge10_Node000003_Node000011"><a xlink:title=" ">
<path fill="none" stroke="#63b8ff" d="M454.57,-62.41C556.33,-59.78 766.96,-50.84 953.29,-18.87"/>
<polygon fill="#63b8ff" stroke="#63b8ff" points="954.01,-22.3 963.26,-17.14 952.81,-15.4 954.01,-22.3"/>
</a>
</g>
</g>
<!-- Node3&#45;&gt;Node12 -->
<g id="edge11_Node000003_Node000012" class="edge">
<title>Node3&#45;&gt;Node12</title>
<g id="a_edge11_Node000003_Node000012"><a xlink:title=" ">
<path fill="none" stroke="#63b8ff" d="M454.63,-57.93C521.71,-51.29 632.7,-38.79 737.65,-18.93"/>
<polygon fill="#63b8ff" stroke="#63b8ff" points="738.63,-22.3 747.79,-16.98 737.31,-15.43 738.63,-22.3"/>
</a>
</g>
</g>
<!-- Node13 -->
<g id="Node000013" class="node">
<title>Node13</title>
<g id="a_Node000013"><a xlink:title=" ">
<polygon fill="#e0e0e0" stroke="#999999" points="431.5,-19 339.5,-19 339.5,0 431.5,0 431.5,-19"/>
<text text-anchor="middle" x="385.5" y="-7" font-family="Helvetica,sans-Serif" font-size="10.00">../utils/utils.hpp</text>
</a>
</g>
</g>
<!-- Node3&#45;&gt;Node13 -->
<g id="edge12_Node000003_Node000013" class="edge">
<title>Node3&#45;&gt;Node13</title>
<g id="a_edge12_Node000003_Node000013"><a xlink:title=" ">
<path fill="none" stroke="#63b8ff" d="M392.18,-54.75C391.13,-47.8 389.63,-37.85 388.31,-29.13"/>
<polygon fill="#63b8ff" stroke="#63b8ff" points="391.75,-28.45 386.8,-19.09 384.83,-29.5 391.75,-28.45"/>
</a>
</g>
</g>
<!-- Node14 -->
<g id="Node000014" class="node">
<title>Node14</title>
<g id="a_Node000014"><a xlink:title=" ">
<polygon fill="#e0e0e0" stroke="#999999" points="577,-19 450,-19 450,0 577,0 577,-19"/>
<text text-anchor="middle" x="513.5" y="-7" font-family="Helvetica,sans-Serif" font-size="10.00">../utils/parameters.hpp</text>
</a>
</g>
</g>
<!-- Node3&#45;&gt;Node14 -->
<g id="edge13_Node000003_Node000014" class="edge">
<title>Node3&#45;&gt;Node14</title>
<g id="a_edge13_Node000003_Node000014"><a xlink:title=" ">
<path fill="none" stroke="#63b8ff" d="M412.78,-54.98C432.17,-46.42 462.31,-33.11 484.57,-23.28"/>
<polygon fill="#63b8ff" stroke="#63b8ff" points="486.14,-26.41 493.87,-19.17 483.31,-20.01 486.14,-26.41"/>
</a>
</g>
</g>
<!-- Node17&#45;&gt;Node3 -->
<g id="edge21_Node000017_Node000003" class="edge">
<title>Node17&#45;&gt;Node3</title>
<g id="a_edge21_Node000017_Node000003"><a xlink:title=" ">
<path fill="none" stroke="#63b8ff" d="M275.15,-109.98C298.35,-101.27 334.62,-87.63 360.9,-77.75"/>
<polygon fill="#63b8ff" stroke="#63b8ff" points="362.3,-80.97 370.43,-74.17 359.84,-74.41 362.3,-80.97"/>
</a>
</g>
</g>
<!-- Node18&#45;&gt;Node3 -->
<g id="edge23_Node000018_Node000003" class="edge">
<title>Node18&#45;&gt;Node3</title>
<g id="a_edge23_Node000018_Node000003"><a xlink:title=" ">
<path fill="none" stroke="#63b8ff" d="M400.18,-109.75C399.13,-102.8 397.63,-92.85 396.31,-84.13"/>
<polygon fill="#63b8ff" stroke="#63b8ff" points="399.75,-83.45 394.8,-74.09 392.83,-84.5 399.75,-83.45"/>
</a>
</g>
</g>
<!-- Node20 -->
<g id="Node000020" class="node">
<title>Node20</title>
<g id="a_Node000020"><a xlink:href="nanoflann_8hpp.html" target="_top" xlink:title=" ">
<polygon fill="white" stroke="#666666" points="1766.5,-74 1680.5,-74 1680.5,-55 1766.5,-55 1766.5,-74"/>
<text text-anchor="middle" x="1723.5" y="-62" font-family="Helvetica,sans-Serif" font-size="10.00">nanoflann.hpp</text>
</a>
</g>
</g>
<!-- Node19&#45;&gt;Node20 -->
<g id="edge25_Node000019_Node000020" class="edge">
<title>Node19&#45;&gt;Node20</title>
<g id="a_edge25_Node000019_Node000020"><a xlink:title=" ">
<path fill="none" stroke="#63b8ff" d="M949.51,-113.18C965.38,-112.11 981.98,-111 997.5,-110 1249.13,-93.73 1549.91,-75.77 1670.08,-68.65"/>
<polygon fill="#63b8ff" stroke="#63b8ff" points="1670.35,-72.14 1680.12,-68.06 1669.93,-65.15 1670.35,-72.14"/>
</a>
</g>
</g>
<!-- Node19&#45;&gt;Node32 -->
<g id="edge40_Node000019_Node000032" class="edge">
<title>Node19&#45;&gt;Node32</title>
<g id="a_edge40_Node000019_Node000032"><a xlink:title=" ">
<path fill="none" stroke="#63b8ff" d="M872.5,-109.75C872.5,-102.8 872.5,-92.85 872.5,-84.13"/>
<polygon fill="#63b8ff" stroke="#63b8ff" points="876,-84.09 872.5,-74.09 869,-84.09 876,-84.09"/>
</a>
</g>
</g>
<!-- Node20&#45;&gt;Node12 -->
<g id="edge39_Node000020_Node000012" class="edge">
<title>Node20&#45;&gt;Node12</title>
<g id="a_edge39_Node000020_Node000012"><a xlink:title=" ">
<path fill="none" stroke="#63b8ff" d="M1680.41,-61.93C1515.59,-55.86 928.62,-33.59 805.34,-18.6"/>
<polygon fill="#63b8ff" stroke="#63b8ff" points="805.55,-15.09 795.17,-17.21 804.61,-22.03 805.55,-15.09"/>
</a>
</g>
</g>
<!-- Node20&#45;&gt;Node15 -->
<g id="edge26_Node000020_Node000015" class="edge">
<title>Node20&#45;&gt;Node15</title>
<g id="a_edge26_Node000020_Node000015"><a xlink:title=" ">
<path fill="none" stroke="#63b8ff" d="M1741.82,-54.98C1760.16,-46.46 1788.61,-33.23 1809.73,-23.41"/>
<polygon fill="#63b8ff" stroke="#63b8ff" points="1811.26,-26.56 1818.85,-19.17 1808.31,-20.21 1811.26,-26.56"/>
</a>
</g>
</g>
<!-- Node20&#45;&gt;Node16 -->
<g id="edge29_Node000020_Node000016" class="edge">
<title>Node20&#45;&gt;Node16</title>
<g id="a_edge29_Node000020_Node000016"><a xlink:title=" ">
<path fill="none" stroke="#63b8ff" d="M1766.55,-56.25C1769.91,-55.79 1773.26,-55.36 1776.5,-55 2017.47,-27.88 2083.67,-55.38 2327,-18.95"/>
<polygon fill="#63b8ff" stroke="#63b8ff" points="2327.86,-22.36 2337.22,-17.4 2326.81,-15.44 2327.86,-22.36"/>
</a>
</g>
</g>
<!-- Node21 -->
<g id="Node000021" class="node">
<title>Node21</title>
<g id="a_Node000021"><a xlink:title=" ">
<polygon fill="#e0e0e0" stroke="#999999" points="1067.5,-19 1025.5,-19 1025.5,0 1067.5,0 1067.5,-19"/>
<text text-anchor="middle" x="1046.5" y="-7" font-family="Helvetica,sans-Serif" font-size="10.00">array</text>
</a>
</g>
</g>
<!-- Node20&#45;&gt;Node21 -->
<g id="edge27_Node000020_Node000021" class="edge">
<title>Node20&#45;&gt;Node21</title>
<g id="a_edge27_Node000020_Node000021"><a xlink:title=" ">
<path fill="none" stroke="#63b8ff" d="M1680.07,-61.69C1557.78,-56.41 1211.31,-40.16 1077.68,-18.77"/>
<polygon fill="#63b8ff" stroke="#63b8ff" points="1078.12,-15.29 1067.68,-17.09 1076.96,-22.2 1078.12,-15.29"/>
</a>
</g>
</g>
<!-- Node22 -->
<g id="Node000022" class="node">
<title>Node22</title>
<g id="a_Node000022"><a xlink:title=" ">
<polygon fill="#e0e0e0" stroke="#999999" points="1937.5,-19 1887.5,-19 1887.5,0 1937.5,0 1937.5,-19"/>
<text text-anchor="middle" x="1912.5" y="-7" font-family="Helvetica,sans-Serif" font-size="10.00">atomic</text>
</a>
</g>
</g>
<!-- Node20&#45;&gt;Node22 -->
<g id="edge28_Node000020_Node000022" class="edge">
<title>Node20&#45;&gt;Node22</title>
<g id="a_edge28_Node000020_Node000022"><a xlink:title=" ">
<path fill="none" stroke="#63b8ff" d="M1753.87,-54.98C1787.58,-45.53 1841.92,-30.29 1877.42,-20.34"/>
<polygon fill="#63b8ff" stroke="#63b8ff" points="1878.67,-23.62 1887.35,-17.55 1876.78,-16.88 1878.67,-23.62"/>
</a>
</g>
</g>
<!-- Node23 -->
<g id="Node000023" class="node">
<title>Node23</title>
<g id="a_Node000023"><a xlink:title=" ">
<polygon fill="#e0e0e0" stroke="#999999" points="2003,-19 1956,-19 1956,0 2003,0 2003,-19"/>
<text text-anchor="middle" x="1979.5" y="-7" font-family="Helvetica,sans-Serif" font-size="10.00">cmath</text>
</a>
</g>
</g>
<!-- Node20&#45;&gt;Node23 -->
<g id="edge30_Node000020_Node000023" class="edge">
<title>Node20&#45;&gt;Node23</title>
<g id="a_edge30_Node000020_Node000023"><a xlink:title=" ">
<path fill="none" stroke="#63b8ff" d="M1766.82,-55.59C1809.75,-47.58 1877.61,-34.5 1945.7,-19.08"/>
<polygon fill="#63b8ff" stroke="#63b8ff" points="1946.77,-22.42 1955.75,-16.79 1945.22,-15.6 1946.77,-22.42"/>
</a>
</g>
</g>
<!-- Node24 -->
<g id="Node000024" class="node">
<title>Node24</title>
<g id="a_Node000024"><a xlink:title=" ">
<polygon fill="#e0e0e0" stroke="#999999" points="1621,-19 1572,-19 1572,0 1621,0 1621,-19"/>
<text text-anchor="middle" x="1596.5" y="-7" font-family="Helvetica,sans-Serif" font-size="10.00">cstdlib</text>
</a>
</g>
</g>
<!-- Node20&#45;&gt;Node24 -->
<g id="edge31_Node000020_Node000024" class="edge">
<title>Node20&#45;&gt;Node24</title>
<g id="a_edge31_Node000020_Node000024"><a xlink:title=" ">
<path fill="none" stroke="#63b8ff" d="M1703.1,-54.98C1682.48,-46.38 1650.39,-32.99 1626.81,-23.15"/>
<polygon fill="#63b8ff" stroke="#63b8ff" points="1627.85,-19.79 1617.28,-19.17 1625.16,-26.25 1627.85,-19.79"/>
</a>
</g>
</g>
<!-- Node25 -->
<g id="Node000025" class="node">
<title>Node25</title>
<g id="a_Node000025"><a xlink:title=" ">
<polygon fill="#e0e0e0" stroke="#999999" points="1704,-19 1639,-19 1639,0 1704,0 1704,-19"/>
<text text-anchor="middle" x="1671.5" y="-7" font-family="Helvetica,sans-Serif" font-size="10.00">functional</text>
</a>
</g>
</g>
<!-- Node20&#45;&gt;Node25 -->
<g id="edge32_Node000020_Node000025" class="edge">
<title>Node20&#45;&gt;Node25</title>
<g id="a_edge32_Node000020_Node000025"><a xlink:title=" ">
<path fill="none" stroke="#63b8ff" d="M1714.91,-54.75C1707.34,-47.03 1696.12,-35.6 1686.99,-26.28"/>
<polygon fill="#63b8ff" stroke="#63b8ff" points="1689.43,-23.78 1679.93,-19.09 1684.43,-28.68 1689.43,-23.78"/>
</a>
</g>
</g>
<!-- Node26 -->
<g id="Node000026" class="node">
<title>Node26</title>
<g id="a_Node000026"><a xlink:title=" ">
<polygon fill="#e0e0e0" stroke="#999999" points="2067.5,-19 2021.5,-19 2021.5,0 2067.5,0 2067.5,-19"/>
<text text-anchor="middle" x="2044.5" y="-7" font-family="Helvetica,sans-Serif" font-size="10.00">future</text>
</a>
</g>
</g>
<!-- Node20&#45;&gt;Node26 -->
<g id="edge33_Node000020_Node000026" class="edge">
<title>Node20&#45;&gt;Node26</title>
<g id="a_edge33_Node000020_Node000026"><a xlink:title=" ">
<path fill="none" stroke="#63b8ff" d="M1766.59,-56.56C1769.95,-56.03 1773.28,-55.5 1776.5,-55 1878.15,-39.1 1906.91,-40.54 2011.48,-19.01"/>
<polygon fill="#63b8ff" stroke="#63b8ff" points="2012.42,-22.39 2021.5,-16.93 2011,-15.54 2012.42,-22.39"/>
</a>
</g>
</g>
<!-- Node27 -->
<g id="Node000027" class="node">
<title>Node27</title>
<g id="a_Node000027"><a xlink:title=" ">
<polygon fill="#e0e0e0" stroke="#999999" points="2139.5,-19 2085.5,-19 2085.5,0 2139.5,0 2139.5,-19"/>
<text text-anchor="middle" x="2112.5" y="-7" font-family="Helvetica,sans-Serif" font-size="10.00">istream</text>
</a>
</g>
</g>
<!-- Node20&#45;&gt;Node27 -->
<g id="edge34_Node000020_Node000027" class="edge">
<title>Node20&#45;&gt;Node27</title>
<g id="a_edge34_Node000020_Node000027"><a xlink:title=" ">
<path fill="none" stroke="#63b8ff" d="M1766.58,-56.45C1769.93,-55.94 1773.27,-55.45 1776.5,-55 1906.24,-36.82 1942.52,-42.18 2075.29,-19.03"/>
<polygon fill="#63b8ff" stroke="#63b8ff" points="2076.2,-22.42 2085.44,-17.23 2074.98,-15.53 2076.2,-22.42"/>
</a>
</g>
</g>
<!-- Node28 -->
<g id="Node000028" class="node">
<title>Node28</title>
<g id="a_Node000028"><a xlink:title=" ">
<polygon fill="#e0e0e0" stroke="#999999" points="1335.5,-19 1291.5,-19 1291.5,0 1335.5,0 1335.5,-19"/>
<text text-anchor="middle" x="1313.5" y="-7" font-family="Helvetica,sans-Serif" font-size="10.00">limits</text>
</a>
</g>
</g>
<!-- Node20&#45;&gt;Node28 -->
<g id="edge35_Node000020_Node000028" class="edge">
<title>Node20&#45;&gt;Node28</title>
<g id="a_edge35_Node000020_Node000028"><a xlink:title=" ">
<path fill="none" stroke="#63b8ff" d="M1680.26,-60.56C1611.34,-55.4 1472.26,-43.1 1345.63,-18.95"/>
<polygon fill="#63b8ff" stroke="#63b8ff" points="1346.24,-15.5 1335.76,-17.03 1344.91,-22.37 1346.24,-15.5"/>
</a>
</g>
</g>
<!-- Node29 -->
<g id="Node000029" class="node">
<title>Node29</title>
<g id="a_Node000029"><a xlink:title=" ">
<polygon fill="#e0e0e0" stroke="#999999" points="2215,-19 2158,-19 2158,0 2215,0 2215,-19"/>
<text text-anchor="middle" x="2186.5" y="-7" font-family="Helvetica,sans-Serif" font-size="10.00">ostream</text>
</a>
</g>
</g>
<!-- Node20&#45;&gt;Node29 -->
<g id="edge36_Node000020_Node000029" class="edge">
<title>Node20&#45;&gt;Node29</title>
<g id="a_edge36_Node000020_Node000029"><a xlink:title=" ">
<path fill="none" stroke="#63b8ff" d="M1766.57,-56.36C1769.92,-55.88 1773.26,-55.42 1776.5,-55 1938.03,-34.25 1982.74,-44.75 2147.92,-18.88"/>
<polygon fill="#63b8ff" stroke="#63b8ff" points="2148.61,-22.31 2157.94,-17.29 2147.51,-15.4 2148.61,-22.31"/>
</a>
</g>
</g>
<!-- Node30 -->
<g id="Node000030" class="node">
<title>Node30</title>
<g id="a_Node000030"><a xlink:title=" ">
<polygon fill="#e0e0e0" stroke="#999999" points="1787,-19 1722,-19 1722,0 1787,0 1787,-19"/>
<text text-anchor="middle" x="1754.5" y="-7" font-family="Helvetica,sans-Serif" font-size="10.00">stdexcept</text>
</a>
</g>
</g>
<!-- Node20&#45;&gt;Node30 -->
<g id="edge37_Node000020_Node000030" class="edge">
<title>Node20&#45;&gt;Node30</title>
<g id="a_edge37_Node000020_Node000030"><a xlink:title=" ">
<path fill="none" stroke="#63b8ff" d="M1728.62,-54.75C1732.86,-47.49 1739.03,-36.95 1744.28,-27.98"/>
<polygon fill="#63b8ff" stroke="#63b8ff" points="1747.45,-29.49 1749.48,-19.09 1741.41,-25.95 1747.45,-29.49"/>
</a>
</g>
</g>
<!-- Node31 -->
<g id="Node000031" class="node">
<title>Node31</title>
<g id="a_Node000031"><a xlink:title=" ">
<polygon fill="#e0e0e0" stroke="#999999" points="2319.5,-19 2233.5,-19 2233.5,0 2319.5,0 2319.5,-19"/>
<text text-anchor="middle" x="2276.5" y="-7" font-family="Helvetica,sans-Serif" font-size="10.00">unordered_set</text>
</a>
</g>
</g>
<!-- Node20&#45;&gt;Node31 -->
<g id="edge38_Node000020_Node000031" class="edge">
<title>Node20&#45;&gt;Node31</title>
<g id="a_edge38_Node000020_Node000031"><a xlink:title=" ">
<path fill="none" stroke="#63b8ff" d="M1766.56,-56.3C1769.92,-55.83 1773.26,-55.39 1776.5,-55 1971.53,-31.56 2024.46,-42.74 2223.22,-19.05"/>
<polygon fill="#63b8ff" stroke="#63b8ff" points="2223.9,-22.5 2233.41,-17.82 2223.06,-15.55 2223.9,-22.5"/>
</a>
</g>
</g>
<!-- Node32&#45;&gt;Node5 -->
<g id="edge42_Node000032_Node000005" class="edge">
<title>Node32&#45;&gt;Node5</title>
<g id="a_edge42_Node000032_Node000005"><a xlink:title=" ">
<path fill="none" stroke="#63b8ff" d="M830.97,-63.46C723.93,-62.81 429.9,-57.5 176.77,-18.89"/>
<polygon fill="#63b8ff" stroke="#63b8ff" points="177.06,-15.4 166.65,-17.33 175.99,-22.31 177.06,-15.4"/>
</a>
</g>
</g>
<!-- Node32&#45;&gt;Node10 -->
<g id="edge44_Node000032_Node000010" class="edge">
<title>Node32&#45;&gt;Node10</title>
<g id="a_edge44_Node000032_Node000010"><a xlink:title=" ">
<path fill="none" stroke="#63b8ff" d="M830.62,-54.95C789.91,-46.59 726.07,-33.33 661.69,-19.23"/>
<polygon fill="#63b8ff" stroke="#63b8ff" points="662.29,-15.78 651.77,-17.05 660.79,-22.62 662.29,-15.78"/>
</a>
</g>
</g>
<!-- Node32&#45;&gt;Node21 -->
<g id="edge41_Node000032_Node000021" class="edge">
<title>Node32&#45;&gt;Node21</title>
<g id="a_edge41_Node000032_Node000021"><a xlink:title=" ">
<path fill="none" stroke="#63b8ff" d="M900.46,-54.98C931.92,-45.4 982.9,-29.87 1015.55,-19.93"/>
<polygon fill="#63b8ff" stroke="#63b8ff" points="1016.91,-23.17 1025.45,-16.91 1014.87,-16.48 1016.91,-23.17"/>
</a>
</g>
</g>
<!-- Node32&#45;&gt;Node28 -->
<g id="edge43_Node000032_Node000028" class="edge">
<title>Node32&#45;&gt;Node28</title>
<g id="a_edge43_Node000032_Node000028"><a xlink:title=" ">
<path fill="none" stroke="#63b8ff" d="M914.14,-61.18C986.85,-56.66 1141.73,-44.91 1281.23,-18.95"/>
<polygon fill="#63b8ff" stroke="#63b8ff" points="1282.07,-22.35 1291.25,-17.06 1280.77,-15.48 1282.07,-22.35"/>
</a>
</g>
</g>
<!-- Node33 -->
<g id="Node000033" class="node">
<title>Node33</title>
<g id="a_Node000033"><a xlink:title=" ">
<polygon fill="#e0e0e0" stroke="#999999" points="945.5,-19 889.5,-19 889.5,0 945.5,0 945.5,-19"/>
<text text-anchor="middle" x="917.5" y="-7" font-family="Helvetica,sans-Serif" font-size="10.00">iomanip</text>
</a>
</g>
</g>
<!-- Node32&#45;&gt;Node33 -->
<g id="edge45_Node000032_Node000033" class="edge">
<title>Node32&#45;&gt;Node33</title>
<g id="a_edge45_Node000032_Node000033"><a xlink:title=" ">
<path fill="none" stroke="#63b8ff" d="M879.93,-54.75C886.35,-47.18 895.81,-36.05 903.62,-26.84"/>
<polygon fill="#63b8ff" stroke="#63b8ff" points="906.4,-28.98 910.21,-19.09 901.07,-24.45 906.4,-28.98"/>
</a>
</g>
</g>
<!-- Node34&#45;&gt;Node3 -->
<g id="edge58_Node000034_Node000003" class="edge">
<title>Node34&#45;&gt;Node3</title>
<g id="a_edge58_Node000034_Node000003"><a xlink:title=" ">
<path fill="none" stroke="#63b8ff" d="M627.67,-109.98C579.01,-100.74 501.24,-85.97 448.81,-76.01"/>
<polygon fill="#63b8ff" stroke="#63b8ff" points="449.16,-72.51 438.68,-74.08 447.85,-79.39 449.16,-72.51"/>
</a>
</g>
</g>
<!-- Node35 -->
<g id="Node000035" class="node">
<title>Node35</title>
<g id="a_Node000035"><a xlink:href="robin__hood_8h.html" target="_top" xlink:title=" ">
<polygon fill="white" stroke="#666666" points="1418.5,-74 1338.5,-74 1338.5,-55 1418.5,-55 1418.5,-74"/>
<text text-anchor="middle" x="1378.5" y="-62" font-family="Helvetica,sans-Serif" font-size="10.00">robin_hood.h</text>
</a>
</g>
</g>
<!-- Node34&#45;&gt;Node35 -->
<g id="edge47_Node000034_Node000035" class="edge">
<title>Node34&#45;&gt;Node35</title>
<g id="a_edge47_Node000034_Node000035"><a xlink:title=" ">
<path fill="none" stroke="#63b8ff" d="M739.11,-113.47C754.66,-112.32 771.16,-111.1 786.5,-110 1017.57,-93.39 1075.84,-95.59 1306.5,-74 1313.4,-73.35 1320.67,-72.59 1327.83,-71.79"/>
<polygon fill="#63b8ff" stroke="#63b8ff" points="1328.63,-75.22 1338.17,-70.61 1327.84,-68.27 1328.63,-75.22"/>
</a>
</g>
</g>
<!-- Node35&#45;&gt;Node7 -->
<g id="edge53_Node000035_Node000007" class="edge">
<title>Node35&#45;&gt;Node7</title>
<g id="a_edge53_Node000035_Node000007"><a xlink:title=" ">
<path fill="none" stroke="#63b8ff" d="M1338.16,-58.5C1327.85,-57.29 1316.77,-56.04 1306.5,-55 1120.69,-36.19 1070.03,-47.41 881.83,-19"/>
<polygon fill="#63b8ff" stroke="#63b8ff" points="882.3,-15.54 871.88,-17.49 881.24,-22.46 882.3,-15.54"/>
</a>
</g>
</g>
<!-- Node35&#45;&gt;Node11 -->
<g id="edge55_Node000035_Node000011" class="edge">
<title>Node35&#45;&gt;Node11</title>
<g id="a_edge55_Node000035_Node000011"><a xlink:title=" ">
<path fill="none" stroke="#63b8ff" d="M1338.39,-58.73C1255.07,-48.8 1067.43,-26.32 1017.76,-18.71"/>
<polygon fill="#63b8ff" stroke="#63b8ff" points="1018.2,-15.24 1007.76,-17.02 1017.03,-22.14 1018.2,-15.24"/>
</a>
</g>
</g>
<!-- Node35&#45;&gt;Node15 -->
<g id="edge48_Node000035_Node000015" class="edge">
<title>Node35&#45;&gt;Node15</title>
<g id="a_edge48_Node000035_Node000015"><a xlink:title=" ">
<path fill="none" stroke="#63b8ff" d="M1418.73,-60.54C1491.77,-54.88 1651.23,-41.21 1795.41,-19.03"/>
<polygon fill="#63b8ff" stroke="#63b8ff" points="1795.98,-22.48 1805.33,-17.48 1794.91,-15.56 1795.98,-22.48"/>
</a>
</g>
</g>
<!-- Node35&#45;&gt;Node24 -->
<g id="edge49_Node000035_Node000024" class="edge">
<title>Node35&#45;&gt;Node24</title>
<g id="a_edge49_Node000035_Node000024"><a xlink:title=" ">
<path fill="none" stroke="#63b8ff" d="M1414.7,-54.97C1449.98,-46.62 1505.41,-33.4 1561.84,-19.39"/>
<polygon fill="#63b8ff" stroke="#63b8ff" points="1562.79,-22.76 1571.64,-16.95 1561.1,-15.97 1562.79,-22.76"/>
</a>
</g>
</g>
<!-- Node35&#45;&gt;Node25 -->
<g id="edge51_Node000035_Node000025" class="edge">
<title>Node35&#45;&gt;Node25</title>
<g id="a_edge51_Node000035_Node000025"><a xlink:title=" ">
<path fill="none" stroke="#63b8ff" d="M1418.72,-56.78C1466.47,-48.71 1548.79,-34.54 1628.62,-19.32"/>
<polygon fill="#63b8ff" stroke="#63b8ff" points="1629.68,-22.68 1638.84,-17.36 1628.36,-15.8 1629.68,-22.68"/>
</a>
</g>
</g>
<!-- Node35&#45;&gt;Node28 -->
<g id="edge52_Node000035_Node000028" class="edge">
<title>Node35&#45;&gt;Node28</title>
<g id="a_edge52_Node000035_Node000028"><a xlink:title=" ">
<path fill="none" stroke="#63b8ff" d="M1368.06,-54.98C1358.35,-47.07 1343.68,-35.11 1332,-25.58"/>
<polygon fill="#63b8ff" stroke="#63b8ff" points="1334.1,-22.78 1324.13,-19.17 1329.67,-28.2 1334.1,-22.78"/>
</a>
</g>
</g>
<!-- Node35&#45;&gt;Node30 -->
<g id="edge54_Node000035_Node000030" class="edge">
<title>Node35&#45;&gt;Node30</title>
<g id="a_edge54_Node000035_Node000030"><a xlink:title=" ">
<path fill="none" stroke="#63b8ff" d="M1418.61,-59.12C1479.76,-52.24 1600.18,-37.88 1711.79,-19.19"/>
<polygon fill="#63b8ff" stroke="#63b8ff" points="1712.59,-22.61 1721.87,-17.49 1711.42,-15.7 1712.59,-22.61"/>
</a>
</g>
</g>
<!-- Node36 -->
<g id="Node000036" class="node">
<title>Node36</title>
<g id="a_Node000036"><a xlink:title=" ">
<polygon fill="#e0e0e0" stroke="#999999" points="1403.5,-19 1353.5,-19 1353.5,0 1403.5,0 1403.5,-19"/>
<text text-anchor="middle" x="1378.5" y="-7" font-family="Helvetica,sans-Serif" font-size="10.00">cstring</text>
</a>
</g>
</g>
<!-- Node35&#45;&gt;Node36 -->
<g id="edge50_Node000035_Node000036" class="edge">
<title>Node35&#45;&gt;Node36</title>
<g id="a_edge50_Node000035_Node000036"><a xlink:title=" ">
<path fill="none" stroke="#63b8ff" d="M1378.5,-54.75C1378.5,-47.8 1378.5,-37.85 1378.5,-29.13"/>
<polygon fill="#63b8ff" stroke="#63b8ff" points="1382,-29.09 1378.5,-19.09 1375,-29.09 1382,-29.09"/>
</a>
</g>
</g>
<!-- Node37 -->
<g id="Node000037" class="node">
<title>Node37</title>
<g id="a_Node000037"><a xlink:title=" ">
<polygon fill="#e0e0e0" stroke="#999999" points="1491,-19 1422,-19 1422,0 1491,0 1491,-19"/>
<text text-anchor="middle" x="1456.5" y="-7" font-family="Helvetica,sans-Serif" font-size="10.00">type_traits</text>
</a>
</g>
</g>
<!-- Node35&#45;&gt;Node37 -->
<g id="edge56_Node000035_Node000037" class="edge">
<title>Node35&#45;&gt;Node37</title>
<g id="a_edge56_Node000035_Node000037"><a xlink:title=" ">
<path fill="none" stroke="#63b8ff" d="M1391.03,-54.98C1402.9,-46.92 1420.96,-34.65 1435.11,-25.03"/>
<polygon fill="#63b8ff" stroke="#63b8ff" points="1437.44,-27.69 1443.74,-19.17 1433.5,-21.9 1437.44,-27.69"/>
</a>
</g>
</g>
<!-- Node38 -->
<g id="Node000038" class="node">
<title>Node38</title>
<g id="a_Node000038"><a xlink:title=" ">
<polygon fill="#e0e0e0" stroke="#999999" points="1554,-19 1509,-19 1509,0 1554,0 1554,-19"/>
<text text-anchor="middle" x="1531.5" y="-7" font-family="Helvetica,sans-Serif" font-size="10.00">utility</text>
</a>
</g>
</g>
<!-- Node35&#45;&gt;Node38 -->
<g id="edge57_Node000035_Node000038" class="edge">
<title>Node35&#45;&gt;Node38</title>
<g id="a_edge57_Node000035_Node000038"><a xlink:title=" ">
<path fill="none" stroke="#63b8ff" d="M1403.08,-54.98C1429.23,-45.93 1470.69,-31.56 1499.4,-21.62"/>
<polygon fill="#63b8ff" stroke="#63b8ff" points="1500.67,-24.88 1508.97,-18.3 1498.38,-18.27 1500.67,-24.88"/>
</a>
</g>
</g>
<!-- Node39&#45;&gt;Node5 -->
<g id="edge60_Node000039_Node000005" class="edge">
<title>Node39&#45;&gt;Node5</title>
<g id="a_edge60_Node000039_Node000005"><a xlink:title=" ">
<path fill="none" stroke="#63b8ff" d="M482.93,-111.09C397.72,-99.04 238.28,-76.29 232.5,-74 203.88,-62.65 175.52,-40.72 158.26,-25.84"/>
<polygon fill="#63b8ff" stroke="#63b8ff" points="160.53,-23.18 150.72,-19.18 155.9,-28.43 160.53,-23.18"/>
</a>
</g>
</g>
<!-- Node39&#45;&gt;Node12 -->
<g id="edge61_Node000039_Node000012" class="edge">
<title>Node39&#45;&gt;Node12</title>
<g id="a_edge61_Node000039_Node000012"><a xlink:title=" ">
<path fill="none" stroke="#63b8ff" d="M554.41,-109.84C595.86,-90.88 694.85,-45.58 743.52,-23.31"/>
<polygon fill="#63b8ff" stroke="#63b8ff" points="745.19,-26.39 752.82,-19.05 742.27,-20.03 745.19,-26.39"/>
</a>
</g>
</g>
<!-- Node39&#45;&gt;Node32 -->
<g id="edge63_Node000039_Node000032" class="edge">
<title>Node39&#45;&gt;Node32</title>
<g id="a_edge63_Node000039_Node000032"><a xlink:title=" ">
<path fill="none" stroke="#63b8ff" d="M588.16,-110.22C651.64,-100.24 757.63,-83.57 820.72,-73.64"/>
<polygon fill="#63b8ff" stroke="#63b8ff" points="821.5,-77.06 830.84,-72.05 820.42,-70.15 821.5,-77.06"/>
</a>
</g>
</g>
<!-- Node39&#45;&gt;Node35 -->
<g id="edge62_Node000039_Node000035" class="edge">
<title>Node39&#45;&gt;Node35</title>
<g id="a_edge62_Node000039_Node000035"><a xlink:title=" ">
<path fill="none" stroke="#63b8ff" d="M588.23,-110.96C591.36,-110.61 594.47,-110.28 597.5,-110 911.64,-80.55 992.1,-100.51 1306.5,-74 1313.41,-73.42 1320.68,-72.69 1327.84,-71.91"/>
<polygon fill="#63b8ff" stroke="#63b8ff" points="1328.64,-75.34 1338.18,-70.74 1327.85,-68.39 1328.64,-75.34"/>
</a>
</g>
</g>
<!-- Node40&#45;&gt;Node5 -->
<g id="edge73_Node000040_Node000005" class="edge">
<title>Node40&#45;&gt;Node5</title>
<g id="a_edge73_Node000040_Node000005"><a xlink:title=" ">
<path fill="none" stroke="#63b8ff" d="M1005.91,-113.26C990.31,-112.14 973.84,-110.99 958.5,-110 676.41,-91.76 600.75,-129.1 323.5,-74 267.49,-62.87 205.27,-38.36 170.02,-23.26"/>
<polygon fill="#63b8ff" stroke="#63b8ff" points="170.97,-19.85 160.4,-19.08 168.18,-26.27 170.97,-19.85"/>
</a>
</g>
</g>
<!-- Node40&#45;&gt;Node12 -->
<g id="edge75_Node000040_Node000012" class="edge">
<title>Node40&#45;&gt;Node12</title>
<g id="a_edge75_Node000040_Node000012"><a xlink:title=" ">
<path fill="none" stroke="#63b8ff" d="M1067.06,-109.95C1052.83,-96.08 1022.57,-68.83 991.5,-55 917.04,-21.86 889.16,-36.38 805.21,-18.96"/>
<polygon fill="#63b8ff" stroke="#63b8ff" points="805.77,-15.5 795.25,-16.8 804.28,-22.34 805.77,-15.5"/>
</a>
</g>
</g>
<!-- Node40&#45;&gt;Node32 -->
<g id="edge65_Node000040_Node000032" class="edge">
<title>Node40&#45;&gt;Node32</title>
<g id="a_edge65_Node000040_Node000032"><a xlink:title=" ">
<path fill="none" stroke="#63b8ff" d="M1042.88,-109.98C1008.21,-100.93 953.24,-86.58 915.15,-76.64"/>
<polygon fill="#63b8ff" stroke="#63b8ff" points="915.93,-73.22 905.37,-74.08 914.16,-79.99 915.93,-73.22"/>
</a>
</g>
</g>
<!-- Node40&#45;&gt;Node35 -->
<g id="edge76_Node000040_Node000035" class="edge">
<title>Node40&#45;&gt;Node35</title>
<g id="a_edge76_Node000040_Node000035"><a xlink:title=" ">
<path fill="none" stroke="#63b8ff" d="M1124.18,-109.98C1180.09,-100.21 1271.37,-84.24 1328.02,-74.33"/>
<polygon fill="#63b8ff" stroke="#63b8ff" points="1328.93,-77.72 1338.18,-72.55 1327.72,-70.83 1328.93,-77.72"/>
</a>
</g>
</g>
<!-- Node40&#45;&gt;Node41 -->
<g id="edge66_Node000040_Node000041" class="edge">
<title>Node40&#45;&gt;Node41</title>
<g id="a_edge66_Node000040_Node000041"><a xlink:title=" ">
<path fill="none" stroke="#63b8ff" d="M1103.46,-109.98C1132.8,-101.05 1179.1,-86.94 1211.69,-77.02"/>
<polygon fill="#63b8ff" stroke="#63b8ff" points="1212.78,-80.34 1221.32,-74.08 1210.74,-73.65 1212.78,-80.34"/>
</a>
</g>
</g>
<!-- Node45 -->
<g id="Node000045" class="node">
<title>Node45</title>
<g id="a_Node000045"><a xlink:title=" ">
<polygon fill="#e0e0e0" stroke="#999999" points="1840,-74 1785,-74 1785,-55 1840,-55 1840,-74"/>
<text text-anchor="middle" x="1812.5" y="-62" font-family="Helvetica,sans-Serif" font-size="10.00">fstream</text>
</a>
</g>
</g>
<!-- Node40&#45;&gt;Node45 -->
<g id="edge74_Node000040_Node000045" class="edge">
<title>Node40&#45;&gt;Node45</title>
<g id="a_edge74_Node000040_Node000045"><a xlink:title=" ">
<path fill="none" stroke="#63b8ff" d="M1145.44,-117.8C1270.07,-115.74 1538.8,-107.59 1774.57,-73.86"/>
<polygon fill="#63b8ff" stroke="#63b8ff" points="1775.32,-77.29 1784.71,-72.39 1774.31,-70.36 1775.32,-77.29"/>
</a>
</g>
</g>
<!-- Node41&#45;&gt;Node6 -->
<g id="edge70_Node000041_Node000006" class="edge">
<title>Node41&#45;&gt;Node6</title>
<g id="a_edge70_Node000041_Node000006"><a xlink:title=" ">
<path fill="none" stroke="#63b8ff" d="M1201.46,-61.27C1110.76,-56.63 908.28,-44.2 739.5,-19 739.4,-18.98 739.3,-18.97 739.2,-18.95"/>
<polygon fill="#63b8ff" stroke="#63b8ff" points="740.02,-15.54 729.57,-17.3 738.83,-22.44 740.02,-15.54"/>
</a>
</g>
</g>
<!-- Node41&#45;&gt;Node11 -->
<g id="edge71_Node000041_Node000011" class="edge">
<title>Node41&#45;&gt;Node11</title>
<g id="a_edge71_Node000041_Node000011"><a xlink:title=" ">
<path fill="none" stroke="#63b8ff" d="M1201.07,-55.4C1156,-47.6 1086.75,-34.97 1017.94,-19.19"/>
<polygon fill="#63b8ff" stroke="#63b8ff" points="1018.33,-15.69 1007.8,-16.84 1016.75,-22.51 1018.33,-15.69"/>
</a>
</g>
</g>
<!-- Node41&#45;&gt;Node33 -->
<g id="edge69_Node000041_Node000033" class="edge">
<title>Node41&#45;&gt;Node33</title>
<g id="a_edge69_Node000041_Node000033"><a xlink:title=" ">
<path fill="none" stroke="#63b8ff" d="M1201.28,-57.37C1144.77,-49.94 1048.1,-36.43 955.8,-19.13"/>
<polygon fill="#63b8ff" stroke="#63b8ff" points="956.21,-15.64 945.74,-17.22 954.91,-22.52 956.21,-15.64"/>
</a>
</g>
</g>
<!-- Node42 -->
<g id="Node000042" class="node">
<title>Node42</title>
<g id="a_Node000042"><a xlink:title=" ">
<polygon fill="#e0e0e0" stroke="#999999" points="1135.5,-19 1085.5,-19 1085.5,0 1135.5,0 1135.5,-19"/>
<text text-anchor="middle" x="1110.5" y="-7" font-family="Helvetica,sans-Serif" font-size="10.00">chrono</text>
</a>
</g>
</g>
<!-- Node41&#45;&gt;Node42 -->
<g id="edge67_Node000041_Node000042" class="edge">
<title>Node41&#45;&gt;Node42</title>
<g id="a_edge67_Node000041_Node000042"><a xlink:title=" ">
<path fill="none" stroke="#63b8ff" d="M1227.17,-54.98C1204.3,-46.27 1168.54,-32.63 1142.64,-22.75"/>
<polygon fill="#63b8ff" stroke="#63b8ff" points="1143.83,-19.46 1133.24,-19.17 1141.34,-26 1143.83,-19.46"/>
</a>
</g>
</g>
<!-- Node43 -->
<g id="Node000043" class="node">
<title>Node43</title>
<g id="a_Node000043"><a xlink:title=" ">
<polygon fill="#e0e0e0" stroke="#999999" points="1207,-19 1154,-19 1154,0 1207,0 1207,-19"/>
<text text-anchor="middle" x="1180.5" y="-7" font-family="Helvetica,sans-Serif" font-size="10.00">cstdarg</text>
</a>
</g>
</g>
<!-- Node41&#45;&gt;Node43 -->
<g id="edge68_Node000041_Node000043" class="edge">
<title>Node41&#45;&gt;Node43</title>
<g id="a_edge68_Node000041_Node000043"><a xlink:title=" ">
<path fill="none" stroke="#63b8ff" d="M1238.41,-54.98C1228.01,-47 1212.24,-34.88 1199.78,-25.31"/>
<polygon fill="#63b8ff" stroke="#63b8ff" points="1201.85,-22.49 1191.79,-19.17 1197.59,-28.04 1201.85,-22.49"/>
</a>
</g>
</g>
<!-- Node44 -->
<g id="Node000044" class="node">
<title>Node44</title>
<g id="a_Node000044"><a xlink:title=" ">
<polygon fill="#e0e0e0" stroke="#999999" points="1273.5,-19 1225.5,-19 1225.5,0 1273.5,0 1273.5,-19"/>
<text text-anchor="middle" x="1249.5" y="-7" font-family="Helvetica,sans-Serif" font-size="10.00">mutex</text>
</a>
</g>
</g>
<!-- Node41&#45;&gt;Node44 -->
<g id="edge72_Node000041_Node000044" class="edge">
<title>Node41&#45;&gt;Node44</title>
<g id="a_edge72_Node000041_Node000044"><a xlink:title=" ">
<path fill="none" stroke="#63b8ff" d="M1249.5,-54.75C1249.5,-47.8 1249.5,-37.85 1249.5,-29.13"/>
<polygon fill="#63b8ff" stroke="#63b8ff" points="1253,-29.09 1249.5,-19.09 1246,-29.09 1253,-29.09"/>
</a>
</g>
</g>
</g>
</svg>
