<?xml version="1.0" encoding="UTF-8" standalone="no"?>
<!DOCTYPE svg PUBLIC "-//W3C//DTD SVG 1.1//EN"
 "http://www.w3.org/Graphics/SVG/1.1/DTD/svg11.dtd">
<!-- Generated by graphviz version 2.43.0 (0)
 -->
<!-- Title: src/libuvgvpccenc/patchGeneration/patchSegmentation.hpp Pages: 1 -->
<svg width="402pt" height="104pt"
 viewBox="0.00 0.00 402.00 104.00" xmlns="http://www.w3.org/2000/svg" xmlns:xlink="http://www.w3.org/1999/xlink">
<g id="graph0" class="graph" transform="scale(1 1) rotate(0) translate(4 100)">
<title>src/libuvgvpccenc/patchGeneration/patchSegmentation.hpp</title>
<!-- Node1 -->
<g id="Node000001" class="node">
<title>Node1</title>
<g id="a_Node000001"><a xlink:title=" ">
<polygon fill="#999999" stroke="#666666" points="291,-96 103,-96 103,-66 291,-66 291,-96"/>
<text text-anchor="start" x="111" y="-84" font-family="Helvetica,sans-Serif" font-size="10.00">src/libuvgvpccenc/patchGeneration</text>
<text text-anchor="middle" x="197" y="-73" font-family="Helvetica,sans-Serif" font-size="10.00">/patchSegmentation.hpp</text>
</a>
</g>
</g>
<!-- Node2 -->
<g id="Node000002" class="node">
<title>Node2</title>
<g id="a_Node000002"><a xlink:href="patchGeneration_8cpp.html" target="_top" xlink:title=" ">
<polygon fill="white" stroke="#666666" points="188,-30 0,-30 0,0 188,0 188,-30"/>
<text text-anchor="start" x="8" y="-18" font-family="Helvetica,sans-Serif" font-size="10.00">src/libuvgvpccenc/patchGeneration</text>
<text text-anchor="middle" x="94" y="-7" font-family="Helvetica,sans-Serif" font-size="10.00">/patchGeneration.cpp</text>
</a>
</g>
</g>
<!-- Node1&#45;&gt;Node2 -->
<g id="edge1_Node000001_Node000002" class="edge">
<title>Node1&#45;&gt;Node2</title>
<g id="a_edge1_Node000001_Node000002"><a xlink:title=" ">
<path fill="none" stroke="#63b8ff" d="M165.49,-60.42C149.68,-50.6 130.9,-38.93 116.55,-30.01"/>
<polygon fill="#63b8ff" stroke="#63b8ff" points="164.06,-63.65 174.4,-65.95 167.75,-57.7 164.06,-63.65"/>
</a>
</g>
</g>
<!-- Node3 -->
<g id="Node000003" class="node">
<title>Node3</title>
<g id="a_Node000003"><a xlink:href="patchSegmentation_8cpp.html" target="_top" xlink:title=" ">
<polygon fill="white" stroke="#666666" points="394,-30 206,-30 206,0 394,0 394,-30"/>
<text text-anchor="start" x="214" y="-18" font-family="Helvetica,sans-Serif" font-size="10.00">src/libuvgvpccenc/patchGeneration</text>
<text text-anchor="middle" x="300" y="-7" font-family="Helvetica,sans-Serif" font-size="10.00">/patchSegmentation.cpp</text>
</a>
</g>
</g>
<!-- Node1&#45;&gt;Node3 -->
<g id="edge2_Node000001_Node000003" class="edge">
<title>Node1&#45;&gt;Node3</title>
<g id="a_edge2_Node000001_Node000003"><a xlink:title=" ">
<path fill="none" stroke="#63b8ff" d="M228.51,-60.42C244.32,-50.6 263.1,-38.93 277.45,-30.01"/>
<polygon fill="#63b8ff" stroke="#63b8ff" points="226.25,-57.7 219.6,-65.95 229.94,-63.65 226.25,-57.7"/>
</a>
</g>
</g>
</g>
</svg>
