<?xml version="1.0" encoding="UTF-8" standalone="no"?>
<!DOCTYPE svg PUBLIC "-//W3C//DTD SVG 1.1//EN"
 "http://www.w3.org/Graphics/SVG/1.1/DTD/svg11.dtd">
<!-- Generated by graphviz version 2.43.0 (0)
 -->
<!-- Title: src/lib/patchGeneration/patchGeneration.cpp Pages: 1 -->
<svg width="2402pt" height="214pt"
 viewBox="0.00 0.00 2401.50 214.00" xmlns="http://www.w3.org/2000/svg" xmlns:xlink="http://www.w3.org/1999/xlink">
<g id="graph0" class="graph" transform="scale(1 1) rotate(0) translate(4 210)">
<title>src/lib/patchGeneration/patchGeneration.cpp</title>
<!-- Node1 -->
<g id="Node000001" class="node">
<title>Node1</title>
<g id="a_Node000001"><a xlink:title=" ">
<polygon fill="#999999" stroke="#666666" points="877.5,-206 747.5,-206 747.5,-176 877.5,-176 877.5,-206"/>
<text text-anchor="start" x="755.5" y="-194" font-family="Helvetica,sans-Serif" font-size="10.00">src/lib/patchGeneration</text>
<text text-anchor="middle" x="812.5" y="-183" font-family="Helvetica,sans-Serif" font-size="10.00">/patchGeneration.cpp</text>
</a>
</g>
</g>
<!-- Node2 -->
<g id="Node000002" class="node">
<title>Node2</title>
<g id="a_Node000002"><a xlink:href="patchGeneration_8hpp.html" target="_top" xlink:title=" ">
<polygon fill="white" stroke="#666666" points="160,-140 41,-140 41,-121 160,-121 160,-140"/>
<text text-anchor="middle" x="100.5" y="-128" font-family="Helvetica,sans-Serif" font-size="10.00">patchGeneration.hpp</text>
</a>
</g>
</g>
<!-- Node1&#45;&gt;Node2 -->
<g id="edge1_Node000001_Node000002" class="edge">
<title>Node1&#45;&gt;Node2</title>
<g id="a_edge1_Node000001_Node000002"><a xlink:title=" ">
<path fill="none" stroke="#63b8ff" d="M747.05,-185.94C632.32,-178.59 387.21,-161.9 170.17,-140.13"/>
<polygon fill="#63b8ff" stroke="#63b8ff" points="170.49,-136.64 160.19,-139.12 169.78,-143.61 170.49,-136.64"/>
</a>
</g>
</g>
<!-- Node3 -->
<g id="Node000003" class="node">
<title>Node3</title>
<g id="a_Node000003"><a xlink:href="uvgvpcc_8hpp.html" target="_top" xlink:title=" ">
<polygon fill="white" stroke="#666666" points="454.5,-79.5 332.5,-79.5 332.5,-60.5 454.5,-60.5 454.5,-79.5"/>
<text text-anchor="middle" x="393.5" y="-67.5" font-family="Helvetica,sans-Serif" font-size="10.00">uvgvpcc/uvgvpcc.hpp</text>
</a>
</g>
</g>
<!-- Node1&#45;&gt;Node3 -->
<g id="edge77_Node000001_Node000003" class="edge">
<title>Node1&#45;&gt;Node3</title>
<g id="a_edge77_Node000001_Node000003"><a xlink:title=" ">
<path fill="none" stroke="#63b8ff" d="M747.3,-188.23C563.99,-182.93 55.86,-165.97 31.5,-140 -9.66,-96.12 205.04,-79.47 321.87,-73.73"/>
<polygon fill="#63b8ff" stroke="#63b8ff" points="322.35,-77.21 332.17,-73.24 322.02,-70.22 322.35,-77.21"/>
</a>
</g>
</g>
<!-- Node4 -->
<g id="Node000004" class="node">
<title>Node4</title>
<g id="a_Node000004"><a xlink:title=" ">
<polygon fill="#e0e0e0" stroke="#999999" points="53,-19 0,-19 0,0 53,0 53,-19"/>
<text text-anchor="middle" x="26.5" y="-7" font-family="Helvetica,sans-Serif" font-size="10.00">cstddef</text>
</a>
</g>
</g>
<!-- Node1&#45;&gt;Node4 -->
<g id="edge16_Node000001_Node000004" class="edge">
<title>Node1&#45;&gt;Node4</title>
<g id="a_edge16_Node000001_Node000004"><a xlink:title=" ">
<path fill="none" stroke="#63b8ff" d="M747.21,-188.28C562.36,-183.08 47.18,-166.29 22.5,-140 -5.76,-109.9 8.56,-56.39 18.93,-28.51"/>
<polygon fill="#63b8ff" stroke="#63b8ff" points="22.2,-29.77 22.61,-19.19 15.69,-27.2 22.2,-29.77"/>
</a>
</g>
</g>
<!-- Node7 -->
<g id="Node000007" class="node">
<title>Node7</title>
<g id="a_Node000007"><a xlink:title=" ">
<polygon fill="#e0e0e0" stroke="#999999" points="875.5,-19 817.5,-19 817.5,0 875.5,0 875.5,-19"/>
<text text-anchor="middle" x="846.5" y="-7" font-family="Helvetica,sans-Serif" font-size="10.00">memory</text>
</a>
</g>
</g>
<!-- Node1&#45;&gt;Node7 -->
<g id="edge17_Node000001_Node000007" class="edge">
<title>Node1&#45;&gt;Node7</title>
<g id="a_edge17_Node000001_Node000007"><a xlink:title=" ">
<path fill="none" stroke="#63b8ff" d="M877.7,-189.94C965.14,-188.31 1113.38,-179.59 1147.5,-140 1203.41,-75.12 1265.12,-148.55 1019.5,-55 995.22,-45.75 928.6,-29.54 885.48,-19.45"/>
<polygon fill="#63b8ff" stroke="#63b8ff" points="886.13,-16.01 875.59,-17.15 884.54,-22.83 886.13,-16.01"/>
</a>
</g>
</g>
<!-- Node11 -->
<g id="Node000011" class="node">
<title>Node11</title>
<g id="a_Node000011"><a xlink:title=" ">
<polygon fill="#e0e0e0" stroke="#999999" points="1011.5,-19 967.5,-19 967.5,0 1011.5,0 1011.5,-19"/>
<text text-anchor="middle" x="989.5" y="-7" font-family="Helvetica,sans-Serif" font-size="10.00">string</text>
</a>
</g>
</g>
<!-- Node1&#45;&gt;Node11 -->
<g id="edge18_Node000001_Node000011" class="edge">
<title>Node1&#45;&gt;Node11</title>
<g id="a_edge18_Node000001_Node000011"><a xlink:title=" ">
<path fill="none" stroke="#63b8ff" d="M877.64,-190.7C970.58,-190.15 1134.16,-182.9 1171.5,-140 1196.59,-111.17 1075.16,-49.97 1017.96,-23.33"/>
<polygon fill="#63b8ff" stroke="#63b8ff" points="1019.26,-20.08 1008.71,-19.07 1016.33,-26.44 1019.26,-20.08"/>
</a>
</g>
</g>
<!-- Node12 -->
<g id="Node000012" class="node">
<title>Node12</title>
<g id="a_Node000012"><a xlink:title=" ">
<polygon fill="#e0e0e0" stroke="#999999" points="799,-19 752,-19 752,0 799,0 799,-19"/>
<text text-anchor="middle" x="775.5" y="-7" font-family="Helvetica,sans-Serif" font-size="10.00">vector</text>
</a>
</g>
</g>
<!-- Node1&#45;&gt;Node12 -->
<g id="edge19_Node000001_Node000012" class="edge">
<title>Node1&#45;&gt;Node12</title>
<g id="a_edge19_Node000001_Node000012"><a xlink:title=" ">
<path fill="none" stroke="#63b8ff" d="M877.84,-182.99C905.28,-176.45 934.69,-163.92 951.5,-140 956.36,-133.09 953.54,-129.19 951.5,-121 943.49,-88.78 942.01,-76.25 916.5,-55 908.06,-47.97 847.85,-30.44 808.88,-19.6"/>
<polygon fill="#63b8ff" stroke="#63b8ff" points="809.57,-16.16 799,-16.87 807.71,-22.9 809.57,-16.16"/>
</a>
</g>
</g>
<!-- Node15 -->
<g id="Node000015" class="node">
<title>Node15</title>
<g id="a_Node000015"><a xlink:title=" ">
<polygon fill="#e0e0e0" stroke="#999999" points="1873.5,-19 1809.5,-19 1809.5,0 1873.5,0 1873.5,-19"/>
<text text-anchor="middle" x="1841.5" y="-7" font-family="Helvetica,sans-Serif" font-size="10.00">algorithm</text>
</a>
</g>
</g>
<!-- Node1&#45;&gt;Node15 -->
<g id="edge14_Node000001_Node000015" class="edge">
<title>Node1&#45;&gt;Node15</title>
<g id="a_edge14_Node000001_Node000015"><a xlink:title=" ">
<path fill="none" stroke="#63b8ff" d="M877.87,-188.39C1095.86,-182.34 1787.9,-157.55 1853.5,-85 1867.33,-69.71 1859.62,-45.07 1851.63,-28.35"/>
<polygon fill="#63b8ff" stroke="#63b8ff" points="1854.54,-26.36 1846.81,-19.12 1848.34,-29.6 1854.54,-26.36"/>
</a>
</g>
</g>
<!-- Node16 -->
<g id="Node000016" class="node">
<title>Node16</title>
<g id="a_Node000016"><a xlink:title=" ">
<polygon fill="#e0e0e0" stroke="#999999" points="2393.5,-19 2341.5,-19 2341.5,0 2393.5,0 2393.5,-19"/>
<text text-anchor="middle" x="2367.5" y="-7" font-family="Helvetica,sans-Serif" font-size="10.00">cassert</text>
</a>
</g>
</g>
<!-- Node1&#45;&gt;Node16 -->
<g id="edge15_Node000001_Node000016" class="edge">
<title>Node1&#45;&gt;Node16</title>
<g id="a_edge15_Node000001_Node000016"><a xlink:title=" ">
<path fill="none" stroke="#63b8ff" d="M877.57,-189.42C1025.89,-187.42 1400.22,-178.64 1710.5,-140 1950.06,-110.17 2233.26,-43.53 2331.68,-19.42"/>
<polygon fill="#63b8ff" stroke="#63b8ff" points="2332.55,-22.81 2341.43,-17.02 2330.88,-16.01 2332.55,-22.81"/>
</a>
</g>
</g>
<!-- Node17 -->
<g id="Node000017" class="node">
<title>Node17</title>
<g id="a_Node000017"><a xlink:href="normalComputation_8hpp.html" target="_top" xlink:title=" ">
<polygon fill="white" stroke="#666666" points="313,-140 178,-140 178,-121 313,-121 313,-140"/>
<text text-anchor="middle" x="245.5" y="-128" font-family="Helvetica,sans-Serif" font-size="10.00">normalComputation.hpp</text>
</a>
</g>
</g>
<!-- Node1&#45;&gt;Node17 -->
<g id="edge20_Node000001_Node000017" class="edge">
<title>Node1&#45;&gt;Node17</title>
<g id="a_edge20_Node000001_Node000017"><a xlink:title=" ">
<path fill="none" stroke="#63b8ff" d="M747.35,-183.57C655.32,-174.45 481.67,-157.06 323.44,-140.2"/>
<polygon fill="#63b8ff" stroke="#63b8ff" points="323.36,-136.67 313.04,-139.09 322.61,-143.63 323.36,-136.67"/>
</a>
</g>
</g>
<!-- Node18 -->
<g id="Node000018" class="node">
<title>Node18</title>
<g id="a_Node000018"><a xlink:href="normalOrientation_8hpp.html" target="_top" xlink:title=" ">
<polygon fill="white" stroke="#666666" points="458,-140 331,-140 331,-121 458,-121 458,-140"/>
<text text-anchor="middle" x="394.5" y="-128" font-family="Helvetica,sans-Serif" font-size="10.00">normalOrientation.hpp</text>
</a>
</g>
</g>
<!-- Node1&#45;&gt;Node18 -->
<g id="edge22_Node000001_Node000018" class="edge">
<title>Node1&#45;&gt;Node18</title>
<g id="a_edge22_Node000001_Node000018"><a xlink:title=" ">
<path fill="none" stroke="#63b8ff" d="M747.19,-180.86C670.72,-170.16 544.5,-152.49 465.61,-141.45"/>
<polygon fill="#63b8ff" stroke="#63b8ff" points="465.67,-137.93 455.28,-140.01 464.7,-144.86 465.67,-137.93"/>
</a>
</g>
</g>
<!-- Node19 -->
<g id="Node000019" class="node">
<title>Node19</title>
<g id="a_Node000019"><a xlink:href="kdTree_8hpp.html" target="_top" xlink:title=" ">
<polygon fill="white" stroke="#666666" points="942.5,-140 788.5,-140 788.5,-121 942.5,-121 942.5,-140"/>
<text text-anchor="middle" x="865.5" y="-128" font-family="Helvetica,sans-Serif" font-size="10.00">patchGeneration/kdTree.hpp</text>
</a>
</g>
</g>
<!-- Node1&#45;&gt;Node19 -->
<g id="edge24_Node000001_Node000019" class="edge">
<title>Node1&#45;&gt;Node19</title>
<g id="a_edge24_Node000001_Node000019"><a xlink:title=" ">
<path fill="none" stroke="#63b8ff" d="M825.33,-175.84C833.02,-167.35 842.83,-156.52 850.83,-147.69"/>
<polygon fill="#63b8ff" stroke="#63b8ff" points="853.44,-150.03 857.56,-140.27 848.25,-145.33 853.44,-150.03"/>
</a>
</g>
</g>
<!-- Node32 -->
<g id="Node000032" class="node">
<title>Node32</title>
<g id="a_Node000032"><a xlink:href="utils_8hpp.html" target="_top" xlink:title=" ">
<polygon fill="white" stroke="#666666" points="907,-79.5 824,-79.5 824,-60.5 907,-60.5 907,-79.5"/>
<text text-anchor="middle" x="865.5" y="-67.5" font-family="Helvetica,sans-Serif" font-size="10.00">utils/utils.hpp</text>
</a>
</g>
</g>
<!-- Node1&#45;&gt;Node32 -->
<g id="edge78_Node000001_Node000032" class="edge">
<title>Node1&#45;&gt;Node32</title>
<g id="a_edge78_Node000001_Node000032"><a xlink:title=" ">
<path fill="none" stroke="#63b8ff" d="M797.59,-175.94C784.44,-161.76 768.9,-139.42 779.5,-121 789.67,-103.32 808.77,-91.31 826.39,-83.5"/>
<polygon fill="#63b8ff" stroke="#63b8ff" points="828.03,-86.61 835.96,-79.59 825.38,-80.13 828.03,-86.61"/>
</a>
</g>
</g>
<!-- Node34 -->
<g id="Node000034" class="node">
<title>Node34</title>
<g id="a_Node000034"><a xlink:href="patchSegmentation_8hpp.html" target="_top" xlink:title=" ">
<polygon fill="white" stroke="#666666" points="609,-140 476,-140 476,-121 609,-121 609,-140"/>
<text text-anchor="middle" x="542.5" y="-128" font-family="Helvetica,sans-Serif" font-size="10.00">patchSegmentation.hpp</text>
</a>
</g>
</g>
<!-- Node1&#45;&gt;Node34 -->
<g id="edge46_Node000001_Node000034" class="edge">
<title>Node1&#45;&gt;Node34</title>
<g id="a_edge46_Node000001_Node000034"><a xlink:title=" ">
<path fill="none" stroke="#63b8ff" d="M747.83,-175.99C699.92,-165.61 635.62,-151.68 591.82,-142.19"/>
<polygon fill="#63b8ff" stroke="#63b8ff" points="592.49,-138.75 581.98,-140.05 591.01,-145.59 592.49,-138.75"/>
</a>
</g>
</g>
<!-- Node35 -->
<g id="Node000035" class="node">
<title>Node35</title>
<g id="a_Node000035"><a xlink:href="ppiSegmenter_8hpp.html" target="_top" xlink:title=" ">
<polygon fill="white" stroke="#666666" points="732,-140 627,-140 627,-121 732,-121 732,-140"/>
<text text-anchor="middle" x="679.5" y="-128" font-family="Helvetica,sans-Serif" font-size="10.00">ppiSegmenter.hpp</text>
</a>
</g>
</g>
<!-- Node1&#45;&gt;Node35 -->
<g id="edge48_Node000001_Node000035" class="edge">
<title>Node1&#45;&gt;Node35</title>
<g id="a_edge48_Node000001_Node000035"><a xlink:title=" ">
<path fill="none" stroke="#63b8ff" d="M780.64,-175.99C758.65,-166.31 729.65,-153.56 708.34,-144.18"/>
<polygon fill="#63b8ff" stroke="#63b8ff" points="709.7,-140.96 699.14,-140.14 706.89,-147.37 709.7,-140.96"/>
</a>
</g>
</g>
<!-- Node40 -->
<g id="Node000040" class="node">
<title>Node40</title>
<g id="a_Node000040"><a xlink:href="utilsPatchGeneration_8hpp.html" target="_top" xlink:title=" ">
<polygon fill="white" stroke="#666666" points="1138,-140 999,-140 999,-121 1138,-121 1138,-140"/>
<text text-anchor="middle" x="1068.5" y="-128" font-family="Helvetica,sans-Serif" font-size="10.00">utilsPatchGeneration.hpp</text>
</a>
</g>
</g>
<!-- Node1&#45;&gt;Node40 -->
<g id="edge63_Node000001_Node000040" class="edge">
<title>Node1&#45;&gt;Node40</title>
<g id="a_edge63_Node000001_Node000040"><a xlink:title=" ">
<path fill="none" stroke="#63b8ff" d="M873.82,-175.99C919.05,-165.65 979.7,-151.79 1021.21,-142.31"/>
<polygon fill="#63b8ff" stroke="#63b8ff" points="1022.1,-145.69 1031.07,-140.05 1020.54,-138.87 1022.1,-145.69"/>
</a>
</g>
</g>
<!-- Node41 -->
<g id="Node000041" class="node">
<title>Node41</title>
<g id="a_Node000041"><a xlink:href="log_8hpp.html" target="_top" xlink:title=" ">
<polygon fill="white" stroke="#666666" points="1299.5,-79.5 1203.5,-79.5 1203.5,-60.5 1299.5,-60.5 1299.5,-79.5"/>
<text text-anchor="middle" x="1251.5" y="-67.5" font-family="Helvetica,sans-Serif" font-size="10.00">uvgvpcc/log.hpp</text>
</a>
</g>
</g>
<!-- Node1&#45;&gt;Node41 -->
<g id="edge76_Node000001_Node000041" class="edge">
<title>Node1&#45;&gt;Node41</title>
<g id="a_edge76_Node000001_Node000041"><a xlink:title=" ">
<path fill="none" stroke="#63b8ff" d="M877.78,-189.42C978.42,-187.32 1165.39,-178.21 1218.5,-140 1234.97,-128.16 1243.53,-105.88 1247.76,-89.84"/>
<polygon fill="#63b8ff" stroke="#63b8ff" points="1251.21,-90.46 1250.04,-79.93 1244.39,-88.89 1251.21,-90.46"/>
</a>
</g>
</g>
<!-- Node2&#45;&gt;Node3 -->
<g id="edge2_Node000002_Node000003" class="edge">
<title>Node2&#45;&gt;Node3</title>
<g id="a_edge2_Node000002_Node000003"><a xlink:title=" ">
<path fill="none" stroke="#63b8ff" d="M143.1,-120.99C195.51,-110.53 284.46,-92.77 341.02,-81.48"/>
<polygon fill="#63b8ff" stroke="#63b8ff" points="341.72,-84.91 350.84,-79.52 340.35,-78.04 341.72,-84.91"/>
</a>
</g>
</g>
<!-- Node3&#45;&gt;Node4 -->
<g id="edge3_Node000003_Node000004" class="edge">
<title>Node3&#45;&gt;Node4</title>
<g id="a_edge3_Node000003_Node000004"><a xlink:title=" ">
<path fill="none" stroke="#63b8ff" d="M340.14,-60.49C264.62,-48.46 128.52,-26.76 63.3,-16.37"/>
<polygon fill="#63b8ff" stroke="#63b8ff" points="63.52,-12.86 53.09,-14.74 62.42,-19.77 63.52,-12.86"/>
</a>
</g>
</g>
<!-- Node5 -->
<g id="Node000005" class="node">
<title>Node5</title>
<g id="a_Node000005"><a xlink:title=" ">
<polygon fill="#e0e0e0" stroke="#999999" points="170.5,-19 120.5,-19 120.5,0 170.5,0 170.5,-19"/>
<text text-anchor="middle" x="145.5" y="-7" font-family="Helvetica,sans-Serif" font-size="10.00">cstdint</text>
</a>
</g>
</g>
<!-- Node3&#45;&gt;Node5 -->
<g id="edge4_Node000003_Node000005" class="edge">
<title>Node3&#45;&gt;Node5</title>
<g id="a_edge4_Node000003_Node000005"><a xlink:title=" ">
<path fill="none" stroke="#63b8ff" d="M355.96,-60.41C315.2,-51.05 247.93,-35.48 180.66,-19.25"/>
<polygon fill="#63b8ff" stroke="#63b8ff" points="181.28,-15.8 170.74,-16.86 179.64,-22.61 181.28,-15.8"/>
</a>
</g>
</g>
<!-- Node6 -->
<g id="Node000006" class="node">
<title>Node6</title>
<g id="a_Node000006"><a xlink:title=" ">
<polygon fill="#e0e0e0" stroke="#999999" points="733.5,-19 673.5,-19 673.5,0 733.5,0 733.5,-19"/>
<text text-anchor="middle" x="703.5" y="-7" font-family="Helvetica,sans-Serif" font-size="10.00">iostream</text>
</a>
</g>
</g>
<!-- Node3&#45;&gt;Node6 -->
<g id="edge5_Node000003_Node000006" class="edge">
<title>Node3&#45;&gt;Node6</title>
<g id="a_edge5_Node000003_Node000006"><a xlink:title=" ">
<path fill="none" stroke="#63b8ff" d="M442.55,-60.44C494.83,-51.2 580.29,-35.8 663.42,-19.17"/>
<polygon fill="#63b8ff" stroke="#63b8ff" points="664.17,-22.59 673.29,-17.19 662.79,-15.72 664.17,-22.59"/>
</a>
</g>
</g>
<!-- Node3&#45;&gt;Node7 -->
<g id="edge6_Node000003_Node000007" class="edge">
<title>Node3&#45;&gt;Node7</title>
<g id="a_edge6_Node000003_Node000007"><a xlink:title=" ">
<path fill="none" stroke="#63b8ff" d="M454.6,-63.57C533.72,-56.11 676.05,-41.23 806.9,-19.12"/>
<polygon fill="#63b8ff" stroke="#63b8ff" points="807.83,-22.52 817.1,-17.38 806.65,-15.62 807.83,-22.52"/>
</a>
</g>
</g>
<!-- Node8 -->
<g id="Node000008" class="node">
<title>Node8</title>
<g id="a_Node000008"><a xlink:title=" ">
<polygon fill="#e0e0e0" stroke="#999999" points="236,-19 189,-19 189,0 236,0 236,-19"/>
<text text-anchor="middle" x="212.5" y="-7" font-family="Helvetica,sans-Serif" font-size="10.00">queue</text>
</a>
</g>
</g>
<!-- Node3&#45;&gt;Node8 -->
<g id="edge7_Node000003_Node000008" class="edge">
<title>Node3&#45;&gt;Node8</title>
<g id="a_edge7_Node000003_Node000008"><a xlink:title=" ">
<path fill="none" stroke="#63b8ff" d="M367.18,-60.49C335.14,-50.14 281,-32.64 246.01,-21.33"/>
<polygon fill="#63b8ff" stroke="#63b8ff" points="246.85,-17.92 236.25,-18.18 244.69,-24.58 246.85,-17.92"/>
</a>
</g>
</g>
<!-- Node9 -->
<g id="Node000009" class="node">
<title>Node9</title>
<g id="a_Node000009"><a xlink:title=" ">
<polygon fill="#e0e0e0" stroke="#999999" points="325,-19 254,-19 254,0 325,0 325,-19"/>
<text text-anchor="middle" x="289.5" y="-7" font-family="Helvetica,sans-Serif" font-size="10.00">semaphore</text>
</a>
</g>
</g>
<!-- Node3&#45;&gt;Node9 -->
<g id="edge8_Node000003_Node000009" class="edge">
<title>Node3&#45;&gt;Node9</title>
<g id="a_edge8_Node000003_Node000009"><a xlink:title=" ">
<path fill="none" stroke="#63b8ff" d="M378.15,-60.37C361.18,-50.82 333.6,-35.31 313.71,-24.12"/>
<polygon fill="#63b8ff" stroke="#63b8ff" points="315.34,-21.02 304.91,-19.17 311.91,-27.12 315.34,-21.02"/>
</a>
</g>
</g>
<!-- Node10 -->
<g id="Node000010" class="node">
<title>Node10</title>
<g id="a_Node000010"><a xlink:title=" ">
<polygon fill="#e0e0e0" stroke="#999999" points="655.5,-19 599.5,-19 599.5,0 655.5,0 655.5,-19"/>
<text text-anchor="middle" x="627.5" y="-7" font-family="Helvetica,sans-Serif" font-size="10.00">sstream</text>
</a>
</g>
</g>
<!-- Node3&#45;&gt;Node10 -->
<g id="edge9_Node000003_Node000010" class="edge">
<title>Node3&#45;&gt;Node10</title>
<g id="a_edge9_Node000003_Node000010"><a xlink:title=" ">
<path fill="none" stroke="#63b8ff" d="M427.53,-60.49C470.57,-49.73 544.47,-31.26 589.37,-20.03"/>
<polygon fill="#63b8ff" stroke="#63b8ff" points="590.46,-23.37 599.31,-17.55 588.76,-16.58 590.46,-23.37"/>
</a>
</g>
</g>
<!-- Node3&#45;&gt;Node11 -->
<g id="edge10_Node000003_Node000011" class="edge">
<title>Node3&#45;&gt;Node11</title>
<g id="a_edge10_Node000003_Node000011"><a xlink:title=" ">
<path fill="none" stroke="#63b8ff" d="M454.59,-67.18C556.91,-63.35 769.38,-52.04 957.2,-18.91"/>
<polygon fill="#63b8ff" stroke="#63b8ff" points="958.03,-22.32 967.26,-17.11 956.8,-15.43 958.03,-22.32"/>
</a>
</g>
</g>
<!-- Node3&#45;&gt;Node12 -->
<g id="edge11_Node000003_Node000012" class="edge">
<title>Node3&#45;&gt;Node12</title>
<g id="a_edge11_Node000003_Node000012"><a xlink:title=" ">
<path fill="none" stroke="#63b8ff" d="M454.68,-62.3C522.52,-54.4 635.33,-39.91 741.82,-18.93"/>
<polygon fill="#63b8ff" stroke="#63b8ff" points="742.66,-22.33 751.78,-16.94 741.29,-15.46 742.66,-22.33"/>
</a>
</g>
</g>
<!-- Node13 -->
<g id="Node000013" class="node">
<title>Node13</title>
<g id="a_Node000013"><a xlink:title=" ">
<polygon fill="#e0e0e0" stroke="#999999" points="435.5,-19 343.5,-19 343.5,0 435.5,0 435.5,-19"/>
<text text-anchor="middle" x="389.5" y="-7" font-family="Helvetica,sans-Serif" font-size="10.00">../utils/utils.hpp</text>
</a>
</g>
</g>
<!-- Node3&#45;&gt;Node13 -->
<g id="edge12_Node000003_Node000013" class="edge">
<title>Node3&#45;&gt;Node13</title>
<g id="a_edge12_Node000003_Node000013"><a xlink:title=" ">
<path fill="none" stroke="#63b8ff" d="M392.91,-60.37C392.35,-52.25 391.5,-39.81 390.79,-29.39"/>
<polygon fill="#63b8ff" stroke="#63b8ff" points="394.27,-28.91 390.09,-19.17 387.28,-29.38 394.27,-28.91"/>
</a>
</g>
</g>
<!-- Node14 -->
<g id="Node000014" class="node">
<title>Node14</title>
<g id="a_Node000014"><a xlink:title=" ">
<polygon fill="#e0e0e0" stroke="#999999" points="581,-19 454,-19 454,0 581,0 581,-19"/>
<text text-anchor="middle" x="517.5" y="-7" font-family="Helvetica,sans-Serif" font-size="10.00">../utils/parameters.hpp</text>
</a>
</g>
</g>
<!-- Node3&#45;&gt;Node14 -->
<g id="edge13_Node000003_Node000014" class="edge">
<title>Node3&#45;&gt;Node14</title>
<g id="a_edge13_Node000003_Node000014"><a xlink:title=" ">
<path fill="none" stroke="#63b8ff" d="M411.53,-60.49C432.19,-50.75 466.28,-34.66 490.2,-23.38"/>
<polygon fill="#63b8ff" stroke="#63b8ff" points="491.9,-26.45 499.45,-19.02 488.91,-20.12 491.9,-26.45"/>
</a>
</g>
</g>
<!-- Node17&#45;&gt;Node3 -->
<g id="edge21_Node000017_Node000003" class="edge">
<title>Node17&#45;&gt;Node3</title>
<g id="a_edge21_Node000017_Node000003"><a xlink:title=" ">
<path fill="none" stroke="#63b8ff" d="M267.02,-120.99C292.12,-111.07 333.82,-94.59 362.43,-83.28"/>
<polygon fill="#63b8ff" stroke="#63b8ff" points="363.94,-86.45 371.95,-79.52 361.37,-79.94 363.94,-86.45"/>
</a>
</g>
</g>
<!-- Node18&#45;&gt;Node3 -->
<g id="edge23_Node000018_Node000003" class="edge">
<title>Node18&#45;&gt;Node3</title>
<g id="a_edge23_Node000018_Node000003"><a xlink:title=" ">
<path fill="none" stroke="#63b8ff" d="M394.35,-120.87C394.21,-112.75 394,-100.31 393.82,-89.89"/>
<polygon fill="#63b8ff" stroke="#63b8ff" points="397.32,-89.61 393.65,-79.67 390.32,-89.73 397.32,-89.61"/>
</a>
</g>
</g>
<!-- Node20 -->
<g id="Node000020" class="node">
<title>Node20</title>
<g id="a_Node000020"><a xlink:href="nanoflann_8hpp.html" target="_top" xlink:title=" ">
<polygon fill="white" stroke="#666666" points="1770.5,-79.5 1684.5,-79.5 1684.5,-60.5 1770.5,-60.5 1770.5,-79.5"/>
<text text-anchor="middle" x="1727.5" y="-67.5" font-family="Helvetica,sans-Serif" font-size="10.00">nanoflann.hpp</text>
</a>
</g>
</g>
<!-- Node19&#45;&gt;Node20 -->
<g id="edge25_Node000019_Node000020" class="edge">
<title>Node19&#45;&gt;Node20</title>
<g id="a_edge25_Node000019_Node000020"><a xlink:title=" ">
<path fill="none" stroke="#63b8ff" d="M942.52,-124.26C958.38,-123.18 974.98,-122.05 990.5,-121 1246.61,-103.6 1552.79,-82.84 1674.17,-74.62"/>
<polygon fill="#63b8ff" stroke="#63b8ff" points="1674.56,-78.1 1684.3,-73.93 1674.09,-71.11 1674.56,-78.1"/>
</a>
</g>
</g>
<!-- Node19&#45;&gt;Node32 -->
<g id="edge40_Node000019_Node000032" class="edge">
<title>Node19&#45;&gt;Node32</title>
<g id="a_edge40_Node000019_Node000032"><a xlink:title=" ">
<path fill="none" stroke="#63b8ff" d="M865.5,-120.87C865.5,-112.75 865.5,-100.31 865.5,-89.89"/>
<polygon fill="#63b8ff" stroke="#63b8ff" points="869,-89.67 865.5,-79.67 862,-89.67 869,-89.67"/>
</a>
</g>
</g>
<!-- Node20&#45;&gt;Node12 -->
<g id="edge39_Node000020_Node000012" class="edge">
<title>Node20&#45;&gt;Node12</title>
<g id="a_edge39_Node000020_Node000012"><a xlink:title=" ">
<path fill="none" stroke="#63b8ff" d="M1684.44,-66.36C1637.14,-63.48 1558.91,-58.78 1491.5,-55 1191.26,-38.18 1110.68,-64.56 809.08,-18.72"/>
<polygon fill="#63b8ff" stroke="#63b8ff" points="809.59,-15.26 799.18,-17.2 808.53,-22.18 809.59,-15.26"/>
</a>
</g>
</g>
<!-- Node20&#45;&gt;Node15 -->
<g id="edge26_Node000020_Node000015" class="edge">
<title>Node20&#45;&gt;Node15</title>
<g id="a_edge26_Node000020_Node000015"><a xlink:title=" ">
<path fill="none" stroke="#63b8ff" d="M1744.32,-60.37C1763.1,-50.73 1793.7,-35.03 1815.55,-23.81"/>
<polygon fill="#63b8ff" stroke="#63b8ff" points="1817.31,-26.85 1824.61,-19.17 1814.11,-20.62 1817.31,-26.85"/>
</a>
</g>
</g>
<!-- Node20&#45;&gt;Node16 -->
<g id="edge29_Node000020_Node000016" class="edge">
<title>Node20&#45;&gt;Node16</title>
<g id="a_edge29_Node000020_Node000016"><a xlink:title=" ">
<path fill="none" stroke="#63b8ff" d="M1755.61,-60.49C1763.59,-58.38 1772.33,-56.33 1780.5,-55 2019.83,-15.96 2087.62,-55.05 2331,-18.94"/>
<polygon fill="#63b8ff" stroke="#63b8ff" points="2331.86,-22.35 2341.22,-17.4 2330.81,-15.43 2331.86,-22.35"/>
</a>
</g>
</g>
<!-- Node21 -->
<g id="Node000021" class="node">
<title>Node21</title>
<g id="a_Node000021"><a xlink:title=" ">
<polygon fill="#e0e0e0" stroke="#999999" points="1071.5,-19 1029.5,-19 1029.5,0 1071.5,0 1071.5,-19"/>
<text text-anchor="middle" x="1050.5" y="-7" font-family="Helvetica,sans-Serif" font-size="10.00">array</text>
</a>
</g>
</g>
<!-- Node20&#45;&gt;Node21 -->
<g id="edge27_Node000020_Node000021" class="edge">
<title>Node20&#45;&gt;Node21</title>
<g id="a_edge27_Node000020_Node000021"><a xlink:title=" ">
<path fill="none" stroke="#63b8ff" d="M1684.35,-66.17C1554.75,-57.59 1172.76,-31.79 1081.73,-18.68"/>
<polygon fill="#63b8ff" stroke="#63b8ff" points="1082.11,-15.19 1071.68,-17.07 1081,-22.11 1082.11,-15.19"/>
</a>
</g>
</g>
<!-- Node22 -->
<g id="Node000022" class="node">
<title>Node22</title>
<g id="a_Node000022"><a xlink:title=" ">
<polygon fill="#e0e0e0" stroke="#999999" points="1941.5,-19 1891.5,-19 1891.5,0 1941.5,0 1941.5,-19"/>
<text text-anchor="middle" x="1916.5" y="-7" font-family="Helvetica,sans-Serif" font-size="10.00">atomic</text>
</a>
</g>
</g>
<!-- Node20&#45;&gt;Node22 -->
<g id="edge28_Node000020_Node000022" class="edge">
<title>Node20&#45;&gt;Node22</title>
<g id="a_edge28_Node000020_Node000022"><a xlink:title=" ">
<path fill="none" stroke="#63b8ff" d="M1754.98,-60.49C1788.48,-50.12 1845.14,-32.59 1881.67,-21.28"/>
<polygon fill="#63b8ff" stroke="#63b8ff" points="1882.88,-24.57 1891.4,-18.27 1880.81,-17.88 1882.88,-24.57"/>
</a>
</g>
</g>
<!-- Node23 -->
<g id="Node000023" class="node">
<title>Node23</title>
<g id="a_Node000023"><a xlink:title=" ">
<polygon fill="#e0e0e0" stroke="#999999" points="2007,-19 1960,-19 1960,0 2007,0 2007,-19"/>
<text text-anchor="middle" x="1983.5" y="-7" font-family="Helvetica,sans-Serif" font-size="10.00">cmath</text>
</a>
</g>
</g>
<!-- Node20&#45;&gt;Node23 -->
<g id="edge30_Node000020_Node000023" class="edge">
<title>Node20&#45;&gt;Node23</title>
<g id="a_edge30_Node000020_Node000023"><a xlink:title=" ">
<path fill="none" stroke="#63b8ff" d="M1758.82,-60.45C1765.93,-58.59 1773.46,-56.67 1780.5,-55 1852.55,-37.87 1873.6,-36.71 1949.67,-19.1"/>
<polygon fill="#63b8ff" stroke="#63b8ff" points="1950.8,-22.43 1959.74,-16.75 1949.2,-15.62 1950.8,-22.43"/>
</a>
</g>
</g>
<!-- Node24 -->
<g id="Node000024" class="node">
<title>Node24</title>
<g id="a_Node000024"><a xlink:title=" ">
<polygon fill="#e0e0e0" stroke="#999999" points="1625,-19 1576,-19 1576,0 1625,0 1625,-19"/>
<text text-anchor="middle" x="1600.5" y="-7" font-family="Helvetica,sans-Serif" font-size="10.00">cstdlib</text>
</a>
</g>
</g>
<!-- Node20&#45;&gt;Node24 -->
<g id="edge31_Node000020_Node000024" class="edge">
<title>Node20&#45;&gt;Node24</title>
<g id="a_edge31_Node000020_Node000024"><a xlink:title=" ">
<path fill="none" stroke="#63b8ff" d="M1709.03,-60.49C1687.78,-50.7 1652.65,-34.52 1628.13,-23.23"/>
<polygon fill="#63b8ff" stroke="#63b8ff" points="1629.54,-20.02 1618.99,-19.02 1626.61,-26.38 1629.54,-20.02"/>
</a>
</g>
</g>
<!-- Node25 -->
<g id="Node000025" class="node">
<title>Node25</title>
<g id="a_Node000025"><a xlink:title=" ">
<polygon fill="#e0e0e0" stroke="#999999" points="1708,-19 1643,-19 1643,0 1708,0 1708,-19"/>
<text text-anchor="middle" x="1675.5" y="-7" font-family="Helvetica,sans-Serif" font-size="10.00">functional</text>
</a>
</g>
</g>
<!-- Node20&#45;&gt;Node25 -->
<g id="edge32_Node000020_Node000025" class="edge">
<title>Node20&#45;&gt;Node25</title>
<g id="a_edge32_Node000020_Node000025"><a xlink:title=" ">
<path fill="none" stroke="#63b8ff" d="M1719.83,-60.37C1711.99,-51.55 1699.64,-37.66 1689.96,-26.77"/>
<polygon fill="#63b8ff" stroke="#63b8ff" points="1692.46,-24.32 1683.2,-19.17 1687.23,-28.97 1692.46,-24.32"/>
</a>
</g>
</g>
<!-- Node26 -->
<g id="Node000026" class="node">
<title>Node26</title>
<g id="a_Node000026"><a xlink:title=" ">
<polygon fill="#e0e0e0" stroke="#999999" points="2071.5,-19 2025.5,-19 2025.5,0 2071.5,0 2071.5,-19"/>
<text text-anchor="middle" x="2048.5" y="-7" font-family="Helvetica,sans-Serif" font-size="10.00">future</text>
</a>
</g>
</g>
<!-- Node20&#45;&gt;Node26 -->
<g id="edge33_Node000020_Node000026" class="edge">
<title>Node20&#45;&gt;Node26</title>
<g id="a_edge33_Node000020_Node000026"><a xlink:title=" ">
<path fill="none" stroke="#63b8ff" d="M1757.64,-60.44C1765.07,-58.5 1773.05,-56.55 1780.5,-55 1881.24,-34.07 1910.85,-40.24 2015.48,-19"/>
<polygon fill="#63b8ff" stroke="#63b8ff" points="2016.41,-22.38 2025.5,-16.93 2015,-15.52 2016.41,-22.38"/>
</a>
</g>
</g>
<!-- Node27 -->
<g id="Node000027" class="node">
<title>Node27</title>
<g id="a_Node000027"><a xlink:title=" ">
<polygon fill="#e0e0e0" stroke="#999999" points="2143.5,-19 2089.5,-19 2089.5,0 2143.5,0 2143.5,-19"/>
<text text-anchor="middle" x="2116.5" y="-7" font-family="Helvetica,sans-Serif" font-size="10.00">istream</text>
</a>
</g>
</g>
<!-- Node20&#45;&gt;Node27 -->
<g id="edge34_Node000020_Node000027" class="edge">
<title>Node20&#45;&gt;Node27</title>
<g id="a_edge34_Node000020_Node000027"><a xlink:title=" ">
<path fill="none" stroke="#63b8ff" d="M1756.77,-60.49C1764.44,-58.48 1772.74,-56.48 1780.5,-55 1909.18,-30.41 1946.47,-41.87 2079.29,-19.01"/>
<polygon fill="#63b8ff" stroke="#63b8ff" points="2080.2,-22.41 2089.44,-17.23 2078.99,-15.51 2080.2,-22.41"/>
</a>
</g>
</g>
<!-- Node28 -->
<g id="Node000028" class="node">
<title>Node28</title>
<g id="a_Node000028"><a xlink:title=" ">
<polygon fill="#e0e0e0" stroke="#999999" points="1339.5,-19 1295.5,-19 1295.5,0 1339.5,0 1339.5,-19"/>
<text text-anchor="middle" x="1317.5" y="-7" font-family="Helvetica,sans-Serif" font-size="10.00">limits</text>
</a>
</g>
</g>
<!-- Node20&#45;&gt;Node28 -->
<g id="edge35_Node000020_Node000028" class="edge">
<title>Node20&#45;&gt;Node28</title>
<g id="a_edge35_Node000020_Node000028"><a xlink:title=" ">
<path fill="none" stroke="#63b8ff" d="M1684.27,-65.23C1615.37,-58.81 1476.31,-44.12 1349.64,-18.98"/>
<polygon fill="#63b8ff" stroke="#63b8ff" points="1350.26,-15.54 1339.76,-17 1348.88,-22.4 1350.26,-15.54"/>
</a>
</g>
</g>
<!-- Node29 -->
<g id="Node000029" class="node">
<title>Node29</title>
<g id="a_Node000029"><a xlink:title=" ">
<polygon fill="#e0e0e0" stroke="#999999" points="2219,-19 2162,-19 2162,0 2219,0 2219,-19"/>
<text text-anchor="middle" x="2190.5" y="-7" font-family="Helvetica,sans-Serif" font-size="10.00">ostream</text>
</a>
</g>
</g>
<!-- Node20&#45;&gt;Node29 -->
<g id="edge36_Node000020_Node000029" class="edge">
<title>Node20&#45;&gt;Node29</title>
<g id="a_edge36_Node000020_Node000029"><a xlink:title=" ">
<path fill="none" stroke="#63b8ff" d="M1756.47,-60.44C1764.22,-58.4 1772.63,-56.41 1780.5,-55 1940.81,-26.27 1986.69,-44.44 2151.92,-18.87"/>
<polygon fill="#63b8ff" stroke="#63b8ff" points="2152.61,-22.3 2161.94,-17.29 2151.52,-15.39 2152.61,-22.3"/>
</a>
</g>
</g>
<!-- Node30 -->
<g id="Node000030" class="node">
<title>Node30</title>
<g id="a_Node000030"><a xlink:title=" ">
<polygon fill="#e0e0e0" stroke="#999999" points="1791,-19 1726,-19 1726,0 1791,0 1791,-19"/>
<text text-anchor="middle" x="1758.5" y="-7" font-family="Helvetica,sans-Serif" font-size="10.00">stdexcept</text>
</a>
</g>
</g>
<!-- Node20&#45;&gt;Node30 -->
<g id="edge37_Node000020_Node000030" class="edge">
<title>Node20&#45;&gt;Node30</title>
<g id="a_edge37_Node000020_Node000030"><a xlink:title=" ">
<path fill="none" stroke="#63b8ff" d="M1732.07,-60.37C1736.56,-51.9 1743.53,-38.74 1749.19,-28.07"/>
<polygon fill="#63b8ff" stroke="#63b8ff" points="1752.32,-29.64 1753.91,-19.17 1746.13,-26.36 1752.32,-29.64"/>
</a>
</g>
</g>
<!-- Node31 -->
<g id="Node000031" class="node">
<title>Node31</title>
<g id="a_Node000031"><a xlink:title=" ">
<polygon fill="#e0e0e0" stroke="#999999" points="2323.5,-19 2237.5,-19 2237.5,0 2323.5,0 2323.5,-19"/>
<text text-anchor="middle" x="2280.5" y="-7" font-family="Helvetica,sans-Serif" font-size="10.00">unordered_set</text>
</a>
</g>
</g>
<!-- Node20&#45;&gt;Node31 -->
<g id="edge38_Node000020_Node000031" class="edge">
<title>Node20&#45;&gt;Node31</title>
<g id="a_edge38_Node000020_Node000031"><a xlink:title=" ">
<path fill="none" stroke="#63b8ff" d="M1756.18,-60.43C1764,-58.36 1772.53,-56.36 1780.5,-55 1974.13,-21.92 2028.42,-42.42 2227.22,-19.04"/>
<polygon fill="#63b8ff" stroke="#63b8ff" points="2227.9,-22.49 2237.41,-17.82 2227.06,-15.54 2227.9,-22.49"/>
</a>
</g>
</g>
<!-- Node32&#45;&gt;Node5 -->
<g id="edge42_Node000032_Node000005" class="edge">
<title>Node32&#45;&gt;Node5</title>
<g id="a_edge42_Node000032_Node000005"><a xlink:title=" ">
<path fill="none" stroke="#63b8ff" d="M823.84,-68.46C717.84,-66.54 429.25,-58 180.6,-18.88"/>
<polygon fill="#63b8ff" stroke="#63b8ff" points="181.08,-15.42 170.65,-17.3 179.98,-22.33 181.08,-15.42"/>
</a>
</g>
</g>
<!-- Node32&#45;&gt;Node10 -->
<g id="edge44_Node000032_Node000010" class="edge">
<title>Node32&#45;&gt;Node10</title>
<g id="a_edge44_Node000032_Node000010"><a xlink:title=" ">
<path fill="none" stroke="#63b8ff" d="M830.89,-60.49C786.9,-49.68 711.22,-31.08 665.62,-19.87"/>
<polygon fill="#63b8ff" stroke="#63b8ff" points="666.36,-16.45 655.81,-17.46 664.69,-23.25 666.36,-16.45"/>
</a>
</g>
</g>
<!-- Node32&#45;&gt;Node21 -->
<g id="edge41_Node000032_Node000021" class="edge">
<title>Node32&#45;&gt;Node21</title>
<g id="a_edge41_Node000032_Node000021"><a xlink:title=" ">
<path fill="none" stroke="#63b8ff" d="M892.4,-60.49C926.15,-49.82 983.9,-31.56 1019.48,-20.31"/>
<polygon fill="#63b8ff" stroke="#63b8ff" points="1020.84,-23.55 1029.32,-17.2 1018.73,-16.88 1020.84,-23.55"/>
</a>
</g>
</g>
<!-- Node32&#45;&gt;Node28 -->
<g id="edge43_Node000032_Node000028" class="edge">
<title>Node32&#45;&gt;Node28</title>
<g id="a_edge43_Node000032_Node000028"><a xlink:title=" ">
<path fill="none" stroke="#63b8ff" d="M907.05,-66.13C981.25,-60.57 1141.48,-46.53 1285.35,-18.95"/>
<polygon fill="#63b8ff" stroke="#63b8ff" points="1286.09,-22.37 1295.24,-17.03 1284.76,-15.5 1286.09,-22.37"/>
</a>
</g>
</g>
<!-- Node33 -->
<g id="Node000033" class="node">
<title>Node33</title>
<g id="a_Node000033"><a xlink:title=" ">
<polygon fill="#e0e0e0" stroke="#999999" points="949.5,-19 893.5,-19 893.5,0 949.5,0 949.5,-19"/>
<text text-anchor="middle" x="921.5" y="-7" font-family="Helvetica,sans-Serif" font-size="10.00">iomanip</text>
</a>
</g>
</g>
<!-- Node32&#45;&gt;Node33 -->
<g id="edge45_Node000032_Node000033" class="edge">
<title>Node32&#45;&gt;Node33</title>
<g id="a_edge45_Node000032_Node000033"><a xlink:title=" ">
<path fill="none" stroke="#63b8ff" d="M873.76,-60.37C882.28,-51.47 895.76,-37.39 906.23,-26.45"/>
<polygon fill="#63b8ff" stroke="#63b8ff" points="908.82,-28.81 913.2,-19.17 903.76,-23.97 908.82,-28.81"/>
</a>
</g>
</g>
<!-- Node34&#45;&gt;Node3 -->
<g id="edge47_Node000034_Node000003" class="edge">
<title>Node34&#45;&gt;Node3</title>
<g id="a_edge47_Node000034_Node000003"><a xlink:title=" ">
<path fill="none" stroke="#63b8ff" d="M520.83,-120.99C495.56,-111.07 453.59,-94.59 424.78,-83.28"/>
<polygon fill="#63b8ff" stroke="#63b8ff" points="425.78,-79.91 415.19,-79.52 423.22,-86.43 425.78,-79.91"/>
</a>
</g>
</g>
<!-- Node35&#45;&gt;Node5 -->
<g id="edge49_Node000035_Node000005" class="edge">
<title>Node35&#45;&gt;Node5</title>
<g id="a_edge49_Node000035_Node000005"><a xlink:title=" ">
<path fill="none" stroke="#63b8ff" d="M626.95,-122.02C624.09,-121.66 621.26,-121.32 618.5,-121 532.93,-111.05 311.83,-118.59 232.5,-85 202.29,-72.21 174.88,-44.96 159.21,-27.2"/>
<polygon fill="#63b8ff" stroke="#63b8ff" points="161.66,-24.68 152.5,-19.35 156.34,-29.22 161.66,-24.68"/>
</a>
</g>
</g>
<!-- Node35&#45;&gt;Node12 -->
<g id="edge50_Node000035_Node000012" class="edge">
<title>Node35&#45;&gt;Node12</title>
<g id="a_edge50_Node000035_Node000012"><a xlink:title=" ">
<path fill="none" stroke="#63b8ff" d="M686.4,-120.94C702.17,-101.4 741.07,-53.18 761.87,-27.4"/>
<polygon fill="#63b8ff" stroke="#63b8ff" points="764.84,-29.28 768.4,-19.3 759.4,-24.89 764.84,-29.28"/>
</a>
</g>
</g>
<!-- Node35&#45;&gt;Node32 -->
<g id="edge62_Node000035_Node000032" class="edge">
<title>Node35&#45;&gt;Node32</title>
<g id="a_edge62_Node000035_Node000032"><a xlink:title=" ">
<path fill="none" stroke="#63b8ff" d="M706.55,-120.99C738.78,-110.86 792.79,-93.87 828.78,-82.55"/>
<polygon fill="#63b8ff" stroke="#63b8ff" points="829.93,-85.86 838.42,-79.52 827.83,-79.18 829.93,-85.86"/>
</a>
</g>
</g>
<!-- Node36 -->
<g id="Node000036" class="node">
<title>Node36</title>
<g id="a_Node000036"><a xlink:href="robin__hood_8h.html" target="_top" xlink:title=" ">
<polygon fill="white" stroke="#666666" points="1482,-85 1357,-85 1357,-55 1482,-55 1482,-85"/>
<text text-anchor="start" x="1365" y="-73" font-family="Helvetica,sans-Serif" font-size="10.00">patchGeneration/robin</text>
<text text-anchor="middle" x="1419.5" y="-62" font-family="Helvetica,sans-Serif" font-size="10.00">_hood.h</text>
</a>
</g>
</g>
<!-- Node35&#45;&gt;Node36 -->
<g id="edge51_Node000035_Node000036" class="edge">
<title>Node35&#45;&gt;Node36</title>
<g id="a_edge51_Node000035_Node000036"><a xlink:title=" ">
<path fill="none" stroke="#63b8ff" d="M732.16,-124.86C747.43,-123.56 764.12,-122.18 779.5,-121 1014.47,-103.02 1073.95,-107.75 1308.5,-85 1320.86,-83.8 1333.96,-82.33 1346.67,-80.79"/>
<polygon fill="#63b8ff" stroke="#63b8ff" points="1347.26,-84.25 1356.76,-79.55 1346.41,-77.3 1347.26,-84.25"/>
</a>
</g>
</g>
<!-- Node36&#45;&gt;Node7 -->
<g id="edge57_Node000036_Node000007" class="edge">
<title>Node36&#45;&gt;Node7</title>
<g id="a_edge57_Node000036_Node000007"><a xlink:title=" ">
<path fill="none" stroke="#63b8ff" d="M1356.74,-60.63C1341,-58.66 1324.15,-56.65 1308.5,-55 1123.64,-35.5 1073.15,-47.29 885.78,-19"/>
<polygon fill="#63b8ff" stroke="#63b8ff" points="886.3,-15.54 875.88,-17.49 885.24,-22.46 886.3,-15.54"/>
</a>
</g>
</g>
<!-- Node36&#45;&gt;Node11 -->
<g id="edge59_Node000036_Node000011" class="edge">
<title>Node36&#45;&gt;Node11</title>
<g id="a_edge59_Node000036_Node000011"><a xlink:title=" ">
<path fill="none" stroke="#63b8ff" d="M1356.98,-61.1C1341.16,-59.11 1324.21,-56.97 1308.5,-55 1183.76,-39.34 1148.79,-43.87 1021.87,-19.02"/>
<polygon fill="#63b8ff" stroke="#63b8ff" points="1022.25,-15.52 1011.76,-17.01 1020.89,-22.39 1022.25,-15.52"/>
</a>
</g>
</g>
<!-- Node36&#45;&gt;Node15 -->
<g id="edge52_Node000036_Node000015" class="edge">
<title>Node36&#45;&gt;Node15</title>
<g id="a_edge52_Node000036_Node000015"><a xlink:title=" ">
<path fill="none" stroke="#63b8ff" d="M1482.08,-62.23C1555.67,-53.94 1681.71,-38.74 1799.41,-19.08"/>
<polygon fill="#63b8ff" stroke="#63b8ff" points="1800.03,-22.52 1809.31,-17.41 1798.87,-15.62 1800.03,-22.52"/>
</a>
</g>
</g>
<!-- Node36&#45;&gt;Node24 -->
<g id="edge53_Node000036_Node000024" class="edge">
<title>Node36&#45;&gt;Node24</title>
<g id="a_edge53_Node000036_Node000024"><a xlink:title=" ">
<path fill="none" stroke="#63b8ff" d="M1462.85,-54.99C1494.48,-44.77 1536.75,-31.1 1566.07,-21.63"/>
<polygon fill="#63b8ff" stroke="#63b8ff" points="1567.42,-24.87 1575.86,-18.46 1565.27,-18.21 1567.42,-24.87"/>
</a>
</g>
</g>
<!-- Node36&#45;&gt;Node25 -->
<g id="edge55_Node000036_Node000025" class="edge">
<title>Node36&#45;&gt;Node25</title>
<g id="a_edge55_Node000036_Node000025"><a xlink:title=" ">
<path fill="none" stroke="#63b8ff" d="M1480.82,-54.99C1527.83,-44.25 1591.48,-29.7 1633.01,-20.21"/>
<polygon fill="#63b8ff" stroke="#63b8ff" points="1633.84,-23.61 1642.81,-17.97 1632.28,-16.79 1633.84,-23.61"/>
</a>
</g>
</g>
<!-- Node36&#45;&gt;Node28 -->
<g id="edge56_Node000036_Node000028" class="edge">
<title>Node36&#45;&gt;Node28</title>
<g id="a_edge56_Node000036_Node000028"><a xlink:title=" ">
<path fill="none" stroke="#63b8ff" d="M1395.07,-54.99C1378.81,-45.66 1357.55,-33.47 1341.4,-24.21"/>
<polygon fill="#63b8ff" stroke="#63b8ff" points="1342.98,-21.08 1332.56,-19.14 1339.5,-27.15 1342.98,-21.08"/>
</a>
</g>
</g>
<!-- Node36&#45;&gt;Node30 -->
<g id="edge58_Node000036_Node000030" class="edge">
<title>Node36&#45;&gt;Node30</title>
<g id="a_edge58_Node000036_Node000030"><a xlink:title=" ">
<path fill="none" stroke="#63b8ff" d="M1482.12,-59.21C1540.27,-49.95 1629.5,-35.34 1715.88,-19.25"/>
<polygon fill="#63b8ff" stroke="#63b8ff" points="1716.66,-22.67 1725.85,-17.39 1715.38,-15.79 1716.66,-22.67"/>
</a>
</g>
</g>
<!-- Node37 -->
<g id="Node000037" class="node">
<title>Node37</title>
<g id="a_Node000037"><a xlink:title=" ">
<polygon fill="#e0e0e0" stroke="#999999" points="1407.5,-19 1357.5,-19 1357.5,0 1407.5,0 1407.5,-19"/>
<text text-anchor="middle" x="1382.5" y="-7" font-family="Helvetica,sans-Serif" font-size="10.00">cstring</text>
</a>
</g>
</g>
<!-- Node36&#45;&gt;Node37 -->
<g id="edge54_Node000036_Node000037" class="edge">
<title>Node36&#45;&gt;Node37</title>
<g id="a_edge54_Node000036_Node000037"><a xlink:title=" ">
<path fill="none" stroke="#63b8ff" d="M1410.54,-54.84C1405.39,-46.69 1398.88,-36.4 1393.43,-27.78"/>
<polygon fill="#63b8ff" stroke="#63b8ff" points="1396.35,-25.85 1388.04,-19.27 1390.43,-29.59 1396.35,-25.85"/>
</a>
</g>
</g>
<!-- Node38 -->
<g id="Node000038" class="node">
<title>Node38</title>
<g id="a_Node000038"><a xlink:title=" ">
<polygon fill="#e0e0e0" stroke="#999999" points="1495,-19 1426,-19 1426,0 1495,0 1495,-19"/>
<text text-anchor="middle" x="1460.5" y="-7" font-family="Helvetica,sans-Serif" font-size="10.00">type_traits</text>
</a>
</g>
</g>
<!-- Node36&#45;&gt;Node38 -->
<g id="edge60_Node000036_Node000038" class="edge">
<title>Node36&#45;&gt;Node38</title>
<g id="a_edge60_Node000036_Node000038"><a xlink:title=" ">
<path fill="none" stroke="#63b8ff" d="M1429.42,-54.84C1435.19,-46.61 1442.5,-36.18 1448.58,-27.51"/>
<polygon fill="#63b8ff" stroke="#63b8ff" points="1451.48,-29.46 1454.36,-19.27 1445.75,-25.45 1451.48,-29.46"/>
</a>
</g>
</g>
<!-- Node39 -->
<g id="Node000039" class="node">
<title>Node39</title>
<g id="a_Node000039"><a xlink:title=" ">
<polygon fill="#e0e0e0" stroke="#999999" points="1558,-19 1513,-19 1513,0 1558,0 1558,-19"/>
<text text-anchor="middle" x="1535.5" y="-7" font-family="Helvetica,sans-Serif" font-size="10.00">utility</text>
</a>
</g>
</g>
<!-- Node36&#45;&gt;Node39 -->
<g id="edge61_Node000036_Node000039" class="edge">
<title>Node36&#45;&gt;Node39</title>
<g id="a_edge61_Node000036_Node000039"><a xlink:title=" ">
<path fill="none" stroke="#63b8ff" d="M1447.28,-54.99C1466.12,-45.49 1490.85,-33.02 1509.34,-23.69"/>
<polygon fill="#63b8ff" stroke="#63b8ff" points="1511.02,-26.77 1518.37,-19.14 1507.86,-20.52 1511.02,-26.77"/>
</a>
</g>
</g>
<!-- Node40&#45;&gt;Node5 -->
<g id="edge72_Node000040_Node000005" class="edge">
<title>Node40&#45;&gt;Node5</title>
<g id="a_edge72_Node000040_Node000005"><a xlink:title=" ">
<path fill="none" stroke="#63b8ff" d="M998.91,-124.27C983.31,-123.15 966.84,-122 951.5,-121 672.52,-102.87 595.91,-147.87 323.5,-85 266.16,-71.77 203.7,-41.62 170.15,-24"/>
<polygon fill="#63b8ff" stroke="#63b8ff" points="171.56,-20.78 161.09,-19.17 168.27,-26.96 171.56,-20.78"/>
</a>
</g>
</g>
<!-- Node40&#45;&gt;Node12 -->
<g id="edge74_Node000040_Node000012" class="edge">
<title>Node40&#45;&gt;Node12</title>
<g id="a_edge74_Node000040_Node000012"><a xlink:title=" ">
<path fill="none" stroke="#63b8ff" d="M1061.65,-121C1048.49,-105.27 1017.97,-71.74 984.5,-55 915.88,-20.69 888.46,-35.66 809.19,-18.97"/>
<polygon fill="#63b8ff" stroke="#63b8ff" points="809.78,-15.52 799.26,-16.77 808.27,-22.35 809.78,-15.52"/>
</a>
</g>
</g>
<!-- Node40&#45;&gt;Node32 -->
<g id="edge64_Node000040_Node000032" class="edge">
<title>Node40&#45;&gt;Node32</title>
<g id="a_edge64_Node000040_Node000032"><a xlink:title=" ">
<path fill="none" stroke="#63b8ff" d="M1038.98,-120.99C1003.58,-110.79 944.1,-93.65 904.82,-82.33"/>
<polygon fill="#63b8ff" stroke="#63b8ff" points="905.63,-78.92 895.05,-79.52 903.69,-85.65 905.63,-78.92"/>
</a>
</g>
</g>
<!-- Node40&#45;&gt;Node36 -->
<g id="edge75_Node000040_Node000036" class="edge">
<title>Node40&#45;&gt;Node36</title>
<g id="a_edge75_Node000040_Node000036"><a xlink:title=" ">
<path fill="none" stroke="#63b8ff" d="M1119.54,-120.99C1179.31,-111.03 1278.76,-94.46 1346.64,-83.14"/>
<polygon fill="#63b8ff" stroke="#63b8ff" points="1347.54,-86.54 1356.83,-81.44 1346.39,-79.64 1347.54,-86.54"/>
</a>
</g>
</g>
<!-- Node40&#45;&gt;Node41 -->
<g id="edge65_Node000040_Node000041" class="edge">
<title>Node40&#45;&gt;Node41</title>
<g id="a_edge65_Node000040_Node000041"><a xlink:title=" ">
<path fill="none" stroke="#63b8ff" d="M1095.11,-120.99C1126.69,-110.9 1179.51,-94.01 1214.92,-82.69"/>
<polygon fill="#63b8ff" stroke="#63b8ff" points="1216.4,-85.9 1224.86,-79.52 1214.27,-79.23 1216.4,-85.9"/>
</a>
</g>
</g>
<!-- Node45 -->
<g id="Node000045" class="node">
<title>Node45</title>
<g id="a_Node000045"><a xlink:title=" ">
<polygon fill="#e0e0e0" stroke="#999999" points="1844,-79.5 1789,-79.5 1789,-60.5 1844,-60.5 1844,-79.5"/>
<text text-anchor="middle" x="1816.5" y="-67.5" font-family="Helvetica,sans-Serif" font-size="10.00">fstream</text>
</a>
</g>
</g>
<!-- Node40&#45;&gt;Node45 -->
<g id="edge73_Node000040_Node000045" class="edge">
<title>Node40&#45;&gt;Node45</title>
<g id="a_edge73_Node000040_Node000045"><a xlink:title=" ">
<path fill="none" stroke="#63b8ff" d="M1138.04,-127.79C1292.19,-123.57 1658.52,-111.05 1779.5,-85 1782.18,-84.42 1784.92,-83.69 1787.64,-82.85"/>
<polygon fill="#63b8ff" stroke="#63b8ff" points="1788.94,-86.11 1797.24,-79.53 1786.65,-79.49 1788.94,-86.11"/>
</a>
</g>
</g>
<!-- Node41&#45;&gt;Node6 -->
<g id="edge69_Node000041_Node000006" class="edge">
<title>Node41&#45;&gt;Node6</title>
<g id="a_edge69_Node000041_Node000006"><a xlink:title=" ">
<path fill="none" stroke="#63b8ff" d="M1203.3,-66.05C1112.8,-60.11 911.43,-45.02 743.5,-19 743.4,-18.98 743.3,-18.97 743.2,-18.95"/>
<polygon fill="#63b8ff" stroke="#63b8ff" points="744.03,-15.55 733.57,-17.27 742.82,-22.44 744.03,-15.55"/>
</a>
</g>
</g>
<!-- Node41&#45;&gt;Node11 -->
<g id="edge70_Node000041_Node000011" class="edge">
<title>Node41&#45;&gt;Node11</title>
<g id="a_edge70_Node000041_Node000011"><a xlink:title=" ">
<path fill="none" stroke="#63b8ff" d="M1214.14,-60.49C1206.02,-58.66 1197.48,-56.75 1189.5,-55 1117.56,-39.22 1096.8,-37.3 1021.75,-19.2"/>
<polygon fill="#63b8ff" stroke="#63b8ff" points="1022.35,-15.74 1011.81,-16.78 1020.7,-22.54 1022.35,-15.74"/>
</a>
</g>
</g>
<!-- Node41&#45;&gt;Node33 -->
<g id="edge68_Node000041_Node000033" class="edge">
<title>Node41&#45;&gt;Node33</title>
<g id="a_edge68_Node000041_Node000033"><a xlink:title=" ">
<path fill="none" stroke="#63b8ff" d="M1203.38,-61.65C1147.25,-52.88 1051.43,-37.32 959.75,-19.16"/>
<polygon fill="#63b8ff" stroke="#63b8ff" points="960.24,-15.69 949.75,-17.16 958.87,-22.55 960.24,-15.69"/>
</a>
</g>
</g>
<!-- Node42 -->
<g id="Node000042" class="node">
<title>Node42</title>
<g id="a_Node000042"><a xlink:title=" ">
<polygon fill="#e0e0e0" stroke="#999999" points="1139.5,-19 1089.5,-19 1089.5,0 1139.5,0 1139.5,-19"/>
<text text-anchor="middle" x="1114.5" y="-7" font-family="Helvetica,sans-Serif" font-size="10.00">chrono</text>
</a>
</g>
</g>
<!-- Node41&#45;&gt;Node42 -->
<g id="edge66_Node000041_Node000042" class="edge">
<title>Node41&#45;&gt;Node42</title>
<g id="a_edge66_Node000041_Node000042"><a xlink:title=" ">
<path fill="none" stroke="#63b8ff" d="M1231.58,-60.49C1208.55,-50.66 1170.42,-34.38 1143.96,-23.08"/>
<polygon fill="#63b8ff" stroke="#63b8ff" points="1145.02,-19.72 1134.45,-19.02 1142.27,-26.16 1145.02,-19.72"/>
</a>
</g>
</g>
<!-- Node43 -->
<g id="Node000043" class="node">
<title>Node43</title>
<g id="a_Node000043"><a xlink:title=" ">
<polygon fill="#e0e0e0" stroke="#999999" points="1211,-19 1158,-19 1158,0 1211,0 1211,-19"/>
<text text-anchor="middle" x="1184.5" y="-7" font-family="Helvetica,sans-Serif" font-size="10.00">cstdarg</text>
</a>
</g>
</g>
<!-- Node41&#45;&gt;Node43 -->
<g id="edge67_Node000041_Node000043" class="edge">
<title>Node41&#45;&gt;Node43</title>
<g id="a_edge67_Node000041_Node000043"><a xlink:title=" ">
<path fill="none" stroke="#63b8ff" d="M1241.61,-60.37C1231.22,-51.3 1214.66,-36.84 1202.05,-25.82"/>
<polygon fill="#63b8ff" stroke="#63b8ff" points="1204.26,-23.11 1194.43,-19.17 1199.66,-28.38 1204.26,-23.11"/>
</a>
</g>
</g>
<!-- Node44 -->
<g id="Node000044" class="node">
<title>Node44</title>
<g id="a_Node000044"><a xlink:title=" ">
<polygon fill="#e0e0e0" stroke="#999999" points="1277.5,-19 1229.5,-19 1229.5,0 1277.5,0 1277.5,-19"/>
<text text-anchor="middle" x="1253.5" y="-7" font-family="Helvetica,sans-Serif" font-size="10.00">mutex</text>
</a>
</g>
</g>
<!-- Node41&#45;&gt;Node44 -->
<g id="edge71_Node000041_Node000044" class="edge">
<title>Node41&#45;&gt;Node44</title>
<g id="a_edge71_Node000041_Node000044"><a xlink:title=" ">
<path fill="none" stroke="#63b8ff" d="M1251.8,-60.37C1252.07,-52.25 1252.5,-39.81 1252.85,-29.39"/>
<polygon fill="#63b8ff" stroke="#63b8ff" points="1256.36,-29.28 1253.2,-19.17 1249.36,-29.04 1256.36,-29.28"/>
</a>
</g>
</g>
</g>
</svg>
