<?xml version="1.0" encoding="UTF-8" standalone="no"?>
<!DOCTYPE svg PUBLIC "-//W3C//DTD SVG 1.1//EN"
 "http://www.w3.org/Graphics/SVG/1.1/DTD/svg11.dtd">
<!-- Generated by graphviz version 2.43.0 (0)
 -->
<!-- Title: src/lib/patchGeneration/patchGeneration.cpp Pages: 1 -->
<svg width="2402pt" height="214pt"
 viewBox="0.00 0.00 2401.50 214.00" xmlns="http://www.w3.org/2000/svg" xmlns:xlink="http://www.w3.org/1999/xlink">
<g id="graph0" class="graph" transform="scale(1 1) rotate(0) translate(4 210)">
<title>src/lib/patchGeneration/patchGeneration.cpp</title>
<!-- Node1 -->
<g id="Node000001" class="node">
<title>Node1</title>
<g id="a_Node000001"><a xlink:title=" ">
<polygon fill="#999999" stroke="#666666" points="874.5,-206 744.5,-206 744.5,-176 874.5,-176 874.5,-206"/>
<text text-anchor="start" x="752.5" y="-194" font-family="Helvetica,sans-Serif" font-size="10.00">src/lib/patchGeneration</text>
<text text-anchor="middle" x="809.5" y="-183" font-family="Helvetica,sans-Serif" font-size="10.00">/patchGeneration.cpp</text>
</a>
</g>
</g>
<!-- Node2 -->
<g id="Node000002" class="node">
<title>Node2</title>
<g id="a_Node000002"><a xlink:href="patchGeneration_8hpp.html" target="_top" xlink:title=" ">
<polygon fill="white" stroke="#666666" points="157,-140 38,-140 38,-121 157,-121 157,-140"/>
<text text-anchor="middle" x="97.5" y="-128" font-family="Helvetica,sans-Serif" font-size="10.00">patchGeneration.hpp</text>
</a>
</g>
</g>
<!-- Node1&#45;&gt;Node2 -->
<g id="edge1_Node000001_Node000002" class="edge">
<title>Node1&#45;&gt;Node2</title>
<g id="a_edge1_Node000001_Node000002"><a xlink:title=" ">
<path fill="none" stroke="#63b8ff" d="M744.05,-185.94C629.32,-178.59 384.21,-161.9 167.17,-140.13"/>
<polygon fill="#63b8ff" stroke="#63b8ff" points="167.49,-136.64 157.19,-139.12 166.78,-143.61 167.49,-136.64"/>
</a>
</g>
</g>
<!-- Node3 -->
<g id="Node000003" class="node">
<title>Node3</title>
<g id="a_Node000003"><a xlink:href="uvgvpcc_8hpp.html" target="_top" xlink:title=" ">
<polygon fill="white" stroke="#666666" points="452.5,-79.5 330.5,-79.5 330.5,-60.5 452.5,-60.5 452.5,-79.5"/>
<text text-anchor="middle" x="391.5" y="-67.5" font-family="Helvetica,sans-Serif" font-size="10.00">uvgvpcc/uvgvpcc.hpp</text>
</a>
</g>
</g>
<!-- Node1&#45;&gt;Node3 -->
<g id="edge78_Node000001_Node000003" class="edge">
<title>Node1&#45;&gt;Node3</title>
<g id="a_edge78_Node000001_Node000003"><a xlink:title=" ">
<path fill="none" stroke="#63b8ff" d="M744.3,-188.23C560.99,-182.93 52.86,-165.97 28.5,-140 -12.82,-95.95 203.08,-79.37 320.13,-73.68"/>
<polygon fill="#63b8ff" stroke="#63b8ff" points="320.62,-77.16 330.45,-73.2 320.29,-70.17 320.62,-77.16"/>
</a>
</g>
</g>
<!-- Node4 -->
<g id="Node000004" class="node">
<title>Node4</title>
<g id="a_Node000004"><a xlink:title=" ">
<polygon fill="#e0e0e0" stroke="#999999" points="53,-19 0,-19 0,0 53,0 53,-19"/>
<text text-anchor="middle" x="26.5" y="-7" font-family="Helvetica,sans-Serif" font-size="10.00">cstddef</text>
</a>
</g>
</g>
<!-- Node1&#45;&gt;Node4 -->
<g id="edge16_Node000001_Node000004" class="edge">
<title>Node1&#45;&gt;Node4</title>
<g id="a_edge16_Node000001_Node000004"><a xlink:title=" ">
<path fill="none" stroke="#63b8ff" d="M744.21,-188.28C559.36,-183.08 44.18,-166.29 19.5,-140 -8.78,-109.87 7.09,-56.37 18.34,-28.51"/>
<polygon fill="#63b8ff" stroke="#63b8ff" points="21.61,-29.75 22.32,-19.18 15.18,-27 21.61,-29.75"/>
</a>
</g>
</g>
<!-- Node7 -->
<g id="Node000007" class="node">
<title>Node7</title>
<g id="a_Node000007"><a xlink:title=" ">
<polygon fill="#e0e0e0" stroke="#999999" points="875.5,-19 817.5,-19 817.5,0 875.5,0 875.5,-19"/>
<text text-anchor="middle" x="846.5" y="-7" font-family="Helvetica,sans-Serif" font-size="10.00">memory</text>
</a>
</g>
</g>
<!-- Node1&#45;&gt;Node7 -->
<g id="edge17_Node000001_Node000007" class="edge">
<title>Node1&#45;&gt;Node7</title>
<g id="a_edge17_Node000001_Node000007"><a xlink:title=" ">
<path fill="none" stroke="#63b8ff" d="M874.7,-189.94C962.14,-188.31 1110.38,-179.59 1144.5,-140 1150.01,-133.6 1148.89,-128.21 1144.5,-121 1111.19,-66.35 1076.27,-77.91 1016.5,-55 992.76,-45.9 927.9,-29.79 885.5,-19.66"/>
<polygon fill="#63b8ff" stroke="#63b8ff" points="886.31,-16.25 875.77,-17.34 884.69,-23.06 886.31,-16.25"/>
</a>
</g>
</g>
<!-- Node11 -->
<g id="Node000011" class="node">
<title>Node11</title>
<g id="a_Node000011"><a xlink:title=" ">
<polygon fill="#e0e0e0" stroke="#999999" points="1011.5,-19 967.5,-19 967.5,0 1011.5,0 1011.5,-19"/>
<text text-anchor="middle" x="989.5" y="-7" font-family="Helvetica,sans-Serif" font-size="10.00">string</text>
</a>
</g>
</g>
<!-- Node1&#45;&gt;Node11 -->
<g id="edge18_Node000001_Node000011" class="edge">
<title>Node1&#45;&gt;Node11</title>
<g id="a_edge18_Node000001_Node000011"><a xlink:title=" ">
<path fill="none" stroke="#63b8ff" d="M874.53,-190.43C965.41,-189.48 1123.36,-181.68 1159.5,-140 1207.05,-85.17 1082.68,-38.52 1021.36,-19.57"/>
<polygon fill="#63b8ff" stroke="#63b8ff" points="1022.33,-16.2 1011.74,-16.66 1020.3,-22.9 1022.33,-16.2"/>
</a>
</g>
</g>
<!-- Node12 -->
<g id="Node000012" class="node">
<title>Node12</title>
<g id="a_Node000012"><a xlink:title=" ">
<polygon fill="#e0e0e0" stroke="#999999" points="799,-19 752,-19 752,0 799,0 799,-19"/>
<text text-anchor="middle" x="775.5" y="-7" font-family="Helvetica,sans-Serif" font-size="10.00">vector</text>
</a>
</g>
</g>
<!-- Node1&#45;&gt;Node12 -->
<g id="edge19_Node000001_Node000012" class="edge">
<title>Node1&#45;&gt;Node12</title>
<g id="a_edge19_Node000001_Node000012"><a xlink:title=" ">
<path fill="none" stroke="#63b8ff" d="M874.84,-182.99C902.28,-176.45 931.69,-163.92 948.5,-140 953.36,-133.09 950.54,-129.19 948.5,-121 940.49,-88.78 938.95,-76.33 913.5,-55 905.29,-48.12 846.94,-30.7 808.79,-19.81"/>
<polygon fill="#63b8ff" stroke="#63b8ff" points="809.67,-16.42 799.1,-17.06 807.76,-23.16 809.67,-16.42"/>
</a>
</g>
</g>
<!-- Node15 -->
<g id="Node000015" class="node">
<title>Node15</title>
<g id="a_Node000015"><a xlink:title=" ">
<polygon fill="#e0e0e0" stroke="#999999" points="1873.5,-19 1809.5,-19 1809.5,0 1873.5,0 1873.5,-19"/>
<text text-anchor="middle" x="1841.5" y="-7" font-family="Helvetica,sans-Serif" font-size="10.00">algorithm</text>
</a>
</g>
</g>
<!-- Node1&#45;&gt;Node15 -->
<g id="edge14_Node000001_Node000015" class="edge">
<title>Node1&#45;&gt;Node15</title>
<g id="a_edge14_Node000001_Node000015"><a xlink:title=" ">
<path fill="none" stroke="#63b8ff" d="M874.68,-188.41C1092.87,-182.44 1787.67,-157.79 1853.5,-85 1867.33,-69.71 1859.62,-45.07 1851.63,-28.35"/>
<polygon fill="#63b8ff" stroke="#63b8ff" points="1854.54,-26.36 1846.81,-19.12 1848.34,-29.61 1854.54,-26.36"/>
</a>
</g>
</g>
<!-- Node16 -->
<g id="Node000016" class="node">
<title>Node16</title>
<g id="a_Node000016"><a xlink:title=" ">
<polygon fill="#e0e0e0" stroke="#999999" points="2393.5,-19 2341.5,-19 2341.5,0 2393.5,0 2393.5,-19"/>
<text text-anchor="middle" x="2367.5" y="-7" font-family="Helvetica,sans-Serif" font-size="10.00">cassert</text>
</a>
</g>
</g>
<!-- Node1&#45;&gt;Node16 -->
<g id="edge15_Node000001_Node000016" class="edge">
<title>Node1&#45;&gt;Node16</title>
<g id="a_edge15_Node000001_Node000016"><a xlink:title=" ">
<path fill="none" stroke="#63b8ff" d="M874.71,-189.42C1023.36,-187.43 1398.52,-178.65 1709.5,-140 1949.42,-110.18 2233.05,-43.53 2331.63,-19.42"/>
<polygon fill="#63b8ff" stroke="#63b8ff" points="2332.51,-22.81 2341.39,-17.03 2330.84,-16.01 2332.51,-22.81"/>
</a>
</g>
</g>
<!-- Node17 -->
<g id="Node000017" class="node">
<title>Node17</title>
<g id="a_Node000017"><a xlink:href="normalComputation_8hpp.html" target="_top" xlink:title=" ">
<polygon fill="white" stroke="#666666" points="310,-140 175,-140 175,-121 310,-121 310,-140"/>
<text text-anchor="middle" x="242.5" y="-128" font-family="Helvetica,sans-Serif" font-size="10.00">normalComputation.hpp</text>
</a>
</g>
</g>
<!-- Node1&#45;&gt;Node17 -->
<g id="edge20_Node000001_Node000017" class="edge">
<title>Node1&#45;&gt;Node17</title>
<g id="a_edge20_Node000001_Node000017"><a xlink:title=" ">
<path fill="none" stroke="#63b8ff" d="M744.35,-183.57C652.32,-174.45 478.67,-157.06 320.44,-140.2"/>
<polygon fill="#63b8ff" stroke="#63b8ff" points="320.36,-136.67 310.04,-139.09 319.61,-143.63 320.36,-136.67"/>
</a>
</g>
</g>
<!-- Node18 -->
<g id="Node000018" class="node">
<title>Node18</title>
<g id="a_Node000018"><a xlink:href="normalOrientation_8hpp.html" target="_top" xlink:title=" ">
<polygon fill="white" stroke="#666666" points="455,-140 328,-140 328,-121 455,-121 455,-140"/>
<text text-anchor="middle" x="391.5" y="-128" font-family="Helvetica,sans-Serif" font-size="10.00">normalOrientation.hpp</text>
</a>
</g>
</g>
<!-- Node1&#45;&gt;Node18 -->
<g id="edge22_Node000001_Node000018" class="edge">
<title>Node1&#45;&gt;Node18</title>
<g id="a_edge22_Node000001_Node000018"><a xlink:title=" ">
<path fill="none" stroke="#63b8ff" d="M744.19,-180.86C667.72,-170.16 541.5,-152.49 462.61,-141.45"/>
<polygon fill="#63b8ff" stroke="#63b8ff" points="462.67,-137.93 452.28,-140.01 461.7,-144.86 462.67,-137.93"/>
</a>
</g>
</g>
<!-- Node19 -->
<g id="Node000019" class="node">
<title>Node19</title>
<g id="a_Node000019"><a xlink:href="kdTree_8hpp.html" target="_top" xlink:title=" ">
<polygon fill="white" stroke="#666666" points="939.5,-140 785.5,-140 785.5,-121 939.5,-121 939.5,-140"/>
<text text-anchor="middle" x="862.5" y="-128" font-family="Helvetica,sans-Serif" font-size="10.00">patchGeneration/kdTree.hpp</text>
</a>
</g>
</g>
<!-- Node1&#45;&gt;Node19 -->
<g id="edge24_Node000001_Node000019" class="edge">
<title>Node1&#45;&gt;Node19</title>
<g id="a_edge24_Node000001_Node000019"><a xlink:title=" ">
<path fill="none" stroke="#63b8ff" d="M822.33,-175.84C830.02,-167.35 839.83,-156.52 847.83,-147.69"/>
<polygon fill="#63b8ff" stroke="#63b8ff" points="850.44,-150.03 854.56,-140.27 845.25,-145.33 850.44,-150.03"/>
</a>
</g>
</g>
<!-- Node32 -->
<g id="Node000032" class="node">
<title>Node32</title>
<g id="a_Node000032"><a xlink:href="utils_8hpp.html" target="_top" xlink:title=" ">
<polygon fill="white" stroke="#666666" points="904,-79.5 821,-79.5 821,-60.5 904,-60.5 904,-79.5"/>
<text text-anchor="middle" x="862.5" y="-67.5" font-family="Helvetica,sans-Serif" font-size="10.00">utils/utils.hpp</text>
</a>
</g>
</g>
<!-- Node1&#45;&gt;Node32 -->
<g id="edge79_Node000001_Node000032" class="edge">
<title>Node1&#45;&gt;Node32</title>
<g id="a_edge79_Node000001_Node000032"><a xlink:title=" ">
<path fill="none" stroke="#63b8ff" d="M794.59,-175.94C781.44,-161.76 765.9,-139.42 776.5,-121 786.67,-103.32 805.77,-91.31 823.39,-83.5"/>
<polygon fill="#63b8ff" stroke="#63b8ff" points="825.03,-86.61 832.96,-79.59 822.38,-80.13 825.03,-86.61"/>
</a>
</g>
</g>
<!-- Node34 -->
<g id="Node000034" class="node">
<title>Node34</title>
<g id="a_Node000034"><a xlink:href="patchSegmentation_8hpp.html" target="_top" xlink:title=" ">
<polygon fill="white" stroke="#666666" points="606,-140 473,-140 473,-121 606,-121 606,-140"/>
<text text-anchor="middle" x="539.5" y="-128" font-family="Helvetica,sans-Serif" font-size="10.00">patchSegmentation.hpp</text>
</a>
</g>
</g>
<!-- Node1&#45;&gt;Node34 -->
<g id="edge46_Node000001_Node000034" class="edge">
<title>Node1&#45;&gt;Node34</title>
<g id="a_edge46_Node000001_Node000034"><a xlink:title=" ">
<path fill="none" stroke="#63b8ff" d="M744.83,-175.99C696.92,-165.61 632.62,-151.68 588.82,-142.19"/>
<polygon fill="#63b8ff" stroke="#63b8ff" points="589.49,-138.75 578.98,-140.05 588.01,-145.59 589.49,-138.75"/>
</a>
</g>
</g>
<!-- Node35 -->
<g id="Node000035" class="node">
<title>Node35</title>
<g id="a_Node000035"><a xlink:href="ppiSegmenter_8hpp.html" target="_top" xlink:title=" ">
<polygon fill="white" stroke="#666666" points="729,-140 624,-140 624,-121 729,-121 729,-140"/>
<text text-anchor="middle" x="676.5" y="-128" font-family="Helvetica,sans-Serif" font-size="10.00">ppiSegmenter.hpp</text>
</a>
</g>
</g>
<!-- Node1&#45;&gt;Node35 -->
<g id="edge48_Node000001_Node000035" class="edge">
<title>Node1&#45;&gt;Node35</title>
<g id="a_edge48_Node000001_Node000035"><a xlink:title=" ">
<path fill="none" stroke="#63b8ff" d="M777.64,-175.99C755.65,-166.31 726.65,-153.56 705.34,-144.18"/>
<polygon fill="#63b8ff" stroke="#63b8ff" points="706.7,-140.96 696.14,-140.14 703.89,-147.37 706.7,-140.96"/>
</a>
</g>
</g>
<!-- Node40 -->
<g id="Node000040" class="node">
<title>Node40</title>
<g id="a_Node000040"><a xlink:href="utilsPatchGeneration_8hpp.html" target="_top" xlink:title=" ">
<polygon fill="white" stroke="#666666" points="1135,-140 996,-140 996,-121 1135,-121 1135,-140"/>
<text text-anchor="middle" x="1065.5" y="-128" font-family="Helvetica,sans-Serif" font-size="10.00">utilsPatchGeneration.hpp</text>
</a>
</g>
</g>
<!-- Node1&#45;&gt;Node40 -->
<g id="edge64_Node000001_Node000040" class="edge">
<title>Node1&#45;&gt;Node40</title>
<g id="a_edge64_Node000001_Node000040"><a xlink:title=" ">
<path fill="none" stroke="#63b8ff" d="M870.82,-175.99C916.05,-165.65 976.7,-151.79 1018.21,-142.31"/>
<polygon fill="#63b8ff" stroke="#63b8ff" points="1019.1,-145.69 1028.07,-140.05 1017.54,-138.87 1019.1,-145.69"/>
</a>
</g>
</g>
<!-- Node41 -->
<g id="Node000041" class="node">
<title>Node41</title>
<g id="a_Node000041"><a xlink:href="log_8hpp.html" target="_top" xlink:title=" ">
<polygon fill="white" stroke="#666666" points="1297.5,-79.5 1201.5,-79.5 1201.5,-60.5 1297.5,-60.5 1297.5,-79.5"/>
<text text-anchor="middle" x="1249.5" y="-67.5" font-family="Helvetica,sans-Serif" font-size="10.00">uvgvpcc/log.hpp</text>
</a>
</g>
</g>
<!-- Node1&#45;&gt;Node41 -->
<g id="edge77_Node000001_Node000041" class="edge">
<title>Node1&#45;&gt;Node41</title>
<g id="a_edge77_Node000001_Node000041"><a xlink:title=" ">
<path fill="none" stroke="#63b8ff" d="M874.73,-189.35C975.29,-187.14 1162.17,-177.89 1215.5,-140 1232.13,-128.18 1241.02,-105.9 1245.48,-89.85"/>
<polygon fill="#63b8ff" stroke="#63b8ff" points="1248.93,-90.49 1247.91,-79.94 1242.13,-88.82 1248.93,-90.49"/>
</a>
</g>
</g>
<!-- Node2&#45;&gt;Node3 -->
<g id="edge2_Node000002_Node000003" class="edge">
<title>Node2&#45;&gt;Node3</title>
<g id="a_edge2_Node000002_Node000003"><a xlink:title=" ">
<path fill="none" stroke="#63b8ff" d="M140.25,-120.99C192.83,-110.53 282.08,-92.77 338.84,-81.48"/>
<polygon fill="#63b8ff" stroke="#63b8ff" points="339.57,-84.9 348.7,-79.52 338.21,-78.04 339.57,-84.9"/>
</a>
</g>
</g>
<!-- Node3&#45;&gt;Node4 -->
<g id="edge3_Node000003_Node000004" class="edge">
<title>Node3&#45;&gt;Node4</title>
<g id="a_edge3_Node000003_Node000004"><a xlink:title=" ">
<path fill="none" stroke="#63b8ff" d="M338.43,-60.49C263.51,-48.49 128.64,-26.87 63.59,-16.44"/>
<polygon fill="#63b8ff" stroke="#63b8ff" points="63.82,-12.94 53.39,-14.81 62.71,-19.85 63.82,-12.94"/>
</a>
</g>
</g>
<!-- Node5 -->
<g id="Node000005" class="node">
<title>Node5</title>
<g id="a_Node000005"><a xlink:title=" ">
<polygon fill="#e0e0e0" stroke="#999999" points="170.5,-19 120.5,-19 120.5,0 170.5,0 170.5,-19"/>
<text text-anchor="middle" x="145.5" y="-7" font-family="Helvetica,sans-Serif" font-size="10.00">cstdint</text>
</a>
</g>
</g>
<!-- Node3&#45;&gt;Node5 -->
<g id="edge4_Node000003_Node000005" class="edge">
<title>Node3&#45;&gt;Node5</title>
<g id="a_edge4_Node000003_Node000005"><a xlink:title=" ">
<path fill="none" stroke="#63b8ff" d="M354.7,-60.48C314.37,-51.1 247.51,-35.46 180.61,-19.25"/>
<polygon fill="#63b8ff" stroke="#63b8ff" points="181.29,-15.81 170.74,-16.85 179.63,-22.61 181.29,-15.81"/>
</a>
</g>
</g>
<!-- Node6 -->
<g id="Node000006" class="node">
<title>Node6</title>
<g id="a_Node000006"><a xlink:title=" ">
<polygon fill="#e0e0e0" stroke="#999999" points="733.5,-19 673.5,-19 673.5,0 733.5,0 733.5,-19"/>
<text text-anchor="middle" x="703.5" y="-7" font-family="Helvetica,sans-Serif" font-size="10.00">iostream</text>
</a>
</g>
</g>
<!-- Node3&#45;&gt;Node6 -->
<g id="edge5_Node000003_Node000006" class="edge">
<title>Node3&#45;&gt;Node6</title>
<g id="a_edge5_Node000003_Node000006"><a xlink:title=" ">
<path fill="none" stroke="#63b8ff" d="M440.91,-60.46C493.59,-51.25 579.68,-35.86 663.36,-19.18"/>
<polygon fill="#63b8ff" stroke="#63b8ff" points="664.17,-22.58 673.29,-17.19 662.79,-15.72 664.17,-22.58"/>
</a>
</g>
</g>
<!-- Node3&#45;&gt;Node7 -->
<g id="edge6_Node000003_Node000007" class="edge">
<title>Node3&#45;&gt;Node7</title>
<g id="a_edge6_Node000003_Node000007"><a xlink:title=" ">
<path fill="none" stroke="#63b8ff" d="M452.55,-63.62C532.06,-56.19 675.51,-41.3 807.23,-19.07"/>
<polygon fill="#63b8ff" stroke="#63b8ff" points="807.83,-22.52 817.1,-17.38 806.65,-15.61 807.83,-22.52"/>
</a>
</g>
</g>
<!-- Node8 -->
<g id="Node000008" class="node">
<title>Node8</title>
<g id="a_Node000008"><a xlink:title=" ">
<polygon fill="#e0e0e0" stroke="#999999" points="236,-19 189,-19 189,0 236,0 236,-19"/>
<text text-anchor="middle" x="212.5" y="-7" font-family="Helvetica,sans-Serif" font-size="10.00">queue</text>
</a>
</g>
</g>
<!-- Node3&#45;&gt;Node8 -->
<g id="edge7_Node000003_Node000008" class="edge">
<title>Node3&#45;&gt;Node8</title>
<g id="a_edge7_Node000003_Node000008"><a xlink:title=" ">
<path fill="none" stroke="#63b8ff" d="M365.47,-60.49C333.88,-50.17 280.54,-32.74 245.93,-21.43"/>
<polygon fill="#63b8ff" stroke="#63b8ff" points="246.86,-18.05 236.27,-18.27 244.69,-24.7 246.86,-18.05"/>
</a>
</g>
</g>
<!-- Node9 -->
<g id="Node000009" class="node">
<title>Node9</title>
<g id="a_Node000009"><a xlink:title=" ">
<polygon fill="#e0e0e0" stroke="#999999" points="325,-19 254,-19 254,0 325,0 325,-19"/>
<text text-anchor="middle" x="289.5" y="-7" font-family="Helvetica,sans-Serif" font-size="10.00">semaphore</text>
</a>
</g>
</g>
<!-- Node3&#45;&gt;Node9 -->
<g id="edge8_Node000003_Node000009" class="edge">
<title>Node3&#45;&gt;Node9</title>
<g id="a_edge8_Node000003_Node000009"><a xlink:title=" ">
<path fill="none" stroke="#63b8ff" d="M376.45,-60.37C359.88,-50.86 333,-35.45 313.51,-24.27"/>
<polygon fill="#63b8ff" stroke="#63b8ff" points="315.03,-21.11 304.61,-19.17 311.55,-27.18 315.03,-21.11"/>
</a>
</g>
</g>
<!-- Node10 -->
<g id="Node000010" class="node">
<title>Node10</title>
<g id="a_Node000010"><a xlink:title=" ">
<polygon fill="#e0e0e0" stroke="#999999" points="655.5,-19 599.5,-19 599.5,0 655.5,0 655.5,-19"/>
<text text-anchor="middle" x="627.5" y="-7" font-family="Helvetica,sans-Serif" font-size="10.00">sstream</text>
</a>
</g>
</g>
<!-- Node3&#45;&gt;Node10 -->
<g id="edge9_Node000003_Node000010" class="edge">
<title>Node3&#45;&gt;Node10</title>
<g id="a_edge9_Node000003_Node000010"><a xlink:title=" ">
<path fill="none" stroke="#63b8ff" d="M425.82,-60.49C469.43,-49.68 544.48,-31.08 589.7,-19.87"/>
<polygon fill="#63b8ff" stroke="#63b8ff" points="590.56,-23.26 599.42,-17.46 588.88,-16.47 590.56,-23.26"/>
</a>
</g>
</g>
<!-- Node3&#45;&gt;Node11 -->
<g id="edge10_Node000003_Node000011" class="edge">
<title>Node3&#45;&gt;Node11</title>
<g id="a_edge10_Node000003_Node000011"><a xlink:title=" ">
<path fill="none" stroke="#63b8ff" d="M452.81,-67.2C555.49,-63.4 768.71,-52.13 957.17,-18.92"/>
<polygon fill="#63b8ff" stroke="#63b8ff" points="958.03,-22.32 967.26,-17.11 956.8,-15.43 958.03,-22.32"/>
</a>
</g>
</g>
<!-- Node3&#45;&gt;Node12 -->
<g id="edge11_Node000003_Node000012" class="edge">
<title>Node3&#45;&gt;Node12</title>
<g id="a_edge11_Node000003_Node000012"><a xlink:title=" ">
<path fill="none" stroke="#63b8ff" d="M452.72,-62.36C520.91,-54.5 634.55,-40.01 741.76,-18.94"/>
<polygon fill="#63b8ff" stroke="#63b8ff" points="742.65,-22.33 751.78,-16.94 741.29,-15.46 742.65,-22.33"/>
</a>
</g>
</g>
<!-- Node13 -->
<g id="Node000013" class="node">
<title>Node13</title>
<g id="a_Node000013"><a xlink:title=" ">
<polygon fill="#e0e0e0" stroke="#999999" points="435.5,-19 343.5,-19 343.5,0 435.5,0 435.5,-19"/>
<text text-anchor="middle" x="389.5" y="-7" font-family="Helvetica,sans-Serif" font-size="10.00">../utils/utils.hpp</text>
</a>
</g>
</g>
<!-- Node3&#45;&gt;Node13 -->
<g id="edge12_Node000003_Node000013" class="edge">
<title>Node3&#45;&gt;Node13</title>
<g id="a_edge12_Node000003_Node000013"><a xlink:title=" ">
<path fill="none" stroke="#63b8ff" d="M391.2,-60.37C390.93,-52.25 390.5,-39.81 390.15,-29.39"/>
<polygon fill="#63b8ff" stroke="#63b8ff" points="393.64,-29.04 389.8,-19.17 386.64,-29.28 393.64,-29.04"/>
</a>
</g>
</g>
<!-- Node14 -->
<g id="Node000014" class="node">
<title>Node14</title>
<g id="a_Node000014"><a xlink:title=" ">
<polygon fill="#e0e0e0" stroke="#999999" points="581,-19 454,-19 454,0 581,0 581,-19"/>
<text text-anchor="middle" x="517.5" y="-7" font-family="Helvetica,sans-Serif" font-size="10.00">../utils/parameters.hpp</text>
</a>
</g>
</g>
<!-- Node3&#45;&gt;Node14 -->
<g id="edge13_Node000003_Node000014" class="edge">
<title>Node3&#45;&gt;Node14</title>
<g id="a_edge13_Node000003_Node000014"><a xlink:title=" ">
<path fill="none" stroke="#63b8ff" d="M409.82,-60.49C430.91,-50.7 465.76,-34.52 490.08,-23.23"/>
<polygon fill="#63b8ff" stroke="#63b8ff" points="491.56,-26.4 499.16,-19.02 488.61,-20.05 491.56,-26.4"/>
</a>
</g>
</g>
<!-- Node17&#45;&gt;Node3 -->
<g id="edge21_Node000017_Node000003" class="edge">
<title>Node17&#45;&gt;Node3</title>
<g id="a_edge21_Node000017_Node000003"><a xlink:title=" ">
<path fill="none" stroke="#63b8ff" d="M264.17,-120.99C289.44,-111.07 331.41,-94.59 360.22,-83.28"/>
<polygon fill="#63b8ff" stroke="#63b8ff" points="361.78,-86.43 369.81,-79.52 359.22,-79.91 361.78,-86.43"/>
</a>
</g>
</g>
<!-- Node18&#45;&gt;Node3 -->
<g id="edge23_Node000018_Node000003" class="edge">
<title>Node18&#45;&gt;Node3</title>
<g id="a_edge23_Node000018_Node000003"><a xlink:title=" ">
<path fill="none" stroke="#63b8ff" d="M391.5,-120.87C391.5,-112.75 391.5,-100.31 391.5,-89.89"/>
<polygon fill="#63b8ff" stroke="#63b8ff" points="395,-89.67 391.5,-79.67 388,-89.67 395,-89.67"/>
</a>
</g>
</g>
<!-- Node20 -->
<g id="Node000020" class="node">
<title>Node20</title>
<g id="a_Node000020"><a xlink:href="nanoflann_8hpp.html" target="_top" xlink:title=" ">
<polygon fill="white" stroke="#666666" points="1770.5,-79.5 1684.5,-79.5 1684.5,-60.5 1770.5,-60.5 1770.5,-79.5"/>
<text text-anchor="middle" x="1727.5" y="-67.5" font-family="Helvetica,sans-Serif" font-size="10.00">nanoflann.hpp</text>
</a>
</g>
</g>
<!-- Node19&#45;&gt;Node20 -->
<g id="edge25_Node000019_Node000020" class="edge">
<title>Node19&#45;&gt;Node20</title>
<g id="a_edge25_Node000019_Node000020"><a xlink:title=" ">
<path fill="none" stroke="#63b8ff" d="M939.52,-124.26C955.38,-123.18 971.98,-122.05 987.5,-121 1244.65,-103.57 1552.08,-82.83 1673.95,-74.61"/>
<polygon fill="#63b8ff" stroke="#63b8ff" points="1674.39,-78.09 1684.13,-73.92 1673.91,-71.1 1674.39,-78.09"/>
</a>
</g>
</g>
<!-- Node19&#45;&gt;Node32 -->
<g id="edge40_Node000019_Node000032" class="edge">
<title>Node19&#45;&gt;Node32</title>
<g id="a_edge40_Node000019_Node000032"><a xlink:title=" ">
<path fill="none" stroke="#63b8ff" d="M862.5,-120.87C862.5,-112.75 862.5,-100.31 862.5,-89.89"/>
<polygon fill="#63b8ff" stroke="#63b8ff" points="866,-89.67 862.5,-79.67 859,-89.67 866,-89.67"/>
</a>
</g>
</g>
<!-- Node20&#45;&gt;Node12 -->
<g id="edge39_Node000020_Node000012" class="edge">
<title>Node20&#45;&gt;Node12</title>
<g id="a_edge39_Node000020_Node000012"><a xlink:title=" ">
<path fill="none" stroke="#63b8ff" d="M1684.38,-66.33C1637.43,-63.44 1560.14,-58.74 1493.5,-55 1192.39,-38.08 1111.56,-64.67 809.11,-18.72"/>
<polygon fill="#63b8ff" stroke="#63b8ff" points="809.59,-15.26 799.18,-17.2 808.53,-22.18 809.59,-15.26"/>
</a>
</g>
</g>
<!-- Node20&#45;&gt;Node15 -->
<g id="edge26_Node000020_Node000015" class="edge">
<title>Node20&#45;&gt;Node15</title>
<g id="a_edge26_Node000020_Node000015"><a xlink:title=" ">
<path fill="none" stroke="#63b8ff" d="M1744.32,-60.37C1763.1,-50.73 1793.7,-35.03 1815.55,-23.81"/>
<polygon fill="#63b8ff" stroke="#63b8ff" points="1817.31,-26.85 1824.61,-19.17 1814.11,-20.62 1817.31,-26.85"/>
</a>
</g>
</g>
<!-- Node20&#45;&gt;Node16 -->
<g id="edge29_Node000020_Node000016" class="edge">
<title>Node20&#45;&gt;Node16</title>
<g id="a_edge29_Node000020_Node000016"><a xlink:title=" ">
<path fill="none" stroke="#63b8ff" d="M1755.61,-60.49C1763.59,-58.38 1772.33,-56.33 1780.5,-55 2019.83,-15.96 2087.62,-55.05 2331,-18.94"/>
<polygon fill="#63b8ff" stroke="#63b8ff" points="2331.86,-22.35 2341.22,-17.4 2330.81,-15.43 2331.86,-22.35"/>
</a>
</g>
</g>
<!-- Node21 -->
<g id="Node000021" class="node">
<title>Node21</title>
<g id="a_Node000021"><a xlink:title=" ">
<polygon fill="#e0e0e0" stroke="#999999" points="1071.5,-19 1029.5,-19 1029.5,0 1071.5,0 1071.5,-19"/>
<text text-anchor="middle" x="1050.5" y="-7" font-family="Helvetica,sans-Serif" font-size="10.00">array</text>
</a>
</g>
</g>
<!-- Node20&#45;&gt;Node21 -->
<g id="edge27_Node000020_Node000021" class="edge">
<title>Node20&#45;&gt;Node21</title>
<g id="a_edge27_Node000020_Node000021"><a xlink:title=" ">
<path fill="none" stroke="#63b8ff" d="M1684.35,-66.17C1554.75,-57.59 1172.76,-31.79 1081.73,-18.68"/>
<polygon fill="#63b8ff" stroke="#63b8ff" points="1082.11,-15.19 1071.68,-17.07 1081,-22.11 1082.11,-15.19"/>
</a>
</g>
</g>
<!-- Node22 -->
<g id="Node000022" class="node">
<title>Node22</title>
<g id="a_Node000022"><a xlink:title=" ">
<polygon fill="#e0e0e0" stroke="#999999" points="1941.5,-19 1891.5,-19 1891.5,0 1941.5,0 1941.5,-19"/>
<text text-anchor="middle" x="1916.5" y="-7" font-family="Helvetica,sans-Serif" font-size="10.00">atomic</text>
</a>
</g>
</g>
<!-- Node20&#45;&gt;Node22 -->
<g id="edge28_Node000020_Node000022" class="edge">
<title>Node20&#45;&gt;Node22</title>
<g id="a_edge28_Node000020_Node000022"><a xlink:title=" ">
<path fill="none" stroke="#63b8ff" d="M1754.98,-60.49C1788.48,-50.12 1845.14,-32.59 1881.67,-21.28"/>
<polygon fill="#63b8ff" stroke="#63b8ff" points="1882.88,-24.57 1891.4,-18.27 1880.81,-17.88 1882.88,-24.57"/>
</a>
</g>
</g>
<!-- Node23 -->
<g id="Node000023" class="node">
<title>Node23</title>
<g id="a_Node000023"><a xlink:title=" ">
<polygon fill="#e0e0e0" stroke="#999999" points="2007,-19 1960,-19 1960,0 2007,0 2007,-19"/>
<text text-anchor="middle" x="1983.5" y="-7" font-family="Helvetica,sans-Serif" font-size="10.00">cmath</text>
</a>
</g>
</g>
<!-- Node20&#45;&gt;Node23 -->
<g id="edge30_Node000020_Node000023" class="edge">
<title>Node20&#45;&gt;Node23</title>
<g id="a_edge30_Node000020_Node000023"><a xlink:title=" ">
<path fill="none" stroke="#63b8ff" d="M1758.82,-60.45C1765.93,-58.59 1773.46,-56.67 1780.5,-55 1852.55,-37.87 1873.6,-36.71 1949.67,-19.1"/>
<polygon fill="#63b8ff" stroke="#63b8ff" points="1950.8,-22.43 1959.74,-16.75 1949.2,-15.62 1950.8,-22.43"/>
</a>
</g>
</g>
<!-- Node24 -->
<g id="Node000024" class="node">
<title>Node24</title>
<g id="a_Node000024"><a xlink:title=" ">
<polygon fill="#e0e0e0" stroke="#999999" points="1625,-19 1576,-19 1576,0 1625,0 1625,-19"/>
<text text-anchor="middle" x="1600.5" y="-7" font-family="Helvetica,sans-Serif" font-size="10.00">cstdlib</text>
</a>
</g>
</g>
<!-- Node20&#45;&gt;Node24 -->
<g id="edge31_Node000020_Node000024" class="edge">
<title>Node20&#45;&gt;Node24</title>
<g id="a_edge31_Node000020_Node000024"><a xlink:title=" ">
<path fill="none" stroke="#63b8ff" d="M1709.03,-60.49C1687.78,-50.7 1652.65,-34.52 1628.13,-23.23"/>
<polygon fill="#63b8ff" stroke="#63b8ff" points="1629.54,-20.02 1618.99,-19.02 1626.61,-26.38 1629.54,-20.02"/>
</a>
</g>
</g>
<!-- Node25 -->
<g id="Node000025" class="node">
<title>Node25</title>
<g id="a_Node000025"><a xlink:title=" ">
<polygon fill="#e0e0e0" stroke="#999999" points="1708,-19 1643,-19 1643,0 1708,0 1708,-19"/>
<text text-anchor="middle" x="1675.5" y="-7" font-family="Helvetica,sans-Serif" font-size="10.00">functional</text>
</a>
</g>
</g>
<!-- Node20&#45;&gt;Node25 -->
<g id="edge32_Node000020_Node000025" class="edge">
<title>Node20&#45;&gt;Node25</title>
<g id="a_edge32_Node000020_Node000025"><a xlink:title=" ">
<path fill="none" stroke="#63b8ff" d="M1719.83,-60.37C1711.99,-51.55 1699.64,-37.66 1689.96,-26.77"/>
<polygon fill="#63b8ff" stroke="#63b8ff" points="1692.46,-24.32 1683.2,-19.17 1687.23,-28.97 1692.46,-24.32"/>
</a>
</g>
</g>
<!-- Node26 -->
<g id="Node000026" class="node">
<title>Node26</title>
<g id="a_Node000026"><a xlink:title=" ">
<polygon fill="#e0e0e0" stroke="#999999" points="2071.5,-19 2025.5,-19 2025.5,0 2071.5,0 2071.5,-19"/>
<text text-anchor="middle" x="2048.5" y="-7" font-family="Helvetica,sans-Serif" font-size="10.00">future</text>
</a>
</g>
</g>
<!-- Node20&#45;&gt;Node26 -->
<g id="edge33_Node000020_Node000026" class="edge">
<title>Node20&#45;&gt;Node26</title>
<g id="a_edge33_Node000020_Node000026"><a xlink:title=" ">
<path fill="none" stroke="#63b8ff" d="M1757.64,-60.44C1765.07,-58.5 1773.05,-56.55 1780.5,-55 1881.24,-34.07 1910.85,-40.24 2015.48,-19"/>
<polygon fill="#63b8ff" stroke="#63b8ff" points="2016.41,-22.38 2025.5,-16.93 2015,-15.52 2016.41,-22.38"/>
</a>
</g>
</g>
<!-- Node27 -->
<g id="Node000027" class="node">
<title>Node27</title>
<g id="a_Node000027"><a xlink:title=" ">
<polygon fill="#e0e0e0" stroke="#999999" points="2143.5,-19 2089.5,-19 2089.5,0 2143.5,0 2143.5,-19"/>
<text text-anchor="middle" x="2116.5" y="-7" font-family="Helvetica,sans-Serif" font-size="10.00">istream</text>
</a>
</g>
</g>
<!-- Node20&#45;&gt;Node27 -->
<g id="edge34_Node000020_Node000027" class="edge">
<title>Node20&#45;&gt;Node27</title>
<g id="a_edge34_Node000020_Node000027"><a xlink:title=" ">
<path fill="none" stroke="#63b8ff" d="M1756.77,-60.49C1764.44,-58.48 1772.74,-56.48 1780.5,-55 1909.18,-30.41 1946.47,-41.87 2079.29,-19.01"/>
<polygon fill="#63b8ff" stroke="#63b8ff" points="2080.2,-22.41 2089.44,-17.23 2078.99,-15.51 2080.2,-22.41"/>
</a>
</g>
</g>
<!-- Node28 -->
<g id="Node000028" class="node">
<title>Node28</title>
<g id="a_Node000028"><a xlink:title=" ">
<polygon fill="#e0e0e0" stroke="#999999" points="1339.5,-19 1295.5,-19 1295.5,0 1339.5,0 1339.5,-19"/>
<text text-anchor="middle" x="1317.5" y="-7" font-family="Helvetica,sans-Serif" font-size="10.00">limits</text>
</a>
</g>
</g>
<!-- Node20&#45;&gt;Node28 -->
<g id="edge35_Node000020_Node000028" class="edge">
<title>Node20&#45;&gt;Node28</title>
<g id="a_edge35_Node000020_Node000028"><a xlink:title=" ">
<path fill="none" stroke="#63b8ff" d="M1684.27,-65.23C1615.37,-58.81 1476.31,-44.12 1349.64,-18.98"/>
<polygon fill="#63b8ff" stroke="#63b8ff" points="1350.26,-15.54 1339.76,-17 1348.88,-22.4 1350.26,-15.54"/>
</a>
</g>
</g>
<!-- Node29 -->
<g id="Node000029" class="node">
<title>Node29</title>
<g id="a_Node000029"><a xlink:title=" ">
<polygon fill="#e0e0e0" stroke="#999999" points="2219,-19 2162,-19 2162,0 2219,0 2219,-19"/>
<text text-anchor="middle" x="2190.5" y="-7" font-family="Helvetica,sans-Serif" font-size="10.00">ostream</text>
</a>
</g>
</g>
<!-- Node20&#45;&gt;Node29 -->
<g id="edge36_Node000020_Node000029" class="edge">
<title>Node20&#45;&gt;Node29</title>
<g id="a_edge36_Node000020_Node000029"><a xlink:title=" ">
<path fill="none" stroke="#63b8ff" d="M1756.47,-60.44C1764.22,-58.4 1772.63,-56.41 1780.5,-55 1940.81,-26.27 1986.69,-44.44 2151.92,-18.87"/>
<polygon fill="#63b8ff" stroke="#63b8ff" points="2152.61,-22.3 2161.94,-17.29 2151.52,-15.39 2152.61,-22.3"/>
</a>
</g>
</g>
<!-- Node30 -->
<g id="Node000030" class="node">
<title>Node30</title>
<g id="a_Node000030"><a xlink:title=" ">
<polygon fill="#e0e0e0" stroke="#999999" points="1791,-19 1726,-19 1726,0 1791,0 1791,-19"/>
<text text-anchor="middle" x="1758.5" y="-7" font-family="Helvetica,sans-Serif" font-size="10.00">stdexcept</text>
</a>
</g>
</g>
<!-- Node20&#45;&gt;Node30 -->
<g id="edge37_Node000020_Node000030" class="edge">
<title>Node20&#45;&gt;Node30</title>
<g id="a_edge37_Node000020_Node000030"><a xlink:title=" ">
<path fill="none" stroke="#63b8ff" d="M1732.07,-60.37C1736.56,-51.9 1743.53,-38.74 1749.19,-28.07"/>
<polygon fill="#63b8ff" stroke="#63b8ff" points="1752.32,-29.64 1753.91,-19.17 1746.13,-26.36 1752.32,-29.64"/>
</a>
</g>
</g>
<!-- Node31 -->
<g id="Node000031" class="node">
<title>Node31</title>
<g id="a_Node000031"><a xlink:title=" ">
<polygon fill="#e0e0e0" stroke="#999999" points="2323.5,-19 2237.5,-19 2237.5,0 2323.5,0 2323.5,-19"/>
<text text-anchor="middle" x="2280.5" y="-7" font-family="Helvetica,sans-Serif" font-size="10.00">unordered_set</text>
</a>
</g>
</g>
<!-- Node20&#45;&gt;Node31 -->
<g id="edge38_Node000020_Node000031" class="edge">
<title>Node20&#45;&gt;Node31</title>
<g id="a_edge38_Node000020_Node000031"><a xlink:title=" ">
<path fill="none" stroke="#63b8ff" d="M1756.18,-60.43C1764,-58.36 1772.53,-56.36 1780.5,-55 1974.13,-21.92 2028.42,-42.42 2227.22,-19.04"/>
<polygon fill="#63b8ff" stroke="#63b8ff" points="2227.9,-22.49 2237.41,-17.82 2227.06,-15.54 2227.9,-22.49"/>
</a>
</g>
</g>
<!-- Node32&#45;&gt;Node5 -->
<g id="edge42_Node000032_Node000005" class="edge">
<title>Node32&#45;&gt;Node5</title>
<g id="a_edge42_Node000032_Node000005"><a xlink:title=" ">
<path fill="none" stroke="#63b8ff" d="M820.63,-68.43C714.78,-66.47 427.86,-57.83 180.54,-18.88"/>
<polygon fill="#63b8ff" stroke="#63b8ff" points="181.08,-15.42 170.65,-17.3 179.98,-22.33 181.08,-15.42"/>
</a>
</g>
</g>
<!-- Node32&#45;&gt;Node10 -->
<g id="edge44_Node000032_Node000010" class="edge">
<title>Node32&#45;&gt;Node10</title>
<g id="a_edge44_Node000032_Node000010"><a xlink:title=" ">
<path fill="none" stroke="#63b8ff" d="M828.33,-60.49C785.1,-49.73 710.88,-31.26 665.79,-20.03"/>
<polygon fill="#63b8ff" stroke="#63b8ff" points="666.36,-16.57 655.81,-17.55 664.67,-23.36 666.36,-16.57"/>
</a>
</g>
</g>
<!-- Node32&#45;&gt;Node21 -->
<g id="edge41_Node000032_Node000021" class="edge">
<title>Node32&#45;&gt;Node21</title>
<g id="a_edge41_Node000032_Node000021"><a xlink:title=" ">
<path fill="none" stroke="#63b8ff" d="M889.84,-60.49C924.22,-49.79 983.13,-31.46 1019.27,-20.22"/>
<polygon fill="#63b8ff" stroke="#63b8ff" points="1020.74,-23.42 1029.25,-17.11 1018.66,-16.74 1020.74,-23.42"/>
</a>
</g>
</g>
<!-- Node32&#45;&gt;Node28 -->
<g id="edge43_Node000032_Node000028" class="edge">
<title>Node32&#45;&gt;Node28</title>
<g id="a_edge43_Node000032_Node000028"><a xlink:title=" ">
<path fill="none" stroke="#63b8ff" d="M904.05,-66.18C978.64,-60.68 1140.25,-46.7 1285.27,-18.97"/>
<polygon fill="#63b8ff" stroke="#63b8ff" points="1286.09,-22.37 1295.24,-17.03 1284.76,-15.5 1286.09,-22.37"/>
</a>
</g>
</g>
<!-- Node33 -->
<g id="Node000033" class="node">
<title>Node33</title>
<g id="a_Node000033"><a xlink:title=" ">
<polygon fill="#e0e0e0" stroke="#999999" points="949.5,-19 893.5,-19 893.5,0 949.5,0 949.5,-19"/>
<text text-anchor="middle" x="921.5" y="-7" font-family="Helvetica,sans-Serif" font-size="10.00">iomanip</text>
</a>
</g>
</g>
<!-- Node32&#45;&gt;Node33 -->
<g id="edge45_Node000032_Node000033" class="edge">
<title>Node32&#45;&gt;Node33</title>
<g id="a_edge45_Node000032_Node000033"><a xlink:title=" ">
<path fill="none" stroke="#63b8ff" d="M871.21,-60.37C880.18,-51.47 894.38,-37.39 905.41,-26.45"/>
<polygon fill="#63b8ff" stroke="#63b8ff" points="908.12,-28.69 912.76,-19.17 903.19,-23.72 908.12,-28.69"/>
</a>
</g>
</g>
<!-- Node34&#45;&gt;Node3 -->
<g id="edge47_Node000034_Node000003" class="edge">
<title>Node34&#45;&gt;Node3</title>
<g id="a_edge47_Node000034_Node000003"><a xlink:title=" ">
<path fill="none" stroke="#63b8ff" d="M517.98,-120.99C492.88,-111.07 451.18,-94.59 422.57,-83.28"/>
<polygon fill="#63b8ff" stroke="#63b8ff" points="423.63,-79.94 413.05,-79.52 421.06,-86.45 423.63,-79.94"/>
</a>
</g>
</g>
<!-- Node35&#45;&gt;Node3 -->
<g id="edge63_Node000035_Node000003" class="edge">
<title>Node35&#45;&gt;Node3</title>
<g id="a_edge63_Node000035_Node000003"><a xlink:title=" ">
<path fill="none" stroke="#63b8ff" d="M635.06,-120.99C584.19,-110.55 497.93,-92.85 442.89,-81.55"/>
<polygon fill="#63b8ff" stroke="#63b8ff" points="443.49,-78.1 432.99,-79.52 442.08,-84.96 443.49,-78.1"/>
</a>
</g>
</g>
<!-- Node35&#45;&gt;Node5 -->
<g id="edge49_Node000035_Node000005" class="edge">
<title>Node35&#45;&gt;Node5</title>
<g id="a_edge49_Node000035_Node000005"><a xlink:title=" ">
<path fill="none" stroke="#63b8ff" d="M623.95,-122.02C621.09,-121.66 618.26,-121.32 615.5,-121 529.26,-111.01 305.84,-120.24 226.5,-85 197.95,-72.32 172.83,-45.45 158.4,-27.68"/>
<polygon fill="#63b8ff" stroke="#63b8ff" points="160.79,-25.06 151.87,-19.35 155.28,-29.38 160.79,-25.06"/>
</a>
</g>
</g>
<!-- Node35&#45;&gt;Node12 -->
<g id="edge50_Node000035_Node000012" class="edge">
<title>Node35&#45;&gt;Node12</title>
<g id="a_edge50_Node000035_Node000012"><a xlink:title=" ">
<path fill="none" stroke="#63b8ff" d="M683.62,-120.94C699.95,-101.31 740.34,-52.76 761.72,-27.07"/>
<polygon fill="#63b8ff" stroke="#63b8ff" points="764.47,-29.23 768.18,-19.3 759.09,-24.75 764.47,-29.23"/>
</a>
</g>
</g>
<!-- Node35&#45;&gt;Node32 -->
<g id="edge62_Node000035_Node000032" class="edge">
<title>Node35&#45;&gt;Node32</title>
<g id="a_edge62_Node000035_Node000032"><a xlink:title=" ">
<path fill="none" stroke="#63b8ff" d="M703.55,-120.99C735.78,-110.86 789.79,-93.87 825.78,-82.55"/>
<polygon fill="#63b8ff" stroke="#63b8ff" points="826.93,-85.86 835.42,-79.52 824.83,-79.18 826.93,-85.86"/>
</a>
</g>
</g>
<!-- Node36 -->
<g id="Node000036" class="node">
<title>Node36</title>
<g id="a_Node000036"><a xlink:href="robin__hood_8h.html" target="_top" xlink:title=" ">
<polygon fill="white" stroke="#666666" points="1484,-85 1359,-85 1359,-55 1484,-55 1484,-85"/>
<text text-anchor="start" x="1367" y="-73" font-family="Helvetica,sans-Serif" font-size="10.00">patchGeneration/robin</text>
<text text-anchor="middle" x="1421.5" y="-62" font-family="Helvetica,sans-Serif" font-size="10.00">_hood.h</text>
</a>
</g>
</g>
<!-- Node35&#45;&gt;Node36 -->
<g id="edge51_Node000035_Node000036" class="edge">
<title>Node35&#45;&gt;Node36</title>
<g id="a_edge51_Node000035_Node000036"><a xlink:title=" ">
<path fill="none" stroke="#63b8ff" d="M729.16,-124.85C744.43,-123.55 761.12,-122.18 776.5,-121 1011.91,-103 1071.45,-107.27 1306.5,-85 1320.2,-83.7 1334.78,-82.1 1348.81,-80.44"/>
<polygon fill="#63b8ff" stroke="#63b8ff" points="1349.38,-83.9 1358.9,-79.24 1348.55,-76.95 1349.38,-83.9"/>
</a>
</g>
</g>
<!-- Node36&#45;&gt;Node7 -->
<g id="edge57_Node000036_Node000007" class="edge">
<title>Node36&#45;&gt;Node7</title>
<g id="a_edge57_Node000036_Node000007"><a xlink:title=" ">
<path fill="none" stroke="#63b8ff" d="M1358.88,-60.96C1341.9,-58.89 1323.5,-56.76 1306.5,-55 1122.55,-35.96 1072.31,-47.2 886.02,-19.03"/>
<polygon fill="#63b8ff" stroke="#63b8ff" points="886.3,-15.54 875.88,-17.48 885.24,-22.46 886.3,-15.54"/>
</a>
</g>
</g>
<!-- Node36&#45;&gt;Node11 -->
<g id="edge59_Node000036_Node000011" class="edge">
<title>Node36&#45;&gt;Node11</title>
<g id="a_edge59_Node000036_Node000011"><a xlink:title=" ">
<path fill="none" stroke="#63b8ff" d="M1358.66,-61.28C1258.49,-48.96 1069.67,-25.68 1021.91,-18.66"/>
<polygon fill="#63b8ff" stroke="#63b8ff" points="1022.19,-15.16 1011.76,-17.01 1021.07,-22.07 1022.19,-15.16"/>
</a>
</g>
</g>
<!-- Node36&#45;&gt;Node15 -->
<g id="edge52_Node000036_Node000015" class="edge">
<title>Node36&#45;&gt;Node15</title>
<g id="a_edge52_Node000036_Node000015"><a xlink:title=" ">
<path fill="none" stroke="#63b8ff" d="M1484.08,-62.17C1557.26,-53.86 1682.25,-38.68 1799.12,-19.13"/>
<polygon fill="#63b8ff" stroke="#63b8ff" points="1800.04,-22.52 1809.31,-17.41 1798.87,-15.62 1800.04,-22.52"/>
</a>
</g>
</g>
<!-- Node36&#45;&gt;Node24 -->
<g id="edge53_Node000036_Node000024" class="edge">
<title>Node36&#45;&gt;Node24</title>
<g id="a_edge53_Node000036_Node000024"><a xlink:title=" ">
<path fill="none" stroke="#63b8ff" d="M1464.37,-54.99C1495.55,-44.8 1537.21,-31.18 1566.19,-21.71"/>
<polygon fill="#63b8ff" stroke="#63b8ff" points="1567.46,-24.98 1575.88,-18.55 1565.29,-18.33 1567.46,-24.98"/>
</a>
</g>
</g>
<!-- Node36&#45;&gt;Node25 -->
<g id="edge55_Node000036_Node000025" class="edge">
<title>Node36&#45;&gt;Node25</title>
<g id="a_edge55_Node000036_Node000025"><a xlink:title=" ">
<path fill="none" stroke="#63b8ff" d="M1482.34,-54.99C1528.75,-44.3 1591.51,-29.84 1632.72,-20.35"/>
<polygon fill="#63b8ff" stroke="#63b8ff" points="1633.75,-23.71 1642.71,-18.05 1632.18,-16.89 1633.75,-23.71"/>
</a>
</g>
</g>
<!-- Node36&#45;&gt;Node28 -->
<g id="edge56_Node000036_Node000028" class="edge">
<title>Node36&#45;&gt;Node28</title>
<g id="a_edge56_Node000036_Node000028"><a xlink:title=" ">
<path fill="none" stroke="#63b8ff" d="M1396.59,-54.99C1380.01,-45.66 1358.34,-33.47 1341.87,-24.21"/>
<polygon fill="#63b8ff" stroke="#63b8ff" points="1343.29,-20.99 1332.86,-19.14 1339.86,-27.09 1343.29,-20.99"/>
</a>
</g>
</g>
<!-- Node36&#45;&gt;Node30 -->
<g id="edge58_Node000036_Node000030" class="edge">
<title>Node36&#45;&gt;Node30</title>
<g id="a_edge58_Node000036_Node000030"><a xlink:title=" ">
<path fill="none" stroke="#63b8ff" d="M1484.27,-59.09C1542.05,-49.81 1630.36,-35.23 1715.96,-19.24"/>
<polygon fill="#63b8ff" stroke="#63b8ff" points="1716.67,-22.67 1725.85,-17.38 1715.37,-15.79 1716.67,-22.67"/>
</a>
</g>
</g>
<!-- Node37 -->
<g id="Node000037" class="node">
<title>Node37</title>
<g id="a_Node000037"><a xlink:title=" ">
<polygon fill="#e0e0e0" stroke="#999999" points="1407.5,-19 1357.5,-19 1357.5,0 1407.5,0 1407.5,-19"/>
<text text-anchor="middle" x="1382.5" y="-7" font-family="Helvetica,sans-Serif" font-size="10.00">cstring</text>
</a>
</g>
</g>
<!-- Node36&#45;&gt;Node37 -->
<g id="edge54_Node000036_Node000037" class="edge">
<title>Node36&#45;&gt;Node37</title>
<g id="a_edge54_Node000036_Node000037"><a xlink:title=" ">
<path fill="none" stroke="#63b8ff" d="M1412.06,-54.84C1406.63,-46.69 1399.77,-36.4 1394.02,-27.78"/>
<polygon fill="#63b8ff" stroke="#63b8ff" points="1396.8,-25.65 1388.34,-19.27 1390.98,-29.53 1396.8,-25.65"/>
</a>
</g>
</g>
<!-- Node38 -->
<g id="Node000038" class="node">
<title>Node38</title>
<g id="a_Node000038"><a xlink:title=" ">
<polygon fill="#e0e0e0" stroke="#999999" points="1495,-19 1426,-19 1426,0 1495,0 1495,-19"/>
<text text-anchor="middle" x="1460.5" y="-7" font-family="Helvetica,sans-Serif" font-size="10.00">type_traits</text>
</a>
</g>
</g>
<!-- Node36&#45;&gt;Node38 -->
<g id="edge60_Node000036_Node000038" class="edge">
<title>Node36&#45;&gt;Node38</title>
<g id="a_edge60_Node000036_Node000038"><a xlink:title=" ">
<path fill="none" stroke="#63b8ff" d="M1430.94,-54.84C1436.37,-46.69 1443.23,-36.4 1448.98,-27.78"/>
<polygon fill="#63b8ff" stroke="#63b8ff" points="1452.02,-29.53 1454.66,-19.27 1446.2,-25.65 1452.02,-29.53"/>
</a>
</g>
</g>
<!-- Node39 -->
<g id="Node000039" class="node">
<title>Node39</title>
<g id="a_Node000039"><a xlink:title=" ">
<polygon fill="#e0e0e0" stroke="#999999" points="1558,-19 1513,-19 1513,0 1558,0 1558,-19"/>
<text text-anchor="middle" x="1535.5" y="-7" font-family="Helvetica,sans-Serif" font-size="10.00">utility</text>
</a>
</g>
</g>
<!-- Node36&#45;&gt;Node39 -->
<g id="edge61_Node000036_Node000039" class="edge">
<title>Node36&#45;&gt;Node39</title>
<g id="a_edge61_Node000036_Node000039"><a xlink:title=" ">
<path fill="none" stroke="#63b8ff" d="M1448.81,-54.99C1467.15,-45.58 1491.18,-33.24 1509.29,-23.95"/>
<polygon fill="#63b8ff" stroke="#63b8ff" points="1511.37,-26.82 1518.66,-19.14 1508.17,-20.59 1511.37,-26.82"/>
</a>
</g>
</g>
<!-- Node40&#45;&gt;Node5 -->
<g id="edge73_Node000040_Node000005" class="edge">
<title>Node40&#45;&gt;Node5</title>
<g id="a_edge73_Node000040_Node000005"><a xlink:title=" ">
<path fill="none" stroke="#63b8ff" d="M995.91,-124.27C980.31,-123.15 963.84,-122 948.5,-121 669.96,-102.89 593.35,-148.33 321.5,-85 264.74,-71.78 203,-41.62 169.85,-24"/>
<polygon fill="#63b8ff" stroke="#63b8ff" points="171.36,-20.84 160.9,-19.18 168.04,-27 171.36,-20.84"/>
</a>
</g>
</g>
<!-- Node40&#45;&gt;Node12 -->
<g id="edge75_Node000040_Node000012" class="edge">
<title>Node40&#45;&gt;Node12</title>
<g id="a_edge75_Node000040_Node000012"><a xlink:title=" ">
<path fill="none" stroke="#63b8ff" d="M1058.44,-120.76C1045.16,-104.95 1014.77,-71.71 981.5,-55 914.06,-21.13 887.12,-35.55 809.04,-18.95"/>
<polygon fill="#63b8ff" stroke="#63b8ff" points="809.78,-15.53 799.26,-16.76 808.26,-22.36 809.78,-15.53"/>
</a>
</g>
</g>
<!-- Node40&#45;&gt;Node32 -->
<g id="edge65_Node000040_Node000032" class="edge">
<title>Node40&#45;&gt;Node32</title>
<g id="a_edge65_Node000040_Node000032"><a xlink:title=" ">
<path fill="none" stroke="#63b8ff" d="M1035.98,-120.99C1000.58,-110.79 941.1,-93.65 901.82,-82.33"/>
<polygon fill="#63b8ff" stroke="#63b8ff" points="902.63,-78.92 892.05,-79.52 900.69,-85.65 902.63,-78.92"/>
</a>
</g>
</g>
<!-- Node40&#45;&gt;Node36 -->
<g id="edge76_Node000040_Node000036" class="edge">
<title>Node40&#45;&gt;Node36</title>
<g id="a_edge76_Node000040_Node000036"><a xlink:title=" ">
<path fill="none" stroke="#63b8ff" d="M1117.27,-120.99C1178.29,-110.97 1280.09,-94.24 1348.96,-82.92"/>
<polygon fill="#63b8ff" stroke="#63b8ff" points="1349.57,-86.37 1358.87,-81.29 1348.44,-79.46 1349.57,-86.37"/>
</a>
</g>
</g>
<!-- Node40&#45;&gt;Node41 -->
<g id="edge66_Node000040_Node000041" class="edge">
<title>Node40&#45;&gt;Node41</title>
<g id="a_edge66_Node000040_Node000041"><a xlink:title=" ">
<path fill="none" stroke="#63b8ff" d="M1092.26,-120.99C1124.14,-110.86 1177.57,-93.87 1213.18,-82.55"/>
<polygon fill="#63b8ff" stroke="#63b8ff" points="1214.24,-85.88 1222.71,-79.52 1212.12,-79.21 1214.24,-85.88"/>
</a>
</g>
</g>
<!-- Node45 -->
<g id="Node000045" class="node">
<title>Node45</title>
<g id="a_Node000045"><a xlink:title=" ">
<polygon fill="#e0e0e0" stroke="#999999" points="1844,-79.5 1789,-79.5 1789,-60.5 1844,-60.5 1844,-79.5"/>
<text text-anchor="middle" x="1816.5" y="-67.5" font-family="Helvetica,sans-Serif" font-size="10.00">fstream</text>
</a>
</g>
</g>
<!-- Node40&#45;&gt;Node45 -->
<g id="edge74_Node000040_Node000045" class="edge">
<title>Node40&#45;&gt;Node45</title>
<g id="a_edge74_Node000040_Node000045"><a xlink:title=" ">
<path fill="none" stroke="#63b8ff" d="M1135.04,-127.81C1289.67,-123.62 1657.93,-111.16 1779.5,-85 1782.18,-84.42 1784.92,-83.69 1787.64,-82.85"/>
<polygon fill="#63b8ff" stroke="#63b8ff" points="1788.94,-86.11 1797.24,-79.53 1786.65,-79.49 1788.94,-86.11"/>
</a>
</g>
</g>
<!-- Node41&#45;&gt;Node6 -->
<g id="edge70_Node000041_Node000006" class="edge">
<title>Node41&#45;&gt;Node6</title>
<g id="a_edge70_Node000041_Node000006"><a xlink:title=" ">
<path fill="none" stroke="#63b8ff" d="M1201.49,-66.04C1111.34,-60.08 910.77,-44.95 743.5,-19 743.4,-18.98 743.3,-18.97 743.2,-18.95"/>
<polygon fill="#63b8ff" stroke="#63b8ff" points="744.03,-15.55 733.57,-17.26 742.82,-22.44 744.03,-15.55"/>
</a>
</g>
</g>
<!-- Node41&#45;&gt;Node11 -->
<g id="edge71_Node000041_Node000011" class="edge">
<title>Node41&#45;&gt;Node11</title>
<g id="a_edge71_Node000041_Node000011"><a xlink:title=" ">
<path fill="none" stroke="#63b8ff" d="M1211.81,-60.43C1203.79,-58.62 1195.37,-56.74 1187.5,-55 1116.4,-39.31 1095.91,-37.2 1021.65,-19.18"/>
<polygon fill="#63b8ff" stroke="#63b8ff" points="1022.36,-15.75 1011.81,-16.78 1020.7,-22.55 1022.36,-15.75"/>
</a>
</g>
</g>
<!-- Node41&#45;&gt;Node33 -->
<g id="edge69_Node000041_Node000033" class="edge">
<title>Node41&#45;&gt;Node33</title>
<g id="a_edge69_Node000041_Node000033"><a xlink:title=" ">
<path fill="none" stroke="#63b8ff" d="M1201.46,-61.59C1145.67,-52.79 1050.67,-37.23 959.68,-19.15"/>
<polygon fill="#63b8ff" stroke="#63b8ff" points="960.24,-15.69 949.75,-17.16 958.87,-22.55 960.24,-15.69"/>
</a>
</g>
</g>
<!-- Node42 -->
<g id="Node000042" class="node">
<title>Node42</title>
<g id="a_Node000042"><a xlink:title=" ">
<polygon fill="#e0e0e0" stroke="#999999" points="1139.5,-19 1089.5,-19 1089.5,0 1139.5,0 1139.5,-19"/>
<text text-anchor="middle" x="1114.5" y="-7" font-family="Helvetica,sans-Serif" font-size="10.00">chrono</text>
</a>
</g>
</g>
<!-- Node41&#45;&gt;Node42 -->
<g id="edge67_Node000041_Node000042" class="edge">
<title>Node41&#45;&gt;Node42</title>
<g id="a_edge67_Node000041_Node000042"><a xlink:title=" ">
<path fill="none" stroke="#63b8ff" d="M1229.87,-60.49C1207.17,-50.66 1169.6,-34.38 1143.53,-23.08"/>
<polygon fill="#63b8ff" stroke="#63b8ff" points="1144.72,-19.78 1134.15,-19.02 1141.94,-26.2 1144.72,-19.78"/>
</a>
</g>
</g>
<!-- Node43 -->
<g id="Node000043" class="node">
<title>Node43</title>
<g id="a_Node000043"><a xlink:title=" ">
<polygon fill="#e0e0e0" stroke="#999999" points="1211,-19 1158,-19 1158,0 1211,0 1211,-19"/>
<text text-anchor="middle" x="1184.5" y="-7" font-family="Helvetica,sans-Serif" font-size="10.00">cstdarg</text>
</a>
</g>
</g>
<!-- Node41&#45;&gt;Node43 -->
<g id="edge68_Node000041_Node000043" class="edge">
<title>Node41&#45;&gt;Node43</title>
<g id="a_edge68_Node000041_Node000043"><a xlink:title=" ">
<path fill="none" stroke="#63b8ff" d="M1239.91,-60.37C1229.92,-51.38 1214.07,-37.11 1201.87,-26.14"/>
<polygon fill="#63b8ff" stroke="#63b8ff" points="1203.9,-23.26 1194.13,-19.17 1199.22,-28.46 1203.9,-23.26"/>
</a>
</g>
</g>
<!-- Node44 -->
<g id="Node000044" class="node">
<title>Node44</title>
<g id="a_Node000044"><a xlink:title=" ">
<polygon fill="#e0e0e0" stroke="#999999" points="1277.5,-19 1229.5,-19 1229.5,0 1277.5,0 1277.5,-19"/>
<text text-anchor="middle" x="1253.5" y="-7" font-family="Helvetica,sans-Serif" font-size="10.00">mutex</text>
</a>
</g>
</g>
<!-- Node41&#45;&gt;Node44 -->
<g id="edge72_Node000041_Node000044" class="edge">
<title>Node41&#45;&gt;Node44</title>
<g id="a_edge72_Node000041_Node000044"><a xlink:title=" ">
<path fill="none" stroke="#63b8ff" d="M1250.09,-60.37C1250.65,-52.25 1251.5,-39.81 1252.21,-29.39"/>
<polygon fill="#63b8ff" stroke="#63b8ff" points="1255.72,-29.38 1252.91,-19.17 1248.73,-28.91 1255.72,-29.38"/>
</a>
</g>
</g>
</g>
</svg>
