<?xml version="1.0" encoding="UTF-8" standalone="no"?>
<!DOCTYPE svg PUBLIC "-//W3C//DTD SVG 1.1//EN"
 "http://www.w3.org/Graphics/SVG/1.1/DTD/svg11.dtd">
<!-- Generated by graphviz version 2.43.0 (0)
 -->
<!-- Title: src/lib/patchGeneration/ppiSegmenter.cpp Pages: 1 -->
<!--zoomable 214 -->

<svg id="main" version="1.1" xmlns="http://www.w3.org/2000/svg" xmlns:xlink="http://www.w3.org/1999/xlink" xml:space="preserve" onload="init(evt)">
<style type="text/css"><![CDATA[
.node, .edge {opacity: 0.7;}
.node.selected, .edge.selected {opacity: 1;}
.edge:hover path { stroke: red; }
.edge:hover polygon { stroke: red; fill: red; }
]]></style>

<defs>
  <circle id="rim" cx="0" cy="0" r="7"/>
  <circle id="rim2" cx="0" cy="0" r="3.5"/>
  <g id="zoomPlus">
    <use xlink:href="#rim" fill="#404040"><set attributeName="fill" to="#808080" begin="zoomplus.mouseover" end="zoomplus.mouseout"/></use>
    <path d="M-4,0h8M0,-4v8" fill="none" stroke="white" stroke-width="1.5" pointer-events="none"/>
  </g>
  <g id="zoomMin">
    <use xlink:href="#rim" fill="#404040"><set attributeName="fill" to="#808080" begin="zoomminus.mouseover" end="zoomminus.mouseout"/></use>
    <path d="M-4,0h8" fill="none" stroke="white" stroke-width="1.5" pointer-events="none"/>
  </g>
  <g id="arrowUp" transform="translate(30 24)">
    <use xlink:href="#rim"/>
    <path pointer-events="none" fill="none" stroke="white" stroke-width="1.5" d="M0,-3.0v7 M-2.5,-0.5L0,-3.0L2.5,-0.5"/>
  </g>
  <g id="arrowRight" transform="rotate(90) translate(36 -43)">
    <use xlink:href="#rim"/>
    <path pointer-events="none" fill="none" stroke="white" stroke-width="1.5" d="M0,-3.0v7 M-2.5,-0.5L0,-3.0L2.5,-0.5"/>
  </g>
  <g id="arrowDown" transform="rotate(180) translate(-30 -48)">
    <use xlink:href="#rim"/>
    <path pointer-events="none" fill="none" stroke="white" stroke-width="1.5" d="M0,-3.0v7 M-2.5,-0.5L0,-3.0L2.5,-0.5"/>
  </g>
  <g id="arrowLeft" transform="rotate(270) translate(-36 17)">
    <use xlink:href="#rim"/>
    <path pointer-events="none" fill="none" stroke="white" stroke-width="1.5" d="M0,-3.0v7 M-2.5,-0.5L0,-3.0L2.5,-0.5"/>
  </g>
  <g id="resetDef">
    <use xlink:href="#rim2" fill="#404040"><set attributeName="fill" to="#808080" begin="reset.mouseover" end="reset.mouseout"/></use>
  </g>
</defs>
<script type="application/ecmascript">
var viewWidth = 1678;
var viewHeight = 214;
var sectionId = 'dynsection-0';
</script>
<script type="application/ecmascript" xlink:href="svg.min.js"/>
<svg id="graph" class="graph">
<g id="viewport">
<title>src/lib/patchGeneration/ppiSegmenter.cpp</title>
<!-- Node1 -->
<g id="Node000001" class="node">
<title>Node1</title>
<g id="a_Node000001"><a xlink:title=" ">
<polygon fill="#999999" stroke="#666666" points="765,-206 635,-206 635,-176 765,-176 765,-206"/>
<text text-anchor="start" x="643" y="-194" font-family="Helvetica,sans-Serif" font-size="10.00">src/lib/patchGeneration</text>
<text text-anchor="middle" x="700" y="-183" font-family="Helvetica,sans-Serif" font-size="10.00">/ppiSegmenter.cpp</text>
</a>
</g>
</g>
<!-- Node2 -->
<g id="Node000002" class="node">
<title>Node2</title>
<g id="a_Node000002"><a xlink:href="ppiSegmenter_8hpp.html" target="_top" xlink:title=" ">
<polygon fill="white" stroke="#666666" points="584.5,-140 479.5,-140 479.5,-121 584.5,-121 584.5,-140"/>
<text text-anchor="middle" x="532" y="-128" font-family="Helvetica,sans-Serif" font-size="10.00">ppiSegmenter.hpp</text>
</a>
</g>
</g>
<!-- Node1&#45;&gt;Node2 -->
<g id="edge1_Node000001_Node000002" class="edge">
<title>Node1&#45;&gt;Node2</title>
<g id="a_edge1_Node000001_Node000002"><a xlink:title=" ">
<path fill="none" stroke="#63b8ff" d="M659.76,-175.99C631.23,-166.05 593.35,-152.86 566.27,-143.43"/>
<polygon fill="#63b8ff" stroke="#63b8ff" points="567.4,-140.12 556.81,-140.14 565.1,-146.73 567.4,-140.12"/>
</a>
</g>
</g>
<!-- Node3 -->
<g id="Node000003" class="node">
<title>Node3</title>
<g id="a_Node000003"><a xlink:title=" ">
<polygon fill="#e0e0e0" stroke="#999999" points="722,-19 672,-19 672,0 722,0 722,-19"/>
<text text-anchor="middle" x="697" y="-7" font-family="Helvetica,sans-Serif" font-size="10.00">cstdint</text>
</a>
</g>
</g>
<!-- Node1&#45;&gt;Node3 -->
<g id="edge25_Node000001_Node000003" class="edge">
<title>Node1&#45;&gt;Node3</title>
<g id="a_edge25_Node000001_Node000003"><a xlink:title=" ">
<path fill="none" stroke="#63b8ff" d="M634.74,-184.73C574.45,-178.34 491.26,-165.16 471,-140 451.33,-115.57 465.41,-82.88 499,-55 554.06,-9.29 587.53,-33.82 661.99,-19.02"/>
<polygon fill="#63b8ff" stroke="#63b8ff" points="662.74,-22.44 671.77,-16.89 661.25,-15.6 662.74,-22.44"/>
</a>
</g>
</g>
<!-- Node4 -->
<g id="Node000004" class="node">
<title>Node4</title>
<g id="a_Node000004"><a xlink:title=" ">
<polygon fill="#e0e0e0" stroke="#999999" points="665.5,-79.5 618.5,-79.5 618.5,-60.5 665.5,-60.5 665.5,-79.5"/>
<text text-anchor="middle" x="642" y="-67.5" font-family="Helvetica,sans-Serif" font-size="10.00">vector</text>
</a>
</g>
</g>
<!-- Node1&#45;&gt;Node4 -->
<g id="edge26_Node000001_Node000004" class="edge">
<title>Node1&#45;&gt;Node4</title>
<g id="a_edge26_Node000001_Node000004"><a xlink:title=" ">
<path fill="none" stroke="#63b8ff" d="M691.13,-175.83C685.11,-165.96 677.17,-152.4 671,-140 662.6,-123.13 654.41,-103.23 648.89,-89.14"/>
<polygon fill="#63b8ff" stroke="#63b8ff" points="652.09,-87.72 645.23,-79.66 645.56,-90.25 652.09,-87.72"/>
</a>
</g>
</g>
<!-- Node5 -->
<g id="Node000005" class="node">
<title>Node5</title>
<g id="a_Node000005"><a xlink:href="robin__hood_8h.html" target="_top" xlink:title=" ">
<polygon fill="white" stroke="#666666" points="422.5,-85 297.5,-85 297.5,-55 422.5,-55 422.5,-85"/>
<text text-anchor="start" x="305.5" y="-73" font-family="Helvetica,sans-Serif" font-size="10.00">patchGeneration/robin</text>
<text text-anchor="middle" x="360" y="-62" font-family="Helvetica,sans-Serif" font-size="10.00">_hood.h</text>
</a>
</g>
</g>
<!-- Node1&#45;&gt;Node5 -->
<g id="edge27_Node000001_Node000005" class="edge">
<title>Node1&#45;&gt;Node5</title>
<g id="a_edge27_Node000001_Node000005"><a xlink:title=" ">
<path fill="none" stroke="#63b8ff" d="M634.76,-187.32C579.58,-182.84 499.7,-171.01 437,-140 413.98,-128.62 392.64,-108.41 378.3,-92.79"/>
<polygon fill="#63b8ff" stroke="#63b8ff" points="380.72,-90.26 371.46,-85.12 375.5,-94.91 380.72,-90.26"/>
</a>
</g>
</g>
<!-- Node6 -->
<g id="Node000006" class="node">
<title>Node6</title>
<g id="a_Node000006"><a xlink:title=" ">
<polygon fill="#e0e0e0" stroke="#999999" points="64,-19 0,-19 0,0 64,0 64,-19"/>
<text text-anchor="middle" x="32" y="-7" font-family="Helvetica,sans-Serif" font-size="10.00">algorithm</text>
</a>
</g>
</g>
<!-- Node1&#45;&gt;Node6 -->
<g id="edge21_Node000001_Node000006" class="edge">
<title>Node1&#45;&gt;Node6</title>
<g id="a_edge21_Node000001_Node000006"><a xlink:title=" ">
<path fill="none" stroke="#63b8ff" d="M634.96,-182.21C574.55,-174.22 482.37,-160.11 404,-140 273.85,-106.6 124.34,-48.18 61.86,-22.83"/>
<polygon fill="#63b8ff" stroke="#63b8ff" points="63.18,-19.58 52.6,-19.05 60.54,-26.07 63.18,-19.58"/>
</a>
</g>
</g>
<!-- Node13 -->
<g id="Node000013" class="node">
<title>Node13</title>
<g id="a_Node000013"><a xlink:title=" ">
<polygon fill="#e0e0e0" stroke="#999999" points="1553,-19 1509,-19 1509,0 1553,0 1553,-19"/>
<text text-anchor="middle" x="1531" y="-7" font-family="Helvetica,sans-Serif" font-size="10.00">string</text>
</a>
</g>
</g>
<!-- Node1&#45;&gt;Node13 -->
<g id="edge24_Node000001_Node000013" class="edge">
<title>Node1&#45;&gt;Node13</title>
<g id="a_edge24_Node000001_Node000013"><a xlink:title=" ">
<path fill="none" stroke="#63b8ff" d="M765.31,-187.99C972.55,-180.91 1605.17,-153.8 1663,-85 1694.31,-47.75 1611.5,-25.44 1563.11,-15.92"/>
<polygon fill="#63b8ff" stroke="#63b8ff" points="1563.55,-12.44 1553.07,-14.04 1562.25,-19.32 1563.55,-12.44"/>
</a>
</g>
</g>
<!-- Node16 -->
<g id="Node000016" class="node">
<title>Node16</title>
<g id="a_Node000016"><a xlink:href="utils_8hpp.html" target="_top" xlink:title=" ">
<polygon fill="white" stroke="#666666" points="600.5,-79.5 517.5,-79.5 517.5,-60.5 600.5,-60.5 600.5,-79.5"/>
<text text-anchor="middle" x="559" y="-67.5" font-family="Helvetica,sans-Serif" font-size="10.00">utils/utils.hpp</text>
</a>
</g>
</g>
<!-- Node1&#45;&gt;Node16 -->
<g id="edge46_Node000001_Node000016" class="edge">
<title>Node1&#45;&gt;Node16</title>
<g id="a_edge46_Node000001_Node000016"><a xlink:title=" ">
<path fill="none" stroke="#63b8ff" d="M683.27,-175.88C656.56,-153.34 604.51,-109.41 577.01,-86.2"/>
<polygon fill="#63b8ff" stroke="#63b8ff" points="579.22,-83.49 569.32,-79.71 574.71,-88.84 579.22,-83.49"/>
</a>
</g>
</g>
<!-- Node20 -->
<g id="Node000020" class="node">
<title>Node20</title>
<g id="a_Node000020"><a xlink:title=" ">
<polygon fill="#e0e0e0" stroke="#999999" points="959.5,-79.5 906.5,-79.5 906.5,-60.5 959.5,-60.5 959.5,-79.5"/>
<text text-anchor="middle" x="933" y="-67.5" font-family="Helvetica,sans-Serif" font-size="10.00">cstddef</text>
</a>
</g>
</g>
<!-- Node1&#45;&gt;Node20 -->
<g id="edge22_Node000001_Node000020" class="edge">
<title>Node1&#45;&gt;Node20</title>
<g id="a_edge22_Node000001_Node000020"><a xlink:title=" ">
<path fill="none" stroke="#63b8ff" d="M742.48,-175.93C767.87,-166.91 800.45,-154.24 828,-140 859.23,-123.86 892.75,-100.7 913.3,-85.75"/>
<polygon fill="#63b8ff" stroke="#63b8ff" points="915.54,-88.45 921.52,-79.7 911.39,-82.81 915.54,-88.45"/>
</a>
</g>
</g>
<!-- Node21 -->
<g id="Node000021" class="node">
<title>Node21</title>
<g id="a_Node000021"><a xlink:title=" ">
<polygon fill="#e0e0e0" stroke="#999999" points="928.5,-140 875.5,-140 875.5,-121 928.5,-121 928.5,-140"/>
<text text-anchor="middle" x="902" y="-128" font-family="Helvetica,sans-Serif" font-size="10.00">iterator</text>
</a>
</g>
</g>
<!-- Node1&#45;&gt;Node21 -->
<g id="edge23_Node000001_Node000021" class="edge">
<title>Node1&#45;&gt;Node21</title>
<g id="a_edge23_Node000001_Node000021"><a xlink:title=" ">
<path fill="none" stroke="#63b8ff" d="M748.38,-175.99C784.45,-165.54 832.94,-151.5 865.72,-142.01"/>
<polygon fill="#63b8ff" stroke="#63b8ff" points="866.73,-145.36 875.36,-139.22 864.78,-138.64 866.73,-145.36"/>
</a>
</g>
</g>
<!-- Node22 -->
<g id="Node000022" class="node">
<title>Node22</title>
<g id="a_Node000022"><a xlink:href="log_8hpp.html" target="_top" xlink:title=" ">
<polygon fill="white" stroke="#666666" points="1150,-79.5 1054,-79.5 1054,-60.5 1150,-60.5 1150,-79.5"/>
<text text-anchor="middle" x="1102" y="-67.5" font-family="Helvetica,sans-Serif" font-size="10.00">uvgvpcc/log.hpp</text>
</a>
</g>
</g>
<!-- Node1&#45;&gt;Node22 -->
<g id="edge28_Node000001_Node000022" class="edge">
<title>Node1&#45;&gt;Node22</title>
<g id="a_edge28_Node000001_Node000022"><a xlink:title=" ">
<path fill="none" stroke="#63b8ff" d="M765.25,-179.76C813.57,-171.35 880.67,-157.9 938,-140 987.97,-124.4 1043.65,-99.21 1075.58,-83.97"/>
<polygon fill="#63b8ff" stroke="#63b8ff" points="1077.21,-87.08 1084.7,-79.58 1074.17,-80.77 1077.21,-87.08"/>
</a>
</g>
</g>
<!-- Node26 -->
<g id="Node000026" class="node">
<title>Node26</title>
<g id="a_Node000026"><a xlink:href="uvgvpcc_8hpp.html" target="_top" xlink:title=" ">
<polygon fill="white" stroke="#666666" points="1339,-140 1217,-140 1217,-121 1339,-121 1339,-140"/>
<text text-anchor="middle" x="1278" y="-128" font-family="Helvetica,sans-Serif" font-size="10.00">uvgvpcc/uvgvpcc.hpp</text>
</a>
</g>
</g>
<!-- Node1&#45;&gt;Node26 -->
<g id="edge34_Node000001_Node000026" class="edge">
<title>Node1&#45;&gt;Node26</title>
<g id="a_edge34_Node000001_Node000026"><a xlink:title=" ">
<path fill="none" stroke="#63b8ff" d="M765.18,-183.4C874.4,-172.35 1093.53,-150.17 1206.7,-138.72"/>
<polygon fill="#63b8ff" stroke="#63b8ff" points="1207.39,-142.16 1216.99,-137.68 1206.69,-135.2 1207.39,-142.16"/>
</a>
</g>
</g>
<!-- Node31 -->
<g id="Node000031" class="node">
<title>Node31</title>
<g id="a_Node000031"><a xlink:href="utilsPatchGeneration_8hpp.html" target="_top" xlink:title=" ">
<polygon fill="white" stroke="#666666" points="818.5,-140 679.5,-140 679.5,-121 818.5,-121 818.5,-140"/>
<text text-anchor="middle" x="749" y="-128" font-family="Helvetica,sans-Serif" font-size="10.00">utilsPatchGeneration.hpp</text>
</a>
</g>
</g>
<!-- Node1&#45;&gt;Node31 -->
<g id="edge47_Node000001_Node000031" class="edge">
<title>Node1&#45;&gt;Node31</title>
<g id="a_edge47_Node000001_Node000031"><a xlink:title=" ">
<path fill="none" stroke="#63b8ff" d="M711.86,-175.84C718.9,-167.43 727.86,-156.74 735.21,-147.96"/>
<polygon fill="#63b8ff" stroke="#63b8ff" points="737.92,-150.18 741.66,-140.27 732.55,-145.68 737.92,-150.18"/>
</a>
</g>
</g>
<!-- Node2&#45;&gt;Node3 -->
<g id="edge2_Node000002_Node000003" class="edge">
<title>Node2&#45;&gt;Node3</title>
<g id="a_edge2_Node000002_Node000003"><a xlink:title=" ">
<path fill="none" stroke="#63b8ff" d="M524.65,-120.74C513,-105.77 493.19,-74.94 509,-55 550.72,-2.4 590.9,-32.51 661.58,-19.06"/>
<polygon fill="#63b8ff" stroke="#63b8ff" points="662.73,-22.39 671.76,-16.86 661.25,-15.55 662.73,-22.39"/>
</a>
</g>
</g>
<!-- Node2&#45;&gt;Node4 -->
<g id="edge3_Node000002_Node000004" class="edge">
<title>Node2&#45;&gt;Node4</title>
<g id="a_edge3_Node000002_Node000004"><a xlink:title=" ">
<path fill="none" stroke="#63b8ff" d="M548.23,-120.87C566.27,-111.28 595.62,-95.67 616.68,-84.47"/>
<polygon fill="#63b8ff" stroke="#63b8ff" points="618.52,-87.45 625.7,-79.67 615.23,-81.27 618.52,-87.45"/>
</a>
</g>
</g>
<!-- Node2&#45;&gt;Node5 -->
<g id="edge4_Node000002_Node000005" class="edge">
<title>Node2&#45;&gt;Node5</title>
<g id="a_edge4_Node000002_Node000005"><a xlink:title=" ">
<path fill="none" stroke="#63b8ff" d="M506.99,-120.99C481.91,-112.46 442.58,-99.09 410.91,-88.32"/>
<polygon fill="#63b8ff" stroke="#63b8ff" points="411.95,-84.97 401.35,-85.06 409.69,-91.6 411.95,-84.97"/>
</a>
</g>
</g>
<!-- Node2&#45;&gt;Node16 -->
<g id="edge15_Node000002_Node000016" class="edge">
<title>Node2&#45;&gt;Node16</title>
<g id="a_edge15_Node000002_Node000016"><a xlink:title=" ">
<path fill="none" stroke="#63b8ff" d="M535.98,-120.87C539.85,-112.49 545.84,-99.51 550.74,-88.89"/>
<polygon fill="#63b8ff" stroke="#63b8ff" points="553.99,-90.21 555,-79.67 547.63,-87.28 553.99,-90.21"/>
</a>
</g>
</g>
<!-- Node5&#45;&gt;Node6 -->
<g id="edge5_Node000005_Node000006" class="edge">
<title>Node5&#45;&gt;Node6</title>
<g id="a_edge5_Node000005_Node000006"><a xlink:title=" ">
<path fill="none" stroke="#63b8ff" d="M297.47,-58.7C241.48,-49.34 156.87,-34.86 74.04,-19.15"/>
<polygon fill="#63b8ff" stroke="#63b8ff" points="74.69,-15.71 64.21,-17.28 73.38,-22.59 74.69,-15.71"/>
</a>
</g>
</g>
<!-- Node7 -->
<g id="Node000007" class="node">
<title>Node7</title>
<g id="a_Node000007"><a xlink:title=" ">
<polygon fill="#e0e0e0" stroke="#999999" points="447.5,-19 398.5,-19 398.5,0 447.5,0 447.5,-19"/>
<text text-anchor="middle" x="423" y="-7" font-family="Helvetica,sans-Serif" font-size="10.00">cstdlib</text>
</a>
</g>
</g>
<!-- Node5&#45;&gt;Node7 -->
<g id="edge6_Node000005_Node000007" class="edge">
<title>Node5&#45;&gt;Node7</title>
<g id="a_edge6_Node000005_Node000007"><a xlink:title=" ">
<path fill="none" stroke="#63b8ff" d="M375.25,-54.84C384.58,-46.17 396.53,-35.08 406.15,-26.15"/>
<polygon fill="#63b8ff" stroke="#63b8ff" points="408.61,-28.64 413.56,-19.27 403.85,-23.51 408.61,-28.64"/>
</a>
</g>
</g>
<!-- Node8 -->
<g id="Node000008" class="node">
<title>Node8</title>
<g id="a_Node000008"><a xlink:title=" ">
<polygon fill="#e0e0e0" stroke="#999999" points="516,-19 466,-19 466,0 516,0 516,-19"/>
<text text-anchor="middle" x="491" y="-7" font-family="Helvetica,sans-Serif" font-size="10.00">cstring</text>
</a>
</g>
</g>
<!-- Node5&#45;&gt;Node8 -->
<g id="edge7_Node000005_Node000008" class="edge">
<title>Node5&#45;&gt;Node8</title>
<g id="a_edge7_Node000005_Node000008"><a xlink:title=" ">
<path fill="none" stroke="#63b8ff" d="M391.38,-54.99C412.94,-45.36 441.35,-32.67 462.31,-23.31"/>
<polygon fill="#63b8ff" stroke="#63b8ff" points="463.95,-26.41 471.65,-19.14 461.1,-20.02 463.95,-26.41"/>
</a>
</g>
</g>
<!-- Node9 -->
<g id="Node000009" class="node">
<title>Node9</title>
<g id="a_Node000009"><a xlink:title=" ">
<polygon fill="#e0e0e0" stroke="#999999" points="147.5,-19 82.5,-19 82.5,0 147.5,0 147.5,-19"/>
<text text-anchor="middle" x="115" y="-7" font-family="Helvetica,sans-Serif" font-size="10.00">functional</text>
</a>
</g>
</g>
<!-- Node5&#45;&gt;Node9 -->
<g id="edge8_Node000005_Node000009" class="edge">
<title>Node5&#45;&gt;Node9</title>
<g id="a_edge8_Node000005_Node000009"><a xlink:title=" ">
<path fill="none" stroke="#63b8ff" d="M301.32,-54.99C257.04,-44.42 197.33,-30.16 157.56,-20.66"/>
<polygon fill="#63b8ff" stroke="#63b8ff" points="158.2,-17.22 147.66,-18.3 156.57,-24.02 158.2,-17.22"/>
</a>
</g>
</g>
<!-- Node10 -->
<g id="Node000010" class="node">
<title>Node10</title>
<g id="a_Node000010"><a xlink:title=" ">
<polygon fill="#e0e0e0" stroke="#999999" points="578,-19 534,-19 534,0 578,0 578,-19"/>
<text text-anchor="middle" x="556" y="-7" font-family="Helvetica,sans-Serif" font-size="10.00">limits</text>
</a>
</g>
</g>
<!-- Node5&#45;&gt;Node10 -->
<g id="edge9_Node000005_Node000010" class="edge">
<title>Node5&#45;&gt;Node10</title>
<g id="a_edge9_Node000005_Node000010"><a xlink:title=" ">
<path fill="none" stroke="#63b8ff" d="M406.95,-54.99C443.23,-44.16 492.45,-29.47 524.23,-19.98"/>
<polygon fill="#63b8ff" stroke="#63b8ff" points="525.31,-23.31 533.89,-17.1 523.31,-16.61 525.31,-23.31"/>
</a>
</g>
</g>
<!-- Node11 -->
<g id="Node000011" class="node">
<title>Node11</title>
<g id="a_Node000011"><a xlink:title=" ">
<polygon fill="#e0e0e0" stroke="#999999" points="654,-19 596,-19 596,0 654,0 654,-19"/>
<text text-anchor="middle" x="625" y="-7" font-family="Helvetica,sans-Serif" font-size="10.00">memory</text>
</a>
</g>
</g>
<!-- Node5&#45;&gt;Node11 -->
<g id="edge10_Node000005_Node000011" class="edge">
<title>Node5&#45;&gt;Node11</title>
<g id="a_edge10_Node000005_Node000011"><a xlink:title=" ">
<path fill="none" stroke="#63b8ff" d="M422.64,-55.26C465.92,-45.75 525.08,-32.73 586.14,-19.19"/>
<polygon fill="#63b8ff" stroke="#63b8ff" points="586.95,-22.59 595.96,-17.01 585.44,-15.76 586.95,-22.59"/>
</a>
</g>
</g>
<!-- Node12 -->
<g id="Node000012" class="node">
<title>Node12</title>
<g id="a_Node000012"><a xlink:title=" ">
<polygon fill="#e0e0e0" stroke="#999999" points="230.5,-19 165.5,-19 165.5,0 230.5,0 230.5,-19"/>
<text text-anchor="middle" x="198" y="-7" font-family="Helvetica,sans-Serif" font-size="10.00">stdexcept</text>
</a>
</g>
</g>
<!-- Node5&#45;&gt;Node12 -->
<g id="edge11_Node000005_Node000012" class="edge">
<title>Node5&#45;&gt;Node12</title>
<g id="a_edge11_Node000005_Node000012"><a xlink:title=" ">
<path fill="none" stroke="#63b8ff" d="M321.2,-54.99C293.81,-45.1 257.48,-31.98 231.39,-22.56"/>
<polygon fill="#63b8ff" stroke="#63b8ff" points="232.52,-19.24 221.92,-19.14 230.14,-25.83 232.52,-19.24"/>
</a>
</g>
</g>
<!-- Node5&#45;&gt;Node13 -->
<g id="edge12_Node000005_Node000013" class="edge">
<title>Node5&#45;&gt;Node13</title>
<g id="a_edge12_Node000005_Node000013"><a xlink:title=" ">
<path fill="none" stroke="#63b8ff" d="M422.65,-62.35C449.25,-59.73 480.61,-56.89 509,-55 911.98,-28.1 1013.78,-42.02 1417,-19 1444.54,-17.43 1475.78,-15.06 1498.58,-13.22"/>
<polygon fill="#63b8ff" stroke="#63b8ff" points="1499.05,-16.69 1508.73,-12.39 1498.48,-9.72 1499.05,-16.69"/>
</a>
</g>
</g>
<!-- Node14 -->
<g id="Node000014" class="node">
<title>Node14</title>
<g id="a_Node000014"><a xlink:title=" ">
<polygon fill="#e0e0e0" stroke="#999999" points="317.5,-19 248.5,-19 248.5,0 317.5,0 317.5,-19"/>
<text text-anchor="middle" x="283" y="-7" font-family="Helvetica,sans-Serif" font-size="10.00">type_traits</text>
</a>
</g>
</g>
<!-- Node5&#45;&gt;Node14 -->
<g id="edge13_Node000005_Node000014" class="edge">
<title>Node5&#45;&gt;Node14</title>
<g id="a_edge13_Node000005_Node000014"><a xlink:title=" ">
<path fill="none" stroke="#63b8ff" d="M341.36,-54.84C329.61,-45.91 314.47,-34.41 302.55,-25.35"/>
<polygon fill="#63b8ff" stroke="#63b8ff" points="304.62,-22.53 294.54,-19.27 300.38,-28.1 304.62,-22.53"/>
</a>
</g>
</g>
<!-- Node15 -->
<g id="Node000015" class="node">
<title>Node15</title>
<g id="a_Node000015"><a xlink:title=" ">
<polygon fill="#e0e0e0" stroke="#999999" points="380.5,-19 335.5,-19 335.5,0 380.5,0 380.5,-19"/>
<text text-anchor="middle" x="358" y="-7" font-family="Helvetica,sans-Serif" font-size="10.00">utility</text>
</a>
</g>
</g>
<!-- Node5&#45;&gt;Node15 -->
<g id="edge14_Node000005_Node000015" class="edge">
<title>Node5&#45;&gt;Node15</title>
<g id="a_edge14_Node000005_Node000015"><a xlink:title=" ">
<path fill="none" stroke="#63b8ff" d="M359.52,-54.84C359.26,-47.21 358.93,-37.7 358.65,-29.45"/>
<polygon fill="#63b8ff" stroke="#63b8ff" points="362.14,-29.14 358.3,-19.27 355.14,-29.38 362.14,-29.14"/>
</a>
</g>
</g>
<!-- Node16&#45;&gt;Node3 -->
<g id="edge17_Node000016_Node000003" class="edge">
<title>Node16&#45;&gt;Node3</title>
<g id="a_edge17_Node000016_Node000003"><a xlink:title=" ">
<path fill="none" stroke="#63b8ff" d="M579.07,-60.49C602.37,-50.62 641.01,-34.23 667.68,-22.93"/>
<polygon fill="#63b8ff" stroke="#63b8ff" points="669.07,-26.14 676.91,-19.02 666.34,-19.7 669.07,-26.14"/>
</a>
</g>
</g>
<!-- Node16&#45;&gt;Node10 -->
<g id="edge18_Node000016_Node000010" class="edge">
<title>Node16&#45;&gt;Node10</title>
<g id="a_edge18_Node000016_Node000010"><a xlink:title=" ">
<path fill="none" stroke="#63b8ff" d="M558.56,-60.37C558.14,-52.25 557.5,-39.81 556.97,-29.39"/>
<polygon fill="#63b8ff" stroke="#63b8ff" points="560.45,-28.97 556.44,-19.17 553.46,-29.33 560.45,-28.97"/>
</a>
</g>
</g>
<!-- Node17 -->
<g id="Node000017" class="node">
<title>Node17</title>
<g id="a_Node000017"><a xlink:title=" ">
<polygon fill="#e0e0e0" stroke="#999999" points="782,-19 740,-19 740,0 782,0 782,-19"/>
<text text-anchor="middle" x="761" y="-7" font-family="Helvetica,sans-Serif" font-size="10.00">array</text>
</a>
</g>
</g>
<!-- Node16&#45;&gt;Node17 -->
<g id="edge16_Node000016_Node000017" class="edge">
<title>Node16&#45;&gt;Node17</title>
<g id="a_edge16_Node000016_Node000017"><a xlink:title=" ">
<path fill="none" stroke="#63b8ff" d="M588.37,-60.49C626.24,-49.53 691.79,-30.54 730.29,-19.39"/>
<polygon fill="#63b8ff" stroke="#63b8ff" points="731.3,-22.75 739.93,-16.6 729.35,-16.02 731.3,-22.75"/>
</a>
</g>
</g>
<!-- Node18 -->
<g id="Node000018" class="node">
<title>Node18</title>
<g id="a_Node000018"><a xlink:title=" ">
<polygon fill="#e0e0e0" stroke="#999999" points="1150,-19 1094,-19 1094,0 1150,0 1150,-19"/>
<text text-anchor="middle" x="1122" y="-7" font-family="Helvetica,sans-Serif" font-size="10.00">sstream</text>
</a>
</g>
</g>
<!-- Node16&#45;&gt;Node18 -->
<g id="edge19_Node000016_Node000018" class="edge">
<title>Node16&#45;&gt;Node18</title>
<g id="a_edge19_Node000016_Node000018"><a xlink:title=" ">
<path fill="none" stroke="#63b8ff" d="M586.31,-60.46C593.91,-58.37 602.22,-56.35 610,-55 815.34,-19.38 873.86,-49.81 1083.69,-18.95"/>
<polygon fill="#63b8ff" stroke="#63b8ff" points="1084.43,-22.38 1093.8,-17.44 1083.39,-15.46 1084.43,-22.38"/>
</a>
</g>
</g>
<!-- Node19 -->
<g id="Node000019" class="node">
<title>Node19</title>
<g id="a_Node000019"><a xlink:title=" ">
<polygon fill="#e0e0e0" stroke="#999999" points="908,-19 852,-19 852,0 908,0 908,-19"/>
<text text-anchor="middle" x="880" y="-7" font-family="Helvetica,sans-Serif" font-size="10.00">iomanip</text>
</a>
</g>
</g>
<!-- Node16&#45;&gt;Node19 -->
<g id="edge20_Node000016_Node000019" class="edge">
<title>Node16&#45;&gt;Node19</title>
<g id="a_edge20_Node000016_Node000019"><a xlink:title=" ">
<path fill="none" stroke="#63b8ff" d="M588,-60.48C595.15,-58.53 602.82,-56.57 610,-55 691.84,-37.07 789.05,-22.73 841.62,-15.54"/>
<polygon fill="#63b8ff" stroke="#63b8ff" points="842.39,-18.96 851.83,-14.15 841.45,-12.03 842.39,-18.96"/>
</a>
</g>
</g>
<!-- Node22&#45;&gt;Node13 -->
<g id="edge33_Node000022_Node000013" class="edge">
<title>Node22&#45;&gt;Node13</title>
<g id="a_edge33_Node000022_Node000013"><a xlink:title=" ">
<path fill="none" stroke="#63b8ff" d="M1133.81,-60.46C1141.98,-58.47 1150.78,-56.5 1159,-55 1283.57,-32.34 1433.79,-18.41 1498.62,-13.04"/>
<polygon fill="#63b8ff" stroke="#63b8ff" points="1498.95,-16.52 1508.64,-12.22 1498.38,-9.54 1498.95,-16.52"/>
</a>
</g>
</g>
<!-- Node22&#45;&gt;Node19 -->
<g id="edge31_Node000022_Node000019" class="edge">
<title>Node22&#45;&gt;Node19</title>
<g id="a_edge31_Node000022_Node000019"><a xlink:title=" ">
<path fill="none" stroke="#63b8ff" d="M1069.72,-60.49C1029.42,-49.87 960.59,-31.74 917.85,-20.47"/>
<polygon fill="#63b8ff" stroke="#63b8ff" points="918.66,-17.07 908.1,-17.9 916.88,-23.84 918.66,-17.07"/>
</a>
</g>
</g>
<!-- Node23 -->
<g id="Node000023" class="node">
<title>Node23</title>
<g id="a_Node000023"><a xlink:title=" ">
<polygon fill="#e0e0e0" stroke="#999999" points="1076,-19 1026,-19 1026,0 1076,0 1076,-19"/>
<text text-anchor="middle" x="1051" y="-7" font-family="Helvetica,sans-Serif" font-size="10.00">chrono</text>
</a>
</g>
</g>
<!-- Node22&#45;&gt;Node23 -->
<g id="edge29_Node000022_Node000023" class="edge">
<title>Node22&#45;&gt;Node23</title>
<g id="a_edge29_Node000022_Node000023"><a xlink:title=" ">
<path fill="none" stroke="#63b8ff" d="M1094.47,-60.37C1086.79,-51.55 1074.68,-37.66 1065.19,-26.77"/>
<polygon fill="#63b8ff" stroke="#63b8ff" points="1067.77,-24.41 1058.56,-19.17 1062.49,-29.01 1067.77,-24.41"/>
</a>
</g>
</g>
<!-- Node24 -->
<g id="Node000024" class="node">
<title>Node24</title>
<g id="a_Node000024"><a xlink:title=" ">
<polygon fill="#e0e0e0" stroke="#999999" points="1221.5,-19 1168.5,-19 1168.5,0 1221.5,0 1221.5,-19"/>
<text text-anchor="middle" x="1195" y="-7" font-family="Helvetica,sans-Serif" font-size="10.00">cstdarg</text>
</a>
</g>
</g>
<!-- Node22&#45;&gt;Node24 -->
<g id="edge30_Node000022_Node000024" class="edge">
<title>Node22&#45;&gt;Node24</title>
<g id="a_edge30_Node000022_Node000024"><a xlink:title=" ">
<path fill="none" stroke="#63b8ff" d="M1115.72,-60.37C1130.7,-50.95 1154.89,-35.73 1172.62,-24.58"/>
<polygon fill="#63b8ff" stroke="#63b8ff" points="1174.62,-27.45 1181.22,-19.17 1170.89,-21.53 1174.62,-27.45"/>
</a>
</g>
</g>
<!-- Node25 -->
<g id="Node000025" class="node">
<title>Node25</title>
<g id="a_Node000025"><a xlink:title=" ">
<polygon fill="#e0e0e0" stroke="#999999" points="1408,-19 1348,-19 1348,0 1408,0 1408,-19"/>
<text text-anchor="middle" x="1378" y="-7" font-family="Helvetica,sans-Serif" font-size="10.00">iostream</text>
</a>
</g>
</g>
<!-- Node22&#45;&gt;Node25 -->
<g id="edge32_Node000022_Node000025" class="edge">
<title>Node22&#45;&gt;Node25</title>
<g id="a_edge32_Node000022_Node000025"><a xlink:title=" ">
<path fill="none" stroke="#63b8ff" d="M1135.7,-60.48C1143.35,-58.62 1151.44,-56.7 1159,-55 1221.21,-41.05 1293.79,-26.67 1337.79,-18.16"/>
<polygon fill="#63b8ff" stroke="#63b8ff" points="1338.65,-21.56 1347.81,-16.23 1337.33,-14.69 1338.65,-21.56"/>
</a>
</g>
</g>
<!-- Node26&#45;&gt;Node3 -->
<g id="edge36_Node000026_Node000003" class="edge">
<title>Node26&#45;&gt;Node3</title>
<g id="a_edge36_Node000026_Node000003"><a xlink:title=" ">
<path fill="none" stroke="#63b8ff" d="M1216.6,-124.85C1168.4,-119.55 1100.4,-108.36 1045,-85 1023.53,-75.95 1023.72,-63.44 1002,-55 891.73,-12.15 852.43,-40.2 732.13,-18.97"/>
<polygon fill="#63b8ff" stroke="#63b8ff" points="732.65,-15.5 722.18,-17.13 731.38,-22.39 732.65,-15.5"/>
</a>
</g>
</g>
<!-- Node26&#45;&gt;Node4 -->
<g id="edge43_Node000026_Node000004" class="edge">
<title>Node26&#45;&gt;Node4</title>
<g id="a_edge43_Node000026_Node000004"><a xlink:title=" ">
<path fill="none" stroke="#63b8ff" d="M1216.83,-126.95C1113.05,-122.11 895.99,-109.79 714,-85 701.41,-83.29 687.7,-80.78 675.65,-78.36"/>
<polygon fill="#63b8ff" stroke="#63b8ff" points="676.06,-74.87 665.56,-76.28 674.65,-81.73 676.06,-74.87"/>
</a>
</g>
</g>
<!-- Node26&#45;&gt;Node11 -->
<g id="edge38_Node000026_Node000011" class="edge">
<title>Node26&#45;&gt;Node11</title>
<g id="a_edge38_Node000026_Node000011"><a xlink:title=" ">
<path fill="none" stroke="#63b8ff" d="M1216.9,-129.52C1158.91,-127.31 1070.65,-118.06 1002,-85 984.14,-76.4 987.04,-63.22 969,-55 847.3,0.44 800.21,-39.98 664.34,-19.01"/>
<polygon fill="#63b8ff" stroke="#63b8ff" points="664.83,-15.54 654.4,-17.39 663.71,-22.45 664.83,-15.54"/>
</a>
</g>
</g>
<!-- Node26&#45;&gt;Node13 -->
<g id="edge42_Node000026_Node000013" class="edge">
<title>Node26&#45;&gt;Node13</title>
<g id="a_edge42_Node000026_Node000013"><a xlink:title=" ">
<path fill="none" stroke="#63b8ff" d="M1339.04,-126.47C1438.38,-120.92 1626.02,-107.54 1646,-85 1654.84,-75.02 1653.54,-66 1646,-55 1627.62,-28.19 1590.59,-17.52 1563.49,-13.29"/>
<polygon fill="#63b8ff" stroke="#63b8ff" points="1563.67,-9.78 1553.3,-11.92 1562.74,-16.72 1563.67,-9.78"/>
</a>
</g>
</g>
<!-- Node26&#45;&gt;Node18 -->
<g id="edge41_Node000026_Node000018" class="edge">
<title>Node26&#45;&gt;Node18</title>
<g id="a_edge41_Node000026_Node000018"><a xlink:title=" ">
<path fill="none" stroke="#63b8ff" d="M1339.28,-126.47C1413.51,-120.63 1523.53,-103.7 1480,-55 1432.31,-1.65 1230.58,-30.83 1160,-19 1159.9,-18.98 1159.8,-18.97 1159.7,-18.95"/>
<polygon fill="#63b8ff" stroke="#63b8ff" points="1160.63,-15.56 1150.16,-17.15 1159.34,-22.44 1160.63,-15.56"/>
</a>
</g>
</g>
<!-- Node26&#45;&gt;Node20 -->
<g id="edge35_Node000026_Node000020" class="edge">
<title>Node26&#45;&gt;Node20</title>
<g id="a_edge35_Node000026_Node000020"><a xlink:title=" ">
<path fill="none" stroke="#63b8ff" d="M1216.81,-123.88C1154.97,-117.42 1056.95,-105.05 974,-85 971.19,-84.32 968.3,-83.53 965.42,-82.68"/>
<polygon fill="#63b8ff" stroke="#63b8ff" points="966.36,-79.3 955.77,-79.6 964.23,-85.97 966.36,-79.3"/>
</a>
</g>
</g>
<!-- Node26&#45;&gt;Node25 -->
<g id="edge37_Node000026_Node000025" class="edge">
<title>Node26&#45;&gt;Node25</title>
<g id="a_edge37_Node000026_Node000025"><a xlink:title=" ">
<path fill="none" stroke="#63b8ff" d="M1339.1,-126.53C1401.22,-122.08 1491.31,-111.18 1513,-85 1543.04,-48.74 1468.08,-27.14 1418.22,-17.17"/>
<polygon fill="#63b8ff" stroke="#63b8ff" points="1418.79,-13.72 1408.31,-15.27 1417.47,-20.59 1418.79,-13.72"/>
</a>
</g>
</g>
<!-- Node27 -->
<g id="Node000027" class="node">
<title>Node27</title>
<g id="a_Node000027"><a xlink:title=" ">
<polygon fill="#e0e0e0" stroke="#999999" points="1470.5,-79.5 1423.5,-79.5 1423.5,-60.5 1470.5,-60.5 1470.5,-79.5"/>
<text text-anchor="middle" x="1447" y="-67.5" font-family="Helvetica,sans-Serif" font-size="10.00">queue</text>
</a>
</g>
</g>
<!-- Node26&#45;&gt;Node27 -->
<g id="edge39_Node000026_Node000027" class="edge">
<title>Node26&#45;&gt;Node27</title>
<g id="a_edge39_Node000026_Node000027"><a xlink:title=" ">
<path fill="none" stroke="#63b8ff" d="M1307.15,-120.94C1335.09,-112.53 1378.3,-98.95 1415,-85 1416.21,-84.54 1417.44,-84.06 1418.69,-83.56"/>
<polygon fill="#63b8ff" stroke="#63b8ff" points="1420.3,-86.68 1428.18,-79.6 1417.6,-80.22 1420.3,-86.68"/>
</a>
</g>
</g>
<!-- Node28 -->
<g id="Node000028" class="node">
<title>Node28</title>
<g id="a_Node000028"><a xlink:title=" ">
<polygon fill="#e0e0e0" stroke="#999999" points="1636.5,-79.5 1565.5,-79.5 1565.5,-60.5 1636.5,-60.5 1636.5,-79.5"/>
<text text-anchor="middle" x="1601" y="-67.5" font-family="Helvetica,sans-Serif" font-size="10.00">semaphore</text>
</a>
</g>
</g>
<!-- Node26&#45;&gt;Node28 -->
<g id="edge40_Node000026_Node000028" class="edge">
<title>Node26&#45;&gt;Node28</title>
<g id="a_edge40_Node000026_Node000028"><a xlink:title=" ">
<path fill="none" stroke="#63b8ff" d="M1339.09,-121.53C1394.66,-113.81 1478.79,-100.94 1551,-85 1554.85,-84.15 1558.85,-83.18 1562.82,-82.16"/>
<polygon fill="#63b8ff" stroke="#63b8ff" points="1563.83,-85.51 1572.58,-79.55 1562.02,-78.75 1563.83,-85.51"/>
</a>
</g>
</g>
<!-- Node29 -->
<g id="Node000029" class="node">
<title>Node29</title>
<g id="a_Node000029"><a xlink:title=" ">
<polygon fill="#e0e0e0" stroke="#999999" points="1260,-79.5 1168,-79.5 1168,-60.5 1260,-60.5 1260,-79.5"/>
<text text-anchor="middle" x="1214" y="-67.5" font-family="Helvetica,sans-Serif" font-size="10.00">../utils/utils.hpp</text>
</a>
</g>
</g>
<!-- Node26&#45;&gt;Node29 -->
<g id="edge44_Node000026_Node000029" class="edge">
<title>Node26&#45;&gt;Node29</title>
<g id="a_edge44_Node000026_Node000029"><a xlink:title=" ">
<path fill="none" stroke="#63b8ff" d="M1268.56,-120.87C1258.73,-111.88 1243.11,-97.61 1231.11,-86.64"/>
<polygon fill="#63b8ff" stroke="#63b8ff" points="1233.22,-83.83 1223.48,-79.67 1228.5,-89 1233.22,-83.83"/>
</a>
</g>
</g>
<!-- Node30 -->
<g id="Node000030" class="node">
<title>Node30</title>
<g id="a_Node000030"><a xlink:title=" ">
<polygon fill="#e0e0e0" stroke="#999999" points="1405.5,-79.5 1278.5,-79.5 1278.5,-60.5 1405.5,-60.5 1405.5,-79.5"/>
<text text-anchor="middle" x="1342" y="-67.5" font-family="Helvetica,sans-Serif" font-size="10.00">../utils/parameters.hpp</text>
</a>
</g>
</g>
<!-- Node26&#45;&gt;Node30 -->
<g id="edge45_Node000026_Node000030" class="edge">
<title>Node26&#45;&gt;Node30</title>
<g id="a_edge45_Node000026_Node000030"><a xlink:title=" ">
<path fill="none" stroke="#63b8ff" d="M1287.44,-120.87C1297.27,-111.88 1312.89,-97.61 1324.89,-86.64"/>
<polygon fill="#63b8ff" stroke="#63b8ff" points="1327.5,-89 1332.52,-79.67 1322.78,-83.83 1327.5,-89"/>
</a>
</g>
</g>
<!-- Node31&#45;&gt;Node3 -->
<g id="edge50_Node000031_Node000003" class="edge">
<title>Node31&#45;&gt;Node3</title>
<g id="a_edge50_Node000031_Node000003"><a xlink:title=" ">
<path fill="none" stroke="#63b8ff" d="M740.17,-120.77C732.16,-112.33 720.61,-98.84 714,-85 705.45,-67.08 701.08,-44.65 698.93,-29.11"/>
<polygon fill="#63b8ff" stroke="#63b8ff" points="702.41,-28.68 697.73,-19.17 695.46,-29.52 702.41,-28.68"/>
</a>
</g>
</g>
<!-- Node31&#45;&gt;Node4 -->
<g id="edge52_Node000031_Node000004" class="edge">
<title>Node31&#45;&gt;Node4</title>
<g id="a_edge52_Node000031_Node000004"><a xlink:title=" ">
<path fill="none" stroke="#63b8ff" d="M733.21,-120.87C715.67,-111.28 687.12,-95.67 666.63,-84.47"/>
<polygon fill="#63b8ff" stroke="#63b8ff" points="668.31,-81.39 657.85,-79.67 664.95,-87.54 668.31,-81.39"/>
</a>
</g>
</g>
<!-- Node31&#45;&gt;Node5 -->
<g id="edge54_Node000031_Node000005" class="edge">
<title>Node31&#45;&gt;Node5</title>
<g id="a_edge54_Node000031_Node000005"><a xlink:title=" ">
<path fill="none" stroke="#63b8ff" d="M692.44,-120.99C623.91,-110.69 508.32,-93.3 433.1,-81.99"/>
<polygon fill="#63b8ff" stroke="#63b8ff" points="433.17,-78.46 422.76,-80.44 432.13,-85.39 433.17,-78.46"/>
</a>
</g>
</g>
<!-- Node31&#45;&gt;Node16 -->
<g id="edge48_Node000031_Node000016" class="edge">
<title>Node31&#45;&gt;Node16</title>
<g id="a_edge48_Node000031_Node000016"><a xlink:title=" ">
<path fill="none" stroke="#63b8ff" d="M721.37,-120.99C688.45,-110.86 633.27,-93.87 596.51,-82.55"/>
<polygon fill="#63b8ff" stroke="#63b8ff" points="597.25,-79.11 586.66,-79.52 595.19,-85.8 597.25,-79.11"/>
</a>
</g>
</g>
<!-- Node31&#45;&gt;Node22 -->
<g id="edge49_Node000031_Node000022" class="edge">
<title>Node31&#45;&gt;Node22</title>
<g id="a_edge49_Node000031_Node000022"><a xlink:title=" ">
<path fill="none" stroke="#63b8ff" d="M800.33,-120.99C864.99,-110.28 975.82,-91.91 1043.64,-80.67"/>
<polygon fill="#63b8ff" stroke="#63b8ff" points="1044.44,-84.09 1053.73,-79 1043.29,-77.18 1044.44,-84.09"/>
</a>
</g>
</g>
<!-- Node32 -->
<g id="Node000032" class="node">
<title>Node32</title>
<g id="a_Node000032"><a xlink:title=" ">
<polygon fill="#e0e0e0" stroke="#999999" points="888.5,-79.5 833.5,-79.5 833.5,-60.5 888.5,-60.5 888.5,-79.5"/>
<text text-anchor="middle" x="861" y="-67.5" font-family="Helvetica,sans-Serif" font-size="10.00">fstream</text>
</a>
</g>
</g>
<!-- Node31&#45;&gt;Node32 -->
<g id="edge51_Node000031_Node000032" class="edge">
<title>Node31&#45;&gt;Node32</title>
<g id="a_edge51_Node000031_Node000032"><a xlink:title=" ">
<path fill="none" stroke="#63b8ff" d="M765.53,-120.87C783.97,-111.23 814.04,-95.53 835.51,-84.31"/>
<polygon fill="#63b8ff" stroke="#63b8ff" points="837.16,-87.4 844.41,-79.67 833.92,-81.19 837.16,-87.4"/>
</a>
</g>
</g>
<!-- Node33 -->
<g id="Node000033" class="node">
<title>Node33</title>
<g id="a_Node000033"><a xlink:title=" ">
<polygon fill="#e0e0e0" stroke="#999999" points="815.5,-79.5 722.5,-79.5 722.5,-60.5 815.5,-60.5 815.5,-79.5"/>
<text text-anchor="middle" x="769" y="-67.5" font-family="Helvetica,sans-Serif" font-size="10.00">unordered_map</text>
</a>
</g>
</g>
<!-- Node31&#45;&gt;Node33 -->
<g id="edge53_Node000031_Node000033" class="edge">
<title>Node31&#45;&gt;Node33</title>
<g id="a_edge53_Node000031_Node000033"><a xlink:title=" ">
<path fill="none" stroke="#63b8ff" d="M751.95,-120.87C754.79,-112.57 759.16,-99.78 762.77,-89.22"/>
<polygon fill="#63b8ff" stroke="#63b8ff" points="766.11,-90.26 766.04,-79.67 759.49,-88 766.11,-90.26"/>
</a>
</g>
</g>
</g>
</svg>

<g id="navigator" transform="translate(0 0)" fill="#404254">
  <rect fill="#f2f5e9" fill-opacity="0.5" stroke="#606060" stroke-width=".5" x="0" y="0" width="60" height="60"/>
  <use id="zoomplus" xlink:href="#zoomPlus" x="17" y="9" onmousedown="handleZoom(evt,'in')"/>
  <use id="zoomminus" xlink:href="#zoomMin" x="42" y="9" onmousedown="handleZoom(evt,'out')"/>
  <use id="reset" xlink:href="#resetDef" x="30" y="36" onmousedown="handleReset()"/>
   <use id="arrowup" xlink:href="#arrowUp" x="0" y="0" onmousedown="handlePan(0,-1)"/>
  <use id="arrowright" xlink:href="#arrowRight" x="0" y="0" onmousedown="handlePan(1,0)"/>
  <use id="arrowdown" xlink:href="#arrowDown" x="0" y="0" onmousedown="handlePan(0,1)"/>
  <use id="arrowleft" xlink:href="#arrowLeft" x="0" y="0" onmousedown="handlePan(-1,0)"/>
</g>
<svg viewBox="0 0 15 15" width="100%" height="30px" preserveAspectRatio="xMaxYMin meet">
 <g id="arrow_out" transform="scale(0.3 0.3)">
  <a xlink:href="ppiSegmenter_8cpp__incl_org.svg" target="_base">
   <rect id="button" ry="5" rx="5" y="6" x="6" height="38" width="38"
        fill="#f2f5e9" fill-opacity="0.5" stroke="#606060" stroke-width="1.0"/>
   <path id="arrow"
     d="M 11.500037,31.436501 C 11.940474,20.09759 22.043105,11.32322 32.158766,21.979434 L 37.068811,17.246167 C 37.068811,17.246167 37.088388,32 37.088388,32 L 22.160133,31.978069 C 22.160133,31.978069 26.997745,27.140456 26.997745,27.140456 C 18.528582,18.264221 13.291696,25.230495 11.500037,31.436501 z"
     style="fill:#404040;"/>
  </a>
 </g>
</svg>

<style type='text/css'>
<![CDATA[
[data-mouse-over-selected='false'] { opacity: 0.7; }
[data-mouse-over-selected='true']  { opacity: 1.0; }
]]>
</style>
<script type="application/ecmascript"><![CDATA[
document.addEventListener('DOMContentLoaded', (event) => {
  highlightEdges();
  highlightAdjacentNodes();
});
]]></script>
</svg>
