<?xml version="1.0" encoding="UTF-8" standalone="no"?>
<!DOCTYPE svg PUBLIC "-//W3C//DTD SVG 1.1//EN"
 "http://www.w3.org/Graphics/SVG/1.1/DTD/svg11.dtd">
<!-- Generated by graphviz version 2.43.0 (0)
 -->
<!-- Title: src/lib/patchGeneration/ppiSegmenter.cpp Pages: 1 -->
<svg width="1554pt" height="214pt"
 viewBox="0.00 0.00 1553.82 214.00" xmlns="http://www.w3.org/2000/svg" xmlns:xlink="http://www.w3.org/1999/xlink">
<g id="graph0" class="graph" transform="scale(1 1) rotate(0) translate(4 210)">
<title>src/lib/patchGeneration/ppiSegmenter.cpp</title>
<!-- Node1 -->
<g id="Node000001" class="node">
<title>Node1</title>
<g id="a_Node000001"><a xlink:title=" ">
<polygon fill="#999999" stroke="#666666" points="792,-206 662,-206 662,-176 792,-176 792,-206"/>
<text text-anchor="start" x="670" y="-194" font-family="Helvetica,sans-Serif" font-size="10.00">src/lib/patchGeneration</text>
<text text-anchor="middle" x="727" y="-183" font-family="Helvetica,sans-Serif" font-size="10.00">/ppiSegmenter.cpp</text>
</a>
</g>
</g>
<!-- Node2 -->
<g id="Node000002" class="node">
<title>Node2</title>
<g id="a_Node000002"><a xlink:href="ppiSegmenter_8hpp.html" target="_top" xlink:title=" ">
<polygon fill="white" stroke="#666666" points="513.5,-140 408.5,-140 408.5,-121 513.5,-121 513.5,-140"/>
<text text-anchor="middle" x="461" y="-128" font-family="Helvetica,sans-Serif" font-size="10.00">ppiSegmenter.hpp</text>
</a>
</g>
</g>
<!-- Node1&#45;&gt;Node2 -->
<g id="edge1_Node000001_Node000002" class="edge">
<title>Node1&#45;&gt;Node2</title>
<g id="a_edge1_Node000001_Node000002"><a xlink:title=" ">
<path fill="none" stroke="#63b8ff" d="M663.29,-175.99C616.19,-165.63 553.01,-151.73 509.86,-142.25"/>
<polygon fill="#63b8ff" stroke="#63b8ff" points="510.41,-138.78 499.89,-140.05 508.91,-145.62 510.41,-138.78"/>
</a>
</g>
</g>
<!-- Node3 -->
<g id="Node000003" class="node">
<title>Node3</title>
<g id="a_Node000003"><a xlink:title=" ">
<polygon fill="#e0e0e0" stroke="#999999" points="782,-19 732,-19 732,0 782,0 782,-19"/>
<text text-anchor="middle" x="757" y="-7" font-family="Helvetica,sans-Serif" font-size="10.00">cstdint</text>
</a>
</g>
</g>
<!-- Node1&#45;&gt;Node3 -->
<g id="edge25_Node000001_Node000003" class="edge">
<title>Node1&#45;&gt;Node3</title>
<g id="a_edge25_Node000001_Node000003"><a xlink:title=" ">
<path fill="none" stroke="#63b8ff" d="M738.48,-175.66C745.33,-166.16 753.38,-153.07 757,-140 767.56,-101.86 763.6,-54.94 760.09,-29.35"/>
<polygon fill="#63b8ff" stroke="#63b8ff" points="763.51,-28.57 758.57,-19.2 756.59,-29.61 763.51,-28.57"/>
</a>
</g>
</g>
<!-- Node4 -->
<g id="Node000004" class="node">
<title>Node4</title>
<g id="a_Node000004"><a xlink:title=" ">
<polygon fill="#e0e0e0" stroke="#999999" points="636.5,-79.5 589.5,-79.5 589.5,-60.5 636.5,-60.5 636.5,-79.5"/>
<text text-anchor="middle" x="613" y="-67.5" font-family="Helvetica,sans-Serif" font-size="10.00">vector</text>
</a>
</g>
</g>
<!-- Node1&#45;&gt;Node4 -->
<g id="edge26_Node000001_Node000004" class="edge">
<title>Node1&#45;&gt;Node4</title>
<g id="a_edge26_Node000001_Node000004"><a xlink:title=" ">
<path fill="none" stroke="#63b8ff" d="M661.85,-180C638.34,-172.9 614.14,-160.76 600,-140 589.74,-124.94 595.9,-103.94 602.8,-89.07"/>
<polygon fill="#63b8ff" stroke="#63b8ff" points="606.05,-90.4 607.5,-79.9 599.82,-87.2 606.05,-90.4"/>
</a>
</g>
</g>
<!-- Node5 -->
<g id="Node000005" class="node">
<title>Node5</title>
<g id="a_Node000005"><a xlink:href="robin__hood_8h.html" target="_top" xlink:title=" ">
<polygon fill="white" stroke="#666666" points="431.5,-85 306.5,-85 306.5,-55 431.5,-55 431.5,-85"/>
<text text-anchor="start" x="314.5" y="-73" font-family="Helvetica,sans-Serif" font-size="10.00">patchGeneration/robin</text>
<text text-anchor="middle" x="369" y="-62" font-family="Helvetica,sans-Serif" font-size="10.00">_hood.h</text>
</a>
</g>
</g>
<!-- Node1&#45;&gt;Node5 -->
<g id="edge27_Node000001_Node000005" class="edge">
<title>Node1&#45;&gt;Node5</title>
<g id="a_edge27_Node000001_Node000005"><a xlink:title=" ">
<path fill="none" stroke="#63b8ff" d="M661.88,-187.31C578.51,-182.65 440.06,-170.46 400,-140 385.73,-129.15 377.86,-110.25 373.63,-94.98"/>
<polygon fill="#63b8ff" stroke="#63b8ff" points="377,-94.02 371.25,-85.12 370.2,-95.66 377,-94.02"/>
</a>
</g>
</g>
<!-- Node6 -->
<g id="Node000006" class="node">
<title>Node6</title>
<g id="a_Node000006"><a xlink:title=" ">
<polygon fill="#e0e0e0" stroke="#999999" points="64,-19 0,-19 0,0 64,0 64,-19"/>
<text text-anchor="middle" x="32" y="-7" font-family="Helvetica,sans-Serif" font-size="10.00">algorithm</text>
</a>
</g>
</g>
<!-- Node1&#45;&gt;Node6 -->
<g id="edge21_Node000001_Node000006" class="edge">
<title>Node1&#45;&gt;Node6</title>
<g id="a_edge21_Node000001_Node000006"><a xlink:title=" ">
<path fill="none" stroke="#63b8ff" d="M661.92,-184.79C591.58,-178.21 476.58,-164.63 380,-140 257.47,-108.76 118.4,-49.36 60.08,-23.3"/>
<polygon fill="#63b8ff" stroke="#63b8ff" points="61.34,-20.03 50.78,-19.12 58.47,-26.42 61.34,-20.03"/>
</a>
</g>
</g>
<!-- Node13 -->
<g id="Node000013" class="node">
<title>Node13</title>
<g id="a_Node000013"><a xlink:title=" ">
<polygon fill="#e0e0e0" stroke="#999999" points="1492,-19 1448,-19 1448,0 1492,0 1492,-19"/>
<text text-anchor="middle" x="1470" y="-7" font-family="Helvetica,sans-Serif" font-size="10.00">string</text>
</a>
</g>
</g>
<!-- Node1&#45;&gt;Node13 -->
<g id="edge24_Node000001_Node000013" class="edge">
<title>Node1&#45;&gt;Node13</title>
<g id="a_edge24_Node000001_Node000013"><a xlink:title=" ">
<path fill="none" stroke="#63b8ff" d="M792.25,-186.49C976.61,-175.91 1491.25,-141.51 1540,-85 1548.71,-74.9 1546.42,-66.69 1540,-55 1531.7,-39.88 1515.84,-29.17 1501.32,-22.05"/>
<polygon fill="#63b8ff" stroke="#63b8ff" points="1502.61,-18.8 1492.06,-17.88 1499.74,-25.18 1502.61,-18.8"/>
</a>
</g>
</g>
<!-- Node16 -->
<g id="Node000016" class="node">
<title>Node16</title>
<g id="a_Node000016"><a xlink:href="utils_8hpp.html" target="_top" xlink:title=" ">
<polygon fill="white" stroke="#666666" points="571.5,-79.5 488.5,-79.5 488.5,-60.5 571.5,-60.5 571.5,-79.5"/>
<text text-anchor="middle" x="530" y="-67.5" font-family="Helvetica,sans-Serif" font-size="10.00">utils/utils.hpp</text>
</a>
</g>
</g>
<!-- Node1&#45;&gt;Node16 -->
<g id="edge46_Node000001_Node000016" class="edge">
<title>Node1&#45;&gt;Node16</title>
<g id="a_edge46_Node000001_Node000016"><a xlink:title=" ">
<path fill="none" stroke="#63b8ff" d="M668.92,-175.91C643.29,-167.96 613.68,-156.29 590,-140 569.85,-126.14 552.23,-103.98 541.39,-88.53"/>
<polygon fill="#63b8ff" stroke="#63b8ff" points="544.05,-86.22 535.55,-79.9 538.26,-90.15 544.05,-86.22"/>
</a>
</g>
</g>
<!-- Node20 -->
<g id="Node000020" class="node">
<title>Node20</title>
<g id="a_Node000020"><a xlink:title=" ">
<polygon fill="#e0e0e0" stroke="#999999" points="857.5,-79.5 804.5,-79.5 804.5,-60.5 857.5,-60.5 857.5,-79.5"/>
<text text-anchor="middle" x="831" y="-67.5" font-family="Helvetica,sans-Serif" font-size="10.00">cstddef</text>
</a>
</g>
</g>
<!-- Node1&#45;&gt;Node20 -->
<g id="edge22_Node000001_Node000020" class="edge">
<title>Node1&#45;&gt;Node20</title>
<g id="a_edge22_Node000001_Node000020"><a xlink:title=" ">
<path fill="none" stroke="#63b8ff" d="M748.49,-175.94C761.5,-166.74 777.87,-153.88 790,-140 803.71,-124.31 815.39,-103.42 822.73,-88.74"/>
<polygon fill="#63b8ff" stroke="#63b8ff" points="825.89,-90.25 827.1,-79.72 819.59,-87.2 825.89,-90.25"/>
</a>
</g>
</g>
<!-- Node21 -->
<g id="Node000021" class="node">
<title>Node21</title>
<g id="a_Node000021"><a xlink:title=" ">
<polygon fill="#e0e0e0" stroke="#999999" points="895.5,-140 842.5,-140 842.5,-121 895.5,-121 895.5,-140"/>
<text text-anchor="middle" x="869" y="-128" font-family="Helvetica,sans-Serif" font-size="10.00">iterator</text>
</a>
</g>
</g>
<!-- Node1&#45;&gt;Node21 -->
<g id="edge23_Node000001_Node000021" class="edge">
<title>Node1&#45;&gt;Node21</title>
<g id="a_edge23_Node000001_Node000021"><a xlink:title=" ">
<path fill="none" stroke="#63b8ff" d="M761.01,-175.99C784.6,-166.27 815.74,-153.44 838.52,-144.06"/>
<polygon fill="#63b8ff" stroke="#63b8ff" points="840.12,-147.18 848.03,-140.14 837.45,-140.71 840.12,-147.18"/>
</a>
</g>
</g>
<!-- Node22 -->
<g id="Node000022" class="node">
<title>Node22</title>
<g id="a_Node000022"><a xlink:href="log_8hpp.html" target="_top" xlink:title=" ">
<polygon fill="white" stroke="#666666" points="1086,-79.5 990,-79.5 990,-60.5 1086,-60.5 1086,-79.5"/>
<text text-anchor="middle" x="1038" y="-67.5" font-family="Helvetica,sans-Serif" font-size="10.00">uvgvpcc/log.hpp</text>
</a>
</g>
</g>
<!-- Node1&#45;&gt;Node22 -->
<g id="edge28_Node000001_Node000022" class="edge">
<title>Node1&#45;&gt;Node22</title>
<g id="a_edge28_Node000001_Node000022"><a xlink:title=" ">
<path fill="none" stroke="#63b8ff" d="M788.99,-175.91C823.68,-167.2 867.38,-154.86 905,-140 945.08,-124.17 988.98,-99.93 1014.97,-84.8"/>
<polygon fill="#63b8ff" stroke="#63b8ff" points="1016.85,-87.75 1023.7,-79.67 1013.31,-81.72 1016.85,-87.75"/>
</a>
</g>
</g>
<!-- Node26 -->
<g id="Node000026" class="node">
<title>Node26</title>
<g id="a_Node000026"><a xlink:href="uvgvpcc_8hpp.html" target="_top" xlink:title=" ">
<polygon fill="white" stroke="#666666" points="1160,-140 1038,-140 1038,-121 1160,-121 1160,-140"/>
<text text-anchor="middle" x="1099" y="-128" font-family="Helvetica,sans-Serif" font-size="10.00">uvgvpcc/uvgvpcc.hpp</text>
</a>
</g>
</g>
<!-- Node1&#45;&gt;Node26 -->
<g id="edge34_Node000001_Node000026" class="edge">
<title>Node1&#45;&gt;Node26</title>
<g id="a_edge34_Node000001_Node000026"><a xlink:title=" ">
<path fill="none" stroke="#63b8ff" d="M792.22,-179.74C860.4,-169.02 966.73,-152.3 1034.6,-141.63"/>
<polygon fill="#63b8ff" stroke="#63b8ff" points="1035.41,-145.04 1044.74,-140.03 1034.32,-138.13 1035.41,-145.04"/>
</a>
</g>
</g>
<!-- Node31 -->
<g id="Node000031" class="node">
<title>Node31</title>
<g id="a_Node000031"><a xlink:href="utilsPatchGeneration_8hpp.html" target="_top" xlink:title=" ">
<polygon fill="white" stroke="#666666" points="747.5,-140 608.5,-140 608.5,-121 747.5,-121 747.5,-140"/>
<text text-anchor="middle" x="678" y="-128" font-family="Helvetica,sans-Serif" font-size="10.00">utilsPatchGeneration.hpp</text>
</a>
</g>
</g>
<!-- Node1&#45;&gt;Node31 -->
<g id="edge47_Node000001_Node000031" class="edge">
<title>Node1&#45;&gt;Node31</title>
<g id="a_edge47_Node000001_Node000031"><a xlink:title=" ">
<path fill="none" stroke="#63b8ff" d="M715.14,-175.84C708.1,-167.43 699.14,-156.74 691.79,-147.96"/>
<polygon fill="#63b8ff" stroke="#63b8ff" points="694.45,-145.68 685.34,-140.27 689.08,-150.18 694.45,-145.68"/>
</a>
</g>
</g>
<!-- Node2&#45;&gt;Node3 -->
<g id="edge2_Node000002_Node000003" class="edge">
<title>Node2&#45;&gt;Node3</title>
<g id="a_edge2_Node000002_Node000003"><a xlink:title=" ">
<path fill="none" stroke="#63b8ff" d="M460.39,-120.83C459.81,-105.14 461.07,-72.08 480,-55 518.47,-20.29 654.61,-28.62 721.67,-18.83"/>
<polygon fill="#63b8ff" stroke="#63b8ff" points="722.54,-22.23 731.81,-17.09 721.36,-15.33 722.54,-22.23"/>
</a>
</g>
</g>
<!-- Node2&#45;&gt;Node4 -->
<g id="edge3_Node000002_Node000004" class="edge">
<title>Node2&#45;&gt;Node4</title>
<g id="a_edge3_Node000002_Node000004"><a xlink:title=" ">
<path fill="none" stroke="#63b8ff" d="M485.52,-120.87C509.88,-112.19 548.24,-98.23 581,-85 582.17,-84.53 583.36,-84.04 584.56,-83.54"/>
<polygon fill="#63b8ff" stroke="#63b8ff" points="585.95,-86.75 593.78,-79.62 583.21,-80.31 585.95,-86.75"/>
</a>
</g>
</g>
<!-- Node2&#45;&gt;Node5 -->
<g id="edge4_Node000002_Node000005" class="edge">
<title>Node2&#45;&gt;Node5</title>
<g id="a_edge4_Node000002_Node000005"><a xlink:title=" ">
<path fill="none" stroke="#63b8ff" d="M447.43,-120.87C434.94,-112.93 415.98,-100.87 399.82,-90.6"/>
<polygon fill="#63b8ff" stroke="#63b8ff" points="401.51,-87.53 391.2,-85.11 397.76,-93.43 401.51,-87.53"/>
</a>
</g>
</g>
<!-- Node2&#45;&gt;Node16 -->
<g id="edge15_Node000002_Node000016" class="edge">
<title>Node2&#45;&gt;Node16</title>
<g id="a_edge15_Node000002_Node000016"><a xlink:title=" ">
<path fill="none" stroke="#63b8ff" d="M471.18,-120.87C481.88,-111.8 498.94,-97.34 511.93,-86.32"/>
<polygon fill="#63b8ff" stroke="#63b8ff" points="514.41,-88.8 519.78,-79.67 509.89,-83.46 514.41,-88.8"/>
</a>
</g>
</g>
<!-- Node5&#45;&gt;Node6 -->
<g id="edge5_Node000005_Node000006" class="edge">
<title>Node5&#45;&gt;Node6</title>
<g id="a_edge5_Node000005_Node000006"><a xlink:title=" ">
<path fill="none" stroke="#63b8ff" d="M306.23,-59.09C248.45,-49.81 160.14,-35.23 74.14,-19.16"/>
<polygon fill="#63b8ff" stroke="#63b8ff" points="74.68,-15.7 64.21,-17.29 73.39,-22.58 74.68,-15.7"/>
</a>
</g>
</g>
<!-- Node7 -->
<g id="Node000007" class="node">
<title>Node7</title>
<g id="a_Node000007"><a xlink:title=" ">
<polygon fill="#e0e0e0" stroke="#999999" points="515.5,-19 466.5,-19 466.5,0 515.5,0 515.5,-19"/>
<text text-anchor="middle" x="491" y="-7" font-family="Helvetica,sans-Serif" font-size="10.00">cstdlib</text>
</a>
</g>
</g>
<!-- Node5&#45;&gt;Node7 -->
<g id="edge6_Node000005_Node000007" class="edge">
<title>Node5&#45;&gt;Node7</title>
<g id="a_edge6_Node000005_Node000007"><a xlink:title=" ">
<path fill="none" stroke="#63b8ff" d="M398.22,-54.99C418.12,-45.45 444.28,-32.9 463.75,-23.57"/>
<polygon fill="#63b8ff" stroke="#63b8ff" points="465.48,-26.62 472.98,-19.14 462.45,-20.31 465.48,-26.62"/>
</a>
</g>
</g>
<!-- Node8 -->
<g id="Node000008" class="node">
<title>Node8</title>
<g id="a_Node000008"><a xlink:title=" ">
<polygon fill="#e0e0e0" stroke="#999999" points="132,-19 82,-19 82,0 132,0 132,-19"/>
<text text-anchor="middle" x="107" y="-7" font-family="Helvetica,sans-Serif" font-size="10.00">cstring</text>
</a>
</g>
</g>
<!-- Node5&#45;&gt;Node8 -->
<g id="edge7_Node000005_Node000008" class="edge">
<title>Node5&#45;&gt;Node8</title>
<g id="a_edge7_Node000005_Node000008"><a xlink:title=" ">
<path fill="none" stroke="#63b8ff" d="M306.47,-55.8C262.93,-46.49 203.26,-33.5 142.06,-19.2"/>
<polygon fill="#63b8ff" stroke="#63b8ff" points="142.77,-15.77 132.23,-16.89 141.17,-22.59 142.77,-15.77"/>
</a>
</g>
</g>
<!-- Node9 -->
<g id="Node000009" class="node">
<title>Node9</title>
<g id="a_Node000009"><a xlink:title=" ">
<polygon fill="#e0e0e0" stroke="#999999" points="215.5,-19 150.5,-19 150.5,0 215.5,0 215.5,-19"/>
<text text-anchor="middle" x="183" y="-7" font-family="Helvetica,sans-Serif" font-size="10.00">functional</text>
</a>
</g>
</g>
<!-- Node5&#45;&gt;Node9 -->
<g id="edge8_Node000005_Node000009" class="edge">
<title>Node5&#45;&gt;Node9</title>
<g id="a_edge8_Node000005_Node000009"><a xlink:title=" ">
<path fill="none" stroke="#63b8ff" d="M324.45,-54.99C292.49,-44.94 249.94,-31.55 219.88,-22.1"/>
<polygon fill="#63b8ff" stroke="#63b8ff" points="220.79,-18.72 210.2,-19.05 218.69,-25.39 220.79,-18.72"/>
</a>
</g>
</g>
<!-- Node10 -->
<g id="Node000010" class="node">
<title>Node10</title>
<g id="a_Node000010"><a xlink:title=" ">
<polygon fill="#e0e0e0" stroke="#999999" points="578,-19 534,-19 534,0 578,0 578,-19"/>
<text text-anchor="middle" x="556" y="-7" font-family="Helvetica,sans-Serif" font-size="10.00">limits</text>
</a>
</g>
</g>
<!-- Node5&#45;&gt;Node10 -->
<g id="edge9_Node000005_Node000010" class="edge">
<title>Node5&#45;&gt;Node10</title>
<g id="a_edge9_Node000005_Node000010"><a xlink:title=" ">
<path fill="none" stroke="#63b8ff" d="M413.79,-54.99C447.87,-44.33 493.91,-29.92 524.26,-20.43"/>
<polygon fill="#63b8ff" stroke="#63b8ff" points="525.41,-23.74 533.91,-17.41 523.32,-17.06 525.41,-23.74"/>
</a>
</g>
</g>
<!-- Node11 -->
<g id="Node000011" class="node">
<title>Node11</title>
<g id="a_Node000011"><a xlink:title=" ">
<polygon fill="#e0e0e0" stroke="#999999" points="654,-19 596,-19 596,0 654,0 654,-19"/>
<text text-anchor="middle" x="625" y="-7" font-family="Helvetica,sans-Serif" font-size="10.00">memory</text>
</a>
</g>
</g>
<!-- Node5&#45;&gt;Node11 -->
<g id="edge10_Node000005_Node000011" class="edge">
<title>Node5&#45;&gt;Node11</title>
<g id="a_edge10_Node000005_Node000011"><a xlink:title=" ">
<path fill="none" stroke="#63b8ff" d="M430.32,-54.99C478.59,-43.96 544.42,-28.91 585.81,-19.46"/>
<polygon fill="#63b8ff" stroke="#63b8ff" points="586.81,-22.82 595.78,-17.18 585.26,-15.99 586.81,-22.82"/>
</a>
</g>
</g>
<!-- Node12 -->
<g id="Node000012" class="node">
<title>Node12</title>
<g id="a_Node000012"><a xlink:title=" ">
<polygon fill="#e0e0e0" stroke="#999999" points="298.5,-19 233.5,-19 233.5,0 298.5,0 298.5,-19"/>
<text text-anchor="middle" x="266" y="-7" font-family="Helvetica,sans-Serif" font-size="10.00">stdexcept</text>
</a>
</g>
</g>
<!-- Node5&#45;&gt;Node12 -->
<g id="edge11_Node000005_Node000012" class="edge">
<title>Node5&#45;&gt;Node12</title>
<g id="a_edge11_Node000005_Node000012"><a xlink:title=" ">
<path fill="none" stroke="#63b8ff" d="M344.33,-54.99C327.91,-45.66 306.45,-33.47 290.14,-24.21"/>
<polygon fill="#63b8ff" stroke="#63b8ff" points="291.63,-21.03 281.21,-19.14 288.18,-27.12 291.63,-21.03"/>
</a>
</g>
</g>
<!-- Node5&#45;&gt;Node13 -->
<g id="edge12_Node000005_Node000013" class="edge">
<title>Node5&#45;&gt;Node13</title>
<g id="a_edge12_Node000005_Node000013"><a xlink:title=" ">
<path fill="none" stroke="#63b8ff" d="M431.71,-60.15C447.45,-58.19 464.32,-56.31 480,-55 870.97,-22.42 970.37,-42.4 1362,-19 1387.38,-17.48 1416.06,-15.2 1437.49,-13.38"/>
<polygon fill="#63b8ff" stroke="#63b8ff" points="1438.01,-16.85 1447.68,-12.5 1437.41,-9.87 1438.01,-16.85"/>
</a>
</g>
</g>
<!-- Node14 -->
<g id="Node000014" class="node">
<title>Node14</title>
<g id="a_Node000014"><a xlink:title=" ">
<polygon fill="#e0e0e0" stroke="#999999" points="385.5,-19 316.5,-19 316.5,0 385.5,0 385.5,-19"/>
<text text-anchor="middle" x="351" y="-7" font-family="Helvetica,sans-Serif" font-size="10.00">type_traits</text>
</a>
</g>
</g>
<!-- Node5&#45;&gt;Node14 -->
<g id="edge13_Node000005_Node000014" class="edge">
<title>Node5&#45;&gt;Node14</title>
<g id="a_edge13_Node000005_Node000014"><a xlink:title=" ">
<path fill="none" stroke="#63b8ff" d="M364.64,-54.84C362.24,-47.04 359.24,-37.27 356.66,-28.89"/>
<polygon fill="#63b8ff" stroke="#63b8ff" points="359.98,-27.79 353.7,-19.27 353.29,-29.85 359.98,-27.79"/>
</a>
</g>
</g>
<!-- Node15 -->
<g id="Node000015" class="node">
<title>Node15</title>
<g id="a_Node000015"><a xlink:title=" ">
<polygon fill="#e0e0e0" stroke="#999999" points="448.5,-19 403.5,-19 403.5,0 448.5,0 448.5,-19"/>
<text text-anchor="middle" x="426" y="-7" font-family="Helvetica,sans-Serif" font-size="10.00">utility</text>
</a>
</g>
</g>
<!-- Node5&#45;&gt;Node15 -->
<g id="edge14_Node000005_Node000015" class="edge">
<title>Node5&#45;&gt;Node15</title>
<g id="a_edge14_Node000005_Node000015"><a xlink:title=" ">
<path fill="none" stroke="#63b8ff" d="M382.8,-54.84C391.07,-46.35 401.62,-35.52 410.23,-26.69"/>
<polygon fill="#63b8ff" stroke="#63b8ff" points="412.99,-28.87 417.46,-19.27 407.97,-23.99 412.99,-28.87"/>
</a>
</g>
</g>
<!-- Node16&#45;&gt;Node3 -->
<g id="edge17_Node000016_Node000003" class="edge">
<title>Node16&#45;&gt;Node3</title>
<g id="a_edge17_Node000016_Node000003"><a xlink:title=" ">
<path fill="none" stroke="#63b8ff" d="M560.72,-60.46C567.4,-58.63 574.43,-56.73 581,-55 607.38,-48.05 678.57,-30.15 721.9,-19.29"/>
<polygon fill="#63b8ff" stroke="#63b8ff" points="722.9,-22.64 731.74,-16.82 721.19,-15.85 722.9,-22.64"/>
</a>
</g>
</g>
<!-- Node16&#45;&gt;Node10 -->
<g id="edge18_Node000016_Node000010" class="edge">
<title>Node16&#45;&gt;Node10</title>
<g id="a_edge18_Node000016_Node000010"><a xlink:title=" ">
<path fill="none" stroke="#63b8ff" d="M533.84,-60.37C537.56,-51.99 543.33,-39.01 548.05,-28.39"/>
<polygon fill="#63b8ff" stroke="#63b8ff" points="551.28,-29.73 552.15,-19.17 544.89,-26.88 551.28,-29.73"/>
</a>
</g>
</g>
<!-- Node17 -->
<g id="Node000017" class="node">
<title>Node17</title>
<g id="a_Node000017"><a xlink:title=" ">
<polygon fill="#e0e0e0" stroke="#999999" points="714,-19 672,-19 672,0 714,0 714,-19"/>
<text text-anchor="middle" x="693" y="-7" font-family="Helvetica,sans-Serif" font-size="10.00">array</text>
</a>
</g>
</g>
<!-- Node16&#45;&gt;Node17 -->
<g id="edge16_Node000016_Node000017" class="edge">
<title>Node16&#45;&gt;Node17</title>
<g id="a_edge16_Node000016_Node000017"><a xlink:title=" ">
<path fill="none" stroke="#63b8ff" d="M553.7,-60.49C582.38,-50.2 630.74,-32.84 662.27,-21.53"/>
<polygon fill="#63b8ff" stroke="#63b8ff" points="663.63,-24.76 671.86,-18.09 661.27,-18.17 663.63,-24.76"/>
</a>
</g>
</g>
<!-- Node18 -->
<g id="Node000018" class="node">
<title>Node18</title>
<g id="a_Node000018"><a xlink:title=" ">
<polygon fill="#e0e0e0" stroke="#999999" points="871,-19 815,-19 815,0 871,0 871,-19"/>
<text text-anchor="middle" x="843" y="-7" font-family="Helvetica,sans-Serif" font-size="10.00">sstream</text>
</a>
</g>
</g>
<!-- Node16&#45;&gt;Node18 -->
<g id="edge19_Node000016_Node000018" class="edge">
<title>Node16&#45;&gt;Node18</title>
<g id="a_edge19_Node000016_Node000018"><a xlink:title=" ">
<path fill="none" stroke="#63b8ff" d="M559.27,-60.43C566.35,-58.5 573.92,-56.57 581,-55 602.43,-50.25 736.8,-27.97 804.34,-16.85"/>
<polygon fill="#63b8ff" stroke="#63b8ff" points="805.28,-20.24 814.58,-15.16 804.14,-13.33 805.28,-20.24"/>
</a>
</g>
</g>
<!-- Node19 -->
<g id="Node000019" class="node">
<title>Node19</title>
<g id="a_Node000019"><a xlink:title=" ">
<polygon fill="#e0e0e0" stroke="#999999" points="968,-19 912,-19 912,0 968,0 968,-19"/>
<text text-anchor="middle" x="940" y="-7" font-family="Helvetica,sans-Serif" font-size="10.00">iomanip</text>
</a>
</g>
</g>
<!-- Node16&#45;&gt;Node19 -->
<g id="edge20_Node000016_Node000019" class="edge">
<title>Node16&#45;&gt;Node19</title>
<g id="a_edge20_Node000016_Node000019"><a xlink:title=" ">
<path fill="none" stroke="#63b8ff" d="M558.15,-60.47C565.53,-58.46 573.52,-56.47 581,-55 712.34,-29.21 747.29,-36.39 880,-19 887.09,-18.07 894.64,-17.04 901.92,-16.02"/>
<polygon fill="#63b8ff" stroke="#63b8ff" points="902.52,-19.47 911.93,-14.6 901.54,-12.54 902.52,-19.47"/>
</a>
</g>
</g>
<!-- Node22&#45;&gt;Node13 -->
<g id="edge33_Node000022_Node000013" class="edge">
<title>Node22&#45;&gt;Node13</title>
<g id="a_edge33_Node000022_Node000013"><a xlink:title=" ">
<path fill="none" stroke="#63b8ff" d="M1070.37,-60.47C1078.68,-58.48 1087.64,-56.5 1096,-55 1221.59,-32.45 1373.02,-18.42 1437.93,-13.03"/>
<polygon fill="#63b8ff" stroke="#63b8ff" points="1438.26,-16.51 1447.94,-12.21 1437.69,-9.53 1438.26,-16.51"/>
</a>
</g>
</g>
<!-- Node22&#45;&gt;Node19 -->
<g id="edge31_Node000022_Node000019" class="edge">
<title>Node22&#45;&gt;Node19</title>
<g id="a_edge31_Node000022_Node000019"><a xlink:title=" ">
<path fill="none" stroke="#63b8ff" d="M1023.54,-60.37C1007.69,-50.91 982.03,-35.59 963.32,-24.42"/>
<polygon fill="#63b8ff" stroke="#63b8ff" points="964.9,-21.29 954.52,-19.17 961.31,-27.3 964.9,-21.29"/>
</a>
</g>
</g>
<!-- Node23 -->
<g id="Node000023" class="node">
<title>Node23</title>
<g id="a_Node000023"><a xlink:title=" ">
<polygon fill="#e0e0e0" stroke="#999999" points="1048,-19 998,-19 998,0 1048,0 1048,-19"/>
<text text-anchor="middle" x="1023" y="-7" font-family="Helvetica,sans-Serif" font-size="10.00">chrono</text>
</a>
</g>
</g>
<!-- Node22&#45;&gt;Node23 -->
<g id="edge29_Node000022_Node000023" class="edge">
<title>Node22&#45;&gt;Node23</title>
<g id="a_edge29_Node000022_Node000023"><a xlink:title=" ">
<path fill="none" stroke="#63b8ff" d="M1035.79,-60.37C1033.68,-52.16 1030.45,-39.54 1027.76,-29.05"/>
<polygon fill="#63b8ff" stroke="#63b8ff" points="1031.1,-27.98 1025.22,-19.17 1024.32,-29.72 1031.1,-27.98"/>
</a>
</g>
</g>
<!-- Node24 -->
<g id="Node000024" class="node">
<title>Node24</title>
<g id="a_Node000024"><a xlink:title=" ">
<polygon fill="#e0e0e0" stroke="#999999" points="1119.5,-19 1066.5,-19 1066.5,0 1119.5,0 1119.5,-19"/>
<text text-anchor="middle" x="1093" y="-7" font-family="Helvetica,sans-Serif" font-size="10.00">cstdarg</text>
</a>
</g>
</g>
<!-- Node22&#45;&gt;Node24 -->
<g id="edge30_Node000022_Node000024" class="edge">
<title>Node22&#45;&gt;Node24</title>
<g id="a_edge30_Node000022_Node000024"><a xlink:title=" ">
<path fill="none" stroke="#63b8ff" d="M1046.12,-60.37C1054.4,-51.55 1067.47,-37.66 1077.7,-26.77"/>
<polygon fill="#63b8ff" stroke="#63b8ff" points="1080.55,-28.85 1084.85,-19.17 1075.45,-24.06 1080.55,-28.85"/>
</a>
</g>
</g>
<!-- Node25 -->
<g id="Node000025" class="node">
<title>Node25</title>
<g id="a_Node000025"><a xlink:title=" ">
<polygon fill="#e0e0e0" stroke="#999999" points="1353,-19 1293,-19 1293,0 1353,0 1353,-19"/>
<text text-anchor="middle" x="1323" y="-7" font-family="Helvetica,sans-Serif" font-size="10.00">iostream</text>
</a>
</g>
</g>
<!-- Node22&#45;&gt;Node25 -->
<g id="edge32_Node000022_Node000025" class="edge">
<title>Node22&#45;&gt;Node25</title>
<g id="a_edge32_Node000022_Node000025"><a xlink:title=" ">
<path fill="none" stroke="#63b8ff" d="M1072.29,-60.46C1080.07,-58.6 1088.31,-56.68 1096,-55 1161.15,-40.76 1237.3,-26.27 1282.76,-17.84"/>
<polygon fill="#63b8ff" stroke="#63b8ff" points="1283.61,-21.25 1292.8,-15.99 1282.34,-14.36 1283.61,-21.25"/>
</a>
</g>
</g>
<!-- Node26&#45;&gt;Node3 -->
<g id="edge36_Node000026_Node000003" class="edge">
<title>Node26&#45;&gt;Node3</title>
<g id="a_edge36_Node000026_Node000003"><a xlink:title=" ">
<path fill="none" stroke="#63b8ff" d="M1048.5,-120.93C1015.79,-114.1 972.92,-102.69 938,-85 918.81,-75.27 919.04,-65.03 900,-55 865.33,-36.73 821.91,-24.55 792.07,-17.62"/>
<polygon fill="#63b8ff" stroke="#63b8ff" points="792.64,-14.16 782.11,-15.38 791.1,-20.99 792.64,-14.16"/>
</a>
</g>
</g>
<!-- Node26&#45;&gt;Node4 -->
<g id="edge43_Node000026_Node000004" class="edge">
<title>Node26&#45;&gt;Node4</title>
<g id="a_edge43_Node000026_Node000004"><a xlink:title=" ">
<path fill="none" stroke="#63b8ff" d="M1037.87,-125.8C931.91,-118.99 718.56,-103.49 646,-85 644.06,-84.5 642.08,-83.91 640.1,-83.25"/>
<polygon fill="#63b8ff" stroke="#63b8ff" points="641.06,-79.87 630.47,-79.57 638.56,-86.41 641.06,-79.87"/>
</a>
</g>
</g>
<!-- Node26&#45;&gt;Node11 -->
<g id="edge38_Node000026_Node000011" class="edge">
<title>Node26&#45;&gt;Node11</title>
<g id="a_edge38_Node000026_Node000011"><a xlink:title=" ">
<path fill="none" stroke="#63b8ff" d="M1037.88,-124.08C997.01,-118.52 943.04,-107.35 900,-85 882.41,-75.87 884.79,-63.73 867,-55 787.17,-15.82 755.46,-35.58 663.96,-19.03"/>
<polygon fill="#63b8ff" stroke="#63b8ff" points="664.5,-15.57 654.02,-17.13 663.18,-22.45 664.5,-15.57"/>
</a>
</g>
</g>
<!-- Node26&#45;&gt;Node13 -->
<g id="edge42_Node000026_Node000013" class="edge">
<title>Node26&#45;&gt;Node13</title>
<g id="a_edge42_Node000026_Node000013"><a xlink:title=" ">
<path fill="none" stroke="#63b8ff" d="M1160.06,-127.54C1271.84,-123.32 1500.1,-111.53 1524,-85 1541.48,-65.6 1514.61,-40.59 1492.91,-25.06"/>
<polygon fill="#63b8ff" stroke="#63b8ff" points="1494.6,-21.97 1484.36,-19.21 1490.64,-27.75 1494.6,-21.97"/>
</a>
</g>
</g>
<!-- Node26&#45;&gt;Node18 -->
<g id="edge41_Node000026_Node000018" class="edge">
<title>Node26&#45;&gt;Node18</title>
<g id="a_edge41_Node000026_Node000018"><a xlink:title=" ">
<path fill="none" stroke="#63b8ff" d="M1070.49,-120.96C1046.05,-113.12 1010.25,-100.41 981,-85 960.38,-74.14 958.18,-66.65 938,-55 917.05,-42.9 892.26,-31.38 873.26,-23.09"/>
<polygon fill="#63b8ff" stroke="#63b8ff" points="874.47,-19.8 863.9,-19.06 871.7,-26.23 874.47,-19.8"/>
</a>
</g>
</g>
<!-- Node26&#45;&gt;Node20 -->
<g id="edge35_Node000026_Node000020" class="edge">
<title>Node26&#45;&gt;Node20</title>
<g id="a_edge35_Node000026_Node000020"><a xlink:title=" ">
<path fill="none" stroke="#63b8ff" d="M1044.41,-120.93C998.13,-113.17 930.19,-100.56 872,-85 869.37,-84.3 866.66,-83.51 863.94,-82.68"/>
<polygon fill="#63b8ff" stroke="#63b8ff" points="864.84,-79.29 854.25,-79.55 862.69,-85.95 864.84,-79.29"/>
</a>
</g>
</g>
<!-- Node26&#45;&gt;Node25 -->
<g id="edge37_Node000026_Node000025" class="edge">
<title>Node26&#45;&gt;Node25</title>
<g id="a_edge37_Node000026_Node000025"><a xlink:title=" ">
<path fill="none" stroke="#63b8ff" d="M1160.01,-127.24C1267.93,-122.6 1483.34,-110.27 1506,-85 1549.15,-36.88 1429.65,-19.23 1363.55,-13.27"/>
<polygon fill="#63b8ff" stroke="#63b8ff" points="1363.69,-9.77 1353.43,-12.41 1363.1,-16.75 1363.69,-9.77"/>
</a>
</g>
</g>
<!-- Node27 -->
<g id="Node000027" class="node">
<title>Node27</title>
<g id="a_Node000027"><a xlink:title=" ">
<polygon fill="#e0e0e0" stroke="#999999" points="1151.5,-79.5 1104.5,-79.5 1104.5,-60.5 1151.5,-60.5 1151.5,-79.5"/>
<text text-anchor="middle" x="1128" y="-67.5" font-family="Helvetica,sans-Serif" font-size="10.00">queue</text>
</a>
</g>
</g>
<!-- Node26&#45;&gt;Node27 -->
<g id="edge39_Node000026_Node000027" class="edge">
<title>Node26&#45;&gt;Node27</title>
<g id="a_edge39_Node000026_Node000027"><a xlink:title=" ">
<path fill="none" stroke="#63b8ff" d="M1103.28,-120.87C1107.43,-112.49 1113.87,-99.51 1119.13,-88.89"/>
<polygon fill="#63b8ff" stroke="#63b8ff" points="1122.4,-90.18 1123.7,-79.67 1116.13,-87.07 1122.4,-90.18"/>
</a>
</g>
</g>
<!-- Node28 -->
<g id="Node000028" class="node">
<title>Node28</title>
<g id="a_Node000028"><a xlink:title=" ">
<polygon fill="#e0e0e0" stroke="#999999" points="1240.5,-79.5 1169.5,-79.5 1169.5,-60.5 1240.5,-60.5 1240.5,-79.5"/>
<text text-anchor="middle" x="1205" y="-67.5" font-family="Helvetica,sans-Serif" font-size="10.00">semaphore</text>
</a>
</g>
</g>
<!-- Node26&#45;&gt;Node28 -->
<g id="edge40_Node000026_Node000028" class="edge">
<title>Node26&#45;&gt;Node28</title>
<g id="a_edge40_Node000026_Node000028"><a xlink:title=" ">
<path fill="none" stroke="#63b8ff" d="M1114.64,-120.87C1131.94,-111.32 1160.05,-95.81 1180.33,-84.62"/>
<polygon fill="#63b8ff" stroke="#63b8ff" points="1182.23,-87.56 1189.3,-79.67 1178.85,-81.43 1182.23,-87.56"/>
</a>
</g>
</g>
<!-- Node29 -->
<g id="Node000029" class="node">
<title>Node29</title>
<g id="a_Node000029"><a xlink:title=" ">
<polygon fill="#e0e0e0" stroke="#999999" points="1351,-79.5 1259,-79.5 1259,-60.5 1351,-60.5 1351,-79.5"/>
<text text-anchor="middle" x="1305" y="-67.5" font-family="Helvetica,sans-Serif" font-size="10.00">../utils/utils.hpp</text>
</a>
</g>
</g>
<!-- Node26&#45;&gt;Node29 -->
<g id="edge44_Node000026_Node000029" class="edge">
<title>Node26&#45;&gt;Node29</title>
<g id="a_edge44_Node000026_Node000029"><a xlink:title=" ">
<path fill="none" stroke="#63b8ff" d="M1128.95,-120.99C1164.96,-110.77 1225.5,-93.58 1265.35,-82.26"/>
<polygon fill="#63b8ff" stroke="#63b8ff" points="1266.35,-85.62 1275.01,-79.52 1264.43,-78.88 1266.35,-85.62"/>
</a>
</g>
</g>
<!-- Node30 -->
<g id="Node000030" class="node">
<title>Node30</title>
<g id="a_Node000030"><a xlink:title=" ">
<polygon fill="#e0e0e0" stroke="#999999" points="1496.5,-79.5 1369.5,-79.5 1369.5,-60.5 1496.5,-60.5 1496.5,-79.5"/>
<text text-anchor="middle" x="1433" y="-67.5" font-family="Helvetica,sans-Serif" font-size="10.00">../utils/parameters.hpp</text>
</a>
</g>
</g>
<!-- Node26&#45;&gt;Node30 -->
<g id="edge45_Node000026_Node000030" class="edge">
<title>Node26&#45;&gt;Node30</title>
<g id="a_edge45_Node000026_Node000030"><a xlink:title=" ">
<path fill="none" stroke="#63b8ff" d="M1151.05,-120.95C1203.77,-112.21 1287.63,-98.11 1360,-85 1366.25,-83.87 1372.79,-82.65 1379.29,-81.43"/>
<polygon fill="#63b8ff" stroke="#63b8ff" points="1380.23,-84.81 1389.41,-79.51 1378.93,-77.94 1380.23,-84.81"/>
</a>
</g>
</g>
<!-- Node31&#45;&gt;Node3 -->
<g id="edge50_Node000031_Node000003" class="edge">
<title>Node31&#45;&gt;Node3</title>
<g id="a_edge50_Node000031_Node000003"><a xlink:title=" ">
<path fill="none" stroke="#63b8ff" d="M687.26,-120.92C696.12,-112.38 709.52,-98.62 719,-85 731.54,-66.99 742.51,-44.28 749.4,-28.7"/>
<polygon fill="#63b8ff" stroke="#63b8ff" points="752.76,-29.76 753.49,-19.19 746.33,-27 752.76,-29.76"/>
</a>
</g>
</g>
<!-- Node31&#45;&gt;Node4 -->
<g id="edge52_Node000031_Node000004" class="edge">
<title>Node31&#45;&gt;Node4</title>
<g id="a_edge52_Node000031_Node000004"><a xlink:title=" ">
<path fill="none" stroke="#63b8ff" d="M668.41,-120.87C658.42,-111.88 642.57,-97.61 630.37,-86.64"/>
<polygon fill="#63b8ff" stroke="#63b8ff" points="632.4,-83.76 622.63,-79.67 627.72,-88.96 632.4,-83.76"/>
</a>
</g>
</g>
<!-- Node31&#45;&gt;Node5 -->
<g id="edge53_Node000031_Node000005" class="edge">
<title>Node31&#45;&gt;Node5</title>
<g id="a_edge53_Node000031_Node000005"><a xlink:title=" ">
<path fill="none" stroke="#63b8ff" d="M633.07,-120.99C582.91,-111.5 501.01,-95.99 441.7,-84.76"/>
<polygon fill="#63b8ff" stroke="#63b8ff" points="442.12,-81.28 431.65,-82.86 440.82,-88.16 442.12,-81.28"/>
</a>
</g>
</g>
<!-- Node31&#45;&gt;Node16 -->
<g id="edge48_Node000031_Node000016" class="edge">
<title>Node31&#45;&gt;Node16</title>
<g id="a_edge48_Node000031_Node000016"><a xlink:title=" ">
<path fill="none" stroke="#63b8ff" d="M656.48,-120.99C631.38,-111.07 589.68,-94.59 561.07,-83.28"/>
<polygon fill="#63b8ff" stroke="#63b8ff" points="562.13,-79.94 551.55,-79.52 559.56,-86.45 562.13,-79.94"/>
</a>
</g>
</g>
<!-- Node31&#45;&gt;Node22 -->
<g id="edge49_Node000031_Node000022" class="edge">
<title>Node31&#45;&gt;Node22</title>
<g id="a_edge49_Node000031_Node000022"><a xlink:title=" ">
<path fill="none" stroke="#63b8ff" d="M730.35,-120.99C796.66,-110.22 910.59,-91.7 979.64,-80.48"/>
<polygon fill="#63b8ff" stroke="#63b8ff" points="980.6,-83.87 989.91,-78.81 979.48,-76.96 980.6,-83.87"/>
</a>
</g>
</g>
<!-- Node32 -->
<g id="Node000032" class="node">
<title>Node32</title>
<g id="a_Node000032"><a xlink:title=" ">
<polygon fill="#e0e0e0" stroke="#999999" points="709.5,-79.5 654.5,-79.5 654.5,-60.5 709.5,-60.5 709.5,-79.5"/>
<text text-anchor="middle" x="682" y="-67.5" font-family="Helvetica,sans-Serif" font-size="10.00">fstream</text>
</a>
</g>
</g>
<!-- Node31&#45;&gt;Node32 -->
<g id="edge51_Node000031_Node000032" class="edge">
<title>Node31&#45;&gt;Node32</title>
<g id="a_edge51_Node000031_Node000032"><a xlink:title=" ">
<path fill="none" stroke="#63b8ff" d="M678.59,-120.87C679.15,-112.75 680,-100.31 680.71,-89.89"/>
<polygon fill="#63b8ff" stroke="#63b8ff" points="684.22,-89.88 681.41,-79.67 677.23,-89.41 684.22,-89.88"/>
</a>
</g>
</g>
</g>
</svg>
