<?xml version="1.0" encoding="UTF-8" standalone="no"?>
<!DOCTYPE svg PUBLIC "-//W3C//DTD SVG 1.1//EN"
 "http://www.w3.org/Graphics/SVG/1.1/DTD/svg11.dtd">
<!-- Generated by graphviz version 2.43.0 (0)
 -->
<!-- Title: src/lib/patchGeneration/ppiSegmenter.hpp Pages: 1 -->
<svg width="1003pt" height="159pt"
 viewBox="0.00 0.00 1003.00 159.00" xmlns="http://www.w3.org/2000/svg" xmlns:xlink="http://www.w3.org/1999/xlink">
<g id="graph0" class="graph" transform="scale(1 1) rotate(0) translate(4 155)">
<title>src/lib/patchGeneration/ppiSegmenter.hpp</title>
<!-- Node1 -->
<g id="Node000001" class="node">
<title>Node1</title>
<g id="a_Node000001"><a xlink:title=" ">
<polygon fill="#999999" stroke="#666666" points="856,-151 726,-151 726,-121 856,-121 856,-151"/>
<text text-anchor="start" x="734" y="-139" font-family="Helvetica,sans-Serif" font-size="10.00">src/lib/patchGeneration</text>
<text text-anchor="middle" x="791" y="-128" font-family="Helvetica,sans-Serif" font-size="10.00">/ppiSegmenter.hpp</text>
</a>
</g>
</g>
<!-- Node2 -->
<g id="Node000002" class="node">
<title>Node2</title>
<g id="a_Node000002"><a xlink:title=" ">
<polygon fill="#e0e0e0" stroke="#999999" points="787,-19 737,-19 737,0 787,0 787,-19"/>
<text text-anchor="middle" x="762" y="-7" font-family="Helvetica,sans-Serif" font-size="10.00">cstdint</text>
</a>
</g>
</g>
<!-- Node1&#45;&gt;Node2 -->
<g id="edge1_Node000001_Node000002" class="edge">
<title>Node1&#45;&gt;Node2</title>
<g id="a_edge1_Node000001_Node000002"><a xlink:title=" ">
<path fill="none" stroke="#63b8ff" d="M786.26,-120.67C783.08,-110.73 778.96,-97.15 776,-85 771.44,-66.25 767.51,-44.54 764.99,-29.41"/>
<polygon fill="#63b8ff" stroke="#63b8ff" points="768.4,-28.59 763.34,-19.28 761.49,-29.71 768.4,-28.59"/>
</a>
</g>
</g>
<!-- Node3 -->
<g id="Node000003" class="node">
<title>Node3</title>
<g id="a_Node000003"><a xlink:title=" ">
<polygon fill="#e0e0e0" stroke="#999999" points="932.5,-79.5 885.5,-79.5 885.5,-60.5 932.5,-60.5 932.5,-79.5"/>
<text text-anchor="middle" x="909" y="-67.5" font-family="Helvetica,sans-Serif" font-size="10.00">vector</text>
</a>
</g>
</g>
<!-- Node1&#45;&gt;Node3 -->
<g id="edge2_Node000001_Node000003" class="edge">
<title>Node1&#45;&gt;Node3</title>
<g id="a_edge2_Node000001_Node000003"><a xlink:title=" ">
<path fill="none" stroke="#63b8ff" d="M816.9,-120.95C836.95,-110.08 864.55,-95.11 884.3,-84.4"/>
<polygon fill="#63b8ff" stroke="#63b8ff" points="886.17,-87.36 893.3,-79.52 882.84,-81.21 886.17,-87.36"/>
</a>
</g>
</g>
<!-- Node4 -->
<g id="Node000004" class="node">
<title>Node4</title>
<g id="a_Node000004"><a xlink:href="robin__hood_8h.html" target="_top" xlink:title=" ">
<polygon fill="white" stroke="#666666" points="467.5,-85 342.5,-85 342.5,-55 467.5,-55 467.5,-85"/>
<text text-anchor="start" x="350.5" y="-73" font-family="Helvetica,sans-Serif" font-size="10.00">patchGeneration/robin</text>
<text text-anchor="middle" x="405" y="-62" font-family="Helvetica,sans-Serif" font-size="10.00">_hood.h</text>
</a>
</g>
</g>
<!-- Node1&#45;&gt;Node4 -->
<g id="edge3_Node000001_Node000004" class="edge">
<title>Node1&#45;&gt;Node4</title>
<g id="a_edge3_Node000001_Node000004"><a xlink:title=" ">
<path fill="none" stroke="#63b8ff" d="M725.96,-124.22C657.35,-112.84 549.49,-94.96 478.02,-83.11"/>
<polygon fill="#63b8ff" stroke="#63b8ff" points="478.18,-79.59 467.75,-81.4 477.04,-86.49 478.18,-79.59"/>
</a>
</g>
</g>
<!-- Node15 -->
<g id="Node000015" class="node">
<title>Node15</title>
<g id="a_Node000015"><a xlink:href="utils_8hpp.html" target="_top" xlink:title=" ">
<polygon fill="white" stroke="#666666" points="867.5,-79.5 784.5,-79.5 784.5,-60.5 867.5,-60.5 867.5,-79.5"/>
<text text-anchor="middle" x="826" y="-67.5" font-family="Helvetica,sans-Serif" font-size="10.00">utils/utils.hpp</text>
</a>
</g>
</g>
<!-- Node1&#45;&gt;Node15 -->
<g id="edge14_Node000001_Node000015" class="edge">
<title>Node1&#45;&gt;Node15</title>
<g id="a_edge14_Node000001_Node000015"><a xlink:title=" ">
<path fill="none" stroke="#63b8ff" d="M798.77,-120.8C803.96,-111.31 810.82,-98.76 816.36,-88.63"/>
<polygon fill="#63b8ff" stroke="#63b8ff" points="819.44,-90.3 821.16,-79.84 813.29,-86.94 819.44,-90.3"/>
</a>
</g>
</g>
<!-- Node5 -->
<g id="Node000005" class="node">
<title>Node5</title>
<g id="a_Node000005"><a xlink:title=" ">
<polygon fill="#e0e0e0" stroke="#999999" points="437,-19 373,-19 373,0 437,0 437,-19"/>
<text text-anchor="middle" x="405" y="-7" font-family="Helvetica,sans-Serif" font-size="10.00">algorithm</text>
</a>
</g>
</g>
<!-- Node4&#45;&gt;Node5 -->
<g id="edge4_Node000004_Node000005" class="edge">
<title>Node4&#45;&gt;Node5</title>
<g id="a_edge4_Node000004_Node000005"><a xlink:title=" ">
<path fill="none" stroke="#63b8ff" d="M405,-54.84C405,-47.21 405,-37.7 405,-29.45"/>
<polygon fill="#63b8ff" stroke="#63b8ff" points="408.5,-29.27 405,-19.27 401.5,-29.27 408.5,-29.27"/>
</a>
</g>
</g>
<!-- Node6 -->
<g id="Node000006" class="node">
<title>Node6</title>
<g id="a_Node000006"><a xlink:title=" ">
<polygon fill="#e0e0e0" stroke="#999999" points="504.5,-19 455.5,-19 455.5,0 504.5,0 504.5,-19"/>
<text text-anchor="middle" x="480" y="-7" font-family="Helvetica,sans-Serif" font-size="10.00">cstdlib</text>
</a>
</g>
</g>
<!-- Node4&#45;&gt;Node6 -->
<g id="edge5_Node000004_Node000006" class="edge">
<title>Node4&#45;&gt;Node6</title>
<g id="a_edge5_Node000004_Node000006"><a xlink:title=" ">
<path fill="none" stroke="#63b8ff" d="M423.16,-54.84C434.49,-46 449.06,-34.63 460.62,-25.62"/>
<polygon fill="#63b8ff" stroke="#63b8ff" points="463.03,-28.18 468.76,-19.27 458.72,-22.66 463.03,-28.18"/>
</a>
</g>
</g>
<!-- Node7 -->
<g id="Node000007" class="node">
<title>Node7</title>
<g id="a_Node000007"><a xlink:title=" ">
<polygon fill="#e0e0e0" stroke="#999999" points="573,-19 523,-19 523,0 573,0 573,-19"/>
<text text-anchor="middle" x="548" y="-7" font-family="Helvetica,sans-Serif" font-size="10.00">cstring</text>
</a>
</g>
</g>
<!-- Node4&#45;&gt;Node7 -->
<g id="edge6_Node000004_Node000007" class="edge">
<title>Node4&#45;&gt;Node7</title>
<g id="a_edge6_Node000004_Node000007"><a xlink:title=" ">
<path fill="none" stroke="#63b8ff" d="M439.25,-54.99C463.11,-45.23 494.65,-32.33 517.61,-22.93"/>
<polygon fill="#63b8ff" stroke="#63b8ff" points="518.95,-26.17 526.88,-19.14 516.3,-19.69 518.95,-26.17"/>
</a>
</g>
</g>
<!-- Node8 -->
<g id="Node000008" class="node">
<title>Node8</title>
<g id="a_Node000008"><a xlink:title=" ">
<polygon fill="#e0e0e0" stroke="#999999" points="656.5,-19 591.5,-19 591.5,0 656.5,0 656.5,-19"/>
<text text-anchor="middle" x="624" y="-7" font-family="Helvetica,sans-Serif" font-size="10.00">functional</text>
</a>
</g>
</g>
<!-- Node4&#45;&gt;Node8 -->
<g id="edge7_Node000004_Node000008" class="edge">
<title>Node4&#45;&gt;Node8</title>
<g id="a_edge7_Node000004_Node000008"><a xlink:title=" ">
<path fill="none" stroke="#63b8ff" d="M457.46,-54.99C495.58,-44.8 546.5,-31.2 581.96,-21.73"/>
<polygon fill="#63b8ff" stroke="#63b8ff" points="583.22,-25.02 591.98,-19.05 581.41,-18.25 583.22,-25.02"/>
</a>
</g>
</g>
<!-- Node9 -->
<g id="Node000009" class="node">
<title>Node9</title>
<g id="a_Node000009"><a xlink:title=" ">
<polygon fill="#e0e0e0" stroke="#999999" points="719,-19 675,-19 675,0 719,0 719,-19"/>
<text text-anchor="middle" x="697" y="-7" font-family="Helvetica,sans-Serif" font-size="10.00">limits</text>
</a>
</g>
</g>
<!-- Node4&#45;&gt;Node9 -->
<g id="edge8_Node000004_Node000009" class="edge">
<title>Node4&#45;&gt;Node9</title>
<g id="a_edge8_Node000004_Node000009"><a xlink:title=" ">
<path fill="none" stroke="#63b8ff" d="M467.52,-58.44C518.29,-49.54 591.93,-35.91 664.88,-19.12"/>
<polygon fill="#63b8ff" stroke="#63b8ff" points="665.75,-22.51 674.7,-16.84 664.17,-15.69 665.75,-22.51"/>
</a>
</g>
</g>
<!-- Node10 -->
<g id="Node000010" class="node">
<title>Node10</title>
<g id="a_Node000010"><a xlink:title=" ">
<polygon fill="#e0e0e0" stroke="#999999" points="58,-19 0,-19 0,0 58,0 58,-19"/>
<text text-anchor="middle" x="29" y="-7" font-family="Helvetica,sans-Serif" font-size="10.00">memory</text>
</a>
</g>
</g>
<!-- Node4&#45;&gt;Node10 -->
<g id="edge9_Node000004_Node000010" class="edge">
<title>Node4&#45;&gt;Node10</title>
<g id="a_edge9_Node000004_Node000010"><a xlink:title=" ">
<path fill="none" stroke="#63b8ff" d="M342.48,-61.15C276.66,-52.56 169.81,-37.74 68.14,-19.09"/>
<polygon fill="#63b8ff" stroke="#63b8ff" points="68.47,-15.59 58,-17.22 67.2,-22.48 68.47,-15.59"/>
</a>
</g>
</g>
<!-- Node11 -->
<g id="Node000011" class="node">
<title>Node11</title>
<g id="a_Node000011"><a xlink:title=" ">
<polygon fill="#e0e0e0" stroke="#999999" points="141.5,-19 76.5,-19 76.5,0 141.5,0 141.5,-19"/>
<text text-anchor="middle" x="109" y="-7" font-family="Helvetica,sans-Serif" font-size="10.00">stdexcept</text>
</a>
</g>
</g>
<!-- Node4&#45;&gt;Node11 -->
<g id="edge10_Node000004_Node000011" class="edge">
<title>Node4&#45;&gt;Node11</title>
<g id="a_edge10_Node000004_Node000011"><a xlink:title=" ">
<path fill="none" stroke="#63b8ff" d="M342.35,-56.76C293.24,-47.15 222.89,-33.33 151.62,-19.11"/>
<polygon fill="#63b8ff" stroke="#63b8ff" points="152.05,-15.63 141.56,-17.11 150.68,-22.5 152.05,-15.63"/>
</a>
</g>
</g>
<!-- Node12 -->
<g id="Node000012" class="node">
<title>Node12</title>
<g id="a_Node000012"><a xlink:title=" ">
<polygon fill="#e0e0e0" stroke="#999999" points="204,-19 160,-19 160,0 204,0 204,-19"/>
<text text-anchor="middle" x="182" y="-7" font-family="Helvetica,sans-Serif" font-size="10.00">string</text>
</a>
</g>
</g>
<!-- Node4&#45;&gt;Node12 -->
<g id="edge11_Node000004_Node000012" class="edge">
<title>Node4&#45;&gt;Node12</title>
<g id="a_edge11_Node000004_Node000012"><a xlink:title=" ">
<path fill="none" stroke="#63b8ff" d="M350.33,-54.96C314.14,-45.62 265.37,-32.95 213.69,-19.16"/>
<polygon fill="#63b8ff" stroke="#63b8ff" points="214.57,-15.77 204.01,-16.57 212.76,-22.54 214.57,-15.77"/>
</a>
</g>
</g>
<!-- Node13 -->
<g id="Node000013" class="node">
<title>Node13</title>
<g id="a_Node000013"><a xlink:title=" ">
<polygon fill="#e0e0e0" stroke="#999999" points="291.5,-19 222.5,-19 222.5,0 291.5,0 291.5,-19"/>
<text text-anchor="middle" x="257" y="-7" font-family="Helvetica,sans-Serif" font-size="10.00">type_traits</text>
</a>
</g>
</g>
<!-- Node4&#45;&gt;Node13 -->
<g id="edge12_Node000004_Node000013" class="edge">
<title>Node4&#45;&gt;Node13</title>
<g id="a_edge12_Node000004_Node000013"><a xlink:title=" ">
<path fill="none" stroke="#63b8ff" d="M369.55,-54.99C344.86,-45.23 312.22,-32.33 288.45,-22.93"/>
<polygon fill="#63b8ff" stroke="#63b8ff" points="289.44,-19.56 278.86,-19.14 286.87,-26.07 289.44,-19.56"/>
</a>
</g>
</g>
<!-- Node14 -->
<g id="Node000014" class="node">
<title>Node14</title>
<g id="a_Node000014"><a xlink:title=" ">
<polygon fill="#e0e0e0" stroke="#999999" points="354.5,-19 309.5,-19 309.5,0 354.5,0 354.5,-19"/>
<text text-anchor="middle" x="332" y="-7" font-family="Helvetica,sans-Serif" font-size="10.00">utility</text>
</a>
</g>
</g>
<!-- Node4&#45;&gt;Node14 -->
<g id="edge13_Node000004_Node000014" class="edge">
<title>Node4&#45;&gt;Node14</title>
<g id="a_edge13_Node000004_Node000014"><a xlink:title=" ">
<path fill="none" stroke="#63b8ff" d="M387.33,-54.84C376.3,-46 362.11,-34.63 350.87,-25.62"/>
<polygon fill="#63b8ff" stroke="#63b8ff" points="352.93,-22.79 342.94,-19.27 348.55,-28.25 352.93,-22.79"/>
</a>
</g>
</g>
<!-- Node15&#45;&gt;Node2 -->
<g id="edge16_Node000015_Node000002" class="edge">
<title>Node15&#45;&gt;Node2</title>
<g id="a_edge16_Node000015_Node000002"><a xlink:title=" ">
<path fill="none" stroke="#63b8ff" d="M816.56,-60.37C806.73,-51.38 791.11,-37.11 779.11,-26.14"/>
<polygon fill="#63b8ff" stroke="#63b8ff" points="781.22,-23.33 771.48,-19.17 776.5,-28.5 781.22,-23.33"/>
</a>
</g>
</g>
<!-- Node15&#45;&gt;Node9 -->
<g id="edge17_Node000015_Node000009" class="edge">
<title>Node15&#45;&gt;Node9</title>
<g id="a_edge17_Node000015_Node000009"><a xlink:title=" ">
<path fill="none" stroke="#63b8ff" d="M807.24,-60.49C785.65,-50.7 749.97,-34.52 725.07,-23.23"/>
<polygon fill="#63b8ff" stroke="#63b8ff" points="726.33,-19.96 715.78,-19.02 723.44,-26.33 726.33,-19.96"/>
</a>
</g>
</g>
<!-- Node16 -->
<g id="Node000016" class="node">
<title>Node16</title>
<g id="a_Node000016"><a xlink:title=" ">
<polygon fill="#e0e0e0" stroke="#999999" points="847,-19 805,-19 805,0 847,0 847,-19"/>
<text text-anchor="middle" x="826" y="-7" font-family="Helvetica,sans-Serif" font-size="10.00">array</text>
</a>
</g>
</g>
<!-- Node15&#45;&gt;Node16 -->
<g id="edge15_Node000015_Node000016" class="edge">
<title>Node15&#45;&gt;Node16</title>
<g id="a_edge15_Node000015_Node000016"><a xlink:title=" ">
<path fill="none" stroke="#63b8ff" d="M826,-60.37C826,-52.25 826,-39.81 826,-29.39"/>
<polygon fill="#63b8ff" stroke="#63b8ff" points="829.5,-29.17 826,-19.17 822.5,-29.17 829.5,-29.17"/>
</a>
</g>
</g>
<!-- Node17 -->
<g id="Node000017" class="node">
<title>Node17</title>
<g id="a_Node000017"><a xlink:title=" ">
<polygon fill="#e0e0e0" stroke="#999999" points="921,-19 865,-19 865,0 921,0 921,-19"/>
<text text-anchor="middle" x="893" y="-7" font-family="Helvetica,sans-Serif" font-size="10.00">sstream</text>
</a>
</g>
</g>
<!-- Node15&#45;&gt;Node17 -->
<g id="edge18_Node000015_Node000017" class="edge">
<title>Node15&#45;&gt;Node17</title>
<g id="a_edge18_Node000015_Node000017"><a xlink:title=" ">
<path fill="none" stroke="#63b8ff" d="M835.89,-60.37C846.28,-51.3 862.84,-36.84 875.45,-25.82"/>
<polygon fill="#63b8ff" stroke="#63b8ff" points="877.84,-28.38 883.07,-19.17 873.24,-23.11 877.84,-28.38"/>
</a>
</g>
</g>
<!-- Node18 -->
<g id="Node000018" class="node">
<title>Node18</title>
<g id="a_Node000018"><a xlink:title=" ">
<polygon fill="#e0e0e0" stroke="#999999" points="995,-19 939,-19 939,0 995,0 995,-19"/>
<text text-anchor="middle" x="967" y="-7" font-family="Helvetica,sans-Serif" font-size="10.00">iomanip</text>
</a>
</g>
</g>
<!-- Node15&#45;&gt;Node18 -->
<g id="edge19_Node000015_Node000018" class="edge">
<title>Node15&#45;&gt;Node18</title>
<g id="a_edge19_Node000015_Node000018"><a xlink:title=" ">
<path fill="none" stroke="#63b8ff" d="M846.5,-60.49C870.31,-50.62 909.79,-34.23 937.04,-22.93"/>
<polygon fill="#63b8ff" stroke="#63b8ff" points="938.58,-26.08 946.47,-19.02 935.89,-19.62 938.58,-26.08"/>
</a>
</g>
</g>
</g>
</svg>
