<?xml version="1.0" encoding="UTF-8" standalone="no"?>
<!DOCTYPE svg PUBLIC "-//W3C//DTD SVG 1.1//EN"
 "http://www.w3.org/Graphics/SVG/1.1/DTD/svg11.dtd">
<!-- Generated by graphviz version 2.43.0 (0)
 -->
<!-- Title: src/lib/patchGeneration/ppiSegmenter.cpp Pages: 1 -->
<!--zoomable 214 -->

<svg id="main" version="1.1" xmlns="http://www.w3.org/2000/svg" xmlns:xlink="http://www.w3.org/1999/xlink" xml:space="preserve" onload="init(evt)">
<style type="text/css"><![CDATA[
.node, .edge {opacity: 0.7;}
.node.selected, .edge.selected {opacity: 1;}
.edge:hover path { stroke: red; }
.edge:hover polygon { stroke: red; fill: red; }
]]></style>

<defs>
  <circle id="rim" cx="0" cy="0" r="7"/>
  <circle id="rim2" cx="0" cy="0" r="3.5"/>
  <g id="zoomPlus">
    <use xlink:href="#rim" fill="#404040"><set attributeName="fill" to="#808080" begin="zoomplus.mouseover" end="zoomplus.mouseout"/></use>
    <path d="M-4,0h8M0,-4v8" fill="none" stroke="white" stroke-width="1.5" pointer-events="none"/>
  </g>
  <g id="zoomMin">
    <use xlink:href="#rim" fill="#404040"><set attributeName="fill" to="#808080" begin="zoomminus.mouseover" end="zoomminus.mouseout"/></use>
    <path d="M-4,0h8" fill="none" stroke="white" stroke-width="1.5" pointer-events="none"/>
  </g>
  <g id="arrowUp" transform="translate(30 24)">
    <use xlink:href="#rim"/>
    <path pointer-events="none" fill="none" stroke="white" stroke-width="1.5" d="M0,-3.0v7 M-2.5,-0.5L0,-3.0L2.5,-0.5"/>
  </g>
  <g id="arrowRight" transform="rotate(90) translate(36 -43)">
    <use xlink:href="#rim"/>
    <path pointer-events="none" fill="none" stroke="white" stroke-width="1.5" d="M0,-3.0v7 M-2.5,-0.5L0,-3.0L2.5,-0.5"/>
  </g>
  <g id="arrowDown" transform="rotate(180) translate(-30 -48)">
    <use xlink:href="#rim"/>
    <path pointer-events="none" fill="none" stroke="white" stroke-width="1.5" d="M0,-3.0v7 M-2.5,-0.5L0,-3.0L2.5,-0.5"/>
  </g>
  <g id="arrowLeft" transform="rotate(270) translate(-36 17)">
    <use xlink:href="#rim"/>
    <path pointer-events="none" fill="none" stroke="white" stroke-width="1.5" d="M0,-3.0v7 M-2.5,-0.5L0,-3.0L2.5,-0.5"/>
  </g>
  <g id="resetDef">
    <use xlink:href="#rim2" fill="#404040"><set attributeName="fill" to="#808080" begin="reset.mouseover" end="reset.mouseout"/></use>
  </g>
</defs>
<script type="application/ecmascript">
var viewWidth = 1687;
var viewHeight = 214;
var sectionId = 'dynsection-0';
</script>
<script type="application/ecmascript" xlink:href="svg.min.js"/>
<svg id="graph" class="graph">
<g id="viewport">
<title>src/lib/patchGeneration/ppiSegmenter.cpp</title>
<!-- Node1 -->
<g id="Node000001" class="node">
<title>Node1</title>
<g id="a_Node000001"><a xlink:title=" ">
<polygon fill="#999999" stroke="#666666" points="684.5,-206 554.5,-206 554.5,-176 684.5,-176 684.5,-206"/>
<text text-anchor="start" x="562.5" y="-194" font-family="Helvetica,sans-Serif" font-size="10.00">src/lib/patchGeneration</text>
<text text-anchor="middle" x="619.5" y="-183" font-family="Helvetica,sans-Serif" font-size="10.00">/ppiSegmenter.cpp</text>
</a>
</g>
</g>
<!-- Node2 -->
<g id="Node000002" class="node">
<title>Node2</title>
<g id="a_Node000002"><a xlink:href="ppiSegmenter_8hpp.html" target="_top" xlink:title=" ">
<polygon fill="white" stroke="#666666" points="548,-140 443,-140 443,-121 548,-121 548,-140"/>
<text text-anchor="middle" x="495.5" y="-128" font-family="Helvetica,sans-Serif" font-size="10.00">ppiSegmenter.hpp</text>
</a>
</g>
</g>
<!-- Node1&#45;&gt;Node2 -->
<g id="edge1_Node000001_Node000002" class="edge">
<title>Node1&#45;&gt;Node2</title>
<g id="a_edge1_Node000001_Node000002"><a xlink:title=" ">
<path fill="none" stroke="#63b8ff" d="M589.8,-175.99C569.48,-166.4 542.74,-153.79 522.92,-144.44"/>
<polygon fill="#63b8ff" stroke="#63b8ff" points="524.35,-141.24 513.81,-140.14 521.36,-147.57 524.35,-141.24"/>
</a>
</g>
</g>
<!-- Node4 -->
<g id="Node000004" class="node">
<title>Node4</title>
<g id="a_Node000004"><a xlink:title=" ">
<polygon fill="#e0e0e0" stroke="#999999" points="459,-19 412,-19 412,0 459,0 459,-19"/>
<text text-anchor="middle" x="435.5" y="-7" font-family="Helvetica,sans-Serif" font-size="10.00">vector</text>
</a>
</g>
</g>
<!-- Node1&#45;&gt;Node4 -->
<g id="edge37_Node000001_Node000004" class="edge">
<title>Node1&#45;&gt;Node4</title>
<g id="a_edge37_Node000001_Node000004"><a xlink:title=" ">
<path fill="none" stroke="#63b8ff" d="M554.21,-180.97C506.76,-172.91 448.35,-159.37 433.5,-140 408.73,-107.69 420,-56.31 428.72,-28.99"/>
<polygon fill="#63b8ff" stroke="#63b8ff" points="432.15,-29.78 432.08,-19.18 425.52,-27.51 432.15,-29.78"/>
</a>
</g>
</g>
<!-- Node5 -->
<g id="Node000005" class="node">
<title>Node5</title>
<g id="a_Node000005"><a xlink:href="robin__hood_8h.html" target="_top" xlink:title=" ">
<polygon fill="white" stroke="#666666" points="1064,-85 939,-85 939,-55 1064,-55 1064,-85"/>
<text text-anchor="start" x="947" y="-73" font-family="Helvetica,sans-Serif" font-size="10.00">patchGeneration/robin</text>
<text text-anchor="middle" x="1001.5" y="-62" font-family="Helvetica,sans-Serif" font-size="10.00">_hood.h</text>
</a>
</g>
</g>
<!-- Node1&#45;&gt;Node5 -->
<g id="edge38_Node000001_Node000005" class="edge">
<title>Node1&#45;&gt;Node5</title>
<g id="a_edge38_Node000001_Node000005"><a xlink:title=" ">
<path fill="none" stroke="#63b8ff" d="M684.71,-190.54C780.31,-189.85 951.72,-182.52 993.5,-140 1004.86,-128.44 1006.5,-110 1005.49,-95.1"/>
<polygon fill="#63b8ff" stroke="#63b8ff" points="1008.95,-94.57 1004.39,-85.01 1001.99,-95.33 1008.95,-94.57"/>
</a>
</g>
</g>
<!-- Node6 -->
<g id="Node000006" class="node">
<title>Node6</title>
<g id="a_Node000006"><a xlink:title=" ">
<polygon fill="#e0e0e0" stroke="#999999" points="1473.5,-19 1409.5,-19 1409.5,0 1473.5,0 1473.5,-19"/>
<text text-anchor="middle" x="1441.5" y="-7" font-family="Helvetica,sans-Serif" font-size="10.00">algorithm</text>
</a>
</g>
</g>
<!-- Node1&#45;&gt;Node6 -->
<g id="edge32_Node000001_Node000006" class="edge">
<title>Node1&#45;&gt;Node6</title>
<g id="a_edge32_Node000001_Node000006"><a xlink:title=" ">
<path fill="none" stroke="#63b8ff" d="M684.81,-186.28C770.28,-180.56 924.37,-167.25 1053.5,-140 1134.1,-122.99 1152.31,-110.94 1230.5,-85 1293.86,-63.98 1367.22,-37.61 1408.62,-22.55"/>
<polygon fill="#63b8ff" stroke="#63b8ff" points="1409.99,-25.77 1418.18,-19.06 1407.59,-19.2 1409.99,-25.77"/>
</a>
</g>
</g>
<!-- Node11 -->
<g id="Node000011" class="node">
<title>Node11</title>
<g id="a_Node000011"><a xlink:title=" ">
<polygon fill="#e0e0e0" stroke="#999999" points="129.5,-19 71.5,-19 71.5,0 129.5,0 129.5,-19"/>
<text text-anchor="middle" x="100.5" y="-7" font-family="Helvetica,sans-Serif" font-size="10.00">memory</text>
</a>
</g>
</g>
<!-- Node1&#45;&gt;Node11 -->
<g id="edge35_Node000001_Node000011" class="edge">
<title>Node1&#45;&gt;Node11</title>
<g id="a_edge35_Node000001_Node000011"><a xlink:title=" ">
<path fill="none" stroke="#63b8ff" d="M554.21,-188.42C480.9,-184.93 359.27,-174.01 260.5,-140 214.37,-124.12 203.16,-116.02 165.5,-85 144.68,-67.85 124.93,-43.68 112.78,-27.57"/>
<polygon fill="#63b8ff" stroke="#63b8ff" points="115.3,-25.1 106.55,-19.13 109.67,-29.26 115.3,-25.1"/>
</a>
</g>
</g>
<!-- Node13 -->
<g id="Node000013" class="node">
<title>Node13</title>
<g id="a_Node000013"><a xlink:title=" ">
<polygon fill="#e0e0e0" stroke="#999999" points="869.5,-19 825.5,-19 825.5,0 869.5,0 869.5,-19"/>
<text text-anchor="middle" x="847.5" y="-7" font-family="Helvetica,sans-Serif" font-size="10.00">string</text>
</a>
</g>
</g>
<!-- Node1&#45;&gt;Node13 -->
<g id="edge36_Node000001_Node000013" class="edge">
<title>Node1&#45;&gt;Node13</title>
<g id="a_edge36_Node000001_Node000013"><a xlink:title=" ">
<path fill="none" stroke="#63b8ff" d="M684.54,-190.11C773.13,-188.71 924.69,-180.3 959.5,-140 965.02,-133.61 962.76,-128.79 959.5,-121 954.49,-109.02 895.15,-53.89 864.94,-26.31"/>
<polygon fill="#63b8ff" stroke="#63b8ff" points="867.01,-23.46 857.26,-19.32 862.3,-28.64 867.01,-23.46"/>
</a>
</g>
</g>
<!-- Node16 -->
<g id="Node000016" class="node">
<title>Node16</title>
<g id="a_Node000016"><a xlink:href="utils_8hpp.html" target="_top" xlink:title=" ">
<polygon fill="white" stroke="#666666" points="682,-79.5 599,-79.5 599,-60.5 682,-60.5 682,-79.5"/>
<text text-anchor="middle" x="640.5" y="-67.5" font-family="Helvetica,sans-Serif" font-size="10.00">utils/utils.hpp</text>
</a>
</g>
</g>
<!-- Node1&#45;&gt;Node16 -->
<g id="edge49_Node000001_Node000016" class="edge">
<title>Node1&#45;&gt;Node16</title>
<g id="a_edge49_Node000001_Node000016"><a xlink:title=" ">
<path fill="none" stroke="#63b8ff" d="M608.66,-175.9C599.28,-161.89 588.28,-139.83 595.5,-121 600.66,-107.54 611.31,-95.44 620.95,-86.51"/>
<polygon fill="#63b8ff" stroke="#63b8ff" points="623.42,-89 628.67,-79.8 618.83,-83.72 623.42,-89"/>
</a>
</g>
</g>
<!-- Node20 -->
<g id="Node000020" class="node">
<title>Node20</title>
<g id="a_Node000020"><a xlink:href="uvgvpcc_8hpp.html" target="_top" xlink:title=" ">
<polygon fill="white" stroke="#666666" points="350.5,-79.5 228.5,-79.5 228.5,-60.5 350.5,-60.5 350.5,-79.5"/>
<text text-anchor="middle" x="289.5" y="-67.5" font-family="Helvetica,sans-Serif" font-size="10.00">uvgvpcc/uvgvpcc.hpp</text>
</a>
</g>
</g>
<!-- Node1&#45;&gt;Node20 -->
<g id="edge64_Node000001_Node000020" class="edge">
<title>Node1&#45;&gt;Node20</title>
<g id="a_edge64_Node000001_Node000020"><a xlink:title=" ">
<path fill="none" stroke="#63b8ff" d="M554.47,-190.43C463.59,-189.48 305.64,-181.68 269.5,-140 256.91,-125.49 266.71,-103.46 276.52,-88.21"/>
<polygon fill="#63b8ff" stroke="#63b8ff" points="279.58,-89.93 282.42,-79.72 273.84,-85.93 279.58,-89.93"/>
</a>
</g>
</g>
<!-- Node21 -->
<g id="Node000021" class="node">
<title>Node21</title>
<g id="a_Node000021"><a xlink:title=" ">
<polygon fill="#e0e0e0" stroke="#999999" points="53,-19 0,-19 0,0 53,0 53,-19"/>
<text text-anchor="middle" x="26.5" y="-7" font-family="Helvetica,sans-Serif" font-size="10.00">cstddef</text>
</a>
</g>
</g>
<!-- Node1&#45;&gt;Node21 -->
<g id="edge33_Node000001_Node000021" class="edge">
<title>Node1&#45;&gt;Node21</title>
<g id="a_edge33_Node000001_Node000021"><a xlink:title=" ">
<path fill="none" stroke="#63b8ff" d="M554.37,-185.74C455.75,-178.66 273.56,-162.94 212.5,-140 142.13,-113.56 73.21,-54.47 42.76,-26.18"/>
<polygon fill="#63b8ff" stroke="#63b8ff" points="44.9,-23.38 35.22,-19.07 40.09,-28.48 44.9,-23.38"/>
</a>
</g>
</g>
<!-- Node26 -->
<g id="Node000026" class="node">
<title>Node26</title>
<g id="a_Node000026"><a xlink:title=" ">
<polygon fill="#e0e0e0" stroke="#999999" points="951,-140 898,-140 898,-121 951,-121 951,-140"/>
<text text-anchor="middle" x="924.5" y="-128" font-family="Helvetica,sans-Serif" font-size="10.00">iterator</text>
</a>
</g>
</g>
<!-- Node1&#45;&gt;Node26 -->
<g id="edge34_Node000001_Node000026" class="edge">
<title>Node1&#45;&gt;Node26</title>
<g id="a_edge34_Node000001_Node000026"><a xlink:title=" ">
<path fill="none" stroke="#63b8ff" d="M684.63,-178.8C736.87,-169.61 812.31,-155.87 887.65,-140.09"/>
<polygon fill="#63b8ff" stroke="#63b8ff" points="888.73,-143.44 897.8,-137.96 887.29,-136.59 888.73,-143.44"/>
</a>
</g>
</g>
<!-- Node27 -->
<g id="Node000027" class="node">
<title>Node27</title>
<g id="a_Node000027"><a xlink:href="fileExport_8hpp.html" target="_top" xlink:title=" ">
<polygon fill="white" stroke="#666666" points="386.5,-140 278.5,-140 278.5,-121 386.5,-121 386.5,-140"/>
<text text-anchor="middle" x="332.5" y="-128" font-family="Helvetica,sans-Serif" font-size="10.00">utils/fileExport.hpp</text>
</a>
</g>
</g>
<!-- Node1&#45;&gt;Node27 -->
<g id="edge39_Node000001_Node000027" class="edge">
<title>Node1&#45;&gt;Node27</title>
<g id="a_edge39_Node000001_Node000027"><a xlink:title=" ">
<path fill="none" stroke="#63b8ff" d="M554.38,-176.73C502.8,-166.21 431.75,-151.73 384.08,-142.01"/>
<polygon fill="#63b8ff" stroke="#63b8ff" points="384.77,-138.58 374.28,-140.02 383.37,-145.44 384.77,-138.58"/>
</a>
</g>
</g>
<!-- Node28 -->
<g id="Node000028" class="node">
<title>Node28</title>
<g id="a_Node000028"><a xlink:href="parameters_8hpp.html" target="_top" xlink:title=" ">
<polygon fill="white" stroke="#666666" points="722.5,-140 604.5,-140 604.5,-121 722.5,-121 722.5,-140"/>
<text text-anchor="middle" x="663.5" y="-128" font-family="Helvetica,sans-Serif" font-size="10.00">utils/parameters.hpp</text>
</a>
</g>
</g>
<!-- Node1&#45;&gt;Node28 -->
<g id="edge44_Node000001_Node000028" class="edge">
<title>Node1&#45;&gt;Node28</title>
<g id="a_edge44_Node000001_Node000028"><a xlink:title=" ">
<path fill="none" stroke="#63b8ff" d="M630.15,-175.84C636.34,-167.61 644.19,-157.18 650.71,-148.51"/>
<polygon fill="#63b8ff" stroke="#63b8ff" points="653.69,-150.36 656.91,-140.27 648.1,-146.15 653.69,-150.36"/>
</a>
</g>
</g>
<!-- Node29 -->
<g id="Node000029" class="node">
<title>Node29</title>
<g id="a_Node000029"><a xlink:href="utilsPatchGeneration_8hpp.html" target="_top" xlink:title=" ">
<polygon fill="white" stroke="#666666" points="880,-140 741,-140 741,-121 880,-121 880,-140"/>
<text text-anchor="middle" x="810.5" y="-128" font-family="Helvetica,sans-Serif" font-size="10.00">utilsPatchGeneration.hpp</text>
</a>
</g>
</g>
<!-- Node1&#45;&gt;Node29 -->
<g id="edge50_Node000001_Node000029" class="edge">
<title>Node1&#45;&gt;Node29</title>
<g id="a_edge50_Node000001_Node000029"><a xlink:title=" ">
<path fill="none" stroke="#63b8ff" d="M665.25,-175.99C698.07,-165.94 741.77,-152.55 772.63,-143.1"/>
<polygon fill="#63b8ff" stroke="#63b8ff" points="774.04,-146.33 782.57,-140.05 771.99,-139.64 774.04,-146.33"/>
</a>
</g>
</g>
<!-- Node30 -->
<g id="Node000030" class="node">
<title>Node30</title>
<g id="a_Node000030"><a xlink:href="log_8hpp.html" target="_top" xlink:title=" ">
<polygon fill="white" stroke="#666666" points="1221.5,-79.5 1125.5,-79.5 1125.5,-60.5 1221.5,-60.5 1221.5,-79.5"/>
<text text-anchor="middle" x="1173.5" y="-67.5" font-family="Helvetica,sans-Serif" font-size="10.00">uvgvpcc/log.hpp</text>
</a>
</g>
</g>
<!-- Node1&#45;&gt;Node30 -->
<g id="edge63_Node000001_Node000030" class="edge">
<title>Node1&#45;&gt;Node30</title>
<g id="a_edge63_Node000001_Node000030"><a xlink:title=" ">
<path fill="none" stroke="#63b8ff" d="M684.56,-187.26C763.39,-182.68 899.68,-170.7 1012.5,-140 1062.54,-126.38 1117.36,-100.29 1148.38,-84.38"/>
<polygon fill="#63b8ff" stroke="#63b8ff" points="1150.32,-87.32 1157.58,-79.6 1147.1,-81.11 1150.32,-87.32"/>
</a>
</g>
</g>
<!-- Node3 -->
<g id="Node000003" class="node">
<title>Node3</title>
<g id="a_Node000003"><a xlink:title=" ">
<polygon fill="#e0e0e0" stroke="#999999" points="601.5,-19 551.5,-19 551.5,0 601.5,0 601.5,-19"/>
<text text-anchor="middle" x="576.5" y="-7" font-family="Helvetica,sans-Serif" font-size="10.00">cstdint</text>
</a>
</g>
</g>
<!-- Node2&#45;&gt;Node3 -->
<g id="edge2_Node000002_Node000003" class="edge">
<title>Node2&#45;&gt;Node3</title>
<g id="a_edge2_Node000002_Node000003"><a xlink:title=" ">
<path fill="none" stroke="#63b8ff" d="M501.33,-120.94C514.57,-101.48 547.16,-53.6 564.76,-27.74"/>
<polygon fill="#63b8ff" stroke="#63b8ff" points="567.78,-29.54 570.51,-19.3 561.99,-25.6 567.78,-29.54"/>
</a>
</g>
</g>
<!-- Node2&#45;&gt;Node4 -->
<g id="edge3_Node000002_Node000004" class="edge">
<title>Node2&#45;&gt;Node4</title>
<g id="a_edge3_Node000002_Node000004"><a xlink:title=" ">
<path fill="none" stroke="#63b8ff" d="M491.18,-120.94C481.46,-101.65 457.66,-54.44 444.54,-28.43"/>
<polygon fill="#63b8ff" stroke="#63b8ff" points="447.57,-26.66 439.94,-19.3 441.31,-29.81 447.57,-26.66"/>
</a>
</g>
</g>
<!-- Node2&#45;&gt;Node5 -->
<g id="edge4_Node000002_Node000005" class="edge">
<title>Node2&#45;&gt;Node5</title>
<g id="a_edge4_Node000002_Node000005"><a xlink:title=" ">
<path fill="none" stroke="#63b8ff" d="M548.22,-123.41C639.1,-112.9 825.43,-91.36 928.64,-79.42"/>
<polygon fill="#63b8ff" stroke="#63b8ff" points="929.14,-82.89 938.67,-78.26 928.33,-75.94 929.14,-82.89"/>
</a>
</g>
</g>
<!-- Node2&#45;&gt;Node16 -->
<g id="edge15_Node000002_Node000016" class="edge">
<title>Node2&#45;&gt;Node16</title>
<g id="a_edge15_Node000002_Node000016"><a xlink:title=" ">
<path fill="none" stroke="#63b8ff" d="M516.58,-120.99C541.18,-111.07 582.03,-94.59 610.06,-83.28"/>
<polygon fill="#63b8ff" stroke="#63b8ff" points="611.43,-86.5 619.39,-79.52 608.81,-80.01 611.43,-86.5"/>
</a>
</g>
</g>
<!-- Node2&#45;&gt;Node20 -->
<g id="edge21_Node000002_Node000020" class="edge">
<title>Node2&#45;&gt;Node20</title>
<g id="a_edge21_Node000002_Node000020"><a xlink:title=" ">
<path fill="none" stroke="#63b8ff" d="M465.55,-120.99C429.54,-110.77 369,-93.58 329.15,-82.26"/>
<polygon fill="#63b8ff" stroke="#63b8ff" points="330.07,-78.88 319.49,-79.52 328.15,-85.62 330.07,-78.88"/>
</a>
</g>
</g>
<!-- Node5&#45;&gt;Node6 -->
<g id="edge5_Node000005_Node000006" class="edge">
<title>Node5&#45;&gt;Node6</title>
<g id="a_edge5_Node000005_Node000006"><a xlink:title=" ">
<path fill="none" stroke="#63b8ff" d="M1064.13,-61.29C1163.2,-49.06 1349.29,-26.03 1399.2,-18.95"/>
<polygon fill="#63b8ff" stroke="#63b8ff" points="1399.95,-22.38 1409.32,-17.43 1398.91,-15.45 1399.95,-22.38"/>
</a>
</g>
</g>
<!-- Node7 -->
<g id="Node000007" class="node">
<title>Node7</title>
<g id="a_Node000007"><a xlink:title=" ">
<polygon fill="#e0e0e0" stroke="#999999" points="1087,-19 1038,-19 1038,0 1087,0 1087,-19"/>
<text text-anchor="middle" x="1062.5" y="-7" font-family="Helvetica,sans-Serif" font-size="10.00">cstdlib</text>
</a>
</g>
</g>
<!-- Node5&#45;&gt;Node7 -->
<g id="edge6_Node000005_Node000007" class="edge">
<title>Node5&#45;&gt;Node7</title>
<g id="a_edge6_Node000005_Node000007"><a xlink:title=" ">
<path fill="none" stroke="#63b8ff" d="M1016.27,-54.84C1025.21,-46.26 1036.64,-35.3 1045.9,-26.42"/>
<polygon fill="#63b8ff" stroke="#63b8ff" points="1048.56,-28.71 1053.36,-19.27 1043.72,-23.66 1048.56,-28.71"/>
</a>
</g>
</g>
<!-- Node8 -->
<g id="Node000008" class="node">
<title>Node8</title>
<g id="a_Node000008"><a xlink:title=" ">
<polygon fill="#e0e0e0" stroke="#999999" points="1307.5,-19 1257.5,-19 1257.5,0 1307.5,0 1307.5,-19"/>
<text text-anchor="middle" x="1282.5" y="-7" font-family="Helvetica,sans-Serif" font-size="10.00">cstring</text>
</a>
</g>
</g>
<!-- Node5&#45;&gt;Node8 -->
<g id="edge7_Node000005_Node000008" class="edge">
<title>Node5&#45;&gt;Node8</title>
<g id="a_edge7_Node000005_Node000008"><a xlink:title=" ">
<path fill="none" stroke="#63b8ff" d="M1064.1,-57.14C1111.78,-47.92 1179.29,-34.47 1247.25,-19.2"/>
<polygon fill="#63b8ff" stroke="#63b8ff" points="1248.3,-22.56 1257.28,-16.94 1246.75,-15.73 1248.3,-22.56"/>
</a>
</g>
</g>
<!-- Node9 -->
<g id="Node000009" class="node">
<title>Node9</title>
<g id="a_Node000009"><a xlink:title=" ">
<polygon fill="#e0e0e0" stroke="#999999" points="1391,-19 1326,-19 1326,0 1391,0 1391,-19"/>
<text text-anchor="middle" x="1358.5" y="-7" font-family="Helvetica,sans-Serif" font-size="10.00">functional</text>
</a>
</g>
</g>
<!-- Node5&#45;&gt;Node9 -->
<g id="edge8_Node000005_Node000009" class="edge">
<title>Node5&#45;&gt;Node9</title>
<g id="a_edge8_Node000005_Node000009"><a xlink:title=" ">
<path fill="none" stroke="#63b8ff" d="M1064.09,-59.86C1125.57,-50.71 1222.29,-35.82 1316.03,-19.02"/>
<polygon fill="#63b8ff" stroke="#63b8ff" points="1316.75,-22.44 1325.97,-17.23 1315.5,-15.55 1316.75,-22.44"/>
</a>
</g>
</g>
<!-- Node10 -->
<g id="Node000010" class="node">
<title>Node10</title>
<g id="a_Node000010"><a xlink:title=" ">
<polygon fill="#e0e0e0" stroke="#999999" points="723.5,-19 679.5,-19 679.5,0 723.5,0 723.5,-19"/>
<text text-anchor="middle" x="701.5" y="-7" font-family="Helvetica,sans-Serif" font-size="10.00">limits</text>
</a>
</g>
</g>
<!-- Node5&#45;&gt;Node10 -->
<g id="edge9_Node000005_Node000010" class="edge">
<title>Node5&#45;&gt;Node10</title>
<g id="a_edge9_Node000005_Node000010"><a xlink:title=" ">
<path fill="none" stroke="#63b8ff" d="M938.96,-58.9C886.59,-50.1 809.71,-36.37 733.98,-19.19"/>
<polygon fill="#63b8ff" stroke="#63b8ff" points="734.32,-15.68 723.79,-16.85 732.76,-22.5 734.32,-15.68"/>
</a>
</g>
</g>
<!-- Node5&#45;&gt;Node11 -->
<g id="edge10_Node000005_Node000011" class="edge">
<title>Node5&#45;&gt;Node11</title>
<g id="a_edge10_Node000005_Node000011"><a xlink:title=" ">
<path fill="none" stroke="#63b8ff" d="M938.69,-61.06C919.4,-58.83 898.1,-56.59 878.5,-55 553.67,-28.64 466.59,-62.4 140.09,-18.97"/>
<polygon fill="#63b8ff" stroke="#63b8ff" points="140.25,-15.46 129.87,-17.59 139.31,-22.39 140.25,-15.46"/>
</a>
</g>
</g>
<!-- Node12 -->
<g id="Node000012" class="node">
<title>Node12</title>
<g id="a_Node000012"><a xlink:title=" ">
<polygon fill="#e0e0e0" stroke="#999999" points="807,-19 742,-19 742,0 807,0 807,-19"/>
<text text-anchor="middle" x="774.5" y="-7" font-family="Helvetica,sans-Serif" font-size="10.00">stdexcept</text>
</a>
</g>
</g>
<!-- Node5&#45;&gt;Node12 -->
<g id="edge11_Node000005_Node000012" class="edge">
<title>Node5&#45;&gt;Node12</title>
<g id="a_edge11_Node000005_Node000012"><a xlink:title=" ">
<path fill="none" stroke="#63b8ff" d="M947.13,-54.99C907.2,-44.7 853.74,-30.92 816.94,-21.44"/>
<polygon fill="#63b8ff" stroke="#63b8ff" points="817.59,-17.99 807.03,-18.88 815.84,-24.77 817.59,-17.99"/>
</a>
</g>
</g>
<!-- Node5&#45;&gt;Node13 -->
<g id="edge12_Node000005_Node000013" class="edge">
<title>Node5&#45;&gt;Node13</title>
<g id="a_edge12_Node000005_Node000013"><a xlink:title=" ">
<path fill="none" stroke="#63b8ff" d="M964.61,-54.99C938.65,-45.12 904.24,-32.05 879.45,-22.64"/>
<polygon fill="#63b8ff" stroke="#63b8ff" points="880.38,-19.25 869.79,-18.97 877.9,-25.79 880.38,-19.25"/>
</a>
</g>
</g>
<!-- Node14 -->
<g id="Node000014" class="node">
<title>Node14</title>
<g id="a_Node000014"><a xlink:title=" ">
<polygon fill="#e0e0e0" stroke="#999999" points="957,-19 888,-19 888,0 957,0 957,-19"/>
<text text-anchor="middle" x="922.5" y="-7" font-family="Helvetica,sans-Serif" font-size="10.00">type_traits</text>
</a>
</g>
</g>
<!-- Node5&#45;&gt;Node14 -->
<g id="edge13_Node000005_Node000014" class="edge">
<title>Node5&#45;&gt;Node14</title>
<g id="a_edge13_Node000005_Node000014"><a xlink:title=" ">
<path fill="none" stroke="#63b8ff" d="M982.38,-54.84C970.32,-45.91 954.79,-34.41 942.56,-25.35"/>
<polygon fill="#63b8ff" stroke="#63b8ff" points="944.46,-22.4 934.34,-19.27 940.29,-28.03 944.46,-22.4"/>
</a>
</g>
</g>
<!-- Node15 -->
<g id="Node000015" class="node">
<title>Node15</title>
<g id="a_Node000015"><a xlink:title=" ">
<polygon fill="#e0e0e0" stroke="#999999" points="1020,-19 975,-19 975,0 1020,0 1020,-19"/>
<text text-anchor="middle" x="997.5" y="-7" font-family="Helvetica,sans-Serif" font-size="10.00">utility</text>
</a>
</g>
</g>
<!-- Node5&#45;&gt;Node15 -->
<g id="edge14_Node000005_Node000015" class="edge">
<title>Node5&#45;&gt;Node15</title>
<g id="a_edge14_Node000005_Node000015"><a xlink:title=" ">
<path fill="none" stroke="#63b8ff" d="M1000.53,-54.84C1000.01,-47.21 999.36,-37.7 998.8,-29.45"/>
<polygon fill="#63b8ff" stroke="#63b8ff" points="1002.27,-29 998.1,-19.27 995.29,-29.48 1002.27,-29"/>
</a>
</g>
</g>
<!-- Node16&#45;&gt;Node3 -->
<g id="edge17_Node000016_Node000003" class="edge">
<title>Node16&#45;&gt;Node3</title>
<g id="a_edge17_Node000016_Node000003"><a xlink:title=" ">
<path fill="none" stroke="#63b8ff" d="M631.06,-60.37C621.23,-51.38 605.61,-37.11 593.61,-26.14"/>
<polygon fill="#63b8ff" stroke="#63b8ff" points="595.72,-23.33 585.98,-19.17 591,-28.5 595.72,-23.33"/>
</a>
</g>
</g>
<!-- Node16&#45;&gt;Node10 -->
<g id="edge18_Node000016_Node000010" class="edge">
<title>Node16&#45;&gt;Node10</title>
<g id="a_edge18_Node000016_Node000010"><a xlink:title=" ">
<path fill="none" stroke="#63b8ff" d="M649.5,-60.37C658.87,-51.38 673.75,-37.11 685.2,-26.14"/>
<polygon fill="#63b8ff" stroke="#63b8ff" points="687.67,-28.62 692.46,-19.17 682.82,-23.56 687.67,-28.62"/>
</a>
</g>
</g>
<!-- Node17 -->
<g id="Node000017" class="node">
<title>Node17</title>
<g id="a_Node000017"><a xlink:title=" ">
<polygon fill="#e0e0e0" stroke="#999999" points="661.5,-19 619.5,-19 619.5,0 661.5,0 661.5,-19"/>
<text text-anchor="middle" x="640.5" y="-7" font-family="Helvetica,sans-Serif" font-size="10.00">array</text>
</a>
</g>
</g>
<!-- Node16&#45;&gt;Node17 -->
<g id="edge16_Node000016_Node000017" class="edge">
<title>Node16&#45;&gt;Node17</title>
<g id="a_edge16_Node000016_Node000017"><a xlink:title=" ">
<path fill="none" stroke="#63b8ff" d="M640.5,-60.37C640.5,-52.25 640.5,-39.81 640.5,-29.39"/>
<polygon fill="#63b8ff" stroke="#63b8ff" points="644,-29.17 640.5,-19.17 637,-29.17 644,-29.17"/>
</a>
</g>
</g>
<!-- Node18 -->
<g id="Node000018" class="node">
<title>Node18</title>
<g id="a_Node000018"><a xlink:title=" ">
<polygon fill="#e0e0e0" stroke="#999999" points="533.5,-19 477.5,-19 477.5,0 533.5,0 533.5,-19"/>
<text text-anchor="middle" x="505.5" y="-7" font-family="Helvetica,sans-Serif" font-size="10.00">sstream</text>
</a>
</g>
</g>
<!-- Node16&#45;&gt;Node18 -->
<g id="edge19_Node000016_Node000018" class="edge">
<title>Node16&#45;&gt;Node18</title>
<g id="a_edge19_Node000016_Node000018"><a xlink:title=" ">
<path fill="none" stroke="#63b8ff" d="M620.87,-60.49C598.17,-50.66 560.6,-34.38 534.53,-23.08"/>
<polygon fill="#63b8ff" stroke="#63b8ff" points="535.72,-19.78 525.15,-19.02 532.94,-26.2 535.72,-19.78"/>
</a>
</g>
</g>
<!-- Node19 -->
<g id="Node000019" class="node">
<title>Node19</title>
<g id="a_Node000019"><a xlink:title=" ">
<polygon fill="#e0e0e0" stroke="#999999" points="1239.5,-19 1183.5,-19 1183.5,0 1239.5,0 1239.5,-19"/>
<text text-anchor="middle" x="1211.5" y="-7" font-family="Helvetica,sans-Serif" font-size="10.00">iomanip</text>
</a>
</g>
</g>
<!-- Node16&#45;&gt;Node19 -->
<g id="edge20_Node000016_Node000019" class="edge">
<title>Node16&#45;&gt;Node19</title>
<g id="a_edge20_Node000016_Node000019"><a xlink:title=" ">
<path fill="none" stroke="#63b8ff" d="M682.19,-65.42C793.66,-55.79 1094.92,-29.49 1173.08,-18.89"/>
<polygon fill="#63b8ff" stroke="#63b8ff" points="1173.91,-22.3 1183.29,-17.38 1172.89,-15.38 1173.91,-22.3"/>
</a>
</g>
</g>
<!-- Node20&#45;&gt;Node3 -->
<g id="edge23_Node000020_Node000003" class="edge">
<title>Node20&#45;&gt;Node3</title>
<g id="a_edge23_Node000020_Node000003"><a xlink:title=" ">
<path fill="none" stroke="#63b8ff" d="M336.28,-60.48C385.08,-51.43 464.03,-36.33 541.37,-19.17"/>
<polygon fill="#63b8ff" stroke="#63b8ff" points="542.29,-22.55 551.28,-16.95 540.76,-15.72 542.29,-22.55"/>
</a>
</g>
</g>
<!-- Node20&#45;&gt;Node4 -->
<g id="edge30_Node000020_Node000004" class="edge">
<title>Node20&#45;&gt;Node4</title>
<g id="a_edge30_Node000020_Node000004"><a xlink:title=" ">
<path fill="none" stroke="#63b8ff" d="M310.73,-60.49C335.49,-50.57 376.62,-34.09 404.85,-22.78"/>
<polygon fill="#63b8ff" stroke="#63b8ff" points="406.26,-25.99 414.24,-19.02 403.66,-19.49 406.26,-25.99"/>
</a>
</g>
</g>
<!-- Node20&#45;&gt;Node11 -->
<g id="edge25_Node000020_Node000011" class="edge">
<title>Node20&#45;&gt;Node11</title>
<g id="a_edge25_Node000020_Node000011"><a xlink:title=" ">
<path fill="none" stroke="#63b8ff" d="M262.02,-60.49C229.26,-50.36 174.38,-33.37 137.81,-22.05"/>
<polygon fill="#63b8ff" stroke="#63b8ff" points="138.6,-18.63 128.02,-19.02 136.53,-25.32 138.6,-18.63"/>
</a>
</g>
</g>
<!-- Node20&#45;&gt;Node13 -->
<g id="edge29_Node000020_Node000013" class="edge">
<title>Node20&#45;&gt;Node13</title>
<g id="a_edge29_Node000020_Node000013"><a xlink:title=" ">
<path fill="none" stroke="#63b8ff" d="M350.69,-66.46C447.35,-61.73 641.34,-49.32 815.13,-18.72"/>
<polygon fill="#63b8ff" stroke="#63b8ff" points="816,-22.12 825.23,-16.92 814.77,-15.23 816,-22.12"/>
</a>
</g>
</g>
<!-- Node20&#45;&gt;Node18 -->
<g id="edge28_Node000020_Node000018" class="edge">
<title>Node20&#45;&gt;Node18</title>
<g id="a_edge28_Node000020_Node000018"><a xlink:title=" ">
<path fill="none" stroke="#63b8ff" d="M320.91,-60.49C359.82,-49.95 426.07,-32.01 467.72,-20.73"/>
<polygon fill="#63b8ff" stroke="#63b8ff" points="468.75,-24.08 477.49,-18.09 466.92,-17.32 468.75,-24.08"/>
</a>
</g>
</g>
<!-- Node20&#45;&gt;Node21 -->
<g id="edge22_Node000020_Node000021" class="edge">
<title>Node20&#45;&gt;Node21</title>
<g id="a_edge22_Node000020_Node000021"><a xlink:title=" ">
<path fill="none" stroke="#63b8ff" d="M249.68,-60.42C206.36,-51.04 134.8,-35.43 63.31,-19.16"/>
<polygon fill="#63b8ff" stroke="#63b8ff" points="63.75,-15.67 53.23,-16.86 62.2,-22.49 63.75,-15.67"/>
</a>
</g>
</g>
<!-- Node22 -->
<g id="Node000022" class="node">
<title>Node22</title>
<g id="a_Node000022"><a xlink:title=" ">
<polygon fill="#e0e0e0" stroke="#999999" points="1165.5,-19 1105.5,-19 1105.5,0 1165.5,0 1165.5,-19"/>
<text text-anchor="middle" x="1135.5" y="-7" font-family="Helvetica,sans-Serif" font-size="10.00">iostream</text>
</a>
</g>
</g>
<!-- Node20&#45;&gt;Node22 -->
<g id="edge24_Node000020_Node000022" class="edge">
<title>Node20&#45;&gt;Node22</title>
<g id="a_edge24_Node000020_Node000022"><a xlink:title=" ">
<path fill="none" stroke="#63b8ff" d="M350.61,-65.75C519.88,-56.69 988.85,-31.06 1095.2,-18.83"/>
<polygon fill="#63b8ff" stroke="#63b8ff" points="1095.87,-22.27 1105.35,-17.55 1094.99,-15.33 1095.87,-22.27"/>
</a>
</g>
</g>
<!-- Node23 -->
<g id="Node000023" class="node">
<title>Node23</title>
<g id="a_Node000023"><a xlink:title=" ">
<polygon fill="#e0e0e0" stroke="#999999" points="305,-19 258,-19 258,0 305,0 305,-19"/>
<text text-anchor="middle" x="281.5" y="-7" font-family="Helvetica,sans-Serif" font-size="10.00">queue</text>
</a>
</g>
</g>
<!-- Node20&#45;&gt;Node23 -->
<g id="edge26_Node000020_Node000023" class="edge">
<title>Node20&#45;&gt;Node23</title>
<g id="a_edge26_Node000020_Node000023"><a xlink:title=" ">
<path fill="none" stroke="#63b8ff" d="M288.32,-60.37C287.21,-52.25 285.51,-39.81 284.08,-29.39"/>
<polygon fill="#63b8ff" stroke="#63b8ff" points="287.51,-28.6 282.69,-19.17 280.57,-29.55 287.51,-28.6"/>
</a>
</g>
</g>
<!-- Node24 -->
<g id="Node000024" class="node">
<title>Node24</title>
<g id="a_Node000024"><a xlink:title=" ">
<polygon fill="#e0e0e0" stroke="#999999" points="394,-19 323,-19 323,0 394,0 394,-19"/>
<text text-anchor="middle" x="358.5" y="-7" font-family="Helvetica,sans-Serif" font-size="10.00">semaphore</text>
</a>
</g>
</g>
<!-- Node20&#45;&gt;Node24 -->
<g id="edge27_Node000020_Node000024" class="edge">
<title>Node20&#45;&gt;Node24</title>
<g id="a_edge27_Node000020_Node000024"><a xlink:title=" ">
<path fill="none" stroke="#63b8ff" d="M299.68,-60.37C310.38,-51.3 327.44,-36.84 340.43,-25.82"/>
<polygon fill="#63b8ff" stroke="#63b8ff" points="342.91,-28.3 348.28,-19.17 338.39,-22.96 342.91,-28.3"/>
</a>
</g>
</g>
<!-- Node25 -->
<g id="Node000025" class="node">
<title>Node25</title>
<g id="a_Node000025"><a xlink:title=" ">
<polygon fill="#e0e0e0" stroke="#999999" points="239.5,-19 147.5,-19 147.5,0 239.5,0 239.5,-19"/>
<text text-anchor="middle" x="193.5" y="-7" font-family="Helvetica,sans-Serif" font-size="10.00">../utils/utils.hpp</text>
</a>
</g>
</g>
<!-- Node20&#45;&gt;Node25 -->
<g id="edge31_Node000020_Node000025" class="edge">
<title>Node20&#45;&gt;Node25</title>
<g id="a_edge31_Node000020_Node000025"><a xlink:title=" ">
<path fill="none" stroke="#63b8ff" d="M275.33,-60.37C259.81,-50.91 234.67,-35.59 216.35,-24.42"/>
<polygon fill="#63b8ff" stroke="#63b8ff" points="218.08,-21.38 207.72,-19.17 214.44,-27.36 218.08,-21.38"/>
</a>
</g>
</g>
<!-- Node27&#45;&gt;Node4 -->
<g id="edge41_Node000027_Node000004" class="edge">
<title>Node27&#45;&gt;Node4</title>
<g id="a_edge41_Node000027_Node000004"><a xlink:title=" ">
<path fill="none" stroke="#63b8ff" d="M339.91,-120.94C356.9,-101.31 398.92,-52.76 421.16,-27.07"/>
<polygon fill="#63b8ff" stroke="#63b8ff" points="423.98,-29.15 427.88,-19.3 418.69,-24.57 423.98,-29.15"/>
</a>
</g>
</g>
<!-- Node27&#45;&gt;Node11 -->
<g id="edge40_Node000027_Node000011" class="edge">
<title>Node27&#45;&gt;Node11</title>
<g id="a_edge40_Node000027_Node000011"><a xlink:title=" ">
<path fill="none" stroke="#63b8ff" d="M306.78,-120.9C283.49,-112.76 248.49,-99.63 219.5,-85 183.38,-66.78 144.08,-40.87 120.9,-24.9"/>
<polygon fill="#63b8ff" stroke="#63b8ff" points="122.78,-21.94 112.57,-19.11 118.78,-27.69 122.78,-21.94"/>
</a>
</g>
</g>
<!-- Node27&#45;&gt;Node16 -->
<g id="edge43_Node000027_Node000016" class="edge">
<title>Node27&#45;&gt;Node16</title>
<g id="a_edge43_Node000027_Node000016"><a xlink:title=" ">
<path fill="none" stroke="#63b8ff" d="M377.29,-120.99C433.43,-110.33 529.49,-92.09 588.73,-80.83"/>
<polygon fill="#63b8ff" stroke="#63b8ff" points="589.45,-84.26 598.63,-78.95 588.15,-77.38 589.45,-84.26"/>
</a>
</g>
</g>
<!-- Node27&#45;&gt;Node20 -->
<g id="edge42_Node000027_Node000020" class="edge">
<title>Node27&#45;&gt;Node20</title>
<g id="a_edge42_Node000027_Node000020"><a xlink:title=" ">
<path fill="none" stroke="#63b8ff" d="M326.16,-120.87C319.8,-112.23 309.86,-98.7 301.93,-87.92"/>
<polygon fill="#63b8ff" stroke="#63b8ff" points="304.61,-85.65 295.87,-79.67 298.97,-89.8 304.61,-85.65"/>
</a>
</g>
</g>
<!-- Node28&#45;&gt;Node4 -->
<g id="edge47_Node000028_Node000004" class="edge">
<title>Node28&#45;&gt;Node4</title>
<g id="a_edge47_Node000028_Node000004"><a xlink:title=" ">
<path fill="none" stroke="#63b8ff" d="M640.06,-120.98C618.06,-112.69 584.44,-99.3 556.5,-85 520.05,-66.35 480.01,-40.57 456.35,-24.74"/>
<polygon fill="#63b8ff" stroke="#63b8ff" points="458.09,-21.69 447.84,-19 454.17,-27.5 458.09,-21.69"/>
</a>
</g>
</g>
<!-- Node28&#45;&gt;Node12 -->
<g id="edge45_Node000028_Node000012" class="edge">
<title>Node28&#45;&gt;Node12</title>
<g id="a_edge45_Node000028_Node000012"><a xlink:title=" ">
<path fill="none" stroke="#63b8ff" d="M671.48,-120.94C689.87,-101.23 735.47,-52.34 759.36,-26.73"/>
<polygon fill="#63b8ff" stroke="#63b8ff" points="762.03,-29 766.29,-19.3 756.91,-24.23 762.03,-29"/>
</a>
</g>
</g>
<!-- Node28&#45;&gt;Node13 -->
<g id="edge46_Node000028_Node000013" class="edge">
<title>Node28&#45;&gt;Node13</title>
<g id="a_edge46_Node000028_Node000013"><a xlink:title=" ">
<path fill="none" stroke="#63b8ff" d="M677.21,-120.85C691.35,-111.92 714.01,-97.56 733.5,-85 765.81,-64.17 803.07,-39.75 825.95,-24.7"/>
<polygon fill="#63b8ff" stroke="#63b8ff" points="828.11,-27.47 834.54,-19.04 824.26,-21.62 828.11,-27.47"/>
</a>
</g>
</g>
<!-- Node28&#45;&gt;Node16 -->
<g id="edge48_Node000028_Node000016" class="edge">
<title>Node28&#45;&gt;Node16</title>
<g id="a_edge48_Node000028_Node000016"><a xlink:title=" ">
<path fill="none" stroke="#63b8ff" d="M660.11,-120.87C656.84,-112.57 651.81,-99.78 647.66,-89.22"/>
<polygon fill="#63b8ff" stroke="#63b8ff" points="650.82,-87.69 643.91,-79.67 644.31,-90.25 650.82,-87.69"/>
</a>
</g>
</g>
<!-- Node29&#45;&gt;Node3 -->
<g id="edge59_Node000029_Node000003" class="edge">
<title>Node29&#45;&gt;Node3</title>
<g id="a_edge59_Node000029_Node000003"><a xlink:title=" ">
<path fill="none" stroke="#63b8ff" d="M798.32,-120.89C777.12,-106.14 731.73,-75.63 690.5,-55 664.68,-42.08 634.15,-30.34 611.18,-22.16"/>
<polygon fill="#63b8ff" stroke="#63b8ff" points="612.12,-18.78 601.53,-18.78 609.8,-25.39 612.12,-18.78"/>
</a>
</g>
</g>
<!-- Node29&#45;&gt;Node4 -->
<g id="edge61_Node000029_Node000004" class="edge">
<title>Node29&#45;&gt;Node4</title>
<g id="a_edge61_Node000029_Node000004"><a xlink:title=" ">
<path fill="none" stroke="#63b8ff" d="M755.32,-120.97C699.96,-111.95 618.81,-97.34 589.5,-85 567.69,-75.81 566.37,-66.17 545.5,-55 520.77,-41.76 491.23,-30.02 468.99,-21.93"/>
<polygon fill="#63b8ff" stroke="#63b8ff" points="469.93,-18.54 459.33,-18.47 467.57,-25.13 469.93,-18.54"/>
</a>
</g>
</g>
<!-- Node29&#45;&gt;Node5 -->
<g id="edge62_Node000029_Node000005" class="edge">
<title>Node29&#45;&gt;Node5</title>
<g id="a_edge62_Node000029_Node000005"><a xlink:title=" ">
<path fill="none" stroke="#63b8ff" d="M838.27,-120.99C866.36,-112.39 910.55,-98.86 945.87,-88.04"/>
<polygon fill="#63b8ff" stroke="#63b8ff" points="947.04,-91.34 955.58,-85.06 944.99,-84.65 947.04,-91.34"/>
</a>
</g>
</g>
<!-- Node29&#45;&gt;Node16 -->
<g id="edge51_Node000029_Node000016" class="edge">
<title>Node29&#45;&gt;Node16</title>
<g id="a_edge51_Node000029_Node000016"><a xlink:title=" ">
<path fill="none" stroke="#63b8ff" d="M785.78,-120.99C756.57,-110.94 707.8,-94.16 674.91,-82.84"/>
<polygon fill="#63b8ff" stroke="#63b8ff" points="675.84,-79.46 665.25,-79.52 673.57,-86.08 675.84,-79.46"/>
</a>
</g>
</g>
<!-- Node29&#45;&gt;Node30 -->
<g id="edge52_Node000029_Node000030" class="edge">
<title>Node29&#45;&gt;Node30</title>
<g id="a_edge52_Node000029_Node000030"><a xlink:title=" ">
<path fill="none" stroke="#63b8ff" d="M863.28,-120.99C930.38,-110.18 1045.83,-91.58 1115.38,-80.37"/>
<polygon fill="#63b8ff" stroke="#63b8ff" points="1115.98,-83.82 1125.29,-78.77 1114.86,-76.9 1115.98,-83.82"/>
</a>
</g>
</g>
<!-- Node34 -->
<g id="Node000034" class="node">
<title>Node34</title>
<g id="a_Node000034"><a xlink:title=" ">
<polygon fill="#e0e0e0" stroke="#999999" points="870,-79.5 815,-79.5 815,-60.5 870,-60.5 870,-79.5"/>
<text text-anchor="middle" x="842.5" y="-67.5" font-family="Helvetica,sans-Serif" font-size="10.00">fstream</text>
</a>
</g>
</g>
<!-- Node29&#45;&gt;Node34 -->
<g id="edge60_Node000029_Node000034" class="edge">
<title>Node29&#45;&gt;Node34</title>
<g id="a_edge60_Node000029_Node000034"><a xlink:title=" ">
<path fill="none" stroke="#63b8ff" d="M815.22,-120.87C819.85,-112.4 827.05,-99.24 832.89,-88.57"/>
<polygon fill="#63b8ff" stroke="#63b8ff" points="836.03,-90.12 837.76,-79.67 829.89,-86.76 836.03,-90.12"/>
</a>
</g>
</g>
<!-- Node30&#45;&gt;Node13 -->
<g id="edge57_Node000030_Node000013" class="edge">
<title>Node30&#45;&gt;Node13</title>
<g id="a_edge57_Node000030_Node000013"><a xlink:title=" ">
<path fill="none" stroke="#63b8ff" d="M1125.44,-62.36C1068.82,-54.2 971.77,-39.18 879.55,-19.05"/>
<polygon fill="#63b8ff" stroke="#63b8ff" points="880.3,-15.63 869.78,-16.9 878.8,-22.47 880.3,-15.63"/>
</a>
</g>
</g>
<!-- Node30&#45;&gt;Node19 -->
<g id="edge55_Node000030_Node000019" class="edge">
<title>Node30&#45;&gt;Node19</title>
<g id="a_edge55_Node000030_Node000019"><a xlink:title=" ">
<path fill="none" stroke="#63b8ff" d="M1179.11,-60.37C1184.66,-51.81 1193.33,-38.47 1200.3,-27.74"/>
<polygon fill="#63b8ff" stroke="#63b8ff" points="1203.36,-29.46 1205.87,-19.17 1197.49,-25.65 1203.36,-29.46"/>
</a>
</g>
</g>
<!-- Node30&#45;&gt;Node22 -->
<g id="edge56_Node000030_Node000022" class="edge">
<title>Node30&#45;&gt;Node22</title>
<g id="a_edge56_Node000030_Node000022"><a xlink:title=" ">
<path fill="none" stroke="#63b8ff" d="M1167.89,-60.37C1162.34,-51.81 1153.67,-38.47 1146.7,-27.74"/>
<polygon fill="#63b8ff" stroke="#63b8ff" points="1149.51,-25.65 1141.13,-19.17 1143.64,-29.46 1149.51,-25.65"/>
</a>
</g>
</g>
<!-- Node31 -->
<g id="Node000031" class="node">
<title>Node31</title>
<g id="a_Node000031"><a xlink:title=" ">
<polygon fill="#e0e0e0" stroke="#999999" points="1607.5,-19 1557.5,-19 1557.5,0 1607.5,0 1607.5,-19"/>
<text text-anchor="middle" x="1582.5" y="-7" font-family="Helvetica,sans-Serif" font-size="10.00">chrono</text>
</a>
</g>
</g>
<!-- Node30&#45;&gt;Node31 -->
<g id="edge53_Node000030_Node000031" class="edge">
<title>Node30&#45;&gt;Node31</title>
<g id="a_edge53_Node000030_Node000031"><a xlink:title=" ">
<path fill="none" stroke="#63b8ff" d="M1221.73,-64.32C1291.5,-57.17 1424.79,-42.07 1547.38,-19.02"/>
<polygon fill="#63b8ff" stroke="#63b8ff" points="1548.15,-22.44 1557.32,-17.13 1546.84,-15.56 1548.15,-22.44"/>
</a>
</g>
</g>
<!-- Node32 -->
<g id="Node000032" class="node">
<title>Node32</title>
<g id="a_Node000032"><a xlink:title=" ">
<polygon fill="#e0e0e0" stroke="#999999" points="1679,-19 1626,-19 1626,0 1679,0 1679,-19"/>
<text text-anchor="middle" x="1652.5" y="-7" font-family="Helvetica,sans-Serif" font-size="10.00">cstdarg</text>
</a>
</g>
</g>
<!-- Node30&#45;&gt;Node32 -->
<g id="edge54_Node000030_Node000032" class="edge">
<title>Node30&#45;&gt;Node32</title>
<g id="a_edge54_Node000030_Node000032"><a xlink:title=" ">
<path fill="none" stroke="#63b8ff" d="M1221.62,-65.46C1301.42,-59.19 1466.28,-44.47 1615.57,-18.95"/>
<polygon fill="#63b8ff" stroke="#63b8ff" points="1616.58,-22.32 1625.84,-17.17 1615.39,-15.43 1616.58,-22.32"/>
</a>
</g>
</g>
<!-- Node33 -->
<g id="Node000033" class="node">
<title>Node33</title>
<g id="a_Node000033"><a xlink:title=" ">
<polygon fill="#e0e0e0" stroke="#999999" points="1539.5,-19 1491.5,-19 1491.5,0 1539.5,0 1539.5,-19"/>
<text text-anchor="middle" x="1515.5" y="-7" font-family="Helvetica,sans-Serif" font-size="10.00">mutex</text>
</a>
</g>
</g>
<!-- Node30&#45;&gt;Node33 -->
<g id="edge58_Node000030_Node000033" class="edge">
<title>Node30&#45;&gt;Node33</title>
<g id="a_edge58_Node000030_Node000033"><a xlink:title=" ">
<path fill="none" stroke="#63b8ff" d="M1221.66,-62.6C1280.63,-54.46 1383.74,-39.23 1481.37,-19.07"/>
<polygon fill="#63b8ff" stroke="#63b8ff" points="1482.33,-22.45 1491.41,-16.98 1480.91,-15.59 1482.33,-22.45"/>
</a>
</g>
</g>
</g>
</svg>

<g id="navigator" transform="translate(0 0)" fill="#404254">
  <rect fill="#f2f5e9" fill-opacity="0.5" stroke="#606060" stroke-width=".5" x="0" y="0" width="60" height="60"/>
  <use id="zoomplus" xlink:href="#zoomPlus" x="17" y="9" onmousedown="handleZoom(evt,'in')"/>
  <use id="zoomminus" xlink:href="#zoomMin" x="42" y="9" onmousedown="handleZoom(evt,'out')"/>
  <use id="reset" xlink:href="#resetDef" x="30" y="36" onmousedown="handleReset()"/>
   <use id="arrowup" xlink:href="#arrowUp" x="0" y="0" onmousedown="handlePan(0,-1)"/>
  <use id="arrowright" xlink:href="#arrowRight" x="0" y="0" onmousedown="handlePan(1,0)"/>
  <use id="arrowdown" xlink:href="#arrowDown" x="0" y="0" onmousedown="handlePan(0,1)"/>
  <use id="arrowleft" xlink:href="#arrowLeft" x="0" y="0" onmousedown="handlePan(-1,0)"/>
</g>
<svg viewBox="0 0 15 15" width="100%" height="30px" preserveAspectRatio="xMaxYMin meet">
 <g id="arrow_out" transform="scale(0.3 0.3)">
  <a xlink:href="ppiSegmenter_8cpp__incl_org.svg" target="_base">
   <rect id="button" ry="5" rx="5" y="6" x="6" height="38" width="38"
        fill="#f2f5e9" fill-opacity="0.5" stroke="#606060" stroke-width="1.0"/>
   <path id="arrow"
     d="M 11.500037,31.436501 C 11.940474,20.09759 22.043105,11.32322 32.158766,21.979434 L 37.068811,17.246167 C 37.068811,17.246167 37.088388,32 37.088388,32 L 22.160133,31.978069 C 22.160133,31.978069 26.997745,27.140456 26.997745,27.140456 C 18.528582,18.264221 13.291696,25.230495 11.500037,31.436501 z"
     style="fill:#404040;"/>
  </a>
 </g>
</svg>

<style type='text/css'>
<![CDATA[
[data-mouse-over-selected='false'] { opacity: 0.7; }
[data-mouse-over-selected='true']  { opacity: 1.0; }
]]>
</style>
<script type="application/ecmascript"><![CDATA[
document.addEventListener('DOMContentLoaded', (event) => {
  highlightEdges();
  highlightAdjacentNodes();
});
]]></script>
</svg>
