<?xml version="1.0" encoding="UTF-8" standalone="no"?>
<!DOCTYPE svg PUBLIC "-//W3C//DTD SVG 1.1//EN"
 "http://www.w3.org/Graphics/SVG/1.1/DTD/svg11.dtd">
<!-- Generated by graphviz version 2.43.0 (0)
 -->
<!-- Title: src/lib/patchGeneration/ppiSegmenter.cpp Pages: 1 -->
<svg width="1873pt" height="214pt"
 viewBox="0.00 0.00 1873.00 214.00" xmlns="http://www.w3.org/2000/svg" xmlns:xlink="http://www.w3.org/1999/xlink">
<g id="graph0" class="graph" transform="scale(1 1) rotate(0) translate(4 210)">
<title>src/lib/patchGeneration/ppiSegmenter.cpp</title>
<!-- Node1 -->
<g id="Node000001" class="node">
<title>Node1</title>
<g id="a_Node000001"><a xlink:title=" ">
<polygon fill="#999999" stroke="#666666" points="1015.5,-206 885.5,-206 885.5,-176 1015.5,-176 1015.5,-206"/>
<text text-anchor="start" x="893.5" y="-194" font-family="Helvetica,sans-Serif" font-size="10.00">src/lib/patchGeneration</text>
<text text-anchor="middle" x="950.5" y="-183" font-family="Helvetica,sans-Serif" font-size="10.00">/ppiSegmenter.cpp</text>
</a>
</g>
</g>
<!-- Node2 -->
<g id="Node000002" class="node">
<title>Node2</title>
<g id="a_Node000002"><a xlink:href="ppiSegmenter_8hpp.html" target="_top" xlink:title=" ">
<polygon fill="white" stroke="#666666" points="922,-140 817,-140 817,-121 922,-121 922,-140"/>
<text text-anchor="middle" x="869.5" y="-128" font-family="Helvetica,sans-Serif" font-size="10.00">ppiSegmenter.hpp</text>
</a>
</g>
</g>
<!-- Node1&#45;&gt;Node2 -->
<g id="edge1_Node000001_Node000002" class="edge">
<title>Node1&#45;&gt;Node2</title>
<g id="a_edge1_Node000001_Node000002"><a xlink:title=" ">
<path fill="none" stroke="#63b8ff" d="M930.89,-175.84C918.53,-166.91 902.6,-155.41 890.07,-146.35"/>
<polygon fill="#63b8ff" stroke="#63b8ff" points="891.79,-143.28 881.64,-140.27 887.7,-148.96 891.79,-143.28"/>
</a>
</g>
</g>
<!-- Node4 -->
<g id="Node000004" class="node">
<title>Node4</title>
<g id="a_Node000004"><a xlink:title=" ">
<polygon fill="#e0e0e0" stroke="#999999" points="1371,-19 1324,-19 1324,0 1371,0 1371,-19"/>
<text text-anchor="middle" x="1347.5" y="-7" font-family="Helvetica,sans-Serif" font-size="10.00">vector</text>
</a>
</g>
</g>
<!-- Node1&#45;&gt;Node4 -->
<g id="edge39_Node000001_Node000004" class="edge">
<title>Node1&#45;&gt;Node4</title>
<g id="a_edge39_Node000001_Node000004"><a xlink:title=" ">
<path fill="none" stroke="#63b8ff" d="M1015.86,-186.25C1110.22,-180.04 1279.34,-165.68 1334.5,-140 1367.3,-124.73 1379.93,-118.11 1394.5,-85 1399.87,-72.8 1399.77,-67.25 1394.5,-55 1389.35,-43.03 1379.21,-32.76 1369.67,-25.12"/>
<polygon fill="#63b8ff" stroke="#63b8ff" points="1371.69,-22.26 1361.57,-19.11 1367.51,-27.88 1371.69,-22.26"/>
</a>
</g>
</g>
<!-- Node5 -->
<g id="Node000005" class="node">
<title>Node5</title>
<g id="a_Node000005"><a xlink:href="robin__hood_8h.html" target="_top" xlink:title=" ">
<polygon fill="white" stroke="#666666" points="851,-85 726,-85 726,-55 851,-55 851,-85"/>
<text text-anchor="start" x="734" y="-73" font-family="Helvetica,sans-Serif" font-size="10.00">patchGeneration/robin</text>
<text text-anchor="middle" x="788.5" y="-62" font-family="Helvetica,sans-Serif" font-size="10.00">_hood.h</text>
</a>
</g>
</g>
<!-- Node1&#45;&gt;Node5 -->
<g id="edge40_Node000001_Node000005" class="edge">
<title>Node1&#45;&gt;Node5</title>
<g id="a_edge40_Node000001_Node000005"><a xlink:title=" ">
<path fill="none" stroke="#63b8ff" d="M885.34,-180.53C858.3,-173.5 828.61,-161.27 808.5,-140 797.17,-128.01 792.21,-109.99 790.06,-95.37"/>
<polygon fill="#63b8ff" stroke="#63b8ff" points="793.49,-94.56 788.9,-85.01 786.53,-95.33 793.49,-94.56"/>
</a>
</g>
</g>
<!-- Node6 -->
<g id="Node000006" class="node">
<title>Node6</title>
<g id="a_Node000006"><a xlink:title=" ">
<polygon fill="#e0e0e0" stroke="#999999" points="587.5,-19 523.5,-19 523.5,0 587.5,0 587.5,-19"/>
<text text-anchor="middle" x="555.5" y="-7" font-family="Helvetica,sans-Serif" font-size="10.00">algorithm</text>
</a>
</g>
</g>
<!-- Node1&#45;&gt;Node6 -->
<g id="edge34_Node000001_Node000006" class="edge">
<title>Node1&#45;&gt;Node6</title>
<g id="a_edge34_Node000001_Node000006"><a xlink:title=" ">
<path fill="none" stroke="#63b8ff" d="M885.48,-188.07C817.99,-184.25 710.34,-172.99 623.5,-140 581.44,-124.02 560,-124.53 538.5,-85 528.83,-67.22 536.72,-44.17 544.68,-28.45"/>
<polygon fill="#63b8ff" stroke="#63b8ff" points="547.96,-29.75 549.74,-19.3 541.84,-26.36 547.96,-29.75"/>
</a>
</g>
</g>
<!-- Node11 -->
<g id="Node000011" class="node">
<title>Node11</title>
<g id="a_Node000011"><a xlink:title=" ">
<polygon fill="#e0e0e0" stroke="#999999" points="129.5,-19 71.5,-19 71.5,0 129.5,0 129.5,-19"/>
<text text-anchor="middle" x="100.5" y="-7" font-family="Helvetica,sans-Serif" font-size="10.00">memory</text>
</a>
</g>
</g>
<!-- Node1&#45;&gt;Node11 -->
<g id="edge37_Node000001_Node000011" class="edge">
<title>Node1&#45;&gt;Node11</title>
<g id="a_edge37_Node000001_Node000011"><a xlink:title=" ">
<path fill="none" stroke="#63b8ff" d="M885.33,-184.23C809.1,-176.84 679.34,-162.26 569.5,-140 405.3,-106.72 214,-47.27 136.16,-22.18"/>
<polygon fill="#63b8ff" stroke="#63b8ff" points="136.97,-18.77 126.38,-19.02 134.82,-25.43 136.97,-18.77"/>
</a>
</g>
</g>
<!-- Node13 -->
<g id="Node000013" class="node">
<title>Node13</title>
<g id="a_Node000013"><a xlink:title=" ">
<polygon fill="#e0e0e0" stroke="#999999" points="1433.5,-19 1389.5,-19 1389.5,0 1433.5,0 1433.5,-19"/>
<text text-anchor="middle" x="1411.5" y="-7" font-family="Helvetica,sans-Serif" font-size="10.00">string</text>
</a>
</g>
</g>
<!-- Node1&#45;&gt;Node13 -->
<g id="edge38_Node000001_Node000013" class="edge">
<title>Node1&#45;&gt;Node13</title>
<g id="a_edge38_Node000001_Node000013"><a xlink:title=" ">
<path fill="none" stroke="#63b8ff" d="M1015.85,-188.1C1117.27,-184.16 1307.01,-172.56 1365.5,-140 1392.85,-124.77 1398.74,-114.4 1409.5,-85 1416.09,-66.99 1415.72,-44.86 1414.24,-29.42"/>
<polygon fill="#63b8ff" stroke="#63b8ff" points="1417.67,-28.6 1412.99,-19.1 1410.72,-29.44 1417.67,-28.6"/>
</a>
</g>
</g>
<!-- Node16 -->
<g id="Node000016" class="node">
<title>Node16</title>
<g id="a_Node000016"><a xlink:href="utils_8hpp.html" target="_top" xlink:title=" ">
<polygon fill="white" stroke="#666666" points="991,-79.5 908,-79.5 908,-60.5 991,-60.5 991,-79.5"/>
<text text-anchor="middle" x="949.5" y="-67.5" font-family="Helvetica,sans-Serif" font-size="10.00">utils/utils.hpp</text>
</a>
</g>
</g>
<!-- Node1&#45;&gt;Node16 -->
<g id="edge53_Node000001_Node000016" class="edge">
<title>Node1&#45;&gt;Node16</title>
<g id="a_edge53_Node000001_Node000016"><a xlink:title=" ">
<path fill="none" stroke="#63b8ff" d="M950.38,-175.88C950.2,-154.51 949.86,-113.89 949.66,-89.96"/>
<polygon fill="#63b8ff" stroke="#63b8ff" points="953.16,-89.68 949.57,-79.71 946.16,-89.74 953.16,-89.68"/>
</a>
</g>
</g>
<!-- Node20 -->
<g id="Node000020" class="node">
<title>Node20</title>
<g id="a_Node000020"><a xlink:href="uvgvpcc_8hpp.html" target="_top" xlink:title=" ">
<polygon fill="white" stroke="#666666" points="669.5,-79.5 547.5,-79.5 547.5,-60.5 669.5,-60.5 669.5,-79.5"/>
<text text-anchor="middle" x="608.5" y="-67.5" font-family="Helvetica,sans-Serif" font-size="10.00">uvgvpcc/uvgvpcc.hpp</text>
</a>
</g>
</g>
<!-- Node1&#45;&gt;Node20 -->
<g id="edge71_Node000001_Node000020" class="edge">
<title>Node1&#45;&gt;Node20</title>
<g id="a_edge71_Node000001_Node000020"><a xlink:title=" ">
<path fill="none" stroke="#63b8ff" d="M885.48,-186.26C807.05,-180.6 681.04,-167.45 643.5,-140 626.94,-127.89 617.68,-105.66 612.91,-89.71"/>
<polygon fill="#63b8ff" stroke="#63b8ff" points="616.24,-88.63 610.28,-79.86 609.48,-90.43 616.24,-88.63"/>
</a>
</g>
</g>
<!-- Node21 -->
<g id="Node000021" class="node">
<title>Node21</title>
<g id="a_Node000021"><a xlink:title=" ">
<polygon fill="#e0e0e0" stroke="#999999" points="53,-19 0,-19 0,0 53,0 53,-19"/>
<text text-anchor="middle" x="26.5" y="-7" font-family="Helvetica,sans-Serif" font-size="10.00">cstddef</text>
</a>
</g>
</g>
<!-- Node1&#45;&gt;Node21 -->
<g id="edge35_Node000001_Node000021" class="edge">
<title>Node1&#45;&gt;Node21</title>
<g id="a_edge35_Node000001_Node000021"><a xlink:title=" ">
<path fill="none" stroke="#63b8ff" d="M885.43,-185.54C794.73,-178.76 625.33,-164.04 482.5,-140 375.44,-121.98 348.89,-114.82 244.5,-85 177.56,-65.88 100.88,-38.32 58.64,-22.64"/>
<polygon fill="#63b8ff" stroke="#63b8ff" points="59.76,-19.32 49.17,-19.11 57.31,-25.88 59.76,-19.32"/>
</a>
</g>
</g>
<!-- Node27 -->
<g id="Node000027" class="node">
<title>Node27</title>
<g id="a_Node000027"><a xlink:title=" ">
<polygon fill="#e0e0e0" stroke="#999999" points="1168,-140 1115,-140 1115,-121 1168,-121 1168,-140"/>
<text text-anchor="middle" x="1141.5" y="-128" font-family="Helvetica,sans-Serif" font-size="10.00">iterator</text>
</a>
</g>
</g>
<!-- Node1&#45;&gt;Node27 -->
<g id="edge36_Node000001_Node000027" class="edge">
<title>Node1&#45;&gt;Node27</title>
<g id="a_edge36_Node000001_Node000027"><a xlink:title=" ">
<path fill="none" stroke="#63b8ff" d="M996.25,-175.99C1029.56,-165.78 1074.09,-152.15 1105.02,-142.67"/>
<polygon fill="#63b8ff" stroke="#63b8ff" points="1106.42,-145.91 1114.95,-139.63 1104.37,-139.21 1106.42,-145.91"/>
</a>
</g>
</g>
<!-- Node28 -->
<g id="Node000028" class="node">
<title>Node28</title>
<g id="a_Node000028"><a xlink:href="fileExport_8hpp.html" target="_top" xlink:title=" ">
<polygon fill="white" stroke="#666666" points="760.5,-140 652.5,-140 652.5,-121 760.5,-121 760.5,-140"/>
<text text-anchor="middle" x="706.5" y="-128" font-family="Helvetica,sans-Serif" font-size="10.00">utils/fileExport.hpp</text>
</a>
</g>
</g>
<!-- Node1&#45;&gt;Node28 -->
<g id="edge41_Node000001_Node000028" class="edge">
<title>Node1&#45;&gt;Node28</title>
<g id="a_edge41_Node000001_Node000028"><a xlink:title=" ">
<path fill="none" stroke="#63b8ff" d="M892.06,-175.99C849.13,-165.7 791.63,-151.91 752.08,-142.43"/>
<polygon fill="#63b8ff" stroke="#63b8ff" points="752.72,-138.98 742.18,-140.05 751.09,-145.79 752.72,-138.98"/>
</a>
</g>
</g>
<!-- Node29 -->
<g id="Node000029" class="node">
<title>Node29</title>
<g id="a_Node000029"><a xlink:href="parameters_8hpp.html" target="_top" xlink:title=" ">
<polygon fill="white" stroke="#666666" points="1096.5,-140 978.5,-140 978.5,-121 1096.5,-121 1096.5,-140"/>
<text text-anchor="middle" x="1037.5" y="-128" font-family="Helvetica,sans-Serif" font-size="10.00">utils/parameters.hpp</text>
</a>
</g>
</g>
<!-- Node1&#45;&gt;Node29 -->
<g id="edge48_Node000001_Node000029" class="edge">
<title>Node1&#45;&gt;Node29</title>
<g id="a_edge48_Node000001_Node000029"><a xlink:title=" ">
<path fill="none" stroke="#63b8ff" d="M971.56,-175.84C985.04,-166.77 1002.49,-155.04 1016.05,-145.92"/>
<polygon fill="#63b8ff" stroke="#63b8ff" points="1018.37,-148.58 1024.72,-140.09 1014.47,-142.77 1018.37,-148.58"/>
</a>
</g>
</g>
<!-- Node30 -->
<g id="Node000030" class="node">
<title>Node30</title>
<g id="a_Node000030"><a xlink:href="utilsPatchGeneration_8hpp.html" target="_top" xlink:title=" ">
<polygon fill="white" stroke="#666666" points="1325,-140 1186,-140 1186,-121 1325,-121 1325,-140"/>
<text text-anchor="middle" x="1255.5" y="-128" font-family="Helvetica,sans-Serif" font-size="10.00">utilsPatchGeneration.hpp</text>
</a>
</g>
</g>
<!-- Node1&#45;&gt;Node30 -->
<g id="edge54_Node000001_Node000030" class="edge">
<title>Node1&#45;&gt;Node30</title>
<g id="a_edge54_Node000001_Node000030"><a xlink:title=" ">
<path fill="none" stroke="#63b8ff" d="M1015.56,-177.52C1070.67,-166.95 1148.79,-151.97 1200.74,-142"/>
<polygon fill="#63b8ff" stroke="#63b8ff" points="1201.61,-145.4 1210.77,-140.08 1200.29,-138.53 1201.61,-145.4"/>
</a>
</g>
</g>
<!-- Node32 -->
<g id="Node000032" class="node">
<title>Node32</title>
<g id="a_Node000032"><a xlink:href="log_8hpp.html" target="_top" xlink:title=" ">
<polygon fill="white" stroke="#666666" points="1759.5,-79.5 1663.5,-79.5 1663.5,-60.5 1759.5,-60.5 1759.5,-79.5"/>
<text text-anchor="middle" x="1711.5" y="-67.5" font-family="Helvetica,sans-Serif" font-size="10.00">uvgvpcc/log.hpp</text>
</a>
</g>
</g>
<!-- Node1&#45;&gt;Node32 -->
<g id="edge70_Node000001_Node000032" class="edge">
<title>Node1&#45;&gt;Node32</title>
<g id="a_edge70_Node000001_Node000032"><a xlink:title=" ">
<path fill="none" stroke="#63b8ff" d="M1015.51,-188.51C1118.06,-185.16 1323.22,-174.37 1493.5,-140 1561.62,-126.25 1638.52,-99.04 1680.34,-83.21"/>
<polygon fill="#63b8ff" stroke="#63b8ff" points="1681.85,-86.38 1689.94,-79.54 1679.35,-79.84 1681.85,-86.38"/>
</a>
</g>
</g>
<!-- Node37 -->
<g id="Node000037" class="node">
<title>Node37</title>
<g id="a_Node000037"><a xlink:href="statsCollector_8hpp.html" target="_top" xlink:title=" ">
<polygon fill="white" stroke="#666666" points="1607.5,-79.5 1479.5,-79.5 1479.5,-60.5 1607.5,-60.5 1607.5,-79.5"/>
<text text-anchor="middle" x="1543.5" y="-67.5" font-family="Helvetica,sans-Serif" font-size="10.00">utils/statsCollector.hpp</text>
</a>
</g>
</g>
<!-- Node1&#45;&gt;Node37 -->
<g id="edge72_Node000001_Node000037" class="edge">
<title>Node1&#45;&gt;Node37</title>
<g id="a_edge72_Node000001_Node000037"><a xlink:title=" ">
<path fill="none" stroke="#63b8ff" d="M1015.67,-188.65C1135.62,-185.36 1386.33,-174.46 1465.5,-140 1492.32,-128.33 1516.4,-103.85 1530.48,-87.41"/>
<polygon fill="#63b8ff" stroke="#63b8ff" points="1533.22,-89.59 1536.9,-79.66 1527.83,-85.13 1533.22,-89.59"/>
</a>
</g>
</g>
<!-- Node3 -->
<g id="Node000003" class="node">
<title>Node3</title>
<g id="a_Node000003"><a xlink:title=" ">
<polygon fill="#e0e0e0" stroke="#999999" points="1305.5,-19 1255.5,-19 1255.5,0 1305.5,0 1305.5,-19"/>
<text text-anchor="middle" x="1280.5" y="-7" font-family="Helvetica,sans-Serif" font-size="10.00">cstdint</text>
</a>
</g>
</g>
<!-- Node2&#45;&gt;Node3 -->
<g id="edge2_Node000002_Node000003" class="edge">
<title>Node2&#45;&gt;Node3</title>
<g id="a_edge2_Node000002_Node000003"><a xlink:title=" ">
<path fill="none" stroke="#63b8ff" d="M902.84,-120.99C929.95,-113.41 968.78,-101.05 1000.5,-85 1021.29,-74.48 1021.97,-63.91 1043.5,-55 1125.27,-21.16 1154.86,-36.94 1245.44,-19.04"/>
<polygon fill="#63b8ff" stroke="#63b8ff" points="1246.21,-22.46 1255.29,-17.01 1244.79,-15.6 1246.21,-22.46"/>
</a>
</g>
</g>
<!-- Node2&#45;&gt;Node4 -->
<g id="edge3_Node000002_Node000004" class="edge">
<title>Node2&#45;&gt;Node4</title>
<g id="a_edge3_Node000002_Node000004"><a xlink:title=" ">
<path fill="none" stroke="#63b8ff" d="M901.25,-120.94C964.3,-103.96 1103.39,-66.66 1151.5,-55 1220.5,-38.27 1240.64,-36.39 1313.58,-19.15"/>
<polygon fill="#63b8ff" stroke="#63b8ff" points="1314.81,-22.45 1323.73,-16.73 1313.19,-15.64 1314.81,-22.45"/>
</a>
</g>
</g>
<!-- Node2&#45;&gt;Node5 -->
<g id="edge4_Node000002_Node000005" class="edge">
<title>Node2&#45;&gt;Node5</title>
<g id="a_edge4_Node000002_Node000005"><a xlink:title=" ">
<path fill="none" stroke="#63b8ff" d="M857.55,-120.87C846.76,-113.08 830.48,-101.32 816.43,-91.17"/>
<polygon fill="#63b8ff" stroke="#63b8ff" points="818.2,-88.13 808.04,-85.11 814.1,-93.81 818.2,-88.13"/>
</a>
</g>
</g>
<!-- Node2&#45;&gt;Node16 -->
<g id="edge15_Node000002_Node000016" class="edge">
<title>Node2&#45;&gt;Node16</title>
<g id="a_edge15_Node000002_Node000016"><a xlink:title=" ">
<path fill="none" stroke="#63b8ff" d="M881.3,-120.87C893.95,-111.62 914.24,-96.78 929.41,-85.69"/>
<polygon fill="#63b8ff" stroke="#63b8ff" points="931.64,-88.4 937.65,-79.67 927.51,-82.74 931.64,-88.4"/>
</a>
</g>
</g>
<!-- Node2&#45;&gt;Node20 -->
<g id="edge21_Node000002_Node000020" class="edge">
<title>Node2&#45;&gt;Node20</title>
<g id="a_edge21_Node000002_Node000020"><a xlink:title=" ">
<path fill="none" stroke="#63b8ff" d="M831.55,-120.99C785.25,-110.62 706.95,-93.07 656.51,-81.76"/>
<polygon fill="#63b8ff" stroke="#63b8ff" points="657.02,-78.29 646.5,-79.52 655.49,-85.12 657.02,-78.29"/>
</a>
</g>
</g>
<!-- Node5&#45;&gt;Node6 -->
<g id="edge5_Node000005_Node000006" class="edge">
<title>Node5&#45;&gt;Node6</title>
<g id="a_edge5_Node000005_Node000006"><a xlink:title=" ">
<path fill="none" stroke="#63b8ff" d="M732.69,-54.99C691.22,-44.58 635.51,-30.59 597.71,-21.1"/>
<polygon fill="#63b8ff" stroke="#63b8ff" points="598.1,-17.59 587.55,-18.55 596.4,-24.38 598.1,-17.59"/>
</a>
</g>
</g>
<!-- Node7 -->
<g id="Node000007" class="node">
<title>Node7</title>
<g id="a_Node000007"><a xlink:title=" ">
<polygon fill="#e0e0e0" stroke="#999999" points="655,-19 606,-19 606,0 655,0 655,-19"/>
<text text-anchor="middle" x="630.5" y="-7" font-family="Helvetica,sans-Serif" font-size="10.00">cstdlib</text>
</a>
</g>
</g>
<!-- Node5&#45;&gt;Node7 -->
<g id="edge6_Node000005_Node000007" class="edge">
<title>Node5&#45;&gt;Node7</title>
<g id="a_edge6_Node000005_Node000007"><a xlink:title=" ">
<path fill="none" stroke="#63b8ff" d="M750.66,-54.99C724.06,-45.14 688.83,-32.1 663.4,-22.68"/>
<polygon fill="#63b8ff" stroke="#63b8ff" points="664.43,-19.33 653.83,-19.14 662,-25.89 664.43,-19.33"/>
</a>
</g>
</g>
<!-- Node8 -->
<g id="Node000008" class="node">
<title>Node8</title>
<g id="a_Node000008"><a xlink:title=" ">
<polygon fill="#e0e0e0" stroke="#999999" points="797.5,-19 747.5,-19 747.5,0 797.5,0 797.5,-19"/>
<text text-anchor="middle" x="772.5" y="-7" font-family="Helvetica,sans-Serif" font-size="10.00">cstring</text>
</a>
</g>
</g>
<!-- Node5&#45;&gt;Node8 -->
<g id="edge7_Node000005_Node000008" class="edge">
<title>Node5&#45;&gt;Node8</title>
<g id="a_edge7_Node000005_Node000008"><a xlink:title=" ">
<path fill="none" stroke="#63b8ff" d="M784.63,-54.84C782.52,-47.13 779.88,-37.49 777.61,-29.17"/>
<polygon fill="#63b8ff" stroke="#63b8ff" points="780.91,-27.99 774.9,-19.27 774.16,-29.84 780.91,-27.99"/>
</a>
</g>
</g>
<!-- Node9 -->
<g id="Node000009" class="node">
<title>Node9</title>
<g id="a_Node000009"><a xlink:title=" ">
<polygon fill="#e0e0e0" stroke="#999999" points="881,-19 816,-19 816,0 881,0 881,-19"/>
<text text-anchor="middle" x="848.5" y="-7" font-family="Helvetica,sans-Serif" font-size="10.00">functional</text>
</a>
</g>
</g>
<!-- Node5&#45;&gt;Node9 -->
<g id="edge8_Node000005_Node000009" class="edge">
<title>Node5&#45;&gt;Node9</title>
<g id="a_edge8_Node000005_Node000009"><a xlink:title=" ">
<path fill="none" stroke="#63b8ff" d="M803.02,-54.84C811.82,-46.26 823.07,-35.3 832.17,-26.42"/>
<polygon fill="#63b8ff" stroke="#63b8ff" points="834.79,-28.75 839.51,-19.27 829.91,-23.74 834.79,-28.75"/>
</a>
</g>
</g>
<!-- Node10 -->
<g id="Node000010" class="node">
<title>Node10</title>
<g id="a_Node000010"><a xlink:title=" ">
<polygon fill="#e0e0e0" stroke="#999999" points="1093.5,-19 1049.5,-19 1049.5,0 1093.5,0 1093.5,-19"/>
<text text-anchor="middle" x="1071.5" y="-7" font-family="Helvetica,sans-Serif" font-size="10.00">limits</text>
</a>
</g>
</g>
<!-- Node5&#45;&gt;Node10 -->
<g id="edge9_Node000005_Node000010" class="edge">
<title>Node5&#45;&gt;Node10</title>
<g id="a_edge9_Node000005_Node000010"><a xlink:title=" ">
<path fill="none" stroke="#63b8ff" d="M851.26,-57.08C909.37,-45.96 992.6,-29.77 1039.27,-19.13"/>
<polygon fill="#63b8ff" stroke="#63b8ff" points="1040.25,-22.5 1049.2,-16.82 1038.66,-15.68 1040.25,-22.5"/>
</a>
</g>
</g>
<!-- Node5&#45;&gt;Node11 -->
<g id="edge10_Node000005_Node000011" class="edge">
<title>Node5&#45;&gt;Node11</title>
<g id="a_edge10_Node000005_Node000011"><a xlink:title=" ">
<path fill="none" stroke="#63b8ff" d="M725.75,-60.35C710.32,-58.41 693.83,-56.49 678.5,-55 442.36,-32.12 378.31,-52.77 139.89,-18.98"/>
<polygon fill="#63b8ff" stroke="#63b8ff" points="140.27,-15.49 129.88,-17.54 139.28,-22.42 140.27,-15.49"/>
</a>
</g>
</g>
<!-- Node12 -->
<g id="Node000012" class="node">
<title>Node12</title>
<g id="a_Node000012"><a xlink:title=" ">
<polygon fill="#e0e0e0" stroke="#999999" points="1177,-19 1112,-19 1112,0 1177,0 1177,-19"/>
<text text-anchor="middle" x="1144.5" y="-7" font-family="Helvetica,sans-Serif" font-size="10.00">stdexcept</text>
</a>
</g>
</g>
<!-- Node5&#45;&gt;Node12 -->
<g id="edge11_Node000005_Node000012" class="edge">
<title>Node5&#45;&gt;Node12</title>
<g id="a_edge11_Node000005_Node000012"><a xlink:title=" ">
<path fill="none" stroke="#63b8ff" d="M851.09,-57.46C855.96,-56.61 860.81,-55.78 865.5,-55 967.41,-38 995.88,-37.58 1101.82,-19.04"/>
<polygon fill="#63b8ff" stroke="#63b8ff" points="1102.73,-22.43 1111.97,-17.25 1101.51,-15.54 1102.73,-22.43"/>
</a>
</g>
</g>
<!-- Node5&#45;&gt;Node13 -->
<g id="edge12_Node000005_Node000013" class="edge">
<title>Node5&#45;&gt;Node13</title>
<g id="a_edge12_Node000005_Node000013"><a xlink:title=" ">
<path fill="none" stroke="#63b8ff" d="M851.25,-60.52C866.99,-58.55 883.85,-56.57 899.5,-55 1109.57,-33.9 1167.51,-54.86 1379.39,-18.85"/>
<polygon fill="#63b8ff" stroke="#63b8ff" points="1380,-22.29 1389.26,-17.15 1378.82,-15.4 1380,-22.29"/>
</a>
</g>
</g>
<!-- Node14 -->
<g id="Node000014" class="node">
<title>Node14</title>
<g id="a_Node000014"><a xlink:title=" ">
<polygon fill="#e0e0e0" stroke="#999999" points="968,-19 899,-19 899,0 968,0 968,-19"/>
<text text-anchor="middle" x="933.5" y="-7" font-family="Helvetica,sans-Serif" font-size="10.00">type_traits</text>
</a>
</g>
</g>
<!-- Node5&#45;&gt;Node14 -->
<g id="edge13_Node000005_Node000014" class="edge">
<title>Node5&#45;&gt;Node14</title>
<g id="a_edge13_Node000005_Node000014"><a xlink:title=" ">
<path fill="none" stroke="#63b8ff" d="M823.23,-54.99C847.42,-45.23 879.4,-32.33 902.69,-22.93"/>
<polygon fill="#63b8ff" stroke="#63b8ff" points="904.12,-26.13 912.09,-19.14 901.5,-19.63 904.12,-26.13"/>
</a>
</g>
</g>
<!-- Node15 -->
<g id="Node000015" class="node">
<title>Node15</title>
<g id="a_Node000015"><a xlink:title=" ">
<polygon fill="#e0e0e0" stroke="#999999" points="1031,-19 986,-19 986,0 1031,0 1031,-19"/>
<text text-anchor="middle" x="1008.5" y="-7" font-family="Helvetica,sans-Serif" font-size="10.00">utility</text>
</a>
</g>
</g>
<!-- Node5&#45;&gt;Node15 -->
<g id="edge14_Node000005_Node000015" class="edge">
<title>Node5&#45;&gt;Node15</title>
<g id="a_edge14_Node000005_Node000015"><a xlink:title=" ">
<path fill="none" stroke="#63b8ff" d="M842.3,-54.9C877.85,-45.56 925.72,-32.91 976.06,-19.37"/>
<polygon fill="#63b8ff" stroke="#63b8ff" points="977.07,-22.72 985.82,-16.74 975.25,-15.97 977.07,-22.72"/>
</a>
</g>
</g>
<!-- Node16&#45;&gt;Node3 -->
<g id="edge17_Node000016_Node000003" class="edge">
<title>Node16&#45;&gt;Node3</title>
<g id="a_edge17_Node000016_Node000003"><a xlink:title=" ">
<path fill="none" stroke="#63b8ff" d="M981.36,-60.47C989.22,-58.52 997.64,-56.57 1005.5,-55 1108.6,-34.46 1138.55,-39.81 1245.42,-19.04"/>
<polygon fill="#63b8ff" stroke="#63b8ff" points="1246.18,-22.46 1255.31,-17.09 1244.82,-15.59 1246.18,-22.46"/>
</a>
</g>
</g>
<!-- Node16&#45;&gt;Node10 -->
<g id="edge18_Node000016_Node000010" class="edge">
<title>Node16&#45;&gt;Node10</title>
<g id="a_edge18_Node000016_Node000010"><a xlink:title=" ">
<path fill="none" stroke="#63b8ff" d="M967.24,-60.49C987.57,-50.75 1021.11,-34.66 1044.64,-23.38"/>
<polygon fill="#63b8ff" stroke="#63b8ff" points="1046.24,-26.5 1053.74,-19.02 1043.21,-20.18 1046.24,-26.5"/>
</a>
</g>
</g>
<!-- Node17 -->
<g id="Node000017" class="node">
<title>Node17</title>
<g id="a_Node000017"><a xlink:title=" ">
<polygon fill="#e0e0e0" stroke="#999999" points="1237.5,-19 1195.5,-19 1195.5,0 1237.5,0 1237.5,-19"/>
<text text-anchor="middle" x="1216.5" y="-7" font-family="Helvetica,sans-Serif" font-size="10.00">array</text>
</a>
</g>
</g>
<!-- Node16&#45;&gt;Node17 -->
<g id="edge16_Node000016_Node000017" class="edge">
<title>Node16&#45;&gt;Node17</title>
<g id="a_edge16_Node000016_Node000017"><a xlink:title=" ">
<path fill="none" stroke="#63b8ff" d="M982.6,-60.44C990.11,-58.58 998.07,-56.67 1005.5,-55 1082.41,-37.75 1105.01,-38.13 1185.18,-19.16"/>
<polygon fill="#63b8ff" stroke="#63b8ff" points="1186.34,-22.48 1195.25,-16.75 1184.71,-15.67 1186.34,-22.48"/>
</a>
</g>
</g>
<!-- Node18 -->
<g id="Node000018" class="node">
<title>Node18</title>
<g id="a_Node000018"><a xlink:title=" ">
<polygon fill="#e0e0e0" stroke="#999999" points="729.5,-19 673.5,-19 673.5,0 729.5,0 729.5,-19"/>
<text text-anchor="middle" x="701.5" y="-7" font-family="Helvetica,sans-Serif" font-size="10.00">sstream</text>
</a>
</g>
</g>
<!-- Node16&#45;&gt;Node18 -->
<g id="edge19_Node000016_Node000018" class="edge">
<title>Node16&#45;&gt;Node18</title>
<g id="a_edge19_Node000016_Node000018"><a xlink:title=" ">
<path fill="none" stroke="#63b8ff" d="M913.44,-60.49C867.01,-49.54 786.68,-30.59 739.38,-19.44"/>
<polygon fill="#63b8ff" stroke="#63b8ff" points="740.06,-16 729.53,-17.11 738.46,-22.81 740.06,-16"/>
</a>
</g>
</g>
<!-- Node19 -->
<g id="Node000019" class="node">
<title>Node19</title>
<g id="a_Node000019"><a xlink:title=" ">
<polygon fill="#e0e0e0" stroke="#999999" points="1659.5,-19 1603.5,-19 1603.5,0 1659.5,0 1659.5,-19"/>
<text text-anchor="middle" x="1631.5" y="-7" font-family="Helvetica,sans-Serif" font-size="10.00">iomanip</text>
</a>
</g>
</g>
<!-- Node16&#45;&gt;Node19 -->
<g id="edge20_Node000016_Node000019" class="edge">
<title>Node16&#45;&gt;Node19</title>
<g id="a_edge20_Node000016_Node000019"><a xlink:title=" ">
<path fill="none" stroke="#63b8ff" d="M991.25,-67.91C1092.79,-64.8 1360.83,-53.83 1593.31,-18.95"/>
<polygon fill="#63b8ff" stroke="#63b8ff" points="1593.94,-22.39 1603.3,-17.43 1592.89,-15.47 1593.94,-22.39"/>
</a>
</g>
</g>
<!-- Node20&#45;&gt;Node3 -->
<g id="edge23_Node000020_Node000003" class="edge">
<title>Node20&#45;&gt;Node3</title>
<g id="a_edge23_Node000020_Node000003"><a xlink:title=" ">
<path fill="none" stroke="#63b8ff" d="M668.97,-60.5C684.45,-58.51 701.07,-56.52 716.5,-55 948.13,-32.14 1011.5,-55.11 1245.18,-18.91"/>
<polygon fill="#63b8ff" stroke="#63b8ff" points="1246.01,-22.32 1255.35,-17.31 1244.93,-15.41 1246.01,-22.32"/>
</a>
</g>
</g>
<!-- Node20&#45;&gt;Node4 -->
<g id="edge30_Node000020_Node000004" class="edge">
<title>Node20&#45;&gt;Node4</title>
<g id="a_edge30_Node000020_Node000004"><a xlink:title=" ">
<path fill="none" stroke="#63b8ff" d="M668.4,-60.49C684.03,-58.47 700.88,-56.48 716.5,-55 978.33,-30.18 1049.74,-59.66 1313.94,-18.73"/>
<polygon fill="#63b8ff" stroke="#63b8ff" points="1314.48,-22.19 1323.82,-17.18 1313.4,-15.27 1314.48,-22.19"/>
</a>
</g>
</g>
<!-- Node20&#45;&gt;Node6 -->
<g id="edge31_Node000020_Node000006" class="edge">
<title>Node20&#45;&gt;Node6</title>
<g id="a_edge31_Node000020_Node000006"><a xlink:title=" ">
<path fill="none" stroke="#63b8ff" d="M600.68,-60.37C592.69,-51.55 580.11,-37.66 570.24,-26.77"/>
<polygon fill="#63b8ff" stroke="#63b8ff" points="572.66,-24.23 563.35,-19.17 567.47,-28.93 572.66,-24.23"/>
</a>
</g>
</g>
<!-- Node20&#45;&gt;Node11 -->
<g id="edge25_Node000020_Node000011" class="edge">
<title>Node20&#45;&gt;Node11</title>
<g id="a_edge25_Node000020_Node000011"><a xlink:title=" ">
<path fill="none" stroke="#63b8ff" d="M566.57,-60.46C555.82,-58.46 544.26,-56.49 533.5,-55 362.13,-31.25 314.42,-45.74 139.92,-19.03"/>
<polygon fill="#63b8ff" stroke="#63b8ff" points="140.31,-15.54 129.89,-17.47 139.23,-22.46 140.31,-15.54"/>
</a>
</g>
</g>
<!-- Node20&#45;&gt;Node13 -->
<g id="edge29_Node000020_Node000013" class="edge">
<title>Node20&#45;&gt;Node13</title>
<g id="a_edge29_Node000020_Node000013"><a xlink:title=" ">
<path fill="none" stroke="#63b8ff" d="M667.83,-60.5C683.62,-58.46 700.68,-56.45 716.5,-55 1007.5,-28.29 1086.99,-65.49 1379.23,-18.83"/>
<polygon fill="#63b8ff" stroke="#63b8ff" points="1379.96,-22.26 1389.27,-17.2 1378.84,-15.35 1379.96,-22.26"/>
</a>
</g>
</g>
<!-- Node20&#45;&gt;Node18 -->
<g id="edge28_Node000020_Node000018" class="edge">
<title>Node20&#45;&gt;Node18</title>
<g id="a_edge28_Node000020_Node000018"><a xlink:title=" ">
<path fill="none" stroke="#63b8ff" d="M622.22,-60.37C637.2,-50.95 661.39,-35.73 679.12,-24.58"/>
<polygon fill="#63b8ff" stroke="#63b8ff" points="681.12,-27.45 687.72,-19.17 677.39,-21.53 681.12,-27.45"/>
</a>
</g>
</g>
<!-- Node20&#45;&gt;Node21 -->
<g id="edge22_Node000020_Node000021" class="edge">
<title>Node20&#45;&gt;Node21</title>
<g id="a_edge22_Node000020_Node000021"><a xlink:title=" ">
<path fill="none" stroke="#63b8ff" d="M547.27,-60.96C530.5,-58.88 512.31,-56.74 495.5,-55 306.7,-35.46 254.98,-48.8 63.28,-18.86"/>
<polygon fill="#63b8ff" stroke="#63b8ff" points="63.57,-15.36 53.15,-17.26 62.48,-22.28 63.57,-15.36"/>
</a>
</g>
</g>
<!-- Node22 -->
<g id="Node000022" class="node">
<title>Node22</title>
<g id="a_Node000022"><a xlink:title=" ">
<polygon fill="#e0e0e0" stroke="#999999" points="1511.5,-19 1451.5,-19 1451.5,0 1511.5,0 1511.5,-19"/>
<text text-anchor="middle" x="1481.5" y="-7" font-family="Helvetica,sans-Serif" font-size="10.00">iostream</text>
</a>
</g>
</g>
<!-- Node20&#45;&gt;Node22 -->
<g id="edge24_Node000020_Node000022" class="edge">
<title>Node20&#45;&gt;Node22</title>
<g id="a_edge24_Node000020_Node000022"><a xlink:title=" ">
<path fill="none" stroke="#63b8ff" d="M667.54,-60.49C683.41,-58.43 700.59,-56.42 716.5,-55 1034.98,-26.51 1120.5,-60.83 1441.31,-18.91"/>
<polygon fill="#63b8ff" stroke="#63b8ff" points="1441.9,-22.36 1451.35,-17.59 1440.98,-15.43 1441.9,-22.36"/>
</a>
</g>
</g>
<!-- Node23 -->
<g id="Node000023" class="node">
<title>Node23</title>
<g id="a_Node000023"><a xlink:title=" ">
<polygon fill="#e0e0e0" stroke="#999999" points="195,-19 148,-19 148,0 195,0 195,-19"/>
<text text-anchor="middle" x="171.5" y="-7" font-family="Helvetica,sans-Serif" font-size="10.00">queue</text>
</a>
</g>
</g>
<!-- Node20&#45;&gt;Node23 -->
<g id="edge26_Node000020_Node000023" class="edge">
<title>Node20&#45;&gt;Node23</title>
<g id="a_edge26_Node000020_Node000023"><a xlink:title=" ">
<path fill="none" stroke="#63b8ff" d="M565.76,-60.44C555.24,-58.5 543.98,-56.55 533.5,-55 390.82,-33.93 350.35,-45.47 205.34,-19.09"/>
<polygon fill="#63b8ff" stroke="#63b8ff" points="205.64,-15.59 195.17,-17.22 204.37,-22.47 205.64,-15.59"/>
</a>
</g>
</g>
<!-- Node24 -->
<g id="Node000024" class="node">
<title>Node24</title>
<g id="a_Node000024"><a xlink:title=" ">
<polygon fill="#e0e0e0" stroke="#999999" points="284,-19 213,-19 213,0 284,0 284,-19"/>
<text text-anchor="middle" x="248.5" y="-7" font-family="Helvetica,sans-Serif" font-size="10.00">semaphore</text>
</a>
</g>
</g>
<!-- Node20&#45;&gt;Node24 -->
<g id="edge27_Node000020_Node000024" class="edge">
<title>Node20&#45;&gt;Node24</title>
<g id="a_edge27_Node000020_Node000024"><a xlink:title=" ">
<path fill="none" stroke="#63b8ff" d="M564.13,-60.44C554.07,-58.58 543.43,-56.67 533.5,-55 429.83,-37.59 400.92,-37.28 293.92,-19.18"/>
<polygon fill="#63b8ff" stroke="#63b8ff" points="294.46,-15.73 284.02,-17.5 293.29,-22.63 294.46,-15.73"/>
</a>
</g>
</g>
<!-- Node25 -->
<g id="Node000025" class="node">
<title>Node25</title>
<g id="a_Node000025"><a xlink:title=" ">
<polygon fill="#e0e0e0" stroke="#999999" points="395,-19 302,-19 302,0 395,0 395,-19"/>
<text text-anchor="middle" x="348.5" y="-7" font-family="Helvetica,sans-Serif" font-size="10.00">unordered_map</text>
</a>
</g>
</g>
<!-- Node20&#45;&gt;Node25 -->
<g id="edge32_Node000020_Node000025" class="edge">
<title>Node20&#45;&gt;Node25</title>
<g id="a_edge32_Node000020_Node000025"><a xlink:title=" ">
<path fill="none" stroke="#63b8ff" d="M570.69,-60.49C524.58,-50.12 446.57,-32.57 396.32,-21.26"/>
<polygon fill="#63b8ff" stroke="#63b8ff" points="396.88,-17.8 386.35,-19.02 395.34,-24.63 396.88,-17.8"/>
</a>
</g>
</g>
<!-- Node26 -->
<g id="Node000026" class="node">
<title>Node26</title>
<g id="a_Node000026"><a xlink:title=" ">
<polygon fill="#e0e0e0" stroke="#999999" points="505.5,-19 413.5,-19 413.5,0 505.5,0 505.5,-19"/>
<text text-anchor="middle" x="459.5" y="-7" font-family="Helvetica,sans-Serif" font-size="10.00">../utils/utils.hpp</text>
</a>
</g>
</g>
<!-- Node20&#45;&gt;Node26 -->
<g id="edge33_Node000020_Node000026" class="edge">
<title>Node20&#45;&gt;Node26</title>
<g id="a_edge33_Node000020_Node000026"><a xlink:title=" ">
<path fill="none" stroke="#63b8ff" d="M586.83,-60.49C561.56,-50.57 519.59,-34.09 490.78,-22.78"/>
<polygon fill="#63b8ff" stroke="#63b8ff" points="491.78,-19.41 481.19,-19.02 489.22,-25.93 491.78,-19.41"/>
</a>
</g>
</g>
<!-- Node28&#45;&gt;Node4 -->
<g id="edge45_Node000028_Node000004" class="edge">
<title>Node28&#45;&gt;Node4</title>
<g id="a_edge45_Node000028_Node000004"><a xlink:title=" ">
<path fill="none" stroke="#63b8ff" d="M752.31,-120.98C783.85,-114 826.11,-102.4 860.5,-85 880.01,-75.13 879.12,-62.93 899.5,-55 1069,10.96 1129.87,-48.05 1313.81,-18.76"/>
<polygon fill="#63b8ff" stroke="#63b8ff" points="1314.52,-22.19 1323.81,-17.1 1313.37,-15.29 1314.52,-22.19"/>
</a>
</g>
</g>
<!-- Node28&#45;&gt;Node11 -->
<g id="edge43_Node000028_Node000011" class="edge">
<title>Node28&#45;&gt;Node11</title>
<g id="a_edge43_Node000028_Node000011"><a xlink:title=" ">
<path fill="none" stroke="#63b8ff" d="M670.16,-120.94C635.94,-112.63 583.37,-99.22 538.5,-85 501.9,-73.41 494.85,-63.88 457.5,-55 321.81,-22.72 281.04,-41.71 139.79,-19.03"/>
<polygon fill="#63b8ff" stroke="#63b8ff" points="140.33,-15.58 129.9,-17.4 139.2,-22.48 140.33,-15.58"/>
</a>
</g>
</g>
<!-- Node28&#45;&gt;Node13 -->
<g id="edge44_Node000028_Node000013" class="edge">
<title>Node28&#45;&gt;Node13</title>
<g id="a_edge44_Node000028_Node000013"><a xlink:title=" ">
<path fill="none" stroke="#63b8ff" d="M760.74,-121.65C819.78,-113.02 916.93,-98.58 1000.5,-85 1166.48,-58.03 1211.5,-56.43 1379.3,-19.1"/>
<polygon fill="#63b8ff" stroke="#63b8ff" points="1380.22,-22.48 1389.21,-16.89 1378.69,-15.65 1380.22,-22.48"/>
</a>
</g>
</g>
<!-- Node28&#45;&gt;Node16 -->
<g id="edge46_Node000028_Node000016" class="edge">
<title>Node28&#45;&gt;Node16</title>
<g id="a_edge46_Node000028_Node000016"><a xlink:title=" ">
<path fill="none" stroke="#63b8ff" d="M743.08,-120.93C780.8,-112.05 841.3,-97.73 893.5,-85 897.55,-84.01 901.77,-82.97 905.99,-81.93"/>
<polygon fill="#63b8ff" stroke="#63b8ff" points="906.9,-85.31 915.76,-79.5 905.21,-78.52 906.9,-85.31"/>
</a>
</g>
</g>
<!-- Node28&#45;&gt;Node20 -->
<g id="edge47_Node000028_Node000020" class="edge">
<title>Node28&#45;&gt;Node20</title>
<g id="a_edge47_Node000028_Node000020"><a xlink:title=" ">
<path fill="none" stroke="#63b8ff" d="M692.04,-120.87C676.19,-111.41 650.53,-96.09 631.82,-84.92"/>
<polygon fill="#63b8ff" stroke="#63b8ff" points="633.4,-81.79 623.02,-79.67 629.81,-87.8 633.4,-81.79"/>
</a>
</g>
</g>
<!-- Node28&#45;&gt;Node21 -->
<g id="edge42_Node000028_Node000021" class="edge">
<title>Node28&#45;&gt;Node21</title>
<g id="a_edge42_Node000028_Node000021"><a xlink:title=" ">
<path fill="none" stroke="#63b8ff" d="M652.43,-121.38C543.09,-104.71 287.72,-64.51 63.19,-19.03"/>
<polygon fill="#63b8ff" stroke="#63b8ff" points="63.69,-15.56 53.2,-17 62.3,-22.42 63.69,-15.56"/>
</a>
</g>
</g>
<!-- Node29&#45;&gt;Node4 -->
<g id="edge51_Node000029_Node000004" class="edge">
<title>Node29&#45;&gt;Node4</title>
<g id="a_edge51_Node000029_Node000004"><a xlink:title=" ">
<path fill="none" stroke="#63b8ff" d="M1059.79,-120.94C1113.96,-100.15 1252.62,-46.92 1315.56,-22.76"/>
<polygon fill="#63b8ff" stroke="#63b8ff" points="1316.91,-25.99 1324.99,-19.14 1314.4,-19.46 1316.91,-25.99"/>
</a>
</g>
</g>
<!-- Node29&#45;&gt;Node12 -->
<g id="edge49_Node000029_Node000012" class="edge">
<title>Node29&#45;&gt;Node12</title>
<g id="a_edge49_Node000029_Node000012"><a xlink:title=" ">
<path fill="none" stroke="#63b8ff" d="M1045.2,-120.94C1062.85,-101.31 1106.5,-52.76 1129.61,-27.07"/>
<polygon fill="#63b8ff" stroke="#63b8ff" points="1132.5,-29.08 1136.59,-19.3 1127.3,-24.4 1132.5,-29.08"/>
</a>
</g>
</g>
<!-- Node29&#45;&gt;Node13 -->
<g id="edge50_Node000029_Node000013" class="edge">
<title>Node29&#45;&gt;Node13</title>
<g id="a_edge50_Node000029_Node000013"><a xlink:title=" ">
<path fill="none" stroke="#63b8ff" d="M1073.71,-120.98C1108.11,-112.64 1161.18,-99.17 1206.5,-85 1268.97,-65.47 1340.54,-38.35 1380.44,-22.79"/>
<polygon fill="#63b8ff" stroke="#63b8ff" points="1381.84,-26 1389.88,-19.1 1379.29,-19.48 1381.84,-26"/>
</a>
</g>
</g>
<!-- Node29&#45;&gt;Node16 -->
<g id="edge52_Node000029_Node000016" class="edge">
<title>Node29&#45;&gt;Node16</title>
<g id="a_edge52_Node000029_Node000016"><a xlink:title=" ">
<path fill="none" stroke="#63b8ff" d="M1024.52,-120.87C1010.48,-111.54 987.87,-96.51 971.14,-85.38"/>
<polygon fill="#63b8ff" stroke="#63b8ff" points="972.8,-82.29 962.54,-79.67 968.93,-88.12 972.8,-82.29"/>
</a>
</g>
</g>
<!-- Node30&#45;&gt;Node3 -->
<g id="edge65_Node000030_Node000003" class="edge">
<title>Node30&#45;&gt;Node3</title>
<g id="a_edge65_Node000030_Node000003"><a xlink:title=" ">
<path fill="none" stroke="#63b8ff" d="M1248.93,-120.54C1239.35,-106.31 1223.69,-77.79 1233.5,-55 1238.65,-43.03 1248.79,-32.76 1258.33,-25.12"/>
<polygon fill="#63b8ff" stroke="#63b8ff" points="1260.49,-27.88 1266.43,-19.11 1256.31,-22.26 1260.49,-27.88"/>
</a>
</g>
</g>
<!-- Node30&#45;&gt;Node4 -->
<g id="edge67_Node000030_Node000004" class="edge">
<title>Node30&#45;&gt;Node4</title>
<g id="a_edge67_Node000030_Node000004"><a xlink:title=" ">
<path fill="none" stroke="#63b8ff" d="M1260.45,-120.88C1268.79,-106.62 1286.51,-77.48 1304.5,-55 1312.54,-44.96 1322.46,-34.57 1330.75,-26.37"/>
<polygon fill="#63b8ff" stroke="#63b8ff" points="1333.35,-28.72 1338.08,-19.25 1328.47,-23.7 1333.35,-28.72"/>
</a>
</g>
</g>
<!-- Node30&#45;&gt;Node5 -->
<g id="edge69_Node000030_Node000005" class="edge">
<title>Node30&#45;&gt;Node5</title>
<g id="a_edge69_Node000030_Node000005"><a xlink:title=" ">
<path fill="none" stroke="#63b8ff" d="M1187.25,-120.99C1115.58,-112.05 999.62,-97.57 899.5,-85 887.11,-83.44 873.93,-81.79 861.16,-80.18"/>
<polygon fill="#63b8ff" stroke="#63b8ff" points="861.38,-76.68 851.02,-78.9 860.5,-83.62 861.38,-76.68"/>
</a>
</g>
</g>
<!-- Node30&#45;&gt;Node6 -->
<g id="edge68_Node000030_Node000006" class="edge">
<title>Node30&#45;&gt;Node6</title>
<g id="a_edge68_Node000030_Node000006"><a xlink:title=" ">
<path fill="none" stroke="#63b8ff" d="M1185.77,-121.79C1182.98,-121.52 1180.21,-121.25 1177.5,-121 1075.19,-111.43 812.19,-122.46 716.5,-85 696.46,-77.16 697.3,-65.46 678.5,-55 652.86,-40.74 621.77,-29.53 597.27,-21.94"/>
<polygon fill="#63b8ff" stroke="#63b8ff" points="598.13,-18.54 587.54,-19.01 596.11,-25.24 598.13,-18.54"/>
</a>
</g>
</g>
<!-- Node30&#45;&gt;Node16 -->
<g id="edge56_Node000030_Node000016" class="edge">
<title>Node30&#45;&gt;Node16</title>
<g id="a_edge56_Node000030_Node000016"><a xlink:title=" ">
<path fill="none" stroke="#63b8ff" d="M1211,-120.99C1155.22,-110.33 1059.79,-92.09 1000.93,-80.83"/>
<polygon fill="#63b8ff" stroke="#63b8ff" points="1001.58,-77.39 991.1,-78.95 1000.27,-84.27 1001.58,-77.39"/>
</a>
</g>
</g>
<!-- Node30&#45;&gt;Node21 -->
<g id="edge64_Node000030_Node000021" class="edge">
<title>Node30&#45;&gt;Node21</title>
<g id="a_edge64_Node000030_Node000021"><a xlink:title=" ">
<path fill="none" stroke="#63b8ff" d="M1185.78,-121.72C1182.98,-121.47 1180.22,-121.22 1177.5,-121 894.02,-97.58 821.34,-115.22 538.5,-85 453.49,-75.92 433.14,-67.01 348.5,-55 224.88,-37.46 190.32,-41.53 63.29,-18.95"/>
<polygon fill="#63b8ff" stroke="#63b8ff" points="63.63,-15.46 53.17,-17.13 62.39,-22.35 63.63,-15.46"/>
</a>
</g>
</g>
<!-- Node31 -->
<g id="Node000031" class="node">
<title>Node31</title>
<g id="a_Node000031"><a xlink:title=" ">
<polygon fill="#e0e0e0" stroke="#999999" points="1385.5,-79.5 1313.5,-79.5 1313.5,-60.5 1385.5,-60.5 1385.5,-79.5"/>
<text text-anchor="middle" x="1349.5" y="-67.5" font-family="Helvetica,sans-Serif" font-size="10.00">sys/types.h</text>
</a>
</g>
</g>
<!-- Node30&#45;&gt;Node31 -->
<g id="edge55_Node000030_Node000031" class="edge">
<title>Node30&#45;&gt;Node31</title>
<g id="a_edge55_Node000030_Node000031"><a xlink:title=" ">
<path fill="none" stroke="#63b8ff" d="M1269.37,-120.87C1284.5,-111.45 1308.96,-96.23 1326.88,-85.08"/>
<polygon fill="#63b8ff" stroke="#63b8ff" points="1328.93,-87.92 1335.57,-79.67 1325.23,-81.98 1328.93,-87.92"/>
</a>
</g>
</g>
<!-- Node30&#45;&gt;Node32 -->
<g id="edge57_Node000030_Node000032" class="edge">
<title>Node30&#45;&gt;Node32</title>
<g id="a_edge57_Node000030_Node000032"><a xlink:title=" ">
<path fill="none" stroke="#63b8ff" d="M1325.22,-123.95C1404.21,-117.13 1536.65,-104.05 1649.5,-85 1655.22,-84.03 1661.2,-82.88 1667.09,-81.64"/>
<polygon fill="#63b8ff" stroke="#63b8ff" points="1667.84,-85.06 1676.87,-79.52 1666.36,-78.22 1667.84,-85.06"/>
</a>
</g>
</g>
<!-- Node36 -->
<g id="Node000036" class="node">
<title>Node36</title>
<g id="a_Node000036"><a xlink:title=" ">
<polygon fill="#e0e0e0" stroke="#999999" points="1585,-19 1530,-19 1530,0 1585,0 1585,-19"/>
<text text-anchor="middle" x="1557.5" y="-7" font-family="Helvetica,sans-Serif" font-size="10.00">fstream</text>
</a>
</g>
</g>
<!-- Node30&#45;&gt;Node36 -->
<g id="edge66_Node000030_Node000036" class="edge">
<title>Node30&#45;&gt;Node36</title>
<g id="a_edge66_Node000030_Node000036"><a xlink:title=" ">
<path fill="none" stroke="#63b8ff" d="M1325.01,-125.82C1424.47,-119.82 1597.54,-106.44 1616.5,-85 1625.33,-75.01 1622.45,-66.93 1616.5,-55 1609.93,-41.82 1597.4,-31.52 1585.57,-24.16"/>
<polygon fill="#63b8ff" stroke="#63b8ff" points="1587.18,-21.05 1576.77,-19.1 1583.7,-27.12 1587.18,-21.05"/>
</a>
</g>
</g>
<!-- Node32&#45;&gt;Node13 -->
<g id="edge62_Node000032_Node000013" class="edge">
<title>Node32&#45;&gt;Node13</title>
<g id="a_edge62_Node000032_Node000013"><a xlink:title=" ">
<path fill="none" stroke="#63b8ff" d="M1663.14,-61.27C1611.16,-52.68 1525.92,-37.78 1443.56,-19.09"/>
<polygon fill="#63b8ff" stroke="#63b8ff" points="1444.32,-15.68 1433.79,-16.85 1442.76,-22.5 1444.32,-15.68"/>
</a>
</g>
</g>
<!-- Node32&#45;&gt;Node19 -->
<g id="edge60_Node000032_Node000019" class="edge">
<title>Node32&#45;&gt;Node19</title>
<g id="a_edge60_Node000032_Node000019"><a xlink:title=" ">
<path fill="none" stroke="#63b8ff" d="M1699.7,-60.37C1687.05,-51.12 1666.76,-36.28 1651.59,-25.19"/>
<polygon fill="#63b8ff" stroke="#63b8ff" points="1653.49,-22.24 1643.35,-19.17 1649.36,-27.9 1653.49,-22.24"/>
</a>
</g>
</g>
<!-- Node32&#45;&gt;Node22 -->
<g id="edge61_Node000032_Node000022" class="edge">
<title>Node32&#45;&gt;Node22</title>
<g id="a_edge61_Node000032_Node000022"><a xlink:title=" ">
<path fill="none" stroke="#63b8ff" d="M1678.06,-60.49C1636.56,-49.94 1565.88,-31.96 1521.54,-20.68"/>
<polygon fill="#63b8ff" stroke="#63b8ff" points="1522.24,-17.25 1511.68,-18.18 1520.51,-24.03 1522.24,-17.25"/>
</a>
</g>
</g>
<!-- Node33 -->
<g id="Node000033" class="node">
<title>Node33</title>
<g id="a_Node000033"><a xlink:title=" ">
<polygon fill="#e0e0e0" stroke="#999999" points="1793.5,-19 1743.5,-19 1743.5,0 1793.5,0 1793.5,-19"/>
<text text-anchor="middle" x="1768.5" y="-7" font-family="Helvetica,sans-Serif" font-size="10.00">chrono</text>
</a>
</g>
</g>
<!-- Node32&#45;&gt;Node33 -->
<g id="edge58_Node000032_Node000033" class="edge">
<title>Node32&#45;&gt;Node33</title>
<g id="a_edge58_Node000032_Node000033"><a xlink:title=" ">
<path fill="none" stroke="#63b8ff" d="M1719.91,-60.37C1728.58,-51.47 1742.3,-37.39 1752.96,-26.45"/>
<polygon fill="#63b8ff" stroke="#63b8ff" points="1755.58,-28.77 1760.05,-19.17 1750.57,-23.89 1755.58,-28.77"/>
</a>
</g>
</g>
<!-- Node34 -->
<g id="Node000034" class="node">
<title>Node34</title>
<g id="a_Node000034"><a xlink:title=" ">
<polygon fill="#e0e0e0" stroke="#999999" points="1865,-19 1812,-19 1812,0 1865,0 1865,-19"/>
<text text-anchor="middle" x="1838.5" y="-7" font-family="Helvetica,sans-Serif" font-size="10.00">cstdarg</text>
</a>
</g>
</g>
<!-- Node32&#45;&gt;Node34 -->
<g id="edge59_Node000032_Node000034" class="edge">
<title>Node32&#45;&gt;Node34</title>
<g id="a_edge59_Node000032_Node000034"><a xlink:title=" ">
<path fill="none" stroke="#63b8ff" d="M1729.97,-60.49C1751.22,-50.7 1786.35,-34.52 1810.87,-23.23"/>
<polygon fill="#63b8ff" stroke="#63b8ff" points="1812.39,-26.38 1820.01,-19.02 1809.46,-20.02 1812.39,-26.38"/>
</a>
</g>
</g>
<!-- Node35 -->
<g id="Node000035" class="node">
<title>Node35</title>
<g id="a_Node000035"><a xlink:title=" ">
<polygon fill="#e0e0e0" stroke="#999999" points="1725.5,-19 1677.5,-19 1677.5,0 1725.5,0 1725.5,-19"/>
<text text-anchor="middle" x="1701.5" y="-7" font-family="Helvetica,sans-Serif" font-size="10.00">mutex</text>
</a>
</g>
</g>
<!-- Node32&#45;&gt;Node35 -->
<g id="edge63_Node000032_Node000035" class="edge">
<title>Node32&#45;&gt;Node35</title>
<g id="a_edge63_Node000032_Node000035"><a xlink:title=" ">
<path fill="none" stroke="#63b8ff" d="M1710.02,-60.37C1708.62,-52.16 1706.46,-39.54 1704.67,-29.05"/>
<polygon fill="#63b8ff" stroke="#63b8ff" points="1708.12,-28.43 1702.98,-19.17 1701.22,-29.61 1708.12,-28.43"/>
</a>
</g>
</g>
<!-- Node37&#45;&gt;Node3 -->
<g id="edge76_Node000037_Node000003" class="edge">
<title>Node37&#45;&gt;Node3</title>
<g id="a_edge76_Node000037_Node000003"><a xlink:title=" ">
<path fill="none" stroke="#63b8ff" d="M1503.08,-60.42C1457.45,-50.67 1381.04,-34.14 1315.5,-19 1315.4,-18.98 1315.3,-18.95 1315.2,-18.93"/>
<polygon fill="#63b8ff" stroke="#63b8ff" points="1316.26,-15.58 1305.72,-16.7 1314.65,-22.4 1316.26,-15.58"/>
</a>
</g>
</g>
<!-- Node37&#45;&gt;Node4 -->
<g id="edge77_Node000037_Node000004" class="edge">
<title>Node37&#45;&gt;Node4</title>
<g id="a_edge77_Node000037_Node000004"><a xlink:title=" ">
<path fill="none" stroke="#63b8ff" d="M1515,-60.49C1479.48,-49.89 1418.87,-31.8 1381.11,-20.53"/>
<polygon fill="#63b8ff" stroke="#63b8ff" points="1381.7,-17.05 1371.11,-17.55 1379.69,-23.76 1381.7,-17.05"/>
</a>
</g>
</g>
<!-- Node37&#45;&gt;Node13 -->
<g id="edge75_Node000037_Node000013" class="edge">
<title>Node37&#45;&gt;Node13</title>
<g id="a_edge75_Node000037_Node000013"><a xlink:title=" ">
<path fill="none" stroke="#63b8ff" d="M1524.31,-60.49C1502.11,-50.66 1465.38,-34.38 1439.88,-23.08"/>
<polygon fill="#63b8ff" stroke="#63b8ff" points="1441.28,-19.87 1430.72,-19.02 1438.44,-26.27 1441.28,-19.87"/>
</a>
</g>
</g>
<!-- Node37&#45;&gt;Node22 -->
<g id="edge78_Node000037_Node000022" class="edge">
<title>Node37&#45;&gt;Node22</title>
<g id="a_edge78_Node000037_Node000022"><a xlink:title=" ">
<path fill="none" stroke="#63b8ff" d="M1534.35,-60.37C1524.83,-51.38 1509.7,-37.11 1498.07,-26.14"/>
<polygon fill="#63b8ff" stroke="#63b8ff" points="1500.36,-23.48 1490.69,-19.17 1495.56,-28.58 1500.36,-23.48"/>
</a>
</g>
</g>
<!-- Node37&#45;&gt;Node35 -->
<g id="edge74_Node000037_Node000035" class="edge">
<title>Node37&#45;&gt;Node35</title>
<g id="a_edge74_Node000037_Node000035"><a xlink:title=" ">
<path fill="none" stroke="#63b8ff" d="M1566.47,-60.49C1593.39,-50.53 1638.17,-33.95 1668.73,-22.63"/>
<polygon fill="#63b8ff" stroke="#63b8ff" points="1670.34,-25.77 1678.5,-19.02 1667.9,-19.21 1670.34,-25.77"/>
</a>
</g>
</g>
<!-- Node37&#45;&gt;Node36 -->
<g id="edge73_Node000037_Node000036" class="edge">
<title>Node37&#45;&gt;Node36</title>
<g id="a_edge73_Node000037_Node000036"><a xlink:title=" ">
<path fill="none" stroke="#63b8ff" d="M1545.57,-60.37C1547.53,-52.16 1550.55,-39.54 1553.06,-29.05"/>
<polygon fill="#63b8ff" stroke="#63b8ff" points="1556.5,-29.71 1555.43,-19.17 1549.69,-28.08 1556.5,-29.71"/>
</a>
</g>
</g>
</g>
</svg>
