<?xml version="1.0" encoding="UTF-8" standalone="no"?>
<!DOCTYPE svg PUBLIC "-//W3C//DTD SVG 1.1//EN"
 "http://www.w3.org/Graphics/SVG/1.1/DTD/svg11.dtd">
<!-- Generated by graphviz version 2.43.0 (0)
 -->
<!-- Title: src/lib/patchGeneration/ppiSegmenter.cpp Pages: 1 -->
<svg width="1832pt" height="214pt"
 viewBox="0.00 0.00 1831.50 214.00" xmlns="http://www.w3.org/2000/svg" xmlns:xlink="http://www.w3.org/1999/xlink">
<g id="graph0" class="graph" transform="scale(1 1) rotate(0) translate(4 210)">
<title>src/lib/patchGeneration/ppiSegmenter.cpp</title>
<!-- Node1 -->
<g id="Node000001" class="node">
<title>Node1</title>
<g id="a_Node000001"><a xlink:title=" ">
<polygon fill="#999999" stroke="#666666" points="973.5,-206 843.5,-206 843.5,-176 973.5,-176 973.5,-206"/>
<text text-anchor="start" x="851.5" y="-194" font-family="Helvetica,sans-Serif" font-size="10.00">src/lib/patchGeneration</text>
<text text-anchor="middle" x="908.5" y="-183" font-family="Helvetica,sans-Serif" font-size="10.00">/ppiSegmenter.cpp</text>
</a>
</g>
</g>
<!-- Node2 -->
<g id="Node000002" class="node">
<title>Node2</title>
<g id="a_Node000002"><a xlink:href="ppiSegmenter_8hpp.html" target="_top" xlink:title=" ">
<polygon fill="white" stroke="#666666" points="1042,-140 937,-140 937,-121 1042,-121 1042,-140"/>
<text text-anchor="middle" x="989.5" y="-128" font-family="Helvetica,sans-Serif" font-size="10.00">ppiSegmenter.hpp</text>
</a>
</g>
</g>
<!-- Node1&#45;&gt;Node2 -->
<g id="edge1_Node000001_Node000002" class="edge">
<title>Node1&#45;&gt;Node2</title>
<g id="a_edge1_Node000001_Node000002"><a xlink:title=" ">
<path fill="none" stroke="#63b8ff" d="M928.11,-175.84C940.47,-166.91 956.4,-155.41 968.93,-146.35"/>
<polygon fill="#63b8ff" stroke="#63b8ff" points="971.3,-148.96 977.36,-140.27 967.21,-143.28 971.3,-148.96"/>
</a>
</g>
</g>
<!-- Node4 -->
<g id="Node000004" class="node">
<title>Node4</title>
<g id="a_Node000004"><a xlink:title=" ">
<polygon fill="#e0e0e0" stroke="#999999" points="782,-19 735,-19 735,0 782,0 782,-19"/>
<text text-anchor="middle" x="758.5" y="-7" font-family="Helvetica,sans-Serif" font-size="10.00">vector</text>
</a>
</g>
</g>
<!-- Node1&#45;&gt;Node4 -->
<g id="edge37_Node000001_Node000004" class="edge">
<title>Node1&#45;&gt;Node4</title>
<g id="a_edge37_Node000001_Node000004"><a xlink:title=" ">
<path fill="none" stroke="#63b8ff" d="M896.73,-175.91C869.35,-143.15 801.51,-61.97 772.27,-26.98"/>
<polygon fill="#63b8ff" stroke="#63b8ff" points="774.81,-24.56 765.72,-19.13 769.44,-29.05 774.81,-24.56"/>
</a>
</g>
</g>
<!-- Node5 -->
<g id="Node000005" class="node">
<title>Node5</title>
<g id="a_Node000005"><a xlink:href="robin__hood_8h.html" target="_top" xlink:title=" ">
<polygon fill="white" stroke="#666666" points="547,-85 422,-85 422,-55 547,-55 547,-85"/>
<text text-anchor="start" x="430" y="-73" font-family="Helvetica,sans-Serif" font-size="10.00">patchGeneration/robin</text>
<text text-anchor="middle" x="484.5" y="-62" font-family="Helvetica,sans-Serif" font-size="10.00">_hood.h</text>
</a>
</g>
</g>
<!-- Node1&#45;&gt;Node5 -->
<g id="edge39_Node000001_Node000005" class="edge">
<title>Node1&#45;&gt;Node5</title>
<g id="a_edge39_Node000001_Node000005"><a xlink:title=" ">
<path fill="none" stroke="#63b8ff" d="M843.18,-185.04C757.15,-177.75 611.1,-162.52 562.5,-140 538.89,-129.06 517.18,-108.62 502.69,-92.81"/>
<polygon fill="#63b8ff" stroke="#63b8ff" points="505.05,-90.2 495.8,-85.04 499.81,-94.84 505.05,-90.2"/>
</a>
</g>
</g>
<!-- Node6 -->
<g id="Node000006" class="node">
<title>Node6</title>
<g id="a_Node000006"><a xlink:title=" ">
<polygon fill="#e0e0e0" stroke="#999999" points="516.5,-19 452.5,-19 452.5,0 516.5,0 516.5,-19"/>
<text text-anchor="middle" x="484.5" y="-7" font-family="Helvetica,sans-Serif" font-size="10.00">algorithm</text>
</a>
</g>
</g>
<!-- Node1&#45;&gt;Node6 -->
<g id="edge33_Node000001_Node000006" class="edge">
<title>Node1&#45;&gt;Node6</title>
<g id="a_edge33_Node000001_Node000006"><a xlink:title=" ">
<path fill="none" stroke="#63b8ff" d="M843.26,-184.97C792.36,-179.13 720.9,-166.61 663.5,-140 608.08,-114.31 605.45,-90.16 555.5,-55 539.98,-44.08 521.85,-32.73 507.79,-24.23"/>
<polygon fill="#63b8ff" stroke="#63b8ff" points="509.59,-21.23 499.21,-19.09 505.99,-27.23 509.59,-21.23"/>
</a>
</g>
</g>
<!-- Node11 -->
<g id="Node000011" class="node">
<title>Node11</title>
<g id="a_Node000011"><a xlink:title=" ">
<polygon fill="#e0e0e0" stroke="#999999" points="592.5,-19 534.5,-19 534.5,0 592.5,0 592.5,-19"/>
<text text-anchor="middle" x="563.5" y="-7" font-family="Helvetica,sans-Serif" font-size="10.00">memory</text>
</a>
</g>
</g>
<!-- Node1&#45;&gt;Node11 -->
<g id="edge38_Node000001_Node000011" class="edge">
<title>Node1&#45;&gt;Node11</title>
<g id="a_edge38_Node000001_Node000011"><a xlink:title=" ">
<path fill="none" stroke="#63b8ff" d="M843.39,-184.15C799.18,-177.99 740.59,-165.45 694.5,-140 642.19,-111.11 596.44,-55.39 575.55,-27.41"/>
<polygon fill="#63b8ff" stroke="#63b8ff" points="578.18,-25.07 569.45,-19.06 572.53,-29.2 578.18,-25.07"/>
</a>
</g>
</g>
<!-- Node13 -->
<g id="Node000013" class="node">
<title>Node13</title>
<g id="a_Node000013"><a xlink:title=" ">
<polygon fill="#e0e0e0" stroke="#999999" points="716.5,-19 672.5,-19 672.5,0 716.5,0 716.5,-19"/>
<text text-anchor="middle" x="694.5" y="-7" font-family="Helvetica,sans-Serif" font-size="10.00">string</text>
</a>
</g>
</g>
<!-- Node1&#45;&gt;Node13 -->
<g id="edge36_Node000001_Node000013" class="edge">
<title>Node1&#45;&gt;Node13</title>
<g id="a_edge36_Node000001_Node000013"><a xlink:title=" ">
<path fill="none" stroke="#63b8ff" d="M843.43,-181.44C793.05,-173.41 728.99,-159.69 711.5,-140 684.1,-109.16 687.06,-56.75 691.06,-29"/>
<polygon fill="#63b8ff" stroke="#63b8ff" points="694.53,-29.5 692.7,-19.06 687.62,-28.36 694.53,-29.5"/>
</a>
</g>
</g>
<!-- Node16 -->
<g id="Node000016" class="node">
<title>Node16</title>
<g id="a_Node000016"><a xlink:href="utils_8hpp.html" target="_top" xlink:title=" ">
<polygon fill="white" stroke="#666666" points="1257,-79.5 1174,-79.5 1174,-60.5 1257,-60.5 1257,-79.5"/>
<text text-anchor="middle" x="1215.5" y="-67.5" font-family="Helvetica,sans-Serif" font-size="10.00">utils/utils.hpp</text>
</a>
</g>
</g>
<!-- Node1&#45;&gt;Node16 -->
<g id="edge48_Node000001_Node000016" class="edge">
<title>Node1&#45;&gt;Node16</title>
<g id="a_edge48_Node000001_Node000016"><a xlink:title=" ">
<path fill="none" stroke="#63b8ff" d="M973.79,-183.3C1040.33,-175.47 1138.08,-160.86 1169.5,-140 1188,-127.72 1200.9,-105.2 1208.24,-89.22"/>
<polygon fill="#63b8ff" stroke="#63b8ff" points="1211.54,-90.42 1212.26,-79.85 1205.1,-87.66 1211.54,-90.42"/>
</a>
</g>
</g>
<!-- Node20 -->
<g id="Node000020" class="node">
<title>Node20</title>
<g id="a_Node000020"><a xlink:href="uvgvpcc_8hpp.html" target="_top" xlink:title=" ">
<polygon fill="white" stroke="#666666" points="1050.5,-79.5 928.5,-79.5 928.5,-60.5 1050.5,-60.5 1050.5,-79.5"/>
<text text-anchor="middle" x="989.5" y="-67.5" font-family="Helvetica,sans-Serif" font-size="10.00">uvgvpcc/uvgvpcc.hpp</text>
</a>
</g>
</g>
<!-- Node1&#45;&gt;Node20 -->
<g id="edge47_Node000001_Node000020" class="edge">
<title>Node1&#45;&gt;Node20</title>
<g id="a_edge47_Node000001_Node000020"><a xlink:title=" ">
<path fill="none" stroke="#63b8ff" d="M910.11,-175.74C912.32,-161.02 917.37,-137.87 928.5,-121 938.12,-106.42 953.3,-93.95 966.11,-85.12"/>
<polygon fill="#63b8ff" stroke="#63b8ff" points="968.07,-88.02 974.5,-79.6 964.22,-82.17 968.07,-88.02"/>
</a>
</g>
</g>
<!-- Node21 -->
<g id="Node000021" class="node">
<title>Node21</title>
<g id="a_Node000021"><a xlink:title=" ">
<polygon fill="#e0e0e0" stroke="#999999" points="1263,-19 1210,-19 1210,0 1263,0 1263,-19"/>
<text text-anchor="middle" x="1236.5" y="-7" font-family="Helvetica,sans-Serif" font-size="10.00">cstddef</text>
</a>
</g>
</g>
<!-- Node1&#45;&gt;Node21 -->
<g id="edge34_Node000001_Node000021" class="edge">
<title>Node1&#45;&gt;Node21</title>
<g id="a_edge34_Node000001_Node000021"><a xlink:title=" ">
<path fill="none" stroke="#63b8ff" d="M960.72,-175.93C988.53,-167.42 1022.82,-155.24 1051.5,-140 1107.31,-110.34 1113.35,-90.7 1165.5,-55 1181.26,-44.21 1199.52,-32.79 1213.58,-24.22"/>
<polygon fill="#63b8ff" stroke="#63b8ff" points="1215.4,-27.21 1222.14,-19.03 1211.77,-21.22 1215.4,-27.21"/>
</a>
</g>
</g>
<!-- Node27 -->
<g id="Node000027" class="node">
<title>Node27</title>
<g id="a_Node000027"><a xlink:title=" ">
<polygon fill="#e0e0e0" stroke="#999999" points="1160,-140 1107,-140 1107,-121 1160,-121 1160,-140"/>
<text text-anchor="middle" x="1133.5" y="-128" font-family="Helvetica,sans-Serif" font-size="10.00">iterator</text>
</a>
</g>
</g>
<!-- Node1&#45;&gt;Node27 -->
<g id="edge35_Node000001_Node000027" class="edge">
<title>Node1&#45;&gt;Node27</title>
<g id="a_edge35_Node000001_Node000027"><a xlink:title=" ">
<path fill="none" stroke="#63b8ff" d="M962.39,-175.99C1004.1,-165.14 1060.73,-150.42 1097.2,-140.94"/>
<polygon fill="#63b8ff" stroke="#63b8ff" points="1098.12,-144.31 1106.92,-138.41 1096.36,-137.54 1098.12,-144.31"/>
</a>
</g>
</g>
<!-- Node28 -->
<g id="Node000028" class="node">
<title>Node28</title>
<g id="a_Node000028"><a xlink:href="log_8hpp.html" target="_top" xlink:title=" ">
<polygon fill="white" stroke="#666666" points="1576.5,-79.5 1480.5,-79.5 1480.5,-60.5 1576.5,-60.5 1576.5,-79.5"/>
<text text-anchor="middle" x="1528.5" y="-67.5" font-family="Helvetica,sans-Serif" font-size="10.00">uvgvpcc/log.hpp</text>
</a>
</g>
</g>
<!-- Node1&#45;&gt;Node28 -->
<g id="edge40_Node000001_Node000028" class="edge">
<title>Node1&#45;&gt;Node28</title>
<g id="a_edge40_Node000001_Node000028"><a xlink:title=" ">
<path fill="none" stroke="#63b8ff" d="M973.52,-188.81C1063.13,-185.84 1228.98,-175.54 1365.5,-140 1416.44,-126.74 1472.18,-100.33 1503.5,-84.31"/>
<polygon fill="#63b8ff" stroke="#63b8ff" points="1505.13,-87.41 1512.4,-79.7 1501.91,-81.19 1505.13,-87.41"/>
</a>
</g>
</g>
<!-- Node32 -->
<g id="Node000032" class="node">
<title>Node32</title>
<g id="a_Node000032"><a xlink:href="utilsPatchGeneration_8hpp.html" target="_top" xlink:title=" ">
<polygon fill="white" stroke="#666666" points="1356,-140 1217,-140 1217,-121 1356,-121 1356,-140"/>
<text text-anchor="middle" x="1286.5" y="-128" font-family="Helvetica,sans-Serif" font-size="10.00">utilsPatchGeneration.hpp</text>
</a>
</g>
</g>
<!-- Node1&#45;&gt;Node32 -->
<g id="edge49_Node000001_Node000032" class="edge">
<title>Node1&#45;&gt;Node32</title>
<g id="a_edge49_Node000001_Node000032"><a xlink:title=" ">
<path fill="none" stroke="#63b8ff" d="M973.91,-179.88C1043.29,-169.14 1152.25,-152.28 1221.48,-141.56"/>
<polygon fill="#63b8ff" stroke="#63b8ff" points="1222.05,-145.02 1231.4,-140.03 1220.98,-138.1 1222.05,-145.02"/>
</a>
</g>
</g>
<!-- Node34 -->
<g id="Node000034" class="node">
<title>Node34</title>
<g id="a_Node000034"><a xlink:href="fileExport_8hpp.html" target="_top" xlink:title=" ">
<polygon fill="white" stroke="#666666" points="828.5,-140 720.5,-140 720.5,-121 828.5,-121 828.5,-140"/>
<text text-anchor="middle" x="774.5" y="-128" font-family="Helvetica,sans-Serif" font-size="10.00">utils/fileExport.hpp</text>
</a>
</g>
</g>
<!-- Node1&#45;&gt;Node34 -->
<g id="edge56_Node000001_Node000034" class="edge">
<title>Node1&#45;&gt;Node34</title>
<g id="a_edge56_Node000001_Node000034"><a xlink:title=" ">
<path fill="none" stroke="#63b8ff" d="M876.4,-175.99C854.25,-166.31 825.02,-153.56 803.55,-144.18"/>
<polygon fill="#63b8ff" stroke="#63b8ff" points="804.85,-140.93 794.29,-140.14 802.05,-147.35 804.85,-140.93"/>
</a>
</g>
</g>
<!-- Node3 -->
<g id="Node000003" class="node">
<title>Node3</title>
<g id="a_Node000003"><a xlink:title=" ">
<polygon fill="#e0e0e0" stroke="#999999" points="1465.5,-19 1415.5,-19 1415.5,0 1465.5,0 1465.5,-19"/>
<text text-anchor="middle" x="1440.5" y="-7" font-family="Helvetica,sans-Serif" font-size="10.00">cstdint</text>
</a>
</g>
</g>
<!-- Node2&#45;&gt;Node3 -->
<g id="edge2_Node000002_Node000003" class="edge">
<title>Node2&#45;&gt;Node3</title>
<g id="a_edge2_Node000002_Node000003"><a xlink:title=" ">
<path fill="none" stroke="#63b8ff" d="M1042.22,-124.16C1110.98,-116.65 1227.15,-101.99 1266.5,-85 1286.58,-76.33 1286.17,-65.23 1305.5,-55 1322.99,-45.74 1371.57,-30.61 1405.4,-20.61"/>
<polygon fill="#63b8ff" stroke="#63b8ff" points="1406.77,-23.85 1415.38,-17.68 1404.8,-17.14 1406.77,-23.85"/>
</a>
</g>
</g>
<!-- Node2&#45;&gt;Node4 -->
<g id="edge3_Node000002_Node000004" class="edge">
<title>Node2&#45;&gt;Node4</title>
<g id="a_edge3_Node000002_Node000004"><a xlink:title=" ">
<path fill="none" stroke="#63b8ff" d="M966.95,-120.9C945.77,-112.55 913.41,-99.12 886.5,-85 864.22,-73.31 860.17,-67.79 838.5,-55 820.36,-44.3 799.57,-32.75 783.73,-24.1"/>
<polygon fill="#63b8ff" stroke="#63b8ff" points="785.03,-20.83 774.57,-19.13 781.69,-26.98 785.03,-20.83"/>
</a>
</g>
</g>
<!-- Node2&#45;&gt;Node5 -->
<g id="edge4_Node000002_Node000005" class="edge">
<title>Node2&#45;&gt;Node5</title>
<g id="a_edge4_Node000002_Node000005"><a xlink:title=" ">
<path fill="none" stroke="#63b8ff" d="M936.89,-123.41C846.18,-112.9 660.23,-91.36 557.21,-79.42"/>
<polygon fill="#63b8ff" stroke="#63b8ff" points="557.54,-75.94 547.21,-78.26 556.74,-82.89 557.54,-75.94"/>
</a>
</g>
</g>
<!-- Node2&#45;&gt;Node16 -->
<g id="edge15_Node000002_Node000016" class="edge">
<title>Node2&#45;&gt;Node16</title>
<g id="a_edge15_Node000002_Node000016"><a xlink:title=" ">
<path fill="none" stroke="#63b8ff" d="M1022.36,-120.99C1062.11,-110.7 1129.13,-93.36 1172.83,-82.04"/>
<polygon fill="#63b8ff" stroke="#63b8ff" points="1173.79,-85.41 1182.6,-79.52 1172.04,-78.63 1173.79,-85.41"/>
</a>
</g>
</g>
<!-- Node2&#45;&gt;Node20 -->
<g id="edge21_Node000002_Node000020" class="edge">
<title>Node2&#45;&gt;Node20</title>
<g id="a_edge21_Node000002_Node000020"><a xlink:title=" ">
<path fill="none" stroke="#63b8ff" d="M989.5,-120.87C989.5,-112.75 989.5,-100.31 989.5,-89.89"/>
<polygon fill="#63b8ff" stroke="#63b8ff" points="993,-89.67 989.5,-79.67 986,-89.67 993,-89.67"/>
</a>
</g>
</g>
<!-- Node5&#45;&gt;Node6 -->
<g id="edge5_Node000005_Node000006" class="edge">
<title>Node5&#45;&gt;Node6</title>
<g id="a_edge5_Node000005_Node000006"><a xlink:title=" ">
<path fill="none" stroke="#63b8ff" d="M484.5,-54.84C484.5,-47.21 484.5,-37.7 484.5,-29.45"/>
<polygon fill="#63b8ff" stroke="#63b8ff" points="488,-29.27 484.5,-19.27 481,-29.27 488,-29.27"/>
</a>
</g>
</g>
<!-- Node7 -->
<g id="Node000007" class="node">
<title>Node7</title>
<g id="a_Node000007"><a xlink:title=" ">
<polygon fill="#e0e0e0" stroke="#999999" points="49,-19 0,-19 0,0 49,0 49,-19"/>
<text text-anchor="middle" x="24.5" y="-7" font-family="Helvetica,sans-Serif" font-size="10.00">cstdlib</text>
</a>
</g>
</g>
<!-- Node5&#45;&gt;Node7 -->
<g id="edge6_Node000005_Node000007" class="edge">
<title>Node5&#45;&gt;Node7</title>
<g id="a_edge6_Node000005_Node000007"><a xlink:title=" ">
<path fill="none" stroke="#63b8ff" d="M421.69,-64.16C340.29,-57.33 193.87,-43.13 59.38,-18.93"/>
<polygon fill="#63b8ff" stroke="#63b8ff" points="59.77,-15.44 49.3,-17.09 58.51,-22.33 59.77,-15.44"/>
</a>
</g>
</g>
<!-- Node8 -->
<g id="Node000008" class="node">
<title>Node8</title>
<g id="a_Node000008"><a xlink:title=" ">
<polygon fill="#e0e0e0" stroke="#999999" points="117.5,-19 67.5,-19 67.5,0 117.5,0 117.5,-19"/>
<text text-anchor="middle" x="92.5" y="-7" font-family="Helvetica,sans-Serif" font-size="10.00">cstring</text>
</a>
</g>
</g>
<!-- Node5&#45;&gt;Node8 -->
<g id="edge7_Node000005_Node000008" class="edge">
<title>Node5&#45;&gt;Node8</title>
<g id="a_edge7_Node000005_Node000008"><a xlink:title=" ">
<path fill="none" stroke="#63b8ff" d="M421.76,-62.28C352.12,-54.37 236.26,-39.84 127.51,-19.02"/>
<polygon fill="#63b8ff" stroke="#63b8ff" points="128.17,-15.58 117.68,-17.11 126.84,-22.45 128.17,-15.58"/>
</a>
</g>
</g>
<!-- Node9 -->
<g id="Node000009" class="node">
<title>Node9</title>
<g id="a_Node000009"><a xlink:title=" ">
<polygon fill="#e0e0e0" stroke="#999999" points="201,-19 136,-19 136,0 201,0 201,-19"/>
<text text-anchor="middle" x="168.5" y="-7" font-family="Helvetica,sans-Serif" font-size="10.00">functional</text>
</a>
</g>
</g>
<!-- Node5&#45;&gt;Node9 -->
<g id="edge8_Node000005_Node000009" class="edge">
<title>Node5&#45;&gt;Node9</title>
<g id="a_edge8_Node000005_Node000009"><a xlink:title=" ">
<path fill="none" stroke="#63b8ff" d="M421.89,-58.07C368.39,-48.62 289.09,-34.38 211.15,-19.29"/>
<polygon fill="#63b8ff" stroke="#63b8ff" points="211.64,-15.82 201.16,-17.35 210.31,-22.69 211.64,-15.82"/>
</a>
</g>
</g>
<!-- Node10 -->
<g id="Node000010" class="node">
<title>Node10</title>
<g id="a_Node000010"><a xlink:title=" ">
<polygon fill="#e0e0e0" stroke="#999999" points="654.5,-19 610.5,-19 610.5,0 654.5,0 654.5,-19"/>
<text text-anchor="middle" x="632.5" y="-7" font-family="Helvetica,sans-Serif" font-size="10.00">limits</text>
</a>
</g>
</g>
<!-- Node5&#45;&gt;Node10 -->
<g id="edge9_Node000005_Node000010" class="edge">
<title>Node5&#45;&gt;Node10</title>
<g id="a_edge9_Node000005_Node000010"><a xlink:title=" ">
<path fill="none" stroke="#63b8ff" d="M519.95,-54.99C544.64,-45.23 577.28,-32.33 601.05,-22.93"/>
<polygon fill="#63b8ff" stroke="#63b8ff" points="602.63,-26.07 610.64,-19.14 600.06,-19.56 602.63,-26.07"/>
</a>
</g>
</g>
<!-- Node5&#45;&gt;Node11 -->
<g id="edge10_Node000005_Node000011" class="edge">
<title>Node5&#45;&gt;Node11</title>
<g id="a_edge10_Node000005_Node000011"><a xlink:title=" ">
<path fill="none" stroke="#63b8ff" d="M503.62,-54.84C515.68,-45.91 531.21,-34.41 543.44,-25.35"/>
<polygon fill="#63b8ff" stroke="#63b8ff" points="545.71,-28.03 551.66,-19.27 541.54,-22.4 545.71,-28.03"/>
</a>
</g>
</g>
<!-- Node12 -->
<g id="Node000012" class="node">
<title>Node12</title>
<g id="a_Node000012"><a xlink:title=" ">
<polygon fill="#e0e0e0" stroke="#999999" points="284,-19 219,-19 219,0 284,0 284,-19"/>
<text text-anchor="middle" x="251.5" y="-7" font-family="Helvetica,sans-Serif" font-size="10.00">stdexcept</text>
</a>
</g>
</g>
<!-- Node5&#45;&gt;Node12 -->
<g id="edge11_Node000005_Node000012" class="edge">
<title>Node5&#45;&gt;Node12</title>
<g id="a_edge11_Node000005_Node000012"><a xlink:title=" ">
<path fill="none" stroke="#63b8ff" d="M428.69,-54.99C387.47,-44.64 332.17,-30.75 294.38,-21.27"/>
<polygon fill="#63b8ff" stroke="#63b8ff" points="294.77,-17.75 284.22,-18.71 293.06,-24.54 294.77,-17.75"/>
</a>
</g>
</g>
<!-- Node5&#45;&gt;Node13 -->
<g id="edge12_Node000005_Node000013" class="edge">
<title>Node5&#45;&gt;Node13</title>
<g id="a_edge12_Node000005_Node000013"><a xlink:title=" ">
<path fill="none" stroke="#63b8ff" d="M534.8,-54.99C574.5,-43.93 628.67,-28.84 662.61,-19.38"/>
<polygon fill="#63b8ff" stroke="#63b8ff" points="663.76,-22.7 672.45,-16.64 661.88,-15.95 663.76,-22.7"/>
</a>
</g>
</g>
<!-- Node14 -->
<g id="Node000014" class="node">
<title>Node14</title>
<g id="a_Node000014"><a xlink:title=" ">
<polygon fill="#e0e0e0" stroke="#999999" points="371,-19 302,-19 302,0 371,0 371,-19"/>
<text text-anchor="middle" x="336.5" y="-7" font-family="Helvetica,sans-Serif" font-size="10.00">type_traits</text>
</a>
</g>
</g>
<!-- Node5&#45;&gt;Node14 -->
<g id="edge13_Node000005_Node000014" class="edge">
<title>Node5&#45;&gt;Node14</title>
<g id="a_edge13_Node000005_Node000014"><a xlink:title=" ">
<path fill="none" stroke="#63b8ff" d="M449.05,-54.99C424.36,-45.23 391.72,-32.33 367.95,-22.93"/>
<polygon fill="#63b8ff" stroke="#63b8ff" points="368.94,-19.56 358.36,-19.14 366.37,-26.07 368.94,-19.56"/>
</a>
</g>
</g>
<!-- Node15 -->
<g id="Node000015" class="node">
<title>Node15</title>
<g id="a_Node000015"><a xlink:title=" ">
<polygon fill="#e0e0e0" stroke="#999999" points="434,-19 389,-19 389,0 434,0 434,-19"/>
<text text-anchor="middle" x="411.5" y="-7" font-family="Helvetica,sans-Serif" font-size="10.00">utility</text>
</a>
</g>
</g>
<!-- Node5&#45;&gt;Node15 -->
<g id="edge14_Node000005_Node000015" class="edge">
<title>Node5&#45;&gt;Node15</title>
<g id="a_edge14_Node000005_Node000015"><a xlink:title=" ">
<path fill="none" stroke="#63b8ff" d="M466.83,-54.84C455.8,-46 441.61,-34.63 430.37,-25.62"/>
<polygon fill="#63b8ff" stroke="#63b8ff" points="432.43,-22.79 422.44,-19.27 428.05,-28.25 432.43,-22.79"/>
</a>
</g>
</g>
<!-- Node16&#45;&gt;Node3 -->
<g id="edge17_Node000016_Node000003" class="edge">
<title>Node16&#45;&gt;Node3</title>
<g id="a_edge17_Node000016_Node000003"><a xlink:title=" ">
<path fill="none" stroke="#63b8ff" d="M1248.22,-60.49C1290.19,-49.58 1362.7,-30.73 1405.67,-19.56"/>
<polygon fill="#63b8ff" stroke="#63b8ff" points="1406.6,-22.93 1415.4,-17.03 1404.84,-16.15 1406.6,-22.93"/>
</a>
</g>
</g>
<!-- Node16&#45;&gt;Node10 -->
<g id="edge18_Node000016_Node000010" class="edge">
<title>Node16&#45;&gt;Node10</title>
<g id="a_edge18_Node000016_Node000010"><a xlink:title=" ">
<path fill="none" stroke="#63b8ff" d="M1173.83,-65.25C1056.31,-54.67 727.16,-25.02 664.74,-18.32"/>
<polygon fill="#63b8ff" stroke="#63b8ff" points="665.09,-14.84 654.74,-17.11 664.25,-21.79 665.09,-14.84"/>
</a>
</g>
</g>
<!-- Node17 -->
<g id="Node000017" class="node">
<title>Node17</title>
<g id="a_Node000017"><a xlink:title=" ">
<polygon fill="#e0e0e0" stroke="#999999" points="1397.5,-19 1355.5,-19 1355.5,0 1397.5,0 1397.5,-19"/>
<text text-anchor="middle" x="1376.5" y="-7" font-family="Helvetica,sans-Serif" font-size="10.00">array</text>
</a>
</g>
</g>
<!-- Node16&#45;&gt;Node17 -->
<g id="edge16_Node000016_Node000017" class="edge">
<title>Node16&#45;&gt;Node17</title>
<g id="a_edge16_Node000016_Node000017"><a xlink:title=" ">
<path fill="none" stroke="#63b8ff" d="M1238.91,-60.49C1267.16,-50.23 1314.74,-32.94 1345.88,-21.62"/>
<polygon fill="#63b8ff" stroke="#63b8ff" points="1347.17,-24.88 1355.37,-18.18 1344.78,-18.3 1347.17,-24.88"/>
</a>
</g>
</g>
<!-- Node18 -->
<g id="Node000018" class="node">
<title>Node18</title>
<g id="a_Node000018"><a xlink:title=" ">
<polygon fill="#e0e0e0" stroke="#999999" points="1337.5,-19 1281.5,-19 1281.5,0 1337.5,0 1337.5,-19"/>
<text text-anchor="middle" x="1309.5" y="-7" font-family="Helvetica,sans-Serif" font-size="10.00">sstream</text>
</a>
</g>
</g>
<!-- Node16&#45;&gt;Node18 -->
<g id="edge19_Node000016_Node000018" class="edge">
<title>Node16&#45;&gt;Node18</title>
<g id="a_edge19_Node000016_Node000018"><a xlink:title=" ">
<path fill="none" stroke="#63b8ff" d="M1229.37,-60.37C1244.5,-50.95 1268.96,-35.73 1286.88,-24.58"/>
<polygon fill="#63b8ff" stroke="#63b8ff" points="1288.93,-27.42 1295.57,-19.17 1285.23,-21.48 1288.93,-27.42"/>
</a>
</g>
</g>
<!-- Node19 -->
<g id="Node000019" class="node">
<title>Node19</title>
<g id="a_Node000019"><a xlink:title=" ">
<polygon fill="#e0e0e0" stroke="#999999" points="1617.5,-19 1561.5,-19 1561.5,0 1617.5,0 1617.5,-19"/>
<text text-anchor="middle" x="1589.5" y="-7" font-family="Helvetica,sans-Serif" font-size="10.00">iomanip</text>
</a>
</g>
</g>
<!-- Node16&#45;&gt;Node19 -->
<g id="edge20_Node000016_Node000019" class="edge">
<title>Node16&#45;&gt;Node19</title>
<g id="a_edge20_Node000016_Node000019"><a xlink:title=" ">
<path fill="none" stroke="#63b8ff" d="M1257.16,-62.43C1272.37,-60.06 1289.71,-57.38 1305.5,-55 1411.99,-38.96 1441.74,-39.39 1551.14,-19.13"/>
<polygon fill="#63b8ff" stroke="#63b8ff" points="1552.08,-22.51 1561.27,-17.23 1550.79,-15.63 1552.08,-22.51"/>
</a>
</g>
</g>
<!-- Node20&#45;&gt;Node3 -->
<g id="edge23_Node000020_Node000003" class="edge">
<title>Node20&#45;&gt;Node3</title>
<g id="a_edge23_Node000020_Node000003"><a xlink:title=" ">
<path fill="none" stroke="#63b8ff" d="M1050.63,-64.09C1130.23,-57.17 1273.79,-42.84 1405.46,-18.98"/>
<polygon fill="#63b8ff" stroke="#63b8ff" points="1406.12,-22.41 1415.33,-17.17 1404.86,-15.53 1406.12,-22.41"/>
</a>
</g>
</g>
<!-- Node20&#45;&gt;Node4 -->
<g id="edge30_Node000020_Node000004" class="edge">
<title>Node20&#45;&gt;Node4</title>
<g id="a_edge30_Node000020_Node000004"><a xlink:title=" ">
<path fill="none" stroke="#63b8ff" d="M955.5,-60.47C917.98,-51.04 855.52,-35.31 792.07,-19.14"/>
<polygon fill="#63b8ff" stroke="#63b8ff" points="792.84,-15.72 782.29,-16.64 791.11,-22.5 792.84,-15.72"/>
</a>
</g>
</g>
<!-- Node20&#45;&gt;Node11 -->
<g id="edge25_Node000020_Node000011" class="edge">
<title>Node20&#45;&gt;Node11</title>
<g id="a_edge25_Node000020_Node000011"><a xlink:title=" ">
<path fill="none" stroke="#63b8ff" d="M928.42,-62.88C853.85,-55.03 723.75,-40.05 603.06,-19.14"/>
<polygon fill="#63b8ff" stroke="#63b8ff" points="603.36,-15.64 592.9,-17.36 602.15,-22.53 603.36,-15.64"/>
</a>
</g>
</g>
<!-- Node20&#45;&gt;Node13 -->
<g id="edge29_Node000020_Node000013" class="edge">
<title>Node20&#45;&gt;Node13</title>
<g id="a_edge29_Node000020_Node000013"><a xlink:title=" ">
<path fill="none" stroke="#63b8ff" d="M938.86,-60.48C887.91,-51.67 806.9,-36.97 727.06,-18.98"/>
<polygon fill="#63b8ff" stroke="#63b8ff" points="727.36,-15.45 716.83,-16.65 725.8,-22.28 727.36,-15.45"/>
</a>
</g>
</g>
<!-- Node20&#45;&gt;Node18 -->
<g id="edge28_Node000020_Node000018" class="edge">
<title>Node20&#45;&gt;Node18</title>
<g id="a_edge28_Node000020_Node000018"><a xlink:title=" ">
<path fill="none" stroke="#63b8ff" d="M1042.33,-60.49C1097.18,-51.47 1185.68,-36.4 1271.36,-19.15"/>
<polygon fill="#63b8ff" stroke="#63b8ff" points="1272.14,-22.56 1281.25,-17.15 1270.75,-15.7 1272.14,-22.56"/>
</a>
</g>
</g>
<!-- Node20&#45;&gt;Node21 -->
<g id="edge22_Node000020_Node000021" class="edge">
<title>Node20&#45;&gt;Node21</title>
<g id="a_edge22_Node000020_Node000021"><a xlink:title=" ">
<path fill="none" stroke="#63b8ff" d="M1025.91,-60.49C1066.17,-51.06 1133.24,-35.31 1199.92,-19.37"/>
<polygon fill="#63b8ff" stroke="#63b8ff" points="1200.84,-22.75 1209.75,-17.02 1199.21,-15.94 1200.84,-22.75"/>
</a>
</g>
</g>
<!-- Node22 -->
<g id="Node000022" class="node">
<title>Node22</title>
<g id="a_Node000022"><a xlink:title=" ">
<polygon fill="#e0e0e0" stroke="#999999" points="1543.5,-19 1483.5,-19 1483.5,0 1543.5,0 1543.5,-19"/>
<text text-anchor="middle" x="1513.5" y="-7" font-family="Helvetica,sans-Serif" font-size="10.00">iostream</text>
</a>
</g>
</g>
<!-- Node20&#45;&gt;Node22 -->
<g id="edge24_Node000020_Node000022" class="edge">
<title>Node20&#45;&gt;Node22</title>
<g id="a_edge24_Node000020_Node000022"><a xlink:title=" ">
<path fill="none" stroke="#63b8ff" d="M1050.67,-63.56C1158.25,-53.84 1378.19,-33.33 1473.43,-18.97"/>
<polygon fill="#63b8ff" stroke="#63b8ff" points="1473.99,-22.42 1483.33,-17.42 1472.91,-15.51 1473.99,-22.42"/>
</a>
</g>
</g>
<!-- Node23 -->
<g id="Node000023" class="node">
<title>Node23</title>
<g id="a_Node000023"><a xlink:title=" ">
<polygon fill="#e0e0e0" stroke="#999999" points="847,-19 800,-19 800,0 847,0 847,-19"/>
<text text-anchor="middle" x="823.5" y="-7" font-family="Helvetica,sans-Serif" font-size="10.00">queue</text>
</a>
</g>
</g>
<!-- Node20&#45;&gt;Node23 -->
<g id="edge26_Node000020_Node000023" class="edge">
<title>Node20&#45;&gt;Node23</title>
<g id="a_edge26_Node000020_Node000023"><a xlink:title=" ">
<path fill="none" stroke="#63b8ff" d="M965.36,-60.49C936.8,-50.43 889.08,-33.61 856.96,-22.29"/>
<polygon fill="#63b8ff" stroke="#63b8ff" points="857.72,-18.85 847.13,-18.83 855.4,-25.45 857.72,-18.85"/>
</a>
</g>
</g>
<!-- Node24 -->
<g id="Node000024" class="node">
<title>Node24</title>
<g id="a_Node000024"><a xlink:title=" ">
<polygon fill="#e0e0e0" stroke="#999999" points="936,-19 865,-19 865,0 936,0 936,-19"/>
<text text-anchor="middle" x="900.5" y="-7" font-family="Helvetica,sans-Serif" font-size="10.00">semaphore</text>
</a>
</g>
</g>
<!-- Node20&#45;&gt;Node24 -->
<g id="edge27_Node000020_Node000024" class="edge">
<title>Node20&#45;&gt;Node24</title>
<g id="a_edge27_Node000020_Node000024"><a xlink:title=" ">
<path fill="none" stroke="#63b8ff" d="M976.37,-60.37C962.17,-51.04 939.3,-36.01 922.38,-24.88"/>
<polygon fill="#63b8ff" stroke="#63b8ff" points="923.97,-21.74 913.69,-19.17 920.12,-27.58 923.97,-21.74"/>
</a>
</g>
</g>
<!-- Node25 -->
<g id="Node000025" class="node">
<title>Node25</title>
<g id="a_Node000025"><a xlink:title=" ">
<polygon fill="#e0e0e0" stroke="#999999" points="1046.5,-19 954.5,-19 954.5,0 1046.5,0 1046.5,-19"/>
<text text-anchor="middle" x="1000.5" y="-7" font-family="Helvetica,sans-Serif" font-size="10.00">../utils/utils.hpp</text>
</a>
</g>
</g>
<!-- Node20&#45;&gt;Node25 -->
<g id="edge31_Node000020_Node000025" class="edge">
<title>Node20&#45;&gt;Node25</title>
<g id="a_edge31_Node000020_Node000025"><a xlink:title=" ">
<path fill="none" stroke="#63b8ff" d="M991.12,-60.37C992.67,-52.16 995.04,-39.54 997.01,-29.05"/>
<polygon fill="#63b8ff" stroke="#63b8ff" points="1000.46,-29.64 998.87,-19.17 993.58,-28.35 1000.46,-29.64"/>
</a>
</g>
</g>
<!-- Node26 -->
<g id="Node000026" class="node">
<title>Node26</title>
<g id="a_Node000026"><a xlink:title=" ">
<polygon fill="#e0e0e0" stroke="#999999" points="1192,-19 1065,-19 1065,0 1192,0 1192,-19"/>
<text text-anchor="middle" x="1128.5" y="-7" font-family="Helvetica,sans-Serif" font-size="10.00">../utils/parameters.hpp</text>
</a>
</g>
</g>
<!-- Node20&#45;&gt;Node26 -->
<g id="edge32_Node000020_Node000026" class="edge">
<title>Node20&#45;&gt;Node26</title>
<g id="a_edge32_Node000020_Node000026"><a xlink:title=" ">
<path fill="none" stroke="#63b8ff" d="M1009.71,-60.49C1033.18,-50.62 1072.11,-34.23 1098.96,-22.93"/>
<polygon fill="#63b8ff" stroke="#63b8ff" points="1100.4,-26.12 1108.26,-19.02 1097.69,-19.67 1100.4,-26.12"/>
</a>
</g>
</g>
<!-- Node28&#45;&gt;Node13 -->
<g id="edge45_Node000028_Node000013" class="edge">
<title>Node28&#45;&gt;Node13</title>
<g id="a_edge45_Node000028_Node000013"><a xlink:title=" ">
<path fill="none" stroke="#63b8ff" d="M1480.24,-64.03C1450.85,-61.12 1412.54,-57.53 1378.5,-55 1092.33,-33.75 1014.86,-63.8 726.66,-18.6"/>
<polygon fill="#63b8ff" stroke="#63b8ff" points="727.18,-15.14 716.75,-17.03 726.08,-22.06 727.18,-15.14"/>
</a>
</g>
</g>
<!-- Node28&#45;&gt;Node19 -->
<g id="edge43_Node000028_Node000019" class="edge">
<title>Node28&#45;&gt;Node19</title>
<g id="a_edge43_Node000028_Node000019"><a xlink:title=" ">
<path fill="none" stroke="#63b8ff" d="M1537.5,-60.37C1546.87,-51.38 1561.75,-37.11 1573.2,-26.14"/>
<polygon fill="#63b8ff" stroke="#63b8ff" points="1575.67,-28.62 1580.46,-19.17 1570.82,-23.56 1575.67,-28.62"/>
</a>
</g>
</g>
<!-- Node28&#45;&gt;Node22 -->
<g id="edge44_Node000028_Node000022" class="edge">
<title>Node28&#45;&gt;Node22</title>
<g id="a_edge44_Node000028_Node000022"><a xlink:title=" ">
<path fill="none" stroke="#63b8ff" d="M1526.29,-60.37C1524.18,-52.16 1520.95,-39.54 1518.26,-29.05"/>
<polygon fill="#63b8ff" stroke="#63b8ff" points="1521.6,-27.98 1515.72,-19.17 1514.82,-29.72 1521.6,-27.98"/>
</a>
</g>
</g>
<!-- Node29 -->
<g id="Node000029" class="node">
<title>Node29</title>
<g id="a_Node000029"><a xlink:title=" ">
<polygon fill="#e0e0e0" stroke="#999999" points="1685.5,-19 1635.5,-19 1635.5,0 1685.5,0 1685.5,-19"/>
<text text-anchor="middle" x="1660.5" y="-7" font-family="Helvetica,sans-Serif" font-size="10.00">chrono</text>
</a>
</g>
</g>
<!-- Node28&#45;&gt;Node29 -->
<g id="edge41_Node000028_Node000029" class="edge">
<title>Node28&#45;&gt;Node29</title>
<g id="a_edge41_Node000028_Node000029"><a xlink:title=" ">
<path fill="none" stroke="#63b8ff" d="M1547.69,-60.49C1569.89,-50.66 1606.62,-34.38 1632.12,-23.08"/>
<polygon fill="#63b8ff" stroke="#63b8ff" points="1633.56,-26.27 1641.28,-19.02 1630.72,-19.87 1633.56,-26.27"/>
</a>
</g>
</g>
<!-- Node30 -->
<g id="Node000030" class="node">
<title>Node30</title>
<g id="a_Node000030"><a xlink:title=" ">
<polygon fill="#e0e0e0" stroke="#999999" points="1757,-19 1704,-19 1704,0 1757,0 1757,-19"/>
<text text-anchor="middle" x="1730.5" y="-7" font-family="Helvetica,sans-Serif" font-size="10.00">cstdarg</text>
</a>
</g>
</g>
<!-- Node28&#45;&gt;Node30 -->
<g id="edge42_Node000028_Node000030" class="edge">
<title>Node28&#45;&gt;Node30</title>
<g id="a_edge42_Node000028_Node000030"><a xlink:title=" ">
<path fill="none" stroke="#63b8ff" d="M1557.87,-60.49C1593.93,-50.05 1655.09,-32.34 1694.1,-21.04"/>
<polygon fill="#63b8ff" stroke="#63b8ff" points="1695.36,-24.32 1703.99,-18.18 1693.41,-17.6 1695.36,-24.32"/>
</a>
</g>
</g>
<!-- Node31 -->
<g id="Node000031" class="node">
<title>Node31</title>
<g id="a_Node000031"><a xlink:title=" ">
<polygon fill="#e0e0e0" stroke="#999999" points="1823.5,-19 1775.5,-19 1775.5,0 1823.5,0 1823.5,-19"/>
<text text-anchor="middle" x="1799.5" y="-7" font-family="Helvetica,sans-Serif" font-size="10.00">mutex</text>
</a>
</g>
</g>
<!-- Node28&#45;&gt;Node31 -->
<g id="edge46_Node000028_Node000031" class="edge">
<title>Node28&#45;&gt;Node31</title>
<g id="a_edge46_Node000028_Node000031"><a xlink:title=" ">
<path fill="none" stroke="#63b8ff" d="M1572.06,-60.46C1617.83,-51.35 1692.14,-36.18 1765.51,-19.15"/>
<polygon fill="#63b8ff" stroke="#63b8ff" points="1766.44,-22.53 1775.38,-16.85 1764.85,-15.71 1766.44,-22.53"/>
</a>
</g>
</g>
<!-- Node32&#45;&gt;Node3 -->
<g id="edge52_Node000032_Node000003" class="edge">
<title>Node32&#45;&gt;Node3</title>
<g id="a_edge52_Node000032_Node000003"><a xlink:title=" ">
<path fill="none" stroke="#63b8ff" d="M1311.16,-120.91C1330.67,-113.35 1357.95,-101.07 1378.5,-85 1399.33,-68.71 1417.95,-44.34 1429.23,-27.96"/>
<polygon fill="#63b8ff" stroke="#63b8ff" points="1432.33,-29.61 1434.98,-19.35 1426.51,-25.72 1432.33,-29.61"/>
</a>
</g>
</g>
<!-- Node32&#45;&gt;Node4 -->
<g id="edge54_Node000032_Node000004" class="edge">
<title>Node32&#45;&gt;Node4</title>
<g id="a_edge54_Node000032_Node000004"><a xlink:title=" ">
<path fill="none" stroke="#63b8ff" d="M1216.62,-122.87C1117.91,-113.22 946.56,-95.34 919.5,-85 897.73,-76.68 897.12,-65.86 876.5,-55 849.21,-40.62 816.22,-28.59 792.07,-20.68"/>
<polygon fill="#63b8ff" stroke="#63b8ff" points="792.9,-17.27 782.3,-17.55 790.76,-23.94 792.9,-17.27"/>
</a>
</g>
</g>
<!-- Node32&#45;&gt;Node5 -->
<g id="edge55_Node000032_Node000005" class="edge">
<title>Node32&#45;&gt;Node5</title>
<g id="a_edge55_Node000032_Node000005"><a xlink:title=" ">
<path fill="none" stroke="#63b8ff" d="M1216.73,-124.41C1065.95,-113.41 710.94,-87.52 557.38,-76.32"/>
<polygon fill="#63b8ff" stroke="#63b8ff" points="557.35,-72.8 547.12,-75.57 556.84,-79.79 557.35,-72.8"/>
</a>
</g>
</g>
<!-- Node32&#45;&gt;Node16 -->
<g id="edge50_Node000032_Node000016" class="edge">
<title>Node32&#45;&gt;Node16</title>
<g id="a_edge50_Node000032_Node000016"><a xlink:title=" ">
<path fill="none" stroke="#63b8ff" d="M1276.02,-120.87C1265.01,-111.8 1247.46,-97.34 1234.09,-86.32"/>
<polygon fill="#63b8ff" stroke="#63b8ff" points="1235.96,-83.33 1226.02,-79.67 1231.51,-88.73 1235.96,-83.33"/>
</a>
</g>
</g>
<!-- Node32&#45;&gt;Node28 -->
<g id="edge51_Node000032_Node000028" class="edge">
<title>Node32&#45;&gt;Node28</title>
<g id="a_edge51_Node000032_Node000028"><a xlink:title=" ">
<path fill="none" stroke="#63b8ff" d="M1321.69,-120.99C1364.43,-110.66 1436.62,-93.21 1483.4,-81.9"/>
<polygon fill="#63b8ff" stroke="#63b8ff" points="1484.37,-85.27 1493.27,-79.52 1482.73,-78.46 1484.37,-85.27"/>
</a>
</g>
</g>
<!-- Node33 -->
<g id="Node000033" class="node">
<title>Node33</title>
<g id="a_Node000033"><a xlink:title=" ">
<polygon fill="#e0e0e0" stroke="#999999" points="1369,-79.5 1314,-79.5 1314,-60.5 1369,-60.5 1369,-79.5"/>
<text text-anchor="middle" x="1341.5" y="-67.5" font-family="Helvetica,sans-Serif" font-size="10.00">fstream</text>
</a>
</g>
</g>
<!-- Node32&#45;&gt;Node33 -->
<g id="edge53_Node000032_Node000033" class="edge">
<title>Node32&#45;&gt;Node33</title>
<g id="a_edge53_Node000032_Node000033"><a xlink:title=" ">
<path fill="none" stroke="#63b8ff" d="M1294.62,-120.87C1302.9,-112.05 1315.97,-98.16 1326.2,-87.27"/>
<polygon fill="#63b8ff" stroke="#63b8ff" points="1329.05,-89.35 1333.35,-79.67 1323.95,-84.56 1329.05,-89.35"/>
</a>
</g>
</g>
<!-- Node34&#45;&gt;Node4 -->
<g id="edge58_Node000034_Node000004" class="edge">
<title>Node34&#45;&gt;Node4</title>
<g id="a_edge58_Node000034_Node000004"><a xlink:title=" ">
<path fill="none" stroke="#63b8ff" d="M773.35,-120.94C770.79,-101.91 764.58,-55.69 761.05,-29.47"/>
<polygon fill="#63b8ff" stroke="#63b8ff" points="764.48,-28.75 759.68,-19.3 757.55,-29.68 764.48,-28.75"/>
</a>
</g>
</g>
<!-- Node34&#45;&gt;Node11 -->
<g id="edge57_Node000034_Node000011" class="edge">
<title>Node34&#45;&gt;Node11</title>
<g id="a_edge57_Node000034_Node000011"><a xlink:title=" ">
<path fill="none" stroke="#63b8ff" d="M759.33,-120.94C723.14,-100.54 631.56,-48.88 587.67,-24.13"/>
<polygon fill="#63b8ff" stroke="#63b8ff" points="589.25,-21 578.82,-19.14 585.81,-27.1 589.25,-21"/>
</a>
</g>
</g>
<!-- Node34&#45;&gt;Node16 -->
<g id="edge60_Node000034_Node000016" class="edge">
<title>Node34&#45;&gt;Node16</title>
<g id="a_edge60_Node000034_Node000016"><a xlink:title=" ">
<path fill="none" stroke="#63b8ff" d="M828.58,-122.33C914.13,-110.98 1079.61,-89.03 1163.71,-77.87"/>
<polygon fill="#63b8ff" stroke="#63b8ff" points="1164.35,-81.32 1173.8,-76.53 1163.43,-74.38 1164.35,-81.32"/>
</a>
</g>
</g>
<!-- Node34&#45;&gt;Node20 -->
<g id="edge59_Node000034_Node000020" class="edge">
<title>Node34&#45;&gt;Node20</title>
<g id="a_edge59_Node000034_Node000020"><a xlink:title=" ">
<path fill="none" stroke="#63b8ff" d="M805.76,-120.99C843.42,-110.75 906.79,-93.5 948.38,-82.19"/>
<polygon fill="#63b8ff" stroke="#63b8ff" points="949.47,-85.52 958.2,-79.52 947.63,-78.77 949.47,-85.52"/>
</a>
</g>
</g>
</g>
</svg>
