<?xml version="1.0" encoding="UTF-8" standalone="no"?>
<!DOCTYPE svg PUBLIC "-//W3C//DTD SVG 1.1//EN"
 "http://www.w3.org/Graphics/SVG/1.1/DTD/svg11.dtd">
<!-- Generated by graphviz version 2.43.0 (0)
 -->
<!-- Title: src/lib/utils/preset.cpp Pages: 1 -->
<svg width="614pt" height="247pt"
 viewBox="0.00 0.00 614.00 247.00" xmlns="http://www.w3.org/2000/svg" xmlns:xlink="http://www.w3.org/1999/xlink">
<g id="graph0" class="graph" transform="scale(1 1) rotate(0) translate(4 243)">
<title>src/lib/utils/preset.cpp</title>
<!-- Node1 -->
<g id="Node000001" class="node">
<title>Node1</title>
<g id="a_Node000001"><a xlink:title=" ">
<polygon fill="#999999" stroke="#666666" points="285,-239 161,-239 161,-220 285,-220 285,-239"/>
<text text-anchor="middle" x="223" y="-227" font-family="Helvetica,sans-Serif" font-size="10.00">src/lib/utils/preset.cpp</text>
</a>
</g>
</g>
<!-- Node2 -->
<g id="Node000002" class="node">
<title>Node2</title>
<g id="a_Node000002"><a xlink:href="preset_8hpp.html" target="_top" xlink:title=" ">
<polygon fill="white" stroke="#666666" points="157,-184 89,-184 89,-165 157,-165 157,-184"/>
<text text-anchor="middle" x="123" y="-172" font-family="Helvetica,sans-Serif" font-size="10.00">preset.hpp</text>
</a>
</g>
</g>
<!-- Node1&#45;&gt;Node2 -->
<g id="edge1_Node000001_Node000002" class="edge">
<title>Node1&#45;&gt;Node2</title>
<g id="a_edge1_Node000001_Node000002"><a xlink:title=" ">
<path fill="none" stroke="#63b8ff" d="M206.93,-219.98C191.14,-211.61 166.78,-198.7 148.37,-188.95"/>
<polygon fill="#63b8ff" stroke="#63b8ff" points="149.83,-185.76 139.36,-184.17 146.56,-191.95 149.83,-185.76"/>
</a>
</g>
</g>
<!-- Node3 -->
<g id="Node000003" class="node">
<title>Node3</title>
<g id="a_Node000003"><a xlink:href="parameters_8hpp.html" target="_top" xlink:title=" ">
<polygon fill="white" stroke="#666666" points="195,-129 77,-129 77,-110 195,-110 195,-129"/>
<text text-anchor="middle" x="136" y="-117" font-family="Helvetica,sans-Serif" font-size="10.00">utils/parameters.hpp</text>
</a>
</g>
</g>
<!-- Node1&#45;&gt;Node3 -->
<g id="edge16_Node000001_Node000003" class="edge">
<title>Node1&#45;&gt;Node3</title>
<g id="a_edge16_Node000001_Node000003"><a xlink:title=" ">
<path fill="none" stroke="#63b8ff" d="M215.88,-219.66C201.34,-201.61 168.04,-160.28 149.35,-137.08"/>
<polygon fill="#63b8ff" stroke="#63b8ff" points="151.97,-134.75 142.97,-129.16 146.52,-139.14 151.97,-134.75"/>
</a>
</g>
</g>
<!-- Node4 -->
<g id="Node000004" class="node">
<title>Node4</title>
<g id="a_Node000004"><a xlink:title=" ">
<polygon fill="#e0e0e0" stroke="#999999" points="79.5,-74 14.5,-74 14.5,-55 79.5,-55 79.5,-74"/>
<text text-anchor="middle" x="47" y="-62" font-family="Helvetica,sans-Serif" font-size="10.00">stdexcept</text>
</a>
</g>
</g>
<!-- Node1&#45;&gt;Node4 -->
<g id="edge14_Node000001_Node000004" class="edge">
<title>Node1&#45;&gt;Node4</title>
<g id="a_edge14_Node000001_Node000004"><a xlink:title=" ">
<path fill="none" stroke="#63b8ff" d="M160.68,-222.62C132.6,-216.91 101.09,-205.74 80,-184 53.57,-156.76 47.93,-110.24 46.96,-84.33"/>
<polygon fill="#63b8ff" stroke="#63b8ff" points="50.46,-84.25 46.78,-74.31 43.46,-84.37 50.46,-84.25"/>
</a>
</g>
</g>
<!-- Node5 -->
<g id="Node000005" class="node">
<title>Node5</title>
<g id="a_Node000005"><a xlink:title=" ">
<polygon fill="#e0e0e0" stroke="#999999" points="284,-74 240,-74 240,-55 284,-55 284,-74"/>
<text text-anchor="middle" x="262" y="-62" font-family="Helvetica,sans-Serif" font-size="10.00">string</text>
</a>
</g>
</g>
<!-- Node1&#45;&gt;Node5 -->
<g id="edge12_Node000001_Node000005" class="edge">
<title>Node1&#45;&gt;Node5</title>
<g id="a_edge12_Node000001_Node000005"><a xlink:title=" ">
<path fill="none" stroke="#63b8ff" d="M225.1,-219.74C231.21,-194.2 249.1,-119.43 257.52,-84.23"/>
<polygon fill="#63b8ff" stroke="#63b8ff" points="260.97,-84.85 259.89,-74.31 254.16,-83.22 260.97,-84.85"/>
</a>
</g>
</g>
<!-- Node6 -->
<g id="Node000006" class="node">
<title>Node6</title>
<g id="a_Node000006"><a xlink:title=" ">
<polygon fill="#e0e0e0" stroke="#999999" points="221.5,-74 174.5,-74 174.5,-55 221.5,-55 221.5,-74"/>
<text text-anchor="middle" x="198" y="-62" font-family="Helvetica,sans-Serif" font-size="10.00">vector</text>
</a>
</g>
</g>
<!-- Node1&#45;&gt;Node6 -->
<g id="edge15_Node000001_Node000006" class="edge">
<title>Node1&#45;&gt;Node6</title>
<g id="a_edge15_Node000001_Node000006"><a xlink:title=" ">
<path fill="none" stroke="#63b8ff" d="M221.66,-219.74C217.74,-194.2 206.27,-119.43 200.87,-84.23"/>
<polygon fill="#63b8ff" stroke="#63b8ff" points="204.33,-83.66 199.35,-74.31 197.41,-84.72 204.33,-83.66"/>
</a>
</g>
</g>
<!-- Node13 -->
<g id="Node000013" class="node">
<title>Node13</title>
<g id="a_Node000013"><a xlink:title=" ">
<polygon fill="#e0e0e0" stroke="#999999" points="372.5,-184 327.5,-184 327.5,-165 372.5,-165 372.5,-184"/>
<text text-anchor="middle" x="350" y="-172" font-family="Helvetica,sans-Serif" font-size="10.00">utility</text>
</a>
</g>
</g>
<!-- Node1&#45;&gt;Node13 -->
<g id="edge13_Node000001_Node000013" class="edge">
<title>Node1&#45;&gt;Node13</title>
<g id="a_edge13_Node000001_Node000013"><a xlink:title=" ">
<path fill="none" stroke="#63b8ff" d="M243.4,-219.98C264.02,-211.38 296.11,-197.99 319.69,-188.15"/>
<polygon fill="#63b8ff" stroke="#63b8ff" points="321.34,-191.25 329.22,-184.17 318.65,-184.79 321.34,-191.25"/>
</a>
</g>
</g>
<!-- Node14 -->
<g id="Node000014" class="node">
<title>Node14</title>
<g id="a_Node000014"><a xlink:href="log_8hpp.html" target="_top" xlink:title=" ">
<polygon fill="white" stroke="#666666" points="452,-129 356,-129 356,-110 452,-110 452,-129"/>
<text text-anchor="middle" x="404" y="-117" font-family="Helvetica,sans-Serif" font-size="10.00">uvgvpcc/log.hpp</text>
</a>
</g>
</g>
<!-- Node1&#45;&gt;Node14 -->
<g id="edge17_Node000001_Node000014" class="edge">
<title>Node1&#45;&gt;Node14</title>
<g id="a_edge17_Node000001_Node000014"><a xlink:title=" ">
<path fill="none" stroke="#63b8ff" d="M235.17,-219.87C253.15,-207.25 288.03,-183.29 319,-165 338.06,-153.74 360.25,-142.18 377.17,-133.66"/>
<polygon fill="#63b8ff" stroke="#63b8ff" points="379.08,-136.62 386.46,-129.03 375.95,-130.36 379.08,-136.62"/>
</a>
</g>
</g>
<!-- Node2&#45;&gt;Node3 -->
<g id="edge2_Node000002_Node000003" class="edge">
<title>Node2&#45;&gt;Node3</title>
<g id="a_edge2_Node000002_Node000003"><a xlink:title=" ">
<path fill="none" stroke="#63b8ff" d="M125.15,-164.75C126.87,-157.72 129.35,-147.62 131.5,-138.84"/>
<polygon fill="#63b8ff" stroke="#63b8ff" points="134.91,-139.63 133.89,-129.09 128.11,-137.97 134.91,-139.63"/>
</a>
</g>
</g>
<!-- Node3&#45;&gt;Node4 -->
<g id="edge3_Node000003_Node000004" class="edge">
<title>Node3&#45;&gt;Node4</title>
<g id="a_edge3_Node000003_Node000004"><a xlink:title=" ">
<path fill="none" stroke="#63b8ff" d="M121.7,-109.98C107.9,-101.77 86.76,-89.18 70.49,-79.49"/>
<polygon fill="#63b8ff" stroke="#63b8ff" points="71.94,-76.28 61.56,-74.17 68.36,-82.29 71.94,-76.28"/>
</a>
</g>
</g>
<!-- Node3&#45;&gt;Node5 -->
<g id="edge4_Node000003_Node000005" class="edge">
<title>Node3&#45;&gt;Node5</title>
<g id="a_edge4_Node000003_Node000005"><a xlink:title=" ">
<path fill="none" stroke="#63b8ff" d="M156.24,-109.98C176.7,-101.38 208.53,-87.99 231.93,-78.15"/>
<polygon fill="#63b8ff" stroke="#63b8ff" points="233.53,-81.27 241.39,-74.17 230.81,-74.82 233.53,-81.27"/>
</a>
</g>
</g>
<!-- Node3&#45;&gt;Node6 -->
<g id="edge5_Node000003_Node000006" class="edge">
<title>Node3&#45;&gt;Node6</title>
<g id="a_edge5_Node000003_Node000006"><a xlink:title=" ">
<path fill="none" stroke="#63b8ff" d="M145.96,-109.98C155.13,-102.15 168.94,-90.34 180.03,-80.86"/>
<polygon fill="#63b8ff" stroke="#63b8ff" points="182.53,-83.33 187.86,-74.17 177.98,-78.01 182.53,-83.33"/>
</a>
</g>
</g>
<!-- Node7 -->
<g id="Node000007" class="node">
<title>Node7</title>
<g id="a_Node000007"><a xlink:href="utils_8hpp.html" target="_top" xlink:title=" ">
<polygon fill="white" stroke="#666666" points="156.5,-74 97.5,-74 97.5,-55 156.5,-55 156.5,-74"/>
<text text-anchor="middle" x="127" y="-62" font-family="Helvetica,sans-Serif" font-size="10.00">utils.hpp</text>
</a>
</g>
</g>
<!-- Node3&#45;&gt;Node7 -->
<g id="edge6_Node000003_Node000007" class="edge">
<title>Node3&#45;&gt;Node7</title>
<g id="a_edge6_Node000003_Node000007"><a xlink:title=" ">
<path fill="none" stroke="#63b8ff" d="M134.51,-109.75C133.33,-102.8 131.64,-92.85 130.16,-84.13"/>
<polygon fill="#63b8ff" stroke="#63b8ff" points="133.58,-83.36 128.46,-74.09 126.68,-84.53 133.58,-83.36"/>
</a>
</g>
</g>
<!-- Node8 -->
<g id="Node000008" class="node">
<title>Node8</title>
<g id="a_Node000008"><a xlink:title=" ">
<polygon fill="#e0e0e0" stroke="#999999" points="116,-19 74,-19 74,0 116,0 116,-19"/>
<text text-anchor="middle" x="95" y="-7" font-family="Helvetica,sans-Serif" font-size="10.00">array</text>
</a>
</g>
</g>
<!-- Node7&#45;&gt;Node8 -->
<g id="edge7_Node000007_Node000008" class="edge">
<title>Node7&#45;&gt;Node8</title>
<g id="a_edge7_Node000007_Node000008"><a xlink:title=" ">
<path fill="none" stroke="#63b8ff" d="M121.72,-54.75C117.29,-47.42 110.84,-36.73 105.38,-27.7"/>
<polygon fill="#63b8ff" stroke="#63b8ff" points="108.35,-25.84 100.19,-19.09 102.36,-29.46 108.35,-25.84"/>
</a>
</g>
</g>
<!-- Node9 -->
<g id="Node000009" class="node">
<title>Node9</title>
<g id="a_Node000009"><a xlink:title=" ">
<polygon fill="#e0e0e0" stroke="#999999" points="184,-19 134,-19 134,0 184,0 184,-19"/>
<text text-anchor="middle" x="159" y="-7" font-family="Helvetica,sans-Serif" font-size="10.00">cstdint</text>
</a>
</g>
</g>
<!-- Node7&#45;&gt;Node9 -->
<g id="edge8_Node000007_Node000009" class="edge">
<title>Node7&#45;&gt;Node9</title>
<g id="a_edge8_Node000007_Node000009"><a xlink:title=" ">
<path fill="none" stroke="#63b8ff" d="M132.28,-54.75C136.71,-47.42 143.16,-36.73 148.62,-27.7"/>
<polygon fill="#63b8ff" stroke="#63b8ff" points="151.64,-29.46 153.81,-19.09 145.65,-25.84 151.64,-29.46"/>
</a>
</g>
</g>
<!-- Node10 -->
<g id="Node000010" class="node">
<title>Node10</title>
<g id="a_Node000010"><a xlink:title=" ">
<polygon fill="#e0e0e0" stroke="#999999" points="246,-19 202,-19 202,0 246,0 246,-19"/>
<text text-anchor="middle" x="224" y="-7" font-family="Helvetica,sans-Serif" font-size="10.00">limits</text>
</a>
</g>
</g>
<!-- Node7&#45;&gt;Node10 -->
<g id="edge9_Node000007_Node000010" class="edge">
<title>Node7&#45;&gt;Node10</title>
<g id="a_edge9_Node000007_Node000010"><a xlink:title=" ">
<path fill="none" stroke="#63b8ff" d="M142.58,-54.98C157.77,-46.69 181.1,-33.94 198.9,-24.22"/>
<polygon fill="#63b8ff" stroke="#63b8ff" points="201.03,-27.04 208.13,-19.17 197.68,-20.89 201.03,-27.04"/>
</a>
</g>
</g>
<!-- Node11 -->
<g id="Node000011" class="node">
<title>Node11</title>
<g id="a_Node000011"><a xlink:title=" ">
<polygon fill="#e0e0e0" stroke="#999999" points="56,-19 0,-19 0,0 56,0 56,-19"/>
<text text-anchor="middle" x="28" y="-7" font-family="Helvetica,sans-Serif" font-size="10.00">sstream</text>
</a>
</g>
</g>
<!-- Node7&#45;&gt;Node11 -->
<g id="edge10_Node000007_Node000011" class="edge">
<title>Node7&#45;&gt;Node11</title>
<g id="a_edge10_Node000007_Node000011"><a xlink:title=" ">
<path fill="none" stroke="#63b8ff" d="M111.09,-54.98C95.45,-46.61 71.34,-33.7 53.12,-23.95"/>
<polygon fill="#63b8ff" stroke="#63b8ff" points="54.66,-20.8 44.2,-19.17 51.36,-26.98 54.66,-20.8"/>
</a>
</g>
</g>
<!-- Node12 -->
<g id="Node000012" class="node">
<title>Node12</title>
<g id="a_Node000012"><a xlink:title=" ">
<polygon fill="#e0e0e0" stroke="#999999" points="422,-19 366,-19 366,0 422,0 422,-19"/>
<text text-anchor="middle" x="394" y="-7" font-family="Helvetica,sans-Serif" font-size="10.00">iomanip</text>
</a>
</g>
</g>
<!-- Node7&#45;&gt;Node12 -->
<g id="edge11_Node000007_Node000012" class="edge">
<title>Node7&#45;&gt;Node12</title>
<g id="a_edge11_Node000007_Node000012"><a xlink:title=" ">
<path fill="none" stroke="#63b8ff" d="M156.85,-56.74C159.61,-56.14 162.35,-55.55 165,-55 231.94,-41.01 310.2,-26.12 355.72,-17.6"/>
<polygon fill="#63b8ff" stroke="#63b8ff" points="356.56,-21 365.75,-15.73 355.27,-14.12 356.56,-21"/>
</a>
</g>
</g>
<!-- Node14&#45;&gt;Node5 -->
<g id="edge22_Node000014_Node000005" class="edge">
<title>Node14&#45;&gt;Node5</title>
<g id="a_edge22_Node000014_Node000005"><a xlink:title=" ">
<path fill="none" stroke="#63b8ff" d="M381.19,-109.98C357.55,-101.16 320.42,-87.31 293.89,-77.4"/>
<polygon fill="#63b8ff" stroke="#63b8ff" points="294.88,-74.04 284.29,-73.82 292.43,-80.6 294.88,-74.04"/>
</a>
</g>
</g>
<!-- Node14&#45;&gt;Node12 -->
<g id="edge20_Node000014_Node000012" class="edge">
<title>Node14&#45;&gt;Node12</title>
<g id="a_edge20_Node000014_Node000012"><a xlink:title=" ">
<path fill="none" stroke="#63b8ff" d="M446.75,-109.91C483.57,-100.45 528.03,-82.77 509,-55 491.91,-30.06 458.67,-19.09 432.3,-14.27"/>
<polygon fill="#63b8ff" stroke="#63b8ff" points="432.65,-10.78 422.22,-12.66 431.54,-17.7 432.65,-10.78"/>
</a>
</g>
</g>
<!-- Node15 -->
<g id="Node000015" class="node">
<title>Node15</title>
<g id="a_Node000015"><a xlink:title=" ">
<polygon fill="#e0e0e0" stroke="#999999" points="606,-74 556,-74 556,-55 606,-55 606,-74"/>
<text text-anchor="middle" x="581" y="-62" font-family="Helvetica,sans-Serif" font-size="10.00">chrono</text>
</a>
</g>
</g>
<!-- Node14&#45;&gt;Node15 -->
<g id="edge18_Node000014_Node000015" class="edge">
<title>Node14&#45;&gt;Node15</title>
<g id="a_edge18_Node000014_Node000015"><a xlink:title=" ">
<path fill="none" stroke="#63b8ff" d="M432.44,-109.98C463.35,-100.73 512.76,-85.93 546.02,-75.97"/>
<polygon fill="#63b8ff" stroke="#63b8ff" points="547.21,-79.27 555.79,-73.05 545.2,-72.57 547.21,-79.27"/>
</a>
</g>
</g>
<!-- Node16 -->
<g id="Node000016" class="node">
<title>Node16</title>
<g id="a_Node000016"><a xlink:title=" ">
<polygon fill="#e0e0e0" stroke="#999999" points="355.5,-74 302.5,-74 302.5,-55 355.5,-55 355.5,-74"/>
<text text-anchor="middle" x="329" y="-62" font-family="Helvetica,sans-Serif" font-size="10.00">cstdarg</text>
</a>
</g>
</g>
<!-- Node14&#45;&gt;Node16 -->
<g id="edge19_Node000014_Node000016" class="edge">
<title>Node14&#45;&gt;Node16</title>
<g id="a_edge19_Node000014_Node000016"><a xlink:title=" ">
<path fill="none" stroke="#63b8ff" d="M391.95,-109.98C380.54,-101.92 363.17,-89.65 349.57,-80.03"/>
<polygon fill="#63b8ff" stroke="#63b8ff" points="351.46,-77.08 341.27,-74.17 347.42,-82.8 351.46,-77.08"/>
</a>
</g>
</g>
<!-- Node17 -->
<g id="Node000017" class="node">
<title>Node17</title>
<g id="a_Node000017"><a xlink:title=" ">
<polygon fill="#e0e0e0" stroke="#999999" points="434,-74 374,-74 374,-55 434,-55 434,-74"/>
<text text-anchor="middle" x="404" y="-62" font-family="Helvetica,sans-Serif" font-size="10.00">iostream</text>
</a>
</g>
</g>
<!-- Node14&#45;&gt;Node17 -->
<g id="edge21_Node000014_Node000017" class="edge">
<title>Node14&#45;&gt;Node17</title>
<g id="a_edge21_Node000014_Node000017"><a xlink:title=" ">
<path fill="none" stroke="#63b8ff" d="M404,-109.75C404,-102.8 404,-92.85 404,-84.13"/>
<polygon fill="#63b8ff" stroke="#63b8ff" points="407.5,-84.09 404,-74.09 400.5,-84.09 407.5,-84.09"/>
</a>
</g>
</g>
<!-- Node18 -->
<g id="Node000018" class="node">
<title>Node18</title>
<g id="a_Node000018"><a xlink:title=" ">
<polygon fill="#e0e0e0" stroke="#999999" points="500,-74 452,-74 452,-55 500,-55 500,-74"/>
<text text-anchor="middle" x="476" y="-62" font-family="Helvetica,sans-Serif" font-size="10.00">mutex</text>
</a>
</g>
</g>
<!-- Node14&#45;&gt;Node18 -->
<g id="edge23_Node000014_Node000018" class="edge">
<title>Node14&#45;&gt;Node18</title>
<g id="a_edge23_Node000014_Node000018"><a xlink:title=" ">
<path fill="none" stroke="#63b8ff" d="M415.57,-109.98C426.42,-102 442.88,-89.88 455.88,-80.31"/>
<polygon fill="#63b8ff" stroke="#63b8ff" points="458.24,-82.92 464.22,-74.17 454.09,-77.28 458.24,-82.92"/>
</a>
</g>
</g>
</g>
</svg>
