<?xml version="1.0" encoding="UTF-8" standalone="no"?>
<!DOCTYPE svg PUBLIC "-//W3C//DTD SVG 1.1//EN"
 "http://www.w3.org/Graphics/SVG/1.1/DTD/svg11.dtd">
<!-- Generated by graphviz version 2.43.0 (0)
 -->
<!-- Title: src/libuvgvpccenc/utils/preset.hpp Pages: 1 -->
<svg width="622pt" height="258pt"
 viewBox="0.00 0.00 622.00 258.00" xmlns="http://www.w3.org/2000/svg" xmlns:xlink="http://www.w3.org/1999/xlink">
<g id="graph0" class="graph" transform="scale(1 1) rotate(0) translate(4 254)">
<title>src/libuvgvpccenc/utils/preset.hpp</title>
<!-- Node1 -->
<g id="Node000001" class="node">
<title>Node1</title>
<g id="a_Node000001"><a xlink:title=" ">
<polygon fill="#999999" stroke="#666666" points="519.5,-250 391.5,-250 391.5,-220 519.5,-220 519.5,-250"/>
<text text-anchor="start" x="399.5" y="-238" font-family="Helvetica,sans-Serif" font-size="10.00">src/libuvgvpccenc/utils</text>
<text text-anchor="middle" x="455.5" y="-227" font-family="Helvetica,sans-Serif" font-size="10.00">/preset.hpp</text>
</a>
</g>
</g>
<!-- Node2 -->
<g id="Node000002" class="node">
<title>Node2</title>
<g id="a_Node000002"><a xlink:href="parameters_8hpp.html" target="_top" xlink:title=" ">
<polygon fill="white" stroke="#666666" points="502.5,-184 408.5,-184 408.5,-165 502.5,-165 502.5,-184"/>
<text text-anchor="middle" x="455.5" y="-172" font-family="Helvetica,sans-Serif" font-size="10.00">parameters.hpp</text>
</a>
</g>
</g>
<!-- Node1&#45;&gt;Node2 -->
<g id="edge1_Node000001_Node000002" class="edge">
<title>Node1&#45;&gt;Node2</title>
<g id="a_edge1_Node000001_Node000002"><a xlink:title=" ">
<path fill="none" stroke="#63b8ff" d="M455.5,-219.84C455.5,-212.21 455.5,-202.7 455.5,-194.45"/>
<polygon fill="#63b8ff" stroke="#63b8ff" points="459,-194.27 455.5,-184.27 452,-194.27 459,-194.27"/>
</a>
</g>
</g>
<!-- Node3 -->
<g id="Node000003" class="node">
<title>Node3</title>
<g id="a_Node000003"><a xlink:title=" ">
<polygon fill="#e0e0e0" stroke="#999999" points="53,-74 0,-74 0,-55 53,-55 53,-74"/>
<text text-anchor="middle" x="26.5" y="-62" font-family="Helvetica,sans-Serif" font-size="10.00">cstddef</text>
</a>
</g>
</g>
<!-- Node2&#45;&gt;Node3 -->
<g id="edge2_Node000002_Node000003" class="edge">
<title>Node2&#45;&gt;Node3</title>
<g id="a_edge2_Node000002_Node000003"><a xlink:title=" ">
<path fill="none" stroke="#63b8ff" d="M408.28,-169.91C351.07,-164.71 252.2,-152.94 170.5,-129 127.11,-116.28 79.64,-93.47 51.5,-78.93"/>
<polygon fill="#63b8ff" stroke="#63b8ff" points="52.87,-75.7 42.39,-74.16 49.63,-81.9 52.87,-75.7"/>
</a>
</g>
</g>
<!-- Node4 -->
<g id="Node000004" class="node">
<title>Node4</title>
<g id="a_Node000004"><a xlink:title=" ">
<polygon fill="#e0e0e0" stroke="#999999" points="549,-129 484,-129 484,-110 549,-110 549,-129"/>
<text text-anchor="middle" x="516.5" y="-117" font-family="Helvetica,sans-Serif" font-size="10.00">stdexcept</text>
</a>
</g>
</g>
<!-- Node2&#45;&gt;Node4 -->
<g id="edge3_Node000002_Node000004" class="edge">
<title>Node2&#45;&gt;Node4</title>
<g id="a_edge3_Node000002_Node000004"><a xlink:title=" ">
<path fill="none" stroke="#63b8ff" d="M465.3,-164.98C474.32,-157.15 487.91,-145.34 498.82,-135.86"/>
<polygon fill="#63b8ff" stroke="#63b8ff" points="501.27,-138.37 506.52,-129.17 496.68,-133.09 501.27,-138.37"/>
</a>
</g>
</g>
<!-- Node5 -->
<g id="Node000005" class="node">
<title>Node5</title>
<g id="a_Node000005"><a xlink:title=" ">
<polygon fill="#e0e0e0" stroke="#999999" points="450.5,-19 406.5,-19 406.5,0 450.5,0 450.5,-19"/>
<text text-anchor="middle" x="428.5" y="-7" font-family="Helvetica,sans-Serif" font-size="10.00">string</text>
</a>
</g>
</g>
<!-- Node2&#45;&gt;Node5 -->
<g id="edge4_Node000002_Node000005" class="edge">
<title>Node2&#45;&gt;Node5</title>
<g id="a_edge4_Node000002_Node000005"><a xlink:title=" ">
<path fill="none" stroke="#63b8ff" d="M454.17,-164.87C451.15,-145.3 443.49,-96.08 436.5,-55 435.05,-46.48 433.37,-37.06 431.92,-29.08"/>
<polygon fill="#63b8ff" stroke="#63b8ff" points="435.32,-28.23 430.08,-19.02 428.44,-29.49 435.32,-28.23"/>
</a>
</g>
</g>
<!-- Node6 -->
<g id="Node000006" class="node">
<title>Node6</title>
<g id="a_Node000006"><a xlink:title=" ">
<polygon fill="#e0e0e0" stroke="#999999" points="614,-129 567,-129 567,-110 614,-110 614,-129"/>
<text text-anchor="middle" x="590.5" y="-117" font-family="Helvetica,sans-Serif" font-size="10.00">vector</text>
</a>
</g>
</g>
<!-- Node2&#45;&gt;Node6 -->
<g id="edge5_Node000002_Node000006" class="edge">
<title>Node2&#45;&gt;Node6</title>
<g id="a_edge5_Node000002_Node000006"><a xlink:title=" ">
<path fill="none" stroke="#63b8ff" d="M477.19,-164.98C499.3,-156.3 533.82,-142.75 558.95,-132.88"/>
<polygon fill="#63b8ff" stroke="#63b8ff" points="560.39,-136.08 568.42,-129.17 557.83,-129.57 560.39,-136.08"/>
</a>
</g>
</g>
<!-- Node7 -->
<g id="Node000007" class="node">
<title>Node7</title>
<g id="a_Node000007"><a xlink:href="utils_8hpp.html" target="_top" xlink:title=" ">
<polygon fill="white" stroke="#666666" points="281,-129 180,-129 180,-110 281,-110 281,-129"/>
<text text-anchor="middle" x="230.5" y="-117" font-family="Helvetica,sans-Serif" font-size="10.00">uvgutils/utils.hpp</text>
</a>
</g>
</g>
<!-- Node2&#45;&gt;Node7 -->
<g id="edge6_Node000002_Node000007" class="edge">
<title>Node2&#45;&gt;Node7</title>
<g id="a_edge6_Node000002_Node000007"><a xlink:title=" ">
<path fill="none" stroke="#63b8ff" d="M419.35,-164.98C380.59,-155.86 318.95,-141.33 276.7,-131.38"/>
<polygon fill="#63b8ff" stroke="#63b8ff" points="277.47,-127.97 266.93,-129.08 275.86,-134.78 277.47,-127.97"/>
</a>
</g>
</g>
<!-- Node7&#45;&gt;Node3 -->
<g id="edge8_Node000007_Node000003" class="edge">
<title>Node7&#45;&gt;Node3</title>
<g id="a_edge8_Node000007_Node000003"><a xlink:title=" ">
<path fill="none" stroke="#63b8ff" d="M197.72,-109.98C160.81,-100.4 101.01,-84.86 62.73,-74.91"/>
<polygon fill="#63b8ff" stroke="#63b8ff" points="63.58,-71.52 53.02,-72.39 61.82,-78.29 63.58,-71.52"/>
</a>
</g>
</g>
<!-- Node8 -->
<g id="Node000008" class="node">
<title>Node8</title>
<g id="a_Node000008"><a xlink:title=" ">
<polygon fill="#e0e0e0" stroke="#999999" points="151.5,-74 109.5,-74 109.5,-55 151.5,-55 151.5,-74"/>
<text text-anchor="middle" x="130.5" y="-62" font-family="Helvetica,sans-Serif" font-size="10.00">array</text>
</a>
</g>
</g>
<!-- Node7&#45;&gt;Node8 -->
<g id="edge7_Node000007_Node000008" class="edge">
<title>Node7&#45;&gt;Node8</title>
<g id="a_edge7_Node000007_Node000008"><a xlink:title=" ">
<path fill="none" stroke="#63b8ff" d="M214.43,-109.98C198.64,-101.61 174.28,-88.7 155.87,-78.95"/>
<polygon fill="#63b8ff" stroke="#63b8ff" points="157.33,-75.76 146.86,-74.17 154.06,-81.95 157.33,-75.76"/>
</a>
</g>
</g>
<!-- Node9 -->
<g id="Node000009" class="node">
<title>Node9</title>
<g id="a_Node000009"><a xlink:title=" ">
<polygon fill="#e0e0e0" stroke="#999999" points="427.5,-74 377.5,-74 377.5,-55 427.5,-55 427.5,-74"/>
<text text-anchor="middle" x="402.5" y="-62" font-family="Helvetica,sans-Serif" font-size="10.00">cstdint</text>
</a>
</g>
</g>
<!-- Node7&#45;&gt;Node9 -->
<g id="edge9_Node000007_Node000009" class="edge">
<title>Node7&#45;&gt;Node9</title>
<g id="a_edge9_Node000007_Node000009"><a xlink:title=" ">
<path fill="none" stroke="#63b8ff" d="M258.13,-109.98C287.87,-100.82 335.23,-86.23 367.53,-76.27"/>
<polygon fill="#63b8ff" stroke="#63b8ff" points="368.93,-79.51 377.45,-73.22 366.86,-72.82 368.93,-79.51"/>
</a>
</g>
</g>
<!-- Node10 -->
<g id="Node000010" class="node">
<title>Node10</title>
<g id="a_Node000010"><a xlink:title=" ">
<polygon fill="#e0e0e0" stroke="#999999" points="93.5,-19 37.5,-19 37.5,0 93.5,0 93.5,-19"/>
<text text-anchor="middle" x="65.5" y="-7" font-family="Helvetica,sans-Serif" font-size="10.00">iomanip</text>
</a>
</g>
</g>
<!-- Node7&#45;&gt;Node10 -->
<g id="edge10_Node000007_Node000010" class="edge">
<title>Node7&#45;&gt;Node10</title>
<g id="a_edge10_Node000007_Node000010"><a xlink:title=" ">
<path fill="none" stroke="#63b8ff" d="M179.89,-110.22C153.86,-103.88 122.97,-92.87 100.5,-74 86.36,-62.13 76.94,-43.03 71.47,-28.87"/>
<polygon fill="#63b8ff" stroke="#63b8ff" points="74.68,-27.46 68.04,-19.21 68.08,-29.8 74.68,-27.46"/>
</a>
</g>
</g>
<!-- Node11 -->
<g id="Node000011" class="node">
<title>Node11</title>
<g id="a_Node000011"><a xlink:title=" ">
<polygon fill="#e0e0e0" stroke="#999999" points="285.5,-74 241.5,-74 241.5,-55 285.5,-55 285.5,-74"/>
<text text-anchor="middle" x="263.5" y="-62" font-family="Helvetica,sans-Serif" font-size="10.00">limits</text>
</a>
</g>
</g>
<!-- Node7&#45;&gt;Node11 -->
<g id="edge11_Node000007_Node000011" class="edge">
<title>Node7&#45;&gt;Node11</title>
<g id="a_edge11_Node000007_Node000011"><a xlink:title=" ">
<path fill="none" stroke="#63b8ff" d="M235.95,-109.75C240.51,-102.42 247.17,-91.73 252.79,-82.7"/>
<polygon fill="#63b8ff" stroke="#63b8ff" points="255.84,-84.43 258.15,-74.09 249.9,-80.73 255.84,-84.43"/>
</a>
</g>
</g>
<!-- Node12 -->
<g id="Node000012" class="node">
<title>Node12</title>
<g id="a_Node000012"><a xlink:title=" ">
<polygon fill="#e0e0e0" stroke="#999999" points="359.5,-74 303.5,-74 303.5,-55 359.5,-55 359.5,-74"/>
<text text-anchor="middle" x="331.5" y="-62" font-family="Helvetica,sans-Serif" font-size="10.00">sstream</text>
</a>
</g>
</g>
<!-- Node7&#45;&gt;Node12 -->
<g id="edge12_Node000007_Node000012" class="edge">
<title>Node7&#45;&gt;Node12</title>
<g id="a_edge12_Node000007_Node000012"><a xlink:title=" ">
<path fill="none" stroke="#63b8ff" d="M246.73,-109.98C262.68,-101.61 287.28,-88.7 305.88,-78.95"/>
<polygon fill="#63b8ff" stroke="#63b8ff" points="307.75,-81.92 314.98,-74.17 304.5,-75.72 307.75,-81.92"/>
</a>
</g>
</g>
<!-- Node13 -->
<g id="Node000013" class="node">
<title>Node13</title>
<g id="a_Node000013"><a xlink:href="log_8hpp.html" target="_top" xlink:title=" ">
<polygon fill="white" stroke="#666666" points="223,-74 170,-74 170,-55 223,-55 223,-74"/>
<text text-anchor="middle" x="196.5" y="-62" font-family="Helvetica,sans-Serif" font-size="10.00">log.hpp</text>
</a>
</g>
</g>
<!-- Node7&#45;&gt;Node13 -->
<g id="edge13_Node000007_Node000013" class="edge">
<title>Node7&#45;&gt;Node13</title>
<g id="a_edge13_Node000007_Node000013"><a xlink:title=" ">
<path fill="none" stroke="#63b8ff" d="M224.89,-109.75C220.18,-102.42 213.33,-91.73 207.53,-82.7"/>
<polygon fill="#63b8ff" stroke="#63b8ff" points="210.36,-80.62 202.01,-74.09 204.46,-84.4 210.36,-80.62"/>
</a>
</g>
</g>
<!-- Node13&#45;&gt;Node5 -->
<g id="edge19_Node000013_Node000005" class="edge">
<title>Node13&#45;&gt;Node5</title>
<g id="a_edge19_Node000013_Node000005"><a xlink:title=" ">
<path fill="none" stroke="#63b8ff" d="M223.23,-57.16C226.35,-56.43 229.5,-55.7 232.5,-55 290.14,-41.65 357.41,-26.46 396.27,-17.73"/>
<polygon fill="#63b8ff" stroke="#63b8ff" points="397.45,-21.05 406.44,-15.44 395.92,-14.22 397.45,-21.05"/>
</a>
</g>
</g>
<!-- Node13&#45;&gt;Node10 -->
<g id="edge16_Node000013_Node000010" class="edge">
<title>Node13&#45;&gt;Node10</title>
<g id="a_edge16_Node000013_Node000010"><a xlink:title=" ">
<path fill="none" stroke="#63b8ff" d="M175.45,-54.98C154.09,-46.34 120.8,-32.87 96.44,-23.02"/>
<polygon fill="#63b8ff" stroke="#63b8ff" points="97.51,-19.68 86.93,-19.17 94.89,-26.17 97.51,-19.68"/>
</a>
</g>
</g>
<!-- Node14 -->
<g id="Node000014" class="node">
<title>Node14</title>
<g id="a_Node000014"><a xlink:title=" ">
<polygon fill="#e0e0e0" stroke="#999999" points="377.5,-19 327.5,-19 327.5,0 377.5,0 377.5,-19"/>
<text text-anchor="middle" x="352.5" y="-7" font-family="Helvetica,sans-Serif" font-size="10.00">chrono</text>
</a>
</g>
</g>
<!-- Node13&#45;&gt;Node14 -->
<g id="edge14_Node000013_Node000014" class="edge">
<title>Node13&#45;&gt;Node14</title>
<g id="a_edge14_Node000013_Node000014"><a xlink:title=" ">
<path fill="none" stroke="#63b8ff" d="M221.56,-54.98C247.61,-46.14 288.55,-32.23 317.72,-22.32"/>
<polygon fill="#63b8ff" stroke="#63b8ff" points="319.16,-25.53 327.5,-18.99 316.9,-18.9 319.16,-25.53"/>
</a>
</g>
</g>
<!-- Node15 -->
<g id="Node000015" class="node">
<title>Node15</title>
<g id="a_Node000015"><a xlink:title=" ">
<polygon fill="#e0e0e0" stroke="#999999" points="165,-19 112,-19 112,0 165,0 165,-19"/>
<text text-anchor="middle" x="138.5" y="-7" font-family="Helvetica,sans-Serif" font-size="10.00">cstdarg</text>
</a>
</g>
</g>
<!-- Node13&#45;&gt;Node15 -->
<g id="edge15_Node000013_Node000015" class="edge">
<title>Node13&#45;&gt;Node15</title>
<g id="a_edge15_Node000013_Node000015"><a xlink:title=" ">
<path fill="none" stroke="#63b8ff" d="M187.18,-54.98C178.69,-47.23 165.94,-35.58 155.62,-26.14"/>
<polygon fill="#63b8ff" stroke="#63b8ff" points="157.73,-23.33 147.99,-19.17 153.01,-28.5 157.73,-23.33"/>
</a>
</g>
</g>
<!-- Node16 -->
<g id="Node000016" class="node">
<title>Node16</title>
<g id="a_Node000016"><a xlink:title=" ">
<polygon fill="#e0e0e0" stroke="#999999" points="243.5,-19 183.5,-19 183.5,0 243.5,0 243.5,-19"/>
<text text-anchor="middle" x="213.5" y="-7" font-family="Helvetica,sans-Serif" font-size="10.00">iostream</text>
</a>
</g>
</g>
<!-- Node13&#45;&gt;Node16 -->
<g id="edge17_Node000013_Node000016" class="edge">
<title>Node13&#45;&gt;Node16</title>
<g id="a_edge17_Node000013_Node000016"><a xlink:title=" ">
<path fill="none" stroke="#63b8ff" d="M199.31,-54.75C201.56,-47.72 204.8,-37.62 207.62,-28.84"/>
<polygon fill="#63b8ff" stroke="#63b8ff" points="211.02,-29.68 210.75,-19.09 204.36,-27.54 211.02,-29.68"/>
</a>
</g>
</g>
<!-- Node17 -->
<g id="Node000017" class="node">
<title>Node17</title>
<g id="a_Node000017"><a xlink:title=" ">
<polygon fill="#e0e0e0" stroke="#999999" points="309.5,-19 261.5,-19 261.5,0 309.5,0 309.5,-19"/>
<text text-anchor="middle" x="285.5" y="-7" font-family="Helvetica,sans-Serif" font-size="10.00">mutex</text>
</a>
</g>
</g>
<!-- Node13&#45;&gt;Node17 -->
<g id="edge18_Node000013_Node000017" class="edge">
<title>Node13&#45;&gt;Node17</title>
<g id="a_edge18_Node000013_Node000017"><a xlink:title=" ">
<path fill="none" stroke="#63b8ff" d="M210.8,-54.98C224.6,-46.77 245.74,-34.18 262.01,-24.49"/>
<polygon fill="#63b8ff" stroke="#63b8ff" points="264.14,-27.29 270.94,-19.17 260.56,-21.28 264.14,-27.29"/>
</a>
</g>
</g>
</g>
</svg>
