<?xml version="1.0" encoding="UTF-8" standalone="no"?>
<!DOCTYPE svg PUBLIC "-//W3C//DTD SVG 1.1//EN"
 "http://www.w3.org/Graphics/SVG/1.1/DTD/svg11.dtd">
<!-- Generated by graphviz version 2.43.0 (0)
 -->
<!-- Title: src/libuvgvpccenc/patchGeneration/robin_hood.h Pages: 1 -->
<!--zoomable 170 -->

<svg id="main" version="1.1" xmlns="http://www.w3.org/2000/svg" xmlns:xlink="http://www.w3.org/1999/xlink" xml:space="preserve" onload="init(evt)">
<style type="text/css"><![CDATA[
.node, .edge {opacity: 0.7;}
.node.selected, .edge.selected {opacity: 1;}
.edge:hover path { stroke: red; }
.edge:hover polygon { stroke: red; fill: red; }
]]></style>

<defs>
  <circle id="rim" cx="0" cy="0" r="7"/>
  <circle id="rim2" cx="0" cy="0" r="3.5"/>
  <g id="zoomPlus">
    <use xlink:href="#rim" fill="#404040"><set attributeName="fill" to="#808080" begin="zoomplus.mouseover" end="zoomplus.mouseout"/></use>
    <path d="M-4,0h8M0,-4v8" fill="none" stroke="white" stroke-width="1.5" pointer-events="none"/>
  </g>
  <g id="zoomMin">
    <use xlink:href="#rim" fill="#404040"><set attributeName="fill" to="#808080" begin="zoomminus.mouseover" end="zoomminus.mouseout"/></use>
    <path d="M-4,0h8" fill="none" stroke="white" stroke-width="1.5" pointer-events="none"/>
  </g>
  <g id="arrowUp" transform="translate(30 24)">
    <use xlink:href="#rim"/>
    <path pointer-events="none" fill="none" stroke="white" stroke-width="1.5" d="M0,-3.0v7 M-2.5,-0.5L0,-3.0L2.5,-0.5"/>
  </g>
  <g id="arrowRight" transform="rotate(90) translate(36 -43)">
    <use xlink:href="#rim"/>
    <path pointer-events="none" fill="none" stroke="white" stroke-width="1.5" d="M0,-3.0v7 M-2.5,-0.5L0,-3.0L2.5,-0.5"/>
  </g>
  <g id="arrowDown" transform="rotate(180) translate(-30 -48)">
    <use xlink:href="#rim"/>
    <path pointer-events="none" fill="none" stroke="white" stroke-width="1.5" d="M0,-3.0v7 M-2.5,-0.5L0,-3.0L2.5,-0.5"/>
  </g>
  <g id="arrowLeft" transform="rotate(270) translate(-36 17)">
    <use xlink:href="#rim"/>
    <path pointer-events="none" fill="none" stroke="white" stroke-width="1.5" d="M0,-3.0v7 M-2.5,-0.5L0,-3.0L2.5,-0.5"/>
  </g>
  <g id="resetDef">
    <use xlink:href="#rim2" fill="#404040"><set attributeName="fill" to="#808080" begin="reset.mouseover" end="reset.mouseout"/></use>
  </g>
</defs>
<script type="application/ecmascript">
var viewWidth = 1558;
var viewHeight = 170;
var sectionId = 'dynsection-1';
</script>
<script type="application/ecmascript" xlink:href="svg.min.js"/>
<svg id="graph" class="graph">
<g id="viewport">
<title>src/libuvgvpccenc/patchGeneration/robin_hood.h</title>
<!-- Node1 -->
<g id="Node000001" class="node">
<title>Node1</title>
<g id="a_Node000001"><a xlink:title=" ">
<polygon fill="#999999" stroke="#666666" points="904,-162 716,-162 716,-132 904,-132 904,-162"/>
<text text-anchor="start" x="724" y="-150" font-family="Helvetica,sans-Serif" font-size="10.00">src/libuvgvpccenc/patchGeneration</text>
<text text-anchor="middle" x="810" y="-139" font-family="Helvetica,sans-Serif" font-size="10.00">/robin_hood.h</text>
</a>
</g>
</g>
<!-- Node2 -->
<g id="Node000002" class="node">
<title>Node2</title>
<g id="a_Node000002"><a xlink:href="patchSegmentation_8cpp.html" target="_top" xlink:title=" ">
<polygon fill="white" stroke="#666666" points="188,-30 0,-30 0,0 188,0 188,-30"/>
<text text-anchor="start" x="8" y="-18" font-family="Helvetica,sans-Serif" font-size="10.00">src/libuvgvpccenc/patchGeneration</text>
<text text-anchor="middle" x="94" y="-7" font-family="Helvetica,sans-Serif" font-size="10.00">/patchSegmentation.cpp</text>
</a>
</g>
</g>
<!-- Node1&#45;&gt;Node2 -->
<g id="edge1_Node000001_Node000002" class="edge">
<title>Node1&#45;&gt;Node2</title>
<g id="a_edge1_Node000001_Node000002"><a xlink:title=" ">
<path fill="none" stroke="#63b8ff" d="M705.95,-140.42C612.33,-134.03 471.39,-121.05 351,-96 271.17,-79.39 180.76,-48.25 131.28,-30.11"/>
<polygon fill="#63b8ff" stroke="#63b8ff" points="705.78,-143.91 715.99,-141.09 706.24,-136.93 705.78,-143.91"/>
</a>
</g>
</g>
<!-- Node3 -->
<g id="Node000003" class="node">
<title>Node3</title>
<g id="a_Node000003"><a xlink:href="ppiSegmenter_8cpp.html" target="_top" xlink:title=" ">
<polygon fill="white" stroke="#666666" points="394,-30 206,-30 206,0 394,0 394,-30"/>
<text text-anchor="start" x="214" y="-18" font-family="Helvetica,sans-Serif" font-size="10.00">src/libuvgvpccenc/patchGeneration</text>
<text text-anchor="middle" x="300" y="-7" font-family="Helvetica,sans-Serif" font-size="10.00">/ppiSegmenter.cpp</text>
</a>
</g>
</g>
<!-- Node1&#45;&gt;Node3 -->
<g id="edge2_Node000001_Node000003" class="edge">
<title>Node1&#45;&gt;Node3</title>
<g id="a_edge2_Node000001_Node000003"><a xlink:title=" ">
<path fill="none" stroke="#63b8ff" d="M705.6,-139.5C603.54,-132.02 456.02,-117.88 403,-96 366.16,-80.8 331.29,-48.69 313.1,-30.1"/>
<polygon fill="#63b8ff" stroke="#63b8ff" points="705.41,-143 715.63,-140.23 705.91,-136.02 705.41,-143"/>
</a>
</g>
</g>
<!-- Node4 -->
<g id="Node000004" class="node">
<title>Node4</title>
<g id="a_Node000004"><a xlink:href="ppiSegmenter_8hpp.html" target="_top" xlink:title=" ">
<polygon fill="white" stroke="#666666" points="600,-96 412,-96 412,-66 600,-66 600,-96"/>
<text text-anchor="start" x="420" y="-84" font-family="Helvetica,sans-Serif" font-size="10.00">src/libuvgvpccenc/patchGeneration</text>
<text text-anchor="middle" x="506" y="-73" font-family="Helvetica,sans-Serif" font-size="10.00">/ppiSegmenter.hpp</text>
</a>
</g>
</g>
<!-- Node1&#45;&gt;Node4 -->
<g id="edge3_Node000001_Node000004" class="edge">
<title>Node1&#45;&gt;Node4</title>
<g id="a_edge3_Node000001_Node000004"><a xlink:title=" ">
<path fill="none" stroke="#63b8ff" d="M733.26,-129.84C683.73,-119.42 619.94,-105.99 572.56,-96.01"/>
<polygon fill="#63b8ff" stroke="#63b8ff" points="732.78,-133.32 743.29,-131.95 734.22,-126.47 732.78,-133.32"/>
</a>
</g>
</g>
<!-- Node6 -->
<g id="Node000006" class="node">
<title>Node6</title>
<g id="a_Node000006"><a xlink:href="slicingComputation_8cpp.html" target="_top" xlink:title=" ">
<polygon fill="white" stroke="#666666" points="1550,-30 1362,-30 1362,0 1550,0 1550,-30"/>
<text text-anchor="start" x="1370" y="-18" font-family="Helvetica,sans-Serif" font-size="10.00">src/libuvgvpccenc/patchGeneration</text>
<text text-anchor="middle" x="1456" y="-7" font-family="Helvetica,sans-Serif" font-size="10.00">/slicingComputation.cpp</text>
</a>
</g>
</g>
<!-- Node1&#45;&gt;Node6 -->
<g id="edge6_Node000001_Node000006" class="edge">
<title>Node1&#45;&gt;Node6</title>
<g id="a_edge6_Node000001_Node000006"><a xlink:title=" ">
<path fill="none" stroke="#63b8ff" d="M914.55,-143.32C1049.39,-138.68 1275.76,-126.5 1353,-96 1390.06,-81.36 1424.85,-49.04 1442.97,-30.27"/>
<polygon fill="#63b8ff" stroke="#63b8ff" points="914.08,-139.84 904.2,-143.67 914.31,-146.83 914.08,-139.84"/>
</a>
</g>
</g>
<!-- Node7 -->
<g id="Node000007" class="node">
<title>Node7</title>
<g id="a_Node000007"><a xlink:href="slicingPpiSegmenter_8cpp.html" target="_top" xlink:title=" ">
<polygon fill="white" stroke="#666666" points="1344,-30 1156,-30 1156,0 1344,0 1344,-30"/>
<text text-anchor="start" x="1164" y="-18" font-family="Helvetica,sans-Serif" font-size="10.00">src/libuvgvpccenc/patchGeneration</text>
<text text-anchor="middle" x="1250" y="-7" font-family="Helvetica,sans-Serif" font-size="10.00">/slicingPpiSegmenter.cpp</text>
</a>
</g>
</g>
<!-- Node1&#45;&gt;Node7 -->
<g id="edge7_Node000001_Node000007" class="edge">
<title>Node1&#45;&gt;Node7</title>
<g id="a_edge7_Node000001_Node000007"><a xlink:title=" ">
<path fill="none" stroke="#63b8ff" d="M868.25,-129.04C901.33,-119.39 943.49,-107.06 981,-96 1058.81,-73.05 1149.2,-46.12 1202.88,-30.08"/>
<polygon fill="#63b8ff" stroke="#63b8ff" points="866.92,-125.78 858.3,-131.94 868.88,-132.5 866.92,-125.78"/>
</a>
</g>
</g>
<!-- Node8 -->
<g id="Node000008" class="node">
<title>Node8</title>
<g id="a_Node000008"><a xlink:href="slicingPpiSegmenter_8hpp.html" target="_top" xlink:title=" ">
<polygon fill="white" stroke="#666666" points="1344,-96 1156,-96 1156,-66 1344,-66 1344,-96"/>
<text text-anchor="start" x="1164" y="-84" font-family="Helvetica,sans-Serif" font-size="10.00">src/libuvgvpccenc/patchGeneration</text>
<text text-anchor="middle" x="1250" y="-73" font-family="Helvetica,sans-Serif" font-size="10.00">/slicingPpiSegmenter.hpp</text>
</a>
</g>
</g>
<!-- Node1&#45;&gt;Node8 -->
<g id="edge8_Node000001_Node000008" class="edge">
<title>Node1&#45;&gt;Node8</title>
<g id="a_edge8_Node000001_Node000008"><a xlink:title=" ">
<path fill="none" stroke="#63b8ff" d="M914.29,-130.83C987.54,-120.18 1084.71,-106.04 1155.65,-95.72"/>
<polygon fill="#63b8ff" stroke="#63b8ff" points="913.51,-127.41 904.12,-132.31 914.52,-134.33 913.51,-127.41"/>
</a>
</g>
</g>
<!-- Node9 -->
<g id="Node000009" class="node">
<title>Node9</title>
<g id="a_Node000009"><a xlink:href="utilsPatchGeneration_8hpp.html" target="_top" xlink:title=" ">
<polygon fill="white" stroke="#666666" points="806,-96 618,-96 618,-66 806,-66 806,-96"/>
<text text-anchor="start" x="626" y="-84" font-family="Helvetica,sans-Serif" font-size="10.00">src/libuvgvpccenc/patchGeneration</text>
<text text-anchor="middle" x="712" y="-73" font-family="Helvetica,sans-Serif" font-size="10.00">/utilsPatchGeneration.hpp</text>
</a>
</g>
</g>
<!-- Node1&#45;&gt;Node9 -->
<g id="edge11_Node000001_Node000009" class="edge">
<title>Node1&#45;&gt;Node9</title>
<g id="a_edge11_Node000001_Node000009"><a xlink:title=" ">
<path fill="none" stroke="#63b8ff" d="M779.84,-126.3C764.92,-116.56 747.25,-105.02 733.69,-96.16"/>
<polygon fill="#63b8ff" stroke="#63b8ff" points="777.96,-129.26 788.25,-131.8 781.79,-123.4 777.96,-129.26"/>
</a>
</g>
</g>
<!-- Node12 -->
<g id="Node000012" class="node">
<title>Node12</title>
<g id="a_Node000012"><a xlink:href="commonMemory_8hpp.html" target="_top" xlink:title=" ">
<polygon fill="white" stroke="#666666" points="972,-96 844,-96 844,-66 972,-66 972,-96"/>
<text text-anchor="start" x="852" y="-84" font-family="Helvetica,sans-Serif" font-size="10.00">src/libuvgvpccenc/utils</text>
<text text-anchor="middle" x="908" y="-73" font-family="Helvetica,sans-Serif" font-size="10.00">/commonMemory.hpp</text>
</a>
</g>
</g>
<!-- Node1&#45;&gt;Node12 -->
<g id="edge18_Node000001_Node000012" class="edge">
<title>Node1&#45;&gt;Node12</title>
<g id="a_edge18_Node000001_Node000012"><a xlink:title=" ">
<path fill="none" stroke="#63b8ff" d="M840.16,-126.3C855.08,-116.56 872.75,-105.02 886.31,-96.16"/>
<polygon fill="#63b8ff" stroke="#63b8ff" points="838.21,-123.4 831.75,-131.8 842.04,-129.26 838.21,-123.4"/>
</a>
</g>
</g>
<!-- Node4&#45;&gt;Node3 -->
<g id="edge5_Node000004_Node000003" class="edge">
<title>Node4&#45;&gt;Node3</title>
<g id="a_edge5_Node000004_Node000003"><a xlink:title=" ">
<path fill="none" stroke="#63b8ff" d="M450.82,-62.86C417.74,-52.58 376.21,-39.68 345.1,-30.01"/>
<polygon fill="#63b8ff" stroke="#63b8ff" points="450.2,-66.33 460.79,-65.95 452.28,-59.65 450.2,-66.33"/>
</a>
</g>
</g>
<!-- Node5 -->
<g id="Node000005" class="node">
<title>Node5</title>
<g id="a_Node000005"><a xlink:href="patchGeneration_8cpp.html" target="_top" xlink:title=" ">
<polygon fill="white" stroke="#666666" points="600,-30 412,-30 412,0 600,0 600,-30"/>
<text text-anchor="start" x="420" y="-18" font-family="Helvetica,sans-Serif" font-size="10.00">src/libuvgvpccenc/patchGeneration</text>
<text text-anchor="middle" x="506" y="-7" font-family="Helvetica,sans-Serif" font-size="10.00">/patchGeneration.cpp</text>
</a>
</g>
</g>
<!-- Node4&#45;&gt;Node5 -->
<g id="edge4_Node000004_Node000005" class="edge">
<title>Node4&#45;&gt;Node5</title>
<g id="a_edge4_Node000004_Node000005"><a xlink:title=" ">
<path fill="none" stroke="#63b8ff" d="M506,-55.54C506,-46.96 506,-37.61 506,-30.16"/>
<polygon fill="#63b8ff" stroke="#63b8ff" points="502.5,-55.8 506,-65.8 509.5,-55.8 502.5,-55.8"/>
</a>
</g>
</g>
<!-- Node8&#45;&gt;Node6 -->
<g id="edge9_Node000008_Node000006" class="edge">
<title>Node8&#45;&gt;Node6</title>
<g id="a_edge9_Node000008_Node000006"><a xlink:title=" ">
<path fill="none" stroke="#63b8ff" d="M1305.18,-62.86C1338.26,-52.58 1379.79,-39.68 1410.9,-30.01"/>
<polygon fill="#63b8ff" stroke="#63b8ff" points="1303.72,-59.65 1295.21,-65.95 1305.8,-66.33 1303.72,-59.65"/>
</a>
</g>
</g>
<!-- Node8&#45;&gt;Node7 -->
<g id="edge10_Node000008_Node000007" class="edge">
<title>Node8&#45;&gt;Node7</title>
<g id="a_edge10_Node000008_Node000007"><a xlink:title=" ">
<path fill="none" stroke="#63b8ff" d="M1250,-55.54C1250,-46.96 1250,-37.61 1250,-30.16"/>
<polygon fill="#63b8ff" stroke="#63b8ff" points="1246.5,-55.8 1250,-65.8 1253.5,-55.8 1246.5,-55.8"/>
</a>
</g>
</g>
<!-- Node9&#45;&gt;Node2 -->
<g id="edge14_Node000009_Node000002" class="edge">
<title>Node9&#45;&gt;Node2</title>
<g id="a_edge14_Node000009_Node000002"><a xlink:title=" ">
<path fill="none" stroke="#63b8ff" d="M608.02,-65.93C424.64,-45.78 376.46,-50.03 197,-30 194.04,-29.67 191.04,-29.32 188,-28.97"/>
<polygon fill="#63b8ff" stroke="#63b8ff" points="607.67,-69.41 618,-67.03 608.45,-62.45 607.67,-69.41"/>
</a>
</g>
</g>
<!-- Node9&#45;&gt;Node3 -->
<g id="edge15_Node000009_Node000003" class="edge">
<title>Node9&#45;&gt;Node3</title>
<g id="a_edge15_Node000009_Node000003"><a xlink:title=" ">
<path fill="none" stroke="#63b8ff" d="M611.6,-64.4C544.03,-53.91 455.68,-40.18 390.31,-30.03"/>
<polygon fill="#63b8ff" stroke="#63b8ff" points="611.42,-67.92 621.84,-65.99 612.5,-61 611.42,-67.92"/>
</a>
</g>
</g>
<!-- Node9&#45;&gt;Node5 -->
<g id="edge13_Node000009_Node000005" class="edge">
<title>Node9&#45;&gt;Node5</title>
<g id="a_edge13_Node000009_Node000005"><a xlink:title=" ">
<path fill="none" stroke="#63b8ff" d="M656.82,-62.86C623.74,-52.58 582.21,-39.68 551.1,-30.01"/>
<polygon fill="#63b8ff" stroke="#63b8ff" points="656.2,-66.33 666.79,-65.95 658.28,-59.65 656.2,-66.33"/>
</a>
</g>
</g>
<!-- Node9&#45;&gt;Node7 -->
<g id="edge16_Node000009_Node000007" class="edge">
<title>Node9&#45;&gt;Node7</title>
<g id="a_edge16_Node000009_Node000007"><a xlink:title=" ">
<path fill="none" stroke="#63b8ff" d="M816.36,-68.12C934.58,-54.64 1115.03,-34.01 1147,-30 1149.95,-29.63 1152.96,-29.25 1155.99,-28.86"/>
<polygon fill="#63b8ff" stroke="#63b8ff" points="815.73,-64.67 806.19,-69.28 816.52,-71.62 815.73,-64.67"/>
</a>
</g>
</g>
<!-- Node10 -->
<g id="Node000010" class="node">
<title>Node10</title>
<g id="a_Node000010"><a xlink:href="normalOrientation_8cpp.html" target="_top" xlink:title=" ">
<polygon fill="white" stroke="#666666" points="806,-30 618,-30 618,0 806,0 806,-30"/>
<text text-anchor="start" x="626" y="-18" font-family="Helvetica,sans-Serif" font-size="10.00">src/libuvgvpccenc/patchGeneration</text>
<text text-anchor="middle" x="712" y="-7" font-family="Helvetica,sans-Serif" font-size="10.00">/normalOrientation.cpp</text>
</a>
</g>
</g>
<!-- Node9&#45;&gt;Node10 -->
<g id="edge12_Node000009_Node000010" class="edge">
<title>Node9&#45;&gt;Node10</title>
<g id="a_edge12_Node000009_Node000010"><a xlink:title=" ">
<path fill="none" stroke="#63b8ff" d="M712,-55.54C712,-46.96 712,-37.61 712,-30.16"/>
<polygon fill="#63b8ff" stroke="#63b8ff" points="708.5,-55.8 712,-65.8 715.5,-55.8 708.5,-55.8"/>
</a>
</g>
</g>
<!-- Node11 -->
<g id="Node000011" class="node">
<title>Node11</title>
<g id="a_Node000011"><a xlink:href="uvgvpcc_8cpp.html" target="_top" xlink:title=" ">
<polygon fill="white" stroke="#666666" points="991.5,-24.5 824.5,-24.5 824.5,-5.5 991.5,-5.5 991.5,-24.5"/>
<text text-anchor="middle" x="908" y="-12.5" font-family="Helvetica,sans-Serif" font-size="10.00">src/libuvgvpccenc/uvgvpcc.cpp</text>
</a>
</g>
</g>
<!-- Node9&#45;&gt;Node11 -->
<g id="edge17_Node000009_Node000011" class="edge">
<title>Node9&#45;&gt;Node11</title>
<g id="a_edge17_Node000009_Node000011"><a xlink:title=" ">
<path fill="none" stroke="#63b8ff" d="M764.87,-62.74C802.76,-50.36 852.17,-34.23 881.92,-24.52"/>
<polygon fill="#63b8ff" stroke="#63b8ff" points="763.43,-59.52 755.01,-65.95 765.61,-66.18 763.43,-59.52"/>
</a>
</g>
</g>
<!-- Node12&#45;&gt;Node11 -->
<g id="edge20_Node000012_Node000011" class="edge">
<title>Node12&#45;&gt;Node11</title>
<g id="a_edge20_Node000012_Node000011"><a xlink:title=" ">
<path fill="none" stroke="#63b8ff" d="M908,-55.6C908,-44.8 908,-32.78 908,-24.84"/>
<polygon fill="#63b8ff" stroke="#63b8ff" points="904.5,-55.8 908,-65.8 911.5,-55.8 904.5,-55.8"/>
</a>
</g>
</g>
<!-- Node13 -->
<g id="Node000013" class="node">
<title>Node13</title>
<g id="a_Node000013"><a xlink:href="commonMemory_8cpp.html" target="_top" xlink:title=" ">
<polygon fill="white" stroke="#666666" points="1138,-30 1010,-30 1010,0 1138,0 1138,-30"/>
<text text-anchor="start" x="1018" y="-18" font-family="Helvetica,sans-Serif" font-size="10.00">src/libuvgvpccenc/utils</text>
<text text-anchor="middle" x="1074" y="-7" font-family="Helvetica,sans-Serif" font-size="10.00">/commonMemory.cpp</text>
</a>
</g>
</g>
<!-- Node12&#45;&gt;Node13 -->
<g id="edge19_Node000012_Node000013" class="edge">
<title>Node12&#45;&gt;Node13</title>
<g id="a_edge19_Node000012_Node000013"><a xlink:title=" ">
<path fill="none" stroke="#63b8ff" d="M953.85,-62.32C980.27,-52.14 1013.02,-39.51 1037.66,-30.01"/>
<polygon fill="#63b8ff" stroke="#63b8ff" points="952.5,-59.09 944.43,-65.95 955.02,-65.62 952.5,-59.09"/>
</a>
</g>
</g>
</g>
</svg>

<g id="navigator" transform="translate(0 0)" fill="#404254">
  <rect fill="#f2f5e9" fill-opacity="0.5" stroke="#606060" stroke-width=".5" x="0" y="0" width="60" height="60"/>
  <use id="zoomplus" xlink:href="#zoomPlus" x="17" y="9" onmousedown="handleZoom(evt,'in')"/>
  <use id="zoomminus" xlink:href="#zoomMin" x="42" y="9" onmousedown="handleZoom(evt,'out')"/>
  <use id="reset" xlink:href="#resetDef" x="30" y="36" onmousedown="handleReset()"/>
   <use id="arrowup" xlink:href="#arrowUp" x="0" y="0" onmousedown="handlePan(0,-1)"/>
  <use id="arrowright" xlink:href="#arrowRight" x="0" y="0" onmousedown="handlePan(1,0)"/>
  <use id="arrowdown" xlink:href="#arrowDown" x="0" y="0" onmousedown="handlePan(0,1)"/>
  <use id="arrowleft" xlink:href="#arrowLeft" x="0" y="0" onmousedown="handlePan(-1,0)"/>
</g>
<svg viewBox="0 0 15 15" width="100%" height="30px" preserveAspectRatio="xMaxYMin meet">
 <g id="arrow_out" transform="scale(0.3 0.3)">
  <a xlink:href="robin__hood_8h__dep__incl_org.svg" target="_base">
   <rect id="button" ry="5" rx="5" y="6" x="6" height="38" width="38"
        fill="#f2f5e9" fill-opacity="0.5" stroke="#606060" stroke-width="1.0"/>
   <path id="arrow"
     d="M 11.500037,31.436501 C 11.940474,20.09759 22.043105,11.32322 32.158766,21.979434 L 37.068811,17.246167 C 37.068811,17.246167 37.088388,32 37.088388,32 L 22.160133,31.978069 C 22.160133,31.978069 26.997745,27.140456 26.997745,27.140456 C 18.528582,18.264221 13.291696,25.230495 11.500037,31.436501 z"
     style="fill:#404040;"/>
  </a>
 </g>
</svg>

<style type='text/css'>
<![CDATA[
[data-mouse-over-selected='false'] { opacity: 0.7; }
[data-mouse-over-selected='true']  { opacity: 1.0; }
]]>
</style>
<script type="application/ecmascript"><![CDATA[
document.addEventListener('DOMContentLoaded', (event) => {
  highlightEdges();
  highlightAdjacentNodes();
});
]]></script>
</svg>
