<?xml version="1.0" encoding="UTF-8" standalone="no"?>
<!DOCTYPE svg PUBLIC "-//W3C//DTD SVG 1.1//EN"
 "http://www.w3.org/Graphics/SVG/1.1/DTD/svg11.dtd">
<!-- Generated by graphviz version 2.43.0 (0)
 -->
<!-- Title: src/libuvgvpccenc/patchGeneration/slicingPpiSegmenter.hpp Pages: 1 -->
<svg width="1847pt" height="269pt"
 viewBox="0.00 0.00 1846.97 269.00" xmlns="http://www.w3.org/2000/svg" xmlns:xlink="http://www.w3.org/1999/xlink">
<g id="graph0" class="graph" transform="scale(1 1) rotate(0) translate(4 265)">
<title>src/libuvgvpccenc/patchGeneration/slicingPpiSegmenter.hpp</title>
<!-- Node1 -->
<g id="Node000001" class="node">
<title>Node1</title>
<g id="a_Node000001"><a xlink:title=" ">
<polygon fill="#999999" stroke="#666666" points="982.5,-261 794.5,-261 794.5,-231 982.5,-231 982.5,-261"/>
<text text-anchor="start" x="802.5" y="-249" font-family="Helvetica,sans-Serif" font-size="10.00">src/libuvgvpccenc/patchGeneration</text>
<text text-anchor="middle" x="888.5" y="-238" font-family="Helvetica,sans-Serif" font-size="10.00">/slicingPpiSegmenter.hpp</text>
</a>
</g>
</g>
<!-- Node2 -->
<g id="Node000002" class="node">
<title>Node2</title>
<g id="a_Node000002"><a xlink:title=" ">
<polygon fill="#e0e0e0" stroke="#999999" points="812.5,-74 762.5,-74 762.5,-55 812.5,-55 812.5,-74"/>
<text text-anchor="middle" x="787.5" y="-62" font-family="Helvetica,sans-Serif" font-size="10.00">cstdint</text>
</a>
</g>
</g>
<!-- Node1&#45;&gt;Node2 -->
<g id="edge1_Node000001_Node000002" class="edge">
<title>Node1&#45;&gt;Node2</title>
<g id="a_edge1_Node000001_Node000002"><a xlink:title=" ">
<path fill="none" stroke="#63b8ff" d="M843.9,-230.94C823.66,-222.88 800.51,-211.1 783.5,-195 753.7,-166.8 732.81,-148.31 747.5,-110 751.74,-98.94 760.14,-88.91 768.14,-81.18"/>
<polygon fill="#63b8ff" stroke="#63b8ff" points="770.75,-83.55 775.86,-74.27 766.08,-78.33 770.75,-83.55"/>
</a>
</g>
</g>
<!-- Node3 -->
<g id="Node000003" class="node">
<title>Node3</title>
<g id="a_Node000003"><a xlink:title=" ">
<polygon fill="#e0e0e0" stroke="#999999" points="1121,-129 1074,-129 1074,-110 1121,-110 1121,-129"/>
<text text-anchor="middle" x="1097.5" y="-117" font-family="Helvetica,sans-Serif" font-size="10.00">vector</text>
</a>
</g>
</g>
<!-- Node1&#45;&gt;Node3 -->
<g id="edge2_Node000001_Node000003" class="edge">
<title>Node1&#45;&gt;Node3</title>
<g id="a_edge2_Node000001_Node000003"><a xlink:title=" ">
<path fill="none" stroke="#63b8ff" d="M912.07,-230.96C952.39,-206.94 1034.14,-158.24 1074.25,-134.35"/>
<polygon fill="#63b8ff" stroke="#63b8ff" points="1076.25,-137.23 1083.05,-129.11 1072.66,-131.22 1076.25,-137.23"/>
</a>
</g>
</g>
<!-- Node4 -->
<g id="Node000004" class="node">
<title>Node4</title>
<g id="a_Node000004"><a xlink:href="robin__hood_8h.html" target="_top" xlink:title=" ">
<polygon fill="white" stroke="#666666" points="471,-195 346,-195 346,-165 471,-165 471,-195"/>
<text text-anchor="start" x="354" y="-183" font-family="Helvetica,sans-Serif" font-size="10.00">patchGeneration/robin</text>
<text text-anchor="middle" x="408.5" y="-172" font-family="Helvetica,sans-Serif" font-size="10.00">_hood.h</text>
</a>
</g>
</g>
<!-- Node1&#45;&gt;Node4 -->
<g id="edge3_Node000001_Node000004" class="edge">
<title>Node1&#45;&gt;Node4</title>
<g id="a_edge3_Node000001_Node000004"><a xlink:title=" ">
<path fill="none" stroke="#63b8ff" d="M794.24,-232.43C702.41,-220.19 564.78,-201.84 481.14,-190.69"/>
<polygon fill="#63b8ff" stroke="#63b8ff" points="481.59,-187.21 471.22,-189.36 480.66,-194.15 481.59,-187.21"/>
</a>
</g>
</g>
<!-- Node15 -->
<g id="Node000015" class="node">
<title>Node15</title>
<g id="a_Node000015"><a xlink:href="constants_8hpp.html" target="_top" xlink:title=" ">
<polygon fill="white" stroke="#666666" points="902,-189.5 793,-189.5 793,-170.5 902,-170.5 902,-189.5"/>
<text text-anchor="middle" x="847.5" y="-177.5" font-family="Helvetica,sans-Serif" font-size="10.00">utils/constants.hpp</text>
</a>
</g>
</g>
<!-- Node1&#45;&gt;Node15 -->
<g id="edge14_Node000001_Node000015" class="edge">
<title>Node1&#45;&gt;Node15</title>
<g id="a_edge14_Node000001_Node000015"><a xlink:title=" ">
<path fill="none" stroke="#63b8ff" d="M879.4,-230.8C873.26,-221.21 865.12,-208.5 858.6,-198.32"/>
<polygon fill="#63b8ff" stroke="#63b8ff" points="861.51,-196.38 853.17,-189.84 855.61,-200.15 861.51,-196.38"/>
</a>
</g>
</g>
<!-- Node20 -->
<g id="Node000020" class="node">
<title>Node20</title>
<g id="a_Node000020"><a xlink:href="utils_8hpp.html" target="_top" xlink:title=" ">
<polygon fill="white" stroke="#666666" points="979,-129 878,-129 878,-110 979,-110 979,-129"/>
<text text-anchor="middle" x="928.5" y="-117" font-family="Helvetica,sans-Serif" font-size="10.00">uvgutils/utils.hpp</text>
</a>
</g>
</g>
<!-- Node1&#45;&gt;Node20 -->
<g id="edge35_Node000001_Node000020" class="edge">
<title>Node1&#45;&gt;Node20</title>
<g id="a_edge35_Node000001_Node000020"><a xlink:title=" ">
<path fill="none" stroke="#63b8ff" d="M895.54,-230.83C900.25,-220.96 906.31,-207.4 910.5,-195 916.74,-176.52 921.74,-154.77 924.87,-139.55"/>
<polygon fill="#63b8ff" stroke="#63b8ff" points="928.38,-139.85 926.89,-129.36 921.51,-138.49 928.38,-139.85"/>
</a>
</g>
</g>
<!-- Node26 -->
<g id="Node000026" class="node">
<title>Node26</title>
<g id="a_Node000026"><a xlink:href="uvgvpcc_8hpp.html" target="_top" xlink:title=" ">
<polygon fill="white" stroke="#666666" points="1340.5,-189.5 1218.5,-189.5 1218.5,-170.5 1340.5,-170.5 1340.5,-189.5"/>
<text text-anchor="middle" x="1279.5" y="-177.5" font-family="Helvetica,sans-Serif" font-size="10.00">uvgvpcc/uvgvpcc.hpp</text>
</a>
</g>
</g>
<!-- Node1&#45;&gt;Node26 -->
<g id="edge36_Node000001_Node000026" class="edge">
<title>Node1&#45;&gt;Node26</title>
<g id="a_edge36_Node000001_Node000026"><a xlink:title=" ">
<path fill="none" stroke="#63b8ff" d="M974.31,-230.95C1047.71,-218.94 1151.62,-201.93 1217.27,-191.19"/>
<polygon fill="#63b8ff" stroke="#63b8ff" points="1218.16,-194.59 1227.46,-189.52 1217.03,-187.68 1218.16,-194.59"/>
</a>
</g>
</g>
<!-- Node5 -->
<g id="Node000005" class="node">
<title>Node5</title>
<g id="a_Node000005"><a xlink:title=" ">
<polygon fill="#e0e0e0" stroke="#999999" points="297.5,-129 233.5,-129 233.5,-110 297.5,-110 297.5,-129"/>
<text text-anchor="middle" x="265.5" y="-117" font-family="Helvetica,sans-Serif" font-size="10.00">algorithm</text>
</a>
</g>
</g>
<!-- Node4&#45;&gt;Node5 -->
<g id="edge4_Node000004_Node000005" class="edge">
<title>Node4&#45;&gt;Node5</title>
<g id="a_edge4_Node000004_Node000005"><a xlink:title=" ">
<path fill="none" stroke="#63b8ff" d="M374.25,-164.99C350.39,-155.23 318.85,-142.33 295.89,-132.93"/>
<polygon fill="#63b8ff" stroke="#63b8ff" points="297.2,-129.69 286.62,-129.14 294.55,-136.17 297.2,-129.69"/>
</a>
</g>
</g>
<!-- Node6 -->
<g id="Node000006" class="node">
<title>Node6</title>
<g id="a_Node000006"><a xlink:title=" ">
<polygon fill="#e0e0e0" stroke="#999999" points="365,-129 316,-129 316,-110 365,-110 365,-129"/>
<text text-anchor="middle" x="340.5" y="-117" font-family="Helvetica,sans-Serif" font-size="10.00">cstdlib</text>
</a>
</g>
</g>
<!-- Node4&#45;&gt;Node6 -->
<g id="edge5_Node000004_Node000006" class="edge">
<title>Node4&#45;&gt;Node6</title>
<g id="a_edge5_Node000004_Node000006"><a xlink:title=" ">
<path fill="none" stroke="#63b8ff" d="M392.04,-164.84C381.87,-156.09 368.81,-144.85 358.38,-135.88"/>
<polygon fill="#63b8ff" stroke="#63b8ff" points="360.55,-133.13 350.69,-129.27 355.99,-138.44 360.55,-133.13"/>
</a>
</g>
</g>
<!-- Node7 -->
<g id="Node000007" class="node">
<title>Node7</title>
<g id="a_Node000007"><a xlink:title=" ">
<polygon fill="#e0e0e0" stroke="#999999" points="433.5,-129 383.5,-129 383.5,-110 433.5,-110 433.5,-129"/>
<text text-anchor="middle" x="408.5" y="-117" font-family="Helvetica,sans-Serif" font-size="10.00">cstring</text>
</a>
</g>
</g>
<!-- Node4&#45;&gt;Node7 -->
<g id="edge6_Node000004_Node000007" class="edge">
<title>Node4&#45;&gt;Node7</title>
<g id="a_edge6_Node000004_Node000007"><a xlink:title=" ">
<path fill="none" stroke="#63b8ff" d="M408.5,-164.84C408.5,-157.21 408.5,-147.7 408.5,-139.45"/>
<polygon fill="#63b8ff" stroke="#63b8ff" points="412,-139.27 408.5,-129.27 405,-139.27 412,-139.27"/>
</a>
</g>
</g>
<!-- Node8 -->
<g id="Node000008" class="node">
<title>Node8</title>
<g id="a_Node000008"><a xlink:title=" ">
<polygon fill="#e0e0e0" stroke="#999999" points="517,-129 452,-129 452,-110 517,-110 517,-129"/>
<text text-anchor="middle" x="484.5" y="-117" font-family="Helvetica,sans-Serif" font-size="10.00">functional</text>
</a>
</g>
</g>
<!-- Node4&#45;&gt;Node8 -->
<g id="edge7_Node000004_Node000008" class="edge">
<title>Node4&#45;&gt;Node8</title>
<g id="a_edge7_Node000004_Node000008"><a xlink:title=" ">
<path fill="none" stroke="#63b8ff" d="M426.9,-164.84C438.38,-156 453.15,-144.63 464.86,-135.62"/>
<polygon fill="#63b8ff" stroke="#63b8ff" points="467.32,-138.14 473.11,-129.27 463.05,-132.59 467.32,-138.14"/>
</a>
</g>
</g>
<!-- Node9 -->
<g id="Node000009" class="node">
<title>Node9</title>
<g id="a_Node000009"><a xlink:title=" ">
<polygon fill="#e0e0e0" stroke="#999999" points="744.5,-74 700.5,-74 700.5,-55 744.5,-55 744.5,-74"/>
<text text-anchor="middle" x="722.5" y="-62" font-family="Helvetica,sans-Serif" font-size="10.00">limits</text>
</a>
</g>
</g>
<!-- Node4&#45;&gt;Node9 -->
<g id="edge8_Node000004_Node000009" class="edge">
<title>Node4&#45;&gt;Node9</title>
<g id="a_edge8_Node000004_Node000009"><a xlink:title=" ">
<path fill="none" stroke="#63b8ff" d="M453.33,-164.9C483.49,-155.23 524.07,-141.87 559.5,-129 581.07,-121.17 586.13,-118.36 607.5,-110 635.63,-98.99 667.69,-86.6 690.8,-77.69"/>
<polygon fill="#63b8ff" stroke="#63b8ff" points="692.36,-80.84 700.43,-73.98 689.84,-74.31 692.36,-80.84"/>
</a>
</g>
</g>
<!-- Node10 -->
<g id="Node000010" class="node">
<title>Node10</title>
<g id="a_Node000010"><a xlink:title=" ">
<polygon fill="#e0e0e0" stroke="#999999" points="821.5,-129 763.5,-129 763.5,-110 821.5,-110 821.5,-129"/>
<text text-anchor="middle" x="792.5" y="-117" font-family="Helvetica,sans-Serif" font-size="10.00">memory</text>
</a>
</g>
</g>
<!-- Node4&#45;&gt;Node10 -->
<g id="edge9_Node000004_Node000010" class="edge">
<title>Node4&#45;&gt;Node10</title>
<g id="a_edge9_Node000004_Node000010"><a xlink:title=" ">
<path fill="none" stroke="#63b8ff" d="M471.05,-169.47C550.94,-157.3 686.78,-136.61 753.36,-126.46"/>
<polygon fill="#63b8ff" stroke="#63b8ff" points="754.08,-129.89 763.44,-124.93 753.02,-122.97 754.08,-129.89"/>
</a>
</g>
</g>
<!-- Node11 -->
<g id="Node000011" class="node">
<title>Node11</title>
<g id="a_Node000011"><a xlink:title=" ">
<polygon fill="#e0e0e0" stroke="#999999" points="65,-129 0,-129 0,-110 65,-110 65,-129"/>
<text text-anchor="middle" x="32.5" y="-117" font-family="Helvetica,sans-Serif" font-size="10.00">stdexcept</text>
</a>
</g>
</g>
<!-- Node4&#45;&gt;Node11 -->
<g id="edge10_Node000004_Node000011" class="edge">
<title>Node4&#45;&gt;Node11</title>
<g id="a_edge10_Node000004_Node000011"><a xlink:title=" ">
<path fill="none" stroke="#63b8ff" d="M345.97,-170.74C280.72,-161.88 175.23,-146.87 75.12,-129.21"/>
<polygon fill="#63b8ff" stroke="#63b8ff" points="75.6,-125.74 65.14,-127.44 74.38,-132.63 75.6,-125.74"/>
</a>
</g>
</g>
<!-- Node12 -->
<g id="Node000012" class="node">
<title>Node12</title>
<g id="a_Node000012"><a xlink:title=" ">
<polygon fill="#e0e0e0" stroke="#999999" points="853.5,-19 809.5,-19 809.5,0 853.5,0 853.5,-19"/>
<text text-anchor="middle" x="831.5" y="-7" font-family="Helvetica,sans-Serif" font-size="10.00">string</text>
</a>
</g>
</g>
<!-- Node4&#45;&gt;Node12 -->
<g id="edge11_Node000004_Node000012" class="edge">
<title>Node4&#45;&gt;Node12</title>
<g id="a_edge11_Node000004_Node000012"><a xlink:title=" ">
<path fill="none" stroke="#63b8ff" d="M444.01,-164.97C467.43,-155.43 498.64,-142.2 525.5,-129 541.04,-121.37 543.93,-117.56 559.5,-110 616.67,-82.23 631.83,-76.87 691.5,-55 728.18,-41.56 771.09,-28.27 799.64,-19.76"/>
<polygon fill="#63b8ff" stroke="#63b8ff" points="800.88,-23.05 809.48,-16.85 798.89,-16.33 800.88,-23.05"/>
</a>
</g>
</g>
<!-- Node13 -->
<g id="Node000013" class="node">
<title>Node13</title>
<g id="a_Node000013"><a xlink:title=" ">
<polygon fill="#e0e0e0" stroke="#999999" points="152,-129 83,-129 83,-110 152,-110 152,-129"/>
<text text-anchor="middle" x="117.5" y="-117" font-family="Helvetica,sans-Serif" font-size="10.00">type_traits</text>
</a>
</g>
</g>
<!-- Node4&#45;&gt;Node13 -->
<g id="edge12_Node000004_Node000013" class="edge">
<title>Node4&#45;&gt;Node13</title>
<g id="a_edge12_Node000004_Node000013"><a xlink:title=" ">
<path fill="none" stroke="#63b8ff" d="M345.72,-166.38C290.5,-155.28 211.48,-139.39 162.39,-129.52"/>
<polygon fill="#63b8ff" stroke="#63b8ff" points="162.88,-126.05 152.39,-127.51 161.5,-132.92 162.88,-126.05"/>
</a>
</g>
</g>
<!-- Node14 -->
<g id="Node000014" class="node">
<title>Node14</title>
<g id="a_Node000014"><a xlink:title=" ">
<polygon fill="#e0e0e0" stroke="#999999" points="215,-129 170,-129 170,-110 215,-110 215,-129"/>
<text text-anchor="middle" x="192.5" y="-117" font-family="Helvetica,sans-Serif" font-size="10.00">utility</text>
</a>
</g>
</g>
<!-- Node4&#45;&gt;Node14 -->
<g id="edge13_Node000004_Node000014" class="edge">
<title>Node4&#45;&gt;Node14</title>
<g id="a_edge13_Node000004_Node000014"><a xlink:title=" ">
<path fill="none" stroke="#63b8ff" d="M356.76,-164.99C315.75,-153.88 259.73,-138.71 224.85,-129.26"/>
<polygon fill="#63b8ff" stroke="#63b8ff" points="225.75,-125.88 215.18,-126.64 223.92,-132.63 225.75,-125.88"/>
</a>
</g>
</g>
<!-- Node15&#45;&gt;Node2 -->
<g id="edge17_Node000015_Node000002" class="edge">
<title>Node15&#45;&gt;Node2</title>
<g id="a_edge17_Node000015_Node000002"><a xlink:title=" ">
<path fill="none" stroke="#63b8ff" d="M813.79,-170.45C792.74,-163.17 767.29,-150.4 754.5,-129 745.1,-113.28 757.47,-94.61 769.65,-81.6"/>
<polygon fill="#63b8ff" stroke="#63b8ff" points="772.37,-83.83 777.02,-74.31 767.45,-78.86 772.37,-83.83"/>
</a>
</g>
</g>
<!-- Node15&#45;&gt;Node9 -->
<g id="edge19_Node000015_Node000009" class="edge">
<title>Node15&#45;&gt;Node9</title>
<g id="a_edge19_Node000015_Node000009"><a xlink:title=" ">
<path fill="none" stroke="#63b8ff" d="M817.2,-170.34C795.25,-162.68 766.24,-149.48 747.5,-129 736.01,-116.45 729.55,-98 726.08,-84.21"/>
<polygon fill="#63b8ff" stroke="#63b8ff" points="729.48,-83.37 723.91,-74.36 722.65,-84.88 729.48,-83.37"/>
</a>
</g>
</g>
<!-- Node16 -->
<g id="Node000016" class="node">
<title>Node16</title>
<g id="a_Node000016"><a xlink:title=" ">
<polygon fill="#e0e0e0" stroke="#999999" points="1056.5,-74 1014.5,-74 1014.5,-55 1056.5,-55 1056.5,-74"/>
<text text-anchor="middle" x="1035.5" y="-62" font-family="Helvetica,sans-Serif" font-size="10.00">array</text>
</a>
</g>
</g>
<!-- Node15&#45;&gt;Node16 -->
<g id="edge15_Node000015_Node000016" class="edge">
<title>Node15&#45;&gt;Node16</title>
<g id="a_edge15_Node000015_Node000016"><a xlink:title=" ">
<path fill="none" stroke="#63b8ff" d="M890.7,-170.44C920.07,-163.05 958.69,-150.15 987.5,-129 1004.15,-116.77 1017.73,-97.17 1026.14,-82.98"/>
<polygon fill="#63b8ff" stroke="#63b8ff" points="1029.24,-84.6 1031.11,-74.17 1023.14,-81.16 1029.24,-84.6"/>
</a>
</g>
</g>
<!-- Node17 -->
<g id="Node000017" class="node">
<title>Node17</title>
<g id="a_Node000017"><a xlink:title=" ">
<polygon fill="#e0e0e0" stroke="#999999" points="1128,-74 1075,-74 1075,-55 1128,-55 1128,-74"/>
<text text-anchor="middle" x="1101.5" y="-62" font-family="Helvetica,sans-Serif" font-size="10.00">cstddef</text>
</a>
</g>
</g>
<!-- Node15&#45;&gt;Node17 -->
<g id="edge16_Node000015_Node000017" class="edge">
<title>Node15&#45;&gt;Node17</title>
<g id="a_edge16_Node000015_Node000017"><a xlink:title=" ">
<path fill="none" stroke="#63b8ff" d="M887.94,-170.48C921.98,-162.42 971.4,-148.63 1011.5,-129 1038.41,-115.83 1066.1,-94.99 1083.53,-80.81"/>
<polygon fill="#63b8ff" stroke="#63b8ff" points="1086.18,-83.15 1091.65,-74.07 1081.71,-77.76 1086.18,-83.15"/>
</a>
</g>
</g>
<!-- Node18 -->
<g id="Node000018" class="node">
<title>Node18</title>
<g id="a_Node000018"><a xlink:title=" ">
<polygon fill="#e0e0e0" stroke="#999999" points="791.5,-19 735.5,-19 735.5,0 791.5,0 791.5,-19"/>
<text text-anchor="middle" x="763.5" y="-7" font-family="Helvetica,sans-Serif" font-size="10.00">iomanip</text>
</a>
</g>
</g>
<!-- Node15&#45;&gt;Node18 -->
<g id="edge18_Node000015_Node000018" class="edge">
<title>Node15&#45;&gt;Node18</title>
<g id="a_edge18_Node000015_Node000018"><a xlink:title=" ">
<path fill="none" stroke="#63b8ff" d="M816.01,-170.47C791.19,-162.63 756.68,-149.13 731.5,-129 707.89,-110.12 700.85,-102.74 691.5,-74 688.89,-65.97 687.39,-62.38 691.5,-55 699.54,-40.58 714.4,-30.24 728.54,-23.18"/>
<polygon fill="#63b8ff" stroke="#63b8ff" points="730.01,-26.36 737.65,-19.01 727.1,-19.99 730.01,-26.36"/>
</a>
</g>
</g>
<!-- Node19 -->
<g id="Node000019" class="node">
<title>Node19</title>
<g id="a_Node000019"><a xlink:title=" ">
<polygon fill="#e0e0e0" stroke="#999999" points="996.5,-74 940.5,-74 940.5,-55 996.5,-55 996.5,-74"/>
<text text-anchor="middle" x="968.5" y="-62" font-family="Helvetica,sans-Serif" font-size="10.00">sstream</text>
</a>
</g>
</g>
<!-- Node15&#45;&gt;Node19 -->
<g id="edge20_Node000015_Node000019" class="edge">
<title>Node15&#45;&gt;Node19</title>
<g id="a_edge20_Node000015_Node000019"><a xlink:title=" ">
<path fill="none" stroke="#63b8ff" d="M847.89,-170.26C848.98,-155.97 853.08,-127.45 868.5,-110 884.5,-91.89 909.29,-80.79 930.18,-74.21"/>
<polygon fill="#63b8ff" stroke="#63b8ff" points="931.45,-77.48 940.07,-71.33 929.49,-70.76 931.45,-77.48"/>
</a>
</g>
</g>
<!-- Node15&#45;&gt;Node20 -->
<g id="edge21_Node000015_Node000020" class="edge">
<title>Node15&#45;&gt;Node20</title>
<g id="a_edge21_Node000015_Node000020"><a xlink:title=" ">
<path fill="none" stroke="#63b8ff" d="M859.45,-170.37C872.25,-161.12 892.8,-146.28 908.15,-135.19"/>
<polygon fill="#63b8ff" stroke="#63b8ff" points="910.44,-137.86 916.5,-129.17 906.34,-132.18 910.44,-137.86"/>
</a>
</g>
</g>
<!-- Node20&#45;&gt;Node2 -->
<g id="edge24_Node000020_Node000002" class="edge">
<title>Node20&#45;&gt;Node2</title>
<g id="a_edge24_Node000020_Node000002"><a xlink:title=" ">
<path fill="none" stroke="#63b8ff" d="M905.85,-109.98C882.65,-101.27 846.38,-87.63 820.1,-77.75"/>
<polygon fill="#63b8ff" stroke="#63b8ff" points="821.16,-74.41 810.57,-74.17 818.7,-80.97 821.16,-74.41"/>
</a>
</g>
</g>
<!-- Node20&#45;&gt;Node9 -->
<g id="edge26_Node000020_Node000009" class="edge">
<title>Node20&#45;&gt;Node9</title>
<g id="a_edge26_Node000020_Node000009"><a xlink:title=" ">
<path fill="none" stroke="#63b8ff" d="M894.25,-109.99C860.93,-101.67 808.64,-88.49 754.31,-74.18"/>
<polygon fill="#63b8ff" stroke="#63b8ff" points="755.06,-70.76 744.5,-71.59 753.28,-77.52 755.06,-70.76"/>
</a>
</g>
</g>
<!-- Node20&#45;&gt;Node16 -->
<g id="edge22_Node000020_Node000016" class="edge">
<title>Node20&#45;&gt;Node16</title>
<g id="a_edge22_Node000020_Node000016"><a xlink:title=" ">
<path fill="none" stroke="#63b8ff" d="M945.69,-109.98C962.75,-101.54 989.13,-88.47 1008.9,-78.68"/>
<polygon fill="#63b8ff" stroke="#63b8ff" points="1010.59,-81.75 1018,-74.17 1007.48,-75.47 1010.59,-81.75"/>
</a>
</g>
</g>
<!-- Node20&#45;&gt;Node17 -->
<g id="edge23_Node000020_Node000017" class="edge">
<title>Node20&#45;&gt;Node17</title>
<g id="a_edge23_Node000020_Node000017"><a xlink:title=" ">
<path fill="none" stroke="#63b8ff" d="M956.3,-109.98C985.9,-100.92 1032.87,-86.53 1065.34,-76.58"/>
<polygon fill="#63b8ff" stroke="#63b8ff" points="1066.37,-79.92 1074.91,-73.65 1064.32,-73.23 1066.37,-79.92"/>
</a>
</g>
</g>
<!-- Node20&#45;&gt;Node18 -->
<g id="edge25_Node000020_Node000018" class="edge">
<title>Node20&#45;&gt;Node18</title>
<g id="a_edge25_Node000020_Node000018"><a xlink:title=" ">
<path fill="none" stroke="#63b8ff" d="M914.98,-109.85C901.05,-100.92 878.71,-86.55 859.5,-74 833.79,-57.21 804.36,-37.7 784.93,-24.78"/>
<polygon fill="#63b8ff" stroke="#63b8ff" points="786.78,-21.8 776.51,-19.18 782.9,-27.63 786.78,-21.8"/>
</a>
</g>
</g>
<!-- Node20&#45;&gt;Node19 -->
<g id="edge27_Node000020_Node000019" class="edge">
<title>Node20&#45;&gt;Node19</title>
<g id="a_edge27_Node000020_Node000019"><a xlink:title=" ">
<path fill="none" stroke="#63b8ff" d="M935.11,-109.75C940.76,-102.26 949.04,-91.28 955.95,-82.13"/>
<polygon fill="#63b8ff" stroke="#63b8ff" points="958.79,-84.18 962.02,-74.09 953.2,-79.96 958.79,-84.18"/>
</a>
</g>
</g>
<!-- Node21 -->
<g id="Node000021" class="node">
<title>Node21</title>
<g id="a_Node000021"><a xlink:href="log_8hpp.html" target="_top" xlink:title=" ">
<polygon fill="white" stroke="#666666" points="922,-74 869,-74 869,-55 922,-55 922,-74"/>
<text text-anchor="middle" x="895.5" y="-62" font-family="Helvetica,sans-Serif" font-size="10.00">log.hpp</text>
</a>
</g>
</g>
<!-- Node20&#45;&gt;Node21 -->
<g id="edge28_Node000020_Node000021" class="edge">
<title>Node20&#45;&gt;Node21</title>
<g id="a_edge28_Node000020_Node000021"><a xlink:title=" ">
<path fill="none" stroke="#63b8ff" d="M923.05,-109.75C918.49,-102.42 911.83,-91.73 906.21,-82.7"/>
<polygon fill="#63b8ff" stroke="#63b8ff" points="909.1,-80.73 900.85,-74.09 903.16,-84.43 909.1,-80.73"/>
</a>
</g>
</g>
<!-- Node21&#45;&gt;Node12 -->
<g id="edge34_Node000021_Node000012" class="edge">
<title>Node21&#45;&gt;Node12</title>
<g id="a_edge34_Node000021_Node000012"><a xlink:title=" ">
<path fill="none" stroke="#63b8ff" d="M885.22,-54.98C875.66,-47.07 861.22,-35.11 849.72,-25.58"/>
<polygon fill="#63b8ff" stroke="#63b8ff" points="851.9,-22.85 841.97,-19.17 847.44,-28.24 851.9,-22.85"/>
</a>
</g>
</g>
<!-- Node21&#45;&gt;Node18 -->
<g id="edge31_Node000021_Node000018" class="edge">
<title>Node21&#45;&gt;Node18</title>
<g id="a_edge31_Node000021_Node000018"><a xlink:title=" ">
<path fill="none" stroke="#63b8ff" d="M874.29,-54.98C852.77,-46.34 819.22,-32.87 794.67,-23.02"/>
<polygon fill="#63b8ff" stroke="#63b8ff" points="795.68,-19.65 785.09,-19.17 793.07,-26.14 795.68,-19.65"/>
</a>
</g>
</g>
<!-- Node22 -->
<g id="Node000022" class="node">
<title>Node22</title>
<g id="a_Node000022"><a xlink:title=" ">
<polygon fill="#e0e0e0" stroke="#999999" points="987.5,-19 937.5,-19 937.5,0 987.5,0 987.5,-19"/>
<text text-anchor="middle" x="962.5" y="-7" font-family="Helvetica,sans-Serif" font-size="10.00">chrono</text>
</a>
</g>
</g>
<!-- Node21&#45;&gt;Node22 -->
<g id="edge29_Node000021_Node000022" class="edge">
<title>Node21&#45;&gt;Node22</title>
<g id="a_edge29_Node000021_Node000022"><a xlink:title=" ">
<path fill="none" stroke="#63b8ff" d="M906.26,-54.98C916.27,-47.07 931.39,-35.11 943.43,-25.58"/>
<polygon fill="#63b8ff" stroke="#63b8ff" points="945.87,-28.12 951.54,-19.17 941.53,-22.63 945.87,-28.12"/>
</a>
</g>
</g>
<!-- Node23 -->
<g id="Node000023" class="node">
<title>Node23</title>
<g id="a_Node000023"><a xlink:title=" ">
<polygon fill="#e0e0e0" stroke="#999999" points="1059,-19 1006,-19 1006,0 1059,0 1059,-19"/>
<text text-anchor="middle" x="1032.5" y="-7" font-family="Helvetica,sans-Serif" font-size="10.00">cstdarg</text>
</a>
</g>
</g>
<!-- Node21&#45;&gt;Node23 -->
<g id="edge30_Node000021_Node000023" class="edge">
<title>Node21&#45;&gt;Node23</title>
<g id="a_edge30_Node000021_Node000023"><a xlink:title=" ">
<path fill="none" stroke="#63b8ff" d="M917.51,-54.98C939.95,-46.3 974.98,-32.75 1000.49,-22.88"/>
<polygon fill="#63b8ff" stroke="#63b8ff" points="1002.02,-26.04 1010.09,-19.17 999.5,-19.51 1002.02,-26.04"/>
</a>
</g>
</g>
<!-- Node24 -->
<g id="Node000024" class="node">
<title>Node24</title>
<g id="a_Node000024"><a xlink:title=" ">
<polygon fill="#e0e0e0" stroke="#999999" points="1519.5,-19 1459.5,-19 1459.5,0 1519.5,0 1519.5,-19"/>
<text text-anchor="middle" x="1489.5" y="-7" font-family="Helvetica,sans-Serif" font-size="10.00">iostream</text>
</a>
</g>
</g>
<!-- Node21&#45;&gt;Node24 -->
<g id="edge32_Node000021_Node000024" class="edge">
<title>Node21&#45;&gt;Node24</title>
<g id="a_edge32_Node000021_Node000024"><a xlink:title=" ">
<path fill="none" stroke="#63b8ff" d="M922.15,-56.73C925.29,-56.08 928.45,-55.48 931.5,-55 1124.01,-24.78 1357.3,-14.6 1449.36,-11.61"/>
<polygon fill="#63b8ff" stroke="#63b8ff" points="1449.48,-15.1 1459.37,-11.29 1449.26,-8.11 1449.48,-15.1"/>
</a>
</g>
</g>
<!-- Node25 -->
<g id="Node000025" class="node">
<title>Node25</title>
<g id="a_Node000025"><a xlink:title=" ">
<polygon fill="#e0e0e0" stroke="#999999" points="919.5,-19 871.5,-19 871.5,0 919.5,0 919.5,-19"/>
<text text-anchor="middle" x="895.5" y="-7" font-family="Helvetica,sans-Serif" font-size="10.00">mutex</text>
</a>
</g>
</g>
<!-- Node21&#45;&gt;Node25 -->
<g id="edge33_Node000021_Node000025" class="edge">
<title>Node21&#45;&gt;Node25</title>
<g id="a_edge33_Node000021_Node000025"><a xlink:title=" ">
<path fill="none" stroke="#63b8ff" d="M895.5,-54.75C895.5,-47.8 895.5,-37.85 895.5,-29.13"/>
<polygon fill="#63b8ff" stroke="#63b8ff" points="899,-29.09 895.5,-19.09 892,-29.09 899,-29.09"/>
</a>
</g>
</g>
<!-- Node26&#45;&gt;Node2 -->
<g id="edge40_Node000026_Node000002" class="edge">
<title>Node26&#45;&gt;Node2</title>
<g id="a_edge40_Node000026_Node000002"><a xlink:title=" ">
<path fill="none" stroke="#63b8ff" d="M1257.82,-170.43C1234.29,-160.96 1195.75,-144.91 1163.5,-129 1147.98,-121.34 1145.93,-115.44 1129.5,-110 1115.04,-105.22 907.37,-79.91 822.87,-69.74"/>
<polygon fill="#63b8ff" stroke="#63b8ff" points="823.08,-66.24 812.73,-68.52 822.24,-73.19 823.08,-66.24"/>
</a>
</g>
</g>
<!-- Node26&#45;&gt;Node3 -->
<g id="edge47_Node000026_Node000003" class="edge">
<title>Node26&#45;&gt;Node3</title>
<g id="a_edge47_Node000026_Node000003"><a xlink:title=" ">
<path fill="none" stroke="#63b8ff" d="M1253.04,-170.49C1220.73,-160.11 1166.08,-142.54 1130.91,-131.24"/>
<polygon fill="#63b8ff" stroke="#63b8ff" points="1131.69,-127.81 1121.1,-128.09 1129.55,-134.48 1131.69,-127.81"/>
</a>
</g>
</g>
<!-- Node26&#45;&gt;Node10 -->
<g id="edge42_Node000026_Node000010" class="edge">
<title>Node26&#45;&gt;Node10</title>
<g id="a_edge42_Node000026_Node000010"><a xlink:title=" ">
<path fill="none" stroke="#63b8ff" d="M1218.31,-171.65C1116.79,-159.45 916.31,-135.37 831.68,-125.21"/>
<polygon fill="#63b8ff" stroke="#63b8ff" points="832.05,-121.73 821.7,-124.01 831.22,-128.68 832.05,-121.73"/>
</a>
</g>
</g>
<!-- Node26&#45;&gt;Node12 -->
<g id="edge46_Node000026_Node000012" class="edge">
<title>Node26&#45;&gt;Node12</title>
<g id="a_edge46_Node000026_Node000012"><a xlink:title=" ">
<path fill="none" stroke="#63b8ff" d="M1340.64,-177.52C1469.55,-173.75 1759.84,-161.71 1789.5,-129 1795.17,-122.74 1795.17,-116.26 1789.5,-110 1652.57,41.03 1083.63,-53.65 863.64,-18.79"/>
<polygon fill="#63b8ff" stroke="#63b8ff" points="864.19,-15.33 853.75,-17.09 863.01,-22.23 864.19,-15.33"/>
</a>
</g>
</g>
<!-- Node26&#45;&gt;Node16 -->
<g id="edge37_Node000026_Node000016" class="edge">
<title>Node26&#45;&gt;Node16</title>
<g id="a_edge37_Node000026_Node000016"><a xlink:title=" ">
<path fill="none" stroke="#63b8ff" d="M1272.26,-170.38C1259.49,-155.73 1231.47,-126.04 1201.5,-110 1149.07,-81.93 1127.89,-89.64 1066.56,-74.16"/>
<polygon fill="#63b8ff" stroke="#63b8ff" points="1067.35,-70.75 1056.79,-71.58 1065.57,-77.51 1067.35,-70.75"/>
</a>
</g>
</g>
<!-- Node26&#45;&gt;Node17 -->
<g id="edge39_Node000026_Node000017" class="edge">
<title>Node26&#45;&gt;Node17</title>
<g id="a_edge39_Node000026_Node000017"><a xlink:title=" ">
<path fill="none" stroke="#63b8ff" d="M1312.66,-170.41C1350.11,-159.14 1402.97,-137.53 1379.5,-110 1348.95,-74.17 1206.88,-67.06 1138.49,-65.74"/>
<polygon fill="#63b8ff" stroke="#63b8ff" points="1138.23,-62.24 1128.17,-65.58 1138.12,-69.24 1138.23,-62.24"/>
</a>
</g>
</g>
<!-- Node26&#45;&gt;Node19 -->
<g id="edge45_Node000026_Node000019" class="edge">
<title>Node26&#45;&gt;Node19</title>
<g id="a_edge45_Node000026_Node000019"><a xlink:title=" ">
<path fill="none" stroke="#63b8ff" d="M1266.1,-170.3C1240.34,-153.71 1184.61,-118.44 1163.5,-110 1099.5,-84.41 1077.59,-89.54 1006.64,-74.2"/>
<polygon fill="#63b8ff" stroke="#63b8ff" points="1007.3,-70.76 996.78,-72 1005.78,-77.59 1007.3,-70.76"/>
</a>
</g>
</g>
<!-- Node26&#45;&gt;Node20 -->
<g id="edge50_Node000026_Node000020" class="edge">
<title>Node26&#45;&gt;Node20</title>
<g id="a_edge50_Node000026_Node000020"><a xlink:title=" ">
<path fill="none" stroke="#63b8ff" d="M1228.46,-170.49C1164.98,-159.91 1056.75,-141.87 989.11,-130.6"/>
<polygon fill="#63b8ff" stroke="#63b8ff" points="989.47,-127.11 979.03,-128.92 988.32,-134.02 989.47,-127.11"/>
</a>
</g>
</g>
<!-- Node26&#45;&gt;Node24 -->
<g id="edge41_Node000026_Node000024" class="edge">
<title>Node26&#45;&gt;Node24</title>
<g id="a_edge41_Node000026_Node000024"><a xlink:title=" ">
<path fill="none" stroke="#63b8ff" d="M1340.74,-177.91C1475.95,-174.86 1790.54,-164.04 1822.5,-129 1844.66,-104.7 1844.16,-79.75 1822.5,-55 1803.46,-33.25 1614.17,-18.5 1529.76,-12.95"/>
<polygon fill="#63b8ff" stroke="#63b8ff" points="1529.73,-9.44 1519.53,-12.29 1529.28,-16.43 1529.73,-9.44"/>
</a>
</g>
</g>
<!-- Node27 -->
<g id="Node000027" class="node">
<title>Node27</title>
<g id="a_Node000027"><a xlink:title=" ">
<polygon fill="#e0e0e0" stroke="#999999" points="1305.5,-129 1253.5,-129 1253.5,-110 1305.5,-110 1305.5,-129"/>
<text text-anchor="middle" x="1279.5" y="-117" font-family="Helvetica,sans-Serif" font-size="10.00">cassert</text>
</a>
</g>
</g>
<!-- Node26&#45;&gt;Node27 -->
<g id="edge38_Node000026_Node000027" class="edge">
<title>Node26&#45;&gt;Node27</title>
<g id="a_edge38_Node000026_Node000027"><a xlink:title=" ">
<path fill="none" stroke="#63b8ff" d="M1279.5,-170.37C1279.5,-162.25 1279.5,-149.81 1279.5,-139.39"/>
<polygon fill="#63b8ff" stroke="#63b8ff" points="1283,-139.17 1279.5,-129.17 1276,-139.17 1283,-139.17"/>
</a>
</g>
</g>
<!-- Node28 -->
<g id="Node000028" class="node">
<title>Node28</title>
<g id="a_Node000028"><a xlink:title=" ">
<polygon fill="#e0e0e0" stroke="#999999" points="1371,-129 1324,-129 1324,-110 1371,-110 1371,-129"/>
<text text-anchor="middle" x="1347.5" y="-117" font-family="Helvetica,sans-Serif" font-size="10.00">queue</text>
</a>
</g>
</g>
<!-- Node26&#45;&gt;Node28 -->
<g id="edge43_Node000026_Node000028" class="edge">
<title>Node26&#45;&gt;Node28</title>
<g id="a_edge43_Node000026_Node000028"><a xlink:title=" ">
<path fill="none" stroke="#63b8ff" d="M1289.53,-170.37C1300.08,-161.3 1316.89,-146.84 1329.69,-135.82"/>
<polygon fill="#63b8ff" stroke="#63b8ff" points="1332.13,-138.34 1337.43,-129.17 1327.56,-133.04 1332.13,-138.34"/>
</a>
</g>
</g>
<!-- Node29 -->
<g id="Node000029" class="node">
<title>Node29</title>
<g id="a_Node000029"><a xlink:title=" ">
<polygon fill="#e0e0e0" stroke="#999999" points="1499,-129 1428,-129 1428,-110 1499,-110 1499,-129"/>
<text text-anchor="middle" x="1463.5" y="-117" font-family="Helvetica,sans-Serif" font-size="10.00">semaphore</text>
</a>
</g>
</g>
<!-- Node26&#45;&gt;Node29 -->
<g id="edge44_Node000026_Node000029" class="edge">
<title>Node26&#45;&gt;Node29</title>
<g id="a_edge44_Node000026_Node000029"><a xlink:title=" ">
<path fill="none" stroke="#63b8ff" d="M1306.26,-170.49C1338.14,-160.36 1391.57,-143.37 1427.18,-132.05"/>
<polygon fill="#63b8ff" stroke="#63b8ff" points="1428.24,-135.38 1436.71,-129.02 1426.12,-128.71 1428.24,-135.38"/>
</a>
</g>
</g>
<!-- Node30 -->
<g id="Node000030" class="node">
<title>Node30</title>
<g id="a_Node000030"><a xlink:title=" ">
<polygon fill="#e0e0e0" stroke="#999999" points="1644,-129 1517,-129 1517,-110 1644,-110 1644,-129"/>
<text text-anchor="middle" x="1580.5" y="-117" font-family="Helvetica,sans-Serif" font-size="10.00">../utils/parameters.hpp</text>
</a>
</g>
</g>
<!-- Node26&#45;&gt;Node30 -->
<g id="edge48_Node000026_Node000030" class="edge">
<title>Node26&#45;&gt;Node30</title>
<g id="a_edge48_Node000026_Node000030"><a xlink:title=" ">
<path fill="none" stroke="#63b8ff" d="M1323.27,-170.49C1377.1,-160.03 1468.48,-142.27 1526.59,-130.98"/>
<polygon fill="#63b8ff" stroke="#63b8ff" points="1527.53,-134.36 1536.68,-129.02 1526.2,-127.49 1527.53,-134.36"/>
</a>
</g>
</g>
<!-- Node31 -->
<g id="Node000031" class="node">
<title>Node31</title>
<g id="a_Node000031"><a xlink:title=" ">
<polygon fill="#e0e0e0" stroke="#999999" points="1780.5,-129 1662.5,-129 1662.5,-110 1780.5,-110 1780.5,-129"/>
<text text-anchor="middle" x="1721.5" y="-117" font-family="Helvetica,sans-Serif" font-size="10.00">../utils/constants.hpp</text>
</a>
</g>
</g>
<!-- Node26&#45;&gt;Node31 -->
<g id="edge49_Node000026_Node000031" class="edge">
<title>Node26&#45;&gt;Node31</title>
<g id="a_edge49_Node000026_Node000031"><a xlink:title=" ">
<path fill="none" stroke="#63b8ff" d="M1340.96,-170.87C1422.67,-160.05 1566.7,-140.99 1652.2,-129.67"/>
<polygon fill="#63b8ff" stroke="#63b8ff" points="1652.87,-133.11 1662.33,-128.33 1651.95,-126.17 1652.87,-133.11"/>
</a>
</g>
</g>
</g>
</svg>
