<?xml version="1.0" encoding="UTF-8" standalone="no"?>
<!DOCTYPE svg PUBLIC "-//W3C//DTD SVG 1.1//EN"
 "http://www.w3.org/Graphics/SVG/1.1/DTD/svg11.dtd">
<!-- Generated by graphviz version 2.43.0 (0)
 -->
<!-- Title: src/lib/utils/statsCollector.hpp Pages: 1 -->
<svg width="1002pt" height="93pt"
 viewBox="0.00 0.00 1002.00 93.00" xmlns="http://www.w3.org/2000/svg" xmlns:xlink="http://www.w3.org/1999/xlink">
<g id="graph0" class="graph" transform="scale(1 1) rotate(0) translate(4 89)">
<title>src/lib/utils/statsCollector.hpp</title>
<!-- Node1 -->
<g id="Node000001" class="node">
<title>Node1</title>
<g id="a_Node000001"><a xlink:title=" ">
<polygon fill="#999999" stroke="#666666" points="604.5,-85 443.5,-85 443.5,-66 604.5,-66 604.5,-85"/>
<text text-anchor="middle" x="524" y="-73" font-family="Helvetica,sans-Serif" font-size="10.00">src/lib/utils/statsCollector.hpp</text>
</a>
</g>
</g>
<!-- Node2 -->
<g id="Node000002" class="node">
<title>Node2</title>
<g id="a_Node000002"><a xlink:href="uvgVPCCencAppExample_8cpp.html" target="_top" xlink:title=" ">
<polygon fill="white" stroke="#666666" points="198,-24.5 0,-24.5 0,-5.5 198,-5.5 198,-24.5"/>
<text text-anchor="middle" x="99" y="-12.5" font-family="Helvetica,sans-Serif" font-size="10.00">src/app/uvgVPCCencAppExample.cpp</text>
</a>
</g>
</g>
<!-- Node1&#45;&gt;Node2 -->
<g id="edge1_Node000001_Node000002" class="edge">
<title>Node1&#45;&gt;Node2</title>
<g id="a_edge1_Node000001_Node000002"><a xlink:title=" ">
<path fill="none" stroke="#63b8ff" d="M452.24,-64.62C370.5,-53.37 238.26,-35.17 160.87,-24.52"/>
<polygon fill="#63b8ff" stroke="#63b8ff" points="451.82,-68.1 462.2,-65.99 452.77,-61.16 451.82,-68.1"/>
</a>
</g>
</g>
<!-- Node3 -->
<g id="Node000003" class="node">
<title>Node3</title>
<g id="a_Node000003"><a xlink:href="bitstreamGeneration_8cpp.html" target="_top" xlink:title=" ">
<polygon fill="white" stroke="#666666" points="366,-30 216,-30 216,0 366,0 366,-30"/>
<text text-anchor="start" x="224" y="-18" font-family="Helvetica,sans-Serif" font-size="10.00">src/lib/bitstreamGeneration</text>
<text text-anchor="middle" x="291" y="-7" font-family="Helvetica,sans-Serif" font-size="10.00">/bitstreamGeneration.cpp</text>
</a>
</g>
</g>
<!-- Node1&#45;&gt;Node3 -->
<g id="edge2_Node000001_Node000003" class="edge">
<title>Node1&#45;&gt;Node3</title>
<g id="a_edge2_Node000001_Node000003"><a xlink:title=" ">
<path fill="none" stroke="#63b8ff" d="M479.96,-63.44C442.27,-53.98 387.8,-40.3 347.02,-30.06"/>
<polygon fill="#63b8ff" stroke="#63b8ff" points="479.57,-66.95 490.12,-65.99 481.27,-60.16 479.57,-66.95"/>
</a>
</g>
</g>
<!-- Node4 -->
<g id="Node000004" class="node">
<title>Node4</title>
<g id="a_Node000004"><a xlink:href="patchGeneration_8cpp.html" target="_top" xlink:title=" ">
<polygon fill="white" stroke="#666666" points="514,-30 384,-30 384,0 514,0 514,-30"/>
<text text-anchor="start" x="392" y="-18" font-family="Helvetica,sans-Serif" font-size="10.00">src/lib/patchGeneration</text>
<text text-anchor="middle" x="449" y="-7" font-family="Helvetica,sans-Serif" font-size="10.00">/patchGeneration.cpp</text>
</a>
</g>
</g>
<!-- Node1&#45;&gt;Node4 -->
<g id="edge3_Node000001_Node000004" class="edge">
<title>Node1&#45;&gt;Node4</title>
<g id="a_edge3_Node000001_Node000004"><a xlink:title=" ">
<path fill="none" stroke="#63b8ff" d="M504.77,-59.5C493.17,-50.45 478.49,-39 467.1,-30.11"/>
<polygon fill="#63b8ff" stroke="#63b8ff" points="502.9,-62.48 512.93,-65.87 507.2,-56.96 502.9,-62.48"/>
</a>
</g>
</g>
<!-- Node5 -->
<g id="Node000005" class="node">
<title>Node5</title>
<g id="a_Node000005"><a xlink:href="patchSegmentation_8cpp.html" target="_top" xlink:title=" ">
<polygon fill="white" stroke="#666666" points="667.5,-30 532.5,-30 532.5,0 667.5,0 667.5,-30"/>
<text text-anchor="start" x="540.5" y="-18" font-family="Helvetica,sans-Serif" font-size="10.00">src/lib/patchGeneration</text>
<text text-anchor="middle" x="600" y="-7" font-family="Helvetica,sans-Serif" font-size="10.00">/patchSegmentation.cpp</text>
</a>
</g>
</g>
<!-- Node1&#45;&gt;Node5 -->
<g id="edge4_Node000001_Node000005" class="edge">
<title>Node1&#45;&gt;Node5</title>
<g id="a_edge4_Node000001_Node000005"><a xlink:title=" ">
<path fill="none" stroke="#63b8ff" d="M543.14,-59.77C554.95,-50.68 570.01,-39.09 581.66,-30.11"/>
<polygon fill="#63b8ff" stroke="#63b8ff" points="541,-56.99 535.21,-65.87 545.27,-62.54 541,-56.99"/>
</a>
</g>
</g>
<!-- Node6 -->
<g id="Node000006" class="node">
<title>Node6</title>
<g id="a_Node000006"><a xlink:href="ppiSegmenter_8cpp.html" target="_top" xlink:title=" ">
<polygon fill="white" stroke="#666666" points="816,-30 686,-30 686,0 816,0 816,-30"/>
<text text-anchor="start" x="694" y="-18" font-family="Helvetica,sans-Serif" font-size="10.00">src/lib/patchGeneration</text>
<text text-anchor="middle" x="751" y="-7" font-family="Helvetica,sans-Serif" font-size="10.00">/ppiSegmenter.cpp</text>
</a>
</g>
</g>
<!-- Node1&#45;&gt;Node6 -->
<g id="edge5_Node000001_Node000006" class="edge">
<title>Node1&#45;&gt;Node6</title>
<g id="a_edge5_Node000001_Node000006"><a xlink:title=" ">
<path fill="none" stroke="#63b8ff" d="M566.91,-63.44C603.62,-53.98 656.69,-40.3 696.43,-30.06"/>
<polygon fill="#63b8ff" stroke="#63b8ff" points="565.82,-60.11 557.01,-65.99 567.56,-66.89 565.82,-60.11"/>
</a>
</g>
</g>
<!-- Node7 -->
<g id="Node000007" class="node">
<title>Node7</title>
<g id="a_Node000007"><a xlink:href="statsCollector_8cpp.html" target="_top" xlink:title=" ">
<polygon fill="white" stroke="#666666" points="994,-24.5 834,-24.5 834,-5.5 994,-5.5 994,-24.5"/>
<text text-anchor="middle" x="914" y="-12.5" font-family="Helvetica,sans-Serif" font-size="10.00">src/lib/utils/statsCollector.cpp</text>
</a>
</g>
</g>
<!-- Node1&#45;&gt;Node7 -->
<g id="edge6_Node000001_Node000007" class="edge">
<title>Node1&#45;&gt;Node7</title>
<g id="a_edge6_Node000001_Node000007"><a xlink:title=" ">
<path fill="none" stroke="#63b8ff" d="M592.75,-64.52C653.78,-55.62 745.36,-42.15 825,-30 836.44,-28.25 848.71,-26.35 860.36,-24.52"/>
<polygon fill="#63b8ff" stroke="#63b8ff" points="592.24,-61.06 582.85,-65.96 593.25,-67.98 592.24,-61.06"/>
</a>
</g>
</g>
</g>
</svg>
