<?xml version="1.0" encoding="UTF-8" standalone="no"?>
<!DOCTYPE svg PUBLIC "-//W3C//DTD SVG 1.1//EN"
 "http://www.w3.org/Graphics/SVG/1.1/DTD/svg11.dtd">
<!-- Generated by graphviz version 2.43.0 (0)
 -->
<!-- Title: src/libuvgvpccenc/utils/statsCollector.cpp Pages: 1 -->
<!--zoomable 258 -->

<svg id="main" version="1.1" xmlns="http://www.w3.org/2000/svg" xmlns:xlink="http://www.w3.org/1999/xlink" xml:space="preserve" onload="init(evt)">
<style type="text/css"><![CDATA[
.node, .edge {opacity: 0.7;}
.node.selected, .edge.selected {opacity: 1;}
.edge:hover path { stroke: red; }
.edge:hover polygon { stroke: red; fill: red; }
]]></style>

<defs>
  <circle id="rim" cx="0" cy="0" r="7"/>
  <circle id="rim2" cx="0" cy="0" r="3.5"/>
  <g id="zoomPlus">
    <use xlink:href="#rim" fill="#404040"><set attributeName="fill" to="#808080" begin="zoomplus.mouseover" end="zoomplus.mouseout"/></use>
    <path d="M-4,0h8M0,-4v8" fill="none" stroke="white" stroke-width="1.5" pointer-events="none"/>
  </g>
  <g id="zoomMin">
    <use xlink:href="#rim" fill="#404040"><set attributeName="fill" to="#808080" begin="zoomminus.mouseover" end="zoomminus.mouseout"/></use>
    <path d="M-4,0h8" fill="none" stroke="white" stroke-width="1.5" pointer-events="none"/>
  </g>
  <g id="arrowUp" transform="translate(30 24)">
    <use xlink:href="#rim"/>
    <path pointer-events="none" fill="none" stroke="white" stroke-width="1.5" d="M0,-3.0v7 M-2.5,-0.5L0,-3.0L2.5,-0.5"/>
  </g>
  <g id="arrowRight" transform="rotate(90) translate(36 -43)">
    <use xlink:href="#rim"/>
    <path pointer-events="none" fill="none" stroke="white" stroke-width="1.5" d="M0,-3.0v7 M-2.5,-0.5L0,-3.0L2.5,-0.5"/>
  </g>
  <g id="arrowDown" transform="rotate(180) translate(-30 -48)">
    <use xlink:href="#rim"/>
    <path pointer-events="none" fill="none" stroke="white" stroke-width="1.5" d="M0,-3.0v7 M-2.5,-0.5L0,-3.0L2.5,-0.5"/>
  </g>
  <g id="arrowLeft" transform="rotate(270) translate(-36 17)">
    <use xlink:href="#rim"/>
    <path pointer-events="none" fill="none" stroke="white" stroke-width="1.5" d="M0,-3.0v7 M-2.5,-0.5L0,-3.0L2.5,-0.5"/>
  </g>
  <g id="resetDef">
    <use xlink:href="#rim2" fill="#404040"><set attributeName="fill" to="#808080" begin="reset.mouseover" end="reset.mouseout"/></use>
  </g>
</defs>
<script type="application/ecmascript">
var viewWidth = 702;
var viewHeight = 258;
var sectionId = 'dynsection-0';
</script>
<script type="application/ecmascript" xlink:href="svg.min.js"/>
<svg id="graph" class="graph">
<g id="viewport">
<title>src/libuvgvpccenc/utils/statsCollector.cpp</title>
<!-- Node1 -->
<g id="Node000001" class="node">
<title>Node1</title>
<g id="a_Node000001"><a xlink:title=" ">
<polygon fill="#999999" stroke="#666666" points="280,-250 152,-250 152,-220 280,-220 280,-250"/>
<text text-anchor="start" x="160" y="-238" font-family="Helvetica,sans-Serif" font-size="10.00">src/libuvgvpccenc/utils</text>
<text text-anchor="middle" x="216" y="-227" font-family="Helvetica,sans-Serif" font-size="10.00">/statsCollector.cpp</text>
</a>
</g>
</g>
<!-- Node2 -->
<g id="Node000002" class="node">
<title>Node2</title>
<g id="a_Node000002"><a xlink:href="statsCollector_8hpp.html" target="_top" xlink:title=" ">
<polygon fill="white" stroke="#666666" points="198,-129 94,-129 94,-110 198,-110 198,-129"/>
<text text-anchor="middle" x="146" y="-117" font-family="Helvetica,sans-Serif" font-size="10.00">statsCollector.hpp</text>
</a>
</g>
</g>
<!-- Node1&#45;&gt;Node2 -->
<g id="edge1_Node000001_Node000002" class="edge">
<title>Node1&#45;&gt;Node2</title>
<g id="a_edge1_Node000001_Node000002"><a xlink:title=" ">
<path fill="none" stroke="#63b8ff" d="M207.13,-219.63C194.32,-198.84 170.63,-160.44 156.81,-138.02"/>
<polygon fill="#63b8ff" stroke="#63b8ff" points="159.61,-135.9 151.38,-129.23 153.65,-139.58 159.61,-135.9"/>
</a>
</g>
</g>
<!-- Node9 -->
<g id="Node000009" class="node">
<title>Node9</title>
<g id="a_Node000009"><a xlink:href="parameters_8hpp.html" target="_top" xlink:title=" ">
<polygon fill="white" stroke="#666666" points="303,-184 209,-184 209,-165 303,-165 303,-184"/>
<text text-anchor="middle" x="256" y="-172" font-family="Helvetica,sans-Serif" font-size="10.00">parameters.hpp</text>
</a>
</g>
</g>
<!-- Node1&#45;&gt;Node9 -->
<g id="edge8_Node000001_Node000009" class="edge">
<title>Node1&#45;&gt;Node9</title>
<g id="a_edge8_Node000001_Node000009"><a xlink:title=" ">
<path fill="none" stroke="#63b8ff" d="M225.68,-219.84C231.25,-211.69 238.29,-201.4 244.18,-192.78"/>
<polygon fill="#63b8ff" stroke="#63b8ff" points="247.25,-194.5 250.01,-184.27 241.47,-190.55 247.25,-194.5"/>
</a>
</g>
</g>
<!-- Node3 -->
<g id="Node000003" class="node">
<title>Node3</title>
<g id="a_Node000003"><a xlink:title=" ">
<polygon fill="#e0e0e0" stroke="#999999" points="105.5,-74 50.5,-74 50.5,-55 105.5,-55 105.5,-74"/>
<text text-anchor="middle" x="78" y="-62" font-family="Helvetica,sans-Serif" font-size="10.00">fstream</text>
</a>
</g>
</g>
<!-- Node2&#45;&gt;Node3 -->
<g id="edge2_Node000002_Node000003" class="edge">
<title>Node2&#45;&gt;Node3</title>
<g id="a_edge2_Node000002_Node000003"><a xlink:title=" ">
<path fill="none" stroke="#63b8ff" d="M135.07,-109.98C124.92,-102.07 109.58,-90.11 97.35,-80.58"/>
<polygon fill="#63b8ff" stroke="#63b8ff" points="99.16,-77.56 89.12,-74.17 94.86,-83.08 99.16,-77.56"/>
</a>
</g>
</g>
<!-- Node4 -->
<g id="Node000004" class="node">
<title>Node4</title>
<g id="a_Node000004"><a xlink:title=" ">
<polygon fill="#e0e0e0" stroke="#999999" points="197,-19 149,-19 149,0 197,0 197,-19"/>
<text text-anchor="middle" x="173" y="-7" font-family="Helvetica,sans-Serif" font-size="10.00">mutex</text>
</a>
</g>
</g>
<!-- Node2&#45;&gt;Node4 -->
<g id="edge3_Node000002_Node000004" class="edge">
<title>Node2&#45;&gt;Node4</title>
<g id="a_edge3_Node000002_Node000004"><a xlink:title=" ">
<path fill="none" stroke="#63b8ff" d="M147.26,-109.79C149.12,-97.47 152.94,-74.32 158,-55 160.3,-46.23 163.43,-36.67 166.24,-28.68"/>
<polygon fill="#63b8ff" stroke="#63b8ff" points="169.54,-29.85 169.65,-19.26 162.95,-27.47 169.54,-29.85"/>
</a>
</g>
</g>
<!-- Node5 -->
<g id="Node000005" class="node">
<title>Node5</title>
<g id="a_Node000005"><a xlink:title=" ">
<polygon fill="#e0e0e0" stroke="#999999" points="44,-19 0,-19 0,0 44,0 44,-19"/>
<text text-anchor="middle" x="22" y="-7" font-family="Helvetica,sans-Serif" font-size="10.00">string</text>
</a>
</g>
</g>
<!-- Node2&#45;&gt;Node5 -->
<g id="edge4_Node000002_Node000005" class="edge">
<title>Node2&#45;&gt;Node5</title>
<g id="a_edge4_Node000002_Node000005"><a xlink:title=" ">
<path fill="none" stroke="#63b8ff" d="M104.62,-109.95C82.93,-103.48 57.51,-92.44 41,-74 29.96,-61.68 25.33,-43.17 23.39,-29.31"/>
<polygon fill="#63b8ff" stroke="#63b8ff" points="26.83,-28.58 22.31,-19 19.87,-29.31 26.83,-28.58"/>
</a>
</g>
</g>
<!-- Node6 -->
<g id="Node000006" class="node">
<title>Node6</title>
<g id="a_Node000006"><a xlink:title=" ">
<polygon fill="#e0e0e0" stroke="#999999" points="316,-74 266,-74 266,-55 316,-55 316,-74"/>
<text text-anchor="middle" x="291" y="-62" font-family="Helvetica,sans-Serif" font-size="10.00">cstdint</text>
</a>
</g>
</g>
<!-- Node2&#45;&gt;Node6 -->
<g id="edge5_Node000002_Node000006" class="edge">
<title>Node2&#45;&gt;Node6</title>
<g id="a_edge5_Node000002_Node000006"><a xlink:title=" ">
<path fill="none" stroke="#63b8ff" d="M169.3,-109.98C193.25,-101.23 230.78,-87.51 257.83,-77.62"/>
<polygon fill="#63b8ff" stroke="#63b8ff" points="259.09,-80.89 267.28,-74.17 256.69,-74.32 259.09,-80.89"/>
</a>
</g>
</g>
<!-- Node7 -->
<g id="Node000007" class="node">
<title>Node7</title>
<g id="a_Node000007"><a xlink:title=" ">
<polygon fill="#e0e0e0" stroke="#999999" points="247.5,-74 200.5,-74 200.5,-55 247.5,-55 247.5,-74"/>
<text text-anchor="middle" x="224" y="-62" font-family="Helvetica,sans-Serif" font-size="10.00">vector</text>
</a>
</g>
</g>
<!-- Node2&#45;&gt;Node7 -->
<g id="edge6_Node000002_Node000007" class="edge">
<title>Node2&#45;&gt;Node7</title>
<g id="a_edge6_Node000002_Node000007"><a xlink:title=" ">
<path fill="none" stroke="#63b8ff" d="M158.53,-109.98C170.4,-101.92 188.46,-89.65 202.61,-80.03"/>
<polygon fill="#63b8ff" stroke="#63b8ff" points="204.94,-82.69 211.24,-74.17 201,-76.9 204.94,-82.69"/>
</a>
</g>
</g>
<!-- Node8 -->
<g id="Node000008" class="node">
<title>Node8</title>
<g id="a_Node000008"><a xlink:title=" ">
<polygon fill="#e0e0e0" stroke="#999999" points="325,-19 265,-19 265,0 325,0 325,-19"/>
<text text-anchor="middle" x="295" y="-7" font-family="Helvetica,sans-Serif" font-size="10.00">iostream</text>
</a>
</g>
</g>
<!-- Node2&#45;&gt;Node8 -->
<g id="edge7_Node000002_Node000008" class="edge">
<title>Node2&#45;&gt;Node8</title>
<g id="a_edge7_Node000002_Node000008"><a xlink:title=" ">
<path fill="none" stroke="#63b8ff" d="M150.09,-109.96C156.87,-96.59 171.66,-70.62 191,-55 209.78,-39.84 234.49,-28.98 255.12,-21.78"/>
<polygon fill="#63b8ff" stroke="#63b8ff" points="256.48,-25.02 264.87,-18.54 254.28,-18.38 256.48,-25.02"/>
</a>
</g>
</g>
<!-- Node9&#45;&gt;Node5 -->
<g id="edge11_Node000009_Node000005" class="edge">
<title>Node9&#45;&gt;Node5</title>
<g id="a_edge11_Node000009_Node000005"><a xlink:title=" ">
<path fill="none" stroke="#63b8ff" d="M209,-167.77C173.24,-161.92 123.76,-150.51 85,-129 53.94,-111.76 42.3,-106.06 27,-74 20.37,-60.11 19.47,-42.54 20.03,-29.41"/>
<polygon fill="#63b8ff" stroke="#63b8ff" points="23.54,-29.45 20.79,-19.22 16.56,-28.93 23.54,-29.45"/>
</a>
</g>
</g>
<!-- Node9&#45;&gt;Node7 -->
<g id="edge12_Node000009_Node000007" class="edge">
<title>Node9&#45;&gt;Node7</title>
<g id="a_edge12_Node000009_Node000007"><a xlink:title=" ">
<path fill="none" stroke="#63b8ff" d="M253.38,-164.66C248.18,-147.09 236.43,-107.45 229.47,-83.95"/>
<polygon fill="#63b8ff" stroke="#63b8ff" points="232.76,-82.75 226.57,-74.16 226.05,-84.74 232.76,-82.75"/>
</a>
</g>
</g>
<!-- Node10 -->
<g id="Node000010" class="node">
<title>Node10</title>
<g id="a_Node000010"><a xlink:title=" ">
<polygon fill="#e0e0e0" stroke="#999999" points="387.5,-74 334.5,-74 334.5,-55 387.5,-55 387.5,-74"/>
<text text-anchor="middle" x="361" y="-62" font-family="Helvetica,sans-Serif" font-size="10.00">cstddef</text>
</a>
</g>
</g>
<!-- Node9&#45;&gt;Node10 -->
<g id="edge9_Node000009_Node000010" class="edge">
<title>Node9&#45;&gt;Node10</title>
<g id="a_edge9_Node000009_Node000010"><a xlink:title=" ">
<path fill="none" stroke="#63b8ff" d="M275.73,-164.93C291.45,-157.32 313.2,-144.94 328,-129 340.14,-115.92 349.04,-97.54 354.52,-83.91"/>
<polygon fill="#63b8ff" stroke="#63b8ff" points="357.93,-84.79 358.18,-74.2 351.38,-82.32 357.93,-84.79"/>
</a>
</g>
</g>
<!-- Node11 -->
<g id="Node000011" class="node">
<title>Node11</title>
<g id="a_Node000011"><a xlink:title=" ">
<polygon fill="#e0e0e0" stroke="#999999" points="319.5,-129 254.5,-129 254.5,-110 319.5,-110 319.5,-129"/>
<text text-anchor="middle" x="287" y="-117" font-family="Helvetica,sans-Serif" font-size="10.00">stdexcept</text>
</a>
</g>
</g>
<!-- Node9&#45;&gt;Node11 -->
<g id="edge10_Node000009_Node000011" class="edge">
<title>Node9&#45;&gt;Node11</title>
<g id="a_edge10_Node000009_Node000011"><a xlink:title=" ">
<path fill="none" stroke="#63b8ff" d="M261.12,-164.75C265.36,-157.49 271.53,-146.95 276.78,-137.98"/>
<polygon fill="#63b8ff" stroke="#63b8ff" points="279.95,-139.49 281.98,-129.09 273.91,-135.95 279.95,-139.49"/>
</a>
</g>
</g>
<!-- Node12 -->
<g id="Node000012" class="node">
<title>Node12</title>
<g id="a_Node000012"><a xlink:href="utils_8hpp.html" target="_top" xlink:title=" ">
<polygon fill="white" stroke="#666666" points="489.5,-129 388.5,-129 388.5,-110 489.5,-110 489.5,-129"/>
<text text-anchor="middle" x="439" y="-117" font-family="Helvetica,sans-Serif" font-size="10.00">uvgutils/utils.hpp</text>
</a>
</g>
</g>
<!-- Node9&#45;&gt;Node12 -->
<g id="edge13_Node000009_Node000012" class="edge">
<title>Node9&#45;&gt;Node12</title>
<g id="a_edge13_Node000009_Node000012"><a xlink:title=" ">
<path fill="none" stroke="#63b8ff" d="M285.4,-164.98C316.39,-156.01 365.38,-141.82 399.67,-131.89"/>
<polygon fill="#63b8ff" stroke="#63b8ff" points="400.74,-135.23 409.37,-129.08 398.79,-128.5 400.74,-135.23"/>
</a>
</g>
</g>
<!-- Node12&#45;&gt;Node6 -->
<g id="edge16_Node000012_Node000006" class="edge">
<title>Node12&#45;&gt;Node6</title>
<g id="a_edge16_Node000012_Node000006"><a xlink:title=" ">
<path fill="none" stroke="#63b8ff" d="M415.22,-109.98C390.77,-101.23 352.47,-87.51 324.85,-77.62"/>
<polygon fill="#63b8ff" stroke="#63b8ff" points="325.81,-74.25 315.21,-74.17 323.45,-80.84 325.81,-74.25"/>
</a>
</g>
</g>
<!-- Node12&#45;&gt;Node10 -->
<g id="edge15_Node000012_Node000010" class="edge">
<title>Node12&#45;&gt;Node10</title>
<g id="a_edge15_Node000012_Node000010"><a xlink:title=" ">
<path fill="none" stroke="#63b8ff" d="M426.47,-109.98C414.6,-101.92 396.54,-89.65 382.39,-80.03"/>
<polygon fill="#63b8ff" stroke="#63b8ff" points="384,-76.9 373.76,-74.17 380.06,-82.69 384,-76.9"/>
</a>
</g>
</g>
<!-- Node13 -->
<g id="Node000013" class="node">
<title>Node13</title>
<g id="a_Node000013"><a xlink:title=" ">
<polygon fill="#e0e0e0" stroke="#999999" points="594,-74 552,-74 552,-55 594,-55 594,-74"/>
<text text-anchor="middle" x="573" y="-62" font-family="Helvetica,sans-Serif" font-size="10.00">array</text>
</a>
</g>
</g>
<!-- Node12&#45;&gt;Node13 -->
<g id="edge14_Node000012_Node000013" class="edge">
<title>Node12&#45;&gt;Node13</title>
<g id="a_edge14_Node000012_Node000013"><a xlink:title=" ">
<path fill="none" stroke="#63b8ff" d="M460.53,-109.98C482.74,-101.2 517.56,-87.43 542.57,-77.53"/>
<polygon fill="#63b8ff" stroke="#63b8ff" points="543.95,-80.75 551.97,-73.82 541.38,-74.24 543.95,-80.75"/>
</a>
</g>
</g>
<!-- Node14 -->
<g id="Node000014" class="node">
<title>Node14</title>
<g id="a_Node000014"><a xlink:title=" ">
<polygon fill="#e0e0e0" stroke="#999999" points="639,-19 583,-19 583,0 639,0 639,-19"/>
<text text-anchor="middle" x="611" y="-7" font-family="Helvetica,sans-Serif" font-size="10.00">iomanip</text>
</a>
</g>
</g>
<!-- Node12&#45;&gt;Node14 -->
<g id="edge17_Node000012_Node000014" class="edge">
<title>Node12&#45;&gt;Node14</title>
<g id="a_edge17_Node000012_Node000014"><a xlink:title=" ">
<path fill="none" stroke="#63b8ff" d="M489.68,-111.03C532.14,-103.68 588.15,-91.09 603,-74 613.58,-61.82 614.74,-43.03 613.75,-29.05"/>
<polygon fill="#63b8ff" stroke="#63b8ff" points="617.23,-28.63 612.64,-19.08 610.27,-29.41 617.23,-28.63"/>
</a>
</g>
</g>
<!-- Node15 -->
<g id="Node000015" class="node">
<title>Node15</title>
<g id="a_Node000015"><a xlink:title=" ">
<polygon fill="#e0e0e0" stroke="#999999" points="694,-74 650,-74 650,-55 694,-55 694,-74"/>
<text text-anchor="middle" x="672" y="-62" font-family="Helvetica,sans-Serif" font-size="10.00">limits</text>
</a>
</g>
</g>
<!-- Node12&#45;&gt;Node15 -->
<g id="edge18_Node000012_Node000015" class="edge">
<title>Node12&#45;&gt;Node15</title>
<g id="a_edge18_Node000012_Node000015"><a xlink:title=" ">
<path fill="none" stroke="#63b8ff" d="M477.16,-110C516.86,-101.12 580.83,-86.74 636,-74 637.27,-73.71 638.56,-73.41 639.86,-73.1"/>
<polygon fill="#63b8ff" stroke="#63b8ff" points="640.98,-76.44 649.92,-70.75 639.39,-69.62 640.98,-76.44"/>
</a>
</g>
</g>
<!-- Node16 -->
<g id="Node000016" class="node">
<title>Node16</title>
<g id="a_Node000016"><a xlink:title=" ">
<polygon fill="#e0e0e0" stroke="#999999" points="462,-74 406,-74 406,-55 462,-55 462,-74"/>
<text text-anchor="middle" x="434" y="-62" font-family="Helvetica,sans-Serif" font-size="10.00">sstream</text>
</a>
</g>
</g>
<!-- Node12&#45;&gt;Node16 -->
<g id="edge19_Node000012_Node000016" class="edge">
<title>Node12&#45;&gt;Node16</title>
<g id="a_edge19_Node000012_Node000016"><a xlink:title=" ">
<path fill="none" stroke="#63b8ff" d="M438.17,-109.75C437.52,-102.8 436.58,-92.85 435.76,-84.13"/>
<polygon fill="#63b8ff" stroke="#63b8ff" points="439.23,-83.72 434.81,-74.09 432.27,-84.37 439.23,-83.72"/>
</a>
</g>
</g>
<!-- Node17 -->
<g id="Node000017" class="node">
<title>Node17</title>
<g id="a_Node000017"><a xlink:href="log_8hpp.html" target="_top" xlink:title=" ">
<polygon fill="white" stroke="#666666" points="533.5,-74 480.5,-74 480.5,-55 533.5,-55 533.5,-74"/>
<text text-anchor="middle" x="507" y="-62" font-family="Helvetica,sans-Serif" font-size="10.00">log.hpp</text>
</a>
</g>
</g>
<!-- Node12&#45;&gt;Node17 -->
<g id="edge20_Node000012_Node000017" class="edge">
<title>Node12&#45;&gt;Node17</title>
<g id="a_edge20_Node000012_Node000017"><a xlink:title=" ">
<path fill="none" stroke="#63b8ff" d="M449.93,-109.98C460.08,-102.07 475.42,-90.11 487.65,-80.58"/>
<polygon fill="#63b8ff" stroke="#63b8ff" points="490.14,-83.08 495.88,-74.17 485.84,-77.56 490.14,-83.08"/>
</a>
</g>
</g>
<!-- Node17&#45;&gt;Node4 -->
<g id="edge25_Node000017_Node000004" class="edge">
<title>Node17&#45;&gt;Node4</title>
<g id="a_edge25_Node000017_Node000004"><a xlink:title=" ">
<path fill="none" stroke="#63b8ff" d="M480.32,-56.94C477.18,-56.25 474.03,-55.58 471,-55 375.93,-36.71 262.57,-21.61 207.06,-14.64"/>
<polygon fill="#63b8ff" stroke="#63b8ff" points="207.42,-11.16 197.06,-13.4 206.56,-18.11 207.42,-11.16"/>
</a>
</g>
</g>
<!-- Node17&#45;&gt;Node5 -->
<g id="edge26_Node000017_Node000005" class="edge">
<title>Node17&#45;&gt;Node5</title>
<g id="a_edge26_Node000017_Node000005"><a xlink:title=" ">
<path fill="none" stroke="#63b8ff" d="M480.34,-56.79C477.21,-56.12 474.04,-55.51 471,-55 390.44,-41.56 143.22,-20.49 54.29,-13.14"/>
<polygon fill="#63b8ff" stroke="#63b8ff" points="54.5,-9.64 44.25,-12.31 53.93,-16.62 54.5,-9.64"/>
</a>
</g>
</g>
<!-- Node17&#45;&gt;Node8 -->
<g id="edge24_Node000017_Node000008" class="edge">
<title>Node17&#45;&gt;Node8</title>
<g id="a_edge24_Node000017_Node000008"><a xlink:title=" ">
<path fill="none" stroke="#63b8ff" d="M480.15,-56.79C443.43,-47.61 377.26,-31.07 334.78,-20.44"/>
<polygon fill="#63b8ff" stroke="#63b8ff" points="335.59,-17.04 325.04,-18.01 333.9,-23.83 335.59,-17.04"/>
</a>
</g>
</g>
<!-- Node17&#45;&gt;Node14 -->
<g id="edge23_Node000017_Node000014" class="edge">
<title>Node17&#45;&gt;Node14</title>
<g id="a_edge23_Node000017_Node000014"><a xlink:title=" ">
<path fill="none" stroke="#63b8ff" d="M523.71,-54.98C540.21,-46.57 565.7,-33.59 584.88,-23.81"/>
<polygon fill="#63b8ff" stroke="#63b8ff" points="586.67,-26.83 593.99,-19.17 583.49,-20.59 586.67,-26.83"/>
</a>
</g>
</g>
<!-- Node18 -->
<g id="Node000018" class="node">
<title>Node18</title>
<g id="a_Node000018"><a xlink:title=" ">
<polygon fill="#e0e0e0" stroke="#999999" points="543,-19 493,-19 493,0 543,0 543,-19"/>
<text text-anchor="middle" x="518" y="-7" font-family="Helvetica,sans-Serif" font-size="10.00">chrono</text>
</a>
</g>
</g>
<!-- Node17&#45;&gt;Node18 -->
<g id="edge21_Node000017_Node000018" class="edge">
<title>Node17&#45;&gt;Node18</title>
<g id="a_edge21_Node000017_Node000018"><a xlink:title=" ">
<path fill="none" stroke="#63b8ff" d="M508.82,-54.75C510.26,-47.8 512.32,-37.85 514.13,-29.13"/>
<polygon fill="#63b8ff" stroke="#63b8ff" points="517.61,-29.59 516.22,-19.09 510.76,-28.17 517.61,-29.59"/>
</a>
</g>
</g>
<!-- Node19 -->
<g id="Node000019" class="node">
<title>Node19</title>
<g id="a_Node000019"><a xlink:title=" ">
<polygon fill="#e0e0e0" stroke="#999999" points="474.5,-19 421.5,-19 421.5,0 474.5,0 474.5,-19"/>
<text text-anchor="middle" x="448" y="-7" font-family="Helvetica,sans-Serif" font-size="10.00">cstdarg</text>
</a>
</g>
</g>
<!-- Node17&#45;&gt;Node19 -->
<g id="edge22_Node000017_Node000019" class="edge">
<title>Node17&#45;&gt;Node19</title>
<g id="a_edge22_Node000017_Node000019"><a xlink:title=" ">
<path fill="none" stroke="#63b8ff" d="M497.52,-54.98C488.8,-47.15 475.66,-35.34 465.1,-25.86"/>
<polygon fill="#63b8ff" stroke="#63b8ff" points="467.43,-23.25 457.65,-19.17 462.75,-28.46 467.43,-23.25"/>
</a>
</g>
</g>
</g>
</svg>

<g id="navigator" transform="translate(0 0)" fill="#404254">
  <rect fill="#f2f5e9" fill-opacity="0.5" stroke="#606060" stroke-width=".5" x="0" y="0" width="60" height="60"/>
  <use id="zoomplus" xlink:href="#zoomPlus" x="17" y="9" onmousedown="handleZoom(evt,'in')"/>
  <use id="zoomminus" xlink:href="#zoomMin" x="42" y="9" onmousedown="handleZoom(evt,'out')"/>
  <use id="reset" xlink:href="#resetDef" x="30" y="36" onmousedown="handleReset()"/>
   <use id="arrowup" xlink:href="#arrowUp" x="0" y="0" onmousedown="handlePan(0,-1)"/>
  <use id="arrowright" xlink:href="#arrowRight" x="0" y="0" onmousedown="handlePan(1,0)"/>
  <use id="arrowdown" xlink:href="#arrowDown" x="0" y="0" onmousedown="handlePan(0,1)"/>
  <use id="arrowleft" xlink:href="#arrowLeft" x="0" y="0" onmousedown="handlePan(-1,0)"/>
</g>
<svg viewBox="0 0 15 15" width="100%" height="30px" preserveAspectRatio="xMaxYMin meet">
 <g id="arrow_out" transform="scale(0.3 0.3)">
  <a xlink:href="statsCollector_8cpp__incl_org.svg" target="_base">
   <rect id="button" ry="5" rx="5" y="6" x="6" height="38" width="38"
        fill="#f2f5e9" fill-opacity="0.5" stroke="#606060" stroke-width="1.0"/>
   <path id="arrow"
     d="M 11.500037,31.436501 C 11.940474,20.09759 22.043105,11.32322 32.158766,21.979434 L 37.068811,17.246167 C 37.068811,17.246167 37.088388,32 37.088388,32 L 22.160133,31.978069 C 22.160133,31.978069 26.997745,27.140456 26.997745,27.140456 C 18.528582,18.264221 13.291696,25.230495 11.500037,31.436501 z"
     style="fill:#404040;"/>
  </a>
 </g>
</svg>

<style type='text/css'>
<![CDATA[
[data-mouse-over-selected='false'] { opacity: 0.7; }
[data-mouse-over-selected='true']  { opacity: 1.0; }
]]>
</style>
<script type="application/ecmascript"><![CDATA[
document.addEventListener('DOMContentLoaded', (event) => {
  highlightEdges();
  highlightAdjacentNodes();
});
]]></script>
</svg>
