<?xml version="1.0" encoding="UTF-8" standalone="no"?>
<!DOCTYPE svg PUBLIC "-//W3C//DTD SVG 1.1//EN"
 "http://www.w3.org/Graphics/SVG/1.1/DTD/svg11.dtd">
<!-- Generated by graphviz version 2.43.0 (0)
 -->
<!-- Title: atlas_tile_layer_rbsp Pages: 1 -->
<!--zoomable 536 -->

<svg id="main" version="1.1" xmlns="http://www.w3.org/2000/svg" xmlns:xlink="http://www.w3.org/1999/xlink" xml:space="preserve" onload="init(evt)">
<style type="text/css"><![CDATA[
.node, .edge {opacity: 0.7;}
.node.selected, .edge.selected {opacity: 1;}
.edge:hover path { stroke: red; }
.edge:hover polygon { stroke: red; fill: red; }
]]></style>

<defs>
  <circle id="rim" cx="0" cy="0" r="7"/>
  <circle id="rim2" cx="0" cy="0" r="3.5"/>
  <g id="zoomPlus">
    <use xlink:href="#rim" fill="#404040"><set attributeName="fill" to="#808080" begin="zoomplus.mouseover" end="zoomplus.mouseout"/></use>
    <path d="M-4,0h8M0,-4v8" fill="none" stroke="white" stroke-width="1.5" pointer-events="none"/>
  </g>
  <g id="zoomMin">
    <use xlink:href="#rim" fill="#404040"><set attributeName="fill" to="#808080" begin="zoomminus.mouseover" end="zoomminus.mouseout"/></use>
    <path d="M-4,0h8" fill="none" stroke="white" stroke-width="1.5" pointer-events="none"/>
  </g>
  <g id="arrowUp" transform="translate(30 24)">
    <use xlink:href="#rim"/>
    <path pointer-events="none" fill="none" stroke="white" stroke-width="1.5" d="M0,-3.0v7 M-2.5,-0.5L0,-3.0L2.5,-0.5"/>
  </g>
  <g id="arrowRight" transform="rotate(90) translate(36 -43)">
    <use xlink:href="#rim"/>
    <path pointer-events="none" fill="none" stroke="white" stroke-width="1.5" d="M0,-3.0v7 M-2.5,-0.5L0,-3.0L2.5,-0.5"/>
  </g>
  <g id="arrowDown" transform="rotate(180) translate(-30 -48)">
    <use xlink:href="#rim"/>
    <path pointer-events="none" fill="none" stroke="white" stroke-width="1.5" d="M0,-3.0v7 M-2.5,-0.5L0,-3.0L2.5,-0.5"/>
  </g>
  <g id="arrowLeft" transform="rotate(270) translate(-36 17)">
    <use xlink:href="#rim"/>
    <path pointer-events="none" fill="none" stroke="white" stroke-width="1.5" d="M0,-3.0v7 M-2.5,-0.5L0,-3.0L2.5,-0.5"/>
  </g>
  <g id="resetDef">
    <use xlink:href="#rim2" fill="#404040"><set attributeName="fill" to="#808080" begin="reset.mouseover" end="reset.mouseout"/></use>
  </g>
</defs>
<script type="application/ecmascript">
var viewWidth = 326;
var viewHeight = 536;
var sectionId = 'dynsection-0';
</script>
<script type="application/ecmascript" xlink:href="svg.min.js"/>
<svg id="graph" class="graph">
<g id="viewport">
<title>atlas_tile_layer_rbsp</title>
<!-- Node1 -->
<g id="Node000001" class="node">
<title>Node1</title>
<g id="a_Node000001"><a xlink:title=" ">
<polygon fill="#999999" stroke="transparent" points="260.5,-49 148.5,-49 148.5,0 260.5,0 260.5,-49"/>
<text text-anchor="start" x="153.5" y="-36.5" font-family="Helvetica,sans-Serif" font-size="10.00">atlas_tile_layer_rbsp</text>
<text text-anchor="start" x="202.5" y="-21.5" font-family="Helvetica,sans-Serif" font-size="10.00"> </text>
<text text-anchor="start" x="202.5" y="-6.5" font-family="Helvetica,sans-Serif" font-size="10.00"> </text>
<polygon fill="#666666" stroke="#666666" points="148.5,-31.5 148.5,-31.5 260.5,-31.5 260.5,-31.5 148.5,-31.5"/>
<polygon fill="#666666" stroke="#666666" points="148.5,-16.5 148.5,-16.5 260.5,-16.5 260.5,-16.5 148.5,-16.5"/>
<polygon fill="none" stroke="#666666" points="148.5,0 148.5,-49 260.5,-49 260.5,0 148.5,0"/>
</a>
</g>
</g>
<!-- Node2 -->
<g id="Node000002" class="node">
<title>Node2</title>
<g id="a_Node000002"><a xlink:href="structatlas__tile__header.html" target="_top" xlink:title=" ">
<polygon fill="white" stroke="transparent" points="157,-372 0,-372 0,-96 157,-96 157,-372"/>
<text text-anchor="start" x="36.5" y="-360" font-family="Helvetica,sans-Serif" font-size="10.00">atlas_tile_header</text>
<text text-anchor="start" x="4.5" y="-345" font-family="Helvetica,sans-Serif" font-size="10.00">+</text>
<text text-anchor="start" x="17.5" y="-345" font-family="Helvetica,sans-Serif" font-size="10.00">ath_no_output_of_prior</text>
<text text-anchor="start" x="17.5" y="-334" font-family="Helvetica,sans-Serif" font-size="10.00">_atlas_frames_flag</text>
<text text-anchor="start" x="4.5" y="-319" font-family="Helvetica,sans-Serif" font-size="10.00">+</text>
<text text-anchor="start" x="17.5" y="-319" font-family="Helvetica,sans-Serif" font-size="10.00">ath_atlas_frame_parameter</text>
<text text-anchor="start" x="17.5" y="-308" font-family="Helvetica,sans-Serif" font-size="10.00">_set_id</text>
<text text-anchor="start" x="4.5" y="-293" font-family="Helvetica,sans-Serif" font-size="10.00">+</text>
<text text-anchor="start" x="17.5" y="-293" font-family="Helvetica,sans-Serif" font-size="10.00">ath_atlas_adaptation</text>
<text text-anchor="start" x="17.5" y="-282" font-family="Helvetica,sans-Serif" font-size="10.00">_parameter_set_id</text>
<text text-anchor="start" x="4.5" y="-267" font-family="Helvetica,sans-Serif" font-size="10.00">+</text>
<text text-anchor="start" x="17.5" y="-267" font-family="Helvetica,sans-Serif" font-size="10.00">ath_id</text>
<text text-anchor="start" x="4.5" y="-252" font-family="Helvetica,sans-Serif" font-size="10.00">+</text>
<text text-anchor="start" x="17.5" y="-252" font-family="Helvetica,sans-Serif" font-size="10.00">ath_type</text>
<text text-anchor="start" x="4.5" y="-237" font-family="Helvetica,sans-Serif" font-size="10.00">+</text>
<text text-anchor="start" x="17.5" y="-237" font-family="Helvetica,sans-Serif" font-size="10.00">ath_atlas_output_flag</text>
<text text-anchor="start" x="4.5" y="-222" font-family="Helvetica,sans-Serif" font-size="10.00">+</text>
<text text-anchor="start" x="17.5" y="-222" font-family="Helvetica,sans-Serif" font-size="10.00">ath_atlas_frm_order</text>
<text text-anchor="start" x="17.5" y="-211" font-family="Helvetica,sans-Serif" font-size="10.00">_cnt_lsb</text>
<text text-anchor="start" x="4.5" y="-196" font-family="Helvetica,sans-Serif" font-size="10.00">+</text>
<text text-anchor="start" x="17.5" y="-196" font-family="Helvetica,sans-Serif" font-size="10.00">ath_ref_atlas_frame</text>
<text text-anchor="start" x="17.5" y="-185" font-family="Helvetica,sans-Serif" font-size="10.00">_list_asps_flag</text>
<text text-anchor="start" x="4.5" y="-170" font-family="Helvetica,sans-Serif" font-size="10.00">+</text>
<text text-anchor="start" x="17.5" y="-170" font-family="Helvetica,sans-Serif" font-size="10.00">ath_ref_atlas_frame</text>
<text text-anchor="start" x="17.5" y="-159" font-family="Helvetica,sans-Serif" font-size="10.00">_list_idx</text>
<text text-anchor="start" x="4.5" y="-144" font-family="Helvetica,sans-Serif" font-size="10.00">+</text>
<text text-anchor="start" x="17.5" y="-144" font-family="Helvetica,sans-Serif" font-size="10.00">ath_additional_afoc</text>
<text text-anchor="start" x="17.5" y="-133" font-family="Helvetica,sans-Serif" font-size="10.00">_lsb_present_flag</text>
<text text-anchor="start" x="17.5" y="-118" font-family="Helvetica,sans-Serif" font-size="10.00">and 8 more...</text>
<text text-anchor="start" x="77" y="-103" font-family="Helvetica,sans-Serif" font-size="10.00"> </text>
<polygon fill="#666666" stroke="#666666" points="0.5,-355 0.5,-355 157.5,-355 157.5,-355 0.5,-355"/>
<polygon fill="#666666" stroke="#666666" points="0.5,-113 0.5,-113 15.5,-113 15.5,-113 0.5,-113"/>
<polygon fill="#666666" stroke="#666666" points="15.5,-113 15.5,-113 157.5,-113 157.5,-113 15.5,-113"/>
<polygon fill="none" stroke="#666666" points="0,-96 0,-372 157,-372 157,-96 0,-96"/>
</a>
</g>
</g>
<!-- Node2&#45;&gt;Node1 -->
<g id="edge1_Node000001_Node000002" class="edge">
<title>Node2&#45;&gt;Node1</title>
<g id="a_edge1_Node000001_Node000002"><a xlink:title=" ">
<path fill="none" stroke="#63b8ff" d="M157.25,-98.05C163.68,-87.5 170.15,-77.04 176.5,-67 178.12,-64.43 179.83,-61.78 181.56,-59.14"/>
<polygon fill="none" stroke="#63b8ff" points="181.62,-59.04 181.61,-51.83 188.26,-49.04 188.27,-56.25 181.62,-59.04"/>
</a>
</g>
<text text-anchor="middle" x="193" y="-70" font-family="Helvetica,sans-Serif" font-size="10.00" fill="grey"> +ath_</text>
</g>
<!-- Node3 -->
<g id="Node000003" class="node">
<title>Node3</title>
<g id="a_Node000003"><a xlink:href="structref__list__struct.html" target="_top" xlink:title=" ">
<polygon fill="white" stroke="transparent" points="146.5,-528 10.5,-528 10.5,-419 146.5,-419 146.5,-528"/>
<text text-anchor="start" x="45" y="-515.5" font-family="Helvetica,sans-Serif" font-size="10.00">ref_list_struct</text>
<text text-anchor="start" x="14.5" y="-500.5" font-family="Helvetica,sans-Serif" font-size="10.00">+</text>
<text text-anchor="start" x="27.5" y="-500.5" font-family="Helvetica,sans-Serif" font-size="10.00">num_ref_entries</text>
<text text-anchor="start" x="14.5" y="-485.5" font-family="Helvetica,sans-Serif" font-size="10.00">+</text>
<text text-anchor="start" x="27.5" y="-485.5" font-family="Helvetica,sans-Serif" font-size="10.00">st_ref_atlas_frame_flag</text>
<text text-anchor="start" x="14.5" y="-470.5" font-family="Helvetica,sans-Serif" font-size="10.00">+</text>
<text text-anchor="start" x="27.5" y="-470.5" font-family="Helvetica,sans-Serif" font-size="10.00">abs_delta_afoc_st</text>
<text text-anchor="start" x="14.5" y="-455.5" font-family="Helvetica,sans-Serif" font-size="10.00">+</text>
<text text-anchor="start" x="27.5" y="-455.5" font-family="Helvetica,sans-Serif" font-size="10.00">straf_entry_sign_flag</text>
<text text-anchor="start" x="14.5" y="-440.5" font-family="Helvetica,sans-Serif" font-size="10.00">+</text>
<text text-anchor="start" x="27.5" y="-440.5" font-family="Helvetica,sans-Serif" font-size="10.00">afoc_lsb_lt</text>
<text text-anchor="start" x="76.5" y="-425.5" font-family="Helvetica,sans-Serif" font-size="10.00"> </text>
<polygon fill="#666666" stroke="#666666" points="10.5,-510.5 10.5,-510.5 146.5,-510.5 146.5,-510.5 10.5,-510.5"/>
<polygon fill="#666666" stroke="#666666" points="10.5,-435.5 10.5,-435.5 25.5,-435.5 25.5,-435.5 10.5,-435.5"/>
<polygon fill="#666666" stroke="#666666" points="25.5,-435.5 25.5,-435.5 146.5,-435.5 146.5,-435.5 25.5,-435.5"/>
<polygon fill="none" stroke="#666666" points="10.5,-419 10.5,-528 146.5,-528 146.5,-419 10.5,-419"/>
</a>
</g>
</g>
<!-- Node3&#45;&gt;Node2 -->
<g id="edge2_Node000002_Node000003" class="edge">
<title>Node3&#45;&gt;Node2</title>
<g id="a_edge2_Node000002_Node000003"><a xlink:title=" ">
<path fill="none" stroke="#63b8ff" d="M78.5,-418.9C78.5,-408.23 78.5,-396.54 78.5,-384.4"/>
<polygon fill="none" stroke="#63b8ff" points="78.5,-384.12 74.5,-378.12 78.5,-372.12 82.5,-378.12 78.5,-384.12"/>
</a>
</g>
<text text-anchor="middle" x="94" y="-393" font-family="Helvetica,sans-Serif" font-size="10.00" fill="grey"> +refs</text>
</g>
<!-- Node4 -->
<g id="Node000004" class="node">
<title>Node4</title>
<g id="a_Node000004"><a xlink:href="structatlas__tile__data__unit.html" target="_top" xlink:title=" ">
<polygon fill="white" stroke="transparent" points="318,-258.5 175,-258.5 175,-209.5 318,-209.5 318,-258.5"/>
<text text-anchor="start" x="198.5" y="-246" font-family="Helvetica,sans-Serif" font-size="10.00">atlas_tile_data_unit</text>
<text text-anchor="start" x="179.5" y="-231" font-family="Helvetica,sans-Serif" font-size="10.00">+</text>
<text text-anchor="start" x="192.5" y="-231" font-family="Helvetica,sans-Serif" font-size="10.00">patch_information_data_</text>
<text text-anchor="start" x="245" y="-216" font-family="Helvetica,sans-Serif" font-size="10.00"> </text>
<polygon fill="#666666" stroke="#666666" points="175.5,-241 175.5,-241 318.5,-241 318.5,-241 175.5,-241"/>
<polygon fill="#666666" stroke="#666666" points="175.5,-226 175.5,-226 190.5,-226 190.5,-226 175.5,-226"/>
<polygon fill="#666666" stroke="#666666" points="190.5,-226 190.5,-226 318.5,-226 318.5,-226 190.5,-226"/>
<polygon fill="none" stroke="#666666" points="175,-209.5 175,-258.5 318,-258.5 318,-209.5 175,-209.5"/>
</a>
</g>
</g>
<!-- Node4&#45;&gt;Node1 -->
<g id="edge3_Node000001_Node000004" class="edge">
<title>Node4&#45;&gt;Node1</title>
<g id="a_edge3_Node000001_Node000004"><a xlink:title=" ">
<path fill="none" stroke="#63b8ff" d="M241.68,-209.2C234.32,-172.85 220.24,-103.27 211.68,-60.96"/>
<polygon fill="none" stroke="#63b8ff" points="211.64,-60.79 206.53,-55.7 209.26,-49.03 214.37,-54.11 211.64,-60.79"/>
</a>
</g>
<text text-anchor="middle" x="234" y="-70" font-family="Helvetica,sans-Serif" font-size="10.00" fill="grey"> +atdu_</text>
</g>
</g>
</svg>

<g id="navigator" transform="translate(0 0)" fill="#404254">
  <rect fill="#f2f5e9" fill-opacity="0.5" stroke="#606060" stroke-width=".5" x="0" y="0" width="60" height="60"/>
  <use id="zoomplus" xlink:href="#zoomPlus" x="17" y="9" onmousedown="handleZoom(evt,'in')"/>
  <use id="zoomminus" xlink:href="#zoomMin" x="42" y="9" onmousedown="handleZoom(evt,'out')"/>
  <use id="reset" xlink:href="#resetDef" x="30" y="36" onmousedown="handleReset()"/>
   <use id="arrowup" xlink:href="#arrowUp" x="0" y="0" onmousedown="handlePan(0,-1)"/>
  <use id="arrowright" xlink:href="#arrowRight" x="0" y="0" onmousedown="handlePan(1,0)"/>
  <use id="arrowdown" xlink:href="#arrowDown" x="0" y="0" onmousedown="handlePan(0,1)"/>
  <use id="arrowleft" xlink:href="#arrowLeft" x="0" y="0" onmousedown="handlePan(-1,0)"/>
</g>
<svg viewBox="0 0 15 15" width="100%" height="30px" preserveAspectRatio="xMaxYMin meet">
 <g id="arrow_out" transform="scale(0.3 0.3)">
  <a xlink:href="structatlas__tile__layer__rbsp__coll__graph_org.svg" target="_base">
   <rect id="button" ry="5" rx="5" y="6" x="6" height="38" width="38"
        fill="#f2f5e9" fill-opacity="0.5" stroke="#606060" stroke-width="1.0"/>
   <path id="arrow"
     d="M 11.500037,31.436501 C 11.940474,20.09759 22.043105,11.32322 32.158766,21.979434 L 37.068811,17.246167 C 37.068811,17.246167 37.088388,32 37.088388,32 L 22.160133,31.978069 C 22.160133,31.978069 26.997745,27.140456 26.997745,27.140456 C 18.528582,18.264221 13.291696,25.230495 11.500037,31.436501 z"
     style="fill:#404040;"/>
  </a>
 </g>
</svg>

<style type='text/css'>
<![CDATA[
[data-mouse-over-selected='false'] { opacity: 0.7; }
[data-mouse-over-selected='true']  { opacity: 1.0; }
]]>
</style>
<script type="application/ecmascript"><![CDATA[
document.addEventListener('DOMContentLoaded', (event) => {
  highlightEdges();
  highlightAdjacentNodes();
});
]]></script>
</svg>
