<?xml version="1.0" encoding="UTF-8" standalone="no"?>
<!DOCTYPE svg PUBLIC "-//W3C//DTD SVG 1.1//EN"
 "http://www.w3.org/Graphics/SVG/1.1/DTD/svg11.dtd">
<!-- Generated by graphviz version 2.43.0 (0)
 -->
<!-- Title: patch_information_data Pages: 1 -->
<!--zoomable 429 -->

<svg id="main" version="1.1" xmlns="http://www.w3.org/2000/svg" xmlns:xlink="http://www.w3.org/1999/xlink" xml:space="preserve" onload="init(evt)">
<style type="text/css"><![CDATA[
.node, .edge {opacity: 0.7;}
.node.selected, .edge.selected {opacity: 1;}
.edge:hover path { stroke: red; }
.edge:hover polygon { stroke: red; fill: red; }
]]></style>

<defs>
  <circle id="rim" cx="0" cy="0" r="7"/>
  <circle id="rim2" cx="0" cy="0" r="3.5"/>
  <g id="zoomPlus">
    <use xlink:href="#rim" fill="#404040"><set attributeName="fill" to="#808080" begin="zoomplus.mouseover" end="zoomplus.mouseout"/></use>
    <path d="M-4,0h8M0,-4v8" fill="none" stroke="white" stroke-width="1.5" pointer-events="none"/>
  </g>
  <g id="zoomMin">
    <use xlink:href="#rim" fill="#404040"><set attributeName="fill" to="#808080" begin="zoomminus.mouseover" end="zoomminus.mouseout"/></use>
    <path d="M-4,0h8" fill="none" stroke="white" stroke-width="1.5" pointer-events="none"/>
  </g>
  <g id="arrowUp" transform="translate(30 24)">
    <use xlink:href="#rim"/>
    <path pointer-events="none" fill="none" stroke="white" stroke-width="1.5" d="M0,-3.0v7 M-2.5,-0.5L0,-3.0L2.5,-0.5"/>
  </g>
  <g id="arrowRight" transform="rotate(90) translate(36 -43)">
    <use xlink:href="#rim"/>
    <path pointer-events="none" fill="none" stroke="white" stroke-width="1.5" d="M0,-3.0v7 M-2.5,-0.5L0,-3.0L2.5,-0.5"/>
  </g>
  <g id="arrowDown" transform="rotate(180) translate(-30 -48)">
    <use xlink:href="#rim"/>
    <path pointer-events="none" fill="none" stroke="white" stroke-width="1.5" d="M0,-3.0v7 M-2.5,-0.5L0,-3.0L2.5,-0.5"/>
  </g>
  <g id="arrowLeft" transform="rotate(270) translate(-36 17)">
    <use xlink:href="#rim"/>
    <path pointer-events="none" fill="none" stroke="white" stroke-width="1.5" d="M0,-3.0v7 M-2.5,-0.5L0,-3.0L2.5,-0.5"/>
  </g>
  <g id="resetDef">
    <use xlink:href="#rim2" fill="#404040"><set attributeName="fill" to="#808080" begin="reset.mouseover" end="reset.mouseout"/></use>
  </g>
</defs>
<script type="application/ecmascript">
var viewWidth = 896;
var viewHeight = 429;
var sectionId = 'dynsection-0';
</script>
<script type="application/ecmascript" xlink:href="svg.min.js"/>
<svg id="graph" class="graph">
<g id="viewport">
<title>patch_information_data</title>
<!-- Node1 -->
<g id="Node000001" class="node">
<title>Node1</title>
<g id="a_Node000001"><a xlink:title=" ">
<polygon fill="#999999" stroke="transparent" points="506,-49 379,-49 379,0 506,0 506,-49"/>
<text text-anchor="start" x="384.5" y="-36.5" font-family="Helvetica,sans-Serif" font-size="10.00">patch_information_data</text>
<text text-anchor="start" x="396" y="-21.5" font-family="Helvetica,sans-Serif" font-size="10.00">+</text>
<text text-anchor="start" x="421.5" y="-21.5" font-family="Helvetica,sans-Serif" font-size="10.00">patchMode</text>
<text text-anchor="start" x="441" y="-6.5" font-family="Helvetica,sans-Serif" font-size="10.00"> </text>
<polygon fill="#666666" stroke="#666666" points="379.5,-31.5 379.5,-31.5 506.5,-31.5 506.5,-31.5 379.5,-31.5"/>
<polygon fill="#666666" stroke="#666666" points="379.5,-16.5 379.5,-16.5 419.5,-16.5 419.5,-16.5 379.5,-16.5"/>
<polygon fill="#666666" stroke="#666666" points="419.5,-16.5 419.5,-16.5 506.5,-16.5 506.5,-16.5 419.5,-16.5"/>
<polygon fill="none" stroke="#666666" points="379,0 379,-49 506,-49 506,0 379,0"/>
</a>
</g>
</g>
<!-- Node2 -->
<g id="Node000002" class="node">
<title>Node2</title>
<g id="a_Node000002"><a xlink:href="structpatch__data__unit.html" target="_top" xlink:title=" ">
<polygon fill="white" stroke="transparent" points="143,-325 0,-325 0,-96 143,-96 143,-325"/>
<text text-anchor="start" x="32.5" y="-312.5" font-family="Helvetica,sans-Serif" font-size="10.00">patch_data_unit</text>
<text text-anchor="start" x="4.5" y="-297.5" font-family="Helvetica,sans-Serif" font-size="10.00">+</text>
<text text-anchor="start" x="17.5" y="-297.5" font-family="Helvetica,sans-Serif" font-size="10.00">pdu_2d_pos_x</text>
<text text-anchor="start" x="4.5" y="-282.5" font-family="Helvetica,sans-Serif" font-size="10.00">+</text>
<text text-anchor="start" x="17.5" y="-282.5" font-family="Helvetica,sans-Serif" font-size="10.00">pdu_2d_pos_y</text>
<text text-anchor="start" x="4.5" y="-267.5" font-family="Helvetica,sans-Serif" font-size="10.00">+</text>
<text text-anchor="start" x="17.5" y="-267.5" font-family="Helvetica,sans-Serif" font-size="10.00">pdu_2d_size_x_minus1</text>
<text text-anchor="start" x="4.5" y="-252.5" font-family="Helvetica,sans-Serif" font-size="10.00">+</text>
<text text-anchor="start" x="17.5" y="-252.5" font-family="Helvetica,sans-Serif" font-size="10.00">pdu_2d_size_y_minus1</text>
<text text-anchor="start" x="4.5" y="-237.5" font-family="Helvetica,sans-Serif" font-size="10.00">+</text>
<text text-anchor="start" x="17.5" y="-237.5" font-family="Helvetica,sans-Serif" font-size="10.00">pdu_3d_offset_u</text>
<text text-anchor="start" x="4.5" y="-222.5" font-family="Helvetica,sans-Serif" font-size="10.00">+</text>
<text text-anchor="start" x="17.5" y="-222.5" font-family="Helvetica,sans-Serif" font-size="10.00">pdu_3d_offset_v</text>
<text text-anchor="start" x="4.5" y="-207.5" font-family="Helvetica,sans-Serif" font-size="10.00">+</text>
<text text-anchor="start" x="17.5" y="-207.5" font-family="Helvetica,sans-Serif" font-size="10.00">pdu_3d_offset_d</text>
<text text-anchor="start" x="4.5" y="-192.5" font-family="Helvetica,sans-Serif" font-size="10.00">+</text>
<text text-anchor="start" x="17.5" y="-192.5" font-family="Helvetica,sans-Serif" font-size="10.00">pdu_3d_range_d</text>
<text text-anchor="start" x="4.5" y="-177.5" font-family="Helvetica,sans-Serif" font-size="10.00">+</text>
<text text-anchor="start" x="17.5" y="-177.5" font-family="Helvetica,sans-Serif" font-size="10.00">pdu_projection_id</text>
<text text-anchor="start" x="4.5" y="-162.5" font-family="Helvetica,sans-Serif" font-size="10.00">+</text>
<text text-anchor="start" x="17.5" y="-162.5" font-family="Helvetica,sans-Serif" font-size="10.00">pdu_orientation_index</text>
<text text-anchor="start" x="4.5" y="-147.5" font-family="Helvetica,sans-Serif" font-size="10.00">+</text>
<text text-anchor="start" x="17.5" y="-147.5" font-family="Helvetica,sans-Serif" font-size="10.00">pdu_lod_enabled_flag</text>
<text text-anchor="start" x="4.5" y="-132.5" font-family="Helvetica,sans-Serif" font-size="10.00">+</text>
<text text-anchor="start" x="17.5" y="-132.5" font-family="Helvetica,sans-Serif" font-size="10.00">pdu_lod_scale_x_minus1</text>
<text text-anchor="start" x="4.5" y="-117.5" font-family="Helvetica,sans-Serif" font-size="10.00">+</text>
<text text-anchor="start" x="17.5" y="-117.5" font-family="Helvetica,sans-Serif" font-size="10.00">pdu_lod_scale_y_idc</text>
<text text-anchor="start" x="70" y="-102.5" font-family="Helvetica,sans-Serif" font-size="10.00"> </text>
<polygon fill="#666666" stroke="#666666" points="0.5,-307.5 0.5,-307.5 143.5,-307.5 143.5,-307.5 0.5,-307.5"/>
<polygon fill="#666666" stroke="#666666" points="0.5,-112.5 0.5,-112.5 15.5,-112.5 15.5,-112.5 0.5,-112.5"/>
<polygon fill="#666666" stroke="#666666" points="15.5,-112.5 15.5,-112.5 143.5,-112.5 143.5,-112.5 15.5,-112.5"/>
<polygon fill="none" stroke="#666666" points="0,-96 0,-325 143,-325 143,-96 0,-96"/>
</a>
</g>
</g>
<!-- Node2&#45;&gt;Node1 -->
<g id="edge1_Node000001_Node000002" class="edge">
<title>Node2&#45;&gt;Node1</title>
<g id="a_edge1_Node000001_Node000002"><a xlink:title=" ">
<path fill="none" stroke="#63b8ff" d="M102.43,-95.72C109.2,-84.78 117.45,-74.86 127.5,-67 163.61,-38.76 285.63,-29.7 366.77,-26.81"/>
<polygon fill="none" stroke="#63b8ff" points="366.93,-26.81 372.8,-22.61 378.92,-26.42 373.06,-30.61 366.93,-26.81"/>
</a>
</g>
<text text-anchor="middle" x="175" y="-70" font-family="Helvetica,sans-Serif" font-size="10.00" fill="grey"> +patch_data_unit_</text>
</g>
<!-- Node3 -->
<g id="Node000003" class="node">
<title>Node3</title>
<g id="a_Node000003"><a xlink:href="structplr__data.html" target="_top" xlink:title=" ">
<polygon fill="white" stroke="transparent" points="96.5,-421 46.5,-421 46.5,-372 96.5,-372 96.5,-421"/>
<text text-anchor="start" x="51.5" y="-408.5" font-family="Helvetica,sans-Serif" font-size="10.00">plr_data</text>
<text text-anchor="start" x="69.5" y="-393.5" font-family="Helvetica,sans-Serif" font-size="10.00"> </text>
<text text-anchor="start" x="69.5" y="-378.5" font-family="Helvetica,sans-Serif" font-size="10.00"> </text>
<polygon fill="#666666" stroke="#666666" points="46.5,-403.5 46.5,-403.5 96.5,-403.5 96.5,-403.5 46.5,-403.5"/>
<polygon fill="#666666" stroke="#666666" points="46.5,-388.5 46.5,-388.5 96.5,-388.5 96.5,-388.5 46.5,-388.5"/>
<polygon fill="none" stroke="#666666" points="46.5,-372 46.5,-421 96.5,-421 96.5,-372 46.5,-372"/>
</a>
</g>
</g>
<!-- Node3&#45;&gt;Node2 -->
<g id="edge2_Node000002_Node000003" class="edge">
<title>Node3&#45;&gt;Node2</title>
<g id="a_edge2_Node000002_Node000003"><a xlink:title=" ">
<path fill="none" stroke="#63b8ff" d="M71.5,-371.82C71.5,-362.24 71.5,-350.38 71.5,-337.49"/>
<polygon fill="none" stroke="#63b8ff" points="71.5,-337.4 67.5,-331.4 71.5,-325.4 75.5,-331.4 71.5,-337.4"/>
</a>
</g>
<text text-anchor="middle" x="100" y="-346" font-family="Helvetica,sans-Serif" font-size="10.00" fill="grey"> +plr_data_</text>
</g>
<!-- Node4 -->
<g id="Node000004" class="node">
<title>Node4</title>
<g id="a_Node000004"><a xlink:href="structinter__patch__data__unit.html" target="_top" xlink:title=" ">
<polygon fill="white" stroke="transparent" points="277.5,-235 161.5,-235 161.5,-186 277.5,-186 277.5,-235"/>
<text text-anchor="start" x="166.5" y="-222.5" font-family="Helvetica,sans-Serif" font-size="10.00">inter_patch_data_unit</text>
<text text-anchor="start" x="217.5" y="-207.5" font-family="Helvetica,sans-Serif" font-size="10.00"> </text>
<text text-anchor="start" x="217.5" y="-192.5" font-family="Helvetica,sans-Serif" font-size="10.00"> </text>
<polygon fill="#666666" stroke="#666666" points="161.5,-217.5 161.5,-217.5 277.5,-217.5 277.5,-217.5 161.5,-217.5"/>
<polygon fill="#666666" stroke="#666666" points="161.5,-202.5 161.5,-202.5 277.5,-202.5 277.5,-202.5 161.5,-202.5"/>
<polygon fill="none" stroke="#666666" points="161.5,-186 161.5,-235 277.5,-235 277.5,-186 161.5,-186"/>
</a>
</g>
</g>
<!-- Node4&#45;&gt;Node1 -->
<g id="edge3_Node000001_Node000004" class="edge">
<title>Node4&#45;&gt;Node1</title>
<g id="a_edge3_Node000001_Node000004"><a xlink:title=" ">
<path fill="none" stroke="#63b8ff" d="M214.14,-185.95C208.52,-154.61 204.12,-99.42 233.5,-67 251.28,-47.39 314.49,-36.73 366.78,-31.15"/>
<polygon fill="none" stroke="#63b8ff" points="366.84,-31.15 372.4,-26.56 378.78,-29.94 373.21,-34.52 366.84,-31.15"/>
</a>
</g>
<text text-anchor="middle" x="295" y="-70" font-family="Helvetica,sans-Serif" font-size="10.00" fill="grey"> +inter_patch_data_unit_</text>
</g>
<!-- Node5 -->
<g id="Node000005" class="node">
<title>Node5</title>
<g id="a_Node000005"><a xlink:href="structmerge__patch__data__unit.html" target="_top" xlink:title=" ">
<polygon fill="white" stroke="transparent" points="428,-235 303,-235 303,-186 428,-186 428,-235"/>
<text text-anchor="start" x="308.5" y="-222.5" font-family="Helvetica,sans-Serif" font-size="10.00">merge_patch_data_unit</text>
<text text-anchor="start" x="364" y="-207.5" font-family="Helvetica,sans-Serif" font-size="10.00"> </text>
<text text-anchor="start" x="364" y="-192.5" font-family="Helvetica,sans-Serif" font-size="10.00"> </text>
<polygon fill="#666666" stroke="#666666" points="303.5,-217.5 303.5,-217.5 428.5,-217.5 428.5,-217.5 303.5,-217.5"/>
<polygon fill="#666666" stroke="#666666" points="303.5,-202.5 303.5,-202.5 428.5,-202.5 428.5,-202.5 303.5,-202.5"/>
<polygon fill="none" stroke="#666666" points="303,-186 303,-235 428,-235 428,-186 303,-186"/>
</a>
</g>
</g>
<!-- Node5&#45;&gt;Node1 -->
<g id="edge4_Node000001_Node000005" class="edge">
<title>Node5&#45;&gt;Node1</title>
<g id="a_edge4_Node000001_Node000005"><a xlink:title=" ">
<path fill="none" stroke="#63b8ff" d="M358.82,-185.86C351.8,-155.9 344.53,-103.73 366.5,-67 368.58,-63.52 371.07,-60.31 373.86,-57.35"/>
<polygon fill="none" stroke="#63b8ff" points="374.03,-57.2 375.86,-50.22 383,-49.23 381.17,-56.2 374.03,-57.2"/>
</a>
</g>
<text text-anchor="middle" x="432.5" y="-70" font-family="Helvetica,sans-Serif" font-size="10.00" fill="grey"> +merge_patch_data_unit_</text>
</g>
<!-- Node6 -->
<g id="Node000006" class="node">
<title>Node6</title>
<g id="a_Node000006"><a xlink:href="structskip__patch__data__unit.html" target="_top" xlink:title=" ">
<polygon fill="white" stroke="transparent" points="577.5,-235 463.5,-235 463.5,-186 577.5,-186 577.5,-235"/>
<text text-anchor="start" x="468.5" y="-222.5" font-family="Helvetica,sans-Serif" font-size="10.00">skip_patch_data_unit</text>
<text text-anchor="start" x="518.5" y="-207.5" font-family="Helvetica,sans-Serif" font-size="10.00"> </text>
<text text-anchor="start" x="518.5" y="-192.5" font-family="Helvetica,sans-Serif" font-size="10.00"> </text>
<polygon fill="#666666" stroke="#666666" points="463.5,-217.5 463.5,-217.5 577.5,-217.5 577.5,-217.5 463.5,-217.5"/>
<polygon fill="#666666" stroke="#666666" points="463.5,-202.5 463.5,-202.5 577.5,-202.5 577.5,-202.5 463.5,-202.5"/>
<polygon fill="none" stroke="#666666" points="463.5,-186 463.5,-235 577.5,-235 577.5,-186 463.5,-186"/>
</a>
</g>
</g>
<!-- Node6&#45;&gt;Node1 -->
<g id="edge5_Node000001_Node000006" class="edge">
<title>Node6&#45;&gt;Node1</title>
<g id="a_edge5_Node000001_Node000006"><a xlink:title=" ">
<path fill="none" stroke="#63b8ff" d="M522.12,-185.97C523.06,-156.12 520.88,-104.08 498.5,-67 496.47,-63.63 494.05,-60.45 491.37,-57.46"/>
<polygon fill="none" stroke="#63b8ff" points="491.34,-57.43 484.25,-56.13 482.71,-49.09 489.81,-50.38 491.34,-57.43"/>
</a>
</g>
<text text-anchor="middle" x="564" y="-70" font-family="Helvetica,sans-Serif" font-size="10.00" fill="grey"> +skip_patch_data_unit_</text>
</g>
<!-- Node7 -->
<g id="Node000007" class="node">
<title>Node7</title>
<g id="a_Node000007"><a xlink:href="structraw__patch__data__unit.html" target="_top" xlink:title=" ">
<polygon fill="white" stroke="transparent" points="720.5,-235 608.5,-235 608.5,-186 720.5,-186 720.5,-235"/>
<text text-anchor="start" x="613.5" y="-222.5" font-family="Helvetica,sans-Serif" font-size="10.00">raw_patch_data_unit</text>
<text text-anchor="start" x="662.5" y="-207.5" font-family="Helvetica,sans-Serif" font-size="10.00"> </text>
<text text-anchor="start" x="662.5" y="-192.5" font-family="Helvetica,sans-Serif" font-size="10.00"> </text>
<polygon fill="#666666" stroke="#666666" points="608.5,-217.5 608.5,-217.5 720.5,-217.5 720.5,-217.5 608.5,-217.5"/>
<polygon fill="#666666" stroke="#666666" points="608.5,-202.5 608.5,-202.5 720.5,-202.5 720.5,-202.5 608.5,-202.5"/>
<polygon fill="none" stroke="#666666" points="608.5,-186 608.5,-235 720.5,-235 720.5,-186 608.5,-186"/>
</a>
</g>
</g>
<!-- Node7&#45;&gt;Node1 -->
<g id="edge6_Node000001_Node000007" class="edge">
<title>Node7&#45;&gt;Node1</title>
<g id="a_edge6_Node000001_Node000007"><a xlink:title=" ">
<path fill="none" stroke="#63b8ff" d="M665.58,-185.89C665.67,-154.24 660.79,-98.4 628.5,-67 612.64,-51.58 562.59,-40.94 518.4,-34.3"/>
<polygon fill="none" stroke="#63b8ff" points="518.3,-34.29 511.79,-37.39 506.42,-32.58 512.93,-29.47 518.3,-34.29"/>
</a>
</g>
<text text-anchor="middle" x="694.5" y="-70" font-family="Helvetica,sans-Serif" font-size="10.00" fill="grey"> +raw_patch_data_unit_</text>
</g>
<!-- Node8 -->
<g id="Node000008" class="node">
<title>Node8</title>
<g id="a_Node000008"><a xlink:href="structeom__patch__data__unit.html" target="_top" xlink:title=" ">
<polygon fill="white" stroke="transparent" points="863.5,-235 747.5,-235 747.5,-186 863.5,-186 863.5,-235"/>
<text text-anchor="start" x="752.5" y="-222.5" font-family="Helvetica,sans-Serif" font-size="10.00">eom_patch_data_unit</text>
<text text-anchor="start" x="803.5" y="-207.5" font-family="Helvetica,sans-Serif" font-size="10.00"> </text>
<text text-anchor="start" x="803.5" y="-192.5" font-family="Helvetica,sans-Serif" font-size="10.00"> </text>
<polygon fill="#666666" stroke="#666666" points="747.5,-217.5 747.5,-217.5 863.5,-217.5 863.5,-217.5 747.5,-217.5"/>
<polygon fill="#666666" stroke="#666666" points="747.5,-202.5 747.5,-202.5 863.5,-202.5 863.5,-202.5 747.5,-202.5"/>
<polygon fill="none" stroke="#666666" points="747.5,-186 747.5,-235 863.5,-235 863.5,-186 747.5,-186"/>
</a>
</g>
</g>
<!-- Node8&#45;&gt;Node1 -->
<g id="edge7_Node000001_Node000008" class="edge">
<title>Node8&#45;&gt;Node1</title>
<g id="a_edge7_Node000001_Node000008"><a xlink:title=" ">
<path fill="none" stroke="#63b8ff" d="M804.82,-185.82C802.52,-153.56 793.28,-96.44 757.5,-67 722.1,-37.87 599.87,-29.08 518.5,-26.49"/>
<polygon fill="none" stroke="#63b8ff" points="518.3,-26.48 512.18,-30.31 506.3,-26.13 512.42,-22.31 518.3,-26.48"/>
</a>
</g>
<text text-anchor="middle" x="826.5" y="-70" font-family="Helvetica,sans-Serif" font-size="10.00" fill="grey"> +eom_patch_data_unit_</text>
</g>
</g>
</svg>

<g id="navigator" transform="translate(0 0)" fill="#404254">
  <rect fill="#f2f5e9" fill-opacity="0.5" stroke="#606060" stroke-width=".5" x="0" y="0" width="60" height="60"/>
  <use id="zoomplus" xlink:href="#zoomPlus" x="17" y="9" onmousedown="handleZoom(evt,'in')"/>
  <use id="zoomminus" xlink:href="#zoomMin" x="42" y="9" onmousedown="handleZoom(evt,'out')"/>
  <use id="reset" xlink:href="#resetDef" x="30" y="36" onmousedown="handleReset()"/>
   <use id="arrowup" xlink:href="#arrowUp" x="0" y="0" onmousedown="handlePan(0,-1)"/>
  <use id="arrowright" xlink:href="#arrowRight" x="0" y="0" onmousedown="handlePan(1,0)"/>
  <use id="arrowdown" xlink:href="#arrowDown" x="0" y="0" onmousedown="handlePan(0,1)"/>
  <use id="arrowleft" xlink:href="#arrowLeft" x="0" y="0" onmousedown="handlePan(-1,0)"/>
</g>
<svg viewBox="0 0 15 15" width="100%" height="30px" preserveAspectRatio="xMaxYMin meet">
 <g id="arrow_out" transform="scale(0.3 0.3)">
  <a xlink:href="structpatch__information__data__coll__graph_org.svg" target="_base">
   <rect id="button" ry="5" rx="5" y="6" x="6" height="38" width="38"
        fill="#f2f5e9" fill-opacity="0.5" stroke="#606060" stroke-width="1.0"/>
   <path id="arrow"
     d="M 11.500037,31.436501 C 11.940474,20.09759 22.043105,11.32322 32.158766,21.979434 L 37.068811,17.246167 C 37.068811,17.246167 37.088388,32 37.088388,32 L 22.160133,31.978069 C 22.160133,31.978069 26.997745,27.140456 26.997745,27.140456 C 18.528582,18.264221 13.291696,25.230495 11.500037,31.436501 z"
     style="fill:#404040;"/>
  </a>
 </g>
</svg>

<style type='text/css'>
<![CDATA[
[data-mouse-over-selected='false'] { opacity: 0.7; }
[data-mouse-over-selected='true']  { opacity: 1.0; }
]]>
</style>
<script type="application/ecmascript"><![CDATA[
document.addEventListener('DOMContentLoaded', (event) => {
  highlightEdges();
  highlightAdjacentNodes();
});
]]></script>
</svg>
