<?xml version="1.0" encoding="UTF-8" standalone="no"?>
<!DOCTYPE svg PUBLIC "-//W3C//DTD SVG 1.1//EN"
 "http://www.w3.org/Graphics/SVG/1.1/DTD/svg11.dtd">
<!-- Generated by graphviz version 2.43.0 (0)
 -->
<!-- Title: KDTreeVectorOfVectorsAdaptor::query Pages: 1 -->
<svg width="373pt" height="86pt"
 viewBox="0.00 0.00 373.00 86.00" xmlns="http://www.w3.org/2000/svg" xmlns:xlink="http://www.w3.org/1999/xlink">
<g id="graph0" class="graph" transform="scale(1 1) rotate(0) translate(4 82)">
<title>KDTreeVectorOfVectorsAdaptor::query</title>
<!-- Node1 -->
<g id="Node000001" class="node">
<title>Node1</title>
<g id="a_Node000001"><a xlink:title=" ">
<polygon fill="#999999" stroke="#666666" points="167,-54 0,-54 0,-24 167,-24 167,-54"/>
<text text-anchor="start" x="8" y="-42" font-family="Helvetica,sans-Serif" font-size="10.00">KDTreeVectorOfVectorsAdaptor</text>
<text text-anchor="middle" x="83.5" y="-31" font-family="Helvetica,sans-Serif" font-size="10.00">::query</text>
</a>
</g>
</g>
<!-- Node2 -->
<g id="Node000002" class="node">
<title>Node2</title>
<g id="a_Node000002"><a xlink:href="classnanoflann_1_1KDTreeSingleIndexAdaptor.html#abd45fe1957ef7656aa92b1ee194c25f7" target="_top" xlink:title=" ">
<polygon fill="white" stroke="#666666" points="365,-78 203,-78 203,-48 365,-48 365,-78"/>
<text text-anchor="start" x="211" y="-66" font-family="Helvetica,sans-Serif" font-size="10.00">nanoflann::KDTreeSingleIndex</text>
<text text-anchor="middle" x="284" y="-55" font-family="Helvetica,sans-Serif" font-size="10.00">Adaptor::findNeighbors</text>
</a>
</g>
</g>
<!-- Node1&#45;&gt;Node2 -->
<g id="edge1_Node000001_Node000002" class="edge">
<title>Node1&#45;&gt;Node2</title>
<g id="a_edge1_Node000001_Node000002"><a xlink:title=" ">
<path fill="none" stroke="#63b8ff" d="M167.24,-49C175.73,-50.03 184.38,-51.08 192.95,-52.11"/>
<polygon fill="#63b8ff" stroke="#63b8ff" points="192.59,-55.59 202.94,-53.32 193.43,-48.64 192.59,-55.59"/>
</a>
</g>
</g>
<!-- Node3 -->
<g id="Node000003" class="node">
<title>Node3</title>
<g id="a_Node000003"><a xlink:href="classnanoflann_1_1KNNResultSet.html#a34d5e438b93c49aac9a915be0ab7cde9" target="_top" xlink:title=" ">
<polygon fill="white" stroke="#666666" points="353.5,-30 214.5,-30 214.5,0 353.5,0 353.5,-30"/>
<text text-anchor="start" x="222.5" y="-18" font-family="Helvetica,sans-Serif" font-size="10.00">nanoflann::KNNResultSet</text>
<text text-anchor="middle" x="284" y="-7" font-family="Helvetica,sans-Serif" font-size="10.00">::init</text>
</a>
</g>
</g>
<!-- Node1&#45;&gt;Node3 -->
<g id="edge2_Node000001_Node000003" class="edge">
<title>Node1&#45;&gt;Node3</title>
<g id="a_edge2_Node000001_Node000003"><a xlink:title=" ">
<path fill="none" stroke="#63b8ff" d="M167.24,-29C179.46,-27.52 192.02,-26 204.16,-24.53"/>
<polygon fill="#63b8ff" stroke="#63b8ff" points="204.73,-27.99 214.23,-23.31 203.89,-21.04 204.73,-27.99"/>
</a>
</g>
</g>
</g>
</svg>
