<?xml version="1.0" encoding="UTF-8" standalone="no"?>
<!DOCTYPE svg PUBLIC "-//W3C//DTD SVG 1.1//EN"
 "http://www.w3.org/Graphics/SVG/1.1/DTD/svg11.dtd">
<!-- Generated by graphviz version 2.43.0 (0)
 -->
<!-- Title: KDTreeVectorOfVectorsAdaptor&lt; VectorOfVectorsType, num_t, DIM, Distance, IndexType &gt; Pages: 1 -->
<svg width="611pt" height="1288pt"
 viewBox="0.00 0.00 611.00 1288.00" xmlns="http://www.w3.org/2000/svg" xmlns:xlink="http://www.w3.org/1999/xlink">
<g id="graph0" class="graph" transform="scale(1 1) rotate(0) translate(4 1284)">
<title>KDTreeVectorOfVectorsAdaptor&lt; VectorOfVectorsType, num_t, DIM, Distance, IndexType &gt;</title>
<!-- Node1 -->
<g id="Node000001" class="node">
<title>Node1</title>
<g id="a_Node000001"><a xlink:title=" ">
<polygon fill="#999999" stroke="transparent" points="522,-251 334,-251 334,0 522,0 522,-251"/>
<text text-anchor="start" x="352.5" y="-238.5" font-family="Helvetica,sans-Serif" font-size="10.00">KDTreeVectorOfVectorsAdaptor</text>
<text text-anchor="start" x="352.5" y="-227.5" font-family="Helvetica,sans-Serif" font-size="10.00">&lt; VectorOfVectorsType, num</text>
<text text-anchor="start" x="352.5" y="-216.5" font-family="Helvetica,sans-Serif" font-size="10.00">_t, DIM, Distance, IndexType &gt;</text>
<text text-anchor="start" x="338" y="-201.5" font-family="Helvetica,sans-Serif" font-size="10.00">+</text>
<text text-anchor="start" x="351" y="-201.5" font-family="Helvetica,sans-Serif" font-size="10.00">m_data</text>
<text text-anchor="start" x="338" y="-186.5" font-family="Helvetica,sans-Serif" font-size="10.00">+</text>
<text text-anchor="start" x="351" y="-186.5" font-family="Helvetica,sans-Serif" font-size="10.00">KDTreeVectorOfVectorsAdaptor()</text>
<text text-anchor="start" x="338" y="-171.5" font-family="Helvetica,sans-Serif" font-size="10.00">+</text>
<text text-anchor="start" x="351" y="-171.5" font-family="Helvetica,sans-Serif" font-size="10.00">~KDTreeVectorOfVectorsAdaptor()</text>
<text text-anchor="start" x="338" y="-156.5" font-family="Helvetica,sans-Serif" font-size="10.00">+</text>
<text text-anchor="start" x="351" y="-156.5" font-family="Helvetica,sans-Serif" font-size="10.00">query()</text>
<text text-anchor="start" x="338" y="-141.5" font-family="Helvetica,sans-Serif" font-size="10.00">+</text>
<text text-anchor="start" x="351" y="-141.5" font-family="Helvetica,sans-Serif" font-size="10.00">derived()</text>
<text text-anchor="start" x="338" y="-126.5" font-family="Helvetica,sans-Serif" font-size="10.00">+</text>
<text text-anchor="start" x="351" y="-126.5" font-family="Helvetica,sans-Serif" font-size="10.00">derived()</text>
<text text-anchor="start" x="338" y="-111.5" font-family="Helvetica,sans-Serif" font-size="10.00">+</text>
<text text-anchor="start" x="351" y="-111.5" font-family="Helvetica,sans-Serif" font-size="10.00">kdtree_get_point_count()</text>
<text text-anchor="start" x="338" y="-96.5" font-family="Helvetica,sans-Serif" font-size="10.00">+</text>
<text text-anchor="start" x="351" y="-96.5" font-family="Helvetica,sans-Serif" font-size="10.00">kdtree_get_pt()</text>
<text text-anchor="start" x="338" y="-81.5" font-family="Helvetica,sans-Serif" font-size="10.00">+</text>
<text text-anchor="start" x="351" y="-81.5" font-family="Helvetica,sans-Serif" font-size="10.00">kdtree_get_bbox()</text>
<text text-anchor="start" x="339.5" y="-66.5" font-family="Helvetica,sans-Serif" font-size="10.00">*</text>
<text text-anchor="start" x="351" y="-66.5" font-family="Helvetica,sans-Serif" font-size="10.00">derived()</text>
<text text-anchor="start" x="339.5" y="-51.5" font-family="Helvetica,sans-Serif" font-size="10.00">*</text>
<text text-anchor="start" x="351" y="-51.5" font-family="Helvetica,sans-Serif" font-size="10.00">derived()</text>
<text text-anchor="start" x="339.5" y="-36.5" font-family="Helvetica,sans-Serif" font-size="10.00">*</text>
<text text-anchor="start" x="351" y="-36.5" font-family="Helvetica,sans-Serif" font-size="10.00">kdtree_get_point_count()</text>
<text text-anchor="start" x="339.5" y="-21.5" font-family="Helvetica,sans-Serif" font-size="10.00">*</text>
<text text-anchor="start" x="351" y="-21.5" font-family="Helvetica,sans-Serif" font-size="10.00">kdtree_get_pt()</text>
<text text-anchor="start" x="339.5" y="-6.5" font-family="Helvetica,sans-Serif" font-size="10.00">*</text>
<text text-anchor="start" x="351" y="-6.5" font-family="Helvetica,sans-Serif" font-size="10.00">kdtree_get_bbox()</text>
<polygon fill="#666666" stroke="#666666" points="334,-211.5 334,-211.5 522,-211.5 522,-211.5 334,-211.5"/>
<polygon fill="#666666" stroke="#666666" points="334,-196.5 334,-196.5 349,-196.5 349,-196.5 334,-196.5"/>
<polygon fill="#666666" stroke="#666666" points="349,-196.5 349,-196.5 522,-196.5 522,-196.5 349,-196.5"/>
<polygon fill="none" stroke="#666666" points="334,0 334,-251 522,-251 522,0 334,0"/>
</a>
</g>
</g>
<!-- Node2 -->
<g id="Node000002" class="node">
<title>Node2</title>
<g id="a_Node000002"><a xlink:href="classnanoflann_1_1KDTreeSingleIndexAdaptor.html" target="_top" xlink:title=" ">
<polygon fill="white" stroke="transparent" points="522,-654 334,-654 334,-298 522,-298 522,-654"/>
<text text-anchor="start" x="339" y="-642" font-family="Helvetica,sans-Serif" font-size="10.00">nanoflann::KDTreeSingleIndex</text>
<text text-anchor="start" x="339" y="-631" font-family="Helvetica,sans-Serif" font-size="10.00">Adaptor&lt; Distance, DatasetAdaptor,</text>
<text text-anchor="start" x="383" y="-620" font-family="Helvetica,sans-Serif" font-size="10.00"> DIM, IndexType &gt;</text>
<text text-anchor="start" x="342" y="-605" font-family="Helvetica,sans-Serif" font-size="10.00">+</text>
<text text-anchor="start" x="359" y="-605" font-family="Helvetica,sans-Serif" font-size="10.00">dataset_</text>
<text text-anchor="start" x="342" y="-590" font-family="Helvetica,sans-Serif" font-size="10.00">+</text>
<text text-anchor="start" x="359" y="-590" font-family="Helvetica,sans-Serif" font-size="10.00">distance_</text>
<text text-anchor="start" x="342" y="-575" font-family="Helvetica,sans-Serif" font-size="10.00">+</text>
<text text-anchor="start" x="359" y="-575" font-family="Helvetica,sans-Serif" font-size="10.00">KDTreeSingleIndexAdaptor()</text>
<text text-anchor="start" x="342" y="-560" font-family="Helvetica,sans-Serif" font-size="10.00">+</text>
<text text-anchor="start" x="359" y="-560" font-family="Helvetica,sans-Serif" font-size="10.00">KDTreeSingleIndexAdaptor()</text>
<text text-anchor="start" x="342" y="-545" font-family="Helvetica,sans-Serif" font-size="10.00">+</text>
<text text-anchor="start" x="359" y="-545" font-family="Helvetica,sans-Serif" font-size="10.00">KDTreeSingleIndexAdaptor()</text>
<text text-anchor="start" x="342" y="-530" font-family="Helvetica,sans-Serif" font-size="10.00">+</text>
<text text-anchor="start" x="359" y="-530" font-family="Helvetica,sans-Serif" font-size="10.00">buildIndex()</text>
<text text-anchor="start" x="342" y="-515" font-family="Helvetica,sans-Serif" font-size="10.00">+</text>
<text text-anchor="start" x="359" y="-515" font-family="Helvetica,sans-Serif" font-size="10.00">init_vind()</text>
<text text-anchor="start" x="342" y="-500" font-family="Helvetica,sans-Serif" font-size="10.00">+</text>
<text text-anchor="start" x="359" y="-500" font-family="Helvetica,sans-Serif" font-size="10.00">computeBoundingBox()</text>
<text text-anchor="start" x="342" y="-485" font-family="Helvetica,sans-Serif" font-size="10.00">+</text>
<text text-anchor="start" x="359" y="-485" font-family="Helvetica,sans-Serif" font-size="10.00">searchLevel()</text>
<text text-anchor="start" x="342" y="-470" font-family="Helvetica,sans-Serif" font-size="10.00">+</text>
<text text-anchor="start" x="359" y="-470" font-family="Helvetica,sans-Serif" font-size="10.00">saveIndex()</text>
<text text-anchor="start" x="342" y="-455" font-family="Helvetica,sans-Serif" font-size="10.00">+</text>
<text text-anchor="start" x="359" y="-455" font-family="Helvetica,sans-Serif" font-size="10.00">loadIndex()</text>
<text text-anchor="start" x="342" y="-440" font-family="Helvetica,sans-Serif" font-size="10.00">+</text>
<text text-anchor="start" x="359" y="-440" font-family="Helvetica,sans-Serif" font-size="10.00">findNeighbors()</text>
<text text-anchor="start" x="342" y="-425" font-family="Helvetica,sans-Serif" font-size="10.00">+</text>
<text text-anchor="start" x="359" y="-425" font-family="Helvetica,sans-Serif" font-size="10.00">knnSearch()</text>
<text text-anchor="start" x="342" y="-410" font-family="Helvetica,sans-Serif" font-size="10.00">+</text>
<text text-anchor="start" x="359" y="-410" font-family="Helvetica,sans-Serif" font-size="10.00">radiusSearch()</text>
<text text-anchor="start" x="342" y="-395" font-family="Helvetica,sans-Serif" font-size="10.00">+</text>
<text text-anchor="start" x="359" y="-395" font-family="Helvetica,sans-Serif" font-size="10.00">radiusSearchCustomCallback()</text>
<text text-anchor="start" x="342" y="-380" font-family="Helvetica,sans-Serif" font-size="10.00">+</text>
<text text-anchor="start" x="359" y="-380" font-family="Helvetica,sans-Serif" font-size="10.00">rknnSearch()</text>
<text text-anchor="start" x="343.5" y="-365" font-family="Helvetica,sans-Serif" font-size="10.00">*</text>
<text text-anchor="start" x="359" y="-365" font-family="Helvetica,sans-Serif" font-size="10.00">findNeighbors()</text>
<text text-anchor="start" x="343.5" y="-350" font-family="Helvetica,sans-Serif" font-size="10.00">*</text>
<text text-anchor="start" x="359" y="-350" font-family="Helvetica,sans-Serif" font-size="10.00">knnSearch()</text>
<text text-anchor="start" x="343.5" y="-335" font-family="Helvetica,sans-Serif" font-size="10.00">*</text>
<text text-anchor="start" x="359" y="-335" font-family="Helvetica,sans-Serif" font-size="10.00">radiusSearch()</text>
<text text-anchor="start" x="343.5" y="-320" font-family="Helvetica,sans-Serif" font-size="10.00">*</text>
<text text-anchor="start" x="359" y="-320" font-family="Helvetica,sans-Serif" font-size="10.00">radiusSearchCustomCallback()</text>
<text text-anchor="start" x="343.5" y="-305" font-family="Helvetica,sans-Serif" font-size="10.00">*</text>
<text text-anchor="start" x="359" y="-305" font-family="Helvetica,sans-Serif" font-size="10.00">rknnSearch()</text>
<polygon fill="#666666" stroke="#666666" points="334,-615 334,-615 522,-615 522,-615 334,-615"/>
<polygon fill="#666666" stroke="#666666" points="334,-585 334,-585 357,-585 357,-585 334,-585"/>
<polygon fill="#666666" stroke="#666666" points="357,-585 357,-585 522,-585 522,-585 357,-585"/>
<polygon fill="none" stroke="#666666" points="334,-298 334,-654 522,-654 522,-298 334,-298"/>
</a>
</g>
</g>
<!-- Node2&#45;&gt;Node1 -->
<g id="edge1_Node000001_Node000002" class="edge">
<title>Node2&#45;&gt;Node1</title>
<g id="a_edge1_Node000001_Node000002"><a xlink:title=" ">
<path fill="none" stroke="#63b8ff" d="M428,-297.94C428,-286.32 428,-274.72 428,-263.34"/>
<polygon fill="none" stroke="#63b8ff" points="428,-263.09 424,-257.09 428,-251.09 432,-257.09 428,-263.09"/>
</a>
</g>
<text text-anchor="middle" x="447.5" y="-272" font-family="Helvetica,sans-Serif" font-size="10.00" fill="grey"> +index</text>
</g>
<!-- Node3 -->
<g id="Node000003" class="node">
<title>Node3</title>
<g id="a_Node000003"><a xlink:href="classnanoflann_1_1KDTreeBaseClass.html" target="_top" xlink:title=" ">
<polygon fill="white" stroke="transparent" points="429,-1057 235,-1057 235,-701 429,-701 429,-1057"/>
<text text-anchor="start" x="240" y="-1045" font-family="Helvetica,sans-Serif" font-size="10.00">nanoflann::KDTreeBaseClass</text>
<text text-anchor="start" x="240" y="-1034" font-family="Helvetica,sans-Serif" font-size="10.00">&lt; Derived, Distance, DatasetAdaptor,</text>
<text text-anchor="start" x="287" y="-1023" font-family="Helvetica,sans-Serif" font-size="10.00"> DIM, IndexType &gt;</text>
<text text-anchor="start" x="250.5" y="-1008" font-family="Helvetica,sans-Serif" font-size="10.00">+</text>
<text text-anchor="start" x="275" y="-1008" font-family="Helvetica,sans-Serif" font-size="10.00">vAcc_</text>
<text text-anchor="start" x="250.5" y="-993" font-family="Helvetica,sans-Serif" font-size="10.00">+</text>
<text text-anchor="start" x="275" y="-993" font-family="Helvetica,sans-Serif" font-size="10.00">leaf_max_size_</text>
<text text-anchor="start" x="250.5" y="-978" font-family="Helvetica,sans-Serif" font-size="10.00">+</text>
<text text-anchor="start" x="275" y="-978" font-family="Helvetica,sans-Serif" font-size="10.00">n_thread_build_</text>
<text text-anchor="start" x="250.5" y="-963" font-family="Helvetica,sans-Serif" font-size="10.00">+</text>
<text text-anchor="start" x="275" y="-963" font-family="Helvetica,sans-Serif" font-size="10.00">size_</text>
<text text-anchor="start" x="250.5" y="-948" font-family="Helvetica,sans-Serif" font-size="10.00">+</text>
<text text-anchor="start" x="275" y="-948" font-family="Helvetica,sans-Serif" font-size="10.00">size_at_index_build_</text>
<text text-anchor="start" x="250.5" y="-933" font-family="Helvetica,sans-Serif" font-size="10.00">+</text>
<text text-anchor="start" x="275" y="-933" font-family="Helvetica,sans-Serif" font-size="10.00">dim_</text>
<text text-anchor="start" x="250.5" y="-918" font-family="Helvetica,sans-Serif" font-size="10.00">+</text>
<text text-anchor="start" x="275" y="-918" font-family="Helvetica,sans-Serif" font-size="10.00">freeIndex()</text>
<text text-anchor="start" x="250.5" y="-903" font-family="Helvetica,sans-Serif" font-size="10.00">+</text>
<text text-anchor="start" x="275" y="-903" font-family="Helvetica,sans-Serif" font-size="10.00">size()</text>
<text text-anchor="start" x="250.5" y="-888" font-family="Helvetica,sans-Serif" font-size="10.00">+</text>
<text text-anchor="start" x="275" y="-888" font-family="Helvetica,sans-Serif" font-size="10.00">veclen()</text>
<text text-anchor="start" x="250.5" y="-873" font-family="Helvetica,sans-Serif" font-size="10.00">+</text>
<text text-anchor="start" x="275" y="-873" font-family="Helvetica,sans-Serif" font-size="10.00">dataset_get()</text>
<text text-anchor="start" x="250.5" y="-858" font-family="Helvetica,sans-Serif" font-size="10.00">+</text>
<text text-anchor="start" x="275" y="-858" font-family="Helvetica,sans-Serif" font-size="10.00">usedMemory()</text>
<text text-anchor="start" x="250.5" y="-843" font-family="Helvetica,sans-Serif" font-size="10.00">+</text>
<text text-anchor="start" x="275" y="-843" font-family="Helvetica,sans-Serif" font-size="10.00">computeMinMax()</text>
<text text-anchor="start" x="250.5" y="-828" font-family="Helvetica,sans-Serif" font-size="10.00">+</text>
<text text-anchor="start" x="275" y="-828" font-family="Helvetica,sans-Serif" font-size="10.00">divideTree()</text>
<text text-anchor="start" x="250.5" y="-813" font-family="Helvetica,sans-Serif" font-size="10.00">+</text>
<text text-anchor="start" x="275" y="-813" font-family="Helvetica,sans-Serif" font-size="10.00">divideTreeConcurrent()</text>
<text text-anchor="start" x="250.5" y="-798" font-family="Helvetica,sans-Serif" font-size="10.00">+</text>
<text text-anchor="start" x="275" y="-798" font-family="Helvetica,sans-Serif" font-size="10.00">middleSplit_()</text>
<text text-anchor="start" x="250.5" y="-783" font-family="Helvetica,sans-Serif" font-size="10.00">+</text>
<text text-anchor="start" x="275" y="-783" font-family="Helvetica,sans-Serif" font-size="10.00">planeSplit()</text>
<text text-anchor="start" x="250.5" y="-768" font-family="Helvetica,sans-Serif" font-size="10.00">+</text>
<text text-anchor="start" x="275" y="-768" font-family="Helvetica,sans-Serif" font-size="10.00">computeInitialDistances()</text>
<text text-anchor="start" x="250.5" y="-753" font-family="Helvetica,sans-Serif" font-size="10.00">+</text>
<text text-anchor="start" x="275" y="-753" font-family="Helvetica,sans-Serif" font-size="10.00">saveIndex()</text>
<text text-anchor="start" x="250.5" y="-738" font-family="Helvetica,sans-Serif" font-size="10.00">+</text>
<text text-anchor="start" x="275" y="-738" font-family="Helvetica,sans-Serif" font-size="10.00">loadIndex()</text>
<text text-anchor="start" x="250.5" y="-723" font-family="Helvetica,sans-Serif" font-size="10.00">+</text>
<text text-anchor="start" x="275" y="-723" font-family="Helvetica,sans-Serif" font-size="10.00">save_tree()</text>
<text text-anchor="start" x="250.5" y="-708" font-family="Helvetica,sans-Serif" font-size="10.00">+</text>
<text text-anchor="start" x="275" y="-708" font-family="Helvetica,sans-Serif" font-size="10.00">load_tree()</text>
<polygon fill="#666666" stroke="#666666" points="235,-1018 235,-1018 429,-1018 429,-1018 235,-1018"/>
<polygon fill="#666666" stroke="#666666" points="235,-928 235,-928 273,-928 273,-928 235,-928"/>
<polygon fill="#666666" stroke="#666666" points="273,-928 273,-928 429,-928 429,-928 273,-928"/>
<polygon fill="none" stroke="#666666" points="235,-701 235,-1057 429,-1057 429,-701 235,-701"/>
</a>
</g>
</g>
<!-- Node3&#45;&gt;Node2 -->
<g id="edge2_Node000002_Node000003" class="edge">
<title>Node3&#45;&gt;Node2</title>
<g id="a_edge2_Node000002_Node000003"><a xlink:title=" ">
<path fill="none" stroke="#63b8ff" d="M376.74,-691.1C379.69,-678.8 382.65,-666.43 385.58,-654.18"/>
<polygon fill="none" stroke="#63b8ff" points="373.31,-690.41 374.39,-700.95 380.12,-692.04 373.31,-690.41"/>
</a>
</g>
</g>
<!-- Node4 -->
<g id="Node000004" class="node">
<title>Node4</title>
<g id="a_Node000004"><a xlink:href="structnanoflann_1_1KDTreeBaseClass_1_1Node.html" target="_top" xlink:title=" ">
<polygon fill="white" stroke="transparent" points="194,-1280 0,-1280 0,-1104 194,-1104 194,-1280"/>
<text text-anchor="start" x="5" y="-1268" font-family="Helvetica,sans-Serif" font-size="10.00">nanoflann::KDTreeBaseClass</text>
<text text-anchor="start" x="5" y="-1257" font-family="Helvetica,sans-Serif" font-size="10.00">&lt; Derived, Distance, DatasetAdaptor,</text>
<text text-anchor="start" x="36.5" y="-1246" font-family="Helvetica,sans-Serif" font-size="10.00"> DIM, IndexType &gt;::Node</text>
<text text-anchor="start" x="34" y="-1231" font-family="Helvetica,sans-Serif" font-size="10.00">+</text>
<text text-anchor="start" x="77" y="-1231" font-family="Helvetica,sans-Serif" font-size="10.00">left</text>
<text text-anchor="start" x="34" y="-1216" font-family="Helvetica,sans-Serif" font-size="10.00">+</text>
<text text-anchor="start" x="77" y="-1216" font-family="Helvetica,sans-Serif" font-size="10.00">right</text>
<text text-anchor="start" x="34" y="-1201" font-family="Helvetica,sans-Serif" font-size="10.00">+</text>
<text text-anchor="start" x="77" y="-1201" font-family="Helvetica,sans-Serif" font-size="10.00">lr</text>
<text text-anchor="start" x="34" y="-1186" font-family="Helvetica,sans-Serif" font-size="10.00">+</text>
<text text-anchor="start" x="77" y="-1186" font-family="Helvetica,sans-Serif" font-size="10.00">divfeat</text>
<text text-anchor="start" x="34" y="-1171" font-family="Helvetica,sans-Serif" font-size="10.00">+</text>
<text text-anchor="start" x="77" y="-1171" font-family="Helvetica,sans-Serif" font-size="10.00">divlow</text>
<text text-anchor="start" x="34" y="-1156" font-family="Helvetica,sans-Serif" font-size="10.00">+</text>
<text text-anchor="start" x="77" y="-1156" font-family="Helvetica,sans-Serif" font-size="10.00">divhigh</text>
<text text-anchor="start" x="34" y="-1141" font-family="Helvetica,sans-Serif" font-size="10.00">+</text>
<text text-anchor="start" x="77" y="-1141" font-family="Helvetica,sans-Serif" font-size="10.00">sub</text>
<text text-anchor="start" x="34" y="-1126" font-family="Helvetica,sans-Serif" font-size="10.00">+</text>
<text text-anchor="start" x="77" y="-1126" font-family="Helvetica,sans-Serif" font-size="10.00">node_type</text>
<text text-anchor="start" x="95" y="-1111" font-family="Helvetica,sans-Serif" font-size="10.00"> </text>
<polygon fill="#666666" stroke="#666666" points="0,-1241 0,-1241 194,-1241 194,-1241 0,-1241"/>
<polygon fill="#666666" stroke="#666666" points="0,-1121 0,-1121 75,-1121 75,-1121 0,-1121"/>
<polygon fill="#666666" stroke="#666666" points="75,-1121 75,-1121 194,-1121 194,-1121 75,-1121"/>
<polygon fill="none" stroke="#666666" points="0,-1104 0,-1280 194,-1280 194,-1104 0,-1104"/>
</a>
</g>
</g>
<!-- Node4&#45;&gt;Node3 -->
<g id="edge3_Node000003_Node000004" class="edge">
<title>Node4&#45;&gt;Node3</title>
<g id="a_edge3_Node000003_Node000004"><a xlink:title=" ">
<path fill="none" stroke="#63b8ff" d="M162.77,-1103.96C182.84,-1077.4 205.42,-1047.51 227.4,-1018.43"/>
<polygon fill="none" stroke="#63b8ff" points="227.59,-1018.18 228.01,-1010.98 234.82,-1008.61 234.4,-1015.8 227.59,-1018.18"/>
</a>
</g>
<text text-anchor="middle" x="213" y="-1078" font-family="Helvetica,sans-Serif" font-size="10.00" fill="grey"> +root_node_</text>
</g>
<!-- Node4&#45;&gt;Node4 -->
<g id="edge4_Node000004_Node000004" class="edge">
<title>Node4&#45;&gt;Node4</title>
<g id="a_edge4_Node000004_Node000004"><a xlink:title=" ">
<path fill="none" stroke="#63b8ff" d="M194.32,-1209.35C205.06,-1206.06 212,-1200.27 212,-1192 212,-1187.09 209.55,-1183.05 205.32,-1179.9"/>
<polygon fill="none" stroke="#63b8ff" points="205.15,-1179.82 198.01,-1180.84 194.32,-1174.65 201.46,-1173.62 205.15,-1179.82"/>
</a>
</g>
<text text-anchor="middle" x="232.5" y="-1195" font-family="Helvetica,sans-Serif" font-size="10.00" fill="grey"> +child1</text>
<text text-anchor="middle" x="232.5" y="-1184" font-family="Helvetica,sans-Serif" font-size="10.00" fill="grey">+child2</text>
</g>
<!-- Node5 -->
<g id="Node000005" class="node">
<title>Node5</title>
<g id="a_Node000005"><a xlink:href="structnanoflann_1_1array__or__vector.html" target="_top" xlink:title=" ">
<polygon fill="white" stroke="transparent" points="393,-1222 271,-1222 271,-1162 393,-1162 393,-1222"/>
<text text-anchor="start" x="276" y="-1210" font-family="Helvetica,sans-Serif" font-size="10.00">nanoflann::array_or</text>
<text text-anchor="start" x="276" y="-1199" font-family="Helvetica,sans-Serif" font-size="10.00">_vector&lt; &#45;1, Interval &gt;</text>
<text text-anchor="start" x="330" y="-1184" font-family="Helvetica,sans-Serif" font-size="10.00"> </text>
<text text-anchor="start" x="330" y="-1169" font-family="Helvetica,sans-Serif" font-size="10.00"> </text>
<polygon fill="#666666" stroke="#666666" points="271,-1194 271,-1194 393,-1194 393,-1194 271,-1194"/>
<polygon fill="#666666" stroke="#666666" points="271,-1179 271,-1179 393,-1179 393,-1179 271,-1179"/>
<polygon fill="none" stroke="#666666" points="271,-1162 271,-1222 393,-1222 393,-1162 271,-1162"/>
</a>
</g>
</g>
<!-- Node5&#45;&gt;Node3 -->
<g id="edge5_Node000003_Node000005" class="edge">
<title>Node5&#45;&gt;Node3</title>
<g id="a_edge5_Node000003_Node000005"><a xlink:title=" ">
<path fill="none" stroke="#63b8ff" d="M332,-1161.74C332,-1139.12 332,-1105.67 332,-1069.65"/>
<polygon fill="none" stroke="#63b8ff" points="332,-1069.34 328,-1063.34 332,-1057.34 336,-1063.34 332,-1069.34"/>
</a>
</g>
<text text-anchor="middle" x="365" y="-1078" font-family="Helvetica,sans-Serif" font-size="10.00" fill="grey"> +root_bbox_</text>
</g>
<!-- Node6 -->
<g id="Node000006" class="node">
<title>Node6</title>
<g id="a_Node000006"><a xlink:href="classnanoflann_1_1PooledAllocator.html" target="_top" xlink:title=" ">
<polygon fill="white" stroke="transparent" points="552.5,-1254 411.5,-1254 411.5,-1130 552.5,-1130 552.5,-1254"/>
<text text-anchor="start" x="417" y="-1242" font-family="Helvetica,sans-Serif" font-size="10.00">nanoflann::PooledAllocator</text>
<text text-anchor="start" x="422.5" y="-1227" font-family="Helvetica,sans-Serif" font-size="10.00">+</text>
<text text-anchor="start" x="442" y="-1227" font-family="Helvetica,sans-Serif" font-size="10.00">usedMemory</text>
<text text-anchor="start" x="422.5" y="-1212" font-family="Helvetica,sans-Serif" font-size="10.00">+</text>
<text text-anchor="start" x="442" y="-1212" font-family="Helvetica,sans-Serif" font-size="10.00">wastedMemory</text>
<text text-anchor="start" x="422.5" y="-1197" font-family="Helvetica,sans-Serif" font-size="10.00">+</text>
<text text-anchor="start" x="442" y="-1197" font-family="Helvetica,sans-Serif" font-size="10.00">PooledAllocator()</text>
<text text-anchor="start" x="422.5" y="-1182" font-family="Helvetica,sans-Serif" font-size="10.00">+</text>
<text text-anchor="start" x="442" y="-1182" font-family="Helvetica,sans-Serif" font-size="10.00">~PooledAllocator()</text>
<text text-anchor="start" x="422.5" y="-1167" font-family="Helvetica,sans-Serif" font-size="10.00">+</text>
<text text-anchor="start" x="442" y="-1167" font-family="Helvetica,sans-Serif" font-size="10.00">free_all()</text>
<text text-anchor="start" x="422.5" y="-1152" font-family="Helvetica,sans-Serif" font-size="10.00">+</text>
<text text-anchor="start" x="442" y="-1152" font-family="Helvetica,sans-Serif" font-size="10.00">malloc()</text>
<text text-anchor="start" x="422.5" y="-1137" font-family="Helvetica,sans-Serif" font-size="10.00">+</text>
<text text-anchor="start" x="442" y="-1137" font-family="Helvetica,sans-Serif" font-size="10.00">allocate()</text>
<polygon fill="#666666" stroke="#666666" points="412,-1237 412,-1237 553,-1237 553,-1237 412,-1237"/>
<polygon fill="#666666" stroke="#666666" points="412,-1207 412,-1207 440,-1207 440,-1207 412,-1207"/>
<polygon fill="#666666" stroke="#666666" points="440,-1207 440,-1207 553,-1207 553,-1207 440,-1207"/>
<polygon fill="none" stroke="#666666" points="411.5,-1130 411.5,-1254 552.5,-1254 552.5,-1130 411.5,-1130"/>
</a>
</g>
</g>
<!-- Node6&#45;&gt;Node3 -->
<g id="edge6_Node000003_Node000006" class="edge">
<title>Node6&#45;&gt;Node3</title>
<g id="a_edge6_Node000003_Node000006"><a xlink:title=" ">
<path fill="none" stroke="#63b8ff" d="M452.54,-1129.93C443.67,-1111.53 433.43,-1090.3 422.74,-1068.14"/>
<polygon fill="none" stroke="#63b8ff" points="422.68,-1068.01 416.47,-1064.34 417.47,-1057.2 423.68,-1060.87 422.68,-1068.01"/>
</a>
</g>
<text text-anchor="middle" x="449" y="-1078" font-family="Helvetica,sans-Serif" font-size="10.00" fill="grey"> +pool_</text>
</g>
<!-- Node7 -->
<g id="Node000007" class="node">
<title>Node7</title>
<g id="a_Node000007"><a xlink:href="structnanoflann_1_1KDTreeSingleIndexAdaptorParams.html" target="_top" xlink:title=" ">
<polygon fill="white" stroke="transparent" points="603,-929.5 447,-929.5 447,-828.5 603,-828.5 603,-929.5"/>
<text text-anchor="start" x="452" y="-917" font-family="Helvetica,sans-Serif" font-size="10.00">nanoflann::KDTreeSingleIndex</text>
<text text-anchor="start" x="487.5" y="-906" font-family="Helvetica,sans-Serif" font-size="10.00">AdaptorParams</text>
<text text-anchor="start" x="452" y="-891" font-family="Helvetica,sans-Serif" font-size="10.00">+</text>
<text text-anchor="start" x="466" y="-891" font-family="Helvetica,sans-Serif" font-size="10.00">leaf_max_size</text>
<text text-anchor="start" x="452" y="-876" font-family="Helvetica,sans-Serif" font-size="10.00">+</text>
<text text-anchor="start" x="466" y="-876" font-family="Helvetica,sans-Serif" font-size="10.00">flags</text>
<text text-anchor="start" x="452" y="-861" font-family="Helvetica,sans-Serif" font-size="10.00">+</text>
<text text-anchor="start" x="466" y="-861" font-family="Helvetica,sans-Serif" font-size="10.00">n_thread_build</text>
<text text-anchor="start" x="452" y="-846" font-family="Helvetica,sans-Serif" font-size="10.00">+</text>
<text text-anchor="start" x="466" y="-846" font-family="Helvetica,sans-Serif" font-size="10.00">KDTreeSingleIndexAdaptor</text>
<text text-anchor="start" x="466" y="-835" font-family="Helvetica,sans-Serif" font-size="10.00">Params()</text>
<polygon fill="#666666" stroke="#666666" points="447,-901 447,-901 603,-901 603,-901 447,-901"/>
<polygon fill="#666666" stroke="#666666" points="447,-856 447,-856 464,-856 464,-856 447,-856"/>
<polygon fill="#666666" stroke="#666666" points="464,-856 464,-856 603,-856 603,-856 464,-856"/>
<polygon fill="none" stroke="#666666" points="447,-828.5 447,-929.5 603,-929.5 603,-828.5 447,-828.5"/>
</a>
</g>
</g>
<!-- Node7&#45;&gt;Node2 -->
<g id="edge7_Node000002_Node000007" class="edge">
<title>Node7&#45;&gt;Node2</title>
<g id="a_edge7_Node000002_Node000007"><a xlink:title=" ">
<path fill="none" stroke="#63b8ff" d="M513.01,-828.43C503.05,-787.27 488.23,-725.98 473.73,-666.05"/>
<polygon fill="none" stroke="#63b8ff" points="473.66,-665.75 468.36,-660.86 470.84,-654.09 476.14,-658.98 473.66,-665.75"/>
</a>
</g>
<text text-anchor="middle" x="514.5" y="-675" font-family="Helvetica,sans-Serif" font-size="10.00" fill="grey"> +indexParams</text>
</g>
</g>
</svg>
