<?xml version="1.0" encoding="UTF-8" standalone="no"?>
<!DOCTYPE svg PUBLIC "-//W3C//DTD SVG 1.1//EN"
 "http://www.w3.org/Graphics/SVG/1.1/DTD/svg11.dtd">
<!-- Generated by graphviz version 2.43.0 (0)
 -->
<!-- Title: robin_hood::ROBIN_HOOD_STD::alignment_of&lt; T &gt; Pages: 1 -->
<svg width="145pt" height="186pt"
 viewBox="0.00 0.00 145.00 186.00" xmlns="http://www.w3.org/2000/svg" xmlns:xlink="http://www.w3.org/1999/xlink">
<g id="graph0" class="graph" transform="scale(1 1) rotate(0) translate(4 182)">
<title>robin_hood::ROBIN_HOOD_STD::alignment_of&lt; T &gt;</title>
<!-- Node1 -->
<g id="Node000001" class="node">
<title>Node1</title>
<g id="a_Node000001"><a xlink:title=" ">
<polygon fill="#999999" stroke="transparent" points="137,-60 0,-60 0,0 137,0 137,-60"/>
<text text-anchor="start" x="5.5" y="-48" font-family="Helvetica,sans-Serif" font-size="10.00">robin_hood::ROBIN_HOOD</text>
<text text-anchor="start" x="7" y="-37" font-family="Helvetica,sans-Serif" font-size="10.00">_STD::alignment_of&lt; T &gt;</text>
<text text-anchor="start" x="67" y="-22" font-family="Helvetica,sans-Serif" font-size="10.00"> </text>
<text text-anchor="start" x="67" y="-7" font-family="Helvetica,sans-Serif" font-size="10.00"> </text>
<polygon fill="#666666" stroke="#666666" points="0.5,-32 0.5,-32 137.5,-32 137.5,-32 0.5,-32"/>
<polygon fill="#666666" stroke="#666666" points="0.5,-17 0.5,-17 137.5,-17 137.5,-17 0.5,-17"/>
<polygon fill="none" stroke="#666666" points="0,0 0,-60 137,-60 137,0 0,0"/>
</a>
</g>
</g>
<!-- Node2 -->
<g id="Node000002" class="node">
<title>Node2</title>
<g id="a_Node000002"><a xlink:title=" ">
<polygon fill="white" stroke="transparent" points="134.5,-178 2.5,-178 2.5,-96 134.5,-96 134.5,-178"/>
<text text-anchor="start" x="7.5" y="-166" font-family="Helvetica,sans-Serif" font-size="10.00">std::integral_constant</text>
<text text-anchor="start" x="7.5" y="-155" font-family="Helvetica,sans-Serif" font-size="10.00">&lt; std::size_t, alignof</text>
<text text-anchor="start" x="7.5" y="-144" font-family="Helvetica,sans-Serif" font-size="10.00">(std::remove_all_extents</text>
<text text-anchor="start" x="34" y="-133" font-family="Helvetica,sans-Serif" font-size="10.00">&lt; T &gt;::type)&gt;</text>
<text text-anchor="start" x="66.5" y="-118" font-family="Helvetica,sans-Serif" font-size="10.00"> </text>
<text text-anchor="start" x="66.5" y="-103" font-family="Helvetica,sans-Serif" font-size="10.00"> </text>
<polygon fill="#666666" stroke="#666666" points="2.5,-128 2.5,-128 134.5,-128 134.5,-128 2.5,-128"/>
<polygon fill="#666666" stroke="#666666" points="2.5,-113 2.5,-113 134.5,-113 134.5,-113 2.5,-113"/>
<polygon fill="none" stroke="#666666" points="2.5,-96 2.5,-178 134.5,-178 134.5,-96 2.5,-96"/>
</a>
</g>
</g>
<!-- Node2&#45;&gt;Node1 -->
<g id="edge1_Node000001_Node000002" class="edge">
<title>Node2&#45;&gt;Node1</title>
<g id="a_edge1_Node000001_Node000002"><a xlink:title=" ">
<path fill="none" stroke="#63b8ff" d="M68.5,-85.6C68.5,-76.91 68.5,-68.15 68.5,-60.27"/>
<polygon fill="none" stroke="#63b8ff" points="65,-85.7 68.5,-95.7 72,-85.7 65,-85.7"/>
</a>
</g>
</g>
</g>
</svg>
