<?xml version="1.0" encoding="UTF-8" standalone="no"?>
<!DOCTYPE svg PUBLIC "-//W3C//DTD SVG 1.1//EN"
 "http://www.w3.org/Graphics/SVG/1.1/DTD/svg11.dtd">
<!-- Generated by graphviz version 2.43.0 (0)
 -->
<!-- Title: profile_tier_level Pages: 1 -->
<!--zoomable 582 -->

<svg id="main" version="1.1" xmlns="http://www.w3.org/2000/svg" xmlns:xlink="http://www.w3.org/1999/xlink" xml:space="preserve" onload="init(evt)">
<style type="text/css"><![CDATA[
.node, .edge {opacity: 0.7;}
.node.selected, .edge.selected {opacity: 1;}
.edge:hover path { stroke: red; }
.edge:hover polygon { stroke: red; fill: red; }
]]></style>

<defs>
  <circle id="rim" cx="0" cy="0" r="7"/>
  <circle id="rim2" cx="0" cy="0" r="3.5"/>
  <g id="zoomPlus">
    <use xlink:href="#rim" fill="#404040"><set attributeName="fill" to="#808080" begin="zoomplus.mouseover" end="zoomplus.mouseout"/></use>
    <path d="M-4,0h8M0,-4v8" fill="none" stroke="white" stroke-width="1.5" pointer-events="none"/>
  </g>
  <g id="zoomMin">
    <use xlink:href="#rim" fill="#404040"><set attributeName="fill" to="#808080" begin="zoomminus.mouseover" end="zoomminus.mouseout"/></use>
    <path d="M-4,0h8" fill="none" stroke="white" stroke-width="1.5" pointer-events="none"/>
  </g>
  <g id="arrowUp" transform="translate(30 24)">
    <use xlink:href="#rim"/>
    <path pointer-events="none" fill="none" stroke="white" stroke-width="1.5" d="M0,-3.0v7 M-2.5,-0.5L0,-3.0L2.5,-0.5"/>
  </g>
  <g id="arrowRight" transform="rotate(90) translate(36 -43)">
    <use xlink:href="#rim"/>
    <path pointer-events="none" fill="none" stroke="white" stroke-width="1.5" d="M0,-3.0v7 M-2.5,-0.5L0,-3.0L2.5,-0.5"/>
  </g>
  <g id="arrowDown" transform="rotate(180) translate(-30 -48)">
    <use xlink:href="#rim"/>
    <path pointer-events="none" fill="none" stroke="white" stroke-width="1.5" d="M0,-3.0v7 M-2.5,-0.5L0,-3.0L2.5,-0.5"/>
  </g>
  <g id="arrowLeft" transform="rotate(270) translate(-36 17)">
    <use xlink:href="#rim"/>
    <path pointer-events="none" fill="none" stroke="white" stroke-width="1.5" d="M0,-3.0v7 M-2.5,-0.5L0,-3.0L2.5,-0.5"/>
  </g>
  <g id="resetDef">
    <use xlink:href="#rim2" fill="#404040"><set attributeName="fill" to="#808080" begin="reset.mouseover" end="reset.mouseout"/></use>
  </g>
</defs>
<script type="application/ecmascript">
var viewWidth = 175;
var viewHeight = 582;
var sectionId = 'dynsection-0';
</script>
<script type="application/ecmascript" xlink:href="svg.min.js"/>
<svg id="graph" class="graph">
<g id="viewport">
<title>profile_tier_level</title>
<!-- Node1 -->
<g id="Node000001" class="node">
<title>Node1</title>
<g id="a_Node000001"><a xlink:title=" ">
<polygon fill="#999999" stroke="transparent" points="167,-210 0,-210 0,0 167,0 167,-210"/>
<text text-anchor="start" x="43" y="-198" font-family="Helvetica,sans-Serif" font-size="10.00">profile_tier_level</text>
<text text-anchor="start" x="4.5" y="-183" font-family="Helvetica,sans-Serif" font-size="10.00">+</text>
<text text-anchor="start" x="17.5" y="-183" font-family="Helvetica,sans-Serif" font-size="10.00">ptl_tier_flag</text>
<text text-anchor="start" x="4.5" y="-168" font-family="Helvetica,sans-Serif" font-size="10.00">+</text>
<text text-anchor="start" x="17.5" y="-168" font-family="Helvetica,sans-Serif" font-size="10.00">ptl_profile_codec_group_idc</text>
<text text-anchor="start" x="4.5" y="-153" font-family="Helvetica,sans-Serif" font-size="10.00">+</text>
<text text-anchor="start" x="17.5" y="-153" font-family="Helvetica,sans-Serif" font-size="10.00">ptl_profile_toolset_idc</text>
<text text-anchor="start" x="4.5" y="-138" font-family="Helvetica,sans-Serif" font-size="10.00">+</text>
<text text-anchor="start" x="17.5" y="-138" font-family="Helvetica,sans-Serif" font-size="10.00">ptl_profile_reconstruction_idc</text>
<text text-anchor="start" x="4.5" y="-123" font-family="Helvetica,sans-Serif" font-size="10.00">+</text>
<text text-anchor="start" x="17.5" y="-123" font-family="Helvetica,sans-Serif" font-size="10.00">ptl_max_decodes_idc</text>
<text text-anchor="start" x="4.5" y="-108" font-family="Helvetica,sans-Serif" font-size="10.00">+</text>
<text text-anchor="start" x="17.5" y="-108" font-family="Helvetica,sans-Serif" font-size="10.00">ptl_level_idc</text>
<text text-anchor="start" x="4.5" y="-93" font-family="Helvetica,sans-Serif" font-size="10.00">+</text>
<text text-anchor="start" x="17.5" y="-93" font-family="Helvetica,sans-Serif" font-size="10.00">ptl_num_sub_profiles</text>
<text text-anchor="start" x="4.5" y="-78" font-family="Helvetica,sans-Serif" font-size="10.00">+</text>
<text text-anchor="start" x="17.5" y="-78" font-family="Helvetica,sans-Serif" font-size="10.00">ptl_extended_sub_profile_flag</text>
<text text-anchor="start" x="4.5" y="-63" font-family="Helvetica,sans-Serif" font-size="10.00">+</text>
<text text-anchor="start" x="17.5" y="-63" font-family="Helvetica,sans-Serif" font-size="10.00">ptl_sub_profile_idc_32</text>
<text text-anchor="start" x="4.5" y="-48" font-family="Helvetica,sans-Serif" font-size="10.00">+</text>
<text text-anchor="start" x="17.5" y="-48" font-family="Helvetica,sans-Serif" font-size="10.00">ptl_sub_profile_idc_64</text>
<text text-anchor="start" x="4.5" y="-33" font-family="Helvetica,sans-Serif" font-size="10.00">+</text>
<text text-anchor="start" x="17.5" y="-33" font-family="Helvetica,sans-Serif" font-size="10.00">ptl_toolset_constraints</text>
<text text-anchor="start" x="17.5" y="-22" font-family="Helvetica,sans-Serif" font-size="10.00">_present_flag</text>
<text text-anchor="start" x="82" y="-7" font-family="Helvetica,sans-Serif" font-size="10.00"> </text>
<polygon fill="#666666" stroke="#666666" points="0.5,-193 0.5,-193 167.5,-193 167.5,-193 0.5,-193"/>
<polygon fill="#666666" stroke="#666666" points="0.5,-17 0.5,-17 15.5,-17 15.5,-17 0.5,-17"/>
<polygon fill="#666666" stroke="#666666" points="15.5,-17 15.5,-17 167.5,-17 167.5,-17 15.5,-17"/>
<polygon fill="none" stroke="#666666" points="0,0 0,-210 167,-210 167,0 0,0"/>
</a>
</g>
</g>
<!-- Node2 -->
<g id="Node000002" class="node">
<title>Node2</title>
<g id="a_Node000002"><a xlink:href="structprofile__toolset__constraints__information.html" target="_top" xlink:title=" ">
<polygon fill="white" stroke="transparent" points="167,-574 0,-574 0,-257 167,-257 167,-574"/>
<text text-anchor="start" x="19" y="-561.5" font-family="Helvetica,sans-Serif" font-size="10.00">profile_toolset_constraints</text>
<text text-anchor="start" x="52.5" y="-550.5" font-family="Helvetica,sans-Serif" font-size="10.00">_information</text>
<text text-anchor="start" x="4.5" y="-535.5" font-family="Helvetica,sans-Serif" font-size="10.00">+</text>
<text text-anchor="start" x="17.5" y="-535.5" font-family="Helvetica,sans-Serif" font-size="10.00">ptc_one_v3c_frame_only_flag</text>
<text text-anchor="start" x="4.5" y="-520.5" font-family="Helvetica,sans-Serif" font-size="10.00">+</text>
<text text-anchor="start" x="17.5" y="-520.5" font-family="Helvetica,sans-Serif" font-size="10.00">ptc_eom_constraint_flag</text>
<text text-anchor="start" x="4.5" y="-505.5" font-family="Helvetica,sans-Serif" font-size="10.00">+</text>
<text text-anchor="start" x="17.5" y="-505.5" font-family="Helvetica,sans-Serif" font-size="10.00">ptc_max_map_count_minus1</text>
<text text-anchor="start" x="4.5" y="-490.5" font-family="Helvetica,sans-Serif" font-size="10.00">+</text>
<text text-anchor="start" x="17.5" y="-490.5" font-family="Helvetica,sans-Serif" font-size="10.00">ptc_max_atlas_count</text>
<text text-anchor="start" x="17.5" y="-479.5" font-family="Helvetica,sans-Serif" font-size="10.00">_minus1</text>
<text text-anchor="start" x="4.5" y="-464.5" font-family="Helvetica,sans-Serif" font-size="10.00">+</text>
<text text-anchor="start" x="17.5" y="-464.5" font-family="Helvetica,sans-Serif" font-size="10.00">ptc_multiple_map_streams</text>
<text text-anchor="start" x="17.5" y="-453.5" font-family="Helvetica,sans-Serif" font-size="10.00">_constraint_flag</text>
<text text-anchor="start" x="4.5" y="-438.5" font-family="Helvetica,sans-Serif" font-size="10.00">+</text>
<text text-anchor="start" x="17.5" y="-438.5" font-family="Helvetica,sans-Serif" font-size="10.00">ptc_plr_constraint_flag</text>
<text text-anchor="start" x="4.5" y="-423.5" font-family="Helvetica,sans-Serif" font-size="10.00">+</text>
<text text-anchor="start" x="17.5" y="-423.5" font-family="Helvetica,sans-Serif" font-size="10.00">ptc_attribute_max_dimension</text>
<text text-anchor="start" x="17.5" y="-412.5" font-family="Helvetica,sans-Serif" font-size="10.00">_minus1</text>
<text text-anchor="start" x="4.5" y="-397.5" font-family="Helvetica,sans-Serif" font-size="10.00">+</text>
<text text-anchor="start" x="17.5" y="-397.5" font-family="Helvetica,sans-Serif" font-size="10.00">ptc_attribute_max_dimension</text>
<text text-anchor="start" x="17.5" y="-386.5" font-family="Helvetica,sans-Serif" font-size="10.00">_partitions_minus1</text>
<text text-anchor="start" x="4.5" y="-371.5" font-family="Helvetica,sans-Serif" font-size="10.00">+</text>
<text text-anchor="start" x="17.5" y="-371.5" font-family="Helvetica,sans-Serif" font-size="10.00">ptc_no_eight_orientations</text>
<text text-anchor="start" x="17.5" y="-360.5" font-family="Helvetica,sans-Serif" font-size="10.00">_constraint_flag</text>
<text text-anchor="start" x="4.5" y="-345.5" font-family="Helvetica,sans-Serif" font-size="10.00">+</text>
<text text-anchor="start" x="17.5" y="-345.5" font-family="Helvetica,sans-Serif" font-size="10.00">ptc_no_45degree_projection</text>
<text text-anchor="start" x="17.5" y="-334.5" font-family="Helvetica,sans-Serif" font-size="10.00">_patch_constraint_flag</text>
<text text-anchor="start" x="4.5" y="-319.5" font-family="Helvetica,sans-Serif" font-size="10.00">+</text>
<text text-anchor="start" x="17.5" y="-319.5" font-family="Helvetica,sans-Serif" font-size="10.00">ptc_restricted_geometry_flag</text>
<text text-anchor="start" x="4.5" y="-304.5" font-family="Helvetica,sans-Serif" font-size="10.00">+</text>
<text text-anchor="start" x="17.5" y="-304.5" font-family="Helvetica,sans-Serif" font-size="10.00">ptc_num_reserved_constraint</text>
<text text-anchor="start" x="17.5" y="-293.5" font-family="Helvetica,sans-Serif" font-size="10.00">_bytes</text>
<text text-anchor="start" x="4.5" y="-278.5" font-family="Helvetica,sans-Serif" font-size="10.00">+</text>
<text text-anchor="start" x="17.5" y="-278.5" font-family="Helvetica,sans-Serif" font-size="10.00">ptc_reserved_constraint_byte</text>
<text text-anchor="start" x="82" y="-263.5" font-family="Helvetica,sans-Serif" font-size="10.00"> </text>
<polygon fill="#666666" stroke="#666666" points="0.5,-545.5 0.5,-545.5 167.5,-545.5 167.5,-545.5 0.5,-545.5"/>
<polygon fill="#666666" stroke="#666666" points="0.5,-273.5 0.5,-273.5 15.5,-273.5 15.5,-273.5 0.5,-273.5"/>
<polygon fill="#666666" stroke="#666666" points="15.5,-273.5 15.5,-273.5 167.5,-273.5 167.5,-273.5 15.5,-273.5"/>
<polygon fill="none" stroke="#666666" points="0,-257 0,-574 167,-574 167,-257 0,-257"/>
</a>
</g>
</g>
<!-- Node2&#45;&gt;Node1 -->
<g id="edge1_Node000001_Node000002" class="edge">
<title>Node2&#45;&gt;Node1</title>
<g id="a_edge1_Node000001_Node000002"><a xlink:title=" ">
<path fill="none" stroke="#63b8ff" d="M83.5,-256.64C83.5,-245.1 83.5,-233.58 83.5,-222.35"/>
<polygon fill="none" stroke="#63b8ff" points="83.5,-222.3 79.5,-216.3 83.5,-210.3 87.5,-216.3 83.5,-222.3"/>
</a>
</g>
<text text-anchor="middle" x="97" y="-231" font-family="Helvetica,sans-Serif" font-size="10.00" fill="grey"> +ptc</text>
</g>
</g>
</svg>

<g id="navigator" transform="translate(0 0)" fill="#404254">
  <rect fill="#f2f5e9" fill-opacity="0.5" stroke="#606060" stroke-width=".5" x="0" y="0" width="60" height="60"/>
  <use id="zoomplus" xlink:href="#zoomPlus" x="17" y="9" onmousedown="handleZoom(evt,'in')"/>
  <use id="zoomminus" xlink:href="#zoomMin" x="42" y="9" onmousedown="handleZoom(evt,'out')"/>
  <use id="reset" xlink:href="#resetDef" x="30" y="36" onmousedown="handleReset()"/>
   <use id="arrowup" xlink:href="#arrowUp" x="0" y="0" onmousedown="handlePan(0,-1)"/>
  <use id="arrowright" xlink:href="#arrowRight" x="0" y="0" onmousedown="handlePan(1,0)"/>
  <use id="arrowdown" xlink:href="#arrowDown" x="0" y="0" onmousedown="handlePan(0,1)"/>
  <use id="arrowleft" xlink:href="#arrowLeft" x="0" y="0" onmousedown="handlePan(-1,0)"/>
</g>
<svg viewBox="0 0 15 15" width="100%" height="30px" preserveAspectRatio="xMaxYMin meet">
 <g id="arrow_out" transform="scale(0.3 0.3)">
  <a xlink:href="structprofile__tier__level__coll__graph_org.svg" target="_base">
   <rect id="button" ry="5" rx="5" y="6" x="6" height="38" width="38"
        fill="#f2f5e9" fill-opacity="0.5" stroke="#606060" stroke-width="1.0"/>
   <path id="arrow"
     d="M 11.500037,31.436501 C 11.940474,20.09759 22.043105,11.32322 32.158766,21.979434 L 37.068811,17.246167 C 37.068811,17.246167 37.088388,32 37.088388,32 L 22.160133,31.978069 C 22.160133,31.978069 26.997745,27.140456 26.997745,27.140456 C 18.528582,18.264221 13.291696,25.230495 11.500037,31.436501 z"
     style="fill:#404040;"/>
  </a>
 </g>
</svg>

<style type='text/css'>
<![CDATA[
[data-mouse-over-selected='false'] { opacity: 0.7; }
[data-mouse-over-selected='true']  { opacity: 1.0; }
]]>
</style>
<script type="application/ecmascript"><![CDATA[
document.addEventListener('DOMContentLoaded', (event) => {
  highlightEdges();
  highlightAdjacentNodes();
});
]]></script>
</svg>
