<?xml version="1.0" encoding="UTF-8" standalone="no"?>
<!DOCTYPE svg PUBLIC "-//W3C//DTD SVG 1.1//EN"
 "http://www.w3.org/Graphics/SVG/1.1/DTD/svg11.dtd">
<!-- Generated by graphviz version 2.43.0 (0)
 -->
<!-- Title: nanoflann::SO3_Adaptor&lt; T, DataSource, _DistanceType, IndexType &gt; Pages: 1 -->
<svg width="202pt" height="257pt"
 viewBox="0.00 0.00 202.00 257.00" xmlns="http://www.w3.org/2000/svg" xmlns:xlink="http://www.w3.org/1999/xlink">
<g id="graph0" class="graph" transform="scale(1 1) rotate(0) translate(4 253)">
<title>nanoflann::SO3_Adaptor&lt; T, DataSource, _DistanceType, IndexType &gt;</title>
<!-- Node1 -->
<g id="Node000001" class="node">
<title>Node1</title>
<g id="a_Node000001"><a xlink:title=" ">
<polygon fill="#999999" stroke="transparent" points="170,-101 0,-101 0,0 170,0 170,-101"/>
<text text-anchor="start" x="5" y="-88.5" font-family="Helvetica,sans-Serif" font-size="10.00">nanoflann::SO3_Adaptor</text>
<text text-anchor="start" x="5" y="-77.5" font-family="Helvetica,sans-Serif" font-size="10.00">&lt; T, DataSource, _DistanceType,</text>
<text text-anchor="start" x="53" y="-66.5" font-family="Helvetica,sans-Serif" font-size="10.00"> IndexType &gt;</text>
<text text-anchor="start" x="83" y="-51.5" font-family="Helvetica,sans-Serif" font-size="10.00"> </text>
<text text-anchor="start" x="23.5" y="-36.5" font-family="Helvetica,sans-Serif" font-size="10.00">+</text>
<text text-anchor="start" x="56" y="-36.5" font-family="Helvetica,sans-Serif" font-size="10.00">SO3_Adaptor()</text>
<text text-anchor="start" x="23.5" y="-21.5" font-family="Helvetica,sans-Serif" font-size="10.00">+</text>
<text text-anchor="start" x="56" y="-21.5" font-family="Helvetica,sans-Serif" font-size="10.00">evalMetric()</text>
<text text-anchor="start" x="23.5" y="-6.5" font-family="Helvetica,sans-Serif" font-size="10.00">+</text>
<text text-anchor="start" x="56" y="-6.5" font-family="Helvetica,sans-Serif" font-size="10.00">accum_dist()</text>
<polygon fill="#666666" stroke="#666666" points="0,-61.5 0,-61.5 170,-61.5 170,-61.5 0,-61.5"/>
<polygon fill="#666666" stroke="#666666" points="0,-46.5 0,-46.5 170,-46.5 170,-46.5 0,-46.5"/>
<polygon fill="none" stroke="#666666" points="0,0 0,-101 170,-101 170,0 0,0"/>
</a>
</g>
</g>
<!-- Node2 -->
<g id="Node000002" class="node">
<title>Node2</title>
<g id="a_Node000002"><a xlink:href="structnanoflann_1_1L2__Simple__Adaptor.html" target="_top" xlink:title=" ">
<polygon fill="white" stroke="transparent" points="153.5,-249 16.5,-249 16.5,-148 153.5,-148 153.5,-249"/>
<text text-anchor="start" x="22" y="-236.5" font-family="Helvetica,sans-Serif" font-size="10.00">nanoflann::L2_Simple</text>
<text text-anchor="start" x="22" y="-225.5" font-family="Helvetica,sans-Serif" font-size="10.00">_Adaptor&lt; T, DataSource,</text>
<text text-anchor="start" x="22.5" y="-214.5" font-family="Helvetica,sans-Serif" font-size="10.00"> DistanceType, uint32_t &gt;</text>
<text text-anchor="start" x="24.5" y="-199.5" font-family="Helvetica,sans-Serif" font-size="10.00">+</text>
<text text-anchor="start" x="41" y="-199.5" font-family="Helvetica,sans-Serif" font-size="10.00">data_source</text>
<text text-anchor="start" x="24.5" y="-184.5" font-family="Helvetica,sans-Serif" font-size="10.00">+</text>
<text text-anchor="start" x="41" y="-184.5" font-family="Helvetica,sans-Serif" font-size="10.00">L2_Simple_Adaptor()</text>
<text text-anchor="start" x="24.5" y="-169.5" font-family="Helvetica,sans-Serif" font-size="10.00">+</text>
<text text-anchor="start" x="41" y="-169.5" font-family="Helvetica,sans-Serif" font-size="10.00">evalMetric()</text>
<text text-anchor="start" x="24.5" y="-154.5" font-family="Helvetica,sans-Serif" font-size="10.00">+</text>
<text text-anchor="start" x="41" y="-154.5" font-family="Helvetica,sans-Serif" font-size="10.00">accum_dist()</text>
<polygon fill="#666666" stroke="#666666" points="17,-209.5 17,-209.5 154,-209.5 154,-209.5 17,-209.5"/>
<polygon fill="#666666" stroke="#666666" points="17,-194.5 17,-194.5 39,-194.5 39,-194.5 17,-194.5"/>
<polygon fill="#666666" stroke="#666666" points="39,-194.5 39,-194.5 154,-194.5 154,-194.5 39,-194.5"/>
<polygon fill="none" stroke="#666666" points="16.5,-148 16.5,-249 153.5,-249 153.5,-148 16.5,-148"/>
</a>
</g>
</g>
<!-- Node2&#45;&gt;Node1 -->
<g id="edge1_Node000001_Node000002" class="edge">
<title>Node2&#45;&gt;Node1</title>
<g id="a_edge1_Node000001_Node000002"><a xlink:title=" ">
<path fill="none" stroke="#63b8ff" d="M85,-147.66C85,-136.62 85,-124.79 85,-113.34"/>
<polygon fill="none" stroke="#63b8ff" points="85,-113.11 81,-107.11 85,-101.11 89,-107.11 85,-113.11"/>
</a>
</g>
<text text-anchor="middle" x="139.5" y="-122" font-family="Helvetica,sans-Serif" font-size="10.00" fill="grey"> +distance_L2_Simple</text>
</g>
</g>
</svg>
