<?xml version="1.0" encoding="UTF-8" standalone="no"?>
<!DOCTYPE svg PUBLIC "-//W3C//DTD SVG 1.1//EN"
 "http://www.w3.org/Graphics/SVG/1.1/DTD/svg11.dtd">
<!-- Generated by graphviz version 2.43.0 (0)
 -->
<!-- Title: robin_hood::detail::NodeAllocator&lt; T, MinSize, MaxSize, IsFlat &gt; Pages: 1 -->
<!--zoomable 403 -->

<svg id="main" version="1.1" xmlns="http://www.w3.org/2000/svg" xmlns:xlink="http://www.w3.org/1999/xlink" xml:space="preserve" onload="init(evt)">
<style type="text/css"><![CDATA[
.node, .edge {opacity: 0.7;}
.node.selected, .edge.selected {opacity: 1;}
.edge:hover path { stroke: red; }
.edge:hover polygon { stroke: red; fill: red; }
]]></style>

<defs>
  <circle id="rim" cx="0" cy="0" r="7"/>
  <circle id="rim2" cx="0" cy="0" r="3.5"/>
  <g id="zoomPlus">
    <use xlink:href="#rim" fill="#404040"><set attributeName="fill" to="#808080" begin="zoomplus.mouseover" end="zoomplus.mouseout"/></use>
    <path d="M-4,0h8M0,-4v8" fill="none" stroke="white" stroke-width="1.5" pointer-events="none"/>
  </g>
  <g id="zoomMin">
    <use xlink:href="#rim" fill="#404040"><set attributeName="fill" to="#808080" begin="zoomminus.mouseover" end="zoomminus.mouseout"/></use>
    <path d="M-4,0h8" fill="none" stroke="white" stroke-width="1.5" pointer-events="none"/>
  </g>
  <g id="arrowUp" transform="translate(30 24)">
    <use xlink:href="#rim"/>
    <path pointer-events="none" fill="none" stroke="white" stroke-width="1.5" d="M0,-3.0v7 M-2.5,-0.5L0,-3.0L2.5,-0.5"/>
  </g>
  <g id="arrowRight" transform="rotate(90) translate(36 -43)">
    <use xlink:href="#rim"/>
    <path pointer-events="none" fill="none" stroke="white" stroke-width="1.5" d="M0,-3.0v7 M-2.5,-0.5L0,-3.0L2.5,-0.5"/>
  </g>
  <g id="arrowDown" transform="rotate(180) translate(-30 -48)">
    <use xlink:href="#rim"/>
    <path pointer-events="none" fill="none" stroke="white" stroke-width="1.5" d="M0,-3.0v7 M-2.5,-0.5L0,-3.0L2.5,-0.5"/>
  </g>
  <g id="arrowLeft" transform="rotate(270) translate(-36 17)">
    <use xlink:href="#rim"/>
    <path pointer-events="none" fill="none" stroke="white" stroke-width="1.5" d="M0,-3.0v7 M-2.5,-0.5L0,-3.0L2.5,-0.5"/>
  </g>
  <g id="resetDef">
    <use xlink:href="#rim2" fill="#404040"><set attributeName="fill" to="#808080" begin="reset.mouseover" end="reset.mouseout"/></use>
  </g>
</defs>
<script type="application/ecmascript">
var viewWidth = 526;
var viewHeight = 403;
var sectionId = 'dynsection-0';
</script>
<script type="application/ecmascript" xlink:href="svg.min.js"/>
<svg id="graph" class="graph">
<g id="viewport">
<title>robin_hood::detail::NodeAllocator&lt; T, MinSize, MaxSize, IsFlat &gt;</title>
<!-- Node1 -->
<g id="Node000001" class="node">
<title>Node1</title>
<g id="a_Node000001"><a xlink:title=" ">
<polygon fill="#999999" stroke="transparent" points="324.5,-395 181.5,-395 181.5,-324 324.5,-324 324.5,-395"/>
<text text-anchor="start" x="187" y="-382.5" font-family="Helvetica,sans-Serif" font-size="10.00">robin_hood::detail</text>
<text text-anchor="start" x="187" y="-371.5" font-family="Helvetica,sans-Serif" font-size="10.00">::NodeAllocator&lt; T,</text>
<text text-anchor="start" x="187" y="-360.5" font-family="Helvetica,sans-Serif" font-size="10.00"> MinSize, MaxSize, IsFlat &gt;</text>
<text text-anchor="start" x="251.5" y="-345.5" font-family="Helvetica,sans-Serif" font-size="10.00"> </text>
<text text-anchor="start" x="251.5" y="-330.5" font-family="Helvetica,sans-Serif" font-size="10.00"> </text>
<polygon fill="#666666" stroke="#666666" points="182,-355.5 182,-355.5 325,-355.5 325,-355.5 182,-355.5"/>
<polygon fill="#666666" stroke="#666666" points="182,-340.5 182,-340.5 325,-340.5 325,-340.5 182,-340.5"/>
<polygon fill="none" stroke="#666666" points="181.5,-324 181.5,-395 324.5,-395 324.5,-324 181.5,-324"/>
</a>
</g>
</g>
<!-- Node2 -->
<g id="Node000002" class="node">
<title>Node2</title>
<g id="a_Node000002"><a xlink:href="classrobin__hood_1_1detail_1_1Table.html" target="_top" xlink:title=" ">
<polygon fill="white" stroke="transparent" points="170,-288 0,-288 0,0 170,0 170,-288"/>
<text text-anchor="start" x="5" y="-276" font-family="Helvetica,sans-Serif" font-size="10.00">robin_hood::detail</text>
<text text-anchor="start" x="5" y="-265" font-family="Helvetica,sans-Serif" font-size="10.00">::Table&lt; size_t, std</text>
<text text-anchor="start" x="5" y="-254" font-family="Helvetica,sans-Serif" font-size="10.00">::unique_ptr&lt; std::array</text>
<text text-anchor="start" x="5" y="-243" font-family="Helvetica,sans-Serif" font-size="10.00">&lt; std::vector&lt; uvgvpcc_enc</text>
<text text-anchor="start" x="5" y="-232" font-family="Helvetica,sans-Serif" font-size="10.00">::Patch &gt;, MAX_GOF_SIZE &gt; &gt; &gt;</text>
<text text-anchor="start" x="22.5" y="-217" font-family="Helvetica,sans-Serif" font-size="10.00">+</text>
<text text-anchor="start" x="54" y="-217" font-family="Helvetica,sans-Serif" font-size="10.00">is_flat</text>
<text text-anchor="start" x="22.5" y="-202" font-family="Helvetica,sans-Serif" font-size="10.00">+</text>
<text text-anchor="start" x="54" y="-202" font-family="Helvetica,sans-Serif" font-size="10.00">is_map</text>
<text text-anchor="start" x="22.5" y="-187" font-family="Helvetica,sans-Serif" font-size="10.00">+</text>
<text text-anchor="start" x="54" y="-187" font-family="Helvetica,sans-Serif" font-size="10.00">is_set</text>
<text text-anchor="start" x="22.5" y="-172" font-family="Helvetica,sans-Serif" font-size="10.00">+</text>
<text text-anchor="start" x="54" y="-172" font-family="Helvetica,sans-Serif" font-size="10.00">is_transparent</text>
<text text-anchor="start" x="22.5" y="-157" font-family="Helvetica,sans-Serif" font-size="10.00">+</text>
<text text-anchor="start" x="54" y="-157" font-family="Helvetica,sans-Serif" font-size="10.00">ROBIN_HOOD()</text>
<text text-anchor="start" x="22.5" y="-142" font-family="Helvetica,sans-Serif" font-size="10.00">+</text>
<text text-anchor="start" x="54" y="-142" font-family="Helvetica,sans-Serif" font-size="10.00">ROBIN_HOOD()</text>
<text text-anchor="start" x="22.5" y="-127" font-family="Helvetica,sans-Serif" font-size="10.00">+</text>
<text text-anchor="start" x="54" y="-127" font-family="Helvetica,sans-Serif" font-size="10.00">ROBIN_HOOD()</text>
<text text-anchor="start" x="22.5" y="-112" font-family="Helvetica,sans-Serif" font-size="10.00">+</text>
<text text-anchor="start" x="54" y="-112" font-family="Helvetica,sans-Serif" font-size="10.00">ROBIN_HOOD()</text>
<text text-anchor="start" x="22.5" y="-97" font-family="Helvetica,sans-Serif" font-size="10.00">+</text>
<text text-anchor="start" x="54" y="-97" font-family="Helvetica,sans-Serif" font-size="10.00">ROBIN_HOOD()</text>
<text text-anchor="start" x="22.5" y="-82" font-family="Helvetica,sans-Serif" font-size="10.00">+</text>
<text text-anchor="start" x="54" y="-82" font-family="Helvetica,sans-Serif" font-size="10.00">Table()</text>
<text text-anchor="start" x="22.5" y="-67" font-family="Helvetica,sans-Serif" font-size="10.00">+</text>
<text text-anchor="start" x="54" y="-67" font-family="Helvetica,sans-Serif" font-size="10.00">Table()</text>
<text text-anchor="start" x="22.5" y="-52" font-family="Helvetica,sans-Serif" font-size="10.00">+</text>
<text text-anchor="start" x="54" y="-52" font-family="Helvetica,sans-Serif" font-size="10.00">Table()</text>
<text text-anchor="start" x="22.5" y="-37" font-family="Helvetica,sans-Serif" font-size="10.00">+</text>
<text text-anchor="start" x="54" y="-37" font-family="Helvetica,sans-Serif" font-size="10.00">Table()</text>
<text text-anchor="start" x="22.5" y="-22" font-family="Helvetica,sans-Serif" font-size="10.00">+</text>
<text text-anchor="start" x="54" y="-22" font-family="Helvetica,sans-Serif" font-size="10.00">Table()</text>
<text text-anchor="start" x="54" y="-7" font-family="Helvetica,sans-Serif" font-size="10.00">and 55 more...</text>
<polygon fill="#666666" stroke="#666666" points="0,-227 0,-227 170,-227 170,-227 0,-227"/>
<polygon fill="#666666" stroke="#666666" points="0,-167 0,-167 52,-167 52,-167 0,-167"/>
<polygon fill="#666666" stroke="#666666" points="52,-167 52,-167 170,-167 170,-167 52,-167"/>
<polygon fill="none" stroke="#666666" points="0,0 0,-288 170,-288 170,0 0,0"/>
</a>
</g>
</g>
<!-- Node1&#45;&gt;Node2 -->
<g id="edge1_Node000001_Node000002" class="edge">
<title>Node1&#45;&gt;Node2</title>
<g id="a_edge1_Node000001_Node000002"><a xlink:title=" ">
<path fill="none" stroke="#8b1a1a" d="M205.88,-316.72C196.57,-307.62 187.16,-297.78 179,-288 176.05,-284.46 173.11,-280.83 170.19,-277.13"/>
<polygon fill="none" stroke="#8b1a1a" points="203.66,-319.44 213.3,-323.84 208.51,-314.39 203.66,-319.44"/>
</a>
</g>
</g>
<!-- Node3 -->
<g id="Node000003" class="node">
<title>Node3</title>
<g id="a_Node000003"><a xlink:href="classrobin__hood_1_1detail_1_1Table.html" target="_top" xlink:title=" ">
<polygon fill="white" stroke="transparent" points="318,-288 188,-288 188,0 318,0 318,-288"/>
<text text-anchor="start" x="193" y="-276" font-family="Helvetica,sans-Serif" font-size="10.00">robin_hood::detail</text>
<text text-anchor="start" x="193" y="-265" font-family="Helvetica,sans-Serif" font-size="10.00">::Table&lt; size_t, std</text>
<text text-anchor="start" x="193" y="-254" font-family="Helvetica,sans-Serif" font-size="10.00">::unique_ptr&lt; std::array</text>
<text text-anchor="start" x="193" y="-243" font-family="Helvetica,sans-Serif" font-size="10.00">&lt; std::vector&lt; uint8_t &gt;</text>
<text text-anchor="start" x="195" y="-232" font-family="Helvetica,sans-Serif" font-size="10.00">, MAX_GOF_SIZE &gt; &gt; &gt;</text>
<text text-anchor="start" x="200.5" y="-217" font-family="Helvetica,sans-Serif" font-size="10.00">+</text>
<text text-anchor="start" x="222" y="-217" font-family="Helvetica,sans-Serif" font-size="10.00">is_flat</text>
<text text-anchor="start" x="200.5" y="-202" font-family="Helvetica,sans-Serif" font-size="10.00">+</text>
<text text-anchor="start" x="222" y="-202" font-family="Helvetica,sans-Serif" font-size="10.00">is_map</text>
<text text-anchor="start" x="200.5" y="-187" font-family="Helvetica,sans-Serif" font-size="10.00">+</text>
<text text-anchor="start" x="222" y="-187" font-family="Helvetica,sans-Serif" font-size="10.00">is_set</text>
<text text-anchor="start" x="200.5" y="-172" font-family="Helvetica,sans-Serif" font-size="10.00">+</text>
<text text-anchor="start" x="222" y="-172" font-family="Helvetica,sans-Serif" font-size="10.00">is_transparent</text>
<text text-anchor="start" x="200.5" y="-157" font-family="Helvetica,sans-Serif" font-size="10.00">+</text>
<text text-anchor="start" x="222" y="-157" font-family="Helvetica,sans-Serif" font-size="10.00">ROBIN_HOOD()</text>
<text text-anchor="start" x="200.5" y="-142" font-family="Helvetica,sans-Serif" font-size="10.00">+</text>
<text text-anchor="start" x="222" y="-142" font-family="Helvetica,sans-Serif" font-size="10.00">ROBIN_HOOD()</text>
<text text-anchor="start" x="200.5" y="-127" font-family="Helvetica,sans-Serif" font-size="10.00">+</text>
<text text-anchor="start" x="222" y="-127" font-family="Helvetica,sans-Serif" font-size="10.00">ROBIN_HOOD()</text>
<text text-anchor="start" x="200.5" y="-112" font-family="Helvetica,sans-Serif" font-size="10.00">+</text>
<text text-anchor="start" x="222" y="-112" font-family="Helvetica,sans-Serif" font-size="10.00">ROBIN_HOOD()</text>
<text text-anchor="start" x="200.5" y="-97" font-family="Helvetica,sans-Serif" font-size="10.00">+</text>
<text text-anchor="start" x="222" y="-97" font-family="Helvetica,sans-Serif" font-size="10.00">ROBIN_HOOD()</text>
<text text-anchor="start" x="200.5" y="-82" font-family="Helvetica,sans-Serif" font-size="10.00">+</text>
<text text-anchor="start" x="222" y="-82" font-family="Helvetica,sans-Serif" font-size="10.00">Table()</text>
<text text-anchor="start" x="200.5" y="-67" font-family="Helvetica,sans-Serif" font-size="10.00">+</text>
<text text-anchor="start" x="222" y="-67" font-family="Helvetica,sans-Serif" font-size="10.00">Table()</text>
<text text-anchor="start" x="200.5" y="-52" font-family="Helvetica,sans-Serif" font-size="10.00">+</text>
<text text-anchor="start" x="222" y="-52" font-family="Helvetica,sans-Serif" font-size="10.00">Table()</text>
<text text-anchor="start" x="200.5" y="-37" font-family="Helvetica,sans-Serif" font-size="10.00">+</text>
<text text-anchor="start" x="222" y="-37" font-family="Helvetica,sans-Serif" font-size="10.00">Table()</text>
<text text-anchor="start" x="200.5" y="-22" font-family="Helvetica,sans-Serif" font-size="10.00">+</text>
<text text-anchor="start" x="222" y="-22" font-family="Helvetica,sans-Serif" font-size="10.00">Table()</text>
<text text-anchor="start" x="222" y="-7" font-family="Helvetica,sans-Serif" font-size="10.00">and 55 more...</text>
<polygon fill="#666666" stroke="#666666" points="188,-227 188,-227 318,-227 318,-227 188,-227"/>
<polygon fill="#666666" stroke="#666666" points="188,-167 188,-167 220,-167 220,-167 188,-167"/>
<polygon fill="#666666" stroke="#666666" points="220,-167 220,-167 318,-167 318,-167 220,-167"/>
<polygon fill="none" stroke="#666666" points="188,0 188,-288 318,-288 318,0 188,0"/>
</a>
</g>
</g>
<!-- Node1&#45;&gt;Node3 -->
<g id="edge2_Node000001_Node000003" class="edge">
<title>Node1&#45;&gt;Node3</title>
<g id="a_edge2_Node000001_Node000003"><a xlink:title=" ">
<path fill="none" stroke="#8b1a1a" d="M253,-313.5C253,-305.68 253,-297.18 253,-288.31"/>
<polygon fill="none" stroke="#8b1a1a" points="249.5,-313.72 253,-323.72 256.5,-313.72 249.5,-313.72"/>
</a>
</g>
</g>
<!-- Node4 -->
<g id="Node000004" class="node">
<title>Node4</title>
<g id="a_Node000004"><a xlink:href="classrobin__hood_1_1detail_1_1Table.html" target="_top" xlink:title=" ">
<polygon fill="white" stroke="transparent" points="517.5,-277 336.5,-277 336.5,-11 517.5,-11 517.5,-277"/>
<text text-anchor="start" x="342" y="-265" font-family="Helvetica,sans-Serif" font-size="10.00">robin_hood::detail</text>
<text text-anchor="start" x="342" y="-254" font-family="Helvetica,sans-Serif" font-size="10.00">::Table&lt; IsFlat, MaxLoadFactor100,</text>
<text text-anchor="start" x="364" y="-243" font-family="Helvetica,sans-Serif" font-size="10.00"> Key, T, Hash, KeyEqual &gt;</text>
<text text-anchor="start" x="363" y="-228" font-family="Helvetica,sans-Serif" font-size="10.00">+</text>
<text text-anchor="start" x="398" y="-228" font-family="Helvetica,sans-Serif" font-size="10.00">is_flat</text>
<text text-anchor="start" x="363" y="-213" font-family="Helvetica,sans-Serif" font-size="10.00">+</text>
<text text-anchor="start" x="398" y="-213" font-family="Helvetica,sans-Serif" font-size="10.00">is_map</text>
<text text-anchor="start" x="363" y="-198" font-family="Helvetica,sans-Serif" font-size="10.00">+</text>
<text text-anchor="start" x="398" y="-198" font-family="Helvetica,sans-Serif" font-size="10.00">is_set</text>
<text text-anchor="start" x="363" y="-183" font-family="Helvetica,sans-Serif" font-size="10.00">+</text>
<text text-anchor="start" x="398" y="-183" font-family="Helvetica,sans-Serif" font-size="10.00">is_transparent</text>
<text text-anchor="start" x="363" y="-168" font-family="Helvetica,sans-Serif" font-size="10.00">+</text>
<text text-anchor="start" x="398" y="-168" font-family="Helvetica,sans-Serif" font-size="10.00">Table()</text>
<text text-anchor="start" x="363" y="-153" font-family="Helvetica,sans-Serif" font-size="10.00">+</text>
<text text-anchor="start" x="398" y="-153" font-family="Helvetica,sans-Serif" font-size="10.00">Table()</text>
<text text-anchor="start" x="363" y="-138" font-family="Helvetica,sans-Serif" font-size="10.00">+</text>
<text text-anchor="start" x="398" y="-138" font-family="Helvetica,sans-Serif" font-size="10.00">Table()</text>
<text text-anchor="start" x="363" y="-123" font-family="Helvetica,sans-Serif" font-size="10.00">+</text>
<text text-anchor="start" x="398" y="-123" font-family="Helvetica,sans-Serif" font-size="10.00">Table()</text>
<text text-anchor="start" x="363" y="-108" font-family="Helvetica,sans-Serif" font-size="10.00">+</text>
<text text-anchor="start" x="398" y="-108" font-family="Helvetica,sans-Serif" font-size="10.00">Table()</text>
<text text-anchor="start" x="363" y="-93" font-family="Helvetica,sans-Serif" font-size="10.00">+</text>
<text text-anchor="start" x="398" y="-93" font-family="Helvetica,sans-Serif" font-size="10.00">operator=()</text>
<text text-anchor="start" x="363" y="-78" font-family="Helvetica,sans-Serif" font-size="10.00">+</text>
<text text-anchor="start" x="398" y="-78" font-family="Helvetica,sans-Serif" font-size="10.00">Table()</text>
<text text-anchor="start" x="363" y="-63" font-family="Helvetica,sans-Serif" font-size="10.00">+</text>
<text text-anchor="start" x="398" y="-63" font-family="Helvetica,sans-Serif" font-size="10.00">operator=()</text>
<text text-anchor="start" x="363" y="-48" font-family="Helvetica,sans-Serif" font-size="10.00">+</text>
<text text-anchor="start" x="398" y="-48" font-family="Helvetica,sans-Serif" font-size="10.00">swap()</text>
<text text-anchor="start" x="363" y="-33" font-family="Helvetica,sans-Serif" font-size="10.00">+</text>
<text text-anchor="start" x="398" y="-33" font-family="Helvetica,sans-Serif" font-size="10.00">clear()</text>
<text text-anchor="start" x="398" y="-18" font-family="Helvetica,sans-Serif" font-size="10.00">and 55 more...</text>
<polygon fill="#666666" stroke="#666666" points="337,-238 337,-238 518,-238 518,-238 337,-238"/>
<polygon fill="#666666" stroke="#666666" points="337,-178 337,-178 396,-178 396,-178 337,-178"/>
<polygon fill="#666666" stroke="#666666" points="396,-178 396,-178 518,-178 518,-178 396,-178"/>
<polygon fill="none" stroke="#666666" points="336.5,-11 336.5,-277 517.5,-277 517.5,-11 336.5,-11"/>
</a>
</g>
</g>
<!-- Node1&#45;&gt;Node4 -->
<g id="edge3_Node000001_Node000004" class="edge">
<title>Node1&#45;&gt;Node4</title>
<g id="a_edge3_Node000001_Node000004"><a xlink:title=" ">
<path fill="none" stroke="#8b1a1a" d="M299.9,-316.54C309.23,-307.45 318.7,-297.66 327,-288 330.16,-284.32 333.31,-280.55 336.45,-276.7"/>
<polygon fill="none" stroke="#8b1a1a" points="297.28,-314.21 292.48,-323.65 302.12,-319.26 297.28,-314.21"/>
</a>
</g>
</g>
</g>
</svg>

<g id="navigator" transform="translate(0 0)" fill="#404254">
  <rect fill="#f2f5e9" fill-opacity="0.5" stroke="#606060" stroke-width=".5" x="0" y="0" width="60" height="60"/>
  <use id="zoomplus" xlink:href="#zoomPlus" x="17" y="9" onmousedown="handleZoom(evt,'in')"/>
  <use id="zoomminus" xlink:href="#zoomMin" x="42" y="9" onmousedown="handleZoom(evt,'out')"/>
  <use id="reset" xlink:href="#resetDef" x="30" y="36" onmousedown="handleReset()"/>
   <use id="arrowup" xlink:href="#arrowUp" x="0" y="0" onmousedown="handlePan(0,-1)"/>
  <use id="arrowright" xlink:href="#arrowRight" x="0" y="0" onmousedown="handlePan(1,0)"/>
  <use id="arrowdown" xlink:href="#arrowDown" x="0" y="0" onmousedown="handlePan(0,1)"/>
  <use id="arrowleft" xlink:href="#arrowLeft" x="0" y="0" onmousedown="handlePan(-1,0)"/>
</g>
<svg viewBox="0 0 15 15" width="100%" height="30px" preserveAspectRatio="xMaxYMin meet">
 <g id="arrow_out" transform="scale(0.3 0.3)">
  <a xlink:href="structrobin__hood_1_1detail_1_1NodeAllocator__inherit__graph_org.svg" target="_base">
   <rect id="button" ry="5" rx="5" y="6" x="6" height="38" width="38"
        fill="#f2f5e9" fill-opacity="0.5" stroke="#606060" stroke-width="1.0"/>
   <path id="arrow"
     d="M 11.500037,31.436501 C 11.940474,20.09759 22.043105,11.32322 32.158766,21.979434 L 37.068811,17.246167 C 37.068811,17.246167 37.088388,32 37.088388,32 L 22.160133,31.978069 C 22.160133,31.978069 26.997745,27.140456 26.997745,27.140456 C 18.528582,18.264221 13.291696,25.230495 11.500037,31.436501 z"
     style="fill:#404040;"/>
  </a>
 </g>
</svg>

<style type='text/css'>
<![CDATA[
[data-mouse-over-selected='false'] { opacity: 0.7; }
[data-mouse-over-selected='true']  { opacity: 1.0; }
]]>
</style>
<script type="application/ecmascript"><![CDATA[
document.addEventListener('DOMContentLoaded', (event) => {
  highlightEdges();
  highlightAdjacentNodes();
});
]]></script>
</svg>
