<?xml version="1.0" encoding="UTF-8" standalone="no"?>
<!DOCTYPE svg PUBLIC "-//W3C//DTD SVG 1.1//EN"
 "http://www.w3.org/Graphics/SVG/1.1/DTD/svg11.dtd">
<!-- Generated by graphviz version 2.43.0 (0)
 -->
<!-- Title: uvgvpcc_enc::API::v3c_chunk Pages: 1 -->
<svg width="127pt" height="113pt"
 viewBox="0.00 0.00 127.00 113.00" xmlns="http://www.w3.org/2000/svg" xmlns:xlink="http://www.w3.org/1999/xlink">
<g id="graph0" class="graph" transform="scale(1 1) rotate(0) translate(4 109)">
<title>uvgvpcc_enc::API::v3c_chunk</title>
<!-- Node1 -->
<g id="Node000001" class="node">
<title>Node1</title>
<g id="a_Node000001"><a xlink:title="Bitstream writing miscellaneous.">
<polygon fill="#999999" stroke="transparent" points="119,-105 0,-105 0,0 119,0 119,-105"/>
<text text-anchor="start" x="5.5" y="-92.5" font-family="Helvetica,sans-Serif" font-size="10.00">uvgvpcc_enc::API::v3c</text>
<text text-anchor="start" x="42.5" y="-81.5" font-family="Helvetica,sans-Serif" font-size="10.00">_chunk</text>
<text text-anchor="start" x="11" y="-66.5" font-family="Helvetica,sans-Serif" font-size="10.00">+</text>
<text text-anchor="start" x="30.5" y="-66.5" font-family="Helvetica,sans-Serif" font-size="10.00">len</text>
<text text-anchor="start" x="11" y="-51.5" font-family="Helvetica,sans-Serif" font-size="10.00">+</text>
<text text-anchor="start" x="30.5" y="-51.5" font-family="Helvetica,sans-Serif" font-size="10.00">data</text>
<text text-anchor="start" x="11" y="-36.5" font-family="Helvetica,sans-Serif" font-size="10.00">+</text>
<text text-anchor="start" x="30.5" y="-36.5" font-family="Helvetica,sans-Serif" font-size="10.00">v3c_unit_sizes</text>
<text text-anchor="start" x="11" y="-21.5" font-family="Helvetica,sans-Serif" font-size="10.00">+</text>
<text text-anchor="start" x="30.5" y="-21.5" font-family="Helvetica,sans-Serif" font-size="10.00">v3c_chunk()</text>
<text text-anchor="start" x="11" y="-6.5" font-family="Helvetica,sans-Serif" font-size="10.00">+</text>
<text text-anchor="start" x="30.5" y="-6.5" font-family="Helvetica,sans-Serif" font-size="10.00">v3c_chunk()</text>
<polygon fill="#666666" stroke="#666666" points="0.5,-76.5 0.5,-76.5 119.5,-76.5 119.5,-76.5 0.5,-76.5"/>
<polygon fill="#666666" stroke="#666666" points="0.5,-31.5 0.5,-31.5 28.5,-31.5 28.5,-31.5 0.5,-31.5"/>
<polygon fill="#666666" stroke="#666666" points="28.5,-31.5 28.5,-31.5 119.5,-31.5 119.5,-31.5 28.5,-31.5"/>
<polygon fill="none" stroke="#666666" points="0,0 0,-105 119,-105 119,0 0,0"/>
</a>
</g>
</g>
</g>
</svg>
