<?xml version="1.0" encoding="UTF-8" standalone="no"?>
<!DOCTYPE svg PUBLIC "-//W3C//DTD SVG 1.1//EN"
 "http://www.w3.org/Graphics/SVG/1.1/DTD/svg11.dtd">
<!-- Generated by graphviz version 2.43.0 (0)
 -->
<!-- Title: uvgvpcc_enc::Frame::printInfo Pages: 1 -->
<svg width="455pt" height="38pt"
 viewBox="0.00 0.00 455.00 38.00" xmlns="http://www.w3.org/2000/svg" xmlns:xlink="http://www.w3.org/1999/xlink">
<g id="graph0" class="graph" transform="scale(1 1) rotate(0) translate(4 34)">
<title>uvgvpcc_enc::Frame::printInfo</title>
<!-- Node1 -->
<g id="Node000001" class="node">
<title>Node1</title>
<g id="a_Node000001"><a xlink:title=" ">
<polygon fill="#999999" stroke="#666666" points="116,-30 0,-30 0,0 116,0 116,-30"/>
<text text-anchor="start" x="8" y="-18" font-family="Helvetica,sans-Serif" font-size="10.00">uvgvpcc_enc::Frame</text>
<text text-anchor="middle" x="58" y="-7" font-family="Helvetica,sans-Serif" font-size="10.00">::printInfo</text>
</a>
</g>
</g>
<!-- Node2 -->
<g id="Node000002" class="node">
<title>Node2</title>
<g id="a_Node000002"><a xlink:href="classuvgvpcc__enc_1_1Logger.html#af125e72496c52fe57a8aafaadc445ac2" target="_top" xlink:title=" ">
<polygon fill="white" stroke="#666666" points="292,-24.5 152,-24.5 152,-5.5 292,-5.5 292,-24.5"/>
<text text-anchor="middle" x="222" y="-12.5" font-family="Helvetica,sans-Serif" font-size="10.00">uvgvpcc_enc::Logger::log</text>
</a>
</g>
</g>
<!-- Node1&#45;&gt;Node2 -->
<g id="edge1_Node000001_Node000002" class="edge">
<title>Node1&#45;&gt;Node2</title>
<g id="a_edge1_Node000001_Node000002"><a xlink:title=" ">
<path fill="none" stroke="#63b8ff" d="M116.12,-15C124.43,-15 133.11,-15 141.77,-15"/>
<polygon fill="#63b8ff" stroke="#63b8ff" points="141.9,-18.5 151.9,-15 141.9,-11.5 141.9,-18.5"/>
</a>
</g>
</g>
<!-- Node3 -->
<g id="Node000003" class="node">
<title>Node3</title>
<g id="a_Node000003"><a xlink:href="classuvgvpcc__enc_1_1Logger.html#a93dc0b596dbe176e77961cb5caf71507" target="_top" xlink:title=" ">
<polygon fill="white" stroke="#666666" points="447,-30 328,-30 328,0 447,0 447,-30"/>
<text text-anchor="start" x="336" y="-18" font-family="Helvetica,sans-Serif" font-size="10.00">uvgvpcc_enc::Logger</text>
<text text-anchor="middle" x="387.5" y="-7" font-family="Helvetica,sans-Serif" font-size="10.00">::getLogLevel</text>
</a>
</g>
</g>
<!-- Node2&#45;&gt;Node3 -->
<g id="edge2_Node000002_Node000003" class="edge">
<title>Node2&#45;&gt;Node3</title>
<g id="a_edge2_Node000002_Node000003"><a xlink:title=" ">
<path fill="none" stroke="#63b8ff" d="M292.34,-15C300.75,-15 309.35,-15 317.76,-15"/>
<polygon fill="#63b8ff" stroke="#63b8ff" points="317.89,-18.5 327.89,-15 317.89,-11.5 317.89,-18.5"/>
</a>
</g>
</g>
</g>
</svg>
