<?xml version="1.0" encoding="UTF-8" standalone="no"?>
<!DOCTYPE svg PUBLIC "-//W3C//DTD SVG 1.1//EN"
 "http://www.w3.org/Graphics/SVG/1.1/DTD/svg11.dtd">
<!-- Generated by graphviz version 2.43.0 (0)
 -->
<!-- Title: robin_hood::hash&lt; T, Enable &gt; Pages: 1 -->
<svg width="122pt" height="153pt"
 viewBox="0.00 0.00 122.00 153.00" xmlns="http://www.w3.org/2000/svg" xmlns:xlink="http://www.w3.org/1999/xlink">
<g id="graph0" class="graph" transform="scale(1 1) rotate(0) translate(4 149)">
<title>robin_hood::hash&lt; T, Enable &gt;</title>
<!-- Node1 -->
<g id="Node000001" class="node">
<title>Node1</title>
<g id="a_Node000001"><a xlink:title=" ">
<polygon fill="#999999" stroke="transparent" points="114,-60 0,-60 0,0 114,0 114,-60"/>
<text text-anchor="start" x="5" y="-48" font-family="Helvetica,sans-Serif" font-size="10.00">robin_hood::hash&lt; T,</text>
<text text-anchor="start" x="33" y="-37" font-family="Helvetica,sans-Serif" font-size="10.00"> Enable &gt;</text>
<text text-anchor="start" x="55" y="-22" font-family="Helvetica,sans-Serif" font-size="10.00"> </text>
<text text-anchor="start" x="13" y="-7" font-family="Helvetica,sans-Serif" font-size="10.00">+</text>
<text text-anchor="start" x="35" y="-7" font-family="Helvetica,sans-Serif" font-size="10.00">operator()()</text>
<polygon fill="#666666" stroke="#666666" points="0,-32 0,-32 114,-32 114,-32 0,-32"/>
<polygon fill="#666666" stroke="#666666" points="0,-17 0,-17 114,-17 114,-17 0,-17"/>
<polygon fill="none" stroke="#666666" points="0,0 0,-60 114,-60 114,0 0,0"/>
</a>
</g>
</g>
<!-- Node2 -->
<g id="Node000002" class="node">
<title>Node2</title>
<g id="a_Node000002"><a xlink:title=" ">
<polygon fill="white" stroke="transparent" points="98.5,-145 15.5,-145 15.5,-96 98.5,-96 98.5,-145"/>
<text text-anchor="start" x="21" y="-132.5" font-family="Helvetica,sans-Serif" font-size="10.00">std::hash&lt; T &gt;</text>
<text text-anchor="start" x="55.5" y="-117.5" font-family="Helvetica,sans-Serif" font-size="10.00"> </text>
<text text-anchor="start" x="55.5" y="-102.5" font-family="Helvetica,sans-Serif" font-size="10.00"> </text>
<polygon fill="#666666" stroke="#666666" points="16,-127.5 16,-127.5 99,-127.5 99,-127.5 16,-127.5"/>
<polygon fill="#666666" stroke="#666666" points="16,-112.5 16,-112.5 99,-112.5 99,-112.5 16,-112.5"/>
<polygon fill="none" stroke="#666666" points="15.5,-96 15.5,-145 98.5,-145 98.5,-96 15.5,-96"/>
</a>
</g>
</g>
<!-- Node2&#45;&gt;Node1 -->
<g id="edge1_Node000001_Node000002" class="edge">
<title>Node2&#45;&gt;Node1</title>
<g id="a_edge1_Node000001_Node000002"><a xlink:title=" ">
<path fill="none" stroke="#63b8ff" d="M57,-85.55C57,-77.18 57,-68.28 57,-60.16"/>
<polygon fill="none" stroke="#63b8ff" points="53.5,-85.78 57,-95.78 60.5,-85.78 53.5,-85.78"/>
</a>
</g>
</g>
</g>
</svg>
