<?xml version="1.0" encoding="UTF-8" standalone="no"?>
<!DOCTYPE svg PUBLIC "-//W3C//DTD SVG 1.1//EN"
 "http://www.w3.org/Graphics/SVG/1.1/DTD/svg11.dtd">
<!-- Generated by graphviz version 2.43.0 (0)
 -->
<!-- Title: atlas_tile_layer_rbsp Pages: 1 -->
<svg width="326pt" height="536pt"
 viewBox="0.00 0.00 326.00 536.00" xmlns="http://www.w3.org/2000/svg" xmlns:xlink="http://www.w3.org/1999/xlink">
<g id="graph0" class="graph" transform="scale(1 1) rotate(0) translate(4 532)">
<title>atlas_tile_layer_rbsp</title>
<!-- Node1 -->
<g id="Node000001" class="node">
<title>Node1</title>
<g id="a_Node000001"><a xlink:title=" ">
<polygon fill="#999999" stroke="transparent" points="260.5,-49 148.5,-49 148.5,0 260.5,0 260.5,-49"/>
<text text-anchor="start" x="153.5" y="-36.5" font-family="Helvetica,sans-Serif" font-size="10.00">atlas_tile_layer_rbsp</text>
<text text-anchor="start" x="202.5" y="-21.5" font-family="Helvetica,sans-Serif" font-size="10.00"> </text>
<text text-anchor="start" x="202.5" y="-6.5" font-family="Helvetica,sans-Serif" font-size="10.00"> </text>
<polygon fill="#666666" stroke="#666666" points="148.5,-31.5 148.5,-31.5 260.5,-31.5 260.5,-31.5 148.5,-31.5"/>
<polygon fill="#666666" stroke="#666666" points="148.5,-16.5 148.5,-16.5 260.5,-16.5 260.5,-16.5 148.5,-16.5"/>
<polygon fill="none" stroke="#666666" points="148.5,0 148.5,-49 260.5,-49 260.5,0 148.5,0"/>
</a>
</g>
</g>
<!-- Node2 -->
<g id="Node000002" class="node">
<title>Node2</title>
<g id="a_Node000002"><a xlink:href="structatlas__tile__header.html" target="_top" xlink:title=" ">
<polygon fill="white" stroke="transparent" points="157,-372 0,-372 0,-96 157,-96 157,-372"/>
<text text-anchor="start" x="36.5" y="-360" font-family="Helvetica,sans-Serif" font-size="10.00">atlas_tile_header</text>
<text text-anchor="start" x="4.5" y="-345" font-family="Helvetica,sans-Serif" font-size="10.00">+</text>
<text text-anchor="start" x="17.5" y="-345" font-family="Helvetica,sans-Serif" font-size="10.00">ath_no_output_of_prior</text>
<text text-anchor="start" x="17.5" y="-334" font-family="Helvetica,sans-Serif" font-size="10.00">_atlas_frames_flag</text>
<text text-anchor="start" x="4.5" y="-319" font-family="Helvetica,sans-Serif" font-size="10.00">+</text>
<text text-anchor="start" x="17.5" y="-319" font-family="Helvetica,sans-Serif" font-size="10.00">ath_atlas_frame_parameter</text>
<text text-anchor="start" x="17.5" y="-308" font-family="Helvetica,sans-Serif" font-size="10.00">_set_id</text>
<text text-anchor="start" x="4.5" y="-293" font-family="Helvetica,sans-Serif" font-size="10.00">+</text>
<text text-anchor="start" x="17.5" y="-293" font-family="Helvetica,sans-Serif" font-size="10.00">ath_atlas_adaptation</text>
<text text-anchor="start" x="17.5" y="-282" font-family="Helvetica,sans-Serif" font-size="10.00">_parameter_set_id</text>
<text text-anchor="start" x="4.5" y="-267" font-family="Helvetica,sans-Serif" font-size="10.00">+</text>
<text text-anchor="start" x="17.5" y="-267" font-family="Helvetica,sans-Serif" font-size="10.00">ath_id</text>
<text text-anchor="start" x="4.5" y="-252" font-family="Helvetica,sans-Serif" font-size="10.00">+</text>
<text text-anchor="start" x="17.5" y="-252" font-family="Helvetica,sans-Serif" font-size="10.00">ath_type</text>
<text text-anchor="start" x="4.5" y="-237" font-family="Helvetica,sans-Serif" font-size="10.00">+</text>
<text text-anchor="start" x="17.5" y="-237" font-family="Helvetica,sans-Serif" font-size="10.00">ath_atlas_output_flag</text>
<text text-anchor="start" x="4.5" y="-222" font-family="Helvetica,sans-Serif" font-size="10.00">+</text>
<text text-anchor="start" x="17.5" y="-222" font-family="Helvetica,sans-Serif" font-size="10.00">ath_atlas_frm_order</text>
<text text-anchor="start" x="17.5" y="-211" font-family="Helvetica,sans-Serif" font-size="10.00">_cnt_lsb</text>
<text text-anchor="start" x="4.5" y="-196" font-family="Helvetica,sans-Serif" font-size="10.00">+</text>
<text text-anchor="start" x="17.5" y="-196" font-family="Helvetica,sans-Serif" font-size="10.00">ath_ref_atlas_frame</text>
<text text-anchor="start" x="17.5" y="-185" font-family="Helvetica,sans-Serif" font-size="10.00">_list_asps_flag</text>
<text text-anchor="start" x="4.5" y="-170" font-family="Helvetica,sans-Serif" font-size="10.00">+</text>
<text text-anchor="start" x="17.5" y="-170" font-family="Helvetica,sans-Serif" font-size="10.00">ath_ref_atlas_frame</text>
<text text-anchor="start" x="17.5" y="-159" font-family="Helvetica,sans-Serif" font-size="10.00">_list_idx</text>
<text text-anchor="start" x="4.5" y="-144" font-family="Helvetica,sans-Serif" font-size="10.00">+</text>
<text text-anchor="start" x="17.5" y="-144" font-family="Helvetica,sans-Serif" font-size="10.00">ath_additional_afoc</text>
<text text-anchor="start" x="17.5" y="-133" font-family="Helvetica,sans-Serif" font-size="10.00">_lsb_present_flag</text>
<text text-anchor="start" x="17.5" y="-118" font-family="Helvetica,sans-Serif" font-size="10.00">and 8 more...</text>
<text text-anchor="start" x="77" y="-103" font-family="Helvetica,sans-Serif" font-size="10.00"> </text>
<polygon fill="#666666" stroke="#666666" points="0.5,-355 0.5,-355 157.5,-355 157.5,-355 0.5,-355"/>
<polygon fill="#666666" stroke="#666666" points="0.5,-113 0.5,-113 15.5,-113 15.5,-113 0.5,-113"/>
<polygon fill="#666666" stroke="#666666" points="15.5,-113 15.5,-113 157.5,-113 157.5,-113 15.5,-113"/>
<polygon fill="none" stroke="#666666" points="0,-96 0,-372 157,-372 157,-96 0,-96"/>
</a>
</g>
</g>
<!-- Node2&#45;&gt;Node1 -->
<g id="edge1_Node000001_Node000002" class="edge">
<title>Node2&#45;&gt;Node1</title>
<g id="a_edge1_Node000001_Node000002"><a xlink:title=" ">
<path fill="none" stroke="#63b8ff" d="M157.25,-98.05C163.68,-87.5 170.15,-77.04 176.5,-67 178.12,-64.43 179.83,-61.78 181.56,-59.14"/>
<polygon fill="none" stroke="#63b8ff" points="181.62,-59.04 181.61,-51.83 188.26,-49.04 188.27,-56.25 181.62,-59.04"/>
</a>
</g>
<text text-anchor="middle" x="193" y="-70" font-family="Helvetica,sans-Serif" font-size="10.00" fill="grey"> +ath_</text>
</g>
<!-- Node3 -->
<g id="Node000003" class="node">
<title>Node3</title>
<g id="a_Node000003"><a xlink:href="structref__list__struct.html" target="_top" xlink:title=" ">
<polygon fill="white" stroke="transparent" points="146.5,-528 10.5,-528 10.5,-419 146.5,-419 146.5,-528"/>
<text text-anchor="start" x="45" y="-515.5" font-family="Helvetica,sans-Serif" font-size="10.00">ref_list_struct</text>
<text text-anchor="start" x="14.5" y="-500.5" font-family="Helvetica,sans-Serif" font-size="10.00">+</text>
<text text-anchor="start" x="27.5" y="-500.5" font-family="Helvetica,sans-Serif" font-size="10.00">num_ref_entries</text>
<text text-anchor="start" x="14.5" y="-485.5" font-family="Helvetica,sans-Serif" font-size="10.00">+</text>
<text text-anchor="start" x="27.5" y="-485.5" font-family="Helvetica,sans-Serif" font-size="10.00">st_ref_atlas_frame_flag</text>
<text text-anchor="start" x="14.5" y="-470.5" font-family="Helvetica,sans-Serif" font-size="10.00">+</text>
<text text-anchor="start" x="27.5" y="-470.5" font-family="Helvetica,sans-Serif" font-size="10.00">abs_delta_afoc_st</text>
<text text-anchor="start" x="14.5" y="-455.5" font-family="Helvetica,sans-Serif" font-size="10.00">+</text>
<text text-anchor="start" x="27.5" y="-455.5" font-family="Helvetica,sans-Serif" font-size="10.00">straf_entry_sign_flag</text>
<text text-anchor="start" x="14.5" y="-440.5" font-family="Helvetica,sans-Serif" font-size="10.00">+</text>
<text text-anchor="start" x="27.5" y="-440.5" font-family="Helvetica,sans-Serif" font-size="10.00">afoc_lsb_lt</text>
<text text-anchor="start" x="76.5" y="-425.5" font-family="Helvetica,sans-Serif" font-size="10.00"> </text>
<polygon fill="#666666" stroke="#666666" points="10.5,-510.5 10.5,-510.5 146.5,-510.5 146.5,-510.5 10.5,-510.5"/>
<polygon fill="#666666" stroke="#666666" points="10.5,-435.5 10.5,-435.5 25.5,-435.5 25.5,-435.5 10.5,-435.5"/>
<polygon fill="#666666" stroke="#666666" points="25.5,-435.5 25.5,-435.5 146.5,-435.5 146.5,-435.5 25.5,-435.5"/>
<polygon fill="none" stroke="#666666" points="10.5,-419 10.5,-528 146.5,-528 146.5,-419 10.5,-419"/>
</a>
</g>
</g>
<!-- Node3&#45;&gt;Node2 -->
<g id="edge2_Node000002_Node000003" class="edge">
<title>Node3&#45;&gt;Node2</title>
<g id="a_edge2_Node000002_Node000003"><a xlink:title=" ">
<path fill="none" stroke="#63b8ff" d="M78.5,-418.9C78.5,-408.23 78.5,-396.54 78.5,-384.4"/>
<polygon fill="none" stroke="#63b8ff" points="78.5,-384.12 74.5,-378.12 78.5,-372.12 82.5,-378.12 78.5,-384.12"/>
</a>
</g>
<text text-anchor="middle" x="94" y="-393" font-family="Helvetica,sans-Serif" font-size="10.00" fill="grey"> +refs</text>
</g>
<!-- Node4 -->
<g id="Node000004" class="node">
<title>Node4</title>
<g id="a_Node000004"><a xlink:href="structatlas__tile__data__unit.html" target="_top" xlink:title=" ">
<polygon fill="white" stroke="transparent" points="318,-258.5 175,-258.5 175,-209.5 318,-209.5 318,-258.5"/>
<text text-anchor="start" x="198.5" y="-246" font-family="Helvetica,sans-Serif" font-size="10.00">atlas_tile_data_unit</text>
<text text-anchor="start" x="179.5" y="-231" font-family="Helvetica,sans-Serif" font-size="10.00">+</text>
<text text-anchor="start" x="192.5" y="-231" font-family="Helvetica,sans-Serif" font-size="10.00">patch_information_data_</text>
<text text-anchor="start" x="245" y="-216" font-family="Helvetica,sans-Serif" font-size="10.00"> </text>
<polygon fill="#666666" stroke="#666666" points="175.5,-241 175.5,-241 318.5,-241 318.5,-241 175.5,-241"/>
<polygon fill="#666666" stroke="#666666" points="175.5,-226 175.5,-226 190.5,-226 190.5,-226 175.5,-226"/>
<polygon fill="#666666" stroke="#666666" points="190.5,-226 190.5,-226 318.5,-226 318.5,-226 190.5,-226"/>
<polygon fill="none" stroke="#666666" points="175,-209.5 175,-258.5 318,-258.5 318,-209.5 175,-209.5"/>
</a>
</g>
</g>
<!-- Node4&#45;&gt;Node1 -->
<g id="edge3_Node000001_Node000004" class="edge">
<title>Node4&#45;&gt;Node1</title>
<g id="a_edge3_Node000001_Node000004"><a xlink:title=" ">
<path fill="none" stroke="#63b8ff" d="M241.68,-209.2C234.32,-172.85 220.24,-103.27 211.68,-60.96"/>
<polygon fill="none" stroke="#63b8ff" points="211.64,-60.79 206.53,-55.7 209.26,-49.03 214.37,-54.11 211.64,-60.79"/>
</a>
</g>
<text text-anchor="middle" x="234" y="-70" font-family="Helvetica,sans-Serif" font-size="10.00" fill="grey"> +atdu_</text>
</g>
</g>
</svg>
