<?xml version="1.0" encoding="UTF-8" standalone="no"?>
<!DOCTYPE svg PUBLIC "-//W3C//DTD SVG 1.1//EN"
 "http://www.w3.org/Graphics/SVG/1.1/DTD/svg11.dtd">
<!-- Generated by graphviz version 2.43.0 (0)
 -->
<!-- Title: src/lib/utils/threadqueue.hpp Pages: 1 -->
<svg width="473pt" height="137pt"
 viewBox="0.00 0.00 473.00 137.00" xmlns="http://www.w3.org/2000/svg" xmlns:xlink="http://www.w3.org/1999/xlink">
<g id="graph0" class="graph" transform="scale(1 1) rotate(0) translate(4 133)">
<title>src/lib/utils/threadqueue.hpp</title>
<!-- Node1 -->
<g id="Node000001" class="node">
<title>Node1</title>
<g id="a_Node000001"><a xlink:title=" ">
<polygon fill="#999999" stroke="#666666" points="301,-129 146,-129 146,-110 301,-110 301,-129"/>
<text text-anchor="middle" x="223.5" y="-117" font-family="Helvetica,sans-Serif" font-size="10.00">src/lib/utils/threadqueue.hpp</text>
</a>
</g>
</g>
<!-- Node2 -->
<g id="Node000002" class="node">
<title>Node2</title>
<g id="a_Node000002"><a xlink:href="jobManagement_8cpp.html" target="_top" xlink:title=" ">
<polygon fill="white" stroke="#666666" points="173,-19 0,-19 0,0 173,0 173,-19"/>
<text text-anchor="middle" x="86.5" y="-7" font-family="Helvetica,sans-Serif" font-size="10.00">src/lib/utils/jobManagement.cpp</text>
</a>
</g>
</g>
<!-- Node1&#45;&gt;Node2 -->
<g id="edge1_Node000001_Node000002" class="edge">
<title>Node1&#45;&gt;Node2</title>
<g id="a_edge1_Node000001_Node000002"><a xlink:title=" ">
<path fill="none" stroke="#63b8ff" d="M159.88,-107.9C122.97,-100.31 81.62,-88.81 70.5,-74 58.08,-57.45 71.41,-32.34 80.15,-19.2"/>
<polygon fill="#63b8ff" stroke="#63b8ff" points="159.66,-111.42 170.15,-109.94 161.02,-104.56 159.66,-111.42"/>
</a>
</g>
</g>
<!-- Node3 -->
<g id="Node000003" class="node">
<title>Node3</title>
<g id="a_Node000003"><a xlink:href="jobManagement_8hpp.html" target="_top" xlink:title=" ">
<polygon fill="white" stroke="#666666" points="253,-74 80,-74 80,-55 253,-55 253,-74"/>
<text text-anchor="middle" x="166.5" y="-62" font-family="Helvetica,sans-Serif" font-size="10.00">src/lib/utils/jobManagement.hpp</text>
</a>
</g>
</g>
<!-- Node1&#45;&gt;Node3 -->
<g id="edge2_Node000001_Node000003" class="edge">
<title>Node1&#45;&gt;Node3</title>
<g id="a_edge2_Node000001_Node000003"><a xlink:title=" ">
<path fill="none" stroke="#63b8ff" d="M206.88,-103.04C196.77,-93.64 184.22,-81.98 175.82,-74.17"/>
<polygon fill="#63b8ff" stroke="#63b8ff" points="204.64,-105.74 214.34,-109.98 209.4,-100.61 204.64,-105.74"/>
</a>
</g>
</g>
<!-- Node4 -->
<g id="Node000004" class="node">
<title>Node4</title>
<g id="a_Node000004"><a xlink:href="uvgvpcc_8cpp.html" target="_top" xlink:title=" ">
<polygon fill="white" stroke="#666666" points="318.5,-19 208.5,-19 208.5,0 318.5,0 318.5,-19"/>
<text text-anchor="middle" x="263.5" y="-7" font-family="Helvetica,sans-Serif" font-size="10.00">src/lib/uvgvpcc.cpp</text>
</a>
</g>
</g>
<!-- Node1&#45;&gt;Node4 -->
<g id="edge6_Node000001_Node000004" class="edge">
<title>Node1&#45;&gt;Node4</title>
<g id="a_edge6_Node000001_Node000004"><a xlink:title=" ">
<path fill="none" stroke="#63b8ff" d="M241.99,-103.01C249.88,-95.21 258.24,-85.07 262.5,-74 269.63,-55.48 267.23,-31.61 265.17,-19.07"/>
<polygon fill="#63b8ff" stroke="#63b8ff" points="239.42,-100.62 234.43,-109.97 244.16,-105.77 239.42,-100.62"/>
</a>
</g>
</g>
<!-- Node5 -->
<g id="Node000005" class="node">
<title>Node5</title>
<g id="a_Node000005"><a xlink:href="threadqueue_8cpp.html" target="_top" xlink:title=" ">
<polygon fill="white" stroke="#666666" points="465,-74 310,-74 310,-55 465,-55 465,-74"/>
<text text-anchor="middle" x="387.5" y="-62" font-family="Helvetica,sans-Serif" font-size="10.00">src/lib/utils/threadqueue.cpp</text>
</a>
</g>
</g>
<!-- Node1&#45;&gt;Node5 -->
<g id="edge5_Node000001_Node000005" class="edge">
<title>Node1&#45;&gt;Node5</title>
<g id="a_edge5_Node000001_Node000005"><a xlink:title=" ">
<path fill="none" stroke="#63b8ff" d="M259.71,-106.8C290.32,-96.91 333.45,-82.97 360.94,-74.08"/>
<polygon fill="#63b8ff" stroke="#63b8ff" points="258.29,-103.58 249.85,-109.98 260.44,-110.24 258.29,-103.58"/>
</a>
</g>
</g>
<!-- Node3&#45;&gt;Node2 -->
<g id="edge3_Node000003_Node000002" class="edge">
<title>Node3&#45;&gt;Node2</title>
<g id="a_edge3_Node000003_Node000002"><a xlink:title=" ">
<path fill="none" stroke="#63b8ff" d="M145.25,-49.42C130.74,-39.81 111.96,-27.37 99.59,-19.17"/>
<polygon fill="#63b8ff" stroke="#63b8ff" points="143.38,-52.38 153.65,-54.98 147.24,-46.54 143.38,-52.38"/>
</a>
</g>
</g>
<!-- Node3&#45;&gt;Node4 -->
<g id="edge4_Node000003_Node000004" class="edge">
<title>Node3&#45;&gt;Node4</title>
<g id="a_edge4_Node000003_Node000004"><a xlink:title=" ">
<path fill="none" stroke="#63b8ff" d="M191.27,-49.97C209,-40.28 232.35,-27.52 247.63,-19.17"/>
<polygon fill="#63b8ff" stroke="#63b8ff" points="189.18,-47.12 182.08,-54.98 192.54,-53.26 189.18,-47.12"/>
</a>
</g>
</g>
</g>
</svg>
