<?xml version="1.0" encoding="UTF-8" standalone="no"?>
<!DOCTYPE svg PUBLIC "-//W3C//DTD SVG 1.1//EN"
 "http://www.w3.org/Graphics/SVG/1.1/DTD/svg11.dtd">
<!-- Generated by graphviz version 2.43.0 (0)
 -->
<!-- Title: src/libuvgvpccenc/patchGeneration/utilsPatchGeneration.hpp Pages: 1 -->
<svg width="1261pt" height="258pt"
 viewBox="0.00 0.00 1261.00 258.00" xmlns="http://www.w3.org/2000/svg" xmlns:xlink="http://www.w3.org/1999/xlink">
<g id="graph0" class="graph" transform="scale(1 1) rotate(0) translate(4 254)">
<title>src/libuvgvpccenc/patchGeneration/utilsPatchGeneration.hpp</title>
<!-- Node1 -->
<g id="Node000001" class="node">
<title>Node1</title>
<g id="a_Node000001"><a xlink:title=" ">
<polygon fill="#999999" stroke="#666666" points="757.5,-250 569.5,-250 569.5,-220 757.5,-220 757.5,-250"/>
<text text-anchor="start" x="577.5" y="-238" font-family="Helvetica,sans-Serif" font-size="10.00">src/libuvgvpccenc/patchGeneration</text>
<text text-anchor="middle" x="663.5" y="-227" font-family="Helvetica,sans-Serif" font-size="10.00">/utilsPatchGeneration.hpp</text>
</a>
</g>
</g>
<!-- Node2 -->
<g id="Node000002" class="node">
<title>Node2</title>
<g id="a_Node000002"><a xlink:title=" ">
<polygon fill="#e0e0e0" stroke="#999999" points="531.5,-184 459.5,-184 459.5,-165 531.5,-165 531.5,-184"/>
<text text-anchor="middle" x="495.5" y="-172" font-family="Helvetica,sans-Serif" font-size="10.00">sys/types.h</text>
</a>
</g>
</g>
<!-- Node1&#45;&gt;Node2 -->
<g id="edge1_Node000001_Node000002" class="edge">
<title>Node1&#45;&gt;Node2</title>
<g id="a_edge1_Node000001_Node000002"><a xlink:title=" ">
<path fill="none" stroke="#63b8ff" d="M623.26,-219.99C594.73,-210.05 556.85,-196.86 529.77,-187.43"/>
<polygon fill="#63b8ff" stroke="#63b8ff" points="530.9,-184.12 520.31,-184.14 528.6,-190.73 530.9,-184.12"/>
</a>
</g>
</g>
<!-- Node3 -->
<g id="Node000003" class="node">
<title>Node3</title>
<g id="a_Node000003"><a xlink:title=" ">
<polygon fill="#e0e0e0" stroke="#999999" points="762.5,-74 712.5,-74 712.5,-55 762.5,-55 762.5,-74"/>
<text text-anchor="middle" x="737.5" y="-62" font-family="Helvetica,sans-Serif" font-size="10.00">cstdint</text>
</a>
</g>
</g>
<!-- Node1&#45;&gt;Node3 -->
<g id="edge2_Node000001_Node000003" class="edge">
<title>Node1&#45;&gt;Node3</title>
<g id="a_edge2_Node000001_Node000003"><a xlink:title=" ">
<path fill="none" stroke="#63b8ff" d="M669.68,-219.92C683.03,-189.52 714.56,-117.73 729.45,-83.83"/>
<polygon fill="#63b8ff" stroke="#63b8ff" points="732.84,-84.82 733.66,-74.25 726.43,-82 732.84,-84.82"/>
</a>
</g>
</g>
<!-- Node4 -->
<g id="Node000004" class="node">
<title>Node4</title>
<g id="a_Node000004"><a xlink:title=" ">
<polygon fill="#e0e0e0" stroke="#999999" points="635,-184 588,-184 588,-165 635,-165 635,-184"/>
<text text-anchor="middle" x="611.5" y="-172" font-family="Helvetica,sans-Serif" font-size="10.00">vector</text>
</a>
</g>
</g>
<!-- Node1&#45;&gt;Node4 -->
<g id="edge3_Node000001_Node000004" class="edge">
<title>Node1&#45;&gt;Node4</title>
<g id="a_edge3_Node000001_Node000004"><a xlink:title=" ">
<path fill="none" stroke="#63b8ff" d="M650.91,-219.84C643.44,-211.43 633.94,-200.74 626.13,-191.96"/>
<polygon fill="#63b8ff" stroke="#63b8ff" points="628.55,-189.41 619.29,-184.27 623.32,-194.07 628.55,-189.41"/>
</a>
</g>
</g>
<!-- Node5 -->
<g id="Node000005" class="node">
<title>Node5</title>
<g id="a_Node000005"><a xlink:href="robin__hood_8h.html" target="_top" xlink:title=" ">
<polygon fill="white" stroke="#666666" points="419.5,-129 339.5,-129 339.5,-110 419.5,-110 419.5,-129"/>
<text text-anchor="middle" x="379.5" y="-117" font-family="Helvetica,sans-Serif" font-size="10.00">robin_hood.h</text>
</a>
</g>
</g>
<!-- Node1&#45;&gt;Node5 -->
<g id="edge4_Node000001_Node000005" class="edge">
<title>Node1&#45;&gt;Node5</title>
<g id="a_edge4_Node000001_Node000005"><a xlink:title=" ">
<path fill="none" stroke="#63b8ff" d="M640.05,-219.95C610.23,-202.24 560.26,-173.13 540.5,-165 504.57,-150.21 462.14,-138.71 429.86,-131.11"/>
<polygon fill="#63b8ff" stroke="#63b8ff" points="430.29,-127.62 419.76,-128.78 428.72,-134.44 430.29,-127.62"/>
</a>
</g>
</g>
<!-- Node16 -->
<g id="Node000016" class="node">
<title>Node16</title>
<g id="a_Node000016"><a xlink:href="constants_8hpp.html" target="_top" xlink:title=" ">
<polygon fill="white" stroke="#666666" points="913,-184 804,-184 804,-165 913,-165 913,-184"/>
<text text-anchor="middle" x="858.5" y="-172" font-family="Helvetica,sans-Serif" font-size="10.00">utils/constants.hpp</text>
</a>
</g>
</g>
<!-- Node1&#45;&gt;Node16 -->
<g id="edge15_Node000001_Node000016" class="edge">
<title>Node1&#45;&gt;Node16</title>
<g id="a_edge15_Node000001_Node000016"><a xlink:title=" ">
<path fill="none" stroke="#63b8ff" d="M710.21,-219.99C743.86,-209.89 788.71,-196.44 820.25,-186.98"/>
<polygon fill="#63b8ff" stroke="#63b8ff" points="821.42,-190.28 829.99,-184.05 819.4,-183.57 821.42,-190.28"/>
</a>
</g>
</g>
<!-- Node21 -->
<g id="Node000021" class="node">
<title>Node21</title>
<g id="a_Node000021"><a xlink:href="utils_8hpp.html" target="_top" xlink:title=" ">
<polygon fill="white" stroke="#666666" points="869,-129 768,-129 768,-110 869,-110 869,-129"/>
<text text-anchor="middle" x="818.5" y="-117" font-family="Helvetica,sans-Serif" font-size="10.00">uvgutils/utils.hpp</text>
</a>
</g>
</g>
<!-- Node1&#45;&gt;Node21 -->
<g id="edge36_Node000001_Node000021" class="edge">
<title>Node1&#45;&gt;Node21</title>
<g id="a_edge36_Node000001_Node000021"><a xlink:title=" ">
<path fill="none" stroke="#63b8ff" d="M682.82,-219.85C712.24,-198.31 768.01,-157.47 798.08,-135.46"/>
<polygon fill="#63b8ff" stroke="#63b8ff" points="800.52,-138 806.52,-129.27 796.39,-132.35 800.52,-138"/>
</a>
</g>
</g>
<!-- Node22 -->
<g id="Node000022" class="node">
<title>Node22</title>
<g id="a_Node000022"><a xlink:href="log_8hpp.html" target="_top" xlink:title=" ">
<polygon fill="white" stroke="#666666" points="1116,-74 1063,-74 1063,-55 1116,-55 1116,-74"/>
<text text-anchor="middle" x="1089.5" y="-62" font-family="Helvetica,sans-Serif" font-size="10.00">log.hpp</text>
</a>
</g>
</g>
<!-- Node1&#45;&gt;Node22 -->
<g id="edge37_Node000001_Node000022" class="edge">
<title>Node1&#45;&gt;Node22</title>
<g id="a_edge37_Node000001_Node000022"><a xlink:title=" ">
<path fill="none" stroke="#63b8ff" d="M757.73,-225.59C808.14,-218.7 870.39,-206.27 922.5,-184 983.79,-157.8 1044.88,-106.42 1073.19,-80.79"/>
<polygon fill="#63b8ff" stroke="#63b8ff" points="1075.58,-83.34 1080.58,-74 1070.85,-78.19 1075.58,-83.34"/>
</a>
</g>
</g>
<!-- Node6 -->
<g id="Node000006" class="node">
<title>Node6</title>
<g id="a_Node000006"><a xlink:title=" ">
<polygon fill="#e0e0e0" stroke="#999999" points="336.5,-74 272.5,-74 272.5,-55 336.5,-55 336.5,-74"/>
<text text-anchor="middle" x="304.5" y="-62" font-family="Helvetica,sans-Serif" font-size="10.00">algorithm</text>
</a>
</g>
</g>
<!-- Node5&#45;&gt;Node6 -->
<g id="edge5_Node000005_Node000006" class="edge">
<title>Node5&#45;&gt;Node6</title>
<g id="a_edge5_Node000005_Node000006"><a xlink:title=" ">
<path fill="none" stroke="#63b8ff" d="M367.45,-109.98C356.04,-101.92 338.67,-89.65 325.07,-80.03"/>
<polygon fill="#63b8ff" stroke="#63b8ff" points="326.96,-77.08 316.77,-74.17 322.92,-82.8 326.96,-77.08"/>
</a>
</g>
</g>
<!-- Node7 -->
<g id="Node000007" class="node">
<title>Node7</title>
<g id="a_Node000007"><a xlink:title=" ">
<polygon fill="#e0e0e0" stroke="#999999" points="404,-74 355,-74 355,-55 404,-55 404,-74"/>
<text text-anchor="middle" x="379.5" y="-62" font-family="Helvetica,sans-Serif" font-size="10.00">cstdlib</text>
</a>
</g>
</g>
<!-- Node5&#45;&gt;Node7 -->
<g id="edge6_Node000005_Node000007" class="edge">
<title>Node5&#45;&gt;Node7</title>
<g id="a_edge6_Node000005_Node000007"><a xlink:title=" ">
<path fill="none" stroke="#63b8ff" d="M379.5,-109.75C379.5,-102.8 379.5,-92.85 379.5,-84.13"/>
<polygon fill="#63b8ff" stroke="#63b8ff" points="383,-84.09 379.5,-74.09 376,-84.09 383,-84.09"/>
</a>
</g>
</g>
<!-- Node8 -->
<g id="Node000008" class="node">
<title>Node8</title>
<g id="a_Node000008"><a xlink:title=" ">
<polygon fill="#e0e0e0" stroke="#999999" points="472.5,-74 422.5,-74 422.5,-55 472.5,-55 472.5,-74"/>
<text text-anchor="middle" x="447.5" y="-62" font-family="Helvetica,sans-Serif" font-size="10.00">cstring</text>
</a>
</g>
</g>
<!-- Node5&#45;&gt;Node8 -->
<g id="edge7_Node000005_Node000008" class="edge">
<title>Node5&#45;&gt;Node8</title>
<g id="a_edge7_Node000005_Node000008"><a xlink:title=" ">
<path fill="none" stroke="#63b8ff" d="M390.43,-109.98C400.58,-102.07 415.92,-90.11 428.15,-80.58"/>
<polygon fill="#63b8ff" stroke="#63b8ff" points="430.64,-83.08 436.38,-74.17 426.34,-77.56 430.64,-83.08"/>
</a>
</g>
</g>
<!-- Node9 -->
<g id="Node000009" class="node">
<title>Node9</title>
<g id="a_Node000009"><a xlink:title=" ">
<polygon fill="#e0e0e0" stroke="#999999" points="556,-74 491,-74 491,-55 556,-55 556,-74"/>
<text text-anchor="middle" x="523.5" y="-62" font-family="Helvetica,sans-Serif" font-size="10.00">functional</text>
</a>
</g>
</g>
<!-- Node5&#45;&gt;Node9 -->
<g id="edge8_Node000005_Node000009" class="edge">
<title>Node5&#45;&gt;Node9</title>
<g id="a_edge8_Node000005_Node000009"><a xlink:title=" ">
<path fill="none" stroke="#63b8ff" d="M402.64,-109.98C426.32,-101.27 463.37,-87.63 490.21,-77.75"/>
<polygon fill="#63b8ff" stroke="#63b8ff" points="491.77,-80.91 499.94,-74.17 489.35,-74.34 491.77,-80.91"/>
</a>
</g>
</g>
<!-- Node10 -->
<g id="Node000010" class="node">
<title>Node10</title>
<g id="a_Node000010"><a xlink:title=" ">
<polygon fill="#e0e0e0" stroke="#999999" points="694.5,-74 650.5,-74 650.5,-55 694.5,-55 694.5,-74"/>
<text text-anchor="middle" x="672.5" y="-62" font-family="Helvetica,sans-Serif" font-size="10.00">limits</text>
</a>
</g>
</g>
<!-- Node5&#45;&gt;Node10 -->
<g id="edge9_Node000005_Node000010" class="edge">
<title>Node5&#45;&gt;Node10</title>
<g id="a_edge9_Node000005_Node000010"><a xlink:title=" ">
<path fill="none" stroke="#63b8ff" d="M419.69,-112.94C469.35,-105.8 556.6,-92.33 640.29,-74.09"/>
<polygon fill="#63b8ff" stroke="#63b8ff" points="641.2,-77.47 650.22,-71.9 639.7,-70.63 641.2,-77.47"/>
</a>
</g>
</g>
<!-- Node11 -->
<g id="Node000011" class="node">
<title>Node11</title>
<g id="a_Node000011"><a xlink:title=" ">
<polygon fill="#e0e0e0" stroke="#999999" points="632.5,-74 574.5,-74 574.5,-55 632.5,-55 632.5,-74"/>
<text text-anchor="middle" x="603.5" y="-62" font-family="Helvetica,sans-Serif" font-size="10.00">memory</text>
</a>
</g>
</g>
<!-- Node5&#45;&gt;Node11 -->
<g id="edge10_Node000005_Node000011" class="edge">
<title>Node5&#45;&gt;Node11</title>
<g id="a_edge10_Node000005_Node000011"><a xlink:title=" ">
<path fill="none" stroke="#63b8ff" d="M415.49,-109.98C456.28,-100.33 522.53,-84.66 564.52,-74.72"/>
<polygon fill="#63b8ff" stroke="#63b8ff" points="565.45,-78.1 574.38,-72.39 563.84,-71.29 565.45,-78.1"/>
</a>
</g>
</g>
<!-- Node12 -->
<g id="Node000012" class="node">
<title>Node12</title>
<g id="a_Node000012"><a xlink:title=" ">
<polygon fill="#e0e0e0" stroke="#999999" points="65,-74 0,-74 0,-55 65,-55 65,-74"/>
<text text-anchor="middle" x="32.5" y="-62" font-family="Helvetica,sans-Serif" font-size="10.00">stdexcept</text>
</a>
</g>
</g>
<!-- Node5&#45;&gt;Node12 -->
<g id="edge11_Node000005_Node000012" class="edge">
<title>Node5&#45;&gt;Node12</title>
<g id="a_edge11_Node000005_Node000012"><a xlink:title=" ">
<path fill="none" stroke="#63b8ff" d="M339.16,-112.93C281.5,-104.87 172.24,-89.26 79.5,-74 78.04,-73.76 76.56,-73.51 75.06,-73.26"/>
<polygon fill="#63b8ff" stroke="#63b8ff" points="75.54,-69.79 65.09,-71.53 74.35,-76.69 75.54,-69.79"/>
</a>
</g>
</g>
<!-- Node13 -->
<g id="Node000013" class="node">
<title>Node13</title>
<g id="a_Node000013"><a xlink:title=" ">
<polygon fill="#e0e0e0" stroke="#999999" points="505.5,-19 461.5,-19 461.5,0 505.5,0 505.5,-19"/>
<text text-anchor="middle" x="483.5" y="-7" font-family="Helvetica,sans-Serif" font-size="10.00">string</text>
</a>
</g>
</g>
<!-- Node5&#45;&gt;Node13 -->
<g id="edge12_Node000005_Node000013" class="edge">
<title>Node5&#45;&gt;Node13</title>
<g id="a_edge12_Node000005_Node000013"><a xlink:title=" ">
<path fill="none" stroke="#63b8ff" d="M339.3,-117.89C272.01,-115.93 141.09,-107.75 112.5,-74 107.04,-67.56 106.9,-61.32 112.5,-55 134.85,-29.81 364.97,-16.21 451.15,-11.97"/>
<polygon fill="#63b8ff" stroke="#63b8ff" points="451.57,-15.45 461.39,-11.48 451.24,-8.46 451.57,-15.45"/>
</a>
</g>
</g>
<!-- Node14 -->
<g id="Node000014" class="node">
<title>Node14</title>
<g id="a_Node000014"><a xlink:title=" ">
<polygon fill="#e0e0e0" stroke="#999999" points="191,-74 122,-74 122,-55 191,-55 191,-74"/>
<text text-anchor="middle" x="156.5" y="-62" font-family="Helvetica,sans-Serif" font-size="10.00">type_traits</text>
</a>
</g>
</g>
<!-- Node5&#45;&gt;Node14 -->
<g id="edge13_Node000005_Node000014" class="edge">
<title>Node5&#45;&gt;Node14</title>
<g id="a_edge13_Node000005_Node000014"><a xlink:title=" ">
<path fill="none" stroke="#63b8ff" d="M343.67,-109.98C304.89,-100.77 242.97,-86.05 201.07,-76.09"/>
<polygon fill="#63b8ff" stroke="#63b8ff" points="201.68,-72.64 191.14,-73.73 200.06,-79.45 201.68,-72.64"/>
</a>
</g>
</g>
<!-- Node15 -->
<g id="Node000015" class="node">
<title>Node15</title>
<g id="a_Node000015"><a xlink:title=" ">
<polygon fill="#e0e0e0" stroke="#999999" points="254,-74 209,-74 209,-55 254,-55 254,-74"/>
<text text-anchor="middle" x="231.5" y="-62" font-family="Helvetica,sans-Serif" font-size="10.00">utility</text>
</a>
</g>
</g>
<!-- Node5&#45;&gt;Node15 -->
<g id="edge14_Node000005_Node000015" class="edge">
<title>Node5&#45;&gt;Node15</title>
<g id="a_edge14_Node000005_Node000015"><a xlink:title=" ">
<path fill="none" stroke="#63b8ff" d="M355.72,-109.98C330.83,-101.07 291.59,-87.02 263.89,-77.1"/>
<polygon fill="#63b8ff" stroke="#63b8ff" points="264.84,-73.72 254.25,-73.65 262.48,-80.31 264.84,-73.72"/>
</a>
</g>
</g>
<!-- Node16&#45;&gt;Node3 -->
<g id="edge18_Node000016_Node000003" class="edge">
<title>Node16&#45;&gt;Node3</title>
<g id="a_edge18_Node000016_Node000003"><a xlink:title=" ">
<path fill="none" stroke="#63b8ff" d="M822.18,-164.91C801.31,-158.27 776.04,-147.07 759.5,-129 748.19,-116.64 742.65,-98.16 739.96,-84.32"/>
<polygon fill="#63b8ff" stroke="#63b8ff" points="743.41,-83.74 738.36,-74.42 736.5,-84.85 743.41,-83.74"/>
</a>
</g>
</g>
<!-- Node16&#45;&gt;Node10 -->
<g id="edge20_Node000016_Node000010" class="edge">
<title>Node16&#45;&gt;Node10</title>
<g id="a_edge20_Node000016_Node000010"><a xlink:title=" ">
<path fill="none" stroke="#63b8ff" d="M827.81,-164.95C803.81,-157.5 770.16,-145.32 743.5,-129 722.04,-115.86 701.01,-95.91 687.48,-81.89"/>
<polygon fill="#63b8ff" stroke="#63b8ff" points="689.84,-79.29 680.43,-74.41 684.75,-84.09 689.84,-79.29"/>
</a>
</g>
</g>
<!-- Node17 -->
<g id="Node000017" class="node">
<title>Node17</title>
<g id="a_Node000017"><a xlink:title=" ">
<polygon fill="#e0e0e0" stroke="#999999" points="934.5,-74 892.5,-74 892.5,-55 934.5,-55 934.5,-74"/>
<text text-anchor="middle" x="913.5" y="-62" font-family="Helvetica,sans-Serif" font-size="10.00">array</text>
</a>
</g>
</g>
<!-- Node16&#45;&gt;Node17 -->
<g id="edge16_Node000016_Node000017" class="edge">
<title>Node16&#45;&gt;Node17</title>
<g id="a_edge16_Node000016_Node000017"><a xlink:title=" ">
<path fill="none" stroke="#63b8ff" d="M866.48,-164.9C874.06,-156.35 885.33,-142.58 892.5,-129 900.05,-114.71 905.6,-97.18 909.09,-84.16"/>
<polygon fill="#63b8ff" stroke="#63b8ff" points="912.58,-84.63 911.63,-74.08 905.79,-82.92 912.58,-84.63"/>
</a>
</g>
</g>
<!-- Node18 -->
<g id="Node000018" class="node">
<title>Node18</title>
<g id="a_Node000018"><a xlink:title=" ">
<polygon fill="#e0e0e0" stroke="#999999" points="1006,-74 953,-74 953,-55 1006,-55 1006,-74"/>
<text text-anchor="middle" x="979.5" y="-62" font-family="Helvetica,sans-Serif" font-size="10.00">cstddef</text>
</a>
</g>
</g>
<!-- Node16&#45;&gt;Node18 -->
<g id="edge17_Node000016_Node000018" class="edge">
<title>Node16&#45;&gt;Node18</title>
<g id="a_edge17_Node000016_Node000018"><a xlink:title=" ">
<path fill="none" stroke="#63b8ff" d="M868.95,-164.74C879.52,-155.85 896.28,-141.62 910.5,-129 928.62,-112.92 948.98,-94.08 962.87,-81.12"/>
<polygon fill="#63b8ff" stroke="#63b8ff" points="965.31,-83.62 970.22,-74.24 960.53,-78.51 965.31,-83.62"/>
</a>
</g>
</g>
<!-- Node19 -->
<g id="Node000019" class="node">
<title>Node19</title>
<g id="a_Node000019"><a xlink:title=" ">
<polygon fill="#e0e0e0" stroke="#999999" points="969.5,-19 913.5,-19 913.5,0 969.5,0 969.5,-19"/>
<text text-anchor="middle" x="941.5" y="-7" font-family="Helvetica,sans-Serif" font-size="10.00">iomanip</text>
</a>
</g>
</g>
<!-- Node16&#45;&gt;Node19 -->
<g id="edge19_Node000016_Node000019" class="edge">
<title>Node16&#45;&gt;Node19</title>
<g id="a_edge19_Node000016_Node000019"><a xlink:title=" ">
<path fill="none" stroke="#63b8ff" d="M887.77,-164.91C925.41,-152.08 989.06,-123.9 1015.5,-74 1027.23,-51.85 1000.63,-34.08 976.12,-23.03"/>
<polygon fill="#63b8ff" stroke="#63b8ff" points="977.48,-19.81 966.91,-19.13 974.76,-26.25 977.48,-19.81"/>
</a>
</g>
</g>
<!-- Node20 -->
<g id="Node000020" class="node">
<title>Node20</title>
<g id="a_Node000020"><a xlink:title=" ">
<polygon fill="#e0e0e0" stroke="#999999" points="874.5,-74 818.5,-74 818.5,-55 874.5,-55 874.5,-74"/>
<text text-anchor="middle" x="846.5" y="-62" font-family="Helvetica,sans-Serif" font-size="10.00">sstream</text>
</a>
</g>
</g>
<!-- Node16&#45;&gt;Node20 -->
<g id="edge21_Node000016_Node000020" class="edge">
<title>Node16&#45;&gt;Node20</title>
<g id="a_edge21_Node000016_Node000020"><a xlink:title=" ">
<path fill="none" stroke="#63b8ff" d="M864.7,-164.86C872.68,-152.63 884.81,-129.58 878.5,-110 875.16,-99.62 868.4,-89.62 861.95,-81.74"/>
<polygon fill="#63b8ff" stroke="#63b8ff" points="864.47,-79.31 855.25,-74.1 859.21,-83.92 864.47,-79.31"/>
</a>
</g>
</g>
<!-- Node16&#45;&gt;Node21 -->
<g id="edge22_Node000016_Node000021" class="edge">
<title>Node16&#45;&gt;Node21</title>
<g id="a_edge22_Node000016_Node000021"><a xlink:title=" ">
<path fill="none" stroke="#63b8ff" d="M851.89,-164.75C846.24,-157.26 837.96,-146.28 831.05,-137.13"/>
<polygon fill="#63b8ff" stroke="#63b8ff" points="833.8,-134.96 824.98,-129.09 828.21,-139.18 833.8,-134.96"/>
</a>
</g>
</g>
<!-- Node21&#45;&gt;Node3 -->
<g id="edge25_Node000021_Node000003" class="edge">
<title>Node21&#45;&gt;Node3</title>
<g id="a_edge25_Node000021_Node000003"><a xlink:title=" ">
<path fill="none" stroke="#63b8ff" d="M805.49,-109.98C793.04,-101.84 774.04,-89.41 759.29,-79.76"/>
<polygon fill="#63b8ff" stroke="#63b8ff" points="761.04,-76.72 750.75,-74.17 757.2,-82.57 761.04,-76.72"/>
</a>
</g>
</g>
<!-- Node21&#45;&gt;Node10 -->
<g id="edge27_Node000021_Node000010" class="edge">
<title>Node21&#45;&gt;Node10</title>
<g id="a_edge27_Node000021_Node000010"><a xlink:title=" ">
<path fill="none" stroke="#63b8ff" d="M795.04,-109.98C770.49,-101.07 731.78,-87.02 704.45,-77.1"/>
<polygon fill="#63b8ff" stroke="#63b8ff" points="705.53,-73.77 694.94,-73.65 703.15,-80.35 705.53,-73.77"/>
</a>
</g>
</g>
<!-- Node21&#45;&gt;Node17 -->
<g id="edge23_Node000021_Node000017" class="edge">
<title>Node21&#45;&gt;Node17</title>
<g id="a_edge23_Node000021_Node000017"><a xlink:title=" ">
<path fill="none" stroke="#63b8ff" d="M833.76,-109.98C848.63,-101.69 871.48,-88.94 888.92,-79.22"/>
<polygon fill="#63b8ff" stroke="#63b8ff" points="890.93,-82.1 897.96,-74.17 887.52,-75.99 890.93,-82.1"/>
</a>
</g>
</g>
<!-- Node21&#45;&gt;Node18 -->
<g id="edge24_Node000021_Node000018" class="edge">
<title>Node21&#45;&gt;Node18</title>
<g id="a_edge24_Node000021_Node000018"><a xlink:title=" ">
<path fill="none" stroke="#63b8ff" d="M844.37,-109.98C871.28,-101.13 913.62,-87.19 943.73,-77.28"/>
<polygon fill="#63b8ff" stroke="#63b8ff" points="945.03,-80.53 953.43,-74.08 942.84,-73.88 945.03,-80.53"/>
</a>
</g>
</g>
<!-- Node21&#45;&gt;Node19 -->
<g id="edge26_Node000021_Node000019" class="edge">
<title>Node21&#45;&gt;Node19</title>
<g id="a_edge26_Node000021_Node000019"><a xlink:title=" ">
<path fill="none" stroke="#63b8ff" d="M813.72,-109.78C807.21,-96.61 797.68,-71.46 809.5,-55 830.67,-25.53 872.36,-15.32 903.26,-11.91"/>
<polygon fill="#63b8ff" stroke="#63b8ff" points="903.63,-15.39 913.27,-11 903,-8.42 903.63,-15.39"/>
</a>
</g>
</g>
<!-- Node21&#45;&gt;Node20 -->
<g id="edge28_Node000021_Node000020" class="edge">
<title>Node21&#45;&gt;Node20</title>
<g id="a_edge28_Node000021_Node000020"><a xlink:title=" ">
<path fill="none" stroke="#63b8ff" d="M823.12,-109.75C826.96,-102.49 832.52,-91.95 837.26,-82.98"/>
<polygon fill="#63b8ff" stroke="#63b8ff" points="840.39,-84.57 841.96,-74.09 834.2,-81.3 840.39,-84.57"/>
</a>
</g>
</g>
<!-- Node21&#45;&gt;Node22 -->
<g id="edge29_Node000021_Node000022" class="edge">
<title>Node21&#45;&gt;Node22</title>
<g id="a_edge29_Node000021_Node000022"><a xlink:title=" ">
<path fill="none" stroke="#63b8ff" d="M862.04,-109.98C914.98,-99.63 1003.38,-82.34 1052.95,-72.65"/>
<polygon fill="#63b8ff" stroke="#63b8ff" points="1053.77,-76.06 1062.91,-70.7 1052.42,-69.19 1053.77,-76.06"/>
</a>
</g>
</g>
<!-- Node22&#45;&gt;Node13 -->
<g id="edge35_Node000022_Node000013" class="edge">
<title>Node22&#45;&gt;Node13</title>
<g id="a_edge35_Node000022_Node000013"><a xlink:title=" ">
<path fill="none" stroke="#63b8ff" d="M1062.8,-60.23C1048.74,-58.56 1031.2,-56.56 1015.5,-55 826.19,-36.21 598.46,-18.95 515.61,-12.84"/>
<polygon fill="#63b8ff" stroke="#63b8ff" points="515.8,-9.34 505.57,-12.1 515.28,-16.32 515.8,-9.34"/>
</a>
</g>
</g>
<!-- Node22&#45;&gt;Node19 -->
<g id="edge32_Node000022_Node000019" class="edge">
<title>Node22&#45;&gt;Node19</title>
<g id="a_edge32_Node000022_Node000019"><a xlink:title=" ">
<path fill="none" stroke="#63b8ff" d="M1065.72,-54.98C1041.27,-46.23 1002.97,-32.51 975.35,-22.62"/>
<polygon fill="#63b8ff" stroke="#63b8ff" points="976.31,-19.25 965.71,-19.17 973.95,-25.84 976.31,-19.25"/>
</a>
</g>
</g>
<!-- Node23 -->
<g id="Node000023" class="node">
<title>Node23</title>
<g id="a_Node000023"><a xlink:title=" ">
<polygon fill="#e0e0e0" stroke="#999999" points="1181.5,-19 1131.5,-19 1131.5,0 1181.5,0 1181.5,-19"/>
<text text-anchor="middle" x="1156.5" y="-7" font-family="Helvetica,sans-Serif" font-size="10.00">chrono</text>
</a>
</g>
</g>
<!-- Node22&#45;&gt;Node23 -->
<g id="edge30_Node000022_Node000023" class="edge">
<title>Node22&#45;&gt;Node23</title>
<g id="a_edge30_Node000022_Node000023"><a xlink:title=" ">
<path fill="none" stroke="#63b8ff" d="M1100.26,-54.98C1110.27,-47.07 1125.39,-35.11 1137.43,-25.58"/>
<polygon fill="#63b8ff" stroke="#63b8ff" points="1139.87,-28.12 1145.54,-19.17 1135.53,-22.63 1139.87,-28.12"/>
</a>
</g>
</g>
<!-- Node24 -->
<g id="Node000024" class="node">
<title>Node24</title>
<g id="a_Node000024"><a xlink:title=" ">
<polygon fill="#e0e0e0" stroke="#999999" points="1253,-19 1200,-19 1200,0 1253,0 1253,-19"/>
<text text-anchor="middle" x="1226.5" y="-7" font-family="Helvetica,sans-Serif" font-size="10.00">cstdarg</text>
</a>
</g>
</g>
<!-- Node22&#45;&gt;Node24 -->
<g id="edge31_Node000022_Node000024" class="edge">
<title>Node22&#45;&gt;Node24</title>
<g id="a_edge31_Node000022_Node000024"><a xlink:title=" ">
<path fill="none" stroke="#63b8ff" d="M1111.51,-54.98C1133.95,-46.3 1168.98,-32.75 1194.49,-22.88"/>
<polygon fill="#63b8ff" stroke="#63b8ff" points="1196.02,-26.04 1204.09,-19.17 1193.5,-19.51 1196.02,-26.04"/>
</a>
</g>
</g>
<!-- Node25 -->
<g id="Node000025" class="node">
<title>Node25</title>
<g id="a_Node000025"><a xlink:title=" ">
<polygon fill="#e0e0e0" stroke="#999999" points="1047.5,-19 987.5,-19 987.5,0 1047.5,0 1047.5,-19"/>
<text text-anchor="middle" x="1017.5" y="-7" font-family="Helvetica,sans-Serif" font-size="10.00">iostream</text>
</a>
</g>
</g>
<!-- Node22&#45;&gt;Node25 -->
<g id="edge33_Node000022_Node000025" class="edge">
<title>Node22&#45;&gt;Node25</title>
<g id="a_edge33_Node000022_Node000025"><a xlink:title=" ">
<path fill="none" stroke="#63b8ff" d="M1077.93,-54.98C1067.08,-47 1050.62,-34.88 1037.62,-25.31"/>
<polygon fill="#63b8ff" stroke="#63b8ff" points="1039.41,-22.28 1029.28,-19.17 1035.26,-27.92 1039.41,-22.28"/>
</a>
</g>
</g>
<!-- Node26 -->
<g id="Node000026" class="node">
<title>Node26</title>
<g id="a_Node000026"><a xlink:title=" ">
<polygon fill="#e0e0e0" stroke="#999999" points="1113.5,-19 1065.5,-19 1065.5,0 1113.5,0 1113.5,-19"/>
<text text-anchor="middle" x="1089.5" y="-7" font-family="Helvetica,sans-Serif" font-size="10.00">mutex</text>
</a>
</g>
</g>
<!-- Node22&#45;&gt;Node26 -->
<g id="edge34_Node000022_Node000026" class="edge">
<title>Node22&#45;&gt;Node26</title>
<g id="a_edge34_Node000022_Node000026"><a xlink:title=" ">
<path fill="none" stroke="#63b8ff" d="M1089.5,-54.75C1089.5,-47.8 1089.5,-37.85 1089.5,-29.13"/>
<polygon fill="#63b8ff" stroke="#63b8ff" points="1093,-29.09 1089.5,-19.09 1086,-29.09 1093,-29.09"/>
</a>
</g>
</g>
</g>
</svg>
