<?xml version="1.0" encoding="UTF-8" standalone="no"?>
<!DOCTYPE svg PUBLIC "-//W3C//DTD SVG 1.1//EN"
 "http://www.w3.org/Graphics/SVG/1.1/DTD/svg11.dtd">
<!-- Generated by graphviz version 2.43.0 (0)
 -->
<!-- Title: src/lib/utils/utils.hpp Pages: 1 -->
<!--zoomable 225 -->

<svg id="main" version="1.1" xmlns="http://www.w3.org/2000/svg" xmlns:xlink="http://www.w3.org/1999/xlink" xml:space="preserve" onload="init(evt)">
<style type="text/css"><![CDATA[
.node, .edge {opacity: 0.7;}
.node.selected, .edge.selected {opacity: 1;}
.edge:hover path { stroke: red; }
.edge:hover polygon { stroke: red; fill: red; }
]]></style>

<defs>
  <circle id="rim" cx="0" cy="0" r="7"/>
  <circle id="rim2" cx="0" cy="0" r="3.5"/>
  <g id="zoomPlus">
    <use xlink:href="#rim" fill="#404040"><set attributeName="fill" to="#808080" begin="zoomplus.mouseover" end="zoomplus.mouseout"/></use>
    <path d="M-4,0h8M0,-4v8" fill="none" stroke="white" stroke-width="1.5" pointer-events="none"/>
  </g>
  <g id="zoomMin">
    <use xlink:href="#rim" fill="#404040"><set attributeName="fill" to="#808080" begin="zoomminus.mouseover" end="zoomminus.mouseout"/></use>
    <path d="M-4,0h8" fill="none" stroke="white" stroke-width="1.5" pointer-events="none"/>
  </g>
  <g id="arrowUp" transform="translate(30 24)">
    <use xlink:href="#rim"/>
    <path pointer-events="none" fill="none" stroke="white" stroke-width="1.5" d="M0,-3.0v7 M-2.5,-0.5L0,-3.0L2.5,-0.5"/>
  </g>
  <g id="arrowRight" transform="rotate(90) translate(36 -43)">
    <use xlink:href="#rim"/>
    <path pointer-events="none" fill="none" stroke="white" stroke-width="1.5" d="M0,-3.0v7 M-2.5,-0.5L0,-3.0L2.5,-0.5"/>
  </g>
  <g id="arrowDown" transform="rotate(180) translate(-30 -48)">
    <use xlink:href="#rim"/>
    <path pointer-events="none" fill="none" stroke="white" stroke-width="1.5" d="M0,-3.0v7 M-2.5,-0.5L0,-3.0L2.5,-0.5"/>
  </g>
  <g id="arrowLeft" transform="rotate(270) translate(-36 17)">
    <use xlink:href="#rim"/>
    <path pointer-events="none" fill="none" stroke="white" stroke-width="1.5" d="M0,-3.0v7 M-2.5,-0.5L0,-3.0L2.5,-0.5"/>
  </g>
  <g id="resetDef">
    <use xlink:href="#rim2" fill="#404040"><set attributeName="fill" to="#808080" begin="reset.mouseover" end="reset.mouseout"/></use>
  </g>
</defs>
<script type="application/ecmascript">
var viewWidth = 1430;
var viewHeight = 225;
var sectionId = 'dynsection-1';
</script>
<script type="application/ecmascript" xlink:href="svg.min.js"/>
<svg id="graph" class="graph">
<g id="viewport">
<title>src/lib/utils/utils.hpp</title>
<!-- Node1 -->
<g id="Node000001" class="node">
<title>Node1</title>
<g id="a_Node000001"><a xlink:title=" ">
<polygon fill="#999999" stroke="#666666" points="563,-217 448,-217 448,-198 563,-198 563,-217"/>
<text text-anchor="middle" x="505.5" y="-205" font-family="Helvetica,sans-Serif" font-size="10.00">src/lib/utils/utils.hpp</text>
</a>
</g>
</g>
<!-- Node2 -->
<g id="Node000002" class="node">
<title>Node2</title>
<g id="a_Node000002"><a xlink:href="mapGeneration_8cpp.html" target="_top" xlink:title=" ">
<polygon fill="white" stroke="#666666" points="203,-162 78,-162 78,-132 203,-132 203,-162"/>
<text text-anchor="start" x="86" y="-150" font-family="Helvetica,sans-Serif" font-size="10.00">src/lib/mapGeneration</text>
<text text-anchor="middle" x="140.5" y="-139" font-family="Helvetica,sans-Serif" font-size="10.00">/mapGeneration.cpp</text>
</a>
</g>
</g>
<!-- Node1&#45;&gt;Node2 -->
<g id="edge1_Node000001_Node000002" class="edge">
<title>Node1&#45;&gt;Node2</title>
<g id="a_edge1_Node000001_Node000002"><a xlink:title=" ">
<path fill="none" stroke="#63b8ff" d="M437.57,-196.52C379.16,-187.82 292.69,-174.64 217.5,-162 212.81,-161.21 207.96,-160.38 203.09,-159.52"/>
<polygon fill="#63b8ff" stroke="#63b8ff" points="437.37,-200.03 447.78,-198.04 438.4,-193.11 437.37,-200.03"/>
</a>
</g>
</g>
<!-- Node3 -->
<g id="Node000003" class="node">
<title>Node3</title>
<g id="a_Node000003"><a xlink:href="kdTree_8hpp.html" target="_top" xlink:title=" ">
<polygon fill="white" stroke="#666666" points="849.5,-162 719.5,-162 719.5,-132 849.5,-132 849.5,-162"/>
<text text-anchor="start" x="727.5" y="-150" font-family="Helvetica,sans-Serif" font-size="10.00">src/lib/patchGeneration</text>
<text text-anchor="middle" x="784.5" y="-139" font-family="Helvetica,sans-Serif" font-size="10.00">/kdTree.hpp</text>
</a>
</g>
</g>
<!-- Node1&#45;&gt;Node3 -->
<g id="edge2_Node000001_Node000003" class="edge">
<title>Node1&#45;&gt;Node3</title>
<g id="a_edge2_Node000001_Node000003"><a xlink:title=" ">
<path fill="none" stroke="#63b8ff" d="M556.06,-195.9C601.82,-186.3 669.49,-172.12 719.3,-161.67"/>
<polygon fill="#63b8ff" stroke="#63b8ff" points="555.14,-192.52 546.07,-197.99 556.57,-199.37 555.14,-192.52"/>
</a>
</g>
</g>
<!-- Node5 -->
<g id="Node000005" class="node">
<title>Node5</title>
<g id="a_Node000005"><a xlink:href="patchGeneration_8cpp.html" target="_top" xlink:title=" ">
<polygon fill="white" stroke="#666666" points="756.5,-30 626.5,-30 626.5,0 756.5,0 756.5,-30"/>
<text text-anchor="start" x="634.5" y="-18" font-family="Helvetica,sans-Serif" font-size="10.00">src/lib/patchGeneration</text>
<text text-anchor="middle" x="691.5" y="-7" font-family="Helvetica,sans-Serif" font-size="10.00">/patchGeneration.cpp</text>
</a>
</g>
</g>
<!-- Node1&#45;&gt;Node5 -->
<g id="edge10_Node000001_Node000005" class="edge">
<title>Node1&#45;&gt;Node5</title>
<g id="a_edge10_Node000001_Node000005"><a xlink:title=" ">
<path fill="none" stroke="#63b8ff" d="M573.16,-196.29C613.4,-188.78 659.14,-177.23 672.5,-162 705.53,-124.33 699.12,-58.76 694.3,-30.09"/>
<polygon fill="#63b8ff" stroke="#63b8ff" points="572.29,-192.89 563.07,-198.11 573.53,-199.78 572.29,-192.89"/>
</a>
</g>
</g>
<!-- Node8 -->
<g id="Node000008" class="node">
<title>Node8</title>
<g id="a_Node000008"><a xlink:href="normalComputation_8cpp.html" target="_top" xlink:title=" ">
<polygon fill="white" stroke="#666666" points="137,-96 0,-96 0,-66 137,-66 137,-96"/>
<text text-anchor="start" x="8" y="-84" font-family="Helvetica,sans-Serif" font-size="10.00">src/lib/patchGeneration</text>
<text text-anchor="middle" x="68.5" y="-73" font-family="Helvetica,sans-Serif" font-size="10.00">/normalComputation.cpp</text>
</a>
</g>
</g>
<!-- Node1&#45;&gt;Node8 -->
<g id="edge8_Node000001_Node000008" class="edge">
<title>Node1&#45;&gt;Node8</title>
<g id="a_edge8_Node000001_Node000008"><a xlink:title=" ">
<path fill="none" stroke="#63b8ff" d="M437.98,-203.82C384.77,-199.61 309.76,-188.93 249.5,-162 229.85,-153.22 230.36,-142.36 211.5,-132 183.38,-116.55 149.58,-104.47 121.91,-96.06"/>
<polygon fill="#63b8ff" stroke="#63b8ff" points="437.75,-207.31 447.98,-204.56 438.27,-200.33 437.75,-207.31"/>
</a>
</g>
</g>
<!-- Node9 -->
<g id="Node000009" class="node">
<title>Node9</title>
<g id="a_Node000009"><a xlink:href="normalOrientation_8cpp.html" target="_top" xlink:title=" ">
<polygon fill="white" stroke="#666666" points="285.5,-96 155.5,-96 155.5,-66 285.5,-66 285.5,-96"/>
<text text-anchor="start" x="163.5" y="-84" font-family="Helvetica,sans-Serif" font-size="10.00">src/lib/patchGeneration</text>
<text text-anchor="middle" x="220.5" y="-73" font-family="Helvetica,sans-Serif" font-size="10.00">/normalOrientation.cpp</text>
</a>
</g>
</g>
<!-- Node1&#45;&gt;Node9 -->
<g id="edge9_Node000001_Node000009" class="edge">
<title>Node1&#45;&gt;Node9</title>
<g id="a_edge9_Node000001_Node000009"><a xlink:title=" ">
<path fill="none" stroke="#63b8ff" d="M437.95,-204C392.91,-199.71 333.89,-188.85 288.5,-162 261.05,-145.76 239.35,-114.34 228.37,-96.08"/>
<polygon fill="#63b8ff" stroke="#63b8ff" points="437.65,-207.48 447.91,-204.86 438.25,-200.51 437.65,-207.48"/>
</a>
</g>
</g>
<!-- Node10 -->
<g id="Node000010" class="node">
<title>Node10</title>
<g id="a_Node000010"><a xlink:href="patchSegmentation_8cpp.html" target="_top" xlink:title=" ">
<polygon fill="white" stroke="#666666" points="477,-96 342,-96 342,-66 477,-66 477,-96"/>
<text text-anchor="start" x="350" y="-84" font-family="Helvetica,sans-Serif" font-size="10.00">src/lib/patchGeneration</text>
<text text-anchor="middle" x="409.5" y="-73" font-family="Helvetica,sans-Serif" font-size="10.00">/patchSegmentation.cpp</text>
</a>
</g>
</g>
<!-- Node1&#45;&gt;Node10 -->
<g id="edge11_Node000001_Node000010" class="edge">
<title>Node1&#45;&gt;Node10</title>
<g id="a_edge11_Node000001_Node000010"><a xlink:title=" ">
<path fill="none" stroke="#63b8ff" d="M492.5,-189.41C480.98,-174.29 463.67,-151.64 448.5,-132 439.21,-119.98 428.6,-106.39 420.8,-96.41"/>
<polygon fill="#63b8ff" stroke="#63b8ff" points="490.01,-191.93 498.86,-197.76 495.58,-187.69 490.01,-191.93"/>
</a>
</g>
</g>
<!-- Node11 -->
<g id="Node000011" class="node">
<title>Node11</title>
<g id="a_Node000011"><a xlink:href="ppiSegmenter_8cpp.html" target="_top" xlink:title=" ">
<polygon fill="white" stroke="#666666" points="625.5,-96 495.5,-96 495.5,-66 625.5,-66 625.5,-96"/>
<text text-anchor="start" x="503.5" y="-84" font-family="Helvetica,sans-Serif" font-size="10.00">src/lib/patchGeneration</text>
<text text-anchor="middle" x="560.5" y="-73" font-family="Helvetica,sans-Serif" font-size="10.00">/ppiSegmenter.cpp</text>
</a>
</g>
</g>
<!-- Node1&#45;&gt;Node11 -->
<g id="edge12_Node000001_Node000011" class="edge">
<title>Node1&#45;&gt;Node11</title>
<g id="a_edge12_Node000001_Node000011"><a xlink:title=" ">
<path fill="none" stroke="#63b8ff" d="M508.24,-187.99C510.98,-172.5 516.05,-150.1 524.5,-132 530.56,-119.01 540.14,-105.92 547.9,-96.39"/>
<polygon fill="#63b8ff" stroke="#63b8ff" points="504.78,-187.45 506.63,-197.88 511.69,-188.57 504.78,-187.45"/>
</a>
</g>
</g>
<!-- Node12 -->
<g id="Node000012" class="node">
<title>Node12</title>
<g id="a_Node000012"><a xlink:href="ppiSegmenter_8hpp.html" target="_top" xlink:title=" ">
<polygon fill="white" stroke="#666666" points="663.5,-162 533.5,-162 533.5,-132 663.5,-132 663.5,-162"/>
<text text-anchor="start" x="541.5" y="-150" font-family="Helvetica,sans-Serif" font-size="10.00">src/lib/patchGeneration</text>
<text text-anchor="middle" x="598.5" y="-139" font-family="Helvetica,sans-Serif" font-size="10.00">/ppiSegmenter.hpp</text>
</a>
</g>
</g>
<!-- Node1&#45;&gt;Node12 -->
<g id="edge13_Node000001_Node000012" class="edge">
<title>Node1&#45;&gt;Node12</title>
<g id="a_edge13_Node000001_Node000012"><a xlink:title=" ">
<path fill="none" stroke="#63b8ff" d="M528.09,-192.29C542.65,-183.13 561.52,-171.26 576.06,-162.11"/>
<polygon fill="#63b8ff" stroke="#63b8ff" points="525.82,-189.58 519.22,-197.87 529.55,-195.51 525.82,-189.58"/>
</a>
</g>
</g>
<!-- Node13 -->
<g id="Node000013" class="node">
<title>Node13</title>
<g id="a_Node000013"><a xlink:href="utilsPatchGeneration_8hpp.html" target="_top" xlink:title=" ">
<polygon fill="white" stroke="#666666" points="439.5,-162 297.5,-162 297.5,-132 439.5,-132 439.5,-162"/>
<text text-anchor="start" x="305.5" y="-150" font-family="Helvetica,sans-Serif" font-size="10.00">src/lib/patchGeneration</text>
<text text-anchor="middle" x="368.5" y="-139" font-family="Helvetica,sans-Serif" font-size="10.00">/utilsPatchGeneration.hpp</text>
</a>
</g>
</g>
<!-- Node1&#45;&gt;Node13 -->
<g id="edge16_Node000001_Node000013" class="edge">
<title>Node1&#45;&gt;Node13</title>
<g id="a_edge16_Node000001_Node000013"><a xlink:title=" ">
<path fill="none" stroke="#63b8ff" d="M476.12,-193.95C454.18,-184.59 424.19,-171.78 401.44,-162.06"/>
<polygon fill="#63b8ff" stroke="#63b8ff" points="475.01,-197.29 485.58,-197.99 477.76,-190.85 475.01,-197.29"/>
</a>
</g>
</g>
<!-- Node14 -->
<g id="Node000014" class="node">
<title>Node14</title>
<g id="a_Node000014"><a xlink:href="patchPacking_8cpp.html" target="_top" xlink:title=" ">
<polygon fill="white" stroke="#666666" points="981,-162 868,-162 868,-132 981,-132 981,-162"/>
<text text-anchor="start" x="876" y="-150" font-family="Helvetica,sans-Serif" font-size="10.00">src/lib/patchPacking</text>
<text text-anchor="middle" x="924.5" y="-139" font-family="Helvetica,sans-Serif" font-size="10.00">/patchPacking.cpp</text>
</a>
</g>
</g>
<!-- Node1&#45;&gt;Node14 -->
<g id="edge22_Node000001_Node000014" class="edge">
<title>Node1&#45;&gt;Node14</title>
<g id="a_edge22_Node000001_Node000014"><a xlink:title=" ">
<path fill="none" stroke="#63b8ff" d="M573.38,-199.65C644.63,-192.06 759.81,-178.66 858.5,-162 861.5,-161.49 864.58,-160.94 867.68,-160.37"/>
<polygon fill="#63b8ff" stroke="#63b8ff" points="572.77,-196.19 563.19,-200.73 573.5,-203.15 572.77,-196.19"/>
</a>
</g>
</g>
<!-- Node15 -->
<g id="Node000015" class="node">
<title>Node15</title>
<g id="a_Node000015"><a xlink:href="parameters_8hpp.html" target="_top" xlink:title=" ">
<polygon fill="white" stroke="#666666" points="1229.5,-156.5 1079.5,-156.5 1079.5,-137.5 1229.5,-137.5 1229.5,-156.5"/>
<text text-anchor="middle" x="1154.5" y="-144.5" font-family="Helvetica,sans-Serif" font-size="10.00">src/lib/utils/parameters.hpp</text>
</a>
</g>
</g>
<!-- Node1&#45;&gt;Node15 -->
<g id="edge23_Node000001_Node000015" class="edge">
<title>Node1&#45;&gt;Node15</title>
<g id="a_edge23_Node000001_Node000015"><a xlink:title=" ">
<path fill="none" stroke="#63b8ff" d="M573.07,-200.41C695.2,-189.4 951.82,-166.27 1079.31,-154.78"/>
<polygon fill="#63b8ff" stroke="#63b8ff" points="572.74,-196.92 563.09,-201.31 573.37,-203.9 572.74,-196.92"/>
</a>
</g>
</g>
<!-- Node4 -->
<g id="Node000004" class="node">
<title>Node4</title>
<g id="a_Node000004"><a xlink:href="kdTree_8cpp.html" target="_top" xlink:title=" ">
<polygon fill="white" stroke="#666666" points="1035.5,-96 905.5,-96 905.5,-66 1035.5,-66 1035.5,-96"/>
<text text-anchor="start" x="913.5" y="-84" font-family="Helvetica,sans-Serif" font-size="10.00">src/lib/patchGeneration</text>
<text text-anchor="middle" x="970.5" y="-73" font-family="Helvetica,sans-Serif" font-size="10.00">/kdTree.cpp</text>
</a>
</g>
</g>
<!-- Node3&#45;&gt;Node4 -->
<g id="edge3_Node000003_Node000004" class="edge">
<title>Node3&#45;&gt;Node4</title>
<g id="a_edge3_Node000003_Node000004"><a xlink:title=" ">
<path fill="none" stroke="#63b8ff" d="M835.1,-128.59C864.84,-118.36 901.94,-105.59 929.78,-96.01"/>
<polygon fill="#63b8ff" stroke="#63b8ff" points="833.64,-125.39 825.32,-131.95 835.91,-132.01 833.64,-125.39"/>
</a>
</g>
</g>
<!-- Node3&#45;&gt;Node5 -->
<g id="edge4_Node000003_Node000005" class="edge">
<title>Node3&#45;&gt;Node5</title>
<g id="a_edge4_Node000003_Node000005"><a xlink:title=" ">
<path fill="none" stroke="#63b8ff" d="M768.06,-123.22C761.92,-114.69 754.88,-104.91 748.5,-96 732.02,-72.99 712.94,-46.18 701.57,-30.18"/>
<polygon fill="#63b8ff" stroke="#63b8ff" points="765.4,-125.51 774.08,-131.57 771.08,-121.41 765.4,-125.51"/>
</a>
</g>
</g>
<!-- Node6 -->
<g id="Node000006" class="node">
<title>Node6</title>
<g id="a_Node000006"><a xlink:href="patchGeneration_8hpp.html" target="_top" xlink:title=" ">
<polygon fill="white" stroke="#666666" points="887.5,-96 757.5,-96 757.5,-66 887.5,-66 887.5,-96"/>
<text text-anchor="start" x="765.5" y="-84" font-family="Helvetica,sans-Serif" font-size="10.00">src/lib/patchGeneration</text>
<text text-anchor="middle" x="822.5" y="-73" font-family="Helvetica,sans-Serif" font-size="10.00">/patchGeneration.hpp</text>
</a>
</g>
</g>
<!-- Node3&#45;&gt;Node6 -->
<g id="edge5_Node000003_Node000006" class="edge">
<title>Node3&#45;&gt;Node6</title>
<g id="a_edge5_Node000003_Node000006"><a xlink:title=" ">
<path fill="none" stroke="#63b8ff" d="M798.18,-122.96C803.5,-114 809.42,-104.03 814.09,-96.16"/>
<polygon fill="#63b8ff" stroke="#63b8ff" points="795.03,-121.41 792.93,-131.8 801.05,-124.98 795.03,-121.41"/>
</a>
</g>
</g>
<!-- Node6&#45;&gt;Node5 -->
<g id="edge6_Node000006_Node000005" class="edge">
<title>Node6&#45;&gt;Node5</title>
<g id="a_edge6_Node000006_Node000005"><a xlink:title=" ">
<path fill="none" stroke="#63b8ff" d="M784.66,-61.51C764.11,-51.47 739.11,-39.26 720.18,-30.01"/>
<polygon fill="#63b8ff" stroke="#63b8ff" points="783.23,-64.71 793.75,-65.95 786.3,-58.42 783.23,-64.71"/>
</a>
</g>
</g>
<!-- Node7 -->
<g id="Node000007" class="node">
<title>Node7</title>
<g id="a_Node000007"><a xlink:href="uvgvpcc_8cpp.html" target="_top" xlink:title=" ">
<polygon fill="white" stroke="#666666" points="1118.5,-24.5 1008.5,-24.5 1008.5,-5.5 1118.5,-5.5 1118.5,-24.5"/>
<text text-anchor="middle" x="1063.5" y="-12.5" font-family="Helvetica,sans-Serif" font-size="10.00">src/lib/uvgvpcc.cpp</text>
</a>
</g>
</g>
<!-- Node6&#45;&gt;Node7 -->
<g id="edge7_Node000006_Node000007" class="edge">
<title>Node6&#45;&gt;Node7</title>
<g id="a_edge7_Node000006_Node000007"><a xlink:title=" ">
<path fill="none" stroke="#63b8ff" d="M885.15,-63.36C932.03,-50.91 994.23,-34.4 1031.43,-24.52"/>
<polygon fill="#63b8ff" stroke="#63b8ff" points="884.16,-60.01 875.39,-65.95 885.95,-66.77 884.16,-60.01"/>
</a>
</g>
</g>
<!-- Node12&#45;&gt;Node5 -->
<g id="edge14_Node000012_Node000005" class="edge">
<title>Node12&#45;&gt;Node5</title>
<g id="a_edge14_Node000012_Node000005"><a xlink:title=" ">
<path fill="none" stroke="#63b8ff" d="M614.94,-123.22C621.08,-114.69 628.12,-104.91 634.5,-96 650.98,-72.99 670.06,-46.18 681.43,-30.18"/>
<polygon fill="#63b8ff" stroke="#63b8ff" points="611.92,-121.41 608.92,-131.57 617.6,-125.51 611.92,-121.41"/>
</a>
</g>
</g>
<!-- Node12&#45;&gt;Node11 -->
<g id="edge15_Node000012_Node000011" class="edge">
<title>Node12&#45;&gt;Node11</title>
<g id="a_edge15_Node000012_Node000011"><a xlink:title=" ">
<path fill="none" stroke="#63b8ff" d="M584.82,-122.96C579.5,-114 573.58,-104.03 568.91,-96.16"/>
<polygon fill="#63b8ff" stroke="#63b8ff" points="581.95,-124.98 590.07,-131.8 587.97,-121.41 581.95,-124.98"/>
</a>
</g>
</g>
<!-- Node13&#45;&gt;Node5 -->
<g id="edge19_Node000013_Node000005" class="edge">
<title>Node13&#45;&gt;Node5</title>
<g id="a_edge19_Node000013_Node000005"><a xlink:title=" ">
<path fill="none" stroke="#63b8ff" d="M346.9,-123.97C332.58,-106.68 318.88,-82.81 333.5,-66 370.68,-23.27 533.4,-15.94 626.15,-15.33"/>
<polygon fill="#63b8ff" stroke="#63b8ff" points="344.62,-126.68 353.86,-131.87 349.87,-122.05 344.62,-126.68"/>
</a>
</g>
</g>
<!-- Node13&#45;&gt;Node8 -->
<g id="edge17_Node000013_Node000008" class="edge">
<title>Node13&#45;&gt;Node8</title>
<g id="a_edge17_Node000013_Node000008"><a xlink:title=" ">
<path fill="none" stroke="#63b8ff" d="M292.77,-129.84C243.89,-119.42 180.94,-105.99 134.18,-96.01"/>
<polygon fill="#63b8ff" stroke="#63b8ff" points="292.15,-133.29 302.66,-131.95 293.61,-126.45 292.15,-133.29"/>
</a>
</g>
</g>
<!-- Node13&#45;&gt;Node9 -->
<g id="edge18_Node000013_Node000009" class="edge">
<title>Node13&#45;&gt;Node9</title>
<g id="a_edge18_Node000013_Node000009"><a xlink:title=" ">
<path fill="none" stroke="#63b8ff" d="M326.69,-127.92C303.3,-117.8 274.58,-105.38 252.9,-96.01"/>
<polygon fill="#63b8ff" stroke="#63b8ff" points="325.45,-131.2 336.02,-131.95 328.23,-124.77 325.45,-131.2"/>
</a>
</g>
</g>
<!-- Node13&#45;&gt;Node10 -->
<g id="edge20_Node000013_Node000010" class="edge">
<title>Node13&#45;&gt;Node10</title>
<g id="a_edge20_Node000013_Node000010"><a xlink:title=" ">
<path fill="none" stroke="#63b8ff" d="M383.08,-123.24C388.86,-114.21 395.34,-104.11 400.43,-96.16"/>
<polygon fill="#63b8ff" stroke="#63b8ff" points="380.05,-121.49 377.6,-131.8 385.94,-125.26 380.05,-121.49"/>
</a>
</g>
</g>
<!-- Node13&#45;&gt;Node11 -->
<g id="edge21_Node000013_Node000011" class="edge">
<title>Node13&#45;&gt;Node11</title>
<g id="a_edge21_Node000013_Node000011"><a xlink:title=" ">
<path fill="none" stroke="#63b8ff" d="M420.33,-128.72C451.09,-118.47 489.6,-105.63 518.46,-96.01"/>
<polygon fill="#63b8ff" stroke="#63b8ff" points="419.02,-125.47 410.64,-131.95 421.23,-132.11 419.02,-125.47"/>
</a>
</g>
</g>
<!-- Node15&#45;&gt;Node7 -->
<g id="edge29_Node000015_Node000007" class="edge">
<title>Node15&#45;&gt;Node7</title>
<g id="a_edge29_Node000015_Node000007"><a xlink:title=" ">
<path fill="none" stroke="#63b8ff" d="M1126.73,-132.68C1111.8,-124.16 1094.3,-111.75 1083.5,-96 1068.12,-73.57 1064.55,-40.37 1063.74,-24.74"/>
<polygon fill="#63b8ff" stroke="#63b8ff" points="1125.14,-135.8 1135.6,-137.47 1128.47,-129.64 1125.14,-135.8"/>
</a>
</g>
</g>
<!-- Node16 -->
<g id="Node000016" class="node">
<title>Node16</title>
<g id="a_Node000016"><a xlink:href="parameters_8cpp.html" target="_top" xlink:title=" ">
<polygon fill="white" stroke="#666666" points="1422,-90.5 1273,-90.5 1273,-71.5 1422,-71.5 1422,-90.5"/>
<text text-anchor="middle" x="1347.5" y="-78.5" font-family="Helvetica,sans-Serif" font-size="10.00">src/lib/utils/parameters.cpp</text>
</a>
</g>
</g>
<!-- Node15&#45;&gt;Node16 -->
<g id="edge24_Node000015_Node000016" class="edge">
<title>Node15&#45;&gt;Node16</title>
<g id="a_edge24_Node000015_Node000016"><a xlink:title=" ">
<path fill="none" stroke="#63b8ff" d="M1190.2,-134.16C1228.29,-121.53 1287.72,-101.82 1321.58,-90.6"/>
<polygon fill="#63b8ff" stroke="#63b8ff" points="1188.92,-130.9 1180.53,-137.37 1191.12,-137.54 1188.92,-130.9"/>
</a>
</g>
</g>
<!-- Node17 -->
<g id="Node000017" class="node">
<title>Node17</title>
<g id="a_Node000017"><a xlink:href="preset_8cpp.html" target="_top" xlink:title=" ">
<polygon fill="white" stroke="#666666" points="1283.5,-24.5 1159.5,-24.5 1159.5,-5.5 1283.5,-5.5 1283.5,-24.5"/>
<text text-anchor="middle" x="1221.5" y="-12.5" font-family="Helvetica,sans-Serif" font-size="10.00">src/lib/utils/preset.cpp</text>
</a>
</g>
</g>
<!-- Node15&#45;&gt;Node17 -->
<g id="edge25_Node000015_Node000017" class="edge">
<title>Node15&#45;&gt;Node17</title>
<g id="a_edge25_Node000015_Node000017"><a xlink:title=" ">
<path fill="none" stroke="#63b8ff" d="M1185.75,-132.88C1200.98,-124.69 1217.86,-112.53 1226.5,-96 1238.75,-72.57 1230.06,-39.85 1224.77,-24.54"/>
<polygon fill="#63b8ff" stroke="#63b8ff" points="1183.94,-129.87 1176.56,-137.47 1187.07,-136.13 1183.94,-129.87"/>
</a>
</g>
</g>
<!-- Node18 -->
<g id="Node000018" class="node">
<title>Node18</title>
<g id="a_Node000018"><a xlink:href="preset_8hpp.html" target="_top" xlink:title=" ">
<polygon fill="white" stroke="#666666" points="1217,-90.5 1092,-90.5 1092,-71.5 1217,-71.5 1217,-90.5"/>
<text text-anchor="middle" x="1154.5" y="-78.5" font-family="Helvetica,sans-Serif" font-size="10.00">src/lib/utils/preset.hpp</text>
</a>
</g>
</g>
<!-- Node15&#45;&gt;Node18 -->
<g id="edge26_Node000015_Node000018" class="edge">
<title>Node15&#45;&gt;Node18</title>
<g id="a_edge26_Node000015_Node000018"><a xlink:title=" ">
<path fill="none" stroke="#63b8ff" d="M1154.5,-127.08C1154.5,-115.13 1154.5,-100.22 1154.5,-90.91"/>
<polygon fill="#63b8ff" stroke="#63b8ff" points="1151,-127.37 1154.5,-137.37 1158,-127.37 1151,-127.37"/>
</a>
</g>
</g>
<!-- Node18&#45;&gt;Node7 -->
<g id="edge28_Node000018_Node000007" class="edge">
<title>Node18&#45;&gt;Node7</title>
<g id="a_edge28_Node000018_Node000007"><a xlink:title=" ">
<path fill="none" stroke="#63b8ff" d="M1133.65,-65.33C1115.8,-52.78 1090.7,-35.13 1075.87,-24.7"/>
<polygon fill="#63b8ff" stroke="#63b8ff" points="1132.03,-68.48 1142.23,-71.37 1136.06,-62.75 1132.03,-68.48"/>
</a>
</g>
</g>
<!-- Node18&#45;&gt;Node17 -->
<g id="edge27_Node000018_Node000017" class="edge">
<title>Node18&#45;&gt;Node17</title>
<g id="a_edge27_Node000018_Node000017"><a xlink:title=" ">
<path fill="none" stroke="#63b8ff" d="M1170.9,-64.33C1183.88,-51.94 1201.52,-35.09 1212.18,-24.91"/>
<polygon fill="#63b8ff" stroke="#63b8ff" points="1168.35,-61.93 1163.54,-71.37 1173.18,-66.99 1168.35,-61.93"/>
</a>
</g>
</g>
</g>
</svg>

<g id="navigator" transform="translate(0 0)" fill="#404254">
  <rect fill="#f2f5e9" fill-opacity="0.5" stroke="#606060" stroke-width=".5" x="0" y="0" width="60" height="60"/>
  <use id="zoomplus" xlink:href="#zoomPlus" x="17" y="9" onmousedown="handleZoom(evt,'in')"/>
  <use id="zoomminus" xlink:href="#zoomMin" x="42" y="9" onmousedown="handleZoom(evt,'out')"/>
  <use id="reset" xlink:href="#resetDef" x="30" y="36" onmousedown="handleReset()"/>
   <use id="arrowup" xlink:href="#arrowUp" x="0" y="0" onmousedown="handlePan(0,-1)"/>
  <use id="arrowright" xlink:href="#arrowRight" x="0" y="0" onmousedown="handlePan(1,0)"/>
  <use id="arrowdown" xlink:href="#arrowDown" x="0" y="0" onmousedown="handlePan(0,1)"/>
  <use id="arrowleft" xlink:href="#arrowLeft" x="0" y="0" onmousedown="handlePan(-1,0)"/>
</g>
<svg viewBox="0 0 15 15" width="100%" height="30px" preserveAspectRatio="xMaxYMin meet">
 <g id="arrow_out" transform="scale(0.3 0.3)">
  <a xlink:href="utils_8hpp__dep__incl_org.svg" target="_base">
   <rect id="button" ry="5" rx="5" y="6" x="6" height="38" width="38"
        fill="#f2f5e9" fill-opacity="0.5" stroke="#606060" stroke-width="1.0"/>
   <path id="arrow"
     d="M 11.500037,31.436501 C 11.940474,20.09759 22.043105,11.32322 32.158766,21.979434 L 37.068811,17.246167 C 37.068811,17.246167 37.088388,32 37.088388,32 L 22.160133,31.978069 C 22.160133,31.978069 26.997745,27.140456 26.997745,27.140456 C 18.528582,18.264221 13.291696,25.230495 11.500037,31.436501 z"
     style="fill:#404040;"/>
  </a>
 </g>
</svg>

<style type='text/css'>
<![CDATA[
[data-mouse-over-selected='false'] { opacity: 0.7; }
[data-mouse-over-selected='true']  { opacity: 1.0; }
]]>
</style>
<script type="application/ecmascript"><![CDATA[
document.addEventListener('DOMContentLoaded', (event) => {
  highlightEdges();
  highlightAdjacentNodes();
});
]]></script>
</svg>
