<?xml version="1.0" encoding="UTF-8" standalone="no"?>
<!DOCTYPE svg PUBLIC "-//W3C//DTD SVG 1.1//EN"
 "http://www.w3.org/Graphics/SVG/1.1/DTD/svg11.dtd">
<!-- Generated by graphviz version 2.43.0 (0)
 -->
<!-- Title: src/lib/utils/utils.hpp Pages: 1 -->
<!--zoomable 291 -->

<svg id="main" version="1.1" xmlns="http://www.w3.org/2000/svg" xmlns:xlink="http://www.w3.org/1999/xlink" xml:space="preserve" onload="init(evt)">
<style type="text/css"><![CDATA[
.node, .edge {opacity: 0.7;}
.node.selected, .edge.selected {opacity: 1;}
.edge:hover path { stroke: red; }
.edge:hover polygon { stroke: red; fill: red; }
]]></style>

<defs>
  <circle id="rim" cx="0" cy="0" r="7"/>
  <circle id="rim2" cx="0" cy="0" r="3.5"/>
  <g id="zoomPlus">
    <use xlink:href="#rim" fill="#404040"><set attributeName="fill" to="#808080" begin="zoomplus.mouseover" end="zoomplus.mouseout"/></use>
    <path d="M-4,0h8M0,-4v8" fill="none" stroke="white" stroke-width="1.5" pointer-events="none"/>
  </g>
  <g id="zoomMin">
    <use xlink:href="#rim" fill="#404040"><set attributeName="fill" to="#808080" begin="zoomminus.mouseover" end="zoomminus.mouseout"/></use>
    <path d="M-4,0h8" fill="none" stroke="white" stroke-width="1.5" pointer-events="none"/>
  </g>
  <g id="arrowUp" transform="translate(30 24)">
    <use xlink:href="#rim"/>
    <path pointer-events="none" fill="none" stroke="white" stroke-width="1.5" d="M0,-3.0v7 M-2.5,-0.5L0,-3.0L2.5,-0.5"/>
  </g>
  <g id="arrowRight" transform="rotate(90) translate(36 -43)">
    <use xlink:href="#rim"/>
    <path pointer-events="none" fill="none" stroke="white" stroke-width="1.5" d="M0,-3.0v7 M-2.5,-0.5L0,-3.0L2.5,-0.5"/>
  </g>
  <g id="arrowDown" transform="rotate(180) translate(-30 -48)">
    <use xlink:href="#rim"/>
    <path pointer-events="none" fill="none" stroke="white" stroke-width="1.5" d="M0,-3.0v7 M-2.5,-0.5L0,-3.0L2.5,-0.5"/>
  </g>
  <g id="arrowLeft" transform="rotate(270) translate(-36 17)">
    <use xlink:href="#rim"/>
    <path pointer-events="none" fill="none" stroke="white" stroke-width="1.5" d="M0,-3.0v7 M-2.5,-0.5L0,-3.0L2.5,-0.5"/>
  </g>
  <g id="resetDef">
    <use xlink:href="#rim2" fill="#404040"><set attributeName="fill" to="#808080" begin="reset.mouseover" end="reset.mouseout"/></use>
  </g>
</defs>
<script type="application/ecmascript">
var viewWidth = 2840;
var viewHeight = 291;
var sectionId = 'dynsection-1';
</script>
<script type="application/ecmascript" xlink:href="svg.min.js"/>
<svg id="graph" class="graph">
<g id="viewport">
<title>src/lib/utils/utils.hpp</title>
<!-- Node1 -->
<g id="Node000001" class="node">
<title>Node1</title>
<g id="a_Node000001"><a xlink:title=" ">
<polygon fill="#999999" stroke="#666666" points="779.5,-283 664.5,-283 664.5,-264 779.5,-264 779.5,-283"/>
<text text-anchor="middle" x="722" y="-271" font-family="Helvetica,sans-Serif" font-size="10.00">src/lib/utils/utils.hpp</text>
</a>
</g>
</g>
<!-- Node2 -->
<g id="Node000002" class="node">
<title>Node2</title>
<g id="a_Node000002"><a xlink:href="mapGeneration_8cpp.html" target="_top" xlink:title=" ">
<polygon fill="white" stroke="#666666" points="947.5,-162 822.5,-162 822.5,-132 947.5,-132 947.5,-162"/>
<text text-anchor="start" x="830.5" y="-150" font-family="Helvetica,sans-Serif" font-size="10.00">src/lib/mapGeneration</text>
<text text-anchor="middle" x="885" y="-139" font-family="Helvetica,sans-Serif" font-size="10.00">/mapGeneration.cpp</text>
</a>
</g>
</g>
<!-- Node1&#45;&gt;Node2 -->
<g id="edge1_Node000001_Node000002" class="edge">
<title>Node1&#45;&gt;Node2</title>
<g id="a_edge1_Node000001_Node000002"><a xlink:title=" ">
<path fill="none" stroke="#63b8ff" d="M735.24,-255.84C748.62,-239.71 770.5,-215.23 793,-198 811.62,-183.74 834.83,-171.16 853.28,-162.18"/>
<polygon fill="#63b8ff" stroke="#63b8ff" points="732.32,-253.88 728.72,-263.85 737.75,-258.3 732.32,-253.88"/>
</a>
</g>
</g>
<!-- Node3 -->
<g id="Node000003" class="node">
<title>Node3</title>
<g id="a_Node000003"><a xlink:href="kdTree_8hpp.html" target="_top" xlink:title=" ">
<polygon fill="white" stroke="#666666" points="272,-228 142,-228 142,-198 272,-198 272,-228"/>
<text text-anchor="start" x="150" y="-216" font-family="Helvetica,sans-Serif" font-size="10.00">src/lib/patchGeneration</text>
<text text-anchor="middle" x="207" y="-205" font-family="Helvetica,sans-Serif" font-size="10.00">/kdTree.hpp</text>
</a>
</g>
</g>
<!-- Node1&#45;&gt;Node3 -->
<g id="edge2_Node000001_Node000003" class="edge">
<title>Node1&#45;&gt;Node3</title>
<g id="a_edge2_Node000001_Node000003"><a xlink:title=" ">
<path fill="none" stroke="#63b8ff" d="M654.22,-267.14C568.32,-259.99 415.8,-246.1 286,-228 281.45,-227.37 276.76,-226.66 272.04,-225.92"/>
<polygon fill="#63b8ff" stroke="#63b8ff" points="654.1,-270.64 664.36,-267.98 654.68,-263.67 654.1,-270.64"/>
</a>
</g>
</g>
<!-- Node5 -->
<g id="Node000005" class="node">
<title>Node5</title>
<g id="a_Node000005"><a xlink:href="patchGeneration_8cpp.html" target="_top" xlink:title=" ">
<polygon fill="white" stroke="#666666" points="278,-162 148,-162 148,-132 278,-132 278,-162"/>
<text text-anchor="start" x="156" y="-150" font-family="Helvetica,sans-Serif" font-size="10.00">src/lib/patchGeneration</text>
<text text-anchor="middle" x="213" y="-139" font-family="Helvetica,sans-Serif" font-size="10.00">/patchGeneration.cpp</text>
</a>
</g>
</g>
<!-- Node1&#45;&gt;Node5 -->
<g id="edge7_Node000001_Node000005" class="edge">
<title>Node1&#45;&gt;Node5</title>
<g id="a_edge7_Node000001_Node000005"><a xlink:title=" ">
<path fill="none" stroke="#63b8ff" d="M654.22,-269.53C555.64,-264.45 378.05,-252.21 319,-228 299.09,-219.84 298.11,-211.04 281,-198 264.8,-185.65 246.14,-171.97 232.48,-162.05"/>
<polygon fill="#63b8ff" stroke="#63b8ff" points="654.21,-273.03 664.38,-270.04 654.57,-266.04 654.21,-273.03"/>
</a>
</g>
</g>
<!-- Node6 -->
<g id="Node000006" class="node">
<title>Node6</title>
<g id="a_Node000006"><a xlink:href="normalComputation_8cpp.html" target="_top" xlink:title=" ">
<polygon fill="white" stroke="#666666" points="1102.5,-162 965.5,-162 965.5,-132 1102.5,-132 1102.5,-162"/>
<text text-anchor="start" x="973.5" y="-150" font-family="Helvetica,sans-Serif" font-size="10.00">src/lib/patchGeneration</text>
<text text-anchor="middle" x="1034" y="-139" font-family="Helvetica,sans-Serif" font-size="10.00">/normalComputation.cpp</text>
</a>
</g>
</g>
<!-- Node1&#45;&gt;Node6 -->
<g id="edge5_Node000001_Node000006" class="edge">
<title>Node1&#45;&gt;Node6</title>
<g id="a_edge5_Node000001_Node000006"><a xlink:title=" ">
<path fill="none" stroke="#63b8ff" d="M789.72,-269.46C837.15,-264.97 900.78,-254.11 951,-228 982.07,-211.84 1009.45,-180.39 1023.66,-162.11"/>
<polygon fill="#63b8ff" stroke="#63b8ff" points="789.21,-265.99 779.55,-270.34 789.81,-272.96 789.21,-265.99"/>
</a>
</g>
</g>
<!-- Node7 -->
<g id="Node000007" class="node">
<title>Node7</title>
<g id="a_Node000007"><a xlink:href="normalOrientation_8cpp.html" target="_top" xlink:title=" ">
<polygon fill="white" stroke="#666666" points="612,-162 482,-162 482,-132 612,-132 612,-162"/>
<text text-anchor="start" x="490" y="-150" font-family="Helvetica,sans-Serif" font-size="10.00">src/lib/patchGeneration</text>
<text text-anchor="middle" x="547" y="-139" font-family="Helvetica,sans-Serif" font-size="10.00">/normalOrientation.cpp</text>
</a>
</g>
</g>
<!-- Node1&#45;&gt;Node7 -->
<g id="edge6_Node000001_Node000007" class="edge">
<title>Node1&#45;&gt;Node7</title>
<g id="a_edge6_Node000001_Node000007"><a xlink:title=" ">
<path fill="none" stroke="#63b8ff" d="M710.85,-254.88C699.66,-238.38 681.11,-213.93 660,-198 639.28,-182.36 612.91,-170.33 590.85,-162"/>
<polygon fill="#63b8ff" stroke="#63b8ff" points="708.13,-257.12 716.54,-263.56 713.98,-253.28 708.13,-257.12"/>
</a>
</g>
</g>
<!-- Node8 -->
<g id="Node000008" class="node">
<title>Node8</title>
<g id="a_Node000008"><a xlink:href="patchSegmentation_8cpp.html" target="_top" xlink:title=" ">
<polygon fill="white" stroke="#666666" points="765.5,-162 630.5,-162 630.5,-132 765.5,-132 765.5,-162"/>
<text text-anchor="start" x="638.5" y="-150" font-family="Helvetica,sans-Serif" font-size="10.00">src/lib/patchGeneration</text>
<text text-anchor="middle" x="698" y="-139" font-family="Helvetica,sans-Serif" font-size="10.00">/patchSegmentation.cpp</text>
</a>
</g>
</g>
<!-- Node1&#45;&gt;Node8 -->
<g id="edge8_Node000001_Node000008" class="edge">
<title>Node1&#45;&gt;Node8</title>
<g id="a_edge8_Node000001_Node000008"><a xlink:title=" ">
<path fill="none" stroke="#63b8ff" d="M718.42,-253.91C713.58,-228.83 705.08,-184.72 700.73,-162.16"/>
<polygon fill="#63b8ff" stroke="#63b8ff" points="715.02,-254.79 720.35,-263.94 721.89,-253.46 715.02,-254.79"/>
</a>
</g>
</g>
<!-- Node9 -->
<g id="Node000009" class="node">
<title>Node9</title>
<g id="a_Node000009"><a xlink:href="ppiSegmenter_8cpp.html" target="_top" xlink:title=" ">
<polygon fill="white" stroke="#666666" points="464,-162 334,-162 334,-132 464,-132 464,-162"/>
<text text-anchor="start" x="342" y="-150" font-family="Helvetica,sans-Serif" font-size="10.00">src/lib/patchGeneration</text>
<text text-anchor="middle" x="399" y="-139" font-family="Helvetica,sans-Serif" font-size="10.00">/ppiSegmenter.cpp</text>
</a>
</g>
</g>
<!-- Node1&#45;&gt;Node9 -->
<g id="edge9_Node000001_Node000009" class="edge">
<title>Node1&#45;&gt;Node9</title>
<g id="a_edge9_Node000001_Node000009"><a xlink:title=" ">
<path fill="none" stroke="#63b8ff" d="M700.29,-257.83C688.18,-249.43 672.97,-238.49 660,-228 644.59,-215.53 644.61,-207.1 627,-198 612.53,-190.53 526.33,-172.72 464.19,-160.51"/>
<polygon fill="#63b8ff" stroke="#63b8ff" points="698.63,-260.94 708.85,-263.72 702.59,-255.17 698.63,-260.94"/>
</a>
</g>
</g>
<!-- Node10 -->
<g id="Node000010" class="node">
<title>Node10</title>
<g id="a_Node000010"><a xlink:href="ppiSegmenter_8hpp.html" target="_top" xlink:title=" ">
<polygon fill="white" stroke="#666666" points="458,-228 328,-228 328,-198 458,-198 458,-228"/>
<text text-anchor="start" x="336" y="-216" font-family="Helvetica,sans-Serif" font-size="10.00">src/lib/patchGeneration</text>
<text text-anchor="middle" x="393" y="-205" font-family="Helvetica,sans-Serif" font-size="10.00">/ppiSegmenter.hpp</text>
</a>
</g>
</g>
<!-- Node1&#45;&gt;Node10 -->
<g id="edge10_Node000001_Node000010" class="edge">
<title>Node1&#45;&gt;Node10</title>
<g id="a_edge10_Node000001_Node000010"><a xlink:title=" ">
<path fill="none" stroke="#63b8ff" d="M661.64,-262.22C609.95,-253.35 533.53,-240.1 467,-228 464.17,-227.49 461.28,-226.96 458.36,-226.42"/>
<polygon fill="#63b8ff" stroke="#63b8ff" points="661.2,-265.69 671.64,-263.93 662.38,-258.79 661.2,-265.69"/>
</a>
</g>
</g>
<!-- Node11 -->
<g id="Node000011" class="node">
<title>Node11</title>
<g id="a_Node000011"><a xlink:href="utilsPatchGeneration_8hpp.html" target="_top" xlink:title=" ">
<polygon fill="white" stroke="#666666" points="618,-228 476,-228 476,-198 618,-198 618,-228"/>
<text text-anchor="start" x="484" y="-216" font-family="Helvetica,sans-Serif" font-size="10.00">src/lib/patchGeneration</text>
<text text-anchor="middle" x="547" y="-205" font-family="Helvetica,sans-Serif" font-size="10.00">/utilsPatchGeneration.hpp</text>
</a>
</g>
</g>
<!-- Node1&#45;&gt;Node11 -->
<g id="edge13_Node000001_Node000011" class="edge">
<title>Node1&#45;&gt;Node11</title>
<g id="a_edge13_Node000001_Node000011"><a xlink:title=" ">
<path fill="none" stroke="#63b8ff" d="M686.72,-260.71C658.52,-251.28 618.92,-238.04 589.07,-228.06"/>
<polygon fill="#63b8ff" stroke="#63b8ff" points="685.96,-264.14 696.55,-263.99 688.18,-257.5 685.96,-264.14"/>
</a>
</g>
</g>
<!-- Node13 -->
<g id="Node000013" class="node">
<title>Node13</title>
<g id="a_Node000013"><a xlink:href="patchPacking_8cpp.html" target="_top" xlink:title=" ">
<polygon fill="white" stroke="#666666" points="2795.5,-162 2682.5,-162 2682.5,-132 2795.5,-132 2795.5,-162"/>
<text text-anchor="start" x="2690.5" y="-150" font-family="Helvetica,sans-Serif" font-size="10.00">src/lib/patchPacking</text>
<text text-anchor="middle" x="2739" y="-139" font-family="Helvetica,sans-Serif" font-size="10.00">/patchPacking.cpp</text>
</a>
</g>
</g>
<!-- Node1&#45;&gt;Node13 -->
<g id="edge19_Node000001_Node000013" class="edge">
<title>Node1&#45;&gt;Node13</title>
<g id="a_edge19_Node000001_Node000013"><a xlink:title=" ">
<path fill="none" stroke="#63b8ff" d="M789.63,-272.27C1039.88,-270.65 1936.66,-258.05 2668,-162 2672.61,-161.39 2677.37,-160.67 2682.14,-159.88"/>
<polygon fill="#63b8ff" stroke="#63b8ff" points="789.58,-268.77 779.6,-272.33 789.62,-275.77 789.58,-268.77"/>
</a>
</g>
</g>
<!-- Node14 -->
<g id="Node000014" class="node">
<title>Node14</title>
<g id="a_Node000014"><a xlink:href="fileExport_8cpp.html" target="_top" xlink:title=" ">
<polygon fill="white" stroke="#666666" points="1397,-156.5 1257,-156.5 1257,-137.5 1397,-137.5 1397,-156.5"/>
<text text-anchor="middle" x="1327" y="-144.5" font-family="Helvetica,sans-Serif" font-size="10.00">src/lib/utils/fileExport.cpp</text>
</a>
</g>
</g>
<!-- Node1&#45;&gt;Node14 -->
<g id="edge20_Node000001_Node000014" class="edge">
<title>Node1&#45;&gt;Node14</title>
<g id="a_edge20_Node000001_Node000014"><a xlink:title=" ">
<path fill="none" stroke="#63b8ff" d="M788.88,-262.43C842.38,-254.08 919.22,-241.45 986,-228 1099.56,-205.13 1232.94,-172 1293.76,-156.54"/>
<polygon fill="#63b8ff" stroke="#63b8ff" points="788.18,-258.99 778.84,-263.99 789.26,-265.91 788.18,-258.99"/>
</a>
</g>
</g>
<!-- Node15 -->
<g id="Node000015" class="node">
<title>Node15</title>
<g id="a_Node000015"><a xlink:href="fileExport_8hpp.html" target="_top" xlink:title=" ">
<polygon fill="white" stroke="#666666" points="942,-222.5 802,-222.5 802,-203.5 942,-203.5 942,-222.5"/>
<text text-anchor="middle" x="872" y="-210.5" font-family="Helvetica,sans-Serif" font-size="10.00">src/lib/utils/fileExport.hpp</text>
</a>
</g>
</g>
<!-- Node1&#45;&gt;Node15 -->
<g id="edge21_Node000001_Node000015" class="edge">
<title>Node1&#45;&gt;Node15</title>
<g id="a_edge21_Node000001_Node000015"><a xlink:title=" ">
<path fill="none" stroke="#63b8ff" d="M753.46,-260.23C782.45,-248.92 824.71,-232.44 850.16,-222.52"/>
<polygon fill="#63b8ff" stroke="#63b8ff" points="751.86,-257.1 743.81,-263.99 754.4,-263.62 751.86,-257.1"/>
</a>
</g>
</g>
<!-- Node18 -->
<g id="Node000018" class="node">
<title>Node18</title>
<g id="a_Node000018"><a xlink:href="parameters_8hpp.html" target="_top" xlink:title=" ">
<polygon fill="white" stroke="#666666" points="1668,-222.5 1518,-222.5 1518,-203.5 1668,-203.5 1668,-222.5"/>
<text text-anchor="middle" x="1593" y="-210.5" font-family="Helvetica,sans-Serif" font-size="10.00">src/lib/utils/parameters.hpp</text>
</a>
</g>
</g>
<!-- Node1&#45;&gt;Node18 -->
<g id="edge31_Node000001_Node000018" class="edge">
<title>Node1&#45;&gt;Node18</title>
<g id="a_edge31_Node000001_Node000018"><a xlink:title=" ">
<path fill="none" stroke="#63b8ff" d="M790.03,-267.93C950.36,-257.16 1350.94,-230.26 1517.99,-219.04"/>
<polygon fill="#63b8ff" stroke="#63b8ff" points="789.57,-264.45 779.82,-268.62 790.04,-271.44 789.57,-264.45"/>
</a>
</g>
</g>
<!-- Node4 -->
<g id="Node000004" class="node">
<title>Node4</title>
<g id="a_Node000004"><a xlink:href="kdTree_8cpp.html" target="_top" xlink:title=" ">
<polygon fill="white" stroke="#666666" points="130,-162 0,-162 0,-132 130,-132 130,-162"/>
<text text-anchor="start" x="8" y="-150" font-family="Helvetica,sans-Serif" font-size="10.00">src/lib/patchGeneration</text>
<text text-anchor="middle" x="65" y="-139" font-family="Helvetica,sans-Serif" font-size="10.00">/kdTree.cpp</text>
</a>
</g>
</g>
<!-- Node3&#45;&gt;Node4 -->
<g id="edge3_Node000003_Node000004" class="edge">
<title>Node3&#45;&gt;Node4</title>
<g id="a_edge3_Node000003_Node000004"><a xlink:title=" ">
<path fill="none" stroke="#63b8ff" d="M166.58,-193.78C144.2,-183.69 116.79,-171.34 96.09,-162.01"/>
<polygon fill="#63b8ff" stroke="#63b8ff" points="165.28,-197.04 175.84,-197.95 168.16,-190.65 165.28,-197.04"/>
</a>
</g>
</g>
<!-- Node3&#45;&gt;Node5 -->
<g id="edge4_Node000003_Node000005" class="edge">
<title>Node3&#45;&gt;Node5</title>
<g id="a_edge4_Node000003_Node000005"><a xlink:title=" ">
<path fill="none" stroke="#63b8ff" d="M209.27,-187.83C210.08,-179.17 210.97,-169.7 211.67,-162.16"/>
<polygon fill="#63b8ff" stroke="#63b8ff" points="205.78,-187.51 208.33,-197.8 212.75,-188.17 205.78,-187.51"/>
</a>
</g>
</g>
<!-- Node10&#45;&gt;Node5 -->
<g id="edge11_Node000010_Node000005" class="edge">
<title>Node10&#45;&gt;Node5</title>
<g id="a_edge11_Node000010_Node000005"><a xlink:title=" ">
<path fill="none" stroke="#63b8ff" d="M344.03,-194.59C315.26,-184.36 279.35,-171.59 252.41,-162.01"/>
<polygon fill="#63b8ff" stroke="#63b8ff" points="342.9,-197.9 353.5,-197.95 345.25,-191.31 342.9,-197.9"/>
</a>
</g>
</g>
<!-- Node10&#45;&gt;Node9 -->
<g id="edge12_Node000010_Node000009" class="edge">
<title>Node10&#45;&gt;Node9</title>
<g id="a_edge12_Node000010_Node000009"><a xlink:title=" ">
<path fill="none" stroke="#63b8ff" d="M395.27,-187.83C396.08,-179.17 396.97,-169.7 397.67,-162.16"/>
<polygon fill="#63b8ff" stroke="#63b8ff" points="391.78,-187.51 394.33,-197.8 398.75,-188.17 391.78,-187.51"/>
</a>
</g>
</g>
<!-- Node11&#45;&gt;Node5 -->
<g id="edge15_Node000011_Node000005" class="edge">
<title>Node11&#45;&gt;Node5</title>
<g id="a_edge15_Node000011_Node000005"><a xlink:title=" ">
<path fill="none" stroke="#63b8ff" d="M465.59,-196.4C407.99,-185.36 331.78,-170.76 278.19,-160.49"/>
<polygon fill="#63b8ff" stroke="#63b8ff" points="465.28,-199.9 475.76,-198.35 466.6,-193.03 465.28,-199.9"/>
</a>
</g>
</g>
<!-- Node11&#45;&gt;Node7 -->
<g id="edge14_Node000011_Node000007" class="edge">
<title>Node11&#45;&gt;Node7</title>
<g id="a_edge14_Node000011_Node000007"><a xlink:title=" ">
<path fill="none" stroke="#63b8ff" d="M547,-187.54C547,-178.96 547,-169.61 547,-162.16"/>
<polygon fill="#63b8ff" stroke="#63b8ff" points="543.5,-187.8 547,-197.8 550.5,-187.8 543.5,-187.8"/>
</a>
</g>
</g>
<!-- Node11&#45;&gt;Node8 -->
<g id="edge16_Node000011_Node000008" class="edge">
<title>Node11&#45;&gt;Node8</title>
<g id="a_edge16_Node000011_Node000008"><a xlink:title=" ">
<path fill="none" stroke="#63b8ff" d="M589.66,-193.92C613.53,-183.8 642.83,-171.38 664.94,-162.01"/>
<polygon fill="#63b8ff" stroke="#63b8ff" points="587.98,-190.83 580.14,-197.95 590.71,-197.28 587.98,-190.83"/>
</a>
</g>
</g>
<!-- Node11&#45;&gt;Node9 -->
<g id="edge17_Node000011_Node000009" class="edge">
<title>Node11&#45;&gt;Node9</title>
<g id="a_edge17_Node000011_Node000009"><a xlink:title=" ">
<path fill="none" stroke="#63b8ff" d="M505.19,-193.92C481.8,-183.8 453.08,-171.38 431.4,-162.01"/>
<polygon fill="#63b8ff" stroke="#63b8ff" points="503.95,-197.2 514.52,-197.95 506.73,-190.77 503.95,-197.2"/>
</a>
</g>
</g>
<!-- Node12 -->
<g id="Node000012" class="node">
<title>Node12</title>
<g id="a_Node000012"><a xlink:href="uvgvpcc_8cpp.html" target="_top" xlink:title=" ">
<polygon fill="white" stroke="#666666" points="1648,-90.5 1538,-90.5 1538,-71.5 1648,-71.5 1648,-90.5"/>
<text text-anchor="middle" x="1593" y="-78.5" font-family="Helvetica,sans-Serif" font-size="10.00">src/lib/uvgvpcc.cpp</text>
</a>
</g>
</g>
<!-- Node11&#45;&gt;Node12 -->
<g id="edge18_Node000011_Node000012" class="edge">
<title>Node11&#45;&gt;Node12</title>
<g id="a_edge18_Node000011_Node000012"><a xlink:title=" ">
<path fill="none" stroke="#63b8ff" d="M465.72,-196.16C404.24,-183.78 329.6,-167.75 325,-162 316.67,-151.59 315.76,-141.61 325,-132 367.58,-87.7 1299.18,-82.64 1537.75,-82.07"/>
<polygon fill="#63b8ff" stroke="#63b8ff" points="465.36,-199.65 475.85,-198.19 466.73,-192.79 465.36,-199.65"/>
</a>
</g>
</g>
<!-- Node15&#45;&gt;Node2 -->
<g id="edge24_Node000015_Node000002" class="edge">
<title>Node15&#45;&gt;Node2</title>
<g id="a_edge24_Node000015_Node000002"><a xlink:title=" ">
<path fill="none" stroke="#63b8ff" d="M875.79,-193.35C877.8,-183.47 880.22,-171.51 882.08,-162.36"/>
<polygon fill="#63b8ff" stroke="#63b8ff" points="872.31,-192.87 873.75,-203.37 879.17,-194.27 872.31,-192.87"/>
</a>
</g>
</g>
<!-- Node15&#45;&gt;Node6 -->
<g id="edge25_Node000015_Node000006" class="edge">
<title>Node15&#45;&gt;Node6</title>
<g id="a_edge25_Node000015_Node000006"><a xlink:title=" ">
<path fill="none" stroke="#63b8ff" d="M903.27,-199.65C930.46,-188.9 969.84,-173.35 998.27,-162.12"/>
<polygon fill="#63b8ff" stroke="#63b8ff" points="901.86,-196.44 893.85,-203.37 904.43,-202.95 901.86,-196.44"/>
</a>
</g>
</g>
<!-- Node15&#45;&gt;Node7 -->
<g id="edge26_Node000015_Node000007" class="edge">
<title>Node15&#45;&gt;Node7</title>
<g id="a_edge26_Node000015_Node000007"><a xlink:title=" ">
<path fill="none" stroke="#63b8ff" d="M818.69,-201.5C762.15,-190.37 672.79,-172.77 612.12,-160.82"/>
<polygon fill="#63b8ff" stroke="#63b8ff" points="818.02,-204.94 828.51,-203.44 819.37,-198.07 818.02,-204.94"/>
</a>
</g>
</g>
<!-- Node15&#45;&gt;Node8 -->
<g id="edge27_Node000015_Node000008" class="edge">
<title>Node15&#45;&gt;Node8</title>
<g id="a_edge27_Node000015_Node000008"><a xlink:title=" ">
<path fill="none" stroke="#63b8ff" d="M838.8,-199.79C809.58,-189.04 767.04,-173.4 736.38,-162.12"/>
<polygon fill="#63b8ff" stroke="#63b8ff" points="837.94,-203.2 848.53,-203.37 840.36,-196.63 837.94,-203.2"/>
</a>
</g>
</g>
<!-- Node15&#45;&gt;Node9 -->
<g id="edge28_Node000015_Node000009" class="edge">
<title>Node15&#45;&gt;Node9</title>
<g id="a_edge28_Node000015_Node000009"><a xlink:title=" ">
<path fill="none" stroke="#63b8ff" d="M791.81,-203.44C711.09,-194.47 583.12,-179.3 473,-162 470.16,-161.55 467.26,-161.08 464.33,-160.59"/>
<polygon fill="#63b8ff" stroke="#63b8ff" points="791.58,-206.93 801.9,-204.55 792.35,-199.98 791.58,-206.93"/>
</a>
</g>
</g>
<!-- Node15&#45;&gt;Node12 -->
<g id="edge30_Node000015_Node000012" class="edge">
<title>Node15&#45;&gt;Node12</title>
<g id="a_edge30_Node000015_Node000012"><a xlink:title=" ">
<path fill="none" stroke="#63b8ff" d="M848.99,-197.73C824.9,-181.1 793.13,-153.19 813,-132 837.79,-105.57 1364.36,-88.43 1538,-83.48"/>
<polygon fill="#63b8ff" stroke="#63b8ff" points="847.14,-200.71 857.41,-203.32 851.01,-194.87 847.14,-200.71"/>
</a>
</g>
</g>
<!-- Node15&#45;&gt;Node14 -->
<g id="edge29_Node000015_Node000014" class="edge">
<title>Node15&#45;&gt;Node14</title>
<g id="a_edge29_Node000015_Node000014"><a xlink:title=" ">
<path fill="none" stroke="#63b8ff" d="M952.13,-202.36C1028.35,-192.95 1146.17,-177.79 1248,-162 1258.6,-160.36 1269.97,-158.44 1280.69,-156.55"/>
<polygon fill="#63b8ff" stroke="#63b8ff" points="951.62,-198.9 942.12,-203.59 952.47,-205.85 951.62,-198.9"/>
</a>
</g>
</g>
<!-- Node16 -->
<g id="Node000016" class="node">
<title>Node16</title>
<g id="a_Node000016"><a xlink:href="bitstream__util_8cpp.html" target="_top" xlink:title=" ">
<polygon fill="white" stroke="#666666" points="1565,-162 1415,-162 1415,-132 1565,-132 1565,-162"/>
<text text-anchor="start" x="1423" y="-150" font-family="Helvetica,sans-Serif" font-size="10.00">src/lib/bitstreamGeneration</text>
<text text-anchor="middle" x="1490" y="-139" font-family="Helvetica,sans-Serif" font-size="10.00">/bitstream_util.cpp</text>
</a>
</g>
</g>
<!-- Node15&#45;&gt;Node16 -->
<g id="edge22_Node000015_Node000016" class="edge">
<title>Node15&#45;&gt;Node16</title>
<g id="a_edge22_Node000015_Node000016"><a xlink:title=" ">
<path fill="none" stroke="#63b8ff" d="M952.33,-206.29C1057,-198.43 1245.6,-182.85 1406,-162 1408.93,-161.62 1411.92,-161.21 1414.93,-160.79"/>
<polygon fill="#63b8ff" stroke="#63b8ff" points="951.87,-202.81 942.15,-207.05 952.39,-209.79 951.87,-202.81"/>
</a>
</g>
</g>
<!-- Node17 -->
<g id="Node000017" class="node">
<title>Node17</title>
<g id="a_Node000017"><a xlink:href="encoderKvazaar_8cpp.html" target="_top" xlink:title=" ">
<polygon fill="white" stroke="#666666" points="1239,-162 1121,-162 1121,-132 1239,-132 1239,-162"/>
<text text-anchor="start" x="1129" y="-150" font-family="Helvetica,sans-Serif" font-size="10.00">src/lib/mapEncoding</text>
<text text-anchor="middle" x="1180" y="-139" font-family="Helvetica,sans-Serif" font-size="10.00">/encoderKvazaar.cpp</text>
</a>
</g>
</g>
<!-- Node15&#45;&gt;Node17 -->
<g id="edge23_Node000015_Node000017" class="edge">
<title>Node15&#45;&gt;Node17</title>
<g id="a_edge23_Node000015_Node000017"><a xlink:title=" ">
<path fill="none" stroke="#63b8ff" d="M923.33,-201.33C977.76,-190.02 1063.6,-172.19 1120.83,-160.29"/>
<polygon fill="#63b8ff" stroke="#63b8ff" points="922.3,-197.97 913.22,-203.44 923.72,-204.83 922.3,-197.97"/>
</a>
</g>
</g>
<!-- Node18&#45;&gt;Node2 -->
<g id="edge50_Node000018_Node000002" class="edge">
<title>Node18&#45;&gt;Node2</title>
<g id="a_edge50_Node000018_Node000002"><a xlink:title=" ">
<path fill="none" stroke="#63b8ff" d="M1507.61,-208.46C1385.06,-202.66 1152.42,-188.98 956,-162 953.26,-161.62 950.47,-161.21 947.65,-160.76"/>
<polygon fill="#63b8ff" stroke="#63b8ff" points="1507.53,-211.96 1517.68,-208.93 1507.85,-204.97 1507.53,-211.96"/>
</a>
</g>
</g>
<!-- Node18&#45;&gt;Node5 -->
<g id="edge53_Node000018_Node000005" class="edge">
<title>Node18&#45;&gt;Node5</title>
<g id="a_edge53_Node000018_Node000005"><a xlink:title=" ">
<path fill="none" stroke="#63b8ff" d="M1507.76,-211.14C1303.36,-208.52 769.27,-198.46 325,-162 309.77,-160.75 293.42,-158.96 278.05,-157.08"/>
<polygon fill="#63b8ff" stroke="#63b8ff" points="1507.79,-214.64 1517.83,-211.26 1507.88,-207.64 1507.79,-214.64"/>
</a>
</g>
</g>
<!-- Node18&#45;&gt;Node6 -->
<g id="edge51_Node000018_Node000006" class="edge">
<title>Node18&#45;&gt;Node6</title>
<g id="a_edge51_Node000018_Node000006"><a xlink:title=" ">
<path fill="none" stroke="#63b8ff" d="M1507.83,-205.06C1411.51,-196.78 1250.09,-181.54 1112,-162 1109,-161.58 1105.95,-161.12 1102.86,-160.64"/>
<polygon fill="#63b8ff" stroke="#63b8ff" points="1507.54,-208.55 1517.81,-205.92 1508.14,-201.58 1507.54,-208.55"/>
</a>
</g>
</g>
<!-- Node18&#45;&gt;Node7 -->
<g id="edge52_Node000018_Node000007" class="edge">
<title>Node18&#45;&gt;Node7</title>
<g id="a_edge52_Node000018_Node000007"><a xlink:title=" ">
<path fill="none" stroke="#63b8ff" d="M1507.59,-211.49C1337.99,-209.62 946.95,-201.03 621,-162 618.14,-161.66 615.23,-161.27 612.3,-160.85"/>
<polygon fill="#63b8ff" stroke="#63b8ff" points="1507.67,-214.99 1517.7,-211.6 1507.74,-207.99 1507.67,-214.99"/>
</a>
</g>
</g>
<!-- Node18&#45;&gt;Node8 -->
<g id="edge54_Node000018_Node000008" class="edge">
<title>Node18&#45;&gt;Node8</title>
<g id="a_edge54_Node000018_Node000008"><a xlink:title=" ">
<path fill="none" stroke="#63b8ff" d="M1507.8,-208.13C1364.26,-201.26 1065.18,-185.41 813,-162 797.68,-160.58 781.25,-158.76 765.73,-156.9"/>
<polygon fill="#63b8ff" stroke="#63b8ff" points="1507.71,-211.63 1517.86,-208.61 1508.04,-204.64 1507.71,-211.63"/>
</a>
</g>
</g>
<!-- Node18&#45;&gt;Node9 -->
<g id="edge55_Node000018_Node000009" class="edge">
<title>Node18&#45;&gt;Node9</title>
<g id="a_edge55_Node000018_Node000009"><a xlink:title=" ">
<path fill="none" stroke="#63b8ff" d="M1507.82,-209.77C1282.28,-203.61 673.17,-185.28 473,-162 470.14,-161.67 467.23,-161.29 464.29,-160.87"/>
<polygon fill="#63b8ff" stroke="#63b8ff" points="1507.86,-213.27 1517.95,-210.05 1508.05,-206.27 1507.86,-213.27"/>
</a>
</g>
</g>
<!-- Node18&#45;&gt;Node12 -->
<g id="edge63_Node000018_Node000012" class="edge">
<title>Node18&#45;&gt;Node12</title>
<g id="a_edge63_Node000018_Node000012"><a xlink:title=" ">
<path fill="none" stroke="#63b8ff" d="M1593,-193.23C1593,-164.72 1593,-111.59 1593,-90.73"/>
<polygon fill="#63b8ff" stroke="#63b8ff" points="1589.5,-193.47 1593,-203.47 1596.5,-193.47 1589.5,-193.47"/>
</a>
</g>
</g>
<!-- Node18&#45;&gt;Node13 -->
<g id="edge56_Node000018_Node000013" class="edge">
<title>Node18&#45;&gt;Node13</title>
<g id="a_edge56_Node000018_Node000013"><a xlink:title=" ">
<path fill="none" stroke="#63b8ff" d="M1678.2,-209.67C1897.4,-203.41 2476.98,-185.15 2668,-162 2672.61,-161.44 2677.38,-160.75 2682.15,-159.98"/>
<polygon fill="#63b8ff" stroke="#63b8ff" points="1677.94,-206.18 1668.04,-209.96 1678.14,-213.17 1677.94,-206.18"/>
</a>
</g>
</g>
<!-- Node18&#45;&gt;Node14 -->
<g id="edge57_Node000018_Node000014" class="edge">
<title>Node18&#45;&gt;Node14</title>
<g id="a_edge57_Node000018_Node000014"><a xlink:title=" ">
<path fill="none" stroke="#63b8ff" d="M1547.37,-201.02C1494.95,-188.41 1410.06,-167.98 1362.39,-156.51"/>
<polygon fill="#63b8ff" stroke="#63b8ff" points="1546.86,-204.5 1557.4,-203.44 1548.5,-197.69 1546.86,-204.5"/>
</a>
</g>
</g>
<!-- Node18&#45;&gt;Node16 -->
<g id="edge43_Node000018_Node000016" class="edge">
<title>Node18&#45;&gt;Node16</title>
<g id="a_edge43_Node000018_Node000016"><a xlink:title=" ">
<path fill="none" stroke="#63b8ff" d="M1570.33,-197.91C1553.21,-187.28 1529.84,-172.75 1512.72,-162.12"/>
<polygon fill="#63b8ff" stroke="#63b8ff" points="1568.77,-201.06 1579.11,-203.37 1572.46,-195.12 1568.77,-201.06"/>
</a>
</g>
</g>
<!-- Node18&#45;&gt;Node17 -->
<g id="edge48_Node000018_Node000017" class="edge">
<title>Node18&#45;&gt;Node17</title>
<g id="a_edge48_Node000018_Node000017"><a xlink:title=" ">
<path fill="none" stroke="#63b8ff" d="M1515.96,-202.16C1445.91,-192.9 1339.76,-178.08 1248,-162 1245.15,-161.5 1242.24,-160.97 1239.3,-160.42"/>
<polygon fill="#63b8ff" stroke="#63b8ff" points="1515.66,-205.65 1526.03,-203.49 1516.57,-198.71 1515.66,-205.65"/>
</a>
</g>
</g>
<!-- Node19 -->
<g id="Node000019" class="node">
<title>Node19</title>
<g id="a_Node000019"><a xlink:href="atlas__context_8cpp.html" target="_top" xlink:title=" ">
<polygon fill="white" stroke="#666666" points="2832,-96 2682,-96 2682,-66 2832,-66 2832,-96"/>
<text text-anchor="start" x="2690" y="-84" font-family="Helvetica,sans-Serif" font-size="10.00">src/lib/bitstreamGeneration</text>
<text text-anchor="middle" x="2757" y="-73" font-family="Helvetica,sans-Serif" font-size="10.00">/atlas_context.cpp</text>
</a>
</g>
</g>
<!-- Node18&#45;&gt;Node19 -->
<g id="edge32_Node000018_Node000019" class="edge">
<title>Node18&#45;&gt;Node19</title>
<g id="a_edge32_Node000018_Node000019"><a xlink:title=" ">
<path fill="none" stroke="#63b8ff" d="M1678.48,-210.83C1911.52,-207.23 2546.42,-194.52 2635,-162 2655.53,-154.46 2655.94,-144.33 2674,-132 2692.9,-119.1 2715.14,-105.8 2731.84,-96.16"/>
<polygon fill="#63b8ff" stroke="#63b8ff" points="1678.31,-207.33 1668.36,-210.98 1678.41,-214.33 1678.31,-207.33"/>
</a>
</g>
</g>
<!-- Node20 -->
<g id="Node000020" class="node">
<title>Node20</title>
<g id="a_Node000020"><a xlink:href="atlas__context_8hpp.html" target="_top" xlink:title=" ">
<polygon fill="white" stroke="#666666" points="2626,-162 2476,-162 2476,-132 2626,-132 2626,-162"/>
<text text-anchor="start" x="2484" y="-150" font-family="Helvetica,sans-Serif" font-size="10.00">src/lib/bitstreamGeneration</text>
<text text-anchor="middle" x="2551" y="-139" font-family="Helvetica,sans-Serif" font-size="10.00">/atlas_context.hpp</text>
</a>
</g>
</g>
<!-- Node18&#45;&gt;Node20 -->
<g id="edge33_Node000018_Node000020" class="edge">
<title>Node18&#45;&gt;Node20</title>
<g id="a_edge33_Node000018_Node000020"><a xlink:title=" ">
<path fill="none" stroke="#63b8ff" d="M1678.09,-210.18C1834.66,-206.16 2178.79,-194.17 2467,-162 2469.94,-161.67 2472.93,-161.31 2475.95,-160.92"/>
<polygon fill="#63b8ff" stroke="#63b8ff" points="1677.96,-206.68 1668.05,-210.44 1678.14,-213.68 1677.96,-206.68"/>
</a>
</g>
</g>
<!-- Node21 -->
<g id="Node000021" class="node">
<title>Node21</title>
<g id="a_Node000021"><a xlink:href="bitstreamGeneration_8cpp.html" target="_top" xlink:title=" ">
<polygon fill="white" stroke="#666666" points="2355,-30 2205,-30 2205,0 2355,0 2355,-30"/>
<text text-anchor="start" x="2213" y="-18" font-family="Helvetica,sans-Serif" font-size="10.00">src/lib/bitstreamGeneration</text>
<text text-anchor="middle" x="2280" y="-7" font-family="Helvetica,sans-Serif" font-size="10.00">/bitstreamGeneration.cpp</text>
</a>
</g>
</g>
<!-- Node18&#45;&gt;Node21 -->
<g id="edge39_Node000018_Node000021" class="edge">
<title>Node18&#45;&gt;Node21</title>
<g id="a_edge39_Node000018_Node000021"><a xlink:title=" ">
<path fill="none" stroke="#63b8ff" d="M1678.38,-210.79C1844.27,-207.68 2197.64,-196.98 2240,-162 2279.92,-129.03 2282.09,-60.35 2280.97,-30.44"/>
<polygon fill="#63b8ff" stroke="#63b8ff" points="1678.15,-207.3 1668.21,-210.98 1678.27,-214.3 1678.15,-207.3"/>
</a>
</g>
</g>
<!-- Node24 -->
<g id="Node000024" class="node">
<title>Node24</title>
<g id="a_Node000024"><a xlink:href="bitstreamGeneration_8hpp.html" target="_top" xlink:title=" ">
<polygon fill="white" stroke="#666666" points="2071,-162 1921,-162 1921,-132 2071,-132 2071,-162"/>
<text text-anchor="start" x="1929" y="-150" font-family="Helvetica,sans-Serif" font-size="10.00">src/lib/bitstreamGeneration</text>
<text text-anchor="middle" x="1996" y="-139" font-family="Helvetica,sans-Serif" font-size="10.00">/bitstreamGeneration.hpp</text>
</a>
</g>
</g>
<!-- Node18&#45;&gt;Node24 -->
<g id="edge40_Node000018_Node000024" class="edge">
<title>Node18&#45;&gt;Node24</title>
<g id="a_edge40_Node000018_Node000024"><a xlink:title=" ">
<path fill="none" stroke="#63b8ff" d="M1658.88,-201.94C1723.6,-192.01 1825.15,-176.27 1913,-162 1915.6,-161.58 1918.24,-161.15 1920.91,-160.71"/>
<polygon fill="#63b8ff" stroke="#63b8ff" points="1658.17,-198.51 1648.82,-203.49 1659.23,-205.43 1658.17,-198.51"/>
</a>
</g>
</g>
<!-- Node25 -->
<g id="Node000025" class="node">
<title>Node25</title>
<g id="a_Node000025"><a xlink:href="vps_8hpp.html" target="_top" xlink:title=" ">
<polygon fill="white" stroke="#666666" points="2458,-162 2308,-162 2308,-132 2458,-132 2458,-162"/>
<text text-anchor="start" x="2316" y="-150" font-family="Helvetica,sans-Serif" font-size="10.00">src/lib/bitstreamGeneration</text>
<text text-anchor="middle" x="2383" y="-139" font-family="Helvetica,sans-Serif" font-size="10.00">/vps.hpp</text>
</a>
</g>
</g>
<!-- Node18&#45;&gt;Node25 -->
<g id="edge44_Node000018_Node000025" class="edge">
<title>Node18&#45;&gt;Node25</title>
<g id="a_edge44_Node000018_Node000025"><a xlink:title=" ">
<path fill="none" stroke="#63b8ff" d="M1678.21,-208.26C1810.37,-201.93 2072.62,-187.26 2294,-162 2298.51,-161.49 2303.13,-160.91 2307.8,-160.29"/>
<polygon fill="#63b8ff" stroke="#63b8ff" points="1677.97,-204.76 1668.15,-208.73 1678.3,-211.76 1677.97,-204.76"/>
</a>
</g>
</g>
<!-- Node27 -->
<g id="Node000027" class="node">
<title>Node27</title>
<g id="a_Node000027"><a xlink:href="mapEncoding_8cpp.html" target="_top" xlink:title=" ">
<polygon fill="white" stroke="#666666" points="1736.5,-162 1621.5,-162 1621.5,-132 1736.5,-132 1736.5,-162"/>
<text text-anchor="start" x="1629.5" y="-150" font-family="Helvetica,sans-Serif" font-size="10.00">src/lib/mapEncoding</text>
<text text-anchor="middle" x="1679" y="-139" font-family="Helvetica,sans-Serif" font-size="10.00">/mapEncoding.cpp</text>
</a>
</g>
</g>
<!-- Node18&#45;&gt;Node27 -->
<g id="edge49_Node000018_Node000027" class="edge">
<title>Node18&#45;&gt;Node27</title>
<g id="a_edge49_Node000018_Node000027"><a xlink:title=" ">
<path fill="none" stroke="#63b8ff" d="M1612.73,-197.32C1626.94,-186.74 1646,-172.56 1660.03,-162.12"/>
<polygon fill="#63b8ff" stroke="#63b8ff" points="1610.53,-194.59 1604.6,-203.37 1614.71,-200.21 1610.53,-194.59"/>
</a>
</g>
</g>
<!-- Node28 -->
<g id="Node000028" class="node">
<title>Node28</title>
<g id="a_Node000028"><a xlink:href="parameters_8cpp.html" target="_top" xlink:title=" ">
<polygon fill="white" stroke="#666666" points="1903.5,-156.5 1754.5,-156.5 1754.5,-137.5 1903.5,-137.5 1903.5,-156.5"/>
<text text-anchor="middle" x="1829" y="-144.5" font-family="Helvetica,sans-Serif" font-size="10.00">src/lib/utils/parameters.cpp</text>
</a>
</g>
</g>
<!-- Node18&#45;&gt;Node28 -->
<g id="edge58_Node000018_Node000028" class="edge">
<title>Node18&#45;&gt;Node28</title>
<g id="a_edge58_Node000018_Node000028"><a xlink:title=" ">
<path fill="none" stroke="#63b8ff" d="M1634.59,-200.72C1681.06,-188.12 1755.29,-167.99 1797.3,-156.6"/>
<polygon fill="#63b8ff" stroke="#63b8ff" points="1633.56,-197.37 1624.83,-203.37 1635.4,-204.13 1633.56,-197.37"/>
</a>
</g>
</g>
<!-- Node29 -->
<g id="Node000029" class="node">
<title>Node29</title>
<g id="a_Node000029"><a xlink:href="preset_8cpp.html" target="_top" xlink:title=" ">
<polygon fill="white" stroke="#666666" points="2213,-90.5 2089,-90.5 2089,-71.5 2213,-71.5 2213,-90.5"/>
<text text-anchor="middle" x="2151" y="-78.5" font-family="Helvetica,sans-Serif" font-size="10.00">src/lib/utils/preset.cpp</text>
</a>
</g>
</g>
<!-- Node18&#45;&gt;Node29 -->
<g id="edge59_Node000018_Node000029" class="edge">
<title>Node18&#45;&gt;Node29</title>
<g id="a_edge59_Node000018_Node000029"><a xlink:title=" ">
<path fill="none" stroke="#63b8ff" d="M1678.21,-211.52C1841.76,-209.7 2186.79,-201.2 2223,-162 2246.71,-136.33 2197.36,-105.48 2169.04,-90.71"/>
<polygon fill="#63b8ff" stroke="#63b8ff" points="1678.14,-208.02 1668.18,-211.62 1678.22,-215.02 1678.14,-208.02"/>
</a>
</g>
</g>
<!-- Node30 -->
<g id="Node000030" class="node">
<title>Node30</title>
<g id="a_Node000030"><a xlink:href="preset_8hpp.html" target="_top" xlink:title=" ">
<polygon fill="white" stroke="#666666" points="2213.5,-156.5 2088.5,-156.5 2088.5,-137.5 2213.5,-137.5 2213.5,-156.5"/>
<text text-anchor="middle" x="2151" y="-144.5" font-family="Helvetica,sans-Serif" font-size="10.00">src/lib/utils/preset.hpp</text>
</a>
</g>
</g>
<!-- Node18&#45;&gt;Node30 -->
<g id="edge60_Node000018_Node000030" class="edge">
<title>Node18&#45;&gt;Node30</title>
<g id="a_edge60_Node000018_Node000030"><a xlink:title=" ">
<path fill="none" stroke="#63b8ff" d="M1678.45,-205.63C1775.93,-197.81 1939.96,-182.95 2080,-162 2090.06,-160.49 2100.87,-158.54 2110.94,-156.57"/>
<polygon fill="#63b8ff" stroke="#63b8ff" points="1678.05,-202.15 1668.36,-206.44 1678.6,-209.13 1678.05,-202.15"/>
</a>
</g>
</g>
<!-- Node20&#45;&gt;Node19 -->
<g id="edge34_Node000020_Node000019" class="edge">
<title>Node20&#45;&gt;Node19</title>
<g id="a_edge34_Node000020_Node000019"><a xlink:title=" ">
<path fill="none" stroke="#63b8ff" d="M2606.18,-128.86C2639.26,-118.58 2680.79,-105.68 2711.9,-96.01"/>
<polygon fill="#63b8ff" stroke="#63b8ff" points="2604.72,-125.65 2596.21,-131.95 2606.8,-132.33 2604.72,-125.65"/>
</a>
</g>
</g>
<!-- Node20&#45;&gt;Node21 -->
<g id="edge35_Node000020_Node000021" class="edge">
<title>Node20&#45;&gt;Node21</title>
<g id="a_edge35_Node000020_Node000021"><a xlink:title=" ">
<path fill="none" stroke="#63b8ff" d="M2593.57,-127.37C2623.35,-111.77 2654.57,-88.52 2635,-66 2616.93,-45.21 2454.14,-29.27 2355.39,-21.41"/>
<polygon fill="#63b8ff" stroke="#63b8ff" points="2591.8,-124.34 2584.43,-131.95 2594.94,-130.59 2591.8,-124.34"/>
</a>
</g>
</g>
<!-- Node22 -->
<g id="Node000022" class="node">
<title>Node22</title>
<g id="a_Node000022"><a xlink:href="gof_8hpp.html" target="_top" xlink:title=" ">
<polygon fill="white" stroke="#666666" points="2626,-96 2476,-96 2476,-66 2626,-66 2626,-96"/>
<text text-anchor="start" x="2484" y="-84" font-family="Helvetica,sans-Serif" font-size="10.00">src/lib/bitstreamGeneration</text>
<text text-anchor="middle" x="2551" y="-73" font-family="Helvetica,sans-Serif" font-size="10.00">/gof.hpp</text>
</a>
</g>
</g>
<!-- Node20&#45;&gt;Node22 -->
<g id="edge36_Node000020_Node000022" class="edge">
<title>Node20&#45;&gt;Node22</title>
<g id="a_edge36_Node000020_Node000022"><a xlink:title=" ">
<path fill="none" stroke="#63b8ff" d="M2551,-121.54C2551,-112.96 2551,-103.61 2551,-96.16"/>
<polygon fill="#63b8ff" stroke="#63b8ff" points="2547.5,-121.8 2551,-131.8 2554.5,-121.8 2547.5,-121.8"/>
</a>
</g>
</g>
<!-- Node22&#45;&gt;Node21 -->
<g id="edge37_Node000022_Node000021" class="edge">
<title>Node22&#45;&gt;Node21</title>
<g id="a_edge37_Node000022_Node000021"><a xlink:title=" ">
<path fill="none" stroke="#63b8ff" d="M2481.76,-63.65C2437.73,-53.25 2381.31,-39.93 2339.33,-30.01"/>
<polygon fill="#63b8ff" stroke="#63b8ff" points="2480.99,-67.06 2491.53,-65.95 2482.6,-60.25 2480.99,-67.06"/>
</a>
</g>
</g>
<!-- Node23 -->
<g id="Node000023" class="node">
<title>Node23</title>
<g id="a_Node000023"><a xlink:href="gof_8cpp.html" target="_top" xlink:title=" ">
<polygon fill="white" stroke="#666666" points="2626,-30 2476,-30 2476,0 2626,0 2626,-30"/>
<text text-anchor="start" x="2484" y="-18" font-family="Helvetica,sans-Serif" font-size="10.00">src/lib/bitstreamGeneration</text>
<text text-anchor="middle" x="2551" y="-7" font-family="Helvetica,sans-Serif" font-size="10.00">/gof.cpp</text>
</a>
</g>
</g>
<!-- Node22&#45;&gt;Node23 -->
<g id="edge38_Node000022_Node000023" class="edge">
<title>Node22&#45;&gt;Node23</title>
<g id="a_edge38_Node000022_Node000023"><a xlink:title=" ">
<path fill="none" stroke="#63b8ff" d="M2551,-55.54C2551,-46.96 2551,-37.61 2551,-30.16"/>
<polygon fill="#63b8ff" stroke="#63b8ff" points="2547.5,-55.8 2551,-65.8 2554.5,-55.8 2547.5,-55.8"/>
</a>
</g>
</g>
<!-- Node24&#45;&gt;Node12 -->
<g id="edge42_Node000024_Node000012" class="edge">
<title>Node24&#45;&gt;Node12</title>
<g id="a_edge42_Node000024_Node000012"><a xlink:title=" ">
<path fill="none" stroke="#63b8ff" d="M1910.85,-131.66C1813.04,-115.82 1709.93,-99.88 1648.24,-90.42"/>
<polygon fill="#63b8ff" stroke="#63b8ff" points="1910.47,-135.14 1920.91,-133.29 1911.6,-128.24 1910.47,-135.14"/>
</a>
</g>
</g>
<!-- Node24&#45;&gt;Node21 -->
<g id="edge41_Node000024_Node000021" class="edge">
<title>Node24&#45;&gt;Node21</title>
<g id="a_edge41_Node000024_Node000021"><a xlink:title=" ">
<path fill="none" stroke="#63b8ff" d="M2013.39,-124.02C2028.95,-105.82 2053.38,-80.65 2080,-66 2118.41,-44.86 2165.86,-32.51 2204.9,-25.37"/>
<polygon fill="#63b8ff" stroke="#63b8ff" points="2010.59,-121.91 2006.88,-131.83 2015.97,-126.39 2010.59,-121.91"/>
</a>
</g>
</g>
<!-- Node25&#45;&gt;Node21 -->
<g id="edge45_Node000025_Node000021" class="edge">
<title>Node25&#45;&gt;Node21</title>
<g id="a_edge45_Node000025_Node000021"><a xlink:title=" ">
<path fill="none" stroke="#63b8ff" d="M2336.87,-127.2C2322.86,-119.44 2308.64,-109.13 2299,-96 2284.55,-76.33 2280.93,-47.24 2280.11,-30.1"/>
<polygon fill="#63b8ff" stroke="#63b8ff" points="2335.51,-130.44 2346,-131.94 2338.73,-124.23 2335.51,-130.44"/>
</a>
</g>
</g>
<!-- Node25&#45;&gt;Node22 -->
<g id="edge46_Node000025_Node000022" class="edge">
<title>Node25&#45;&gt;Node22</title>
<g id="a_edge46_Node000025_Node000022"><a xlink:title=" ">
<path fill="none" stroke="#63b8ff" d="M2429.4,-128.32C2456.14,-118.14 2489.29,-105.51 2514.22,-96.01"/>
<polygon fill="#63b8ff" stroke="#63b8ff" points="2427.97,-125.12 2419.87,-131.95 2430.46,-131.67 2427.97,-125.12"/>
</a>
</g>
</g>
<!-- Node26 -->
<g id="Node000026" class="node">
<title>Node26</title>
<g id="a_Node000026"><a xlink:href="vps_8cpp.html" target="_top" xlink:title=" ">
<polygon fill="white" stroke="#666666" points="2458,-96 2308,-96 2308,-66 2458,-66 2458,-96"/>
<text text-anchor="start" x="2316" y="-84" font-family="Helvetica,sans-Serif" font-size="10.00">src/lib/bitstreamGeneration</text>
<text text-anchor="middle" x="2383" y="-73" font-family="Helvetica,sans-Serif" font-size="10.00">/vps.cpp</text>
</a>
</g>
</g>
<!-- Node25&#45;&gt;Node26 -->
<g id="edge47_Node000025_Node000026" class="edge">
<title>Node25&#45;&gt;Node26</title>
<g id="a_edge47_Node000025_Node000026"><a xlink:title=" ">
<path fill="none" stroke="#63b8ff" d="M2383,-121.54C2383,-112.96 2383,-103.61 2383,-96.16"/>
<polygon fill="#63b8ff" stroke="#63b8ff" points="2379.5,-121.8 2383,-131.8 2386.5,-121.8 2379.5,-121.8"/>
</a>
</g>
</g>
<!-- Node30&#45;&gt;Node12 -->
<g id="edge62_Node000030_Node000012" class="edge">
<title>Node30&#45;&gt;Node12</title>
<g id="a_edge62_Node000030_Node000012"><a xlink:title=" ">
<path fill="none" stroke="#63b8ff" d="M2100.84,-135.51C2093.86,-134.23 2086.76,-133.01 2080,-132 1924.28,-108.7 1738.92,-92.94 1648.35,-86.01"/>
<polygon fill="#63b8ff" stroke="#63b8ff" points="2100.46,-139 2110.94,-137.43 2101.76,-132.12 2100.46,-139"/>
</a>
</g>
</g>
<!-- Node30&#45;&gt;Node29 -->
<g id="edge61_Node000030_Node000029" class="edge">
<title>Node30&#45;&gt;Node29</title>
<g id="a_edge61_Node000030_Node000029"><a xlink:title=" ">
<path fill="none" stroke="#63b8ff" d="M2151,-127.08C2151,-115.13 2151,-100.22 2151,-90.91"/>
<polygon fill="#63b8ff" stroke="#63b8ff" points="2147.5,-127.37 2151,-137.37 2154.5,-127.37 2147.5,-127.37"/>
</a>
</g>
</g>
</g>
</svg>

<g id="navigator" transform="translate(0 0)" fill="#404254">
  <rect fill="#f2f5e9" fill-opacity="0.5" stroke="#606060" stroke-width=".5" x="0" y="0" width="60" height="60"/>
  <use id="zoomplus" xlink:href="#zoomPlus" x="17" y="9" onmousedown="handleZoom(evt,'in')"/>
  <use id="zoomminus" xlink:href="#zoomMin" x="42" y="9" onmousedown="handleZoom(evt,'out')"/>
  <use id="reset" xlink:href="#resetDef" x="30" y="36" onmousedown="handleReset()"/>
   <use id="arrowup" xlink:href="#arrowUp" x="0" y="0" onmousedown="handlePan(0,-1)"/>
  <use id="arrowright" xlink:href="#arrowRight" x="0" y="0" onmousedown="handlePan(1,0)"/>
  <use id="arrowdown" xlink:href="#arrowDown" x="0" y="0" onmousedown="handlePan(0,1)"/>
  <use id="arrowleft" xlink:href="#arrowLeft" x="0" y="0" onmousedown="handlePan(-1,0)"/>
</g>
<svg viewBox="0 0 15 15" width="100%" height="30px" preserveAspectRatio="xMaxYMin meet">
 <g id="arrow_out" transform="scale(0.3 0.3)">
  <a xlink:href="utils_8hpp__dep__incl_org.svg" target="_base">
   <rect id="button" ry="5" rx="5" y="6" x="6" height="38" width="38"
        fill="#f2f5e9" fill-opacity="0.5" stroke="#606060" stroke-width="1.0"/>
   <path id="arrow"
     d="M 11.500037,31.436501 C 11.940474,20.09759 22.043105,11.32322 32.158766,21.979434 L 37.068811,17.246167 C 37.068811,17.246167 37.088388,32 37.088388,32 L 22.160133,31.978069 C 22.160133,31.978069 26.997745,27.140456 26.997745,27.140456 C 18.528582,18.264221 13.291696,25.230495 11.500037,31.436501 z"
     style="fill:#404040;"/>
  </a>
 </g>
</svg>

<style type='text/css'>
<![CDATA[
[data-mouse-over-selected='false'] { opacity: 0.7; }
[data-mouse-over-selected='true']  { opacity: 1.0; }
]]>
</style>
<script type="application/ecmascript"><![CDATA[
document.addEventListener('DOMContentLoaded', (event) => {
  highlightEdges();
  highlightAdjacentNodes();
});
]]></script>
</svg>
