<?xml version="1.0" encoding="UTF-8" standalone="no"?>
<!DOCTYPE svg PUBLIC "-//W3C//DTD SVG 1.1//EN"
 "http://www.w3.org/Graphics/SVG/1.1/DTD/svg11.dtd">
<!-- Generated by graphviz version 2.43.0 (0)
 -->
<!-- Title: src/lib/utils/utils.hpp Pages: 1 -->
<svg width="3416pt" height="291pt"
 viewBox="0.00 0.00 3416.00 291.00" xmlns="http://www.w3.org/2000/svg" xmlns:xlink="http://www.w3.org/1999/xlink">
<g id="graph0" class="graph" transform="scale(1 1) rotate(0) translate(4 287)">
<title>src/lib/utils/utils.hpp</title>
<!-- Node1 -->
<g id="Node000001" class="node">
<title>Node1</title>
<g id="a_Node000001"><a xlink:title=" ">
<polygon fill="#999999" stroke="#666666" points="906.5,-283 791.5,-283 791.5,-264 906.5,-264 906.5,-283"/>
<text text-anchor="middle" x="849" y="-271" font-family="Helvetica,sans-Serif" font-size="10.00">src/lib/utils/utils.hpp</text>
</a>
</g>
</g>
<!-- Node2 -->
<g id="Node000002" class="node">
<title>Node2</title>
<g id="a_Node000002"><a xlink:href="mapGeneration_8cpp.html" target="_top" xlink:title=" ">
<polygon fill="white" stroke="#666666" points="1060.5,-162 935.5,-162 935.5,-132 1060.5,-132 1060.5,-162"/>
<text text-anchor="start" x="943.5" y="-150" font-family="Helvetica,sans-Serif" font-size="10.00">src/lib/mapGeneration</text>
<text text-anchor="middle" x="998" y="-139" font-family="Helvetica,sans-Serif" font-size="10.00">/mapGeneration.cpp</text>
</a>
</g>
</g>
<!-- Node1&#45;&gt;Node2 -->
<g id="edge1_Node000001_Node000002" class="edge">
<title>Node1&#45;&gt;Node2</title>
<g id="a_edge1_Node000001_Node000002"><a xlink:title=" ">
<path fill="none" stroke="#63b8ff" d="M866.97,-257.49C895.97,-233.25 952.71,-185.84 981.05,-162.16"/>
<polygon fill="#63b8ff" stroke="#63b8ff" points="864.67,-254.84 859.24,-263.94 869.16,-260.22 864.67,-254.84"/>
</a>
</g>
</g>
<!-- Node3 -->
<g id="Node000003" class="node">
<title>Node3</title>
<g id="a_Node000003"><a xlink:href="kdTree_8hpp.html" target="_top" xlink:title=" ">
<polygon fill="white" stroke="#666666" points="278,-228 148,-228 148,-198 278,-198 278,-228"/>
<text text-anchor="start" x="156" y="-216" font-family="Helvetica,sans-Serif" font-size="10.00">src/lib/patchGeneration</text>
<text text-anchor="middle" x="213" y="-205" font-family="Helvetica,sans-Serif" font-size="10.00">/kdTree.hpp</text>
</a>
</g>
</g>
<!-- Node1&#45;&gt;Node3 -->
<g id="edge2_Node000001_Node000003" class="edge">
<title>Node1&#45;&gt;Node3</title>
<g id="a_edge2_Node000001_Node000003"><a xlink:title=" ">
<path fill="none" stroke="#63b8ff" d="M781.21,-267.72C680.78,-260.43 486.63,-245.51 322,-228 307.77,-226.49 292.52,-224.66 278.08,-222.83"/>
<polygon fill="#63b8ff" stroke="#63b8ff" points="780.99,-271.22 791.22,-268.45 781.49,-264.23 780.99,-271.22"/>
</a>
</g>
</g>
<!-- Node5 -->
<g id="Node000005" class="node">
<title>Node5</title>
<g id="a_Node000005"><a xlink:href="patchGeneration_8cpp.html" target="_top" xlink:title=" ">
<polygon fill="white" stroke="#666666" points="278,-162 148,-162 148,-132 278,-132 278,-162"/>
<text text-anchor="start" x="156" y="-150" font-family="Helvetica,sans-Serif" font-size="10.00">src/lib/patchGeneration</text>
<text text-anchor="middle" x="213" y="-139" font-family="Helvetica,sans-Serif" font-size="10.00">/patchGeneration.cpp</text>
</a>
</g>
</g>
<!-- Node1&#45;&gt;Node5 -->
<g id="edge7_Node000001_Node000005" class="edge">
<title>Node1&#45;&gt;Node5</title>
<g id="a_edge7_Node000001_Node000005"><a xlink:title=" ">
<path fill="none" stroke="#63b8ff" d="M780.88,-269.34C667.54,-263.55 445.26,-249.8 370,-228 318.28,-213.02 263.47,-180.82 234.26,-162.17"/>
<polygon fill="#63b8ff" stroke="#63b8ff" points="781,-272.85 791.17,-269.86 781.36,-265.86 781,-272.85"/>
</a>
</g>
</g>
<!-- Node6 -->
<g id="Node000006" class="node">
<title>Node6</title>
<g id="a_Node000006"><a xlink:href="normalComputation_8cpp.html" target="_top" xlink:title=" ">
<polygon fill="white" stroke="#666666" points="1528.5,-162 1391.5,-162 1391.5,-132 1528.5,-132 1528.5,-162"/>
<text text-anchor="start" x="1399.5" y="-150" font-family="Helvetica,sans-Serif" font-size="10.00">src/lib/patchGeneration</text>
<text text-anchor="middle" x="1460" y="-139" font-family="Helvetica,sans-Serif" font-size="10.00">/normalComputation.cpp</text>
</a>
</g>
</g>
<!-- Node1&#45;&gt;Node6 -->
<g id="edge5_Node000001_Node000006" class="edge">
<title>Node1&#45;&gt;Node6</title>
<g id="a_edge5_Node000001_Node000006"><a xlink:title=" ">
<path fill="none" stroke="#63b8ff" d="M916.78,-262.82C972.17,-254.58 1052.4,-241.89 1122,-228 1222.97,-207.85 1339.62,-178.99 1406.11,-162"/>
<polygon fill="#63b8ff" stroke="#63b8ff" points="916.11,-259.38 906.73,-264.3 917.14,-266.3 916.11,-259.38"/>
</a>
</g>
</g>
<!-- Node7 -->
<g id="Node000007" class="node">
<title>Node7</title>
<g id="a_Node000007"><a xlink:href="normalOrientation_8cpp.html" target="_top" xlink:title=" ">
<polygon fill="white" stroke="#666666" points="764,-162 634,-162 634,-132 764,-132 764,-162"/>
<text text-anchor="start" x="642" y="-150" font-family="Helvetica,sans-Serif" font-size="10.00">src/lib/patchGeneration</text>
<text text-anchor="middle" x="699" y="-139" font-family="Helvetica,sans-Serif" font-size="10.00">/normalOrientation.cpp</text>
</a>
</g>
</g>
<!-- Node1&#45;&gt;Node7 -->
<g id="edge6_Node000001_Node000007" class="edge">
<title>Node1&#45;&gt;Node7</title>
<g id="a_edge6_Node000001_Node000007"><a xlink:title=" ">
<path fill="none" stroke="#63b8ff" d="M831.48,-256.86C814.25,-241.6 787.12,-217.85 763,-198 747.98,-185.64 730.55,-172.07 717.68,-162.2"/>
<polygon fill="#63b8ff" stroke="#63b8ff" points="829.28,-259.59 839.08,-263.62 833.93,-254.36 829.28,-259.59"/>
</a>
</g>
</g>
<!-- Node8 -->
<g id="Node000008" class="node">
<title>Node8</title>
<g id="a_Node000008"><a xlink:href="patchSegmentation_8cpp.html" target="_top" xlink:title=" ">
<polygon fill="white" stroke="#666666" points="917.5,-162 782.5,-162 782.5,-132 917.5,-132 917.5,-162"/>
<text text-anchor="start" x="790.5" y="-150" font-family="Helvetica,sans-Serif" font-size="10.00">src/lib/patchGeneration</text>
<text text-anchor="middle" x="850" y="-139" font-family="Helvetica,sans-Serif" font-size="10.00">/patchSegmentation.cpp</text>
</a>
</g>
</g>
<!-- Node1&#45;&gt;Node8 -->
<g id="edge8_Node000001_Node000008" class="edge">
<title>Node1&#45;&gt;Node8</title>
<g id="a_edge8_Node000001_Node000008"><a xlink:title=" ">
<path fill="none" stroke="#63b8ff" d="M849.15,-253.91C849.35,-228.83 849.71,-184.72 849.89,-162.16"/>
<polygon fill="#63b8ff" stroke="#63b8ff" points="845.65,-253.91 849.07,-263.94 852.65,-253.97 845.65,-253.91"/>
</a>
</g>
</g>
<!-- Node9 -->
<g id="Node000009" class="node">
<title>Node9</title>
<g id="a_Node000009"><a xlink:href="ppiSegmenter_8cpp.html" target="_top" xlink:title=" ">
<polygon fill="white" stroke="#666666" points="426,-162 296,-162 296,-132 426,-132 426,-162"/>
<text text-anchor="start" x="304" y="-150" font-family="Helvetica,sans-Serif" font-size="10.00">src/lib/patchGeneration</text>
<text text-anchor="middle" x="361" y="-139" font-family="Helvetica,sans-Serif" font-size="10.00">/ppiSegmenter.cpp</text>
</a>
</g>
</g>
<!-- Node1&#45;&gt;Node9 -->
<g id="edge9_Node000001_Node000009" class="edge">
<title>Node1&#45;&gt;Node9</title>
<g id="a_edge9_Node000001_Node000009"><a xlink:title=" ">
<path fill="none" stroke="#63b8ff" d="M781.26,-269.04C723.19,-264.38 638.06,-253.48 568,-228 543.64,-219.14 541.62,-208.67 518,-198 485.02,-183.1 446.3,-170.72 415.56,-162"/>
<polygon fill="#63b8ff" stroke="#63b8ff" points="781.19,-272.54 791.42,-269.81 781.72,-265.56 781.19,-272.54"/>
</a>
</g>
</g>
<!-- Node10 -->
<g id="Node000010" class="node">
<title>Node10</title>
<g id="a_Node000010"><a xlink:href="ppiSegmenter_8hpp.html" target="_top" xlink:title=" ">
<polygon fill="white" stroke="#666666" points="509,-228 379,-228 379,-198 509,-198 509,-228"/>
<text text-anchor="start" x="387" y="-216" font-family="Helvetica,sans-Serif" font-size="10.00">src/lib/patchGeneration</text>
<text text-anchor="middle" x="444" y="-205" font-family="Helvetica,sans-Serif" font-size="10.00">/ppiSegmenter.hpp</text>
</a>
</g>
</g>
<!-- Node1&#45;&gt;Node10 -->
<g id="edge10_Node000001_Node000010" class="edge">
<title>Node1&#45;&gt;Node10</title>
<g id="a_edge10_Node000001_Node000010"><a xlink:title=" ">
<path fill="none" stroke="#63b8ff" d="M781.18,-263.42C716.76,-254.7 617.21,-240.97 531,-228 523.89,-226.93 516.46,-225.78 509.06,-224.62"/>
<polygon fill="#63b8ff" stroke="#63b8ff" points="780.83,-266.9 791.21,-264.78 781.77,-259.97 780.83,-266.9"/>
</a>
</g>
</g>
<!-- Node11 -->
<g id="Node000011" class="node">
<title>Node11</title>
<g id="a_Node000011"><a xlink:href="slicingComputation_8cpp.html" target="_top" xlink:title=" ">
<polygon fill="white" stroke="#666666" points="616,-162 482,-162 482,-132 616,-132 616,-162"/>
<text text-anchor="start" x="490" y="-150" font-family="Helvetica,sans-Serif" font-size="10.00">src/lib/patchGeneration</text>
<text text-anchor="middle" x="549" y="-139" font-family="Helvetica,sans-Serif" font-size="10.00">/slicingComputation.cpp</text>
</a>
</g>
</g>
<!-- Node1&#45;&gt;Node11 -->
<g id="edge14_Node000001_Node000011" class="edge">
<title>Node1&#45;&gt;Node11</title>
<g id="a_edge14_Node000001_Node000011"><a xlink:title=" ">
<path fill="none" stroke="#63b8ff" d="M820.01,-259.57C802.87,-251.42 781.06,-240.17 763,-228 746.01,-216.55 746.07,-207.65 728,-198 707.51,-187.06 653.43,-172.6 610.04,-162.05"/>
<polygon fill="#63b8ff" stroke="#63b8ff" points="818.95,-262.94 829.49,-263.99 821.91,-256.59 818.95,-262.94"/>
</a>
</g>
</g>
<!-- Node12 -->
<g id="Node000012" class="node">
<title>Node12</title>
<g id="a_Node000012"><a xlink:href="utilsPatchGeneration_8hpp.html" target="_top" xlink:title=" ">
<polygon fill="white" stroke="#666666" points="719,-228 577,-228 577,-198 719,-198 719,-228"/>
<text text-anchor="start" x="585" y="-216" font-family="Helvetica,sans-Serif" font-size="10.00">src/lib/patchGeneration</text>
<text text-anchor="middle" x="648" y="-205" font-family="Helvetica,sans-Serif" font-size="10.00">/utilsPatchGeneration.hpp</text>
</a>
</g>
</g>
<!-- Node1&#45;&gt;Node12 -->
<g id="edge15_Node000001_Node000012" class="edge">
<title>Node1&#45;&gt;Node12</title>
<g id="a_edge15_Node000001_Node000012"><a xlink:title=" ">
<path fill="none" stroke="#63b8ff" d="M809.75,-261.08C777.29,-251.63 731.06,-238.17 696.32,-228.06"/>
<polygon fill="#63b8ff" stroke="#63b8ff" points="809.19,-264.56 819.77,-263.99 811.15,-257.84 809.19,-264.56"/>
</a>
</g>
</g>
<!-- Node14 -->
<g id="Node000014" class="node">
<title>Node14</title>
<g id="a_Node000014"><a xlink:href="patchPacking_8cpp.html" target="_top" xlink:title=" ">
<polygon fill="white" stroke="#666666" points="3371.5,-162 3258.5,-162 3258.5,-132 3371.5,-132 3371.5,-162"/>
<text text-anchor="start" x="3266.5" y="-150" font-family="Helvetica,sans-Serif" font-size="10.00">src/lib/patchPacking</text>
<text text-anchor="middle" x="3315" y="-139" font-family="Helvetica,sans-Serif" font-size="10.00">/patchPacking.cpp</text>
</a>
</g>
</g>
<!-- Node1&#45;&gt;Node14 -->
<g id="edge21_Node000001_Node000014" class="edge">
<title>Node1&#45;&gt;Node14</title>
<g id="a_edge21_Node000001_Node000014"><a xlink:title=" ">
<path fill="none" stroke="#63b8ff" d="M916.92,-270.78C1256.84,-261.97 2775.48,-220 3244,-162 3248.61,-161.43 3253.38,-160.73 3258.15,-159.95"/>
<polygon fill="#63b8ff" stroke="#63b8ff" points="916.64,-267.29 906.74,-271.05 916.82,-274.29 916.64,-267.29"/>
</a>
</g>
</g>
<!-- Node15 -->
<g id="Node000015" class="node">
<title>Node15</title>
<g id="a_Node000015"><a xlink:href="fileExport_8cpp.html" target="_top" xlink:title=" ">
<polygon fill="white" stroke="#666666" points="1855,-156.5 1715,-156.5 1715,-137.5 1855,-137.5 1855,-156.5"/>
<text text-anchor="middle" x="1785" y="-144.5" font-family="Helvetica,sans-Serif" font-size="10.00">src/lib/utils/fileExport.cpp</text>
</a>
</g>
</g>
<!-- Node1&#45;&gt;Node15 -->
<g id="edge22_Node000001_Node000015" class="edge">
<title>Node1&#45;&gt;Node15</title>
<g id="a_edge22_Node000001_Node000015"><a xlink:title=" ">
<path fill="none" stroke="#63b8ff" d="M916.64,-264.92C1061.62,-248.43 1412.97,-207.13 1706,-162 1716.6,-160.37 1727.97,-158.45 1738.69,-156.57"/>
<polygon fill="#63b8ff" stroke="#63b8ff" points="916.1,-261.46 906.56,-266.07 916.89,-268.42 916.1,-261.46"/>
</a>
</g>
</g>
<!-- Node16 -->
<g id="Node000016" class="node">
<title>Node16</title>
<g id="a_Node000016"><a xlink:href="fileExport_8hpp.html" target="_top" xlink:title=" ">
<polygon fill="white" stroke="#666666" points="1113,-222.5 973,-222.5 973,-203.5 1113,-203.5 1113,-222.5"/>
<text text-anchor="middle" x="1043" y="-210.5" font-family="Helvetica,sans-Serif" font-size="10.00">src/lib/utils/fileExport.hpp</text>
</a>
</g>
</g>
<!-- Node1&#45;&gt;Node16 -->
<g id="edge23_Node000001_Node000016" class="edge">
<title>Node1&#45;&gt;Node16</title>
<g id="a_edge23_Node000001_Node000016"><a xlink:title=" ">
<path fill="none" stroke="#63b8ff" d="M887.26,-260.96C924.78,-249.65 981.12,-232.66 1014.76,-222.52"/>
<polygon fill="#63b8ff" stroke="#63b8ff" points="885.77,-257.76 877.21,-263.99 887.79,-264.46 885.77,-257.76"/>
</a>
</g>
</g>
<!-- Node20 -->
<g id="Node000020" class="node">
<title>Node20</title>
<g id="a_Node000020"><a xlink:href="parameters_8hpp.html" target="_top" xlink:title=" ">
<polygon fill="white" stroke="#666666" points="1958,-222.5 1808,-222.5 1808,-203.5 1958,-203.5 1958,-222.5"/>
<text text-anchor="middle" x="1883" y="-210.5" font-family="Helvetica,sans-Serif" font-size="10.00">src/lib/utils/parameters.hpp</text>
</a>
</g>
</g>
<!-- Node1&#45;&gt;Node20 -->
<g id="edge35_Node000001_Node000020" class="edge">
<title>Node1&#45;&gt;Node20</title>
<g id="a_edge35_Node000001_Node000020"><a xlink:title=" ">
<path fill="none" stroke="#63b8ff" d="M916.55,-268.89C1054.8,-261.46 1380.01,-243.86 1653,-228 1704.72,-224.99 1762.97,-221.45 1807.91,-218.68"/>
<polygon fill="#63b8ff" stroke="#63b8ff" points="916.32,-265.39 906.53,-269.42 916.7,-272.38 916.32,-265.39"/>
</a>
</g>
</g>
<!-- Node4 -->
<g id="Node000004" class="node">
<title>Node4</title>
<g id="a_Node000004"><a xlink:href="kdTree_8cpp.html" target="_top" xlink:title=" ">
<polygon fill="white" stroke="#666666" points="130,-162 0,-162 0,-132 130,-132 130,-162"/>
<text text-anchor="start" x="8" y="-150" font-family="Helvetica,sans-Serif" font-size="10.00">src/lib/patchGeneration</text>
<text text-anchor="middle" x="65" y="-139" font-family="Helvetica,sans-Serif" font-size="10.00">/kdTree.cpp</text>
</a>
</g>
</g>
<!-- Node3&#45;&gt;Node4 -->
<g id="edge3_Node000003_Node000004" class="edge">
<title>Node3&#45;&gt;Node4</title>
<g id="a_edge3_Node000003_Node000004"><a xlink:title=" ">
<path fill="none" stroke="#63b8ff" d="M171.19,-193.92C147.8,-183.8 119.08,-171.38 97.4,-162.01"/>
<polygon fill="#63b8ff" stroke="#63b8ff" points="169.95,-197.2 180.52,-197.95 172.73,-190.77 169.95,-197.2"/>
</a>
</g>
</g>
<!-- Node3&#45;&gt;Node5 -->
<g id="edge4_Node000003_Node000005" class="edge">
<title>Node3&#45;&gt;Node5</title>
<g id="a_edge4_Node000003_Node000005"><a xlink:title=" ">
<path fill="none" stroke="#63b8ff" d="M213,-187.54C213,-178.96 213,-169.61 213,-162.16"/>
<polygon fill="#63b8ff" stroke="#63b8ff" points="209.5,-187.8 213,-197.8 216.5,-187.8 209.5,-187.8"/>
</a>
</g>
</g>
<!-- Node10&#45;&gt;Node5 -->
<g id="edge11_Node000010_Node000005" class="edge">
<title>Node10&#45;&gt;Node5</title>
<g id="a_edge11_Node000010_Node000005"><a xlink:title=" ">
<path fill="none" stroke="#63b8ff" d="M383.56,-195.25C346.24,-184.91 298.9,-171.8 263.58,-162.01"/>
<polygon fill="#63b8ff" stroke="#63b8ff" points="382.73,-198.66 393.31,-197.95 384.6,-191.91 382.73,-198.66"/>
</a>
</g>
</g>
<!-- Node10&#45;&gt;Node9 -->
<g id="edge12_Node000010_Node000009" class="edge">
<title>Node10&#45;&gt;Node9</title>
<g id="a_edge12_Node000010_Node000009"><a xlink:title=" ">
<path fill="none" stroke="#63b8ff" d="M417.39,-191.48C404.98,-181.91 390.53,-170.77 379.37,-162.16"/>
<polygon fill="#63b8ff" stroke="#63b8ff" points="415.52,-194.46 425.58,-197.8 419.8,-188.92 415.52,-194.46"/>
</a>
</g>
</g>
<!-- Node10&#45;&gt;Node11 -->
<g id="edge13_Node000010_Node000011" class="edge">
<title>Node10&#45;&gt;Node11</title>
<g id="a_edge13_Node000010_Node000011"><a xlink:title=" ">
<path fill="none" stroke="#63b8ff" d="M475.67,-192.69C491.88,-182.82 511.25,-171.01 526.01,-162.01"/>
<polygon fill="#63b8ff" stroke="#63b8ff" points="473.76,-189.76 467.04,-197.95 477.4,-195.74 473.76,-189.76"/>
</a>
</g>
</g>
<!-- Node12&#45;&gt;Node5 -->
<g id="edge17_Node000012_Node000005" class="edge">
<title>Node12&#45;&gt;Node5</title>
<g id="a_edge17_Node000012_Node000005"><a xlink:title=" ">
<path fill="none" stroke="#63b8ff" d="M566.86,-201.93C493.58,-192.55 382.86,-177.7 287,-162 284.16,-161.54 281.26,-161.05 278.34,-160.54"/>
<polygon fill="#63b8ff" stroke="#63b8ff" points="566.59,-205.42 576.95,-203.21 567.47,-198.47 566.59,-205.42"/>
</a>
</g>
</g>
<!-- Node12&#45;&gt;Node7 -->
<g id="edge16_Node000012_Node000007" class="edge">
<title>Node12&#45;&gt;Node7</title>
<g id="a_edge16_Node000012_Node000007"><a xlink:title=" ">
<path fill="none" stroke="#63b8ff" d="M665.68,-189.81C672.99,-180.64 681.25,-170.28 687.71,-162.16"/>
<polygon fill="#63b8ff" stroke="#63b8ff" points="662.81,-187.79 659.32,-197.8 668.29,-192.16 662.81,-187.79"/>
</a>
</g>
</g>
<!-- Node12&#45;&gt;Node8 -->
<g id="edge18_Node000012_Node000008" class="edge">
<title>Node12&#45;&gt;Node8</title>
<g id="a_edge18_Node000012_Node000008"><a xlink:title=" ">
<path fill="none" stroke="#63b8ff" d="M702.11,-194.86C734.55,-184.58 775.27,-171.68 805.77,-162.01"/>
<polygon fill="#63b8ff" stroke="#63b8ff" points="700.81,-191.6 692.33,-197.95 702.92,-198.27 700.81,-191.6"/>
</a>
</g>
</g>
<!-- Node12&#45;&gt;Node9 -->
<g id="edge19_Node000012_Node000009" class="edge">
<title>Node12&#45;&gt;Node9</title>
<g id="a_edge19_Node000012_Node000009"><a xlink:title=" ">
<path fill="none" stroke="#63b8ff" d="M574.97,-195.71C528.29,-185.31 468.38,-171.95 423.84,-162.01"/>
<polygon fill="#63b8ff" stroke="#63b8ff" points="574.49,-199.19 585.02,-197.95 576.02,-192.36 574.49,-199.19"/>
</a>
</g>
</g>
<!-- Node13 -->
<g id="Node000013" class="node">
<title>Node13</title>
<g id="a_Node000013"><a xlink:href="uvgvpcc_8cpp.html" target="_top" xlink:title=" ">
<polygon fill="white" stroke="#666666" points="1938,-90.5 1828,-90.5 1828,-71.5 1938,-71.5 1938,-90.5"/>
<text text-anchor="middle" x="1883" y="-78.5" font-family="Helvetica,sans-Serif" font-size="10.00">src/lib/uvgvpcc.cpp</text>
</a>
</g>
</g>
<!-- Node12&#45;&gt;Node13 -->
<g id="edge20_Node000012_Node000013" class="edge">
<title>Node12&#45;&gt;Node13</title>
<g id="a_edge20_Node000012_Node000013"><a xlink:title=" ">
<path fill="none" stroke="#63b8ff" d="M566.94,-198.54C527.01,-190.09 484.91,-177.79 473,-162 464.97,-151.36 463.74,-141.59 473,-132 520.82,-82.46 1572.61,-81.37 1827.66,-81.84"/>
<polygon fill="#63b8ff" stroke="#63b8ff" points="566.25,-201.97 576.75,-200.55 567.66,-195.12 566.25,-201.97"/>
</a>
</g>
</g>
<!-- Node16&#45;&gt;Node2 -->
<g id="edge27_Node000016_Node000002" class="edge">
<title>Node16&#45;&gt;Node2</title>
<g id="a_edge27_Node000016_Node000002"><a xlink:title=" ">
<path fill="none" stroke="#63b8ff" d="M1030.99,-194.92C1023.85,-184.76 1014.88,-172.01 1008.1,-162.36"/>
<polygon fill="#63b8ff" stroke="#63b8ff" points="1028.32,-197.2 1036.93,-203.37 1034.04,-193.18 1028.32,-197.2"/>
</a>
</g>
</g>
<!-- Node16&#45;&gt;Node6 -->
<g id="edge28_Node000016_Node000006" class="edge">
<title>Node16&#45;&gt;Node6</title>
<g id="a_edge28_Node000016_Node000006"><a xlink:title=" ">
<path fill="none" stroke="#63b8ff" d="M1114.91,-202.06C1183.6,-192.4 1290,-177.04 1382,-162 1384.99,-161.51 1388.04,-161 1391.12,-160.48"/>
<polygon fill="#63b8ff" stroke="#63b8ff" points="1114.06,-198.64 1104.64,-203.5 1115.03,-205.57 1114.06,-198.64"/>
</a>
</g>
</g>
<!-- Node16&#45;&gt;Node7 -->
<g id="edge29_Node000016_Node000007" class="edge">
<title>Node16&#45;&gt;Node7</title>
<g id="a_edge29_Node000016_Node000007"><a xlink:title=" ">
<path fill="none" stroke="#63b8ff" d="M986.47,-201.6C931.84,-191.53 846.74,-175.8 773,-162 770.17,-161.47 767.28,-160.93 764.37,-160.38"/>
<polygon fill="#63b8ff" stroke="#63b8ff" points="986.18,-205.1 996.65,-203.47 987.45,-198.22 986.18,-205.1"/>
</a>
</g>
</g>
<!-- Node16&#45;&gt;Node8 -->
<g id="edge30_Node000016_Node000008" class="edge">
<title>Node16&#45;&gt;Node8</title>
<g id="a_edge30_Node000016_Node000008"><a xlink:title=" ">
<path fill="none" stroke="#63b8ff" d="M1007.44,-200.21C975,-189.45 927.03,-173.54 892.57,-162.12"/>
<polygon fill="#63b8ff" stroke="#63b8ff" points="1006.38,-203.54 1016.97,-203.37 1008.58,-196.9 1006.38,-203.54"/>
</a>
</g>
</g>
<!-- Node16&#45;&gt;Node9 -->
<g id="edge31_Node000016_Node000009" class="edge">
<title>Node16&#45;&gt;Node9</title>
<g id="a_edge31_Node000016_Node000009"><a xlink:title=" ">
<path fill="none" stroke="#63b8ff" d="M962.65,-205.89C852.21,-197.28 647.34,-180.54 473,-162 457.8,-160.38 441.47,-158.45 426.1,-156.55"/>
<polygon fill="#63b8ff" stroke="#63b8ff" points="962.48,-209.39 972.72,-206.67 963.02,-202.41 962.48,-209.39"/>
</a>
</g>
</g>
<!-- Node16&#45;&gt;Node11 -->
<g id="edge32_Node000016_Node000011" class="edge">
<title>Node16&#45;&gt;Node11</title>
<g id="a_edge32_Node000016_Node000011"><a xlink:title=" ">
<path fill="none" stroke="#63b8ff" d="M962.91,-203.94C878.62,-195.1 742.17,-179.78 625,-162 622.08,-161.56 619.1,-161.09 616.1,-160.6"/>
<polygon fill="#63b8ff" stroke="#63b8ff" points="962.62,-207.43 972.93,-204.98 963.34,-200.46 962.62,-207.43"/>
</a>
</g>
</g>
<!-- Node16&#45;&gt;Node13 -->
<g id="edge34_Node000016_Node000013" class="edge">
<title>Node16&#45;&gt;Node13</title>
<g id="a_edge34_Node000016_Node000013"><a xlink:title=" ">
<path fill="none" stroke="#63b8ff" d="M1051.65,-194.36C1062.1,-175.24 1081.59,-145.63 1108,-132 1171.5,-99.23 1661.32,-86.44 1827.81,-83.02"/>
<polygon fill="#63b8ff" stroke="#63b8ff" points="1048.53,-192.78 1047.03,-203.26 1054.75,-196 1048.53,-192.78"/>
</a>
</g>
</g>
<!-- Node16&#45;&gt;Node15 -->
<g id="edge33_Node000016_Node000015" class="edge">
<title>Node16&#45;&gt;Node15</title>
<g id="a_edge33_Node000016_Node000015"><a xlink:title=" ">
<path fill="none" stroke="#63b8ff" d="M1123.65,-208.53C1248.72,-202.55 1496.86,-188.35 1706,-162 1717.47,-160.55 1729.81,-158.58 1741.24,-156.56"/>
<polygon fill="#63b8ff" stroke="#63b8ff" points="1123.22,-205.04 1113.4,-209.01 1123.55,-212.03 1123.22,-205.04"/>
</a>
</g>
</g>
<!-- Node17 -->
<g id="Node000017" class="node">
<title>Node17</title>
<g id="a_Node000017"><a xlink:href="bitstream__util_8cpp.html" target="_top" xlink:title=" ">
<polygon fill="white" stroke="#666666" points="1697,-162 1547,-162 1547,-132 1697,-132 1697,-162"/>
<text text-anchor="start" x="1555" y="-150" font-family="Helvetica,sans-Serif" font-size="10.00">src/lib/bitstreamGeneration</text>
<text text-anchor="middle" x="1622" y="-139" font-family="Helvetica,sans-Serif" font-size="10.00">/bitstream_util.cpp</text>
</a>
</g>
</g>
<!-- Node16&#45;&gt;Node17 -->
<g id="edge24_Node000016_Node000017" class="edge">
<title>Node16&#45;&gt;Node17</title>
<g id="a_edge24_Node000016_Node000017"><a xlink:title=" ">
<path fill="none" stroke="#63b8ff" d="M1123.22,-205.43C1221.1,-197.06 1391.54,-181.32 1537,-162 1540.26,-161.57 1543.59,-161.1 1546.95,-160.62"/>
<polygon fill="#63b8ff" stroke="#63b8ff" points="1122.77,-201.95 1113.11,-206.29 1123.37,-208.93 1122.77,-201.95"/>
</a>
</g>
</g>
<!-- Node18 -->
<g id="Node000018" class="node">
<title>Node18</title>
<g id="a_Node000018"><a xlink:href="encoderFFmpeg_8cpp.html" target="_top" xlink:title=" ">
<polygon fill="white" stroke="#666666" points="1236.5,-162 1117.5,-162 1117.5,-132 1236.5,-132 1236.5,-162"/>
<text text-anchor="start" x="1125.5" y="-150" font-family="Helvetica,sans-Serif" font-size="10.00">src/lib/mapEncoding</text>
<text text-anchor="middle" x="1177" y="-139" font-family="Helvetica,sans-Serif" font-size="10.00">/encoderFFmpeg.cpp</text>
</a>
</g>
</g>
<!-- Node16&#45;&gt;Node18 -->
<g id="edge25_Node000016_Node000018" class="edge">
<title>Node16&#45;&gt;Node18</title>
<g id="a_edge25_Node000016_Node000018"><a xlink:title=" ">
<path fill="none" stroke="#63b8ff" d="M1070.36,-198.93C1092.78,-188.22 1124.45,-173.1 1147.45,-162.12"/>
<polygon fill="#63b8ff" stroke="#63b8ff" points="1068.59,-195.9 1061.07,-203.37 1071.6,-202.22 1068.59,-195.9"/>
</a>
</g>
</g>
<!-- Node19 -->
<g id="Node000019" class="node">
<title>Node19</title>
<g id="a_Node000019"><a xlink:href="encoderKvazaar_8cpp.html" target="_top" xlink:title=" ">
<polygon fill="white" stroke="#666666" points="1373,-162 1255,-162 1255,-132 1373,-132 1373,-162"/>
<text text-anchor="start" x="1263" y="-150" font-family="Helvetica,sans-Serif" font-size="10.00">src/lib/mapEncoding</text>
<text text-anchor="middle" x="1314" y="-139" font-family="Helvetica,sans-Serif" font-size="10.00">/encoderKvazaar.cpp</text>
</a>
</g>
</g>
<!-- Node16&#45;&gt;Node19 -->
<g id="edge26_Node000016_Node000019" class="edge">
<title>Node16&#45;&gt;Node19</title>
<g id="a_edge26_Node000016_Node000019"><a xlink:title=" ">
<path fill="none" stroke="#63b8ff" d="M1089.2,-201.09C1134.93,-190.29 1205.1,-173.72 1254.87,-161.96"/>
<polygon fill="#63b8ff" stroke="#63b8ff" points="1088.19,-197.73 1079.27,-203.44 1089.8,-204.54 1088.19,-197.73"/>
</a>
</g>
</g>
<!-- Node20&#45;&gt;Node2 -->
<g id="edge57_Node000020_Node000002" class="edge">
<title>Node20&#45;&gt;Node2</title>
<g id="a_edge57_Node000020_Node000002"><a xlink:title=" ">
<path fill="none" stroke="#63b8ff" d="M1797.77,-208.24C1654.92,-201.54 1358.18,-185.97 1108,-162 1092.67,-160.53 1076.18,-158.61 1060.75,-156.67"/>
<polygon fill="#63b8ff" stroke="#63b8ff" points="1797.64,-211.73 1807.79,-208.7 1797.96,-204.74 1797.64,-211.73"/>
</a>
</g>
</g>
<!-- Node20&#45;&gt;Node5 -->
<g id="edge60_Node000020_Node000005" class="edge">
<title>Node20&#45;&gt;Node5</title>
<g id="a_edge60_Node000020_Node000005"><a xlink:title=" ">
<path fill="none" stroke="#63b8ff" d="M1797.71,-210.11C1488.57,-203.14 437.16,-178.46 287,-162 284.14,-161.69 281.23,-161.32 278.29,-160.92"/>
<polygon fill="#63b8ff" stroke="#63b8ff" points="1797.88,-213.61 1807.95,-210.34 1798.03,-206.61 1797.88,-213.61"/>
</a>
</g>
</g>
<!-- Node20&#45;&gt;Node6 -->
<g id="edge58_Node000020_Node000006" class="edge">
<title>Node20&#45;&gt;Node6</title>
<g id="a_edge58_Node000020_Node000006"><a xlink:title=" ">
<path fill="none" stroke="#63b8ff" d="M1809.6,-202.09C1739.68,-192.48 1631.53,-177.17 1538,-162 1535.01,-161.52 1531.96,-161.01 1528.88,-160.49"/>
<polygon fill="#63b8ff" stroke="#63b8ff" points="1809.25,-205.58 1819.63,-203.47 1810.2,-198.64 1809.25,-205.58"/>
</a>
</g>
</g>
<!-- Node20&#45;&gt;Node7 -->
<g id="edge59_Node000020_Node000007" class="edge">
<title>Node20&#45;&gt;Node7</title>
<g id="a_edge59_Node000020_Node000007"><a xlink:title=" ">
<path fill="none" stroke="#63b8ff" d="M1797.65,-212.27C1611.1,-211.97 1153.29,-206.31 773,-162 770.14,-161.67 767.23,-161.29 764.29,-160.87"/>
<polygon fill="#63b8ff" stroke="#63b8ff" points="1797.66,-215.77 1807.67,-212.28 1797.67,-208.77 1797.66,-215.77"/>
</a>
</g>
</g>
<!-- Node20&#45;&gt;Node8 -->
<g id="edge61_Node000020_Node000008" class="edge">
<title>Node20&#45;&gt;Node8</title>
<g id="a_edge61_Node000020_Node000008"><a xlink:title=" ">
<path fill="none" stroke="#63b8ff" d="M1797.72,-211.26C1630.13,-208.97 1246.25,-199.7 926,-162 923.34,-161.69 920.62,-161.34 917.89,-160.96"/>
<polygon fill="#63b8ff" stroke="#63b8ff" points="1797.92,-214.76 1807.96,-211.39 1798.01,-207.76 1797.92,-214.76"/>
</a>
</g>
</g>
<!-- Node20&#45;&gt;Node9 -->
<g id="edge62_Node000020_Node000009" class="edge">
<title>Node20&#45;&gt;Node9</title>
<g id="a_edge62_Node000020_Node000009"><a xlink:title=" ">
<path fill="none" stroke="#63b8ff" d="M1797.79,-211.61C1578.02,-210.05 974.13,-202.13 473,-162 457.76,-160.78 441.42,-159 426.05,-157.12"/>
<polygon fill="#63b8ff" stroke="#63b8ff" points="1797.94,-215.12 1807.96,-211.68 1797.99,-208.12 1797.94,-215.12"/>
</a>
</g>
</g>
<!-- Node20&#45;&gt;Node11 -->
<g id="edge63_Node000020_Node000011" class="edge">
<title>Node20&#45;&gt;Node11</title>
<g id="a_edge63_Node000020_Node000011"><a xlink:title=" ">
<path fill="none" stroke="#63b8ff" d="M1797.35,-210.19C1552.57,-204.75 852.94,-187.39 625,-162 622.07,-161.67 619.08,-161.3 616.06,-160.89"/>
<polygon fill="#63b8ff" stroke="#63b8ff" points="1797.54,-213.69 1807.61,-210.41 1797.69,-206.69 1797.54,-213.69"/>
</a>
</g>
</g>
<!-- Node20&#45;&gt;Node13 -->
<g id="edge71_Node000020_Node000013" class="edge">
<title>Node20&#45;&gt;Node13</title>
<g id="a_edge71_Node000020_Node000013"><a xlink:title=" ">
<path fill="none" stroke="#63b8ff" d="M1883,-193.23C1883,-164.72 1883,-111.59 1883,-90.73"/>
<polygon fill="#63b8ff" stroke="#63b8ff" points="1879.5,-193.47 1883,-203.47 1886.5,-193.47 1879.5,-193.47"/>
</a>
</g>
</g>
<!-- Node20&#45;&gt;Node14 -->
<g id="edge64_Node000020_Node000014" class="edge">
<title>Node20&#45;&gt;Node14</title>
<g id="a_edge64_Node000020_Node000014"><a xlink:title=" ">
<path fill="none" stroke="#63b8ff" d="M1968.48,-210.63C2226.55,-206.21 2995.29,-190.91 3244,-162 3248.62,-161.46 3253.38,-160.79 3258.16,-160.03"/>
<polygon fill="#63b8ff" stroke="#63b8ff" points="1968.35,-207.13 1958.41,-210.8 1968.47,-214.13 1968.35,-207.13"/>
</a>
</g>
</g>
<!-- Node20&#45;&gt;Node15 -->
<g id="edge65_Node000020_Node000015" class="edge">
<title>Node20&#45;&gt;Node15</title>
<g id="a_edge65_Node000020_Node000015"><a xlink:title=" ">
<path fill="none" stroke="#63b8ff" d="M1861.33,-197.85C1842.07,-185.27 1814.52,-167.28 1798.32,-156.7"/>
<polygon fill="#63b8ff" stroke="#63b8ff" points="1859.5,-200.83 1869.78,-203.37 1863.32,-194.97 1859.5,-200.83"/>
</a>
</g>
</g>
<!-- Node20&#45;&gt;Node17 -->
<g id="edge47_Node000020_Node000017" class="edge">
<title>Node20&#45;&gt;Node17</title>
<g id="a_edge47_Node000020_Node000017"><a xlink:title=" ">
<path fill="none" stroke="#63b8ff" d="M1838.24,-201.02C1794.28,-190.24 1727.02,-173.75 1679.19,-162.02"/>
<polygon fill="#63b8ff" stroke="#63b8ff" points="1837.53,-204.45 1848.07,-203.44 1839.19,-197.65 1837.53,-204.45"/>
</a>
</g>
</g>
<!-- Node20&#45;&gt;Node18 -->
<g id="edge52_Node000020_Node000018" class="edge">
<title>Node20&#45;&gt;Node18</title>
<g id="a_edge52_Node000020_Node000018"><a xlink:title=" ">
<path fill="none" stroke="#63b8ff" d="M1797.59,-208.61C1675.01,-202.98 1442.34,-189.52 1246,-162 1242.97,-161.58 1239.88,-161.1 1236.76,-160.59"/>
<polygon fill="#63b8ff" stroke="#63b8ff" points="1797.51,-212.11 1807.66,-209.06 1797.83,-205.11 1797.51,-212.11"/>
</a>
</g>
</g>
<!-- Node20&#45;&gt;Node19 -->
<g id="edge53_Node000020_Node000019" class="edge">
<title>Node20&#45;&gt;Node19</title>
<g id="a_edge53_Node000020_Node000019"><a xlink:title=" ">
<path fill="none" stroke="#63b8ff" d="M1797.53,-206.18C1697.53,-198.74 1527.16,-184.13 1382,-162 1379.14,-161.56 1376.22,-161.09 1373.27,-160.58"/>
<polygon fill="#63b8ff" stroke="#63b8ff" points="1797.35,-209.67 1807.58,-206.92 1797.86,-202.69 1797.35,-209.67"/>
</a>
</g>
</g>
<!-- Node21 -->
<g id="Node000021" class="node">
<title>Node21</title>
<g id="a_Node000021"><a xlink:href="atlas__context_8cpp.html" target="_top" xlink:title=" ">
<polygon fill="white" stroke="#666666" points="3408,-96 3258,-96 3258,-66 3408,-66 3408,-96"/>
<text text-anchor="start" x="3266" y="-84" font-family="Helvetica,sans-Serif" font-size="10.00">src/lib/bitstreamGeneration</text>
<text text-anchor="middle" x="3333" y="-73" font-family="Helvetica,sans-Serif" font-size="10.00">/atlas_context.cpp</text>
</a>
</g>
</g>
<!-- Node20&#45;&gt;Node21 -->
<g id="edge36_Node000020_Node000021" class="edge">
<title>Node20&#45;&gt;Node21</title>
<g id="a_edge36_Node000020_Node000021"><a xlink:title=" ">
<path fill="none" stroke="#63b8ff" d="M1968.44,-210.21C2252.8,-204.08 3152.59,-183.1 3211,-162 3231.57,-154.57 3231.94,-144.33 3250,-132 3268.9,-119.1 3291.14,-105.8 3307.84,-96.16"/>
<polygon fill="#63b8ff" stroke="#63b8ff" points="1968.11,-206.72 1958.19,-210.43 1968.26,-213.72 1968.11,-206.72"/>
</a>
</g>
</g>
<!-- Node22 -->
<g id="Node000022" class="node">
<title>Node22</title>
<g id="a_Node000022"><a xlink:href="atlas__context_8hpp.html" target="_top" xlink:title=" ">
<polygon fill="white" stroke="#666666" points="3202,-162 3052,-162 3052,-132 3202,-132 3202,-162"/>
<text text-anchor="start" x="3060" y="-150" font-family="Helvetica,sans-Serif" font-size="10.00">src/lib/bitstreamGeneration</text>
<text text-anchor="middle" x="3127" y="-139" font-family="Helvetica,sans-Serif" font-size="10.00">/atlas_context.hpp</text>
</a>
</g>
</g>
<!-- Node20&#45;&gt;Node22 -->
<g id="edge37_Node000020_Node000022" class="edge">
<title>Node20&#45;&gt;Node22</title>
<g id="a_edge37_Node000020_Node000022"><a xlink:title=" ">
<path fill="none" stroke="#63b8ff" d="M1968.25,-211.88C2160.53,-210.83 2642.43,-203.86 3043,-162 3045.94,-161.69 3048.93,-161.35 3051.96,-160.97"/>
<polygon fill="#63b8ff" stroke="#63b8ff" points="1968.2,-208.38 1958.21,-211.93 1968.23,-215.38 1968.2,-208.38"/>
</a>
</g>
</g>
<!-- Node23 -->
<g id="Node000023" class="node">
<title>Node23</title>
<g id="a_Node000023"><a xlink:href="bitstreamGeneration_8cpp.html" target="_top" xlink:title=" ">
<polygon fill="white" stroke="#666666" points="2931,-30 2781,-30 2781,0 2931,0 2931,-30"/>
<text text-anchor="start" x="2789" y="-18" font-family="Helvetica,sans-Serif" font-size="10.00">src/lib/bitstreamGeneration</text>
<text text-anchor="middle" x="2856" y="-7" font-family="Helvetica,sans-Serif" font-size="10.00">/bitstreamGeneration.cpp</text>
</a>
</g>
</g>
<!-- Node20&#45;&gt;Node23 -->
<g id="edge43_Node000020_Node000023" class="edge">
<title>Node20&#45;&gt;Node23</title>
<g id="a_edge43_Node000020_Node000023"><a xlink:title=" ">
<path fill="none" stroke="#63b8ff" d="M1968.41,-208.74C2195.76,-199.9 2799.61,-175.21 2816,-162 2856.51,-129.34 2858.29,-59.86 2857.01,-30.06"/>
<polygon fill="#63b8ff" stroke="#63b8ff" points="1968.05,-205.25 1958.2,-209.14 1968.32,-212.25 1968.05,-205.25"/>
</a>
</g>
</g>
<!-- Node26 -->
<g id="Node000026" class="node">
<title>Node26</title>
<g id="a_Node000026"><a xlink:href="bitstreamGeneration_8hpp.html" target="_top" xlink:title=" ">
<polygon fill="white" stroke="#666666" points="2647,-162 2497,-162 2497,-132 2647,-132 2647,-162"/>
<text text-anchor="start" x="2505" y="-150" font-family="Helvetica,sans-Serif" font-size="10.00">src/lib/bitstreamGeneration</text>
<text text-anchor="middle" x="2572" y="-139" font-family="Helvetica,sans-Serif" font-size="10.00">/bitstreamGeneration.hpp</text>
</a>
</g>
</g>
<!-- Node20&#45;&gt;Node26 -->
<g id="edge44_Node000020_Node000026" class="edge">
<title>Node20&#45;&gt;Node26</title>
<g id="a_edge44_Node000020_Node000026"><a xlink:title=" ">
<path fill="none" stroke="#63b8ff" d="M1968.34,-207.25C2085.86,-200.18 2304.02,-185.19 2489,-162 2491.61,-161.67 2494.26,-161.32 2496.94,-160.95"/>
<polygon fill="#63b8ff" stroke="#63b8ff" points="1968.09,-203.75 1958.32,-207.84 1968.51,-210.74 1968.09,-203.75"/>
</a>
</g>
</g>
<!-- Node27 -->
<g id="Node000027" class="node">
<title>Node27</title>
<g id="a_Node000027"><a xlink:href="vps_8hpp.html" target="_top" xlink:title=" ">
<polygon fill="white" stroke="#666666" points="3034,-162 2884,-162 2884,-132 3034,-132 3034,-162"/>
<text text-anchor="start" x="2892" y="-150" font-family="Helvetica,sans-Serif" font-size="10.00">src/lib/bitstreamGeneration</text>
<text text-anchor="middle" x="2959" y="-139" font-family="Helvetica,sans-Serif" font-size="10.00">/vps.hpp</text>
</a>
</g>
</g>
<!-- Node20&#45;&gt;Node27 -->
<g id="edge48_Node000020_Node000027" class="edge">
<title>Node20&#45;&gt;Node27</title>
<g id="a_edge48_Node000020_Node000027"><a xlink:title=" ">
<path fill="none" stroke="#63b8ff" d="M1968.33,-210.7C2139.67,-207.43 2537.61,-196.47 2870,-162 2874.51,-161.53 2879.14,-160.99 2883.81,-160.4"/>
<polygon fill="#63b8ff" stroke="#63b8ff" points="1968.05,-207.21 1958.12,-210.89 1968.18,-214.21 1968.05,-207.21"/>
</a>
</g>
</g>
<!-- Node29 -->
<g id="Node000029" class="node">
<title>Node29</title>
<g id="a_Node000029"><a xlink:href="mapEncoding_8cpp.html" target="_top" xlink:title=" ">
<polygon fill="white" stroke="#666666" points="2026.5,-162 1911.5,-162 1911.5,-132 2026.5,-132 2026.5,-162"/>
<text text-anchor="start" x="1919.5" y="-150" font-family="Helvetica,sans-Serif" font-size="10.00">src/lib/mapEncoding</text>
<text text-anchor="middle" x="1969" y="-139" font-family="Helvetica,sans-Serif" font-size="10.00">/mapEncoding.cpp</text>
</a>
</g>
</g>
<!-- Node20&#45;&gt;Node29 -->
<g id="edge54_Node000020_Node000029" class="edge">
<title>Node20&#45;&gt;Node29</title>
<g id="a_edge54_Node000020_Node000029"><a xlink:title=" ">
<path fill="none" stroke="#63b8ff" d="M1902.73,-197.32C1916.94,-186.74 1936,-172.56 1950.03,-162.12"/>
<polygon fill="#63b8ff" stroke="#63b8ff" points="1900.53,-194.59 1894.6,-203.37 1904.71,-200.21 1900.53,-194.59"/>
</a>
</g>
</g>
<!-- Node30 -->
<g id="Node000030" class="node">
<title>Node30</title>
<g id="a_Node000030"><a xlink:href="bgFillAttribute_8cpp.html" target="_top" xlink:title=" ">
<polygon fill="white" stroke="#666666" points="2169.5,-162 2044.5,-162 2044.5,-132 2169.5,-132 2169.5,-162"/>
<text text-anchor="start" x="2052.5" y="-150" font-family="Helvetica,sans-Serif" font-size="10.00">src/lib/mapGeneration</text>
<text text-anchor="middle" x="2107" y="-139" font-family="Helvetica,sans-Serif" font-size="10.00">/bgFillAttribute.cpp</text>
</a>
</g>
</g>
<!-- Node20&#45;&gt;Node30 -->
<g id="edge55_Node000020_Node000030" class="edge">
<title>Node20&#45;&gt;Node30</title>
<g id="a_edge55_Node000020_Node000030"><a xlink:title=" ">
<path fill="none" stroke="#63b8ff" d="M1923.31,-200.48C1960.96,-189.73 2017.26,-173.64 2057.6,-162.12"/>
<polygon fill="#63b8ff" stroke="#63b8ff" points="1921.86,-197.26 1913.21,-203.37 1923.79,-203.99 1921.86,-197.26"/>
</a>
</g>
</g>
<!-- Node31 -->
<g id="Node000031" class="node">
<title>Node31</title>
<g id="a_Node000031"><a xlink:href="bgFillGeometry_8cpp.html" target="_top" xlink:title=" ">
<polygon fill="white" stroke="#666666" points="2312.5,-162 2187.5,-162 2187.5,-132 2312.5,-132 2312.5,-162"/>
<text text-anchor="start" x="2195.5" y="-150" font-family="Helvetica,sans-Serif" font-size="10.00">src/lib/mapGeneration</text>
<text text-anchor="middle" x="2250" y="-139" font-family="Helvetica,sans-Serif" font-size="10.00">/bgFillGeometry.cpp</text>
</a>
</g>
</g>
<!-- Node20&#45;&gt;Node31 -->
<g id="edge56_Node000020_Node000031" class="edge">
<title>Node20&#45;&gt;Node31</title>
<g id="a_edge56_Node000020_Node000031"><a xlink:title=" ">
<path fill="none" stroke="#63b8ff" d="M1946.09,-201.86C2006.07,-192.09 2098.8,-176.68 2179,-162 2181.72,-161.5 2184.49,-160.99 2187.3,-160.46"/>
<polygon fill="#63b8ff" stroke="#63b8ff" points="1945.32,-198.43 1936.01,-203.49 1946.44,-205.34 1945.32,-198.43"/>
</a>
</g>
</g>
<!-- Node32 -->
<g id="Node000032" class="node">
<title>Node32</title>
<g id="a_Node000032"><a xlink:href="parameters_8cpp.html" target="_top" xlink:title=" ">
<polygon fill="white" stroke="#666666" points="2479.5,-156.5 2330.5,-156.5 2330.5,-137.5 2479.5,-137.5 2479.5,-156.5"/>
<text text-anchor="middle" x="2405" y="-144.5" font-family="Helvetica,sans-Serif" font-size="10.00">src/lib/utils/parameters.cpp</text>
</a>
</g>
</g>
<!-- Node20&#45;&gt;Node32 -->
<g id="edge66_Node000020_Node000032" class="edge">
<title>Node20&#45;&gt;Node32</title>
<g id="a_edge66_Node000020_Node000032"><a xlink:title=" ">
<path fill="none" stroke="#63b8ff" d="M1968.11,-203.67C2056.68,-194.69 2199.31,-179.32 2322,-162 2333.43,-160.39 2345.71,-158.44 2357.23,-156.51"/>
<polygon fill="#63b8ff" stroke="#63b8ff" points="1967.71,-200.2 1958.12,-204.68 1968.42,-207.16 1967.71,-200.2"/>
</a>
</g>
</g>
<!-- Node33 -->
<g id="Node000033" class="node">
<title>Node33</title>
<g id="a_Node000033"><a xlink:href="preset_8cpp.html" target="_top" xlink:title=" ">
<polygon fill="white" stroke="#666666" points="2789,-90.5 2665,-90.5 2665,-71.5 2789,-71.5 2789,-90.5"/>
<text text-anchor="middle" x="2727" y="-78.5" font-family="Helvetica,sans-Serif" font-size="10.00">src/lib/utils/preset.cpp</text>
</a>
</g>
</g>
<!-- Node20&#45;&gt;Node33 -->
<g id="edge67_Node000020_Node000033" class="edge">
<title>Node20&#45;&gt;Node33</title>
<g id="a_edge67_Node000020_Node000033"><a xlink:title=" ">
<path fill="none" stroke="#63b8ff" d="M1968.62,-210.48C2190.83,-206.11 2770.7,-191.88 2799,-162 2823.15,-136.49 2773,-105.3 2744.65,-90.54"/>
<polygon fill="#63b8ff" stroke="#63b8ff" points="1968.24,-206.98 1958.31,-210.68 1968.38,-213.98 1968.24,-206.98"/>
</a>
</g>
</g>
<!-- Node34 -->
<g id="Node000034" class="node">
<title>Node34</title>
<g id="a_Node000034"><a xlink:href="preset_8hpp.html" target="_top" xlink:title=" ">
<polygon fill="white" stroke="#666666" points="2789.5,-156.5 2664.5,-156.5 2664.5,-137.5 2789.5,-137.5 2789.5,-156.5"/>
<text text-anchor="middle" x="2727" y="-144.5" font-family="Helvetica,sans-Serif" font-size="10.00">src/lib/utils/preset.hpp</text>
</a>
</g>
</g>
<!-- Node20&#45;&gt;Node34 -->
<g id="edge68_Node000020_Node000034" class="edge">
<title>Node20&#45;&gt;Node34</title>
<g id="a_edge68_Node000020_Node000034"><a xlink:title=" ">
<path fill="none" stroke="#63b8ff" d="M1968.22,-210.11C2111.02,-206.13 2407.43,-194.41 2656,-162 2666.59,-160.62 2677.97,-158.61 2688.46,-156.55"/>
<polygon fill="#63b8ff" stroke="#63b8ff" points="1968.11,-206.61 1958.21,-210.38 1968.3,-213.61 1968.11,-206.61"/>
</a>
</g>
</g>
<!-- Node22&#45;&gt;Node21 -->
<g id="edge38_Node000022_Node000021" class="edge">
<title>Node22&#45;&gt;Node21</title>
<g id="a_edge38_Node000022_Node000021"><a xlink:title=" ">
<path fill="none" stroke="#63b8ff" d="M3182.18,-128.86C3215.26,-118.58 3256.79,-105.68 3287.9,-96.01"/>
<polygon fill="#63b8ff" stroke="#63b8ff" points="3180.72,-125.65 3172.21,-131.95 3182.8,-132.33 3180.72,-125.65"/>
</a>
</g>
</g>
<!-- Node22&#45;&gt;Node23 -->
<g id="edge39_Node000022_Node000023" class="edge">
<title>Node22&#45;&gt;Node23</title>
<g id="a_edge39_Node000022_Node000023"><a xlink:title=" ">
<path fill="none" stroke="#63b8ff" d="M3169.57,-127.37C3199.35,-111.77 3230.57,-88.52 3211,-66 3192.93,-45.21 3030.14,-29.27 2931.39,-21.41"/>
<polygon fill="#63b8ff" stroke="#63b8ff" points="3167.8,-124.34 3160.43,-131.95 3170.94,-130.59 3167.8,-124.34"/>
</a>
</g>
</g>
<!-- Node24 -->
<g id="Node000024" class="node">
<title>Node24</title>
<g id="a_Node000024"><a xlink:href="gof_8hpp.html" target="_top" xlink:title=" ">
<polygon fill="white" stroke="#666666" points="3202,-96 3052,-96 3052,-66 3202,-66 3202,-96"/>
<text text-anchor="start" x="3060" y="-84" font-family="Helvetica,sans-Serif" font-size="10.00">src/lib/bitstreamGeneration</text>
<text text-anchor="middle" x="3127" y="-73" font-family="Helvetica,sans-Serif" font-size="10.00">/gof.hpp</text>
</a>
</g>
</g>
<!-- Node22&#45;&gt;Node24 -->
<g id="edge40_Node000022_Node000024" class="edge">
<title>Node22&#45;&gt;Node24</title>
<g id="a_edge40_Node000022_Node000024"><a xlink:title=" ">
<path fill="none" stroke="#63b8ff" d="M3127,-121.54C3127,-112.96 3127,-103.61 3127,-96.16"/>
<polygon fill="#63b8ff" stroke="#63b8ff" points="3123.5,-121.8 3127,-131.8 3130.5,-121.8 3123.5,-121.8"/>
</a>
</g>
</g>
<!-- Node24&#45;&gt;Node23 -->
<g id="edge41_Node000024_Node000023" class="edge">
<title>Node24&#45;&gt;Node23</title>
<g id="a_edge41_Node000024_Node000023"><a xlink:title=" ">
<path fill="none" stroke="#63b8ff" d="M3057.76,-63.65C3013.73,-53.25 2957.31,-39.93 2915.33,-30.01"/>
<polygon fill="#63b8ff" stroke="#63b8ff" points="3056.99,-67.06 3067.53,-65.95 3058.6,-60.25 3056.99,-67.06"/>
</a>
</g>
</g>
<!-- Node25 -->
<g id="Node000025" class="node">
<title>Node25</title>
<g id="a_Node000025"><a xlink:href="gof_8cpp.html" target="_top" xlink:title=" ">
<polygon fill="white" stroke="#666666" points="3202,-30 3052,-30 3052,0 3202,0 3202,-30"/>
<text text-anchor="start" x="3060" y="-18" font-family="Helvetica,sans-Serif" font-size="10.00">src/lib/bitstreamGeneration</text>
<text text-anchor="middle" x="3127" y="-7" font-family="Helvetica,sans-Serif" font-size="10.00">/gof.cpp</text>
</a>
</g>
</g>
<!-- Node24&#45;&gt;Node25 -->
<g id="edge42_Node000024_Node000025" class="edge">
<title>Node24&#45;&gt;Node25</title>
<g id="a_edge42_Node000024_Node000025"><a xlink:title=" ">
<path fill="none" stroke="#63b8ff" d="M3127,-55.54C3127,-46.96 3127,-37.61 3127,-30.16"/>
<polygon fill="#63b8ff" stroke="#63b8ff" points="3123.5,-55.8 3127,-65.8 3130.5,-55.8 3123.5,-55.8"/>
</a>
</g>
</g>
<!-- Node26&#45;&gt;Node13 -->
<g id="edge46_Node000026_Node000013" class="edge">
<title>Node26&#45;&gt;Node13</title>
<g id="a_edge46_Node000026_Node000013"><a xlink:title=" ">
<path fill="none" stroke="#63b8ff" d="M2486.76,-131.78C2279.08,-106.16 2043.34,-91.01 1938.31,-84.99"/>
<polygon fill="#63b8ff" stroke="#63b8ff" points="2486.59,-135.28 2496.94,-133.05 2487.45,-128.34 2486.59,-135.28"/>
</a>
</g>
</g>
<!-- Node26&#45;&gt;Node23 -->
<g id="edge45_Node000026_Node000023" class="edge">
<title>Node26&#45;&gt;Node23</title>
<g id="a_edge45_Node000026_Node000023"><a xlink:title=" ">
<path fill="none" stroke="#63b8ff" d="M2589.39,-124.02C2604.95,-105.82 2629.38,-80.65 2656,-66 2694.41,-44.86 2741.86,-32.51 2780.9,-25.37"/>
<polygon fill="#63b8ff" stroke="#63b8ff" points="2586.59,-121.91 2582.88,-131.83 2591.97,-126.39 2586.59,-121.91"/>
</a>
</g>
</g>
<!-- Node27&#45;&gt;Node23 -->
<g id="edge49_Node000027_Node000023" class="edge">
<title>Node27&#45;&gt;Node23</title>
<g id="a_edge49_Node000027_Node000023"><a xlink:title=" ">
<path fill="none" stroke="#63b8ff" d="M2912.87,-127.2C2898.86,-119.44 2884.64,-109.13 2875,-96 2860.55,-76.33 2856.93,-47.24 2856.11,-30.1"/>
<polygon fill="#63b8ff" stroke="#63b8ff" points="2911.51,-130.44 2922,-131.94 2914.73,-124.23 2911.51,-130.44"/>
</a>
</g>
</g>
<!-- Node27&#45;&gt;Node24 -->
<g id="edge50_Node000027_Node000024" class="edge">
<title>Node27&#45;&gt;Node24</title>
<g id="a_edge50_Node000027_Node000024"><a xlink:title=" ">
<path fill="none" stroke="#63b8ff" d="M3005.4,-128.32C3032.14,-118.14 3065.29,-105.51 3090.22,-96.01"/>
<polygon fill="#63b8ff" stroke="#63b8ff" points="3003.97,-125.12 2995.87,-131.95 3006.46,-131.67 3003.97,-125.12"/>
</a>
</g>
</g>
<!-- Node28 -->
<g id="Node000028" class="node">
<title>Node28</title>
<g id="a_Node000028"><a xlink:href="vps_8cpp.html" target="_top" xlink:title=" ">
<polygon fill="white" stroke="#666666" points="3034,-96 2884,-96 2884,-66 3034,-66 3034,-96"/>
<text text-anchor="start" x="2892" y="-84" font-family="Helvetica,sans-Serif" font-size="10.00">src/lib/bitstreamGeneration</text>
<text text-anchor="middle" x="2959" y="-73" font-family="Helvetica,sans-Serif" font-size="10.00">/vps.cpp</text>
</a>
</g>
</g>
<!-- Node27&#45;&gt;Node28 -->
<g id="edge51_Node000027_Node000028" class="edge">
<title>Node27&#45;&gt;Node28</title>
<g id="a_edge51_Node000027_Node000028"><a xlink:title=" ">
<path fill="none" stroke="#63b8ff" d="M2959,-121.54C2959,-112.96 2959,-103.61 2959,-96.16"/>
<polygon fill="#63b8ff" stroke="#63b8ff" points="2955.5,-121.8 2959,-131.8 2962.5,-121.8 2955.5,-121.8"/>
</a>
</g>
</g>
<!-- Node34&#45;&gt;Node13 -->
<g id="edge70_Node000034_Node000013" class="edge">
<title>Node34&#45;&gt;Node13</title>
<g id="a_edge70_Node000034_Node000013"><a xlink:title=" ">
<path fill="none" stroke="#63b8ff" d="M2678.42,-135.55C2670.94,-134.19 2663.28,-132.95 2656,-132 2388.29,-97.1 2065.1,-86.19 1938.07,-83.1"/>
<polygon fill="#63b8ff" stroke="#63b8ff" points="2677.98,-139.03 2688.46,-137.45 2679.29,-132.15 2677.98,-139.03"/>
</a>
</g>
</g>
<!-- Node34&#45;&gt;Node33 -->
<g id="edge69_Node000034_Node000033" class="edge">
<title>Node34&#45;&gt;Node33</title>
<g id="a_edge69_Node000034_Node000033"><a xlink:title=" ">
<path fill="none" stroke="#63b8ff" d="M2727,-127.08C2727,-115.13 2727,-100.22 2727,-90.91"/>
<polygon fill="#63b8ff" stroke="#63b8ff" points="2723.5,-127.37 2727,-137.37 2730.5,-127.37 2723.5,-127.37"/>
</a>
</g>
</g>
</g>
</svg>
