<?xml version="1.0" encoding="UTF-8" standalone="no"?>
<!DOCTYPE svg PUBLIC "-//W3C//DTD SVG 1.1//EN"
 "http://www.w3.org/Graphics/SVG/1.1/DTD/svg11.dtd">
<!-- Generated by graphviz version 2.43.0 (0)
 -->
<!-- Title: src/app/uvgVPCCencAppExample.cpp Pages: 1 -->
<!--zoomable 137 -->

<svg id="main" version="1.1" xmlns="http://www.w3.org/2000/svg" xmlns:xlink="http://www.w3.org/1999/xlink" xml:space="preserve" onload="init(evt)">
<style type="text/css"><![CDATA[
.node, .edge {opacity: 0.7;}
.node.selected, .edge.selected {opacity: 1;}
.edge:hover path { stroke: red; }
.edge:hover polygon { stroke: red; fill: red; }
]]></style>

<defs>
  <circle id="rim" cx="0" cy="0" r="7"/>
  <circle id="rim2" cx="0" cy="0" r="3.5"/>
  <g id="zoomPlus">
    <use xlink:href="#rim" fill="#404040"><set attributeName="fill" to="#808080" begin="zoomplus.mouseover" end="zoomplus.mouseout"/></use>
    <path d="M-4,0h8M0,-4v8" fill="none" stroke="white" stroke-width="1.5" pointer-events="none"/>
  </g>
  <g id="zoomMin">
    <use xlink:href="#rim" fill="#404040"><set attributeName="fill" to="#808080" begin="zoomminus.mouseover" end="zoomminus.mouseout"/></use>
    <path d="M-4,0h8" fill="none" stroke="white" stroke-width="1.5" pointer-events="none"/>
  </g>
  <g id="arrowUp" transform="translate(30 24)">
    <use xlink:href="#rim"/>
    <path pointer-events="none" fill="none" stroke="white" stroke-width="1.5" d="M0,-3.0v7 M-2.5,-0.5L0,-3.0L2.5,-0.5"/>
  </g>
  <g id="arrowRight" transform="rotate(90) translate(36 -43)">
    <use xlink:href="#rim"/>
    <path pointer-events="none" fill="none" stroke="white" stroke-width="1.5" d="M0,-3.0v7 M-2.5,-0.5L0,-3.0L2.5,-0.5"/>
  </g>
  <g id="arrowDown" transform="rotate(180) translate(-30 -48)">
    <use xlink:href="#rim"/>
    <path pointer-events="none" fill="none" stroke="white" stroke-width="1.5" d="M0,-3.0v7 M-2.5,-0.5L0,-3.0L2.5,-0.5"/>
  </g>
  <g id="arrowLeft" transform="rotate(270) translate(-36 17)">
    <use xlink:href="#rim"/>
    <path pointer-events="none" fill="none" stroke="white" stroke-width="1.5" d="M0,-3.0v7 M-2.5,-0.5L0,-3.0L2.5,-0.5"/>
  </g>
  <g id="resetDef">
    <use xlink:href="#rim2" fill="#404040"><set attributeName="fill" to="#808080" begin="reset.mouseover" end="reset.mouseout"/></use>
  </g>
</defs>
<script type="application/ecmascript">
var viewWidth = 1923;
var viewHeight = 137;
var sectionId = 'dynsection-0';
</script>
<script type="application/ecmascript" xlink:href="svg.min.js"/>
<svg id="graph" class="graph">
<g id="viewport">
<title>src/app/uvgVPCCencAppExample.cpp</title>
<!-- Node1 -->
<g id="Node000001" class="node">
<title>Node1</title>
<g id="a_Node000001"><a xlink:title=" ">
<polygon fill="#999999" stroke="#666666" points="1091,-129 893,-129 893,-110 1091,-110 1091,-129"/>
<text text-anchor="middle" x="992" y="-117" font-family="Helvetica,sans-Serif" font-size="10.00">src/app/uvgVPCCencAppExample.cpp</text>
</a>
</g>
</g>
<!-- Node2 -->
<g id="Node000002" class="node">
<title>Node2</title>
<g id="a_Node000002"><a xlink:title=" ">
<polygon fill="#e0e0e0" stroke="#999999" points="801,-19 737,-19 737,0 801,0 801,-19"/>
<text text-anchor="middle" x="769" y="-7" font-family="Helvetica,sans-Serif" font-size="10.00">algorithm</text>
</a>
</g>
</g>
<!-- Node1&#45;&gt;Node2 -->
<g id="edge1_Node000001_Node000002" class="edge">
<title>Node1&#45;&gt;Node2</title>
<g id="a_edge1_Node000001_Node000002"><a xlink:title=" ">
<path fill="none" stroke="#63b8ff" d="M892.99,-111.07C840.76,-104.87 784.19,-93.73 768,-74 757.84,-61.63 759.53,-42.86 762.89,-28.94"/>
<polygon fill="#63b8ff" stroke="#63b8ff" points="766.34,-29.6 765.75,-19.02 759.62,-27.66 766.34,-29.6"/>
</a>
</g>
</g>
<!-- Node3 -->
<g id="Node000003" class="node">
<title>Node3</title>
<g id="a_Node000003"><a xlink:title=" ">
<polygon fill="#e0e0e0" stroke="#999999" points="1119,-74 1077,-74 1077,-55 1119,-55 1119,-74"/>
<text text-anchor="middle" x="1098" y="-62" font-family="Helvetica,sans-Serif" font-size="10.00">array</text>
</a>
</g>
</g>
<!-- Node1&#45;&gt;Node3 -->
<g id="edge2_Node000001_Node000003" class="edge">
<title>Node1&#45;&gt;Node3</title>
<g id="a_edge2_Node000001_Node000003"><a xlink:title=" ">
<path fill="none" stroke="#63b8ff" d="M1009.03,-109.98C1025.93,-101.54 1052.06,-88.47 1071.64,-78.68"/>
<polygon fill="#63b8ff" stroke="#63b8ff" points="1073.28,-81.77 1080.66,-74.17 1070.15,-75.51 1073.28,-81.77"/>
</a>
</g>
</g>
<!-- Node4 -->
<g id="Node000004" class="node">
<title>Node4</title>
<g id="a_Node000004"><a xlink:title=" ">
<polygon fill="#e0e0e0" stroke="#999999" points="1189,-74 1137,-74 1137,-55 1189,-55 1189,-74"/>
<text text-anchor="middle" x="1163" y="-62" font-family="Helvetica,sans-Serif" font-size="10.00">cassert</text>
</a>
</g>
</g>
<!-- Node1&#45;&gt;Node4 -->
<g id="edge3_Node000001_Node000004" class="edge">
<title>Node1&#45;&gt;Node4</title>
<g id="a_edge3_Node000001_Node000004"><a xlink:title=" ">
<path fill="none" stroke="#63b8ff" d="M1019.47,-109.98C1048.69,-100.93 1095.03,-86.57 1127.12,-76.62"/>
<polygon fill="#63b8ff" stroke="#63b8ff" points="1128.48,-79.86 1137,-73.56 1126.41,-73.18 1128.48,-79.86"/>
</a>
</g>
</g>
<!-- Node5 -->
<g id="Node000005" class="node">
<title>Node5</title>
<g id="a_Node000005"><a xlink:title=" ">
<polygon fill="#e0e0e0" stroke="#999999" points="1258.5,-74 1207.5,-74 1207.5,-55 1258.5,-55 1258.5,-74"/>
<text text-anchor="middle" x="1233" y="-62" font-family="Helvetica,sans-Serif" font-size="10.00">csignal</text>
</a>
</g>
</g>
<!-- Node1&#45;&gt;Node5 -->
<g id="edge4_Node000001_Node000005" class="edge">
<title>Node1&#45;&gt;Node5</title>
<g id="a_edge4_Node000001_Node000005"><a xlink:title=" ">
<path fill="none" stroke="#63b8ff" d="M1033.11,-109.94C1072.62,-101.64 1134.28,-88.51 1197.28,-74.12"/>
<polygon fill="#63b8ff" stroke="#63b8ff" points="1198.44,-77.44 1207.4,-71.8 1196.87,-70.62 1198.44,-77.44"/>
</a>
</g>
</g>
<!-- Node6 -->
<g id="Node000006" class="node">
<title>Node6</title>
<g id="a_Node000006"><a xlink:title=" ">
<polygon fill="#e0e0e0" stroke="#999999" points="872.5,-19 819.5,-19 819.5,0 872.5,0 872.5,-19"/>
<text text-anchor="middle" x="846" y="-7" font-family="Helvetica,sans-Serif" font-size="10.00">cstddef</text>
</a>
</g>
</g>
<!-- Node1&#45;&gt;Node6 -->
<g id="edge5_Node000001_Node000006" class="edge">
<title>Node1&#45;&gt;Node6</title>
<g id="a_edge5_Node000001_Node000006"><a xlink:title=" ">
<path fill="none" stroke="#63b8ff" d="M892.96,-110.16C843.59,-103.73 791.21,-92.66 776,-74 760.01,-54.38 788.72,-35.34 814.06,-23.31"/>
<polygon fill="#63b8ff" stroke="#63b8ff" points="815.82,-26.36 823.5,-19.06 812.95,-19.97 815.82,-26.36"/>
</a>
</g>
</g>
<!-- Node7 -->
<g id="Node000007" class="node">
<title>Node7</title>
<g id="a_Node000007"><a xlink:title=" ">
<polygon fill="#e0e0e0" stroke="#999999" points="170,-19 120,-19 120,0 170,0 170,-19"/>
<text text-anchor="middle" x="145" y="-7" font-family="Helvetica,sans-Serif" font-size="10.00">cstdint</text>
</a>
</g>
</g>
<!-- Node1&#45;&gt;Node7 -->
<g id="edge6_Node000001_Node000007" class="edge">
<title>Node1&#45;&gt;Node7</title>
<g id="a_edge6_Node000001_Node000007"><a xlink:title=" ">
<path fill="none" stroke="#63b8ff" d="M892.88,-119.26C686.22,-119.98 223.71,-116.72 167,-74 153.19,-63.6 147.99,-43.95 146.07,-29.26"/>
<polygon fill="#63b8ff" stroke="#63b8ff" points="149.55,-28.86 145.15,-19.22 142.58,-29.5 149.55,-28.86"/>
</a>
</g>
</g>
<!-- Node8 -->
<g id="Node000008" class="node">
<title>Node8</title>
<g id="a_Node000008"><a xlink:title=" ">
<polygon fill="#e0e0e0" stroke="#999999" points="234,-19 188,-19 188,0 234,0 234,-19"/>
<text text-anchor="middle" x="211" y="-7" font-family="Helvetica,sans-Serif" font-size="10.00">cstdio</text>
</a>
</g>
</g>
<!-- Node1&#45;&gt;Node8 -->
<g id="edge7_Node000001_Node000008" class="edge">
<title>Node1&#45;&gt;Node8</title>
<g id="a_edge7_Node000001_Node000008"><a xlink:title=" ">
<path fill="none" stroke="#63b8ff" d="M892.85,-115.75C711.48,-110.2 339.8,-96.27 285,-74 260.12,-63.89 237.66,-41.93 224.18,-26.68"/>
<polygon fill="#63b8ff" stroke="#63b8ff" points="226.8,-24.37 217.65,-19.02 221.47,-28.91 226.8,-24.37"/>
</a>
</g>
</g>
<!-- Node9 -->
<g id="Node000009" class="node">
<title>Node9</title>
<g id="a_Node000009"><a xlink:title=" ">
<polygon fill="#e0e0e0" stroke="#999999" points="1325.5,-74 1276.5,-74 1276.5,-55 1325.5,-55 1325.5,-74"/>
<text text-anchor="middle" x="1301" y="-62" font-family="Helvetica,sans-Serif" font-size="10.00">cstdlib</text>
</a>
</g>
</g>
<!-- Node1&#45;&gt;Node9 -->
<g id="edge8_Node000001_Node000009" class="edge">
<title>Node1&#45;&gt;Node9</title>
<g id="a_edge8_Node000001_Node000009"><a xlink:title=" ">
<path fill="none" stroke="#63b8ff" d="M1055.33,-109.98C1109.17,-102.36 1188.7,-90.19 1266.25,-74.22"/>
<polygon fill="#63b8ff" stroke="#63b8ff" points="1267.11,-77.62 1276.19,-72.15 1265.69,-70.76 1267.11,-77.62"/>
</a>
</g>
</g>
<!-- Node10 -->
<g id="Node000010" class="node">
<title>Node10</title>
<g id="a_Node000010"><a xlink:title=" ">
<polygon fill="#e0e0e0" stroke="#999999" points="1408.5,-74 1343.5,-74 1343.5,-55 1408.5,-55 1408.5,-74"/>
<text text-anchor="middle" x="1376" y="-62" font-family="Helvetica,sans-Serif" font-size="10.00">exception</text>
</a>
</g>
</g>
<!-- Node1&#45;&gt;Node10 -->
<g id="edge9_Node000001_Node000010" class="edge">
<title>Node1&#45;&gt;Node10</title>
<g id="a_edge9_Node000001_Node000010"><a xlink:title=" ">
<path fill="none" stroke="#63b8ff" d="M1070.92,-109.97C1138.22,-102.31 1237.76,-90.05 1333.25,-74.19"/>
<polygon fill="#63b8ff" stroke="#63b8ff" points="1334.08,-77.6 1343.37,-72.5 1332.93,-70.7 1334.08,-77.6"/>
</a>
</g>
</g>
<!-- Node11 -->
<g id="Node000011" class="node">
<title>Node11</title>
<g id="a_Node000011"><a xlink:title=" ">
<polygon fill="#e0e0e0" stroke="#999999" points="1481.5,-74 1426.5,-74 1426.5,-55 1481.5,-55 1481.5,-74"/>
<text text-anchor="middle" x="1454" y="-62" font-family="Helvetica,sans-Serif" font-size="10.00">fstream</text>
</a>
</g>
</g>
<!-- Node1&#45;&gt;Node11 -->
<g id="edge10_Node000001_Node000011" class="edge">
<title>Node1&#45;&gt;Node11</title>
<g id="a_edge10_Node000001_Node000011"><a xlink:title=" ">
<path fill="none" stroke="#63b8ff" d="M1091.05,-111.76C1175.25,-105.19 1299.47,-93.55 1416,-74.16"/>
<polygon fill="#63b8ff" stroke="#63b8ff" points="1416.89,-77.56 1426.16,-72.44 1415.72,-70.66 1416.89,-77.56"/>
</a>
</g>
</g>
<!-- Node12 -->
<g id="Node000012" class="node">
<title>Node12</title>
<g id="a_Node000012"><a xlink:title=" ">
<polygon fill="#e0e0e0" stroke="#999999" points="719,-19 659,-19 659,0 719,0 719,-19"/>
<text text-anchor="middle" x="689" y="-7" font-family="Helvetica,sans-Serif" font-size="10.00">iostream</text>
</a>
</g>
</g>
<!-- Node1&#45;&gt;Node12 -->
<g id="edge11_Node000001_Node000012" class="edge">
<title>Node1&#45;&gt;Node12</title>
<g id="a_edge11_Node000001_Node000012"><a xlink:title=" ">
<path fill="none" stroke="#63b8ff" d="M892.83,-112.18C849.32,-106.32 798.76,-95.17 757,-74 734.6,-62.64 714.32,-41.66 701.86,-26.93"/>
<polygon fill="#63b8ff" stroke="#63b8ff" points="704.5,-24.63 695.46,-19.1 699.08,-29.06 704.5,-24.63"/>
</a>
</g>
</g>
<!-- Node13 -->
<g id="Node000013" class="node">
<title>Node13</title>
<g id="a_Node000013"><a xlink:title=" ">
<polygon fill="#e0e0e0" stroke="#999999" points="1552.5,-74 1499.5,-74 1499.5,-55 1552.5,-55 1552.5,-74"/>
<text text-anchor="middle" x="1526" y="-62" font-family="Helvetica,sans-Serif" font-size="10.00">iterator</text>
</a>
</g>
</g>
<!-- Node1&#45;&gt;Node13 -->
<g id="edge12_Node000001_Node000013" class="edge">
<title>Node1&#45;&gt;Node13</title>
<g id="a_edge12_Node000001_Node000013"><a xlink:title=" ">
<path fill="none" stroke="#63b8ff" d="M1091.02,-114.03C1189.73,-108.59 1345.75,-97.28 1489.04,-74.1"/>
<polygon fill="#63b8ff" stroke="#63b8ff" points="1490.03,-77.48 1499.33,-72.41 1488.9,-70.58 1490.03,-77.48"/>
</a>
</g>
</g>
<!-- Node14 -->
<g id="Node000014" class="node">
<title>Node14</title>
<g id="a_Node000014"><a xlink:title=" ">
<polygon fill="#e0e0e0" stroke="#999999" points="1125,-19 1067,-19 1067,0 1125,0 1125,-19"/>
<text text-anchor="middle" x="1096" y="-7" font-family="Helvetica,sans-Serif" font-size="10.00">memory</text>
</a>
</g>
</g>
<!-- Node1&#45;&gt;Node14 -->
<g id="edge13_Node000001_Node000014" class="edge">
<title>Node1&#45;&gt;Node14</title>
<g id="a_edge13_Node000001_Node000014"><a xlink:title=" ">
<path fill="none" stroke="#63b8ff" d="M981.53,-109.82C967.51,-97.14 945.85,-73.09 959,-55 964.97,-46.78 1018.55,-31.07 1056.9,-20.69"/>
<polygon fill="#63b8ff" stroke="#63b8ff" points="1058.02,-24.01 1066.77,-18.04 1056.21,-17.25 1058.02,-24.01"/>
</a>
</g>
</g>
<!-- Node15 -->
<g id="Node000015" class="node">
<title>Node15</title>
<g id="a_Node000015"><a xlink:title=" ">
<polygon fill="#e0e0e0" stroke="#999999" points="1615,-74 1571,-74 1571,-55 1615,-55 1615,-74"/>
<text text-anchor="middle" x="1593" y="-62" font-family="Helvetica,sans-Serif" font-size="10.00">regex</text>
</a>
</g>
</g>
<!-- Node1&#45;&gt;Node15 -->
<g id="edge14_Node000001_Node000015" class="edge">
<title>Node1&#45;&gt;Node15</title>
<g id="a_edge14_Node000001_Node000015"><a xlink:title=" ">
<path fill="none" stroke="#63b8ff" d="M1091.05,-116.45C1203.14,-112.85 1391.13,-102.93 1560.9,-73.85"/>
<polygon fill="#63b8ff" stroke="#63b8ff" points="1561.51,-77.3 1570.76,-72.14 1560.31,-70.4 1561.51,-77.3"/>
</a>
</g>
</g>
<!-- Node16 -->
<g id="Node000016" class="node">
<title>Node16</title>
<g id="a_Node000016"><a xlink:title=" ">
<polygon fill="#e0e0e0" stroke="#999999" points="1214.5,-19 1143.5,-19 1143.5,0 1214.5,0 1214.5,-19"/>
<text text-anchor="middle" x="1179" y="-7" font-family="Helvetica,sans-Serif" font-size="10.00">semaphore</text>
</a>
</g>
</g>
<!-- Node1&#45;&gt;Node16 -->
<g id="edge15_Node000001_Node000016" class="edge">
<title>Node1&#45;&gt;Node16</title>
<g id="a_edge15_Node000001_Node000016"><a xlink:title=" ">
<path fill="none" stroke="#63b8ff" d="M989.84,-109.93C987,-96.52 983.82,-70.5 997,-55 1001.49,-49.72 1080.85,-31.71 1133.28,-20.28"/>
<polygon fill="#63b8ff" stroke="#63b8ff" points="1134.34,-23.63 1143.37,-18.09 1132.86,-16.79 1134.34,-23.63"/>
</a>
</g>
</g>
<!-- Node17 -->
<g id="Node000017" class="node">
<title>Node17</title>
<g id="a_Node000017"><a xlink:title=" ">
<polygon fill="#e0e0e0" stroke="#999999" points="40,-19 0,-19 0,0 40,0 40,-19"/>
<text text-anchor="middle" x="20" y="-7" font-family="Helvetica,sans-Serif" font-size="10.00">span</text>
</a>
</g>
</g>
<!-- Node1&#45;&gt;Node17 -->
<g id="edge16_Node000001_Node000017" class="edge">
<title>Node1&#45;&gt;Node17</title>
<g id="a_edge16_Node000001_Node000017"><a xlink:title=" ">
<path fill="none" stroke="#63b8ff" d="M892.69,-118.21C701.19,-116.83 287.63,-109.67 150,-74 109.47,-63.5 66.6,-39.74 41.62,-24.45"/>
<polygon fill="#63b8ff" stroke="#63b8ff" points="43.3,-21.38 32.97,-19.05 39.6,-27.32 43.3,-21.38"/>
</a>
</g>
</g>
<!-- Node18 -->
<g id="Node000018" class="node">
<title>Node18</title>
<g id="a_Node000018"><a xlink:title=" ">
<polygon fill="#e0e0e0" stroke="#999999" points="1289,-19 1233,-19 1233,0 1289,0 1289,-19"/>
<text text-anchor="middle" x="1261" y="-7" font-family="Helvetica,sans-Serif" font-size="10.00">sstream</text>
</a>
</g>
</g>
<!-- Node1&#45;&gt;Node18 -->
<g id="edge17_Node000001_Node000018" class="edge">
<title>Node1&#45;&gt;Node18</title>
<g id="a_edge17_Node000001_Node000018"><a xlink:title=" ">
<path fill="none" stroke="#63b8ff" d="M995.25,-109.91C1000.99,-95.96 1014.31,-68.61 1035,-55 1103.79,-9.75 1137.75,-34.56 1222.69,-19.08"/>
<polygon fill="#63b8ff" stroke="#63b8ff" points="1223.6,-22.47 1232.74,-17.11 1222.26,-15.6 1223.6,-22.47"/>
</a>
</g>
</g>
<!-- Node19 -->
<g id="Node000019" class="node">
<title>Node19</title>
<g id="a_Node000019"><a xlink:title=" ">
<polygon fill="#e0e0e0" stroke="#999999" points="1698.5,-74 1633.5,-74 1633.5,-55 1698.5,-55 1698.5,-74"/>
<text text-anchor="middle" x="1666" y="-62" font-family="Helvetica,sans-Serif" font-size="10.00">stdexcept</text>
</a>
</g>
</g>
<!-- Node1&#45;&gt;Node19 -->
<g id="edge18_Node000001_Node000019" class="edge">
<title>Node1&#45;&gt;Node19</title>
<g id="a_edge18_Node000001_Node000019"><a xlink:title=" ">
<path fill="none" stroke="#63b8ff" d="M1091.2,-115.48C1213.87,-110.86 1429.15,-99.83 1622.96,-73.95"/>
<polygon fill="#63b8ff" stroke="#63b8ff" points="1623.61,-77.39 1633.05,-72.59 1622.67,-70.46 1623.61,-77.39"/>
</a>
</g>
</g>
<!-- Node20 -->
<g id="Node000020" class="node">
<title>Node20</title>
<g id="a_Node000020"><a xlink:title=" ">
<polygon fill="#e0e0e0" stroke="#999999" points="433,-19 389,-19 389,0 433,0 433,-19"/>
<text text-anchor="middle" x="411" y="-7" font-family="Helvetica,sans-Serif" font-size="10.00">string</text>
</a>
</g>
</g>
<!-- Node1&#45;&gt;Node20 -->
<g id="edge19_Node000001_Node000020" class="edge">
<title>Node1&#45;&gt;Node20</title>
<g id="a_edge19_Node000001_Node000020"><a xlink:title=" ">
<path fill="none" stroke="#63b8ff" d="M892.75,-116.49C767.74,-112.8 560.71,-102.47 490,-74 464.38,-63.69 440.48,-42.15 425.83,-27.03"/>
<polygon fill="#63b8ff" stroke="#63b8ff" points="428.07,-24.31 418.68,-19.41 422.96,-29.1 428.07,-24.31"/>
</a>
</g>
</g>
<!-- Node21 -->
<g id="Node000021" class="node">
<title>Node21</title>
<g id="a_Node000021"><a xlink:title=" ">
<polygon fill="#e0e0e0" stroke="#999999" points="1765,-74 1717,-74 1717,-55 1765,-55 1765,-74"/>
<text text-anchor="middle" x="1741" y="-62" font-family="Helvetica,sans-Serif" font-size="10.00">thread</text>
</a>
</g>
</g>
<!-- Node1&#45;&gt;Node21 -->
<g id="edge20_Node000001_Node000021" class="edge">
<title>Node1&#45;&gt;Node21</title>
<g id="a_edge20_Node000001_Node000021"><a xlink:title=" ">
<path fill="none" stroke="#63b8ff" d="M1091.09,-118.27C1227.84,-116.63 1482.07,-108.82 1706.95,-73.83"/>
<polygon fill="#63b8ff" stroke="#63b8ff" points="1707.63,-77.27 1716.96,-72.25 1706.54,-70.36 1707.63,-77.27"/>
</a>
</g>
</g>
<!-- Node22 -->
<g id="Node000022" class="node">
<title>Node22</title>
<g id="a_Node000022"><a xlink:title=" ">
<polygon fill="#e0e0e0" stroke="#999999" points="1828.5,-74 1783.5,-74 1783.5,-55 1828.5,-55 1828.5,-74"/>
<text text-anchor="middle" x="1806" y="-62" font-family="Helvetica,sans-Serif" font-size="10.00">utility</text>
</a>
</g>
</g>
<!-- Node1&#45;&gt;Node22 -->
<g id="edge21_Node000001_Node000022" class="edge">
<title>Node1&#45;&gt;Node22</title>
<g id="a_edge21_Node000001_Node000022"><a xlink:title=" ">
<path fill="none" stroke="#63b8ff" d="M1091.14,-119.27C1238.3,-118.98 1523.14,-112.97 1773.39,-73.7"/>
<polygon fill="#63b8ff" stroke="#63b8ff" points="1774.07,-77.14 1783.4,-72.11 1772.97,-70.23 1774.07,-77.14"/>
</a>
</g>
</g>
<!-- Node23 -->
<g id="Node000023" class="node">
<title>Node23</title>
<g id="a_Node000023"><a xlink:title=" ">
<polygon fill="#e0e0e0" stroke="#999999" points="299.5,-19 252.5,-19 252.5,0 299.5,0 299.5,-19"/>
<text text-anchor="middle" x="276" y="-7" font-family="Helvetica,sans-Serif" font-size="10.00">vector</text>
</a>
</g>
</g>
<!-- Node1&#45;&gt;Node23 -->
<g id="edge22_Node000001_Node000023" class="edge">
<title>Node1&#45;&gt;Node23</title>
<g id="a_edge22_Node000001_Node000023"><a xlink:title=" ">
<path fill="none" stroke="#63b8ff" d="M892.89,-117.91C784.28,-115.5 605.45,-106.35 455,-74 447.61,-72.41 358.97,-40.52 309.27,-22.55"/>
<polygon fill="#63b8ff" stroke="#63b8ff" points="310.18,-19.16 299.59,-19.05 307.8,-25.74 310.18,-19.16"/>
</a>
</g>
</g>
<!-- Node24 -->
<g id="Node000024" class="node">
<title>Node24</title>
<g id="a_Node000024"><a xlink:title=" ">
<polygon fill="#e0e0e0" stroke="#999999" points="1915,-74 1847,-74 1847,-55 1915,-55 1915,-74"/>
<text text-anchor="middle" x="1881" y="-62" font-family="Helvetica,sans-Serif" font-size="10.00">filesystem</text>
</a>
</g>
</g>
<!-- Node1&#45;&gt;Node24 -->
<g id="edge23_Node000001_Node000024" class="edge">
<title>Node1&#45;&gt;Node24</title>
<g id="a_edge23_Node000001_Node000024"><a xlink:title=" ">
<path fill="none" stroke="#63b8ff" d="M1091.07,-117.86C1247.53,-115.83 1561.48,-107.66 1836.62,-73.98"/>
<polygon fill="#63b8ff" stroke="#63b8ff" points="1837.31,-77.42 1846.8,-72.72 1836.45,-70.47 1837.31,-77.42"/>
</a>
</g>
</g>
<!-- Node25 -->
<g id="Node000025" class="node">
<title>Node25</title>
<g id="a_Node000025"><a xlink:title=" ">
<polygon fill="#e0e0e0" stroke="#999999" points="1399,-19 1307,-19 1307,0 1399,0 1399,-19"/>
<text text-anchor="middle" x="1353" y="-7" font-family="Helvetica,sans-Serif" font-size="10.00">../utils/utils.hpp</text>
</a>
</g>
</g>
<!-- Node1&#45;&gt;Node25 -->
<g id="edge24_Node000001_Node000025" class="edge">
<title>Node1&#45;&gt;Node25</title>
<g id="a_edge24_Node000001_Node000025"><a xlink:title=" ">
<path fill="none" stroke="#63b8ff" d="M999.41,-109.81C1011.95,-95.74 1038.87,-68.2 1068,-55 1068.65,-54.7 1213.8,-32.12 1296.68,-19.25"/>
<polygon fill="#63b8ff" stroke="#63b8ff" points="1297.36,-22.68 1306.71,-17.69 1296.29,-15.77 1297.36,-22.68"/>
</a>
</g>
</g>
<!-- Node26 -->
<g id="Node000026" class="node">
<title>Node26</title>
<g id="a_Node000026"><a xlink:href="cli_8hpp.html" target="_top" xlink:title=" ">
<polygon fill="white" stroke="#666666" points="225.5,-74 176.5,-74 176.5,-55 225.5,-55 225.5,-74"/>
<text text-anchor="middle" x="201" y="-62" font-family="Helvetica,sans-Serif" font-size="10.00">cli.hpp</text>
</a>
</g>
</g>
<!-- Node1&#45;&gt;Node26 -->
<g id="edge25_Node000001_Node000026" class="edge">
<title>Node1&#45;&gt;Node26</title>
<g id="a_edge25_Node000001_Node000026"><a xlink:title=" ">
<path fill="none" stroke="#63b8ff" d="M892.98,-116.33C750.09,-112.34 477.97,-101.57 248,-74 244.04,-73.52 239.9,-72.93 235.8,-72.27"/>
<polygon fill="#63b8ff" stroke="#63b8ff" points="236.24,-68.8 225.8,-70.56 235.06,-75.7 236.24,-68.8"/>
</a>
</g>
</g>
<!-- Node28 -->
<g id="Node000028" class="node">
<title>Node28</title>
<g id="a_Node000028"><a xlink:href="miniply_8h.html" target="_top" xlink:title=" ">
<polygon fill="white" stroke="#666666" points="389.5,-74 294.5,-74 294.5,-55 389.5,-55 389.5,-74"/>
<text text-anchor="middle" x="342" y="-62" font-family="Helvetica,sans-Serif" font-size="10.00">extras/miniply.h</text>
</a>
</g>
</g>
<!-- Node1&#45;&gt;Node28 -->
<g id="edge31_Node000001_Node000028" class="edge">
<title>Node1&#45;&gt;Node28</title>
<g id="a_edge31_Node000001_Node000028"><a xlink:title=" ">
<path fill="none" stroke="#63b8ff" d="M892.75,-112.37C776.81,-104.87 579.26,-91.04 410,-74 406.58,-73.66 403.07,-73.28 399.53,-72.89"/>
<polygon fill="#63b8ff" stroke="#63b8ff" points="399.86,-69.4 389.52,-71.74 399.06,-76.36 399.86,-69.4"/>
</a>
</g>
</g>
<!-- Node30 -->
<g id="Node000030" class="node">
<title>Node30</title>
<g id="a_Node000030"><a xlink:href="log_8hpp.html" target="_top" xlink:title=" ">
<polygon fill="white" stroke="#666666" points="595,-74 499,-74 499,-55 595,-55 595,-74"/>
<text text-anchor="middle" x="547" y="-62" font-family="Helvetica,sans-Serif" font-size="10.00">uvgvpcc/log.hpp</text>
</a>
</g>
</g>
<!-- Node1&#45;&gt;Node30 -->
<g id="edge37_Node000001_Node000030" class="edge">
<title>Node1&#45;&gt;Node30</title>
<g id="a_edge37_Node000001_Node000030"><a xlink:title=" ">
<path fill="none" stroke="#63b8ff" d="M920.5,-109.98C832.86,-99.55 686.02,-82.06 605.03,-72.41"/>
<polygon fill="#63b8ff" stroke="#63b8ff" points="605.35,-68.92 595.01,-71.22 604.52,-75.88 605.35,-68.92"/>
</a>
</g>
</g>
<!-- Node34 -->
<g id="Node000034" class="node">
<title>Node34</title>
<g id="a_Node000034"><a xlink:href="uvgvpcc_8hpp.html" target="_top" xlink:title=" ">
<polygon fill="white" stroke="#666666" points="907,-74 785,-74 785,-55 907,-55 907,-74"/>
<text text-anchor="middle" x="846" y="-62" font-family="Helvetica,sans-Serif" font-size="10.00">uvgvpcc/uvgvpcc.hpp</text>
</a>
</g>
</g>
<!-- Node1&#45;&gt;Node34 -->
<g id="edge44_Node000001_Node000034" class="edge">
<title>Node1&#45;&gt;Node34</title>
<g id="a_edge44_Node000001_Node000034"><a xlink:title=" ">
<path fill="none" stroke="#63b8ff" d="M968.54,-109.98C944.42,-101.23 906.63,-87.51 879.4,-77.62"/>
<polygon fill="#63b8ff" stroke="#63b8ff" points="880.48,-74.29 869.88,-74.17 878.09,-80.87 880.48,-74.29"/>
</a>
</g>
</g>
<!-- Node26&#45;&gt;Node7 -->
<g id="edge29_Node000026_Node000007" class="edge">
<title>Node26&#45;&gt;Node7</title>
<g id="a_edge29_Node000026_Node000007"><a xlink:title=" ">
<path fill="none" stroke="#63b8ff" d="M192,-54.98C183.81,-47.23 171.49,-35.58 161.53,-26.14"/>
<polygon fill="#63b8ff" stroke="#63b8ff" points="163.83,-23.5 154.16,-19.17 159.02,-28.59 163.83,-23.5"/>
</a>
</g>
</g>
<!-- Node26&#45;&gt;Node17 -->
<g id="edge28_Node000026_Node000017" class="edge">
<title>Node26&#45;&gt;Node17</title>
<g id="a_edge28_Node000026_Node000017"><a xlink:title=" ">
<path fill="none" stroke="#63b8ff" d="M176.21,-56.24C143.26,-46.59 85.07,-29.55 49.77,-19.22"/>
<polygon fill="#63b8ff" stroke="#63b8ff" points="50.62,-15.82 40.04,-16.37 48.65,-22.54 50.62,-15.82"/>
</a>
</g>
</g>
<!-- Node26&#45;&gt;Node20 -->
<g id="edge27_Node000026_Node000020" class="edge">
<title>Node26&#45;&gt;Node20</title>
<g id="a_edge27_Node000026_Node000020"><a xlink:title=" ">
<path fill="none" stroke="#63b8ff" d="M225.5,-57.49C259.85,-49.05 324.25,-33.11 379,-19 379.1,-18.97 379.2,-18.95 379.3,-18.92"/>
<polygon fill="#63b8ff" stroke="#63b8ff" points="380.19,-22.31 388.98,-16.4 378.42,-15.54 380.19,-22.31"/>
</a>
</g>
</g>
<!-- Node26&#45;&gt;Node23 -->
<g id="edge30_Node000026_Node000023" class="edge">
<title>Node26&#45;&gt;Node23</title>
<g id="a_edge30_Node000026_Node000023"><a xlink:title=" ">
<path fill="none" stroke="#63b8ff" d="M213.05,-54.98C224.46,-46.92 241.83,-34.65 255.43,-25.03"/>
<polygon fill="#63b8ff" stroke="#63b8ff" points="257.58,-27.8 263.73,-19.17 253.54,-22.08 257.58,-27.8"/>
</a>
</g>
</g>
<!-- Node27 -->
<g id="Node000027" class="node">
<title>Node27</title>
<g id="a_Node000027"><a xlink:title=" ">
<polygon fill="#e0e0e0" stroke="#999999" points="102,-19 58,-19 58,0 102,0 102,-19"/>
<text text-anchor="middle" x="80" y="-7" font-family="Helvetica,sans-Serif" font-size="10.00">limits</text>
</a>
</g>
</g>
<!-- Node26&#45;&gt;Node27 -->
<g id="edge26_Node000026_Node000027" class="edge">
<title>Node26&#45;&gt;Node27</title>
<g id="a_edge26_Node000026_Node000027"><a xlink:title=" ">
<path fill="none" stroke="#63b8ff" d="M181.56,-54.98C162.01,-46.42 131.62,-33.11 109.18,-23.28"/>
<polygon fill="#63b8ff" stroke="#63b8ff" points="110.36,-19.98 99.79,-19.17 107.55,-26.39 110.36,-19.98"/>
</a>
</g>
</g>
<!-- Node28&#45;&gt;Node7 -->
<g id="edge33_Node000028_Node000007" class="edge">
<title>Node28&#45;&gt;Node7</title>
<g id="a_edge33_Node000028_Node000007"><a xlink:title=" ">
<path fill="none" stroke="#63b8ff" d="M310.35,-54.98C274.66,-45.38 216.8,-29.82 179.84,-19.87"/>
<polygon fill="#63b8ff" stroke="#63b8ff" points="180.58,-16.45 170.01,-17.23 178.76,-23.21 180.58,-16.45"/>
</a>
</g>
</g>
<!-- Node28&#45;&gt;Node8 -->
<g id="edge34_Node000028_Node000008" class="edge">
<title>Node28&#45;&gt;Node8</title>
<g id="a_edge34_Node000028_Node000008"><a xlink:title=" ">
<path fill="none" stroke="#63b8ff" d="M320.95,-54.98C299.59,-46.34 266.3,-32.87 241.94,-23.02"/>
<polygon fill="#63b8ff" stroke="#63b8ff" points="243.01,-19.68 232.43,-19.17 240.39,-26.17 243.01,-19.68"/>
</a>
</g>
</g>
<!-- Node28&#45;&gt;Node20 -->
<g id="edge35_Node000028_Node000020" class="edge">
<title>Node28&#45;&gt;Node20</title>
<g id="a_edge35_Node000028_Node000020"><a xlink:title=" ">
<path fill="none" stroke="#63b8ff" d="M353.09,-54.98C363.49,-47 379.26,-34.88 391.72,-25.31"/>
<polygon fill="#63b8ff" stroke="#63b8ff" points="393.91,-28.04 399.71,-19.17 389.65,-22.49 393.91,-28.04"/>
</a>
</g>
</g>
<!-- Node28&#45;&gt;Node23 -->
<g id="edge36_Node000028_Node000023" class="edge">
<title>Node28&#45;&gt;Node23</title>
<g id="a_edge36_Node000028_Node000023"><a xlink:title=" ">
<path fill="none" stroke="#63b8ff" d="M331.4,-54.98C321.54,-47.07 306.65,-35.11 294.78,-25.58"/>
<polygon fill="#63b8ff" stroke="#63b8ff" points="296.79,-22.7 286.8,-19.17 292.4,-28.16 296.79,-22.7"/>
</a>
</g>
</g>
<!-- Node29 -->
<g id="Node000029" class="node">
<title>Node29</title>
<g id="a_Node000029"><a xlink:title=" ">
<polygon fill="#e0e0e0" stroke="#999999" points="370.5,-19 317.5,-19 317.5,0 370.5,0 370.5,-19"/>
<text text-anchor="middle" x="344" y="-7" font-family="Helvetica,sans-Serif" font-size="10.00">cstdarg</text>
</a>
</g>
</g>
<!-- Node28&#45;&gt;Node29 -->
<g id="edge32_Node000028_Node000029" class="edge">
<title>Node28&#45;&gt;Node29</title>
<g id="a_edge32_Node000028_Node000029"><a xlink:title=" ">
<path fill="none" stroke="#63b8ff" d="M342.33,-54.75C342.59,-47.8 342.97,-37.85 343.3,-29.13"/>
<polygon fill="#63b8ff" stroke="#63b8ff" points="346.8,-29.21 343.68,-19.09 339.8,-28.95 346.8,-29.21"/>
</a>
</g>
</g>
<!-- Node30&#45;&gt;Node12 -->
<g id="edge41_Node000030_Node000012" class="edge">
<title>Node30&#45;&gt;Node12</title>
<g id="a_edge41_Node000030_Node000012"><a xlink:title=" ">
<path fill="none" stroke="#63b8ff" d="M569.81,-54.98C593.17,-46.27 629.7,-32.63 656.17,-22.75"/>
<polygon fill="#63b8ff" stroke="#63b8ff" points="657.63,-25.95 665.77,-19.17 655.18,-19.39 657.63,-25.95"/>
</a>
</g>
</g>
<!-- Node30&#45;&gt;Node20 -->
<g id="edge42_Node000030_Node000020" class="edge">
<title>Node30&#45;&gt;Node20</title>
<g id="a_edge42_Node000030_Node000020"><a xlink:title=" ">
<path fill="none" stroke="#63b8ff" d="M525.15,-54.98C502.88,-46.3 468.1,-32.75 442.78,-22.88"/>
<polygon fill="#63b8ff" stroke="#63b8ff" points="443.84,-19.54 433.25,-19.17 441.29,-26.06 443.84,-19.54"/>
</a>
</g>
</g>
<!-- Node30&#45;&gt;Node29 -->
<g id="edge39_Node000030_Node000029" class="edge">
<title>Node30&#45;&gt;Node29</title>
<g id="a_edge39_Node000030_Node000029"><a xlink:title=" ">
<path fill="none" stroke="#63b8ff" d="M514.38,-54.98C477.91,-45.46 418.98,-30.08 380.86,-20.12"/>
<polygon fill="#63b8ff" stroke="#63b8ff" points="381.26,-16.61 370.7,-17.47 379.49,-23.38 381.26,-16.61"/>
</a>
</g>
</g>
<!-- Node31 -->
<g id="Node000031" class="node">
<title>Node31</title>
<g id="a_Node000031"><a xlink:title=" ">
<polygon fill="#e0e0e0" stroke="#999999" points="501,-19 451,-19 451,0 501,0 501,-19"/>
<text text-anchor="middle" x="476" y="-7" font-family="Helvetica,sans-Serif" font-size="10.00">chrono</text>
</a>
</g>
</g>
<!-- Node30&#45;&gt;Node31 -->
<g id="edge38_Node000030_Node000031" class="edge">
<title>Node30&#45;&gt;Node31</title>
<g id="a_edge38_Node000030_Node000031"><a xlink:title=" ">
<path fill="none" stroke="#63b8ff" d="M535.59,-54.98C524.89,-47 508.66,-34.88 495.84,-25.31"/>
<polygon fill="#63b8ff" stroke="#63b8ff" points="497.72,-22.35 487.61,-19.17 493.53,-27.96 497.72,-22.35"/>
</a>
</g>
</g>
<!-- Node32 -->
<g id="Node000032" class="node">
<title>Node32</title>
<g id="a_Node000032"><a xlink:title=" ">
<polygon fill="#e0e0e0" stroke="#999999" points="575,-19 519,-19 519,0 575,0 575,-19"/>
<text text-anchor="middle" x="547" y="-7" font-family="Helvetica,sans-Serif" font-size="10.00">iomanip</text>
</a>
</g>
</g>
<!-- Node30&#45;&gt;Node32 -->
<g id="edge40_Node000030_Node000032" class="edge">
<title>Node30&#45;&gt;Node32</title>
<g id="a_edge40_Node000030_Node000032"><a xlink:title=" ">
<path fill="none" stroke="#63b8ff" d="M547,-54.75C547,-47.8 547,-37.85 547,-29.13"/>
<polygon fill="#63b8ff" stroke="#63b8ff" points="550.5,-29.09 547,-19.09 543.5,-29.09 550.5,-29.09"/>
</a>
</g>
</g>
<!-- Node33 -->
<g id="Node000033" class="node">
<title>Node33</title>
<g id="a_Node000033"><a xlink:title=" ">
<polygon fill="#e0e0e0" stroke="#999999" points="641,-19 593,-19 593,0 641,0 641,-19"/>
<text text-anchor="middle" x="617" y="-7" font-family="Helvetica,sans-Serif" font-size="10.00">mutex</text>
</a>
</g>
</g>
<!-- Node30&#45;&gt;Node33 -->
<g id="edge43_Node000030_Node000033" class="edge">
<title>Node30&#45;&gt;Node33</title>
<g id="a_edge43_Node000030_Node000033"><a xlink:title=" ">
<path fill="none" stroke="#63b8ff" d="M558.25,-54.98C568.8,-47 584.8,-34.88 597.44,-25.31"/>
<polygon fill="#63b8ff" stroke="#63b8ff" points="599.69,-28 605.55,-19.17 595.46,-22.42 599.69,-28"/>
</a>
</g>
</g>
<!-- Node34&#45;&gt;Node2 -->
<g id="edge54_Node000034_Node000002" class="edge">
<title>Node34&#45;&gt;Node2</title>
<g id="a_edge54_Node000034_Node000002"><a xlink:title=" ">
<path fill="none" stroke="#63b8ff" d="M833.63,-54.98C821.91,-46.92 804.08,-34.65 790.11,-25.03"/>
<polygon fill="#63b8ff" stroke="#63b8ff" points="791.82,-21.96 781.6,-19.17 787.85,-27.72 791.82,-21.96"/>
</a>
</g>
</g>
<!-- Node34&#45;&gt;Node6 -->
<g id="edge45_Node000034_Node000006" class="edge">
<title>Node34&#45;&gt;Node6</title>
<g id="a_edge45_Node000034_Node000006"><a xlink:title=" ">
<path fill="none" stroke="#63b8ff" d="M846,-54.75C846,-47.8 846,-37.85 846,-29.13"/>
<polygon fill="#63b8ff" stroke="#63b8ff" points="849.5,-29.09 846,-19.09 842.5,-29.09 849.5,-29.09"/>
</a>
</g>
</g>
<!-- Node34&#45;&gt;Node7 -->
<g id="edge46_Node000034_Node000007" class="edge">
<title>Node34&#45;&gt;Node7</title>
<g id="a_edge46_Node000034_Node000007"><a xlink:title=" ">
<path fill="none" stroke="#63b8ff" d="M784.94,-60.82C646.74,-54.54 312.35,-38.05 180.07,-18.83"/>
<polygon fill="#63b8ff" stroke="#63b8ff" points="180.56,-15.36 170.15,-17.32 179.51,-22.28 180.56,-15.36"/>
</a>
</g>
</g>
<!-- Node34&#45;&gt;Node12 -->
<g id="edge47_Node000034_Node000012" class="edge">
<title>Node34&#45;&gt;Node12</title>
<g id="a_edge47_Node000034_Node000012"><a xlink:title=" ">
<path fill="none" stroke="#63b8ff" d="M820.78,-54.98C794.64,-46.16 753.6,-32.31 724.27,-22.41"/>
<polygon fill="#63b8ff" stroke="#63b8ff" points="725.02,-18.96 714.42,-19.08 722.78,-25.6 725.02,-18.96"/>
</a>
</g>
</g>
<!-- Node34&#45;&gt;Node14 -->
<g id="edge48_Node000034_Node000014" class="edge">
<title>Node34&#45;&gt;Node14</title>
<g id="a_edge48_Node000034_Node000014"><a xlink:title=" ">
<path fill="none" stroke="#63b8ff" d="M887.47,-54.96C928.14,-46.55 992.19,-33.21 1056.98,-19.2"/>
<polygon fill="#63b8ff" stroke="#63b8ff" points="1057.93,-22.57 1066.96,-17.04 1056.45,-15.73 1057.93,-22.57"/>
</a>
</g>
</g>
<!-- Node34&#45;&gt;Node16 -->
<g id="edge50_Node000034_Node000016" class="edge">
<title>Node34&#45;&gt;Node16</title>
<g id="a_edge50_Node000034_Node000016"><a xlink:title=" ">
<path fill="none" stroke="#63b8ff" d="M904.84,-55C960.89,-46.76 1047.9,-33.64 1133.05,-19.11"/>
<polygon fill="#63b8ff" stroke="#63b8ff" points="1133.89,-22.52 1143.16,-17.38 1132.71,-15.62 1133.89,-22.52"/>
</a>
</g>
</g>
<!-- Node34&#45;&gt;Node18 -->
<g id="edge51_Node000034_Node000018" class="edge">
<title>Node34&#45;&gt;Node18</title>
<g id="a_edge51_Node000034_Node000018"><a xlink:title=" ">
<path fill="none" stroke="#63b8ff" d="M907.18,-58.36C980.05,-51.77 1105.62,-38.98 1222.58,-19.07"/>
<polygon fill="#63b8ff" stroke="#63b8ff" points="1223.52,-22.46 1232.78,-17.31 1222.33,-15.56 1223.52,-22.46"/>
</a>
</g>
</g>
<!-- Node34&#45;&gt;Node20 -->
<g id="edge52_Node000034_Node000020" class="edge">
<title>Node34&#45;&gt;Node20</title>
<g id="a_edge52_Node000034_Node000020"><a xlink:title=" ">
<path fill="none" stroke="#63b8ff" d="M784.98,-59.79C707.5,-54.41 569.65,-42.61 443.12,-18.93"/>
<polygon fill="#63b8ff" stroke="#63b8ff" points="443.73,-15.48 433.25,-17.05 442.42,-22.36 443.73,-15.48"/>
</a>
</g>
</g>
<!-- Node34&#45;&gt;Node23 -->
<g id="edge53_Node000034_Node000023" class="edge">
<title>Node34&#45;&gt;Node23</title>
<g id="a_edge53_Node000034_Node000023"><a xlink:title=" ">
<path fill="none" stroke="#63b8ff" d="M784.64,-61.95C686.15,-58.7 486.66,-48.93 309.68,-19"/>
<polygon fill="#63b8ff" stroke="#63b8ff" points="310.11,-15.53 299.66,-17.29 308.93,-22.43 310.11,-15.53"/>
</a>
</g>
</g>
<!-- Node34&#45;&gt;Node25 -->
<g id="edge56_Node000034_Node000025" class="edge">
<title>Node34&#45;&gt;Node25</title>
<g id="a_edge56_Node000034_Node000025"><a xlink:title=" ">
<path fill="none" stroke="#63b8ff" d="M907.17,-58.56C992.21,-51.44 1151.21,-37.28 1296.8,-19.09"/>
<polygon fill="#63b8ff" stroke="#63b8ff" points="1297.33,-22.55 1306.81,-17.83 1296.45,-15.6 1297.33,-22.55"/>
</a>
</g>
</g>
<!-- Node35 -->
<g id="Node000035" class="node">
<title>Node35</title>
<g id="a_Node000035"><a xlink:title=" ">
<polygon fill="#e0e0e0" stroke="#999999" points="1048.5,-19 1001.5,-19 1001.5,0 1048.5,0 1048.5,-19"/>
<text text-anchor="middle" x="1025" y="-7" font-family="Helvetica,sans-Serif" font-size="10.00">queue</text>
</a>
</g>
</g>
<!-- Node34&#45;&gt;Node35 -->
<g id="edge49_Node000034_Node000035" class="edge">
<title>Node34&#45;&gt;Node35</title>
<g id="a_edge49_Node000034_Node000035"><a xlink:title=" ">
<path fill="none" stroke="#63b8ff" d="M874.76,-54.98C906.64,-45.54 958,-30.34 991.63,-20.38"/>
<polygon fill="#63b8ff" stroke="#63b8ff" points="992.86,-23.67 1001.46,-17.47 990.87,-16.95 992.86,-23.67"/>
</a>
</g>
</g>
<!-- Node36 -->
<g id="Node000036" class="node">
<title>Node36</title>
<g id="a_Node000036"><a xlink:title=" ">
<polygon fill="#e0e0e0" stroke="#999999" points="983.5,-19 890.5,-19 890.5,0 983.5,0 983.5,-19"/>
<text text-anchor="middle" x="937" y="-7" font-family="Helvetica,sans-Serif" font-size="10.00">unordered_map</text>
</a>
</g>
</g>
<!-- Node34&#45;&gt;Node36 -->
<g id="edge55_Node000034_Node000036" class="edge">
<title>Node34&#45;&gt;Node36</title>
<g id="a_edge55_Node000034_Node000036"><a xlink:title=" ">
<path fill="none" stroke="#63b8ff" d="M860.62,-54.98C874.86,-46.69 896.75,-33.94 913.45,-24.22"/>
<polygon fill="#63b8ff" stroke="#63b8ff" points="915.23,-27.23 922.11,-19.17 911.71,-21.18 915.23,-27.23"/>
</a>
</g>
</g>
</g>
</svg>

<g id="navigator" transform="translate(0 0)" fill="#404254">
  <rect fill="#f2f5e9" fill-opacity="0.5" stroke="#606060" stroke-width=".5" x="0" y="0" width="60" height="60"/>
  <use id="zoomplus" xlink:href="#zoomPlus" x="17" y="9" onmousedown="handleZoom(evt,'in')"/>
  <use id="zoomminus" xlink:href="#zoomMin" x="42" y="9" onmousedown="handleZoom(evt,'out')"/>
  <use id="reset" xlink:href="#resetDef" x="30" y="36" onmousedown="handleReset()"/>
   <use id="arrowup" xlink:href="#arrowUp" x="0" y="0" onmousedown="handlePan(0,-1)"/>
  <use id="arrowright" xlink:href="#arrowRight" x="0" y="0" onmousedown="handlePan(1,0)"/>
  <use id="arrowdown" xlink:href="#arrowDown" x="0" y="0" onmousedown="handlePan(0,1)"/>
  <use id="arrowleft" xlink:href="#arrowLeft" x="0" y="0" onmousedown="handlePan(-1,0)"/>
</g>
<svg viewBox="0 0 15 15" width="100%" height="30px" preserveAspectRatio="xMaxYMin meet">
 <g id="arrow_out" transform="scale(0.3 0.3)">
  <a xlink:href="uvgVPCCencAppExample_8cpp__incl_org.svg" target="_base">
   <rect id="button" ry="5" rx="5" y="6" x="6" height="38" width="38"
        fill="#f2f5e9" fill-opacity="0.5" stroke="#606060" stroke-width="1.0"/>
   <path id="arrow"
     d="M 11.500037,31.436501 C 11.940474,20.09759 22.043105,11.32322 32.158766,21.979434 L 37.068811,17.246167 C 37.068811,17.246167 37.088388,32 37.088388,32 L 22.160133,31.978069 C 22.160133,31.978069 26.997745,27.140456 26.997745,27.140456 C 18.528582,18.264221 13.291696,25.230495 11.500037,31.436501 z"
     style="fill:#404040;"/>
  </a>
 </g>
</svg>

<style type='text/css'>
<![CDATA[
[data-mouse-over-selected='false'] { opacity: 0.7; }
[data-mouse-over-selected='true']  { opacity: 1.0; }
]]>
</style>
<script type="application/ecmascript"><![CDATA[
document.addEventListener('DOMContentLoaded', (event) => {
  highlightEdges();
  highlightAdjacentNodes();
});
]]></script>
</svg>
