<?xml version="1.0" encoding="UTF-8" standalone="no"?>
<!DOCTYPE svg PUBLIC "-//W3C//DTD SVG 1.1//EN"
 "http://www.w3.org/Graphics/SVG/1.1/DTD/svg11.dtd">
<!-- Generated by graphviz version 2.43.0 (0)
 -->
<!-- Title: src/app/uvgVPCCencAppExample.cpp Pages: 1 -->
<svg width="1697pt" height="137pt"
 viewBox="0.00 0.00 1696.50 137.00" xmlns="http://www.w3.org/2000/svg" xmlns:xlink="http://www.w3.org/1999/xlink">
<g id="graph0" class="graph" transform="scale(1 1) rotate(0) translate(4 133)">
<title>src/app/uvgVPCCencAppExample.cpp</title>
<!-- Node1 -->
<g id="Node000001" class="node">
<title>Node1</title>
<g id="a_Node000001"><a xlink:title=" ">
<polygon fill="#999999" stroke="#666666" points="915,-129 717,-129 717,-110 915,-110 915,-129"/>
<text text-anchor="middle" x="816" y="-117" font-family="Helvetica,sans-Serif" font-size="10.00">src/app/uvgVPCCencAppExample.cpp</text>
</a>
</g>
</g>
<!-- Node2 -->
<g id="Node000002" class="node">
<title>Node2</title>
<g id="a_Node000002"><a xlink:title=" ">
<polygon fill="#e0e0e0" stroke="#999999" points="64,-74 0,-74 0,-55 64,-55 64,-74"/>
<text text-anchor="middle" x="32" y="-62" font-family="Helvetica,sans-Serif" font-size="10.00">algorithm</text>
</a>
</g>
</g>
<!-- Node1&#45;&gt;Node2 -->
<g id="edge1_Node000001_Node000002" class="edge">
<title>Node1&#45;&gt;Node2</title>
<g id="a_edge1_Node000001_Node000002"><a xlink:title=" ">
<path fill="none" stroke="#63b8ff" d="M716.71,-117.11C575.84,-114.12 309.8,-104.72 74.28,-73.96"/>
<polygon fill="#63b8ff" stroke="#63b8ff" points="74.53,-70.46 64.15,-72.62 73.61,-77.4 74.53,-70.46"/>
</a>
</g>
</g>
<!-- Node3 -->
<g id="Node000003" class="node">
<title>Node3</title>
<g id="a_Node000003"><a xlink:title=" ">
<polygon fill="#e0e0e0" stroke="#999999" points="124,-74 82,-74 82,-55 124,-55 124,-74"/>
<text text-anchor="middle" x="103" y="-62" font-family="Helvetica,sans-Serif" font-size="10.00">array</text>
</a>
</g>
</g>
<!-- Node1&#45;&gt;Node3 -->
<g id="edge2_Node000001_Node000003" class="edge">
<title>Node1&#45;&gt;Node3</title>
<g id="a_edge2_Node000001_Node000003"><a xlink:title=" ">
<path fill="none" stroke="#63b8ff" d="M716.83,-118.57C585.33,-117.2 346.14,-109.64 134.25,-73.83"/>
<polygon fill="#63b8ff" stroke="#63b8ff" points="134.63,-70.34 124.18,-72.1 133.44,-77.24 134.63,-70.34"/>
</a>
</g>
</g>
<!-- Node4 -->
<g id="Node000004" class="node">
<title>Node4</title>
<g id="a_Node000004"><a xlink:title=" ">
<polygon fill="#e0e0e0" stroke="#999999" points="194,-74 142,-74 142,-55 194,-55 194,-74"/>
<text text-anchor="middle" x="168" y="-62" font-family="Helvetica,sans-Serif" font-size="10.00">cassert</text>
</a>
</g>
</g>
<!-- Node1&#45;&gt;Node4 -->
<g id="edge3_Node000001_Node000004" class="edge">
<title>Node1&#45;&gt;Node4</title>
<g id="a_edge3_Node000001_Node000004"><a xlink:title=" ">
<path fill="none" stroke="#63b8ff" d="M716.96,-116.35C597.42,-112.62 390.31,-102.53 204.25,-73.93"/>
<polygon fill="#63b8ff" stroke="#63b8ff" points="204.7,-70.46 194.28,-72.38 203.62,-77.38 204.7,-70.46"/>
</a>
</g>
</g>
<!-- Node5 -->
<g id="Node000005" class="node">
<title>Node5</title>
<g id="a_Node000005"><a xlink:title=" ">
<polygon fill="#e0e0e0" stroke="#999999" points="263.5,-74 212.5,-74 212.5,-55 263.5,-55 263.5,-74"/>
<text text-anchor="middle" x="238" y="-62" font-family="Helvetica,sans-Serif" font-size="10.00">csignal</text>
</a>
</g>
</g>
<!-- Node1&#45;&gt;Node5 -->
<g id="edge4_Node000001_Node000005" class="edge">
<title>Node1&#45;&gt;Node5</title>
<g id="a_edge4_Node000001_Node000005"><a xlink:title=" ">
<path fill="none" stroke="#63b8ff" d="M716.91,-114.08C608.64,-108.37 430.3,-96.39 278,-74 276.55,-73.79 275.08,-73.55 273.59,-73.3"/>
<polygon fill="#63b8ff" stroke="#63b8ff" points="274.21,-69.86 263.73,-71.47 272.93,-76.74 274.21,-69.86"/>
</a>
</g>
</g>
<!-- Node6 -->
<g id="Node000006" class="node">
<title>Node6</title>
<g id="a_Node000006"><a xlink:title=" ">
<polygon fill="#e0e0e0" stroke="#999999" points="960.5,-19 907.5,-19 907.5,0 960.5,0 960.5,-19"/>
<text text-anchor="middle" x="934" y="-7" font-family="Helvetica,sans-Serif" font-size="10.00">cstddef</text>
</a>
</g>
</g>
<!-- Node1&#45;&gt;Node6 -->
<g id="edge5_Node000001_Node000006" class="edge">
<title>Node1&#45;&gt;Node6</title>
<g id="a_edge5_Node000001_Node000006"><a xlink:title=" ">
<path fill="none" stroke="#63b8ff" d="M816.39,-109.6C817.42,-96.2 821.2,-70.75 835,-55 843.99,-44.74 874.48,-31.85 899.27,-22.59"/>
<polygon fill="#63b8ff" stroke="#63b8ff" points="900.59,-25.83 908.78,-19.11 898.18,-19.26 900.59,-25.83"/>
</a>
</g>
</g>
<!-- Node7 -->
<g id="Node000007" class="node">
<title>Node7</title>
<g id="a_Node000007"><a xlink:title=" ">
<polygon fill="#e0e0e0" stroke="#999999" points="537,-19 487,-19 487,0 537,0 537,-19"/>
<text text-anchor="middle" x="512" y="-7" font-family="Helvetica,sans-Serif" font-size="10.00">cstdint</text>
</a>
</g>
</g>
<!-- Node1&#45;&gt;Node7 -->
<g id="edge6_Node000001_Node000007" class="edge">
<title>Node1&#45;&gt;Node7</title>
<g id="a_edge6_Node000001_Node000007"><a xlink:title=" ">
<path fill="none" stroke="#63b8ff" d="M743.34,-109.95C702.18,-103.42 650.4,-92.33 607,-74 577.94,-61.73 548.34,-40.21 530.07,-25.66"/>
<polygon fill="#63b8ff" stroke="#63b8ff" points="532.03,-22.75 522.07,-19.15 527.62,-28.18 532.03,-22.75"/>
</a>
</g>
</g>
<!-- Node8 -->
<g id="Node000008" class="node">
<title>Node8</title>
<g id="a_Node000008"><a xlink:title=" ">
<polygon fill="#e0e0e0" stroke="#999999" points="335,-19 289,-19 289,0 335,0 335,-19"/>
<text text-anchor="middle" x="312" y="-7" font-family="Helvetica,sans-Serif" font-size="10.00">cstdio</text>
</a>
</g>
</g>
<!-- Node1&#45;&gt;Node8 -->
<g id="edge7_Node000001_Node000008" class="edge">
<title>Node1&#45;&gt;Node8</title>
<g id="a_edge7_Node000001_Node000008"><a xlink:title=" ">
<path fill="none" stroke="#63b8ff" d="M716.72,-118.73C635.11,-116.26 517.47,-106.48 420,-74 402.28,-68.09 359.73,-41.53 333.63,-24.69"/>
<polygon fill="#63b8ff" stroke="#63b8ff" points="335.45,-21.69 325.16,-19.18 331.64,-27.57 335.45,-21.69"/>
</a>
</g>
</g>
<!-- Node9 -->
<g id="Node000009" class="node">
<title>Node9</title>
<g id="a_Node000009"><a xlink:title=" ">
<polygon fill="#e0e0e0" stroke="#999999" points="1185.5,-74 1136.5,-74 1136.5,-55 1185.5,-55 1185.5,-74"/>
<text text-anchor="middle" x="1161" y="-62" font-family="Helvetica,sans-Serif" font-size="10.00">cstdlib</text>
</a>
</g>
</g>
<!-- Node1&#45;&gt;Node9 -->
<g id="edge8_Node000001_Node000009" class="edge">
<title>Node1&#45;&gt;Node9</title>
<g id="a_edge8_Node000001_Node000009"><a xlink:title=" ">
<path fill="none" stroke="#63b8ff" d="M884.28,-109.97C946.44,-101.87 1040.66,-88.76 1122,-74 1123.45,-73.74 1124.93,-73.46 1126.42,-73.17"/>
<polygon fill="#63b8ff" stroke="#63b8ff" points="1127.19,-76.58 1136.29,-71.16 1125.8,-69.73 1127.19,-76.58"/>
</a>
</g>
</g>
<!-- Node10 -->
<g id="Node000010" class="node">
<title>Node10</title>
<g id="a_Node000010"><a xlink:title=" ">
<polygon fill="#e0e0e0" stroke="#999999" points="1268.5,-74 1203.5,-74 1203.5,-55 1268.5,-55 1268.5,-74"/>
<text text-anchor="middle" x="1236" y="-62" font-family="Helvetica,sans-Serif" font-size="10.00">exception</text>
</a>
</g>
</g>
<!-- Node1&#45;&gt;Node10 -->
<g id="edge9_Node000001_Node000010" class="edge">
<title>Node1&#45;&gt;Node10</title>
<g id="a_edge9_Node000001_Node000010"><a xlink:title=" ">
<path fill="none" stroke="#63b8ff" d="M907.83,-109.99C982.37,-102.56 1090.39,-90.59 1193.42,-74.14"/>
<polygon fill="#63b8ff" stroke="#63b8ff" points="1194.06,-77.58 1203.37,-72.53 1192.94,-70.67 1194.06,-77.58"/>
</a>
</g>
</g>
<!-- Node11 -->
<g id="Node000011" class="node">
<title>Node11</title>
<g id="a_Node000011"><a xlink:title=" ">
<polygon fill="#e0e0e0" stroke="#999999" points="1341.5,-74 1286.5,-74 1286.5,-55 1341.5,-55 1341.5,-74"/>
<text text-anchor="middle" x="1314" y="-62" font-family="Helvetica,sans-Serif" font-size="10.00">fstream</text>
</a>
</g>
</g>
<!-- Node1&#45;&gt;Node11 -->
<g id="edge10_Node000001_Node000011" class="edge">
<title>Node1&#45;&gt;Node11</title>
<g id="a_edge10_Node000001_Node000011"><a xlink:title=" ">
<path fill="none" stroke="#63b8ff" d="M915.19,-112.86C1006.71,-106.75 1146.47,-95.16 1276.06,-74.13"/>
<polygon fill="#63b8ff" stroke="#63b8ff" points="1276.87,-77.54 1286.17,-72.47 1275.73,-70.64 1276.87,-77.54"/>
</a>
</g>
</g>
<!-- Node12 -->
<g id="Node000012" class="node">
<title>Node12</title>
<g id="a_Node000012"><a xlink:title=" ">
<polygon fill="#e0e0e0" stroke="#999999" points="889,-19 829,-19 829,0 889,0 889,-19"/>
<text text-anchor="middle" x="859" y="-7" font-family="Helvetica,sans-Serif" font-size="10.00">iostream</text>
</a>
</g>
</g>
<!-- Node1&#45;&gt;Node12 -->
<g id="edge11_Node000001_Node000012" class="edge">
<title>Node1&#45;&gt;Node12</title>
<g id="a_edge11_Node000001_Node000012"><a xlink:title=" ">
<path fill="none" stroke="#63b8ff" d="M810.67,-109.86C803.63,-97.24 793.09,-73.26 802,-55 808.3,-42.09 820.35,-31.83 831.76,-24.43"/>
<polygon fill="#63b8ff" stroke="#63b8ff" points="833.86,-27.25 840.65,-19.12 830.27,-21.25 833.86,-27.25"/>
</a>
</g>
</g>
<!-- Node13 -->
<g id="Node000013" class="node">
<title>Node13</title>
<g id="a_Node000013"><a xlink:title=" ">
<polygon fill="#e0e0e0" stroke="#999999" points="1412.5,-74 1359.5,-74 1359.5,-55 1412.5,-55 1412.5,-74"/>
<text text-anchor="middle" x="1386" y="-62" font-family="Helvetica,sans-Serif" font-size="10.00">iterator</text>
</a>
</g>
</g>
<!-- Node1&#45;&gt;Node13 -->
<g id="edge12_Node000001_Node000013" class="edge">
<title>Node1&#45;&gt;Node13</title>
<g id="a_edge12_Node000001_Node000013"><a xlink:title=" ">
<path fill="none" stroke="#63b8ff" d="M915.16,-114.86C1020.67,-109.94 1192.54,-98.93 1349.05,-74.08"/>
<polygon fill="#63b8ff" stroke="#63b8ff" points="1350.02,-77.47 1359.33,-72.43 1348.9,-70.56 1350.02,-77.47"/>
</a>
</g>
</g>
<!-- Node14 -->
<g id="Node000014" class="node">
<title>Node14</title>
<g id="a_Node000014"><a xlink:title=" ">
<polygon fill="#e0e0e0" stroke="#999999" points="1102,-19 1044,-19 1044,0 1102,0 1102,-19"/>
<text text-anchor="middle" x="1073" y="-7" font-family="Helvetica,sans-Serif" font-size="10.00">memory</text>
</a>
</g>
</g>
<!-- Node1&#45;&gt;Node14 -->
<g id="edge13_Node000001_Node000014" class="edge">
<title>Node1&#45;&gt;Node14</title>
<g id="a_edge13_Node000001_Node000014"><a xlink:title=" ">
<path fill="none" stroke="#63b8ff" d="M859.75,-110C892.4,-102.77 937.64,-90.86 975,-74 1004.35,-60.75 1035.01,-39.5 1054.05,-25.27"/>
<polygon fill="#63b8ff" stroke="#63b8ff" points="1056.33,-27.94 1062.17,-19.1 1052.09,-22.36 1056.33,-27.94"/>
</a>
</g>
</g>
<!-- Node15 -->
<g id="Node000015" class="node">
<title>Node15</title>
<g id="a_Node000015"><a xlink:title=" ">
<polygon fill="#e0e0e0" stroke="#999999" points="1475,-74 1431,-74 1431,-55 1475,-55 1475,-74"/>
<text text-anchor="middle" x="1453" y="-62" font-family="Helvetica,sans-Serif" font-size="10.00">regex</text>
</a>
</g>
</g>
<!-- Node1&#45;&gt;Node15 -->
<g id="edge14_Node000001_Node000015" class="edge">
<title>Node1&#45;&gt;Node15</title>
<g id="a_edge14_Node000001_Node000015"><a xlink:title=" ">
<path fill="none" stroke="#63b8ff" d="M915.12,-117.11C1033.54,-114.13 1237.6,-104.79 1420.68,-73.88"/>
<polygon fill="#63b8ff" stroke="#63b8ff" points="1421.5,-77.29 1430.77,-72.15 1420.32,-70.39 1421.5,-77.29"/>
</a>
</g>
</g>
<!-- Node16 -->
<g id="Node000016" class="node">
<title>Node16</title>
<g id="a_Node000016"><a xlink:title=" ">
<polygon fill="#e0e0e0" stroke="#999999" points="1191.5,-19 1120.5,-19 1120.5,0 1191.5,0 1191.5,-19"/>
<text text-anchor="middle" x="1156" y="-7" font-family="Helvetica,sans-Serif" font-size="10.00">semaphore</text>
</a>
</g>
</g>
<!-- Node1&#45;&gt;Node16 -->
<g id="edge15_Node000001_Node000016" class="edge">
<title>Node1&#45;&gt;Node16</title>
<g id="a_edge15_Node000001_Node000016"><a xlink:title=" ">
<path fill="none" stroke="#63b8ff" d="M862.29,-109.96C901.14,-102.24 957.85,-89.7 1006,-74 1029.57,-66.31 1091.22,-39.37 1127.73,-23.15"/>
<polygon fill="#63b8ff" stroke="#63b8ff" points="1129.15,-26.35 1136.87,-19.08 1126.31,-19.95 1129.15,-26.35"/>
</a>
</g>
</g>
<!-- Node17 -->
<g id="Node000017" class="node">
<title>Node17</title>
<g id="a_Node000017"><a xlink:title=" ">
<polygon fill="#e0e0e0" stroke="#999999" points="209,-19 169,-19 169,0 209,0 209,-19"/>
<text text-anchor="middle" x="189" y="-7" font-family="Helvetica,sans-Serif" font-size="10.00">span</text>
</a>
</g>
</g>
<!-- Node1&#45;&gt;Node17 -->
<g id="edge16_Node000001_Node000017" class="edge">
<title>Node1&#45;&gt;Node17</title>
<g id="a_edge16_Node000001_Node000017"><a xlink:title=" ">
<path fill="none" stroke="#63b8ff" d="M716.92,-114.36C591.98,-108.33 384.61,-95.48 311,-74 305.87,-72.5 248.17,-42 213.99,-23.82"/>
<polygon fill="#63b8ff" stroke="#63b8ff" points="215.51,-20.67 205.04,-19.06 212.22,-26.85 215.51,-20.67"/>
</a>
</g>
</g>
<!-- Node18 -->
<g id="Node000018" class="node">
<title>Node18</title>
<g id="a_Node000018"><a xlink:title=" ">
<polygon fill="#e0e0e0" stroke="#999999" points="1266,-19 1210,-19 1210,0 1266,0 1266,-19"/>
<text text-anchor="middle" x="1238" y="-7" font-family="Helvetica,sans-Serif" font-size="10.00">sstream</text>
</a>
</g>
</g>
<!-- Node1&#45;&gt;Node18 -->
<g id="edge17_Node000001_Node000018" class="edge">
<title>Node1&#45;&gt;Node18</title>
<g id="a_edge17_Node000001_Node000018"><a xlink:title=" ">
<path fill="none" stroke="#63b8ff" d="M873.04,-109.97C919.32,-102.41 985.99,-90.09 1043,-74 1066.28,-67.43 1071.1,-62.8 1094,-55 1129.78,-42.82 1171.04,-30.21 1200.19,-21.54"/>
<polygon fill="#63b8ff" stroke="#63b8ff" points="1201.38,-24.84 1209.97,-18.65 1199.39,-18.13 1201.38,-24.84"/>
</a>
</g>
</g>
<!-- Node19 -->
<g id="Node000019" class="node">
<title>Node19</title>
<g id="a_Node000019"><a xlink:title=" ">
<polygon fill="#e0e0e0" stroke="#999999" points="1558.5,-74 1493.5,-74 1493.5,-55 1558.5,-55 1558.5,-74"/>
<text text-anchor="middle" x="1526" y="-62" font-family="Helvetica,sans-Serif" font-size="10.00">stdexcept</text>
</a>
</g>
</g>
<!-- Node1&#45;&gt;Node19 -->
<g id="edge18_Node000001_Node000019" class="edge">
<title>Node1&#45;&gt;Node19</title>
<g id="a_edge18_Node000001_Node000019"><a xlink:title=" ">
<path fill="none" stroke="#63b8ff" d="M915.16,-116.02C1043.86,-111.87 1275.5,-101.25 1482.89,-73.95"/>
<polygon fill="#63b8ff" stroke="#63b8ff" points="1483.6,-77.39 1493.06,-72.6 1482.68,-70.45 1483.6,-77.39"/>
</a>
</g>
</g>
<!-- Node20 -->
<g id="Node000020" class="node">
<title>Node20</title>
<g id="a_Node000020"><a xlink:title=" ">
<polygon fill="#e0e0e0" stroke="#999999" points="397,-19 353,-19 353,0 397,0 397,-19"/>
<text text-anchor="middle" x="375" y="-7" font-family="Helvetica,sans-Serif" font-size="10.00">string</text>
</a>
</g>
</g>
<!-- Node1&#45;&gt;Node20 -->
<g id="edge19_Node000001_Node000020" class="edge">
<title>Node1&#45;&gt;Node20</title>
<g id="a_edge19_Node000001_Node000020"><a xlink:title=" ">
<path fill="none" stroke="#63b8ff" d="M716.74,-112.31C626.54,-105.59 500.79,-93.19 455,-74 429.33,-63.25 405.07,-41.81 390.14,-26.84"/>
<polygon fill="#63b8ff" stroke="#63b8ff" points="392.31,-24.05 382.85,-19.29 387.28,-28.91 392.31,-24.05"/>
</a>
</g>
</g>
<!-- Node21 -->
<g id="Node000021" class="node">
<title>Node21</title>
<g id="a_Node000021"><a xlink:title=" ">
<polygon fill="#e0e0e0" stroke="#999999" points="1625,-74 1577,-74 1577,-55 1625,-55 1625,-74"/>
<text text-anchor="middle" x="1601" y="-62" font-family="Helvetica,sans-Serif" font-size="10.00">thread</text>
</a>
</g>
</g>
<!-- Node1&#45;&gt;Node21 -->
<g id="edge20_Node000001_Node000021" class="edge">
<title>Node1&#45;&gt;Node21</title>
<g id="a_edge20_Node000001_Node000021"><a xlink:title=" ">
<path fill="none" stroke="#63b8ff" d="M915.19,-118.7C1057.7,-117.64 1328.55,-110.58 1567.06,-73.81"/>
<polygon fill="#63b8ff" stroke="#63b8ff" points="1567.62,-77.26 1576.96,-72.26 1566.54,-70.35 1567.62,-77.26"/>
</a>
</g>
</g>
<!-- Node22 -->
<g id="Node000022" class="node">
<title>Node22</title>
<g id="a_Node000022"><a xlink:title=" ">
<polygon fill="#e0e0e0" stroke="#999999" points="1688.5,-74 1643.5,-74 1643.5,-55 1688.5,-55 1688.5,-74"/>
<text text-anchor="middle" x="1666" y="-62" font-family="Helvetica,sans-Serif" font-size="10.00">utility</text>
</a>
</g>
</g>
<!-- Node1&#45;&gt;Node22 -->
<g id="edge21_Node000001_Node000022" class="edge">
<title>Node1&#45;&gt;Node22</title>
<g id="a_edge21_Node000001_Node000022"><a xlink:title=" ">
<path fill="none" stroke="#63b8ff" d="M915.24,-115.65C1097.65,-110 1480.65,-96.11 1633.25,-73.68"/>
<polygon fill="#63b8ff" stroke="#63b8ff" points="1634.05,-77.1 1643.4,-72.12 1632.98,-70.18 1634.05,-77.1"/>
</a>
</g>
</g>
<!-- Node23 -->
<g id="Node000023" class="node">
<title>Node23</title>
<g id="a_Node000023"><a xlink:title=" ">
<polygon fill="#e0e0e0" stroke="#999999" points="810.5,-19 763.5,-19 763.5,0 810.5,0 810.5,-19"/>
<text text-anchor="middle" x="787" y="-7" font-family="Helvetica,sans-Serif" font-size="10.00">vector</text>
</a>
</g>
</g>
<!-- Node1&#45;&gt;Node23 -->
<g id="edge22_Node000001_Node000023" class="edge">
<title>Node1&#45;&gt;Node23</title>
<g id="a_edge22_Node000001_Node000023"><a xlink:title=" ">
<path fill="none" stroke="#63b8ff" d="M799.97,-109.95C787.59,-102.35 771.35,-89.97 764,-74 756.98,-58.74 765.01,-40.68 773.45,-27.73"/>
<polygon fill="#63b8ff" stroke="#63b8ff" points="776.5,-29.48 779.46,-19.31 770.8,-25.42 776.5,-29.48"/>
</a>
</g>
</g>
<!-- Node24 -->
<g id="Node000024" class="node">
<title>Node24</title>
<g id="a_Node000024"><a xlink:title=" ">
<polygon fill="#e0e0e0" stroke="#999999" points="1376,-19 1284,-19 1284,0 1376,0 1376,-19"/>
<text text-anchor="middle" x="1330" y="-7" font-family="Helvetica,sans-Serif" font-size="10.00">../utils/utils.hpp</text>
</a>
</g>
</g>
<!-- Node1&#45;&gt;Node24 -->
<g id="edge23_Node000001_Node000024" class="edge">
<title>Node1&#45;&gt;Node24</title>
<g id="a_edge23_Node000001_Node000024"><a xlink:title=" ">
<path fill="none" stroke="#63b8ff" d="M895.31,-110C948.75,-103.11 1020.44,-91.62 1082,-74 1103.27,-67.91 1106.9,-61.63 1128,-55 1176.32,-39.83 1232.72,-27.86 1273.62,-20.18"/>
<polygon fill="#63b8ff" stroke="#63b8ff" points="1274.47,-23.58 1283.67,-18.32 1273.2,-16.7 1274.47,-23.58"/>
</a>
</g>
</g>
<!-- Node25 -->
<g id="Node000025" class="node">
<title>Node25</title>
<g id="a_Node000025"><a xlink:href="cli_8hpp.html" target="_top" xlink:title=" ">
<polygon fill="white" stroke="#666666" points="369.5,-74 320.5,-74 320.5,-55 369.5,-55 369.5,-74"/>
<text text-anchor="middle" x="345" y="-62" font-family="Helvetica,sans-Serif" font-size="10.00">cli.hpp</text>
</a>
</g>
</g>
<!-- Node1&#45;&gt;Node25 -->
<g id="edge24_Node000001_Node000025" class="edge">
<title>Node1&#45;&gt;Node25</title>
<g id="a_edge24_Node000001_Node000025"><a xlink:title=" ">
<path fill="none" stroke="#63b8ff" d="M716.93,-111.47C629.11,-104.48 497.54,-92.16 384,-74 382.55,-73.77 381.06,-73.51 379.57,-73.25"/>
<polygon fill="#63b8ff" stroke="#63b8ff" points="380.16,-69.8 369.68,-71.32 378.82,-76.67 380.16,-69.8"/>
</a>
</g>
</g>
<!-- Node27 -->
<g id="Node000027" class="node">
<title>Node27</title>
<g id="a_Node000027"><a xlink:href="miniply_8h.html" target="_top" xlink:title=" ">
<polygon fill="white" stroke="#666666" points="559.5,-74 464.5,-74 464.5,-55 559.5,-55 559.5,-74"/>
<text text-anchor="middle" x="512" y="-62" font-family="Helvetica,sans-Serif" font-size="10.00">extras/miniply.h</text>
</a>
</g>
</g>
<!-- Node1&#45;&gt;Node27 -->
<g id="edge28_Node000001_Node000027" class="edge">
<title>Node1&#45;&gt;Node27</title>
<g id="a_edge28_Node000001_Node000027"><a xlink:title=" ">
<path fill="none" stroke="#63b8ff" d="M767.16,-109.98C713.32,-100.6 626.8,-85.52 569.68,-75.56"/>
<polygon fill="#63b8ff" stroke="#63b8ff" points="570.17,-72.09 559.72,-73.82 568.97,-78.99 570.17,-72.09"/>
</a>
</g>
</g>
<!-- Node29 -->
<g id="Node000029" class="node">
<title>Node29</title>
<g id="a_Node000029"><a xlink:href="log_8hpp.html" target="_top" xlink:title=" ">
<polygon fill="white" stroke="#666666" points="712,-74 616,-74 616,-55 712,-55 712,-74"/>
<text text-anchor="middle" x="664" y="-62" font-family="Helvetica,sans-Serif" font-size="10.00">uvgvpcc/log.hpp</text>
</a>
</g>
</g>
<!-- Node1&#45;&gt;Node29 -->
<g id="edge34_Node000001_Node000029" class="edge">
<title>Node1&#45;&gt;Node29</title>
<g id="a_edge34_Node000001_Node000029"><a xlink:title=" ">
<path fill="none" stroke="#63b8ff" d="M791.58,-109.98C766.28,-101.16 726.55,-87.31 698.14,-77.41"/>
<polygon fill="#63b8ff" stroke="#63b8ff" points="699.21,-74.07 688.61,-74.08 696.9,-80.68 699.21,-74.07"/>
</a>
</g>
</g>
<!-- Node33 -->
<g id="Node000033" class="node">
<title>Node33</title>
<g id="a_Node000033"><a xlink:href="uvgvpcc_8hpp.html" target="_top" xlink:title=" ">
<polygon fill="white" stroke="#666666" points="966,-74 844,-74 844,-55 966,-55 966,-74"/>
<text text-anchor="middle" x="905" y="-62" font-family="Helvetica,sans-Serif" font-size="10.00">uvgvpcc/uvgvpcc.hpp</text>
</a>
</g>
</g>
<!-- Node1&#45;&gt;Node33 -->
<g id="edge41_Node000001_Node000033" class="edge">
<title>Node1&#45;&gt;Node33</title>
<g id="a_edge41_Node000001_Node000033"><a xlink:title=" ">
<path fill="none" stroke="#63b8ff" d="M830.3,-109.98C844.1,-101.77 865.24,-89.18 881.51,-79.49"/>
<polygon fill="#63b8ff" stroke="#63b8ff" points="883.64,-82.29 890.44,-74.17 880.06,-76.28 883.64,-82.29"/>
</a>
</g>
</g>
<!-- Node25&#45;&gt;Node17 -->
<g id="edge27_Node000025_Node000017" class="edge">
<title>Node25&#45;&gt;Node17</title>
<g id="a_edge27_Node000025_Node000017"><a xlink:title=" ">
<path fill="none" stroke="#63b8ff" d="M320.28,-55.1C292.77,-45.75 248.31,-30.65 218.87,-20.65"/>
<polygon fill="#63b8ff" stroke="#63b8ff" points="219.73,-17.24 209.14,-17.34 217.48,-23.87 219.73,-17.24"/>
</a>
</g>
</g>
<!-- Node25&#45;&gt;Node20 -->
<g id="edge26_Node000025_Node000020" class="edge">
<title>Node25&#45;&gt;Node20</title>
<g id="a_edge26_Node000025_Node000020"><a xlink:title=" ">
<path fill="none" stroke="#63b8ff" d="M349.95,-54.75C354.06,-47.49 360.03,-36.95 365.1,-27.98"/>
<polygon fill="#63b8ff" stroke="#63b8ff" points="368.26,-29.52 370.14,-19.09 362.17,-26.07 368.26,-29.52"/>
</a>
</g>
</g>
<!-- Node26 -->
<g id="Node000026" class="node">
<title>Node26</title>
<g id="a_Node000026"><a xlink:title=" ">
<polygon fill="#e0e0e0" stroke="#999999" points="271,-19 227,-19 227,0 271,0 271,-19"/>
<text text-anchor="middle" x="249" y="-7" font-family="Helvetica,sans-Serif" font-size="10.00">limits</text>
</a>
</g>
</g>
<!-- Node25&#45;&gt;Node26 -->
<g id="edge25_Node000025_Node000026" class="edge">
<title>Node25&#45;&gt;Node26</title>
<g id="a_edge25_Node000025_Node000026"><a xlink:title=" ">
<path fill="none" stroke="#63b8ff" d="M329.58,-54.98C314.55,-46.69 291.46,-33.94 273.84,-24.22"/>
<polygon fill="#63b8ff" stroke="#63b8ff" points="275.15,-20.94 264.7,-19.17 271.77,-27.07 275.15,-20.94"/>
</a>
</g>
</g>
<!-- Node27&#45;&gt;Node7 -->
<g id="edge30_Node000027_Node000007" class="edge">
<title>Node27&#45;&gt;Node7</title>
<g id="a_edge30_Node000027_Node000007"><a xlink:title=" ">
<path fill="none" stroke="#63b8ff" d="M512,-54.75C512,-47.8 512,-37.85 512,-29.13"/>
<polygon fill="#63b8ff" stroke="#63b8ff" points="515.5,-29.09 512,-19.09 508.5,-29.09 515.5,-29.09"/>
</a>
</g>
</g>
<!-- Node27&#45;&gt;Node8 -->
<g id="edge31_Node000027_Node000008" class="edge">
<title>Node27&#45;&gt;Node8</title>
<g id="a_edge31_Node000027_Node000008"><a xlink:title=" ">
<path fill="none" stroke="#63b8ff" d="M479.79,-54.98C447.95,-46.55 397.59,-33.21 344.93,-19.24"/>
<polygon fill="#63b8ff" stroke="#63b8ff" points="345.63,-15.81 335.07,-16.63 343.84,-22.58 345.63,-15.81"/>
</a>
</g>
</g>
<!-- Node27&#45;&gt;Node20 -->
<g id="edge32_Node000027_Node000020" class="edge">
<title>Node27&#45;&gt;Node20</title>
<g id="a_edge32_Node000027_Node000020"><a xlink:title=" ">
<path fill="none" stroke="#63b8ff" d="M489.99,-54.98C467.55,-46.3 432.52,-32.75 407.01,-22.88"/>
<polygon fill="#63b8ff" stroke="#63b8ff" points="408,-19.51 397.41,-19.17 405.48,-26.04 408,-19.51"/>
</a>
</g>
</g>
<!-- Node27&#45;&gt;Node23 -->
<g id="edge33_Node000027_Node000023" class="edge">
<title>Node27&#45;&gt;Node23</title>
<g id="a_edge33_Node000027_Node000023"><a xlink:title=" ">
<path fill="none" stroke="#63b8ff" d="M559.95,-55.7C606.82,-47.86 680.38,-34.93 753.42,-18.99"/>
<polygon fill="#63b8ff" stroke="#63b8ff" points="754.24,-22.4 763.25,-16.83 752.74,-15.56 754.24,-22.4"/>
</a>
</g>
</g>
<!-- Node28 -->
<g id="Node000028" class="node">
<title>Node28</title>
<g id="a_Node000028"><a xlink:title=" ">
<polygon fill="#e0e0e0" stroke="#999999" points="468.5,-19 415.5,-19 415.5,0 468.5,0 468.5,-19"/>
<text text-anchor="middle" x="442" y="-7" font-family="Helvetica,sans-Serif" font-size="10.00">cstdarg</text>
</a>
</g>
</g>
<!-- Node27&#45;&gt;Node28 -->
<g id="edge29_Node000027_Node000028" class="edge">
<title>Node27&#45;&gt;Node28</title>
<g id="a_edge29_Node000027_Node000028"><a xlink:title=" ">
<path fill="none" stroke="#63b8ff" d="M500.75,-54.98C490.2,-47 474.2,-34.88 461.56,-25.31"/>
<polygon fill="#63b8ff" stroke="#63b8ff" points="463.54,-22.42 453.45,-19.17 459.31,-28 463.54,-22.42"/>
</a>
</g>
</g>
<!-- Node29&#45;&gt;Node12 -->
<g id="edge38_Node000029_Node000012" class="edge">
<title>Node29&#45;&gt;Node12</title>
<g id="a_edge38_Node000029_Node000012"><a xlink:title=" ">
<path fill="none" stroke="#63b8ff" d="M695.33,-54.98C728.89,-45.86 782.24,-31.36 818.86,-21.41"/>
<polygon fill="#63b8ff" stroke="#63b8ff" points="819.98,-24.73 828.71,-18.73 818.14,-17.98 819.98,-24.73"/>
</a>
</g>
</g>
<!-- Node29&#45;&gt;Node20 -->
<g id="edge39_Node000029_Node000020" class="edge">
<title>Node29&#45;&gt;Node20</title>
<g id="a_edge39_Node000029_Node000020"><a xlink:title=" ">
<path fill="none" stroke="#63b8ff" d="M615.7,-56.6C565.79,-49.15 485.46,-36.27 407.3,-19.11"/>
<polygon fill="#63b8ff" stroke="#63b8ff" points="407.81,-15.64 397.29,-16.89 406.29,-22.47 407.81,-15.64"/>
</a>
</g>
</g>
<!-- Node29&#45;&gt;Node28 -->
<g id="edge36_Node000029_Node000028" class="edge">
<title>Node29&#45;&gt;Node28</title>
<g id="a_edge36_Node000029_Node000028"><a xlink:title=" ">
<path fill="none" stroke="#63b8ff" d="M628.33,-54.98C587.2,-45.17 519.95,-29.11 478.48,-19.21"/>
<polygon fill="#63b8ff" stroke="#63b8ff" points="479.06,-15.75 468.52,-16.83 477.44,-22.56 479.06,-15.75"/>
</a>
</g>
</g>
<!-- Node30 -->
<g id="Node000030" class="node">
<title>Node30</title>
<g id="a_Node000030"><a xlink:title=" ">
<polygon fill="#e0e0e0" stroke="#999999" points="605,-19 555,-19 555,0 605,0 605,-19"/>
<text text-anchor="middle" x="580" y="-7" font-family="Helvetica,sans-Serif" font-size="10.00">chrono</text>
</a>
</g>
</g>
<!-- Node29&#45;&gt;Node30 -->
<g id="edge35_Node000029_Node000030" class="edge">
<title>Node29&#45;&gt;Node30</title>
<g id="a_edge35_Node000029_Node000030"><a xlink:title=" ">
<path fill="none" stroke="#63b8ff" d="M650.5,-54.98C637.6,-46.84 617.9,-34.41 602.6,-24.76"/>
<polygon fill="#63b8ff" stroke="#63b8ff" points="604.07,-21.55 593.74,-19.17 600.33,-27.47 604.07,-21.55"/>
</a>
</g>
</g>
<!-- Node31 -->
<g id="Node000031" class="node">
<title>Node31</title>
<g id="a_Node000031"><a xlink:title=" ">
<polygon fill="#e0e0e0" stroke="#999999" points="679,-19 623,-19 623,0 679,0 679,-19"/>
<text text-anchor="middle" x="651" y="-7" font-family="Helvetica,sans-Serif" font-size="10.00">iomanip</text>
</a>
</g>
</g>
<!-- Node29&#45;&gt;Node31 -->
<g id="edge37_Node000029_Node000031" class="edge">
<title>Node29&#45;&gt;Node31</title>
<g id="a_edge37_Node000029_Node000031"><a xlink:title=" ">
<path fill="none" stroke="#63b8ff" d="M661.85,-54.75C660.13,-47.72 657.65,-37.62 655.5,-28.84"/>
<polygon fill="#63b8ff" stroke="#63b8ff" points="658.89,-27.97 653.11,-19.09 652.09,-29.63 658.89,-27.97"/>
</a>
</g>
</g>
<!-- Node32 -->
<g id="Node000032" class="node">
<title>Node32</title>
<g id="a_Node000032"><a xlink:title=" ">
<polygon fill="#e0e0e0" stroke="#999999" points="745,-19 697,-19 697,0 745,0 745,-19"/>
<text text-anchor="middle" x="721" y="-7" font-family="Helvetica,sans-Serif" font-size="10.00">mutex</text>
</a>
</g>
</g>
<!-- Node29&#45;&gt;Node32 -->
<g id="edge40_Node000029_Node000032" class="edge">
<title>Node29&#45;&gt;Node32</title>
<g id="a_edge40_Node000029_Node000032"><a xlink:title=" ">
<path fill="none" stroke="#63b8ff" d="M673.16,-54.98C681.5,-47.23 694.03,-35.58 704.18,-26.14"/>
<polygon fill="#63b8ff" stroke="#63b8ff" points="706.74,-28.54 711.68,-19.17 701.97,-23.42 706.74,-28.54"/>
</a>
</g>
</g>
<!-- Node33&#45;&gt;Node6 -->
<g id="edge42_Node000033_Node000006" class="edge">
<title>Node33&#45;&gt;Node6</title>
<g id="a_edge42_Node000033_Node000006"><a xlink:title=" ">
<path fill="none" stroke="#63b8ff" d="M909.79,-54.75C913.76,-47.49 919.53,-36.95 924.43,-27.98"/>
<polygon fill="#63b8ff" stroke="#63b8ff" points="927.57,-29.54 929.3,-19.09 921.43,-26.18 927.57,-29.54"/>
</a>
</g>
</g>
<!-- Node33&#45;&gt;Node7 -->
<g id="edge43_Node000033_Node000007" class="edge">
<title>Node33&#45;&gt;Node7</title>
<g id="a_edge43_Node000033_Node000007"><a xlink:title=" ">
<path fill="none" stroke="#63b8ff" d="M843.99,-58.22C774.38,-51.68 657.01,-39.11 547.11,-19"/>
<polygon fill="#63b8ff" stroke="#63b8ff" points="547.65,-15.54 537.18,-17.16 546.37,-22.42 547.65,-15.54"/>
</a>
</g>
</g>
<!-- Node33&#45;&gt;Node12 -->
<g id="edge44_Node000033_Node000012" class="edge">
<title>Node33&#45;&gt;Node12</title>
<g id="a_edge44_Node000033_Node000012"><a xlink:title=" ">
<path fill="none" stroke="#63b8ff" d="M897.4,-54.75C890.84,-47.18 881.18,-36.05 873.19,-26.84"/>
<polygon fill="#63b8ff" stroke="#63b8ff" points="875.65,-24.35 866.45,-19.09 870.37,-28.94 875.65,-24.35"/>
</a>
</g>
</g>
<!-- Node33&#45;&gt;Node14 -->
<g id="edge45_Node000033_Node000014" class="edge">
<title>Node33&#45;&gt;Node14</title>
<g id="a_edge45_Node000033_Node000014"><a xlink:title=" ">
<path fill="none" stroke="#63b8ff" d="M931.99,-54.98C960.2,-46.09 1004.64,-32.07 1036.08,-22.15"/>
<polygon fill="#63b8ff" stroke="#63b8ff" points="1037.31,-25.43 1045.8,-19.08 1035.21,-18.75 1037.31,-25.43"/>
</a>
</g>
</g>
<!-- Node33&#45;&gt;Node16 -->
<g id="edge47_Node000033_Node000016" class="edge">
<title>Node33&#45;&gt;Node16</title>
<g id="a_edge47_Node000033_Node000016"><a xlink:title=" ">
<path fill="none" stroke="#63b8ff" d="M945.33,-54.98C990.39,-45.47 1063.18,-30.1 1110.31,-20.15"/>
<polygon fill="#63b8ff" stroke="#63b8ff" points="1111.18,-23.54 1120.24,-18.05 1109.74,-16.69 1111.18,-23.54"/>
</a>
</g>
</g>
<!-- Node33&#45;&gt;Node18 -->
<g id="edge48_Node000033_Node000018" class="edge">
<title>Node33&#45;&gt;Node18</title>
<g id="a_edge48_Node000033_Node000018"><a xlink:title=" ">
<path fill="none" stroke="#63b8ff" d="M966.17,-55.7C1023.96,-48.01 1113.27,-35.32 1199.78,-19.11"/>
<polygon fill="#63b8ff" stroke="#63b8ff" points="1200.59,-22.52 1209.77,-17.22 1199.29,-15.64 1200.59,-22.52"/>
</a>
</g>
</g>
<!-- Node33&#45;&gt;Node20 -->
<g id="edge49_Node000033_Node000020" class="edge">
<title>Node33&#45;&gt;Node20</title>
<g id="a_edge49_Node000033_Node000020"><a xlink:title=" ">
<path fill="none" stroke="#63b8ff" d="M843.85,-61.56C751.24,-57.86 569.85,-47.58 407.42,-18.93"/>
<polygon fill="#63b8ff" stroke="#63b8ff" points="407.7,-15.43 397.24,-17.11 406.47,-22.32 407.7,-15.43"/>
</a>
</g>
</g>
<!-- Node33&#45;&gt;Node23 -->
<g id="edge50_Node000033_Node000023" class="edge">
<title>Node33&#45;&gt;Node23</title>
<g id="a_edge50_Node000033_Node000023"><a xlink:title=" ">
<path fill="none" stroke="#63b8ff" d="M886.04,-54.98C866.97,-46.42 837.34,-33.11 815.45,-23.28"/>
<polygon fill="#63b8ff" stroke="#63b8ff" points="816.86,-20.07 806.3,-19.17 813.99,-26.46 816.86,-20.07"/>
</a>
</g>
</g>
<!-- Node33&#45;&gt;Node24 -->
<g id="edge51_Node000033_Node000024" class="edge">
<title>Node33&#45;&gt;Node24</title>
<g id="a_edge51_Node000033_Node000024"><a xlink:title=" ">
<path fill="none" stroke="#63b8ff" d="M966.3,-56.77C1037.67,-48.78 1159.38,-34.73 1273.82,-19.12"/>
<polygon fill="#63b8ff" stroke="#63b8ff" points="1274.37,-22.58 1283.8,-17.75 1273.42,-15.64 1274.37,-22.58"/>
</a>
</g>
</g>
<!-- Node34 -->
<g id="Node000034" class="node">
<title>Node34</title>
<g id="a_Node000034"><a xlink:title=" ">
<polygon fill="#e0e0e0" stroke="#999999" points="1025.5,-19 978.5,-19 978.5,0 1025.5,0 1025.5,-19"/>
<text text-anchor="middle" x="1002" y="-7" font-family="Helvetica,sans-Serif" font-size="10.00">queue</text>
</a>
</g>
</g>
<!-- Node33&#45;&gt;Node34 -->
<g id="edge46_Node000033_Node000034" class="edge">
<title>Node33&#45;&gt;Node34</title>
<g id="a_edge46_Node000033_Node000034"><a xlink:title=" ">
<path fill="none" stroke="#63b8ff" d="M920.58,-54.98C935.77,-46.69 959.1,-33.94 976.9,-24.22"/>
<polygon fill="#63b8ff" stroke="#63b8ff" points="979.03,-27.04 986.13,-19.17 975.68,-20.89 979.03,-27.04"/>
</a>
</g>
</g>
</g>
</svg>
