<?xml version="1.0" encoding="UTF-8" standalone="no"?>
<!DOCTYPE svg PUBLIC "-//W3C//DTD SVG 1.1//EN"
 "http://www.w3.org/Graphics/SVG/1.1/DTD/svg11.dtd">
<!-- Generated by graphviz version 2.43.0 (0)
 -->
<!-- Title: main Pages: 1 -->
<svg width="911pt" height="1203pt"
 viewBox="0.00 0.00 911.00 1203.00" xmlns="http://www.w3.org/2000/svg" xmlns:xlink="http://www.w3.org/1999/xlink">
<g id="graph0" class="graph" transform="scale(1 1) rotate(0) translate(4 1199)">
<title>main</title>
<!-- Node1 -->
<g id="Node000001" class="node">
<title>Node1</title>
<g id="a_Node000001"><a xlink:title="This example application offers a simple approach to working with the uvgVPCCenc library and highligh...">
<polygon fill="#999999" stroke="#666666" points="41,-170 0,-170 0,-151 41,-151 41,-170"/>
<text text-anchor="middle" x="20.5" y="-158" font-family="Helvetica,sans-Serif" font-size="10.00">main</text>
</a>
</g>
</g>
<!-- Node2 -->
<g id="Node000002" class="node">
<title>Node2</title>
<g id="a_Node000002"><a xlink:href="namespaceuvgvpcc__enc_1_1API.html#a75dacaf2d79b4a549ecb2a91ae8a6105" target="_top" xlink:title="This function is called when all frames to be processed have been sent to the encoder....">
<polygon fill="white" stroke="#666666" points="248.5,-659.5 78.5,-659.5 78.5,-629.5 248.5,-629.5 248.5,-659.5"/>
<text text-anchor="start" x="86.5" y="-647.5" font-family="Helvetica,sans-Serif" font-size="10.00">uvgvpcc_enc::API::emptyFrame</text>
<text text-anchor="middle" x="163.5" y="-636.5" font-family="Helvetica,sans-Serif" font-size="10.00">Queue</text>
</a>
</g>
</g>
<!-- Node1&#45;&gt;Node2 -->
<g id="edge1_Node000001_Node000002" class="edge">
<title>Node1&#45;&gt;Node2</title>
<g id="a_edge1_Node000001_Node000002"><a xlink:title=" ">
<path fill="none" stroke="#63b8ff" d="M21.32,-170.27C20.87,-213.78 22.55,-393.58 77,-526.5 92.03,-563.2 120.71,-599.19 140.69,-621.59"/>
<polygon fill="#63b8ff" stroke="#63b8ff" points="138.3,-624.16 147.61,-629.2 143.47,-619.45 138.3,-624.16"/>
</a>
</g>
</g>
<!-- Node27 -->
<g id="Node000027" class="node">
<title>Node27</title>
<g id="a_Node000027"><a xlink:href="namespaceuvgvpcc__enc_1_1API.html#ac96f1663ec59a1bbc04778ae958780fa" target="_top" xlink:title="Entry point of the uvgVPCCenc library. Take as input a frame. Create all the jobs for processing this...">
<polygon fill="white" stroke="#666666" points="235,-517.5 92,-517.5 92,-487.5 235,-487.5 235,-517.5"/>
<text text-anchor="start" x="100" y="-505.5" font-family="Helvetica,sans-Serif" font-size="10.00">uvgvpcc_enc::API::encode</text>
<text text-anchor="middle" x="163.5" y="-494.5" font-family="Helvetica,sans-Serif" font-size="10.00">Frame</text>
</a>
</g>
</g>
<!-- Node1&#45;&gt;Node27 -->
<g id="edge17_Node000001_Node000027" class="edge">
<title>Node1&#45;&gt;Node27</title>
<g id="a_edge17_Node000001_Node000027"><a xlink:title=" ">
<path fill="none" stroke="#63b8ff" d="M25.42,-170C44.03,-215.15 123.81,-408.65 152.32,-477.81"/>
<polygon fill="#63b8ff" stroke="#63b8ff" points="149.24,-479.53 156.29,-487.44 155.72,-476.86 149.24,-479.53"/>
</a>
</g>
</g>
<!-- Node61 -->
<g id="Node000061" class="node">
<title>Node61</title>
<g id="a_Node000061"><a xlink:href="classStatsCollector.html#aea34765bec5ebb50627843a793ce317d" target="_top" xlink:title=" ">
<polygon fill="white" stroke="#666666" points="217,-213 110,-213 110,-194 217,-194 217,-213"/>
<text text-anchor="middle" x="163.5" y="-201" font-family="Helvetica,sans-Serif" font-size="10.00">StatsCollector::init</text>
</a>
</g>
</g>
<!-- Node1&#45;&gt;Node61 -->
<g id="edge44_Node000001_Node000061" class="edge">
<title>Node1&#45;&gt;Node61</title>
<g id="a_edge44_Node000001_Node000061"><a xlink:title=" ">
<path fill="none" stroke="#63b8ff" d="M41.19,-170.1C51.64,-174.92 64.82,-180.55 77,-184.5 85.01,-187.09 93.55,-189.46 102.02,-191.56"/>
<polygon fill="#63b8ff" stroke="#63b8ff" points="101.35,-195 111.89,-193.92 102.97,-188.19 101.35,-195"/>
</a>
</g>
</g>
<!-- Node62 -->
<g id="Node000062" class="node">
<title>Node62</title>
<g id="a_Node000062"><a xlink:href="namespaceuvgvpcc__enc_1_1API.html#a3adde30edb633723ea38c3860bc86007" target="_top" xlink:title="Create the context of the uvgVPCCenc encoder. Parse the input parameters and verify if the given conf...">
<polygon fill="white" stroke="#666666" points="238,-175.5 89,-175.5 89,-145.5 238,-145.5 238,-175.5"/>
<text text-anchor="start" x="97" y="-163.5" font-family="Helvetica,sans-Serif" font-size="10.00">uvgvpcc_enc::API::initialize</text>
<text text-anchor="middle" x="163.5" y="-152.5" font-family="Helvetica,sans-Serif" font-size="10.00">Encoder</text>
</a>
</g>
</g>
<!-- Node1&#45;&gt;Node62 -->
<g id="edge45_Node000001_Node000062" class="edge">
<title>Node1&#45;&gt;Node62</title>
<g id="a_edge45_Node000001_Node000062"><a xlink:title=" ">
<path fill="none" stroke="#63b8ff" d="M41.11,-160.5C51.34,-160.5 64.63,-160.5 78.65,-160.5"/>
<polygon fill="#63b8ff" stroke="#63b8ff" points="78.95,-164 88.95,-160.5 78.95,-157 78.95,-164"/>
</a>
</g>
</g>
<!-- Node65 -->
<g id="Node000065" class="node">
<title>Node65</title>
<g id="a_Node000065"><a xlink:href="namespacecli.html#a2d93061cde230144d832875cd3e999b6" target="_top" xlink:title="Parse command line options.">
<polygon fill="white" stroke="#666666" points="207,-127 120,-127 120,-108 207,-108 207,-127"/>
<text text-anchor="middle" x="163.5" y="-115" font-family="Helvetica,sans-Serif" font-size="10.00">cli::opts_parse</text>
</a>
</g>
</g>
<!-- Node1&#45;&gt;Node65 -->
<g id="edge48_Node000001_Node000065" class="edge">
<title>Node1&#45;&gt;Node65</title>
<g id="a_edge48_Node000001_Node000065"><a xlink:title=" ">
<path fill="none" stroke="#63b8ff" d="M41.19,-150.9C51.64,-146.08 64.82,-140.45 77,-136.5 87.52,-133.09 98.97,-130.08 109.96,-127.53"/>
<polygon fill="#63b8ff" stroke="#63b8ff" points="110.89,-130.91 119.89,-125.31 109.37,-124.07 110.89,-130.91"/>
</a>
</g>
</g>
<!-- Node71 -->
<g id="Node000071" class="node">
<title>Node71</title>
<g id="a_Node000071"><a xlink:href="namespacecli.html#aef6d49e975008a8484ff5046a66c1051" target="_top" xlink:title="Print the default usage of the application.">
<polygon fill="white" stroke="#666666" points="209,-90 118,-90 118,-71 209,-71 209,-90"/>
<text text-anchor="middle" x="163.5" y="-78" font-family="Helvetica,sans-Serif" font-size="10.00">cli::print_usage</text>
</a>
</g>
</g>
<!-- Node1&#45;&gt;Node71 -->
<g id="edge53_Node000001_Node000071" class="edge">
<title>Node1&#45;&gt;Node71</title>
<g id="a_edge53_Node000001_Node000071"><a xlink:title=" ">
<path fill="none" stroke="#63b8ff" d="M27.38,-150.98C36.33,-137.34 54.71,-112.43 77,-99.5 86.47,-94.01 97.37,-90.1 108.15,-87.33"/>
<polygon fill="#63b8ff" stroke="#63b8ff" points="109,-90.72 117.97,-85.08 107.44,-83.9 109,-90.72"/>
</a>
</g>
</g>
<!-- Node72 -->
<g id="Node000072" class="node">
<title>Node72</title>
<g id="a_Node000072"><a xlink:href="namespaceuvgvpcc__enc_1_1API.html#a4f96ae0ff4cd8de49d2174443e281cbe" target="_top" xlink:title="The only way to modify the exposed uvgVPCCenc parameters is by calling this function.">
<polygon fill="white" stroke="#666666" points="250,-53 77,-53 77,-34 250,-34 250,-53"/>
<text text-anchor="middle" x="163.5" y="-41" font-family="Helvetica,sans-Serif" font-size="10.00">uvgvpcc_enc::API::setParameter</text>
</a>
</g>
</g>
<!-- Node1&#45;&gt;Node72 -->
<g id="edge54_Node000001_Node000072" class="edge">
<title>Node1&#45;&gt;Node72</title>
<g id="a_edge54_Node000001_Node000072"><a xlink:title=" ">
<path fill="none" stroke="#63b8ff" d="M24,-150.81C29.72,-130.72 45.72,-84.48 77,-61.5 78.89,-60.11 80.86,-58.83 82.89,-57.64"/>
<polygon fill="#63b8ff" stroke="#63b8ff" points="84.81,-60.6 92.2,-53 81.69,-54.33 84.81,-60.6"/>
</a>
</g>
</g>
<!-- Node3 -->
<g id="Node000003" class="node">
<title>Node3</title>
<g id="a_Node000003"><a xlink:href="classBitstreamGeneration.html#a575d20f0f40bad111cab04d0b4f259ee" target="_top" xlink:title=" ">
<polygon fill="white" stroke="#666666" points="456.5,-937.5 314.5,-937.5 314.5,-907.5 456.5,-907.5 456.5,-937.5"/>
<text text-anchor="start" x="322.5" y="-925.5" font-family="Helvetica,sans-Serif" font-size="10.00">BitstreamGeneration</text>
<text text-anchor="middle" x="385.5" y="-914.5" font-family="Helvetica,sans-Serif" font-size="10.00">::createV3CGOFBitstream</text>
</a>
</g>
</g>
<!-- Node2&#45;&gt;Node3 -->
<g id="edge2_Node000002_Node000003" class="edge">
<title>Node2&#45;&gt;Node3</title>
<g id="a_edge2_Node000002_Node000003"><a xlink:title=" ">
<path fill="none" stroke="#63b8ff" d="M176.64,-659.84C213.15,-705.98 322.12,-843.67 365.94,-899.05"/>
<polygon fill="#63b8ff" stroke="#63b8ff" points="363.45,-901.54 372.4,-907.2 368.93,-897.19 363.45,-901.54"/>
</a>
</g>
</g>
<!-- Node25 -->
<g id="Node000025" class="node">
<title>Node25</title>
<g id="a_Node000025"><a xlink:href="structuvgutils_1_1JobManager.html#a6e66eca49cc08904ae751a00c514b7c0" target="_top" xlink:title=" ">
<polygon fill="white" stroke="#666666" points="445,-683.5 326,-683.5 326,-653.5 445,-653.5 445,-683.5"/>
<text text-anchor="start" x="334" y="-671.5" font-family="Helvetica,sans-Serif" font-size="10.00">uvgutils::JobManager</text>
<text text-anchor="middle" x="385.5" y="-660.5" font-family="Helvetica,sans-Serif" font-size="10.00">::getJob</text>
</a>
</g>
</g>
<!-- Node2&#45;&gt;Node25 -->
<g id="edge15_Node000002_Node000025" class="edge">
<title>Node2&#45;&gt;Node25</title>
<g id="a_edge15_Node000002_Node000025"><a xlink:title=" ">
<path fill="none" stroke="#63b8ff" d="M248.61,-653.68C270.71,-656.09 294.29,-658.66 315.5,-660.97"/>
<polygon fill="#63b8ff" stroke="#63b8ff" points="315.38,-664.48 325.7,-662.09 316.14,-657.52 315.38,-664.48"/>
</a>
</g>
</g>
<!-- Node26 -->
<g id="Node000026" class="node">
<title>Node26</title>
<g id="a_Node000026"><a xlink:href="structuvgutils_1_1JobManager.html#aa54ae65c412fc6ecf3f77b177e1ec7e1" target="_top" xlink:title=" ">
<polygon fill="white" stroke="#666666" points="452.5,-635.5 318.5,-635.5 318.5,-605.5 452.5,-605.5 452.5,-635.5"/>
<text text-anchor="start" x="326.5" y="-623.5" font-family="Helvetica,sans-Serif" font-size="10.00">uvgutils::JobManager</text>
<text text-anchor="middle" x="385.5" y="-612.5" font-family="Helvetica,sans-Serif" font-size="10.00">::submitCurrentGOFJobs</text>
</a>
</g>
</g>
<!-- Node2&#45;&gt;Node26 -->
<g id="edge16_Node000002_Node000026" class="edge">
<title>Node2&#45;&gt;Node26</title>
<g id="a_edge16_Node000002_Node000026"><a xlink:title=" ">
<path fill="none" stroke="#63b8ff" d="M248.61,-635.32C268.15,-633.19 288.84,-630.94 308.03,-628.84"/>
<polygon fill="#63b8ff" stroke="#63b8ff" points="308.65,-632.3 318.21,-627.73 307.89,-625.34 308.65,-632.3"/>
</a>
</g>
</g>
<!-- Node4 -->
<g id="Node000004" class="node">
<title>Node4</title>
<g id="a_Node000004"><a xlink:href="classv3c__gof.html#a6a107d849bed5cacedc55fe98f0772c1" target="_top" xlink:title=" ">
<polygon fill="white" stroke="#666666" points="686,-827.5 556,-827.5 556,-797.5 686,-797.5 686,-827.5"/>
<text text-anchor="start" x="564" y="-815.5" font-family="Helvetica,sans-Serif" font-size="10.00">v3c_gof::add_v3c_atlas</text>
<text text-anchor="middle" x="621" y="-804.5" font-family="Helvetica,sans-Serif" font-size="10.00">_context</text>
</a>
</g>
</g>
<!-- Node3&#45;&gt;Node4 -->
<g id="edge3_Node000003_Node000004" class="edge">
<title>Node3&#45;&gt;Node4</title>
<g id="a_edge3_Node000003_Node000004"><a xlink:title=" ">
<path fill="none" stroke="#63b8ff" d="M405.9,-907.43C431.1,-888.54 477.09,-856.35 521,-837.5 528.99,-834.07 537.55,-831.04 546.17,-828.38"/>
<polygon fill="#63b8ff" stroke="#63b8ff" points="547.29,-831.69 555.9,-825.53 545.32,-824.98 547.29,-831.69"/>
</a>
</g>
</g>
<!-- Node5 -->
<g id="Node000005" class="node">
<title>Node5</title>
<g id="a_Node000005"><a xlink:href="classv3c__gof.html#a263296629443aa4ac7dcf7f7e7884389" target="_top" xlink:title=" ">
<polygon fill="white" stroke="#666666" points="694,-779 548,-779 548,-760 694,-760 694,-779"/>
<text text-anchor="middle" x="621" y="-767" font-family="Helvetica,sans-Serif" font-size="10.00">v3c_gof::add_v3c_avd_sub</text>
</a>
</g>
</g>
<!-- Node3&#45;&gt;Node5 -->
<g id="edge4_Node000003_Node000005" class="edge">
<title>Node3&#45;&gt;Node5</title>
<g id="a_edge4_Node000003_Node000005"><a xlink:title=" ">
<path fill="none" stroke="#63b8ff" d="M397.03,-907.11C417.37,-878.67 465.06,-818.09 521,-788.5 526.48,-785.6 532.34,-783.14 538.37,-781.05"/>
<polygon fill="#63b8ff" stroke="#63b8ff" points="539.45,-784.38 547.96,-778.07 537.37,-777.7 539.45,-784.38"/>
</a>
</g>
</g>
<!-- Node6 -->
<g id="Node000006" class="node">
<title>Node6</title>
<g id="a_Node000006"><a xlink:href="classv3c__gof.html#a899ad52a9837759feead70e5af99da94" target="_top" xlink:title=" ">
<polygon fill="white" stroke="#666666" points="694,-742 548,-742 548,-723 694,-723 694,-742"/>
<text text-anchor="middle" x="621" y="-730" font-family="Helvetica,sans-Serif" font-size="10.00">v3c_gof::add_v3c_gvd_sub</text>
</a>
</g>
</g>
<!-- Node3&#45;&gt;Node6 -->
<g id="edge5_Node000003_Node000006" class="edge">
<title>Node3&#45;&gt;Node6</title>
<g id="a_edge5_Node000003_Node000006"><a xlink:title=" ">
<path fill="none" stroke="#63b8ff" d="M393.6,-907.43C410.45,-873.47 456.32,-790.89 521,-751.5 526.4,-748.21 532.24,-745.48 538.29,-743.2"/>
<polygon fill="#63b8ff" stroke="#63b8ff" points="539.57,-746.47 547.95,-739.99 537.36,-739.82 539.57,-746.47"/>
</a>
</g>
</g>
<!-- Node7 -->
<g id="Node000007" class="node">
<title>Node7</title>
<g id="a_Node000007"><a xlink:href="classv3c__gof.html#a418e29be967d58974050ead4ec90c227" target="_top" xlink:title=" ">
<polygon fill="white" stroke="#666666" points="694,-1195 548,-1195 548,-1176 694,-1176 694,-1195"/>
<text text-anchor="middle" x="621" y="-1183" font-family="Helvetica,sans-Serif" font-size="10.00">v3c_gof::add_v3c_ovd_sub</text>
</a>
</g>
</g>
<!-- Node3&#45;&gt;Node7 -->
<g id="edge6_Node000003_Node000007" class="edge">
<title>Node3&#45;&gt;Node7</title>
<g id="a_edge6_Node000003_Node000007"><a xlink:title=" ">
<path fill="none" stroke="#63b8ff" d="M389.96,-937.62C400.78,-981.23 438.32,-1107.94 521,-1167.5 526.26,-1171.29 532.07,-1174.35 538.16,-1176.83"/>
<polygon fill="#63b8ff" stroke="#63b8ff" points="537.33,-1180.25 547.93,-1180.25 539.65,-1173.64 537.33,-1180.25"/>
</a>
</g>
</g>
<!-- Node8 -->
<g id="Node000008" class="node">
<title>Node8</title>
<g id="a_Node000008"><a xlink:href="classv3c__gof.html#abe8c31a1393a898d71178cb79a687893" target="_top" xlink:title=" ">
<polygon fill="white" stroke="#666666" points="682.5,-1158 559.5,-1158 559.5,-1139 682.5,-1139 682.5,-1158"/>
<text text-anchor="middle" x="621" y="-1146" font-family="Helvetica,sans-Serif" font-size="10.00">v3c_gof::add_v3c_vps</text>
</a>
</g>
</g>
<!-- Node3&#45;&gt;Node8 -->
<g id="edge7_Node000003_Node000008" class="edge">
<title>Node3&#45;&gt;Node8</title>
<g id="a_edge7_Node000003_Node000008"><a xlink:title=" ">
<path fill="none" stroke="#63b8ff" d="M391.45,-937.58C405.12,-976.61 447.31,-1081.34 521,-1130.5 529.59,-1136.23 539.49,-1140.27 549.64,-1143.11"/>
<polygon fill="#63b8ff" stroke="#63b8ff" points="548.87,-1146.52 559.41,-1145.46 550.51,-1139.71 548.87,-1146.52"/>
</a>
</g>
</g>
<!-- Node9 -->
<g id="Node000009" class="node">
<title>Node9</title>
<g id="a_Node000009"><a xlink:href="video__sub__bitstream_8cpp.html#ae8d99b3cf0d33016153819e640104529" target="_top" xlink:title=" ">
<polygon fill="white" stroke="#666666" points="699,-1121 543,-1121 543,-1102 699,-1102 699,-1121"/>
<text text-anchor="middle" x="621" y="-1109" font-family="Helvetica,sans-Serif" font-size="10.00">byteStreamToSampleStream</text>
</a>
</g>
</g>
<!-- Node3&#45;&gt;Node9 -->
<g id="edge8_Node000003_Node000009" class="edge">
<title>Node3&#45;&gt;Node9</title>
<g id="a_edge8_Node000003_Node000009"><a xlink:title=" ">
<path fill="none" stroke="#63b8ff" d="M393.58,-937.62C410.37,-971.67 456.13,-1054.43 521,-1093.5 524.89,-1095.84 529.02,-1097.9 533.29,-1099.7"/>
<polygon fill="#63b8ff" stroke="#63b8ff" points="532.23,-1103.04 542.83,-1103.24 534.67,-1096.48 532.23,-1103.04"/>
</a>
</g>
</g>
<!-- Node10 -->
<g id="Node000010" class="node">
<title>Node10</title>
<g id="a_Node000010"><a xlink:href="classuvgutils_1_1Timer.html#a2bd72dd0f3cdfaefceb1cd3f319198fb" target="_top" xlink:title=" ">
<polygon fill="white" stroke="#666666" points="688,-1084 554,-1084 554,-1065 688,-1065 688,-1084"/>
<text text-anchor="middle" x="621" y="-1072" font-family="Helvetica,sans-Serif" font-size="10.00">uvgutils::Timer::elapsed</text>
</a>
</g>
</g>
<!-- Node3&#45;&gt;Node10 -->
<g id="edge9_Node000003_Node000010" class="edge">
<title>Node3&#45;&gt;Node10</title>
<g id="a_edge9_Node000003_Node000010"><a xlink:title=" ">
<path fill="none" stroke="#63b8ff" d="M397,-937.94C417.3,-966.47 464.92,-1027.18 521,-1056.5 528.21,-1060.27 536.07,-1063.26 544.11,-1065.64"/>
<polygon fill="#63b8ff" stroke="#63b8ff" points="543.41,-1069.07 553.97,-1068.24 545.2,-1062.3 543.41,-1069.07"/>
</a>
</g>
</g>
<!-- Node11 -->
<g id="Node000011" class="node">
<title>Node11</title>
<g id="a_Node000011"><a xlink:href="classv3c__gof.html#a3723017afa8250c6b0b50f6f56016389" target="_top" xlink:title=" ">
<polygon fill="white" stroke="#666666" points="684,-1047 558,-1047 558,-1028 684,-1028 684,-1047"/>
<text text-anchor="middle" x="621" y="-1035" font-family="Helvetica,sans-Serif" font-size="10.00">v3c_gof::set_n_frames</text>
</a>
</g>
</g>
<!-- Node3&#45;&gt;Node11 -->
<g id="edge10_Node000003_Node000011" class="edge">
<title>Node3&#45;&gt;Node11</title>
<g id="a_edge10_Node000003_Node000011"><a xlink:title=" ">
<path fill="none" stroke="#63b8ff" d="M402.87,-937.84C426.85,-959.4 473.8,-998.28 521,-1018.5 529.45,-1022.12 538.59,-1025.05 547.8,-1027.43"/>
<polygon fill="#63b8ff" stroke="#63b8ff" points="547.24,-1030.89 557.78,-1029.8 548.86,-1024.08 547.24,-1030.89"/>
</a>
</g>
</g>
<!-- Node12 -->
<g id="Node000012" class="node">
<title>Node12</title>
<g id="a_Node000012"><a xlink:href="classv3c__gof.html#ad967970c96fcd07a7c38bae799989a4b" target="_top" xlink:title=" ">
<polygon fill="white" stroke="#666666" points="682,-1009.5 560,-1009.5 560,-979.5 682,-979.5 682,-1009.5"/>
<text text-anchor="start" x="568" y="-997.5" font-family="Helvetica,sans-Serif" font-size="10.00">v3c_gof::set_v3c_unit</text>
<text text-anchor="middle" x="621" y="-986.5" font-family="Helvetica,sans-Serif" font-size="10.00">_precision</text>
</a>
</g>
</g>
<!-- Node3&#45;&gt;Node12 -->
<g id="edge11_Node000003_Node000012" class="edge">
<title>Node3&#45;&gt;Node12</title>
<g id="a_edge11_Node000003_Node000012"><a xlink:title=" ">
<path fill="none" stroke="#63b8ff" d="M425.28,-937.56C451.96,-947.62 488.34,-960.74 521,-970.5 530.34,-973.29 540.25,-975.99 550.05,-978.51"/>
<polygon fill="#63b8ff" stroke="#63b8ff" points="549.23,-981.92 559.79,-980.97 550.95,-975.13 549.23,-981.92"/>
</a>
</g>
</g>
<!-- Node13 -->
<g id="Node000013" class="node">
<title>Node13</title>
<g id="a_Node000013"><a xlink:href="classv3c__gof.html#a7623e830a39058987eaea7f9ff65bf72" target="_top" xlink:title=" ">
<polygon fill="#fff0f0" stroke="red" points="674.5,-961.5 567.5,-961.5 567.5,-931.5 674.5,-931.5 674.5,-961.5"/>
<text text-anchor="start" x="575.5" y="-949.5" font-family="Helvetica,sans-Serif" font-size="10.00">v3c_gof::write_v3c</text>
<text text-anchor="middle" x="621" y="-938.5" font-family="Helvetica,sans-Serif" font-size="10.00">_chunk</text>
</a>
</g>
</g>
<!-- Node3&#45;&gt;Node13 -->
<g id="edge12_Node000003_Node000013" class="edge">
<title>Node3&#45;&gt;Node13</title>
<g id="a_edge12_Node000003_Node000013"><a xlink:title=" ">
<path fill="none" stroke="#63b8ff" d="M456.56,-929.7C488.54,-932.99 526.12,-936.85 557.18,-940.04"/>
<polygon fill="#63b8ff" stroke="#63b8ff" points="557.14,-943.56 567.44,-941.1 557.85,-936.59 557.14,-943.56"/>
</a>
</g>
</g>
<!-- Node22 -->
<g id="Node000022" class="node">
<title>Node22</title>
<g id="a_Node000022"><a xlink:href="classv3c__gof.html#a16c6c5414ca72ba7a33ab15981c7b40c" target="_top" xlink:title=" ">
<polygon fill="#fff0f0" stroke="red" points="674.5,-913.5 567.5,-913.5 567.5,-883.5 674.5,-883.5 674.5,-913.5"/>
<text text-anchor="start" x="575.5" y="-901.5" font-family="Helvetica,sans-Serif" font-size="10.00">v3c_gof::write_v3c</text>
<text text-anchor="middle" x="621" y="-890.5" font-family="Helvetica,sans-Serif" font-size="10.00">_ld_chunk</text>
</a>
</g>
</g>
<!-- Node3&#45;&gt;Node22 -->
<g id="edge13_Node000003_Node000022" class="edge">
<title>Node3&#45;&gt;Node22</title>
<g id="a_edge13_Node000003_Node000022"><a xlink:title=" ">
<path fill="none" stroke="#63b8ff" d="M456.56,-915.3C488.54,-912.01 526.12,-908.15 557.18,-904.96"/>
<polygon fill="#63b8ff" stroke="#63b8ff" points="557.85,-908.41 567.44,-903.9 557.14,-901.44 557.85,-908.41"/>
</a>
</g>
</g>
<!-- Node24 -->
<g id="Node000024" class="node">
<title>Node24</title>
<g id="a_Node000024"><a xlink:href="classStatsCollector.html#a5cd74edd61d2b8c4fb9c5471d00eba64" target="_top" xlink:title=" ">
<polygon fill="white" stroke="#666666" points="692.5,-865 549.5,-865 549.5,-846 692.5,-846 692.5,-865"/>
<text text-anchor="middle" x="621" y="-853" font-family="Helvetica,sans-Serif" font-size="10.00">StatsCollector::writeToFile</text>
</a>
</g>
</g>
<!-- Node3&#45;&gt;Node24 -->
<g id="edge14_Node000003_Node000024" class="edge">
<title>Node3&#45;&gt;Node24</title>
<g id="a_edge14_Node000003_Node000024"><a xlink:title=" ">
<path fill="none" stroke="#63b8ff" d="M423.69,-907.49C450.43,-897.13 487.51,-883.63 521,-874.5 531.04,-871.76 541.77,-869.27 552.31,-867.06"/>
<polygon fill="#63b8ff" stroke="#63b8ff" points="553.23,-870.44 562.33,-865.02 551.84,-863.58 553.23,-870.44"/>
</a>
</g>
</g>
<!-- Node27&#45;&gt;Node3 -->
<g id="edge18_Node000027_Node000003" class="edge">
<title>Node27&#45;&gt;Node3</title>
<g id="a_edge18_Node000027_Node000003"><a xlink:title=" ">
<path fill="none" stroke="#63b8ff" d="M177.21,-517.82C194.96,-539.68 227.51,-581.49 250,-620.5 279.46,-671.6 348.33,-835.35 374.32,-897.9"/>
<polygon fill="#63b8ff" stroke="#63b8ff" points="371.19,-899.47 378.25,-907.36 377.65,-896.79 371.19,-899.47"/>
</a>
</g>
</g>
<!-- Node27&#45;&gt;Node25 -->
<g id="edge38_Node000027_Node000025" class="edge">
<title>Node27&#45;&gt;Node25</title>
<g id="a_edge38_Node000027_Node000025"><a xlink:title=" ">
<path fill="none" stroke="#63b8ff" d="M172.99,-517.65C190.25,-546.99 232.37,-611.55 286,-644.5 295.18,-650.14 305.61,-654.46 316.16,-657.76"/>
<polygon fill="#63b8ff" stroke="#63b8ff" points="315.28,-661.15 325.86,-660.52 317.2,-654.42 315.28,-661.15"/>
</a>
</g>
</g>
<!-- Node27&#45;&gt;Node26 -->
<g id="edge43_Node000027_Node000026" class="edge">
<title>Node27&#45;&gt;Node26</title>
<g id="a_edge43_Node000027_Node000026"><a xlink:title=" ">
<path fill="none" stroke="#63b8ff" d="M181.36,-517.84C203.74,-537.46 245.22,-571.33 286,-591.5 294.16,-595.53 302.97,-599.11 311.87,-602.25"/>
<polygon fill="#63b8ff" stroke="#63b8ff" points="310.93,-605.63 321.52,-605.5 313.15,-598.99 310.93,-605.63"/>
</a>
</g>
</g>
<!-- Node28 -->
<g id="Node000028" class="node">
<title>Node28</title>
<g id="a_Node000028"><a xlink:href="namespaceMapEncoding.html#a0bc181915a9f3bb43115710ccda8ffcd" target="_top" xlink:title=" ">
<polygon fill="white" stroke="#666666" points="470.5,-253 300.5,-253 300.5,-234 470.5,-234 470.5,-253"/>
<text text-anchor="middle" x="385.5" y="-241" font-family="Helvetica,sans-Serif" font-size="10.00">MapEncoding::encodeGOFMaps</text>
</a>
</g>
</g>
<!-- Node27&#45;&gt;Node28 -->
<g id="edge19_Node000027_Node000028" class="edge">
<title>Node27&#45;&gt;Node28</title>
<g id="a_edge19_Node000027_Node000028"><a xlink:title=" ">
<path fill="none" stroke="#63b8ff" d="M167.34,-487.45C176.26,-444.64 207.9,-321.43 286,-262.5 288.35,-260.73 290.81,-259.11 293.37,-257.63"/>
<polygon fill="#63b8ff" stroke="#63b8ff" points="295.01,-260.72 302.38,-253.11 291.88,-254.46 295.01,-260.72"/>
</a>
</g>
</g>
<!-- Node29 -->
<g id="Node000029" class="node">
<title>Node29</title>
<g id="a_Node000029"><a xlink:href="classPatchPacking.html#ae18c38bf6f8d8681f7bc4020eb8146c3" target="_top" xlink:title=" ">
<polygon fill="white" stroke="#666666" points="690,-704.5 552,-704.5 552,-674.5 690,-674.5 690,-704.5"/>
<text text-anchor="start" x="560" y="-692.5" font-family="Helvetica,sans-Serif" font-size="10.00">PatchPacking::frameIntra</text>
<text text-anchor="middle" x="621" y="-681.5" font-family="Helvetica,sans-Serif" font-size="10.00">PatchPacking</text>
</a>
</g>
</g>
<!-- Node27&#45;&gt;Node29 -->
<g id="edge20_Node000027_Node000029" class="edge">
<title>Node27&#45;&gt;Node29</title>
<g id="a_edge20_Node000027_Node000029"><a xlink:title=" ">
<path fill="none" stroke="#63b8ff" d="M192.2,-517.63C216.33,-530.23 252.6,-547.79 286,-558.5 371.74,-585.99 412.74,-542.78 485,-596.5 512.76,-617.14 493.76,-644.19 521,-665.5 527.39,-670.5 534.66,-674.47 542.3,-677.64"/>
<polygon fill="#63b8ff" stroke="#63b8ff" points="541.18,-680.95 551.77,-681.1 543.58,-674.38 541.18,-680.95"/>
</a>
</g>
</g>
<!-- Node30 -->
<g id="Node000030" class="node">
<title>Node30</title>
<g id="a_Node000030"><a xlink:href="classMapGeneration.html#a56bc2b6243c157465d684157b84246e0" target="_top" xlink:title=" ">
<polygon fill="white" stroke="#666666" points="484.5,-512 286.5,-512 286.5,-493 484.5,-493 484.5,-512"/>
<text text-anchor="middle" x="385.5" y="-500" font-family="Helvetica,sans-Serif" font-size="10.00">MapGeneration::generateFrameMaps</text>
</a>
</g>
</g>
<!-- Node27&#45;&gt;Node30 -->
<g id="edge21_Node000027_Node000030" class="edge">
<title>Node27&#45;&gt;Node30</title>
<g id="a_edge21_Node000027_Node000030"><a xlink:title=" ">
<path fill="none" stroke="#63b8ff" d="M235.02,-502.5C248.16,-502.5 262.18,-502.5 276.16,-502.5"/>
<polygon fill="#63b8ff" stroke="#63b8ff" points="276.32,-506 286.32,-502.5 276.32,-499 276.32,-506"/>
</a>
</g>
</g>
<!-- Node38 -->
<g id="Node000038" class="node">
<title>Node38</title>
<g id="a_Node000038"><a xlink:href="classPatchGeneration.html#a0f5554a29116f3ceeba740292bffa5d7" target="_top" xlink:title=" ">
<polygon fill="#fff0f0" stroke="red" points="458.5,-397.5 312.5,-397.5 312.5,-367.5 458.5,-367.5 458.5,-397.5"/>
<text text-anchor="start" x="320.5" y="-385.5" font-family="Helvetica,sans-Serif" font-size="10.00">PatchGeneration::generate</text>
<text text-anchor="middle" x="385.5" y="-374.5" font-family="Helvetica,sans-Serif" font-size="10.00">FramePatches</text>
</a>
</g>
</g>
<!-- Node27&#45;&gt;Node38 -->
<g id="edge28_Node000027_Node000038" class="edge">
<title>Node27&#45;&gt;Node38</title>
<g id="a_edge28_Node000027_Node000038"><a xlink:title=" ">
<path fill="none" stroke="#63b8ff" d="M192.36,-487.3C231.87,-465.75 304.22,-426.29 347.98,-402.42"/>
<polygon fill="#63b8ff" stroke="#63b8ff" points="349.76,-405.44 356.86,-397.57 346.41,-399.29 349.76,-405.44"/>
</a>
</g>
</g>
<!-- Node56 -->
<g id="Node000056" class="node">
<title>Node56</title>
<g id="a_Node000056"><a xlink:href="classPatchPacking.html#a3882407ca2aafda5290a6b52991124dd" target="_top" xlink:title=" ">
<polygon fill="#fff0f0" stroke="red" points="468.5,-549 302.5,-549 302.5,-530 468.5,-530 468.5,-549"/>
<text text-anchor="middle" x="385.5" y="-537" font-family="Helvetica,sans-Serif" font-size="10.00">PatchPacking::gofPatchPacking</text>
</a>
</g>
</g>
<!-- Node27&#45;&gt;Node56 -->
<g id="edge39_Node000027_Node000056" class="edge">
<title>Node27&#45;&gt;Node56</title>
<g id="a_edge39_Node000027_Node000056"><a xlink:title=" ">
<path fill="none" stroke="#63b8ff" d="M235.02,-514.36C261.54,-518.82 291.58,-523.87 317.75,-528.27"/>
<polygon fill="#63b8ff" stroke="#63b8ff" points="317.5,-531.78 327.94,-529.99 318.66,-524.88 317.5,-531.78"/>
</a>
</g>
</g>
<!-- Node58 -->
<g id="Node000058" class="node">
<title>Node58</title>
<g id="a_Node000058"><a xlink:href="classMapGeneration.html#a32d71a02253eecb06527a202de6cd543" target="_top" xlink:title=" ">
<polygon fill="#fff0f0" stroke="red" points="463,-349.5 308,-349.5 308,-319.5 463,-319.5 463,-349.5"/>
<text text-anchor="start" x="316" y="-337.5" font-family="Helvetica,sans-Serif" font-size="10.00">MapGeneration::initGOFMap</text>
<text text-anchor="middle" x="385.5" y="-326.5" font-family="Helvetica,sans-Serif" font-size="10.00">Generation</text>
</a>
</g>
</g>
<!-- Node27&#45;&gt;Node58 -->
<g id="edge41_Node000027_Node000058" class="edge">
<title>Node27&#45;&gt;Node58</title>
<g id="a_edge41_Node000027_Node000058"><a xlink:title=" ">
<path fill="none" stroke="#63b8ff" d="M172.93,-487.13C190.09,-457.38 232.05,-391.91 286,-358.5 289.89,-356.09 294.01,-353.92 298.27,-351.97"/>
<polygon fill="#63b8ff" stroke="#63b8ff" points="299.88,-355.09 307.78,-348.04 297.21,-348.62 299.88,-355.09"/>
</a>
</g>
</g>
<!-- Node60 -->
<g id="Node000060" class="node">
<title>Node60</title>
<g id="a_Node000060"><a xlink:href="structuvgutils_1_1JobManager.html#a6e8ae0d74a6ec80592f671008542eef3" target="_top" xlink:title=" ">
<polygon fill="white" stroke="#666666" points="457,-301.5 314,-301.5 314,-271.5 457,-271.5 457,-301.5"/>
<text text-anchor="start" x="322" y="-289.5" font-family="Helvetica,sans-Serif" font-size="10.00">uvgutils::JobManager</text>
<text text-anchor="middle" x="385.5" y="-278.5" font-family="Helvetica,sans-Serif" font-size="10.00">::submitCurrentFrameJobs</text>
</a>
</g>
</g>
<!-- Node27&#45;&gt;Node60 -->
<g id="edge42_Node000027_Node000060" class="edge">
<title>Node27&#45;&gt;Node60</title>
<g id="a_edge42_Node000027_Node000060"><a xlink:title=" ">
<path fill="none" stroke="#63b8ff" d="M169.51,-487.5C182.48,-451.03 220.8,-357.32 286,-310.5 291.57,-306.5 297.73,-303.16 304.16,-300.37"/>
<polygon fill="#63b8ff" stroke="#63b8ff" points="305.69,-303.54 313.76,-296.68 303.17,-297.01 305.69,-303.54"/>
</a>
</g>
</g>
<!-- Node31 -->
<g id="Node000031" class="node">
<title>Node31</title>
<g id="a_Node000031"><a xlink:href="bgFillAttribute_8cpp.html#ab0d3290d5e51fe3166e7aaf415374f3f" target="_top" xlink:title=" ">
<polygon fill="white" stroke="#666666" points="664,-571 578,-571 578,-552 664,-552 664,-571"/>
<text text-anchor="middle" x="621" y="-559" font-family="Helvetica,sans-Serif" font-size="10.00">bgFillAttribute</text>
</a>
</g>
</g>
<!-- Node30&#45;&gt;Node31 -->
<g id="edge22_Node000030_Node000031" class="edge">
<title>Node30&#45;&gt;Node31</title>
<g id="a_edge22_Node000030_Node000031"><a xlink:title=" ">
<path fill="none" stroke="#63b8ff" d="M453.38,-512.04C464.14,-514.52 475.01,-517.63 485,-521.5 502.49,-528.27 503.48,-536.82 521,-543.5 535.73,-549.11 552.38,-553.01 567.76,-555.7"/>
<polygon fill="#63b8ff" stroke="#63b8ff" points="567.22,-559.15 577.65,-557.29 568.33,-552.24 567.22,-559.15"/>
</a>
</g>
</g>
<!-- Node32 -->
<g id="Node000032" class="node">
<title>Node32</title>
<g id="a_Node000032"><a xlink:href="bgFillGeometry_8cpp.html#a1277492db5cb54d9ebc8cae8ea6b3a87" target="_top" xlink:title=" ">
<polygon fill="white" stroke="#666666" points="667,-534 575,-534 575,-515 667,-515 667,-534"/>
<text text-anchor="middle" x="621" y="-522" font-family="Helvetica,sans-Serif" font-size="10.00">bgFillGeometry</text>
</a>
</g>
</g>
<!-- Node30&#45;&gt;Node32 -->
<g id="edge23_Node000030_Node000032" class="edge">
<title>Node30&#45;&gt;Node32</title>
<g id="a_edge23_Node000030_Node000032"><a xlink:title=" ">
<path fill="none" stroke="#63b8ff" d="M484.51,-511.73C512.03,-514.33 540.98,-517.05 565.01,-519.32"/>
<polygon fill="#63b8ff" stroke="#63b8ff" points="564.71,-522.81 575,-520.26 565.37,-515.84 564.71,-522.81"/>
</a>
</g>
</g>
<!-- Node33 -->
<g id="Node000033" class="node">
<title>Node33</title>
<g id="a_Node000033"><a xlink:href="namespaceFileExport.html#a7ce79028d0f1956f0de29a43ffbdc27b" target="_top" xlink:title=" ">
<polygon fill="#fff0f0" stroke="red" points="709,-496.5 533,-496.5 533,-466.5 709,-466.5 709,-496.5"/>
<text text-anchor="start" x="541" y="-484.5" font-family="Helvetica,sans-Serif" font-size="10.00">FileExport::exportImageAttribute</text>
<text text-anchor="middle" x="621" y="-473.5" font-family="Helvetica,sans-Serif" font-size="10.00">BgFill</text>
</a>
</g>
</g>
<!-- Node30&#45;&gt;Node33 -->
<g id="edge24_Node000030_Node000033" class="edge">
<title>Node30&#45;&gt;Node33</title>
<g id="a_edge24_Node000030_Node000033"><a xlink:title=" ">
<path fill="none" stroke="#63b8ff" d="M484.51,-493.69C497.12,-492.55 510.02,-491.39 522.61,-490.26"/>
<polygon fill="#63b8ff" stroke="#63b8ff" points="522.99,-493.74 532.64,-489.36 522.36,-486.77 522.99,-493.74"/>
</a>
</g>
</g>
<!-- Node35 -->
<g id="Node000035" class="node">
<title>Node35</title>
<g id="a_Node000035"><a xlink:href="namespaceFileExport.html#a38357fd7781625e0a9c44f6d1ce8b04c" target="_top" xlink:title=" ">
<polygon fill="#fff0f0" stroke="red" points="719.5,-448 522.5,-448 522.5,-429 719.5,-429 719.5,-448"/>
<text text-anchor="middle" x="621" y="-436" font-family="Helvetica,sans-Serif" font-size="10.00">FileExport::exportImageAttributeYUV</text>
</a>
</g>
</g>
<!-- Node30&#45;&gt;Node35 -->
<g id="edge25_Node000030_Node000035" class="edge">
<title>Node30&#45;&gt;Node35</title>
<g id="a_edge25_Node000030_Node000035"><a xlink:title=" ">
<path fill="none" stroke="#63b8ff" d="M411.98,-492.84C438.8,-482.94 482.41,-467.61 521,-457.5 531.43,-454.77 542.58,-452.25 553.5,-450"/>
<polygon fill="#63b8ff" stroke="#63b8ff" points="554.31,-453.41 563.43,-448.01 552.93,-446.54 554.31,-453.41"/>
</a>
</g>
</g>
<!-- Node36 -->
<g id="Node000036" class="node">
<title>Node36</title>
<g id="a_Node000036"><a xlink:href="namespaceFileExport.html#a14f1fd295139088b2c1c130ebd36dbe3" target="_top" xlink:title=" ">
<polygon fill="#fff0f0" stroke="red" points="712,-656.5 530,-656.5 530,-626.5 712,-626.5 712,-656.5"/>
<text text-anchor="start" x="538" y="-644.5" font-family="Helvetica,sans-Serif" font-size="10.00">FileExport::exportImageGeometry</text>
<text text-anchor="middle" x="621" y="-633.5" font-family="Helvetica,sans-Serif" font-size="10.00">BgFill</text>
</a>
</g>
</g>
<!-- Node30&#45;&gt;Node36 -->
<g id="edge26_Node000030_Node000036" class="edge">
<title>Node30&#45;&gt;Node36</title>
<g id="a_edge26_Node000030_Node000036"><a xlink:title=" ">
<path fill="none" stroke="#63b8ff" d="M470.52,-512.19C475.71,-514.72 480.61,-517.79 485,-521.5 519.81,-550.9 486.89,-587.28 521,-617.5 522.32,-618.67 523.69,-619.78 525.1,-620.85"/>
<polygon fill="#63b8ff" stroke="#63b8ff" points="523.29,-623.85 533.58,-626.38 527.11,-617.98 523.29,-623.85"/>
</a>
</g>
</g>
<!-- Node37 -->
<g id="Node000037" class="node">
<title>Node37</title>
<g id="a_Node000037"><a xlink:href="namespaceFileExport.html#af3572e7dc6a5bb93770e300f64313b2f" target="_top" xlink:title=" ">
<polygon fill="#fff0f0" stroke="red" points="721,-608 521,-608 521,-589 721,-589 721,-608"/>
<text text-anchor="middle" x="621" y="-596" font-family="Helvetica,sans-Serif" font-size="10.00">FileExport::exportImageOccupancyDS</text>
</a>
</g>
</g>
<!-- Node30&#45;&gt;Node37 -->
<g id="edge27_Node000030_Node000037" class="edge">
<title>Node30&#45;&gt;Node37</title>
<g id="a_edge27_Node000030_Node000037"><a xlink:title=" ">
<path fill="none" stroke="#63b8ff" d="M467.31,-512.16C473.57,-514.65 479.56,-517.73 485,-521.5 510.24,-539.02 495.67,-563.12 521,-580.5 523.14,-581.97 525.37,-583.33 527.67,-584.59"/>
<polygon fill="#63b8ff" stroke="#63b8ff" points="526.29,-587.81 536.82,-588.95 529.3,-581.49 526.29,-587.81"/>
</a>
</g>
</g>
<!-- Node39 -->
<g id="Node000039" class="node">
<title>Node39</title>
<g id="a_Node000039"><a xlink:href="classStatsCollector.html#ab1a99cc3ba798bf5d01e16156d8afe41" target="_top" xlink:title=" ">
<polygon fill="white" stroke="#666666" points="903,-392 757,-392 757,-373 903,-373 903,-392"/>
<text text-anchor="middle" x="830" y="-380" font-family="Helvetica,sans-Serif" font-size="10.00">StatsCollector::collectData</text>
</a>
</g>
</g>
<!-- Node38&#45;&gt;Node39 -->
<g id="edge29_Node000038_Node000039" class="edge">
<title>Node38&#45;&gt;Node39</title>
<g id="a_edge29_Node000038_Node000039"><a xlink:title=" ">
<path fill="none" stroke="#63b8ff" d="M458.58,-382.5C537.57,-382.5 664.05,-382.5 746.83,-382.5"/>
<polygon fill="#63b8ff" stroke="#63b8ff" points="746.95,-386 756.95,-382.5 746.95,-379 746.95,-386"/>
</a>
</g>
</g>
<!-- Node40 -->
<g id="Node000040" class="node">
<title>Node40</title>
<g id="a_Node000040"><a xlink:href="namespaceNormalComputation.html#afee0c74fa33c55ca9299f5bc960ee6fb" target="_top" xlink:title=" ">
<polygon fill="#fff0f0" stroke="red" points="682,-335.5 560,-335.5 560,-305.5 682,-305.5 682,-335.5"/>
<text text-anchor="start" x="568" y="-323.5" font-family="Helvetica,sans-Serif" font-size="10.00">NormalComputation::</text>
<text text-anchor="middle" x="621" y="-312.5" font-family="Helvetica,sans-Serif" font-size="10.00">computeNormals</text>
</a>
</g>
</g>
<!-- Node38&#45;&gt;Node40 -->
<g id="edge30_Node000038_Node000040" class="edge">
<title>Node38&#45;&gt;Node40</title>
<g id="a_edge30_Node000038_Node000040"><a xlink:title=" ">
<path fill="none" stroke="#63b8ff" d="M449.64,-367.47C461.41,-364.56 473.59,-361.49 485,-358.5 509.11,-352.17 535.53,-344.83 558.55,-338.29"/>
<polygon fill="#63b8ff" stroke="#63b8ff" points="559.53,-341.65 568.19,-335.55 557.61,-334.92 559.53,-341.65"/>
</a>
</g>
</g>
<!-- Node42 -->
<g id="Node000042" class="node">
<title>Node42</title>
<g id="a_Node000042"><a xlink:href="classPPISegmenter.html#a4a7440a210f2209c6048ec22dc338e8b" target="_top" xlink:title=" ">
<polygon fill="#fff0f0" stroke="red" points="714.5,-287 527.5,-287 527.5,-268 714.5,-268 714.5,-287"/>
<text text-anchor="middle" x="621" y="-275" font-family="Helvetica,sans-Serif" font-size="10.00">PPISegmenter::initialSegmentation</text>
</a>
</g>
</g>
<!-- Node38&#45;&gt;Node42 -->
<g id="edge31_Node000038_Node000042" class="edge">
<title>Node38&#45;&gt;Node42</title>
<g id="a_edge31_Node000038_Node000042"><a xlink:title=" ">
<path fill="none" stroke="#63b8ff" d="M458.72,-372.16C468.11,-368.79 477.18,-364.35 485,-358.5 510.52,-339.42 495.01,-314.94 521,-296.5 523.56,-294.68 526.24,-293.03 529.02,-291.52"/>
<polygon fill="#63b8ff" stroke="#63b8ff" points="530.65,-294.63 538.2,-287.2 527.66,-288.3 530.65,-294.63"/>
</a>
</g>
</g>
<!-- Node45 -->
<g id="Node000045" class="node">
<title>Node45</title>
<g id="a_Node000045"><a xlink:href="namespaceNormalOrientation.html#af36f6417219e982b994424b1e18339dd" target="_top" xlink:title=" ">
<polygon fill="#fff0f0" stroke="red" points="677.5,-249.5 564.5,-249.5 564.5,-219.5 677.5,-219.5 677.5,-249.5"/>
<text text-anchor="start" x="572.5" y="-237.5" font-family="Helvetica,sans-Serif" font-size="10.00">NormalOrientation::</text>
<text text-anchor="middle" x="621" y="-226.5" font-family="Helvetica,sans-Serif" font-size="10.00">orientNormals</text>
</a>
</g>
</g>
<!-- Node38&#45;&gt;Node45 -->
<g id="edge32_Node000038_Node000045" class="edge">
<title>Node38&#45;&gt;Node45</title>
<g id="a_edge32_Node000038_Node000045"><a xlink:title=" ">
<path fill="none" stroke="#63b8ff" d="M458.73,-373.77C468.34,-370.18 477.46,-365.25 485,-358.5 519.87,-327.26 486.26,-290.89 521,-259.5 530.39,-251.01 542.25,-245.32 554.46,-241.51"/>
<polygon fill="#63b8ff" stroke="#63b8ff" points="555.56,-244.84 564.3,-238.85 553.73,-238.09 555.56,-244.84"/>
</a>
</g>
</g>
<!-- Node47 -->
<g id="Node000047" class="node">
<title>Node47</title>
<g id="a_Node000047"><a xlink:href="namespaceslicingComputation.html#ad451996cc4e539a49d664f78e9f39061" target="_top" xlink:title=" ">
<polygon fill="white" stroke="#666666" points="684.5,-201 557.5,-201 557.5,-160 684.5,-160 684.5,-201"/>
<text text-anchor="start" x="565.5" y="-189" font-family="Helvetica,sans-Serif" font-size="10.00">slicingComputation</text>
<text text-anchor="start" x="565.5" y="-178" font-family="Helvetica,sans-Serif" font-size="10.00">::ppiAssignationSlicing</text>
<text text-anchor="middle" x="621" y="-167" font-family="Helvetica,sans-Serif" font-size="10.00">&lt; uint16_t &gt;</text>
</a>
</g>
</g>
<!-- Node38&#45;&gt;Node47 -->
<g id="edge33_Node000038_Node000047" class="edge">
<title>Node38&#45;&gt;Node47</title>
<g id="a_edge33_Node000038_Node000047"><a xlink:title=" ">
<path fill="none" stroke="#63b8ff" d="M458.67,-374.78C468.47,-371.08 477.66,-365.84 485,-358.5 532.86,-310.62 474.48,-259.68 521,-210.5 528.46,-202.61 537.93,-196.77 548.03,-192.46"/>
<polygon fill="#63b8ff" stroke="#63b8ff" points="549.32,-195.71 557.45,-188.91 546.85,-189.16 549.32,-195.71"/>
</a>
</g>
</g>
<!-- Node48 -->
<g id="Node000048" class="node">
<title>Node48</title>
<g id="a_Node000048"><a xlink:href="namespaceslicingComputation.html#a10efbe9fa53dc58f834aaf4efa951b76" target="_top" xlink:title=" ">
<polygon fill="white" stroke="#666666" points="684.5,-142 557.5,-142 557.5,-101 684.5,-101 684.5,-142"/>
<text text-anchor="start" x="565.5" y="-130" font-family="Helvetica,sans-Serif" font-size="10.00">slicingComputation</text>
<text text-anchor="start" x="565.5" y="-119" font-family="Helvetica,sans-Serif" font-size="10.00">::ppiAssignationSlicing</text>
<text text-anchor="middle" x="621" y="-108" font-family="Helvetica,sans-Serif" font-size="10.00">&lt; uint32_t &gt;</text>
</a>
</g>
</g>
<!-- Node38&#45;&gt;Node48 -->
<g id="edge34_Node000038_Node000048" class="edge">
<title>Node38&#45;&gt;Node48</title>
<g id="a_edge34_Node000038_Node000048"><a xlink:title=" ">
<path fill="none" stroke="#63b8ff" d="M458.62,-375.4C468.54,-371.63 477.79,-366.21 485,-358.5 548.79,-290.3 459.12,-221.43 521,-151.5 528.29,-143.26 537.76,-137.25 547.95,-132.87"/>
<polygon fill="#63b8ff" stroke="#63b8ff" points="549.34,-136.08 557.46,-129.28 546.87,-129.53 549.34,-136.08"/>
</a>
</g>
</g>
<!-- Node49 -->
<g id="Node000049" class="node">
<title>Node49</title>
<g id="a_Node000049"><a xlink:href="namespaceslicingComputation.html#a8ae47c8045b07629ebc445037a88e834" target="_top" xlink:title=" ">
<polygon fill="white" stroke="#666666" points="684.5,-83 557.5,-83 557.5,-42 684.5,-42 684.5,-83"/>
<text text-anchor="start" x="565.5" y="-71" font-family="Helvetica,sans-Serif" font-size="10.00">slicingComputation</text>
<text text-anchor="start" x="565.5" y="-60" font-family="Helvetica,sans-Serif" font-size="10.00">::ppiAssignationSlicing</text>
<text text-anchor="middle" x="621" y="-49" font-family="Helvetica,sans-Serif" font-size="10.00">&lt; uint64_t &gt;</text>
</a>
</g>
</g>
<!-- Node38&#45;&gt;Node49 -->
<g id="edge35_Node000038_Node000049" class="edge">
<title>Node38&#45;&gt;Node49</title>
<g id="a_edge35_Node000038_Node000049"><a xlink:title=" ">
<path fill="none" stroke="#63b8ff" d="M458.88,-375.64C468.77,-371.83 477.93,-366.35 485,-358.5 564.84,-269.85 443.64,-183.32 521,-92.5 528.18,-84.07 537.64,-77.97 547.86,-73.55"/>
<polygon fill="#63b8ff" stroke="#63b8ff" points="549.3,-76.75 557.43,-69.95 546.84,-70.2 549.3,-76.75"/>
</a>
</g>
</g>
<!-- Node50 -->
<g id="Node000050" class="node">
<title>Node50</title>
<g id="a_Node000050"><a xlink:href="classPPISegmenter.html#a581dc0d578e49609015b82b1f9c46f8a" target="_top" xlink:title=" ">
<polygon fill="#fff0f0" stroke="red" points="714.5,-411 527.5,-411 527.5,-392 714.5,-392 714.5,-411"/>
<text text-anchor="middle" x="621" y="-399" font-family="Helvetica,sans-Serif" font-size="10.00">PPISegmenter::refineSegmentation</text>
</a>
</g>
</g>
<!-- Node38&#45;&gt;Node50 -->
<g id="edge36_Node000038_Node000050" class="edge">
<title>Node38&#45;&gt;Node50</title>
<g id="a_edge36_Node000038_Node000050"><a xlink:title=" ">
<path fill="none" stroke="#63b8ff" d="M458.78,-388.38C477.26,-389.89 497.48,-391.53 517.17,-393.13"/>
<polygon fill="#63b8ff" stroke="#63b8ff" points="517.16,-396.64 527.41,-393.97 517.72,-389.67 517.16,-396.64"/>
</a>
</g>
</g>
<!-- Node50&#45;&gt;Node39 -->
<g id="edge37_Node000050_Node000039" class="edge">
<title>Node50&#45;&gt;Node39</title>
<g id="a_edge37_Node000050_Node000039"><a xlink:title=" ">
<path fill="none" stroke="#63b8ff" d="M714.6,-393C725.37,-392.01 736.3,-391.01 746.91,-390.03"/>
<polygon fill="#63b8ff" stroke="#63b8ff" points="747.34,-393.51 756.97,-389.11 746.7,-386.54 747.34,-393.51"/>
</a>
</g>
</g>
<!-- Node56&#45;&gt;Node29 -->
<g id="edge40_Node000056_Node000029" class="edge">
<title>Node56&#45;&gt;Node29</title>
<g id="a_edge40_Node000056_Node000029"><a xlink:title=" ">
<path fill="none" stroke="#63b8ff" d="M461.03,-549.04C469.81,-552.55 478.08,-557.24 485,-563.5 520.65,-595.75 485.33,-633.27 521,-665.5 527.27,-671.17 534.65,-675.55 542.51,-678.94"/>
<polygon fill="#63b8ff" stroke="#63b8ff" points="541.32,-682.23 551.92,-682.48 543.79,-675.68 541.32,-682.23"/>
</a>
</g>
</g>
<!-- Node63 -->
<g id="Node000063" class="node">
<title>Node63</title>
<g id="a_Node000063"><a xlink:href="namespaceFileExport.html#a0f5b11ba0211d2438a37b61e881ef298" target="_top" xlink:title=" ">
<polygon fill="white" stroke="#666666" points="466,-215.5 305,-215.5 305,-185.5 466,-185.5 466,-215.5"/>
<text text-anchor="start" x="313" y="-203.5" font-family="Helvetica,sans-Serif" font-size="10.00">FileExport::cleanIntermediate</text>
<text text-anchor="middle" x="385.5" y="-192.5" font-family="Helvetica,sans-Serif" font-size="10.00">Files</text>
</a>
</g>
</g>
<!-- Node62&#45;&gt;Node63 -->
<g id="edge46_Node000062_Node000063" class="edge">
<title>Node62&#45;&gt;Node63</title>
<g id="a_edge46_Node000062_Node000063"><a xlink:title=" ">
<path fill="none" stroke="#63b8ff" d="M238.06,-173.88C256.27,-177.19 275.99,-180.77 294.87,-184.2"/>
<polygon fill="#63b8ff" stroke="#63b8ff" points="294.5,-187.69 304.96,-186.04 295.75,-180.81 294.5,-187.69"/>
</a>
</g>
</g>
<!-- Node64 -->
<g id="Node000064" class="node">
<title>Node64</title>
<g id="a_Node000064"><a xlink:href="namespaceuvgvpcc__enc.html#a8eec80eff55cd4c2169744feac8f1209" target="_top" xlink:title=" ">
<polygon fill="white" stroke="#666666" points="485,-167 286,-167 286,-148 485,-148 485,-167"/>
<text text-anchor="middle" x="385.5" y="-155" font-family="Helvetica,sans-Serif" font-size="10.00">uvgvpcc_enc::initializeParameterMap</text>
</a>
</g>
</g>
<!-- Node62&#45;&gt;Node64 -->
<g id="edge47_Node000062_Node000064" class="edge">
<title>Node62&#45;&gt;Node64</title>
<g id="a_edge47_Node000062_Node000064"><a xlink:title=" ">
<path fill="none" stroke="#63b8ff" d="M238.06,-159.5C250.19,-159.33 262.98,-159.16 275.74,-158.98"/>
<polygon fill="#63b8ff" stroke="#63b8ff" points="276.01,-162.48 285.96,-158.84 275.92,-155.48 276.01,-162.48"/>
</a>
</g>
</g>
<!-- Node66 -->
<g id="Node000066" class="node">
<title>Node66</title>
<g id="a_Node000066"><a xlink:href="getopt_8c.html#a670b3d6580b88001f22388938a15504d" target="_top" xlink:title=" ">
<polygon fill="white" stroke="#666666" points="422.5,-130 348.5,-130 348.5,-111 422.5,-111 422.5,-130"/>
<text text-anchor="middle" x="385.5" y="-118" font-family="Helvetica,sans-Serif" font-size="10.00">getopt_long</text>
</a>
</g>
</g>
<!-- Node65&#45;&gt;Node66 -->
<g id="edge49_Node000065_Node000066" class="edge">
<title>Node65&#45;&gt;Node66</title>
<g id="a_edge49_Node000065_Node000066"><a xlink:title=" ">
<path fill="none" stroke="#63b8ff" d="M207.18,-118.08C244.76,-118.59 299.36,-119.34 338.03,-119.87"/>
<polygon fill="#63b8ff" stroke="#63b8ff" points="338.44,-123.37 348.49,-120.01 338.54,-116.37 338.44,-123.37"/>
</a>
</g>
</g>
<!-- Node67 -->
<g id="Node000067" class="node">
<title>Node67</title>
<g id="a_Node000067"><a xlink:href="namespacecli.html#aad9dd85363af7529cc26e1cf5def6450" target="_top" xlink:title="Print the help message of the application.">
<polygon fill="white" stroke="#666666" points="427,-93 344,-93 344,-74 427,-74 427,-93"/>
<text text-anchor="middle" x="385.5" y="-81" font-family="Helvetica,sans-Serif" font-size="10.00">cli::print_help</text>
</a>
</g>
</g>
<!-- Node65&#45;&gt;Node67 -->
<g id="edge50_Node000065_Node000067" class="edge">
<title>Node65&#45;&gt;Node67</title>
<g id="a_edge50_Node000065_Node000067"><a xlink:title=" ">
<path fill="none" stroke="#63b8ff" d="M207.18,-110.9C243.43,-105.3 295.52,-97.25 333.87,-91.33"/>
<polygon fill="#63b8ff" stroke="#63b8ff" points="334.45,-94.78 343.8,-89.79 333.38,-87.86 334.45,-94.78"/>
</a>
</g>
</g>
<!-- Node68 -->
<g id="Node000068" class="node">
<title>Node68</title>
<g id="a_Node000068"><a xlink:href="namespacecli.html#a168b4d6afdac8a3811a23b5d58ced3fa" target="_top" xlink:title="Print the version of the uvgVPCCenc library.">
<polygon fill="#fff0f0" stroke="red" points="434.5,-56 336.5,-56 336.5,-37 434.5,-37 434.5,-56"/>
<text text-anchor="middle" x="385.5" y="-44" font-family="Helvetica,sans-Serif" font-size="10.00">cli::print_version</text>
</a>
</g>
</g>
<!-- Node65&#45;&gt;Node68 -->
<g id="edge51_Node000065_Node000068" class="edge">
<title>Node65&#45;&gt;Node68</title>
<g id="a_edge51_Node000065_Node000068"><a xlink:title=" ">
<path fill="none" stroke="#63b8ff" d="M207.01,-113.38C221.27,-110.76 236.88,-106.49 250,-99.5 269.7,-89.01 266.17,-74.73 286,-64.5 298.37,-58.12 312.64,-53.97 326.41,-51.28"/>
<polygon fill="#63b8ff" stroke="#63b8ff" points="327.05,-54.72 336.31,-49.57 325.86,-47.82 327.05,-54.72"/>
</a>
</g>
</g>
<!-- Node70 -->
<g id="Node000070" class="node">
<title>Node70</title>
<g id="a_Node000070"><a xlink:href="namespacecli.html#ac4cff10fb86b38e537816bb8e32d3005" target="_top" xlink:title=" ">
<polygon fill="white" stroke="#666666" points="428,-19 343,-19 343,0 428,0 428,-19"/>
<text text-anchor="middle" x="385.5" y="-7" font-family="Helvetica,sans-Serif" font-size="10.00">cli::stringToInt</text>
</a>
</g>
</g>
<!-- Node65&#45;&gt;Node70 -->
<g id="edge52_Node000065_Node000070" class="edge">
<title>Node65&#45;&gt;Node70</title>
<g id="a_edge52_Node000065_Node000070"><a xlink:title=" ">
<path fill="none" stroke="#63b8ff" d="M207.24,-115.99C222,-113.64 237.87,-108.86 250,-99.5 278.32,-77.64 257.39,-48.98 286,-27.5 299.36,-17.47 316.56,-12.44 332.84,-10.06"/>
<polygon fill="#63b8ff" stroke="#63b8ff" points="333.28,-13.53 342.81,-8.9 332.48,-6.58 333.28,-13.53"/>
</a>
</g>
</g>
</g>
</svg>
