<?xml version="1.0" encoding="UTF-8" standalone="no"?>
<!DOCTYPE svg PUBLIC "-//W3C//DTD SVG 1.1//EN"
 "http://www.w3.org/Graphics/SVG/1.1/DTD/svg11.dtd">
<!-- Generated by graphviz version 2.43.0 (0)
 -->
<!-- Title: src/app/uvgVPCCencAppExample.cpp Pages: 1 -->
<svg width="1725pt" height="137pt"
 viewBox="0.00 0.00 1725.00 137.00" xmlns="http://www.w3.org/2000/svg" xmlns:xlink="http://www.w3.org/1999/xlink">
<g id="graph0" class="graph" transform="scale(1 1) rotate(0) translate(4 133)">
<title>src/app/uvgVPCCencAppExample.cpp</title>
<!-- Node1 -->
<g id="Node000001" class="node">
<title>Node1</title>
<g id="a_Node000001"><a xlink:title=" ">
<polygon fill="#999999" stroke="#666666" points="970,-129 772,-129 772,-110 970,-110 970,-129"/>
<text text-anchor="middle" x="871" y="-117" font-family="Helvetica,sans-Serif" font-size="10.00">src/app/uvgVPCCencAppExample.cpp</text>
</a>
</g>
</g>
<!-- Node2 -->
<g id="Node000002" class="node">
<title>Node2</title>
<g id="a_Node000002"><a xlink:title=" ">
<polygon fill="#e0e0e0" stroke="#999999" points="42,-74 0,-74 0,-55 42,-55 42,-74"/>
<text text-anchor="middle" x="21" y="-62" font-family="Helvetica,sans-Serif" font-size="10.00">array</text>
</a>
</g>
</g>
<!-- Node1&#45;&gt;Node2 -->
<g id="edge1_Node000001_Node000002" class="edge">
<title>Node1&#45;&gt;Node2</title>
<g id="a_edge1_Node000001_Node000002"><a xlink:title=" ">
<path fill="none" stroke="#63b8ff" d="M771.84,-115.87C589.09,-110.58 204.66,-97.26 52.3,-73.76"/>
<polygon fill="#63b8ff" stroke="#63b8ff" points="52.6,-70.27 42.17,-72.13 51.49,-77.18 52.6,-70.27"/>
</a>
</g>
</g>
<!-- Node3 -->
<g id="Node000003" class="node">
<title>Node3</title>
<g id="a_Node000003"><a xlink:title=" ">
<polygon fill="#e0e0e0" stroke="#999999" points="112,-74 60,-74 60,-55 112,-55 112,-74"/>
<text text-anchor="middle" x="86" y="-62" font-family="Helvetica,sans-Serif" font-size="10.00">cassert</text>
</a>
</g>
</g>
<!-- Node1&#45;&gt;Node3 -->
<g id="edge2_Node000001_Node000003" class="edge">
<title>Node1&#45;&gt;Node3</title>
<g id="a_edge2_Node000001_Node000003"><a xlink:title=" ">
<path fill="none" stroke="#63b8ff" d="M771.73,-117.29C628.5,-114.47 355.84,-105.11 126,-74 124.73,-73.83 123.45,-73.64 122.15,-73.44"/>
<polygon fill="#63b8ff" stroke="#63b8ff" points="122.61,-69.96 112.15,-71.64 121.38,-76.85 122.61,-69.96"/>
</a>
</g>
</g>
<!-- Node4 -->
<g id="Node000004" class="node">
<title>Node4</title>
<g id="a_Node000004"><a xlink:title=" ">
<polygon fill="#e0e0e0" stroke="#999999" points="808.5,-19 755.5,-19 755.5,0 808.5,0 808.5,-19"/>
<text text-anchor="middle" x="782" y="-7" font-family="Helvetica,sans-Serif" font-size="10.00">cstddef</text>
</a>
</g>
</g>
<!-- Node1&#45;&gt;Node4 -->
<g id="edge3_Node000001_Node000004" class="edge">
<title>Node1&#45;&gt;Node4</title>
<g id="a_edge3_Node000001_Node000004"><a xlink:title=" ">
<path fill="none" stroke="#63b8ff" d="M814.33,-110C773.9,-102.63 724.56,-90.56 712,-74 696.79,-53.95 724.94,-35.12 749.95,-23.26"/>
<polygon fill="#63b8ff" stroke="#63b8ff" points="751.6,-26.36 759.29,-19.06 748.73,-19.97 751.6,-26.36"/>
</a>
</g>
</g>
<!-- Node5 -->
<g id="Node000005" class="node">
<title>Node5</title>
<g id="a_Node000005"><a xlink:title=" ">
<polygon fill="#e0e0e0" stroke="#999999" points="385,-19 335,-19 335,0 385,0 385,-19"/>
<text text-anchor="middle" x="360" y="-7" font-family="Helvetica,sans-Serif" font-size="10.00">cstdint</text>
</a>
</g>
</g>
<!-- Node1&#45;&gt;Node5 -->
<g id="edge4_Node000001_Node000005" class="edge">
<title>Node1&#45;&gt;Node5</title>
<g id="a_edge4_Node000001_Node000005"><a xlink:title=" ">
<path fill="none" stroke="#63b8ff" d="M771.56,-113.34C667.39,-106.97 511.25,-94.4 455,-74 425.03,-63.13 395.25,-40.89 377.23,-25.83"/>
<polygon fill="#63b8ff" stroke="#63b8ff" points="379.25,-22.95 369.38,-19.1 374.7,-28.26 379.25,-22.95"/>
</a>
</g>
</g>
<!-- Node6 -->
<g id="Node000006" class="node">
<title>Node6</title>
<g id="a_Node000006"><a xlink:title=" ">
<polygon fill="#e0e0e0" stroke="#999999" points="183,-19 137,-19 137,0 183,0 183,-19"/>
<text text-anchor="middle" x="160" y="-7" font-family="Helvetica,sans-Serif" font-size="10.00">cstdio</text>
</a>
</g>
</g>
<!-- Node1&#45;&gt;Node6 -->
<g id="edge5_Node000001_Node000006" class="edge">
<title>Node1&#45;&gt;Node6</title>
<g id="a_edge5_Node000001_Node000006"><a xlink:title=" ">
<path fill="none" stroke="#63b8ff" d="M771.83,-116.63C625.49,-112.95 359.18,-102.47 268,-74 250.08,-68.4 207.21,-41.48 181.19,-24.53"/>
<polygon fill="#63b8ff" stroke="#63b8ff" points="183.05,-21.56 172.76,-19.01 179.21,-27.42 183.05,-21.56"/>
</a>
</g>
</g>
<!-- Node7 -->
<g id="Node000007" class="node">
<title>Node7</title>
<g id="a_Node000007"><a xlink:title=" ">
<polygon fill="#e0e0e0" stroke="#999999" points="1062.5,-74 1013.5,-74 1013.5,-55 1062.5,-55 1062.5,-74"/>
<text text-anchor="middle" x="1038" y="-62" font-family="Helvetica,sans-Serif" font-size="10.00">cstdlib</text>
</a>
</g>
</g>
<!-- Node1&#45;&gt;Node7 -->
<g id="edge6_Node000001_Node000007" class="edge">
<title>Node1&#45;&gt;Node7</title>
<g id="a_edge6_Node000001_Node000007"><a xlink:title=" ">
<path fill="none" stroke="#63b8ff" d="M897.83,-109.98C926.62,-100.85 972.42,-86.31 1003.78,-76.36"/>
<polygon fill="#63b8ff" stroke="#63b8ff" points="1004.94,-79.66 1013.41,-73.3 1002.82,-72.99 1004.94,-79.66"/>
</a>
</g>
</g>
<!-- Node8 -->
<g id="Node000008" class="node">
<title>Node8</title>
<g id="a_Node000008"><a xlink:title=" ">
<polygon fill="#e0e0e0" stroke="#999999" points="1145.5,-74 1080.5,-74 1080.5,-55 1145.5,-55 1145.5,-74"/>
<text text-anchor="middle" x="1113" y="-62" font-family="Helvetica,sans-Serif" font-size="10.00">exception</text>
</a>
</g>
</g>
<!-- Node1&#45;&gt;Node8 -->
<g id="edge7_Node000001_Node000008" class="edge">
<title>Node1&#45;&gt;Node8</title>
<g id="a_edge7_Node000001_Node000008"><a xlink:title=" ">
<path fill="none" stroke="#63b8ff" d="M909.88,-109.98C953.85,-100.35 1025.22,-84.72 1070.6,-74.79"/>
<polygon fill="#63b8ff" stroke="#63b8ff" points="1071.4,-78.19 1080.42,-72.63 1069.9,-71.36 1071.4,-78.19"/>
</a>
</g>
</g>
<!-- Node9 -->
<g id="Node000009" class="node">
<title>Node9</title>
<g id="a_Node000009"><a xlink:title=" ">
<polygon fill="#e0e0e0" stroke="#999999" points="1218.5,-74 1163.5,-74 1163.5,-55 1218.5,-55 1218.5,-74"/>
<text text-anchor="middle" x="1191" y="-62" font-family="Helvetica,sans-Serif" font-size="10.00">fstream</text>
</a>
</g>
</g>
<!-- Node1&#45;&gt;Node9 -->
<g id="edge8_Node000001_Node000009" class="edge">
<title>Node1&#45;&gt;Node9</title>
<g id="a_edge8_Node000001_Node000009"><a xlink:title=" ">
<path fill="none" stroke="#63b8ff" d="M934.41,-109.98C989.76,-102.22 1072.46,-89.86 1152.84,-74.31"/>
<polygon fill="#63b8ff" stroke="#63b8ff" points="1153.99,-77.65 1163.14,-72.3 1152.65,-70.78 1153.99,-77.65"/>
</a>
</g>
</g>
<!-- Node10 -->
<g id="Node000010" class="node">
<title>Node10</title>
<g id="a_Node000010"><a xlink:title=" ">
<polygon fill="#e0e0e0" stroke="#999999" points="737,-19 677,-19 677,0 737,0 737,-19"/>
<text text-anchor="middle" x="707" y="-7" font-family="Helvetica,sans-Serif" font-size="10.00">iostream</text>
</a>
</g>
</g>
<!-- Node1&#45;&gt;Node10 -->
<g id="edge9_Node000001_Node000010" class="edge">
<title>Node1&#45;&gt;Node10</title>
<g id="a_edge9_Node000001_Node000010"><a xlink:title=" ">
<path fill="none" stroke="#63b8ff" d="M808.87,-109.94C766.94,-102.74 716.98,-90.89 704,-74 694.34,-61.43 696.46,-42.98 700.19,-29.2"/>
<polygon fill="#63b8ff" stroke="#63b8ff" points="703.63,-29.95 703.32,-19.36 696.96,-27.82 703.63,-29.95"/>
</a>
</g>
</g>
<!-- Node11 -->
<g id="Node000011" class="node">
<title>Node11</title>
<g id="a_Node000011"><a xlink:title=" ">
<polygon fill="#e0e0e0" stroke="#999999" points="1093,-19 1037,-19 1037,0 1093,0 1093,-19"/>
<text text-anchor="middle" x="1065" y="-7" font-family="Helvetica,sans-Serif" font-size="10.00">sstream</text>
</a>
</g>
</g>
<!-- Node1&#45;&gt;Node11 -->
<g id="edge10_Node000001_Node000011" class="edge">
<title>Node1&#45;&gt;Node11</title>
<g id="a_edge10_Node000001_Node000011"><a xlink:title=" ">
<path fill="none" stroke="#63b8ff" d="M871.8,-109.7C873.53,-95.96 878.88,-69.51 895,-55 899.99,-50.51 978.45,-31.16 1027.02,-19.51"/>
<polygon fill="#63b8ff" stroke="#63b8ff" points="1027.98,-22.88 1036.89,-17.15 1026.35,-16.07 1027.98,-22.88"/>
</a>
</g>
</g>
<!-- Node12 -->
<g id="Node000012" class="node">
<title>Node12</title>
<g id="a_Node000012"><a xlink:title=" ">
<polygon fill="#e0e0e0" stroke="#999999" points="1289.5,-74 1236.5,-74 1236.5,-55 1289.5,-55 1289.5,-74"/>
<text text-anchor="middle" x="1263" y="-62" font-family="Helvetica,sans-Serif" font-size="10.00">iterator</text>
</a>
</g>
</g>
<!-- Node1&#45;&gt;Node12 -->
<g id="edge11_Node000001_Node000012" class="edge">
<title>Node1&#45;&gt;Node12</title>
<g id="a_edge11_Node000001_Node000012"><a xlink:title=" ">
<path fill="none" stroke="#63b8ff" d="M962.78,-109.97C1032.68,-102.8 1131.43,-91.22 1226.26,-74.15"/>
<polygon fill="#63b8ff" stroke="#63b8ff" points="1227.1,-77.55 1236.31,-72.31 1225.85,-70.66 1227.1,-77.55"/>
</a>
</g>
</g>
<!-- Node13 -->
<g id="Node000013" class="node">
<title>Node13</title>
<g id="a_Node000013"><a xlink:title=" ">
<polygon fill="#e0e0e0" stroke="#999999" points="1169,-19 1111,-19 1111,0 1169,0 1169,-19"/>
<text text-anchor="middle" x="1140" y="-7" font-family="Helvetica,sans-Serif" font-size="10.00">memory</text>
</a>
</g>
</g>
<!-- Node1&#45;&gt;Node13 -->
<g id="edge12_Node000001_Node000013" class="edge">
<title>Node1&#45;&gt;Node13</title>
<g id="a_edge12_Node000001_Node000013"><a xlink:title=" ">
<path fill="none" stroke="#63b8ff" d="M876.74,-109.96C886.54,-96.08 907.9,-68.83 933,-55 997.5,-19.46 1024.71,-34.04 1100.91,-19.11"/>
<polygon fill="#63b8ff" stroke="#63b8ff" points="1101.88,-22.48 1110.96,-17.03 1100.46,-15.63 1101.88,-22.48"/>
</a>
</g>
</g>
<!-- Node14 -->
<g id="Node000014" class="node">
<title>Node14</title>
<g id="a_Node000014"><a xlink:title=" ">
<polygon fill="#e0e0e0" stroke="#999999" points="1352,-74 1308,-74 1308,-55 1352,-55 1352,-74"/>
<text text-anchor="middle" x="1330" y="-62" font-family="Helvetica,sans-Serif" font-size="10.00">regex</text>
</a>
</g>
</g>
<!-- Node1&#45;&gt;Node14 -->
<g id="edge13_Node000001_Node000014" class="edge">
<title>Node1&#45;&gt;Node14</title>
<g id="a_edge13_Node000001_Node000014"><a xlink:title=" ">
<path fill="none" stroke="#63b8ff" d="M970.26,-112.81C1055.05,-106.88 1180.32,-95.59 1297.86,-73.92"/>
<polygon fill="#63b8ff" stroke="#63b8ff" points="1298.57,-77.35 1307.75,-72.07 1297.28,-70.47 1298.57,-77.35"/>
</a>
</g>
</g>
<!-- Node15 -->
<g id="Node000015" class="node">
<title>Node15</title>
<g id="a_Node000015"><a xlink:title=" ">
<polygon fill="#e0e0e0" stroke="#999999" points="1258.5,-19 1187.5,-19 1187.5,0 1258.5,0 1258.5,-19"/>
<text text-anchor="middle" x="1223" y="-7" font-family="Helvetica,sans-Serif" font-size="10.00">semaphore</text>
</a>
</g>
</g>
<!-- Node1&#45;&gt;Node15 -->
<g id="edge14_Node000001_Node000015" class="edge">
<title>Node1&#45;&gt;Node15</title>
<g id="a_edge14_Node000001_Node000015"><a xlink:title=" ">
<path fill="none" stroke="#63b8ff" d="M883.17,-109.91C905.54,-94.28 952.59,-62.12 971,-55 1055.12,-22.47 1084.13,-34.74 1177.04,-19.09"/>
<polygon fill="#63b8ff" stroke="#63b8ff" points="1177.9,-22.49 1187.15,-17.32 1176.69,-15.6 1177.9,-22.49"/>
</a>
</g>
</g>
<!-- Node16 -->
<g id="Node000016" class="node">
<title>Node16</title>
<g id="a_Node000016"><a xlink:title=" ">
<polygon fill="#e0e0e0" stroke="#999999" points="1421.5,-74 1370.5,-74 1370.5,-55 1421.5,-55 1421.5,-74"/>
<text text-anchor="middle" x="1396" y="-62" font-family="Helvetica,sans-Serif" font-size="10.00">csignal</text>
</a>
</g>
</g>
<!-- Node1&#45;&gt;Node16 -->
<g id="edge15_Node000001_Node000016" class="edge">
<title>Node1&#45;&gt;Node16</title>
<g id="a_edge15_Node000001_Node000016"><a xlink:title=" ">
<path fill="none" stroke="#63b8ff" d="M970.09,-113.8C1067.13,-108.22 1219.26,-96.85 1360.34,-73.84"/>
<polygon fill="#63b8ff" stroke="#63b8ff" points="1361.18,-77.25 1370.48,-72.16 1360.04,-70.34 1361.18,-77.25"/>
</a>
</g>
</g>
<!-- Node17 -->
<g id="Node000017" class="node">
<title>Node17</title>
<g id="a_Node000017"><a xlink:title=" ">
<polygon fill="#e0e0e0" stroke="#999999" points="57,-19 17,-19 17,0 57,0 57,-19"/>
<text text-anchor="middle" x="37" y="-7" font-family="Helvetica,sans-Serif" font-size="10.00">span</text>
</a>
</g>
</g>
<!-- Node1&#45;&gt;Node17 -->
<g id="edge16_Node000001_Node000017" class="edge">
<title>Node1&#45;&gt;Node17</title>
<g id="a_edge16_Node000001_Node000017"><a xlink:title=" ">
<path fill="none" stroke="#63b8ff" d="M771.73,-117.37C603.9,-114.6 271.39,-105.25 159,-74 153.85,-72.57 96.16,-42.04 61.99,-23.84"/>
<polygon fill="#63b8ff" stroke="#63b8ff" points="63.51,-20.69 53.03,-19.07 60.21,-26.86 63.51,-20.69"/>
</a>
</g>
</g>
<!-- Node18 -->
<g id="Node000018" class="node">
<title>Node18</title>
<g id="a_Node000018"><a xlink:title=" ">
<polygon fill="#e0e0e0" stroke="#999999" points="1504.5,-74 1439.5,-74 1439.5,-55 1504.5,-55 1504.5,-74"/>
<text text-anchor="middle" x="1472" y="-62" font-family="Helvetica,sans-Serif" font-size="10.00">stdexcept</text>
</a>
</g>
</g>
<!-- Node1&#45;&gt;Node18 -->
<g id="edge17_Node000001_Node000018" class="edge">
<title>Node1&#45;&gt;Node18</title>
<g id="a_edge17_Node000001_Node000018"><a xlink:title=" ">
<path fill="none" stroke="#63b8ff" d="M970.04,-114.38C1080.09,-108.95 1263.16,-97.39 1429.47,-74.05"/>
<polygon fill="#63b8ff" stroke="#63b8ff" points="1429.98,-77.52 1439.39,-72.64 1429,-70.59 1429.98,-77.52"/>
</a>
</g>
</g>
<!-- Node19 -->
<g id="Node000019" class="node">
<title>Node19</title>
<g id="a_Node000019"><a xlink:title=" ">
<polygon fill="#e0e0e0" stroke="#999999" points="245,-19 201,-19 201,0 245,0 245,-19"/>
<text text-anchor="middle" x="223" y="-7" font-family="Helvetica,sans-Serif" font-size="10.00">string</text>
</a>
</g>
</g>
<!-- Node1&#45;&gt;Node19 -->
<g id="edge18_Node000001_Node000019" class="edge">
<title>Node1&#45;&gt;Node19</title>
<g id="a_edge18_Node000001_Node000019"><a xlink:title=" ">
<path fill="none" stroke="#63b8ff" d="M771.87,-117.66C632.32,-115.31 385.74,-106.52 303,-74 277.1,-63.82 252.89,-42.26 238.03,-27.09"/>
<polygon fill="#63b8ff" stroke="#63b8ff" points="240.2,-24.3 230.79,-19.44 235.12,-29.11 240.2,-24.3"/>
</a>
</g>
</g>
<!-- Node20 -->
<g id="Node000020" class="node">
<title>Node20</title>
<g id="a_Node000020"><a xlink:title=" ">
<polygon fill="#e0e0e0" stroke="#999999" points="1571,-74 1523,-74 1523,-55 1571,-55 1571,-74"/>
<text text-anchor="middle" x="1547" y="-62" font-family="Helvetica,sans-Serif" font-size="10.00">thread</text>
</a>
</g>
</g>
<!-- Node1&#45;&gt;Node20 -->
<g id="edge19_Node000001_Node000020" class="edge">
<title>Node1&#45;&gt;Node20</title>
<g id="a_edge19_Node000001_Node000020"><a xlink:title=" ">
<path fill="none" stroke="#63b8ff" d="M970.23,-117.25C1094.99,-114.42 1315.7,-105.22 1512.99,-73.84"/>
<polygon fill="#63b8ff" stroke="#63b8ff" points="1513.64,-77.28 1522.96,-72.24 1512.53,-70.37 1513.64,-77.28"/>
</a>
</g>
</g>
<!-- Node21 -->
<g id="Node000021" class="node">
<title>Node21</title>
<g id="a_Node000021"><a xlink:title=" ">
<polygon fill="#e0e0e0" stroke="#999999" points="1634.5,-74 1589.5,-74 1589.5,-55 1634.5,-55 1634.5,-74"/>
<text text-anchor="middle" x="1612" y="-62" font-family="Helvetica,sans-Serif" font-size="10.00">utility</text>
</a>
</g>
</g>
<!-- Node1&#45;&gt;Node21 -->
<g id="edge20_Node000001_Node000021" class="edge">
<title>Node1&#45;&gt;Node21</title>
<g id="a_edge20_Node000001_Node000021"><a xlink:title=" ">
<path fill="none" stroke="#63b8ff" d="M970.03,-118.41C1105.7,-116.92 1356.88,-109.28 1579.49,-73.7"/>
<polygon fill="#63b8ff" stroke="#63b8ff" points="1580.08,-77.15 1589.39,-72.09 1578.96,-70.24 1580.08,-77.15"/>
</a>
</g>
</g>
<!-- Node22 -->
<g id="Node000022" class="node">
<title>Node22</title>
<g id="a_Node000022"><a xlink:title=" ">
<polygon fill="#e0e0e0" stroke="#999999" points="658.5,-19 611.5,-19 611.5,0 658.5,0 658.5,-19"/>
<text text-anchor="middle" x="635" y="-7" font-family="Helvetica,sans-Serif" font-size="10.00">vector</text>
</a>
</g>
</g>
<!-- Node1&#45;&gt;Node22 -->
<g id="edge21_Node000001_Node000022" class="edge">
<title>Node1&#45;&gt;Node22</title>
<g id="a_edge21_Node000001_Node000022"><a xlink:title=" ">
<path fill="none" stroke="#63b8ff" d="M798.47,-109.92C764.94,-103.61 725.63,-92.71 694,-74 674.45,-62.44 657.44,-42.43 646.78,-27.96"/>
<polygon fill="#63b8ff" stroke="#63b8ff" points="649.35,-25.54 640.72,-19.4 643.64,-29.58 649.35,-25.54"/>
</a>
</g>
</g>
<!-- Node23 -->
<g id="Node000023" class="node">
<title>Node23</title>
<g id="a_Node000023"><a xlink:title=" ">
<polygon fill="#e0e0e0" stroke="#999999" points="1717,-74 1653,-74 1653,-55 1717,-55 1717,-74"/>
<text text-anchor="middle" x="1685" y="-62" font-family="Helvetica,sans-Serif" font-size="10.00">algorithm</text>
</a>
</g>
</g>
<!-- Node1&#45;&gt;Node23 -->
<g id="edge22_Node000001_Node000023" class="edge">
<title>Node1&#45;&gt;Node23</title>
<g id="a_edge22_Node000001_Node000023"><a xlink:title=" ">
<path fill="none" stroke="#63b8ff" d="M970.28,-117.44C1115.81,-114.85 1395.66,-105.93 1642.6,-73.97"/>
<polygon fill="#63b8ff" stroke="#63b8ff" points="1643.39,-77.4 1652.85,-72.63 1642.48,-70.46 1643.39,-77.4"/>
</a>
</g>
</g>
<!-- Node24 -->
<g id="Node000024" class="node">
<title>Node24</title>
<g id="a_Node000024"><a xlink:href="cli_8hpp.html" target="_top" xlink:title=" ">
<polygon fill="white" stroke="#666666" points="217.5,-74 168.5,-74 168.5,-55 217.5,-55 217.5,-74"/>
<text text-anchor="middle" x="193" y="-62" font-family="Helvetica,sans-Serif" font-size="10.00">cli.hpp</text>
</a>
</g>
</g>
<!-- Node1&#45;&gt;Node24 -->
<g id="edge23_Node000001_Node000024" class="edge">
<title>Node1&#45;&gt;Node24</title>
<g id="a_edge23_Node000001_Node000024"><a xlink:title=" ">
<path fill="none" stroke="#63b8ff" d="M771.74,-116.05C645.69,-111.91 421.76,-101.14 232,-74 230.54,-73.79 229.06,-73.56 227.56,-73.31"/>
<polygon fill="#63b8ff" stroke="#63b8ff" points="228.14,-69.85 217.66,-71.44 226.84,-76.73 228.14,-69.85"/>
</a>
</g>
</g>
<!-- Node26 -->
<g id="Node000026" class="node">
<title>Node26</title>
<g id="a_Node000026"><a xlink:href="miniply_8h.html" target="_top" xlink:title=" ">
<polygon fill="white" stroke="#666666" points="407.5,-74 312.5,-74 312.5,-55 407.5,-55 407.5,-74"/>
<text text-anchor="middle" x="360" y="-62" font-family="Helvetica,sans-Serif" font-size="10.00">extras/miniply.h</text>
</a>
</g>
</g>
<!-- Node1&#45;&gt;Node26 -->
<g id="edge27_Node000001_Node000026" class="edge">
<title>Node1&#45;&gt;Node26</title>
<g id="a_edge27_Node000001_Node000026"><a xlink:title=" ">
<path fill="none" stroke="#63b8ff" d="M774.54,-109.99C683.54,-101.72 543.36,-88.33 422,-74 420.7,-73.85 419.38,-73.69 418.04,-73.53"/>
<polygon fill="#63b8ff" stroke="#63b8ff" points="418.06,-70 407.7,-72.22 417.19,-76.95 418.06,-70"/>
</a>
</g>
</g>
<!-- Node28 -->
<g id="Node000028" class="node">
<title>Node28</title>
<g id="a_Node000028"><a xlink:href="log_8hpp.html" target="_top" xlink:title=" ">
<polygon fill="white" stroke="#666666" points="560,-74 464,-74 464,-55 560,-55 560,-74"/>
<text text-anchor="middle" x="512" y="-62" font-family="Helvetica,sans-Serif" font-size="10.00">uvgvpcc/log.hpp</text>
</a>
</g>
</g>
<!-- Node1&#45;&gt;Node28 -->
<g id="edge33_Node000001_Node000028" class="edge">
<title>Node1&#45;&gt;Node28</title>
<g id="a_edge33_Node000001_Node000028"><a xlink:title=" ">
<path fill="none" stroke="#63b8ff" d="M813.32,-109.98C746.49,-100.12 636.99,-83.95 570.02,-74.07"/>
<polygon fill="#63b8ff" stroke="#63b8ff" points="570.46,-70.59 560.05,-72.59 569.43,-77.52 570.46,-70.59"/>
</a>
</g>
</g>
<!-- Node32 -->
<g id="Node000032" class="node">
<title>Node32</title>
<g id="a_Node000032"><a xlink:href="uvgvpcc_8hpp.html" target="_top" xlink:title=" ">
<polygon fill="white" stroke="#666666" points="843,-74 721,-74 721,-55 843,-55 843,-74"/>
<text text-anchor="middle" x="782" y="-62" font-family="Helvetica,sans-Serif" font-size="10.00">uvgvpcc/uvgvpcc.hpp</text>
</a>
</g>
</g>
<!-- Node1&#45;&gt;Node32 -->
<g id="edge40_Node000001_Node000032" class="edge">
<title>Node1&#45;&gt;Node32</title>
<g id="a_edge40_Node000001_Node000032"><a xlink:title=" ">
<path fill="none" stroke="#63b8ff" d="M856.7,-109.98C842.9,-101.77 821.76,-89.18 805.49,-79.49"/>
<polygon fill="#63b8ff" stroke="#63b8ff" points="806.94,-76.28 796.56,-74.17 803.36,-82.29 806.94,-76.28"/>
</a>
</g>
</g>
<!-- Node34 -->
<g id="Node000034" class="node">
<title>Node34</title>
<g id="a_Node000034"><a xlink:title=" ">
<polygon fill="#e0e0e0" stroke="#999999" points="1369,-19 1277,-19 1277,0 1369,0 1369,-19"/>
<text text-anchor="middle" x="1323" y="-7" font-family="Helvetica,sans-Serif" font-size="10.00">../utils/utils.hpp</text>
</a>
</g>
</g>
<!-- Node1&#45;&gt;Node34 -->
<g id="edge52_Node000001_Node000034" class="edge">
<title>Node1&#45;&gt;Node34</title>
<g id="a_edge52_Node000001_Node000034"><a xlink:title=" ">
<path fill="none" stroke="#63b8ff" d="M890.44,-109.89C910.11,-101.1 941.34,-86.95 968,-74 984.63,-65.92 987.37,-60.56 1005,-55 1114.45,-20.52 1149.35,-35.15 1266.7,-19.13"/>
<polygon fill="#63b8ff" stroke="#63b8ff" points="1267.38,-22.56 1276.8,-17.7 1266.4,-15.63 1267.38,-22.56"/>
</a>
</g>
</g>
<!-- Node24&#45;&gt;Node17 -->
<g id="edge26_Node000024_Node000017" class="edge">
<title>Node24&#45;&gt;Node17</title>
<g id="a_edge26_Node000024_Node000017"><a xlink:title=" ">
<path fill="none" stroke="#63b8ff" d="M168.28,-55.1C140.77,-45.75 96.31,-30.65 66.87,-20.65"/>
<polygon fill="#63b8ff" stroke="#63b8ff" points="67.73,-17.24 57.14,-17.34 65.48,-23.87 67.73,-17.24"/>
</a>
</g>
</g>
<!-- Node24&#45;&gt;Node19 -->
<g id="edge25_Node000024_Node000019" class="edge">
<title>Node24&#45;&gt;Node19</title>
<g id="a_edge25_Node000024_Node000019"><a xlink:title=" ">
<path fill="none" stroke="#63b8ff" d="M197.95,-54.75C202.06,-47.49 208.03,-36.95 213.1,-27.98"/>
<polygon fill="#63b8ff" stroke="#63b8ff" points="216.26,-29.52 218.14,-19.09 210.17,-26.07 216.26,-29.52"/>
</a>
</g>
</g>
<!-- Node25 -->
<g id="Node000025" class="node">
<title>Node25</title>
<g id="a_Node000025"><a xlink:title=" ">
<polygon fill="#e0e0e0" stroke="#999999" points="119,-19 75,-19 75,0 119,0 119,-19"/>
<text text-anchor="middle" x="97" y="-7" font-family="Helvetica,sans-Serif" font-size="10.00">limits</text>
</a>
</g>
</g>
<!-- Node24&#45;&gt;Node25 -->
<g id="edge24_Node000024_Node000025" class="edge">
<title>Node24&#45;&gt;Node25</title>
<g id="a_edge24_Node000024_Node000025"><a xlink:title=" ">
<path fill="none" stroke="#63b8ff" d="M177.58,-54.98C162.55,-46.69 139.46,-33.94 121.84,-24.22"/>
<polygon fill="#63b8ff" stroke="#63b8ff" points="123.15,-20.94 112.7,-19.17 119.77,-27.07 123.15,-20.94"/>
</a>
</g>
</g>
<!-- Node26&#45;&gt;Node5 -->
<g id="edge29_Node000026_Node000005" class="edge">
<title>Node26&#45;&gt;Node5</title>
<g id="a_edge29_Node000026_Node000005"><a xlink:title=" ">
<path fill="none" stroke="#63b8ff" d="M360,-54.75C360,-47.8 360,-37.85 360,-29.13"/>
<polygon fill="#63b8ff" stroke="#63b8ff" points="363.5,-29.09 360,-19.09 356.5,-29.09 363.5,-29.09"/>
</a>
</g>
</g>
<!-- Node26&#45;&gt;Node6 -->
<g id="edge30_Node000026_Node000006" class="edge">
<title>Node26&#45;&gt;Node6</title>
<g id="a_edge30_Node000026_Node000006"><a xlink:title=" ">
<path fill="none" stroke="#63b8ff" d="M327.79,-54.98C295.95,-46.55 245.59,-33.21 192.93,-19.24"/>
<polygon fill="#63b8ff" stroke="#63b8ff" points="193.63,-15.81 183.07,-16.63 191.84,-22.58 193.63,-15.81"/>
</a>
</g>
</g>
<!-- Node26&#45;&gt;Node19 -->
<g id="edge31_Node000026_Node000019" class="edge">
<title>Node26&#45;&gt;Node19</title>
<g id="a_edge31_Node000026_Node000019"><a xlink:title=" ">
<path fill="none" stroke="#63b8ff" d="M337.99,-54.98C315.55,-46.3 280.52,-32.75 255.01,-22.88"/>
<polygon fill="#63b8ff" stroke="#63b8ff" points="256,-19.51 245.41,-19.17 253.48,-26.04 256,-19.51"/>
</a>
</g>
</g>
<!-- Node26&#45;&gt;Node22 -->
<g id="edge32_Node000026_Node000022" class="edge">
<title>Node26&#45;&gt;Node22</title>
<g id="a_edge32_Node000026_Node000022"><a xlink:title=" ">
<path fill="none" stroke="#63b8ff" d="M407.95,-55.7C454.82,-47.86 528.38,-34.93 601.42,-18.99"/>
<polygon fill="#63b8ff" stroke="#63b8ff" points="602.24,-22.4 611.25,-16.83 600.74,-15.56 602.24,-22.4"/>
</a>
</g>
</g>
<!-- Node27 -->
<g id="Node000027" class="node">
<title>Node27</title>
<g id="a_Node000027"><a xlink:title=" ">
<polygon fill="#e0e0e0" stroke="#999999" points="316.5,-19 263.5,-19 263.5,0 316.5,0 316.5,-19"/>
<text text-anchor="middle" x="290" y="-7" font-family="Helvetica,sans-Serif" font-size="10.00">cstdarg</text>
</a>
</g>
</g>
<!-- Node26&#45;&gt;Node27 -->
<g id="edge28_Node000026_Node000027" class="edge">
<title>Node26&#45;&gt;Node27</title>
<g id="a_edge28_Node000026_Node000027"><a xlink:title=" ">
<path fill="none" stroke="#63b8ff" d="M348.75,-54.98C338.2,-47 322.2,-34.88 309.56,-25.31"/>
<polygon fill="#63b8ff" stroke="#63b8ff" points="311.54,-22.42 301.45,-19.17 307.31,-28 311.54,-22.42"/>
</a>
</g>
</g>
<!-- Node28&#45;&gt;Node10 -->
<g id="edge37_Node000028_Node000010" class="edge">
<title>Node28&#45;&gt;Node10</title>
<g id="a_edge37_Node000028_Node000010"><a xlink:title=" ">
<path fill="none" stroke="#63b8ff" d="M543.33,-54.98C576.89,-45.86 630.24,-31.36 666.86,-21.41"/>
<polygon fill="#63b8ff" stroke="#63b8ff" points="667.98,-24.73 676.71,-18.73 666.14,-17.98 667.98,-24.73"/>
</a>
</g>
</g>
<!-- Node28&#45;&gt;Node19 -->
<g id="edge38_Node000028_Node000019" class="edge">
<title>Node28&#45;&gt;Node19</title>
<g id="a_edge38_Node000028_Node000019"><a xlink:title=" ">
<path fill="none" stroke="#63b8ff" d="M463.7,-56.6C413.79,-49.15 333.46,-36.27 255.3,-19.11"/>
<polygon fill="#63b8ff" stroke="#63b8ff" points="255.81,-15.64 245.29,-16.89 254.29,-22.47 255.81,-15.64"/>
</a>
</g>
</g>
<!-- Node28&#45;&gt;Node27 -->
<g id="edge35_Node000028_Node000027" class="edge">
<title>Node28&#45;&gt;Node27</title>
<g id="a_edge35_Node000028_Node000027"><a xlink:title=" ">
<path fill="none" stroke="#63b8ff" d="M476.33,-54.98C435.2,-45.17 367.95,-29.11 326.48,-19.21"/>
<polygon fill="#63b8ff" stroke="#63b8ff" points="327.06,-15.75 316.52,-16.83 325.44,-22.56 327.06,-15.75"/>
</a>
</g>
</g>
<!-- Node29 -->
<g id="Node000029" class="node">
<title>Node29</title>
<g id="a_Node000029"><a xlink:title=" ">
<polygon fill="#e0e0e0" stroke="#999999" points="453,-19 403,-19 403,0 453,0 453,-19"/>
<text text-anchor="middle" x="428" y="-7" font-family="Helvetica,sans-Serif" font-size="10.00">chrono</text>
</a>
</g>
</g>
<!-- Node28&#45;&gt;Node29 -->
<g id="edge34_Node000028_Node000029" class="edge">
<title>Node28&#45;&gt;Node29</title>
<g id="a_edge34_Node000028_Node000029"><a xlink:title=" ">
<path fill="none" stroke="#63b8ff" d="M498.5,-54.98C485.6,-46.84 465.9,-34.41 450.6,-24.76"/>
<polygon fill="#63b8ff" stroke="#63b8ff" points="452.07,-21.55 441.74,-19.17 448.33,-27.47 452.07,-21.55"/>
</a>
</g>
</g>
<!-- Node30 -->
<g id="Node000030" class="node">
<title>Node30</title>
<g id="a_Node000030"><a xlink:title=" ">
<polygon fill="#e0e0e0" stroke="#999999" points="527,-19 471,-19 471,0 527,0 527,-19"/>
<text text-anchor="middle" x="499" y="-7" font-family="Helvetica,sans-Serif" font-size="10.00">iomanip</text>
</a>
</g>
</g>
<!-- Node28&#45;&gt;Node30 -->
<g id="edge36_Node000028_Node000030" class="edge">
<title>Node28&#45;&gt;Node30</title>
<g id="a_edge36_Node000028_Node000030"><a xlink:title=" ">
<path fill="none" stroke="#63b8ff" d="M509.85,-54.75C508.13,-47.72 505.65,-37.62 503.5,-28.84"/>
<polygon fill="#63b8ff" stroke="#63b8ff" points="506.89,-27.97 501.11,-19.09 500.09,-29.63 506.89,-27.97"/>
</a>
</g>
</g>
<!-- Node31 -->
<g id="Node000031" class="node">
<title>Node31</title>
<g id="a_Node000031"><a xlink:title=" ">
<polygon fill="#e0e0e0" stroke="#999999" points="593,-19 545,-19 545,0 593,0 593,-19"/>
<text text-anchor="middle" x="569" y="-7" font-family="Helvetica,sans-Serif" font-size="10.00">mutex</text>
</a>
</g>
</g>
<!-- Node28&#45;&gt;Node31 -->
<g id="edge39_Node000028_Node000031" class="edge">
<title>Node28&#45;&gt;Node31</title>
<g id="a_edge39_Node000028_Node000031"><a xlink:title=" ">
<path fill="none" stroke="#63b8ff" d="M521.16,-54.98C529.5,-47.23 542.03,-35.58 552.18,-26.14"/>
<polygon fill="#63b8ff" stroke="#63b8ff" points="554.74,-28.54 559.68,-19.17 549.97,-23.42 554.74,-28.54"/>
</a>
</g>
</g>
<!-- Node32&#45;&gt;Node4 -->
<g id="edge41_Node000032_Node000004" class="edge">
<title>Node32&#45;&gt;Node4</title>
<g id="a_edge41_Node000032_Node000004"><a xlink:title=" ">
<path fill="none" stroke="#63b8ff" d="M782,-54.75C782,-47.8 782,-37.85 782,-29.13"/>
<polygon fill="#63b8ff" stroke="#63b8ff" points="785.5,-29.09 782,-19.09 778.5,-29.09 785.5,-29.09"/>
</a>
</g>
</g>
<!-- Node32&#45;&gt;Node5 -->
<g id="edge42_Node000032_Node000005" class="edge">
<title>Node32&#45;&gt;Node5</title>
<g id="a_edge42_Node000032_Node000005"><a xlink:title=" ">
<path fill="none" stroke="#63b8ff" d="M720.82,-58.97C646.16,-52.89 515.94,-40.5 395.32,-19.02"/>
<polygon fill="#63b8ff" stroke="#63b8ff" points="395.63,-15.52 385.17,-17.18 394.39,-22.4 395.63,-15.52"/>
</a>
</g>
</g>
<!-- Node32&#45;&gt;Node10 -->
<g id="edge43_Node000032_Node000010" class="edge">
<title>Node32&#45;&gt;Node10</title>
<g id="a_edge43_Node000032_Node000010"><a xlink:title=" ">
<path fill="none" stroke="#63b8ff" d="M769.95,-54.98C758.54,-46.92 741.17,-34.65 727.57,-25.03"/>
<polygon fill="#63b8ff" stroke="#63b8ff" points="729.46,-22.08 719.27,-19.17 725.42,-27.8 729.46,-22.08"/>
</a>
</g>
</g>
<!-- Node32&#45;&gt;Node11 -->
<g id="edge47_Node000032_Node000011" class="edge">
<title>Node32&#45;&gt;Node11</title>
<g id="a_edge47_Node000032_Node000011"><a xlink:title=" ">
<path fill="none" stroke="#63b8ff" d="M833.02,-54.99C880.62,-46.89 953.88,-34.01 1026.51,-19.23"/>
<polygon fill="#63b8ff" stroke="#63b8ff" points="1027.65,-22.57 1036.75,-17.13 1026.25,-15.71 1027.65,-22.57"/>
</a>
</g>
</g>
<!-- Node32&#45;&gt;Node13 -->
<g id="edge44_Node000032_Node000013" class="edge">
<title>Node32&#45;&gt;Node13</title>
<g id="a_edge44_Node000032_Node000013"><a xlink:title=" ">
<path fill="none" stroke="#63b8ff" d="M843.29,-56.49C905.66,-49.02 1005.35,-36.13 1100.51,-19.15"/>
<polygon fill="#63b8ff" stroke="#63b8ff" points="1101.37,-22.55 1110.59,-17.33 1100.13,-15.66 1101.37,-22.55"/>
</a>
</g>
</g>
<!-- Node32&#45;&gt;Node15 -->
<g id="edge46_Node000032_Node000015" class="edge">
<title>Node32&#45;&gt;Node15</title>
<g id="a_edge46_Node000032_Node000015"><a xlink:title=" ">
<path fill="none" stroke="#63b8ff" d="M843.24,-58.05C919.16,-50.98 1052.71,-37.49 1177.1,-19.03"/>
<polygon fill="#63b8ff" stroke="#63b8ff" points="1177.81,-22.46 1187.18,-17.52 1176.77,-15.54 1177.81,-22.46"/>
</a>
</g>
</g>
<!-- Node32&#45;&gt;Node19 -->
<g id="edge48_Node000032_Node000019" class="edge">
<title>Node32&#45;&gt;Node19</title>
<g id="a_edge48_Node000032_Node000019"><a xlink:title=" ">
<path fill="none" stroke="#63b8ff" d="M720.95,-61.99C624.02,-58.79 428.94,-49.11 255.33,-18.91"/>
<polygon fill="#63b8ff" stroke="#63b8ff" points="255.7,-15.42 245.24,-17.12 254.48,-22.31 255.7,-15.42"/>
</a>
</g>
</g>
<!-- Node32&#45;&gt;Node22 -->
<g id="edge49_Node000032_Node000022" class="edge">
<title>Node32&#45;&gt;Node22</title>
<g id="a_edge49_Node000032_Node000022"><a xlink:title=" ">
<path fill="none" stroke="#63b8ff" d="M758.38,-54.98C733.95,-46.18 695.6,-32.35 668.14,-22.45"/>
<polygon fill="#63b8ff" stroke="#63b8ff" points="669.15,-19.09 658.56,-18.99 666.78,-25.68 669.15,-19.09"/>
</a>
</g>
</g>
<!-- Node33 -->
<g id="Node000033" class="node">
<title>Node33</title>
<g id="a_Node000033"><a xlink:title=" ">
<polygon fill="#e0e0e0" stroke="#999999" points="873.5,-19 826.5,-19 826.5,0 873.5,0 873.5,-19"/>
<text text-anchor="middle" x="850" y="-7" font-family="Helvetica,sans-Serif" font-size="10.00">queue</text>
</a>
</g>
</g>
<!-- Node32&#45;&gt;Node33 -->
<g id="edge45_Node000032_Node000033" class="edge">
<title>Node32&#45;&gt;Node33</title>
<g id="a_edge45_Node000032_Node000033"><a xlink:title=" ">
<path fill="none" stroke="#63b8ff" d="M792.93,-54.98C803.08,-47.07 818.42,-35.11 830.65,-25.58"/>
<polygon fill="#63b8ff" stroke="#63b8ff" points="833.14,-28.08 838.88,-19.17 828.84,-22.56 833.14,-28.08"/>
</a>
</g>
</g>
<!-- Node32&#45;&gt;Node34 -->
<g id="edge50_Node000032_Node000034" class="edge">
<title>Node32&#45;&gt;Node34</title>
<g id="a_edge50_Node000032_Node000034"><a xlink:title=" ">
<path fill="none" stroke="#63b8ff" d="M843.12,-59.13C933.48,-52.39 1108.22,-38.33 1266.87,-19.07"/>
<polygon fill="#63b8ff" stroke="#63b8ff" points="1267.31,-22.54 1276.82,-17.85 1266.46,-15.59 1267.31,-22.54"/>
</a>
</g>
</g>
<!-- Node35 -->
<g id="Node000035" class="node">
<title>Node35</title>
<g id="a_Node000035"><a xlink:title=" ">
<polygon fill="#e0e0e0" stroke="#999999" points="1018.5,-19 891.5,-19 891.5,0 1018.5,0 1018.5,-19"/>
<text text-anchor="middle" x="955" y="-7" font-family="Helvetica,sans-Serif" font-size="10.00">../utils/parameters.hpp</text>
</a>
</g>
</g>
<!-- Node32&#45;&gt;Node35 -->
<g id="edge51_Node000032_Node000035" class="edge">
<title>Node32&#45;&gt;Node35</title>
<g id="a_edge51_Node000032_Node000035"><a xlink:title=" ">
<path fill="none" stroke="#63b8ff" d="M809.8,-54.98C838.97,-46.05 885,-31.94 917.4,-22.02"/>
<polygon fill="#63b8ff" stroke="#63b8ff" points="918.45,-25.36 926.99,-19.08 916.4,-18.66 918.45,-25.36"/>
</a>
</g>
</g>
</g>
</svg>
