<?xml version="1.0" encoding="UTF-8" standalone="no"?>
<!DOCTYPE svg PUBLIC "-//W3C//DTD SVG 1.1//EN"
 "http://www.w3.org/Graphics/SVG/1.1/DTD/svg11.dtd">
<!-- Generated by graphviz version 2.43.0 (0)
 -->
<!-- Title: src/app/uvgVPCCencAppExample.cpp Pages: 1 -->
<svg width="2035pt" height="192pt"
 viewBox="0.00 0.00 2035.40 192.00" xmlns="http://www.w3.org/2000/svg" xmlns:xlink="http://www.w3.org/1999/xlink">
<g id="graph0" class="graph" transform="scale(1 1) rotate(0) translate(4 188)">
<title>src/app/uvgVPCCencAppExample.cpp</title>
<!-- Node1 -->
<g id="Node000001" class="node">
<title>Node1</title>
<g id="a_Node000001"><a xlink:title=" ">
<polygon fill="#999999" stroke="#666666" points="1147.4,-184 949.4,-184 949.4,-165 1147.4,-165 1147.4,-184"/>
<text text-anchor="middle" x="1048.4" y="-172" font-family="Helvetica,sans-Serif" font-size="10.00">src/app/uvgVPCCencAppExample.cpp</text>
</a>
</g>
</g>
<!-- Node2 -->
<g id="Node000002" class="node">
<title>Node2</title>
<g id="a_Node000002"><a xlink:title=" ">
<polygon fill="#e0e0e0" stroke="#999999" points="1038.4,-74 974.4,-74 974.4,-55 1038.4,-55 1038.4,-74"/>
<text text-anchor="middle" x="1006.4" y="-62" font-family="Helvetica,sans-Serif" font-size="10.00">algorithm</text>
</a>
</g>
</g>
<!-- Node1&#45;&gt;Node2 -->
<g id="edge1_Node000001_Node000002" class="edge">
<title>Node1&#45;&gt;Node2</title>
<g id="a_edge1_Node000001_Node000002"><a xlink:title=" ">
<path fill="none" stroke="#63b8ff" d="M1044.96,-164.66C1038.1,-147.01 1022.57,-107.09 1013.45,-83.64"/>
<polygon fill="#63b8ff" stroke="#63b8ff" points="1016.65,-82.21 1009.77,-74.16 1010.13,-84.75 1016.65,-82.21"/>
</a>
</g>
</g>
<!-- Node3 -->
<g id="Node000003" class="node">
<title>Node3</title>
<g id="a_Node000003"><a xlink:title=" ">
<polygon fill="#e0e0e0" stroke="#999999" points="913.4,-19 871.4,-19 871.4,0 913.4,0 913.4,-19"/>
<text text-anchor="middle" x="892.4" y="-7" font-family="Helvetica,sans-Serif" font-size="10.00">array</text>
</a>
</g>
</g>
<!-- Node1&#45;&gt;Node3 -->
<g id="edge2_Node000001_Node000003" class="edge">
<title>Node1&#45;&gt;Node3</title>
<g id="a_edge2_Node000001_Node000003"><a xlink:title=" ">
<path fill="none" stroke="#63b8ff" d="M1126.46,-164.98C1180.44,-158.02 1253.57,-146.44 1316.4,-129 1338.51,-122.86 1342.18,-115.71 1364.4,-110 1488.92,-78.01 1736.6,-148.54 1648.4,-55 1623.15,-28.22 1063.59,-14.24 923.82,-11.16"/>
<polygon fill="#63b8ff" stroke="#63b8ff" points="923.48,-7.65 913.41,-10.93 923.33,-14.65 923.48,-7.65"/>
</a>
</g>
</g>
<!-- Node4 -->
<g id="Node000004" class="node">
<title>Node4</title>
<g id="a_Node000004"><a xlink:title=" ">
<polygon fill="#e0e0e0" stroke="#999999" points="1458.4,-129 1406.4,-129 1406.4,-110 1458.4,-110 1458.4,-129"/>
<text text-anchor="middle" x="1432.4" y="-117" font-family="Helvetica,sans-Serif" font-size="10.00">cassert</text>
</a>
</g>
</g>
<!-- Node1&#45;&gt;Node4 -->
<g id="edge3_Node000001_Node000004" class="edge">
<title>Node1&#45;&gt;Node4</title>
<g id="a_edge3_Node000001_Node000004"><a xlink:title=" ">
<path fill="none" stroke="#63b8ff" d="M1128.61,-164.98C1198.5,-157.11 1302.47,-144.35 1392.4,-129 1393.66,-128.79 1394.94,-128.56 1396.23,-128.32"/>
<polygon fill="#63b8ff" stroke="#63b8ff" points="1397.06,-131.73 1406.21,-126.38 1395.72,-124.86 1397.06,-131.73"/>
</a>
</g>
</g>
<!-- Node5 -->
<g id="Node000005" class="node">
<title>Node5</title>
<g id="a_Node000005"><a xlink:title=" ">
<polygon fill="#e0e0e0" stroke="#999999" points="1527.9,-129 1476.9,-129 1476.9,-110 1527.9,-110 1527.9,-129"/>
<text text-anchor="middle" x="1502.4" y="-117" font-family="Helvetica,sans-Serif" font-size="10.00">csignal</text>
</a>
</g>
</g>
<!-- Node1&#45;&gt;Node5 -->
<g id="edge4_Node000001_Node000005" class="edge">
<title>Node1&#45;&gt;Node5</title>
<g id="a_edge4_Node000001_Node000005"><a xlink:title=" ">
<path fill="none" stroke="#63b8ff" d="M1147.54,-166.69C1230.35,-160.14 1351.65,-148.56 1466.81,-128.86"/>
<polygon fill="#63b8ff" stroke="#63b8ff" points="1467.61,-132.27 1476.87,-127.11 1466.42,-125.37 1467.61,-132.27"/>
</a>
</g>
</g>
<!-- Node6 -->
<g id="Node000006" class="node">
<title>Node6</title>
<g id="a_Node000006"><a xlink:title=" ">
<polygon fill="#e0e0e0" stroke="#999999" points="1109.9,-74 1056.9,-74 1056.9,-55 1109.9,-55 1109.9,-74"/>
<text text-anchor="middle" x="1083.4" y="-62" font-family="Helvetica,sans-Serif" font-size="10.00">cstddef</text>
</a>
</g>
</g>
<!-- Node1&#45;&gt;Node6 -->
<g id="edge5_Node000001_Node000006" class="edge">
<title>Node1&#45;&gt;Node6</title>
<g id="a_edge5_Node000001_Node000006"><a xlink:title=" ">
<path fill="none" stroke="#63b8ff" d="M1050.83,-164.83C1054.31,-152.56 1061,-129.46 1067.4,-110 1070.25,-101.32 1073.65,-91.79 1076.58,-83.77"/>
<polygon fill="#63b8ff" stroke="#63b8ff" points="1079.89,-84.91 1080.07,-74.32 1073.32,-82.48 1079.89,-84.91"/>
</a>
</g>
</g>
<!-- Node7 -->
<g id="Node000007" class="node">
<title>Node7</title>
<g id="a_Node000007"><a xlink:title=" ">
<polygon fill="#e0e0e0" stroke="#999999" points="317.4,-19 267.4,-19 267.4,0 317.4,0 317.4,-19"/>
<text text-anchor="middle" x="292.4" y="-7" font-family="Helvetica,sans-Serif" font-size="10.00">cstdint</text>
</a>
</g>
</g>
<!-- Node1&#45;&gt;Node7 -->
<g id="edge6_Node000001_Node000007" class="edge">
<title>Node1&#45;&gt;Node7</title>
<g id="a_edge6_Node000001_Node000007"><a xlink:title=" ">
<path fill="none" stroke="#63b8ff" d="M949.13,-173.02C715.38,-171.32 143.92,-163.64 64.4,-129 26.58,-112.53 -18.41,-86.34 8.4,-55 16.44,-45.6 182.35,-24.07 256.79,-14.84"/>
<polygon fill="#63b8ff" stroke="#63b8ff" points="257.58,-18.27 267.08,-13.57 256.73,-11.32 257.58,-18.27"/>
</a>
</g>
</g>
<!-- Node8 -->
<g id="Node000008" class="node">
<title>Node8</title>
<g id="a_Node000008"><a xlink:title=" ">
<polygon fill="#e0e0e0" stroke="#999999" points="197.4,-74 151.4,-74 151.4,-55 197.4,-55 197.4,-74"/>
<text text-anchor="middle" x="174.4" y="-62" font-family="Helvetica,sans-Serif" font-size="10.00">cstdio</text>
</a>
</g>
</g>
<!-- Node1&#45;&gt;Node8 -->
<g id="edge7_Node000001_Node000008" class="edge">
<title>Node1&#45;&gt;Node8</title>
<g id="a_edge7_Node000001_Node000008"><a xlink:title=" ">
<path fill="none" stroke="#63b8ff" d="M949.22,-172.13C746.57,-168.75 298.72,-158.05 235.4,-129 213.77,-119.08 195.88,-97.74 185.19,-82.54"/>
<polygon fill="#63b8ff" stroke="#63b8ff" points="187.97,-80.39 179.49,-74.02 182.15,-84.28 187.97,-80.39"/>
</a>
</g>
</g>
<!-- Node9 -->
<g id="Node000009" class="node">
<title>Node9</title>
<g id="a_Node000009"><a xlink:title=" ">
<polygon fill="#e0e0e0" stroke="#999999" points="1594.9,-129 1545.9,-129 1545.9,-110 1594.9,-110 1594.9,-129"/>
<text text-anchor="middle" x="1570.4" y="-117" font-family="Helvetica,sans-Serif" font-size="10.00">cstdlib</text>
</a>
</g>
</g>
<!-- Node1&#45;&gt;Node9 -->
<g id="edge8_Node000001_Node000009" class="edge">
<title>Node1&#45;&gt;Node9</title>
<g id="a_edge8_Node000001_Node000009"><a xlink:title=" ">
<path fill="none" stroke="#63b8ff" d="M1147.82,-169.16C1244.74,-163.85 1396.33,-152.7 1535.62,-129.06"/>
<polygon fill="#63b8ff" stroke="#63b8ff" points="1536.36,-132.48 1545.63,-127.34 1535.18,-125.59 1536.36,-132.48"/>
</a>
</g>
</g>
<!-- Node10 -->
<g id="Node000010" class="node">
<title>Node10</title>
<g id="a_Node000010"><a xlink:title=" ">
<polygon fill="#e0e0e0" stroke="#999999" points="1677.9,-129 1612.9,-129 1612.9,-110 1677.9,-110 1677.9,-129"/>
<text text-anchor="middle" x="1645.4" y="-117" font-family="Helvetica,sans-Serif" font-size="10.00">exception</text>
</a>
</g>
</g>
<!-- Node1&#45;&gt;Node10 -->
<g id="edge9_Node000001_Node000010" class="edge">
<title>Node1&#45;&gt;Node10</title>
<g id="a_edge9_Node000001_Node000010"><a xlink:title=" ">
<path fill="none" stroke="#63b8ff" d="M1147.49,-169.3C1256.72,-163.82 1437.78,-152.24 1602.47,-129.11"/>
<polygon fill="#63b8ff" stroke="#63b8ff" points="1603.38,-132.52 1612.79,-127.64 1602.4,-125.59 1603.38,-132.52"/>
</a>
</g>
</g>
<!-- Node11 -->
<g id="Node000011" class="node">
<title>Node11</title>
<g id="a_Node000011"><a xlink:title=" ">
<polygon fill="#e0e0e0" stroke="#999999" points="705.9,-74 650.9,-74 650.9,-55 705.9,-55 705.9,-74"/>
<text text-anchor="middle" x="678.4" y="-62" font-family="Helvetica,sans-Serif" font-size="10.00">fstream</text>
</a>
</g>
</g>
<!-- Node1&#45;&gt;Node11 -->
<g id="edge10_Node000001_Node000011" class="edge">
<title>Node1&#45;&gt;Node11</title>
<g id="a_edge10_Node000001_Node000011"><a xlink:title=" ">
<path fill="none" stroke="#63b8ff" d="M966.49,-164.97C917.65,-158.36 854.93,-147.18 801.4,-129 796.3,-127.27 738.1,-96.86 703.62,-78.76"/>
<polygon fill="#63b8ff" stroke="#63b8ff" points="705.06,-75.57 694.58,-74.02 701.81,-81.77 705.06,-75.57"/>
</a>
</g>
</g>
<!-- Node12 -->
<g id="Node000012" class="node">
<title>Node12</title>
<g id="a_Node000012"><a xlink:title=" ">
<polygon fill="#e0e0e0" stroke="#999999" points="888.4,-74 828.4,-74 828.4,-55 888.4,-55 888.4,-74"/>
<text text-anchor="middle" x="858.4" y="-62" font-family="Helvetica,sans-Serif" font-size="10.00">iostream</text>
</a>
</g>
</g>
<!-- Node1&#45;&gt;Node12 -->
<g id="edge11_Node000001_Node000012" class="edge">
<title>Node1&#45;&gt;Node12</title>
<g id="a_edge11_Node000001_Node000012"><a xlink:title=" ">
<path fill="none" stroke="#63b8ff" d="M1033.17,-164.84C1000.15,-146.08 921.77,-101.52 882.17,-79.01"/>
<polygon fill="#63b8ff" stroke="#63b8ff" points="883.86,-75.95 873.43,-74.05 880.4,-82.03 883.86,-75.95"/>
</a>
</g>
</g>
<!-- Node13 -->
<g id="Node000013" class="node">
<title>Node13</title>
<g id="a_Node000013"><a xlink:title=" ">
<polygon fill="#e0e0e0" stroke="#999999" points="1748.9,-129 1695.9,-129 1695.9,-110 1748.9,-110 1748.9,-129"/>
<text text-anchor="middle" x="1722.4" y="-117" font-family="Helvetica,sans-Serif" font-size="10.00">iterator</text>
</a>
</g>
</g>
<!-- Node1&#45;&gt;Node13 -->
<g id="edge12_Node000001_Node000013" class="edge">
<title>Node1&#45;&gt;Node13</title>
<g id="a_edge12_Node000001_Node000013"><a xlink:title=" ">
<path fill="none" stroke="#63b8ff" d="M1147.49,-171.77C1271.45,-168.44 1490.2,-158.74 1685.57,-129.03"/>
<polygon fill="#63b8ff" stroke="#63b8ff" points="1686.39,-132.45 1695.74,-127.47 1685.32,-125.53 1686.39,-132.45"/>
</a>
</g>
</g>
<!-- Node14 -->
<g id="Node000014" class="node">
<title>Node14</title>
<g id="a_Node000014"><a xlink:title=" ">
<polygon fill="#e0e0e0" stroke="#999999" points="1439.4,-74 1381.4,-74 1381.4,-55 1439.4,-55 1439.4,-74"/>
<text text-anchor="middle" x="1410.4" y="-62" font-family="Helvetica,sans-Serif" font-size="10.00">memory</text>
</a>
</g>
</g>
<!-- Node1&#45;&gt;Node14 -->
<g id="edge13_Node000001_Node000014" class="edge">
<title>Node1&#45;&gt;Node14</title>
<g id="a_edge13_Node000001_Node000014"><a xlink:title=" ">
<path fill="none" stroke="#63b8ff" d="M1084.54,-164.96C1117.07,-156.9 1165.98,-143.86 1207.4,-129 1227.06,-121.94 1230.73,-117.04 1250.4,-110 1290.94,-95.49 1338.63,-82.77 1371.33,-74.68"/>
<polygon fill="#63b8ff" stroke="#63b8ff" points="1372.51,-78 1381.39,-72.22 1370.85,-71.2 1372.51,-78"/>
</a>
</g>
</g>
<!-- Node15 -->
<g id="Node000015" class="node">
<title>Node15</title>
<g id="a_Node000015"><a xlink:title=" ">
<polygon fill="#e0e0e0" stroke="#999999" points="1811.4,-129 1767.4,-129 1767.4,-110 1811.4,-110 1811.4,-129"/>
<text text-anchor="middle" x="1789.4" y="-117" font-family="Helvetica,sans-Serif" font-size="10.00">regex</text>
</a>
</g>
</g>
<!-- Node1&#45;&gt;Node15 -->
<g id="edge14_Node000001_Node000015" class="edge">
<title>Node1&#45;&gt;Node15</title>
<g id="a_edge14_Node000001_Node000015"><a xlink:title=" ">
<path fill="none" stroke="#63b8ff" d="M1147.61,-173.67C1283.52,-172.48 1535.11,-165.17 1757.28,-128.82"/>
<polygon fill="#63b8ff" stroke="#63b8ff" points="1757.88,-132.27 1767.17,-127.18 1756.73,-125.37 1757.88,-132.27"/>
</a>
</g>
</g>
<!-- Node16 -->
<g id="Node000016" class="node">
<title>Node16</title>
<g id="a_Node000016"><a xlink:title=" ">
<polygon fill="#e0e0e0" stroke="#999999" points="1528.9,-74 1457.9,-74 1457.9,-55 1528.9,-55 1528.9,-74"/>
<text text-anchor="middle" x="1493.4" y="-62" font-family="Helvetica,sans-Serif" font-size="10.00">semaphore</text>
</a>
</g>
</g>
<!-- Node1&#45;&gt;Node16 -->
<g id="edge15_Node000001_Node000016" class="edge">
<title>Node1&#45;&gt;Node16</title>
<g id="a_edge15_Node000001_Node000016"><a xlink:title=" ">
<path fill="none" stroke="#63b8ff" d="M1096.31,-165C1136.18,-157.35 1194.16,-144.88 1243.4,-129 1264.06,-122.34 1267.7,-116.55 1288.4,-110 1317.55,-100.77 1396.67,-84.5 1447.66,-74.4"/>
<polygon fill="#63b8ff" stroke="#63b8ff" points="1448.64,-77.77 1457.77,-72.4 1447.28,-70.91 1448.64,-77.77"/>
</a>
</g>
</g>
<!-- Node17 -->
<g id="Node000017" class="node">
<title>Node17</title>
<g id="a_Node000017"><a xlink:title=" ">
<polygon fill="#e0e0e0" stroke="#999999" points="956.4,-74 906.4,-74 906.4,-55 956.4,-55 956.4,-74"/>
<text text-anchor="middle" x="931.4" y="-62" font-family="Helvetica,sans-Serif" font-size="10.00">chrono</text>
</a>
</g>
</g>
<!-- Node1&#45;&gt;Node17 -->
<g id="edge16_Node000001_Node000017" class="edge">
<title>Node1&#45;&gt;Node17</title>
<g id="a_edge16_Node000001_Node000017"><a xlink:title=" ">
<path fill="none" stroke="#63b8ff" d="M1038.82,-164.66C1019.01,-146.38 973.3,-104.18 948.37,-81.17"/>
<polygon fill="#63b8ff" stroke="#63b8ff" points="950.5,-78.37 940.78,-74.16 945.75,-83.51 950.5,-78.37"/>
</a>
</g>
</g>
<!-- Node18 -->
<g id="Node000018" class="node">
<title>Node18</title>
<g id="a_Node000018"><a xlink:title=" ">
<polygon fill="#e0e0e0" stroke="#999999" points="57.4,-74 17.4,-74 17.4,-55 57.4,-55 57.4,-74"/>
<text text-anchor="middle" x="37.4" y="-62" font-family="Helvetica,sans-Serif" font-size="10.00">span</text>
</a>
</g>
</g>
<!-- Node1&#45;&gt;Node18 -->
<g id="edge17_Node000001_Node000018" class="edge">
<title>Node1&#45;&gt;Node18</title>
<g id="a_edge17_Node000001_Node000018"><a xlink:title=" ">
<path fill="none" stroke="#63b8ff" d="M949.11,-173.34C719.74,-172.33 166.85,-166.03 91.4,-129 71.36,-119.17 55.87,-98.14 46.72,-82.97"/>
<polygon fill="#63b8ff" stroke="#63b8ff" points="49.62,-80.99 41.63,-74.02 43.53,-84.45 49.62,-80.99"/>
</a>
</g>
</g>
<!-- Node19 -->
<g id="Node000019" class="node">
<title>Node19</title>
<g id="a_Node000019"><a xlink:title=" ">
<polygon fill="#e0e0e0" stroke="#999999" points="1381.4,-19 1325.4,-19 1325.4,0 1381.4,0 1381.4,-19"/>
<text text-anchor="middle" x="1353.4" y="-7" font-family="Helvetica,sans-Serif" font-size="10.00">sstream</text>
</a>
</g>
</g>
<!-- Node1&#45;&gt;Node19 -->
<g id="edge18_Node000001_Node000019" class="edge">
<title>Node1&#45;&gt;Node19</title>
<g id="a_edge18_Node000001_Node000019"><a xlink:title=" ">
<path fill="none" stroke="#63b8ff" d="M1147.68,-165.94C1208.27,-159.65 1286.82,-148.45 1354.4,-129 1374.48,-123.22 1377.28,-115.65 1397.4,-110 1455.88,-93.56 1628.37,-119.7 1668.4,-74 1673.96,-67.65 1673.94,-61.38 1668.4,-55 1632.94,-14.18 1467.47,-9.77 1391.59,-9.95"/>
<polygon fill="#63b8ff" stroke="#63b8ff" points="1391.48,-6.45 1381.5,-10.01 1391.52,-13.45 1391.48,-6.45"/>
</a>
</g>
</g>
<!-- Node20 -->
<g id="Node000020" class="node">
<title>Node20</title>
<g id="a_Node000020"><a xlink:title=" ">
<polygon fill="#e0e0e0" stroke="#999999" points="318.9,-74 253.9,-74 253.9,-55 318.9,-55 318.9,-74"/>
<text text-anchor="middle" x="286.4" y="-62" font-family="Helvetica,sans-Serif" font-size="10.00">stdexcept</text>
</a>
</g>
</g>
<!-- Node1&#45;&gt;Node20 -->
<g id="edge19_Node000001_Node000020" class="edge">
<title>Node1&#45;&gt;Node20</title>
<g id="a_edge19_Node000001_Node000020"><a xlink:title=" ">
<path fill="none" stroke="#63b8ff" d="M949.21,-171.61C739.3,-167.12 267.3,-154.26 243.4,-129 229.16,-113.96 248.1,-93.75 265.16,-80.21"/>
<polygon fill="#63b8ff" stroke="#63b8ff" points="267.33,-82.95 273.22,-74.15 263.13,-77.36 267.33,-82.95"/>
</a>
</g>
</g>
<!-- Node21 -->
<g id="Node000021" class="node">
<title>Node21</title>
<g id="a_Node000021"><a xlink:title=" ">
<polygon fill="#e0e0e0" stroke="#999999" points="594.4,-74 550.4,-74 550.4,-55 594.4,-55 594.4,-74"/>
<text text-anchor="middle" x="572.4" y="-62" font-family="Helvetica,sans-Serif" font-size="10.00">string</text>
</a>
</g>
</g>
<!-- Node1&#45;&gt;Node21 -->
<g id="edge20_Node000001_Node000021" class="edge">
<title>Node1&#45;&gt;Node21</title>
<g id="a_edge20_Node000001_Node000021"><a xlink:title=" ">
<path fill="none" stroke="#63b8ff" d="M949.25,-169.49C823.76,-163.55 620.56,-150.72 593.4,-129 580.09,-118.36 575.14,-99.05 573.34,-84.51"/>
<polygon fill="#63b8ff" stroke="#63b8ff" points="576.79,-83.79 572.47,-74.12 569.81,-84.38 576.79,-83.79"/>
</a>
</g>
</g>
<!-- Node22 -->
<g id="Node000022" class="node">
<title>Node22</title>
<g id="a_Node000022"><a xlink:title=" ">
<polygon fill="#e0e0e0" stroke="#999999" points="1877.4,-129 1829.4,-129 1829.4,-110 1877.4,-110 1877.4,-129"/>
<text text-anchor="middle" x="1853.4" y="-117" font-family="Helvetica,sans-Serif" font-size="10.00">thread</text>
</a>
</g>
</g>
<!-- Node1&#45;&gt;Node22 -->
<g id="edge21_Node000001_Node000022" class="edge">
<title>Node1&#45;&gt;Node22</title>
<g id="a_edge21_Node000001_Node000022"><a xlink:title=" ">
<path fill="none" stroke="#63b8ff" d="M1147.45,-173.92C1292.98,-173.19 1573.02,-166.58 1819.15,-128.85"/>
<polygon fill="#63b8ff" stroke="#63b8ff" points="1820.02,-132.26 1829.36,-127.27 1818.94,-125.34 1820.02,-132.26"/>
</a>
</g>
</g>
<!-- Node23 -->
<g id="Node000023" class="node">
<title>Node23</title>
<g id="a_Node000023"><a xlink:title=" ">
<polygon fill="#e0e0e0" stroke="#999999" points="1940.9,-129 1895.9,-129 1895.9,-110 1940.9,-110 1940.9,-129"/>
<text text-anchor="middle" x="1918.4" y="-117" font-family="Helvetica,sans-Serif" font-size="10.00">utility</text>
</a>
</g>
</g>
<!-- Node1&#45;&gt;Node23 -->
<g id="edge22_Node000001_Node000023" class="edge">
<title>Node1&#45;&gt;Node23</title>
<g id="a_edge22_Node000001_Node000023"><a xlink:title=" ">
<path fill="none" stroke="#63b8ff" d="M1147.48,-170.81C1333.45,-165.33 1729.32,-151.61 1885.84,-128.65"/>
<polygon fill="#63b8ff" stroke="#63b8ff" points="1886.44,-132.1 1895.8,-127.12 1885.38,-125.18 1886.44,-132.1"/>
</a>
</g>
</g>
<!-- Node24 -->
<g id="Node000024" class="node">
<title>Node24</title>
<g id="a_Node000024"><a xlink:title=" ">
<polygon fill="#e0e0e0" stroke="#999999" points="383.9,-74 336.9,-74 336.9,-55 383.9,-55 383.9,-74"/>
<text text-anchor="middle" x="360.4" y="-62" font-family="Helvetica,sans-Serif" font-size="10.00">vector</text>
</a>
</g>
</g>
<!-- Node1&#45;&gt;Node24 -->
<g id="edge23_Node000001_Node000024" class="edge">
<title>Node1&#45;&gt;Node24</title>
<g id="a_edge23_Node000001_Node000024"><a xlink:title=" ">
<path fill="none" stroke="#63b8ff" d="M949.31,-171.93C778.12,-168.46 440.88,-158 395.4,-129 379.51,-118.87 370.24,-98.88 365.27,-84.02"/>
<polygon fill="#63b8ff" stroke="#63b8ff" points="368.6,-82.91 362.39,-74.32 361.89,-84.91 368.6,-82.91"/>
</a>
</g>
</g>
<!-- Node25 -->
<g id="Node000025" class="node">
<title>Node25</title>
<g id="a_Node000025"><a xlink:title=" ">
<polygon fill="#e0e0e0" stroke="#999999" points="2027.4,-129 1959.4,-129 1959.4,-110 2027.4,-110 2027.4,-129"/>
<text text-anchor="middle" x="1993.4" y="-117" font-family="Helvetica,sans-Serif" font-size="10.00">filesystem</text>
</a>
</g>
</g>
<!-- Node1&#45;&gt;Node25 -->
<g id="edge24_Node000001_Node000025" class="edge">
<title>Node1&#45;&gt;Node25</title>
<g id="a_edge24_Node000001_Node000025"><a xlink:title=" ">
<path fill="none" stroke="#63b8ff" d="M1147.57,-173.32C1312.22,-171.99 1652.42,-164.81 1949.11,-128.96"/>
<polygon fill="#63b8ff" stroke="#63b8ff" points="1949.7,-132.41 1959.2,-127.73 1948.85,-125.47 1949.7,-132.41"/>
</a>
</g>
</g>
<!-- Node26 -->
<g id="Node000026" class="node">
<title>Node26</title>
<g id="a_Node000026"><a xlink:title=" ">
<polygon fill="#e0e0e0" stroke="#999999" points="1639.4,-74 1547.4,-74 1547.4,-55 1639.4,-55 1639.4,-74"/>
<text text-anchor="middle" x="1593.4" y="-62" font-family="Helvetica,sans-Serif" font-size="10.00">../utils/utils.hpp</text>
</a>
</g>
</g>
<!-- Node1&#45;&gt;Node26 -->
<g id="edge25_Node000001_Node000026" class="edge">
<title>Node1&#45;&gt;Node26</title>
<g id="a_edge25_Node000001_Node000026"><a xlink:title=" ">
<path fill="none" stroke="#63b8ff" d="M1109.97,-164.97C1156.96,-157.66 1223,-145.66 1279.4,-129 1301.01,-122.62 1304.71,-116.11 1326.4,-110 1346.26,-104.4 1464.52,-85.54 1536.83,-74.25"/>
<polygon fill="#63b8ff" stroke="#63b8ff" points="1537.8,-77.64 1547.14,-72.64 1536.72,-70.73 1537.8,-77.64"/>
</a>
</g>
</g>
<!-- Node27 -->
<g id="Node000027" class="node">
<title>Node27</title>
<g id="a_Node000027"><a xlink:href="cli_8hpp.html" target="_top" xlink:title=" ">
<polygon fill="white" stroke="#666666" points="149.9,-129 100.9,-129 100.9,-110 149.9,-110 149.9,-129"/>
<text text-anchor="middle" x="125.4" y="-117" font-family="Helvetica,sans-Serif" font-size="10.00">cli.hpp</text>
</a>
</g>
</g>
<!-- Node1&#45;&gt;Node27 -->
<g id="edge26_Node000001_Node000027" class="edge">
<title>Node1&#45;&gt;Node27</title>
<g id="a_edge26_Node000001_Node000027"><a xlink:title=" ">
<path fill="none" stroke="#63b8ff" d="M949.21,-173.3C785.68,-171.89 449.46,-164.46 167.4,-129 165.03,-128.7 162.6,-128.35 160.15,-127.95"/>
<polygon fill="#63b8ff" stroke="#63b8ff" points="160.63,-124.48 150.17,-126.15 159.39,-131.37 160.63,-124.48"/>
</a>
</g>
</g>
<!-- Node29 -->
<g id="Node000029" class="node">
<title>Node29</title>
<g id="a_Node000029"><a xlink:href="miniply_8h.html" target="_top" xlink:title=" ">
<polygon fill="white" stroke="#666666" points="347.9,-129 252.9,-129 252.9,-110 347.9,-110 347.9,-129"/>
<text text-anchor="middle" x="300.4" y="-117" font-family="Helvetica,sans-Serif" font-size="10.00">extras/miniply.h</text>
</a>
</g>
</g>
<!-- Node1&#45;&gt;Node29 -->
<g id="edge32_Node000001_Node000029" class="edge">
<title>Node1&#45;&gt;Node29</title>
<g id="a_edge32_Node000001_Node000029"><a xlink:title=" ">
<path fill="none" stroke="#63b8ff" d="M949.38,-169.3C815.86,-163.13 570.8,-150.02 362.4,-129 361.09,-128.87 359.77,-128.73 358.44,-128.59"/>
<polygon fill="#63b8ff" stroke="#63b8ff" points="358.42,-125.06 348.08,-127.39 357.62,-132.01 358.42,-125.06"/>
</a>
</g>
</g>
<!-- Node31 -->
<g id="Node000031" class="node">
<title>Node31</title>
<g id="a_Node000031"><a xlink:href="log_8hpp.html" target="_top" xlink:title=" ">
<polygon fill="white" stroke="#666666" points="906.4,-129 810.4,-129 810.4,-110 906.4,-110 906.4,-129"/>
<text text-anchor="middle" x="858.4" y="-117" font-family="Helvetica,sans-Serif" font-size="10.00">uvgvpcc/log.hpp</text>
</a>
</g>
</g>
<!-- Node1&#45;&gt;Node31 -->
<g id="edge38_Node000001_Node000031" class="edge">
<title>Node1&#45;&gt;Node31</title>
<g id="a_edge38_Node000001_Node000031"><a xlink:title=" ">
<path fill="none" stroke="#63b8ff" d="M1017.87,-164.98C985.7,-156.01 934.84,-141.82 899.23,-131.89"/>
<polygon fill="#63b8ff" stroke="#63b8ff" points="899.74,-128.4 889.16,-129.08 897.86,-135.14 899.74,-128.4"/>
</a>
</g>
</g>
<!-- Node34 -->
<g id="Node000034" class="node">
<title>Node34</title>
<g id="a_Node000034"><a xlink:href="uvgvpcc_8hpp.html" target="_top" xlink:title=" ">
<polygon fill="white" stroke="#666666" points="1198.4,-129 1076.4,-129 1076.4,-110 1198.4,-110 1198.4,-129"/>
<text text-anchor="middle" x="1137.4" y="-117" font-family="Helvetica,sans-Serif" font-size="10.00">uvgvpcc/uvgvpcc.hpp</text>
</a>
</g>
</g>
<!-- Node1&#45;&gt;Node34 -->
<g id="edge45_Node000001_Node000034" class="edge">
<title>Node1&#45;&gt;Node34</title>
<g id="a_edge45_Node000001_Node000034"><a xlink:title=" ">
<path fill="none" stroke="#63b8ff" d="M1062.7,-164.98C1076.5,-156.77 1097.64,-144.18 1113.91,-134.49"/>
<polygon fill="#63b8ff" stroke="#63b8ff" points="1116.04,-137.29 1122.84,-129.17 1112.46,-131.28 1116.04,-137.29"/>
</a>
</g>
</g>
<!-- Node37 -->
<g id="Node000037" class="node">
<title>Node37</title>
<g id="a_Node000037"><a xlink:href="statsCollector_8hpp.html" target="_top" xlink:title=" ">
<polygon fill="white" stroke="#666666" points="754.4,-129 602.4,-129 602.4,-110 754.4,-110 754.4,-129"/>
<text text-anchor="middle" x="678.4" y="-117" font-family="Helvetica,sans-Serif" font-size="10.00">../lib/utils/statsCollector.hpp</text>
</a>
</g>
</g>
<!-- Node1&#45;&gt;Node37 -->
<g id="edge58_Node000001_Node000037" class="edge">
<title>Node1&#45;&gt;Node37</title>
<g id="a_edge58_Node000001_Node000037"><a xlink:title=" ">
<path fill="none" stroke="#63b8ff" d="M988.95,-164.98C923.24,-155.57 817.51,-140.43 747.99,-130.47"/>
<polygon fill="#63b8ff" stroke="#63b8ff" points="748.4,-126.99 738,-129.04 747.41,-133.92 748.4,-126.99"/>
</a>
</g>
</g>
<!-- Node38 -->
<g id="Node000038" class="node">
<title>Node38</title>
<g id="a_Node000038"><a xlink:href="parameters_8hpp.html" target="_top" xlink:title=" ">
<polygon fill="white" stroke="#666666" points="546.4,-129 404.4,-129 404.4,-110 546.4,-110 546.4,-129"/>
<text text-anchor="middle" x="475.4" y="-117" font-family="Helvetica,sans-Serif" font-size="10.00">../lib/utils/parameters.hpp</text>
</a>
</g>
</g>
<!-- Node1&#45;&gt;Node38 -->
<g id="edge65_Node000001_Node000038" class="edge">
<title>Node1&#45;&gt;Node38</title>
<g id="a_edge65_Node000001_Node000038"><a xlink:title=" ">
<path fill="none" stroke="#63b8ff" d="M952.08,-164.97C853.63,-156.19 696.32,-141.99 560.4,-129 559.29,-128.89 558.18,-128.79 557.05,-128.68"/>
<polygon fill="#63b8ff" stroke="#63b8ff" points="557.11,-125.17 546.81,-127.69 556.43,-132.14 557.11,-125.17"/>
</a>
</g>
</g>
<!-- Node27&#45;&gt;Node7 -->
<g id="edge30_Node000027_Node000007" class="edge">
<title>Node27&#45;&gt;Node7</title>
<g id="a_edge30_Node000027_Node000007"><a xlink:title=" ">
<path fill="none" stroke="#63b8ff" d="M125.2,-109.83C125.38,-96.27 127.75,-70.05 142.4,-55 158.36,-38.61 218.26,-24.52 257.36,-16.8"/>
<polygon fill="#63b8ff" stroke="#63b8ff" points="258.15,-20.22 267.3,-14.89 256.82,-13.34 258.15,-20.22"/>
</a>
</g>
</g>
<!-- Node27&#45;&gt;Node18 -->
<g id="edge29_Node000027_Node000018" class="edge">
<title>Node27&#45;&gt;Node18</title>
<g id="a_edge29_Node000027_Node000018"><a xlink:title=" ">
<path fill="none" stroke="#63b8ff" d="M111.26,-109.98C97.61,-101.77 76.71,-89.18 60.62,-79.49"/>
<polygon fill="#63b8ff" stroke="#63b8ff" points="62.17,-76.33 51.79,-74.17 58.56,-82.33 62.17,-76.33"/>
</a>
</g>
</g>
<!-- Node27&#45;&gt;Node21 -->
<g id="edge28_Node000027_Node000021" class="edge">
<title>Node27&#45;&gt;Node21</title>
<g id="a_edge28_Node000027_Node000021"><a xlink:title=" ">
<path fill="none" stroke="#63b8ff" d="M150.17,-116.35C224.81,-109.78 447.61,-89.59 540.26,-73.66"/>
<polygon fill="#63b8ff" stroke="#63b8ff" points="540.9,-77.1 550.12,-71.88 539.66,-70.21 540.9,-77.1"/>
</a>
</g>
</g>
<!-- Node27&#45;&gt;Node24 -->
<g id="edge31_Node000027_Node000024" class="edge">
<title>Node27&#45;&gt;Node24</title>
<g id="a_edge31_Node000027_Node000024"><a xlink:title=" ">
<path fill="none" stroke="#63b8ff" d="M150.03,-113.37C186.42,-105.72 256.95,-90.66 326.78,-74.08"/>
<polygon fill="#63b8ff" stroke="#63b8ff" points="327.72,-77.45 336.63,-71.73 326.09,-70.65 327.72,-77.45"/>
</a>
</g>
</g>
<!-- Node28 -->
<g id="Node000028" class="node">
<title>Node28</title>
<g id="a_Node000028"><a xlink:title=" ">
<polygon fill="#e0e0e0" stroke="#999999" points="212.4,-19 168.4,-19 168.4,0 212.4,0 212.4,-19"/>
<text text-anchor="middle" x="190.4" y="-7" font-family="Helvetica,sans-Serif" font-size="10.00">limits</text>
</a>
</g>
</g>
<!-- Node27&#45;&gt;Node28 -->
<g id="edge27_Node000027_Node000028" class="edge">
<title>Node27&#45;&gt;Node28</title>
<g id="a_edge27_Node000027_Node000028"><a xlink:title=" ">
<path fill="none" stroke="#63b8ff" d="M119.25,-109.69C111.12,-96.85 98.98,-72.61 109.4,-55 120.01,-37.06 140.72,-25.86 158.54,-19.19"/>
<polygon fill="#63b8ff" stroke="#63b8ff" points="159.73,-22.48 168.06,-15.94 157.47,-15.86 159.73,-22.48"/>
</a>
</g>
</g>
<!-- Node29&#45;&gt;Node7 -->
<g id="edge34_Node000029_Node000007" class="edge">
<title>Node29&#45;&gt;Node7</title>
<g id="a_edge34_Node000029_Node000007"><a xlink:title=" ">
<path fill="none" stroke="#63b8ff" d="M282.63,-109.96C269.39,-102.51 252.28,-90.33 244.4,-74 235.45,-55.45 253.18,-36.98 269.57,-24.78"/>
<polygon fill="#63b8ff" stroke="#63b8ff" points="271.66,-27.59 277.87,-19.01 267.66,-21.85 271.66,-27.59"/>
</a>
</g>
</g>
<!-- Node29&#45;&gt;Node8 -->
<g id="edge35_Node000029_Node000008" class="edge">
<title>Node29&#45;&gt;Node8</title>
<g id="a_edge35_Node000029_Node000008"><a xlink:title=" ">
<path fill="none" stroke="#63b8ff" d="M280.15,-109.98C259.7,-101.38 227.87,-87.99 204.47,-78.15"/>
<polygon fill="#63b8ff" stroke="#63b8ff" points="205.59,-74.82 195.01,-74.17 202.87,-81.27 205.59,-74.82"/>
</a>
</g>
</g>
<!-- Node29&#45;&gt;Node21 -->
<g id="edge36_Node000029_Node000021" class="edge">
<title>Node29&#45;&gt;Node21</title>
<g id="a_edge36_Node000029_Node000021"><a xlink:title=" ">
<path fill="none" stroke="#63b8ff" d="M347.98,-110.78C394.47,-102.99 467.44,-90.11 540.27,-73.87"/>
<polygon fill="#63b8ff" stroke="#63b8ff" points="541.09,-77.27 550.07,-71.66 539.55,-70.44 541.09,-77.27"/>
</a>
</g>
</g>
<!-- Node29&#45;&gt;Node24 -->
<g id="edge37_Node000029_Node000024" class="edge">
<title>Node29&#45;&gt;Node24</title>
<g id="a_edge37_Node000029_Node000024"><a xlink:title=" ">
<path fill="none" stroke="#63b8ff" d="M310.04,-109.98C318.91,-102.15 332.27,-90.34 343.01,-80.86"/>
<polygon fill="#63b8ff" stroke="#63b8ff" points="345.41,-83.41 350.58,-74.17 340.77,-78.17 345.41,-83.41"/>
</a>
</g>
</g>
<!-- Node30 -->
<g id="Node000030" class="node">
<title>Node30</title>
<g id="a_Node000030"><a xlink:title=" ">
<polygon fill="#e0e0e0" stroke="#999999" points="531.9,-74 478.9,-74 478.9,-55 531.9,-55 531.9,-74"/>
<text text-anchor="middle" x="505.4" y="-62" font-family="Helvetica,sans-Serif" font-size="10.00">cstdarg</text>
</a>
</g>
</g>
<!-- Node29&#45;&gt;Node30 -->
<g id="edge33_Node000029_Node000030" class="edge">
<title>Node29&#45;&gt;Node30</title>
<g id="a_edge33_Node000029_Node000030"><a xlink:title=" ">
<path fill="none" stroke="#63b8ff" d="M333.34,-109.98C370.43,-100.4 430.53,-84.86 468.99,-74.91"/>
<polygon fill="#63b8ff" stroke="#63b8ff" points="469.94,-78.28 478.75,-72.39 468.19,-71.5 469.94,-78.28"/>
</a>
</g>
</g>
<!-- Node31&#45;&gt;Node12 -->
<g id="edge42_Node000031_Node000012" class="edge">
<title>Node31&#45;&gt;Node12</title>
<g id="a_edge42_Node000031_Node000012"><a xlink:title=" ">
<path fill="none" stroke="#63b8ff" d="M858.4,-109.75C858.4,-102.8 858.4,-92.85 858.4,-84.13"/>
<polygon fill="#63b8ff" stroke="#63b8ff" points="861.9,-84.09 858.4,-74.09 854.9,-84.09 861.9,-84.09"/>
</a>
</g>
</g>
<!-- Node31&#45;&gt;Node17 -->
<g id="edge39_Node000031_Node000017" class="edge">
<title>Node31&#45;&gt;Node17</title>
<g id="a_edge39_Node000031_Node000017"><a xlink:title=" ">
<path fill="none" stroke="#63b8ff" d="M870.13,-109.98C881.13,-102 897.82,-89.88 911,-80.31"/>
<polygon fill="#63b8ff" stroke="#63b8ff" points="913.42,-82.88 919.46,-74.17 909.31,-77.21 913.42,-82.88"/>
</a>
</g>
</g>
<!-- Node31&#45;&gt;Node21 -->
<g id="edge43_Node000031_Node000021" class="edge">
<title>Node31&#45;&gt;Node21</title>
<g id="a_edge43_Node000031_Node000021"><a xlink:title=" ">
<path fill="none" stroke="#63b8ff" d="M812.45,-109.98C754.22,-99.19 655.34,-80.87 604.57,-71.46"/>
<polygon fill="#63b8ff" stroke="#63b8ff" points="604.97,-67.98 594.5,-69.6 603.7,-74.86 604.97,-67.98"/>
</a>
</g>
</g>
<!-- Node31&#45;&gt;Node30 -->
<g id="edge40_Node000031_Node000030" class="edge">
<title>Node31&#45;&gt;Node30</title>
<g id="a_edge40_Node000031_Node000030"><a xlink:title=" ">
<path fill="none" stroke="#63b8ff" d="M810.38,-113.16C750.09,-106.15 643.32,-92.7 542.16,-73.98"/>
<polygon fill="#63b8ff" stroke="#63b8ff" points="542.55,-70.49 532.08,-72.09 541.26,-77.37 542.55,-70.49"/>
</a>
</g>
</g>
<!-- Node32 -->
<g id="Node000032" class="node">
<title>Node32</title>
<g id="a_Node000032"><a xlink:title=" ">
<polygon fill="#e0e0e0" stroke="#999999" points="643.4,-19 587.4,-19 587.4,0 643.4,0 643.4,-19"/>
<text text-anchor="middle" x="615.4" y="-7" font-family="Helvetica,sans-Serif" font-size="10.00">iomanip</text>
</a>
</g>
</g>
<!-- Node31&#45;&gt;Node32 -->
<g id="edge41_Node000031_Node000032" class="edge">
<title>Node31&#45;&gt;Node32</title>
<g id="a_edge41_Node000031_Node000032"><a xlink:title=" ">
<path fill="none" stroke="#63b8ff" d="M850.28,-109.72C837.12,-96.02 809.74,-69.6 781.4,-55 740.42,-33.88 688.43,-22.05 653.66,-15.98"/>
<polygon fill="#63b8ff" stroke="#63b8ff" points="653.89,-12.47 643.45,-14.28 652.74,-19.38 653.89,-12.47"/>
</a>
</g>
</g>
<!-- Node33 -->
<g id="Node000033" class="node">
<title>Node33</title>
<g id="a_Node000033"><a xlink:title=" ">
<polygon fill="#e0e0e0" stroke="#999999" points="772.4,-74 724.4,-74 724.4,-55 772.4,-55 772.4,-74"/>
<text text-anchor="middle" x="748.4" y="-62" font-family="Helvetica,sans-Serif" font-size="10.00">mutex</text>
</a>
</g>
</g>
<!-- Node31&#45;&gt;Node33 -->
<g id="edge44_Node000031_Node000033" class="edge">
<title>Node31&#45;&gt;Node33</title>
<g id="a_edge44_Node000031_Node000033"><a xlink:title=" ">
<path fill="none" stroke="#63b8ff" d="M840.73,-109.98C823.11,-101.5 795.82,-88.35 775.47,-78.54"/>
<polygon fill="#63b8ff" stroke="#63b8ff" points="776.92,-75.36 766.39,-74.17 773.88,-81.66 776.92,-75.36"/>
</a>
</g>
</g>
<!-- Node34&#45;&gt;Node2 -->
<g id="edge55_Node000034_Node000002" class="edge">
<title>Node34&#45;&gt;Node2</title>
<g id="a_edge55_Node000034_Node000002"><a xlink:title=" ">
<path fill="none" stroke="#63b8ff" d="M1116.35,-109.98C1094.99,-101.34 1061.69,-87.87 1037.33,-78.02"/>
<polygon fill="#63b8ff" stroke="#63b8ff" points="1038.41,-74.68 1027.83,-74.17 1035.79,-81.17 1038.41,-74.68"/>
</a>
</g>
</g>
<!-- Node34&#45;&gt;Node6 -->
<g id="edge46_Node000034_Node000006" class="edge">
<title>Node34&#45;&gt;Node6</title>
<g id="a_edge46_Node000034_Node000006"><a xlink:title=" ">
<path fill="none" stroke="#63b8ff" d="M1128.48,-109.75C1120.62,-102.03 1108.97,-90.6 1099.48,-81.28"/>
<polygon fill="#63b8ff" stroke="#63b8ff" points="1101.74,-78.6 1092.15,-74.09 1096.83,-83.59 1101.74,-78.6"/>
</a>
</g>
</g>
<!-- Node34&#45;&gt;Node7 -->
<g id="edge47_Node000034_Node000007" class="edge">
<title>Node34&#45;&gt;Node7</title>
<g id="a_edge47_Node000034_Node000007"><a xlink:title=" ">
<path fill="none" stroke="#63b8ff" d="M1137.69,-109.82C1137.63,-95.76 1135.22,-68.24 1118.4,-55 1102.63,-42.58 484.08,-17.9 327.92,-11.86"/>
<polygon fill="#63b8ff" stroke="#63b8ff" points="327.61,-8.34 317.49,-11.46 327.34,-15.34 327.61,-8.34"/>
</a>
</g>
</g>
<!-- Node34&#45;&gt;Node12 -->
<g id="edge48_Node000034_Node000012" class="edge">
<title>Node34&#45;&gt;Node12</title>
<g id="a_edge48_Node000034_Node000012"><a xlink:title=" ">
<path fill="none" stroke="#63b8ff" d="M1089.05,-109.99C1042.7,-101.73 970.5,-88.61 898.73,-74.22"/>
<polygon fill="#63b8ff" stroke="#63b8ff" points="899.11,-70.73 888.61,-72.18 897.73,-77.59 899.11,-70.73"/>
</a>
</g>
</g>
<!-- Node34&#45;&gt;Node14 -->
<g id="edge49_Node000034_Node000014" class="edge">
<title>Node34&#45;&gt;Node14</title>
<g id="a_edge49_Node000034_Node000014"><a xlink:title=" ">
<path fill="none" stroke="#63b8ff" d="M1181.93,-109.94C1228.27,-101.02 1302.94,-86.61 1367.4,-74 1368.66,-73.75 1369.94,-73.5 1371.23,-73.25"/>
<polygon fill="#63b8ff" stroke="#63b8ff" points="1372.12,-76.64 1381.26,-71.28 1370.77,-69.77 1372.12,-76.64"/>
</a>
</g>
</g>
<!-- Node34&#45;&gt;Node16 -->
<g id="edge51_Node000034_Node000016" class="edge">
<title>Node34&#45;&gt;Node16</title>
<g id="a_edge51_Node000034_Node000016"><a xlink:title=" ">
<path fill="none" stroke="#63b8ff" d="M1198.6,-110.56C1259.2,-102.52 1354.88,-89.32 1447.46,-74.09"/>
<polygon fill="#63b8ff" stroke="#63b8ff" points="1448.27,-77.5 1457.56,-72.42 1447.13,-70.6 1448.27,-77.5"/>
</a>
</g>
</g>
<!-- Node34&#45;&gt;Node19 -->
<g id="edge52_Node000034_Node000019" class="edge">
<title>Node34&#45;&gt;Node19</title>
<g id="a_edge52_Node000034_Node000019"><a xlink:title=" ">
<path fill="none" stroke="#63b8ff" d="M1198.88,-111.44C1249.12,-104.46 1314.92,-92.19 1334.4,-74 1346.61,-62.6 1351.08,-43.7 1352.66,-29.48"/>
<polygon fill="#63b8ff" stroke="#63b8ff" points="1356.17,-29.54 1353.41,-19.31 1349.19,-29.03 1356.17,-29.54"/>
</a>
</g>
</g>
<!-- Node34&#45;&gt;Node21 -->
<g id="edge53_Node000034_Node000021" class="edge">
<title>Node34&#45;&gt;Node21</title>
<g id="a_edge53_Node000034_Node000021"><a xlink:title=" ">
<path fill="none" stroke="#63b8ff" d="M1076.25,-113.67C982.55,-106.12 797.87,-90.65 641.4,-74 629.36,-72.72 616.16,-71.14 604.56,-69.69"/>
<polygon fill="#63b8ff" stroke="#63b8ff" points="604.8,-66.19 594.44,-68.4 603.92,-73.13 604.8,-66.19"/>
</a>
</g>
</g>
<!-- Node34&#45;&gt;Node24 -->
<g id="edge54_Node000034_Node000024" class="edge">
<title>Node34&#45;&gt;Node24</title>
<g id="a_edge54_Node000034_Node000024"><a xlink:title=" ">
<path fill="none" stroke="#63b8ff" d="M1076.26,-115.55C916.57,-107.76 492.96,-86.43 394.21,-73.8"/>
<polygon fill="#63b8ff" stroke="#63b8ff" points="394.45,-70.3 384.05,-72.35 393.45,-77.23 394.45,-70.3"/>
</a>
</g>
</g>
<!-- Node34&#45;&gt;Node26 -->
<g id="edge57_Node000034_Node000026" class="edge">
<title>Node34&#45;&gt;Node26</title>
<g id="a_edge57_Node000034_Node000026"><a xlink:title=" ">
<path fill="none" stroke="#63b8ff" d="M1198.64,-112.53C1275.3,-104.87 1410.89,-90.71 1536.98,-74.14"/>
<polygon fill="#63b8ff" stroke="#63b8ff" points="1537.75,-77.57 1547.21,-72.79 1536.83,-70.63 1537.75,-77.57"/>
</a>
</g>
</g>
<!-- Node35 -->
<g id="Node000035" class="node">
<title>Node35</title>
<g id="a_Node000035"><a xlink:title=" ">
<polygon fill="#e0e0e0" stroke="#999999" points="1213.9,-74 1166.9,-74 1166.9,-55 1213.9,-55 1213.9,-74"/>
<text text-anchor="middle" x="1190.4" y="-62" font-family="Helvetica,sans-Serif" font-size="10.00">queue</text>
</a>
</g>
</g>
<!-- Node34&#45;&gt;Node35 -->
<g id="edge50_Node000034_Node000035" class="edge">
<title>Node34&#45;&gt;Node35</title>
<g id="a_edge50_Node000034_Node000035"><a xlink:title=" ">
<path fill="none" stroke="#63b8ff" d="M1146.15,-109.75C1153.87,-102.03 1165.3,-90.6 1174.62,-81.28"/>
<polygon fill="#63b8ff" stroke="#63b8ff" points="1177.21,-83.64 1181.81,-74.09 1172.26,-78.69 1177.21,-83.64"/>
</a>
</g>
</g>
<!-- Node36 -->
<g id="Node000036" class="node">
<title>Node36</title>
<g id="a_Node000036"><a xlink:title=" ">
<polygon fill="#e0e0e0" stroke="#999999" points="1324.9,-74 1231.9,-74 1231.9,-55 1324.9,-55 1324.9,-74"/>
<text text-anchor="middle" x="1278.4" y="-62" font-family="Helvetica,sans-Serif" font-size="10.00">unordered_map</text>
</a>
</g>
</g>
<!-- Node34&#45;&gt;Node36 -->
<g id="edge56_Node000034_Node000036" class="edge">
<title>Node34&#45;&gt;Node36</title>
<g id="a_edge56_Node000034_Node000036"><a xlink:title=" ">
<path fill="none" stroke="#63b8ff" d="M1160.05,-109.98C1183.25,-101.27 1219.52,-87.63 1245.8,-77.75"/>
<polygon fill="#63b8ff" stroke="#63b8ff" points="1247.2,-80.97 1255.33,-74.17 1244.74,-74.41 1247.2,-80.97"/>
</a>
</g>
</g>
<!-- Node37&#45;&gt;Node7 -->
<g id="edge62_Node000037_Node000007" class="edge">
<title>Node37&#45;&gt;Node7</title>
<g id="a_edge62_Node000037_Node000007"><a xlink:title=" ">
<path fill="none" stroke="#63b8ff" d="M671.13,-109.77C658.82,-95.63 632.34,-68.01 603.4,-55 554.66,-33.1 398.34,-18.65 327.67,-13.08"/>
<polygon fill="#63b8ff" stroke="#63b8ff" points="327.73,-9.58 317.49,-12.29 327.19,-16.56 327.73,-9.58"/>
</a>
</g>
</g>
<!-- Node37&#45;&gt;Node11 -->
<g id="edge59_Node000037_Node000011" class="edge">
<title>Node37&#45;&gt;Node11</title>
<g id="a_edge59_Node000037_Node000011"><a xlink:title=" ">
<path fill="none" stroke="#63b8ff" d="M678.4,-109.75C678.4,-102.8 678.4,-92.85 678.4,-84.13"/>
<polygon fill="#63b8ff" stroke="#63b8ff" points="681.9,-84.09 678.4,-74.09 674.9,-84.09 681.9,-84.09"/>
</a>
</g>
</g>
<!-- Node37&#45;&gt;Node12 -->
<g id="edge64_Node000037_Node000012" class="edge">
<title>Node37&#45;&gt;Node12</title>
<g id="a_edge64_Node000037_Node000012"><a xlink:title=" ">
<path fill="none" stroke="#63b8ff" d="M707.32,-109.98C737.67,-101.05 785.57,-86.94 819.28,-77.02"/>
<polygon fill="#63b8ff" stroke="#63b8ff" points="820.65,-80.26 829.25,-74.08 818.67,-73.55 820.65,-80.26"/>
</a>
</g>
</g>
<!-- Node37&#45;&gt;Node21 -->
<g id="edge61_Node000037_Node000021" class="edge">
<title>Node37&#45;&gt;Node21</title>
<g id="a_edge61_Node000037_Node000021"><a xlink:title=" ">
<path fill="none" stroke="#63b8ff" d="M661.37,-109.98C644.47,-101.54 618.33,-88.47 598.75,-78.68"/>
<polygon fill="#63b8ff" stroke="#63b8ff" points="600.25,-75.51 589.74,-74.17 597.12,-81.77 600.25,-75.51"/>
</a>
</g>
</g>
<!-- Node37&#45;&gt;Node24 -->
<g id="edge63_Node000037_Node000024" class="edge">
<title>Node37&#45;&gt;Node24</title>
<g id="a_edge63_Node000037_Node000024"><a xlink:title=" ">
<path fill="none" stroke="#63b8ff" d="M610.42,-109.98C554.63,-102.51 473.41,-90.57 394.24,-74.22"/>
<polygon fill="#63b8ff" stroke="#63b8ff" points="394.6,-70.72 384.1,-72.09 393.17,-77.57 394.6,-70.72"/>
</a>
</g>
</g>
<!-- Node37&#45;&gt;Node33 -->
<g id="edge60_Node000037_Node000033" class="edge">
<title>Node37&#45;&gt;Node33</title>
<g id="a_edge60_Node000037_Node000033"><a xlink:title=" ">
<path fill="none" stroke="#63b8ff" d="M689.65,-109.98C700.2,-102 716.2,-89.88 728.84,-80.31"/>
<polygon fill="#63b8ff" stroke="#63b8ff" points="731.09,-83 736.95,-74.17 726.86,-77.42 731.09,-83"/>
</a>
</g>
</g>
<!-- Node38&#45;&gt;Node20 -->
<g id="edge66_Node000038_Node000020" class="edge">
<title>Node38&#45;&gt;Node20</title>
<g id="a_edge66_Node000038_Node000020"><a xlink:title=" ">
<path fill="none" stroke="#63b8ff" d="M445.03,-109.98C413.03,-101.01 362.44,-86.82 327.02,-76.89"/>
<polygon fill="#63b8ff" stroke="#63b8ff" points="327.58,-73.41 317,-74.08 325.69,-80.15 327.58,-73.41"/>
</a>
</g>
</g>
<!-- Node38&#45;&gt;Node21 -->
<g id="edge67_Node000038_Node000021" class="edge">
<title>Node38&#45;&gt;Node21</title>
<g id="a_edge67_Node000038_Node000021"><a xlink:title=" ">
<path fill="none" stroke="#63b8ff" d="M490.98,-109.98C506.17,-101.69 529.5,-88.94 547.3,-79.22"/>
<polygon fill="#63b8ff" stroke="#63b8ff" points="549.43,-82.04 556.53,-74.17 546.08,-75.89 549.43,-82.04"/>
</a>
</g>
</g>
<!-- Node38&#45;&gt;Node24 -->
<g id="edge68_Node000038_Node000024" class="edge">
<title>Node38&#45;&gt;Node24</title>
<g id="a_edge68_Node000038_Node000024"><a xlink:title=" ">
<path fill="none" stroke="#63b8ff" d="M456.92,-109.98C438.42,-101.46 409.72,-88.23 388.41,-78.41"/>
<polygon fill="#63b8ff" stroke="#63b8ff" points="389.76,-75.18 379.21,-74.17 386.83,-81.53 389.76,-75.18"/>
</a>
</g>
</g>
<!-- Node39 -->
<g id="Node000039" class="node">
<title>Node39</title>
<g id="a_Node000039"><a xlink:href="utils_8hpp.html" target="_top" xlink:title=" ">
<polygon fill="white" stroke="#666666" points="460.9,-74 401.9,-74 401.9,-55 460.9,-55 460.9,-74"/>
<text text-anchor="middle" x="431.4" y="-62" font-family="Helvetica,sans-Serif" font-size="10.00">utils.hpp</text>
</a>
</g>
</g>
<!-- Node38&#45;&gt;Node39 -->
<g id="edge69_Node000038_Node000039" class="edge">
<title>Node38&#45;&gt;Node39</title>
<g id="a_edge69_Node000038_Node000039"><a xlink:title=" ">
<path fill="none" stroke="#63b8ff" d="M468.13,-109.75C461.85,-102.18 452.61,-91.05 444.97,-81.84"/>
<polygon fill="#63b8ff" stroke="#63b8ff" points="447.61,-79.55 438.53,-74.09 442.22,-84.02 447.61,-79.55"/>
</a>
</g>
</g>
<!-- Node39&#45;&gt;Node3 -->
<g id="edge70_Node000039_Node000003" class="edge">
<title>Node39&#45;&gt;Node3</title>
<g id="a_edge70_Node000039_Node000003"><a xlink:title=" ">
<path fill="none" stroke="#63b8ff" d="M461.21,-56.49C463.97,-55.95 466.73,-55.44 469.4,-55 614.66,-31.19 790.17,-17.48 860.75,-12.58"/>
<polygon fill="#63b8ff" stroke="#63b8ff" points="861.42,-16.04 871.16,-11.86 860.94,-9.06 861.42,-16.04"/>
</a>
</g>
</g>
<!-- Node39&#45;&gt;Node7 -->
<g id="edge71_Node000039_Node000007" class="edge">
<title>Node39&#45;&gt;Node7</title>
<g id="a_edge71_Node000039_Node000007"><a xlink:title=" ">
<path fill="none" stroke="#63b8ff" d="M409.07,-54.98C386.2,-46.27 350.44,-32.63 324.54,-22.75"/>
<polygon fill="#63b8ff" stroke="#63b8ff" points="325.73,-19.46 315.14,-19.17 323.23,-26 325.73,-19.46"/>
</a>
</g>
</g>
<!-- Node39&#45;&gt;Node19 -->
<g id="edge73_Node000039_Node000019" class="edge">
<title>Node39&#45;&gt;Node19</title>
<g id="a_edge73_Node000039_Node000019"><a xlink:title=" ">
<path fill="none" stroke="#63b8ff" d="M461.18,-56.34C463.95,-55.82 466.72,-55.36 469.4,-55 636.51,-32.27 1166.98,-15.8 1314.82,-11.57"/>
<polygon fill="#63b8ff" stroke="#63b8ff" points="1315.29,-15.06 1325.19,-11.27 1315.09,-8.06 1315.29,-15.06"/>
</a>
</g>
</g>
<!-- Node39&#45;&gt;Node28 -->
<g id="edge72_Node000039_Node000028" class="edge">
<title>Node39&#45;&gt;Node28</title>
<g id="a_edge72_Node000039_Node000028"><a xlink:title=" ">
<path fill="none" stroke="#63b8ff" d="M401.85,-57C356.39,-47 269.65,-27.93 222.63,-17.59"/>
<polygon fill="#63b8ff" stroke="#63b8ff" points="223.2,-14.13 212.68,-15.4 221.69,-20.97 223.2,-14.13"/>
</a>
</g>
</g>
<!-- Node39&#45;&gt;Node32 -->
<g id="edge74_Node000039_Node000032" class="edge">
<title>Node39&#45;&gt;Node32</title>
<g id="a_edge74_Node000039_Node000032"><a xlink:title=" ">
<path fill="none" stroke="#63b8ff" d="M460.96,-54.98C492.58,-45.88 542.84,-31.4 577.38,-21.45"/>
<polygon fill="#63b8ff" stroke="#63b8ff" points="578.48,-24.78 587.12,-18.65 576.54,-18.05 578.48,-24.78"/>
</a>
</g>
</g>
</g>
</svg>
