<?xml version="1.0" encoding="UTF-8" standalone="no"?>
<!DOCTYPE svg PUBLIC "-//W3C//DTD SVG 1.1//EN"
 "http://www.w3.org/Graphics/SVG/1.1/DTD/svg11.dtd">
<!-- Generated by graphviz version 2.43.0 (0)
 -->
<!-- Title: src/app/uvgVPCCencAppExample.cpp Pages: 1 -->
<!--zoomable 137 -->

<svg id="main" version="1.1" xmlns="http://www.w3.org/2000/svg" xmlns:xlink="http://www.w3.org/1999/xlink" xml:space="preserve" onload="init(evt)">
<style type="text/css"><![CDATA[
.node, .edge {opacity: 0.7;}
.node.selected, .edge.selected {opacity: 1;}
.edge:hover path { stroke: red; }
.edge:hover polygon { stroke: red; fill: red; }
]]></style>

<defs>
  <circle id="rim" cx="0" cy="0" r="7"/>
  <circle id="rim2" cx="0" cy="0" r="3.5"/>
  <g id="zoomPlus">
    <use xlink:href="#rim" fill="#404040"><set attributeName="fill" to="#808080" begin="zoomplus.mouseover" end="zoomplus.mouseout"/></use>
    <path d="M-4,0h8M0,-4v8" fill="none" stroke="white" stroke-width="1.5" pointer-events="none"/>
  </g>
  <g id="zoomMin">
    <use xlink:href="#rim" fill="#404040"><set attributeName="fill" to="#808080" begin="zoomminus.mouseover" end="zoomminus.mouseout"/></use>
    <path d="M-4,0h8" fill="none" stroke="white" stroke-width="1.5" pointer-events="none"/>
  </g>
  <g id="arrowUp" transform="translate(30 24)">
    <use xlink:href="#rim"/>
    <path pointer-events="none" fill="none" stroke="white" stroke-width="1.5" d="M0,-3.0v7 M-2.5,-0.5L0,-3.0L2.5,-0.5"/>
  </g>
  <g id="arrowRight" transform="rotate(90) translate(36 -43)">
    <use xlink:href="#rim"/>
    <path pointer-events="none" fill="none" stroke="white" stroke-width="1.5" d="M0,-3.0v7 M-2.5,-0.5L0,-3.0L2.5,-0.5"/>
  </g>
  <g id="arrowDown" transform="rotate(180) translate(-30 -48)">
    <use xlink:href="#rim"/>
    <path pointer-events="none" fill="none" stroke="white" stroke-width="1.5" d="M0,-3.0v7 M-2.5,-0.5L0,-3.0L2.5,-0.5"/>
  </g>
  <g id="arrowLeft" transform="rotate(270) translate(-36 17)">
    <use xlink:href="#rim"/>
    <path pointer-events="none" fill="none" stroke="white" stroke-width="1.5" d="M0,-3.0v7 M-2.5,-0.5L0,-3.0L2.5,-0.5"/>
  </g>
  <g id="resetDef">
    <use xlink:href="#rim2" fill="#404040"><set attributeName="fill" to="#808080" begin="reset.mouseover" end="reset.mouseout"/></use>
  </g>
</defs>
<script type="application/ecmascript">
var viewWidth = 1783;
var viewHeight = 137;
var sectionId = 'dynsection-0';
</script>
<script type="application/ecmascript" xlink:href="svg.min.js"/>
<svg id="graph" class="graph">
<g id="viewport">
<title>src/app/uvgVPCCencAppExample.cpp</title>
<!-- Node1 -->
<g id="Node000001" class="node">
<title>Node1</title>
<g id="a_Node000001"><a xlink:title=" ">
<polygon fill="#999999" stroke="#666666" points="959,-129 761,-129 761,-110 959,-110 959,-129"/>
<text text-anchor="middle" x="860" y="-117" font-family="Helvetica,sans-Serif" font-size="10.00">src/app/uvgVPCCencAppExample.cpp</text>
</a>
</g>
</g>
<!-- Node2 -->
<g id="Node000002" class="node">
<title>Node2</title>
<g id="a_Node000002"><a xlink:title=" ">
<polygon fill="#e0e0e0" stroke="#999999" points="64,-74 0,-74 0,-55 64,-55 64,-74"/>
<text text-anchor="middle" x="32" y="-62" font-family="Helvetica,sans-Serif" font-size="10.00">algorithm</text>
</a>
</g>
</g>
<!-- Node1&#45;&gt;Node2 -->
<g id="edge1_Node000001_Node000002" class="edge">
<title>Node1&#45;&gt;Node2</title>
<g id="a_edge1_Node000001_Node000002"><a xlink:title=" ">
<path fill="none" stroke="#63b8ff" d="M760.79,-117.59C613.1,-115.18 326.61,-106.5 74.25,-73.95"/>
<polygon fill="#63b8ff" stroke="#63b8ff" points="74.52,-70.46 64.15,-72.63 73.62,-77.4 74.52,-70.46"/>
</a>
</g>
</g>
<!-- Node3 -->
<g id="Node000003" class="node">
<title>Node3</title>
<g id="a_Node000003"><a xlink:title=" ">
<polygon fill="#e0e0e0" stroke="#999999" points="124,-74 82,-74 82,-55 124,-55 124,-74"/>
<text text-anchor="middle" x="103" y="-62" font-family="Helvetica,sans-Serif" font-size="10.00">array</text>
</a>
</g>
</g>
<!-- Node1&#45;&gt;Node3 -->
<g id="edge2_Node000001_Node000003" class="edge">
<title>Node1&#45;&gt;Node3</title>
<g id="a_edge2_Node000001_Node000003"><a xlink:title=" ">
<path fill="none" stroke="#63b8ff" d="M760.75,-119.15C622.12,-118.55 362.78,-112 134.34,-73.83"/>
<polygon fill="#63b8ff" stroke="#63b8ff" points="134.62,-70.33 124.18,-72.11 133.45,-77.23 134.62,-70.33"/>
</a>
</g>
</g>
<!-- Node4 -->
<g id="Node000004" class="node">
<title>Node4</title>
<g id="a_Node000004"><a xlink:title=" ">
<polygon fill="#e0e0e0" stroke="#999999" points="194,-74 142,-74 142,-55 194,-55 194,-74"/>
<text text-anchor="middle" x="168" y="-62" font-family="Helvetica,sans-Serif" font-size="10.00">cassert</text>
</a>
</g>
</g>
<!-- Node1&#45;&gt;Node4 -->
<g id="edge3_Node000001_Node000004" class="edge">
<title>Node1&#45;&gt;Node4</title>
<g id="a_edge3_Node000001_Node000004"><a xlink:title=" ">
<path fill="none" stroke="#63b8ff" d="M760.92,-117.04C633.88,-113.99 406.78,-104.57 204.21,-73.91"/>
<polygon fill="#63b8ff" stroke="#63b8ff" points="204.69,-70.45 194.28,-72.39 203.63,-77.37 204.69,-70.45"/>
</a>
</g>
</g>
<!-- Node5 -->
<g id="Node000005" class="node">
<title>Node5</title>
<g id="a_Node000005"><a xlink:title=" ">
<polygon fill="#e0e0e0" stroke="#999999" points="263.5,-74 212.5,-74 212.5,-55 263.5,-55 263.5,-74"/>
<text text-anchor="middle" x="238" y="-62" font-family="Helvetica,sans-Serif" font-size="10.00">csignal</text>
</a>
</g>
</g>
<!-- Node1&#45;&gt;Node5 -->
<g id="edge4_Node000001_Node000005" class="edge">
<title>Node1&#45;&gt;Node5</title>
<g id="a_edge4_Node000001_Node000005"><a xlink:title=" ">
<path fill="none" stroke="#63b8ff" d="M760.96,-114.94C644.79,-109.84 446.64,-98.25 278,-74 276.55,-73.79 275.08,-73.56 273.59,-73.31"/>
<polygon fill="#63b8ff" stroke="#63b8ff" points="274.2,-69.87 263.73,-71.49 272.93,-76.75 274.2,-69.87"/>
</a>
</g>
</g>
<!-- Node6 -->
<g id="Node000006" class="node">
<title>Node6</title>
<g id="a_Node000006"><a xlink:title=" ">
<polygon fill="#e0e0e0" stroke="#999999" points="960.5,-19 907.5,-19 907.5,0 960.5,0 960.5,-19"/>
<text text-anchor="middle" x="934" y="-7" font-family="Helvetica,sans-Serif" font-size="10.00">cstddef</text>
</a>
</g>
</g>
<!-- Node1&#45;&gt;Node6 -->
<g id="edge5_Node000001_Node000006" class="edge">
<title>Node1&#45;&gt;Node6</title>
<g id="a_edge5_Node000001_Node000006"><a xlink:title=" ">
<path fill="none" stroke="#63b8ff" d="M851.64,-109.77C840.48,-97.03 823.42,-72.91 835,-55 842.32,-43.69 872.36,-31.12 897.45,-22.24"/>
<polygon fill="#63b8ff" stroke="#63b8ff" points="898.8,-25.48 907.11,-18.91 896.52,-18.86 898.8,-25.48"/>
</a>
</g>
</g>
<!-- Node7 -->
<g id="Node000007" class="node">
<title>Node7</title>
<g id="a_Node000007"><a xlink:title=" ">
<polygon fill="#e0e0e0" stroke="#999999" points="537,-19 487,-19 487,0 537,0 537,-19"/>
<text text-anchor="middle" x="512" y="-7" font-family="Helvetica,sans-Serif" font-size="10.00">cstdint</text>
</a>
</g>
</g>
<!-- Node1&#45;&gt;Node7 -->
<g id="edge6_Node000001_Node000007" class="edge">
<title>Node1&#45;&gt;Node7</title>
<g id="a_edge6_Node000001_Node000007"><a xlink:title=" ">
<path fill="none" stroke="#63b8ff" d="M760.98,-110.7C713.16,-104.54 655.74,-93.56 607,-74 577.57,-62.19 547.86,-40.37 529.68,-25.65"/>
<polygon fill="#63b8ff" stroke="#63b8ff" points="531.68,-22.75 521.74,-19.06 527.21,-28.14 531.68,-22.75"/>
</a>
</g>
</g>
<!-- Node8 -->
<g id="Node000008" class="node">
<title>Node8</title>
<g id="a_Node000008"><a xlink:title=" ">
<polygon fill="#e0e0e0" stroke="#999999" points="335,-19 289,-19 289,0 335,0 335,-19"/>
<text text-anchor="middle" x="312" y="-7" font-family="Helvetica,sans-Serif" font-size="10.00">cstdio</text>
</a>
</g>
</g>
<!-- Node1&#45;&gt;Node8 -->
<g id="edge7_Node000001_Node000008" class="edge">
<title>Node1&#45;&gt;Node8</title>
<g id="a_edge7_Node000001_Node000008"><a xlink:title=" ">
<path fill="none" stroke="#63b8ff" d="M760.52,-113.39C650.62,-106.87 481.12,-93.99 420,-74 402.25,-68.19 359.7,-41.6 333.62,-24.72"/>
<polygon fill="#63b8ff" stroke="#63b8ff" points="335.44,-21.73 325.15,-19.2 331.62,-27.59 335.44,-21.73"/>
</a>
</g>
</g>
<!-- Node9 -->
<g id="Node000009" class="node">
<title>Node9</title>
<g id="a_Node000009"><a xlink:title=" ">
<polygon fill="#e0e0e0" stroke="#999999" points="1185.5,-74 1136.5,-74 1136.5,-55 1185.5,-55 1185.5,-74"/>
<text text-anchor="middle" x="1161" y="-62" font-family="Helvetica,sans-Serif" font-size="10.00">cstdlib</text>
</a>
</g>
</g>
<!-- Node1&#45;&gt;Node9 -->
<g id="edge8_Node000001_Node000009" class="edge">
<title>Node1&#45;&gt;Node9</title>
<g id="a_edge8_Node000001_Node000009"><a xlink:title=" ">
<path fill="none" stroke="#63b8ff" d="M914.58,-109.99C967.67,-101.53 1050.55,-87.85 1122,-74 1123.45,-73.72 1124.92,-73.43 1126.41,-73.13"/>
<polygon fill="#63b8ff" stroke="#63b8ff" points="1127.2,-76.54 1136.28,-71.07 1125.77,-69.68 1127.2,-76.54"/>
</a>
</g>
</g>
<!-- Node10 -->
<g id="Node000010" class="node">
<title>Node10</title>
<g id="a_Node000010"><a xlink:title=" ">
<polygon fill="#e0e0e0" stroke="#999999" points="1268.5,-74 1203.5,-74 1203.5,-55 1268.5,-55 1268.5,-74"/>
<text text-anchor="middle" x="1236" y="-62" font-family="Helvetica,sans-Serif" font-size="10.00">exception</text>
</a>
</g>
</g>
<!-- Node1&#45;&gt;Node10 -->
<g id="edge9_Node000001_Node000010" class="edge">
<title>Node1&#45;&gt;Node10</title>
<g id="a_edge9_Node000001_Node000010"><a xlink:title=" ">
<path fill="none" stroke="#63b8ff" d="M936.07,-109.99C1001.8,-102.26 1099.54,-89.91 1193.42,-74.17"/>
<polygon fill="#63b8ff" stroke="#63b8ff" points="1194.09,-77.61 1203.37,-72.49 1192.92,-70.71 1194.09,-77.61"/>
</a>
</g>
</g>
<!-- Node11 -->
<g id="Node000011" class="node">
<title>Node11</title>
<g id="a_Node000011"><a xlink:title=" ">
<polygon fill="#e0e0e0" stroke="#999999" points="1341.5,-74 1286.5,-74 1286.5,-55 1341.5,-55 1341.5,-74"/>
<text text-anchor="middle" x="1314" y="-62" font-family="Helvetica,sans-Serif" font-size="10.00">fstream</text>
</a>
</g>
</g>
<!-- Node1&#45;&gt;Node11 -->
<g id="edge10_Node000001_Node000011" class="edge">
<title>Node1&#45;&gt;Node11</title>
<g id="a_edge10_Node000001_Node000011"><a xlink:title=" ">
<path fill="none" stroke="#63b8ff" d="M959.3,-111.47C1041.89,-104.8 1162.66,-93.15 1276.25,-74.12"/>
<polygon fill="#63b8ff" stroke="#63b8ff" points="1276.89,-77.56 1286.16,-72.44 1275.72,-70.66 1276.89,-77.56"/>
</a>
</g>
</g>
<!-- Node12 -->
<g id="Node000012" class="node">
<title>Node12</title>
<g id="a_Node000012"><a xlink:title=" ">
<polygon fill="#e0e0e0" stroke="#999999" points="889,-19 829,-19 829,0 889,0 889,-19"/>
<text text-anchor="middle" x="859" y="-7" font-family="Helvetica,sans-Serif" font-size="10.00">iostream</text>
</a>
</g>
</g>
<!-- Node1&#45;&gt;Node12 -->
<g id="edge11_Node000001_Node000012" class="edge">
<title>Node1&#45;&gt;Node12</title>
<g id="a_edge11_Node000001_Node000012"><a xlink:title=" ">
<path fill="none" stroke="#63b8ff" d="M841.33,-109.97C827.67,-102.59 810.14,-90.5 802,-74 792.27,-54.27 813,-36.07 832.13,-24.25"/>
<polygon fill="#63b8ff" stroke="#63b8ff" points="834.07,-27.18 840.98,-19.14 830.57,-21.12 834.07,-27.18"/>
</a>
</g>
</g>
<!-- Node13 -->
<g id="Node000013" class="node">
<title>Node13</title>
<g id="a_Node000013"><a xlink:title=" ">
<polygon fill="#e0e0e0" stroke="#999999" points="1412.5,-74 1359.5,-74 1359.5,-55 1412.5,-55 1412.5,-74"/>
<text text-anchor="middle" x="1386" y="-62" font-family="Helvetica,sans-Serif" font-size="10.00">iterator</text>
</a>
</g>
</g>
<!-- Node1&#45;&gt;Node13 -->
<g id="edge12_Node000001_Node000013" class="edge">
<title>Node1&#45;&gt;Node13</title>
<g id="a_edge12_Node000001_Node000013"><a xlink:title=" ">
<path fill="none" stroke="#63b8ff" d="M959.29,-113.82C1056.53,-108.24 1208.97,-96.88 1349.25,-74.07"/>
<polygon fill="#63b8ff" stroke="#63b8ff" points="1350.03,-77.49 1359.33,-72.41 1348.89,-70.58 1350.03,-77.49"/>
</a>
</g>
</g>
<!-- Node14 -->
<g id="Node000014" class="node">
<title>Node14</title>
<g id="a_Node000014"><a xlink:title=" ">
<polygon fill="#e0e0e0" stroke="#999999" points="1102,-19 1044,-19 1044,0 1102,0 1102,-19"/>
<text text-anchor="middle" x="1073" y="-7" font-family="Helvetica,sans-Serif" font-size="10.00">memory</text>
</a>
</g>
</g>
<!-- Node1&#45;&gt;Node14 -->
<g id="edge13_Node000001_Node000014" class="edge">
<title>Node1&#45;&gt;Node14</title>
<g id="a_edge13_Node000001_Node000014"><a xlink:title=" ">
<path fill="none" stroke="#63b8ff" d="M886.7,-109.92C910.45,-101.88 945.83,-88.89 975,-74 1003.37,-59.52 1033.83,-38.89 1053.13,-25.12"/>
<polygon fill="#63b8ff" stroke="#63b8ff" points="1055.35,-27.84 1061.41,-19.14 1051.25,-22.16 1055.35,-27.84"/>
</a>
</g>
</g>
<!-- Node15 -->
<g id="Node000015" class="node">
<title>Node15</title>
<g id="a_Node000015"><a xlink:title=" ">
<polygon fill="#e0e0e0" stroke="#999999" points="1475,-74 1431,-74 1431,-55 1475,-55 1475,-74"/>
<text text-anchor="middle" x="1453" y="-62" font-family="Helvetica,sans-Serif" font-size="10.00">regex</text>
</a>
</g>
</g>
<!-- Node1&#45;&gt;Node15 -->
<g id="edge14_Node000001_Node000015" class="edge">
<title>Node1&#45;&gt;Node15</title>
<g id="a_edge14_Node000001_Node000015"><a xlink:title=" ">
<path fill="none" stroke="#63b8ff" d="M959.18,-116.29C1069.83,-112.55 1254.11,-102.51 1420.82,-73.87"/>
<polygon fill="#63b8ff" stroke="#63b8ff" points="1421.51,-77.3 1430.76,-72.14 1420.31,-70.41 1421.51,-77.3"/>
</a>
</g>
</g>
<!-- Node16 -->
<g id="Node000016" class="node">
<title>Node16</title>
<g id="a_Node000016"><a xlink:title=" ">
<polygon fill="#e0e0e0" stroke="#999999" points="1191.5,-19 1120.5,-19 1120.5,0 1191.5,0 1191.5,-19"/>
<text text-anchor="middle" x="1156" y="-7" font-family="Helvetica,sans-Serif" font-size="10.00">semaphore</text>
</a>
</g>
</g>
<!-- Node1&#45;&gt;Node16 -->
<g id="edge15_Node000001_Node000016" class="edge">
<title>Node1&#45;&gt;Node16</title>
<g id="a_edge15_Node000001_Node000016"><a xlink:title=" ">
<path fill="none" stroke="#63b8ff" d="M891.13,-109.93C920.7,-101.55 966.26,-88.05 1005,-74 1048.48,-58.23 1097.65,-36.87 1127.74,-23.39"/>
<polygon fill="#63b8ff" stroke="#63b8ff" points="1129.49,-26.44 1137.17,-19.14 1126.62,-20.05 1129.49,-26.44"/>
</a>
</g>
</g>
<!-- Node17 -->
<g id="Node000017" class="node">
<title>Node17</title>
<g id="a_Node000017"><a xlink:title=" ">
<polygon fill="#e0e0e0" stroke="#999999" points="209,-19 169,-19 169,0 209,0 209,-19"/>
<text text-anchor="middle" x="189" y="-7" font-family="Helvetica,sans-Serif" font-size="10.00">span</text>
</a>
</g>
</g>
<!-- Node1&#45;&gt;Node17 -->
<g id="edge16_Node000001_Node000017" class="edge">
<title>Node1&#45;&gt;Node17</title>
<g id="a_edge16_Node000001_Node000017"><a xlink:title=" ">
<path fill="none" stroke="#63b8ff" d="M760.94,-115.18C626.26,-109.87 392.78,-97.55 311,-74 305.86,-72.52 248.16,-42.01 213.99,-23.83"/>
<polygon fill="#63b8ff" stroke="#63b8ff" points="215.51,-20.67 205.04,-19.06 212.22,-26.85 215.51,-20.67"/>
</a>
</g>
</g>
<!-- Node18 -->
<g id="Node000018" class="node">
<title>Node18</title>
<g id="a_Node000018"><a xlink:title=" ">
<polygon fill="#e0e0e0" stroke="#999999" points="1266,-19 1210,-19 1210,0 1266,0 1266,-19"/>
<text text-anchor="middle" x="1238" y="-7" font-family="Helvetica,sans-Serif" font-size="10.00">sstream</text>
</a>
</g>
</g>
<!-- Node1&#45;&gt;Node18 -->
<g id="edge17_Node000001_Node000018" class="edge">
<title>Node1&#45;&gt;Node18</title>
<g id="a_edge17_Node000001_Node000018"><a xlink:title=" ">
<path fill="none" stroke="#63b8ff" d="M900.47,-109.95C937.58,-101.8 993.92,-88.61 1042,-74 1065.54,-66.84 1070.68,-62.86 1094,-55 1129.82,-42.93 1171.07,-30.31 1200.22,-21.61"/>
<polygon fill="#63b8ff" stroke="#63b8ff" points="1201.4,-24.9 1209.99,-18.7 1199.41,-18.2 1201.4,-24.9"/>
</a>
</g>
</g>
<!-- Node19 -->
<g id="Node000019" class="node">
<title>Node19</title>
<g id="a_Node000019"><a xlink:title=" ">
<polygon fill="#e0e0e0" stroke="#999999" points="1558.5,-74 1493.5,-74 1493.5,-55 1558.5,-55 1558.5,-74"/>
<text text-anchor="middle" x="1526" y="-62" font-family="Helvetica,sans-Serif" font-size="10.00">stdexcept</text>
</a>
</g>
</g>
<!-- Node1&#45;&gt;Node19 -->
<g id="edge18_Node000001_Node000019" class="edge">
<title>Node1&#45;&gt;Node19</title>
<g id="a_edge18_Node000001_Node000019"><a xlink:title=" ">
<path fill="none" stroke="#63b8ff" d="M959.02,-115.37C1080.32,-110.64 1292.18,-99.52 1483.11,-73.93"/>
<polygon fill="#63b8ff" stroke="#63b8ff" points="1483.61,-77.4 1493.05,-72.58 1482.67,-70.46 1483.61,-77.4"/>
</a>
</g>
</g>
<!-- Node20 -->
<g id="Node000020" class="node">
<title>Node20</title>
<g id="a_Node000020"><a xlink:title=" ">
<polygon fill="#e0e0e0" stroke="#999999" points="397,-19 353,-19 353,0 397,0 397,-19"/>
<text text-anchor="middle" x="375" y="-7" font-family="Helvetica,sans-Serif" font-size="10.00">string</text>
</a>
</g>
</g>
<!-- Node1&#45;&gt;Node20 -->
<g id="edge19_Node000001_Node000020" class="edge">
<title>Node1&#45;&gt;Node20</title>
<g id="a_edge19_Node000001_Node000020"><a xlink:title=" ">
<path fill="none" stroke="#63b8ff" d="M761,-113.91C659.31,-108.08 508.56,-96.03 455,-74 429.26,-63.42 405.02,-41.94 390.1,-26.91"/>
<polygon fill="#63b8ff" stroke="#63b8ff" points="392.28,-24.12 382.83,-19.33 387.23,-28.97 392.28,-24.12"/>
</a>
</g>
</g>
<!-- Node21 -->
<g id="Node000021" class="node">
<title>Node21</title>
<g id="a_Node000021"><a xlink:title=" ">
<polygon fill="#e0e0e0" stroke="#999999" points="1625,-74 1577,-74 1577,-55 1625,-55 1625,-74"/>
<text text-anchor="middle" x="1601" y="-62" font-family="Helvetica,sans-Serif" font-size="10.00">thread</text>
</a>
</g>
</g>
<!-- Node1&#45;&gt;Node21 -->
<g id="edge20_Node000001_Node000021" class="edge">
<title>Node1&#45;&gt;Node21</title>
<g id="a_edge20_Node000001_Node000021"><a xlink:title=" ">
<path fill="none" stroke="#63b8ff" d="M959.15,-118.17C1094.59,-116.39 1344.98,-108.42 1566.76,-73.87"/>
<polygon fill="#63b8ff" stroke="#63b8ff" points="1567.63,-77.27 1576.96,-72.25 1566.54,-70.36 1567.63,-77.27"/>
</a>
</g>
</g>
<!-- Node22 -->
<g id="Node000022" class="node">
<title>Node22</title>
<g id="a_Node000022"><a xlink:title=" ">
<polygon fill="#e0e0e0" stroke="#999999" points="1688.5,-74 1643.5,-74 1643.5,-55 1688.5,-55 1688.5,-74"/>
<text text-anchor="middle" x="1666" y="-62" font-family="Helvetica,sans-Serif" font-size="10.00">utility</text>
</a>
</g>
</g>
<!-- Node1&#45;&gt;Node22 -->
<g id="edge21_Node000001_Node000022" class="edge">
<title>Node1&#45;&gt;Node22</title>
<g id="a_edge21_Node000001_Node000022"><a xlink:title=" ">
<path fill="none" stroke="#63b8ff" d="M959.04,-119.18C1104.97,-118.77 1386.23,-112.57 1633.5,-73.69"/>
<polygon fill="#63b8ff" stroke="#63b8ff" points="1634.07,-77.14 1643.4,-72.11 1632.97,-70.23 1634.07,-77.14"/>
</a>
</g>
</g>
<!-- Node23 -->
<g id="Node000023" class="node">
<title>Node23</title>
<g id="a_Node000023"><a xlink:title=" ">
<polygon fill="#e0e0e0" stroke="#999999" points="810.5,-19 763.5,-19 763.5,0 810.5,0 810.5,-19"/>
<text text-anchor="middle" x="787" y="-7" font-family="Helvetica,sans-Serif" font-size="10.00">vector</text>
</a>
</g>
</g>
<!-- Node1&#45;&gt;Node23 -->
<g id="edge22_Node000001_Node000023" class="edge">
<title>Node1&#45;&gt;Node23</title>
<g id="a_edge22_Node000001_Node000023"><a xlink:title=" ">
<path fill="none" stroke="#63b8ff" d="M839.84,-109.93C825.19,-102.6 806.22,-90.59 796,-74 787.78,-60.65 785.88,-42.79 785.83,-29.4"/>
<polygon fill="#63b8ff" stroke="#63b8ff" points="789.34,-29.13 786.16,-19.02 782.35,-28.91 789.34,-29.13"/>
</a>
</g>
</g>
<!-- Node24 -->
<g id="Node000024" class="node">
<title>Node24</title>
<g id="a_Node000024"><a xlink:title=" ">
<polygon fill="#e0e0e0" stroke="#999999" points="1775,-74 1707,-74 1707,-55 1775,-55 1775,-74"/>
<text text-anchor="middle" x="1741" y="-62" font-family="Helvetica,sans-Serif" font-size="10.00">filesystem</text>
</a>
</g>
</g>
<!-- Node1&#45;&gt;Node24 -->
<g id="edge23_Node000001_Node000024" class="edge">
<title>Node1&#45;&gt;Node24</title>
<g id="a_edge23_Node000001_Node000024"><a xlink:title=" ">
<path fill="none" stroke="#63b8ff" d="M959.09,-117.79C1114.4,-115.66 1424.66,-107.35 1696.73,-73.96"/>
<polygon fill="#63b8ff" stroke="#63b8ff" points="1697.31,-77.42 1706.8,-72.72 1696.45,-70.47 1697.31,-77.42"/>
</a>
</g>
</g>
<!-- Node25 -->
<g id="Node000025" class="node">
<title>Node25</title>
<g id="a_Node000025"><a xlink:title=" ">
<polygon fill="#e0e0e0" stroke="#999999" points="1376,-19 1284,-19 1284,0 1376,0 1376,-19"/>
<text text-anchor="middle" x="1330" y="-7" font-family="Helvetica,sans-Serif" font-size="10.00">../utils/utils.hpp</text>
</a>
</g>
</g>
<!-- Node1&#45;&gt;Node25 -->
<g id="edge24_Node000001_Node000025" class="edge">
<title>Node1&#45;&gt;Node25</title>
<g id="a_edge24_Node000001_Node000025"><a xlink:title=" ">
<path fill="none" stroke="#63b8ff" d="M918.26,-110C963.48,-102.64 1027.46,-90.56 1082,-74 1103.17,-67.57 1106.9,-61.63 1128,-55 1176.32,-39.83 1232.72,-27.86 1273.62,-20.18"/>
<polygon fill="#63b8ff" stroke="#63b8ff" points="1274.47,-23.58 1283.67,-18.32 1273.2,-16.7 1274.47,-23.58"/>
</a>
</g>
</g>
<!-- Node26 -->
<g id="Node000026" class="node">
<title>Node26</title>
<g id="a_Node000026"><a xlink:href="cli_8hpp.html" target="_top" xlink:title=" ">
<polygon fill="white" stroke="#666666" points="369.5,-74 320.5,-74 320.5,-55 369.5,-55 369.5,-74"/>
<text text-anchor="middle" x="345" y="-62" font-family="Helvetica,sans-Serif" font-size="10.00">cli.hpp</text>
</a>
</g>
</g>
<!-- Node1&#45;&gt;Node26 -->
<g id="edge25_Node000001_Node000026" class="edge">
<title>Node1&#45;&gt;Node26</title>
<g id="a_edge25_Node000001_Node000026"><a xlink:title=" ">
<path fill="none" stroke="#63b8ff" d="M760.65,-112.74C664.06,-106.3 513.38,-94.07 384,-74 382.54,-73.77 381.06,-73.53 379.57,-73.26"/>
<polygon fill="#63b8ff" stroke="#63b8ff" points="380.16,-69.81 369.67,-71.35 378.83,-76.69 380.16,-69.81"/>
</a>
</g>
</g>
<!-- Node28 -->
<g id="Node000028" class="node">
<title>Node28</title>
<g id="a_Node000028"><a xlink:href="miniply_8h.html" target="_top" xlink:title=" ">
<polygon fill="white" stroke="#666666" points="559.5,-74 464.5,-74 464.5,-55 559.5,-55 559.5,-74"/>
<text text-anchor="middle" x="512" y="-62" font-family="Helvetica,sans-Serif" font-size="10.00">extras/miniply.h</text>
</a>
</g>
</g>
<!-- Node1&#45;&gt;Node28 -->
<g id="edge29_Node000001_Node000028" class="edge">
<title>Node1&#45;&gt;Node28</title>
<g id="a_edge29_Node000001_Node000028"><a xlink:title=" ">
<path fill="none" stroke="#63b8ff" d="M804.09,-109.98C739.8,-100.19 634.79,-84.2 569.74,-74.29"/>
<polygon fill="#63b8ff" stroke="#63b8ff" points="570.07,-70.8 559.66,-72.76 569.02,-77.72 570.07,-70.8"/>
</a>
</g>
</g>
<!-- Node30 -->
<g id="Node000030" class="node">
<title>Node30</title>
<g id="a_Node000030"><a xlink:href="log_8hpp.html" target="_top" xlink:title=" ">
<polygon fill="white" stroke="#666666" points="712,-74 616,-74 616,-55 712,-55 712,-74"/>
<text text-anchor="middle" x="664" y="-62" font-family="Helvetica,sans-Serif" font-size="10.00">uvgvpcc/log.hpp</text>
</a>
</g>
</g>
<!-- Node1&#45;&gt;Node30 -->
<g id="edge35_Node000001_Node000030" class="edge">
<title>Node1&#45;&gt;Node30</title>
<g id="a_edge35_Node000001_Node000030"><a xlink:title=" ">
<path fill="none" stroke="#63b8ff" d="M828.51,-109.98C795.18,-100.97 742.4,-86.7 705.65,-76.76"/>
<polygon fill="#63b8ff" stroke="#63b8ff" points="706.3,-73.31 695.74,-74.08 704.48,-80.07 706.3,-73.31"/>
</a>
</g>
</g>
<!-- Node34 -->
<g id="Node000034" class="node">
<title>Node34</title>
<g id="a_Node000034"><a xlink:href="uvgvpcc_8hpp.html" target="_top" xlink:title=" ">
<polygon fill="white" stroke="#666666" points="966,-74 844,-74 844,-55 966,-55 966,-74"/>
<text text-anchor="middle" x="905" y="-62" font-family="Helvetica,sans-Serif" font-size="10.00">uvgvpcc/uvgvpcc.hpp</text>
</a>
</g>
</g>
<!-- Node1&#45;&gt;Node34 -->
<g id="edge42_Node000001_Node000034" class="edge">
<title>Node1&#45;&gt;Node34</title>
<g id="a_edge42_Node000001_Node000034"><a xlink:title=" ">
<path fill="none" stroke="#63b8ff" d="M867.43,-109.75C873.85,-102.18 883.31,-91.05 891.12,-81.84"/>
<polygon fill="#63b8ff" stroke="#63b8ff" points="893.9,-83.98 897.71,-74.09 888.57,-79.45 893.9,-83.98"/>
</a>
</g>
</g>
<!-- Node26&#45;&gt;Node17 -->
<g id="edge28_Node000026_Node000017" class="edge">
<title>Node26&#45;&gt;Node17</title>
<g id="a_edge28_Node000026_Node000017"><a xlink:title=" ">
<path fill="none" stroke="#63b8ff" d="M320.28,-55.1C292.77,-45.75 248.31,-30.65 218.87,-20.65"/>
<polygon fill="#63b8ff" stroke="#63b8ff" points="219.73,-17.24 209.14,-17.34 217.48,-23.87 219.73,-17.24"/>
</a>
</g>
</g>
<!-- Node26&#45;&gt;Node20 -->
<g id="edge27_Node000026_Node000020" class="edge">
<title>Node26&#45;&gt;Node20</title>
<g id="a_edge27_Node000026_Node000020"><a xlink:title=" ">
<path fill="none" stroke="#63b8ff" d="M349.95,-54.75C354.06,-47.49 360.03,-36.95 365.1,-27.98"/>
<polygon fill="#63b8ff" stroke="#63b8ff" points="368.26,-29.52 370.14,-19.09 362.17,-26.07 368.26,-29.52"/>
</a>
</g>
</g>
<!-- Node27 -->
<g id="Node000027" class="node">
<title>Node27</title>
<g id="a_Node000027"><a xlink:title=" ">
<polygon fill="#e0e0e0" stroke="#999999" points="271,-19 227,-19 227,0 271,0 271,-19"/>
<text text-anchor="middle" x="249" y="-7" font-family="Helvetica,sans-Serif" font-size="10.00">limits</text>
</a>
</g>
</g>
<!-- Node26&#45;&gt;Node27 -->
<g id="edge26_Node000026_Node000027" class="edge">
<title>Node26&#45;&gt;Node27</title>
<g id="a_edge26_Node000026_Node000027"><a xlink:title=" ">
<path fill="none" stroke="#63b8ff" d="M329.58,-54.98C314.55,-46.69 291.46,-33.94 273.84,-24.22"/>
<polygon fill="#63b8ff" stroke="#63b8ff" points="275.15,-20.94 264.7,-19.17 271.77,-27.07 275.15,-20.94"/>
</a>
</g>
</g>
<!-- Node28&#45;&gt;Node7 -->
<g id="edge31_Node000028_Node000007" class="edge">
<title>Node28&#45;&gt;Node7</title>
<g id="a_edge31_Node000028_Node000007"><a xlink:title=" ">
<path fill="none" stroke="#63b8ff" d="M512,-54.75C512,-47.8 512,-37.85 512,-29.13"/>
<polygon fill="#63b8ff" stroke="#63b8ff" points="515.5,-29.09 512,-19.09 508.5,-29.09 515.5,-29.09"/>
</a>
</g>
</g>
<!-- Node28&#45;&gt;Node8 -->
<g id="edge32_Node000028_Node000008" class="edge">
<title>Node28&#45;&gt;Node8</title>
<g id="a_edge32_Node000028_Node000008"><a xlink:title=" ">
<path fill="none" stroke="#63b8ff" d="M479.79,-54.98C447.95,-46.55 397.59,-33.21 344.93,-19.24"/>
<polygon fill="#63b8ff" stroke="#63b8ff" points="345.63,-15.81 335.07,-16.63 343.84,-22.58 345.63,-15.81"/>
</a>
</g>
</g>
<!-- Node28&#45;&gt;Node20 -->
<g id="edge33_Node000028_Node000020" class="edge">
<title>Node28&#45;&gt;Node20</title>
<g id="a_edge33_Node000028_Node000020"><a xlink:title=" ">
<path fill="none" stroke="#63b8ff" d="M489.99,-54.98C467.55,-46.3 432.52,-32.75 407.01,-22.88"/>
<polygon fill="#63b8ff" stroke="#63b8ff" points="408,-19.51 397.41,-19.17 405.48,-26.04 408,-19.51"/>
</a>
</g>
</g>
<!-- Node28&#45;&gt;Node23 -->
<g id="edge34_Node000028_Node000023" class="edge">
<title>Node28&#45;&gt;Node23</title>
<g id="a_edge34_Node000028_Node000023"><a xlink:title=" ">
<path fill="none" stroke="#63b8ff" d="M559.95,-55.7C606.82,-47.86 680.38,-34.93 753.42,-18.99"/>
<polygon fill="#63b8ff" stroke="#63b8ff" points="754.24,-22.4 763.25,-16.83 752.74,-15.56 754.24,-22.4"/>
</a>
</g>
</g>
<!-- Node29 -->
<g id="Node000029" class="node">
<title>Node29</title>
<g id="a_Node000029"><a xlink:title=" ">
<polygon fill="#e0e0e0" stroke="#999999" points="468.5,-19 415.5,-19 415.5,0 468.5,0 468.5,-19"/>
<text text-anchor="middle" x="442" y="-7" font-family="Helvetica,sans-Serif" font-size="10.00">cstdarg</text>
</a>
</g>
</g>
<!-- Node28&#45;&gt;Node29 -->
<g id="edge30_Node000028_Node000029" class="edge">
<title>Node28&#45;&gt;Node29</title>
<g id="a_edge30_Node000028_Node000029"><a xlink:title=" ">
<path fill="none" stroke="#63b8ff" d="M500.75,-54.98C490.2,-47 474.2,-34.88 461.56,-25.31"/>
<polygon fill="#63b8ff" stroke="#63b8ff" points="463.54,-22.42 453.45,-19.17 459.31,-28 463.54,-22.42"/>
</a>
</g>
</g>
<!-- Node30&#45;&gt;Node12 -->
<g id="edge39_Node000030_Node000012" class="edge">
<title>Node30&#45;&gt;Node12</title>
<g id="a_edge39_Node000030_Node000012"><a xlink:title=" ">
<path fill="none" stroke="#63b8ff" d="M695.33,-54.98C728.89,-45.86 782.24,-31.36 818.86,-21.41"/>
<polygon fill="#63b8ff" stroke="#63b8ff" points="819.98,-24.73 828.71,-18.73 818.14,-17.98 819.98,-24.73"/>
</a>
</g>
</g>
<!-- Node30&#45;&gt;Node20 -->
<g id="edge40_Node000030_Node000020" class="edge">
<title>Node30&#45;&gt;Node20</title>
<g id="a_edge40_Node000030_Node000020"><a xlink:title=" ">
<path fill="none" stroke="#63b8ff" d="M615.7,-56.6C565.79,-49.15 485.46,-36.27 407.3,-19.11"/>
<polygon fill="#63b8ff" stroke="#63b8ff" points="407.81,-15.64 397.29,-16.89 406.29,-22.47 407.81,-15.64"/>
</a>
</g>
</g>
<!-- Node30&#45;&gt;Node29 -->
<g id="edge37_Node000030_Node000029" class="edge">
<title>Node30&#45;&gt;Node29</title>
<g id="a_edge37_Node000030_Node000029"><a xlink:title=" ">
<path fill="none" stroke="#63b8ff" d="M628.33,-54.98C587.2,-45.17 519.95,-29.11 478.48,-19.21"/>
<polygon fill="#63b8ff" stroke="#63b8ff" points="479.06,-15.75 468.52,-16.83 477.44,-22.56 479.06,-15.75"/>
</a>
</g>
</g>
<!-- Node31 -->
<g id="Node000031" class="node">
<title>Node31</title>
<g id="a_Node000031"><a xlink:title=" ">
<polygon fill="#e0e0e0" stroke="#999999" points="605,-19 555,-19 555,0 605,0 605,-19"/>
<text text-anchor="middle" x="580" y="-7" font-family="Helvetica,sans-Serif" font-size="10.00">chrono</text>
</a>
</g>
</g>
<!-- Node30&#45;&gt;Node31 -->
<g id="edge36_Node000030_Node000031" class="edge">
<title>Node30&#45;&gt;Node31</title>
<g id="a_edge36_Node000030_Node000031"><a xlink:title=" ">
<path fill="none" stroke="#63b8ff" d="M650.5,-54.98C637.6,-46.84 617.9,-34.41 602.6,-24.76"/>
<polygon fill="#63b8ff" stroke="#63b8ff" points="604.07,-21.55 593.74,-19.17 600.33,-27.47 604.07,-21.55"/>
</a>
</g>
</g>
<!-- Node32 -->
<g id="Node000032" class="node">
<title>Node32</title>
<g id="a_Node000032"><a xlink:title=" ">
<polygon fill="#e0e0e0" stroke="#999999" points="679,-19 623,-19 623,0 679,0 679,-19"/>
<text text-anchor="middle" x="651" y="-7" font-family="Helvetica,sans-Serif" font-size="10.00">iomanip</text>
</a>
</g>
</g>
<!-- Node30&#45;&gt;Node32 -->
<g id="edge38_Node000030_Node000032" class="edge">
<title>Node30&#45;&gt;Node32</title>
<g id="a_edge38_Node000030_Node000032"><a xlink:title=" ">
<path fill="none" stroke="#63b8ff" d="M661.85,-54.75C660.13,-47.72 657.65,-37.62 655.5,-28.84"/>
<polygon fill="#63b8ff" stroke="#63b8ff" points="658.89,-27.97 653.11,-19.09 652.09,-29.63 658.89,-27.97"/>
</a>
</g>
</g>
<!-- Node33 -->
<g id="Node000033" class="node">
<title>Node33</title>
<g id="a_Node000033"><a xlink:title=" ">
<polygon fill="#e0e0e0" stroke="#999999" points="745,-19 697,-19 697,0 745,0 745,-19"/>
<text text-anchor="middle" x="721" y="-7" font-family="Helvetica,sans-Serif" font-size="10.00">mutex</text>
</a>
</g>
</g>
<!-- Node30&#45;&gt;Node33 -->
<g id="edge41_Node000030_Node000033" class="edge">
<title>Node30&#45;&gt;Node33</title>
<g id="a_edge41_Node000030_Node000033"><a xlink:title=" ">
<path fill="none" stroke="#63b8ff" d="M673.16,-54.98C681.5,-47.23 694.03,-35.58 704.18,-26.14"/>
<polygon fill="#63b8ff" stroke="#63b8ff" points="706.74,-28.54 711.68,-19.17 701.97,-23.42 706.74,-28.54"/>
</a>
</g>
</g>
<!-- Node34&#45;&gt;Node6 -->
<g id="edge43_Node000034_Node000006" class="edge">
<title>Node34&#45;&gt;Node6</title>
<g id="a_edge43_Node000034_Node000006"><a xlink:title=" ">
<path fill="none" stroke="#63b8ff" d="M909.79,-54.75C913.76,-47.49 919.53,-36.95 924.43,-27.98"/>
<polygon fill="#63b8ff" stroke="#63b8ff" points="927.57,-29.54 929.3,-19.09 921.43,-26.18 927.57,-29.54"/>
</a>
</g>
</g>
<!-- Node34&#45;&gt;Node7 -->
<g id="edge44_Node000034_Node000007" class="edge">
<title>Node34&#45;&gt;Node7</title>
<g id="a_edge44_Node000034_Node000007"><a xlink:title=" ">
<path fill="none" stroke="#63b8ff" d="M843.99,-58.22C774.38,-51.68 657.01,-39.11 547.11,-19"/>
<polygon fill="#63b8ff" stroke="#63b8ff" points="547.65,-15.54 537.18,-17.16 546.37,-22.42 547.65,-15.54"/>
</a>
</g>
</g>
<!-- Node34&#45;&gt;Node12 -->
<g id="edge45_Node000034_Node000012" class="edge">
<title>Node34&#45;&gt;Node12</title>
<g id="a_edge45_Node000034_Node000012"><a xlink:title=" ">
<path fill="none" stroke="#63b8ff" d="M897.4,-54.75C890.84,-47.18 881.18,-36.05 873.19,-26.84"/>
<polygon fill="#63b8ff" stroke="#63b8ff" points="875.65,-24.35 866.45,-19.09 870.37,-28.94 875.65,-24.35"/>
</a>
</g>
</g>
<!-- Node34&#45;&gt;Node14 -->
<g id="edge46_Node000034_Node000014" class="edge">
<title>Node34&#45;&gt;Node14</title>
<g id="a_edge46_Node000034_Node000014"><a xlink:title=" ">
<path fill="none" stroke="#63b8ff" d="M931.99,-54.98C960.2,-46.09 1004.64,-32.07 1036.08,-22.15"/>
<polygon fill="#63b8ff" stroke="#63b8ff" points="1037.31,-25.43 1045.8,-19.08 1035.21,-18.75 1037.31,-25.43"/>
</a>
</g>
</g>
<!-- Node34&#45;&gt;Node16 -->
<g id="edge48_Node000034_Node000016" class="edge">
<title>Node34&#45;&gt;Node16</title>
<g id="a_edge48_Node000034_Node000016"><a xlink:title=" ">
<path fill="none" stroke="#63b8ff" d="M945.33,-54.98C990.39,-45.47 1063.18,-30.1 1110.31,-20.15"/>
<polygon fill="#63b8ff" stroke="#63b8ff" points="1111.18,-23.54 1120.24,-18.05 1109.74,-16.69 1111.18,-23.54"/>
</a>
</g>
</g>
<!-- Node34&#45;&gt;Node18 -->
<g id="edge49_Node000034_Node000018" class="edge">
<title>Node34&#45;&gt;Node18</title>
<g id="a_edge49_Node000034_Node000018"><a xlink:title=" ">
<path fill="none" stroke="#63b8ff" d="M966.17,-55.7C1023.96,-48.01 1113.27,-35.32 1199.78,-19.11"/>
<polygon fill="#63b8ff" stroke="#63b8ff" points="1200.59,-22.52 1209.77,-17.22 1199.29,-15.64 1200.59,-22.52"/>
</a>
</g>
</g>
<!-- Node34&#45;&gt;Node20 -->
<g id="edge50_Node000034_Node000020" class="edge">
<title>Node34&#45;&gt;Node20</title>
<g id="a_edge50_Node000034_Node000020"><a xlink:title=" ">
<path fill="none" stroke="#63b8ff" d="M843.85,-61.56C751.24,-57.86 569.85,-47.58 407.42,-18.93"/>
<polygon fill="#63b8ff" stroke="#63b8ff" points="407.7,-15.43 397.24,-17.11 406.47,-22.32 407.7,-15.43"/>
</a>
</g>
</g>
<!-- Node34&#45;&gt;Node23 -->
<g id="edge51_Node000034_Node000023" class="edge">
<title>Node34&#45;&gt;Node23</title>
<g id="a_edge51_Node000034_Node000023"><a xlink:title=" ">
<path fill="none" stroke="#63b8ff" d="M886.04,-54.98C866.97,-46.42 837.34,-33.11 815.45,-23.28"/>
<polygon fill="#63b8ff" stroke="#63b8ff" points="816.86,-20.07 806.3,-19.17 813.99,-26.46 816.86,-20.07"/>
</a>
</g>
</g>
<!-- Node34&#45;&gt;Node25 -->
<g id="edge52_Node000034_Node000025" class="edge">
<title>Node34&#45;&gt;Node25</title>
<g id="a_edge52_Node000034_Node000025"><a xlink:title=" ">
<path fill="none" stroke="#63b8ff" d="M966.3,-56.77C1037.67,-48.78 1159.38,-34.73 1273.82,-19.12"/>
<polygon fill="#63b8ff" stroke="#63b8ff" points="1274.37,-22.58 1283.8,-17.75 1273.42,-15.64 1274.37,-22.58"/>
</a>
</g>
</g>
<!-- Node35 -->
<g id="Node000035" class="node">
<title>Node35</title>
<g id="a_Node000035"><a xlink:title=" ">
<polygon fill="#e0e0e0" stroke="#999999" points="1025.5,-19 978.5,-19 978.5,0 1025.5,0 1025.5,-19"/>
<text text-anchor="middle" x="1002" y="-7" font-family="Helvetica,sans-Serif" font-size="10.00">queue</text>
</a>
</g>
</g>
<!-- Node34&#45;&gt;Node35 -->
<g id="edge47_Node000034_Node000035" class="edge">
<title>Node34&#45;&gt;Node35</title>
<g id="a_edge47_Node000034_Node000035"><a xlink:title=" ">
<path fill="none" stroke="#63b8ff" d="M920.58,-54.98C935.77,-46.69 959.1,-33.94 976.9,-24.22"/>
<polygon fill="#63b8ff" stroke="#63b8ff" points="979.03,-27.04 986.13,-19.17 975.68,-20.89 979.03,-27.04"/>
</a>
</g>
</g>
</g>
</svg>

<g id="navigator" transform="translate(0 0)" fill="#404254">
  <rect fill="#f2f5e9" fill-opacity="0.5" stroke="#606060" stroke-width=".5" x="0" y="0" width="60" height="60"/>
  <use id="zoomplus" xlink:href="#zoomPlus" x="17" y="9" onmousedown="handleZoom(evt,'in')"/>
  <use id="zoomminus" xlink:href="#zoomMin" x="42" y="9" onmousedown="handleZoom(evt,'out')"/>
  <use id="reset" xlink:href="#resetDef" x="30" y="36" onmousedown="handleReset()"/>
   <use id="arrowup" xlink:href="#arrowUp" x="0" y="0" onmousedown="handlePan(0,-1)"/>
  <use id="arrowright" xlink:href="#arrowRight" x="0" y="0" onmousedown="handlePan(1,0)"/>
  <use id="arrowdown" xlink:href="#arrowDown" x="0" y="0" onmousedown="handlePan(0,1)"/>
  <use id="arrowleft" xlink:href="#arrowLeft" x="0" y="0" onmousedown="handlePan(-1,0)"/>
</g>
<svg viewBox="0 0 15 15" width="100%" height="30px" preserveAspectRatio="xMaxYMin meet">
 <g id="arrow_out" transform="scale(0.3 0.3)">
  <a xlink:href="uvgVPCCencAppExample_8cpp__incl_org.svg" target="_base">
   <rect id="button" ry="5" rx="5" y="6" x="6" height="38" width="38"
        fill="#f2f5e9" fill-opacity="0.5" stroke="#606060" stroke-width="1.0"/>
   <path id="arrow"
     d="M 11.500037,31.436501 C 11.940474,20.09759 22.043105,11.32322 32.158766,21.979434 L 37.068811,17.246167 C 37.068811,17.246167 37.088388,32 37.088388,32 L 22.160133,31.978069 C 22.160133,31.978069 26.997745,27.140456 26.997745,27.140456 C 18.528582,18.264221 13.291696,25.230495 11.500037,31.436501 z"
     style="fill:#404040;"/>
  </a>
 </g>
</svg>

<style type='text/css'>
<![CDATA[
[data-mouse-over-selected='false'] { opacity: 0.7; }
[data-mouse-over-selected='true']  { opacity: 1.0; }
]]>
</style>
<script type="application/ecmascript"><![CDATA[
document.addEventListener('DOMContentLoaded', (event) => {
  highlightEdges();
  highlightAdjacentNodes();
});
]]></script>
</svg>
