<?xml version="1.0" encoding="UTF-8" standalone="no"?>
<!DOCTYPE svg PUBLIC "-//W3C//DTD SVG 1.1//EN"
 "http://www.w3.org/Graphics/SVG/1.1/DTD/svg11.dtd">
<!-- Generated by graphviz version 2.43.0 (0)
 -->
<!-- Title: src/libuvgvpccenc/include/uvgvpcc/uvgvpcc.hpp Pages: 1 -->
<!--zoomable 203 -->

<svg id="main" version="1.1" xmlns="http://www.w3.org/2000/svg" xmlns:xlink="http://www.w3.org/1999/xlink" xml:space="preserve" onload="init(evt)">
<style type="text/css"><![CDATA[
.node, .edge {opacity: 0.7;}
.node.selected, .edge.selected {opacity: 1;}
.edge:hover path { stroke: red; }
.edge:hover polygon { stroke: red; fill: red; }
]]></style>

<defs>
  <circle id="rim" cx="0" cy="0" r="7"/>
  <circle id="rim2" cx="0" cy="0" r="3.5"/>
  <g id="zoomPlus">
    <use xlink:href="#rim" fill="#404040"><set attributeName="fill" to="#808080" begin="zoomplus.mouseover" end="zoomplus.mouseout"/></use>
    <path d="M-4,0h8M0,-4v8" fill="none" stroke="white" stroke-width="1.5" pointer-events="none"/>
  </g>
  <g id="zoomMin">
    <use xlink:href="#rim" fill="#404040"><set attributeName="fill" to="#808080" begin="zoomminus.mouseover" end="zoomminus.mouseout"/></use>
    <path d="M-4,0h8" fill="none" stroke="white" stroke-width="1.5" pointer-events="none"/>
  </g>
  <g id="arrowUp" transform="translate(30 24)">
    <use xlink:href="#rim"/>
    <path pointer-events="none" fill="none" stroke="white" stroke-width="1.5" d="M0,-3.0v7 M-2.5,-0.5L0,-3.0L2.5,-0.5"/>
  </g>
  <g id="arrowRight" transform="rotate(90) translate(36 -43)">
    <use xlink:href="#rim"/>
    <path pointer-events="none" fill="none" stroke="white" stroke-width="1.5" d="M0,-3.0v7 M-2.5,-0.5L0,-3.0L2.5,-0.5"/>
  </g>
  <g id="arrowDown" transform="rotate(180) translate(-30 -48)">
    <use xlink:href="#rim"/>
    <path pointer-events="none" fill="none" stroke="white" stroke-width="1.5" d="M0,-3.0v7 M-2.5,-0.5L0,-3.0L2.5,-0.5"/>
  </g>
  <g id="arrowLeft" transform="rotate(270) translate(-36 17)">
    <use xlink:href="#rim"/>
    <path pointer-events="none" fill="none" stroke="white" stroke-width="1.5" d="M0,-3.0v7 M-2.5,-0.5L0,-3.0L2.5,-0.5"/>
  </g>
  <g id="resetDef">
    <use xlink:href="#rim2" fill="#404040"><set attributeName="fill" to="#808080" begin="reset.mouseover" end="reset.mouseout"/></use>
  </g>
</defs>
<script type="application/ecmascript">
var viewWidth = 1159;
var viewHeight = 203;
var sectionId = 'dynsection-0';
</script>
<script type="application/ecmascript" xlink:href="svg.min.js"/>
<svg id="graph" class="graph">
<g id="viewport">
<title>src/libuvgvpccenc/include/uvgvpcc/uvgvpcc.hpp</title>
<!-- Node1 -->
<g id="Node000001" class="node">
<title>Node1</title>
<g id="a_Node000001"><a xlink:title=" ">
<polygon fill="#999999" stroke="#666666" points="592,-195 450,-195 450,-165 592,-165 592,-195"/>
<text text-anchor="start" x="458" y="-183" font-family="Helvetica,sans-Serif" font-size="10.00">src/libuvgvpccenc/include</text>
<text text-anchor="middle" x="521" y="-172" font-family="Helvetica,sans-Serif" font-size="10.00">/uvgvpcc/uvgvpcc.hpp</text>
</a>
</g>
</g>
<!-- Node2 -->
<g id="Node000002" class="node">
<title>Node2</title>
<g id="a_Node000002"><a xlink:title=" ">
<polygon fill="#e0e0e0" stroke="#999999" points="42,-74 0,-74 0,-55 42,-55 42,-74"/>
<text text-anchor="middle" x="21" y="-62" font-family="Helvetica,sans-Serif" font-size="10.00">array</text>
</a>
</g>
</g>
<!-- Node1&#45;&gt;Node2 -->
<g id="edge1_Node000001_Node000002" class="edge">
<title>Node1&#45;&gt;Node2</title>
<g id="a_edge1_Node000001_Node000002"><a xlink:title=" ">
<path fill="none" stroke="#63b8ff" d="M449.85,-177.79C371.03,-174.63 241.05,-163.97 135,-129 99.98,-117.45 63.41,-94.92 41.42,-80.04"/>
<polygon fill="#63b8ff" stroke="#63b8ff" points="43.15,-76.98 32.93,-74.19 39.18,-82.75 43.15,-76.98"/>
</a>
</g>
</g>
<!-- Node3 -->
<g id="Node000003" class="node">
<title>Node3</title>
<g id="a_Node000003"><a xlink:title=" ">
<polygon fill="#e0e0e0" stroke="#999999" points="574,-129 522,-129 522,-110 574,-110 574,-129"/>
<text text-anchor="middle" x="548" y="-117" font-family="Helvetica,sans-Serif" font-size="10.00">cassert</text>
</a>
</g>
</g>
<!-- Node1&#45;&gt;Node3 -->
<g id="edge2_Node000001_Node000003" class="edge">
<title>Node1&#45;&gt;Node3</title>
<g id="a_edge2_Node000001_Node000003"><a xlink:title=" ">
<path fill="none" stroke="#63b8ff" d="M527.54,-164.84C531.18,-156.95 535.74,-147.05 539.64,-138.61"/>
<polygon fill="#63b8ff" stroke="#63b8ff" points="542.94,-139.81 543.95,-129.27 536.59,-136.88 542.94,-139.81"/>
</a>
</g>
</g>
<!-- Node4 -->
<g id="Node000004" class="node">
<title>Node4</title>
<g id="a_Node000004"><a xlink:title=" ">
<polygon fill="#e0e0e0" stroke="#999999" points="113.5,-74 60.5,-74 60.5,-55 113.5,-55 113.5,-74"/>
<text text-anchor="middle" x="87" y="-62" font-family="Helvetica,sans-Serif" font-size="10.00">cstddef</text>
</a>
</g>
</g>
<!-- Node1&#45;&gt;Node4 -->
<g id="edge3_Node000001_Node000004" class="edge">
<title>Node1&#45;&gt;Node4</title>
<g id="a_edge3_Node000001_Node000004"><a xlink:title=" ">
<path fill="none" stroke="#63b8ff" d="M449.87,-179.15C377.14,-176.97 262.23,-166.99 171,-129 144.27,-117.87 118.46,-96.2 102.66,-81.3"/>
<polygon fill="#63b8ff" stroke="#63b8ff" points="104.98,-78.67 95.37,-74.21 100.1,-83.69 104.98,-78.67"/>
</a>
</g>
</g>
<!-- Node5 -->
<g id="Node000005" class="node">
<title>Node5</title>
<g id="a_Node000005"><a xlink:title=" ">
<polygon fill="#e0e0e0" stroke="#999999" points="182,-74 132,-74 132,-55 182,-55 182,-74"/>
<text text-anchor="middle" x="157" y="-62" font-family="Helvetica,sans-Serif" font-size="10.00">cstdint</text>
</a>
</g>
</g>
<!-- Node1&#45;&gt;Node5 -->
<g id="edge4_Node000001_Node000005" class="edge">
<title>Node1&#45;&gt;Node5</title>
<g id="a_edge4_Node000001_Node000005"><a xlink:title=" ">
<path fill="none" stroke="#63b8ff" d="M449.77,-175.6C365.51,-170.32 231.53,-157.62 191,-129 175.86,-118.31 166.85,-98.71 161.95,-84.1"/>
<polygon fill="#63b8ff" stroke="#63b8ff" points="165.19,-82.72 158.97,-74.14 158.49,-84.72 165.19,-82.72"/>
</a>
</g>
</g>
<!-- Node6 -->
<g id="Node000006" class="node">
<title>Node6</title>
<g id="a_Node000006"><a xlink:title=" ">
<polygon fill="#e0e0e0" stroke="#999999" points="454,-19 394,-19 394,0 454,0 454,-19"/>
<text text-anchor="middle" x="424" y="-7" font-family="Helvetica,sans-Serif" font-size="10.00">iostream</text>
</a>
</g>
</g>
<!-- Node1&#45;&gt;Node6 -->
<g id="edge5_Node000001_Node000006" class="edge">
<title>Node1&#45;&gt;Node6</title>
<g id="a_edge5_Node000001_Node000006"><a xlink:title=" ">
<path fill="none" stroke="#63b8ff" d="M512.9,-164.92C495.24,-134.26 453.35,-61.48 434.05,-27.96"/>
<polygon fill="#63b8ff" stroke="#63b8ff" points="437.06,-26.18 429.04,-19.25 431,-29.67 437.06,-26.18"/>
</a>
</g>
</g>
<!-- Node7 -->
<g id="Node000007" class="node">
<title>Node7</title>
<g id="a_Node000007"><a xlink:title=" ">
<polygon fill="#e0e0e0" stroke="#999999" points="650,-129 592,-129 592,-110 650,-110 650,-129"/>
<text text-anchor="middle" x="621" y="-117" font-family="Helvetica,sans-Serif" font-size="10.00">memory</text>
</a>
</g>
</g>
<!-- Node1&#45;&gt;Node7 -->
<g id="edge6_Node000001_Node000007" class="edge">
<title>Node1&#45;&gt;Node7</title>
<g id="a_edge6_Node000001_Node000007"><a xlink:title=" ">
<path fill="none" stroke="#63b8ff" d="M544.95,-164.99C560.89,-155.66 581.73,-143.47 597.56,-134.21"/>
<polygon fill="#63b8ff" stroke="#63b8ff" points="599.37,-137.21 606.23,-129.14 595.83,-131.17 599.37,-137.21"/>
</a>
</g>
</g>
<!-- Node8 -->
<g id="Node000008" class="node">
<title>Node8</title>
<g id="a_Node000008"><a xlink:title=" ">
<polygon fill="#e0e0e0" stroke="#999999" points="715.5,-129 668.5,-129 668.5,-110 715.5,-110 715.5,-129"/>
<text text-anchor="middle" x="692" y="-117" font-family="Helvetica,sans-Serif" font-size="10.00">queue</text>
</a>
</g>
</g>
<!-- Node1&#45;&gt;Node8 -->
<g id="edge7_Node000001_Node000008" class="edge">
<title>Node1&#45;&gt;Node8</title>
<g id="a_edge7_Node000001_Node000008"><a xlink:title=" ">
<path fill="none" stroke="#63b8ff" d="M561.96,-164.99C591.53,-154.87 630.95,-141.38 658.62,-131.92"/>
<polygon fill="#63b8ff" stroke="#63b8ff" points="659.91,-135.18 668.23,-128.63 657.64,-128.56 659.91,-135.18"/>
</a>
</g>
</g>
<!-- Node9 -->
<g id="Node000009" class="node">
<title>Node9</title>
<g id="a_Node000009"><a xlink:title=" ">
<polygon fill="#e0e0e0" stroke="#999999" points="804.5,-129 733.5,-129 733.5,-110 804.5,-110 804.5,-129"/>
<text text-anchor="middle" x="769" y="-117" font-family="Helvetica,sans-Serif" font-size="10.00">semaphore</text>
</a>
</g>
</g>
<!-- Node1&#45;&gt;Node9 -->
<g id="edge8_Node000001_Node000009" class="edge">
<title>Node1&#45;&gt;Node9</title>
<g id="a_edge8_Node000001_Node000009"><a xlink:title=" ">
<path fill="none" stroke="#63b8ff" d="M580.4,-164.99C624.39,-154.61 683.43,-140.68 723.66,-131.2"/>
<polygon fill="#63b8ff" stroke="#63b8ff" points="724.53,-134.59 733.46,-128.88 722.92,-127.77 724.53,-134.59"/>
</a>
</g>
</g>
<!-- Node10 -->
<g id="Node000010" class="node">
<title>Node10</title>
<g id="a_Node000010"><a xlink:title=" ">
<polygon fill="#e0e0e0" stroke="#999999" points="428,-74 372,-74 372,-55 428,-55 428,-74"/>
<text text-anchor="middle" x="400" y="-62" font-family="Helvetica,sans-Serif" font-size="10.00">sstream</text>
</a>
</g>
</g>
<!-- Node1&#45;&gt;Node10 -->
<g id="edge9_Node000001_Node000010" class="edge">
<title>Node1&#45;&gt;Node10</title>
<g id="a_edge9_Node000001_Node000010"><a xlink:title=" ">
<path fill="none" stroke="#63b8ff" d="M492.63,-164.91C476.59,-156.04 456.84,-143.54 442,-129 428.18,-115.45 416.42,-96.62 408.9,-82.99"/>
<polygon fill="#63b8ff" stroke="#63b8ff" points="411.97,-81.32 404.19,-74.13 405.79,-84.6 411.97,-81.32"/>
</a>
</g>
</g>
<!-- Node11 -->
<g id="Node000011" class="node">
<title>Node11</title>
<g id="a_Node000011"><a xlink:title=" ">
<polygon fill="#e0e0e0" stroke="#999999" points="516,-19 472,-19 472,0 516,0 516,-19"/>
<text text-anchor="middle" x="494" y="-7" font-family="Helvetica,sans-Serif" font-size="10.00">string</text>
</a>
</g>
</g>
<!-- Node1&#45;&gt;Node11 -->
<g id="edge10_Node000001_Node000011" class="edge">
<title>Node1&#45;&gt;Node11</title>
<g id="a_edge10_Node000001_Node000011"><a xlink:title=" ">
<path fill="none" stroke="#63b8ff" d="M518.74,-164.92C513.89,-134.65 502.47,-63.35 497.01,-29.27"/>
<polygon fill="#63b8ff" stroke="#63b8ff" points="500.44,-28.58 495.4,-19.25 493.53,-29.68 500.44,-28.58"/>
</a>
</g>
</g>
<!-- Node12 -->
<g id="Node000012" class="node">
<title>Node12</title>
<g id="a_Node000012"><a xlink:title=" ">
<polygon fill="#e0e0e0" stroke="#999999" points="869.5,-129 822.5,-129 822.5,-110 869.5,-110 869.5,-129"/>
<text text-anchor="middle" x="846" y="-117" font-family="Helvetica,sans-Serif" font-size="10.00">vector</text>
</a>
</g>
</g>
<!-- Node1&#45;&gt;Node12 -->
<g id="edge11_Node000001_Node000012" class="edge">
<title>Node1&#45;&gt;Node12</title>
<g id="a_edge11_Node000001_Node000012"><a xlink:title=" ">
<path fill="none" stroke="#63b8ff" d="M592.1,-168.71C649.32,-160.01 731.98,-146.49 812.49,-129.18"/>
<polygon fill="#63b8ff" stroke="#63b8ff" points="813.26,-132.6 822.29,-127.05 811.78,-125.76 813.26,-132.6"/>
</a>
</g>
</g>
<!-- Node13 -->
<g id="Node000013" class="node">
<title>Node13</title>
<g id="a_Node000013"><a xlink:title=" ">
<polygon fill="#e0e0e0" stroke="#999999" points="1014.5,-129 887.5,-129 887.5,-110 1014.5,-110 1014.5,-129"/>
<text text-anchor="middle" x="951" y="-117" font-family="Helvetica,sans-Serif" font-size="10.00">../utils/parameters.hpp</text>
</a>
</g>
</g>
<!-- Node1&#45;&gt;Node13 -->
<g id="edge12_Node000001_Node000013" class="edge">
<title>Node1&#45;&gt;Node13</title>
<g id="a_edge12_Node000001_Node000013"><a xlink:title=" ">
<path fill="none" stroke="#63b8ff" d="M592.01,-169.34C671.16,-158.57 798.49,-141.25 878.31,-130.39"/>
<polygon fill="#63b8ff" stroke="#63b8ff" points="878.85,-133.85 888.29,-129.03 877.91,-126.91 878.85,-133.85"/>
</a>
</g>
</g>
<!-- Node14 -->
<g id="Node000014" class="node">
<title>Node14</title>
<g id="a_Node000014"><a xlink:title=" ">
<polygon fill="#e0e0e0" stroke="#999999" points="1151,-129 1033,-129 1033,-110 1151,-110 1151,-129"/>
<text text-anchor="middle" x="1092" y="-117" font-family="Helvetica,sans-Serif" font-size="10.00">../utils/constants.hpp</text>
</a>
</g>
</g>
<!-- Node1&#45;&gt;Node14 -->
<g id="edge13_Node000001_Node000014" class="edge">
<title>Node1&#45;&gt;Node14</title>
<g id="a_edge13_Node000001_Node000014"><a xlink:title=" ">
<path fill="none" stroke="#63b8ff" d="M592.28,-172.49C687.81,-163.63 862.93,-146.95 1022.66,-129.13"/>
<polygon fill="#63b8ff" stroke="#63b8ff" points="1023.12,-132.6 1032.67,-128.01 1022.35,-125.64 1023.12,-132.6"/>
</a>
</g>
</g>
<!-- Node15 -->
<g id="Node000015" class="node">
<title>Node15</title>
<g id="a_Node000015"><a xlink:href="utils_8hpp.html" target="_top" xlink:title=" ">
<polygon fill="white" stroke="#666666" points="301.5,-129 200.5,-129 200.5,-110 301.5,-110 301.5,-129"/>
<text text-anchor="middle" x="251" y="-117" font-family="Helvetica,sans-Serif" font-size="10.00">uvgutils/utils.hpp</text>
</a>
</g>
</g>
<!-- Node1&#45;&gt;Node15 -->
<g id="edge14_Node000001_Node000015" class="edge">
<title>Node1&#45;&gt;Node15</title>
<g id="a_edge14_Node000001_Node000015"><a xlink:title=" ">
<path fill="none" stroke="#63b8ff" d="M456.33,-164.99C408.42,-154.61 344.12,-140.68 300.32,-131.19"/>
<polygon fill="#63b8ff" stroke="#63b8ff" points="300.99,-127.75 290.48,-129.05 299.51,-134.59 300.99,-127.75"/>
</a>
</g>
</g>
<!-- Node15&#45;&gt;Node2 -->
<g id="edge15_Node000015_Node000002" class="edge">
<title>Node15&#45;&gt;Node2</title>
<g id="a_edge15_Node000015_Node000002"><a xlink:title=" ">
<path fill="none" stroke="#63b8ff" d="M209.47,-109.98C171.04,-101.94 112.11,-89.2 52.27,-74.21"/>
<polygon fill="#63b8ff" stroke="#63b8ff" points="52.82,-70.74 42.26,-71.69 51.1,-77.53 52.82,-70.74"/>
</a>
</g>
</g>
<!-- Node15&#45;&gt;Node4 -->
<g id="edge16_Node000015_Node000004" class="edge">
<title>Node15&#45;&gt;Node4</title>
<g id="a_edge16_Node000015_Node000004"><a xlink:title=" ">
<path fill="none" stroke="#63b8ff" d="M224.65,-109.98C197.24,-101.13 154.11,-87.19 123.44,-77.28"/>
<polygon fill="#63b8ff" stroke="#63b8ff" points="124.15,-73.83 113.56,-74.08 122,-80.49 124.15,-73.83"/>
</a>
</g>
</g>
<!-- Node15&#45;&gt;Node5 -->
<g id="edge17_Node000015_Node000005" class="edge">
<title>Node15&#45;&gt;Node5</title>
<g id="a_edge17_Node000015_Node000005"><a xlink:title=" ">
<path fill="none" stroke="#63b8ff" d="M235.9,-109.98C221.18,-101.69 198.58,-88.94 181.33,-79.22"/>
<polygon fill="#63b8ff" stroke="#63b8ff" points="182.81,-76.03 172.38,-74.17 179.37,-82.13 182.81,-76.03"/>
</a>
</g>
</g>
<!-- Node15&#45;&gt;Node10 -->
<g id="edge20_Node000015_Node000010" class="edge">
<title>Node15&#45;&gt;Node10</title>
<g id="a_edge20_Node000015_Node000010"><a xlink:title=" ">
<path fill="none" stroke="#63b8ff" d="M274.94,-109.98C299.56,-101.23 338.12,-87.51 365.92,-77.62"/>
<polygon fill="#63b8ff" stroke="#63b8ff" points="367.38,-80.82 375.62,-74.17 365.03,-74.22 367.38,-80.82"/>
</a>
</g>
</g>
<!-- Node16 -->
<g id="Node000016" class="node">
<title>Node16</title>
<g id="a_Node000016"><a xlink:title=" ">
<polygon fill="#e0e0e0" stroke="#999999" points="170,-19 114,-19 114,0 170,0 170,-19"/>
<text text-anchor="middle" x="142" y="-7" font-family="Helvetica,sans-Serif" font-size="10.00">iomanip</text>
</a>
</g>
</g>
<!-- Node15&#45;&gt;Node16 -->
<g id="edge18_Node000015_Node000016" class="edge">
<title>Node15&#45;&gt;Node16</title>
<g id="a_edge18_Node000015_Node000016"><a xlink:title=" ">
<path fill="none" stroke="#63b8ff" d="M243.05,-109.67C231.75,-97.22 210.28,-73.9 191,-55 180.85,-45.04 169.06,-34.32 159.59,-25.89"/>
<polygon fill="#63b8ff" stroke="#63b8ff" points="161.78,-23.15 151.97,-19.15 157.14,-28.39 161.78,-23.15"/>
</a>
</g>
</g>
<!-- Node17 -->
<g id="Node000017" class="node">
<title>Node17</title>
<g id="a_Node000017"><a xlink:title=" ">
<polygon fill="#e0e0e0" stroke="#999999" points="354,-74 310,-74 310,-55 354,-55 354,-74"/>
<text text-anchor="middle" x="332" y="-62" font-family="Helvetica,sans-Serif" font-size="10.00">limits</text>
</a>
</g>
</g>
<!-- Node15&#45;&gt;Node17 -->
<g id="edge19_Node000015_Node000017" class="edge">
<title>Node15&#45;&gt;Node17</title>
<g id="a_edge19_Node000015_Node000017"><a xlink:title=" ">
<path fill="none" stroke="#63b8ff" d="M264.01,-109.98C276.46,-101.84 295.46,-89.41 310.21,-79.76"/>
<polygon fill="#63b8ff" stroke="#63b8ff" points="312.3,-82.57 318.75,-74.17 308.46,-76.72 312.3,-82.57"/>
</a>
</g>
</g>
<!-- Node18 -->
<g id="Node000018" class="node">
<title>Node18</title>
<g id="a_Node000018"><a xlink:href="log_8hpp.html" target="_top" xlink:title=" ">
<polygon fill="white" stroke="#666666" points="291.5,-74 238.5,-74 238.5,-55 291.5,-55 291.5,-74"/>
<text text-anchor="middle" x="265" y="-62" font-family="Helvetica,sans-Serif" font-size="10.00">log.hpp</text>
</a>
</g>
</g>
<!-- Node15&#45;&gt;Node18 -->
<g id="edge21_Node000015_Node000018" class="edge">
<title>Node15&#45;&gt;Node18</title>
<g id="a_edge21_Node000015_Node000018"><a xlink:title=" ">
<path fill="none" stroke="#63b8ff" d="M253.31,-109.75C255.17,-102.72 257.84,-92.62 260.15,-83.84"/>
<polygon fill="#63b8ff" stroke="#63b8ff" points="263.56,-84.65 262.73,-74.09 256.79,-82.86 263.56,-84.65"/>
</a>
</g>
</g>
<!-- Node18&#45;&gt;Node6 -->
<g id="edge25_Node000018_Node000006" class="edge">
<title>Node18&#45;&gt;Node6</title>
<g id="a_edge25_Node000018_Node000006"><a xlink:title=" ">
<path fill="none" stroke="#63b8ff" d="M290.55,-54.98C317.12,-46.13 358.94,-32.19 388.67,-22.28"/>
<polygon fill="#63b8ff" stroke="#63b8ff" points="389.87,-25.56 398.25,-19.08 387.66,-18.92 389.87,-25.56"/>
</a>
</g>
</g>
<!-- Node18&#45;&gt;Node11 -->
<g id="edge27_Node000018_Node000011" class="edge">
<title>Node18&#45;&gt;Node11</title>
<g id="a_edge27_Node000018_Node000011"><a xlink:title=" ">
<path fill="none" stroke="#63b8ff" d="M291.73,-57.15C294.85,-56.42 298,-55.69 301,-55 369.8,-39.23 389.72,-36.94 461.67,-19.24"/>
<polygon fill="#63b8ff" stroke="#63b8ff" points="462.82,-22.56 471.68,-16.76 461.14,-15.77 462.82,-22.56"/>
</a>
</g>
</g>
<!-- Node18&#45;&gt;Node16 -->
<g id="edge24_Node000018_Node000016" class="edge">
<title>Node18&#45;&gt;Node16</title>
<g id="a_edge24_Node000018_Node000016"><a xlink:title=" ">
<path fill="none" stroke="#63b8ff" d="M245.24,-54.98C225.27,-46.38 194.2,-32.99 171.35,-23.15"/>
<polygon fill="#63b8ff" stroke="#63b8ff" points="172.69,-19.91 162.12,-19.17 169.92,-26.34 172.69,-19.91"/>
</a>
</g>
</g>
<!-- Node19 -->
<g id="Node000019" class="node">
<title>Node19</title>
<g id="a_Node000019"><a xlink:title=" ">
<polygon fill="#e0e0e0" stroke="#999999" points="238,-19 188,-19 188,0 238,0 238,-19"/>
<text text-anchor="middle" x="213" y="-7" font-family="Helvetica,sans-Serif" font-size="10.00">chrono</text>
</a>
</g>
</g>
<!-- Node18&#45;&gt;Node19 -->
<g id="edge22_Node000018_Node000019" class="edge">
<title>Node18&#45;&gt;Node19</title>
<g id="a_edge22_Node000018_Node000019"><a xlink:title=" ">
<path fill="none" stroke="#63b8ff" d="M256.41,-54.75C248.84,-47.03 237.62,-35.6 228.49,-26.28"/>
<polygon fill="#63b8ff" stroke="#63b8ff" points="230.93,-23.78 221.43,-19.09 225.93,-28.68 230.93,-23.78"/>
</a>
</g>
</g>
<!-- Node20 -->
<g id="Node000020" class="node">
<title>Node20</title>
<g id="a_Node000020"><a xlink:title=" ">
<polygon fill="#e0e0e0" stroke="#999999" points="309.5,-19 256.5,-19 256.5,0 309.5,0 309.5,-19"/>
<text text-anchor="middle" x="283" y="-7" font-family="Helvetica,sans-Serif" font-size="10.00">cstdarg</text>
</a>
</g>
</g>
<!-- Node18&#45;&gt;Node20 -->
<g id="edge23_Node000018_Node000020" class="edge">
<title>Node18&#45;&gt;Node20</title>
<g id="a_edge23_Node000018_Node000020"><a xlink:title=" ">
<path fill="none" stroke="#63b8ff" d="M267.97,-54.75C270.36,-47.72 273.79,-37.62 276.77,-28.84"/>
<polygon fill="#63b8ff" stroke="#63b8ff" points="280.18,-29.68 280.08,-19.09 273.55,-27.43 280.18,-29.68"/>
</a>
</g>
</g>
<!-- Node21 -->
<g id="Node000021" class="node">
<title>Node21</title>
<g id="a_Node000021"><a xlink:title=" ">
<polygon fill="#e0e0e0" stroke="#999999" points="376,-19 328,-19 328,0 376,0 376,-19"/>
<text text-anchor="middle" x="352" y="-7" font-family="Helvetica,sans-Serif" font-size="10.00">mutex</text>
</a>
</g>
</g>
<!-- Node18&#45;&gt;Node21 -->
<g id="edge26_Node000018_Node000021" class="edge">
<title>Node18&#45;&gt;Node21</title>
<g id="a_edge26_Node000018_Node000021"><a xlink:title=" ">
<path fill="none" stroke="#63b8ff" d="M278.98,-54.98C292.47,-46.77 313.13,-34.18 329.04,-24.49"/>
<polygon fill="#63b8ff" stroke="#63b8ff" points="331.05,-27.36 337.77,-19.17 327.41,-21.38 331.05,-27.36"/>
</a>
</g>
</g>
</g>
</svg>

<g id="navigator" transform="translate(0 0)" fill="#404254">
  <rect fill="#f2f5e9" fill-opacity="0.5" stroke="#606060" stroke-width=".5" x="0" y="0" width="60" height="60"/>
  <use id="zoomplus" xlink:href="#zoomPlus" x="17" y="9" onmousedown="handleZoom(evt,'in')"/>
  <use id="zoomminus" xlink:href="#zoomMin" x="42" y="9" onmousedown="handleZoom(evt,'out')"/>
  <use id="reset" xlink:href="#resetDef" x="30" y="36" onmousedown="handleReset()"/>
   <use id="arrowup" xlink:href="#arrowUp" x="0" y="0" onmousedown="handlePan(0,-1)"/>
  <use id="arrowright" xlink:href="#arrowRight" x="0" y="0" onmousedown="handlePan(1,0)"/>
  <use id="arrowdown" xlink:href="#arrowDown" x="0" y="0" onmousedown="handlePan(0,1)"/>
  <use id="arrowleft" xlink:href="#arrowLeft" x="0" y="0" onmousedown="handlePan(-1,0)"/>
</g>
<svg viewBox="0 0 15 15" width="100%" height="30px" preserveAspectRatio="xMaxYMin meet">
 <g id="arrow_out" transform="scale(0.3 0.3)">
  <a xlink:href="uvgvpcc_8hpp__incl_org.svg" target="_base">
   <rect id="button" ry="5" rx="5" y="6" x="6" height="38" width="38"
        fill="#f2f5e9" fill-opacity="0.5" stroke="#606060" stroke-width="1.0"/>
   <path id="arrow"
     d="M 11.500037,31.436501 C 11.940474,20.09759 22.043105,11.32322 32.158766,21.979434 L 37.068811,17.246167 C 37.068811,17.246167 37.088388,32 37.088388,32 L 22.160133,31.978069 C 22.160133,31.978069 26.997745,27.140456 26.997745,27.140456 C 18.528582,18.264221 13.291696,25.230495 11.500037,31.436501 z"
     style="fill:#404040;"/>
  </a>
 </g>
</svg>

<style type='text/css'>
<![CDATA[
[data-mouse-over-selected='false'] { opacity: 0.7; }
[data-mouse-over-selected='true']  { opacity: 1.0; }
]]>
</style>
<script type="application/ecmascript"><![CDATA[
document.addEventListener('DOMContentLoaded', (event) => {
  highlightEdges();
  highlightAdjacentNodes();
});
]]></script>
</svg>
