<?xml version="1.0" encoding="UTF-8" standalone="no"?>
<!DOCTYPE svg PUBLIC "-//W3C//DTD SVG 1.1//EN"
 "http://www.w3.org/Graphics/SVG/1.1/DTD/svg11.dtd">
<!-- Generated by graphviz version 2.43.0 (0)
 -->
<!-- Title: src/libuvgvpccenc/bitstreamGeneration/vps.cpp Pages: 1 -->
<!--zoomable 313 -->

<svg id="main" version="1.1" xmlns="http://www.w3.org/2000/svg" xmlns:xlink="http://www.w3.org/1999/xlink" xml:space="preserve" onload="init(evt)">
<style type="text/css"><![CDATA[
.node, .edge {opacity: 0.7;}
.node.selected, .edge.selected {opacity: 1;}
.edge:hover path { stroke: red; }
.edge:hover polygon { stroke: red; fill: red; }
]]></style>

<defs>
  <circle id="rim" cx="0" cy="0" r="7"/>
  <circle id="rim2" cx="0" cy="0" r="3.5"/>
  <g id="zoomPlus">
    <use xlink:href="#rim" fill="#404040"><set attributeName="fill" to="#808080" begin="zoomplus.mouseover" end="zoomplus.mouseout"/></use>
    <path d="M-4,0h8M0,-4v8" fill="none" stroke="white" stroke-width="1.5" pointer-events="none"/>
  </g>
  <g id="zoomMin">
    <use xlink:href="#rim" fill="#404040"><set attributeName="fill" to="#808080" begin="zoomminus.mouseover" end="zoomminus.mouseout"/></use>
    <path d="M-4,0h8" fill="none" stroke="white" stroke-width="1.5" pointer-events="none"/>
  </g>
  <g id="arrowUp" transform="translate(30 24)">
    <use xlink:href="#rim"/>
    <path pointer-events="none" fill="none" stroke="white" stroke-width="1.5" d="M0,-3.0v7 M-2.5,-0.5L0,-3.0L2.5,-0.5"/>
  </g>
  <g id="arrowRight" transform="rotate(90) translate(36 -43)">
    <use xlink:href="#rim"/>
    <path pointer-events="none" fill="none" stroke="white" stroke-width="1.5" d="M0,-3.0v7 M-2.5,-0.5L0,-3.0L2.5,-0.5"/>
  </g>
  <g id="arrowDown" transform="rotate(180) translate(-30 -48)">
    <use xlink:href="#rim"/>
    <path pointer-events="none" fill="none" stroke="white" stroke-width="1.5" d="M0,-3.0v7 M-2.5,-0.5L0,-3.0L2.5,-0.5"/>
  </g>
  <g id="arrowLeft" transform="rotate(270) translate(-36 17)">
    <use xlink:href="#rim"/>
    <path pointer-events="none" fill="none" stroke="white" stroke-width="1.5" d="M0,-3.0v7 M-2.5,-0.5L0,-3.0L2.5,-0.5"/>
  </g>
  <g id="resetDef">
    <use xlink:href="#rim2" fill="#404040"><set attributeName="fill" to="#808080" begin="reset.mouseover" end="reset.mouseout"/></use>
  </g>
</defs>
<script type="application/ecmascript">
var viewWidth = 1462;
var viewHeight = 313;
var sectionId = 'dynsection-0';
</script>
<script type="application/ecmascript" xlink:href="svg.min.js"/>
<svg id="graph" class="graph">
<g id="viewport">
<title>src/libuvgvpccenc/bitstreamGeneration/vps.cpp</title>
<!-- Node1 -->
<g id="Node000001" class="node">
<title>Node1</title>
<g id="a_Node000001"><a xlink:title=" ">
<polygon fill="#999999" stroke="#666666" points="320,-305 166,-305 166,-275 320,-275 320,-305"/>
<text text-anchor="start" x="174" y="-293" font-family="Helvetica,sans-Serif" font-size="10.00">src/libuvgvpccenc/bitstream</text>
<text text-anchor="middle" x="243" y="-282" font-family="Helvetica,sans-Serif" font-size="10.00">Generation/vps.cpp</text>
</a>
</g>
</g>
<!-- Node2 -->
<g id="Node000002" class="node">
<title>Node2</title>
<g id="a_Node000002"><a xlink:href="vps_8hpp.html" target="_top" xlink:title=" ">
<polygon fill="white" stroke="#666666" points="195.5,-239 140.5,-239 140.5,-220 195.5,-220 195.5,-239"/>
<text text-anchor="middle" x="168" y="-227" font-family="Helvetica,sans-Serif" font-size="10.00">vps.hpp</text>
</a>
</g>
</g>
<!-- Node1&#45;&gt;Node2 -->
<g id="edge1_Node000001_Node000002" class="edge">
<title>Node1&#45;&gt;Node2</title>
<g id="a_edge1_Node000001_Node000002"><a xlink:title=" ">
<path fill="none" stroke="#63b8ff" d="M224.84,-274.84C213.51,-266 198.94,-254.63 187.38,-245.62"/>
<polygon fill="#63b8ff" stroke="#63b8ff" points="189.28,-242.66 179.24,-239.27 184.97,-248.18 189.28,-242.66"/>
</a>
</g>
</g>
<!-- Node3 -->
<g id="Node000003" class="node">
<title>Node3</title>
<g id="a_Node000003"><a xlink:title=" ">
<polygon fill="#e0e0e0" stroke="#999999" points="66.5,-184 19.5,-184 19.5,-165 66.5,-165 66.5,-184"/>
<text text-anchor="middle" x="43" y="-172" font-family="Helvetica,sans-Serif" font-size="10.00">cmath</text>
</a>
</g>
</g>
<!-- Node1&#45;&gt;Node3 -->
<g id="edge41_Node000001_Node000003" class="edge">
<title>Node1&#45;&gt;Node3</title>
<g id="a_edge41_Node000001_Node000003"><a xlink:title=" ">
<path fill="none" stroke="#63b8ff" d="M200.71,-274.91C176.81,-266.12 146.84,-253.7 122,-239 98.75,-225.24 74.96,-205.14 59.65,-191.25"/>
<polygon fill="#63b8ff" stroke="#63b8ff" points="61.8,-188.47 52.08,-184.26 57.05,-193.62 61.8,-188.47"/>
</a>
</g>
</g>
<!-- Node4 -->
<g id="Node000004" class="node">
<title>Node4</title>
<g id="a_Node000004"><a xlink:href="bitstream__util_8hpp.html" target="_top" xlink:title=" ">
<polygon fill="white" stroke="#666666" points="191,-184 85,-184 85,-165 191,-165 191,-184"/>
<text text-anchor="middle" x="138" y="-172" font-family="Helvetica,sans-Serif" font-size="10.00">bitstream_util.hpp</text>
</a>
</g>
</g>
<!-- Node1&#45;&gt;Node4 -->
<g id="edge46_Node000001_Node000004" class="edge">
<title>Node1&#45;&gt;Node4</title>
<g id="a_edge46_Node000001_Node000004"><a xlink:title=" ">
<path fill="none" stroke="#63b8ff" d="M179.47,-274.92C160.66,-267.47 142.13,-256.15 131,-239 122.33,-225.64 125.59,-207.28 130.12,-193.74"/>
<polygon fill="#63b8ff" stroke="#63b8ff" points="133.51,-194.7 133.83,-184.11 126.97,-192.18 133.51,-194.7"/>
</a>
</g>
</g>
<!-- Node7 -->
<g id="Node000007" class="node">
<title>Node7</title>
<g id="a_Node000007"><a xlink:title=" ">
<polygon fill="#e0e0e0" stroke="#999999" points="284,-74 234,-74 234,-55 284,-55 284,-74"/>
<text text-anchor="middle" x="259" y="-62" font-family="Helvetica,sans-Serif" font-size="10.00">cstdint</text>
</a>
</g>
</g>
<!-- Node1&#45;&gt;Node7 -->
<g id="edge43_Node000001_Node000007" class="edge">
<title>Node1&#45;&gt;Node7</title>
<g id="a_edge43_Node000001_Node000007"><a xlink:title=" ">
<path fill="none" stroke="#63b8ff" d="M241.37,-274.93C238.21,-244.55 232.43,-170.62 243,-110 244.57,-101 247.8,-91.42 250.94,-83.46"/>
<polygon fill="#63b8ff" stroke="#63b8ff" points="254.22,-84.69 254.89,-74.12 247.77,-81.97 254.22,-84.69"/>
</a>
</g>
</g>
<!-- Node10 -->
<g id="Node000010" class="node">
<title>Node10</title>
<g id="a_Node000010"><a xlink:title=" ">
<polygon fill="#e0e0e0" stroke="#999999" points="317.5,-129 252.5,-129 252.5,-110 317.5,-110 317.5,-129"/>
<text text-anchor="middle" x="285" y="-117" font-family="Helvetica,sans-Serif" font-size="10.00">stdexcept</text>
</a>
</g>
</g>
<!-- Node1&#45;&gt;Node10 -->
<g id="edge45_Node000001_Node000010" class="edge">
<title>Node1&#45;&gt;Node10</title>
<g id="a_edge45_Node000001_Node000010"><a xlink:title=" ">
<path fill="none" stroke="#63b8ff" d="M246.51,-274.92C254.05,-244.65 271.83,-173.35 280.32,-139.27"/>
<polygon fill="#63b8ff" stroke="#63b8ff" points="283.8,-139.8 282.82,-129.25 277,-138.11 283.8,-139.8"/>
</a>
</g>
</g>
<!-- Node14 -->
<g id="Node000014" class="node">
<title>Node14</title>
<g id="a_Node000014"><a xlink:title=" ">
<polygon fill="#e0e0e0" stroke="#999999" points="1322.5,-74 1269.5,-74 1269.5,-55 1322.5,-55 1322.5,-74"/>
<text text-anchor="middle" x="1296" y="-62" font-family="Helvetica,sans-Serif" font-size="10.00">cstddef</text>
</a>
</g>
</g>
<!-- Node1&#45;&gt;Node14 -->
<g id="edge42_Node000001_Node000014" class="edge">
<title>Node1&#45;&gt;Node14</title>
<g id="a_edge42_Node000001_Node000014"><a xlink:title=" ">
<path fill="none" stroke="#63b8ff" d="M320.42,-284.56C574.63,-269.18 1371.8,-214.47 1446,-129 1480.13,-89.68 1387.56,-74.07 1332.9,-68.41"/>
<polygon fill="#63b8ff" stroke="#63b8ff" points="1333.14,-64.91 1322.84,-67.43 1332.46,-71.88 1333.14,-64.91"/>
</a>
</g>
</g>
<!-- Node23 -->
<g id="Node000023" class="node">
<title>Node23</title>
<g id="a_Node000023"><a xlink:href="uvgvpcc_8hpp.html" target="_top" xlink:title=" ">
<polygon fill="white" stroke="#666666" points="941,-184 819,-184 819,-165 941,-165 941,-184"/>
<text text-anchor="middle" x="880" y="-172" font-family="Helvetica,sans-Serif" font-size="10.00">uvgvpcc/uvgvpcc.hpp</text>
</a>
</g>
</g>
<!-- Node1&#45;&gt;Node23 -->
<g id="edge47_Node000001_Node000023" class="edge">
<title>Node1&#45;&gt;Node23</title>
<g id="a_edge47_Node000001_Node000023"><a xlink:title=" ">
<path fill="none" stroke="#63b8ff" d="M320.15,-275.25C449.41,-252.22 706.84,-206.35 821.99,-185.84"/>
<polygon fill="#63b8ff" stroke="#63b8ff" points="822.79,-189.25 832.02,-184.05 821.56,-182.36 822.79,-189.25"/>
</a>
</g>
</g>
<!-- Node24 -->
<g id="Node000024" class="node">
<title>Node24</title>
<g id="a_Node000024"><a xlink:title=" ">
<polygon fill="#e0e0e0" stroke="#999999" points="1437,-129 1379,-129 1379,-110 1437,-110 1437,-129"/>
<text text-anchor="middle" x="1408" y="-117" font-family="Helvetica,sans-Serif" font-size="10.00">memory</text>
</a>
</g>
</g>
<!-- Node1&#45;&gt;Node24 -->
<g id="edge44_Node000001_Node000024" class="edge">
<title>Node1&#45;&gt;Node24</title>
<g id="a_edge44_Node000001_Node000024"><a xlink:title=" ">
<path fill="none" stroke="#63b8ff" d="M320.04,-278.09C391.16,-268.01 499.72,-252.58 594,-239 892.09,-196.07 1251.44,-143.46 1368.84,-126.24"/>
<polygon fill="#63b8ff" stroke="#63b8ff" points="1369.42,-129.7 1378.8,-124.78 1368.4,-122.77 1369.42,-129.7"/>
</a>
</g>
</g>
<!-- Node2&#45;&gt;Node3 -->
<g id="edge2_Node000002_Node000003" class="edge">
<title>Node2&#45;&gt;Node3</title>
<g id="a_edge2_Node000002_Node000003"><a xlink:title=" ">
<path fill="none" stroke="#63b8ff" d="M147.92,-219.98C127.63,-211.38 96.04,-197.99 72.83,-188.15"/>
<polygon fill="#63b8ff" stroke="#63b8ff" points="74.02,-184.85 63.45,-184.17 71.29,-191.3 74.02,-184.85"/>
</a>
</g>
</g>
<!-- Node2&#45;&gt;Node4 -->
<g id="edge3_Node000002_Node000004" class="edge">
<title>Node2&#45;&gt;Node4</title>
<g id="a_edge3_Node000002_Node000004"><a xlink:title=" ">
<path fill="none" stroke="#63b8ff" d="M163.05,-219.75C158.94,-212.49 152.97,-201.95 147.9,-192.98"/>
<polygon fill="#63b8ff" stroke="#63b8ff" points="150.83,-191.07 142.86,-184.09 144.74,-194.52 150.83,-191.07"/>
</a>
</g>
</g>
<!-- Node9 -->
<g id="Node000009" class="node">
<title>Node9</title>
<g id="a_Node000009"><a xlink:href="parameters_8hpp.html" target="_top" xlink:title=" ">
<polygon fill="white" stroke="#666666" points="408,-184 290,-184 290,-165 408,-165 408,-184"/>
<text text-anchor="middle" x="349" y="-172" font-family="Helvetica,sans-Serif" font-size="10.00">utils/parameters.hpp</text>
</a>
</g>
</g>
<!-- Node2&#45;&gt;Node9 -->
<g id="edge8_Node000002_Node000009" class="edge">
<title>Node2&#45;&gt;Node9</title>
<g id="a_edge8_Node000002_Node000009"><a xlink:title=" ">
<path fill="none" stroke="#63b8ff" d="M195.88,-220.33C226.48,-211.38 275.81,-196.93 310.18,-186.87"/>
<polygon fill="#63b8ff" stroke="#63b8ff" points="311.27,-190.19 319.88,-184.03 309.3,-183.48 311.27,-190.19"/>
</a>
</g>
</g>
<!-- Node2&#45;&gt;Node23 -->
<g id="edge26_Node000002_Node000023" class="edge">
<title>Node2&#45;&gt;Node23</title>
<g id="a_edge26_Node000002_Node000023"><a xlink:title=" ">
<path fill="none" stroke="#63b8ff" d="M195.91,-226.42C298.27,-218.8 655.03,-192.25 808.7,-180.81"/>
<polygon fill="#63b8ff" stroke="#63b8ff" points="809.25,-184.28 818.96,-180.04 808.73,-177.3 809.25,-184.28"/>
</a>
</g>
</g>
<!-- Node5 -->
<g id="Node000005" class="node">
<title>Node5</title>
<g id="a_Node000005"><a xlink:title=" ">
<polygon fill="#e0e0e0" stroke="#999999" points="52,-129 0,-129 0,-110 52,-110 52,-129"/>
<text text-anchor="middle" x="26" y="-117" font-family="Helvetica,sans-Serif" font-size="10.00">cassert</text>
</a>
</g>
</g>
<!-- Node4&#45;&gt;Node5 -->
<g id="edge4_Node000004_Node000005" class="edge">
<title>Node4&#45;&gt;Node5</title>
<g id="a_edge4_Node000004_Node000005"><a xlink:title=" ">
<path fill="none" stroke="#63b8ff" d="M120.01,-164.98C102.07,-156.5 74.28,-143.35 53.57,-133.54"/>
<polygon fill="#63b8ff" stroke="#63b8ff" points="54.86,-130.28 44.32,-129.17 51.86,-136.61 54.86,-130.28"/>
</a>
</g>
</g>
<!-- Node6 -->
<g id="Node000006" class="node">
<title>Node6</title>
<g id="a_Node000006"><a xlink:title=" ">
<polygon fill="#e0e0e0" stroke="#999999" points="158,-129 108,-129 108,-110 158,-110 158,-129"/>
<text text-anchor="middle" x="133" y="-117" font-family="Helvetica,sans-Serif" font-size="10.00">cstring</text>
</a>
</g>
</g>
<!-- Node4&#45;&gt;Node6 -->
<g id="edge5_Node000004_Node000006" class="edge">
<title>Node4&#45;&gt;Node6</title>
<g id="a_edge5_Node000004_Node000006"><a xlink:title=" ">
<path fill="none" stroke="#63b8ff" d="M137.17,-164.75C136.52,-157.8 135.58,-147.85 134.76,-139.13"/>
<polygon fill="#63b8ff" stroke="#63b8ff" points="138.23,-138.72 133.81,-129.09 131.27,-139.37 138.23,-138.72"/>
</a>
</g>
</g>
<!-- Node4&#45;&gt;Node7 -->
<g id="edge6_Node000004_Node000007" class="edge">
<title>Node4&#45;&gt;Node7</title>
<g id="a_edge6_Node000004_Node000007"><a xlink:title=" ">
<path fill="none" stroke="#63b8ff" d="M147.9,-164.66C168.48,-146.3 216.07,-103.81 241.78,-80.87"/>
<polygon fill="#63b8ff" stroke="#63b8ff" points="244.17,-83.43 249.3,-74.16 239.51,-78.21 244.17,-83.43"/>
</a>
</g>
</g>
<!-- Node8 -->
<g id="Node000008" class="node">
<title>Node8</title>
<g id="a_Node000008"><a xlink:title=" ">
<polygon fill="#e0e0e0" stroke="#999999" points="439,-19 395,-19 395,0 439,0 439,-19"/>
<text text-anchor="middle" x="417" y="-7" font-family="Helvetica,sans-Serif" font-size="10.00">string</text>
</a>
</g>
</g>
<!-- Node4&#45;&gt;Node8 -->
<g id="edge7_Node000004_Node000008" class="edge">
<title>Node4&#45;&gt;Node8</title>
<g id="a_edge7_Node000004_Node000008"><a xlink:title=" ">
<path fill="none" stroke="#63b8ff" d="M126.1,-164.98C110.44,-152.7 86.32,-129.38 99,-110 130.93,-61.22 309.76,-27.56 384.33,-15.46"/>
<polygon fill="#63b8ff" stroke="#63b8ff" points="385.23,-18.87 394.55,-13.83 384.13,-11.95 385.23,-18.87"/>
</a>
</g>
</g>
<!-- Node9&#45;&gt;Node8 -->
<g id="edge10_Node000009_Node000008" class="edge">
<title>Node9&#45;&gt;Node8</title>
<g id="a_edge10_Node000009_Node000008"><a xlink:title=" ">
<path fill="none" stroke="#63b8ff" d="M350.74,-164.69C353.33,-152.25 358.7,-128.96 366,-110 377.52,-80.09 395.39,-47.37 406.63,-27.91"/>
<polygon fill="#63b8ff" stroke="#63b8ff" points="409.67,-29.66 411.7,-19.26 403.63,-26.12 409.67,-29.66"/>
</a>
</g>
</g>
<!-- Node9&#45;&gt;Node10 -->
<g id="edge9_Node000009_Node000010" class="edge">
<title>Node9&#45;&gt;Node10</title>
<g id="a_edge9_Node000009_Node000010"><a xlink:title=" ">
<path fill="none" stroke="#63b8ff" d="M338.72,-164.98C329.16,-157.07 314.72,-145.11 303.22,-135.58"/>
<polygon fill="#63b8ff" stroke="#63b8ff" points="305.4,-132.85 295.47,-129.17 300.94,-138.24 305.4,-132.85"/>
</a>
</g>
</g>
<!-- Node11 -->
<g id="Node000011" class="node">
<title>Node11</title>
<g id="a_Node000011"><a xlink:title=" ">
<polygon fill="#e0e0e0" stroke="#999999" points="421.5,-129 374.5,-129 374.5,-110 421.5,-110 421.5,-129"/>
<text text-anchor="middle" x="398" y="-117" font-family="Helvetica,sans-Serif" font-size="10.00">vector</text>
</a>
</g>
</g>
<!-- Node9&#45;&gt;Node11 -->
<g id="edge11_Node000009_Node000011" class="edge">
<title>Node9&#45;&gt;Node11</title>
<g id="a_edge11_Node000009_Node000011"><a xlink:title=" ">
<path fill="none" stroke="#63b8ff" d="M357.09,-164.75C364.16,-157.11 374.59,-145.82 383.15,-136.56"/>
<polygon fill="#63b8ff" stroke="#63b8ff" points="385.84,-138.81 390.06,-129.09 380.7,-134.06 385.84,-138.81"/>
</a>
</g>
</g>
<!-- Node12 -->
<g id="Node000012" class="node">
<title>Node12</title>
<g id="a_Node000012"><a xlink:href="utils_8hpp.html" target="_top" xlink:title=" ">
<polygon fill="white" stroke="#666666" points="617.5,-129 516.5,-129 516.5,-110 617.5,-110 617.5,-129"/>
<text text-anchor="middle" x="567" y="-117" font-family="Helvetica,sans-Serif" font-size="10.00">uvgutils/utils.hpp</text>
</a>
</g>
</g>
<!-- Node9&#45;&gt;Node12 -->
<g id="edge12_Node000009_Node000012" class="edge">
<title>Node9&#45;&gt;Node12</title>
<g id="a_edge12_Node000009_Node000012"><a xlink:title=" ">
<path fill="none" stroke="#63b8ff" d="M384.03,-164.98C421.5,-155.87 481.05,-141.4 521.98,-131.45"/>
<polygon fill="#63b8ff" stroke="#63b8ff" points="522.81,-134.85 531.7,-129.08 521.16,-128.04 522.81,-134.85"/>
</a>
</g>
</g>
<!-- Node12&#45;&gt;Node7 -->
<g id="edge15_Node000012_Node000007" class="edge">
<title>Node12&#45;&gt;Node7</title>
<g id="a_edge15_Node000012_Node000007"><a xlink:title=" ">
<path fill="none" stroke="#63b8ff" d="M517.51,-109.98C455.05,-99.24 349.15,-81.01 294.3,-71.57"/>
<polygon fill="#63b8ff" stroke="#63b8ff" points="294.8,-68.11 284.35,-69.86 293.61,-75.01 294.8,-68.11"/>
</a>
</g>
</g>
<!-- Node13 -->
<g id="Node000013" class="node">
<title>Node13</title>
<g id="a_Node000013"><a xlink:title=" ">
<polygon fill="#e0e0e0" stroke="#999999" points="620,-74 578,-74 578,-55 620,-55 620,-74"/>
<text text-anchor="middle" x="599" y="-62" font-family="Helvetica,sans-Serif" font-size="10.00">array</text>
</a>
</g>
</g>
<!-- Node12&#45;&gt;Node13 -->
<g id="edge13_Node000012_Node000013" class="edge">
<title>Node12&#45;&gt;Node13</title>
<g id="a_edge13_Node000012_Node000013"><a xlink:title=" ">
<path fill="none" stroke="#63b8ff" d="M572.28,-109.75C576.71,-102.42 583.16,-91.73 588.62,-82.7"/>
<polygon fill="#63b8ff" stroke="#63b8ff" points="591.64,-84.46 593.81,-74.09 585.65,-80.84 591.64,-84.46"/>
</a>
</g>
</g>
<!-- Node12&#45;&gt;Node14 -->
<g id="edge14_Node000012_Node000014" class="edge">
<title>Node12&#45;&gt;Node14</title>
<g id="a_edge14_Node000012_Node000014"><a xlink:title=" ">
<path fill="none" stroke="#63b8ff" d="M617.71,-111.05C620.85,-110.67 623.97,-110.32 627,-110 867.45,-85.01 1158.06,-71.28 1259.2,-66.99"/>
<polygon fill="#63b8ff" stroke="#63b8ff" points="1259.64,-70.47 1269.49,-66.55 1259.35,-63.48 1259.64,-70.47"/>
</a>
</g>
</g>
<!-- Node15 -->
<g id="Node000015" class="node">
<title>Node15</title>
<g id="a_Node000015"><a xlink:title=" ">
<polygon fill="#e0e0e0" stroke="#999999" points="668,-19 612,-19 612,0 668,0 668,-19"/>
<text text-anchor="middle" x="640" y="-7" font-family="Helvetica,sans-Serif" font-size="10.00">iomanip</text>
</a>
</g>
</g>
<!-- Node12&#45;&gt;Node15 -->
<g id="edge16_Node000012_Node000015" class="edge">
<title>Node12&#45;&gt;Node15</title>
<g id="a_edge16_Node000012_Node000015"><a xlink:title=" ">
<path fill="none" stroke="#63b8ff" d="M585.81,-109.99C600.01,-102.56 618.73,-90.39 629,-74 637.36,-60.66 639.86,-42.79 640.4,-29.4"/>
<polygon fill="#63b8ff" stroke="#63b8ff" points="643.91,-29.05 640.48,-19.03 636.91,-29 643.91,-29.05"/>
</a>
</g>
</g>
<!-- Node16 -->
<g id="Node000016" class="node">
<title>Node16</title>
<g id="a_Node000016"><a xlink:title=" ">
<polygon fill="#e0e0e0" stroke="#999999" points="560,-74 516,-74 516,-55 560,-55 560,-74"/>
<text text-anchor="middle" x="538" y="-62" font-family="Helvetica,sans-Serif" font-size="10.00">limits</text>
</a>
</g>
</g>
<!-- Node12&#45;&gt;Node16 -->
<g id="edge17_Node000012_Node000016" class="edge">
<title>Node12&#45;&gt;Node16</title>
<g id="a_edge17_Node000012_Node000016"><a xlink:title=" ">
<path fill="none" stroke="#63b8ff" d="M562.21,-109.75C558.24,-102.49 552.47,-91.95 547.57,-82.98"/>
<polygon fill="#63b8ff" stroke="#63b8ff" points="550.57,-81.18 542.7,-74.09 544.43,-84.54 550.57,-81.18"/>
</a>
</g>
</g>
<!-- Node17 -->
<g id="Node000017" class="node">
<title>Node17</title>
<g id="a_Node000017"><a xlink:title=" ">
<polygon fill="#e0e0e0" stroke="#999999" points="935,-74 879,-74 879,-55 935,-55 935,-74"/>
<text text-anchor="middle" x="907" y="-62" font-family="Helvetica,sans-Serif" font-size="10.00">sstream</text>
</a>
</g>
</g>
<!-- Node12&#45;&gt;Node17 -->
<g id="edge18_Node000012_Node000017" class="edge">
<title>Node12&#45;&gt;Node17</title>
<g id="a_edge18_Node000012_Node000017"><a xlink:title=" ">
<path fill="none" stroke="#63b8ff" d="M617.53,-110.62C686.08,-99.94 807.04,-81.08 868.63,-71.48"/>
<polygon fill="#63b8ff" stroke="#63b8ff" points="869.36,-74.91 878.7,-69.91 868.28,-67.99 869.36,-74.91"/>
</a>
</g>
</g>
<!-- Node18 -->
<g id="Node000018" class="node">
<title>Node18</title>
<g id="a_Node000018"><a xlink:href="log_8hpp.html" target="_top" xlink:title=" ">
<polygon fill="white" stroke="#666666" points="737.5,-74 684.5,-74 684.5,-55 737.5,-55 737.5,-74"/>
<text text-anchor="middle" x="711" y="-62" font-family="Helvetica,sans-Serif" font-size="10.00">log.hpp</text>
</a>
</g>
</g>
<!-- Node12&#45;&gt;Node18 -->
<g id="edge19_Node000012_Node000018" class="edge">
<title>Node12&#45;&gt;Node18</title>
<g id="a_edge19_Node000012_Node000018"><a xlink:title=" ">
<path fill="none" stroke="#63b8ff" d="M590.14,-109.98C613.82,-101.27 650.87,-87.63 677.71,-77.75"/>
<polygon fill="#63b8ff" stroke="#63b8ff" points="679.27,-80.91 687.44,-74.17 676.85,-74.34 679.27,-80.91"/>
</a>
</g>
</g>
<!-- Node18&#45;&gt;Node8 -->
<g id="edge25_Node000018_Node000008" class="edge">
<title>Node18&#45;&gt;Node8</title>
<g id="a_edge25_Node000018_Node000008"><a xlink:title=" ">
<path fill="none" stroke="#63b8ff" d="M684.39,-58.7C630.37,-48.96 507.99,-26.9 449.42,-16.34"/>
<polygon fill="#63b8ff" stroke="#63b8ff" points="449.72,-12.84 439.26,-14.51 448.48,-19.73 449.72,-12.84"/>
</a>
</g>
</g>
<!-- Node18&#45;&gt;Node15 -->
<g id="edge22_Node000018_Node000015" class="edge">
<title>Node18&#45;&gt;Node15</title>
<g id="a_edge22_Node000018_Node000015"><a xlink:title=" ">
<path fill="none" stroke="#63b8ff" d="M699.59,-54.98C688.89,-47 672.66,-34.88 659.84,-25.31"/>
<polygon fill="#63b8ff" stroke="#63b8ff" points="661.72,-22.35 651.61,-19.17 657.53,-27.96 661.72,-22.35"/>
</a>
</g>
</g>
<!-- Node19 -->
<g id="Node000019" class="node">
<title>Node19</title>
<g id="a_Node000019"><a xlink:title=" ">
<polygon fill="#e0e0e0" stroke="#999999" points="736,-19 686,-19 686,0 736,0 736,-19"/>
<text text-anchor="middle" x="711" y="-7" font-family="Helvetica,sans-Serif" font-size="10.00">chrono</text>
</a>
</g>
</g>
<!-- Node18&#45;&gt;Node19 -->
<g id="edge20_Node000018_Node000019" class="edge">
<title>Node18&#45;&gt;Node19</title>
<g id="a_edge20_Node000018_Node000019"><a xlink:title=" ">
<path fill="none" stroke="#63b8ff" d="M711,-54.75C711,-47.8 711,-37.85 711,-29.13"/>
<polygon fill="#63b8ff" stroke="#63b8ff" points="714.5,-29.09 711,-19.09 707.5,-29.09 714.5,-29.09"/>
</a>
</g>
</g>
<!-- Node20 -->
<g id="Node000020" class="node">
<title>Node20</title>
<g id="a_Node000020"><a xlink:title=" ">
<polygon fill="#e0e0e0" stroke="#999999" points="807.5,-19 754.5,-19 754.5,0 807.5,0 807.5,-19"/>
<text text-anchor="middle" x="781" y="-7" font-family="Helvetica,sans-Serif" font-size="10.00">cstdarg</text>
</a>
</g>
</g>
<!-- Node18&#45;&gt;Node20 -->
<g id="edge21_Node000018_Node000020" class="edge">
<title>Node18&#45;&gt;Node20</title>
<g id="a_edge21_Node000018_Node000020"><a xlink:title=" ">
<path fill="none" stroke="#63b8ff" d="M722.25,-54.98C732.8,-47 748.8,-34.88 761.44,-25.31"/>
<polygon fill="#63b8ff" stroke="#63b8ff" points="763.69,-28 769.55,-19.17 759.46,-22.42 763.69,-28"/>
</a>
</g>
</g>
<!-- Node21 -->
<g id="Node000021" class="node">
<title>Node21</title>
<g id="a_Node000021"><a xlink:title=" ">
<polygon fill="#e0e0e0" stroke="#999999" points="1170,-19 1110,-19 1110,0 1170,0 1170,-19"/>
<text text-anchor="middle" x="1140" y="-7" font-family="Helvetica,sans-Serif" font-size="10.00">iostream</text>
</a>
</g>
</g>
<!-- Node18&#45;&gt;Node21 -->
<g id="edge23_Node000018_Node000021" class="edge">
<title>Node18&#45;&gt;Node21</title>
<g id="a_edge23_Node000018_Node000021"><a xlink:title=" ">
<path fill="none" stroke="#63b8ff" d="M737.51,-60.22C810.19,-51.25 1012.92,-26.2 1099.73,-15.48"/>
<polygon fill="#63b8ff" stroke="#63b8ff" points="1100.22,-18.94 1109.72,-14.24 1099.37,-11.99 1100.22,-18.94"/>
</a>
</g>
</g>
<!-- Node22 -->
<g id="Node000022" class="node">
<title>Node22</title>
<g id="a_Node000022"><a xlink:title=" ">
<polygon fill="#e0e0e0" stroke="#999999" points="874,-19 826,-19 826,0 874,0 874,-19"/>
<text text-anchor="middle" x="850" y="-7" font-family="Helvetica,sans-Serif" font-size="10.00">mutex</text>
</a>
</g>
</g>
<!-- Node18&#45;&gt;Node22 -->
<g id="edge24_Node000018_Node000022" class="edge">
<title>Node18&#45;&gt;Node22</title>
<g id="a_edge24_Node000018_Node000022"><a xlink:title=" ">
<path fill="none" stroke="#63b8ff" d="M733.33,-54.98C756.2,-46.27 791.96,-32.63 817.86,-22.75"/>
<polygon fill="#63b8ff" stroke="#63b8ff" points="819.16,-26 827.26,-19.17 816.67,-19.46 819.16,-26"/>
</a>
</g>
</g>
<!-- Node23&#45;&gt;Node7 -->
<g id="edge28_Node000023_Node000007" class="edge">
<title>Node23&#45;&gt;Node7</title>
<g id="a_edge28_Node000023_Node000007"><a xlink:title=" ">
<path fill="none" stroke="#63b8ff" d="M818.74,-172.6C738.31,-170.1 593.32,-161.08 474,-129 453.82,-123.58 450.73,-116.86 431,-110 384.46,-93.82 329.04,-80.51 293.93,-72.78"/>
<polygon fill="#63b8ff" stroke="#63b8ff" points="294.67,-69.36 284.16,-70.66 293.19,-76.2 294.67,-69.36"/>
</a>
</g>
</g>
<!-- Node23&#45;&gt;Node8 -->
<g id="edge34_Node000023_Node000008" class="edge">
<title>Node23&#45;&gt;Node8</title>
<g id="a_edge34_Node000023_Node000008"><a xlink:title=" ">
<path fill="none" stroke="#63b8ff" d="M818.75,-171.88C727.13,-168.5 559.65,-158.4 508,-129 466.82,-105.56 438.08,-55.24 424.99,-28.33"/>
<polygon fill="#63b8ff" stroke="#63b8ff" points="428.15,-26.84 420.74,-19.27 421.82,-29.81 428.15,-26.84"/>
</a>
</g>
</g>
<!-- Node23&#45;&gt;Node11 -->
<g id="edge35_Node000023_Node000011" class="edge">
<title>Node23&#45;&gt;Node11</title>
<g id="a_edge35_Node000023_Node000011"><a xlink:title=" ">
<path fill="none" stroke="#63b8ff" d="M818.65,-169.69C732.71,-163.83 571.75,-150.9 436,-129 434.54,-128.76 433.05,-128.51 431.55,-128.23"/>
<polygon fill="#63b8ff" stroke="#63b8ff" points="432.12,-124.78 421.63,-126.25 430.75,-131.64 432.12,-124.78"/>
</a>
</g>
</g>
<!-- Node23&#45;&gt;Node12 -->
<g id="edge40_Node000023_Node000012" class="edge">
<title>Node23&#45;&gt;Node12</title>
<g id="a_edge40_Node000023_Node000012"><a xlink:title=" ">
<path fill="none" stroke="#63b8ff" d="M829.71,-164.98C774.58,-155.65 686.15,-140.67 627.32,-130.71"/>
<polygon fill="#63b8ff" stroke="#63b8ff" points="627.87,-127.26 617.42,-129.04 626.7,-134.16 627.87,-127.26"/>
</a>
</g>
</g>
<!-- Node23&#45;&gt;Node14 -->
<g id="edge27_Node000023_Node000014" class="edge">
<title>Node23&#45;&gt;Node14</title>
<g id="a_edge27_Node000023_Node000014"><a xlink:title=" ">
<path fill="none" stroke="#63b8ff" d="M941.12,-171.28C1050.48,-166.69 1270.47,-154.38 1294,-129 1304.89,-117.26 1304.07,-98.41 1301.32,-84.29"/>
<polygon fill="#63b8ff" stroke="#63b8ff" points="1304.64,-83.11 1298.89,-74.21 1297.83,-84.75 1304.64,-83.11"/>
</a>
</g>
</g>
<!-- Node23&#45;&gt;Node17 -->
<g id="edge33_Node000023_Node000017" class="edge">
<title>Node23&#45;&gt;Node17</title>
<g id="a_edge33_Node000023_Node000017"><a xlink:title=" ">
<path fill="none" stroke="#63b8ff" d="M941.19,-169.9C969.68,-164.78 1001.15,-153.46 1019,-129 1041.23,-98.54 985.52,-80.65 944.94,-71.99"/>
<polygon fill="#63b8ff" stroke="#63b8ff" points="945.5,-68.53 935.01,-69.99 944.12,-75.39 945.5,-68.53"/>
</a>
</g>
</g>
<!-- Node23&#45;&gt;Node21 -->
<g id="edge29_Node000023_Node000021" class="edge">
<title>Node23&#45;&gt;Node21</title>
<g id="a_edge29_Node000023_Node000021"><a xlink:title=" ">
<path fill="none" stroke="#63b8ff" d="M941.27,-170.76C1053.54,-165.23 1283.39,-151.31 1312,-129 1338.87,-108.05 1353.2,-81.67 1332,-55 1313.43,-31.63 1230.98,-19.45 1180.36,-14.05"/>
<polygon fill="#63b8ff" stroke="#63b8ff" points="1180.68,-10.57 1170.38,-13.04 1179.97,-17.53 1180.68,-10.57"/>
</a>
</g>
</g>
<!-- Node23&#45;&gt;Node24 -->
<g id="edge30_Node000023_Node000024" class="edge">
<title>Node23&#45;&gt;Node24</title>
<g id="a_edge30_Node000023_Node000024"><a xlink:title=" ">
<path fill="none" stroke="#63b8ff" d="M941.11,-169.93C1033.3,-164.09 1213.32,-150.89 1365,-129 1366.27,-128.82 1367.56,-128.62 1368.86,-128.41"/>
<polygon fill="#63b8ff" stroke="#63b8ff" points="1369.67,-131.83 1378.93,-126.67 1368.48,-124.93 1369.67,-131.83"/>
</a>
</g>
</g>
<!-- Node25 -->
<g id="Node000025" class="node">
<title>Node25</title>
<g id="a_Node000025"><a xlink:title=" ">
<polygon fill="#e0e0e0" stroke="#999999" points="1113.5,-129 1066.5,-129 1066.5,-110 1113.5,-110 1113.5,-129"/>
<text text-anchor="middle" x="1090" y="-117" font-family="Helvetica,sans-Serif" font-size="10.00">queue</text>
</a>
</g>
</g>
<!-- Node23&#45;&gt;Node25 -->
<g id="edge31_Node000023_Node000025" class="edge">
<title>Node23&#45;&gt;Node25</title>
<g id="a_edge31_Node000023_Node000025"><a xlink:title=" ">
<path fill="none" stroke="#63b8ff" d="M913.74,-164.98C953.01,-155.07 1017.47,-138.81 1056.6,-128.93"/>
<polygon fill="#63b8ff" stroke="#63b8ff" points="1057.6,-132.29 1066.44,-126.45 1055.89,-125.5 1057.6,-132.29"/>
</a>
</g>
</g>
<!-- Node26 -->
<g id="Node000026" class="node">
<title>Node26</title>
<g id="a_Node000026"><a xlink:title=" ">
<polygon fill="#e0e0e0" stroke="#999999" points="1202.5,-129 1131.5,-129 1131.5,-110 1202.5,-110 1202.5,-129"/>
<text text-anchor="middle" x="1167" y="-117" font-family="Helvetica,sans-Serif" font-size="10.00">semaphore</text>
</a>
</g>
</g>
<!-- Node23&#45;&gt;Node26 -->
<g id="edge32_Node000023_Node000026" class="edge">
<title>Node23&#45;&gt;Node26</title>
<g id="a_edge32_Node000023_Node000026"><a xlink:title=" ">
<path fill="none" stroke="#63b8ff" d="M927.52,-164.94C974.42,-156.46 1048.44,-142.99 1121.62,-129.25"/>
<polygon fill="#63b8ff" stroke="#63b8ff" points="1122.28,-132.68 1131.46,-127.4 1120.99,-125.8 1122.28,-132.68"/>
</a>
</g>
</g>
<!-- Node27 -->
<g id="Node000027" class="node">
<title>Node27</title>
<g id="a_Node000027"><a xlink:title=" ">
<polygon fill="#e0e0e0" stroke="#999999" points="1285,-129 1221,-129 1221,-110 1285,-110 1285,-129"/>
<text text-anchor="middle" x="1253" y="-117" font-family="Helvetica,sans-Serif" font-size="10.00">algorithm</text>
</a>
</g>
</g>
<!-- Node23&#45;&gt;Node27 -->
<g id="edge36_Node000023_Node000027" class="edge">
<title>Node23&#45;&gt;Node27</title>
<g id="a_edge36_Node000023_Node000027"><a xlink:title=" ">
<path fill="none" stroke="#63b8ff" d="M941.08,-166.63C1005.69,-159.07 1110.79,-145.93 1210.84,-129.09"/>
<polygon fill="#63b8ff" stroke="#63b8ff" points="1211.54,-132.52 1220.81,-127.4 1210.37,-125.62 1211.54,-132.52"/>
</a>
</g>
</g>
<!-- Node28 -->
<g id="Node000028" class="node">
<title>Node28</title>
<g id="a_Node000028"><a xlink:title=" ">
<polygon fill="#e0e0e0" stroke="#999999" points="728.5,-129 635.5,-129 635.5,-110 728.5,-110 728.5,-129"/>
<text text-anchor="middle" x="682" y="-117" font-family="Helvetica,sans-Serif" font-size="10.00">unordered_map</text>
</a>
</g>
</g>
<!-- Node23&#45;&gt;Node28 -->
<g id="edge37_Node000023_Node000028" class="edge">
<title>Node23&#45;&gt;Node28</title>
<g id="a_edge37_Node000023_Node000028"><a xlink:title=" ">
<path fill="none" stroke="#63b8ff" d="M848.19,-164.98C814.51,-155.97 761.2,-141.7 724.08,-131.76"/>
<polygon fill="#63b8ff" stroke="#63b8ff" points="724.63,-128.29 714.06,-129.08 722.82,-135.05 724.63,-128.29"/>
</a>
</g>
</g>
<!-- Node29 -->
<g id="Node000029" class="node">
<title>Node29</title>
<g id="a_Node000029"><a xlink:title=" ">
<polygon fill="#e0e0e0" stroke="#999999" points="873.5,-129 746.5,-129 746.5,-110 873.5,-110 873.5,-129"/>
<text text-anchor="middle" x="810" y="-117" font-family="Helvetica,sans-Serif" font-size="10.00">../utils/parameters.hpp</text>
</a>
</g>
</g>
<!-- Node23&#45;&gt;Node29 -->
<g id="edge38_Node000023_Node000029" class="edge">
<title>Node23&#45;&gt;Node29</title>
<g id="a_edge38_Node000023_Node000029"><a xlink:title=" ">
<path fill="none" stroke="#63b8ff" d="M868.75,-164.98C858.2,-157 842.2,-144.88 829.56,-135.31"/>
<polygon fill="#63b8ff" stroke="#63b8ff" points="831.54,-132.42 821.45,-129.17 827.31,-138 831.54,-132.42"/>
</a>
</g>
</g>
<!-- Node30 -->
<g id="Node000030" class="node">
<title>Node30</title>
<g id="a_Node000030"><a xlink:title=" ">
<polygon fill="#e0e0e0" stroke="#999999" points="1010,-129 892,-129 892,-110 1010,-110 1010,-129"/>
<text text-anchor="middle" x="951" y="-117" font-family="Helvetica,sans-Serif" font-size="10.00">../utils/constants.hpp</text>
</a>
</g>
</g>
<!-- Node23&#45;&gt;Node30 -->
<g id="edge39_Node000023_Node000030" class="edge">
<title>Node23&#45;&gt;Node30</title>
<g id="a_edge39_Node000023_Node000030"><a xlink:title=" ">
<path fill="none" stroke="#63b8ff" d="M891.41,-164.98C902.11,-157 918.34,-144.88 931.16,-135.31"/>
<polygon fill="#63b8ff" stroke="#63b8ff" points="933.47,-137.96 939.39,-129.17 929.28,-132.35 933.47,-137.96"/>
</a>
</g>
</g>
</g>
</svg>

<g id="navigator" transform="translate(0 0)" fill="#404254">
  <rect fill="#f2f5e9" fill-opacity="0.5" stroke="#606060" stroke-width=".5" x="0" y="0" width="60" height="60"/>
  <use id="zoomplus" xlink:href="#zoomPlus" x="17" y="9" onmousedown="handleZoom(evt,'in')"/>
  <use id="zoomminus" xlink:href="#zoomMin" x="42" y="9" onmousedown="handleZoom(evt,'out')"/>
  <use id="reset" xlink:href="#resetDef" x="30" y="36" onmousedown="handleReset()"/>
   <use id="arrowup" xlink:href="#arrowUp" x="0" y="0" onmousedown="handlePan(0,-1)"/>
  <use id="arrowright" xlink:href="#arrowRight" x="0" y="0" onmousedown="handlePan(1,0)"/>
  <use id="arrowdown" xlink:href="#arrowDown" x="0" y="0" onmousedown="handlePan(0,1)"/>
  <use id="arrowleft" xlink:href="#arrowLeft" x="0" y="0" onmousedown="handlePan(-1,0)"/>
</g>
<svg viewBox="0 0 15 15" width="100%" height="30px" preserveAspectRatio="xMaxYMin meet">
 <g id="arrow_out" transform="scale(0.3 0.3)">
  <a xlink:href="vps_8cpp__incl_org.svg" target="_base">
   <rect id="button" ry="5" rx="5" y="6" x="6" height="38" width="38"
        fill="#f2f5e9" fill-opacity="0.5" stroke="#606060" stroke-width="1.0"/>
   <path id="arrow"
     d="M 11.500037,31.436501 C 11.940474,20.09759 22.043105,11.32322 32.158766,21.979434 L 37.068811,17.246167 C 37.068811,17.246167 37.088388,32 37.088388,32 L 22.160133,31.978069 C 22.160133,31.978069 26.997745,27.140456 26.997745,27.140456 C 18.528582,18.264221 13.291696,25.230495 11.500037,31.436501 z"
     style="fill:#404040;"/>
  </a>
 </g>
</svg>

<style type='text/css'>
<![CDATA[
[data-mouse-over-selected='false'] { opacity: 0.7; }
[data-mouse-over-selected='true']  { opacity: 1.0; }
]]>
</style>
<script type="application/ecmascript"><![CDATA[
document.addEventListener('DOMContentLoaded', (event) => {
  highlightEdges();
  highlightAdjacentNodes();
});
]]></script>
</svg>
