<?xml version="1.0" encoding="UTF-8" standalone="no"?>
<!DOCTYPE svg PUBLIC "-//W3C//DTD SVG 1.1//EN"
 "http://www.w3.org/Graphics/SVG/1.1/DTD/svg11.dtd">
<!-- Generated by graphviz version 2.43.0 (0)
 -->
<!-- Title: src/libuvgvpccenc/bitstreamGeneration/vps.cpp Pages: 1 -->
<!--zoomable 313 -->

<svg id="main" version="1.1" xmlns="http://www.w3.org/2000/svg" xmlns:xlink="http://www.w3.org/1999/xlink" xml:space="preserve" onload="init(evt)">
<style type="text/css"><![CDATA[
.node, .edge {opacity: 0.7;}
.node.selected, .edge.selected {opacity: 1;}
.edge:hover path { stroke: red; }
.edge:hover polygon { stroke: red; fill: red; }
]]></style>

<defs>
  <circle id="rim" cx="0" cy="0" r="7"/>
  <circle id="rim2" cx="0" cy="0" r="3.5"/>
  <g id="zoomPlus">
    <use xlink:href="#rim" fill="#404040"><set attributeName="fill" to="#808080" begin="zoomplus.mouseover" end="zoomplus.mouseout"/></use>
    <path d="M-4,0h8M0,-4v8" fill="none" stroke="white" stroke-width="1.5" pointer-events="none"/>
  </g>
  <g id="zoomMin">
    <use xlink:href="#rim" fill="#404040"><set attributeName="fill" to="#808080" begin="zoomminus.mouseover" end="zoomminus.mouseout"/></use>
    <path d="M-4,0h8" fill="none" stroke="white" stroke-width="1.5" pointer-events="none"/>
  </g>
  <g id="arrowUp" transform="translate(30 24)">
    <use xlink:href="#rim"/>
    <path pointer-events="none" fill="none" stroke="white" stroke-width="1.5" d="M0,-3.0v7 M-2.5,-0.5L0,-3.0L2.5,-0.5"/>
  </g>
  <g id="arrowRight" transform="rotate(90) translate(36 -43)">
    <use xlink:href="#rim"/>
    <path pointer-events="none" fill="none" stroke="white" stroke-width="1.5" d="M0,-3.0v7 M-2.5,-0.5L0,-3.0L2.5,-0.5"/>
  </g>
  <g id="arrowDown" transform="rotate(180) translate(-30 -48)">
    <use xlink:href="#rim"/>
    <path pointer-events="none" fill="none" stroke="white" stroke-width="1.5" d="M0,-3.0v7 M-2.5,-0.5L0,-3.0L2.5,-0.5"/>
  </g>
  <g id="arrowLeft" transform="rotate(270) translate(-36 17)">
    <use xlink:href="#rim"/>
    <path pointer-events="none" fill="none" stroke="white" stroke-width="1.5" d="M0,-3.0v7 M-2.5,-0.5L0,-3.0L2.5,-0.5"/>
  </g>
  <g id="resetDef">
    <use xlink:href="#rim2" fill="#404040"><set attributeName="fill" to="#808080" begin="reset.mouseover" end="reset.mouseout"/></use>
  </g>
</defs>
<script type="application/ecmascript">
var viewWidth = 1363;
var viewHeight = 313;
var sectionId = 'dynsection-0';
</script>
<script type="application/ecmascript" xlink:href="svg.min.js"/>
<svg id="graph" class="graph">
<g id="viewport">
<title>src/libuvgvpccenc/bitstreamGeneration/vps.cpp</title>
<!-- Node1 -->
<g id="Node000001" class="node">
<title>Node1</title>
<g id="a_Node000001"><a xlink:title=" ">
<polygon fill="#999999" stroke="#666666" points="360.5,-305 206.5,-305 206.5,-275 360.5,-275 360.5,-305"/>
<text text-anchor="start" x="214.5" y="-293" font-family="Helvetica,sans-Serif" font-size="10.00">src/libuvgvpccenc/bitstream</text>
<text text-anchor="middle" x="283.5" y="-282" font-family="Helvetica,sans-Serif" font-size="10.00">Generation/vps.cpp</text>
</a>
</g>
</g>
<!-- Node2 -->
<g id="Node000002" class="node">
<title>Node2</title>
<g id="a_Node000002"><a xlink:href="vps_8hpp.html" target="_top" xlink:title=" ">
<polygon fill="white" stroke="#666666" points="283,-239 228,-239 228,-220 283,-220 283,-239"/>
<text text-anchor="middle" x="255.5" y="-227" font-family="Helvetica,sans-Serif" font-size="10.00">vps.hpp</text>
</a>
</g>
</g>
<!-- Node1&#45;&gt;Node2 -->
<g id="edge1_Node000001_Node000002" class="edge">
<title>Node1&#45;&gt;Node2</title>
<g id="a_edge1_Node000001_Node000002"><a xlink:title=" ">
<path fill="none" stroke="#63b8ff" d="M276.72,-274.84C272.91,-266.87 268.11,-256.84 264.04,-248.33"/>
<polygon fill="#63b8ff" stroke="#63b8ff" points="267.17,-246.77 259.7,-239.27 260.86,-249.8 267.17,-246.77"/>
</a>
</g>
</g>
<!-- Node3 -->
<g id="Node000003" class="node">
<title>Node3</title>
<g id="a_Node000003"><a xlink:title=" ">
<polygon fill="#e0e0e0" stroke="#999999" points="47,-184 0,-184 0,-165 47,-165 47,-184"/>
<text text-anchor="middle" x="23.5" y="-172" font-family="Helvetica,sans-Serif" font-size="10.00">cmath</text>
</a>
</g>
</g>
<!-- Node1&#45;&gt;Node3 -->
<g id="edge42_Node000001_Node000003" class="edge">
<title>Node1&#45;&gt;Node3</title>
<g id="a_edge42_Node000001_Node000003"><a xlink:title=" ">
<path fill="none" stroke="#63b8ff" d="M247.52,-274.9C222.89,-265.12 189.57,-251.64 160.5,-239 122.17,-222.34 78.45,-201.8 50.92,-188.68"/>
<polygon fill="#63b8ff" stroke="#63b8ff" points="52.08,-185.36 41.55,-184.2 49.06,-191.67 52.08,-185.36"/>
</a>
</g>
</g>
<!-- Node4 -->
<g id="Node000004" class="node">
<title>Node4</title>
<g id="a_Node000004"><a xlink:href="bitstream__util_8hpp.html" target="_top" xlink:title=" ">
<polygon fill="white" stroke="#666666" points="171.5,-184 65.5,-184 65.5,-165 171.5,-165 171.5,-184"/>
<text text-anchor="middle" x="118.5" y="-172" font-family="Helvetica,sans-Serif" font-size="10.00">bitstream_util.hpp</text>
</a>
</g>
</g>
<!-- Node1&#45;&gt;Node4 -->
<g id="edge47_Node000001_Node000004" class="edge">
<title>Node1&#45;&gt;Node4</title>
<g id="a_edge47_Node000001_Node000004"><a xlink:title=" ">
<path fill="none" stroke="#63b8ff" d="M249.93,-274.79C230.35,-265.8 205.62,-253.22 185.5,-239 165.77,-225.06 146.05,-205.52 133.17,-191.81"/>
<polygon fill="#63b8ff" stroke="#63b8ff" points="135.44,-189.11 126.09,-184.13 130.29,-193.86 135.44,-189.11"/>
</a>
</g>
</g>
<!-- Node7 -->
<g id="Node000007" class="node">
<title>Node7</title>
<g id="a_Node000007"><a xlink:title=" ">
<polygon fill="#e0e0e0" stroke="#999999" points="424.5,-74 374.5,-74 374.5,-55 424.5,-55 424.5,-74"/>
<text text-anchor="middle" x="399.5" y="-62" font-family="Helvetica,sans-Serif" font-size="10.00">cstdint</text>
</a>
</g>
</g>
<!-- Node1&#45;&gt;Node7 -->
<g id="edge44_Node000001_Node000007" class="edge">
<title>Node1&#45;&gt;Node7</title>
<g id="a_edge44_Node000001_Node000007"><a xlink:title=" ">
<path fill="none" stroke="#63b8ff" d="M257.34,-274.93C243.75,-266.3 228.03,-254.03 218.5,-239 202.89,-214.37 176.2,-132.7 194.5,-110 215.4,-84.07 311.08,-72.48 364.01,-67.97"/>
<polygon fill="#63b8ff" stroke="#63b8ff" points="364.62,-71.43 374.31,-67.14 364.06,-64.46 364.62,-71.43"/>
</a>
</g>
</g>
<!-- Node10 -->
<g id="Node000010" class="node">
<title>Node10</title>
<g id="a_Node000010"><a xlink:title=" ">
<polygon fill="#e0e0e0" stroke="#999999" points="1050,-74 997,-74 997,-55 1050,-55 1050,-74"/>
<text text-anchor="middle" x="1023.5" y="-62" font-family="Helvetica,sans-Serif" font-size="10.00">cstddef</text>
</a>
</g>
</g>
<!-- Node1&#45;&gt;Node10 -->
<g id="edge43_Node000001_Node000010" class="edge">
<title>Node1&#45;&gt;Node10</title>
<g id="a_edge43_Node000001_Node000010"><a xlink:title=" ">
<path fill="none" stroke="#63b8ff" d="M360.51,-289.85C583.59,-290.49 1222.52,-278.96 1350.5,-129 1355.98,-122.58 1356.05,-116.36 1350.5,-110 1313.16,-67.23 1137.67,-64.01 1060.3,-64.74"/>
<polygon fill="#63b8ff" stroke="#63b8ff" points="1060.01,-61.24 1050.05,-64.87 1060.1,-68.24 1060.01,-61.24"/>
</a>
</g>
</g>
<!-- Node11 -->
<g id="Node000011" class="node">
<title>Node11</title>
<g id="a_Node000011"><a xlink:title=" ">
<polygon fill="#e0e0e0" stroke="#999999" points="269,-129 204,-129 204,-110 269,-110 269,-129"/>
<text text-anchor="middle" x="236.5" y="-117" font-family="Helvetica,sans-Serif" font-size="10.00">stdexcept</text>
</a>
</g>
</g>
<!-- Node1&#45;&gt;Node11 -->
<g id="edge46_Node000001_Node000011" class="edge">
<title>Node1&#45;&gt;Node11</title>
<g id="a_edge46_Node000001_Node000011"><a xlink:title=" ">
<path fill="none" stroke="#63b8ff" d="M288.14,-274.78C292.04,-260.69 296.29,-238.57 291.5,-220 283.36,-188.47 262.87,-156.25 249.32,-137.33"/>
<polygon fill="#63b8ff" stroke="#63b8ff" points="252.07,-135.15 243.32,-129.17 246.43,-139.29 252.07,-135.15"/>
</a>
</g>
</g>
<!-- Node23 -->
<g id="Node000023" class="node">
<title>Node23</title>
<g id="a_Node000023"><a xlink:href="uvgvpcc_8hpp.html" target="_top" xlink:title=" ">
<polygon fill="white" stroke="#666666" points="785.5,-184 663.5,-184 663.5,-165 785.5,-165 785.5,-184"/>
<text text-anchor="middle" x="724.5" y="-172" font-family="Helvetica,sans-Serif" font-size="10.00">uvgvpcc/uvgvpcc.hpp</text>
</a>
</g>
</g>
<!-- Node1&#45;&gt;Node23 -->
<g id="edge48_Node000001_Node000023" class="edge">
<title>Node1&#45;&gt;Node23</title>
<g id="a_edge48_Node000001_Node000023"><a xlink:title=" ">
<path fill="none" stroke="#63b8ff" d="M338.02,-274.97C426.75,-252.13 600.59,-207.39 681.36,-186.6"/>
<polygon fill="#63b8ff" stroke="#63b8ff" points="682.38,-189.95 691.19,-184.07 680.64,-183.17 682.38,-189.95"/>
</a>
</g>
</g>
<!-- Node24 -->
<g id="Node000024" class="node">
<title>Node24</title>
<g id="a_Node000024"><a xlink:title=" ">
<polygon fill="#e0e0e0" stroke="#999999" points="1341.5,-129 1283.5,-129 1283.5,-110 1341.5,-110 1341.5,-129"/>
<text text-anchor="middle" x="1312.5" y="-117" font-family="Helvetica,sans-Serif" font-size="10.00">memory</text>
</a>
</g>
</g>
<!-- Node1&#45;&gt;Node24 -->
<g id="edge45_Node000001_Node000024" class="edge">
<title>Node1&#45;&gt;Node24</title>
<g id="a_edge45_Node000001_Node000024"><a xlink:title=" ">
<path fill="none" stroke="#63b8ff" d="M360.84,-276.34C566.24,-242.7 1120.13,-152 1272.97,-126.97"/>
<polygon fill="#63b8ff" stroke="#63b8ff" points="1273.96,-130.36 1283.27,-125.29 1272.83,-123.45 1273.96,-130.36"/>
</a>
</g>
</g>
<!-- Node2&#45;&gt;Node3 -->
<g id="edge2_Node000002_Node000003" class="edge">
<title>Node2&#45;&gt;Node3</title>
<g id="a_edge2_Node000002_Node000003"><a xlink:title=" ">
<path fill="none" stroke="#63b8ff" d="M227.75,-222.59C191.04,-214.7 124.08,-200.11 57.14,-184.09"/>
<polygon fill="#63b8ff" stroke="#63b8ff" points="57.81,-180.65 47.27,-181.72 56.18,-187.46 57.81,-180.65"/>
</a>
</g>
</g>
<!-- Node2&#45;&gt;Node4 -->
<g id="edge3_Node000002_Node000004" class="edge">
<title>Node2&#45;&gt;Node4</title>
<g id="a_edge3_Node000002_Node000004"><a xlink:title=" ">
<path fill="none" stroke="#63b8ff" d="M233.49,-219.98C211.05,-211.3 176.02,-197.75 150.51,-187.88"/>
<polygon fill="#63b8ff" stroke="#63b8ff" points="151.5,-184.51 140.91,-184.17 148.98,-191.04 151.5,-184.51"/>
</a>
</g>
</g>
<!-- Node9 -->
<g id="Node000009" class="node">
<title>Node9</title>
<g id="a_Node000009"><a xlink:href="parameters_8hpp.html" target="_top" xlink:title=" ">
<polygon fill="white" stroke="#666666" points="477.5,-184 359.5,-184 359.5,-165 477.5,-165 477.5,-184"/>
<text text-anchor="middle" x="418.5" y="-172" font-family="Helvetica,sans-Serif" font-size="10.00">utils/parameters.hpp</text>
</a>
</g>
</g>
<!-- Node2&#45;&gt;Node9 -->
<g id="edge8_Node000002_Node000009" class="edge">
<title>Node2&#45;&gt;Node9</title>
<g id="a_edge8_Node000002_Node000009"><a xlink:title=" ">
<path fill="none" stroke="#63b8ff" d="M281.69,-219.98C308.94,-211.13 351.8,-197.19 382.28,-187.28"/>
<polygon fill="#63b8ff" stroke="#63b8ff" points="383.68,-190.5 392.11,-184.08 381.51,-183.85 383.68,-190.5"/>
</a>
</g>
</g>
<!-- Node2&#45;&gt;Node23 -->
<g id="edge27_Node000002_Node000023" class="edge">
<title>Node2&#45;&gt;Node23</title>
<g id="a_edge27_Node000002_Node000023"><a xlink:title=" ">
<path fill="none" stroke="#63b8ff" d="M283.09,-225.38C354.54,-217.31 547.39,-195.51 652.99,-183.58"/>
<polygon fill="#63b8ff" stroke="#63b8ff" points="653.7,-187.02 663.24,-182.42 652.91,-180.07 653.7,-187.02"/>
</a>
</g>
</g>
<!-- Node5 -->
<g id="Node000005" class="node">
<title>Node5</title>
<g id="a_Node000005"><a xlink:title=" ">
<polygon fill="#e0e0e0" stroke="#999999" points="377.5,-129 325.5,-129 325.5,-110 377.5,-110 377.5,-129"/>
<text text-anchor="middle" x="351.5" y="-117" font-family="Helvetica,sans-Serif" font-size="10.00">cassert</text>
</a>
</g>
</g>
<!-- Node4&#45;&gt;Node5 -->
<g id="edge4_Node000004_Node000005" class="edge">
<title>Node4&#45;&gt;Node5</title>
<g id="a_edge4_Node000004_Node000005"><a xlink:title=" ">
<path fill="none" stroke="#63b8ff" d="M155.94,-164.98C199.88,-154.99 272.24,-138.53 315.54,-128.68"/>
<polygon fill="#63b8ff" stroke="#63b8ff" points="316.39,-132.08 325.36,-126.45 314.84,-125.25 316.39,-132.08"/>
</a>
</g>
</g>
<!-- Node6 -->
<g id="Node000006" class="node">
<title>Node6</title>
<g id="a_Node000006"><a xlink:title=" ">
<polygon fill="#e0e0e0" stroke="#999999" points="71.5,-129 21.5,-129 21.5,-110 71.5,-110 71.5,-129"/>
<text text-anchor="middle" x="46.5" y="-117" font-family="Helvetica,sans-Serif" font-size="10.00">cstring</text>
</a>
</g>
</g>
<!-- Node4&#45;&gt;Node6 -->
<g id="edge5_Node000004_Node000006" class="edge">
<title>Node4&#45;&gt;Node6</title>
<g id="a_edge5_Node000004_Node000006"><a xlink:title=" ">
<path fill="none" stroke="#63b8ff" d="M106.93,-164.98C96.08,-157 79.62,-144.88 66.62,-135.31"/>
<polygon fill="#63b8ff" stroke="#63b8ff" points="68.41,-132.28 58.28,-129.17 64.26,-137.92 68.41,-132.28"/>
</a>
</g>
</g>
<!-- Node4&#45;&gt;Node7 -->
<g id="edge6_Node000004_Node000007" class="edge">
<title>Node4&#45;&gt;Node7</title>
<g id="a_edge6_Node000004_Node000007"><a xlink:title=" ">
<path fill="none" stroke="#63b8ff" d="M121.74,-164.9C127.47,-150.95 140.79,-123.58 161.5,-110 194.35,-88.47 306.06,-74.66 363.99,-68.77"/>
<polygon fill="#63b8ff" stroke="#63b8ff" points="364.55,-72.23 374.15,-67.77 363.86,-65.27 364.55,-72.23"/>
</a>
</g>
</g>
<!-- Node8 -->
<g id="Node000008" class="node">
<title>Node8</title>
<g id="a_Node000008"><a xlink:title=" ">
<polygon fill="#e0e0e0" stroke="#999999" points="406.5,-19 362.5,-19 362.5,0 406.5,0 406.5,-19"/>
<text text-anchor="middle" x="384.5" y="-7" font-family="Helvetica,sans-Serif" font-size="10.00">string</text>
</a>
</g>
</g>
<!-- Node4&#45;&gt;Node8 -->
<g id="edge7_Node000004_Node000008" class="edge">
<title>Node4&#45;&gt;Node8</title>
<g id="a_edge7_Node000004_Node000008"><a xlink:title=" ">
<path fill="none" stroke="#63b8ff" d="M118.93,-164.96C120.05,-151.59 124.07,-125.62 138.5,-110 196.55,-47.16 299.83,-23.13 352.17,-14.67"/>
<polygon fill="#63b8ff" stroke="#63b8ff" points="352.88,-18.1 362.23,-13.14 351.82,-11.18 352.88,-18.1"/>
</a>
</g>
</g>
<!-- Node9&#45;&gt;Node8 -->
<g id="edge11_Node000009_Node000008" class="edge">
<title>Node9&#45;&gt;Node8</title>
<g id="a_edge11_Node000009_Node000008"><a xlink:title=" ">
<path fill="none" stroke="#63b8ff" d="M371.36,-164.95C350.87,-158.64 328.78,-147.75 316.5,-129 292.83,-92.85 337.27,-48.15 364.88,-25.37"/>
<polygon fill="#63b8ff" stroke="#63b8ff" points="367.18,-28.01 372.82,-19.04 362.82,-22.54 367.18,-28.01"/>
</a>
</g>
</g>
<!-- Node9&#45;&gt;Node10 -->
<g id="edge9_Node000009_Node000010" class="edge">
<title>Node9&#45;&gt;Node10</title>
<g id="a_edge9_Node000009_Node000010"><a xlink:title=" ">
<path fill="none" stroke="#63b8ff" d="M463.54,-164.98C529.23,-152.61 655.17,-129.06 762.5,-110 842.36,-95.82 936.13,-80.05 986.69,-71.61"/>
<polygon fill="#63b8ff" stroke="#63b8ff" points="987.51,-75.02 996.8,-69.93 986.36,-68.12 987.51,-75.02"/>
</a>
</g>
</g>
<!-- Node9&#45;&gt;Node11 -->
<g id="edge10_Node000009_Node000011" class="edge">
<title>Node9&#45;&gt;Node11</title>
<g id="a_edge10_Node000009_Node000011"><a xlink:title=" ">
<path fill="none" stroke="#63b8ff" d="M389.26,-164.98C358.44,-156.01 309.72,-141.82 275.61,-131.89"/>
<polygon fill="#63b8ff" stroke="#63b8ff" points="276.55,-128.52 265.97,-129.08 274.59,-135.24 276.55,-128.52"/>
</a>
</g>
</g>
<!-- Node12 -->
<g id="Node000012" class="node">
<title>Node12</title>
<g id="a_Node000012"><a xlink:title=" ">
<polygon fill="#e0e0e0" stroke="#999999" points="443,-129 396,-129 396,-110 443,-110 443,-129"/>
<text text-anchor="middle" x="419.5" y="-117" font-family="Helvetica,sans-Serif" font-size="10.00">vector</text>
</a>
</g>
</g>
<!-- Node9&#45;&gt;Node12 -->
<g id="edge12_Node000009_Node000012" class="edge">
<title>Node9&#45;&gt;Node12</title>
<g id="a_edge12_Node000009_Node000012"><a xlink:title=" ">
<path fill="none" stroke="#63b8ff" d="M418.67,-164.75C418.8,-157.8 418.98,-147.85 419.15,-139.13"/>
<polygon fill="#63b8ff" stroke="#63b8ff" points="422.65,-139.15 419.34,-129.09 415.65,-139.02 422.65,-139.15"/>
</a>
</g>
</g>
<!-- Node13 -->
<g id="Node000013" class="node">
<title>Node13</title>
<g id="a_Node000013"><a xlink:href="utils_8hpp.html" target="_top" xlink:title=" ">
<polygon fill="white" stroke="#666666" points="639,-129 538,-129 538,-110 639,-110 639,-129"/>
<text text-anchor="middle" x="588.5" y="-117" font-family="Helvetica,sans-Serif" font-size="10.00">uvgutils/utils.hpp</text>
</a>
</g>
</g>
<!-- Node9&#45;&gt;Node13 -->
<g id="edge13_Node000009_Node000013" class="edge">
<title>Node9&#45;&gt;Node13</title>
<g id="a_edge13_Node000009_Node000013"><a xlink:title=" ">
<path fill="none" stroke="#63b8ff" d="M445.81,-164.98C474.35,-156.09 519.33,-142.07 551.14,-132.15"/>
<polygon fill="#63b8ff" stroke="#63b8ff" points="552.47,-135.4 560.97,-129.08 550.38,-128.72 552.47,-135.4"/>
</a>
</g>
</g>
<!-- Node13&#45;&gt;Node7 -->
<g id="edge16_Node000013_Node000007" class="edge">
<title>Node13&#45;&gt;Node7</title>
<g id="a_edge16_Node000013_Node000007"><a xlink:title=" ">
<path fill="none" stroke="#63b8ff" d="M558.13,-109.98C524.42,-100.53 470.08,-85.29 434.58,-75.34"/>
<polygon fill="#63b8ff" stroke="#63b8ff" points="435.22,-71.88 424.65,-72.55 433.33,-78.62 435.22,-71.88"/>
</a>
</g>
</g>
<!-- Node13&#45;&gt;Node10 -->
<g id="edge15_Node000013_Node000010" class="edge">
<title>Node13&#45;&gt;Node10</title>
<g id="a_edge15_Node000013_Node000010"><a xlink:title=" ">
<path fill="none" stroke="#63b8ff" d="M639.24,-111.81C644.06,-111.19 648.87,-110.58 653.5,-110 775.37,-94.7 919.96,-77.62 986.56,-69.81"/>
<polygon fill="#63b8ff" stroke="#63b8ff" points="987.04,-73.28 996.56,-68.64 986.22,-66.33 987.04,-73.28"/>
</a>
</g>
</g>
<!-- Node14 -->
<g id="Node000014" class="node">
<title>Node14</title>
<g id="a_Node000014"><a xlink:title=" ">
<polygon fill="#e0e0e0" stroke="#999999" points="734.5,-74 692.5,-74 692.5,-55 734.5,-55 734.5,-74"/>
<text text-anchor="middle" x="713.5" y="-62" font-family="Helvetica,sans-Serif" font-size="10.00">array</text>
</a>
</g>
</g>
<!-- Node13&#45;&gt;Node14 -->
<g id="edge14_Node000013_Node000014" class="edge">
<title>Node13&#45;&gt;Node14</title>
<g id="a_edge14_Node000013_Node000014"><a xlink:title=" ">
<path fill="none" stroke="#63b8ff" d="M608.58,-109.98C628.87,-101.38 660.46,-87.99 683.67,-78.15"/>
<polygon fill="#63b8ff" stroke="#63b8ff" points="685.21,-81.3 693.05,-74.17 682.48,-74.85 685.21,-81.3"/>
</a>
</g>
</g>
<!-- Node15 -->
<g id="Node000015" class="node">
<title>Node15</title>
<g id="a_Node000015"><a xlink:title=" ">
<polygon fill="#e0e0e0" stroke="#999999" points="558.5,-19 502.5,-19 502.5,0 558.5,0 558.5,-19"/>
<text text-anchor="middle" x="530.5" y="-7" font-family="Helvetica,sans-Serif" font-size="10.00">iomanip</text>
</a>
</g>
</g>
<!-- Node13&#45;&gt;Node15 -->
<g id="edge17_Node000013_Node000015" class="edge">
<title>Node13&#45;&gt;Node15</title>
<g id="a_edge17_Node000013_Node000015"><a xlink:title=" ">
<path fill="none" stroke="#63b8ff" d="M578.85,-109.85C570.04,-101.48 557.26,-88.02 549.5,-74 541.75,-59.98 536.81,-42.43 533.91,-29.33"/>
<polygon fill="#63b8ff" stroke="#63b8ff" points="537.27,-28.29 531.88,-19.17 530.41,-29.67 537.27,-28.29"/>
</a>
</g>
</g>
<!-- Node16 -->
<g id="Node000016" class="node">
<title>Node16</title>
<g id="a_Node000016"><a xlink:title=" ">
<polygon fill="#e0e0e0" stroke="#999999" points="602.5,-74 558.5,-74 558.5,-55 602.5,-55 602.5,-74"/>
<text text-anchor="middle" x="580.5" y="-62" font-family="Helvetica,sans-Serif" font-size="10.00">limits</text>
</a>
</g>
</g>
<!-- Node13&#45;&gt;Node16 -->
<g id="edge18_Node000013_Node000016" class="edge">
<title>Node13&#45;&gt;Node16</title>
<g id="a_edge18_Node000013_Node000016"><a xlink:title=" ">
<path fill="none" stroke="#63b8ff" d="M587.18,-109.75C586.13,-102.8 584.63,-92.85 583.31,-84.13"/>
<polygon fill="#63b8ff" stroke="#63b8ff" points="586.75,-83.45 581.8,-74.09 579.83,-84.5 586.75,-83.45"/>
</a>
</g>
</g>
<!-- Node17 -->
<g id="Node000017" class="node">
<title>Node17</title>
<g id="a_Node000017"><a xlink:title=" ">
<polygon fill="#e0e0e0" stroke="#999999" points="808.5,-74 752.5,-74 752.5,-55 808.5,-55 808.5,-74"/>
<text text-anchor="middle" x="780.5" y="-62" font-family="Helvetica,sans-Serif" font-size="10.00">sstream</text>
</a>
</g>
</g>
<!-- Node13&#45;&gt;Node17 -->
<g id="edge19_Node000013_Node000017" class="edge">
<title>Node13&#45;&gt;Node17</title>
<g id="a_edge19_Node000013_Node000017"><a xlink:title=" ">
<path fill="none" stroke="#63b8ff" d="M619.35,-109.98C652.87,-100.73 706.47,-85.94 742.55,-75.98"/>
<polygon fill="#63b8ff" stroke="#63b8ff" points="743.52,-79.34 752.23,-73.3 741.66,-72.59 743.52,-79.34"/>
</a>
</g>
</g>
<!-- Node18 -->
<g id="Node000018" class="node">
<title>Node18</title>
<g id="a_Node000018"><a xlink:href="log_8hpp.html" target="_top" xlink:title=" ">
<polygon fill="white" stroke="#666666" points="674,-74 621,-74 621,-55 674,-55 674,-74"/>
<text text-anchor="middle" x="647.5" y="-62" font-family="Helvetica,sans-Serif" font-size="10.00">log.hpp</text>
</a>
</g>
</g>
<!-- Node13&#45;&gt;Node18 -->
<g id="edge20_Node000013_Node000018" class="edge">
<title>Node13&#45;&gt;Node18</title>
<g id="a_edge20_Node000013_Node000018"><a xlink:title=" ">
<path fill="none" stroke="#63b8ff" d="M597.98,-109.98C606.7,-102.15 619.84,-90.34 630.4,-80.86"/>
<polygon fill="#63b8ff" stroke="#63b8ff" points="632.75,-83.46 637.85,-74.17 628.07,-78.25 632.75,-83.46"/>
</a>
</g>
</g>
<!-- Node18&#45;&gt;Node8 -->
<g id="edge26_Node000018_Node000008" class="edge">
<title>Node18&#45;&gt;Node8</title>
<g id="a_edge26_Node000018_Node000008"><a xlink:title=" ">
<path fill="none" stroke="#63b8ff" d="M620.79,-57.07C617.66,-56.36 614.51,-55.65 611.5,-55 542.27,-40.05 460.69,-24.58 416.64,-16.4"/>
<polygon fill="#63b8ff" stroke="#63b8ff" points="417.26,-12.95 406.79,-14.58 415.99,-19.84 417.26,-12.95"/>
</a>
</g>
</g>
<!-- Node18&#45;&gt;Node15 -->
<g id="edge23_Node000018_Node000015" class="edge">
<title>Node18&#45;&gt;Node15</title>
<g id="a_edge23_Node000018_Node000015"><a xlink:title=" ">
<path fill="none" stroke="#63b8ff" d="M628.7,-54.98C609.88,-46.46 580.68,-33.23 559,-23.41"/>
<polygon fill="#63b8ff" stroke="#63b8ff" points="560.19,-20.11 549.64,-19.17 557.3,-26.48 560.19,-20.11"/>
</a>
</g>
</g>
<!-- Node19 -->
<g id="Node000019" class="node">
<title>Node19</title>
<g id="a_Node000019"><a xlink:title=" ">
<polygon fill="#e0e0e0" stroke="#999999" points="626.5,-19 576.5,-19 576.5,0 626.5,0 626.5,-19"/>
<text text-anchor="middle" x="601.5" y="-7" font-family="Helvetica,sans-Serif" font-size="10.00">chrono</text>
</a>
</g>
</g>
<!-- Node18&#45;&gt;Node19 -->
<g id="edge21_Node000018_Node000019" class="edge">
<title>Node18&#45;&gt;Node19</title>
<g id="a_edge21_Node000018_Node000019"><a xlink:title=" ">
<path fill="none" stroke="#63b8ff" d="M639.9,-54.75C633.34,-47.18 623.68,-36.05 615.69,-26.84"/>
<polygon fill="#63b8ff" stroke="#63b8ff" points="618.15,-24.35 608.95,-19.09 612.87,-28.94 618.15,-24.35"/>
</a>
</g>
</g>
<!-- Node20 -->
<g id="Node000020" class="node">
<title>Node20</title>
<g id="a_Node000020"><a xlink:title=" ">
<polygon fill="#e0e0e0" stroke="#999999" points="698,-19 645,-19 645,0 698,0 698,-19"/>
<text text-anchor="middle" x="671.5" y="-7" font-family="Helvetica,sans-Serif" font-size="10.00">cstdarg</text>
</a>
</g>
</g>
<!-- Node18&#45;&gt;Node20 -->
<g id="edge22_Node000018_Node000020" class="edge">
<title>Node18&#45;&gt;Node20</title>
<g id="a_edge22_Node000018_Node000020"><a xlink:title=" ">
<path fill="none" stroke="#63b8ff" d="M651.46,-54.75C654.71,-47.57 659.42,-37.18 663.45,-28.27"/>
<polygon fill="#63b8ff" stroke="#63b8ff" points="666.67,-29.64 667.61,-19.09 660.3,-26.75 666.67,-29.64"/>
</a>
</g>
</g>
<!-- Node21 -->
<g id="Node000021" class="node">
<title>Node21</title>
<g id="a_Node000021"><a xlink:title=" ">
<polygon fill="#e0e0e0" stroke="#999999" points="1067.5,-19 1007.5,-19 1007.5,0 1067.5,0 1067.5,-19"/>
<text text-anchor="middle" x="1037.5" y="-7" font-family="Helvetica,sans-Serif" font-size="10.00">iostream</text>
</a>
</g>
</g>
<!-- Node18&#45;&gt;Node21 -->
<g id="edge24_Node000018_Node000021" class="edge">
<title>Node18&#45;&gt;Node21</title>
<g id="a_edge24_Node000018_Node000021"><a xlink:title=" ">
<path fill="none" stroke="#63b8ff" d="M674.17,-56.87C677.3,-56.19 680.47,-55.55 683.5,-55 796.39,-34.64 931.2,-20.45 997.14,-14.16"/>
<polygon fill="#63b8ff" stroke="#63b8ff" points="997.87,-17.6 1007.5,-13.18 997.21,-10.63 997.87,-17.6"/>
</a>
</g>
</g>
<!-- Node22 -->
<g id="Node000022" class="node">
<title>Node22</title>
<g id="a_Node000022"><a xlink:title=" ">
<polygon fill="#e0e0e0" stroke="#999999" points="764.5,-19 716.5,-19 716.5,0 764.5,0 764.5,-19"/>
<text text-anchor="middle" x="740.5" y="-7" font-family="Helvetica,sans-Serif" font-size="10.00">mutex</text>
</a>
</g>
</g>
<!-- Node18&#45;&gt;Node22 -->
<g id="edge25_Node000018_Node000022" class="edge">
<title>Node18&#45;&gt;Node22</title>
<g id="a_edge25_Node000018_Node000022"><a xlink:title=" ">
<path fill="none" stroke="#63b8ff" d="M662.44,-54.98C677,-46.69 699.37,-33.94 716.43,-24.22"/>
<polygon fill="#63b8ff" stroke="#63b8ff" points="718.33,-27.16 725.29,-19.17 714.86,-21.08 718.33,-27.16"/>
</a>
</g>
</g>
<!-- Node23&#45;&gt;Node5 -->
<g id="edge29_Node000023_Node000005" class="edge">
<title>Node23&#45;&gt;Node5</title>
<g id="a_edge29_Node000023_Node000005"><a xlink:title=" ">
<path fill="none" stroke="#63b8ff" d="M663.33,-167.29C597.7,-160.22 490.25,-147.42 387.69,-128.84"/>
<polygon fill="#63b8ff" stroke="#63b8ff" points="388.25,-125.39 377.78,-127.03 386.99,-132.27 388.25,-125.39"/>
</a>
</g>
</g>
<!-- Node23&#45;&gt;Node7 -->
<g id="edge31_Node000023_Node000007" class="edge">
<title>Node23&#45;&gt;Node7</title>
<g id="a_edge31_Node000023_Node000007"><a xlink:title=" ">
<path fill="none" stroke="#63b8ff" d="M663.33,-168.19C616.1,-162.55 549.86,-151.23 495.5,-129 465.96,-116.92 435.91,-95.2 417.49,-80.57"/>
<polygon fill="#63b8ff" stroke="#63b8ff" points="419.63,-77.8 409.66,-74.22 415.22,-83.23 419.63,-77.8"/>
</a>
</g>
</g>
<!-- Node23&#45;&gt;Node8 -->
<g id="edge37_Node000023_Node000008" class="edge">
<title>Node23&#45;&gt;Node8</title>
<g id="a_edge37_Node000023_Node000008"><a xlink:title=" ">
<path fill="none" stroke="#63b8ff" d="M663.22,-166.87C623.54,-160.84 571.61,-149.59 529.5,-129 501.35,-115.24 433.37,-55.01 401.51,-26.1"/>
<polygon fill="#63b8ff" stroke="#63b8ff" points="403.64,-23.3 393.89,-19.15 398.93,-28.47 403.64,-23.3"/>
</a>
</g>
</g>
<!-- Node23&#45;&gt;Node10 -->
<g id="edge30_Node000023_Node000010" class="edge">
<title>Node23&#45;&gt;Node10</title>
<g id="a_edge30_Node000023_Node000010"><a xlink:title=" ">
<path fill="none" stroke="#63b8ff" d="M785.91,-172.25C907.87,-169.12 1171.23,-158.95 1198.5,-129 1239.84,-83.59 1123.41,-70.61 1060.63,-66.93"/>
<polygon fill="#63b8ff" stroke="#63b8ff" points="1060.49,-63.42 1050.32,-66.38 1060.12,-70.41 1060.49,-63.42"/>
</a>
</g>
</g>
<!-- Node23&#45;&gt;Node12 -->
<g id="edge38_Node000023_Node000012" class="edge">
<title>Node23&#45;&gt;Node12</title>
<g id="a_edge38_Node000023_Node000012"><a xlink:title=" ">
<path fill="none" stroke="#63b8ff" d="M667.82,-164.98C613.66,-156.62 529.8,-143.1 457.5,-129 456.05,-128.72 454.57,-128.42 453.07,-128.11"/>
<polygon fill="#63b8ff" stroke="#63b8ff" points="453.68,-124.67 443.17,-126.01 452.23,-131.51 453.68,-124.67"/>
</a>
</g>
</g>
<!-- Node23&#45;&gt;Node13 -->
<g id="edge41_Node000023_Node000013" class="edge">
<title>Node23&#45;&gt;Node13</title>
<g id="a_edge41_Node000023_Node000013"><a xlink:title=" ">
<path fill="none" stroke="#63b8ff" d="M702.65,-164.98C680.38,-156.3 645.6,-142.75 620.28,-132.88"/>
<polygon fill="#63b8ff" stroke="#63b8ff" points="621.34,-129.54 610.75,-129.17 618.79,-136.06 621.34,-129.54"/>
</a>
</g>
</g>
<!-- Node23&#45;&gt;Node14 -->
<g id="edge28_Node000023_Node000014" class="edge">
<title>Node23&#45;&gt;Node14</title>
<g id="a_edge28_Node000023_Node000014"><a xlink:title=" ">
<path fill="none" stroke="#63b8ff" d="M723.6,-164.66C721.82,-147.17 717.81,-107.8 715.41,-84.27"/>
<polygon fill="#63b8ff" stroke="#63b8ff" points="718.88,-83.75 714.38,-74.16 711.91,-84.46 718.88,-83.75"/>
</a>
</g>
</g>
<!-- Node23&#45;&gt;Node17 -->
<g id="edge36_Node000023_Node000017" class="edge">
<title>Node23&#45;&gt;Node17</title>
<g id="a_edge36_Node000023_Node000017"><a xlink:title=" ">
<path fill="none" stroke="#63b8ff" d="M729.08,-164.66C738.28,-146.93 759.12,-106.73 771.26,-83.32"/>
<polygon fill="#63b8ff" stroke="#63b8ff" points="774.51,-84.65 776.01,-74.16 768.3,-81.42 774.51,-84.65"/>
</a>
</g>
</g>
<!-- Node23&#45;&gt;Node21 -->
<g id="edge32_Node000023_Node000021" class="edge">
<title>Node23&#45;&gt;Node21</title>
<g id="a_edge32_Node000023_Node000021"><a xlink:title=" ">
<path fill="none" stroke="#63b8ff" d="M785.84,-172.48C911.31,-169.75 1187.97,-160.22 1216.5,-129 1264.08,-76.92 1143.44,-37.07 1077.33,-19.84"/>
<polygon fill="#63b8ff" stroke="#63b8ff" points="1078.16,-16.44 1067.61,-17.36 1076.44,-23.22 1078.16,-16.44"/>
</a>
</g>
</g>
<!-- Node23&#45;&gt;Node24 -->
<g id="edge33_Node000023_Node000024" class="edge">
<title>Node23&#45;&gt;Node24</title>
<g id="a_edge33_Node000023_Node000024"><a xlink:title=" ">
<path fill="none" stroke="#63b8ff" d="M785.64,-170.78C886.72,-165.77 1094.85,-153.31 1269.5,-129 1270.77,-128.82 1272.06,-128.63 1273.37,-128.43"/>
<polygon fill="#63b8ff" stroke="#63b8ff" points="1274.16,-131.85 1283.43,-126.71 1272.98,-124.94 1274.16,-131.85"/>
</a>
</g>
</g>
<!-- Node25 -->
<g id="Node000025" class="node">
<title>Node25</title>
<g id="a_Node000025"><a xlink:title=" ">
<polygon fill="#e0e0e0" stroke="#999999" points="955,-129 908,-129 908,-110 955,-110 955,-129"/>
<text text-anchor="middle" x="931.5" y="-117" font-family="Helvetica,sans-Serif" font-size="10.00">queue</text>
</a>
</g>
</g>
<!-- Node23&#45;&gt;Node25 -->
<g id="edge34_Node000023_Node000025" class="edge">
<title>Node23&#45;&gt;Node25</title>
<g id="a_edge34_Node000023_Node000025"><a xlink:title=" ">
<path fill="none" stroke="#63b8ff" d="M757.86,-164.99C790.91,-156.55 843.22,-143.18 897.85,-129.16"/>
<polygon fill="#63b8ff" stroke="#63b8ff" points="898.89,-132.51 907.71,-126.63 897.15,-125.73 898.89,-132.51"/>
</a>
</g>
</g>
<!-- Node26 -->
<g id="Node000026" class="node">
<title>Node26</title>
<g id="a_Node000026"><a xlink:title=" ">
<polygon fill="#e0e0e0" stroke="#999999" points="1044,-129 973,-129 973,-110 1044,-110 1044,-129"/>
<text text-anchor="middle" x="1008.5" y="-117" font-family="Helvetica,sans-Serif" font-size="10.00">semaphore</text>
</a>
</g>
</g>
<!-- Node23&#45;&gt;Node26 -->
<g id="edge35_Node000023_Node000026" class="edge">
<title>Node23&#45;&gt;Node26</title>
<g id="a_edge35_Node000023_Node000026"><a xlink:title=" ">
<path fill="none" stroke="#63b8ff" d="M770.98,-164.99C817.17,-156.51 890.31,-143.01 962.75,-129.32"/>
<polygon fill="#63b8ff" stroke="#63b8ff" points="963.79,-132.69 972.96,-127.39 962.49,-125.81 963.79,-132.69"/>
</a>
</g>
</g>
<!-- Node27 -->
<g id="Node000027" class="node">
<title>Node27</title>
<g id="a_Node000027"><a xlink:title=" ">
<polygon fill="#e0e0e0" stroke="#999999" points="1189,-129 1062,-129 1062,-110 1189,-110 1189,-129"/>
<text text-anchor="middle" x="1125.5" y="-117" font-family="Helvetica,sans-Serif" font-size="10.00">../utils/parameters.hpp</text>
</a>
</g>
</g>
<!-- Node23&#45;&gt;Node27 -->
<g id="edge39_Node000023_Node000027" class="edge">
<title>Node23&#45;&gt;Node27</title>
<g id="a_edge39_Node000023_Node000027"><a xlink:title=" ">
<path fill="none" stroke="#63b8ff" d="M785.84,-165.39C857.34,-155.94 975.41,-140.34 1051.82,-130.24"/>
<polygon fill="#63b8ff" stroke="#63b8ff" points="1052.39,-133.69 1061.85,-128.91 1051.48,-126.75 1052.39,-133.69"/>
</a>
</g>
</g>
<!-- Node28 -->
<g id="Node000028" class="node">
<title>Node28</title>
<g id="a_Node000028"><a xlink:title=" ">
<polygon fill="#e0e0e0" stroke="#999999" points="889.5,-129 771.5,-129 771.5,-110 889.5,-110 889.5,-129"/>
<text text-anchor="middle" x="830.5" y="-117" font-family="Helvetica,sans-Serif" font-size="10.00">../utils/constants.hpp</text>
</a>
</g>
</g>
<!-- Node23&#45;&gt;Node28 -->
<g id="edge40_Node000023_Node000028" class="edge">
<title>Node23&#45;&gt;Node28</title>
<g id="a_edge40_Node000023_Node000028"><a xlink:title=" ">
<path fill="none" stroke="#63b8ff" d="M741.53,-164.98C758.43,-156.54 784.56,-143.47 804.14,-133.68"/>
<polygon fill="#63b8ff" stroke="#63b8ff" points="805.78,-136.77 813.16,-129.17 802.65,-130.51 805.78,-136.77"/>
</a>
</g>
</g>
</g>
</svg>

<g id="navigator" transform="translate(0 0)" fill="#404254">
  <rect fill="#f2f5e9" fill-opacity="0.5" stroke="#606060" stroke-width=".5" x="0" y="0" width="60" height="60"/>
  <use id="zoomplus" xlink:href="#zoomPlus" x="17" y="9" onmousedown="handleZoom(evt,'in')"/>
  <use id="zoomminus" xlink:href="#zoomMin" x="42" y="9" onmousedown="handleZoom(evt,'out')"/>
  <use id="reset" xlink:href="#resetDef" x="30" y="36" onmousedown="handleReset()"/>
   <use id="arrowup" xlink:href="#arrowUp" x="0" y="0" onmousedown="handlePan(0,-1)"/>
  <use id="arrowright" xlink:href="#arrowRight" x="0" y="0" onmousedown="handlePan(1,0)"/>
  <use id="arrowdown" xlink:href="#arrowDown" x="0" y="0" onmousedown="handlePan(0,1)"/>
  <use id="arrowleft" xlink:href="#arrowLeft" x="0" y="0" onmousedown="handlePan(-1,0)"/>
</g>
<svg viewBox="0 0 15 15" width="100%" height="30px" preserveAspectRatio="xMaxYMin meet">
 <g id="arrow_out" transform="scale(0.3 0.3)">
  <a xlink:href="vps_8cpp__incl_org.svg" target="_base">
   <rect id="button" ry="5" rx="5" y="6" x="6" height="38" width="38"
        fill="#f2f5e9" fill-opacity="0.5" stroke="#606060" stroke-width="1.0"/>
   <path id="arrow"
     d="M 11.500037,31.436501 C 11.940474,20.09759 22.043105,11.32322 32.158766,21.979434 L 37.068811,17.246167 C 37.068811,17.246167 37.088388,32 37.088388,32 L 22.160133,31.978069 C 22.160133,31.978069 26.997745,27.140456 26.997745,27.140456 C 18.528582,18.264221 13.291696,25.230495 11.500037,31.436501 z"
     style="fill:#404040;"/>
  </a>
 </g>
</svg>

<style type='text/css'>
<![CDATA[
[data-mouse-over-selected='false'] { opacity: 0.7; }
[data-mouse-over-selected='true']  { opacity: 1.0; }
]]>
</style>
<script type="application/ecmascript"><![CDATA[
document.addEventListener('DOMContentLoaded', (event) => {
  highlightEdges();
  highlightAdjacentNodes();
});
]]></script>
</svg>
