<?xml version="1.0" encoding="UTF-8" standalone="no"?>
<!DOCTYPE svg PUBLIC "-//W3C//DTD SVG 1.1//EN"
 "http://www.w3.org/Graphics/SVG/1.1/DTD/svg11.dtd">
<!-- Generated by graphviz version 2.43.0 (0)
 -->
<!-- Title: src/lib/bitstreamGeneration/vps.cpp Pages: 1 -->
<!--zoomable 258 -->

<svg id="main" version="1.1" xmlns="http://www.w3.org/2000/svg" xmlns:xlink="http://www.w3.org/1999/xlink" xml:space="preserve" onload="init(evt)">
<style type="text/css"><![CDATA[
.node, .edge {opacity: 0.7;}
.node.selected, .edge.selected {opacity: 1;}
.edge:hover path { stroke: red; }
.edge:hover polygon { stroke: red; fill: red; }
]]></style>

<defs>
  <circle id="rim" cx="0" cy="0" r="7"/>
  <circle id="rim2" cx="0" cy="0" r="3.5"/>
  <g id="zoomPlus">
    <use xlink:href="#rim" fill="#404040"><set attributeName="fill" to="#808080" begin="zoomplus.mouseover" end="zoomplus.mouseout"/></use>
    <path d="M-4,0h8M0,-4v8" fill="none" stroke="white" stroke-width="1.5" pointer-events="none"/>
  </g>
  <g id="zoomMin">
    <use xlink:href="#rim" fill="#404040"><set attributeName="fill" to="#808080" begin="zoomminus.mouseover" end="zoomminus.mouseout"/></use>
    <path d="M-4,0h8" fill="none" stroke="white" stroke-width="1.5" pointer-events="none"/>
  </g>
  <g id="arrowUp" transform="translate(30 24)">
    <use xlink:href="#rim"/>
    <path pointer-events="none" fill="none" stroke="white" stroke-width="1.5" d="M0,-3.0v7 M-2.5,-0.5L0,-3.0L2.5,-0.5"/>
  </g>
  <g id="arrowRight" transform="rotate(90) translate(36 -43)">
    <use xlink:href="#rim"/>
    <path pointer-events="none" fill="none" stroke="white" stroke-width="1.5" d="M0,-3.0v7 M-2.5,-0.5L0,-3.0L2.5,-0.5"/>
  </g>
  <g id="arrowDown" transform="rotate(180) translate(-30 -48)">
    <use xlink:href="#rim"/>
    <path pointer-events="none" fill="none" stroke="white" stroke-width="1.5" d="M0,-3.0v7 M-2.5,-0.5L0,-3.0L2.5,-0.5"/>
  </g>
  <g id="arrowLeft" transform="rotate(270) translate(-36 17)">
    <use xlink:href="#rim"/>
    <path pointer-events="none" fill="none" stroke="white" stroke-width="1.5" d="M0,-3.0v7 M-2.5,-0.5L0,-3.0L2.5,-0.5"/>
  </g>
  <g id="resetDef">
    <use xlink:href="#rim2" fill="#404040"><set attributeName="fill" to="#808080" begin="reset.mouseover" end="reset.mouseout"/></use>
  </g>
</defs>
<script type="application/ecmascript">
var viewWidth = 1057;
var viewHeight = 258;
var sectionId = 'dynsection-0';
</script>
<script type="application/ecmascript" xlink:href="svg.min.js"/>
<svg id="graph" class="graph">
<g id="viewport">
<title>src/lib/bitstreamGeneration/vps.cpp</title>
<!-- Node1 -->
<g id="Node000001" class="node">
<title>Node1</title>
<g id="a_Node000001"><a xlink:title=" ">
<polygon fill="#999999" stroke="#666666" points="588,-250 438,-250 438,-220 588,-220 588,-250"/>
<text text-anchor="start" x="446" y="-238" font-family="Helvetica,sans-Serif" font-size="10.00">src/lib/bitstreamGeneration</text>
<text text-anchor="middle" x="513" y="-227" font-family="Helvetica,sans-Serif" font-size="10.00">/vps.cpp</text>
</a>
</g>
</g>
<!-- Node2 -->
<g id="Node000002" class="node">
<title>Node2</title>
<g id="a_Node000002"><a xlink:href="vps_8hpp.html" target="_top" xlink:title=" ">
<polygon fill="white" stroke="#666666" points="388.5,-184 333.5,-184 333.5,-165 388.5,-165 388.5,-184"/>
<text text-anchor="middle" x="361" y="-172" font-family="Helvetica,sans-Serif" font-size="10.00">vps.hpp</text>
</a>
</g>
</g>
<!-- Node1&#45;&gt;Node2 -->
<g id="edge1_Node000001_Node000002" class="edge">
<title>Node1&#45;&gt;Node2</title>
<g id="a_edge1_Node000001_Node000002"><a xlink:title=" ">
<path fill="none" stroke="#63b8ff" d="M476.59,-219.99C451.12,-210.18 417.41,-197.21 392.97,-187.81"/>
<polygon fill="#63b8ff" stroke="#63b8ff" points="394.04,-184.46 383.45,-184.14 391.52,-191 394.04,-184.46"/>
</a>
</g>
</g>
<!-- Node3 -->
<g id="Node000003" class="node">
<title>Node3</title>
<g id="a_Node000003"><a xlink:title=" ">
<polygon fill="#e0e0e0" stroke="#999999" points="159.5,-129 112.5,-129 112.5,-110 159.5,-110 159.5,-129"/>
<text text-anchor="middle" x="136" y="-117" font-family="Helvetica,sans-Serif" font-size="10.00">cmath</text>
</a>
</g>
</g>
<!-- Node1&#45;&gt;Node3 -->
<g id="edge29_Node000001_Node000003" class="edge">
<title>Node1&#45;&gt;Node3</title>
<g id="a_edge29_Node000001_Node000003"><a xlink:title=" ">
<path fill="none" stroke="#63b8ff" d="M437.89,-220.77C393.73,-212.13 337.11,-199.58 288,-184 243.18,-169.78 193.23,-147.63 163.23,-133.61"/>
<polygon fill="#63b8ff" stroke="#63b8ff" points="164.4,-130.29 153.86,-129.18 161.41,-136.62 164.4,-130.29"/>
</a>
</g>
</g>
<!-- Node4 -->
<g id="Node000004" class="node">
<title>Node4</title>
<g id="a_Node000004"><a xlink:href="bitstream__util_8hpp.html" target="_top" xlink:title=" ">
<polygon fill="white" stroke="#666666" points="284,-129 178,-129 178,-110 284,-110 284,-129"/>
<text text-anchor="middle" x="231" y="-117" font-family="Helvetica,sans-Serif" font-size="10.00">bitstream_util.hpp</text>
</a>
</g>
</g>
<!-- Node1&#45;&gt;Node4 -->
<g id="edge34_Node000001_Node000004" class="edge">
<title>Node1&#45;&gt;Node4</title>
<g id="a_edge34_Node000001_Node000004"><a xlink:title=" ">
<path fill="none" stroke="#63b8ff" d="M437.83,-220.29C402.33,-212.27 359.96,-200.44 324,-184 295.89,-171.14 267.02,-149.94 249.06,-135.61"/>
<polygon fill="#63b8ff" stroke="#63b8ff" points="251.13,-132.79 241.17,-129.19 246.72,-138.22 251.13,-132.79"/>
</a>
</g>
</g>
<!-- Node7 -->
<g id="Node000007" class="node">
<title>Node7</title>
<g id="a_Node000007"><a xlink:title=" ">
<polygon fill="#e0e0e0" stroke="#999999" points="561,-19 511,-19 511,0 561,0 561,-19"/>
<text text-anchor="middle" x="536" y="-7" font-family="Helvetica,sans-Serif" font-size="10.00">cstdint</text>
</a>
</g>
</g>
<!-- Node1&#45;&gt;Node7 -->
<g id="edge31_Node000001_Node000007" class="edge">
<title>Node1&#45;&gt;Node7</title>
<g id="a_edge31_Node000001_Node000007"><a xlink:title=" ">
<path fill="none" stroke="#63b8ff" d="M588.24,-232.17C758.89,-225.55 1150.87,-195.08 1023,-55 992.67,-21.77 678.68,-13.06 571.57,-11.05"/>
<polygon fill="#63b8ff" stroke="#63b8ff" points="571.35,-7.54 561.29,-10.86 571.22,-14.54 571.35,-7.54"/>
</a>
</g>
</g>
<!-- Node10 -->
<g id="Node000010" class="node">
<title>Node10</title>
<g id="a_Node000010"><a xlink:title=" ">
<polygon fill="#e0e0e0" stroke="#999999" points="381.5,-74 316.5,-74 316.5,-55 381.5,-55 381.5,-74"/>
<text text-anchor="middle" x="349" y="-62" font-family="Helvetica,sans-Serif" font-size="10.00">stdexcept</text>
</a>
</g>
</g>
<!-- Node1&#45;&gt;Node10 -->
<g id="edge33_Node000001_Node000010" class="edge">
<title>Node1&#45;&gt;Node10</title>
<g id="a_edge33_Node000001_Node000010"><a xlink:title=" ">
<path fill="none" stroke="#63b8ff" d="M506.2,-219.79C493.76,-194.96 465.24,-143.19 429,-110 414.64,-96.84 395.69,-86.09 379.84,-78.44"/>
<polygon fill="#63b8ff" stroke="#63b8ff" points="380.99,-75.12 370.44,-74.1 378.05,-81.47 380.99,-75.12"/>
</a>
</g>
</g>
<!-- Node17 -->
<g id="Node000017" class="node">
<title>Node17</title>
<g id="a_Node000017"><a xlink:href="uvgvpcc_8hpp.html" target="_top" xlink:title=" ">
<polygon fill="white" stroke="#666666" points="633,-129 511,-129 511,-110 633,-110 633,-129"/>
<text text-anchor="middle" x="572" y="-117" font-family="Helvetica,sans-Serif" font-size="10.00">uvgvpcc/uvgvpcc.hpp</text>
</a>
</g>
</g>
<!-- Node1&#45;&gt;Node17 -->
<g id="edge35_Node000001_Node000017" class="edge">
<title>Node1&#45;&gt;Node17</title>
<g id="a_edge35_Node000001_Node000017"><a xlink:title=" ">
<path fill="none" stroke="#63b8ff" d="M520.47,-219.63C531.23,-198.93 551.06,-160.78 562.73,-138.32"/>
<polygon fill="#63b8ff" stroke="#63b8ff" points="565.96,-139.72 567.46,-129.23 559.74,-136.49 565.96,-139.72"/>
</a>
</g>
</g>
<!-- Node18 -->
<g id="Node000018" class="node">
<title>Node18</title>
<g id="a_Node000018"><a xlink:title=" ">
<polygon fill="#e0e0e0" stroke="#999999" points="937.5,-74 884.5,-74 884.5,-55 937.5,-55 937.5,-74"/>
<text text-anchor="middle" x="911" y="-62" font-family="Helvetica,sans-Serif" font-size="10.00">cstddef</text>
</a>
</g>
</g>
<!-- Node1&#45;&gt;Node18 -->
<g id="edge30_Node000001_Node000018" class="edge">
<title>Node1&#45;&gt;Node18</title>
<g id="a_edge30_Node000001_Node000018"><a xlink:title=" ">
<path fill="none" stroke="#63b8ff" d="M546.25,-219.92C622.44,-187.67 808.67,-108.82 881.3,-78.07"/>
<polygon fill="#63b8ff" stroke="#63b8ff" points="882.93,-81.18 890.78,-74.06 880.2,-74.74 882.93,-81.18"/>
</a>
</g>
</g>
<!-- Node20 -->
<g id="Node000020" class="node">
<title>Node20</title>
<g id="a_Node000020"><a xlink:title=" ">
<polygon fill="#e0e0e0" stroke="#999999" points="1014,-74 956,-74 956,-55 1014,-55 1014,-74"/>
<text text-anchor="middle" x="985" y="-62" font-family="Helvetica,sans-Serif" font-size="10.00">memory</text>
</a>
</g>
</g>
<!-- Node1&#45;&gt;Node20 -->
<g id="edge32_Node000001_Node000020" class="edge">
<title>Node1&#45;&gt;Node20</title>
<g id="a_edge32_Node000001_Node000020"><a xlink:title=" ">
<path fill="none" stroke="#63b8ff" d="M557.98,-219.95C588.78,-210.2 630.5,-196.72 667,-184 772.76,-147.15 896.79,-99.69 953.65,-77.69"/>
<polygon fill="#63b8ff" stroke="#63b8ff" points="955.08,-80.89 963.14,-74.01 952.55,-74.36 955.08,-80.89"/>
</a>
</g>
</g>
<!-- Node2&#45;&gt;Node3 -->
<g id="edge2_Node000002_Node000003" class="edge">
<title>Node2&#45;&gt;Node3</title>
<g id="a_edge2_Node000002_Node000003"><a xlink:title=" ">
<path fill="none" stroke="#63b8ff" d="M333.29,-167.3C297.74,-159.3 233.95,-144.78 169.68,-129.12"/>
<polygon fill="#63b8ff" stroke="#63b8ff" points="170.32,-125.67 159.78,-126.7 168.66,-132.47 170.32,-125.67"/>
</a>
</g>
</g>
<!-- Node2&#45;&gt;Node4 -->
<g id="edge3_Node000002_Node000004" class="edge">
<title>Node2&#45;&gt;Node4</title>
<g id="a_edge3_Node000002_Node000004"><a xlink:title=" ">
<path fill="none" stroke="#63b8ff" d="M340.11,-164.98C318.92,-156.34 285.87,-142.87 261.7,-133.02"/>
<polygon fill="#63b8ff" stroke="#63b8ff" points="262.85,-129.7 252.27,-129.17 260.21,-136.19 262.85,-129.7"/>
</a>
</g>
</g>
<!-- Node9 -->
<g id="Node000009" class="node">
<title>Node9</title>
<g id="a_Node000009"><a xlink:href="parameters_8hpp.html" target="_top" xlink:title=" ">
<polygon fill="white" stroke="#666666" points="420,-129 302,-129 302,-110 420,-110 420,-129"/>
<text text-anchor="middle" x="361" y="-117" font-family="Helvetica,sans-Serif" font-size="10.00">utils/parameters.hpp</text>
</a>
</g>
</g>
<!-- Node2&#45;&gt;Node9 -->
<g id="edge8_Node000002_Node000009" class="edge">
<title>Node2&#45;&gt;Node9</title>
<g id="a_edge8_Node000002_Node000009"><a xlink:title=" ">
<path fill="none" stroke="#63b8ff" d="M361,-164.75C361,-157.8 361,-147.85 361,-139.13"/>
<polygon fill="#63b8ff" stroke="#63b8ff" points="364.5,-139.09 361,-129.09 357.5,-139.09 364.5,-139.09"/>
</a>
</g>
</g>
<!-- Node2&#45;&gt;Node17 -->
<g id="edge18_Node000002_Node000017" class="edge">
<title>Node2&#45;&gt;Node17</title>
<g id="a_edge18_Node000002_Node000017"><a xlink:title=" ">
<path fill="none" stroke="#63b8ff" d="M388.58,-166.57C424.08,-157.65 486.18,-142.06 528.18,-131.51"/>
<polygon fill="#63b8ff" stroke="#63b8ff" points="529.28,-134.84 538.13,-129.01 527.58,-128.05 529.28,-134.84"/>
</a>
</g>
</g>
<!-- Node5 -->
<g id="Node000005" class="node">
<title>Node5</title>
<g id="a_Node000005"><a xlink:title=" ">
<polygon fill="#e0e0e0" stroke="#999999" points="52,-74 0,-74 0,-55 52,-55 52,-74"/>
<text text-anchor="middle" x="26" y="-62" font-family="Helvetica,sans-Serif" font-size="10.00">cassert</text>
</a>
</g>
</g>
<!-- Node4&#45;&gt;Node5 -->
<g id="edge4_Node000004_Node000005" class="edge">
<title>Node4&#45;&gt;Node5</title>
<g id="a_edge4_Node000004_Node000005"><a xlink:title=" ">
<path fill="none" stroke="#63b8ff" d="M198.06,-109.98C160.76,-100.34 100.2,-84.68 61.77,-74.75"/>
<polygon fill="#63b8ff" stroke="#63b8ff" points="62.58,-71.34 52.03,-72.23 60.83,-78.12 62.58,-71.34"/>
</a>
</g>
</g>
<!-- Node6 -->
<g id="Node000006" class="node">
<title>Node6</title>
<g id="a_Node000006"><a xlink:title=" ">
<polygon fill="#e0e0e0" stroke="#999999" points="120,-74 70,-74 70,-55 120,-55 120,-74"/>
<text text-anchor="middle" x="95" y="-62" font-family="Helvetica,sans-Serif" font-size="10.00">cstring</text>
</a>
</g>
</g>
<!-- Node4&#45;&gt;Node6 -->
<g id="edge5_Node000004_Node000006" class="edge">
<title>Node4&#45;&gt;Node6</title>
<g id="a_edge5_Node000004_Node000006"><a xlink:title=" ">
<path fill="none" stroke="#63b8ff" d="M209.15,-109.98C186.88,-101.3 152.1,-87.75 126.78,-77.88"/>
<polygon fill="#63b8ff" stroke="#63b8ff" points="127.84,-74.54 117.25,-74.17 125.29,-81.06 127.84,-74.54"/>
</a>
</g>
</g>
<!-- Node4&#45;&gt;Node7 -->
<g id="edge6_Node000004_Node000007" class="edge">
<title>Node4&#45;&gt;Node7</title>
<g id="a_edge6_Node000004_Node000007"><a xlink:title=" ">
<path fill="none" stroke="#63b8ff" d="M230.1,-109.63C229.24,-95.79 229.84,-69.2 245,-55 254.28,-46.3 425.2,-24.21 500.68,-14.82"/>
<polygon fill="#63b8ff" stroke="#63b8ff" points="501.17,-18.29 510.67,-13.59 500.31,-11.34 501.17,-18.29"/>
</a>
</g>
</g>
<!-- Node8 -->
<g id="Node000008" class="node">
<title>Node8</title>
<g id="a_Node000008"><a xlink:title=" ">
<polygon fill="#e0e0e0" stroke="#999999" points="298,-74 254,-74 254,-55 298,-55 298,-74"/>
<text text-anchor="middle" x="276" y="-62" font-family="Helvetica,sans-Serif" font-size="10.00">string</text>
</a>
</g>
</g>
<!-- Node4&#45;&gt;Node8 -->
<g id="edge7_Node000004_Node000008" class="edge">
<title>Node4&#45;&gt;Node8</title>
<g id="a_edge7_Node000004_Node000008"><a xlink:title=" ">
<path fill="none" stroke="#63b8ff" d="M238.43,-109.75C244.85,-102.18 254.31,-91.05 262.12,-81.84"/>
<polygon fill="#63b8ff" stroke="#63b8ff" points="264.9,-83.98 268.71,-74.09 259.57,-79.45 264.9,-83.98"/>
</a>
</g>
</g>
<!-- Node9&#45;&gt;Node8 -->
<g id="edge10_Node000009_Node000008" class="edge">
<title>Node9&#45;&gt;Node8</title>
<g id="a_edge10_Node000009_Node000008"><a xlink:title=" ">
<path fill="none" stroke="#63b8ff" d="M347.34,-109.98C334.16,-101.77 313.97,-89.18 298.43,-79.49"/>
<polygon fill="#63b8ff" stroke="#63b8ff" points="300.24,-76.49 289.91,-74.17 296.54,-82.43 300.24,-76.49"/>
</a>
</g>
</g>
<!-- Node9&#45;&gt;Node10 -->
<g id="edge9_Node000009_Node000010" class="edge">
<title>Node9&#45;&gt;Node10</title>
<g id="a_edge9_Node000009_Node000010"><a xlink:title=" ">
<path fill="none" stroke="#63b8ff" d="M359.02,-109.75C357.43,-102.72 355.14,-92.62 353.15,-83.84"/>
<polygon fill="#63b8ff" stroke="#63b8ff" points="356.57,-83.07 350.94,-74.09 349.74,-84.62 356.57,-83.07"/>
</a>
</g>
</g>
<!-- Node11 -->
<g id="Node000011" class="node">
<title>Node11</title>
<g id="a_Node000011"><a xlink:title=" ">
<polygon fill="#e0e0e0" stroke="#999999" points="446.5,-74 399.5,-74 399.5,-55 446.5,-55 446.5,-74"/>
<text text-anchor="middle" x="423" y="-62" font-family="Helvetica,sans-Serif" font-size="10.00">vector</text>
</a>
</g>
</g>
<!-- Node9&#45;&gt;Node11 -->
<g id="edge11_Node000009_Node000011" class="edge">
<title>Node9&#45;&gt;Node11</title>
<g id="a_edge11_Node000009_Node000011"><a xlink:title=" ">
<path fill="none" stroke="#63b8ff" d="M370.96,-109.98C380.13,-102.15 393.94,-90.34 405.03,-80.86"/>
<polygon fill="#63b8ff" stroke="#63b8ff" points="407.53,-83.33 412.86,-74.17 402.98,-78.01 407.53,-83.33"/>
</a>
</g>
</g>
<!-- Node12 -->
<g id="Node000012" class="node">
<title>Node12</title>
<g id="a_Node000012"><a xlink:href="utils_8hpp.html" target="_top" xlink:title=" ">
<polygon fill="white" stroke="#666666" points="197.5,-74 138.5,-74 138.5,-55 197.5,-55 197.5,-74"/>
<text text-anchor="middle" x="168" y="-62" font-family="Helvetica,sans-Serif" font-size="10.00">utils.hpp</text>
</a>
</g>
</g>
<!-- Node9&#45;&gt;Node12 -->
<g id="edge12_Node000009_Node000012" class="edge">
<title>Node9&#45;&gt;Node12</title>
<g id="a_edge12_Node000009_Node000012"><a xlink:title=" ">
<path fill="none" stroke="#63b8ff" d="M329.99,-109.98C296.68,-100.84 243.66,-86.28 207.41,-76.32"/>
<polygon fill="#63b8ff" stroke="#63b8ff" points="208.23,-72.92 197.66,-73.65 206.38,-79.67 208.23,-72.92"/>
</a>
</g>
</g>
<!-- Node12&#45;&gt;Node7 -->
<g id="edge14_Node000012_Node000007" class="edge">
<title>Node12&#45;&gt;Node7</title>
<g id="a_edge14_Node000012_Node000007"><a xlink:title=" ">
<path fill="none" stroke="#63b8ff" d="M197.78,-57.52C202.53,-56.63 207.39,-55.76 212,-55 316.64,-37.72 441.07,-21.97 500.7,-14.71"/>
<polygon fill="#63b8ff" stroke="#63b8ff" points="501.22,-18.17 510.72,-13.5 500.37,-11.22 501.22,-18.17"/>
</a>
</g>
</g>
<!-- Node13 -->
<g id="Node000013" class="node">
<title>Node13</title>
<g id="a_Node000013"><a xlink:title=" ">
<polygon fill="#e0e0e0" stroke="#999999" points="256,-19 214,-19 214,0 256,0 256,-19"/>
<text text-anchor="middle" x="235" y="-7" font-family="Helvetica,sans-Serif" font-size="10.00">array</text>
</a>
</g>
</g>
<!-- Node12&#45;&gt;Node13 -->
<g id="edge13_Node000012_Node000013" class="edge">
<title>Node12&#45;&gt;Node13</title>
<g id="a_edge13_Node000012_Node000013"><a xlink:title=" ">
<path fill="none" stroke="#63b8ff" d="M178.76,-54.98C188.77,-47.07 203.89,-35.11 215.93,-25.58"/>
<polygon fill="#63b8ff" stroke="#63b8ff" points="218.37,-28.12 224.04,-19.17 214.03,-22.63 218.37,-28.12"/>
</a>
</g>
</g>
<!-- Node14 -->
<g id="Node000014" class="node">
<title>Node14</title>
<g id="a_Node000014"><a xlink:title=" ">
<polygon fill="#e0e0e0" stroke="#999999" points="122,-19 78,-19 78,0 122,0 122,-19"/>
<text text-anchor="middle" x="100" y="-7" font-family="Helvetica,sans-Serif" font-size="10.00">limits</text>
</a>
</g>
</g>
<!-- Node12&#45;&gt;Node14 -->
<g id="edge15_Node000012_Node000014" class="edge">
<title>Node12&#45;&gt;Node14</title>
<g id="a_edge15_Node000012_Node000014"><a xlink:title=" ">
<path fill="none" stroke="#63b8ff" d="M157.07,-54.98C146.92,-47.07 131.58,-35.11 119.35,-25.58"/>
<polygon fill="#63b8ff" stroke="#63b8ff" points="121.16,-22.56 111.12,-19.17 116.86,-28.08 121.16,-22.56"/>
</a>
</g>
</g>
<!-- Node15 -->
<g id="Node000015" class="node">
<title>Node15</title>
<g id="a_Node000015"><a xlink:title=" ">
<polygon fill="#e0e0e0" stroke="#999999" points="439,-19 383,-19 383,0 439,0 439,-19"/>
<text text-anchor="middle" x="411" y="-7" font-family="Helvetica,sans-Serif" font-size="10.00">sstream</text>
</a>
</g>
</g>
<!-- Node12&#45;&gt;Node15 -->
<g id="edge16_Node000012_Node000015" class="edge">
<title>Node12&#45;&gt;Node15</title>
<g id="a_edge16_Node000012_Node000015"><a xlink:title=" ">
<path fill="none" stroke="#63b8ff" d="M197.8,-57C241.93,-47.38 324.65,-29.33 373.06,-18.77"/>
<polygon fill="#63b8ff" stroke="#63b8ff" points="373.82,-22.19 382.84,-16.64 372.33,-15.35 373.82,-22.19"/>
</a>
</g>
</g>
<!-- Node16 -->
<g id="Node000016" class="node">
<title>Node16</title>
<g id="a_Node000016"><a xlink:title=" ">
<polygon fill="#e0e0e0" stroke="#999999" points="196,-19 140,-19 140,0 196,0 196,-19"/>
<text text-anchor="middle" x="168" y="-7" font-family="Helvetica,sans-Serif" font-size="10.00">iomanip</text>
</a>
</g>
</g>
<!-- Node12&#45;&gt;Node16 -->
<g id="edge17_Node000012_Node000016" class="edge">
<title>Node12&#45;&gt;Node16</title>
<g id="a_edge17_Node000012_Node000016"><a xlink:title=" ">
<path fill="none" stroke="#63b8ff" d="M168,-54.75C168,-47.8 168,-37.85 168,-29.13"/>
<polygon fill="#63b8ff" stroke="#63b8ff" points="171.5,-29.09 168,-19.09 164.5,-29.09 171.5,-29.09"/>
</a>
</g>
</g>
<!-- Node17&#45;&gt;Node7 -->
<g id="edge20_Node000017_Node000007" class="edge">
<title>Node17&#45;&gt;Node7</title>
<g id="a_edge20_Node000017_Node000007"><a xlink:title=" ">
<path fill="none" stroke="#63b8ff" d="M572.71,-109.99C573.45,-97.52 573.7,-73.74 567,-55 563.37,-44.84 556.78,-34.87 550.6,-26.94"/>
<polygon fill="#63b8ff" stroke="#63b8ff" points="553.3,-24.71 544.23,-19.23 547.91,-29.17 553.3,-24.71"/>
</a>
</g>
</g>
<!-- Node17&#45;&gt;Node8 -->
<g id="edge26_Node000017_Node000008" class="edge">
<title>Node17&#45;&gt;Node8</title>
<g id="a_edge26_Node000017_Node000008"><a xlink:title=" ">
<path fill="none" stroke="#63b8ff" d="M510.88,-110.03C459.27,-102.47 383.24,-90.39 308.36,-74.12"/>
<polygon fill="#63b8ff" stroke="#63b8ff" points="308.8,-70.63 298.28,-71.9 307.3,-77.47 308.8,-70.63"/>
</a>
</g>
</g>
<!-- Node17&#45;&gt;Node11 -->
<g id="edge27_Node000017_Node000011" class="edge">
<title>Node17&#45;&gt;Node11</title>
<g id="a_edge27_Node000017_Node000011"><a xlink:title=" ">
<path fill="none" stroke="#63b8ff" d="M548.06,-109.98C523.3,-101.18 484.42,-87.35 456.59,-77.45"/>
<polygon fill="#63b8ff" stroke="#63b8ff" points="457.47,-74.05 446.88,-73.99 455.13,-80.64 457.47,-74.05"/>
</a>
</g>
</g>
<!-- Node17&#45;&gt;Node15 -->
<g id="edge25_Node000017_Node000015" class="edge">
<title>Node17&#45;&gt;Node15</title>
<g id="a_edge25_Node000017_Node000015"><a xlink:title=" ">
<path fill="none" stroke="#63b8ff" d="M569,-109.82C563.89,-96.26 552.24,-70.04 534,-55 509.56,-34.85 475.23,-23.45 449.06,-17.24"/>
<polygon fill="#63b8ff" stroke="#63b8ff" points="449.62,-13.78 439.1,-15.04 448.11,-20.62 449.62,-13.78"/>
</a>
</g>
</g>
<!-- Node17&#45;&gt;Node18 -->
<g id="edge19_Node000017_Node000018" class="edge">
<title>Node17&#45;&gt;Node18</title>
<g id="a_edge19_Node000017_Node000018"><a xlink:title=" ">
<path fill="none" stroke="#63b8ff" d="M633.2,-111.08C692.36,-103.56 784.73,-90.88 874.26,-73.99"/>
<polygon fill="#63b8ff" stroke="#63b8ff" points="875.15,-77.38 884.32,-72.07 873.84,-70.5 875.15,-77.38"/>
</a>
</g>
</g>
<!-- Node19 -->
<g id="Node000019" class="node">
<title>Node19</title>
<g id="a_Node000019"><a xlink:title=" ">
<polygon fill="#e0e0e0" stroke="#999999" points="525,-74 465,-74 465,-55 525,-55 525,-74"/>
<text text-anchor="middle" x="495" y="-62" font-family="Helvetica,sans-Serif" font-size="10.00">iostream</text>
</a>
</g>
</g>
<!-- Node17&#45;&gt;Node19 -->
<g id="edge21_Node000017_Node000019" class="edge">
<title>Node17&#45;&gt;Node19</title>
<g id="a_edge21_Node000017_Node000019"><a xlink:title=" ">
<path fill="none" stroke="#63b8ff" d="M559.63,-109.98C547.91,-101.92 530.08,-89.65 516.11,-80.03"/>
<polygon fill="#63b8ff" stroke="#63b8ff" points="517.82,-76.96 507.6,-74.17 513.85,-82.72 517.82,-76.96"/>
</a>
</g>
</g>
<!-- Node17&#45;&gt;Node20 -->
<g id="edge22_Node000017_Node000020" class="edge">
<title>Node17&#45;&gt;Node20</title>
<g id="a_edge22_Node000017_Node000020"><a xlink:title=" ">
<path fill="none" stroke="#63b8ff" d="M633,-113.19C705.33,-106.46 829.68,-93.54 945.5,-74.1"/>
<polygon fill="#63b8ff" stroke="#63b8ff" points="946.33,-77.51 955.6,-72.39 945.16,-70.61 946.33,-77.51"/>
</a>
</g>
</g>
<!-- Node21 -->
<g id="Node000021" class="node">
<title>Node21</title>
<g id="a_Node000021"><a xlink:title=" ">
<polygon fill="#e0e0e0" stroke="#999999" points="666.5,-74 619.5,-74 619.5,-55 666.5,-55 666.5,-74"/>
<text text-anchor="middle" x="643" y="-62" font-family="Helvetica,sans-Serif" font-size="10.00">queue</text>
</a>
</g>
</g>
<!-- Node17&#45;&gt;Node21 -->
<g id="edge23_Node000017_Node000021" class="edge">
<title>Node17&#45;&gt;Node21</title>
<g id="a_edge23_Node000017_Node000021"><a xlink:title=" ">
<path fill="none" stroke="#63b8ff" d="M583.41,-109.98C594.11,-102 610.34,-89.88 623.16,-80.31"/>
<polygon fill="#63b8ff" stroke="#63b8ff" points="625.47,-82.96 631.39,-74.17 621.28,-77.35 625.47,-82.96"/>
</a>
</g>
</g>
<!-- Node22 -->
<g id="Node000022" class="node">
<title>Node22</title>
<g id="a_Node000022"><a xlink:title=" ">
<polygon fill="#e0e0e0" stroke="#999999" points="755.5,-74 684.5,-74 684.5,-55 755.5,-55 755.5,-74"/>
<text text-anchor="middle" x="720" y="-62" font-family="Helvetica,sans-Serif" font-size="10.00">semaphore</text>
</a>
</g>
</g>
<!-- Node17&#45;&gt;Node22 -->
<g id="edge24_Node000017_Node000022" class="edge">
<title>Node17&#45;&gt;Node22</title>
<g id="a_edge24_Node000017_Node000022"><a xlink:title=" ">
<path fill="none" stroke="#63b8ff" d="M595.78,-109.98C620.23,-101.23 658.53,-87.51 686.15,-77.62"/>
<polygon fill="#63b8ff" stroke="#63b8ff" points="687.55,-80.84 695.79,-74.17 685.19,-74.25 687.55,-80.84"/>
</a>
</g>
</g>
<!-- Node23 -->
<g id="Node000023" class="node">
<title>Node23</title>
<g id="a_Node000023"><a xlink:title=" ">
<polygon fill="#e0e0e0" stroke="#999999" points="866,-74 774,-74 774,-55 866,-55 866,-74"/>
<text text-anchor="middle" x="820" y="-62" font-family="Helvetica,sans-Serif" font-size="10.00">../utils/utils.hpp</text>
</a>
</g>
</g>
<!-- Node17&#45;&gt;Node23 -->
<g id="edge28_Node000017_Node000023" class="edge">
<title>Node17&#45;&gt;Node23</title>
<g id="a_edge28_Node000017_Node000023"><a xlink:title=" ">
<path fill="none" stroke="#63b8ff" d="M611.85,-109.98C654.83,-100.8 723.37,-86.15 769.96,-76.19"/>
<polygon fill="#63b8ff" stroke="#63b8ff" points="770.79,-79.59 779.84,-74.08 769.33,-72.75 770.79,-79.59"/>
</a>
</g>
</g>
</g>
</svg>

<g id="navigator" transform="translate(0 0)" fill="#404254">
  <rect fill="#f2f5e9" fill-opacity="0.5" stroke="#606060" stroke-width=".5" x="0" y="0" width="60" height="60"/>
  <use id="zoomplus" xlink:href="#zoomPlus" x="17" y="9" onmousedown="handleZoom(evt,'in')"/>
  <use id="zoomminus" xlink:href="#zoomMin" x="42" y="9" onmousedown="handleZoom(evt,'out')"/>
  <use id="reset" xlink:href="#resetDef" x="30" y="36" onmousedown="handleReset()"/>
   <use id="arrowup" xlink:href="#arrowUp" x="0" y="0" onmousedown="handlePan(0,-1)"/>
  <use id="arrowright" xlink:href="#arrowRight" x="0" y="0" onmousedown="handlePan(1,0)"/>
  <use id="arrowdown" xlink:href="#arrowDown" x="0" y="0" onmousedown="handlePan(0,1)"/>
  <use id="arrowleft" xlink:href="#arrowLeft" x="0" y="0" onmousedown="handlePan(-1,0)"/>
</g>
<svg viewBox="0 0 15 15" width="100%" height="30px" preserveAspectRatio="xMaxYMin meet">
 <g id="arrow_out" transform="scale(0.3 0.3)">
  <a xlink:href="vps_8cpp__incl_org.svg" target="_base">
   <rect id="button" ry="5" rx="5" y="6" x="6" height="38" width="38"
        fill="#f2f5e9" fill-opacity="0.5" stroke="#606060" stroke-width="1.0"/>
   <path id="arrow"
     d="M 11.500037,31.436501 C 11.940474,20.09759 22.043105,11.32322 32.158766,21.979434 L 37.068811,17.246167 C 37.068811,17.246167 37.088388,32 37.088388,32 L 22.160133,31.978069 C 22.160133,31.978069 26.997745,27.140456 26.997745,27.140456 C 18.528582,18.264221 13.291696,25.230495 11.500037,31.436501 z"
     style="fill:#404040;"/>
  </a>
 </g>
</svg>

<style type='text/css'>
<![CDATA[
[data-mouse-over-selected='false'] { opacity: 0.7; }
[data-mouse-over-selected='true']  { opacity: 1.0; }
]]>
</style>
<script type="application/ecmascript"><![CDATA[
document.addEventListener('DOMContentLoaded', (event) => {
  highlightEdges();
  highlightAdjacentNodes();
});
]]></script>
</svg>
