<?xml version="1.0" encoding="UTF-8" standalone="no"?>
<!DOCTYPE svg PUBLIC "-//W3C//DTD SVG 1.1//EN"
 "http://www.w3.org/Graphics/SVG/1.1/DTD/svg11.dtd">
<!-- Generated by graphviz version 2.43.0 (0)
 -->
<!-- Title: src/libuvgvpccenc/bitstreamGeneration/vps.hpp Pages: 1 -->
<svg width="1318pt" height="258pt"
 viewBox="0.00 0.00 1318.00 258.00" xmlns="http://www.w3.org/2000/svg" xmlns:xlink="http://www.w3.org/1999/xlink">
<g id="graph0" class="graph" transform="scale(1 1) rotate(0) translate(4 254)">
<title>src/libuvgvpccenc/bitstreamGeneration/vps.hpp</title>
<!-- Node1 -->
<g id="Node000001" class="node">
<title>Node1</title>
<g id="a_Node000001"><a xlink:title=" ">
<polygon fill="#999999" stroke="#666666" points="277,-250 123,-250 123,-220 277,-220 277,-250"/>
<text text-anchor="start" x="131" y="-238" font-family="Helvetica,sans-Serif" font-size="10.00">src/libuvgvpccenc/bitstream</text>
<text text-anchor="middle" x="200" y="-227" font-family="Helvetica,sans-Serif" font-size="10.00">Generation/vps.hpp</text>
</a>
</g>
</g>
<!-- Node2 -->
<g id="Node000002" class="node">
<title>Node2</title>
<g id="a_Node000002"><a xlink:title=" ">
<polygon fill="#e0e0e0" stroke="#999999" points="128.5,-184 81.5,-184 81.5,-165 128.5,-165 128.5,-184"/>
<text text-anchor="middle" x="105" y="-172" font-family="Helvetica,sans-Serif" font-size="10.00">cmath</text>
</a>
</g>
</g>
<!-- Node1&#45;&gt;Node2 -->
<g id="edge1_Node000001_Node000002" class="edge">
<title>Node1&#45;&gt;Node2</title>
<g id="a_edge1_Node000001_Node000002"><a xlink:title=" ">
<path fill="none" stroke="#63b8ff" d="M177,-219.84C162,-210.6 142.5,-198.59 127.57,-189.4"/>
<polygon fill="#63b8ff" stroke="#63b8ff" points="129.31,-186.36 118.96,-184.09 125.64,-192.32 129.31,-186.36"/>
</a>
</g>
</g>
<!-- Node3 -->
<g id="Node000003" class="node">
<title>Node3</title>
<g id="a_Node000003"><a xlink:href="bitstream__util_8hpp.html" target="_top" xlink:title=" ">
<polygon fill="white" stroke="#666666" points="106,-129 0,-129 0,-110 106,-110 106,-129"/>
<text text-anchor="middle" x="53" y="-117" font-family="Helvetica,sans-Serif" font-size="10.00">bitstream_util.hpp</text>
</a>
</g>
</g>
<!-- Node1&#45;&gt;Node3 -->
<g id="edge2_Node000001_Node000003" class="edge">
<title>Node1&#45;&gt;Node3</title>
<g id="a_edge2_Node000001_Node000003"><a xlink:title=" ">
<path fill="none" stroke="#63b8ff" d="M189.59,-219.98C177.97,-205.03 158.03,-181.29 137,-165 120.53,-152.24 99.88,-141.25 83.18,-133.38"/>
<polygon fill="#63b8ff" stroke="#63b8ff" points="84.41,-130.09 73.86,-129.12 81.5,-136.46 84.41,-130.09"/>
</a>
</g>
</g>
<!-- Node8 -->
<g id="Node000008" class="node">
<title>Node8</title>
<g id="a_Node000008"><a xlink:href="parameters_8hpp.html" target="_top" xlink:title=" ">
<polygon fill="white" stroke="#666666" points="303,-184 185,-184 185,-165 303,-165 303,-184"/>
<text text-anchor="middle" x="244" y="-172" font-family="Helvetica,sans-Serif" font-size="10.00">utils/parameters.hpp</text>
</a>
</g>
</g>
<!-- Node1&#45;&gt;Node8 -->
<g id="edge7_Node000001_Node000008" class="edge">
<title>Node1&#45;&gt;Node8</title>
<g id="a_edge7_Node000001_Node000008"><a xlink:title=" ">
<path fill="none" stroke="#63b8ff" d="M210.65,-219.84C216.84,-211.61 224.69,-201.18 231.21,-192.51"/>
<polygon fill="#63b8ff" stroke="#63b8ff" points="234.19,-194.36 237.41,-184.27 228.6,-190.15 234.19,-194.36"/>
</a>
</g>
</g>
<!-- Node22 -->
<g id="Node000022" class="node">
<title>Node22</title>
<g id="a_Node000022"><a xlink:href="uvgvpcc_8hpp.html" target="_top" xlink:title=" ">
<polygon fill="white" stroke="#666666" points="674,-184 552,-184 552,-165 674,-165 674,-184"/>
<text text-anchor="middle" x="613" y="-172" font-family="Helvetica,sans-Serif" font-size="10.00">uvgvpcc/uvgvpcc.hpp</text>
</a>
</g>
</g>
<!-- Node1&#45;&gt;Node22 -->
<g id="edge25_Node000001_Node000022" class="edge">
<title>Node1&#45;&gt;Node22</title>
<g id="a_edge25_Node000001_Node000022"><a xlink:title=" ">
<path fill="none" stroke="#63b8ff" d="M277.2,-223.07C353.46,-212.26 469.09,-195.88 542.81,-185.44"/>
<polygon fill="#63b8ff" stroke="#63b8ff" points="543.52,-188.88 552.93,-184.01 542.54,-181.95 543.52,-188.88"/>
</a>
</g>
</g>
<!-- Node4 -->
<g id="Node000004" class="node">
<title>Node4</title>
<g id="a_Node000004"><a xlink:title=" ">
<polygon fill="#e0e0e0" stroke="#999999" points="169,-74 117,-74 117,-55 169,-55 169,-74"/>
<text text-anchor="middle" x="143" y="-62" font-family="Helvetica,sans-Serif" font-size="10.00">cassert</text>
</a>
</g>
</g>
<!-- Node3&#45;&gt;Node4 -->
<g id="edge3_Node000003_Node000004" class="edge">
<title>Node3&#45;&gt;Node4</title>
<g id="a_edge3_Node000003_Node000004"><a xlink:title=" ">
<path fill="none" stroke="#63b8ff" d="M67.46,-109.98C81.42,-101.77 102.79,-89.18 119.25,-79.49"/>
<polygon fill="#63b8ff" stroke="#63b8ff" points="121.44,-82.26 128.28,-74.17 117.88,-76.23 121.44,-82.26"/>
</a>
</g>
</g>
<!-- Node5 -->
<g id="Node000005" class="node">
<title>Node5</title>
<g id="a_Node000005"><a xlink:title=" ">
<polygon fill="#e0e0e0" stroke="#999999" points="99,-74 49,-74 49,-55 99,-55 99,-74"/>
<text text-anchor="middle" x="74" y="-62" font-family="Helvetica,sans-Serif" font-size="10.00">cstring</text>
</a>
</g>
</g>
<!-- Node3&#45;&gt;Node5 -->
<g id="edge4_Node000003_Node000005" class="edge">
<title>Node3&#45;&gt;Node5</title>
<g id="a_edge4_Node000003_Node000005"><a xlink:title=" ">
<path fill="none" stroke="#63b8ff" d="M56.47,-109.75C59.28,-102.65 63.34,-92.4 66.85,-83.56"/>
<polygon fill="#63b8ff" stroke="#63b8ff" points="70.17,-84.68 70.6,-74.09 63.66,-82.1 70.17,-84.68"/>
</a>
</g>
</g>
<!-- Node6 -->
<g id="Node000006" class="node">
<title>Node6</title>
<g id="a_Node000006"><a xlink:title=" ">
<polygon fill="#e0e0e0" stroke="#999999" points="336,-74 286,-74 286,-55 336,-55 336,-74"/>
<text text-anchor="middle" x="311" y="-62" font-family="Helvetica,sans-Serif" font-size="10.00">cstdint</text>
</a>
</g>
</g>
<!-- Node3&#45;&gt;Node6 -->
<g id="edge5_Node000003_Node000006" class="edge">
<title>Node3&#45;&gt;Node6</title>
<g id="a_edge5_Node000003_Node000006"><a xlink:title=" ">
<path fill="none" stroke="#63b8ff" d="M94.45,-109.98C144.64,-99.67 228.31,-82.49 275.61,-72.77"/>
<polygon fill="#63b8ff" stroke="#63b8ff" points="276.59,-76.14 285.68,-70.7 275.18,-69.28 276.59,-76.14"/>
</a>
</g>
</g>
<!-- Node7 -->
<g id="Node000007" class="node">
<title>Node7</title>
<g id="a_Node000007"><a xlink:title=" ">
<polygon fill="#e0e0e0" stroke="#999999" points="259,-19 215,-19 215,0 259,0 259,-19"/>
<text text-anchor="middle" x="237" y="-7" font-family="Helvetica,sans-Serif" font-size="10.00">string</text>
</a>
</g>
</g>
<!-- Node3&#45;&gt;Node7 -->
<g id="edge6_Node000003_Node000007" class="edge">
<title>Node3&#45;&gt;Node7</title>
<g id="a_edge6_Node000003_Node000007"><a xlink:title=" ">
<path fill="none" stroke="#63b8ff" d="M47.16,-109.66C39.18,-96.34 27.21,-71 40,-55 60.29,-29.62 154.44,-17.67 204.88,-13"/>
<polygon fill="#63b8ff" stroke="#63b8ff" points="205.28,-16.48 214.94,-12.11 204.67,-9.5 205.28,-16.48"/>
</a>
</g>
</g>
<!-- Node8&#45;&gt;Node7 -->
<g id="edge9_Node000008_Node000007" class="edge">
<title>Node8&#45;&gt;Node7</title>
<g id="a_edge9_Node000008_Node000007"><a xlink:title=" ">
<path fill="none" stroke="#63b8ff" d="M242.2,-164.68C240.47,-155.74 237.98,-141.48 237,-129 234.26,-93.91 235.18,-52.79 236.09,-29.38"/>
<polygon fill="#63b8ff" stroke="#63b8ff" points="239.6,-29.28 236.54,-19.14 232.61,-28.98 239.6,-29.28"/>
</a>
</g>
</g>
<!-- Node9 -->
<g id="Node000009" class="node">
<title>Node9</title>
<g id="a_Node000009"><a xlink:title=" ">
<polygon fill="#e0e0e0" stroke="#999999" points="189.5,-129 124.5,-129 124.5,-110 189.5,-110 189.5,-129"/>
<text text-anchor="middle" x="157" y="-117" font-family="Helvetica,sans-Serif" font-size="10.00">stdexcept</text>
</a>
</g>
</g>
<!-- Node8&#45;&gt;Node9 -->
<g id="edge8_Node000008_Node000009" class="edge">
<title>Node8&#45;&gt;Node9</title>
<g id="a_edge8_Node000008_Node000009"><a xlink:title=" ">
<path fill="none" stroke="#63b8ff" d="M230.02,-164.98C216.53,-156.77 195.87,-144.18 179.96,-134.49"/>
<polygon fill="#63b8ff" stroke="#63b8ff" points="181.59,-131.38 171.23,-129.17 177.95,-137.36 181.59,-131.38"/>
</a>
</g>
</g>
<!-- Node10 -->
<g id="Node000010" class="node">
<title>Node10</title>
<g id="a_Node000010"><a xlink:title=" ">
<polygon fill="#e0e0e0" stroke="#999999" points="293.5,-129 246.5,-129 246.5,-110 293.5,-110 293.5,-129"/>
<text text-anchor="middle" x="270" y="-117" font-family="Helvetica,sans-Serif" font-size="10.00">vector</text>
</a>
</g>
</g>
<!-- Node8&#45;&gt;Node10 -->
<g id="edge10_Node000008_Node000010" class="edge">
<title>Node8&#45;&gt;Node10</title>
<g id="a_edge10_Node000008_Node000010"><a xlink:title=" ">
<path fill="none" stroke="#63b8ff" d="M248.29,-164.75C251.81,-157.57 256.91,-147.18 261.28,-138.27"/>
<polygon fill="#63b8ff" stroke="#63b8ff" points="264.52,-139.61 265.79,-129.09 258.24,-136.53 264.52,-139.61"/>
</a>
</g>
</g>
<!-- Node11 -->
<g id="Node000011" class="node">
<title>Node11</title>
<g id="a_Node000011"><a xlink:href="utils_8hpp.html" target="_top" xlink:title=" ">
<polygon fill="white" stroke="#666666" points="489.5,-129 388.5,-129 388.5,-110 489.5,-110 489.5,-129"/>
<text text-anchor="middle" x="439" y="-117" font-family="Helvetica,sans-Serif" font-size="10.00">uvgutils/utils.hpp</text>
</a>
</g>
</g>
<!-- Node8&#45;&gt;Node11 -->
<g id="edge11_Node000008_Node000011" class="edge">
<title>Node8&#45;&gt;Node11</title>
<g id="a_edge11_Node000008_Node000011"><a xlink:title=" ">
<path fill="none" stroke="#63b8ff" d="M275.33,-164.98C308.49,-155.97 361,-141.7 397.56,-131.76"/>
<polygon fill="#63b8ff" stroke="#63b8ff" points="398.69,-135.08 407.42,-129.08 396.86,-128.33 398.69,-135.08"/>
</a>
</g>
</g>
<!-- Node11&#45;&gt;Node6 -->
<g id="edge14_Node000011_Node000006" class="edge">
<title>Node11&#45;&gt;Node6</title>
<g id="a_edge14_Node000011_Node000006"><a xlink:title=" ">
<path fill="none" stroke="#63b8ff" d="M418.43,-109.98C397.57,-101.34 365.03,-87.87 341.23,-78.02"/>
<polygon fill="#63b8ff" stroke="#63b8ff" points="342.52,-74.76 331.94,-74.17 339.84,-81.23 342.52,-74.76"/>
</a>
</g>
</g>
<!-- Node12 -->
<g id="Node000012" class="node">
<title>Node12</title>
<g id="a_Node000012"><a xlink:title=" ">
<polygon fill="#e0e0e0" stroke="#999999" points="458,-74 416,-74 416,-55 458,-55 458,-74"/>
<text text-anchor="middle" x="437" y="-62" font-family="Helvetica,sans-Serif" font-size="10.00">array</text>
</a>
</g>
</g>
<!-- Node11&#45;&gt;Node12 -->
<g id="edge12_Node000011_Node000012" class="edge">
<title>Node11&#45;&gt;Node12</title>
<g id="a_edge12_Node000011_Node000012"><a xlink:title=" ">
<path fill="none" stroke="#63b8ff" d="M438.67,-109.75C438.41,-102.8 438.03,-92.85 437.7,-84.13"/>
<polygon fill="#63b8ff" stroke="#63b8ff" points="441.2,-83.95 437.32,-74.09 434.2,-84.21 441.2,-83.95"/>
</a>
</g>
</g>
<!-- Node13 -->
<g id="Node000013" class="node">
<title>Node13</title>
<g id="a_Node000013"><a xlink:title=" ">
<polygon fill="#e0e0e0" stroke="#999999" points="638.5,-74 585.5,-74 585.5,-55 638.5,-55 638.5,-74"/>
<text text-anchor="middle" x="612" y="-62" font-family="Helvetica,sans-Serif" font-size="10.00">cstddef</text>
</a>
</g>
</g>
<!-- Node11&#45;&gt;Node13 -->
<g id="edge13_Node000011_Node000013" class="edge">
<title>Node11&#45;&gt;Node13</title>
<g id="a_edge13_Node000011_Node000013"><a xlink:title=" ">
<path fill="none" stroke="#63b8ff" d="M466.8,-109.98C496.4,-100.92 543.37,-86.53 575.84,-76.58"/>
<polygon fill="#63b8ff" stroke="#63b8ff" points="576.87,-79.92 585.41,-73.65 574.82,-73.23 576.87,-79.92"/>
</a>
</g>
</g>
<!-- Node14 -->
<g id="Node000014" class="node">
<title>Node14</title>
<g id="a_Node000014"><a xlink:title=" ">
<polygon fill="#e0e0e0" stroke="#999999" points="498,-19 442,-19 442,0 498,0 498,-19"/>
<text text-anchor="middle" x="470" y="-7" font-family="Helvetica,sans-Serif" font-size="10.00">iomanip</text>
</a>
</g>
</g>
<!-- Node11&#45;&gt;Node14 -->
<g id="edge15_Node000011_Node000014" class="edge">
<title>Node11&#45;&gt;Node14</title>
<g id="a_edge15_Node000011_Node000014"><a xlink:title=" ">
<path fill="none" stroke="#63b8ff" d="M446.27,-109.98C453.02,-101.49 462.68,-87.76 467,-74 471.55,-59.5 472.08,-42.23 471.59,-29.37"/>
<polygon fill="#63b8ff" stroke="#63b8ff" points="475.08,-29.14 470.97,-19.37 468.09,-29.57 475.08,-29.14"/>
</a>
</g>
</g>
<!-- Node15 -->
<g id="Node000015" class="node">
<title>Node15</title>
<g id="a_Node000015"><a xlink:title=" ">
<polygon fill="#e0e0e0" stroke="#999999" points="398,-74 354,-74 354,-55 398,-55 398,-74"/>
<text text-anchor="middle" x="376" y="-62" font-family="Helvetica,sans-Serif" font-size="10.00">limits</text>
</a>
</g>
</g>
<!-- Node11&#45;&gt;Node15 -->
<g id="edge16_Node000011_Node000015" class="edge">
<title>Node11&#45;&gt;Node15</title>
<g id="a_edge16_Node000011_Node000015"><a xlink:title=" ">
<path fill="none" stroke="#63b8ff" d="M428.88,-109.98C419.56,-102.15 405.53,-90.34 394.26,-80.86"/>
<polygon fill="#63b8ff" stroke="#63b8ff" points="396.21,-77.93 386.31,-74.17 391.71,-83.29 396.21,-77.93"/>
</a>
</g>
</g>
<!-- Node16 -->
<g id="Node000016" class="node">
<title>Node16</title>
<g id="a_Node000016"><a xlink:title=" ">
<polygon fill="#e0e0e0" stroke="#999999" points="713,-74 657,-74 657,-55 713,-55 713,-74"/>
<text text-anchor="middle" x="685" y="-62" font-family="Helvetica,sans-Serif" font-size="10.00">sstream</text>
</a>
</g>
</g>
<!-- Node11&#45;&gt;Node16 -->
<g id="edge17_Node000011_Node000016" class="edge">
<title>Node11&#45;&gt;Node16</title>
<g id="a_edge17_Node000011_Node000016"><a xlink:title=" ">
<path fill="none" stroke="#63b8ff" d="M479.29,-110C521.21,-101.12 588.74,-86.75 647,-74 647.1,-73.98 647.2,-73.96 647.3,-73.93"/>
<polygon fill="#63b8ff" stroke="#63b8ff" points="647.77,-77.41 656.78,-71.84 646.27,-70.58 647.77,-77.41"/>
</a>
</g>
</g>
<!-- Node17 -->
<g id="Node000017" class="node">
<title>Node17</title>
<g id="a_Node000017"><a xlink:href="log_8hpp.html" target="_top" xlink:title=" ">
<polygon fill="white" stroke="#666666" points="567.5,-74 514.5,-74 514.5,-55 567.5,-55 567.5,-74"/>
<text text-anchor="middle" x="541" y="-62" font-family="Helvetica,sans-Serif" font-size="10.00">log.hpp</text>
</a>
</g>
</g>
<!-- Node11&#45;&gt;Node17 -->
<g id="edge18_Node000011_Node000017" class="edge">
<title>Node11&#45;&gt;Node17</title>
<g id="a_edge18_Node000011_Node000017"><a xlink:title=" ">
<path fill="none" stroke="#63b8ff" d="M455.39,-109.98C471.57,-101.57 496.57,-88.59 515.38,-78.81"/>
<polygon fill="#63b8ff" stroke="#63b8ff" points="517.05,-81.89 524.31,-74.17 513.83,-75.68 517.05,-81.89"/>
</a>
</g>
</g>
<!-- Node17&#45;&gt;Node7 -->
<g id="edge24_Node000017_Node000007" class="edge">
<title>Node17&#45;&gt;Node7</title>
<g id="a_edge24_Node000017_Node000007"><a xlink:title=" ">
<path fill="none" stroke="#63b8ff" d="M514.29,-58.84C458.52,-49.12 329.9,-26.7 269.47,-16.16"/>
<polygon fill="#63b8ff" stroke="#63b8ff" points="269.81,-12.67 259.36,-14.4 268.61,-19.56 269.81,-12.67"/>
</a>
</g>
</g>
<!-- Node17&#45;&gt;Node14 -->
<g id="edge21_Node000017_Node000014" class="edge">
<title>Node17&#45;&gt;Node14</title>
<g id="a_edge21_Node000017_Node000014"><a xlink:title=" ">
<path fill="none" stroke="#63b8ff" d="M529.59,-54.98C518.89,-47 502.66,-34.88 489.84,-25.31"/>
<polygon fill="#63b8ff" stroke="#63b8ff" points="491.72,-22.35 481.61,-19.17 487.53,-27.96 491.72,-22.35"/>
</a>
</g>
</g>
<!-- Node18 -->
<g id="Node000018" class="node">
<title>Node18</title>
<g id="a_Node000018"><a xlink:title=" ">
<polygon fill="#e0e0e0" stroke="#999999" points="566,-19 516,-19 516,0 566,0 566,-19"/>
<text text-anchor="middle" x="541" y="-7" font-family="Helvetica,sans-Serif" font-size="10.00">chrono</text>
</a>
</g>
</g>
<!-- Node17&#45;&gt;Node18 -->
<g id="edge19_Node000017_Node000018" class="edge">
<title>Node17&#45;&gt;Node18</title>
<g id="a_edge19_Node000017_Node000018"><a xlink:title=" ">
<path fill="none" stroke="#63b8ff" d="M541,-54.75C541,-47.8 541,-37.85 541,-29.13"/>
<polygon fill="#63b8ff" stroke="#63b8ff" points="544.5,-29.09 541,-19.09 537.5,-29.09 544.5,-29.09"/>
</a>
</g>
</g>
<!-- Node19 -->
<g id="Node000019" class="node">
<title>Node19</title>
<g id="a_Node000019"><a xlink:title=" ">
<polygon fill="#e0e0e0" stroke="#999999" points="637.5,-19 584.5,-19 584.5,0 637.5,0 637.5,-19"/>
<text text-anchor="middle" x="611" y="-7" font-family="Helvetica,sans-Serif" font-size="10.00">cstdarg</text>
</a>
</g>
</g>
<!-- Node17&#45;&gt;Node19 -->
<g id="edge20_Node000017_Node000019" class="edge">
<title>Node17&#45;&gt;Node19</title>
<g id="a_edge20_Node000017_Node000019"><a xlink:title=" ">
<path fill="none" stroke="#63b8ff" d="M552.25,-54.98C562.8,-47 578.8,-34.88 591.44,-25.31"/>
<polygon fill="#63b8ff" stroke="#63b8ff" points="593.69,-28 599.55,-19.17 589.46,-22.42 593.69,-28"/>
</a>
</g>
</g>
<!-- Node20 -->
<g id="Node000020" class="node">
<title>Node20</title>
<g id="a_Node000020"><a xlink:title=" ">
<polygon fill="#e0e0e0" stroke="#999999" points="817,-19 757,-19 757,0 817,0 817,-19"/>
<text text-anchor="middle" x="787" y="-7" font-family="Helvetica,sans-Serif" font-size="10.00">iostream</text>
</a>
</g>
</g>
<!-- Node17&#45;&gt;Node20 -->
<g id="edge22_Node000017_Node000020" class="edge">
<title>Node17&#45;&gt;Node20</title>
<g id="a_edge22_Node000017_Node000020"><a xlink:title=" ">
<path fill="none" stroke="#63b8ff" d="M567.73,-56.92C570.52,-56.26 573.32,-55.61 576,-55 635.36,-41.53 704.44,-27.22 746.94,-18.57"/>
<polygon fill="#63b8ff" stroke="#63b8ff" points="747.78,-21.97 756.89,-16.55 746.39,-15.11 747.78,-21.97"/>
</a>
</g>
</g>
<!-- Node21 -->
<g id="Node000021" class="node">
<title>Node21</title>
<g id="a_Node000021"><a xlink:title=" ">
<polygon fill="#e0e0e0" stroke="#999999" points="704,-19 656,-19 656,0 704,0 704,-19"/>
<text text-anchor="middle" x="680" y="-7" font-family="Helvetica,sans-Serif" font-size="10.00">mutex</text>
</a>
</g>
</g>
<!-- Node17&#45;&gt;Node21 -->
<g id="edge23_Node000017_Node000021" class="edge">
<title>Node17&#45;&gt;Node21</title>
<g id="a_edge23_Node000017_Node000021"><a xlink:title=" ">
<path fill="none" stroke="#63b8ff" d="M563.33,-54.98C586.2,-46.27 621.96,-32.63 647.86,-22.75"/>
<polygon fill="#63b8ff" stroke="#63b8ff" points="649.16,-26 657.26,-19.17 646.67,-19.46 649.16,-26"/>
</a>
</g>
</g>
<!-- Node22&#45;&gt;Node6 -->
<g id="edge27_Node000022_Node000006" class="edge">
<title>Node22&#45;&gt;Node6</title>
<g id="a_edge27_Node000022_Node000006"><a xlink:title=" ">
<path fill="none" stroke="#63b8ff" d="M551.84,-171.17C502.79,-167.17 433.39,-156.6 379,-129 356.6,-117.64 336.33,-96.65 323.86,-81.93"/>
<polygon fill="#63b8ff" stroke="#63b8ff" points="326.5,-79.63 317.46,-74.1 321.08,-84.06 326.5,-79.63"/>
</a>
</g>
</g>
<!-- Node22&#45;&gt;Node7 -->
<g id="edge33_Node000022_Node000007" class="edge">
<title>Node22&#45;&gt;Node7</title>
<g id="a_edge33_Node000022_Node000007"><a xlink:title=" ">
<path fill="none" stroke="#63b8ff" d="M551.93,-171.68C496.61,-168.1 413.92,-157.86 348,-129 311.44,-112.99 303.82,-103.56 277,-74 264.44,-60.16 253.4,-41.89 246.12,-28.51"/>
<polygon fill="#63b8ff" stroke="#63b8ff" points="249.07,-26.6 241.32,-19.37 242.87,-29.85 249.07,-26.6"/>
</a>
</g>
</g>
<!-- Node22&#45;&gt;Node10 -->
<g id="edge34_Node000022_Node000010" class="edge">
<title>Node22&#45;&gt;Node10</title>
<g id="a_edge34_Node000022_Node000010"><a xlink:title=" ">
<path fill="none" stroke="#63b8ff" d="M551.73,-165.94C489.98,-157.99 392.07,-144.51 308,-129 306.55,-128.73 305.06,-128.45 303.57,-128.15"/>
<polygon fill="#63b8ff" stroke="#63b8ff" points="304.16,-124.7 293.66,-126.08 302.73,-131.55 304.16,-124.7"/>
</a>
</g>
</g>
<!-- Node22&#45;&gt;Node11 -->
<g id="edge39_Node000022_Node000011" class="edge">
<title>Node22&#45;&gt;Node11</title>
<g id="a_edge39_Node000022_Node000011"><a xlink:title=" ">
<path fill="none" stroke="#63b8ff" d="M585.04,-164.98C555.7,-156.05 509.4,-141.94 476.81,-132.02"/>
<polygon fill="#63b8ff" stroke="#63b8ff" points="477.76,-128.65 467.18,-129.08 475.72,-135.34 477.76,-128.65"/>
</a>
</g>
</g>
<!-- Node22&#45;&gt;Node13 -->
<g id="edge26_Node000022_Node000013" class="edge">
<title>Node22&#45;&gt;Node13</title>
<g id="a_edge26_Node000022_Node000013"><a xlink:title=" ">
<path fill="none" stroke="#63b8ff" d="M587.49,-164.9C571.31,-157.96 551.65,-146.44 542,-129 530.15,-107.58 555.88,-89.56 579.42,-78.25"/>
<polygon fill="#63b8ff" stroke="#63b8ff" points="580.92,-81.42 588.59,-74.11 578.03,-75.04 580.92,-81.42"/>
</a>
</g>
</g>
<!-- Node22&#45;&gt;Node16 -->
<g id="edge32_Node000022_Node000016" class="edge">
<title>Node22&#45;&gt;Node16</title>
<g id="a_edge32_Node000022_Node000016"><a xlink:title=" ">
<path fill="none" stroke="#63b8ff" d="M601.27,-164.9C585.85,-152.52 562.14,-129.07 575,-110 583.5,-97.39 618.76,-84.53 647.1,-75.9"/>
<polygon fill="#63b8ff" stroke="#63b8ff" points="648.19,-79.23 656.78,-73.03 646.2,-72.52 648.19,-79.23"/>
</a>
</g>
</g>
<!-- Node22&#45;&gt;Node20 -->
<g id="edge28_Node000022_Node000020" class="edge">
<title>Node22&#45;&gt;Node20</title>
<g id="a_edge28_Node000022_Node000020"><a xlink:title=" ">
<path fill="none" stroke="#63b8ff" d="M674.13,-167.62C724.31,-161.38 789.68,-149.52 806,-129 829.36,-99.64 810.45,-52.94 797.18,-27.83"/>
<polygon fill="#63b8ff" stroke="#63b8ff" points="800.23,-26.1 792.31,-19.06 794.11,-29.51 800.23,-26.1"/>
</a>
</g>
</g>
<!-- Node23 -->
<g id="Node000023" class="node">
<title>Node23</title>
<g id="a_Node000023"><a xlink:title=" ">
<polygon fill="#e0e0e0" stroke="#999999" points="642,-129 584,-129 584,-110 642,-110 642,-129"/>
<text text-anchor="middle" x="613" y="-117" font-family="Helvetica,sans-Serif" font-size="10.00">memory</text>
</a>
</g>
</g>
<!-- Node22&#45;&gt;Node23 -->
<g id="edge29_Node000022_Node000023" class="edge">
<title>Node22&#45;&gt;Node23</title>
<g id="a_edge29_Node000022_Node000023"><a xlink:title=" ">
<path fill="none" stroke="#63b8ff" d="M613,-164.75C613,-157.8 613,-147.85 613,-139.13"/>
<polygon fill="#63b8ff" stroke="#63b8ff" points="616.5,-139.09 613,-129.09 609.5,-139.09 616.5,-139.09"/>
</a>
</g>
</g>
<!-- Node24 -->
<g id="Node000024" class="node">
<title>Node24</title>
<g id="a_Node000024"><a xlink:title=" ">
<polygon fill="#e0e0e0" stroke="#999999" points="707.5,-129 660.5,-129 660.5,-110 707.5,-110 707.5,-129"/>
<text text-anchor="middle" x="684" y="-117" font-family="Helvetica,sans-Serif" font-size="10.00">queue</text>
</a>
</g>
</g>
<!-- Node22&#45;&gt;Node24 -->
<g id="edge30_Node000022_Node000024" class="edge">
<title>Node22&#45;&gt;Node24</title>
<g id="a_edge30_Node000022_Node000024"><a xlink:title=" ">
<path fill="none" stroke="#63b8ff" d="M624.41,-164.98C635.11,-157 651.34,-144.88 664.16,-135.31"/>
<polygon fill="#63b8ff" stroke="#63b8ff" points="666.47,-137.96 672.39,-129.17 662.28,-132.35 666.47,-137.96"/>
</a>
</g>
</g>
<!-- Node25 -->
<g id="Node000025" class="node">
<title>Node25</title>
<g id="a_Node000025"><a xlink:title=" ">
<polygon fill="#e0e0e0" stroke="#999999" points="796.5,-129 725.5,-129 725.5,-110 796.5,-110 796.5,-129"/>
<text text-anchor="middle" x="761" y="-117" font-family="Helvetica,sans-Serif" font-size="10.00">semaphore</text>
</a>
</g>
</g>
<!-- Node22&#45;&gt;Node25 -->
<g id="edge31_Node000022_Node000025" class="edge">
<title>Node22&#45;&gt;Node25</title>
<g id="a_edge31_Node000022_Node000025"><a xlink:title=" ">
<path fill="none" stroke="#63b8ff" d="M636.78,-164.98C661.23,-156.23 699.53,-142.51 727.15,-132.62"/>
<polygon fill="#63b8ff" stroke="#63b8ff" points="728.55,-135.84 736.79,-129.17 726.19,-129.25 728.55,-135.84"/>
</a>
</g>
</g>
<!-- Node26 -->
<g id="Node000026" class="node">
<title>Node26</title>
<g id="a_Node000026"><a xlink:title=" ">
<polygon fill="#e0e0e0" stroke="#999999" points="917,-129 853,-129 853,-110 917,-110 917,-129"/>
<text text-anchor="middle" x="885" y="-117" font-family="Helvetica,sans-Serif" font-size="10.00">algorithm</text>
</a>
</g>
</g>
<!-- Node22&#45;&gt;Node26 -->
<g id="edge35_Node000022_Node000026" class="edge">
<title>Node22&#45;&gt;Node26</title>
<g id="a_edge35_Node000022_Node000026"><a xlink:title=" ">
<path fill="none" stroke="#63b8ff" d="M656.7,-164.98C707.98,-154.99 792.41,-138.54 842.96,-128.69"/>
<polygon fill="#63b8ff" stroke="#63b8ff" points="843.76,-132.1 852.9,-126.75 842.42,-125.23 843.76,-132.1"/>
</a>
</g>
</g>
<!-- Node27 -->
<g id="Node000027" class="node">
<title>Node27</title>
<g id="a_Node000027"><a xlink:title=" ">
<polygon fill="#e0e0e0" stroke="#999999" points="1028.5,-129 935.5,-129 935.5,-110 1028.5,-110 1028.5,-129"/>
<text text-anchor="middle" x="982" y="-117" font-family="Helvetica,sans-Serif" font-size="10.00">unordered_map</text>
</a>
</g>
</g>
<!-- Node22&#45;&gt;Node27 -->
<g id="edge36_Node000022_Node000027" class="edge">
<title>Node22&#45;&gt;Node27</title>
<g id="a_edge36_Node000022_Node000027"><a xlink:title=" ">
<path fill="none" stroke="#63b8ff" d="M674.2,-164.97C735.16,-156.44 831.69,-142.82 925.33,-129.09"/>
<polygon fill="#63b8ff" stroke="#63b8ff" points="925.87,-132.55 935.25,-127.63 924.85,-125.62 925.87,-132.55"/>
</a>
</g>
</g>
<!-- Node28 -->
<g id="Node000028" class="node">
<title>Node28</title>
<g id="a_Node000028"><a xlink:title=" ">
<polygon fill="#e0e0e0" stroke="#999999" points="1173.5,-129 1046.5,-129 1046.5,-110 1173.5,-110 1173.5,-129"/>
<text text-anchor="middle" x="1110" y="-117" font-family="Helvetica,sans-Serif" font-size="10.00">../utils/parameters.hpp</text>
</a>
</g>
</g>
<!-- Node22&#45;&gt;Node28 -->
<g id="edge37_Node000022_Node000028" class="edge">
<title>Node22&#45;&gt;Node28</title>
<g id="a_edge37_Node000022_Node000028"><a xlink:title=" ">
<path fill="none" stroke="#63b8ff" d="M674.26,-167.34C754.86,-159.18 901.23,-144.17 1036.29,-129.18"/>
<polygon fill="#63b8ff" stroke="#63b8ff" points="1036.85,-132.64 1046.4,-128.05 1036.08,-125.68 1036.85,-132.64"/>
</a>
</g>
</g>
<!-- Node29 -->
<g id="Node000029" class="node">
<title>Node29</title>
<g id="a_Node000029"><a xlink:title=" ">
<polygon fill="#e0e0e0" stroke="#999999" points="1310,-129 1192,-129 1192,-110 1310,-110 1310,-129"/>
<text text-anchor="middle" x="1251" y="-117" font-family="Helvetica,sans-Serif" font-size="10.00">../utils/constants.hpp</text>
</a>
</g>
</g>
<!-- Node22&#45;&gt;Node29 -->
<g id="edge38_Node000022_Node000029" class="edge">
<title>Node22&#45;&gt;Node29</title>
<g id="a_edge38_Node000022_Node000029"><a xlink:title=" ">
<path fill="none" stroke="#63b8ff" d="M674.24,-169.66C776.89,-163.01 990.41,-148.29 1181.45,-129.11"/>
<polygon fill="#63b8ff" stroke="#63b8ff" points="1182.08,-132.57 1191.68,-128.08 1181.38,-125.6 1182.08,-132.57"/>
</a>
</g>
</g>
</g>
</svg>
