<?xml version="1.0" encoding="UTF-8" standalone="no"?>
<!DOCTYPE svg PUBLIC "-//W3C//DTD SVG 1.1//EN"
 "http://www.w3.org/Graphics/SVG/1.1/DTD/svg11.dtd">
<!-- Generated by graphviz version 2.43.0 (0)
 -->
<!-- Title: src/lib/bitstreamGeneration/vps.cpp Pages: 1 -->
<svg width="1061pt" height="258pt"
 viewBox="0.00 0.00 1060.79 258.00" xmlns="http://www.w3.org/2000/svg" xmlns:xlink="http://www.w3.org/1999/xlink">
<g id="graph0" class="graph" transform="scale(1 1) rotate(0) translate(4 254)">
<title>src/lib/bitstreamGeneration/vps.cpp</title>
<!-- Node1 -->
<g id="Node000001" class="node">
<title>Node1</title>
<g id="a_Node000001"><a xlink:title=" ">
<polygon fill="#999999" stroke="#666666" points="517,-250 367,-250 367,-220 517,-220 517,-250"/>
<text text-anchor="start" x="375" y="-238" font-family="Helvetica,sans-Serif" font-size="10.00">src/lib/bitstreamGeneration</text>
<text text-anchor="middle" x="442" y="-227" font-family="Helvetica,sans-Serif" font-size="10.00">/vps.cpp</text>
</a>
</g>
</g>
<!-- Node2 -->
<g id="Node000002" class="node">
<title>Node2</title>
<g id="a_Node000002"><a xlink:href="vps_8hpp.html" target="_top" xlink:title=" ">
<polygon fill="white" stroke="#666666" points="301.5,-184 246.5,-184 246.5,-165 301.5,-165 301.5,-184"/>
<text text-anchor="middle" x="274" y="-172" font-family="Helvetica,sans-Serif" font-size="10.00">vps.hpp</text>
</a>
</g>
</g>
<!-- Node1&#45;&gt;Node2 -->
<g id="edge1_Node000001_Node000002" class="edge">
<title>Node1&#45;&gt;Node2</title>
<g id="a_edge1_Node000001_Node000002"><a xlink:title=" ">
<path fill="none" stroke="#63b8ff" d="M401.76,-219.99C373.23,-210.05 335.35,-196.86 308.27,-187.43"/>
<polygon fill="#63b8ff" stroke="#63b8ff" points="309.4,-184.12 298.81,-184.14 307.1,-190.73 309.4,-184.12"/>
</a>
</g>
</g>
<!-- Node3 -->
<g id="Node000003" class="node">
<title>Node3</title>
<g id="a_Node000003"><a xlink:title=" ">
<polygon fill="#e0e0e0" stroke="#999999" points="154.5,-129 107.5,-129 107.5,-110 154.5,-110 154.5,-129"/>
<text text-anchor="middle" x="131" y="-117" font-family="Helvetica,sans-Serif" font-size="10.00">cmath</text>
</a>
</g>
</g>
<!-- Node1&#45;&gt;Node3 -->
<g id="edge28_Node000001_Node000003" class="edge">
<title>Node1&#45;&gt;Node3</title>
<g id="a_edge28_Node000001_Node000003"><a xlink:title=" ">
<path fill="none" stroke="#63b8ff" d="M366.9,-223.89C323.83,-216.37 269.45,-203.88 224,-184 195.52,-171.55 166.55,-150.07 148.68,-135.58"/>
<polygon fill="#63b8ff" stroke="#63b8ff" points="150.78,-132.78 140.85,-129.1 146.32,-138.17 150.78,-132.78"/>
</a>
</g>
</g>
<!-- Node4 -->
<g id="Node000004" class="node">
<title>Node4</title>
<g id="a_Node000004"><a xlink:href="bitstream__util_8hpp.html" target="_top" xlink:title=" ">
<polygon fill="white" stroke="#666666" points="279,-129 173,-129 173,-110 279,-110 279,-129"/>
<text text-anchor="middle" x="226" y="-117" font-family="Helvetica,sans-Serif" font-size="10.00">bitstream_util.hpp</text>
</a>
</g>
</g>
<!-- Node1&#45;&gt;Node4 -->
<g id="edge33_Node000001_Node000004" class="edge">
<title>Node1&#45;&gt;Node4</title>
<g id="a_edge33_Node000001_Node000004"><a xlink:title=" ">
<path fill="none" stroke="#63b8ff" d="M366.81,-224.39C315.89,-216.31 254.76,-203 237,-184 225.91,-172.13 223.86,-153.3 224.16,-139.22"/>
<polygon fill="#63b8ff" stroke="#63b8ff" points="227.66,-139.37 224.79,-129.17 220.68,-138.94 227.66,-139.37"/>
</a>
</g>
</g>
<!-- Node7 -->
<g id="Node000007" class="node">
<title>Node7</title>
<g id="a_Node000007"><a xlink:title=" ">
<polygon fill="#e0e0e0" stroke="#999999" points="503,-19 453,-19 453,0 503,0 503,-19"/>
<text text-anchor="middle" x="478" y="-7" font-family="Helvetica,sans-Serif" font-size="10.00">cstdint</text>
</a>
</g>
</g>
<!-- Node1&#45;&gt;Node7 -->
<g id="edge30_Node000001_Node000007" class="edge">
<title>Node1&#45;&gt;Node7</title>
<g id="a_edge30_Node000001_Node000007"><a xlink:title=" ">
<path fill="none" stroke="#63b8ff" d="M517.17,-234.5C705.36,-233.43 1171.51,-215.02 1024,-55 989.39,-17.45 628.48,-11.58 513.19,-10.67"/>
<polygon fill="#63b8ff" stroke="#63b8ff" points="513.16,-7.17 503.13,-10.6 513.11,-14.17 513.16,-7.17"/>
</a>
</g>
</g>
<!-- Node9 -->
<g id="Node000009" class="node">
<title>Node9</title>
<g id="a_Node000009"><a xlink:title=" ">
<polygon fill="#e0e0e0" stroke="#999999" points="319.5,-74 254.5,-74 254.5,-55 319.5,-55 319.5,-74"/>
<text text-anchor="middle" x="287" y="-62" font-family="Helvetica,sans-Serif" font-size="10.00">stdexcept</text>
</a>
</g>
</g>
<!-- Node1&#45;&gt;Node9 -->
<g id="edge32_Node000001_Node000009" class="edge">
<title>Node1&#45;&gt;Node9</title>
<g id="a_edge32_Node000001_Node000009"><a xlink:title=" ">
<path fill="none" stroke="#63b8ff" d="M428,-220C408.23,-200.11 371.2,-162.39 341,-129 326.96,-113.48 311.55,-95.23 300.8,-82.29"/>
<polygon fill="#63b8ff" stroke="#63b8ff" points="303.24,-79.75 294.17,-74.27 297.85,-84.21 303.24,-79.75"/>
</a>
</g>
</g>
<!-- Node17 -->
<g id="Node000017" class="node">
<title>Node17</title>
<g id="a_Node000017"><a xlink:href="uvgvpcc_8hpp.html" target="_top" xlink:title=" ">
<polygon fill="white" stroke="#666666" points="620,-129 498,-129 498,-110 620,-110 620,-129"/>
<text text-anchor="middle" x="559" y="-117" font-family="Helvetica,sans-Serif" font-size="10.00">uvgvpcc/uvgvpcc.hpp</text>
</a>
</g>
</g>
<!-- Node1&#45;&gt;Node17 -->
<g id="edge34_Node000001_Node000017" class="edge">
<title>Node1&#45;&gt;Node17</title>
<g id="a_edge34_Node000001_Node000017"><a xlink:title=" ">
<path fill="none" stroke="#63b8ff" d="M456.82,-219.63C478.82,-198.28 519.97,-158.36 542.77,-136.25"/>
<polygon fill="#63b8ff" stroke="#63b8ff" points="545.26,-138.7 550,-129.23 540.39,-133.68 545.26,-138.7"/>
</a>
</g>
</g>
<!-- Node18 -->
<g id="Node000018" class="node">
<title>Node18</title>
<g id="a_Node000018"><a xlink:title=" ">
<polygon fill="#e0e0e0" stroke="#999999" points="938.5,-74 885.5,-74 885.5,-55 938.5,-55 938.5,-74"/>
<text text-anchor="middle" x="912" y="-62" font-family="Helvetica,sans-Serif" font-size="10.00">cstddef</text>
</a>
</g>
</g>
<!-- Node1&#45;&gt;Node18 -->
<g id="edge29_Node000001_Node000018" class="edge">
<title>Node1&#45;&gt;Node18</title>
<g id="a_edge29_Node000001_Node000018"><a xlink:title=" ">
<path fill="none" stroke="#63b8ff" d="M481.26,-219.92C571.79,-187.47 793.86,-107.85 878.49,-77.51"/>
<polygon fill="#63b8ff" stroke="#63b8ff" points="879.88,-80.73 888.12,-74.06 877.52,-74.14 879.88,-80.73"/>
</a>
</g>
</g>
<!-- Node20 -->
<g id="Node000020" class="node">
<title>Node20</title>
<g id="a_Node000020"><a xlink:title=" ">
<polygon fill="#e0e0e0" stroke="#999999" points="1015,-74 957,-74 957,-55 1015,-55 1015,-74"/>
<text text-anchor="middle" x="986" y="-62" font-family="Helvetica,sans-Serif" font-size="10.00">memory</text>
</a>
</g>
</g>
<!-- Node1&#45;&gt;Node20 -->
<g id="edge31_Node000001_Node000020" class="edge">
<title>Node1&#45;&gt;Node20</title>
<g id="a_edge31_Node000001_Node000020"><a xlink:title=" ">
<path fill="none" stroke="#63b8ff" d="M494.64,-219.91C530.39,-210.2 578.68,-196.77 621,-184 742.99,-147.18 886.44,-99.23 951.19,-77.34"/>
<polygon fill="#63b8ff" stroke="#63b8ff" points="952.54,-80.57 960.89,-74.05 950.3,-73.94 952.54,-80.57"/>
</a>
</g>
</g>
<!-- Node2&#45;&gt;Node3 -->
<g id="edge2_Node000002_Node000003" class="edge">
<title>Node2&#45;&gt;Node3</title>
<g id="a_edge2_Node000002_Node000003"><a xlink:title=" ">
<path fill="none" stroke="#63b8ff" d="M251.02,-164.98C227.5,-156.27 190.71,-142.63 164.06,-132.75"/>
<polygon fill="#63b8ff" stroke="#63b8ff" points="164.99,-129.36 154.39,-129.17 162.55,-135.93 164.99,-129.36"/>
</a>
</g>
</g>
<!-- Node2&#45;&gt;Node4 -->
<g id="edge3_Node000002_Node000004" class="edge">
<title>Node2&#45;&gt;Node4</title>
<g id="a_edge3_Node000002_Node000004"><a xlink:title=" ">
<path fill="none" stroke="#63b8ff" d="M266.07,-164.75C259.15,-157.11 248.93,-145.82 240.55,-136.56"/>
<polygon fill="#63b8ff" stroke="#63b8ff" points="243.09,-134.15 233.78,-129.09 237.9,-138.85 243.09,-134.15"/>
</a>
</g>
</g>
<!-- Node8 -->
<g id="Node000008" class="node">
<title>Node8</title>
<g id="a_Node000008"><a xlink:href="parameters_8hpp.html" target="_top" xlink:title=" ">
<polygon fill="white" stroke="#666666" points="468,-129 350,-129 350,-110 468,-110 468,-129"/>
<text text-anchor="middle" x="409" y="-117" font-family="Helvetica,sans-Serif" font-size="10.00">utils/parameters.hpp</text>
</a>
</g>
</g>
<!-- Node2&#45;&gt;Node8 -->
<g id="edge7_Node000002_Node000008" class="edge">
<title>Node2&#45;&gt;Node8</title>
<g id="a_edge7_Node000002_Node000008"><a xlink:title=" ">
<path fill="none" stroke="#63b8ff" d="M295.69,-164.98C317.8,-156.3 352.32,-142.75 377.45,-132.88"/>
<polygon fill="#63b8ff" stroke="#63b8ff" points="378.89,-136.08 386.92,-129.17 376.33,-129.57 378.89,-136.08"/>
</a>
</g>
</g>
<!-- Node2&#45;&gt;Node17 -->
<g id="edge17_Node000002_Node000017" class="edge">
<title>Node2&#45;&gt;Node17</title>
<g id="a_edge17_Node000002_Node000017"><a xlink:title=" ">
<path fill="none" stroke="#63b8ff" d="M301.59,-168.37C347.94,-159.75 442.32,-142.2 503.01,-130.91"/>
<polygon fill="#63b8ff" stroke="#63b8ff" points="504,-134.29 513.19,-129.02 502.72,-127.41 504,-134.29"/>
</a>
</g>
</g>
<!-- Node5 -->
<g id="Node000005" class="node">
<title>Node5</title>
<g id="a_Node000005"><a xlink:title=" ">
<polygon fill="#e0e0e0" stroke="#999999" points="52,-74 0,-74 0,-55 52,-55 52,-74"/>
<text text-anchor="middle" x="26" y="-62" font-family="Helvetica,sans-Serif" font-size="10.00">cassert</text>
</a>
</g>
</g>
<!-- Node4&#45;&gt;Node5 -->
<g id="edge4_Node000004_Node000005" class="edge">
<title>Node4&#45;&gt;Node5</title>
<g id="a_edge4_Node000004_Node000005"><a xlink:title=" ">
<path fill="none" stroke="#63b8ff" d="M193.87,-109.98C157.83,-100.44 99.54,-84.99 62,-75.04"/>
<polygon fill="#63b8ff" stroke="#63b8ff" points="62.56,-71.57 52,-72.39 60.77,-78.34 62.56,-71.57"/>
</a>
</g>
</g>
<!-- Node6 -->
<g id="Node000006" class="node">
<title>Node6</title>
<g id="a_Node000006"><a xlink:title=" ">
<polygon fill="#e0e0e0" stroke="#999999" points="120,-74 70,-74 70,-55 120,-55 120,-74"/>
<text text-anchor="middle" x="95" y="-62" font-family="Helvetica,sans-Serif" font-size="10.00">cstring</text>
</a>
</g>
</g>
<!-- Node4&#45;&gt;Node6 -->
<g id="edge5_Node000004_Node000006" class="edge">
<title>Node4&#45;&gt;Node6</title>
<g id="a_edge5_Node000004_Node000006"><a xlink:title=" ">
<path fill="none" stroke="#63b8ff" d="M204.95,-109.98C183.59,-101.34 150.3,-87.87 125.94,-78.02"/>
<polygon fill="#63b8ff" stroke="#63b8ff" points="127.01,-74.68 116.43,-74.17 124.39,-81.17 127.01,-74.68"/>
</a>
</g>
</g>
<!-- Node4&#45;&gt;Node7 -->
<g id="edge6_Node000004_Node000007" class="edge">
<title>Node4&#45;&gt;Node7</title>
<g id="a_edge6_Node000004_Node000007"><a xlink:title=" ">
<path fill="none" stroke="#63b8ff" d="M225.93,-109.62C226.34,-95.79 229.28,-69.19 245,-55 259.56,-41.86 381.45,-23.64 442.89,-15.17"/>
<polygon fill="#63b8ff" stroke="#63b8ff" points="443.48,-18.62 452.91,-13.8 442.53,-11.69 443.48,-18.62"/>
</a>
</g>
</g>
<!-- Node8&#45;&gt;Node9 -->
<g id="edge8_Node000008_Node000009" class="edge">
<title>Node8&#45;&gt;Node9</title>
<g id="a_edge8_Node000008_Node000009"><a xlink:title=" ">
<path fill="none" stroke="#63b8ff" d="M389.4,-109.98C369.68,-101.42 339.05,-88.11 316.42,-78.28"/>
<polygon fill="#63b8ff" stroke="#63b8ff" points="317.52,-74.94 306.96,-74.17 314.74,-81.37 317.52,-74.94"/>
</a>
</g>
</g>
<!-- Node10 -->
<g id="Node000010" class="node">
<title>Node10</title>
<g id="a_Node000010"><a xlink:title=" ">
<polygon fill="#e0e0e0" stroke="#999999" points="382,-74 338,-74 338,-55 382,-55 382,-74"/>
<text text-anchor="middle" x="360" y="-62" font-family="Helvetica,sans-Serif" font-size="10.00">string</text>
</a>
</g>
</g>
<!-- Node8&#45;&gt;Node10 -->
<g id="edge9_Node000008_Node000010" class="edge">
<title>Node8&#45;&gt;Node10</title>
<g id="a_edge9_Node000008_Node000010"><a xlink:title=" ">
<path fill="none" stroke="#63b8ff" d="M400.91,-109.75C393.84,-102.11 383.41,-90.82 374.85,-81.56"/>
<polygon fill="#63b8ff" stroke="#63b8ff" points="377.3,-79.06 367.94,-74.09 372.16,-83.81 377.3,-79.06"/>
</a>
</g>
</g>
<!-- Node11 -->
<g id="Node000011" class="node">
<title>Node11</title>
<g id="a_Node000011"><a xlink:title=" ">
<polygon fill="#e0e0e0" stroke="#999999" points="447.5,-74 400.5,-74 400.5,-55 447.5,-55 447.5,-74"/>
<text text-anchor="middle" x="424" y="-62" font-family="Helvetica,sans-Serif" font-size="10.00">vector</text>
</a>
</g>
</g>
<!-- Node8&#45;&gt;Node11 -->
<g id="edge10_Node000008_Node000011" class="edge">
<title>Node8&#45;&gt;Node11</title>
<g id="a_edge10_Node000008_Node000011"><a xlink:title=" ">
<path fill="none" stroke="#63b8ff" d="M411.48,-109.75C413.46,-102.72 416.32,-92.62 418.81,-83.84"/>
<polygon fill="#63b8ff" stroke="#63b8ff" points="422.21,-84.66 421.57,-74.09 415.48,-82.76 422.21,-84.66"/>
</a>
</g>
</g>
<!-- Node12 -->
<g id="Node000012" class="node">
<title>Node12</title>
<g id="a_Node000012"><a xlink:href="utils_8hpp.html" target="_top" xlink:title=" ">
<polygon fill="white" stroke="#666666" points="197.5,-74 138.5,-74 138.5,-55 197.5,-55 197.5,-74"/>
<text text-anchor="middle" x="168" y="-62" font-family="Helvetica,sans-Serif" font-size="10.00">utils.hpp</text>
</a>
</g>
</g>
<!-- Node8&#45;&gt;Node12 -->
<g id="edge11_Node000008_Node000012" class="edge">
<title>Node8&#45;&gt;Node12</title>
<g id="a_edge11_Node000008_Node000012"><a xlink:title=" ">
<path fill="none" stroke="#63b8ff" d="M370.28,-109.98C325.59,-100.16 252.5,-84.08 207.49,-74.18"/>
<polygon fill="#63b8ff" stroke="#63b8ff" points="208.03,-70.72 197.51,-71.99 206.52,-77.56 208.03,-70.72"/>
</a>
</g>
</g>
<!-- Node12&#45;&gt;Node7 -->
<g id="edge13_Node000012_Node000007" class="edge">
<title>Node12&#45;&gt;Node7</title>
<g id="a_edge13_Node000012_Node000007"><a xlink:title=" ">
<path fill="none" stroke="#63b8ff" d="M197.8,-57.64C202.55,-56.73 207.41,-55.83 212,-55 294.38,-40.15 391.43,-24.34 442.48,-16.15"/>
<polygon fill="#63b8ff" stroke="#63b8ff" points="443.34,-19.56 452.66,-14.52 442.23,-12.65 443.34,-19.56"/>
</a>
</g>
</g>
<!-- Node13 -->
<g id="Node000013" class="node">
<title>Node13</title>
<g id="a_Node000013"><a xlink:title=" ">
<polygon fill="#e0e0e0" stroke="#999999" points="256,-19 214,-19 214,0 256,0 256,-19"/>
<text text-anchor="middle" x="235" y="-7" font-family="Helvetica,sans-Serif" font-size="10.00">array</text>
</a>
</g>
</g>
<!-- Node12&#45;&gt;Node13 -->
<g id="edge12_Node000012_Node000013" class="edge">
<title>Node12&#45;&gt;Node13</title>
<g id="a_edge12_Node000012_Node000013"><a xlink:title=" ">
<path fill="none" stroke="#63b8ff" d="M178.76,-54.98C188.77,-47.07 203.89,-35.11 215.93,-25.58"/>
<polygon fill="#63b8ff" stroke="#63b8ff" points="218.37,-28.12 224.04,-19.17 214.03,-22.63 218.37,-28.12"/>
</a>
</g>
</g>
<!-- Node14 -->
<g id="Node000014" class="node">
<title>Node14</title>
<g id="a_Node000014"><a xlink:title=" ">
<polygon fill="#e0e0e0" stroke="#999999" points="122,-19 78,-19 78,0 122,0 122,-19"/>
<text text-anchor="middle" x="100" y="-7" font-family="Helvetica,sans-Serif" font-size="10.00">limits</text>
</a>
</g>
</g>
<!-- Node12&#45;&gt;Node14 -->
<g id="edge14_Node000012_Node000014" class="edge">
<title>Node12&#45;&gt;Node14</title>
<g id="a_edge14_Node000012_Node000014"><a xlink:title=" ">
<path fill="none" stroke="#63b8ff" d="M157.07,-54.98C146.92,-47.07 131.58,-35.11 119.35,-25.58"/>
<polygon fill="#63b8ff" stroke="#63b8ff" points="121.16,-22.56 111.12,-19.17 116.86,-28.08 121.16,-22.56"/>
</a>
</g>
</g>
<!-- Node15 -->
<g id="Node000015" class="node">
<title>Node15</title>
<g id="a_Node000015"><a xlink:title=" ">
<polygon fill="#e0e0e0" stroke="#999999" points="400,-19 344,-19 344,0 400,0 400,-19"/>
<text text-anchor="middle" x="372" y="-7" font-family="Helvetica,sans-Serif" font-size="10.00">sstream</text>
</a>
</g>
</g>
<!-- Node12&#45;&gt;Node15 -->
<g id="edge15_Node000012_Node000015" class="edge">
<title>Node12&#45;&gt;Node15</title>
<g id="a_edge15_Node000012_Node000015"><a xlink:title=" ">
<path fill="none" stroke="#63b8ff" d="M197.66,-55.79C233.75,-46.42 294.73,-30.58 334.16,-20.33"/>
<polygon fill="#63b8ff" stroke="#63b8ff" points="335.14,-23.69 343.94,-17.79 333.38,-16.92 335.14,-23.69"/>
</a>
</g>
</g>
<!-- Node16 -->
<g id="Node000016" class="node">
<title>Node16</title>
<g id="a_Node000016"><a xlink:title=" ">
<polygon fill="#e0e0e0" stroke="#999999" points="196,-19 140,-19 140,0 196,0 196,-19"/>
<text text-anchor="middle" x="168" y="-7" font-family="Helvetica,sans-Serif" font-size="10.00">iomanip</text>
</a>
</g>
</g>
<!-- Node12&#45;&gt;Node16 -->
<g id="edge16_Node000012_Node000016" class="edge">
<title>Node12&#45;&gt;Node16</title>
<g id="a_edge16_Node000012_Node000016"><a xlink:title=" ">
<path fill="none" stroke="#63b8ff" d="M168,-54.75C168,-47.8 168,-37.85 168,-29.13"/>
<polygon fill="#63b8ff" stroke="#63b8ff" points="171.5,-29.09 168,-19.09 164.5,-29.09 171.5,-29.09"/>
</a>
</g>
</g>
<!-- Node17&#45;&gt;Node7 -->
<g id="edge19_Node000017_Node000007" class="edge">
<title>Node17&#45;&gt;Node7</title>
<g id="a_edge19_Node000017_Node000007"><a xlink:title=" ">
<path fill="none" stroke="#63b8ff" d="M552.37,-109.66C538.9,-91.69 508.11,-50.64 490.66,-27.38"/>
<polygon fill="#63b8ff" stroke="#63b8ff" points="493.29,-25.06 484.49,-19.16 487.69,-29.26 493.29,-25.06"/>
</a>
</g>
</g>
<!-- Node17&#45;&gt;Node10 -->
<g id="edge25_Node000017_Node000010" class="edge">
<title>Node17&#45;&gt;Node10</title>
<g id="a_edge25_Node000017_Node000010"><a xlink:title=" ">
<path fill="none" stroke="#63b8ff" d="M527.03,-109.98C489.87,-100.09 428.92,-83.86 391.83,-73.98"/>
<polygon fill="#63b8ff" stroke="#63b8ff" points="392.6,-70.56 382.04,-71.37 390.8,-77.32 392.6,-70.56"/>
</a>
</g>
</g>
<!-- Node17&#45;&gt;Node11 -->
<g id="edge26_Node000017_Node000011" class="edge">
<title>Node17&#45;&gt;Node11</title>
<g id="a_edge26_Node000017_Node000011"><a xlink:title=" ">
<path fill="none" stroke="#63b8ff" d="M537.31,-109.98C515.2,-101.3 480.68,-87.75 455.55,-77.88"/>
<polygon fill="#63b8ff" stroke="#63b8ff" points="456.67,-74.57 446.08,-74.17 454.11,-81.08 456.67,-74.57"/>
</a>
</g>
</g>
<!-- Node17&#45;&gt;Node15 -->
<g id="edge24_Node000017_Node000015" class="edge">
<title>Node17&#45;&gt;Node15</title>
<g id="a_edge24_Node000017_Node000015"><a xlink:title=" ">
<path fill="none" stroke="#63b8ff" d="M545.99,-109.96C526.78,-97.46 489.59,-73.64 457,-55 437.78,-44.01 415.61,-32.43 398.73,-23.85"/>
<polygon fill="#63b8ff" stroke="#63b8ff" points="399.96,-20.55 389.46,-19.16 396.81,-26.8 399.96,-20.55"/>
</a>
</g>
</g>
<!-- Node17&#45;&gt;Node18 -->
<g id="edge18_Node000017_Node000018" class="edge">
<title>Node17&#45;&gt;Node18</title>
<g id="a_edge18_Node000017_Node000018"><a xlink:title=" ">
<path fill="none" stroke="#63b8ff" d="M620.04,-111.63C681.89,-104.29 780.49,-91.53 875.28,-73.97"/>
<polygon fill="#63b8ff" stroke="#63b8ff" points="876.14,-77.37 885.32,-72.09 874.85,-70.49 876.14,-77.37"/>
</a>
</g>
</g>
<!-- Node19 -->
<g id="Node000019" class="node">
<title>Node19</title>
<g id="a_Node000019"><a xlink:title=" ">
<polygon fill="#e0e0e0" stroke="#999999" points="602,-74 542,-74 542,-55 602,-55 602,-74"/>
<text text-anchor="middle" x="572" y="-62" font-family="Helvetica,sans-Serif" font-size="10.00">iostream</text>
</a>
</g>
</g>
<!-- Node17&#45;&gt;Node19 -->
<g id="edge20_Node000017_Node000019" class="edge">
<title>Node17&#45;&gt;Node19</title>
<g id="a_edge20_Node000017_Node000019"><a xlink:title=" ">
<path fill="none" stroke="#63b8ff" d="M561.15,-109.75C562.87,-102.72 565.35,-92.62 567.5,-83.84"/>
<polygon fill="#63b8ff" stroke="#63b8ff" points="570.91,-84.63 569.89,-74.09 564.11,-82.97 570.91,-84.63"/>
</a>
</g>
</g>
<!-- Node17&#45;&gt;Node20 -->
<g id="edge21_Node000017_Node000020" class="edge">
<title>Node17&#45;&gt;Node20</title>
<g id="a_edge21_Node000017_Node000020"><a xlink:title=" ">
<path fill="none" stroke="#63b8ff" d="M620.26,-113.52C695.03,-106.99 825.5,-94.13 946.43,-74.11"/>
<polygon fill="#63b8ff" stroke="#63b8ff" points="947.32,-77.5 956.6,-72.4 946.16,-70.6 947.32,-77.5"/>
</a>
</g>
</g>
<!-- Node21 -->
<g id="Node000021" class="node">
<title>Node21</title>
<g id="a_Node000021"><a xlink:title=" ">
<polygon fill="#e0e0e0" stroke="#999999" points="667.5,-74 620.5,-74 620.5,-55 667.5,-55 667.5,-74"/>
<text text-anchor="middle" x="644" y="-62" font-family="Helvetica,sans-Serif" font-size="10.00">queue</text>
</a>
</g>
</g>
<!-- Node17&#45;&gt;Node21 -->
<g id="edge22_Node000017_Node000021" class="edge">
<title>Node17&#45;&gt;Node21</title>
<g id="a_edge22_Node000017_Node000021"><a xlink:title=" ">
<path fill="none" stroke="#63b8ff" d="M572.66,-109.98C585.84,-101.77 606.03,-89.18 621.57,-79.49"/>
<polygon fill="#63b8ff" stroke="#63b8ff" points="623.46,-82.43 630.09,-74.17 619.76,-76.49 623.46,-82.43"/>
</a>
</g>
</g>
<!-- Node22 -->
<g id="Node000022" class="node">
<title>Node22</title>
<g id="a_Node000022"><a xlink:title=" ">
<polygon fill="#e0e0e0" stroke="#999999" points="756.5,-74 685.5,-74 685.5,-55 756.5,-55 756.5,-74"/>
<text text-anchor="middle" x="721" y="-62" font-family="Helvetica,sans-Serif" font-size="10.00">semaphore</text>
</a>
</g>
</g>
<!-- Node17&#45;&gt;Node22 -->
<g id="edge23_Node000017_Node000022" class="edge">
<title>Node17&#45;&gt;Node22</title>
<g id="a_edge23_Node000017_Node000022"><a xlink:title=" ">
<path fill="none" stroke="#63b8ff" d="M585.03,-109.98C612.11,-101.13 654.71,-87.19 685.01,-77.28"/>
<polygon fill="#63b8ff" stroke="#63b8ff" points="686.35,-80.52 694.77,-74.08 684.18,-73.87 686.35,-80.52"/>
</a>
</g>
</g>
<!-- Node23 -->
<g id="Node000023" class="node">
<title>Node23</title>
<g id="a_Node000023"><a xlink:title=" ">
<polygon fill="#e0e0e0" stroke="#999999" points="867,-74 775,-74 775,-55 867,-55 867,-74"/>
<text text-anchor="middle" x="821" y="-62" font-family="Helvetica,sans-Serif" font-size="10.00">../utils/utils.hpp</text>
</a>
</g>
</g>
<!-- Node17&#45;&gt;Node23 -->
<g id="edge27_Node000017_Node000023" class="edge">
<title>Node17&#45;&gt;Node23</title>
<g id="a_edge27_Node000017_Node000023"><a xlink:title=" ">
<path fill="none" stroke="#63b8ff" d="M601.09,-109.98C646.7,-100.76 719.52,-86.03 768.75,-76.07"/>
<polygon fill="#63b8ff" stroke="#63b8ff" points="769.47,-79.5 778.58,-74.08 768.08,-72.63 769.47,-79.5"/>
</a>
</g>
</g>
</g>
</svg>
