<?xml version="1.0" encoding="UTF-8" standalone="no"?>
<!DOCTYPE svg PUBLIC "-//W3C//DTD SVG 1.1//EN"
 "http://www.w3.org/Graphics/SVG/1.1/DTD/svg11.dtd">
<!-- Generated by graphviz version 2.43.0 (0)
 -->
<!-- Title: src/lib/bitstreamGeneration/vps.hpp Pages: 1 -->
<!--zoomable 148 -->

<svg id="main" version="1.1" xmlns="http://www.w3.org/2000/svg" xmlns:xlink="http://www.w3.org/1999/xlink" xml:space="preserve" onload="init(evt)">
<style type="text/css"><![CDATA[
.node, .edge {opacity: 0.7;}
.node.selected, .edge.selected {opacity: 1;}
.edge:hover path { stroke: red; }
.edge:hover polygon { stroke: red; fill: red; }
]]></style>

<defs>
  <circle id="rim" cx="0" cy="0" r="7"/>
  <circle id="rim2" cx="0" cy="0" r="3.5"/>
  <g id="zoomPlus">
    <use xlink:href="#rim" fill="#404040"><set attributeName="fill" to="#808080" begin="zoomplus.mouseover" end="zoomplus.mouseout"/></use>
    <path d="M-4,0h8M0,-4v8" fill="none" stroke="white" stroke-width="1.5" pointer-events="none"/>
  </g>
  <g id="zoomMin">
    <use xlink:href="#rim" fill="#404040"><set attributeName="fill" to="#808080" begin="zoomminus.mouseover" end="zoomminus.mouseout"/></use>
    <path d="M-4,0h8" fill="none" stroke="white" stroke-width="1.5" pointer-events="none"/>
  </g>
  <g id="arrowUp" transform="translate(30 24)">
    <use xlink:href="#rim"/>
    <path pointer-events="none" fill="none" stroke="white" stroke-width="1.5" d="M0,-3.0v7 M-2.5,-0.5L0,-3.0L2.5,-0.5"/>
  </g>
  <g id="arrowRight" transform="rotate(90) translate(36 -43)">
    <use xlink:href="#rim"/>
    <path pointer-events="none" fill="none" stroke="white" stroke-width="1.5" d="M0,-3.0v7 M-2.5,-0.5L0,-3.0L2.5,-0.5"/>
  </g>
  <g id="arrowDown" transform="rotate(180) translate(-30 -48)">
    <use xlink:href="#rim"/>
    <path pointer-events="none" fill="none" stroke="white" stroke-width="1.5" d="M0,-3.0v7 M-2.5,-0.5L0,-3.0L2.5,-0.5"/>
  </g>
  <g id="arrowLeft" transform="rotate(270) translate(-36 17)">
    <use xlink:href="#rim"/>
    <path pointer-events="none" fill="none" stroke="white" stroke-width="1.5" d="M0,-3.0v7 M-2.5,-0.5L0,-3.0L2.5,-0.5"/>
  </g>
  <g id="resetDef">
    <use xlink:href="#rim2" fill="#404040"><set attributeName="fill" to="#808080" begin="reset.mouseover" end="reset.mouseout"/></use>
  </g>
</defs>
<script type="application/ecmascript">
var viewWidth = 1035;
var viewHeight = 148;
var sectionId = 'dynsection-0';
</script>
<script type="application/ecmascript" xlink:href="svg.min.js"/>
<svg id="graph" class="graph">
<g id="viewport">
<title>src/lib/bitstreamGeneration/vps.hpp</title>
<!-- Node1 -->
<g id="Node000001" class="node">
<title>Node1</title>
<g id="a_Node000001"><a xlink:title=" ">
<polygon fill="#999999" stroke="#666666" points="204,-140 54,-140 54,-110 204,-110 204,-140"/>
<text text-anchor="start" x="62" y="-128" font-family="Helvetica,sans-Serif" font-size="10.00">src/lib/bitstreamGeneration</text>
<text text-anchor="middle" x="129" y="-117" font-family="Helvetica,sans-Serif" font-size="10.00">/vps.hpp</text>
</a>
</g>
</g>
<!-- Node2 -->
<g id="Node000002" class="node">
<title>Node2</title>
<g id="a_Node000002"><a xlink:title=" ">
<polygon fill="#e0e0e0" stroke="#999999" points="57.5,-74 10.5,-74 10.5,-55 57.5,-55 57.5,-74"/>
<text text-anchor="middle" x="34" y="-62" font-family="Helvetica,sans-Serif" font-size="10.00">cmath</text>
</a>
</g>
</g>
<!-- Node1&#45;&gt;Node2 -->
<g id="edge1_Node000001_Node000002" class="edge">
<title>Node1&#45;&gt;Node2</title>
<g id="a_edge1_Node000001_Node000002"><a xlink:title=" ">
<path fill="none" stroke="#63b8ff" d="M106,-109.84C91,-100.6 71.5,-88.59 56.57,-79.4"/>
<polygon fill="#63b8ff" stroke="#63b8ff" points="58.31,-76.36 47.96,-74.09 54.64,-82.32 58.31,-76.36"/>
</a>
</g>
</g>
<!-- Node3 -->
<g id="Node000003" class="node">
<title>Node3</title>
<g id="a_Node000003"><a xlink:href="bitstream__util_8hpp.html" target="_top" xlink:title=" ">
<polygon fill="white" stroke="#666666" points="182,-74 76,-74 76,-55 182,-55 182,-74"/>
<text text-anchor="middle" x="129" y="-62" font-family="Helvetica,sans-Serif" font-size="10.00">bitstream_util.hpp</text>
</a>
</g>
</g>
<!-- Node1&#45;&gt;Node3 -->
<g id="edge2_Node000001_Node000003" class="edge">
<title>Node1&#45;&gt;Node3</title>
<g id="a_edge2_Node000001_Node000003"><a xlink:title=" ">
<path fill="none" stroke="#63b8ff" d="M129,-109.84C129,-102.21 129,-92.7 129,-84.45"/>
<polygon fill="#63b8ff" stroke="#63b8ff" points="132.5,-84.27 129,-74.27 125.5,-84.27 132.5,-84.27"/>
</a>
</g>
</g>
<!-- Node7 -->
<g id="Node000007" class="node">
<title>Node7</title>
<g id="a_Node000007"><a xlink:href="uvgvpcc_8hpp.html" target="_top" xlink:title=" ">
<polygon fill="white" stroke="#666666" points="555,-74 433,-74 433,-55 555,-55 555,-74"/>
<text text-anchor="middle" x="494" y="-62" font-family="Helvetica,sans-Serif" font-size="10.00">uvgvpcc/uvgvpcc.hpp</text>
</a>
</g>
</g>
<!-- Node1&#45;&gt;Node7 -->
<g id="edge6_Node000001_Node000007" class="edge">
<title>Node1&#45;&gt;Node7</title>
<g id="a_edge6_Node000001_Node000007"><a xlink:title=" ">
<path fill="none" stroke="#63b8ff" d="M204.19,-111.95C271,-101.24 367.59,-85.76 430.58,-75.66"/>
<polygon fill="#63b8ff" stroke="#63b8ff" points="431.45,-79.07 440.77,-74.03 430.35,-72.16 431.45,-79.07"/>
</a>
</g>
</g>
<!-- Node4 -->
<g id="Node000004" class="node">
<title>Node4</title>
<g id="a_Node000004"><a xlink:title=" ">
<polygon fill="#e0e0e0" stroke="#999999" points="52,-19 0,-19 0,0 52,0 52,-19"/>
<text text-anchor="middle" x="26" y="-7" font-family="Helvetica,sans-Serif" font-size="10.00">cassert</text>
</a>
</g>
</g>
<!-- Node3&#45;&gt;Node4 -->
<g id="edge3_Node000003_Node000004" class="edge">
<title>Node3&#45;&gt;Node4</title>
<g id="a_edge3_Node000003_Node000004"><a xlink:title=" ">
<path fill="none" stroke="#63b8ff" d="M112.45,-54.98C96.11,-46.57 70.87,-33.59 51.87,-23.81"/>
<polygon fill="#63b8ff" stroke="#63b8ff" points="53.34,-20.63 42.85,-19.17 50.14,-26.86 53.34,-20.63"/>
</a>
</g>
</g>
<!-- Node5 -->
<g id="Node000005" class="node">
<title>Node5</title>
<g id="a_Node000005"><a xlink:title=" ">
<polygon fill="#e0e0e0" stroke="#999999" points="120,-19 70,-19 70,0 120,0 120,-19"/>
<text text-anchor="middle" x="95" y="-7" font-family="Helvetica,sans-Serif" font-size="10.00">cstring</text>
</a>
</g>
</g>
<!-- Node3&#45;&gt;Node5 -->
<g id="edge4_Node000003_Node000005" class="edge">
<title>Node3&#45;&gt;Node5</title>
<g id="a_edge4_Node000003_Node000005"><a xlink:title=" ">
<path fill="none" stroke="#63b8ff" d="M123.39,-54.75C118.68,-47.42 111.83,-36.73 106.03,-27.7"/>
<polygon fill="#63b8ff" stroke="#63b8ff" points="108.86,-25.62 100.51,-19.09 102.96,-29.4 108.86,-25.62"/>
</a>
</g>
</g>
<!-- Node6 -->
<g id="Node000006" class="node">
<title>Node6</title>
<g id="a_Node000006"><a xlink:title=" ">
<polygon fill="#e0e0e0" stroke="#999999" points="188,-19 138,-19 138,0 188,0 188,-19"/>
<text text-anchor="middle" x="163" y="-7" font-family="Helvetica,sans-Serif" font-size="10.00">cstdint</text>
</a>
</g>
</g>
<!-- Node3&#45;&gt;Node6 -->
<g id="edge5_Node000003_Node000006" class="edge">
<title>Node3&#45;&gt;Node6</title>
<g id="a_edge5_Node000003_Node000006"><a xlink:title=" ">
<path fill="none" stroke="#63b8ff" d="M134.61,-54.75C139.32,-47.42 146.17,-36.73 151.97,-27.7"/>
<polygon fill="#63b8ff" stroke="#63b8ff" points="155.04,-29.4 157.49,-19.09 149.14,-25.62 155.04,-29.4"/>
</a>
</g>
</g>
<!-- Node7&#45;&gt;Node6 -->
<g id="edge8_Node000007_Node000006" class="edge">
<title>Node7&#45;&gt;Node6</title>
<g id="a_edge8_Node000007_Node000006"><a xlink:title=" ">
<path fill="none" stroke="#63b8ff" d="M432.84,-56.09C374.82,-48.66 285.01,-36.14 198.21,-19.08"/>
<polygon fill="#63b8ff" stroke="#63b8ff" points="198.68,-15.6 188.19,-17.08 197.32,-22.47 198.68,-15.6"/>
</a>
</g>
</g>
<!-- Node8 -->
<g id="Node000008" class="node">
<title>Node8</title>
<g id="a_Node000008"><a xlink:title=" ">
<polygon fill="#e0e0e0" stroke="#999999" points="259.5,-19 206.5,-19 206.5,0 259.5,0 259.5,-19"/>
<text text-anchor="middle" x="233" y="-7" font-family="Helvetica,sans-Serif" font-size="10.00">cstddef</text>
</a>
</g>
</g>
<!-- Node7&#45;&gt;Node8 -->
<g id="edge7_Node000007_Node000008" class="edge">
<title>Node7&#45;&gt;Node8</title>
<g id="a_edge7_Node000007_Node000008"><a xlink:title=" ">
<path fill="none" stroke="#63b8ff" d="M448.22,-54.95C404.82,-46.74 337.55,-33.71 269.72,-19.09"/>
<polygon fill="#63b8ff" stroke="#63b8ff" points="270.23,-15.62 259.71,-16.92 268.74,-22.46 270.23,-15.62"/>
</a>
</g>
</g>
<!-- Node9 -->
<g id="Node000009" class="node">
<title>Node9</title>
<g id="a_Node000009"><a xlink:title=" ">
<polygon fill="#e0e0e0" stroke="#999999" points="338,-19 278,-19 278,0 338,0 338,-19"/>
<text text-anchor="middle" x="308" y="-7" font-family="Helvetica,sans-Serif" font-size="10.00">iostream</text>
</a>
</g>
</g>
<!-- Node7&#45;&gt;Node9 -->
<g id="edge9_Node000007_Node000009" class="edge">
<title>Node7&#45;&gt;Node9</title>
<g id="a_edge9_Node000007_Node000009"><a xlink:title=" ">
<path fill="none" stroke="#63b8ff" d="M464.12,-54.98C432.62,-46.01 382.83,-31.82 347.97,-21.89"/>
<polygon fill="#63b8ff" stroke="#63b8ff" points="348.69,-18.46 338.12,-19.08 346.78,-25.19 348.69,-18.46"/>
</a>
</g>
</g>
<!-- Node10 -->
<g id="Node000010" class="node">
<title>Node10</title>
<g id="a_Node000010"><a xlink:title=" ">
<polygon fill="#e0e0e0" stroke="#999999" points="414,-19 356,-19 356,0 414,0 414,-19"/>
<text text-anchor="middle" x="385" y="-7" font-family="Helvetica,sans-Serif" font-size="10.00">memory</text>
</a>
</g>
</g>
<!-- Node7&#45;&gt;Node10 -->
<g id="edge10_Node000007_Node000010" class="edge">
<title>Node7&#45;&gt;Node10</title>
<g id="a_edge10_Node000007_Node000010"><a xlink:title=" ">
<path fill="none" stroke="#63b8ff" d="M476.49,-54.98C459.03,-46.5 431.99,-33.35 411.83,-23.54"/>
<polygon fill="#63b8ff" stroke="#63b8ff" points="413.36,-20.4 402.83,-19.17 410.29,-26.69 413.36,-20.4"/>
</a>
</g>
</g>
<!-- Node11 -->
<g id="Node000011" class="node">
<title>Node11</title>
<g id="a_Node000011"><a xlink:title=" ">
<polygon fill="#e0e0e0" stroke="#999999" points="479.5,-19 432.5,-19 432.5,0 479.5,0 479.5,-19"/>
<text text-anchor="middle" x="456" y="-7" font-family="Helvetica,sans-Serif" font-size="10.00">queue</text>
</a>
</g>
</g>
<!-- Node7&#45;&gt;Node11 -->
<g id="edge11_Node000007_Node000011" class="edge">
<title>Node7&#45;&gt;Node11</title>
<g id="a_edge11_Node000007_Node000011"><a xlink:title=" ">
<path fill="none" stroke="#63b8ff" d="M487.73,-54.75C482.41,-47.34 474.64,-36.5 468.12,-27.41"/>
<polygon fill="#63b8ff" stroke="#63b8ff" points="470.83,-25.18 462.16,-19.09 465.14,-29.26 470.83,-25.18"/>
</a>
</g>
</g>
<!-- Node12 -->
<g id="Node000012" class="node">
<title>Node12</title>
<g id="a_Node000012"><a xlink:title=" ">
<polygon fill="#e0e0e0" stroke="#999999" points="568.5,-19 497.5,-19 497.5,0 568.5,0 568.5,-19"/>
<text text-anchor="middle" x="533" y="-7" font-family="Helvetica,sans-Serif" font-size="10.00">semaphore</text>
</a>
</g>
</g>
<!-- Node7&#45;&gt;Node12 -->
<g id="edge12_Node000007_Node000012" class="edge">
<title>Node7&#45;&gt;Node12</title>
<g id="a_edge12_Node000007_Node000012"><a xlink:title=" ">
<path fill="none" stroke="#63b8ff" d="M500.44,-54.75C505.89,-47.34 513.86,-36.5 520.56,-27.41"/>
<polygon fill="#63b8ff" stroke="#63b8ff" points="523.57,-29.22 526.68,-19.09 517.93,-25.07 523.57,-29.22"/>
</a>
</g>
</g>
<!-- Node13 -->
<g id="Node000013" class="node">
<title>Node13</title>
<g id="a_Node000013"><a xlink:title=" ">
<polygon fill="#e0e0e0" stroke="#999999" points="643,-19 587,-19 587,0 643,0 643,-19"/>
<text text-anchor="middle" x="615" y="-7" font-family="Helvetica,sans-Serif" font-size="10.00">sstream</text>
</a>
</g>
</g>
<!-- Node7&#45;&gt;Node13 -->
<g id="edge13_Node000007_Node000013" class="edge">
<title>Node7&#45;&gt;Node13</title>
<g id="a_edge13_Node000007_Node000013"><a xlink:title=" ">
<path fill="none" stroke="#63b8ff" d="M513.44,-54.98C532.99,-46.42 563.38,-33.11 585.82,-23.28"/>
<polygon fill="#63b8ff" stroke="#63b8ff" points="587.45,-26.39 595.21,-19.17 584.64,-19.98 587.45,-26.39"/>
</a>
</g>
</g>
<!-- Node14 -->
<g id="Node000014" class="node">
<title>Node14</title>
<g id="a_Node000014"><a xlink:title=" ">
<polygon fill="#e0e0e0" stroke="#999999" points="705,-19 661,-19 661,0 705,0 705,-19"/>
<text text-anchor="middle" x="683" y="-7" font-family="Helvetica,sans-Serif" font-size="10.00">string</text>
</a>
</g>
</g>
<!-- Node7&#45;&gt;Node14 -->
<g id="edge14_Node000007_Node000014" class="edge">
<title>Node7&#45;&gt;Node14</title>
<g id="a_edge14_Node000007_Node000014"><a xlink:title=" ">
<path fill="none" stroke="#63b8ff" d="M524.37,-54.98C559.13,-45.24 615.81,-29.34 651.17,-19.43"/>
<polygon fill="#63b8ff" stroke="#63b8ff" points="652.29,-22.75 660.98,-16.68 650.4,-16.01 652.29,-22.75"/>
</a>
</g>
</g>
<!-- Node15 -->
<g id="Node000015" class="node">
<title>Node15</title>
<g id="a_Node000015"><a xlink:title=" ">
<polygon fill="#e0e0e0" stroke="#999999" points="770.5,-19 723.5,-19 723.5,0 770.5,0 770.5,-19"/>
<text text-anchor="middle" x="747" y="-7" font-family="Helvetica,sans-Serif" font-size="10.00">vector</text>
</a>
</g>
</g>
<!-- Node7&#45;&gt;Node15 -->
<g id="edge15_Node000007_Node000015" class="edge">
<title>Node7&#45;&gt;Node15</title>
<g id="a_edge15_Node000007_Node000015"><a xlink:title=" ">
<path fill="none" stroke="#63b8ff" d="M539.66,-54.99C582.08,-46.92 647.24,-34.11 713.1,-19.11"/>
<polygon fill="#63b8ff" stroke="#63b8ff" points="714.28,-22.43 723.24,-16.78 712.71,-15.6 714.28,-22.43"/>
</a>
</g>
</g>
<!-- Node16 -->
<g id="Node000016" class="node">
<title>Node16</title>
<g id="a_Node000016"><a xlink:title=" ">
<polygon fill="#e0e0e0" stroke="#999999" points="881,-19 789,-19 789,0 881,0 881,-19"/>
<text text-anchor="middle" x="835" y="-7" font-family="Helvetica,sans-Serif" font-size="10.00">../utils/utils.hpp</text>
</a>
</g>
</g>
<!-- Node7&#45;&gt;Node16 -->
<g id="edge16_Node000007_Node000016" class="edge">
<title>Node7&#45;&gt;Node16</title>
<g id="a_edge16_Node000007_Node000016"><a xlink:title=" ">
<path fill="none" stroke="#63b8ff" d="M548.79,-54.98C611.83,-45.19 714.84,-29.18 778.57,-19.27"/>
<polygon fill="#63b8ff" stroke="#63b8ff" points="779.49,-22.67 788.83,-17.68 778.41,-15.75 779.49,-22.67"/>
</a>
</g>
</g>
<!-- Node17 -->
<g id="Node000017" class="node">
<title>Node17</title>
<g id="a_Node000017"><a xlink:title=" ">
<polygon fill="#e0e0e0" stroke="#999999" points="1026.5,-19 899.5,-19 899.5,0 1026.5,0 1026.5,-19"/>
<text text-anchor="middle" x="963" y="-7" font-family="Helvetica,sans-Serif" font-size="10.00">../utils/parameters.hpp</text>
</a>
</g>
</g>
<!-- Node7&#45;&gt;Node17 -->
<g id="edge17_Node000007_Node000017" class="edge">
<title>Node7&#45;&gt;Node17</title>
<g id="a_edge17_Node000007_Node000017"><a xlink:title=" ">
<path fill="none" stroke="#63b8ff" d="M555.06,-56.71C630.8,-48.28 764.17,-33.38 889.16,-19.09"/>
<polygon fill="#63b8ff" stroke="#63b8ff" points="889.76,-22.55 899.3,-17.93 888.97,-15.59 889.76,-22.55"/>
</a>
</g>
</g>
</g>
</svg>

<g id="navigator" transform="translate(0 0)" fill="#404254">
  <rect fill="#f2f5e9" fill-opacity="0.5" stroke="#606060" stroke-width=".5" x="0" y="0" width="60" height="60"/>
  <use id="zoomplus" xlink:href="#zoomPlus" x="17" y="9" onmousedown="handleZoom(evt,'in')"/>
  <use id="zoomminus" xlink:href="#zoomMin" x="42" y="9" onmousedown="handleZoom(evt,'out')"/>
  <use id="reset" xlink:href="#resetDef" x="30" y="36" onmousedown="handleReset()"/>
   <use id="arrowup" xlink:href="#arrowUp" x="0" y="0" onmousedown="handlePan(0,-1)"/>
  <use id="arrowright" xlink:href="#arrowRight" x="0" y="0" onmousedown="handlePan(1,0)"/>
  <use id="arrowdown" xlink:href="#arrowDown" x="0" y="0" onmousedown="handlePan(0,1)"/>
  <use id="arrowleft" xlink:href="#arrowLeft" x="0" y="0" onmousedown="handlePan(-1,0)"/>
</g>
<svg viewBox="0 0 15 15" width="100%" height="30px" preserveAspectRatio="xMaxYMin meet">
 <g id="arrow_out" transform="scale(0.3 0.3)">
  <a xlink:href="vps_8hpp__incl_org.svg" target="_base">
   <rect id="button" ry="5" rx="5" y="6" x="6" height="38" width="38"
        fill="#f2f5e9" fill-opacity="0.5" stroke="#606060" stroke-width="1.0"/>
   <path id="arrow"
     d="M 11.500037,31.436501 C 11.940474,20.09759 22.043105,11.32322 32.158766,21.979434 L 37.068811,17.246167 C 37.068811,17.246167 37.088388,32 37.088388,32 L 22.160133,31.978069 C 22.160133,31.978069 26.997745,27.140456 26.997745,27.140456 C 18.528582,18.264221 13.291696,25.230495 11.500037,31.436501 z"
     style="fill:#404040;"/>
  </a>
 </g>
</svg>

<style type='text/css'>
<![CDATA[
[data-mouse-over-selected='false'] { opacity: 0.7; }
[data-mouse-over-selected='true']  { opacity: 1.0; }
]]>
</style>
<script type="application/ecmascript"><![CDATA[
document.addEventListener('DOMContentLoaded', (event) => {
  highlightEdges();
  highlightAdjacentNodes();
});
]]></script>
</svg>
