<?xml version="1.0" encoding="UTF-8" standalone="no"?>
<!DOCTYPE svg PUBLIC "-//W3C//DTD SVG 1.1//EN"
 "http://www.w3.org/Graphics/SVG/1.1/DTD/svg11.dtd">
<!-- Generated by graphviz version 2.43.0 (0)
 -->
<!-- Title: src/lib/bitstreamGeneration/vps.cpp Pages: 1 -->
<svg width="1035pt" height="203pt"
 viewBox="0.00 0.00 1035.00 203.00" xmlns="http://www.w3.org/2000/svg" xmlns:xlink="http://www.w3.org/1999/xlink">
<g id="graph0" class="graph" transform="scale(1 1) rotate(0) translate(4 199)">
<title>src/lib/bitstreamGeneration/vps.cpp</title>
<!-- Node1 -->
<g id="Node000001" class="node">
<title>Node1</title>
<g id="a_Node000001"><a xlink:title=" ">
<polygon fill="#999999" stroke="#666666" points="487,-195 337,-195 337,-165 487,-165 487,-195"/>
<text text-anchor="start" x="345" y="-183" font-family="Helvetica,sans-Serif" font-size="10.00">src/lib/bitstreamGeneration</text>
<text text-anchor="middle" x="412" y="-172" font-family="Helvetica,sans-Serif" font-size="10.00">/vps.cpp</text>
</a>
</g>
</g>
<!-- Node2 -->
<g id="Node000002" class="node">
<title>Node2</title>
<g id="a_Node000002"><a xlink:href="vps_8hpp.html" target="_top" xlink:title=" ">
<polygon fill="white" stroke="#666666" points="301.5,-129 246.5,-129 246.5,-110 301.5,-110 301.5,-129"/>
<text text-anchor="middle" x="274" y="-117" font-family="Helvetica,sans-Serif" font-size="10.00">vps.hpp</text>
</a>
</g>
</g>
<!-- Node1&#45;&gt;Node2 -->
<g id="edge1_Node000001_Node000002" class="edge">
<title>Node1&#45;&gt;Node2</title>
<g id="a_edge1_Node000001_Node000002"><a xlink:title=" ">
<path fill="none" stroke="#63b8ff" d="M378.95,-164.99C356.02,-155.27 325.76,-142.44 303.62,-133.06"/>
<polygon fill="#63b8ff" stroke="#63b8ff" points="304.95,-129.82 294.38,-129.14 302.22,-136.26 304.95,-129.82"/>
</a>
</g>
</g>
<!-- Node3 -->
<g id="Node000003" class="node">
<title>Node3</title>
<g id="a_Node000003"><a xlink:title=" ">
<polygon fill="#e0e0e0" stroke="#999999" points="202.5,-74 155.5,-74 155.5,-55 202.5,-55 202.5,-74"/>
<text text-anchor="middle" x="179" y="-62" font-family="Helvetica,sans-Serif" font-size="10.00">cmath</text>
</a>
</g>
</g>
<!-- Node1&#45;&gt;Node3 -->
<g id="edge19_Node000001_Node000003" class="edge">
<title>Node1&#45;&gt;Node3</title>
<g id="a_edge19_Node000001_Node000003"><a xlink:title=" ">
<path fill="none" stroke="#63b8ff" d="M336.74,-167.02C304.34,-159.53 267.09,-147.63 237,-129 217.84,-117.13 201.11,-97.19 190.61,-82.81"/>
<polygon fill="#63b8ff" stroke="#63b8ff" points="193.25,-80.49 184.64,-74.31 187.52,-84.51 193.25,-80.49"/>
</a>
</g>
</g>
<!-- Node4 -->
<g id="Node000004" class="node">
<title>Node4</title>
<g id="a_Node000004"><a xlink:href="bitstream__util_8hpp.html" target="_top" xlink:title=" ">
<polygon fill="white" stroke="#666666" points="327,-74 221,-74 221,-55 327,-55 327,-74"/>
<text text-anchor="middle" x="274" y="-62" font-family="Helvetica,sans-Serif" font-size="10.00">bitstream_util.hpp</text>
</a>
</g>
</g>
<!-- Node1&#45;&gt;Node4 -->
<g id="edge24_Node000001_Node000004" class="edge">
<title>Node1&#45;&gt;Node4</title>
<g id="a_edge24_Node000001_Node000004"><a xlink:title=" ">
<path fill="none" stroke="#63b8ff" d="M394.8,-164.85C368.72,-143.41 319.38,-102.82 292.53,-80.74"/>
<polygon fill="#63b8ff" stroke="#63b8ff" points="294.61,-77.92 284.66,-74.27 290.16,-83.33 294.61,-77.92"/>
</a>
</g>
</g>
<!-- Node7 -->
<g id="Node000007" class="node">
<title>Node7</title>
<g id="a_Node000007"><a xlink:title=" ">
<polygon fill="#e0e0e0" stroke="#999999" points="188,-19 138,-19 138,0 188,0 188,-19"/>
<text text-anchor="middle" x="163" y="-7" font-family="Helvetica,sans-Serif" font-size="10.00">cstdint</text>
</a>
</g>
</g>
<!-- Node1&#45;&gt;Node7 -->
<g id="edge21_Node000001_Node000007" class="edge">
<title>Node1&#45;&gt;Node7</title>
<g id="a_edge21_Node000001_Node000007"><a xlink:title=" ">
<path fill="none" stroke="#63b8ff" d="M407.29,-164.62C398,-138.58 374.79,-83.66 336,-55 334.59,-53.95 248.22,-32.02 198.07,-19.35"/>
<polygon fill="#63b8ff" stroke="#63b8ff" points="198.81,-15.93 188.26,-16.87 197.1,-22.71 198.81,-15.93"/>
</a>
</g>
</g>
<!-- Node8 -->
<g id="Node000008" class="node">
<title>Node8</title>
<g id="a_Node000008"><a xlink:href="uvgvpcc_8hpp.html" target="_top" xlink:title=" ">
<polygon fill="white" stroke="#666666" points="518,-74 396,-74 396,-55 518,-55 518,-74"/>
<text text-anchor="middle" x="457" y="-62" font-family="Helvetica,sans-Serif" font-size="10.00">uvgvpcc/uvgvpcc.hpp</text>
</a>
</g>
</g>
<!-- Node1&#45;&gt;Node8 -->
<g id="edge25_Node000001_Node000008" class="edge">
<title>Node1&#45;&gt;Node8</title>
<g id="a_edge25_Node000001_Node000008"><a xlink:title=" ">
<path fill="none" stroke="#63b8ff" d="M417.7,-164.63C425.87,-144.03 440.89,-106.12 449.81,-83.63"/>
<polygon fill="#63b8ff" stroke="#63b8ff" points="453.11,-84.82 453.54,-74.23 446.6,-82.24 453.11,-84.82"/>
</a>
</g>
</g>
<!-- Node9 -->
<g id="Node000009" class="node">
<title>Node9</title>
<g id="a_Node000009"><a xlink:title=" ">
<polygon fill="#e0e0e0" stroke="#999999" points="950.5,-19 897.5,-19 897.5,0 950.5,0 950.5,-19"/>
<text text-anchor="middle" x="924" y="-7" font-family="Helvetica,sans-Serif" font-size="10.00">cstddef</text>
</a>
</g>
</g>
<!-- Node1&#45;&gt;Node9 -->
<g id="edge20_Node000001_Node000009" class="edge">
<title>Node1&#45;&gt;Node9</title>
<g id="a_edge20_Node000001_Node000009"><a xlink:title=" ">
<path fill="none" stroke="#63b8ff" d="M424.68,-164.81C449.55,-138.04 507.73,-80.53 570,-55 698.65,-2.26 745.75,-41.53 887.42,-18.83"/>
<polygon fill="#63b8ff" stroke="#63b8ff" points="888.05,-22.28 897.34,-17.17 886.9,-15.37 888.05,-22.28"/>
</a>
</g>
</g>
<!-- Node11 -->
<g id="Node000011" class="node">
<title>Node11</title>
<g id="a_Node000011"><a xlink:title=" ">
<polygon fill="#e0e0e0" stroke="#999999" points="1027,-19 969,-19 969,0 1027,0 1027,-19"/>
<text text-anchor="middle" x="998" y="-7" font-family="Helvetica,sans-Serif" font-size="10.00">memory</text>
</a>
</g>
</g>
<!-- Node1&#45;&gt;Node11 -->
<g id="edge22_Node000001_Node000011" class="edge">
<title>Node1&#45;&gt;Node11</title>
<g id="a_edge22_Node000001_Node000011"><a xlink:title=" ">
<path fill="none" stroke="#63b8ff" d="M447.74,-164.97C486.04,-150.22 548.78,-126.85 604,-110 671.36,-89.45 873.26,-40.44 958.91,-19.86"/>
<polygon fill="#63b8ff" stroke="#63b8ff" points="959.85,-23.23 968.76,-17.49 958.22,-16.42 959.85,-23.23"/>
</a>
</g>
</g>
<!-- Node19 -->
<g id="Node000019" class="node">
<title>Node19</title>
<g id="a_Node000019"><a xlink:title=" ">
<polygon fill="#e0e0e0" stroke="#999999" points="677.5,-129 612.5,-129 612.5,-110 677.5,-110 677.5,-129"/>
<text text-anchor="middle" x="645" y="-117" font-family="Helvetica,sans-Serif" font-size="10.00">stdexcept</text>
</a>
</g>
</g>
<!-- Node1&#45;&gt;Node19 -->
<g id="edge23_Node000001_Node000019" class="edge">
<title>Node1&#45;&gt;Node19</title>
<g id="a_edge23_Node000001_Node000019"><a xlink:title=" ">
<path fill="none" stroke="#63b8ff" d="M467.81,-164.99C509.03,-154.64 564.33,-140.75 602.12,-131.27"/>
<polygon fill="#63b8ff" stroke="#63b8ff" points="603.44,-134.54 612.28,-128.71 601.73,-127.75 603.44,-134.54"/>
</a>
</g>
</g>
<!-- Node2&#45;&gt;Node3 -->
<g id="edge2_Node000002_Node000003" class="edge">
<title>Node2&#45;&gt;Node3</title>
<g id="a_edge2_Node000002_Node000003"><a xlink:title=" ">
<path fill="none" stroke="#63b8ff" d="M258.74,-109.98C243.87,-101.69 221.02,-88.94 203.58,-79.22"/>
<polygon fill="#63b8ff" stroke="#63b8ff" points="204.98,-75.99 194.54,-74.17 201.57,-82.1 204.98,-75.99"/>
</a>
</g>
</g>
<!-- Node2&#45;&gt;Node4 -->
<g id="edge3_Node000002_Node000004" class="edge">
<title>Node2&#45;&gt;Node4</title>
<g id="a_edge3_Node000002_Node000004"><a xlink:title=" ">
<path fill="none" stroke="#63b8ff" d="M274,-109.75C274,-102.8 274,-92.85 274,-84.13"/>
<polygon fill="#63b8ff" stroke="#63b8ff" points="277.5,-84.09 274,-74.09 270.5,-84.09 277.5,-84.09"/>
</a>
</g>
</g>
<!-- Node2&#45;&gt;Node8 -->
<g id="edge7_Node000002_Node000008" class="edge">
<title>Node2&#45;&gt;Node8</title>
<g id="a_edge7_Node000002_Node000008"><a xlink:title=" ">
<path fill="none" stroke="#63b8ff" d="M301.79,-110.45C332.64,-101.52 382.68,-87.03 417.57,-76.92"/>
<polygon fill="#63b8ff" stroke="#63b8ff" points="418.79,-80.21 427.42,-74.07 416.85,-73.49 418.79,-80.21"/>
</a>
</g>
</g>
<!-- Node5 -->
<g id="Node000005" class="node">
<title>Node5</title>
<g id="a_Node000005"><a xlink:title=" ">
<polygon fill="#e0e0e0" stroke="#999999" points="120,-19 68,-19 68,0 120,0 120,-19"/>
<text text-anchor="middle" x="94" y="-7" font-family="Helvetica,sans-Serif" font-size="10.00">cassert</text>
</a>
</g>
</g>
<!-- Node4&#45;&gt;Node5 -->
<g id="edge4_Node000004_Node000005" class="edge">
<title>Node4&#45;&gt;Node5</title>
<g id="a_edge4_Node000004_Node000005"><a xlink:title=" ">
<path fill="none" stroke="#63b8ff" d="M245.08,-54.98C213.83,-45.78 163.97,-31.1 130.16,-21.15"/>
<polygon fill="#63b8ff" stroke="#63b8ff" points="130.8,-17.69 120.21,-18.22 128.82,-24.4 130.8,-17.69"/>
</a>
</g>
</g>
<!-- Node6 -->
<g id="Node000006" class="node">
<title>Node6</title>
<g id="a_Node000006"><a xlink:title=" ">
<polygon fill="#e0e0e0" stroke="#999999" points="50,-19 0,-19 0,0 50,0 50,-19"/>
<text text-anchor="middle" x="25" y="-7" font-family="Helvetica,sans-Serif" font-size="10.00">cstring</text>
</a>
</g>
</g>
<!-- Node4&#45;&gt;Node6 -->
<g id="edge5_Node000004_Node000006" class="edge">
<title>Node4&#45;&gt;Node6</title>
<g id="a_edge5_Node000004_Node000006"><a xlink:title=" ">
<path fill="none" stroke="#63b8ff" d="M230.24,-54.99C188.84,-46.81 124.73,-33.84 60.17,-19.2"/>
<polygon fill="#63b8ff" stroke="#63b8ff" points="60.75,-15.74 50.22,-16.93 59.19,-22.56 60.75,-15.74"/>
</a>
</g>
</g>
<!-- Node4&#45;&gt;Node7 -->
<g id="edge6_Node000004_Node000007" class="edge">
<title>Node4&#45;&gt;Node7</title>
<g id="a_edge6_Node000004_Node000007"><a xlink:title=" ">
<path fill="none" stroke="#63b8ff" d="M256.17,-54.98C238.39,-46.5 210.85,-33.35 190.32,-23.54"/>
<polygon fill="#63b8ff" stroke="#63b8ff" points="191.69,-20.32 181.16,-19.17 188.67,-26.64 191.69,-20.32"/>
</a>
</g>
</g>
<!-- Node8&#45;&gt;Node7 -->
<g id="edge9_Node000008_Node000007" class="edge">
<title>Node8&#45;&gt;Node7</title>
<g id="a_edge9_Node000008_Node000007"><a xlink:title=" ">
<path fill="none" stroke="#63b8ff" d="M399.7,-54.97C349.14,-47.15 273.22,-34.71 198.29,-19.14"/>
<polygon fill="#63b8ff" stroke="#63b8ff" points="198.71,-15.65 188.2,-17.03 197.27,-22.5 198.71,-15.65"/>
</a>
</g>
</g>
<!-- Node8&#45;&gt;Node9 -->
<g id="edge8_Node000008_Node000009" class="edge">
<title>Node8&#45;&gt;Node9</title>
<g id="a_edge8_Node000008_Node000009"><a xlink:title=" ">
<path fill="none" stroke="#63b8ff" d="M518.39,-56.48C522.99,-55.97 527.57,-55.48 532,-55 686.88,-38.39 729.43,-45.04 887.27,-18.89"/>
<polygon fill="#63b8ff" stroke="#63b8ff" points="888.06,-22.31 897.34,-17.2 886.9,-15.4 888.06,-22.31"/>
</a>
</g>
</g>
<!-- Node10 -->
<g id="Node000010" class="node">
<title>Node10</title>
<g id="a_Node000010"><a xlink:title=" ">
<polygon fill="#e0e0e0" stroke="#999999" points="879,-19 819,-19 819,0 879,0 879,-19"/>
<text text-anchor="middle" x="849" y="-7" font-family="Helvetica,sans-Serif" font-size="10.00">iostream</text>
</a>
</g>
</g>
<!-- Node8&#45;&gt;Node10 -->
<g id="edge10_Node000008_Node000010" class="edge">
<title>Node8&#45;&gt;Node10</title>
<g id="a_edge10_Node000008_Node000010"><a xlink:title=" ">
<path fill="none" stroke="#63b8ff" d="M518.09,-56.47C599.61,-46.97 740.72,-30.13 808.91,-19.02"/>
<polygon fill="#63b8ff" stroke="#63b8ff" points="809.54,-22.46 818.82,-17.36 808.38,-15.56 809.54,-22.46"/>
</a>
</g>
</g>
<!-- Node8&#45;&gt;Node11 -->
<g id="edge11_Node000008_Node000011" class="edge">
<title>Node8&#45;&gt;Node11</title>
<g id="a_edge11_Node000008_Node000011"><a xlink:title=" ">
<path fill="none" stroke="#63b8ff" d="M518.04,-58.55C635.91,-48.94 888.76,-28 958.69,-18.88"/>
<polygon fill="#63b8ff" stroke="#63b8ff" points="959.21,-22.35 968.61,-17.47 958.22,-15.41 959.21,-22.35"/>
</a>
</g>
</g>
<!-- Node12 -->
<g id="Node000012" class="node">
<title>Node12</title>
<g id="a_Node000012"><a xlink:title=" ">
<polygon fill="#e0e0e0" stroke="#999999" points="253.5,-19 206.5,-19 206.5,0 253.5,0 253.5,-19"/>
<text text-anchor="middle" x="230" y="-7" font-family="Helvetica,sans-Serif" font-size="10.00">queue</text>
</a>
</g>
</g>
<!-- Node8&#45;&gt;Node12 -->
<g id="edge12_Node000008_Node000012" class="edge">
<title>Node8&#45;&gt;Node12</title>
<g id="a_edge12_Node000008_Node000012"><a xlink:title=" ">
<path fill="none" stroke="#63b8ff" d="M417.69,-54.96C380.32,-46.74 322.3,-33.74 263.56,-19.33"/>
<polygon fill="#63b8ff" stroke="#63b8ff" points="264.29,-15.9 253.74,-16.91 262.61,-22.7 264.29,-15.9"/>
</a>
</g>
</g>
<!-- Node13 -->
<g id="Node000013" class="node">
<title>Node13</title>
<g id="a_Node000013"><a xlink:title=" ">
<polygon fill="#e0e0e0" stroke="#999999" points="342.5,-19 271.5,-19 271.5,0 342.5,0 342.5,-19"/>
<text text-anchor="middle" x="307" y="-7" font-family="Helvetica,sans-Serif" font-size="10.00">semaphore</text>
</a>
</g>
</g>
<!-- Node8&#45;&gt;Node13 -->
<g id="edge13_Node000008_Node000013" class="edge">
<title>Node8&#45;&gt;Node13</title>
<g id="a_edge13_Node000008_Node000013"><a xlink:title=" ">
<path fill="none" stroke="#63b8ff" d="M432.9,-54.98C408.12,-46.23 369.3,-32.51 341.31,-22.62"/>
<polygon fill="#63b8ff" stroke="#63b8ff" points="342.13,-19.2 331.54,-19.17 339.8,-25.8 342.13,-19.2"/>
</a>
</g>
</g>
<!-- Node14 -->
<g id="Node000014" class="node">
<title>Node14</title>
<g id="a_Node000014"><a xlink:title=" ">
<polygon fill="#e0e0e0" stroke="#999999" points="417,-19 361,-19 361,0 417,0 417,-19"/>
<text text-anchor="middle" x="389" y="-7" font-family="Helvetica,sans-Serif" font-size="10.00">sstream</text>
</a>
</g>
</g>
<!-- Node8&#45;&gt;Node14 -->
<g id="edge14_Node000008_Node000014" class="edge">
<title>Node8&#45;&gt;Node14</title>
<g id="a_edge14_Node000008_Node000014"><a xlink:title=" ">
<path fill="none" stroke="#63b8ff" d="M446.07,-54.98C435.92,-47.07 420.58,-35.11 408.35,-25.58"/>
<polygon fill="#63b8ff" stroke="#63b8ff" points="410.16,-22.56 400.12,-19.17 405.86,-28.08 410.16,-22.56"/>
</a>
</g>
</g>
<!-- Node15 -->
<g id="Node000015" class="node">
<title>Node15</title>
<g id="a_Node000015"><a xlink:title=" ">
<polygon fill="#e0e0e0" stroke="#999999" points="479,-19 435,-19 435,0 479,0 479,-19"/>
<text text-anchor="middle" x="457" y="-7" font-family="Helvetica,sans-Serif" font-size="10.00">string</text>
</a>
</g>
</g>
<!-- Node8&#45;&gt;Node15 -->
<g id="edge15_Node000008_Node000015" class="edge">
<title>Node8&#45;&gt;Node15</title>
<g id="a_edge15_Node000008_Node000015"><a xlink:title=" ">
<path fill="none" stroke="#63b8ff" d="M457,-54.75C457,-47.8 457,-37.85 457,-29.13"/>
<polygon fill="#63b8ff" stroke="#63b8ff" points="460.5,-29.09 457,-19.09 453.5,-29.09 460.5,-29.09"/>
</a>
</g>
</g>
<!-- Node16 -->
<g id="Node000016" class="node">
<title>Node16</title>
<g id="a_Node000016"><a xlink:title=" ">
<polygon fill="#e0e0e0" stroke="#999999" points="544.5,-19 497.5,-19 497.5,0 544.5,0 544.5,-19"/>
<text text-anchor="middle" x="521" y="-7" font-family="Helvetica,sans-Serif" font-size="10.00">vector</text>
</a>
</g>
</g>
<!-- Node8&#45;&gt;Node16 -->
<g id="edge16_Node000008_Node000016" class="edge">
<title>Node8&#45;&gt;Node16</title>
<g id="a_edge16_Node000008_Node000016"><a xlink:title=" ">
<path fill="none" stroke="#63b8ff" d="M467.28,-54.98C476.84,-47.07 491.28,-35.11 502.78,-25.58"/>
<polygon fill="#63b8ff" stroke="#63b8ff" points="505.06,-28.24 510.53,-19.17 500.6,-22.85 505.06,-28.24"/>
</a>
</g>
</g>
<!-- Node17 -->
<g id="Node000017" class="node">
<title>Node17</title>
<g id="a_Node000017"><a xlink:title=" ">
<polygon fill="#e0e0e0" stroke="#999999" points="655,-19 563,-19 563,0 655,0 655,-19"/>
<text text-anchor="middle" x="609" y="-7" font-family="Helvetica,sans-Serif" font-size="10.00">../utils/utils.hpp</text>
</a>
</g>
</g>
<!-- Node8&#45;&gt;Node17 -->
<g id="edge17_Node000008_Node000017" class="edge">
<title>Node8&#45;&gt;Node17</title>
<g id="a_edge17_Node000008_Node000017"><a xlink:title=" ">
<path fill="none" stroke="#63b8ff" d="M481.42,-54.98C506.72,-46.16 546.45,-32.31 574.86,-22.41"/>
<polygon fill="#63b8ff" stroke="#63b8ff" points="576.1,-25.68 584.39,-19.08 573.79,-19.07 576.1,-25.68"/>
</a>
</g>
</g>
<!-- Node18 -->
<g id="Node000018" class="node">
<title>Node18</title>
<g id="a_Node000018"><a xlink:title=" ">
<polygon fill="#e0e0e0" stroke="#999999" points="800.5,-19 673.5,-19 673.5,0 800.5,0 800.5,-19"/>
<text text-anchor="middle" x="737" y="-7" font-family="Helvetica,sans-Serif" font-size="10.00">../utils/parameters.hpp</text>
</a>
</g>
</g>
<!-- Node8&#45;&gt;Node18 -->
<g id="edge18_Node000008_Node000018" class="edge">
<title>Node8&#45;&gt;Node18</title>
<g id="a_edge18_Node000008_Node000018"><a xlink:title=" ">
<path fill="none" stroke="#63b8ff" d="M501.99,-54.98C550.93,-45.72 629.2,-30.9 681.82,-20.94"/>
<polygon fill="#63b8ff" stroke="#63b8ff" points="682.49,-24.38 691.66,-19.08 681.18,-17.5 682.49,-24.38"/>
</a>
</g>
</g>
</g>
</svg>
